<?xml version="1.0" encoding="utf-8"?>
<!-- Generator: Adobe Illustrator 23.0.6, SVG Export Plug-In . SVG Version: 6.00 Build 0)  -->
<svg version="1.1" xmlns="http://www.w3.org/2000/svg" xmlns:xlink="http://www.w3.org/1999/xlink" x="0px" y="0px" width="32px"
	 height="32px" viewBox="0 0 32 32" enable-background="new 0 0 32 32" xml:space="preserve">
<g id="icons">
	<g>
		<path fill="#F57552" d="M23.575,29.319c-1.322,0.352-2.661,0.562-4,0.639V19.666c0.928,1.084,2.123,1.948,3.534,2.439l0.466,0.162
			V29.319z"/>
		<path fill="#FF8D6E" d="M1.336,12.691l2.111-8.97c0.079-0.338,0.328-0.61,0.657-0.72L5.55,2.519
			C6.103,2.335,6.695,2.66,6.837,3.225l0.738,2.952c1.055,4.218,5.184,6.858,9.401,6.127c0.311-0.054,0.599,0.169,0.599,0.485v1.528
			c0,2.014,0.75,3.888,2,5.348v10.292c-5.104,0.292-10.192-1.373-14.158-4.773l-0.002-0.002C1.827,22.108,0.254,17.29,1.336,12.691z
			"/>
		<path fill="#FFFFFF" d="M5.161,11.586c-0.781,0.781-0.781,2.047,0,2.828c0.781,0.781,2.047,0.781,2.828,0
			c0.781-0.781-0.707-2.121-0.707-2.121S5.942,10.805,5.161,11.586z"/>
		<circle fill="#2B3332" cx="6.575" cy="13" r="1"/>
		<path fill="#EB6B48" d="M5.417,25.185l-0.002-0.002C4.043,24.007,2.969,22.576,2.222,21h4.353c3,8,13,8.958,13,8.958
			C14.471,30.25,9.383,28.584,5.417,25.185z"/>
		<path fill="#F57552" d="M4.575,17l1.707,1.707c0.188,0.188,0.293,0.442,0.293,0.707V21H2.222l0,0c-0.597-1.26-0.985-2.611-1.142-4
			H4.575z"/>
		<path fill="#FF805D" d="M1.336,12.691l0.885-3.763C2.222,14.857,4.575,17,4.575,17H1.08C0.92,15.582,0.999,14.126,1.336,12.691z"
			/>
		<path fill="#E56142" d="M30.587,27.334l-3.012,0.858V23.66l3.087,1.075c0.547,0.19,0.913,0.706,0.913,1.284v0.007
			C31.575,26.633,31.172,27.167,30.587,27.334z"/>
		<path fill="#EB6B48" d="M27.575,28.192l-3.666,1.044c-0.111,0.032-0.223,0.054-0.334,0.084v-7.052l4,1.393V28.192z"/>
		<path fill="#FF805D" d="M19.575,26v-6.334c0.928,1.084,2.123,1.948,3.534,2.439l0.466,0.162V26H19.575z"/>
		<polygon fill="#F57552" points="23.575,26 23.575,22.267 27.575,23.66 27.575,26 		"/>
	</g>
</g>
<g id="labels">
</g>
</svg>
