<?xml version="1.0" encoding="utf-8"?>
<!-- Generator: Adobe Illustrator 23.0.6, SVG Export Plug-In . SVG Version: 6.00 Build 0)  -->
<svg version="1.1" xmlns="http://www.w3.org/2000/svg" xmlns:xlink="http://www.w3.org/1999/xlink" x="0px" y="0px" width="32px"
	 height="32px" viewBox="0 0 32 32" enable-background="new 0 0 32 32" xml:space="preserve">
<g id="icons">
	<g>
		<g>
			<g>
				<path fill="#E0B12E" d="M9.433,19l-0.297,1.779C8.687,23.475,9.36,26.237,11,28.423L11.433,29l2-1l-0.16-0.481
					c-0.55-1.651-0.66-3.417-0.319-5.123L13.433,20L9.433,19z"/>
				<path fill="#E0B12E" d="M22.567,19l0.297,1.779c0.449,2.696-0.224,5.458-1.864,7.644L20.567,29l-2-1l0.16-0.481
					c0.55-1.651,0.66-3.417,0.319-5.123L18.567,20L22.567,19z"/>
			</g>
			<g>
				<path fill="#F7C845" d="M9.433,19l-0.297,1.779C8.687,23.475,9.36,26.237,11,28.423L11.433,29l2-1l-0.16-0.481
					c-0.55-1.651-0.66-3.417-0.319-5.123L13.433,20L9.433,19z"/>
				<path fill="#E0B12E" d="M22.567,19l0.297,1.779c0.449,2.696-0.224,5.458-1.864,7.644L20.567,29l-2-1l0.16-0.481
					c0.55-1.651,0.66-3.417,0.319-5.123L18.567,20L22.567,19z"/>
			</g>
		</g>
		<path fill="#F0C13E" d="M16,21h-2.767l-0.279,1.396c-0.341,1.706-0.231,3.472,0.319,5.123L13.433,28H16V21z"/>
		<path fill="#E8BA36" d="M18.767,21H16v7h2.567l0.16-0.481c0.55-1.651,0.66-3.417,0.319-5.123L18.767,21z"/>
		<path fill="#F7C845" d="M23,15l1.678,3.355c0.192,0.385,0.117,0.85-0.187,1.154l-0.561,0.561C22.054,21.946,19.51,23,16.858,23H16
			v-5L23,15z"/>
		<path fill="#FFD04D" d="M9,15l-1.678,3.355C7.13,18.74,7.205,19.205,7.51,19.51l0.561,0.561C9.946,21.946,12.49,23,15.142,23H16
			v-5L9,15z"/>
		<path fill="#FFD04D" d="M23,11l1.678,3.355c0.192,0.385,0.117,0.85-0.187,1.154l-0.561,0.561C22.054,17.946,19.51,19,16.858,19H16
			v-5L23,11z"/>
		<path fill="#FFD96C" d="M9,11l-1.678,3.355C7.13,14.74,7.205,15.205,7.51,15.51l0.561,0.561C9.946,17.946,12.49,19,15.142,19H16
			v-5L9,11z"/>
		<polygon fill="#FFD04D" points="16,28 13.433,28 11.433,29 12,30 16,30 		"/>
		<polygon fill="#F7C845" points="16,28 16,30 20,30 20.567,29 18.567,28 		"/>
		<path fill="#F7C845" d="M16,30h-4l0.586,0.586C13.491,31.491,14.719,32,16,32V30z"/>
		<path fill="#F0C13E" d="M16,32c1.281,0,2.509-0.509,3.414-1.414L20,30h-4V32z"/>
		<path fill="#FFE28A" d="M16,14.884l-2.499,4.262C13.173,19.705,13,20.342,13,20.99c0,0.661,0.18,1.309,0.52,1.876l2.052,3.419
			c0.097,0.162,0.263,0.243,0.429,0.243V14.884z"/>
		<path fill="#FFD96C" d="M16.429,26.285l2.052-3.419C18.82,22.299,19,21.651,19,20.99c0-0.648-0.173-1.285-0.501-1.844L16,14.884
			v11.644C16.166,26.528,16.332,26.447,16.429,26.285z"/>
		<path fill="#FFD04D" d="M16,14h-4c0.655,1.311,1.641,2.427,2.861,3.24l0.585,0.39c0.168,0.112,0.361,0.168,0.555,0.168V14z"/>
		<path fill="#F7C845" d="M16.555,17.63l0.585-0.39c1.219-0.813,2.205-1.93,2.861-3.24h-4v3.798
			C16.193,17.798,16.387,17.742,16.555,17.63z"/>
		<path fill="#FFD96C" d="M16,0v14.884c0.572,0,1.143-0.062,1.708-0.187C20.318,14.12,25,12.585,25,9C25,4.029,20.971,0,16,0z"/>
		<path fill="#FFE28A" d="M7,9c0,3.585,4.682,5.12,7.292,5.697c0.565,0.125,1.136,0.187,1.708,0.187V0C11.029,0,7,4.029,7,9z"/>
		<path fill="#373F3F" d="M13.868,12.346l-2.377-2.971c-0.372-0.465-1.067-0.504-1.488-0.082l-0.856,0.856
			c-0.195,0.195-0.195,0.512,0,0.707l0,0c1.077,1.077,2.427,1.842,3.905,2.211l0.304,0.076C13.82,13.26,14.167,12.72,13.868,12.346z
			"/>
		<path fill="#2B3332" d="M18.132,12.346l2.377-2.971c0.372-0.465,1.067-0.504,1.488-0.082l0.856,0.856
			c0.195,0.195,0.195,0.512,0,0.707l0,0c-1.077,1.077-2.427,1.842-3.905,2.211l-0.304,0.076C18.18,13.26,17.833,12.72,18.132,12.346
			z"/>
		<circle fill="#FFFFFF" cx="12.5" cy="12" r="0.5"/>
		<circle fill="#F7F7F7" cx="19.5" cy="12" r="0.5"/>
	</g>
</g>
<g id="labels">
</g>
</svg>
