<?xml version="1.0" encoding="utf-8"?>
<!-- Generator: Adobe Illustrator 23.0.6, SVG Export Plug-In . SVG Version: 6.00 Build 0)  -->
<svg version="1.1" xmlns="http://www.w3.org/2000/svg" xmlns:xlink="http://www.w3.org/1999/xlink" x="0px" y="0px" width="32px"
	 height="32px" viewBox="0 0 32 32" enable-background="new 0 0 32 32" xml:space="preserve">
<g id="icons">
	<g>
		<path fill="#E8BA36" d="M16,9C9.925,9,5,13.925,5,20c0,2.851,1.084,5.448,2.863,7.402c0.191,0.21,0.525,0.209,0.726,0.009L16,20V9
			z"/>
		<path fill="#E0B12E" d="M16,9c6.075,0,11,4.925,11,11c0,2.851-1.084,5.448-2.863,7.402c-0.191,0.21-0.525,0.209-0.726,0.009L16,20
			V9z"/>
		<path fill="#FFD96C" d="M23.959,19.195c-0.227-2.277-1.413-4.268-3.144-5.575c-0.21-0.159-0.259-0.454-0.113-0.673L22,11l-6-2v19
			c4.418,0,8-3.582,8-8C24,19.728,23.986,19.46,23.959,19.195z"/>
		<path fill="#FFE28A" d="M10,11l1.298,1.947c0.146,0.219,0.097,0.514-0.113,0.673c-1.731,1.308-2.917,3.298-3.144,5.575
			C8.014,19.46,8,19.728,8,20c0,4.418,3.582,8,8,8V9L10,11z"/>
		<path fill="#EA9C7A" d="M20.724,30.862L19,30v-2.587c-0.631,0.256-1.301,0.431-2,0.518V31.5c0,0.276,0.224,0.5,0.5,0.5h3
			c0.276,0,0.5-0.224,0.5-0.5v-0.191C21,31.12,20.893,30.946,20.724,30.862z"/>
		<path fill="#F4A984" d="M13,27.413V30l-1.724,0.862C11.107,30.946,11,31.12,11,31.309V31.5c0,0.276,0.224,0.5,0.5,0.5h3
			c0.276,0,0.5-0.224,0.5-0.5v-3.569C14.301,27.844,13.631,27.669,13,27.413z"/>
		<path fill="#FFD04D" d="M16,24v4c4.418,0,8-3.582,8-8c0-0.272-0.014-0.54-0.041-0.805C22.451,22.051,19.455,24,16,24z"/>
		<path fill="#FFD96C" d="M8.041,19.195C8.014,19.46,8,19.728,8,20c0,4.418,3.582,8,8,8v-4C12.545,24,9.549,22.051,8.041,19.195z"/>
		<path fill="#373F3F" d="M15,9.333V9l-5-3L9.131,8.607C9.047,8.859,9.067,9.133,9.185,9.37L10,11L15,9.333z"/>
		<path fill="#2B3332" d="M17,9.333V9l5-3l0.869,2.607c0.084,0.252,0.064,0.526-0.054,0.763L22,11L17,9.333z"/>
		<path fill="#FFE28A" d="M15,9l-3-5L9.949,3.316c-0.391-0.13-0.763,0.242-0.632,0.632L10,6L15,9z"/>
		<path fill="#FFD96C" d="M17,9l3-5l2.051-0.684c0.391-0.13,0.763,0.242,0.632,0.632L22,6L17,9z"/>
		<path fill="#FFFFFF" d="M12,7.2v1.44c0,0.341,0.334,0.582,0.658,0.474h0C12.862,9.046,13,8.855,13,8.64V7.8L12,7.2z"/>
		<path fill="#F7F7F7" d="M20,7.2v1.44c0,0.341-0.334,0.582-0.658,0.474l0,0C19.138,9.046,19,8.855,19,8.64V7.8L20,7.2z"/>
		<path fill="#F4A984" d="M16.004,9H16h-1l-1.751,2.626c-0.142,0.213-0.1,0.498,0.096,0.661l2.335,1.946
			c0.094,0.078,0.209,0.116,0.324,0.116V9z"/>
		<path fill="#EA9C7A" d="M17,9h-0.996v5.349c0.112-0.001,0.225-0.039,0.316-0.116l2.335-1.946c0.196-0.164,0.238-0.449,0.096-0.661
			L17,9z"/>
		<path fill="#E8BA36" d="M16.004,0.402c-0.16-0.001-0.32,0.073-0.42,0.222L14,3l-0.509-0.509c-0.241-0.241-0.648-0.175-0.801,0.13
			L12,4l3,5h1h0.004V0.402z"/>
		<path fill="#E0B12E" d="M18.509,2.491L18,3l-1.584-2.376c-0.098-0.147-0.255-0.221-0.412-0.222V9C16.011,9,17,9,17,9l3-5
			l-0.69-1.38C19.158,2.315,18.751,2.249,18.509,2.491z"/>
	</g>
</g>
<g id="labels">
</g>
</svg>
