<?xml version="1.0" encoding="utf-8"?>
<!-- Generator: Adobe Illustrator 23.0.6, SVG Export Plug-In . SVG Version: 6.00 Build 0)  -->
<svg version="1.1" xmlns="http://www.w3.org/2000/svg" xmlns:xlink="http://www.w3.org/1999/xlink" x="0px" y="0px" width="32px"
	 height="32px" viewBox="0 0 32 32" enable-background="new 0 0 32 32" xml:space="preserve">
<g id="icons">
	<g>
		<g>
			<path fill="#945BA0" d="M19.839,22c0,0,3.732,2.799,4.887,8.396C24.79,30.705,24.545,31,24.23,31h-3.056
				c-0.196,0-0.372-0.109-0.452-0.288c-0.357-0.793-1.602-3.05-4.722-4.516L19.839,22z"/>
			<path fill="#A366AD" d="M12.161,22c0,0-3.732,2.799-4.887,8.396C7.21,30.705,7.455,31,7.77,31h3.056
				c0.196,0,0.372-0.109,0.452-0.288c0.357-0.793,1.602-3.05,4.722-4.516L12.161,22z"/>
			<path fill="#B370B9" d="M16,0h-0.409c-0.863,0-1.548,0.727-1.497,1.588L15,17h1V0z"/>
			<path fill="#A366AD" d="M16.939,0H16v17h1l0.938-15.941C17.971,0.484,17.515,0,16.939,0z"/>
			<path fill="#A366AD" d="M22,23c0,0,3.732,2.799,4.887,8.396C26.951,31.705,26.706,32,26.391,32h-3.056
				c-0.196,0-0.372-0.109-0.452-0.288c-0.357-0.793-1.602-3.05-4.722-4.516L22,23z"/>
			<path fill="#B370B9" d="M10,23c0,0-3.732,2.799-4.887,8.396C5.049,31.705,5.294,32,5.609,32h3.056
				c0.196,0,0.372-0.109,0.452-0.288c0.357-0.793,1.602-3.05,4.722-4.516L10,23z"/>
			<path fill="#C27BC6" d="M11.536,19.536c0,0-5.118,1.953-7.071,0s-1.953-6.118,0-8.071s4.118,0.047,6.071,2
				S11.536,19.536,11.536,19.536z"/>
			<path fill="#F6B392" d="M7.165,18.903c-0.781,0-1.363-0.152-1.64-0.428C4.884,17.833,4.5,16.721,4.5,15.5
				s0.384-2.333,1.025-2.975c0.359-0.36,0.591-0.36,0.678-0.36c0.912,0,2.447,1.535,3.271,2.36c0.858,0.859,0.861,2.692,0.729,3.869
				C9.442,18.618,8.257,18.903,7.165,18.903z"/>
			<path fill="#B370B9" d="M20.464,19.536c0,0,5.118,1.953,7.071,0s1.953-6.118,0-8.071s-4.118,0.047-6.071,2
				S20.464,19.536,20.464,19.536z"/>
			<path fill="#F4A984" d="M24.835,18.903c-1.092,0-2.278-0.286-3.038-0.509c-0.133-1.175-0.131-3.01,0.729-3.869
				c0.824-0.825,2.359-2.36,3.271-2.36c0.087,0,0.318,0,0.678,0.36c0.642,0.642,1.025,1.754,1.025,2.975s-0.384,2.333-1.025,2.975
				C26.198,18.751,25.616,18.903,24.835,18.903L24.835,18.903z"/>
			<path fill="#C27BC6" d="M23,21c0-3.866-3.134-6-7-6v13C19.866,28,23,24.866,23,21z"/>
			<path fill="#D285D2" d="M16,15c-3.866,0-7,2.134-7,6c0,3.866,3.134,7,7,7V15z"/>
			<path fill="#F7F7F7" d="M19,21.5l1.508-3.017c0.198-0.396,0.771-0.361,0.919,0.055C21.699,19.306,22,20.403,22,21.5H19z"/>
			<path fill="#D84459" d="M19,21.5h2c0-1.069-0.286-2.133-0.552-2.897L19,21.5z"/>
			<path fill="#FFFFFF" d="M13,21.5l-1.508-3.017c-0.198-0.396-0.771-0.361-0.919,0.055C10.301,19.306,10,20.403,10,21.5H13z"/>
			<path fill="#E85160" d="M11,21.5h2l-1.448-2.897C11.286,19.367,11,20.431,11,21.5z"/>
			<g>
				<path fill="#FDEBBB" d="M16,23l-0.884-0.001c-0.684-0.001-1.309-0.388-1.615-1l0-0.001c-0.307-0.614-0.934-1.001-1.62-1
					L10.995,21C9.34,21.003,8,22.345,8,24v0c0,1.657,1.343,3,3,3h0l2.414,2.414C13.789,29.789,14.298,30,14.828,30H16V23z"/>
				<path fill="#FAE09F" d="M16,23h0.882c0.685,0,1.312-0.387,1.618-1.001l0,0c0.307-0.614,0.934-1.002,1.621-1.001L21.005,21
					C22.66,21.003,24,22.345,24,24v0c0,1.657-1.343,3-3,3h0l-2.414,2.414C18.211,29.789,17.702,30,17.172,30H16V23z"/>
				<path fill="#EA9C7A" d="M17.18,29c0.477,0,0.887-0.336,0.981-0.804l0.72-3.598C18.942,24.289,18.706,24,18.39,24H16v5H17.18z"/>
				<path fill="#F4A984" d="M13.839,28.196l-0.72-3.598C13.058,24.289,13.294,24,13.61,24H16v5h-1.18
					C14.343,29,13.933,28.664,13.839,28.196z"/>
				<path fill="#FFFFFF" d="M14,24h2v3h-0.64c-0.215,0-0.406-0.138-0.474-0.342L14,24z"/>
				<path fill="#F7F7F7" d="M18,24h-2v3h0.64c0.215,0,0.406-0.138,0.474-0.342L18,24z"/>
			</g>
			<path fill="#C27BC6" d="M17,0h-1v6h1c0.552,0,1-0.448,1-1V1C18,0.448,17.552,0,17,0z"/>
			<path fill="#D285D2" d="M16,0h-1c-0.552,0-1,0.448-1,1v4c0,0.552,0.448,1,1,1h1V0z"/>
		</g>
		<path fill="#DBA728" d="M22.496,23.876l0-0.001c-0.071-0.266,0.086-0.54,0.353-0.61c1.692-0.443,7.265-1.87,7.374-1.46
			c0.11,0.41-5.429,1.96-7.117,2.423C22.841,24.3,22.568,24.143,22.496,23.876z"/>
		<path fill="#E0B12E" d="M9.504,23.876l0-0.001c0.071-0.266-0.086-0.54-0.353-0.61c-1.692-0.443-7.265-1.87-7.374-1.46
			c-0.11,0.41,5.429,1.96,7.117,2.423C9.159,24.3,9.432,24.143,9.504,23.876z"/>
	</g>
</g>
<g id="labels">
</g>
</svg>
