<?xml version="1.0" encoding="utf-8"?>
<!-- Generator: Adobe Illustrator 23.0.6, SVG Export Plug-In . SVG Version: 6.00 Build 0)  -->
<svg version="1.1" xmlns="http://www.w3.org/2000/svg" xmlns:xlink="http://www.w3.org/1999/xlink" x="0px" y="0px" width="32px"
	 height="32px" viewBox="0 0 32 32" enable-background="new 0 0 32 32" xml:space="preserve">
<g id="icons">
	<g>
		<path fill="#E8BA36" d="M16,0.618c-0.178,0-0.355,0.092-0.447,0.276L15,2l-0.509-0.51c-0.241-0.241-0.648-0.175-0.801,0.13L13,3
			l-0.523-0.523C12.24,2.24,11.84,2.299,11.682,2.595L9.358,6.951C7.01,10.468,6,15.705,6,20c0,7.18,2.82,10,10,10V0.618z"/>
		<path fill="#E0B12E" d="M26,20c0-4.274-1-9.483-3.324-13h0.001l-2.359-4.406c-0.158-0.296-0.557-0.355-0.794-0.118L19,3
			l-0.69-1.38c-0.153-0.305-0.559-0.371-0.801-0.13L17,2l-0.553-1.106C16.355,0.71,16.177,0.618,16,0.618V30
			C23.18,30,26,27.18,26,20z"/>
		<path fill="#E0B12E" d="M12,28c-2.01,0-3.673,1.482-3.957,3.412C7.998,31.72,8.23,32,8.54,32h4.962c0.284,0,0.508-0.235,0.5-0.519
			C13.971,30.399,13.711,28,12,28z"/>
		<path fill="#DBA728" d="M20,28c-1.711,0-1.971,2.399-2.002,3.481C17.99,31.765,18.214,32,18.498,32h4.962
			c0.311,0,0.543-0.28,0.497-0.588C23.673,29.482,22.01,28,20,28z"/>
		<path fill="#FAE09F" d="M16,12h-2c-1.657,0-3,1.343-3,3v1.579c-2.311,0.704-3.866,2.172-3.992,5.039
			c-0.16,3.649,2.702,6.728,6.323,7.201c0.908,0.119,1.801,0.173,2.668,0.172V12z"/>
		<path fill="#F7D684" d="M21,16.579V15c0-1.657-1.343-3-3-3h-2v16.992c4.969-0.001,9-2.023,9-6.992
			C25,18.88,23.411,17.314,21,16.579z"/>
		<g>
			<polygon fill="#F7F7F7" points="14,13 15,16 14,19 16,19 16,13 			"/>
			<polygon fill="#F7F7F7" points="18,13 16,13 16,19 18,19 17,16 			"/>
		</g>
		<path fill="#F4A984" d="M14,13l-1.63,2.445c-0.224,0.336-0.224,0.774,0,1.109L14,19l1-3L14,13z"/>
		<path fill="#EA9C7A" d="M18,13l1.63,2.445c0.224,0.336,0.224,0.774,0,1.109L18,19l-1-3L18,13z"/>
		<g>
			<path fill="#F7F7F7" d="M19.427,10.573l1.209-1.209c0.212-0.212,0.56-0.192,0.747,0.042c0.242,0.304,0.523,0.762,0.598,1.312
				c0.02,0.149-0.099,0.281-0.25,0.281h-2.128C19.381,11,19.269,10.731,19.427,10.573z"/>
			<path fill="#2B3332" d="M19.604,11H21c0-0.605-0.268-1.117-0.527-1.473l-1.046,1.046C19.269,10.731,19.381,11,19.604,11z"/>
		</g>
		<g>
			<path fill="#FFFFFF" d="M12.573,10.573l-1.209-1.209c-0.212-0.212-0.56-0.192-0.747,0.042c-0.242,0.304-0.523,0.762-0.598,1.312
				C9.999,10.867,10.119,11,10.269,11h2.128C12.619,11,12.731,10.731,12.573,10.573z"/>
			<path fill="#373F3F" d="M12.396,11H11c0-0.605,0.268-1.117,0.527-1.473l1.046,1.046C12.731,10.731,12.619,11,12.396,11z"/>
		</g>
		<path fill="#FDEBBB" d="M6,20c-2.03,0-2.862,1.512-2.984,3.471C2.998,23.757,3.229,24,3.517,24h0.276
			c0.133,0,0.26-0.053,0.354-0.146L5,23l0.646,0.646c0.195,0.195,0.512,0.195,0.707,0L7,23l0.854,0.854
			C7.947,23.947,8.074,24,8.207,24h0.276c0.287,0,0.519-0.243,0.501-0.529C8.862,21.512,8.03,20,6,20z"/>
		<path fill="#FAE09F" d="M26,20c-2.03,0-2.862,1.512-2.984,3.471C22.998,23.757,23.229,24,23.517,24h0.276
			c0.133,0,0.26-0.053,0.354-0.146L25,23l0.646,0.646c0.195,0.195,0.512,0.195,0.707,0L27,23l0.854,0.854
			C27.947,23.947,28.074,24,28.207,24h0.276c0.287,0,0.519-0.243,0.501-0.529C28.862,21.512,28.03,20,26,20z"/>
		<path fill="#F0C877" d="M31,15.011c0-0.378-4.566-0.47-6.798-0.493c2.115-0.588,6.621-1.888,6.522-2.258
			c-0.109-0.409-5.645,1.007-7.351,1.454C23.153,13.771,23,13.97,23,14.197v1.605c0,0.227,0.153,0.426,0.373,0.484
			c1.706,0.447,7.241,1.863,7.351,1.454c0.098-0.366-4.302-1.64-6.448-2.238C26.534,15.479,31,15.384,31,15.011z"/>
		<path fill="#F7D684" d="M9,14.197c0-0.227-0.153-0.426-0.373-0.484c-1.706-0.447-7.241-1.863-7.351-1.454
			c-0.099,0.37,4.406,1.67,6.522,2.258c-2.232,0.023-6.796,0.115-6.796,0.493c0,0.374,4.464,0.468,6.723,0.492
			c-2.146,0.598-6.546,1.872-6.448,2.238c0.109,0.409,5.645-1.007,7.351-1.454C8.847,16.229,9,16.03,9,15.803V14.197z"/>
		<path fill="#DBA728" d="M31.396,1h-3.478c-2.855,0-5.312,2.012-5.879,4.809L22.677,7h-0.001c0.776,1.174,1.392,2.546,1.884,4h0.56
			c2.524,0,4.417-2.309,3.922-4.784L29,6l1.646-1.646c0.195-0.195,0.195-0.512,0-0.707L30,3l1.573-1.573
			C31.731,1.269,31.619,1,31.396,1z"/>
		<path fill="#E0B12E" d="M7.44,11c0.5-1.474,1.127-2.864,1.918-4.049l0.605-1.133C9.399,3.016,6.939,1,4.081,1H0.604
			C0.381,1,0.269,1.269,0.427,1.427L2,3L1.354,3.646c-0.195,0.195-0.195,0.512,0,0.707L3,6L2.957,6.216
			C2.462,8.691,4.355,11,6.879,11H7.44z"/>
	</g>
</g>
<g id="labels">
</g>
</svg>
