<?xml version="1.0" encoding="utf-8"?>
<!-- Generator: Adobe Illustrator 23.0.6, SVG Export Plug-In . SVG Version: 6.00 Build 0)  -->
<svg version="1.1" xmlns="http://www.w3.org/2000/svg" xmlns:xlink="http://www.w3.org/1999/xlink" x="0px" y="0px" width="32px"
	 height="32px" viewBox="0 0 32 32" enable-background="new 0 0 32 32" xml:space="preserve">
<g id="icons">
	<g>
		<path fill="#912B41" d="M16,0.618c-0.178,0-0.355,0.092-0.447,0.276L15,2l-0.509-0.51c-0.241-0.241-0.648-0.175-0.801,0.13L13,3
			l-0.523-0.523C12.24,2.24,11.84,2.299,11.682,2.595L9.358,6.951C7.01,10.468,6,15.705,6,20c0,7.18,2.82,10,10,10V0.618z"/>
		<path fill="#89283B" d="M26,20c0-4.274-1-9.483-3.324-13h0.001l-2.359-4.406c-0.158-0.296-0.557-0.355-0.794-0.118L19,3
			l-0.69-1.38c-0.153-0.305-0.559-0.371-0.801-0.13L17,2l-0.553-1.106C16.355,0.71,16.177,0.618,16,0.618V30
			C23.18,30,26,27.18,26,20z"/>
		<path fill="#7F1E32" d="M31.396,1h-3.478c-2.855,0-5.312,2.012-5.879,4.809L22.677,7h-0.001c0.776,1.174,1.392,2.546,1.884,4h0.56
			c2.524,0,4.417-2.309,3.922-4.784L29,6l1.646-1.646c0.195-0.195,0.195-0.512,0-0.707L30,3l1.573-1.573
			C31.731,1.269,31.619,1,31.396,1z"/>
		<path fill="#89283B" d="M7.44,11c0.5-1.474,1.127-2.864,1.918-4.049l0.605-1.133C9.399,3.016,6.939,1,4.081,1H0.604
			C0.381,1,0.269,1.269,0.427,1.427L2,3L1.354,3.646c-0.195,0.195-0.195,0.512,0,0.707L3,6L2.957,6.216
			C2.462,8.691,4.355,11,6.879,11H7.44z"/>
		<path fill="#FCD2BE" d="M12,28c-2.01,0-3.673,1.482-3.957,3.412C7.998,31.72,8.23,32,8.54,32h4.962c0.284,0,0.508-0.235,0.5-0.519
			C13.971,30.399,13.711,28,12,28z"/>
		<path fill="#FAC7AF" d="M20,28c-1.711,0-1.971,2.399-2.002,3.481C17.99,31.765,18.214,32,18.498,32h4.962
			c0.311,0,0.543-0.28,0.497-0.588C23.673,29.482,22.01,28,20,28z"/>
		<g>
			<path fill="#F7F7F7" d="M19.427,10.573l1.209-1.209c0.212-0.212,0.56-0.192,0.747,0.042c0.242,0.304,0.523,0.762,0.598,1.312
				c0.02,0.149-0.099,0.281-0.25,0.281h-2.128C19.381,11,19.269,10.731,19.427,10.573z"/>
			<path fill="#2B3332" d="M19.604,11H21c0-0.605-0.268-1.117-0.527-1.473l-1.046,1.046C19.269,10.731,19.381,11,19.604,11z"/>
		</g>
		<g>
			<path fill="#FFFFFF" d="M12.573,10.573l-1.209-1.209c-0.212-0.212-0.56-0.192-0.747,0.042c-0.242,0.304-0.523,0.762-0.598,1.312
				C9.999,10.867,10.119,11,10.269,11h2.128C12.619,11,12.731,10.731,12.573,10.573z"/>
			<path fill="#373F3F" d="M12.396,11H11c0-0.605,0.268-1.117,0.527-1.473l1.046,1.046C12.731,10.731,12.619,11,12.396,11z"/>
		</g>
		<path fill="#F9BDA0" d="M29.724,13.06c-0.08-0.299-3.066,0.38-5.334,0.941c2.004-1.208,4.619-2.853,4.463-3.123
			c-0.16-0.278-3.062,1.265-5.127,2.409c-0.464-0.571-1.101-1.001-1.825-1.187c-1.123-0.287-2.167-0.014-2.965,0.574
			C18.8,12.284,18.439,12,18.002,12H16v8.778c0.129,0.001,0.257-0.048,0.356-0.146l1.646-1.646l0.646,0.646
			c0.195,0.195,0.512,0.195,0.707,0l0.646-0.646h1.002c2.102,0,3.75-1.857,3.441-4.019C26.71,14.316,29.806,13.367,29.724,13.06z"/>
		<path fill="#FAC7AF" d="M14.002,12c-0.437,0-0.798,0.284-0.934,0.674c-0.798-0.588-1.842-0.862-2.965-0.574
			c-0.725,0.186-1.363,0.616-1.827,1.188c-2.065-1.144-4.969-2.689-5.129-2.411C2.992,11.147,5.607,12.792,7.61,14
			c-2.268-0.561-5.254-1.24-5.334-0.941c-0.082,0.307,3.017,1.258,5.282,1.908c-0.307,2.161,1.34,4.018,3.441,4.018h1.002
			l0.646,0.646c0.195,0.195,0.512,0.195,0.707,0l0.646-0.646l1.646,1.646c0.097,0.097,0.224,0.146,0.352,0.146V12H14.002z"/>
		<path fill="#FFFFFF" d="M13.444,13c0.65,0.635,1.056,1.519,1.056,2.5s-0.406,1.865-1.056,2.5H16v-5H13.444z"/>
		<path fill="#F7F7F7" d="M17.5,15.5c0-0.981,0.406-1.865,1.056-2.5H16v5h2.556C17.906,17.365,17.5,16.481,17.5,15.5z"/>
		<path fill="#FCD2BE" d="M6,20c-2.03,0-2.862,1.512-2.984,3.471C2.998,23.757,3.229,24,3.517,24h0.276
			c0.133,0,0.26-0.053,0.354-0.146L5,23l0.646,0.646c0.195,0.195,0.512,0.195,0.707,0L7,23l0.854,0.854
			C7.947,23.947,8.074,24,8.207,24h0.276c0.287,0,0.519-0.243,0.501-0.529C8.862,21.512,8.03,20,6,20z"/>
		<path fill="#FAC7AF" d="M26,20c-2.03,0-2.862,1.512-2.984,3.471C22.998,23.757,23.229,24,23.517,24h0.276
			c0.133,0,0.26-0.053,0.354-0.146L25,23l0.646,0.646c0.195,0.195,0.512,0.195,0.707,0L27,23l0.854,0.854
			C27.947,23.947,28.074,24,28.207,24h0.276c0.287,0,0.519-0.243,0.501-0.529C28.862,21.512,28.03,20,26,20z"/>
		<path fill="#4F4949" d="M12.952,21.796l-0.233,2.522l-2.301-1.06c-0.738-0.34-1.501,0.422-1.161,1.161l1.06,2.301l-2.522,0.233
			c-0.035,0.003-0.062,0.017-0.095,0.024C9.247,29.084,11.917,30,16,30v-6.561l-1.463-2.068
			C14.068,20.707,13.027,20.986,12.952,21.796z"/>
		<path fill="#413B3B" d="M24.299,26.976c-0.033-0.007-0.06-0.021-0.095-0.024l-2.522-0.233l1.06-2.301
			c0.34-0.738-0.422-1.501-1.161-1.161l-2.301,1.06l-0.233-2.522c-0.075-0.809-1.116-1.088-1.585-0.425L16,23.439V30
			C20.083,30,22.753,29.084,24.299,26.976z"/>
	</g>
</g>
<g id="labels">
</g>
</svg>
