<?xml version="1.0" encoding="utf-8"?>
<!-- Generator: Adobe Illustrator 23.0.6, SVG Export Plug-In . SVG Version: 6.00 Build 0)  -->
<svg version="1.1" xmlns="http://www.w3.org/2000/svg" xmlns:xlink="http://www.w3.org/1999/xlink" x="0px" y="0px" width="32px"
	 height="32px" viewBox="0 0 32 32" enable-background="new 0 0 32 32" xml:space="preserve">
<g id="icons">
	<g>
		<g>
			<path fill="#D64F45" d="M16,9C10.477,9,6,13.477,6,19c0,2.446,0.878,4.687,2.336,6.424c0.308,0.366,0.888,0.465,1.296,0.215
				L16,21.727V9z"/>
			<path fill="#D1473D" d="M16,9c5.523,0,10,4.477,10,10c0,2.446-0.878,4.687-2.336,6.424c-0.308,0.366-0.888,0.465-1.296,0.215
				L16,21.727V9z"/>
			<path fill="#FAE09F" d="M16,12c-4.418,0-7,3.582-7,8s2.582,8,7,8V12z"/>
			<path fill="#F7D684" d="M23,20c0-4.418-2.582-8-7-8v16C20.418,28,23,24.418,23,20z"/>
			<path fill="#F7D684" d="M16,28v-4c-2.541,0-4.893-0.795-6.833-2.142C9.794,25.379,12.223,28,16,28z"/>
			<path fill="#F0C877" d="M16,24v4c3.777,0,6.206-2.621,6.833-6.142C20.893,23.205,18.541,24,16,24z"/>
			<path fill="#B38658" d="M16,3l-3.2-2.4C12.47,0.353,12,0.588,12,1v2L7.905,2.181c-0.389-0.078-0.71,0.307-0.562,0.676L9,7
				L8.354,7.646c-0.195,0.195-0.195,0.512,0,0.707L10,10l-0.509,0.509c-0.241,0.241-0.175,0.648,0.13,0.801L11,12l-0.638,1.276
				C10.196,13.609,10.437,14,10.809,14H12l-0.684,2.051c-0.13,0.391,0.242,0.763,0.632,0.632L14,16l1.553,3.106
				c0.092,0.184,0.27,0.276,0.447,0.276V3z"/>
			<path fill="#A7794C" d="M16.447,19.106L18,16l2.051,0.684c0.391,0.13,0.763-0.242,0.632-0.632L20,14h1.191
				c0.372,0,0.613-0.391,0.447-0.724L21,12l1.38-0.69c0.305-0.153,0.371-0.559,0.13-0.801L22,10l1.646-1.646
				c0.195-0.195,0.195-0.512,0-0.707L23,7l1.657-4.143c0.147-0.369-0.173-0.754-0.562-0.676L20,3V1c0-0.412-0.47-0.647-0.8-0.4L16,3
				v16.382C16.178,19.382,16.355,19.29,16.447,19.106z"/>
			<path fill="#FFFFFF" d="M14.328,7.876l-2.341-1.691c-0.18-0.13-0.428,0.022-0.393,0.242l0.373,2.362
				C11.986,8.911,12.091,9,12.214,9h1.632c0.095,0,0.181-0.054,0.224-0.138l0.336-0.672C14.46,8.08,14.427,7.947,14.328,7.876z"/>
			<path fill="#373F3F" d="M14.328,7.876L13,6.917V8.5C13,8.776,13.224,9,13.5,9h0.345c0.095,0,0.181-0.054,0.224-0.138l0.336-0.672
				C14.46,8.08,14.427,7.947,14.328,7.876z"/>
			<path fill="#F7F7F7" d="M17.672,7.876l2.341-1.691c0.18-0.13,0.428,0.022,0.393,0.242l-0.373,2.362
				C20.014,8.911,19.909,9,19.786,9h-1.632c-0.095,0-0.181-0.054-0.224-0.138L17.595,8.19C17.54,8.08,17.573,7.947,17.672,7.876z"/>
			<path fill="#2B3332" d="M17.672,7.876L19,6.917V8.5C19,8.776,18.776,9,18.5,9h-0.345c-0.095,0-0.181-0.054-0.224-0.138
				L17.595,8.19C17.54,8.08,17.573,7.947,17.672,7.876z"/>
			<path fill="#F4A984" d="M16,9h-0.691c-0.189,0-0.363,0.107-0.447,0.276l-0.224,0.447C14.554,9.893,14.38,10,14.191,10H13.5
				c-0.276,0-0.5,0.224-0.5,0.5v0.167c0,0.216,0.07,0.427,0.2,0.6l2.4,3.2c0.1,0.133,0.25,0.2,0.4,0.2V9z"/>
			<path fill="#EA9C7A" d="M16.4,14.467l2.4-3.2c0.13-0.173,0.2-0.384,0.2-0.6V10.5c0-0.276-0.224-0.5-0.5-0.5h-0.691
				c-0.189,0-0.363-0.107-0.447-0.276l-0.224-0.447C17.054,9.107,16.88,9,16.691,9H16v5.667C16.15,14.667,16.3,14.6,16.4,14.467z"/>
			<path fill="#EA9C7A" d="M23.526,30.842L21,30l-0.699-3.493c-0.556,0.464-1.191,0.834-1.902,1.089L19,30l-1.617,0.809
				C17.148,30.926,17,31.166,17,31.428V31.5c0,0.276,0.224,0.5,0.5,0.5h6c0.276,0,0.5-0.224,0.5-0.5v-0.001
				C24,31.201,23.809,30.936,23.526,30.842z"/>
			<path fill="#F4A984" d="M14.617,30.809L13,30l0.601-2.405c-0.711-0.255-1.346-0.625-1.902-1.089L11,30l-2.526,0.842
				C8.191,30.936,8,31.201,8,31.499V31.5C8,31.776,8.224,32,8.5,32h6c0.276,0,0.5-0.224,0.5-0.5v-0.072
				C15,31.166,14.852,30.926,14.617,30.809z"/>
		</g>
	</g>
</g>
<g id="labels">
</g>
</svg>
