<?xml version="1.0" encoding="utf-8"?>
<!-- Generator: Adobe Illustrator 23.0.6, SVG Export Plug-In . SVG Version: 6.00 Build 0)  -->
<svg version="1.1" xmlns="http://www.w3.org/2000/svg" xmlns:xlink="http://www.w3.org/1999/xlink" x="0px" y="0px" width="32px"
	 height="32px" viewBox="0 0 32 32" enable-background="new 0 0 32 32" xml:space="preserve">
<g id="icons">
	<g>
		<path fill="#D285D2" d="M15.654,12.983c-2.852-0.143-4.849-2.257-5.456-5.111L4.9,13.171C4.074,13.997,3.417,14.96,2.933,16
			C2.354,17.244,2.025,18.602,2,20c0,2.209,1.791,4,4,4h10v-8h-2.615L15.654,12.983z"/>
		<path fill="#C27BC6" d="M12.896,12.102L9.385,16h4l2.269-3.017C14.612,12.931,13.683,12.621,12.896,12.102z"/>
		<path fill="#FDEBBB" d="M10.198,7.873l-2,2C8.826,12.828,10.943,15,13.958,15c0.063,0,0.124-0.008,0.186-0.01l1.509-2.006
			C12.802,12.841,10.805,10.726,10.198,7.873z"/>
		<g>
			<path fill="#FDEBBB" d="M24.494,6.5C24.656,6.291,24.631,5,24,5s-0.656,1.291-0.494,1.5H24.494z"/>
			<path fill="#F0C877" d="M24.869,11h-1.737c-0.658,0.5-0.658,2.5-0.25,3h2.237C25.526,13.5,25.526,11.5,24.869,11z"/>
			<path fill="#F7D684" d="M24.66,8.5H23.34c-0.548,0.417-0.548,2.083-0.208,2.5h1.737C25.208,10.583,25.208,8.917,24.66,8.5z"/>
			<path fill="#FAE09F" d="M24.494,6.5h-0.987c-0.438,0.333-0.438,1.667-0.167,2h1.321C24.932,8.167,24.932,6.833,24.494,6.5z"/>
		</g>
		<polygon fill="#A366AD" points="25.5,16 22.5,16 22.881,14 25.119,14 		"/>
		<path fill="#C27BC6" d="M26,16h-1.563H16v8h10c2.209,0,4-1.791,4-4C30,17.791,28.209,16,26,16z"/>
		<path fill="#D285D2" d="M16,24H4c-2.209,0-4,1.791-4,4c0,2.209,1.791,4,4,4h12V24z"/>
		<path fill="#C27BC6" d="M28,24H16v8h12c2.209,0,4-1.791,4-4C32,25.791,30.209,24,28,24z"/>
		<path fill="#C27BC6" d="M16,30H4c-1.642,0-3.086-0.802-3.998-2.024C0.002,27.984,0,27.992,0,28c0,2.209,1.791,4,4,4h12V30z"/>
		<path fill="#B370B9" d="M28,30H16v2h12c2.209,0,4-1.791,4-4c0-0.008-0.002-0.016-0.002-0.024C31.086,29.198,29.642,30,28,30z"/>
		<path fill="#C27BC6" d="M16,22H5.5c-1.335,0-2.541-0.531-3.438-1.384C2.36,22.531,4.002,24,6,24h10V22z"/>
		<path fill="#B370B9" d="M16,22v2h10c1.998,0,3.64-1.469,3.938-3.384C29.041,21.469,27.835,22,26.5,22H16z"/>
		<path fill="#FAE09F" d="M12.896,12.102l-1.875,2.082C11.859,14.703,12.847,15,13.958,15c0.063,0,0.124-0.008,0.186-0.01
			l1.509-2.006C14.612,12.931,13.683,12.621,12.896,12.102z"/>
		<path fill="#D285D2" d="M16,0.003C15.985,0.003,15.973,0,15.958,0C12.069,0,10,2.134,10,6c0,3.866,2.333,7,5.958,7
			c0.014,0,0.028-0.002,0.042-0.002V0.003z"/>
		<path fill="#C27BC6" d="M16,0.003v12.995c3.601-0.024,6-3.147,6-6.998C22,2.149,19.861,0.019,16,0.003z"/>
		<g>
			<circle fill="#FDEBBB" cx="11.5" cy="5.5" r="1.5"/>
			<ellipse fill="#373F3F" cx="11.5" cy="5.5" rx="0.5" ry="1.25"/>
		</g>
		<g>
			<circle fill="#FAE09F" cx="20.5" cy="5.5" r="1.5"/>
			<ellipse fill="#2B3332" cx="20.5" cy="5.5" rx="0.5" ry="1.25"/>
		</g>
		<path fill="#C27BC6" d="M16,10.998c-0.019,0-1.037,0.002-1.056,0.002c-2.22,0-4.139-1.342-4.139-1.342
			C11.781,11.661,13.592,13,15.958,13c0.014,0,0.027-0.003,0.042-0.003V10.998z"/>
		<path fill="#B370B9" d="M16.042,13c2.366,0,4.178-1.339,5.152-3.342c0,0-1.918,1.342-4.139,1.342
			c-0.019,0-1.037-0.002-1.056-0.002v1.999C16.014,12.997,16.027,13,16.042,13z"/>
	</g>
</g>
<g id="labels">
</g>
</svg>
