<?xml version="1.0" encoding="utf-8"?>
<!-- Generator: Adobe Illustrator 23.0.6, SVG Export Plug-In . SVG Version: 6.00 Build 0)  -->
<svg version="1.1" xmlns="http://www.w3.org/2000/svg" xmlns:xlink="http://www.w3.org/1999/xlink" x="0px" y="0px" width="32px"
	 height="32px" viewBox="0 0 32 32" enable-background="new 0 0 32 32" xml:space="preserve">
<g id="icons">
	<g>
		<path fill="#845331" d="M16.5,30l-0.001-1C17.092,28.999,31,28.742,31,9.5h1C32,29.766,16.655,30,16.5,30z"/>
		<path fill="#F7BC48" d="M32,10V4.809c0-0.372-0.391-0.613-0.724-0.447L30,5l-2.835-4.725C27.063,0.104,26.878,0,26.679,0l0,0
			c-0.354,0-0.621,0.32-0.558,0.668l1.606,8.834c0.129,0.708,0.94,1.052,1.539,0.653L31,9v1H32z"/>
		<path fill="#F7BC48" d="M28.576,31.151C27.413,30,23.953,30,23.953,30s1-1,1-4c0-0.992-0.44-1.761-1.025-2.352
			c0.012-0.212,0.025-0.424,0.025-0.648c0-0.523-0.041-1.058-0.107-1.596l4.094-2.729c0.579-0.386,0.78-1.142,0.469-1.764
			c-0.271-0.542-0.863-0.843-1.46-0.744l-4.427,0.738c-1.347-2.754-3.591-4.879-6.521-4.902v17.995
			c1.509-0.004,2.835-0.199,3.953-0.605v1.192c0,0.265,0.105,0.52,0.293,0.707l0.414,0.414C20.847,31.895,21.102,32,21.367,32h6.849
			C28.658,32,28.89,31.462,28.576,31.151z"/>
		<path fill="#96643B" d="M12.895,8.14c0,0-1.415-4.403-4.468-5.752C7.7,2.067,6.919,2.708,7.055,3.491
			c0.224,1.291,0.17,3.216-1.423,4.929C5.255,8.825,5.266,9.451,5.665,9.833c0.965,0.923,3.013,2.055,6.352,0.061L12.895,8.14z"/>
		<path fill="#FFC550" d="M7.192,2.796C7.071,2.994,7.01,3.232,7.055,3.491c0.224,1.291,0.17,3.216-1.423,4.929
			C5.619,8.433,5.615,8.451,5.604,8.464c2.396,2.745,6.414,1.43,6.414,1.43l0.877-1.754C12.895,8.14,10.506,4.623,7.192,2.796z"/>
		<path fill="#8D5B36" d="M19.126,8.14c0,0,1.415-4.403,4.468-5.752c0.726-0.321,1.508,0.32,1.372,1.103
			c-0.224,1.291-0.17,3.216,1.423,4.929c0.376,0.405,0.365,1.031-0.034,1.413c-0.965,0.923-3.013,2.055-6.352,0.061L19.126,8.14z"/>
		<path fill="#F7BC48" d="M24.829,2.796c0.12,0.198,0.182,0.436,0.137,0.695c-0.224,1.291-0.17,3.216,1.423,4.929
			c0.012,0.013,0.016,0.031,0.028,0.044c-2.396,2.745-6.414,1.43-6.414,1.43L19.126,8.14C19.126,8.14,21.514,4.623,24.829,2.796z"/>
		<path fill="#8D5B36" d="M28.215,32h-3.263c0-0.693,0.192-1.335,0.502-1.903c1.077,0.123,2.449,0.402,3.109,1.042
			C28.887,31.452,28.666,32,28.215,32z"/>
		<path fill="#FFC550" d="M15.953,12c-2.954,0-5.214,2.134-6.569,4.905l-4.426-0.738c-0.597-0.099-1.19,0.202-1.46,0.744
			c-0.311,0.622-0.11,1.378,0.469,1.764l4.094,2.729C7.994,21.942,7.953,22.477,7.953,23c0,0.224,0.013,0.436,0.025,0.648
			C7.393,24.239,6.953,25.008,6.953,26c0,3,1,4,1,4s-3.46,0-4.623,1.151C3.015,31.462,3.248,32,3.689,32h6.849
			c0.265,0,0.52-0.105,0.707-0.293l0.414-0.414c0.188-0.188,0.293-0.442,0.293-0.707v-1.19c1.13,0.41,2.472,0.604,4,0.604
			c0.016,0,0.031-0.001,0.047-0.001V12.004C15.984,12.003,15.969,12,15.953,12z"/>
		<path fill="#FFC550" d="M16,5c3.728,0,5.112,0.549,6,4c0.164,0.639,2,2.917,2,5c0,4.418-3.582,5-8,5V5z"/>
		<path fill="#FFCF6E" d="M16,5c-3.728,0-5.112,0.549-6,4c-0.164,0.639-2,2.917-2,5c0,4.418,3.582,5,8,5V5z"/>
		<path fill="#2B3332" d="M17,14.501c0-0.552-0.448-0.5-1-0.5v1C16.552,15.001,17,15.054,17,14.501z"/>
		<path fill="#373F3F" d="M16,14.001c-0.552,0-1-0.052-1,0.5c0,0.552,0.448,0.5,1,0.5V14.001z"/>
		<circle fill="#96643B" cx="12.5" cy="12.5" r="1.5"/>
		<path fill="#373F3F" d="M12.5,11c-0.286,0-0.55,0.084-0.777,0.223C11.584,11.45,11.5,11.714,11.5,12c0,0.828,0.672,1.5,1.5,1.5
			c0.286,0,0.55-0.084,0.777-0.223C13.916,13.05,14,12.786,14,12.5C14,11.672,13.328,11,12.5,11z"/>
		<circle fill="#FFFFFF" cx="13" cy="12" r="0.5"/>
		<circle fill="#8D5B36" cx="19.5" cy="12.5" r="1.5"/>
		<path fill="#2B3332" d="M19.5,11c0.286,0,0.55,0.084,0.777,0.223C20.416,11.45,20.5,11.714,20.5,12c0,0.828-0.672,1.5-1.5,1.5
			c-0.286,0-0.55-0.084-0.777-0.223C18.084,13.05,18,12.786,18,12.5C18,11.672,18.672,11,19.5,11z"/>
		<circle fill="#F7F7F7" cx="19" cy="12" r="0.5"/>
		<circle fill="#FEF1C6" cx="10" cy="15" r="1"/>
		<circle fill="#FFEAA7" cx="22" cy="15" r="1"/>
		<path fill="#FEF1C6" d="M9.953,27c0,0.005,0,0.01,0,0.014c0.002,0.932,0.595,1.765,1.442,2.154
			c1.245,0.573,2.797,0.836,4.604,0.831c0,0,0.001-0.001,0.001-0.001l0-8.997c-0.001-0.001-0.001-0.001-0.002-0.002
			C12.663,20.976,9.953,23.671,9.953,27z"/>
		<path fill="#FFEAA7" d="M21.953,27c0-3.298-2.661-5.972-5.953-5.998v8.996c1.85-0.005,3.428-0.294,4.679-0.912
			c0.774-0.383,1.27-1.201,1.273-2.065C21.953,27.014,21.953,27.007,21.953,27z"/>
		<path fill="#96643B" d="M3.497,16.911c-0.311,0.622-0.11,1.378,0.469,1.764l1.286,0.857c0.844-0.566,1.401-1.528,1.401-2.621
			c0-0.161-0.024-0.315-0.047-0.469l-1.647-0.275C4.36,16.068,3.768,16.37,3.497,16.911z"/>
		<path fill="#8D5B36" d="M28.408,16.911c0.311,0.622,0.11,1.378-0.469,1.764l-1.286,0.857c-0.844-0.566-1.401-1.528-1.401-2.621
			c0-0.161,0.024-0.315,0.047-0.469l1.647-0.275C27.545,16.068,28.137,16.37,28.408,16.911z"/>
		<path fill="#96643B" d="M3.69,32h3.263c0-0.693-0.192-1.335-0.502-1.903c-1.077,0.123-2.449,0.402-3.109,1.042
			C3.018,31.452,3.24,32,3.69,32z"/>
	</g>
</g>
<g id="labels">
</g>
</svg>
