<?xml version="1.0" encoding="utf-8"?>
<!-- Generator: Adobe Illustrator 23.0.6, SVG Export Plug-In . SVG Version: 6.00 Build 0)  -->
<svg version="1.1" xmlns="http://www.w3.org/2000/svg" xmlns:xlink="http://www.w3.org/1999/xlink" x="0px" y="0px" width="32px"
	 height="32px" viewBox="0 0 32 32" enable-background="new 0 0 32 32" xml:space="preserve">
<g id="icons">
	<g>
		<path fill="#B33533" d="M22.636,14.04c0.09-0.028,0.181-0.053,0.269-0.094c1.039-0.485,8.01-4.928,7.59-5.83
			c-0.42-0.902-8.305,1.582-9.345,2.067c-0.148,0.069-0.28,0.156-0.403,0.253l-0.007,0.001l-0.894,0
			c0.267-0.507,0.5-0.984,0.67-1.279c0.573-0.993,3.729-8.634,2.867-9.131c-0.653-0.376-3.694,3.294-5.381,5.529
			C17.743,3.724,16.841,0.021,16,0.002v22.201h6.105c0.017,0.005,0.032,0.014,0.05,0.019c1.108,0.297,9.304,1.374,9.562,0.413
			c0.257-0.961-7.379-4.127-8.487-4.423c-0.086-0.023-0.172-0.03-0.259-0.042c1.397-0.166,9.113-1.899,9.028-2.87
			C31.915,14.334,24.104,13.966,22.636,14.04z"/>
		<path fill="#C23734" d="M16,0.002C15.998,0.002,15.995,0,15.993,0C15.153,0.001,14.258,3.702,14,5.544
			c-1.689-2.237-4.721-5.893-5.372-5.518c-0.862,0.497,2.294,8.138,2.867,9.131c0.17,0.295,0.403,0.773,0.671,1.281l-0.892,0
			l-0.007,0c-0.124-0.098-0.257-0.186-0.406-0.256C9.821,9.698,1.936,7.214,1.515,8.116s6.551,5.345,7.59,5.83
			c0.088,0.041,0.179,0.066,0.27,0.094c-1.442-0.076-9.29,0.292-9.374,1.259c-0.085,0.97,7.63,2.703,9.028,2.87
			c-0.086,0.012-0.172,0.019-0.259,0.042c-1.108,0.297-8.744,3.462-8.487,4.423c0.258,0.961,8.454-0.116,9.562-0.413
			c0.018-0.005,0.033-0.014,0.05-0.019H16V0.002z M9.646,18.174c-0.013-0.002-0.025-0.009-0.038-0.011
			c0.013-0.002,0.025-0.007,0.038-0.009V18.174z"/>
		<path fill="#D1473D" d="M16,7.347c-0.914-2.351-3.112-7.295-3.874-7.091c-0.813,0.218-0.113,6.326,0.264,8.538
			c-1.348-0.842-7.83-4.171-8.356-3.419c-0.55,0.785,5.32,6.167,6.225,6.8c0.095,0.067,0.195,0.118,0.297,0.166
			c-0.045-0.015-0.085-0.037-0.132-0.05c-1.067-0.286-8.963-1.323-9.211-0.398c-0.244,0.91,6.85,3.867,8.103,4.238
			c-1.119,0.101-8.868,1.823-8.785,2.776c0.082,0.943,7.831,1.295,9.084,1.211c-0.097,0.028-0.194,0.057-0.289,0.101
			c-1.001,0.467-7.717,4.748-7.312,5.616C2.419,26.704,9.999,24.467,11,24h5V7.347z"/>
		<path fill="#CF3C35" d="M21,24c1.001,0.467,8.581,2.704,8.986,1.835c0.405-0.869-6.31-5.149-7.312-5.616
			c-0.094-0.044-0.192-0.072-0.289-0.101c1.253,0.084,9.001-0.268,9.084-1.211c0.083-0.953-7.666-2.675-8.785-2.776
			c1.253-0.371,8.347-3.328,8.103-4.238c-0.248-0.926-8.144,0.112-9.211,0.398c-0.046,0.012-0.087,0.034-0.132,0.05
			c0.101-0.048,0.202-0.1,0.297-0.166c0.905-0.634,6.775-6.015,6.225-6.8c-0.526-0.751-7.008,2.577-8.356,3.419
			c0.377-2.212,1.076-8.32,0.264-8.538C19.112,0.052,16.914,4.995,16,7.347V24H21z"/>
		<path fill="#CDA073" d="M22.838,20.753l1.429,2.148c1.406,2.114,0.513,4.987-1.845,5.93L22,29l1.632,0.544
			C24.449,29.816,25,30.581,25,31.442V31.5c0,0.276-0.224,0.5-0.5,0.5H18c-0.552,0-1-0.448-1-1v-4L22.838,20.753z"/>
		<path fill="#CFAB81" d="M9.162,20.753l-1.429,2.148c-1.406,2.114-0.513,4.987,1.845,5.93L10,29l-1.632,0.544
			C7.551,29.816,7,30.581,7,31.442V31.5C7,31.776,7.224,32,7.5,32H14c0.552,0,1-0.448,1-1v-4L9.162,20.753z"/>
		<path fill="#F5DEB9" d="M16,13c-4.349,0-6,5.582-6,10c0,4.418,1.651,6,6,6V13z"/>
		<path fill="#EFD4A7" d="M22,23c0-4.418-1.651-10-6-10v16C20.349,29,22,27.418,22,23z"/>
		<path fill="#EFD4A7" d="M10.01,23.252C10.112,27.473,11.737,29,16,29v-3C12.715,26,11.285,25.215,10.01,23.252z"/>
		<path fill="#EACEA1" d="M16,26v3c4.263,0,5.888-1.527,5.99-5.748C20.715,25.215,19.285,26,16,26z"/>
		<path fill="#CFAB81" d="M20.408,14.937l0.225,0.266C22.162,17.009,23,19.298,23,21.663V23c0,0.552-0.448,1-1,1h-2.719
			c-0.651,0-1.128-0.611-0.97-1.243l0.248-0.994c0.292-1.166,0.37-2.376,0.233-3.57l-0.316-2.739L20.408,14.937z"/>
		<path fill="#F5DEB9" d="M21.125,23c-0.223,0-0.454,0.102-0.625,0.257C20.329,23.102,20.098,23,19.875,23
			C19.461,23,19,23.336,19,23.75c0,1.5,0.692,6.25,1,6.25c0.158,0,0.35-1.424,0.5-2.772C20.65,28.576,20.842,30,21,30
			c0.308,0,1-4.75,1-6.25C22,23.336,21.539,23,21.125,23z"/>
		<path fill="#D5B387" d="M11.592,14.937l-0.225,0.266C9.838,17.009,9,19.298,9,21.663V23c0,0.552,0.448,1,1,1h2.719
			c0.651,0,1.128-0.611,0.97-1.243l-0.248-0.994c-0.292-1.166-0.37-2.376-0.233-3.57l0.316-2.739L11.592,14.937z"/>
		<path fill="#FCE8CC" d="M10.875,23c0.223,0,0.454,0.102,0.625,0.257C11.671,23.102,11.902,23,12.125,23
			C12.539,23,13,23.336,13,23.75c0,1.5-0.692,6.25-1,6.25c-0.158,0-0.35-1.424-0.5-2.772C11.35,28.576,11.158,30,11,30
			c-0.308,0-1-4.75-1-6.25C10,23.336,10.461,23,10.875,23z"/>
		<path fill="#FCE8CC" d="M16,6.958c-3.682,0-5,2.213-5,6c0,2.478,1.844,4.381,3.419,5.494c0.466,0.329,1.015,0.506,1.58,0.506H16
			V6.958z"/>
		<path fill="#F5DEB9" d="M16.001,18.958c0.565,0,1.114-0.176,1.58-0.506C19.156,17.339,21,15.436,21,12.958c0-3.787-1.318-6-5-6v12
			H16.001z"/>
		<path fill="#D5B387" d="M19.187,8.813l1,1l1.059-0.529c1.867-0.933,3.233-2.636,3.739-4.661l0-0.001
			c0.092-0.366-0.24-0.698-0.606-0.606l-0.001,0c-2.025,0.506-3.728,1.872-4.661,3.739L19.187,8.813z"/>
		<path fill="#DBBA8C" d="M12.813,8.813l-1,1l-1.059-0.529C8.888,8.35,7.522,6.648,7.016,4.623l0-0.001
			c-0.092-0.366,0.24-0.698,0.606-0.606l0.001,0c2.025,0.506,3.728,1.872,4.661,3.739L12.813,8.813z"/>
		<circle fill="#373F3F" cx="14" cy="13" r="2"/>
		<circle fill="#2B3332" cx="18" cy="13" r="2"/>
		<path fill="#DBBA8C" d="M11.051,11.884c1.627-0.258,3.196,0.844,3.435,2.521l0.391,2.736C14.948,17.634,15.37,18,15.867,18H16
			V6.958C12.686,6.958,11.297,8.764,11.051,11.884z"/>
		<path fill="#D5B387" d="M20.949,11.884c-1.627-0.258-3.196,0.844-3.435,2.521l-0.391,2.736C17.052,17.634,16.63,18,16.133,18H16
			V6.958C19.314,6.958,20.703,8.764,20.949,11.884z"/>
		<path fill="#E0C193" d="M16,4c-0.166,0-0.332,0.081-0.429,0.243l-0.001,0.001c-1.067,1.815-1.298,4.002-0.632,6l0.131,0.393
			c0.133,0.4,0.508,0.67,0.93,0.67H16V4z"/>
		<path fill="#DBBA8C" d="M16.93,10.636l0.131-0.393c0.666-1.997,0.435-4.185-0.632-6l-0.001-0.001C16.332,4.081,16.166,4,16,4
			v7.306h0.001C16.423,11.306,16.797,11.036,16.93,10.636z"/>
		<g>
			
				<ellipse transform="matrix(0.7071 -0.7071 0.7071 0.7071 -5.5616 13.0732)" fill="#FFFFFF" cx="13" cy="13.25" rx="0.376" ry="0.563"/>
			
				<ellipse transform="matrix(0.7071 -0.7071 0.7071 0.7071 -3.8042 17.3159)" fill="#F7F7F7" cx="19" cy="13.25" rx="0.563" ry="0.376"/>
		</g>
	</g>
</g>
<g id="labels">
</g>
</svg>
