<?xml version="1.0" encoding="utf-8"?>
<!-- Generator: Adobe Illustrator 23.0.6, SVG Export Plug-In . SVG Version: 6.00 Build 0)  -->
<svg version="1.1" xmlns="http://www.w3.org/2000/svg" xmlns:xlink="http://www.w3.org/1999/xlink" x="0px" y="0px" width="32px"
	 height="32px" viewBox="0 0 32 32" enable-background="new 0 0 32 32" xml:space="preserve">
<g id="icons">
	<g>
		<path fill="#D285D2" d="M27.646,29.646L26,28l0.001-0.002c1.821-3.035,1.668-6.861-0.389-9.741L24,16v6.199
			c0,1.858-0.259,3.708-0.77,5.494L22.286,31H27.5c0.276,0,0.5-0.224,0.5-0.5C28,30.18,27.873,29.873,27.646,29.646z"/>
		<path fill="#D799D6" d="M8.77,27.693C8.259,25.906,8,24.057,8,22.199V17v-1l-1.612,2.257c-2.057,2.88-2.21,6.706-0.389,9.741L6,28
			l-1.646,1.646C4.127,29.873,4,30.18,4,30.5C4,30.776,4.224,31,4.5,31h5.214L8.77,27.693z"/>
		<path fill="#E0ABDF" d="M8,16v1v5.199c0,1.858,0.259,3.708,0.77,5.494l1.127,3.944C9.958,31.852,10.154,32,10.377,32H13.5
			c0.276,0,0.5-0.224,0.5-0.5V30h2v-7C14,23,8,20.971,8,16z"/>
		<g>
			<path fill="#D799D6" d="M16,23v7h2v1.5c0,0.276,0.224,0.5,0.5,0.5h3.123c0.223,0,0.419-0.148,0.481-0.363l1.127-3.944
				c0.511-1.787,0.77-3.636,0.77-5.494V16C24,20.971,18,23,16,23z"/>
		</g>
		<path fill="#EBCEEB" d="M11.865,5.865L6.879,0.879C6.316,0.316,5.553,0,4.757,0h-4.05C0.317,0,0,0.317,0,0.707
			c0,0.188,0.075,0.367,0.207,0.5l0.426,0.426c0.24,0.24,0.415,0.538,0.509,0.865l0.552,1.93C2.52,7.321,4.605,9.688,7.37,10.873
			l1.353,0.58C8.255,12.996,8,14.581,8,16c0,4.971,6,7,8,7V4C14.41,4,13.022,4.724,11.865,5.865z"/>
		<path fill="#E5BDE5" d="M8.77,18.844C10.448,21.754,14.438,23,16,23v-5C13.033,18,10.409,19.048,8.77,18.844z"/>
		<path fill="#E5BDE5" d="M31.293,0h-4.05c-0.796,0-1.559,0.316-2.121,0.879l-4.986,4.986C18.978,4.724,17.59,4,16,4v19
			c2,0,8-2.029,8-7c0-1.419-0.255-3.004-0.723-4.547l1.353-0.58c2.765-1.185,4.85-3.552,5.676-6.444l0.552-1.93
			c0.093-0.327,0.268-0.624,0.509-0.865l0.426-0.426C31.925,1.074,32,0.895,32,0.707C32,0.317,31.683,0,31.293,0z"/>
		<path fill="#E0ABDF" d="M16,18v5c1.562,0,5.552-1.246,7.23-4.156C21.591,19.048,18.967,18,16,18z"/>
		<path fill="#FFFFFF" d="M14.522,18.087l0.384,1.535C14.961,19.844,15.161,20,15.39,20H16v-2
			C15.495,18,15.004,18.037,14.522,18.087z"/>
		<path fill="#F7F7F7" d="M17.478,18.087C16.996,18.037,16.505,18,16,18v2h0.61c0.229,0,0.429-0.156,0.485-0.379L17.478,18.087z"/>
		<path fill="#5D374C" d="M8.129,10.066C8.596,8.812,9.196,7.607,9.94,6.562L5.818,2.44C5.537,2.158,5.155,2,4.757,2H3.051
			C2.714,2,2.473,2.324,2.573,2.646c0.233,0.749,0.563,1.871,0.563,1.871c0.706,2.47,2.464,4.466,4.825,5.478L8.129,10.066z"/>
		<path fill="#828E3D" d="M9.94,6.562L6.189,2.811c0,0-0.509,4.417,2.049,6.961C8.689,8.623,9.254,7.525,9.94,6.562z"/>
		<path fill="#532F42" d="M28.949,2h-1.706c-0.398,0-0.78,0.158-1.061,0.44L22.06,6.562c0.745,1.045,1.345,2.25,1.811,3.504
			l0.168-0.072c2.36-1.011,4.119-3.008,4.825-5.478c0,0,0.33-1.122,0.563-1.871C29.527,2.324,29.285,2,28.949,2z"/>
		<path fill="#472236" d="M28.949,2h-1.706c-0.398,0-0.78,0.158-1.061,0.44L22.06,6.562c0.33,0.463,0.625,0.963,0.9,1.478
			l3.161-3.161C26.684,4.316,27.447,4,28.242,4h0.774c0.117-0.392,0.278-0.93,0.41-1.354C29.527,2.324,29.286,2,28.949,2z"/>
		<g>
			<path fill="#FFFFFF" d="M11.312,11.062c-0.739,0.674-1.232,1.612-1.303,2.672C9.999,13.877,10.121,14,10.265,14h3.215
				c0.21,0,0.326-0.242,0.195-0.406l-1.998-2.497C11.588,10.984,11.418,10.965,11.312,11.062z"/>
			<path fill="#E85160" d="M12.134,11.668C11.448,12.218,11,13.052,11,14h2.48c0.21,0,0.326-0.242,0.195-0.406L12.134,11.668z"/>
		</g>
		<path fill="#532F42" d="M9.94,6.562L5.818,2.44C5.537,2.158,5.155,2,4.757,2H3.051C2.714,2,2.473,2.324,2.573,2.646
			C2.705,3.07,2.866,3.608,2.983,4h0.774c0.796,0,1.559,0.316,2.121,0.879L9.04,8.04C9.316,7.525,9.611,7.025,9.94,6.562z"/>
		<g>
			<path fill="#F7F7F7" d="M20.697,11.062c0.739,0.674,1.232,1.612,1.303,2.672C22.009,13.877,21.887,14,21.743,14h-3.215
				c-0.21,0-0.326-0.242-0.195-0.406l1.998-2.497C20.421,10.984,20.591,10.965,20.697,11.062z"/>
			<path fill="#D84459" d="M19.874,11.668c0.686,0.55,1.134,1.385,1.134,2.332h-2.48c-0.21,0-0.326-0.242-0.195-0.406L19.874,11.668
				z"/>
		</g>
		<path fill="#7D883A" d="M23.762,9.771c-0.45-1.148-1.016-2.246-1.702-3.209l3.751-3.751C25.811,2.811,26.319,7.228,23.762,9.771z
			 M6.237,5.237L9.04,8.04c0.276-0.515,0.571-1.015,0.9-1.478L6.189,2.811C6.189,2.811,6.067,3.864,6.237,5.237z"/>
		<path fill="#778238" d="M25.81,2.811L22.06,6.562c0.33,0.463,0.625,0.963,0.9,1.478l2.802-2.802
			C25.932,3.864,25.81,2.811,25.81,2.811z"/>
		<path fill="#F3DCF4" d="M16,3.401c-0.159,0-0.317,0.074-0.416,0.223L14,6c0,0,1,1,2,1V3.401z"/>
		<path fill="#EBCEEB" d="M18,6l-1.584-2.376C16.317,3.476,16.159,3.401,16,3.401V7C17,7,18,6,18,6z"/>
		<path fill="#F3DCF4" d="M9.504,15.214l0,0.001c0.071,0.266-0.086,0.54-0.353,0.61c-1.692,0.443-7.265,1.87-7.374,1.46
			c-0.11-0.41,5.429-1.96,7.117-2.423C9.159,14.79,9.432,14.948,9.504,15.214z"/>
		<path fill="#F3DCF4" d="M10.075,16.467l0.001,0.001c0.138,0.239,0.056,0.544-0.183,0.68c-1.52,0.866-6.533,3.686-6.745,3.319
			c-0.212-0.367,4.737-3.299,6.247-4.182C9.632,16.146,9.937,16.228,10.075,16.467z"/>
		<path fill="#EBCEEB" d="M22.496,15.214l0,0.001c-0.071,0.266,0.086,0.54,0.353,0.61c1.692,0.443,7.265,1.87,7.374,1.46
			s-5.429-1.96-7.117-2.423C22.841,14.79,22.568,14.948,22.496,15.214z"/>
		<path fill="#EBCEEB" d="M21.925,16.467l-0.001,0.001c-0.138,0.239-0.056,0.544,0.183,0.68c1.52,0.866,6.533,3.686,6.745,3.319
			s-4.737-3.299-6.247-4.182C22.368,16.146,22.063,16.228,21.925,16.467z"/>
	</g>
</g>
<g id="labels">
</g>
</svg>
