<?xml version="1.0" encoding="utf-8"?>
<!-- Generator: Adobe Illustrator 23.0.6, SVG Export Plug-In . SVG Version: 6.00 Build 0)  -->
<svg version="1.1" xmlns="http://www.w3.org/2000/svg" xmlns:xlink="http://www.w3.org/1999/xlink" x="0px" y="0px" width="32px"
	 height="32px" viewBox="0 0 32 32" enable-background="new 0 0 32 32" xml:space="preserve">
<g id="icons">
	<g>
		<path fill="#8694D1" d="M16,0.326c-0.24,0-0.479,0.085-0.665,0.256C6.031,9.143,16,19.001,16,19.001V0.326z"/>
		<path fill="#7C8AC4" d="M16.665,0.582C16.479,0.411,16.24,0.326,16,0.326v18.675C16,19.001,25.969,9.143,16.665,0.582z"/>
		<path fill="#8694D1" d="M16,23.619c0,0,3.174-3.459,7.169-7.351c3.805-3.708,3.046-8.773,1.126-13.556
			c-0.089-0.221-0.408-0.205-0.473,0.024c-0.424,1.496-1.741,5.05-5.35,8.635C13.729,16.083,16,23.619,16,23.619z"/>
		<path fill="#7C8AC4" d="M16,23.619c0,0,2.935-6.258,8.208-10.077c3.67-2.658,5.037-5.27,5.529-6.612
			c0.086-0.235,0.43-0.204,0.477,0.042C30.725,9.63,31.608,17.019,26.458,20c-6.333,3.667-7.875,2.667-10.458,6V23.619z"/>
		<path fill="#8694D1" d="M16,26c0,0,3.125-4.479,6.667-6.333c3.32-1.738,6.31-1.133,8.834-4.036
			c0.159-0.183,0.461-0.057,0.434,0.185c-0.224,2.013-1.208,7.153-5.435,8.518C21.208,26.042,17.417,24.542,16,28V26z"/>
		<path fill="#7C8AC4" d="M16,29c0,0,0.417-2.917,4.5-4.542c3.976-1.582,5.068,1.141,10.084-0.945
			c0.183-0.076,0.385,0.069,0.35,0.264c-0.266,1.453-1.507,5.964-6.642,5.764C18.174,29.304,16,31,16,31V29z"/>
		<path fill="#9AA6D6" d="M16,23.619c0,0-3.174-3.459-7.169-7.351C5.026,12.56,5.786,7.495,7.705,2.712
			c0.089-0.221,0.408-0.205,0.473,0.024c0.424,1.496,1.741,5.05,5.35,8.635C18.271,16.083,16,23.619,16,23.619z"/>
		<path fill="#8694D1" d="M16,23.619c0,0-2.935-6.258-8.208-10.077c-3.67-2.658-5.037-5.27-5.529-6.612
			c-0.086-0.235-0.43-0.204-0.477,0.042C1.275,9.63,0.392,17.019,5.542,20c6.333,3.667,7.875,2.667,10.458,6V23.619z"/>
		<path fill="#9AA6D6" d="M16,26c0,0-3.125-4.479-6.667-6.333c-3.32-1.738-6.31-1.133-8.834-4.036
			c-0.159-0.183-0.461-0.057-0.434,0.185c0.224,2.013,1.208,7.153,5.435,8.518C10.792,26.042,14.583,24.542,16,28V26z"/>
		<path fill="#8694D1" d="M16,29c0,0-0.417-2.917-4.5-4.542C7.524,22.876,6.432,25.6,1.416,23.513
			c-0.183-0.076-0.385,0.069-0.35,0.264c0.266,1.453,1.507,5.964,6.642,5.764C13.826,29.304,16,31,16,31V29z"/>
		<path fill="#ABB4DD" d="M16,23l3.292-1.646c0.423-0.212,0.934-0.129,1.268,0.206l0,0c0.273,0.273,0.383,0.669,0.289,1.044
			l-1.78,7.122c-0.043,0.17,0.007,0.351,0.132,0.475l0.653,0.653C19.947,30.947,20,31.074,20,31.207V31.5c0,0.276-0.224,0.5-0.5,0.5
			H16V23z"/>
		<path fill="#BAC2E0" d="M16,23l-3.292-1.646c-0.423-0.212-0.934-0.129-1.268,0.206l0,0c-0.273,0.273-0.383,0.669-0.289,1.044
			l1.78,7.122c0.043,0.17-0.007,0.351-0.132,0.475l-0.653,0.653C12.053,30.947,12,31.074,12,31.207V31.5c0,0.276,0.224,0.5,0.5,0.5
			H16V23z"/>
		<path fill="#BAC2E0" d="M19,23l-1.258,5.451c-0.16,0.691-0.17,1.409-0.031,2.105l0.169,0.846C17.942,31.711,17.706,32,17.39,32H16
			v-9H19z"/>
		<path fill="#C7CFE5" d="M13,23l1.258,5.451c0.16,0.691,0.17,1.409,0.031,2.105l-0.169,0.846C14.058,31.711,14.294,32,14.61,32H16
			v-9H13z"/>
		<path fill="#ABB4DD" d="M16,18h-3l-0.103,0.205c-1.031,2.063-0.756,4.516,0.653,6.291c0.149,0.187,0.45,0.087,0.45-0.152V24
			l1.646,1.646c0.098,0.098,0.226,0.146,0.354,0.146V18z"/>
		<path fill="#9AA6D6" d="M19,18h-3v7.793c0.128,0,0.256-0.049,0.354-0.146L18,24v0.344c0,0.239,0.301,0.34,0.45,0.152
			c1.409-1.775,1.685-4.228,0.653-6.291L19,18z"/>
		<path fill="#BAC2E0" d="M18.374,12.901L18.374,12.901c-0.748-0.374-1.561-0.561-2.374-0.561V22h0.003
			c1.022,0,1.929-0.654,2.252-1.623l0.06-0.18c0.168-0.505,0.452-0.964,0.828-1.34l0.436-0.436c0.461-0.461,0.781-1.044,0.923-1.681
			l1.19-5.354c0.102-0.461-0.432-0.794-0.8-0.499L18.374,12.901z"/>
		<path fill="#C7CFE5" d="M13.626,12.901l-2.518-2.014c-0.369-0.295-0.903,0.038-0.8,0.499l1.19,5.354
			c0.141,0.636,0.461,1.219,0.922,1.68l0.436,0.436c0.376,0.376,0.66,0.835,0.828,1.34l0.06,0.18C14.068,21.346,14.975,22,15.997,22
			H16v-9.659C15.187,12.341,14.374,12.527,13.626,12.901L13.626,12.901z"/>
		<path fill="#2B3332" d="M16.75,20.501c0-0.552-0.336-0.5-0.75-0.5v1C16.414,21.001,16.75,21.054,16.75,20.501z"/>
		<path fill="#373F3F" d="M16,20.001c-0.414,0-0.75-0.052-0.75,0.5c0,0.552,0.336,0.5,0.75,0.5V20.001z"/>
		<path fill="#D84459" d="M14.47,18.197c-0.085-0.52-0.411-1.539-1.668-1.68c-0.162-0.018-0.299,0.126-0.273,0.287
			c0.085,0.52,0.411,1.539,1.668,1.68C14.359,18.502,14.496,18.358,14.47,18.197z"/>
		<path fill="#C84054" d="M17.53,18.197c0.085-0.52,0.411-1.539,1.668-1.68c0.162-0.018,0.299,0.126,0.273,0.287
			c-0.085,0.52-0.411,1.539-1.668,1.68C17.641,18.502,17.504,18.358,17.53,18.197z"/>
		<path fill="#ABB4DD" d="M16,3.452c-0.096,0-0.193,0.054-0.234,0.161L14.4,7.2l-0.651-0.769c-0.152-0.179-0.446-0.069-0.441,0.166
			C13.356,8.692,13.6,10.4,13.6,10.4l-0.582-0.688c-0.166-0.196-0.483-0.045-0.438,0.208c0.258,1.44,1.046,2.981,1.046,2.981
			c0.621,0.587,1.577,0.888,2.374,0.888V3.452z"/>
		<path fill="#9AA6D6" d="M18.982,9.712L18.4,10.4c0,0,0.244-1.708,0.292-3.803c0.005-0.235-0.289-0.345-0.441-0.166L17.6,7.2
			l-1.366-3.587C16.193,3.506,16.096,3.452,16,3.452v10.337h0c0.796,0,1.752-0.302,2.373-0.889c0,0,0.789-1.541,1.047-2.981
			C19.465,9.667,19.148,9.516,18.982,9.712z"/>
	</g>
</g>
<g id="labels">
</g>
</svg>
