<?xml version="1.0" encoding="utf-8"?>
<!-- Generator: Adobe Illustrator 23.0.6, SVG Export Plug-In . SVG Version: 6.00 Build 0)  -->
<svg version="1.1" xmlns="http://www.w3.org/2000/svg" xmlns:xlink="http://www.w3.org/1999/xlink" x="0px" y="0px" width="32px"
	 height="32px" viewBox="0 0 32 32" enable-background="new 0 0 32 32" xml:space="preserve">
<g id="icons">
	<g>
		<path fill="#54B668" d="M13.029,10.775c-0.517-1.897-1.585-3.582-3.043-4.866C9.491,6.841,8.755,7.624,7.864,8.182L14,18h1
			L13.029,10.775z"/>
		<path fill="#CBEB6B" d="M9.987,5.909C9.58,5.55,9.147,5.217,8.682,4.926l-2.93-1.831C5.396,2.873,4.991,2.906,4.687,3.099
			l3.177,5.083C8.755,7.624,9.491,6.841,9.987,5.909z"/>
		<path fill="#4EAC5D" d="M7.864,8.182C7.004,8.721,5.999,9.045,4.92,9.087c0.459,1.652,1.335,3.168,2.56,4.393L12,18h2L7.864,8.182
			z"/>
		<path fill="#BEE758" d="M7.864,8.182L4.687,3.099C4.385,3.29,4.182,3.639,4.228,4.053l0.384,3.46
			c0.059,0.535,0.165,1.06,0.307,1.573C5.999,9.045,7.004,8.721,7.864,8.182z"/>
		<path fill="#4EAC5D" d="M26.248,3.095l-2.93,1.831c-2.133,1.333-3.686,3.422-4.348,5.849L17,18h1l9.313-14.901
			C27.009,2.906,26.604,2.873,26.248,3.095z"/>
		<path fill="#6CD275" d="M10.05,14.05C8.737,12.737,6.957,12,5.101,12H1.943c-0.409,0-0.731,0.232-0.891,0.547L12.5,18.5L14,18
			L10.05,14.05z"/>
		<g>
			<g>
				<path fill="#48A353" d="M27.313,3.099L18,18h2l4.52-4.52c1.606-1.606,2.617-3.71,2.868-5.967l0.384-3.46
					C27.818,3.639,27.615,3.29,27.313,3.099z"/>
			</g>
			<g>
				<path fill="#48A353" d="M27.313,3.099L18,18h2l4.52-4.52c1.606-1.606,2.617-3.71,2.868-5.967l0.384-3.46
					C27.818,3.639,27.615,3.29,27.313,3.099z"/>
			</g>
		</g>
		<path fill="#60C46F" d="M1.129,13.581l1.777,2.487C4.22,17.908,6.342,19,8.602,19H11l1.5-0.5L1.052,12.547
			C0.894,12.859,0.894,13.252,1.129,13.581z"/>
		<path fill="#60C46F" d="M16,6v12h2l0-0.001c1.622-4.032,1.852-8.473,0.702-12.647C17.889,5.763,16.973,6,16,6z"/>
		<path fill="#D9F07D" d="M18.457,4.472L17.225,0.69C17.091,0.279,16.707,0,16.274,0H16v6c0.973,0,1.889-0.237,2.702-0.648
			C18.621,5.058,18.552,4.762,18.457,4.472z"/>
		<path fill="#6CD275" d="M14,17.999L14,18h2V6c-0.973,0-1.889-0.237-2.702-0.648C12.148,9.526,12.377,13.967,14,17.999z"/>
		<path fill="#E6F490" d="M15.726,0c-0.433,0-0.817,0.279-0.951,0.69l-1.232,3.781c-0.095,0.291-0.164,0.587-0.245,0.88
			C14.111,5.763,15.027,6,16,6V0H15.726z"/>
		<path fill="#BEE758" d="M22.013,5.909c0.407-0.359,0.839-0.692,1.305-0.983l2.93-1.831c0.356-0.222,0.761-0.189,1.065,0.004
			l-3.177,5.083C23.245,7.624,22.509,6.841,22.013,5.909z"/>
		<path fill="#B1E346" d="M24.136,8.182l3.177-5.083c0.302,0.192,0.505,0.541,0.459,0.955l-0.384,3.46
			c-0.059,0.535-0.165,1.06-0.307,1.573C26.001,9.045,24.996,8.721,24.136,8.182z"/>
		<path fill="#54B668" d="M26.531,14.844L19.5,18.5L21,19h2.398c1.917,0,3.729-0.792,5.039-2.153
			C27.625,16.372,26.967,15.68,26.531,14.844z"/>
		<path fill="#CBEB6B" d="M30.948,12.547l-4.417,2.297c0.436,0.836,1.094,1.528,1.905,2.003c0.234-0.244,0.458-0.499,0.658-0.779
			l1.777-2.487C31.106,13.252,31.106,12.859,30.948,12.547z"/>
		<path fill="#60C46F" d="M25.948,12.547c0-0.165,0.033-0.321,0.049-0.481c-1.523,0.198-2.949,0.887-4.046,1.984L18,18l1.5,0.5
			l7.031-3.656C26.171,14.153,25.948,13.38,25.948,12.547z"/>
		<path fill="#D9F07D" d="M30.057,12h-3.157c-0.304,0-0.605,0.027-0.903,0.066c-0.016,0.161-0.049,0.316-0.049,0.481
			c0,0.833,0.223,1.606,0.583,2.297l4.417-2.297C30.788,12.232,30.465,12,30.057,12z"/>
		<path fill="#D9F07D" d="M1.052,12.547l4.417,2.297c-0.436,0.836-1.094,1.528-1.905,2.003c-0.234-0.244-0.458-0.499-0.658-0.779
			l-1.777-2.487C0.894,13.252,0.894,12.859,1.052,12.547z"/>
		<path fill="#E6F490" d="M1.943,12h3.157c0.304,0,0.605,0.027,0.903,0.066c0.016,0.161,0.049,0.316,0.049,0.481
			c0,0.833-0.223,1.606-0.583,2.297l-4.417-2.297C1.212,12.232,1.535,12,1.943,12z"/>
		<rect x="12" y="27" fill="#4896C8" width="2" height="4"/>
		<rect x="18" y="27" fill="#4390BF" width="2" height="4"/>
		<path fill="#5CA3D5" d="M16,17c-3.866,0-7,3.07-7,6.857c0,0.198,0.013,0.386,0.03,0.572C9.335,27.779,12.337,29,16,29V17z"/>
		<path fill="#529CCF" d="M22.97,24.429c0.017-0.185,0.03-0.373,0.03-0.572C23,20.07,19.866,17,16,17v12
			C19.663,29,22.665,27.779,22.97,24.429z"/>
		<path fill="#4896C8" d="M22.97,24.429C21.598,26.27,18.993,27,16,27v2C19.663,29,22.665,27.779,22.97,24.429z"/>
		<path fill="#529CCF" d="M16,27c-2.993,0-5.598-0.73-6.97-2.571C9.335,27.779,12.337,29,16,29V27z"/>
		<circle fill="#E85160" cx="13" cy="23" r="1"/>
		<circle fill="#D84459" cx="19" cy="23" r="1"/>
		<ellipse fill="#529CCF" cx="13" cy="30.5" rx="2" ry="1.5"/>
		<ellipse fill="#4896C8" cx="19" cy="30.5" rx="2" ry="1.5"/>
		<circle fill="#FFFFFF" cx="13" cy="23" r="0.5"/>
		<circle fill="#F7F7F7" cx="19" cy="23" r="0.5"/>
	</g>
</g>
<g id="labels">
</g>
</svg>
