<?xml version="1.0" encoding="utf-8"?>
<!-- Generator: Adobe Illustrator 23.0.6, SVG Export Plug-In . SVG Version: 6.00 Build 0)  -->
<svg version="1.1" xmlns="http://www.w3.org/2000/svg" xmlns:xlink="http://www.w3.org/1999/xlink" x="0px" y="0px" width="32px"
	 height="32px" viewBox="0 0 32 32" enable-background="new 0 0 32 32" xml:space="preserve">
<g id="icons">
	<g>
		<g>
			<g>
				<path fill="#EB6B48" d="M29.626,3.846c-0.227-0.347-0.765-0.281-0.895,0.113c-0.513,1.555-1.872,4.666-4.959,6.8
					c1.265,0.469,2.424,1.172,3.225,2.238C29.275,12.268,31,10.796,31,8C31,8,31.029,5.995,29.626,3.846z"/>
			</g>
			<g>
				<path fill="#EB6B48" d="M29.626,3.846c-0.227-0.347-0.765-0.281-0.895,0.113c-0.513,1.555-1.872,4.666-4.959,6.8
					c1.265,0.469,2.424,1.172,3.225,2.238C29.275,12.268,31,10.796,31,8C31,8,31.029,5.995,29.626,3.846z"/>
			</g>
		</g>
		<g>
			<g>
				<path fill="#F57552" d="M8.228,10.759c-3.086-2.135-4.445-5.245-4.959-6.8C3.139,3.565,2.6,3.498,2.374,3.846
					C0.971,5.995,1,8,1,8c0,2.796,1.725,4.269,4.003,4.997C5.804,11.931,6.963,11.228,8.228,10.759z"/>
			</g>
			<g>
				<path fill="#F57552" d="M8.228,10.759c-3.086-2.135-4.445-5.245-4.959-6.8C3.139,3.565,2.6,3.498,2.374,3.846
					C0.971,5.995,1,8,1,8c0,2.796,1.725,4.269,4.003,4.997C5.804,11.931,6.963,11.228,8.228,10.759z"/>
			</g>
		</g>
		<path fill="#707EB7" d="M29.888,22.051c-0.39-0.105-2.169-0.401-3.912-0.592C25.984,21.306,26,21.158,26,21
			c0-5.523-4.477-12-10-12v20c4.57,0,8.415-1.702,9.609-5.416c1.548,0.674,3.126,1.264,3.502,1.365
			c0.8,0.214,1.623-0.26,1.837-1.061C31.163,23.088,30.688,22.265,29.888,22.051z"/>
		<path fill="#7C8AC4" d="M6,21c0,0.158,0.016,0.306,0.024,0.459c-1.743,0.19-3.521,0.487-3.912,0.592
			c-0.8,0.214-1.275,1.037-1.061,1.837c0.214,0.8,1.037,1.275,1.837,1.061c0.376-0.101,1.954-0.691,3.502-1.365
			C7.585,27.298,11.43,29,16,29V9C10.477,9,6,15.477,6,21z"/>
		<g>
			<rect x="17" y="26" fill="#515E91" width="2" height="4.5"/>
			<path fill="#5C699E" d="M17,30.5c0,1.5,4.672,1.5,5.5,1.5s1.5-0.672,1.5-1.5S23.328,29,22.5,29S17,29,17,30.5z"/>
		</g>
		<g>
			<rect x="13" y="26" fill="#5C699E" width="2" height="4.5"/>
			<path fill="#6673AA" d="M15,30.5C15,32,10.328,32,9.5,32S8,31.328,8,30.5S8.672,29,9.5,29S15,29,15,30.5z"/>
		</g>
		<path fill="#FF805D" d="M16,10v3c0,0-8.578,0-12.228,6.356c-0.256,0.445-0.941,0.263-0.929-0.251C2.879,17.566,3.288,15.283,5,13
			C8,9,16,10,16,10z"/>
		<path fill="#F57552" d="M16,10v3c0,0,8.578,0,12.228,6.356c0.256,0.445,0.941,0.263,0.929-0.251
			C29.121,17.566,28.712,15.283,27,13C24,9,16,10,16,10z"/>
		<path fill="#845331" d="M21,5c0-2.761-2.239-5-5-5v10C18.761,10,21,7.761,21,5z"/>
		<path fill="#8D5B36" d="M16,0c-2.761,0-5,2.239-5,5s2.239,5,5,5V0z"/>
		<path fill="#845331" d="M22,10c-2.063,0-3.883-1.042-4.963-2.628C17.231,9.956,19.366,12,22,12s4.769-2.044,4.963-4.628
			C25.883,8.958,24.063,10,22,10z"/>
		<path fill="#8D5B36" d="M22,2c-2.761,0-5,2.239-5,5c0,0.127,0.028,0.247,0.037,0.372C18.117,8.958,19.937,10,22,10
			s3.883-1.042,4.963-2.628C26.972,7.247,27,7.127,27,7C27,4.239,24.761,2,22,2z"/>
		<path fill="#8D5B36" d="M10,10c-2.063,0-3.883-1.042-4.963-2.628C5.231,9.956,7.366,12,10,12s4.769-2.044,4.963-4.628
			C13.883,8.958,12.063,10,10,10z"/>
		<path fill="#96643B" d="M10,2C7.239,2,5,4.239,5,7c0,0.127,0.028,0.247,0.037,0.372C6.117,8.958,7.937,10,10,10
			s3.883-1.042,4.963-2.628C14.972,7.247,15,7.127,15,7C15,4.239,12.761,2,10,2z"/>
		<path fill="#9E6E43" d="M21,8c0-2.761-2.239-5-5-5v10C18.761,13,21,10.761,21,8z"/>
		<path fill="#A7794C" d="M16,3c-2.761,0-5,2.239-5,5s2.239,5,5,5V3z"/>
		<path fill="#9E6E43" d="M11.037,8.372C11.231,10.956,13.366,13,16,13v-2C13.937,11,12.117,9.958,11.037,8.372z"/>
		<path fill="#96643B" d="M16,11v2c2.634,0,4.769-2.044,4.963-4.628C19.883,9.958,18.063,11,16,11z"/>
		<path fill="#675099" d="M16,19.354c-0.938,0-1.877,0.115-2.794,0.344l-0.471,0.118C12.303,19.924,12,20.312,12,20.757v0
			c0,0.631,0.593,1.094,1.205,0.941l0.001,0c0.917-0.229,1.856-0.344,2.794-0.344V19.354z"/>
		<path fill="#504484" d="M18.794,21.698L18.794,21.698C19.407,21.852,20,21.389,20,20.758v0c0-0.445-0.303-0.833-0.735-0.941
			l-0.471-0.118c-0.917-0.229-1.856-0.344-2.794-0.344v2C16.938,21.354,17.877,21.469,18.794,21.698z"/>
		<path fill="#373F3F" d="M10.882,18.251c-1.051,0-1.602-0.605-1.63-0.636c-0.092-0.104-0.082-0.262,0.021-0.353
			c0.104-0.091,0.26-0.083,0.352,0.02c0.028,0.03,0.673,0.714,1.939,0.374c1.27-0.34,1.485-1.255,1.493-1.293
			c0.03-0.134,0.159-0.224,0.296-0.192c0.134,0.028,0.221,0.159,0.193,0.294c-0.011,0.051-0.273,1.251-1.853,1.675
			C11.396,18.218,11.125,18.251,10.882,18.251z"/>
		<path fill="#2B3332" d="M20.859,18.251c-0.244,0-0.515-0.033-0.812-0.112c-1.58-0.423-1.842-1.624-1.853-1.675
			c-0.027-0.135,0.06-0.268,0.195-0.295c0.139-0.028,0.268,0.06,0.295,0.195c0.008,0.037,0.223,0.952,1.493,1.292
			c1.269,0.343,1.913-0.344,1.939-0.374c0.094-0.102,0.251-0.109,0.353-0.018c0.102,0.092,0.112,0.248,0.021,0.351
			C22.461,17.646,21.911,18.251,20.859,18.251z"/>
		<path fill="#604893" d="M18.794,21.698L18.794,21.698C19.407,21.852,20,21.389,20,20.758v0c0-0.445-0.303-0.833-0.735-0.941
			l-0.471-0.118c-0.917-0.229-1.856-0.344-2.794-0.344v2C16.938,21.354,17.877,21.469,18.794,21.698z"/>
		<g>
			<path fill="#FFFFFF" d="M18.15,20.672C17.545,20.58,17,21.049,17,21.661v1.513c0,0.414,0.336,0.75,0.75,0.75
				s0.75-0.336,0.75-0.75v-2.448L18.15,20.672z"/>
			<path fill="#F7F7F7" d="M19.265,20.899l-0.471-0.118c-0.097-0.024-0.196-0.033-0.294-0.055v1.448c0,0.414,0.336,0.75,0.75,0.75
				S20,22.589,20,22.175V21.84v0C20,21.395,19.697,21.007,19.265,20.899z"/>
		</g>
		<g>
			<g>
				<path fill="#6673AA" d="M24.613,23.135C22.601,25.071,19.504,26,16,26v3c4.568,0,8.402-1.709,9.594-5.422
					C25.261,23.432,24.931,23.284,24.613,23.135z"/>
			</g>
			<g>
				<path fill="#6673AA" d="M24.613,23.135C22.601,25.071,19.504,26,16,26v3c4.568,0,8.402-1.709,9.594-5.422
					C25.261,23.432,24.931,23.284,24.613,23.135z"/>
			</g>
		</g>
		<g>
			<g>
				<path fill="#707EB7" d="M7.387,23.135c-0.318,0.149-0.648,0.297-0.982,0.442C7.598,27.291,11.432,29,16,29v-3
					C12.496,26,9.399,25.071,7.387,23.135z"/>
			</g>
			<g>
				<path fill="#707EB7" d="M7.387,23.135c-0.318,0.149-0.648,0.297-0.982,0.442C7.598,27.291,11.432,29,16,29v-3
					C12.496,26,9.399,25.071,7.387,23.135z"/>
			</g>
		</g>
	</g>
</g>
<g id="labels">
</g>
</svg>
