<?xml version="1.0" encoding="utf-8"?>
<!-- Generator: Adobe Illustrator 23.0.6, SVG Export Plug-In . SVG Version: 6.00 Build 0)  -->
<svg version="1.1" xmlns="http://www.w3.org/2000/svg" xmlns:xlink="http://www.w3.org/1999/xlink" x="0px" y="0px" width="32px"
	 height="32px" viewBox="0 0 32 32" enable-background="new 0 0 32 32" xml:space="preserve">
<g id="icons">
	<g>
		<path fill="#60C46F" d="M29.888,20.051c-0.39-0.105-2.169-0.401-3.912-0.592C25.984,19.306,26,19.158,26,19
			c0-5.523-4.477-12-10-12v20c4.57,0,8.415-1.702,9.609-5.416c1.548,0.674,3.126,1.264,3.502,1.365
			c0.8,0.214,1.623-0.26,1.837-1.061C31.163,21.088,30.688,20.265,29.888,20.051z"/>
		<path fill="#6CD275" d="M6,19c0,0.158,0.016,0.306,0.024,0.459c-1.743,0.19-3.521,0.487-3.912,0.592
			c-0.8,0.214-1.275,1.037-1.061,1.837c0.214,0.8,1.037,1.275,1.837,1.061c0.376-0.101,1.954-0.691,3.502-1.365
			C7.585,25.298,11.43,27,16,27V7C10.477,7,6,13.477,6,19z"/>
		<g>
			<rect x="17" y="25" fill="#48A353" width="2" height="4.5"/>
			<path fill="#4EAC5D" d="M17,29.5c0,1.5,4.672,1.5,5.5,1.5s1.5-0.672,1.5-1.5S23.328,28,22.5,28S17,28,17,29.5z"/>
		</g>
		<g>
			<rect x="13" y="25" fill="#4EAC5D" width="2" height="4.5"/>
			<path fill="#54B668" d="M15,29.5C15,31,10.328,31,9.5,31S8,30.328,8,29.5S8.672,28,9.5,28S15,28,15,29.5z"/>
		</g>
		<path fill="#EF8C48" d="M16,2.289C17.173,2.097,18.514,2,20,2c5.422,0,9,1.239,9,4s-3.578,4-9,4c-1.486,0-2.827-0.097-4-0.289
			V2.289z"/>
		<path fill="#F79654" d="M16,2.289C14.827,2.097,13.486,2,12,2C6.578,2,3,3.239,3,6s3.578,4,9,4c1.486,0,2.827-0.097,4-0.289V2.289
			z"/>
		<g>
			<circle fill="#F79654" cx="12" cy="15" r="1"/>
			<circle fill="#FFFFFF" cx="12" cy="15" r="0.5"/>
		</g>
		<g>
			<circle fill="#EF8C48" cx="20" cy="15" r="1"/>
			<circle fill="#F7F7F7" cx="20" cy="15" r="0.5"/>
		</g>
		<path fill="#373F3F" d="M16,16.625c-0.836,0-1.27-0.607-1.293-0.64c-0.078-0.114-0.233-0.145-0.347-0.067
			c-0.115,0.077-0.145,0.232-0.067,0.347c0.023,0.035,0.593,0.86,1.707,0.86V16.625z"/>
		<path fill="#2B3332" d="M17.707,16.265c0.078-0.114,0.047-0.27-0.067-0.347c-0.112-0.078-0.269-0.047-0.347,0.067
			c-0.004,0.006-0.442,0.64-1.293,0.64v0.5C17.114,17.125,17.684,16.3,17.707,16.265z"/>
		<path fill="#FFD04D" d="M16,1h-1.36c-0.953,0-1.774,0.673-1.961,1.608L12,6h4V1z"/>
		<path fill="#F7C845" d="M17.36,1H16v5h4l-0.678-3.392C19.135,1.673,18.314,1,17.36,1z"/>
		<ellipse fill="#FCA15E" cx="9" cy="8" rx="9" ry="4"/>
		<ellipse fill="#F79654" cx="23" cy="8" rx="9" ry="4"/>
		<path fill="#FFAD68" d="M16,5c-5.422,0-9,1.239-9,4s3.578,4,9,4V5z"/>
		<path fill="#FCA15E" d="M25,9c0-2.761-3.578-4-9-4v8C21.422,13,25,11.761,25,9z"/>
		<path fill="#54B668" d="M24.613,21.135C22.601,23.071,19.504,24,16,24v3c4.568,0,8.402-1.709,9.594-5.422
			C25.261,21.432,24.931,21.284,24.613,21.135z"/>
		<path fill="#60C46F" d="M7.387,21.135c-0.318,0.149-0.648,0.297-0.982,0.442C7.598,25.291,11.432,27,16,27v-3
			C12.496,24,9.399,23.071,7.387,21.135z"/>
	</g>
</g>
<g id="labels">
</g>
</svg>
