<?xml version="1.0" encoding="utf-8"?>
<!-- Generator: Adobe Illustrator 23.0.6, SVG Export Plug-In . SVG Version: 6.00 Build 0)  -->
<svg version="1.1" xmlns="http://www.w3.org/2000/svg" xmlns:xlink="http://www.w3.org/1999/xlink" x="0px" y="0px" width="32px"
	 height="32px" viewBox="0 0 32 32" enable-background="new 0 0 32 32" xml:space="preserve">
<g id="icons">
	<g>
		
			<ellipse transform="matrix(0.7071 -0.7071 0.7071 0.7071 -13.6482 23.0498)" fill="#FAC4D1" cx="21" cy="28" rx="2.496" ry="4.848"/>
		
			<ellipse transform="matrix(0.7071 -0.7071 0.7071 0.7071 -16.5773 15.9796)" fill="#FBCFD6" cx="11" cy="28" rx="4.848" ry="2.496"/>
		<path fill="#6E57A0" d="M16,5l-2.223-1.482C13.445,3.297,13,3.535,13,3.934V5L9.857,5.786C9.48,5.88,9.35,6.35,9.624,6.624L10,7
			L5.704,8.718C5.371,8.852,5.282,9.282,5.536,9.536L6,10l-2.74,3.653c-0.149,0.199-0.13,0.478,0.046,0.654L4,15l-0.903,3.611
			c-0.057,0.227,0.052,0.464,0.261,0.568L5,20v3.5C5,23.776,5.224,24,5.5,24H7l0.886,2.658C7.954,26.862,8.145,27,8.36,27H10
			l0.776,1.553C10.9,28.8,11.2,28.9,11.447,28.776L13,28l2.842,0.947c0.051,0.017,0.105,0.026,0.158,0.026V5z"/>
		<path fill="#675099" d="M16.158,28.947L19,28l1.553,0.776C20.8,28.9,21.1,28.8,21.224,28.553L22,27h1.64
			c0.215,0,0.406-0.138,0.474-0.342L25,24h1.5c0.276,0,0.5-0.224,0.5-0.5V20l1.641-0.821c0.21-0.105,0.318-0.341,0.261-0.568L28,15
			l0.693-0.693c0.176-0.176,0.196-0.454,0.046-0.654L26,10l0.464-0.464c0.254-0.254,0.165-0.684-0.168-0.818L22,7l0.376-0.376
			C22.65,6.35,22.52,5.88,22.143,5.786L19,5V3.934c0-0.399-0.445-0.638-0.777-0.416L16,5v23.973
			C16.053,28.973,16.107,28.964,16.158,28.947z"/>
		
			<ellipse transform="matrix(0.9734 -0.2291 0.2291 0.9734 -2.5334 5.1789)" fill="#E85160" cx="21.037" cy="13.5" rx="2.967" ry="3.526"/>
		
			<ellipse transform="matrix(0.2291 -0.9734 0.9734 0.2291 -4.6327 21.1503)" fill="#F3586F" cx="11.037" cy="13.5" rx="3.526" ry="2.967"/>
		<path fill="#FFFFFF" d="M15,17c0,0-1,0.115-1,0.853c0,0.569,0.241,0.947,0.624,1.181C14.788,19.135,15,19.01,15,18.817V17z"/>
		<path fill="#F7F7F7" d="M17,17c0,0,1,0.115,1,0.853c0,0.569-0.241,0.947-0.624,1.181C17.212,19.135,17,19.01,17,18.817V17z"/>
		<path fill="#F8A1C4" d="M16,16.5c-0.828,0-1.5,0.264-1.5,1s0.672,1,1.5,1V16.5z"/>
		<path fill="#F297BE" d="M17.5,17.5c0-0.736-0.672-1-1.5-1v2C16.828,18.5,17.5,18.236,17.5,17.5z"/>
		<path fill="#FCD8DE" d="M12.894,7.406c-0.377-1.263-0.961-2.368-1.531-3.259c0.384-0.576,0.306-1.623-0.261-2.605
			c-0.69-1.196-1.832-1.829-2.549-1.415C7.835,0.541,7.813,1.846,8.504,3.042c0.518,0.897,1.289,1.477,1.945,1.537
			c0.552,0.845,1.128,1.909,1.489,3.118c0.076,0.254,0.338,0.403,0.595,0.34h0C12.811,7.969,12.976,7.68,12.894,7.406z"/>
		<path fill="#FBCFD6" d="M23.447,0.127c-0.717-0.414-1.859,0.219-2.549,1.415c-0.567,0.982-0.645,2.029-0.261,2.605
			c-0.57,0.891-1.154,1.996-1.531,3.259c-0.082,0.275,0.083,0.563,0.361,0.631l0,0c0.257,0.063,0.519-0.086,0.595-0.34
			c0.361-1.207,0.938-2.272,1.491-3.118c0.656-0.06,1.426-0.641,1.943-1.536C24.187,1.846,24.165,0.541,23.447,0.127z"/>
		<path fill="#675099" d="M16,25.941c-0.077,0-0.153-0.018-0.224-0.053l-1.553-0.776c-0.141-0.07-0.306-0.07-0.447,0l-1.382,0.691
			c-0.226,0.113-0.5,0.04-0.64-0.17l-0.56-0.84c-0.117-0.176-0.332-0.259-0.537-0.208l-1.209,0.302
			c-0.253,0.063-0.513-0.079-0.596-0.327l-0.74-2.219C8.046,22.138,7.855,22,7.64,22H5v1.5C5,23.776,5.224,24,5.5,24H7l0.886,2.658
			C7.954,26.862,8.145,27,8.36,27H10l0.776,1.553C10.9,28.8,11.2,28.9,11.447,28.776L13,28l2.842,0.947
			c0.051,0.017,0.105,0.026,0.158,0.026V25.941z"/>
		<path fill="#604893" d="M16.158,28.947L19,28l1.553,0.776C20.8,28.9,21.1,28.8,21.224,28.553L22,27h1.64
			c0.215,0,0.406-0.138,0.474-0.342L25,24h1.5c0.276,0,0.5-0.224,0.5-0.5V22h-2.64c-0.215,0-0.406,0.138-0.474,0.342l-0.74,2.219
			c-0.083,0.248-0.342,0.39-0.596,0.327l-1.209-0.302c-0.205-0.051-0.42,0.032-0.537,0.208l-0.56,0.84
			c-0.14,0.21-0.414,0.283-0.64,0.17l-1.382-0.691c-0.141-0.07-0.306-0.07-0.447,0l-1.553,0.776
			c-0.07,0.035-0.147,0.053-0.224,0.053v3.032C16.053,28.973,16.107,28.964,16.158,28.947z"/>
	</g>
</g>
<g id="labels">
</g>
</svg>
