<?xml version="1.0" encoding="utf-8"?>
<!-- Generator: Adobe Illustrator 23.0.6, SVG Export Plug-In . SVG Version: 6.00 Build 0)  -->
<svg version="1.1" xmlns="http://www.w3.org/2000/svg" xmlns:xlink="http://www.w3.org/1999/xlink" x="0px" y="0px" width="32px"
	 height="32px" viewBox="0 0 32 32" enable-background="new 0 0 32 32" xml:space="preserve">
<g id="icons">
	<g>
		<path fill="#8EC0E0" d="M29.414,28.586c-0.152-0.152-0.377-0.328-0.645-0.507c-0.52-0.347-0.586-1.089-0.144-1.532l0.033-0.033
			c2.135-2.135,1.225-5.776-1.664-6.655l-9.886-3.009L16,17.958v6.452l1.79,4.922c1,2.75,4.518,3.531,6.588,1.461l0.169-0.169
			c0.442-0.442,1.185-0.376,1.532,0.144c0.179,0.269,0.355,0.493,0.507,0.645c0.781,0.781,2.047,0.781,2.828,0
			C30.195,30.633,30.195,29.367,29.414,28.586z"/>
		<path fill="#B0D3EA" d="M16,17.958l-1.108-1.108l-9.886,3.009c-2.889,0.879-3.799,4.52-1.664,6.655l0.033,0.033
			c0.442,0.442,0.376,1.185-0.144,1.532c-0.269,0.179-0.493,0.355-0.645,0.507c-0.781,0.781-0.781,2.047,0,2.828
			c0.781,0.781,2.047,0.781,2.828,0c0.152-0.152,0.328-0.377,0.507-0.645c0.347-0.52,1.089-0.586,1.532-0.144l0.169,0.169
			c2.069,2.069,5.587,1.289,6.588-1.461L16,24.41V17.958z"/>
		<path fill="#F1EDFA" d="M16,22c-2.209,0-3,1.791-3,4c0,2.209,1.792,6,3,6V22z"/>
		<path fill="#E3DBF4" d="M19,26c0-2.209-0.791-4-3-4v10C17.208,32,19,28.209,19,26z"/>
		<path fill="#8EC0E0" d="M30.53,0.449C27.024-2.18,16,12.908,16,12.908v8.743c17.414,7.58,11.895-3.683,12.53-7.201
			C29.17,10.899,34.53,3.449,30.53,0.449z"/>
		<path fill="#7FB8E0" d="M28.824,21.034c-0.465-0.528-1.079-0.946-1.831-1.175l-9.886-3.009L16,17.958v3.693
			C26.073,26.035,28.468,24.113,28.824,21.034z"/>
		<path fill="#B0D3EA" d="M16,12.908c0,0-11.024-15.089-14.53-12.459c-4,3,1.36,10.449,2,14C4.105,17.968-1.414,29.231,16,21.651
			V12.908z"/>
		<path fill="#8EC0E0" d="M16,21.651v-3.693l-1.108-1.108l-9.886,3.009c-0.752,0.229-1.366,0.647-1.831,1.175
			C3.532,24.113,5.927,26.035,16,21.651z"/>
		<path fill="#5CA3D5" d="M16,17c-2.209,0-3,0.791-3,3c0,2.209,0.791,3,3,3V17z"/>
		<path fill="#529CCF" d="M19,20c0-2.209-0.791-3-3-3v6C18.209,23,19,22.209,19,20z"/>
		<path fill="#FFFFFF" d="M15,17c0,0-1,0.115-1,0.853c0,0.569,0.241,0.947,0.624,1.181C14.788,19.135,15,19.01,15,18.817V17z"/>
		<path fill="#F7F7F7" d="M17,17c0,0,1,0.115,1,0.853c0,0.569-0.241,0.947-0.624,1.181C17.212,19.135,17,19.01,17,18.817V17z"/>
		<path fill="#FFFFFF" d="M14,19.5c0,0.276-0.698,0.5-1.25,0.5S12,19.776,12,19.5s0.198-0.5,0.75-0.5S14,19.224,14,19.5z"/>
		<path fill="#F7F7F7" d="M20,19.5c0,0.276-0.198,0.5-0.75,0.5S18,19.776,18,19.5s0.698-0.5,1.25-0.5S20,19.224,20,19.5z"/>
		<path fill="#FFFFFF" d="M14,21.5c0,0.276-0.698,0.5-1.25,0.5S12,21.776,12,21.5s0.198-0.5,0.75-0.5S14,21.224,14,21.5z"/>
		<path fill="#F7F7F7" d="M20,21.5c0,0.276-0.198,0.5-0.75,0.5S18,21.776,18,21.5s0.698-0.5,1.25-0.5S20,21.224,20,21.5z"/>
		<path fill="#FFFFFF" d="M14,20.5c0,0.276-0.698,0.5-1.25,0.5S12,20.776,12,20.5s0.198-0.5,0.75-0.5S14,20.224,14,20.5z"/>
		<path fill="#F7F7F7" d="M20,20.5c0,0.276-0.198,0.5-0.75,0.5S18,20.776,18,20.5s0.698-0.5,1.25-0.5S20,20.224,20,20.5z"/>
		<path fill="#5CA3D5" d="M16,12l-5.139-6.852c-0.168-0.224-0.521-0.044-0.439,0.224l3.04,9.881c0.353,1.147,0.981,2.191,1.83,3.04
			l0,0c0.195,0.195,0.451,0.293,0.707,0.293V12z"/>
		<path fill="#529CCF" d="M16.707,18.293L16.707,18.293c0.849-0.849,1.477-1.893,1.831-3.04l3.04-9.881
			c0.082-0.268-0.271-0.448-0.439-0.224L16,12v6.586C16.256,18.586,16.512,18.488,16.707,18.293z"/>
		<g>
			<circle fill="#FFFFFF" cx="13" cy="15" r="2"/>
			<circle fill="#373F3F" cx="13" cy="15" r="1"/>
		</g>
		<g>
			<circle fill="#F7F7F7" cx="19" cy="15" r="2"/>
			<circle fill="#2B3332" cx="19" cy="15" r="1"/>
		</g>
		<path fill="#65A9DC" d="M16,0c-0.107,0-0.213,0.064-0.243,0.193C15.224,2.474,14,8.05,14,11.179c0,2.782,0.968,5.081,1.557,6.222
			c0.093,0.18,0.268,0.27,0.443,0.27V0z"/>
		<path fill="#5CA3D5" d="M16.443,17.402C17.032,16.26,18,13.962,18,11.179c0-3.129-1.224-8.706-1.757-10.986
			C16.213,0.064,16.107,0,16,0v17.672C16.175,17.672,16.35,17.582,16.443,17.402z"/>
	</g>
</g>
<g id="labels">
</g>
</svg>
