<?xml version="1.0" encoding="utf-8"?>
<!-- Generator: Adobe Illustrator 23.0.6, SVG Export Plug-In . SVG Version: 6.00 Build 0)  -->
<svg version="1.1" xmlns="http://www.w3.org/2000/svg" xmlns:xlink="http://www.w3.org/1999/xlink" x="0px" y="0px" width="32px"
	 height="32px" viewBox="0 0 32 32" enable-background="new 0 0 32 32" xml:space="preserve">
<g id="icons">
	<g>
		<path fill="#C1DDEE" d="M21,27h0.479l3.304,3.452c0.29,0.303,0.29,0.793,0,1.096l-0.003,0.003
			c-0.25,0.261-0.642,0.302-0.936,0.097l-0.518-0.361c-0.249-0.174-0.574-0.174-0.823,0l-0.626,0.436C21.617,31.904,21.312,32,21,32
			h0V27z"/>
		<path fill="#D2E6F3" d="M11,27h0.479l3.304,3.452c0.29,0.303,0.29,0.793,0,1.096l-0.003,0.003
			c-0.25,0.261-0.642,0.302-0.936,0.097l-0.518-0.361c-0.249-0.174-0.574-0.174-0.823,0l-0.626,0.436C11.617,31.904,11.312,32,11,32
			h0V27z"/>
		<path fill="#E2EFF7" d="M11,27h-0.479l-3.304,3.452c-0.29,0.303-0.29,0.793,0,1.096l0.003,0.003
			c0.25,0.261,0.642,0.302,0.936,0.097l0.518-0.361c0.249-0.174,0.574-0.174,0.823,0l0.626,0.436C10.383,31.904,10.688,32,11,32h0
			V27z"/>
		<path fill="#D2E6F3" d="M20.521,27l-3.304,3.452c-0.29,0.303-0.29,0.793,0,1.096l0.003,0.003c0.25,0.261,0.642,0.302,0.936,0.097
			l0.518-0.361c0.249-0.174,0.574-0.174,0.823,0l0.626,0.436C20.383,31.904,20.688,32,21,32h0l0-5H20.521z"/>
		<path fill="#8EC0E0" d="M9.158,14.859l-0.019,0c0,0-0.002,0.005-0.002,0.006c-2.38,0.636-7.068,2.23-8.876,5.274
			c-0.152,0.256-0.025,0.604,0.255,0.703c2.048,0.721,4.545,0.337,6.692-0.308C7.08,21.095,7,21.604,7,22
			c0,4.393,3.481,7.955,9,7.996v-15.17L9.158,14.859z"/>
		<path fill="#7FB8E0" d="M31.505,20.841c0.281-0.099,0.407-0.447,0.255-0.702c-1.794-3.02-6.422-4.612-8.818-5.258l-0.328-0.086
			L16,14.827l0,15.17c0.001,0.001,0.002,0.002,0.004,0.003C21.632,30.039,25,26.442,25,22c0-0.397-0.078-0.908-0.202-1.471
			C26.948,21.176,29.452,21.564,31.505,20.841z"/>
		<path fill="#2B3332" d="M16.75,1c0-0.552-0.198-1-0.75-1s-0.75,0.448-0.75,1c0,0.149,0.5,3.25,0.5,3.25h0.5
			C16.25,4.25,16.75,1.149,16.75,1z"/>
		<path fill="#2B3332" d="M16.25,4.25c0,0,0.5-3.101,0.5-3.25c0-0.552-0.198-1-0.75-1v4.25H16.25z"/>
		<path fill="#373F3F" d="M14.508,1.776c-0.276-0.478-0.671-0.767-1.15-0.491c-0.478,0.276-0.426,0.763-0.15,1.241
			c0.075,0.129,2.058,2.565,2.058,2.565L15.7,4.84C15.7,4.84,14.583,1.905,14.508,1.776z"/>
		<path fill="#2B3332" d="M18.791,2.562c0.276-0.478,0.329-0.965-0.15-1.241c-0.478-0.276-0.873,0.013-1.15,0.491
			C17.417,1.942,16.3,4.877,16.3,4.877l0.433,0.25C16.733,5.127,18.716,2.692,18.791,2.562z"/>
		<path fill="#9FC9E4" d="M16,4c-4.418,0-8,2.539-8,7s3.582,7,8,7V4z"/>
		<path fill="#8EC0E0" d="M24,11c0-4.461-3.582-7-8-7v14C20.418,18,24,15.461,24,11z"/>
		<path fill="#FFFFFF" d="M14,10.5c0,0.828-1.145,1.5-2.25,1.5S10,11.328,10,10.5S10.645,9,11.75,9S14,9.672,14,10.5z"/>
		<circle fill="#373F3F" cx="12" cy="10.5" r="0.5"/>
		<path fill="#F7F7F7" d="M18,10.5c0,0.828,1.145,1.5,2.25,1.5S22,11.328,22,10.5S21.355,9,20.25,9S18,9.672,18,10.5z"/>
		<circle fill="#2B3332" cx="20" cy="10.5" r="0.5"/>
		<path fill="#E2EFF7" d="M16,11.828c-0.512,0-1.024,0.195-1.414,0.586C14.211,12.789,13.702,13,13.172,13h-1.554
			c-0.743,0-1.227,0.782-0.894,1.447l0,0c0.178,0.357,0.223,0.765,0.126,1.152l-0.401,1.604c-0.253,1.014,0.316,2.052,1.308,2.382
			c1.377,0.459,2.81,0.689,4.243,0.689V11.828z"/>
		<path fill="#D2E6F3" d="M20.243,19.586c0.991-0.33,1.561-1.369,1.308-2.382l-0.401-1.604c-0.097-0.387-0.052-0.795,0.126-1.152
			l0,0C21.609,13.782,21.125,13,20.382,13h-1.554c-0.53,0-1.039-0.211-1.414-0.586c-0.391-0.391-0.902-0.586-1.414-0.586v8.446
			C17.433,20.274,18.866,20.045,20.243,19.586z"/>
		<path fill="#71B1E1" d="M16,27v2.996c0.032,0,0.062,0.004,0.094,0.004c5.508,0,8.82-3.498,8.899-7.844
			C23.373,25.205,19.961,27,16,27z"/>
		<path fill="#7FB8E0" d="M7.008,22.157c0.083,4.32,3.54,7.799,8.992,7.839V27C12.04,27,8.628,25.205,7.008,22.157z"/>
	</g>
</g>
<g id="labels">
</g>
</svg>
