<?xml version="1.0" encoding="utf-8"?>
<!-- Generator: Adobe Illustrator 23.0.6, SVG Export Plug-In . SVG Version: 6.00 Build 0)  -->
<svg version="1.1" xmlns="http://www.w3.org/2000/svg" xmlns:xlink="http://www.w3.org/1999/xlink" x="0px" y="0px" width="32px"
	 height="32px" viewBox="0 0 32 32" enable-background="new 0 0 32 32" xml:space="preserve">
<g id="icons">
	<g>
		<path fill="#5CA3D5" d="M12,19.101l-2.145,3.575C9.296,23.608,9,24.675,9,25.763v3.338l-0.001,0.001
			c-0.662,0.662-1.213,1.426-1.632,2.264L7.335,31.43c-0.107,0.215,0.121,0.443,0.335,0.335l0.291-0.146
			c0.642-0.321,1.407-0.273,2.004,0.125l0.257,0.171c0.168,0.112,0.387,0.112,0.555,0l0.257-0.171
			c0.597-0.398,1.362-0.446,2.004-0.125l0.291,0.146c0.215,0.107,0.443-0.121,0.335-0.335l-0.032-0.065
			c-0.419-0.837-0.97-1.602-1.632-2.264L12,29.101v-1.394c0-1.003,0.501-1.94,1.336-2.496L15,24.101L12,19.101z"/>
		<path fill="#65A9DC" d="M13,11.004l-0.005,0.016L8.46,10.298c-1.121-0.187-2.269,0.112-3.156,0.822L3.07,12.906
			c-0.904,0.723-1.64,1.634-2.158,2.669l-0.885,1.771c-0.105,0.211,0.118,0.434,0.329,0.329l0.001,0
			c0.741-0.37,1.642-0.07,2.012,0.671l0.11,0.22c0.09,0.181,0.348,0.181,0.438,0l0.11-0.22c0.37-0.741,1.271-1.041,2.012-0.671
			l0.182,0.091c0.187,0.094,0.398-0.076,0.347-0.279l-0.734-2.934c-0.085-0.341,0.015-0.701,0.263-0.95l0.726-0.726
			c0.536-0.536,1.328-0.723,2.047-0.483l4.284,1.428l-1.125,3.749c-0.634,2.114-0.056,4.406,1.504,5.967l0.587,0.587
			c0.563,0.563,1.326,0.879,2.121,0.879H16v-14H13z"/>
		<path fill="#529CCF" d="M20,19.101l2.145,3.575c0.559,0.932,0.855,2,0.855,3.087v3.338l0.001,0.001
			c0.662,0.662,1.213,1.426,1.632,2.264l0.032,0.065c0.107,0.215-0.121,0.443-0.335,0.335l-0.291-0.146
			c-0.642-0.321-1.407-0.273-2.004,0.125l-0.257,0.171c-0.168,0.112-0.387,0.112-0.555,0l-0.257-0.171
			c-0.597-0.398-1.362-0.446-2.004-0.125l-0.291,0.146c-0.215,0.107-0.443-0.121-0.335-0.335l0.032-0.065
			c0.419-0.837,0.97-1.602,1.632-2.264L20,29.101v-1.394c0-1.003-0.501-1.94-1.336-2.496L17,24.101L20,19.101z"/>
		<path fill="#5CA3D5" d="M31.973,17.346l-0.885-1.771c-0.518-1.035-1.254-1.946-2.158-2.669l-2.233-1.787
			c-0.888-0.71-2.035-1.009-3.156-0.822l-4.535,0.722L19,11.004h-3v14h0.757c0.796,0,1.559-0.316,2.121-0.879l0.587-0.587
			c1.561-1.561,2.139-3.853,1.504-5.967l-1.125-3.749l4.284-1.428c0.719-0.24,1.511-0.052,2.047,0.483l0.726,0.726
			c0.248,0.248,0.348,0.609,0.263,0.95l-0.734,2.934c-0.051,0.203,0.16,0.372,0.347,0.279l0.182-0.091
			c0.741-0.37,1.642-0.07,2.012,0.671l0.11,0.22c0.09,0.181,0.348,0.181,0.438,0l0.11-0.22c0.37-0.741,1.271-1.041,2.012-0.671
			l0.001,0C31.855,17.781,32.078,17.557,31.973,17.346z"/>
		<path fill="#71B1E1" d="M16,11V3l-2.573-2.573C13.269,0.269,13,0.381,13,0.604V4L9.527,3.132C9.32,3.08,9.148,3.295,9.243,3.486
			L13,11H16z"/>
		<path fill="#65A9DC" d="M16,11V3l2.573-2.573C18.731,0.269,19,0.381,19,0.604V4l3.473-0.868c0.207-0.052,0.38,0.163,0.284,0.354
			L19,11H16z"/>
		<path fill="#E55D53" d="M13,11.004c0,0,0,6,3,6v-6H13z"/>
		<path fill="#DD564C" d="M19,11.004c0,0,0,6-3,6v-6H19z"/>
		<line fill="#FF6B8B" x1="16" y1="11.004" x2="13" y2="11.004"/>
		<path fill="#F4A984" d="M16,11.504h-2.479c0.083,1.356,0.493,5,2.479,5V11.504z"/>
		<path fill="#EA9C7A" d="M16,16.504c1.986,0,2.396-3.644,2.479-5H16V16.504z"/>
		<path fill="#E7685F" d="M13,11.004c0,0,0,4,3,4v-5h-0.191c-0.343,0-0.656,0.194-0.809,0.5v0c-0.153,0.306-0.466,0.5-0.809,0.5H13z
			"/>
		<path fill="#E55D53" d="M19,11.004c0,0,0,4-3,4v-5h0.191c0.343,0,0.656,0.194,0.809,0.5v0c0.153,0.306,0.466,0.5,0.809,0.5H19z"/>
		<path fill="#E85160" d="M16,6c-0.552,0-1,0.448-1,1c0,0.552,0.448,1,1,1V6z"/>
		<path fill="#D84459" d="M17,7c0-0.552-0.448-1-1-1v2C16.552,8,17,7.552,17,7z"/>
		<path fill="#F7F7F7" d="M17.12,9.661c0.208-0.519,0.702-1.459,1.593-1.63C18.863,8.002,19,8.126,19,8.279v0.725
			c0,0.552-0.448,1-1,1h-0.648C17.174,10.004,17.053,9.825,17.12,9.661z"/>
		<path fill="#FFFFFF" d="M14.88,9.661c-0.208-0.519-0.702-1.459-1.593-1.63C13.137,8.002,13,8.126,13,8.279v0.725
			c0,0.552,0.448,1,1,1h0.648C14.826,10.004,14.947,9.825,14.88,9.661z"/>
		<path fill="#D84459" d="M17.521,8.912c0.05,0.336,0.24,0.592,0.479,0.592c0.276,0,0.5-0.336,0.5-0.75
			c0-0.231-0.074-0.431-0.184-0.568C17.983,8.356,17.719,8.623,17.521,8.912z"/>
		<path fill="#E85160" d="M14.479,8.912c-0.198-0.29-0.462-0.556-0.795-0.726C13.574,8.323,13.5,8.522,13.5,8.754
			c0,0.414,0.224,0.75,0.5,0.75C14.239,9.504,14.429,9.248,14.479,8.912z"/>
	</g>
</g>
<g id="labels">
</g>
</svg>
