<?xml version="1.0" encoding="utf-8"?>
<!-- Generator: Adobe Illustrator 23.0.6, SVG Export Plug-In . SVG Version: 6.00 Build 0)  -->
<svg version="1.1" xmlns="http://www.w3.org/2000/svg" xmlns:xlink="http://www.w3.org/1999/xlink" x="0px" y="0px" width="32px"
	 height="32px" viewBox="0 0 32 32" enable-background="new 0 0 32 32" xml:space="preserve">
<g id="icons">
	<g>
		<path fill="#F7C845" d="M14,24.501V31.5c0,0.276-0.224,0.5-0.5,0.5h-4C9.224,32,9,31.776,9,31.5V20
			c0-0.163,0.029-0.318,0.048-0.476L10,20l-0.819,1.638C9.098,21.804,9.219,22,9.405,22H11l-0.809,2.427
			c-0.07,0.211,0.15,0.402,0.349,0.303L12,24v2.287c0,0.236,0.298,0.341,0.445,0.156L14,24.501z"/>
		<path fill="#F0C13E" d="M22.952,19.524C22.971,19.682,23,19.837,23,20v11.5c0,0.276-0.224,0.5-0.5,0.5h-4
			c-0.276,0-0.5-0.224-0.5-0.5v-7l1.555,1.943C19.702,26.628,20,26.524,20,26.287V24l1.46,0.73c0.199,0.1,0.419-0.091,0.349-0.303
			L21,22h1.596c0.186,0,0.307-0.196,0.224-0.362L22,20L22.952,19.524z"/>
		<path fill="#E8BA36" d="M18,24.5l-1,1.75v4.25c0,0.276,0.224,0.5,0.5,0.5H18V24.5z"/>
		<path fill="#F0C13E" d="M14,24.5l-1.555,1.943L14,24.5l0,6.5h0.5c0.276,0,0.5-0.224,0.5-0.5v-4.251L14,24.5z"/>
		<path fill="#FFEAA7" d="M18.817,20l-7-7c0,0-2-13,10-13C32.464,0,32.09,11.808,31.871,14.471
			c-0.018,0.213-0.275,0.307-0.426,0.156L28.817,12v2.396c0,0.223-0.269,0.334-0.427,0.177L25.817,12C25.817,12,26.817,20,18.817,20
			z"/>
		<path fill="#F0C13E" d="M25.757,7.496c-0.422-1.619-1.091-2.841-2.667-2.408c-0.511,0.141-0.909,0.582-1.215,1.113
			C22.584,7.296,23,8.598,23,10c0,0.195-0.013,0.387-0.029,0.578c0.539,0.322,1.119,0.518,1.648,0.373
			C26.195,10.517,26.179,9.115,25.757,7.496z"/>
		<path fill="#F7C845" d="M9,10c0-1.402,0.416-2.704,1.126-3.799C9.819,5.67,9.422,5.229,8.911,5.088
			C7.334,4.654,6.666,5.877,6.243,7.496c-0.422,1.619-0.438,3.021,1.138,3.455C7.91,11.096,8.49,10.9,9.029,10.578
			C9.013,10.387,9,10.195,9,10z"/>
		<path fill="#2B3332" d="M18,26l1.71,1.71c0.169,0.169,0.433,0.195,0.631,0.062L23,26v2l-1.747,2.184
			c-0.147,0.184-0.403,0.24-0.614,0.135L18,29V26z"/>
		<path fill="#373F3F" d="M14,26l-1.71,1.71c-0.169,0.169-0.433,0.195-0.631,0.062L9,26v2l1.747,2.184
			c0.147,0.184,0.403,0.24,0.614,0.135L14,29V26z"/>
		<path fill="#FFD04D" d="M16,3c-3.866,0-7,3.134-7,7c0,3.866,3.134,7,7,7V3z"/>
		<path fill="#F7C845" d="M23,10c0-3.866-3.134-7-7-7v14C19.866,17,23,13.866,23,10z"/>
		<path fill="#FFF5D8" d="M16,9.35c-0.455,0-0.91,0.104-1.328,0.313c-0.47,0.235-1,0.342-1.525,0.31
			c-3.116-0.194-4.106-1.323-4.146,1.038c-0.047,2.803,1.974,5.264,4.73,5.774c0.773,0.143,1.532,0.206,2.268,0.206V9.35z"/>
		<path fill="#FEF1C6" d="M23,11.167c0-2.557-0.959-1.397-4.121-1.195c-0.534,0.034-1.073-0.069-1.552-0.308
			C16.91,9.455,16.455,9.35,16,9.35v7.642C19.865,16.991,23,15.032,23,11.167z"/>
		<path fill="#FFEAA7" d="M22.221,14.114c-1.159,0.793-3.506-0.121-6.221-0.122v3C18.711,16.991,21.058,16.023,22.221,14.114
			L22.221,14.114z"/>
		<path fill="#FEF1C6" d="M15.996,13.992c-2.59,0-4.846,0.832-6.056,0.221l0,0c0.843,1.305,2.184,2.276,3.791,2.573
			c0.773,0.143,1.532,0.206,2.268,0.206v-3C15.999,13.992,15.998,13.992,15.996,13.992z"/>
		<path fill="#FEF1C6" d="M9.545,7.288c-0.263-0.646-0.589-1.151-0.9-1.236C8.52,6.018,8.406,6,8.308,6c-0.175,0-0.64,0-1.097,1.748
			C6.696,9.725,7.223,9.87,7.646,9.987C7.679,9.996,7.714,10,7.755,10c0.348,0,0.82-0.276,1.277-0.641
			C9.099,8.631,9.273,7.935,9.545,7.288z"/>
		<path fill="#FFEAA7" d="M24.789,7.749C24.332,6,23.867,6,23.692,6c-0.099,0-0.212,0.018-0.338,0.052
			c-0.31,0.085-0.637,0.59-0.9,1.236c0.272,0.646,0.447,1.343,0.513,2.071C23.426,9.724,23.897,10,24.245,10
			c0.041,0,0.076-0.004,0.108-0.013C24.777,9.87,25.304,9.725,24.789,7.749z"/>
		<path fill="#FFF5D8" d="M16,16.992c-0.736,0-1.496-0.063-2.268-0.206c-1.434-0.265-2.664-1.061-3.513-2.156l-1.884,0.314
			c-0.166,0.028-0.258,0.208-0.182,0.358L9,17l-0.888,1.776C8.051,18.9,8.101,19.05,8.224,19.112L10,20l-0.819,1.638
			C9.098,21.804,9.219,22,9.405,22H11l-0.809,2.427c-0.07,0.211,0.15,0.402,0.349,0.303L12,24v2.287
			c0,0.236,0.298,0.341,0.445,0.156L14,24.5l1.782,3.119c0.054,0.094,0.153,0.133,0.247,0.122v-10.75
			C16.02,16.991,16.01,16.992,16,16.992z"/>
		<path fill="#FEF1C6" d="M23.888,18.776L23,17l0.849-1.697c0.075-0.15-0.017-0.331-0.182-0.358l-1.811-0.302
			c-1.246,1.554-3.388,2.342-5.825,2.349v10.75c0.074-0.009,0.145-0.048,0.187-0.122L18,24.5l1.555,1.943
			C19.702,26.628,20,26.524,20,26.287V24l1.46,0.73c0.199,0.1,0.419-0.091,0.349-0.303L21,22h1.595c0.186,0,0.307-0.196,0.224-0.362
			L22,20l1.776-0.888C23.9,19.05,23.95,18.9,23.888,18.776z"/>
		<path fill="#373F3F" d="M16,11.001c-0.552,0-1-0.052-1,0.5c0,0.341,0.382,0.738,0.674,0.991c0.094,0.081,0.21,0.122,0.326,0.122
			V11.001z"/>
		<path fill="#2B3332" d="M16.326,12.493C16.618,12.239,17,11.843,17,11.501c0-0.552-0.448-0.5-1-0.5v1.613
			C16.116,12.615,16.233,12.574,16.326,12.493z"/>
		<path fill="#FFF5D8" d="M15.978,0.336c-0.143,0.006-0.283,0.071-0.378,0.198L14.5,2l-0.656-0.656
			C13.7,1.2,13.454,1.279,13.42,1.479l-0.082,0.49c-0.212,1.274,0.204,2.573,1.117,3.486l1.523,1.523V0.336z"/>
		<path fill="#FDEBBB" d="M18.58,1.479C18.546,1.279,18.3,1.2,18.156,1.344L17.5,2l-1.1-1.467c-0.105-0.14-0.264-0.204-0.422-0.198
			v6.643L16,7l1.544-1.544c0.913-0.913,1.329-2.212,1.117-3.486L18.58,1.479z"/>
		
			<rect x="10" y="20" transform="matrix(0.4472 -0.8944 0.8944 0.4472 -12.3608 20.0002)" fill="#FFAD68" width="0.001" height="0.001"/>
		<path fill="#373F3F" d="M11,22H9.405c-0.186,0-0.307-0.196-0.224-0.362L10,20l-1,1v2l1.875-0.625L11,22z"/>
		<path fill="#F7F7F7" d="M18.879,9.972c0.85-0.055,1.536-0.177,2.092-0.279c-0.034-0.653-0.153-1.284-0.38-1.865
			c-0.143-0.366-0.638-0.432-0.874-0.118l-1.653,2.204C18.332,9.968,18.606,9.989,18.879,9.972z"/>
		<path fill="#2B3332" d="M22.819,21.638C22.902,21.804,22.781,22,22.596,22H21l0.125,0.375L23,23v-2l-1-1L22.819,21.638z"/>
		<path fill="#2B3332" d="M18.879,9.972c0.404-0.026,0.772-0.068,1.107-0.115c-0.018-0.699-0.15-1.368-0.388-1.988l-1.534,2.045
			C18.332,9.968,18.606,9.989,18.879,9.972z"/>
		<path fill="#FFFFFF" d="M13.147,9.974c0.265,0.016,0.531-0.004,0.79-0.057L12.283,7.71c-0.236-0.315-0.731-0.249-0.874,0.118
			c-0.227,0.581-0.346,1.212-0.38,1.865C11.591,9.796,12.285,9.92,13.147,9.974z"/>
		<path fill="#373F3F" d="M13.147,9.974c0.265,0.016,0.531-0.004,0.79-0.057l-1.536-2.048c-0.237,0.62-0.37,1.289-0.388,1.987
			C12.356,9.905,12.732,9.948,13.147,9.974z"/>
	</g>
</g>
<g id="labels">
</g>
</svg>
