<?xml version="1.0" encoding="utf-8"?>
<!-- Generator: Adobe Illustrator 23.0.6, SVG Export Plug-In . SVG Version: 6.00 Build 0)  -->
<svg version="1.1" xmlns="http://www.w3.org/2000/svg" xmlns:xlink="http://www.w3.org/1999/xlink" x="0px" y="0px" width="32px"
	 height="32px" viewBox="0 0 32 32" enable-background="new 0 0 32 32" xml:space="preserve">
<g id="icons">
	<g>
		<polygon fill="#529CCF" points="18,30 21,30 20,23 18,23 		"/>
		<path fill="#5CA3D5" d="M17,30.667C17,32,18.567,32,20.5,32s3.5,0,3.5-1.333C24,28.458,22.433,28,20.5,28S17,28.458,17,30.667z"/>
		<polygon fill="#5CA3D5" points="14,30 11,30 12,23 14,23 		"/>
		<path fill="#65A9DC" d="M15,30.667C15,32,13.433,32,11.5,32S8,32,8,30.667C8,28.458,9.567,28,11.5,28S15,28.458,15,30.667z"/>
		<path fill="#71B1E1" d="M10.916,1.285c-0.921-1-2.336-1.531-3.872-1.173C5.699,0.425,4.587,1.466,4.185,2.788
			C3.858,3.861,3.985,4.874,4.403,5.722c0.274,0.557,0.233,1.214-0.065,1.759C3.485,9.037,3,10.879,3,13c0,7.41,5.82,11.5,13,11.5
			v-23c-1.146,0-2.255,0.11-3.312,0.319C12.044,1.946,11.361,1.768,10.916,1.285z"/>
		<path fill="#65A9DC" d="M27.597,5.722c0.417-0.848,0.544-1.861,0.218-2.934c-0.402-1.321-1.514-2.363-2.859-2.676
			c-1.536-0.358-2.951,0.174-3.872,1.173c-0.445,0.483-1.129,0.661-1.772,0.534C18.255,1.61,17.146,1.5,16,1.5v23
			c7.18,0,13-4.09,13-11.5c0-2.121-0.485-3.963-1.337-5.519C27.365,6.936,27.324,6.279,27.597,5.722z"/>
		<circle fill="#F7F7F7" cx="24" cy="4" r="3"/>
		<circle fill="#FFFFFF" cx="8" cy="4" r="3"/>
		<circle fill="#373F3F" cx="8" cy="4" r="2"/>
		<circle fill="#2B3332" cx="24" cy="4" r="2"/>
		<circle fill="#F7F7F7" cx="23.5" cy="3.5" r="0.5"/>
		<circle fill="#FFFFFF" cx="8.5" cy="3.5" r="0.5"/>
		<g>
			<path fill="#F7F7F7" d="M16,8c4.418,0,8,3.134,8,7c0,3.866-3.582,7-8,7V8z"/>
			<path fill="#FFFFFF" d="M8,15c0-3.866,3.582-7,8-7v14C11.582,22,8,18.866,8,15z"/>
			<g>
				<path fill="#2B3332" d="M18.512,15c0,0.827-1.077,1.45-2.512,1.463v-0.75c1.06-0.012,1.762-0.433,1.762-0.714
					S17.06,14.299,16,14.286v-0.75C17.434,13.55,18.512,14.173,18.512,15z"/>
				<path fill="#2B3332" d="M20.693,15c0,1.999-2.102,3.624-4.693,3.644v-0.75c2.178-0.018,3.943-1.308,3.943-2.894
					c0-1.587-1.766-2.877-3.943-2.895v-0.75C18.592,11.375,20.693,13,20.693,15z"/>
				<path fill="#2B3332" d="M16,20.077c3.381-0.021,6.125-2.289,6.125-5.077S19.381,9.942,16,9.922v-0.75
					c3.795,0.021,6.875,2.626,6.875,5.828c0,3.201-3.08,5.806-6.875,5.827V20.077z"/>
			</g>
			<g>
				<path fill="#373F3F" d="M15.579,13.909c0-0.207,0.168-0.375,0.375-0.375c0.016,0,0.03,0.002,0.046,0.003v0.75
					c-0.016,0-0.03-0.002-0.046-0.002C15.747,14.284,15.579,14.116,15.579,13.909z"/>
				<path fill="#373F3F" d="M12.307,13.909c0-1.435,1.603-2.558,3.647-2.558c0.016,0,0.03,0.003,0.046,0.004v0.75
					c-0.016,0-0.03-0.003-0.046-0.003c-1.57,0-2.897,0.828-2.897,1.808s1.327,1.807,2.897,1.807c0.016,0,0.03-0.002,0.046-0.002
					v0.75c-0.016,0-0.03,0.003-0.046,0.003C13.909,16.466,12.307,15.343,12.307,13.909z"/>
				<path fill="#373F3F" d="M15.579,20.454c0-0.207,0.168-0.375,0.375-0.375c0.016,0,0.03-0.002,0.046-0.002v0.75
					c-0.015,0-0.03,0.002-0.046,0.002C15.747,20.829,15.579,20.661,15.579,20.454z"/>
				<path fill="#373F3F" d="M15.954,9.17c0.016,0,0.03,0.002,0.046,0.002v0.75c-0.015,0-0.03-0.002-0.046-0.002
					c-2.801,0-5.079,1.79-5.079,3.989s2.278,3.988,5.079,3.988c0.016,0,0.03-0.003,0.046-0.003v0.75
					c-0.016,0-0.03,0.004-0.046,0.004c-3.214,0-5.829-2.126-5.829-4.738C10.125,11.296,12.74,9.17,15.954,9.17z"/>
			</g>
		</g>
		<path fill="#F7F7F7" d="M1,20l3-3l1,1h2.382c0.379,0,0.725,0.214,0.894,0.553l0.401,0.803c0.192,0.385,0.117,0.85-0.187,1.154
			L8,21l0.586,0.586c0.781,0.781,0.781,2.047,0,2.828l-1.172,1.172c-0.781,0.781-2.047,0.781-2.828,0l-3-3
			C1.211,22.211,1,21.702,1,21.172V20z"/>
		<path fill="#65A9DC" d="M1,20v-2.729c0-2.087,0.653-4.121,1.867-5.818l0.279-0.39c0,0-0.271,4.312,0.854,5.938L1,20z"/>
		<path fill="#EDEEEE" d="M31,20l-3-3l-1,1h-2.382c-0.379,0-0.725,0.214-0.894,0.553l-0.401,0.803
			c-0.192,0.385-0.117,0.85,0.187,1.154L24,21l-0.586,0.586c-0.781,0.781-0.781,2.047,0,2.828l1.172,1.172
			c0.781,0.781,2.047,0.781,2.828,0l3-3C30.789,22.211,31,21.702,31,21.172V20z"/>
		<path fill="#5CA3D5" d="M31,20v-2.729c0-2.087-0.653-4.121-1.867-5.818l-0.279-0.39c0,0,0.271,4.312-0.854,5.938L31,20z"/>
		<circle fill="#373F3F" cx="14.5" cy="6.5" r="0.5"/>
		<circle fill="#2B3332" cx="17.5" cy="6.5" r="0.5"/>
	</g>
</g>
<g id="labels">
</g>
</svg>
