<?xml version="1.0" encoding="utf-8"?>
<!-- Generator: Adobe Illustrator 23.0.6, SVG Export Plug-In . SVG Version: 6.00 Build 0)  -->
<svg version="1.1" xmlns="http://www.w3.org/2000/svg" xmlns:xlink="http://www.w3.org/1999/xlink" x="0px" y="0px" width="32px"
	 height="32px" viewBox="0 0 32 32" enable-background="new 0 0 32 32" xml:space="preserve">
<g id="icons">
	<g>
		<path fill="#5CA3D5" d="M30,18c1.105,0,2-0.895,2-2v-3.451C32,9.006,30.089,5.737,27,4l0,0v3.312L30,18z"/>
		<path fill="#65A9DC" d="M2,18c-1.105,0-2-0.895-2-2l0-3.451C0,9.006,1.911,5.737,5,4l0,0v3.312L2,18z"/>
		<polygon fill="#529CCF" points="23,22 22,29 19,29 18,23 		"/>
		<polygon fill="#5CA3D5" points="9,22 10,29 13,29 14,23 		"/>
		<path fill="#5CA3D5" d="M17,30.667C17,32,18.567,32,20.5,32s3.5,0,3.5-1.333C24,28.458,22.433,28,20.5,28S17,28.458,17,30.667z"/>
		<path fill="#65A9DC" d="M15,30.667C15,32,13.433,32,11.5,32S8,32,8,30.667C8,28.458,9.567,28,11.5,28S15,28.458,15,30.667z"/>
		<path fill="#71B1E1" d="M10.916,1.285c-0.921-1-2.336-1.531-3.872-1.173C5.699,0.425,4.587,1.466,4.185,2.788
			C3.858,3.861,3.985,4.874,4.403,5.722c0.274,0.557,0.233,1.214-0.065,1.759C3.485,9.037,3,10.879,3,13c0,7.41,5.82,11.5,13,11.5
			v-23c-1.146,0-2.255,0.11-3.312,0.319C12.044,1.946,11.361,1.768,10.916,1.285z"/>
		<path fill="#65A9DC" d="M27.597,5.722c0.417-0.848,0.544-1.861,0.218-2.934c-0.402-1.321-1.514-2.363-2.859-2.676
			c-1.536-0.358-2.951,0.174-3.872,1.173c-0.445,0.483-1.129,0.661-1.772,0.534C18.255,1.61,17.146,1.5,16,1.5v23
			c7.18,0,13-4.09,13-11.5c0-2.121-0.485-3.963-1.337-5.519C27.365,6.936,27.324,6.279,27.597,5.722z"/>
		<path fill="#F7F7F7" d="M27,4c0,1.657-1.343,3-3,3s-3-1.343-3-3l5.12-2.123C26.664,2.42,27,3.171,27,4z"/>
		<path fill="#FFFFFF" d="M11,4c0,1.657-1.343,3-3,3S5,5.657,5,4c0-0.828,0.336-1.578,0.878-2.121L11,4z"/>
		<g>
			<path fill="#F7F7F7" d="M16,8c4.418,0,8,3.134,8,7c0,3.866-3.582,7-8,7V8z"/>
			<path fill="#FFFFFF" d="M8,15c0-3.866,3.582-7,8-7v14C11.582,22,8,18.866,8,15z"/>
			<g>
				<path fill="#2B3332" d="M18.512,15c0,0.827-1.077,1.45-2.512,1.463v-0.75c1.06-0.012,1.762-0.433,1.762-0.714
					S17.06,14.299,16,14.286v-0.75C17.434,13.55,18.512,14.173,18.512,15z"/>
				<path fill="#2B3332" d="M20.693,15c0,1.999-2.102,3.624-4.693,3.644v-0.75c2.178-0.018,3.943-1.308,3.943-2.894
					c0-1.587-1.766-2.877-3.943-2.895v-0.75C18.592,11.375,20.693,13,20.693,15z"/>
				<path fill="#2B3332" d="M16,20.077c3.381-0.021,6.125-2.289,6.125-5.077S19.381,9.942,16,9.922v-0.75
					c3.795,0.021,6.875,2.626,6.875,5.828c0,3.201-3.08,5.806-6.875,5.827V20.077z"/>
			</g>
			<g>
				<path fill="#373F3F" d="M15.579,13.909c0-0.207,0.168-0.375,0.375-0.375c0.016,0,0.03,0.002,0.046,0.003v0.75
					c-0.016,0-0.03-0.002-0.046-0.002C15.747,14.284,15.579,14.116,15.579,13.909z"/>
				<path fill="#373F3F" d="M12.307,13.909c0-1.435,1.603-2.558,3.647-2.558c0.016,0,0.03,0.003,0.046,0.004v0.75
					c-0.016,0-0.03-0.003-0.046-0.003c-1.57,0-2.897,0.828-2.897,1.808s1.327,1.807,2.897,1.807c0.016,0,0.03-0.002,0.046-0.002
					v0.75c-0.016,0-0.03,0.003-0.046,0.003C13.909,16.466,12.307,15.343,12.307,13.909z"/>
				<path fill="#373F3F" d="M15.579,20.454c0-0.207,0.168-0.375,0.375-0.375c0.016,0,0.03-0.002,0.046-0.002v0.75
					c-0.015,0-0.03,0.002-0.046,0.002C15.747,20.829,15.579,20.661,15.579,20.454z"/>
				<path fill="#373F3F" d="M15.954,9.17c0.016,0,0.03,0.002,0.046,0.002v0.75c-0.015,0-0.03-0.002-0.046-0.002
					c-2.801,0-5.079,1.79-5.079,3.989s2.278,3.988,5.079,3.988c0.016,0,0.03-0.003,0.046-0.003v0.75
					c-0.016,0-0.03,0.004-0.046,0.004c-3.214,0-5.829-2.126-5.829-4.738C10.125,11.296,12.74,9.17,15.954,9.17z"/>
			</g>
		</g>
		<circle fill="#373F3F" cx="14.5" cy="6.5" r="0.5"/>
		<circle fill="#2B3332" cx="17.5" cy="6.5" r="0.5"/>
		<path fill="#F7F7F7" d="M6,11h1c1.105,0,2,0.895,2,2v0.023c0.625,0.054,1.22,0.334,1.599,0.837C11.772,15.414,10,17,10,17
			s1.771,1.586,0.599,3.14C10.178,20.699,9.493,21,8.793,21H6c-1.657,0-3-1.343-3-3H2l-0.217-0.941C1.513,15.885,1.998,14.667,3,14
			l0,0C3,12.343,4.343,11,6,11z"/>
		<path fill="#EDEEEE" d="M26,11h-1c-1.105,0-2,0.895-2,2v0.023c-0.625,0.054-1.22,0.334-1.599,0.837C20.228,15.414,22,17,22,17
			s-1.771,1.586-0.599,3.14c0.421,0.559,1.106,0.86,1.806,0.86H26c1.657,0,3-1.343,3-3h1l0.217-0.941
			C30.487,15.885,30.002,14.667,29,14l0,0C29,12.343,27.657,11,26,11z"/>
		<path fill="#2B3332" d="M24.237,2.658l-1.679,0.696C22.523,3.558,22.5,3.773,22.5,4c0,1.105,0.448,2,1,2s1-0.895,1-2
			C24.5,3.481,24.399,3.013,24.237,2.658z"/>
		<path fill="#373F3F" d="M7.5,4c0,1.105,0.448,2,1,2s1-0.895,1-2c0-0.227-0.023-0.442-0.058-0.645l-1.68-0.695
			C7.601,3.015,7.5,3.482,7.5,4z"/>
	</g>
</g>
<g id="labels">
</g>
</svg>
