<?xml version="1.0" encoding="utf-8"?>
<!-- Generator: Adobe Illustrator 23.0.6, SVG Export Plug-In . SVG Version: 6.00 Build 0)  -->
<svg version="1.1" xmlns="http://www.w3.org/2000/svg" xmlns:xlink="http://www.w3.org/1999/xlink" x="0px" y="0px" width="32px"
	 height="32px" viewBox="0 0 32 32" enable-background="new 0 0 32 32" xml:space="preserve">
<g id="icons">
	<g>
		<path fill="#FFD04D" d="M16.291,15.982c0,0,8.926-3.183,14.85-8.828c0.357-0.34,0.943-0.001,0.828,0.479
			C29.89,16.304,22.5,21.438,22.5,21.438L16.291,15.982z"/>
		<path fill="#8D5B36" d="M29.167,14.167c0.504-0.805,0.978-1.669,1.407-2.593L28.43,9.43c-0.776,0.584-1.566,1.132-2.357,1.643
			L29.167,14.167z"/>
		<g>
			<rect x="11.5" y="17" fill="#FFE28A" width="4.5" height="5"/>
			<rect x="16" y="17" fill="#FFD96C" width="4.5" height="5"/>
			<polygon fill="#9E6E43" points="11.5,14 11.5,17 16,18 16,14 			"/>
			<polygon fill="#96643B" points="16,14 16,18 20.5,17 20.5,14 			"/>
			<path fill="#A7794C" d="M10.5,11c0,0-2.629,0-3.785,2.461c-0.13,0.278-0.002,0.609,0.288,0.706L9.5,15H16v-4H10.5z"/>
			<path fill="#9E6E43" d="M21.5,11c0,0,2.629,0,3.785,2.461c0.13,0.278,0.002,0.609-0.288,0.706L22.5,15H16v-4H21.5z"/>
			<polygon fill="#FFE28A" points="9.5,15 8.5,19 11.5,17 11.5,15 			"/>
			<polygon fill="#FFD96C" points="22.463,15 23.463,19 20.463,17 20.463,15 			"/>
			<path fill="#FFE28A" d="M11.5,20c0,0-3,0-4,4l2,4c0,0,1-4,3-4L11.5,20z"/>
			<path fill="#FFD96C" d="M20.5,20c0,0,3,0,4,4l-2,4c0,0-1-4-3-4L20.5,20z"/>
			<path fill="#FFEAA7" d="M13.5,2l-3.276-1.638C9.891,0.196,9.5,0.437,9.5,0.809V5L8.806,7.774
				c-0.204,0.814-0.167,1.67,0.106,2.463l0.014,0.042c0.381,1.11,1.183,2.025,2.233,2.55l1.959,0.979
				c0.302,0.151,0.539,0.408,0.664,0.722l0,0C14.137,15.418,14.997,16,15.952,16H16V2H13.5z"/>
			<path fill="#FFE28A" d="M23.194,7.774L22.5,5l0-4.191c0-0.372-0.391-0.613-0.724-0.447L18.5,2H16v14h0.23
				c0.845,0,1.605-0.515,1.919-1.299v0c0.169-0.423,0.488-0.769,0.896-0.973l1.795-0.897c1.05-0.525,1.851-1.44,2.233-2.55
				l0.014-0.042C23.36,9.444,23.397,8.588,23.194,7.774z"/>
			<path fill="#E8BA67" d="M9.705,0.41C9.584,0.499,9.5,0.639,9.5,0.809V5l2-1L9.705,0.41z"/>
			<path fill="#DDAA5F" d="M22.5,5V0.809c0-0.17-0.084-0.31-0.205-0.399L20.5,4L22.5,5z"/>
			<path fill="#FFEAA7" d="M2.563,22.937c0.517-0.517,1.356-0.517,1.874,0L5.5,24l-0.741-2.223c-0.159-0.476-0.035-1.001,0.32-1.356
				l0,0c0.673-0.673,1.814-0.438,2.167,0.445l2.538,6.346c0.472,1.181,0.715,2.442,0.715,3.714V31c0,0.552-0.448,1-1,1h0
				c-0.552,0-1-0.448-1-1v-0.54c0-0.292-0.128-0.569-0.349-0.759l-5.564-4.769C2,24.429,1.966,23.534,2.512,22.988L2.563,22.937z"/>
			<path fill="#FFE28A" d="M29.437,22.937c-0.517-0.517-1.356-0.517-1.874,0L26.5,24l0.741-2.223
				c0.159-0.476,0.035-1.001-0.32-1.356l0,0c-0.673-0.673-1.814-0.438-2.167,0.445l-2.538,6.346
				c-0.472,1.181-0.715,2.442-0.715,3.714V31c0,0.552,0.448,1,1,1h0c0.552,0,1-0.448,1-1v-0.54c0-0.292,0.128-0.569,0.349-0.759
				l5.564-4.769c0.586-0.502,0.62-1.397,0.075-1.943L29.437,22.937z"/>
			<path fill="#373F3F" d="M14.75,12.003c-0.091,0-0.18-0.051-0.224-0.139c-0.673-1.347-2.26-1.361-2.276-1.361
				c-0.138,0-0.25-0.111-0.25-0.25c0-0.138,0.112-0.25,0.25-0.25l0,0c0.083,0,1.915,0.02,2.724,1.639
				c0.062,0.123,0.012,0.273-0.112,0.335C14.826,11.994,14.788,12.003,14.75,12.003z"/>
			<path fill="#2B3332" d="M17.25,12.003c-0.038,0-0.076-0.009-0.112-0.026c-0.124-0.062-0.173-0.212-0.112-0.335
				c0.809-1.619,2.641-1.639,2.724-1.639l0,0c0.138,0,0.25,0.111,0.25,0.25c0,0.138-0.111,0.249-0.249,0.25
				c-0.065,0-1.607,0.021-2.277,1.361C17.43,11.952,17.341,12.003,17.25,12.003z"/>
			<path fill="#FFEAA7" d="M16,20.791c-0.162-0.242-0.347-0.468-0.579-0.654L11.5,17l-3,2c0,0.552,0.448,1,1,1s1,0.448,1,1v0.394
				c0,0.395,0.117,0.781,0.336,1.109l1.174,1.762c0.28,0.42,0.828,0.565,1.279,0.34l2.658-1.329c0.02-0.01,0.034-0.026,0.053-0.036
				V20.791z"/>
			<path fill="#FFE28A" d="M20.5,17l-3.921,3.137c-0.232,0.186-0.417,0.413-0.579,0.654v2.449c0.019,0.011,0.033,0.027,0.053,0.036
				l2.658,1.329c0.451,0.226,1,0.08,1.279-0.34l1.174-1.762c0.219-0.329,0.336-0.715,0.336-1.109V21c0-0.552,0.448-1,1-1
				s1-0.448,1-1L20.5,17z"/>
		</g>
	</g>
</g>
<g id="labels">
</g>
</svg>
