<?xml version="1.0" encoding="utf-8"?>
<!-- Generator: Adobe Illustrator 23.0.6, SVG Export Plug-In . SVG Version: 6.00 Build 0)  -->
<svg version="1.1" xmlns="http://www.w3.org/2000/svg" xmlns:xlink="http://www.w3.org/1999/xlink" x="0px" y="0px" width="32px"
	 height="32px" viewBox="0 0 32 32" enable-background="new 0 0 32 32" xml:space="preserve">
<g id="icons">
	<g>
		<path fill="#F0C13E" d="M23,26l0.869,2.607c0.084,0.252,0.264,0.46,0.501,0.578l3.353,1.677C27.893,30.946,28,31.12,28,31.309
			V31.5c0,0.276-0.224,0.5-0.5,0.5h-8c-0.276,0-0.5-0.224-0.5-0.5v-1.264c0-0.155,0.036-0.308,0.106-0.447l0.789-1.578
			C19.964,28.072,20,27.919,20,27.764V26H23z"/>
		<polygon fill="#F0C13E" points="18,19 17,21 19.5,24 22.5,24 		"/>
		<path fill="#8D5B36" d="M22.812,26.414l-2.972-0.371c-0.205-0.026-0.373-0.175-0.423-0.375l-0.262-1.046
			C19.076,24.306,19.315,24,19.64,24h2.95c0.238,0,0.444,0.168,0.49,0.402l0.284,1.418C23.431,26.154,23.15,26.456,22.812,26.414z"
			/>
		<path fill="#F7C845" d="M9,26l-0.869,2.607c-0.084,0.252-0.264,0.46-0.501,0.578l-3.353,1.677C4.107,30.946,4,31.12,4,31.309V31.5
			C4,31.776,4.224,32,4.5,32h8c0.276,0,0.5-0.224,0.5-0.5v-1.264c0-0.155-0.036-0.308-0.106-0.447l-0.789-1.578
			C12.036,28.072,12,27.919,12,27.764V26H9z"/>
		<polygon fill="#F7C845" points="14,19 15,21 12.5,24 9.5,24 		"/>
		<path fill="#F7C845" d="M24,11l2,3l2.008-1.004L29,11.013V9.256c0-0.135,0.108-0.246,0.243-0.25h0.001
			c0.515-0.014,0.937,0.406,0.924,0.921l-0.052,2.189l-0.035,1.468l-0.011,0.464l-0.706-0.007l-3.097,1.971
			c-0.435,0.277-1.01,0.177-1.326-0.23L22,12L24,11z"/>
		<path fill="#FFD04D" d="M8,11l-2,3l-2.008-1.004L3,11.013V9.256c0-0.135-0.108-0.246-0.243-0.25H2.756
			C2.241,8.992,1.819,9.412,1.831,9.927l0.052,2.189l0.035,1.468l0.011,0.464l0.706-0.007l3.097,1.971
			c0.435,0.277,1.01,0.177,1.326-0.23L10,12L8,11z"/>
		<polygon fill="#845331" points="21,12 18,18 16,18 16,9 21,9 		"/>
		<polygon fill="#8D5B36" points="11,12 14,18 16,18 16,9 11,9 		"/>
		<path fill="#8D5B36" d="M20.417,7.637c-1.913,1.105-2.569,3.551-1.464,5.464c1.105,1.913,8.033-2.087,6.928-4
			C24.777,7.188,22.33,6.533,20.417,7.637z"/>
		<path fill="#909997" d="M3,6.5C3,5.119,2.605,4,1.5,4S0,5.119,0,6.5c0,1.241,0.324,2.263,1.191,2.459l-0.185,7.785
			C1.003,16.884,1.116,17,1.256,17h0.488c0.14,0,0.253-0.116,0.25-0.256L1.809,8.959C2.676,8.763,3,7.741,3,6.5z"/>
		<path fill="#96643B" d="M11.583,7.637c1.913,1.105,2.569,3.551,1.464,5.464s-8.033-2.087-6.928-4S9.67,6.533,11.583,7.637z"/>
		<path fill="#FFD96C" d="M16,3.354h-1.646L9.795,0.098C9.336-0.231,8.77,0.336,9.098,0.795l2.071,2.9
			c0.715,1.001,0.746,2.337,0.079,3.371L9.733,9.413c-0.186,0.288-0.034,0.673,0.299,0.756l2.024,0.506
			c0.826,0.207,1.526,0.754,1.924,1.507l1.136,2.147c0.188,0.355,0.536,0.532,0.884,0.532V3.354z"/>
		<path fill="#FFD04D" d="M22.205,0.098l-4.559,3.256H16v11.508c0.348,0,0.696-0.177,0.884-0.532l1.136-2.147
			c0.398-0.753,1.098-1.301,1.924-1.507l2.024-0.506c0.332-0.083,0.485-0.468,0.299-0.756l-1.515-2.347
			c-0.667-1.034-0.636-2.37,0.079-3.371l2.071-2.9C23.23,0.336,22.664-0.231,22.205,0.098z"/>
		<path fill="#F7C845" d="M16,18h2l0.42,0.42c0.337,0.337,0.389,0.865,0.125,1.262l-1.397,2.095C17.056,21.916,16.9,22,16.732,22H16
			V18z"/>
		<path fill="#FFD04D" d="M16,18h-2l-0.42,0.42c-0.337,0.337-0.389,0.865-0.125,1.262l1.397,2.095C14.944,21.916,15.1,22,15.268,22
			H16V18z"/>
		<path fill="#FFD96C" d="M17.5,11.5L17,12c0,0,3.329,2.715,4,6c0.659,3.23,1.472,5.426,3.876,6.924
			C24.956,24.974,25.05,25,25.144,25H25.5c0.276,0,0.5-0.224,0.5-0.5l0,0c0-0.276,0.224-0.5,0.5-0.5l0,0c0.276,0,0.5-0.224,0.5-0.5
			l0,0c0-0.276,0.224-0.5,0.5-0.5l0,0c0.276,0,0.5-0.224,0.5-0.5v-0.186c0-0.186-0.103-0.358-0.269-0.443
			c-0.857-0.44-3.565-2.037-5.231-5.37C20.5,12.5,17.5,11.5,17.5,11.5z"/>
		<path fill="#96643B" d="M9.188,26.414l2.972-0.371c0.205-0.026,0.373-0.175,0.423-0.375l0.262-1.046
			C12.924,24.306,12.685,24,12.36,24H9.41c-0.238,0-0.444,0.168-0.49,0.402L8.636,25.82C8.569,26.154,8.85,26.456,9.188,26.414z"/>
		<path fill="#F7F7F7" d="M17.209,8.979c0.281-0.045,0.81-0.186,1.387-0.625C18.762,8.228,19,8.342,19,8.55v0.17
			c0,0.651-0.611,1.128-1.243,0.97l-0.568-0.142C17.078,9.52,17,9.42,17,9.305v-0.08C17,9.102,17.088,8.998,17.209,8.979z"/>
		<path fill="#2B3332" d="M18.5,8.417c-0.381,0.271-0.731,0.417-1,0.493v0.715l0.257,0.064c0.267,0.067,0.527,0.015,0.743-0.111
			V8.417z"/>
		<path fill="#FFFFFF" d="M14.791,8.979c-0.281-0.045-0.81-0.186-1.387-0.625C13.238,8.228,13,8.342,13,8.55v0.17
			c0,0.651,0.611,1.128,1.243,0.97l0.568-0.142C14.922,9.52,15,9.42,15,9.305v-0.08C15,9.102,14.912,8.998,14.791,8.979z"/>
		<path fill="#373F3F" d="M13.5,8.417c0.381,0.271,0.731,0.417,1,0.493v0.715l-0.257,0.064c-0.267,0.067-0.527,0.015-0.743-0.111
			V8.417z"/>
		<path fill="#838C8A" d="M32,6.5C32,5.119,31.605,4,30.5,4S29,5.119,29,6.5c0,1.241,0.324,2.263,1.191,2.459l-0.185,7.785
			c-0.003,0.14,0.11,0.256,0.25,0.256h0.488c0.14,0,0.253-0.116,0.25-0.256l-0.185-7.785C31.676,8.763,32,7.741,32,6.5z"/>
		<path fill="#FFEAA7" d="M22.5,20.5L22.5,20.5c0.276,0,0.5-0.224,0.5-0.5l0,0c0-0.276,0.224-0.5,0.5-0.5l0,0
			c0.276,0,0.5-0.224,0.5-0.5v-0.202c1.479,1.797,3.103,2.747,3.731,3.071C27.897,21.955,28,22.127,28,22.314V22.5
			c0,0.276-0.224,0.5-0.5,0.5l0,0c-0.276,0-0.5,0.224-0.5,0.5l0,0c0,0.276-0.224,0.5-0.5,0.5l0,0c-0.276,0-0.5,0.224-0.5,0.5l0,0
			c0,0.276-0.224,0.5-0.5,0.5h-0.356c-0.094,0-0.188-0.026-0.267-0.076c-1.414-0.882-2.271-2.012-2.877-3.445V21
			C22,20.724,22.224,20.5,22.5,20.5z"/>
		<path fill="#FFE28A" d="M14.5,11.5L15,12c0,0-3.329,2.715-4,6c-0.659,3.23-1.472,5.426-3.876,6.924C7.044,24.974,6.95,25,6.856,25
			L6.5,25C6.224,25,6,24.776,6,24.5v0C6,24.224,5.776,24,5.5,24h0C5.224,24,5,23.776,5,23.5l0,0C5,23.224,4.776,23,4.5,23h0
			C4.224,23,4,22.776,4,22.5v-0.186c0-0.186,0.103-0.358,0.269-0.443c0.857-0.44,3.565-2.037,5.231-5.37
			C11.5,12.5,14.5,11.5,14.5,11.5z"/>
		<path fill="#FEF1C6" d="M9.5,20.5L9.5,20.5C9.224,20.5,9,20.276,9,20l0,0c0-0.276-0.224-0.5-0.5-0.5h0C8.224,19.5,8,19.276,8,19
			v-0.202c-1.479,1.797-3.103,2.747-3.731,3.071C4.103,21.955,4,22.127,4,22.314V22.5C4,22.776,4.224,23,4.5,23h0
			C4.776,23,5,23.224,5,23.5l0,0C5,23.776,5.224,24,5.5,24h0C5.776,24,6,24.224,6,24.5v0C6,24.776,6.224,25,6.5,25h0.356
			c0.094,0,0.188-0.026,0.267-0.076C8.537,24.043,9.394,22.912,10,21.48V21C10,20.724,9.776,20.5,9.5,20.5z"/>
		<path fill="#FFD96C" d="M3.505,15.062l-2.513,0.314C0.465,15.442,0,15.031,0,14.5v0c0-0.531,0.465-0.942,0.992-0.876l2.513,0.314
			C3.788,13.973,4,14.214,4,14.499v0.002C4,14.786,3.788,15.027,3.505,15.062z"/>
		<path fill="#FFD96C" d="M3.505,13.062l-2.513,0.314C0.465,13.442,0,13.031,0,12.5v0c0-0.531,0.465-0.942,0.992-0.876l2.513,0.314
			C3.788,11.973,4,12.214,4,12.499v0.002C4,12.786,3.788,13.027,3.505,13.062z"/>
		<path fill="#FFD04D" d="M28.495,15.062l2.513,0.314C31.535,15.442,32,15.031,32,14.5v0c0-0.531-0.465-0.942-0.992-0.876
			l-2.513,0.314C28.212,13.973,28,14.214,28,14.499v0.002C28,14.786,28.212,15.027,28.495,15.062z"/>
		<path fill="#FFD04D" d="M28.495,13.062l2.513,0.314C31.535,13.442,32,13.031,32,12.5v0c0-0.531-0.465-0.942-0.992-0.876
			l-2.513,0.314C28.212,11.973,28,12.214,28,12.499v0.002C28,12.786,28.212,13.027,28.495,13.062z"/>
	</g>
</g>
<g id="labels">
</g>
</svg>
