<?xml version="1.0" encoding="utf-8"?>
<!-- Generator: Adobe Illustrator 23.0.6, SVG Export Plug-In . SVG Version: 6.00 Build 0)  -->
<svg version="1.1" xmlns="http://www.w3.org/2000/svg" xmlns:xlink="http://www.w3.org/1999/xlink" x="0px" y="0px" width="32px"
	 height="32px" viewBox="0 0 32 32" enable-background="new 0 0 32 32" xml:space="preserve">
<g id="icons">
	<g>
		<polygon fill="#3A4274" points="21,17 16,17.002 16,21.002 17,21.002 22,19 		"/>
		<path fill="#48A353" d="M17,21.002l1.703,2.555c0.185,0.278,0.498,0.445,0.832,0.445H20v2.055c0,0.621,0.145,1.234,0.423,1.79
			L21,29l-0.894,1.789C20.036,30.928,20,31.081,20,31.236V31.5c0,0.276,0.224,0.5,0.5,0.5h6c0.276,0,0.5-0.224,0.5-0.5v0.035
			c0-0.334-0.167-0.647-0.445-0.832L24,29l0.723-3.615c0.173-0.866-0.098-1.76-0.722-2.385L24,23v-0.394
			c0-0.395-0.117-0.781-0.336-1.109L22,19L17,21.002z"/>
		<path fill="#48A353" d="M22,12v1.586c0,0.265-0.105,0.52-0.293,0.707L21,15h-5v-3H22z"/>
		<rect x="16" y="15.001" fill="#2B3332" width="5" height="2"/>
		<path fill="#FFCF6E" d="M16,14c1.105,0,2,0.895,2,2c0,1.105-0.895,2-2,2V14z"/>
		<polygon fill="#424B7E" points="11,17 16,17.002 16,21.002 15,21.002 10,19 		"/>
		<path fill="#4EAC5D" d="M15,21.002l-1.703,2.555c-0.185,0.278-0.498,0.445-0.832,0.445H12v2.055c0,0.621-0.145,1.234-0.423,1.79
			L11,29l0.894,1.789C11.964,30.928,12,31.081,12,31.236V31.5c0,0.276-0.224,0.5-0.5,0.5h-6C5.224,32,5,31.776,5,31.5v0.035
			c0-0.334,0.167-0.647,0.445-0.832L8,29l-0.723-3.615c-0.173-0.866,0.098-1.76,0.722-2.385L8,23v-0.394
			c0-0.395,0.117-0.781,0.336-1.109L10,19L15,21.002z"/>
		<path fill="#4EAC5D" d="M10,12v1.586c0,0.265,0.105,0.52,0.293,0.707L11,15h5v-3H10z"/>
		<rect x="11" y="15.001" fill="#373F3F" width="5" height="2"/>
		<path fill="#FFD98D" d="M16,14c-1.105,0-2,0.895-2,2c0,1.105,0.895,2,2,2V14z"/>
		<path fill="#54B668" d="M10.414,5c-0.265,0-0.52,0.105-0.707,0.293L9,6L8.086,5.695c-0.359-0.12-0.755-0.026-1.023,0.242
			L5.328,7.672C5.06,7.94,4.966,8.336,5.086,8.695c-0.359-0.12-0.755-0.026-1.023,0.242l-1.477,1.477
			C2.211,10.789,2,11.298,2,11.828v1.869c0,0.792,0.467,1.509,1.192,1.829L6.526,17l0.025,0.937
			c0.018,0.665,0.364,1.277,0.925,1.634l0.88,0.561c0.441,0.281,1.024,0.175,1.337-0.243l1.924-2.565
			c0.299-0.398,0.259-0.955-0.093-1.307l-0.801-0.801c-0.375-0.375-0.884-0.586-1.414-0.586H8.137L7,12h3v0.586
			c0,0.265,0.105,0.52,0.293,0.707l0.414,0.414C10.895,13.895,11.149,14,11.414,14h3.172c0.265,0,0.52-0.105,0.707-0.293
			l0.414-0.414C15.895,13.105,16,12.851,16,12.586V5H10.414z"/>
		<path fill="#4EAC5D" d="M21.586,5c0.265,0,0.52,0.105,0.707,0.293L23,6l0.914-0.305c0.359-0.12,0.755-0.026,1.023,0.242
			l1.735,1.735c0.268,0.268,0.361,0.664,0.242,1.023c0.359-0.12,0.755-0.026,1.023,0.242l1.477,1.477
			C29.789,10.789,30,11.298,30,11.828v1.869c0,0.792-0.467,1.509-1.192,1.829L25.474,17l-0.025,0.937
			c-0.018,0.665-0.364,1.277-0.925,1.634l-0.88,0.561c-0.441,0.281-1.024,0.175-1.337-0.243l-1.924-2.565
			c-0.299-0.398-0.259-0.955,0.093-1.307l0.801-0.801c0.375-0.375,0.884-0.586,1.414-0.586h1.172L25,12h-3v0.586
			c0,0.265-0.105,0.52-0.293,0.707l-0.414,0.414C21.105,13.895,20.851,14,20.586,14h-3.172c-0.265,0-0.52-0.105-0.707-0.293
			l-0.414-0.414C16.105,13.105,16,12.851,16,12.586V5H21.586z"/>
		<path fill="#60C46F" d="M16,1.251c0.378-0.002,0.757,0.051,1.114,0.194l1.644,0.658c1.309,0.524,2.077,1.888,1.845,3.279
			l-0.352,2.111c-0.158,0.947-0.759,1.761-1.618,2.19l-1.292,0.646C16.919,10.54,16.46,10.622,16,10.62V1.251z"/>
		<path fill="#6CD275" d="M16,1.251c-0.378-0.002-0.757,0.051-1.114,0.194l-1.644,0.658c-1.309,0.524-2.077,1.888-1.845,3.279
			l0.352,2.111c0.158,0.947,0.759,1.761,1.618,2.19l1.292,0.646C15.081,10.54,15.54,10.622,16,10.62V1.251z"/>
		<path fill="#F7F7F7" d="M14.41,3.277l-0.352-2.813C14.025,0.199,13.799,0,13.532,0L13.53,0C13.237,0,13,0.237,13,0.53v0.934
			c0,0.663,0.263,1.299,0.732,1.768l0.253,0.253C14.153,3.653,14.439,3.513,14.41,3.277z"/>
		<path fill="#EDEEEE" d="M17.59,3.277l0.352-2.813C17.975,0.199,18.201,0,18.468,0l0.002,0C18.763,0,19,0.237,19,0.53v0.934
			c0,0.663-0.263,1.299-0.732,1.768l-0.253,0.253C17.847,3.653,17.561,3.513,17.59,3.277z"/>
		<g>
			<g>
				<path fill="#373F3F" d="M14.978,6.717c-0.187-0.36-0.601-0.969-1.356-1.254c-0.06-0.023-0.129-0.014-0.18,0.024
					c-0.102,0.075-0.265,0.243-0.379,0.599c-0.118,0.366-0.045,0.647,0.019,0.796C13.112,6.954,13.183,7,13.262,7h1.541
					C14.948,7,15.045,6.846,14.978,6.717z"/>
				<path fill="#373F3F" d="M14.978,6.717c-0.174-0.334-0.545-0.878-1.199-1.183c-0.1,0.09-0.228,0.252-0.325,0.552
					c-0.118,0.366-0.045,0.647,0.019,0.796C13.504,6.954,13.575,7,13.654,7h1.149C14.948,7,15.045,6.846,14.978,6.717z"/>
				<path fill="#373F3F" d="M14.527,6.881c0.061-0.144,0.128-0.414,0.026-0.763c-0.14-0.154-0.304-0.307-0.509-0.437
					c-0.069,0.095-0.139,0.222-0.197,0.404c-0.118,0.366-0.045,0.647,0.019,0.796C13.896,6.954,13.967,7,14.046,7h0.3
					C14.425,7,14.496,6.954,14.527,6.881z"/>
			</g>
			<g>
				<path fill="#EDEEEE" d="M14.978,6.717c-0.187-0.36-0.601-0.969-1.356-1.254c-0.06-0.023-0.129-0.014-0.18,0.024
					c-0.102,0.075-0.265,0.243-0.379,0.599c-0.118,0.366-0.045,0.647,0.019,0.796C13.112,6.954,13.183,7,13.262,7h1.541
					C14.948,7,15.045,6.846,14.978,6.717z"/>
				<path fill="#E85160" d="M14.978,6.717c-0.174-0.334-0.545-0.878-1.199-1.183c-0.1,0.09-0.228,0.252-0.325,0.552
					c-0.118,0.366-0.045,0.647,0.019,0.796C13.504,6.954,13.575,7,13.654,7h1.149C14.948,7,15.045,6.846,14.978,6.717z"/>
				<path fill="#373F3F" d="M14.527,6.881c0.061-0.144,0.128-0.414,0.026-0.763c-0.14-0.154-0.304-0.307-0.509-0.437
					c-0.069,0.095-0.139,0.222-0.197,0.404c-0.118,0.366-0.045,0.647,0.019,0.796C13.896,6.954,13.967,7,14.046,7h0.3
					C14.425,7,14.496,6.954,14.527,6.881z"/>
			</g>
		</g>
		<g>
			<g>
				<path fill="#2B3332" d="M17.022,6.717c0.187-0.36,0.601-0.969,1.356-1.254c0.06-0.023,0.129-0.014,0.18,0.024
					c0.102,0.075,0.265,0.243,0.379,0.599c0.118,0.366,0.045,0.647-0.019,0.796C18.888,6.954,18.817,7,18.738,7h-1.541
					C17.052,7,16.955,6.846,17.022,6.717z"/>
				<path fill="#2B3332" d="M18.527,6.881c0.063-0.149,0.136-0.43,0.019-0.796c-0.096-0.3-0.225-0.462-0.325-0.552
					c-0.654,0.305-1.025,0.85-1.199,1.183C16.955,6.846,17.052,7,17.197,7h1.149C18.425,7,18.496,6.954,18.527,6.881z"/>
				<path fill="#2B3332" d="M18.135,6.881c0.063-0.149,0.136-0.43,0.019-0.796c-0.059-0.182-0.129-0.309-0.197-0.404
					c-0.205,0.13-0.368,0.283-0.509,0.437c-0.102,0.349-0.036,0.619,0.026,0.763C17.504,6.954,17.575,7,17.654,7h0.3
					C18.033,7,18.104,6.954,18.135,6.881z"/>
			</g>
			<g>
				<path fill="#F7F7F7" d="M17.022,6.717c0.187-0.36,0.601-0.969,1.356-1.254c0.06-0.023,0.129-0.014,0.18,0.024
					c0.102,0.075,0.265,0.243,0.379,0.599c0.118,0.366,0.045,0.647-0.019,0.796C18.888,6.954,18.817,7,18.738,7h-1.541
					C17.052,7,16.955,6.846,17.022,6.717z"/>
				<path fill="#D84459" d="M18.527,6.881c0.063-0.149,0.136-0.43,0.019-0.796c-0.096-0.3-0.225-0.462-0.325-0.552
					c-0.654,0.305-1.025,0.85-1.199,1.183C16.955,6.846,17.052,7,17.197,7h1.149C18.425,7,18.496,6.954,18.527,6.881z"/>
				<path fill="#2B3332" d="M18.135,6.881c0.063-0.149,0.136-0.43,0.019-0.796c-0.059-0.182-0.129-0.309-0.197-0.404
					c-0.205,0.13-0.368,0.283-0.509,0.437c-0.102,0.349-0.036,0.619,0.026,0.763C17.504,6.954,17.575,7,17.654,7h0.3
					C18.033,7,18.104,6.954,18.135,6.881z"/>
			</g>
		</g>
		<path fill="#60C46F" d="M11.957,8.191c0.277,0.64,0.771,1.173,1.409,1.492l1.292,0.646C15.081,10.54,15.54,10.622,16,10.62V8.723
			c-0.92,0-1.839-0.091-2.746-0.272L11.957,8.191z"/>
		<path fill="#54B668" d="M18.746,8.451C17.839,8.632,16.92,8.723,16,8.723v1.897c0.46,0.002,0.919-0.08,1.342-0.291l1.292-0.646
			c0.638-0.319,1.132-0.851,1.409-1.492L18.746,8.451z"/>
		<path fill="#F6B392" d="M13.254,8.451l-0.008-0.002c0,0,1.621,1.051,2.754,1.051V8.723C15.08,8.723,14.161,8.632,13.254,8.451z"/>
		<path fill="#F4A984" d="M18.754,8.449l-0.008,0.002C17.839,8.632,16.92,8.723,16,8.723V9.5C17.133,9.5,18.754,8.449,18.754,8.449z
			"/>
		<path fill="#237899" d="M24.5,15.8c-0.058,0-0.115-0.016-0.166-0.05c-0.139-0.093-0.176-0.278-0.084-0.416l2-3
			c0.095-0.139,0.28-0.175,0.416-0.084c0.139,0.093,0.176,0.278,0.084,0.416l-2,3C24.691,15.753,24.597,15.8,24.5,15.8z"/>
		<path fill="#237899" d="M25,16.3c-0.097,0-0.191-0.047-0.25-0.134c-0.092-0.138-0.055-0.323,0.084-0.416l3-2
			c0.137-0.092,0.323-0.055,0.416,0.084c0.092,0.138,0.055,0.323-0.084,0.416l-3,2C25.115,16.284,25.058,16.3,25,16.3z"/>
		<path fill="#2B7E9F" d="M7.5,15.75c-0.08,0-0.16-0.039-0.208-0.111l-2-3c-0.076-0.115-0.046-0.271,0.069-0.347
			c0.114-0.076,0.27-0.046,0.347,0.069l2,3c0.076,0.115,0.046,0.271-0.069,0.347C7.596,15.736,7.548,15.75,7.5,15.75z"/>
		<path fill="#2B7E9F" d="M7,16.25c-0.048,0-0.096-0.014-0.139-0.042l-3-2c-0.115-0.076-0.146-0.231-0.069-0.347
			s0.231-0.145,0.347-0.069l3,2c0.115,0.076,0.146,0.231,0.069,0.347C7.16,16.211,7.08,16.25,7,16.25z"/>
		<path fill="#F7F7F7" d="M16,0.006c-0.033,0-0.065-0.004-0.098-0.001C15.382,0.054,15,0.521,15,1.043V1.41
			c0,0.388,0.09,0.771,0.264,1.118l0.512,1.025C15.822,3.645,15.911,3.691,16,3.691V0.006z"/>
		<path fill="#EDEEEE" d="M16,0.006v3.685c0.089,0,0.178-0.046,0.224-0.138l0.512-1.025C16.91,2.181,17,1.798,17,1.41V1
			C17,0.448,16.552,0.007,16,0.006z"/>
	</g>
</g>
<g id="labels">
</g>
</svg>
