<?xml version="1.0" encoding="utf-8"?>
<!-- Generator: Adobe Illustrator 23.0.6, SVG Export Plug-In . SVG Version: 6.00 Build 0)  -->
<svg version="1.1" xmlns="http://www.w3.org/2000/svg" xmlns:xlink="http://www.w3.org/1999/xlink" x="0px" y="0px" width="32px"
	 height="32px" viewBox="0 0 32 32" enable-background="new 0 0 32 32" xml:space="preserve">
<g id="icons">
	<g>
		<path fill="#845331" d="M18.071,29.071C16.261,30.881,13.761,32,11,32H9.652c-1.087,0-2.159-0.253-3.13-0.739l-0.051-0.025
			c-0.297-0.148-0.646-0.148-0.942,0l-1.082,0.541C4.153,31.923,3.829,32,3.5,32h0C3.224,32,3,31.776,3,31.5l0,0
			C3,31.224,3.224,31,3.5,31h0.001c0.32,0,0.626-0.127,0.852-0.353l0.901-0.901C5.7,29.3,6.38,29.19,6.943,29.472h0
			c0.69,0.345,1.464,0.483,2.231,0.398l0.709-0.079c2.348-0.261,4.364-1.52,5.645-3.327L18.071,29.071z"/>
		<path fill="#8D5B36" d="M13,16v6c0,5.523,4.477,10,10,10h1.348c1.087,0,2.159-0.253,3.13-0.739l0.051-0.025
			c0.297-0.148,0.646-0.148,0.942,0l1.082,0.541C29.847,31.923,30.171,32,30.5,32l0,0c0.276,0,0.5-0.224,0.5-0.5l0,0
			c0-0.276-0.224-0.5-0.5-0.5h-0.001c-0.32,0-0.626-0.127-0.852-0.353l-0.901-0.901C28.3,29.3,27.62,29.19,27.057,29.472h0
			c-0.69,0.345-1.464,0.483-2.231,0.398l-0.709-0.079C20.065,29.341,17,25.916,17,21.84V16H13z"/>
		<path fill="#54B668" d="M28.771,17.675c-0.664,1.801-2.806,6.625-6.876,7.256c-2.307,0.358-4.592-1.125-4.866-3.444
			C16.742,19.061,18.63,17,21,17h7.302C28.652,17,28.892,17.348,28.771,17.675z"/>
		<path fill="#FFE28A" d="M15,13V0.003c-0.239,0-0.481,0.011-0.726,0.04C11.653,0.35,9.481,2.431,9.075,5.038
			c-0.322,2.073,0.42,3.983,1.762,5.275C11.57,11.02,12,11.981,12,12.999V13H15z"/>
		<path fill="#FFD96C" d="M15,0.003V13h3v-0.001c0-0.987,0.379-1.95,1.1-2.625C20.268,9.281,21,7.727,21,6
			C21,2.686,18.313,0.003,15,0.003z"/>
		<circle fill="#373F3F" cx="13" cy="7" r="1"/>
		<circle fill="#2B3332" cx="17" cy="7" r="1"/>
		<path fill="#373F3F" d="M15,13c-1.657,0-3,0.895-3,2c0,1.105,1.343,2,3,2V13z"/>
		<path fill="#2B3332" d="M18,15c0-1.105-1.343-2-3-2v4C16.657,17,18,16.105,18,15z"/>
		<path fill="#F8A1C4" d="M15,16c-1.221,0-2-0.592-2-1s0.779-1,2-1v-2c-2.243,0-4,1.317-4,3s1.757,3,4,3V16z"/>
		<path fill="#845331" d="M28.675,30.265l0.972,0.382l-0.901-0.901C28.3,29.3,27.62,29.19,27.057,29.472l0,0
			c-0.69,0.345-1.464,0.483-2.231,0.398l-0.709-0.079C20.065,29.341,17,25.916,17,21.84V16h-2v6c0,4.971,4.029,9,9,9h0
			c0.662,0,1.32-0.107,1.948-0.316l1.363-0.454C27.756,30.081,28.239,30.094,28.675,30.265z"/>
		<path fill="#F297BE" d="M17,15c0,0.408-0.779,1-2,1v2c2.243,0,4-1.317,4-3s-1.757-3-4-3v2C16.221,14,17,14.592,17,15z"/>
		<path fill="#60C46F" d="M17,21c0,0.179,0.03,0.351,0.053,0.524c0.24,0.008,6.955,0.185,11.674-4.274
			C28.641,17.105,28.491,17,28.302,17c-1.6,0-5.56,0-7.302,0C18.791,17,17,18.791,17,21z"/>
		<path fill="#6CD275" d="M1.229,25.325c0.664-1.801,2.806-6.625,6.876-7.256c2.307-0.358,4.592,1.125,4.866,3.444
			C13.258,23.939,11.37,26,9,26H1.698C1.348,26,1.108,25.652,1.229,25.325z"/>
		<path fill="#60C46F" d="M13,22c0-0.179-0.03-0.351-0.053-0.524c-0.24-0.008-6.955-0.185-11.674,4.274
			C1.359,25.895,1.509,26,1.698,26c1.6,0,5.56,0,7.302,0C11.209,26,13,24.209,13,22z"/>
		<path fill="#FFE28A" d="M20.805,4.506C20.14,1.917,17.797,0.003,15,0.003V2C17.288,2,19.347,2.966,20.805,4.506z"/>
		<path fill="#FFEAA7" d="M15,2V0.003c-0.239,0-0.481,0.011-0.726,0.04c-2.432,0.285-4.459,2.105-5.065,4.448
			C10.666,2.959,12.719,2,15,2z"/>
	</g>
</g>
<g id="labels">
</g>
</svg>
