<?xml version="1.0" encoding="utf-8"?>
<!-- Generator: Adobe Illustrator 23.0.6, SVG Export Plug-In . SVG Version: 6.00 Build 0)  -->
<svg version="1.1" xmlns="http://www.w3.org/2000/svg" xmlns:xlink="http://www.w3.org/1999/xlink" x="0px" y="0px" width="32px"
	 height="32px" viewBox="0 0 32 32" enable-background="new 0 0 32 32" xml:space="preserve">
<g id="icons">
	<g>
		<path fill="#60C46F" d="M31.771,21.325c-0.664-1.801-2.806-6.625-6.876-7.256c-2.307-0.358-4.592,1.125-4.866,3.444
			C19.742,19.939,21.63,22,24,22h7.302C31.652,22,31.892,21.652,31.771,21.325z"/>
		<path fill="#54B668" d="M31.726,21.751c-4.719-4.46-11.434-4.282-11.674-4.274C20.03,17.649,20,17.821,20,18c0,2.209,1.791,4,4,4
			c1.742,0,5.702,0,7.302,0C31.491,22,31.641,21.895,31.726,21.751z"/>
		<path fill="#6CD275" d="M0.229,21.325c0.664-1.801,2.806-6.625,6.876-7.256c2.307-0.358,4.592,1.125,4.866,3.444
			C12.258,19.939,10.37,22,8,22H0.698C0.348,22,0.108,21.652,0.229,21.325z"/>
		<path fill="#60C46F" d="M12,18c0-0.179-0.03-0.351-0.053-0.524c-0.24-0.008-6.955-0.185-11.674,4.274
			C0.359,21.895,0.509,22,0.698,22c1.6,0,5.56,0,7.302,0C10.209,22,12,20.209,12,18z"/>
		<path fill="#845331" d="M15,4l0.437-3.499c0.083-0.662,1.043-0.662,1.125,0L17,4H15z"/>
		<path fill="#8D5B36" d="M16,0.005c-0.261,0-0.521,0.166-0.563,0.497L15,4h1V0.005z"/>
		<path fill="#FFEAA7" d="M16,3h-1c-0.552,0-1,0.448-1,1v2h2V3z"/>
		<path fill="#FFE28A" d="M17,3h-1v3h2V4C18,3.448,17.552,3,17,3z"/>
		<path fill="#FFE28A" d="M16,4c-3.314,0-6,2.686-6,6v4.157c0,1.893-0.134,3.783-0.402,5.657L9,24h7V4z"/>
		<path fill="#FFD96C" d="M23,24l-0.598-4.186C22.134,17.94,22,16.05,22,14.157V10c0-3.314-2.686-6-6-6v20H23z"/>
		<path fill="#373F3F" d="M16,21c-3.866,0-7,2.239-7,5s3.134,5,7,5V21z"/>
		<path fill="#2B3332" d="M23,26c0-2.761-3.134-5-7-5v10C19.866,31,23,28.761,23,26z"/>
		<path fill="#9A3644" d="M16.019,21.019c-3.134,0-5.786,1.472-6.679,3.5c0.892,2.028,3.544,3.5,6.679,3.5V21.019z"/>
		<path fill="#8A323F" d="M22.697,24.519c-0.892-2.028-3.544-3.5-6.679-3.5v7C19.153,28.019,21.805,26.547,22.697,24.519z"/>
		<circle fill="#FFFFFF" cx="13" cy="15" r="2"/>
		<circle fill="#373F3F" cx="13" cy="15" r="1"/>
		<circle fill="#F7F7F7" cx="19" cy="15" r="2"/>
		<circle fill="#2B3332" cx="19" cy="15" r="1"/>
		<path fill="#F8A1C4" d="M16,30c-3.252,0-6-1.832-6-4s2.748-4,6-4v-2c-4.411,0-8,2.691-8,6s3.589,6,8,6V30z"/>
		<path fill="#F297BE" d="M22,26c0,2.168-2.748,4-6,4v2c4.411,0,8-2.691,8-6s-3.589-6-8-6v2C19.252,22,22,23.832,22,26z"/>
	</g>
</g>
<g id="labels">
</g>
</svg>
