<?xml version="1.0" encoding="utf-8"?>
<!-- Generator: Adobe Illustrator 23.0.6, SVG Export Plug-In . SVG Version: 6.00 Build 0)  -->
<svg version="1.1" xmlns="http://www.w3.org/2000/svg" xmlns:xlink="http://www.w3.org/1999/xlink" x="0px" y="0px" width="32px"
	 height="32px" viewBox="0 0 32 32" enable-background="new 0 0 32 32" xml:space="preserve">
<g id="icons">
	<g>
		<path fill="#E3E5E5" d="M12,15c0,0-1.417,5-3,7s-5,4.167-5,7c0,1,0.5,3,1.5,3S7,31,7,29s1.285-3.904,3-7s3-7,3-7H12z"/>
		<path fill="#DADDDC" d="M20,15c0,0,1.417,5,3,7s5,4.167,5,7c0,1-0.5,3-1.5,3S25,31,25,29s-1.285-3.904-3-7s-3-7-3-7H20z"/>
		<path fill="#B0D3EA" d="M16,13h-5l-2.493,1.662c-0.263,0.175-0.299,0.546-0.076,0.77L8.49,15.49
			c0.304,0.304,0.769,0.38,1.154,0.187l0.724-0.362c0.377-0.189,0.833-0.115,1.131,0.184l0.001,0.001
			c0.298,0.298,0.754,0.372,1.131,0.184l0.736-0.368c0.377-0.189,0.833-0.115,1.132,0.183l0.086,0.086
			c0.391,0.391,0.902,0.586,1.414,0.586V13z"/>
		<path fill="#9FC9E4" d="M17.414,15.586l0.086-0.086c0.298-0.298,0.754-0.372,1.131-0.184l0.737,0.368
			c0.377,0.189,0.833,0.115,1.131-0.184l0.001-0.001c0.298-0.298,0.754-0.372,1.131-0.184l0.724,0.362
			c0.385,0.192,0.85,0.117,1.154-0.187l0.059-0.059c0.223-0.223,0.186-0.595-0.076-0.77L21,13h-5v3.172
			C16.512,16.172,17.024,15.976,17.414,15.586z"/>
		<path fill="#C1DDEE" d="M16,0c-12,0-5,13-5,13h3l1.4,1.05c0.178,0.133,0.389,0.2,0.6,0.2V0z"/>
		<path fill="#B0D3EA" d="M16.6,14.05L18,13h3c0,0,7-13-5-13v14.25C16.211,14.25,16.422,14.183,16.6,14.05z"/>
		<path fill="#FFFFFF" d="M11,13c0,0,0.5,1.5,1.5,1.5S14,13,14,13H11z"/>
		<path fill="#F7F7F7" d="M18.015,13c0,0,0.5,1.5,1.5,1.5s1.5-1.5,1.5-1.5H18.015z"/>
		<path fill="#373F3F" d="M12.5,14c0.276,0,0.5-0.724,0.5-1h-1C12,13.276,12.224,14,12.5,14z"/>
		<path fill="#2B3332" d="M19.5,14c0.276,0,0.5-0.724,0.5-1h-1C19,13.276,19.224,14,19.5,14z"/>
		<path fill="#B0D3EA" d="M16,5c-1.208,0-2.5,0.788-2.5,3s1.292,3,2.5,3V5z"/>
		<path fill="#B0D3EA" d="M8.998,6.465l0.393-0.182c4.243-1.97,4.101-5.669,4.093-5.825l-0.011-0.211
			C9.666,1.049,8.799,3.749,8.998,6.465z"/>
		<path fill="#9FC9E4" d="M18.5,8c0-2.212-1.292-3-2.5-3v6C17.208,11,18.5,10.212,18.5,8z"/>
		<path fill="#E85160" d="M12.485,0.508c0,0,0.164,3.158-3.515,4.867l0,0C8.97,5.375,7.845,0.559,12.485,0.508"/>
		<path fill="#9FC9E4" d="M18.529,0.247l-0.011,0.21c-0.008,0.156-0.15,3.855,4.092,5.825l0.392,0.182
			C23.201,3.749,22.334,1.05,18.529,0.247z"/>
		<path fill="#D84459" d="M19.516,0.508c0,0-0.164,3.158,3.515,4.867l0,0C23.031,5.375,24.156,0.559,19.516,0.508"/>
		<path fill="#E85160" d="M16,6c-1.105,0-1.5,0.895-1.5,2c0,1.105,0.395,2,1.5,2V6z"/>
		<path fill="#D84459" d="M17.5,8c0-1.105-0.395-2-1.5-2v4C17.105,10,17.5,9.105,17.5,8z"/>
	</g>
</g>
<g id="labels">
</g>
</svg>
