<?xml version="1.0" encoding="utf-8"?>
<!-- Generator: Adobe Illustrator 23.0.6, SVG Export Plug-In . SVG Version: 6.00 Build 0)  -->
<svg version="1.1" xmlns="http://www.w3.org/2000/svg" xmlns:xlink="http://www.w3.org/1999/xlink" x="0px" y="0px" width="32px"
	 height="32px" viewBox="0 0 32 32" enable-background="new 0 0 32 32" xml:space="preserve">
<g id="icons">
	<g>
		<path fill="#F0C13E" d="M28.164,12.398L26,17c0,0-2-1-4,0v2h4c2,0,3-3,3-3h2l0.414-0.414L28.164,12.398z"/>
		<path fill="#F7C845" d="M6,17l-2.164-4.602l-3.25,3.188L1,16h2c0,0,1,3,3,3h4v-2C10,17,8,16,6,17z"/>
		<path fill="#FFD04D" d="M16,9c-0.466,0-0.893,0.16-1.233,0.427c-0.428,0.337-0.947,0.476-1.486,0.398
			C12.854,9.763,12.403,9.839,12,10.072s-0.694,0.585-0.854,0.986c-0.202,0.506-0.582,0.886-1.088,1.088
			C9.657,12.306,9.305,12.597,9.072,13c-0.349,0.605-0.345,1.315-0.053,1.896c0.138,0.274,0.147,0.59,0.092,0.892
			c-0.236,1.303-0.125,2.725,0.624,4.232c1.049,2.112,3.086,3.659,5.429,3.931c0.282,0.033,0.561,0.046,0.837,0.046V9z"/>
		<path fill="#F7C845" d="M23,17c0-0.611-0.086-1.201-0.234-1.766c0.49-0.624,0.582-1.505,0.162-2.234
			c-0.233-0.403-0.585-0.694-0.986-0.854c-0.506-0.202-0.886-0.582-1.088-1.088c-0.16-0.401-0.451-0.753-0.854-0.986
			s-0.854-0.308-1.281-0.246c-0.539,0.078-1.059-0.061-1.486-0.398C16.893,9.16,16.466,9,16,9v14.997C19.866,23.997,23,20.866,23,17
			z"/>
		<path fill="#FFD96C" d="M15,19v-1.465c0-0.334-0.167-0.647-0.445-0.832l-1.612-1.075c-0.5-0.334-1.18-0.153-1.449,0.385
			l-0.046,0.092C11.2,16.6,11.4,17.2,11.894,17.447L15,19z"/>
		<path fill="#FFD04D" d="M17,19v-1.465c0-0.334,0.167-0.647,0.445-0.832l1.612-1.075c0.5-0.334,1.18-0.153,1.449,0.385l0.046,0.092
			C20.8,16.6,20.6,17.2,20.106,17.447L17,19z"/>
		<path fill="#FFFFFF" d="M12,17.5v2c0,0.276,0.224,0.5,0.5,0.5h2c0.276,0,0.5-0.224,0.5-0.5V19L12,17.5z"/>
		<path fill="#F7F7F7" d="M20,17.5v2c0,0.276-0.224,0.5-0.5,0.5h-2c-0.276,0-0.5-0.224-0.5-0.5V19L20,17.5z"/>
		<path fill="#F7C845" d="M31.707,13.879l-2.586-2.586c-0.391-0.391-1.024-0.391-1.414,0l-0.793,0.793c-0.276,0.276-0.276,0.724,0,1
			c0.276,0.276,0.724,0.276,1,0c-0.276,0.276-0.276,0.724,0,1c0.276,0.276,0.724,0.276,1,0c-0.276,0.276-0.276,0.724,0,1
			c0.276,0.276,0.724,0.276,1,0c-0.276,0.276-0.276,0.724,0,1c0.276,0.276,0.724,0.276,1,0l0.793-0.793
			C32.098,14.902,32.098,14.269,31.707,13.879z"/>
		<path fill="#F7C845" d="M16,21c-1.555,0-2.63,0.32-3.271,0.597c-0.531,0.23-1.135,0.199-1.654-0.06l-0.545-0.272
			c1.133,1.455,2.783,2.472,4.633,2.686c0.282,0.033,0.561,0.046,0.837,0.046V21z"/>
		<path fill="#FFD04D" d="M5.086,12.086l-0.793-0.793c-0.391-0.391-1.024-0.391-1.414,0l-2.586,2.586
			c-0.391,0.391-0.391,1.024,0,1.414l0.793,0.793c0.276,0.276,0.724,0.276,1,0c0.276-0.276,0.276-0.724,0-1
			c0.276,0.276,0.724,0.276,1,0c0.276-0.276,0.276-0.724,0-1c0.276,0.276,0.724,0.276,1,0c0.276-0.276,0.276-0.724,0-1
			c0.276,0.276,0.724,0.276,1,0C5.362,12.81,5.362,12.362,5.086,12.086z"/>
		<path fill="#F0C13E" d="M21.583,21.208l-0.659,0.329c-0.518,0.259-1.122,0.29-1.654,0.06C18.63,21.32,17.555,21,16,21v2.997
			C18.283,23.997,20.305,22.9,21.583,21.208z"/>
		<path fill="#FFD96C" d="M4.379,11.793l-0.586,0.586c-0.391,0.391-0.391,1.024,0,1.414l0.086,0.086
			c0.391,0.391,1.024,0.391,1.414,0l0.586-0.586c0.391-0.391,0.391-1.024,0-1.414l-0.086-0.086
			C5.402,11.402,4.769,11.402,4.379,11.793z"/>
		<polygon fill="#845331" points="14,20 13,20 13,18 14,18.5 		"/>
		<polygon fill="#724D31" points="18,20 19,20 19,18 18,18.5 		"/>
		<path fill="#FFD04D" d="M27.621,11.793l0.586,0.586c0.391,0.391,0.391,1.024,0,1.414l-0.086,0.086
			c-0.391,0.391-1.024,0.391-1.414,0l-0.586-0.586c-0.391-0.391-0.391-1.024,0-1.414l0.086-0.086
			C26.598,11.402,27.231,11.402,27.621,11.793z"/>
	</g>
</g>
<g id="labels">
</g>
</svg>
