<?xml version="1.0" encoding="utf-8"?>
<!-- Generator: Adobe Illustrator 23.0.6, SVG Export Plug-In . SVG Version: 6.00 Build 0)  -->
<svg version="1.1" xmlns="http://www.w3.org/2000/svg" xmlns:xlink="http://www.w3.org/1999/xlink" x="0px" y="0px" width="32px"
	 height="32px" viewBox="0 0 32 32" enable-background="new 0 0 32 32" xml:space="preserve">
<g id="icons">
	<g>
		<path fill="#687271" d="M24.854,10.854l-3.707-3.707C21.053,7.053,20.926,7,20.793,7H20l-0.854-0.854
			C19.053,6.053,18.926,6,18.793,6H16v20h3l1-1h1l3.854-3.854C24.947,21.053,25,20.926,25,20.793V20l0.854-0.854
			C25.947,19.053,26,18.926,26,18.793V13l-1-1v-0.793C25,11.074,24.947,10.947,24.854,10.854z"/>
		<path fill="#757F7E" d="M16,6h-2.793c-0.133,0-0.26,0.053-0.354,0.146L12,7h-0.793c-0.133,0-0.26,0.053-0.354,0.146l-3.707,3.707
			C7.053,10.947,7,11.074,7,11.207V12l-1,1v5.793c0,0.133,0.053,0.26,0.146,0.354L7,20v0.793c0,0.133,0.053,0.26,0.146,0.354L11,25
			h1l1,1h3V6z"/>
		<path fill="#687271" d="M10,24v2.586c0,0.265-0.105,0.52-0.293,0.707l-0.414,0.414C9.105,27.895,9,28.149,9,28.414V28.5
			C9,28.776,9.224,29,9.5,29h5c0.276,0,0.5-0.224,0.5-0.5v-0.086c0-0.265-0.105-0.52-0.293-0.707l-0.414-0.414
			C14.105,27.105,14,26.851,14,26.586V24H10z"/>
		<path fill="#5C6664" d="M18,24v2.586c0,0.265-0.105,0.52-0.293,0.707l-0.414,0.414C17.105,27.895,17,28.149,17,28.414V28.5
			c0,0.276,0.224,0.5,0.5,0.5h5c0.276,0,0.5-0.224,0.5-0.5v-0.086c0-0.265-0.105-0.52-0.293-0.707l-0.414-0.414
			C22.105,27.105,22,26.851,22,26.586V24H18z"/>
		<g>
			<path fill="#F7F7F7" d="M18,16.5l3-1.25v1.25c0,0.276-0.224,0.5-0.5,0.5H18V16.5z"/>
			<path fill="#2B3332" d="M19,16.083V16.5c0,0.138,0.112,0.25,0.25,0.25l0,0c0.138,0,0.25-0.112,0.25-0.25v-0.625L19,16.083z"/>
			<path fill="#FFFFFF" d="M14,16.5l-3-1.25v1.25c0,0.276,0.224,0.5,0.5,0.5H14V16.5z"/>
			<path fill="#373F3F" d="M13,16.083V16.5c0,0.138-0.112,0.25-0.25,0.25l0,0c-0.138,0-0.25-0.112-0.25-0.25v-0.625L13,16.083z"/>
		</g>
		<path fill="#838C8A" d="M7.146,21.146l4.268,4.268C11.789,25.789,12.298,26,12.828,26H14.5c0.276,0,0.5-0.224,0.5-0.5v-2.05
			c0-0.276-0.224-0.5-0.5-0.5h-0.75c-0.138,0-0.25-0.112-0.25-0.25v-0.07c0-0.108,0.069-0.203,0.171-0.237l0.987-0.329
			C14.862,21.996,15,21.805,15,21.589v-0.154c0-0.271-0.215-0.492-0.486-0.5l-1.53-0.038c-2.067-0.059-4.065-0.757-5.719-1.998
			L6,17.95v0.843c0,0.133,0.053,0.26,0.146,0.354L7,20v0.793C7,20.926,7.053,21.053,7.146,21.146z"/>
		<path fill="#757F7E" d="M24.854,21.146l-4.268,4.268C20.211,25.789,19.702,26,19.172,26H17.5c-0.276,0-0.5-0.224-0.5-0.5v-2.05
			c0-0.276,0.224-0.5,0.5-0.5h0.75c0.138,0,0.25-0.112,0.25-0.25v-0.07c0-0.108-0.069-0.203-0.171-0.237l-0.987-0.329
			C17.138,21.996,17,21.805,17,21.589v-0.154c0-0.271,0.215-0.492,0.486-0.5l1.53-0.038c2.067-0.059,4.065-0.757,5.719-1.998
			L26,17.95v0.843c0,0.133-0.053,0.26-0.146,0.354L25,20v0.793C25,20.926,24.947,21.053,24.854,21.146z"/>
		<path fill="#687271" d="M6,13l-4.828,4.828C0.421,18.579,0,19.596,0,20.657V23.5C0,23.776,0.224,24,0.5,24H2
			c0.276,0,0.5-0.224,0.5-0.5v-1.22C2.5,22.125,2.625,22,2.78,22h0.001c0.128,0,0.24,0.087,0.272,0.212l0.352,1.409
			C3.461,23.844,3.661,24,3.89,24H4.5C4.776,24,5,23.776,5,23.5v-4.55L6,18V13z"/>
		<path fill="#5C6664" d="M26,13l4.828,4.828c0.75,0.75,1.172,1.768,1.172,2.828V23.5c0,0.276-0.224,0.5-0.5,0.5H30
			c-0.276,0-0.5-0.224-0.5-0.5v-1.22c0-0.155-0.125-0.28-0.28-0.28h-0.001c-0.128,0-0.24,0.087-0.272,0.212l-0.352,1.409
			C28.539,23.844,28.339,24,28.11,24H27.5c-0.276,0-0.5-0.224-0.5-0.5v-4.55L26,18V13z"/>
		<path fill="#F6B392" d="M16,18.5c-1.01,0-2.019,0.127-2.771,0.254c-0.277,0.047-0.277,0.446,0,0.493
			C13.981,19.373,14.99,19.5,16,19.5V18.5z"/>
		<path fill="#F4A984" d="M18.771,18.754C18.019,18.627,17.01,18.5,16,18.5v1c1.01,0,2.019-0.127,2.771-0.254
			C19.049,19.2,19.049,18.8,18.771,18.754z"/>
		<path fill="#838C8A" d="M16,17.333v-6.532l-0.231-1.309c-0.048-0.272-0.307-0.454-0.579-0.406L14.205,9.26
			C13.933,9.308,13.752,9.568,13.8,9.84l0.231,1.309l-0.664-1.151c-0.138-0.239-0.444-0.321-0.683-0.183l-0.866,0.5
			c-0.239,0.138-0.321,0.444-0.183,0.683l0.664,1.151l-1.018-0.854c-0.212-0.177-0.527-0.15-0.704,0.062l-0.752,0.896
			c-0.129,0.153-0.153,0.368-0.063,0.547L11,15.25l3.002,1.251L14,17L16,17.333z"/>
		<path fill="#757F7E" d="M16,17.333L18,17l0-0.5l3-1.25l1.239-2.451c0.09-0.179,0.065-0.394-0.063-0.547l-0.752-0.896
			c-0.177-0.212-0.493-0.239-0.704-0.062l-1.018,0.854l0.664-1.151c0.138-0.239,0.056-0.545-0.183-0.683l-0.866-0.5
			c-0.239-0.138-0.545-0.056-0.683,0.183l-0.664,1.151L18.2,9.84c0.048-0.272-0.134-0.531-0.406-0.579L16.81,9.087
			c-0.272-0.048-0.531,0.134-0.579,0.406L16,10.801V17.333z"/>
	</g>
</g>
<g id="labels">
</g>
</svg>
