<?xml version="1.0" encoding="utf-8"?>
<!-- Generator: Adobe Illustrator 23.0.6, SVG Export Plug-In . SVG Version: 6.00 Build 0)  -->
<svg version="1.1" xmlns="http://www.w3.org/2000/svg" xmlns:xlink="http://www.w3.org/1999/xlink" x="0px" y="0px" width="32px"
	 height="32px" viewBox="0 0 32 32" enable-background="new 0 0 32 32" xml:space="preserve">
<g id="icons">
	<g>
		<polygon fill="#C09265" points="14,16 11,10 16,6 16,16 		"/>
		<polygon fill="#B38658" points="18,16 21,10 16,6 16,16 		"/>
		<polygon fill="#B38658" points="16,6 11,10 9,6 12,2 16,3 		"/>
		<polygon fill="#A7794C" points="16,6 21,10 23,6 20,2 16,3 		"/>
		<path fill="#A7794C" d="M16,1h-2.586c-0.265,0-0.52,0.105-0.707,0.293L12,2l4,1V1z"/>
		<path fill="#9E6E43" d="M16,1v2l4-1l-0.707-0.707C19.105,1.105,18.851,1,18.586,1H16z"/>
		<polygon fill="#A7794C" points="9,6 5,8 3,12 5,15 11,10 		"/>
		<polygon fill="#9E6E43" points="23,6 27,8 29,12 27,15 21,10 		"/>
		<path fill="#C09265" d="M12,2h-1.649c-0.227,0-0.447,0.077-0.625,0.219L5.375,5.7C5.138,5.89,5,6.177,5,6.481V8l4-2L12,2z"/>
		<path fill="#B38658" d="M20,2h1.649c0.227,0,0.447,0.077,0.625,0.219L26.625,5.7C26.862,5.89,27,6.177,27,6.481V8l-4-2L20,2z"/>
		<polygon fill="#B38658" points="11,10 14,16 12,20 10,21 5,18 5,15 		"/>
		<polygon fill="#A7794C" points="21,10 18,16 20,20 22,21 27,18 27,15 		"/>
		<polygon fill="#96643B" points="22,21 19,24 20,25 23,24 27,20 27,18 		"/>
		<polygon fill="#9E6E43" points="20,20 22,21 19,24 16,23 16,22 		"/>
		<polygon fill="#9E6E43" points="10,21 13,24 12,25 9,24 5,20 5,20 5,18 		"/>
		<polygon fill="#A7794C" points="12,20 10,21 13,24 16,23 16,22 		"/>
		<path fill="#E0C193" d="M16,14h-1.541c-1.43,0-2.661,1.009-2.942,2.412l-0.203,1.014c-0.197,0.984,0.111,2,0.82,2.71l0.986,0.986
			C13.684,21.684,14.447,22,15.243,22H16V14z"/>
		<path fill="#DBBA8C" d="M20.482,16.412C20.202,15.009,18.971,14,17.541,14H16v8h0.757c0.796,0,1.559-0.316,2.121-0.879
			l0.986-0.986c0.709-0.709,1.017-1.726,0.82-2.71L20.482,16.412z"/>
		<path fill="#FFFFFF" d="M15,19h-1.752c-0.179,0-0.341-0.093-0.433-0.247C12.672,18.516,12.5,18.105,12.5,17.5
			c0-1.031,0.5-1.5,0.5-1.5l2,2V19z"/>
		<path fill="#F7F7F7" d="M17,19h1.752c0.179,0,0.341-0.093,0.433-0.247c0.142-0.237,0.314-0.648,0.314-1.253
			c0-1.031-0.5-1.5-0.5-1.5l-2,2V19z"/>
		<path fill="#96643B" d="M13.294,16.294C13.155,16.534,13,16.919,13,17.5c0,0.605,0.172,1.016,0.314,1.253
			C13.407,18.907,13.568,19,13.748,19H15v-1L13.294,16.294z"/>
		<path fill="#E5C79A" d="M12.411,14.822l2.313,4.625C14.893,19.786,15.239,20,15.618,20H16v-6h-1.541
			C13.672,14,12.952,14.313,12.411,14.822z"/>
		<path fill="#8D5B36" d="M18.706,16.294C18.845,16.534,19,16.919,19,17.5c0,0.605-0.172,1.016-0.314,1.253
			C18.593,18.907,18.432,19,18.252,19H17v-1L18.706,16.294z"/>
		<path fill="#E0C193" d="M19.589,14.822C19.048,14.313,18.328,14,17.541,14H16v6h0.382c0.379,0,0.725-0.214,0.894-0.553
			L19.589,14.822z"/>
		<path fill="#DBBA8C" d="M14.5,20.5c-0.32-0.32-0.754-0.5-1.207-0.5H12.03c0.038,0.043,0.064,0.094,0.105,0.135l0.986,0.986
			C13.684,21.684,14.447,22,15.243,22H16v-1h-0.293C15.254,21,14.82,20.82,14.5,20.5z"/>
		<path fill="#D5B387" d="M18.879,21.121l0.986-0.986c0.041-0.041,0.067-0.092,0.105-0.135h-1.263c-0.453,0-0.887,0.18-1.207,0.5
			c-0.32,0.32-0.754,0.5-1.207,0.5H16v1h0.757C17.553,22,18.316,21.684,18.879,21.121z"/>
		<path fill="#DBBA8C" d="M5,20l-1.221,2.443c-0.481,0.963-0.41,2.11,0.187,3.006L5,27l-2.707,2.707C2.105,29.895,2,30.149,2,30.414
			V30.5C2,30.776,2.224,31,2.5,31h8c0.276,0,0.5-0.224,0.5-0.5v-0.556c0-0.621-0.145-1.233-0.422-1.789L10,27l2-2l-3-1L5,20z"/>
		<path fill="#D5B387" d="M27,20l1.221,2.443c0.481,0.963,0.41,2.11-0.187,3.006L27,27l2.707,2.707
			C29.895,29.895,30,30.149,30,30.414V30.5c0,0.276-0.224,0.5-0.5,0.5h-8c-0.276,0-0.5-0.224-0.5-0.5v-0.556
			c0-0.621,0.145-1.233,0.422-1.789L22,27l-2-2l3-1L27,20z"/>
		<g>
			<path fill="#E0C193" d="M3,12l-2.6,3.467c-0.26,0.346-0.4,0.767-0.4,1.2l0,5.083C0,21.888,0.112,22,0.25,22h0.095
				c0.095,0,0.181-0.054,0.224-0.138l0.207-0.415c0.092-0.184,0.355-0.184,0.447,0l0.207,0.415C1.473,21.946,1.56,22,1.655,22h0.191
				c0.095,0,0.181-0.054,0.224-0.138l0.207-0.415c0.092-0.184,0.355-0.184,0.447,0l0.207,0.415C2.973,21.946,3.06,22,3.155,22H3.25
				c0.138,0,0.25-0.112,0.25-0.25v-1.417c0-0.216,0.07-0.427,0.2-0.6L5,18v-3L3,12z"/>
			<path fill="#DBBA8C" d="M29,12l2.6,3.467c0.26,0.346,0.4,0.767,0.4,1.2v5.083c0,0.138-0.112,0.25-0.25,0.25h-0.095
				c-0.095,0-0.181-0.054-0.224-0.138l-0.207-0.415c-0.092-0.184-0.355-0.184-0.447,0l-0.207,0.415
				C30.527,21.946,30.44,22,30.345,22h-0.191c-0.095,0-0.181-0.054-0.224-0.138l-0.207-0.415c-0.092-0.184-0.355-0.184-0.447,0
				l-0.207,0.415C29.027,21.946,28.94,22,28.845,22H28.75c-0.138,0-0.25-0.112-0.25-0.25v-1.417c0-0.216-0.07-0.427-0.2-0.6L27,18
				v-3L29,12z"/>
		</g>
		<path fill="#96643B" d="M16,23l-3,1l-1,1l3.515,0.879c0.159,0.04,0.322,0.06,0.485,0.06V23z"/>
		<path fill="#8D5B36" d="M16.485,25.879L20,25l-1-1l-3-1v2.938C16.163,25.938,16.326,25.919,16.485,25.879z"/>
	</g>
</g>
<g id="labels">
</g>
</svg>
