<?xml version="1.0" encoding="utf-8"?>
<!-- Generator: Adobe Illustrator 23.0.6, SVG Export Plug-In . SVG Version: 6.00 Build 0)  -->
<svg version="1.1" xmlns="http://www.w3.org/2000/svg" xmlns:xlink="http://www.w3.org/1999/xlink" x="0px" y="0px" width="32px"
	 height="32px" viewBox="0 0 32 32" enable-background="new 0 0 32 32" xml:space="preserve">
<g id="icons">
	<g>
		<path fill="#FAC4D1" d="M25,22c0-4.457-2.267-7.579-6.044-8.619l-0.657-9.202C18.13,1.825,16.171,0,13.81,0H13
			c-1.657,0-3,1.343-3,3v0.639c0,1.236,1.11,2.176,2.329,1.973l0.178-0.03C12.792,5.535,13,5.289,13,5v0h-0.5
			C11.672,5,11,4.328,11,3.5c0-1.105,0.895-2,2-2h0.5C14.881,1.5,16,2.619,16,4v26c2.193,0.031,4.057-0.36,5.516-1.181
			c0.948,0.869,1.306,2.122,1.425,2.767C22.985,31.825,23.19,32,23.433,32h1.279c0.178,0,0.349-0.096,0.44-0.249
			C28.104,26.757,25,22,25,22z"/>
		<path fill="#FBCFD6" d="M16,4c0-1.381-1.119-2.5-2.5-2.5H13c-1.105,0-2,0.895-2,2C11,4.328,11.672,5,12.5,5H13V4.865
			c0-0.223-0.126-0.428-0.326-0.528l-0.397-0.199C12.107,4.053,12,3.88,12,3.691V3.69C12,3.309,12.309,3,12.69,3h0.215
			c0.588,0,1.049,0.505,0.996,1.091l-0.844,9.289C9.298,14.419,7.076,17.542,7,22c0,0-3.104,4.757-0.152,9.751
			C6.938,31.904,7.11,32,7.288,32h1.279c0.244,0,0.448-0.175,0.492-0.414c0.122-0.661,0.491-1.963,1.493-2.833
			c1.452,0.8,3.296,1.217,5.447,1.247V4z"/>
		<path fill="#FDE2E6" d="M11.268,19.465C10.922,19.179,10.484,19,10,19c-1.105,0-2,0.895-2,2c0,0.835,0.513,1.549,1.24,1.848
			C9.084,23.507,9,24.224,9,25c0,4.418,7,5,7,5V18C14.038,18,12.44,18.512,11.268,19.465z"/>
		<path fill="#FCD8DE" d="M24,21c0-1.105-0.895-2-2-2c-0.484,0-0.922,0.179-1.268,0.465C19.56,18.512,17.962,18,16,18v12
			c0,0,7-0.582,7-5c0-0.776-0.084-1.493-0.24-2.152C23.487,22.549,24,21.835,24,21z"/>
		<circle fill="#FFFFFF" cx="12.5" cy="23.5" r="2.5"/>
		<circle fill="#373F3F" cx="12.5" cy="23.5" r="0.5"/>
		<circle fill="#F7F7F7" cx="19.5" cy="23.5" r="2.5"/>
		<circle fill="#2B3332" cx="19.5" cy="23.5" r="0.5"/>
		<path fill="#FFF3D9" d="M16,24.84c-1.942,0-3.884,0.269-5.769,0.808l-0.056,0.016C9.479,25.863,9,26.499,9,27.222
			c0,0.492,0.224,0.957,0.608,1.265l2.831,2.265C13.449,31.56,14.705,32,15.999,32H16V24.84z"/>
		<path fill="#FDEBBB" d="M16.001,32c1.294,0,2.55-0.44,3.561-1.249l2.831-2.265C22.776,28.179,23,27.714,23,27.222
			c0-0.723-0.479-1.359-1.175-1.557l-0.056-0.016C19.884,25.11,17.942,24.84,16,24.84L16.001,32L16.001,32z"/>
		<path fill="#FDEBBB" d="M16,29c-2.576,0-4.958-0.478-6.913-1.284c0.096,0.299,0.27,0.57,0.521,0.771l2.831,2.265
			C13.449,31.56,14.705,32,15.999,32H16V29z"/>
		<path fill="#F297BE" d="M16,29c-1.589,0-3.088-0.2-4.474-0.528C12.34,29.964,14.028,31,16,31V29z"/>
		<path fill="#FAE09F" d="M16.001,32c1.294,0,2.55-0.44,3.561-1.249l2.831-2.265c0.251-0.201,0.424-0.472,0.521-0.771
			C20.958,28.522,18.576,29,16,29L16.001,32L16.001,32z"/>
		<path fill="#EA8BB4" d="M20.474,28.472C19.088,28.8,17.589,29,16,29v2C17.972,31,19.66,29.964,20.474,28.472z"/>
		<path fill="#FFFFFF" d="M11.887,28.547l0.303,1.211C12.225,29.9,12.353,30,12.5,30h0c0.147,0,0.275-0.1,0.31-0.242l0.248-0.993
			C12.66,28.702,12.269,28.63,11.887,28.547z"/>
		<path fill="#F7F7F7" d="M19.5,30c0.147,0,0.275-0.1,0.31-0.242l0.303-1.211c-0.383,0.083-0.774,0.155-1.172,0.217l0.248,0.993
			C19.225,29.9,19.353,30,19.5,30L19.5,30z"/>
		<path fill="#F297BE" d="M9.542,21.875c0.25-0.639,0.585-1.205,0.999-1.694C10.383,20.076,10.204,20,10,20c-0.552,0-1,0.448-1,1
			C9,21.384,9.224,21.708,9.542,21.875z"/>
		<path fill="#EA8BB4" d="M22.458,21.875C22.776,21.708,23,21.384,23,21c0-0.552-0.448-1-1-1c-0.204,0-0.383,0.076-0.542,0.181
			C21.873,20.67,22.208,21.236,22.458,21.875z"/>
	</g>
</g>
<g id="labels">
</g>
</svg>
