<?xml version="1.0" encoding="utf-8"?>
<!-- Generator: Adobe Illustrator 23.0.6, SVG Export Plug-In . SVG Version: 6.00 Build 0)  -->
<svg version="1.1" xmlns="http://www.w3.org/2000/svg" xmlns:xlink="http://www.w3.org/1999/xlink" x="0px" y="0px" width="32px"
	 height="32px" viewBox="0 0 32 32" enable-background="new 0 0 32 32" xml:space="preserve">
<g id="icons">
	<g>
		<path fill="#505957" d="M5,22H3v-3h2c0.551,0,1-0.448,1-1s-0.449-1-1-1H3v-3h2c2.206,0,4,1.794,4,4S7.206,22,5,22z"/>
		<path fill="#56C7CD" d="M0.5,19H3v3H0.5C0.224,22,0,21.776,0,21.5v-2C0,19.224,0.224,19,0.5,19z"/>
		<path fill="#E55D53" d="M0.5,14H3v3H0.5C0.224,17,0,16.776,0,16.5v-2C0,14.224,0.224,14,0.5,14z"/>
		<path fill="#434C4B" d="M29,22h-2c-2.206,0-4-1.794-4-4s1.794-4,4-4h2v3h-2c-0.551,0-1,0.448-1,1s0.449,1,1,1h2V22z"/>
		<path fill="#434C4B" d="M18,6h-2v5h2V8h1V7C19,6.448,18.552,6,18,6z"/>
		<path fill="#505957" d="M16,11V6h-2c-0.552,0-1,0.448-1,1v1h1v3H16z"/>
		<path fill="#687271" d="M8,18c0,4.418,3.582,8,8,8V10C11.582,10,8,13.582,8,18z"/>
		<path fill="#5C6664" d="M16,10v16c4.418,0,8-3.582,8-8S20.418,10,16,10z"/>
		<path fill="#FFFFFF" d="M12,18c0,2.209,1.791,4,4,4v-8C13.791,14,12,15.791,12,18z"/>
		<path fill="#F7F7F7" d="M16,14v8c2.209,0,4-1.791,4-4C20,15.791,18.209,14,16,14z"/>
		<path fill="#51BAC5" d="M31.5,17H29v-3h2.5c0.276,0,0.5,0.224,0.5,0.5v2C32,16.776,31.776,17,31.5,17z"/>
		<path fill="#D64F45" d="M31.5,22H29v-3h2.5c0.276,0,0.5,0.224,0.5,0.5v2C32,21.776,31.776,22,31.5,22z"/>
		<path fill="#373F3F" d="M16,17c-0.552,0-1,0.448-1,1c0,0.552,0.448,1,1,1V17z"/>
		<path fill="#2B3332" d="M17,18c0-0.552-0.448-1-1-1v2C16.552,19,17,18.552,17,18z"/>
	</g>
</g>
<g id="labels">
</g>
</svg>
