<?xml version="1.0" encoding="utf-8"?>
<!-- Generator: Adobe Illustrator 23.0.6, SVG Export Plug-In . SVG Version: 6.00 Build 0)  -->
<svg version="1.1" xmlns="http://www.w3.org/2000/svg" xmlns:xlink="http://www.w3.org/1999/xlink" x="0px" y="0px" width="32px"
	 height="32px" viewBox="0 0 32 32" enable-background="new 0 0 32 32" xml:space="preserve">
<g id="icons">
	<g>
		<path fill="#E8AAB1" d="M16,10.001c-0.375,0-0.755,0.02-1.138,0.062c-4.648,0.513-8.396,4.344-8.819,9.001
			c-0.248,2.723,0.598,5.247,2.147,7.182c0.371,0.464,1.07,0.495,1.49,0.075L16,20V10.001z"/>
		<path fill="#E59FA8" d="M16,10.001c0.375,0,0.755,0.02,1.138,0.062c4.648,0.513,8.396,4.344,8.819,9.001
			c0.248,2.723-0.598,5.247-2.147,7.182c-0.371,0.464-1.07,0.495-1.49,0.075L16,20V10.001z"/>
		<path fill="#F0C4CA" d="M15.208,0c-0.627,0-1.1,0.571-0.982,1.187l0.379,1.989c-0.121,0.029-0.242,0.056-0.36,0.092l-0.799-2.097
			c-0.229-0.6-0.955-0.832-1.489-0.476L10.975,1.35c-0.512,0.341-0.597,1.059-0.18,1.51l1.394,1.51C10.852,5.47,10,7.134,10,9
			c0,0.899,0.2,1.75,0.556,2.515c0.317,0.681,0.137,1.465-0.379,2.011c-1.681,1.783-2.555,4.333-2.021,7.077
			c0.607,3.12,3.119,5.635,6.239,6.241c0.544,0.106,1.079,0.145,1.604,0.145V0H15.208z"/>
		<path fill="#ECB7BE" d="M21.869,13.575c-0.538-0.58-0.723-1.401-0.397-2.121c0.503-1.112,0.677-2.403,0.39-3.756
			c-0.281-1.322-1.031-2.485-2.049-3.327l1.394-1.51c0.417-0.452,0.331-1.169-0.18-1.51l-0.982-0.655
			c-0.534-0.356-1.261-0.124-1.489,0.476l-0.799,2.097c-0.119-0.036-0.236-0.074-0.358-0.102l0.377-1.979
			C17.891,0.571,17.419,0,16.792,0H16v26.989c4.417-0.001,8-3.571,8-7.989C24,16.903,23.19,15,21.869,13.575z"/>
		<path fill="#F7C845" d="M17.91,26l-0.903,5.418C16.956,31.723,17.191,32,17.5,32h5.91c0.276,0,0.5-0.224,0.5-0.5v-0.001
			c0-0.881-0.6-1.649-1.454-1.863L19.91,29v-4L17.91,26z"/>
		<path fill="#FFD04D" d="M14,26l0.903,5.418C14.954,31.723,14.719,32,14.41,32H8.5C8.224,32,8,31.776,8,31.5v-0.001
			c0-0.881,0.6-1.649,1.454-1.863L12,29v-4L14,26z"/>
		<path fill="#FFFFFF" d="M15.5,11l-3.141-3.589c-0.207-0.237-0.576-0.229-0.771,0.018C11.313,7.779,11,8.324,11,9
			c0,0.908,0.565,1.581,0.846,1.859C11.94,10.953,12.063,11,12.195,11H15.5z"/>
		<path fill="#FCE8CC" d="M16,15c-3.866,0-7,3.134-7,7c0,0.347,0.034,0.685,0.082,1.018c1.13,1.942,3.056,3.387,5.313,3.826
			c0.544,0.106,1.08,0.15,1.604,0.149V15z"/>
		<path fill="#F5DEB9" d="M22.921,22.996C22.968,22.67,23,22.339,23,22c0-3.866-3.134-7-7-7v11.993
			C18.958,26.992,21.538,25.386,22.921,22.996z"/>
		<path fill="#F7F7F7" d="M16.5,11l3.141-3.589c0.207-0.237,0.576-0.229,0.771,0.018C20.687,7.779,21,8.324,21,9
			c0,0.908-0.565,1.581-0.846,1.859C20.06,10.953,19.937,11,19.805,11H16.5z"/>
		<path fill="#FFFFFF" d="M17.716,18.1l-5.47,4.254c-0.475,0.369-0.518,1.071-0.093,1.496l1.934,1.934
			c0.425,0.425,1.127,0.382,1.496-0.093l4.254-5.47L17.716,18.1z"/>
		<path fill="#E08C96" d="M25.162,24H21.5c-0.276,0-0.5,0.224-0.5,0.5v2c0,0.276,0.224,0.5,0.5,0.5h0.732
			c0.613,0,1.193-0.28,1.576-0.758C24.352,25.562,24.809,24.809,25.162,24z"/>
		<path fill="#9ACC2E" d="M22.737,13.078L24.651,15l4.803-4.426c0.209-0.193,0.216-0.52,0.015-0.721L28.07,8.453
			c-0.195-0.195-0.512-0.195-0.707,0L22.737,13.078z"/>
		<path fill="#A2D336" d="M30.681,11.785L29.918,9.66c-0.105-0.293-0.449-0.419-0.719-0.265L22.716,13.1l-5,5l2.121,2.121L24.651,15
			l5.764-2.589C30.654,12.303,30.769,12.031,30.681,11.785z"/>
		<path fill="#E2959E" d="M25.95,21H19.5c-0.276,0-0.5,0.224-0.5,0.5v2c0,0.276,0.224,0.5,0.5,0.5h5.662
			C25.571,23.065,25.844,22.058,25.95,21z"/>
		<path fill="#E59FA8" d="M18.5,18c-0.276,0-0.5,0.224-0.5,0.5v2c0,0.276,0.224,0.5,0.5,0.5h7.45c0.033-0.329,0.05-0.662,0.05-1
			c0-0.685-0.07-1.354-0.201-2H18.5z"/>
		<path fill="#E8AAB1" d="M24.651,15H19.5c-0.276,0-0.5,0.224-0.5,0.5v2c0,0.276,0.224,0.5,0.5,0.5h6.299
			C25.581,16.926,25.184,15.919,24.651,15z"/>
		<path fill="#604631" d="M16,7.993l-3.259-1.955c-0.253-0.152-0.514,0.183-0.305,0.391L16,9.993V7.993z"/>
		<path fill="#4F4032" d="M19.564,6.429c0.208-0.208-0.053-0.543-0.305-0.391L16,7.993v2L19.564,6.429z"/>
		<path fill="#FFD04D" d="M16,10.236c-0.306,0-0.613,0.07-0.894,0.211l-2.211,1.106C12.4,11.8,12.2,12.4,12.447,12.894l2.106,4.211
			C14.827,17.654,15.387,18,16,18V10.236z"/>
		<path fill="#F7C845" d="M17.447,17.106l2.106-4.211C19.8,12.4,19.6,11.8,19.106,11.553l-2.211-1.106
			c-0.281-0.141-0.588-0.211-0.894-0.211V18C16.613,18,17.173,17.654,17.447,17.106z"/>
		<path fill="#373F3F" d="M13.986,9.27l-1.604-1.833C12.151,7.804,12,8.364,12,9c0,1.105,0.448,2,1,2
			C13.506,11,13.92,10.246,13.986,9.27z"/>
		<path fill="#2B3332" d="M20,9c0-0.636-0.151-1.196-0.383-1.563L18.014,9.27C18.08,10.246,18.494,11,19,11
			C19.552,11,20,10.105,20,9z"/>
	</g>
</g>
<g id="labels">
</g>
</svg>
