<?xml version="1.0" encoding="utf-8"?>
<!-- Generator: Adobe Illustrator 23.0.6, SVG Export Plug-In . SVG Version: 6.00 Build 0)  -->
<svg version="1.1" xmlns="http://www.w3.org/2000/svg" xmlns:xlink="http://www.w3.org/1999/xlink" x="0px" y="0px" width="32px"
	 height="32px" viewBox="0 0 32 32" enable-background="new 0 0 32 32" xml:space="preserve">
<g id="icons">
	<g>
		<path fill="#4F4032" d="M16.837,16.869l-0.674-0.738C20.65,12.04,20.502,4.588,20.5,4.514l1-0.027
			C21.509,4.811,21.659,12.474,16.837,16.869z"/>
		<path fill="#604631" d="M15.163,16.869C10.341,12.474,10.491,4.811,10.5,4.486l1,0.027c-0.002,0.074-0.143,7.533,4.337,11.617
			L15.163,16.869z"/>
		<polygon fill="#F7D684" points="19,20 20,30.5 23,31 23,32 18,32 18,31 19,30.5 17,21 		"/>
		<polygon fill="#FAE09F" points="13,20 12,30.5 9,31 9,32 14,32 14,31 13,30.5 15,21 		"/>
		<path fill="#CBEB6B" d="M16,11.133c-0.07,0-0.139,0.029-0.189,0.087l-0.496,0.575l-0.628-0.427
			c-0.126-0.086-0.299-0.04-0.366,0.098l-0.33,0.684l-0.717-0.25c-0.144-0.05-0.299,0.039-0.328,0.189l-0.142,0.746l-0.757-0.056
			c-0.152-0.011-0.279,0.115-0.268,0.268l0.056,0.757l-0.746,0.142c-0.15,0.029-0.24,0.184-0.189,0.328l0.25,0.717l-0.684,0.33
			c-0.138,0.066-0.184,0.24-0.098,0.366l0.427,0.628l-0.575,0.496c-0.116,0.1-0.116,0.279,0,0.379l0.575,0.496l-0.427,0.628
			c-0.086,0.126-0.04,0.299,0.098,0.366l0.684,0.33l-0.25,0.717c-0.05,0.144,0.039,0.299,0.189,0.328l0.746,0.142l-0.056,0.757
			c-0.011,0.152,0.115,0.279,0.268,0.268l0.757-0.056l0.142,0.746c0.029,0.15,0.184,0.24,0.328,0.189l0.717-0.25l0.33,0.684
			c0.066,0.138,0.24,0.184,0.366,0.098l0.628-0.427l0.496,0.575c0.05,0.058,0.12,0.087,0.189,0.087V11.133z"/>
		<path fill="#BEE758" d="M16.189,22.78l0.496-0.575l0.628,0.427c0.126,0.086,0.299,0.04,0.366-0.098l0.33-0.684l0.717,0.25
			c0.144,0.05,0.299-0.039,0.328-0.189l0.142-0.746l0.757,0.056c0.152,0.011,0.279-0.115,0.268-0.268l-0.056-0.757l0.746-0.142
			c0.15-0.029,0.24-0.184,0.189-0.328l-0.25-0.717l0.684-0.33c0.138-0.066,0.184-0.24,0.098-0.366l-0.427-0.628l0.575-0.496
			c0.116-0.1,0.116-0.279,0-0.379l-0.575-0.496l0.427-0.628c0.086-0.126,0.04-0.299-0.098-0.366l-0.684-0.33l0.25-0.717
			c0.05-0.144-0.039-0.299-0.189-0.328l-0.746-0.142l0.056-0.757c0.011-0.152-0.115-0.279-0.268-0.268l-0.757,0.056l-0.142-0.746
			c-0.029-0.15-0.184-0.24-0.328-0.189l-0.717,0.25l-0.33-0.684c-0.066-0.138-0.24-0.184-0.366-0.098l-0.628,0.427l-0.496-0.575
			c-0.05-0.058-0.12-0.087-0.189-0.087v11.734C16.07,22.867,16.139,22.838,16.189,22.78z"/>
		<path fill="#BEE758" d="M16,21l-0.663-0.659c-0.08-0.08-0.204-0.096-0.302-0.039l-0.846,0.494l-0.434-0.771
			c-0.057-0.102-0.178-0.15-0.289-0.117L12.5,20.196l-0.182-0.822c-0.027-0.12-0.137-0.203-0.26-0.195l-0.989,0.063l-0.169,0.485
			c-0.05,0.144,0.039,0.299,0.189,0.328l0.746,0.142l-0.056,0.757c-0.011,0.152,0.115,0.279,0.268,0.268l0.757-0.056l0.142,0.746
			c0.029,0.15,0.184,0.24,0.328,0.189l0.717-0.25l0.33,0.684c0.066,0.138,0.24,0.184,0.366,0.098l0.628-0.427l0.496,0.575
			c0.05,0.058,0.12,0.087,0.189,0.087V21z"/>
		<path fill="#B1E346" d="M16.189,22.78l0.496-0.575l0.628,0.427c0.126,0.086,0.299,0.04,0.366-0.098l0.33-0.684l0.717,0.25
			c0.144,0.05,0.299-0.039,0.328-0.189l0.142-0.746l0.757,0.056c0.152,0.011,0.279-0.115,0.268-0.268l-0.056-0.757l0.746-0.142
			c0.15-0.029,0.24-0.184,0.189-0.328l-0.169-0.485l-0.989-0.063c-0.123-0.008-0.233,0.075-0.26,0.195L19.5,20.196l-0.965-0.289
			c-0.112-0.033-0.232,0.015-0.289,0.117l-0.434,0.771l-0.846-0.494c-0.098-0.057-0.222-0.041-0.302,0.039L16,21v1.867
			C16.07,22.867,16.139,22.838,16.189,22.78z"/>
		<path fill="#D9F07D" d="M11,0.133c-0.07,0-0.139,0.029-0.189,0.087l-0.268,0.31l-0.339-0.23c-0.126-0.086-0.299-0.04-0.366,0.098
			L9.661,0.766L9.274,0.631C9.13,0.581,8.974,0.671,8.946,0.821L8.869,1.223l-0.409-0.03C8.308,1.182,8.182,1.308,8.193,1.461
			l0.03,0.409L7.821,1.946c-0.15,0.029-0.24,0.184-0.189,0.328l0.135,0.387L7.397,2.839C7.26,2.905,7.214,3.078,7.299,3.204
			l0.23,0.339L7.22,3.811c-0.116,0.1-0.116,0.279,0,0.379l0.31,0.268l-0.23,0.339C7.214,4.922,7.26,5.095,7.397,5.161l0.369,0.178
			L7.631,5.726C7.581,5.87,7.671,6.026,7.821,6.054l0.402,0.077l-0.03,0.409C8.182,6.692,8.308,6.818,8.461,6.807l0.409-0.03
			l0.077,0.402c0.029,0.15,0.184,0.24,0.328,0.189l0.387-0.135l0.178,0.369c0.066,0.138,0.24,0.184,0.366,0.098l0.339-0.23
			l0.267,0.31c0.05,0.058,0.12,0.087,0.189,0.087V0.133z"/>
		<path fill="#CBEB6B" d="M11,0.133c0.07,0,0.139,0.029,0.189,0.087l0.268,0.31l0.339-0.23c0.126-0.086,0.299-0.04,0.366,0.098
			l0.178,0.369l0.387-0.135c0.144-0.05,0.299,0.039,0.328,0.189l0.077,0.402l0.409-0.03c0.152-0.011,0.279,0.115,0.268,0.268
			l-0.03,0.409l0.402,0.077c0.15,0.029,0.24,0.184,0.189,0.328l-0.135,0.387l0.369,0.178c0.138,0.066,0.184,0.24,0.098,0.366
			l-0.23,0.339l0.31,0.267c0.116,0.1,0.116,0.279,0,0.379l-0.31,0.268l0.23,0.339c0.086,0.126,0.04,0.299-0.098,0.366l-0.369,0.178
			l0.135,0.387c0.05,0.144-0.039,0.299-0.189,0.328l-0.402,0.077l0.03,0.409c0.011,0.152-0.115,0.279-0.268,0.268l-0.409-0.03
			l-0.077,0.402c-0.029,0.15-0.184,0.24-0.328,0.189l-0.387-0.135l-0.178,0.369c-0.066,0.138-0.24,0.184-0.366,0.098l-0.339-0.23
			l-0.267,0.31C11.139,7.838,11.07,7.867,11,7.867V0.133z"/>
		<path fill="#BEE758" d="M21,0.133c-0.07,0-0.139,0.029-0.189,0.087l-0.268,0.31l-0.339-0.23c-0.126-0.086-0.299-0.04-0.366,0.098
			l-0.178,0.369l-0.387-0.135c-0.144-0.05-0.299,0.039-0.328,0.189l-0.077,0.402l-0.409-0.03c-0.152-0.011-0.279,0.115-0.268,0.268
			l0.03,0.409l-0.402,0.077c-0.15,0.029-0.24,0.184-0.189,0.328l0.135,0.387l-0.369,0.178c-0.138,0.066-0.184,0.24-0.098,0.366
			l0.23,0.339l-0.31,0.267c-0.116,0.1-0.116,0.279,0,0.379l0.31,0.268l-0.23,0.339c-0.086,0.126-0.04,0.299,0.098,0.366l0.369,0.178
			l-0.135,0.387c-0.05,0.144,0.039,0.299,0.189,0.328l0.402,0.077l-0.03,0.409c-0.011,0.152,0.115,0.279,0.268,0.268l0.409-0.03
			l0.077,0.402c0.029,0.15,0.184,0.24,0.328,0.189l0.387-0.135l0.178,0.369c0.066,0.138,0.24,0.184,0.366,0.098l0.339-0.23
			l0.267,0.31c0.05,0.058,0.12,0.087,0.189,0.087V0.133z"/>
		<path fill="#B1E346" d="M21,0.133c0.07,0,0.139,0.029,0.189,0.087l0.268,0.31l0.339-0.23c0.126-0.086,0.299-0.04,0.366,0.098
			l0.178,0.369l0.387-0.135c0.144-0.05,0.299,0.039,0.328,0.189l0.077,0.402l0.409-0.03c0.152-0.011,0.279,0.115,0.268,0.268
			l-0.03,0.409l0.402,0.077c0.15,0.029,0.24,0.184,0.189,0.328l-0.135,0.387l0.369,0.178c0.138,0.066,0.184,0.24,0.098,0.366
			l-0.23,0.339l0.31,0.267c0.116,0.1,0.116,0.279,0,0.379l-0.31,0.268l0.23,0.339c0.086,0.126,0.04,0.299-0.098,0.366l-0.369,0.178
			l0.135,0.387c0.05,0.144-0.039,0.299-0.189,0.328l-0.402,0.077l0.03,0.409c0.011,0.152-0.115,0.279-0.268,0.268l-0.409-0.03
			l-0.077,0.402c-0.029,0.15-0.184,0.24-0.328,0.189l-0.387-0.135l-0.178,0.369c-0.066,0.138-0.24,0.184-0.366,0.098l-0.339-0.23
			l-0.267,0.31C21.139,7.838,21.07,7.867,21,7.867V0.133z"/>
		<g>
			<ellipse fill="#373F3F" cx="9.75" cy="4" rx="0.75" ry="1"/>
			<ellipse fill="#2B3332" cx="12.25" cy="4" rx="0.75" ry="1"/>
			<circle fill="#FFFFFF" cx="9.75" cy="3.75" r="0.25"/>
			<circle fill="#F7F7F7" cx="12.25" cy="3.75" r="0.25"/>
		</g>
		<ellipse fill="#373F3F" cx="19.75" cy="4" rx="0.75" ry="1"/>
		<ellipse fill="#2B3332" cx="22.25" cy="4" rx="0.75" ry="1"/>
		<circle fill="#FFFFFF" cx="19.75" cy="3.75" r="0.25"/>
		<circle fill="#F7F7F7" cx="22.25" cy="3.75" r="0.25"/>
		<path fill="#FDEBBB" d="M9,31l-1.263,0.421C7.596,31.468,7.5,31.601,7.5,31.75l0,0C7.5,31.888,7.612,32,7.75,32H9V31z"/>
		<path fill="#FAE09F" d="M18,31l-1.263,0.421c-0.142,0.047-0.237,0.18-0.237,0.329l0,0c0,0.138,0.112,0.25,0.25,0.25H18V31z"/>
		<path fill="#FAE09F" d="M23,31l1.263,0.421c0.142,0.047,0.237,0.18,0.237,0.329l0,0c0,0.138-0.112,0.25-0.25,0.25H23V31z"/>
		<path fill="#FDEBBB" d="M14,31l1.263,0.421c0.142,0.047,0.237,0.18,0.237,0.329l0,0c0,0.138-0.112,0.25-0.25,0.25H14V31z"/>
		<path fill="#FAE09F" d="M21,5.414c-0.256,0-0.512,0.098-0.707,0.293l-0.002,0.002c-0.183,0.183-0.266,0.442-0.223,0.697
			l0.686,4.114c0.023,0.139,0.135,0.209,0.247,0.209V5.414z"/>
		<path fill="#F7D684" d="M21.247,10.52l0.686-4.114c0.042-0.255-0.041-0.515-0.223-0.697l-0.002-0.002
			C21.512,5.512,21.256,5.414,21,5.414v5.315C21.112,10.729,21.223,10.66,21.247,10.52z"/>
		<path fill="#FDEBBB" d="M11,5.414c-0.256,0-0.512,0.098-0.707,0.293l-0.002,0.002c-0.183,0.183-0.266,0.442-0.223,0.697
			l0.686,4.114c0.023,0.139,0.135,0.209,0.247,0.209V5.414z"/>
		<path fill="#FAE09F" d="M11.247,10.52l0.686-4.114c0.042-0.255-0.041-0.515-0.223-0.697l-0.002-0.002
			C11.512,5.512,11.256,5.414,11,5.414v5.315C11.112,10.729,11.223,10.66,11.247,10.52z"/>
	</g>
</g>
<g id="labels">
</g>
</svg>
