<?xml version="1.0" encoding="utf-8"?>
<!-- Generator: Adobe Illustrator 23.0.6, SVG Export Plug-In . SVG Version: 6.00 Build 0)  -->
<svg version="1.1" xmlns="http://www.w3.org/2000/svg" xmlns:xlink="http://www.w3.org/1999/xlink" x="0px" y="0px" width="32px"
	 height="32px" viewBox="0 0 32 32" enable-background="new 0 0 32 32" xml:space="preserve">
<g id="icons">
	<g>
		<polygon fill="#F7D684" points="19,23 20,30.5 23,31 23,32 18,32 18,31 19,30.5 17,23 		"/>
		<polygon fill="#FAE09F" points="13,23 12,30.5 9,31 9,32 14,32 14,31 13,30.5 15,23 		"/>
		<g>
			<path fill="#9E6E43" d="M16,12.133c-0.07,0-0.139,0.029-0.189,0.087l-0.35,0.406c-0.083,0.096-0.225,0.115-0.33,0.043
				l-0.444-0.302c-0.126-0.086-0.299-0.04-0.366,0.098l-0.233,0.483c-0.055,0.114-0.188,0.169-0.308,0.127l-0.507-0.177
				c-0.144-0.05-0.299,0.039-0.328,0.189l-0.1,0.527c-0.024,0.125-0.137,0.212-0.264,0.203l-0.535-0.04
				c-0.152-0.011-0.279,0.115-0.268,0.268l0.04,0.535c0.009,0.127-0.078,0.24-0.203,0.264l-0.527,0.1
				c-0.15,0.029-0.24,0.184-0.189,0.328l0.177,0.507c0.042,0.12-0.013,0.252-0.127,0.308l-0.483,0.233
				c-0.138,0.066-0.184,0.24-0.098,0.366l0.302,0.443c0.071,0.105,0.053,0.247-0.043,0.33l-0.422,0.364
				c-0.11,0.095-0.116,0.263-0.014,0.366L12,20h1.5l0.362,0.724C13.947,20.893,14.12,21,14.309,21H16V12.133z"/>
			<path fill="#96643B" d="M16,12.133c0.07,0,0.139,0.029,0.189,0.087l0.35,0.406c0.083,0.096,0.225,0.115,0.33,0.043l0.444-0.302
				c0.126-0.086,0.299-0.04,0.366,0.098l0.233,0.483c0.055,0.114,0.188,0.169,0.308,0.127l0.507-0.177
				c0.144-0.05,0.299,0.039,0.328,0.189l0.1,0.527c0.024,0.125,0.137,0.212,0.264,0.203l0.535-0.04
				c0.152-0.011,0.279,0.115,0.268,0.268l-0.04,0.535c-0.009,0.127,0.078,0.24,0.203,0.264l0.527,0.1
				c0.15,0.029,0.24,0.184,0.189,0.328l-0.177,0.507c-0.042,0.12,0.013,0.252,0.127,0.308l0.483,0.233
				c0.138,0.066,0.184,0.24,0.098,0.366l-0.302,0.443c-0.071,0.105-0.053,0.247,0.043,0.33l0.422,0.364
				c0.11,0.095,0.116,0.263,0.014,0.366L20,20h-1.5l-0.362,0.724C18.053,20.893,17.88,21,17.691,21H16V12.133z"/>
			<path fill="#4F4032" d="M20,20l-0.43,2.582C19.529,22.823,19.321,23,19.076,23H16.89c-0.229,0-0.429-0.156-0.485-0.379L16,21
				h1.691c0.189,0,0.363-0.107,0.447-0.276L18.5,20H20z"/>
			<path fill="#604631" d="M12,20l0.43,2.582C12.471,22.823,12.679,23,12.924,23h2.186c0.229,0,0.429-0.156,0.485-0.379L16,21
				h-1.691c-0.189,0-0.363-0.107-0.447-0.276L13.5,20H12z"/>
		</g>
		<circle fill="#845331" cx="18.5" cy="16.5" r="1"/>
		<path fill="#4F4032" d="M18.5,17c-0.194,0-0.379-0.114-0.46-0.304c-0.108-0.254,0.01-0.548,0.264-0.656
			c6.125-2.61,6.196-7.576,6.196-7.626c0-0.276,0.224-0.5,0.5-0.5s0.5,0.224,0.5,0.5c0,0.23-0.077,5.679-6.804,8.546
			C18.632,16.987,18.565,17,18.5,17z"/>
		<circle fill="#8D5B36" cx="13.5" cy="16.5" r="1"/>
		<path fill="#604631" d="M13.5,17c-0.065,0-0.132-0.013-0.196-0.04C6.577,14.093,6.5,8.645,6.5,8.414
			c0-0.275,0.223-0.498,0.499-0.499H7c0.275,0,0.499,0.223,0.5,0.497c0.001,0.205,0.1,5.029,6.196,7.628
			c0.254,0.108,0.372,0.402,0.264,0.656C13.879,16.886,13.694,17,13.5,17z"/>
		<path fill="#8D5B36" d="M16,15.5c-0.552,0-1,0.448-1,1c0,0.552,0.448,1,1,1V15.5z"/>
		<path fill="#845331" d="M17,16.5c0-0.552-0.448-1-1-1v2C16.552,17.5,17,17.052,17,16.5z"/>
		<path fill="#604631" d="M16,8.914c-0.276,0-0.5,0.224-0.5,0.5V16.5c0,0.276,0.224,0.5,0.5,0.5V8.914z"/>
		<path fill="#4F4032" d="M16.5,16.5V9.414c0-0.276-0.224-0.5-0.5-0.5V17C16.276,17,16.5,16.776,16.5,16.5z"/>
		<path fill="#9E6E43" d="M7,3.133c-0.07,0-0.139,0.029-0.189,0.087L6.689,3.361c-0.083,0.096-0.225,0.115-0.33,0.043L6.204,3.299
			C6.078,3.214,5.905,3.26,5.839,3.397L5.758,3.566C5.702,3.68,5.57,3.735,5.45,3.693L5.274,3.631
			C5.13,3.581,4.974,3.671,4.946,3.821L4.911,4.004C4.887,4.129,4.774,4.216,4.647,4.207L4.461,4.193
			C4.308,4.182,4.182,4.308,4.193,4.461l0.014,0.186c0.009,0.127-0.078,0.24-0.203,0.264L3.821,4.946
			c-0.15,0.029-0.24,0.184-0.189,0.328L3.693,5.45C3.735,5.57,3.68,5.702,3.566,5.758L3.397,5.839
			C3.26,5.905,3.214,6.078,3.299,6.204l0.105,0.154c0.072,0.105,0.053,0.247-0.043,0.33L3.22,6.811c-0.116,0.1-0.116,0.279,0,0.379
			l0.141,0.122c0.096,0.083,0.115,0.225,0.043,0.33L3.299,7.796C3.214,7.922,3.26,8.095,3.397,8.161l0.168,0.081
			C3.68,8.298,3.735,8.43,3.693,8.55L3.631,8.726C3.581,8.87,3.671,9.026,3.821,9.054l0.183,0.035
			c0.125,0.024,0.212,0.137,0.203,0.264L4.193,9.539C4.182,9.692,4.308,9.818,4.461,9.807l0.186-0.014
			c0.127-0.009,0.24,0.078,0.264,0.203l0.035,0.183c0.029,0.15,0.184,0.24,0.328,0.189l0.176-0.061
			c0.12-0.042,0.252,0.013,0.308,0.127l0.081,0.168c0.066,0.138,0.24,0.184,0.366,0.098l0.154-0.105
			c0.105-0.072,0.247-0.053,0.33,0.043l0.122,0.141c0.05,0.058,0.12,0.087,0.189,0.087V3.133z"/>
		<path fill="#96643B" d="M7.189,10.78l0.122-0.141c0.083-0.096,0.225-0.115,0.33-0.043l0.154,0.105
			c0.126,0.086,0.299,0.04,0.366-0.098l0.081-0.168c0.055-0.114,0.188-0.169,0.308-0.127l0.176,0.061
			c0.144,0.05,0.299-0.039,0.328-0.189l0.035-0.183c0.024-0.125,0.137-0.212,0.264-0.203l0.186,0.014
			c0.152,0.011,0.279-0.115,0.268-0.268L9.793,9.353c-0.009-0.127,0.078-0.24,0.203-0.264l0.183-0.035
			c0.15-0.029,0.24-0.184,0.189-0.328L10.307,8.55c-0.042-0.12,0.013-0.252,0.127-0.308l0.168-0.081
			c0.138-0.066,0.184-0.24,0.098-0.366l-0.105-0.154c-0.072-0.105-0.053-0.247,0.043-0.33l0.141-0.122
			c0.116-0.1,0.116-0.279,0-0.379l-0.141-0.122c-0.096-0.083-0.115-0.225-0.043-0.33l0.105-0.154
			c0.086-0.126,0.04-0.299-0.098-0.366l-0.168-0.081C10.32,5.702,10.265,5.57,10.307,5.45l0.061-0.176
			c0.05-0.144-0.039-0.299-0.189-0.328L9.996,4.911C9.871,4.887,9.784,4.774,9.793,4.647l0.014-0.186
			c0.011-0.152-0.115-0.279-0.268-0.268L9.353,4.207c-0.127,0.009-0.24-0.078-0.264-0.203L9.054,3.821
			c-0.029-0.15-0.184-0.24-0.328-0.189L8.55,3.693C8.43,3.735,8.298,3.68,8.242,3.566L8.161,3.397
			C8.095,3.26,7.922,3.214,7.796,3.299L7.641,3.404c-0.105,0.071-0.247,0.053-0.33-0.043L7.189,3.22C7.139,3.162,7.07,3.133,7,3.133
			v7.734C7.07,10.867,7.139,10.838,7.189,10.78z"/>
		<path fill="#FDEBBB" d="M9,31l-1.302,0.434C7.58,31.473,7.5,31.584,7.5,31.709v0.001C7.5,31.87,7.63,32,7.79,32H9V31z"/>
		<path fill="#96643B" d="M16,4.133c-0.07,0-0.139,0.029-0.189,0.087l-0.122,0.141c-0.083,0.096-0.225,0.115-0.33,0.043
			l-0.154-0.105c-0.126-0.086-0.299-0.04-0.366,0.098l-0.081,0.168C14.702,4.68,14.57,4.735,14.45,4.693l-0.176-0.061
			c-0.144-0.05-0.299,0.039-0.328,0.189l-0.035,0.183c-0.024,0.125-0.137,0.212-0.264,0.203l-0.186-0.014
			c-0.152-0.011-0.279,0.115-0.268,0.268l0.014,0.186c0.009,0.127-0.078,0.24-0.203,0.264l-0.183,0.035
			c-0.15,0.029-0.24,0.184-0.189,0.328l0.061,0.176c0.042,0.12-0.013,0.252-0.127,0.308l-0.168,0.081
			c-0.138,0.066-0.184,0.24-0.098,0.366l0.105,0.154c0.072,0.105,0.053,0.247-0.043,0.33L12.22,7.811
			c-0.116,0.1-0.116,0.279,0,0.379l0.141,0.122c0.096,0.083,0.115,0.225,0.043,0.33l-0.105,0.154
			c-0.086,0.126-0.04,0.299,0.098,0.366l0.168,0.081c0.114,0.055,0.169,0.188,0.127,0.308l-0.061,0.176
			c-0.05,0.144,0.039,0.299,0.189,0.328l0.183,0.035c0.125,0.024,0.212,0.137,0.203,0.264l-0.014,0.186
			c-0.011,0.152,0.115,0.279,0.268,0.268l0.186-0.014c0.127-0.009,0.24,0.078,0.264,0.203l0.035,0.183
			c0.029,0.15,0.184,0.24,0.328,0.189l0.176-0.061c0.12-0.042,0.252,0.013,0.308,0.127l0.081,0.168
			c0.066,0.138,0.24,0.184,0.366,0.098l0.154-0.105c0.105-0.072,0.247-0.053,0.33,0.043L16,12V4.133z"/>
		<path fill="#8D5B36" d="M16.001,11.998l0.31-0.359c0.083-0.096,0.225-0.115,0.33-0.043l0.154,0.105
			c0.126,0.086,0.299,0.04,0.366-0.098l0.081-0.168c0.055-0.114,0.188-0.169,0.308-0.127l0.176,0.061
			c0.144,0.05,0.299-0.039,0.328-0.189l0.035-0.183c0.024-0.125,0.137-0.212,0.264-0.203l0.186,0.014
			c0.152,0.011,0.279-0.115,0.268-0.268l-0.014-0.186c-0.009-0.127,0.078-0.24,0.203-0.264l0.183-0.035
			c0.15-0.029,0.24-0.184,0.189-0.328L19.307,9.55c-0.042-0.12,0.013-0.252,0.127-0.308l0.168-0.081
			c0.138-0.066,0.184-0.24,0.098-0.366l-0.105-0.154c-0.072-0.105-0.053-0.247,0.043-0.33l0.141-0.122
			c0.116-0.1,0.116-0.279,0-0.379l-0.141-0.122c-0.096-0.083-0.115-0.225-0.043-0.33l0.105-0.154
			c0.086-0.126,0.04-0.299-0.098-0.366l-0.168-0.081C19.32,6.702,19.265,6.57,19.307,6.45l0.061-0.176
			c0.05-0.144-0.039-0.299-0.189-0.328l-0.183-0.035c-0.125-0.024-0.212-0.137-0.203-0.264l0.014-0.186
			c0.011-0.152-0.115-0.279-0.268-0.268l-0.186,0.014c-0.127,0.009-0.24-0.078-0.264-0.203l-0.035-0.183
			c-0.029-0.15-0.184-0.24-0.328-0.189L17.55,4.693c-0.12,0.042-0.252-0.013-0.308-0.127l-0.081-0.168
			c-0.066-0.138-0.24-0.184-0.366-0.098l-0.154,0.105c-0.105,0.071-0.247,0.053-0.33-0.043L16.189,4.22
			C16.139,4.162,16.07,4.133,16,4.133V12L16.001,11.998z"/>
		<path fill="#FAE09F" d="M18,31l-1.302,0.434c-0.118,0.039-0.198,0.15-0.198,0.275v0.001c0,0.16,0.13,0.29,0.29,0.29H18V31z"/>
		<path fill="#FAE09F" d="M23,31l1.302,0.434c0.118,0.039,0.198,0.15,0.198,0.275v0.001c0,0.16-0.13,0.29-0.29,0.29H23V31z"/>
		<path fill="#FDEBBB" d="M14,31l1.302,0.434c0.118,0.039,0.198,0.15,0.198,0.275v0.001c0,0.16-0.13,0.29-0.29,0.29H14V31z"/>
		<path fill="#8D5B36" d="M25,3.134c-0.069,0-0.138,0.029-0.188,0.086l-0.123,0.142c-0.083,0.096-0.225,0.114-0.329,0.043
			l-0.155-0.105c-0.126-0.086-0.299-0.04-0.366,0.098l-0.081,0.168C23.702,3.68,23.57,3.735,23.45,3.693l-0.176-0.061
			c-0.144-0.05-0.299,0.039-0.328,0.189l-0.035,0.183c-0.024,0.125-0.137,0.212-0.264,0.203l-0.186-0.014
			c-0.152-0.011-0.279,0.115-0.268,0.268l0.014,0.186c0.009,0.127-0.078,0.24-0.203,0.264l-0.183,0.035
			c-0.15,0.029-0.24,0.184-0.189,0.328l0.061,0.176c0.042,0.12-0.013,0.252-0.127,0.308l-0.168,0.081
			c-0.138,0.066-0.184,0.24-0.098,0.366l0.105,0.154c0.072,0.105,0.053,0.247-0.043,0.33L21.22,6.811
			c-0.116,0.1-0.116,0.279,0,0.379l0.141,0.122c0.096,0.083,0.115,0.225,0.043,0.33l-0.105,0.154
			c-0.086,0.126-0.04,0.299,0.098,0.366l0.168,0.081c0.114,0.055,0.169,0.188,0.127,0.308l-0.061,0.176
			c-0.05,0.144,0.039,0.299,0.189,0.328l0.183,0.035c0.125,0.024,0.212,0.137,0.203,0.264l-0.014,0.186
			c-0.011,0.152,0.115,0.279,0.268,0.268l0.186-0.014c0.127-0.009,0.24,0.078,0.264,0.203l0.035,0.183
			c0.029,0.15,0.184,0.24,0.328,0.189l0.176-0.061c0.12-0.042,0.252,0.013,0.308,0.127l0.081,0.168
			c0.066,0.138,0.24,0.184,0.366,0.098l0.154-0.105c0.105-0.072,0.247-0.053,0.33,0.043L25,11V3.134z"/>
		<path fill="#845331" d="M28.639,6.689c-0.096-0.083-0.115-0.225-0.043-0.33l0.105-0.154c0.086-0.126,0.04-0.299-0.098-0.366
			l-0.168-0.081C28.32,5.702,28.265,5.57,28.307,5.45l0.061-0.176c0.05-0.144-0.039-0.299-0.189-0.328l-0.183-0.035
			c-0.125-0.024-0.212-0.137-0.203-0.264l0.014-0.186c0.011-0.152-0.115-0.279-0.268-0.268l-0.186,0.014
			c-0.127,0.009-0.24-0.078-0.264-0.203l-0.035-0.183c-0.029-0.15-0.184-0.24-0.328-0.189L26.55,3.693
			c-0.12,0.042-0.252-0.013-0.308-0.127l-0.081-0.168c-0.066-0.138-0.24-0.184-0.366-0.098l-0.154,0.105
			c-0.105,0.071-0.247,0.053-0.33-0.043l-0.121-0.14C25.14,3.163,25.07,3.134,25,3.134V11l0.001-0.002l0.31-0.359
			c0.083-0.096,0.225-0.115,0.33-0.043l0.154,0.105c0.126,0.086,0.299,0.04,0.366-0.098l0.081-0.168
			c0.055-0.114,0.188-0.169,0.308-0.127l0.176,0.061c0.144,0.05,0.299-0.039,0.328-0.189l0.035-0.183
			c0.024-0.125,0.137-0.212,0.264-0.203l0.186,0.014c0.152,0.011,0.279-0.115,0.268-0.268l-0.014-0.186
			c-0.009-0.127,0.078-0.24,0.203-0.264l0.183-0.035c0.15-0.029,0.24-0.184,0.189-0.328L28.307,8.55
			c-0.042-0.12,0.013-0.252,0.127-0.308l0.168-0.081c0.138-0.066,0.184-0.24,0.098-0.366l-0.105-0.154
			c-0.072-0.105-0.053-0.247,0.043-0.33l0.141-0.122c0.116-0.1,0.116-0.279,0-0.379L28.639,6.689z"/>
		<path fill="#F7D684" d="M25,8.414c-0.256,0-0.512,0.098-0.707,0.293l-0.002,0.002c-0.183,0.183-0.266,0.442-0.223,0.697
			l0.686,4.114c0.023,0.139,0.135,0.209,0.247,0.209V8.414z"/>
		<path fill="#F0C877" d="M25.247,13.52l0.686-4.114c0.042-0.255-0.041-0.515-0.223-0.697l-0.002-0.002
			C25.512,8.512,25.256,8.414,25,8.414v5.315C25.112,13.729,25.223,13.66,25.247,13.52z"/>
		<path fill="#FDEBBB" d="M7,8.414c-0.256,0-0.512,0.098-0.707,0.293L6.291,8.709C6.108,8.892,6.025,9.151,6.068,9.406l0.686,4.114
			C6.777,13.66,6.888,13.729,7,13.729V8.414z"/>
		<path fill="#FAE09F" d="M7.247,13.52l0.686-4.114c0.042-0.255-0.041-0.515-0.223-0.697L7.707,8.707
			C7.512,8.512,7.256,8.414,7,8.414v5.315C7.112,13.729,7.223,13.66,7.247,13.52z"/>
		<path fill="#FAE09F" d="M16,9.414c-0.256,0-0.512,0.098-0.707,0.293l-0.002,0.002c-0.183,0.183-0.266,0.442-0.223,0.697
			l0.686,4.114c0.023,0.139,0.135,0.209,0.247,0.209V9.414z"/>
		<path fill="#F7D684" d="M16.247,14.52l0.686-4.114c0.042-0.255-0.041-0.515-0.223-0.697l-0.002-0.002
			C16.512,9.512,16.256,9.414,16,9.414v5.315C16.112,14.729,16.223,14.66,16.247,14.52z"/>
		<path fill="#724D31" d="M16,5.171c-0.089-1.135-0.557-3.081-2.629-4.144c-0.161-0.082-0.354,0.031-0.364,0.213
			c-0.154,2.876,2.035,4.307,2.762,4.701C15.842,5.981,15.921,6,16,6V5.171z"/>
		<path fill="#604631" d="M16.23,5.941c0.727-0.394,2.916-1.826,2.762-4.701c-0.01-0.182-0.203-0.295-0.364-0.213
			C16.557,2.09,16.089,4.037,16,5.171V6C16.079,6,16.158,5.98,16.23,5.941z"/>
		<path fill="#604631" d="M25,4.171c-0.089-1.135-0.557-3.081-2.629-4.144c-0.161-0.082-0.354,0.031-0.364,0.213
			c-0.154,2.876,2.035,4.307,2.762,4.701C24.842,4.981,24.921,5,25,5V4.171z"/>
		<path fill="#4F4032" d="M25.23,4.941c0.727-0.394,2.916-1.826,2.762-4.701c-0.01-0.182-0.203-0.295-0.364-0.213
			C25.557,1.09,25.089,3.037,25,4.171V5C25.079,5,25.158,4.98,25.23,4.941z"/>
		<g>
			<path fill="#FFFFFF" d="M15.388,8.416l-1-0.659C14.221,7.648,14,7.767,14,7.966V8.75c0,0.139,0.113,0.251,0.252,0.25l1-0.008
				c0.137-0.001,0.248-0.113,0.248-0.25V8.625C15.5,8.541,15.458,8.462,15.388,8.416z"/>
			<path fill="#F7F7F7" d="M16.612,8.416l1-0.659C17.779,7.648,18,7.767,18,7.966V8.75c0,0.139-0.113,0.251-0.252,0.25l-1-0.008
				C16.611,8.991,16.5,8.879,16.5,8.742V8.625C16.5,8.541,16.542,8.462,16.612,8.416z"/>
			<path fill="#373F3F" d="M14.75,9L14.75,9c-0.138,0-0.25-0.112-0.25-0.25V7.831L15,8.161V8.75C15,8.888,14.888,9,14.75,9z"/>
			<path fill="#2B3332" d="M17.25,9L17.25,9c0.138,0,0.25-0.112,0.25-0.25V7.831L17,8.161V8.75C17,8.888,17.112,9,17.25,9z"/>
		</g>
		<path fill="#845331" d="M7,4.171C6.911,3.037,6.443,1.09,4.371,0.027C4.211-0.055,4.017,0.058,4.008,0.24
			C3.854,3.116,6.042,4.547,6.769,4.941C6.842,4.981,6.921,5,7,5V4.171z"/>
		<path fill="#724D31" d="M7.23,4.941c0.727-0.394,2.916-1.826,2.762-4.701c-0.01-0.182-0.203-0.295-0.364-0.213
			C7.557,1.09,7.089,3.037,7,4.171V5C7.079,5,7.158,4.98,7.23,4.941z"/>
		<g>
			<path fill="#FFFFFF" d="M6.388,7.416l-1-0.659C5.221,6.648,5,6.767,5,6.966V7.75C5,7.889,5.113,8.001,5.252,8l1-0.008
				C6.389,7.991,6.5,7.879,6.5,7.742V7.625C6.5,7.541,6.458,7.462,6.388,7.416z"/>
			<path fill="#F7F7F7" d="M7.612,7.416l1-0.659C8.779,6.648,9,6.767,9,6.966V7.75C9,7.889,8.887,8.001,8.748,8l-1-0.008
				C7.611,7.991,7.5,7.879,7.5,7.742V7.625C7.5,7.541,7.542,7.462,7.612,7.416z"/>
			<path fill="#373F3F" d="M5.75,8L5.75,8C5.612,8,5.5,7.888,5.5,7.75V6.831L6,7.161V7.75C6,7.888,5.888,8,5.75,8z"/>
			<path fill="#2B3332" d="M8.25,8L8.25,8C8.388,8,8.5,7.888,8.5,7.75V6.831L8,7.161V7.75C8,7.888,8.112,8,8.25,8z"/>
		</g>
		<g>
			<path fill="#FFFFFF" d="M24.388,7.416l-1-0.659C23.221,6.648,23,6.767,23,6.966V7.75c0,0.139,0.113,0.251,0.252,0.25l1-0.008
				c0.137-0.001,0.248-0.113,0.248-0.25V7.625C24.5,7.541,24.458,7.462,24.388,7.416z"/>
			<path fill="#F7F7F7" d="M25.612,7.416l1-0.659C26.779,6.648,27,6.767,27,6.966V7.75c0,0.139-0.113,0.251-0.252,0.25l-1-0.008
				C25.611,7.991,25.5,7.879,25.5,7.742V7.625C25.5,7.541,25.542,7.462,25.612,7.416z"/>
			<path fill="#373F3F" d="M23.75,8L23.75,8c-0.138,0-0.25-0.112-0.25-0.25V6.831L24,7.161V7.75C24,7.888,23.888,8,23.75,8z"/>
			<path fill="#2B3332" d="M26.25,8L26.25,8c0.138,0,0.25-0.112,0.25-0.25V6.831L26,7.161V7.75C26,7.888,26.112,8,26.25,8z"/>
		</g>
	</g>
</g>
<g id="labels">
</g>
</svg>
