<?xml version="1.0" encoding="utf-8"?>
<!-- Generator: Adobe Illustrator 23.0.6, SVG Export Plug-In . SVG Version: 6.00 Build 0)  -->
<svg version="1.1" xmlns="http://www.w3.org/2000/svg" xmlns:xlink="http://www.w3.org/1999/xlink" x="0px" y="0px" width="32px"
	 height="32px" viewBox="0 0 32 32" enable-background="new 0 0 32 32" xml:space="preserve">
<g id="icons">
	<g>
		<path fill="#D2E6F3" d="M8,20c0,0.407,0.035,0.794,0.087,1.17C6.573,22.953,4.355,24,2,24c-1.105,0-2,0.895-2,2
			c0,1.105,0.895,2,2,2h0.001c2.912,0,5.632-1.37,7.392-3.661C10.744,26.041,13.019,27,16,27V13C11.029,13,8,15.651,8,20z"/>
		<path fill="#C1DDEE" d="M30,24c-2.355,0-4.573-1.047-6.087-2.83C23.965,20.794,24,20.407,24,20c0-4.349-3.029-7-8-7v14
			c2.981,0,5.256-0.959,6.606-2.661C24.367,26.63,27.086,28,29.999,28H30c1.105,0,2-0.895,2-2C32,24.895,31.105,24,30,24z"/>
		<path fill="#B0D3EA" d="M20.855,5.962c0.724-1.99,3.196-2.585,4.763-1.233c0.258-0.121,0.543-0.194,0.847-0.194
			c1.105,0,2,0.895,2,2c0,0.304-0.073,0.589-0.194,0.847c1.352,1.568,0.757,4.04-1.233,4.763l-6.573,2.39l-2-2L20.855,5.962z"/>
		<path fill="#C1DDEE" d="M11.145,5.962c-0.724-1.99-3.196-2.585-4.763-1.233C6.124,4.608,5.839,4.535,5.535,4.535
			c-1.105,0-2,0.895-2,2c0,0.304,0.073,0.589,0.194,0.847c-1.352,1.568-0.757,4.04,1.233,4.763l6.573,2.39l2-2L11.145,5.962z"/>
		<path fill="#E2EFF7" d="M15.553,3.894L13.855,7.29C11.365,7.974,10,9.93,10,13c0,3.866,2.134,6,6,6V3.618
			C15.822,3.618,15.645,3.71,15.553,3.894z"/>
		<path fill="#D2E6F3" d="M18.145,7.29l-1.698-3.396C16.355,3.71,16.177,3.618,16,3.618V19c3.866,0,6-2.134,6-6
			C22,9.93,20.635,7.974,18.145,7.29z"/>
		<g>
			<ellipse fill="#5BD3D5" cx="13" cy="11.5" rx="1" ry="1.5"/>
			<path fill="#373F3F" d="M14,11.5c0,0.828-0.448,1-1,1s-1-0.172-1-1s0.448-1.5,1-1.5S14,10.672,14,11.5z"/>
			<circle fill="#FFFFFF" cx="13" cy="11" r="0.5"/>
		</g>
		<g>
			<ellipse fill="#56C7CD" cx="19" cy="11.5" rx="1" ry="1.5"/>
			<path fill="#2B3332" d="M20,11.5c0,0.828-0.448,1-1,1s-1-0.172-1-1s0.448-1.5,1-1.5S20,10.672,20,11.5z"/>
			<circle fill="#F7F7F7" cx="19" cy="11" r="0.5"/>
		</g>
		<path fill="#FFF3D9" d="M16,14.8c-0.635-0.523-1.519-0.8-2.5-0.8c-1.933,0-3.5,1.067-3.5,3s1.567,3,3.5,3
			c0.981,0,1.865-0.277,2.5-0.8V14.8z"/>
		<path fill="#FDEBBB" d="M18.5,20c1.933,0,3.5-1.067,3.5-3s-1.567-3-3.5-3c-0.981,0-1.865,0.277-2.5,0.8v4.4
			C16.635,19.723,17.519,20,18.5,20z"/>
		<path fill="#F7F7F7" d="M18,18.602h1.113c0.683,0,1.165-0.669,0.949-1.316l-0.37-1.111c-0.07-0.211-0.361-0.232-0.461-0.033
			L18,18.602z"/>
		<path fill="#F8A1C4" d="M18.5,18.806v-0.29c0-0.495-0.318-0.947-0.822-1.168l-0.001,0C17.149,17.116,16.575,17,16,17v4
			C17.381,21,18.5,20.018,18.5,18.806z"/>
		<path fill="#373F3F" d="M16,14.001c-0.552,0-1-0.032-1,0.25c0,0.414,0.448,0.75,1,0.75V14.001z"/>
		<path fill="#2B3332" d="M17,14.251c0-0.282-0.448-0.25-1-0.25v1C16.552,15.001,17,14.665,17,14.251z"/>
		<path fill="#FFFFFF" d="M14,18.602h-1.113c-0.683,0-1.165-0.669-0.949-1.316l0.37-1.111c0.07-0.211,0.361-0.232,0.461-0.033
			L14,18.602z"/>
		<path fill="#F9ADC8" d="M16,17c-0.575,0-1.149,0.116-1.677,0.347l-0.001,0c-0.504,0.221-0.822,0.673-0.822,1.168v0.29
			C13.5,20.018,14.619,21,16,21V17z"/>
		<path fill="#C1DDEE" d="M10.411,22.884l-0.638,0.957c-0.112,0.168-0.242,0.32-0.364,0.479C10.757,26.025,13.016,27,16,27v-3
			C14.012,24,12.045,23.605,10.411,22.884z"/>
		<path fill="#B0D3EA" d="M22.227,23.841l-0.638-0.957C19.955,23.605,17.988,24,16,24v3c2.984,0,5.243-0.975,6.592-2.68
			C22.47,24.16,22.339,24.009,22.227,23.841z"/>
	</g>
</g>
<g id="labels">
</g>
</svg>
