<?xml version="1.0" encoding="utf-8"?>
<!-- Generator: Adobe Illustrator 23.0.6, SVG Export Plug-In . SVG Version: 6.00 Build 0)  -->
<svg version="1.1" xmlns="http://www.w3.org/2000/svg" xmlns:xlink="http://www.w3.org/1999/xlink" x="0px" y="0px" width="32px"
	 height="32px" viewBox="0 0 32 32" enable-background="new 0 0 32 32" xml:space="preserve">
<g id="icons">
	<g>
		<path fill="#54B668" d="M6,20l-1.142,0.761c-1.062,0.708-1.43,2.095-0.86,3.237L4,24h12v-4H6z"/>
		<path fill="#4EAC5D" d="M26,20l1.142,0.761c1.062,0.708,1.43,2.095,0.86,3.237L28,24H16v-4H26z"/>
		<path fill="#4EAC5D" d="M4,24l-3.317,1.658C0.265,25.868,0,26.296,0,26.764v0C0,27.447,0.553,28,1.236,28H16l0-4H4z"/>
		<path fill="#48A353" d="M28,24l3.317,1.658C31.735,25.868,32,26.296,32,26.764v0C32,27.447,31.447,28,30.764,28H16l0-4H28z"/>
		<path fill="#60C46F" d="M9,9.167L8.254,11H6.268c-1.462,0-2.899-0.385-4.165-1.116l0,0c-0.478-0.276-1.09-0.112-1.366,0.366v0
			c-0.276,0.478-0.112,1.09,0.366,1.366l0.003,0.001C1.287,11.722,1.213,12,1.003,12H1c-0.552,0-1,0.448-1,1s0.448,1,1,1h0.003
			c0.21,0,0.284,0.278,0.102,0.383l-0.003,0.001c-0.478,0.276-0.642,0.888-0.366,1.366c0.276,0.478,0.888,0.642,1.366,0.366
			C3.369,15.385,4.806,15,6.268,15h0.359l-1.095,2.691c-0.323,0.793-0.139,1.703,0.467,2.309L6,20h10V9.167H9z"/>
		<path fill="#54B668" d="M30.997,14H31c0.552,0,1-0.448,1-1s-0.448-1-1-1h-0.003c-0.21,0-0.284-0.278-0.102-0.383l0.003-0.001
			c0.478-0.276,0.642-0.888,0.366-1.366v0c-0.276-0.478-0.888-0.642-1.366-0.366l0,0C28.631,10.615,27.194,11,25.732,11h-1.986
			L23,9.167h-7V20h10L26,19.999c0.606-0.606,0.79-1.515,0.467-2.309L25.373,15h0.359c1.462,0,2.899,0.385,4.165,1.116
			c0.478,0.276,1.09,0.112,1.366-0.366c0.276-0.478,0.112-1.09-0.366-1.366l-0.003-0.001C30.713,14.278,30.787,14,30.997,14z"/>
		<path fill="#FFE28A" d="M16,9.167H9C9,9.167,8.625,19,16,19V9.167z"/>
		<path fill="#FFD96C" d="M16,9.167V19v1.417c0,0.552,0.448,1,1,1s1-0.448,1-1c0-0.932,0.493-1.791,1.291-2.272
			C23.248,15.755,23,9.167,23,9.167H16z"/>
		<path fill="#373F3F" d="M16,11.667h-4C12,13.876,12,18,16,18V11.667z"/>
		<path fill="#2B3332" d="M20,11.667h-4V18C20,18,20,13.876,20,11.667z"/>
		<path fill="#6CD275" d="M16,2.167c-3.866,0-7,3.134-7,7c0,3.083,7,3,7,3V2.167z"/>
		<path fill="#60C46F" d="M23,9.167c0-3.866-3.134-7-7-7v10C16,12.167,23,12.25,23,9.167z"/>
		<path fill="#FFFFFF" d="M13,7.5C13,8.328,12.828,9,12,9s-2-0.672-2-1.5S10.672,6,11.5,6S13,6.672,13,7.5z"/>
		<circle fill="#373F3F" cx="11.75" cy="7.75" r="0.5"/>
		<path fill="#F7F7F7" d="M22,7.5C22,8.328,20.828,9,20,9s-1-0.672-1-1.5S19.672,6,20.5,6S22,6.672,22,7.5z"/>
		<circle fill="#2B3332" cx="20.25" cy="7.75" r="0.5"/>
		<path fill="#4896C8" d="M16,13c-0.917-0.5-2.99-0.387-2.965,0.04C13.184,15.569,13.854,17,16,17V13z"/>
		<path fill="#4390BF" d="M16,13c0.917-0.5,2.99-0.387,2.965,0.04C18.816,15.569,18.146,17,16,17V13z"/>
		<path fill="#F7F7F7" d="M12.5,11.823V12.5c0,0.276,0.224,0.5,0.5,0.5h1c0.276,0,0.5-0.224,0.5-0.5v-0.399
			C13.908,12.053,13.207,11.97,12.5,11.823z"/>
		<path fill="#EDEEEE" d="M17.5,12.5c0,0.276,0.224,0.5,0.5,0.5h1c0.276,0,0.5-0.224,0.5-0.5v-0.677
			c-0.707,0.147-1.408,0.23-2,0.278V12.5z"/>
	</g>
</g>
<g id="labels">
</g>
</svg>
