<?xml version="1.0" encoding="utf-8"?>
<!-- Generator: Adobe Illustrator 23.0.6, SVG Export Plug-In . SVG Version: 6.00 Build 0)  -->
<svg version="1.1" xmlns="http://www.w3.org/2000/svg" xmlns:xlink="http://www.w3.org/1999/xlink" x="0px" y="0px" width="32px"
	 height="32px" viewBox="0 0 32 32" enable-background="new 0 0 32 32" xml:space="preserve">
<g id="icons">
	<g>
		<g>
			<g>
				<path fill="#54B668" d="M15.997,8.167c-2.643,0-5.12,1.39-6.997,3.389V8H6L5.395,18.258c-0.004,0.038-0.005,0.074-0.007,0.112
					l-0.011,0.183l0.021-0.003c0.015,0.534,0.209,1.056,0.602,1.449L6,20h10V8.167H15.997z"/>
				<path fill="#4EAC5D" d="M26.623,18.554l-0.011-0.184c-0.002-0.038-0.002-0.074-0.007-0.111L26,8h-3v3.555
					c-1.876-1.999-4.354-3.389-6.997-3.389H16V20h10L26,19.999c0.393-0.393,0.587-0.915,0.602-1.449L26.623,18.554z"/>
				<path fill="#137FA0" d="M6,20l-1.142,0.761c-1.062,0.708-1.43,2.095-0.86,3.237L4,24h12v-4H6z"/>
				<path fill="#0F769B" d="M26,20l1.142,0.761c1.062,0.708,1.43,2.095,0.86,3.237L28,24H16v-4H26z"/>
				<path fill="#FFE28A" d="M4,24l-3.317,1.658C0.265,25.868,0,26.296,0,26.764v0C0,27.447,0.553,28,1.236,28H16l0-4H4z"/>
				<path fill="#FFD96C" d="M28,24l3.317,1.658C31.735,25.868,32,26.296,32,26.764v0C32,27.447,31.447,28,30.764,28H16l0-4H28z"/>
				<path fill="#FFFFFF" d="M14.48,12.768c0.151-0.12,0.113-0.358-0.067-0.427C14.032,12.194,13.41,12,12.787,12
					s-1.245,0.194-1.627,0.34c-0.18,0.069-0.218,0.307-0.067,0.427c0.372,0.296,1.033,0.732,1.693,0.732S14.108,13.064,14.48,12.768
					z"/>
				<path fill="#373F3F" d="M12.787,12.25c0,0.414,0.224,0.75,0.5,0.75s0.5-0.336,0.5-0.75c0-0.04-0.011-0.074-0.015-0.112
					c-0.293-0.075-0.62-0.132-0.952-0.135C12.802,12.081,12.787,12.162,12.787,12.25z"/>
				<path fill="#F7F7F7" d="M17.52,12.768c-0.151-0.12-0.113-0.358,0.067-0.427C17.968,12.194,18.59,12,19.213,12
					s1.245,0.194,1.627,0.34c0.18,0.069,0.218,0.307,0.067,0.427c-0.372,0.296-1.033,0.732-1.693,0.732
					C18.552,13.5,17.892,13.064,17.52,12.768z"/>
				<path fill="#373F3F" d="M16,14.724c-1.1,0-2.199-0.091-3.288-0.272l-1.997-0.333c-0.345-0.057-0.641,0.248-0.572,0.591
					l0.536,2.682C10.865,18.327,11.686,19,12.64,19H16V14.724z"/>
				<path fill="#7A63AD" d="M16,17L16,17c-2.031,0-3.879,0.191-5.289,0.502C10.939,18.378,11.725,19,12.64,19H16V17z"/>
				<path fill="#2B3332" d="M19.213,12.25c0,0.414-0.224,0.75-0.5,0.75s-0.5-0.336-0.5-0.75c0-0.04,0.011-0.074,0.015-0.112
					c0.293-0.075,0.62-0.132,0.952-0.135C19.198,12.081,19.213,12.162,19.213,12.25z"/>
				<path fill="#FF5F7E" d="M9.5,5.549L9.5,5.549c0,0.272,0.072,0.539,0.208,0.775l0.909,1.574c0.276,0.478,0.112,1.09-0.366,1.366
					h0C9.772,9.539,9.16,9.375,8.884,8.897L8.883,8.895C8.778,8.713,8.5,8.787,8.5,8.997V9c0,0.552-0.448,1-1,1s-1-0.448-1-1V8.997
					c0-0.21-0.278-0.284-0.383-0.102L6.116,8.897C5.84,9.375,5.228,9.539,4.75,9.263C4.272,8.987,4.108,8.375,4.384,7.897
					l0.908-1.574C5.428,6.088,5.5,5.821,5.5,5.549v0C5.5,4.694,6.193,4,7.049,4h0.902C8.806,4,9.5,4.694,9.5,5.549z"/>
				<path fill="#F3586F" d="M22.5,5.549L22.5,5.549c0,0.272-0.072,0.539-0.208,0.775l-0.909,1.574
					c-0.276,0.478-0.112,1.09,0.366,1.366h0c0.478,0.276,1.09,0.112,1.366-0.366l0.001-0.003C23.222,8.713,23.5,8.787,23.5,8.997V9
					c0,0.552,0.448,1,1,1s1-0.448,1-1V8.997c0-0.21,0.278-0.284,0.383-0.102l0.001,0.003c0.276,0.478,0.888,0.642,1.366,0.366
					c0.478-0.276,0.642-0.888,0.366-1.366l-0.908-1.574C26.572,6.088,26.5,5.821,26.5,5.549v0C26.5,4.694,25.807,4,24.951,4h-0.902
					C23.194,4,22.5,4.694,22.5,5.549z"/>
			</g>
			<g>
				<path fill="#2B3332" d="M19.007,15.53l-0.253-1.011c-0.914,0.127-1.834,0.206-2.755,0.206V19h2.625l0.382-1.53
					C19.167,16.833,19.167,16.167,19.007,15.53z"/>
				<path fill="#2B3332" d="M21.285,14.119l-0.981,0.164l-0.312,1.247c-0.159,0.637-0.159,1.303,0,1.94l0.321,1.285
					c0.507-0.276,0.888-0.764,1.008-1.363l0.536-2.682C21.927,14.367,21.631,14.062,21.285,14.119z"/>
			</g>
			<g>
				<g>
					<path fill="#6E57A0" d="M19.065,17.158C18.12,17.058,17.09,17,16,17v2h2.625l0.382-1.53
						C19.033,17.367,19.048,17.262,19.065,17.158z"/>
					<path fill="#6E57A0" d="M19.955,17.268c0.013,0.067,0.021,0.136,0.038,0.202l0.321,1.286c0.473-0.259,0.833-0.707,0.975-1.254
						C20.882,17.412,20.429,17.336,19.955,17.268z"/>
				</g>
				<g>
					<path fill="#6E57A0" d="M19.065,17.158C18.12,17.058,17.09,17,16,17v2h2.625l0.382-1.53
						C19.033,17.367,19.048,17.262,19.065,17.158z"/>
					<path fill="#6E57A0" d="M19.955,17.268c0.013,0.067,0.021,0.136,0.038,0.202l0.321,1.286c0.473-0.259,0.833-0.707,0.975-1.254
						C20.882,17.412,20.429,17.336,19.955,17.268z"/>
				</g>
			</g>
		</g>
		<path fill="#60C46F" d="M16,8.167C10.133,8.167,4.722,15.19,5.999,20H16V8.167z"/>
		<path fill="#54B668" d="M16,8.167c5.867,0,11.278,7.024,10.001,11.833H16V8.167z"/>
		<path fill="#F3586F" d="M26.165,18H16v2h10.001C26.169,19.365,26.215,18.691,26.165,18z"/>
		<path fill="#FF5F7E" d="M5.835,18c-0.05,0.691-0.005,1.365,0.164,2H16v-2H5.835z"/>
		<path fill="#FFE28A" d="M5.835,18H16v-6H8.57C7.018,13.792,5.983,15.967,5.835,18z"/>
		<path fill="#FFD96C" d="M16,18h10.165c-0.147-2.033-1.182-4.208-2.735-6H16V18z"/>
		<path fill="#373F3F" d="M16,14.724c-1.1,0-2.199-0.091-3.288-0.272l-1.997-0.333c-0.345-0.057-0.641,0.248-0.572,0.591
			l0.536,2.682C10.865,18.327,11.686,19,12.64,19H16V14.724z"/>
		<path fill="#0F769B" d="M16,17L16,17c-2.031,0-3.879,0.191-5.289,0.502C10.939,18.378,11.725,19,12.64,19H16V17z"/>
		<g>
			<path fill="#2B3332" d="M19.007,15.53l-0.253-1.011c-0.914,0.127-1.834,0.206-2.755,0.206V19h2.625l0.382-1.53
				C19.167,16.833,19.167,16.167,19.007,15.53z"/>
			<path fill="#2B3332" d="M21.285,14.119l-0.981,0.164l-0.312,1.247c-0.159,0.637-0.159,1.303,0,1.94l0.321,1.285
				c0.507-0.276,0.888-0.764,1.008-1.363l0.536-2.682C21.927,14.367,21.631,14.062,21.285,14.119z"/>
		</g>
		<path fill="#0A6F8E" d="M19.065,17.158C18.12,17.058,17.09,17,16,17v2h2.625l0.382-1.53
			C19.033,17.367,19.048,17.262,19.065,17.158z"/>
		<path fill="#0A6F8E" d="M19.955,17.268c0.013,0.067,0.021,0.136,0.038,0.202l0.321,1.286c0.473-0.259,0.833-0.707,0.975-1.254
			C20.882,17.412,20.429,17.336,19.955,17.268z"/>
		<path fill="#FFFFFF" d="M14.48,12.768c0.151-0.12,0.113-0.358-0.067-0.427C14.032,12.194,13.41,12,12.787,12
			s-1.245,0.194-1.627,0.34c-0.18,0.069-0.218,0.307-0.067,0.427c0.372,0.296,1.033,0.732,1.693,0.732S14.108,13.064,14.48,12.768z"
			/>
		<path fill="#373F3F" d="M12.787,12.25c0,0.414,0.224,0.75,0.5,0.75s0.5-0.336,0.5-0.75c0-0.04-0.011-0.074-0.015-0.112
			c-0.293-0.075-0.62-0.132-0.952-0.135C12.802,12.081,12.787,12.162,12.787,12.25z"/>
		<path fill="#F7F7F7" d="M17.52,12.768c-0.151-0.12-0.113-0.358,0.067-0.427C17.968,12.194,18.59,12,19.213,12
			s1.245,0.194,1.627,0.34c0.18,0.069,0.218,0.307,0.067,0.427c-0.372,0.296-1.033,0.732-1.693,0.732
			C18.552,13.5,17.892,13.064,17.52,12.768z"/>
		<path fill="#2B3332" d="M19.213,12.25c0,0.414-0.224,0.75-0.5,0.75s-0.5-0.336-0.5-0.75c0-0.04,0.011-0.074,0.015-0.112
			c0.293-0.075,0.62-0.132,0.952-0.135C19.198,12.081,19.213,12.162,19.213,12.25z"/>
		<path fill="#FFFFFF" d="M13.75,19.526c0,0.632-1.5,0.632-1.5,0S12.379,18,13,18S13.75,18.894,13.75,19.526z"/>
		<path fill="#F7F7F7" d="M24.75,24.026c0,0.632-1.5,0.632-1.5,0S23.379,22.5,24,22.5C24.621,22.5,24.75,23.394,24.75,24.026z"/>
		<path fill="#F7F7F7" d="M16.25,14.474c0-0.632,1.5-0.632,1.5,0S17.621,16,17,16C16.379,16,16.25,15.106,16.25,14.474z"/>
	</g>
</g>
<g id="labels">
</g>
</svg>
