<?xml version="1.0" encoding="utf-8"?>
<!-- Generator: Adobe Illustrator 23.0.6, SVG Export Plug-In . SVG Version: 6.00 Build 0)  -->
<svg version="1.1" xmlns="http://www.w3.org/2000/svg" xmlns:xlink="http://www.w3.org/1999/xlink" x="0px" y="0px" width="32px"
	 height="32px" viewBox="0 0 32 32" enable-background="new 0 0 32 32" xml:space="preserve">
<g id="icons">
	<g>
		<path fill="#FCA15E" d="M25.497,22.195l2.349,4.697c0.36,0.72,0.068,1.594-0.651,1.954h0c-0.436,0.218-0.951,0.203-1.374-0.038
			l-6.323-3.613L25.497,22.195z"/>
		<path fill="#FFAD68" d="M6.503,22.195l-2.349,4.697c-0.36,0.72-0.068,1.594,0.651,1.954h0c0.436,0.218,0.951,0.203,1.374-0.038
			l6.323-3.613L6.503,22.195z"/>
		<path fill="#FFAD68" d="M16,17h9.921c1.251,0,2.37,0.776,2.809,1.947l2.017,5.378c0.154,0.411,0.054,0.875-0.257,1.185
			l-0.001,0.001c-0.3,0.3-0.744,0.405-1.146,0.271l-2.218-0.739c-1.597-0.532-3.319-0.326-4.813,0.451
			C20.479,26.446,18.317,27,16,27V17z"/>
		<path fill="#FFB76D" d="M16,17H6.079c-1.251,0-2.37,0.776-2.809,1.947l-2.017,5.378c-0.154,0.411-0.054,0.875,0.257,1.185
			l0.001,0.001c0.3,0.3,0.744,0.405,1.146,0.271l2.218-0.739c1.597-0.532,3.319-0.326,4.813,0.451C11.521,26.446,13.683,27,16,27V17
			z"/>
		<path fill="#58458C" d="M16,8C9.925,8,5,12.029,5,17c0,4.971,4.925,9,11,9V8z"/>
		<path fill="#534184" d="M27,17c0-4.971-4.925-9-11-9v18C22.075,26,27,21.971,27,17z"/>
		<path fill="#FFB76D" d="M6.578,7.664L1.463,5.107C1.075,4.912,0.605,4.988,0.298,5.296L0.296,5.298
			C0.004,5.59-0.081,6.03,0.082,6.41l2.353,5.489c-0.465,0.791-0.837,1.623-1.079,2.497c-0.126,0.455,0.408,0.796,0.786,0.515
			C5.339,12.535,10.35,11,16,11V5C12.43,5,9.153,5.999,6.578,7.664z"/>
		<path fill="#FCA15E" d="M31.704,5.298l-0.002-0.002c-0.307-0.307-0.777-0.384-1.166-0.189l-5.115,2.557C22.847,5.999,19.57,5,16,5
			v6c5.65,0,10.661,1.535,13.858,3.911c0.379,0.281,0.912-0.06,0.786-0.515c-0.242-0.874-0.613-1.706-1.079-2.497l2.353-5.489
			C32.081,6.03,31.996,5.59,31.704,5.298z"/>
		<path fill="#FFB76D" d="M8,6.86v5.255C10.397,11.405,13.113,11,16,11V5C13.056,5,10.317,5.687,8,6.86z"/>
		<path fill="#FFAD68" d="M24,6.86v5.255C21.603,11.405,18.887,11,16,11V5C18.944,5,21.683,5.687,24,6.86z"/>
		<circle fill="#FFFFFF" cx="10.5" cy="16.5" r="3.5"/>
		<circle fill="#373F3F" cx="10.5" cy="16.5" r="0.5"/>
		<circle fill="#F7F7F7" cx="21.5" cy="16.5" r="3.5"/>
		<circle fill="#2B3332" cx="21.5" cy="16.5" r="0.5"/>
		<path fill="#FFB0C2" d="M16,29.513V21h-1.022c-1.2,0-2.285,0.715-2.757,1.818l-0.911,2.126c-0.705,1.645,0.146,3.541,1.844,4.107
			v0C14.078,29.359,15.039,29.513,16,29.513z"/>
		<path fill="#FF97AF" d="M19.779,22.818C19.307,21.715,18.222,21,17.022,21H16v8.513c0.961,0,1.922-0.154,2.846-0.462v0
			c1.698-0.566,2.549-2.462,1.844-4.107L19.779,22.818z"/>
	</g>
</g>
<g id="labels">
</g>
</svg>
