<?xml version="1.0" encoding="utf-8"?>
<!-- Generator: Adobe Illustrator 23.0.6, SVG Export Plug-In . SVG Version: 6.00 Build 0)  -->
<svg version="1.1" xmlns="http://www.w3.org/2000/svg" xmlns:xlink="http://www.w3.org/1999/xlink" x="0px" y="0px" width="32px"
	 height="32px" viewBox="0 0 32 32" enable-background="new 0 0 32 32" xml:space="preserve">
<g id="icons">
	<g>
		<g>
			<path fill="#604893" d="M20,30L20,30c-1.249,0-2.416-0.624-3.109-1.664L16,27V13l1.586-5.549C17.831,6.592,18.616,6,19.509,6H20
				h0.5v3.207l1.849,1.849l-1.197,1.696c0,0,2.344,1.79,2.344,5.248s-2.344,5.248-2.344,5.248l1.197,1.696L20.5,26.793V30H20z"/>
			<path fill="#866EBA" d="M20.998,6l2,2l2.5-0.5l-0.532-0.532c-0.235-0.235-0.18-0.629,0.11-0.79l6.55-3.647
				c0.22-0.122,0.462,0.12,0.34,0.34l-3.647,6.55c-0.161,0.29-0.556,0.345-0.79,0.11L26.998,9l-2,3l1.709,0.19
				c0.337,0.037,0.632,0.243,0.784,0.547l0.487,0.975c0.166,0.331,0.135,0.727-0.081,1.028l-0.9,1.26v1l4.51,0.902
				c0.285,0.057,0.49,0.307,0.49,0.598l0,0c0,0.291-0.205,0.541-0.49,0.598L26.998,20v1l0.9,1.26
				c0.215,0.301,0.246,0.697,0.081,1.028l-0.487,0.975c-0.152,0.303-0.447,0.509-0.784,0.547L24.998,25v1l2.576,3.434
				c0.243,0.325,0.211,0.779-0.076,1.066l0,0c-0.287,0.287-0.741,0.319-1.066,0.076L22.998,28l-2,2h-0.5v-2.793l2.151-2.151
				l-1.203-1.705c0,0,2.048-2.936,2.048-5.351s-1.548-5.351-1.548-5.351l0.703-1.705l-2.151-2.151V6H20.998z"/>
			<path fill="#9179C6" d="M20,30h1v-2.379c0-0.265,0.105-0.52,0.293-0.707l1.263-1.263c0.344-0.344,0.391-0.886,0.11-1.284
				l-0.718-1.017c2.73-3.033,2.73-7.668,0-10.701l0.718-1.017c0.281-0.398,0.234-0.94-0.11-1.284l-1.263-1.263
				C21.105,8.898,21,8.644,21,8.379V6h-1v2.379c0,0.53,0.211,1.039,0.586,1.414l1.263,1.263l-0.954,1.352
				c-0.14,0.199-0.117,0.47,0.055,0.642l0,0c2.734,2.734,2.734,7.166,0,9.9l0,0c-0.172,0.172-0.195,0.443-0.055,0.642l0.954,1.352
				l-1.263,1.263C20.211,26.582,20,27.091,20,27.621V30z"/>
		</g>
		<path fill="#675099" d="M12,30L12,30c1.249,0,2.416-0.624,3.109-1.664L16,27V13l-1.586-5.549C14.169,6.592,13.384,6,12.491,6H12
			h-0.5v3.207l-1.849,1.849l1.197,1.696c0,0-2.344,1.79-2.344,5.248s2.344,5.248,2.344,5.248l-1.197,1.696l1.849,1.849V30H12z"/>
		<path fill="#9179C6" d="M11.002,6l-2,2l-2.5-0.5l0.532-0.532c0.235-0.235,0.18-0.629-0.11-0.79l-6.55-3.647
			c-0.22-0.122-0.462,0.12-0.34,0.34l3.647,6.55c0.161,0.29,0.556,0.345,0.79,0.11L5.002,9l2,3l-1.709,0.19
			c-0.337,0.037-0.632,0.243-0.784,0.547l-0.487,0.975c-0.166,0.331-0.135,0.727,0.081,1.028l0.9,1.26v1l-4.51,0.902
			c-0.285,0.057-0.49,0.307-0.49,0.598l0,0c0,0.291,0.205,0.541,0.49,0.598L5.002,20v1l-0.9,1.26
			c-0.215,0.301-0.246,0.697-0.081,1.028l0.487,0.975c0.152,0.303,0.447,0.509,0.784,0.547L7.002,25v1l-2.576,3.434
			c-0.243,0.325-0.211,0.779,0.076,1.066h0c0.287,0.287,0.741,0.319,1.066,0.076L9.002,28l2,2h0.5v-2.793L9.35,25.056l1.203-1.705
			c0,0-2.048-2.936-2.048-5.351s1.548-5.351,1.548-5.351L9.35,10.944l2.151-2.151V6H11.002z"/>
		<path fill="#7A63AD" d="M15.521,6.596l-1.269,4.229c-0.26,0.866-0.772,1.658-1.529,2.153C11.084,14.048,10,15.896,10,18
			c0,3.314,2.686,6,6,6v-9v-3V6.24C15.796,6.24,15.592,6.359,15.521,6.596z"/>
		<path fill="#6E57A0" d="M19.277,12.978c-0.757-0.494-1.27-1.287-1.529-2.153l-1.269-4.229C16.408,6.359,16.204,6.24,16,6.24V12v3
			v9c3.314,0,6-2.686,6-6C22,15.896,20.916,14.048,19.277,12.978z"/>
		<path fill="#373F3F" d="M16,13c-2.761,0-5,2.239-5,5s2.239,5,5,5V13z"/>
		<path fill="#2B3332" d="M21,18c0-2.761-2.239-5-5-5v10C18.761,23,21,20.761,21,18z"/>
		<g>
			<path fill="#FFFFFF" d="M15.221,18.221c0.104,0.104,0.103,0.285-0.014,0.374c-0.784,0.595-1.906,0.535-2.621-0.181
				c-0.715-0.715-0.776-1.838-0.181-2.621c0.089-0.117,0.27-0.117,0.374-0.014L15.221,18.221z"/>
			<path fill="#373F3F" d="M14.472,17.472l-0.945-0.945C13.511,16.677,13.5,16.834,13.5,17c0,0.828,0.224,1.5,0.5,1.5
				C14.221,18.5,14.406,18.068,14.472,17.472z"/>
		</g>
		<g>
			<path fill="#EDEEEE" d="M16.779,18.221c-0.104,0.104-0.103,0.285,0.014,0.374c0.784,0.595,1.906,0.535,2.621-0.181
				s0.776-1.838,0.181-2.621c-0.089-0.117-0.27-0.117-0.374-0.014L16.779,18.221z"/>
			<path fill="#2B3332" d="M17.528,17.472l0.945-0.945C18.489,16.677,18.5,16.834,18.5,17c0,0.828-0.224,1.5-0.5,1.5
				C17.779,18.5,17.594,18.068,17.528,17.472z"/>
		</g>
		<path fill="#FFFFFF" d="M16,21c-0.722,0-1.201-0.103-1.509-0.216c-0.214-0.078-0.422,0.143-0.314,0.344
			C14.397,21.538,14.891,22,16,22V21z"/>
		<path fill="#EDEEEE" d="M17.509,20.784C17.201,20.897,16.722,21,16,21v1c1.109,0,1.603-0.462,1.823-0.873
			C17.931,20.927,17.723,20.705,17.509,20.784z"/>
		<path fill="#9D85D3" d="M12,30h-1v-2.379c0-0.265-0.105-0.52-0.293-0.707l-1.263-1.263c-0.344-0.344-0.391-0.886-0.11-1.284
			l0.718-1.017c-2.73-3.033-2.73-7.668,0-10.701l-0.718-1.017c-0.281-0.398-0.234-0.94,0.11-1.284l1.263-1.263
			C10.895,8.898,11,8.644,11,8.379V6h1v2.379c0,0.53-0.211,1.039-0.586,1.414l-1.263,1.263l0.954,1.352
			c0.14,0.199,0.117,0.47-0.055,0.642l0,0c-2.734,2.734-2.734,7.166,0,9.9l0,0c0.172,0.172,0.195,0.443,0.055,0.642l-0.954,1.352
			l1.263,1.263C11.789,26.582,12,27.091,12,27.621V30z"/>
	</g>
</g>
<g id="labels">
</g>
</svg>
