<?xml version="1.0" encoding="utf-8"?>
<!-- Generator: Adobe Illustrator 23.0.6, SVG Export Plug-In . SVG Version: 6.00 Build 0)  -->
<svg version="1.1" xmlns="http://www.w3.org/2000/svg" xmlns:xlink="http://www.w3.org/1999/xlink" x="0px" y="0px" width="32px"
	 height="32px" viewBox="0 0 32 32" enable-background="new 0 0 32 32" xml:space="preserve">
<g id="icons">
	<g>
		<path fill="#866EBA" d="M0.581,8.955l3.66,0.587L0.065,2.026c-0.233-0.42,0.202-0.895,0.64-0.7l6.572,2.921
			C9.466,2.187,12.559,1,16,1v26c-3.872,0-7.307-2.865-9.501-6.563L1.18,15.934c-0.396-0.334-0.085-0.976,0.423-0.872l2.598,0.534
			L0.092,9.735C-0.162,9.374,0.144,8.885,0.581,8.955z"/>
		<path fill="#7A63AD" d="M31.419,8.955l-3.66,0.587l4.175-7.516c0.233-0.42-0.202-0.895-0.64-0.7l-6.572,2.921
			C22.534,2.187,19.441,1,16,1v26c3.872,0,7.307-2.865,9.501-6.563l5.319-4.503c0.396-0.334,0.085-0.976-0.423-0.872l-2.598,0.534
			l4.109-5.861C32.162,9.374,31.856,8.885,31.419,8.955z"/>
		<g>
			<path fill="#F7F7F7" d="M18.453,17.456l4.02-4.824c0.265-0.318,0.78-0.201,0.872,0.202C23.432,13.213,23.5,13.75,23.5,14.5
				c0,1.313-0.21,1.974-0.358,2.277c-0.068,0.14-0.197,0.234-0.35,0.265l-4.098,0.82C18.463,17.907,18.302,17.637,18.453,17.456z"/>
			<path fill="#2B3332" d="M20.5,17c0.276,0,0.5-0.672,0.5-1.5c0-0.366-0.045-0.698-0.118-0.958l-0.879,1.054
				C20.02,16.379,20.235,17,20.5,17z"/>
		</g>
		<g>
			<path fill="#FFFFFF" d="M13.547,17.456l-4.02-4.824c-0.265-0.318-0.78-0.201-0.872,0.202C8.568,13.213,8.5,13.75,8.5,14.5
				c0,1.313,0.21,1.974,0.358,2.277c0.068,0.14,0.197,0.234,0.35,0.265l4.098,0.82C13.537,17.907,13.698,17.637,13.547,17.456z"/>
			<path fill="#373F3F" d="M11.5,17c-0.276,0-0.5-0.672-0.5-1.5c0-0.366,0.045-0.698,0.118-0.958l0.879,1.054
				C11.98,16.379,11.765,17,11.5,17z"/>
		</g>
		<path fill="#F6B392" d="M15.504,18.993l-0.78,1.56c-0.092,0.184-0.355,0.184-0.447,0l-0.838-1.675
			c-0.366-0.033-0.725-0.071-1.071-0.112l-0.644,1.287c-0.092,0.184-0.355,0.184-0.447,0l-0.777-1.555
			c-0.869-0.145-1.57-0.289-2.007-0.385c-0.203-0.044-0.37,0.17-0.279,0.356C10.561,23.247,16,23,16,23v-4
			C15.834,19,15.669,18.996,15.504,18.993z"/>
		<path fill="#F4A984" d="M16.5,18.993l0.78,1.56c0.092,0.184,0.355,0.184,0.447,0l0.838-1.675c0.366-0.033,0.725-0.071,1.071-0.112
			l0.644,1.287c0.092,0.184,0.355,0.184,0.447,0l0.777-1.555c0.869-0.145,1.57-0.289,2.007-0.385c0.203-0.044,0.37,0.17,0.279,0.356
			C21.442,23.247,16.003,23,16.003,23v-4C16.169,19,16.334,18.996,16.5,18.993z"/>
		<g>
			<path fill="#6E57A0" d="M30.99,24h-5.009c-0.53,0-1.039,0.211-1.414,0.586l-1.778,1.778c-0.351,0.351-0.351,0.921,0,1.273
				l0.003,0.003c0.224,0.224,0.548,0.313,0.855,0.237L27.153,27h4.546l0.28-1.85C32.07,24.545,31.602,24,30.99,24z"/>
			<path fill="#7A63AD" d="M31,24h-1.847h-1h-1.847c-0.609,0-1.076,0.539-0.99,1.141l0.696,4.871C26.093,30.579,26.578,31,27.15,31
				h0.005c0.572,0,1.057-0.421,1.138-0.987l0.359-2.513l0.359,2.513C29.093,30.579,29.578,31,30.15,31h0.005
				c0.572,0,1.057-0.421,1.138-0.987l0.696-4.871C32.076,24.539,31.608,24,31,24z"/>
		</g>
		<g>
			<path fill="#7A63AD" d="M1.01,24h5.009c0.53,0,1.039,0.211,1.414,0.586l1.778,1.778c0.351,0.351,0.351,0.921,0,1.273L9.207,27.64
				c-0.224,0.224-0.548,0.313-0.855,0.237L4.847,27H0.302l-0.28-1.85C-0.07,24.545,0.398,24,1.01,24z"/>
			<path fill="#866EBA" d="M1,24h1.847h1h1.847c0.609,0,1.076,0.539,0.99,1.141l-0.696,4.871C5.907,30.579,5.422,31,4.85,31H4.845
				c-0.572,0-1.057-0.421-1.138-0.987L3.347,27.5l-0.359,2.513C2.907,30.579,2.422,31,1.85,31H1.845
				c-0.572,0-1.057-0.421-1.138-0.987L0.01,25.141C-0.076,24.539,0.392,24,1,24z"/>
		</g>
	</g>
</g>
<g id="labels">
</g>
</svg>
