<?xml version="1.0" encoding="utf-8"?>
<!-- Generator: Adobe Illustrator 23.0.6, SVG Export Plug-In . SVG Version: 6.00 Build 0)  -->
<svg version="1.1" xmlns="http://www.w3.org/2000/svg" xmlns:xlink="http://www.w3.org/1999/xlink" x="0px" y="0px" width="32px"
	 height="32px" viewBox="0 0 32 32" enable-background="new 0 0 32 32" xml:space="preserve">
<g id="icons">
	<g>
		<path fill="#FFD04D" d="M29.686,13.552c-1.276-1.22-3.177-2.327-5.892-2.513c-0.01-0.617,0.027-1.237,0.119-1.852
			c0.135-0.908,0.118-1.867-0.081-2.849c-0.625-3.095-3.129-5.58-6.229-6.181C17.059,0.05,16.525,0.011,16,0.011v29.973
			c5.521-0.002,10-4.463,10-9.985c0-1.227-0.227-2.399-0.632-3.483c1.106,0.563,1.986,1.545,2.398,2.78l0.12,0.361
			C27.954,19.862,28.145,20,28.36,20h0.14c0.276,0,0.5-0.224,0.5-0.5v-1l0.386,1.158C29.454,19.862,29.645,20,29.86,20H30
			c0.276,0,0.5-0.224,0.5-0.5v-1l0.386,1.158C30.954,19.862,31.145,20,31.36,20h0.14c0.276,0,0.5-0.224,0.5-0.5v-0.277
			C32,17.102,31.219,15.016,29.686,13.552z"/>
		<path fill="#FFD04D" d="M24,30h1.5c0.828,0,1.5,0.672,1.5,1.5c0,0.276-0.224,0.5-0.5,0.5h-6c-0.276,0-0.5-0.224-0.5-0.5V30H24z"/>
		<path fill="#FFD96C" d="M14.397,0.156c-3.1,0.602-5.604,3.086-6.229,6.181C7.97,7.319,7.952,8.278,8.088,9.186
			c0.092,0.615,0.128,1.235,0.119,1.852c-2.715,0.186-4.616,1.294-5.892,2.513C0.781,15.016,0,17.102,0,19.223V19.5
			C0,19.776,0.224,20,0.5,20h0.14c0.215,0,0.406-0.138,0.474-0.342L1.5,18.5v1C1.5,19.776,1.724,20,2,20h0.14
			c0.215,0,0.406-0.138,0.474-0.342L3,18.5v1C3,19.776,3.224,20,3.5,20h0.14c0.215,0,0.406-0.138,0.474-0.342l0.12-0.361
			c0.412-1.235,1.292-2.217,2.398-2.78C6.227,17.601,6,18.773,6,20c0,5.522,4.479,9.983,10,9.985V0.011
			C15.475,0.011,14.941,0.05,14.397,0.156z"/>
		<path fill="#FFD96C" d="M8,30H6.5C5.672,30,5,30.672,5,31.5C5,31.776,5.224,32,5.5,32h6c0.276,0,0.5-0.224,0.5-0.5V30H8z"/>
		<path fill="#FFE28A" d="M15.763,0.016c-0.171,0.004-0.341,0.008-0.514,0.023c-0.282,0.026-0.566,0.061-0.853,0.116
			c-1.282,0.249-2.451,0.833-3.438,1.636l-3.052-0.61c-0.389-0.078-0.71,0.307-0.562,0.676l1.248,3.121
			c-0.178,0.438-0.329,0.889-0.425,1.36C7.979,7.266,7.958,8.172,8.07,9.036c0.72,0.814,1.811,1.574,2.782,2.009
			c1.584,0.71,2.677,0.201,2.893,1.923l0.145,1.156c0.063,0.5,0.488,0.876,0.992,0.876h1.117V0.011
			C15.92,0.011,15.841,0.014,15.763,0.016z"/>
		<path fill="#FFD96C" d="M24.095,1.181l-3.054,0.611c-0.987-0.803-2.156-1.387-3.438-1.636C17.316,0.1,17.032,0.065,16.75,0.039
			c-0.173-0.015-0.343-0.019-0.514-0.023C16.157,0.014,16.078,0.011,16,0.011V15h1.117c0.504,0,0.93-0.376,0.992-0.876l0.145-1.156
			c0.215-1.722,1.309-1.214,2.893-1.923c0.97-0.435,2.062-1.195,2.782-2.009c0.112-0.864,0.091-1.77-0.096-2.699
			c-0.095-0.47-0.246-0.92-0.424-1.358l1.249-3.122C24.805,1.488,24.484,1.103,24.095,1.181z"/>
		<g>
			<path fill="#FFFFFF" d="M12.682,7.85l-2.416-0.647c-0.148-0.04-0.232-0.205-0.165-0.342c0.313-0.646,1.049-1,1.768-0.808
				c0.719,0.193,1.18,0.868,1.127,1.584C12.985,7.789,12.83,7.89,12.682,7.85z"/>
			<path fill="#373F3F" d="M12.18,7.384V6.176c-0.097-0.051-0.201-0.094-0.311-0.123c-0.066-0.018-0.132-0.023-0.197-0.032v1.364
				c0,0.115,0.077,0.215,0.188,0.245l0.001,0C12.022,7.673,12.18,7.551,12.18,7.384z"/>
		</g>
		<g>
			<path fill="#F7F7F7" d="M19.318,7.85l2.416-0.647c0.148-0.04,0.232-0.205,0.165-0.342c-0.313-0.646-1.049-1-1.768-0.808
				c-0.719,0.193-1.18,0.868-1.127,1.584C19.015,7.789,19.17,7.89,19.318,7.85z"/>
			<path fill="#2B3332" d="M19.82,7.384V6.176c0.097-0.051,0.201-0.094,0.311-0.123c0.066-0.018,0.132-0.023,0.197-0.032v1.364
				c0,0.115-0.077,0.215-0.188,0.245l-0.001,0C19.978,7.673,19.82,7.551,19.82,7.384z"/>
		</g>
		<path fill="#604631" d="M8.878,4.348c0.321-0.626,0.727-1.199,1.197-1.718L8.478,2.307C8.283,2.268,8.122,2.46,8.196,2.645
			L8.878,4.348z"/>
		<path fill="#4F4032" d="M23.123,4.353l0.684-1.708c0.074-0.185-0.087-0.377-0.282-0.338l-1.6,0.324
			C22.396,3.151,22.802,3.725,23.123,4.353z"/>
		<path fill="#4F4032" d="M20,30h4c0,0,3,0,3-5c0-1.766-0.502-2.774-1.148-3.351c0.038-0.23,0.077-0.46,0.099-0.695
			C25.467,20.47,24.969,20,24,20c-2,0-2,2-4,2s-2-2-4-2v9.985c1.424,0,2.774-0.307,4-0.842V30z"/>
		<path fill="#604631" d="M12,22c-2,0-2-2-4-2c-0.969,0-1.467,0.47-1.952,0.954c0.022,0.235,0.061,0.465,0.099,0.695
			C5.502,22.226,5,23.234,5,25c0,4.299,2.213,4.9,2.835,4.985H12v-0.842c1.226,0.536,2.576,0.842,4,0.842V20C14,20,14,22,12,22z"/>
	</g>
</g>
<g id="labels">
</g>
</svg>
