<?xml version="1.0" encoding="utf-8"?>
<!-- Generator: Adobe Illustrator 23.0.6, SVG Export Plug-In . SVG Version: 6.00 Build 0)  -->
<svg version="1.1" xmlns="http://www.w3.org/2000/svg" xmlns:xlink="http://www.w3.org/1999/xlink" x="0px" y="0px" width="32px"
	 height="32px" viewBox="0 0 32 32" enable-background="new 0 0 32 32" xml:space="preserve">
<g id="icons">
	<g>
		<g>
			<path fill="#C976A3" d="M24.894,29.447L24,29l-0.328-1.313c-0.44-1.758-1.349-3.364-2.63-4.646L20.17,22.17
				C20.719,21.005,21,19.565,21,18c0-3.866-1.686-7-5-7l-0.001,0v14L16,25c0.503,0,0.964-0.08,1.392-0.216l1.397,2.794
				C18.928,27.855,19,28.162,19,28.472V31.5c0,0.276,0.224,0.5,0.5,0.5h6c0.276,0,0.5-0.224,0.5-0.5v-0.264
				C26,30.479,25.572,29.786,24.894,29.447z"/>
			<path fill="#D786B3" d="M15.999,11C12.686,11.001,11,14.134,11,18c0,1.565,0.281,3.005,0.83,4.17l-0.871,0.871
				c-1.282,1.282-2.191,2.887-2.63,4.646L8,29l-0.894,0.447C6.428,29.786,6,30.479,6,31.236V31.5C6,31.776,6.224,32,6.5,32h6
				c0.276,0,0.5-0.224,0.5-0.5v-3.028c0-0.31,0.072-0.617,0.211-0.894l1.397-2.794C15.036,24.92,15.496,25,15.999,25V11z"/>
			<path fill="#D1D4D4" d="M29.5,20c-1.381,0-2.5,1.119-2.5,2.5c0,1.381,1.119,2.5,2.5,2.5s2.5-1.119,2.5-2.5
				C32,21.119,30.881,20,29.5,20z M29.5,23.5c-0.552,0-1-0.448-1-1c0-0.552,0.448-1,1-1s1,0.448,1,1
				C30.5,23.052,30.052,23.5,29.5,23.5z"/>
			<path fill="#4F4032" d="M29.5,22c-0.276,0-0.5-0.224-0.5-0.5v-6.208c0-0.276,0.224-0.5,0.5-0.5s0.5,0.224,0.5,0.5V21.5
				C30,21.776,29.776,22,29.5,22z"/>
			<path fill="#C976A3" d="M21,13l3.434,2.575c0.339,0.254,0.802,0.267,1.155,0.032l2.189-1.459C27.916,14.056,28,13.9,28,13.732
				v-1.115C28,12.276,28.276,12,28.618,12h0.001c0.234,0,0.448,0.132,0.552,0.341L30,14h1v3l-5.127,1.709
				c-0.554,0.185-1.161,0.118-1.661-0.182L20,16L21,13z"/>
			<path fill="#D786B3" d="M32,15.75c0-0.414-0.336-0.75-0.75-0.75c0.414,0,0.75-0.336,0.75-0.75c0-0.414-0.336-0.75-0.75-0.75h-2
				c-0.414,0-0.75,0.336-0.75,0.75c0,0.414,0.336,0.75,0.75,0.75c-0.414,0-0.75,0.336-0.75,0.75c0,0.414,0.336,0.75,0.75,0.75
				c-0.414,0-0.75,0.336-0.75,0.75c0,0.414,0.336,0.75,0.75,0.75h2c0.414,0,0.75-0.336,0.75-0.75c0-0.414-0.336-0.75-0.75-0.75
				C31.664,16.5,32,16.164,32,15.75z"/>
			<path fill="#D786B3" d="M11,13l-3.434,2.575c-0.339,0.254-0.802,0.267-1.155,0.032l-2.189-1.459C4.084,14.056,4,13.9,4,13.732
				v-1.115C4,12.276,3.724,12,3.382,12H3.382c-0.234,0-0.448,0.132-0.552,0.341L2,14H1v3l5.127,1.709
				c0.554,0.185,1.161,0.118,1.661-0.182L12,16L11,13z"/>
			<path fill="#EDEEEE" d="M19.999,10c0,0,2,1,3,4c0,0,0,2-2,2c0,0,0,2-2,2c0,0-1,1-3,1v-8L19.999,10z"/>
			<path fill="#F7F7F7" d="M12,10c0,0-2,1-3,4c0,0,0,2,2,2c0,0,0,2,2,2c0,0,1,1,3,1v-8L12,10z"/>
			<path fill="#DB92BB" d="M14.508,3.155l-2.566-2.566c-0.337-0.337-0.909-0.057-0.85,0.416l0.521,4.165C11.215,5.923,11,6.858,11,8
				c0,3.314,1.686,5,5,5V3C15.453,3,14.966,3.063,14.508,3.155z"/>
			<path fill="#D786B3" d="M20.318,5.018l0.502-4.014c0.059-0.472-0.513-0.752-0.85-0.416l-2.549,2.549C16.982,3.056,16.518,3,16,3
				v10c3.314,0,5-1.686,5-5C21,6.785,20.768,5.793,20.318,5.018z"/>
			<path fill="#E2A1C8" d="M16,8.154c-0.252,0-0.504,0.048-0.743,0.143l-0.5,0.2C13.998,8.801,13.5,9.536,13.5,10.354
				c0,1.076,0.302,2.13,0.872,3.042l0.78,1.247c0.196,0.313,0.522,0.47,0.848,0.47V8.154z"/>
			<path fill="#DB92BB" d="M16.848,14.643l0.78-1.247c0.57-0.912,0.872-1.966,0.872-3.042c0-0.818-0.498-1.553-1.257-1.857l-0.5-0.2
				C16.504,8.202,16.252,8.154,16,8.154v6.959C16.326,15.113,16.652,14.956,16.848,14.643z"/>
			<path fill="#FFFFFF" d="M13.676,8.482l-2.03-0.841c-0.182-0.075-0.195-0.326-0.023-0.422c0.322-0.178,0.833-0.341,1.426-0.092
				c0.591,0.247,0.838,0.72,0.941,1.072C14.046,8.388,13.858,8.557,13.676,8.482z"/>
			<path fill="#F7F7F7" d="M18.324,8.482l2.03-0.841c0.182-0.075,0.195-0.326,0.023-0.422c-0.322-0.178-0.833-0.341-1.426-0.092
				c-0.591,0.247-0.838,0.72-0.941,1.072C17.954,8.388,18.142,8.557,18.324,8.482z"/>
			<path fill="#373F3F" d="M13.049,7.127c-0.194-0.081-0.375-0.108-0.548-0.115C12.505,7.558,12.726,8,13,8
				c0.209,0,0.387-0.256,0.462-0.62C13.346,7.284,13.214,7.196,13.049,7.127z"/>
			<path fill="#2B3332" d="M18.951,7.127c0.194-0.081,0.375-0.108,0.548-0.115C19.495,7.558,19.274,8,19,8
				c-0.209,0-0.387-0.256-0.462-0.62C18.654,7.284,18.786,7.196,18.951,7.127z"/>
			<path fill="#DB92BB" d="M3.5,15.75C3.5,15.336,3.164,15,2.75,15c0.414,0,0.75-0.336,0.75-0.75c0-0.414-0.336-0.75-0.75-0.75h-2
				C0.336,13.5,0,13.836,0,14.25C0,14.664,0.336,15,0.75,15C0.336,15,0,15.336,0,15.75c0,0.414,0.336,0.75,0.75,0.75
				C0.336,16.5,0,16.836,0,17.25C0,17.664,0.336,18,0.75,18h2c0.414,0,0.75-0.336,0.75-0.75c0-0.414-0.336-0.75-0.75-0.75
				C3.164,16.5,3.5,16.164,3.5,15.75z"/>
		</g>
		<path fill="#93357B" d="M13.935,3.289l-1.831-1.83C11.936,1.29,11.65,1.43,11.679,1.666l0.359,2.872
			C12.511,3.962,13.137,3.537,13.935,3.289z"/>
		<path fill="#8C3179" d="M19.885,4.441l0.346-2.774c0.029-0.236-0.257-0.376-0.425-0.208l-1.813,1.813
			C18.779,3.505,19.408,3.897,19.885,4.441z"/>
	</g>
</g>
<g id="labels">
</g>
</svg>
