<?xml version="1.0" encoding="utf-8"?>
<!-- Generator: Adobe Illustrator 23.0.6, SVG Export Plug-In . SVG Version: 6.00 Build 0)  -->
<svg version="1.1" xmlns="http://www.w3.org/2000/svg" xmlns:xlink="http://www.w3.org/1999/xlink" x="0px" y="0px" width="32px"
	 height="32px" viewBox="0 0 32 32" enable-background="new 0 0 32 32" xml:space="preserve">
<g id="icons">
	<g>
		<path fill="#97AC59" d="M27.567,14L24.8,10.471l-4.277-2.425C20.289,7.914,20,8.082,20,8.351v0c0,2.42,1.46,4.601,3.697,5.524
			L24,14L27.567,14z"/>
		<path fill="#FAE09F" d="M27.5,31h-1.087c-0.781,0-1.423-0.586-1.494-1.364l-0.312-3.428c-0.014-0.147-0.087-0.276-0.208-0.362
			c-0.12-0.086-0.269-0.113-0.411-0.077l-2.867,0.717c-0.267,0.063-0.54-0.096-0.606-0.364c-0.066-0.268,0.096-0.539,0.364-0.606
			l2.867-0.717c0.425-0.103,0.876-0.021,1.232,0.232c0.357,0.255,0.585,0.65,0.625,1.088l0.312,3.428
			C25.938,29.801,26.157,30,26.413,30H27.5c0.276,0,0.5,0.224,0.5,0.5S27.776,31,27.5,31z"/>
		<path fill="#FDEBBB" d="M5.587,31H4.5C4.224,31,4,30.776,4,30.5S4.224,30,4.5,30h1.087c0.256,0,0.475-0.199,0.498-0.454
			l0.312-3.428c0.04-0.438,0.268-0.833,0.625-1.088c0.359-0.254,0.81-0.336,1.232-0.232l2.867,0.717
			c0.269,0.067,0.431,0.339,0.364,0.606c-0.067,0.269-0.335,0.429-0.606,0.364l-2.867-0.717c-0.143-0.038-0.289-0.01-0.411,0.077
			c-0.121,0.086-0.194,0.215-0.208,0.362l-0.312,3.428C7.01,30.414,6.368,31,5.587,31z"/>
		<path fill="#9EB164" d="M15.45,18.502l-0.398-3.976c-0.025-0.252-0.205-0.475-0.455-0.518c-0.325-0.056-0.616,0.175-0.647,0.489
			l-0.45,4.501h0l-2.624-3.65c-0.148-0.206-0.415-0.309-0.653-0.222c-0.31,0.114-0.446,0.459-0.316,0.747l1.861,4.124L7.672,18.15
			c-0.231-0.104-0.514-0.06-0.676,0.135c-0.211,0.254-0.157,0.621,0.1,0.805l3.674,2.641L16,21.521V19h0
			C15.716,19,15.479,18.785,15.45,18.502z M11.768,19.998l0.003-0.002l-0.001,0.002L11.768,19.998z"/>
		<path fill="#97AC59" d="M25.005,18.285c-0.162-0.195-0.445-0.239-0.676-0.135l-4.096,1.848l1.849-4.097
			c0.104-0.231,0.06-0.514-0.135-0.676c-0.254-0.211-0.621-0.157-0.805,0.1L18.5,18.999h0l-0.447-4.472
			c-0.025-0.252-0.205-0.475-0.455-0.518c-0.325-0.056-0.616,0.175-0.647,0.489l-0.401,4.005C16.521,18.785,16.284,19,16,19h0v2.521
			l5.231,0.21l3.674-2.641C25.161,18.906,25.216,18.538,25.005,18.285z M20.23,19.997l0.002,0.001l-0.001,0.001L20.23,19.997z"/>
		<path fill="#97AC59" d="M16,20.04c-0.131,0-0.263,0.013-0.392,0.039l-3.795,0.759c-0.52,0.104-0.978,0.41-1.272,0.852L9,24l1,1.48
			h6V20.04z"/>
		<path fill="#90A74E" d="M22,25.48L23,24l-1.54-2.311c-0.294-0.441-0.752-0.748-1.272-0.852l-3.795-0.759
			C16.263,20.053,16.131,20.04,16,20.04v5.44H22z"/>
		<path fill="#F7F7F7" d="M18.325,23.435l2.468-0.494c0.123-0.025,0.208-0.138,0.201-0.264C20.94,21.755,20.526,21.5,19.5,21.5
			c-1.104,0-1.396,1.084-1.472,1.656C18.005,23.327,18.156,23.469,18.325,23.435z"/>
		<circle fill="#2B3332" cx="19.5" cy="22.5" r="0.5"/>
		<path fill="#FFFFFF" d="M13.675,23.435l-2.468-0.494c-0.123-0.025-0.208-0.138-0.201-0.264C11.06,21.755,11.474,21.5,12.5,21.5
			c1.104,0,1.396,1.084,1.472,1.656C13.995,23.327,13.844,23.469,13.675,23.435z"/>
		<circle fill="#373F3F" cx="12.5" cy="22.5" r="0.5"/>
		<path fill="#A8B875" d="M4.573,15.999c0.639-0.639,0.999-1.507,0.999-2.411v-0.844c0-0.484,0.151-0.955,0.432-1.348l0-0.001
			c0.592-0.829,1.655-1.175,2.622-0.853l1.045,0.348C9.833,10.944,10,10.824,10,10.653V9.322c0-0.842-0.354-1.646-0.976-2.214
			l-0.066-0.06C8.221,6.374,7.259,6,6.26,6L4.328,6C3.175,6,2.066,6.483,1.319,7.361C0.634,8.166,0,9.355,0,11c0,3.58,3,5,3,5h1.572
			L4.573,15.999z"/>
		<path fill="#9EB164" d="M4.572,16l0.001-0.001c0.639-0.639,0.999-1.507,0.999-2.411v-0.644l3.055-1.732
			C8.793,11.117,9,11.238,9,11.429v0.409C9,13.726,7.792,15.403,6,16l0,0L4.572,16z"/>
		<path fill="#FFF3D9" d="M15.207,25c-0.133,0-0.26-0.053-0.354-0.146l-0.677-0.677c-0.098-0.098-0.256-0.098-0.354,0l-0.646,0.646
			c-0.098,0.098-0.256,0.098-0.354,0l-0.646-0.646c-0.098-0.098-0.256-0.098-0.354,0l-0.619,0.619
			c-0.108,0.108-0.285,0.095-0.377-0.027L8.9,22.2C8.612,21.816,8,22.019,8,22.5v0.379c0,0.302,0.036,0.6,0.088,0.894L5.329,22.77
			C5.132,22.698,5,22.509,5,22.3V18c0.552,0,1-0.448,1-1v-1H3v1c0,0.552,0.448,1,1,1v4.3c0,0.629,0.396,1.195,0.987,1.409
			l3.474,1.263c0.112,0.25,0.235,0.495,0.387,0.724l-3.738-0.935c-0.396-0.099-0.803-0.035-1.148,0.177s-0.586,0.547-0.677,0.941
			l-1.093,4.732C2.139,30.841,1.938,31,1.704,31H0.5C0.224,31,0,31.224,0,31.5S0.224,32,0.5,32h1.204
			c0.703,0,1.305-0.479,1.462-1.163l1.093-4.733c0.03-0.131,0.11-0.242,0.226-0.312s0.25-0.094,0.383-0.059l5.318,1.33
			C11.041,27.663,12.061,28,13.121,28H16v-3H15.207z"/>
		<path fill="#FDEBBB" d="M31.5,31h-1.204c-0.234,0-0.435-0.159-0.487-0.388l-1.093-4.731c-0.091-0.396-0.331-0.73-0.677-0.942
			s-0.752-0.275-1.148-0.177l-3.738,0.935c0.133-0.202,0.237-0.419,0.34-0.636l3.768-1.28c0.758-0.258,1.179-1.063,0.959-1.833
			L26.52,16H27c0.552,0,1-0.448,1-1v-1h-4v1c0,0.552,0.448,1,1,1h0.48l1.778,6.223c0.073,0.256-0.067,0.524-0.32,0.61l-3.035,1.031
			C23.966,23.542,24,23.212,24,22.879V22.5c0-0.481-0.612-0.684-0.9-0.3l-1.927,2.569c-0.091,0.122-0.269,0.134-0.377,0.027
			l-0.619-0.619c-0.098-0.098-0.256-0.098-0.354,0l-0.646,0.646c-0.098,0.098-0.256,0.098-0.354,0l-0.646-0.646
			c-0.098-0.098-0.256-0.098-0.354,0l-0.677,0.677C17.053,24.947,16.925,25,16.793,25H16v3h2.879c1.06,0,2.08-0.337,2.935-0.938
			l5.318-1.33c0.131-0.036,0.268-0.013,0.383,0.059c0.115,0.07,0.195,0.182,0.226,0.313l1.093,4.732
			C28.991,31.521,29.593,32,30.296,32H31.5c0.276,0,0.5-0.224,0.5-0.5S31.776,31,31.5,31z"/>
		<path fill="#9EB164" d="M25.598,13.998c-0.895-0.895-1.398-2.11-1.398-3.376V9.441c0-0.677-0.211-1.337-0.605-1.888l-0.001-0.001
			c-0.829-1.16-2.317-1.644-3.67-1.194l-1.463,0.488C18.234,6.922,18,6.753,18,6.514V4.651c0-1.179,0.496-2.304,1.366-3.1
			l0.092-0.084C20.49,0.523,21.838,0,23.237,0l2.704,0c1.614,0,3.167,0.676,4.213,1.905C31.113,3.032,32,4.697,32,7c0,5.012-4,7-4,7
			l-2.4,0L25.598,13.998z"/>
	</g>
</g>
<g id="labels">
</g>
</svg>
