<?xml version="1.0" encoding="utf-8"?>
<!-- Generator: Adobe Illustrator 23.0.6, SVG Export Plug-In . SVG Version: 6.00 Build 0)  -->
<svg version="1.1" xmlns="http://www.w3.org/2000/svg" xmlns:xlink="http://www.w3.org/1999/xlink" x="0px" y="0px" width="32px"
	 height="32px" viewBox="0 0 32 32" enable-background="new 0 0 32 32" xml:space="preserve">
<g id="icons">
	<g>
		<path fill="#F7F7F7" d="M16,16H1c0,8.284,6.716,15,15,15V16z"/>
		<path fill="#EDEEEE" d="M16,31c8.284,0,15-6.716,15-15H16V31z"/>
		<path fill="#D84459" d="M16,1C7.716,1,1,7.716,1,16h15V1z"/>
		<path fill="#C84054" d="M31,16c0-8.284-6.716-15-15-15v15H31z"/>
		<path fill="#FFFFFF" d="M12.752,12.497l-0.613,1.227C12.054,13.893,11.88,14,11.691,14H6.41c-0.238,0-0.444-0.168-0.49-0.402
			L5.176,9.882C5.1,9.498,5.475,9.178,5.842,9.316l6.638,2.489C12.758,11.909,12.884,12.231,12.752,12.497z"/>
		<path fill="#373F3F" d="M8.015,10.131C8.008,10.252,8,10.373,8,10.5C8,11.881,8.448,13,9,13c0.502,0,0.913-0.927,0.985-2.131
			L8.015,10.131z"/>
		<path fill="#F7F7F7" d="M19.219,12.497l0.613,1.227C19.917,13.893,20.091,14,20.28,14h5.281c0.238,0,0.444-0.168,0.49-0.402
			l0.743-3.716c0.077-0.385-0.299-0.704-0.666-0.566l-6.638,2.489C19.213,11.909,19.087,12.231,19.219,12.497z"/>
		<path fill="#2B3332" d="M23.956,10.131c0.007,0.122,0.015,0.243,0.015,0.369c0,1.381-0.448,2.5-1,2.5
			c-0.502,0-0.913-0.927-0.985-2.131L23.956,10.131z"/>
		<path fill="#373F3F" d="M16,16H1c0,0.68,0.044,1.344,0.132,2H16V16z"/>
		<path fill="#2B3332" d="M16,18h14.865C30.952,17.344,31,16.68,31,16H16V18z"/>
	</g>
</g>
<g id="labels">
</g>
</svg>
