<?xml version="1.0" encoding="utf-8"?>
<!-- Generator: Adobe Illustrator 23.0.6, SVG Export Plug-In . SVG Version: 6.00 Build 0)  -->
<svg version="1.1" xmlns="http://www.w3.org/2000/svg" xmlns:xlink="http://www.w3.org/1999/xlink" x="0px" y="0px" width="32px"
	 height="32px" viewBox="0 0 32 32" enable-background="new 0 0 32 32" xml:space="preserve">
<g id="icons">
	<g>
		<g>
			<path fill="#F0C13E" d="M17.841,23.159l5.408-3.09c0.442-0.253,0.935,0.24,0.682,0.682l-3.09,5.408L17.841,23.159z"/>
			<path fill="#E0B12E" d="M17.841,23.159l5.408-3.09c0.442-0.253,0.935,0.24,0.682,0.682l-3.09,5.408L17.841,23.159z"/>
			<path fill="#E8BA36" d="M23.249,20.069l-3.124,1.785c0.288,0.97,1.051,1.733,2.021,2.021l1.785-3.124
				C24.184,20.309,23.691,19.816,23.249,20.069z"/>
			<path fill="#F0C13E" d="M23.249,20.069l-1.557,0.89c0.253,0.609,0.74,1.096,1.35,1.35l0.89-1.557
				C24.184,20.309,23.691,19.816,23.249,20.069z"/>
		</g>
		<path fill="#DBA728" d="M22.552,31.373l-0.627-0.652V29.35c0-0.388-0.154-0.76-0.428-1.034L19.181,26l-2.068,2.068L19,29.955
			v1.727C19.023,31.86,19.17,32,19.345,32h2.966C22.62,32,22.773,31.602,22.552,31.373z"/>
		<path fill="#E0B12E" d="M12.819,26l-2.315,2.315c-0.274,0.274-0.428,0.646-0.428,1.034v1.371l-0.627,0.652
			C9.227,31.602,9.38,32,9.689,32h2.945h0.021c0.175,0,0.322-0.14,0.344-0.318v-1.727l1.887-1.887L12.819,26z"/>
		<path fill="#E8BA36" d="M17.825,19.336L17,14h-2l-0.825,5.336c-0.129,0.833-0.572,1.57-1.189,2.145C11.78,22.605,11,24.046,11,26
			c0,3.314,2.239,5,5,5s5-1.686,5-5c0-1.954-0.78-3.395-1.986-4.519C18.397,20.906,17.954,20.17,17.825,19.336z"/>
		<path fill="#F0C13E" d="M17.825,19.336L17,14h-2l-0.825,5.336c-0.129,0.833-0.572,1.57-1.189,2.145C11.78,22.605,11,24.046,11,26
			c0,0.244,0.036,0.461,0.06,0.688C12.518,27.519,14.201,28,16,28s3.482-0.481,4.94-1.312C20.964,26.461,21,26.244,21,26
			c0-1.954-0.78-3.395-1.986-4.519C18.397,20.906,17.954,20.17,17.825,19.336z"/>
		<path fill="#E0B12E" d="M17.825,19.336L17,14h-1v17c2.761,0,5-1.686,5-5c0-1.954-0.78-3.395-1.986-4.519
			C18.397,20.906,17.954,20.17,17.825,19.336z"/>
		<path fill="#E8BA36" d="M17.825,19.336L17,14h-1v14c1.799,0,3.482-0.481,4.94-1.312C20.964,26.461,21,26.244,21,26
			c0-1.954-0.78-3.395-1.986-4.519C18.397,20.906,17.954,20.17,17.825,19.336z"/>
		<path fill="#F7C845" d="M16,25c1.672,0,3.245-0.416,4.63-1.141c-0.342-0.93-0.901-1.711-1.616-2.378
			c-0.617-0.575-1.06-1.311-1.189-2.145L17,14h-2l-0.825,5.336c-0.129,0.833-0.572,1.57-1.189,2.145
			c-0.715,0.666-1.274,1.448-1.616,2.378C12.755,24.584,14.328,25,16,25z"/>
		<path fill="#F0C13E" d="M17.825,19.336L17,14h-1v11c1.672,0,3.245-0.416,4.63-1.141c-0.342-0.93-0.901-1.711-1.616-2.378
			C18.397,20.906,17.954,20.17,17.825,19.336z"/>
		<path fill="#FFD04D" d="M16,22c1.066,0,2.091-0.17,3.054-0.479c-0.014-0.013-0.026-0.027-0.04-0.04
			c-0.617-0.575-1.06-1.311-1.189-2.145L17,14h-2l-0.825,5.336c-0.129,0.833-0.572,1.57-1.189,2.145
			c-0.014,0.013-0.026,0.027-0.04,0.04C13.909,21.83,14.934,22,16,22z"/>
		<path fill="#F7C845" d="M17.825,19.336L17,14h-1v8c1.066,0,2.091-0.17,3.054-0.479c-0.014-0.013-0.026-0.027-0.04-0.04
			C18.397,20.906,17.954,20.17,17.825,19.336z"/>
		<path fill="#FFD96C" d="M15,14l-0.748,4.838C14.82,18.938,15.403,19,16,19s1.18-0.062,1.748-0.162L17,14H15z"/>
		<path fill="#FFD04D" d="M16,14v5c0.597,0,1.18-0.062,1.748-0.162L17,14H16z"/>
		<path fill="#B94A34" d="M16,6.312c0,0-5.206-6.541-11.191-0.756c-0.14,0.135-0.012,0.367,0.176,0.319
			C8.904,4.855,10.063,6.631,12.374,9H16V6.312z"/>
		<path fill="#BF4F3C" d="M15.994,5.625c0,0-1.5-5.625-6.656-5.625C5.285,0,4.263,1.642,4.012,2.344
			c-0.05,0.139,0.065,0.277,0.21,0.248C5.698,2.296,13.106,2.255,13.994,9H16L15.994,5.625z"/>
		<path fill="#AD4630" d="M16,6.312c0,0,5.206-6.541,11.191-0.756c0.14,0.135,0.012,0.367-0.176,0.319
			C23.096,4.855,21.937,6.631,19.626,9H16V6.312z"/>
		<path fill="#B94A34" d="M16.006,5.625c0,0,1.5-5.625,6.656-5.625c4.053,0,5.075,1.642,5.326,2.344
			c0.05,0.139-0.065,0.277-0.21,0.248C26.302,2.296,18.894,2.255,18.006,9H16L16.006,5.625z"/>
		<g>
			<path fill="#CE5B52" d="M14.5,8.25H16V0C15.156,0,14.5,8.25,14.5,8.25z"/>
			<path fill="#C65546" d="M16,0v8.25h1.5C17.5,8.25,16.75,0,16,0z"/>
		</g>
		<path fill="#C65546" d="M16,9c0,0-1.703-6.329-6.988-4.678c-0.17,0.053-0.165,0.294,0.003,0.354C13.44,6.267,13.875,9,13.875,9H16
			z"/>
		<path fill="#BF4F3C" d="M16,9c0,0,1.703-6.329,6.988-4.678c0.17,0.053,0.165,0.294-0.003,0.354C18.56,6.267,18.125,9,18.125,9H16z
			"/>
		<g>
			<g>
				<g>
					<path fill="#FDEBBB" d="M11.5,14V6c0,0-2.5-0.03-3.366,3.823C7.195,14,11.5,14,11.5,14z"/>
					<path fill="#FAE09F" d="M11.5,14V6c0,0,2.5-0.03,3.366,3.823C15.805,14,11.5,14,11.5,14z"/>
				</g>
				<g>
					<path fill="#FF8D6E" d="M9.527,11.287C9.614,11.84,9.977,13,11.5,13v-2H9.775C9.622,11,9.503,11.135,9.527,11.287z"/>
					<path fill="#FF805D" d="M13.225,11H11.5v2c1.523,0,1.886-1.16,1.973-1.713C13.497,11.135,13.378,11,13.225,11z"/>
				</g>
			</g>
			<path fill="#FFFFFF" d="M10.75,9.25c0,0.414-1.5,0.414-1.5,0S9.586,8.5,10,8.5C10.414,8.5,10.75,8.836,10.75,9.25z"/>
			<path fill="#F7F7F7" d="M13.75,9.25c0,0.414-1.5,0.414-1.5,0S12.586,8.5,13,8.5C13.414,8.5,13.75,8.836,13.75,9.25z"/>
			<circle fill="#373F3F" cx="10.25" cy="9" r="0.25"/>
			<circle fill="#2B3332" cx="12.75" cy="9" r="0.25"/>
		</g>
		<g>
			<g>
				<path fill="#FAE09F" d="M20.5,14V6c0,0-2.5-0.03-3.366,3.823C16.195,14,20.5,14,20.5,14z"/>
				<path fill="#F7D684" d="M20.5,14V6c0,0,2.5-0.03,3.366,3.823C24.805,14,20.5,14,20.5,14z"/>
			</g>
			<path fill="#FFFFFF" d="M18.25,9.311c0-0.414,1.5-0.414,1.5,0c0,0.414-0.336,0.75-0.75,0.75
				C18.586,10.061,18.25,9.725,18.25,9.311z"/>
			<path fill="#F7F7F7" d="M21.25,9.311c0-0.414,1.5-0.414,1.5,0c0,0.414-0.336,0.75-0.75,0.75
				C21.586,10.061,21.25,9.725,21.25,9.311z"/>
			<circle fill="#373F3F" cx="19.25" cy="9.5" r="0.25"/>
			<circle fill="#2B3332" cx="21.75" cy="9.5" r="0.25"/>
			<path fill="#373F3F" d="M20.5,11.5c-0.722,0-1.037-0.384-1.052-0.403c-0.084-0.108-0.24-0.129-0.349-0.046
				c-0.11,0.083-0.132,0.24-0.048,0.35C19.069,11.425,19.516,12,20.5,12V11.5z"/>
			<path fill="#2B3332" d="M21.552,11.097C21.539,11.113,21.225,11.5,20.5,11.5h0V12h0c0.984,0,1.431-0.575,1.449-0.599
				c0.083-0.109,0.062-0.264-0.047-0.347C21.794,10.969,21.638,10.99,21.552,11.097z"/>
		</g>
		<path fill="#FFF3D9" d="M16,15V7c0,0-2.5-0.03-3.366,3.823C11.695,15,16,15,16,15z"/>
		<path fill="#FDEBBB" d="M16,15V7c0,0,2.5-0.03,3.366,3.823C20.305,15,16,15,16,15z"/>
		<g>
			<path fill="#FFA68E" d="M14.027,12.287C14.114,12.84,14.477,14,16,14v-2h-1.725C14.122,12,14.003,12.135,14.027,12.287z"/>
			<path fill="#FF8D6E" d="M17.725,12H16v2c1.523,0,1.886-1.16,1.973-1.713C17.997,12.135,17.878,12,17.725,12z"/>
		</g>
		<circle fill="#FFFFFF" cx="14.5" cy="10.25" r="0.75"/>
		<circle fill="#F7F7F7" cx="17.5" cy="10.25" r="0.75"/>
		<circle fill="#373F3F" cx="14.75" cy="10.25" r="0.25"/>
		<circle fill="#2B3332" cx="17.25" cy="10.25" r="0.25"/>
		<path fill="#BF4F3C" d="M23.5,19.369v1.107h0.562c0,0,0.218-1.367,2.43-2.162c0.084-0.03,0.086-0.151,0.001-0.177
			C24.937,17.651,24.006,18.549,23.5,19.369z"/>
		<path fill="#C65546" d="M23.5,19.369c-0.506-0.82-1.437-1.718-2.994-1.232c-0.085,0.027-0.082,0.147,0.001,0.177
			c2.212,0.795,2.43,2.162,2.43,2.162H23.5V19.369z"/>
		<g>
			<path fill="#FFEAA7" d="M23.5,25v-5c0,0-1.428-0.018-1.923,2.389C21.04,25,23.5,25,23.5,25z"/>
			<path fill="#FFE28A" d="M23.5,25v-5c0,0,1.428-0.018,1.923,2.389C25.96,25,23.5,25,23.5,25z"/>
		</g>
		<circle fill="#373F3F" cx="22.75" cy="22.25" r="0.25"/>
		<circle fill="#2B3332" cx="24.25" cy="22.25" r="0.25"/>
	</g>
</g>
<g id="labels">
</g>
</svg>
