<?xml version="1.0" encoding="utf-8"?>
<!-- Generator: Adobe Illustrator 23.0.6, SVG Export Plug-In . SVG Version: 6.00 Build 0)  -->
<svg version="1.1" xmlns="http://www.w3.org/2000/svg" xmlns:xlink="http://www.w3.org/1999/xlink" x="0px" y="0px" width="32px"
	 height="32px" viewBox="0 0 32 32" enable-background="new 0 0 32 32" xml:space="preserve">
<g id="icons">
	<g>
		<path fill="#778238" d="M16,24c0,0,4,2,8,1c2.248-0.562,4.239-1.253,5.224-1.914c0.396-0.266,0.904,0.131,0.747,0.582
			C29.327,25.513,27.401,28.32,24,29c-5,1-5.083,0.708-5.083,0.708L16,24z"/>
		<path fill="#828E3D" d="M5,32h6.714c0,0,0.815-0.495-0.309-1.466S5,29.838,5,32z"/>
		<path fill="#869642" d="M12.133,22.438c0,0-3.981-1.849-5.44,2.054s-0.315,4.683,0.67,5.751c0.985,1.068,4.601,1.18,5.395-0.807
			S12.133,22.438,12.133,22.438z"/>
		<path fill="#7D883A" d="M26,32h-6.714c0,0-0.815-0.495,0.309-1.466C20.719,29.563,26,29.838,26,32z"/>
		<path fill="#828E3D" d="M18.867,22.438c0,0,3.981-1.849,5.44,2.054c1.458,3.903,0.315,4.683-0.67,5.751
			c-0.985,1.068-4.601,1.18-5.395-0.807S18.867,22.438,18.867,22.438z"/>
		<path fill="#828E3D" d="M10.5,18.018l-4.247-0.725l0,0l-1.647-0.275c-0.597-0.099-1.19,0.202-1.46,0.744
			c-0.311,0.622-0.11,1.378,0.469,1.764L4.9,20.384l0,0l3.701,2.468L10.5,18.018z"/>
		<path fill="#7D883A" d="M21.5,18.018l4.247-0.725l0,0l1.647-0.275c0.597-0.099,1.19,0.202,1.46,0.744
			c0.311,0.622,0.11,1.378-0.469,1.764L27.1,20.384l0,0l-3.701,2.468L21.5,18.018z"/>
		<path fill="#828E3D" d="M22.963,26c0,0.274-0.012,0.545-0.036,0.812c1.417-2.568,1.487-6.836-0.13-9.645
			C20.973,14,16,12.917,16,12.917V18C19.845,18,22.963,21.582,22.963,26z"/>
		<path fill="#869642" d="M16,18v-5.083c0,0-4.973,1.083-6.797,4.25c-1.617,2.808-1.547,7.077-0.13,9.645
			C9.049,26.545,9.037,26.274,9.037,26C9.037,21.582,12.155,18,16,18z"/>
		<path fill="#FDEBBB" d="M16,18v11.958c0,0,3.813,0.083,5.927-1.833c0.387-0.351,0.718-0.802,1.001-1.313
			c0.023-0.267,0.036-0.538,0.036-0.812C22.963,21.582,19.845,18,16,18z"/>
		<path fill="#FFF3D9" d="M16,29.958V18c-3.845,0-6.963,3.582-6.963,8c0,0.274,0.012,0.545,0.036,0.812
			c0.282,0.512,0.613,0.962,1.001,1.313C12.187,30.042,16,29.958,16,29.958z"/>
		<path fill="#E3E5E5" d="M14,11.375V4.79c0-0.314-0.147-0.609-0.398-0.798L8.983,0.508L8.388,0.806
			C8.165,0.917,8.058,1.175,8.137,1.411l0.797,2.392c0.042,0.126,0.032,0.263-0.027,0.382L8.059,5.881
			C8.002,5.947,7.947,6.008,7.89,6.074L5.367,7.755c-0.21,0.14-0.283,0.414-0.17,0.64L6,10h1l1.817,2.763
			c0.111,0.169,0.109,0.387-0.004,0.555l-1.577,2.333c-0.136,0.202-0.108,0.472,0.068,0.641l0.51,0.489
			c0.116,0.112,0.28,0.16,0.438,0.13L10,16.583v1.557c0,0.384,0.414,0.624,0.747,0.434l1.607-1.429l-1.182-2.759
			c-0.105-0.386,0.031-0.797,0.344-1.046L14,11.375z"/>
		<g>
			<polygon fill="#A7A9AC" points="18,8.958 20,7 22,9.042 22,12 20.459,13.341 17.976,11.353 			"/>
		</g>
		<path fill="#DADDDC" d="M18,11.375V4.79c0-0.314,0.147-0.609,0.398-0.798l4.619-3.483l0.595,0.298
			c0.223,0.111,0.329,0.369,0.251,0.605l-0.797,2.392c-0.042,0.126-0.032,0.263,0.027,0.382l0.848,1.696
			c0.058,0.065,0.112,0.127,0.17,0.192l2.522,1.681c0.21,0.14,0.283,0.414,0.17,0.64L26,10h-1l-1.817,2.763
			c-0.111,0.169-0.109,0.387,0.004,0.555l1.577,2.333c0.136,0.202,0.108,0.472-0.068,0.641l-0.51,0.489
			c-0.116,0.112-0.28,0.16-0.438,0.13L22,16.583v1.557c0,0.384-0.414,0.624-0.747,0.434l-1.44-1.304l1.015-2.884
			c0.105-0.386-0.031-0.797-0.344-1.046L18,11.375z"/>
		<path fill="#828E3D" d="M11.541,13.341l-1.369-1.192C10.063,12.055,10,11.917,10,11.772V9.246c0-0.131,0.051-0.256,0.143-0.35
			l1.507-1.539c0.193-0.197,0.51-0.201,0.707-0.007L14,8.958l0.024,2.395L11.541,13.341z"/>
		<path fill="#FFFFFF" d="M12.011,9.23c0.144,0.107,0.283,0.228,0.416,0.356c-0.313,0.456-0.508,1.078-0.508,1.765
			c0,0.158,0.013,0.312,0.033,0.462c-0.357-0.14-0.603-0.328-0.737-0.449c-0.081-0.073-0.135-0.169-0.155-0.276
			c-0.064-0.34-0.164-1.167,0.235-1.746C11.457,9.107,11.782,9.06,12.011,9.23z"/>
		<path fill="#373F3F" d="M13.52,10.979c-0.206-0.331-0.469-0.711-0.779-1.063c-0.1-0.114-0.204-0.226-0.314-0.33
			c-0.313,0.456-0.508,1.078-0.508,1.765c0,0.158,0.013,0.312,0.033,0.462c0.33,0.13,0.76,0.211,1.289,0.167l0.587-0.47
			C13.748,11.363,13.648,11.185,13.52,10.979z"/>
		<path fill="#7D883A" d="M20.459,13.341l1.369-1.192C21.937,12.055,22,11.917,22,11.772V9.246c0-0.131-0.051-0.256-0.143-0.35
			L20.35,7.357c-0.193-0.197-0.51-0.201-0.707-0.007L18,8.958l-0.024,2.395L20.459,13.341z"/>
		<path fill="#F7F7F7" d="M19.989,9.23c-0.144,0.107-0.283,0.228-0.416,0.356c0.313,0.456,0.508,1.078,0.508,1.765
			c0,0.158-0.013,0.312-0.033,0.462c0.357-0.14,0.603-0.328,0.737-0.449c0.081-0.073,0.135-0.169,0.155-0.276
			c0.064-0.34,0.164-1.167-0.235-1.746C20.543,9.107,20.218,9.06,19.989,9.23z"/>
		<path fill="#2B3332" d="M19.573,9.586c-0.109,0.105-0.213,0.216-0.314,0.33c-0.31,0.352-0.573,0.732-0.779,1.063
			c-0.128,0.206-0.228,0.384-0.307,0.531l0.587,0.47c0.528,0.044,0.959-0.037,1.289-0.167c0.02-0.15,0.033-0.304,0.033-0.462
			C20.081,10.663,19.886,10.042,19.573,9.586z"/>
		<path fill="#EDEEEE" d="M15.684,1.105l-2.22,0.74C13.171,1.943,12.85,1.9,12.593,1.729l-2.352-1.568
			c-0.149-0.1-0.341-0.111-0.501-0.031L8.983,0.508l4.619,3.483C13.853,4.18,14,4.476,14,4.79v6.101c0,0.306-0.14,0.594-0.379,0.784
			l-2.103,1.665c-0.314,0.248-0.449,0.66-0.344,1.047l0.726,2.669c0.065,0.239,0.216,0.445,0.424,0.579l3.136,2.017
			c0.171,0.11,0.367,0.16,0.562,0.156V1.057C15.907,1.055,15.793,1.069,15.684,1.105z"/>
		<path fill="#E3E5E5" d="M19.677,17.635c0.208-0.134,0.359-0.34,0.424-0.579l0.726-2.669c0.105-0.386-0.03-0.798-0.344-1.047
			l-2.103-1.665C18.14,11.486,18,11.197,18,10.891V4.79c0-0.314,0.147-0.609,0.398-0.798l4.619-3.483L22.26,0.13
			c-0.16-0.08-0.352-0.068-0.501,0.031l-2.352,1.568C19.15,1.9,18.829,1.943,18.536,1.845l-2.22-0.74
			c-0.096-0.032-0.196-0.046-0.295-0.048v18.751c0.181-0.004,0.362-0.054,0.52-0.156L19.677,17.635z"/>
		<path fill="#2B3332" d="M17.036,17.523l0.67-1.341c0.1-0.201,0.368-0.244,0.527-0.085l0.67,0.67
			c0.159,0.159,0.115,0.426-0.085,0.527l-1.341,0.67C17.195,18.105,16.895,17.805,17.036,17.523z"/>
		<path fill="#373F3F" d="M14.964,17.523l-0.67-1.341c-0.1-0.201-0.368-0.244-0.527-0.085l-0.67,0.67
			c-0.159,0.159-0.115,0.426,0.085,0.527l1.341,0.67C14.805,18.105,15.105,17.805,14.964,17.523z"/>
		<path fill="#EDEEEE" d="M1.75,11L0,12.846v1.846l1.75,1.788l1.253,9.113c0.033,0.296,0.265,0.444,0.497,0.444V11.923L1.75,11z"/>
		<path fill="#E3E5E5" d="M3.997,25.594l1.253-9.113L7,14.692v-1.846L5.25,11L3.5,11.923v14.115
			C3.732,26.038,3.964,25.89,3.997,25.594z"/>
	</g>
</g>
<g id="labels">
</g>
</svg>
