<?xml version="1.0" encoding="utf-8"?>
<!-- Generator: Adobe Illustrator 23.0.6, SVG Export Plug-In . SVG Version: 6.00 Build 0)  -->
<svg version="1.1" xmlns="http://www.w3.org/2000/svg" xmlns:xlink="http://www.w3.org/1999/xlink" x="0px" y="0px" width="32px"
	 height="32px" viewBox="0 0 32 32" enable-background="new 0 0 32 32" xml:space="preserve">
<g id="icons">
	<g>
		<path fill="#EA8BB4" d="M21,7v15h4.937c2.593,0,3.491,2.643,3.802,4.349c0.087,0.477,0.757,0.556,0.95,0.111
			C34.121,18.536,30.833,7,21,7z"/>
		<path fill="#F9ADC8" d="M8.763,16.385c-1.111,0.741-2.775,4.369-5.013,4.6s-3.095-2.151-2.625-3.271s2.483-3.464,4.766-5.387
			s5.68-1.189,5.68-1.189v5.238L8.763,16.385z"/>
		<path fill="#F8A1C4" d="M23.237,16.385c1.111,0.741,2.775,4.369,5.013,4.6s3.095-2.151,2.625-3.271
			c-0.47-1.12-2.483-3.464-4.766-5.387s-5.68-1.189-5.68-1.189v5.238L23.237,16.385z"/>
		<path fill="#F9ADC8" d="M16,9v20.988c0,0,9,0.012,9.916-6.467C26.911,16.478,20.536,9,20.536,9H16z"/>
		<path fill="#FAB8CD" d="M16,0.007v11.821c0,0,4.314,0.819,6.279-1.117c1.639-1.615,1.387-3.098,0.644-4.809
			c-0.73-1.679-0.993-2.945-2.538-4.319C18.383-0.196,16,0.007,16,0.007z"/>
		<path fill="#FAB8CD" d="M16,9v20.988c0,0-9,0.012-9.916-6.467C5.089,16.478,11.464,9,11.464,9H16z"/>
		<path fill="#FAC4D1" d="M16,0.007v11.821c0,0-4.314,0.819-6.279-1.117C8.082,9.096,8.334,7.613,9.078,5.902
			c0.73-1.679,0.993-2.945,2.538-4.319C13.617-0.196,16,0.007,16,0.007z"/>
		<path fill="#D84459" d="M16,12.163V9.089c0,0-1.609-0.268-2.979-0.826c-1.288-0.524-2.56,1.438-1.785,2.777S16,12.163,16,12.163z"
			/>
		<path fill="#FFF3D9" d="M16,15.839v6.098c0,0-3.254-0.091-4.709-2.053c-1.096-1.477-1.27-3.639-1.289-4.965
			c-0.006-0.397,0.424-0.635,0.762-0.427C11.676,15.054,13.413,15.839,16,15.839z"/>
		<path fill="#FDEBBB" d="M16,23.75v4.272c0,0-4.299-0.342-6-2.022c-1.766-1.744-2.14-3.592-1.887-5.73
			c0.052-0.442,0.62-0.585,0.894-0.235C10.09,21.421,12.44,23.75,16,23.75z"/>
		<path fill="#F8A1C4" d="M16,29V10.753c0,0-1.456-0.143-2.523-0.599c-1.067-0.456-1.908,0.114-1.811,1.483
			s-1.003,10.435-1.456,11.575C9.757,24.353,9.434,28.943,16,29z"/>
		<path fill="#C84054" d="M16,12.163V9.089c0,0,1.609-0.268,2.979-0.826c1.288-0.524,2.56,1.438,1.785,2.777
			C19.988,12.378,16,12.163,16,12.163z"/>
		<path fill="#FDEBBB" d="M16,15.839v6.098c0,0,3.254-0.091,4.709-2.053c1.096-1.477,1.27-3.639,1.289-4.965
			c0.006-0.397-0.424-0.635-0.762-0.427C20.324,15.054,18.587,15.839,16,15.839z"/>
		<path fill="#FAE09F" d="M16,23.75v4.272c0,0,4.299-0.342,6-2.022c1.766-1.744,2.14-3.592,1.887-5.73
			c-0.052-0.442-0.62-0.585-0.894-0.235C21.91,21.421,19.56,23.75,16,23.75z"/>
		<path fill="#F297BE" d="M16,29V10.753c0,0,1.456-0.143,2.523-0.599c1.067-0.456,1.908,0.114,1.811,1.483
			c-0.097,1.368,1.003,10.435,1.456,11.575C22.243,24.353,22.566,28.943,16,29z"/>
		<ellipse fill="#2B3332" cx="19" cy="5.5" rx="1" ry="1.5"/>
		<circle fill="#F7F7F7" cx="19" cy="5" r="0.5"/>
		<ellipse fill="#373F3F" cx="13" cy="5.5" rx="1" ry="1.5"/>
		<circle fill="#F7F7F7" cx="13" cy="5" r="0.5"/>
		<path fill="#F8A1C4" d="M29,28.703C29,31.852,27.433,32,25.5,32S22,31.852,22,28.703S23.567,23,25.5,23S29,25.553,29,28.703z"/>
		<path fill="#DADDDC" d="M23.796,32c-0.39,0-0.639-0.431-0.429-0.759C23.731,30.675,24.396,30,25.5,30s1.769,0.675,2.133,1.241
			C27.844,31.569,27.594,32,27.204,32H23.796z"/>
		<circle fill="#FAE09F" cx="25.5" cy="27" r="2"/>
		<circle fill="#F8A1C4" cx="25.5" cy="27" r="1"/>
		<path fill="#F9ADC8" d="M10,28.703C10,31.852,8.433,32,6.5,32S3,31.852,3,28.703S4.567,23,6.5,23S10,25.553,10,28.703z"/>
		<path fill="#E3E5E5" d="M4.796,32c-0.39,0-0.639-0.431-0.429-0.759C4.731,30.675,5.396,30,6.5,30s1.769,0.675,2.133,1.241
			C8.844,31.569,8.594,32,8.204,32H4.796z"/>
		<circle fill="#FDEBBB" cx="6.5" cy="27" r="2"/>
		<circle fill="#F9ADC8" cx="6.5" cy="27" r="1"/>
	</g>
</g>
<g id="labels">
</g>
</svg>
