<?xml version="1.0" encoding="utf-8"?>
<!-- Generator: Adobe Illustrator 23.0.6, SVG Export Plug-In . SVG Version: 6.00 Build 0)  -->
<svg version="1.1" xmlns="http://www.w3.org/2000/svg" xmlns:xlink="http://www.w3.org/1999/xlink" x="0px" y="0px" width="32px"
	 height="32px" viewBox="0 0 32 32" enable-background="new 0 0 32 32" xml:space="preserve">
<g id="icons">
	<g>
		<path fill="#4EAFA3" d="M25.603,21.472l0.896-8.24l-2.998-0.132l-0.355,8.038c-0.309,0.092-0.6,0.222-0.858,0.402l-8.868-4.973
			l-1.467,2.616l9.067,4.607C21.016,23.861,21,23.928,21,24c0,1.657,1.343,3,3,3c1.657,0,3-1.343,3-3
			C27,22.934,26.441,22.004,25.603,21.472z"/>
		<g>
			<path fill="#58B7AE" d="M24.519,6.005c-0.324,0.003-0.619,0.188-0.761,0.479l-0.456,0.93c-0.127,0.037-0.251,0.082-0.374,0.128
				l-0.76-0.432c-0.282-0.16-0.63-0.147-0.899,0.033l-0.543,0.364c-0.269,0.18-0.413,0.497-0.373,0.819l0.117,0.916
				C19.557,10.293,19,11.664,19,13.167c0,3.314,2.686,6,6,6V6.001L24.519,6.005z"/>
			<path fill="#4EAFA3" d="M29.133,18.333c0.311,0.091,0.647,0,0.868-0.238l0.445-0.478c0.221-0.237,0.289-0.579,0.175-0.882
				l-0.3-0.803C30.753,15.103,31,14.165,31,13.167c0-0.391-0.04-0.771-0.112-1.141l0.529-0.638c0.207-0.249,0.255-0.594,0.125-0.891
				l-0.263-0.598c-0.13-0.297-0.417-0.494-0.741-0.51l-0.914-0.045c-0.818-0.989-1.95-1.705-3.24-2.01l-0.442-0.867
				C25.794,6.178,25.497,5.997,25.173,6L25,6.001v13.165c1.259,0,2.426-0.389,3.391-1.052L29.133,18.333z"/>
		</g>
		<g>
			<path fill="#79C6C1" d="M5.646,17.762c-0.188,0.188-0.426,0.279-0.665,0.279c-0.257,0-0.516-0.104-0.718-0.307
				c-0.391-0.391-0.36-1.051,0.03-1.442C4.596,15.99,5.977,15,11,15V6C9.712,6,8.485,6.252,7.355,6.695L6.361,6.131
				C6.032,5.943,5.625,5.958,5.31,6.169L4.676,6.594C4.361,6.805,4.192,7.176,4.24,7.551l0.125,0.981C2.305,10.364,1,13.027,1,16
				c0,0.112,0.013,0.22,0.017,0.331l-0.646,0.505c-0.298,0.233-0.439,0.615-0.364,0.986l0.152,0.749
				c0.075,0.371,0.354,0.668,0.719,0.767l0.783,0.211c0.304,0.799,0.704,1.549,1.192,2.235l-0.263,0.801
				c-0.118,0.36-0.023,0.756,0.246,1.022l0.543,0.538c0.269,0.267,0.666,0.358,1.024,0.237l0.776-0.263
				c0.684,0.491,1.43,0.896,2.228,1.204l0.225,0.805c0.102,0.365,0.402,0.641,0.773,0.712l0.75,0.145
				c0.372,0.072,0.752-0.073,0.983-0.373l0.484-0.631C10.748,25.986,10.872,26,11,26v-9C6.74,17,5.656,17.754,5.646,17.762z"/>
			<path fill="#F57552" d="M4.263,17.735c0.202,0.202,0.461,0.307,0.718,0.307c0.239,0,0.477-0.091,0.665-0.279
				C5.656,17.754,6.74,17,11,17v-2c-5.023,0-6.404,0.99-6.707,1.293C3.902,16.684,3.872,17.344,4.263,17.735z"/>
			<path fill="#67BFB5" d="M13.792,26.265c0.288,0.246,0.69,0.309,1.039,0.161l0.704-0.297c0.349-0.147,0.585-0.479,0.609-0.857
				l0.047-0.737C19.071,22.779,21,19.619,21,16c0-2.973-1.305-5.636-3.365-7.467l0.125-0.981c0.048-0.376-0.121-0.746-0.435-0.957
				L16.69,6.169c-0.315-0.211-0.721-0.226-1.051-0.038l-0.993,0.565C13.515,6.252,12.288,6,11,6v9c5.023,0,6.404,0.99,6.707,1.293
				c0.391,0.391,0.391,1.023,0,1.414c-0.391,0.391-1.022,0.391-1.413,0.001c0.001,0.001,0.001,0.001,0,0.001
				C16.274,17.709,15.131,17,11,17v9c0.754,0,1.485-0.09,2.192-0.249L13.792,26.265z"/>
			<path fill="#EB6B48" d="M16.294,17.709c0.001,0,0.001,0,0-0.001c0.391,0.39,1.022,0.39,1.413-0.001
				c0.391-0.391,0.391-1.023,0-1.414C17.404,15.99,16.023,15,11,15v2C15.131,17,16.274,17.709,16.294,17.709z"/>
		</g>
		<g>
			<path fill="#FFFFFF" d="M8,20.429c0,0.828,1.262,1.429,3,1.429v-0.714c-1.105,0-2-0.32-2-0.714c0-0.395,0.895-0.714,2-0.714V19
				C9.262,19,8,19.601,8,20.429z"/>
			<path fill="#FFFFFF" d="M7,21.143c-0.552,0-1,0.32-1,0.714c0,0.394,0.448,0.714,1,0.714c0.272,0,0.516-0.079,0.697-0.204
				l2.218,0.45l-2.101,0.554C7.727,23.32,7.621,23.286,7.5,23.286c-0.276,0-0.5,0.16-0.5,0.357C7,23.84,7.224,24,7.5,24
				c0.274,0,0.494-0.157,0.499-0.352L11,23.039v-0.511l-3.036-0.8C7.876,21.397,7.488,21.143,7,21.143z"/>
			<path fill="#F7F7F7" d="M13,20.429c0,0.394-0.895,0.714-2,0.714v0.714c1.738,0,3-0.601,3-1.429S12.738,19,11,19v0.714
				C12.105,19.714,13,20.034,13,20.429z"/>
			<path fill="#F7F7F7" d="M11.005,23.038l2.996,0.607C14.003,23.842,14.225,24,14.5,24c0.276,0,0.5-0.16,0.5-0.357
				c0-0.197-0.224-0.357-0.5-0.357c-0.119,0-0.224,0.034-0.309,0.083l-2.095-0.552l2.211-0.448c0.18,0.124,0.423,0.203,0.693,0.203
				c0.552,0,1-0.32,1-0.714c0-0.395-0.448-0.714-1-0.714c-0.49,0-0.878,0.256-0.964,0.588l-3.03,0.799L11,22.528v0.511
				L11.005,23.038z"/>
		</g>
		<g>
			<path fill="#FFFFFF" d="M22.75,17c0,0.579,0.946,1,2.25,1v-0.5c-0.828,0-1.5-0.224-1.5-0.5c0-0.276,0.672-0.5,1.5-0.5V16
				C23.696,16,22.75,16.421,22.75,17z"/>
			<path fill="#F7F7F7" d="M26.5,17c0,0.276-0.672,0.5-1.5,0.5V18c1.304,0,2.25-0.421,2.25-1s-0.946-1-2.25-1v0.5
				C25.828,16.5,26.5,16.724,26.5,17z"/>
		</g>
		<g>
			<g>
				<g>
					<path fill="#F7F7F7" d="M17.781,12.947l-4.821-1.441c-0.082-0.025-0.321,0.023-0.354,0.131
						c-0.492,1.646,0.722,1.987,2.213,2.433c1.491,0.446,2.652,0.963,3.185-0.819C18.037,13.143,17.864,12.972,17.781,12.947z"/>
				</g>
				<g>
					<path fill="#F7F7F7" d="M17.781,12.947l-4.821-1.441c-0.082-0.025-0.321,0.023-0.354,0.131
						c-0.492,1.646,0.722,1.987,2.213,2.433c1.491,0.446,2.652,0.963,3.185-0.819C18.037,13.143,17.864,12.972,17.781,12.947z"/>
				</g>
			</g>
			<g>
				<g>
					<path fill="#2B3332" d="M15.142,12.991c0.486,0.145,0.98-0.061,1.25-0.459l-2.043-0.611
						C14.357,12.403,14.657,12.846,15.142,12.991z"/>
				</g>
				<g>
					<path fill="#2B3332" d="M15.142,12.991c0.486,0.145,0.98-0.061,1.25-0.459l-2.043-0.611
						C14.357,12.403,14.657,12.846,15.142,12.991z"/>
				</g>
			</g>
		</g>
		<g>
			<g>
				<g>
					<path fill="#FFFFFF" d="M4.227,12.947l4.821-1.441c0.082-0.025,0.321,0.023,0.354,0.131c0.492,1.646-0.722,1.987-2.213,2.433
						c-1.491,0.446-2.652,0.963-3.185-0.819C3.972,13.143,4.145,12.972,4.227,12.947z"/>
				</g>
				<g>
					<path fill="#FFFFFF" d="M4.227,12.947l4.821-1.441c0.082-0.025,0.321,0.023,0.354,0.131c0.492,1.646-0.722,1.987-2.213,2.433
						c-1.491,0.446-2.652,0.963-3.185-0.819C3.972,13.143,4.145,12.972,4.227,12.947z"/>
				</g>
			</g>
			<g>
				<g>
					<path fill="#373F3F" d="M6.866,12.991c-0.486,0.145-0.98-0.061-1.25-0.459l2.043-0.611C7.652,12.403,7.352,12.846,6.866,12.991
						z"/>
				</g>
				<g>
					<path fill="#373F3F" d="M6.866,12.991c-0.486,0.145-0.98-0.061-1.25-0.459l2.043-0.611C7.652,12.403,7.352,12.846,6.866,12.991
						z"/>
				</g>
			</g>
		</g>
		<g>
			<path fill="#F7F7F7" d="M14.269,17.194c0.756,0.105,1.261,0.233,1.575,0.336l-0.606-1.819c-0.076-0.228-0.398-0.228-0.474,0
				L14.269,17.194z"/>
			<path fill="#FFFFFF" d="M6.153,17.541c0.324-0.11,0.829-0.239,1.579-0.345l-0.495-1.484c-0.076-0.228-0.398-0.228-0.474,0
				L6.153,17.541z"/>
		</g>
		<path fill="#FFFFFF" d="M29,11.984c0,0-0.469,1.604-1.818,1.185c-1.079-0.335-0.856-1.733-0.856-1.733L29,11.984z"/>
		<circle fill="#2B3332" cx="27.537" cy="12.331" r="0.5"/>
		<path fill="#FFFFFF" d="M21,11.984c0,0,0.469,1.604,1.818,1.185c1.079-0.335,0.856-1.733,0.856-1.733L21,11.984z"/>
		<circle fill="#2B3332" cx="22.463" cy="12.331" r="0.5"/>
		<path fill="#9D85D3" d="M6,27c0-1.105-0.895-2-2-2s-2,0.895-2,2c0,0.017,0.005,0.033,0.005,0.05C0.862,27.28,0,28.289,0,29.5
			C0,30.881,1.119,32,2.5,32S5,30.881,5,29.5c0-0.25-0.048-0.487-0.116-0.714C5.543,28.458,6,27.785,6,27z"/>
		<path fill="#9179C6" d="M30,1c-0.375,0-0.721,0.11-1.021,0.289C28.875,0.561,28.256,0,27.5,0C26.672,0,26,0.672,26,1.5
			c0,0.693,0.472,1.27,1.11,1.442C27.04,3.115,27,3.302,27,3.5C27,4.328,27.672,5,28.5,5c0.25,0,0.482-0.067,0.689-0.175
			C29.437,4.936,29.711,5,30,5c1.105,0,2-0.895,2-2C32,1.895,31.105,1,30,1z"/>
		<g>
			<g>
				<path fill="#2B3332" d="M23.023,14.395l-1.103,0.368c-0.131,0.044-0.202,0.186-0.158,0.316c0.044,0.131,0.186,0.201,0.316,0.158
					l1.103-0.368c0.586-0.196,1.202-0.294,1.818-0.294v-0.5C24.331,14.076,23.661,14.183,23.023,14.395z"/>
				<path fill="#2B3332" d="M27.921,15.237c0.026,0.009,0.053,0.013,0.079,0.013c0.104,0,0.202-0.066,0.237-0.171
					c0.044-0.131-0.027-0.272-0.158-0.316l-1.103-0.368c-0.638-0.212-1.307-0.319-1.977-0.319v0.5c0.616,0,1.232,0.098,1.818,0.294
					L27.921,15.237z"/>
			</g>
			<g>
				<path fill="#2B3332" d="M23.023,14.395l-1.103,0.368c-0.131,0.044-0.202,0.186-0.158,0.316c0.044,0.131,0.186,0.201,0.316,0.158
					l1.103-0.368c0.586-0.196,1.202-0.294,1.818-0.294v-0.5C24.331,14.076,23.661,14.183,23.023,14.395z"/>
				<path fill="#2B3332" d="M27.921,15.237c0.026,0.009,0.053,0.013,0.079,0.013c0.104,0,0.202-0.066,0.237-0.171
					c0.044-0.131-0.027-0.272-0.158-0.316l-1.103-0.368c-0.638-0.212-1.307-0.319-1.977-0.319v0.5c0.616,0,1.232,0.098,1.818,0.294
					L27.921,15.237z"/>
			</g>
		</g>
	</g>
</g>
<g id="labels">
</g>
</svg>
