<?xml version="1.0" encoding="utf-8"?>
<!-- Generator: Adobe Illustrator 23.0.6, SVG Export Plug-In . SVG Version: 6.00 Build 0)  -->
<svg version="1.1" xmlns="http://www.w3.org/2000/svg" xmlns:xlink="http://www.w3.org/1999/xlink" x="0px" y="0px" width="32px"
	 height="32px" viewBox="0 0 32 32" enable-background="new 0 0 32 32" xml:space="preserve">
<g id="icons">
	<g>
		<path fill="#6673AA" d="M30.701,13.829c0.75-0.033,1.331-0.667,1.297-1.417c-0.033-0.749-0.659-1.322-1.417-1.297
			c-0.55,0.027-1.234-1.267-1.665-2.726c0.103-0.016,0.188-0.025,0.249-0.028c0.374,0.73,1.268,1.024,2.003,0.658
			c0.742-0.369,1.043-1.27,0.674-2.011c-0.806-1.619-2.141-1.859-3.83-1.508c-0.51-0.885-1.156-1.382-1.68-1.65
			c-0.459-0.235-0.919-0.354-1.348-0.407c-0.493-0.882-1.57-2.432-3.35-3.116c-1.321-0.508-2.778-0.423-4.213,0.247
			c-0.594,0.277-1.17,0.657-1.679,1.12c-0.794-0.691-1.925-1.235-3.502-1.235c-2.372,0-3.634,1.688-4.648,3.045
			C6.988,4.312,6.418,5.075,5.78,5.281C4.854,5.58,4.338,5.104,4.203,4.95C4.027,4.75,3.98,4.545,4.013,4.474
			c0.119-0.25,0.171-0.236,0.214-0.23C5.006,4.525,5.866,4.125,6.15,3.346c0.283-0.779-0.119-1.639-0.897-1.922
			C4.181,1.035,2.248,1.185,1.301,3.193C0.733,4.396,0.981,5.827,1.949,6.93c0.176,0.201,0.375,0.371,0.58,0.531
			c-3.225,0.69-2.87,5.562-1.644,7.62c0.276,0.463,0.628,0.778,0.997,0.999c-0.276,0.039-0.545,0.152-0.772,0.348
			c-1.125,0.974-1.425,2.399-0.762,3.631c0.046,0.085,0.102,0.161,0.154,0.241c-0.454,2.224-0.196,4.634,1.21,6.265
			c0.623,0.723,1.518,1.335,2.514,1.754c0.038,0.139,0.062,0.278,0.11,0.417c0.826,2.389,2.912,3.771,4.659,3.088
			c0.629-0.246,1.123-0.733,1.466-1.359c2.033,0.635,4.492,0.681,6.637,0.213c0.472,0.451,1.032,0.801,1.68,1.024
			C19.391,31.913,20.025,32,20.645,32c0.745,0,1.458-0.133,2.095-0.321c0.089,0.047,0.169,0.109,0.264,0.147
			c1.747,0.684,3.833-0.699,4.659-3.088c0.123-0.355,0.2-0.71,0.255-1.063c1.899-1.107,2.958-3.28,2.521-5.261
			c1.089-2.926,0.569-6.305-1.504-8.941c0.475,0.224,1.009,0.36,1.614,0.36C30.6,13.833,30.65,13.831,30.701,13.829z"/>
		<path fill="#7C8AC4" d="M26.222,14.9c2.763,2.928,2.234,6.982-0.863,9.384c-1.524,1.181,0.613,3.291,2.121,2.121
			c4.426-3.431,4.636-9.628,0.863-13.626C27.016,11.372,24.897,13.496,26.222,14.9L26.222,14.9z"/>
		<path fill="#6673AA" d="M10.641,23.249c3.054-1.792,6.049-3.408,9.61-3.874c-1.044-0.644-2.303-0.876-3.521-0.81
			c-1.412,0.076-8.953,2.567-9.223-0.262c-0.557,1.059-1.466,1.858-2.487,2.5c0.501,0.702,1.26,1.302,2.337,1.771
			C8.429,23.039,9.527,23.247,10.641,23.249z"/>
		<path fill="#8694D1" d="M29.004,16.623c0.306-1.889-2.584-2.701-2.893-0.798c-0.748,4.612-9.631,2.724-12.885,4.062
			c-2.442,1.004-4.642,3.606-4.361,6.394c0.533,5.283,8.105,2.893,10.254-0.604c0.122,0.619,0.589,1.146,1.412,1.115
			c2.947-0.108,7.168-1.986,7.974-4.837c0.365-1.289-0.912-2.065-1.906-1.803C27.819,19.358,28.743,18.233,29.004,16.623z
			 M25.613,21.159c-0.436,1.54-3.47,2.575-5.081,2.634c-0.39,0.014-0.697,0.152-0.929,0.357c-0.239-1.478-3.04-2.222-3.539-0.587
			c-0.239,0.782-2.323,3.199-3.5,2.562c-1.718-0.928,0.408-2.731,1.304-3.256c2.185-1.281,5.382-0.67,7.805-1.045
			c1.433-0.222,2.988-0.608,4.303-1.303C25.818,20.683,25.689,20.89,25.613,21.159z"/>
		<g>
			<path fill="#373F3F" d="M15.708,6.458c-5.81,0-10.417,2.458-10.417,7.625c0,4.671,4.71,8.458,10.521,8.458
				c0.063,0,0.124-0.007,0.188-0.008V6.466C15.902,6.465,15.807,6.458,15.708,6.458z"/>
			<path fill="#2B3332" d="M26.333,14.083c0-5.161-4.655-7.538-10.333-7.617v16.068C21.723,22.453,26.333,18.704,26.333,14.083z"/>
		</g>
		<circle fill="#FFFFFF" cx="10.5" cy="13.5" r="3.5"/>
		<circle fill="#373F3F" cx="11" cy="14" r="1"/>
		<circle fill="#F7F7F7" cx="21.5" cy="13.5" r="3.5"/>
		<circle fill="#2B3332" cx="21" cy="14" r="1"/>
		<path fill="#7C8AC4" d="M19.675,8.76c1.631-0.962,4.045-1.887,4.94,0.396c0.75,1.913,0.104,3.67-0.491,5.486
			c-0.294,0.897-0.479,1.687-0.124,2.596c0.419,1.073,2.464,2.196,2.063,3.451c-0.655,2.053,2.431,3.43,3.092,1.361
			c0.696-2.181,0.174-3.487-1.084-5.275c-0.872-1.239-0.386-1.673-0.045-3.118c0.321-1.36,0.402-2.786,0.154-4.165
			c-1.056-5.889-6.127-6.035-10.521-3.444C15.787,7.154,17.819,9.854,19.675,8.76L19.675,8.76z"/>
		<path fill="#8694D1" d="M15.256,3.188c0.126-0.298,0.251-0.597,0.369-0.901c0.07-0.179,0.167-0.325,0.277-0.451
			c-0.796-0.76-1.977-1.378-3.662-1.378c-2.372,0-3.634,1.688-4.648,3.045C6.988,4.312,6.418,5.075,5.78,5.281
			C4.854,5.58,4.338,5.104,4.203,4.95C4.027,4.75,3.98,4.545,4.013,4.474c0.119-0.25,0.171-0.236,0.214-0.23
			C5.006,4.525,5.866,4.125,6.15,3.346c0.283-0.779-0.119-1.639-0.897-1.922C4.181,1.035,2.248,1.185,1.301,3.193
			C0.733,4.396,0.981,5.827,1.949,6.93c0.828,0.943,1.998,1.448,3.247,1.448c0.495,0,1.001-0.079,1.504-0.241
			C8.248,7.638,9.176,6.396,9.995,5.3c0.957-1.28,1.458-1.841,2.245-1.841c1.399,0,1.866,0.749,2.012,1.113
			C14.555,4.094,14.9,3.638,15.256,3.188z"/>
		<path fill="#7C8AC4" d="M15.027,5.414c0.001-0.221,0.005-0.443,0.005-0.664c0-0.234,0.048-0.438,0.129-0.612
			c-1.324-0.688-2.97-0.903-4.41-0.704C9.404,3.62,8.436,4.42,7.848,5.481C10.119,4.897,12.578,5.001,15.027,5.414z"/>
		<path fill="#7C8AC4" d="M26.195,25.202c-0.975-1.865-3.234-2.873-4.957-3.39c-2.139-0.641-4.436-0.234-6.462,0.126
			c-0.982,0.174-1.91,0.339-2.752,0.382c-1.079,0.052-4.725,0.01-6.274-2.92C5.32,18.588,4.968,7.69,5.594,7.6l0,0
			C4.763,6.954,3.218,6.99,2.611,7.971c-0.93,1.502-1.51,3.099-0.837,4.843c0.312,0.809,0.82,1.43,1.429,1.95
			c-0.218,0.336-0.41,0.691-0.554,1.075c-0.045,0.119-0.077,0.242-0.114,0.364c-0.205,0.122-0.394,0.293-0.554,0.524
			c-1.832,2.645-2.513,7.236-0.269,9.84c1.862,2.159,6.132,3.379,8.358,1.173c0.821-0.814,0.536-1.862-0.141-2.45
			c0.724,0.094,1.471,0.143,2.253,0.101c1.034-0.053,2.101-0.243,3.132-0.426c1.772-0.315,3.604-0.64,5.041-0.209
			c1.565,0.47,2.759,1.186,3.117,1.87c0.098,0.188,0.179,0.438,0.037,0.872c-0.119,0.364-0.475,0.729-0.951,0.975
			c-0.72,0.373-1.937,0.612-2.779,0.324c-0.427-0.147-0.717-0.414-0.914-0.84c-0.355-0.771-1.269-1.109-2.039-0.752
			c-0.771,0.355-1.108,1.268-0.753,2.039c0.548,1.19,1.485,2.041,2.707,2.461C19.391,31.913,20.025,32,20.645,32
			c1.281,0,2.5-0.371,3.324-0.797c1.212-0.627,2.086-1.604,2.461-2.75C26.799,27.326,26.718,26.202,26.195,25.202z M7.666,25.335
			c-1.127,1.117-3.625-1.062-3.844-2.039c-0.098-0.438-0.123-0.902-0.097-1.371c1.093,1.444,2.665,2.469,4.53,3.02
			C8.052,25.024,7.853,25.15,7.666,25.335z"/>
		<path fill="#8694D1" d="M31.842,7.007c-1.211-2.432-3.609-1.76-6.619-0.631c-2.124,0.798-3.664,1.086-5.315,0.987
			c-2.579-0.152-2.522-0.917-2.617-1.238c-0.349-1.178,0.331-2.336,1.397-2.833c0.695-0.324,1.303-0.379,1.859-0.169
			c1.045,0.395,1.791,1.663,1.99,2.119c0.325,0.757,1.203,1.109,1.963,0.789c0.763-0.323,1.119-1.204,0.795-1.966
			c-0.121-0.285-1.25-2.811-3.663-3.737c-1.321-0.508-2.778-0.423-4.213,0.247c-1.615,0.753-3.106,2.259-3.444,4.15
			c-0.961-0.397-2.139-0.564-3.571-0.303C7.857,4.884,5.711,6.431,4.665,8.559c-0.821,1.67-0.862,3.457-0.114,4.902
			c0.669,1.292,0.797,3.485,0.272,4.693c-0.166,0.382-0.366,0.608-0.596,0.673c-0.621,0.172-1.017,0.007-1.171-0.116
			c0.005-0.004,0.01-0.009,0.016-0.014c0.626-0.542,0.695-1.489,0.153-2.116c-0.542-0.626-1.489-0.695-2.116-0.153
			c-1.125,0.974-1.425,2.399-0.762,3.631c0.629,1.169,1.915,1.842,3.36,1.842c0.434,0,0.882-0.061,1.331-0.187
			c1.125-0.316,2.001-1.134,2.537-2.367c0.885-2.038,0.73-5.162-0.36-7.267c-0.301-0.582-0.248-1.404,0.143-2.2
			c0.628-1.278,1.968-2.216,3.586-2.51c2.59-0.469,3.544,1.513,3.806,1.847c1.545,1.974,5.454,1.386,6.714,1.101
			c1.846-0.139,3.453-0.624,4.814-1.135c1.816-0.682,2.586-0.81,2.887-0.824c0.374,0.73,1.268,1.024,2.003,0.658
			C31.91,8.649,32.212,7.748,31.842,7.007z"/>
		
			<ellipse transform="matrix(0.2807 -0.9598 0.9598 0.2807 -8.7712 43.2965)" fill="#FF9A7E" cx="24.5" cy="27.5" rx="4.581" ry="3.391"/>
		
			<ellipse transform="matrix(0.9598 -0.2807 0.2807 0.9598 -7.4172 3.2106)" fill="#FFA68E" cx="7.5" cy="27.5" rx="3.391" ry="4.581"/>
	</g>
</g>
<g id="labels">
</g>
</svg>
