<?xml version="1.0" encoding="utf-8"?>
<!-- Generator: Adobe Illustrator 23.0.6, SVG Export Plug-In . SVG Version: 6.00 Build 0)  -->
<svg version="1.1" xmlns="http://www.w3.org/2000/svg" xmlns:xlink="http://www.w3.org/1999/xlink" x="0px" y="0px" width="32px"
	 height="32px" viewBox="0 0 32 32" enable-background="new 0 0 32 32" xml:space="preserve">
<g id="icons">
	<g>
		<g>
			<path fill="#F7F7F7" d="M0.224,26.213c0.39-1.112,1.632-2.096,3.086-2.914c0.13,0.197,0.243,0.405,0.324,0.63
				c0.177,0.494,0.43,1.186,0.712,1.937c0.546,1.449,2.418,0.802,3.701,2.5c0.194,0.257,0.372,0.466,0.543,0.655
				c-0.286,0.557-0.54,1.173-0.734,1.845c-0.469,1.625-2.997,1.656-3.943-0.902C3.068,27.682-0.84,29.245,0.224,26.213z"/>
			<path fill="#FFCA88" d="M4.345,25.865c-0.283-0.75-0.535-1.443-0.712-1.937c-0.081-0.224-0.194-0.433-0.324-0.63
				c2.76-1.554,6.295-2.497,6.295-2.497l2.031,4.5c0,0-1.813,1.31-3.047,3.718c-0.17-0.188-0.349-0.398-0.543-0.655
				C6.763,26.667,4.891,27.314,4.345,25.865z"/>
		</g>
		<path fill="#EDEEEE" d="M16,13V0.042c0,0-2.667,0-2.625,2.667C13.408,4.837,10.376,3.633,9.292,5c-0.958,1.208-1,3.958,1.458,5.75
			c2.243,1.635,2.458,4.375,2.458,4.375L16,13z"/>
		<path fill="#FFB76D" d="M16,13.5V5.458c0,0-3.5,0.25-4.083,3.167c-0.583,2.917-2.333,3.458-2.333,3.458l5.042,3.583L16,13.5z"/>
		<path fill="#F7F7F7" d="M10.375,9c0,0-1.292-1.25-3.167-1s-2.083,1.708-3.25,2S0,10.792,0,13c0,2.208,3.542,2.375,4.125,4
			s-0.042,3.5,2.458,4s6.458-1.542,6.458-1.542l1.583-5.917L10.375,9z"/>
		<path fill="#FFC172" d="M12.542,15.167c0,0-1.792-3.958-3.875-4.125c-2.083-0.167-2.481,1.036-3.875,1.292
			c-2.042,0.375-2.083,1.542,0.458,3.333c1.928,1.359,1.25,2.208,2.833,2.833c2.023,0.799,3.583-1.125,3.583-1.125L12.542,15.167z"
			/>
		<g>
			<path fill="#EDEEEE" d="M31.818,26.213c-0.39-1.112-1.632-2.096-3.086-2.914c-0.13,0.197-0.243,0.405-0.324,0.63
				c-0.177,0.494-0.43,1.186-0.712,1.937c-0.546,1.449-2.418,0.802-3.701,2.5c-0.194,0.257-0.372,0.466-0.543,0.655
				c0.286,0.557,0.54,1.173,0.734,1.845c0.469,1.625,2.997,1.656,3.943-0.902C28.974,27.682,32.882,29.245,31.818,26.213z"/>
			<path fill="#FFC172" d="M27.696,25.865c0.283-0.75,0.535-1.443,0.712-1.937c0.081-0.224,0.194-0.433,0.324-0.63
				c-2.76-1.554-6.295-2.497-6.295-2.497l-2.031,4.5c0,0,1.813,1.31,3.047,3.718c0.17-0.188,0.349-0.398,0.543-0.655
				C25.279,26.667,27.151,27.314,27.696,25.865z"/>
		</g>
		<path fill="#E3E5E5" d="M16,13V0.042c0,0,2.667,0,2.625,2.667C18.592,4.837,21.624,3.633,22.708,5c0.958,1.208,1,3.958-1.458,5.75
			c-2.243,1.635-2.458,4.375-2.458,4.375L16,13z"/>
		<path fill="#FFAD68" d="M16,13.5V5.458c0,0,3.5,0.25,4.083,3.167c0.583,2.917,2.333,3.458,2.333,3.458l-5.042,3.583L16,13.5z"/>
		<path fill="#EDEEEE" d="M21.625,9c0,0,1.292-1.25,3.167-1s2.083,1.708,3.25,2C29.208,10.292,32,10.792,32,13s-3.542,2.375-4.125,4
			s0.042,3.5-2.458,4s-6.458-1.542-6.458-1.542l-1.583-5.917L21.625,9z"/>
		<path fill="#FFB76D" d="M19.5,15.167c0,0,1.792-3.958,3.875-4.125c2.083-0.167,2.481,1.036,3.875,1.292
			c2.042,0.375,2.083,1.542-0.458,3.333c-1.928,1.359-1.25,2.208-2.833,2.833c-2.023,0.799-3.583-1.125-3.583-1.125L19.5,15.167z"/>
		<g>
			<path fill="#EDEEEE" d="M8.474,25.307C10.355,29.791,16,30,16,30v-3c-2.84,0-5.478-0.787-7.679-2.131
				C8.368,25.016,8.414,25.165,8.474,25.307z"/>
			<path fill="#E3E5E5" d="M16.001,30c0,0,5.645-0.209,7.526-4.693c0.059-0.142,0.105-0.291,0.153-0.439
				C21.479,26.213,18.841,27,16.001,27V30z"/>
			<path fill="#F7F7F7" d="M14.93,21.5c0-1.042-1.027-1.25-1.412-1.542c-0.385-0.292-0.642-0.917-0.471-2.042
				s0.471-2.208-0.599-2.75c-0.263-0.133-0.388-0.378-0.43-0.67c-3.026,2.38-4.758,7.099-3.698,10.372C10.522,26.213,13.16,27,16,27
				v-4.583C16,22.417,14.93,22.542,14.93,21.5z"/>
			<path fill="#FFB76D" d="M12.449,15.167c1.07,0.542,0.77,1.625,0.599,2.75s0.086,1.75,0.471,2.042
				c0.385,0.292,1.412,0.5,1.412,1.542c0,1.042,1.07,0.917,1.07,0.917V13c-1.464,0-2.815,0.579-3.981,1.496
				C12.06,14.789,12.186,15.034,12.449,15.167z"/>
			<path fill="#EDEEEE" d="M19.982,14.496c-0.042,0.292-0.168,0.537-0.43,0.67c-1.07,0.542-0.77,1.625-0.599,2.75
				s-0.086,1.75-0.471,2.042c-0.385,0.292-1.412,0.5-1.412,1.542c0,1.042-1.07,0.917-1.07,0.917V27c2.84,0,5.478-0.787,7.68-2.132
				C24.74,21.594,23.008,16.876,19.982,14.496z"/>
			<path fill="#FFAD68" d="M17.07,21.5c0-1.042,1.027-1.25,1.412-1.542c0.385-0.292,0.642-0.917,0.471-2.042
				s-0.471-2.208,0.599-2.75c0.263-0.133,0.388-0.378,0.43-0.67C18.816,13.579,17.465,13,16.001,13v9.417
				C16.001,22.417,17.07,22.542,17.07,21.5z"/>
		</g>
		<g>
			<path fill="#F7F7F7" d="M21.531,22.719c0-0.319-0.073-0.614-0.197-0.863l1.232-0.915c0.139,0.204,0.256,0.432,0.331,0.686
				c0.342,1.159-0.199,2.34-1.209,2.638c-0.343,0.101-0.695,0.082-1.024-0.028C21.165,24.038,21.531,23.438,21.531,22.719z"/>
			<path fill="#56C7CD" d="M19.476,23.237l0.353-0.262c0.077,0.251,0.251,0.427,0.454,0.427c0.275,0,0.498-0.321,0.498-0.716
				c0-0.134-0.033-0.253-0.077-0.361l0.631-0.469c0.123,0.249,0.197,0.544,0.197,0.863c0,0.719-0.366,1.319-0.866,1.518
				C20.187,24.078,19.757,23.726,19.476,23.237z"/>
			<path fill="#2B3332" d="M20.781,22.685c0,0.396-0.223,0.716-0.498,0.716c-0.203,0-0.377-0.176-0.454-0.427l0.875-0.65
				C20.749,22.432,20.781,22.551,20.781,22.685z"/>
			<path fill="#FFC172" d="M20.45,20.068c0.788-0.233,1.623,0.146,2.117,0.872l-1.232,0.915l-0.631,0.469l-0.875,0.65l-0.353,0.262
				c-0.094-0.164-0.178-0.338-0.235-0.531c-0.045-0.151-0.073-0.303-0.088-0.453C19.05,21.254,19.572,20.328,20.45,20.068z"/>
		</g>
		<g>
			<polygon fill="#2B3332" points="16.793,26.5 17.293,27 16.793,27.5 16,27.5 16,26.5 			"/>
			<path fill="#DD564C" d="M18.354,26.646l-1-1C17.26,25.553,17.133,25.5,17,25.5h-1v1h0.689c0.066,0,0.13,0.026,0.177,0.073
				l0.25,0.25c0.098,0.098,0.098,0.256,0,0.354l-0.25,0.25c-0.047,0.047-0.11,0.073-0.177,0.073H16v1h1
				c0.133,0,0.26-0.053,0.353-0.146l1-1C18.549,27.158,18.549,26.842,18.354,26.646z"/>
		</g>
		<g>
			<path fill="#FFFFFF" d="M10.469,22.719c0-0.319,0.073-0.614,0.197-0.863L9.433,20.94c-0.139,0.204-0.256,0.432-0.331,0.686
				c-0.342,1.159,0.199,2.34,1.209,2.638c0.343,0.101,0.695,0.082,1.024-0.028C10.835,24.038,10.469,23.438,10.469,22.719z"/>
			<path fill="#5BD3D5" d="M12.524,23.237l-0.353-0.262c-0.077,0.251-0.251,0.427-0.454,0.427c-0.275,0-0.498-0.321-0.498-0.716
				c0-0.134,0.033-0.253,0.077-0.361l-0.631-0.469c-0.123,0.249-0.197,0.544-0.197,0.863c0,0.719,0.366,1.319,0.866,1.518
				C11.813,24.078,12.243,23.726,12.524,23.237z"/>
			<path fill="#373F3F" d="M11.219,22.685c0,0.396,0.223,0.716,0.498,0.716c0.203,0,0.377-0.176,0.454-0.427l-0.875-0.65
				C11.251,22.432,11.219,22.551,11.219,22.685z"/>
			<path fill="#FFCA88" d="M11.55,20.068c-0.788-0.233-1.623,0.146-2.117,0.872l1.232,0.915l0.631,0.469l0.875,0.65l0.353,0.262
				c0.094-0.164,0.178-0.338,0.235-0.531c0.045-0.151,0.073-0.303,0.088-0.453C12.95,21.254,12.428,20.328,11.55,20.068z"/>
		</g>
		<path fill="#FFF5D8" d="M16,11v6h-0.755c-0.426,0-0.81-0.371-0.969-0.938l-0.196-0.697c-0.113-0.402-0.108-0.865,0.033-1.248
			c0.255-0.688,0.644-1.071,0.898-1.337C15.482,12.286,15.011,11.198,16,11z"/>
		<g>
			<polygon fill="#373F3F" points="15.207,26.5 14.707,27 15.207,27.5 16,27.5 16,26.5 			"/>
			<path fill="#E55D53" d="M15,25.5c-0.133,0-0.26,0.053-0.354,0.146l-1,1c-0.195,0.195-0.195,0.512,0,0.707l1,1
				C14.74,28.447,14.867,28.5,15,28.5h1v-1h-0.689c-0.066,0-0.13-0.026-0.177-0.073l-0.25-0.25c-0.098-0.098-0.098-0.256,0-0.354
				l0.25-0.25c0.047-0.047,0.11-0.073,0.177-0.073H16v-1H15z"/>
		</g>
		<path fill="#FEF1C6" d="M16,11v6h0.755c0.426,0,0.81-0.371,0.969-0.938l0.196-0.697c0.113-0.402,0.108-0.865-0.033-1.248
			c-0.255-0.688-0.644-1.071-0.898-1.337C16.518,12.286,16.989,11.198,16,11z"/>
		<g>
			<path fill="#FCD2BE" d="M16.236,15.69c-0.039-0.113-0.138-0.169-0.236-0.169V20c0.75,0,1.5-0.625,1.5-0.625L16.236,15.69z"/>
			<path fill="#FCDDCF" d="M15.764,15.69L14.5,19.375c0,0,0.75,0.625,1.5,0.625v-4.479C15.901,15.521,15.802,15.577,15.764,15.69z"
				/>
		</g>
	</g>
</g>
<g id="labels">
</g>
</svg>
