<?xml version="1.0" encoding="utf-8"?>
<!-- Generator: Adobe Illustrator 23.0.6, SVG Export Plug-In . SVG Version: 6.00 Build 0)  -->
<svg version="1.1" xmlns="http://www.w3.org/2000/svg" xmlns:xlink="http://www.w3.org/1999/xlink" x="0px" y="0px" width="32px"
	 height="32px" viewBox="0 0 32 32" enable-background="new 0 0 32 32" xml:space="preserve">
<g id="icons">
	<g>
		<path fill="#EDEEEE" d="M18,24.821c0,0-3.526,6.761-6.72,6.139C8.086,30.337,11.875,22,11.875,22L18,24.821z"/>
		<path fill="#EDEEEE" d="M18,9.405c0,0-5.127-9.458-9-8.308s-1.424,6.05-1.094,7.541s-0.453,2.471-1.772,2.343
			c-1.318-0.128-3.008,1.874-1.607,3.663s8.158,6.453,8.158,6.453L18,9.405z"/>
		<g>
			<path fill="#F7F7F7" d="M0,25c0-3.25,1.067-2.245,1.628-4.62c0.561-2.375-2.484-2.625-1.162-4.833
				c1.574-2.629,8.933,5.083,8.933,5.083l0.331,1.239c-2.557,0.493-6.557,1.603-9.592,4.003C0.05,25.633,0,25.348,0,25z"/>
			<path fill="#EDEEEE" d="M4.913,29.005c-1.495-2.16-4.145-1.434-4.775-3.133c3.035-2.4,7.035-3.51,9.592-4.003L10,22.88
				C10,22.88,7.786,33.157,4.913,29.005z"/>
		</g>
		<circle fill="#373F3F" cx="5" cy="19" r="1"/>
		<circle fill="#373F3F" cx="6" cy="26" r="1"/>
		<circle fill="#373F3F" cx="2.5" cy="22.5" r="0.5"/>
		<path fill="#E3E5E5" d="M14,24.821c0,0,3.526,6.761,6.72,6.139c3.194-0.622-0.595-8.96-0.595-8.96L14,24.821z"/>
		<path fill="#E3E5E5" d="M14,9.405c0,0,5.127-9.458,9-8.308s1.424,6.05,1.094,7.541c-0.33,1.491,0.453,2.471,1.772,2.343
			c1.318-0.128,3.008,1.874,1.607,3.663c-1.401,1.789-8.158,6.453-8.158,6.453L14,9.405z"/>
		<g>
			<path fill="#EDEEEE" d="M32,25c0-3.25-1.067-2.245-1.628-4.62c-0.561-2.375,2.484-2.625,1.162-4.833
				c-1.574-2.629-8.933,5.083-8.933,5.083l-0.331,1.239c2.557,0.493,6.557,1.603,9.592,4.003C31.951,25.633,32,25.348,32,25z"/>
			<path fill="#E3E5E5" d="M27.087,29.005c1.495-2.16,4.145-1.434,4.775-3.133c-3.035-2.4-7.035-3.51-9.592-4.003L22,22.88
				C22,22.88,24.214,33.157,27.087,29.005z"/>
		</g>
		<g>
			<path fill="#2B3332" d="M16,11V8c4.667,0,6.907,2.728,7.675,7.61C21.801,12.789,19.062,11,16,11z"/>
			<path fill="#FF805D" d="M21.99,26.477l-1.281-2.883C20.548,23.233,20.19,23,19.795,23H16V11c3.062,0,5.801,1.789,7.675,4.61
				C23.894,17.005,24,18.565,24,20.3C24,23.249,23.142,25.191,21.99,26.477z"/>
			<path fill="#EDEEEE" d="M21.99,26.477c-0.748,0.835-1.618,1.396-2.461,1.769C17.698,29.054,16,28.999,16,28.999v-5.886V23h3.795
				c0.395,0,0.753,0.233,0.914,0.594L21.99,26.477z"/>
		</g>
		<g>
			<ellipse fill="#2B3332" cx="21" cy="16.75" rx="2" ry="2.25"/>
			<path fill="#F7F7F7" d="M21,14.5c-1.105,0-2,1.007-2,2.25c0,1.243,0.895,2.25,2,2.25s2-1.007,2-2.25
				C23,15.507,22.105,14.5,21,14.5z M21,18.5c-0.827,0-1.5-0.785-1.5-1.75c0-0.965,0.673-1.75,1.5-1.75c0.827,0,1.5,0.785,1.5,1.75
				C22.5,17.715,21.827,18.5,21,18.5z"/>
		</g>
		<circle fill="#F7F7F7" cx="20.5" cy="16.5" r="0.5"/>
		<g>
			<path fill="#373F3F" d="M16,11V8c-4.667,0-6.907,2.728-7.675,7.61C10.199,12.789,12.938,11,16,11z"/>
			<path fill="#FF8D6E" d="M10.01,26.477l1.281-2.883C11.452,23.233,11.81,23,12.205,23H16V11c-3.062,0-5.801,1.789-7.675,4.61
				C8.106,17.005,8,18.565,8,20.3C8,23.249,8.858,25.191,10.01,26.477z"/>
			<path fill="#F7F7F7" d="M10.01,26.477c0.748,0.835,1.618,1.396,2.461,1.769C14.302,29.054,16,28.999,16,28.999v-5.886V23h-3.795
				c-0.395,0-0.753,0.233-0.914,0.594L10.01,26.477z"/>
		</g>
		<g>
			<ellipse fill="#373F3F" cx="11" cy="16.75" rx="2" ry="2.25"/>
			<path fill="#FFFFFF" d="M11,14.5c-1.105,0-2,1.007-2,2.25C9,17.993,9.895,19,11,19s2-1.007,2-2.25C13,15.507,12.105,14.5,11,14.5
				z M11,18.5c-0.827,0-1.5-0.785-1.5-1.75C9.5,15.785,10.173,15,11,15c0.827,0,1.5,0.785,1.5,1.75C12.5,17.715,11.827,18.5,11,18.5
				z"/>
		</g>
		<circle fill="#FFFFFF" cx="11.5" cy="16.5" r="0.5"/>
		<path fill="#F7F7F7" d="M16,10V3c0,0-2.874,2.874-2.996,5.808c-0.005,0.113,0.071,0.217,0.178,0.252L16,10z"/>
		<path fill="#EDEEEE" d="M16.004,10V3c0,0,2.874,2.874,2.996,5.808c0.005,0.113-0.071,0.217-0.178,0.252L16.004,10z"/>
		<circle fill="#2B3332" cx="27" cy="19" r="1"/>
		<circle fill="#2B3332" cx="22" cy="5" r="1"/>
		<circle fill="#373F3F" cx="10" cy="5" r="1"/>
		<circle fill="#2B3332" cx="26" cy="26" r="1"/>
		<circle fill="#2B3332" cx="29.5" cy="22.5" r="0.5"/>
		<circle fill="#2B3332" cx="25.5" cy="13.5" r="0.5"/>
		<circle fill="#373F3F" cx="6.5" cy="13.5" r="0.5"/>
		<g>
			<path fill="#FF805D" d="M13.854,22.146l-0.5,0.5c-0.195,0.195-0.195,0.512,0,0.707l0.5,0.5C13.947,23.947,14.075,24,14.207,24H16
				v-2h-1.793C14.075,22,13.947,22.053,13.854,22.146z"/>
			<path fill="#F57552" d="M17.793,24c0.133,0,0.26-0.053,0.354-0.146l0.5-0.5c0.195-0.195,0.195-0.512,0-0.707l-0.5-0.5
				C18.053,22.053,17.925,22,17.793,22H16v2H17.793z"/>
		</g>
		<path fill="#F7F7F7" d="M17,22h1l-0.276,0.553c-0.092,0.184-0.355,0.184-0.447,0L17,22z"/>
		<path fill="#FFFFFF" d="M14,22h1l-0.276,0.553c-0.092,0.184-0.355,0.184-0.447,0L14,22z"/>
		<path fill="#FFA68E" d="M14.207,24c-0.133,0-0.26-0.053-0.354-0.146l-0.5-0.5c-0.195-0.195-0.195-0.512,0-0.707l0.5-0.5
			C13.947,22.053,14.075,22,14.207,22H16v-1h-1.793c-0.401,0-0.777,0.156-1.061,0.439l-0.5,0.5c-0.283,0.283-0.439,0.66-0.439,1.061
			c0,0.401,0.156,0.777,0.44,1.061l0.5,0.5C13.43,24.844,13.806,25,14.207,25H16v-1H14.207z"/>
		<path fill="#FF9A7E" d="M18.854,24.561l0.5-0.5c0.283-0.283,0.439-0.66,0.439-1.061c0-0.401-0.156-0.777-0.44-1.061l-0.5-0.5
			C18.57,21.156,18.194,21,17.793,21H16v1h1.793c0.133,0,0.26,0.053,0.354,0.146l0.5,0.5c0.195,0.195,0.195,0.512,0,0.707l-0.5,0.5
			C18.053,23.947,17.925,24,17.793,24H16v1h1.793C18.194,25,18.57,24.844,18.854,24.561z"/>
		<g>
			<path fill="#FCD2BE" d="M16.477,7.501C16.403,7.269,16.201,7.152,16,7.152V15c0.694,0,1.389-0.347,1.869-0.656
				c0.383-0.246,0.554-0.714,0.416-1.148L16.477,7.501z"/>
			<path fill="#FCDDCF" d="M15.523,7.501l-1.808,5.696c-0.138,0.434,0.033,0.902,0.416,1.148C14.611,14.653,15.306,15,16,15V7.152
				C15.799,7.152,15.597,7.269,15.523,7.501z"/>
		</g>
	</g>
</g>
<g id="labels">
</g>
</svg>
