<?xml version="1.0" encoding="utf-8"?>
<!-- Generator: Adobe Illustrator 23.0.6, SVG Export Plug-In . SVG Version: 6.00 Build 0)  -->
<svg version="1.1" xmlns="http://www.w3.org/2000/svg" xmlns:xlink="http://www.w3.org/1999/xlink" x="0px" y="0px" width="32px"
	 height="32px" viewBox="0 0 32 32" enable-background="new 0 0 32 32" xml:space="preserve">
<g id="icons">
	<g>
		<g>
			<path fill="#F7F7F7" d="M16,1c-0.394,0-0.788,0.215-0.991,0.645L11.23,9.666c-0.161,0.342-0.472,0.578-0.832,0.633L16,17.224V1z"
				/>
			<path fill="#F7F7F7" d="M1.047,12.419c-0.103,0.383-0.028,0.819,0.288,1.141l6.115,6.243c0.26,0.266,0.379,0.649,0.318,1.025
				l-1.443,8.816c-0.076,0.462,0.114,0.867,0.42,1.112L16,17.224L1.047,12.419z"/>
			<path fill="#EDEEEE" d="M21.602,10.299c-0.36-0.055-0.671-0.292-0.832-0.633l-3.779-8.021C16.788,1.215,16.394,1,16,1v16.224
				L21.602,10.299z"/>
			<path fill="#EDEEEE" d="M25.196,30.799c0.341-0.238,0.561-0.664,0.48-1.155l-1.443-8.816c-0.061-0.376,0.057-0.759,0.318-1.025
				l6.115-6.243c0.316-0.322,0.391-0.759,0.288-1.141L16,17.224L25.196,30.799z"/>
			<path fill="#E3E5E5" d="M30.053,11.586l-8.45-1.286L16,17.224l14.953-4.805C30.842,12.007,30.523,11.657,30.053,11.586z"/>
			<path fill="#E3E5E5" d="M10.398,10.299l-8.45,1.286c-0.47,0.072-0.789,0.421-0.9,0.833L16,17.224L10.398,10.299z"/>
			<path fill="#E3E5E5" d="M16,26.569c0.177,0,0.353,0.044,0.514,0.133l7.558,4.162c0.389,0.214,0.808,0.155,1.123-0.065L16,17.224
				V26.569z"/>
			<path fill="#E3E5E5" d="M7.928,30.864l7.558-4.162c0.161-0.089,0.338-0.133,0.514-0.133v-9.345L6.744,30.756
				C7.064,31.013,7.513,31.093,7.928,30.864z"/>
		</g>
		<path fill="#FFD96C" d="M23.75,16h-1.84c-0.153-0.911-0.509-1.751-1.023-2.473l1.3-1.3c0.098-0.098,0.098-0.256,0-0.354
			l-1.061-1.061c-0.098-0.098-0.256-0.098-0.354,0l-1.3,1.3C18.492,11.415,17.296,11,16,11v12c1.296,0,2.492-0.415,3.473-1.113
			l1.3,1.3c0.098,0.098,0.256,0.098,0.354,0l1.061-1.061c0.098-0.098,0.098-0.256,0-0.354l-1.3-1.3
			c0.514-0.722,0.87-1.562,1.023-2.473h1.84c0.138,0,0.25-0.112,0.25-0.25v-1.5C24,16.112,23.888,16,23.75,16z"/>
		<path fill="#FFE28A" d="M16,11c-1.296,0-2.492,0.415-3.473,1.113l-1.3-1.3c-0.098-0.098-0.256-0.098-0.354,0l-1.061,1.061
			c-0.098,0.098-0.098,0.256,0,0.354l1.3,1.3c-0.514,0.722-0.87,1.562-1.023,2.473H8.25C8.112,16,8,16.112,8,16.25v1.5
			C8,17.888,8.112,18,8.25,18h1.84c0.153,0.911,0.509,1.751,1.023,2.473l-1.3,1.3c-0.098,0.098-0.098,0.256,0,0.354l1.061,1.061
			c0.098,0.098,0.256,0.098,0.354,0l1.3-1.3C13.508,22.585,14.704,23,16,23V11z"/>
		<g>
			<path fill="#71B1E1" d="M20,17c0-2.209-1.791-4-4-4v8C18.209,21,20,19.209,20,17z"/>
			<path fill="#7FB8E0" d="M12,17c0,2.209,1.791,4,4,4v-8C13.791,13,12,14.791,12,17z"/>
		</g>
	</g>
</g>
<g id="labels">
</g>
</svg>
