<?xml version="1.0" encoding="utf-8"?>
<!-- Generator: Adobe Illustrator 23.0.6, SVG Export Plug-In . SVG Version: 6.00 Build 0)  -->
<svg version="1.1" xmlns="http://www.w3.org/2000/svg" xmlns:xlink="http://www.w3.org/1999/xlink" x="0px" y="0px" width="32px"
	 height="32px" viewBox="0 0 32 32" enable-background="new 0 0 32 32" xml:space="preserve">
<g id="icons">
	<g>
		<g>
			<g>
				<path fill="#E3E5E5" d="M12.043,21.424c-1.396-0.411-2.704-1.026-3.882-1.823C8.902,23.251,12.13,26,16,26v-1
					C13.936,25,12.257,23.431,12.043,21.424z"/>
				<path fill="#78DF7C" d="M12.043,21.424C12.257,23.431,13.936,25,16,25v-3C14.624,22,13.299,21.793,12.043,21.424z"/>
				<path fill="#DADDDC" d="M16,25v1c3.87,0,7.098-2.749,7.839-6.4c-1.178,0.797-2.486,1.412-3.882,1.823
					C19.743,23.431,18.064,25,16,25z"/>
				<path fill="#6CD275" d="M16,25c2.064,0,3.743-1.569,3.957-3.576C18.701,21.793,17.376,22,16,22V25z"/>
				<path fill="#EDEEEE" d="M12,21c0-2.209,1.791-4,4-4v-7c-4.418,0-8,3.582-8,8c0,0.548,0.056,1.083,0.161,1.6
					c1.178,0.797,2.486,1.412,3.882,1.823C12.028,21.282,12,21.145,12,21z"/>
				<path fill="#84ED82" d="M12,21c0,0.145,0.028,0.282,0.043,0.424C13.299,21.793,14.624,22,16,22v-5C13.791,17,12,18.791,12,21z"
					/>
				<path fill="#E3E5E5" d="M16,10v7c2.209,0,4,1.791,4,4c0,0.145-0.028,0.282-0.043,0.424c1.396-0.411,2.704-1.026,3.882-1.823
					C23.944,19.083,24,18.548,24,18C24,13.582,20.418,10,16,10z"/>
				<path fill="#78DF7C" d="M19.957,21.424C19.972,21.282,20,21.145,20,21c0-2.209-1.791-4-4-4v5
					C17.376,22,18.701,21.793,19.957,21.424z"/>
			</g>
			
				<rect x="24.25" y="13.664" transform="matrix(0.8651 -0.5015 0.5015 0.8651 -4.6976 14.8425)" fill="#FAC7AF" width="2" height="4.985"/>
			<path fill="#FCD2BE" d="M10.012,29.8L7.1,25.917c-0.127-0.17-0.134-0.401-0.016-0.577l1.919-2.878
				c0.153-0.23,0.464-0.292,0.693-0.139l0.832,0.555c0.23,0.153,0.292,0.464,0.139,0.693l-1.134,1.701
				c-0.118,0.176-0.111,0.408,0.016,0.577l2.063,2.751c0.166,0.221,0.121,0.534-0.1,0.7l-0.8,0.6
				C10.492,30.066,10.178,30.021,10.012,29.8z"/>
			
				<rect x="4.258" y="15.156" transform="matrix(0.5014 -0.8652 0.8652 0.5014 -10.613 13.8949)" fill="#FCD2BE" width="4.985" height="2"/>
			<circle fill="#84ED82" cx="8" cy="14" r="2.5"/>
			<circle fill="#78DF7C" cx="9.5" cy="23" r="2"/>
			<path fill="#495587" d="M9.938,28.614c0.938,0,2.062-1.422,2.062,0.95C12,32,11.969,32,11.412,32c-0.881,0-5.974,0-5.974,0
				S2,32.062,2,29.949c0-1.647,0.623-2.534,1.684-2.889c0.428-0.143,0.804,0.288,0.622,0.713C3.983,28.525,4.449,29.035,5,29.035
				c0.75,0,2.031-0.337,2.938-0.721C8.844,27.929,9,28.614,9.938,28.614z"/>
			<circle fill="#78DF7C" cx="24" cy="14" r="2.5"/>
			<path fill="#F7F7F7" d="M7.89,19.058C7.96,18.885,8,18.698,8,18.5C8,17.672,7.328,17,6.5,17c-0.198,0-0.385,0.04-0.558,0.11
				C5.77,16.472,5.193,16,4.5,16s-1.27,0.472-1.442,1.11C2.885,17.04,2.698,17,2.5,17C1.672,17,1,17.672,1,18.5
				c0,0.198,0.04,0.385,0.11,0.558C0.472,19.23,0,19.807,0,20.5C0,21.328,0.672,22,1.5,22c0.312,0,0.602-0.096,0.842-0.259
				C2.774,22.49,3.573,23,4.5,23s1.726-0.51,2.158-1.259C6.898,21.904,7.188,22,7.5,22C8.328,22,9,21.328,9,20.5
				C9,19.807,8.528,19.23,7.89,19.058z"/>
			<g>
				<circle fill="#78DF7C" cx="4.5" cy="17.5" r="0.5"/>
				<circle fill="#78DF7C" cx="1.5" cy="20.5" r="0.5"/>
				<circle fill="#78DF7C" cx="6.5" cy="18.5" r="0.5"/>
				<circle fill="#78DF7C" cx="7.5" cy="20.5" r="0.5"/>
				<circle fill="#78DF7C" cx="2.5" cy="18.5" r="0.5"/>
			</g>
			<g>
				<g>
					<path fill="#FCD2BE" d="M20,11.531C20,10.133,21.133,9,22.531,9c0.007,0,0.014,0.002,0.021,0.002
						C22.525,8.96,22.5,8.91,22.472,8.873c-0.435-0.581-0.804-1.213-0.896-1.914C20.879,1.639,16,2.005,16,2.005V15
						c2.535,0,4.151-0.595,5.184-1.334C20.474,13.218,20,12.432,20,11.531z"/>
					<path fill="#A9FAA2" d="M23,10.856c0-0.896-0.203-1.471-0.449-1.854C22.544,9.002,22.538,9,22.531,9
						C21.133,9,20,10.133,20,11.531c0,0.901,0.474,1.687,1.184,2.135C22.878,12.455,23,10.856,23,10.856z"/>
				</g>
				<g>
					<path fill="#FCDDCF" d="M12,11.531C12,10.133,10.867,9,9.469,9C9.462,9,9.456,9.002,9.449,9.002
						C9.475,8.96,9.5,8.91,9.528,8.873c0.435-0.581,0.804-1.213,0.896-1.914C11.121,1.639,16,2.005,16,2.005V15
						c-2.535,0-4.151-0.595-5.184-1.334C11.526,13.218,12,12.432,12,11.531z"/>
					<path fill="#C1FDBD" d="M9,10.856C9,9.96,9.203,9.385,9.449,9.002C9.456,9.002,9.462,9,9.469,9C10.867,9,12,10.133,12,11.531
						c0,0.901-0.474,1.687-1.184,2.135C9.122,12.455,9,10.856,9,10.856z"/>
				</g>
				<circle fill="#F7F7F7" cx="18.5" cy="8.5" r="1.5"/>
				<circle fill="#2B3332" cx="18.5" cy="8.5" r="0.5"/>
				<circle fill="#FFFFFF" cx="13.5" cy="8.5" r="1.5"/>
				<circle fill="#373F3F" cx="13.5" cy="8.5" r="0.5"/>
				<path fill="#495587" d="M19.026,2.932l4.829-2.68c0.443-0.246,0.991-0.316,1.5-0.191l3.318,1.195
					C29.129,1.367,29.101,1.921,28.635,2l-2.354,0.165l1.662,1.534c0.317,0.268,0.03,0.722-0.41,0.647l-3.066-0.647l0.883,1.796
					c0.118,0.3-0.219,0.585-0.574,0.485l-3.03-0.747l-0.384,0.735C21.362,5.968,18.714,5.545,19.026,2.932z"/>
				<path fill="#515E91" d="M12.974,2.932l-4.829-2.68c-0.443-0.246-0.991-0.316-1.5-0.191L3.327,1.256
					C2.871,1.367,2.899,1.921,3.365,2l2.354,0.165L4.056,3.699c-0.317,0.268-0.03,0.722,0.41,0.647l3.066-0.647L6.649,5.495
					C6.531,5.794,6.869,6.08,7.223,5.98l3.03-0.747l0.384,0.735C10.638,5.968,13.286,5.545,12.974,2.932z"/>
				<g>
					<path fill="#373F3F" d="M13.182,11.828c-0.095-0.098-0.253-0.104-0.353-0.009s-0.105,0.252-0.011,0.352
						c0.042,0.044,1.037,1.079,3.183,1.079v-0.5C14.084,12.75,13.19,11.837,13.182,11.828z"/>
					<path fill="#2B3332" d="M19.171,11.819c-0.101-0.095-0.257-0.089-0.353,0.009C18.81,11.837,17.916,12.75,16,12.75v0.5
						c2.146,0,3.141-1.035,3.183-1.079C19.276,12.071,19.271,11.914,19.171,11.819z"/>
				</g>
			</g>
		</g>
		<path fill="#FAC7AF" d="M21.988,29.8l2.912-3.883c0.127-0.17,0.134-0.401,0.016-0.577l-1.919-2.878
			c-0.153-0.23-0.464-0.292-0.693-0.139l-0.832,0.555c-0.23,0.153-0.292,0.464-0.139,0.693l1.134,1.701
			c0.118,0.176,0.111,0.408-0.016,0.577L20.388,28.6c-0.166,0.221-0.121,0.534,0.1,0.7l0.8,0.6
			C21.508,30.066,21.822,30.021,21.988,29.8z"/>
		<circle fill="#6CD275" cx="22.5" cy="23" r="2"/>
		<path fill="#424B7E" d="M22.062,28.614c-0.938,0-2.062-1.422-2.062,0.95C20,32,20.031,32,20.588,32c0.881,0,5.974,0,5.974,0
			S30,32.062,30,29.949c0-1.647-0.623-2.534-1.684-2.889c-0.428-0.143-0.804,0.288-0.622,0.713c0.323,0.753-0.144,1.263-0.694,1.263
			c-0.75,0-2.031-0.337-2.938-0.721C23.156,27.929,23,28.614,22.062,28.614z"/>
		<path fill="#EDEEEE" d="M30.89,19.058C30.96,18.885,31,18.698,31,18.5c0-0.828-0.672-1.5-1.5-1.5c-0.198,0-0.385,0.04-0.558,0.11
			C28.77,16.472,28.193,16,27.5,16s-1.27,0.472-1.442,1.11C25.885,17.04,25.698,17,25.5,17c-0.828,0-1.5,0.672-1.5,1.5
			c0,0.198,0.04,0.385,0.11,0.558C23.472,19.23,23,19.807,23,20.5c0,0.828,0.672,1.5,1.5,1.5c0.312,0,0.602-0.096,0.842-0.259
			C25.774,22.49,26.573,23,27.5,23s1.726-0.51,2.158-1.259C29.898,21.904,30.188,22,30.5,22c0.828,0,1.5-0.672,1.5-1.5
			C32,19.807,31.528,19.23,30.89,19.058z"/>
		<g>
			<circle fill="#6CD275" cx="27.5" cy="17.5" r="0.5"/>
			<circle fill="#6CD275" cx="30.5" cy="20.5" r="0.5"/>
			<circle fill="#6CD275" cx="25.5" cy="18.5" r="0.5"/>
			<circle fill="#6CD275" cx="24.5" cy="20.5" r="0.5"/>
			<circle fill="#6CD275" cx="29.5" cy="18.5" r="0.5"/>
		</g>
	</g>
</g>
<g id="labels">
</g>
</svg>
