<?xml version="1.0" encoding="utf-8"?>
<!-- Generator: Adobe Illustrator 23.0.6, SVG Export Plug-In . SVG Version: 6.00 Build 0)  -->
<svg version="1.1" xmlns="http://www.w3.org/2000/svg" xmlns:xlink="http://www.w3.org/1999/xlink" x="0px" y="0px" width="32px"
	 height="32px" viewBox="0 0 32 32" enable-background="new 0 0 32 32" xml:space="preserve">
<g id="icons">
	<g>
		<path fill="#745DA6" d="M30.888,22.553l-0.531-1c-0.083-0.156-0.209-0.282-0.356-0.376V19c0-0.334-0.167-0.647-0.445-0.832l-6-4
			l-1.109,1.664l5.332,3.555C27.916,19.479,28,19.636,28,19.803v1.374c-0.148,0.094-0.274,0.22-0.356,0.376l-0.531,1
			c-0.149,0.28-0.149,0.615,0,0.894l0.531,1C27.824,24.786,28.192,25,28.594,25h0.812c0.403,0,0.771-0.214,0.951-0.553l0.531-1
			C31.036,23.168,31.036,22.832,30.888,22.553z"/>
		<path fill="#7A63AD" d="M4.356,21.553C4.274,21.397,4.148,21.271,4,21.177v-1.374c0-0.167,0.084-0.323,0.223-0.416l5.332-3.555
			l-1.109-1.664l-6,4C2.167,18.353,2,18.666,2,19v2.177c-0.148,0.094-0.274,0.22-0.356,0.376l-0.531,1
			c-0.149,0.28-0.149,0.615,0,0.894l0.531,1C1.824,24.786,2.192,25,2.594,25h0.812c0.403,0,0.771-0.214,0.951-0.553l0.531-1
			c0.149-0.28,0.149-0.615,0-0.894L4.356,21.553z"/>
		<circle fill="#745DA6" cx="8.5" cy="15.5" r="2.5"/>
		<circle fill="#6E57A0" cx="23.5" cy="15.5" r="2.5"/>
		<g>
			<path fill="#604893" d="M23.001,23.81c1.645,1.192,2.349,3.027,1.572,4.099c-0.777,1.071-2.739,0.973-4.384-0.219
				s-3.158-3.614-2.382-4.685C18.583,21.933,21.356,22.618,23.001,23.81z"/>
			<path fill="#675099" d="M26.07,27.809C27.311,32,27.637,32,24.971,32c-3.192,0-2.442,0-3.443-2.664
				c-0.715-1.902-0.156-3.828,1.099-4.25C23.881,24.664,25.493,25.861,26.07,27.809z"/>
		</g>
		<g>
			<path fill="#675099" d="M8.999,23.81c-1.645,1.192-2.349,3.027-1.572,4.099c0.777,1.071,2.739,0.973,4.384-0.219
				s3.158-3.614,2.382-4.685C13.417,21.933,10.644,22.618,8.999,23.81z"/>
			<path fill="#6E57A0" d="M5.93,27.809C4.689,32,4.363,32,7.029,32c3.192,0,2.442,0,3.443-2.664
				c0.715-1.902,0.156-3.828-1.099-4.25C8.119,24.664,6.507,25.861,5.93,27.809z"/>
		</g>
		<path fill="#FDEBBB" d="M5.002,3.629L4.424,3.382C4.241,3.304,4.218,3.055,4.383,2.945l0.537-0.36
			C4.834,0.532,5.23-0.693,5.474,0.423c0.204,0.935,0.71,1.749,1.356,2.458l0.498-0.16c0.189-0.061,0.37,0.112,0.318,0.304
			l-0.142,0.52c0.463,0.404,0.963,0.765,1.471,1.082l0.52-0.267c0.176-0.091,0.383,0.05,0.363,0.248l-0.051,0.5
			c1.648,0.886,3.126,1.317,3.126,1.317l-3.145,5.484L7.355,9.878L6.682,9.944C6.484,9.963,6.344,9.756,6.436,9.58l0.312-0.6
			c0,0-0.681-1.239-0.954-1.972L5.215,6.935c-0.197-0.025-0.288-0.258-0.16-0.41l0.416-0.492C5.235,5.203,5.087,4.385,5.002,3.629z"
			/>
		<path fill="#FAE09F" d="M26.93,3.629l0.578-0.247c0.182-0.078,0.206-0.327,0.041-0.438l-0.537-0.36
			c0.086-2.053-0.309-3.278-0.553-2.162c-0.204,0.935-0.71,1.749-1.356,2.458l-0.498-0.16c-0.189-0.061-0.37,0.112-0.318,0.304
			l0.142,0.52c-0.463,0.404-0.963,0.765-1.471,1.082l-0.52-0.267c-0.176-0.091-0.383,0.05-0.363,0.248l0.051,0.5
			C20.478,5.992,19,6.423,19,6.423l3.145,5.484l2.432-2.028l0.674,0.066c0.197,0.019,0.338-0.188,0.246-0.364l-0.312-0.6
			c0,0,0.681-1.239,0.954-1.972l0.579-0.073c0.197-0.025,0.288-0.258,0.16-0.41L26.46,6.033C26.697,5.203,26.845,4.385,26.93,3.629z
			"/>
		<path fill="#6E57A0" d="M16,21h-6c0,0,1.522,8,6,8V21z"/>
		<path fill="#745DA6" d="M16,18H9.924c0,0-1.911,3-0.238,6.043c1.468,2.669,4.264-0.965,6.313-0.965V18z"/>
		<path fill="#7A63AD" d="M16,14H9.225c0,0-2.488,2.968-0.372,6.109c1.714,2.546,4.862-1.175,7.147-1.175V14z"/>
		<path fill="#866EBA" d="M16,4.996c-1.897,0-5.026,0.191-6.393,2.836c-1.811,3.506-2.819,8.164,1.033,8.164
			c3.591,0,3.043-1.633,5.359-1.633V4.996z"/>
		<path fill="#675099" d="M15.999,21h7c0,0-1.776,8-7,8V21z"/>
		<path fill="#6E57A0" d="M15.999,18h6.076c0,0,1.911,3,0.238,6.043c-1.468,2.669-4.264-0.965-6.313-0.965V18z"/>
		<path fill="#745DA6" d="M15.999,14h6.775c0,0,2.488,2.968,0.372,6.109c-1.714,2.546-4.862-1.175-7.147-1.175V14z"/>
		<path fill="#7A63AD" d="M15.999,4.996c1.898,0,5.026,0.191,6.393,2.836c1.811,3.506,2.819,8.164-1.033,8.164
			c-3.591,0-3.043-1.633-5.359-1.633V4.996z"/>
		<path fill="#373F3F" d="M15.999,10c0,0-3.999-0.161-3.999,6.089C12,18,15.999,18,15.999,18V10z"/>
		<path fill="#2B3332" d="M16,10c0,0,3.999-0.161,3.999,6.089C19.999,18,16,18,16,18V10z"/>
		<g>
			<path fill="#FFFFFF" d="M12,8.498c0-0.166,0.011-0.323,0.028-0.472L11,6.998v2.5c0,0.276,0.224,0.5,0.5,0.5h1
				C12.224,9.998,12,9.326,12,8.498z"/>
			<path fill="#FFFFFF" d="M12.972,8.97c-0.066,0.596-0.251,1.028-0.472,1.028H14L12.972,8.97z"/>
			<path fill="#373F3F" d="M12.972,8.97l-0.944-0.944C12.011,8.175,12,8.332,12,8.498c0,0.828,0.224,1.5,0.5,1.5
				C12.721,9.998,12.906,9.566,12.972,8.97z"/>
		</g>
		<g>
			<path fill="#F7F7F7" d="M20,8.498c0-0.166-0.011-0.323-0.028-0.472L21,6.998v2.5c0,0.276-0.224,0.5-0.5,0.5h-1
				C19.776,9.998,20,9.326,20,8.498z"/>
			<path fill="#F7F7F7" d="M19.028,8.97c0.066,0.596,0.251,1.028,0.472,1.028H18L19.028,8.97z"/>
			<path fill="#2B3332" d="M19.028,8.97l0.944-0.944C19.989,8.175,20,8.332,20,8.498c0,0.828-0.224,1.5-0.5,1.5
				C19.279,9.998,19.094,9.566,19.028,8.97z"/>
		</g>
		<g>
			<g>
				<path fill="#F7F7F7" d="M12.488,12.878l1.914-0.479c0.222-0.055,0.259-0.355,0.058-0.463l-1.121-0.602
					C13.014,11.723,12.72,12.231,12.488,12.878z"/>
				<path fill="#F7F7F7" d="M14.355,13.949l-1.948-0.847c-0.17,0.534-0.299,1.153-0.362,1.887l2.271-0.568
					C14.548,14.363,14.574,14.044,14.355,13.949z"/>
				<path fill="#F7F7F7" d="M14.328,15.953l-2.284-0.942C12.016,15.348,12,15.706,12,16.089c0,0.332,0.126,0.603,0.325,0.83
					l1.968-0.492C14.527,16.368,14.551,16.045,14.328,15.953z"/>
			</g>
			<g>
				<path fill="#F7F7F7" d="M12.488,12.878l1.914-0.479c0.222-0.055,0.259-0.355,0.058-0.463l-1.121-0.602
					C13.014,11.723,12.72,12.231,12.488,12.878z"/>
				<path fill="#F7F7F7" d="M14.355,13.949l-1.948-0.847c-0.17,0.534-0.299,1.153-0.362,1.887l2.271-0.568
					C14.548,14.363,14.574,14.044,14.355,13.949z"/>
				<path fill="#F7F7F7" d="M14.328,15.953l-2.284-0.942C12.016,15.348,12,15.706,12,16.089c0,0.332,0.126,0.603,0.325,0.83
					l1.968-0.492C14.527,16.368,14.551,16.045,14.328,15.953z"/>
			</g>
		</g>
		<g>
			<g>
				<path fill="#E3E5E5" d="M19.511,12.878l-1.914-0.479c-0.222-0.055-0.259-0.355-0.058-0.463l1.121-0.602
					C18.985,11.723,19.278,12.231,19.511,12.878z"/>
				<path fill="#E3E5E5" d="M17.643,13.949l1.948-0.847c0.17,0.534,0.299,1.153,0.362,1.887l-2.271-0.568
					C17.451,14.363,17.424,14.044,17.643,13.949z"/>
				<path fill="#E3E5E5" d="M17.671,15.953l2.284-0.942c0.028,0.337,0.044,0.695,0.044,1.078c0,0.332-0.126,0.603-0.326,0.83
					l-1.968-0.492C17.471,16.368,17.448,16.045,17.671,15.953z"/>
			</g>
			<g>
				<path fill="#E3E5E5" d="M19.511,12.878l-1.914-0.479c-0.222-0.055-0.259-0.355-0.058-0.463l1.121-0.602
					C18.985,11.723,19.278,12.231,19.511,12.878z"/>
				<path fill="#E3E5E5" d="M17.643,13.949l1.948-0.847c0.17,0.534,0.299,1.153,0.362,1.887l-2.271-0.568
					C17.451,14.363,17.424,14.044,17.643,13.949z"/>
				<path fill="#E3E5E5" d="M17.671,15.953l2.284-0.942c0.028,0.337,0.044,0.695,0.044,1.078c0,0.332-0.126,0.603-0.326,0.83
					l-1.968-0.492C17.471,16.368,17.448,16.045,17.671,15.953z"/>
			</g>
		</g>
	</g>
</g>
<g id="labels">
</g>
</svg>
