<?xml version="1.0" encoding="utf-8"?>
<!-- Generator: Adobe Illustrator 23.0.6, SVG Export Plug-In . SVG Version: 6.00 Build 0)  -->
<svg version="1.1" xmlns="http://www.w3.org/2000/svg" xmlns:xlink="http://www.w3.org/1999/xlink" x="0px" y="0px" width="32px"
	 height="32px" viewBox="0 0 32 32" enable-background="new 0 0 32 32" xml:space="preserve">
<g id="icons">
	<g>
		<path fill="#F0C877" d="M25.968,25.542c0.362-0.17,0.703-0.379,1.023-0.617c-0.017-1.153-0.355-2.272-0.991-3.233v-4.331
			C23.26,15.887,19.786,15,16,15v8.062L25.968,25.542z"/>
		<path fill="#F7D684" d="M5.009,24.924C5.026,23.771,5.363,22.652,6,21.691v-4.331C8.74,15.887,12.214,15,16,15l0,8.031
			L5.009,24.924z"/>
		<path fill="#FAE09F" d="M16,9c-3.786,0-7.26,0.887-10,2.361v6C8.74,15.887,12.214,15,16,15V9z"/>
		<path fill="#F7D684" d="M16,15c3.786,0,7.26,0.887,10,2.361v-6C23.26,9.887,19.786,9,16,9V15z"/>
		<path fill="#56C7CD" d="M6.658,30.459c-0.04,0.005-0.081,0.009-0.122,0.009c-0.681,0.01-1.375-0.337-2.064-1.03
			c-1.488-1.499-2.957-4.715-2.885-7.961c0.045-2.048-1.028-2.684-1.074-2.71c-0.471-0.269-0.653-0.871-0.395-1.349
			c0.257-0.477,0.838-0.668,1.322-0.424c0.09,0.046,2.222,1.168,2.147,4.527c-0.08,3.64,2.175,6.866,2.927,6.947
			c0.553-0.008,1.003,0.432,1.011,0.985C7.532,29.965,7.152,30.392,6.658,30.459z"/>
		<path fill="#5BD3D5" d="M16,22.528c0,0-7.969,0.875-9-3.969c-0.689-3.234-1.875-5.531-3.498-6.66
			c-0.26-0.181-0.597-0.008-0.503,0.295c0.297,0.957,0.73,2.981,0.657,4.053c-0.125,1.844-2.344,6.094,0.062,8.75
			c2.406,2.656-0.094,5.375-0.781,6.031c-0.687,0.656,1.594,1.812,4.063,0s7.343-1.683,9-1.656V22.528z"/>
		<path fill="#51BAC5" d="M25.342,30.459c0.04,0.005,0.081,0.009,0.122,0.009c0.681,0.01,1.375-0.337,2.064-1.03
			c1.488-1.499,2.957-4.715,2.885-7.961c-0.045-2.048,1.028-2.684,1.074-2.71c0.471-0.269,0.653-0.871,0.395-1.349
			c-0.257-0.477-0.838-0.668-1.322-0.424c-0.09,0.046-2.222,1.168-2.147,4.527c0.08,3.64-2.175,6.866-2.927,6.947
			c-0.553-0.008-1.003,0.432-1.011,0.985C24.468,29.965,24.848,30.392,25.342,30.459z"/>
		<path fill="#56C7CD" d="M16,22.528c0,0,7.969,0.875,9-3.969c0.689-3.234,1.875-5.531,3.498-6.66
			c0.26-0.181,0.597-0.008,0.503,0.295c-0.297,0.957-0.73,2.981-0.657,4.053c0.125,1.844,2.344,6.094-0.062,8.75
			s0.094,5.375,0.781,6.031s-1.594,1.812-4.062,0s-7.343-1.683-9-1.656V22.528z"/>
		<path fill="#FFF3D9" d="M16,4V0c-0.311,0-0.617,0.018-0.921,0.044c-0.094,0.008-0.186,0.02-0.279,0.031
			c-0.214,0.025-0.427,0.055-0.637,0.093c-0.099,0.018-0.197,0.035-0.295,0.055c-0.228,0.047-0.453,0.103-0.676,0.166
			C13.129,0.407,13.063,0.421,13,0.44c-0.27,0.081-0.534,0.175-0.794,0.277c-0.103,0.041-0.204,0.086-0.305,0.13
			c-0.161,0.069-0.319,0.141-0.475,0.218c-0.116,0.057-0.231,0.116-0.344,0.177c-0.136,0.074-0.269,0.152-0.402,0.232
			c-0.115,0.069-0.231,0.135-0.342,0.208c-0.18,0.118-0.354,0.244-0.525,0.373c-0.158,0.119-0.31,0.244-0.461,0.372
			c-0.078,0.066-0.156,0.131-0.232,0.2C8.989,2.743,8.862,2.865,8.738,2.99C8.68,3.048,8.623,3.109,8.566,3.169
			c-0.443,0.469-0.84,0.979-1.179,1.525C7.374,4.714,7.36,4.734,7.347,4.755C7.239,4.932,7.138,5.114,7.042,5.298
			c-0.023,0.045-0.046,0.09-0.069,0.135C6.879,5.621,6.788,5.812,6.706,6.006C9.328,4.748,12.53,4,16,4z"/>
		<path fill="#FDEBBB" d="M25.294,6.006c-0.082-0.195-0.172-0.385-0.267-0.574c-0.023-0.045-0.046-0.09-0.069-0.135
			c-0.096-0.184-0.197-0.366-0.305-0.543c-0.013-0.021-0.027-0.041-0.04-0.062c-0.339-0.546-0.736-1.055-1.179-1.525
			c-0.057-0.06-0.113-0.12-0.172-0.179c-0.124-0.125-0.251-0.246-0.382-0.365c-0.076-0.068-0.154-0.134-0.232-0.2
			c-0.15-0.128-0.302-0.253-0.461-0.372c-0.171-0.129-0.345-0.255-0.525-0.373c-0.111-0.073-0.228-0.139-0.342-0.208
			c-0.132-0.079-0.265-0.158-0.402-0.232c-0.113-0.061-0.228-0.12-0.344-0.177C20.419,0.988,20.26,0.916,20.1,0.847
			c-0.102-0.044-0.202-0.09-0.305-0.13C19.534,0.615,19.27,0.521,19,0.44c-0.064-0.019-0.129-0.033-0.194-0.051
			c-0.222-0.062-0.447-0.118-0.676-0.166c-0.097-0.02-0.196-0.037-0.295-0.055C17.626,0.131,17.414,0.1,17.2,0.076
			c-0.093-0.011-0.185-0.023-0.279-0.031C16.617,0.018,16.311,0,16,0v4C19.47,4,22.672,4.748,25.294,6.006z"/>
		<path fill="#FDEBBB" d="M16,4c-3.47,0-6.672,0.748-9.294,2.006c0.082-0.195-0.095,0.188,0,0C6.089,7.234,6,8.027,6,9.471v1.89
			C8.74,9.887,12.214,9,16,9V4z"/>
		<path fill="#FAE09F" d="M16,4v5c3.786,0,7.26,0.887,10,2.361v-1.89c0-1.444-0.089-2.236-0.706-3.464c0.095,0.188-0.082-0.195,0,0
			C22.672,4.748,19.47,4,16,4z"/>
		<g>
			<path fill="#FAE09F" d="M21,22c-1.299,0-2.394-0.83-2.811-1.984c-0.015,0.042-0.035,0.08-0.048,0.122
				C18.058,20.413,18,20.698,18,21c0,1.657,1.343,3,3,3c1.308,0,2.409-0.842,2.819-2.01C23.929,21.679,24,21.349,24,21
				c0-0.353-0.072-0.687-0.184-1.002C23.403,21.161,22.305,22,21,22z"/>
			<path fill="#FDEBBB" d="M11,22c-1.304,0-2.403-0.837-2.816-2C8.072,20.314,8,20.647,8,21c0,1.657,1.343,3,3,3s3-1.343,3-3
				c0-0.353-0.072-0.686-0.184-1C13.403,21.163,12.304,22,11,22z"/>
			<path fill="#FDEBBB" d="M21,22c1.305,0,2.403-0.839,2.816-2.002C23.402,18.837,22.304,18,21,18c-1.309,0-2.402,0.847-2.811,2.016
				C18.606,21.17,19.701,22,21,22z"/>
			<ellipse fill="#FFF3D9" cx="11" cy="20" rx="2.816" ry="2"/>
		</g>
		<path fill="#2B3332" d="M21,23L21,23c-0.552,0-1-0.448-1-1v-2c0-0.552,0.448-1,1-1h0c0.552,0,1,0.448,1,1v2
			C22,22.552,21.552,23,21,23z"/>
		<path fill="#373F3F" d="M11,23L11,23c-0.552,0-1-0.448-1-1v-2c0-0.552,0.448-1,1-1h0c0.552,0,1,0.448,1,1v2
			C12,22.552,11.552,23,11,23z"/>
		<g>
			<path fill="#FDEBBB" d="M11,28c0,2.209,2.239,4,5,4v-8C13.239,24,11,25.791,11,28z"/>
			<path fill="#FAE09F" d="M21,28c0-2.209-2.239-4-5-4v8C18.761,32,21,30.209,21,28z"/>
		</g>
		<g>
			<path fill="none" d="M17,29l0.74,2.737c1.129-0.337,2.052-0.989,2.626-1.825L17,29z"/>
			<path fill="none" d="M11.634,29.912c0.573,0.835,1.495,1.487,2.622,1.824L15,29L11.634,29.912z"/>
			<path fill="none" d="M14.259,24.263c-1.129,0.337-2.052,0.989-2.625,1.824L15,27L14.259,24.263z"/>
			<path fill="none" d="M20.366,26.088c-0.573-0.834-1.493-1.486-2.62-1.823L17,27L20.366,26.088z"/>
		</g>
		<g>
			<path fill="#FFF3D9" d="M14,15c0,1.105,0.895,2,2,2v-4C14.895,13,14,13.895,14,15z"/>
			<path fill="#FFF3D9" d="M14,9c0,1.105,0.895,2,2,2V7C14.895,7,14,7.895,14,9z"/>
			<path fill="#FFF3D9" d="M15,4c0,0.552,0.448,1,1,1V3C15.448,3,15,3.448,15,4z"/>
			<path fill="#FDEBBB" d="M18,15c0-1.105-0.895-2-2-2v4C17.105,17,18,16.105,18,15z"/>
			<path fill="#FDEBBB" d="M18,9c0-1.105-0.895-2-2-2v4C17.105,11,18,10.105,18,9z"/>
			<path fill="#FDEBBB" d="M17,4c0-0.552-0.448-1-1-1v2C16.552,5,17,4.552,17,4z"/>
		</g>
		<g>
			<path fill="#373F3F" d="M14.259,24.263l0.513,1.895c0.101,0.373-0.241,0.714-0.613,0.613l-2.525-0.684
				C11.242,26.658,11,27.303,11,28c0,0.697,0.243,1.342,0.634,1.912l2.524-0.684c0.373-0.101,0.715,0.241,0.613,0.614l-0.515,1.894
				C14.801,31.899,15.384,32,16,32v-8C15.385,24,14.803,24.101,14.259,24.263z"/>
			<path fill="#2B3332" d="M17.841,29.228l2.525,0.684C20.758,29.342,21,28.697,21,28c0-0.697-0.242-1.342-0.634-1.912l-2.523,0.684
				c-0.373,0.101-0.715-0.241-0.613-0.614l0.516-1.893C17.201,24.101,16.617,24,16,24v8c0.615,0,1.196-0.101,1.74-0.263
				l-0.513-1.896C17.127,29.468,17.468,29.127,17.841,29.228z"/>
		</g>
	</g>
</g>
<g id="labels">
</g>
</svg>
