<?xml version="1.0" encoding="utf-8"?>
<!-- Generator: Adobe Illustrator 23.0.6, SVG Export Plug-In . SVG Version: 6.00 Build 0)  -->
<svg version="1.1" xmlns="http://www.w3.org/2000/svg" xmlns:xlink="http://www.w3.org/1999/xlink" x="0px" y="0px" width="32px"
	 height="32px" viewBox="0 0 32 32" enable-background="new 0 0 32 32" xml:space="preserve">
<g id="icons">
	<g>
		<g>
			<polygon fill="#AADB3D" points="21.961,29.312 25.061,29.312 25.044,29.166 21.979,29.166 			"/>
			<path fill="#AADB3D" d="M11.011,13l-4.206,2.524c-0.448,0.269-0.614,0.837-0.38,1.305l1.139,2.277
				C7.811,19.6,8.412,19.8,8.906,19.553L10.011,19l1.005,1.371l-3.171,2.681c-0.097,0.082-0.159,0.197-0.174,0.323l-0.71,5.938h3.1
				l-0.589-4.927c-0.023-0.192,0.067-0.38,0.231-0.483l2.673-1.675l3.232,4.41c0.098,0.134,0.246,0.201,0.395,0.203V13.998
				L11.011,13z"/>
			<path fill="#A2D336" d="M24.178,23.052l-3.171-2.681L22.011,19l1.106,0.553c0.494,0.247,1.095,0.047,1.342-0.447l1.139-2.277
				c0.234-0.467,0.068-1.036-0.38-1.305L21.011,13l-5,1l-0.009-0.002v12.842c0.155,0.003,0.31-0.065,0.412-0.203l3.232-4.41
				l2.673,1.675c0.164,0.103,0.254,0.291,0.231,0.483l-0.571,4.781h3.065l-0.692-5.792C24.337,23.249,24.275,23.133,24.178,23.052z"
				/>
		</g>
		<g>
			<polygon fill="#BEE758" points="9.878,18.874 8.145,17.876 11.014,12.892 13.011,13.431 			"/>
			<path fill="#DADDDC" d="M4.561,17.874c0.21-0.508,0.782-0.762,1.294-0.563l3.822,1.485c0.115,0.045,0.246-0.001,0.307-0.108
				l0.363-0.63l-5.677-4.292c-0.48-0.363-1.17-0.223-1.47,0.299l-0.216,0.375c-0.904,2.323-1.102,4.763-0.85,7.045
				c0.174,1.536,0.52,2.602,1.025,3.738c0.119,0.267,0.518,0.152,0.477-0.138c-0.165-1.168-0.161-2.199,0.002-3.599
				C3.788,20.218,4.098,18.996,4.561,17.874z"/>
			<g>
				<path fill="#DADDDC" d="M16.011,13.01c-0.024,0-0.047-0.003-0.071,0l-2.405,0.343c-0.165,0.023-0.307,0.128-0.38,0.277
					l-1.022,2.116c-0.039,0.08-0.053,0.167-0.047,0.253h3.925V13.01z"/>
				<path fill="#D1D4D4" d="M19.936,16c0.006-0.086-0.009-0.173-0.047-0.253l-1.022-2.116c-0.072-0.15-0.215-0.254-0.38-0.277
					l-2.405-0.343c-0.023-0.003-0.047,0-0.071,0V16H19.936z"/>
				<path fill="#D1D4D4" d="M15.591,21.538c0.099,0.152,0.259,0.229,0.42,0.229V16h-3.925c0.006,0.083,0.031,0.164,0.078,0.236
					L15.591,21.538z"/>
				<path fill="#C8CCCB" d="M16.011,21.767c0.161,0,0.321-0.076,0.42-0.229l3.428-5.302c0.046-0.072,0.072-0.153,0.078-0.236h-3.925
					V21.767z"/>
			</g>
			<polygon fill="#B1E346" points="22.145,18.874 19.011,13.431 21.009,12.892 23.878,17.876 			"/>
			<path fill="#B1E346" d="M14.011,14l-6.894-1.97c-0.067-0.019-0.124-0.066-0.155-0.129L4.038,6.053
				C4.02,6.018,4.011,5.98,4.011,5.941V0.305c0-0.158,0.144-0.276,0.299-0.245L14.011,2V14z"/>
			<path fill="#BEE758" d="M16.011,1l-5.418-0.903c-0.305-0.051-0.582,0.184-0.582,0.493v7.327c0,0.053,0.021,0.104,0.059,0.141
				L14.011,14h2V1z"/>
			<path fill="#AADB3D" d="M18.011,14l6.894-1.97c0.067-0.019,0.124-0.066,0.155-0.129l2.924-5.849
				c0.017-0.035,0.026-0.073,0.026-0.112V0.305c0-0.158-0.144-0.276-0.299-0.245L18.011,2V14z"/>
			<path fill="#B1E346" d="M16.011,1l5.418-0.903c0.305-0.051,0.582,0.184,0.582,0.493v7.327c0,0.053-0.021,0.104-0.059,0.141
				L18.011,14h-2V1z"/>
			<path fill="#C8CCCB" d="M27.439,17.874c-0.21-0.508-0.782-0.762-1.294-0.563l-3.822,1.485c-0.115,0.045-0.246-0.001-0.307-0.108
				l-0.363-0.63l5.677-4.292c0.48-0.363,1.17-0.223,1.47,0.299l0.216,0.375c0.904,2.323,1.102,4.763,0.85,7.045
				c-0.174,1.536-0.52,2.602-1.025,3.738c-0.119,0.267-0.518,0.152-0.477-0.138c0.165-1.168,0.161-2.199-0.002-3.599
				C28.212,20.218,27.902,18.996,27.439,17.874z"/>
			<g>
				<path fill="#FFFFFF" d="M10.596,8.905c-0.011,0.116-0.018,0.235-0.018,0.359c0,0.871,0.279,1.577,0.623,1.577
					c0.167,0,0.317-0.168,0.429-0.437l0.784,1.135l-2.08-0.791c-0.194-0.074-0.322-0.26-0.322-0.467V8.059L10.596,8.905z"/>
				<path fill="#373F3F" d="M11.201,10.841c-0.344,0-0.623-0.706-0.623-1.577c0-0.124,0.007-0.243,0.018-0.359l1.034,1.498
					C11.518,10.673,11.367,10.841,11.201,10.841z"/>
			</g>
			<g>
				<path fill="#F7F7F7" d="M21.427,8.905c0.011,0.116,0.018,0.235,0.018,0.359c0,0.871-0.279,1.577-0.623,1.577
					c-0.167,0-0.317-0.168-0.429-0.437l-0.784,1.135l2.08-0.791c0.194-0.074,0.322-0.26,0.322-0.467V8.059L21.427,8.905z"/>
				<path fill="#2B3332" d="M20.822,10.841c0.344,0,0.623-0.706,0.623-1.577c0-0.124-0.007-0.243-0.018-0.359l-1.034,1.498
					C20.505,10.673,20.655,10.841,20.822,10.841z"/>
			</g>
			<path fill="#DADDDC" d="M6.228,31.343l0.66-2C6.955,29.138,7.147,29,7.363,29h2.288c0.215,0,0.406,0.138,0.474,0.342l0.667,2
				C10.9,31.666,10.659,32,10.318,32H6.703C6.362,32,6.121,31.667,6.228,31.343z"/>
			<path fill="#C8CCCB" d="M25.795,31.343l-0.66-2C25.067,29.138,24.876,29,24.66,29h-2.288c-0.215,0-0.406,0.138-0.474,0.342
				l-0.667,2C21.123,31.666,21.364,32,21.705,32h3.615C25.661,32,25.901,31.667,25.795,31.343z"/>
		</g>
	</g>
</g>
<g id="labels">
</g>
</svg>
