<?xml version="1.0" encoding="utf-8"?>
<!-- Generator: Adobe Illustrator 23.0.6, SVG Export Plug-In . SVG Version: 6.00 Build 0)  -->
<svg version="1.1" xmlns="http://www.w3.org/2000/svg" xmlns:xlink="http://www.w3.org/1999/xlink" x="0px" y="0px" width="32px"
	 height="32px" viewBox="0 0 32 32" enable-background="new 0 0 32 32" xml:space="preserve">
<g id="icons">
	<g>
		<g>
			<path fill="#D285D2" d="M24.186,9.464c-4.22,1.694-5.695,4.485-5.709,4.514c-0.089,0.172-0.264,0.272-0.446,0.272
				c-0.075,0-0.151-0.018-0.223-0.054l-0.435,0.507L19,19c1.404-2.363,4.16-3.702,7.943-3.957c0.275-0.019,0.517-0.145,0.686-0.334
				c-0.805-1.36-2.231-3.778-3.307-5.604L24.186,9.464z"/>
			<path fill="#D799D6" d="M27.878,13.977c-0.354-4.773,2.351-8.776,3.559-10.308c0.31-0.393,0.274-0.958-0.08-1.312l-1.007-1.008
				c-0.055,0.055-0.119,0.102-0.198,0.127c-5.74,1.826-5.658,7.278-5.651,7.509l-0.177,0.119l3.307,5.604
				C27.801,14.515,27.898,14.257,27.878,13.977z"/>
		</g>
		<path fill="#E0ABDF" d="M7.5,8.985c0.006-0.231,0.089-5.683-5.651-7.509c-0.079-0.025-0.146-0.07-0.2-0.125L0.644,2.357
			C0.29,2.711,0.253,3.276,0.563,3.669c1.208,1.532,3.913,5.536,3.559,10.308c-0.022,0.296,0.09,0.566,0.282,0.762l3.231-5.407
			C7.549,9.239,7.497,9.118,7.5,8.985z"/>
		<path fill="#D799D6" d="M14.192,14.196c-0.072,0.036-0.147,0.054-0.223,0.054c-0.182,0-0.357-0.1-0.446-0.272
			c-0.006-0.013-0.33-0.685-1.071-1.574c0.002,0.055,0.003,0.111,0.005,0.166c-0.879-0.948-2.355-2.187-4.643-3.106l0,0
			C7.742,9.435,7.684,9.387,7.635,9.333l-3.231,5.407c0.167,0.171,0.394,0.286,0.653,0.303C8.84,15.297,11.596,16.637,13,19
			l1.627-4.298L14.192,14.196z"/>
		<path fill="#B8A5E4" d="M26.112,18.134l-2.992,1.747c-0.321,0.188-0.332,0.648-0.02,0.851l1.039,0.675
			c-0.088,0.101-0.185,0.211-0.293,0.334c-0.253,0.24-0.567,0.495-0.938,0.729c-0.383,0.223-0.805,0.438-1.257,0.606
			c-0.899,0.343-1.861,0.551-2.584,0.653c-0.362,0.05-0.663,0.083-0.868,0.096c-0.198,0.011-0.311,0.017-0.311,0.017l0.393,2.671
			c0,0,0.146-0.039,0.402-0.106c0.248-0.069,0.588-0.178,0.992-0.321c0.804-0.288,1.852-0.746,2.825-1.367
			c0.488-0.306,0.948-0.67,1.355-1.038c0.4-0.384,0.73-0.787,0.983-1.154c0.111-0.195,0.213-0.374,0.303-0.532
			c0.009-0.014,0.012-0.028,0.02-0.043l1.065,0.606c0.339,0.193,0.759-0.06,0.747-0.45l-0.109-3.559
			C26.853,18.171,26.44,17.942,26.112,18.134z"/>
		<path fill="#D4C9EF" d="M13.601,21.562c0,0-3.79,2.044-3.594,3.773c0.07,1.506-0.309,3.336-0.464,3.708
			c-0.021,0.05-0.051,0.086-0.094,0.12l-2.297,1.379c-0.2,0.12-0.204,0.408-0.008,0.534l1.358,0.873
			c0.131,0.084,0.304,0.064,0.411-0.049l1.293-1.356c0.073-0.076,0.104-0.179,0.079-0.281c-0.08-0.319-0.149-1.142,0.757-2.29
			c0.502-0.636,0.718-1.128,0.81-1.493c0.896-0.062,1.828-0.534,2.064-1.302C14.387,23.645,13.601,21.562,13.601,21.562z"/>
		<path fill="#C6B7E9" d="M24.847,30.542l-2.297-1.379c-0.043-0.034-0.073-0.07-0.094-0.12c-0.155-0.371-0.534-2.202-0.464-3.708
			c0.196-1.729-3.594-3.773-3.594-3.773s-0.786,2.083-0.314,3.615c0.236,0.768,1.168,1.24,2.064,1.302
			c0.092,0.365,0.308,0.857,0.81,1.493c0.906,1.148,0.837,1.971,0.757,2.29c-0.026,0.102,0.006,0.205,0.079,0.281l1.293,1.356
			c0.107,0.113,0.28,0.133,0.411,0.049l1.358-0.873C25.052,30.95,25.047,30.662,24.847,30.542z"/>
		<path fill="#E3DBF4" d="M16,15v13c0,0-5,0.109-5-4.54S12.5,15,12.5,15H16z"/>
		<path fill="#D4C9EF" d="M16,15v13c0,0,5,0.109,5-4.54S19.5,15,19.5,15H16z"/>
		<path fill="#B38658" d="M16,17.281V8.969c0,0-4.119-1.125-4.119-0.812s0,2.687,0,2.687l1.562,6.437H16z"/>
		<path fill="#F8A1C4" d="M16,15.469v-7h-2.112C13.888,8.468,12.365,15.469,16,15.469z"/>
		<path fill="#A7794C" d="M16,17.281V8.969c0,0,4.119-1.125,4.119-0.812s0,2.687,0,2.687l-1.562,6.437H16z"/>
		<path fill="#F297BE" d="M16,15.469v-7h2.112C18.112,8.468,19.635,15.469,16,15.469z"/>
		<path fill="#F1EDFA" d="M13.042,10.479l1.289,0.461c0.109,0.039,0.201,0.114,0.26,0.214l0.979,1.632
			c0.097,0.162,0.263,0.243,0.429,0.243V1.749c-0.005,0-0.009,0-0.015,0c-0.1-0.004-0.693-0.026-1.418,0.027
			c-0.137,0.01-0.275-0.034-0.377-0.126l-1.697-1.521c-0.344-0.308-0.886-0.025-0.83,0.433l0.21,1.705
			c0.019,0.151-0.036,0.299-0.14,0.41c-0.066,0.071-0.122,0.146-0.167,0.228c-0.634,1.153-1.268,3.917-1.436,4.678
			C10.1,7.718,10.099,7.845,10.126,7.98c0.064,0.323,0.201,0.988,0.354,1.607c-0.451-0.239-0.986-0.479-1.707-0.801
			C8.607,8.711,8.485,8.554,8.468,8.372c-0.157-1.68-1.071-6.18-6.317-7.849C1.889,0.438,1.608,0.585,1.523,0.849
			C1.44,1.111,1.585,1.393,1.849,1.477C7.589,3.303,7.506,8.754,7.5,8.985c-0.006,0.209,0.12,0.4,0.314,0.478l0,0
			c1.762,0.707,3.041,1.604,3.938,2.412l0.566,5.35c0.016,0.153,0.102,0.291,0.233,0.372l1.668,1.037
			c0.056,0.035,0.118,0.058,0.182,0.069l1.585,0.263c0.006-0.005,0.008-0.007,0.013-0.011V17h-1.279
			c-0.09,0-0.179-0.025-0.257-0.071l-0.939-0.563c-0.124-0.074-0.209-0.198-0.235-0.339l-0.908-4.988
			C12.313,10.661,12.68,10.349,13.042,10.479z"/>
		<path fill="#E3DBF4" d="M30.477,0.849c-0.084-0.264-0.365-0.41-0.628-0.325c-5.252,1.671-6.162,6.179-6.317,7.854
			c-0.017,0.179-0.137,0.333-0.302,0.406c-0.726,0.325-1.273,0.615-1.736,0.908c0.164-0.648,0.313-1.371,0.381-1.712
			c0.027-0.135,0.026-0.261-0.004-0.395c-0.167-0.761-0.801-3.525-1.436-4.678c-0.045-0.082-0.101-0.158-0.167-0.228
			c-0.104-0.111-0.159-0.259-0.14-0.41l0.21-1.705c0.056-0.459-0.486-0.742-0.83-0.433L17.81,1.65
			c-0.102,0.092-0.24,0.136-0.377,0.126c-0.726-0.053-1.318-0.031-1.418-0.027c-0.006,0-0.01,0-0.015,0v11.279
			c0.166,0,0.332-0.081,0.429-0.243l0.979-1.632c0.06-0.099,0.152-0.175,0.26-0.214l1.289-0.461c0.362-0.13,0.729,0.182,0.66,0.56
			l-0.908,4.988c-0.026,0.142-0.111,0.265-0.235,0.339l-0.94,0.563C17.458,16.975,17.369,17,17.279,17H16v1.886
			c0.035,0.029,0.047,0.04,0.082,0.069l1.549-0.257c0.043-0.007,0.086-0.02,0.126-0.038l1.729-0.789
			c0.163-0.075,0.274-0.231,0.29-0.41l0.511-5.619c0.895-0.799,2.162-1.681,3.899-2.378l0,0c0.194-0.078,0.319-0.269,0.314-0.478
			c-0.006-0.231-0.089-5.683,5.651-7.509C30.415,1.393,30.56,1.111,30.477,0.849z"/>
		<g>
			<path fill="#F7F7F7" d="M18.766,4.233l0.206-0.307c0.118-0.176,0.387-0.136,0.447,0.067c0.17,0.571,0.403,1.523,0.31,2.232
				c-0.019,0.145-0.167,0.239-0.308,0.201c-0.152-0.041-0.303-0.075-0.451-0.107c0.121-0.256,0.208-0.542,0.208-0.867
				C19.179,4.965,19.016,4.536,18.766,4.233z"/>
			<path fill="#2B3332" d="M18.766,4.233l-0.514,0.766l-0.515,0.768c-0.105,0.156-0.008,0.368,0.179,0.388
				c0.136,0.015,0.3,0.035,0.48,0.062c0.178,0.027,0.372,0.061,0.574,0.104c0.121-0.256,0.208-0.542,0.208-0.867
				C19.179,4.965,19.016,4.536,18.766,4.233z"/>
		</g>
		<g>
			<path fill="#2B3332" d="M17.293,9.244c-0.112,0-0.211-0.072-0.239-0.185c-0.017-0.066-0.131-0.666,0.811-1.27
				c0.114-0.076,0.27-0.042,0.345,0.076c0.075,0.116,0.041,0.271-0.076,0.345c-0.632,0.406-0.593,0.738-0.592,0.741
				c0.019,0.132-0.068,0.262-0.199,0.287C17.327,9.242,17.31,9.244,17.293,9.244z"/>
			<path fill="#373F3F" d="M14.703,9.25c-0.02,0-0.039-0.002-0.059-0.007c-0.131-0.032-0.212-0.161-0.186-0.292
				c0.002-0.022,0.021-0.347-0.592-0.74c-0.116-0.075-0.15-0.229-0.076-0.345c0.075-0.117,0.229-0.15,0.345-0.076
				c0.941,0.604,0.827,1.203,0.811,1.27C14.917,9.173,14.815,9.25,14.703,9.25z"/>
		</g>
		<g>
			<path fill="#FFFFFF" d="M13.234,4.233l-0.206-0.307c-0.118-0.176-0.387-0.136-0.447,0.067c-0.17,0.571-0.403,1.523-0.31,2.232
				c0.019,0.145,0.167,0.239,0.308,0.201c0.152-0.041,0.303-0.075,0.451-0.107c-0.121-0.256-0.208-0.542-0.208-0.867
				C12.821,4.965,12.984,4.536,13.234,4.233z"/>
			<path fill="#373F3F" d="M13.749,4.999l-0.514-0.766c-0.25,0.304-0.413,0.732-0.413,1.22c0,0.325,0.088,0.611,0.208,0.867
				c0.203-0.043,0.396-0.077,0.574-0.104c0.18-0.027,0.344-0.047,0.48-0.062c0.187-0.02,0.284-0.231,0.179-0.388L13.749,4.999z"/>
		</g>
	</g>
</g>
<g id="labels">
</g>
</svg>
