<?xml version="1.0" encoding="utf-8"?>
<!-- Generator: Adobe Illustrator 23.0.6, SVG Export Plug-In . SVG Version: 6.00 Build 0)  -->
<svg version="1.1" xmlns="http://www.w3.org/2000/svg" xmlns:xlink="http://www.w3.org/1999/xlink" x="0px" y="0px" width="32px"
	 height="32px" viewBox="0 0 32 32" enable-background="new 0 0 32 32" xml:space="preserve">
<g id="icons">
	<g>
		<g>
			<path fill="#FFD400" d="M13.587,23.53c-1.262,1.022-2.451,5.408-0.72,7.154c0.168,0.169,0.462,0.026,0.425-0.21
				c-0.056-0.362-0.007-0.794,0.409-1.083c0,0-0.18,1.708,2.209,2.593C15.939,31.995,15.969,32,16,32v-9.983
				C16,22.017,15.072,22.327,13.587,23.53z"/>
			<path fill="#F9C900" d="M18.298,29.392c0.416,0.289,0.465,0.72,0.409,1.083c-0.036,0.235,0.258,0.379,0.425,0.21
				c1.731-1.746,0.542-6.132-0.72-7.154C16.928,22.327,16,22.017,16,22.017V32c0.031,0,0.061-0.005,0.09-0.016
				C18.479,31.099,18.298,29.392,18.298,29.392z"/>
		</g>
		<path fill="#FF5F27" d="M6.028,5.017l7,10h3v9.236L7.243,20.36c-1.262-0.631-2.144-1.786-2.419-3.167l-0.442-2.21
			c-0.041-0.202-0.196-0.365-0.396-0.416l-0.521-0.13c-2.022-0.506-3.436-2.315-3.436-4.4c0-0.139,0-2.948,0-4.124V1.017L2.35,2.564
			L6.028,5.017z"/>
		<path fill="#FFDA40" d="M0.613,1.434C1.917,2.23,6.028,5.017,6.028,5.017l7,10v6l-4.891-2.445c-0.7-0.35-1.199-1.003-1.352-1.771
			l-0.442-2.21c-0.192-0.961-0.921-1.725-1.871-1.963l-0.523-0.131c-1.129-0.282-1.921-1.296-1.921-2.46
			c0-0.655-0.253-1.284-0.706-1.756L0.734,7.669C0.281,7.197,0.028,6.568,0.028,5.913L0.05,0.924
			C0.12,1.087,0.283,1.266,0.613,1.434z"/>
		<path fill="#FFB49F" d="M0.613,0.434c1.104,0.566,4.719,2.617,5.978,3.334c0.292,0.166,0.549,0.377,0.77,0.63l6.383,7.295
			c0.355-1.026,0.599-1.676,0.599-1.676l1.684,0.796v14.156c0,0-2.704,2.359-4.567,0c-1.112-1.409,0.132-6.465,1.315-10.312
			l-6.43-9.186C6.135,5.17,5.873,4.911,5.569,4.706c-1.109-0.749-3.919-2.64-4.956-3.272C-0.45,0.891,0.084,0.218,0.613,0.434z"/>
		<path fill="#FF4A00" d="M25.972,5.017l-7,10h-3v9.236l8.785-3.892c1.262-0.631,2.144-1.786,2.419-3.167l0.442-2.21
			c0.041-0.202,0.196-0.365,0.396-0.416l0.521-0.13c2.022-0.506,3.436-2.315,3.436-4.4c0-0.139,0-2.948,0-4.124V1.017L29.65,2.564
			L25.972,5.017z"/>
		<path fill="#FFD400" d="M31.387,1.434c-1.305,0.796-5.415,3.583-5.415,3.583l-7,10v6l4.891-2.445
			c0.7-0.35,1.199-1.003,1.352-1.771l0.442-2.21c0.192-0.961,0.921-1.725,1.871-1.963l0.523-0.131
			c1.129-0.282,1.921-1.296,1.921-2.46c0-0.655,0.253-1.284,0.706-1.756l0.587-0.611c0.453-0.472,0.706-1.102,0.706-1.756
			L31.95,0.924C31.88,1.087,31.717,1.266,31.387,1.434z"/>
		<path fill="#FFB49F" d="M16,10.812v14.156c0,0-2.704,2.359-4.567,0s2.883-14.951,2.883-14.951L16,10.812z"/>
		<path fill="#FFA68E" d="M31.387,0.434c-1.104,0.566-4.719,2.617-5.978,3.334c-0.292,0.166-0.549,0.377-0.77,0.63l-6.383,7.295
			c-0.355-1.026-0.599-1.676-0.599-1.676l-1.684,0.796v14.156c0,0,2.704,2.359,4.567,0c1.112-1.409-0.132-6.465-1.315-10.312
			l6.43-9.186c0.211-0.301,0.473-0.559,0.778-0.765c1.109-0.749,3.919-2.64,4.956-3.272C32.45,0.891,31.916,0.218,31.387,0.434z"/>
		<path fill="#E56142" d="M21.5,25.017H20v-1h-1v3.5c0,0.276,0.224,0.5,0.5,0.5l0,0c0.276,0,0.5-0.224,0.5-0.5v-0.793l0.543,0.543
			c0.195,0.195,0.512,0.195,0.707,0l0,0c0.195-0.195,0.195-0.512,0-0.707l-0.543-0.543H21.5c0.276,0,0.5-0.224,0.5-0.5l0,0
			C22,25.241,21.776,25.017,21.5,25.017z"/>
		<path fill="#EB6B48" d="M12,24.017v1h-1.5c-0.276,0-0.5,0.224-0.5,0.5v0c0,0.276,0.224,0.5,0.5,0.5h0.793L10.75,26.56
			c-0.195,0.195-0.195,0.512,0,0.707l0,0c0.195,0.195,0.512,0.195,0.707,0L12,26.724v0.793c0,0.276,0.224,0.5,0.5,0.5h0
			c0.276,0,0.5-0.224,0.5-0.5v-3.5H12z"/>
		<g>
			<path fill="#FFC2B1" d="M13,10.017c0,2.209,1.343,4,3,4v-8C14.343,6.017,13,7.808,13,10.017z"/>
			<path fill="#FFB49F" d="M19,10.017c0-2.209-1.343-4-3-4v8C17.657,14.017,19,12.226,19,10.017z"/>
		</g>
		<g>
			<path fill="#F9C900" d="M18.965,5.699C18.216,6.818,17.166,7.517,16,7.517v0.001v1.5c1.519,0,2.761-1.019,2.959-2.337
				c0.01-0.055,0.024-0.156,0.033-0.294C18.993,6.363,19,6.341,19,6.318c0-0.01-0.003-0.019-0.003-0.028
				C19.003,6.128,18.993,5.924,18.965,5.699z"/>
			<path fill="#FFD400" d="M16,7.517c-1.142,0-2.174-0.668-2.92-1.746C13.036,5.948,13,6.128,13,6.318c0,1.491,1.343,2.7,3,2.7v-1.5
				V7.517z"/>
			<path fill="#FFD400" d="M16.96,2.746c-0.411-0.261-0.72-0.5-0.96-0.721v5.491c1.166,0,2.216-0.699,2.965-1.817
				c-0.003-0.028-0.004-0.052-0.008-0.08C18.835,4.79,18.385,3.65,16.96,2.746z"/>
			<path fill="#FFDA40" d="M16,7.517V2.026c-0.712-0.656-0.752-1.141-0.597-1.47c0.092-0.195-0.083-0.408-0.29-0.35
				c-0.241,0.067-0.487,0.15-0.673,0.243c-0.446,0.253-0.833,0.607-1.138,1.039C13.117,1.819,13,2.221,13,2.717
				c0,0.979,0.34,1.562,0.684,1.904c-0.294,0.325-0.502,0.712-0.606,1.135c0.001,0.005,0.002,0.01,0.003,0.015
				C13.826,6.848,14.858,7.517,16,7.517z"/>
		</g>
		<g>
			<path fill="#F7F7F7" d="M18.179,9.371c-0.141,0.094-0.27,0.235-0.392,0.391c0.157,0.304,0.254,0.718,0.254,1.177
				c0,0.106-0.007,0.208-0.016,0.308c0.286-0.15,0.429-0.381,0.429-0.381S18.668,9.805,18.179,9.371z"/>
			<path fill="#4390BF" d="M17.786,9.761c-0.055,0.07-0.107,0.144-0.157,0.22c0.014,0.1,0.023,0.209,0.023,0.327
				c0,0.426-0.1,0.772-0.223,0.772c-0.082,0-0.151-0.161-0.19-0.39C17.089,11.014,17,11.266,17,11.266
				c0.45,0.175,0.786,0.105,1.024-0.019c0.01-0.1,0.016-0.203,0.016-0.308C18.04,10.48,17.943,10.065,17.786,9.761z"/>
			<path fill="#2B3332" d="M17.429,11.08c0.123,0,0.223-0.345,0.223-0.772c0-0.118-0.009-0.227-0.023-0.327
				c-0.155,0.235-0.287,0.488-0.39,0.709C17.279,10.919,17.347,11.08,17.429,11.08z"/>
		</g>
		<g>
			<path fill="#FFFFFF" d="M13.821,9.371c0.141,0.094,0.27,0.235,0.392,0.391c-0.157,0.304-0.254,0.718-0.254,1.177
				c0,0.106,0.007,0.208,0.016,0.308c-0.286-0.15-0.429-0.381-0.429-0.381S13.332,9.805,13.821,9.371z"/>
			<path fill="#4896C8" d="M14.214,9.761c0.055,0.07,0.107,0.144,0.157,0.22c-0.014,0.1-0.023,0.209-0.023,0.327
				c0,0.426,0.1,0.772,0.223,0.772c0.082,0,0.151-0.161,0.19-0.39c0.151,0.324,0.24,0.575,0.24,0.575
				c-0.45,0.175-0.786,0.105-1.024-0.019c-0.01-0.1-0.016-0.203-0.016-0.308C13.96,10.48,14.057,10.065,14.214,9.761z"/>
			<path fill="#373F3F" d="M14.571,11.08c-0.123,0-0.223-0.345-0.223-0.772c0-0.118,0.009-0.227,0.023-0.327
				c0.155,0.235,0.287,0.488,0.39,0.709C14.721,10.919,14.653,11.08,14.571,11.08z"/>
		</g>
		<g>
			<path fill="#F57552" d="M16,11.119c-0.064,0-0.128,0.024-0.177,0.073l-0.729,0.729c-0.027,0.027-0.046,0.06-0.058,0.095H16
				V11.119z"/>
			<path fill="#EB6B48" d="M16.964,12.015c-0.012-0.035-0.031-0.068-0.058-0.095l-0.729-0.729c-0.049-0.049-0.113-0.073-0.177-0.073
				v0.896H16.964z"/>
			<path fill="#EB6B48" d="M15.026,12.146l0.729,3.643c0.027,0.134,0.136,0.201,0.245,0.201v-3.975h-0.964
				C15.022,12.057,15.017,12.102,15.026,12.146z"/>
			<path fill="#E56142" d="M16,15.99c0.109,0,0.218-0.067,0.245-0.201l0.729-3.643c0.009-0.045,0.004-0.09-0.01-0.131H16V15.99z"/>
		</g>
	</g>
</g>
<g id="labels">
</g>
</svg>
