<?xml version="1.0" encoding="utf-8"?>
<!-- Generator: Adobe Illustrator 23.0.6, SVG Export Plug-In . SVG Version: 6.00 Build 0)  -->
<svg version="1.1" xmlns="http://www.w3.org/2000/svg" xmlns:xlink="http://www.w3.org/1999/xlink" x="0px" y="0px" width="32px"
	 height="32px" viewBox="0 0 32 32" enable-background="new 0 0 32 32" xml:space="preserve">
<g id="labels">
	<g>
	</g>
</g>
<g id="icons">
	<g>
		<path fill="#DD7731" d="M30.183,0.724c-0.073-0.335-0.464-0.477-0.756-0.298C28.573,0.95,26.764,1.691,24,1c-4-1-9,1-9,7v1h2V8
			c0,0,0-1,1-1s2,2,5,2C25.894,9,31.58,7.139,30.183,0.724z"/>
		<path fill="#E8803A" d="M19,5c3.91,0,8.767,0.937,10.852-4.623c-0.136-0.042-0.29-0.034-0.425,0.048
			C28.573,0.95,26.764,1.691,24,1c-4-1-9,1-9,7v1h1V8C16,8,16,5,19,5z"/>
		<path fill="#FFE28A" d="M16,16C6,16,4,27,9,31h2c0,0,0.907-0.927,0.985-2.76C13.215,28.726,14.571,29,16,29V16z"/>
		<path fill="#FFD96C" d="M20.015,28.24C20.093,30.073,21,31,21,31h2c5-4,3-15-7-15v13C17.429,29,18.785,28.726,20.015,28.24z"/>
		<path fill="#FFEAA7" d="M16,8.013C11.583,8.014,8,11.583,8,16c0,0.005,0,0.011,0,0.016c0.002,1.008-0.065,2.011-0.255,3.001
			C7.122,22.266,6.881,27.705,11,31h2c0,0,0.744-0.75,0.947-2.244C14.608,28.91,15.293,29,16,29V8.013z"/>
		<path fill="#FFE28A" d="M23.995,16.288c0.028-0.775-0.056-1.579-0.273-2.397c-0.781-2.95-3.275-5.24-6.281-5.765
			C16.953,8.041,16.473,8.013,16,8.013V29c0.707,0,1.392-0.09,2.053-0.244C18.256,30.25,19,31,19,31h2
			c4.123-3.298,3.878-8.748,3.253-11.991C24.08,18.11,23.962,17.202,23.995,16.288z"/>
		<path fill="#EDEEEE" d="M9,31c0,0,0.558,1,1,1s1-1,1-1H9z"/>
		<path fill="#E3E5E5" d="M23,31c0,0-0.558,1-1,1s-1-1-1-1H23z"/>
		<path fill="#F7F7F7" d="M11,31c0,0,0.558,1,1,1s1-1,1-1H11z"/>
		<path fill="#EDEEEE" d="M21,31c0,0-0.558,1-1,1s-1-1-1-1H21z"/>
		<circle fill="#EF8C48" cx="11" cy="23" r="1"/>
		<circle fill="#E8803A" cx="21" cy="23" r="1"/>
		<path fill="#EF8C48" d="M9,21c0,0.552-0.448,1-1,1c-0.323,0-0.78-0.341-1.105-0.625c-0.227-0.198-0.227-0.552,0-0.75
			C7.22,20.341,7.677,20,8,20C8.552,20,9,20.448,9,21z"/>
		<path fill="#E8803A" d="M23,21c0,0.552,0.448,1,1,1c0.323,0,0.78-0.341,1.105-0.625c0.227-0.198,0.227-0.552,0-0.75
			C24.78,20.341,24.323,20,24,20C23.448,20,23,20.448,23,21z"/>
		<path fill="#F7F7F7" d="M21.076,18h-2.151c-0.248,0-0.459-0.176-0.494-0.422C18.254,16.373,17.947,13,20,13
			s1.746,3.373,1.57,4.578C21.534,17.824,21.324,18,21.076,18z"/>
		<path fill="#8A323F" d="M20,13c-1.605,0-1.766,2.058-1.677,3.533C18.598,17.118,19.02,17.5,19.5,17.5c0.828,0,1.5-1.119,1.5-2.5
			c0-0.783-0.221-1.474-0.559-1.932C20.307,13.028,20.163,13,20,13z"/>
		<ellipse fill="#F7F7F7" cx="19.5" cy="14.5" rx="0.5" ry="1"/>
		<path fill="#FFFFFF" d="M10.924,18h2.151c0.248,0,0.459-0.176,0.494-0.422C13.746,16.373,14.053,13,12,13s-1.746,3.373-1.57,4.578
			C10.466,17.824,10.676,18,10.924,18z"/>
		<path fill="#9A3644" d="M12,13c1.605,0,1.766,2.058,1.677,3.533C13.402,17.118,12.98,17.5,12.5,17.5c-0.828,0-1.5-1.119-1.5-2.5
			c0-0.783,0.221-1.474,0.559-1.932C11.693,13.028,11.837,13,12,13z"/>
		<ellipse fill="#FFFFFF" cx="12.5" cy="14.5" rx="0.5" ry="1"/>
		<path fill="#EF8C48" d="M16,23c-0.552,0-1,0.448-1,1c0,0.552,0.448,1,1,1V23z"/>
		<path fill="#E8803A" d="M17,24c0-0.552-0.448-1-1-1v2C16.552,25,17,24.552,17,24z"/>
		<path fill="#C84054" d="M16,18.5c-0.171,0-0.343,0.034-0.5,0.103c-0.315,0.137-0.685,0.137-1,0l-0.111-0.048
			c-0.176-0.077-0.382,0.045-0.361,0.215C14.117,19.497,14.484,21,16,21V18.5z"/>
		<path fill="#B93D4F" d="M17.972,18.77c0.021-0.171-0.185-0.292-0.361-0.215L17.5,18.603c-0.315,0.137-0.685,0.137-1,0
			C16.343,18.534,16.171,18.5,16,18.5V21C17.516,21,17.883,19.497,17.972,18.77z"/>
	</g>
</g>
</svg>
