<?xml version="1.0" encoding="utf-8"?>
<!-- Generator: Adobe Illustrator 23.0.6, SVG Export Plug-In . SVG Version: 6.00 Build 0)  -->
<svg version="1.1" xmlns="http://www.w3.org/2000/svg" xmlns:xlink="http://www.w3.org/1999/xlink" x="0px" y="0px" width="32px"
	 height="32px" viewBox="0 0 32 32" enable-background="new 0 0 32 32" xml:space="preserve">
<g id="labels">
	<g>
	</g>
</g>
<g id="icons">
	<g>
		<path fill="#9ACC2E" d="M21.212,17.122c1.028-0.275,2.488-0.027,3.403,0.187c0.387,0.09,0.517,0.576,0.227,0.848
			c-0.685,0.642-1.826,1.588-2.853,1.863c-1.028,0.275-2.488,0.027-3.403-0.187c-0.387-0.09-0.517-0.576-0.227-0.848
			C19.044,18.343,20.185,17.397,21.212,17.122z"/>
		<path fill="#A2D336" d="M10.788,17.122c-1.028-0.275-2.488-0.027-3.403,0.187c-0.387,0.09-0.517,0.576-0.227,0.848
			c0.685,0.642,1.826,1.588,2.853,1.863c1.028,0.275,2.488,0.027,3.403-0.187c0.387-0.09,0.517-0.576,0.227-0.848
			C12.956,18.343,11.815,17.397,10.788,17.122z"/>
		<path fill="#FFE28A" d="M16,19c-3.866,0-7,2.134-7,6c0,4.976,1.376,5.889,1.845,6.738C10.934,31.899,11.101,32,11.285,32H13.5
			c0.276,0,0.5-0.224,0.5-0.5v-1.707C14.634,29.928,15.305,30,16,30V19z"/>
		<path fill="#FFD96C" d="M18,29.793V31.5c0,0.276,0.224,0.5,0.5,0.5h2.215c0.184,0,0.351-0.101,0.44-0.262
			C21.624,30.889,23,29.976,23,25c0-3.866-3.134-6-7-6v11C16.695,30,17.366,29.928,18,29.793z"/>
		<path fill="#FFEAA7" d="M16,12h-2l-0.205,2.459c-0.17,2.038-0.901,4.025-2.266,5.547c-0.95,1.059-1.522,2.459-1.522,3.994H10
			c0,4.976,1.376,6.889,1.845,7.738C11.934,31.899,12.101,32,12.285,32H14.5c0.276,0,0.5-0.224,0.5-0.5v-1.591
			c0.338,0.053,0.672,0.085,1,0.085V12z"/>
		<path fill="#FFE28A" d="M20.622,20.181c-1.356-1.634-2.241-3.606-2.418-5.722L18,12h-2v17.994c0.341,0,0.674-0.035,1-0.09V31.5
			c0,0.276,0.224,0.5,0.5,0.5h2.215c0.184,0,0.351-0.101,0.44-0.262C20.624,30.889,22,28.976,22,24
			C22,22.547,21.482,21.217,20.622,20.181z"/>
		<path fill="#A2D336" d="M19.437,24.612c0.275,1.028,0.027,2.488-0.187,3.403c-0.09,0.387-0.576,0.517-0.848,0.227
			c-0.642-0.685-1.588-1.826-1.863-2.853c-0.275-1.028-0.027-2.488,0.187-3.403c0.09-0.387,0.576-0.517,0.848-0.227
			C18.216,22.443,19.162,23.584,19.437,24.612z"/>
		<path fill="#A2D336" d="M22.051,21.201c0.921,0.532,1.778,1.741,2.274,2.538c0.21,0.338-0.041,0.773-0.439,0.76
			c-0.938-0.031-2.414-0.168-3.335-0.7s-1.778-1.741-2.274-2.538c-0.21-0.338,0.041-0.773,0.439-0.76
			C19.654,20.531,21.13,20.669,22.051,21.201z"/>
		<path fill="#AADB3D" d="M12.563,24.612c-0.275,1.028-0.027,2.488,0.187,3.403c0.09,0.387,0.576,0.517,0.848,0.227
			c0.642-0.685,1.588-1.826,1.863-2.853c0.275-1.028,0.027-2.488-0.187-3.403c-0.09-0.387-0.576-0.517-0.848-0.227
			C13.784,22.443,12.838,23.584,12.563,24.612z"/>
		<path fill="#AADB3D" d="M9.949,21.201c-0.921,0.532-1.778,1.741-2.274,2.538c-0.21,0.338,0.041,0.773,0.439,0.76
			c0.938-0.031,2.414-0.168,3.335-0.7c0.921-0.532,1.778-1.741,2.274-2.538c0.21-0.338-0.041-0.773-0.439-0.76
			C12.346,20.531,10.87,20.669,9.949,21.201z"/>
		<path fill="#FEF1C6" d="M16,8c-2.209,0-4,2.291-4,4.5c0,2.209,1.791,3.5,4,3.5V8z"/>
		<path fill="#FFEAA7" d="M20,12.5c0-2.209-1.791-4.5-4-4.5v8C18.209,16,20,14.709,20,12.5z"/>
		<path fill="#FFFFFF" d="M13.52,13.5h0.96c0.25,0,0.463-0.18,0.496-0.427C15.07,12.359,15.106,11,14,11s-1.07,1.359-0.975,2.073
			C13.058,13.32,13.271,13.5,13.52,13.5z"/>
		<path fill="#9A3644" d="M14.991,12.057c-0.066-0.505-0.289-0.954-0.836-1.031C13.788,11.09,13.5,11.493,13.5,12
			c0,0.552,0.336,1,0.75,1C14.649,13,14.968,12.581,14.991,12.057z"/>
		<circle fill="#FFFFFF" cx="14.3" cy="11.55" r="0.25"/>
		<path fill="#F7F7F7" d="M18.48,13.5h-0.96c-0.25,0-0.463-0.18-0.496-0.427C16.93,12.359,16.894,11,18,11s1.07,1.359,0.975,2.073
			C18.942,13.32,18.729,13.5,18.48,13.5z"/>
		<path fill="#8A323F" d="M17.009,12.057c0.066-0.505,0.289-0.954,0.836-1.031C18.212,11.09,18.5,11.493,18.5,12
			c0,0.552-0.336,1-0.75,1C17.351,13,17.032,12.581,17.009,12.057z"/>
		<circle fill="#F7F7F7" cx="17.7" cy="11.55" r="0.25"/>
		<path fill="#B1E346" d="M15.695,0.107C14.931,0.711,13,2.474,13,4.881c0,2.211,1.356,3.333,2.07,3.772C15.029,8.762,15,8.877,15,9
			c0,0.552,0.448,1,1,1V0C15.893,0,15.785,0.036,15.695,0.107z"/>
		<path fill="#AADB3D" d="M18.25,3.5c0.042,0,0.083,0.004,0.123,0.012c0.197,0.038,0.361-0.147,0.29-0.334
			c-0.582-1.524-1.789-2.621-2.358-3.07C16.215,0.036,16.107,0,16,0v10c0.552,0,1-0.448,1-1c0-0.124-0.029-0.24-0.07-0.349
			c0.458-0.282,1.177-0.844,1.637-1.799c0.083-0.172-0.055-0.376-0.246-0.355C18.297,6.499,18.274,6.5,18.25,6.5
			c-0.552,0-1-0.672-1-1.5S17.698,3.5,18.25,3.5z"/>
	</g>
</g>
</svg>
