<?xml version="1.0" encoding="utf-8"?>
<!-- Generator: Adobe Illustrator 23.0.6, SVG Export Plug-In . SVG Version: 6.00 Build 0)  -->
<svg version="1.1" xmlns="http://www.w3.org/2000/svg" xmlns:xlink="http://www.w3.org/1999/xlink" x="0px" y="0px" width="32px"
	 height="32px" viewBox="0 0 32 32" enable-background="new 0 0 32 32" xml:space="preserve">
<g id="labels">
	<g>
	</g>
</g>
<g id="icons">
	<g>
		<g>
			<path fill="#F74000" d="M28.017,21.125l2.514-5.185c0.103-0.213-0.121-0.437-0.334-0.334l-5.185,2.514l-0.376-3.757
				c-0.023-0.23-0.318-0.308-0.452-0.12L18.869,21.7l5.568,5.568l7.457-5.315c0.188-0.134,0.109-0.429-0.12-0.452L28.017,21.125z"/>
			<path fill="#F9C900" d="M26.603,21.832l2.56-4.517c0.125-0.221-0.12-0.466-0.341-0.341l-4.517,2.56l-0.215-3.151
				c-0.016-0.239-0.326-0.32-0.458-0.121l-4.056,6.144l4.154,4.154l6.144-4.056c0.2-0.132,0.118-0.442-0.121-0.458L26.603,21.832z"
				/>
		</g>
		<path fill="#E5C79A" d="M13,29v2.295C13,31.684,12.684,32,12.295,32h-2.59C9.316,32,9,31.684,9,31.295v-0.003
			c0-0.187,0.074-0.366,0.206-0.499L11,29H13z"/>
		<path fill="#EACEA1" d="M9.054,20.234c0-4.068,2.841-8.234,2.841-11.055c0-2.494,3.23-3.425,4.105-3.425V29
			c-2,0-3.569,0.898-5.118,0.846C8,29.75,7.125,27.405,7.125,26.008C7.125,23,9.054,21.714,9.054,20.234z"/>
		<path fill="#0F769B" d="M9.054,20.234c0-0.557,0.053-1.116,0.145-1.673c0.106-0.645,0.265-1.287,0.452-1.92
			c0.62-2.098,1.56-4.105,2-5.814c0.151-0.587,0.243-1.139,0.243-1.647c-0.145,3.071,0.494,4.561,0.168,6.196
			C11.625,17.562,10.625,17.312,9.054,20.234z"/>
		<path fill="#0F769B" d="M10.01,3.329c-0.046-0.161,0.075-0.335,0.243-0.326c1.223,0.063,2.795,0.642,2.966,1.298
			c0.188,0.719-1.291,2.018-1.896,1.625C10.745,5.55,10.39,4.649,10.01,3.329z"/>
		<path fill="#8A323F" d="M10.798,3.89c-0.026-0.091,0.042-0.188,0.136-0.183c0.687,0.035,1.57,0.36,1.666,0.729
			c0.105,0.404-0.725,1.133-1.065,0.913C11.211,5.138,11.012,4.632,10.798,3.89z"/>
		<path fill="#EACEA1" d="M10.812,8.562C10.812,6.417,12,3.5,16,3.5v10.702C11.812,14.062,10.812,10,10.812,8.562z"/>
		<path fill="#E5C79A" d="M16,12.542c0,0,0,0.771,0,1.66c-2.997-0.1-4.362-2.21-4.895-3.928C12.333,11.458,13.792,12.5,16,12.542z"
			/>
		<path fill="#F5DEB9" d="M13.227,18.869c1.094,3.25,2.04,5.428,0.625,6c-1.469,0.594-2.284-3.121-2.812-5.281
			C10.695,18.182,12.722,17.371,13.227,18.869z"/>
		<path fill="#E0C193" d="M21,29l1.794,1.794C22.926,30.926,23,31.105,23,31.292v0.003C23,31.684,22.684,32,22.295,32h-2.59
			C19.316,32,19,31.684,19,31.295V29H21z"/>
		<path fill="#E5C79A" d="M24.875,26.008c0,1.397-0.875,3.742-3.757,3.838C19.569,29.898,18,29,16,29V5.754
			c0.875,0,4.105,0.931,4.105,3.425c0,2.821,2.841,6.987,2.841,11.055C22.946,21.714,24.875,23,24.875,26.008z"/>
		<path fill="#0A6F8E" d="M19.938,15.375c-0.327-1.634,0.312-3.125,0.168-6.196c0,0.508,0.092,1.06,0.243,1.647
			c0.44,1.709,1.38,3.716,2,5.814c0.187,0.634,0.346,1.276,0.452,1.92c0.092,0.557,0.145,1.116,0.145,1.673
			C21.375,17.312,20.375,17.562,19.938,15.375z"/>
		<path fill="#0A6F8E" d="M20.677,5.926c-0.604,0.393-2.083-0.906-1.896-1.625c0.171-0.657,1.743-1.235,2.966-1.298
			c0.168-0.009,0.289,0.165,0.243,0.326C21.61,4.649,21.255,5.55,20.677,5.926z"/>
		<path fill="#7F1E32" d="M21.202,3.89c0.026-0.091-0.042-0.188-0.136-0.183c-0.687,0.035-1.57,0.36-1.666,0.729
			c-0.105,0.404,0.725,1.133,1.065,0.913C20.789,5.138,20.988,4.632,21.202,3.89z"/>
		<path fill="#E5C79A" d="M16,14.202V3.5c4,0,5.188,2.917,5.188,5.063C21.188,10,20.188,14.062,16,14.202z"/>
		<path fill="#E0C193" d="M20.895,10.274c-0.533,1.718-1.898,3.828-4.895,3.928c0-0.889,0-1.66,0-1.66
			C18.208,12.5,19.667,11.458,20.895,10.274z"/>
		<path fill="#EFD4A7" d="M20.961,19.588c-0.528,2.16-1.344,5.875-2.812,5.281c-1.415-0.572-0.469-2.75,0.625-6
			C19.278,17.371,21.305,18.182,20.961,19.588z"/>
		<path fill="#0A6F8E" d="M16,3.5c-3.875,0-5.165,2.563-5.165,4.521c2.206,0,2.998,2.167,5.165,2.167s2.958-2.167,5.165-2.167
			C21.165,6.062,19.875,3.5,16,3.5z"/>
		<path fill="#F7F7F7" d="M19.668,7.104c-0.156-0.258-1.107,0.813-1.3,1.155s-1.146,1.881,0.425,1.395
			C20.22,9.213,20.135,7.876,19.668,7.104z"/>
		<g>
			<g>
				<path fill="#7F1E32" d="M18.368,8.259c0.039-0.069,0.116-0.175,0.208-0.29c0.265,0.139,0.477,0.377,0.564,0.688
					c0.091,0.326,0.018,0.652-0.155,0.914c-0.065,0.027-0.117,0.061-0.191,0.084C17.223,10.14,18.175,8.601,18.368,8.259z"/>
			</g>
			<g>
				<path fill="#8A323F" d="M18.368,8.259c0.039-0.069,0.116-0.175,0.208-0.29c0.265,0.139,0.477,0.377,0.564,0.688
					c0.091,0.326,0.018,0.652-0.155,0.914c-0.065,0.027-0.117,0.061-0.191,0.084C17.223,10.14,18.175,8.601,18.368,8.259z"/>
			</g>
		</g>
		<g>
			<g>
				<path fill="#2B3332" d="M18.63,8.81c0.076,0.271-0.058,0.545-0.298,0.612c-0.15,0.042-0.301-0.014-0.416-0.123
					c0.04-0.279,0.218-0.626,0.348-0.857C18.43,8.482,18.577,8.617,18.63,8.81z"/>
			</g>
			<g>
				<path fill="#2B3332" d="M18.63,8.81c0.076,0.271-0.058,0.545-0.298,0.612c-0.15,0.042-0.301-0.014-0.416-0.123
					c0.04-0.279,0.218-0.626,0.348-0.857C18.43,8.482,18.577,8.617,18.63,8.81z"/>
			</g>
		</g>
		<ellipse fill="#2B3332" cx="16" cy="12.448" rx="0.5" ry="0.25"/>
		<path fill="#0F769B" d="M10.835,8.021c0-1.958,1.29-4.521,5.165-4.521v6.688C13.833,10.188,13.042,8.021,10.835,8.021z"/>
		<path fill="#FFFFFF" d="M12.332,7.104c0.156-0.258,1.107,0.813,1.3,1.155s1.146,1.881-0.425,1.395
			C11.78,9.213,11.865,7.876,12.332,7.104z"/>
		<path fill="#8A323F" d="M13.207,9.654c-0.075-0.023-0.126-0.057-0.191-0.084c-0.173-0.262-0.246-0.587-0.155-0.914
			c0.087-0.311,0.299-0.549,0.564-0.688c0.091,0.116,0.169,0.221,0.208,0.29C13.825,8.601,14.777,10.14,13.207,9.654z"/>
		<g>
			<g>
				<path fill="#373F3F" d="M13.37,8.81c-0.076,0.271,0.058,0.545,0.298,0.612c0.15,0.042,0.301-0.014,0.416-0.123
					c-0.04-0.279-0.218-0.626-0.348-0.857C13.57,8.482,13.423,8.617,13.37,8.81z"/>
			</g>
			<g>
				<path fill="#2B3332" d="M13.37,8.81c-0.076,0.271,0.058,0.545,0.298,0.612c0.15,0.042,0.301-0.014,0.416-0.123
					c-0.04-0.279-0.218-0.626-0.348-0.857C13.57,8.482,13.423,8.617,13.37,8.81z"/>
			</g>
		</g>
		<path fill="#F74000" d="M17.832,1.842c-0.429,0.435-0.715,0.758-0.968,1.072C16.659,1.69,16.267,0,16,0s-0.659,1.69-0.864,2.915
			c-0.253-0.314-0.539-0.637-0.968-1.072c-0.041-0.042-0.115-0.005-0.104,0.053C14.331,3.316,15.029,4.66,16,6.031
			c0.971-1.371,1.669-2.715,1.936-4.136C17.947,1.837,17.874,1.8,17.832,1.842z"/>
		<path fill="#FF4A00" d="M15.136,2.915c-0.253-0.314-0.539-0.637-0.968-1.072c-0.041-0.042-0.115-0.005-0.104,0.053
			C14.331,3.316,15.029,4.66,16,6.031V0C15.733,0,15.341,1.69,15.136,2.915z"/>
		<path fill="#F9C900" d="M17.874,3.198c-0.989,0.73-1.638,1.64-1.874,1.877c-0.236-0.236-0.885-1.147-1.874-1.877
			c-0.058-0.043-0.145,0.006-0.136,0.078c0.231,1.961,1.528,3.826,2.01,3.786c0.481,0.04,1.779-1.825,2.01-3.786
			C18.018,3.204,17.932,3.155,17.874,3.198z"/>
		<path fill="#FFD400" d="M16,7.062c-0.481,0.04-1.779-1.825-2.01-3.786c-0.008-0.072,0.078-0.121,0.136-0.078
			c0.989,0.73,1.638,1.64,1.874,1.877V7.062z"/>
		<path fill="#373F3F" d="M16,12.198v0.5c-0.276,0-0.5-0.112-0.5-0.25C15.5,12.31,15.724,12.198,16,12.198z"/>
	</g>
</g>
</svg>
