<?xml version="1.0" encoding="utf-8"?>
<!-- Generator: Adobe Illustrator 23.0.6, SVG Export Plug-In . SVG Version: 6.00 Build 0)  -->
<svg version="1.1" xmlns="http://www.w3.org/2000/svg" xmlns:xlink="http://www.w3.org/1999/xlink" x="0px" y="0px" width="32px"
	 height="32px" viewBox="0 0 32 32" enable-background="new 0 0 32 32" xml:space="preserve">
<g id="labels">
	<g>
	</g>
</g>
<g id="icons">
	<g>
		<g>
			<path fill="#F74000" d="M9.988,4.983L4.803,2.469C4.589,2.365,4.365,2.589,4.469,2.803l2.514,5.185L3.225,8.364
				c-0.23,0.023-0.308,0.318-0.12,0.452l7.457,5.315L16,8.563l-5.184-7.457c-0.134-0.188-0.429-0.109-0.452,0.12L9.988,4.983z"/>
			<path fill="#F9C900" d="M10.695,6.397l-4.517-2.56c-0.221-0.125-0.466,0.12-0.341,0.341l2.56,4.517L5.246,8.91
				c-0.239,0.016-0.32,0.326-0.121,0.458l6.144,4.056l4.154-4.154l-4.056-6.144c-0.132-0.2-0.442-0.118-0.458,0.121L10.695,6.397z"
				/>
		</g>
		<path fill="#E5C79A" d="M8,29l-1.794,1.794C6.074,30.926,6,31.105,6,31.292v0.003C6,31.684,6.316,32,6.705,32h2.59
			C9.684,32,10,31.684,10,31.295V29H8z"/>
		<path fill="#EACEA1" d="M16,1c-4.093,0-4.535,4.495-5.537,8.913C9.355,14.801,8.214,19.17,7.076,21.99
			c-1.222,3.03-1.84,6.432,0.707,7.659c3.238,1.559,5.529-2.651,8.217-2.651V1z"/>
		<path fill="#99533D" d="M9.229,22.021c0.747-1.992-0.282-4.25-0.444-5.309c-0.567,2.062-1.138,3.865-1.709,5.279
			c-0.441,1.093-0.8,2.232-0.963,3.302C7.178,24.063,8.591,23.721,9.229,22.021z"/>
		<path fill="#E5C79A" d="M16,1c-2.703,0-3.814,1.96-4.545,4.564c-0.087,0.31-0.876,3.984-0.955,4.311
			c0.487,0,3.303,1.151,5.5,1.151V1z"/>
		<path fill="#EACEA1" d="M16,1c-2.938,0-4.063,2.708-4.75,5.292c1.212,0.352,3.017,2.542,4.75,2.542V1z"/>
		<path fill="#FFFFFF" d="M13.031,4.05c-0.158,0.456-0.274,1.121-0.227,1.452c0.289,0.316,1.233,0.76,2.048,0.772
			c0.075,0.001,0.135-0.062,0.135-0.137V5.756c0-0.033-0.013-0.065-0.035-0.09c-0.602-0.676-1.075-1.317-1.726-1.694
			C13.153,3.93,13.059,3.969,13.031,4.05z"/>
		<path fill="#8A323F" d="M14.73,5.41c-0.321-0.37-0.642-0.764-0.97-1.045c-0.117,0.224-0.187,0.536-0.187,0.897
			c0,0.292,0.057,0.559,0.136,0.771c0.245,0.1,0.506,0.168,0.785,0.209C14.616,6.045,14.71,5.749,14.73,5.41z"/>
		<ellipse fill="#373F3F" cx="14.12" cy="5.515" rx="0.272" ry="0.544"/>
		<ellipse fill="#FFFFFF" cx="13.989" cy="5.282" rx="0.125" ry="0.25"/>
		<path fill="#EACEA1" d="M10.521,9.9c-2.333,1.646-6.748,5.328-7.818,6.163c-1.281,1-0.52,1.922,0.109,1.922
			c0.484,0,7.888-1.798,7.888-1.798L10.521,9.9z"/>
		<path fill="#A55F49" d="M13.228,2.385c-0.397-0.562-0.839-1.506-1.083-2.056c-0.08-0.18,0.083-0.37,0.273-0.321
			c0.79,0.205,2.526,0.904,2.707,1.265C15.369,1.762,13.228,2.385,13.228,2.385z"/>
		<g>
			<path fill="#F74000" d="M22.012,4.983l5.185-2.514c0.213-0.103,0.437,0.121,0.334,0.334l-2.514,5.185l3.757,0.376
				c0.23,0.023,0.308,0.318,0.12,0.452l-7.457,5.315L16,8.563l5.184-7.457c0.134-0.188,0.429-0.109,0.452,0.12L22.012,4.983z"/>
			<path fill="#F9C900" d="M21.305,6.397l4.517-2.56c0.221-0.125,0.466,0.12,0.341,0.341l-2.56,4.517l3.151,0.215
				c0.239,0.016,0.32,0.326,0.121,0.458l-6.144,4.056L16.576,9.27l4.056-6.144c0.132-0.2,0.442-0.118,0.458,0.121L21.305,6.397z"/>
		</g>
		<path fill="#E0C193" d="M24,29l1.794,1.794C25.926,30.926,26,31.105,26,31.292v0.003C26,31.684,25.684,32,25.295,32h-2.59
			C22.316,32,22,31.684,22,31.295V29H24z"/>
		<path fill="#E5C79A" d="M16,1c4.093,0,4.535,4.495,5.537,8.913c1.108,4.888,2.249,9.256,3.387,12.077
			c1.222,3.03,1.84,6.432-0.707,7.659c-3.238,1.559-5.529-2.651-8.217-2.651V1z"/>
		<path fill="#914C39" d="M22.771,22.021c-0.747-1.992,0.282-4.25,0.444-5.309c0.567,2.062,1.138,3.865,1.709,5.279
			c0.441,1.093,0.8,2.232,0.963,3.302C24.822,24.063,23.409,23.721,22.771,22.021z"/>
		<path fill="#E0C193" d="M16,1c2.703,0,3.814,1.96,4.545,4.564c0.087,0.31,0.876,3.984,0.955,4.311c-0.487,0-3.303,1.151-5.5,1.151
			V1z"/>
		<path fill="#E5C79A" d="M16,1c2.938,0,4.062,2.708,4.75,5.292C19.538,6.644,17.733,8.833,16,8.833V1z"/>
		<path fill="#99533D" d="M16,1c-4.093,0-4.535,4.495-5.537,8.913C11.969,8.531,12.062,3,13.5,3c0.778,0,1.792,1.375,2.5,1.375
			S17.722,3,18.5,3c1.437,0,1.531,5.531,3.037,6.913C20.535,5.495,20.093,1,16,1z"/>
		<path fill="#F7F7F7" d="M18.969,4.05c0.158,0.456,0.274,1.121,0.227,1.452c-0.289,0.316-1.233,0.76-2.048,0.772
			c-0.075,0.001-0.135-0.062-0.135-0.137V5.756c0-0.033,0.013-0.065,0.035-0.09c0.602-0.676,1.075-1.317,1.726-1.694
			C18.847,3.93,18.941,3.969,18.969,4.05z"/>
		<path fill="#7F1E32" d="M17.27,5.41c0.321-0.37,0.642-0.764,0.97-1.045c0.117,0.224,0.187,0.536,0.187,0.897
			c0,0.292-0.057,0.559-0.136,0.771c-0.245,0.1-0.506,0.168-0.785,0.209C17.384,6.045,17.29,5.749,17.27,5.41z"/>
		<ellipse fill="#2B3332" cx="17.88" cy="5.515" rx="0.272" ry="0.544"/>
		<path fill="#F7F7F7" d="M18.011,5.032c0.069,0,0.125,0.112,0.125,0.25c0,0.138-0.056,0.25-0.125,0.25
			c-0.069,0-0.125-0.112-0.125-0.25C17.886,5.143,17.942,5.032,18.011,5.032z"/>
		<path fill="#99533D" d="M18.772,2.385c0.397-0.562,0.839-1.506,1.083-2.056c0.08-0.18-0.083-0.37-0.273-0.321
			c-0.79,0.205-2.526,0.904-2.707,1.265C16.631,1.762,18.772,2.385,18.772,2.385z"/>
		<path fill="#E5C79A" d="M21.486,9.9c2.333,1.646,6.748,5.328,7.818,6.163c1.281,1,0.52,1.922-0.109,1.922
			c-0.484,0-7.888-1.798-7.888-1.798L21.486,9.9z"/>
		<path fill="#A55F49" d="M16,1c-4.093,0-4.535,4.495-5.537,8.913C11.969,8.531,12.062,3,13.5,3c0.778,0,1.792,1.375,2.5,1.375V1z"
			/>
	</g>
</g>
</svg>
