<?xml version="1.0" encoding="utf-8"?>
<!-- Generator: Adobe Illustrator 23.0.6, SVG Export Plug-In . SVG Version: 6.00 Build 0)  -->
<svg version="1.1" xmlns="http://www.w3.org/2000/svg" xmlns:xlink="http://www.w3.org/1999/xlink" x="0px" y="0px" width="32px"
	 height="32px" viewBox="0 0 32 32" enable-background="new 0 0 32 32" xml:space="preserve">
<g id="labels">
	<g>
	</g>
</g>
<g id="icons">
	<path fill="#4CAEBC" d="M9.437,26.402c0-1.938-1.02-6.94-2.687-6.75C4.312,21.152,2,23.527,2,25.964
		c0,1.574,0.631,2.775,1.596,3.434c-0.395,0.565-0.794,1.144-1.113,1.611c-0.278,0.406,0.015,0.955,0.508,0.955h3.556
		c0.211,0,0.408-0.109,0.52-0.288l0.906-1.45c0.038-0.061,0.037-0.138-0.002-0.198L7.585,29.44
		C8.747,28.811,9.437,27.68,9.437,26.402z"/>
	<path fill="#3B8FA3" d="M30.323,11.308c2.954,9.162-4.382,14.35-9.946,16.948l-3.972-6.325C23,21.333,27.669,16.766,29.461,11.319
		C29.598,10.901,30.188,10.89,30.323,11.308z"/>
	<path fill="#47A1B4" d="M21.306,12.792c-0.717-0.266-2.609,4.128,0.428,5.083c2.781,0.875,2.862,0.926,4.364,1.292
		c3.083,0.75,5.792-1.625,2.167-3.333C26.458,14.982,23.655,13.664,21.306,12.792z"/>
	<path fill="#4CAEBC" d="M8.694,12.792c0.717-0.266,2.609,4.128-0.428,5.083c-2.781,0.875-2.862,0.926-4.364,1.292
		c-3.083,0.75-5.792-1.625-2.167-3.333C3.542,14.982,6.345,13.664,8.694,12.792z"/>
	<path fill="#51BAC5" d="M15,11.464c0,0-5.917,0-6.5,0c0.042,5.417-2.5,7.542-2.5,12c0,2.542,1.25,7.5,9,7.5V11.464z"/>
	<path fill="#5BD3D5" d="M15,1c-2.375,0-6,1.875-6,6c-3,3.5-0.438,9.464,6,9.464V1z"/>
	<path fill="#4CAEBC" d="M15,11.464c0,0,5.917,0,6.5,0c-0.042,5.417,2.5,7.542,2.5,12c0,2.542-1.25,7.5-9,7.5V11.464z"/>
	<path fill="#47A1B4" d="M26.404,29.434C27.369,28.775,28,27.574,28,26c0-2.438-2.313-4.812-4.75-6.312
		c-1.668-0.19-2.688,4.812-2.688,6.75c0,1.278,0.69,2.409,1.853,3.038l-0.385,0.588c-0.039,0.06-0.04,0.137-0.002,0.198l0.906,1.45
		C23.046,31.891,23.243,32,23.454,32h3.556c0.493,0,0.786-0.549,0.508-0.955C27.198,30.578,26.799,29.999,26.404,29.434z"/>
	<path fill="#373F3F" d="M9.962,3.714C9.377,4.586,9.001,5.675,9,6.998c0.707,0.204,2.049,0.44,4.062,0.158
		C12.718,5.876,11.139,4.471,9.962,3.714z"/>
	<path fill="#FFFFFF" d="M12.251,7.237c0.115-0.332,0.186-0.712,0.186-1.122c0-0.058-0.008-0.113-0.01-0.17
		c-0.52-0.699-1.249-1.356-1.934-1.862c-0.457,0.364-0.774,1.134-0.774,2.032c0,0.388,0.064,0.747,0.168,1.066
		C10.488,7.271,11.273,7.315,12.251,7.237z"/>
	<path fill="#EB6B48" d="M11.28,4.727c-0.234,0.18-0.405,0.706-0.405,1.335c0,0.518,0.117,0.966,0.288,1.21
		c0.186,0.002,0.381-0.001,0.587-0.009c0.168-0.246,0.281-0.689,0.281-1.201c0-0.247-0.029-0.476-0.075-0.678
		C11.744,5.154,11.515,4.936,11.28,4.727z"/>
	<path fill="#373F3F" d="M11.594,6.094c0,0.19-0.063,0.344-0.141,0.344s-0.141-0.154-0.141-0.344s0.063-0.344,0.141-0.344
		S11.594,5.904,11.594,6.094z"/>
	<path fill="#FFFFFF" d="M9.895,9.427l-0.72,2.752c-0.065,0.158,0.051,0.33,0.221,0.33h1.518c0.17,0,0.286-0.173,0.221-0.33
		l-0.72-2.752C10.32,9.194,9.99,9.194,9.895,9.427z"/>
	<path fill="#56C7CD" d="M15.001,1c2.375,0,6,1.875,6,6c3,3.5,0.438,9.464-6,9.464V1z"/>
	<g>
		<path fill="#8A323F" d="M14,3.781c0,0.688,1,3.443,1,2.938V0C14.625,0,14,3.094,14,3.781z"/>
		<path fill="#8A323F" d="M15.001,0v6.719c0,0.506,1-2.25,1-2.938S15.376,0,15.001,0z"/>
	</g>
	<path fill="#2B3332" d="M20.039,3.714c0.585,0.872,0.961,1.961,0.962,3.284c-0.707,0.204-2.049,0.44-4.062,0.158
		C17.283,5.876,18.862,4.471,20.039,3.714z"/>
	<path fill="#F7F7F7" d="M17.75,7.237c-0.115-0.332-0.186-0.712-0.186-1.122c0-0.058,0.008-0.113,0.01-0.17
		c0.52-0.699,1.249-1.356,1.934-1.862c0.457,0.364,0.774,1.134,0.774,2.032c0,0.388-0.064,0.747-0.168,1.066
		C19.513,7.271,18.728,7.315,17.75,7.237z"/>
	<path fill="#EB6B48" d="M18.721,4.727c0.234,0.18,0.405,0.706,0.405,1.335c0,0.518-0.117,0.966-0.288,1.21
		c-0.186,0.002-0.381-0.001-0.587-0.009c-0.168-0.246-0.281-0.689-0.281-1.201c0-0.247,0.029-0.476,0.075-0.678
		C18.257,5.154,18.486,4.936,18.721,4.727z"/>
	<ellipse fill="#2B3332" cx="18.548" cy="6.094" rx="0.141" ry="0.344"/>
	<path fill="#F7F7F7" d="M20.107,9.427l0.72,2.752c0.065,0.158-0.051,0.33-0.221,0.33h-1.518c-0.17,0-0.286-0.173-0.221-0.33
		l0.72-2.752C19.681,9.194,20.011,9.194,20.107,9.427z"/>
	<path fill="#FFE28A" d="M21.8,8.255c-1.675,0.12-1.113,2.995-2.175,2.495C17.373,9.69,16.626,12.5,15,12.5
		c-1.626,0-2.373-2.81-4.625-1.75c-1.063,0.5-0.5-2.375-2.175-2.495c-1.578,3.504,1.083,8.209,6.8,8.209S23.378,11.76,21.8,8.255z"
		/>
	<path fill="#FFD96C" d="M23.281,19.375c-1.291,0.868-4.156,2-8.281,0.59c-6.417-1.923-5.917-8.5-6.5-8.5
		c0.042,5.417-2.5,7.542-2.5,12c0,2.542,1.25,7.5,9,7.5s9-4.958,9-7.5C24,21.155,23.437,19.906,23.281,19.375z"/>
	<path fill="#4CAEBC" d="M19.998,23.022l0.95-0.958c0.308-0.31,0.381-0.783,0.181-1.172l-0.617-1.199
		c-0.2-0.389-0.627-0.604-1.059-0.534l-1.331,0.216c-0.431,0.07-0.768,0.41-0.835,0.842l-0.205,1.333
		c-0.067,0.432,0.152,0.858,0.543,1.054l1.204,0.607C19.218,23.409,19.691,23.332,19.998,23.022z"/>
	<path fill="#FFE28A" d="M15,19.965c-6.417-1.923-5.917-8.5-6.5-8.5c0.042,5.417-2.5,7.542-2.5,12c0,2.542,1.25,7.5,9,7.5V19.965z"
		/>
	<path fill="#51BAC5" d="M11.11,19.967c0.331,0.376,0.381,0.923,0.126,1.354l-1.012,1.704c-0.256,0.431-0.76,0.648-1.248,0.538
		l-1.934-0.435c-0.489-0.11-0.851-0.522-0.897-1.021L6.12,21.83c0.092-0.96,0.45-2.024,0.779-2.971l1.577-0.68
		c0.46-0.198,0.995-0.078,1.326,0.299L11.11,19.967z M14.247,24.981l-1.174,3.284c-0.186,0.521,0.2,1.069,0.753,1.069H15V24.45
		C14.687,24.45,14.373,24.627,14.247,24.981z"/>
	<path fill="#4CAEBC" d="M16.927,28.264l-1.174-3.284c-0.126-0.354-0.44-0.53-0.753-0.53v4.883h1.174
		C16.727,29.333,17.113,28.785,16.927,28.264z"/>
	<path fill="#9A3644" d="M14,3.781C14,3.094,14.625,0,15,0v6.719C15,7.224,14,4.469,14,3.781z"/>
	<path fill="#FFEAA7" d="M15,12.5c-1.626,0-2.373-2.81-4.625-1.75c-1.063,0.5-0.5-2.375-2.175-2.495
		c-1.578,3.504,1.083,8.209,6.8,8.209V12.5z"/>
</g>
</svg>
