<?xml version="1.0" encoding="utf-8"?>
<!-- Generator: Adobe Illustrator 23.0.6, SVG Export Plug-In . SVG Version: 6.00 Build 0)  -->
<svg version="1.1" xmlns="http://www.w3.org/2000/svg" xmlns:xlink="http://www.w3.org/1999/xlink" x="0px" y="0px" width="32px"
	 height="32px" viewBox="0 0 32 32" enable-background="new 0 0 32 32" xml:space="preserve">
<g id="labels">
	<g>
	</g>
</g>
<g id="icons">
	<g>
		<path fill="#FFD04D" d="M20.686,11c0,0,0-1,2-1s2,6-2,6V11z"/>
		<circle fill="#FFD04D" cx="23" cy="10" r="1"/>
		<path fill="#FFD96C" d="M11.314,11c0,0,0-1-2-1s-2,6,2,6V11z"/>
		<circle fill="#FFD96C" cx="9" cy="10" r="1"/>
		<path fill="#843822" d="M17.003,2c0,1.105-0.105,7,1,7c1.105,0,3-5.895,3-7s-0.895-2-2-2C17.898,0,17.003,0.895,17.003,2z"/>
		<path fill="#923D27" d="M15,2c0,1.105,0.105,7-1,7s-3-5.895-3-7s0.895-2,2-2S15,0.895,15,2z"/>
		<path fill="#F57552" d="M17.986,8.284c-0.128-0.812,0.003-3.297,0.016-6.007L18.003,2c0-0.551,0.448-1,1-1s1,0.449,1,1
			C20,2.74,18.761,6.777,17.986,8.284z"/>
		<path fill="#FF805D" d="M14.017,8.284C13.242,6.777,12.003,2.74,12,2c0-0.551,0.448-1,1-1s1,0.449,1,1l0.001,0.276
			C14.014,4.986,14.145,7.472,14.017,8.284z"/>
		<ellipse fill="#FFD96C" cx="12.5" cy="20" rx="1.5" ry="2"/>
		<ellipse fill="#FFD04D" cx="19.5" cy="20" rx="1.5" ry="2"/>
		<path fill="#FFE28A" d="M16,26h-3.154l-0.377,1.225C11.739,29.598,13.513,32,15.996,32H16V26z"/>
		<path fill="#FFD96C" d="M19.154,26H16v6h0.004c2.483,0,4.257-2.402,3.527-4.775L19.154,26z"/>
		<polygon fill="#843822" points="16,26 19.154,26 18.538,24 16,24 		"/>
		<polygon fill="#923D27" points="12.846,26 16,26 16,24 13.462,24 		"/>
		<polygon fill="#7D3119" points="17.923,22 17,19 16,19 16,22 		"/>
		<polygon fill="#843822" points="14.077,22 15,19 16,19 16,22 		"/>
		<polygon fill="#FFD96C" points="16,22 14.077,22 13.462,24 16,24 		"/>
		<polygon fill="#FFD04D" points="16,24 18.538,24 17.923,22 16,22 		"/>
		<path fill="#FFE28A" d="M16,7c-3.314,0-6,3.91-6,7.5s2.686,5.5,6,5.5V7z"/>
		<path fill="#FFD96C" d="M22,14.5c0-3.59-2.686-7.5-6-7.5v13C19.314,20,22,18.09,22,14.5z"/>
		<path fill="#FFF3D9" d="M16,13c-1.657,0-3,1.343-3,3s1.343,3,3,3V13z"/>
		<path fill="#FDEBBB" d="M19,16c0-1.657-1.343-3-3-3v6C17.657,19,19,17.657,19,16z"/>
		<circle fill="#373F3F" cx="14.5" cy="10.5" r="0.5"/>
		<circle fill="#2B3332" cx="17.5" cy="10.5" r="0.5"/>
		<path fill="#FFE28A" d="M16,14c-1.105,0-2,0.895-2,2c0,1.105,0.895,2,2,2V14z"/>
		<path fill="#FFD96C" d="M18,16c0-1.105-0.895-2-2-2v4C17.105,18,18,17.105,18,16z"/>
		<path fill="#373F3F" d="M16,11c-0.504,0-0.899,0.74-0.974,0.888c-0.062,0.124-0.012,0.273,0.111,0.335
			c0.124,0.061,0.274,0.012,0.336-0.111C15.632,11.797,15.888,11.5,16,11.5V11z"/>
		<path fill="#2B3332" d="M16.526,12.112c0.044,0.087,0.132,0.138,0.224,0.138c0.038,0,0.076-0.009,0.112-0.027
			c0.123-0.062,0.173-0.211,0.111-0.335C16.899,11.74,16.504,11,16,11v0.5C16.112,11.5,16.368,11.797,16.526,12.112z"/>
	</g>
</g>
</svg>
