<?xml version="1.0" encoding="utf-8"?>
<!-- Generator: Adobe Illustrator 23.0.6, SVG Export Plug-In . SVG Version: 6.00 Build 0)  -->
<svg version="1.1" xmlns="http://www.w3.org/2000/svg" xmlns:xlink="http://www.w3.org/1999/xlink" x="0px" y="0px" width="32px"
	 height="32px" viewBox="0 0 32 32" enable-background="new 0 0 32 32" xml:space="preserve">
<g id="labels">
	<g>
	</g>
</g>
<g id="icons">
	<g>
		<path fill="#FBCFD6" d="M16,27h-2v2l-3.108,0.777c-0.566,0.142-1.043,0.524-1.304,1.046l-0.227,0.454
			C9.196,31.609,9.437,32,9.809,32H16V27z"/>
		<path fill="#FAC4D1" d="M22.411,30.823c-0.261-0.522-0.737-0.904-1.304-1.046L18,29v-2h-2v5h6.191
			c0.372,0,0.613-0.391,0.447-0.724L22.411,30.823z"/>
		<path fill="#C09265" d="M16,5C9.373,5,4,9.373,4,16c0,0.525,0.045,1.03,0.111,1.526l-3.77,1.257
			c-0.351,0.117-0.453,0.554-0.2,0.825C0.689,20.196,1.788,21,3.689,21c0.551,0,0.999-0.103,1.367-0.268
			C6.932,24.625,11.122,27,16,27V5z"/>
		<path fill="#B38658" d="M26.944,20.732C27.311,20.897,27.76,21,28.311,21c1.902,0,3-0.804,3.549-1.392
			c0.253-0.271,0.151-0.708-0.2-0.825l-3.77-1.257C27.955,17.03,28,16.525,28,16c0-6.627-5.373-11-12-11v22
			C20.878,27,25.068,24.625,26.944,20.732z"/>
		<path fill="#373F3F" d="M16,11l-6-6V2.132c0-0.222-0.146-0.417-0.359-0.48L4.877,0.257c-0.379-0.111-0.731,0.241-0.62,0.62
			l1.395,4.763C5.715,5.854,5.91,6,6.132,6H9l2.063,2.063C10.877,8.037,10.693,8,10.5,8C8.015,8,6,10.239,6,13H5.25
			C5.112,13,5,13.112,5,13.25v0.5C5,13.888,5.112,14,5.25,14h0.841c0.153,0.838,0.509,1.585,0.988,2.214l-0.713,0.713
			c-0.098,0.098-0.098,0.256,0,0.354l0.354,0.354c0.098,0.098,0.256,0.098,0.354,0l0.69-0.69c0.634,0.544,1.398,0.896,2.237,1v0.806
			c0,0.138,0.112,0.25,0.25,0.25h0.5c0.138,0,0.25-0.112,0.25-0.25v-0.806c1.624-0.202,2.99-1.344,3.62-2.944H16V11z"/>
		<ellipse fill="#FFA68E" cx="10.5" cy="13" rx="3.5" ry="4"/>
		<circle fill="#373F3F" cx="11" cy="12" r="1"/>
		<path fill="#2B3332" d="M21.5,8c-0.193,0-0.377,0.037-0.563,0.063L23,6h2.868c0.222,0,0.417-0.146,0.48-0.359l1.395-4.763
			c0.111-0.379-0.241-0.731-0.62-0.62l-4.763,1.395C22.146,1.714,22,1.91,22,2.132V5l-6,6v4h1.38c0.63,1.601,1.996,2.742,3.62,2.944
			v0.806c0,0.138,0.112,0.25,0.25,0.25h0.5c0.138,0,0.25-0.112,0.25-0.25v-0.806c0.839-0.104,1.602-0.456,2.237-1l0.69,0.69
			c0.098,0.098,0.256,0.098,0.354,0l0.354-0.354c0.098-0.098,0.098-0.256,0-0.354l-0.713-0.713c0.479-0.629,0.835-1.376,0.988-2.214
			h0.841c0.138,0,0.25-0.112,0.25-0.25v-0.5c0-0.138-0.112-0.25-0.25-0.25H26C26,10.239,23.985,8,21.5,8z"/>
		<ellipse fill="#FF9A7E" cx="21.5" cy="13" rx="3.5" ry="4"/>
		<circle fill="#2B3332" cx="21" cy="12" r="1"/>
		<path fill="#FBCFD6" d="M16,13c-1.105,0-2,1.119-2,2.5c0,1.381,0.895,2.5,2,2.5V13z"/>
		<path fill="#FAC4D1" d="M18,15.5c0-1.381-0.895-2.5-2-2.5v5C17.105,18,18,16.881,18,15.5z"/>
		<path fill="#FDE2E6" d="M14.019,15.264l1.681,1.261c0.089,0.067,0.194,0.1,0.3,0.1V13C14.96,13,14.115,13.996,14.019,15.264z"/>
		<path fill="#FCD8DE" d="M16,13v3.625c0.106,0,0.211-0.033,0.3-0.1l1.681-1.261C17.885,13.996,17.04,13,16,13z"/>
		<path fill="#F7F7F7" d="M12,32h-2c0-0.552,0.448-1,1-1S12,31.448,12,32z"/>
		<path fill="#F7F7F7" d="M15,32h-2c0-0.552,0.448-1,1-1S15,31.448,15,32z"/>
		<path fill="#EDEEEE" d="M19,32h-2c0-0.552,0.448-1,1-1S19,31.448,19,32z"/>
		<path fill="#EDEEEE" d="M22,32h-2c0-0.552,0.448-1,1-1S22,31.448,22,32z"/>
		<path fill="#FCE8CC" d="M16,19c-3.602,0-6.646,2.381-7.649,5.654c1.074,0.778,2.308,1.374,3.649,1.773v0.834
			c0,0.354,0.357,0.596,0.686,0.464L14.5,27l1.223,0.815c0.084,0.056,0.181,0.084,0.277,0.084V19z"/>
		<path fill="#F5DEB9" d="M16.277,27.815L17.5,27l1.814,0.726C19.643,27.857,20,27.615,20,27.261v-0.834
			c1.341-0.399,2.575-0.995,3.649-1.773C22.646,21.381,19.602,19,16,19v8.899C16.097,27.899,16.193,27.871,16.277,27.815z"/>
	</g>
</g>
</svg>
