<?xml version="1.0" encoding="utf-8"?>
<!-- Generator: Adobe Illustrator 23.0.6, SVG Export Plug-In . SVG Version: 6.00 Build 0)  -->
<svg version="1.1" xmlns="http://www.w3.org/2000/svg" xmlns:xlink="http://www.w3.org/1999/xlink" x="0px" y="0px" width="32px"
	 height="32px" viewBox="0 0 32 32" enable-background="new 0 0 32 32" xml:space="preserve">
<g id="labels">
	<g>
	</g>
</g>
<g id="icons">
	<g>
		<path fill="#E5C79A" d="M18.621,30.034L19,27h-2v3l-0.854,0.854C16.053,30.947,16,31.074,16,31.207V31.5
			c0,0.276,0.224,0.5,0.5,0.5h5c0.276,0,0.5-0.224,0.5-0.5v-0.123c0-0.223-0.148-0.419-0.363-0.481L18.621,30.034z"/>
		<path fill="#EACEA1" d="M15,30v-3h-2l0.379,3.034l-3.017,0.862C10.148,30.958,10,31.154,10,31.377V31.5c0,0.276,0.224,0.5,0.5,0.5
			h5c0.276,0,0.5-0.224,0.5-0.5v-0.293c0-0.133-0.053-0.26-0.146-0.354L15,30z"/>
		<path fill="#923D27" d="M16.062,10.102c0,0,14.754,4.918,6.218,18.655c-0.133,0.214-0.407,0.304-0.636,0.199
			C20.281,28.336,16.062,25.196,16.062,10.102z"/>
		<path fill="#A0422C" d="M16,10.102c0,0-14.754,4.918-6.218,18.655c0.133,0.214,0.407,0.304,0.636,0.199
			C11.781,28.336,16,25.196,16,10.102z"/>
		<path fill="#A8B875" d="M16,11c-3.866,0-7,4.029-7,9c0,4.971,3.134,9,7,9V11z"/>
		<path fill="#9EB164" d="M16,11v18c3.866,0,7-4.029,7-9C23,15.029,19.866,11,16,11z"/>
		<path fill="#B4C187" d="M16,4c-3.866,0-7,2.91-7,6.5s3.134,6.5,7,6.5V4z"/>
		<path fill="#A8B875" d="M23,10.5C23,6.91,19.866,4,16,4v13C19.866,17,23,14.09,23,10.5z"/>
		<path fill="#CDD4AD" d="M15.372,11.751C15.052,12.762,14.117,13.5,13,13.5c-1.381,0-2.5-1.119-2.5-2.5
			c0-0.39,0.097-0.754,0.256-1.082L15.372,11.751z"/>
		<path fill="#C0C998" d="M21.244,9.918C21.403,10.246,21.5,10.61,21.5,11c0,1.381-1.119,2.5-2.5,2.5
			c-1.117,0-2.052-0.738-2.372-1.749L21.244,9.918z"/>
		<path fill="#2B3332" d="M20.778,10.103C20.915,10.374,21,10.676,21,11c0,1.105-0.895,2-2,2c-0.906,0-1.663-0.607-1.909-1.433
			L20.778,10.103z"/>
		<path fill="#373F3F" d="M11.222,10.103C11.085,10.374,11,10.676,11,11c0,1.105,0.895,2,2,2c0.906,0,1.663-0.607,1.909-1.433
			L11.222,10.103z"/>
		<path fill="#FFFFFF" d="M11.688,10.288C11.572,10.5,11.5,10.741,11.5,11c0,0.828,0.672,1.5,1.5,1.5
			c0.695,0,1.275-0.476,1.445-1.118L11.688,10.288z"/>
		<path fill="#F7F7F7" d="M17.555,11.382C17.725,12.024,18.305,12.5,19,12.5c0.828,0,1.5-0.672,1.5-1.5
			c0-0.259-0.072-0.5-0.188-0.712L17.555,11.382z"/>
		<path fill="#C84054" d="M12.168,10.478C12.071,10.633,12,10.804,12,11c0,0.552,0.448,1,1,1c0.485,0,0.87-0.352,0.962-0.809
			L12.168,10.478z"/>
		<path fill="#B93D4F" d="M18.038,11.191C18.13,11.648,18.515,12,19,12c0.552,0,1-0.448,1-1c0-0.196-0.071-0.367-0.168-0.522
			L18.038,11.191z"/>
		<path fill="#C9B88D" d="M23.735,2.636c-0.054-0.228-0.366-0.264-0.47-0.055L22.556,4l-0.757-3.03
			c-0.063-0.253-0.422-0.253-0.485,0L20.556,4l-0.704-1.407c-0.105-0.21-0.416-0.176-0.467,0.053
			c-0.21,0.938-0.486,2.778-0.015,4.709c0.096,0.394-0.024,0.81-0.343,1.06L17,10l-0.776-1.553C16.178,8.355,16.089,8.309,16,8.309
			c-0.089,0-0.178,0.046-0.224,0.138L15,10l-2.027-1.586c-0.32-0.25-0.44-0.665-0.343-1.06c0.471-1.93,0.195-3.77-0.015-4.709
			c-0.051-0.229-0.362-0.263-0.467-0.053L11.444,4l-0.758-3.03c-0.063-0.253-0.422-0.253-0.485,0L9.444,4l-0.71-1.419
			c-0.105-0.21-0.416-0.173-0.47,0.055C7.742,4.841,8.119,7.373,8.329,8.46c0.065,0.336,0.295,0.611,0.613,0.738L16,12l7.058-2.803
			c0.318-0.126,0.548-0.402,0.613-0.738C23.881,7.373,24.258,4.841,23.735,2.636z"/>
		<path fill="#FEF1C6" d="M16,8.309c-0.089,0-0.178,0.046-0.224,0.138L15,10l-2.027-1.586c-0.32-0.25-0.44-0.665-0.343-1.06
			c0.471-1.93,0.195-3.77-0.015-4.709c-0.051-0.229-0.362-0.263-0.467-0.053L11.444,4l-0.758-3.03c-0.063-0.253-0.422-0.253-0.485,0
			L9.444,4l-0.71-1.419c-0.105-0.21-0.416-0.173-0.47,0.055C7.742,4.841,8.119,7.373,8.329,8.46
			c0.065,0.336,0.295,0.611,0.613,0.738L16,12V8.309z"/>
		<path fill="#FFEAA7" d="M23.058,9.197c0.318-0.126,0.548-0.402,0.613-0.738c0.21-1.086,0.586-3.619,0.064-5.824
			c-0.054-0.228-0.366-0.264-0.47-0.055L22.556,4l-0.757-3.03c-0.063-0.253-0.422-0.253-0.485,0L20.556,4l-0.704-1.407
			c-0.105-0.21-0.416-0.176-0.467,0.053c-0.21,0.938-0.486,2.778-0.015,4.709c0.096,0.394-0.024,0.81-0.343,1.06L17,10l-0.776-1.553
			C16.178,8.355,16.089,8.309,16,8.309V12L23.058,9.197z"/>
		<path fill="#373F3F" d="M12.635,10.664C12.553,10.753,12.5,10.869,12.5,11c0,0.276,0.224,0.5,0.5,0.5
			c0.274,0,0.495-0.22,0.499-0.493L12.635,10.664z"/>
		<path fill="#2B3332" d="M18.501,11.007C18.505,11.28,18.726,11.5,19,11.5c0.276,0,0.5-0.224,0.5-0.5
			c0-0.131-0.053-0.247-0.135-0.336L18.501,11.007z"/>
		<path fill="#FAC7AF" d="M16,11c-0.552,0-1,0.672-1,1.5c0,0.828,0.448,1.5,1,1.5V11z"/>
		<path fill="#F9BDA0" d="M17,12.5c0-0.828-0.448-1.5-1-1.5v3C16.552,14,17,13.328,17,12.5z"/>
		<path fill="#FCD2BE" d="M15.01,12.359l0.84,0.756c0.044,0.04,0.097,0.06,0.15,0.06V11C15.48,11,15.058,11.597,15.01,12.359z"/>
		<path fill="#FAC7AF" d="M16,11v2.175c0.053,0,0.106-0.02,0.15-0.06l0.84-0.756C16.942,11.597,16.52,11,16,11z"/>
		<path fill="#604631" d="M10.827,18h2.346c0.376,0,0.617,0.399,0.443,0.732l-1.173,2.236c-0.187,0.357-0.698,0.357-0.886,0
			l-1.173-2.236C10.209,18.399,10.451,18,10.827,18z"/>
		<path fill="#4F4032" d="M18.827,18h2.346c0.376,0,0.617,0.399,0.443,0.732l-1.173,2.236c-0.187,0.357-0.698,0.357-0.886,0
			l-1.173-2.236C18.209,18.399,18.451,18,18.827,18z"/>
		<path fill="#604631" d="M10.827,22h2.346c0.376,0,0.617,0.399,0.443,0.732l-1.173,2.236c-0.187,0.357-0.698,0.357-0.886,0
			l-1.173-2.236C10.209,22.399,10.451,22,10.827,22z"/>
		<path fill="#4F4032" d="M18.827,22h2.346c0.376,0,0.617,0.399,0.443,0.732l-1.173,2.236c-0.187,0.357-0.698,0.357-0.886,0
			l-1.173-2.236C18.209,22.399,18.451,22,18.827,22z"/>
		<path fill="#604631" d="M16,22h-1.173c-0.376,0-0.617,0.399-0.443,0.732l1.173,2.236c0.094,0.178,0.268,0.268,0.443,0.268V22z"/>
		<path fill="#4F4032" d="M17.173,22H16v3.236c0.175,0,0.349-0.089,0.443-0.268l1.173-2.236C17.791,22.399,17.549,22,17.173,22z"/>
		<path fill="#604631" d="M16,18h-1.173c-0.376,0-0.617,0.399-0.443,0.732l1.173,2.236c0.094,0.178,0.268,0.268,0.443,0.268V18z"/>
		<path fill="#4F4032" d="M17.173,18H16v3.236c0.175,0,0.349-0.089,0.443-0.268l1.173-2.236C17.791,18.399,17.549,18,17.173,18z"/>
	</g>
</g>
</svg>
