<?xml version="1.0" encoding="utf-8"?>
<!-- Generator: Adobe Illustrator 23.0.6, SVG Export Plug-In . SVG Version: 6.00 Build 0)  -->
<svg version="1.1" xmlns="http://www.w3.org/2000/svg" xmlns:xlink="http://www.w3.org/1999/xlink" x="0px" y="0px" width="32px"
	 height="32px" viewBox="0 0 32 32" enable-background="new 0 0 32 32" xml:space="preserve">
<g id="labels">
	<g>
	</g>
</g>
<g id="icons">
	<g>
		<circle fill="#DADDDC" cx="10.5" cy="29.5" r="2.5"/>
		<path fill="#7C8AC4" d="M8,30c-0.552,0-1-0.448-1-1c0-0.14,0.026-3.44,2.293-5.707c0.391-0.391,1.023-0.391,1.414,0
			s0.391,1.023,0,1.414C9.02,26.395,9,28.974,9,29C9,29.552,8.552,30,8,30z"/>
		<circle fill="#E3E5E5" cx="7.5" cy="29.5" r="2.5"/>
		<circle fill="#D1D4D4" cx="21.5" cy="29.5" r="2.5"/>
		<path fill="#707EB7" d="M24,30c-0.551,0-0.999-0.446-1-0.998c0-0.055-0.046-2.634-1.707-4.295c-0.391-0.391-0.391-1.023,0-1.414
			s1.023-0.391,1.414,0C24.974,25.56,25,28.86,25,29C25,29.552,24.552,30,24,30z"/>
		<circle fill="#DADDDC" cx="24.5" cy="29.5" r="2.5"/>
		<path fill="#373F3F" d="M12,8.778l-0.909-4.543c-0.058-0.29,0.015-0.59,0.2-0.821l2.655-3.319c0.18-0.225,0.534-0.018,0.427,0.249
			L13.11,3.502c-0.072,0.18-0.09,0.377-0.052,0.568L14,8.778H12z"/>
		<path fill="#2B3332" d="M20,8.778l0.909-4.543c0.058-0.29-0.015-0.59-0.2-0.821l-2.655-3.319c-0.18-0.225-0.534-0.018-0.427,0.249
			l1.263,3.158c0.072,0.18,0.09,0.377,0.052,0.568L18,8.778H20z"/>
		<path fill="#FAE09F" d="M16,9C9.373,9,4,13.477,4,19c0,5.523,5.373,10,12,10V9z"/>
		<path fill="#F7D684" d="M28,19c0-5.523-5.373-10-12-10v20C22.627,29,28,24.523,28,19z"/>
		<path fill="#F57552" d="M16,9C9.373,9,4,13.477,4,19c0,5.523,5.373,5.5,12,5.5V9z"/>
		<path fill="#EB6B48" d="M28,19c0-5.523-5.373-10-12-10v15.5C22.627,24.5,28,24.523,28,19z"/>
		<path fill="#FDEBBB" d="M16,7c-4.971,0-9,3.582-9,8s4.029,8,9,8V7z"/>
		<path fill="#FAE09F" d="M25,15c0-4.418-4.029-8-9-8v16C20.971,23,25,19.418,25,15z"/>
		<path fill="#373F3F" d="M4.149,17.501c0.974,0.142,2.172-0.287,3.119-1.234c1.367-1.367,1.683-3.266,0.707-4.243
			c-0.088-0.088-0.192-0.154-0.294-0.222C5.824,13.294,4.551,15.277,4.149,17.501z"/>
		<path fill="#2B3332" d="M27.851,17.501c-0.402-2.224-1.675-4.207-3.531-5.698c-0.102,0.067-0.206,0.133-0.294,0.222
			c-0.976,0.976-0.66,2.876,0.707,4.243C25.679,17.215,26.877,17.643,27.851,17.501z"/>
		<path fill="#FF8D6E" d="M16,7c-4.971,0-9,3.582-9,8s4.029,2,9,2V7z"/>
		<path fill="#FF805D" d="M25,15c0-4.418-4.029-8-9-8v10C20.971,17,25,19.418,25,15z"/>
		<circle fill="#EDEEEE" cx="11" cy="13" r="3"/>
		<circle fill="#373F3F" cx="11" cy="13" r="2"/>
		<circle fill="#FFFFFF" cx="10" cy="12" r="1"/>
		<circle fill="#E3E5E5" cx="21" cy="13" r="3"/>
		<circle fill="#2B3332" cx="21" cy="13" r="2"/>
		<circle fill="#F7F7F7" cx="20" cy="12" r="1"/>
		<path fill="#8694D1" d="M5,30c-0.552,0-1-0.448-1-1c0-0.18,0.026-4.44,2.293-6.707c0.391-0.391,1.023-0.391,1.414,0
			s0.391,1.023,0,1.414C6.307,25.107,6,28.002,6,29C6,29.552,5.552,30,5,30z"/>
		<circle fill="#F7F7F7" cx="4.5" cy="29.5" r="2.5"/>
		<path fill="#7C8AC4" d="M27,30c-0.551,0-0.999-0.447-1-0.998c0-0.036-0.029-3.616-1.707-5.294c-0.391-0.391-0.391-1.023,0-1.414
			s1.023-0.391,1.414,0C27.974,24.56,28,28.82,28,29c0,0.552-0.447,0.999-0.999,1H27z"/>
		<circle fill="#E3E5E5" cx="27.5" cy="29.5" r="2.5"/>
	</g>
</g>
</svg>
