<?xml version="1.0" encoding="utf-8"?>
<!-- Generator: Adobe Illustrator 23.0.6, SVG Export Plug-In . SVG Version: 6.00 Build 0)  -->
<svg version="1.1" xmlns="http://www.w3.org/2000/svg" xmlns:xlink="http://www.w3.org/1999/xlink" x="0px" y="0px" width="32px"
	 height="32px" viewBox="0 0 32 32" enable-background="new 0 0 32 32" xml:space="preserve">
<g id="labels">
	<g>
	</g>
</g>
<g id="icons">
	<g>
		<path fill="#B93D4F" d="M16,22.667c3.667,0,9-3.833,9-9.917C25,7.833,20.5,4,16,4V22.667z"/>
		<path fill="#C84054" d="M16,22.667c-3.667,0-9-3.833-9-9.917C7,7.833,11.5,4,16,4V22.667z"/>
		<path fill="#373F3F" d="M16,9.083v4.792c-2.898,0-5.781,1.43-7.748,3.661c-0.545-0.983-0.949-2.085-1.13-3.301
			C8.977,11.138,12.488,9.083,16,9.083z M16,22.667v-5.292c-2.126,0-4.24,1.033-5.994,2.462C11.813,21.644,14.119,22.667,16,22.667z
			 M10.431,7.966c0.254,0.666,1.349,0.868,2.446,0.449c1.096-0.418,1.779-1.298,1.525-1.964s-1.349-0.868-2.446-0.449
			S10.177,7.299,10.431,7.966z"/>
		<path fill="#2B3332" d="M24.878,14.235c-0.182,1.216-0.585,2.318-1.13,3.301c-1.967-2.23-4.849-3.661-7.748-3.661V9.083
			C19.512,9.083,23.023,11.138,24.878,14.235z M21.994,19.837c-1.754-1.429-3.868-2.462-5.994-2.462v5.292
			C17.881,22.667,20.187,21.644,21.994,19.837z M20.044,6.002c-1.096-0.418-2.192-0.217-2.446,0.449
			c-0.254,0.666,0.428,1.546,1.525,1.964c1.096,0.418,2.192,0.217,2.446-0.449S21.14,6.42,20.044,6.002z"/>
		<path fill="#9179C6" d="M10.001,18.125c-1.085-0.333-1.168-0.375-1.917-0.5c-0.375,1.917,1.229,5.312,0.229,6.396
			c-1,1.083-1.271,1.667-2.188,2.75c-0.664,0.784-1.462,2.362-1.899,3c-0.074,0.108-0.242,0.045-0.227-0.085
			C4.12,28.684,5.71,16.458,7.543,16.167c0.938-0.149,2.401,0.401,2.958,0.958C10.661,17.284,10.217,18.191,10.001,18.125z"/>
		<path fill="#E8BA67" d="M8.314,24.021c-1,1.083-1.271,1.667-2.188,2.75c-0.112,0.132-0.228,0.292-0.345,0.461
			c-0.197-0.088-0.387-0.184-0.593-0.26c-0.257-0.094-0.515-0.16-0.773-0.23c0.189-1.221,0.433-2.68,0.721-4.12
			c0.497,0.093,0.996,0.228,1.494,0.41c0.637,0.233,1.224,0.531,1.764,0.872C8.368,23.943,8.346,23.986,8.314,24.021z M6.834,16.854
			c-0.436,0.756-0.846,2.061-1.213,3.563c1.117,0.27,2.123,0.747,2.927,1.396c-0.211-1.376-0.677-3.017-0.469-4.155
			C7.704,17.354,7.289,17.081,6.834,16.854z"/>
		<path fill="#F0C877" d="M11.375,21.25c-0.751-0.489-2.11-1.42-3.042-1.208c-1.499,0.34-0.957,3.489-1.957,4.572
			s-2.25,1.417-3.167,2.5c-0.664,0.784-1.546,2.049-1.982,2.688c-0.074,0.108-0.222,0.046-0.227-0.085
			c-0.043-1.175-0.177-3.448,1.542-6.186c2.25-3.583,4.624-5.155,5.75-5.25c0.673-0.056,3.395,1.155,4.124,1.803
			C12.792,20.417,11.564,21.373,11.375,21.25z"/>
		<path fill="#E85160" d="M16,30c-0.5,0-6-1.417-6-6c0-1.667,1.5-5,6-5V30z"/>
		<path fill="#F7F7F7" d="M16,16.75c-0.641,0-1.75,4.833-1.833,5.167c-0.083,0.333,1.457,0.708,1.833,0.708V16.75z"/>
		<path fill="#F0C877" d="M13.632,11.96c0.042-0.208-1.361-1.208-2.667-0.625c-0.403-1.208-3.262-9.88-9.5-11.25
			c-5.722-1.256,7.058,11.779,8.542,13.277c0.086,0.087,0.212,0.107,0.325,0.057L13.632,11.96z"/>
		<path fill="#9D85D3" d="M6.153,24.831c-0.958,0.911-2.093,1.278-2.943,2.283c-0.12,0.142-0.248,0.303-0.379,0.47
			c-0.113-0.067-0.216-0.143-0.333-0.206c-0.428-0.229-0.865-0.408-1.303-0.562c0.204-0.972,0.59-2.079,1.348-3.285
			c0.116-0.185,0.233-0.341,0.349-0.516c0.533,0.169,1.065,0.386,1.585,0.664C5.096,24.009,5.653,24.401,6.153,24.831z
			 M4.661,20.746c0.126,0.06,0.254,0.106,0.379,0.173c0.787,0.421,1.47,0.941,2.06,1.516c0.19-1.108,0.385-2.201,1.233-2.393
			c0.673-0.153,1.567,0.291,2.295,0.733c-0.746-0.822-1.382-1.61-1.923-2.446c-0.176-0.059-0.331-0.056-0.413-0.049
			C7.522,18.345,6.162,19.124,4.661,20.746z M4.954,1.794C3.733,2.307,2.631,3.04,1.681,3.934C3,5.758,4.881,7.912,6.537,9.716
			c0.824-0.873,1.784-1.613,2.853-2.18C8.406,5.591,6.944,3.346,4.954,1.794z"/>
		<path fill="#E3E5E5" d="M14.45,29.287c-0.019,0.404-0.135,1.103-0.135,1.103s0.468,0.817,0.871,1.407
			c0.058,0.084-0.004,0.197-0.107,0.195c-0.851-0.022-1.948-0.171-2.625-0.752c-0.744-0.638-1.577-2.331-0.838-3.287
			C12.325,27.037,14.491,28.412,14.45,29.287z"/>
		<path fill="#866EBA" d="M21.999,18.125c1.085-0.333,1.168-0.375,1.917-0.5c0.375,1.917-1.229,5.312-0.229,6.396
			c1,1.083,1.271,1.667,2.188,2.75c0.664,0.784,1.462,2.362,1.899,3c0.074,0.108,0.242,0.045,0.227-0.085
			c-0.119-1.002-1.709-13.228-3.542-13.519c-0.938-0.149-2.401,0.401-2.958,0.958C21.339,17.284,21.783,18.191,21.999,18.125z"/>
		<path fill="#DDAA5F" d="M23.606,23.904c0.54-0.341,1.127-0.639,1.764-0.872c0.497-0.182,0.997-0.317,1.494-0.41
			c0.288,1.44,0.533,2.899,0.721,4.12c-0.258,0.07-0.515,0.135-0.773,0.23c-0.207,0.076-0.397,0.172-0.593,0.26
			c-0.117-0.169-0.233-0.329-0.345-0.461c-0.917-1.083-1.188-1.667-2.188-2.75C23.654,23.986,23.632,23.943,23.606,23.904z"/>
		<path fill="#DDAA5F" d="M25.166,16.854c0.436,0.756,0.846,2.061,1.213,3.563c-1.117,0.27-2.123,0.747-2.927,1.396
			c0.211-1.376,0.677-3.017,0.469-4.155C24.296,17.354,24.711,17.081,25.166,16.854z"/>
		<path fill="#E8BA67" d="M20.625,21.25c0.751-0.489,2.11-1.42,3.042-1.208c1.499,0.34,0.957,3.489,1.957,4.572
			s2.25,1.417,3.167,2.5c0.664,0.784,1.546,2.049,1.982,2.688c0.074,0.108,0.222,0.046,0.227-0.085
			c0.043-1.175,0.177-3.448-1.542-6.186c-2.25-3.583-4.624-5.155-5.75-5.25c-0.673-0.056-3.395,1.155-4.124,1.803
			C19.208,20.417,20.436,21.373,20.625,21.25z"/>
		<path fill="#D84459" d="M16,30c0.5,0,6-1.417,6-6c0-1.667-1.5-5-6-5V30z"/>
		<path fill="#EDEEEE" d="M16,16.75c0.641,0,1.75,4.833,1.833,5.167c0.083,0.333-1.457,0.708-1.833,0.708V16.75z"/>
		<path fill="#9179C6" d="M27.523,23.679c0.52-0.278,1.051-0.495,1.585-0.664c0.116,0.174,0.233,0.331,0.349,0.516
			c0.757,1.206,1.143,2.314,1.348,3.285c-0.438,0.154-0.874,0.333-1.303,0.562c-0.117,0.063-0.22,0.139-0.333,0.206
			c-0.13-0.167-0.259-0.328-0.379-0.47c-0.85-1.005-1.985-1.372-2.943-2.283C26.347,24.401,26.904,24.009,27.523,23.679z"/>
		<path fill="#9179C6" d="M27.339,20.746c-0.126,0.06-0.254,0.106-0.379,0.173c-0.787,0.421-1.47,0.941-2.06,1.516
			c-0.19-1.108-0.385-2.201-1.233-2.393c-0.673-0.153-1.567,0.291-2.295,0.733c0.746-0.822,1.382-1.61,1.923-2.446
			c0.176-0.059,0.331-0.056,0.413-0.049C24.478,18.345,25.838,19.124,27.339,20.746z"/>
		<g>
			<path fill="#E8BA67" d="M18.368,11.96c-0.042-0.208,1.361-1.208,2.667-0.625c0.403-1.208,3.262-9.88,9.5-11.25
				c5.722-1.256-7.058,11.779-8.542,13.277c-0.086,0.087-0.212,0.107-0.325,0.057L18.368,11.96z"/>
			<path fill="#9179C6" d="M27.046,1.794c1.221,0.513,2.323,1.247,3.273,2.141c-1.319,1.823-3.2,3.978-4.856,5.782
				c-0.824-0.873-1.784-1.613-2.853-2.18C23.594,5.591,25.056,3.346,27.046,1.794z"/>
		</g>
		<path fill="#DADDDC" d="M20.384,27.954c0.739,0.956-0.094,2.649-0.838,3.287c-0.677,0.58-1.773,0.729-2.625,0.752
			c-0.102,0.003-0.164-0.11-0.107-0.195c0.403-0.591,0.871-1.407,0.871-1.407s-0.116-0.699-0.135-1.103
			C17.509,28.412,19.675,27.037,20.384,27.954z"/>
		<g>
			<path fill="#9D85D3" d="M11.931,21.825c1.843-0.579,2.479,3.272,2.517,3.597s-0.879,1.126-1.186,1.202s-1.581-0.174-1.937-0.649
				C10.923,25.439,10.844,22.167,11.931,21.825z"/>
			<path fill="#373F3F" d="M12.222,22.999c1.091-0.276,1.444,1.906,1.466,2.095c0.022,0.189-0.512,0.656-0.691,0.7
				c-0.179,0.044-0.921-0.101-1.128-0.378C11.634,25.104,11.53,23.174,12.222,22.999z"/>
			
				<ellipse transform="matrix(0.9624 -0.2715 0.2715 0.9624 -5.8781 4.3808)" fill="#FFFFFF" cx="12.896" cy="23.438" rx="0.5" ry="0.75"/>
		</g>
		<path fill="#9179C6" d="M20.069,21.825c-1.843-0.579-2.479,3.272-2.517,3.597s0.879,1.126,1.186,1.202s1.581-0.174,1.937-0.649
			C21.077,25.439,21.156,22.167,20.069,21.825z"/>
		<path fill="#2B3332" d="M19.778,22.999c-1.091-0.276-1.444,1.906-1.466,2.095s0.512,0.656,0.691,0.7
			c0.179,0.044,0.921-0.101,1.128-0.378C20.366,25.104,20.47,23.174,19.778,22.999z"/>
		
			<ellipse transform="matrix(0.2715 -0.9624 0.9624 0.2715 -8.6393 35.462)" fill="#F7F7F7" cx="19.104" cy="23.438" rx="0.75" ry="0.5"/>
	</g>
</g>
</svg>
