<?xml version="1.0" encoding="utf-8"?>
<!-- Generator: Adobe Illustrator 23.0.6, SVG Export Plug-In . SVG Version: 6.00 Build 0)  -->
<svg version="1.1" xmlns="http://www.w3.org/2000/svg" xmlns:xlink="http://www.w3.org/1999/xlink" x="0px" y="0px" width="32px"
	 height="32px" viewBox="0 0 32 32" enable-background="new 0 0 32 32" xml:space="preserve">
<g id="labels">
	<g>
	</g>
</g>
<g id="icons">
	<g>
		<g>
			<path fill="#137FA0" d="M5.875,7.693c-3-2.375-5.333-2.917-5.333-2.917c1.657,1.617,2.648,4.802,2.706,9.975
				c0.001,0.103,0.041,0.194,0.096,0.273l5.294-4.458C7.814,9.523,6.869,8.48,5.875,7.693z"/>
			<path fill="#0A6F8E" d="M3.344,15.025c0.087,0.125,0.224,0.214,0.387,0.221c4.222,0.179,6.885,2.67,7.728,3.031v-3.5
				c0,0-1.158-2.105-2.82-4.211L3.344,15.025z"/>
		</g>
		<path fill="#A366AD" d="M12,16.276c-0.201,0-0.391-0.122-0.467-0.321c-0.153-0.4-2.18-3.992-4.899-6.922
			C4.152,6.361,0.396,5.226,0.358,5.214C0.093,5.136-0.058,4.857,0.021,4.593C0.099,4.329,0.38,4.177,0.642,4.255
			C0.807,4.304,4.7,5.481,7.366,8.353c2.728,2.938,4.865,6.631,5.101,7.244c0.099,0.258-0.029,0.547-0.287,0.646
			C12.12,16.266,12.06,16.276,12,16.276z"/>
		<path fill="#A366AD" d="M12,21.735c-1.205,0-8.304,0.521-10.979,5.649c-0.122,0.233,0.215,0.518,0.375,0.31
			c1.021-1.333,4.29-2.323,5.346-1.045c0.123,0.149,0.352,0.101,0.42-0.08c0.707-1.883,2.384-3.833,4.838-3.833V21.735z"/>
		<path fill="#A366AD" d="M13.062,24.606c0,0.243-0.022,1.009-0.034,1.405c-0.003,0.098,0.115,0.155,0.198,0.096l0.29-0.206
			l0.389,0.646c0.047,0.079,0.167,0.079,0.215,0.001l0.346-0.568l0.325,0.309c0.078,0.074,0.211,0.022,0.211-0.083v-1.363
			C15.002,24.842,13.062,24.332,13.062,24.606z"/>
		<path fill="#B370B9" d="M16,12.235c-2.607,0-5.5,2.536-5.5,6.5s2.75,7,5.5,7V12.235z"/>
		<path fill="#B370B9" d="M15.216,13.129c-0.725-1.08-3.256-3.748-4.899-4.743c-0.199-0.12-0.439,0.08-0.362,0.299
			c0.747,2.108,2.954,5.588,2.954,5.588L15.216,13.129z"/>
		<path fill="#DADDDC" d="M16,16.385c-0.583,0-1.956,1.285-2.41,2.364c-0.038,0.092,0.053,0.179,0.147,0.146
			c0.71-0.244,1.704-0.411,2.263-0.411V16.385z"/>
		<path fill="#FFE28A" d="M13.437,14.079c0.844,0.031,1.719,1.156,1.719,1.156s-0.719,1.125-1.562,0.594
			C12.926,15.408,13.125,14.454,13.437,14.079z"/>
		<path fill="#9A3644" d="M13.776,14.147c-0.184,0.272-0.28,0.833,0.134,1.094c0.446,0.281,0.835-0.138,0.971-0.315
			C14.623,14.659,14.215,14.297,13.776,14.147z"/>
		<g>
			<path fill="#137FA0" d="M26.125,7.693c3-2.375,5.333-2.917,5.333-2.917c-1.657,1.617-2.648,4.802-2.706,9.975
				c-0.001,0.103-0.041,0.194-0.096,0.273l-5.294-4.458C24.186,9.523,25.131,8.48,26.125,7.693z"/>
			<path fill="#0A6F8E" d="M28.656,15.025c-0.087,0.125-0.224,0.214-0.387,0.221c-4.222,0.179-6.885,2.67-7.728,3.031v-3.5
				c0,0,1.158-2.105,2.82-4.211L28.656,15.025z"/>
		</g>
		<g>
			<g>
				<path fill="#945BA0" d="M20,16.276c-0.06,0-0.12-0.011-0.18-0.033c-0.258-0.099-0.386-0.388-0.287-0.646
					c0.235-0.613,2.373-4.307,5.101-7.244c2.666-2.872,6.56-4.049,6.725-4.098c0.263-0.08,0.543,0.073,0.621,0.337
					c0.078,0.265-0.072,0.542-0.337,0.622c-0.038,0.011-3.801,1.153-6.276,3.819c-2.72,2.93-4.746,6.522-4.899,6.922
					C20.391,16.154,20.201,16.276,20,16.276z"/>
			</g>
			<g>
				<path fill="#945BA0" d="M20,16.276c-0.06,0-0.12-0.011-0.18-0.033c-0.258-0.099-0.386-0.388-0.287-0.646
					c0.235-0.613,2.373-4.307,5.101-7.244c2.666-2.872,6.56-4.049,6.725-4.098c0.263-0.08,0.543,0.073,0.621,0.337
					c0.078,0.265-0.072,0.542-0.337,0.622c-0.038,0.011-3.801,1.153-6.276,3.819c-2.72,2.93-4.746,6.522-4.899,6.922
					C20.391,16.154,20.201,16.276,20,16.276z"/>
			</g>
		</g>
		<path fill="#945BA0" d="M20,21.735c1.205,0,8.304,0.521,10.979,5.649c0.122,0.233-0.215,0.518-0.375,0.31
			c-1.021-1.333-4.29-2.323-5.346-1.045c-0.123,0.149-0.352,0.101-0.42-0.08c-0.707-1.883-2.384-3.833-4.838-3.833V21.735z"/>
		<path fill="#945BA0" d="M18.938,24.606c0,0.243,0.022,1.009,0.034,1.405c0.003,0.098-0.115,0.155-0.198,0.096l-0.29-0.206
			l-0.389,0.646c-0.047,0.079-0.167,0.079-0.215,0.001l-0.346-0.568l-0.325,0.309c-0.078,0.074-0.211,0.022-0.211-0.083v-1.363
			C16.998,24.842,18.938,24.332,18.938,24.606z"/>
		<path fill="#A366AD" d="M16,12.235c2.607,0,5.5,2.536,5.5,6.5s-2.75,7-5.5,7V12.235z"/>
		<path fill="#A366AD" d="M16.784,13.129c0.725-1.08,3.256-3.748,4.899-4.743c0.199-0.12,0.439,0.08,0.362,0.299
			c-0.747,2.108-2.954,5.588-2.954,5.588L16.784,13.129z"/>
		<path fill="#FFD96C" d="M18.562,14.079c-0.844,0.031-1.719,1.156-1.719,1.156s0.719,1.125,1.562,0.594
			C19.074,15.408,18.875,14.454,18.562,14.079z"/>
		<path fill="#8A323F" d="M18.224,14.147c0.184,0.272,0.28,0.833-0.134,1.094c-0.446,0.281-0.835-0.138-0.971-0.315
			C17.377,14.659,17.785,14.297,18.224,14.147z"/>
		<path fill="#C8CCCB" d="M16,16.385c0.583,0,1.956,1.285,2.41,2.364c0.038,0.092-0.053,0.179-0.147,0.146
			c-0.71-0.244-1.704-0.411-2.263-0.411V16.385z"/>
	</g>
</g>
</svg>
