<?xml version="1.0" encoding="utf-8"?>
<!-- Generator: Adobe Illustrator 23.0.6, SVG Export Plug-In . SVG Version: 6.00 Build 0)  -->
<svg version="1.1" xmlns="http://www.w3.org/2000/svg" xmlns:xlink="http://www.w3.org/1999/xlink" x="0px" y="0px" width="32px"
	 height="32px" viewBox="0 0 32 32" enable-background="new 0 0 32 32" xml:space="preserve">
<g id="labels">
	<g>
	</g>
</g>
<g id="icons">
	<g>
		<path fill="#9D85D3" d="M16,4.031V3.97c-0.005,0.009-0.009,0.018-0.014,0.027c-0.56-1.093-1.542-1.615-2.764-1.716
			c-1.504-0.124-2.614,1.105-3.254,2.532l0.352,0.181c0.442-0.986,1.534-1.697,2.692-1.485c1.31,0.239,2.038,1.744,1.987,3.533
			c0,1.516,0,2.994,0,4.039c-2.6,0.405-4.861,2.397-4.5,5.919c0.067,0.653,0.341,2.04,0,3c-0.224,0.629-1,1.688-1,3
			c0,3.469,2.406,6,6.5,6V11.646V11V6.708V4.031z"/>
		<path fill="#7A63AD" d="M23.863,23.862c0-0.593,0.392-2.198,1.632-4.893s3.484-5.121,4.239-5.121c0.755,0-2.131,7-0.862,8.679
			c0.47-0.048,1.582-0.411,1.582-0.411c0.303-0.079,0.52,0.287,0.306,0.515c-0.553,0.589-1.187,1.18-1.187,1.782
			c0,0.775,0.734,1.091,1.299,1.505c0.218,0.16,0.146,0.498-0.118,0.556c-0.859,0.189-2.152,0.658-2.259,1.766
			c-0.065,0.67,0.061,1.34,0.235,1.902c0.181,0.584-0.456,1.077-0.968,0.745c-0.641-0.415-1.186-1.161-1.854-2.054
			c-1.829-2.444-3.391-2.772-5.516-2.85c-1.36-0.05,1.676-3.286,1.784-3.448C22.283,22.374,23.27,23.754,23.863,23.862z"/>
		<path fill="#CBEB6B" d="M30.758,26.474c0.262-0.058,0.332-0.395,0.116-0.553c-0.566-0.415-1.301-0.731-1.301-1.507
			c0-0.603,0.634-1.193,1.187-1.782c0.214-0.229-0.003-0.594-0.306-0.516c0,0-1.111,0.363-1.582,0.411
			c-0.413,0.657-0.33,1.24-0.247,1.99c0.106,0.952,0.325,1.432-0.417,2.208c-1,1.047-4.438-1.627-7.188-0.711
			c1.917,0.25,3.167,0.583,4.887,2.819c0.685,0.891,1.222,1.651,1.869,2.064c0.509,0.325,1.132-0.178,0.953-0.755
			c-0.174-0.562-0.3-1.232-0.235-1.902C28.602,27.131,29.899,26.663,30.758,26.474z"/>
		<path fill="#E3DBF4" d="M11.5,22.265c-1.031,0-2.188,0.062-3-0.5s-1.406-1.5-2.5-1.5c-1.125,0-2,0.938-2,2
			c0,1,0.146,4.125,7.5,2.5V22.265z"/>
		<path fill="#9179C6" d="M16,21.605c-2.542,0-4.377-1.581-5.335-2.726C10.661,19.272,10.62,19.662,10.5,20
			c-0.224,0.629-1,1.688-1,3c0,3.469,2.406,6,6.5,6V21.605z"/>
		<path fill="#D4C9EF" d="M20.5,22.265c1.031,0,2.188,0.062,3-0.5s1.406-1.5,2.5-1.5c1.125,0,2,0.938,2,2c0,1-0.146,4.125-7.5,2.5
			V22.265z"/>
		<circle fill="#E6F490" cx="10.323" cy="5.123" r="1.5"/>
		<path fill="#9179C6" d="M19.75,1C17.937,1,16.5,2.625,16,3.97V11v0.646V29c4.094,0,6.5-2.531,6.5-6c0-1.312-0.776-2.371-1-3
			c-0.341-0.96-0.067-2.347,0-3c0.361-3.522-1.9-5.515-4.5-5.919V6.777c0-2.464,1.249-3.763,2.5-4.003c3.917-0.75,6,3.25,6,7.25
			h0.75C26.25,3.482,23.312,1,19.75,1z"/>
		<path fill="#866EBA" d="M16,21.605c2.625,0,4.377-1.581,5.335-2.726C21.339,19.272,21.38,19.662,21.5,20c0.224,0.629,1,1.688,1,3
			c0,3.469-2.406,6-6.5,6V21.605z"/>
		<path fill="#D9F07D" d="M18.75,13.846c-1.25,0-1.344,0.856-2.75,0.856s-1.5-0.856-2.75-0.856c-1.105,0-2,0.985-2,2.2
			s0.86,1.795,1.656,2.094c0.191,0.072,0.373,0.119,0.555,0.166c0.472,0.591,1.391,1.319,2.539,1.319s2.067-0.729,2.539-1.319
			c0.182-0.047,0.364-0.094,0.555-0.166c0.796-0.298,1.656-0.879,1.656-2.094S19.855,13.846,18.75,13.846z"/>
		<path fill="#F7F7F7" d="M19.762,16.84c-0.36,0.54-2.407,0.562-2.7,0.135c-0.198-0.289,0.562-2.34,1.71-2.272
			C19.92,14.77,20.022,16.45,19.762,16.84z"/>
		<path fill="#C84054" d="M17.062,16.975c-0.156-0.228,0.288-1.555,1.047-2.069c0.674,0.471,0.758,1.831,0.586,2.338
			C18.01,17.317,17.234,17.226,17.062,16.975z"/>
		<ellipse fill="#2B3332" cx="17.871" cy="16.353" rx="0.371" ry="0.71"/>
		<ellipse fill="#F7F7F7" cx="18.047" cy="15.796" rx="0.281" ry="0.359"/>
		<circle fill="#D9F07D" cx="25.688" cy="9.958" r="2"/>
		<path fill="#E6F490" d="M13.25,13.846c-1.105,0-2,0.985-2,2.2s0.86,1.795,1.656,2.094c0.191,0.072,0.373,0.119,0.555,0.166
			c0.472,0.591,1.391,1.319,2.539,1.319v-1.11v-0.106v-3.707C14.594,14.702,14.5,13.846,13.25,13.846z"/>
		<path fill="#FFFFFF" d="M13.228,14.702c1.147-0.067,1.907,1.983,1.71,2.272c-0.292,0.427-2.34,0.405-2.7-0.135
			C11.978,16.45,12.08,14.77,13.228,14.702z"/>
		<path fill="#D84459" d="M14.938,16.975c0.156-0.228-0.288-1.555-1.047-2.069c-0.674,0.471-0.758,1.831-0.586,2.338
			C13.99,17.317,14.766,17.226,14.938,16.975z"/>
		<ellipse fill="#373F3F" cx="14.129" cy="16.353" rx="0.371" ry="0.71"/>
		<ellipse fill="#FFFFFF" cx="13.953" cy="15.796" rx="0.281" ry="0.359"/>
	</g>
</g>
</svg>
