<?xml version="1.0" encoding="utf-8"?>
<!-- Generator: Adobe Illustrator 23.0.6, SVG Export Plug-In . SVG Version: 6.00 Build 0)  -->
<svg version="1.1" xmlns="http://www.w3.org/2000/svg" xmlns:xlink="http://www.w3.org/1999/xlink" x="0px" y="0px" width="32px"
	 height="32px" viewBox="0 0 32 32" enable-background="new 0 0 32 32" xml:space="preserve">
<g id="labels">
	<g>
	</g>
</g>
<g id="icons">
	<g>
		
			<ellipse transform="matrix(0.4811 -0.8766 0.8766 0.4811 -13.2294 35.6481)" fill="#E2A1C8" cx="23.5" cy="29" rx="2.757" ry="3.694"/>
		
			<ellipse transform="matrix(0.8766 -0.4811 0.4811 0.8766 -12.9045 7.667)" fill="#EAB5D7" cx="8.5" cy="29" rx="3.694" ry="2.757"/>
		<path fill="#EAC3DE" d="M23.115,7.127C23.661,6.583,24,5.832,24,5c0-1.657-1.343-3-3-3c-0.496,0-0.956,0.132-1.368,0.344
			C19.002,0.964,17.617,0,16,0v5v3v23c7.18,0,13-5.82,13-13C29,13.448,26.657,9.449,23.115,7.127z"/>
		<path fill="#EDD1E6" d="M12.368,2.344C11.956,2.132,11.496,2,11,2C9.343,2,8,3.343,8,5c0,0.832,0.339,1.583,0.885,2.127
			C5.343,9.449,3,13.448,3,18c0,7.18,5.82,13,13,13V8V5V0C14.383,0,12.998,0.964,12.368,2.344z"/>
		<circle fill="#F3586F" cx="10" cy="16" r="3"/>
		<circle fill="#E85160" cx="22" cy="16" r="3"/>
		<circle fill="#373F3F" cx="10" cy="16" r="2"/>
		<circle fill="#FFFFFF" cx="9" cy="15" r="1"/>
		<circle fill="#2B3332" cx="22" cy="16" r="2"/>
		<circle fill="#F7F7F7" cx="21" cy="15" r="1"/>
		<path fill="#E85160" d="M16,20h-1.123c-0.219,0-0.387,0.163-0.376,0.356C14.538,21.011,14.754,22,16,22V20z"/>
		<path fill="#D84459" d="M17.123,20H16v2c1.246,0,1.462-0.989,1.499-1.644C17.511,20.163,17.342,20,17.123,20z"/>
		<path fill="#EAB5D7" d="M16,27v4c7.111,0,12.88-5.711,12.99-12.796C26.923,23.357,21.891,27,16,27z"/>
		<path fill="#EAC3DE" d="M3.01,18.204C3.12,25.289,8.889,31,16,31v-4C10.109,27,5.077,23.357,3.01,18.204z"/>
		<path fill="#EDD1E6" d="M5,15c0,0-5,0-5,2s5,3,5,3V15z"/>
		<path fill="#EAC3DE" d="M27,15c0,0,5,0,5,2s-5,3-5,3V15z"/>
		<path fill="#373F3F" d="M16,9.025v0.525c-0.427,0.114-0.75,0.487-0.75,0.949v0.25c0,0.414,0.336,0.75,0.75,0.75V12
			c-0.689,0-1.25-0.561-1.25-1.25V10.5C14.75,9.758,15.292,9.145,16,9.025z M16,12.5c-0.965,0-1.75-0.785-1.75-1.75V10.5
			c0-1.017,0.766-1.85,1.75-1.975v-0.5c-1.26,0.128-2.25,1.182-2.25,2.475v0.25c0,1.241,1.009,2.25,2.25,2.25V12.5z"/>
		<path fill="#2B3332" d="M18.25,10.75V11c0,1.103-0.897,2-2,2H16v-0.5h0.25c0.827,0,1.5-0.673,1.5-1.5v-0.25
			c0-0.689-0.561-1.25-1.25-1.25h-0.25c-0.089,0-0.168,0.029-0.25,0.051V9.025C16.082,9.011,16.164,9,16.25,9h0.25
			C17.465,9,18.25,9.785,18.25,10.75z M16.5,8.25C16.5,8.112,16.388,8,16.25,8C16.164,8,16.083,8.017,16,8.025v0.5
			c0.083-0.01,0.164-0.025,0.25-0.025C16.388,8.5,16.5,8.388,16.5,8.25z M16.25,11.5H16V12h0.25c0.551,0,1-0.449,1-1v-0.25
			c0-0.414-0.336-0.75-0.75-0.75c-0.138,0-0.25,0.112-0.25,0.25s0.112,0.25,0.25,0.25c0.138,0,0.25,0.112,0.25,0.25V11
			C16.75,11.276,16.526,11.5,16.25,11.5z"/>
	</g>
</g>
</svg>
