<?xml version="1.0" encoding="utf-8"?>
<!-- Generator: Adobe Illustrator 23.0.6, SVG Export Plug-In . SVG Version: 6.00 Build 0)  -->
<svg version="1.1" xmlns="http://www.w3.org/2000/svg" xmlns:xlink="http://www.w3.org/1999/xlink" x="0px" y="0px" width="32px"
	 height="32px" viewBox="0 0 32 32" enable-background="new 0 0 32 32" xml:space="preserve">
<g id="labels">
	<g>
	</g>
</g>
<g id="icons">
	<g>
		<path fill="#FFEAA7" d="M16-0.001c-0.296,0-0.593,0.131-0.794,0.392c-1.007,1.31-2.716,3.683-3.614,5.751
			c-1.805-1.297-4.372-2.45-5.859-3.065c-0.609-0.252-1.291,0.14-1.377,0.794c-0.216,1.635-0.51,4.535-0.255,6.769
			c0.165,1.444,0.016,2.893-0.442,4.272c-0.453,1.363-0.686,2.827-0.656,4.349C3.141,26.263,9.044,31.973,16,31.984V-0.001z"/>
		<path fill="#FFE28A" d="M16.439,31.993C23.415,31.761,29,26.033,29,19c0-1.477-0.248-2.896-0.703-4.219
			c-0.457-1.328-0.559-2.738-0.399-4.134c0.256-2.236-0.038-5.14-0.255-6.777c-0.087-0.654-0.768-1.046-1.377-0.794
			c-1.487,0.615-4.054,1.767-5.859,3.065c-0.898-2.068-2.607-4.44-3.614-5.751C16.593,0.13,16.296-0.001,16-0.001v31.985
			C16.147,31.985,16.291,31.998,16.439,31.993z"/>
		<ellipse transform="matrix(0.9513 -0.3082 0.3082 0.9513 -8.655 4.2106)" fill="#FFE28A" cx="9" cy="29.5" rx="4.139" ry="2.26"/>
		
			<ellipse transform="matrix(0.3082 -0.9513 0.9513 0.3082 -12.1532 42.2869)" fill="#FFD96C" cx="23" cy="29.5" rx="2.26" ry="4.139"/>
		<ellipse fill="#8D5B36" cx="12" cy="11" rx="1" ry="2"/>
		<ellipse fill="#845331" cx="20" cy="11" rx="1" ry="2"/>
		<path fill="#373F3F" d="M11.03,10.533c0.075,0.637,0.471,1.134,0.97,1.134c0.499,0,0.895-0.496,0.97-1.134
			c-0.087-0.723-0.369-1.29-0.729-1.468C12.161,9.038,12.085,9,12,9c-0.085,0-0.161,0.038-0.24,0.065
			C11.399,9.244,11.117,9.81,11.03,10.533z"/>
		<path fill="#2B3332" d="M19.03,10.533c0.075,0.637,0.471,1.134,0.97,1.134c0.499,0,0.895-0.496,0.97-1.134
			c-0.087-0.723-0.369-1.289-0.729-1.468C20.161,9.038,20.085,9,20,9c-0.085,0-0.161,0.038-0.24,0.065
			C19.399,9.243,19.117,9.81,19.03,10.533z"/>
		<circle fill="#FFFFFF" cx="12" cy="10.031" r="0.5"/>
		<circle fill="#F7F7F7" cx="20" cy="10.031" r="0.5"/>
		<path fill="#E85160" d="M16,12h-1.155c-0.172,0-0.293,0.167-0.237,0.33c0.234,0.679,0.813,2.17,1.392,2.17V12z"/>
		<path fill="#D84459" d="M17.155,12H16v2.5c0.579,0,1.159-1.491,1.392-2.17C17.448,12.167,17.327,12,17.155,12z"/>
		<path fill="#F7F7F7" d="M16,15.207c-0.128,0-0.256,0.049-0.354,0.146l-1.293,1.293c-0.195,0.195-0.512,0.195-0.707,0l-1.293-1.293
			c-0.195-0.195-0.512-0.195-0.707,0l-2.293,2.293c-0.195,0.195-0.512,0.195-0.707,0l-2.293-2.293c-0.195-0.195-0.512-0.195-0.707,0
			l-2.593,2.593C3.025,18.295,3,18.644,3,19c0,7.18,5.82,13,13,13V15.207z"/>
		<path fill="#EDEEEE" d="M29,19c0-0.356-0.025-0.705-0.053-1.053l-2.593-2.593c-0.195-0.195-0.512-0.195-0.707,0l-2.293,2.293
			c-0.195,0.195-0.512,0.195-0.707,0l-2.293-2.293c-0.195-0.195-0.512-0.195-0.707,0l-1.293,1.293c-0.195,0.195-0.512,0.195-0.707,0
			l-1.293-1.293c-0.098-0.098-0.226-0.146-0.354-0.146V32C23.18,32,29,26.18,29,19z"/>
		<path fill="#D84459" d="M22,23.75c-0.192,0-0.384-0.073-0.53-0.22l-2-2c-0.293-0.293-0.293-0.768,0-1.061l2-2
			c0.293-0.293,0.768-0.293,1.061,0l2,2c0.293,0.293,0.293,0.768,0,1.061l-2,2C22.384,23.677,22.192,23.75,22,23.75z M21.061,21
			L22,21.939L22.939,21L22,20.061L21.061,21z"/>
		<path fill="#E85160" d="M7.624,20.584l1.599-1.066C9.555,19.297,10,19.535,10,19.934v2.131c0,0.399-0.445,0.638-0.777,0.416
			l-1.599-1.066C7.327,21.218,7.327,20.782,7.624,20.584z"/>
		<path fill="#FFEAA7" d="M5.2,16.672c0.424,0.123,0.783,0.385,1.036,0.743c0.498,0.706,1.134,1.972,0.495,3.238
			c-0.081,0.16-0.162,0.307-0.242,0.442c-0.61,1.02-2.025,1.207-2.916,0.414C2.148,20.241,0,18.118,0,16.846
			C0,15.313,3.744,16.25,5.2,16.672z"/>
		<path fill="#FFE28A" d="M26.8,16.672c-0.424,0.123-0.783,0.385-1.036,0.743c-0.498,0.706-1.134,1.972-0.495,3.238
			c0.081,0.16,0.162,0.307,0.242,0.442c0.61,1.02,2.025,1.207,2.916,0.414C29.852,20.241,32,18.118,32,16.846
			C32,15.313,28.256,16.25,26.8,16.672z"/>
		<path fill="#5CA3D5" d="M16,26.457l-0.501,0.601l-1.091-2.91L16,24.546V23l-3.076-0.769c-0.042-0.011-0.084-0.016-0.124-0.016
			c-0.334,0-0.591,0.34-0.465,0.676l2.364,6.303c0.079,0.21,0.273,0.325,0.47,0.325c0.14,0,0.281-0.058,0.383-0.18L16,28.8V26.457z"
			/>
		<path fill="#529CCF" d="M19.227,23.807L16,23v1.546l1.318,0.329L16,26.457V28.8l3.49-4.188
			C19.726,24.329,19.585,23.896,19.227,23.807z"/>
		<path fill="#529CCF" d="M24.25,29.046c0.541-0.445,1.037-0.941,1.5-1.467V25c0-0.303-0.183-0.577-0.463-0.693
			c-0.279-0.117-0.603-0.052-0.817,0.163l-4,4c-0.17,0.17-0.249,0.413-0.21,0.65s0.189,0.443,0.405,0.551l1.526,0.763
			c0.513-0.279,0.997-0.602,1.466-0.944l-1.39-0.695l1.984-1.984V29.046z"/>
		<path fill="#E85160" d="M9.357,30.16l0.978-0.489c0.216-0.108,0.366-0.313,0.405-0.551s-0.04-0.48-0.21-0.65l-4-4
			c-0.17-0.17-0.414-0.247-0.65-0.21c-0.238,0.039-0.443,0.189-0.551,0.405L4.84,25.643c0.294,0.493,0.615,0.967,0.97,1.414
			l0.396-0.791l2.528,2.528L7.943,29.19C8.391,29.545,8.864,29.866,9.357,30.16z"/>
	</g>
</g>
</svg>
