<?xml version="1.0" encoding="utf-8"?>
<!-- Generator: Adobe Illustrator 23.0.6, SVG Export Plug-In . SVG Version: 6.00 Build 0)  -->
<svg version="1.1" xmlns="http://www.w3.org/2000/svg" xmlns:xlink="http://www.w3.org/1999/xlink" x="0px" y="0px" width="32px"
	 height="32px" viewBox="0 0 32 32" enable-background="new 0 0 32 32" xml:space="preserve">
<g id="labels">
	<g>
	</g>
</g>
<g id="icons">
	<g>
		<path fill="#EDEEEE" d="M19,22c0,0-0.062-9.634,9.453-9.99c0.296-0.011,0.542,0.246,0.518,0.54C28.797,14.645,27.576,22,19,22z"/>
		<path fill="#DADDDC" d="M28.749,14.062c-6.116,0.553-7.958,5.13-8.51,7.877C26.322,21.387,28.183,16.809,28.749,14.062z"/>
		<path fill="#F7F7F7" d="M13,22c0,0,0.062-9.634-9.453-9.99c-0.296-0.011-0.542,0.246-0.518,0.54C3.203,14.645,4.424,22,13,22z"/>
		<path fill="#E3E5E5" d="M3.251,14.062c6.116,0.553,7.958,5.13,8.51,7.877C5.678,21.387,3.817,16.809,3.251,14.062z"/>
		<path fill="#EDEEEE" d="M16,12h-2v3.266c0,1.601-0.764,3.109-2.066,4.039c-2.108,1.506-3.345,4.151-2.809,7.038
			c0.512,2.754,2.718,4.984,5.468,5.52C15.07,31.956,15.539,31.99,16,31.99V12z"/>
		<path fill="#E3E5E5" d="M16,12h2v3.266c0,1.601,0.764,3.109,2.066,4.039c2.108,1.506,3.345,4.151,2.809,7.038
			c-0.512,2.754-2.718,4.984-5.468,5.52C16.93,31.956,16.461,31.99,16,31.99V12z"/>
		<path fill="#F7F7F7" d="M16.002,0c-0.137,0-0.274,0.06-0.366,0.181c-0.465,0.605-1.254,1.7-1.668,2.654
			c-0.827-0.595-2.001-1.123-2.69-1.408c-0.295-0.122-0.622,0.06-0.679,0.375c-0.195,1.075-0.571,3.487-0.596,6.327
			c-0.034,3.809,2.788,5.867,5.999,5.872V0z"/>
		<path fill="#EDEEEE" d="M16.002,0c0.137,0,0.274,0.06,0.366,0.181c0.465,0.605,1.254,1.7,1.668,2.654
			c0.827-0.595,2.001-1.123,2.69-1.408c0.295-0.122,0.622,0.06,0.679,0.375c0.195,1.075,0.571,3.487,0.596,6.327
			c0.034,3.809-2.788,5.867-5.999,5.872V0z"/>
		<ellipse fill="#8D5B36" cx="13" cy="8" rx="1" ry="2"/>
		<ellipse fill="#845331" cx="19" cy="8" rx="1" ry="2"/>
		<path fill="#373F3F" d="M12.03,7.533C12.105,8.17,12.501,8.667,13,8.667c0.499,0,0.895-0.496,0.97-1.134
			c-0.087-0.723-0.369-1.29-0.729-1.468C13.161,6.038,13.085,6,13,6c-0.085,0-0.161,0.038-0.24,0.065
			C12.399,6.244,12.117,6.81,12.03,7.533z"/>
		<path fill="#2B3332" d="M18.03,7.533C18.105,8.17,18.501,8.667,19,8.667c0.499,0,0.895-0.496,0.97-1.134
			c-0.087-0.723-0.369-1.289-0.729-1.468C19.161,6.038,19.085,6,19,6c-0.085,0-0.161,0.038-0.24,0.065
			C18.399,6.243,18.117,6.81,18.03,7.533z"/>
		<circle fill="#FFFFFF" cx="13" cy="7.031" r="0.5"/>
		<circle fill="#F7F7F7" cx="19" cy="7.031" r="0.5"/>
		
			<ellipse transform="matrix(0.707 -0.7072 0.7072 0.707 -17.78 16.0675)" fill="#F7F7F7" cx="10.5" cy="29.49" rx="1.771" ry="3.059"/>
		<path fill="#F7F7F7" d="M10.6,20.836c0.212,0.061,0.392,0.192,0.518,0.372c0.249,0.353,0.567,0.986,0.247,1.619
			c-0.041,0.08-0.081,0.154-0.121,0.221c-0.305,0.51-1.013,0.603-1.458,0.207C9.074,22.621,8,21.559,8,20.923
			C8,20.156,9.872,20.625,10.6,20.836z"/>
		<path fill="#EDEEEE" d="M21.4,20.836c-0.212,0.061-0.392,0.192-0.518,0.372c-0.249,0.353-0.567,0.986-0.247,1.619
			c0.041,0.08,0.081,0.154,0.121,0.221c0.305,0.51,1.013,0.603,1.458,0.207C22.926,22.621,24,21.559,24,20.923
			C24,20.156,22.128,20.625,21.4,20.836z"/>
		
			<ellipse transform="matrix(0.7072 -0.707 0.707 0.7072 -14.5545 23.8334)" fill="#EDEEEE" cx="21.5" cy="29.49" rx="3.059" ry="1.771"/>
		<path fill="#D84459" d="M18.573,26.074l-0.843,0.843c-0.359,0.359-0.261,0.964,0.193,1.192l0,0C18.418,28.356,19,27.996,19,27.443
			v-1.193C19,26.028,18.731,25.916,18.573,26.074z"/>
		<path fill="#E85160" d="M13.055,25.379l-0.384,0.878l-0.659-0.659L13.055,25.379z M13.906,24.189c-0.035,0-0.07,0.004-0.106,0.011
			l-2.896,0.61c-0.389,0.082-0.531,0.562-0.251,0.843l1.829,1.829c0.1,0.1,0.227,0.147,0.352,0.147c0.189,0,0.375-0.106,0.459-0.3
			l1.067-2.439C14.509,24.551,14.253,24.189,13.906,24.189L13.906,24.189z"/>
		<path fill="#5CA3D5" d="M16,21.211l-0.086-0.018c-0.036-0.008-0.071-0.011-0.106-0.011c-0.341,0-0.596,0.35-0.461,0.686L16,23.5
			V21.211z"/>
		<path fill="#529CCF" d="M19.016,21.845L16,21.211V23.5l0.653,1.633c0.082,0.206,0.273,0.314,0.466,0.314
			c0.154,0,0.31-0.07,0.411-0.217l1.796-2.612C19.527,22.324,19.365,21.919,19.016,21.845z M17.235,23.894l-0.612-1.53l1.454,0.306
			L17.235,23.894z"/>
		<path fill="#E85160" d="M16.002,11h-1.495c-0.214,0-0.328,0.249-0.191,0.412C14.689,11.856,15.345,12.5,16,12.5
			c0.001,0,0.001,0,0.002,0V11z"/>
		<path fill="#D84459" d="M17.494,11h-1.492v1.5c0.655-0.001,1.309-0.644,1.683-1.088C17.822,11.249,17.707,11,17.494,11z"/>
	</g>
</g>
</svg>
