<?xml version="1.0" encoding="utf-8"?>
<!-- Generator: Adobe Illustrator 23.0.6, SVG Export Plug-In . SVG Version: 6.00 Build 0)  -->
<svg version="1.1" xmlns="http://www.w3.org/2000/svg" xmlns:xlink="http://www.w3.org/1999/xlink" x="0px" y="0px" width="32px"
	 height="32px" viewBox="0 0 32 32" enable-background="new 0 0 32 32" xml:space="preserve">
<g id="labels">
	<g>
	</g>
</g>
<g id="icons">
	<g>
		<path fill="#B93D4F" d="M11,21l-2.722,4.537c-0.15,0.25-0.055,0.574,0.205,0.704L12,28l2-6L11,21z"/>
		<path fill="#A93949" d="M21,21l2.722,4.537c0.15,0.25,0.055,0.574-0.205,0.704L20,28l-2-6L21,21z"/>
		<path fill="#C84054" d="M16,23h-3l-1.781,5.342C11.111,28.666,11.352,29,11.694,29H16V23z"/>
		<path fill="#B93D4F" d="M16,29h4.306c0.341,0,0.582-0.334,0.474-0.658L19,23h-3V29z"/>
		<path fill="#EDEEEE" d="M23,30.667l1.582,0.264C24.823,30.971,25,31.179,25,31.424V31.5c0,0.276-0.224,0.5-0.5,0.5H23V30.667z"/>
		<path fill="#F7F7F7" d="M9,30.667L7.418,30.93C7.177,30.971,7,31.179,7,31.424V31.5C7,31.776,7.224,32,7.5,32H9V30.667z"/>
		<path fill="#E85160" d="M16,0h-0.414c-0.481,0-0.893,0.342-0.983,0.814l-0.138,0.729c-0.306,1.613-0.209,3.277,0.281,4.844
			L15.25,8H16V0z"/>
		<path fill="#D84459" d="M17.397,0.814C17.307,0.342,16.895,0,16.414,0H16v8h0.75l0.504-1.613c0.49-1.567,0.586-3.231,0.281-4.844
			L17.397,0.814z"/>
		<path fill="#D84459" d="M19,30v-5h-2v5v1v0.5c0,0.276,0.224,0.5,0.5,0.5H23v-1.333L19,30z"/>
		<path fill="#E85160" d="M13,25v5l-4,0.667V32h5.5c0.276,0,0.5-0.224,0.5-0.5V31v-1v-5H13z"/>
		<path fill="#AADB3D" d="M16,7C9.925,7,5,10.925,5,17s4.925,10,11,10V7z"/>
		<path fill="#A2D336" d="M27,17c0-6.075-4.925-10-11-10v20C22.075,27,27,23.075,27,17z"/>
		<path fill="#9ACC2E" d="M16,23v4c6.075,0,11-3.925,11-10c0-0.109-0.013-0.213-0.016-0.321C25.126,20.626,20.91,23,16,23z"/>
		<path fill="#A2D336" d="M5.016,16.679C5.013,16.787,5,16.891,5,17c0,6.075,4.925,10,11,10v-4C11.09,23,6.874,20.626,5.016,16.679z
			"/>
		<path fill="#FFFFFF" d="M12.819,13.317c0.106,0.101,0.106,0.265,0,0.366C12.399,14.083,11.295,15,10,15s-2.399-0.917-2.819-1.317
			c-0.106-0.101-0.106-0.265,0-0.366C7.601,12.917,8.705,12,10,12S12.399,12.917,12.819,13.317z"/>
		<path fill="#F7F7F7" d="M24.819,13.317c0.106,0.101,0.106,0.265,0,0.366C24.399,14.083,23.295,15,22,15s-2.399-0.917-2.819-1.317
			c-0.106-0.101-0.106-0.265,0-0.366C19.601,12.917,20.705,12,22,12S24.399,12.917,24.819,13.317z"/>
		<path fill="#373F3F" d="M8.677,12.308C8.568,12.516,8.5,12.749,8.5,13c0,0.828,0.672,1.5,1.5,1.5s1.5-0.672,1.5-1.5
			c0-0.251-0.068-0.484-0.177-0.692C10.923,12.13,10.477,12,10,12S9.077,12.13,8.677,12.308z"/>
		<path fill="#2B3332" d="M20.677,12.308C20.568,12.516,20.5,12.749,20.5,13c0,0.828,0.672,1.5,1.5,1.5s1.5-0.672,1.5-1.5
			c0-0.251-0.068-0.484-0.177-0.692C22.923,12.13,22.477,12,22,12S21.077,12.13,20.677,12.308z"/>
		<g>
			<ellipse transform="matrix(0.9659 -0.2588 0.2588 0.9659 -4.966 2.2795)" fill="#FFE28A" cx="6.174" cy="20" rx="3" ry="5"/>
			<path fill="#E85160" d="M3.277,20.776c0.715,2.667,2.591,4.482,4.192,4.053L4.88,15.17C3.28,15.599,2.562,18.109,3.277,20.776z"
				/>
			<path fill="#373F3F" d="M3.594,21.727c0.28,0.695,0.645,1.293,1.052,1.789l1.339-0.359l0.438,1.636
				c0.352,0.098,0.705,0.128,1.045,0.037s0.631-0.293,0.887-0.555l-2.43-9.068c-0.352-0.098-0.705-0.128-1.045-0.037
				s-0.631,0.293-0.887,0.555l0.438,1.636L3.093,17.72c-0.105,0.633-0.122,1.333-0.017,2.075l1.873-0.502l0.518,1.932L3.594,21.727z
				"/>
		</g>
		<g>
			<ellipse transform="matrix(0.2588 -0.9659 0.9659 0.2588 -0.1771 39.7692)" fill="#FFD96C" cx="25.826" cy="20" rx="5" ry="3"/>
			<path fill="#D84459" d="M28.723,20.776c-0.715,2.667-2.591,4.482-4.192,4.053l2.588-9.659
				C28.72,15.599,29.438,18.109,28.723,20.776z"/>
			<path fill="#2B3332" d="M28.406,21.727c-0.28,0.695-0.645,1.293-1.052,1.789l-1.339-0.359l-0.438,1.636
				c-0.352,0.098-0.705,0.128-1.045,0.037s-0.631-0.293-0.887-0.555l2.43-9.068c0.352-0.098,0.705-0.128,1.045-0.037
				s0.631,0.293,0.887,0.555l-0.438,1.636l1.339,0.359c0.105,0.633,0.122,1.333,0.017,2.075l-1.873-0.502l-0.518,1.932
				L28.406,21.727z"/>
		</g>
		<path fill="#FFE28A" d="M16,15c-2,0-4,0.343-4,2c0,1.352,2.665,2.496,3.645,2.87c0.116,0.044,0.236,0.067,0.355,0.067V15z"/>
		<path fill="#FFD96C" d="M16.355,19.87C17.335,19.496,20,18.352,20,17c0-1.657-2-2-4-2v4.937
			C16.12,19.937,16.239,19.915,16.355,19.87z"/>
	</g>
</g>
</svg>
