<?xml version="1.0" encoding="utf-8"?>
<!-- Generator: Adobe Illustrator 23.0.6, SVG Export Plug-In . SVG Version: 6.00 Build 0)  -->
<svg version="1.1" xmlns="http://www.w3.org/2000/svg" xmlns:xlink="http://www.w3.org/1999/xlink" x="0px" y="0px" width="32px"
	 height="32px" viewBox="0 0 32 32" enable-background="new 0 0 32 32" xml:space="preserve">
<g id="labels">
	<g>
	</g>
</g>
<g id="icons">
	<g>
		<path fill="#93C427" d="M17.5,9C17.083,9,16,9,16,9s-1.083,0-1.5,0C13.973,9.527,6,17.25,6,28c2.75,1.167,8.083,1,10,1
			s7.25,0.167,10-1C26,17.25,18.027,9.527,17.5,9z"/>
		<path fill="#9ACC2E" d="M14.5,9C13.973,9.527,6,17.25,6,28c2.75,1.167,8.083,1,10,1V9C16,9,14.917,9,14.5,9z"/>
		<path fill="#A93949" d="M16,1.024l9.372,8.218c0.141,0.124,0.157,0.338,0.036,0.482l-1.949,2.299
			c-0.103,0.121-0.291,0.117-0.389-0.009L16,3.289V1.024z"/>
		<path fill="#B93D4F" d="M16,3.289l-7.069,8.725c-0.097,0.126-0.286,0.13-0.389,0.009L6.593,9.724
			C6.471,9.58,6.487,9.366,6.628,9.242L16,1.024V3.289z"/>
		<path fill="#2B3332" d="M17.5,9C17.083,9,16,9,16,9s-1.083,0-1.5,0c-0.296,0.296-2.933,2.856-5.193,6.943
			c0.163-0.159,2.951-2.854,4.105-3.404c0.056-0.027,0.116-0.015,0.162,0.026C14.44,13.347,15.555,15,16,15s1.56-1.653,2.426-2.435
			c0.046-0.042,0.106-0.053,0.162-0.026c1.154,0.551,3.941,3.246,4.105,3.404C20.433,11.856,17.796,9.296,17.5,9z"/>
		<g>
			<path fill="#FF5F7E" d="M17.5,16.403c0,0.317,0.765,0.854,1.708,0.854c0.943,0,1.708-0.355,1.708-0.854
				c0-0.499-0.765-0.903-1.708-0.903C18.265,15.5,17.5,16.086,17.5,16.403z"/>
			<path fill="#2B3332" d="M19.086,16.389c0,0.519,0.055,0.868,0.122,0.868c0.067,0,0.122-0.349,0.122-0.868
				c0-0.519-0.055-0.889-0.122-0.889C19.141,15.5,19.086,15.87,19.086,16.389z"/>
		</g>
		<g>
			<path fill="#FFD04D" d="M23.707,26.532c0.729-0.046,1.635-0.284,2.189-0.704c0.028,0.28,0.038,0.567,0.056,0.852
				c-0.681,0.372-1.525,0.558-2.198,0.6L23.707,26.532z"/>
			<path fill="#FFD04D" d="M23.759,25.044l-0.047-0.748c0.609-0.038,1.342-0.212,1.892-0.513c0.049,0.255,0.09,0.515,0.13,0.775
				C25.098,24.854,24.36,25.007,23.759,25.044z"/>
		</g>
		<path fill="#E3E5E5" d="M21.718,14.294C20.541,16.334,18.656,19.5,16,19.5s-4.541-3.166-5.718-5.206
			c-1.272,1.891-2.714,4.826-3.527,7.925C7.314,23.301,8,24,8,24v4.566c2.801,0.532,6.461,0.436,8,0.434
			c1.539,0.002,5.199,0.098,8-0.434V24c0,0,0.686-0.699,1.245-1.78C24.431,19.121,22.99,16.185,21.718,14.294z"/>
		<path fill="#D84459" d="M20.984,29.994c-0.142,0-0.309,0.009-0.484,0.023V28.26H19v2.08c-0.562,0.218-1,0.552-1,1.061
			c0,0.438,1.281,0.562,3,0.562s5,0.188,5-0.281S23.219,29.994,20.984,29.994z"/>
		<path fill="#DADDDC" d="M26,31.682c0,0.287-1.227,0.328-2.573,0.316c-0.008-0.058-0.02-0.116-0.02-0.176
			c0-0.506,0.284-0.951,0.716-1.233C25.203,30.967,26,31.431,26,31.682z M17.991,31.403c0,0.241,0.387,0.388,1.011,0.474
			c-0.09-0.243-0.144-0.504-0.144-0.779c0-0.274,0.053-0.535,0.143-0.777C18.433,30.545,17.991,30.886,17.991,31.403z"/>
		<path fill="#B93D4F" d="M20.697,18.627c-0.124-0.069-0.166-0.228-0.092-0.349l1.288-2.1c0.064-0.104,0.193-0.147,0.306-0.101
			l0.742,0.288c0.731,1.368,1.393,2.921,1.929,4.588L20.697,18.627z"/>
		<path fill="#FFD04D" d="M21.572,18.211l0.803-1.31c0.04-0.065,0.12-0.091,0.191-0.063l0.787,0.315
			c0.475,0.848,0.847,1.861,1.224,2.906l-2.947-1.63C21.552,18.385,21.526,18.286,21.572,18.211z"/>
		<path fill="#E85160" d="M13,30.34v-2.08h-1.5v1.758c-0.176-0.014-0.342-0.023-0.484-0.023C8.781,29.994,6,31.213,6,31.682
			s3.281,0.281,5,0.281s3-0.125,3-0.562C14,30.892,13.562,30.558,13,30.34z"/>
		<g>
			<path fill="#FFD96C" d="M8.293,26.532c-0.729-0.046-1.635-0.284-2.189-0.704c-0.028,0.28-0.038,0.567-0.056,0.852
				c0.681,0.372,1.525,0.558,2.198,0.6L8.293,26.532z"/>
			<path fill="#FFD96C" d="M8.241,25.044l0.047-0.748c-0.609-0.038-1.342-0.212-1.892-0.513c-0.049,0.255-0.09,0.515-0.13,0.775
				C6.902,24.854,7.64,25.007,8.241,25.044z"/>
		</g>
		<path fill="#373F3F" d="M14.5,9c-0.296,0.296-2.933,2.856-5.193,6.943c0.163-0.159,2.951-2.854,4.105-3.404
			c0.056-0.027,0.116-0.015,0.162,0.026C14.44,13.347,15.555,15,16,15V9C16,9,14.917,9,14.5,9z"/>
		<g>
			<path fill="#FF6B8B" d="M14.5,16.403c0,0.317-0.765,0.854-1.708,0.854c-0.943,0-1.708-0.355-1.708-0.854
				c0-0.499,0.765-0.903,1.708-0.903C13.735,15.5,14.5,16.086,14.5,16.403z"/>
			<path fill="#2B3332" d="M12.914,16.389c0,0.519-0.055,0.868-0.122,0.868c-0.067,0-0.122-0.349-0.122-0.868
				c0-0.519,0.055-0.889,0.122-0.889C12.859,15.5,12.914,15.87,12.914,16.389z"/>
		</g>
		<path fill="#E3E5E5" d="M7.877,30.589c0.432,0.282,0.716,0.727,0.716,1.233c0,0.06-0.013,0.117-0.02,0.176
			C7.227,32.009,6,31.968,6,31.682C6,31.431,6.797,30.967,7.877,30.589z M12.999,30.321c0.09,0.242,0.143,0.503,0.143,0.777
			c0,0.275-0.054,0.536-0.144,0.779c0.624-0.086,1.011-0.233,1.011-0.474C14.009,30.886,13.567,30.545,12.999,30.321z"/>
		<path fill="#EDEEEE" d="M10.282,14.294c-1.272,1.891-2.714,4.826-3.527,7.926C7.314,23.301,8,24,8,24v4.566
			c2.801,0.532,6.461,0.436,8,0.434v-9.5C13.344,19.5,11.459,16.334,10.282,14.294z"/>
		<path fill="#C84054" d="M11.303,18.627c0.124-0.069,0.166-0.228,0.092-0.349l-1.288-2.1c-0.064-0.104-0.193-0.147-0.306-0.101
			l-0.742,0.288c-0.731,1.368-1.393,2.921-1.929,4.588L11.303,18.627z"/>
		<path fill="#FFD96C" d="M10.428,18.211l-0.803-1.31c-0.04-0.065-0.12-0.091-0.191-0.063l-0.787,0.315
			c-0.475,0.848-0.847,1.861-1.224,2.906l2.947-1.63C10.448,18.385,10.474,18.286,10.428,18.211z"/>
		<circle fill="#9ACC2E" cx="16" cy="5.5" r="5.5"/>
		<path fill="#F7F7F7" d="M20.14,3c0.279,0,0.551,0.024,0.796,0.053c0.302,0.606,0.483,1.271,0.543,1.978
			C19.851,5.333,17.5,4.981,17.5,4C17.5,3.738,18.378,3,20.14,3z"/>
		<g>
			<path fill="#2B3332" d="M20.082,2.994c-0.23,0.002-0.424,0.017-0.624,0.041C19.477,3.098,19.5,3.183,19.5,3.25
				C19.5,3.664,19.164,4,18.75,4c-0.167,0-0.319-0.056-0.441-0.15c-0.022,0.04-0.027,0.09-0.027,0.14
				c0,0.434,0.245,0.798,0.593,1.005c0.272,0.061,0.566,0.105,0.871,0.127c0.518-0.128,0.911-0.574,0.911-1.132
				C20.656,3.567,20.415,3.205,20.082,2.994z"/>
		</g>
		<g>
			<g>
				<path fill="#A2D336" d="M10.5,5.5c0,3.038,2.462,5.5,5.5,5.5V0C12.962,0,10.5,2.462,10.5,5.5z"/>
			</g>
			<g>
				<path fill="#AADB3D" d="M10.5,5.5c0,3.038,2.462,5.5,5.5,5.5V0C12.962,0,10.5,2.462,10.5,5.5z"/>
			</g>
		</g>
		<g>
			<path fill="#FFFFFF" d="M11.837,3c-0.279,0-0.551,0.024-0.796,0.053c-0.302,0.606-0.5,1.359-0.541,1.979
				C12.128,5.334,14.476,4.981,14.476,4C14.476,3.738,13.598,3,11.837,3z"/>
			<g>
				<path fill="#373F3F" d="M13.226,4c-0.414,0-0.75-0.336-0.75-0.75c0-0.067,0.026-0.152,0.045-0.215
					c-0.2-0.024-0.504-0.041-0.635-0.033c-0.333,0.21-0.566,0.564-0.566,0.987c0,0.558,0.393,1.004,0.911,1.132
					c0.305-0.022,0.599-0.066,0.871-0.127c0.348-0.207,0.593-0.57,0.593-1.005c0-0.05-0.005-0.088-0.027-0.14
					C13.546,3.944,13.394,4,13.226,4z"/>
			</g>
		</g>
		<path fill="#FFD04D" d="M16,5.5c-1,0-2,0.438-2,1.031c0,0.969,0.744,1.331,0.969,1.5c0.25,0.188,0.656,1.5,1.031,1.5
			s0.781-1.312,1.031-1.5C17.256,7.862,18,7.5,18,6.531C18,5.938,17,5.5,16,5.5z"/>
		<path fill="#FFD96C" d="M16,5.5c-1,0-2,0.438-2,1.031c0,0.969,0.744,1.331,0.969,1.5c0.25,0.188,0.656,1.5,1.031,1.5V5.5z"/>
		<path fill="#C84054" d="M7.999,25.372v3.188C10.8,29.092,14.461,29.002,16,29c1.539,0.002,5.2,0.092,8.001-0.44v-3.188
			C21.366,26.156,9.896,26.136,7.999,25.372z"/>
		<path fill="#D84459" d="M16,25.951V29c-1.539,0.002-5.2,0.092-8.001-0.44v-3.188C8.973,25.764,12.47,25.959,16,25.951z"/>
		<path fill="#2B3332" d="M7.999,26.935v1.656c3.168,0.809,13.126,0.809,16.002,0v-1.656C21.608,27.636,10.199,27.676,7.999,26.935z
			"/>
		<path fill="#373F3F" d="M16,27.475v1.722c-3.209-0.005-6.435-0.206-8.001-0.606v-1.656C9.107,27.308,12.549,27.483,16,27.475z"/>
	</g>
</g>
</svg>
