<?xml version="1.0" encoding="utf-8"?>
<!-- Generator: Adobe Illustrator 23.0.6, SVG Export Plug-In . SVG Version: 6.00 Build 0)  -->
<svg version="1.1" xmlns="http://www.w3.org/2000/svg" xmlns:xlink="http://www.w3.org/1999/xlink" x="0px" y="0px" width="32px"
	 height="32px" viewBox="0 0 32 32" enable-background="new 0 0 32 32" xml:space="preserve">
<g id="labels">
	<g>
	</g>
</g>
<g id="icons">
	<g>
		<g>
			<path fill="#D196A6" d="M30.015,8.823c-1.666,5.189-4.8,8.688-9.328,8.688v4.83c4.919,0,9.323-3.187,9.687-13.442
				C30.383,8.667,30.086,8.604,30.015,8.823z"/>
			<path fill="#2B3332" d="M30.015,8.823c-1.666,5.189-4.8,8.688-9.328,8.688v4.83c4.919,0,9.323-3.187,9.687-13.442
				C30.383,8.667,30.086,8.604,30.015,8.823z"/>
		</g>
		<path fill="#424B7E" d="M22.945,23.667c0,1.708,0.5,6.417-1.5,6.417c-2.292,0-2.061-3-2.061-5.5L22.945,23.667z"/>
		<path fill="#495587" d="M20.82,25.583c0,1.708,0.5,6.417-1.5,6.417c-2.333,0-2.061-3-2.061-5.5L20.82,25.583z"/>
		<path fill="#F9ADC8" d="M27.75,22.125c0-0.389,0-1.375-0.75-2.375c-1.595,1.748-4.75,5-7.5,2.375c0,2.278,1.847,4.125,4.125,4.125
			S27.75,24.403,27.75,22.125z"/>
		<path fill="#FAB8CD" d="M16,13c-5.065,0-9.171,3.233-9.171,8.298s6.114,7.94,9.171,7.94s9.171-2.875,9.171-7.94S21.065,13,16,13z"
			/>
		<path fill="#F9ADC8" d="M16,26.5c-2.75,0-5.109-1.141-9.171-5.202c0,5.065,6.114,7.94,9.171,7.94s9.171-2.875,9.171-7.94
			C21.109,25.359,18.75,26.5,16,26.5z"/>
		<path fill="#FAB8CD" d="M28.75,17.375c0-1.673-1.066-3.085-2.551-3.628c-0.24-1.416-1.465-2.497-2.949-2.497c-1.657,0-3,1.343-3,3
			c0,0.836,0.343,1.59,0.894,2.134c-0.038,0.145-0.067,0.291-0.089,0.442C19.831,17.542,19,18.855,19,20.375
			c0,2.278,1.847,4.125,4.125,4.125c2.263,0,4.096-1.823,4.12-4.08C28.155,19.711,28.75,18.617,28.75,17.375z"/>
		<path fill="#495587" d="M9.055,23.667c0,1.708-0.5,6.417,1.5,6.417c2.292,0,2.061-3,2.061-5.5L9.055,23.667z"/>
		<path fill="#515E91" d="M11.18,25.583c0,1.708-0.5,6.417,1.5,6.417c2.333,0,2.061-3,2.061-5.5L11.18,25.583z"/>
		<circle fill="#F3E7C0" cx="8.875" cy="22.125" r="4.125"/>
		<path fill="#FAB8CD" d="M4.25,22.125c0-0.389,0-1.375,0.75-2.375c1.595,1.748,4.75,5,7.5,2.375c0,2.278-1.847,4.125-4.125,4.125
			S4.25,24.403,4.25,22.125z"/>
		<path fill="#FAC4D1" d="M16,13v16.238c-3.057,0-9.171-2.875-9.171-7.94S10.935,13,16,13z"/>
		<path fill="#FAB8CD" d="M16,26.5v2.738c-3.057,0-9.171-2.875-9.171-7.94C10.891,25.359,13.25,26.5,16,26.5z"/>
		<path fill="#FAC4D1" d="M10.945,16.826c-0.022-0.151-0.05-0.297-0.089-0.442c0.551-0.544,0.894-1.298,0.894-2.134
			c0-1.657-1.343-3-3-3c-1.485,0-2.709,1.081-2.949,2.497C4.316,14.29,3.25,15.702,3.25,17.375c0,1.242,0.595,2.336,1.505,3.045
			c0.025,2.257,1.858,4.08,4.12,4.08c2.278,0,4.125-1.847,4.125-4.125C13,18.855,12.169,17.542,10.945,16.826z"/>
		<path fill="#FAC4D1" d="M10.542,5.46c0-3.015,2.444-5.458,5.458-5.458v10.917C12.985,10.918,10.542,8.474,10.542,5.46z"/>
		<path fill="#495587" d="M16,5.512c-2.75,0-6.452,2.239-6.347,5.743C9.75,14.5,13.884,17.25,16,17.25s6.25-2.75,6.347-5.995
			C22.452,7.751,18.75,5.512,16,5.512z"/>
		<path fill="#424B7E" d="M16,15.5c-2,0-5-2.25-6.347-4.245C9.75,14.5,13.884,17.5,16,17.5s6.25-3,6.347-6.245
			C21,13.25,18,15.5,16,15.5z"/>
		<path fill="#E5AC38" d="M29.052,11.286c-0.397,0.823-0.823,1.579-1.305,2.261c0.372,0.261,0.761,0.493,1.209,0.655
			c0.229,0.083,0.478,0.146,0.71,0.195c0.216-0.804,0.373-1.749,0.475-2.639C29.761,11.714,29.245,11.475,29.052,11.286z"/>
		<circle fill="#F57552" cx="29.75" cy="8.438" r="2.25"/>
		<path fill="#FBCFD6" d="M16,7c-1.312,0-2.375-0.938-2.375-2.25S14.688,2.5,16,2.5V7z"/>
		<g>
			<ellipse fill="#2B3332" cx="18.25" cy="10.625" rx="1" ry="1.125"/>
			<circle fill="#F7F7F7" cx="18.125" cy="10.375" r="0.375"/>
		</g>
		<path fill="#373F3F" d="M22.702,6.089c1.857-0.245,5.844,1.687,6.04,3.18c0.197,1.494-3.341,2.972-5.175,3.214
			c-0.849,0.112-1.862-0.203-2.492-0.646c-0.795-0.901-0.925-3.122-0.703-4.327C20.866,6.829,21.767,6.212,22.702,6.089z"/>
		<path fill="#E5AC38" d="M24.743,9.035c-0.119-0.904,0.152-1.765,0.684-2.421c-0.531-0.21-1.064-0.371-1.557-0.463
			c-1.149,0.614-1.827,1.87-1.65,3.216c0.19,1.444,1.312,2.58,2.732,2.794c0.522-0.147,1.078-0.377,1.595-0.628
			C25.59,11.067,24.889,10.146,24.743,9.035z"/>
		<path fill="#515E91" d="M16,5.512V17.25c-2.116,0-6.25-2.75-6.347-5.995C9.548,7.751,13.25,5.512,16,5.512z"/>
		<ellipse fill="#373F3F" cx="13.75" cy="10.625" rx="1" ry="1.125"/>
		<circle fill="#FFFFFF" cx="13.875" cy="10.375" r="0.375"/>
		<path fill="#495587" d="M16,15.5v2c-2.116,0-6.25-3-6.347-6.245C11,13.25,14,15.5,16,15.5z"/>
		<path fill="#373F3F" d="M9.298,6.089c-1.857-0.245-5.844,1.687-6.04,3.18s3.341,2.972,5.175,3.214
			c0.849,0.112,1.862-0.203,2.492-0.646c0.795-0.901,0.925-3.122,0.703-4.327C11.134,6.829,10.233,6.212,9.298,6.089z"/>
		<path fill="#EFB43F" d="M9.779,9.367c0.177-1.346-0.498-2.6-1.647-3.214C7.64,6.245,7.105,6.405,6.574,6.615
			c0.533,0.657,0.802,1.516,0.683,2.42c-0.146,1.111-0.845,2.03-1.804,2.496c0.518,0.251,1.07,0.464,1.598,0.628
			C8.471,11.946,9.589,10.812,9.779,9.367z"/>
		<path fill="#FAB8CD" d="M20.5,4.501C20.5,6.986,18.486,9,16.001,9V0.001C18.486,0.001,20.5,2.016,20.5,4.501z"/>
		<path fill="#FAC4D1" d="M16,7c1.294,0,2.344-0.956,2.344-2.25S17.294,2.5,16,2.5V7z"/>
		<path fill="#FAC4D1" d="M16,9c-1.312,0-2.375-0.938-2.375-2.25S14.688,4.5,16,4.5V9z"/>
		<path fill="#FBCFD6" d="M16,7c-0.437,0-0.792-0.313-0.792-0.75S15.563,5.5,16,5.5V7z"/>
		<path fill="#FAB8CD" d="M16,4.5c0.292,0,0.529,0.209,0.529,0.502S16.292,5.504,16,5.504V4.5z"/>
	</g>
</g>
</svg>
