<?xml version="1.0" encoding="utf-8"?>
<!-- Generator: Adobe Illustrator 23.0.6, SVG Export Plug-In . SVG Version: 6.00 Build 0)  -->
<svg version="1.1" xmlns="http://www.w3.org/2000/svg" xmlns:xlink="http://www.w3.org/1999/xlink" x="0px" y="0px" width="32px"
	 height="32px" viewBox="0 0 32 32" enable-background="new 0 0 32 32" xml:space="preserve">
<g id="labels">
	<g>
	</g>
</g>
<g id="icons">
	<g>
		<path fill="#FFD04D" d="M7.93,28.088c-1.481,0.697-2.267,1.716-1.786,2.786c0.643,1.429,5.071,0.571,5.786-0.929
			c0.443-0.93,0.378-1.69-0.286-2.071C10.949,27.474,9.144,27.516,7.93,28.088z"/>
		<path fill="#2B3332" d="M18.272,30.659c-0.021,0-0.041-0.001-0.062-0.002c-0.253-0.021-0.477-0.167-0.598-0.39l-4.437-8.435
			c-0.129-0.245-0.035-0.547,0.209-0.675c0.245-0.127,0.547-0.035,0.675,0.209l4.247,8.074l3.545-4.822l7.663,4.628l-2.84-8.811
			c-0.084-0.263,0.06-0.544,0.323-0.629c0.262-0.083,0.545,0.06,0.629,0.323l3.045,9.447c0.097,0.301-0.001,0.623-0.249,0.818
			c-0.249,0.196-0.584,0.216-0.853,0.053l-7.453-4.501l-3.245,4.413C18.721,30.553,18.503,30.659,18.272,30.659z M29.72,29.882h0.01
			H29.72z"/>
		<circle fill="#F0C13E" cx="27.297" cy="22.303" r="3.604"/>
		<path fill="#FFD04D" d="M5.046,14.64c-0.602,0.272-1.302,0.424-2.045,0.424c-0.917,0-3-0.625-3,1.5c0,1.75,1.958,1.875,3,1.5
			c0.538-0.194,1.302-0.719,2.047-1.301L5.046,14.64z"/>
		<path fill="#F7C845" d="M26.956,14.64c0.602,0.272,1.302,0.424,2.045,0.424c0.917,0,3-0.625,3,1.5c0,1.75-1.958,1.875-3,1.5
			c-0.538-0.194-1.302-0.719-2.047-1.301L26.956,14.64z"/>
		<path fill="#FFD04D" d="M14.275,10.681c-0.523-1.254-2.512-6.662-2.904-7.524c-0.211-0.463-0.679-2.456-3.814-2.456
			c-3.031,0-7.472,1.933-7.472,4.337c0,1.933,6.897,0.627,6.897,0.627l4.785,7.524L14.275,10.681z"/>
		<path fill="#FF805D" d="M12.418,8.634c-0.532-1.29-1.625-4.1-1.897-4.654C9.918,4.617,8.584,5.326,7.918,5.568
			c0.243,0.419,2.447,3.895,2.447,3.895S11.42,8.865,12.418,8.634z"/>
		<path fill="#F7C845" d="M17.726,10.428c0.498-1.195,2.07-5.924,2.717-6.571s9.264-5.974,11.326-3.584
			c1.512,1.752-4.821,5.54-6.251,6.438c-0.203,0.127-0.381,0.282-0.538,0.464l-4.865,5.644L17.726,10.428z"/>
		<path fill="#F57552" d="M19.837,8.392c0.265-0.886,1.336-3.571,1.758-3.992c0.421-0.421,6.44-3.737,7.155-2.513
			c0.596,1.022-3.742,3.722-4.131,4.046s-2.705,3.341-2.705,3.341S20.851,8.669,19.837,8.392z"/>
		<path fill="#FFD04D" d="M16.001,4.808V28.66c-6.502,0-12-3.498-12-10C4.001,13.996,8.44,4.808,16.001,4.808z"/>
		<path fill="#F7C845" d="M28.001,18.66c0,6.502-5.498,10-12,10V4.808C23.561,4.808,28.001,13.996,28.001,18.66z"/>
		<path fill="#F7C845" d="M24.072,28.088c1.481,0.697,2.267,1.716,1.786,2.786c-0.643,1.429-5.071,0.571-5.786-0.929
			c-0.443-0.93-0.378-1.69,0.286-2.071C21.053,27.474,22.858,27.516,24.072,28.088z"/>
		<path fill="#CE8683" d="M16.001,14.422L16.001,14.422c-0.506,0-1.169,0.133-1.479,0.733c0.149,0.289,0.355,0.529,0.595,0.704
			c0.022,0.016,0.044,0.029,0.067,0.044c0.096,0.063,0.197,0.112,0.303,0.152c0.033,0.012,0.065,0.027,0.099,0.037
			c0.133,0.04,0.271,0.067,0.415,0.067V14.422z"/>
		<ellipse fill="#F7F7F7" cx="10.368" cy="19.534" rx="1.875" ry="2"/>
		<ellipse fill="#F7F7F7" cx="6.418" cy="16.722" rx="0.875" ry="1"/>
		<path fill="#F7F7F7" d="M14.626,19.43c0,0.81,0.616,1.467,1.375,1.467v-2.933C15.242,17.963,14.626,18.62,14.626,19.43z"/>
		<path fill="#EDEEEE" d="M25.584,20.742c-0.927,0.695-1.668,2.616-3.917,2.792c-2.667,0.208-2.958-1.225-5.667-1.225
			c-2.896,0-3,1.451-5.667,1.243c-2.248-0.176-2.99-2.097-3.917-2.792c-0.833-0.625-1.583-0.667-2.263-0.261
			c0.753,5.272,5.98,8.178,11.846,8.178s10.937-2.83,11.846-8.196C27.168,20.076,26.418,20.117,25.584,20.742z"/>
		<path fill="#F7F7F7" d="M16.001,22.309c-2.896,0-3,1.451-5.667,1.243c-2.248-0.176-2.99-2.097-3.917-2.792
			c-0.833-0.625-1.583-0.667-2.263-0.261c0.753,5.272,5.98,8.178,11.846,8.178V22.309z"/>
		<ellipse fill="#EDEEEE" cx="21.634" cy="19.534" rx="1.875" ry="2"/>
		<ellipse fill="#EDEEEE" cx="25.584" cy="16.722" rx="0.875" ry="1"/>
		<path fill="#EDEEEE" d="M16.001,17.963v2.933c0.759,0,1.375-0.657,1.375-1.467C17.376,18.62,16.76,17.963,16.001,17.963z"/>
		<path fill="#E55D53" d="M16.001,13.161v0.981v2.237c-1.188,0-2.198-1.625-2.249-2.551c-0.006-0.102,0.079-0.172,0.175-0.207
			C14.31,13.481,14.934,13.167,16.001,13.161z"/>
		<path fill="#D64F45" d="M18.076,13.621c0.096,0.035,0.181,0.105,0.175,0.207c-0.051,0.926-1.062,2.551-2.249,2.551v-3.218
			C17.069,13.167,17.693,13.481,18.076,13.621z"/>
		<g>
			
				<ellipse transform="matrix(0.4131 -0.9107 0.9107 0.4131 -2.5178 17.7057)" fill="#373F3F" cx="12.478" cy="10.806" rx="1.665" ry="1.499"/>
			<circle fill="#FFFFFF" cx="12.74" cy="10.23" r="0.833"/>
		</g>
		<g>
			
				<ellipse transform="matrix(0.9107 -0.4131 0.4131 0.9107 -2.7204 9.0309)" fill="#2B3332" cx="19.524" cy="10.806" rx="1.499" ry="1.665"/>
			<circle fill="#F7F7F7" cx="19.262" cy="10.23" r="0.833"/>
		</g>
	</g>
</g>
</svg>
