<?xml version="1.0" encoding="utf-8"?>
<!-- Generator: Adobe Illustrator 23.0.6, SVG Export Plug-In . SVG Version: 6.00 Build 0)  -->
<svg version="1.1" xmlns="http://www.w3.org/2000/svg" xmlns:xlink="http://www.w3.org/1999/xlink" x="0px" y="0px" width="32px"
	 height="32px" viewBox="0 0 32 32" enable-background="new 0 0 32 32" xml:space="preserve">
<g id="labels">
	<g>
	</g>
</g>
<g id="icons">
	<g>
		<path fill="#65A9DC" d="M18,0c-1.379,0-2.5,1.121-2.5,2.5v2C15.5,4.776,15.724,5,16,5s0.5-0.224,0.5-0.5v-2
			C16.5,1.673,17.173,1,18,1c0.552,0,1,0.448,1,1c0,0.275-0.225,0.5-0.5,0.5C18.224,2.5,18,2.724,18,3s0.224,0.5,0.5,0.5
			C19.327,3.5,20,2.827,20,2C20,0.897,19.103,0,18,0z"/>
		<path fill="#BEE758" d="M30,11h-2v1c0,1.105-0.895,2-2,2h-5v4l4.552-0.506C28.084,17.213,30,15.073,30,12.525V11z"/>
		<path fill="#FFE28A" d="M27.5,13c0.081,0,0.158-0.011,0.235-0.024c-0.09,0.159-0.193,0.31-0.321,0.438l1.796,1.796
			c0.434-0.679,0.698-1.468,0.762-2.31c0.165,0.062,0.341,0.1,0.528,0.1c0.828,0,1.5-0.672,1.5-1.5S31.328,10,30.5,10
			c-0.032,0-0.063,0.008-0.095,0.01C30.463,9.85,30.5,9.68,30.5,9.5C30.5,8.672,29.828,8,29,8s-1.5,0.672-1.5,1.5
			c0,0.18,0.037,0.35,0.095,0.51C27.563,10.008,27.532,10,27.5,10c-0.828,0-1.5,0.672-1.5,1.5S26.672,13,27.5,13z"/>
		<path fill="#B38658" d="M28,11c0-0.552,0.448-1,1-1s1,0.448,1,1s-0.448,1-1,1S28,11.552,28,11z"/>
		<path fill="#CBEB6B" d="M2,11h2v1c0,1.105,0.895,2,2,2h5v4l-4.552-0.506C3.916,17.213,2,15.073,2,12.525V11z"/>
		<path fill="#FFEAA7" d="M6,11.5C6,10.672,5.328,10,4.5,10c-0.032,0-0.063,0.008-0.095,0.01C4.463,9.85,4.5,9.68,4.5,9.5
			C4.5,8.672,3.828,8,3,8S1.5,8.672,1.5,9.5c0,0.18,0.037,0.35,0.095,0.51C1.563,10.008,1.532,10,1.5,10C0.672,10,0,10.672,0,11.5
			S0.672,13,1.5,13c0.186,0,0.363-0.038,0.528-0.1c0.064,0.842,0.329,1.632,0.762,2.31l1.796-1.796
			c-0.128-0.128-0.231-0.279-0.321-0.438C4.342,12.989,4.419,13,4.5,13C5.328,13,6,12.328,6,11.5z"/>
		<path fill="#B1E346" d="M24,19c3,0,6,0.5,6,3.5S28,27,28,27l3,2l-5,2l-2.226-2.226c-0.416-0.416-0.385-1.099,0.067-1.475L26,25.5
			h-2V19z"/>
		<path fill="#BEE758" d="M8,19c-3,0-6,0.5-6,3.5S4,27,4,27l-3,2l5,2l2.226-2.226c0.416-0.416,0.385-1.099-0.067-1.475L6,25.5h2V19z
			"/>
		<circle fill="#FFE28A" cx="1" cy="29" r="1"/>
		<circle fill="#FFE28A" cx="3.5" cy="30" r="1"/>
		<circle fill="#FFE28A" cx="6" cy="31" r="1"/>
		<path fill="#BEE758" d="M23.439,17.148c-0.991-1.303-1.44-3.635-1.469-5.39c0.417-0.709,0.658-1.501,0.658-2.341
			C22.628,6.425,19.661,4,16.002,4v10.833V30C20.969,29.999,25,26.162,25,21.696C25,20.008,24.424,18.443,23.439,17.148z"/>
		<path fill="#CBEB6B" d="M16.002,4c-3.66,0-6.627,2.425-6.627,5.417c0,0.838,0.24,1.628,0.655,2.336
			c-0.029,1.755-0.477,4.091-1.469,5.395C7.576,18.443,7,20.008,7,21.696c0,4.466,4.031,8.304,8.998,8.304V14.833l-0.002,0
			c0.002,0,0.003,0,0.005,0V4z"/>
		<path fill="#F7F7F7" d="M14,6c0,1.105-0.895,2-2,2s-2-0.895-2-2s0.895-2,2-2S14,4.895,14,6z"/>
		<path fill="#373F3F" d="M13.5,6c0,0.828-0.672,1.5-1.5,1.5S10.5,6.828,10.5,6s0.672-1.5,1.5-1.5S13.5,5.172,13.5,6z"/>
		<circle fill="#FFFFFF" cx="12.5" cy="5.5" r="0.5"/>
		<path fill="#FFEAA7" d="M10.407,10.523c2.891-0.064,3.271-2.238,5.595-2.238v6.154C13.764,14.439,10.407,12.201,10.407,10.523z"/>
		<circle fill="#EDEEEE" cx="20" cy="6" r="2"/>
		<circle fill="#2B3332" cx="20" cy="6" r="1.5"/>
		<circle fill="#F7F7F7" cx="19.5" cy="5.5" r="0.5"/>
		<path fill="#FFE28A" d="M21.596,10.523c-2.891-0.064-3.271-2.238-5.595-2.238v6.154C18.239,14.439,21.596,12.201,21.596,10.523z"
			/>
		<path fill="#FFE28A" d="M10.407,10.523c2.378,0.979,3.147,0.909,5.595,0.91c0,1.258,0,3.006,0,3.006
			C13.764,14.439,10.407,12.201,10.407,10.523z"/>
		<path fill="#FFD96C" d="M21.596,10.523c-2.378,0.979-3.147,0.909-5.595,0.91c0,1.258,0,3.006,0,3.006
			C18.239,14.439,21.596,12.201,21.596,10.523z"/>
		<circle fill="#FFA68E" cx="11" cy="11" r="1.5"/>
		<circle fill="#FF9A7E" cx="21" cy="11" r="1.5"/>
		<circle fill="#FFD96C" cx="26.357" cy="30.928" r="1.072"/>
		<circle fill="#FFD96C" cx="28.785" cy="29.857" r="1.072"/>
		<circle fill="#FFD96C" cx="30.928" cy="28.785" r="1.072"/>
		<path fill="#FFEAA7" d="M13,24c0,1.859,1.279,3.411,3,3.858v-2.136c-0.595-0.347-1-0.985-1-1.722c0-0.552,0.448-1,1-1v-2
			C14.346,21,13,22.346,13,24z"/>
		<path fill="#FFEAA7" d="M16,29.909c-2.833-0.478-5-2.942-5-5.909c0-2.757,2.243-5,5-5v-2c-3.859,0-7,3.141-7,7
			c0,1.374,0.349,2.667,0.961,3.798C11.559,29.151,13.672,30,15.998,30H16V29.909z"/>
		<path fill="#FFE28A" d="M20,23c0,1.654-1.346,3-3,3c-0.366,0-0.705-0.106-1-0.278v2.136C16.322,27.942,16.653,28,17,28
			c2.757,0,5-2.243,5-5c0-3.309-2.691-6-6-6v2C18.206,19,20,20.794,20,23z"/>
		<path fill="#FFE28A" d="M17,22c0-0.553-0.447-1-1-1v2C16.553,23,17,22.553,17,22z"/>
		<path fill="#FFE28A" d="M16,30h0.002c0.173,0,0.341-0.016,0.511-0.025c-0.173-0.014-0.344-0.038-0.513-0.066V30z"/>
		<path fill="#C09265" d="M3,12c-0.552,0-1-0.448-1-1s0.448-1,1-1s1,0.448,1,1S3.552,12,3,12z"/>
	</g>
</g>
</svg>
