<?xml version="1.0" encoding="utf-8"?>
<!-- Generator: Adobe Illustrator 23.0.6, SVG Export Plug-In . SVG Version: 6.00 Build 0)  -->
<svg version="1.1" xmlns="http://www.w3.org/2000/svg" xmlns:xlink="http://www.w3.org/1999/xlink" x="0px" y="0px" width="32px"
	 height="32px" viewBox="0 0 32 32" enable-background="new 0 0 32 32" xml:space="preserve">
<g id="labels">
	<g>
	</g>
</g>
<g id="icons">
	<g>
		<path fill="#60C46F" d="M16,13.4l-1.583-0.317l-0.351-1.756c-0.04-0.198-0.194-0.353-0.392-0.392l-1.756-0.351l-0.351-1.756
			c-0.04-0.198-0.194-0.353-0.392-0.392L9.417,8.083L9.065,6.327c-0.04-0.198-0.194-0.353-0.392-0.392L7,5.6V2.36
			c0-0.215-0.138-0.406-0.342-0.474l-4.709-1.57C1.753,0.251,1.562,0.311,1.437,0.437L16,15V13.4z"/>
		<path fill="#6CD275" d="M1.316,0.949l1.57,4.709C2.954,5.862,3.145,6,3.36,6H6.6l0.335,1.673c0.04,0.198,0.194,0.353,0.392,0.392
			l1.756,0.351l0.351,1.756c0.04,0.198,0.194,0.353,0.392,0.392l1.756,0.351l0.351,1.756c0.04,0.198,0.194,0.353,0.392,0.392
			l1.756,0.351l0.351,1.756c0.04,0.198,0.194,0.353,0.392,0.392L16,15.8V15L1.437,0.437C1.311,0.563,1.251,0.753,1.316,0.949z"/>
		<path fill="#54B668" d="M16,13.4l1.583-0.317l0.351-1.756c0.04-0.198,0.194-0.353,0.392-0.392l1.756-0.351l0.351-1.756
			c0.04-0.198,0.194-0.353,0.392-0.392l1.756-0.351l0.351-1.756c0.04-0.198,0.194-0.353,0.392-0.392L25,5.6V2.36
			c0-0.215,0.138-0.406,0.342-0.474l4.709-1.57c0.195-0.065,0.386-0.005,0.512,0.121L16,15V13.4z"/>
		<path fill="#4EAC5D" d="M30.684,0.949l-1.57,4.709C29.046,5.862,28.855,6,28.64,6H25.4l-0.335,1.673
			c-0.04,0.198-0.194,0.353-0.392,0.392l-1.756,0.351l-0.351,1.756c-0.04,0.198-0.194,0.353-0.392,0.392l-1.756,0.351l-0.351,1.756
			c-0.04,0.198-0.194,0.353-0.392,0.392l-1.756,0.351l-0.351,1.756c-0.04,0.198-0.194,0.353-0.392,0.392L16,15.8V15L30.563,0.437
			C30.689,0.563,30.749,0.753,30.684,0.949z"/>
		<path fill="#60C46F" d="M24,25c-1.336,0-2.591-0.52-3.535-1.464c-0.391-0.391-0.391-1.024,0-1.414
			c0.391-0.391,1.023-0.391,1.414,0c1.133,1.133,3.109,1.133,4.242,0c0.706-0.706,1.014-1.714,0.824-2.696
			c-0.105-0.542,0.249-1.067,0.791-1.172c0.547-0.104,1.067,0.25,1.172,0.792c0.317,1.635-0.196,3.313-1.373,4.49
			C26.591,24.48,25.336,25,24,25z"/>
		<path fill="#84ED82" d="M12.145,14.687c-0.615-0.332-4.489-2.371-5.409-1.451c-0.787,0.787,0.592,3.737,1.215,4.959
			C7.348,19.284,7,20.557,7,22c0,4.971,4.029,8,9,8V14C14.618,14,13.315,14.242,12.145,14.687z"/>
		<path fill="#78DF7C" d="M25.264,13.236c-0.92-0.92-4.794,1.118-5.409,1.451C18.685,14.242,17.382,14,16,14v16c4.971,0,9-3.029,9-8
			c0-1.443-0.348-2.716-0.951-3.805C24.672,16.973,26.051,14.023,25.264,13.236z"/>
		<path fill="#604631" d="M22.409,17.381c-0.343-0.343-0.357-0.891-0.032-1.251c0.83-0.917,2.304-2.449,2.623-2.13
			c0.294,0.294-0.537,2.011-1.149,3.167C23.566,17.706,22.84,17.812,22.409,17.381L22.409,17.381z"/>
		<path fill="#724D31" d="M9.494,17.478c0.343-0.343,0.357-0.891,0.032-1.251c-0.83-0.917-2.304-2.449-2.623-2.13
			c-0.294,0.294,0.537,2.011,1.149,3.167C8.337,17.802,9.063,17.909,9.494,17.478L9.494,17.478z"/>
		<circle fill="#FFEAA7" cx="13" cy="19" r="1"/>
		<circle fill="#FFE28A" cx="19" cy="19" r="1"/>
		<path fill="#993147" d="M13.669,22.229C14.167,22.361,14.944,22.5,16,22.5V26c0,0-2.597,0-2.958-3.222
			C13.002,22.425,13.325,22.138,13.669,22.229z"/>
		<path fill="#6CD275" d="M13.5,32c1.105,0,1.5-1.343,1.5-3h-3C12,30.657,12.395,32,13.5,32z"/>
		<path fill="#60C46F" d="M18.5,32c1.105,0,1.5-1.343,1.5-3h-3C17,30.657,17.395,32,18.5,32z"/>
		<path fill="#912B41" d="M18.331,22.229C17.833,22.361,17.056,22.5,16,22.5V26c0,0,2.597,0,2.958-3.222
			C18.998,22.425,18.675,22.138,18.331,22.229z"/>
		<path fill="#78DF7C" d="M16,27c-3.959,0-7.37-1.758-8.99-4.809C7.113,27.046,11.095,30,16,30V27z"/>
		<path fill="#6CD275" d="M24.99,22.191C23.37,25.242,19.959,27,16,27v3C20.905,30,24.887,27.046,24.99,22.191z"/>
		<path fill="#84ED82" d="M7.337,26.663c0.781,0.781,2.01,0.111,3.182-1.061l-2.121-2.121C7.226,24.653,6.556,25.882,7.337,26.663z"
			/>
		<path fill="#78DF7C" d="M24.663,26.663c-0.781,0.781-2.01,0.111-3.182-1.061l2.121-2.121
			C24.774,24.653,25.444,25.882,24.663,26.663z"/>
	</g>
</g>
</svg>
