<?xml version="1.0" encoding="utf-8"?>
<!-- Generator: Adobe Illustrator 23.0.6, SVG Export Plug-In . SVG Version: 6.00 Build 0)  -->
<svg version="1.1" xmlns="http://www.w3.org/2000/svg" xmlns:xlink="http://www.w3.org/1999/xlink" x="0px" y="0px" width="32px"
	 height="32px" viewBox="0 0 32 32" enable-background="new 0 0 32 32" xml:space="preserve">
<g id="labels">
	<g>
	</g>
</g>
<g id="icons">
	<g>
		<path fill="#C56A9B" d="M16,30c-0.552,0-1,0.448-1,1c0,0.552,0.448,1,1,1V30z"/>
		<path fill="#C25E94" d="M17,31c0-0.552-0.448-1-1-1v2C16.552,32,17,31.552,17,31z"/>
		<path fill="#FDE2E6" d="M8,24c-2.209,0-4,1.791-4,4c0,2.209,1.791,4,4,4V24z"/>
		<path fill="#FCD8DE" d="M12,28c0-2.209-1.791-4-4-4v8C10.209,32,12,30.209,12,28z"/>
		<path fill="#FCD8DE" d="M4.051,28.51C4.304,30.476,5.966,32,8,32v-2C6.486,30,5.107,29.435,4.051,28.51z"/>
		<path fill="#FBCFD6" d="M8,30v2c2.034,0,3.696-1.525,3.949-3.49C10.893,29.435,9.514,30,8,30z"/>
		<path fill="#FDE2E6" d="M24,24c-2.209,0-4,1.791-4,4c0,2.209,1.791,4,4,4V24z"/>
		<path fill="#FCD8DE" d="M28,28c0-2.209-1.791-4-4-4v8C26.209,32,28,30.209,28,28z"/>
		<path fill="#FCD8DE" d="M20.051,28.51C20.304,30.476,21.966,32,24,32v-2C22.486,30,21.107,29.435,20.051,28.51z"/>
		<path fill="#FBCFD6" d="M24,30v2c2.034,0,3.696-1.525,3.949-3.49C26.893,29.435,25.514,30,24,30z"/>
		<path fill="#C976A3" d="M16,15c-4.418,0-8,3.582-8,8s3.582,8,8,8V15z"/>
		<path fill="#C56A9B" d="M24,23c0-4.418-3.582-8-8-8v16C20.418,31,24,27.418,24,23z"/>
		<path fill="#FDECEF" d="M16,0c-3.866,0-7,3.134-7,7c0,3.866,3.134,7,7,7V0z"/>
		<path fill="#FDE2E6" d="M23,7c0-3.866-3.134-7-7-7v14C19.866,14,23,10.866,23,7z"/>
		<path fill="#FDE2E6" d="M9.035,7.698c0.318,3.206,2.801,5.769,5.965,6.223V15h1v-4C13.192,11,10.686,9.713,9.035,7.698z"/>
		<path fill="#FCD8DE" d="M22.965,7.698C21.314,9.713,18.808,11,16,11v4h1v-1.079C20.164,13.467,22.647,10.904,22.965,7.698z"/>
		<path fill="#6CD275" d="M16,15c0,0-1.86-2.791-3.787-0.297c-0.132,0.171-0.132,0.424,0,0.595C14.14,17.791,16,15,16,15z"/>
		<path fill="#60C46F" d="M19.746,14.677C19.146,13.992,17.573,12.641,16,15c1.573,2.359,3.146,1.008,3.746,0.323
			C19.908,15.138,19.908,14.862,19.746,14.677z"/>
		<ellipse fill="#D786B3" cx="12.5" cy="25" rx="1.5" ry="2"/>
		<ellipse fill="#C976A3" cx="19.5" cy="25" rx="1.5" ry="2"/>
		<circle fill="#C84054" cx="13" cy="20" r="1"/>
		<circle fill="#B93D4F" cx="19" cy="20" r="1"/>
		<circle fill="#FFFFFF" cx="13" cy="19.75" r="0.25"/>
		<circle fill="#F7F7F7" cx="19" cy="19.75" r="0.25"/>
		<path fill="#9A3644" d="M15,21.5c0,0,0-0.5,1-0.5v2C16,23,15,23,15,21.5z"/>
		<path fill="#8A323F" d="M17,21.5c0,0,0-0.5-1-0.5v2C16,23,17,23,17,21.5z"/>
	</g>
</g>
</svg>
