<?xml version="1.0" encoding="utf-8"?>
<!-- Generator: Adobe Illustrator 23.0.6, SVG Export Plug-In . SVG Version: 6.00 Build 0)  -->
<svg version="1.1" xmlns="http://www.w3.org/2000/svg" xmlns:xlink="http://www.w3.org/1999/xlink" x="0px" y="0px" width="32px"
	 height="32px" viewBox="0 0 32 32" enable-background="new 0 0 32 32" xml:space="preserve">
<g id="labels">
	<g>
	</g>
</g>
<g id="icons">
	<path fill="#84ED82" d="M16,16.5c-0.75,0-1.344,0-2,0c0,1.576-0.356,2.715-0.767,3.692c-3.87-4.858-5.666-1.238-8.165-1.238
		c-1.532,0-3.361-2.003-4.046-4.004c-0.172-0.502-0.916-0.408-0.964,0.121c-0.322,3.536,1.69,8.946,4.936,8.946
		c3.235,0,2.858-5.082,7.379-1.86C12.153,22.732,12,23.321,12,23.999c0,1.173,0.513,2.322,1.416,3.095
		c-0.427,2.567-2.51,1.674-4.416,1.674c-1.562,0-4,0.312-4,1.281s2.438,0.469,2.438,0.469s-1.395,0.574-0.688,1.281
		c0.734,0.734,2.031-0.781,5.25-0.781c2.335,0,2.903-1.61,3.026-3.104c0.306,0.071,0.629,0.117,0.975,0.117V16.5z"/>
	<path fill="#E8BA36" d="M16,6.256V2.187c-1.176-0.519-2.767-0.354-3.591-0.629c-0.166-0.055-0.33,0.055-0.339,0.23
		c-0.058,1.02-1.072,2.799-0.636,4.23c-1.265-0.28-2.748,0.133-3.597,0.35c-0.17,0.043-0.271,0.133-0.271,0.308
		c0,0.745-0.218,2.102,0.053,3.275c-0.271,1.173-0.053,2.529-0.053,3.275c0,0.175,0.101,0.265,0.271,0.308
		c0.827,0.211,2.254,0.602,3.496,0.365c-0.071,1.299,0.688,2.743,0.738,3.622c0.01,0.175,0.173,0.286,0.339,0.23
		c0.824-0.275,2.415-0.11,3.591-0.629v-4.069c-0.158-0.116-0.31-0.22-0.441-0.309c-0.519-0.352-1.342-0.906-2.176-0.951
		c-0.02-0.688-0.436-1.339-0.841-1.843c0.519-0.647,1.059-1.536,0.751-2.432c0.864-0.007,1.728-0.589,2.265-0.954
		C15.69,6.476,15.842,6.371,16,6.256z"/>
	<path fill="#FFD04D" d="M14.651,5.922c0.491,0.088,0.986,0.094,1.355,0.094V0c-0.076,0-0.152,0.035-0.205,0.104
		c-0.643,0.841-2.579,1.787-2.927,3.309c-1.241-0.26-2.735,0.18-3.583,0.066c-0.174-0.023-0.313,0.116-0.29,0.29
		C9.105,4.546,8.752,5.863,8.89,7.033c-1.192,0.628-2.001,2.155-2.73,2.713c-0.139,0.106-0.139,0.304,0,0.41
		c0.729,0.557,1.537,2.083,2.728,2.712c-0.134,1.167,0.217,2.477,0.113,3.25c-0.023,0.174,0.116,0.313,0.29,0.29
		c0.847-0.113,2.341,0.327,3.583,0.066c0.348,1.523,2.284,2.468,2.927,3.309c0.053,0.07,0.129,0.104,0.205,0.104v-6.016
		c-0.368,0-0.864,0.006-1.355,0.094c-0.224-0.779-0.896-1.453-1.325-1.883c-0.319-0.319-0.773-0.771-1.305-1.075
		c0.044-0.389,0.049-0.764,0.049-1.058c0-0.297-0.005-0.677-0.051-1.07c0.532-0.304,0.987-0.756,1.307-1.076
		C13.756,7.376,14.428,6.701,14.651,5.922z"/>
	<path fill="#FFEAA7" d="M10.131,9.754c0,1.339,0.453,2.569,1.207,3.557c0.744-0.984,1.19-2.206,1.19-3.535
		c0-1.339-0.453-2.569-1.207-3.557C10.577,7.204,10.131,8.426,10.131,9.754z"/>
	<g>
		<path fill="none" d="M16.006,3.879v11.75c-3.245,0-5.875-2.63-5.875-5.875C10.131,6.51,12.761,3.879,16.006,3.879z"/>
	</g>
	<g>
		<path fill="none" d="M16.006,3.879v11.75c-3.245,0-5.875-2.63-5.875-5.875C10.131,6.51,12.761,3.879,16.006,3.879z"/>
	</g>
	<path fill="#78DF7C" d="M31.949,15.071c-0.048-0.529-0.792-0.623-0.964-0.121c-0.685,2.001-2.514,4.004-4.046,4.004
		c-2.5,0-4.296-3.62-8.165,1.238c-0.411-0.978-0.767-2.117-0.767-3.692c-0.656,0-1.25,0-2,0v11.531c0.346,0,0.668-0.046,0.975-0.117
		c0.123,1.494,0.69,3.104,3.026,3.104c3.219,0,4.516,1.516,5.25,0.781c0.707-0.707-0.688-1.281-0.688-1.281s2.438,0.5,2.438-0.469
		s-2.438-1.281-4-1.281c-1.907,0-3.989,0.894-4.416-1.674c0.903-0.773,1.416-1.922,1.416-3.095c0-0.678-0.153-1.267-0.372-1.843
		c4.521-3.221,4.144,1.86,7.379,1.86C30.259,24.017,32.271,18.606,31.949,15.071z"/>
	<path fill="#E0B12E" d="M24.441,6.676c0-0.175-0.101-0.265-0.271-0.308c-0.849-0.217-2.333-0.63-3.597-0.35
		c0.436-1.431-0.578-3.21-0.636-4.23c-0.01-0.175-0.173-0.286-0.339-0.23c-0.824,0.275-2.415,0.11-3.591,0.629v4.069
		c0.158,0.116,0.31,0.22,0.441,0.309c0.537,0.365,1.401,0.947,2.265,0.954c-0.308,0.896,0.233,1.785,0.751,2.432
		c-0.404,0.505-0.82,1.156-0.841,1.843c-0.834,0.044-1.657,0.599-2.176,0.951c-0.131,0.089-0.283,0.193-0.441,0.309v4.069
		c1.176,0.519,2.767,0.354,3.591,0.629c0.166,0.055,0.33-0.055,0.339-0.23c0.05-0.879,0.809-2.324,0.738-3.622
		c1.242,0.238,2.669-0.154,3.496-0.365c0.17-0.043,0.271-0.133,0.271-0.308c0-0.745,0.218-2.102-0.053-3.275
		C24.659,8.779,24.441,7.422,24.441,6.676z"/>
	<path fill="#F7C845" d="M25.847,9.746c-0.729-0.557-1.538-2.085-2.73-2.713c0.138-1.17-0.215-2.487-0.112-3.263
		c0.023-0.174-0.116-0.313-0.29-0.29c-0.847,0.113-2.341-0.327-3.583-0.066c-0.348-1.523-2.284-2.468-2.927-3.309
		C16.152,0.035,16.076,0,16,0v6.016c0.368,0,0.864-0.006,1.355-0.094c0.223,0.779,0.896,1.453,1.325,1.883
		c0.319,0.319,0.774,0.772,1.307,1.076c-0.046,0.393-0.051,0.773-0.051,1.07c0,0.294,0.005,0.669,0.049,1.058
		c-0.531,0.304-0.986,0.756-1.305,1.075c-0.43,0.43-1.102,1.104-1.325,1.883c-0.491-0.088-0.986-0.094-1.355-0.094v6.016
		c0.076,0,0.152-0.035,0.205-0.104c0.643-0.841,2.579-1.787,2.927-3.309c1.241,0.26,2.735-0.18,3.583-0.066
		c0.174,0.023,0.313-0.116,0.29-0.29c-0.103-0.773,0.247-2.083,0.113-3.25c1.191-0.629,2-2.155,2.728-2.712
		C25.986,10.05,25.986,9.852,25.847,9.746z"/>
	<path fill="#FFEAA7" d="M21.875,9.754c0-3.243-2.627-5.871-5.869-5.875v0c-0.001,0-0.002,0-0.003,0s-0.002,0-0.003,0v0
		c-3.242,0.003-5.869,2.632-5.869,5.875c0,3.243,2.627,5.872,5.869,5.875v0c0.001,0,0.002,0,0.003,0s0.002,0,0.003,0v0
		C19.248,15.626,21.875,12.997,21.875,9.754z"/>
	<path fill="#FEF1C6" d="M16.006,3.879v11.75c-3.245,0-5.875-2.63-5.875-5.875C10.131,6.51,12.761,3.879,16.006,3.879z"/>
	<path fill="#FFEAA7" d="M10.131,9.754c0,1.339,0.453,2.569,1.207,3.557c0.744-0.984,1.19-2.206,1.19-3.535
		c0-1.339-0.453-2.569-1.207-3.557C10.577,7.204,10.131,8.426,10.131,9.754z"/>
	<path fill="#FFE28A" d="M19.478,9.777c0,1.329,0.446,2.55,1.19,3.535c0.754-0.988,1.207-2.218,1.207-3.557
		c0-1.329-0.446-2.55-1.19-3.535C19.931,7.208,19.478,8.438,19.478,9.777z"/>
	<g>
		<g>
			<path fill="#373F3F" d="M14.984,9.142c-0.076,0-0.152-0.035-0.201-0.101l-1.139-1.535c-0.044-0.059-0.109-0.095-0.182-0.1
				c-0.077-0.005-0.143,0.02-0.195,0.072l-1.09,1.09c-0.098,0.098-0.256,0.098-0.354,0s-0.098-0.256,0-0.354l1.09-1.09
				c0.154-0.155,0.37-0.233,0.585-0.218c0.218,0.016,0.417,0.126,0.547,0.301l1.139,1.535c0.083,0.111,0.059,0.268-0.052,0.35
				C15.088,9.126,15.036,9.142,14.984,9.142z"/>
		</g>
		<g>
			<path fill="#2B3332" d="M14.984,9.142c-0.076,0-0.152-0.035-0.201-0.101l-1.139-1.535c-0.044-0.059-0.109-0.095-0.182-0.1
				c-0.077-0.005-0.143,0.02-0.195,0.072l-1.09,1.09c-0.098,0.098-0.256,0.098-0.354,0s-0.098-0.256,0-0.354l1.09-1.09
				c0.154-0.155,0.37-0.233,0.585-0.218c0.218,0.016,0.417,0.126,0.547,0.301l1.139,1.535c0.083,0.111,0.059,0.268-0.052,0.35
				C15.088,9.126,15.036,9.142,14.984,9.142z"/>
		</g>
	</g>
	<g>
		<path fill="#2B3332" d="M17.223,9.041l1.139-1.535c0.044-0.059,0.109-0.095,0.182-0.1c0.081-0.004,0.144,0.02,0.195,0.072
			l1.09,1.09c0.098,0.098,0.256,0.098,0.354,0s0.098-0.256,0-0.354l-1.09-1.09c-0.154-0.155-0.372-0.232-0.585-0.218
			C18.29,6.923,18.09,7.033,17.96,7.208l-1.139,1.535c-0.083,0.111-0.059,0.268,0.052,0.35c0.045,0.033,0.097,0.049,0.149,0.049
			C17.098,9.142,17.174,9.107,17.223,9.041z"/>
	</g>
	<path fill="#D84459" d="M18.306,10.317c-0.581,0.589-1.126,0.825-2.306,0.825s-1.726-0.236-2.306-0.825
		c-0.252-0.256-0.671-0.032-0.604,0.321c0.373,1.959,1.692,3.004,2.91,3.004s2.537-1.045,2.91-3.004
		C18.977,10.285,18.558,10.062,18.306,10.317z"/>
	<path fill="#E85160" d="M15.999,13.642c-1.219,0-2.536-1.045-2.91-3.004c-0.067-0.353,0.352-0.576,0.604-0.321
		c0.581,0.589,1.126,0.825,2.306,0.825L15.999,13.642z"/>
</g>
</svg>
