<?xml version="1.0" encoding="utf-8"?>
<!-- Generator: Adobe Illustrator 23.0.6, SVG Export Plug-In . SVG Version: 6.00 Build 0)  -->
<svg version="1.1" xmlns="http://www.w3.org/2000/svg" xmlns:xlink="http://www.w3.org/1999/xlink" x="0px" y="0px" width="32px"
	 height="32px" viewBox="0 0 32 32" enable-background="new 0 0 32 32" xml:space="preserve">
<g id="labels">
	<g>
	</g>
</g>
<g id="icons">
	<g>
		<path fill="#4390BF" d="M16,24.781v6.969c-1.427,0-2.25-1.958-2.25-3.542C13.75,26.208,14.573,24.781,16,24.781z"/>
		<path fill="#5CA3D5" d="M12.778,0.062c-0.08-0.113-0.258-0.064-0.267,0.074c-0.201,3.389,0.767,6.159,1.155,6.865
			c0.445,0.808,1.787,0.62,1.75,0C15.35,5.871,13.702,1.358,12.778,0.062z"/>
		<path fill="#529CCF" d="M19.222,0.062c0.08-0.113,0.258-0.064,0.267,0.074c0.201,3.389-0.767,6.159-1.155,6.865
			c-0.445,0.808-1.787,0.62-1.75,0C16.65,5.871,18.298,1.358,19.222,0.062z"/>
		<path fill="#DADDDC" d="M15.95,14.394v1.383c-3.018-0.677-8.868-2.853-11-3.965C2.538,10.554-0.862,8,0.2,5.999
			c0.825-1.555,3.689-2.014,6.75,0.564c3.562,3,6.145,5.886,8.062,7.25C15.328,14.037,15.645,14.224,15.95,14.394z"/>
		<path fill="#7FB8E0" d="M4.906,5.255l-2.452,4.967C3.265,10.847,4.16,11.4,4.95,11.813c0.625,0.326,1.575,0.745,2.675,1.189
			l1.551-4.475C8.478,7.887,7.742,7.229,6.95,6.563C6.251,5.974,5.563,5.55,4.906,5.255z"/>
		<path fill="#E3E5E5" d="M15.95,18.283v1.44c-2.698-0.338-8.035-1.881-10-2.723c-2.501-1.072-5.41-3.305-5-5.001
			c0.438-1.811,3.062-1.686,5.75-0.499c3.019,1.334,6.145,4.698,8.062,6.063C15.165,17.849,15.572,18.08,15.95,18.283z"/>
		<path fill="#8EC0E0" d="M4.75,10.828l-2.073,4.181c0.95,0.795,2.151,1.51,3.273,1.991c0.456,0.195,1.098,0.429,1.841,0.676
			l1.579-4.555c-0.878-0.646-1.712-1.211-2.605-1.606C6.098,11.221,5.391,10.922,4.75,10.828z"/>
		<path fill="#4896C8" d="M16,20.865v6.969c-1.427,0-2.75-1.083-2.75-3.292C13.25,22.893,14.573,20.865,16,20.865z"/>
		<path fill="#529CCF" d="M16,18.323v6.969c-1.427,0-3-1.083-3-3.292C13,20.352,14.573,18.323,16,18.323z"/>
		<path fill="#5CA3D5" d="M16,15.781V22.5c-1.427,0-3.5-1.125-3.5-3.5C12.5,16.813,14.573,15.781,16,15.781z"/>
		<path fill="#65A9DC" d="M8.966,11.814c0,2.51,2.102,4.825,4.988,5.59c0.314,0.57,0.927,1.154,2.046,1.154V17.67v-2.311V6.25
			C12.115,6.25,8.966,8.741,8.966,11.814z"/>
		<path fill="#4896C8" d="M12.417,29.879c-0.752-0.352-1.691-0.629-2.667-0.629c-1.219,0-3,0.426-3,1c0,0.801,1.5,1,3,1
			c0.869,0,1.649-0.06,2.277-0.146C12.36,32.057,14.225,32,16,32v-3.5C14.158,28.5,13,29.206,12.417,29.879z"/>
		<path fill="#424B7E" d="M14.766,19.444c-0.536,0.197-3.17,1.189-3.891,1.368c-0.574,0.142-0.828,0.458-1.091,1.071
			C9.56,22.407,9.182,23.048,8.9,23.455c-0.077,0.111-0.25,0.312-0.375-0.094c-0.056-0.181-0.199-0.588-0.199-0.588l-0.915,0.588
			c0,0-0.588,0.196,0.457-1.438c1.045-1.634,2.101-1.86,3.071-2.014c0.997-0.159,2.486-0.851,3.738-1.227
			C15.071,18.564,15.091,19.325,14.766,19.444z M14.562,20.396c-1.042,0.271-1.871,0.241-2.917,1.875
			c-1.045,1.634-0.52,1.479-0.52,1.479l0.915-0.588c0,0,0.143,0.407,0.199,0.588c0.125,0.406,0.298,0.205,0.375,0.094
			c0.281-0.406,0.659-1.047,0.884-1.571c0.262-0.612,0.569-1.084,1.148-1.21C15.125,20.958,15.086,20.26,14.562,20.396z"/>
		<line fill="none" x1="16" y1="9.594" x2="16" y2="18.375"/>
		<path fill="#D1D4D4" d="M16.987,13.812c1.918-1.364,4.5-4.25,8.062-7.25c3.061-2.578,5.925-2.118,6.75-0.564
			c1.063,2.001-2.338,4.555-4.75,5.814c-2.132,1.112-7.982,3.288-11,3.965v-1.383C16.355,14.224,16.672,14.037,16.987,13.812z"/>
		<path fill="#71B1E1" d="M27.094,5.255l2.452,4.967c-0.811,0.626-1.706,1.178-2.496,1.591c-0.625,0.326-1.575,0.745-2.675,1.189
			l-1.551-4.475c0.698-0.64,1.434-1.298,2.226-1.965C25.749,5.974,26.437,5.55,27.094,5.255z"/>
		<path fill="#DADDDC" d="M17.237,17.562c1.918-1.364,5.043-4.729,8.062-6.062c2.688-1.188,5.312-1.312,5.75,0.499
			c0.41,1.696-2.499,3.929-5,5.001c-1.965,0.842-7.302,2.384-10,2.723v-1.44C16.428,18.08,16.835,17.849,17.237,17.562z"/>
		<path fill="#7FB8E0" d="M27.267,10.82l2.057,4.189c-0.95,0.795-2.151,1.51-3.273,1.991c-0.456,0.195-1.098,0.429-1.841,0.676
			l-1.579-4.555c0.878-0.646,1.712-1.201,2.606-1.596C25.903,11.231,26.601,10.97,27.267,10.82z"/>
		<path fill="#3E88B3" d="M18.25,28.208c0,1.583-0.823,3.542-2.25,3.542v-6.969C17.427,24.781,18.25,26.208,18.25,28.208z"/>
		<path fill="#4390BF" d="M18.75,24.542c0,2.208-1.323,3.292-2.75,3.292v-6.969C17.427,20.865,18.75,22.893,18.75,24.542z"/>
		<path fill="#4896C8" d="M19,22c0,2.208-1.573,3.292-3,3.292v-6.969C17.427,18.323,19,20.352,19,22z"/>
		<path fill="#529CCF" d="M19.5,19c0,2.375-2.073,3.5-3.5,3.5v-6.719C17.427,15.781,19.5,16.812,19.5,19z"/>
		<path fill="#5CA3D5" d="M23.034,11.814c0-3.073-3.149-5.564-7.034-5.564v12.307c1.119,0,1.732-0.584,2.046-1.154
			C20.933,16.639,23.034,14.323,23.034,11.814z"/>
		<line fill="none" x1="16" y1="9.594" x2="16" y2="18.375"/>
		<path fill="#93C427" d="M21.115,8.012c-2.865,0-2.949,2.974-5.115,2.974s-2.25-2.974-5.115-2.974C9.149,8.012,7.5,9.844,7.5,12.5
			s1.649,4.488,3.385,4.488c2.865,0,2.949-2.974,5.115-2.974s2.25,2.974,5.115,2.974c1.736,0,3.385-1.832,3.385-4.488
			S22.851,8.012,21.115,8.012z"/>
		<path fill="#9ACC2E" d="M21.115,8.012c1.736,0,3.385,1.832,3.385,4.488c-1.547,1.913-6.302,1.088-6.734-2.402
			C18.592,9.221,19.288,8.012,21.115,8.012z"/>
		<path fill="#4390BF" d="M22.25,29.25c-0.975,0-1.914,0.277-2.667,0.629C19,29.206,17.842,28.5,16,28.5V32
			c1.775,0,3.64,0.057,3.973-0.896c0.628,0.086,1.408,0.146,2.277,0.146c1.5,0,3-0.199,3-1C25.25,29.676,23.469,29.25,22.25,29.25z"
			/>
		<ellipse fill="#2B3332" cx="21.13" cy="12.5" rx="1.37" ry="2.25"/>
		<ellipse fill="#F7F7F7" cx="20.88" cy="12" rx="0.5" ry="0.875"/>
		<path fill="#3A4274" d="M17.322,18.682c1.252,0.376,2.741,1.068,3.738,1.227c0.97,0.155,2.026,0.381,3.071,2.014
			c1.045,1.634,0.457,1.438,0.457,1.438l-0.915-0.588c0,0-0.143,0.407-0.199,0.588c-0.125,0.406-0.298,0.205-0.375,0.094
			c-0.281-0.406-0.659-1.047-0.884-1.571c-0.262-0.612-0.517-0.929-1.091-1.071c-0.722-0.179-3.356-1.172-3.891-1.368
			C16.909,19.325,16.929,18.564,17.322,18.682z M17.354,21.062c0.578,0.126,0.885,0.598,1.148,1.21
			c0.225,0.524,0.602,1.165,0.884,1.571c0.077,0.111,0.25,0.312,0.375-0.094c0.056-0.181,0.199-0.588,0.199-0.588l0.915,0.588
			c0,0,0.526,0.154-0.52-1.479c-1.045-1.634-1.875-1.604-2.917-1.875C16.914,20.26,16.875,20.958,17.354,21.062z"/>
		<path fill="#9ACC2E" d="M10.885,8.012C9.149,8.012,7.5,9.844,7.5,12.5s1.649,4.488,3.385,4.488c2.865,0,2.949-2.974,5.115-2.974
			v-3.028C13.833,10.986,13.75,8.012,10.885,8.012z"/>
		<path fill="#A2D336" d="M10.885,8.012C9.149,8.012,7.5,9.844,7.5,12.5c1.547,1.913,6.302,1.088,6.734-2.402
			C13.408,9.221,12.712,8.012,10.885,8.012z"/>
		<ellipse fill="#373F3F" cx="10.87" cy="12.5" rx="1.37" ry="2.25"/>
		<ellipse fill="#FFFFFF" cx="11.12" cy="12" rx="0.5" ry="0.875"/>
	</g>
</g>
</svg>
