<?xml version="1.0" encoding="utf-8"?>
<!-- Generator: Adobe Illustrator 23.0.6, SVG Export Plug-In . SVG Version: 6.00 Build 0)  -->
<svg version="1.1" xmlns="http://www.w3.org/2000/svg" xmlns:xlink="http://www.w3.org/1999/xlink" x="0px" y="0px" width="32px"
	 height="32px" viewBox="0 0 32 32" enable-background="new 0 0 32 32" xml:space="preserve">
<g id="labels">
	<g>
	</g>
</g>
<g id="icons">
	<g>
		<path fill="#468DAC" d="M15.746,2.792c-2.458,1-9.5,0.458-11,3.542c-0.984,2.023,0.583,4-0.25,5.667
			c-0.648,1.295-2.206,1.755-4.032-1.044c-0.142-0.218-0.488-0.111-0.462,0.147c0.277,2.716,1.532,7.022,5.744,7.022
			C16.871,18.125,15.746,2.792,15.746,2.792z"/>
		<path fill="#468DAC" d="M4.558,8.188c0.417,2.417-1.468,2.175-2.194,1.525c-0.105-0.094-0.269-0.021-0.258,0.12
			c0.139,1.745,1.203,4.213,5.733,4.063C12.235,13.75,4.558,8.188,4.558,8.188z"/>
		<path fill="#3A89A8" d="M4.75,19.5c0,1.901,2.417,1.083,3,3c0.568,1.866-3.776,2.869-2,5c1.667,2,3.083-0.833,5,0.083
			C12.21,28.281,12.5,31,16,31V17C16,17,4.75,17.125,4.75,19.5z"/>
		<path fill="#5091AF" d="M6,12c0,4.971,4.477,9,10,9V3C10.477,3,6,7.029,6,12z"/>
		<path fill="#5091AF" d="M12.5,3.333c0,1.289,1.567,2.333,3.5,2.333V1C14.067,1,12.5,2.045,12.5,3.333z"/>
		<path fill="#5091AF" d="M15.996,3.688c-2.188,0-3.625-2.062-6-1.688c-2.593,0.409-2.875,3-5,3C3.395,5,2.752,4.291,2.345,3.62
			c-0.126-0.208-0.44-0.128-0.464,0.114C1.703,5.499,2.256,7.052,3.121,8C6.996,12.25,13.75,9.812,16,9.812L15.996,3.688z"/>
		<path fill="#FFC172" d="M15,10c0,2.209-1.791,4-4,4s-4-1.791-4-4S15,7.791,15,10z"/>
		<path fill="#F3586F" d="M15,10c0-1.35-2.985-1.871-5.308-1.571C9.262,9.011,9,9.722,9,10.5c0,1.683,1.189,3.087,2.773,3.422
			C13.612,13.562,15,11.944,15,10z"/>
		<path fill="#373F3F" d="M13.646,8.724c-0.573-0.195-1.275-0.313-2.009-0.356C11.253,8.73,11,9.324,11,10c0,1.105,0.672,2,1.5,2
			s1.5-0.895,1.5-2C14,9.512,13.864,9.071,13.646,8.724z"/>
		<path fill="#FF5F7E" d="M3.375,5.935h0.812c0.069,0,0.125-0.056,0.125-0.125V4.942c-1.108-0.173-1.626-0.76-1.968-1.325
			C2.22,3.412,1.906,3.485,1.881,3.724C1.761,4.91,1.975,5.996,2.387,6.873H3.25c0.069,0,0.125-0.056,0.125-0.125V5.935z"/>
		<path fill="#F3586F" d="M4.125,9.982c-0.528,0.344-1.347,0.104-1.768-0.278c-0.1-0.091-0.262-0.009-0.251,0.125
			c0.051,0.639,0.228,1.374,0.651,2.043h0.305c0.069,0,0.125-0.056,0.125-0.125v-0.812H4c0.069,0,0.125-0.056,0.125-0.125V9.982z"/>
		<path fill="#F3586F" d="M2.187,12.756c-0.531-0.298-1.116-0.867-1.732-1.815c-0.142-0.218-0.48-0.1-0.454,0.158
			c0.105,1.032,0.353,2.293,0.849,3.461h0.275c0.069,0,0.125-0.056,0.125-0.125v-0.812h0.812c0.069,0,0.125-0.056,0.125-0.125
			V12.756z"/>
		<path fill="#3A89A8" d="M16.254,2.792c2.458,1,9.5,0.458,11,3.542c0.984,2.023-0.583,4,0.25,5.667
			c0.648,1.295,2.206,1.755,4.032-1.044c0.142-0.218,0.488-0.111,0.462,0.147c-0.277,2.716-1.532,7.022-5.744,7.022
			C15.129,18.125,16.254,2.792,16.254,2.792z"/>
		<path fill="#3A89A8" d="M27.442,8.188c-0.417,2.417,1.468,2.175,2.194,1.525c0.105-0.094,0.269-0.021,0.258,0.12
			c-0.139,1.745-1.203,4.213-5.733,4.063C19.765,13.75,27.442,8.188,27.442,8.188z"/>
		<path fill="#3085A6" d="M27.262,19.5c0,1.901-2.417,1.083-3,3c-0.568,1.866,3.776,2.869,2,5c-1.667,2-3.083-0.833-5,0.083
			C19.802,28.281,19.5,31,16,31V17C16,17,27.262,17.125,27.262,19.5z"/>
		<path fill="#468DAC" d="M26.012,12c0,4.971-4.489,9-10.012,9l0.012-18C21.535,3,26.012,7.029,26.012,12z"/>
		<path fill="#E85160" d="M18.595,19.75c-0.323,0-0.598,0.164-0.781,0.402C17.491,19.473,16.8,19,16,19
			c-0.799,0-1.484,0.472-1.804,1.15c-0.183-0.237-0.457-0.4-0.779-0.4c-0.552,0-1,0.448-1,1c0,0.552,0.448,1,1,1
			c0.252,0,0.476-0.102,0.652-0.256C14.29,22.358,15.067,23,16,23c0.933,0,1.719-0.642,1.942-1.506
			c0.176,0.154,0.4,0.256,0.653,0.256c0.552,0,1-0.448,1-1C19.595,20.198,19.147,19.75,18.595,19.75z"/>
		<path fill="#468DAC" d="M16,3.688c2.187,0,3.641-2.062,6.016-1.688c2.593,0.409,2.875,3,5,3c1.601,0,2.244-0.709,2.651-1.38
			c0.126-0.208,0.44-0.128,0.464,0.114c0.177,1.764-0.376,3.318-1.24,4.266C25.016,12.25,18.25,9.812,16,9.812V3.688z"/>
		<path fill="#FFB76D" d="M17.012,10c0,2.209,1.791,4,4,4s4-1.791,4-4S17.012,7.791,17.012,10z"/>
		<path fill="#E85160" d="M17.012,10c0-1.35,2.985-1.871,5.308-1.571c0.429,0.581,0.692,1.293,0.692,2.071
			c0,1.683-1.189,3.087-2.773,3.422C18.4,13.562,17.012,11.944,17.012,10z"/>
		<path fill="#2B3332" d="M18.366,8.724c0.573-0.195,1.275-0.313,2.009-0.356C20.759,8.73,21.012,9.324,21.012,10
			c0,1.105-0.672,2-1.5,2s-1.5-0.895-1.5-2C18.012,9.512,18.148,9.071,18.366,8.724z"/>
		<path fill="#468DAC" d="M19.5,3.333c0,1.289-1.567,2.333-3.5,2.333V1C17.933,1,19.5,2.045,19.5,3.333z"/>
		<g>
			<path fill="#F3586F" d="M28.625,5.935h-0.812c-0.069,0-0.125-0.056-0.125-0.125V4.942c1.108-0.173,1.626-0.76,1.968-1.325
				c0.125-0.205,0.438-0.133,0.463,0.107c0.121,1.186-0.094,2.272-0.506,3.149H28.75c-0.069,0-0.125-0.056-0.125-0.125V5.935z"/>
			<path fill="#E85160" d="M27.875,9.982c0.528,0.344,1.347,0.104,1.768-0.278c0.1-0.091,0.262-0.009,0.251,0.125
				c-0.051,0.639-0.228,1.374-0.651,2.043h-0.305c-0.069,0-0.125-0.056-0.125-0.125v-0.812H28c-0.069,0-0.125-0.056-0.125-0.125
				V9.982z"/>
			<path fill="#E85160" d="M29.812,12.756c0.531-0.298,1.116-0.867,1.732-1.815c0.142-0.218,0.48-0.1,0.454,0.158
				c-0.105,1.032-0.353,2.293-0.849,3.461h-0.275c-0.069,0-0.125-0.056-0.125-0.125v-0.812h-0.812c-0.069,0-0.125-0.056-0.125-0.125
				V12.756z"/>
		</g>
		<path fill="#F3586F" d="M14.196,20.15c-0.183-0.237-0.457-0.4-0.779-0.4c-0.552,0-1,0.448-1,1c0,0.552,0.448,1,1,1
			c0.252,0,0.476-0.102,0.652-0.256C14.29,22.358,15.067,23,16,23v-4C15.201,19,14.516,19.472,14.196,20.15z"/>
	</g>
</g>
</svg>
