<?xml version="1.0" encoding="utf-8"?>
<!-- Generator: Adobe Illustrator 23.0.6, SVG Export Plug-In . SVG Version: 6.00 Build 0)  -->
<svg version="1.1" xmlns="http://www.w3.org/2000/svg" xmlns:xlink="http://www.w3.org/1999/xlink" x="0px" y="0px" width="32px"
	 height="32px" viewBox="0 0 32 32" enable-background="new 0 0 32 32" xml:space="preserve">
<g id="labels">
	<g>
	</g>
</g>
<g id="icons">
	<path fill="#FFFFFF" d="M16,8.5c-4.142,0-7.5,3.358-7.5,7.5s3.358,7.5,7.5,7.5V8.5z"/>
	<path fill="#F7F7F7" d="M23.5,16c0-4.142-3.358-7.5-7.5-7.5v15C20.142,23.5,23.5,20.142,23.5,16z"/>
	<path fill="#373F3F" d="M16,13.5c-1.381,0-2.5,1.119-2.5,2.5c0,1.381,1.119,2.5,2.5,2.5V13.5z"/>
	<path fill="#2B3332" d="M18.5,16c0-1.381-1.119-2.5-2.5-2.5v5C17.381,18.5,18.5,17.381,18.5,16z"/>
	<circle fill="#FFFFFF" cx="15.5" cy="15.5" r="1"/>
	<path fill="#377AA0" d="M23.774,21.653c-0.031-0.031-0.072-0.042-0.105-0.07C24.815,20.014,25.5,18.088,25.5,16
		s-0.685-4.014-1.831-5.583c0.033-0.028,0.074-0.039,0.105-0.07l6.786-6.786c0.586-0.585,0.586-1.536,0-2.121
		c-0.586-0.586-1.535-0.586-2.121,0l-6.786,6.786c-0.031,0.031-0.042,0.072-0.07,0.105C20.014,7.185,18.088,6.5,16,6.5v3
		c3.584,0,6.5,2.916,6.5,6.5s-2.916,6.5-6.5,6.5v3c2.088,0,4.014-0.685,5.583-1.831c0.028,0.033,0.039,0.074,0.07,0.105l6.786,6.786
		C28.732,30.854,29.116,31,29.5,31s0.768-0.146,1.061-0.439c0.586-0.585,0.586-1.536,0-2.121L23.774,21.653z"/>
	<path fill="#3980A8" d="M16,9.5v-3c-2.088,0-4.014,0.685-5.583,1.831c-0.028-0.033-0.039-0.074-0.07-0.105L3.561,1.439
		c-0.586-0.586-1.535-0.586-2.121,0c-0.586,0.585-0.586,1.536,0,2.121l6.786,6.786c0.031,0.031,0.072,0.042,0.105,0.07
		C7.185,11.986,6.5,13.912,6.5,16s0.685,4.014,1.831,5.583c-0.033,0.028-0.074,0.039-0.105,0.07l-6.786,6.786
		c-0.586,0.585-0.586,1.536,0,2.121C1.732,30.854,2.116,31,2.5,31s0.768-0.146,1.061-0.439l6.786-6.786
		c0.031-0.031,0.042-0.072,0.07-0.105C11.986,24.815,13.912,25.5,16,25.5v-3c-3.584,0-6.5-2.916-6.5-6.5S12.416,9.5,16,9.5z"/>
</g>
</svg>
