<?xml version="1.0" encoding="utf-8"?>
<!-- Generator: Adobe Illustrator 23.0.6, SVG Export Plug-In . SVG Version: 6.00 Build 0)  -->
<svg version="1.1" xmlns="http://www.w3.org/2000/svg" xmlns:xlink="http://www.w3.org/1999/xlink" x="0px" y="0px" width="32px"
	 height="32px" viewBox="0 0 32 32" enable-background="new 0 0 32 32" xml:space="preserve">
<g id="labels">
	<g>
	</g>
</g>
<g id="icons">
	<g>
		<path fill="#2B3332" d="M18,13.215V2c0-1.105-0.895-2-2-2v32c5.247,0,9.5-4.253,9.5-9.5C25.5,17.94,22.286,14.134,18,13.215z"/>
		<path fill="#373F3F" d="M14,2v11.215C9.714,14.134,6.5,17.94,6.5,22.5c0,5.247,4.253,9.5,9.5,9.5V0C14.895,0,14,0.895,14,2z"/>
		<path fill="#FFFFFF" d="M9.587,21c-0.24,0-0.454,0.169-0.493,0.406C9.034,21.762,9,22.127,9,22.5c0,3.866,3.134,7,7,7V21H9.587z"
			/>
		<path fill="#F7F7F7" d="M16,21v8.5c3.866,0,7-3.134,7-7c0-0.373-0.034-0.738-0.093-1.094C22.867,21.169,22.654,21,22.413,21H16z"
			/>
		<path fill="#373F3F" d="M16,20c-1.381,0-2.5,1.119-2.5,2.5c0,1.381,1.119,2.5,2.5,2.5V20z"/>
		<path fill="#2B3332" d="M18.5,22.5c0-1.381-1.119-2.5-2.5-2.5v5C17.381,25,18.5,23.881,18.5,22.5z"/>
		<circle fill="#FFFFFF" cx="15.5" cy="22" r="1"/>
	</g>
</g>
</svg>
