<?xml version="1.0" encoding="utf-8"?>
<!-- Generator: Adobe Illustrator 23.0.6, SVG Export Plug-In . SVG Version: 6.00 Build 0)  -->
<svg version="1.1" xmlns="http://www.w3.org/2000/svg" xmlns:xlink="http://www.w3.org/1999/xlink" x="0px" y="0px" width="32px"
	 height="32px" viewBox="0 0 32 32" enable-background="new 0 0 32 32" xml:space="preserve">
<g id="labels">
	<g>
	</g>
</g>
<g id="icons">
	<g>
		<g>
			<path fill="#FFFFFF" d="M16,5.5c-4.142,0-7.5,3.358-7.5,7.5s3.358,7.5,7.5,7.5V5.5z"/>
			<path fill="#F7F7F7" d="M23.5,13c0-4.142-3.358-7.5-7.5-7.5v15C20.142,20.5,23.5,17.142,23.5,13z"/>
			<path fill="#373F3F" d="M16,10.5c-1.381,0-2.5,1.119-2.5,2.5c0,1.381,1.119,2.5,2.5,2.5V10.5z"/>
			<path fill="#2B3332" d="M18.5,13c0-1.381-1.119-2.5-2.5-2.5v5C17.381,15.5,18.5,14.381,18.5,13z"/>
			<circle fill="#FFFFFF" cx="15.5" cy="12.5" r="1"/>
		</g>
		<path fill="#373F3F" d="M16,6.5v-3c-5.238,0-9.5,4.262-9.5,9.5c0,2.079,0.679,3.997,1.816,5.563L5.819,21.06
			C4.06,18.842,3,16.045,3,13c0-0.829-0.671-1.5-1.5-1.5S0,12.171,0,13c0,8.822,7.178,16,16,16v-6.5V21v-1.5
			c-3.584,0-6.5-2.916-6.5-6.5S12.416,6.5,16,6.5z M14.5,22.5v3.406c-2.462-0.284-4.712-1.259-6.56-2.725l2.497-2.497
			c1.184,0.859,2.57,1.449,4.076,1.687C14.509,22.415,14.5,22.456,14.5,22.5z"/>
		<path fill="#2B3332" d="M30.5,11.5c-0.829,0-1.5,0.671-1.5,1.5c0,3.045-1.06,5.842-2.819,8.06l-2.497-2.497
			C24.821,16.997,25.5,15.079,25.5,13c0-5.238-4.262-9.5-9.5-9.5v3c3.584,0,6.5,2.916,6.5,6.5s-2.916,6.5-6.5,6.5V21v1.5V29
			c8.822,0,16-7.178,16-16C32,12.171,31.329,11.5,30.5,11.5z M17.5,25.906V22.5c0-0.044-0.009-0.085-0.013-0.128
			c1.506-0.238,2.892-0.828,4.076-1.687l2.497,2.497C22.212,24.647,19.962,25.622,17.5,25.906z"/>
	</g>
</g>
</svg>
