<?xml version="1.0" encoding="utf-8"?>
<!-- Generator: Adobe Illustrator 23.0.6, SVG Export Plug-In . SVG Version: 6.00 Build 0)  -->
<svg version="1.1" xmlns="http://www.w3.org/2000/svg" xmlns:xlink="http://www.w3.org/1999/xlink" x="0px" y="0px" width="32px"
	 height="32px" viewBox="0 0 32 32" enable-background="new 0 0 32 32" xml:space="preserve">
<g id="labels">
	<g>
	</g>
</g>
<g id="icons">
	<g>
		<path fill="#FFFFFF" d="M16,2c-4.142,0-7.5,3.358-7.5,7.5S11.858,17,16,17V2z"/>
		<path fill="#F7F7F7" d="M23.5,9.5C23.5,5.358,20.142,2,16,2v15C20.142,17,23.5,13.642,23.5,9.5z"/>
		<path fill="#373F3F" d="M16,7c-1.381,0-2.5,1.119-2.5,2.5c0,1.381,1.119,2.5,2.5,2.5V7z"/>
		<path fill="#2B3332" d="M18.5,9.5C18.5,8.119,17.381,7,16,7v5C17.381,12,18.5,10.881,18.5,9.5z"/>
		<circle fill="#FFFFFF" cx="15.5" cy="9" r="1"/>
		<path fill="#2B3332" d="M25.561,0.439c-0.586-0.586-1.535-0.586-2.121,0l-1.59,1.59C20.235,0.763,18.207,0,16,0v3
			c3.584,0,6.5,2.916,6.5,6.5S19.584,16,16,16v1v2v10.647c0.936-1.126,1.5-2.572,1.5-4.147v-6.63c4.526-0.723,8-4.643,8-9.37
			c0-1.95-0.592-3.764-1.604-5.274l1.665-1.665C26.146,1.975,26.146,1.025,25.561,0.439z"/>
		<path fill="#373F3F" d="M16,3V0c-5.238,0-9.5,4.262-9.5,9.5c0,4.727,3.474,8.647,8,9.37v6.63c0,1.93-1.57,3.5-3.5,3.5
			s-3.5-1.57-3.5-3.5C7.5,24.671,6.828,24,6,24s-1.5,0.671-1.5,1.5c0,3.584,2.916,6.5,6.5,6.5c2.009,0,3.807-0.917,5-2.353V19v-2v-1
			c-3.584,0-6.5-2.916-6.5-6.5S12.416,3,16,3z"/>
	</g>
</g>
</svg>
