<?xml version="1.0" encoding="utf-8"?>
<!-- Generator: Adobe Illustrator 23.0.6, SVG Export Plug-In . SVG Version: 6.00 Build 0)  -->
<svg version="1.1" xmlns="http://www.w3.org/2000/svg" xmlns:xlink="http://www.w3.org/1999/xlink" x="0px" y="0px" width="32px"
	 height="32px" viewBox="0 0 32 32" enable-background="new 0 0 32 32" xml:space="preserve">
<g id="labels">
	<g>
	</g>
</g>
<g id="icons">
	<g>
		<g>
			<path fill="#FFFFFF" d="M16,8.5c-4.142,0-7.5,3.358-7.5,7.5s3.358,7.5,7.5,7.5V8.5z"/>
			<path fill="#F7F7F7" d="M23.5,16c0-4.142-3.358-7.5-7.5-7.5v15C20.142,23.5,23.5,20.142,23.5,16z"/>
			<path fill="#373F3F" d="M16,13.5c-1.381,0-2.5,1.119-2.5,2.5c0,1.381,1.119,2.5,2.5,2.5V13.5z"/>
			<path fill="#2B3332" d="M18.5,16c0-1.381-1.119-2.5-2.5-2.5v5C17.381,18.5,18.5,17.381,18.5,16z"/>
			<circle fill="#FFFFFF" cx="15.5" cy="15.5" r="1"/>
		</g>
		<path fill="#377AA0" d="M29.5,1C28.671,1,28,1.671,28,2.5v23.379l-4.316-4.316C24.821,19.997,25.5,18.079,25.5,16
			c0-5.238-4.262-9.5-9.5-9.5v3c3.584,0,6.5,2.916,6.5,6.5s-2.916,6.5-6.5,6.5v3c2.079,0,3.997-0.679,5.563-1.816l6.876,6.876
			C28.726,30.848,29.11,31,29.5,31c0.193,0,0.388-0.037,0.574-0.114C30.635,30.654,31,30.107,31,29.5v-27C31,1.671,30.329,1,29.5,1z
			"/>
		<path fill="#3980A8" d="M16,9.5v-3c-2.079,0-3.997,0.679-5.563,1.816L3.561,1.439C3.132,1.011,2.487,0.88,1.926,1.114
			C1.365,1.346,1,1.893,1,2.5v27C1,30.329,1.671,31,2.5,31S4,30.329,4,29.5V6.121l4.316,4.316C7.179,12.003,6.5,13.921,6.5,16
			c0,5.238,4.262,9.5,9.5,9.5v-3c-3.584,0-6.5-2.916-6.5-6.5S12.416,9.5,16,9.5z"/>
	</g>
</g>
</svg>
