<?xml version="1.0" encoding="utf-8"?>
<!-- Generator: Adobe Illustrator 23.0.6, SVG Export Plug-In . SVG Version: 6.00 Build 0)  -->
<svg version="1.1" xmlns="http://www.w3.org/2000/svg" xmlns:xlink="http://www.w3.org/1999/xlink" x="0px" y="0px" width="32px"
	 height="32px" viewBox="0 0 32 32" enable-background="new 0 0 32 32" xml:space="preserve">
<g id="labels">
	<g>
	</g>
</g>
<g id="icons">
	<g>
		<path fill="#FFFFFF" d="M16,7.5c-4.142,0-7.5,3.358-7.5,7.5s3.358,7.5,7.5,7.5V7.5z"/>
		<path fill="#F7F7F7" d="M23.5,15c0-4.142-3.358-7.5-7.5-7.5v15C20.142,22.5,23.5,19.142,23.5,15z"/>
		<path fill="#373F3F" d="M16,12.5c-1.381,0-2.5,1.119-2.5,2.5c0,1.381,1.119,2.5,2.5,2.5V12.5z"/>
		<path fill="#2B3332" d="M18.5,15c0-1.381-1.119-2.5-2.5-2.5v5C17.381,17.5,18.5,16.381,18.5,15z"/>
		<circle fill="#FFFFFF" cx="15.5" cy="14.5" r="1"/>
		<path fill="#3980A8" d="M16,27C9.383,27,4,21.617,4,15c0-2.513,0.779-4.845,2.104-6.774l1.811,1.811
			C7.024,11.483,6.5,13.18,6.5,15c0,5.238,4.262,9.5,9.5,9.5v-3c-3.584,0-6.5-2.916-6.5-6.5s2.916-6.5,6.5-6.5v-3
			c-2.334,0-4.471,0.85-6.127,2.252L8.106,5.985C10.218,4.133,12.977,3,16,3V0C7.729,0,1,6.729,1,15
			c0,7.765,5.931,14.17,13.5,14.926V30.5c0,0.829,0.671,1.5,1.5,1.5s1.5-0.671,1.5-1.5v-2C17.5,27.671,16.829,27,16,27z"/>
		<path fill="#377AA0" d="M16,0v3c6.108,0,11.154,4.59,11.896,10.5H25.37c-0.723-4.526-4.643-8-9.37-8v3c3.584,0,6.5,2.916,6.5,6.5
			s-2.916,6.5-6.5,6.5v3c4.727,0,8.647-3.474,9.37-8H28v1.293c0,0.829,0.671,1.5,1.5,1.5s1.5-0.671,1.5-1.5V15
			C31,6.729,24.271,0,16,0z"/>
	</g>
</g>
</svg>
