<?xml version="1.0" encoding="utf-8"?>
<!-- Generator: Adobe Illustrator 23.0.6, SVG Export Plug-In . SVG Version: 6.00 Build 0)  -->
<svg version="1.1" xmlns="http://www.w3.org/2000/svg" xmlns:xlink="http://www.w3.org/1999/xlink" x="0px" y="0px" width="32px"
	 height="32px" viewBox="0 0 32 32" enable-background="new 0 0 32 32" xml:space="preserve">
<g id="labels">
	<g>
	</g>
</g>
<g id="icons">
	<g>
		<path fill="#FFFFFF" d="M16,5c-4.142,0-7.5,3.358-7.5,7.5S11.858,20,16,20V5z"/>
		<path fill="#F7F7F7" d="M23.5,12.5C23.5,8.358,20.142,5,16,5v15C20.142,20,23.5,16.642,23.5,12.5z"/>
		<path fill="#373F3F" d="M16,10c-1.381,0-2.5,1.119-2.5,2.5c0,1.381,1.119,2.5,2.5,2.5V10z"/>
		<path fill="#2B3332" d="M18.5,12.5c0-1.381-1.119-2.5-2.5-2.5v5C17.381,15,18.5,13.881,18.5,12.5z"/>
		<circle fill="#FFFFFF" cx="15.5" cy="12" r="1"/>
		<path fill="#3980A8" d="M16,6V3c-2.216,0-4.252,0.768-5.869,2.045c-0.028-0.033-0.039-0.074-0.07-0.105l-4.5-4.5
			c-0.586-0.586-1.535-0.586-2.121,0c-0.586,0.585-0.586,1.536,0,2.121l4.5,4.5c0.056,0.056,0.128,0.081,0.19,0.126
			C7.101,8.704,6.5,10.533,6.5,12.5c0,4.727,3.474,8.647,8,9.37v3.38L9.1,29.3c-0.663,0.497-0.797,1.438-0.3,2.1
			c0.498,0.664,1.439,0.797,2.1,0.3l5.1-3.825V22v-2.622V19c-3.584,0-6.5-2.916-6.5-6.5S12.416,6,16,6z"/>
		<path fill="#377AA0" d="M28.561,2.561c0.586-0.585,0.586-1.536,0-2.121c-0.586-0.586-1.535-0.586-2.121,0l-4.5,4.5
			c-0.031,0.031-0.042,0.072-0.07,0.105C20.252,3.768,18.216,3,16,3v3c3.584,0,6.5,2.916,6.5,6.5S19.584,19,16,19v0.378V22v5.875
			l5.1,3.825c0.27,0.202,0.585,0.3,0.899,0.3c0.456,0,0.906-0.207,1.201-0.6c0.497-0.663,0.362-1.603-0.3-2.1l-5.4-4.05v-3.38
			c4.526-0.723,8-4.643,8-9.37c0-1.967-0.601-3.796-1.629-5.314c0.062-0.045,0.134-0.07,0.19-0.126L28.561,2.561z"/>
	</g>
</g>
</svg>
