<?xml version="1.0" encoding="utf-8"?>
<!-- Generator: Adobe Illustrator 23.0.6, SVG Export Plug-In . SVG Version: 6.00 Build 0)  -->
<svg version="1.1" xmlns="http://www.w3.org/2000/svg" xmlns:xlink="http://www.w3.org/1999/xlink" x="0px" y="0px" width="32px"
	 height="32px" viewBox="0 0 32 32" enable-background="new 0 0 32 32" xml:space="preserve">
<g id="labels">
	<g>
	</g>
</g>
<g id="icons">
	<g>
		<path fill="#FFFFFF" d="M16,6.5c-4.142,0-7.5,3.358-7.5,7.5s3.358,7.5,7.5,7.5V6.5z"/>
		<path fill="#F7F7F7" d="M23.5,14c0-4.142-3.358-7.5-7.5-7.5v15C20.142,21.5,23.5,18.142,23.5,14z"/>
		<path fill="#373F3F" d="M16,11.5c-1.381,0-2.5,1.119-2.5,2.5c0,1.381,1.119,2.5,2.5,2.5V11.5z"/>
		<path fill="#2B3332" d="M18.5,14c0-1.381-1.119-2.5-2.5-2.5v5C17.381,16.5,18.5,15.381,18.5,14z"/>
		<circle fill="#FFFFFF" cx="15.5" cy="13.5" r="1"/>
		<path fill="#373F3F" d="M16,7.5v-3c-1.393,0-2.712,0.309-3.905,0.849l-0.68-1.351c1.429-0.655,3.004-0.983,4.579-0.983V0
			c-2.61,0.001-5.157,0.725-7.366,2.095C7.969,2.505,7.73,3.351,8.08,4.044L9.578,7.02C7.691,8.757,6.5,11.239,6.5,14
			c0,5.226,4.243,9.479,9.464,9.498l-5.959,2.086C9.403,25.795,9,26.363,9,27s0.403,1.205,1.005,1.416L16,30.514v-3.179L15.041,27
			L16,26.664V23.5v-0.014V20.5c-3.584,0-6.5-2.916-6.5-6.5S12.416,7.5,16,7.5z"/>
		<g>
			<g>
				<path fill="#2B3332" d="M25.5,14c0-2.762-1.192-5.244-3.08-6.982l1.491-2.984c0.347-0.694,0.107-1.538-0.553-1.946
					C21.151,0.722,18.606,0,16,0c-0.002,0-0.004,0-0.005,0v3.014c1.576-0.001,3.152,0.326,4.583,0.98l-0.676,1.353
					C18.709,4.808,17.391,4.5,16,4.5v3c3.584,0,6.5,2.916,6.5,6.5s-2.916,6.5-6.5,6.5v2.986V23.5v3.164l4.995-1.748
					c0.782-0.274,1.194-1.129,0.921-1.912c-0.16-0.456-0.522-0.781-0.948-0.922C23.682,20.408,25.5,17.416,25.5,14z"/>
				<path fill="#2B3332" d="M20.995,29.084L16,27.336v3.179l4.005,1.402C20.168,31.973,20.336,32,20.5,32
					c0.62,0,1.199-0.387,1.416-1.005C22.189,30.213,21.777,29.358,20.995,29.084z"/>
			</g>
			<g>
				<path fill="#2B3332" d="M25.5,14c0-2.762-1.192-5.244-3.08-6.982l1.491-2.984c0.347-0.694,0.107-1.538-0.553-1.946
					C21.151,0.722,18.606,0,16,0c-0.002,0-0.004,0-0.005,0v3.014c1.576-0.001,3.152,0.326,4.583,0.98l-0.676,1.353
					C18.709,4.808,17.391,4.5,16,4.5v3c3.584,0,6.5,2.916,6.5,6.5s-2.916,6.5-6.5,6.5v2.986V23.5v3.164l4.995-1.748
					c0.782-0.274,1.194-1.129,0.921-1.912c-0.16-0.456-0.522-0.781-0.948-0.922C23.682,20.408,25.5,17.416,25.5,14z"/>
				<path fill="#2B3332" d="M20.995,29.084L16,27.336v3.179l4.005,1.402C20.168,31.973,20.336,32,20.5,32
					c0.62,0,1.199-0.387,1.416-1.005C22.189,30.213,21.777,29.358,20.995,29.084z"/>
			</g>
		</g>
	</g>
</g>
</svg>
