<?xml version="1.0" encoding="utf-8"?>
<!-- Generator: Adobe Illustrator 23.0.6, SVG Export Plug-In . SVG Version: 6.00 Build 0)  -->
<svg version="1.1" xmlns="http://www.w3.org/2000/svg" xmlns:xlink="http://www.w3.org/1999/xlink" x="0px" y="0px" width="32px"
	 height="32px" viewBox="0 0 32 32" enable-background="new 0 0 32 32" xml:space="preserve">
<g id="labels">
	<g>
	</g>
</g>
<g id="icons">
	<g>
		<path fill="#FFFFFF" d="M16,7.5c-4.142,0-7.5,3.358-7.5,7.5s3.358,7.5,7.5,7.5V7.5z"/>
		<path fill="#F7F7F7" d="M23.5,15c0-4.142-3.358-7.5-7.5-7.5v15C20.142,22.5,23.5,19.142,23.5,15z"/>
		<path fill="#373F3F" d="M16,12.5c-1.381,0-2.5,1.119-2.5,2.5c0,1.381,1.119,2.5,2.5,2.5V12.5z"/>
		<path fill="#2B3332" d="M18.5,15c0-1.381-1.119-2.5-2.5-2.5v5C17.381,17.5,18.5,16.381,18.5,15z"/>
		<circle fill="#FFFFFF" cx="15.5" cy="14.5" r="1"/>
		<path fill="#373F3F" d="M14.5,1.5v4.13c-4.526,0.723-8,4.643-8,9.37c0,3.022,1.423,5.712,3.629,7.454l-3.486,7.408
			c-0.353,0.75-0.031,1.643,0.719,1.996C7.568,31.955,7.785,32,7.999,32c0.563,0,1.103-0.319,1.358-0.862l1.461-3.105
			C12.299,28.678,14.484,29.5,16,29.5v-3c-0.828,0-2.476-0.577-3.901-1.186l0.657-1.396C13.77,24.288,14.859,24.5,16,24.5v-3
			c-3.584,0-6.5-2.916-6.5-6.5s2.916-6.5,6.5-6.5v-3V0C15.171,0,14.5,0.671,14.5,1.5z"/>
		<path fill="#2B3332" d="M21.871,22.454C24.077,20.712,25.5,18.022,25.5,15c0-4.727-3.474-8.647-8-9.37V1.5
			C17.5,0.671,16.829,0,16,0v5.5v3c3.584,0,6.5,2.916,6.5,6.5s-2.916,6.5-6.5,6.5v3c1.141,0,2.23-0.212,3.244-0.583l0.657,1.397
			C18.477,25.923,16.831,26.5,16,26.5v3c1.516,0,3.701-0.822,5.182-1.466l1.461,3.105C22.898,31.682,23.438,32,24.001,32
			c0.214,0,0.431-0.046,0.638-0.143c0.75-0.353,1.071-1.247,0.719-1.996L21.871,22.454z"/>
	</g>
</g>
</svg>
