<?xml version="1.0" encoding="utf-8"?>
<!-- Generator: Adobe Illustrator 23.0.6, SVG Export Plug-In . SVG Version: 6.00 Build 0)  -->
<svg version="1.1" xmlns="http://www.w3.org/2000/svg" xmlns:xlink="http://www.w3.org/1999/xlink" x="0px" y="0px" width="32px"
	 height="32px" viewBox="0 0 32 32" enable-background="new 0 0 32 32" xml:space="preserve">
<g id="labels">
	<g>
	</g>
</g>
<g id="icons">
	<g>
		<path fill="#FFFFFF" d="M16,10.5c-4.142,0-7.5,3.358-7.5,7.5s3.358,7.5,7.5,7.5V10.5z"/>
		<path fill="#F7F7F7" d="M23.5,18c0-4.142-3.358-7.5-7.5-7.5v15C20.142,25.5,23.5,22.142,23.5,18z"/>
		<path fill="#373F3F" d="M16,15.5c-1.381,0-2.5,1.119-2.5,2.5c0,1.381,1.119,2.5,2.5,2.5V15.5z"/>
		<path fill="#2B3332" d="M18.5,18c0-1.381-1.119-2.5-2.5-2.5v5C17.381,20.5,18.5,19.381,18.5,18z"/>
		<circle fill="#FFFFFF" cx="15.5" cy="17.5" r="1"/>
		<path fill="#3980A8" d="M5.801,5.68l-3.24-3.24c-0.586-0.586-1.535-0.586-2.121,0c-0.586,0.585-0.586,1.536,0,2.121l3.24,3.24
			c-5.205,6.279-4.874,15.632,1.007,21.513c0.586,0.586,1.535,0.586,2.121,0c0.586-0.585,0.586-1.536,0-2.121
			c-5.068-5.069-5.068-13.316,0-18.385c2.153-2.153,4.88-3.381,7.692-3.705V8.63c-4.526,0.723-8,4.643-8,9.37
			c0,5.238,4.262,9.5,9.5,9.5v-3c-3.584,0-6.5-2.916-6.5-6.5s2.916-6.5,6.5-6.5V11V8.5V2.013C12.375,2.013,8.749,3.235,5.801,5.68z"
			/>
		<path fill="#377AA0" d="M31.561,4.561c0.586-0.585,0.586-1.536,0-2.121c-0.586-0.586-1.535-0.586-2.121,0l-3.24,3.24
			C23.251,3.235,19.625,2.013,16,2.013V8.5V11v0.5c3.584,0,6.5,2.916,6.5,6.5s-2.916,6.5-6.5,6.5v3c5.238,0,9.5-4.262,9.5-9.5
			c0-4.727-3.474-8.647-8-9.37V5.102c2.812,0.324,5.539,1.553,7.692,3.705c5.068,5.069,5.068,13.316,0,18.385
			c-0.586,0.585-0.586,1.536,0,2.121c0.293,0.293,0.677,0.439,1.061,0.439s0.768-0.146,1.061-0.439
			c5.88-5.88,6.212-15.233,1.007-21.513L31.561,4.561z"/>
	</g>
</g>
</svg>
