<?xml version="1.0" encoding="utf-8"?>
<!-- Generator: Adobe Illustrator 23.0.6, SVG Export Plug-In . SVG Version: 6.00 Build 0)  -->
<svg version="1.1" xmlns="http://www.w3.org/2000/svg" xmlns:xlink="http://www.w3.org/1999/xlink" x="0px" y="0px" width="32px"
	 height="32px" viewBox="0 0 32 32" enable-background="new 0 0 32 32" xml:space="preserve">
<g id="labels">
	<g>
	</g>
</g>
<g id="icons">
	<g>
		<circle fill="#C25E94" cx="12" cy="28.208" r="2.042"/>
		<path fill="#2B3332" d="M28.5,15.812c-2.499,0.064-4,2.062-4,4.188c0,4.125-2.375,6.75-6.5,6.75c0,0,0,2.25,0,2.75
			c11.062,0,14-5.312,14-9.5C32,17.688,30.937,15.75,28.5,15.812z"/>
		<path fill="#C25E94" d="M16,0v8.5c0,0,10.993,1.125,10.75,0C25.85,4.337,21.313,0,16,0z"/>
		<path fill="#D786B3" d="M16,0v29.5c0,0-2,0-3,0c0-6.25-6.25-11-6.25-17.75C6.75,7,9.25,0,16,0z"/>
		<path fill="#DB92BB" d="M16,0v4c-1.5,0-4.25-0.75-5.25-2.137C12.1,0.723,13.83,0,16,0z"/>
		<path fill="#C976A3" d="M16,28.625l-0.937,0c-0.873,0-1.762-0.191-2.472-0.699c-0.522-0.374-1.212-0.535-1.93-0.348
			c-0.763,0.198-1.386,0.825-1.578,1.589C8.709,30.661,9.828,32,11.261,32c0.558,0,1.065-0.205,1.456-0.543
			c0.448-0.387,1.03-0.582,1.622-0.582l1.662,0V28.625z"/>
		<circle fill="#BF538E" cx="20" cy="28.208" r="2.042"/>
		<path fill="#373F3F" d="M14.155,5.856c0.168,0.099,0.099,0.356-0.096,0.358L10.148,6.25c-0.034,0-0.058-0.032-0.05-0.064
			l0.165-0.617c0.007-0.024,0.03-0.04,0.055-0.037l3.466,0.418l-3.211-1.372c-0.023-0.01-0.036-0.035-0.029-0.06L10.711,3.9
			c0.009-0.032,0.046-0.048,0.075-0.031L14.155,5.856z"/>
		<path fill="#D786B3" d="M4.31,2.382L0.601,1.016C0.279,0.897-0.05,1.17,0.006,1.508l1.322,7.932
			c0.034,0.202,0.13,0.389,0.275,0.533L8.88,17.25V15L4.435,8.683c-0.197-0.28-0.289-0.62-0.259-0.962L4.601,2.84
			C4.618,2.639,4.499,2.452,4.31,2.382z"/>
		<path fill="#C976A3" d="M25.25,11.75c0,6.75-6.25,11.5-6.25,17.75c-1,0-3,0-3,0V0C22.75,0,25.25,7,25.25,11.75z"/>
		<path fill="#2B3332" d="M17.845,5.856c-0.168,0.099-0.099,0.356,0.096,0.358l3.911,0.036c0.034,0,0.058-0.032,0.05-0.064
			l-0.165-0.617c-0.007-0.024-0.03-0.04-0.055-0.037l-3.466,0.418l3.211-1.372c0.023-0.01,0.036-0.035,0.029-0.06L21.289,3.9
			c-0.009-0.032-0.046-0.048-0.075-0.031L17.845,5.856z"/>
		<path fill="#D64F45" d="M20.95,9.5c-0.5,0-0.5-0.75-1-0.75s-0.5,0.75-1,0.75s-0.5-0.75-1-0.75s-0.45,0.75-1,0.75
			C16.5,9.5,16.5,8.75,16,8.75S15.5,9.5,15.05,9.5c-0.55,0-0.5-0.75-1-0.75s-0.5,0.75-1,0.75s-0.5-0.75-1-0.75s-0.5,0.75-1,0.75
			s-0.5-0.75-0.75-0.75C10.25,10.5,11.5,15,16,15s5.75-4.5,5.7-6.25C21.45,8.75,21.45,9.5,20.95,9.5z"/>
		<path fill="#C976A3" d="M27.69,2.382l3.709-1.367c0.321-0.118,0.651,0.154,0.594,0.492l-1.322,7.932
			c-0.034,0.202-0.13,0.389-0.275,0.533L23.12,17.25V15l4.445-6.317c0.197-0.28,0.289-0.62,0.259-0.962L27.399,2.84
			C27.382,2.639,27.501,2.452,27.69,2.382z"/>
		<path fill="#C976A3" d="M16,20.75v8.75c0,0-2,0-3,0c0-3.792-2.3-7.032-4.11-10.501C10.25,19.75,12.25,20.75,16,20.75z"/>
		<path fill="#C56A9B" d="M16,20.75v8.75c0,0,2,0,3,0c0-3.792,2.3-7.032,4.11-10.501C21.75,19.75,19.75,20.75,16,20.75z"/>
		<ellipse fill="#EDEEEE" cx="26.75" cy="19.925" rx="0.75" ry="1.075"/>
		<ellipse fill="#2B3332" cx="26.75" cy="19.938" rx="0.125" ry="0.179"/>
		<ellipse fill="#EDEEEE" cx="29.25" cy="19.925" rx="0.75" ry="1.075"/>
		<ellipse fill="#2B3332" cx="29.25" cy="19.938" rx="0.125" ry="0.179"/>
		<path fill="#D786B3" d="M16,0v4c1.5,0,4.25-0.75,5.25-2.137C19.9,0.723,18.17,0,16,0z"/>
		<path fill="#C56A9B" d="M16,28.625l0.937,0c0.873,0,1.762-0.191,2.472-0.699c0.522-0.374,1.212-0.535,1.93-0.348
			c0.763,0.198,1.386,0.825,1.578,1.589C23.291,30.661,22.172,32,20.739,32c-0.558,0-1.065-0.205-1.456-0.543
			c-0.448-0.387-1.03-0.582-1.622-0.582l-1.662,0V28.625z"/>
		<path fill="#E55D53" d="M16,8.75c-0.5,0-0.5,0.75-0.95,0.75c-0.55,0-0.5-0.75-1-0.75s-0.5,0.75-1,0.75s-0.5-0.75-1-0.75
			s-0.5,0.75-1,0.75s-0.5-0.75-0.75-0.75C10.25,10.5,11.5,15,16,15V8.75z"/>
	</g>
</g>
</svg>
