<?xml version="1.0" encoding="utf-8"?>
<!-- Generator: Adobe Illustrator 23.0.6, SVG Export Plug-In . SVG Version: 6.00 Build 0)  -->
<svg version="1.1" xmlns="http://www.w3.org/2000/svg" xmlns:xlink="http://www.w3.org/1999/xlink" x="0px" y="0px" width="32px"
	 height="32px" viewBox="0 0 32 32" enable-background="new 0 0 32 32" xml:space="preserve">
<g id="labels">
	<g>
	</g>
</g>
<g id="icons">
	<g>
		<path fill="#A4337F" d="M30.955,23.798c-0.029-0.118-0.19-0.155-0.255-0.053c-0.531,0.826-0.947,0.622-2.049,1.018
			c-0.524-0.321-1.153-0.51-1.83-0.51c-1.825,0-3.305,1.358-3.305,3.034s1.48,3.034,3.305,3.034c1.825,0,3.305-1.358,3.305-3.034
			c0-0.218-0.027-0.429-0.075-0.634C30.848,25.726,31.114,24.448,30.955,23.798z"/>
		<g>
			<path fill="#137FA0" d="M13.437,14.625l-7.375-1.188c0,1.769-0.312,4.812-3.125,5.438c-0.264,0.059-0.321,0.642-0.253,1.23
				l11.046-0.826L13.437,14.625z"/>
			<path fill="#0F769B" d="M2.685,20.105c0.074,0.641,0.296,1.288,0.565,1.27C5.062,21.25,6.016,21.828,7,23
				c1.753,2.087,2.125,4.875,2.125,4.875l4.812-5.312l-0.207-3.283L2.685,20.105z"/>
		</g>
		
			<ellipse transform="matrix(0.9753 -0.2209 0.2209 0.9753 -5.7992 5.1431)" fill="#BC4285" cx="20.099" cy="28.504" rx="2.275" ry="1.758"/>
		
			<ellipse transform="matrix(0.9753 -0.2209 0.2209 0.9753 -5.5158 4.6781)" fill="#BF538E" cx="18.161" cy="27.004" rx="2.275" ry="1.758"/>
		
			<ellipse transform="matrix(0.9772 -0.2121 0.2121 0.9772 -5.4376 5.7048)" fill="#B2357F" cx="23.867" cy="28.193" rx="2.64" ry="2.544"/>
		<path fill="#C976A3" d="M6.125,13.438c0.187,1.25,1.875,3.125,3.562,3.125C10.5,17.375,12.437,19,12.437,19l0.75-2.812
			c0,0-4.25-4.562-5.812-4.875C6.716,11.181,6.125,13.438,6.125,13.438z"/>
		<path fill="#C56A9B" d="M12,29c0,1.013-1.398,2-2.75,2s-2.333-0.821-2.333-1.833s1.096-1.833,2.448-1.833S12,27.987,12,29z"/>
		<path fill="#C976A3" d="M16,16.812h-3.563c0,0-2.625,2.875-2.625,5.562S12.187,26.75,16,26.75V16.812z"/>
		<path fill="#C976A3" d="M11.375,25L10.5,26.375c0,0-1.25-0.312-1.5,0.875c-0.232,1.101,2.687,1.938,3,0.625
			c0.151-0.635-0.313-1.062-0.313-1.062l0.813-1.188L11.375,25z"/>
		<path fill="#C976A3" d="M9.291,29.901c0,0.641-0.417,1.25-1.25,1.25c-1.583,0-2.022,0.432-2.557,0.819
			c-0.098,0.071-0.235,0.011-0.236-0.11c-0.008-0.963,0.865-3.204,2.835-3.125C9.125,28.776,9.291,29.522,9.291,29.901z"/>
		<path fill="#DB92BB" d="M4.604,20.187C4.582,21,3.714,21.435,2.881,21.414c-1.506-0.039-1.756-0.539-2.669,0.045
			c-0.102,0.065-0.233-0.036-0.21-0.155c0.183-0.946,1.691-2.735,3.649-2.5C4.25,18.875,4.625,19.438,4.604,20.187z"/>
		<g>
			<path fill="#0F769B" d="M18.563,14.625l7.375-1.188c0,1.769,0.312,4.812,3.125,5.438c0.264,0.059,0.321,0.642,0.253,1.23
				l-11.046-0.826L18.563,14.625z"/>
			<path fill="#0A6F8E" d="M29.315,20.105c-0.074,0.641-0.296,1.288-0.565,1.27C26.938,21.25,25.985,21.828,25,23
				c-1.753,2.087-2.125,4.875-2.125,4.875l-4.812-5.312l0.207-3.283L29.315,20.105z"/>
		</g>
		<path fill="#D786B3" d="M27.396,20.187c0.023,0.813,0.89,1.248,1.723,1.227c1.506-0.039,1.756-0.539,2.669,0.045
			c0.102,0.065,0.233-0.036,0.21-0.155c-0.183-0.946-1.691-2.735-3.649-2.5C27.75,18.875,27.375,19.438,27.396,20.187z"/>
		<path fill="#DB92BB" d="M2,3.062c0-0.938,6.25-0.166,6.25,7c0,5.5-5.75,3.875-5.75,1.938C1.062,11.312,0,10.25,0,8.564
			C0,7.585,4,10.631,4,8C4,5.938,2,4.628,2,3.062z"/>
		<path fill="#C56A9B" d="M25.875,13.438c-0.188,1.25-1.875,3.125-3.562,3.125C21.5,17.375,19.562,19,19.562,19l-0.75-2.812
			c0,0,4.25-4.562,5.812-4.875C25.284,11.181,25.875,13.438,25.875,13.438z"/>
		<path fill="#C25E94" d="M20,29c0,1.013,1.398,2,2.75,2s2.333-0.821,2.333-1.833s-1.096-1.833-2.448-1.833
			C21.283,27.333,20,27.987,20,29z"/>
		<path fill="#C56A9B" d="M16,16.812h3.562c0,0,2.625,2.875,2.625,5.562S19.812,26.75,16,26.75V16.812z"/>
		<path fill="#C56A9B" d="M20.625,25l0.875,1.375c0,0,1.25-0.312,1.5,0.875c0.232,1.101-2.688,1.938-3,0.625
			c-0.151-0.635,0.312-1.062,0.312-1.062L19.5,25.625L20.625,25z"/>
		<path fill="#C56A9B" d="M22.709,29.901c0,0.641,0.417,1.25,1.25,1.25c1.583,0,2.022,0.432,2.557,0.819
			c0.098,0.071,0.235,0.011,0.236-0.11c0.008-0.963-0.865-3.204-2.835-3.125C22.875,28.776,22.709,29.522,22.709,29.901z"/>
		<path fill="#D786B3" d="M30,3.062c0-0.938-6.25-0.166-6.25,7c0,5.5,5.75,3.875,5.75,1.938c1.438-0.688,2.5-1.75,2.5-3.436
			c0-0.979-4,2.067-4-0.564C28,5.938,30,4.628,30,3.062z"/>
		<path fill="#DB92BB" d="M14.75,7.145C14.3,4.723,13.372,0,12.935,0c-1.078,0-1.794,6.867-1.914,9.378C9.83,10.539,9,11.912,9,13
			c0,2.125,3.134,5,7,5V7C15.595,6.983,15.174,7.038,14.75,7.145z"/>
		<path fill="#D786B3" d="M20.98,9.378C20.859,6.867,20.143,0,19.065,0C18.628,0,17.7,4.723,17.25,7.145
			C16.826,7.038,16.405,6.983,16,7v11c3.866,0,7-2.875,7-5C23,11.912,22.17,10.539,20.98,9.378z"/>
		<path fill="#D786B3" d="M16,15v3c-3.866,0-7-2.875-7-5C10.25,13.812,13.703,14.906,16,15z"/>
		<path fill="#FFA68E" d="M12.419,14.354C12.526,15.56,13.375,20,16,20v-5C14.941,14.957,13.64,14.697,12.419,14.354z"/>
		<path fill="#FFFFFF" d="M11.97,14.226l-0.16,1.414c0.004,0.205,0.254,0.301,0.395,0.153l0.903-1.252
			C12.722,14.446,12.342,14.338,11.97,14.226z"/>
		<path fill="#FFFFFF" d="M12.697,9.756c-1.19-0.191-2.061,1.806-1.661,2.358c0.4,0.553,3.256,1.011,3.414,0.792
			C14.607,12.688,14.244,10.005,12.697,9.756z"/>
		
			<ellipse transform="matrix(0.1586 -0.9873 0.9873 0.1586 -0.5169 22.5981)" fill="#373F3F" cx="13" cy="11.602" rx="0.75" ry="0.25"/>
		<g>
			<path fill="#D084B1" d="M23,13c0,2.125-3.134,5-7,5v-3C18.297,14.906,21.75,13.812,23,13z"/>
		</g>
		<path fill="#FF9A7E" d="M19.581,14.354C19.474,15.56,18.812,20,16,20v-5C17.059,14.957,18.36,14.697,19.581,14.354z"/>
		<path fill="#F7F7F7" d="M20.03,14.226l0.16,1.414c-0.004,0.205-0.254,0.301-0.395,0.153l-0.903-1.252
			C19.278,14.446,19.658,14.338,20.03,14.226z"/>
		<path fill="#F7F7F7" d="M19.303,9.756c1.19-0.191,2.061,1.806,1.661,2.358c-0.4,0.553-3.256,1.011-3.414,0.792
			C17.393,12.688,17.756,10.005,19.303,9.756z"/>
		
			<ellipse transform="matrix(0.9873 -0.1586 0.1586 0.9873 -1.5994 3.1596)" fill="#2B3332" cx="19" cy="11.602" rx="0.25" ry="0.75"/>
	</g>
</g>
</svg>
