<?xml version="1.0" encoding="utf-8"?>
<!-- Generator: Adobe Illustrator 23.0.6, SVG Export Plug-In . SVG Version: 6.00 Build 0)  -->
<svg version="1.1" xmlns="http://www.w3.org/2000/svg" xmlns:xlink="http://www.w3.org/1999/xlink" x="0px" y="0px" width="32px"
	 height="32px" viewBox="0 0 32 32" enable-background="new 0 0 32 32" xml:space="preserve">
<g id="labels">
	<g>
	</g>
</g>
<g id="icons">
	<g>
		<path fill="#495587" d="M16.458,28.019l-3.666,1.419c-0.254,0.098-0.25,0.459,0.006,0.552l3.695,1.341
			c0.189,0.069,0.401,0.036,0.56-0.086l2.085-1.598l-2.118-1.554C16.858,27.974,16.646,27.946,16.458,28.019z"/>
		<path fill="#515E91" d="M21.663,29.317l-0.403-0.816c-0.153-0.31-0.438-0.534-0.776-0.609l-0.986-0.219
			c-0.313-0.07-0.64-0.005-0.903,0.179l-0.714,0.5c-0.305,0.214-0.487,0.563-0.487,0.935v1.071c0,0.372,0.182,0.721,0.487,0.935
			l0.714,0.5c0.262,0.184,0.59,0.249,0.903,0.179l0.986-0.219c0.337-0.075,0.623-0.299,0.776-0.609l0.403-0.816
			C21.82,30.01,21.82,29.636,21.663,29.317z"/>
		<path fill="#5C699E" d="M25.908,26.578l-1.303-1.084c-0.2-0.166-0.464-0.233-0.719-0.182l-1.729,0.349
			c-0.251,0.051-0.466,0.211-0.587,0.436l-0.819,1.528c-0.125,0.234-0.136,0.512-0.028,0.755l0.681,1.533
			c0.108,0.242,0.321,0.421,0.579,0.485l1.682,0.417c0.249,0.062,0.512,0.009,0.718-0.143l1.418-1.049
			c0.209-0.155,0.337-0.396,0.347-0.656l0.069-1.693C26.228,27.007,26.114,26.75,25.908,26.578z"/>
		<path fill="#6673AA" d="M30.28,23.904l-0.758-1.827c-0.116-0.28-0.353-0.493-0.645-0.578l-1.976-0.578
			c-0.287-0.084-0.596-0.036-0.844,0.132l-1.675,1.134c-0.256,0.174-0.418,0.456-0.439,0.765l-0.129,1.954
			c-0.02,0.309,0.103,0.61,0.334,0.815l1.512,1.344c0.223,0.199,0.524,0.287,0.819,0.242l2.035-0.314
			c0.3-0.046,0.563-0.226,0.715-0.489l0.991-1.712C30.378,24.52,30.4,24.192,30.28,23.904z"/>
		<path fill="#707EB7" d="M29.175,15.009l-2.067,0.387c-0.317,0.059-0.59,0.259-0.743,0.543l-1.035,1.928
			c-0.15,0.28-0.168,0.612-0.048,0.907l0.812,1.991c0.124,0.305,0.382,0.535,0.699,0.624l2.004,0.563
			c0.317,0.089,0.657,0.027,0.921-0.169l1.73-1.277c0.256-0.189,0.414-0.482,0.431-0.799l0.12-2.185
			c0.018-0.322-0.112-0.635-0.351-0.851l-1.563-1.406C29.837,15.042,29.501,14.948,29.175,15.009z"/>
		<path fill="#7C8AC4" d="M30.737,11.614L29.47,9.601c-0.194-0.309-0.518-0.513-0.881-0.555L26.13,8.759
			c-0.357-0.042-0.714,0.078-0.974,0.327l-1.757,1.683c-0.269,0.257-0.404,0.625-0.365,0.995l0.242,2.342
			c0.038,0.37,0.245,0.702,0.561,0.899l2.064,1.288c0.305,0.19,0.679,0.235,1.02,0.121l2.349-0.784
			c0.346-0.116,0.622-0.382,0.749-0.724l0.828-2.23C30.978,12.324,30.937,11.931,30.737,11.614z"/>
		<path fill="#8694D1" d="M26.861,7.796l-0.16-2.289c-0.059-0.846-0.498-1.62-1.195-2.105l-2.017-1.404
			c-0.686-0.477-1.548-0.624-2.353-0.399l-2.298,0.64c-0.833,0.232-1.512,0.836-1.84,1.636l-0.855,2.086
			c-0.328,0.8-0.268,1.707,0.162,2.457l1.187,2.069c0.416,0.725,1.133,1.226,1.956,1.367l2.422,0.416
			c0.836,0.144,1.692-0.099,2.328-0.66l1.721-1.518C26.573,9.516,26.921,8.667,26.861,7.796z"/>
		<g>
			<path fill="#ABB4DD" d="M1.993,5.872C2.092,5.235,4.16,3.985,4.329,3.75c0.169-0.234,0.398-0.904,1.228-1.146
				s2.867-0.507,3.254-0.848c0.387-0.341,0.633-0.753,1.131-0.72s2.8,0.506,3.931,0.135s1.295-1.11,1.735-1.168
				s1.986,0.674,2.237,1.118S17.8,2.548,18.849,3.597s1.69,1.657,1.69,1.657l-3.336,4.75l-9.55-1.078c0,0-1.842-0.099-3.294,0.317
				s-1.181-2.59-1.438-2.426C2.671,6.976,1.875,6.636,1.993,5.872z"/>
			<polygon fill="#F7F7F7" points="1.945,7.914 1.755,9.258 6.666,8.106 7.881,6.31 2.937,6.812 			"/>
			<path fill="#9AA6D6" d="M19.458,10.645c-0.45,0.962-0.35,2.837-0.889,3.315c-0.365,0.324-1.911,0.723-2.483,0.674
				c-0.647-0.056-0.911-0.532-1.62-0.399c-1.419,0.267-0.826,1.448-2.829,1.197s-0.95-1.143-2.541-1.497
				c-1.591-0.354-1.543,1.176-3.286,0.633s-0.764-1.805-1.332-2.047c-0.567-0.243-4.47-2.178-4.47-3.479
				c0-1.309,4.461-1.012,6.755-1.202C7.084,7.446,8.107,5.81,8.539,5.789c0.432-0.021,1.892,1.624,2.122,1.636
				c0.23,0.012,0.999-1.176,1.266-1.156c0.267,0.021,1.085,1.453,1.39,1.435c0.551-0.033,1.679-2.798,2.432-3.08
				c0.5-0.188,1.568,1.132,2.749,1.435C19.638,6.352,20,4.707,20.51,4.859c0.51,0.152,2.134,1.406,2.044,1.813
				c-0.09,0.407-0.14,1.328-0.645,1.682C21.403,8.708,19.754,10.012,19.458,10.645z"/>
			<path fill="#363534" d="M7.147,4.26c-0.059,0.265,4.157-0.093,4.475-0.3c0.318-0.208,0.762-1.332,0.686-1.427
				C12.232,2.438,7.279,3.668,7.147,4.26z"/>
			<path fill="#FFFFFF" d="M7.147,4.26c-0.035,0.156,1.41,0.096,2.67-0.022c0.313-0.406,0.494-0.854,0.547-1.272
				C8.933,3.355,7.224,3.915,7.147,4.26z"/>
			<path fill="#9A3644" d="M7.147,4.26c-0.024,0.108,0.667,0.111,1.51,0.064C8.68,4.293,8.709,4.271,8.73,4.238
				c0.188-0.291,0.281-0.601,0.288-0.873C8.036,3.681,7.2,4.021,7.147,4.26z"/>
		</g>
	</g>
</g>
</svg>
