<?xml version="1.0" encoding="utf-8"?>
<!-- Generator: Adobe Illustrator 23.0.6, SVG Export Plug-In . SVG Version: 6.00 Build 0)  -->
<svg version="1.1" xmlns="http://www.w3.org/2000/svg" xmlns:xlink="http://www.w3.org/1999/xlink" x="0px" y="0px" width="32px"
	 height="32px" viewBox="0 0 32 32" enable-background="new 0 0 32 32" xml:space="preserve">
<g id="labels">
	<g>
	</g>
</g>
<g id="icons">
	<g>
		<path fill="#E8803A" d="M25,32h-6.714c0,0-0.785-1.779,0.339-2.75c0.702-0.606,3.014-0.171,4.651,0.581
			C24.26,30.282,25,31.188,25,32z"/>
		<path fill="#A78EDD" d="M16,26.5c0.75,0,3.394,1.808,3.25,2.5c-0.156,0.75-1.719,0.75-3.25,0.75V26.5z"/>
		<path fill="#C6B7E9" d="M16,15.75v12c1.5,0,3.25,2.75,4.75,2.75s1.78-0.757,2.75-1c1-0.25,2.117,1.088,3,0.5
			c0.75-0.5-0.25-2.25,0-3c0.177-0.53,1.5-1,1.5-1.75c0-1.031-3.75-1.75-4-2.5s-2.5-7-2.5-7H16z"/>
		<path fill="#B8A5E4" d="M16,26.5v1.25c1.5,0,2.375,2.75,4.75,2.75c1.5,0,1.78-0.757,2.75-1c1-0.25,2.117,1.088,3,0.5
			c0.75-0.5-0.25-2.25,0-3c0.177-0.53,1.5-1,1.5-1.75c0-1.031-3.75-1.75-4-2.5C22.75,25.417,19.75,26.5,16,26.5z"/>
		
			<ellipse transform="matrix(0.9463 -0.3234 0.3234 0.9463 -5.9147 8.2388)" fill="#F297BE" cx="21.833" cy="21.917" rx="0.841" ry="1.875"/>
		<path fill="#F297BE" d="M17.627,23.716c0.254,1.004,1.143,1.787,1.827,1.496c0.428-0.182,0.904-0.961,0.624-1.958
			c-0.313-1.116-1.183-1.819-1.725-1.682C17.587,21.765,17.353,22.632,17.627,23.716z"/>
		<path fill="#EF8C48" d="M7,32h6.714c0,0,0.785-1.779-0.339-2.75c-0.702-0.606-3.014-0.171-4.651,0.581C7.74,30.282,7,31.188,7,32z
			"/>
		<path fill="#D4C9EF" d="M11.222,16.577c-1-0.5-6.165-3.266-7.375-2.217c-1.875,1.625,5.125,4.875,5.625,5.125
			C10.222,18.735,11.222,16.577,11.222,16.577z"/>
		<path fill="#C6B7E9" d="M20.778,16.577c1-0.5,6.165-3.266,7.375-2.217c1.875,1.625-5.125,4.875-5.625,5.125
			C21.778,18.735,20.778,16.577,20.778,16.577z"/>
		<path fill="#B8A5E4" d="M16,26.5c-0.75,0-3.394,1.808-3.25,2.5c0.156,0.75,1.719,0.75,3.25,0.75V26.5z"/>
		<path fill="#D4C9EF" d="M16,15.75v12c-1.5,0-3.25,2.75-4.75,2.75s-1.78-0.757-2.75-1c-1-0.25-2.117,1.088-3,0.5
			c-0.75-0.5,0.25-2.25,0-3C5.323,26.47,4,26,4,25.25c0-1.031,3.75-1.75,4-2.5s2.5-7,2.5-7H16z"/>
		<path fill="#D4C9EF" d="M12.23,0.493c1.061,1.061,0.707,6.718-0.177,7.955s-2.623,0.5-3.182,0
			C5.513,5.443,4.452,4.382,6.396,2.084S11.346-0.391,12.23,0.493z"/>
		<path fill="#F3586F" d="M12.23,0.493c0.295,0.295,0.481,0.946,0.576,1.758C9.5,2.25,7.75,4.5,6.857,6.573
			C5.176,4.861,4.92,3.829,6.396,2.084C8.341-0.214,11.346-0.391,12.23,0.493z"/>
		<path fill="#E3DBF4" d="M6,1.75c1.5,0,5.25,4.25,5.5,5.75S9.999,9.708,9.25,9.75C4.75,10,3.25,10,3,7S4.75,1.75,6,1.75z"/>
		<path fill="#FF5F7E" d="M6,1.75c0.545,0,1.387,0.561,2.25,1.347C6.25,5,6,7.5,6.5,9.849C4.101,9.827,3.19,9.279,3,7
			C2.75,4,4.75,1.75,6,1.75z"/>
		<path fill="#F297BE" d="M9.5,16.5c0,0.75,0.75,2,2.75,2S13.75,20,16,20v-3.5H9.5z"/>
		<path fill="#E3DBF4" d="M16,4.5c-4.25,0-8.75,5.25-8.75,9.5c0,4.75,6.5,2.25,8.75,2.25C16,13.75,16,4.5,16,4.5z"/>
		<path fill="#C6B7E9" d="M16,26.5v1.25c-1.5,0-2.375,2.75-4.75,2.75c-1.5,0-1.78-0.757-2.75-1c-1-0.25-2.117,1.088-3,0.5
			c-0.75-0.5,0.25-2.25,0-3C5.323,26.47,4,26,4,25.25c0-1.031,3.75-1.75,4-2.5C9.25,25.417,12.25,26.5,16,26.5z"/>
		
			<ellipse transform="matrix(0.3234 -0.9463 0.9463 0.3234 -13.8602 24.449)" fill="#F8A1C4" cx="10.167" cy="21.917" rx="1.875" ry="0.841"/>
		<path fill="#F8A1C4" d="M14.373,23.716c-0.254,1.004-1.143,1.787-1.827,1.496c-0.428-0.182-0.904-0.961-0.624-1.958
			c0.313-1.116,1.183-1.819,1.725-1.682C14.413,21.765,14.647,22.632,14.373,23.716z"/>
		<path fill="#FFFFFF" d="M12.225,13.688c0.285-0.285,1.71,0.855,1.71,0.855l-1.14,0.855C12.795,15.398,11.94,13.973,12.225,13.688z
			"/>
		<path fill="#D4C9EF" d="M16,13.75c-1.25,0-3.5,0.5-3.5,2.5S15.25,18,16,18V13.75z"/>
		<path fill="#373F3F" d="M16,11.875c-0.625,0-1.562,0.312-1.562,0.625s0.938,0.625,1.562,0.625V11.875z"/>
		<path fill="#C6B7E9" d="M19.77,0.493c-1.061,1.061-0.707,6.718,0.177,7.955c0.884,1.237,2.623,0.5,3.182,0
			c3.359-3.005,4.419-4.066,2.475-6.364S20.654-0.391,19.77,0.493z"/>
		<path fill="#E85160" d="M19.77,0.493c-0.295,0.295-0.481,0.946-0.576,1.758C22.5,2.25,24.25,4.5,25.143,6.573
			c1.681-1.712,1.937-2.744,0.46-4.489C23.659-0.214,20.654-0.391,19.77,0.493z"/>
		<path fill="#D4C9EF" d="M26,1.75c-1.5,0-5.25,4.25-5.5,5.75s1.501,2.208,2.25,2.25C27.25,10,28.75,10,29,7S27.25,1.75,26,1.75z"/>
		<path fill="#F3586F" d="M26,1.75c-0.545,0-1.387,0.561-2.25,1.347C25.75,5,26,7.5,25.5,9.849C27.899,9.827,28.81,9.279,29,7
			C29.25,4,27.25,1.75,26,1.75z"/>
		<path fill="#EA8BB4" d="M22.5,16.5c0,0.75-0.75,2-2.75,2S18.25,20,16,20v-3.5H22.5z"/>
		<path fill="#D4C9EF" d="M16,4.5c4,0,8.75,5.25,8.75,9.5c0,4.75-6.5,2.25-8.75,2.25C16,13.75,16,4.5,16,4.5z"/>
		<path fill="#F7F7F7" d="M19.775,13.688c-0.285-0.285-1.71,0.855-1.71,0.855l1.14,0.855C19.205,15.398,20.06,13.973,19.775,13.688z
			"/>
		<path fill="#C6B7E9" d="M16,13.75c1.25,0,3.5,0.5,3.5,2.5S16.75,18,16,18V13.75z"/>
		<path fill="#2B3332" d="M16,11.875c0.625,0,1.562,0.312,1.562,0.625S16.625,13.125,16,13.125V11.875z"/>
		<g>
			<path fill="#FFFFFF" d="M10.638,9.019c0.57,0.296,2.654,1.416,3.362,2.328c0.047,0.06,0.037,0.145-0.021,0.194
				c-0.529,0.44-2.285,1.485-3.404,0.329c-0.625-0.646-0.263-2.257-0.127-2.768C10.471,9.018,10.561,8.979,10.638,9.019z"/>
			<path fill="#373F3F" d="M13.152,10.563c-0.494-0.375-1.067-0.733-1.562-1.02c-0.192,0.176-0.322,0.416-0.322,0.698
				c0,0.545,0.442,0.986,0.986,0.986C12.682,11.228,13.019,10.945,13.152,10.563z"/>
			<g>
				<path fill="#F7F7F7" d="M21.362,9.019c-0.57,0.296-2.654,1.416-3.362,2.328c-0.047,0.06-0.037,0.145,0.021,0.194
					c0.529,0.44,2.285,1.485,3.404,0.329c0.625-0.646,0.263-2.257,0.127-2.768C21.529,9.018,21.439,8.979,21.362,9.019z"/>
				<path fill="#2B3332" d="M18.848,10.563c0.494-0.375,1.067-0.733,1.562-1.02c0.192,0.176,0.322,0.416,0.322,0.698
					c0,0.545-0.442,0.986-0.986,0.986C19.318,11.228,18.981,10.945,18.848,10.563z"/>
			</g>
		</g>
	</g>
</g>
</svg>
