<?xml version="1.0" encoding="utf-8"?>
<!-- Generator: Adobe Illustrator 23.0.6, SVG Export Plug-In . SVG Version: 6.00 Build 0)  -->
<svg version="1.1" xmlns="http://www.w3.org/2000/svg" xmlns:xlink="http://www.w3.org/1999/xlink" x="0px" y="0px" width="32px"
	 height="32px" viewBox="0 0 32 32" enable-background="new 0 0 32 32" xml:space="preserve">
<g id="labels">
	<g>
	</g>
</g>
<g id="icons">
	<g>
		<path fill="#CDA073" d="M16,2C7.163,2,0,6.716,0,15c0,9.858,7.775,10.97,11.827,15.789c0.094,0.112,0.262,0.122,0.365,0.018L13,30
			l0.823,0.823c0.098,0.098,0.256,0.098,0.354,0L15,30l0.823,0.823c0.049,0.049,0.113,0.073,0.177,0.073V2z"/>
		<path fill="#C09265" d="M16,2c8.837,0,16,4.716,16,13c0,9.858-7.775,10.97-11.827,15.789c-0.094,0.112-0.262,0.122-0.365,0.018
			L19,30l-0.823,0.823c-0.098,0.098-0.256,0.098-0.354,0L17,30l-0.823,0.823c-0.049,0.049-0.113,0.073-0.177,0.073V2z"/>
		<path fill="#373F3F" d="M6.562,15.069c-0.504,0-0.854-0.072-0.865-0.075c-0.135-0.029-0.221-0.162-0.191-0.297
			s0.165-0.219,0.297-0.191c0.116,0.023,2.878,0.584,3.711-1.837c0.044-0.131,0.192-0.202,0.317-0.155
			c0.131,0.045,0.2,0.188,0.155,0.317C9.325,14.754,7.612,15.069,6.562,15.069z"/>
		<path fill="#2B3332" d="M25.437,15.069c-1.05,0-2.763-0.315-3.424-2.238c-0.045-0.13,0.024-0.272,0.155-0.317
			c0.127-0.048,0.272,0.024,0.317,0.155c0.833,2.422,3.595,1.861,3.711,1.837c0.133-0.027,0.268,0.057,0.297,0.191
			s-0.057,0.268-0.191,0.297C26.292,14.997,25.94,15.069,25.437,15.069z"/>
		<path fill="#FAB8CD" d="M16,15c-2.761,0-4.5,1.067-4.5,3s1.739,3,4.5,3V15z"/>
		<path fill="#F9ADC8" d="M20.5,18c0-1.933-1.739-3-4.5-3v6C18.761,21,20.5,19.933,20.5,18z"/>
		<path fill="#9A3644" d="M14.25,19C14.112,19,14,18.888,14,18.75v-1.5c0-0.138,0.112-0.25,0.25-0.25s0.25,0.112,0.25,0.25v1.5
			C14.5,18.888,14.388,19,14.25,19z"/>
		<path fill="#8A323F" d="M17.75,19c-0.138,0-0.25-0.112-0.25-0.25v-1.5c0-0.138,0.112-0.25,0.25-0.25S18,17.112,18,17.25v1.5
			C18,18.888,17.888,19,17.75,19z"/>
		<path fill="#604631" d="M15.526,9.577C15.602,9.805,15.801,9.919,16,9.919V2c-1.005,0-1.984,0.069-2.937,0.189L15.526,9.577z"/>
		<path fill="#604631" d="M1.813,8.518l3.879,1.108c0.447,0.128,0.811-0.371,0.553-0.758L4.203,5.805
			C3.268,6.595,2.459,7.498,1.813,8.518z"/>
		<path fill="#604631" d="M3.577,12.526l-3.085-1.028c-0.281,0.986-0.446,2.039-0.473,3.163l3.558-1.186
			C4.033,13.322,4.033,12.678,3.577,12.526z"/>
		<path fill="#604631" d="M3.793,17H0.129c0.181,1.467,0.557,2.713,1.081,3.79l2.936-2.936C4.461,17.539,4.238,17,3.793,17z"/>
		<path fill="#4F4032" d="M16.474,9.577l2.463-7.388C17.984,2.069,17.005,2,16,2v7.919C16.199,9.919,16.398,9.805,16.474,9.577z"/>
		<path fill="#4F4032" d="M27.797,5.805l-2.042,3.064c-0.258,0.387,0.106,0.886,0.553,0.758l3.879-1.108
			C29.541,7.498,28.732,6.595,27.797,5.805z"/>
		<path fill="#4F4032" d="M31.508,11.497l-3.085,1.028c-0.456,0.152-0.456,0.797,0,0.949l3.558,1.186
			C31.954,13.536,31.789,12.483,31.508,11.497z"/>
		<path fill="#4F4032" d="M31.871,17h-3.664c-0.445,0-0.669,0.539-0.354,0.854l2.936,2.936C31.314,19.713,31.69,18.467,31.871,17z"
			/>
		<path fill="#C09265" d="M1.323,21.024c2.394,4.635,7.483,6.171,10.505,9.765c0.094,0.112,0.262,0.122,0.365,0.018L13,30
			l0.823,0.823c0.098,0.098,0.256,0.098,0.354,0L15,30l0.823,0.823c0.049,0.049,0.113,0.073,0.177,0.073V26.5
			C10.088,26.5,4.807,24.367,1.323,21.024z"/>
		<path fill="#B38658" d="M16,26.5v4.396c0.064,0,0.128-0.024,0.177-0.073L17,30l0.823,0.823c0.098,0.098,0.256,0.098,0.354,0L19,30
			l0.808,0.808c0.104,0.104,0.271,0.094,0.365-0.018c3.022-3.594,8.111-5.13,10.505-9.765C27.193,24.367,21.912,26.5,16,26.5z"/>
	</g>
</g>
</svg>
