<?xml version="1.0" encoding="utf-8"?>
<!-- Generator: Adobe Illustrator 23.0.6, SVG Export Plug-In . SVG Version: 6.00 Build 0)  -->
<svg version="1.1" xmlns="http://www.w3.org/2000/svg" xmlns:xlink="http://www.w3.org/1999/xlink" x="0px" y="0px" width="32px"
	 height="32px" viewBox="0 0 32 32" enable-background="new 0 0 32 32" xml:space="preserve">
<g id="labels">
	<g>
	</g>
</g>
<g id="icons">
	<g>
		<path fill="#B38658" d="M16,18L6,21v5.789c0,0.79-0.234,1.562-0.672,2.219l-0.806,1.209c-0.142,0.213,0.091,0.477,0.32,0.362L6,30
			l0.823,0.823c0.098,0.098,0.256,0.098,0.354,0L8,30l0.823,0.823c0.098,0.098,0.256,0.098,0.354,0L10,30h1l0.823,0.823
			c0.098,0.098,0.256,0.098,0.354,0L13,30l0.823,0.823c0.098,0.098,0.256,0.098,0.354,0L15,30l0.823,0.823
			c0.049,0.049,0.113,0.073,0.177,0.073V18z"/>
		<path fill="#A7794C" d="M16.177,30.823L17,30l0.823,0.823c0.098,0.098,0.256,0.098,0.354,0L19,30l0.823,0.823
			c0.098,0.098,0.256,0.098,0.354,0L21,30h1l0.823,0.823c0.098,0.098,0.256,0.098,0.354,0L24,30l0.823,0.823
			c0.098,0.098,0.256,0.098,0.354,0L26,30l1.158,0.579c0.229,0.115,0.462-0.149,0.32-0.362l-0.807-1.21
			C26.234,28.35,26,27.579,26,26.79V21l-10-3v12.896C16.064,30.896,16.128,30.872,16.177,30.823z"/>
		<path fill="#B38658" d="M16,0C10.477,0,6,4.477,6,10v8h10V0z"/>
		<path fill="#A7794C" d="M26,18v-8c0-5.523-4.477-10-10-10v18H26z"/>
		<path fill="#CDA073" d="M7.084,11.763c-0.117,0.852-0.446,1.664-0.957,2.357c-1.75,2.376-5.202,7.83-1.327,9.38
			c1.729,0.692,2.735-0.299,3.318-1.881l0.704,0.704c0.098,0.098,0.256,0.098,0.354,0L10,21.5l0.823,0.823
			c0.098,0.098,0.256,0.098,0.354,0L12,21.5l0.823,0.823c0.098,0.098,0.256,0.098,0.354,0L16,19.5V4
			C11.449,4,7.687,7.378,7.084,11.763z"/>
		<path fill="#EDEEEE" d="M20.123,25.71c-0.056-0.381,0.092-0.762,0.405-0.986c0.384-0.275,0.94-0.584,1.496-0.584
			c0.601,0,1.203,0.362,1.586,0.65c0.269,0.202,0.415,0.53,0.386,0.865c-0.123,1.446-0.801,5.493-4.523,6.331
			c-0.461,0.104-0.791-0.425-0.508-0.803C19.697,30.209,20.524,28.448,20.123,25.71z"/>
		<path fill="#F7F7F7" d="M11.877,25.71c0.056-0.381-0.092-0.762-0.405-0.986c-0.384-0.275-0.94-0.584-1.496-0.584
			c-0.601,0-1.203,0.362-1.586,0.65c-0.269,0.202-0.415,0.53-0.386,0.865c0.123,1.446,0.801,5.493,4.523,6.331
			c0.461,0.104,0.791-0.425,0.508-0.803C12.303,30.209,11.476,28.448,11.877,25.71z"/>
		<path fill="#C09265" d="M24.916,11.763c0.117,0.852,0.446,1.664,0.957,2.357c1.75,2.376,5.202,7.83,1.327,9.38
			c-1.729,0.692-2.735-0.299-3.318-1.881l-0.704,0.704c-0.098,0.098-0.256,0.098-0.354,0L22,21.5l-0.823,0.823
			c-0.098,0.098-0.256,0.098-0.354,0L20,21.5l-0.823,0.823c-0.098,0.098-0.256,0.098-0.354,0L16,19.5V4
			C20.551,4,24.313,7.378,24.916,11.763z"/>
		<path fill="#FAB8CD" d="M16,25c-1.381,0-2.5,0.619-2.5,2c0,1.381,1.119,2,2.5,2V25z"/>
		<path fill="#F9ADC8" d="M18.5,27c0-1.381-1.119-2-2.5-2v4C17.381,29,18.5,28.381,18.5,27z"/>
		<path fill="#9A3644" d="M14.5,27.75c-0.02,0-0.04-0.002-0.061-0.008c-0.134-0.033-0.216-0.169-0.182-0.303l0.25-1
			c0.033-0.133,0.165-0.221,0.303-0.182c0.134,0.033,0.216,0.169,0.182,0.303l-0.25,1C14.714,27.674,14.612,27.75,14.5,27.75z"/>
		<path fill="#8A323F" d="M17.5,27.75c-0.112,0-0.214-0.076-0.242-0.189l-0.25-1c-0.034-0.134,0.048-0.27,0.182-0.303
			c0.138-0.041,0.27,0.049,0.303,0.182l0.25,1c0.034,0.134-0.048,0.27-0.182,0.303C17.54,27.748,17.52,27.75,17.5,27.75z"/>
	</g>
</g>
</svg>
