<?xml version="1.0" encoding="utf-8"?>
<!-- Generator: Adobe Illustrator 23.0.6, SVG Export Plug-In . SVG Version: 6.00 Build 0)  -->
<svg version="1.1" xmlns="http://www.w3.org/2000/svg" xmlns:xlink="http://www.w3.org/1999/xlink" x="0px" y="0px" width="32px"
	 height="32px" viewBox="0 0 32 32" enable-background="new 0 0 32 32" xml:space="preserve">
<g id="labels">
	<g>
	</g>
</g>
<g id="icons">
	<g>
		<path fill="#FFD96C" d="M16,1.5V0c-0.966,0-1.75,0.784-1.75,1.75c0,0.27,0.066,0.522,0.175,0.75C14.706,1.91,15.303,1.5,16,1.5z"
			/>
		<path fill="#E55D53" d="M10,29.542c0,0,3.292-0.542,6-0.542V1.042c-4.458,0-9,3.5-9,8.458c0,5.083,4.458,6.583,4.458,9.458
			C11.458,22.25,10,23.5,10,23.5V29.542z"/>
		<path fill="#D64F45" d="M16,5.958V1.042c-4.458,0-9,3.5-9,8.458c0,2.487,1.125,4.188,2.156,5.469
			C14.499,14.969,12.437,5.958,16,5.958z"/>
		<path fill="#D64F45" d="M8,21.958c-3.708,0-4.083,5.542-6,5.542c-0.513,0-0.985-0.373-1.333-0.753C0.309,26.356,0,26.365,0,26.952
			c0,1.548,1.18,3.631,4.042,3.631c4.083,0,7.417-1.583,7.417-4.083C11.458,24.208,10.875,21.958,8,21.958z"/>
		<path fill="#E55D53" d="M11.5,23.5c1.5,0,4,0.583,4,4.5c0,2.917-3.083,4-6.083,4S2.5,30.083,2.5,26c0-2.25,1.5-4.5,2.969-5.969
			c1.5-1.5,1.845-0.656,1.062,0.469c-1.073,1.542-1.448,6.083,1.885,6.083C8.417,25.333,9.5,23.5,11.5,23.5z"/>
		
			<ellipse transform="matrix(0.2588 -0.9659 0.9659 0.2588 -20.6728 20.8507)" fill="#FFD96C" cx="3.25" cy="23.896" rx="1.5" ry="1.375"/>
		<ellipse transform="matrix(0.866 -0.5 0.5 0.866 -13.5359 5.5249)" fill="#FFD96C" cx="3.542" cy="28.021" rx="1.375" ry="1.5"/>
		<path fill="#CF3C35" d="M6.458,9.875c0-1.956,1.129-3.542,2.521-3.542S11.5,7.919,11.5,9.875c0,0.21-0.022,0.415-0.038,0.615
			c-0.09,1.135-4.833,1.01-4.961-0.032C6.473,10.227,6.458,10.12,6.458,9.875z"/>
		<path fill="#F7F7F7" d="M11.5,10.083c0,1.956-1.129,3.542-2.521,3.542s-2.521-1.586-2.521-3.542C6.458,9.542,11.5,9.5,11.5,10.083
			z"/>
		<path fill="#373F3F" d="M8.583,12.583L8.583,12.583c-0.276,0-0.5-0.224-0.5-0.5v-1c0-0.276,0.224-0.5,0.5-0.5h0
			c0.276,0,0.5,0.224,0.5,0.5v1C9.083,12.359,8.859,12.583,8.583,12.583z"/>
		<path fill="#FFD04D" d="M16,1.5V0c0.966,0,1.75,0.784,1.75,1.75c0,0.27-0.066,0.522-0.175,0.75C17.294,1.91,16.697,1.5,16,1.5z"/>
		<path fill="#D64F45" d="M22,29.542c0,0-3.292-0.542-6-0.542V1.042c4.458,0,9,3.5,9,8.458c0,5.083-4.458,6.583-4.458,9.458
			C20.542,22.125,22,23.5,22,23.5V29.542z"/>
		<path fill="#D1473D" d="M16,5.958V1.042c4.458,0,9,3.5,9,8.458c0,2.487-1.281,4.438-2.156,5.469
			C17.501,14.969,19.5,5.958,16,5.958z"/>
		<path fill="#D1473D" d="M24,21.958c3.708,0,4.083,5.542,6,5.542c0.513,0,0.985-0.373,1.333-0.753
			C31.691,26.356,32,26.365,32,26.952c0,1.548-1.18,3.631-4.042,3.631c-4.083,0-7.417-1.583-7.417-4.083
			C20.542,24.208,21.125,21.958,24,21.958z"/>
		<path fill="#D64F45" d="M20.5,23.5c-1.5,0-4,0.583-4,4.5c0,2.917,3.083,4,6.083,4s6.917-1.917,6.917-6c0-2.25-1.5-4.5-2.969-5.969
			c-1.5-1.5-1.845-0.656-1.062,0.469c1.073,1.542,1.448,6.083-1.885,6.083C23.583,25.333,22.5,23.5,20.5,23.5z"/>
		
			<ellipse transform="matrix(0.9659 -0.2588 0.2588 0.9659 -5.2051 8.2552)" fill="#FFD04D" cx="28.75" cy="23.896" rx="1.375" ry="1.5"/>
		
			<ellipse transform="matrix(0.5 -0.866 0.866 0.5 -10.0376 38.6561)" fill="#FFD04D" cx="28.458" cy="28.021" rx="1.5" ry="1.375"/>
		
			<ellipse transform="matrix(0.4557 -0.8901 0.8901 0.4557 -8.4776 43.6476)" fill="#FFD04D" cx="31.453" cy="28.756" rx="0.695" ry="0.501"/>
		
			<ellipse transform="matrix(0.7071 -0.7071 0.7071 0.7071 -12.5215 29.9915)" fill="#FFD04D" cx="29.942" cy="30.111" rx="0.701" ry="0.604"/>
		
			<ellipse transform="matrix(0.8901 -0.4557 0.4557 0.8901 -13.045 3.4092)" fill="#FFD96C" cx="0.547" cy="28.756" rx="0.501" ry="0.695"/>
		
			<ellipse transform="matrix(0.7071 -0.7071 0.7071 0.7071 -20.6887 10.2742)" fill="#FFD96C" cx="2.058" cy="30.111" rx="0.604" ry="0.701"/>
		<path fill="#C23734" d="M25.542,9.875c0-1.956-1.129-3.542-2.521-3.542S20.5,7.919,20.5,9.875c0,0.21,0.022,0.415,0.038,0.615
			c0.09,1.135,4.833,1.01,4.961-0.032C25.527,10.227,25.542,10.12,25.542,9.875z"/>
		<path fill="#EDEEEE" d="M20.5,10.083c0,1.956,1.129,3.542,2.521,3.542s2.521-1.586,2.521-3.542C25.542,9.542,20.5,9.5,20.5,10.083
			z"/>
		<path fill="#FFD04D" d="M17.575,2.5c-0.281-0.59-0.878-1-1.575-1s-1.294,0.41-1.575,1c-0.109,0.228-0.175,0.48-0.175,0.75
			C14.25,4.216,15.034,5,16,5s1.75-0.784,1.75-1.75C17.75,2.98,17.684,2.728,17.575,2.5z"/>
		<g>
			<path fill="#2B3332" d="M17.75,13.438c0-0.966-0.784-1.75-1.75-1.75v3.5C16.966,15.188,17.75,14.404,17.75,13.438z"/>
			<path fill="#373F3F" d="M14.25,13.438c0,0.966,0.784,1.75,1.75,1.75v-3.5C15.034,11.688,14.25,12.471,14.25,13.438z"/>
			<path fill="#CF3C35" d="M16,11.188v0.25v0.25c0.966,0,1.75,0.784,1.75,1.75s-0.784,1.75-1.75,1.75v0.25v0.25
				c1.241,0,2.25-1.009,2.25-2.25S17.241,11.188,16,11.188z"/>
			<path fill="#D1473D" d="M13.75,13.438c0,1.241,1.009,2.25,2.25,2.25v-0.25v-0.25c-0.966,0-1.75-0.784-1.75-1.75
				s0.784-1.75,1.75-1.75v-0.25v-0.25C14.759,11.188,13.75,12.197,13.75,13.438z"/>
		</g>
		<path fill="#2B3332" d="M23.167,12.583L23.167,12.583c-0.276,0-0.5-0.224-0.5-0.5v-1c0-0.276,0.224-0.5,0.5-0.5h0
			c0.276,0,0.5,0.224,0.5,0.5v1C23.667,12.359,23.443,12.583,23.167,12.583z"/>
		<path fill="#FFD96C" d="M14.425,2.5c-0.109,0.228-0.175,0.48-0.175,0.75C14.25,4.216,15.034,5,16,5V1.5
			C15.303,1.5,14.706,1.91,14.425,2.5z"/>
	</g>
</g>
</svg>
