<?xml version="1.0" encoding="utf-8"?>
<!-- Generator: Adobe Illustrator 23.0.6, SVG Export Plug-In . SVG Version: 6.00 Build 0)  -->
<svg version="1.1" xmlns="http://www.w3.org/2000/svg" xmlns:xlink="http://www.w3.org/1999/xlink" x="0px" y="0px" width="32px"
	 height="32px" viewBox="0 0 32 32" enable-background="new 0 0 32 32" xml:space="preserve">
<g id="labels">
	<g>
	</g>
</g>
<g id="icons">
	<g>
		<path fill="#2B7E9F" d="M15.176,11.181c0,0-1.544-3.09-1.365-4.307c0.031-0.208,0.208-0.479,0.208-0.875
			c0-0.828-0.672-1.5-1.5-1.5s-1.5,0.672-1.5,1.5c0,2.001,2.966,5.233,3.433,5.7L15.176,11.181z"/>
		<path fill="#B0D3EA" d="M13.667,22.583L16,22.995v4.505C15.333,27.501,15.292,24.458,13.667,22.583z"/>
		<path fill="#B0D3EA" d="M12.87,11.558c-1.625,0.312-10.197,2.264-10.938,2.438c-2.938,0.688-2.188,3,0,3
			c5.005,0,6.062,4.037,10,3.849C12.494,20.817,12.87,11.558,12.87,11.558z"/>
		<path fill="#2B7E9F" d="M12.5,11.62c-2.751,0.588-9.922,2.224-10.568,2.375c-1.425,0.334-1.977,1.049-1.923,1.698l0.06,0.282
			c0.069,0.185,0.19,0.356,0.355,0.505c0,0,0.654-1.134,2.275-1.407c1.538-0.259,3.396,0.226,4.511,0.585
			c2.497,0.805,5.253-1.468,5.253-1.468L12.5,11.62z"/>
		<path fill="#C1DDEE" d="M16,9.995v13.217c-3.538,0-6.807-2.124-6.807-5.337C9.193,13.452,12.462,9.995,16,9.995z"/>
		<g>
			<g>
				<path fill="#373F3F" d="M11.786,19.526c-0.367-0.206-0.684-0.427-0.898-0.677c-0.06-0.07-0.169-0.022-0.157,0.069
					c0.061,0.477,0.421,0.77,0.873,1.023c0.432,0.242,0.937,0.41,1.388,0.186c0.081-0.04,0.061-0.162-0.03-0.168
					C12.603,19.932,12.202,19.759,11.786,19.526z"/>
				<path fill="#373F3F" d="M11.63,20.684c-0.367-0.206-0.684-0.427-0.898-0.677c-0.06-0.07-0.169-0.022-0.157,0.069
					c0.061,0.477,0.421,0.77,0.873,1.023c0.432,0.242,0.937,0.41,1.388,0.186c0.081-0.04,0.061-0.162-0.03-0.168
					C12.447,21.089,12.046,20.917,11.63,20.684z"/>
			</g>
			<g>
				<path fill="#373F3F" d="M11.786,19.526c-0.367-0.206-0.684-0.427-0.898-0.677c-0.06-0.07-0.169-0.022-0.157,0.069
					c0.061,0.477,0.421,0.77,0.873,1.023c0.432,0.242,0.937,0.41,1.388,0.186c0.081-0.04,0.061-0.162-0.03-0.168
					C12.603,19.932,12.202,19.759,11.786,19.526z"/>
				<path fill="#373F3F" d="M11.63,20.684c-0.367-0.206-0.684-0.427-0.898-0.677c-0.06-0.07-0.169-0.022-0.157,0.069
					c0.061,0.477,0.421,0.77,0.873,1.023c0.432,0.242,0.937,0.41,1.388,0.186c0.081-0.04,0.061-0.162-0.03-0.168
					C12.447,21.089,12.046,20.917,11.63,20.684z"/>
			</g>
		</g>
		<g>
			<ellipse fill="#373F3F" cx="13.395" cy="14.217" rx="0.949" ry="0.946"/>
			<ellipse fill="#FFFFFF" cx="13.395" cy="14.217" rx="0.475" ry="0.541"/>
		</g>
		<path fill="#1D7293" d="M9.285,12.328c-0.352,0.079-0.709,0.159-1.072,0.24c-0.071,0.126-0.171,0.23-0.247,0.295
			c-0.286,0.242-0.71,0.408-1.162,0.455c-0.463,0.05-0.869-0.026-1.167-0.169c-0.42,0.095-0.815,0.185-1.191,0.27
			c0.303,0.422,0.807,0.732,1.437,0.854c0.319,0.062,0.666,0.077,1.026,0.04C7.566,14.244,8.17,14,8.612,13.628
			C9.04,13.265,9.269,12.801,9.285,12.328z"/>
		<path fill="#237899" d="M16.824,11.181c0,0,1.544-3.09,1.365-4.307c-0.031-0.208-0.208-0.479-0.208-0.875
			c0-0.828,0.672-1.5,1.5-1.5s1.5,0.672,1.5,1.5c0,2.001-2.966,5.233-3.433,5.7L16.824,11.181z"/>
		<path fill="#9FC9E4" d="M16,27.501v-4.505l2.333-0.412C16.708,24.458,16.667,27.501,16,27.501z"/>
		<path fill="#9FC9E4" d="M19.13,11.558c1.625,0.312,10.197,2.264,10.938,2.438c2.938,0.688,2.188,3,0,3
			c-5.005,0-6.062,4.037-10,3.849C19.506,20.817,19.13,11.558,19.13,11.558z"/>
		<path fill="#237899" d="M19.5,11.62c2.751,0.588,9.922,2.224,10.568,2.375c1.425,0.334,1.977,1.049,1.923,1.698l-0.06,0.282
			c-0.069,0.185-0.19,0.356-0.355,0.505c0,0-0.654-1.134-2.275-1.407c-1.538-0.259-3.396,0.226-4.511,0.585
			c-2.497,0.805-5.253-1.468-5.253-1.468L19.5,11.62z"/>
		<path fill="#B0D3EA" d="M22.807,17.875c0,3.213-3.268,5.337-6.807,5.337V9.995C19.538,9.995,22.807,13.452,22.807,17.875z"/>
		<path fill="#2B7E9F" d="M16,9.995c-3.922,0-6.156,3.692-6.533,5.699c1.062-1.262,2.333-3.23,3.846-3.382
			c1.25-0.125,1.563,1.123,2.688,1.123s1.437-1.248,2.687-1.123c1.513,0.151,2.784,2.12,3.846,3.382
			C22.156,13.688,19.922,9.995,16,9.995z"/>
		<g>
			<g>
				<path fill="#373F3F" d="M20.214,19.526c0.367-0.206,0.684-0.427,0.898-0.677c0.06-0.07,0.169-0.022,0.157,0.069
					c-0.061,0.477-0.421,0.77-0.873,1.023c-0.432,0.242-0.937,0.41-1.388,0.186c-0.081-0.04-0.061-0.162,0.03-0.168
					C19.397,19.932,19.798,19.759,20.214,19.526z"/>
				<path fill="#373F3F" d="M20.37,20.684c0.367-0.206,0.684-0.427,0.898-0.677c0.06-0.07,0.169-0.022,0.157,0.069
					c-0.061,0.477-0.421,0.77-0.873,1.023c-0.432,0.242-0.937,0.41-1.388,0.186c-0.081-0.04-0.061-0.162,0.03-0.168
					C19.553,21.089,19.954,20.917,20.37,20.684z"/>
			</g>
			<g>
				<path fill="#2B3332" d="M20.214,19.526c0.367-0.206,0.684-0.427,0.898-0.677c0.06-0.07,0.169-0.022,0.157,0.069
					c-0.061,0.477-0.421,0.77-0.873,1.023c-0.432,0.242-0.937,0.41-1.388,0.186c-0.081-0.04-0.061-0.162,0.03-0.168
					C19.397,19.932,19.798,19.759,20.214,19.526z"/>
				<path fill="#2B3332" d="M20.37,20.684c0.367-0.206,0.684-0.427,0.898-0.677c0.06-0.07,0.169-0.022,0.157,0.069
					c-0.061,0.477-0.421,0.77-0.873,1.023c-0.432,0.242-0.937,0.41-1.388,0.186c-0.081-0.04-0.061-0.162,0.03-0.168
					C19.553,21.089,19.954,20.917,20.37,20.684z"/>
			</g>
		</g>
		<g>
			<ellipse fill="#2B3332" cx="18.605" cy="14.217" rx="0.949" ry="0.946"/>
			<ellipse fill="#F7F7F7" cx="18.605" cy="14.217" rx="0.475" ry="0.541"/>
		</g>
		<path fill="#2B3332" d="M17.524,15.893c-0.09-0.104-0.248-0.116-0.353-0.026c-0.258,0.223-0.664,0.34-1.171,0.34
			s-0.913-0.117-1.171-0.34c-0.104-0.09-0.262-0.077-0.353,0.026c-0.09,0.104-0.078,0.263,0.026,0.353
			c0.118,0.102,0.262,0.181,0.417,0.25l-0.205,0.297c-0.079,0.114-0.05,0.27,0.063,0.349c0.043,0.029,0.093,0.044,0.142,0.044
			c0.079,0,0.157-0.038,0.206-0.107l0.297-0.429c0.181,0.034,0.371,0.057,0.578,0.057s0.397-0.023,0.578-0.057l0.297,0.429
			c0.048,0.069,0.126,0.107,0.206,0.107c0.049,0,0.099-0.015,0.142-0.044c0.114-0.079,0.142-0.234,0.063-0.349l-0.205-0.297
			c0.154-0.069,0.298-0.148,0.417-0.25C17.602,16.156,17.614,15.998,17.524,15.893z"/>
		<path fill="#1B6A89" d="M22.715,12.328c0.352,0.079,0.709,0.159,1.072,0.24c0.071,0.126,0.171,0.23,0.247,0.295
			c0.286,0.242,0.71,0.408,1.162,0.455c0.463,0.05,0.869-0.026,1.167-0.169c0.42,0.095,0.815,0.185,1.191,0.27
			c-0.303,0.422-0.807,0.732-1.437,0.854c-0.319,0.062-0.666,0.077-1.026,0.04c-0.657-0.07-1.261-0.314-1.703-0.687
			C22.96,13.265,22.731,12.801,22.715,12.328z"/>
		<path fill="#3085A6" d="M9.467,15.694c1.062-1.262,2.333-3.23,3.846-3.382c1.25-0.125,1.563,1.123,2.688,1.123V9.995
			C12.078,9.995,9.844,13.688,9.467,15.694z"/>
		<path fill="#373F3F" d="M16,16.207c-0.508,0-0.913-0.117-1.171-0.34c-0.104-0.09-0.262-0.077-0.353,0.026
			c-0.09,0.104-0.078,0.263,0.026,0.353c0.118,0.102,0.262,0.181,0.417,0.25l-0.205,0.297c-0.079,0.114-0.05,0.27,0.063,0.349
			c0.043,0.029,0.093,0.044,0.142,0.044c0.079,0,0.157-0.038,0.206-0.107l0.297-0.429c0.181,0.034,0.371,0.057,0.578,0.057V16.207z"
			/>
	</g>
</g>
</svg>
