<?xml version="1.0" encoding="utf-8"?>
<!-- Generator: Adobe Illustrator 23.0.6, SVG Export Plug-In . SVG Version: 6.00 Build 0)  -->
<svg version="1.1" xmlns="http://www.w3.org/2000/svg" xmlns:xlink="http://www.w3.org/1999/xlink" x="0px" y="0px" width="32px"
	 height="32px" viewBox="0 0 32 32" enable-background="new 0 0 32 32" xml:space="preserve">
<g id="labels">
	<g>
	</g>
</g>
<g id="icons">
	<g>
		<path fill="#349363" d="M0.111,17.484c2.806-1.609,10.189-2.567,11.931,1.1C8.425,17.875,0.083,17.75,0.083,17.75
			C-0.019,17.683,0.005,17.544,0.111,17.484z"/>
		<path fill="#379B6D" d="M0.111,15.15c2.826-0.872,11.056-2.817,12.264,3.225L0.083,15.417C-0.019,15.349-0.006,15.186,0.111,15.15
			z"/>
		<path fill="#3AA176" d="M0.111,12.275c2.826-0.872,11.339-0.15,12.547,5.891L0.083,12.542
			C-0.019,12.474-0.006,12.311,0.111,12.275z"/>
		<path fill="#338C5D" d="M31.889,17.484c-2.806-1.609-10.189-2.567-11.931,1.1c3.617-0.708,11.958-0.833,11.958-0.833
			C32.019,17.683,31.995,17.544,31.889,17.484z"/>
		<path fill="#349363" d="M31.889,15.15c-2.826-0.872-11.056-2.817-12.264,3.225l12.292-2.958
			C32.019,15.349,32.006,15.186,31.889,15.15z"/>
		<path fill="#379B6D" d="M31.889,12.275c-2.826-0.872-11.339-0.15-12.547,5.891l12.575-5.625
			C32.019,12.474,32.006,12.311,31.889,12.275z"/>
		<path fill="#608A7A" d="M31.723,18.761c-2.337,1.215-3.941,1.755-5.995,2.131c-0.522-0.109-1.048-0.124-1.508-0.013
			c-1.878,0.451-2.974,2.086-2.491,3.906c0.267,1.007,0.933,1.673,1.781,1.989c0.152,0.057,0.288-0.109,0.202-0.246
			c-0.191-0.305-0.305-0.67-0.3-1.087c0.01-0.759,0.458-1.472,1.145-1.796c1.185-0.558,2.521,0.104,2.841,1.308
			c0.056,0.213,0.075,0.426,0.062,0.634c-0.01,0.162,0.186,0.245,0.294,0.124c0.359-0.399,0.577-0.882,0.653-1.417
			c1.121-1.371,2.719-3.395,3.578-5.31C32.054,18.829,31.873,18.683,31.723,18.761z"/>
		<path fill="#AFC9B7" d="M14.958,10.5c0,3.518-1.142,5.115-2.329,6.509c-1.824-5.466-9.846-8.235-12.533-7.406
			C-0.02,9.639-0.033,9.802,0.069,9.869l12.164,7.604C11.081,18.805,10,20.122,10,23c0,5.417,6,5,6,5V10.5H14.958z"/>
		<path fill="#7C998B" d="M12.719,23.632c-0.428-0.479-1.198-0.355-1.459,0.232c-0.4,0.896-0.426,2.182,0.131,2.696
			c0.241,0.223,0.505,0.402,0.775,0.562c0.036,0.737,0.083,1.732,0.083,1.961c0,0.375-0.281,0.979-0.406,1.667
			c0.188,0.469,1.25,0.531,1.594,0.094c0.031-0.562,0.188-1.219,0.188-1.719c0-0.221,0.008-0.808,0.017-1.394
			c0.155,0.041,0.311,0.086,0.459,0.115C15.003,28.028,14.075,25.148,12.719,23.632z"/>
		<path fill="#E3E5E5" d="M11.872,29.966c-0.471,0.125-1.392,0.749-1.087,1.989c0.014,0.055,0.089,0.062,0.116,0.012
			c0.571-1.034,1.12-0.659,1.609-1.146C12.888,30.444,12.395,29.827,11.872,29.966z"/>
		<path fill="#E3E5E5" d="M13.758,29.966c0.471,0.125,1.392,0.749,1.087,1.989c-0.014,0.055-0.089,0.062-0.116,0.012
			c-0.571-1.034-1.12-0.659-1.609-1.146C12.741,30.444,13.234,29.827,13.758,29.966z"/>
		<path fill="#7C998B" d="M13.638,15.668c0.69,0.753,1.674,1.165,2.362,1.353v-1.502c-0.571-0.187-1.19-0.529-1.756-0.997
			C14.064,14.945,13.86,15.322,13.638,15.668z"/>
		<path fill="#A5C0AE" d="M31.904,9.603c-2.686-0.829-10.709,1.94-12.533,7.406c-1.187-1.394-2.329-2.991-2.329-6.509H16V28
			c0,0,6,0.417,6-5c0-2.878-1.081-4.195-2.233-5.527l12.164-7.604C32.033,9.802,32.02,9.639,31.904,9.603z"/>
		<path fill="#6E9182" d="M20.608,26.56c0.557-0.515,0.531-1.8,0.131-2.696c-0.262-0.586-1.031-0.711-1.459-0.232
			c-1.356,1.516-2.284,4.396-1.382,4.215c0.148-0.03,0.305-0.074,0.459-0.115c0.009,0.586,0.017,1.173,0.017,1.394
			c0,0.5,0.156,1.156,0.187,1.719c0.344,0.438,1.406,0.375,1.594-0.094c-0.125-0.688-0.406-1.292-0.406-1.667
			c0-0.23,0.047-1.224,0.083-1.961C20.104,26.962,20.367,26.783,20.608,26.56z"/>
		<path fill="#86A394" d="M14.088,14.864c0.603,0.53,1.291,0.92,1.912,1.123v-1.211c-0.459-0.15-1.035-0.506-1.494-0.965
			C14.369,14.305,14.28,14.469,14.088,14.864z"/>
		<path fill="#91AD9D" d="M14.398,14.117c0.523,0.402,1.085,0.701,1.602,0.87v-1.719c-0.396-0.129-0.811-0.333-1.223-0.604
			C14.683,13.204,14.554,13.684,14.398,14.117z"/>
		<path fill="#6E9182" d="M18.362,15.668c-0.69,0.753-1.674,1.165-2.362,1.353v-1.502c0.571-0.187,1.19-0.529,1.756-0.997
			C17.936,14.945,18.14,15.322,18.362,15.668z"/>
		<path fill="#7C998B" d="M17.912,14.864c-0.603,0.53-1.291,0.92-1.912,1.123v-1.211c0.459-0.15,1.035-0.506,1.494-0.965
			C17.631,14.305,17.72,14.469,17.912,14.864z"/>
		<path fill="#86A394" d="M17.602,14.117c-0.523,0.402-1.085,0.701-1.602,0.87v-1.719c0.396-0.129,0.811-0.333,1.223-0.604
			C17.317,13.204,17.446,13.684,17.602,14.117z"/>
		<g>
			<path fill="#AFC9B7" d="M12.041,6.497c0,1.091,0.606,5.272,0.788,5.575S16,14.253,16,14.253V6.437L12.041,6.497z"/>
			<g>
				<path fill="#FFE28A" d="M12.964,7.394l0.249,2.083c0.015,0.123,0.071,0.238,0.16,0.326l1.561,1.536l-0.068-2.642L12.964,7.394z"
					/>
				<ellipse fill="#373F3F" cx="14.076" cy="9.114" rx="0.33" ry="0.654"/>
			</g>
			<path fill="#A5C0AE" d="M16,0c-0.788,0-1.319,5.843-1.759,5.843c-5.992,0-0.09,1.813,0.244,3.26
				c0.182,0.788,0.788,5.81,1.515,5.81V0z"/>
			<path fill="#A5C0AE" d="M19.959,6.497c0,1.091-0.606,5.272-0.788,5.575S16,14.253,16,14.253V6.437L19.959,6.497z"/>
			<g>
				<path fill="#FFD96C" d="M19.036,7.394l-0.249,2.083c-0.015,0.123-0.071,0.238-0.16,0.326l-1.561,1.536l0.068-2.642L19.036,7.394
					z"/>
				<ellipse fill="#2B3332" cx="17.924" cy="9.114" rx="0.33" ry="0.654"/>
			</g>
			<path fill="#9BB6A5" d="M16,0c0.788,0,1.319,5.843,1.759,5.843c5.992,0,0.09,1.813-0.244,3.26
				c-0.182,0.788-0.788,5.81-1.515,5.81V0z"/>
		</g>
		<path fill="#DADDDC" d="M18.342,29.966c-0.471,0.125-1.392,0.749-1.087,1.989c0.014,0.055,0.089,0.062,0.116,0.012
			c0.571-1.034,1.12-0.659,1.609-1.146C19.358,30.444,18.865,29.827,18.342,29.966z"/>
		<path fill="#DADDDC" d="M20.228,29.966c0.471,0.125,1.392,0.749,1.087,1.989c-0.014,0.055-0.089,0.062-0.116,0.012
			c-0.571-1.034-1.12-0.659-1.609-1.146C19.211,30.444,19.704,29.827,20.228,29.966z"/>
	</g>
</g>
</svg>
