<?xml version="1.0" encoding="utf-8"?>
<!-- Generator: Adobe Illustrator 23.0.6, SVG Export Plug-In . SVG Version: 6.00 Build 0)  -->
<svg version="1.1" xmlns="http://www.w3.org/2000/svg" xmlns:xlink="http://www.w3.org/1999/xlink" x="0px" y="0px" width="32px"
	 height="32px" viewBox="0 0 32 32" enable-background="new 0 0 32 32" xml:space="preserve">
<g id="labels">
	<g>
	</g>
</g>
<g id="icons">
	<g>
		<path fill="#687271" d="M12.232,14.927c0,4.422-4.888,7.481-3.084,11.604c0.207,0.473,0.382,0.878,0.541,1.235
			C9.019,27.963,8,28.575,8,29.308C8,30.2,9.25,30.5,10.142,30.5c0.655,0,1.466,0.032,1.72-0.529
			c0.674,0.088,2.427-0.059,4.138-0.164V14.927H12.232z"/>
		<path fill="#505957" d="M19.708,19.833c1.026,0.494,5.448,0.018,7.704-3.957c0.132-0.232,0.486-0.107,0.454,0.157
			c-0.458,3.738-2.073,10.3-7.574,10.3L19.708,19.833z"/>
		<path fill="#5C6664" d="M19.768,14.927c0,4.422,4.888,7.481,3.084,11.604c-0.207,0.473-0.382,0.878-0.541,1.235
			C22.981,27.963,24,28.575,24,29.308c0,0.892-1.25,1.192-2.142,1.192c-0.655,0-1.466,0.032-1.72-0.529
			c-0.674,0.088-2.427-0.059-4.138-0.164V14.927H19.768z"/>
		<path fill="#C8CCCB" d="M23.398,25.767l-0.789,1.79c-0.007,0.046-0.029,0.084-0.069,0.107c-0.181,0.102-0.508,0.265-1.331,0.269
			c-0.823,0.004-1.607-0.181-1.607-0.181l0.053-2.174c0,0,1.13,0.292,1.891,0.282c0.664-0.008,1.379-0.145,1.648-0.25
			C23.301,25.567,23.415,25.652,23.398,25.767z"/>
		<path fill="#F79654" d="M16,14.927h-3.768c0,4.422,0.574,15.074,1.31,15.035c0.736-0.039,1.208-1.67,2.458-1.67
			s1.722,1.631,2.458,1.67c0.736,0.039,1.31-10.613,1.31-15.035H16z"/>
		<path fill="#EF8C48" d="M19.768,14.927c0,4.422-0.574,15.074-1.31,15.035c-0.736-0.039-1.208-1.67-2.458-1.67V14.927H19.768z"/>
		<path fill="#687271" d="M17.09,29.847c0,0-0.342-10.093-1.09-10.093V12.62l2.153-0.807c0,0,2.791,3.321,2.568,5.922
			c-0.368,4.29-0.88,10.031-1.013,11.662c0.553,0.222,1.354,1.142,1.354,1.604c0,0.701-1.28,1-2.332,1c-1.052,0-2.251-0.299-2.251-1
			C16.479,30.768,16.926,30.034,17.09,29.847z"/>
		<path fill="#D1D4D4" d="M20.059,27.842l-0.017,1.524c-0.001,0.047-0.017,0.087-0.054,0.115c-0.165,0.125-0.706,0.481-1.53,0.481
			c-0.79,0-1.267-0.21-1.433-0.298c-0.046-0.024-0.068-0.067-0.072-0.119l-0.123-1.63c-0.008-0.107,0.089-0.188,0.191-0.155
			c0.316,0.104,0.935,0.282,1.438,0.282c0.664,0,1.125-0.187,1.377-0.328C19.936,27.658,20.061,27.726,20.059,27.842z"/>
		<path fill="#DADDDC" d="M8.807,25.61c0.269,0.105,0.984,0.241,1.648,0.25c0.761,0.01,1.891-0.282,1.891-0.282l0.053,2.174
			c0,0-0.783,0.185-1.607,0.181c-0.823-0.004-1.15-0.167-1.331-0.269c-0.04-0.023-0.063-0.061-0.069-0.107l-0.789-1.79
			C8.585,25.652,8.699,25.567,8.807,25.61z"/>
		<path fill="#757F7E" d="M14.91,29.847c0,0,0.342-10.093,1.09-10.093V12.62l-2.153-0.807c0,0-2.791,3.321-2.568,5.922
			c0.368,4.29,0.88,10.031,1.013,11.662c-0.553,0.222-1.354,1.142-1.354,1.604c0,0.701,1.28,1,2.332,1c1.052,0,2.251-0.299,2.251-1
			C15.521,30.768,15.074,30.034,14.91,29.847z"/>
		<path fill="#E3E5E5" d="M12.165,27.714c0.252,0.14,0.713,0.328,1.377,0.328c0.503,0,1.121-0.178,1.438-0.282
			c0.102-0.033,0.199,0.048,0.191,0.155l-0.123,1.63c-0.004,0.052-0.027,0.094-0.072,0.119c-0.166,0.088-0.644,0.298-1.433,0.298
			c-0.824,0-1.365-0.356-1.53-0.481c-0.037-0.028-0.054-0.068-0.054-0.115l-0.017-1.524C11.939,27.726,12.064,27.658,12.165,27.714z
			"/>
		<path fill="#FCA15E" d="M17.542,16.5c-0.295-0.484-1.125-1.792-1.542-1.792s-1.247,1.308-1.542,1.792
			c-1.167,1.917,0.458,0.833,1.156,4.222c0.114-0.599,0.242-0.969,0.385-0.969s0.272,0.37,0.385,0.969
			C17.083,17.333,18.708,18.417,17.542,16.5z"/>
		<path fill="#F79654" d="M16.386,20.722c-0.114-0.599-0.242-0.969-0.386-0.969v-5.045c0.417,0,1.247,1.308,1.542,1.792
			C18.708,18.417,17.083,17.333,16.386,20.722z"/>
		<path fill="#687271" d="M14.75,2.283c-1.125-1.25-7.156-1.728-7.375-0.792c-0.292,1.25,3.45,4.335,3.45,4.335L14.75,2.283z"/>
		<path fill="#5C6664" d="M13.538,2.654c-0.756-0.84-5.621-1.571-5.788-1.029c-0.254,0.824,3.151,3.41,3.151,3.41L13.538,2.654z"/>
		<path fill="#757F7E" d="M10.49,6.202c-0.373,2.014-0.093,4.292,0.996,5.29c0.927,0.85,3.349,1.571,4.209,1.836
			c0.101,0.031,0.203,0.044,0.305,0.043c0,0,0-8.871,0-11.371C13.74,2,10.99,3.5,10.49,6.202z"/>
		<path fill="#FFFFFF" d="M12.208,4.792c-0.456,0.281-0.375,2.102-0.375,2.102c0,0.722,0.583,1.303,1.305,1.311
			c0.839,0.009,1.806-0.077,1.987-0.496C15.584,6.647,13.151,4.212,12.208,4.792z"/>
		<ellipse fill="#373F3F" cx="13.375" cy="6.521" rx="0.75" ry="1.062"/>
		<ellipse fill="#FFFFFF" cx="13.5" cy="6.333" rx="0.375" ry="0.531"/>
		<path fill="#5C6664" d="M17.25,2.283c1.125-1.25,7.156-1.728,7.375-0.792c0.292,1.25-3.45,4.335-3.45,4.335L17.25,2.283z"/>
		<path fill="#505957" d="M18.462,2.654c0.756-0.84,5.621-1.571,5.788-1.029c0.254,0.824-3.151,3.41-3.151,3.41L18.462,2.654z"/>
		<path fill="#687271" d="M21.51,6.202c0.373,2.014,0.093,4.292-0.996,5.29c-0.927,0.85-3.349,1.571-4.209,1.836
			c-0.101,0.031-0.203,0.044-0.305,0.043c0,0,0-8.871,0-11.371C18.26,2,21.01,3.5,21.51,6.202z"/>
		<path fill="#F7F7F7" d="M19.792,4.792c0.456,0.281,0.375,2.102,0.375,2.102c0,0.722-0.583,1.303-1.305,1.311
			c-0.839,0.009-1.806-0.077-1.987-0.496C16.416,6.647,18.849,4.212,19.792,4.792z"/>
		<ellipse fill="#2B3332" cx="18.625" cy="6.521" rx="0.75" ry="1.062"/>
		<ellipse fill="#F7F7F7" cx="18.5" cy="6.333" rx="0.375" ry="0.531"/>
		<path fill="#D1D4D4" d="M16,2c-1.822,0-3.961,0.974-4.985,2.767C13.8,4.823,15.898,10.372,16,10.371
			c0.102,0.001,2.2-5.548,4.985-5.604C19.961,2.974,17.822,2,16,2z"/>
		<path fill="#DADDDC" d="M16,10.371V2c-1.822,0-3.961,0.974-4.985,2.767C13.8,4.823,15.898,10.372,16,10.371z"/>
		<path fill="#F79654" d="M16,7.727c-2.654,0-1.837,1.951-5.471,1.939c0.183,0.759,0.498,1.406,0.957,1.827
			c0.927,0.85,3.349,1.571,4.209,1.836c0.101,0.031,0.203,0.044,0.305,0.043c0.102,0.001,0.205-0.012,0.305-0.043
			c0.86-0.265,3.282-0.986,4.209-1.836c0.459-0.42,0.774-1.068,0.957-1.827C17.837,9.677,18.654,7.727,16,7.727z"/>
		<path fill="#EF8C48" d="M16,11.576c-1.833,0-1.695-1.313-5.29-1.313c0.196,0.573,0.547,1.019,0.776,1.23
			c0.927,0.85,3.349,1.571,4.209,1.836c0.101,0.031,0.203,0.044,0.305,0.043c0.102,0.001,0.205-0.012,0.305-0.043
			c0.86-0.265,3.282-0.986,4.209-1.836c0.229-0.21,0.58-0.657,0.776-1.23C17.695,10.263,17.833,11.576,16,11.576z"/>
		<path fill="#F7F7F7" d="M18.464,10.702l0.395,0.856c0.054,0.118,0.222,0.116,0.274-0.003l0.507-1.172
			C19.154,10.462,18.779,10.576,18.464,10.702z"/>
		<path fill="#FCA15E" d="M10.529,9.666c0.183,0.759,0.498,1.406,0.957,1.827c0.927,0.85,3.349,1.571,4.209,1.836
			c0.101,0.031,0.203,0.044,0.305,0.043V7.727C13.346,7.727,14.163,9.678,10.529,9.666z"/>
		<path fill="#F79654" d="M10.71,10.263c0.196,0.573,0.547,1.019,0.776,1.23c0.927,0.85,3.349,1.571,4.209,1.836
			c0.101,0.031,0.203,0.044,0.305,0.043v-1.795C14.167,11.576,14.305,10.263,10.71,10.263z"/>
		<path fill="#FFFFFF" d="M12.36,10.382l0.507,1.172c0.052,0.119,0.219,0.121,0.274,0.003l0.395-0.856
			C13.221,10.576,12.846,10.462,12.36,10.382z"/>
		<path fill="#2B3332" d="M16,8.408c-0.52,0-1.104,0.267-1.104,0.639c0,0.349,0.814,0.697,1.104,0.697s1.104-0.349,1.104-0.697
			C17.104,8.675,16.52,8.408,16,8.408z"/>
		<path fill="#373F3F" d="M16,8.408c-0.52,0-1.104,0.267-1.104,0.639c0,0.349,0.814,0.697,1.104,0.697V8.408z"/>
	</g>
</g>
</svg>
