<?xml version="1.0" encoding="utf-8"?>
<!-- Generator: Adobe Illustrator 23.0.6, SVG Export Plug-In . SVG Version: 6.00 Build 0)  -->
<svg version="1.1" xmlns="http://www.w3.org/2000/svg" xmlns:xlink="http://www.w3.org/1999/xlink" x="0px" y="0px" width="32px"
	 height="32px" viewBox="0 0 32 32" enable-background="new 0 0 32 32" xml:space="preserve">
<g id="labels">
	<g>
	</g>
</g>
<g id="icons">
	<g>
		<path fill="#EDEEEE" d="M12.34,11.468c-1.058,0.029-1.698-0.209-2.81,0.121c-1.112,0.329-2.311,1.324-1.994,2.155
			s1.38,1.299,2.657,0.565c1.277-0.734,2.471-2.225,2.471-2.225L12.34,11.468z"/>
		<path fill="#E3E5E5" d="M19.66,11.467c1.058,0.029,1.698-0.209,2.81,0.121s2.311,1.324,1.994,2.155
			c-0.317,0.831-1.38,1.299-2.657,0.565c-1.277-0.734-2.471-2.225-2.471-2.225L19.66,11.467z"/>
		<g>
			<path fill="#E3E5E5" d="M29.937,15.375c-0.125-1.438-0.25-2.25,0.375-3.562c0,0-0.958,1.271-3.187,0.812
				c-0.859-0.177-1.625,2.438-2.188,3.188c-0.562,0.75-2.812,0.938-2.812,0.938s-0.18,1.087-0.289,2.188h6.053
				C28.001,17.72,30.06,16.784,29.937,15.375z"/>
			<path fill="#DADDDC" d="M27.875,19c0.001-0.021,0.012-0.041,0.014-0.062h-6.053c-0.093,0.944-0.134,1.899,0.039,2.188
				c0.375,0.625-0.563,2,5,1.25c1.301-0.175,3.169,2.061,3.187,1.938C30.437,21.875,27.812,20.562,27.875,19z"/>
		</g>
		<path fill="#6E57A0" d="M31.214,10.251c-0.845,0.061-1.267,0.732-1.605,1.272c-0.22,0.35-0.427,0.68-0.67,0.742
			c-0.23,0.058-0.428,0.044-0.632,0.017c0.153-0.392,0.222-0.844,0.281-1.25l0.031-0.206c0.059-0.382,0.366-0.703,0.638-0.986
			c0.184-0.192,0.343-0.359,0.44-0.554c0.123-0.247,0.023-0.547-0.224-0.671c-0.246-0.123-0.547-0.022-0.671,0.224
			c-0.029,0.06-0.168,0.204-0.269,0.31c-0.336,0.352-0.797,0.833-0.903,1.525l-0.032,0.213c-0.078,0.529-0.185,1.254-0.465,1.347
			c-0.022,0.007-0.037,0.023-0.057,0.033c-0.229,0.053-0.471,0.137-0.744,0.314c-0.427,0.275-0.653,0.787-0.894,1.328
			c-0.273,0.616-0.583,1.315-1.217,1.738c-0.374,0.249-0.942,0.337-1.492,0.422c-0.832,0.129-1.692,0.262-2.196,0.948
			c-0.163,0.223-0.115,0.536,0.107,0.699c0.089,0.065,0.192,0.097,0.296,0.097c0.153,0,0.306-0.07,0.403-0.204
			c0.259-0.354,0.882-0.45,1.542-0.552c0.657-0.102,1.336-0.206,1.895-0.578c0.875-0.584,1.265-1.461,1.577-2.165
			c0.17-0.384,0.345-0.779,0.521-0.894c0.431-0.279,0.676-0.239,1.077-0.174c0.323,0.053,0.726,0.117,1.233-0.012
			c0.63-0.161,0.969-0.702,1.269-1.179c0.306-0.487,0.515-0.784,0.831-0.807c0.275-0.021,0.482-0.26,0.463-0.535
			C31.729,10.438,31.486,10.228,31.214,10.251z"/>
		<path fill="#6E57A0" d="M29.937,24.75c-0.144,0-0.286-0.062-0.386-0.182c-1.139-1.379-2.942-1.93-4.588-1.404
			c-2.242,0.712-3.164-0.763-3.605-1.474c-0.052-0.082-0.116-0.187-0.166-0.256c-0.17-0.021-0.325-0.127-0.399-0.294
			c-0.112-0.252,0.002-0.548,0.254-0.66c0.578-0.258,0.929,0.31,1.16,0.683c0.445,0.715,0.947,1.531,2.454,1.048
			c2.038-0.648,4.262,0.026,5.662,1.721c0.176,0.213,0.146,0.528-0.067,0.704C30.163,24.713,30.05,24.75,29.937,24.75z"/>
		<path fill="#745DA6" d="M19.25,13.917C18.03,12.981,16,13.697,16,13.697v-1.241l2.182-1.038c0,0,4.818,1.75,4.818,5.583
			c0.007,2.667-0.725,3.559-2.917,5.75c-0.104,0.104-0.203,0.228-0.302,0.354C22.667,17.458,19.521,14.125,19.25,13.917z"/>
		<path fill="#FFD96C" d="M19.094,13.75C18,12.828,16,13.697,16,13.697v4.304c1.208,0.083,3.833-0.084,4.931-0.563
			C20.592,15.132,19.839,14.378,19.094,13.75z"/>
		<path fill="#F7C845" d="M16,22.001v8.455l0.336,0.29c0.301-0.037,0.632-0.141,0.987-0.346c0.317-1.828,1.104-5.549,2.459-7.295
			c0.283-0.547,0.493-1.063,0.671-1.564C19.125,21.958,16.958,22.042,16,22.001z"/>
		<path fill="#FFD04D" d="M16,18.001v4c1.583,0.041,3.583-0.084,4.453-0.459c0.576-1.618,0.643-2.987,0.479-4.104
			C19.987,17.658,17.646,18.001,16,18.001z"/>
		<path fill="#7A63AD" d="M12.75,13.917c1.22-0.936,3.25-0.221,3.25-0.221v-1.241l-2.182-1.038c0,0-4.818,1.75-4.818,5.583
			c-0.007,2.667,0.725,3.559,2.917,5.75c0.104,0.104,0.203,0.228,0.302,0.354C9.333,17.458,12.479,14.125,12.75,13.917z"/>
		<path fill="#FFE28A" d="M12.906,13.75C14,12.828,16,13.697,16,13.697v4.304c-1.208,0.083-3.833-0.084-4.931-0.563
			C11.408,15.132,12.161,14.378,12.906,13.75z"/>
		<path fill="#6E57A0" d="M25.175,8.073c0.087-0.072,0.04-0.213-0.073-0.222c-1.597-0.129-2.835-0.336-4.127-0.101
			c-1.557,0.283-2,0.75-3.375,0.688c-1.863-0.085-1.586,0.438-1.586,0.438V11c0,0,0.398,0.562,1.711,0.562
			c1.5,0,1.875-0.75,3.25-0.875c0.924-0.084,3,0.498,3.863,0.756c0.118,0.035,0.212-0.102,0.135-0.199l-1.435-1.807L25.175,8.073z"
			/>
		<path fill="#7A63AD" d="M24.839,1.251c-0.809-0.055-1.307,0.325-1.707,0.62c-0.328,0.242-0.528,0.379-0.819,0.379
			c-0.42,0-0.725-0.22-1.079-0.475c-0.305-0.22-0.62-0.447-1.021-0.518c-0.54-0.096-1.034-0.074-1.459,0.042l0.17-0.678
			c0.066-0.268-0.096-0.539-0.364-0.606c-0.272-0.066-0.539,0.096-0.606,0.364l-0.704,2.816c-0.376-0.091-0.764-0.152-1.156-0.187
			C16.061,3.005,16.031,3.002,16,3v10.985c0,0,3.577,0.396,4.609-2.925c0.572-1.839,0.578-4.044-0.397-5.731
			c-0.516-0.893-1.219-1.453-2.015-1.808l0.188-0.753c0.006-0.013,0.016-0.021,0.021-0.035c0.16-0.438,0.816-0.633,1.631-0.491
			c0.176,0.031,0.378,0.177,0.611,0.345c0.41,0.295,0.921,0.663,1.663,0.663c0.635,0,1.066-0.318,1.413-0.574
			c0.341-0.252,0.606-0.447,1.061-0.427c0.274,0.04,0.511-0.197,0.525-0.473S25.114,1.266,24.839,1.251z"/>
		<path fill="#745DA6" d="M6.825,8.074c-0.087-0.072-0.04-0.213,0.073-0.222c1.597-0.129,2.835-0.336,4.127-0.101
			c1.557,0.283,2,0.75,3.375,0.687c1.863-0.085,1.586,0.438,1.586,0.438v2.125c0,0-0.398,0.562-1.711,0.562
			c-1.5,0-1.875-0.75-3.25-0.875c-0.924-0.084-3,0.498-3.863,0.756c-0.118,0.035-0.212-0.102-0.135-0.199l1.435-1.807L6.825,8.074z"
			/>
		<path fill="#866EBA" d="M16,3.001v10.985c0,0-3.577,0.396-4.609-2.925c-0.572-1.839-0.578-4.044,0.397-5.731
			c0.516-0.893,1.219-1.453,2.015-1.808l-0.188-0.754c-0.006-0.013-0.016-0.021-0.021-0.035c-0.16-0.438-0.815-0.635-1.631-0.491
			c-0.176,0.031-0.378,0.177-0.611,0.345c-0.41,0.295-0.921,0.663-1.663,0.663c-0.635,0-1.066-0.318-1.413-0.574
			C7.933,2.424,7.666,2.235,7.214,2.25C6.938,2.292,6.702,2.052,6.688,1.777C6.674,1.502,6.886,1.266,7.161,1.252
			c0.814-0.054,1.307,0.325,1.707,0.62c0.328,0.242,0.528,0.379,0.819,0.379c0.42,0,0.725-0.22,1.079-0.475
			c0.305-0.22,0.62-0.447,1.021-0.518c0.541-0.096,1.035-0.074,1.458,0.04l-0.169-0.677c-0.066-0.268,0.096-0.539,0.364-0.606
			c0.263-0.067,0.54,0.096,0.606,0.364l0.704,2.816c0.376-0.091,0.764-0.152,1.157-0.187C15.939,3.005,15.969,3.003,16,3.001z"/>
		<path fill="#745DA6" d="M16,32v-9.562c1.105,0,2,0.895,2,2V30C18,31.105,17.105,32,16,32z"/>
		<g>
			<path fill="#F7F7F7" d="M19,7.498c0-0.166-0.011-0.323-0.028-0.472L20,5.998v2c0,0.552-0.448,1-1,1h-0.5
				C18.776,8.998,19,8.326,19,7.498z"/>
			<path fill="#F7F7F7" d="M18.028,7.97c0.066,0.596,0.251,1.028,0.472,1.028H17L18.028,7.97z"/>
			<path fill="#A93949" d="M18.028,7.97l0.944-0.944C18.989,7.175,19,7.332,19,7.498c0,0.828-0.224,1.5-0.5,1.5
				C18.279,8.998,18.094,8.566,18.028,7.97z"/>
		</g>
		<path fill="#FFD04D" d="M16,22.001v8.455l-0.336,0.29c-0.301-0.037-0.632-0.141-0.987-0.346c-0.317-1.828-1.104-5.549-2.459-7.295
			c-0.283-0.547-0.493-1.063-0.671-1.564C12.875,21.958,15.042,22.042,16,22.001z"/>
		<path fill="#FFD96C" d="M16,18.001v4c-1.583,0.041-3.583-0.084-4.453-0.459c-0.576-1.618-0.643-2.987-0.479-4.104
			C12.013,17.658,14.792,18.001,16,18.001z"/>
		<path fill="#7A63AD" d="M14,30.001v-5.562c0-1.105,0.895-2,2-2v9.562C14.895,32.001,14,31.105,14,30.001z"/>
		<g>
			<path fill="#FFFFFF" d="M13,7.498c0-0.166,0.011-0.323,0.028-0.472L12,5.998v2c0,0.552,0.448,1,1,1h0.5
				C13.224,8.998,13,8.327,13,7.498z"/>
			<path fill="#F7F7F7" d="M13.972,7.971c-0.066,0.596-0.251,1.028-0.472,1.028H15L13.972,7.971z"/>
			<path fill="#B93D4F" d="M13.972,7.971l-0.944-0.944C13.011,7.175,13,7.332,13,7.498c0,0.828,0.224,1.5,0.5,1.5
				C13.721,8.998,13.906,8.566,13.972,7.971z"/>
		</g>
		<path fill="#373F3F" d="M17.5,11.5c0,0.828-0.672,1.5-1.5,1.5v-3C16.828,10,17.5,10.672,17.5,11.5z"/>
		<path fill="none" d="M17,11.5c0-0.552-0.448-1-1-1v2C16.552,12.5,17,12.052,17,11.5z"/>
		<path fill="#434C4B" d="M16,10.001v3c-0.828,0-1.5-0.672-1.5-1.5S15.172,10.001,16,10.001z"/>
		<path fill="none" d="M15,11.501c0-0.552,0.448-1,1-1v2C15.448,12.501,15,12.052,15,11.501z"/>
		<path fill="#745DA6" d="M16,9.5L16,9.5c-1.103,0.001-2,0.898-2,2.001s0.897,2,2,2V13.5c1.103,0,2-0.897,2-2S17.103,9.5,16,9.5z
			 M16,12.5L16,12.5c-0.552,0.001-1-0.448-1-0.999s0.448-1,1-1V10.5c0.552,0,1,0.448,1,1S16.552,12.5,16,12.5z"/>
		<g>
			<path fill="none" d="M15,11.501c0-0.552,0.448-1,1-1v2C15.448,12.501,15,12.052,15,11.501z"/>
			<path fill="#7A63AD" d="M16,9.501v1c-0.552,0-1,0.448-1,1s0.448,1,1,1v1c-1.103,0-2-0.897-2-2S14.897,9.501,16,9.501z"/>
		</g>
	</g>
</g>
</svg>
