<?xml version="1.0" encoding="utf-8"?>
<!-- Generator: Adobe Illustrator 23.0.6, SVG Export Plug-In . SVG Version: 6.00 Build 0)  -->
<svg version="1.1" xmlns="http://www.w3.org/2000/svg" xmlns:xlink="http://www.w3.org/1999/xlink" x="0px" y="0px" width="32px"
	 height="32px" viewBox="0 0 32 32" enable-background="new 0 0 32 32" xml:space="preserve">
<g id="labels">
	<g>
	</g>
</g>
<g id="icons">
	<g>
		<path fill="#4EAFA3" d="M20.375,28.75h3.001c0.25,0,0.462-0.185,0.495-0.433l1.191-8.755h-4.688V28.75z"/>
		<path fill="#D1D4D4" d="M20.75,28.743c0,0.246,0.008,0.445,1.375,0.445c1.394,0,1.375-0.199,1.375-0.445s-0.616-0.552-1.375-0.552
			C21.366,28.191,20.75,28.497,20.75,28.743z"/>
		<path fill="#60C4BC" d="M23.75,10.254c3.125,5.621,1.308,10.371,0.875,11.496c-0.89,2.313-2.679,6.145-3.5,8.189
			c-0.077,0.193-0.262,0.312-0.47,0.309l-3.133-0.052c-0.285-0.005-0.54-0.244-0.522-0.528c0,0-0.406-4.605-0.5-6.043
			c-0.045-0.686-0.089-0.621-0.5-0.621V1.25C21.083,1.25,23.75,4.8,23.75,10.254z"/>
		<path fill="#58B7AE" d="M11.625,28.75H8.624c-0.25,0-0.462-0.185-0.495-0.433l-1.191-8.755h4.688V28.75z"/>
		<path fill="#DADDDC" d="M11.25,28.743c0,0.246-0.008,0.445-1.375,0.445c-1.394,0-1.375-0.199-1.375-0.445s0.616-0.552,1.375-0.552
			S11.25,28.497,11.25,28.743z"/>
		<path fill="#79C6C1" d="M16,1.25v21.754c-0.411,0-0.413-0.06-0.5,0.621c-0.188,1.469-0.5,6.043-0.5,6.043
			c0.018,0.284-0.237,0.523-0.522,0.528l-3.133,0.052c-0.208,0.003-0.392-0.116-0.47-0.309c-0.821-2.044-2.611-5.876-3.5-8.189
			c-0.433-1.126-2.25-5.875,0.875-11.496C8.25,4.8,10.917,1.25,16,1.25z"/>
		<path fill="#60C4BC" d="M16,19.333v3.67c-0.411,0-0.413-0.06-0.5,0.621c-0.188,1.469-0.5,6.043-0.5,6.043
			c0.018,0.284-0.237,0.523-0.522,0.528l-3.133,0.052c-0.208,0.003-0.392-0.116-0.47-0.309c-0.821-2.044-2.611-5.876-3.5-8.189
			C7.244,21.409,6.344,18.875,6.5,17.5C8.557,18.359,12.25,19.25,16,19.333z"/>
		<path fill="#58B7AE" d="M25.5,17.5c0.156,1.375-0.744,3.909-0.875,4.25c-0.89,2.313-2.679,6.145-3.5,8.189
			c-0.077,0.193-0.262,0.312-0.47,0.309l-3.133-0.052c-0.285-0.005-0.54-0.244-0.522-0.528c0,0-0.312-4.574-0.5-6.043
			c-0.087-0.682-0.089-0.621-0.5-0.621v-3.67C19.75,19.25,23.443,18.359,25.5,17.5z"/>
		<path fill="#E3E5E5" d="M14.375,30.305c0,0.246-0.008,0.445-1.375,0.445c-1.394,0-1.375-0.199-1.375-0.445
			s0.616-0.552,1.375-0.552S14.375,30.059,14.375,30.305z"/>
		<path fill="#8FCEC9" d="M16,10.816v11c-0.72,0-1.276,0.015-1.703-0.74c-1.018-1.801-2.047-6.135-2.047-8.072
			C12.25,11.67,14.75,10.816,16,10.816z"/>
		<g>
			
				<ellipse transform="matrix(0.2588 -0.9659 0.9659 0.2588 1.634 18.313)" fill="#373F3F" cx="12.75" cy="8.092" rx="1.526" ry="0.821"/>
			
				<ellipse transform="matrix(0.2588 -0.9659 0.9659 0.2588 2.2166 18.0639)" fill="#FFFFFF" cx="12.879" cy="7.588" rx="0.702" ry="0.482"/>
		</g>
		<g>
			
				<ellipse transform="matrix(0.9659 -0.2588 0.2588 0.9659 -1.4384 5.258)" fill="#2B3332" cx="19.25" cy="8.092" rx="0.821" ry="1.526"/>
			
				<ellipse transform="matrix(0.9659 -0.2588 0.2588 0.9659 -1.3123 5.2074)" fill="#F7F7F7" cx="19.121" cy="7.588" rx="0.482" ry="0.702"/>
		</g>
		<path fill="#DADDDC" d="M17.625,30.305c0,0.246,0.008,0.445,1.375,0.445c1.394,0,1.375-0.199,1.375-0.445S19.759,29.754,19,29.754
			C18.241,29.754,17.625,30.059,17.625,30.305z"/>
		<path fill="#79C6C1" d="M16,10.816v11c0.72,0,1.276,0.015,1.703-0.74c1.018-1.801,2.047-6.135,2.047-8.072
			C19.75,11.67,17.25,10.816,16,10.816z"/>
		<path fill="#D1473D" d="M16,9.816c-1.25,0-4.25,0.604-4.25,1.938c0,2.75,1.812,0.75,4.25,0.75c2.437,0,4.25,2,4.25-0.75
			C20.25,10.42,17.25,9.816,16,9.816z"/>
		<path fill="#60C4BC" d="M21.625,3.535c4.438,0,7.798,2.439,9.495,5.841c1.813,3.632,0.606,8.264-1.644,8.19
			c-4.012-0.132-2.838-5.83-4.56-7.983C23.25,7.5,21.625,6.708,21.625,3.535z"/>
		<path fill="#D1473D" d="M30.078,17.455c0.102-0.038,0.201-0.083,0.296-0.141c0.047-0.029,0.094-0.06,0.14-0.093
			c0.092-0.068,0.181-0.146,0.266-0.232c0.037-0.037,0.075-0.071,0.111-0.111c0.116-0.132,0.226-0.276,0.326-0.439
			c0-0.001,0.001-0.001,0.001-0.002c0.102-0.166,0.192-0.351,0.276-0.546c0.023-0.054,0.043-0.112,0.064-0.167
			c0.057-0.147,0.11-0.299,0.156-0.458c0.02-0.069,0.039-0.14,0.057-0.211c0.042-0.164,0.077-0.333,0.107-0.507
			c0.012-0.067,0.025-0.132,0.035-0.199c0.036-0.242,0.063-0.491,0.076-0.747c-0.937,0.069-1.983-0.2-2.701-1.089
			c-0.257-0.319-0.779-0.201-0.864,0.199c-0.227,1.066-0.618,2.03-1.812,2.525c0.381,1.072,0.979,1.932,2.11,2.223
			c0.04,0.009,0.079,0.021,0.119,0.029c0.197,0.042,0.406,0.073,0.636,0.081c0.161,0.005,0.315-0.02,0.464-0.06
			C29.988,17.493,30.032,17.472,30.078,17.455z"/>
		<path fill="#79C6C1" d="M10.375,3.535c-4.438,0-7.798,2.439-9.495,5.841c-1.813,3.632-0.606,8.264,1.644,8.19
			c4.012-0.132,2.838-5.83,4.56-7.983C8.75,7.5,10.375,6.458,10.375,3.535z"/>
		<path fill="#D64F45" d="M1.911,17.455c-0.102-0.038-0.201-0.083-0.296-0.141c-0.047-0.029-0.094-0.06-0.14-0.093
			c-0.092-0.068-0.181-0.146-0.266-0.232c-0.037-0.037-0.075-0.071-0.111-0.111c-0.116-0.132-0.226-0.276-0.326-0.439l-0.001-0.002
			C0.67,16.269,0.58,16.084,0.496,15.89c-0.023-0.054-0.043-0.112-0.064-0.167c-0.057-0.147-0.11-0.299-0.156-0.458
			c-0.02-0.069-0.039-0.14-0.057-0.211c-0.042-0.164-0.077-0.333-0.107-0.507c-0.012-0.067-0.025-0.132-0.035-0.199
			C0.04,14.104,0.013,13.855,0,13.599c0.937,0.069,1.983-0.2,2.701-1.089c0.257-0.319,0.779-0.201,0.864,0.199
			c0.227,1.066,0.618,2.03,1.812,2.525c-0.381,1.072-0.979,1.932-2.11,2.223c-0.04,0.009-0.079,0.021-0.119,0.029
			c-0.197,0.042-0.406,0.073-0.636,0.081c-0.161,0.005-0.315-0.02-0.464-0.06C2.001,17.493,1.957,17.472,1.911,17.455z"/>
		<path fill="#D64F45" d="M16,9.816v2.688c-2.438,0-4.25,2-4.25-0.75C11.75,10.42,14.75,9.816,16,9.816z"/>
	</g>
</g>
</svg>
