<?xml version="1.0" encoding="utf-8"?>
<!-- Generator: Adobe Illustrator 23.0.6, SVG Export Plug-In . SVG Version: 6.00 Build 0)  -->
<svg version="1.1" xmlns="http://www.w3.org/2000/svg" xmlns:xlink="http://www.w3.org/1999/xlink" x="0px" y="0px" width="32px"
	 height="32px" viewBox="0 0 32 32" enable-background="new 0 0 32 32" xml:space="preserve">
<g id="labels">
	<g>
	</g>
</g>
<g id="icons">
	<g>
		<path fill="#B8A5E4" d="M21.807,21.077l-1.067-0.657l-0.864-0.531c3.231-5.251,1.59-7.046,3.808-10.65
			c2.209-3.591,5.382-4.326,6.552-4.023c0.746,0.877,1.571,4.071-0.638,7.662C27.379,16.481,25.038,15.825,21.807,21.077z"/>
		
			<ellipse transform="matrix(0.0646 -0.9979 0.9979 0.0646 -0.8932 53.1958)" fill="#B8A5E4" cx="27.928" cy="27.074" rx="4.906" ry="4.073"/>
		<path fill="#237899" d="M23,5.792c0,2.521-1.68,5.128-4.098,5.646c-1.068,0.229-1.339,1.646-1.339,2.509
			c0,1.303,0.922,2.042,2.438,2.553c3.483,1.174,5.799,3.875,5.799,7.5c0,3.642-3.487,7-9.799,7c0,0,0-24.124,0-30.996
			C19.75,0.004,23,2.593,23,5.792z"/>
		
			<ellipse transform="matrix(0.9979 -0.0646 0.0646 0.9979 -1.74 0.3195)" fill="#C6B7E9" cx="4.072" cy="27.074" rx="4.073" ry="4.906"/>
		<path fill="#2B7E9F" d="M16,0.004c0,6.871,0,30.996,0,30.996c-6.313,0-9.799-3.358-9.799-7c0-3.625,2.316-6.326,5.799-7.5
			c1.515-0.511,2.437-1.249,2.437-2.553c0-0.863-0.271-2.28-1.339-2.509C10.68,10.919,9,8.312,9,5.792C9,2.593,12.25,0.004,16,0.004
			z"/>
		<path fill="#3085A6" d="M16,0.004c0,1.923,0,4.334,0,7.653c-3.5,0-4.719-0.344-7-1.865C9,2.593,12.25,0.004,16,0.004z"/>
		<path fill="#2B7E9F" d="M23,5.792c-2.281,1.521-3.5,1.865-7,1.865c0-3.319,0-5.73,0-7.653C19.75,0.004,23,2.593,23,5.792z"/>
		<path fill="#FFFFFF" d="M10.656,8.423C10.16,8.415,9.699,8.211,9.361,7.855c-0.26-0.628-0.392-1.324-0.392-2.063
			c0-0.831,0.214-1.615,0.604-2.329c1.709-1.088,2.709,1.102,2.709,2.475C12.281,7.31,11.554,8.436,10.656,8.423z"/>
		<ellipse fill="#373F3F" cx="10.723" cy="5.789" rx="0.875" ry="1.458"/>
		<ellipse fill="#FFFFFF" cx="10.723" cy="5.789" rx="0.438" ry="0.729"/>
		<path fill="#F7F7F7" d="M19.719,5.938c0-1.373,1-3.562,2.709-2.475c0.39,0.714,0.604,1.498,0.604,2.329
			c0,0.739-0.132,1.436-0.392,2.063c-0.338,0.356-0.799,0.56-1.295,0.568C20.446,8.436,19.719,7.31,19.719,5.938z"/>
		<ellipse fill="#2B3332" cx="21.277" cy="5.789" rx="0.875" ry="1.458"/>
		<ellipse fill="#F7F7F7" cx="21.277" cy="5.789" rx="0.438" ry="0.729"/>
		<path fill="#C6B7E9" d="M16,11.25V6.557c0.841-0.001,1.681,0.122,2.15,0.371c0.544,0.288,1.035,0.6,0.717,1.081l-1.792,2.701
			C16.836,11.07,16.418,11.25,16,11.25z"/>
		<path fill="#C6B7E9" d="M21.969,29.724c-0.469-3.35-2.136-7.037-5.969-7.037v0c-3.833,0-5.5,3.687-5.969,7.037
			c1.719,0.943,3.729,1.275,5.969,1.275v0C18.24,31,20.25,30.667,21.969,29.724z"/>
		<path fill="#D4C9EF" d="M14.925,10.71l-1.792-2.701c-0.319-0.48,0.173-0.792,0.717-1.081c0.469-0.249,1.309-0.372,2.15-0.371
			v4.693C15.582,11.25,15.164,11.07,14.925,10.71z"/>
		<path fill="#D4C9EF" d="M16,22.687v8.312c-2.24,0-4.25-0.333-5.969-1.275C10.5,26.374,12.167,22.687,16,22.687z"/>
	</g>
</g>
</svg>
