<?xml version="1.0" encoding="utf-8"?>
<!-- Generator: Adobe Illustrator 23.0.6, SVG Export Plug-In . SVG Version: 6.00 Build 0)  -->
<svg version="1.1" xmlns="http://www.w3.org/2000/svg" xmlns:xlink="http://www.w3.org/1999/xlink" x="0px" y="0px" width="32px"
	 height="32px" viewBox="0 0 32 32" enable-background="new 0 0 32 32" xml:space="preserve">
<g id="labels">
	<g>
	</g>
</g>
<g id="icons">
	<g>
		<path fill="#FFD96C" d="M14,7.157V1c0-0.552-0.448-1-1-1h-1.895c-0.592,0-1.054,0.511-0.995,1.099l0.708,7.081
			C7.621,9.904,6,13.409,6,18c0,6.627,3.373,12,10,12V7C15.294,7,14.632,7.06,14,7.157z M12.1,1C12.597,1,13,1.403,13,1.9v1.263
			C13,3.625,12.625,4,12.163,4h0c-0.43,0-0.79-0.326-0.833-0.754L11.204,1.99C11.151,1.46,11.568,1,12.1,1z"/>
		<path fill="#FFD04D" d="M21.182,8.181l0.708-7.081C21.949,0.511,21.487,0,20.895,0H19c-0.552,0-1,0.448-1,1v6.157
			C17.368,7.06,16.706,7,16,7v23c6.627,0,10-5.373,10-12C26,13.409,24.379,9.904,21.182,8.181z M19,1.9C19,1.403,19.403,1,19.9,1
			c0.532,0,0.949,0.46,0.896,0.99L20.67,3.246C20.627,3.674,20.267,4,19.837,4h0C19.375,4,19,3.625,19,3.163V1.9z"/>
		<path fill="#FFD04D" d="M32,27c0,0,0-7-7-11v2h1c3,3,0,7.182,0,9H32z"/>
		<path fill="#2B3332" d="M29,22c0.794,0,1.51,0.314,2.046,0.817C31.993,25.153,32,27,32,27h-6c0-0.967,0.844-2.604,1.187-4.376
			C27.692,22.238,28.315,22,29,22z"/>
		<path fill="#2B3332" d="M28.721,19.038c0.562,0.647,1.032,1.303,1.417,1.953C28.733,19.885,27.326,21,27.326,21l-0.002-0.003
			c-0.022-0.462-0.112-0.921-0.276-1.37C27.664,19.088,28.244,18.973,28.721,19.038z"/>
		<path fill="#FFD96C" d="M0,27c0,0,0-7,7-11v2H6c-3,3,0,7.182,0,9H0z"/>
		<path fill="#F7F7F7" d="M18.16,14.896l4.407-1.763c0.164-0.066,0.344,0.051,0.343,0.227c-0.002,0.853-0.193,2.942-2.012,3.14
			c-1.731,0.189-2.559-0.763-2.86-1.241C17.955,15.127,18.014,14.954,18.16,14.896z"/>
		<path fill="#2B3332" d="M19.898,16c0.552,0,1-0.895,1-2c0-0.067-0.007-0.131-0.01-0.196l-1.942,0.777
			C19.071,15.4,19.448,16,19.898,16z"/>
		<path fill="#FFFFFF" d="M13.864,14.896l-4.407-1.763c-0.164-0.066-0.344,0.051-0.343,0.227c0.002,0.853,0.193,2.942,2.012,3.14
			c1.731,0.189,2.559-0.763,2.86-1.241C14.069,15.127,14.01,14.954,13.864,14.896z"/>
		<path fill="#2B3332" d="M12.126,16c-0.552,0-1-0.895-1-2c0-0.067,0.007-0.131,0.01-0.196l1.942,0.777
			C12.953,15.4,12.576,16,12.126,16z"/>
		<path fill="#373F3F" d="M16,18h-1.915c-0.237,0-0.442,0.167-0.49,0.399l-0.825,4C12.707,22.709,12.944,23,13.26,23h1.386
			l-0.676,3.381c-0.097,0.485,0.494,0.801,0.844,0.452L16,25.647V18z"/>
		<path fill="#2B3332" d="M19.439,21l-0.793,0l0.781-2.342C19.535,18.334,19.294,18,18.953,18H16v7.647l3.793-3.793
			C20.108,21.539,19.885,21,19.439,21z"/>
		<path fill="#373F3F" d="M9.306,21c0.341,0,0.582-0.334,0.474-0.658l-0.667-2C9.046,18.138,8.855,18,8.64,18H6
			c0,1.038,0.093,2.039,0.258,3H9.306z"/>
		<path fill="#373F3F" d="M11.114,23.342C11.046,23.138,10.855,23,10.64,23H6.742c0.353,1.101,0.833,2.109,1.438,3h3.126
			c0.341,0,0.582-0.334,0.474-0.658L11.114,23.342z"/>
		<path fill="#2B3332" d="M22.886,18.342l-0.667,2C22.111,20.666,22.352,21,22.694,21h3.049C25.907,20.039,26,19.038,26,18h-2.64
			C23.145,18,22.954,18.138,22.886,18.342z"/>
		<path fill="#2B3332" d="M25.258,23H21.36c-0.215,0-0.406,0.138-0.474,0.342l-0.667,2C20.111,25.666,20.352,26,20.694,26h3.126
			C24.425,25.109,24.906,24.101,25.258,23z"/>
		
			<ellipse transform="matrix(0.707 -0.7072 0.7072 0.707 -17.0727 15.7745)" fill="#FFE28A" cx="10.5" cy="28.49" rx="2.48" ry="4.283"/>
		
			<ellipse transform="matrix(0.7072 -0.707 0.707 0.7072 -13.8475 23.5406)" fill="#FFD96C" cx="21.5" cy="28.49" rx="4.283" ry="2.48"/>
		<circle fill="#FFD96C" cx="29" cy="27" r="3"/>
		<path fill="#373F3F" d="M3,22c-0.794,0-1.51,0.314-2.046,0.817C0.007,25.153,0,27,0,27h6c0-0.967-0.844-2.604-1.187-4.376
			C4.308,22.238,3.685,22,3,22z"/>
		<circle fill="#FFE28A" cx="3" cy="27" r="3"/>
		<path fill="#373F3F" d="M3.279,19.038c-0.562,0.647-1.032,1.303-1.417,1.953C3.267,19.885,4.674,21,4.674,21l0.002-0.003
			c0.022-0.462,0.112-0.921,0.276-1.37C4.336,19.088,3.756,18.973,3.279,19.038z"/>
		<circle fill="#F7F7F7" cx="3" cy="25" r="1"/>
		<circle fill="#F7F7F7" cx="4.732" cy="28" r="1"/>
		<circle fill="#F7F7F7" cx="1.268" cy="28" r="1"/>
		<circle fill="#EDEEEE" cx="29" cy="25" r="1"/>
		<circle fill="#EDEEEE" cx="30.732" cy="28" r="1"/>
		<circle fill="#EDEEEE" cx="27.268" cy="28" r="1"/>
	</g>
</g>
</svg>
