<?xml version="1.0" encoding="utf-8"?>
<!-- Generator: Adobe Illustrator 23.0.6, SVG Export Plug-In . SVG Version: 6.00 Build 0)  -->
<svg version="1.1" xmlns="http://www.w3.org/2000/svg" xmlns:xlink="http://www.w3.org/1999/xlink" x="0px" y="0px" width="32px"
	 height="32px" viewBox="0 0 32 32" enable-background="new 0 0 32 32" xml:space="preserve">
<g id="labels">
	<g>
	</g>
</g>
<g id="icons">
	<g>
		<path fill="#F79654" d="M19.017,29c-0.021-2,1.165-6,1.165-6l2.81-0.25c0,0-0.005,3.362-1.523,5.647
			c0.219,0.134,0.434,0.295,0.633,0.493c0.919,0.919,1.167,2.161,0.555,2.773c-0.613,0.613-1.854,0.364-2.773-0.555
			C19.228,30.454,18.922,29.638,19.017,29z"/>
		<path fill="#FCA15E" d="M12.975,29c0.021-2-1.165-6-1.165-6L9,22.75c0,0,0.005,3.362,1.523,5.647
			c-0.219,0.134-0.434,0.295-0.633,0.493c-0.919,0.919-1.167,2.161-0.555,2.773c0.613,0.613,1.854,0.364,2.773-0.555
			C12.764,30.454,13.071,29.638,12.975,29z"/>
		<path fill="#F79654" d="M19.066,21c0,0,4.376-2.917,6.277-6.883c0.539-1.125,1.818-1.679,2.976-1.216l0,0
			c1.487,0.595,1.951,2.489,0.88,3.681c-1.688,1.88-4.612,4.288-9.133,5.418L19.066,21z"/>
		<path fill="#FCA15E" d="M13,21c0,0-4.376-2.917-6.277-6.883c-0.539-1.125-1.818-1.679-2.976-1.216l0,0
			c-1.487,0.595-1.951,2.489-0.88,3.681C4.555,18.462,7.479,20.87,12,22L13,21z"/>
		<path fill="#F79654" d="M23,22.75c0-4.349-3.134-8.75-7-8.75v14C19.866,28,23,27.099,23,22.75z"/>
		<path fill="#FCA15E" d="M16,14c-3.866,0-7,4.401-7,8.75S12.134,28,16,28V14z"/>
		<path fill="#FFAD68" d="M16,5c-3.866,0-7,3.134-7,7c0,3.866,3.134,6,7,6V5z"/>
		<path fill="#FCA15E" d="M23,12c0-3.866-3.134-7-7-7v13C19.866,18,23,15.866,23,12z"/>
		<path fill="#FFFFFF" d="M14,8v5l-1.5,1c0,0-1.5-1-1.5-5L14,8z"/>
		<path fill="#F7F7F7" d="M18,8v5l1.5,1c0,0,1.5-1,1.5-5L18,8z"/>
		<path fill="#FFAD68" d="M16,1.38C15.267,0.541,14.202,0,13,0c-2.209,0-4,1.791-4,4c0,2.209,1.791,4,4,4c1.202,0,3-0.38,3-0.38
			V1.38z"/>
		<path fill="#FCA15E" d="M19,0c-1.202,0-2.267,0.541-3,1.38V7.62c0,0,1.798,0.38,3,0.38c2.209,0,4-1.791,4-4
			C23,1.791,21.209,0,19,0z"/>
		<circle fill="#FFB76D" cx="8" cy="5" r="4"/>
		<path fill="#2B3332" d="M19.5,11c0,1.036-0.336,1.5-0.75,1.5S18,12.036,18,11c0-0.48,0-2,0-2h1.5C19.5,9,19.5,9.964,19.5,11z"/>
		<path fill="#373F3F" d="M14,11c0,1.036-0.336,1.5-0.75,1.5S12.5,12.036,12.5,11s0-2,0-2H14C14,9,14,10.353,14,11z"/>
		<path fill="#FFFFFF" d="M13.5,10.5c0,0.276-0.112,0.5-0.25,0.5S13,10.776,13,10.5c0-0.09,0-1,0-1h0.5
			C13.5,9.5,13.5,10.224,13.5,10.5z"/>
		<circle fill="#FFC172" cx="12" cy="6" r="4"/>
		<path fill="#F7F7F7" d="M19,10.5c0,0.276-0.112,0.5-0.25,0.5s-0.25-0.224-0.25-0.5c0-0.09,0-1,0-1H19C19,9.5,19,10.224,19,10.5z"
			/>
		<circle fill="#FFAD68" cx="25" cy="5" r="4"/>
		<circle fill="#FFB76D" cx="20" cy="6" r="4"/>
		<path fill="#FFE28A" d="M16,12v6c2.209,0,4-1.343,4-3S18.209,12,16,12z"/>
		<path fill="#FFEAA7" d="M12,15c0,1.657,1.791,3,4,3v-6C13.791,12,12,13.343,12,15z"/>
		<path fill="#FCA15E" d="M16,15c-0.828,0-1.5,0.448-1.5,1c0,0.552,0.672,1,1.5,1V15z"/>
		<path fill="#F79654" d="M17.5,16c0-0.552-0.672-1-1.5-1v2C16.828,17,17.5,16.552,17.5,16z"/>
		<path fill="#FFE28A" d="M16.434,23.084c-0.224-0.053-0.43-0.246-0.434-0.475V28c1.38,0,2.665-0.117,3.749-0.463
			c0.498-0.159,0.798-0.671,0.678-1.18C20.178,25.294,19.305,23.765,16.434,23.084z"/>
		<path fill="#FFEAA7" d="M15.326,20.723c-1.444,0.559-4.614,2.27-3.498,6.227c0.088,0.313,0.338,0.566,0.651,0.655
			C13.513,27.898,14.715,28,16,28v-6.868C15.963,20.81,15.637,20.603,15.326,20.723z"/>
	</g>
</g>
</svg>
