<?xml version="1.0" encoding="utf-8"?>
<!-- Generator: Adobe Illustrator 23.0.6, SVG Export Plug-In . SVG Version: 6.00 Build 0)  -->
<svg version="1.1" xmlns="http://www.w3.org/2000/svg" xmlns:xlink="http://www.w3.org/1999/xlink" x="0px" y="0px" width="32px"
	 height="32px" viewBox="0 0 32 32" enable-background="new 0 0 32 32" xml:space="preserve">
<g id="labels">
	<g>
	</g>
</g>
<g id="icons">
	<g>
		<path fill="#79C6C1" d="M31.827,13.944L28.73,7.652l1.212,0.391c0.161,0.009,0.263-0.17,0.172-0.303l-1.399-1.848l1.136-1.968
			c0.059-0.15-0.08-0.302-0.235-0.258l-2.052,0.965l-1.498-1.654c-0.125-0.102-0.312-0.017-0.318,0.144l0.262,2.215l-2.077,0.912
			c-0.136,0.087-0.113,0.292,0.039,0.347l2.228,0.437l0.472,2.27c0.041,0.156,0.243,0.197,0.342,0.07l0.676-1.575l3.262,6.612
			l-5.268-2.058c-0.619-0.224-1.326-0.016-1.718,0.512l-8.117,10.901l0.802,0.598l8.118-10.902c0.133-0.178,0.364-0.246,0.562-0.173
			l5.272,2.059c0.394,0.142,0.824,0.027,1.096-0.291C31.97,14.736,32.017,14.294,31.827,13.944z"/>
		<path fill="#C976A3" d="M25,16.853c0,0.93-0.411,1.756-1.052,2.333l-2.043-5.474C23.619,13.74,25,15.133,25,16.853z"/>
		<path fill="#D786B3" d="M23.56,18.145l-0.467-1.253h0.019L19.335,6.821c-0.862,0-1.781-0.039-1.781-0.039v10.111h1.156
			C18.731,18.612,20.128,20,21.853,20c0.809,0,1.538-0.314,2.096-0.815c0.323-0.29,0.587-0.644,0.77-1.043
			C24.419,18.142,23.992,18.143,23.56,18.145z"/>
		<path fill="#D786B3" d="M7,16.853c0,0.93,0.411,1.756,1.052,2.333l2.043-5.474C8.381,13.74,7,15.133,7,16.853z"/>
		<path fill="#DB92BB" d="M14.446,6.781c0,0-0.919,0.039-1.781,0.039L8.888,16.892h0.019L8.44,18.145
			c-0.432-0.001-0.859-0.002-1.159-0.002c0.183,0.399,0.447,0.753,0.77,1.043C8.609,19.686,9.339,20,10.147,20
			c1.725,0,3.122-1.388,3.143-3.108h1.156V6.781z"/>
		<path fill="#F1EDFA" d="M16,0v14c-3.5,0-7-1.438-7-4.25c0-4.279,4.355-5.266,6.407-7.665c-0.32-0.201-0.545-0.541-0.545-0.947
			C14.862,0.509,15.372,0,16,0z"/>
		<path fill="#FFD04D" d="M16,20l-3.814-0.954c-2.028-0.507-3.94,1.164-3.709,3.242l0.47,4.234c0.034,0.302-0.072,0.603-0.287,0.818
			l-0.367,0.367C8.105,27.895,8,28.149,8,28.414V30c0,0.552,0.448,1,1,1h7V20z"/>
		<path fill="#FFD96C" d="M16,10.168c-2.886,0.488-5,2.987-5,5.915v10.919c0,0.639-0.254,1.252-0.706,1.704l-0.001,0.001
			C10.105,28.895,10,29.149,10,29.414V31c0,0.552,0.448,1,1,1h3c0.552,0,1-0.448,1-1v-3.029c0-1.976,0.195-3.946,0.583-5.883
			l0.257-1.283c0.027-0.135,0.087-0.255,0.161-0.363V10.168z"/>
		<path fill="#F7C845" d="M16,20l3.814-0.954c2.028-0.507,3.94,1.164,3.709,3.242l-0.47,4.234c-0.034,0.302,0.072,0.603,0.287,0.818
			l0.367,0.367C23.895,27.895,24,28.149,24,28.414V30c0,0.552-0.448,1-1,1h-7V20z"/>
		<path fill="#FFD04D" d="M16,10.168c2.886,0.488,5,2.987,5,5.915v10.919c0,0.639,0.254,1.252,0.706,1.704l0.001,0.001
			C21.895,28.895,22,29.149,22,29.414V31c0,0.552-0.448,1-1,1h-3c-0.552,0-1-0.448-1-1v-3.029c0-1.976-0.195-3.946-0.583-5.883
			l-0.257-1.283c-0.027-0.135-0.087-0.255-0.161-0.363V10.168z"/>
		<path fill="#D4C9EF" d="M16,13.125c-0.719,0-4.25-1.25-4.25-0.062c0,1,2.125,3.062,2.125,4.438c0,3.139,1.125,2.156,1.125,3.5
			c0,1.438-0.313,4.375,1,4.375V13.125z"/>
		<path fill="#C6B7E9" d="M16,13.125c0.719,0,4.25-1.25,4.25-0.062c0,1-2.125,3.062-2.125,4.438c0,3.139-1.125,2.156-1.125,3.5
			c0,1.438,0.312,4.375-1,4.375V13.125z"/>
		<path fill="#E3DBF4" d="M16,11.5V14c-3.5,0-7-1.438-7-4.25C10,10.5,12,11.5,16,11.5z"/>
		<g>
			<path fill="#FFE28A" d="M12.028,6.752c-0.089,0.269-0.153,0.557-0.153,0.888c0,1.838,1.937,3.297,3.266,3.328
				c0.24,0.006,0.472-0.02,0.697-0.068c-0.148-0.091-0.37-0.235-0.588-0.401C15.25,8.136,14.083,6.765,12.028,6.752z"/>
			<path fill="#3E3D3D" d="M16,11c0,0,0-0.061,0-0.148c-0.055,0.015-0.106,0.038-0.162,0.05C15.93,10.959,16,11,16,11z"/>
		</g>
		<path fill="#F7F7F7" d="M14.125,11.969c-0.094,0.656,0.156,4.375,0.844,4.438c0.436,0.04,0.219-3.469,0.219-4.5L14.125,11.969z"/>
		<path fill="#FFFFFF" d="M13.426,6.976c-0.123,0.051-0.241,0.113-0.332,0.213c-0.434,0.477-0.433,1.419,0.204,1.999
			c0.553,0.504,1.429,0.522,1.895,0.234C14.955,8.235,14.355,7.392,13.426,6.976z"/>
		<ellipse transform="matrix(0.0061 -1 1 0.0061 5.5508 22.2816)" fill="#E7685F" cx="13.984" cy="8.348" rx="0.625" ry="0.542"/>
		<ellipse transform="matrix(0.0061 -1 1 0.0061 5.5628 22.2617)" fill="#373F3F" cx="13.98" cy="8.332" rx="0.359" ry="0.311"/>
		<path fill="#E3DBF4" d="M23,9.75c0,2.812-3.5,4.25-7,4.25V0c0.628,0,1.138,0.509,1.138,1.138c0,0.406-0.225,0.746-0.545,0.947
			C18.645,4.484,23,5.471,23,9.75z"/>
		<g>
			<path fill="#FFD96C" d="M19.972,6.752c0.089,0.269,0.153,0.557,0.153,0.888c0,1.838-1.938,3.297-3.266,3.328
				c-0.24,0.006-0.472-0.02-0.697-0.068c0.148-0.091,0.37-0.235,0.588-0.401C16.75,8.136,17.917,6.765,19.972,6.752z"/>
			<path fill="#3E3D3D" d="M16,11c0,0,0-0.061,0-0.148c0.055,0.015,0.106,0.038,0.162,0.05C16.07,10.959,16,11,16,11z"/>
		</g>
		<path fill="#F7F7F7" d="M18.574,6.976c0.123,0.051,0.241,0.113,0.332,0.213c0.434,0.477,0.27,1.334-0.368,1.914
			c-0.553,0.504-1.265,0.607-1.731,0.32C17.045,8.235,17.645,7.392,18.574,6.976z"/>
		<path fill="#2B3332" d="M20.436,3.865C19.82,4.248,18.781,4.851,17.75,5.25c0-0.77-0.5-2.398-1.75-2.398S14.25,4.48,14.25,5.25
			c-1.031-0.399-2.07-1.002-2.686-1.385c-0.195-0.121-0.437,0.061-0.371,0.281C11.428,4.931,11.818,6.218,12,6.75
			c2.074,0,3.25,1.375,3.25,3.75C15.604,10.771,16,11,16,11s0.396-0.229,0.75-0.5c0-2.375,1.176-3.75,3.25-3.75
			c0.182-0.532,0.572-1.819,0.807-2.604C20.873,3.926,20.631,3.743,20.436,3.865z"/>
		<path fill="#D4C9EF" d="M23,9.75c0,2.812-3.5,4.25-7,4.25v-2.5C20,11.5,22,10.5,23,9.75z"/>
		<path fill="#EDEEEE" d="M17.875,11.969c0.094,0.656-0.156,4.375-0.844,4.438c-0.436,0.04-0.219-3.469-0.219-4.5L17.875,11.969z"/>
		<ellipse transform="matrix(0.0061 -1 1 0.0061 9.573 26.3284)" fill="#E55D53" cx="18.031" cy="8.348" rx="0.625" ry="0.542"/>
		<ellipse transform="matrix(0.0061 -1 1 0.0061 9.585 26.3085)" fill="#2B3332" cx="18.027" cy="8.332" rx="0.359" ry="0.311"/>
		<path fill="#373F3F" d="M11.193,4.146C11.428,4.931,11.818,6.218,12,6.75c2.074,0,3.25,1.375,3.25,3.75C15.604,10.771,16,11,16,11
			V2.852c-1.25,0-1.75,1.628-1.75,2.398c-1.031-0.399-2.07-1.002-2.686-1.385C11.369,3.743,11.127,3.926,11.193,4.146z"/>
		<path fill="#79C6C1" d="M20.733,7.695L16,10.289l-4.733-2.594C11.144,7.62,11.002,7.76,11.08,7.879l2.391,3.408l-1.455,2.573
			c-0.072,0.115,0.057,0.249,0.179,0.188L16,12.136l3.804,1.911c0.123,0.062,0.251-0.073,0.179-0.188l-1.455-2.573l2.391-3.408
			C20.998,7.76,20.856,7.62,20.733,7.695z"/>
		<path fill="#8FCEC9" d="M16,10.289l-4.733-2.594C11.144,7.62,11.002,7.76,11.08,7.879l2.391,3.408l-1.455,2.573
			c-0.072,0.115,0.057,0.249,0.179,0.188L16,12.136V10.289z"/>
	</g>
</g>
</svg>
