<?xml version="1.0" encoding="utf-8"?>
<!-- Generator: Adobe Illustrator 23.0.6, SVG Export Plug-In . SVG Version: 6.00 Build 0)  -->
<svg version="1.1" xmlns="http://www.w3.org/2000/svg" xmlns:xlink="http://www.w3.org/1999/xlink" x="0px" y="0px" width="32px"
	 height="32px" viewBox="0 0 32 32" enable-background="new 0 0 32 32" xml:space="preserve">
<g id="labels">
	<g>
	</g>
</g>
<g id="icons">
	<g>
		<g>
			<g>
				<path fill="#237899" d="M25.508,15.687c2.587-3.187,1.348-7.302-1.607-9.251C20.578,4.246,22.477,0,16.308,0
					c-0.109,0-0.199-0.003-0.304,0l-0.008,0.028V0.015C15.891,0.013,15.801,0,15.692,0C9.523,0,11.422,4.246,8.1,6.436
					C5.144,8.385,3.905,12.5,6.492,15.687c2.962,3.303-1.361,5.056-0.193,8.04c0.641,1.636,2.537,1.388,4.008,0.887
					c0.909-0.31,1.59-0.693,1.59-0.693s1.975-0.403,4.096-0.361H16c2.121-0.042,4.104,0.361,4.104,0.361s0.681,0.383,1.59,0.693
					c1.47,0.501,3.367,0.749,4.008-0.887C26.869,20.743,22.546,18.99,25.508,15.687z"/>
				<path fill="#2B7E9F" d="M16.008,8.696V23.56l0,0c-0.001,0-0.003,0-0.004,0V8.664C16.006,8.683,16.008,8.696,16.008,8.696z"/>
			</g>
			<g>
				<path fill="#2B7E9F" d="M15.992,8.696V23.56l0,0c0.001,0,0.003,0,0.004,0V8.664C15.994,8.683,15.992,8.696,15.992,8.696z"/>
				<path fill="#1D7293" d="M16,23.56V8.696c0,0-0.002-0.013-0.004-0.033c0,0,0,0,0,0V23.56C15.997,23.56,15.999,23.56,16,23.56
					L16,23.56z"/>
			</g>
			<path fill="#2B7E9F" d="M15.696,0c-6.169,0-4.27,4.246-7.592,6.436C5.148,8.385,3.909,12.5,6.497,15.687
				c2.962,3.303-1.361,5.056-0.193,8.04c0.641,1.636,2.537,1.388,4.008,0.887c0.909-0.31,1.59-0.693,1.59-0.693
				s1.975-0.403,4.096-0.361L16,0C15.895-0.003,15.805,0,15.696,0z"/>
			<path fill="#237899" d="M15.996,8.696c0,0,0.002-0.013,0.004-0.032V5.273c-0.251-1.704-1.282-2.052-4.905,1.611
				c-3.001,3.034-3.063,5.173-1.919,7.393c1.143,2.219-0.314,4.339-1.08,5.663c-1.58,2.727-0.307,4.515,2.215,4.675
				c0.909-0.31,1.59-0.693,1.59-0.693s1.979-0.403,4.1-0.361h-0.004V8.696z"/>
			<path fill="#1D7293" d="M16.004,8.696c0,0-0.002-0.013-0.004-0.032V5.273c0.251-1.704,1.282-2.052,4.905,1.611
				c3.001,3.034,3.063,5.173,1.919,7.393c-1.143,2.219,0.314,4.339,1.08,5.663c1.58,2.727,0.307,4.515-2.215,4.675
				c-0.909-0.31-1.59-0.693-1.59-0.693s-1.975-0.403-4.096-0.361l0,0V8.696z"/>
		</g>
		<g>
			<path fill="#66D3D3" d="M23.707,27.707L23.34,27.34c-0.215-0.215-0.32-0.516-0.287-0.818l0.47-4.234
				c0.231-2.078-1.681-3.749-3.709-3.242L16,20l-3.814-0.954c-2.028-0.507-3.94,1.164-3.709,3.242l0.47,4.234
				c0.034,0.302-0.072,0.603-0.287,0.818l-0.367,0.367C8.105,27.895,8,28.149,8,28.414V30c0,0.552,0.448,1,1,1h7h7
				c0.552,0,1-0.448,1-1v-1.586C24,28.149,23.895,27.895,23.707,27.707z"/>
			<path fill="#7CD8D5" d="M16,20l-3.814-0.954c-2.028-0.507-3.94,1.164-3.709,3.242l0.47,4.234
				c0.034,0.302-0.072,0.603-0.287,0.818l-0.367,0.367C8.105,27.895,8,28.149,8,28.414V30c0,0.552,0.448,1,1,1h7V20z"/>
			<path fill="#7CD8D5" d="M16,11.168c2.886,0.488,5,2.987,5,5.915v9.919c0,0.639,0.254,1.252,0.706,1.704l0.001,0.001
				C21.895,28.895,22,29.149,22,29.414V31c0,0.552-0.448,1-1,1h-3c-0.552,0-1-0.448-1-1v-3.029c0-1.976-0.195-3.946-0.583-5.883
				l-0.257-1.283c-0.027-0.135-0.087-0.255-0.161-0.363V11.168z"/>
			<path fill="#8EDDD9" d="M16,11.168c-2.886,0.488-5,2.987-5,5.915v9.919c0,0.639-0.254,1.252-0.706,1.704l-0.001,0.001
				C10.105,28.895,10,29.149,10,29.414V31c0,0.552,0.448,1,1,1h3c0.552,0,1-0.448,1-1v-3.029c0-1.976,0.195-3.946,0.583-5.883
				l0.257-1.283c0.027-0.135,0.087-0.255,0.161-0.363V11.168z"/>
		</g>
		<g>
			<path fill="#DADDDC" d="M13.287,10.917c-0.375,0.5-1.479,1.99-1.479,4.688c0,2.677,4.193,4.836,4.193,4.836v-9.232
				C16,11.208,13.34,10.846,13.287,10.917z"/>
			<path fill="#D1D4D4" d="M18.713,10.917c0.375,0.5,1.479,2.521,1.479,4.688c0,2.896-4.193,4.836-4.193,4.836v-9.232
				C16,11.208,18.66,10.846,18.713,10.917z"/>
		</g>
		<path fill="#8EDDD9" d="M11.615,8.208c-0.168,0.594-0.281,1.251-0.281,1.959c0,1.796,0.883,2.707,1.562,3.142
			c0.447,0.286,0.759,0.724,0.936,1.225C14.065,15.197,14.631,16,16,16V6h-2.769C12.104,6.646,11.615,8.208,11.615,8.208z"/>
		<path fill="#7CD8D5" d="M20.385,8.208c0.168,0.594,0.281,1.251,0.281,1.959c0,1.796-0.883,2.707-1.562,3.142
			c-0.447,0.286-0.759,0.724-0.936,1.225C17.935,15.197,17.369,16,16,16V6h2.769C19.896,6.646,20.385,8.208,20.385,8.208z"/>
		<path fill="#F7F7F7" d="M18.571,9.329c-0.188,0.126-0.361,0.314-0.524,0.521c-0.073,0.093-0.142,0.193-0.209,0.294
			c-0.207,0.314-0.383,0.652-0.52,0.946c-0.202,0.433-0.32,0.768-0.32,0.768c0.601,0.234,1.049,0.141,1.367-0.026
			c0.382-0.2,0.573-0.508,0.573-0.508S19.224,9.909,18.571,9.329z"/>
		<path fill="#B93D4F" d="M18.047,9.851c-0.073,0.093-0.142,0.193-0.209,0.294c-0.207,0.314-0.383,0.652-0.52,0.946
			c-0.202,0.433-0.32,0.768-0.32,0.768c0.601,0.234,1.049,0.141,1.367-0.026c0.049-0.026,0.086-0.056,0.128-0.084
			c0.333-1.234-0.154-1.999-0.248-2.127C18.177,9.696,18.111,9.77,18.047,9.851z"/>
		<g>
			<g>
				<path fill="#2B3332" d="M17.791,11.612c0.239,0,0.432-0.461,0.432-1.03c0-0.158-0.017-0.303-0.044-0.437
					c-0.301,0.314-0.556,0.652-0.756,0.946C17.499,11.397,17.632,11.612,17.791,11.612z"/>
			</g>
			<g>
				<path fill="#2B3332" d="M17.791,11.612c0.239,0,0.432-0.461,0.432-1.03c0-0.158-0.017-0.303-0.044-0.437
					c-0.301,0.314-0.556,0.652-0.756,0.946C17.499,11.397,17.632,11.612,17.791,11.612z"/>
			</g>
		</g>
		<path fill="#4CAEBC" d="M16,9.812l4.328-3.731c0.278-0.212,0.678-0.014,0.678,0.335v0c0,0.096-0.033,0.189-0.092,0.263
			l-3.757,5.132C17.061,11.931,16.918,12,16.766,12H16V9.812z"/>
		<path fill="#FFFFFF" d="M13.426,9.329c0.188,0.126,0.361,0.314,0.524,0.521c0.073,0.093,0.142,0.193,0.209,0.294
			c0.207,0.314,0.383,0.652,0.52,0.946c0.202,0.433,0.32,0.768,0.32,0.768c-0.601,0.234-1.049,0.141-1.367-0.026
			c-0.382-0.2-0.573-0.508-0.573-0.508S12.773,9.909,13.426,9.329z"/>
		<path fill="#C84054" d="M13.95,9.851c0.073,0.093,0.142,0.193,0.209,0.294c0.207,0.314,0.383,0.652,0.52,0.946
			c0.202,0.433,0.32,0.768,0.32,0.768c-0.601,0.234-1.049,0.141-1.367-0.026c-0.049-0.026-0.086-0.056-0.128-0.084
			c-0.333-1.234,0.154-1.999,0.248-2.127C13.82,9.696,13.886,9.77,13.95,9.851z"/>
		<g>
			<g>
				<path fill="#373F3F" d="M14.206,11.612c-0.239,0-0.432-0.461-0.432-1.03c0-0.158,0.017-0.303,0.044-0.437
					c0.301,0.314,0.556,0.652,0.756,0.946C14.499,11.397,14.365,11.612,14.206,11.612z"/>
			</g>
			<g>
				<path fill="#2B3332" d="M14.206,11.612c-0.239,0-0.432-0.461-0.432-1.03c0-0.158,0.017-0.303,0.044-0.437
					c0.301,0.314,0.556,0.652,0.756,0.946C14.499,11.397,14.365,11.612,14.206,11.612z"/>
			</g>
		</g>
		<path fill="#51BAC5" d="M16,9.812l-4.322-3.731C11.4,5.869,11,6.067,11,6.417v0c0,0.096,0.033,0.189,0.092,0.263l3.752,5.132
			C14.939,11.931,15.082,12,15.234,12H16V9.812z"/>
		<path fill="#EDEEEE" d="M14.941,11.889c-0.278,0.142-1.631,0.882-1.551,1.858c0.001,0.008,0.004,0.019,0.005,0.028
			c0.185,0.226,0.337,0.477,0.436,0.758C14.065,15.197,14.631,16,16,16v-4h-0.766C15.125,12,15.027,11.954,14.941,11.889z"/>
		<path fill="#E3E5E5" d="M17.059,11.889c0.278,0.142,1.631,0.882,1.551,1.858c-0.001,0.008-0.004,0.019-0.005,0.028
			c-0.185,0.226-0.337,0.477-0.436,0.758C17.935,15.197,17.369,16,16,16v-4h0.766C16.875,12,16.973,11.954,17.059,11.889z"/>
		<path fill="#56C7CD" d="M15.812,8.182l-0.748-0.835C15.023,7.301,15,7.242,15,7.18V3.964c0-0.062,0.023-0.121,0.064-0.167
			l0.752-0.839C15.865,2.903,15.932,2.876,16,2.876V0.001c-0.135,0.001-0.27,0.056-0.368,0.165l-2.377,2.652
			C13.091,3.002,13,3.239,13,3.486v4.173c0,0.246,0.091,0.484,0.255,0.667l2.368,2.642c0.099,0.111,0.236,0.166,0.372,0.166
			c0.002,0,0.003-0.001,0.004-0.001V8.264C15.931,8.265,15.862,8.238,15.812,8.182z"/>
		<path fill="#51BAC5" d="M18.745,8.326C18.909,8.143,19,7.906,19,7.66V3.486c0-0.246-0.09-0.483-0.254-0.666l-2.369-2.653
			C16.278,0.056,16.141,0,16.004,0C16.003,0,16.002,0.001,16,0.001v2.875c0.069-0.001,0.138,0.026,0.188,0.083l0.748,0.838
			C16.977,3.842,17,3.901,17,3.962v3.217c0,0.062-0.023,0.121-0.064,0.167l-0.752,0.836C16.135,8.237,16.067,8.263,16,8.264v2.869
			c0.135-0.001,0.269-0.055,0.367-0.165L18.745,8.326z M17.126,1.501h-0.005H17.126z"/>
	</g>
</g>
</svg>
