<?xml version="1.0" encoding="utf-8"?>
<!-- Generator: Adobe Illustrator 23.0.6, SVG Export Plug-In . SVG Version: 6.00 Build 0)  -->
<svg version="1.1" xmlns="http://www.w3.org/2000/svg" xmlns:xlink="http://www.w3.org/1999/xlink" x="0px" y="0px" width="32px"
	 height="32px" viewBox="0 0 32 32" enable-background="new 0 0 32 32" xml:space="preserve">
<g id="labels">
	<g>
	</g>
</g>
<g id="icons">
	<g>
		<path fill="#6EDCA2" d="M23.498,29.75h-1.511l0.7-1.212l1.64-1.64c0.327-0.327,0.359-0.846,0.075-1.21L21,21.315
			c-0.338-0.435-0.981-0.475-1.371-0.085l-2.419,2.419c-0.39,0.39-0.35,1.033,0.085,1.371l2.841,2.209l-1.456,2.521h-0.01
			l-0.99,1.279C17.375,31.424,17.657,32,18.158,32h6.211c0.381,0,0.69-0.309,0.69-0.69C25.058,30.449,24.359,29.75,23.498,29.75z"/>
		<path fill="#7AEBAC" d="M14.704,25.02c0.435-0.338,0.475-0.981,0.085-1.371l-2.419-2.419c-0.39-0.39-1.033-0.35-1.371,0.085
			l-3.401,4.373c-0.284,0.365-0.251,0.884,0.075,1.21l1.64,1.64l0.7,1.212H8.502c-0.862,0-1.56,0.699-1.56,1.56
			c0,0.381,0.309,0.69,0.69,0.69h6.211c0.501,0,0.783-0.576,0.477-0.971l-0.99-1.279h-0.01l-1.456-2.521L14.704,25.02z"/>
		<path fill="#E85160" d="M6.314,16.182c0,0-0.53,2.721-1.893,4.584c-0.954,1.304-2.345,2.227-3.094,2.664
			c-0.198,0.115-0.432-0.068-0.365-0.287c0.246-0.8,0.794-2.303,1.759-3.621C4.29,17.376,6.314,16.182,6.314,16.182z"/>
		<path fill="#D84459" d="M25.686,16.182c0,0,0.53,2.721,1.893,4.584c0.954,1.304,2.345,2.227,3.094,2.664
			c0.198,0.115,0.432-0.068,0.365-0.287c-0.246-0.8-0.794-2.303-1.759-3.621C27.71,17.376,25.686,16.182,25.686,16.182z"/>
		<path fill="#E85160" d="M25.696,16.25c0,0-0.337,2.752,0.384,4.945c0.504,1.535,1.542,2.843,2.12,3.489
			c0.153,0.171,0.432,0.069,0.436-0.16c0.013-0.837-0.044-2.436-0.554-3.987C27.251,18.01,25.696,16.25,25.696,16.25z"/>
		<path fill="#F3586F" d="M25.66,16.27c0,0-1.171,2.513-1.163,4.821c0.005,1.616,0.588,3.18,0.938,3.974
			c0.092,0.21,0.39,0.199,0.464-0.018c0.271-0.792,0.711-2.33,0.705-3.963C26.595,18.425,25.66,16.27,25.66,16.27z"/>
		<path fill="#F3586F" d="M6.304,16.25c0,0,0.337,2.752-0.384,4.945c-0.504,1.535-1.542,2.843-2.12,3.489
			c-0.153,0.171-0.432,0.069-0.436-0.16c-0.013-0.837,0.044-2.436,0.554-3.987C4.749,18.01,6.304,16.25,6.304,16.25z"/>
		<path fill="#FF5F7E" d="M6.34,16.27c0,0,1.171,2.513,1.163,4.821c-0.005,1.616-0.588,3.18-0.938,3.974
			c-0.092,0.21-0.39,0.199-0.464-0.018c-0.271-0.792-0.711-2.33-0.705-3.963C5.405,18.425,6.34,16.27,6.34,16.27z"/>
		<path fill="#E85160" d="M16,1.99c0,0,1.917-1.448,3-1.573s3.664,3.351,4.458,9.333c0.625,4.708-1.833,10.625-4.042,11.708
			c0.917-2.167,2.333-8.208,1.708-11.083C19.822,4.381,16,1.99,16,1.99z"/>
		<path fill="#7AEBAC" d="M13.5,11.792c-1.219,1.053-6.264,5.044-6.264,5.044l0.776,1.508l5.488-2.727V11.792z"/>
		<path fill="#6EDCA2" d="M18.72,13.389v-3.222H13.28v3.549c0,2.296-1.209,4.505-2.195,6.579c-0.464,0.976-0.643,2.112-0.423,3.311
			c0.388,2.118,2.066,3.857,4.174,4.295c3.508,0.728,6.595-1.931,6.595-5.31c0-0.787-0.17-1.532-0.474-2.204
			C19.953,18.168,18.72,15.823,18.72,13.389z"/>
		<g>
			<path fill="#7AEBAC" d="M13.28,10.167v3.549c0,2.296-1.209,4.505-2.195,6.579c-0.464,0.976-0.643,2.112-0.423,3.311
				c0.388,2.118,2.066,3.857,4.174,4.295c0.395,0.082,0.783,0.115,1.164,0.115V10.167H13.28z"/>
		</g>
		<path fill="#6EDCA2" d="M18.5,11.792c1.219,1.053,6.264,5.044,6.264,5.044l-0.776,1.508L18.5,15.616V11.792z"/>
		<path fill="#6EDCA2" d="M22.833,17.41c-0.397,0.441-0.615,1.027,0.198,0.996c0.957-0.037,6.269-0.501,6.469-1
			c0.25-0.625,1.125-0.594,0.969,0.25c-0.191,1.03,1.492,0.468,1.529-0.509c0.038-0.977-0.413-1.465-1.052-1.39
			c-0.639,0.075-0.488-0.751-1.427-0.789c-0.939-0.038-1.765,0.627-2.592,0.777c-0.826,0.15-2.615,0.395-3.052,0.504
			C23.208,16.417,23.171,17.035,22.833,17.41z"/>
		<path fill="#EFD4A7" d="M18.142,13.389v-3.222h-4.283v3.549c0,2.296-1.787,4.505-2.773,6.579
			c-0.464,0.976-0.643,2.112-0.423,3.311c0.388,2.118,2.066,3.857,4.174,4.295c3.508,0.728,6.595-1.931,6.595-5.31
			c0-0.787-0.17-1.532-0.474-2.204C19.953,18.168,18.142,15.823,18.142,13.389z"/>
		<path fill="#F5DEB9" d="M16,10.167v17.848c-0.38,0-0.769-0.033-1.164-0.115c-2.108-0.438-3.786-2.177-4.174-4.295
			c-0.22-1.199-0.041-2.335,0.423-3.311c0.986-2.074,2.773-4.283,2.773-6.579v-3.549H16z"/>
		<path fill="#7AEBAC" d="M16,22.125v1.771c-1.875,0-3.792-0.396-5.378-2.063c0.077-0.544,0.236-1.061,0.463-1.539
			C12.125,21.333,13.708,22.125,16,22.125z"/>
		<path fill="#6EDCA2" d="M20.914,20.294c0.227,0.478,0.386,0.995,0.463,1.539C19.792,23.5,17.875,23.896,16,23.896v-1.771
			C18.292,22.125,19.875,21.333,20.914,20.294z"/>
		<path fill="#F5DEB9" d="M16,6.347L9,5.46l1.733,3.619c0.268,0.56,0.652,1.041,1.127,1.402c0.651,0.494,1.658,1.205,2.702,1.736
			c0.625,0.318,0.875,0.45,1.438,0.45c0.562,0,0.812-0.132,1.437-0.45c1.043-0.532,2.05-1.242,2.702-1.736
			c0.475-0.361,0.859-0.842,1.127-1.402L23,5.46L16,6.347z"/>
		<path fill="#FCE8CC" d="M16,6.347L9,5.46l1.733,3.619c0.268,0.56,0.652,1.041,1.127,1.402c0.651,0.494,1.658,1.205,2.702,1.736
			c0.625,0.318,0.875,0.45,1.438,0.45V6.347z"/>
		<path fill="#6EDCA2" d="M23.015,4.882l-2.955-4.38c-0.302-0.512-0.926-0.657-1.391-0.321C17.634,0.93,16,1.99,16,1.99
			s-1.634-1.06-2.669-1.809c-0.465-0.336-1.089-0.191-1.391,0.321l-2.955,4.38C8.742,5.177,8.826,5.643,9.152,5.817l2.435,1.308
			c0.985,0.529,1.163,1.004,1.913,1.833c0.198,0.219,0.547,0.657,0.708,0.833c0.485,0.53,1.095,0.593,1.792,0.593
			s1.307-0.063,1.792-0.593c0.161-0.176,0.51-0.614,0.708-0.833c0.75-0.829,0.928-1.304,1.913-1.833l2.435-1.308
			C23.174,5.643,23.258,5.177,23.015,4.882z"/>
		<path fill="#7AEBAC" d="M9.167,17.41c0.397,0.441,0.615,1.027-0.198,0.996c-0.957-0.037-6.269-0.501-6.469-1
			c-0.25-0.625-1.125-0.594-0.969,0.25c0.191,1.03-1.492,0.468-1.529-0.509c-0.038-0.977,0.413-1.465,1.052-1.39
			c0.639,0.075,0.488-0.751,1.427-0.789c0.939-0.038,1.765,0.627,2.592,0.777c0.826,0.15,2.615,0.395,3.052,0.504
			C8.792,16.417,8.829,17.035,9.167,17.41z"/>
		<path fill="#7AEBAC" d="M13.331,0.181c-0.465-0.336-1.089-0.191-1.391,0.321l-2.955,4.38C8.742,5.177,8.826,5.643,9.152,5.817
			l2.435,1.308c0.985,0.529,1.163,1.004,1.913,1.833c0.198,0.219,0.547,0.657,0.708,0.833c0.485,0.53,1.095,0.593,1.792,0.593V1.99
			C16,1.99,14.366,0.93,13.331,0.181z"/>
		<path fill="#FFE28A" d="M20.353,3.262c0.242-0.124,0.548,0.002,0.613,0.266c0.247,0.992-0.209,2.06-1.158,2.547
			c-0.949,0.487-2.082,0.236-2.745-0.542c-0.176-0.207-0.1-0.529,0.141-0.653L20.353,3.262z"/>
		<path fill="#FFEAA7" d="M11.647,3.262c-0.242-0.124-0.548,0.002-0.613,0.266c-0.247,0.992,0.209,2.06,1.158,2.547
			s2.082,0.236,2.745-0.542c0.176-0.207,0.1-0.529-0.141-0.653L11.647,3.262z"/>
		<ellipse fill="#373F3F" cx="12.937" cy="5.167" rx="0.25" ry="0.625"/>
		<ellipse fill="#2B3332" cx="19.062" cy="5.167" rx="0.25" ry="0.625"/>
		<g>
			<path fill="#6EDCA2" d="M13.331,0.181c-0.045-0.032-0.096-0.039-0.143-0.063l1.946,3.371c0.192,0.333,0.529,0.5,0.866,0.5V1.99
				C16,1.99,14.366,0.93,13.331,0.181z"/>
			<path fill="#60CD96" d="M18.669,0.181C17.634,0.93,16,1.99,16,1.99v1.999c0.337,0,0.674-0.167,0.866-0.5l1.946-3.371
				C18.765,0.142,18.714,0.149,18.669,0.181z"/>
		</g>
	</g>
</g>
</svg>
