<?xml version="1.0" encoding="utf-8"?>
<!-- Generator: Adobe Illustrator 23.0.6, SVG Export Plug-In . SVG Version: 6.00 Build 0)  -->
<svg version="1.1" xmlns="http://www.w3.org/2000/svg" xmlns:xlink="http://www.w3.org/1999/xlink" x="0px" y="0px" width="32px"
	 height="32px" viewBox="0 0 32 32" enable-background="new 0 0 32 32" xml:space="preserve">
<g id="labels">
	<g>
	</g>
</g>
<g id="icons">
	<g>
		<path fill="#F79654" d="M21.456,2.925c-0.902,0.107-2.162,0.434-3.104,1.376c-0.161,0.161-0.31,0.317-0.457,0.473
			c0.027-0.386,0.043-0.792,0.043-1.23c0-1.332-0.661-2.454-1.223-3.168C16.532,0.144,16.268,0.031,16,0.014v7.521
			c0.152-0.004,0.28-0.036,0.41-0.066c0.028,0.371,0.182,0.729,0.527,1.074c1.229,1.229,2.604,0.225,4.243-1.414
			c0.942-0.942,1.268-2.203,1.376-3.104C22.631,3.392,22.089,2.85,21.456,2.925z"/>
		<path fill="#FCA15E" d="M15.16,0.375c-0.562,0.714-1.223,1.836-1.223,3.168c0,0.438,0.015,0.844,0.042,1.23
			c-0.147-0.156-0.296-0.312-0.456-0.472c-0.942-0.942-2.203-1.268-3.104-1.376c-0.633-0.075-1.175,0.467-1.1,1.1
			c0.107,0.902,0.434,2.162,1.376,3.104c1.639,1.639,3.013,2.643,4.243,1.414c0.341-0.341,0.496-0.696,0.527-1.062
			c0.147,0.033,0.297,0.062,0.473,0.062c0.023,0,0.04-0.008,0.063-0.008V0.014C15.689-0.006,15.372,0.107,15.16,0.375z"/>
		<path fill="#FCD8DE" d="M23.526,30.842L21,30l-0.699-3.493c-0.556,0.464-1.191,0.834-1.902,1.089L19,30l-1.617,0.809
			C17.148,30.926,17,31.166,17,31.428V31.5c0,0.276,0.224,0.5,0.5,0.5h6c0.276,0,0.5-0.224,0.5-0.5v-0.001
			C24,31.201,23.809,30.936,23.526,30.842z"/>
		<path fill="#FDE2E6" d="M14.617,30.809L13,30l0.601-2.405c-0.711-0.255-1.346-0.625-1.902-1.089L11,30l-2.526,0.842
			C8.191,30.936,8,31.201,8,31.499V31.5C8,31.776,8.224,32,8.5,32h6c0.276,0,0.5-0.224,0.5-0.5v-0.072
			C15,31.166,14.852,30.926,14.617,30.809z"/>
		<path fill="#FFD04D" d="M16,27V17c-3.365,0-6,2.635-6,6c0,1.398,0.46,2.666,1.233,3.675c-0.638-0.834-1.062-1.846-1.189-2.961
			C11.267,25.699,13.451,27,16,27z"/>
		<path fill="#F7C845" d="M21.956,23.714c-0.127,1.115-0.551,2.127-1.189,2.961C21.54,25.666,22,24.398,22,23c0-3.365-2.635-6-6-6
			v10C18.549,27,20.733,25.699,21.956,23.714z"/>
		<path fill="#F0C13E" d="M20.767,26.675c0.638-0.834,1.062-1.846,1.189-2.961C20.733,25.699,18.549,27,16,27v2
			c0.369,0,0.727-0.037,1.075-0.098c0.03-0.005,0.061-0.008,0.091-0.013c0.331-0.063,0.65-0.156,0.958-0.269
			c0.04-0.015,0.081-0.028,0.12-0.043c0.3-0.118,0.586-0.26,0.858-0.422c0.038-0.022,0.076-0.045,0.113-0.068
			c0.27-0.169,0.526-0.359,0.764-0.568c0.028-0.024,0.055-0.05,0.082-0.075c0.24-0.219,0.463-0.456,0.664-0.712
			C20.74,26.713,20.753,26.694,20.767,26.675z"/>
		<path fill="#F7C845" d="M10.044,23.714c0.127,1.115,0.551,2.127,1.189,2.961c0.014,0.019,0.027,0.038,0.042,0.056
			c0.201,0.256,0.424,0.493,0.664,0.712c0.027,0.025,0.055,0.05,0.082,0.075c0.238,0.209,0.493,0.398,0.764,0.568
			c0.037,0.023,0.075,0.045,0.113,0.068c0.273,0.162,0.559,0.304,0.858,0.422c0.039,0.016,0.08,0.028,0.12,0.043
			c0.308,0.114,0.627,0.207,0.958,0.269c0.03,0.006,0.061,0.008,0.091,0.013C15.274,28.963,15.631,29,16,29v-2
			C13.451,27,11.267,25.699,10.044,23.714z"/>
		<path fill="#F79654" d="M11,17.915l-2.232,0.744c-0.353,0.118-0.458,0.565-0.195,0.828L9,19.915l-0.638,1.276
			c-0.166,0.332,0.076,0.724,0.447,0.724H10l0.776,1.553c0.123,0.247,0.424,0.347,0.671,0.224L13,22.915l0.331,0.331
			c0.284,0.284,0.77,0.134,0.845-0.26l0.761-4.015L11,17.915z"/>
		<path fill="#EF8C48" d="M20.938,17.915l2.233,0.744c0.353,0.118,0.458,0.565,0.195,0.828l-0.428,0.428l0.638,1.276
			c0.166,0.332-0.076,0.724-0.447,0.724h-1.191l-0.776,1.553c-0.123,0.247-0.424,0.347-0.671,0.224l-1.553-0.776l-0.331,0.331
			c-0.284,0.284-0.77,0.134-0.845-0.26L17,18.971L20.938,17.915z"/>
		<g>
			<path fill="#FFD96C" d="M16,5.013C15.979,5.01,15.959,5,15.938,5c-0.489,0-0.895,0.703-0.981,1.631
				c-0.717-0.595-1.501-0.805-1.847-0.459c-0.385,0.385-0.081,1.312,0.676,2.086C11.006,8.929,9,10.909,9,14c0,3.866,3.134,6,7,6
				V5.013z"/>
			<path fill="#FFD04D" d="M18.115,8.231c0.737-0.769,1.032-1.679,0.651-2.06C18.42,5.826,17.637,6.036,16.92,6.63
				C16.836,5.745,16.46,5.071,16,5.013V20c3.866,0,7-2.134,7-6C23,10.871,20.947,8.878,18.115,8.231z"/>
		</g>
		<circle fill="#2B3332" cx="19.5" cy="13.5" r="1.5"/>
		<circle fill="#F7F7F7" cx="19.5" cy="13" r="0.5"/>
		<circle fill="#373F3F" cx="12.5" cy="13.5" r="1.5"/>
		<circle fill="#FFFFFF" cx="12.5" cy="13" r="0.5"/>
		<g>
			<path fill="#FDECEF" d="M15.938,15c-1.105,0-2,0.395-2,1.5c0,1.105,0.895,1.5,2,1.5c0.021,0,0.041-0.003,0.063-0.003v-2.994
				C15.979,15.003,15.959,15,15.938,15z"/>
			<path fill="#FDE2E6" d="M17.938,16.5c0-1.083-0.863-1.482-1.937-1.497v2.994C17.075,17.982,17.938,17.583,17.938,16.5z"/>
		</g>
	</g>
</g>
</svg>
