<?xml version="1.0" encoding="utf-8"?>
<!-- Generator: Adobe Illustrator 23.0.6, SVG Export Plug-In . SVG Version: 6.00 Build 0)  -->
<svg version="1.1" xmlns="http://www.w3.org/2000/svg" xmlns:xlink="http://www.w3.org/1999/xlink" x="0px" y="0px" width="32px"
	 height="32px" viewBox="0 0 32 32" enable-background="new 0 0 32 32" xml:space="preserve">
<g id="labels">
	<g>
	</g>
</g>
<g id="icons">
	<g>
		<path fill="#EF8C48" d="M16,0v8.417c-2.125,0-2.375,0.008-4.127,0.008c0-2.498,2.093-6.462,3.77-8.271C15.738,0.051,15.869,0,16,0
			z"/>
		<path fill="#E8803A" d="M16.357,0.154c1.677,1.809,3.77,5.773,3.77,8.271c-1.752,0-2.002-0.008-4.127-0.008V0
			C16.131,0,16.262,0.051,16.357,0.154z"/>
		<path fill="#E8803A" d="M19.113,0.789c0.035-0.218-0.206-0.368-0.388-0.243c-0.638,0.439-1.809,1.34-2.572,2.508
			c-0.772,1.181-1.123,2.591-1.265,3.348c-0.041,0.219,0.198,0.377,0.384,0.253c0.65-0.434,1.831-1.322,2.591-2.484
			C18.68,2.92,18.996,1.531,19.113,0.789z"/>
		<path fill="#EF8C48" d="M12.887,0.789c-0.035-0.218,0.206-0.368,0.388-0.243c0.638,0.439,1.809,1.34,2.572,2.508
			c0.772,1.181,1.123,2.591,1.265,3.348c0.041,0.219-0.198,0.377-0.384,0.253c-0.65-0.434-1.831-1.322-2.591-2.484
			C13.32,2.92,13.004,1.531,12.887,0.789z"/>
		<path fill="#FFE28A" d="M17.493,1.713l-0.583,0.389l0.304-1.519c0.018-0.092-0.084-0.16-0.162-0.108L16,1.175l-1.052-0.701
			c-0.078-0.052-0.18,0.016-0.162,0.108l0.304,1.519l-0.583-0.389c-0.075-0.05-0.174,0.011-0.163,0.101l0.673,5.385h1.965
			l0.673-5.385C17.667,1.724,17.568,1.663,17.493,1.713z"/>
		<path fill="#FFEAA7" d="M16,1.175v6.023h-0.982l-0.673-5.385c-0.011-0.089,0.088-0.151,0.163-0.101l0.583,0.389l-0.304-1.519
			c-0.018-0.092,0.084-0.16,0.162-0.108L16,1.175z"/>
		<g>
			<rect x="9.781" y="26" fill="#9DA5A4" width="3" height="6"/>
			<path fill="#9DA5A4" d="M13.398,32H9.164c-0.389,0-0.629-0.424-0.429-0.757L9.781,29.5h3l1.046,1.743
				C14.027,31.576,13.787,32,13.398,32z"/>
			<path fill="#E3E5E5" d="M9.531,32c0-0.414,0.336-0.75,0.75-0.75c0.414,0,0.75,0.336,0.75,0.75H9.531z"/>
			<path fill="#E3E5E5" d="M11.531,32c0-0.414,0.336-0.75,0.75-0.75c0.414,0,0.75,0.336,0.75,0.75H11.531z"/>
		</g>
		<g>
			<rect x="19.219" y="26" fill="#909997" width="3" height="6"/>
			<path fill="#909997" d="M22.836,32h-4.234c-0.389,0-0.629-0.424-0.429-0.757l1.046-1.743h3l1.046,1.743
				C23.464,31.576,23.224,32,22.836,32z"/>
			<path fill="#DADDDC" d="M18.969,32c0-0.414,0.336-0.75,0.75-0.75s0.75,0.336,0.75,0.75H18.969z"/>
			<path fill="#DADDDC" d="M20.969,32c0-0.414,0.336-0.75,0.75-0.75s0.75,0.336,0.75,0.75H20.969z"/>
		</g>
		<path fill="#FFEAA7" d="M20.893,21.09c-0.534-1.868-1.157-7.207-0.178-12.456c0.752-4.032-2.101-6.05-4.716-6.05
			s-5.467,2.018-4.716,6.05c0.979,5.249,0.356,10.588-0.178,12.456c-0.718,2.514,2.279,5.16,4.893,5.16S21.612,23.603,20.893,21.09z
			"/>
		<path fill="#FEF1C6" d="M16,26.25L16,26.25c-2.614,0-5.612-2.647-4.893-5.16c0.534-1.868,1.157-7.207,0.178-12.456
			c-0.752-4.032,2.101-6.05,4.716-6.05h0V26.25z"/>
		<path fill="#EF8C48" d="M16,26.25L16,26.25c2.614,0,5.612-2.647,4.893-5.16c-0.236-0.825-0.489-2.325-0.613-4.195
			c-0.676,1.054-2.255,2.396-4.28,2.396V26.25z"/>
		<path fill="#EF8C48" d="M17.773,16.253l-0.693,0.462l0.361-1.804c0.022-0.109-0.099-0.19-0.192-0.129L16,15.615l-1.249-0.833
			c-0.093-0.062-0.214,0.019-0.192,0.129l0.361,1.804l-0.693-0.462c-0.089-0.059-0.207,0.013-0.193,0.12l0.799,6.396h2.333
			l0.799-6.396C17.979,16.266,17.862,16.194,17.773,16.253z"/>
		<path fill="#F79654" d="M16,15.615v7.153h-1.167l-0.799-6.396c-0.013-0.106,0.104-0.179,0.193-0.12l0.693,0.462l-0.361-1.804
			c-0.022-0.109,0.099-0.19,0.192-0.129L16,15.615z"/>
		<path fill="#F79654" d="M16,19.29c-2.025,0-3.604-1.342-4.28-2.396c-0.041,0.611-0.096,1.177-0.159,1.698
			c-1.93,0.098-3.477,2.826-3.477,5.289c0,2.508,1.604,3.785,3.583,3.785c1.289,0,2.41-0.551,3.041-1.622
			c0.429,0.129,0.866,0.206,1.292,0.206V19.29z"/>
		<path fill="#EF8C48" d="M16,24.656c-4.156,0-6.219-1.875-7.551-2.924c-0.234,0.691-0.366,1.432-0.366,2.149
			c0,2.508,1.604,3.785,3.583,3.785c1.289,0,2.41-0.551,3.041-1.622c0.429,0.129,0.866,0.206,1.292,0.206V24.656z"/>
		<path fill="#EF8C48" d="M23.917,23.882c0,2.508-1.604,3.785-3.583,3.785s-3.583-1.276-3.583-3.785s1.604-5.299,3.583-5.299
			S23.917,21.374,23.917,23.882z"/>
		<path fill="#FEF1C6" d="M11.719,16.909c-0.039,0.574-0.089,1.112-0.148,1.607c-0.027,0.231,0.083,2.253,0.083,2.253
			c-0.028,0.161,0.185,0.244,0.274,0.107l1.11-1.722l1.347,2.303c0.082,0.141,0.299,0.067,0.278-0.095l-0.5-3.954L11.719,16.909z"/>
		<path fill="#FFEAA7" d="M20.294,16.909c0.039,0.574,0.089,1.112,0.148,1.607c0.027,0.231-0.083,2.253-0.083,2.253
			c0.028,0.161-0.185,0.244-0.274,0.107l-1.11-1.722l-1.347,2.303c-0.082,0.141-0.299,0.067-0.278-0.095l0.5-3.954L20.294,16.909z"
			/>
		<path fill="#FEF1C6" d="M4.319,14.951l-3.092-1.083c-0.177-0.062-0.329,0.141-0.22,0.293l1.061,1.484l-1.871-0.042
			c-0.183-0.004-0.268,0.226-0.126,0.341l1.715,1.398l-0.63,2.121c-0.052,0.175,0.147,0.318,0.296,0.211l1.522-1.089l-0.041,1.824
			c-0.004,0.188,0.235,0.27,0.347,0.119l1.945-2.636l8.547-3.44l-0.227-0.735l-0.227-1.235L4.319,14.951z"/>
		<path fill="#FFEAA7" d="M27.681,14.951l3.092-1.083c0.177-0.062,0.329,0.141,0.22,0.293l-1.061,1.484l1.871-0.042
			c0.183-0.004,0.268,0.226,0.126,0.341l-1.715,1.398l0.63,2.121c0.052,0.175-0.147,0.318-0.296,0.211l-1.522-1.089l0.041,1.824
			c0.004,0.188-0.235,0.27-0.347,0.119l-1.945-2.636l-8.547-3.44l0.227-0.735l0.227-1.235L27.681,14.951z"/>
		<path fill="#E8803A" d="M16,11.438c1.106,0,1.541-0.938,2.166-1.887C18.182,9.527,17.067,10.02,16,10.02V11.438z"/>
		<path fill="#EF8C48" d="M16,10.896c0.187,0,0.311-0.006,0.541-0.104c0.834-0.356,1.563-0.795,1.623-1.26
			c0.003-0.026-0.055-0.041-0.095-0.025C17.641,9.674,17.111,9.754,16,9.754V10.896z"/>
		<path fill="#EF8C48" d="M16,11.438c-1.106,0-1.541-0.938-2.166-1.887C13.818,9.527,14.933,10.02,16,10.02V11.438z"/>
		<path fill="#F79654" d="M16,10.896c-0.187,0-0.311-0.006-0.541-0.104c-0.834-0.356-1.563-0.795-1.623-1.26
			c-0.003-0.026,0.055-0.041,0.095-0.025C14.359,9.674,14.889,9.754,16,9.754V10.896z"/>
		<path fill="#DD564C" d="M14.457,6.973c0.025,0.025,0.039,0.06,0.038,0.095c-0.03,0.788-0.464,1.415-0.997,1.415
			c-0.552,0-1-0.672-1-1.5c0-0.555,0.202-1.038,0.501-1.298c0.051-0.044,0.126-0.044,0.174,0.003L14.457,6.973z"/>
		<ellipse fill="#373F3F" cx="13.375" cy="7.219" rx="0.25" ry="0.75"/>
		<path fill="#D64F45" d="M18.82,5.689c0.048-0.048,0.123-0.048,0.174-0.003c0.299,0.259,0.501,0.742,0.501,1.298
			c0,0.828-0.448,1.5-1,1.5c-0.533,0-0.967-0.626-0.997-1.415c-0.001-0.035,0.013-0.07,0.038-0.095L18.82,5.689z"/>
		<ellipse fill="#2B3332" cx="18.618" cy="7.219" rx="0.25" ry="0.75"/>
		<path fill="#FEF1C6" d="M13.004,18.66l-2.884-0.102C10,18.554,9.954,18.4,10.052,18.331l3.949-2.773L13.004,18.66z"/>
		<path fill="#FFEAA7" d="M18.996,18.66l2.884-0.102c0.12-0.004,0.166-0.158,0.067-0.227l-3.949-2.773L18.996,18.66z"/>
		<path fill="#E8803A" d="M16,24.656c4.312,0,6.219-1.875,7.551-2.924c0.234,0.691,0.366,1.432,0.366,2.149
			c0,2.508-1.604,3.785-3.583,3.785c-1.289,0-2.41-0.551-3.041-1.622C16.863,26.173,16.427,26.25,16,26.25V24.656z"/>
	</g>
</g>
</svg>
