<?xml version="1.0" encoding="utf-8"?>
<!-- Generator: Adobe Illustrator 23.0.6, SVG Export Plug-In . SVG Version: 6.00 Build 0)  -->
<svg version="1.1" xmlns="http://www.w3.org/2000/svg" xmlns:xlink="http://www.w3.org/1999/xlink" x="0px" y="0px" width="32px"
	 height="32px" viewBox="0 0 32 32" enable-background="new 0 0 32 32" xml:space="preserve">
<g id="labels">
	<g>
	</g>
</g>
<g id="icons">
	<g>
		<path fill="#2B3332" d="M18.818,11.355c0,0,4.895-3.94,7.635-1.601c1.911,1.632,1.336,5.774,0.992,9.408
			c-0.215,2.269-0.022,4.164,0.152,5.267c0.046,0.289-0.316,0.459-0.511,0.24l-1.016-1.137l1.395,4.339
			c0.095,0.294-0.27,0.517-0.489,0.298l-1.495-1.495l-0.025,2.79c-0.003,0.322-0.305,0.557-0.618,0.481L16.802,23L18.818,11.355z"/>
		<path fill="#9DA5A4" d="M13.094,31H14.5c0.276,0,0.5-0.224,0.5-0.5V19.375h-1.906V31z"/>
		<path fill="#909997" d="M18.906,31H17.5c-0.276,0-0.5-0.224-0.5-0.5V19.375h1.906V31z"/>
		<g>
			<polygon fill="#ABB2B1" points="14,29.083 14,15.083 9,18.083 9,29.083 			"/>
			<path fill="#434C4B" d="M9.5,32h4c0.276,0,0.5-0.224,0.5-0.5v-6.078l-0.393,0.382c-0.098,0.095-0.254,0.094-0.351-0.002
				l-0.629-0.629c-0.096-0.096-0.251-0.098-0.349-0.004l-0.671,0.639c-0.098,0.094-0.253,0.092-0.349-0.004l-0.629-0.628
				c-0.097-0.097-0.253-0.098-0.351-0.002l-0.644,0.629c-0.099,0.096-0.257,0.094-0.354-0.004L9,25.509V31.5
				C9,31.776,9.224,32,9.5,32z"/>
		</g>
		<g>
			<polygon fill="#9DA5A4" points="18,29.708 18,15.083 23,18.083 23,29.708 			"/>
			<path fill="#373F3F" d="M18.5,32h4c0.276,0,0.5-0.224,0.5-0.5v-6.078l-0.393,0.382c-0.098,0.095-0.254,0.094-0.351-0.002
				l-0.629-0.629c-0.096-0.096-0.251-0.098-0.349-0.004l-0.671,0.639c-0.098,0.094-0.253,0.092-0.349-0.004l-0.629-0.628
				c-0.097-0.097-0.253-0.098-0.351-0.002l-0.644,0.629c-0.099,0.096-0.257,0.094-0.354-0.004L18,25.509V31.5
				C18,31.776,18.224,32,18.5,32z"/>
		</g>
		<g>
			<path fill="#C8CCCB" d="M11.98,9.458l0.233,1.257c0.153,0.828,0.006,1.678-0.417,2.429c-0.497,0.881-1.187,2.136-1.751,3.273
				l2.218,7.287c0.063,0.151,0.27,0.21,0.421,0.121l1.151-0.68c0.134-0.079,0.315-0.043,0.398,0.079l1.38,1.68
				c0.1,0.122,0.243,0.183,0.386,0.183V10.708L11.98,9.458z"/>
			<path fill="#ABB2B1" d="M17.766,23.224c0.083-0.122,0.264-0.158,0.398-0.079l1.151,0.68c0.152,0.089,0.358,0.03,0.421-0.121
				l2.218-7.287c-0.563-1.136-1.254-2.392-1.751-3.273c-0.423-0.751-0.57-1.6-0.417-2.429l0.233-1.257L16,10.708v14.379
				c0.143,0,0.286-0.061,0.386-0.183L17.766,23.224z"/>
		</g>
		<path fill="#373F3F" d="M20.078,5.505l3.42,9.45c0.07,0.193-0.109,0.383-0.306,0.325l-1.051-0.309
			c-0.204-0.06-0.385,0.146-0.299,0.341l1.355,3.069c0.109,0.246-0.195,0.467-0.396,0.287l-1.535-1.377
			c-0.104-0.093-0.264-0.083-0.355,0.022l-1.473,1.689C19.287,19.176,19,19.069,19,18.838v-7.503L20.078,5.505z"/>
		<path fill="#434C4B" d="M13,11.122v7.503c0,0.231-0.287,0.338-0.438,0.164l-1.473-1.689c-0.092-0.105-0.252-0.115-0.355-0.022
			l-1.535,1.377c-0.2,0.18-0.504-0.041-0.396-0.287l1.355-3.069c0.086-0.195-0.095-0.401-0.299-0.341l-1.051,0.309
			c-0.197,0.058-0.375-0.132-0.306-0.325l3.42-9.45L13,11.122z"/>
		<path fill="#DADDDC" d="M16,1v13.045c0,0-3.023,0.04-4.209-2.685c-1.018-2.339-1.27-2.758-1.32-4.617
			C9.66,6.382,9.307,5.691,9.158,5.011C8.94,4.018,8.885-0.043,9.404,0c0.509,0.042,0.889,3.419,1.618,3.696
			C12.019,2.022,14.167,1,16,1z"/>
		<path fill="#D1D4D4" d="M22.842,5.011c-0.149,0.679-0.501,1.371-1.312,1.731c-0.051,1.859-0.302,2.278-1.32,4.617
			c-0.396,0.91-0.997,1.506-1.622,1.904C17.341,14.058,16,14.045,16,14.045V1c0.242,0,0.491,0.023,0.741,0.058
			c1.15,0.16,2.343,0.678,3.254,1.474c0.26,0.228,0.497,0.478,0.703,0.749c0.101,0.133,0.188,0.275,0.273,0.418
			C21.705,3.441,22.086,0.043,22.596,0C23.115-0.043,23.06,4.018,22.842,5.011z"/>
		<path fill="#434C4B" d="M15.259,1.058c-0.178,1.933-0.346,3.898-0.437,4.965c-0.021,0.245-0.343,0.316-0.464,0.103
			c-0.574-1.008-1.645-2.821-2.353-3.593C12.916,1.735,14.109,1.218,15.259,1.058z"/>
		<path fill="#373F3F" d="M16.741,1.058c0.178,1.933,0.346,3.898,0.437,4.965c0.021,0.245,0.343,0.316,0.464,0.103
			c0.574-1.008,1.645-2.821,2.353-3.593C19.084,1.735,17.891,1.218,16.741,1.058z"/>
		<path fill="#373F3F" d="M20.677,6.048c0.054-0.862,0.214-1.602,0.404-1.734c0.484-0.102,0.771-0.58,1.042-1.366
			c0.054-0.156,0.286-0.119,0.284,0.047c-0.011,0.795-0.06,1.556-0.142,1.93c-0.169,0.768-0.55,1.227-1.205,1.421
			C20.863,6.404,20.664,6.253,20.677,6.048z"/>
		<path fill="#434C4B" d="M11.323,6.048c-0.054-0.862-0.214-1.602-0.404-1.734c-0.484-0.102-0.771-0.58-1.042-1.366
			C9.823,2.791,9.591,2.829,9.593,2.995c0.011,0.795,0.06,1.556,0.142,1.93c0.169,0.768,0.55,1.227,1.205,1.421
			C11.137,6.404,11.336,6.253,11.323,6.048z"/>
		<path fill="#C8CCCB" d="M16,9.5h0.667c0.364,0,0.686,0.188,0.794,0.468c0.188,0.487,0.514,1.239,0.88,1.681
			c0.094,0.114,0.158,0.243,0.158,0.38v1.573c0,0.258-0.184,0.493-0.473,0.604l-0.594,0.229c-0.112,0.043-0.235,0.066-0.36,0.066H16
			V9.5z"/>
		<path fill="#D1D4D4" d="M16,9.5h-0.667c-0.364,0-0.686,0.188-0.794,0.468c-0.188,0.487-0.514,1.239-0.88,1.681
			c-0.094,0.114-0.158,0.243-0.158,0.38v1.573c0,0.258,0.184,0.493,0.473,0.604l0.594,0.229c0.112,0.043,0.235,0.066,0.36,0.066H16
			V9.5z"/>
		<g>
			<path fill="#E85160" d="M16,12.333c-0.644,0-1.167-0.037-1.167,0.292c0,0.483,0.522,0.875,1.167,0.875V12.333z"/>
			<path fill="#D84459" d="M17.167,12.625c0-0.329-0.522-0.292-1.167-0.292V13.5C16.644,13.5,17.167,13.108,17.167,12.625z"/>
		</g>
		<path fill="#FFFFFF" d="M14.253,8.938h-1.926c-0.099,0-0.187-0.057-0.226-0.148c-0.079-0.186-0.17-0.537-0.023-0.995
			c0.143-0.446,0.346-0.656,0.474-0.749c0.065-0.047,0.15-0.058,0.225-0.03c0.944,0.356,1.461,1.118,1.696,1.568
			C14.557,8.745,14.435,8.938,14.253,8.938z"/>
		<path fill="#E85160" d="M14.253,8.938h-1.436c-0.099,0-0.187-0.057-0.226-0.148c-0.079-0.186-0.17-0.537-0.023-0.995
			c0.121-0.375,0.286-0.582,0.41-0.694c0.817,0.382,1.277,1.067,1.494,1.484C14.557,8.745,14.435,8.938,14.253,8.938z"/>
		<path fill="#373F3F" d="M13.682,8.938h-0.374c-0.099,0-0.187-0.057-0.226-0.148c-0.079-0.186-0.17-0.537-0.023-0.995
			c0.073-0.228,0.166-0.395,0.252-0.514c0.256,0.163,0.449,0.338,0.625,0.531c0.128,0.436,0.051,0.798-0.026,0.978
			C13.87,8.88,13.781,8.938,13.682,8.938z"/>
		<path fill="#F7F7F7" d="M17.527,8.584c0.234-0.45,0.752-1.212,1.696-1.568c0.075-0.028,0.161-0.018,0.225,0.03
			c0.127,0.093,0.331,0.303,0.474,0.749c0.147,0.458,0.056,0.809-0.023,0.995c-0.039,0.091-0.127,0.148-0.226,0.148h-1.926
			C17.565,8.938,17.443,8.745,17.527,8.584z"/>
		<path fill="#D84459" d="M19.182,8.938h-1.436c-0.182,0-0.303-0.193-0.219-0.354c0.217-0.417,0.677-1.104,1.494-1.486
			c0.125,0.112,0.29,0.321,0.41,0.696c0.147,0.458,0.056,0.809-0.023,0.995C19.37,8.88,19.281,8.938,19.182,8.938z"/>
		<path fill="#2B3332" d="M18.692,8.938h-0.374c-0.099,0-0.187-0.057-0.226-0.148c-0.077-0.18-0.16-0.537-0.032-0.974
			c0.175-0.193,0.371-0.37,0.627-0.533c0.086,0.119,0.182,0.284,0.256,0.512c0.147,0.458,0.056,0.809-0.023,0.995
			C18.88,8.88,18.791,8.938,18.692,8.938z"/>
	</g>
</g>
</svg>
