<?xml version="1.0" encoding="utf-8"?>
<!-- Generator: Adobe Illustrator 23.0.6, SVG Export Plug-In . SVG Version: 6.00 Build 0)  -->
<svg version="1.1" xmlns="http://www.w3.org/2000/svg" xmlns:xlink="http://www.w3.org/1999/xlink" x="0px" y="0px" width="32px"
	 height="32px" viewBox="0 0 32 32" enable-background="new 0 0 32 32" xml:space="preserve">
<g id="labels">
	<g>
	</g>
</g>
<g id="icons">
	<g>
		<path fill="#DD7731" d="M17.606,30.221c0,1.27,1.03,1.779,2.3,1.779s2.3-0.509,2.3-1.779S20.655,27.4,19.385,27.4
			C18.115,27.4,17.606,28.95,17.606,30.221z"/>
		<path fill="#E8803A" d="M14.394,30.221c0,1.27-1.03,1.779-2.3,1.779s-2.3-0.509-2.3-1.779s1.551-2.821,2.821-2.821
			S14.394,28.95,14.394,30.221z"/>
		<path fill="#DD7731" d="M18.491,23.056c2.54-0.54,4.44-1.113,5.428-4.877c0.053-0.2,0.307-0.263,0.436-0.102l1.334,1.673
			l0.981-3.211c0.071-0.232,0.397-0.237,0.476-0.008l0.877,2.553l2.529-2.889c0.153-0.175,0.443-0.069,0.439,0.164
			c-0.023,1.319-0.434,3.84-1.564,5.266l2.355,0.294c0.204,0.025,0.292,0.272,0.15,0.42l-1.652,1.739l1.433,0.666
			c0.164,0.076,0.2,0.294,0.063,0.412c-1.194,1.036-6.106,4.767-12.24,2.075L18.491,23.056z"/>
		<path fill="#F7D684" d="M23.131,20.249c0.307-0.556,0.571-1.235,0.79-2.072c0.052-0.2,0.307-0.261,0.436-0.1l1.334,1.673
			l0.981-3.211c0.071-0.232,0.397-0.237,0.476-0.008l0.877,2.553l2.529-2.889c0.154-0.175,0.443-0.069,0.439,0.165
			c-0.023,1.32-0.434,3.839-1.564,5.266l2.355,0.294c0.204,0.025,0.292,0.272,0.15,0.42l-1.652,1.739l1.433,0.666
			c0.164,0.076,0.201,0.293,0.064,0.412c-0.746,0.647-2.945,2.348-5.987,2.875c0.63-0.917,1.814-2.738,2.36-3.582
			c0.115-0.178-0.03-0.409-0.241-0.383L24.377,24.5l1.992-2.731c0.098-0.134,0.044-0.324-0.112-0.381
			C25.519,21.12,23.674,20.448,23.131,20.249z"/>
		<path fill="#E8803A" d="M20.428,19.847H16v10.905c0.064,0,0.128-0.024,0.177-0.073L18,28.856l2.296,1.377
			c0.114,0.069,0.263,0.035,0.337-0.076l0.868-1.302h1.169c0.166,0,0.286-0.159,0.24-0.319L20.428,19.847z"/>
		<path fill="#F7D684" d="M20.928,19.003H16v9.439c0.055,0,0.111-0.018,0.156-0.055l2.344-1.875l3.251,0.929
			c0.136,0.039,0.277-0.043,0.311-0.18l0.437-1.749h1.106c0.183,0,0.304-0.191,0.226-0.357L20.928,19.003z"/>
		<path fill="#EF8C48" d="M20.928,17.503H16v8.405c0.064,0,0.128-0.024,0.177-0.073L18,24.011l2.322,0.929
			c0.105,0.042,0.225,0.008,0.293-0.082L22,23.011h1.574c0.191,0,0.311-0.205,0.218-0.372L20.928,17.503z"/>
		<path fill="#FAE09F" d="M19.428,14.003H16v9.405c0.064,0,0.128-0.024,0.177-0.073L18,21.511l1.776,0.888
			c0.124,0.062,0.274,0.012,0.335-0.112L21,20.511h2.049c0.196,0,0.316-0.216,0.212-0.383L19.428,14.003z"/>
		<path fill="#F79654" d="M18.428,11.503H16v9.342c0.075,0,0.15-0.033,0.2-0.1l1.3-1.733l1.776,0.888
			c0.124,0.062,0.274,0.012,0.335-0.112l0.888-1.776h1.549c0.196,0,0.316-0.216,0.212-0.383L18.428,11.503z"/>
		<path fill="#FDEBBB" d="M17.928,9.003H16v9.342c0.075,0,0.15-0.033,0.2-0.1l1.3-1.733l1.264,0.843
			c0.125,0.083,0.295,0.038,0.362-0.096L20,15.511h1.078c0.19,0,0.311-0.204,0.219-0.37L17.928,9.003z"/>
		<path fill="#EF8C48" d="M16,19.847h-4.428l-2.481,8.69c-0.046,0.16,0.074,0.319,0.24,0.319H10.5l0.868,1.302
			c0.074,0.111,0.222,0.144,0.337,0.076L14,28.856l1.823,1.823c0.049,0.049,0.113,0.073,0.177,0.073V19.847z"/>
		<path fill="#FAE09F" d="M16,19.003h-4.928l-2.903,6.152c-0.078,0.166,0.043,0.357,0.226,0.357H9.5l0.437,1.749
			c0.034,0.137,0.175,0.219,0.311,0.18l3.251-0.929l2.344,1.875c0.046,0.036,0.101,0.055,0.156,0.055V19.003z"/>
		<path fill="#F79654" d="M16,17.503h-4.928l-2.864,5.137c-0.093,0.167,0.028,0.372,0.218,0.372H10l1.385,1.847
			c0.068,0.09,0.188,0.124,0.293,0.082L14,24.011l1.823,1.823c0.049,0.049,0.113,0.073,0.177,0.073V17.503z"/>
		<path fill="#FDEBBB" d="M16,14.003h-3.428l-3.832,6.126c-0.104,0.167,0.016,0.383,0.212,0.383H11l0.888,1.776
			c0.062,0.124,0.212,0.174,0.335,0.112L14,21.511l1.823,1.823c0.049,0.049,0.113,0.073,0.177,0.073V14.003z"/>
		<path fill="#FCA15E" d="M16,11.503h-2.428l-3.832,6.126c-0.104,0.167,0.016,0.383,0.212,0.383H11.5l0.888,1.776
			c0.062,0.124,0.212,0.174,0.335,0.112l1.776-0.888l1.3,1.733c0.05,0.067,0.125,0.1,0.2,0.1V11.503z"/>
		<path fill="#FFF3D9" d="M16,9.003h-1.928l-3.368,6.138c-0.091,0.167,0.029,0.37,0.219,0.37H12l0.873,1.747
			c0.067,0.134,0.237,0.18,0.362,0.096l1.264-0.843l1.3,1.733c0.05,0.067,0.125,0.1,0.2,0.1V9.003z"/>
		<path fill="#FCA15E" d="M25.026,5.322l-1.159-0.669l0.689-2.571c0.052-0.194-0.125-0.371-0.319-0.319l-2.571,0.689l-0.671-1.163
			c-0.108-0.187-0.383-0.169-0.466,0.03l-0.726,1.748C19.4,2.757,18.944,2.5,18.437,2.303L17.182,0.13
			c-0.1-0.174-0.351-0.174-0.451,0L16,1.397v0.469c-4.608,0-6.309,3.5-6.309,6.984c0,3.484,2.825,5.634,6.309,5.634
			c2.02,0,3.813-0.726,4.968-2.012l1.449,0.388c0.194,0.052,0.371-0.125,0.319-0.319l-0.525-1.96l1.59-0.918
			c0.174-0.1,0.174-0.351,0-0.451l-1.509-0.871c-0.025-0.464-0.083-0.925-0.178-1.376l2.882-1.177
			C25.195,5.706,25.214,5.43,25.026,5.322z"/>
		<path fill="#FFAD68" d="M15.269,0.13c-0.1-0.174-0.351-0.174-0.451,0l-1.23,2.13c-0.532,0.191-1,0.447-1.412,0.755l-0.704-1.696
			c-0.083-0.199-0.358-0.217-0.466-0.03l-0.671,1.163L7.763,1.762C7.569,1.71,7.392,1.887,7.444,2.081l0.689,2.571L6.974,5.322
			C6.786,5.43,6.805,5.706,7.005,5.788l2.865,1.17C9.782,7.411,9.729,7.875,9.707,8.342L8.2,9.212c-0.174,0.1-0.174,0.351,0,0.451
			l1.59,0.918l-0.525,1.96c-0.052,0.194,0.125,0.371,0.319,0.319l1.449-0.388c1.155,1.286,2.948,2.012,4.968,2.012V3.795V1.866
			V1.397L15.269,0.13z"/>
		<path fill="#373F3F" d="M16,4.432c-2.903,0-4.31,0.51-4.98,1.823c-0.781,1.53,0.651,3.71,2.929,2.734
			C14.566,8.724,15.068,8.59,16,8.59V4.432z"/>
		<circle fill="#9D8978" cx="13" cy="7" r="1.25"/>
		<circle fill="#373F3F" cx="13" cy="7" r="0.75"/>
		<circle fill="#FFFFFF" cx="13" cy="6.5" r="0.521"/>
		<path fill="#2B3332" d="M16,4.432c2.903,0,4.31,0.51,4.98,1.823c0.781,1.53-0.651,3.71-2.929,2.734
			C17.434,8.724,16.932,8.59,16,8.59V4.432z"/>
		<circle fill="#988371" cx="19" cy="7" r="1.25"/>
		<circle fill="#2B3332" cx="19" cy="7" r="0.75"/>
		<circle fill="#F7F7F7" cx="19" cy="6.5" r="0.5"/>
		<path fill="#373F3F" d="M15.103,9c-0.127,0-0.191,0.135-0.101,0.215l0.898,0.79c0.028,0.025,0.065,0.037,0.101,0.037V9H15.103z"/>
		<path fill="#2B3332" d="M17,9.215C17.09,9.135,17.027,9,16.899,9h-0.898v1.042c0.037,0,0.073-0.012,0.101-0.037L17,9.215z"/>
		<g>
			<path fill="#373F3F" d="M14.898,12.089l-0.97-0.956c-0.118-0.118-0.294-0.153-0.452-0.091l-1.188,0.488
				c-0.133,0.055-0.196,0.207-0.142,0.34c0.055,0.133,0.207,0.197,0.34,0.142l1.124-0.462l0.985,0.971
				c0.081,0.079,0.186,0.12,0.292,0.12c0.084,0,0.169-0.026,0.243-0.078L16,11.941v-0.64L14.898,12.089z M13.562,11.502
				c0,0,0.001,0.001,0.001,0.001C13.562,11.503,13.562,11.502,13.562,11.502z"/>
		</g>
		<g>
			<g>
				<path fill="#2B3332" d="M16,11.301v0.64l0.87,0.622c0.073,0.052,0.158,0.078,0.243,0.078c0.106,0,0.212-0.041,0.292-0.12
					l0.985-0.971l1.124,0.462c0.133,0.055,0.285-0.009,0.34-0.142c0.054-0.133-0.009-0.285-0.142-0.34l-1.188-0.488
					c-0.158-0.062-0.334-0.027-0.452,0.091l-0.97,0.956L16,11.301z M18.437,11.504c0.001-0.001,0.001-0.001,0.001-0.001
					S18.438,11.503,18.437,11.504z"/>
			</g>
			<g>
				<path fill="#2B3332" d="M16,11.301v0.64l0.87,0.622c0.073,0.052,0.158,0.078,0.243,0.078c0.106,0,0.212-0.041,0.292-0.12
					l0.985-0.971l1.124,0.462c0.133,0.055,0.285-0.009,0.34-0.142c0.054-0.133-0.009-0.285-0.142-0.34l-1.188-0.488
					c-0.158-0.062-0.334-0.027-0.452,0.091l-0.97,0.956L16,11.301z M18.437,11.504c0.001-0.001,0.001-0.001,0.001-0.001
					S18.438,11.503,18.437,11.504z"/>
			</g>
		</g>
	</g>
</g>
</svg>
