<?xml version="1.0" encoding="utf-8"?>
<!-- Generator: Adobe Illustrator 23.0.6, SVG Export Plug-In . SVG Version: 6.00 Build 0)  -->
<svg version="1.1" xmlns="http://www.w3.org/2000/svg" xmlns:xlink="http://www.w3.org/1999/xlink" x="0px" y="0px" width="32px"
	 height="32px" viewBox="0 0 32 32" enable-background="new 0 0 32 32" xml:space="preserve">
<g id="labels">
	<g>
	</g>
</g>
<g id="icons">
	<g>
		<path fill="#E0C193" d="M20.759,29l1.794,1.794c0.132,0.132,0.206,0.312,0.206,0.499v0.003c0,0.389-0.316,0.705-0.705,0.705h-2.59
			c-0.389,0-0.705-0.316-0.705-0.705V29H20.759z"/>
		<path fill="#E0C193" d="M30,13c0.31,0,0.582,0.084,0.806,0.283c0.086,0.076,0.042,0.219-0.073,0.223
			c-1.008,0.033-2.586,0.352-3.016,5.207C26.976,27.063,20.422,28.5,16,28.5v-9c7.034,0,6.989-3.481,8.5-6
			c1.434-2.391,3.142-3.475,5.214-2.789c0.105,0.035,0.117,0.178,0.019,0.23c-0.425,0.23-0.644,0.516-0.67,0.785
			c0.668-0.203,2.084-0.324,2.872,0.094c0.101,0.054,0.072,0.207-0.04,0.229C30.941,12.239,30.147,12.638,30,13z"/>
		<path fill="#988371" d="M31.993,11.952c-0.01,0.047-0.045,0.089-0.099,0.099C30.941,12.239,30.147,12.638,30,13
			c0.31,0,0.582,0.084,0.806,0.283c0.086,0.076,0.042,0.219-0.073,0.223c-1.008,0.033-2.586,0.352-3.016,5.207
			C26.976,27.063,20.422,28.5,16,28.5V24c7.034,0,8.785-5.985,9.937-8.688C27.656,11.281,32.004,11.903,31.993,11.952z"/>
		<path fill="#E5C79A" d="M13,29v2.295C13,31.684,12.684,32,12.295,32h-2.59C9.316,32,9,31.684,9,31.295v-0.003
			c0-0.187,0.074-0.366,0.206-0.498L11,29H13z"/>
		<path fill="#EACEA1" d="M23.25,19.5c-1.37-3.83-3.145-7.5-3.145-10.321c0-2.494-3.23-3.425-4.105-3.425s-4.105,0.931-4.105,3.425
			C11.895,12,10.12,15.67,8.75,19.5c-0.721,2.016-1.625,3.5-1.625,6.508c0,1.397,0.875,3.742,3.757,3.838C12.431,29.898,14,29,16,29
			s3.569,0.898,5.118,0.846c2.882-0.096,3.757-2.441,3.757-3.838C24.875,23,23.971,21.516,23.25,19.5z"/>
		<path fill="#EFD4A7" d="M8.75,19.5c1.37-3.83,3.145-7.5,3.145-10.321c0-2.494,3.23-3.425,4.105-3.425V29
			c-2,0-3.569,0.898-5.118,0.846C8,29.75,7.125,27.405,7.125,26.008C7.125,23,8.029,21.516,8.75,19.5z"/>
		<path fill="#A28F7F" d="M8.75,19.5c1.37-3.83,3.145-7.5,3.145-10.321c0-1.247,0.808-2.103,1.724-2.648
			c-2.682,11.093-5.182,15.843-2.737,23.314C8,29.75,7.125,27.405,7.125,26.008C7.125,23,8.029,21.516,8.75,19.5z"/>
		<path fill="#9D8978" d="M24.875,26.008c0,1.397-0.875,3.742-3.757,3.838c2.445-7.471-0.055-12.221-2.737-23.314
			c0.917,0.544,1.724,1.401,1.724,2.648c0,2.821,1.775,6.491,3.145,10.321C23.971,21.516,24.875,23,24.875,26.008z"/>
		<path fill="#FCE8CC" d="M13.227,18.869c1.094,3.25,2.04,5.428,0.625,6c-1.469,0.594-2.284-3.121-2.812-5.281
			C10.695,18.182,12.722,17.371,13.227,18.869z"/>
		<path fill="#F5DEB9" d="M20.961,19.588c-0.528,2.16-1.344,5.875-2.812,5.281c-1.415-0.572-0.469-2.75,0.625-6
			C19.278,17.371,21.305,18.182,20.961,19.588z"/>
		<path fill="#F5DEB9" d="M19.602,4.11l1.584-1.876c0.093-0.11-0.029-0.27-0.16-0.209L19.43,2.774l0.335-2.622
			c0.018-0.139-0.163-0.209-0.243-0.094l-1.436,2.044l-0.612-1.786c-0.047-0.136-0.245-0.114-0.261,0.029L16.907,3.09
			C16.619,3.056,16.321,3.034,16,3.034c-4.304,0-5.581,3.138-5.581,5.447c0,1.547,1.076,5.917,5.581,6.067
			c4.505-0.15,5.581-4.521,5.581-6.067C21.581,7.021,21.067,5.23,19.602,4.11z"/>
		<path fill="#FCE8CC" d="M15.101,3.088l-0.305-2.744c-0.016-0.143-0.214-0.165-0.261-0.029l-0.612,1.786l-1.436-2.044
			c-0.081-0.115-0.261-0.045-0.243,0.094l0.335,2.622l-1.596-0.748c-0.131-0.061-0.253,0.098-0.16,0.209l1.581,1.872
			c-1.469,1.12-1.985,2.912-1.985,4.374c0,1.547,1.076,5.917,5.581,6.067V3.034C15.682,3.034,15.386,3.056,15.101,3.088z"/>
		<path fill="#EFD4A7" d="M21.267,10.322c-0.574,1.849-2.042,4.119-5.267,4.226c0-0.957,0-1.786,0-1.786
			C18.376,12.717,19.945,11.597,21.267,10.322z"/>
		<path fill="#A79586" d="M10.422,8.391l3.212,0.815c0.205,0.052,0.388-0.143,0.322-0.344l-1.552-4.756
			C10.964,5.204,10.442,6.946,10.422,8.391z"/>
		<path fill="#F5DEB9" d="M16,12.762c0,0,0,0.829,0,1.786c-3.225-0.107-4.693-2.377-5.267-4.226
			C12.055,11.597,13.624,12.717,16,12.762z"/>
		<path fill="#51BAC5" d="M13.898,8.915c0.063,0.045,0.078,0.137,0.026,0.195c-0.472,0.532-1.28,0.629-1.869,0.203
			c-0.589-0.426-0.749-1.223-0.392-1.838c0.039-0.067,0.131-0.082,0.193-0.036L13.898,8.915z"/>
		<circle fill="#373F3F" cx="12.5" cy="8.5" r="0.5"/>
		<path fill="#A28F7F" d="M21.568,8.391l-3.212,0.815c-0.205,0.052-0.388-0.143-0.322-0.344l1.552-4.756
			C21.026,5.204,21.548,6.946,21.568,8.391z"/>
		<path fill="#4CAEBC" d="M18.091,8.915c-0.063,0.045-0.078,0.137-0.026,0.195c0.472,0.532,1.28,0.629,1.869,0.203
			c0.589-0.426,0.749-1.223,0.392-1.838c-0.039-0.067-0.131-0.082-0.193-0.036L18.091,8.915z"/>
		<circle fill="#2B3332" cx="19.5" cy="8.5" r="0.5"/>
		<g>
			<path fill="#A28F7F" d="M17.457,4.083h-0.592v-1C16.59,3.053,16.304,3.034,16,3.034v5.829c0.074,0,0.148-0.042,0.176-0.127
				l1.457-4.409C17.672,4.207,17.583,4.083,17.457,4.083z"/>
			<path fill="#A79586" d="M15.135,3.083v1h-0.592c-0.126,0-0.216,0.124-0.176,0.243l1.457,4.409C15.852,8.82,15.926,8.862,16,8.862
				V3.034C15.696,3.034,15.41,3.053,15.135,3.083z"/>
		</g>
		<g>
			<path fill="#373F3F" d="M15.102,11.477c-0.127,0-0.191,0.135-0.101,0.215l0.898,0.79c0.028,0.025,0.065,0.037,0.101,0.037v-1.042
				H15.102z"/>
			<path fill="#2B3332" d="M16.999,11.692c0.09-0.079,0.026-0.215-0.101-0.215H16v1.042c0.037,0,0.073-0.012,0.101-0.037
				L16.999,11.692z"/>
		</g>
	</g>
</g>
</svg>
