<?xml version="1.0" encoding="utf-8"?>
<!-- Generator: Adobe Illustrator 23.0.6, SVG Export Plug-In . SVG Version: 6.00 Build 0)  -->
<svg version="1.1" xmlns="http://www.w3.org/2000/svg" xmlns:xlink="http://www.w3.org/1999/xlink" x="0px" y="0px" width="32px"
	 height="32px" viewBox="0 0 32 32" enable-background="new 0 0 32 32" xml:space="preserve">
<g id="labels">
	<g>
	</g>
</g>
<g id="icons">
	<g>
		<g>
			<path fill="#6CD275" d="M13.566,32H9.434c-0.249,0-0.46-0.183-0.495-0.429L8,25h7l-0.939,6.571
				C14.026,31.817,13.815,32,13.566,32z"/>
			<path fill="#60C46F" d="M22.566,32h-4.133c-0.249,0-0.46-0.183-0.495-0.429L17,25h7l-0.939,6.571
				C23.026,31.817,22.815,32,22.566,32z"/>
		</g>
		<path fill="#4EAC5D" d="M26.5,18c0,6.627-3.596,12-10.5,12S5.5,24.627,5.5,18S9.096,6,16,6c3.414,0,6.019,1.314,7.78,3.443
			C25.581,11.62,26.5,14.65,26.5,18z"/>
		<path fill="#54B668" d="M16,30C9.096,30,5.5,24.627,5.5,18S9.096,6,16,6V30z"/>
		<path fill="#FFE28A" d="M25.502,23.6c0.01-0.025,0.02-0.05,0.029-0.074c0.027-0.07,0.054-0.14,0.08-0.211
			c0.007-0.02,0.014-0.04,0.021-0.059c0.021-0.059,0.042-0.117,0.063-0.176c0.008-0.022,0.016-0.045,0.023-0.067
			c0.026-0.075,0.05-0.15,0.075-0.226c0.004-0.013,0.008-0.026,0.012-0.039c0.022-0.069,0.043-0.139,0.064-0.209
			c0.003-0.01,0.006-0.019,0.009-0.029h0C26.291,21.117,26.5,19.595,26.5,18c0-3.35-0.919-6.38-2.719-8.557
			C22.019,7.314,19.414,6,16,6C9.096,6,5.5,11.373,5.5,18c0,1.595,0.209,3.117,0.622,4.509h0c0.003,0.01,0.006,0.019,0.009,0.029
			c0.021,0.07,0.042,0.14,0.064,0.209c0.004,0.013,0.008,0.026,0.012,0.039c0.025,0.077,0.05,0.154,0.076,0.23
			c0.007,0.019,0.013,0.039,0.02,0.058c0.021,0.061,0.043,0.123,0.065,0.183c0.007,0.019,0.014,0.039,0.021,0.058
			c0.026,0.071,0.053,0.141,0.08,0.211c0.01,0.025,0.019,0.05,0.029,0.074c0.021,0.053,0.043,0.106,0.064,0.159
			c0.009,0.022,0.018,0.044,0.027,0.066C6.614,23.884,6.639,23.942,6.664,24h0c0.081,0.185,0.165,0.366,0.254,0.544
			c1.081,1.252,2.418,2.254,4.004,2.929c0.262,0.112,0.573,0.012,0.731-0.225l0.586-0.879l0.892,1.337
			c0.235,0.353,0.753,0.353,0.988,0l0.332-0.498l1.003,2.341c0.206,0.48,0.886,0.48,1.092,0l1.003-2.341l0.332,0.498
			c0.235,0.353,0.753,0.353,0.988,0l0.892-1.337l0.586,0.879c0.158,0.237,0.468,0.337,0.731,0.225
			c1.586-0.675,2.922-1.677,4.004-2.929c0.089-0.178,0.173-0.36,0.254-0.544h0c0.025-0.058,0.05-0.116,0.074-0.174
			c0.009-0.022,0.018-0.044,0.027-0.066C25.459,23.707,25.481,23.654,25.502,23.6z"/>
		<path fill="#FFEAA7" d="M5.5,18c0,1.595,0.209,3.117,0.622,4.509h0c0.003,0.01,0.006,0.019,0.009,0.029
			c0.021,0.07,0.042,0.14,0.064,0.209c0.004,0.013,0.008,0.026,0.012,0.039c0.025,0.077,0.05,0.154,0.076,0.23
			c0.007,0.019,0.013,0.039,0.02,0.058c0.021,0.061,0.043,0.123,0.065,0.183c0.007,0.019,0.014,0.039,0.021,0.058
			c0.026,0.071,0.053,0.141,0.08,0.211c0.01,0.025,0.019,0.05,0.029,0.074c0.021,0.053,0.043,0.106,0.064,0.159
			c0.009,0.022,0.018,0.044,0.027,0.066C6.614,23.884,6.639,23.942,6.664,24h0c0.081,0.185,0.165,0.366,0.254,0.544
			c1.081,1.252,2.418,2.254,4.004,2.929c0.262,0.112,0.573,0.012,0.731-0.225l0.586-0.879l0.892,1.337
			c0.235,0.353,0.753,0.353,0.988,0l0.332-0.498l1.003,2.341c0.103,0.24,0.324,0.36,0.546,0.36V6C9.096,6,5.5,11.373,5.5,18z"/>
		<path fill="#54B668" d="M16,7.179c-0.043,0-0.086,0.013-0.122,0.04l-5.792,4.224c-0.114,0.083-0.114,0.253,0,0.336l5.792,4.224
			c0.036,0.027,0.079,0.04,0.122,0.04V7.179z"/>
		<polygon fill="#807A7A" points="22,8.812 10,8.812 14,3.772 18,3.772 		"/>
		<polygon fill="#746E6E" points="16,8.812 22,8.812 18,3.772 16,3.772 		"/>
		<path fill="#4EAC5D" d="M16.122,16.003l5.792-4.224c0.114-0.083,0.114-0.253,0-0.336l-5.792-4.224
			c-0.036-0.027-0.08-0.04-0.122-0.04v8.865C16.043,16.043,16.086,16.03,16.122,16.003z"/>
		<path fill="#A2D336" d="M27.017,4.196l-2.434,2.608c-0.099,0.106-0.267,0.106-0.366,0l-2.435-2.608
			c-0.099-0.106-0.267-0.106-0.366,0l-2.434,2.608c-0.099,0.106-0.267,0.106-0.366,0l-2.434-2.608c-0.099-0.106-0.267-0.106-0.366,0
			l-2.434,2.608c-0.099,0.106-0.267,0.106-0.366,0l-2.434-2.608c-0.099-0.106-0.267-0.106-0.366,0L7.783,6.804
			c-0.099,0.106-0.267,0.106-0.366,0L4.983,4.196c-0.099-0.106-0.267-0.106-0.366,0l-2.483,2.66C2.048,6.949,2,7.07,2,7.197V9.5
			C2,9.776,2.224,10,2.5,10h27c0.276,0,0.5-0.224,0.5-0.5V7.197c0-0.127-0.048-0.249-0.134-0.341l-2.483-2.66
			C27.284,4.09,27.116,4.09,27.017,4.196z"/>
		<path fill="#9ACC2E" d="M29.5,10c0.276,0,0.5-0.224,0.5-0.5V7.197c0-0.127-0.048-0.249-0.134-0.341l-2.483-2.66
			c-0.099-0.106-0.267-0.106-0.365,0l-2.435,2.608c-0.099,0.106-0.267,0.106-0.365,0l-2.435-2.608c-0.099-0.106-0.267-0.106-0.365,0
			l-2.435,2.608c-0.099,0.106-0.267,0.106-0.365,0l-2.435-2.608C16.133,4.143,16.067,4.116,16,4.116V10H29.5z"/>
		<g>
			<ellipse fill="#F7F7F7" cx="18.856" cy="11.73" rx="1.25" ry="1.5"/>
			<ellipse fill="#2B3332" cx="18.856" cy="11.73" rx="0.75" ry="1"/>
		</g>
		<g>
			<path fill="#78DF7C" d="M7.847,17.25c0-0.138-0.112-0.25-0.25-0.25H6.419l0.266-1.859C6.77,14.539,6.303,14,5.694,14H1
				c-0.609,0-1.076,0.539-0.99,1.141l0.592,4.141C0.743,20.268,1.586,21,2.582,21h1.531c0.995,0,1.839-0.732,1.98-1.717l0.01-0.068
				C6.12,19.091,6.225,19,6.35,19h1.247c0.138,0,0.25-0.112,0.25-0.25V17.25z"/>
			<path fill="#373F3F" d="M3.744,15.817c-0.189,0.519,0.16,1.122,0.16,1.122s0.655-0.238,0.844-0.757
				c0.189-0.519,0.117-1.022-0.16-1.122C4.311,14.959,3.933,15.298,3.744,15.817z"/>
			<path fill="#373F3F" d="M2.798,15.817c0.189,0.519-0.16,1.122-0.16,1.122s-0.655-0.238-0.844-0.757
				c-0.189-0.519-0.117-1.022,0.16-1.122S2.609,15.298,2.798,15.817z"/>
		</g>
		<g>
			<ellipse fill="#FFFFFF" cx="13" cy="12" rx="1.25" ry="1.5"/>
			<ellipse fill="#373F3F" cx="13" cy="12" rx="0.75" ry="1"/>
		</g>
		<path fill="#DD7C8A" d="M16,14.956c-0.139,0-0.278-0.015-0.415-0.043l-3.522-0.746c-0.362-0.077-0.678,0.252-0.589,0.61
			l0.738,3.951C12.547,20.063,13.746,21,15.123,21H16V14.956z"/>
		<path fill="#DB7383" d="M16.877,21c1.377,0,2.577-0.937,2.91-2.272l0.738-3.951c0.09-0.358-0.227-0.687-0.589-0.61l-3.522,0.746
			c-0.137,0.029-0.276,0.043-0.415,0.043V21H16.877z"/>
		<g>
			<path fill="#6CD275" d="M24.153,17.25c0-0.138,0.112-0.25,0.25-0.25h1.179l-0.266-1.859C25.23,14.539,25.697,14,26.306,14H31
				c0.609,0,1.076,0.539,0.99,1.141l-0.592,4.141C31.257,20.268,30.414,21,29.418,21h-1.531c-0.995,0-1.839-0.732-1.98-1.717
				l-0.01-0.068C25.88,19.091,25.775,19,25.65,19h-1.247c-0.138,0-0.25-0.112-0.25-0.25V17.25z"/>
			<path fill="#2B3332" d="M28.256,15.817c0.189,0.519-0.16,1.122-0.16,1.122s-0.655-0.238-0.844-0.757
				c-0.189-0.519-0.117-1.022,0.16-1.122C27.689,14.959,28.067,15.298,28.256,15.817z"/>
			<path fill="#2B3332" d="M29.202,15.817c-0.189,0.519,0.16,1.122,0.16,1.122s0.655-0.238,0.844-0.757
				c0.189-0.519,0.117-1.022-0.16-1.122C29.769,14.959,29.391,15.298,29.202,15.817z"/>
		</g>
		<g>
			<path fill="#DE8490" d="M11.771,16.364l0.441,2.363C12.547,20.063,13.746,21,15.123,21H16v-4.375
				C15.077,16.625,13.318,15.9,11.771,16.364z"/>
			<path fill="#DD7C8A" d="M19.787,18.728l0.441-2.363C18.682,15.9,16.923,16.625,16,16.625V21h0.877
				C18.254,21,19.453,20.063,19.787,18.728z"/>
		</g>
		<path fill="#FFD04D" d="M18.927,12.927l-2.22-2.22c-0.391-0.391-1.024-0.391-1.414,0l-2.22,2.22
			C13.026,12.974,12.963,13,12.896,13H10.32c-0.163,0-0.282,0.153-0.243,0.311l1.354,7.417C11.766,22.063,12.966,23,14.342,23H16
			h1.658c1.377,0,2.577-0.937,2.91-2.272l1.354-7.417C21.962,13.153,21.842,13,21.68,13h-2.576
			C19.037,13,18.974,12.974,18.927,12.927z M19.787,18.728C19.453,20.063,18.254,21,16.877,21H16h-0.877
			c-1.377,0-2.577-0.937-2.91-2.272l-0.738-3.951c-0.09-0.359,0.227-0.687,0.589-0.61l3.522,0.746c0.273,0.058,0.556,0.058,0.829,0
			l3.522-0.746c0.362-0.077,0.678,0.252,0.589,0.61L19.787,18.728z"/>
		<path fill="#F7C845" d="M16.415,14.912l3.522-0.746c0.362-0.077,0.678,0.252,0.589,0.61l-0.738,3.951
			C19.453,20.063,18.254,21,16.877,21H16v2h1.658c1.377,0,2.577-0.937,2.91-2.272l1.354-7.417C21.962,13.153,21.842,13,21.68,13
			h-2.576c-0.066,0-0.13-0.026-0.177-0.073l-2.22-2.22c-0.195-0.195-0.451-0.293-0.707-0.293v4.541
			C16.139,14.956,16.278,14.941,16.415,14.912z"/>
		<path fill="#FFE28A" d="M16.347,0.119l0.723,1.177c0.067,0.108,0.204,0.149,0.319,0.096l1.19-0.556
			c0.185-0.086,0.39,0.073,0.351,0.274l-0.214,1.11c-0.024,0.122,0.047,0.244,0.165,0.284l0.955,0.327
			c0.235,0.08,0.222,0.418-0.02,0.479l-1.838,0.463h-4l-1.577-0.451c-0.235-0.067-0.244-0.398-0.012-0.477l0.999-0.341
			c0.118-0.04,0.188-0.161,0.165-0.284l-0.214-1.11c-0.039-0.2,0.166-0.36,0.351-0.274l1.19,0.556
			c0.115,0.054,0.252,0.013,0.319-0.096l0.723-1.177C16.019-0.04,16.25-0.04,16.347,0.119z"/>
		<path fill="#FFEAA7" d="M16,0.044v3.728h-2.022l-1.577-0.451c-0.235-0.067-0.244-0.398-0.012-0.477l0.999-0.341
			c0.118-0.04,0.188-0.161,0.165-0.284l-0.214-1.11c-0.039-0.201,0.166-0.36,0.351-0.274l1.19,0.556
			c0.115,0.054,0.252,0.013,0.319-0.096l0.723-1.177C15.942,0.086,15.97,0.064,16,0.044z"/>
	</g>
</g>
</svg>
