<?xml version="1.0" encoding="utf-8"?>
<!-- Generator: Adobe Illustrator 23.0.6, SVG Export Plug-In . SVG Version: 6.00 Build 0)  -->
<svg version="1.1" xmlns="http://www.w3.org/2000/svg" xmlns:xlink="http://www.w3.org/1999/xlink" x="0px" y="0px" width="32px"
	 height="32px" viewBox="0 0 32 32" enable-background="new 0 0 32 32" xml:space="preserve">
<g id="labels">
	<g>
	</g>
</g>
<g id="icons">
	<g>
		<path fill="#923D27" d="M8.981,13.811c0.559,0.682,1.354,1.049,2.174,1.1c0.308-0.888,0.2-1.852-0.386-2.566
			s-1.509-1.009-2.441-0.881C8.217,12.278,8.422,13.129,8.981,13.811z"/>
		<path fill="#A0422C" d="M8.981,13.811c-0.559-0.682-0.764-1.533-0.653-2.347c-0.555,0.077-1.11,0.308-1.601,0.69
			C6.28,13.178,6.393,14.4,7.145,15.317s1.928,1.266,3.02,1.029c0.471-0.407,0.806-0.906,0.99-1.435
			C10.335,14.86,9.54,14.493,8.981,13.811z"/>
		<path fill="#AD4630" d="M7.145,15.317C6.393,14.4,6.28,13.178,6.727,12.154c-0.024,0.019-0.05,0.031-0.074,0.051
			c-1.28,1.049-1.59,2.784-0.743,3.948l-1.082,1.421l1.194,0.908l1.105-1.452c0.938,0.31,2.075,0.117,2.974-0.621
			c0.024-0.019,0.041-0.043,0.064-0.063C9.073,16.583,7.896,16.234,7.145,15.317z"/>
		<path fill="#923D27" d="M21.811,10.397c0.59-1.362,0.084-7.64-5.811-7.64s-6.4,6.278-5.811,7.64
			c0.589,1.362,1.347,5.371,0.842,7.488c-0.505,2.118-1.6,2.118-0.168,3.555c2.754,2.764,2.863,2.421,5.137,2.421
			s2.383,0.344,5.137-2.421c1.432-1.437,0.337-1.437-0.168-3.555C20.463,15.768,21.221,11.759,21.811,10.397z"/>
		<path fill="#A0422C" d="M16,2.758v21.104c-2.274,0-2.383,0.344-5.137-2.421c-1.432-1.437-0.337-1.437,0.168-3.555
			c0.505-2.118-0.253-6.127-0.842-7.488C9.6,9.036,10.105,2.758,16,2.758z"/>
		<path fill="#7D3119" d="M22.056,32h-2.153c-0.104,0-0.197-0.065-0.234-0.162l-0.439-1.171h3.5l-0.439,1.171
			C22.253,31.935,22.16,32,22.056,32z"/>
		<path fill="#843822" d="M12.056,32H9.902c-0.104,0-0.197-0.065-0.234-0.162l-0.439-1.171h3.5l-0.439,1.171
			C12.253,31.935,12.16,32,12.056,32z"/>
		<path fill="#923D27" d="M11.031,17.886c-0.078,0.327-0.17,0.599-0.265,0.838c-2.048,0.155-2.287,2.489-2.287,3.818
			c0,1.63,1.5,2.042,1.5,3.5c0,0.217,0,0.394,0,0.544c-0.788,0.177-0.916,0.182-1.118,1.441c-0.209,1.309-0.611,2.806,1.055,2.806
			c0.266,0,0.567,0,1.063,0c0.496,0,0.797,0,1.063,0c1.665,0,1.264-1.498,1.055-2.806c-0.201-1.26-0.33-1.264-1.118-1.441
			c0-0.15,0-0.327,0-0.544c0-1.115,0.872-1.622,1.285-2.525c0.813,0.458,1.404,0.344,2.736,0.344v-4.486
			C13.292,19.333,11.312,18.562,11.031,17.886z"/>
		<path fill="#843822" d="M22.021,26.586c0-0.15,0-0.327,0-0.544c0-1.458,1.5-1.87,1.5-3.5c0-1.329-0.239-3.664-2.287-3.818
			c-0.095-0.239-0.187-0.511-0.265-0.838c-0.281,0.677-1.781,1.489-4.969,1.489v4.486c1.332,0,1.923,0.113,2.736-0.344
			c0.413,0.903,1.285,1.41,1.285,2.525c0,0.217,0,0.394,0,0.544c-0.788,0.177-0.916,0.182-1.118,1.441
			c-0.209,1.309-0.611,2.806,1.055,2.806c0.266,0,0.567,0,1.063,0c0.496,0,0.797,0,1.063,0c1.665,0,1.264-1.498,1.055-2.806
			C22.937,26.767,22.809,26.762,22.021,26.586z"/>
		<path fill="#DB7383" d="M18.54,13.356c0-1.01,0.195-0.873-0.119-1.657c-0.32-0.8-1.602-0.316-2.421-0.316
			c-0.819,0-2.101-0.484-2.421,0.316c-0.314,0.784-0.119,0.647-0.119,1.657c0,0.846-0.293,1.567,0.012,2.333
			c0.264,0.663,1.869,0.568,2.528,0.568c0.659,0,2.264,0.095,2.528-0.568C18.833,14.922,18.54,14.202,18.54,13.356z"/>
		<path fill="#DD7C8A" d="M16,11.383c-0.819,0-2.1-0.484-2.421,0.316c-0.314,0.784-0.119,0.647-0.119,1.657
			c0,0.846-0.293,1.567,0.012,2.333c0.264,0.663,1.869,0.568,2.528,0.568V11.383z"/>
		<path fill="#8FB720" d="M8.602,20.831c-0.706-1.067-1.739-1.973-2.528-2.579c0.011-0.057,0.034-0.109,0.034-0.169
			c0-0.518-0.42-0.938-0.938-0.938c-0.5,0-0.901,0.395-0.928,0.888c-0.806,0.592-2.02,1.6-2.813,2.797
			c-0.892,1.347-1.276,2.972-1.425,3.826c-0.04,0.226,0.214,0.382,0.396,0.243c0.665-0.508,1.885-1.544,2.786-2.905
			c0.453-0.684,0.797-1.37,1.068-2.002c-0.159,0.727-0.273,1.533-0.251,2.313c0.045,1.615,0.666,3.165,1.034,3.95
			c0.097,0.207,0.395,0.189,0.464-0.029c0.252-0.798,0.654-2.347,0.609-3.979c-0.02-0.717-0.108-1.389-0.224-1.998
			c0.254,0.559,0.566,1.153,0.958,1.745c0.902,1.361,2.121,2.397,2.786,2.905c0.182,0.139,0.436-0.017,0.396-0.243
			C9.877,23.803,9.494,22.178,8.602,20.831z"/>
		<path fill="#843822" d="M23.019,13.811c-0.559,0.682-1.354,1.049-2.174,1.1c-0.308-0.888-0.2-1.852,0.386-2.566
			s1.509-1.009,2.441-0.881C23.783,12.278,23.578,13.129,23.019,13.811z"/>
		<path fill="#923D27" d="M23.019,13.811c0.559-0.682,0.764-1.533,0.653-2.347c0.555,0.077,1.11,0.308,1.601,0.69
			c0.447,1.025,0.334,2.247-0.417,3.163s-1.928,1.266-3.02,1.029c-0.471-0.407-0.806-0.906-0.99-1.435
			C21.665,14.86,22.46,14.493,23.019,13.811z"/>
		<path fill="#A0422C" d="M27.172,17.573l-1.082-1.421c0.846-1.163,0.536-2.898-0.743-3.948c-0.024-0.019-0.05-0.032-0.074-0.051
			c0.447,1.025,0.334,2.247-0.418,3.163c-0.752,0.917-1.928,1.266-3.02,1.029c0.023,0.02,0.04,0.043,0.064,0.063
			c0.9,0.738,2.037,0.931,2.974,0.621l1.105,1.452L27.172,17.573z"/>
		<path fill="#8EAD1E" d="M30.57,20.831c-0.792-1.196-2.007-2.204-2.813-2.797c-0.027-0.494-0.427-0.888-0.928-0.888
			c-0.518,0-0.938,0.42-0.938,0.938c0,0.06,0.023,0.112,0.034,0.169c-0.789,0.606-1.822,1.513-2.528,2.579
			c-0.892,1.347-1.276,2.972-1.425,3.826c-0.04,0.226,0.214,0.382,0.396,0.243c0.665-0.508,1.885-1.544,2.786-2.905
			c0.392-0.591,0.704-1.186,0.958-1.745c-0.116,0.609-0.204,1.281-0.224,1.998c-0.045,1.632,0.357,3.181,0.609,3.979
			c0.069,0.219,0.366,0.237,0.464,0.029c0.369-0.785,0.989-2.335,1.034-3.95c0.022-0.781-0.092-1.587-0.251-2.313
			c0.272,0.632,0.615,1.317,1.068,2.002c0.902,1.361,2.121,2.397,2.786,2.905c0.182,0.139,0.436-0.017,0.396-0.243
			C31.846,23.803,31.463,22.178,30.57,20.831z"/>
		<path fill="#FFFFFF" d="M13.345,14.915c0,0.257,0.023,0.513,0.127,0.773c0.264,0.663,1.869,0.568,2.528,0.568v-1.443
			C15.369,14.821,14.069,14.88,13.345,14.915z"/>
		<path fill="#F7F7F7" d="M16.128,14.812c-0.036,0-0.085,0.001-0.128,0.001v1.443c0.659,0,2.264,0.095,2.528-0.568
			c0.104-0.261,0.127-0.518,0.127-0.776C17.945,14.875,16.684,14.812,16.128,14.812z"/>
		<path fill="#FFFFFF" d="M13.579,11.699c-0.172,0.43-0.19,0.586-0.172,0.803c0.825,0.042,1.914,0.091,2.445,0.091
			c0.043,0,0.097-0.001,0.148-0.001v-1.208C15.181,11.383,13.899,10.899,13.579,11.699z"/>
		<path fill="#F7F7F7" d="M18.421,11.699c-0.32-0.8-1.602-0.316-2.421-0.316v1.208c0.607-0.007,1.745-0.056,2.594-0.095
			C18.611,12.282,18.592,12.125,18.421,11.699z"/>
		<path fill="#FFF3D9" d="M15.745,0.18l-0.579,1.924L13.841,0.87c-0.176-0.15-0.443,0.006-0.399,0.233l0.464,1.926
			c-1.015,0.34-2.093,1.018-2.948,2.395c-1.5,2.417-0.833,4.833-0.833,4.833l-1.65,2.551c-0.07,0.108,0.05,0.239,0.164,0.178
			l1.677-0.898l-0.539,2.902c-0.021,0.114,0.111,0.193,0.201,0.12l2.087-1.682l0.217,1.979c0.014,0.13,0.193,0.154,0.241,0.032
			c0.6-1.553,2.517-6.309,3.478-6.309V0C15.894,0,15.787,0.06,15.745,0.18z"/>
		<path fill="#FDEBBB" d="M23.525,12.808l-1.65-2.551c0,0,0.667-2.417-0.833-4.833c-0.855-1.377-1.933-2.055-2.948-2.396
			l0.464-1.926c0.044-0.227-0.223-0.383-0.399-0.233l-1.325,1.234L16.255,0.18C16.213,0.06,16.106,0,16,0v9.131
			c0.96,0,2.877,4.756,3.478,6.309c0.047,0.122,0.226,0.098,0.241-0.032l0.217-1.979l2.087,1.682c0.09,0.073,0.223-0.006,0.201-0.12
			l-0.539-2.902l1.677,0.898C23.475,13.047,23.595,12.917,23.525,12.808z"/>
		<path fill="#2B3332" d="M17.498,8.488c-0.216-0.048-0.267-0.333-0.081-0.454l2.041-1.321c0.122-0.079,0.284-0.038,0.355,0.089
			c0.122,0.219,0.276,0.584,0.276,1.031c0,0.49-0.19,0.837-0.315,1.011c-0.058,0.081-0.159,0.118-0.257,0.096L17.498,8.488z"/>
		<path fill="#FAE09F" d="M17.411,8.035l1.07-0.692l0.556-0.36c0.107,0.223,0.214,0.539,0.214,0.913c0,0.434-0.144,0.74-0.266,0.931
			l-1.492-0.334C17.275,8.443,17.224,8.156,17.411,8.035z"/>
		<ellipse fill="#2B3332" cx="18.406" cy="8.01" rx="0.25" ry="0.375"/>
		<path fill="#A0422C" d="M19.341,4.67c-0.015-0.644,0.054-1.465,0.382-2.251c0.483-1.157,1.433-1.983,1.945-2.367
			c0.161-0.12,0.387-0.022,0.408,0.178c0.067,0.633,0.112,1.88-0.364,3.02c-0.425,1.017-1.157,1.754-1.67,2.18
			C19.817,5.142,19.584,4.886,19.341,4.67z"/>
		<path fill="#2B3332" d="M19.494,4.812c-0.011-0.496,0.144-1.097,0.397-1.702c0.372-0.89,0.973-1.566,1.367-1.861
			c0.124-0.092,0.298-0.017,0.314,0.137c0.052,0.487,0.013,1.331-0.353,2.208c-0.327,0.783-0.954,1.29-1.348,1.618
			C19.724,5.047,19.647,4.965,19.494,4.812z"/>
		<path fill="#373F3F" d="M14.502,8.488c0.216-0.048,0.267-0.333,0.081-0.454l-2.041-1.321c-0.122-0.079-0.284-0.038-0.355,0.089
			c-0.122,0.219-0.276,0.584-0.276,1.031c0,0.49,0.19,0.837,0.315,1.011c0.058,0.081,0.159,0.118,0.257,0.096L14.502,8.488z"/>
		<path fill="#FDEBBB" d="M14.587,8.035L13.52,7.344l-0.555-0.359c-0.106,0.223-0.213,0.538-0.213,0.911
			c0,0.434,0.144,0.739,0.265,0.929l1.49-0.334C14.723,8.442,14.774,8.156,14.587,8.035z"/>
		<ellipse fill="#373F3F" cx="13.594" cy="8.01" rx="0.25" ry="0.375"/>
		<path fill="#AD4630" d="M11.957,5.43c-0.513-0.426-1.245-1.163-1.67-2.18C9.811,2.11,9.856,0.863,9.923,0.23
			c0.021-0.199,0.247-0.298,0.408-0.178c0.513,0.384,1.462,1.21,1.945,2.367c0.328,0.786,0.397,1.607,0.382,2.251
			C12.416,4.886,12.183,5.142,11.957,5.43z"/>
		<path fill="#373F3F" d="M12.129,5.212c-0.395-0.328-1.021-0.835-1.348-1.618c-0.366-0.878-0.405-1.721-0.353-2.208
			c0.016-0.154,0.19-0.229,0.314-0.137c0.395,0.295,0.996,0.97,1.367,1.861c0.253,0.605,0.408,1.206,0.397,1.702
			C12.353,4.965,12.276,5.047,12.129,5.212z"/>
		<path fill="#A0422C" d="M16,9.021c-0.583,0-1.167,0.555-1.167,1.481c0,1.105,0.619,2.279,0.955,2.836
			c0.097,0.16,0.327,0.16,0.424,0c0.336-0.557,0.955-1.731,0.955-2.836C17.167,9.576,16.583,9.021,16,9.021z"/>
		<path fill="#AD4630" d="M16,9.021v4.436c-0.082,0-0.164-0.04-0.212-0.12c-0.336-0.557-0.955-1.731-0.955-2.836
			C14.833,9.576,15.417,9.021,16,9.021z"/>
	</g>
</g>
</svg>
