<?xml version="1.0" encoding="utf-8"?>
<!-- Generator: Adobe Illustrator 23.0.6, SVG Export Plug-In . SVG Version: 6.00 Build 0)  -->
<svg version="1.1" xmlns="http://www.w3.org/2000/svg" xmlns:xlink="http://www.w3.org/1999/xlink" x="0px" y="0px" width="32px"
	 height="32px" viewBox="0 0 32 32" enable-background="new 0 0 32 32" xml:space="preserve">
<g id="labels">
	<g>
	</g>
</g>
<g id="icons">
	<g>
		<path fill="#377360" d="M24.614,26.35c0.951,0.297,4.691,1.967,6.153,3.21c0.178,0.151,0.059,0.447-0.174,0.439
			c-2.883-0.101-2.832-0.231-6.83-1.548l-6.616-3.115L20.102,22L24.614,26.35z"/>
		<path fill="#407966" d="M7.386,26.35c-0.951,0.297-4.691,1.967-6.153,3.21C1.056,29.712,1.174,30.008,1.407,30
			c2.883-0.101,2.832-0.231,6.83-1.548l6.616-3.115L11.898,22L7.386,26.35z"/>
		<path fill="#407966" d="M9.589,30.823c0.261-0.522,0.737-0.904,1.304-1.046l2.918-0.729C13.922,29.02,14,28.92,14,28.805V27h2v5
			H9.809c-0.372,0-0.613-0.391-0.447-0.724L9.589,30.823z"/>
		<path fill="#FDEBBB" d="M13,32h2c0-0.552-0.448-1-1-1S13,31.448,13,32z"/>
		<path fill="#FDEBBB" d="M10,32h2c0-0.552-0.448-1-1-1S10,31.448,10,32z"/>
		<g>
			<path fill="#EDEEEE" d="M0.613,2.041c1.305,0.796,5.415,3.583,5.415,3.583l7,10v6l-4.891-2.445
				c-0.7-0.35-1.199-1.003-1.352-1.771l-0.442-2.21c-0.192-0.961-0.921-1.725-1.871-1.963l-0.523-0.131
				C2.82,12.822,0.028,7.175,0.028,6.521L0.05,1.531C0.12,1.694,0.283,1.873,0.613,2.041z"/>
			<path fill="#407966" d="M0.613,1.041c1.104,0.566,4.719,2.617,5.978,3.334c0.292,0.166,0.549,0.377,0.77,0.63l6.383,7.295
				c0.355-1.026,1.068,5.325-0.969,2.964l-6.43-9.186C6.135,5.777,5.873,5.519,5.569,5.313c-1.109-0.749-3.919-2.64-4.956-3.272
				C-0.45,1.499,0.084,0.826,0.613,1.041z"/>
		</g>
		<path fill="#377360" d="M22.411,30.823c-0.261-0.522-0.737-0.904-1.304-1.046l-2.918-0.73C18.078,29.02,18,28.92,18,28.805V27h-2
			v5h6.191c0.372,0,0.613-0.391,0.447-0.724L22.411,30.823z"/>
		<path fill="#FAE09F" d="M19,32h-2c0-0.552,0.448-1,1-1S19,31.448,19,32z"/>
		<path fill="#FAE09F" d="M22,32h-2c0-0.552,0.448-1,1-1S22,31.448,22,32z"/>
		<g>
			<path fill="#E3E5E5" d="M31.387,2.041c-1.305,0.796-5.415,3.583-5.415,3.583l-7,10v6l4.891-2.445
				c0.7-0.35,1.199-1.003,1.352-1.771l0.442-2.21c0.192-0.961,0.921-1.725,1.871-1.963l0.523-0.131
				c1.129-0.282,3.921-5.929,3.921-6.584L31.95,1.531C31.88,1.694,31.717,1.873,31.387,2.041z"/>
			<path fill="#377360" d="M31.387,1.041c-1.104,0.566-4.719,2.617-5.978,3.334c-0.292,0.166-0.549,0.377-0.77,0.63L18.255,12.3
				c-0.355-1.026-0.443,3.825,0.969,2.964l6.43-9.186c0.211-0.301,0.473-0.559,0.778-0.765c1.109-0.749,3.919-2.64,4.956-3.272
				C32.45,1.499,31.916,0.826,31.387,1.041z"/>
		</g>
		<path fill="#EDEEEE" d="M19.512,10.5C18.482,9.904,17.275,12,16,12s-2.482-2.096-3.512-1.5c-2.092,1.21-4,6-4,9.5
			c0,3.866,3.012,8,7.512,8s7.512-4.134,7.512-8C23.512,16.5,21.604,11.71,19.512,10.5z"/>
		<path fill="#568473" d="M16,0c-3.314,0-6,3.186-6,6.5s3,5.5,6,5.5V0z"/>
		<path fill="#F7F7F7" d="M16,12c-1.275,0-2.482-2.096-3.512-1.5c-2.092,1.21-4,6-4,9.5c0,3.866,3.012,8,7.512,8V12z"/>
		<path fill="#407966" d="M16,0c3.314,0,6,3.186,6,6.5S19,12,16,12V0z"/>
		<path fill="#EF8C48" d="M19.969,10.406c0.219-0.198,1.662-2.464,0.698-5.115c-0.75-2.062-2.396-2.479-2.396-2.479
			S17.281,0.5,16,0.5s-2.271,2.312-2.271,2.312s-1.646,0.417-2.396,2.479c-0.964,2.651,0.479,4.917,0.698,5.115
			c-0.906,0.906-1.312,1.969-1.312,1.969s2.906,7.979,5.281,7.979c2,0,5.281-7.979,5.281-7.979S20.875,11.312,19.969,10.406z"/>
		<path fill="#F79654" d="M13.729,2.812c0,0-1.646,0.417-2.396,2.479c-0.964,2.651,0.479,4.917,0.698,5.115
			c-0.906,0.906-1.312,1.969-1.312,1.969s2.906,7.979,5.281,7.979V12V0.5C14.719,0.5,13.729,2.812,13.729,2.812z"/>
		<path fill="#FFFFFF" d="M15.655,7.089c0.04-0.052,0.036-0.125-0.002-0.179c-0.758-1.077-2.788-2.243-4.059-2.222
			c-0.75,1.281-0.719,3.167-0.323,4.188C11.908,8.875,15.059,7.87,15.655,7.089z"/>
		<path fill="#373F3F" d="M14.503,6.965c0.044-0.447-0.003-0.869-0.118-1.226c-0.515-0.35-1.121-0.675-1.644-0.841
			c-0.456,0.315-0.82,0.992-0.9,1.807c-0.079,0.813,0.142,1.538,0.527,1.937c0.572-0.166,1.257-0.404,1.864-0.67
			C14.367,7.677,14.467,7.338,14.503,6.965z"/>
		<path fill="#FFFFFF" d="M13.781,6.812c0,0.276-0.224,0.5-0.5,0.5s-0.5-0.224-0.5-0.5s0.224-0.5,0.5-0.5S13.781,6.536,13.781,6.812
			z"/>
		<path fill="#F7F7F7" d="M16.345,7.089c-0.04-0.052-0.036-0.125,0.002-0.179c0.758-1.077,2.788-2.243,4.059-2.222
			c0.75,1.281,0.719,3.167,0.323,4.188C20.092,8.875,16.941,7.87,16.345,7.089z"/>
		<path fill="#2B3332" d="M17.497,6.965c-0.044-0.447,0.003-0.869,0.118-1.226c0.515-0.35,1.121-0.675,1.644-0.841
			c0.456,0.315,0.82,0.992,0.9,1.807c0.079,0.813-0.142,1.538-0.527,1.937c-0.572-0.166-1.257-0.404-1.864-0.67
			C17.633,7.677,17.533,7.338,17.497,6.965z"/>
		<path fill="#F7F7F7" d="M18.719,6.312c0.276,0,0.5,0.224,0.5,0.5s-0.224,0.5-0.5,0.5s-0.5-0.224-0.5-0.5
			S18.443,6.312,18.719,6.312z"/>
		<path fill="#FFD04D" d="M18.686,8.31C16.295,7.448,16.375,6.583,16,6.583s-0.295,0.865-2.686,1.727
			c-0.773,0.278-1.361,0.455-1.49,0.467c0.805,1.027,1.762,1.652,2.926,1.807c0.625,0.083,0.958,0.583,1.25,0.583
			s0.625-0.5,1.25-0.583c1.164-0.155,2.122-0.78,2.926-1.807C20.047,8.765,19.459,8.588,18.686,8.31z"/>
		<path fill="#FFD96C" d="M16,6.583c-0.375,0-0.295,0.865-2.686,1.726c-0.773,0.278-1.361,0.455-1.49,0.467
			c0.805,1.027,1.762,1.652,2.926,1.807c0.625,0.083,0.958,0.583,1.25,0.583V6.583z"/>
		<path fill="#F7C845" d="M11.824,8.788c0.292,1.167,1.762,2.14,2.926,2.295c0.625,0.083,0.958,0.583,1.25,0.583V9.792
			C14.771,9.792,13.262,9.435,11.824,8.788z"/>
		<path fill="#F0C13E" d="M20.176,8.788c-0.292,1.167-1.762,2.14-2.926,2.295c-0.625,0.083-0.958,0.583-1.25,0.583V9.792
			C17.229,9.792,18.738,9.435,20.176,8.788z"/>
	</g>
</g>
</svg>
