<?xml version="1.0" encoding="utf-8"?>
<!-- Generator: Adobe Illustrator 23.0.6, SVG Export Plug-In . SVG Version: 6.00 Build 0)  -->
<svg version="1.1" xmlns="http://www.w3.org/2000/svg" xmlns:xlink="http://www.w3.org/1999/xlink" x="0px" y="0px" width="32px"
	 height="32px" viewBox="0 0 32 32" enable-background="new 0 0 32 32" xml:space="preserve">
<g id="labels">
	<g>
	</g>
</g>
<g id="icons">
	<g>
		<path fill="#495587" d="M24.614,26.35c0.951,0.297,4.691,1.967,6.153,3.21c0.178,0.151,0.059,0.447-0.174,0.439
			c-2.883-0.101-2.832-0.231-6.83-1.548l-6.616-3.115L20.102,22L24.614,26.35z"/>
		<path fill="#515E91" d="M7.386,26.35c-0.951,0.297-4.691,1.967-6.153,3.21C1.056,29.712,1.174,30.008,1.407,30
			c2.883-0.101,2.832-0.231,6.83-1.548l6.616-3.115L11.898,22L7.386,26.35z"/>
		<path fill="#515E91" d="M12.395,1.94c0,0-3.414,2.992-5.859,3.946c-0.242,0.094-0.195,0.447,0.063,0.48
			c0.618,0.079,1.373,0.117,1.933-0.045c0,0-0.752,0.911-1.602,1.488C6.722,7.95,6.831,8.275,7.082,8.264
			c0.829-0.036,1.962-0.199,2.766-0.76C11.261,6.517,12.395,1.94,12.395,1.94z"/>
		<path fill="#2B3332" d="M21.5,29H20v-1h-1v3.5c0,0.276,0.224,0.5,0.5,0.5h0c0.276,0,0.5-0.224,0.5-0.5v-0.793l0.543,0.543
			c0.195,0.195,0.512,0.195,0.707,0l0,0c0.195-0.195,0.195-0.512,0-0.707L20.707,30H21.5c0.276,0,0.5-0.224,0.5-0.5v0
			C22,29.224,21.776,29,21.5,29z"/>
		<path fill="#B93D4F" d="M16.688,25.625c0,0,2,3.352,3.062,3.018c0.729-0.229,0.94-2.116,1.184-3.253
			c0.066-0.603,0.074-1.143-0.129-1.68l-0.598-1.586L16.688,25.625z"/>
		<path fill="#373F3F" d="M12,28v1h-1.5c-0.276,0-0.5,0.224-0.5,0.5v0c0,0.276,0.224,0.5,0.5,0.5h0.793l-0.543,0.543
			c-0.195,0.195-0.195,0.512,0,0.707l0,0c0.195,0.195,0.512,0.195,0.707,0L12,30.707V31.5c0,0.276,0.224,0.5,0.5,0.5h0
			c0.276,0,0.5-0.224,0.5-0.5V28H12z"/>
		<path fill="#C84054" d="M15.312,25.625c0,0-2,3.352-3.062,3.018c-0.729-0.229-0.94-2.116-1.184-3.253
			c-0.066-0.603-0.074-1.143,0.129-1.68l0.598-1.586L15.312,25.625z"/>
		<path fill="#515E91" d="M4.969,6.993L2.164,2.27C2.081,2.13,1.888,2.105,1.773,2.221L1.127,2.866
			C1.051,2.942,1.032,3.058,1.081,3.154L1.5,3.993H0.68c-0.108,0-0.203,0.069-0.237,0.171L0.069,5.288
			C0.029,5.406,0.083,5.535,0.194,5.59L1,5.993L0.138,6.424C0.054,6.467,0,6.553,0,6.648l0,0.691C0,7.433,0.054,7.52,0.138,7.562
			L1,7.993L0.138,8.424C0.054,8.467,0,8.553,0,8.648l0,0.691C0,9.433,0.054,9.52,0.138,9.562L1,9.993l-0.862,0.431
			C0.054,10.467,0,10.553,0,10.648l0,1.165c0,0.108,0.069,0.203,0.171,0.237L1.5,12.493l-1.314,0.657
			c-0.108,0.054-0.162,0.177-0.129,0.292l0.36,1.261c0.043,0.151,0.212,0.225,0.352,0.155L2.5,13.993l-1.394,1.858
			c-0.064,0.085-0.067,0.2-0.008,0.289l0.744,1.116c0.084,0.126,0.259,0.149,0.373,0.049L4,15.743l-0.924,2.541
			c-0.043,0.119,0.01,0.252,0.123,0.309l1.558,0.779c0.131,0.065,0.29,0.005,0.344-0.131L6,16.993v2.529
			c0,0.126,0.094,0.232,0.219,0.248l1.55,0.194c0.13,0.016,0.25-0.071,0.276-0.199L8.5,17.493l0.46,2.299
			c0.023,0.117,0.126,0.201,0.245,0.201H11v-5l-3.632-1.816c-0.236-0.118-0.415-0.324-0.5-0.574L4.969,6.993z"/>
		<path fill="#495587" d="M27.031,6.993l2.805-4.723c0.083-0.14,0.276-0.164,0.392-0.049l0.645,0.645
			c0.076,0.076,0.095,0.192,0.047,0.289L30.5,3.993h0.82c0.108,0,0.203,0.069,0.237,0.171l0.374,1.123
			c0.039,0.118-0.014,0.247-0.125,0.303L31,5.993l0.862,0.431C31.946,6.467,32,6.553,32,6.648v0.691
			c0,0.095-0.054,0.181-0.138,0.224L31,7.993l0.862,0.431C31.946,8.467,32,8.553,32,8.648v0.691c0,0.095-0.054,0.181-0.138,0.224
			L31,9.993l0.862,0.431C31.946,10.467,32,10.553,32,10.648v1.165c0,0.108-0.069,0.203-0.171,0.237L30.5,12.493l1.314,0.657
			c0.108,0.054,0.162,0.177,0.129,0.292l-0.36,1.261c-0.043,0.151-0.212,0.225-0.352,0.155L29.5,13.993l1.394,1.858
			c0.064,0.085,0.067,0.2,0.008,0.289l-0.744,1.116c-0.084,0.126-0.259,0.149-0.373,0.049L28,15.743l0.924,2.541
			c0.043,0.119-0.01,0.252-0.123,0.309l-1.558,0.779c-0.131,0.065-0.29,0.005-0.344-0.131L26,16.993v2.529
			c0,0.126-0.094,0.232-0.219,0.248l-1.55,0.194c-0.13,0.016-0.25-0.071-0.276-0.199L23.5,17.493l-0.46,2.299
			c-0.023,0.117-0.126,0.201-0.245,0.201H21v-5l3.632-1.816c0.236-0.118,0.415-0.324,0.5-0.574L27.031,6.993z"/>
		<g>
			<path fill="#C84054" d="M16,10.428V0h-1.031c-0.292,0-0.578,0.037-0.857,0.098c1.263,1.554-0.456,5.558-0.456,5.558
				s-2.05-2.048-3.148-2.211C9.963,4.31,9.757,5.347,9.958,6.354l0.955,5.696c-0.551,0.927-1.228,2.172-1.792,3.499L16,21.031V11.57
				V10.428z"/>
		</g>
		<g>
			<path fill="#5C699E" d="M14.806,6.725c0,0,0.57-5.073-0.693-6.627c-0.976,0.214-1.849,0.785-2.43,1.623l-1.089,1.57
				c-0.017,0.024-0.223,0.354-0.36,0.667c-0.139,0.317-0.224,0.619-0.224,0.643C11.107,4.764,13.375,6.188,14.806,6.725z"/>
			<path fill="#E2EFF7" d="M8,20c0,5.26,6,7.428,8,7.428v-6.396l-6.879-5.483C8.49,17.032,8,18.619,8,20z"/>
		</g>
		<path fill="#6673AA" d="M10.913,12.05c-0.159,0.268-0.33,0.568-0.504,0.882L16,17.388v-2.558l-5.334-4.251L10.913,12.05z"/>
		<path fill="#495587" d="M19.605,1.94c0,0,3.414,2.992,5.859,3.946c0.242,0.094,0.195,0.447-0.063,0.48
			c-0.618,0.079-1.373,0.117-1.933-0.045c0,0,0.751,0.91,1.601,1.487c0.208,0.141,0.099,0.466-0.152,0.455
			c-0.829-0.036-1.961-0.2-2.765-0.76C20.739,6.517,19.605,1.94,19.605,1.94z"/>
		<g>
			<path fill="#B93D4F" d="M16,10.428V0l1.031,0c0.292,0,0.578,0.037,0.857,0.098c-1.263,1.554,0.456,5.558,0.456,5.558
				s2.05-2.048,3.148-2.211c0.544,0.865,0.751,1.902,0.55,2.908l-0.955,5.696c0.551,0.927,1.228,2.172,1.792,3.499L16,21.031V11.57
				V10.428z"/>
		</g>
		<g>
			<path fill="#515E91" d="M17.194,6.725c0,0-0.57-5.073,0.693-6.627c0.976,0.214,1.849,0.785,2.43,1.623l1.089,1.57
				c0.017,0.024,0.223,0.354,0.36,0.667c0.139,0.317,0.224,0.619,0.224,0.643C20.893,4.764,18.625,6.188,17.194,6.725z"/>
			<path fill="#D2E6F3" d="M24,20c0,5.26-6,7.428-8,7.428v-6.396l6.879-5.483C23.51,17.032,24,18.619,24,20z"/>
		</g>
		<path fill="#5C699E" d="M21.087,12.05c0.159,0.268,0.33,0.568,0.504,0.882L16,17.388v-2.558l5.334-4.251L21.087,12.05z"/>
		<path fill="#FFE28A" d="M16,11.583c-0.844,0-3-0.75-3-1.5c1.5-0.583,1.688-1.5,3-1.5V11.583z"/>
		<path fill="#FFD96C" d="M16,10.333c-1.312,0-1.927,0-3-0.25c0,0.75,2.156,1.5,3,1.5V10.333z"/>
		<path fill="#FFD96C" d="M16,8.583c1.312,0,1.583,0.958,3,1.5c0,0.75-2.156,1.5-3,1.5V8.583z"/>
		<path fill="#FFD04D" d="M16,10.333c1.312,0,1.927,0,3-0.25c0,0.75-2.156,1.5-3,1.5V10.333z"/>
		<path fill="#F7F7F7" d="M17.139,6.621c0-1.089,1.017-2.246,2.392-2.246c1.501,0,1.969,2.25,0.188,2.906
			C18.148,7.86,17.139,7.099,17.139,6.621z"/>
		<path fill="#2B3332" d="M19.562,5.891c0,0.406-0.175,0.734-0.391,0.734s-0.391-0.329-0.391-0.734s0.175-0.734,0.391-0.734
			S19.562,5.485,19.562,5.891z"/>
		<path fill="#5C699E" d="M17.139,6.621c0-1.089,1.007-2.267,2.382-2.267c0.544,0,0.983,0.289,1.188,0.688
			C19.065,5.817,18.125,6.281,17.139,6.621z"/>
		<path fill="#FFFFFF" d="M14.837,6.621c0-1.089-1.017-2.246-2.392-2.246c-1.501,0-1.969,2.25-0.188,2.906
			C13.828,7.86,14.837,7.099,14.837,6.621z"/>
		<ellipse fill="#373F3F" cx="12.804" cy="5.891" rx="0.391" ry="0.734"/>
		<path fill="#6673AA" d="M14.837,6.621c0-1.089-0.92-2.183-2.316-2.287c-0.543-0.04-0.979,0.312-1.25,0.688
			C12.914,5.796,13.851,6.281,14.837,6.621z"/>
	</g>
</g>
</svg>
