<?xml version="1.0" encoding="utf-8"?>
<!-- Generator: Adobe Illustrator 23.0.6, SVG Export Plug-In . SVG Version: 6.00 Build 0)  -->
<svg version="1.1" xmlns="http://www.w3.org/2000/svg" xmlns:xlink="http://www.w3.org/1999/xlink" x="0px" y="0px" width="32px"
	 height="32px" viewBox="0 0 32 32" enable-background="new 0 0 32 32" xml:space="preserve">
<g id="labels">
	<g>
	</g>
</g>
<g id="icons">
	<g>
		<path fill="#D1D4D4" d="M25.923,20.087c-1.447-1.341-4.414-2.853-6.289-3.054c-0.001-0.054-0.008-0.11-0.008-0.164
			C18.815,16.741,16,16.784,16,16.784v14.214c0.316,0,0.644,0.593,0.927,0.92C16.973,31.972,17.033,32,17.104,32
			c1.086-0.006,5.988-0.624,7.441-1.483c0.092-0.054,0.13-0.161,0.105-0.266c-0.223-0.958-0.964-3.332-2.779-5.634
			c-0.649-0.823-1.394-2.582-1.842-4.53c1.062,0.385,2.635,1.159,3.021,2.037c1.178,2.677,3.983,4.057,4.961,2.963
			C28.989,23.993,27.607,21.647,25.923,20.087z"/>
		<path fill="#DADDDC" d="M12.374,16.87c0,0.054-0.007,0.11-0.008,0.164c-1.876,0.201-4.842,1.713-6.289,3.054
			c-1.684,1.56-3.065,3.906-2.087,5c0.978,1.094,3.784-0.286,4.961-2.963c0.386-0.878,1.958-1.652,3.021-2.037
			c-0.448,1.948-1.193,3.707-1.842,4.53c-1.816,2.302-2.557,4.676-2.779,5.634c-0.024,0.104,0.013,0.211,0.105,0.266
			c1.452,0.859,6.355,1.477,7.441,1.483c0.071,0,0.131-0.028,0.177-0.081c0.283-0.328,0.611-0.92,0.927-0.92V16.784
			C16,16.784,13.185,16.741,12.374,16.87z"/>
	</g>
	<path fill="#D1D4D4" d="M16,26.5c-1.938,0-4.188-0.438-5.871-1.883c-1.816,2.302-2.557,4.676-2.779,5.634
		c-0.024,0.104,0.013,0.211,0.105,0.266c1.452,0.859,6.355,1.477,7.441,1.483c0.071,0,0.131-0.028,0.177-0.081
		c0.283-0.328,0.611-0.92,0.927-0.92V26.5z"/>
	<path fill="#C8CCCB" d="M16,26.5c1.938,0,4.188-0.438,5.871-1.883c1.816,2.302,2.557,4.676,2.779,5.634
		c0.024,0.104-0.013,0.211-0.105,0.266c-1.452,0.859-6.355,1.477-7.441,1.483c-0.071,0-0.131-0.028-0.177-0.081
		c-0.283-0.328-0.611-0.92-0.927-0.92V26.5z"/>
	<path fill="#E3E5E5" d="M16.005,5C16.003,5,16.002,5,16,5c-3.866,0-7,2.134-7,6c0,3.866,3.134,7,7,7c0.002,0,0.003,0,0.005,0V5z"/>
	<path fill="#DADDDC" d="M16.005,5v13C19.868,17.997,23,14.864,23,11C23,7.136,19.868,5.002,16.005,5z"/>
	<path fill="#F3586F" d="M16,3.982c-0.828,0-1.5-0.895-1.5-2s0.672-2,1.5-2V3.982z"/>
	<path fill="#E85160" d="M16,3.982c0.828,0,1.5-0.895,1.5-2s-0.672-2-1.5-2V3.982z"/>
	<g>
		<circle fill="#FFFFFF" cx="12.5" cy="11.5" r="2.5"/>
		<path fill="#FF5F7E" d="M13,10c1.019,0,1.861,0.775,1.985,1.76c-0.119,1.178-1.047,2.106-2.225,2.225
			C11.775,13.861,11,13.019,11,12C11,10.895,11.895,10,13,10z"/>
		<circle fill="#373F3F" cx="13.25" cy="11.75" r="0.75"/>
		<circle fill="#FFFFFF" cx="13" cy="11.5" r="0.25"/>
	</g>
	<path fill="#54B668" d="M8,10c0,1.675,0.527,2.718,1.419,3.369c1.378-1.991,3.636-3.315,6.211-3.433l0.224-0.896
		C15.873,8.965,15.937,8.927,16,8.927V2C11.582,2,8,5.582,8,10z"/>
	<path fill="#60C46F" d="M9.419,13.369c1.378-1.991,3.636-3.315,6.211-3.433l0.224-0.896C15.873,8.965,15.937,8.927,16,8.927V2
		C10.094,4.469,9.437,10.906,9.419,13.369z"/>
	<path fill="#FF5F7E" d="M16,15.969c-0.276,0-0.5-0.336-0.5-0.75s0.224-0.75,0.5-0.75V15.969z"/>
	<path fill="#F3586F" d="M16,15.969c0.276,0,0.5-0.336,0.5-0.75s-0.224-0.75-0.5-0.75V15.969z"/>
	<g>
		<circle fill="#F7F7F7" cx="19.5" cy="11.5" r="2.5"/>
		<path fill="#F3586F" d="M19,10c-1.019,0-1.861,0.775-1.985,1.76c0.119,1.178,1.047,2.106,2.225,2.225
			C20.225,13.861,21,13.019,21,12C21,10.895,20.105,10,19,10z"/>
		<circle fill="#2B3332" cx="18.75" cy="11.75" r="0.75"/>
		<circle fill="#F7F7F7" cx="19" cy="11.5" r="0.25"/>
	</g>
	<path fill="#4EAC5D" d="M24,10c0,1.675-0.527,2.718-1.419,3.369c-1.378-1.991-3.636-3.315-6.211-3.433L16.146,9.04
		C16.127,8.965,16.063,8.927,16,8.927V2C20.418,2,24,5.582,24,10z"/>
	<path fill="#54B668" d="M22.581,13.369c-1.378-1.991-3.636-3.315-6.211-3.433L16.146,9.04C16.127,8.965,16.063,8.927,16,8.927V2
		C21.906,4.469,22.562,10.906,22.581,13.369z"/>
</g>
</svg>
