<?xml version="1.0" encoding="utf-8"?>
<!-- Generator: Adobe Illustrator 23.0.6, SVG Export Plug-In . SVG Version: 6.00 Build 0)  -->
<svg version="1.1" xmlns="http://www.w3.org/2000/svg" xmlns:xlink="http://www.w3.org/1999/xlink" x="0px" y="0px" width="32px"
	 height="32px" viewBox="0 0 32 32" enable-background="new 0 0 32 32" xml:space="preserve">
<g id="labels">
	<g>
	</g>
</g>
<g id="icons">
	<g>
		<path fill="#E3E5E5" d="M14,12.042c-0.208,0.667-2.25,3.125-4.042,3.75c-1.792,0.625-2.333-0.042-3.417,0.167
			s-1.833,0.958-1.833,1.5c0,0.542,0.625,1.417,2.375,0.958c1.75-0.458,1.833-1.083,3.083-1.5c1.25-0.417,3.542-1.958,3.75-2.333
			C14.125,14.208,14,12.042,14,12.042z"/>
		<path fill="#DADDDC" d="M17.996,12.042c0.208,0.667,2.25,3.125,4.042,3.75c1.792,0.625,2.333-0.042,3.417,0.167
			c1.083,0.208,1.833,0.958,1.833,1.5c0,0.542-0.625,1.417-2.375,0.958c-1.75-0.458-1.833-1.083-3.083-1.5
			c-1.25-0.417-3.542-1.958-3.75-2.333C17.871,14.208,17.996,12.042,17.996,12.042z"/>
		<ellipse fill="#71B1E1" cx="16" cy="19.781" rx="3" ry="2"/>
		<path fill="#7FB8E0" d="M13.516,18.812c0.125,1.938,0.5,6.125,0.562,6.938s-0.188,1.438-0.25,3c-0.058,1.458,0.496,3.25,1,3.25
			c0.625,0,0.875-2.312,0.875-3.438s-0.25-1.75-0.375-2.875s-0.188-7-0.188-7L13.516,18.812z"/>
		<path fill="#71B1E1" d="M18.484,18.812c-0.125,1.938-0.5,6.125-0.562,6.938s0.188,1.438,0.25,3c0.058,1.458-0.496,3.25-1,3.25
			c-0.625,0-0.875-2.312-0.875-3.438s0.25-1.75,0.375-2.875s0.188-7,0.188-7L18.484,18.812z"/>
		<path fill="#7FB8E0" d="M16,21.781c-1.657,0-3-0.895-3-2s1.343-2,3-2V21.781z"/>
		<path fill="#E3E5E5" d="M25.011,20.042c-0.614-0.259-1.99-0.891-4.011-2.104c-0.594-0.356-1.066-0.802-1.448-1.294
			c-0.841,0.812-2.238,1.53-3.552,1.501c-1.314,0.029-2.712-0.689-3.552-1.501c-0.382,0.492-0.854,0.938-1.448,1.294
			c-2.021,1.213-3.397,1.845-4.011,2.104c-0.169,0.072-0.198,0.292-0.06,0.414l4.299,3.796c0.112,0.099,0.284,0.079,0.37-0.044
			C12.321,23.175,15.288,19,16,19s3.679,4.175,4.403,5.208c0.086,0.122,0.258,0.142,0.37,0.044l4.299-3.796
			C25.209,20.334,25.181,20.113,25.011,20.042z"/>
		<path fill="#EDEEEE" d="M24.792,22.208l-1.612,1.612c-0.099,0.099-0.259,0.097-0.356-0.003l-5.651-5.82
			c0.556-0.155,1.086-0.409,1.554-0.713c1.546,1.222,4.863,3.699,6.039,4.549C24.891,21.923,24.9,22.1,24.792,22.208z"/>
		<path fill="#E3E5E5" d="M18,11h-2h-2c0,0.901-0.013,3.66-1.552,5.643c0.841,0.812,2.238,1.53,3.552,1.501
			c1.314,0.029,2.712-0.689,3.552-1.501C18.013,14.66,18,11.901,18,11z"/>
		<path fill="#EDEEEE" d="M16,18.144V11h-2c0,0.901-0.013,3.66-1.552,5.643C13.288,17.455,14.686,18.173,16,18.144z"/>
		<path fill="#EDEEEE" d="M12.448,16.643c-0.382,0.492-0.854,0.938-1.448,1.294c-2.021,1.213-3.397,1.845-4.011,2.104
			c-0.169,0.072-0.198,0.292-0.06,0.414l4.299,3.796c0.112,0.099,0.284,0.079,0.37-0.044C12.321,23.175,15.288,19,16,19v-0.856
			C14.686,18.173,13.288,17.455,12.448,16.643z"/>
		<path fill="#F7F7F7" d="M7.234,21.833c1.176-0.849,4.493-3.327,6.039-4.549c0.469,0.304,0.998,0.559,1.554,0.713l-5.651,5.82
			c-0.097,0.1-0.257,0.101-0.356,0.003l-1.612-1.612C7.1,22.1,7.109,21.923,7.234,21.833z"/>
		<ellipse fill="#EDEEEE" cx="16" cy="7.438" rx="6.5" ry="5"/>
		<path fill="#F7F7F7" d="M16,2.438c-3.59,0-6.5,2.239-6.5,5s2.91,5,6.5,5V2.438z"/>
		<circle fill="#F7F7F7" cx="19" cy="8.53" r="2"/>
		<circle fill="#F79654" cx="18.75" cy="8.78" r="1.25"/>
		<ellipse fill="#2B3332" cx="18.5" cy="8.78" rx="0.5" ry="0.75"/>
		<circle fill="#FFFFFF" cx="13" cy="8.53" r="2"/>
		<circle fill="#FCA15E" cx="13.25" cy="8.78" r="1.25"/>
		<ellipse fill="#373F3F" cx="13.5" cy="8.78" rx="0.5" ry="0.75"/>
		<g>
			<path fill="#F79654" d="M14.028,3.453c0.143-0.046,0.228-0.201,0.161-0.334c-0.836-1.658-4.151-3.451-4.745-2.975
				c-0.575,0.46,0.56,3.935,1.264,5.074c0.083,0.135,0.262,0.158,0.38,0.052C11.747,4.678,12.818,3.84,14.028,3.453z"/>
			<path fill="#EF8C48" d="M17.972,3.453c-0.143-0.046-0.228-0.201-0.161-0.334c0.836-1.658,4.151-3.451,4.745-2.975
				c0.575,0.46-0.56,3.935-1.264,5.074c-0.083,0.135-0.262,0.158-0.38,0.052C20.253,4.678,19.182,3.84,17.972,3.453z"/>
			<path fill="#7FB8E0" d="M13.5,2.833C7.153,5.071,2.753,10.645,2.853,13.855c0.004,0.131,0.116,0.232,0.247,0.237l4.063-0.565
				L9.5,7.438l1.375-1.062L13.5,2.833z"/>
			<path fill="#71B1E1" d="M18.503,2.833c6.347,2.238,10.747,7.812,10.647,11.022c-0.004,0.131-0.116,0.232-0.247,0.237
				l-4.114-0.746l-2.287-5.909l-1.375-1.062L18.503,2.833z"/>
			<path fill="#8EC0E0" d="M11.246,4.035c-3.665,2.558-5.411,6.171-5.996,9.812c-0.024,0.148,0.089,0.284,0.239,0.292l4.938,0.159
				c0.145,0.008,0.265-0.104,0.263-0.249c-0.018-1.056-0.934-4.742-0.125-6.649c0.014-0.034,0.042-0.183,0.245-0.212
				c1.062-0.017,2.168,0.35,2.753,0.937c1.02,1.024,0.938,1.375,1.625,3.5c0.089,0.274,0.515,0.812,0.813,0.812v-10
				C14.121,2.438,12.433,3.055,11.246,4.035z"/>
			<path fill="#7FB8E0" d="M20.716,4c-0.001,0-0.001,0.001-0.001,0.002C19.53,3.04,17.858,2.438,16,2.438v10
				c0.297,0,0.724-0.538,0.812-0.812c0.688-2.125,0.605-2.476,1.625-3.5c0.586-0.589,1.696-0.956,2.76-0.937
				c0.203,0.029,0.23,0.178,0.245,0.212c0.808,1.908-0.107,5.594-0.125,6.649c-0.003,0.145,0.118,0.257,0.263,0.249l4.938-0.159
				c0.15-0.008,0.262-0.144,0.239-0.292C26.17,10.191,24.414,6.56,20.716,4z"/>
		</g>
	</g>
</g>
</svg>
