<?xml version="1.0" encoding="utf-8"?>
<!-- Generator: Adobe Illustrator 23.0.6, SVG Export Plug-In . SVG Version: 6.00 Build 0)  -->
<svg version="1.1" xmlns="http://www.w3.org/2000/svg" xmlns:xlink="http://www.w3.org/1999/xlink" x="0px" y="0px" width="32px"
	 height="32px" viewBox="0 0 32 32" enable-background="new 0 0 32 32" xml:space="preserve">
<g id="labels">
	<g>
	</g>
</g>
<g id="icons">
	<g>
		<path fill="#8EC0E0" d="M8.881,14.762c-5.94,0-7.627,9.509-3.499,14.752c0.09,0.114,0.267,0.015,0.216-0.121
			c-1.76-4.739-2.028-12.456,3.283-12.456V14.762z"/>
		<path fill="#7FB8E0" d="M23.119,14.762c5.94,0,7.627,9.509,3.499,14.752c-0.09,0.114-0.267,0.015-0.216-0.121
			c1.76-4.739,2.028-12.456-3.283-12.456V14.762z"/>
		<path fill="#9FC9E4" d="M9.125,17.625c-5.277,0.53-8.63,8.289-9.045,14.24c-0.01,0.146,0.196,0.189,0.244,0.05
			c0.982-2.885,3.801-11.54,9.775-12.374L9.125,17.625z"/>
		<path fill="#B0D3EA" d="M16,8.631c-4.103,0-8,2.952-8,7.429c0,3.333,3.897,5.143,8,5.143V8.631z"/>
		<path fill="#9FC9E4" d="M16,19.417c-1.771,0-3.646-0.34-5.042-1.25c-1.396-0.91-2.313-2.39-2.668-4.154
			C8.102,14.651,8,15.335,8,16.06c0,3.333,3.897,5.143,8,5.143V19.417z"/>
		<path fill="#FFEAA7" d="M14.224,8.822c-1.897,0.399-3.624,1.421-4.775,2.92C11.167,13,13.083,13.583,16,13.583V0.042
			C15.379,0.042,14.36,7.057,14.224,8.822z"/>
		<path fill="#FEF1C6" d="M16,8.631c-1.667,0.286-3.375,2.869-3.512,4.562c1.007,0.264,2.151,0.391,3.512,0.391V8.631z"/>
		<path fill="#8EC0E0" d="M22.875,17.625c5.277,0.53,8.63,8.289,9.045,14.24c0.01,0.146-0.196,0.189-0.244,0.05
			c-0.982-2.885-3.801-11.54-9.775-12.374L22.875,17.625z"/>
		<path fill="#9FC9E4" d="M16,8.631c4.103,0,8,2.952,8,7.429c0,3.333-3.897,5.143-8,5.143V8.631z"/>
		<path fill="#8EC0E0" d="M16,19.417c1.771,0,3.646-0.34,5.042-1.25c1.396-0.91,2.313-2.39,2.668-4.154
			C23.898,14.651,24,15.335,24,16.06c0,3.333-3.897,5.143-8,5.143V19.417z"/>
		<path fill="#FFE28A" d="M17.776,8.822C17.64,7.057,16.621,0.042,16,0.042v13.542c2.917,0,4.833-0.583,6.551-1.841
			C21.4,10.243,19.673,9.221,17.776,8.822z"/>
		<path fill="#FFEAA7" d="M16,8.631c1.667,0.286,3.375,2.869,3.512,4.562c-1.007,0.264-2.151,0.391-3.512,0.391V8.631z"/>
		<circle fill="#373F3F" cx="12.5" cy="15" r="1"/>
		<circle fill="#2B3332" cx="19.5" cy="15" r="1"/>
		<circle fill="#FFFFFF" cx="12.5" cy="14.5" r="0.5"/>
		<circle fill="#F7F7F7" cx="19.5" cy="14.5" r="0.5"/>
		<path fill="#E7685F" d="M12.5,16.5c-0.443,0-0.836-0.195-1.111-0.5C11.15,16.266,11,16.614,11,17c0,0.828,0.672,1.5,1.5,1.5
			S14,17.828,14,17c0-0.386-0.15-0.734-0.389-1C13.336,16.305,12.943,16.5,12.5,16.5z"/>
		<path fill="#E55D53" d="M19.5,16.5c-0.443,0-0.836-0.195-1.111-0.5C18.15,16.266,18,16.614,18,17c0,0.828,0.672,1.5,1.5,1.5
			S21,17.828,21,17c0-0.386-0.15-0.734-0.389-1C20.336,16.305,19.943,16.5,19.5,16.5z"/>
	</g>
</g>
</svg>
