<?xml version="1.0" encoding="utf-8"?>
<!-- Generator: Adobe Illustrator 23.0.6, SVG Export Plug-In . SVG Version: 6.00 Build 0)  -->
<svg version="1.1" xmlns="http://www.w3.org/2000/svg" xmlns:xlink="http://www.w3.org/1999/xlink" x="0px" y="0px" width="32px"
	 height="32px" viewBox="0 0 32 32" enable-background="new 0 0 32 32" xml:space="preserve">
<g id="labels">
	<g>
	</g>
</g>
<g id="icons">
	<g>
		<path fill="#C1DDEE" d="M1.644,21.612l6.013-1.172c0.032-0.006,0.064-0.001,0.092,0.015l5.625,3.229
			c0.049,0.028,0.075,0.085,0.065,0.141L13.4,24.036c-0.01,0.056-0.055,0.099-0.111,0.108l-6.41,0.989
			c-0.032,0.005-0.064-0.002-0.092-0.019l-5.189-3.257C1.496,21.792,1.525,21.635,1.644,21.612z"/>
		<path fill="#B0D3EA" d="M30.401,21.857l-5.189,3.257c-0.027,0.017-0.06,0.024-0.092,0.019l-6.41-0.989
			c-0.056-0.009-0.101-0.052-0.111-0.108l-0.039-0.211c-0.01-0.056,0.016-0.112,0.065-0.141l5.625-3.229
			c0.028-0.016,0.061-0.021,0.092-0.015l6.013,1.172C30.475,21.635,30.504,21.792,30.401,21.857z"/>
		<path fill="#D2E6F3" d="M13.875,19.464c-0.728,1.128-1.932,2.831-2.122,4.495l-5.43-0.67c-0.03-0.004-0.06,0.003-0.086,0.018
			L1.065,26.43c-0.107,0.064-0.075,0.227,0.048,0.247l5.965,0.962c0.03,0.005,0.06,0,0.086-0.015l4.62-2.559
			c0.332,1.95,2.085,3.079,4.216,3.079v-8.571C15.429,19.571,14.177,18.996,13.875,19.464z"/>
		<path fill="#C1DDEE" d="M30.935,26.43l-5.173-3.122c-0.026-0.016-0.056-0.022-0.086-0.018l-5.43,0.67
			c-0.19-1.664-1.394-3.367-2.122-4.495c-0.302-0.468-1.554,0.108-2.125,0.108v8.571c2.131,0,3.885-1.128,4.216-3.079l4.62,2.559
			c0.026,0.015,0.057,0.02,0.086,0.015l5.965-0.962C31.01,26.657,31.042,26.494,30.935,26.43z"/>
		<path fill="#E2EFF7" d="M16,4.857c-0.433,0-0.5,0.353-0.5,1c0,1.029-0.625,3.187-0.875,3.812C13.929,11.411,11,12.17,11,15.357
			c0,2.761,2.239,4.5,5,4.5V4.857z"/>
		<path fill="#FFA68E" d="M12.226,12.985L0.101,3.87C0.046,3.829-0.025,3.892,0.009,3.951l1.268,2.223c0,0-1.714,4.996,1.519,7.452
			c3.165,2.404,6.923,1.006,8.312-0.188l0.998,0.142c0.034,0.005,0.065-0.019,0.071-0.053l0.073-0.483
			C12.254,13.022,12.245,12.999,12.226,12.985z"/>
		<path fill="#FFFFFF" d="M3.905,6.73C3.761,6.855,3.621,6.987,3.5,7.141c-1.133,1.436-0.777,3.606,0.795,4.845
			c1.572,1.24,3.764,1.081,4.897-0.355c0.158-0.2,0.28-0.417,0.381-0.641L3.905,6.73z"/>
		<path fill="#D84459" d="M5.212,7.712C5.035,7.818,4.871,7.948,4.737,8.118c-0.64,0.812-0.439,2.038,0.449,2.738
			s2.128,0.611,2.768-0.201c0.154-0.195,0.256-0.415,0.315-0.645L5.212,7.712z"/>
		<path fill="#D2E6F3" d="M16,4.857c0.433,0,0.5,0.353,0.5,1c0,1.029,0.625,3.187,0.875,3.812C18.071,11.411,21,12.17,21,15.357
			c0,2.761-2.239,4.5-5,4.5V4.857z"/>
		<path fill="#FF9A7E" d="M19.774,12.985L31.899,3.87c0.054-0.041,0.125,0.022,0.092,0.081l-1.268,2.223
			c0,0,1.714,4.996-1.519,7.452c-3.165,2.404-6.923,1.006-8.312-0.188l-0.998,0.142c-0.034,0.005-0.065-0.019-0.071-0.053
			l-0.073-0.483C19.746,13.022,19.755,12.999,19.774,12.985z"/>
		<path fill="#F7F7F7" d="M28.095,6.73c0.144,0.125,0.284,0.257,0.405,0.412c1.133,1.436,0.777,3.606-0.795,4.845
			c-1.572,1.24-3.764,1.081-4.897-0.355c-0.158-0.2-0.28-0.417-0.381-0.641L28.095,6.73z"/>
		<path fill="#C84054" d="M26.788,7.712c0.177,0.106,0.341,0.236,0.475,0.406c0.64,0.812,0.439,2.038-0.449,2.738
			s-2.128,0.611-2.768-0.201c-0.154-0.195-0.256-0.415-0.315-0.645L26.788,7.712z"/>
		<path fill="#FF9A7E" d="M19.035,13.869C18.09,13.057,17.75,14.357,16,14.357s-2.09-1.3-3.035-0.488
			c-0.973,0.836,0.41,4.988,3.035,4.988S20.008,14.705,19.035,13.869z"/>
		<path fill="#FF8D6E" d="M16,17.315c1.083,0,1.833-0.083,2.941-0.8c-0.534,1.204-1.567,2.342-2.941,2.342V17.315z"/>
		<path fill="#FFA68E" d="M16,14.357c-1.75,0-2.09-1.3-3.035-0.488c-0.973,0.836,0.41,4.988,3.035,4.988V14.357z"/>
		<path fill="#FF9A7E" d="M16,17.315c-1.083,0-1.833-0.083-2.941-0.8c0.534,1.204,1.567,2.342,2.941,2.342V17.315z"/>
		<circle fill="#373F3F" cx="13.5" cy="14.5" r="1"/>
		<circle fill="#FFFFFF" cx="13.5" cy="14.5" r="0.5"/>
		<circle fill="#2B3332" cx="18.5" cy="14.5" r="1"/>
		<circle fill="#F7F7F7" cx="18.5" cy="14.5" r="0.5"/>
	</g>
</g>
</svg>
