<?xml version="1.0" encoding="utf-8"?>
<!-- Generator: Adobe Illustrator 23.0.6, SVG Export Plug-In . SVG Version: 6.00 Build 0)  -->
<svg version="1.1" xmlns="http://www.w3.org/2000/svg" xmlns:xlink="http://www.w3.org/1999/xlink" x="0px" y="0px" width="32px"
	 height="32px" viewBox="0 0 32 32" enable-background="new 0 0 32 32" xml:space="preserve">
<g id="labels">
	<g>
	</g>
</g>
<g id="icons">
	<g>
		<path fill="#E2A1C8" d="M16,27.717L16,27.717c-2.209,0-7.512,0.553-6.375-1.342c0.875-1.458,0.833-3.708,1.417-9.25
			c0.148-1.409,3.167-6.508,4.958-6.508h0V27.717z"/>
		<path fill="#E2A1C8" d="M12,23.5c-1.417,0.792-4.042,5.042-4,7.042c0.042,2,2.5,1.708,3.083,0.542
			c0.683-1.367,2.875-3.367,4.917-3.367v-4.758L12,23.5z"/>
		<path fill="#E2A1C8" d="M14.625,13.5c-2.917,0-8.769,3.877-11.125,9.417c-1.542,3.625,1.583,3.667,3.25,1.417
			s4.333-6.083,6.125-6.208S14.625,13.5,14.625,13.5z"/>
		<g>
			<path fill="#EDEEEE" d="M8.318,31.3c0.05-0.422,0.127-0.93-0.188-1.138c-0.315-0.208-1.537,0.898-1.464,1.123
				C6.738,31.509,7.82,31.402,8.318,31.3z"/>
			<path fill="#EDEEEE" d="M9.088,31.883c0.05-0.422,0.127-0.93-0.188-1.138c-0.315-0.208-1.537,0.898-1.464,1.123
				C7.508,32.092,8.589,31.985,9.088,31.883z"/>
		</g>
		<g>
			<path fill="#EDEEEE" d="M3.847,25.36c-0.118-0.408-0.246-0.906-0.616-0.975s-1.066,1.426-0.912,1.604
				C2.473,26.167,3.427,25.648,3.847,25.36z"/>
			<path fill="#EDEEEE" d="M4.782,25.597c-0.118-0.408-0.246-0.906-0.616-0.975c-0.371-0.069-1.066,1.426-0.912,1.604
				C3.408,26.405,4.363,25.885,4.782,25.597z"/>
		</g>
		<path fill="#EAC3DE" d="M16,15.05c-3.314,0-6-2.197-6-5.525C10,6.625,12.686,3,16,3V15.05z"/>
		<path fill="#EAB5D7" d="M16,15.05c-2.589,0-4.795-1.341-5.636-3.515c2.448,2.527,3.178,1.434,5.636,1.434V15.05z"/>
		<g>
			<path fill="#EAC3DE" d="M13.775,1.931l0.549,1.647l1.414-1.414l-1.647-0.549C13.896,1.549,13.71,1.735,13.775,1.931z"/>
			<path fill="#EAB5D7" d="M18.225,1.931l-0.549,1.647l-1.414-1.414l1.647-0.549C18.104,1.549,18.29,1.735,18.225,1.931z"/>
		</g>
		<ellipse fill="#988371" cx="13.094" cy="9.188" rx="2" ry="2.25"/>
		<ellipse fill="#FFFFFF" cx="13.094" cy="9.188" rx="1.25" ry="1.406"/>
		<ellipse fill="#373F3F" cx="13.078" cy="9.047" rx="0.375" ry="0.422"/>
		<path fill="#ED8C86" d="M14.344,9.188c0-0.777-0.56-1.406-1.25-1.406c-0.518,0-0.962,0.354-1.152,0.859L14.344,9.188z"/>
		<path fill="#DB92BB" d="M16,27.717L16,27.717c2.209,0,7.512,0.553,6.375-1.342c-0.875-1.458-0.833-3.708-1.417-9.25
			c-0.148-1.409-3.167-6.508-4.958-6.508h0V27.717z"/>
		<path fill="#DB92BB" d="M20,23.5c1.417,0.792,4.042,5.042,4,7.042s-2.5,1.708-3.083,0.542c-0.683-1.367-2.875-3.367-4.917-3.367
			v-4.758L20,23.5z"/>
		<path fill="#DB92BB" d="M17.375,13.5c2.917,0,8.769,3.877,11.125,9.417c1.542,3.625-1.583,3.667-3.25,1.417
			s-4.333-6.083-6.125-6.208S17.375,13.5,17.375,13.5z"/>
		<g>
			<g>
				<path fill="#E3E5E5" d="M23.682,31.3c-0.05-0.422-0.127-0.93,0.188-1.138c0.315-0.208,1.537,0.898,1.464,1.123
					C25.262,31.509,24.18,31.402,23.682,31.3z"/>
				<path fill="#E3E5E5" d="M22.912,31.883c-0.05-0.422-0.127-0.93,0.188-1.138c0.315-0.208,1.537,0.898,1.464,1.123
					C24.492,32.092,23.411,31.985,22.912,31.883z"/>
			</g>
			<g>
				<path fill="#DADDDC" d="M23.682,31.3c-0.05-0.422-0.127-0.93,0.188-1.138c0.315-0.208,1.537,0.898,1.464,1.123
					C25.262,31.509,24.18,31.402,23.682,31.3z"/>
				<path fill="#DADDDC" d="M22.912,31.883c-0.05-0.422-0.127-0.93,0.188-1.138c0.315-0.208,1.537,0.898,1.464,1.123
					C24.492,32.092,23.411,31.985,22.912,31.883z"/>
			</g>
		</g>
		<g>
			<g>
				<path fill="#E3E5E5" d="M28.153,25.36c0.118-0.408,0.246-0.906,0.616-0.975c0.371-0.069,1.066,1.426,0.912,1.604
					C29.527,26.167,28.573,25.648,28.153,25.36z"/>
				<path fill="#E3E5E5" d="M27.218,25.597c0.118-0.408,0.246-0.906,0.616-0.975c0.371-0.069,1.066,1.426,0.912,1.604
					C28.592,26.405,27.637,25.885,27.218,25.597z"/>
			</g>
			<g>
				<path fill="#DADDDC" d="M28.153,25.36c0.118-0.408,0.246-0.906,0.616-0.975c0.371-0.069,1.066,1.426,0.912,1.604
					C29.527,26.167,28.573,25.648,28.153,25.36z"/>
				<path fill="#DADDDC" d="M27.218,25.597c0.118-0.408,0.246-0.906,0.616-0.975c0.371-0.069,1.066,1.426,0.912,1.604
					C28.592,26.405,27.637,25.885,27.218,25.597z"/>
			</g>
		</g>
		<ellipse fill="#E9746A" cx="16" cy="21.125" rx="3.917" ry="4.875"/>
		<path fill="#EAB5D7" d="M16,15.05c3.314,0,6-2.197,6-5.525C22,6.625,19.314,3,16,3V15.05z"/>
		<path fill="#E2A1C8" d="M16,15.05c2.589,0,4.795-1.341,5.636-3.515c-2.448,2.527-3.178,1.434-5.636,1.434V15.05z"/>
		<ellipse fill="#8E7763" cx="18.906" cy="9.188" rx="2" ry="2.25"/>
		<ellipse fill="#F7F7F7" cx="18.906" cy="9.188" rx="1.25" ry="1.406"/>
		<ellipse fill="#2B3332" cx="18.922" cy="9.047" rx="0.375" ry="0.422"/>
		<path fill="#EC8179" d="M17.656,9.188c0-0.777,0.56-1.406,1.25-1.406c0.518,0,0.962,0.354,1.152,0.859L17.656,9.188z"/>
		<ellipse fill="#EC8179" cx="16" cy="11.109" rx="2" ry="1.266"/>
		<g>
			<path fill="#EAC3DE" d="M15.776,0.138L14,3.691h2V0C15.911,0,15.822,0.046,15.776,0.138z"/>
			<path fill="#EAB5D7" d="M16.224,0.138C16.178,0.046,16.089,0,16,0v3.691h2L16.224,0.138z"/>
		</g>
		<path fill="#EC8179" d="M16,26c-2.163,0-3.917-2.183-3.917-4.875S13.837,16.25,16,16.25V26z"/>
		<path fill="#ED8C86" d="M16,9.844c-1.105,0-2,0.567-2,1.266s0.895,1.266,2,1.266V9.844z"/>
	</g>
</g>
</svg>
