<?xml version="1.0" encoding="utf-8"?>
<!-- Generator: Adobe Illustrator 23.0.6, SVG Export Plug-In . SVG Version: 6.00 Build 0)  -->
<svg version="1.1" xmlns="http://www.w3.org/2000/svg" xmlns:xlink="http://www.w3.org/1999/xlink" x="0px" y="0px" width="32px"
	 height="32px" viewBox="0 0 32 32" enable-background="new 0 0 32 32" xml:space="preserve">
<g id="labels">
	<g>
	</g>
</g>
<g id="icons">
	<g>
		<path fill="#EB6B48" d="M20.625,16.062L16,17.042l-4.625-0.979c0.281,0.812,1,2.646,1.625,2.938c-0.604,0.573-1.294,1.542-1.313,3
			c-0.031,2.438,2.531,3.469,4.313,3.469s4.344-1.031,4.312-3.469c-0.019-1.458-0.708-2.427-1.312-3
			C19.625,18.708,20.344,16.875,20.625,16.062z"/>
		<g>
			<path fill="#FFE28A" d="M10.949,16.422c-3.464-0.842-5.207-2.918-5.069-3.185c0.138-0.268,1.277-1.455,0.669-3.352
				c-0.608-1.897-2.193-2.335-4-1.756c-1.807,0.579-2.413,2.436-2.535,3.901c-0.318,3.825,4.878,6.294,7.682,7.305
				c-1.104,1.499-1.726,3.179-1.726,4.69c0,2.933,1.152,5.841,4.365,5.841c1.832,0,3.976-1.366,5.665-1.366V15.006
				C14.097,15.048,12.393,15.587,10.949,16.422z"/>
			<path fill="#F57552" d="M1.88,16.063c-1.19-1.11-1.997-2.456-1.866-4.033c0.122-1.465,0.728-3.322,2.535-3.901
				s3.392-0.141,4,1.756s-0.531,3.084-0.669,3.352c-0.035,0.067,0.049,0.249,0.25,0.496C5,15.062,2.709,16.104,1.88,16.063z"/>
		</g>
		<g>
			<g>
				<path fill="#FFD96C" d="M31.986,12.03c-0.122-1.465-0.728-3.322-2.535-3.901c-1.807-0.579-3.392-0.141-4,1.756
					c-0.608,1.897,0.531,3.084,0.669,3.352c0.137,0.267-1.605,2.343-5.069,3.185c-1.443-0.836-3.148-1.374-5.051-1.417V28.5
					c1.69,0,3.833,1.366,5.665,1.366c3.212,0,4.365-2.909,4.365-5.841c0-1.511-0.622-3.191-1.726-4.69
					C27.108,18.323,32.304,15.855,31.986,12.03z"/>
				<path fill="#FFD96C" d="M25.87,13.733c0.2-0.247,0.284-0.429,0.25-0.496c-0.138-0.268-1.277-1.455-0.669-3.352
					s2.193-2.335,4-1.756c1.807,0.579,2.413,2.436,2.535,3.901c0.131,1.576-0.676,2.923-1.866,4.033
					C29.291,16.104,27,15.062,25.87,13.733z"/>
			</g>
			<g>
				<path fill="#FFD96C" d="M31.986,12.03c-0.122-1.465-0.728-3.322-2.535-3.901c-1.807-0.579-3.392-0.141-4,1.756
					c-0.608,1.897,0.531,3.084,0.669,3.352c0.137,0.267-1.605,2.343-5.069,3.185c-1.443-0.836-3.148-1.374-5.051-1.417V28.5
					c1.69,0,3.833,1.366,5.665,1.366c3.212,0,4.365-2.909,4.365-5.841c0-1.511-0.622-3.191-1.726-4.69
					C27.108,18.323,32.304,15.855,31.986,12.03z"/>
				<path fill="#EB6B48" d="M25.87,13.733c0.2-0.247,0.284-0.429,0.25-0.496c-0.138-0.268-1.277-1.455-0.669-3.352
					s2.193-2.335,4-1.756c1.807,0.579,2.413,2.436,2.535,3.901c0.131,1.576-0.676,2.923-1.866,4.033
					C29.291,16.104,27,15.062,25.87,13.733z"/>
			</g>
		</g>
		<path fill="#EB6B48" d="M20.625,16.062L16,17.042l-4.625-0.979c0.281,0.812,1,2.646,1.625,2.938c-0.604,0.573-1.294,1.542-1.313,3
			c-0.031,2.438,2.531,3.469,4.313,3.469s4.344-1.031,4.312-3.469c-0.019-1.458-0.708-2.427-1.312-3
			C19.625,18.708,20.344,16.875,20.625,16.062z"/>
		<path fill="#F57552" d="M11.375,16.062c0.281,0.812,1,2.646,1.625,2.938c-0.604,0.573-1.294,1.542-1.313,3
			c-0.031,2.438,2.531,3.469,4.313,3.469v-8.427L11.375,16.062z"/>
		<path fill="#FFE28A" d="M16,3.049c-4.95,1.768-8,4.862-8,8.53c0,4.125,3.875,6.409,8,6.409s8-2.283,8-6.409
			C24,7.911,20.95,4.817,16,3.049z"/>
		<path fill="#FFEAA7" d="M16,17.988c-4.125,0-8-2.283-8-6.409c0-3.669,3.05-6.762,8-8.53V17.988z"/>
		<path fill="#FEF1C6" d="M16,2c-1.105,0-2,0.895-2,2s0.895,2,2,2V2z"/>
		<path fill="#FEF1C6" d="M11.054,0.228c0.012-0.148,0.152-0.246,0.297-0.213C12.17,0.2,13.288,0.61,14.276,1.52
			c0.67,0.617,0.999,1.732,1.004,2.281c0.001,0.098-0.062,0.178-0.151,0.216c-0.379,0.163-1.46,0.473-2.652-0.587
			C11.327,2.407,10.983,1.118,11.054,0.228z"/>
		<path fill="#FF805D" d="M8.298,9.643c-0.143,0.46-0.232,0.934-0.271,1.418c0.529,0.202,0.978,0.739,1.118,1.45
			c0.1,0.504,0.03,1.004-0.195,1.409c-0.081,0.146-0.198,0.26-0.309,0.363c0.227,0.43,0.516,0.82,0.843,1.179
			c0.28-0.226,0.526-0.507,0.715-0.847c0.39-0.7,0.513-1.546,0.348-2.381C10.29,10.931,9.38,9.951,8.298,9.643z"/>
		<g>
			<g>
				<path fill="#373F3F" d="M14.263,12.083c-0.137,0-0.249-0.11-0.25-0.248c-0.02-2.43-1.277-2.794-1.75-2.931
					c-0.133-0.039-0.209-0.177-0.171-0.31c0.039-0.133,0.177-0.21,0.31-0.171c0.517,0.149,2.088,0.604,2.111,3.407
					c0.001,0.138-0.11,0.251-0.248,0.252C14.265,12.083,14.264,12.083,14.263,12.083z"/>
			</g>
			<g>
				<path fill="#373F3F" d="M14.263,12.083c-0.137,0-0.249-0.11-0.25-0.248c-0.02-2.43-1.277-2.794-1.75-2.931
					c-0.133-0.039-0.209-0.177-0.171-0.31c0.039-0.133,0.177-0.21,0.31-0.171c0.517,0.149,2.088,0.604,2.111,3.407
					c0.001,0.138-0.11,0.251-0.248,0.252C14.265,12.083,14.264,12.083,14.263,12.083z"/>
			</g>
		</g>
		<g>
			<g>
				<path fill="#373F3F" d="M16,14.667c-0.668,0-2.882-0.107-3.315-1.491c-0.042-0.131-0.179-0.205-0.313-0.164
					c-0.132,0.042-0.205,0.182-0.164,0.313c0.535,1.709,3.038,1.842,3.792,1.842V14.667z"/>
			</g>
			<g>
				<path fill="#373F3F" d="M16,14.667c-0.668,0-2.882-0.107-3.315-1.491c-0.042-0.131-0.179-0.205-0.313-0.164
					c-0.132,0.042-0.205,0.182-0.164,0.313c0.535,1.709,3.038,1.842,3.792,1.842V14.667z"/>
			</g>
		</g>
		<path fill="#FFE28A" d="M16,17.988c4.125,0,8-2.283,8-6.409c0-3.669-3.05-6.762-8-8.53V17.988z"/>
		<path fill="#FFEAA7" d="M16,2c1.105,0,2,0.895,2,2s-0.895,2-2,2V2z"/>
		<path fill="#FFEAA7" d="M20.946,0.228c-0.012-0.148-0.152-0.246-0.297-0.213C19.83,0.2,18.712,0.61,17.724,1.52
			c-0.67,0.617-0.999,1.732-1.004,2.281c-0.001,0.098,0.062,0.178,0.151,0.216c0.379,0.163,1.46,0.473,2.652-0.587
			C20.673,2.407,21.017,1.118,20.946,0.228z"/>
		<path fill="#F57552" d="M23.702,9.643c0.143,0.46,0.232,0.934,0.271,1.418c-0.529,0.202-0.978,0.739-1.118,1.45
			c-0.1,0.504-0.03,1.004,0.195,1.409c0.081,0.146,0.198,0.26,0.309,0.363c-0.227,0.43-0.516,0.82-0.843,1.179
			c-0.28-0.226-0.526-0.507-0.715-0.847c-0.39-0.7-0.513-1.546-0.348-2.381C21.71,10.931,22.62,9.951,23.702,9.643z"/>
		<g>
			<path fill="#2B3332" d="M17.735,12.083c-0.138-0.001-0.249-0.114-0.248-0.252c0.023-2.803,1.595-3.258,2.111-3.407
				c0.132-0.039,0.271,0.038,0.31,0.171c0.038,0.132-0.038,0.271-0.171,0.31c-0.473,0.137-1.73,0.5-1.75,2.931
				c-0.001,0.138-0.113,0.248-0.25,0.248C17.736,12.083,17.735,12.083,17.735,12.083z"/>
		</g>
		<path fill="#2B3332" d="M16,14.667c0.668,0,2.882-0.107,3.315-1.491c0.042-0.131,0.179-0.205,0.313-0.164
			c0.132,0.042,0.205,0.182,0.164,0.313c-0.535,1.709-3.038,1.842-3.792,1.842V14.667z"/>
		<path fill="#FFD96C" d="M3.929,30.443c0,1.896,3,1.528,4.062,1.528c1.205,0,2.079-0.67,2.079-1.764
			c0-1.172-0.567-1.813-1.875-2.031C7.071,27.989,3.929,28.756,3.929,30.443z"/>
		<path fill="#FFD04D" d="M28.071,30.443c0,1.896-3,1.528-4.062,1.528c-1.205,0-2.079-0.67-2.079-1.764
			c0-1.172,0.567-1.813,1.875-2.031C24.929,27.989,28.071,28.756,28.071,30.443z"/>
	</g>
</g>
</svg>
