<?xml version="1.0" encoding="utf-8"?>
<!-- Generator: Adobe Illustrator 23.0.6, SVG Export Plug-In . SVG Version: 6.00 Build 0)  -->
<svg version="1.1" xmlns="http://www.w3.org/2000/svg" xmlns:xlink="http://www.w3.org/1999/xlink" x="0px" y="0px" width="32px"
	 height="32px" viewBox="0 0 32 32" enable-background="new 0 0 32 32" xml:space="preserve">
<g id="labels">
	<g>
	</g>
</g>
<g id="icons">
	<path fill="#FFD04D" d="M23.961,25.62c-1.099,0-2.163-0.091-3.015-0.165c-0.509-0.043-0.925-0.08-1.198-0.08v-0.75
		c0.288,0,0.727,0.037,1.263,0.083c2.023,0.173,5.798,0.498,7.43-0.958c0.521-0.465,0.785-1.072,0.808-1.855
		c0.059-2.044-1.217-7.296-1.794-9.06l0.713-0.233c0.56,1.712,1.895,7.096,1.831,9.315c-0.028,0.986-0.385,1.792-1.059,2.393
		C27.763,25.359,25.814,25.62,23.961,25.62z"/>
	<path fill="#D285D2" d="M16,6.615v7.042c-2.156,0-7.625-2.865-7.625-8.656C12.167,5.25,16,6.615,16,6.615z"/>
	<path fill="#373F3F" d="M16,6.311v6.212C13.51,11.901,9.312,10.074,9.312,5C11.965,5.175,14.633,5.894,16,6.311z"/>
	<path fill="#C27BC6" d="M16,6.615v7.042c2.156,0,7.625-2.865,7.625-8.656C19.833,5.25,16,6.615,16,6.615z"/>
	<path fill="#2B3332" d="M22.688,5c0,5.074-4.198,6.901-6.688,7.524V6.311C17.367,5.894,20.035,5.175,22.688,5z"/>
	<path fill="#FFD96C" d="M20.933,28.067c0.148-0.332,0.31-0.707,0.503-1.147c1.676-3.83-1.935-6.67-1.935-10.778H16h-3.5
		c0,4.107-3.611,6.948-1.935,10.778c0.192,0.44,0.355,0.815,0.503,1.147c-0.622,0.183-1.079,0.751-1.079,1.433
		c0,0.828,0.672,1.5,1.5,1.5c0.608,0,1.13-0.364,1.365-0.884c0.626,0.082,1.557-0.055,3.147-0.152
		c1.59,0.098,2.521,0.234,3.147,0.152C19.382,30.636,19.904,31,20.512,31c0.828,0,1.5-0.672,1.5-1.5
		C22.012,28.819,21.555,28.25,20.933,28.067z"/>
	<path fill="#FFE28A" d="M12.5,16.143c0,4.107-3.611,6.948-1.935,10.778c0.192,0.439,0.355,0.815,0.503,1.147
		c-0.622,0.183-1.079,0.751-1.079,1.433c0,0.828,0.672,1.5,1.5,1.5c0.608,0,1.13-0.364,1.365-0.884
		c0.626,0.082,1.557-0.055,3.147-0.152V16.143H12.5z"/>
	<path fill="#FFE28A" d="M18,13.25L16,14l-2-0.75c0,0-2.592,3.085-2.385,5.5c0.341,3.984,0.817,9.549,0.941,11.064
		c-0.514,0.206-0.861,0.578-0.861,1.007c0,0.651,0.792,1.179,1.769,1.179c0.977,0,1.769-0.528,1.769-1.179
		c0-0.216-0.093-0.415-0.245-0.589C14.988,30.232,15.75,19,16,19c0.25,0,1.012,11.232,1.012,11.232
		c-0.151,0.174-0.245,0.373-0.245,0.589c0,0.651,0.792,1.179,1.769,1.179c0.977,0,1.769-0.528,1.769-1.179
		c0-0.429-0.347-0.801-0.861-1.007c0.124-1.515,0.6-7.079,0.941-11.064C20.592,16.335,18,13.25,18,13.25z"/>
	<path fill="#FFEAA7" d="M14.988,30.232C14.988,30.232,15.75,19,16,19v-5l-2-0.75c0,0-2.592,3.085-2.385,5.5
		c0.341,3.984,0.817,9.549,0.941,11.064c-0.514,0.206-0.861,0.578-0.861,1.007c0,0.651,0.792,1.179,1.769,1.179
		c0.977,0,1.769-0.528,1.769-1.179C15.233,30.605,15.14,30.406,14.988,30.232z"/>
	<g>
		
			<rect x="7.685" y="17.917" transform="matrix(0.9863 -0.1651 0.1651 0.9863 -2.8757 1.7274)" fill="#373F3F" width="2.542" height="0.5"/>
		
			<rect x="8.768" y="19.833" transform="matrix(0.7818 -0.6236 0.6236 0.7818 -10.3327 10.6435)" fill="#373F3F" width="2.542" height="0.5"/>
		<circle fill="#D799D6" cx="7.581" cy="18.458" r="1"/>
		<circle fill="#D799D6" cx="8.789" cy="21.083" r="1"/>
		<path fill="#D799D6" d="M13.576,14c-1.5,1.75-1.119,3.472,0.208,3.417c1-0.042,1.634,0.862,1.634,1.833
			c0,2.25-5.676,2.5-5.676-1.542c0-1.375,1.402-4.058,2.792-4.833C14.326,11.875,13.576,14,13.576,14z"/>
	</g>
	<g>
		
			<rect x="21.773" y="17.917" transform="matrix(-0.9863 -0.1651 0.1651 -0.9863 42.7735 39.8878)" fill="#2B3332" width="2.542" height="0.5"/>
		
			<rect x="20.69" y="19.833" transform="matrix(-0.7818 -0.6236 0.6236 -0.7818 26.6049 49.478)" fill="#2B3332" width="2.542" height="0.5"/>
		<circle fill="#D285D2" cx="24.419" cy="18.458" r="1"/>
		<circle fill="#D285D2" cx="23.211" cy="21.083" r="1"/>
		<path fill="#D285D2" d="M18.424,14c1.5,1.75,1.119,3.472-0.208,3.417c-1-0.042-1.634,0.862-1.634,1.833
			c0,2.25,5.676,2.5,5.676-1.542c0-1.375-1.402-4.058-2.792-4.833C17.674,11.875,18.424,14,18.424,14z"/>
	</g>
	<path fill="#FFEAA7" d="M23.511,12.367c-0.615-0.646-1.316-1.343-1.887-1.96c0-2.573-2.518-5.224-5.624-5.224
		s-5.624,2.651-5.624,5.224c-0.57,0.617-1.272,1.314-1.887,1.96c-0.344,0.362-0.081,0.957,0.419,0.953
		c1.095-0.009,1.831-0.027,2.677-0.027c1.03,1.08,2.625,1.773,4.415,1.773s3.385-0.693,4.415-1.773c0.845,0,1.582,0.018,2.677,0.027
		C23.591,13.324,23.855,12.729,23.511,12.367z"/>
	<path fill="#FEF1C6" d="M16,5.183c-3.106,0-5.624,2.651-5.624,5.224c-0.57,0.617-1.272,1.314-1.887,1.96
		c-0.344,0.362-0.081,0.957,0.419,0.953c1.095-0.009,1.831-0.027,2.677-0.027c1.03,1.08,2.625,1.773,4.415,1.773V5.183z"/>
	<path fill="#D285D2" d="M27.617,4.105c-0.733-0.476-1.438-0.928-1.616-1.042c-0.026-0.016-0.034-0.048-0.022-0.076l1.004-2.366
		c0.046-0.11-0.072-0.216-0.176-0.158l-2.536,1.413c-0.033,0.018-0.075,0.003-0.089-0.032L23.504,0.08
		c-0.043-0.111-0.201-0.105-0.236,0.008l-0.81,2.614c0,0-2.458,1.583-6.458,1.583S9.542,2.702,9.542,2.702l-0.81-2.614
		C8.697-0.025,8.538-0.031,8.496,0.08L7.818,1.843C7.804,1.879,7.762,1.894,7.729,1.875L5.193,0.463
		C5.089,0.405,4.971,0.511,5.017,0.621l1.004,2.366c0.012,0.028,0.003,0.06-0.022,0.076C5.821,3.177,5.117,3.629,4.383,4.105
		C4.281,4.171,4.324,4.33,4.445,4.334c2.815,0.103,4.66,1.263,5.263,1.743C11.542,7.535,12.807,9.285,16,9.285
		s4.458-1.75,6.292-3.208c0.603-0.48,2.449-1.639,5.263-1.743C27.676,4.33,27.719,4.171,27.617,4.105z"/>
	<path fill="#D799D6" d="M16,9.285c-3.193,0-4.458-1.75-6.292-3.208C9.105,5.597,7.26,4.438,4.445,4.334
		C4.324,4.33,4.281,4.171,4.383,4.105c0.733-0.476,1.438-0.928,1.616-1.042c0.026-0.016,0.034-0.048,0.022-0.076L5.017,0.621
		c-0.046-0.11,0.072-0.216,0.176-0.158l2.536,1.413c0.033,0.019,0.075,0.003,0.089-0.032L8.496,0.08
		c0.043-0.111,0.201-0.105,0.236,0.008l0.81,2.614c0,0,2.458,1.583,6.458,1.583V9.285z"/>
	<path fill="#373F3F" d="M14.727,11.906c0.119-0.429-1.317-1.984-1.906-1.812c-0.589,0.172-0.766,1.469-0.25,1.812
		C13.184,12.315,14.586,12.415,14.727,11.906z"/>
	<path fill="#FFFFFF" d="M13.651,10.425c-0.2,0.068-0.358,0.335-0.358,0.664c0,0.38,0.199,0.688,0.446,0.688
		c0.246,0,0.445-0.308,0.445-0.688c0-0.064-0.009-0.128-0.019-0.187C14.004,10.726,13.831,10.564,13.651,10.425z"/>
	<path fill="#2B3332" d="M17.273,11.906c-0.119-0.429,1.317-1.984,1.906-1.812c0.589,0.172,0.766,1.469,0.25,1.812
		C18.816,12.315,17.414,12.415,17.273,11.906z"/>
	<path fill="#F7F7F7" d="M18.349,10.425c0.2,0.068,0.358,0.335,0.358,0.664c0,0.38-0.199,0.688-0.446,0.688
		c-0.246,0-0.445-0.308-0.445-0.688c0-0.064,0.009-0.128,0.019-0.187C17.996,10.726,18.169,10.564,18.349,10.425z"/>
	<path fill="#373F3F" d="M15.138,12.833c-0.122,0-0.184,0.13-0.097,0.206l0.862,0.758c0.027,0.024,0.062,0.035,0.097,0.035v-1
		H15.138z"/>
	<path fill="#2B3332" d="M16.96,13.039c0.086-0.076,0.025-0.206-0.097-0.206h-0.862v1c0.035,0,0.07-0.012,0.097-0.035L16.96,13.039z
		"/>
	<path fill="#C27BC6" d="M29.749,9.853l-0.333,1.024c-0.019,0.058-0.1,0.058-0.119,0.001c-0.178-0.549-0.729-2.135-1.16-2.159
		c-0.431,0.024-0.982,1.609-1.16,2.159c-0.019,0.058-0.1,0.057-0.119-0.001l-0.333-1.024c-0.031-0.095-0.154-0.118-0.216-0.04
		c-0.375,0.473-1.315,1.816-0.953,3c0.392,1.284,1.812,1.906,2.781,1.906s2.389-0.622,2.781-1.906c0.361-1.184-0.579-2.527-0.953-3
		C29.904,9.734,29.78,9.758,29.749,9.853z"/>
</g>
</svg>
