<?xml version="1.0" encoding="utf-8"?>
<!-- Generator: Adobe Illustrator 23.0.6, SVG Export Plug-In . SVG Version: 6.00 Build 0)  -->
<svg version="1.1" xmlns="http://www.w3.org/2000/svg" xmlns:xlink="http://www.w3.org/1999/xlink" x="0px" y="0px" width="32px"
	 height="32px" viewBox="0 0 32 32" enable-background="new 0 0 32 32" xml:space="preserve">
<g id="labels">
	<g>
	</g>
</g>
<g id="icons">
	<path fill="#71B1E1" d="M17.907,15.5c2.486,1.032,10.218,4.5,10.218,4.5l-0.167,2.5l-11.917-5.132L17.907,15.5z"/>
	<path fill="#DADDDC" d="M23.221,20.46c0.024-0.857,0.285-1.655,0.733-2.32c0.82,0.364,1.597,0.71,2.254,1.003
		c-0.159,0.451-0.25,0.934-0.25,1.44c0,0.391,0.064,0.765,0.161,1.125L23.221,20.46z"/>
	<path fill="#7FB8E0" d="M27.618,18.247c0.503-0.734-0.771-0.554-1.495,0.424c-0.936,1.264-0.92,2.746,0.264,3.773
		c1.274,1.104,3.774,0.598,4.318-0.687c0.648-1.532,0.126-2.92-0.578-3.464c-0.704-0.544-1.911-0.589-1.388,0.111
		s0.037,1.33-0.423,1.389S26.69,19.601,27.618,18.247z"/>
	<path fill="#7FB8E0" d="M14.093,15.5C11.607,16.532,3.875,20,3.875,20l0.167,2.5l11.917-5.132L14.093,15.5z"/>
	<polygon fill="#71B1E1" points="17,31.241 20,30.991 20.5,23.333 17,25.218 	"/>
	<polygon fill="#7FB8E0" points="15,31.241 12,30.991 11.5,23.333 15,25.218 	"/>
	<path fill="#7FB8E0" d="M18,12.742c0,0-0.625,0-2,0s-2,0-2,0s-2.792,5.375-2.792,9s2.375,5.5,4.792,5.5s4.792-1.875,4.792-5.5
		S18,12.742,18,12.742z"/>
	<path fill="#8EC0E0" d="M16,12.742c-1.375,0-2,0-2,0s-2.792,5.375-2.792,9s2.375,5.5,4.792,5.5V12.742z"/>
	<path fill="#E3E5E5" d="M16,23.167c-2.083,0-4.371-1.004-4.792-1.425c0,3.625,2.375,5.5,4.792,5.5V23.167z"/>
	<path fill="#DADDDC" d="M16,23.167c2.083,0,4.371-1.004,4.792-1.425c0,3.625-2.375,5.5-4.792,5.5V23.167z"/>
	<path fill="#D1D4D4" d="M15.551,0.408C13.522,4.282,8.282,4.688,8.507,9.89c0.147,3.405,2.646,6.385,5.992,7.034
		c4.801,0.931,9.001-2.721,9.001-7.354c0-4.899-5.063-5.368-7.05-9.159C16.255,0.037,15.746,0.036,15.551,0.408z"/>
	<path fill="#DADDDC" d="M16,0.13v16.929c-0.492,0-0.992-0.037-1.501-0.135c-3.346-0.649-5.844-3.629-5.992-7.034
		c-0.225-5.202,5.015-5.608,7.044-9.481C15.648,0.222,15.824,0.13,16,0.13z"/>
	<ellipse fill="#F7F7F7" cx="19.833" cy="10.5" rx="2.146" ry="2.75"/>
	<ellipse fill="#FFFFFF" cx="12.167" cy="10.5" rx="2.146" ry="2.75"/>
	<ellipse fill="#373F3F" cx="12.125" cy="10.583" rx="1.203" ry="1.542"/>
	<ellipse fill="#2B3332" cx="19.875" cy="10.583" rx="1.203" ry="1.542"/>
	<path fill="#DADDDC" d="M16.417,0.226c-0.182-0.309-0.651-0.309-0.833,0c-1.919,3.263-7.951,4.121-7.076,10.225
		c0.064,0.445,1.409-1.208,3.34-1.208C13.833,9.243,13.25,12,16,12s2.167-2.758,4.152-2.758c1.931,0,3.276,1.653,3.34,1.208
		C24.368,4.347,18.335,3.489,16.417,0.226z"/>
	<path fill="#E3E5E5" d="M16-0.006V12c-2.75,0-2.167-2.758-4.152-2.758c-1.931,0-3.276,1.653-3.34,1.208
		c-0.875-6.104,5.157-6.962,7.076-10.225C15.674,0.071,15.837-0.006,16-0.006z"/>
	<path fill="#EDEEEE" d="M16-0.006c0,0-4.375,8.256-4.152,9.248c-1.931,0-3.276,1.653-3.34,1.208
		c-0.875-6.104,5.157-6.962,7.076-10.225C15.674,0.071,15.837-0.006,16-0.006z"/>
	<path fill="#E3E5E5" d="M16.417,0.226c1.919,3.263,7.951,4.121,7.076,10.225c-0.064,0.445-1.409-1.208-3.34-1.208
		C20.375,8.25,16-0.006,16-0.006C16.163-0.006,16.326,0.071,16.417,0.226z"/>
	<path fill="#E3E5E5" d="M26.223,14.033c-2.017,0.044-3.683-1.487-3.722-3.42s1.565-3.535,3.582-3.579s3.384,1.786,3.417,3.426
		C29.533,12.107,28.24,13.99,26.223,14.033z"/>
	<path fill="#EDEEEE" d="M23.512,9.346c0,0,0.905,0.485,1.209,0.391c0.363-0.112,0.697-1.279,2.182-0.926
		c0.909,0.216,1.443,1.171,1.265,2.041c-0.251,1.231-1.768,1.892-3.054,1.476c-0.748-0.242-1.304-0.796-1.559-1.459
		C23.372,10.394,23.344,9.861,23.512,9.346z"/>
	<path fill="#EDEEEE" d="M5.777,14.033c2.017,0.044,3.683-1.487,3.722-3.42S7.934,7.079,5.917,7.035S2.533,8.821,2.5,10.462
		C2.467,12.107,3.76,13.99,5.777,14.033z"/>
	<path fill="#F7F7F7" d="M8.488,9.346c0,0-0.905,0.485-1.209,0.391C6.916,9.625,6.583,8.458,5.097,8.811
		c-0.909,0.216-1.443,1.171-1.265,2.041c0.251,1.231,1.768,1.892,3.054,1.476c0.748-0.242,1.304-0.796,1.559-1.459
		C8.628,10.394,8.656,9.861,8.488,9.346z"/>
	<path fill="#9A3644" d="M15.883,13.525l-2.116,1.124c-0.179,0.095-0.176,0.353,0.005,0.444l2.116,1.059
		c0.07,0.035,0.153,0.035,0.224,0l2.116-1.059c0.182-0.091,0.185-0.349,0.005-0.444l-2.116-1.124
		C16.044,13.486,15.956,13.486,15.883,13.525z"/>
	<path fill="#A93949" d="M16,13.496v2.657c-0.038,0-0.077,0.018-0.112,0l-2.116-1.059c-0.182-0.091-0.185-0.349-0.005-0.444
		l2.116-1.124C15.919,13.505,15.96,13.496,16,13.496z"/>
	<path fill="#DADDDC" d="M22.58,30.913c-0.134,1.325-1.305,1.067-2.915,1.067s-2.915,0.194-2.915-1.067
		c0-0.803,1.305-1.843,2.915-1.843S22.66,30.118,22.58,30.913z"/>
	<path fill="#E3E5E5" d="M9.462,30.913c0.134,1.325,1.305,1.067,2.915,1.067s2.915,0.194,2.915-1.067
		c0-0.803-1.305-1.843-2.915-1.843S9.382,30.118,9.462,30.913z"/>
	<path fill="#E3E5E5" d="M8.779,20.46c-0.024-0.857-0.285-1.655-0.733-2.32c-0.82,0.364-1.597,0.71-2.254,1.003
		c0.159,0.451,0.25,0.934,0.25,1.44c0,0.391-0.064,0.765-0.161,1.125L8.779,20.46z"/>
	<path fill="#8EC0E0" d="M4.382,18.247c-0.503-0.734,0.771-0.554,1.495,0.424c0.936,1.264,0.92,2.746-0.264,3.773
		c-1.274,1.104-3.774,0.598-4.318-0.687c-0.648-1.532-0.126-2.92,0.578-3.464c0.704-0.544,1.911-0.589,1.388,0.111
		s-0.037,1.33,0.423,1.389S5.31,19.601,4.382,18.247z"/>
</g>
</svg>
