<?xml version="1.0" encoding="utf-8"?>
<!-- Generator: Adobe Illustrator 23.0.6, SVG Export Plug-In . SVG Version: 6.00 Build 0)  -->
<svg version="1.1" xmlns="http://www.w3.org/2000/svg" xmlns:xlink="http://www.w3.org/1999/xlink" x="0px" y="0px" width="32px"
	 height="32px" viewBox="0 0 32 32" enable-background="new 0 0 32 32" xml:space="preserve">
<g id="labels">
	<g>
	</g>
</g>
<g id="icons">
	<g>
		<path fill="#FAE09F" d="M17.126,13.312c0.312,1.312,4.937,2.5,6.455,2.864c0.306,0.073,0.625,0.03,0.877-0.158
			c0.681-0.509,2.054-1.546,2.605-2.018c0.702-0.601,1.141-0.956,1.861-0.996c0.671-0.037,1.311,0.351,1.636,0.94
			C31.938,16.437,29.743,17,28.563,17c-1.087,0-3.268,0.938-4.134,1.33c-0.239,0.108-0.508,0.118-0.754,0.028l-6.612-2.046
			L17.126,13.312z"/>
		<path fill="#FDEBBB" d="M14.937,13.313c-0.312,1.312-4.937,2.5-6.455,2.864c-0.306,0.073-0.625,0.03-0.877-0.158
			C6.925,15.508,5.551,14.472,5,14c-0.702-0.601-1.141-0.956-1.861-0.996c-0.671-0.037-1.311,0.351-1.636,0.94
			C0.125,16.438,2.32,17,3.5,17c1.087,0,3.268,0.938,4.134,1.33c0.239,0.108,0.508,0.118,0.754,0.028L15,16.313L14.937,13.313z"/>
		<path fill="#FDEBBB" d="M8.43,30.913c0.134,1.325,1.305,1.067,2.915,1.067s2.915,0.194,2.915-1.067
			c0-0.803-1.305-1.843-2.915-1.843S8.35,30.118,8.43,30.913z"/>
		<path fill="#FAE09F" d="M23.57,30.913c-0.134,1.325-1.305,1.067-2.915,1.067s-2.915,0.194-2.915-1.067
			c0-0.803,1.305-1.843,2.915-1.843S23.65,30.118,23.57,30.913z"/>
		<path fill="#FAE09F" d="M19.53,18.382c-1.504-1.896-1.883-2.332-1.883-7.257c-0.785,0-1.647,0-1.647,0s-0.863,0-1.647,0
			c0,4.925-0.379,5.361-1.883,7.257c-1.504,1.896-3.792,3.923-3.792,7.911C8.678,29.3,10.639,31,12.437,31
			c1.052,0,2.371-0.887,3.07-1.633c0.185-0.197,0.332-0.198,0.493-0.198s0.308,0.001,0.493,0.198C17.192,30.113,18.511,31,19.563,31
			c1.798,0,3.759-1.7,3.759-4.707C23.322,22.305,21.034,20.278,19.53,18.382z"/>
		<path fill="#FDEBBB" d="M16,11.125c0,0-0.863,0-1.647,0c0,4.925-0.379,5.361-1.883,7.257c-1.504,1.896-3.792,3.923-3.792,7.911
			C8.678,29.3,10.639,31,12.437,31c1.052,0,2.371-0.887,3.07-1.633c0.185-0.197,0.332-0.198,0.493-0.198V11.125z"/>
		<ellipse fill="#FDEBBB" cx="16" cy="8.938" rx="4.269" ry="4.803"/>
		<g>
			<circle fill="#F7F7F7" cx="18.135" cy="9.606" r="1.334"/>
			<circle fill="#2B3332" cx="18.135" cy="9.506" r="0.8"/>
		</g>
		<path fill="#FFF3D9" d="M16,13.741c-2.068,0-4.269-2.802-4.269-4.803c0-2.653,1.911-4.803,4.269-4.803V13.741z"/>
		<path fill="#529CCF" d="M19.53,18.382c-1.133,1.199-3.007,2.768-3.53,2.768s-2.397-1.569-3.53-2.768
			c-1.504,1.896-3.792,3.923-3.792,7.911C8.678,29.3,10.639,31,12.437,31c1.052,0,2.371-0.887,3.07-1.633
			c0.185-0.197,0.332-0.198,0.493-0.198s0.308,0.001,0.493,0.198C17.192,30.113,18.511,31,19.563,31c1.798,0,3.759-1.7,3.759-4.707
			C23.322,22.305,21.034,20.278,19.53,18.382z"/>
		<path fill="#5CA3D5" d="M16,21.15c-0.523,0-2.397-1.569-3.53-2.768c-1.504,1.896-3.792,3.923-3.792,7.911
			C8.678,29.3,10.639,31,12.437,31c1.052,0,2.371-0.887,3.07-1.633c0.185-0.197,0.332-0.198,0.493-0.198V21.15z"/>
		<path fill="#529CCF" d="M16,26.833c-1.208,0-5.25,0.167-7.221-1.948c-0.066,0.441-0.101,0.909-0.101,1.407
			C8.678,29.3,10.639,31,12.437,31c1.052,0,2.371-0.887,3.07-1.633c0.185-0.197,0.332-0.198,0.493-0.198V26.833z"/>
		<path fill="#FFE28A" d="M16,22.288c-0.037,0-0.098-0.017-0.185-0.054c-0.552-0.237-1.965-1.213-2.779-1.956
			c-1.002-0.915-1.351-1.569-0.959-1.918c0.392-0.349,0.827,0.17,1.525,0.828c0.648,0.61,1.731,1.593,2.213,1.868
			c0.086,0.049,0.141,0.093,0.185,0.093V22.288z"/>
		<ellipse fill="#FFE28A" cx="12.426" cy="26.424" rx="1.569" ry="1.7"/>
		<path fill="#FFD96C" d="M16,22.288c0.037,0,0.098-0.017,0.185-0.054c0.552-0.237,1.965-1.213,2.779-1.956
			c1.002-0.915,1.351-1.569,0.959-1.918s-0.827,0.17-1.525,0.828c-0.648,0.61-1.731,1.593-2.213,1.868
			C16.098,21.106,16.044,21.15,16,21.15V22.288z"/>
		<path fill="#65A9DC" d="M16,0c-0.737,0-1.634,0.967-1.334,2.685C14.927,4.177,15.633,5.37,16,5.37V0z"/>
		<path fill="#65A9DC" d="M8.567,8.1c0.216,0.649,1.33,1.156,2.755,0.388c1.237-0.666,2.081-1.638,1.974-1.961
			c-0.107-0.323-1.365-0.596-2.755-0.388C8.94,6.378,8.351,7.452,8.567,8.1z"/>
		<g>
			<circle fill="#FFFFFF" cx="13.865" cy="9.606" r="1.334"/>
			<circle fill="#373F3F" cx="13.865" cy="9.506" r="0.8"/>
		</g>
		<path fill="#5CA3D5" d="M16,3.735c-1.468,0-3.969,1.067-3.969,3.435c0,0.8,0.71,1.256,1.501,1.668
			C14.366,9.272,15.333,9.606,16,9.606s1.634-0.333,2.468-0.767c0.791-0.411,1.501-0.867,1.501-1.668
			C19.969,4.803,17.468,3.735,16,3.735z"/>
		<path fill="#65A9DC" d="M16,3.735c-1.468,0-3.969,1.067-3.969,3.435c0,0.8,0.71,1.256,1.501,1.668
			C14.366,9.272,15.333,9.606,16,9.606V3.735z"/>
		<circle fill="#FFE28A" cx="14.266" cy="7.16" r="0.534"/>
		<path fill="#5CA3D5" d="M16,0c0.737,0,1.634,0.967,1.334,2.685C17.073,4.177,16.367,5.37,16,5.37V0z"/>
		<path fill="#5CA3D5" d="M23.433,8.1c-0.216,0.649-1.33,1.156-2.755,0.388c-1.237-0.666-2.081-1.638-1.974-1.961
			c0.107-0.323,1.365-0.596,2.755-0.388C23.06,6.378,23.649,7.452,23.433,8.1z"/>
		<ellipse fill="#5CA3D5" cx="16" cy="13.575" rx="1.067" ry="0.8"/>
		<path fill="#65A9DC" d="M16,14.375c-0.589,0-1.067-0.358-1.067-0.8c0-0.442,0.478-0.8,1.067-0.8V14.375z"/>
		<circle fill="#FFD96C" cx="16" cy="8.316" r="0.534"/>
		<path fill="#FFE28A" d="M16,7.782c-0.295,0-0.534,0.239-0.534,0.534c0,0.295,0.239,0.534,0.534,0.534V7.782z"/>
		<circle fill="#FFD96C" cx="17.734" cy="7.16" r="0.534"/>
		<path fill="#FFD96C" d="M13.957,26.794c-0.954-0.064-2.066-0.221-3.086-0.594c-0.009,0.073-0.014,0.148-0.014,0.224
			c0,0.939,0.702,1.7,1.569,1.7C13.175,28.123,13.801,27.554,13.957,26.794z"/>
		<path fill="#4896C8" d="M16,26.833c1.208,0,5.25,0.167,7.221-1.948c0.066,0.441,0.101,0.909,0.101,1.407
			c0,3.007-1.961,4.707-3.759,4.707c-1.052,0-2.371-0.887-3.07-1.633C16.308,29.17,16.16,29.169,16,29.169V26.833z"/>
		<ellipse fill="#FFD96C" cx="19.574" cy="26.424" rx="1.569" ry="1.7"/>
		<path fill="#FFD04D" d="M18.043,26.794c0.954-0.064,2.066-0.221,3.086-0.594c0.009,0.073,0.014,0.148,0.014,0.224
			c0,0.939-0.702,1.7-1.569,1.7C18.825,28.123,18.199,27.554,18.043,26.794z"/>
	</g>
</g>
</svg>
