<?xml version="1.0" encoding="utf-8"?>
<!-- Generator: Adobe Illustrator 23.0.6, SVG Export Plug-In . SVG Version: 6.00 Build 0)  -->
<svg version="1.1" xmlns="http://www.w3.org/2000/svg" xmlns:xlink="http://www.w3.org/1999/xlink" x="0px" y="0px" width="32px"
	 height="32px" viewBox="0 0 32 32" enable-background="new 0 0 32 32" xml:space="preserve">
<g id="labels">
	<g>
	</g>
</g>
<g id="icons">
	<g>
		<path fill="#53BF8C" d="M28.278,25.042v2.5c0,0.138-0.112,0.25-0.25,0.25h-8.14c-0.138,0-0.25-0.112-0.25-0.25v-2.5
			c0-0.138,0.112-0.25,0.25-0.25h8.14C28.166,24.792,28.278,24.904,28.278,25.042z"/>
		
			<ellipse transform="matrix(0.9239 -0.3827 0.3827 0.9239 -10.6721 6.6446)" fill="#F7D684" cx="11.366" cy="30.148" rx="2.5" ry="1.5"/>
		<path fill="#FAE09F" d="M13.661,19.188c0,0-3.847,0.769-6.142,2.308c-0.524,0.351-0.676,1.056-0.394,1.62l0.004,0.008
			c0.294,0.588,0.986,0.854,1.603,0.628c3.733-1.367,5.929-0.564,5.929-0.564L13.661,19.188z"/>
		<path fill="#FAE09F" d="M16,17.833c-3.314,0-6,4.686-6,8s2.686,4,6,4V17.833z"/>
		<path fill="#FDEBBB" d="M16,6.833v14c-4.418,0-8-3.333-8-7C8,10.5,11.986,6.833,16,6.833z"/>
		<circle fill="#0F769B" cx="11.486" cy="13.333" r="1.5"/>
		<path fill="#373F3F" d="M11.486,11.833c-0.286,0-0.55,0.084-0.777,0.223c-0.139,0.227-0.223,0.492-0.223,0.777
			c0,0.828,0.672,1.5,1.5,1.5c0.286,0,0.55-0.084,0.777-0.223c0.139-0.227,0.223-0.492,0.223-0.777
			C12.986,12.504,12.314,11.833,11.486,11.833z"/>
		<circle fill="#FFFFFF" cx="11.986" cy="12.833" r="0.5"/>
		<path fill="#6EDCA2" d="M10.434,3.525c2.067,2.845,2.894,5.648,1.659,6.641s-4.373,0.047-6.285-2.344
			C3.76,5.261,3.396,1.466,4,0.56C5-0.94,8.416,0.749,10.434,3.525z"/>
		<circle fill="#FDEBBB" cx="10.915" cy="8.915" r="2.084"/>
		<path fill="#60CD96" d="M7.125,23.117l0.004,0.008c0.281,0.562,0.922,0.839,1.518,0.664c0.976-0.376,1.751-1.129,1.259-1.948
			c-0.483-0.805-1.259-0.887-2.219-0.449c-0.056,0.035-0.114,0.069-0.168,0.105C6.995,21.848,6.843,22.553,7.125,23.117z"/>
		<path fill="#6EDCA2" d="M8.875,16.5c-0.053,0.053-0.11,0.115-0.156,0.172c0.863,1.624,2.443,2.961,4.372,3.651
			c0.797-1.018,0.658-2.573-0.383-3.614C11.592,15.593,9.876,15.499,8.875,16.5z"/>
		
			<ellipse transform="matrix(0.3827 -0.9239 0.9239 0.3827 -15.1159 37.6742)" fill="#F0C877" cx="20.634" cy="30.148" rx="1.5" ry="2.5"/>
		<path fill="#F7D684" d="M18.339,19.188c0,0,3.847,0.769,6.142,2.308c0.524,0.351,0.676,1.056,0.394,1.62l-0.004,0.008
			c-0.294,0.588-0.986,0.854-1.603,0.628c-3.733-1.367-5.929-0.564-5.929-0.564L18.339,19.188z"/>
		<path fill="#F7D684" d="M16,17.833c3.314,0,6,4.686,6,8s-2.686,4-6,4V17.833z"/>
		<path fill="#FAE09F" d="M16,6.833v14c4.418,0,8-3.333,8-7C24,10.5,20.014,6.833,16,6.833z"/>
		<circle fill="#0A6F8E" cx="20.514" cy="13.333" r="1.5"/>
		<path fill="#2B3332" d="M20.514,11.833c0.286,0,0.55,0.084,0.777,0.223c0.139,0.227,0.223,0.492,0.223,0.777
			c0,0.828-0.672,1.5-1.5,1.5c-0.286,0-0.55-0.084-0.777-0.223c-0.139-0.227-0.223-0.492-0.223-0.777
			C19.014,12.504,19.686,11.833,20.514,11.833z"/>
		<circle fill="#F7F7F7" cx="20.014" cy="12.833" r="0.5"/>
		<path fill="#2B3332" d="M16.25,14.332H16v0.001h-0.25c-0.138,0-0.25,0.112-0.25,0.25s0.112,0.25,0.25,0.25H16v-0.001h0.25
			c0.138,0,0.25-0.112,0.25-0.25S16.388,14.332,16.25,14.332z"/>
		<path fill="#2B3332" d="M17.677,16.156c-0.098-0.097-0.255-0.098-0.353-0.001c-0.023,0.022-0.457,0.428-1.324,0.428v0.001
			c-0.867,0-1.301-0.405-1.324-0.428c-0.098-0.097-0.255-0.096-0.353,0.001c-0.098,0.098-0.098,0.256,0,0.354
			c0.023,0.023,0.586,0.573,1.677,0.573v-0.001c1.091,0,1.653-0.55,1.677-0.573C17.774,16.412,17.774,16.253,17.677,16.156z"/>
		<path fill="#60CD96" d="M21.566,3.525c-2.067,2.845-2.894,5.648-1.659,6.641c1.234,0.993,4.373,0.047,6.285-2.344
			C28.24,5.261,28.604,1.466,28,0.56C27-0.94,23.584,0.749,21.566,3.525z"/>
		<circle fill="#FAE09F" cx="21.085" cy="8.915" r="2.084"/>
		<path fill="#53BF8C" d="M24.875,23.117l-0.004,0.008c-0.281,0.562-0.922,0.839-1.518,0.664c-0.976-0.376-1.751-1.129-1.259-1.948
			c0.483-0.805,1.259-0.887,2.219-0.449c0.056,0.035,0.114,0.069,0.168,0.105C25.005,21.848,25.157,22.553,24.875,23.117z"/>
		<path fill="#60CD96" d="M23.125,16.5c0.053,0.053,0.11,0.115,0.156,0.172c-0.863,1.624-2.443,2.961-4.372,3.651
			c-0.797-1.018-0.658-2.573,0.383-3.614C20.408,15.593,22.124,15.499,23.125,16.5z"/>
		<path fill="#FAE09F" d="M21.018,17.321l1.028,1.022c-0.231,0.237-0.486,0.477-0.75,0.688l-0.986-1.001
			c-0.048-0.049-0.048-0.128,0.001-0.176l0.531-0.531C20.89,17.273,20.969,17.273,21.018,17.321z"/>
		<path fill="#FDEBBB" d="M10.947,17.321l-1.028,1.022c0.231,0.237,0.486,0.477,0.75,0.688l0.986-1.001
			c0.048-0.049,0.048-0.128-0.001-0.176l-0.531-0.531C11.075,17.273,10.996,17.273,10.947,17.321z"/>
		<path fill="#373F3F" d="M16,14.833h-0.25c-0.138,0-0.25-0.112-0.25-0.25s0.112-0.25,0.25-0.25H16V14.833z M16,16.583
			c-0.867,0-1.301-0.405-1.324-0.428c-0.098-0.097-0.255-0.096-0.353,0.001c-0.098,0.098-0.098,0.256,0,0.354
			c0.023,0.023,0.586,0.573,1.677,0.573V16.583z"/>
	</g>
</g>
</svg>
