<?xml version="1.0" encoding="utf-8"?>
<!-- Generator: Adobe Illustrator 23.0.6, SVG Export Plug-In . SVG Version: 6.00 Build 0)  -->
<svg version="1.1" xmlns="http://www.w3.org/2000/svg" xmlns:xlink="http://www.w3.org/1999/xlink" x="0px" y="0px" width="32px"
	 height="32px" viewBox="0 0 32 32" enable-background="new 0 0 32 32" xml:space="preserve">
<g id="labels">
	<g>
	</g>
</g>
<g id="icons">
	<g>
		<path fill="#EDEEEE" d="M3.535,11.001c1.138,0.072,3.955,0.601,7.176,3.821l-3.889,3.889c-3.221-3.221-3.75-6.038-3.821-7.176
			C2.982,11.229,3.229,10.982,3.535,11.001z"/>
		<path fill="#434C4B" d="M16,13.453H8v10.399c0,2.761,2.239,5,5,5h3h3c2.761,0,5-2.239,5-5V13.453H16z"/>
		<path fill="#E3E5E5" d="M28.465,11.001c-1.138,0.072-3.955,0.601-7.176,3.821l3.889,3.889c3.221-3.221,3.75-6.038,3.821-7.176
			C29.018,11.229,28.771,10.982,28.465,11.001z"/>
		<path fill="#373F3F" d="M23.256,14.479l5.559,4.931c0.551,0.786-0.215,1.822-1.128,1.525l-6.118-1.986L23.256,14.479z"/>
		<path fill="#373F3F" d="M19,28.852h-3V13.453h8v10.399C24,26.614,21.761,28.852,19,28.852z"/>
		<path fill="#373F3F" d="M17.406,26.476l1.623,4.842c0.305,0.91,1.593,0.909,1.897-0.001l1.615-4.84H17.406z"/>
		<path fill="#66D3D3" d="M16,14l6-0.021v9C22,24.105,21.105,25,20,25h-4V14z"/>
		<path fill="#FFD04D" d="M17.671,29.013L17.671,29.013c-0.14-0.534,0.18-1.081,0.714-1.221l2.902-0.76
			c0.534-0.14,1.081,0.18,1.221,0.714l0,0c0.14,0.534-0.18,1.081-0.714,1.221l-2.902,0.76
			C18.357,29.867,17.811,29.547,17.671,29.013z"/>
		<rect x="16" y="14" fill="#7CD8D5" width="2.5" height="11"/>
		<path fill="#434C4B" d="M8.744,14.479l-5.559,4.931c-0.551,0.786,0.215,1.822,1.128,1.525l6.118-1.986L8.744,14.479z"/>
		<path fill="#434C4B" d="M14.594,26.476l-1.623,4.842c-0.305,0.91-1.593,0.909-1.897-0.001l-1.615-4.84H14.594z"/>
		<path fill="#7CD8D5" d="M16,14h-6v9c0,1.105,0.895,2,2,2h4V14z"/>
		<path fill="#FFD96C" d="M14.329,29.013L14.329,29.013c0.14-0.534-0.18-1.081-0.714-1.221l-2.902-0.76
			c-0.534-0.14-1.081,0.18-1.221,0.714v0c-0.14,0.534,0.18,1.081,0.714,1.221l2.902,0.76C13.643,29.867,14.189,29.547,14.329,29.013
			z"/>
		<rect x="13.5" y="14" transform="matrix(-1 -5.384239e-11 5.384239e-11 -1 29.5 39)" fill="#8EDDD9" width="2.5" height="11"/>
		<path fill="#FFD04D" d="M24,21L24,21c-0.552,0-1-0.448-1-1v-4c0-0.552,0.448-1,1-1h0c0.552,0,1,0.448,1,1v4
			C25,20.552,24.552,21,24,21z"/>
		<path fill="#FFD96C" d="M8,21L8,21c0.552,0,1-0.448,1-1v-4c0-0.552-0.448-1-1-1h0c-0.552,0-1,0.448-1,1v4C7,20.552,7.448,21,8,21z
			"/>
		<g>
			<path fill="#FFAD68" d="M10,14v5c0,0,1,1.031,3,1.031c1.168,0,1.995-0.352,2.481-0.644c0.161-0.097,0.34-0.146,0.519-0.146V14H10
				z"/>
			<path fill="#FCA15E" d="M19,20.031c2,0,3-1.031,3-1.031v-5h-6v5.241c0.179,0,0.358,0.049,0.519,0.146
				C17.005,19.679,17.832,20.031,19,20.031z"/>
		</g>
		<ellipse fill="#8EDDD9" cx="16" cy="9.672" rx="8" ry="6"/>
		<path fill="#7CD8D5" d="M16,3.672v12c4.418,0,8-2.686,8-6S20.418,3.672,16,3.672z"/>
		<path fill="#FFD96C" d="M27,9.672C27,4.626,22.168,0,16,0v3.672c4.418,0,8,2.686,8,6c0,0.399-0.055,0.788-0.156,1.164
			c-0.453-0.226-0.972-0.321-1.504-0.242c-1.425,0.212-2.401,1.588-2.18,3.073c0.221,1.485,1.555,2.517,2.98,2.305
			c0.452-0.067,0.851-0.261,1.188-0.529c0.02,0.024,0.044,0.046,0.064,0.07C26.015,13.953,27,11.93,27,9.672z"/>
		<path fill="#F79654" d="M26.123,0.03l-1.162,0.6c-1.629,0.841-2.957,2.165-3.803,3.792l-0.623,1.198
			c-0.116,0.223,0.119,0.465,0.345,0.355L21.864,5.5c1.807-0.872,3.266-2.33,4.137-4.137l0.476-0.987
			C26.586,0.15,26.345-0.085,26.123,0.03z"/>
		<g>
			<g>
				<path fill="#FFD96C" d="M21.233,8.373c0.143-0.426,0.209-0.815,0.24-1.07c0.02-0.161-0.119-0.296-0.281-0.276
					c-0.248,0.031-0.622,0.095-1.033,0.229c0.213,0.113,0.418,0.248,0.598,0.428C20.962,7.89,21.115,8.125,21.233,8.373z"/>
				<path fill="#F7F7F7" d="M18.426,8.403c0.383,0.084,0.748,0.27,1.045,0.568c0.321,0.321,0.514,0.72,0.586,1.136
					c0.102-0.079,0.206-0.155,0.3-0.25c0.443-0.443,0.71-0.988,0.876-1.484c-0.119-0.247-0.271-0.483-0.476-0.688
					c-0.18-0.18-0.384-0.315-0.598-0.428c-0.505,0.165-1.064,0.433-1.517,0.886C18.561,8.225,18.496,8.316,18.426,8.403z"/>
				<path fill="#0F769B" d="M18.426,8.403c-0.638,0.795-0.837,1.798-0.899,2.292c-0.02,0.163,0.114,0.298,0.277,0.278
					c0.486-0.06,1.465-0.254,2.254-0.867c-0.072-0.416-0.265-0.814-0.586-1.136C19.174,8.674,18.809,8.487,18.426,8.403z"/>
			</g>
			<ellipse fill="#2B3332" cx="18.808" cy="9.702" rx="0.5" ry="0.667"/>
		</g>
		<path fill="#FFE28A" d="M16,3.672V0C9.832,0,5,4.626,5,9.672c0,2.257,0.985,4.28,2.608,5.841c0.02-0.025,0.044-0.046,0.064-0.07
			c0.338,0.268,0.737,0.462,1.188,0.529c1.425,0.212,2.759-0.82,2.98-2.305c0.221-1.485-0.755-2.861-2.18-3.073
			c-0.532-0.079-1.051,0.016-1.504,0.242C8.055,10.46,8,10.072,8,9.672C8,6.359,11.582,3.672,16,3.672z"/>
		<path fill="#FCA15E" d="M5.877,0.03l1.162,0.6c1.629,0.841,2.957,2.165,3.803,3.792l0.623,1.198
			c0.116,0.223-0.119,0.465-0.345,0.355L10.136,5.5C8.329,4.629,6.871,3.17,5.999,1.363L5.523,0.376
			C5.414,0.15,5.655-0.085,5.877,0.03z"/>
		<g>
			<g>
				<path fill="#FFE28A" d="M10.763,8.373c-0.143-0.426-0.209-0.815-0.24-1.07c-0.02-0.161,0.119-0.296,0.281-0.276
					c0.248,0.031,0.622,0.095,1.033,0.229c-0.213,0.113-0.418,0.248-0.598,0.428C11.034,7.89,10.882,8.125,10.763,8.373z"/>
				<path fill="#FFFFFF" d="M13.574,8.403c-0.383,0.084-0.748,0.27-1.045,0.568c-0.321,0.321-0.514,0.72-0.586,1.136
					c-0.102-0.079-0.206-0.155-0.3-0.25c-0.443-0.443-0.71-0.988-0.876-1.484c0.119-0.247,0.271-0.483,0.476-0.688
					c0.18-0.18,0.384-0.315,0.598-0.428c0.505,0.165,1.064,0.433,1.517,0.886C13.439,8.225,13.504,8.316,13.574,8.403z"/>
				<path fill="#137FA0" d="M13.574,8.403c0.638,0.795,0.837,1.798,0.899,2.292c0.02,0.163-0.114,0.298-0.277,0.278
					c-0.486-0.06-1.465-0.254-2.254-0.867c0.072-0.416,0.265-0.814,0.586-1.136C12.826,8.674,13.191,8.487,13.574,8.403z"/>
			</g>
			<ellipse fill="#373F3F" cx="13.192" cy="9.702" rx="0.5" ry="0.667"/>
		</g>
		<g>
			<path fill="#A93949" d="M16,12.949v-0.3c0,0-1.103-0.077-1.959-0.609c-0.198-0.123-0.443,0.059-0.375,0.282
				c0.144,0.469,0.402,1.071,0.85,1.515C14.768,13.314,15.337,12.949,16,12.949z"/>
			<path fill="#9A3644" d="M17.484,13.837c0.448-0.444,0.706-1.046,0.85-1.515c0.069-0.223-0.176-0.405-0.375-0.282
				C17.103,12.572,16,12.649,16,12.649v0.3C16.663,12.949,17.232,13.314,17.484,13.837z"/>
			<path fill="#E85160" d="M16,12.949c-0.663,0-1.232,0.366-1.484,0.888c0.36,0.356,0.839,0.612,1.484,0.612V12.949z"/>
			<path fill="#D84459" d="M16,12.949v1.5c0.645,0,1.124-0.256,1.484-0.612C17.232,13.314,16.663,12.949,16,12.949z"/>
		</g>
	</g>
</g>
</svg>
