<?xml version="1.0" encoding="utf-8"?>
<!-- Generator: Adobe Illustrator 23.0.6, SVG Export Plug-In . SVG Version: 6.00 Build 0)  -->
<svg version="1.1" xmlns="http://www.w3.org/2000/svg" xmlns:xlink="http://www.w3.org/1999/xlink" x="0px" y="0px" width="32px"
	 height="32px" viewBox="0 0 32 32" enable-background="new 0 0 32 32" xml:space="preserve">
<g id="labels">
	<g>
	</g>
</g>
<g id="icons">
	<g>
		<g>
			<g>
				<path fill="#B1E346" d="M15.972,15.181c1.956-0.098,3.398,2.408,3.789,6.209c0.408,3.969-2.466,7.236-3.789,7.236V15.181z"/>
			</g>
			<g>
				<path fill="#A2D336" d="M19.822,22.269c-0.043,2.905-1.743,5.296-3.034,6.079C17.171,30.431,17.927,32,18.574,32
					c0.909,0,1.645-2.649,1.645-5.916C20.22,24.622,20.067,23.302,19.822,22.269z"/>
				<path fill="#AADB3D" d="M17.776,27.502c0.053,1.89,0.32,3.638,0.845,4.49c0.887-0.088,1.599-2.696,1.599-5.908
					c0-1.462-0.153-2.782-0.397-3.815C19.79,24.466,18.81,26.366,17.776,27.502z"/>
				<path fill="#BEE758" d="M17.06,17.643c0-0.971-0.069-1.733-0.188-2.306c-0.286-0.114-0.586-0.172-0.9-0.157v7.131
					C16.573,22.312,17.06,20.222,17.06,17.643z"/>
			</g>
			<g>
				<path fill="#AADB3D" d="M22.569,19.029c-0.447,0.251-0.965,0.385-1.485,0.391c-0.62,0.006-1.254-0.177-1.758-0.544
					c0.148,0.526,0.268,1.099,0.36,1.712c0.428,0.109,0.858,0.199,1.302,0.254c0.599,0.078,1.206,0.088,1.832,0.055
					C22.67,20.31,22.595,19.681,22.569,19.029z"/>
				<path fill="#B1E346" d="M22.657,20.034c-0.045-0.327-0.074-0.662-0.088-1.005c-0.447,0.251-0.965,0.385-1.485,0.391
					c-0.62,0.006-1.254-0.177-1.758-0.544c0.096,0.341,0.176,0.708,0.248,1.087c0.483,0.198,1.035,0.325,1.633,0.325
					C21.73,20.288,22.218,20.19,22.657,20.034z"/>
			</g>
			<path fill="#AADB3D" d="M18.879,15.179c-0.631,0-1.128,0.199-1.655,0.334c0.954,0.577,1.706,1.884,2.16,3.691
				c2.112-0.397,3.948-0.859,3.948-1.922C23.332,16.766,21.027,15.179,18.879,15.179z"/>
		</g>
		<g>
			<path fill="#B1E346" d="M9.431,19.029c0.447,0.251,0.965,0.385,1.485,0.391c0.62,0.006,1.254-0.177,1.758-0.544
				c-0.148,0.526-0.268,1.099-0.36,1.712c-0.428,0.109-0.858,0.199-1.302,0.254c-0.599,0.078-1.206,0.088-1.832,0.055
				C9.33,20.31,9.405,19.681,9.431,19.029z"/>
			<path fill="#BEE758" d="M9.343,20.034c0.045-0.327,0.074-0.662,0.088-1.005c0.447,0.251,0.965,0.385,1.485,0.391
				c0.62,0.006,1.254-0.177,1.758-0.544c-0.096,0.341-0.176,0.708-0.248,1.087c-0.483,0.198-1.035,0.325-1.633,0.325
				C10.27,20.288,9.782,20.19,9.343,20.034z"/>
		</g>
		<g>
			<path fill="#8EC0E0" d="M21.3,19.582c0-0.911,0.897-1.59,1.322-2.325c0.439-0.759,0.594-1.87,1.352-2.309
				c0.735-0.426,1.765-0.016,2.676-0.016c0.911,0,1.94-0.409,2.676,0.016c0.759,0.439,0.913,1.55,1.352,2.309
				C31.104,17.993,32,18.671,32,19.582c0,0.911-0.897,1.59-1.322,2.325c-0.439,0.759-0.594,1.87-1.352,2.309
				c-0.735,0.426-1.765,0.016-2.676,0.016c-0.911,0-1.94,0.409-2.676-0.016c-0.759-0.439-0.913-1.55-1.352-2.309
				C22.196,21.172,21.3,20.493,21.3,19.582z"/>
			<path fill="#7FB8E0" d="M22.733,19.582c0-0.668,0.645-1.169,0.957-1.709c0.322-0.556,0.444-1.362,1.001-1.684
				c0.539-0.312,1.291-0.024,1.959-0.024c0.668,0,1.42-0.288,1.959,0.024c0.556,0.322,0.679,1.128,1.001,1.684
				c0.312,0.539,0.957,1.04,0.957,1.708c0,0.668-0.645,1.169-0.957,1.709c-0.322,0.556-0.444,1.362-1.001,1.684
				c-0.539,0.312-1.291,0.024-1.959,0.024c-0.668,0-1.42,0.288-1.959-0.024c-0.556-0.322-0.679-1.128-1.001-1.684
				C23.378,20.751,22.733,20.25,22.733,19.582z"/>
			<path fill="#71B1E1" d="M24.55,19.582c0-0.364,0.284-0.656,0.454-0.95c0.176-0.303,0.292-0.693,0.596-0.869
				c0.294-0.17,0.686-0.081,1.05-0.081c0.364,0,0.756-0.089,1.05,0.081c0.303,0.176,0.42,0.565,0.595,0.869
				c0.17,0.294,0.454,0.586,0.454,0.95c0,0.364-0.284,0.656-0.454,0.95c-0.176,0.303-0.292,0.693-0.596,0.869
				c-0.294,0.17-0.686,0.081-1.05,0.081c-0.364,0-0.756,0.089-1.05-0.081c-0.303-0.176-0.42-0.565-0.595-0.869
				C24.834,20.238,24.55,19.946,24.55,19.582z"/>
		</g>
		<path fill="#B1E346" d="M13.066,15.179c0.631,0,1.128,0.199,1.655,0.334c-0.954,0.577-1.706,1.884-2.16,3.691
			c-2.112-0.397-3.948-0.859-3.948-1.922C8.613,16.766,10.917,15.179,13.066,15.179z"/>
		<g>
			<path fill="#BEE758" d="M15.972,15.181c-1.956-0.098-3.398,2.408-3.789,6.209c-0.408,3.969,2.466,7.236,3.789,7.236V15.181z"/>
			<path fill="#AADB3D" d="M12.178,22.269c0.043,2.905,1.743,5.296,3.034,6.079C14.829,30.431,14.073,32,13.426,32
				c-0.909,0-1.645-2.649-1.645-5.916C11.78,24.622,11.933,23.302,12.178,22.269z"/>
			<path fill="#B1E346" d="M14.197,27.502c-0.053,1.89-0.32,3.638-0.845,4.49c-0.887-0.088-1.599-2.696-1.599-5.908
				c0-1.462,0.153-2.782,0.397-3.815C12.183,24.466,13.163,26.366,14.197,27.502z"/>
			<path fill="#CBEB6B" d="M14.884,17.643c0-0.971,0.069-1.733,0.188-2.306c0.286-0.114,0.586-0.172,0.9-0.157v7.131
				C15.372,22.312,14.884,20.222,14.884,17.643z"/>
		</g>
		<g>
			<path fill="#FF5F7E" d="M0,19.582c0-0.911,0.897-1.59,1.322-2.325c0.439-0.759,0.594-1.87,1.352-2.309
				c0.735-0.426,1.765-0.016,2.676-0.016c0.911,0,1.94-0.409,2.676,0.016c0.759,0.439,0.913,1.55,1.352,2.309
				c0.426,0.735,1.322,1.414,1.322,2.325c0,0.911-0.897,1.59-1.322,2.325c-0.439,0.759-0.594,1.87-1.352,2.309
				c-0.735,0.426-1.765,0.016-2.676,0.016c-0.911,0-1.94,0.409-2.676-0.016c-0.759-0.439-0.913-1.55-1.352-2.309
				C0.896,21.172,0,20.493,0,19.582z"/>
			<path fill="#F3586F" d="M1.433,19.582c0-0.668,0.645-1.169,0.957-1.709c0.322-0.556,0.444-1.362,1.001-1.684
				c0.539-0.312,1.291-0.024,1.959-0.024c0.668,0,1.42-0.288,1.959,0.024c0.556,0.322,0.679,1.128,1.001,1.684
				c0.312,0.539,0.957,1.04,0.957,1.708c0,0.668-0.645,1.169-0.957,1.709c-0.322,0.556-0.444,1.362-1.001,1.684
				c-0.539,0.312-1.291,0.024-1.959,0.024c-0.668,0-1.42,0.288-1.959-0.024c-0.556-0.322-0.679-1.128-1.001-1.684
				C2.078,20.751,1.433,20.25,1.433,19.582z"/>
			<path fill="#E85160" d="M3.25,19.582c0-0.364,0.284-0.656,0.454-0.95c0.176-0.303,0.292-0.693,0.596-0.869
				c0.294-0.17,0.686-0.081,1.05-0.081c0.364,0,0.756-0.089,1.05,0.081c0.303,0.176,0.42,0.565,0.595,0.869
				c0.17,0.294,0.454,0.586,0.454,0.95c0,0.364-0.284,0.656-0.454,0.95C6.82,20.836,6.704,21.225,6.4,21.401
				c-0.294,0.17-0.686,0.081-1.05,0.081c-0.364,0-0.756,0.089-1.05-0.081c-0.303-0.176-0.42-0.565-0.595-0.869
				C3.534,20.238,3.25,19.946,3.25,19.582z"/>
		</g>
		<g>
			<g>
				<path fill="#BEE758" d="M16.237,0.171l2.264,6.791h-5.002l2.264-6.791C15.839-0.057,16.161-0.057,16.237,0.171z"/>
				<path fill="#CBEB6B" d="M16,0c-0.1,0-0.199,0.057-0.237,0.171l-2.264,6.791H16V0z"/>
			</g>
			<path fill="#CBEB6B" d="M7.123,3.337l4.015,5.699l2.968-4.026L7.475,2.86C7.189,2.767,6.95,3.091,7.123,3.337z"/>
			<path fill="#BEE758" d="M24.877,3.337l-4.015,5.699L17.895,5.01l6.631-2.15C24.811,2.767,25.05,3.091,24.877,3.337z"/>
			<path fill="#D9F07D" d="M9.987,10.944c0-3.321,2.692-7.34,6.013-7.34s6.013,4.019,6.013,7.34S19.321,15.63,16,15.63
				S9.987,14.265,9.987,10.944z"/>
			<path fill="#CBEB6B" d="M16,3.604V15.63c3.321,0,6.013-1.365,6.013-4.686S19.321,3.604,16,3.604z"/>
			<path fill="#E6F490" d="M21.344,10.141c-0.034-0.485-0.461-1.376-0.669-1.784c-0.062-0.121-0.209-0.169-0.331-0.11l-1.097,0.531
				c-0.1,0.048-0.22,0.025-0.295-0.058l-1.248-1.384c-0.111-0.123-0.308-0.106-0.397,0.033l-1.097,1.722
				c-0.098,0.154-0.323,0.154-0.422,0l-1.097-1.722c-0.089-0.139-0.286-0.156-0.397-0.033L13.048,8.72
				c-0.074,0.083-0.195,0.106-0.295,0.058l-1.097-0.531c-0.122-0.059-0.269-0.011-0.331,0.11c-0.208,0.409-0.635,1.299-0.669,1.784
				c-0.188,2.672,2.023,5.49,5.344,5.49S21.531,12.812,21.344,10.141z"/>
			<path fill="#D9F07D" d="M21.344,10.141c-0.034-0.485-0.461-1.376-0.669-1.784c-0.062-0.121-0.209-0.169-0.331-0.11l-1.097,0.531
				c-0.1,0.049-0.22,0.025-0.295-0.058l-1.248-1.384c-0.111-0.123-0.308-0.106-0.397,0.033l-1.097,1.722
				C16.162,9.168,16.081,9.206,16,9.206v6.424C19.321,15.63,21.531,12.812,21.344,10.141z"/>
			<path fill="#2B3332" d="M20.589,10.614c0.133,0.039,0.208,0.177,0.17,0.31c-0.275,0.941-0.886,1.328-1.348,1.487
				c-0.797,0.273-1.637,0.051-2.081-0.271c-0.111-0.081-0.137-0.237-0.057-0.349c0.081-0.111,0.238-0.137,0.35-0.056
				c0.354,0.255,1.028,0.409,1.625,0.203c0.504-0.173,0.86-0.572,1.03-1.154c0.032-0.109,0.132-0.18,0.24-0.18
				C20.542,10.604,20.565,10.607,20.589,10.614z"/>
			<g>
				<g>
					<path fill="#373F3F" d="M11.482,10.604c0.108,0,0.208,0.071,0.24,0.18c0.17,0.583,0.526,0.981,1.03,1.154
						c0.597,0.206,1.271,0.052,1.625-0.203c0.111-0.081,0.269-0.055,0.35,0.056c0.08,0.112,0.055,0.269-0.057,0.349
						c-0.444,0.322-1.284,0.544-2.081,0.271c-0.462-0.159-1.072-0.546-1.348-1.487c-0.038-0.133,0.037-0.271,0.17-0.31
						C11.435,10.607,11.458,10.604,11.482,10.604z"/>
				</g>
				<g>
					<path fill="#373F3F" d="M11.482,10.604c0.108,0,0.208,0.071,0.24,0.18c0.17,0.583,0.526,0.981,1.03,1.154
						c0.597,0.206,1.271,0.052,1.625-0.203c0.111-0.081,0.269-0.055,0.35,0.056c0.08,0.112,0.055,0.269-0.057,0.349
						c-0.444,0.322-1.284,0.544-2.081,0.271c-0.462-0.159-1.072-0.546-1.348-1.487c-0.038-0.133,0.037-0.271,0.17-0.31
						C11.435,10.607,11.458,10.604,11.482,10.604z"/>
				</g>
			</g>
		</g>
		<g>
			<path fill="#B93D4F" d="M17.809,14c0.198,0,0.247,0.116,0.109,0.258c0,0-0.72,0.742-1.918,0.742s-1.918-0.742-1.918-0.742
				C13.944,14.116,13.993,14,14.191,14H17.809z"/>
			<path fill="#A93949" d="M16,14h1.809c0.198,0,0.247,0.116,0.109,0.258c0,0-0.72,0.742-1.918,0.742V14z"/>
			<path fill="#C84054" d="M16,15c0.423,0,0.76-0.101,1.053-0.221C16.79,14.491,16.42,14.304,16,14.304
				c-0.42,0-0.79,0.187-1.053,0.475C15.24,14.899,15.577,15,16,15z"/>
			<path fill="#B93D4F" d="M16,14.304V15c0.423,0,0.76-0.101,1.053-0.221C16.79,14.491,16.42,14.304,16,14.304z"/>
		</g>
	</g>
</g>
</svg>
