<?xml version="1.0" encoding="utf-8"?>
<!-- Generator: Adobe Illustrator 23.0.6, SVG Export Plug-In . SVG Version: 6.00 Build 0)  -->
<svg version="1.1" xmlns="http://www.w3.org/2000/svg" xmlns:xlink="http://www.w3.org/1999/xlink" x="0px" y="0px" width="32px"
	 height="32px" viewBox="0 0 32 32" enable-background="new 0 0 32 32" xml:space="preserve">
<g id="labels">
	<g>
	</g>
</g>
<g id="icons">
	<g>
		<path fill="#FFD04D" d="M14,9c1.17-2.34,7.355-8.801,17.737-9c0.207-0.004,0.339,0.231,0.216,0.398
			c-1.23,1.678-6.484,8.073-15.761,9.104L14,9z"/>
		<path fill="#9FC9E4" d="M16,27.908c-8.284,0-15,0.091-15-8.481C1,13.51,7.716,6.479,16,6.479V27.908z"/>
		<path fill="#8EC0E0" d="M16,27.908c-6.918,0-12.742,0.063-14.475-4.907C4,24.5,16,24.5,16,24.5V27.908z"/>
		<path fill="#B0D3EA" d="M15.414,14.067c-0.828,0.188-1.516,0.834-1.782,1.641c-0.172,0.52-0.165,1.014-0.036,1.458
			c0.112,0.386,0.112,0.784,0,1.17c-0.128,0.444-0.136,0.937,0.036,1.458c0.267,0.806,0.954,1.452,1.782,1.641
			c0.199,0.045,0.395,0.065,0.587,0.065v-7.496C15.809,14.002,15.613,14.021,15.414,14.067z"/>
		<circle fill="#9FC9E4" cx="7" cy="28.5" r="2.5"/>
		<circle fill="#B0D3EA" cx="11" cy="29" r="3"/>
		<path fill="#9FC9E4" d="M15.648,15.54c-0.497,0.113-0.909,0.501-1.069,0.984c-0.103,0.312-0.099,0.608-0.022,0.875
			c0.067,0.232,0.067,0.471,0,0.702c-0.077,0.266-0.081,0.562,0.022,0.874c0.16,0.484,0.573,0.871,1.069,0.984
			c0.12,0.027,0.237,0.039,0.352,0.039v-4.498C15.885,15.501,15.768,15.513,15.648,15.54z"/>
		<path fill="#8EC0E0" d="M15.883,17.013c-0.166,0.038-0.303,0.167-0.356,0.328c-0.034,0.104-0.033,0.203-0.007,0.292
			c0.022,0.077,0.022,0.157,0,0.234c-0.026,0.089-0.027,0.187,0.007,0.291c0.053,0.161,0.191,0.29,0.356,0.328
			C15.923,18.496,15.962,18.5,16,18.5V17C15.962,17,15.923,17.004,15.883,17.013z"/>
		<path fill="#373F3F" d="M8.5,15.75c-0.097,0-0.188-0.057-0.229-0.15c-0.055-0.127,0.003-0.274,0.13-0.329l3.569-1.542
			c0.126-0.054,0.273,0.004,0.329,0.13c0.055,0.127-0.003,0.274-0.13,0.329l-3.569,1.542C8.567,15.743,8.533,15.75,8.5,15.75z"/>
		<path fill="#373F3F" d="M2.525,14.302C1.558,15.977,1,17.745,1,19.427c0,0.795,0.076,1.492,0.187,2.145l4.108-2.873
			c0.113-0.079,0.141-0.235,0.062-0.348L2.525,14.302z"/>
		<path fill="#8EC0E0" d="M16,27.908c8.284,0,15,0.091,15-8.481c0-5.917-6.716-12.948-15-12.948V27.908z"/>
		<path fill="#7FB8E0" d="M16,27.908c6.918,0,12.742,0.063,14.475-4.907C28,24.5,16,24.5,16,24.5V27.908z"/>
		<path fill="#9FC9E4" d="M16.586,14.067c0.828,0.188,1.516,0.834,1.782,1.641c0.172,0.52,0.165,1.014,0.036,1.458
			c-0.112,0.386-0.112,0.784,0,1.17c0.128,0.444,0.136,0.937-0.036,1.458c-0.267,0.806-0.954,1.452-1.782,1.641
			c-0.199,0.045-0.395,0.065-0.587,0.065v-7.496C16.191,14.002,16.387,14.021,16.586,14.067z"/>
		<circle fill="#8EC0E0" cx="25" cy="28.5" r="2.5"/>
		<circle fill="#9FC9E4" cx="21" cy="29" r="3"/>
		<path fill="#8EC0E0" d="M16.352,15.54c0.497,0.113,0.909,0.501,1.069,0.984c0.103,0.312,0.099,0.608,0.022,0.875
			c-0.067,0.232-0.067,0.471,0,0.702c0.077,0.266,0.081,0.562-0.022,0.874c-0.16,0.484-0.573,0.871-1.069,0.984
			c-0.12,0.027-0.237,0.039-0.352,0.039v-4.498C16.115,15.501,16.232,15.513,16.352,15.54z"/>
		<path fill="#7FB8E0" d="M16.117,17.013c0.166,0.038,0.303,0.167,0.356,0.328c0.034,0.104,0.033,0.203,0.007,0.292
			c-0.022,0.077-0.022,0.157,0,0.234c0.026,0.089,0.027,0.187-0.007,0.291c-0.053,0.161-0.191,0.29-0.356,0.328
			C16.077,18.496,16.038,18.5,16,18.5V17C16.038,17,16.077,17.004,16.117,17.013z"/>
		<path fill="#2B3332" d="M23.401,15.729l-3.569-1.542c-0.127-0.055-0.185-0.202-0.13-0.329c0.055-0.126,0.203-0.184,0.329-0.13
			l3.569,1.542c0.127,0.055,0.185,0.202,0.13,0.329c-0.041,0.094-0.133,0.15-0.229,0.15C23.467,15.75,23.433,15.743,23.401,15.729z"
			/>
		<path fill="#2B3332" d="M29.475,14.302C30.442,15.977,31,17.745,31,19.427c0,0.795-0.076,1.492-0.187,2.145l-4.108-2.873
			c-0.113-0.079-0.141-0.235-0.062-0.348L29.475,14.302z"/>
	</g>
</g>
</svg>
