<?xml version="1.0" encoding="utf-8"?>
<!-- Generator: Adobe Illustrator 23.0.6, SVG Export Plug-In . SVG Version: 6.00 Build 0)  -->
<svg version="1.1" xmlns="http://www.w3.org/2000/svg" xmlns:xlink="http://www.w3.org/1999/xlink" x="0px" y="0px" width="32px"
	 height="32px" viewBox="0 0 32 32" enable-background="new 0 0 32 32" xml:space="preserve">
<g id="labels">
	<g>
	</g>
</g>
<g id="icons">
	<g>
		<circle fill="#65A9DC" cx="25.634" cy="14.917" r="3.042"/>
		<path fill="#8EC0E0" d="M31.5,27.75C29.875,24.5,25.629,25.52,26,15C26.375,4.375,21.75,0,16,0S5.625,4.375,6,15
			c0.371,10.52-3.875,9.5-5.5,12.75C-0.618,29.986,1,32,3.125,32S4.875,29.875,7,29.875s2.125,2,4.5,2s2.125-2.625,4.5-2.625
			s2.125,2.625,4.5,2.625s2.375-2,4.5-2S26.75,32,28.875,32S32.618,29.986,31.5,27.75z"/>
		<circle fill="#71B1E1" cx="25.991" cy="16.31" r="2.447"/>
		<path fill="#7FB8E0" d="M16.586,6.233c0.828,0.188,1.516,0.834,1.782,1.641c0.172,0.52,0.165,1.014,0.036,1.458
			c-0.112,0.386-0.112,0.784,0,1.17c0.128,0.444,0.136,0.937-0.036,1.458c-0.267,0.806-0.954,1.452-1.782,1.641
			c-0.199,0.045-0.395,0.065-0.587,0.065V6.168C16.191,6.168,16.387,6.188,16.586,6.233z"/>
		<path fill="#71B1E1" d="M16.352,7.707c0.497,0.113,0.909,0.501,1.069,0.984c0.103,0.312,0.099,0.608,0.022,0.875
			c-0.067,0.232-0.067,0.471,0,0.702c0.077,0.266,0.081,0.562-0.022,0.874c-0.16,0.484-0.573,0.871-1.069,0.984
			c-0.12,0.027-0.237,0.039-0.352,0.039V7.668C16.115,7.668,16.232,7.679,16.352,7.707z"/>
		<path fill="#65A9DC" d="M16.117,9.18c0.166,0.038,0.303,0.167,0.356,0.328c0.034,0.104,0.033,0.203,0.007,0.292
			c-0.022,0.077-0.022,0.157,0,0.234c0.026,0.089,0.027,0.187-0.007,0.291c-0.053,0.161-0.191,0.29-0.356,0.328
			c-0.04,0.009-0.079,0.013-0.117,0.013V9.167C16.038,9.167,16.077,9.171,16.117,9.18z"/>
		<circle fill="#E85160" cx="19.833" cy="4.708" r="0.583"/>
		<path fill="#2B3332" d="M25.397,15.104c0.133-0.193,0.398-0.241,0.591-0.108L26,15.005c-0.142,4.047,0.4,6.382,1.212,7.912
			c-0.127,0.05-0.274,0.046-0.396-0.038l-4.248-2.936c-0.193-0.133-0.241-0.398-0.108-0.591L25.397,15.104z"/>
		<circle fill="#7FB8E0" cx="24.408" cy="15.727" r="2.447"/>
		<path fill="#FFD04D" d="M22.517,14.075c-0.675,0-1.268-0.209-1.773-0.628c-0.782-0.647-0.797-1.519-0.81-2.218
			c-0.009-0.487-0.016-0.909-0.241-1.213c-0.165-0.222-0.118-0.535,0.104-0.699c0.223-0.163,0.536-0.117,0.699,0.104
			c0.417,0.562,0.428,1.215,0.438,1.791c0.012,0.688,0.04,1.128,0.448,1.466c0.814,0.674,2.024,0.498,3.698-0.54
			c0.233-0.143,0.543-0.074,0.688,0.161c0.146,0.234,0.073,0.543-0.161,0.688C24.439,13.713,23.406,14.075,22.517,14.075z"/>
		<circle fill="#71B1E1" cx="6.366" cy="14.917" r="3.042"/>
		<circle fill="#7FB8E0" cx="6.009" cy="16.31" r="2.447"/>
		<path fill="#9FC9E4" d="M16,0C10.25,0,5.625,4.375,6,15c0.371,10.52-3.875,9.5-5.5,12.75C-0.618,29.986,1,32,3.125,32
			S4.875,29.875,7,29.875s2.125,2,4.5,2s2.125-2.625,4.5-2.625V0z"/>
		<path fill="#8EC0E0" d="M15.414,6.233c-0.828,0.188-1.516,0.834-1.782,1.641c-0.172,0.52-0.165,1.014-0.036,1.458
			c0.112,0.386,0.112,0.784,0,1.17c-0.128,0.444-0.136,0.937,0.036,1.458c0.267,0.806,0.954,1.452,1.782,1.641
			c0.199,0.045,0.395,0.065,0.587,0.065V6.168C15.809,6.168,15.613,6.188,15.414,6.233z"/>
		<path fill="#7FB8E0" d="M15.648,7.707c-0.497,0.113-0.909,0.501-1.069,0.984c-0.103,0.312-0.099,0.608-0.022,0.875
			c0.067,0.232,0.067,0.471,0,0.702c-0.077,0.266-0.081,0.562,0.022,0.874c0.16,0.484,0.573,0.871,1.069,0.984
			c0.12,0.027,0.237,0.039,0.352,0.039V7.668C15.885,7.668,15.768,7.679,15.648,7.707z"/>
		<path fill="#71B1E1" d="M15.883,9.18c-0.166,0.038-0.303,0.167-0.356,0.328c-0.034,0.104-0.033,0.203-0.007,0.292
			c0.022,0.077,0.022,0.157,0,0.234c-0.026,0.089-0.027,0.187,0.007,0.291c0.053,0.161,0.191,0.29,0.356,0.328
			c0.04,0.009,0.079,0.013,0.117,0.013V9.167C15.962,9.167,15.923,9.171,15.883,9.18z"/>
		<circle fill="#F3586F" cx="12.167" cy="4.708" r="0.583"/>
		<path fill="#373F3F" d="M9.54,19.352c0.133,0.193,0.085,0.457-0.108,0.591l-4.248,2.936c-0.121,0.084-0.268,0.088-0.396,0.038
			C5.6,21.386,6.142,19.051,6,15.005l0.013-0.009c0.193-0.133,0.457-0.085,0.591,0.108L9.54,19.352z"/>
		<path fill="#2B3332" d="M19.883,19.622l-3.588-3.588c-0.081-0.081-0.188-0.122-0.295-0.122s-0.213,0.041-0.295,0.122l-3.588,3.588
			c-0.163,0.163-0.163,0.427,0,0.59l3.588,3.588c0.081,0.081,0.188,0.122,0.295,0.122s0.213-0.041,0.295-0.122l3.588-3.588
			C20.046,20.049,20.046,19.785,19.883,19.622z"/>
		<circle fill="#8EC0E0" cx="7.592" cy="15.727" r="2.447"/>
		<path fill="#FFD96C" d="M9.483,14.075c-0.89,0-1.922-0.362-3.091-1.088c-0.234-0.146-0.307-0.454-0.161-0.688
			c0.146-0.235,0.456-0.304,0.688-0.161c1.673,1.038,2.882,1.214,3.698,0.54c0.408-0.338,0.437-0.777,0.448-1.466
			c0.011-0.576,0.021-1.229,0.438-1.791c0.164-0.221,0.478-0.267,0.699-0.104c0.222,0.164,0.269,0.478,0.104,0.699
			c-0.226,0.304-0.232,0.726-0.241,1.213c-0.013,0.699-0.027,1.57-0.81,2.218C10.751,13.866,10.158,14.075,9.483,14.075z"/>
		<path fill="#373F3F" d="M16,15.911v8.011c-0.107,0-0.213-0.041-0.295-0.122l-3.588-3.588c-0.163-0.163-0.163-0.427,0-0.59
			l3.588-3.588C15.787,15.952,15.893,15.911,16,15.911z"/>
	</g>
</g>
</svg>
