<?xml version="1.0" encoding="utf-8"?>
<!-- Generator: Adobe Illustrator 23.0.6, SVG Export Plug-In . SVG Version: 6.00 Build 0)  -->
<svg version="1.1" xmlns="http://www.w3.org/2000/svg" xmlns:xlink="http://www.w3.org/1999/xlink" x="0px" y="0px" width="32px"
	 height="32px" viewBox="0 0 32 32" enable-background="new 0 0 32 32" xml:space="preserve">
<g id="labels">
	<g>
	</g>
</g>
<g id="icons">
	<g>
		<path fill="#456F93" d="M8.368,15.773c-3.14-0.646-5.217-0.546-6.255,0.331c-1.403,1.185-2.518,4.477-1.97,7.046
			s2.722,3.38,3.569,3.085c0.848-0.294,4.02-3.943,5.151-5.851S8.368,15.773,8.368,15.773z"/>
		<path fill="#FAE09F" d="M16,26.438c-6.179,0-11.188-3.009-11.188-9.188S9.821,5.562,16,5.562V26.438z"/>
		<path fill="#FDEBBB" d="M16,26.438c-6.179,0-11.188-3.009-11.188-9.188c0-3.351,1.473-6.504,3.807-8.689
			C9,24.25,16,26.438,16,26.438z"/>
		<path fill="#3E688C" d="M23.632,15.773c3.14-0.646,5.217-0.546,6.255,0.331c1.403,1.185,2.518,4.477,1.97,7.046
			c-0.548,2.57-2.722,3.38-3.569,3.085c-0.848-0.294-4.02-3.943-5.151-5.851C22.006,18.476,23.632,15.773,23.632,15.773z"/>
		<path fill="#F7D684" d="M16,5.562c6.179,0,11.188,5.509,11.188,11.688S22.179,26.438,16,26.438V5.562z"/>
		<path fill="#FAE09F" d="M23.381,8.561c2.334,2.185,3.807,5.339,3.807,8.689c0,6.179-5.009,9.188-11.188,9.188
			C16,26.438,23,24.25,23.381,8.561z"/>
		<path fill="#FFFFFF" d="M7,12.938c0,1.917,2.25,4.625,9,4.625v-4.625H7z"/>
		<path fill="#FFFFFF" d="M25,12.938c0,1.917-2.25,4.625-9,4.625v-4.625H25z"/>
		<path fill="#FFFFFF" d="M14,17.468c0.621,0.057,1.28,0.094,2,0.094v-4.625h-2V17.468z"/>
		<path fill="#F7F7F7" d="M12,17.162c0.602,0.135,1.268,0.238,2,0.306v-4.531h-2V17.162z"/>
		<path fill="#FFFFFF" d="M10,16.517c0.57,0.254,1.235,0.473,2,0.645v-4.225h-2V16.517z"/>
		<path fill="#F7F7F7" d="M8,15.167c0.471,0.497,1.129,0.962,2,1.351v-3.58H8V15.167z"/>
		<path fill="#FFFFFF" d="M8,12.938H7c0,0.695,0.301,1.493,1,2.229V12.938z"/>
		<path fill="#F7F7F7" d="M18,17.468c-0.621,0.057-1.28,0.094-2,0.094v-4.625h2V17.468z"/>
		<path fill="#EDEEEE" d="M20,17.162c-0.602,0.135-1.268,0.238-2,0.306v-4.531h2V17.162z"/>
		<path fill="#F7F7F7" d="M22,16.517c-0.57,0.254-1.235,0.473-2,0.645v-4.225h2V16.517z"/>
		<path fill="#EDEEEE" d="M24,15.167c-0.471,0.497-1.129,0.962-2,1.351v-3.58h2V15.167z"/>
		<path fill="#F7F7F7" d="M24,12.938h1c0,0.695-0.301,1.493-1,2.229V12.938z"/>
		<path fill="#456F93" d="M16,5.562c-6.179,0-11.208,5.417-11.208,11.75c3.75-6.375,5.03-3,11.208-3s7.458-3.375,11.208,3
			C27.208,10.979,22.179,5.562,16,5.562z"/>
		<path fill="#4D7495" d="M16,14.312c-6.179,0-7.458-3.375-11.208,3c0-6.333,5.03-11.75,11.208-11.75V14.312z"/>
		<g>
			<path fill="#373F3F" d="M12,10c-0.552,0-1,0.448-1,1c0,0.552,0.448,1,1,1s1-0.448,1-1C13,10.448,12.552,10,12,10L12,10z"/>
			<circle fill="#FFFFFF" cx="12" cy="11" r="0.5"/>
		</g>
		<g>
			<path fill="#2B3332" d="M20,10c-0.552,0-1,0.448-1,1c0,0.552,0.448,1,1,1s1-0.448,1-1C21,10.448,20.552,10,20,10L20,10z"/>
			<circle fill="#F7F7F7" cx="20" cy="11" r="0.5"/>
		</g>
	</g>
</g>
</svg>
