<?xml version="1.0" encoding="utf-8"?>
<!-- Generator: Adobe Illustrator 23.0.6, SVG Export Plug-In . SVG Version: 6.00 Build 0)  -->
<svg version="1.1" xmlns="http://www.w3.org/2000/svg" xmlns:xlink="http://www.w3.org/1999/xlink" x="0px" y="0px" width="32px"
	 height="32px" viewBox="0 0 32 32" enable-background="new 0 0 32 32" xml:space="preserve">
<g id="labels">
	<g>
	</g>
</g>
<g id="icons">
	<g>
		<path fill="#B370B9" d="M8.798,17.712c-3.14-0.646-1.967-2.171-3.005-1.294c-1.403,1.185-6.298,2.43-5.75,5s2.652,3.919,3.5,3.625
			s3.482-3.145,4.613-5.053S8.798,17.712,8.798,17.712z"/>
		<path fill="#A366AD" d="M15.36,20.629c-3.14-0.646-1.967-2.171-3.005-1.294c-1.403,1.185-6.298,2.43-5.75,5s2.652,3.919,3.5,3.625
			c0.848-0.294,3.482-3.145,4.613-5.053S15.36,20.629,15.36,20.629z"/>
		<path fill="#A366AD" d="M23.202,17.712c3.14-0.646,1.967-2.171,3.005-1.294c1.403,1.185,6.298,2.43,5.75,5s-2.652,3.919-3.5,3.625
			c-0.848-0.294-3.482-3.145-4.613-5.053C22.713,18.081,23.202,17.712,23.202,17.712z"/>
		<path fill="#945BA0" d="M16.64,20.629c3.14-0.646,1.967-2.171,3.005-1.294c1.403,1.185,6.298,2.43,5.75,5
			c-0.548,2.57-2.652,3.919-3.5,3.625c-0.848-0.294-3.482-3.145-4.613-5.053C16.151,20.999,16.64,20.629,16.64,20.629z"/>
		<path fill="#E3E5E5" d="M16.001,26c-6.621,0-11.989-3.171-11.989-9.683S9.379,4,16.001,4V26z"/>
		<path fill="#EDEEEE" d="M16.001,26c-6.621,0-11.989-3.171-11.989-9.683c0-3.531,1.579-6.855,4.08-9.158
			C8.499,23.695,16.001,26,16.001,26z"/>
		<path fill="#DADDDC" d="M16.001,4C22.622,4,27.99,9.806,27.99,16.317S22.622,26,16.001,26V4z"/>
		<path fill="#E3E5E5" d="M23.91,7.16c2.501,2.303,4.08,5.626,4.08,9.158c0,6.512-5.368,9.683-11.989,9.683
			C16.001,26,23.502,23.695,23.91,7.16z"/>
		<path fill="#C27BC6" d="M16.001,13.222c-6.621,0-9.377-0.395-12.011,3.162C3.99,9.709,9.38,4,16.001,4V13.222z"/>
		<path fill="#B370B9" d="M15.978,13.222c6.621,0,9.377-0.395,12.011,3.162C27.99,9.709,22.6,4,15.978,4V13.222z"/>
		<g>
			<path fill="#373F3F" d="M12,9c-0.552,0-1,0.448-1,1c0,0.552,0.448,1,1,1s1-0.448,1-1C13,9.448,12.552,9,12,9L12,9z"/>
			<circle fill="#FFFFFF" cx="12" cy="10" r="0.5"/>
		</g>
		<g>
			<path fill="#2B3332" d="M20,9c-0.552,0-1,0.448-1,1c0,0.552,0.448,1,1,1s1-0.448,1-1C21,9.448,20.552,9,20,9L20,9z"/>
			<circle fill="#F7F7F7" cx="20" cy="10" r="0.5"/>
		</g>
	</g>
</g>
</svg>
