<?xml version="1.0" encoding="utf-8"?>
<!-- Generator: Adobe Illustrator 23.0.6, SVG Export Plug-In . SVG Version: 6.00 Build 0)  -->
<svg version="1.1" xmlns="http://www.w3.org/2000/svg" xmlns:xlink="http://www.w3.org/1999/xlink" x="0px" y="0px" width="32px"
	 height="32px" viewBox="0 0 32 32" enable-background="new 0 0 32 32" xml:space="preserve">
<g id="labels">
	<g>
	</g>
</g>
<g id="icons">
	<g>
		<g>
			<path fill="#CE692C" d="M7.077,25.75h7l-0.923,4.844C13.11,30.829,12.904,31,12.664,31H8.491C8.251,31,8.045,30.829,8,30.594
				L7.077,25.75z"/>
			<path fill="#D6712D" d="M4,25h7l-0.939,6.571C10.026,31.817,9.815,32,9.566,32H5.434c-0.249,0-0.46-0.183-0.495-0.429L4,25z"/>
			<path fill="#C95F2B" d="M24.923,25.75h-7l0.923,4.844C18.89,30.829,19.096,31,19.336,31h4.172c0.24,0,0.446-0.171,0.491-0.406
				L24.923,25.75z"/>
			<path fill="#CE692C" d="M28,25h-7l0.939,6.571C21.974,31.817,22.185,32,22.434,32h4.133c0.249,0,0.46-0.183,0.495-0.429L28,25z"
				/>
			<path fill="#FFFFFF" d="M23,30.005c-0.276,0-0.5,0.352-0.5,1.995H23h0.5C23.5,30.357,23.276,30.005,23,30.005z"/>
			<path fill="#FFFFFF" d="M24.5,30.005c-0.276,0-0.5,0.352-0.5,1.995h0.5H25C25,30.357,24.776,30.005,24.5,30.005z"/>
			<path fill="#FFFFFF" d="M26,30.005c-0.276,0-0.5,0.352-0.5,1.995H26h0.5C26.5,30.357,26.276,30.005,26,30.005z"/>
			<path fill="#EDEEEE" d="M23,30.005c-0.276,0-0.5,0.352-0.5,1.995H23h0.5C23.5,30.357,23.276,30.005,23,30.005z"/>
			<path fill="#EDEEEE" d="M24.5,30.005c-0.276,0-0.5,0.352-0.5,1.995h0.5H25C25,30.357,24.776,30.005,24.5,30.005z"/>
			<path fill="#EDEEEE" d="M26,30.005c-0.276,0-0.5,0.352-0.5,1.995H26h0.5C26.5,30.357,26.276,30.005,26,30.005z"/>
			<path fill="#F7F7F7" d="M6,30.005c-0.276,0-0.5,0.352-0.5,1.995H6h0.5C6.5,30.357,6.276,30.005,6,30.005z"/>
			<path fill="#F7F7F7" d="M7.5,30.005C7.224,30.005,7,30.357,7,32h0.5H8C8,30.357,7.776,30.005,7.5,30.005z"/>
			<path fill="#F7F7F7" d="M9,30.005c-0.276,0-0.5,0.352-0.5,1.995H9h0.5C9.5,30.357,9.276,30.005,9,30.005z"/>
		</g>
		<path fill="#99533D" d="M16,7.479c-8.284,0-15,7.031-15,12.948c0,5.469,6.716,8.481,15,8.481s15-3.012,15-8.481
			C31,14.51,24.284,7.479,16,7.479z"/>
		<path fill="#DD7731" d="M30.958,20.972C30.973,20.791,31,20.614,31,20.427C31,20.614,30.975,20.791,30.958,20.972l-2.68-1.787
			c-0.168-0.112-0.387-0.112-0.555,0l-2.445,1.63c-0.168,0.112-0.387,0.112-0.555,0l-2.445-1.63c-0.168-0.112-0.387-0.112-0.555,0
			l-2.445,1.63c-0.168,0.112-0.387,0.112-0.555,0l-2.445-1.63c-0.168-0.112-0.387-0.112-0.555,0l-2.445,1.63
			c-0.168,0.112-0.387,0.112-0.555,0l-2.445-1.63c-0.168-0.112-0.387-0.112-0.555,0l-2.445,1.63c-0.168,0.112-0.387,0.112-0.555,0
			l-2.445-1.63c-0.168-0.112-0.387-0.112-0.555,0l-2.68,1.787C1.025,20.791,1,20.614,1,20.427c0,0.187,0.027,0.364,0.042,0.545L1,21
			h0.045C1.503,26.101,8.013,28.908,16,28.908S30.497,26.101,30.955,21H31L30.958,20.972z"/>
		<path fill="#D6712D" d="M30.955,21H31l-0.042-0.028C30.973,20.791,31,20.614,31,20.427c0,0.187-0.025,0.364-0.042,0.545
			l-2.68-1.787c-0.168-0.112-0.387-0.112-0.555,0l-2.445,1.63c-0.168,0.112-0.387,0.112-0.555,0l-2.445-1.63
			c-0.168-0.112-0.387-0.112-0.555,0l-2.445,1.63c-0.168,0.112-0.387,0.112-0.555,0l-2.445-1.63
			c-0.084-0.056-0.181-0.084-0.277-0.084v9.807C23.987,28.908,30.497,26.101,30.955,21z"/>
		<path fill="#5A5353" d="M3.723,19.185c0.168-0.112,0.387-0.112,0.555,0l2.445,1.63c0.168,0.112,0.387,0.112,0.555,0l2.445-1.63
			c0.168-0.112,0.387-0.112,0.555,0l2.445,1.63c0.168,0.112,0.387,0.112,0.555,0l2.445-1.63c0.168-0.112,0.387-0.112,0.555,0
			l2.445,1.63c0.168,0.112,0.387,0.112,0.555,0l2.445-1.63c0.168-0.112,0.387-0.112,0.555,0l2.445,1.63
			c0.168,0.112,0.387,0.112,0.555,0l2.445-1.63c0.168-0.112,0.387-0.112,0.555,0l2.68,1.787C30.975,20.791,31,20.614,31,20.427
			c0-5.917-6.716-12.948-15-12.948S1,14.51,1,20.427c0,0.187,0.025,0.364,0.042,0.545L3.723,19.185z"/>
		<path fill="#635C5C" d="M16,18.1c-0.29,0-0.58,0.084-0.832,0.253L13,19.798l-2.167-1.444c-0.506-0.338-1.161-0.338-1.665,0
			L7,19.798l-2.167-1.444c-0.506-0.338-1.161-0.338-1.665,0L0.487,20.14c-0.46,0.306-0.584,0.927-0.277,1.387
			c0.306,0.458,0.925,0.584,1.387,0.277L4,20.202l2.167,1.444c0.506,0.338,1.161,0.338,1.665,0L10,20.202l2.167,1.444
			c0.506,0.338,1.161,0.338,1.665,0L16,20.202V18.1z"/>
		<path fill="#4F4949" d="M18.723,20.815c0.168,0.112,0.387,0.112,0.555,0l2.445-1.63c0.168-0.112,0.387-0.112,0.555,0l2.445,1.63
			c0.168,0.112,0.387,0.112,0.555,0l2.445-1.63c0.168-0.112,0.387-0.112,0.555,0l2.68,1.787C30.975,20.791,31,20.614,31,20.427
			c0-5.917-6.716-12.948-15-12.948v11.622c0.097,0,0.193,0.028,0.277,0.084L18.723,20.815z"/>
		<path fill="#5A5353" d="M28.854,17.714c-0.506-0.338-1.161-0.338-1.665,0l-2.168,1.445l-2.167-1.444
			c-0.506-0.338-1.161-0.338-1.665,0l-2.168,1.445l-2.167-1.444c-0.253-0.169-0.543-0.253-0.833-0.254v2.102l2.167,1.444
			c0.506,0.338,1.161,0.338,1.665,0l2.168-1.445l2.167,1.444c0.506,0.338,1.161,0.338,1.665,0l2.168-1.445l2.403,1.602
			c0.171,0.114,0.363,0.168,0.554,0.168c0.323,0,0.641-0.156,0.833-0.445c0.307-0.459,0.183-1.081-0.277-1.387L28.854,17.714z"/>
		<path fill="#EF8C48" d="M12.216,10.216l-0.337-0.337C11.316,9.316,11,8.553,11,7.757V6c0-2.761,2.239-6,5-6h0c2.761,0,5,3.239,5,6
			v1.757c0,0.796-0.316,1.559-0.879,2.121l-0.337,0.337c-0.488,0.488-0.69,1.192-0.535,1.864l1.402,8.077
			c0.69,2.989-1.58,5.843-4.648,5.843h-0.008c-3.068,0-5.338-2.854-4.648-5.843l1.402-8.077
			C12.906,11.408,12.704,10.704,12.216,10.216z"/>
		<path fill="#E8803A" d="M16.004,26c3.068,0,5.338-2.854,4.648-5.843l-1.402-8.077c-0.155-0.672,0.047-1.376,0.535-1.864
			l0.338-0.338C20.684,9.316,21,8.553,21,7.757V6c0-2.761-2.239-6-5-6v26H16.004z"/>
		<path fill="#2B3332" d="M17.134,7.069c-0.334,0.334-0.282,0.928-0.282,0.928s0.594,0.052,0.928-0.282s0.46-0.75,0.282-0.928
			C17.884,6.608,17.468,6.735,17.134,7.069z"/>
		<path fill="#373F3F" d="M14.864,7.069c0.334,0.334,0.282,0.928,0.282,0.928s-0.594,0.052-0.928-0.282s-0.46-0.75-0.282-0.928
			C14.114,6.608,14.53,6.735,14.864,7.069z"/>
		<path fill="#EF8C48" d="M20.849,4.319c0,1.105-0.672,2-1.5,2c-0.828,0-1.5-0.895-1.5-2s0.672-1.722,1.5-1.722
			C20.178,2.597,20.849,3.215,20.849,4.319z"/>
		<path fill="#D64F45" d="M23.2,10.669l1.429,1.429c0.063,0.063,0.088,0.155,0.065,0.241l-0.523,1.952
			c-0.023,0.086-0.091,0.154-0.177,0.177l-1.952,0.523c-0.086,0.023-0.178-0.002-0.241-0.065l-1.429-1.429
			c-0.063-0.063-0.088-0.155-0.065-0.241l0.523-1.952c0.023-0.086,0.091-0.154,0.177-0.177l1.952-0.523
			C23.045,10.582,23.137,10.606,23.2,10.669z"/>
		<path fill="#D64F45" d="M27.824,13H26.99c-0.089,0-0.172,0.048-0.216,0.125l-1.01,1.75c-0.045,0.077-0.045,0.173,0,0.25l1.01,1.75
			C26.818,16.952,26.9,17,26.99,17h2.021c0.089,0,0.172-0.048,0.216-0.125l0.577-0.999C29.291,14.877,28.617,13.909,27.824,13z"/>
		<path fill="#D6712D" d="M19,4c-0.459,0.064-0.832,0.218-1.146,0.387c0.027,1.073,0.684,1.933,1.495,1.933c0.828,0,1.5-0.895,1.5-2
			c0-0.019-0.004-0.036-0.004-0.055C20.348,4.052,19.724,3.899,19,4z"/>
		<g>
			<path fill="#F79654" d="M11.151,4.319c0,1.105,0.672,2,1.5,2s1.5-0.895,1.5-2s-0.672-1.722-1.5-1.722S11.151,3.215,11.151,4.319z
				"/>
			<path fill="#DD7731" d="M13,4c0.459,0.064,0.832,0.218,1.146,0.387c-0.027,1.073-0.684,1.933-1.495,1.933
				c-0.828,0-1.5-0.895-1.5-2c0-0.019,0.004-0.036,0.004-0.055C11.652,4.052,12.276,3.899,13,4z"/>
		</g>
		<g>
			<path fill="#E55D53" d="M11.17,11.305l0.523,1.952c0.023,0.086-0.002,0.178-0.065,0.241L10.2,14.927
				c-0.063,0.063-0.155,0.088-0.241,0.065l-1.952-0.523c-0.086-0.023-0.154-0.091-0.177-0.177L7.307,12.34
				c-0.023-0.086,0.002-0.178,0.065-0.241L8.8,10.669c0.063-0.063,0.155-0.088,0.241-0.065l1.952,0.523
				C11.08,11.151,11.147,11.218,11.17,11.305z"/>
			<path fill="#E55D53" d="M4.176,13H5.01c0.089,0,0.172,0.048,0.216,0.125l1.01,1.75c0.045,0.077,0.045,0.173,0,0.25l-1.01,1.75
				C5.182,16.952,5.1,17,5.01,17H2.99c-0.089,0-0.172-0.048-0.216-0.125l-0.577-0.999C2.709,14.877,3.383,13.909,4.176,13z"/>
		</g>
		<path fill="#635C5C" d="M16,18c-1.533,0-2.926-0.283-4.14-0.788l0.354-2.039C13.351,15.731,14.677,16,16,16
			c1.323,0,2.649-0.269,3.786-0.827l0.354,2.039C18.926,17.717,17.533,18,16,18z"/>
		<path fill="#5A5353" d="M20.14,17.212C18.926,17.717,17.533,18,16,18v-2c1.323,0,2.649-0.269,3.786-0.827L20.14,17.212z"/>
		<path fill="#E8803A" d="M16.004,26c3.068,0,5.338-2.854,4.648-5.843l-1.402-8.077c-0.155-0.672,0.047-1.376,0.535-1.864
			l0.338-0.338c0.337-0.337,0.572-0.75,0.717-1.194c-0.021-0.012-0.032-0.037-0.057-0.044c-0.899-0.242-1.746-0.241-2.518,0.003
			c-0.623,0.196-1.012,0.495-1.326,0.735C16.603,9.637,16.381,9.807,16,9.807s-0.603-0.17-0.939-0.427
			c-0.314-0.24-0.703-0.539-1.326-0.735c-0.771-0.245-1.619-0.246-2.518-0.003c-0.025,0.007-0.035,0.031-0.057,0.044
			c0.145,0.444,0.381,0.857,0.717,1.194l0.338,0.338c0.488,0.488,0.69,1.192,0.535,1.864l-1.402,8.077
			C10.659,23.146,12.929,26,15.996,26H16.004z"/>
		<path fill="#DD7731" d="M16.004,26c3.068,0,5.338-2.854,4.648-5.843l-1.402-8.077c-0.155-0.672,0.047-1.376,0.535-1.864
			l0.338-0.338c0.337-0.337,0.572-0.75,0.717-1.194c-0.021-0.012-0.032-0.037-0.057-0.044c-0.899-0.242-1.746-0.241-2.518,0.003
			c-0.623,0.196-1.012,0.495-1.326,0.735C16.603,9.637,16.381,9.807,16,9.807V26H16.004z"/>
	</g>
</g>
</svg>
