<?xml version="1.0" encoding="utf-8"?>
<!-- Generator: Adobe Illustrator 23.0.6, SVG Export Plug-In . SVG Version: 6.00 Build 0)  -->
<svg version="1.1" xmlns="http://www.w3.org/2000/svg" xmlns:xlink="http://www.w3.org/1999/xlink" x="0px" y="0px" width="32px"
	 height="32px" viewBox="0 0 32 32" enable-background="new 0 0 32 32" xml:space="preserve">
<g id="labels">
	<g>
	</g>
</g>
<g id="icons">
	<g>
		<path fill="#F9BDA0" d="M15.107,31.956c-0.044,0-0.087,0-0.13-0.001c-2.341-0.026-3.739-0.706-3.739-1.818
			c0-0.521,0.276-1.429,2.129-1.644c1.695-0.192,4.512,0.261,6.442,1.051c0.081-0.126,0.125-0.256,0.128-0.389
			c0.019-0.826-0.304-1.455-0.731-1.924c-0.983,0.649-2.358,0.954-3.517,0.954c-1.894,0-4.152-0.286-4.152-1.65
			c0-0.572,0.327-1.073,0.919-1.409c1.498-0.852,4.474-0.604,6.366,0.528c0.134,0.08,0.261,0.163,0.383,0.25
			c0.061-0.078,0.113-0.157,0.155-0.239c0.255-0.499,0.146-1.084-0.326-1.739c-0.161-0.224-0.11-0.536,0.114-0.698
			c0.226-0.161,0.537-0.109,0.698,0.114c0.883,1.227,0.707,2.188,0.404,2.779c-0.081,0.157-0.179,0.306-0.292,0.444
			c0.667,0.73,1.001,1.615,0.979,2.613c-0.007,0.294-0.083,0.562-0.216,0.803c0.627,0.359,1.056,0.764,1.157,1.191
			c0.063,0.269-0.104,0.538-0.373,0.601c-0.265,0.066-0.538-0.104-0.601-0.372c-0.042-0.182-0.366-0.418-0.872-0.665
			C18.848,31.613,16.73,31.956,15.107,31.956z M14.335,29.44c-0.295,0-0.581,0.015-0.853,0.047c-0.465,0.054-1.245,0.21-1.245,0.649
			c0,0.317,0.874,0.797,2.751,0.818c1.515,0.041,2.946-0.261,3.871-0.692C17.552,29.815,15.83,29.44,14.335,29.44z M14.832,25.62
			c-0.77,0-1.45,0.13-1.882,0.375c-0.413,0.234-0.413,0.465-0.413,0.54c0,0.167,0.776,0.65,3.152,0.65
			c1.004,0,1.982-0.242,2.694-0.628c-0.025-0.016-0.049-0.03-0.074-0.045C17.288,25.901,15.962,25.62,14.832,25.62z"/>
		<g>
			<path fill="#FCD2BE" d="M16,5.5c-4.971,0-9,6.029-9,11s4.029,8,9,8V5.5z"/>
			<path fill="#FAC7AF" d="M16,21.344c-4.971,0-7.375-2.062-8.823-3.099C8.006,22.17,11.641,24.5,16,24.5V21.344z"/>
			<path fill="#FCD2BE" d="M14.625,6.958c0,0-2.035-3.059-3.12-2.79s-1.421,4.79-1.421,4.79L14.625,6.958z"/>
			<path fill="#757F7E" d="M16,6c-1.657,0-3-1.343-3-3s1.343-3,3-3V6z"/>
			<path fill="#FCD2BE" d="M7.373,14.052c-1.132,0.784-3.702,2.395-3.179,3.528s4.747,0.61,4.747,0.61L7.373,14.052z"/>
			<path fill="#FAC7AF" d="M16,11.708c-2.167,0.042-3.781,0.167-4.313,2.073c-0.185,0.664,0,1.438,0.665,1.86
				c0.709,0.45,1.835-0.099,3.648-0.099V11.708z"/>
			<ellipse fill="#757F7E" cx="10.042" cy="12.278" rx="1.667" ry="0.931"/>
			<g>
				<path fill="#373F3F" d="M12.305,9.725c0.194-0.561,0.774-0.87,1.296-0.69c0.522,0.18,0.788,0.781,0.594,1.343
					c-0.194,0.561-0.774,0.87-1.296,0.69S12.111,10.287,12.305,9.725z"/>
				
					<ellipse transform="matrix(0.3264 -0.9452 0.9452 0.3264 -0.2151 19.1891)" fill="#FFFFFF" cx="13.356" cy="9.745" rx="0.5" ry="0.375"/>
			</g>
			<ellipse fill="#909997" cx="13.844" cy="13.844" rx="0.5" ry="0.75"/>
			<path fill="#FAC7AF" d="M16,5.5c4.971,0,9,6.029,9,11s-4.029,8-9,8V5.5z"/>
			<path fill="#F9BDA0" d="M16,21.344c4.971,0,7.375-2.062,8.823-3.099C23.994,22.17,20.359,24.5,16,24.5V21.344z"/>
			<path fill="#FAC7AF" d="M17.375,6.958c0,0,2.035-3.059,3.12-2.79c1.086,0.269,1.421,4.79,1.421,4.79L17.375,6.958z"/>
			<path fill="#687271" d="M16,6c1.657,0,3-1.343,3-3s-1.343-3-3-3V6z"/>
			<path fill="#FAC7AF" d="M24.627,14.052c1.132,0.784,3.702,2.395,3.179,3.528s-4.747,0.61-4.747,0.61L24.627,14.052z"/>
			<path fill="#F9BDA0" d="M16,11.708c2.167,0.042,3.781,0.167,4.312,2.073c0.185,0.664,0,1.438-0.665,1.86
				c-0.709,0.45-1.835-0.099-3.648-0.099V11.708z"/>
			<ellipse fill="#687271" cx="21.958" cy="12.278" rx="1.667" ry="0.931"/>
			<g>
				<path fill="#2B3332" d="M19.101,11.068c-0.522,0.18-1.102-0.129-1.296-0.69c-0.194-0.561,0.072-1.162,0.594-1.343
					c0.522-0.18,1.102,0.129,1.296,0.69C19.889,10.287,19.623,10.888,19.101,11.068z"/>
				
					<ellipse transform="matrix(0.9452 -0.3264 0.3264 0.9452 -2.1597 6.6188)" fill="#F7F7F7" cx="18.644" cy="9.745" rx="0.375" ry="0.5"/>
			</g>
			<ellipse fill="#838C8A" cx="18.156" cy="13.844" rx="0.5" ry="0.75"/>
		</g>
	</g>
</g>
</svg>
