<?xml version="1.0" encoding="utf-8"?>
<!-- Generator: Adobe Illustrator 23.0.6, SVG Export Plug-In . SVG Version: 6.00 Build 0)  -->
<svg version="1.1" xmlns="http://www.w3.org/2000/svg" xmlns:xlink="http://www.w3.org/1999/xlink" x="0px" y="0px" width="32px"
	 height="32px" viewBox="0 0 32 32" enable-background="new 0 0 32 32" xml:space="preserve">
<g id="labels">
	<g>
	</g>
</g>
<g id="icons">
	<path fill="#F297BE" d="M30.048,26c-0.083,0-0.167-0.021-0.244-0.063c-0.241-0.136-0.327-0.44-0.191-0.682
		c0.618-1.102,0.546-3.274-0.545-4.755c-0.55-0.746-1.565-1.56-3.282-1.19c-1.148,0.245-1.683,0.874-1.595,1.869
		c0.163-0.09,0.334-0.18,0.514-0.27c0.771-0.386,1.672-0.239,2.474,0.4c0.82,0.654,1.519,1.853,1.269,2.878
		c-0.153,0.626-0.635,1.05-1.358,1.191c-1.288,0.253-2.782-1.121-3.49-2.657c-0.736,0.515-1.096,0.902-1.101,0.908
		c-0.185,0.203-0.501,0.218-0.706,0.032c-0.204-0.186-0.219-0.501-0.034-0.705c0.028-0.03,0.514-0.56,1.508-1.219
		c-0.002-0.01-0.004-0.019-0.006-0.028c-0.355-1.729,0.51-2.992,2.315-3.379c1.746-0.37,3.271,0.185,4.296,1.575
		c1.217,1.651,1.492,4.271,0.612,5.839C30.393,25.908,30.223,26,30.048,26z M24.45,22.182c0.538,1.3,1.75,2.346,2.447,2.217
		c0.443-0.088,0.543-0.298,0.58-0.448c0.125-0.51-0.297-1.361-0.921-1.858c-0.285-0.229-0.846-0.569-1.403-0.288
		C24.899,21.93,24.665,22.057,24.45,22.182z"/>
	<path fill="#373F3F" d="M4.036,15.978c0.623-0.541,5.737-3.206,7.273-3.978l-1.604,5.46c-1.103,0.349-2.469,0.844-2.668,1.21
		c-0.929,1.715-1.123,2.963-1.658,3.428c-0.535,0.465-2.675-0.03-3.313-0.764C1.656,20.862,3.258,16.654,4.036,15.978z"/>
	<path fill="#B8A5E4" d="M4.126,22.597L3.241,23.26c-0.081,0.06-0.197,0.023-0.227-0.073l-0.329-1.056
		c-0.026-0.082-0.117-0.125-0.196-0.091l-0.593,0.252c-0.115,0.049-0.235-0.06-0.196-0.179l0.322-0.994
		c0.02-0.063,0.32-0.147,0.32-0.147c1.009-0.265,2.08,0.082,2.743,0.888c0,0,0.193,0.244,0.173,0.306L4.936,23.16
		c-0.039,0.119-0.199,0.138-0.264,0.03l-0.333-0.552C4.294,22.564,4.196,22.545,4.126,22.597z"/>
	<path fill="#2B3332" d="M27.964,15.978c-0.623-0.541-5.737-3.206-7.273-3.978l1.604,5.46c1.103,0.349,2.469,0.844,2.668,1.21
		c0.929,1.715,1.123,2.963,1.658,3.428c0.535,0.465,2.675-0.03,3.313-0.764C30.344,20.862,28.742,16.654,27.964,15.978z"/>
	<g>
		<path fill="#B8A5E4" d="M16,17.365V9.13h5.074c0,0,0,0.377-0.084,1.887c-0.084,1.51,0.839,3.522,1.887,5.241
			c0.898,1.472,2.586,3.93,1.739,6.974C20.291,21.819,16.198,17.572,16,17.365z"/>
		<path fill="#2B3332" d="M16,28V17.365c0.198,0.207,4.291,4.454,8.616,5.868c-0.142,0.511-0.326,1.05-0.649,1.58
			C22,28.033,16,28,16,28z"/>
	</g>
	<g>
		<path fill="#C6B7E9" d="M16,17.365V9.13h-5.074c0,0,0,0.377,0.084,1.887c0.084,1.51-0.839,3.522-1.887,5.241
			c-0.898,1.472-2.586,3.93-1.739,6.974C11.709,21.819,15.802,17.572,16,17.365z"/>
		<path fill="#373F3F" d="M16,28V17.365c-0.198,0.207-4.291,4.454-8.616,5.868c0.142,0.511,0.326,1.05,0.649,1.58
			C10,28.033,16,28,16,28z"/>
	</g>
	<g>
		<path fill="#2B3332" d="M20.854,22.207l3.575,0.511c1.881,0.269,3.314,1.84,3.314,3.744c0,0.913-0.278,1.822-0.994,2.538l-1,1.04
			l1.417,0.708c0.332,0.166,0.583,0.345,0.583,0.876c0,0.251-0.152,0.374-0.287,0.374L21.099,32c-0.135,0-0.349-0.125-0.349-0.575
			c0-0.362,0.207-0.509,0.391-0.692l0.692-0.692L18.854,27L20.854,22.207z"/>
		<path fill="#A78EDD" d="M25.75,31.938c0-0.625,0.243-1.185,0.627-1.584l0.79,0.395c0.332,0.166,0.583,0.345,0.583,0.876
			c0,0.251-0.152,0.374-0.287,0.374l-1.707,0C25.755,31.978,25.75,31.958,25.75,31.938z"/>
	</g>
	<g>
		<path fill="#373F3F" d="M11.146,22.207l-3.575,0.511c-1.881,0.269-3.314,1.84-3.314,3.744c0,0.913,0.278,1.822,0.994,2.538l1,1.04
			l-1.417,0.708c-0.332,0.166-0.583,0.345-0.583,0.876c0,0.251,0.152,0.374,0.287,0.374L10.901,32c0.135,0,0.349-0.125,0.349-0.575
			c0-0.362-0.207-0.509-0.391-0.692l-0.692-0.692L13.146,27L11.146,22.207z"/>
		<path fill="#B8A5E4" d="M6.25,31.938c0-0.625-0.243-1.185-0.627-1.584l-0.79,0.395c-0.332,0.166-0.583,0.345-0.583,0.876
			c0,0.251,0.152,0.374,0.287,0.374l1.707,0C6.245,31.978,6.25,31.958,6.25,31.938z"/>
	</g>
	<path fill="#A78EDD" d="M27.874,22.597l0.885,0.663c0.081,0.06,0.197,0.023,0.227-0.073l0.329-1.056
		c0.026-0.082,0.117-0.125,0.196-0.091l0.593,0.252c0.115,0.049,0.235-0.06,0.196-0.179l-0.322-0.994
		c-0.02-0.063-0.32-0.147-0.32-0.147c-1.009-0.265-2.08,0.082-2.743,0.888c0,0-0.193,0.244-0.173,0.306l0.322,0.994
		c0.039,0.119,0.199,0.138,0.264,0.03l0.333-0.552C27.706,22.564,27.804,22.545,27.874,22.597z"/>
	<g>
		<path fill="#434C4B" d="M14,17.936c0,1.105,0.895,2,2,2v-4C14.895,15.936,14,16.831,14,17.936z"/>
		<path fill="#373F3F" d="M18,17.936c0-1.105-0.895-2-2-2v4C17.105,19.936,18,19.04,18,17.936z"/>
	</g>
	<g>
		<path fill="#D4C9EF" d="M10,7.464C10,10.481,12.686,14,16,14V2C12.686,2,10,4.446,10,7.464z"/>
		<path fill="#C6B7E9" d="M22,7.464C22,4.446,19.314,2,16,2v12C19.314,14,22,10.481,22,7.464z"/>
	</g>
	<g>
		<path fill="#2B3332" d="M22.406,3.312c0.484-1.328,1.462-2.418,1.462-2.418l0.001,0.009c0.034-0.113,0.067-0.228,0.104-0.334
			c0.147-0.42-0.359-0.753-0.691-0.457c-1.411,1.258-2.945,3.557-3.58,4.555c-0.203,0.318-0.213,0.719-0.02,1.043
			c0.383,0.643,1.154,1.567,2.285,1.21c0.267-0.084,0.485-0.222,0.681-0.38C22.467,5.992,22.01,4.4,22.406,3.312z"/>
		<path fill="#F9ADC8" d="M23.648,2.695c-0.069-0.592,0.052-1.228,0.221-1.792l-0.001-0.009c0,0-0.977,1.09-1.462,2.418
			C22.01,4.4,22.467,5.992,22.648,6.54C23.683,5.705,23.797,3.979,23.648,2.695z"/>
	</g>
	<g>
		<path fill="#373F3F" d="M9.594,3.312C9.109,1.984,8.132,0.895,8.132,0.895L8.131,0.904C8.097,0.791,8.063,0.676,8.026,0.57
			C7.879,0.15,8.385-0.183,8.717,0.113c1.411,1.258,2.945,3.557,3.58,4.555c0.203,0.318,0.213,0.719,0.02,1.043
			c-0.383,0.643-1.154,1.567-2.285,1.21C9.766,6.836,9.548,6.699,9.352,6.54C9.533,5.992,9.99,4.4,9.594,3.312z"/>
		<path fill="#FAB8CD" d="M8.352,2.695C8.421,2.104,8.3,1.467,8.131,0.904l0.001-0.009c0,0,0.977,1.09,1.462,2.418
			C9.99,4.4,9.533,5.992,9.352,6.54C8.317,5.705,8.203,3.979,8.352,2.695z"/>
	</g>
	<g>
		<g>
			<g>
				<path fill="#FFFFFF" d="M12.287,8.263c-0.267,0.374-0.334,0.899-0.257,1.339C12.071,9.835,12.283,10,12.52,10l1.508,0
					c0.427,0,0.66-0.501,0.381-0.825c-0.373-0.434-0.95-0.874-1.563-1.089C12.643,8.015,12.412,8.087,12.287,8.263z"/>
			</g>
			<g>
				<path fill="#FFFFFF" d="M12.287,8.263c-0.267,0.374-0.334,0.899-0.257,1.339C12.071,9.835,12.283,10,12.52,10l1.508,0
					c0.427,0,0.66-0.501,0.381-0.825c-0.373-0.434-0.95-0.874-1.563-1.089C12.643,8.015,12.412,8.087,12.287,8.263z"/>
			</g>
		</g>
		<path fill="#373F3F" d="M13.103,8.19c-0.308,0.376-0.388,0.944-0.306,1.411c0.041,0.234,0.253,0.4,0.491,0.4l0.738,0
			c0.432,0,0.658-0.508,0.373-0.834C14.079,8.8,13.611,8.422,13.103,8.19z"/>
	</g>
	<g>
		<g>
			<g>
				<path fill="#FFFFFF" d="M19.713,8.263c0.267,0.374,0.334,0.899,0.257,1.339C19.929,9.835,19.717,10,19.48,10l-1.508,0
					c-0.427,0-0.66-0.501-0.381-0.825c0.373-0.434,0.95-0.874,1.563-1.089C19.357,8.015,19.588,8.087,19.713,8.263z"/>
			</g>
			<g>
				<path fill="#FFFFFF" d="M19.713,8.263c0.267,0.374,0.334,0.899,0.257,1.339C19.929,9.835,19.717,10,19.48,10l-1.508,0
					c-0.427,0-0.66-0.501-0.381-0.825c0.373-0.434,0.95-0.874,1.563-1.089C19.357,8.015,19.588,8.087,19.713,8.263z"/>
			</g>
		</g>
		<path fill="#2B3332" d="M18.894,8.191c0.308,0.376,0.391,0.943,0.31,1.409c-0.041,0.234-0.253,0.4-0.491,0.4l-0.738,0
			c-0.432,0-0.658-0.508-0.373-0.834C17.921,8.8,18.386,8.424,18.894,8.191z"/>
	</g>
	<g>
		<path fill="#373F3F" d="M15.5,2.5C15.5,2.776,15.724,3,16,3V2C15.724,2,15.5,2.224,15.5,2.5z"/>
		<path fill="#373F3F" d="M15,5c0,0.552,0.448,1,1,1V4C15.448,4,15,4.448,15,5z"/>
		<path fill="#2B3332" d="M16.5,2.5C16.5,2.224,16.276,2,16,2v1C16.276,3,16.5,2.776,16.5,2.5z"/>
		<path fill="#2B3332" d="M17,5c0-0.552-0.448-1-1-1v2C16.552,6,17,5.552,17,5z"/>
	</g>
	<g>
		<path fill="#F9ADC8" d="M14.89,11c-0.768,0-1.39,0.622-1.39,1.39v0.22c0,0.768,0.622,1.39,1.39,1.39H16v-3H14.89z"/>
		<path fill="#F8A1C4" d="M18.5,12.61v-0.22c0-0.768-0.622-1.39-1.39-1.39H16v3h1.11C17.878,14,18.5,13.378,18.5,12.61z"/>
	</g>
	<ellipse fill="#373F3F" cx="14.75" cy="12.5" rx="0.25" ry="0.5"/>
	<ellipse fill="#2B3332" cx="17.25" cy="12.5" rx="0.25" ry="0.5"/>
</g>
</svg>
