<?xml version="1.0" encoding="utf-8"?>
<!-- Generator: Adobe Illustrator 23.0.6, SVG Export Plug-In . SVG Version: 6.00 Build 0)  -->
<svg version="1.1" xmlns="http://www.w3.org/2000/svg" xmlns:xlink="http://www.w3.org/1999/xlink" x="0px" y="0px" width="32px"
	 height="32px" viewBox="0 0 32 32" enable-background="new 0 0 32 32" xml:space="preserve">
<g id="labels">
	<g>
	</g>
</g>
<g id="icons">
	<g>
		<path fill="#EFD4A7" d="M9.729,27.583c-0.021,0.896,1.865,3.88,1.865,3.88C11.767,31.793,12.108,32,12.48,32h1.231
			c0.37,0,0.71-0.204,0.883-0.531l1.343-2.531C15.938,28.938,9.766,26.017,9.729,27.583z"/>
		<path fill="#E7685F" d="M13.117,17.109c-0.847,0.226-4.81,2.876-6.448,4.817c-1.203,1.425,0.376,3.559,1.709,3.549
			c3.207-0.025,6.997-7.764,6.997-7.764L13.117,17.109z"/>
		<path fill="#F5DEB9" d="M16,16.582c-3.707,0-6.711,5.242-6.711,8.948s3.005,4.474,6.711,4.474V16.582z"/>
		<path fill="#EACEA1" d="M22.271,27.583c0.021,0.896-1.865,3.88-1.865,3.88C20.233,31.793,19.892,32,19.52,32h-1.231
			c-0.37,0-0.71-0.204-0.883-0.531l-1.343-2.531C16.062,28.938,22.234,26.017,22.271,27.583z"/>
		<path fill="#E7685F" d="M18.883,17.109c0.847,0.226,4.81,2.876,6.448,4.817c1.203,1.425-0.376,3.559-1.709,3.549
			c-3.207-0.025-6.997-7.764-6.997-7.764L18.883,17.109z"/>
		<path fill="#EFD4A7" d="M16,16.582c3.707,0,6.711,5.242,6.711,8.948S19.707,30.005,16,30.005V16.582z"/>
		<path fill="#E55D53" d="M16,27.78c0,0-4.494,0.218-6.711-2.249c0,3.707,3.005,4.474,6.711,4.474s6.711-0.768,6.711-4.474
			C20.494,27.998,16,27.78,16,27.78z"/>
		<path fill="#E7685F" d="M9.289,25.531c0,3.707,3.005,4.474,6.711,4.474V27.78C16,27.78,11.506,27.998,9.289,25.531z"/>
		<path fill="#FCE8CC" d="M11.58,5.295c-2.208-3.023-6.935-7.587-9.632-3.95c-2.674,3.607,2.949,6.781,6.489,8.037
			C8.156,10.187,8,11.018,8,11.835c0,3.774,3.72,6.833,8,6.833V4.001C14.296,3.972,12.804,4.475,11.58,5.295z"/>
		<path fill="#F5DEB9" d="M30.052,1.345c-2.697-3.637-7.425,0.927-9.632,3.95c-1.224-0.82-2.715-1.323-4.42-1.294v14.667
			c4.28,0,8-3.059,8-6.833c0-0.816-0.156-1.648-0.438-2.452C27.103,8.127,32.726,4.952,30.052,1.345z"/>
		<circle fill="#E7685F" cx="18.5" cy="14.5" r="2.5"/>
		<path fill="#E7685F" d="M25,3c-1.105,0-5,2.895-5,4c0,1.105,0.895,2,2,2s5-2.895,5-4C27,3.895,26.105,3,25,3z"/>
		<ellipse fill="#2B3332" cx="16" cy="13.146" rx="1.333" ry="0.521"/>
		<path fill="#2B3332" d="M22.62,7.537c-0.111,0-0.212-0.074-0.242-0.187c-0.035-0.134,0.045-0.271,0.179-0.306
			c1.194-0.313,4.432-1.438,5.06-2.853c0.36-0.812-0.268-1.292-0.469-1.42c-0.581-0.37-1.503-0.413-2.068,0.237
			c-0.432,0.495-0.545,1.011-0.289,1.312c0.208,0.246,0.697,0.346,1.278-0.011c0.118-0.072,0.272-0.036,0.344,0.082
			c0.072,0.118,0.035,0.271-0.082,0.344c-0.714,0.438-1.504,0.401-1.922-0.092c-0.321-0.381-0.438-1.124,0.294-1.964
			c0.749-0.86,1.959-0.812,2.714-0.331c0.741,0.473,0.999,1.274,0.657,2.045c-0.854,1.923-5.205,3.085-5.39,3.134
			C22.662,7.534,22.641,7.537,22.62,7.537z"/>
		<circle fill="#E9746A" cx="13" cy="10" r="3"/>
		<path fill="#373F3F" d="M16,12.625v1.042c-0.736,0-1.333-0.233-1.333-0.521S15.264,12.625,16,12.625z"/>
		<path fill="#373F3F" d="M11.594,14.125c-0.045,0-0.09-0.012-0.13-0.036c-0.063-0.039-1.558-0.965-1.558-2.401
			C9.906,10.08,10.86,9,12.281,9c1.251,0,2.125,0.771,2.125,1.875c0,1.291-0.687,2.125-1.75,2.125c-0.741,0-1.625-0.304-1.625-1.75
			c0-1.03,1.188-1.288,1.703-0.782c0.136,0.133,0.297,0.377,0.297,0.782c0,0.138-0.112,0.25-0.25,0.25s-0.25-0.112-0.25-0.25
			c0-0.184-0.051-0.331-0.147-0.425c-0.08-0.079-0.194-0.123-0.319-0.123c-0.215,0-0.533,0.146-0.533,0.548
			c0,0.876,0.337,1.25,1.125,1.25c0.771,0,1.25-0.623,1.25-1.625c0-0.95-0.816-1.375-1.625-1.375c-1.139,0-1.875,0.858-1.875,2.188
			c0,1.158,1.305,1.966,1.317,1.974c0.118,0.072,0.155,0.226,0.084,0.344C11.76,14.082,11.678,14.125,11.594,14.125z"/>
		<path fill="#2B3332" d="M20.406,14.125c-0.084,0-0.166-0.043-0.213-0.12c-0.072-0.117-0.035-0.271,0.083-0.343
			c0.013-0.009,1.317-0.821,1.317-1.975c0-1.329-0.736-2.188-1.875-2.188c-0.809,0-1.625,0.425-1.625,1.375
			c0,1.002,0.479,1.625,1.25,1.625c0.788,0,1.125-0.374,1.125-1.25c0-0.401-0.318-0.548-0.533-0.548
			c-0.125,0-0.239,0.044-0.319,0.123c-0.097,0.094-0.147,0.241-0.147,0.425c0,0.138-0.112,0.25-0.25,0.25s-0.25-0.112-0.25-0.25
			c0-0.405,0.161-0.649,0.297-0.782c0.516-0.506,1.703-0.248,1.703,0.782c0,1.446-0.884,1.75-1.625,1.75
			c-1.063,0-1.75-0.834-1.75-2.125C17.594,9.771,18.468,9,19.719,9c1.421,0,2.375,1.08,2.375,2.688c0,1.437-1.494,2.362-1.558,2.401
			C20.496,14.113,20.451,14.125,20.406,14.125z"/>
		<path fill="#E9746A" d="M9,8c0-1.105-0.895-2-2-2C5.964,6,5.122,6.791,5.02,7.8c1.143,0.669,2.37,1.211,3.417,1.583
			C8.437,9.384,8.436,9.386,8.436,9.388C8.784,9.028,9,8.54,9,8z"/>
		<path fill="#373F3F" d="M9.38,7.537c-0.021,0-0.042-0.003-0.063-0.008C9.132,7.48,4.78,6.318,3.927,4.396
			C3.585,3.625,3.843,2.823,4.584,2.351c0.755-0.482,1.965-0.529,2.714,0.331c0.732,0.84,0.615,1.583,0.294,1.964
			C7.173,5.139,6.382,5.175,5.67,4.737C5.553,4.665,5.516,4.512,5.588,4.394c0.071-0.119,0.226-0.155,0.344-0.082
			C6.514,4.668,7.003,4.569,7.21,4.322C7.466,4.021,7.353,3.505,6.921,3.01c-0.566-0.65-1.488-0.607-2.068-0.237
			C4.651,2.9,4.023,3.381,4.384,4.192c0.628,1.415,3.865,2.539,5.06,2.853C9.577,7.08,9.657,7.217,9.622,7.351
			C9.592,7.463,9.491,7.537,9.38,7.537z"/>
	</g>
</g>
</svg>
