<?xml version="1.0" encoding="utf-8"?>
<!-- Generator: Adobe Illustrator 23.0.6, SVG Export Plug-In . SVG Version: 6.00 Build 0)  -->
<svg version="1.1" xmlns="http://www.w3.org/2000/svg" xmlns:xlink="http://www.w3.org/1999/xlink" x="0px" y="0px" width="32px"
	 height="32px" viewBox="0 0 32 32" enable-background="new 0 0 32 32" xml:space="preserve">
<g id="labels">
	<g>
	</g>
</g>
<g id="icons">
	<g>
		<g>
			<path fill="#84ED82" d="M20.187,31.742l-1.892-0.324c-0.209-0.035-0.373-0.199-0.408-0.409l-0.324-1.891
				c-0.025-0.146,0.015-0.294,0.11-0.407c0.095-0.112,0.233-0.178,0.381-0.178l1.977,0.333c0.209,0.035,0.373,0.199,0.408,0.409
				l0.324,1.891c0.025,0.146-0.015,0.293-0.109,0.406c-0.096,0.112-0.234,0.178-0.382,0.178L20.187,31.742z"/>
			<path fill="#2B3332" d="M18.055,28.784c0.014,0,0.029,0.001,0.043,0.004l1.892,0.325c0.104,0.018,0.186,0.1,0.204,0.204
				l0.325,1.892c0.027,0.155-0.095,0.292-0.246,0.292c-0.014,0-0.029-0.001-0.043-0.004l-1.892-0.325
				c-0.104-0.018-0.186-0.1-0.204-0.204l-0.325-1.892C17.782,28.921,17.904,28.784,18.055,28.784z M18.055,28.284L18.055,28.284
				c-0.221,0-0.43,0.097-0.573,0.267c-0.143,0.169-0.203,0.392-0.166,0.61l0.325,1.892c0.054,0.313,0.3,0.559,0.612,0.612
				l1.892,0.325l0.042,0.007L20.272,32c0.221,0,0.43-0.097,0.573-0.267c0.143-0.169,0.203-0.392,0.166-0.61l-0.325-1.892
				c-0.054-0.313-0.3-0.559-0.612-0.612l-1.892-0.325l-0.042-0.007L18.055,28.284L18.055,28.284z"/>
		</g>
		<g>
			<path fill="#90FB89" d="M11.812,31.742l1.892-0.324c0.209-0.035,0.373-0.199,0.408-0.409l0.324-1.891
				c0.025-0.146-0.015-0.294-0.11-0.407c-0.095-0.112-0.233-0.178-0.381-0.178l-1.977,0.333c-0.209,0.035-0.373,0.199-0.408,0.409
				l-0.324,1.891c-0.025,0.146,0.015,0.293,0.109,0.406c0.096,0.112,0.234,0.178,0.382,0.178L11.812,31.742z"/>
			<path fill="#373F3F" d="M13.945,28.784c0.151,0,0.272,0.137,0.246,0.292l-0.325,1.892c-0.018,0.104-0.1,0.186-0.204,0.204
				l-1.892,0.325c-0.015,0.003-0.029,0.004-0.043,0.004c-0.151,0-0.272-0.137-0.246-0.292l0.325-1.892
				c0.018-0.104,0.1-0.186,0.204-0.204l1.892-0.325C13.917,28.785,13.931,28.784,13.945,28.784z M13.945,28.284l-0.086,0.004
				l-0.042,0.007l-1.892,0.325c-0.313,0.054-0.559,0.3-0.612,0.612l-0.325,1.892c-0.037,0.218,0.023,0.441,0.166,0.61
				C11.298,31.903,11.507,32,11.728,32l0.086-0.004l0.042-0.007l1.892-0.325c0.313-0.054,0.559-0.3,0.612-0.612l0.325-1.892
				c0.037-0.218-0.023-0.441-0.166-0.61C14.375,28.381,14.166,28.284,13.945,28.284L13.945,28.284L13.945,28.284z"/>
		</g>
		<g>
			<g>
				<g>
					<path fill="#2B3332" d="M22.676,24.806c-0.258,0-0.496-0.128-0.639-0.343l-4.398-6.65c-0.151-0.228-0.169-0.521-0.046-0.767
						c0.123-0.246,0.37-0.407,0.645-0.421c0,0,7.965-0.414,7.966-0.414c0.293,0,0.53,0.127,0.673,0.339l4.401,6.653
						c0.151,0.229,0.168,0.523,0.045,0.768c-0.124,0.245-0.371,0.406-0.645,0.42L22.676,24.806z"/>
					<path fill="#2B3332" d="M26.39,16.738c0.041,0.021,0.076,0.052,0.102,0.091l4.398,6.649c0.114,0.172-0.003,0.402-0.208,0.413
						l-7.962,0.414c-0.047,0.002-0.093-0.008-0.134-0.028c-0.041-0.021-0.076-0.052-0.102-0.091l-4.398-6.649
						c-0.114-0.172,0.003-0.402,0.208-0.413l7.962-0.414C26.303,16.708,26.349,16.718,26.39,16.738z M26.87,15.787
						c-0.207-0.104-0.438-0.153-0.669-0.141l-7.962,0.414c-0.476,0.025-0.905,0.305-1.12,0.73c-0.215,0.426-0.185,0.937,0.078,1.335
						l4.399,6.65c0.128,0.193,0.304,0.35,0.511,0.454s0.438,0.153,0.669,0.141l7.962-0.414c0.476-0.025,0.905-0.305,1.12-0.73
						s0.185-0.937-0.078-1.335l-4.398-6.649C27.253,16.049,27.077,15.891,26.87,15.787L26.87,15.787z"/>
				</g>
				<g>
					<path fill="#6CD275" d="M22.676,24.806c-0.258,0-0.496-0.128-0.639-0.343l-4.398-6.65c-0.151-0.228-0.169-0.521-0.046-0.767
						c0.123-0.246,0.37-0.407,0.645-0.421c0,0,7.965-0.414,7.966-0.414c0.293,0,0.53,0.127,0.673,0.339l4.401,6.653
						c0.151,0.229,0.168,0.523,0.045,0.768c-0.124,0.245-0.371,0.406-0.645,0.42L22.676,24.806z"/>
					<path fill="#2B3332" d="M26.39,16.738c0.041,0.021,0.076,0.052,0.102,0.091l4.398,6.649c0.114,0.172-0.003,0.402-0.208,0.413
						l-7.962,0.414c-0.047,0.002-0.093-0.008-0.134-0.028c-0.041-0.021-0.076-0.052-0.102-0.091l-4.398-6.649
						c-0.114-0.172,0.003-0.402,0.208-0.413l7.962-0.414C26.303,16.708,26.349,16.718,26.39,16.738z M26.87,15.787
						c-0.207-0.104-0.438-0.153-0.669-0.141l-7.962,0.414c-0.476,0.025-0.905,0.305-1.12,0.73c-0.215,0.426-0.185,0.937,0.078,1.335
						l4.399,6.65c0.128,0.193,0.304,0.35,0.511,0.454s0.438,0.153,0.669,0.141l7.962-0.414c0.476-0.025,0.905-0.305,1.12-0.73
						s0.185-0.937-0.078-1.335l-4.398-6.649C27.253,16.049,27.077,15.891,26.87,15.787L26.87,15.787z"/>
				</g>
			</g>
			<path fill="#78DF7C" d="M25.94,19.672l-7.938-0.727c-0.272-0.024-0.513-0.195-0.627-0.445s-0.086-0.543,0.074-0.766l4.657-6.471
				c0.145-0.2,0.378-0.319,0.624-0.319l8.008,0.73c0.272,0.024,0.513,0.194,0.627,0.443s0.086,0.543-0.074,0.767l-4.657,6.472
				c-0.141,0.198-0.374,0.318-0.621,0.318L25.94,19.672z"/>
			<path fill="#373F3F" d="M22.619,11.469c0.041-0.019,0.088-0.027,0.135-0.023l7.939,0.727c0.205,0.019,0.312,0.254,0.192,0.421
				l-4.657,6.471c-0.028,0.038-0.064,0.068-0.106,0.087c-0.041,0.019-0.088,0.027-0.135,0.023l-7.939-0.727
				c-0.205-0.019-0.312-0.254-0.192-0.421l4.657-6.471C22.54,11.517,22.577,11.488,22.619,11.469z M22.176,10.499
				c-0.211,0.096-0.393,0.246-0.528,0.434l-4.657,6.471c-0.278,0.387-0.329,0.897-0.131,1.331s0.616,0.73,1.09,0.774l7.94,0.727
				c0.23,0.021,0.463-0.019,0.674-0.115s0.393-0.246,0.528-0.434l4.657-6.471c0.278-0.387,0.329-0.897,0.131-1.331
				s-0.616-0.73-1.09-0.774l-7.939-0.727C22.62,10.364,22.387,10.403,22.176,10.499L22.176,10.499z"/>
		</g>
		<g>
			<path fill="#78DF7C" d="M1.322,24.391c-0.273-0.014-0.521-0.175-0.645-0.42c-0.123-0.244-0.106-0.538,0.045-0.768l4.398-6.649
				c0.146-0.217,0.385-0.344,0.64-0.344l8.002,0.415c0.274,0.014,0.521,0.175,0.645,0.421c0.123,0.245,0.105,0.539-0.047,0.768
				l-4.397,6.648c-0.143,0.216-0.381,0.344-0.639,0.344L1.322,24.391z"/>
			<path fill="#373F3F" d="M5.744,16.71l7.962,0.414c0.206,0.011,0.322,0.241,0.208,0.413l-4.398,6.649
				c-0.026,0.039-0.061,0.07-0.102,0.091c-0.041,0.021-0.087,0.031-0.134,0.028l-7.962-0.414c-0.206-0.011-0.322-0.241-0.208-0.413
				l4.398-6.649c0.026-0.039,0.061-0.07,0.102-0.091C5.651,16.718,5.697,16.708,5.744,16.71z M5.13,15.787
				c-0.207,0.104-0.383,0.261-0.511,0.454l-4.398,6.649c-0.263,0.398-0.293,0.909-0.078,1.335s0.644,0.705,1.12,0.73l7.962,0.414
				c0.231,0.012,0.462-0.037,0.669-0.141c0.207-0.104,0.383-0.261,0.511-0.454l4.399-6.65c0.263-0.398,0.293-0.909,0.078-1.335
				s-0.644-0.705-1.12-0.73l-7.962-0.414C5.568,15.634,5.337,15.683,5.13,15.787L5.13,15.787z"/>
			<path fill="#84ED82" d="M5.987,19.675c-0.247,0-0.48-0.12-0.623-0.321l-4.655-6.468c-0.16-0.225-0.188-0.519-0.074-0.768
				s0.354-0.419,0.628-0.443c0,0,7.946-0.728,7.95-0.728c0.309,0,0.538,0.119,0.68,0.315l4.658,6.472
				c0.16,0.223,0.188,0.516,0.074,0.766s-0.354,0.421-0.628,0.445l-7.962,0.729L5.987,19.675z"/>
			<path fill="#434C4B" d="M9.487,11.555l4.657,6.471c0.12,0.167,0.013,0.402-0.192,0.421l-7.939,0.727
				c-0.047,0.004-0.093-0.004-0.135-0.023S5.8,19.103,5.772,19.065l-4.657-6.471c-0.12-0.167-0.013-0.402,0.192-0.421l7.939-0.727
				c0.047-0.004,0.093,0.004,0.135,0.023S9.46,11.517,9.487,11.555z M9.824,10.499c-0.211-0.096-0.444-0.136-0.674-0.115
				L1.21,11.111c-0.475,0.043-0.893,0.34-1.09,0.774s-0.148,0.944,0.131,1.331l4.657,6.471c0.135,0.188,0.318,0.338,0.528,0.434
				c0.211,0.096,0.444,0.136,0.674,0.115l7.94-0.727c0.475-0.043,0.893-0.34,1.09-0.774s0.148-0.944-0.131-1.331l-4.657-6.471
				C10.217,10.745,10.034,10.595,9.824,10.499L9.824,10.499z"/>
		</g>
		<g>
			<path fill="#CBEB6B" d="M16,11c-2.702,0-4,2.764-4,5c0,4,2,13,2,13c0.188,1.138,0.846,3,2,3s1.812-1.862,2-3c0,0,2-9,2-13
				C20,13.764,18.702,11,16,11z"/>
			<path fill="#D9F07D" d="M16,32L16,32c-1.154,0-1.812-1.862-2-3c0,0-2-9-2-13c0-2.236,1.298-5,4-5h0L16,32z"/>
			<path fill="#D9F07D" d="M24.05,0.393c0.156-0.228-0.119-0.504-0.348-0.347l-5.777,4.27c-0.118,0.087-0.269,0.114-0.411,0.079
				C16.985,4.267,16.468,4.196,16,4.196s-0.985,0.07-1.514,0.198c-0.142,0.034-0.294,0.008-0.411-0.079l-5.777-4.27
				C8.069-0.11,7.793,0.165,7.95,0.393l3.404,4.975c0.14,0.205,0.095,0.476-0.091,0.642C10.507,6.686,10,7.524,10,8.482
				c0,2.571,3.429,3.429,6,2.571c2.571,0.857,6,0,6-2.571c0-0.958-0.507-1.796-1.263-2.472c-0.185-0.166-0.231-0.437-0.091-0.642
				L24.05,0.393z"/>
		</g>
		<path fill="#E6F490" d="M14.486,4.395c-0.142,0.034-0.294,0.008-0.411-0.079l-5.777-4.27C8.069-0.11,7.793,0.165,7.95,0.393
			l3.404,4.975c0.14,0.205,0.095,0.476-0.091,0.642C10.507,6.686,10,7.524,10,8.482c0,2.571,3.429,3.429,6,2.571V4.196
			C15.532,4.196,15.015,4.267,14.486,4.395z"/>
		<g>
			<path fill="#A3FA9E" d="M12.5,8c0,1.105-0.395,2-1.5,2S9,9.105,9,8s0.895-2,2-2S12.5,6.895,12.5,8z"/>
			<path fill="#B9FCB5" d="M12.155,8c-0.068,1.103-0.422,1.591-1.281,1.578c-0.589-0.009-1.031-0.914-1.031-1.539
				c0-1.176,0.534-1.539,1.422-1.539C11.718,6.5,12.216,7,12.155,8z"/>
			<path fill="#373F3F" d="M11.75,8.035c0,0.552-0.224,1-0.5,1s-0.626-0.448-0.626-1c0-0.552,0.287-0.882,0.563-0.882
				S11.75,7.483,11.75,8.035z"/>
		</g>
		<g>
			<path fill="#84ED82" d="M19.5,8c0,1.105,0.395,2,1.5,2c1.105,0,2-0.895,2-2s-0.895-2-2-2C19.895,6,19.5,6.895,19.5,8z"/>
			<path fill="#90FB89" d="M19.845,8c0.068,1.103,0.422,1.591,1.281,1.578c0.589-0.009,1.031-0.914,1.031-1.539
				c0-1.176-0.534-1.539-1.422-1.539C20.282,6.5,19.784,7,19.845,8z"/>
			<path fill="#2B3332" d="M20.25,8.035c0,0.552,0.224,1,0.5,1c0.276,0,0.626-0.448,0.626-1c0-0.552-0.287-0.882-0.563-0.882
				S20.25,7.483,20.25,8.035z"/>
		</g>
		<g>
			<g>
				<path fill="#FF6B8B" d="M14.906,8.06C14.864,8.048,15.587,8.228,16,8.228v0.799c-0.345,0-0.713-0.133-1.117-0.228L14.906,8.06z
					 M13.148,7.779C13.218,7.746,13,7.805,13,8c0,0.243,0.127,0.56,0.333,0.885c0.231-0.101,0.448-0.145,0.658-0.164L13.148,7.779z"
					/>
				<path fill="#FF7899" d="M14.883,8.799l-0.008,0.265c-0.007,0.226-0.286,0.327-0.436,0.159l-0.448-0.501
					c-0.21,0.019-0.427,0.063-0.658,0.164c0,0,0,0,0,0.001c0.116,0.183,0.262,0.368,0.429,0.545
					c0.013,0.014,0.025,0.028,0.038,0.042c0.065,0.067,0.136,0.13,0.207,0.193c0.061,0.054,0.124,0.106,0.189,0.156
					c0.06,0.047,0.12,0.094,0.183,0.137c0.133,0.091,0.273,0.174,0.42,0.246c0.038,0.019,0.079,0.032,0.118,0.05
					c0.127,0.056,0.258,0.103,0.393,0.14c0.049,0.014,0.097,0.027,0.147,0.038C15.635,10.473,15.814,10.5,16,10.5V9.027
					C15.655,9.027,15.287,8.894,14.883,8.799z"/>
				<path fill="#FFFFFF" d="M13.145,7.771l0.846,0.951l0.448,0.501c0.15,0.168,0.429,0.067,0.436-0.159l0.008-0.265l0.023-0.738
					C14.514,7.963,13.325,7.716,13.145,7.771z"/>
				<path fill="#FF5F7E" d="M17.117,8.799C16.713,8.894,16.345,9.027,16,9.027V8.228c0.413,0,1.136-0.18,1.094-0.167L17.117,8.799z
					 M18.009,8.722c0.21,0.019,0.427,0.063,0.658,0.164C18.873,8.56,19,8.243,19,8c0-0.195-0.218-0.254-0.148-0.221L18.009,8.722z"
					/>
				<path fill="#FF6B8B" d="M17.117,8.799l0.008,0.265c0.007,0.226,0.286,0.327,0.436,0.159l0.448-0.501
					c0.21,0.019,0.427,0.063,0.658,0.164c0,0,0,0,0,0.001c-0.116,0.183-0.262,0.368-0.429,0.545
					C18.225,9.445,18.214,9.46,18.2,9.474c-0.065,0.067-0.136,0.13-0.207,0.193c-0.061,0.054-0.124,0.106-0.189,0.156
					c-0.06,0.047-0.12,0.094-0.183,0.137c-0.133,0.091-0.273,0.174-0.42,0.246c-0.038,0.019-0.079,0.032-0.118,0.05
					c-0.127,0.056-0.258,0.103-0.393,0.14c-0.049,0.014-0.097,0.027-0.147,0.038C16.365,10.473,16.186,10.5,16,10.5V9.027
					C16.345,9.027,16.713,8.894,17.117,8.799z"/>
				<path fill="#F7F7F7" d="M18.855,7.771l-0.846,0.951l-0.448,0.501c-0.15,0.168-0.429,0.067-0.436-0.159l-0.008-0.265
					l-0.023-0.738C17.486,7.963,18.675,7.716,18.855,7.771z"/>
			</g>
		</g>
		<path fill="#434C4B" d="M26.515,15.646c0.103,0.115,0.085,0.293-0.042,0.379l-0.415,0.283c-0.099,0.068-0.235,0.058-0.316-0.03
			c-0.445-0.482-1.242-0.722-1.544-0.516c-0.302,0.206-0.369,1.036-0.083,1.626c0.052,0.108,0.012,0.238-0.087,0.306l-0.415,0.283
			c-0.127,0.086-0.299,0.039-0.368-0.098c-0.357-0.706-0.421-1.689-0.076-2.376c0.048-0.095,0.041-0.211-0.032-0.289
			c-0.87-0.924-2.068-1.375-3.584-1.322c-0.285,0.01-0.567,0.041-0.843,0.083c-0.073,0.011-0.146-0.012-0.201-0.062
			c-0.155-0.144-0.318-0.281-0.488-0.409c-0.171-0.129-0.107-0.4,0.103-0.442c1.918-0.38,4.228-0.188,5.82,1.59
			c0.056,0.062,0.139,0.088,0.221,0.072C24.962,14.571,25.949,15.012,26.515,15.646z M22.487,20.076
			c-0.077-0.033-0.131-0.101-0.142-0.184c-0.313-2.367-2.113-3.827-3.912-4.594c-0.197-0.084-0.403,0.104-0.334,0.307
			c0.068,0.202,0.126,0.407,0.172,0.613c0.016,0.072,0.064,0.132,0.131,0.164c0.252,0.121,0.503,0.255,0.743,0.407
			c1.282,0.81,2.017,1.857,2.215,3.111c0.017,0.105-0.043,0.205-0.136,0.257c-0.672,0.373-1.173,1.221-1.276,2.006
			c-0.02,0.152,0.096,0.288,0.249,0.288l0.503,0c0.12,0,0.227-0.085,0.244-0.203c0.096-0.649,0.619-1.297,0.984-1.297
			s0.889,0.647,0.984,1.297c0.018,0.119,0.124,0.203,0.244,0.203l0.503,0c0.154,0,0.269-0.137,0.249-0.29
			C23.8,21.32,23.233,20.399,22.487,20.076z"/>
		<path fill="#505957" d="M7.837,14.725c0.082,0.016,0.165-0.009,0.221-0.072c1.593-1.778,3.902-1.97,5.82-1.59
			c0.21,0.042,0.274,0.313,0.103,0.442c-0.17,0.128-0.333,0.265-0.488,0.409c-0.054,0.051-0.127,0.073-0.201,0.062
			c-0.277-0.042-0.559-0.073-0.843-0.083c-1.516-0.053-2.713,0.397-3.584,1.322c-0.073,0.078-0.08,0.194-0.032,0.289
			c0.345,0.687,0.281,1.67-0.076,2.376c-0.069,0.137-0.242,0.184-0.368,0.098l-0.415-0.283c-0.099-0.068-0.14-0.198-0.087-0.306
			c0.287-0.59,0.219-1.42-0.083-1.626c-0.302-0.206-1.099,0.034-1.544,0.516c-0.081,0.088-0.217,0.098-0.316,0.03l-0.415-0.283
			c-0.127-0.087-0.145-0.265-0.042-0.379C6.051,15.012,7.038,14.571,7.837,14.725z M8.09,22.163c-0.02,0.153,0.095,0.29,0.249,0.29
			l0.503,0c0.12,0,0.227-0.085,0.244-0.203c0.096-0.649,0.619-1.297,0.984-1.297c0.366,0,0.889,0.647,0.984,1.297
			c0.018,0.119,0.124,0.203,0.244,0.203l0.503,0c0.153,0,0.269-0.136,0.249-0.288c-0.103-0.785-0.604-1.632-1.276-2.006
			c-0.093-0.052-0.153-0.152-0.136-0.257c0.198-1.254,0.933-2.301,2.215-3.111c0.241-0.152,0.491-0.286,0.743-0.407
			c0.067-0.032,0.114-0.092,0.131-0.164c0.047-0.206,0.104-0.411,0.172-0.613c0.069-0.203-0.137-0.391-0.334-0.307
			c-1.798,0.767-3.598,2.227-3.912,4.594c-0.011,0.083-0.065,0.151-0.142,0.184C8.767,20.399,8.2,21.32,8.09,22.163z"/>
	</g>
</g>
</svg>
