<?xml version="1.0" encoding="utf-8"?>
<!-- Generator: Adobe Illustrator 23.0.6, SVG Export Plug-In . SVG Version: 6.00 Build 0)  -->
<svg version="1.1" xmlns="http://www.w3.org/2000/svg" xmlns:xlink="http://www.w3.org/1999/xlink" x="0px" y="0px" width="32px"
	 height="32px" viewBox="0 0 32 32" enable-background="new 0 0 32 32" xml:space="preserve">
<g id="labels">
	<g>
	</g>
</g>
<g id="icons">
	<g>
		<path fill="#84ED82" d="M18,19c2.374-0.699,4,7,8,7c3,0,2.542-5,2.542-5h1c0,0,0.537,4.921-2.542,8c-3,3-10,2-12-1
			C12.956,24.935,15.978,19.595,18,19z"/>
		<g>
			<path fill="#FFB76D" d="M7.55,8.076c0.109,0,0.218,0.036,0.307,0.105L16.624,15v1l-4.192-0.699
				c-0.544-0.091-1.094-0.136-1.644-0.136c-0.657,0-1.314,0.065-1.961,0.194l-2.94,0.588c-0.033,0.007-0.065,0.01-0.098,0.01
				c-0.131,0-0.259-0.052-0.354-0.146l-4.289-4.289c-0.25-0.25-0.169-0.674,0.157-0.813l6.05-2.593
				C7.417,8.089,7.484,8.076,7.55,8.076z M7.55,7.076c-0.204,0-0.403,0.041-0.591,0.121L0.909,9.79
				c-0.458,0.196-0.788,0.606-0.882,1.095c-0.094,0.489,0.06,0.992,0.412,1.344l4.289,4.289c0.283,0.283,0.66,0.439,1.061,0.439
				c0.098,0,0.196-0.01,0.294-0.029l2.94-0.588c0.58-0.116,1.174-0.175,1.765-0.175c0.494,0,0.992,0.041,1.48,0.122l4.192,0.699
				l1.164,0.194V16v-1v-0.489l-0.386-0.3L8.471,7.392C8.209,7.188,7.882,7.076,7.55,7.076L7.55,7.076z"/>
			<path fill="#FFAD68" d="M24.647,8.116l6.05,2.593c0.325,0.139,0.407,0.563,0.157,0.813l-4.289,4.289
				c-0.095,0.095-0.222,0.146-0.354,0.146c-0.033,0-0.065-0.003-0.098-0.01l-2.94-0.588c-0.647-0.129-1.304-0.194-1.961-0.194
				c-0.55,0-1.1,0.045-1.644,0.136L15.376,16v-1l8.767-6.819c0.089-0.069,0.198-0.105,0.307-0.105
				C24.516,8.076,24.583,8.089,24.647,8.116z M24.45,7.076c-0.332,0-0.659,0.112-0.921,0.316l-8.767,6.819l-0.386,0.3V15v1v1.18
				l1.164-0.194l4.192-0.699c0.487-0.081,0.985-0.122,1.48-0.122c0.591,0,1.185,0.059,1.765,0.175l2.94,0.588
				c0.098,0.02,0.196,0.029,0.294,0.029c0.401,0,0.777-0.156,1.061-0.439l4.289-4.289c0.352-0.352,0.506-0.855,0.412-1.344
				c-0.094-0.489-0.424-0.899-0.882-1.095l-6.05-2.593C24.853,7.117,24.654,7.076,24.45,7.076L24.45,7.076z"/>
			<path fill="#90FB89" d="M16.624,15L7.857,8.181C7.714,8.069,7.521,8.045,7.353,8.116l-6.05,2.593
				c-0.325,0.139-0.407,0.563-0.157,0.813l4.289,4.289c0.118,0.118,0.288,0.17,0.452,0.137l2.94-0.588
				c1.188-0.238,2.41-0.257,3.605-0.058L16.624,16V15z"/>
		</g>
		<path fill="#84ED82" d="M15.376,15l8.767-6.819c0.144-0.112,0.337-0.137,0.504-0.065l6.05,2.593
			c0.325,0.139,0.407,0.563,0.157,0.813l-4.289,4.289c-0.118,0.118-0.288,0.17-0.452,0.137l-2.94-0.588
			c-1.188-0.238-2.41-0.257-3.605-0.058L15.376,16V15z"/>
		<path fill="#90FB89" d="M22.995,32h0.011c1.053,0,1.861-0.932,1.713-1.975L24,25h-2l-0.718,5.025
			C21.133,31.068,21.942,32,22.995,32z"/>
		<path fill="#90FB89" d="M16,28L16,28c4.63,0,7.899-4.572,6.368-8.941c0,0-3.4-3.082-4.118-4.517C17.548,13.14,16.794,8,16.794,8
			H16V28z"/>
		<path fill="#A3FA9E" d="M19,23c0,2.209,1.567,4,3.5,4s4.5-1.791,4.5-4s-2.567-5-4.5-5S19,20.791,19,23z"/>
		<path fill="#8EC0E0" d="M23,25c-2,0-3.496-1.845-3.866-3.164C19.548,19.92,20.897,18,22.5,18c1.096,0,2.396,0.899,3.316,2.079
			C25.923,20.377,26,20.674,26,20.958C26,22.707,25,25,23,25z"/>
		<path fill="#7FB8E0" d="M22.995,32c-1.053,0-1.862-0.932-1.713-1.975l0.032-0.221c0.474,0.105,1.025,0.212,1.728,0.071
			c0.666-0.133,1.15-0.432,1.546-0.761l0.13,0.911C24.867,31.068,24.058,32,23.005,32H22.995z"/>
		<path fill="#A3FA9E" d="M9.005,32H8.995c-1.053,0-1.861-0.932-1.713-1.975L8,25h2l0.718,5.025C10.867,31.068,10.058,32,9.005,32z"
			/>
		<path fill="#A3FA9E" d="M16,28L16,28c-4.63,0-7.899-4.572-6.368-8.941c0,0,3.4-3.082,4.118-4.517C14.452,13.14,15.206,8,15.206,8
			H16V28z"/>
		<path fill="#B9FCB5" d="M16,11c-1,0-3-1.343-3-3s1.343-3,3-3V11z"/>
		<path fill="#B9FCB5" d="M13,23c0,2.209-1.567,4-3.5,4S5,25.209,5,23s2.567-5,4.5-5S13,20.791,13,23z"/>
		<path fill="#9FC9E4" d="M1,3C0.791,2.862,0.86,2.207,1,2c0.7-1.037,2.72-2.099,4.906-1.987C9.924,0.218,13.823,1.962,16,5
			c-0.372,0.031-1.773,0.859-2.094,1.013c-2.013-2.611-4.456-4.912-8-5C3.45,0.952,2.044,3.689,1,3z"/>
		<path fill="#9FC9E4" d="M9,25c2,0,3.496-1.845,3.866-3.164C12.452,19.92,11.103,18,9.5,18c-1.096,0-2.396,0.899-3.316,2.079
			C6.077,20.377,6,20.674,6,20.958C6,22.707,7,25,9,25z"/>
		<path fill="#8EC0E0" d="M9.005,32c1.053,0,1.862-0.932,1.713-1.975l-0.032-0.221c-0.474,0.105-1.025,0.212-1.728,0.071
			c-0.666-0.133-1.15-0.432-1.546-0.761l-0.13,0.911C7.133,31.068,7.942,32,8.995,32H9.005z"/>
		<path fill="#9FC9E4" d="M13.252,6.803C13.796,7.838,15.134,9,16,9V5C14.769,5,13.714,5.743,13.252,6.803z"/>
		<g>
			<path fill="#FFAD68" d="M15,7c0,1.105-0.395,2-1.5,2s-2-0.895-2-2s0.895-2,2-2S15,5.895,15,7z"/>
			<path fill="#FFB76D" d="M15,7c0,1.105-0.395,2-1.5,2c-0.562,0-1-1.229-1-2c0-0.847,0.167-2,1-2C14.605,5,15,5.895,15,7z"/>
			<path fill="#373F3F" d="M14.25,7.035c0,0.552-0.224,1-0.5,1s-0.626-0.448-0.626-1s0.287-0.882,0.563-0.882
				S14.25,6.483,14.25,7.035z"/>
		</g>
		<path fill="#A3FA9E" d="M16,11c1,0,3-1.343,3-3s-1.343-3-3-3V11z"/>
		<path fill="#8EC0E0" d="M26.094,1.013c-3.544,0.088-5.987,2.389-8,5C17.773,5.859,16.372,5.031,16,5
			c2.177-3.038,6.076-4.782,10.094-4.987C28.28-0.099,30.3,0.963,31,2c0.14,0.207,0.209,0.862,0,1
			C29.956,3.689,28.55,0.952,26.094,1.013z"/>
		<path fill="#8EC0E0" d="M18.748,6.803C18.204,7.838,16.866,9,16,9V5C17.231,5,18.286,5.743,18.748,6.803z"/>
		<g>
			<path fill="#FCA15E" d="M17,7c0,1.105,0.395,2,1.5,2s2-0.895,2-2s-0.895-2-2-2S17,5.895,17,7z"/>
			<path fill="#FFAD68" d="M17,7c0,1.105,0.395,2,1.5,2c0.562,0,1-1.229,1-2c0-0.847-0.167-2-1-2C17.395,5,17,5.895,17,7z"/>
			<path fill="#231F20" d="M17.75,7.035c0,0.552,0.224,1,0.5,1s0.626-0.448,0.626-1s-0.287-0.882-0.563-0.882
				C18.037,6.153,17.75,6.483,17.75,7.035z"/>
		</g>
		<g>
			<path fill="#373F3F" d="M15.751,9.899c0.1,0.274-0.084,0.592-0.084,0.592s-0.345-0.125-0.445-0.399
				c-0.1-0.274-0.062-0.538,0.084-0.592C15.452,9.447,15.651,9.626,15.751,9.899z"/>
			<path fill="#2B3332" d="M16.249,9.899c-0.1,0.274,0.084,0.592,0.084,0.592s0.345-0.125,0.445-0.399
				c0.1-0.274,0.062-0.538-0.084-0.592C16.548,9.447,16.349,9.626,16.249,9.899z"/>
		</g>
		<path fill="#B9FCB5" d="M15,16c0,1.105-0.895,1-2,1s-2,0.105-2-1s0.895-2,2-2S15,14.895,15,16z"/>
		<path fill="#A3FA9E" d="M21,16c0,1.105-0.895,1-2,1s-2,0.105-2-1s0.895-2,2-2S21,14.895,21,16z"/>
		<g>
			<path fill="#A3FA9E" d="M29.005,21.04l-1.892-0.325c-0.209-0.035-0.373-0.199-0.408-0.409l-0.324-1.89
				c-0.025-0.146,0.015-0.294,0.11-0.407c0.095-0.113,0.233-0.178,0.381-0.178l1.977,0.332c0.21,0.037,0.374,0.201,0.408,0.409
				l0.324,1.891c0.025,0.146-0.015,0.294-0.11,0.407c-0.095,0.112-0.233,0.178-0.381,0.178L29.005,21.04z"/>
			<path fill="#FCA15E" d="M26.872,18.081c0.014,0,0.029,0.001,0.043,0.004l1.891,0.325c0.104,0.018,0.186,0.1,0.204,0.204
				l0.325,1.892c0.027,0.155-0.095,0.292-0.246,0.292c-0.014,0-0.029-0.001-0.043-0.004l-1.892-0.325
				c-0.104-0.018-0.186-0.1-0.204-0.204l-0.325-1.892C26.6,18.218,26.721,18.081,26.872,18.081z M26.872,17.581L26.872,17.581
				c-0.221,0-0.43,0.097-0.573,0.267c-0.143,0.169-0.203,0.392-0.166,0.61l0.325,1.892c0.054,0.313,0.3,0.559,0.612,0.612
				l1.892,0.325l0.042,0.007l0.086,0.004c0.221,0,0.43-0.097,0.573-0.267c0.143-0.169,0.203-0.392,0.166-0.61l-0.325-1.892
				c-0.054-0.313-0.3-0.559-0.612-0.612L27,17.592l-0.042-0.007L26.872,17.581L26.872,17.581z"/>
		</g>
		<g>
			<g>
				<path fill="#A3FA9E" d="M28.993,21.048c-0.147,0-0.286-0.065-0.381-0.179c-0.096-0.112-0.136-0.261-0.11-0.406l0.324-1.892
					c0.036-0.208,0.2-0.372,0.406-0.408l1.894-0.324c0.012-0.001,0.023-0.001,0.035-0.001c0.212,0,0.342,0.064,0.432,0.172
					c0.096,0.112,0.136,0.261,0.11,0.406l-0.325,1.891c-0.035,0.209-0.199,0.373-0.409,0.408l-1.891,0.325L28.993,21.048z"/>
				<path fill="#FCA15E" d="M31.211,18.081c0.151,0,0.272,0.137,0.246,0.292l-0.325,1.892c-0.018,0.104-0.1,0.186-0.204,0.204
					l-1.892,0.325c-0.015,0.003-0.029,0.004-0.043,0.004c-0.151,0-0.272-0.137-0.246-0.292l0.325-1.892
					c0.018-0.104,0.1-0.186,0.204-0.204l1.892-0.325C31.183,18.082,31.197,18.081,31.211,18.081z M31.211,17.581h-0.043
					l-0.085,0.011l-1.891,0.325c-0.313,0.054-0.559,0.3-0.612,0.612l-0.325,1.891c-0.037,0.218,0.023,0.441,0.166,0.61
					c0.143,0.17,0.352,0.267,0.573,0.267h0.043l0.085-0.011l1.892-0.325c0.313-0.054,0.559-0.3,0.612-0.612l0.325-1.891
					c0.038-0.218-0.023-0.441-0.165-0.61C31.641,17.678,31.432,17.581,31.211,17.581L31.211,17.581z"/>
			</g>
		</g>
		<g>
			<path fill="#B9FCB5" d="M29.042,21.067c-0.162,0-0.315-0.08-0.408-0.213l-1.108-1.565c-0.122-0.173-0.122-0.405,0-0.578
				l1.108-1.566c0.093-0.132,0.246-0.212,0.408-0.212s0.315,0.08,0.408,0.213l1.107,1.565c0.122,0.173,0.122,0.405,0,0.578
				l-1.107,1.566C29.357,20.987,29.204,21.067,29.042,21.067z"/>
			<path fill="#FFAD68" d="M29.042,17.183c0.077,0,0.154,0.035,0.204,0.106l1.108,1.567c0.061,0.087,0.061,0.202,0,0.289
				l-1.108,1.567c-0.05,0.07-0.127,0.106-0.204,0.106c-0.077,0-0.154-0.035-0.204-0.106l-1.108-1.567
				c-0.061-0.087-0.061-0.202,0-0.289l1.108-1.567C28.887,17.218,28.964,17.183,29.042,17.183z M29.042,16.683
				c-0.243,0-0.472,0.118-0.612,0.317l-1.108,1.567c-0.183,0.259-0.183,0.607,0,0.866L28.429,21c0.14,0.198,0.369,0.317,0.612,0.317
				c0.243,0,0.472-0.118,0.612-0.317l1.108-1.567c0.183-0.259,0.183-0.607,0-0.866L29.654,17
				C29.514,16.802,29.285,16.683,29.042,16.683L29.042,16.683z"/>
		</g>
	</g>
</g>
</svg>
