<?xml version="1.0" encoding="utf-8"?>
<!-- Generator: Adobe Illustrator 23.0.6, SVG Export Plug-In . SVG Version: 6.00 Build 0)  -->
<svg version="1.1" xmlns="http://www.w3.org/2000/svg" xmlns:xlink="http://www.w3.org/1999/xlink" x="0px" y="0px" width="32px"
	 height="32px" viewBox="0 0 32 32" enable-background="new 0 0 32 32" xml:space="preserve">
<g id="labels">
	<g>
	</g>
</g>
<g id="icons">
	<g>
		<path fill="#90FB89" d="M24.376,15.222c1.5,0.5,6.688,3,7.5,5.25s-2.562,4-4.062,2.75s-3.125-4.188-4-4.562
			S24.376,15.222,24.376,15.222z"/>
		<path fill="#A3FA9E" d="M7.624,15.222c-1.5,0.5-6.688,3-7.5,5.25s2.562,4,4.062,2.75s3.125-4.188,4-4.562
			S7.624,15.222,7.624,15.222z"/>
		<path fill="#FFD96C" d="M14.42,1.858L16,3.777v3.961l-4.34-0.035L9.642,4.724C9.397,4.363,9.7,3.883,10.131,3.949L12,4.234
			l1.623-2.343C13.812,1.618,14.21,1.602,14.42,1.858z"/>
		<path fill="#B9FCB5" d="M16,6.347c-5.523,0-10,4.477-10,10s4.477,10,10,10V6.347z"/>
		<path fill="#377360" d="M7.695,30.243C6.588,29.467,8.02,23.77,9.02,23.298c1.301-0.614,4.623,1.299,4.685,2.799
			C13.773,27.718,8.589,30.87,7.695,30.243z"/>
		<path fill="#377360" d="M0.045,16.538c0.182-0.545,2.595,0.688,2.699,1.131c0.104,0.443-1.41,1.997-1.829,1.602
			C0.496,18.874-0.181,17.218,0.045,16.538z"/>
		<path fill="#377360" d="M7.858,6.85c0.182-0.545,2.595,0.688,2.699,1.131c0.104,0.443-1.41,1.997-1.829,1.602
			C8.308,9.187,7.631,7.53,7.858,6.85z"/>
		<path fill="#377360" d="M6.058,9.341c0.077-0.467,2.199,0.224,2.341,0.571c0.142,0.347-0.888,1.806-1.28,1.539
			C6.726,11.183,5.961,9.924,6.058,9.341z"/>
		<path fill="#377360" d="M6.893,24.009c-0.182,0.545-2.594-0.69-2.698-1.133s1.411-1.996,1.83-1.6
			C6.444,21.672,7.12,23.329,6.893,24.009z"/>
		<circle fill="#377360" cx="3.437" cy="20.285" r="1.125"/>
		<path fill="#FFD04D" d="M18.377,1.891L20,4.234l1.869-0.285c0.431-0.066,0.734,0.414,0.489,0.775L20.34,7.702L16,7.737V3.777
			l1.58-1.919C17.79,1.602,18.188,1.618,18.377,1.891z"/>
		<path fill="#A3FA9E" d="M16,6.347c5.523,0,10,4.477,10,10s-4.477,10-10,10V6.347z"/>
		<path fill="#246C57" d="M31.955,16.538c-0.182-0.545-2.595,0.688-2.699,1.131c-0.104,0.443,1.41,1.997,1.829,1.602
			C31.504,18.874,32.181,17.218,31.955,16.538z"/>
		<path fill="#246C57" d="M24.142,6.85c-0.182-0.545-2.595,0.688-2.699,1.131c-0.104,0.443,1.41,1.997,1.829,1.602
			S24.369,7.53,24.142,6.85z"/>
		<path fill="#246C57" d="M25.942,9.341c-0.077-0.467-2.199,0.224-2.341,0.571c-0.142,0.347,0.888,1.806,1.28,1.539
			C25.274,11.183,26.039,9.924,25.942,9.341z"/>
		<path fill="#246C57" d="M25.107,24.009c0.182,0.545,2.594-0.69,2.698-1.133s-1.411-1.996-1.83-1.6
			C25.556,21.672,24.88,23.329,25.107,24.009z"/>
		<circle fill="#246C57" cx="28.562" cy="20.285" r="1.125"/>
		<path fill="#246C57" d="M16,6.347c-1.616,0-3.137,0.392-4.488,1.073l4.228,2.757c0.079,0.052,0.169,0.078,0.26,0.08
			c0.091-0.002,0.181-0.029,0.26-0.08l4.261-2.76C19.171,6.737,17.616,6.347,16,6.347z"/>
		<path fill="#246C57" d="M24.305,30.243c1.106-0.776-0.325-6.473-1.325-6.945c-1.301-0.614-4.623,1.299-4.685,2.799
			C18.227,27.718,23.411,30.87,24.305,30.243z"/>
		<path fill="#377360" d="M16,6.347v3.911c-0.091-0.002-0.181-0.029-0.26-0.08l-4.277-2.752C12.814,6.745,14.384,6.347,16,6.347z"/>
		<circle fill="#373F3F" cx="13" cy="12" r="2"/>
		<circle fill="#FFFFFF" cx="13" cy="12" r="1.5"/>
		<ellipse fill="#373F3F" cx="13" cy="12" rx="0.75" ry="1"/>
		<circle fill="#2B3332" cx="19" cy="12" r="2"/>
		<circle fill="#F7F7F7" cx="19" cy="12" r="1.5"/>
		<ellipse fill="#2B3332" cx="19" cy="12" rx="0.75" ry="1"/>
		<path fill="#373F3F" d="M16,15c-1.105,0-1.5,0.895-1.5,2c0,1.105,0.395,2,1.5,2V15z"/>
		<path fill="#2B3332" d="M17.5,17c0-1.105-0.395-2-1.5-2v4C17.105,19,17.5,18.105,17.5,17z"/>
		<ellipse fill="#2B3332" cx="19.5" cy="16.5" rx="1.25" ry="1.5"/>
		<ellipse fill="#2B3332" cx="22.25" cy="15.5" rx="0.75" ry="1"/>
		<ellipse fill="#373F3F" cx="12.5" cy="16.5" rx="1.25" ry="1.5"/>
		<ellipse fill="#373F3F" cx="9.75" cy="15.5" rx="0.75" ry="1"/>
		<path fill="#377360" d="M16,20.007c-0.132,0.009-0.263,0.058-0.364,0.159l-1.47,1.47c-0.222,0.222-0.222,0.582,0,0.804
			l1.394,1.394c0.121,0.121,0.282,0.17,0.44,0.159V20.007z"/>
		<path fill="#377360" d="M9.636,18.166l-1.47,1.47c-0.222,0.222-0.222,0.582,0,0.804l1.394,1.394c0.222,0.222,0.582,0.222,0.804,0
			l1.47-1.47c0.222-0.222,0.222-0.582,0-0.804l-1.394-1.394C10.218,17.945,9.858,17.945,9.636,18.166z"/>
		<path fill="#246C57" d="M21.636,18.166l-1.47,1.47c-0.222,0.222-0.222,0.582,0,0.804l1.394,1.394c0.222,0.222,0.582,0.222,0.804,0
			l1.47-1.47c0.222-0.222,0.222-0.582,0-0.804l-1.394-1.394C22.218,17.945,21.858,17.945,21.636,18.166z"/>
		<path fill="#246C57" d="M16.44,20.166c-0.121-0.121-0.282-0.17-0.44-0.159v3.985c0.132-0.009,0.263-0.058,0.364-0.159l1.47-1.47
			c0.222-0.222,0.222-0.582,0-0.804L16.44,20.166z"/>
	</g>
</g>
</svg>
