<?xml version="1.0" encoding="utf-8"?>
<!-- Generator: Adobe Illustrator 23.0.6, SVG Export Plug-In . SVG Version: 6.00 Build 0)  -->
<svg version="1.1" xmlns="http://www.w3.org/2000/svg" xmlns:xlink="http://www.w3.org/1999/xlink" x="0px" y="0px" width="32px"
	 height="32px" viewBox="0 0 32 32" enable-background="new 0 0 32 32" xml:space="preserve">
<g id="labels">
	<g>
	</g>
</g>
<g id="icons">
	<g>
		<g>
			<path fill="#F0C877" d="M23.3,13.264c0.798-0.245,1.655-0.163,2.39,0.231c1.878,1.006,5.344,3.047,5.31,4.38
				c-0.047,1.828-1.922,3-2.984,2.625c-0.599-0.212-2.972-3.271-3.448-3.891c-0.052-0.068-0.136-0.104-0.222-0.096l-5.331,0.518
				l-0.656-2.625L23.3,13.264z"/>
			<path fill="#E8803A" d="M24.26,14.1l0.774-0.871c0,0-0.791-0.481-0.871-0.774c-0.054-0.196-0.301-0.184-0.353,0.021
				c-0.075,0.297-0.774,0.871-0.774,0.871l0.871,0.774C24.01,14.212,24.168,14.203,24.26,14.1z"/>
			<path fill="#E8803A" d="M26.628,14.965l1.134-0.277c0,0-0.394-0.856-0.298-1.144c0.064-0.192-0.147-0.32-0.305-0.179
				c-0.228,0.205-1.138,0.305-1.138,0.305l0.303,1.116C26.358,14.92,26.494,15,26.628,14.965z"/>
			<path fill="#E8803A" d="M29.178,16.764l1.182-0.093c0,0-0.259-0.896-0.115-1.163c0.096-0.179-0.09-0.341-0.27-0.229
				c-0.26,0.162-1.152,0.113-1.152,0.113l0.086,1.143C28.919,16.673,29.04,16.775,29.178,16.764z"/>
		</g>
		<path fill="#F0C877" d="M21.5,21.55c-1.573-2.533-3-6.188-3-7.625H16h-2.5c0,1.438-1.427,5.092-3,7.625
			C9.25,23.562,7.875,26.375,8,29s1.75,3.062,3,3s3-0.062,3-2c0-3.112,1.187-3.513,2-3.513c0.812,0,2,0.401,2,3.513
			c0,1.938,1.75,1.938,3,2s2.875-0.375,3-3S22.75,23.562,21.5,21.55z"/>
		<path fill="#F7D684" d="M13.5,13.925c0,1.438-1.427,5.092-3,7.625C9.25,23.562,7.875,26.375,8,29s1.75,3.062,3,3s3-0.061,3-2
			c0-3.112,1.187-3.513,2-3.513V13.925H13.5z"/>
		<ellipse fill="#F7D684" cx="16" cy="9.865" rx="6" ry="5.052"/>
		<path fill="#FAE09F" d="M16,4.812c-3.314,0-6,2.262-6,5.052s2.686,5.052,6,5.052V4.812z"/>
		<path fill="#EF8C48" d="M11.248,20.242c0,0-0.103-0.781-0.32-1.172c-0.041-0.075,0.005-0.163,0.089-0.18
			c0.485-0.095,1.122-0.461,1.122-0.461l0.44,1.21c0.024,0.065-0.01,0.138-0.076,0.161L11.248,20.242z"/>
		<path fill="#EF8C48" d="M9.833,22.708c0,0,0.062-0.789-0.155-1.18c-0.041-0.075,0.005-0.163,0.089-0.18
			c0.485-0.095,1.122-0.461,1.122-0.461l0.44,1.21c0.024,0.065-0.01,0.138-0.076,0.161L9.833,22.708z"/>
		<path fill="#EF8C48" d="M8.612,25.354c0,0-0.093-0.719-0.378-1.036c-0.06-0.067-0.042-0.172,0.043-0.204
			c0.472-0.176,1.092-0.52,1.092-0.52l0.757,1.042c0.041,0.056,0.028,0.135-0.029,0.175L8.612,25.354z"/>
		<path fill="#EF8C48" d="M8,29.25c0,0-0.382-0.647-0.758-0.849c-0.079-0.043-0.097-0.148-0.029-0.206
			c0.384-0.325,0.891-0.861,0.891-0.861l1.025,0.726c0.058,0.039,0.072,0.118,0.032,0.175L8,29.25z"/>
		<path fill="#E8803A" d="M15.823,25.823l-0.896-0.896c-0.098-0.098-0.098-0.256,0-0.354l0.896-0.896
			c0.098-0.098,0.256-0.098,0.354,0l0.896,0.896c0.098,0.098,0.098,0.256,0,0.354l-0.896,0.896
			C16.079,25.921,15.921,25.921,15.823,25.823z"/>
		<path fill="#E8803A" d="M16.177,22.761l0.896-0.896c0.098-0.098,0.098-0.256,0-0.354l-0.896-0.896
			c-0.098-0.098-0.256-0.098-0.354,0l-0.896,0.896c-0.098,0.098-0.098,0.256,0,0.354l0.896,0.896
			C15.921,22.858,16.079,22.858,16.177,22.761z"/>
		<path fill="#E8803A" d="M16.177,19.511l0.896-0.896c0.098-0.098,0.098-0.256,0-0.354l-0.896-0.896
			c-0.098-0.098-0.256-0.098-0.354,0l-0.896,0.896c-0.098,0.098-0.098,0.256,0,0.354l0.896,0.896
			C15.921,19.608,16.079,19.608,16.177,19.511z"/>
		<path fill="#EF8C48" d="M14.927,24.573c-0.098,0.098-0.098,0.256,0,0.354l0.896,0.896c0.049,0.049,0.113,0.073,0.177,0.073v-2.293
			c-0.064,0-0.128,0.024-0.177,0.073L14.927,24.573z"/>
		<path fill="#EF8C48" d="M15.823,20.614l-0.896,0.896c-0.098,0.098-0.098,0.256,0,0.354l0.896,0.896
			c0.049,0.049,0.113,0.073,0.177,0.073v-2.293C15.936,20.541,15.872,20.565,15.823,20.614z"/>
		<path fill="#EF8C48" d="M15.823,17.364l-0.896,0.896c-0.098,0.098-0.098,0.256,0,0.354l0.896,0.896
			c0.049,0.049,0.113,0.073,0.177,0.073v-2.293C15.936,17.291,15.872,17.315,15.823,17.364z"/>
		<path fill="#E8803A" d="M16.077,16.156l0.391-0.391c0.043-0.043,0.043-0.112,0-0.154l-0.391-0.391
			c-0.043-0.043-0.112-0.043-0.154,0l-0.391,0.391c-0.043,0.043-0.043,0.112,0,0.154l0.391,0.391
			C15.965,16.198,16.035,16.198,16.077,16.156z"/>
		<path fill="#E8803A" d="M17.743,15.913l0.355-0.424c0.039-0.046,0.033-0.115-0.014-0.154L17.66,14.98
			c-0.046-0.039-0.115-0.033-0.154,0.014l-0.355,0.424c-0.039,0.046-0.033,0.115,0.014,0.154l0.424,0.355
			C17.636,15.965,17.705,15.959,17.743,15.913z"/>
		<path fill="#EF8C48" d="M14.864,15.418l-0.355-0.424c-0.039-0.046-0.107-0.052-0.154-0.014l-0.424,0.355
			c-0.046,0.039-0.052,0.107-0.014,0.154l0.355,0.424c0.039,0.046,0.107,0.052,0.154,0.014l0.424-0.355
			C14.896,15.533,14.902,15.464,14.864,15.418z"/>
		<path fill="#EF8C48" d="M15.923,15.219l-0.391,0.391c-0.043,0.043-0.043,0.112,0,0.154l0.391,0.391
			c0.021,0.021,0.049,0.032,0.077,0.032v-1C15.972,15.187,15.944,15.198,15.923,15.219z"/>
		<path fill="#E8803A" d="M20.752,20.242c0,0,0.103-0.781,0.32-1.172c0.041-0.075-0.005-0.163-0.089-0.18
			c-0.485-0.095-1.122-0.461-1.122-0.461l-0.44,1.21c-0.024,0.065,0.01,0.138,0.076,0.161L20.752,20.242z"/>
		<path fill="#E8803A" d="M22.167,22.708c0,0-0.062-0.789,0.155-1.18c0.041-0.075-0.005-0.163-0.089-0.18
			c-0.485-0.095-1.122-0.461-1.122-0.461l-0.44,1.21c-0.024,0.065,0.01,0.138,0.076,0.161L22.167,22.708z"/>
		<path fill="#E8803A" d="M23.388,25.354c0,0,0.093-0.719,0.378-1.036c0.06-0.067,0.042-0.172-0.043-0.204
			c-0.472-0.176-1.092-0.52-1.092-0.52l-0.757,1.042c-0.041,0.056-0.028,0.135,0.029,0.175L23.388,25.354z"/>
		<path fill="#E8803A" d="M24,29.25c0,0,0.382-0.647,0.758-0.849c0.079-0.043,0.097-0.148,0.029-0.206
			c-0.384-0.325-0.891-0.861-0.891-0.861l-1.025,0.726c-0.058,0.039-0.072,0.118-0.032,0.175L24,29.25z"/>
		<path fill="#F7D684" d="M8.716,13.264c-0.798-0.245-1.655-0.163-2.39,0.231c-1.878,1.006-5.344,3.047-5.31,4.38
			c0.047,1.828,1.922,3,2.984,2.625c0.599-0.212,2.972-3.271,3.448-3.891c0.052-0.068,0.136-0.104,0.222-0.096L13,17.031
			l0.656-2.625L8.716,13.264z"/>
		<path fill="#EF8C48" d="M7.755,14.1l-0.774-0.871c0,0,0.791-0.481,0.871-0.774c0.054-0.196,0.301-0.184,0.353,0.021
			c0.075,0.297,0.774,0.871,0.774,0.871l-0.871,0.774C8.005,14.212,7.847,14.203,7.755,14.1z"/>
		<path fill="#EF8C48" d="M5.387,14.965l-1.134-0.277c0,0,0.394-0.856,0.298-1.144c-0.064-0.192,0.147-0.32,0.305-0.179
			c0.228,0.205,1.138,0.305,1.138,0.305l-0.303,1.116C5.657,14.92,5.521,15,5.387,14.965z"/>
		<path fill="#EF8C48" d="M2.838,16.764l-1.182-0.093c0,0,0.259-0.896,0.115-1.163c-0.096-0.179,0.09-0.341,0.27-0.229
			c0.26,0.162,1.152,0.113,1.152,0.113l-0.086,1.143C3.096,16.673,2.975,16.775,2.838,16.764z"/>
		<g>
			
				<ellipse transform="matrix(0.9891 -0.1473 0.1473 0.9891 -1.2411 1.9859)" fill="#373F3F" cx="12.792" cy="9.375" rx="1.25" ry="1.5"/>
			
				<ellipse transform="matrix(0.9891 -0.1473 0.1473 0.9891 -1.2411 1.9859)" fill="#FFD96C" cx="12.792" cy="9.375" rx="0.75" ry="0.9"/>
			
				<ellipse transform="matrix(0.9891 -0.1473 0.1473 0.9891 -1.2411 1.9859)" fill="#373F3F" cx="12.792" cy="9.375" rx="0.356" ry="0.427"/>
		</g>
		<g>
			
				<ellipse transform="matrix(0.1473 -0.9891 0.9891 0.1473 7.107 26.9934)" fill="#2B3332" cx="19.208" cy="9.375" rx="1.5" ry="1.25"/>
			
				<ellipse transform="matrix(0.1473 -0.9891 0.9891 0.1473 7.107 26.9934)" fill="#FFD04D" cx="19.208" cy="9.375" rx="0.9" ry="0.75"/>
			
				<ellipse transform="matrix(0.1473 -0.9891 0.9891 0.1473 7.107 26.9934)" fill="#231F20" cx="19.208" cy="9.375" rx="0.427" ry="0.356"/>
		</g>
		<path fill="#E8803A" d="M23.367,7.5c-0.102-0.055-0.206-0.116-0.309-0.175l0.163-0.792c0.021-0.101-0.082-0.182-0.175-0.139
			l-0.868,0.402c-2.12-1.358-4.318-3.31-5.233-4.93l0.503-1.085c0.043-0.093-0.038-0.196-0.139-0.175L16.53,0.766
			C16.516,0.676,16.5,0.585,16.5,0.5C16.5,0.271,16.312,0,16,0c-0.313,0-0.5,0.271-0.5,0.5c0,1.989-3.819,5.357-6.867,7
			C8.405,7.622,8.491,7.952,8.75,7.959c3.284,0.088,5.784,1.649,6.701,2.541C15.708,10.75,15.729,11,16,11s0.292-0.25,0.549-0.5
			c0.786-0.765,2.743-2.016,5.355-2.414l1.049,0.486c0.093,0.043,0.196-0.038,0.175-0.139l-0.094-0.456
			c0.074-0.003,0.142-0.016,0.217-0.018C23.509,7.952,23.595,7.622,23.367,7.5z"/>
		<path fill="#EF8C48" d="M16,0v11c-0.271,0-0.292-0.25-0.549-0.5c-0.029-0.029-0.074-0.063-0.107-0.093l-0.627,0.207
			c-0.097,0.032-0.19-0.06-0.158-0.158l0.176-0.533c-0.996-0.712-2.613-1.528-4.638-1.837L9.048,8.571
			C8.955,8.615,8.852,8.533,8.873,8.433l0.094-0.456C8.893,7.973,8.825,7.961,8.75,7.959C8.491,7.952,8.405,7.622,8.633,7.5
			c0.102-0.055,0.206-0.116,0.309-0.175L8.779,6.533C8.758,6.432,8.861,6.351,8.954,6.394l0.868,0.402
			c2.12-1.358,4.318-3.31,5.233-4.93l-0.503-1.085c-0.043-0.093,0.038-0.196,0.139-0.175l0.779,0.161
			c0.014-0.09,0.03-0.181,0.03-0.266C15.5,0.271,15.687,0,16,0z"/>
		<path fill="#E8803A" d="M17.283,10.614l-1.231-0.406l0.983-0.983l0.406,1.231C17.473,10.553,17.381,10.646,17.283,10.614z"/>
		<ellipse fill="#373F3F" cx="15.135" cy="13.075" rx="0.5" ry="0.575"/>
		<ellipse fill="#373F3F" cx="13.531" cy="12.703" rx="0.575" ry="0.661"/>
		<ellipse fill="#373F3F" cx="11.99" cy="12.01" rx="0.625" ry="0.719"/>
		<ellipse fill="#2B3332" cx="16.865" cy="13.075" rx="0.5" ry="0.575"/>
		<ellipse fill="#2B3332" cx="18.469" cy="12.703" rx="0.575" ry="0.661"/>
		<ellipse fill="#2B3332" cx="20.01" cy="12.01" rx="0.625" ry="0.719"/>
	</g>
</g>
</svg>
