<?xml version="1.0" encoding="utf-8"?>
<!-- Generator: Adobe Illustrator 23.0.6, SVG Export Plug-In . SVG Version: 6.00 Build 0)  -->
<svg version="1.1" xmlns="http://www.w3.org/2000/svg" xmlns:xlink="http://www.w3.org/1999/xlink" x="0px" y="0px" width="32px"
	 height="32px" viewBox="0 0 32 32" enable-background="new 0 0 32 32" xml:space="preserve">
<g id="labels">
	<g>
	</g>
</g>
<g id="icons">
	<g>
		<path fill="#FFD04D" d="M16,4c3.25,0,5,2.417,5,4.708c0,1.917-1.417,2.625-1.417,5.292c0,2.583,4.479,5.188,4.479,8.521
			c0,2.396-0.646,5.562-8.063,5.562V4z"/>
		<path fill="#F7C845" d="M21.583,25.653c0.875,1,2.58,3.317,4.583,5c0.749,0.629,1.303,1.085,1.556,1.293
			c0.092,0.075,0.218,0.071,0.31-0.003l1.038-0.836c0.142-0.114,0.123-0.334-0.04-0.415c-0.851-0.43-3.068-1.599-4.198-2.663
			c-1.417-1.333-2.333-2.875-2.333-2.875L21.583,25.653z"/>
		<path fill="#F7C845" d="M21.801,26.136c1.188,0.595,3.642,2.096,6.133,2.898c0.931,0.299,1.617,0.512,1.929,0.609
			c0.113,0.035,0.228-0.016,0.286-0.12l0.645-1.166c0.088-0.159-0.013-0.355-0.194-0.37c-0.95-0.076-3.445-0.322-4.893-0.879
			c-1.815-0.699-3.247-1.78-3.247-1.78L21.801,26.136z"/>
		<path fill="#F7C845" d="M21.922,26.752c1.328-0.047,4.201,0.095,6.771-0.395c0.96-0.183,1.665-0.325,1.985-0.39
			c0.116-0.024,0.193-0.124,0.193-0.242l0.007-1.333c0.001-0.182-0.181-0.306-0.347-0.232c-0.871,0.388-3.178,1.368-4.716,1.572
			c-1.929,0.256-3.703-0.007-3.703-0.007L21.922,26.752z"/>
		<path fill="#FFD96C" d="M16,4c-3.25,0-5,2.417-5,4.708c0,1.917,1.417,2.625,1.417,5.292c0,2.583-4.479,5.188-4.479,8.521
			c0,2.396,0.646,5.562,8.063,5.562V4z"/>
		<path fill="#D2E6F3" d="M26.875,21.167c0-2.209-2.104-4.25-4.272-3.973c-0.701-0.606-1.763-1.268-2.895-1.152
			c-3.25,0.333-3.265,3.236-3.708,3.236s-0.458-2.902-3.708-3.236c-1.131-0.116-2.194,0.546-2.895,1.152
			c-2.168-0.277-4.272,1.763-4.272,3.973c0,0.955,0.349,1.821,0.908,2.509C6.024,23.784,6,23.889,6,24
			c0,1.852,1.265,3.395,2.974,3.85C9.643,29.123,10.962,30,12.5,30c2.042,0,3.214-1.917,3.5-1.917S17.458,30,19.5,30
			c1.538,0,2.857-0.877,3.526-2.15C24.735,27.395,26,25.852,26,24c0-0.111-0.024-0.216-0.033-0.325
			C26.526,22.987,26.875,22.122,26.875,21.167z"/>
		<path fill="#E2EFF7" d="M12.292,16.042c-1.131-0.116-2.194,0.546-2.895,1.152c-2.168-0.277-4.272,1.763-4.272,3.973
			c0,0.955,0.349,1.821,0.908,2.509C6.024,23.784,6,23.889,6,24c0,1.852,1.265,3.395,2.974,3.85C9.643,29.123,10.962,30,12.5,30
			c2.042,0,3.214-1.917,3.5-1.917v-8.806C15.557,19.277,15.542,16.375,12.292,16.042z"/>
		<path fill="#FEF1C6" d="M16,8.654c-0.909,0-1.717,0.707-1.97,1.263c-0.236,0.52,0.96,1.263,1.97,1.263V8.654z"/>
		<path fill="#FFF5D8" d="M16,8.654c-0.909,0-1.717,0.707-1.97,1.263c0.455,0.253,0.96,0.455,1.97,0.455V8.654z"/>
		<path fill="#FFF5D8" d="M11.946,8.396C11.622,8.317,11.278,8.32,11.002,8.4C10.995,8.5,11,8.609,11,8.708
			c0,0.801,0.214,1.451,0.538,2.003c0.752,0.121,1.448-0.22,1.592-0.813C13.284,9.266,12.754,8.593,11.946,8.396z"/>
		<g>
			<ellipse fill="#373F3F" cx="13.5" cy="7.25" rx="1" ry="1.25"/>
			<circle fill="#FFFFFF" cx="13.5" cy="6.75" r="0.5"/>
		</g>
		<path fill="#FFD96C" d="M15.083,4.333c-0.217-0.763-1.685-3.723-3.625-4.208S7.496,0.921,6.142,1.452
			C4,2.292,3.029,2.19,0.407,0.056C0.219-0.097-0.062,0.088,0.012,0.32c0.325,1.019,0.937,2.264,1.755,2.966
			C2.642,4.035,4.5,4,6.642,2.702c3.588-2.174,5.637-1.661,7.941,1.715L15.083,4.333z"/>
		<path fill="#FFD96C" d="M12.94,30.992c-0.252-0.081-0.442-0.416-0.573-0.814c-0.15,0.508-0.377,0.883-0.591,0.814
			c-0.259-0.083-0.453-0.434-0.584-0.846c-0.15,0.489-0.371,0.845-0.58,0.778c-0.566-0.182-0.835-1.627-0.777-2.249
			c0.057-0.609,0.554-0.946,1.092-0.774c0.14,0.045,0.239,0.157,0.31,0.306c0.207-0.236,0.515-0.346,0.854-0.238
			c0.126,0.04,0.219,0.135,0.289,0.261c0.205-0.254,0.525-0.374,0.875-0.261C14.161,28.261,13.506,31.174,12.94,30.992z"/>
		<path fill="#FFEAA7" d="M16,8.654c0.909,0,1.717,0.707,1.97,1.263c0.236,0.52-0.96,1.263-1.97,1.263V8.654z"/>
		<path fill="#FEF1C6" d="M16,8.654c0.909,0,1.717,0.707,1.97,1.263c-0.455,0.253-0.96,0.455-1.97,0.455V8.654z"/>
		<path fill="#FEF1C6" d="M20.054,8.396c0.324-0.079,0.668-0.076,0.944,0.004C21.005,8.5,21,8.609,21,8.708
			c0,0.801-0.214,1.451-0.538,2.003c-0.752,0.121-1.448-0.22-1.592-0.813C18.716,9.266,19.246,8.593,20.054,8.396z"/>
		<g>
			<ellipse fill="#2B3332" cx="18.5" cy="7.25" rx="1" ry="1.25"/>
			<circle fill="#F7F7F7" cx="18.5" cy="6.75" r="0.5"/>
		</g>
		<path fill="#FFD04D" d="M16.917,4.333c0.217-0.763,1.685-3.723,3.625-4.208s3.962,0.796,5.316,1.327
			C28,2.292,28.971,2.19,31.593,0.056c0.188-0.153,0.469,0.032,0.395,0.264c-0.325,1.019-0.937,2.264-1.755,2.966
			C29.358,4.035,27.5,4,25.358,2.702c-3.588-2.174-5.637-1.661-7.941,1.715L16.917,4.333z"/>
		<path fill="#FFD04D" d="M22.165,28.675c-0.057-0.609-0.554-0.946-1.092-0.774c-0.14,0.045-0.239,0.157-0.31,0.306
			c-0.207-0.236-0.515-0.346-0.854-0.238c-0.126,0.04-0.219,0.135-0.289,0.261c-0.205-0.254-0.525-0.374-0.875-0.261
			c-0.906,0.291-0.251,3.204,0.315,3.022c0.252-0.081,0.442-0.416,0.573-0.814c0.15,0.508,0.377,0.883,0.591,0.814
			c0.259-0.083,0.453-0.434,0.584-0.846c0.15,0.489,0.371,0.845,0.58,0.778C21.955,30.741,22.223,29.297,22.165,28.675z"/>
	</g>
</g>
</svg>
