<?xml version="1.0" encoding="utf-8"?>
<!-- Generator: Adobe Illustrator 23.0.6, SVG Export Plug-In . SVG Version: 6.00 Build 0)  -->
<svg version="1.1" xmlns="http://www.w3.org/2000/svg" xmlns:xlink="http://www.w3.org/1999/xlink" x="0px" y="0px" width="32px"
	 height="32px" viewBox="0 0 32 32" enable-background="new 0 0 32 32" xml:space="preserve">
<g id="labels">
	<g>
	</g>
</g>
<g id="icons">
	<g>
		<path fill="#C8CCCB" d="M16.939,15.941c1.535-1.244,4.879-3.318,6.635-4.196c1.37-0.685,3.304-2.765,4.089-3.647
			c0.102-0.114,0.288-0.024,0.26,0.126c-0.196,1.035-0.714,3.321-1.624,4.379c-0.098,0.114,0.017,0.279,0.16,0.233
			c1.172-0.381,3.418-1.195,4.289-2.094c0.099-0.102,0.294-0.017,0.251,0.118c-0.665,2.099-1.457,5.558-5.54,8.516
			c-1.638,1.187-0.078,3.591-5.787,5.592C15.221,26.526,12.304,19.697,16.939,15.941z"/>
		<path fill="#D1D4D4" d="M23.114,21.866c0.835,1.343,1.778,3.229,1.778,4.826s-1.149,2.881-1.149,2.881s1.064,0.145,2.068,0.327
			c1.061,0.192,1.657,2.018-1.137,2.018c-0.997,0-1.584,0-2.308,0c-0.351,0-1.246-0.426-1.404-0.862
			c-0.584-1.607-1.287-4.798-3.799-4.798c-1.125,0,3.048-5.09,3.048-5.09L23.114,21.866z"/>
		<path fill="#DD564C" d="M25.292,20.167l1.748,3.565c0.028,0.058,0.115,0.041,0.118-0.023c0.04-0.801,0.162-3.363,0.11-3.914
			c-0.062-0.656-1.441-0.684-1.441-0.684L25.292,20.167z"/>
		<path fill="#DD564C" d="M28.287,19.337c0,0,1.566,2.691,1.485,3.974c-0.004,0.059-0.078,0.083-0.113,0.035
			c-0.407-0.557-2.03-2.779-2.292-3.101c-0.3-0.369,0.222-1.146,0.222-1.146L28.287,19.337z"/>
		<path fill="#D1D4D4" d="M19.54,15.458c2.542,0.708,5.423,6.405,5.91,6.405c0.402,0,0.042-2.069,0.778-2.258
			c0.736-0.189,0.83,1.774,1.054,1.766c0.224-0.008,0.566-1.708,0.778-1.847s0.709,1.19,0.942,0.996
			c0.233-0.194,0.47-1.112-0.754-2.686c-1.167-1.5-4.667-4.583-9.458-6C18.201,12.235,19.54,15.458,19.54,15.458z"/>
		<path fill="#DADDDC" d="M8.886,21.866c-0.835,1.343-1.778,3.229-1.778,4.826s1.149,2.881,1.149,2.881s-1.064,0.145-2.068,0.327
			c-1.061,0.192-1.657,2.018,1.137,2.018c0.997,0,1.584,0,2.308,0c0.351,0,1.246-0.426,1.404-0.862
			c0.584-1.607,1.287-4.798,3.799-4.798c1.125,0-3.048-5.09-3.048-5.09L8.886,21.866z"/>
		<path fill="#E3E5E5" d="M12.558,7.147c0,0-2.435-2.369-2.898-5.357C9.651,1.736,9.712,1.697,9.758,1.727l0.866,0.567
			c0,0-0.567-1.592-0.641-2.225c-0.007-0.062,0.071-0.093,0.111-0.046c0.642,0.774,3.791,4.537,4.247,4.445L12.558,7.147z"/>
		<path fill="#65A9DC" d="M19.442,7.147c0,0,2.435-2.369,2.898-5.357c0.008-0.054-0.053-0.092-0.098-0.063l-0.866,0.567
			c0,0,0.567-1.592,0.641-2.225c0.007-0.062-0.071-0.093-0.111-0.046c-0.642,0.774-3.791,4.537-4.247,4.445L19.442,7.147z"/>
		<path fill="#E55D53" d="M6.622,20.167l-1.748,3.565c-0.028,0.058-0.115,0.041-0.118-0.023c-0.04-0.801-0.162-3.363-0.11-3.914
			c0.062-0.656,1.441-0.684,1.441-0.684L6.622,20.167z"/>
		<path fill="#E55D53" d="M3.627,19.337c0,0-1.566,2.691-1.485,3.974c0.004,0.059,0.078,0.083,0.113,0.035
			c0.407-0.557,2.03-2.779,2.292-3.101c0.3-0.369-0.222-1.146-0.222-1.146L3.627,19.337z"/>
		<path fill="#DADDDC" d="M12.375,15.458c-2.542,0.708-5.423,6.405-5.91,6.405c-0.402,0-0.042-2.069-0.778-2.258
			c-0.736-0.189-0.83,1.774-1.054,1.766c-0.224-0.008-0.566-1.708-0.778-1.847s-0.709,1.19-0.942,0.996
			c-0.233-0.194-0.47-1.112,0.754-2.686c1.167-1.5,4.667-4.583,9.458-6C13.714,12.235,12.375,15.458,12.375,15.458z"/>
		<path fill="#65A9DC" d="M8.443,19.214c-0.997,1.401-1.75,2.649-1.978,2.649c-0.402,0-0.042-2.069-0.778-2.258
			c-0.736-0.189-0.83,1.774-1.054,1.766c-0.224-0.008-0.566-1.708-0.778-1.847s-0.709,1.19-0.942,0.996
			c-0.233-0.194-0.47-1.112,0.754-2.686c0.322-0.414,0.821-0.947,1.475-1.533l0.014,1.418c0,0.045,0.047,0.075,0.088,0.057
			l1.604-0.704c0.042-0.018,0.089,0.013,0.088,0.059l-0.058,1.994c-0.001,0.035,0.027,0.064,0.061,0.064L8.443,19.214z"/>
		<path fill="#5CA3D5" d="M23.472,19.214c0.997,1.401,1.75,2.649,1.978,2.649c0.402,0,0.042-2.069,0.778-2.258
			c0.736-0.189,0.83,1.774,1.054,1.766c0.224-0.008,0.566-1.708,0.778-1.847s0.709,1.19,0.942,0.996
			c0.233-0.194,0.47-1.112-0.754-2.686c-0.322-0.414-0.821-0.947-1.475-1.533l-0.014,1.418c0,0.045-0.047,0.075-0.088,0.057
			l-1.604-0.704c-0.042-0.018-0.089,0.013-0.088,0.059l0.058,1.994c0.001,0.035-0.027,0.064-0.061,0.064L23.472,19.214z"/>
		<path fill="#DADDDC" d="M18.844,11.625H16h-2.844c-2.5,1.812-4.656,6.438-4.656,10.344c0,3.438,4.812,4.344,7.5,4.344
			c2.687,0,7.5-0.906,7.5-4.344C23.5,18.062,21.344,13.438,18.844,11.625z"/>
		<path fill="#E1E4F3" d="M16,11.625h-2.844c-2.5,1.812-4.656,6.438-4.656,10.344c0,3.438,4.812,4.344,7.5,4.344V11.625z"/>
		<path fill="#E3E5E5" d="M16,11.625h-2.844c-2.5,1.812-4.656,6.438-4.656,10.344c0,3.438,4.812,4.344,7.5,4.344V11.625z"/>
		<path fill="#E3E5E5" d="M16,3c-4.25,0-5,3.531-5,6.156c0,1.812,1.12,2.438,2,2.844c0.812,0.375,1.719,1,3,1s2.187-0.625,3-1
			c0.88-0.406,2-1.031,2-2.844C21,6.531,20.25,3,16,3z"/>
		<path fill="#EDEEEE" d="M16,3c-4.25,0-5,3.531-5,6.156c0,1.812,1.12,2.438,2,2.844c0.812,0.375,1.719,1,3,1V3z"/>
		<path fill="#F09A94" d="M16.017,10.344c-0.109,0-0.297,0.25-0.813,0.25c-0.211,0-0.449-0.113-0.583-0.188
			c-0.045-0.025-0.1,0.011-0.093,0.062c0.048,0.344,0.289,1.282,1.488,1.282V10.344z"/>
		<path fill="#ED8C86" d="M16,10.344c0.109,0,0.297,0.25,0.812,0.25c0.211,0,0.449-0.113,0.583-0.188
			c0.045-0.025,0.1,0.011,0.093,0.062C17.44,10.813,17.199,11.75,16,11.75V10.344z"/>
		<path fill="#373F3F" d="M16,8.662c-0.235,0-0.5,0.121-0.5,0.289c0,0.158,0.368,0.316,0.5,0.316V8.662z"/>
		<path fill="#2B3332" d="M16,8.662c0.235,0,0.5,0.121,0.5,0.289c0,0.158-0.368,0.316-0.5,0.316V8.662z"/>
		<g>
			<path fill="#B0D3EA" d="M14.705,7.651c-0.825-0.436-2.009-1.01-2.312-1.156c-0.038-0.018-0.081,0.004-0.088,0.045
				c-0.053,0.314-0.19,1.466,0.575,1.863c0.84,0.435,1.603-0.161,1.852-0.67C14.747,7.702,14.735,7.666,14.705,7.651z"/>
			<ellipse fill="#373F3F" cx="13.278" cy="7.672" rx="0.188" ry="0.359"/>
		</g>
		<path fill="#71B1E1" d="M21,9.156c0-1.942-0.378-4.361-2.314-5.497l1.375,5.091l-2.159-2.796
			c-0.044-0.057-0.135-0.006-0.107,0.062l1.913,4.727c0.018,0.045,0.078,0.053,0.108,0.015l1.18-1.543
			C20.996,9.194,21,9.177,21,9.156z"/>
		<g>
			<path fill="#9FC9E4" d="M17.295,7.651c0.825-0.436,2.009-1.01,2.312-1.156c0.038-0.018,0.081,0.004,0.088,0.045
				c0.053,0.314,0.19,1.466-0.575,1.863c-0.84,0.435-1.603-0.161-1.852-0.67C17.253,7.702,17.265,7.666,17.295,7.651z"/>
			<ellipse fill="#2B3332" cx="18.722" cy="7.672" rx="0.188" ry="0.359"/>
		</g>
		<path fill="#65A9DC" d="M21.152,20.927l-3.268-6.054c-0.057-0.106-0.211-0.103-0.264,0.005l-1.492,3.046
			c-0.054,0.109-0.209,0.113-0.267,0.005L14.273,15c-0.037-0.125-0.204-0.146-0.272-0.035l-3.095,3.682
			c-0.072,0.085-0.208,0.065-0.253-0.037l-0.94-2.183c-0.399,0.945-0.715,1.943-0.925,2.947c0.48,1.084,1.168,2.639,1.413,3.181
			c0.044,0.097,0.169,0.113,0.243,0.036l2.662-2.78c0.048-0.127,0.227-0.13,0.279-0.005l1.42,3.408
			c0.053,0.128,0.237,0.121,0.281-0.01l2.317-4.063c0.042-0.074,0.136-0.098,0.209-0.054l3.331,2.038
			C21.073,21.206,21.225,21.062,21.152,20.927z"/>
		<path fill="#71B1E1" d="M16,18.006v3.595l-0.915,1.604c-0.044,0.131-0.227,0.138-0.281,0.01l-1.42-3.408
			c-0.052-0.125-0.231-0.122-0.279,0.005l-2.662,2.78c-0.073,0.077-0.199,0.06-0.243-0.036c-0.245-0.542-0.933-2.096-1.413-3.181
			c0.21-1.004,0.526-2.002,0.925-2.947l0.94,2.183c0.044,0.102,0.181,0.123,0.253,0.037l3.095-3.682
			c0.068-0.111,0.235-0.089,0.272,0.035l1.588,2.93C15.891,17.985,15.946,18.009,16,18.006z"/>
	</g>
</g>
</svg>
