<?xml version="1.0" encoding="utf-8"?>
<!-- Generator: Adobe Illustrator 23.0.6, SVG Export Plug-In . SVG Version: 6.00 Build 0)  -->
<svg version="1.1" xmlns="http://www.w3.org/2000/svg" xmlns:xlink="http://www.w3.org/1999/xlink" x="0px" y="0px" width="32px"
	 height="32px" viewBox="0 0 32 32" enable-background="new 0 0 32 32" xml:space="preserve">
<g id="labels">
	<g>
	</g>
</g>
<g id="icons">
	<g>
		<path fill="#D64F45" d="M26.77,16.511l2.045-1.409c0.086-0.059,0.127-0.159,0.102-0.261c-0.233-0.944-1.545-5.701-4.578-6.95
			C24.177,7.824,23.997,7.958,24,8.134L24,17L26.77,16.511z"/>
		<path fill="#2B376B" d="M26.77,16.511c0,0,0.209-4.782-2.663-8.59C24.043,7.969,23.998,8.046,24,8.134L24,17L26.77,16.511z"/>
		<path fill="#424B7E" d="M15.654,12.983c-2.852-0.143-4.849-2.257-5.456-5.111L4.9,13.171C4.074,13.997,3.417,14.96,2.933,16
			C2.354,17.244,2.025,18.602,2,20c0,2.209,1.791,4,4,4h10v-8h-2.615L15.654,12.983z"/>
		<path fill="#3A4274" d="M12.896,12.102L9.385,16h4l2.269-3.017C14.612,12.931,13.683,12.621,12.896,12.102z"/>
		<path fill="#FFD96C" d="M10.198,7.873l-2,2C8.826,12.828,10.943,15,13.958,15c0.063,0,0.124-0.008,0.186-0.01l1.509-2.006
			C12.802,12.841,10.805,10.726,10.198,7.873z"/>
		<path fill="#3A4274" d="M26,16h-1.563H16v8h10c2.209,0,4-1.791,4-4C30,17.791,28.209,16,26,16z"/>
		<path fill="#424B7E" d="M16,24H4c-2.209,0-4,1.791-4,4c0,2.209,1.791,4,4,4h12V24z"/>
		<path fill="#3A4274" d="M28,24H16v8h12c2.209,0,4-1.791,4-4C32,25.791,30.209,24,28,24z"/>
		<path fill="#3A4274" d="M16,30H4c-1.642,0-3.086-0.802-3.998-2.024C0.002,27.984,0,27.992,0,28c0,2.209,1.791,4,4,4h12V30z"/>
		<path fill="#2B376B" d="M28,30H16v2h12c2.209,0,4-1.791,4-4c0-0.008-0.002-0.016-0.002-0.024C31.086,29.198,29.642,30,28,30z"/>
		<path fill="#3A4274" d="M16,22H5.5c-1.335,0-2.541-0.531-3.438-1.384C2.36,22.531,4.002,24,6,24h10V22z"/>
		<path fill="#2B376B" d="M16,22v2h10c1.998,0,3.64-1.469,3.938-3.384C29.041,21.469,27.835,22,26.5,22H16z"/>
		<path fill="#FFD04D" d="M12.896,12.102l-1.875,2.082C11.859,14.703,12.847,15,13.958,15c0.063,0,0.124-0.008,0.186-0.01
			l1.509-2.006C14.612,12.931,13.683,12.621,12.896,12.102z"/>
		<path fill="#FFE28A" d="M16,14.552c-2.167,0-7.083-3.705-7.083-7.042C8.917,2.885,13,1.469,16,1.469V14.552z"/>
		<path fill="#E7685F" d="M12,13.207c0,2.451,0.525,3.341,1.226,4.53c0.069,0.116-0.07,0.247-0.179,0.167
			c-1.091-0.788-2.546-2.291-2.546-4.697c0-2.761,1.739-5,4.5-5C13.583,9.374,12,10.446,12,13.207z"/>
		<path fill="#FFD96C" d="M16,14.552c2.167,0,7.083-3.705,7.083-7.042C23.083,2.885,19,1.469,16,1.469V14.552z"/>
		<path fill="#E55D53" d="M20,13.207c0,2.451-0.525,3.341-1.226,4.53c-0.069,0.116,0.07,0.247,0.179,0.167
			c1.091-0.788,2.546-2.291,2.546-4.697c0-2.761-1.739-5-4.5-5C18.417,9.374,20,10.446,20,13.207z"/>
		<path fill="#495587" d="M16,13.083c-2.167,0-7.083-2.705-7.083-6.042C8.917,2.417,13,0,16,0V13.083z"/>
		<path fill="#424B7E" d="M16,13.083c2.167,0,7.083-2.705,7.083-6.042C23.083,2.417,19,0,16,0V13.083z"/>
		<path fill="#707EB7" d="M23.083,7.042c0-0.203-0.017-0.397-0.033-0.592l-2.796-2.619L16,9.132v3.951
			C18.167,13.083,23.083,10.378,23.083,7.042z"/>
		<path fill="#FFD96C" d="M16,3.382c-0.106,0-0.211,0.033-0.3,0.1L14,4.757l-1.498-1.123c-0.257-0.193-0.626-0.097-0.757,0.197
			l-1.583,3.562c-0.095,0.213-0.03,0.463,0.157,0.603L11.7,9.032c0.178,0.133,0.422,0.133,0.6,0L14,7.757l1.7,1.275
			c0.089,0.067,0.194,0.1,0.3,0.1V3.382z"/>
		<path fill="#FFD04D" d="M16.3,9.032L18,7.757l1.7,1.275c0.178,0.133,0.422,0.133,0.6,0l1.381-1.036
			c0.187-0.14,0.252-0.39,0.157-0.603l-1.583-3.562c-0.13-0.294-0.5-0.39-0.757-0.197L18,4.757l-1.7-1.275
			c-0.089-0.067-0.194-0.1-0.3-0.1v5.75C16.106,9.132,16.211,9.099,16.3,9.032z"/>
		<path fill="#E55D53" d="M20.048,8.719c-0.069,0.049-0.168,0.032-0.211-0.04c-0.461-0.782-0.254-1.801,0.499-2.337
			c0.753-0.536,1.783-0.399,2.372,0.292c0.055,0.064,0.038,0.164-0.031,0.212L20.048,8.719z"/>
		<path fill="#E7685F" d="M11.986,8.719c0.069,0.049,0.168,0.032,0.211-0.04c0.461-0.782,0.254-1.801-0.499-2.337
			c-0.753-0.536-1.783-0.399-2.372,0.292C9.271,6.698,9.287,6.797,9.356,6.846L11.986,8.719z"/>
		<path fill="#FFE28A" d="M16,4.633c-0.106,0-0.211,0.033-0.3,0.1l-0.5,0.375C15.074,5.202,15,5.35,15,5.508v1.5
			c0,0.157,0.074,0.306,0.2,0.4l0.5,0.375c0.089,0.067,0.194,0.1,0.3,0.1V4.633z"/>
		<path fill="#FFD96C" d="M16.3,7.783l0.5-0.375c0.126-0.094,0.2-0.243,0.2-0.4v-1.5c0-0.157-0.074-0.306-0.2-0.4l-0.5-0.375
			c-0.089-0.067-0.194-0.1-0.3-0.1v3.25C16.106,7.883,16.211,7.849,16.3,7.783z"/>
		<ellipse fill="#2B3332" cx="21" cy="7" rx="0.375" ry="0.5"/>
		<ellipse fill="#373F3F" cx="11" cy="7" rx="0.375" ry="0.5"/>
	</g>
</g>
</svg>
