<?xml version="1.0" encoding="utf-8"?>
<!-- Generator: Adobe Illustrator 23.0.6, SVG Export Plug-In . SVG Version: 6.00 Build 0)  -->
<svg version="1.1" xmlns="http://www.w3.org/2000/svg" xmlns:xlink="http://www.w3.org/1999/xlink" x="0px" y="0px" width="32px"
	 height="32px" viewBox="0 0 32 32" enable-background="new 0 0 32 32" xml:space="preserve">
<g id="labels">
	<g>
	</g>
</g>
<g id="icons">
	<g>
		<path fill="#FFD96C" d="M6.879,22.524c-1.705,1.176-4.04,0.746-5.216-0.959c-1.176-1.705-0.746-4.04,0.959-5.216
			s5.275-1.598,6.451,0.107S8.584,21.349,6.879,22.524z"/>
		<path fill="#FFD04D" d="M24.972,22.446c1.645,1.258,3.999,0.944,5.257-0.701c1.258-1.645,0.944-3.999-0.701-5.257
			c-1.645-1.258-5.19-1.855-6.448-0.21C21.821,17.923,23.327,21.188,24.972,22.446z"/>
		<path fill="#FFD04D" d="M15.958,2.002c-1.586,0.01-3.023,0.608-4.09,1.574l4.09,4.09V2.002z"/>
		<path fill="#F7C845" d="M15.958,7.667l4.129-4.129C19.016,2.586,17.581,2,16,2c-0.014,0-0.028,0.002-0.042,0.002L15.958,7.667
			L15.958,7.667z"/>
		<polygon fill="#67B4DF" points="15.958,7.063 15.958,7.062 15.958,7.062 		"/>
		<path fill="#F7C845" d="M15.958,7.667l-4.09-4.09C10.719,4.616,10,6.081,10,7.708c0,1.607,0.7,3.056,1.823,4.093L15.958,7.667
			L15.958,7.667z"/>
		<path fill="#F0C13E" d="M22,7.708c0-1.648-0.739-3.129-1.913-4.171l-4.129,4.129l4.174,4.174C21.281,10.8,22,9.336,22,7.708z"/>
		<path fill="#BCC7C6" d="M16,24.891c-4.971,0-9.75-2.958-8.167-9.25c0.628-2.495,2.208-3.458,2.627-6.678
			c0.29-2.232,3.006-3.988,5.539-3.988V24.891z"/>
		<path fill="#BCC7C6" d="M16,24.891c4.971,0,9.75-2.958,8.167-9.25c-0.628-2.495-2.208-3.458-2.627-6.678
			C21.249,6.731,18.533,4.975,16,4.975V24.891z"/>
		<path fill="#E3E5E5" d="M16,24.792c-4.971,0-9.75-2.958-8.167-9.25c0.628-2.495,2.208-3.458,2.627-6.678
			c0.29-2.232,3.006-3.988,5.539-3.988V24.792z"/>
		<path fill="#DADDDC" d="M16,24.792c4.971,0,9.75-2.958,8.167-9.25c-0.628-2.495-2.208-3.458-2.627-6.678
			C21.249,6.631,18.533,4.875,16,4.875V24.792z"/>
		<path fill="#FFD96C" d="M16,26.521c-4.971,0-9.75-2.958-8.167-9.25c0.628-2.495,3.206-3.488,3.625-6.708
			C11.749,8.33,13.467,6.604,16,6.604V26.521z"/>
		<path fill="#FFD04D" d="M16,26.521c4.971,0,9.75-2.958,8.167-9.25c-0.628-2.495-3.206-3.488-3.625-6.708
			C20.251,8.33,18.533,6.604,16,6.604V26.521z"/>
		<ellipse fill="#E3E5E5" cx="16" cy="19.5" rx="9" ry="9.5"/>
		<path fill="#EDEEEE" d="M16,29c-4.971,0-9-4.253-9-9.5s4.029-9.5,9-9.5V29z"/>
		<path fill="#E3E5E5" d="M16,29c-4.971,0-9-4.253-9-9.5c1.5,1,4.833,3.583,9,3.417V29z"/>
		<path fill="#DADDDC" d="M16,29c4.971,0,9-4.253,9-9.5c-1.5,1-4.833,3.583-9,3.417V29z"/>
		<ellipse fill="#FFD96C" cx="16" cy="21.375" rx="5.5" ry="4.375"/>
		<path fill="#FFE28A" d="M16,17c-3.038,0-5.5,1.959-5.5,4.375s2.462,4.375,5.5,4.375V17z"/>
		<path fill="#FFD96C" d="M16,22.875c-3.029,0-4.232-0.498-5.485-1.245c0,0.336,0.054,0.662,0.146,0.976l-5.016,4.118
			c-0.15,0.123-0.061,0.366,0.133,0.364l2.847-0.04l0.041,2.969c0.003,0.191,0.242,0.275,0.364,0.127l4.01-5.077
			c0.855,0.433,1.87,0.687,2.961,0.687V22.875z"/>
		<path fill="#FFD04D" d="M26.355,26.724l-5.016-4.118c0.092-0.314,0.146-0.64,0.146-0.976c-1.253,0.747-2.456,1.245-5.485,1.245
			v2.882c1.092,0,2.107-0.254,2.961-0.687l4.01,5.073c0.121,0.148,0.361,0.064,0.364-0.127l0.041-2.969l2.847,0.04
			C26.416,27.09,26.505,26.847,26.355,26.724z"/>
		<ellipse fill="#373F3F" cx="21.5" cy="16.875" rx="0.5" ry="0.875"/>
		<ellipse fill="#373F3F" cx="10.5" cy="16.875" rx="0.5" ry="0.875"/>
		<path fill="#FFE28A" d="M14.167,17.875c-0.072,0-0.145-0.031-0.194-0.093c-1.423-1.756-1.129-9.785-1.056-11.377
			c0.007-0.138,0.133-0.232,0.262-0.238c0.138,0.007,0.244,0.124,0.238,0.262c-0.199,4.31-0.071,9.786,0.944,11.039
			c0.087,0.107,0.07,0.265-0.037,0.352C14.278,17.856,14.223,17.875,14.167,17.875z"/>
		<path fill="#FFD96C" d="M18.091,17.875c-0.056,0-0.111-0.019-0.157-0.056c-0.107-0.087-0.124-0.244-0.037-0.352
			c1.016-1.253,1.144-6.729,0.944-11.039c-0.006-0.138,0.101-0.255,0.238-0.262c0.137,0.003,0.255,0.101,0.262,0.238
			c0.073,1.592,0.367,9.621-1.056,11.377C18.235,17.844,18.163,17.875,18.091,17.875z"/>
	</g>
</g>
</svg>
