<?xml version="1.0" encoding="utf-8"?>
<!-- Generator: Adobe Illustrator 23.0.6, SVG Export Plug-In . SVG Version: 6.00 Build 0)  -->
<svg version="1.1" xmlns="http://www.w3.org/2000/svg" xmlns:xlink="http://www.w3.org/1999/xlink" x="0px" y="0px" width="32px"
	 height="32px" viewBox="0 0 32 32" enable-background="new 0 0 32 32" xml:space="preserve">
<g id="labels">
	<g>
	</g>
</g>
<g id="icons">
	<g>
		<path fill="#E8803A" d="M16,3C9.844,3,6,10.321,6,18c0,7.084,4.559,12,10,12s10-4.916,10-12C26,10.321,22.156,3,16,3z"/>
		<path fill="#EF8C48" d="M16,3C9.844,3,6,10.321,6,18c0,7.084,4.559,12,10,12V3z"/>
		
			<ellipse transform="matrix(0.5153 -0.857 0.857 0.5153 -2.5007 13.404)" fill="#C45D55" cx="10.599" cy="8.913" rx="2.816" ry="1.591"/>
		<path fill="#231F20" d="M12.579,7.885c-0.113-0.321-0.316-0.583-0.607-0.728c-0.736-0.366-1.731,0.137-2.223,1.125
			c-0.492,0.988-0.294,2.086,0.442,2.452c0.272,0.136,0.58,0.151,0.885,0.068c0.321-0.283,0.629-0.639,0.888-1.069
			C12.342,9.102,12.545,8.449,12.579,7.885z"/>
		<path fill="#EFD4A7" d="M19.083,24.583c-0.635,0.476-1.142,0.722-1.662,0.848c-0.108,0.026-0.192-0.094-0.133-0.188
			c0.205-0.325,0.29-0.731,0.192-1.161c-0.128-0.563-0.587-1.014-1.153-1.132c-0.983-0.205-1.849,0.54-1.849,1.487
			c0,0.297,0.086,0.574,0.234,0.808c0.059,0.093-0.027,0.212-0.134,0.186c-0.52-0.126-1.027-0.372-1.662-0.848
			c-1.894-1.421-4.456-0.772-6.144-1.791c0.166,0.48,0.356,0.94,0.568,1.38C9.085,27.779,12.343,30,16,30s6.915-2.221,8.659-5.828
			c0.213-0.44,0.403-0.9,0.568-1.38C23.539,23.811,20.977,23.163,19.083,24.583z"/>
		<path fill="#EFD4A7" d="M20.119,11.188c-0.068-0.111-0.206-0.145-0.321-0.087c0,0-3.214,1.899-3.797,1.899
			s-3.797-1.899-3.797-1.899c-0.116-0.058-0.254-0.024-0.321,0.087c-0.595,0.971-3.196,5.577-2.501,10.777
			c0.029,0.214,0.306,0.293,0.443,0.128c0.495-0.597,1.367-1.593,1.676-1.593c0.37,0,1.402,1.558,1.82,2.214
			c0.09,0.142,0.288,0.153,0.394,0.022c0.39-0.482,1.229-1.52,1.786-2.236c0.219-0.281,0.335-0.5,0.5-0.5s0.281,0.219,0.5,0.5
			c0.557,0.716,1.396,1.755,1.786,2.236c0.106,0.131,0.303,0.119,0.394-0.022c0.418-0.656,1.45-2.214,1.82-2.214
			c0.309,0,1.181,0.996,1.676,1.593c0.138,0.166,0.415,0.086,0.443-0.128C23.315,16.765,20.714,12.16,20.119,11.188z"/>
		<path fill="#EACEA1" d="M16,27.5c-0.84,0-4.667,0.167-7.247-1.091C10.588,28.675,13.175,30,16,30s5.412-1.325,7.247-3.591
			C20.667,27.667,16.84,27.5,16,27.5z"/>
		<path fill="#F5DEB9" d="M16,13c-0.583,0-3.797-1.899-3.797-1.899c-0.116-0.058-0.254-0.024-0.321,0.087
			c-0.595,0.972-3.196,5.577-2.501,10.777c0.029,0.214,0.306,0.293,0.444,0.127c0.495-0.597,1.367-1.593,1.676-1.593
			c0.37,0,1.402,1.558,1.82,2.214c0.09,0.142,0.288,0.153,0.394,0.022c0.39-0.482,1.229-1.52,1.786-2.236
			c0.219-0.281,0.335-0.5,0.5-0.5V13z"/>
		<path fill="#9179C6" d="M21.75,14.688C20.23,15.679,16,16.875,16,16.875s-4.23-1.196-5.75-2.188
			c-0.282,0.738-0.563,1.667-0.729,2.646c1.23,0.753,4.771,1.917,6.479,1.958c1.708-0.042,5.249-1.205,6.479-1.958
			C22.312,16.354,22.032,15.425,21.75,14.688z"/>
		<path fill="#9D85D3" d="M21.353,13.612c-0.732,0.535-4.395,1.847-5.353,1.847c-0.958,0-4.621-1.312-5.353-1.847
			c-0.17,0.407-0.588,1.494-0.718,2.059c1.3,0.544,4.654,1.788,6.071,1.788s4.771-1.244,6.071-1.788
			C21.941,15.106,21.523,14.019,21.353,13.612z"/>
		<path fill="#9D85D3" d="M10.25,14.688c-0.282,0.738-0.563,1.667-0.729,2.646c1.23,0.753,4.771,1.917,6.479,1.958v-2.417
			C16,16.875,11.77,15.679,10.25,14.688z"/>
		<path fill="#A78EDD" d="M10.647,13.612c-0.17,0.407-0.588,1.494-0.718,2.059c1.3,0.544,4.654,1.788,6.071,1.788v-2
			C15.042,15.458,11.379,14.146,10.647,13.612z"/>
		<path fill="#FFD04D" d="M16.254,0.158l0.971,1.968l3.305-0.251c0.232,0.034,0.325,0.319,0.157,0.483l-2.705,2.098l0.371,2.163
			c0.04,0.231-0.203,0.408-0.411,0.299L16,5.897l-1.943,1.021c-0.208,0.109-0.451-0.067-0.411-0.299l0.371-2.163l-2.705-2.098
			c-0.168-0.164-0.075-0.449,0.157-0.483l3.305,0.251l0.971-1.968C15.85-0.053,16.15-0.053,16.254,0.158z"/>
		<path fill="#FFD96C" d="M16,0v5.897l-1.943,1.021c-0.208,0.109-0.451-0.067-0.411-0.299l0.371-2.163l-2.705-2.098
			c-0.168-0.164-0.075-0.449,0.157-0.483l3.305,0.251l0.971-1.968C15.798,0.053,15.899,0,16,0z"/>
		<path fill="#F5DEB9" d="M14.479,24.438c0,0.297,0.086,0.574,0.234,0.808c0.059,0.093-0.027,0.212-0.134,0.186
			c-0.52-0.126-1.027-0.372-1.662-0.848c-1.894-1.421-4.456-0.772-6.144-1.791c0.166,0.48,0.356,0.94,0.568,1.38
			C9.085,27.779,12.343,30,16,30v-7.083C15.16,22.917,14.479,23.598,14.479,24.438z"/>
		<path fill="#EFD4A7" d="M8.753,26.409C10.588,28.675,13.175,30,16,30v-2.5C15.16,27.5,11.333,27.667,8.753,26.409z"/>
		<path fill="#F2F2F2" d="M12.028,7.469c-0.642-0.32-1.511,0.12-1.94,0.982c-0.429,0.862-0.257,1.82,0.386,2.14
			c0.237,0.118,0.505,0.131,0.77,0.059c0.26-0.257,0.506-0.563,0.719-0.917c0.332-0.553,0.526-1.121,0.594-1.634
			C12.458,7.82,12.281,7.594,12.028,7.469z"/>
		
			<ellipse transform="matrix(0.4458 -0.8951 0.8951 0.4458 -1.6615 15.0168)" fill="#231F20" cx="11.296" cy="8.85" rx="0.64" ry="0.477"/>
		<path fill="#C45D55" d="M12.141,9.424c0.252-0.392,0.369-0.906,0.424-1.318c-0.099-0.278-0.284-0.512-0.536-0.637
			c-0.506-0.252-1.152-0.033-1.613,0.492C10.888,8.413,11.365,8.847,12.141,9.424z"/>
		<path fill="#F79654" d="M5.792,20.292c-3.75,0-4.258,7.365-4.258,10.708h7.737c0.275,0,0.498-0.218,0.499-0.493
			C9.792,26.069,9.195,20.292,5.792,20.292z"/>
		<path fill="#FCE8CC" d="M5.396,31c-0.094,0.344-4.344,1.432-4.312,0.807c0.031-0.625,0.659-3.276,2.875-3.276
			C5.177,28.531,5.49,30.656,5.396,31z M6.141,31c0.094,0.344,4.344,1.432,4.312,0.807c-0.031-0.625-0.659-3.276-2.875-3.276
			C6.359,28.531,6.047,30.656,6.141,31z"/>
		<g>
			<ellipse fill="#FCE8CC" cx="4.756" cy="14.14" rx="3.574" ry="4.847"/>
			<path fill="#F79654" d="M8.612,11.828c-0.792-0.792-0.912-3-3.787-3l0,0h0c0,0,0,0,0,0h0c-2.875,0-2.996,2.208-3.787,3
				c-1.349,0.697-1.107,3.322-0.663,3.322c0.525,0,0.969-1.322,2.163-1.322c0.917,0,1.149,2.083,2.287,2.083v0c0,0,0,0,0,0l0,0v0
				c1.138-0.001,1.371-2.083,2.287-2.083c1.194,0,1.638,1.322,2.163,1.322C9.719,15.15,9.961,12.525,8.612,11.828z"/>
		</g>
		
			<ellipse transform="matrix(0.5153 -0.857 0.857 0.5153 -2.5007 13.404)" fill="#E8803A" cx="10.599" cy="8.913" rx="2.816" ry="1.591"/>
		<path fill="#373F3F" d="M11.963,9.733c0.537-0.893,0.723-1.832,0.566-2.494c-0.09-0.076-0.171-0.164-0.278-0.217
			c-0.209-0.104-0.437-0.157-0.676-0.157c-0.763,0-1.522,0.535-1.936,1.363c-0.561,1.126-0.292,2.36,0.611,2.811
			c0.111,0.055,0.228,0.094,0.348,0.12C11.088,10.864,11.579,10.372,11.963,9.733z"/>
		<path fill="#FFFFFF" d="M12.557,8.098c-0.068,0.513-0.261,1.082-0.594,1.634c-0.213,0.354-0.459,0.661-0.719,0.917
			c-0.265,0.072-0.533,0.059-0.77-0.059c-0.642-0.32-0.815-1.278-0.386-2.14c0.429-0.862,1.298-1.302,1.94-0.982
			C12.281,7.594,12.458,7.82,12.557,8.098z"/>
		
			<ellipse transform="matrix(0.4458 -0.8951 0.8951 0.4458 -1.6615 15.0168)" fill="#373F3F" cx="11.296" cy="8.85" rx="0.64" ry="0.477"/>
		<path fill="#EF8C48" d="M12.141,9.424c0.252-0.392,0.369-0.906,0.424-1.318c-0.099-0.278-0.284-0.512-0.536-0.637
			C11.523,7.217,10.861,7.44,10.4,7.965C10.873,8.417,11.365,8.847,12.141,9.424z"/>
		<g>
			
				<ellipse transform="matrix(0.857 -0.5153 0.5153 0.857 -1.5294 12.3138)" fill="#DD7731" cx="21.424" cy="8.913" rx="1.591" ry="2.816"/>
			<path fill="#2B3332" d="M22.383,8.227c-0.413-0.827-1.172-1.362-1.935-1.362c-0.239,0-0.467,0.053-0.674,0.156
				c-0.108,0.053-0.189,0.142-0.28,0.218c-0.157,0.662,0.029,1.6,0.566,2.494c0.385,0.64,0.875,1.131,1.364,1.425
				c0.121-0.026,0.238-0.064,0.349-0.12C22.676,10.588,22.944,9.354,22.383,8.227z"/>
			<path fill="#F7F7F7" d="M19.995,7.469c0.642-0.32,1.511,0.12,1.94,0.982c0.429,0.862,0.257,1.82-0.386,2.14
				c-0.237,0.118-0.505,0.131-0.77,0.059c-0.26-0.257-0.506-0.563-0.719-0.917c-0.332-0.553-0.526-1.121-0.594-1.634
				C19.566,7.82,19.743,7.594,19.995,7.469z"/>
			
				<ellipse transform="matrix(0.8951 -0.4458 0.4458 0.8951 -1.7719 10.1675)" fill="#2B3332" cx="20.727" cy="8.85" rx="0.477" ry="0.64"/>
			<path fill="#E8803A" d="M19.882,9.424c-0.252-0.392-0.369-0.906-0.424-1.318c0.099-0.278,0.284-0.512,0.536-0.637
				c0.506-0.252,1.167-0.041,1.628,0.484C21.151,8.405,20.659,8.847,19.882,9.424z"/>
			<path fill="#EF8C48" d="M26.232,20.292c3.75,0,4.258,7.365,4.258,10.708h-7.737c-0.275,0-0.498-0.218-0.499-0.493
				C22.231,26.069,22.828,20.292,26.232,20.292z"/>
			<path fill="#F5DEB9" d="M28.065,28.531c2.216,0,2.844,2.651,2.875,3.276c0.031,0.625-4.219-0.463-4.312-0.807
				S26.846,28.531,28.065,28.531z M24.445,28.531c-2.216,0-2.844,2.651-2.875,3.276c-0.031,0.625,4.219-0.463,4.312-0.807
				S25.664,28.531,24.445,28.531z"/>
			<g>
				<ellipse fill="#F5DEB9" cx="27.267" cy="14.14" rx="3.574" ry="4.847"/>
				<path fill="#EF8C48" d="M23.412,11.828c0.792-0.792,0.912-3,3.787-3l0,0h0h0l0,0c2.875,0,2.996,2.208,3.787,3
					c1.349,0.697,1.107,3.322,0.663,3.322c-0.525,0-0.969-1.322-2.163-1.322c-0.917,0-1.149,2.083-2.287,2.083v0l0,0l0,0v0
					c-1.138-0.001-1.371-2.083-2.287-2.083c-1.194,0-1.638,1.322-2.163,1.322C22.304,15.15,22.062,12.525,23.412,11.828z"/>
			</g>
		</g>
	</g>
</g>
</svg>
