<?xml version="1.0" encoding="utf-8"?>
<!-- Generator: Adobe Illustrator 23.0.6, SVG Export Plug-In . SVG Version: 6.00 Build 0)  -->
<svg version="1.1" xmlns="http://www.w3.org/2000/svg" xmlns:xlink="http://www.w3.org/1999/xlink" x="0px" y="0px" width="32px"
	 height="32px" viewBox="0 0 32 32" enable-background="new 0 0 32 32" xml:space="preserve">
<g id="labels">
	<g>
	</g>
</g>
<g id="icons">
	<g>
		<path fill="#E55D53" d="M18.06,24.618c1.454-0.255,2.556-0.729,3.57-0.04c0.981,0.666,0.778,2.15-0.609,2.282
			c-1.433,0.136-2.167,0.519-2.167,0.519L18.06,24.618z"/>
		<path fill="#E7685F" d="M16,23.33c2.337,0,5.29,2.057,5.29,3.958c0,1.901-2.953,2.926-5.29,2.926V23.33z"/>
		<path fill="#E7685F" d="M20.175,26.643c1.014,0.344,2.425,1.248,2.865,2.452c0.441,1.205-1.19,2.065-2.292,1.162
			c-1.102-0.904-1.94-1.076-1.94-1.076L20.175,26.643z"/>
		<path fill="#E7685F" d="M16,24.25c0,0,2.304,0.4,2.75-0.125c-1.032-1.113-1.25-1.438-1.25-6.375c-0.273-0.257-1.5,0-1.5,0V24.25z"
			/>
		<path fill="#E9746A" d="M16,24.25c0,0-2.304,0.4-2.75-0.125c1.068-1.09,1.25-1.438,1.25-6.375c0.273-0.257,1.5,0,1.5,0V24.25z"/>
		<path fill="#FFE28A" d="M16,21.458c-0.646,0-1.396-0.146-1.582-0.537c0.057-0.762,0.082-1.774,0.082-3.171
			c0.273-0.257,1.5,0,1.5,0V21.458z"/>
		<path fill="#FFEAA7" d="M16,19.812c-0.5,0-1.313-0.167-1.511-0.375c0.008-0.428,0.011-1.154,0.011-1.688c0.273-0.257,1.5,0,1.5,0
			V19.812z"/>
		<path fill="#E7685F" d="M14.003,24.618c-1.454-0.255-2.556-0.729-3.57-0.04c-0.981,0.666-0.778,2.15,0.609,2.282
			c1.433,0.136,2.167,0.519,2.167,0.519L14.003,24.618z"/>
		<path fill="#E9746A" d="M16,23.33c-2.337,0-5.29,2.057-5.29,3.958c0,1.901,2.953,2.926,5.29,2.926V23.33z"/>
		<path fill="#E9746A" d="M11.887,26.643c-1.014,0.344-2.425,1.248-2.865,2.452c-0.441,1.205,1.19,2.065,2.292,1.162
			c1.102-0.904,1.94-1.076,1.94-1.076L11.887,26.643z"/>
		<path fill="#FFD96C" d="M16,21.458c0.646,0,1.396-0.146,1.582-0.537c-0.057-0.762-0.082-1.774-0.082-3.171
			c-0.273-0.257-1.5,0-1.5,0V21.458z"/>
		<path fill="#FFE28A" d="M16,19.812c0.5,0,1.312-0.167,1.511-0.375c-0.008-0.428-0.011-1.154-0.011-1.688c-0.273-0.257-1.5,0-1.5,0
			V19.812z"/>
		<path fill="#FFC172" d="M14.874,5.256c-0.264-1.248-1.411-2.84-3.703-3.872c-3.174-1.43-5.186-0.03-5.554,0.473
			C5.27,2.33,5.308,2.932,6.278,2.975s2.513-0.086,3.879,0.688c1.111,0.63,1.719,1.248,2.425,2.237
			C13.484,7.167,15.036,6.019,14.874,5.256z"/>
		<path fill="#FCA15E" d="M9.799,0.913C7.42,0.36,5.929,1.43,5.616,1.857C5.27,2.33,5.308,2.932,6.278,2.975
			c0.637,0.028,1.522-0.018,2.441,0.167C8.708,2.287,9.105,1.556,9.799,0.913z"/>
		<path fill="#FFB76D" d="M11.409,7.112c0.102-0.135,0.093-0.32-0.024-0.443c-0.909-0.954-2.52-2.49-5.711-2.458
			C2.191,4.245,1.138,6.726,1.657,7.379c0.649,0.817,2.162-0.561,4.199-0.67c1.771-0.094,3.231,0.369,4.553,1.182
			c0.16,0.098,0.368,0.064,0.48-0.084L11.409,7.112z"/>
		<path fill="#F79654" d="M4.584,4.301C1.978,4.762,1.193,6.769,1.649,7.35c0.483,0.616,1.46-0.001,2.777-0.388
			C4.197,6.245,4.153,5.127,4.584,4.301z"/>
		<path fill="#FCA15E" d="M12.651,12.71c-0.357-1.046-2.425-1.678-4.893,0.344s-4.408,6.282-2.292,7.228
			c2.116,0.947,3.478-3.918,4.32-5.163C11.24,12.968,12.783,13.097,12.651,12.71z"/>
		<path fill="#E8803A" d="M5.389,15.98c-0.985,1.825-1.247,3.71,0.076,4.302c1.28,0.573,2.284-0.981,3.064-2.574
			C6.97,17.313,6.133,16.754,5.389,15.98z"/>
		<path fill="#FFAD68" d="M11.068,10.73c-0.793-1.678-2.174-2.465-4.673-2.194c-2.777,0.301-7.538,4.13-5.114,5.98
			c1.788,1.364,2.576-1.892,5.29-3.184c1.807-0.861,3.218-0.817,3.835-0.172C11.024,11.806,11.325,11.274,11.068,10.73z"/>
		<path fill="#EF8C48" d="M2.635,10.287c-1.703,1.34-2.791,3.133-1.353,4.23c1.194,0.911,1.942-0.239,3.116-1.488
			C3.403,12.365,2.566,11.419,2.635,10.287z"/>
		<path fill="#FFB76D" d="M17.126,5.256c0.264-1.248,1.411-2.84,3.703-3.872c3.174-1.43,5.186-0.03,5.554,0.473
			c0.346,0.473,0.309,1.076-0.661,1.119s-2.513-0.086-3.879,0.688c-1.111,0.63-1.719,1.248-2.425,2.237
			C18.516,7.167,16.964,6.019,17.126,5.256z"/>
		<path fill="#F79654" d="M22.201,0.913c2.379-0.553,3.871,0.517,4.183,0.944c0.346,0.473,0.309,1.076-0.661,1.119
			c-0.637,0.028-1.522-0.018-2.441,0.167C23.292,2.287,22.895,1.556,22.201,0.913z"/>
		<path fill="#FFAD68" d="M20.591,7.112c-0.102-0.135-0.093-0.32,0.024-0.443c0.909-0.954,2.52-2.49,5.711-2.458
			c3.484,0.035,4.537,2.515,4.018,3.168c-0.649,0.817-2.162-0.561-4.199-0.67c-1.771-0.094-3.231,0.369-4.553,1.182
			c-0.16,0.098-0.368,0.064-0.48-0.084L20.591,7.112z"/>
		<path fill="#EF8C48" d="M27.416,4.301c2.606,0.461,3.391,2.468,2.935,3.05c-0.483,0.616-1.46-0.001-2.777-0.388
			C27.803,6.245,27.847,5.127,27.416,4.301z"/>
		<path fill="#F79654" d="M19.349,12.71c0.357-1.046,2.425-1.678,4.893,0.344s4.408,6.282,2.292,7.228
			c-2.116,0.947-3.478-3.918-4.32-5.163C20.76,12.968,19.217,13.097,19.349,12.71z"/>
		<path fill="#DD7731" d="M26.611,15.98c0.985,1.825,1.247,3.71-0.076,4.302c-1.28,0.573-2.284-0.981-3.064-2.574
			C25.03,17.313,25.867,16.754,26.611,15.98z"/>
		<path fill="#FCA15E" d="M20.932,10.73c0.793-1.678,2.174-2.465,4.673-2.194c2.777,0.301,7.538,4.13,5.114,5.98
			c-1.788,1.364-2.576-1.892-5.29-3.184c-1.807-0.861-3.218-0.817-3.835-0.172C20.976,11.806,20.675,11.274,20.932,10.73z"/>
		<path fill="#E8803A" d="M29.365,10.287c1.703,1.34,2.791,3.133,1.353,4.23c-1.194,0.911-1.942-0.239-3.116-1.488
			C28.597,12.365,29.434,11.419,29.365,10.287z"/>
		<circle fill="#E9746A" cx="16" cy="11.395" r="7"/>
		<path fill="#9DCB9C" d="M16,4.395c-3.866,0-7,3.134-7,7s3.134,7,7,7V4.395z"/>
		<path fill="#EC8179" d="M16,4.395c-3.866,0-7,3.134-7,7s3.134,7,7,7V4.395z"/>
		<path fill="#373F3F" d="M16,13.25c-2.793,0-5.404-0.864-7-1.656c0.094,3.889,3.333,6.865,7,6.802V13.25z"/>
		<path fill="#2B3332" d="M16,13.25c2.793,0,5.404-0.864,7-1.656c-0.141,4.006-3.333,6.865-7,6.802V13.25z"/>
		<path fill="#EC8179" d="M16,16.25c-2.188,0-3.723-0.223-5.976-1.179C11.149,17.102,13.482,18.5,16,18.5V16.25z"/>
		<path fill="#E9746A" d="M16,16.25c2.094,0,3.723-0.211,5.976-1.168C20.851,17.114,18.458,18.605,16,18.5V16.25z"/>
		<path fill="#FFEAA7" d="M13.103,5.028c0.269-0.122,0.544-0.234,0.829-0.322c0.801,0.921,1.086,2.341,0.61,3.719
			c-0.67,1.941-2.576,3.045-4.256,2.464c-0.459-0.158-0.846-0.433-1.163-0.778C9.184,9.78,9.27,9.458,9.377,9.144
			c0.276,0.442,0.677,0.787,1.18,0.961c1.305,0.451,2.785-0.406,3.306-1.914C14.285,6.97,13.939,5.708,13.103,5.028z M9.92,7.935
			c0.115,0.548,0.465,1.003,0.979,1.181c0.832,0.287,1.776-0.259,2.107-1.22c0.332-0.961-0.073-1.973-0.905-2.261
			c-0.019-0.006-0.038-0.007-0.057-0.012C11.172,6.221,10.446,7.013,9.92,7.935z"/>
		<path fill="#FFE28A" d="M18.151,8.191c0.521,1.508,2.001,2.365,3.306,1.914c0.503-0.174,0.904-0.519,1.18-0.961
			c0.107,0.314,0.193,0.637,0.254,0.969c-0.318,0.345-0.705,0.619-1.163,0.778c-1.68,0.58-3.586-0.523-4.256-2.464
			c-0.476-1.378-0.191-2.798,0.61-3.719c0.286,0.088,0.56,0.199,0.829,0.322C18.075,5.708,17.73,6.97,18.151,8.191z M19.97,5.622
			c-0.019,0.006-0.038,0.006-0.057,0.012c-0.832,0.287-1.237,1.299-0.905,2.261c0.332,0.961,1.276,1.508,2.107,1.22
			c0.514-0.178,0.864-0.633,0.979-1.181C21.568,7.013,20.842,6.221,19.97,5.622z"/>
		<path fill="#FFFFFF" d="M12.053,12.72c-0.577-0.173-1.087-0.317-1.573-0.496c0,0.013-0.006,0.024-0.004,0.038l0.242,1.658
			c0.041,0.279,0.409,0.352,0.553,0.11L12.053,12.72z"/>
		<path fill="#F7F7F7" d="M20.729,14.03c0.144,0.242,0.513,0.169,0.553-0.11l0.242-1.658c0.002-0.013-0.004-0.025-0.004-0.038
			c-0.486,0.179-1.011,0.349-1.573,0.496L20.729,14.03z"/>
	</g>
</g>
</svg>
