<?xml version="1.0" encoding="utf-8"?>
<!-- Generator: Adobe Illustrator 23.0.6, SVG Export Plug-In . SVG Version: 6.00 Build 0)  -->
<svg version="1.1" xmlns="http://www.w3.org/2000/svg" xmlns:xlink="http://www.w3.org/1999/xlink" x="0px" y="0px" width="32px"
	 height="32px" viewBox="0 0 32 32" enable-background="new 0 0 32 32" xml:space="preserve">
<g id="labels">
	<g>
	</g>
</g>
<g id="icons">
	<g>
		<path fill="#DADDDC" d="M4.967,6.115c2.339-0.248,6.73,1.021,7.699,2.236l-0.443,2.181C9.148,9.868,5.745,7.84,4.833,6.426
			C4.752,6.301,4.819,6.13,4.967,6.115z"/>
		<path fill="#FF805D" d="M4.968,6.115c0.676-0.072,1.523-0.017,2.41,0.127c0.2,0.413,0.402,0.767,0.629,1.197
			c0.052,0.098,0.008,0.227-0.091,0.276C7.458,7.942,7.095,8.119,6.831,8.218C5.902,7.604,5.182,6.969,4.832,6.424
			C4.751,6.3,4.821,6.13,4.968,6.115z"/>
		<path fill="#E3E5E5" d="M4.52,8.904c2.263-0.64,6.805-0.132,7.966,0.902l-0.067,2.225c-3.143-0.135-6.84-1.558-7.978-2.797
			C4.34,9.124,4.377,8.944,4.52,8.904z"/>
		<path fill="#F57552" d="M4.521,8.904C5.175,8.719,6.019,8.63,6.917,8.622c0.267,0.373,0.526,0.688,0.822,1.073
			c0.067,0.088,0.047,0.222-0.043,0.287c-0.412,0.301-0.74,0.538-0.984,0.68c-1.019-0.448-1.837-0.952-2.274-1.43
			C4.339,9.123,4.378,8.944,4.521,8.904z"/>
		<path fill="#EDEEEE" d="M4.369,11.565c2.184-0.873,6.755-0.841,8.017,0.066l0.165,2.22c-3.14,0.193-6.965-0.836-8.226-1.95
			C4.212,11.803,4.231,11.621,4.369,11.565z"/>
		<path fill="#EB6B48" d="M4.369,11.565C5,11.313,5.831,11.136,6.723,11.035c0.305,0.343,0.595,0.629,0.93,0.982
			c0.076,0.08,0.069,0.216-0.013,0.29c-0.379,0.342-0.68,0.612-0.908,0.779c-1.06-0.339-1.926-0.756-2.411-1.185
			C4.211,11.802,4.232,11.62,4.369,11.565z"/>
		<path fill="#D1D4D4" d="M27.033,6.115c-2.339-0.248-6.73,1.021-7.699,2.236l0.443,2.181c3.075-0.665,6.478-2.693,7.39-4.106
			C27.248,6.301,27.181,6.13,27.033,6.115z"/>
		<path fill="#F57552" d="M27.032,6.115c-0.676-0.072-1.523-0.017-2.41,0.127c-0.2,0.413-0.402,0.767-0.629,1.197
			c-0.052,0.098-0.008,0.227,0.091,0.276c0.457,0.227,0.821,0.405,1.085,0.503c0.929-0.614,1.649-1.249,1.999-1.794
			C27.249,6.3,27.179,6.13,27.032,6.115z"/>
		<path fill="#DADDDC" d="M27.48,8.904c-2.263-0.64-6.805-0.132-7.966,0.902l0.067,2.225c3.143-0.135,6.84-1.558,7.978-2.797
			C27.66,9.124,27.623,8.944,27.48,8.904z"/>
		<path fill="#EB6B48" d="M27.479,8.904c-0.654-0.185-1.499-0.274-2.397-0.282c-0.267,0.373-0.526,0.688-0.822,1.073
			c-0.067,0.088-0.047,0.222,0.043,0.287c0.412,0.301,0.74,0.538,0.984,0.68c1.019-0.448,1.837-0.952,2.274-1.43
			C27.661,9.123,27.622,8.944,27.479,8.904z"/>
		<path fill="#E3E5E5" d="M27.631,11.565c-2.184-0.873-6.755-0.841-8.017,0.066l-0.165,2.22c3.14,0.193,6.965-0.836,8.226-1.95
			C27.788,11.803,27.769,11.621,27.631,11.565z"/>
		<path fill="#E56142" d="M27.631,11.565c-0.631-0.252-1.462-0.429-2.354-0.531c-0.305,0.343-0.595,0.629-0.93,0.982
			c-0.076,0.08-0.069,0.216,0.013,0.29c0.379,0.342,0.68,0.612,0.908,0.779c1.06-0.339,1.926-0.756,2.411-1.185
			C27.789,11.802,27.768,11.62,27.631,11.565z"/>
		<path fill="#E7685F" d="M12.094,6.875H16v21.094c-3.625,0-8.313-1.438-8.313-7.25C7.687,14.469,12.094,12.938,12.094,6.875z"/>
		<path fill="#E9746A" d="M12.094,6.875H16v17.812c-3.625,0-6.813-2.125-8.313-3.969C7.687,14.469,12.094,12.938,12.094,6.875z"/>
		<path fill="#EC8179" d="M12.094,6.875H16v6.281c-1,0-3.969-1.094-4.734-2.087C11.755,9.888,12.094,8.556,12.094,6.875z"/>
		<path fill="#ED8C86" d="M12.094,6.875H16v4.312c-2.125,0.062-3.75-1.281-4.193-1.775C11.987,8.653,12.094,7.819,12.094,6.875z"/>
		<path fill="#E55D53" d="M19.906,6.875H16v21.094c3.625,0,8.312-1.438,8.312-7.25C24.312,14.469,19.906,12.938,19.906,6.875z"/>
		<path fill="#E7685F" d="M19.906,6.875H16v17.812c3.625,0,6.812-2.125,8.312-3.969C24.312,14.469,19.906,12.938,19.906,6.875z"/>
		<path fill="#E9746A" d="M19.906,6.875H16v6.281c1,0,3.969-1.094,4.734-2.087C20.245,9.888,19.906,8.556,19.906,6.875z"/>
		<path fill="#EC8179" d="M19.906,6.875H16v4.312c2.125,0.062,3.75-1.281,4.193-1.775C20.013,8.653,19.906,7.819,19.906,6.875z"/>
		<path fill="#FFCF6E" d="M21.697,13.001c-1.363,0.624-4.905,2.29-5.697,2.29s-4.333-1.667-5.697-2.29
			c-1.303,2.124-2.616,4.2-2.616,7.717c0,0.503,0.035,0.973,0.102,1.413c0.702,4.638,7.003-1.34,8.211-1.34s7.509,5.978,8.211,1.34
			c0.067-0.439,0.102-0.91,0.102-1.413C24.312,17.201,23,15.125,21.697,13.001z"/>
		<path fill="#FFD98D" d="M16,15.292v5.5c-1.208,0-7.509,5.978-8.211,1.34c-0.067-0.439-0.102-0.91-0.102-1.413
			c0-3.517,1.313-5.594,2.616-7.717C11.667,13.625,15.208,15.292,16,15.292z"/>
		<path fill="#EC8179" d="M19.444,1.595c0.497-0.651,1.495-1.857,4.805-1.468c0.19,0.022,0.326,0.218,0.269,0.401
			C24.22,1.48,23.216,4.052,21.011,4.28C18.299,4.56,19.444,1.595,19.444,1.595z"/>
		<path fill="#ED8C86" d="M12.494,1.544c-0.497-0.651-1.495-1.857-4.805-1.468c-0.19,0.022-0.326,0.218-0.269,0.401
			C7.717,1.429,8.721,4,10.926,4.228C13.638,4.509,12.494,1.544,12.494,1.544z"/>
		<path fill="#FFFFFF" d="M11.803,2.066c0.062-0.068,0.064-0.179,0.003-0.248C11.433,1.397,10.55,0.711,8.76,0.915
			C8.657,0.927,8.594,1.036,8.637,1.131c0.23,0.51,0.959,1.888,2.187,2.107c0.081,0.015,0.16-0.032,0.198-0.106
			C11.235,2.719,11.616,2.273,11.803,2.066z"/>
		<ellipse fill="#89283B" cx="10.509" cy="2.049" rx="0.154" ry="0.308"/>
		<path fill="#F7F7F7" d="M20.211,2.066c-0.062-0.068-0.064-0.179-0.003-0.248c0.374-0.421,1.256-1.106,3.047-0.903
			c0.103,0.012,0.166,0.122,0.123,0.216c-0.23,0.51-0.959,1.888-2.187,2.107c-0.081,0.015-0.16-0.032-0.198-0.106
			C20.78,2.719,20.399,2.273,20.211,2.066z"/>
		<ellipse fill="#7F1E32" cx="21.506" cy="2.049" rx="0.154" ry="0.308"/>
		<path fill="#FFD98D" d="M19.349,1.817c-0.523-0.211-2.831-0.257-3.341-0.257s-2.818,0.046-3.341,0.257
			c-1.851,0.745-1.902,1.311-1.902,3.547c0,1.928,3.316,4.575,5.243,4.575s5.243-2.647,5.243-4.575
			C21.251,3.128,21.199,2.563,19.349,1.817z"/>
		<path fill="#FAE09F" d="M16.007,1.56c-0.511,0-2.818,0.046-3.341,0.257c-1.851,0.745-1.902,1.311-1.902,3.547
			c0,1.928,3.316,4.575,5.243,4.575V1.56z"/>
		<path fill="#EC8179" d="M17.524,0.404c-0.523-0.211-1.006-0.308-1.517-0.308s-0.994,0.098-1.517,0.308
			c-1.851,0.745-3.727,1.929-3.727,3.496c0,1.928,2.083,3.231,3.907,3.933c0.334,0.129,0.977,0.386,1.337,0.386
			c0.36,0,1.002-0.257,1.337-0.386c1.824-0.702,3.907-2.005,3.907-3.933C21.251,2.333,19.374,1.149,17.524,0.404z"/>
		<path fill="#ED8C86" d="M16.007,0.095c-0.511,0-0.994,0.098-1.516,0.308c-1.851,0.745-3.727,1.929-3.727,3.496
			c0,1.928,2.083,3.231,3.907,3.933c0.334,0.129,0.977,0.386,1.337,0.386V0.095z"/>
		<path fill="#89283B" d="M16.007,0.095c-0.511,0-0.994,0.098-1.516,0.308c-1.137,0.458-2.284,1.082-2.999,1.858
			c0.044,1.946,1.355,3.352,3.179,4.054c0.334,0.129,0.977,0.386,1.337,0.386V0.095z"/>
		<path fill="#7F1E32" d="M16.007,0.095c0.511,0,0.994,0.098,1.516,0.308c1.137,0.458,2.284,1.082,2.999,1.858
			c-0.044,1.946-1.355,3.352-3.179,4.054c-0.334,0.129-0.977,0.386-1.337,0.386V0.095z"/>
		<g>
			<path fill="#ED8C86" d="M13.381,24.496c-0.991-2.3-0.624-4.042-3.001-4.042v0c0,0,0,0,0,0c0,0,0,0,0,0v0
				c-2.201,0-2.01,1.742-3.001,4.042c-0.923,2.14,0.245,4.399,3.001,4.399v0c0,0,0,0,0,0s0,0,0,0v0
				C13.136,28.895,14.303,26.637,13.381,24.496z"/>
			<path fill="#EC8179" d="M10.464,25.246c-1.719,0-2.831,0.903-2.831,1.754c0,1.304,0.537,0.921,0.537,2.035v1.379
				c0,0.318,0.258,0.576,0.576,0.576h3.267c0.318,0,0.576-0.258,0.576-0.576v-1.379c0-1.115,0.537-0.731,0.537-2.035
				C13.126,26.149,11.64,25.246,10.464,25.246z"/>
			<path fill="#89283B" d="M8.421,25.794c-0.085,0.233-0.138,0.482-0.138,0.745c0,1.183,0.939,2.141,2.097,2.141
				s2.097-0.959,2.097-2.141c0-0.223-0.043-0.433-0.104-0.635c-0.535-0.385-1.264-0.659-1.908-0.659
				C9.613,25.246,8.913,25.468,8.421,25.794z"/>
			<path fill="#EDEEEE" d="M8.864,31.922l0.687-0.456c0.334-0.222,0.252-0.733-0.135-0.84l-1.045-0.287
				c-0.387-0.106-0.719,0.292-0.545,0.653l0.358,0.743C8.308,31.991,8.628,32.079,8.864,31.922z"/>
			<path fill="#EDEEEE" d="M11.692,31.922l-0.687-0.456c-0.334-0.222-0.252-0.733,0.135-0.84l1.045-0.287
				c0.387-0.106,0.719,0.292,0.545,0.653l-0.358,0.743C12.248,31.991,11.928,32.079,11.692,31.922z"/>
		</g>
		<ellipse fill="#89283B" cx="10.896" cy="17.146" rx="2.029" ry="2.354"/>
		
			<ellipse transform="matrix(0.5709 -0.821 0.821 0.5709 -9.842 15.3356)" fill="#E9746A" cx="9.75" cy="17.083" rx="1.667" ry="1.436"/>
		<g>
			<path fill="#89283B" d="M2.086,19.125c-0.476,0.483-0.476,0.483-0.476,0.483s-2.5,3.551-1.268,4.157
				c0.794,0.39,0.593-1.023,3.259-2.192c2.666-1.169,2.794-1.733,2.794-1.733L2.086,19.125z"/>
			<path fill="#ED8C86" d="M8.961,18.085c-0.452,0.555-1.566,2.516-2.969,2.454c-1.403-0.063-3.136-1.034-4.142-0.872
				s0.431-1.909,1.582-2.001C4.581,17.574,8.961,18.085,8.961,18.085z"/>
			<path fill="#EC8179" d="M9.905,17.623c-0.612,1.132-2.813,0.678-4.277,0.496s-1.724,0.467-2.277,0.135s1.798-3.689,5.512-2.338
				C10.029,16.339,10.237,17.009,9.905,17.623z"/>
		</g>
		<ellipse fill="#7F1E32" cx="21.104" cy="17.146" rx="2.029" ry="2.354"/>
		
			<ellipse transform="matrix(0.821 -0.5709 0.5709 0.821 -5.7705 15.7598)" fill="#E7685F" cx="22.25" cy="17.083" rx="1.436" ry="1.667"/>
		<g>
			<path fill="#7F1E32" d="M29.914,19.125c0.476,0.483,0.476,0.483,0.476,0.483s2.5,3.551,1.268,4.157
				c-0.794,0.39-0.593-1.023-3.259-2.192c-2.666-1.169-2.794-1.733-2.794-1.733L29.914,19.125z"/>
			<path fill="#EC8179" d="M23.039,18.085c0.452,0.555,1.566,2.516,2.969,2.454c1.403-0.063,3.136-1.034,4.142-0.872
				s-0.431-1.909-1.582-2.001C27.419,17.574,23.039,18.085,23.039,18.085z"/>
			<path fill="#E9746A" d="M22.095,17.623c0.612,1.132,2.813,0.678,4.277,0.496s1.724,0.467,2.277,0.135s-1.798-3.689-5.512-2.338
				C21.971,16.339,21.763,17.009,22.095,17.623z"/>
		</g>
		<g>
			<path fill="#EC8179" d="M18.619,24.496c0.991-2.3,0.624-4.042,3.001-4.042v0c0,0,0,0,0,0s0,0,0,0v0
				c2.201,0,2.01,1.742,3.001,4.042c0.923,2.14-0.245,4.399-3.001,4.399v0c0,0,0,0,0,0c0,0,0,0,0,0v0
				C18.864,28.895,17.697,26.637,18.619,24.496z"/>
			<path fill="#E9746A" d="M21.536,25.246c1.719,0,2.831,0.903,2.831,1.754c0,1.304-0.537,0.921-0.537,2.035v1.379
				c0,0.318-0.258,0.576-0.576,0.576h-3.267c-0.318,0-0.576-0.258-0.576-0.576v-1.379c0-1.115-0.537-0.731-0.537-2.035
				C18.874,26.149,20.36,25.246,21.536,25.246z"/>
			<path fill="#7F1E32" d="M23.579,25.794c0.085,0.233,0.138,0.482,0.138,0.745c0,1.183-0.939,2.141-2.097,2.141
				s-2.097-0.959-2.097-2.141c0-0.223,0.043-0.433,0.104-0.635c0.535-0.385,1.264-0.659,1.908-0.659
				C22.387,25.246,23.087,25.468,23.579,25.794z"/>
			<path fill="#E3E5E5" d="M23.136,31.922l-0.687-0.456c-0.334-0.222-0.252-0.733,0.135-0.84l1.045-0.287
				c0.387-0.106,0.719,0.292,0.545,0.653l-0.358,0.743C23.692,31.991,23.372,32.079,23.136,31.922z"/>
			<path fill="#E3E5E5" d="M20.308,31.922l0.687-0.456c0.334-0.222,0.252-0.733-0.135-0.84l-1.045-0.287
				c-0.387-0.106-0.719,0.292-0.545,0.653l0.358,0.743C19.752,31.991,20.072,32.079,20.308,31.922z"/>
		</g>
		<path fill="#FF805D" d="M16.685,5.479c-0.086,0.004-0.158-0.065-0.16-0.151c-0.028-1.228,0.334-2.986,1.214-3.286
			c0.917-0.313,2.146,0.646,1.604,1.688C18.83,4.716,17.625,5.441,16.685,5.479z"/>
		<path fill="#FF8D6E" d="M15.315,5.479c0.086,0.004,0.158-0.065,0.16-0.151c0.028-1.228-0.334-2.986-1.214-3.286
			c-0.917-0.313-2.146,0.646-1.604,1.688C13.17,4.716,14.375,5.441,15.315,5.479z"/>
	</g>
</g>
</svg>
