<?xml version="1.0" encoding="utf-8"?>
<!-- Generator: Adobe Illustrator 23.0.6, SVG Export Plug-In . SVG Version: 6.00 Build 0)  -->
<svg version="1.1" xmlns="http://www.w3.org/2000/svg" xmlns:xlink="http://www.w3.org/1999/xlink" x="0px" y="0px" width="32px"
	 height="32px" viewBox="0 0 32 32" enable-background="new 0 0 32 32" xml:space="preserve">
<g id="labels">
	<g>
	</g>
</g>
<g id="icons">
	<path fill="#5CA3D5" d="M31,23.098v-2.045c0-0.115-0.078-0.215-0.189-0.243l-3.486-0.872c-0.067-0.017-0.061-0.114,0.007-0.123
		l3.449-0.431C30.906,19.37,31,19.263,31,19.137v-1.558c0-0.126-0.094-0.233-0.219-0.248l-3.449-0.426
		c-0.069-0.008-0.075-0.106-0.008-0.123l3.486-0.876C30.922,15.877,31,15.778,31,15.663v-1.111c0-0.115-0.078-0.215-0.189-0.242
		l-3.486-0.876c-0.067-0.017-0.061-0.114,0.008-0.123l3.449-0.426C30.906,12.869,31,12.763,31,12.636v-1.558
		c0-0.126-0.094-0.232-0.219-0.248l-3.449-0.431c-0.069-0.009-0.075-0.106-0.007-0.123l3.486-0.872C30.922,9.377,31,9.277,31,9.162
		V7.118c0-0.143-0.117-0.261-0.26-0.257c-3.882,0.109-8.44,2.656-8.714,7.997H22c0,0.086,0.011,0.165,0.013,0.25
		C22.011,15.192,22,15.271,22,15.357h0.027c0.273,5.341,4.831,7.888,8.714,7.997C30.883,23.358,31,23.241,31,23.098z"/>
	<path fill="#7FB8E0" d="M12.431,22.005c-1.075,1.365-6.578,7.906-6.578,7.906l4.164,1.045c0.119,0.03,0.243-0.032,0.291-0.145
		l3.623-8.547l-1.237-0.345C12.597,21.893,12.493,21.926,12.431,22.005z"/>
	<path fill="#8EC0E0" d="M10.938,23.375c-0.948,0.557-7.314,3.897-8.881,4.719c-0.164,0.086-0.175,0.31-0.026,0.42l3.134,2.309
		c0.099,0.073,0.237,0.063,0.324-0.024l6.595-6.533L10.938,23.375z"/>
	<path fill="#8EC0E0" d="M14.333,0.25C13.5-0.25,12.667,0.083,12.667,1c0,0.917,0.833,4.417,1.167,6.083l1.333-0.41l-0.937-4.116
		c-0.036-0.156,0.083-0.305,0.244-0.305H16v-1.54C15.125,0.658,14.75,0.5,14.333,0.25z"/>
	<path fill="#FCE8CC" d="M16,6.167c-5.523,0-10,4.925-10,11s4.477,11,10,11V6.167z"/>
	<ellipse fill="#373F3F" cx="10.042" cy="16.583" rx="2.5" ry="4.5"/>
	<ellipse fill="#FFFFFF" cx="10.458" cy="16.583" rx="1.5" ry="2.7"/>
	<ellipse fill="#373F3F" cx="10.458" cy="16.583" rx="0.5" ry="0.9"/>
	<path fill="#EFD4A7" d="M16,13.792c-0.277,0-0.8-0.117-0.938-0.417c-0.331-0.722-0.822-1.058-1.241-1.212
		c-0.331-0.121-0.416-0.549-0.174-0.804c0,0,1.582-2.483,2.353-2.483V13.792z"/>
	<path fill="#EFD4A7" d="M12.768,10.145c0.156,0.572-0.23,0.943-1.482,0.845c-1.252-0.098-1.701-0.588-1.274-1.098
		c0.427-0.509,0.548-1.254,1.175-1.143C11.815,8.861,12.7,9.897,12.768,10.145z"/>
	<path fill="#EACEA1" d="M13.551,20.743l-0.897,3.132h2.756l-0.897-3.132C14.374,20.26,13.689,20.26,13.551,20.743z"/>
	<path fill="#FAB8CD" d="M16,22.722c-1.204,0-2.419,0-2.946,0c-0.677,0-1.241,0.509-1.647,1.233
		c-0.385,0.686-0.798,1.551-0.309,2.003c0.765,0.706,1.279-0.301,2.332-0.301s2.57,0,2.57,0V22.722z"/>
	<path fill="#F9ADC8" d="M16,24.152c-1.204,0-2.419,0-2.946,0c-0.677,0-0.752-0.038-1.317,0.677
		c-0.487,0.617-0.527,0.865-0.64,1.129c0.765,0.706,1.279-0.301,2.332-0.301s2.57,0,2.57,0V24.152z"/>
	<path fill="#71B1E1" d="M19.569,22.005c1.075,1.365,6.578,7.906,6.578,7.906l-4.164,1.045c-0.119,0.03-0.243-0.032-0.291-0.145
		l-3.623-8.547l1.237-0.345C19.403,21.893,19.507,21.926,19.569,22.005z"/>
	<path fill="#7FB8E0" d="M21.062,23.375c0.948,0.557,7.314,3.897,8.881,4.719c0.164,0.086,0.175,0.31,0.026,0.42l-3.134,2.309
		c-0.099,0.073-0.237,0.063-0.324-0.024l-6.595-6.533L21.062,23.375z"/>
	<path fill="#7FB8E0" d="M17.667,0.25C17.25,0.5,16.875,0.658,16,0.711v1.54h1.527c0.16,0,0.279,0.149,0.244,0.305l-0.937,4.116
		l1.333,0.41C18.5,5.417,19.333,1.917,19.333,1C19.333,0.083,18.5-0.25,17.667,0.25z"/>
	<path fill="#F5DEB9" d="M16,6.167c5.523,0,10,4.925,10,11s-4.477,11-10,11V6.167z"/>
	<ellipse fill="#2B3332" cx="21.958" cy="16.583" rx="2.5" ry="4.5"/>
	<ellipse fill="#EDEEEE" cx="21.542" cy="16.583" rx="1.5" ry="2.7"/>
	<ellipse fill="#2B3332" cx="21.542" cy="16.583" rx="0.5" ry="0.9"/>
	<path fill="#EACEA1" d="M16,13.792c0.277,0,0.8-0.117,0.938-0.417c0.331-0.722,0.822-1.058,1.241-1.212
		c0.331-0.121,0.416-0.549,0.174-0.804c0,0-1.582-2.483-2.353-2.483V13.792z"/>
	<path fill="#EACEA1" d="M19.232,10.145c-0.156,0.572,0.23,0.943,1.482,0.845c1.252-0.098,1.701-0.588,1.274-1.098
		S21.44,8.639,20.812,8.75S19.3,9.897,19.232,10.145z"/>
	<path fill="#E5C79A" d="M18.449,20.743l0.897,3.132h-2.756l0.897-3.132C17.626,20.26,18.311,20.26,18.449,20.743z"/>
	<path fill="#F9ADC8" d="M16,22.722c1.204,0,2.419,0,2.946,0c0.677,0,1.241,0.509,1.647,1.233c0.385,0.686,0.798,1.551,0.309,2.003
		c-0.765,0.706-1.279-0.301-2.332-0.301c-1.053,0-2.57,0-2.57,0V22.722z"/>
	<path fill="#F8A1C4" d="M16,24.152c1.204,0,2.419,0,2.946,0c0.677,0,0.752-0.038,1.317,0.677c0.487,0.617,0.527,0.865,0.64,1.129
		c-0.765,0.706-1.279-0.301-2.332-0.301c-1.053,0-2.57,0-2.57,0V24.152z"/>
</g>
</svg>
