<?xml version="1.0" encoding="utf-8"?>
<!-- Generator: Adobe Illustrator 23.0.6, SVG Export Plug-In . SVG Version: 6.00 Build 0)  -->
<svg version="1.1" xmlns="http://www.w3.org/2000/svg" xmlns:xlink="http://www.w3.org/1999/xlink" x="0px" y="0px" width="32px"
	 height="32px" viewBox="0 0 32 32" enable-background="new 0 0 32 32" xml:space="preserve">
<g id="labels">
	<g>
	</g>
</g>
<g id="icons">
	<g>
		<path fill="#9FCCD3" d="M8,3c0,0,7.116-0.244,10.071-2.84c0.4-0.352,1.028-0.077,1.049,0.455C19.225,3.205,19.011,8,16,8L8,3z"/>
		<path fill="#B9E2E7" d="M16,4C9.942,4,3,8.447,3,14.612C3,21.641,9.942,25.5,16,25.5V4z"/>
		<path fill="#ACD7DD" d="M16.001,4C22.058,4,29,8.447,29,14.612C29,21.641,22.058,25.5,16.001,25.5V4z"/>
		<path fill="#8694D1" d="M16,6C10.874,6,5,9.619,5,14.638c0,5.721,5.874,8.862,11,8.862V6z"/>
		<path fill="#7C8AC4" d="M16,6c5.126,0,11,3.619,11,8.638c0,5.721-5.874,8.862-11,8.862V6z"/>
		<path fill="#373F3F" d="M16,19.5c-1.792,0-3.25-1.121-3.25-2.5h0.5c0,1.103,1.233,2,2.75,2V19.5z"/>
		<path fill="#2B3332" d="M16,19c1.517,0,2.75-0.897,2.75-2h0.5c0,1.379-1.458,2.5-3.25,2.5V19z"/>
		<path fill="#D3DAEA" d="M16,12.239V17.5c-2,0-2.26,1.521-4.521,1.521c-3.422,0-4.991-2.887-4.341-5.721
			c0.359-1.562,1.631-2.828,3.194-3.184c1.525-0.348,2.943,0.114,3.933,1.035C14.81,11.657,14.859,12.239,16,12.239z"/>
		<circle fill="#373F3F" cx="11" cy="14.5" r="2.5"/>
		<path fill="#FFFFFF" d="M12.25,13.773c0,0.69-0.56,1.25-1.25,1.25s-1.25-0.56-1.25-1.25s0.56-1.25,1.25-1.25
			S12.25,13.083,12.25,13.773z"/>
		<path fill="#C7CFE5" d="M17.736,11.15c0.99-0.921,2.407-1.382,3.933-1.035c1.563,0.356,2.835,1.622,3.194,3.184
			c0.651,2.834-0.919,5.721-4.341,5.721C18.261,19.021,18,17.5,16,17.5v-5.261C17.141,12.239,17.191,11.657,17.736,11.15z"/>
		<circle fill="#2B3332" cx="21" cy="14.5" r="2.5"/>
		<path fill="#F7F7F7" d="M21,12.523c0.69,0,1.25,0.56,1.25,1.25s-0.56,1.25-1.25,1.25s-1.25-0.56-1.25-1.25S20.31,12.523,21,12.523
			z"/>
		<path fill="#9FCCD3" d="M21,23.236l-4.106,8.211c-0.369,0.737-1.42,0.737-1.789,0L11,23.236H21z"/>
		<circle fill="#ACD7DD" cx="9.437" cy="24" r="4"/>
		<circle fill="#A5D1D8" cx="22.563" cy="24" r="4"/>
		<circle fill="#B9E2E7" cx="16" cy="24" r="4"/>
		<path fill="#ACD7DD" d="M16,3H8.5C7.119,3,6,4.119,6,5.5C6,6.881,7.119,8,8.5,8H16V3z"/>
		<path fill="#A5D1D8" d="M23.5,3H16v5h7.5C24.881,8,26,6.881,26,5.5C26,4.119,24.881,3,23.5,3z"/>
	</g>
</g>
</svg>
