<?xml version="1.0" encoding="utf-8"?>
<!-- Generator: Adobe Illustrator 23.0.6, SVG Export Plug-In . SVG Version: 6.00 Build 0)  -->
<svg version="1.1" xmlns="http://www.w3.org/2000/svg" xmlns:xlink="http://www.w3.org/1999/xlink" x="0px" y="0px" width="32px"
	 height="32px" viewBox="0 0 32 32" enable-background="new 0 0 32 32" xml:space="preserve">
<g id="labels">
	<g>
	</g>
</g>
<g id="icons">
	<g>
		<path fill="#E5BDE5" d="M16,18c-3.59,0-6.5,2.91-6.5,6.5S12.41,31,16,31V18z"/>
		<path fill="#E0ABDF" d="M16,18c3.59,0,6.5,2.91,6.5,6.5S19.59,31,16,31V18z"/>
		<path fill="#EBCEEB" d="M16,5C10.408,5,4,9.033,4,14.625C4,21,10.408,24.5,16,24.5V5z"/>
		<circle fill="#EBCEEB" cx="9.5" cy="28" r="4"/>
		<path fill="#F3DCF4" d="M16,0c-0.169,0-0.337,0.083-0.434,0.25L12.536,5.5c0,0,1.964,1.538,3.464,1.538L16,0z"/>
		<path fill="#E5BDE5" d="M16,5c5.592,0,12,4.033,12,9.625C28,21,21.592,24.5,16,24.5V5z"/>
		<circle fill="#E5BDE5" cx="22.625" cy="28" r="4"/>
		<path fill="#EBCEEB" d="M16,0c0.169,0,0.337,0.083,0.434,0.25l3.031,5.25c0,0-1.964,1.538-3.464,1.538L16,0z"/>
		<path fill="#373F3F" d="M16,19.5c-1.792,0-3.25-1.121-3.25-2.5h0.5c0,1.103,1.233,2,2.75,2V19.5z"/>
		<path fill="#2B3332" d="M16,19c1.517,0,2.75-0.897,2.75-2h0.5c0,1.379-1.458,2.5-3.25,2.5V19z"/>
		<path fill="#FEF1C6" d="M16,12.239V17.5c-2,0-2.26,1.521-4.521,1.521c-3.422,0-4.991-2.887-4.341-5.721
			c0.359-1.562,1.631-2.828,3.194-3.184c1.525-0.348,2.943,0.114,3.933,1.035C14.81,11.657,14.859,12.239,16,12.239z"/>
		<circle fill="#373F3F" cx="11" cy="14.5" r="2.5"/>
		<path fill="#FFFFFF" d="M12.25,13.773c0,0.69-0.56,1.25-1.25,1.25s-1.25-0.56-1.25-1.25s0.56-1.25,1.25-1.25
			S12.25,13.083,12.25,13.773z"/>
		<path fill="#FFEAA7" d="M17.736,11.15c0.99-0.921,2.407-1.382,3.933-1.035c1.563,0.356,2.835,1.622,3.194,3.184
			c0.651,2.834-0.919,5.721-4.341,5.721C18.261,19.021,18,17.5,16,17.5v-5.261C17.141,12.239,17.191,11.657,17.736,11.15z"/>
		<circle fill="#2B3332" cx="21" cy="14.5" r="2.5"/>
		<path fill="#F7F7F7" d="M21,12.523c0.69,0,1.25,0.56,1.25,1.25s-0.56,1.25-1.25,1.25s-1.25-0.56-1.25-1.25S20.31,12.523,21,12.523
			z"/>
	</g>
</g>
</svg>
