<?xml version="1.0" encoding="utf-8"?>
<!-- Generator: Adobe Illustrator 23.0.6, SVG Export Plug-In . SVG Version: 6.00 Build 0)  -->
<svg version="1.1" xmlns="http://www.w3.org/2000/svg" xmlns:xlink="http://www.w3.org/1999/xlink" x="0px" y="0px" width="32px"
	 height="32px" viewBox="0 0 32 32" enable-background="new 0 0 32 32" xml:space="preserve">
<g id="labels">
	<g>
	</g>
</g>
<g id="icons">
	<g>
		<path fill="#EDEEEE" d="M13.5,28c0-4-0.791-4-3-4s-5,1.791-5,4s1.791,4,4,4S13.5,30.209,13.5,28z"/>
		<path fill="#E3E5E5" d="M18.625,28c0-4,0.791-4,3-4s5,1.791,5,4s-1.791,4-4,4S18.625,30.209,18.625,28z"/>
		<circle fill="#F7F7F7" cx="16" cy="28" r="4"/>
		<path fill="#FFAD68" d="M12,4c0,0.205,0.031,0.401,0.06,0.598c-0.1,0.029-0.2,0.058-0.299,0.089C11.216,3.126,9.747,2,8,2
			C5.791,2,4,3.791,4,6c0,1.135,0.478,2.155,1.238,2.883C5.164,8.97,5.09,9.058,5.019,9.147C4.692,9.061,4.355,9,4,9
			c-2.209,0-4,1.791-4,4c0,1.962,1.415,3.586,3.278,3.927c0.034,0.141,0.073,0.278,0.113,0.415C1.984,17.963,1,19.364,1,21
			c0,2.209,1.791,4,4,4c1.326,0,2.492-0.652,3.22-1.646C10.549,24.765,13.358,25.5,16,25.5V8V4V0C13.791,0,12,1.791,12,4z"/>
		<path fill="#FCA15E" d="M28.61,17.343c0.04-0.138,0.079-0.275,0.113-0.416C30.586,16.586,32,14.962,32,13c0-2.209-1.791-4-4-4
			c-0.354,0-0.692,0.061-1.019,0.147c-0.071-0.089-0.144-0.177-0.218-0.265C27.522,8.155,28,7.135,28,6c0-2.209-1.791-4-4-4
			c-1.747,0-3.216,1.126-3.761,2.687c-0.099-0.031-0.199-0.06-0.299-0.089C19.969,4.401,20,4.205,20,4c0-2.209-1.791-4-4-4v8
			c0,0,0,0,0,0v17.5c2.642,0,5.451-0.735,7.78-2.146C24.508,24.348,25.674,25,27,25c2.209,0,4-1.791,4-4
			C31,19.365,30.016,17.963,28.61,17.343z"/>
		<path fill="#F79654" d="M16,6C10.874,6,5,9.619,5,14.638c0,5.721,5.874,8.862,11,8.862V6z"/>
		<path fill="#EF8C48" d="M16,6c5.126,0,11,3.619,11,8.638c0,5.721-5.874,8.862-11,8.862V6z"/>
		<path fill="#373F3F" d="M16,19.5c-1.792,0-3.25-1.121-3.25-2.5h0.5c0,1.103,1.233,2,2.75,2V19.5z"/>
		<path fill="#2B3332" d="M16,19c1.517,0,2.75-0.897,2.75-2h0.5c0,1.379-1.458,2.5-3.25,2.5V19z"/>
		<path fill="#FFD04D" d="M16,12.239V17.5c-2,0-2.26,1.521-4.521,1.521c-3.422,0-4.991-2.887-4.341-5.721
			c0.359-1.562,1.631-2.828,3.194-3.184c1.525-0.348,2.943,0.114,3.933,1.035C14.81,11.657,14.859,12.239,16,12.239z"/>
		<circle fill="#373F3F" cx="11" cy="14.5" r="2.5"/>
		<path fill="#FFFFFF" d="M12.25,13.773c0,0.69-0.56,1.25-1.25,1.25s-1.25-0.56-1.25-1.25s0.56-1.25,1.25-1.25
			S12.25,13.083,12.25,13.773z"/>
		<path fill="#F7C845" d="M17.736,11.15c0.99-0.921,2.407-1.382,3.933-1.035c1.563,0.356,2.835,1.622,3.194,3.184
			c0.651,2.834-0.919,5.721-4.341,5.721C18.261,19.021,18,17.5,16,17.5v-5.261C17.141,12.239,17.191,11.657,17.736,11.15z"/>
		<circle fill="#2B3332" cx="21" cy="14.5" r="2.5"/>
		<path fill="#F7F7F7" d="M21,12.523c0.69,0,1.25,0.56,1.25,1.25s-0.56,1.25-1.25,1.25s-1.25-0.56-1.25-1.25S20.31,12.523,21,12.523
			z"/>
	</g>
</g>
</svg>
