<?xml version="1.0" encoding="utf-8"?>
<!-- Generator: Adobe Illustrator 23.0.6, SVG Export Plug-In . SVG Version: 6.00 Build 0)  -->
<svg version="1.1" xmlns="http://www.w3.org/2000/svg" xmlns:xlink="http://www.w3.org/1999/xlink" x="0px" y="0px" width="32px"
	 height="32px" viewBox="0 0 32 32" enable-background="new 0 0 32 32" xml:space="preserve">
<g id="labels">
	<g>
	</g>
</g>
<g id="icons">
	<g>
		<path fill="#EDEEEE" d="M13.5,28c0-4-0.791-4-3-4s-5,1.791-5,4s1.791,4,4,4S13.5,30.209,13.5,28z"/>
		<path fill="#E3E5E5" d="M18.625,28c0-4,0.791-4,3-4s5,1.791,5,4s-1.791,4-4,4S18.625,30.209,18.625,28z"/>
		<circle fill="#F7F7F7" cx="16" cy="28" r="4"/>
		<path fill="#8EC0E0" d="M16,0.009c-0.347,0-0.694,0.123-0.974,0.369C9.4,5.313,3,8.786,3,14.612C3,21.641,9.942,25.5,16,25.5
			V0.009z"/>
		<path fill="#7FB8E0" d="M28.999,14.612c0-5.826-6.399-9.299-12.026-14.234C16.694,0.132,16.347,0.009,16,0.009V25.5
			C22.058,25.5,28.999,21.641,28.999,14.612z"/>
		<path fill="#71B1E1" d="M16,6C10.874,6,5,9.619,5,14.638c0,5.721,5.874,8.862,11,8.862V6z"/>
		<path fill="#65A9DC" d="M16,6c5.126,0,11,3.619,11,8.638c0,5.721-5.874,8.862-11,8.862V6z"/>
		<path fill="#373F3F" d="M16,19.5c-1.792,0-3.25-1.121-3.25-2.5h0.5c0,1.103,1.233,2,2.75,2V19.5z"/>
		<path fill="#2B3332" d="M16,19c1.517,0,2.75-0.897,2.75-2h0.5c0,1.379-1.458,2.5-3.25,2.5V19z"/>
		<path fill="#D2E6F3" d="M16,12.239V17.5c-2,0-2.26,1.521-4.521,1.521c-3.422,0-4.991-2.887-4.341-5.721
			c0.359-1.562,1.631-2.828,3.194-3.184c1.525-0.348,2.943,0.114,3.933,1.035C14.81,11.657,14.859,12.239,16,12.239z"/>
		<circle fill="#373F3F" cx="11" cy="14.5" r="2.5"/>
		<path fill="#FFFFFF" d="M12.25,13.773c0,0.69-0.56,1.25-1.25,1.25s-1.25-0.56-1.25-1.25s0.56-1.25,1.25-1.25
			S12.25,13.083,12.25,13.773z"/>
		<path fill="#C1DDEE" d="M17.736,11.15c0.99-0.921,2.407-1.382,3.933-1.035c1.563,0.356,2.835,1.622,3.194,3.184
			c0.651,2.834-0.919,5.721-4.341,5.721C18.261,19.021,18,17.5,16,17.5v-5.261C17.141,12.239,17.191,11.657,17.736,11.15z"/>
		<circle fill="#2B3332" cx="21" cy="14.5" r="2.5"/>
		<path fill="#F7F7F7" d="M21,12.523c0.69,0,1.25,0.56,1.25,1.25s-0.56,1.25-1.25,1.25s-1.25-0.56-1.25-1.25S20.31,12.523,21,12.523
			z"/>
	</g>
</g>
</svg>
