<?xml version="1.0" encoding="utf-8"?>
<!-- Generator: Adobe Illustrator 23.0.6, SVG Export Plug-In . SVG Version: 6.00 Build 0)  -->
<svg version="1.1" xmlns="http://www.w3.org/2000/svg" xmlns:xlink="http://www.w3.org/1999/xlink" x="0px" y="0px" width="32px"
	 height="32px" viewBox="0 0 32 32" enable-background="new 0 0 32 32" xml:space="preserve">
<g id="labels">
	<g>
	</g>
</g>
<g id="icons">
	<g>
		<g>
			<path fill="#6673AA" d="M18.03,4.017c-0.711-1.728-1.119-3.428-1.119-3.428C16.734,0.196,16.367,0,16,0v19.875
				c5.548,0,10.124-2.99,10.879-6.874C26.95,12.632,27,12.258,27,11.875C27,7.962,23.134,4.71,18.03,4.017z"/>
			<path fill="#707EB7" d="M15.089,0.588c0,0-0.408,1.7-1.119,3.428C8.866,4.71,5,7.962,5,11.875c0,0.383,0.05,0.757,0.121,1.126
				c0.754,3.884,5.33,6.874,10.879,6.874V0C15.633,0,15.266,0.196,15.089,0.588z"/>
		</g>
		<path fill="#5C699E" d="M16,32c-3.334,0-2.115-3-5-3s-4.792,3.042-7,2c-1.894-0.893-0.083-2.542-2-4
			c-1.025-0.78-1.313-1.781-0.719-3C2.334,21.839,6.058,22.286,9,22c3-0.292,4.091-5,4.091-5H16V32z"/>
		<path fill="#515E91" d="M16,32c3.334,0,2.115-3,5-3s4.792,3.042,7,2c1.894-0.893,0.083-2.542,2-4c1.025-0.78,1.312-1.781,0.719-3
			c-1.053-2.161-4.777-1.714-7.719-2c-3-0.292-4.091-5-4.091-5H16V32z"/>
		<g>
			<path fill="#5C699E" d="M16,19.875c5.548,0,10.124-2.99,10.879-6.874c-2.79,1.693-6.633,2.74-10.879,2.74V19.875z"/>
			<path fill="#6673AA" d="M5.121,13.001c0.754,3.884,5.33,6.874,10.879,6.874v-4.133C11.755,15.742,7.912,14.694,5.121,13.001z"/>
		</g>
		<g>
			<path fill="#2B3332" d="M22.045,9.5c0.093,0,0.184,0.01,0.273,0.031c1.54,0.363,1.286,2.707,0.866,3.306
				C22.9,13.241,22.512,13.5,21.879,13.5c-0.353,0-0.782-0.08-1.312-0.261c-1.482-0.504-2.002-1.109-2.002-1.109
				S20.53,9.5,22.045,9.5z M22.046,9L22.046,9c-1.712,0-3.658,2.54-3.875,2.829l-0.121,0.162c-0.07,0.094-0.066,0.226,0.011,0.315
				l0.132,0.153c0.062,0.072,0.653,0.723,2.217,1.254C20.977,13.906,21.457,14,21.879,14c0.736,0,1.295-0.286,1.708-0.874
				c0.394-0.561,0.582-1.859,0.221-2.823c-0.251-0.67-0.727-1.106-1.377-1.259C22.307,9.015,22.177,9,22.046,9L22.046,9z"/>
			<path fill="#99C7CE" d="M22.317,9.531c-0.307-0.072-0.64-0.009-0.978,0.133c0.565,0.438,0.936,1.155,0.936,1.97
				c0,0.738-0.309,1.391-0.787,1.835c0.869,0.121,1.356-0.151,1.694-0.632C23.603,12.237,23.857,9.894,22.317,9.531z"/>
			<path fill="#3E688C" d="M22.276,11.634c0-0.815-0.371-1.532-0.936-1.97c-0.652,0.274-1.315,0.851-1.832,1.381
				c0.505,0.01,0.911,0.458,0.911,1.012c0,0.405-0.219,0.752-0.533,0.914c0.202,0.09,0.421,0.181,0.68,0.269
				c0.351,0.119,0.654,0.192,0.923,0.229C21.966,13.025,22.275,12.372,22.276,11.634z"/>
			<path fill="#F7C845" d="M18.57,12.123c0,0.005,0.001,0.011,0.002,0.016c0.031,0.035,0.4,0.424,1.314,0.832
				c0.314-0.162,0.533-0.509,0.533-0.914c0-0.554-0.407-1.002-0.911-1.012C18.97,11.596,18.597,12.087,18.57,12.123z"/>
			<path fill="#373F3F" d="M9.955,9.5c1.515,0,3.48,2.631,3.48,2.631s-0.52,0.605-2.002,1.109c-0.53,0.18-0.96,0.261-1.312,0.261
				c-0.633,0-1.021-0.259-1.305-0.664c-0.42-0.599-0.674-2.943,0.866-3.306C9.771,9.51,9.862,9.5,9.955,9.5z M9.954,9
				C9.823,9,9.693,9.015,9.57,9.044c-0.65,0.153-1.126,0.589-1.377,1.259c-0.361,0.965-0.173,2.262,0.221,2.823
				C8.826,13.714,9.385,14,10.121,14c0.422,0,0.902-0.094,1.47-0.287c1.564-0.532,2.155-1.182,2.217-1.254l0.132-0.153
				c0.077-0.089,0.081-0.221,0.011-0.315l-0.121-0.162C13.613,11.539,11.666,9,9.954,9L9.954,9L9.954,9z"/>
			<path fill="#9FCCD3" d="M9.687,9.531c0.307-0.072,0.64-0.009,0.978,0.133c-0.565,0.438-0.936,1.155-0.936,1.97
				c0,0.738,0.309,1.391,0.787,1.835c-0.869,0.121-1.356-0.151-1.694-0.632C8.4,12.237,8.147,9.894,9.687,9.531z"/>
			<path fill="#456F93" d="M9.728,11.634c0-0.815,0.371-1.532,0.936-1.97c0.652,0.274,1.315,0.851,1.832,1.381
				c-0.505,0.01-0.911,0.458-0.911,1.012c0,0.405,0.219,0.752,0.533,0.914c-0.202,0.09-0.421,0.181-0.68,0.269
				c-0.351,0.119-0.654,0.192-0.923,0.229C10.038,13.025,9.728,12.372,9.728,11.634z"/>
			<path fill="#FFD04D" d="M13.434,12.123c0,0.005-0.001,0.011-0.002,0.016c-0.031,0.035-0.4,0.424-1.314,0.832
				c-0.314-0.162-0.533-0.509-0.533-0.914c0-0.554,0.407-1.002,0.911-1.012C13.034,11.596,13.407,12.087,13.434,12.123z"/>
		</g>
		<path fill="#373F3F" d="M13.177,16.1c-0.082-0.11-0.238-0.133-0.348-0.052c-0.111,0.082-0.135,0.238-0.054,0.35
			c0.033,0.045,0.836,1.099,3.225,1.102v-0.5C13.902,16.997,13.192,16.12,13.177,16.1z"/>
		<path fill="#2B3332" d="M19.227,16.396c0.08-0.111,0.055-0.265-0.056-0.347c-0.109-0.08-0.267-0.057-0.349,0.053
			C18.815,16.111,18.124,17,16.008,17c-0.003,0-0.005,0-0.008,0v0.5c0.003,0,0.005,0,0.008,0
			C18.405,17.5,19.194,16.441,19.227,16.396z"/>
	</g>
</g>
</svg>
