<?xml version="1.0" encoding="utf-8"?>
<!-- Generator: Adobe Illustrator 23.0.6, SVG Export Plug-In . SVG Version: 6.00 Build 0)  -->
<svg version="1.1" xmlns="http://www.w3.org/2000/svg" xmlns:xlink="http://www.w3.org/1999/xlink" x="0px" y="0px" width="32px"
	 height="32px" viewBox="0 0 32 32" enable-background="new 0 0 32 32" xml:space="preserve">
<g id="labels">
	<g>
	</g>
</g>
<g id="icons">
	<g>
		<path fill="#E5C79A" d="M23.361,15l4.005,7.004c0.075,0.131,0.245,0.171,0.371,0.088l1.196-0.79
			c0.139-0.092,0.327-0.032,0.387,0.124l1.167,3.011c0.049,0.126,0.186,0.194,0.317,0.156l0.861-0.251
			c0.243-0.071,0.434,0.21,0.28,0.41l-1.656,2.146c-0.121,0.157-0.367,0.127-0.446-0.055l-1.169-2.683
			c-0.065-0.149-0.248-0.203-0.383-0.114l-0.881,0.582c-0.112,0.074-0.262,0.051-0.347-0.054l-4.68-5.788L23.361,15z"/>
		<path fill="#EACEA1" d="M8.639,15l-4.005,7.004c-0.075,0.131-0.245,0.171-0.371,0.088l-1.196-0.79
			c-0.139-0.092-0.327-0.032-0.387,0.124l-1.167,3.011c-0.049,0.126-0.186,0.194-0.317,0.156l-0.861-0.251
			c-0.243-0.071-0.434,0.21-0.28,0.41l1.656,2.146c0.121,0.157,0.367,0.127,0.446-0.055l1.169-2.683
			c0.065-0.149,0.248-0.203,0.383-0.114l0.881,0.582c0.112,0.074,0.262,0.051,0.347-0.054l4.68-5.788L8.639,15z"/>
		<path fill="#C8CCCB" d="M16,3c-2.045,0-4.237,1.184-5.727,5.14c-0.039,0.103-0.075,0.201-0.113,0.302C11.981,8.797,13.943,9,16,9
			V3z"/>
		<path fill="#ABB2B1" d="M16,9c-2.057,0-4.019-0.203-5.84-0.558c-0.89,2.377-1.558,4.327-1.962,5.547C10.53,14.632,13.181,15,16,15
			V9z"/>
		<path fill="#909997" d="M7.001,19.622C6.99,22.944,8.509,27,16,27v-0.031V21C12.685,21,9.604,20.49,7.001,19.622z"/>
		<path fill="#909997" d="M24.25,15.372c0,0-0.156-0.503-0.448-1.383C21.47,14.632,18.819,15,16,15v0.031v6
			c3.315,0,6.396-0.51,8.998-1.378C24.997,17.339,24.25,15.372,24.25,15.372z"/>
		<path fill="#ABB2B1" d="M16,3.031v6c2.057,0,4.019-0.203,5.84-0.558c-0.038-0.101-0.074-0.199-0.113-0.302
			C20.237,4.215,18.045,3.031,16,3.031z"/>
		<path fill="#9DA5A4" d="M16,9.031v6c2.819,0,5.47-0.368,7.802-1.01c-0.405-1.22-1.072-3.17-1.962-5.547
			C20.019,8.828,18.057,9.031,16,9.031z"/>
		<path fill="#838C8A" d="M16,27c7.467,0,8.999-4.031,8.998-7.346C22.396,20.522,19.315,21,16,21V27z"/>
		<path fill="#9DA5A4" d="M16,15c-2.819,0-5.47-0.368-7.802-1.01c-0.292,0.879-0.448,1.383-0.448,1.383s-0.741,1.949-0.749,4.25
			C9.604,20.49,12.685,21,16,21V15z"/>
		<path fill="#E5C79A" d="M18.434,1.112l1.858,0.839c0.054,0.028,0.116,0.036,0.176,0.022l1.949-0.474
			c0.039-0.009,0.079-0.009,0.117,0l1.322,0.11c0.277,0.066,0.246,0.608-0.038,0.631l-1.204,0.058
			c-0.026,0.002-0.051,0.008-0.074,0.018l-2.081,1.15c-0.054,0.022-0.113,0.025-0.168,0.008l-2.081-0.939l-0.933-0.4L18.434,1.112z"
			/>
		<path fill="#838C8A" d="M13.353,29.5h-1.794h-0.118H9.647c-0.62,0.641-0.906,1.364-1.037,1.866C8.526,31.687,8.761,32,9.093,32
			h2.349h0.118h2.349c0.331,0,0.566-0.313,0.483-0.634C14.259,30.864,13.973,30.141,13.353,29.5z"/>
		<path fill="#757F7E" d="M22.353,29.5h-1.794h-0.118h-1.794c-0.62,0.641-0.906,1.364-1.037,1.866
			C17.526,31.687,17.761,32,18.093,32h2.349h0.118h2.349c0.331,0,0.566-0.313,0.483-0.634C23.259,30.864,22.973,30.141,22.353,29.5z
			"/>
		<path fill="#EFD4A7" d="M13.267,2.134c-0.207,0-0.335,0.225-0.23,0.402l1.023,1.731h0C14.669,4.581,15.335,4.738,16,4.738V2.134
			H13.267z"/>
		<path fill="#EACEA1" d="M17.939,4.267l1.023-1.731c0.105-0.178-0.023-0.402-0.23-0.402H16v2.604
			C16.665,4.738,17.331,4.581,17.939,4.267L17.939,4.267z"/>
		<path fill="#FCE8CC" d="M13.291,1.241c-0.201,0.092-0.209,0.375-0.014,0.478l0.783,0.414l0.639,0.22
			C15.121,2.498,15.561,2.57,16,2.57V0L13.291,1.241z"/>
		<path fill="#F5DEB9" d="M17.939,2.134l0.783-0.414c0.195-0.103,0.188-0.386-0.014-0.478L16,0v2.57c0.439,0,0.879-0.072,1.3-0.217
			L17.939,2.134z"/>
		<path fill="#838C8A" d="M17.57,28.211c0.075,0.781,0.226,1.522,0.537,1.989C18.65,31.015,19.672,31,20.5,31
			c1.306,0,2.406-1.26,2.818-3.007c-1.028,0.299-2.145,0.468-3.319,0.468C19.156,28.461,18.344,28.37,17.57,28.211z"/>
		<g>
			<path fill="#909997" d="M17.637,25.224c-0.081,0.407-0.137,0.83-0.137,1.276c0,0.53,0.014,1.131,0.07,1.711
				c0.774,0.159,1.586,0.25,2.429,0.25c1.173,0,2.291-0.169,3.319-0.468c0.111-0.469,0.182-0.967,0.182-1.493
				c0-0.531-0.072-1.033-0.185-1.506c-1.027,0.298-2.144,0.467-3.316,0.467C19.18,25.461,18.391,25.374,17.637,25.224z"/>
			<path fill="#9DA5A4" d="M20.5,22c-1.359,0-2.494,1.365-2.863,3.224c0.754,0.15,1.543,0.237,2.362,0.237
				c1.172,0,2.289-0.169,3.316-0.467C22.9,23.253,21.803,22,20.5,22z"/>
		</g>
		<path fill="#909997" d="M14.43,28.211c-0.075,0.781-0.226,1.522-0.537,1.989C13.35,31.015,12.328,31,11.5,31
			c-1.306,0-2.406-1.26-2.818-3.007c1.028,0.299,2.145,0.468,3.319,0.468C12.844,28.461,13.656,28.37,14.43,28.211z"/>
		<g>
			<path fill="#9DA5A4" d="M14.363,25.224c0.081,0.407,0.137,0.83,0.137,1.276c0,0.53-0.014,1.131-0.07,1.711
				c-0.774,0.159-1.586,0.25-2.429,0.25c-1.173,0-2.291-0.169-3.319-0.468C8.572,27.524,8.5,27.026,8.5,26.5
				c0-0.531,0.072-1.033,0.185-1.506c1.027,0.298,2.144,0.467,3.316,0.467C12.82,25.461,13.609,25.374,14.363,25.224z"/>
			<path fill="#ABB2B1" d="M11.5,22c1.359,0,2.494,1.365,2.863,3.224c-0.754,0.15-1.543,0.237-2.362,0.237
				c-1.172,0-2.289-0.169-3.316-0.467C9.099,23.253,10.197,22,11.5,22z"/>
		</g>
		<path fill="#FFFFFF" d="M14.5,10c0-0.828,0.672-1.5,1.5-1.5V7c-1.657,0-3,1.343-3,3s1.343,3,3,3v-1.5
			C15.172,11.5,14.5,10.828,14.5,10z"/>
		<path fill="#D64F45" d="M14.5,10c0,0.828,0.672,1.5,1.5,1.5v-3C15.172,8.5,14.5,9.172,14.5,10z"/>
		<path fill="#C8CCCB" d="M8.506,12.976l-2.1,3.701c-0.157,0.277-0.019,0.628,0.284,0.723l4.655,1.472
			c0.263,0.083,0.544-0.063,0.628-0.326L13,15.299v3.224c0,0.276,0.224,0.5,0.5,0.5H16v-4.719
			C13.142,14.305,10.529,13.804,8.506,12.976z"/>
		<path fill="#F7F7F7" d="M19,10c0-1.657-1.343-3-3-3v1.5c0.828,0,1.5,0.672,1.5,1.5s-0.672,1.5-1.5,1.5V13
			C17.657,13,19,11.657,19,10z"/>
		<path fill="#D1473D" d="M17.5,10c0-0.828-0.672-1.5-1.5-1.5v3C16.828,11.5,17.5,10.828,17.5,10z"/>
		<path fill="#ABB2B1" d="M19,18.524v-3.224l1.027,3.248c0.083,0.263,0.364,0.409,0.628,0.326l4.655-1.472
			c0.303-0.096,0.441-0.447,0.284-0.723l-2.1-3.701c-2.023,0.828-4.636,1.329-7.494,1.329v4.719h2.5
			C18.776,19.024,19,18.8,19,18.524z"/>
		<path fill="#F5DEB9" d="M11.051,15.722l-0.671-0.31C9.958,15.18,9.853,14.56,9.853,14.56c0-0.374-0.275-0.945-0.645-0.998
			l-1.75-0.248c-0.07-0.01-0.141-0.01-0.21,0l-1.75,0.248c-0.37,0.052-0.645,0.624-0.645,0.998v1.091c0,0.157,0.049,0.31,0.14,0.437
			l0.539,0.752c0.159,0.222,0.427,0.34,0.699,0.308l0.765-0.092c0.237-0.029,0.477-0.029,0.715,0l0.765,0.092
			c0.193,0.023,0.364-0.048,0.52-0.163c0.438-0.321,1.114-0.045,1.114-0.045l0,0l0.312,0.144c0.376,0.174,0.822,0.01,0.996-0.366
			C11.591,16.342,11.427,15.896,11.051,15.722z"/>
		<path fill="#FCE8CC" d="M9.25,14.459L9.25,14.459c-0.414,0-0.75-0.336-0.75-0.75V12.75C8.5,12.336,8.836,12,9.25,12h0
			C9.664,12,10,12.336,10,12.75v0.959C10,14.123,9.664,14.459,9.25,14.459z"/>
		<path fill="#FCE8CC" d="M7.75,14.459L7.75,14.459c-0.414,0-0.75-0.336-0.75-0.75V12.75C7,12.336,7.336,12,7.75,12h0
			c0.414,0,0.75,0.336,0.75,0.75v0.959C8.5,14.123,8.164,14.459,7.75,14.459z"/>
		<path fill="#FCE8CC" d="M6.25,14.459L6.25,14.459c-0.414,0-0.75-0.336-0.75-0.75V12.75C5.5,12.336,5.836,12,6.25,12h0
			C6.664,12,7,12.336,7,12.75v0.959C7,14.123,6.664,14.459,6.25,14.459z"/>
		<path fill="#FCE8CC" d="M4.75,15.381L4.75,15.381c-0.414,0-0.75-0.336-0.75-0.75v-0.959c0-0.414,0.336-0.75,0.75-0.75h0
			c0.414,0,0.75,0.336,0.75,0.75v0.959C5.5,15.045,5.164,15.381,4.75,15.381z"/>
		<path fill="#EFD4A7" d="M20.949,15.722l0.671-0.31c0.422-0.232,0.527-0.852,0.527-0.852c0-0.374,0.275-0.945,0.645-0.998
			l1.75-0.248c0.07-0.01,0.141-0.01,0.21,0l1.75,0.248c0.37,0.052,0.645,0.624,0.645,0.998v1.091c0,0.157-0.049,0.31-0.14,0.437
			l-0.539,0.752c-0.159,0.222-0.427,0.34-0.699,0.308l-0.765-0.092c-0.237-0.029-0.477-0.029-0.715,0l-0.765,0.092
			c-0.193,0.023-0.364-0.048-0.52-0.163c-0.438-0.321-1.114-0.045-1.114-0.045l0,0l-0.312,0.144
			c-0.376,0.174-0.822,0.01-0.996-0.366C20.409,16.342,20.573,15.896,20.949,15.722z"/>
		<path fill="#F5DEB9" d="M22.75,14.459L22.75,14.459c0.414,0,0.75-0.336,0.75-0.75V12.75c0-0.414-0.336-0.75-0.75-0.75h0
			C22.336,12,22,12.336,22,12.75v0.959C22,14.123,22.336,14.459,22.75,14.459z"/>
		<path fill="#F5DEB9" d="M24.25,14.459L24.25,14.459c0.414,0,0.75-0.336,0.75-0.75V12.75c0-0.414-0.336-0.75-0.75-0.75h0
			c-0.414,0-0.75,0.336-0.75,0.75v0.959C23.5,14.123,23.836,14.459,24.25,14.459z"/>
		<path fill="#F5DEB9" d="M25.75,14.459L25.75,14.459c0.414,0,0.75-0.336,0.75-0.75V12.75c0-0.414-0.336-0.75-0.75-0.75h0
			C25.336,12,25,12.336,25,12.75v0.959C25,14.123,25.336,14.459,25.75,14.459z"/>
		<path fill="#F5DEB9" d="M27.25,15.381L27.25,15.381c0.414,0,0.75-0.336,0.75-0.75v-0.959c0-0.414-0.336-0.75-0.75-0.75h0
			c-0.414,0-0.75,0.336-0.75,0.75v0.959C26.5,15.045,26.836,15.381,27.25,15.381z"/>
	</g>
</g>
</svg>
