<?xml version="1.0" encoding="utf-8"?>
<!-- Generator: Adobe Illustrator 23.0.6, SVG Export Plug-In . SVG Version: 6.00 Build 0)  -->
<svg version="1.1" xmlns="http://www.w3.org/2000/svg" xmlns:xlink="http://www.w3.org/1999/xlink" x="0px" y="0px" width="32px"
	 height="32px" viewBox="0 0 32 32" enable-background="new 0 0 32 32" xml:space="preserve">
<g id="labels">
	<g>
	</g>
</g>
<g id="icons">
	<g>
		<g>
			<path fill="#373F3F" d="M2,16c0,7.732,6.268,14,14,14V2C8.268,2,2,8.268,2,16z"/>
			<path fill="#2B3332" d="M30,16c0-7.732-6.268-14-14-14v28C23.732,30,30,23.732,30,16z"/>
		</g>
		<g>
			<path fill="#505957" d="M1.4,0.084l13.298,5.799l-3.232,3.232L0.422,0.196C0.688,0.003,1.043-0.072,1.4,0.084z"/>
			<path fill="#373F3F" d="M0.084,1.4l5.799,13.298l3.232-3.232L0.196,0.422C0.003,0.688-0.072,1.043,0.084,1.4z"/>
			<path fill="#434C4B" d="M0.309,0.309c0.038-0.038,0.07-0.081,0.113-0.113l11.044,8.919l-1.175,1.175l-1.175,1.175L0.196,0.422
				C0.228,0.379,0.271,0.347,0.309,0.309z"/>
		</g>
		<g>
			<path fill="#434C4B" d="M30.6,0.084L17.301,5.883l3.232,3.232l11.044-8.919C31.312,0.003,30.957-0.072,30.6,0.084z"/>
			<path fill="#2B3332" d="M31.916,1.4l-5.799,13.298l-3.232-3.232l8.919-11.044C31.997,0.688,32.072,1.043,31.916,1.4z"/>
			<path fill="#373F3F" d="M31.691,0.309c-0.038-0.038-0.07-0.081-0.113-0.113L20.534,9.116l1.175,1.175l1.175,1.175l8.919-11.044
				C31.772,0.379,31.728,0.347,31.691,0.309z"/>
		</g>
		<path fill="#C1DDEE" d="M16,3.422h-0.959c-0.525,0-0.95-0.425-0.95-0.95V1.306c0-0.301-0.142-0.584-0.384-0.763l-0.356-0.264
			c-0.237-0.176-0.543-0.232-0.827-0.151l-2.322,0.663C10.037,0.839,9.887,0.931,9.77,1.056L1.55,9.824
			c-0.158,0.168-0.249,0.388-0.256,0.618l-0.34,10.195c-0.006,0.165,0.032,0.329,0.109,0.475l3.423,6.484
			c0.13,0.246,0.362,0.423,0.633,0.484l4.343,0.969c0.154,0.034,0.298,0.107,0.417,0.211l1.601,1.393
			c0.107,0.093,0.234,0.161,0.37,0.199L16,32V3.422z"/>
		<g>
			<path fill="#434C4B" d="M30.6,0.084L17.301,5.883l3.232,3.232l11.044-8.919C31.312,0.003,30.957-0.072,30.6,0.084z"/>
			<path fill="#2B3332" d="M31.916,1.4l-5.799,13.298l-3.232-3.232l8.919-11.044C31.997,0.688,32.072,1.043,31.916,1.4z"/>
			<path fill="#373F3F" d="M31.691,0.309c-0.038-0.038-0.07-0.081-0.113-0.113L20.534,9.116l1.175,1.175l1.175,1.175l8.919-11.044
				C31.772,0.379,31.728,0.347,31.691,0.309z"/>
		</g>
		<path fill="#B0D3EA" d="M16,3.422h0.959c0.525,0,0.95-0.425,0.95-0.95V1.306c0-0.301,0.142-0.584,0.384-0.763l0.356-0.264
			c0.237-0.176,0.543-0.232,0.827-0.151l2.322,0.663c0.165,0.047,0.315,0.138,0.432,0.264l8.22,8.768
			c0.158,0.168,0.249,0.388,0.256,0.618l0.34,10.195c0.006,0.165-0.032,0.329-0.109,0.475l-3.423,6.484
			c-0.13,0.246-0.362,0.423-0.633,0.484l-4.343,0.969c-0.154,0.034-0.298,0.107-0.417,0.211l-1.601,1.393
			c-0.107,0.093-0.234,0.161-0.37,0.199L16,32V3.422z"/>
		<path fill="#2B3332" d="M27.354,21.912l-3.571,0.743c-0.162,0.034-0.297,0.146-0.361,0.299l-1.485,3.604
			c-0.152,0.368,0.167,0.758,0.558,0.681l3.322-0.648c0.157-0.031,0.289-0.134,0.357-0.278l1.734-3.698
			C28.084,22.241,27.758,21.828,27.354,21.912z"/>
		<g>
			<path fill="#C8CCCB" d="M20.125,24.696v2.609c0.457-0.366,0.821-0.716,1.059-0.961c0.187-0.193,0.187-0.494,0-0.686
				C20.946,25.411,20.582,25.061,20.125,24.696z"/>
			<path fill="#F7F7F7" d="M10.816,25.657c-0.187,0.193-0.187,0.494,0,0.686c0.238,0.245,0.602,0.596,1.059,0.961v-2.609
				C11.418,25.061,11.054,25.411,10.816,25.657z"/>
			<path fill="#EDEEEE" d="M14.625,23.204c-1.087,0.306-2.032,0.918-2.75,1.492v2.609c0.718,0.574,1.663,1.186,2.75,1.492V23.204z"
				/>
			<path fill="#D1D4D4" d="M17.375,23.204v5.593c1.087-0.306,2.032-0.918,2.75-1.492v-2.609
				C19.407,24.122,18.462,23.51,17.375,23.204z"/>
			<g>
				<path fill="#E3E5E5" d="M14.625,23.204v5.593C15.065,28.92,15.524,29,16,29v-6C15.524,23,15.065,23.08,14.625,23.204z"/>
				<path fill="#DADDDC" d="M17.375,23.204C16.935,23.08,16.476,23,16,23v6c0.476,0,0.935-0.08,1.375-0.204V23.204z"/>
			</g>
		</g>
		<path fill="#373F3F" d="M4.646,21.912l3.571,0.743c0.162,0.034,0.297,0.146,0.361,0.299l1.485,3.604
			c0.152,0.368-0.167,0.758-0.558,0.681L6.182,26.59c-0.157-0.031-0.289-0.134-0.357-0.278l-1.734-3.698
			C3.916,22.241,4.242,21.828,4.646,21.912z"/>
		<path fill="#373F3F" d="M5.507,11.616c0,0-1.717,4.04-1.316,7.289c0.022,0.176,0.138,0.326,0.301,0.396
			c0.994,0.426,4.702,1.844,8.914,1.3l-0.036-2.665L5.507,11.616z"/>
		<path fill="#2B3332" d="M26.493,11.616c0,0,1.717,4.04,1.316,7.289c-0.022,0.176-0.138,0.326-0.301,0.396
			c-0.994,0.426-4.702,1.844-8.914,1.3l0.036-2.665L26.493,11.616z"/>
		<path fill="#5CA3D5" d="M26,15.5c0,1.933-1.567,3.5-3.5,3.5c-1.293,0-2.409-0.709-3.015-1.752l5.374-4.319
			C25.556,13.569,26,14.479,26,15.5z"/>
		<g>
			<path fill="#373F3F" d="M15.453,7.358l-5.121,3.35c0,0,0.82,1.462,0.987,1.629C11.485,12.503,16,15.343,16,15.343V7.195
				C15.809,7.195,15.619,7.249,15.453,7.358z"/>
			<path fill="#2B3332" d="M21.669,10.708l-5.121-3.35C16.381,7.249,16.191,7.195,16,7.195v8.148c0,0,4.515-2.839,4.682-3.006
				C20.849,12.17,21.669,10.708,21.669,10.708z"/>
		</g>
		<ellipse fill="#2B3332" cx="22.25" cy="16" rx="0.75" ry="2"/>
		<path fill="#65A9DC" d="M6,15.5C6,17.433,7.567,19,9.5,19c1.293,0,2.409-0.709,3.015-1.752l-5.374-4.319
			C6.444,13.569,6,14.479,6,15.5z"/>
		<ellipse fill="#373F3F" cx="9.75" cy="16" rx="0.75" ry="2"/>
		<g>
			<path fill="#D2E6F3" d="M15.46,14.996l-3.942-2.531c-0.132-0.085-0.242-0.199-0.321-0.334l-3.99-6.771
				C7.139,5.246,7.049,5.145,6.941,5.066l-1.496-1.11C5.037,3.651,4.464,3.704,4.117,4.077l-1.12,1.205
				C2.773,5.524,2.682,5.861,2.755,6.184L3.569,9.78c0.05,0.22,0.173,0.417,0.349,0.559l9.085,7.302
				c0.232,0.187,0.369,0.468,0.373,0.766l0.024,1.743c0.004,0.287,0.131,0.558,0.348,0.745l1.57,1.35
				c0.091,0.078,0.206,0.121,0.326,0.121H16v-7.211C15.812,15.154,15.624,15.102,15.46,14.996z"/>
			<path fill="#C1DDEE" d="M16.681,22.245l1.57-1.35c0.217-0.187,0.344-0.458,0.348-0.745l0.024-1.743
				c0.004-0.298,0.141-0.579,0.373-0.766l9.085-7.302c0.176-0.141,0.299-0.338,0.349-0.559l0.815-3.597
				c0.073-0.322-0.018-0.66-0.243-0.902l-1.12-1.204c-0.347-0.373-0.919-0.426-1.328-0.122l-1.496,1.11
				c-0.107,0.08-0.198,0.18-0.266,0.295l-3.99,6.771c-0.079,0.135-0.189,0.249-0.321,0.334l-3.942,2.531
				c-0.165,0.106-0.352,0.159-0.54,0.159v7.211h0.355C16.474,22.366,16.59,22.323,16.681,22.245z"/>
		</g>
	</g>
</g>
</svg>
