<?xml version="1.0" encoding="utf-8"?>
<!-- Generator: Adobe Illustrator 23.0.6, SVG Export Plug-In . SVG Version: 6.00 Build 0)  -->
<svg version="1.1" xmlns="http://www.w3.org/2000/svg" xmlns:xlink="http://www.w3.org/1999/xlink" x="0px" y="0px" width="32px"
	 height="32px" viewBox="0 0 32 32" enable-background="new 0 0 32 32" xml:space="preserve">
<g id="labels">
	<g>
	</g>
</g>
<g id="icons">
	<g>
		<path fill="#C976A3" d="M27.039,19.105l0.209-0.063c1.137-0.343,2.431-0.34,3.565,0.006l0,0c0.783,0.239,1.257,0.794,1.179,1.38
			L31.5,24.115c-0.266,1.999-2.591,3.575-5.505,3.732l-4.789,0.258L27.039,19.105z"/>
		<path fill="#FFEAA7" d="M21.713,13.511c-0.579,1.026-1.667,1.727-2.929,1.727c-0.664,0-1.283-0.192-1.804-0.523
			c-0.299-0.19-0.64-0.285-0.98-0.285v9.633c0.498,0,0.989-0.03,1.475-0.074c0.119-0.011,0.238-0.022,0.356-0.035
			c0.48-0.053,0.955-0.12,1.422-0.214c0.024-0.005,0.047-0.012,0.071-0.017c0.445-0.092,0.882-0.206,1.313-0.333
			c0.116-0.034,0.232-0.069,0.347-0.106c0.439-0.14,0.873-0.292,1.295-0.467c0.055-0.023,0.109-0.05,0.164-0.074
			c0.371-0.158,0.733-0.332,1.09-0.517c0.123-0.063,0.245-0.127,0.366-0.194c0.379-0.208,0.752-0.427,1.113-0.664
			c0.099-0.065,0.193-0.137,0.291-0.204c0.27-0.186,0.534-0.38,0.792-0.581c0.141-0.11,0.281-0.22,0.418-0.334
			c0.272-0.226,0.535-0.461,0.792-0.703c0.063-0.06,0.126-0.12,0.188-0.181C26.265,16.834,24.224,14.773,21.713,13.511z"/>
		<path fill="#FFE28A" d="M26.62,25.091c0.085-0.099,0.172-0.197,0.254-0.299c0.12-0.148,0.233-0.301,0.347-0.454
			c0.189-0.254,0.369-0.515,0.541-0.782c0.112-0.175,0.225-0.349,0.329-0.529c0.098-0.168,0.19-0.341,0.281-0.514
			c0.042-0.08,0.081-0.163,0.122-0.245c-0.215-1.015-0.556-1.984-0.996-2.894c-0.062,0.06-0.13,0.112-0.193,0.171
			c-0.256,0.243-0.521,0.477-0.792,0.703c-0.137,0.114-0.277,0.224-0.418,0.334c-0.258,0.201-0.522,0.395-0.792,0.581
			c-0.098,0.067-0.192,0.139-0.291,0.204c-0.36,0.237-0.733,0.455-1.113,0.664c-0.121,0.066-0.243,0.13-0.366,0.193
			c-0.356,0.184-0.719,0.358-1.09,0.517c-0.055,0.024-0.108,0.051-0.164,0.074c-0.422,0.175-0.856,0.327-1.295,0.467
			c-0.115,0.037-0.231,0.071-0.347,0.105c-0.431,0.127-0.868,0.241-1.313,0.333c-0.024,0.005-0.047,0.012-0.071,0.016
			c-0.466,0.094-0.942,0.161-1.422,0.214c-0.118,0.013-0.237,0.025-0.356,0.035c-0.487,0.043-0.977,0.074-1.475,0.074V30
			c0.427,0,0.847-0.026,1.264-0.063c0.119-0.011,0.237-0.025,0.355-0.038c0.323-0.037,0.642-0.086,0.958-0.145
			c0.099-0.019,0.2-0.033,0.299-0.054c0.39-0.082,0.774-0.179,1.151-0.293c0.108-0.033,0.213-0.071,0.32-0.106
			c0.277-0.091,0.55-0.189,0.819-0.296c0.133-0.053,0.265-0.106,0.395-0.163c0.182-0.079,0.359-0.169,0.537-0.256
			c2.169,0.856,6.09,2.179,6.764,0.775C29.497,28.041,27.794,26.169,26.62,25.091z"/>
		<path fill="#F7F7F7" d="M20.667,14.492l-1.012,2.338c-0.106,0.23-0.434,0.226-0.534-0.006l-0.962-2.157
			C18.895,14.748,20.132,14.622,20.667,14.492z"/>
		<path fill="#D786B3" d="M27.492,19.366c0.002,0.003,0.003,0.006,0.005,0.009c0.441,0.911,0.781,1.879,0.996,2.894
			c0.911-1.815,1.453-3.847,1.493-6.006C29.282,17.397,28.441,18.437,27.492,19.366z"/>
		<path fill="#DB92BB" d="M28.231,9.206c1.076-1.082,1.014-2.927-0.16-4.161c-1.127-1.185-2.862-1.366-4.004-0.477
			C21.786,2.955,19.006,2,16,2v7.957v2.197v2.275c0.341,0,0.681,0.095,0.98,0.285c0.522,0.331,1.14,0.523,1.804,0.523
			c0.981,0,1.858-0.424,2.471-1.095c0.308-0.337,0.795-0.465,1.189-0.234c2.176,1.277,3.942,3.175,5.048,5.457
			c0.949-0.929,1.789-1.969,2.495-3.103c0.004-0.013,0.008-0.026,0.012-0.039C30.038,13.672,29.386,11.28,28.231,9.206z"/>
		<path fill="#C976A3" d="M25.543,5.165c-0.1-0.087-0.041-0.251,0.091-0.254c0.031-0.001,0.062-0.001,0.093,0
			c0.518,0.013,1.033,0.22,1.452,0.583c0.445,0.386,0.727,0.899,0.795,1.444c0,0.001,0,0.002,0,0.004
			c0.016,0.13-0.139,0.211-0.238,0.125L25.543,5.165z"/>
		<ellipse fill="#F7F7F7" cx="26.5" cy="12.5" rx="1.5" ry="2"/>
		<ellipse fill="#F7F7F7" cx="28" cy="16.75" rx="1" ry="1.25"/>
		<g>
			<circle fill="#2B3332" cx="21" cy="10" r="2"/>
			<path fill="#0A6F8E" d="M20.883,11.342c0,0.236,0.059,0.456,0.156,0.654C22.125,11.974,23,11.091,23,10
				c0-0.008-0.002-0.016-0.002-0.024c-0.188-0.085-0.395-0.134-0.614-0.134C21.555,9.842,20.883,10.514,20.883,11.342z"/>
			<path fill="#F7F7F7" d="M21.962,9.6c0,0.552-0.448,1-1,1s-1-0.448-1-1c0-0.552,0.448-1,1-1S21.962,9.048,21.962,9.6z"/>
		</g>
		<path fill="#FEF1C6" d="M10.287,13.511c0.579,1.026,1.667,1.727,2.929,1.727c0.664,0,1.283-0.192,1.804-0.523
			c0.299-0.19,0.64-0.285,0.98-0.285v9.633c-0.498,0-0.989-0.03-1.475-0.074c-0.119-0.011-0.238-0.022-0.356-0.035
			c-0.48-0.053-0.955-0.12-1.422-0.214c-0.024-0.005-0.047-0.012-0.071-0.017c-0.445-0.092-0.882-0.206-1.313-0.333
			c-0.116-0.034-0.232-0.069-0.347-0.106c-0.439-0.14-0.873-0.292-1.295-0.467c-0.055-0.023-0.109-0.05-0.164-0.074
			c-0.371-0.158-0.733-0.332-1.09-0.517c-0.123-0.063-0.245-0.127-0.366-0.194c-0.379-0.208-0.752-0.427-1.113-0.664
			c-0.099-0.065-0.193-0.137-0.291-0.204c-0.27-0.186-0.534-0.38-0.792-0.581c-0.141-0.11-0.281-0.22-0.418-0.334
			c-0.272-0.226-0.535-0.461-0.792-0.703c-0.063-0.06-0.126-0.12-0.188-0.181C5.735,16.834,7.776,14.773,10.287,13.511z"/>
		<path fill="#FFEAA7" d="M14.525,23.988c-0.119-0.011-0.238-0.022-0.356-0.035c-0.48-0.053-0.955-0.12-1.422-0.214
			c-0.024-0.005-0.047-0.012-0.071-0.016c-0.445-0.092-0.882-0.206-1.313-0.333c-0.116-0.034-0.232-0.069-0.347-0.105
			c-0.439-0.14-0.873-0.292-1.295-0.467c-0.056-0.023-0.109-0.05-0.164-0.074c-0.371-0.159-0.733-0.332-1.09-0.517
			c-0.123-0.063-0.245-0.127-0.366-0.193c-0.379-0.209-0.752-0.427-1.113-0.664c-0.099-0.065-0.193-0.137-0.291-0.204
			c-0.27-0.186-0.534-0.379-0.792-0.581c-0.141-0.11-0.28-0.22-0.418-0.334c-0.271-0.226-0.536-0.46-0.792-0.703
			c-0.062-0.059-0.131-0.111-0.193-0.171c-0.441,0.911-0.781,1.879-0.996,2.894c0.041,0.081,0.079,0.164,0.122,0.245
			c0.091,0.173,0.183,0.345,0.281,0.514c0.105,0.18,0.217,0.354,0.329,0.529c0.172,0.267,0.352,0.528,0.541,0.782
			c0.114,0.153,0.227,0.306,0.347,0.454c0.082,0.102,0.168,0.2,0.254,0.299c-1.174,1.078-2.877,2.949-2.243,4.27
			c0.674,1.403,4.594,0.08,6.764-0.775c0.178,0.087,0.355,0.177,0.537,0.256c0.13,0.057,0.263,0.11,0.395,0.163
			c0.269,0.107,0.542,0.206,0.819,0.296c0.107,0.035,0.212,0.074,0.32,0.106c0.377,0.113,0.761,0.211,1.151,0.293
			c0.099,0.021,0.2,0.035,0.299,0.054c0.316,0.059,0.635,0.107,0.958,0.145c0.118,0.014,0.236,0.028,0.355,0.038
			C15.153,29.974,15.573,30,16,30v-5.938C15.502,24.062,15.011,24.031,14.525,23.988z"/>
		<path fill="#FFFFFF" d="M11.333,14.492l1.012,2.338c0.106,0.23,0.434,0.226,0.534-0.006l0.962-2.157
			C13.105,14.748,11.868,14.622,11.333,14.492z"/>
		<path fill="#DB92BB" d="M4.508,19.366c-0.002,0.003-0.003,0.006-0.005,0.009c-0.441,0.911-0.781,1.879-0.996,2.894
			c-0.911-1.815-1.453-3.847-1.493-6.006C2.718,17.397,3.559,18.437,4.508,19.366z"/>
		<path fill="#E2A1C8" d="M7.933,4.567C6.792,3.678,5.056,3.86,3.929,5.044c-1.174,1.234-1.236,3.079-0.16,4.161
			c-1.155,2.074-1.807,4.467-1.767,7.018c0.004,0.013,0.008,0.026,0.012,0.039c0.705,1.134,1.545,2.174,2.495,3.103
			c1.106-2.282,2.872-4.181,5.048-5.457c0.394-0.231,0.881-0.103,1.189,0.234c0.613,0.671,1.49,1.095,2.471,1.095
			c0.664,0,1.283-0.192,1.804-0.523c0.299-0.19,0.64-0.285,0.98-0.285v-2.275V9.957V2C12.994,2,10.214,2.955,7.933,4.567z"/>
		<path fill="#D786B3" d="M6.457,5.165c0.1-0.087,0.041-0.251-0.091-0.254c-0.031-0.001-0.062-0.001-0.093,0
			c-0.518,0.013-1.033,0.22-1.452,0.583C4.375,5.881,4.093,6.394,4.026,6.939c0,0.001,0,0.002,0,0.004
			c-0.016,0.13,0.139,0.211,0.238,0.125L6.457,5.165z"/>
		<ellipse fill="#FFFFFF" cx="5.5" cy="12.5" rx="1.5" ry="2"/>
		<ellipse fill="#FFFFFF" cx="4" cy="16.75" rx="1" ry="1.25"/>
		<g>
			<circle fill="#373F3F" cx="11" cy="10" r="2"/>
			<path fill="#0F769B" d="M11.117,11.342c0,0.236-0.059,0.456-0.156,0.654C9.875,11.974,9,11.091,9,10
				c0-0.008,0.002-0.016,0.002-0.024C9.19,9.892,9.397,9.842,9.617,9.842C10.445,9.842,11.117,10.514,11.117,11.342z"/>
			<circle fill="#FFFFFF" cx="11.038" cy="9.6" r="1"/>
		</g>
	</g>
</g>
</svg>
