<?xml version="1.0" encoding="utf-8"?>
<!-- Generator: Adobe Illustrator 23.0.6, SVG Export Plug-In . SVG Version: 6.00 Build 0)  -->
<svg version="1.1" xmlns="http://www.w3.org/2000/svg" xmlns:xlink="http://www.w3.org/1999/xlink" x="0px" y="0px" width="32px"
	 height="32px" viewBox="0 0 32 32" enable-background="new 0 0 32 32" xml:space="preserve">
<g id="labels">
	<g>
	</g>
</g>
<g id="icons">
	<g>
		<path fill="#C976A3" d="M20.126,25.588l5.988-4.392c0.386-0.283,0.917-0.257,1.269,0.068c0.621,0.574,1.471,1.659,1.613,3.377
			c0.04,0.479-0.266,0.926-0.727,1.058l-6.993,1.997c-0.38,0.108-0.788-0.017-1.042-0.32l-0.284-0.34
			C19.58,26.593,19.661,25.929,20.126,25.588z"/>
		<path fill="#C56A9B" d="M21.116,27.063l7.274-1.497c0.469-0.097,0.941,0.148,1.125,0.591c0.326,0.783,0.648,2.13,0.053,3.758
			c-0.163,0.446-0.626,0.714-1.095,0.643l-7.19-1.099c-0.391-0.06-0.709-0.344-0.813-0.725l-0.117-0.427
			C20.2,27.749,20.55,27.179,21.116,27.063z"/>
		<path fill="#DB92BB" d="M16,1.004C12.764,1.092,10.167,3.742,10.167,7c0,0.185,0.009,0.369,0.026,0.549
			c0.099,1.041-0.077,2.08-0.596,2.987C7.399,14.376,6,19.332,6,22.083c0,2.22,0.915,4.245,2.42,5.806
			c-0.165,0.79-0.432,1.842-0.828,2.7C7.288,31.25,7.773,32,8.501,32h2.457c0.552,0,1-0.448,1-1v-0.765
			C13.195,30.724,14.56,31,16,31V1.004z"/>
		<path fill="#D786B3" d="M23.58,27.889c1.505-1.561,2.42-3.586,2.42-5.806c0-2.653-1.3-7.354-3.362-11.128
			c-0.524-0.96-0.676-2.053-0.527-3.137c0.099-0.721,0.069-1.484-0.115-2.265c-0.518-2.201-2.324-3.957-4.538-4.419
			C16.962,1.031,16.475,0.991,16,1.004V9v2v20c1.44,0,2.805-0.276,4.042-0.765V31c0,0.552,0.448,1,1,1h2.457
			c0.727,0,1.213-0.75,0.908-1.411C24.012,29.731,23.745,28.679,23.58,27.889z"/>
		<path fill="#FEF1C6" d="M13.403,8.636c0,0-1.568,0.762-2.392,3.076c-0.428,1.203-1.157,2.272-2.006,3.226
			c-0.039,0.044-0.072,0.088-0.111,0.133c-0.105-0.038-0.214-0.067-0.332-0.067c-0.55,0-0.996,0.446-0.996,0.996
			c0,0.292,0.131,0.549,0.332,0.731c-0.348,1.359-0.554,2.61-0.554,3.55c0,0.452,0.052,0.892,0.136,1.322
			c-0.688,0.224-1.045,1.237-0.796,2.331c0.258,1.136,1.067,1.921,1.808,1.753c0.31-0.07,0.554-0.303,0.72-0.626
			C10.797,26.849,13.245,28,16,28V8.875L13.403,8.636z"/>
		<path fill="#FFEAA7" d="M24.889,21.615c-0.123-0.028-0.247-0.021-0.371,0.001c0.085-0.434,0.138-0.878,0.138-1.334
			c0-1.056-0.247-2.494-0.678-4.05c-0.221-0.39-0.591-0.852-0.983-1.293c-0.848-0.954-1.577-2.023-2.005-3.225
			c-0.824-2.315-2.392-3.076-2.392-3.076L16,8.875V28c0.248,0,0.492-0.015,0.734-0.033c0,0.017-0.005,0.032-0.005,0.049
			c0,0.998,0.809,1.807,1.807,1.807c0.998,0,1.807-0.809,1.807-1.807c0-0.341-0.1-0.656-0.264-0.927
			c1.201-0.573,2.229-1.394,3.006-2.382c0.138,0.531,0.442,0.926,0.868,1.023c0.741,0.168,1.55-0.617,1.808-1.753
			C26.021,22.84,25.629,21.783,24.889,21.615z"/>
		<path fill="none" d="M13.801,10.07C14.258,10.565,14.944,11,16,11V9C15.053,9,14.236,9.434,13.801,10.07z"/>
		<g>
			<ellipse fill="#2B3332" cx="18.75" cy="5.5" rx="0.75" ry="1.5"/>
			<ellipse fill="#F7F7F7" cx="18.75" cy="5.125" rx="0.375" ry="0.625"/>
		</g>
		<g>
			<ellipse fill="#373F3F" cx="13.25" cy="5.5" rx="0.75" ry="1.5"/>
			<ellipse fill="#FFFFFF" cx="13.25" cy="5.125" rx="0.375" ry="0.625"/>
		</g>
		<g>
			<path fill="#E55D53" d="M13.801,10.07C14.258,10.565,14.944,11,16,11V9C15.053,9,14.236,9.434,13.801,10.07z"/>
			<path fill="#D64F45" d="M16,9v2c1.056,0,1.742-0.435,2.199-0.93C17.764,9.434,16.947,9,16,9z"/>
		</g>
		<g>
			<path fill="#D64F45" d="M15.823,7.734C15.515,8.057,14.739,8.605,13,8.63c0,0,0.187,0.775,0.801,1.44C14.236,9.434,15.053,9,16,9
				V7.656C15.936,7.656,15.873,7.682,15.823,7.734z"/>
			<path fill="#D1473D" d="M18.199,10.07C18.812,9.406,19,8.63,19,8.63c-1.739-0.026-2.515-0.573-2.823-0.896
				C16.128,7.682,16.064,7.656,16,7.656V9C16.947,9,17.764,9.434,18.199,10.07z"/>
		</g>
		<path fill="#F7F7F7" d="M17.137,8.317l0.266,0.615c0.042,0.091,0.173,0.09,0.213-0.003l0.191-0.428
			C17.552,8.45,17.328,8.389,17.137,8.317z"/>
		<path fill="#FFFFFF" d="M14.863,8.317c-0.19,0.072-0.415,0.133-0.67,0.185l0.191,0.428c0.04,0.093,0.171,0.094,0.213,0.003
			L14.863,8.317z"/>
		<path fill="#DADDDC" d="M18.118,8.724h1.34l9.311,2.209C29.397,11.082,30,10.605,30,9.959V9.283c0-0.552-0.448-1-1-1H18.118V8.724
			z"/>
		<path fill="#D1D4D4" d="M29.229,11.047c-2.433-0.571-9.771-2.323-9.771-2.323h-1.34v0.001c0,0.243,0.197,0.44,0.44,0.44h0.9
			c3.036,1.633,7.033,3.508,9.125,4.472C29.246,13.942,30,13.457,30,12.728l0-0.707C30,11.556,29.681,11.153,29.229,11.047z"/>
		<path fill="#E3E5E5" d="M18.118,7.842h1.34l9.311-2.209C29.397,5.485,30,5.961,30,6.607v0.676c0,0.552-0.448,1-1,1H18.118V7.842z"
			/>
		<path fill="#EDEEEE" d="M29.229,5.519c-2.433,0.571-9.771,2.323-9.771,2.323h-1.34V7.842c0-0.243,0.197-0.44,0.44-0.44h0.9
			c3.036-1.633,7.033-3.508,9.125-4.472C29.246,2.624,30,3.109,30,3.839l0,0.707C30,5.01,29.681,5.413,29.229,5.519z"/>
		<path fill="#E3E5E5" d="M13.882,8.724h-1.34l-9.311,2.209C2.603,11.082,2,10.605,2,9.959V9.283c0-0.552,0.448-1,1-1h10.882V8.724z
			"/>
		<path fill="#DADDDC" d="M2.771,11.047c2.433-0.571,9.771-2.323,9.771-2.323h1.34v0.001c0,0.243-0.197,0.44-0.44,0.44h-0.9
			c-3.036,1.633-7.033,3.508-9.125,4.472C2.754,13.942,2,13.457,2,12.728l0-0.707C2,11.556,2.319,11.153,2.771,11.047z"/>
		<path fill="#EDEEEE" d="M13.882,7.842h-1.34L3.231,5.634C2.603,5.485,2,5.961,2,6.607v0.676c0,0.552,0.448,1,1,1h10.882V7.842z"/>
		<path fill="#F7F7F7" d="M2.771,5.519c2.433,0.571,9.771,2.323,9.771,2.323h1.34V7.842c0-0.243-0.197-0.44-0.44-0.44h-0.9
			C9.506,5.768,5.509,3.893,3.417,2.93C2.754,2.624,2,3.109,2,3.839l0,0.707C2,5.01,2.319,5.413,2.771,5.519z"/>
	</g>
</g>
</svg>
