<?xml version="1.0" encoding="utf-8"?>
<!-- Generator: Adobe Illustrator 23.0.6, SVG Export Plug-In . SVG Version: 6.00 Build 0)  -->
<svg version="1.1" xmlns="http://www.w3.org/2000/svg" xmlns:xlink="http://www.w3.org/1999/xlink" x="0px" y="0px" width="32px"
	 height="32px" viewBox="0 0 32 32" enable-background="new 0 0 32 32" xml:space="preserve">
<g id="labels">
	<g>
	</g>
</g>
<g id="icons">
	<g>
		<path fill="#9FC9E4" d="M29.327,10.798c-3.921-3.25-9.125-2.938-9.125-4.375s2.329-3.214,5.375-3.214
			c0-0.002,0.016-0.003,0.039-0.004C25.921,4.239,26.866,5,28,5c1.109,0,2.793-1.614,3.852-2.248c0.19-0.114,0.19-0.39,0-0.504
			C30.794,1.613,29.109,0,28,0c-1.178,0-2.159,0.817-2.424,1.914c0-0.006,0-0.018,0-0.018c-4.421,0-7.789,2.027-7.789,5.05
			c0,1.774,4.087,3.072,5.414,3.477c3.892,1.188,4.625,4.625,2.688,6.312c-2.724,2.373-4.375,0.688-6.188-0.281
			c0-0.031,0.312,7.656,0.312,7.656s6.812,0.188,10.125-3.312S31.812,12.858,29.327,10.798z"/>
		<path fill="#8EC0E0" d="M29.327,10.798c-3.921-3.25-9.125-2.938-9.125-4.375s2.358-3.214,5.404-3.214v0h0.011
			C25.923,4.241,26.867,5,28,5c1.109,0,2.794-1.613,3.853-2.248c0.095-0.057,0.142-0.155,0.142-0.252H25.5c0,0.002,0,0.003,0,0.005
			c-4.366,0.025-6.449,2.096-6.449,3.96c0,1.774,4.49,2.952,5.948,3.598c3.72,1.648,4.529,6.1,3.417,7.896
			c-1.354,2.188-4.615,3.006-8.519,3.297c0.063,1.54,0.116,2.855,0.116,2.855s6.812,0.188,10.125-3.312S31.812,12.858,29.327,10.798
			z"/>
		<path fill="#EF8C48" d="M19.507,9.494c0.345-1.099,3.641-0.062,3.295,1.036s-1.363,1.757-2.273,1.471S19.162,10.592,19.507,9.494z
			"/>
		<path fill="#EF8C48" d="M19.118,4.495c0.808,0.148,0.364,2.57-0.444,2.422c-0.808-0.148-1.363-0.81-1.24-1.479
			S18.31,4.347,19.118,4.495z"/>
		<path fill="#EF8C48" d="M22.273,2.612c0.347,0.744-1.886,1.784-2.232,1.039s-0.128-1.58,0.489-1.867
			C21.146,1.497,21.927,1.868,22.273,2.612z"/>
		<path fill="#EF8C48" d="M25.23,2.131c0.038,0.651-1.915,0.766-1.953,0.115s0.368-1.205,0.907-1.236
			C24.724,0.977,25.192,1.48,25.23,2.131z"/>
		<path fill="#EF8C48" d="M27.512,17.337c0.64,1.472-3.603,3.315-4.242,1.843s-0.208-3.078,0.963-3.587
			C25.404,15.084,26.872,15.865,27.512,17.337z"/>
		<path fill="#EF8C48" d="M24.774,11.146c1.002-0.754,3.263,2.251,2.261,3.005s-2.32,0.692-2.945-0.138
			C23.466,13.183,23.772,11.9,24.774,11.146z"/>
		<path fill="#E8803A" d="M29.327,10.798c-0.113-0.094-0.227-0.178-0.342-0.266c-0.386,0.321-0.641,0.802-0.641,1.344
			c0,0.966,0.784,1.75,1.75,1.75c0.431,0,0.828-0.159,1.133-0.417C30.744,12.252,30.071,11.415,29.327,10.798z"/>
		<path fill="#F7F7F7" d="M30.981,12.759c-0.417-0.742-1.035-1.493-1.577-1.901c-0.327,0.225-0.561,0.589-0.561,1.016
			c0,0.69,0.56,1.25,1.25,1.25C30.439,13.125,30.755,12.987,30.981,12.759z"/>
		<path fill="#E8803A" d="M22.593,7.875c0,0.828,0.672,1.5,1.5,1.5c0.562,0,1.046-0.313,1.303-0.77
			c-1.011-0.385-1.977-0.653-2.793-0.861C22.599,7.789,22.593,7.828,22.593,7.875z"/>
		<path fill="#F7F7F7" d="M24.093,8.875c0.342,0,0.629-0.187,0.81-0.449c-0.588-0.226-1.33-0.45-1.814-0.556
			C22.992,8.481,23.541,8.875,24.093,8.875z"/>
		<path fill="#E8803A" d="M30.397,20.508c-0.324-0.667-1.012-1.133-1.804-1.133c-1.105,0-2,0.895-2,2
			c0,0.55,0.216,1.044,0.575,1.405c1.031-0.416,2.146-1.112,2.97-1.983C30.23,20.702,30.313,20.605,30.397,20.508z"/>
		<path fill="#F7F7F7" d="M28.601,19.881c-0.828,0-1.5,0.672-1.5,1.5c0,0.478,0.228,0.899,0.576,1.174
			c0.483-0.198,1.648-0.908,2.344-1.634C29.826,20.319,29.268,19.881,28.601,19.881z"/>
		<path fill="#FFAD68" d="M16,5l0,9h-2c0,0-2.75-3.281-3.688-4.531C9.49,8.373,10,5,16,5z"/>
		<path fill="#FCA15E" d="M16,5c-1.449,0-2.572,0.2-3.439,0.514L14.998,14H16V5z"/>
		<path fill="#FCA15E" d="M16,5l0,9h2c0,0,2.75-3.281,3.688-4.531C22.51,8.373,22,5,16,5z"/>
		<path fill="#F79654" d="M16,5c1.449,0,2.572,0.2,3.439,0.514L17.002,14H16V5z"/>
		<g>
			<circle fill="#EF8C48" cx="28" cy="2.5" r="1.5"/>
			<path fill="#E8803A" d="M29.5,2.5C29.5,3.328,28.828,4,28,4s-1.5-0.672-1.5-1.5H29.5z"/>
			<path fill="#FFFFFF" d="M28,1.6c-0.497,0-0.9,0.403-0.9,0.9s0.403,0.9,0.9,0.9s0.9-0.403,0.9-0.9S28.497,1.6,28,1.6z"/>
			<path fill="#F7F7F7" d="M28.9,2.5c0,0.497-0.403,0.9-0.9,0.9s-0.9-0.403-0.9-0.9H28.9z"/>
		</g>
		<path fill="#EF8C48" d="M23.748,25.768c0.775,0.987,2.224,4.524,0.456,5.879c-1.32,1.012-4.455-0.231-6.104-2.78l3.524-1.425
			L23.748,25.768z"/>
		<path fill="#9FC9E4" d="M16,15.971c5.698,0,4.867,5.447,5.598,7.398c0.45,1.2,1.486,1.796,2.149,2.399
			c0.55,0.5-0.01,2.204-1.021,2.499c-1.692,0.494-4.474,0.694-6.727,0.6V15.971z"/>
		<path fill="#F79654" d="M8.252,25.768c-0.775,0.987-2.224,4.524-0.456,5.879c1.32,1.012,4.455-0.231,6.104-2.78l-3.524-1.425
			L8.252,25.768z"/>
		<path fill="#B0D3EA" d="M16,15.971c-5.698,0-4.867,5.447-5.598,7.398c-0.45,1.2-1.486,1.796-2.149,2.399
			c-0.55,0.5,0.01,2.204,1.021,2.499c1.692,0.494,4.474,0.694,6.727,0.6V15.971z"/>
		<path fill="#E08C96" d="M16,16.071c-4.936,0-4.603,4.129-4.249,5.898c0.25,1.25-0.084,2.794-0.663,3.188
			c-0.237,0.161-0.674,0.421-0.912,0.561c-0.648,0.383-0.399,0.925-0.004,1.004c1.497,0.3,3.875,0.601,5.827,0.52V16.071z"/>
		<path fill="#E2959E" d="M16,24.469c-2.681,0-4.088,0.283-4.912,0.689c-0.237,0.161-0.674,0.421-0.912,0.561
			c-0.648,0.383-0.399,0.925-0.004,1.004c1.497,0.3,3.875,0.601,5.827,0.52V24.469z"/>
		<path fill="#DE8490" d="M16,16.071c4.936,0,4.603,4.129,4.249,5.898c-0.25,1.25,0.084,2.794,0.663,3.188
			c0.237,0.161,0.674,0.421,0.912,0.561c0.648,0.383,0.399,0.925,0.004,1.004c-1.497,0.3-3.875,0.601-5.827,0.52V16.071z"/>
		<path fill="#F7F7F7" d="M16.249,23.337l0.631-1.708h-1.759l0.631,1.708C15.836,23.568,16.164,23.568,16.249,23.337z"/>
		<g>
			<path fill="#FFFFFF" d="M15.121,21.628l0.63,1.709c0.043,0.116,0.146,0.173,0.249,0.173v-1.882H15.121z"/>
		</g>
		<path fill="#FFFFFF" d="M13.458,23.337l0.631-1.708H12.33l0.631,1.708C13.046,23.568,13.373,23.568,13.458,23.337z"/>
		<path fill="#F7F7F7" d="M19.039,23.337l0.631-1.708h-1.759l0.631,1.708C18.627,23.568,18.954,23.568,19.039,23.337z"/>
		<path fill="#C1DDEE" d="M16,13.369c-1.915,0-8,0.479-8,6.628c0,1.703,4.451,2.372,8,2.372V13.369z"/>
		<path fill="#B0D3EA" d="M16,13.369c1.915,0,8,0.479,8,6.628c0,1.703-4.451,2.372-8,2.372V13.369z"/>
		<path fill="#FFFFFF" d="M11.5,18.958c0,0.69-0.448,1.25-1,1.25c-0.552,0-1-0.56-1-1.25c0-0.69,0.448-1.25,1-1.25
			C11.052,17.708,11.5,18.267,11.5,18.958z"/>
		<path fill="#FCA15E" d="M10.5,17.708c0.552,0,1,0.56,1,1.25c0,0.69-0.448,1.25-1,1.25c-0.552,0-1-0.56-1-1.25
			C9.5,18.267,9.948,17.708,10.5,17.708 M10.5,17.208c-0.827,0-1.5,0.785-1.5,1.75s0.673,1.75,1.5,1.75c0.827,0,1.5-0.785,1.5-1.75
			S11.327,17.208,10.5,17.208L10.5,17.208z"/>
		<ellipse fill="#373F3F" cx="10.5" cy="18.958" rx="0.375" ry="0.469"/>
		<g>
			<path fill="#F7F7F7" d="M22.5,18.958c0,0.69-0.448,1.25-1,1.25c-0.552,0-1-0.56-1-1.25c0-0.69,0.448-1.25,1-1.25
				C22.052,17.708,22.5,18.267,22.5,18.958z"/>
			<g>
				<g>
					<path fill="#F79654" d="M21.5,17.708c0.552,0,1,0.56,1,1.25c0,0.69-0.448,1.25-1,1.25c-0.552,0-1-0.56-1-1.25
						C20.5,18.267,20.948,17.708,21.5,17.708 M21.5,17.208c-0.827,0-1.5,0.785-1.5,1.75s0.673,1.75,1.5,1.75
						c0.827,0,1.5-0.785,1.5-1.75S22.327,17.208,21.5,17.208L21.5,17.208z"/>
				</g>
				<g>
					<path fill="#F79654" d="M21.5,17.708c0.552,0,1,0.56,1,1.25c0,0.69-0.448,1.25-1,1.25c-0.552,0-1-0.56-1-1.25
						C20.5,18.267,20.948,17.708,21.5,17.708 M21.5,17.208c-0.827,0-1.5,0.785-1.5,1.75s0.673,1.75,1.5,1.75
						c0.827,0,1.5-0.785,1.5-1.75S22.327,17.208,21.5,17.208L21.5,17.208z"/>
				</g>
			</g>
			<ellipse fill="#2B3332" cx="21.5" cy="18.958" rx="0.375" ry="0.469"/>
		</g>
		<g>
			<g>
				<ellipse fill="#FCA15E" cx="14" cy="20" rx="1" ry="1.25"/>
				<ellipse fill="#FFFFFF" cx="14" cy="20" rx="0.5" ry="0.625"/>
			</g>
		</g>
		<g>
			<g>
				<ellipse fill="#F79654" cx="18" cy="20" rx="1" ry="1.25"/>
				<ellipse fill="#F7F7F7" cx="18" cy="20" rx="0.5" ry="0.625"/>
			</g>
		</g>
		<path fill="#E08C96" d="M16,24.469c2.681,0,4.088,0.283,4.912,0.689c0.237,0.161,0.674,0.421,0.912,0.561
			c0.648,0.383,0.399,0.925,0.004,1.004c-1.497,0.3-3.875,0.601-5.827,0.52V24.469z"/>
	</g>
</g>
</svg>
