<?xml version="1.0" encoding="utf-8"?>
<!-- Generator: Adobe Illustrator 23.0.6, SVG Export Plug-In . SVG Version: 6.00 Build 0)  -->
<svg version="1.1" xmlns="http://www.w3.org/2000/svg" xmlns:xlink="http://www.w3.org/1999/xlink" x="0px" y="0px" width="32px"
	 height="32px" viewBox="0 0 32 32" enable-background="new 0 0 32 32" xml:space="preserve">
<g id="labels">
	<g>
	</g>
</g>
<g id="icons">
	<g>
		<ellipse fill="#C27BC6" cx="3" cy="23.5" rx="2" ry="2.5"/>
		<path fill="#FFD96C" d="M31.35,23.183c-0.543-1.217-1.427-2.075-2.295-2.65c-1.77-1.15-3.562-1.474-5.243-1.594
			c-0.274-0.017-0.541-0.015-0.811-0.017v-8.325c-1.063,0.876-2.464,1.413-4.005,1.413c-1.536,0-2.934-0.534-3.995-1.405v10.935
			c-0.119,0.081-0.245,0.16-0.36,0.241c-2.314,1.638-4.14,3.296-5.747,4.082c-0.397,0.195-0.771,0.328-1.117,0.397
			c-0.088,0.023-0.171,0.026-0.255,0.042c0,0-0.063,0.01-0.079,0.013c0.138,0.003,0.032,0.001,0.049,0.002l-0.044,0.002
			l-0.175,0.007c-0.116,0.005-0.23,0.009-0.343,0.014l-0.2-0.01c-0.596-0.01-1.128-0.215-1.519-0.466
			c-0.802-0.534-1.107-1.2-1.094-1.128c-0.069-0.306-0.373-0.497-0.679-0.428c-0.306,0.069-0.497,0.373-0.428,0.679
			c0.01,0.024,0.004,0.245,0.105,0.632c0.105,0.38,0.286,0.96,0.784,1.583c0.499,0.613,1.317,1.254,2.453,1.517
			c0.149,0.031,0.301,0.063,0.455,0.096c0.112,0.015,0.225,0.031,0.341,0.047l0.174,0.024c0,0,0.044,0.006,0.055,0.008l0.082,0.003
			l0.029,0l0.115,0.001c0.152-0.002,0.312,0.006,0.466-0.007c0.627-0.033,1.254-0.167,1.855-0.362
			c1.952-0.638,3.642-1.793,5.397-2.858c0.068,0.825,0.302,1.702,0.66,2.458c0.358,0.743,0.881,1.478,1.588,2.089
			c0.698,0.615,1.586,1.104,2.555,1.369c0.156,0.037,0.314,0.074,0.474,0.112c0.22,0.052,0.365,0.072,0.552,0.107
			c0.353,0.057,0.71,0.1,1.07,0.127c1.441,0.095,2.924,0.004,4.571-0.473c0.824-0.252,1.699-0.584,2.65-1.267
			c0.471-0.347,0.969-0.802,1.399-1.438c0.054-0.075,0.105-0.165,0.155-0.249l0.074-0.129l0.036-0.065l0.07-0.134l0.099-0.229
			c0.104-0.237,0.267-0.648,0.329-0.904C31.948,25.888,31.909,24.391,31.35,23.183z M26.101,25.301
			c-0.015,0.013-0.031,0.025-0.049,0.036c-0.223,0.14-0.492,0.146-0.744,0.183c-0.742,0.109-1.62,0.06-2.305-0.091
			c-0.001,0-0.001-0.002-0.002-0.003v-1.958c0.097,0.016,0.198,0.025,0.293,0.044c1.141,0.208,2.206,0.656,2.732,1.162
			c0.098,0.094,0.168,0.246,0.179,0.379C26.214,25.156,26.174,25.238,26.101,25.301z"/>
		<g>
			<g>
				<polygon fill="#FAB8CD" points="22.184,10.602 22.172,10.611 22.183,10.607 				"/>
				<path fill="#FAB8CD" d="M31.406,23.188c-0.543-1.217-1.484-2.079-2.351-2.654c-1.77-1.15-3.562-1.474-5.243-1.594
					c-0.274-0.017-0.541-0.015-0.811-0.017l-0.002,1.644c4.106,0.437,7.89,3.519,5.372,6.038c-3.547,3.547-9.375,0.969-9.375-1.026
					V12.011c-1.536,0-2.934-0.534-3.995-1.405v10.935c-0.119,0.081-0.245,0.16-0.36,0.241c-2.314,1.638-4.14,3.296-5.747,4.082
					c-0.397,0.195-0.771,0.328-1.117,0.397c-0.088,0.023-0.171,0.026-0.255,0.042c0,0-0.063,0.01-0.079,0.013
					c0.138,0.003,0.032,0.001,0.049,0.002l-0.044,0.002l-0.175,0.007c-0.116,0.005-0.23,0.009-0.343,0.014l-0.2-0.01
					c-0.596-0.01-1.128-0.215-1.519-0.466c-0.802-0.534-1.107-1.2-1.094-1.128c-0.069-0.306-0.373-0.497-0.679-0.428
					c-0.039,0.009-0.07,0.031-0.106,0.047c0.352,1.531,1.482,3.028,3.976,3.091c1.926,0.048,4.542-1.576,7.812-3.781
					c0.046,0.702,0.11,1.4,0.199,2.003c0.068,0.825,0.302,1.702,0.66,2.458c0.358,0.743,0.881,1.478,1.588,2.089
					c0.698,0.615,1.586,1.104,2.555,1.369c0.156,0.037,0.314,0.074,0.474,0.112c0.22,0.052,0.365,0.072,0.552,0.107
					c0.353,0.057,0.71,0.1,1.07,0.127c1.441,0.095,2.924,0.004,4.571-0.473c0.824-0.252,1.699-0.584,2.65-1.267
					c0.471-0.347,1.874-1.38,2.374-2.849C32.16,26.186,31.966,24.395,31.406,23.188z"/>
			</g>
			<g>
				<polygon fill="#DCF2FD" points="22.184,10.602 22.172,10.611 22.183,10.607 				"/>
				<path fill="#FFE28A" d="M31.406,23.188c-0.543-1.217-1.484-2.079-2.351-2.654c-1.77-1.15-3.562-1.474-5.243-1.594
					c-0.274-0.017-0.541-0.015-0.811-0.017l-0.002,1.644c4.106,0.437,7.89,3.519,5.372,6.038c-3.547,3.547-9.375,0.969-9.375-1.026
					V12.011c-1.536,0-2.934-0.534-3.995-1.405v10.935c-0.119,0.081-0.245,0.16-0.36,0.241c-2.314,1.638-4.14,3.296-5.747,4.082
					c-0.397,0.195-0.771,0.328-1.117,0.397c-0.088,0.023-0.171,0.026-0.255,0.042c0,0-0.063,0.01-0.079,0.013
					c0.138,0.003,0.032,0.001,0.049,0.002l-0.044,0.002l-0.175,0.007c-0.116,0.005-0.23,0.009-0.343,0.014l-0.2-0.01
					c-0.596-0.01-1.128-0.215-1.519-0.466c-0.802-0.534-1.107-1.2-1.094-1.128c-0.069-0.306-0.373-0.497-0.679-0.428
					c-0.039,0.009-0.07,0.031-0.106,0.047c0.352,1.531,1.482,3.028,3.976,3.091c1.926,0.048,4.542-1.576,7.812-3.781
					c0.046,0.702,0.11,1.4,0.199,2.003c0.068,0.825,0.302,1.702,0.66,2.458c0.358,0.743,0.881,1.478,1.588,2.089
					c0.698,0.615,1.586,1.104,2.555,1.369c0.156,0.037,0.314,0.074,0.474,0.112c0.22,0.052,0.365,0.072,0.552,0.107
					c0.353,0.057,0.71,0.1,1.07,0.127c1.441,0.095,2.924,0.004,4.571-0.473c0.824-0.252,1.699-0.584,2.65-1.267
					c0.471-0.347,1.874-1.38,2.374-2.849C32.16,26.186,31.966,24.395,31.406,23.188z"/>
			</g>
		</g>
		<g>
			<path fill="#D285D2" d="M17,18.108l-0.829,1.435c-0.105,0.181,0.026,0.407,0.235,0.407h1.187c0.209,0,0.34-0.226,0.235-0.407
				L17,18.108z"/>
			<path fill="#D799D6" d="M18.5,17.755c0,0.828-0.672,1.345-1.5,1.345s-1.5-0.516-1.5-1.345S16.172,16.1,17,16.1
				S18.5,16.927,18.5,17.755z"/>
			<path fill="#D285D2" d="M16.452,19.018c-0.558-0.176-0.952-0.628-0.952-1.263c0-0.412,0.166-0.824,0.436-1.134
				C15.793,17.462,16.017,18.531,16.452,19.018z"/>
			<path fill="#D285D2" d="M17.548,19.018c0.558-0.176,0.952-0.628,0.952-1.263c0-0.412-0.166-0.824-0.436-1.134
				C18.207,17.462,17.983,18.531,17.548,19.018z"/>
		</g>
		<g>
			<path fill="#C27BC6" d="M21,18.108l-0.829,1.435c-0.105,0.181,0.026,0.407,0.235,0.407h1.187c0.209,0,0.34-0.226,0.235-0.407
				L21,18.108z"/>
			<path fill="#D285D2" d="M22.5,17.755c0,0.828-0.672,1.345-1.5,1.345s-1.5-0.516-1.5-1.345S20.172,16.1,21,16.1
				S22.5,16.927,22.5,17.755z"/>
			<path fill="#C27BC6" d="M20.452,19.018c-0.558-0.176-0.952-0.628-0.952-1.263c0-0.412,0.166-0.824,0.436-1.134
				C19.793,17.462,20.017,18.531,20.452,19.018z"/>
			<path fill="#C27BC6" d="M21.548,19.018c0.558-0.176,0.952-0.628,0.952-1.263c0-0.412-0.166-0.824-0.436-1.134
				C22.207,17.462,21.983,18.531,21.548,19.018z"/>
		</g>
		<g>
			<path fill="#FFE28A" d="M19,3.042c0-1.604,1.104-3.229,4.375-3.021c2.324,0.148,4.361,3.422,6.957,3.14
				c0.232-0.025,0.37,0.243,0.215,0.417c-1.797,2.003-3.338,1.59-4.526,0.402C23.7,1.658,22.625,1.917,22,1.958
				c-1.153,0.077-1.5,1-1.5,1L19,3.042z"/>
		</g>
		<path fill="#FFE28A" d="M25,7.865c0,4.25-5.128,4.052-5.594,8.037c-0.047,0.403-0.813,0.429-0.884,0.03
			C17.831,12,13,12.122,13,7.865c0-3.038,2.686-5.5,6-5.5S25,4.827,25,7.865z"/>
		<path fill="#FFEAA7" d="M19,2.365v13.85c-0.182,0.017-0.439-0.034-0.478-0.245C17.789,11.997,13,12.161,13,7.903
			C13,4.865,15.625,2.365,19,2.365z"/>
		<path fill="#2B3332" d="M22.844,7.75c-0.087,0-0.171-0.045-0.217-0.126c-0.068-0.12-0.027-0.272,0.093-0.341
			c0.047-0.027,0.122-0.132,0.178-0.339c0.132-0.487,0.078-1.206-0.114-1.537c-0.068-0.12-0.028-0.272,0.092-0.342
			c0.116-0.069,0.271-0.028,0.342,0.091c0.291,0.503,0.312,1.37,0.164,1.918c-0.087,0.319-0.226,0.536-0.413,0.643
			C22.929,7.739,22.886,7.75,22.844,7.75z M21.843,7.28c0.188-0.107,0.326-0.324,0.413-0.643c0.147-0.548,0.127-1.416-0.164-1.918
			c-0.07-0.12-0.226-0.161-0.342-0.091c-0.12,0.069-0.16,0.222-0.092,0.342c0.192,0.332,0.246,1.05,0.114,1.537
			c-0.056,0.207-0.131,0.312-0.178,0.339c-0.12,0.069-0.161,0.222-0.093,0.341c0.046,0.081,0.13,0.126,0.217,0.126
			C21.761,7.312,21.804,7.302,21.843,7.28z"/>
		<g>
			<ellipse fill="#FDFDFD" cx="21.992" cy="8" rx="1.5" ry="1.75"/>
		</g>
		<path fill="#2B3332" d="M22,7c0.414,0,0.75,0.448,0.75,1S22.414,9,22,9s-0.75-0.448-0.75-1S21.586,7,22,7z"/>
		<path fill="#2B3332" d="M15.039,7.717c-0.188-0.107-0.326-0.324-0.413-0.643c-0.147-0.548-0.127-1.416,0.164-1.918
			c0.07-0.119,0.226-0.16,0.342-0.091c0.12,0.069,0.16,0.222,0.092,0.342c-0.192,0.332-0.246,1.05-0.114,1.537
			c0.056,0.207,0.131,0.312,0.178,0.339c0.12,0.069,0.161,0.222,0.093,0.341c-0.046,0.081-0.13,0.126-0.217,0.126
			C15.121,7.75,15.078,7.739,15.039,7.717z M16.288,7.312c0.087,0,0.171-0.045,0.217-0.126c0.068-0.12,0.027-0.272-0.093-0.341
			c-0.047-0.027-0.122-0.132-0.178-0.339c-0.132-0.487-0.078-1.206,0.114-1.537c0.068-0.12,0.028-0.272-0.092-0.342
			c-0.116-0.07-0.271-0.029-0.342,0.091c-0.291,0.503-0.312,1.37-0.164,1.918c0.087,0.319,0.226,0.536,0.413,0.643
			C16.203,7.302,16.246,7.312,16.288,7.312z"/>
		<g>
			<ellipse fill="#FDFDFD" cx="16.016" cy="8" rx="1.5" ry="1.75"/>
		</g>
		<path fill="#2B3332" d="M16.757,8c0,0.552-0.336,1-0.75,1c-0.414,0-0.75-0.448-0.75-1s0.336-1,0.75-1
			C16.421,7,16.757,7.448,16.757,8z"/>
		<path fill="#D799D6" d="M30.547,3.577c-1.797,2.003-3.338,1.59-4.526,0.402c-0.072-0.072-0.139-0.134-0.209-0.201
			C26.511,3.466,27,2.768,27,1.953c0-0.01-0.003-0.019-0.003-0.029c1.048,0.732,2.131,1.368,3.335,1.237
			C30.564,3.136,30.703,3.404,30.547,3.577z"/>
	</g>
</g>
</svg>
