<?xml version="1.0" encoding="utf-8"?>
<!-- Generator: Adobe Illustrator 23.0.6, SVG Export Plug-In . SVG Version: 6.00 Build 0)  -->
<svg version="1.1" xmlns="http://www.w3.org/2000/svg" xmlns:xlink="http://www.w3.org/1999/xlink" x="0px" y="0px" width="32px"
	 height="32px" viewBox="0 0 32 32" enable-background="new 0 0 32 32" xml:space="preserve">
<g id="labels">
	<g>
	</g>
</g>
<g id="icons">
	<g>
		<path fill="#96643B" d="M14.492,24.997c0,1.038,0.613,2.532,1.058,3.479c0.09,0.191,0.27,0.286,0.451,0.286v-4.178L14.492,24.997z
			"/>
		<path fill="#8D5B36" d="M16.451,28.476c0.444-0.947,1.058-2.441,1.058-3.479L16,24.583v4.178
			C16.181,28.762,16.361,28.666,16.451,28.476z"/>
		<path fill="#EACEA1" d="M15.524,1.346l-1.212,3.747H16V1C15.799,1,15.599,1.115,15.524,1.346z"/>
		<path fill="#E5C79A" d="M16.476,1.346C16.401,1.115,16.201,1,16,1v4.094h1.687L16.476,1.346z"/>
		<path fill="#8D5B36" d="M11.784,23.029c0,0-3.413,1.611-7.577,2.908c-0.351,0.109-0.225,0.632,0.136,0.566
			c2.176-0.399,5.874-1.533,8.281-2.669L11.784,23.029z"/>
		<path fill="#96643B" d="M12.301,23.448c-0.96,1.188-5.009,3.916-9.024,6.47c-0.633,0.403-0.07,1.361,0.59,1.004
			c5.246-2.835,10.758-6.172,10.758-6.172L12.301,23.448z"/>
		<path fill="#E5C79A" d="M16,25V9.776l-6,0.958v11.14l2.737,2.821C12.925,24.89,13.184,25,13.454,25H16z"/>
		<path fill="#845331" d="M20.216,23.029c0,0,3.413,1.611,7.577,2.908c0.351,0.109,0.225,0.632-0.136,0.566
			c-2.176-0.399-5.874-1.533-8.281-2.669L20.216,23.029z"/>
		<path fill="#8D5B36" d="M19.699,23.448c0.96,1.188,5.009,3.916,9.024,6.47c0.633,0.403,0.07,1.361-0.59,1.004
			c-5.246-2.835-10.758-6.172-10.758-6.172L19.699,23.448z"/>
		<path fill="#E0C193" d="M16,25V9.776l6,0.958v11.14l-2.737,2.821C19.075,24.89,18.816,25,18.546,25H16z"/>
		<path fill="#EFD4A7" d="M14.475,4.9l-3.039,1.794c-1.377,0.813-2.245,2.189-2.332,3.696l-0.307,5.3
			c-0.015,0.261-0.136,0.508-0.339,0.69l-1.099,0.988c-0.21,0.188-0.331,0.443-0.34,0.713c-0.062,1.812-0.117,9.022,2.651,13.524
			c0.058,0.094,0.147,0.169,0.254,0.215l0.3,0.13c0.421,0.183,0.887-0.158,0.79-0.579c-0.393-1.709-1.13-5.277-1.3-8.64
			c0,0,1.119-1.619,2.99-0.896c0.421,0.162,0.89,0.137,1.247-0.138c0.431-0.331,1.12-0.7,2.051-0.7V4.484
			C15.473,4.484,14.945,4.622,14.475,4.9z"/>
		<path fill="#EACEA1" d="M24.982,18.081c-0.009-0.27-0.131-0.524-0.34-0.713l-1.099-0.988c-0.203-0.182-0.324-0.429-0.339-0.69
			l-0.307-5.3c-0.087-1.507-0.956-2.883-2.332-3.696L17.525,4.9C17.055,4.622,16.527,4.484,16,4.484v16.513
			c0.931,0,1.62,0.369,2.051,0.7c0.358,0.275,0.827,0.301,1.247,0.138c1.872-0.723,2.99,0.896,2.99,0.896
			c-0.17,3.363-0.907,6.931-1.3,8.64c-0.017,0.072,0.003,0.136,0.016,0.201c0.064,0.315,0.424,0.53,0.774,0.378l0.3-0.13
			c0.106-0.046,0.196-0.12,0.254-0.215c0.007-0.011,0.012-0.023,0.019-0.034C25.097,27.068,25.044,19.889,24.982,18.081z"/>
		<path fill="#2B3332" d="M22.99,12h-2.335c-0.066,0-0.13,0.026-0.177,0.073l-1.655,1.655c-0.098,0.098-0.098,0.256,0,0.354
			c0.049,0.049,0.112,0.073,0.177,0.073s0.128-0.024,0.177-0.073l1.582-1.582h2.26L22.99,12z"/>
		<path fill="#373F3F" d="M11.271,12.073C11.225,12.026,11.161,12,11.095,12H9.01l-0.029,0.5h2.01l1.582,1.582
			c0.049,0.049,0.112,0.073,0.177,0.073s0.128-0.024,0.177-0.073c0.098-0.098,0.098-0.256,0-0.354L11.271,12.073z"/>
	</g>
</g>
</svg>
