<?xml version="1.0" encoding="utf-8"?>
<!-- Generator: Adobe Illustrator 23.0.6, SVG Export Plug-In . SVG Version: 6.00 Build 0)  -->
<svg version="1.1" xmlns="http://www.w3.org/2000/svg" xmlns:xlink="http://www.w3.org/1999/xlink" x="0px" y="0px" width="32px"
	 height="32px" viewBox="0 0 32 32" enable-background="new 0 0 32 32" xml:space="preserve">
<g id="labels">
	<g>
	</g>
</g>
<g id="icons">
	<g>
		<g>
			<path fill="#FFD96C" d="M14.533,27.312l-0.381,0.313c-0.139,0.114-0.188,0.283-0.125,0.436l1.48,3.649
				C15.586,31.903,15.793,32,16,32v-5.186C15.469,26.813,14.938,26.979,14.533,27.312z"/>
			<path fill="#FFD04D" d="M16.491,31.709l1.483-3.648c0.062-0.153,0.014-0.322-0.125-0.436l-0.381-0.313
				c-0.405-0.333-0.936-0.499-1.467-0.499V32C16.206,31.999,16.412,31.903,16.491,31.709z"/>
		</g>
		<g>
			<path fill="#FFD04D" d="M19.741,27.312l-0.381,0.313c-0.139,0.114-0.188,0.283-0.125,0.436l1.48,3.649
				C20.794,31.903,21.001,32,21.208,32v-5.186C20.677,26.813,20.147,26.979,19.741,27.312z"/>
			<path fill="#F7C845" d="M21.699,31.709l1.483-3.648c0.062-0.153,0.014-0.322-0.125-0.436l-0.381-0.313
				c-0.405-0.333-0.936-0.499-1.467-0.499V32C21.414,31.999,21.62,31.903,21.699,31.709z"/>
		</g>
		<g>
			<path fill="#FFE28A" d="M9.533,27.312l-0.381,0.313c-0.139,0.114-0.188,0.283-0.125,0.436l1.48,3.649
				C10.586,31.903,10.793,32,11,32v-5.186C10.469,26.813,9.938,26.979,9.533,27.312z"/>
			<path fill="#FFD96C" d="M11.491,31.709l1.483-3.648c0.062-0.153,0.014-0.322-0.125-0.436l-0.381-0.313
				c-0.405-0.333-0.936-0.499-1.467-0.499V32C11.206,31.999,11.412,31.903,11.491,31.709z"/>
		</g>
		<path fill="#B9BFBE" d="M20.396,5.042V1.643c0-0.265-0.105-0.52-0.293-0.707L19.167,0L16,0v4.75L22,16L20.396,5.042z"/>
		<path fill="#C8CCCB" d="M11.604,5.042V1.643c0-0.265,0.105-0.52,0.293-0.707L12.833,0H16v4.75L10,16L11.604,5.042z"/>
		<path fill="#E3E5E5" d="M16,12v17H9.55l-0.517-9.119c-0.022-0.395,0.002-0.792,0.073-1.181l0.79-4.327
			c0.035-0.19,0.124-0.366,0.256-0.506L11.912,12H16z"/>
		<path fill="#DADDDC" d="M16,12v17h6.45l0.517-9.119c0.022-0.395-0.002-0.792-0.073-1.181l-0.79-4.329
			c-0.034-0.189-0.123-0.364-0.254-0.504L20.102,12H16z"/>
		<path fill="#EDEEEE" d="M16,3v10h-3.411c-0.382,0-0.731-0.214-0.902-0.553l-1.58-3.133c-0.102-0.203-0.132-0.435-0.084-0.657
			l0.713-3.301c0.05-0.23,0.18-0.435,0.367-0.58l2.03-1.566C13.31,3.074,13.528,3,13.752,3H16z"/>
		<path fill="#E3E5E5" d="M16,3v10h3.411c0.382,0,0.731-0.214,0.902-0.553l1.58-3.133c0.102-0.203,0.132-0.435,0.084-0.657
			l-0.713-3.301c-0.05-0.23-0.18-0.435-0.367-0.58l-2.03-1.566C18.69,3.074,18.472,3,18.248,3H16z"/>
		<path fill="#D1D4D4" d="M16,29H9c-0.552,0-1-0.448-1-1v0c0-0.552,0.448-1,1-1h7V29z"/>
		<path fill="#C8CCCB" d="M23,29h-7v-2h7c0.552,0,1,0.448,1,1v0C24,28.552,23.552,29,23,29z"/>
		<g>
			<path fill="#373F3F" d="M12,8c0,2.209,1.791,4,4,4V4C13.791,4,12,5.791,12,8z"/>
			<path fill="#2B3332" d="M20,8c0-2.209-1.791-4-4-4v8C18.209,12,20,10.209,20,8z"/>
		</g>
		<g>
			<path fill="#D64F45" d="M14,8c0,1.105,0.895,2,2,2V6C14.895,6,14,6.895,14,8z"/>
			<path fill="#D1473D" d="M18,8c0-1.105-0.895-2-2-2v4C17.105,10,18,9.105,18,8z"/>
		</g>
		<g>
			<path fill="#434C4B" d="M15.25,8c0,0.414,0.336,0.75,0.75,0.75v-1.5C15.586,7.25,15.25,7.586,15.25,8z"/>
			<path fill="#373F3F" d="M16.75,8c0-0.414-0.336-0.75-0.75-0.75v1.5C16.414,8.75,16.75,8.414,16.75,8z"/>
		</g>
		<circle fill="#FFFFFF" cx="16.5" cy="7.5" r="0.5"/>
		<path fill="#C8CCCB" d="M21,27h-2v-8.733c0-0.454,0.556-0.673,0.865-0.341l1,1.07C20.952,19.088,21,19.21,21,19.337V27z"/>
		<path fill="#D1D4D4" d="M11,27h2v-8.733c0-0.454-0.556-0.673-0.865-0.341l-1,1.07C11.048,19.088,11,19.21,11,19.337V27z"/>
	</g>
</g>
</svg>
