<?xml version="1.0" encoding="utf-8"?>
<!-- Generator: Adobe Illustrator 23.0.6, SVG Export Plug-In . SVG Version: 6.00 Build 0)  -->
<svg version="1.1" xmlns="http://www.w3.org/2000/svg" xmlns:xlink="http://www.w3.org/1999/xlink" x="0px" y="0px" width="32px"
	 height="32px" viewBox="0 0 32 32" enable-background="new 0 0 32 32" xml:space="preserve">
<g id="labels">
	<g>
	</g>
</g>
<g id="icons">
	<g>
		<path fill="#D5B387" d="M8.146,9.96v6.909l2.863,3.654c0.09,0.115,0.154,0.248,0.187,0.39L12.146,25H16V9.96H8.146z"/>
		<path fill="#F57552" d="M11.215,21H15c0.552,0,1,0.448,1,1v3h-3.854L11.215,21z"/>
		<path fill="#CFAB81" d="M23.854,9.96v6.909l-2.863,3.654c-0.09,0.115-0.154,0.248-0.187,0.39L19.854,25H16V9.96H23.854z"/>
		<path fill="#DBBA8C" d="M16,0l-0.991,0c-0.136,0-0.267,0.056-0.361,0.154l-3.043,3.174c-0.082,0.085-0.131,0.197-0.138,0.315
			l-0.232,3.77c-0.009,0.15-0.085,0.288-0.208,0.376L8,9.96l5.157,3.383c0.081,0.053,0.177,0.082,0.274,0.082H16V0z"/>
		<path fill="#DBBA8C" d="M4.202,11.263C4.289,11.101,4.458,11,4.642,11H6.5h1.858c0.184,0,0.353,0.101,0.44,0.263l1.075,2
			c0.079,0.148,0.079,0.326,0,0.473l-1.075,2C8.711,15.899,8.542,16,8.358,16H6.5H4.642c-0.184,0-0.353-0.101-0.44-0.263l-1.075-2
			c-0.079-0.148-0.079-0.326,0-0.473L4.202,11.263z"/>
		<path fill="#E0C193" d="M4.202,14.263C4.289,14.101,4.458,14,4.642,14H6.5h1.858c0.184,0,0.353,0.101,0.44,0.263l1.075,2
			c0.079,0.148,0.079,0.326,0,0.473l-1.075,2C8.711,18.899,8.542,19,8.358,19H6.5H4.642c-0.184,0-0.353-0.101-0.44-0.263l-1.075-2
			c-0.079-0.148-0.079-0.326,0-0.473L4.202,14.263z"/>
		<path fill="#E5C79A" d="M6.712,18.099l2.94,1.374c0.205,0.096,0.321,0.318,0.28,0.542l-1.228,6.816
			c-0.03,0.167-0.143,0.307-0.299,0.373L6.693,27.92c-0.123,0.052-0.262,0.052-0.386,0l-1.712-0.716
			c-0.157-0.065-0.269-0.206-0.299-0.373l-1.228-6.816c-0.04-0.223,0.075-0.446,0.28-0.542l2.94-1.374
			C6.422,18.036,6.578,18.036,6.712,18.099z"/>
		<g>
			<path fill="#FF805D" d="M5.841,1.536L3.537,3.41c-0.181,0.148-0.305,0.351-0.35,0.577L2.019,9.856
				c-0.086,0.43,0.126,0.863,0.522,1.071l3.472,1.818c0.152,0.08,0.32,0.12,0.487,0.119V1.303C6.266,1.303,6.032,1.381,5.841,1.536z
				"/>
			<path fill="#F57552" d="M10.459,10.927c0.396-0.207,0.607-0.641,0.522-1.071L9.813,3.987c-0.045-0.226-0.168-0.43-0.35-0.577
				L7.159,1.536C6.968,1.381,6.734,1.303,6.5,1.303v11.561c0.167,0,0.335-0.04,0.487-0.119L10.459,10.927z"/>
		</g>
		<path fill="#EB6B48" d="M18,16c0,0.552,0.448,1,1,1h4v-6.5h-5V16z"/>
		<path fill="#D5B387" d="M16,0h0.991c0.136,0,0.267,0.056,0.361,0.154l3.043,3.174c0.082,0.085,0.131,0.197,0.138,0.315l0.232,3.77
			c0.009,0.15,0.085,0.288,0.208,0.376L24,9.96l-5.157,3.383c-0.081,0.053-0.177,0.082-0.274,0.082H16V0z"/>
		<path fill="#D5B387" d="M27.798,11.263C27.711,11.101,27.542,11,27.358,11H25.5h-1.858c-0.184,0-0.353,0.101-0.44,0.263l-1.075,2
			c-0.079,0.148-0.079,0.326,0,0.473l1.075,2C23.289,15.899,23.458,16,23.642,16H25.5h1.858c0.184,0,0.353-0.101,0.44-0.263l1.075-2
			c0.079-0.148,0.079-0.326,0-0.473L27.798,11.263z"/>
		<path fill="#DBBA8C" d="M27.798,14.263C27.711,14.101,27.542,14,27.358,14H25.5h-1.858c-0.184,0-0.353,0.101-0.44,0.263l-1.075,2
			c-0.079,0.148-0.079,0.326,0,0.473l1.075,2C23.289,18.899,23.458,19,23.642,19H25.5h1.858c0.184,0,0.353-0.101,0.44-0.263l1.075-2
			c0.079-0.148,0.079-0.326,0-0.473L27.798,14.263z"/>
		<path fill="#E0C193" d="M25.288,18.099l-2.94,1.374c-0.205,0.096-0.321,0.318-0.28,0.542l1.228,6.816
			c0.03,0.167,0.143,0.307,0.299,0.373l1.712,0.716c0.123,0.052,0.262,0.052,0.386,0l1.712-0.716
			c0.157-0.065,0.269-0.206,0.299-0.373l1.228-6.816c0.04-0.223-0.075-0.446-0.28-0.542l-2.94-1.374
			C25.578,18.036,25.422,18.036,25.288,18.099z"/>
		<path fill="#F57552" d="M24.841,1.536L22.537,3.41c-0.181,0.148-0.305,0.351-0.35,0.577l-1.168,5.869
			c-0.086,0.43,0.126,0.863,0.522,1.071l3.472,1.818c0.152,0.08,0.32,0.12,0.487,0.119V1.303
			C25.266,1.303,25.032,1.381,24.841,1.536z"/>
		<path fill="#EB6B48" d="M29.459,10.927c0.396-0.207,0.607-0.641,0.522-1.071l-1.168-5.869c-0.045-0.226-0.168-0.43-0.35-0.577
			l-2.304-1.874c-0.191-0.155-0.425-0.233-0.659-0.233v11.561c0.167,0,0.335-0.04,0.487-0.119L29.459,10.927z"/>
		<circle fill="#EB6B48" cx="18.5" cy="3.5" r="0.5"/>
		<circle fill="#F57552" cx="18.5" cy="5.5" r="0.5"/>
		<circle fill="#EB6B48" cx="18.5" cy="7.5" r="0.5"/>
		<circle fill="#F57552" cx="13.5" cy="3.5" r="0.5"/>
		<circle fill="#F57552" cx="13.5" cy="5.5" r="0.5"/>
		<circle fill="#F57552" cx="13.5" cy="7.5" r="0.5"/>
		<g>
			<path fill="#F57552" d="M15.5,5.5C15.5,5.776,15.724,6,16,6V5C15.724,5,15.5,5.224,15.5,5.5z"/>
			<path fill="#EB6B48" d="M16.5,5.5C16.5,5.224,16.276,5,16,5v1C16.276,6,16.5,5.776,16.5,5.5z"/>
		</g>
		<circle fill="#EB6B48" cx="18.5" cy="5.5" r="0.5"/>
		<g>
			<path fill="#E0C193" d="M11.23,21.92l-2.74,0.768c-0.269,0.076-0.424,0.357-0.344,0.625l1.116,3.718
				c0.051,0.169,0.186,0.298,0.357,0.341l1.88,0.472v-5.961C11.409,21.882,11.318,21.895,11.23,21.92z"/>
			<path fill="#DBBA8C" d="M13.738,27.031l1.116-3.718c0.08-0.268-0.075-0.55-0.344-0.625l-2.74-0.768
				c-0.088-0.025-0.179-0.037-0.27-0.037v5.961l1.88-0.472C13.551,27.329,13.687,27.2,13.738,27.031z"/>
		</g>
		<g>
			<path fill="#DBBA8C" d="M20.23,21.92l-2.74,0.768c-0.269,0.076-0.424,0.357-0.344,0.625l1.116,3.718
				c0.051,0.169,0.186,0.298,0.357,0.341l1.88,0.472v-5.961C20.409,21.882,20.318,21.895,20.23,21.92z"/>
			<path fill="#D5B387" d="M22.738,27.031l1.116-3.718c0.08-0.268-0.075-0.55-0.344-0.625l-2.74-0.768
				c-0.088-0.025-0.179-0.037-0.27-0.037v5.961l1.88-0.472C22.551,27.329,22.687,27.2,22.738,27.031z"/>
		</g>
		<path fill="#E0C193" d="M13.798,31.737l1.075-2c0.079-0.148,0.079-0.326,0-0.473l-1.075-2C13.711,27.101,13.542,27,13.358,27H11.5
			v5h1.858C13.542,32,13.711,31.899,13.798,31.737z"/>
		<path fill="#E5C79A" d="M9.642,27c-0.184,0-0.353,0.101-0.44,0.263l-1.075,2c-0.079,0.148-0.079,0.326,0,0.473l1.075,2
			C9.289,31.899,9.458,32,9.642,32H11.5v-5H9.642z"/>
		<path fill="#E0C193" d="M18.642,27c-0.184,0-0.353,0.101-0.44,0.263l-1.075,2c-0.079,0.148-0.079,0.326,0,0.473l1.075,2
			C18.289,31.899,18.458,32,18.642,32H20.5v-5H18.642z"/>
		<path fill="#DBBA8C" d="M22.798,31.737l1.075-2c0.079-0.148,0.079-0.326,0-0.473l-1.075-2C22.711,27.101,22.542,27,22.358,27H20.5
			v5h1.858C22.542,32,22.711,31.899,22.798,31.737z"/>
	</g>
</g>
</svg>
