<?xml version="1.0" encoding="utf-8"?>
<!-- Generator: Adobe Illustrator 23.0.6, SVG Export Plug-In . SVG Version: 6.00 Build 0)  -->
<svg version="1.1" xmlns="http://www.w3.org/2000/svg" xmlns:xlink="http://www.w3.org/1999/xlink" x="0px" y="0px" width="32px"
	 height="32px" viewBox="0 0 32 32" enable-background="new 0 0 32 32" xml:space="preserve">
<g id="labels">
	<g>
	</g>
</g>
<g id="icons">
	<g>
		<g>
			<path fill="#E3E5E5" d="M27.005,19.799c0,0-0.496,1.634-1.171,2.561c-0.116,0.16-0.018,0.383,0.179,0.4
				c0.487,0.041,1.258,0.028,1.815-0.353c0.875-0.599,1.106-1.828,1.106-1.828L27.005,19.799z"/>
			<path fill="#DADDDC" d="M28.592,20.955c0,0-0.496,1.634-1.171,2.561c-0.116,0.16-0.018,0.383,0.179,0.4
				c0.487,0.041,1.258,0.028,1.815-0.353c0.875-0.599,1.106-1.828,1.106-1.828L28.592,20.955z"/>
			<path fill="#D1D4D4" d="M29.967,21.928c0,0-0.261,1.687-0.797,2.701c-0.092,0.175,0.036,0.382,0.233,0.37
				c0.488-0.028,1.25-0.15,1.747-0.606c0.782-0.717,0.837-1.966,0.837-1.966L29.967,21.928z"/>
			<path fill="#373F3F" d="M25.744,12.039c0.627-0.049,1.187,0.38,1.294,0.995c0.207,1.188,0.627,3.026,1.324,3.79
				c0.978,1.071,3.775,2.323,3.633,5.812c-0.019,0.473-0.566,0.742-0.96,0.473l-3.953-2.702c-0.172-0.118-0.273-0.312-0.264-0.519
				c0.033-0.708,0.043-2.413-0.52-3.472c-0.354-0.665-0.963-1.687-1.495-2.559C24.337,13.091,24.846,12.109,25.744,12.039
				L25.744,12.039z"/>
		</g>
		<path fill="#2B3332" d="M18.003,2.646c0,0-0.565,0.564-0.565,1.49s2.528,1.239,2.528,1.239s-0.625-2.281-0.719-2.312
			S18.003,2.646,18.003,2.646z"/>
		<path fill="#373F3F" d="M13.988,2.647c0,0,0.539,0.563,0.539,1.489S12,5.375,12,5.375s0.625-2.281,0.719-2.312
			C12.812,3.031,13.988,2.647,13.988,2.647z"/>
		<path fill="#434C4B" d="M8,12c0,3.544,2.307,6.546,5.5,7.596v0.536c0,0.552,0.448,1,1,1H16V4C11.582,4,8,7.582,8,12z"/>
		<path fill="#373F3F" d="M18.5,20.132v-0.536C21.693,18.546,24,15.544,24,12c0-4.418-3.582-8-8-8v17.132h1.5
			C18.052,21.132,18.5,20.684,18.5,20.132z"/>
		<path fill="#ABB2B1" d="M14.305,24H12H9.695c-0.382,1.587-0.59,3.579-0.691,4.821C8.952,29.456,9.409,30,9.988,30H12h2.012
			c0.579,0,1.036-0.544,0.984-1.179C14.895,27.579,14.687,25.587,14.305,24z"/>
		<path fill="#C8CCCB" d="M12,25c1.559,0,2.829-0.876,3-2H9C9.171,24.124,10.441,25,12,25z"/>
		<path fill="#9DA5A4" d="M22.305,24H20h-2.305c-0.382,1.587-0.59,3.579-0.691,4.821C16.952,29.456,17.409,30,17.988,30H20h2.012
			c0.579,0,1.036-0.544,0.984-1.179C22.895,27.579,22.687,25.587,22.305,24z"/>
		<path fill="#ABB2B1" d="M20,25c-1.559,0-2.829-0.876-3-2h6C22.829,24.124,21.559,25,20,25z"/>
		<g>
			<path fill="#E3E5E5" d="M18.038,2.646c-0.013,0-0.025,0.002-0.038,0.002c1.061,1.146,1.903,2.667,2.453,4.413
				c2.37,0.992,4.313,2.543,5.503,3.644C25.54,6.177,22.154,2.646,18.038,2.646z"/>
			<path fill="#EDEEEE" d="M14,2.648c-0.013,0-0.025-0.002-0.038-0.002c-4.117,0-7.502,3.531-7.918,8.06
				c1.19-1.101,3.133-2.652,5.503-3.644C12.097,5.315,12.939,3.794,14,2.648z"/>
			<path fill="#DADDDC" d="M25.956,10.706c-1.19-1.101-3.133-2.652-5.503-3.644c0.442,1.402,0.699,2.947,0.699,4.584
				c0,2.335-0.868,4.26-1.89,5.728c2.829-0.883,5.184-2.701,6.584-3.978C25.946,12.829,26,12.245,26,11.646
				C26,11.328,25.985,11.015,25.956,10.706z"/>
			<path fill="#E3E5E5" d="M10.847,11.646c0-1.637,0.257-3.182,0.699-4.584c-2.37,0.992-4.313,2.543-5.503,3.644
				C6.015,11.015,6,11.328,6,11.646c0,0.599,0.054,1.183,0.153,1.75c1.4,1.277,3.756,3.095,6.584,3.978
				C11.716,15.906,10.847,13.981,10.847,11.646z"/>
		</g>
		<path fill="#D1D4D4" d="M25.847,13.396c-1.4,1.277-3.756,3.095-6.584,3.978c-0.249,0.358-0.506,0.678-0.763,0.978v1.78
			c0,0.552-0.448,1-1,1H16L16,23h7l-0.071-0.502c-0.048-0.338-0.231-0.641-0.509-0.839c-0.404-0.289-0.904-0.799-0.904-1.487
			c0-0.155,0.02-0.311,0.052-0.465C23.747,18.484,25.363,16.172,25.847,13.396z"/>
		<path fill="#DADDDC" d="M14.5,21.132c-0.552,0-1-0.448-1-1v-1.78c-0.256-0.3-0.513-0.62-0.763-0.978
			c-2.829-0.883-5.184-2.701-6.584-3.978c0.484,2.776,2.099,5.089,4.278,6.312c0.032,0.154,0.052,0.309,0.052,0.465
			c0,0.688-0.5,1.198-0.904,1.487c-0.278,0.198-0.461,0.501-0.509,0.839L9,23h7v-1.869H14.5z"/>
		<g>
			<path fill="#EDEEEE" d="M4.995,19.799c0,0,0.496,1.634,1.171,2.561c0.116,0.16,0.018,0.383-0.179,0.4
				c-0.487,0.041-1.258,0.028-1.815-0.353c-0.875-0.599-1.106-1.828-1.106-1.828L4.995,19.799z"/>
			<path fill="#E3E5E5" d="M3.408,20.955c0,0,0.496,1.634,1.171,2.561c0.116,0.16,0.018,0.383-0.179,0.4
				c-0.487,0.041-1.258,0.028-1.815-0.353c-0.875-0.599-1.106-1.828-1.106-1.828L3.408,20.955z"/>
			<path fill="#DADDDC" d="M2.033,21.928c0,0,0.261,1.687,0.797,2.701c0.092,0.175-0.036,0.382-0.233,0.37
				c-0.488-0.028-1.25-0.15-1.747-0.606c-0.782-0.717-0.837-1.966-0.837-1.966L2.033,21.928z"/>
			<path fill="#434C4B" d="M6.256,12.039c-0.627-0.049-1.187,0.38-1.294,0.995c-0.207,1.188-0.627,3.026-1.324,3.79
				c-0.978,1.071-3.775,2.323-3.633,5.812c0.019,0.473,0.566,0.742,0.96,0.473l3.953-2.702c0.172-0.118,0.273-0.312,0.264-0.519
				c-0.033-0.708-0.043-2.413,0.52-3.472c0.354-0.665,0.963-1.687,1.495-2.559C7.663,13.091,7.154,12.109,6.256,12.039L6.256,12.039
				z"/>
		</g>
		<path fill="#F7F7F7" d="M7.787,10.917C7.676,10.395,7.254,10.002,6.762,10c-0.003,0-0.006,0-0.009,0C5.232,10,4,11.343,4,13
			s1.232,3,2.753,3c0.003,0,0.006,0,0.009,0c0.492-0.002,0.914-0.395,1.026-0.917C7.924,14.441,8,13.739,8,13
			C8,12.261,7.924,11.558,7.787,10.917z"/>
		<g>
			<g>
				<path fill="#EDEEEE" d="M24.213,10.917c0.111-0.523,0.533-0.915,1.026-0.917c0.003,0,0.006,0,0.009,0C26.768,10,28,11.343,28,13
					s-1.232,3-2.753,3c-0.003,0-0.006,0-0.009,0c-0.492-0.002-0.914-0.395-1.026-0.917C24.076,14.441,24,13.739,24,13
					C24,12.261,24.076,11.558,24.213,10.917z"/>
			</g>
			<g>
				<path fill="#E3E5E5" d="M24.213,10.917c0.111-0.523,0.533-0.915,1.026-0.917c0.003,0,0.006,0,0.009,0C26.768,10,28,11.343,28,13
					s-1.232,3-2.753,3c-0.003,0-0.006,0-0.009,0c-0.492-0.002-0.914-0.395-1.026-0.917C24.076,14.441,24,13.739,24,13
					C24,12.261,24.076,11.558,24.213,10.917z"/>
			</g>
		</g>
		<circle fill="#EB6B48" cx="17" cy="8.5" r="0.5"/>
		<circle fill="#EB6B48" cx="17" cy="12.5" r="0.5"/>
		<circle fill="#F57552" cx="15" cy="8.5" r="0.5"/>
		<circle fill="#F57552" cx="13.5" cy="10.5" r="0.5"/>
		<circle fill="#F57552" cx="15" cy="12.5" r="0.5"/>
		<g>
			<path fill="#F57552" d="M15.5,10.5c0,0.276,0.224,0.5,0.5,0.5v-1C15.724,10,15.5,10.224,15.5,10.5z"/>
			<path fill="#EB6B48" d="M16.5,10.5c0-0.276-0.224-0.5-0.5-0.5v1C16.276,11,16.5,10.776,16.5,10.5z"/>
		</g>
		<circle fill="#EB6B48" cx="18.5" cy="10.5" r="0.5"/>
		<path fill="#F57552" d="M4.316,20.204l-0.339,0.229c-0.191,0.129-0.451,0.079-0.58-0.112h0c-0.129-0.191-0.079-0.451,0.112-0.58
			l0.339-0.229c0.191-0.129,0.451-0.079,0.58,0.112l0,0C4.557,19.815,4.507,20.075,4.316,20.204z"/>
		<path fill="#F57552" d="M2.865,21.186l-0.339,0.229c-0.191,0.129-0.451,0.079-0.58-0.112l0,0c-0.129-0.191-0.079-0.451,0.112-0.58
			l0.339-0.229c0.191-0.129,0.451-0.079,0.58,0.112h0C3.106,20.797,3.056,21.057,2.865,21.186z"/>
		<path fill="#F57552" d="M1.414,22.168l-0.339,0.229c-0.191,0.129-0.451,0.079-0.58-0.112h0c-0.129-0.191-0.079-0.451,0.112-0.58
			l0.339-0.229c0.191-0.129,0.451-0.079,0.58,0.112l0,0C1.655,21.779,1.605,22.039,1.414,22.168z"/>
		<path fill="#EB6B48" d="M27.684,20.204l0.339,0.229c0.191,0.129,0.451,0.079,0.58-0.112h0c0.129-0.191,0.079-0.451-0.112-0.58
			l-0.339-0.229c-0.191-0.129-0.451-0.079-0.58,0.112l0,0C27.443,19.815,27.493,20.075,27.684,20.204z"/>
		<path fill="#EB6B48" d="M29.135,21.186l0.339,0.229c0.191,0.129,0.451,0.079,0.58-0.112v0c0.129-0.191,0.079-0.451-0.112-0.58
			l-0.339-0.229c-0.191-0.129-0.451-0.079-0.58,0.112l0,0C28.894,20.797,28.944,21.057,29.135,21.186z"/>
		<path fill="#EB6B48" d="M30.586,22.168l0.339,0.229c0.191,0.129,0.451,0.079,0.58-0.112h0c0.129-0.191,0.079-0.451-0.112-0.58
			l-0.339-0.229c-0.191-0.129-0.451-0.079-0.58,0.112l0,0C30.345,21.779,30.395,22.039,30.586,22.168z"/>
	</g>
</g>
</svg>
