<?xml version="1.0" encoding="utf-8"?>
<!-- Generator: Adobe Illustrator 23.0.6, SVG Export Plug-In . SVG Version: 6.00 Build 0)  -->
<svg version="1.1" xmlns="http://www.w3.org/2000/svg" xmlns:xlink="http://www.w3.org/1999/xlink" x="0px" y="0px" width="32px"
	 height="32px" viewBox="0 0 32 32" enable-background="new 0 0 32 32" xml:space="preserve">
<g id="labels">
	<g>
	</g>
</g>
<g id="icons">
	<g>
		<path fill="#D1473D" d="M0.131,0.995c-0.205-0.205-0.141,0.045,0,0.298l1.546,2.709L0.492,4.57
			c-0.118,0.057-0.08,0.234,0.051,0.238L2.16,4.847l0.157,0.276L1.79,5.466C1.689,5.532,1.731,5.689,1.851,5.696l0.82,0.047
			l9.46,16.57L16,18.064v-1.462L0.131,0.995z"/>
		<path fill="#CF3C35" d="M31.869,0.995L16,16.602v1.462l3.869,4.248l9.46-16.57l0.82-0.047c0.12-0.007,0.162-0.164,0.061-0.229
			l-0.527-0.344l0.157-0.276l1.617-0.039c0.131-0.003,0.169-0.181,0.051-0.238l-1.185-0.568l1.546-2.709
			C32.01,1.039,32.074,0.79,31.869,0.995z"/>
		<path fill="#E3E5E5" d="M21.275,16.924l0.008,0c-1.248-1.933-1.162-4.768-1.162-4.768l-0.007-0.001
			c0.097-0.172,0.193-0.344,0.275-0.523C20.778,10.783,21,9.868,21,9c0-0.574-0.047-1.167-0.151-1.749l1.139-5.712
			c0.065-0.206-0.146-0.393-0.343-0.303c-0.289,0.132-0.322,0.198-0.322,0.198l0.353-1.105c0.069-0.215-0.161-0.407-0.358-0.297
			c-1.311,0.731-2.589,2.288-3.34,3.299C17.418,3.12,16.765,3,16,3v8.625v1.918V14v1v2v4c0,0,4.038-0.194,6.795,3.509
			C22.924,23.864,23,23.193,23,22.5C23,20.364,22.346,18.417,21.275,16.924z"/>
		<path fill="#EDEEEE" d="M14.022,3.331c-0.752-1.011-2.029-2.568-3.34-3.299c-0.197-0.11-0.427,0.082-0.358,0.297l0.353,1.105
			c0,0-0.033-0.066-0.322-0.198c-0.197-0.09-0.408,0.097-0.343,0.303l1.139,5.712C11.047,7.833,11,8.426,11,9
			c0,0.868,0.222,1.784,0.611,2.631c0.082,0.179,0.178,0.352,0.275,0.524l-0.007,0.001c0,0,0.087,2.836-1.162,4.768l0.008,0
			C9.654,18.417,9,20.364,9,22.5c0,0.693,0.076,1.364,0.205,2.009C11.962,20.806,16,21,16,21v-4v-2v-1v-0.457v-1.918V3
			C15.235,3,14.582,3.12,14.022,3.331z"/>
		<path fill="#E3E5E5" d="M10.233,17.219c-0.494-0.065-0.99,0.527-1.216,1.38L6.362,19.36C6.148,19.422,6,19.618,6,19.841v2.307h1
			v-1.742c0-0.112,0.074-0.21,0.181-0.24l1.718-0.493c0.031,0.817,0.347,1.451,0.816,1.512c0.58,0.076,1.167-0.751,1.31-1.846
			C11.168,18.244,10.813,17.295,10.233,17.219z"/>
		<ellipse fill="#D64F45" cx="6.5" cy="24.5" rx="1.5" ry="3.5"/>
		<g>
			<path fill="#EDEEEE" d="M7.151,27.5c-0.184,0.006-0.329,0.155-0.317,0.557s0.175,0.904,0.359,0.897
				c0.184-0.006,0.319-0.519,0.307-0.92C7.488,27.633,7.335,27.494,7.151,27.5z"/>
			<path fill="#EDEEEE" d="M5.818,27.546c-0.184,0.006-0.329,0.155-0.317,0.557C5.512,28.504,5.676,29.006,5.86,29
				c0.184-0.006,0.319-0.519,0.307-0.92S6.002,27.539,5.818,27.546z"/>
			<path fill="#EDEEEE" d="M6.484,27.523C6.3,27.529,6.155,27.678,6.167,28.08s0.175,0.904,0.359,0.897
				c0.184-0.006,0.319-0.519,0.307-0.92S6.668,27.517,6.484,27.523z"/>
		</g>
		<path fill="#D1473D" d="M16,19.254c-0.342,0-0.684,0.087-0.993,0.262c-1.372,0.776-3.893,2.43-5.802,4.993
			c0.207,1.037,0.576,1.996,1.064,2.846c-1.063,1.265-2.101,2.62-2.279,2.796c-0.039,0.039-0.012,0.106,0.044,0.106l1.151,0.017
			l-0.326,0.811c-0.019,0.048,0.025,0.098,0.075,0.084l1.283-0.36l0.02,1.129c0.001,0.053,0.062,0.081,0.102,0.047
			c0.169-0.146,1.011-1.177,1.903-2.324C13.326,30.505,14.614,31,16,31V19.254z"/>
		<path fill="#CF3C35" d="M23.558,30.151c-0.163-0.161-1.049-1.312-2.013-2.476c0.584-0.924,1.016-1.998,1.25-3.166
			c-1.908-2.563-4.43-4.217-5.802-4.993c-0.309-0.175-0.651-0.262-0.993-0.262V31c1.266,0,2.45-0.411,3.473-1.125
			c0.828,1.059,1.578,1.974,1.736,2.11c0.04,0.034,0.102,0.006,0.103-0.047l0.02-1.129l1.283,0.36
			c0.05,0.014,0.094-0.035,0.075-0.084l-0.326-0.811l1.151-0.017C23.57,30.257,23.598,30.19,23.558,30.151z"/>
		<path fill="none" d="M14,7.797v2.832c0.485,0.485,1.129,0.948,2,1.311v-4.91c-0.198,0-0.393,0.039-0.578,0.117
			C15.006,7.322,14.513,7.543,14,7.797z"/>
		<path fill="#DADDDC" d="M25.638,19.36l-2.655-0.762c-0.226-0.852-0.721-1.444-1.216-1.38c-0.58,0.076-0.935,1.025-0.792,2.12
			c0.143,1.095,0.73,1.922,1.31,1.846c0.469-0.061,0.785-0.695,0.816-1.512l1.718,0.493C24.926,20.197,25,20.295,25,20.406v1.742h1
			v-2.307C26,19.618,25.852,19.422,25.638,19.36z"/>
		<g>
			<path fill="none" d="M14.286,7.658C14.112,7.741,14,7.919,14,8.112v2.299c0,0.139,0.053,0.273,0.155,0.368
				c0.377,0.349,0.843,0.682,1.422,0.969c0.131,0.065,0.277,0.098,0.423,0.098V7.031c-0.198,0-0.393,0.039-0.578,0.117
				C15.084,7.289,14.695,7.462,14.286,7.658z"/>
			<path fill="#D1473D" d="M15.577,11.747c-0.579-0.287-1.044-0.62-1.422-0.969C14.053,10.684,14,10.55,14,10.411V8.112
				c0-0.192,0.112-0.37,0.286-0.453c0.409-0.196,0.799-0.369,1.137-0.511C15.607,7.07,15.802,7.031,16,7.031v-1.5
				c-0.393,0-0.786,0.078-1.157,0.233c-0.958,0.401-2.349,1.047-3.528,1.844c-0.159,0.108-0.24,0.294-0.213,0.484
				c0.133,0.962,0.838,3.887,4.533,5.318c0.115,0.045,0.24,0.067,0.366,0.067v-1.631C15.854,11.845,15.708,11.813,15.577,11.747z"/>
			<path fill="#CF3C35" d="M16.366,13.41c3.706-1.436,4.403-4.374,4.533-5.327c0.025-0.184-0.052-0.365-0.206-0.469
				c-1.181-0.8-2.576-1.448-3.537-1.85C16.786,5.608,16.393,5.531,16,5.531v1.5c0.198,0,0.393,0.039,0.578,0.117
				c0.338,0.142,0.727,0.314,1.137,0.511C17.888,7.741,18,7.919,18,8.112v2.299c0,0.139-0.053,0.273-0.155,0.368
				c-0.377,0.349-0.843,0.682-1.422,0.97c-0.131,0.065-0.277,0.098-0.423,0.098v1.631C16.126,13.477,16.251,13.454,16.366,13.41z"/>
		</g>
		<g>
			<path fill="#FFFFFF" d="M11.758,9.171c-0.031,0.024-0.049,0.06-0.049,0.099c0,1.039,0.026,2.488,1.542,2.488
				c1.125,0,1.25-1.208,1.25-1.208s-0.167-0.958-1.292-1.375C12.311,8.843,11.891,9.067,11.758,9.171z"/>
			<path fill="#FFD96C" d="M13.208,9.175c-0.119-0.044-0.202-0.074-0.304-0.1c-0.213,0.283-0.352,0.661-0.352,1.059
				c0,0.755,0.274,1.43,0.899,1.612c0.976-0.153,1.049-1.195,1.049-1.195S14.333,9.592,13.208,9.175z"/>
			<ellipse fill="#373F3F" cx="13.533" cy="10.41" rx="0.418" ry="0.747"/>
		</g>
		<g>
			<path fill="#F7F7F7" d="M20.242,9.171c0.031,0.024,0.049,0.06,0.049,0.099c0,1.039-0.026,2.488-1.542,2.488
				c-1.125,0-1.25-1.208-1.25-1.208s0.167-0.958,1.292-1.375C19.689,8.843,20.109,9.067,20.242,9.171z"/>
			<path fill="#FFD04D" d="M18.792,9.175c0.119-0.044,0.202-0.074,0.304-0.1c0.213,0.283,0.352,0.661,0.352,1.059
				c0,0.755-0.274,1.43-0.899,1.612C17.573,11.592,17.5,10.55,17.5,10.55S17.667,9.592,18.792,9.175z"/>
			<ellipse fill="#2B3332" cx="18.467" cy="10.41" rx="0.418" ry="0.747"/>
		</g>
		<path fill="none" d="M14.289,25.457c-0.027,0.084,0.023,0.174,0.109,0.193c0.389,0.088,0.997,0.137,1.602,0.145v-3.2
			c-0.002,0-0.006-0.005-0.008-0.005C15.674,22.591,14.597,24.497,14.289,25.457z"/>
		<path fill="#5CA3D5" d="M14.398,25.65c-0.086-0.019-0.136-0.109-0.109-0.193c0.308-0.96,1.385-2.866,1.703-2.866
			c0.002,0,0.006,0.004,0.008,0.005v-1.204c-1.604,0.002-3,3.817-3,4.468c0,0.738,0.95,0.919,1.309,0.987
			c0.468,0.088,1.077,0.137,1.691,0.146v-1.198C15.395,25.787,14.787,25.738,14.398,25.65z"/>
		<path fill="#529CCF" d="M19,25.859c0-0.823-1.42-4.467-2.999-4.467l-0.001,0v1.204c0.327,0.025,1.468,1.945,1.738,2.902
			c0.023,0.083-0.027,0.168-0.111,0.187c-0.375,0.084-1,0.119-1.627,0.111v1.198C16.063,26.993,16.122,27,16.185,27
			C18.106,27,19,26.637,19,25.859z"/>
		<ellipse fill="#D1473D" cx="25.5" cy="24.5" rx="1.5" ry="3.5"/>
		<g>
			<path fill="#E3E5E5" d="M24.849,27.5c0.184,0.006,0.329,0.155,0.317,0.557c-0.012,0.402-0.175,0.904-0.359,0.897
				c-0.184-0.006-0.319-0.519-0.307-0.92C24.512,27.633,24.665,27.494,24.849,27.5z"/>
			<path fill="#E3E5E5" d="M26.182,27.546c0.184,0.006,0.329,0.155,0.317,0.557S26.324,29.006,26.14,29
				c-0.184-0.006-0.319-0.519-0.307-0.92C25.845,27.678,25.998,27.539,26.182,27.546z"/>
			<path fill="#E3E5E5" d="M25.516,27.523c0.184,0.006,0.329,0.155,0.317,0.557c-0.012,0.402-0.175,0.904-0.359,0.897
				c-0.184-0.006-0.319-0.519-0.307-0.92C25.178,27.655,25.332,27.517,25.516,27.523z"/>
		</g>
	</g>
</g>
</svg>
