<?xml version="1.0" encoding="utf-8"?>
<!-- Generator: Adobe Illustrator 23.0.6, SVG Export Plug-In . SVG Version: 6.00 Build 0)  -->
<svg version="1.1" xmlns="http://www.w3.org/2000/svg" xmlns:xlink="http://www.w3.org/1999/xlink" x="0px" y="0px" width="32px"
	 height="32px" viewBox="0 0 32 32" enable-background="new 0 0 32 32" xml:space="preserve">
<g id="labels">
	<g>
	</g>
</g>
<g id="icons">
	<g>
		<g>
			<path fill="#3085A6" d="M17.19,10.047l-1.068-0.175c-0.114-0.019-0.191-0.126-0.172-0.24l0.567-3.457
				c0.019-0.114,0.126-0.191,0.24-0.172l1.068,0.175c0.114,0.019,0.191,0.126,0.172,0.24L17.43,9.875
				C17.412,9.989,17.304,10.066,17.19,10.047z"/>
			<path fill="#3A89A8" d="M16.218,10.651l1.267,0.936c0.135,0.1,0.326,0.071,0.425-0.064l3.03-4.102
				c0.1-0.135,0.071-0.326-0.064-0.425L19.609,6.06c-0.135-0.1-0.326-0.071-0.425,0.064l-3.03,4.102
				C16.054,10.361,16.083,10.551,16.218,10.651z"/>
			<path fill="#3A89A8" d="M14.81,10.047l1.068-0.175c0.114-0.019,0.191-0.126,0.172-0.24l-0.567-3.457
				c-0.019-0.114-0.126-0.191-0.24-0.172l-1.068,0.175c-0.114,0.019-0.191,0.126-0.172,0.24l0.567,3.457
				C14.588,9.989,14.696,10.066,14.81,10.047z"/>
			<path fill="#468DAC" d="M15.782,10.651l-1.267,0.936c-0.135,0.1-0.326,0.071-0.425-0.064l-3.03-4.102
				c-0.1-0.135-0.071-0.326,0.064-0.425l1.267-0.936c0.135-0.1,0.326-0.071,0.425,0.064l3.03,4.102
				C15.946,10.361,15.917,10.551,15.782,10.651z"/>
		</g>
		<g>
			<path fill="#468DAC" d="M8.096,8.825l0.007,4.957l5.885-3.676L9.536,7.926C8.871,7.6,8.095,8.085,8.096,8.825z"/>
			<path fill="#CF3C35" d="M9.542,8.479l3.354,1.917L13.937,10c0,0-3.583-2.5-4.937-2.5c-0.526,0-0.979,0.542-0.979,1.271
				c0,1.362-0.062,3.979,0.082,5.012c0.358,0.211,1.163-0.644,1.298-1.037C9.312,11.979,9.062,10.229,9,9.021
				C8.972,8.474,8.896,8.146,9.542,8.479z"/>
		</g>
		<g>
			<path fill="#3A89A8" d="M23.899,8.825l-0.007,4.957l-5.885-3.676l4.452-2.181C23.124,7.6,23.9,8.085,23.899,8.825z"/>
			<path fill="#C23734" d="M22.996,9.021c-0.062,1.208-0.312,2.958-0.401,3.725c0.135,0.393,0.94,1.247,1.298,1.037
				c0.145-1.032,0.082-3.65,0.082-5.012c0-0.729-0.454-1.271-0.979-1.271c-1.354,0-4.938,2.5-4.938,2.5l1.042,0.396l3.354-1.917
				C23.1,8.146,23.024,8.474,22.996,9.021z"/>
		</g>
		<g>
			<path fill="#D1D4D4" d="M5.073,15.754c-0.533,0.041-1.559-0.164-1.928,0.492c-0.369,0.656-0.656,1.313-0.451,1.641
				c0.205,0.328,1.764,0.615,2.461,0.246C5.853,17.765,5.073,15.754,5.073,15.754z"/>
			<path fill="#DADDDC" d="M4.294,16.616c-0.533,0.041-1.559-0.164-1.928,0.492c-0.369,0.656-0.656,1.313-0.451,1.641
				c0.205,0.328,1.764,0.615,2.461,0.246C5.073,18.626,4.294,16.616,4.294,16.616z"/>
			<path fill="#E3E5E5" d="M3.35,17.929c-0.533,0.041-1.559-0.164-1.928,0.492s-0.656,1.313-0.451,1.641
				c0.205,0.328,1.764,0.615,2.461,0.246S3.35,17.929,3.35,17.929z"/>
			<path fill="#EDEEEE" d="M2.448,19.939c-0.533,0.041-1.559-0.164-1.928,0.492s-0.656,1.313-0.451,1.641
				c0.205,0.328,1.764,0.615,2.461,0.246C3.227,21.949,2.448,19.939,2.448,19.939z"/>
			<path fill="#468DAC" d="M10.652,16.616c-1.757-1.741-4.964-2.42-6.769-0.123s-2.42,5.456-1.518,6.113s5.447,0.77,8.779-2.626
				L10.652,16.616z"/>
			<path fill="#C23734" d="M1.953,21.347l1.639-0.572c0.096-0.034,0.18-0.096,0.239-0.178l0.571-0.784l0.782-0.303
				c0.449,0.387,1.074,0.635,1.777,0.635c1.358,0,2.461-0.902,2.461-2.01c0-1.109-1.104-2.01-2.461-2.01
				c-0.539,0-1.011,0.171-1.416,0.411l-0.076-0.049l0.025-0.288c0.005-0.062-0.012-0.123-0.05-0.172L5.047,15.5
				c-0.297,0.141-0.635,0.429-0.859,0.647l0.292,0.326l-0.033,0.367c-0.008,0.093,0.035,0.182,0.114,0.233l0.236,0.152
				c-0.059,0.093-0.103,0.186-0.144,0.287l-1.375-0.146c-0.189,0.307-0.358,0.621-0.508,0.936l1.818,0.193
				c0.013,0.058,0.023,0.117,0.043,0.173l-0.786,0.304C3.8,18.99,3.762,19.02,3.733,19.059l-0.608,0.834l-1.032,0.355
				C1.982,20.653,1.971,20.982,1.953,21.347z M5.483,18.134c0-0.556,0.676-1.026,1.477-1.026s1.477,0.47,1.477,1.026
				c0,0.556-0.676,1.026-1.477,1.026S5.483,18.69,5.483,18.134z"/>
		</g>
		<g>
			<path fill="#C8CCCB" d="M26.927,15.754c0.533,0.041,1.559-0.164,1.928,0.492c0.369,0.656,0.656,1.313,0.451,1.641
				c-0.205,0.328-1.764,0.615-2.461,0.246C26.147,17.765,26.927,15.754,26.927,15.754z"/>
			<path fill="#D1D4D4" d="M27.706,16.616c0.533,0.041,1.559-0.164,1.928,0.492c0.369,0.656,0.656,1.313,0.451,1.641
				c-0.205,0.328-1.764,0.615-2.461,0.246C26.927,18.626,27.706,16.616,27.706,16.616z"/>
			<path fill="#DADDDC" d="M28.65,17.929c0.533,0.041,1.559-0.164,1.928,0.492c0.369,0.656,0.656,1.313,0.451,1.641
				c-0.205,0.328-1.764,0.615-2.461,0.246S28.65,17.929,28.65,17.929z"/>
			<path fill="#E3E5E5" d="M29.552,19.939c0.533,0.041,1.559-0.164,1.928,0.492s0.656,1.313,0.451,1.641
				c-0.205,0.328-1.764,0.615-2.461,0.246C28.773,21.949,29.552,19.939,29.552,19.939z"/>
			<path fill="#3A89A8" d="M21.348,16.616c1.757-1.741,4.964-2.42,6.769-0.123c1.805,2.297,2.42,5.456,1.518,6.113
				s-5.447,0.77-8.779-2.626L21.348,16.616z"/>
			<path fill="#B33533" d="M29.906,20.247l-1.032-0.355l-0.608-0.834c-0.028-0.039-0.067-0.069-0.112-0.086l-0.786-0.304
				c0.02-0.056,0.029-0.115,0.043-0.173l1.818-0.193c-0.15-0.315-0.319-0.629-0.508-0.936l-1.375,0.146
				c-0.041-0.101-0.085-0.194-0.144-0.287l0.236-0.152c0.078-0.05,0.122-0.14,0.114-0.233l-0.033-0.367l0.292-0.326
				c-0.224-0.218-0.562-0.506-0.859-0.647l-0.397,0.525c-0.037,0.049-0.055,0.111-0.05,0.172l0.025,0.288l-0.076,0.049
				c-0.406-0.24-0.878-0.411-1.416-0.411c-1.358,0-2.461,0.902-2.461,2.01c0,1.109,1.104,2.01,2.461,2.01
				c0.703,0,1.328-0.248,1.777-0.635l0.782,0.303l0.571,0.784c0.06,0.082,0.143,0.144,0.239,0.178l1.639,0.572
				C30.029,20.982,30.018,20.653,29.906,20.247z M25.04,19.16c-0.801,0-1.477-0.47-1.477-1.026c0-0.556,0.676-1.026,1.477-1.026
				s1.477,0.47,1.477,1.026C26.517,18.69,25.841,19.16,25.04,19.16z"/>
		</g>
		<path fill="#DADDDC" d="M6.508,18.374c0.078,3.81,0.986,6.61,9.492,6.61c8.506,0,9.414-2.8,9.492-6.61
			c-2.379,1.734-5.746,2.822-9.492,2.822C12.254,21.197,8.887,20.108,6.508,18.374z"/>
		<path fill="#E3E5E5" d="M16,21.197c-3.746,0-7.113-1.089-9.492-2.822c0.078,3.81,0.986,6.61,9.492,6.61V21.197z"/>
		<path fill="#468DAC" d="M16,8.984c-5.246,0-9.499,4.496-9.499,8.653c0,0.249,0.002,0.495,0.007,0.738
			c2.379,1.734,5.746,2.822,9.492,2.822c3.746,0,7.113-1.089,9.492-2.822c0.005-0.243,0.007-0.489,0.007-0.738
			C25.499,13.48,21.246,8.984,16,8.984z"/>
		<path fill="#C23734" d="M25.476,18.988c0.021-0.222,0.04-1.056,0.029-1.259c-2.529,1.777-5.871,2.764-9.506,2.764
			s-6.971-0.968-9.5-2.746c0,0.217,0.012,1.071,0.024,1.253C9.14,20.642,12.44,21.493,16,21.493S22.86,20.63,25.476,18.988z"/>
		<path fill="#5091AF" d="M16,8.984c-5.246,0-9.499,4.496-9.499,8.653c0,0.249,0.002,0.495,0.007,0.738
			c2.379,1.734,5.746,2.822,9.492,2.822V8.984z"/>
		<path fill="#EDEEEE" d="M9.728,24.555l-2.598,1.406c-0.276,0.15-0.664-0.169-0.57-0.469l0.882-2.819
			c0.037-0.118,0.146-0.193,0.28-0.193l0.37,0.001c0.786,0.001,1.544,0.513,1.696,1.285l0.071,0.363
			C9.886,24.261,9.837,24.496,9.728,24.555z"/>
		<path fill="#E3E5E5" d="M22.272,24.535l2.598,1.406c0.276,0.15,0.664-0.169,0.57-0.469l-0.882-2.819
			c-0.037-0.118-0.146-0.193-0.28-0.193l-0.37,0.001c-0.786,0.001-1.542,0.534-1.694,1.305l-0.071,0.363
			C22.115,24.261,22.163,24.476,22.272,24.535z"/>
		<path fill="#EDEEEE" d="M11.337,10.231c0.288,0.078,0.769,0.358,0.985,0.573c0.792,0.792,0.641,2.228-0.338,3.207
			c-0.979,0.979-2.415,1.13-3.207,0.338c-0.356-0.356-0.544-0.928-0.53-1.444C8.992,11.925,9.98,10.945,11.337,10.231z"/>
		<path fill="#EDEEEE" d="M20.66,10.231c-0.288,0.078-0.769,0.358-0.985,0.573c-0.792,0.792-0.641,2.228,0.338,3.207
			c0.979,0.979,2.415,1.13,3.207,0.338c0.356-0.356,0.544-0.928,0.53-1.444C23.005,11.925,22.017,10.945,20.66,10.231z"/>
		<path fill="#CF3C35" d="M16,20.493c-3.634,0-6.971-0.968-9.5-2.746c0,0.217,0.012,1.071,0.024,1.253
			C9.14,20.642,12.44,21.493,16,21.493V20.493z"/>
		<g>
			<path fill="#373F3F" d="M9.188,18.622c-0.01,0.253-0.017,0.509,0.054,0.766c0.371,1.343,1.761,2.132,3.104,1.761
				c0.121-0.033,0.21-0.114,0.322-0.163c0.017,0.093,0.028,0.099,0.028,0.16c0,0.133-0.097,0.614-1.256,0.677
				c-1.159,0.063-2.109-0.82-2.543-1.455C8.603,19.941,8.635,19.083,9.188,18.622z"/>
			<path fill="#F7C845" d="M9.242,19.388c-0.071-0.257-0.064-0.513-0.054-0.766c0.206-0.172,0.486-0.281,0.854-0.286
				c-0.063,0.268-0.085,0.548-0.006,0.833c0.25,0.905,1.186,1.436,2.09,1.186c0.116-0.032,0.206-0.103,0.31-0.157
				c0.128,0.334,0.2,0.621,0.232,0.788c-0.095,0.063-0.201,0.129-0.322,0.163C11.002,21.52,9.613,20.731,9.242,19.388z"/>
			<path fill="#373F3F" d="M12.436,20.198c-0.103,0.053-0.193,0.125-0.31,0.157c-0.905,0.25-1.84-0.281-2.09-1.186
				c-0.079-0.285-0.057-0.564,0.006-0.833c0.163-0.002,0.333,0.006,0.53,0.05C11.632,18.622,12.166,19.495,12.436,20.198z"/>
		</g>
		<path fill="#CF3C35" d="M10.102,18.343c0.149,0,0.306,0.01,0.484,0.05c1.052,0.235,1.582,1.101,1.85,1.799
			c0.127,0.331,0.199,0.616,0.23,0.783c0.017,0.093,0.028,0.098,0.028,0.159c0,0.133-0.097,0.575-1.249,0.637
			c-0.042,0.002-0.083,0.003-0.124,0.003c-1.091,0-1.927-0.78-2.378-1.394c-0.305-0.415-0.282-1.295,0.267-1.753
			c0.205-0.171,0.483-0.279,0.848-0.284C10.074,18.343,10.088,18.343,10.102,18.343z M10.102,17.35h-0.006l-0.048,0
			c-0.569,0.007-1.078,0.185-1.473,0.514c-0.991,0.826-1.023,2.299-0.432,3.104c0.397,0.541,1.502,1.8,3.179,1.8
			c0.059,0,0.118-0.002,0.178-0.005c2.083-0.112,2.188-1.376,2.188-1.629c0-0.14-0.019-0.237-0.04-0.322
			c-0.03-0.155-0.107-0.518-0.284-0.976c-0.506-1.317-1.392-2.152-2.561-2.413C10.578,17.373,10.355,17.35,10.102,17.35
			L10.102,17.35z"/>
		<g>
			<path fill="#2B3332" d="M22.812,18.622c0.01,0.253,0.017,0.509-0.054,0.766c-0.371,1.343-1.761,2.132-3.104,1.761
				c-0.121-0.033-0.21-0.114-0.322-0.163c-0.017,0.093-0.028,0.099-0.028,0.16c0,0.133,0.098,0.65,1.268,0.681
				c1.161,0.031,2.037-0.798,2.509-1.44C23.388,19.969,23.365,19.083,22.812,18.622z"/>
			<path fill="#F0C13E" d="M22.758,19.388c0.071-0.257,0.064-0.513,0.054-0.766c-0.206-0.172-0.486-0.281-0.854-0.286
				c0.063,0.268,0.085,0.548,0.006,0.833c-0.25,0.905-1.186,1.436-2.09,1.186c-0.116-0.032-0.206-0.103-0.31-0.157
				c-0.128,0.334-0.2,0.621-0.232,0.788c0.095,0.063,0.201,0.129,0.322,0.163C20.998,21.52,22.387,20.731,22.758,19.388z"/>
			<path fill="#2B3332" d="M19.564,20.198c0.103,0.053,0.193,0.125,0.31,0.157c0.905,0.25,1.84-0.281,2.09-1.186
				c0.079-0.285,0.057-0.564-0.006-0.833c-0.163-0.002-0.333,0.006-0.53,0.05C20.368,18.622,19.834,19.495,19.564,20.198z"/>
		</g>
		<path fill="#C23734" d="M21.899,18.346c0.014,0,0.028,0,0.042,0c0.365,0.004,0.643,0.113,0.848,0.283
			c0.549,0.458,0.572,1.338,0.267,1.753c-0.451,0.614-1.287,1.394-2.377,1.394c-0.041,0-0.082-0.001-0.124-0.003
			c-1.151-0.062-1.248-0.504-1.248-0.636c0-0.061,0.01-0.066,0.028-0.159c0.031-0.167,0.103-0.451,0.23-0.783
			c0.268-0.698,0.798-1.564,1.849-1.798C21.593,18.356,21.75,18.346,21.899,18.346z M21.899,17.353c-0.252,0-0.475,0.023-0.7,0.074
			c-1.169,0.261-2.054,1.095-2.56,2.411c-0.176,0.458-0.254,0.821-0.279,0.956c-0.025,0.104-0.045,0.202-0.045,0.342
			c0,0.252,0.105,1.515,2.187,1.628c0.06,0.003,0.119,0.005,0.178,0.005c1.675,0,2.78-1.258,3.177-1.799
			c0.591-0.804,0.559-2.276-0.432-3.102c-0.395-0.329-0.904-0.507-1.472-0.514l-0.006,0L21.899,17.353L21.899,17.353z"/>
	</g>
</g>
</svg>
