<?xml version="1.0" encoding="utf-8"?>
<!-- Generator: Adobe Illustrator 23.0.6, SVG Export Plug-In . SVG Version: 6.00 Build 0)  -->
<svg version="1.1" xmlns="http://www.w3.org/2000/svg" xmlns:xlink="http://www.w3.org/1999/xlink" x="0px" y="0px" width="32px"
	 height="32px" viewBox="0 0 32 32" enable-background="new 0 0 32 32" xml:space="preserve">
<g id="labels">
	<g>
	</g>
</g>
<g id="icons">
	<g>
		<path fill="#46B080" d="M30.341,23.206c-0.543-1.217-1.427-2.075-2.295-2.65c-1.77-1.15-3.562-1.474-5.243-1.594
			c-0.274-0.017-0.541-0.015-0.811-0.017v-8.325c-1.063,0.876-2.464,1.413-4.005,1.413c-1.536,0-2.934-0.534-3.995-1.405v10.935
			c-0.119,0.081-0.245,0.16-0.36,0.241c-2.314,1.638-4.14,3.296-5.747,4.082c-0.397,0.195-0.771,0.328-1.117,0.397
			c-0.088,0.023-0.171,0.026-0.255,0.042c0,0-0.063,0.01-0.079,0.013c0.138,0.003,0.032,0.001,0.049,0.002l-0.044,0.002
			l-0.175,0.007c-0.116,0.005-0.23,0.009-0.343,0.014l-0.2-0.01c-0.596-0.01-1.128-0.215-1.519-0.466
			c-0.802-0.534-1.107-1.2-1.094-1.128c-0.069-0.306-0.373-0.497-0.679-0.428c-0.306,0.069-0.497,0.373-0.428,0.679
			c0.01,0.024,0.004,0.245,0.105,0.632c0.105,0.38,0.286,0.96,0.784,1.583c0.499,0.613,1.317,1.254,2.453,1.517
			c0.149,0.031,0.301,0.063,0.455,0.096c0.112,0.015,0.225,0.031,0.341,0.047l0.174,0.024c0,0,0.044,0.006,0.055,0.008L6.45,28.92
			l0.029,0l0.115,0.001c0.152-0.002,0.312,0.006,0.466-0.007c0.627-0.033,1.254-0.167,1.855-0.362
			c1.952-0.638,3.642-1.793,5.397-2.858c0.068,0.825,0.302,1.702,0.66,2.458c0.358,0.743,0.881,1.478,1.588,2.089
			c0.698,0.615,1.586,1.104,2.555,1.369c0.156,0.037,0.314,0.074,0.474,0.112c0.22,0.052,0.365,0.072,0.552,0.107
			c0.353,0.057,0.71,0.1,1.07,0.127c1.441,0.095,2.924,0.004,4.571-0.473c0.824-0.252,1.699-0.584,2.65-1.267
			c0.471-0.347,0.969-0.802,1.399-1.438c0.054-0.075,0.105-0.165,0.155-0.249l0.074-0.129l0.036-0.065l0.07-0.134l0.099-0.229
			c0.104-0.237,0.267-0.648,0.329-0.904C30.94,25.911,30.901,24.414,30.341,23.206z M25.093,25.324
			c-0.015,0.013-0.031,0.025-0.049,0.036c-0.223,0.14-0.492,0.146-0.744,0.183c-0.742,0.109-1.62,0.06-2.305-0.091
			c-0.001,0-0.001-0.002-0.002-0.003v-1.958c0.097,0.016,0.198,0.025,0.293,0.044c1.141,0.208,2.206,0.656,2.732,1.162
			c0.098,0.094,0.168,0.246,0.179,0.379C25.205,25.179,25.166,25.261,25.093,25.324z"/>
		<g>
			<g>
				<polygon fill="#53BF8C" points="21.988,10.625 21.977,10.634 21.988,10.63 				"/>
				<path fill="#53BF8C" d="M30.341,23.206c-0.543-1.217-1.427-2.075-2.295-2.65c-1.77-1.15-3.562-1.474-5.243-1.594
					c-0.274-0.017-0.541-0.015-0.811-0.017l-0.002,1.644c4.106,0.437,7.89,3.519,5.372,6.038C23.816,30.174,18,27.596,18,25.602
					V12.034c-1.536,0-2.946-0.534-4.007-1.405v10.935c-0.119,0.081-0.245,0.16-0.36,0.241c-2.314,1.638-4.14,3.296-5.747,4.082
					c-0.397,0.195-0.771,0.328-1.117,0.397c-0.088,0.023-0.171,0.026-0.255,0.042c0,0-0.063,0.01-0.079,0.013
					c0.138,0.003,0.032,0.001,0.049,0.002l-0.044,0.002l-0.175,0.007c-0.116,0.005-0.23,0.009-0.343,0.014l-0.2-0.01
					c-0.596-0.01-1.128-0.215-1.519-0.466c-0.802-0.534-1.107-1.2-1.094-1.128c-0.069-0.306-0.373-0.497-0.679-0.428
					c-0.039,0.009-0.07,0.031-0.106,0.047c0.352,1.531,1.482,3.028,3.976,3.091c1.926,0.048,4.542-1.576,7.812-3.781
					c0.046,0.702,0.11,1.4,0.199,2.003c0.068,0.825,0.302,1.702,0.66,2.458c0.358,0.743,0.881,1.478,1.588,2.089
					c0.698,0.615,1.586,1.104,2.555,1.369c0.156,0.037,0.314,0.074,0.474,0.112c0.22,0.052,0.365,0.072,0.552,0.107
					c0.353,0.057,0.71,0.1,1.07,0.127c1.441,0.095,2.924,0.004,4.571-0.473c0.824-0.252,1.699-0.584,2.65-1.267
					c0.471-0.347,0.969-0.802,1.399-1.438c0.054-0.075,0.105-0.165,0.155-0.249l0.074-0.129l0.036-0.065l0.07-0.134l0.099-0.229
					c0.104-0.237,0.267-0.648,0.329-0.904C30.94,25.911,30.901,24.414,30.341,23.206z"/>
			</g>
			<g>
				<polygon fill="#DCF2FD" points="21.988,10.625 21.977,10.634 21.988,10.63 				"/>
				<path fill="#53BF8C" d="M30.341,23.206c-0.543-1.217-1.427-2.075-2.295-2.65c-1.77-1.15-3.562-1.474-5.243-1.594
					c-0.274-0.017-0.541-0.015-0.811-0.017l-0.002,1.644c4.106,0.437,7.89,3.519,5.372,6.038C23.816,30.174,18,27.596,18,25.602
					V12.034c-1.536,0-2.946-0.534-4.007-1.405v10.935c-0.119,0.081-0.245,0.16-0.36,0.241c-2.314,1.638-4.14,3.296-5.747,4.082
					c-0.397,0.195-0.771,0.328-1.117,0.397c-0.088,0.023-0.171,0.026-0.255,0.042c0,0-0.063,0.01-0.079,0.013
					c0.138,0.003,0.032,0.001,0.049,0.002l-0.044,0.002l-0.175,0.007c-0.116,0.005-0.23,0.009-0.343,0.014l-0.2-0.01
					c-0.596-0.01-1.128-0.215-1.519-0.466c-0.802-0.534-1.107-1.2-1.094-1.128c-0.069-0.306-0.373-0.497-0.679-0.428
					c-0.039,0.009-0.07,0.031-0.106,0.047c0.352,1.531,1.482,3.028,3.976,3.091c1.926,0.048,4.542-1.576,7.812-3.781
					c0.046,0.702,0.11,1.4,0.199,2.003c0.068,0.825,0.302,1.702,0.66,2.458c0.358,0.743,0.881,1.478,1.588,2.089
					c0.698,0.615,1.586,1.104,2.555,1.369c0.156,0.037,0.314,0.074,0.474,0.112c0.22,0.052,0.365,0.072,0.552,0.107
					c0.353,0.057,0.71,0.1,1.07,0.127c1.441,0.095,2.924,0.004,4.571-0.473c0.824-0.252,1.699-0.584,2.65-1.267
					c0.471-0.347,0.969-0.802,1.399-1.438c0.054-0.075,0.105-0.165,0.155-0.249l0.074-0.129l0.036-0.065l0.07-0.134l0.099-0.229
					c0.104-0.237,0.267-0.648,0.329-0.904C30.94,25.911,30.901,24.414,30.341,23.206z"/>
			</g>
		</g>
		<path fill="#3AA176" d="M24.641,16.429l-2.152-0.717v-0.516c0-0.276-0.224-0.5-0.5-0.5l-0.877,0.175
			c-1.361,0.272-1.731,0.408-3.112,0.408v7.911c1.333,0,2.995-0.31,3.989-0.495c0.271-0.051,0.5-0.224,0.5-0.5v-0.322l2.152-0.717
			c0.204-0.068,0.342-0.259,0.342-0.474v-3.779C24.983,16.688,24.845,16.497,24.641,16.429z"/>
		<path fill="#46B080" d="M18,15.283c-1.381,0-1.78-0.136-3.14-0.408l-0.877-0.175c-0.276,0-0.5,0.224-0.5,0.5v0.51l-2.158,0.719
			c-0.204,0.068-0.342,0.259-0.342,0.474v3.779c0,0.215,0.138,0.406,0.342,0.474l2.158,0.719v0.323c0,0.276,0.228,0.45,0.5,0.5
			c0.988,0.182,2.684,0.493,4.017,0.493V15.283z"/>
		<path fill="#3AA176" d="M2.5,13.041l-2.446,6.003c-0.046,0.113-0.049,0.238-0.009,0.353l1.957,5.614c0,0,0.146-0.61,0.322-0.667
			c0.211-0.069,0.784,0.416,0.784,0.416l2.215-5.479c0.049-0.12,0.049-0.254,0-0.374l-2.361-5.865
			C2.879,12.834,2.585,12.833,2.5,13.041z"/>
		<path fill="#46B080" d="M2.963,13.042c-0.051-0.128-0.18-0.168-0.292-0.139L2.352,24.349c0.226-0.032,0.756,0.412,0.756,0.412
			l2.215-5.479c0.049-0.12,0.049-0.254,0-0.374L2.963,13.042z"/>
		<path fill="#60CD96" d="M31.938,0.677l-0.002-0.006c-0.161-0.507-0.702-0.787-1.209-0.626l-8.906,1.431C21.687,1.042,20,0,18,0
			s-3.604,1.021-3.856,1.476L5.239,0.045C4.732-0.115,4.191,0.165,4.03,0.671L4.028,0.677c-0.131,0.414,0.027,0.869,0.395,1.1
			C6.125,2.844,8.125,3.969,10,5l1.273,4.099c0.107,0.324,0.243,0.634,0.394,0.935c-0.515,0.492-2.228,2.127-2.893,2.774
			c-0.185,0.18-0.299,0.415-0.17,0.638l0.193,0.333c0.129,0.223,0.415,0.299,0.638,0.17l3.555-2.062
			c0.002-0.001,0.003-0.003,0.005-0.005c0.786,0.779,1.754,1.372,2.84,1.711l1.552,0.485c0.388,0.121,0.804,0.121,1.192,0
			l1.552-0.485c2.157-0.673,3.855-2.346,4.562-4.492L26,5c1.689-0.921,3.756-2.184,5.543-3.224
			C31.918,1.558,32.069,1.091,31.938,0.677z"/>
		<path fill="#53BF8C" d="M31.938,0.677l-0.002-0.006c-0.161-0.507-0.702-0.787-1.209-0.626l-8.906,1.431C21.6,0.965,20,0,18,0
			v14.167c0.201,0,0.385-0.03,0.579-0.091l1.552-0.485c1.093-0.341,2.067-0.941,2.855-1.727C22.995,11.87,23,11.88,23.01,11.885
			l3.555,2.062c0.223,0.129,0.508,0.053,0.638-0.17l0.193-0.333c0.129-0.223,0.015-0.458-0.169-0.638
			c-0.673-0.654-2.424-2.327-2.915-2.795c0.146-0.294,0.278-0.597,0.382-0.913L26,5c1.689-0.971,3.575-2.053,5.543-3.224
			C31.916,1.555,32.069,1.091,31.938,0.677z"/>
		<g>
			<g>
				<path fill="#FFCF6E" d="M20.693,8.033l2.133-4.265c0.092-0.184,0.355-0.184,0.447,0l0.17,0.341c0.381,0.763,0.381,1.661,0,2.424
					v0c-0.256,0.512-0.668,0.93-1.176,1.194l-1.235,0.641C20.817,8.478,20.585,8.249,20.693,8.033z"/>
				<path fill="#FFCF6E" d="M22.677,6.511c0-0.246-0.002-1.059-0.357-1.233l-0.637,1.273c0.018,0.279,0.229,0.71,0.493,0.71
					C22.453,7.261,22.677,6.787,22.677,6.511z"/>
			</g>
			<g>
				<path fill="#2B3332" d="M20.693,8.033l2.133-4.265c0.092-0.184,0.355-0.184,0.447,0l0.17,0.341c0.381,0.763,0.381,1.661,0,2.424
					v0c-0.256,0.512-0.668,0.93-1.176,1.194l-1.235,0.641C20.817,8.478,20.585,8.249,20.693,8.033z"/>
				<path fill="#2B3332" d="M22.677,6.511c0-0.246-0.002-1.059-0.357-1.233l-0.637,1.273c0.018,0.279,0.229,0.71,0.493,0.71
					C22.453,7.261,22.677,6.787,22.677,6.511z"/>
			</g>
		</g>
		<path fill="#F297BE" d="M18,11.149v1.919c0.51,0,1.003-0.082,1.49-0.246c0.822-0.277,1.481-0.643,2.113-0.984
			c1.084-0.586,2.282-1.978,2.145-2.43c-0.126-0.413-2.093,0.362-4.33,0.645C18.946,10.111,18.48,11.149,18,11.149z"/>
		<path fill="#F7F7F7" d="M20.986,9.781l0.449,1.216c0.085,0.231,0.412,0.231,0.498,0l0.575-1.558
			C22.077,9.534,21.56,9.66,20.986,9.781z"/>
		<path fill="#F8A1C4" d="M18,11.149v1.919c-0.51,0-1.038-0.082-1.524-0.246c-0.822-0.277-1.481-0.643-2.113-0.984
			c-1.084-0.586-2.282-1.978-2.145-2.43c0.126-0.413,2.093,0.362,4.33,0.645C17.019,10.111,17.52,11.149,18,11.149z"/>
		<path fill="#FFFFFF" d="M14.979,9.781l-0.449,1.216c-0.085,0.231-0.412,0.231-0.498,0l-0.575-1.558
			C13.889,9.534,14.406,9.66,14.979,9.781z"/>
		<g>
			<g>
				<path fill="#373F3F" d="M15.273,8.033L13.14,3.767c-0.092-0.184-0.355-0.184-0.447,0l-0.17,0.341
					c-0.381,0.763-0.381,1.661,0,2.424l0,0c0.256,0.512,0.668,0.93,1.176,1.194l1.235,0.641C15.149,8.478,15.381,8.249,15.273,8.033
					z"/>
			</g>
			<g>
				<path fill="#373F3F" d="M15.273,8.033L13.14,3.767c-0.092-0.184-0.355-0.184-0.447,0l-0.17,0.341
					c-0.381,0.763-0.381,1.661,0,2.424l0,0c0.256,0.512,0.668,0.93,1.176,1.194l1.235,0.641C15.149,8.478,15.381,8.249,15.273,8.033
					z"/>
			</g>
		</g>
		<path fill="#2B3332" d="M20.693,8.033l2.133-4.265c0.092-0.184,0.355-0.184,0.447,0l0.17,0.341c0.381,0.763,0.381,1.661,0,2.424v0
			c-0.256,0.512-0.668,0.93-1.176,1.194l-1.235,0.641C20.817,8.478,20.585,8.249,20.693,8.033z"/>
		<g>
			<g>
				<path fill="#373F3F" d="M15.273,8.033L13.14,3.767c-0.092-0.184-0.355-0.184-0.447,0l-0.17,0.341
					c-0.381,0.763-0.381,1.661,0,2.424l0,0c0.256,0.512,0.668,0.93,1.176,1.194l1.235,0.641C15.149,8.478,15.381,8.249,15.273,8.033
					z"/>
			</g>
			<g>
				<path fill="#373F3F" d="M15.273,8.033L13.14,3.767c-0.092-0.184-0.355-0.184-0.447,0l-0.17,0.341
					c-0.381,0.763-0.381,1.661,0,2.424l0,0c0.256,0.512,0.668,0.93,1.176,1.194l1.235,0.641C15.149,8.478,15.381,8.249,15.273,8.033
					z"/>
			</g>
		</g>
		<path fill="#FFE28A" d="M13.375,4.238C13.152,4.422,13,4.689,13,5v2c0,0.09,0,0.194,0.053,0.261
			c0.191,0.187,0.406,0.341,0.646,0.465l0.465,0.241c0.353-0.061,0.644-0.292,0.766-0.62L13.375,4.238z"/>
		<path fill="#373F3F" d="M13.783,5.054C13.617,5.135,13.5,5.302,13.5,5.5v1C13.5,6.776,13.724,7,14,7s0.5-0.224,0.5-0.5V6.487
			L13.783,5.054z"/>
		<path fill="#FFD96C" d="M23,5c0-0.322-0.163-0.596-0.401-0.779L21.06,7.298c0.11,0.343,0.393,0.593,0.752,0.664l0.455-0.236
			c0.257-0.133,0.486-0.304,0.686-0.508C22.994,7.151,23,7.076,23,7V5z"/>
		<path fill="#2B3332" d="M22.5,6.5v-1c0-0.209-0.128-0.387-0.31-0.462l-0.69,1.38V6.5C21.5,6.776,21.724,7,22,7
			S22.5,6.776,22.5,6.5z"/>
		<path fill="#FFD96C" d="M20.938,0.724c-0.275-0.15-0.593-0.283-0.962-0.406C19.862,1.793,19.009,3,18,3v1
			C19.465,4,20.675,2.575,20.938,0.724z"/>
		<path fill="#FFE28A" d="M18,4V3c-1.009,0-1.865-1.195-1.98-2.67c-0.368,0.124-0.691,0.266-0.967,0.417C15.318,2.595,16.536,4,18,4
			z"/>
	</g>
</g>
</svg>
