<?xml version="1.0" encoding="utf-8"?>
<!-- Generator: Adobe Illustrator 23.0.6, SVG Export Plug-In . SVG Version: 6.00 Build 0)  -->
<svg version="1.1" xmlns="http://www.w3.org/2000/svg" xmlns:xlink="http://www.w3.org/1999/xlink" x="0px" y="0px" width="32px"
	 height="32px" viewBox="0 0 32 32" enable-background="new 0 0 32 32" xml:space="preserve">
<g id="labels">
</g>
<g id="icons">
	<g>
		<path fill="#56C7CD" d="M16,17C7,17,5,23.686,5,27c0,1.469,0.44,2.783,1.133,3.663C6.311,30.888,6.597,31,6.883,31h3.684
			c0.632-0.629,1.103-1.587,1.312-2.709C13.153,28.134,14.542,28,16,28V17z"/>
		<g>
			<path fill="#434C4B" d="M5,27c0-4,6-4,6-8l-2-2C9,17,2,20,5,27z"/>
			<path fill="#B1E346" d="M5.882,21.882c0.214,0.214,0.195,0.573-0.05,0.751c-0.615,0.447-1.174,0.932-1.557,1.534
				c-0.092-1.272,0.177-2.355,0.619-3.273L5.882,21.882z M8.828,17.081c-0.441,0.217-1.652,0.876-2.716,2.031l1.626,1.626
				c0.192,0.192,0.5,0.193,0.7,0.01c0.763-0.698,1.31-1.54,1.31-2.747L8.828,17.081z"/>
		</g>
		<path fill="#CBEB6B" d="M10.146,28.646l-1.293-1.293c-0.195-0.195-0.512-0.195-0.707,0l-1.293,1.293
			c-0.195,0.195-0.512,0.195-0.707,0l-1.124-1.124c0.091,1.255,0.502,2.366,1.111,3.14C6.311,30.888,6.597,31,6.884,31h3.683
			c0.772-0.769,1.305-2.026,1.41-3.478l-1.124,1.124C10.658,28.842,10.342,28.842,10.146,28.646z"/>
		<path fill="#51BAC5" d="M27,27c0,1.469-0.44,2.783-1.133,3.663C25.689,30.888,25.403,31,25.117,31h-3.684
			c-0.632-0.629-1.103-1.587-1.312-2.709C18.847,28.134,17.458,28,16,28V17C25,17,27,23.686,27,27z"/>
		<path fill="#BEE758" d="M25.146,28.646l-1.293-1.293c-0.195-0.195-0.512-0.195-0.707,0l-1.293,1.293
			c-0.195,0.195-0.512,0.195-0.707,0l-1.124-1.124c0.105,1.451,0.639,2.709,1.41,3.478h3.683c0.287,0,0.574-0.112,0.751-0.338
			c0.609-0.774,1.02-1.885,1.111-3.14l-1.124,1.124C25.658,28.842,25.342,28.842,25.146,28.646z"/>
		<g>
			<path fill="#373F3F" d="M27,27c0-4-6-4-6-8l2-2C23,17,30,20,27,27z"/>
			<path fill="#AADB3D" d="M27.106,20.894c0.442,0.917,0.711,2.001,0.619,3.273c-0.383-0.602-0.942-1.087-1.557-1.534
				c-0.245-0.178-0.263-0.537-0.05-0.751L27.106,20.894z M22.253,18c0,1.207,0.547,2.049,1.31,2.747c0.2,0.183,0.508,0.182,0.7-0.01
				l1.626-1.626c-1.065-1.155-2.275-1.814-2.716-2.031L22.253,18z"/>
		</g>
		<path fill="#7CD8D5" d="M11.502,24H11.45c-1.603,0-3.022,1.099-3.324,2.663C8.044,27.087,8,27.536,8,28
			c0,1.469,0.44,2.783,1.133,3.663C9.311,31.888,9.597,32,9.883,32h3.233c0.287,0,0.573-0.112,0.75-0.337
			C14.56,30.783,15,29.469,15,28c0-0.443-0.04-0.873-0.115-1.28C14.59,25.121,13.128,24,11.502,24z"/>
		<path fill="#D9F07D" d="M13.146,29.646l-1.293-1.293c-0.195-0.195-0.512-0.195-0.707,0l-1.293,1.293
			c-0.195,0.195-0.512,0.195-0.707,0l-1.124-1.124c0.091,1.255,0.502,2.366,1.111,3.14C9.311,31.888,9.597,32,9.884,32h3.231
			c0.287,0,0.574-0.112,0.751-0.338c0.609-0.774,1.02-1.885,1.111-3.14l-1.124,1.124C13.658,29.842,13.342,29.842,13.146,29.646z"/>
		<path fill="#66D3D3" d="M20.502,24H20.45c-1.603,0-3.022,1.099-3.324,2.663C17.044,27.087,17,27.536,17,28
			c0,1.469,0.44,2.783,1.133,3.663C18.311,31.888,18.597,32,18.883,32h3.233c0.287,0,0.573-0.112,0.75-0.337
			C23.56,30.783,24,29.469,24,28c0-0.443-0.04-0.873-0.115-1.28C23.59,25.121,22.128,24,20.502,24z"/>
		<path fill="#CBEB6B" d="M22.146,29.646l-1.293-1.293c-0.195-0.195-0.512-0.195-0.707,0l-1.293,1.293
			c-0.195,0.195-0.512,0.195-0.707,0l-1.124-1.124c0.091,1.255,0.502,2.366,1.111,3.14C18.311,31.888,18.597,32,18.884,32h3.231
			c0.287,0,0.574-0.112,0.751-0.338c0.609-0.774,1.02-1.885,1.111-3.14l-1.124,1.124C22.658,29.842,22.342,29.842,22.146,29.646z"/>
		
			<ellipse transform="matrix(0.7071 -0.7071 0.7071 0.7071 2.1995 10.2727)" fill="#3A9B46" cx="13.5" cy="2.481" rx="1.071" ry="3.344"/>
		
			<ellipse transform="matrix(0.7071 -0.7071 0.7071 0.7071 3.664 13.8082)" fill="#2F963C" cx="18.5" cy="2.481" rx="3.344" ry="1.071"/>
		<path fill="#D9F07D" d="M9.406,13.355C9.154,13.106,8.842,13,8.5,13C7.672,13,7,13.567,7,15.5c0,2.525,4.029,5.5,9,5.5v-8
			C13.392,13,11.05,12.997,9.406,13.355z"/>
		<path fill="#7CD8D5" d="M8,13c0,0.032,0.003,0.059,0.004,0.091C8.16,13.033,8.325,13,8.5,13c0.828,0,1.5,0.567,1.5,2.5
			c0,0.39-0.034,0.712-0.084,0.997c0.909,0.388,2.092,0.488,3.44,0.508c0.624,0.916,1.908,1.628,2.423,1.888
			c0.07,0.035,0.146,0.053,0.221,0.053V5C14,5,8,8.582,8,13z"/>
		<path fill="#CBEB6B" d="M23.5,13c-0.342,0-0.654,0.106-0.906,0.355C20.95,12.997,18.608,13,16,13v8c4.971,0,9-2.975,9-5.5
			C25,13.567,24.328,13,23.5,13z"/>
		<path fill="#66D3D3" d="M22,15.5c0-1.933,0.672-2.5,1.5-2.5c0.175,0,0.34,0.033,0.496,0.091C23.997,13.059,24,13.032,24,13
			c0-4.418-6-8-8-8v13.946c0.076,0,0.152-0.018,0.221-0.053c0.515-0.26,1.799-0.972,2.423-1.888c1.348-0.019,2.53-0.119,3.44-0.508
			C22.034,16.212,22,15.89,22,15.5z"/>
		<ellipse fill="#E6F490" cx="13" cy="13" rx="2" ry="3"/>
		<ellipse fill="#373F3F" cx="13" cy="13" rx="1" ry="2"/>
		<ellipse fill="#D9F07D" cx="19" cy="13" rx="2" ry="3"/>
		<ellipse fill="#2B3332" cx="19" cy="13" rx="1" ry="2"/>
		<circle fill="#FFFFFF" cx="13" cy="12" r="0.5"/>
		<circle fill="#F7F7F7" cx="19" cy="12" r="0.5"/>
		<path fill="#845331" d="M16,0h-0.002c-0.283,0-0.519,0.214-0.547,0.495L15.056,4.44c-0.036,0.362-0.197,0.701-0.454,0.958l0,0
			C14.38,5.62,14.537,6,14.851,6h0.003c0.093,0,0.183,0.037,0.249,0.103l0.647,0.648C15.82,6.82,15.91,6.854,16,6.854V0z"/>
		<path fill="#724D31" d="M17.398,5.398c-0.258-0.258-0.418-0.596-0.454-0.958l-0.394-3.944C16.521,0.214,16.285,0,16.002,0H16
			v6.854c0.09,0,0.18-0.034,0.249-0.103l0.647-0.648C16.963,6.037,17.053,6,17.146,6h0.003C17.463,6,17.62,5.62,17.398,5.398
			L17.398,5.398z"/>
	</g>
</g>
</svg>
