<?xml version="1.0" encoding="utf-8"?>
<!-- Generator: Adobe Illustrator 23.0.6, SVG Export Plug-In . SVG Version: 6.00 Build 0)  -->
<svg version="1.1" xmlns="http://www.w3.org/2000/svg" xmlns:xlink="http://www.w3.org/1999/xlink" x="0px" y="0px" width="32px"
	 height="32px" viewBox="0 0 32 32" enable-background="new 0 0 32 32" xml:space="preserve">
<g id="labels">
</g>
<g id="icons">
	<g>
		<g>
			<path fill="#6D6666" d="M26,18c0,0,4,2,4,6s-4,5-6,3L26,18z"/>
			<path fill="#5A5353" d="M25.077,22.154l0.811,1.623c0.062,0.123,0.212,0.174,0.335,0.112l1.553-0.776
				c0.123-0.062,0.274-0.012,0.335,0.112l0.776,1.553c0.062,0.123,0.212,0.174,0.335,0.112l0.744-0.372
				C29.634,28.077,25.91,28.91,24,27L25.077,22.154z"/>
		</g>
		<g>
			<path fill="#746E6E" d="M6,18c0,0-4,2-4,6s4,5,6,3L6,18z"/>
			<path fill="#635C5C" d="M6.923,22.154l-0.811,1.623C6.05,23.9,5.9,23.95,5.776,23.888l-1.553-0.776
				C4.1,23.05,3.95,23.1,3.888,23.224l-0.776,1.553C3.05,24.9,2.9,24.95,2.776,24.888l-0.744-0.372C2.366,28.077,6.09,28.91,8,27
				L6.923,22.154z"/>
		</g>
		<path fill="#746E6E" d="M27,21.724C27,16.544,22.683,14,16,14v16C22.683,30,27,26.904,27,21.724z"/>
		<path fill="#807A7A" d="M16,14c-6.683,0-11,2.544-11,7.724S9.317,30,16,30V14z"/>
		<path fill="#F79654" d="M10,32L10,32c-0.552,0-1-0.448-1-1v-2c0-0.552,0.448-1,1-1l0,0c0.552,0,1,0.448,1,1v2
			C11,31.552,10.552,32,10,32z"/>
		<path fill="#EF8C48" d="M12,32L12,32c-0.552,0-1-0.448-1-1v-2c0-0.552,0.448-1,1-1l0,0c0.552,0,1,0.448,1,1v2
			C13,31.552,12.552,32,12,32z"/>
		<path fill="#F79654" d="M14,32L14,32c-0.552,0-1-0.448-1-1v-2c0-0.552,0.448-1,1-1l0,0c0.552,0,1,0.448,1,1v2
			C15,31.552,14.552,32,14,32z"/>
		<path fill="#EF8C48" d="M18,32L18,32c-0.552,0-1-0.448-1-1v-2c0-0.552,0.448-1,1-1l0,0c0.552,0,1,0.448,1,1v2
			C19,31.552,18.552,32,18,32z"/>
		<path fill="#E8803A" d="M20,32L20,32c-0.552,0-1-0.448-1-1v-2c0-0.552,0.448-1,1-1l0,0c0.552,0,1,0.448,1,1v2
			C21,31.552,20.552,32,20,32z"/>
		<path fill="#EF8C48" d="M22,32L22,32c-0.552,0-1-0.448-1-1v-2c0-0.552,0.448-1,1-1l0,0c0.552,0,1,0.448,1,1v2
			C23,31.552,22.552,32,22,32z"/>
		<path fill="#D1D4D4" d="M20,21.5c0-2.209-1.791-3.5-4-3.5v7C18.209,25,20,23.709,20,21.5z"/>
		<path fill="#DADDDC" d="M16,18c-2.209,0-4,1.291-4,3.5c0,2.209,1.791,3.5,4,3.5V18z"/>
		<path fill="#635C5C" d="M15.584,0.223L14.85,1.324c-0.323,0.484-0.843,0.786-1.418,0.875C8.27,2.992,5,6.229,5,11
			c0,2.188,0.695,3.733,1.936,4.811l-0.562,0.375c-0.412,0.274-0.217,0.916,0.277,0.916h1.04c0.189,0,0.363,0.107,0.447,0.276
			l0.656,1.312c0.116,0.233,0.391,0.337,0.633,0.241l1.767-0.707c0.186-0.074,0.398-0.031,0.539,0.111l1.491,1.491
			c0.162,0.162,0.414,0.193,0.611,0.075l1.908-1.145c0.079-0.047,0.168-0.071,0.257-0.071V18v-1.906V0
			C15.841,0,15.683,0.074,15.584,0.223z"/>
		<path fill="#504B48" d="M25.626,16.185l-0.562-0.375C26.305,14.733,27,13.188,27,11c0-4.771-3.27-8.008-8.432-8.801
			c-0.575-0.088-1.095-0.391-1.418-0.875l-0.734-1.101C16.317,0.074,16.159,0,16,0v16.094V18v0.684c0.089,0,0.178,0.024,0.257,0.071
			l1.908,1.145c0.197,0.118,0.449,0.087,0.611-0.075l1.491-1.491c0.141-0.141,0.354-0.185,0.539-0.111l1.767,0.707
			c0.241,0.097,0.517-0.008,0.633-0.241l0.656-1.312c0.085-0.169,0.258-0.276,0.447-0.276h1.04
			C25.843,17.101,26.038,16.46,25.626,16.185z"/>
		<path fill="#D1D4D4" d="M26,11.5C26,9.015,23.761,7,21,7c-0.406,0-0.796,0.056-1.174,0.138C19.665,4.825,18.024,3,16,3v14
			C24,17,26,13.985,26,11.5z"/>
		<path fill="#DADDDC" d="M16,3c-2.024,0-3.665,1.825-3.826,4.138C11.796,7.056,11.406,7,11,7c-2.761,0-5,2.015-5,4.5S8,17,16,17V3z
			"/>
		<path fill="#EF8C48" d="M16,12c-1.105,0-2,0.895-2,2c0,1.105,0.895,6,2,6V12z"/>
		<path fill="#E8803A" d="M18,14c0-1.105-0.895-2-2-2v8C17.105,20,18,15.105,18,14z"/>
		<ellipse fill="#2B3332" cx="21" cy="11.5" rx="2" ry="2.5"/>
		<ellipse fill="#F7F7F7" cx="21" cy="11.5" rx="1" ry="1.5"/>
		<ellipse fill="#373F3F" cx="11" cy="11.5" rx="2" ry="2.5"/>
		<ellipse fill="#FFFFFF" cx="11" cy="11.5" rx="1" ry="1.5"/>
		<path fill="#746E6E" d="M16,14.5c-1,0-1.849,0.863-1.849,0.863C14.451,17.205,15.165,20,16,20V14.5z"/>
		<path fill="#6D6666" d="M17.849,15.363c0,0-0.85-0.863-1.849-0.863V20C16.835,20,17.549,17.205,17.849,15.363z"/>
	</g>
</g>
</svg>
