<?xml version="1.0" encoding="utf-8"?>
<!-- Generator: Adobe Illustrator 23.0.6, SVG Export Plug-In . SVG Version: 6.00 Build 0)  -->
<svg version="1.1" xmlns="http://www.w3.org/2000/svg" xmlns:xlink="http://www.w3.org/1999/xlink" x="0px" y="0px" width="32px"
	 height="32px" viewBox="0 0 32 32" enable-background="new 0 0 32 32" xml:space="preserve">
<g id="labels">
</g>
<g id="icons">
	<g>
		<path fill="#F7C845" d="M12,26v5H9.414c-0.265,0-0.52,0.105-0.707,0.293l-0.28,0.28C8.269,31.731,8.381,32,8.604,32h5.793
			c0.223,0,0.334-0.269,0.177-0.427l-0.28-0.28C14.105,31.105,13.851,31,13.586,31H13l1-5H12z"/>
		<path fill="#F0C13E" d="M20,26v5h2.586c0.265,0,0.52,0.105,0.707,0.293l0.28,0.28C23.731,31.731,23.619,32,23.396,32h-5.793
			c-0.223,0-0.334-0.269-0.177-0.427l0.28-0.28C17.895,31.105,18.149,31,18.414,31H19l-1-5H20z"/>
		<path fill="#845331" d="M10,31H9.414c-0.265,0-0.52,0.105-0.707,0.293l-0.28,0.28C8.269,31.731,8.381,32,8.604,32h1.419L10,31z"/>
		<path fill="#724D31" d="M22,31h0.586c0.265,0,0.52,0.105,0.707,0.293l0.28,0.28C23.731,31.731,23.619,32,23.396,32h-1.419L22,31z"
			/>
		<path fill="#C09265" d="M5,21.5l-1.409,0.352c-0.316,0.079-0.47,0.431-0.32,0.72C3.954,23.885,5.948,27,9.5,27
			c2.485,0,4.5-2.462,4.5-5.5S11.985,16,9.5,16S5,18.462,5,21.5z"/>
		<path fill="#724D31" d="M5,21.5c0-0.629,0.091-1.231,0.25-1.794C5.985,22.188,8.279,24,11,24c0.987,0,1.917-0.243,2.738-0.665
			C13.119,25.469,11.458,27,9.5,27c-3.552,0-5.546-3.115-6.229-4.428c-0.15-0.289,0.005-0.641,0.32-0.72L5,21.5z"/>
		<path fill="#B38658" d="M27,21.5l1.409,0.352c0.316,0.079,0.47,0.431,0.32,0.72C28.046,23.885,26.052,27,22.5,27
			c-2.485,0-4.5-2.462-4.5-5.5s2.015-5.5,4.5-5.5S27,18.462,27,21.5z"/>
		<path fill="#604631" d="M27,21.5c0-0.629-0.091-1.231-0.25-1.794C26.015,22.188,23.721,24,21,24c-0.987,0-1.917-0.243-2.738-0.665
			C18.881,25.469,20.542,27,22.5,27c3.552,0,5.546-3.115,6.229-4.428c0.15-0.289-0.005-0.641-0.32-0.72L27,21.5z"/>
		<path fill="#CDA073" d="M16,12c-4.971,0-7.962,7.717-7.962,7.717C8,26,11.029,28,16,28V12z"/>
		<path fill="#C09265" d="M23.962,19.717c0,0-2.992-7.717-7.962-7.717v16C20.971,28,24,26,23.962,19.717z"/>
		<path fill="#EDEEEE" d="M16,14c-2.761,0-4,2.239-4,5s2,5,4,5V14z"/>
		<path fill="#E3E5E5" d="M20,19c0-2.761-1.239-5-4-5v10C18,24,20,21.761,20,19z"/>
		<path fill="#845331" d="M15.948,5l0.001,0.002c-3.412,0.024-6.29,2.555-6.742,5.942l-1.17,8.772C8.018,19.867,8.134,20,8.286,20
			H8.75C8.888,20,9,20.112,9,20.25v2.059c0,0.234,0.292,0.34,0.442,0.16l4.344-5.212c0.107-0.128,0.307-0.118,0.4,0.021l1.606,2.409
			c0.049,0.074,0.129,0.111,0.208,0.111V4.995C15.982,4.996,15.967,5,15.948,5z"/>
		<path fill="#724D31" d="M22.793,10.945c-0.241-1.805-1.175-3.363-2.507-4.432C21.571,3.721,20.596,0,16.948,0
			c-2.038,0-2.727,1.301-2.943,2.419c-0.048,0.247,0.271,0.407,0.432,0.214C14.729,2.281,15.198,2,15.948,2
			C17.93,2,17.945,4.941,16,4.995v14.804c0.079,0,0.159-0.037,0.208-0.111l1.606-2.409c0.093-0.139,0.293-0.15,0.4-0.021
			l4.344,5.212c0.15,0.18,0.442,0.074,0.442-0.16V20.25c0-0.138,0.112-0.25,0.25-0.25h0.464c0.151,0,0.268-0.133,0.248-0.283
			L22.793,10.945z"/>
		<path fill="#F7F7F7" d="M16,10c-2.151,0-4.302-0.514-5.347-0.805c-0.223-0.062-0.397,0.188-0.269,0.381l1.548,2.323
			c0.043,0.064,0.054,0.145,0.029,0.218l-0.803,2.41c-0.065,0.195,0.121,0.381,0.316,0.316l2.344-0.781
			c0.107-0.036,0.225,0.005,0.287,0.099l1.686,2.529c0.049,0.074,0.129,0.111,0.208,0.111V10z"/>
		<path fill="#EDEEEE" d="M16.208,16.688l1.686-2.529c0.062-0.094,0.18-0.134,0.287-0.099l2.344,0.781
			c0.195,0.065,0.381-0.121,0.316-0.316l-0.803-2.41c-0.024-0.073-0.014-0.154,0.029-0.218l1.548-2.323
			c0.129-0.193-0.045-0.443-0.269-0.381C20.302,9.486,18.151,10,16,10v6.799C16.079,16.799,16.159,16.762,16.208,16.688z"/>
		<path fill="#373F3F" d="M13,10.5c0,0.828,0.172,1.5,1,1.5s1-0.672,1-1.5c0-0.19-0.011-0.371-0.035-0.538
			c-0.657-0.045-1.294-0.128-1.884-0.227C13.023,9.959,13,10.219,13,10.5z"/>
		<path fill="#2B3332" d="M19,10.5c0-0.281-0.023-0.541-0.081-0.766c-0.59,0.099-1.227,0.182-1.884,0.227
			C17.011,10.129,17,10.31,17,10.5c0,0.828,0.172,1.5,1,1.5S19,11.328,19,10.5z"/>
		<circle fill="#F7F7F7" cx="18" cy="10.5" r="0.5"/>
		<circle fill="#FFFFFF" cx="14" cy="10.5" r="0.5"/>
		<path fill="#C09265" d="M18.5,8c0-1.105-1.119-2-2.5-2v4C17.381,10,18.5,9.105,18.5,8z"/>
		<path fill="#CDA073" d="M16,6c-1.381,0-2.5,0.895-2.5,2c0,1.105,1.119,2,2.5,2V6z"/>
		<path fill="#FFD04D" d="M16,12.206c-0.545,0-1.09,0.067-1.622,0.2h0c-0.177,0.044-0.248,0.256-0.135,0.399l1.561,1.952
			c0.05,0.062,0.123,0.094,0.195,0.094V12.206z"/>
		<path fill="#F7C845" d="M16.195,14.756l1.561-1.952c0.114-0.142,0.042-0.355-0.135-0.399h0c-0.532-0.133-1.077-0.2-1.622-0.2
			v2.644C16.073,14.85,16.145,14.818,16.195,14.756z"/>
	</g>
</g>
</svg>
