<?xml version="1.0" encoding="utf-8"?>
<!-- Generator: Adobe Illustrator 23.0.6, SVG Export Plug-In . SVG Version: 6.00 Build 0)  -->
<svg version="1.1" xmlns="http://www.w3.org/2000/svg" xmlns:xlink="http://www.w3.org/1999/xlink" x="0px" y="0px" width="32px"
	 height="32px" viewBox="0 0 32 32" enable-background="new 0 0 32 32" xml:space="preserve">
<g id="labels">
</g>
<g id="icons">
	<g>
		<g>
			<path fill="#472236" d="M18,21v-3c0-3.866,3.134-7,7-7h0c3.866,0,7,3.134,7,7v3v0c0,4.971-4.029,9-9,9h-7l2-2V21z"/>
			<path fill="#FFE28A" d="M18,18c2,0,3,2,3,2s1-3,4-3s4,3,4,3s1-2,3-2v2c-1.217,0-2.064,0.741-2.54,1.321
				c-0.22,0.267-0.637,0.238-0.809-0.062C28.142,20.37,27.028,19,25,19s-3.142,1.37-3.651,2.259c-0.172,0.3-0.589,0.329-0.809,0.062
				C20.064,20.741,19.217,20,18,20V18z"/>
		</g>
		<path fill="#DEA32F" d="M16,11c-5.247,0-9.5,6.545-9.5,12.667S10.753,30,16,30V11z"/>
		<path fill="#D8992B" d="M25.5,23.667C25.5,17.545,21.247,11,16,11v19C21.247,30,25.5,29.788,25.5,23.667z"/>
		<path fill="#5D374C" d="M14,28.5c0-0.828-0.672-1.5-1.5-1.5c-0.198,0-0.385,0.04-0.558,0.11C11.77,26.472,11.193,26,10.5,26
			s-1.27,0.472-1.442,1.11C8.885,27.04,8.698,27,8.5,27C7.672,27,7,27.672,7,28.5c0,0.668,0.439,1.227,1.042,1.421
			C8.244,31.1,9.264,32,10.5,32s2.256-0.9,2.458-2.079C13.561,29.727,14,29.168,14,28.5z"/>
		<path fill="#E6AB37" d="M9.217,15.137C9.07,15.756,9,16.419,9,17c0,1.657,0.527,4,2,4s2-2.343,2-4
			c0-1.612-0.506-3.856-1.889-3.977C10.418,13.627,9.78,14.336,9.217,15.137z"/>
		<path fill="#DEA32F" d="M20.889,13.023C19.506,13.144,19,15.388,19,17c0,1.657,0.527,4,2,4s2-2.343,2-4
			c0-0.581-0.07-1.244-0.217-1.863C22.22,14.336,21.582,13.627,20.889,13.023z"/>
		<circle fill="#FFEAA7" cx="10.5" cy="29.5" r="1.5"/>
		<path fill="#532F42" d="M25,28.5c0-0.828-0.672-1.5-1.5-1.5c-0.198,0-0.385,0.04-0.558,0.11C22.77,26.472,22.193,26,21.5,26
			s-1.27,0.472-1.442,1.11C19.885,27.04,19.698,27,19.5,27c-0.828,0-1.5,0.672-1.5,1.5c0,0.668,0.439,1.227,1.042,1.421
			C19.244,31.1,20.264,32,21.5,32s2.256-0.9,2.458-2.079C24.561,29.727,25,29.168,25,28.5z"/>
		<circle fill="#FFE28A" cx="21.5" cy="29.5" r="1.5"/>
		<path fill="#FFEAA7" d="M16,13c-0.693,0-1.289,0.144-1.8,0.409C13.865,13.156,13.453,13,13,13c-1.105,0-2,0.895-2,2
			c0,1.105,0.895,2,2,2c0,1.107-0.244,2.506-0.839,3.322C12.574,22.696,13.851,24,16,24V13z"/>
		<path fill="#FFE28A" d="M19.839,20.322C19.244,19.506,19,18.107,19,17c1.105,0,2-0.895,2-2c0-1.105-0.895-2-2-2
			c-0.453,0-0.865,0.156-1.2,0.409C17.289,13.144,16.693,13,16,13v11C18.149,24,19.426,22.696,19.839,20.322z"/>
		<path fill="#DEA32F" d="M22.13,12.691C22.412,13.454,23.139,14,24,14c1.105,0,2-0.895,2-2c0-0.438-0.145-0.839-0.383-1.169
			C25.892,10.936,26.188,11,26.5,11c1.381,0,2.5-1.119,2.5-2.5c0-1.308-1.009-2.37-2.289-2.479C26.89,5.721,27,5.375,27,5
			c0-1.105-0.895-2-2-2c-0.177,0-0.345,0.03-0.508,0.073C22.728,1.096,19.59,0,16,0v14C18.313,14,20.436,13.542,22.13,12.691z"/>
		<path fill="#E6AB37" d="M16,0c-3.59,0-6.728,1.096-8.492,3.073C7.345,3.03,7.177,3,7,3C5.895,3,5,3.895,5,5
			c0,0.375,0.11,0.721,0.289,1.021C4.009,6.13,3,7.192,3,8.5C3,9.881,4.119,11,5.5,11c0.312,0,0.608-0.064,0.883-0.169
			C6.145,11.161,6,11.562,6,12c0,1.105,0.895,2,2,2c0.861,0,1.588-0.546,1.87-1.309C11.564,13.542,13.687,14,16,14V0z"/>
		<path fill="#FEF1C6" d="M16,1c-1.23,0-2.317,0.567-3.051,1.441c-1.483-2.354-3.275-2.886-4.649-2.093
			C6.866,1.176,6.434,3.114,7.953,5.745s3.413,3.226,4.848,2.397C12.873,8.1,14.437,8.079,16,8.079V1z"/>
		<path fill="#FFEAA7" d="M19.199,8.142c1.435,0.828,3.329,0.233,4.848-2.397s1.087-4.569-0.348-5.397
			c-1.374-0.793-3.165-0.261-4.649,2.093C18.317,1.567,17.23,1,16,1v7.079C17.563,8.079,19.127,8.1,19.199,8.142z"/>
		<ellipse fill="#FFFFFF" cx="12.5" cy="6" rx="1.5" ry="2"/>
		<ellipse fill="#F7F7F7" cx="18.5" cy="6" rx="1.5" ry="2"/>
		<path fill="#532F42" d="M21,9.5C21,7.75,19.314,6,16,6v7C19.314,13,21,11.25,21,9.5z"/>
		<path fill="#5D374C" d="M16,6c-3.314,0-5,1.75-5,3.5s1.686,3.5,5,3.5V6z"/>
		<g>
			<path fill="#F7F7F7" d="M14.875,11.684c-0.353,0-0.686-0.061-1.005-0.151l0.546,2.571c0.049,0.231,0.253,0.396,0.489,0.396H16v-3
				C15.647,11.612,15.272,11.684,14.875,11.684z"/>
			<path fill="#EDEEEE" d="M17.125,11.684c-0.397,0-0.772-0.072-1.125-0.184v3h1.095c0.236,0,0.44-0.165,0.489-0.396l0.546-2.571
				C17.811,11.622,17.478,11.684,17.125,11.684z"/>
		</g>
		<circle fill="#373F3F" cx="12.5" cy="5" r="0.5"/>
		<circle fill="#2B3332" cx="18.5" cy="5" r="0.5"/>
		<path fill="#F3586F" d="M16,7c-0.552,0-1,0.086-1,0.5c0,0.414,0.448,1,1,1V7z"/>
		<path fill="#E85160" d="M17,7.5C17,7.086,16.552,7,16,7v1.5C16.552,8.5,17,7.914,17,7.5z"/>
		<path fill="#532F42" d="M20.084,20.277l-0.553,0.369c-0.342,0.228-0.586,0.575-0.686,0.974l-0.187,0.747
			C18.578,22.688,18.821,23,19.153,23h0.032c0.193,0,0.37-0.109,0.456-0.282L20,22l0.452,0.752C20.544,22.906,20.71,23,20.889,23
			h0.396c0.193,0,0.37-0.109,0.456-0.282L22.1,22l0.272,0.679C22.449,22.873,22.637,23,22.845,23h0.001
			c0.332,0,0.575-0.312,0.495-0.634l-0.187-0.747c-0.1-0.399-0.344-0.746-0.686-0.974l-0.553-0.369C21.645,20.097,21.326,20,21,20
			l0,0C20.674,20,20.355,20.097,20.084,20.277z"/>
		<path fill="#5D374C" d="M10.084,20.277l-0.553,0.369c-0.342,0.228-0.586,0.575-0.686,0.974l-0.187,0.747
			C8.578,22.688,8.821,23,9.153,23h0.032c0.193,0,0.37-0.109,0.456-0.282L10,22l0.452,0.752C10.544,22.906,10.71,23,10.889,23h0.396
			c0.193,0,0.37-0.109,0.456-0.282L12.1,22l0.272,0.679C12.449,22.873,12.637,23,12.845,23h0.001c0.332,0,0.575-0.312,0.495-0.634
			l-0.187-0.747c-0.1-0.399-0.344-0.746-0.686-0.974l-0.553-0.369C11.645,20.097,11.326,20,11,20h0
			C10.674,20,10.355,20.097,10.084,20.277z"/>
	</g>
</g>
</svg>
