<?xml version="1.0" encoding="utf-8"?>
<!-- Generator: Adobe Illustrator 23.0.6, SVG Export Plug-In . SVG Version: 6.00 Build 0)  -->
<svg version="1.1" xmlns="http://www.w3.org/2000/svg" xmlns:xlink="http://www.w3.org/1999/xlink" x="0px" y="0px" width="32px"
	 height="32px" viewBox="0 0 32 32" enable-background="new 0 0 32 32" xml:space="preserve">
<g id="labels">
</g>
<g id="icons">
	<g>
		<path fill="#EF8C48" d="M30.08,15.493l1.587-0.529c0.198-0.066,0.386,0.122,0.32,0.32l-0.529,1.587
			c-0.017,0.052-0.017,0.108,0,0.16l0.529,1.587c0.066,0.198-0.122,0.386-0.32,0.32l-1.587-0.529c-0.052-0.017-0.108-0.017-0.16,0
			l-1.587,0.529c-0.198,0.066-0.386-0.122-0.32-0.32l0.529-1.587c0.017-0.052,0.017-0.108,0-0.16l-0.529-1.587
			c-0.066-0.198,0.122-0.386,0.32-0.32l1.587,0.529C29.972,15.51,30.028,15.51,30.08,15.493z"/>
		<path fill="#2B3332" d="M30.07,16.456c-0.268-0.039-0.526,0.151-0.565,0.424c-0.314,2.205-1.12,3.791-2.393,4.714
			c-1.384,1.005-2.94,0.928-3.388,0.881C23.589,21.568,23.36,20.719,23,20h-4v12h2.25H23h0.75c0.138,0,0.25-0.112,0.25-0.25V31.5
			c0-0.509-0.256-0.955-0.643-1.226c0.305-1.687,0.656-4.348,0.47-6.786c0.111,0.007,0.235,0.013,0.382,0.013
			c0.837,0,2.203-0.17,3.477-1.088c1.509-1.087,2.454-2.901,2.81-5.392C30.534,16.748,30.344,16.495,30.07,16.456z"/>
		<path fill="#FFD04D" d="M27.5,2c-1.789,0-3.33,1.279-4.055,3.128c-0.661-0.519-1.436-0.952-2.318-1.286
			c0.438-0.59,0.341-1.427,0.17-2.041c-0.063-0.226-0.379-0.245-0.469-0.029C20.542,2.458,20,3,20,3
			c0.609-1.218,0.476-2.065,0.279-2.541c-0.084-0.203-0.37-0.196-0.46,0.005C18.682,3,16,3,16,3v12c4.035,0,7.334-0.736,9.602-2.079
			c0.043-0.122,0.062-0.257,0.098-0.382C26.251,12.834,26.859,13,27.5,13c2.485,0,4.5-2.462,4.5-5.5C32,4.462,29.985,2,27.5,2z"/>
		<path fill="#373F3F" d="M9,20c-1.422,2.844-0.823,7.699-0.357,10.274C8.256,30.545,8,30.991,8,31.5v0.25
			C8,31.888,8.112,32,8.25,32H9h1.75H13V20H9z"/>
		<polygon fill="#F79654" points="11,31 15,31.563 15,29 11,29 		"/>
		<polygon fill="#EF8C48" points="17,31.563 21,31 21,29 17,29 		"/>
		<path fill="#F7C845" d="M14.046,30.001C13.197,29.975,12.5,30.656,12.5,31.5v0.063c0-0.821-0.633-1.538-1.454-1.562
			C10.197,29.975,9.5,30.656,9.5,31.5v0.25C9.5,31.888,9.612,32,9.75,32h5.5c0.138,0,0.25-0.112,0.25-0.25v-0.187
			C15.5,30.742,14.867,30.025,14.046,30.001z"/>
		<path fill="#FFD04D" d="M14,31.75v-0.187c0-0.821-0.633-1.538-1.454-1.562C11.697,29.975,11,30.656,11,31.5v0.25
			c0,0.138,0.112,0.25,0.25,0.25h2.5C13.888,32,14,31.888,14,31.75z"/>
		<path fill="#F0C13E" d="M21.046,30.001C20.197,29.975,19.5,30.656,19.5,31.5v0.063c0-0.821-0.633-1.538-1.454-1.562
			C17.197,29.975,16.5,30.656,16.5,31.5v0.25c0,0.138,0.112,0.25,0.25,0.25h5.5c0.138,0,0.25-0.112,0.25-0.25v-0.187
			C22.5,30.742,21.867,30.025,21.046,30.001z"/>
		<path fill="#F7C845" d="M21,31.75v-0.187c0-0.821-0.633-1.538-1.454-1.562C18.697,29.975,18,30.656,18,31.5v0.25
			c0,0.138,0.112,0.25,0.25,0.25h2.5C20.888,32,21,31.888,21,31.75z"/>
		<path fill="#FFD04D" d="M16,15c-3.866,0-7,1.686-7,5c0,5,2,9,2,9h4v-4.044C15.327,24.982,15.66,25,16,25V15z"/>
		<path fill="#F7C845" d="M17,24.956V29h4c0,0,2-4,2-9c0-3.314-3.134-5-7-5v10C16.34,25,16.673,24.982,17,24.956z"/>
		<path fill="#FFD96C" d="M8.555,5.128C7.83,3.279,6.289,2,4.5,2C2.015,2,0,4.462,0,7.5C0,10.538,2.015,13,4.5,13
			c0.641,0,1.249-0.166,1.8-0.461c0.036,0.125,0.055,0.26,0.098,0.382C8.666,14.264,11.965,15,16,15V3
			C12.86,3,10.301,3.755,8.555,5.128z"/>
		<ellipse fill="#FFFFFF" cx="10.5" cy="9.5" rx="2.5" ry="3.5"/>
		<path fill="#FFC550" d="M10.736,6.033C9.758,6.196,9,7.232,9,8.5C9,9.881,9.895,11,11,11c0.975,0,1.785-0.874,1.962-2.028
			C12.791,7.4,11.878,6.185,10.736,6.033z"/>
		<ellipse fill="#F79654" cx="11" cy="8.5" rx="1" ry="1.5"/>
		<ellipse fill="#F7F7F7" cx="21.5" cy="9.5" rx="2.5" ry="3.5"/>
		<path fill="#F7BC48" d="M21.264,6.033c-1.142,0.152-2.055,1.366-2.226,2.938C19.215,10.126,20.025,11,21,11c1.105,0,2-1.119,2-2.5
			C23,7.232,22.242,6.196,21.264,6.033z"/>
		<ellipse fill="#EF8C48" cx="21" cy="8.5" rx="1" ry="1.5"/>
		<g>
			<path fill="#434C4B" d="M9.478,16l1.385,3.639c0.064,0.169,0.282,0.216,0.41,0.088L12,19c0,0,1.514,1,4,1v-4H9.478z"/>
			<path fill="#373F3F" d="M22.522,16l-1.385,3.639c-0.064,0.169-0.282,0.216-0.41,0.088L20,19c0,0-1.514,1-4,1v-4H22.522z"/>
		</g>
		<path fill="#F79654" d="M3.028,6.888l0.73-2.918c0.063-0.252,0.422-0.252,0.485,0l0.73,2.918c0.018,0.071,0.065,0.13,0.131,0.163
			l1.45,0.725c0.184,0.092,0.184,0.355,0,0.447L5.075,8.963C5.026,8.987,4.987,9.026,4.963,9.075l-0.739,1.478
			c-0.092,0.184-0.355,0.184-0.447,0L3.037,9.075C3.013,9.026,2.974,8.987,2.925,8.963L1.447,8.224
			c-0.184-0.092-0.184-0.355,0-0.447l1.45-0.725C2.962,7.019,3.01,6.959,3.028,6.888z"/>
		<path fill="#EF8C48" d="M27.028,6.888l0.73-2.918c0.063-0.252,0.422-0.252,0.485,0l0.73,2.918c0.018,0.071,0.065,0.13,0.131,0.163
			l1.45,0.725c0.184,0.092,0.184,0.355,0,0.447l-1.478,0.739c-0.048,0.024-0.088,0.063-0.112,0.112l-0.739,1.478
			c-0.092,0.184-0.355,0.184-0.447,0l-0.739-1.478c-0.024-0.048-0.063-0.088-0.112-0.112l-1.478-0.739
			c-0.184-0.092-0.184-0.355,0-0.447l1.45-0.725C26.962,7.019,27.01,6.959,27.028,6.888z"/>
		<path fill="#FFD04D" d="M16,14.978c-4.035,0-7.334-0.736-9.602-2.079c0.245,0.692,0.62,1.307,1.075,1.869l-1.214,1.822
			c-0.111,0.166,0.008,0.389,0.208,0.389H7.75c0.138,0,0.25,0.112,0.25,0.25v1.25c0,0.206,0.235,0.324,0.4,0.2l2.218-1.663
			c1.503,0.618,3.307,0.963,5.382,0.963V14.978z"/>
		<path fill="#F7C845" d="M21.382,17.014l2.218,1.663c0.165,0.124,0.4,0.006,0.4-0.2v-1.25c0-0.138,0.112-0.25,0.25-0.25h1.283
			c0.2,0,0.319-0.223,0.208-0.389l-1.214-1.822c0.455-0.561,0.831-1.177,1.075-1.869c-2.268,1.343-5.567,2.079-9.602,2.079v3
			C18.075,17.978,19.88,17.633,21.382,17.014z"/>
		<path fill="#CF3C35" d="M16,12c-0.663,0-1,0.132-1,0.5c0,0.368,0.337,0.5,1,0.5V12z"/>
		<path fill="#C23734" d="M17,12.5c0-0.368-0.337-0.5-1-0.5v1C16.663,13,17,12.868,17,12.5z"/>
	</g>
</g>
</svg>
