<?xml version="1.0" encoding="utf-8"?>
<!-- Generator: Adobe Illustrator 23.0.6, SVG Export Plug-In . SVG Version: 6.00 Build 0)  -->
<svg version="1.1" xmlns="http://www.w3.org/2000/svg" xmlns:xlink="http://www.w3.org/1999/xlink" x="0px" y="0px" width="32px"
	 height="32px" viewBox="0 0 32 32" enable-background="new 0 0 32 32" xml:space="preserve">
<g id="labels">
</g>
<g id="icons">
	<g>
		<path fill="#373F3F" d="M26,27.5c-1.812,0-3.901-1.045-4.485-3.379c-0.066-0.268,0.096-0.539,0.364-0.606
			c0.264-0.071,0.54,0.096,0.606,0.364C22.969,25.813,24.681,26.5,26,26.5s3.031-0.687,3.515-2.621
			c0.904-3.617-1.765-5.445-1.792-5.463c-0.229-0.153-0.292-0.463-0.139-0.693c0.154-0.23,0.465-0.291,0.693-0.139
			c0.033,0.022,3.281,2.245,2.208,6.537C29.901,26.455,27.812,27.5,26,27.5z"/>
		<path fill="#434C4B" d="M10,20c-1.422,2.844-1.823,8.425-1.357,11H13V20H10z"/>
		<path fill="#E8BA36" d="M11.546,30.001c-0.296-0.009-0.571,0.072-0.806,0.212c-0.205-0.124-0.439-0.204-0.694-0.212
			c-0.296-0.009-0.571,0.072-0.806,0.212c-0.205-0.124-0.439-0.204-0.694-0.212C7.697,29.975,7,30.656,7,31.5v0.25
			C7,31.888,7.112,32,7.25,32h5.5c0.138,0,0.25-0.112,0.25-0.25v-0.187C13,30.742,12.367,30.025,11.546,30.001z"/>
		<path fill="#373F3F" d="M22,20c1.422,2.844,1.823,8.425,1.357,11H19V20H22z"/>
		<path fill="#E0B12E" d="M23.454,30.001c-0.255,0.008-0.488,0.088-0.694,0.212c-0.236-0.14-0.51-0.221-0.806-0.212
			c-0.255,0.008-0.488,0.088-0.694,0.212c-0.236-0.14-0.51-0.221-0.806-0.212C19.633,30.025,19,30.742,19,31.563v0.187
			c0,0.138,0.112,0.25,0.25,0.25h5.5c0.138,0,0.25-0.112,0.25-0.25V31.5C25,30.656,24.303,29.975,23.454,30.001z"/>
		<path fill="#F7C845" d="M16,15c-3.866,0-6,1.686-6,5c0,5,1,11,1,11h4v-6.044C15.327,24.982,15.66,25,16,25V15z"/>
		<path fill="#F0C13E" d="M17,24.956V31h4c0,0,1-6,1-11c0-3.314-2.134-5-6-5v10C16.34,25,16.673,24.982,17,24.956z"/>
		<path fill="#EF8C48" d="M11,31h4v-2h-4.294C10.871,30.22,11,31,11,31z"/>
		<path fill="#E8803A" d="M17,29v2h4c0,0,0.129-0.78,0.294-2H17z"/>
		<path fill="#EF8C48" d="M10.576,28H15v-1.044l-4.543,0.04C10.497,27.346,10.537,27.683,10.576,28z"/>
		<path fill="#E8803A" d="M21.547,26.96L17,27v1h4.424C21.465,27.672,21.506,27.323,21.547,26.96z"/>
		<path fill="#F7C845" d="M14.046,30.001C13.197,29.975,12.5,30.656,12.5,31.5v0.063c0-0.821-0.633-1.538-1.454-1.562
			C10.197,29.975,9.5,30.656,9.5,31.5v0.25C9.5,31.888,9.612,32,9.75,32h5.5c0.138,0,0.25-0.112,0.25-0.25v-0.187
			C15.5,30.742,14.867,30.025,14.046,30.001z"/>
		<path fill="#FFD04D" d="M14,31.75v-0.187c0-0.821-0.633-1.538-1.454-1.562C11.697,29.975,11,30.656,11,31.5v0.25
			c0,0.138,0.112,0.25,0.25,0.25h2.5C13.888,32,14,31.888,14,31.75z"/>
		<path fill="#E8BA36" d="M21.046,30.001C20.197,29.975,19.5,30.656,19.5,31.5v0.063c0-0.821-0.633-1.538-1.454-1.562
			C17.197,29.975,16.5,30.656,16.5,31.5v0.25c0,0.138,0.112,0.25,0.25,0.25h5.5c0.138,0,0.25-0.112,0.25-0.25v-0.187
			C22.5,30.742,21.867,30.025,21.046,30.001z"/>
		<path fill="#F7C845" d="M21,31.75v-0.187c0-0.821-0.633-1.538-1.454-1.562C18.697,29.975,18,30.656,18,31.5v0.25
			c0,0.138,0.112,0.25,0.25,0.25h2.5C20.888,32,21,31.888,21,31.75z"/>
		<path fill="#E8803A" d="M28.26,15.173l-0.732,2.195c-0.025,0.076-0.084,0.135-0.16,0.16l-2.195,0.732
			c-0.231,0.077-0.231,0.403,0,0.48l2.195,0.732c0.076,0.025,0.135,0.084,0.16,0.16l0.732,2.195c0.077,0.231,0.403,0.231,0.48,0
			l0.732-2.195c0.025-0.076,0.084-0.135,0.16-0.16l2.195-0.732c0.231-0.077,0.231-0.403,0-0.48l-2.195-0.732
			c-0.076-0.025-0.135-0.084-0.16-0.16l-0.732-2.195C28.663,14.942,28.337,14.942,28.26,15.173z"/>
		<path fill="#434C4B" d="M11.013,16.822C11.053,18.496,11.229,22.229,12,23c1-1,2-7,2-7h-2.05
			C11.591,16.234,11.273,16.504,11.013,16.822z"/>
		<path fill="#373F3F" d="M20.05,16H18c0,0,1,6,2,7c0.771-0.771,0.947-4.504,0.987-6.178C20.727,16.504,20.409,16.234,20.05,16z"/>
		<path fill="#505957" d="M11,11.196c0.652-1.129-2,3.927-5,3.927c0,0,3,3.073,8,0.073L11,11.196z"/>
		<path fill="#F0C13E" d="M11,7c0,1-1,3-2,3c-1.657,0-4-1.791-4-4s1.343-4,3-4S11,4.791,11,7z"/>
		<path fill="#EF8C48" d="M10,7.5C10,8,9.5,9,9,9C8.172,9,7,8.105,7,7s0.672-2,1.5-2S10,6.395,10,7.5z"/>
		<path fill="#E8BA36" d="M21,7c0,1,1,3,2,3c1.657,0,4-1.791,4-4s-1.343-4-3-4S21,4.791,21,7z"/>
		<path fill="#E8803A" d="M22,7.5C22,8,22.5,9,23,9c0.828,0,2-0.895,2-2s-0.672-2-1.5-2S22,6.395,22,7.5z"/>
		<path fill="#5C6664" d="M14.546,0.204c-2.326,1.015-2.479,3.391-1.765,4.538C10.497,5.805,9,7.917,9,10.033
			c0,0-1.738,3.476-4.404,3.947c-0.219,0.039-0.276,0.324-0.091,0.447c1.051,0.7,3.696,1.885,7.495-0.394h4v-10
			c-1.512-0.781-1.309-2.666-1.121-3.541C14.921,0.298,14.728,0.125,14.546,0.204z"/>
		<path fill="#434C4B" d="M21,11.196c-0.652-1.129,2,3.927,5,3.927c0,0-3,3.073-8,0.073L21,11.196z"/>
		<path fill="#505957" d="M23,10.033c0-3-3-6-7-6v10h4c3.799,2.28,6.444,1.095,7.495,0.394c0.185-0.123,0.128-0.408-0.091-0.447
			C24.738,13.509,23,10.033,23,10.033z"/>
		<path fill="#5C6664" d="M16,14.033h-5c0,0,1.916,3.833,4.811,4.933C15.871,18.989,15.936,19,16,19V14.033z"/>
		<path fill="#505957" d="M16.189,18.966c2.895-1.1,4.811-4.933,4.811-4.933h-5V19C16.064,19,16.129,18.989,16.189,18.966z"/>
		<path fill="#F7C845" d="M16,6c-3.787,0-6,2.239-6,5s2.213,5,6,5V6z"/>
		<path fill="#F0C13E" d="M22,11c0-2.761-2.213-5-6-5v10C19.787,16,22,13.761,22,11z"/>
		<path fill="#FFFFFF" d="M11,11c0,1.105,0.672,2,1.5,2c0.792,0,1.441-0.819,1.496-1.856c0.005-0.089-0.041-0.174-0.116-0.224
			l-2.092-1.395c-0.11-0.073-0.258-0.05-0.338,0.055C11.174,9.942,11,10.442,11,11z"/>
		<path fill="#FFC550" d="M11.5,10.75c0,0.966,0.56,1.75,1.25,1.75c0.614,0,1.123-0.622,1.228-1.44
			c-0.018-0.056-0.047-0.107-0.097-0.14l-2.042-1.361C11.63,9.872,11.5,10.288,11.5,10.75z"/>
		<path fill="#F79654" d="M13.488,10.658l-1.234-0.823C12.105,10.057,12,10.372,12,10.75c0,0.737,0.396,1.25,0.75,1.25
			s0.75-0.513,0.75-1.25C13.5,10.717,13.489,10.691,13.488,10.658z"/>
		<path fill="#F7F7F7" d="M21,11c0,1.105-0.672,2-1.5,2c-0.792,0-1.441-0.819-1.496-1.856c-0.005-0.089,0.041-0.174,0.116-0.224
			l2.092-1.395c0.11-0.073,0.258-0.05,0.338,0.055C20.826,9.942,21,10.442,21,11z"/>
		<path fill="#F7BC48" d="M20.5,10.75c0,0.966-0.56,1.75-1.25,1.75c-0.614,0-1.123-0.622-1.228-1.44
			c0.018-0.056,0.047-0.107,0.097-0.14l2.042-1.361C20.37,9.872,20.5,10.288,20.5,10.75z"/>
		<path fill="#EF8C48" d="M18.512,10.658l1.234-0.823C19.895,10.057,20,10.372,20,10.75c0,0.737-0.396,1.25-0.75,1.25
			s-0.75-0.513-0.75-1.25C18.5,10.717,18.511,10.691,18.512,10.658z"/>
		<path fill="#F0C13E" d="M16,14c-0.713,0-1.924,1.009-2.566,1.593C14.181,15.853,15.039,16,16,16V14z"/>
		<path fill="#E8BA36" d="M18.566,15.593C17.924,15.01,16.713,14,16,14v2C16.961,16,17.819,15.853,18.566,15.593z"/>
		<path fill="#CF3C35" d="M16,12.033h-1c0,0,0.457,1,1,1V12.033z"/>
		<path fill="#C23734" d="M16,13.033c0.543,0,1-1,1-1h-1V13.033z"/>
		<path fill="#5C6664" d="M16,4.033c0,0-5,3-4,3s3,5,3,5h1V4.033z"/>
		<path fill="#505957" d="M17,12.033c0,0,2-5,3-5s-4-3-4-3v8H17z"/>
	</g>
</g>
</svg>
