<?xml version="1.0" encoding="utf-8"?>
<!-- Generator: Adobe Illustrator 23.0.6, SVG Export Plug-In . SVG Version: 6.00 Build 0)  -->
<svg version="1.1" xmlns="http://www.w3.org/2000/svg" xmlns:xlink="http://www.w3.org/1999/xlink" x="0px" y="0px" width="32px"
	 height="32px" viewBox="0 0 32 32" enable-background="new 0 0 32 32" xml:space="preserve">
<g id="labels">
</g>
<g id="icons">
	<g>
		<path fill="#2B3332" d="M27,32c-4.217,0-5.473-4.83-5.485-4.879l0.971-0.243C22.527,27.046,23.568,31,27,31c1.851,0,3-1.149,3-3
			c0-1.333-1.08-2.231-2.223-3.181c-1.12-0.93-2.277-1.892-2.277-3.319c0-2.806,2.699-3.918,2.814-3.964l0.373,0.928
			C28.598,18.5,26.5,19.378,26.5,21.5c0,0.958,0.931,1.731,1.916,2.55C29.627,25.057,31,26.197,31,28C31,30.393,29.393,32,27,32z"/>
		<path fill="#F0C13E" d="M13,20h-3c-1.26,2.519-1.716,7.18-1.481,10.003C7.682,29.993,7,30.665,7,31.5v0.25
			C7,31.888,7.112,32,7.25,32h5.5c0.138,0,0.25-0.112,0.25-0.25v-0.187C13,31.366,13,20,13,20z"/>
		<path fill="#E8BA36" d="M23.481,30.003C23.716,27.18,23.26,22.519,22,20h-3c0,0,0,11.366,0,11.563v0.187
			c0,0.138,0.112,0.25,0.25,0.25h5.5c0.138,0,0.25-0.112,0.25-0.25V31.5C25,30.665,24.318,29.993,23.481,30.003z"/>
		<path fill="#373F3F" d="M9.268,22c-0.344,1.254-0.574,2.685-0.698,4.08C8.95,25.554,9.473,25,10,25c1,0,2,2,2,2l-1-5H9.268z"/>
		<path fill="#2B3332" d="M22.732,22c0.344,1.254,0.574,2.685,0.698,4.08C23.05,25.554,22.527,25,22,25c-1,0-2,2-2,2l1-5H22.732z"/>
		<path fill="#434C4B" d="M13,15c0,0-1.88,1.88-5.641,1.083c-0.179-0.038-0.346,0.11-0.304,0.288C7.208,17.019,7.791,18.395,10,19.5
			c0,0-1.522,0.38-2.574-0.186c-0.185-0.1-0.401,0.046-0.365,0.254C7.223,20.487,7.818,22.273,10,23l1,8h4v-5h1V15H13z"/>
		<path fill="#505957" d="M14.046,30.001C13.197,29.975,12.5,30.656,12.5,31.5v0.063c0-0.821-0.633-1.538-1.454-1.562
			C10.197,29.975,9.5,30.656,9.5,31.5v0.25C9.5,31.888,9.612,32,9.75,32h5.5c0.138,0,0.25-0.112,0.25-0.25v-0.187
			C15.5,30.742,14.867,30.025,14.046,30.001z"/>
		<path fill="#5C6664" d="M14,31.75v-0.187c0-0.821-0.633-1.538-1.454-1.562C11.697,29.975,11,30.656,11,31.5v0.25
			c0,0.138,0.112,0.25,0.25,0.25h2.5C13.888,32,14,31.888,14,31.75z"/>
		<path fill="#E8803A" d="M28.26,14.173l-0.732,2.195c-0.025,0.076-0.084,0.135-0.16,0.16l-2.195,0.732
			c-0.231,0.077-0.231,0.403,0,0.48l2.195,0.732c0.076,0.025,0.135,0.084,0.16,0.16l0.732,2.195c0.077,0.231,0.403,0.231,0.48,0
			l0.732-2.195c0.025-0.076,0.084-0.135,0.16-0.16l2.195-0.732c0.231-0.077,0.231-0.403,0-0.48l-2.195-0.732
			c-0.076-0.025-0.135-0.084-0.16-0.16l-0.732-2.195C28.663,13.942,28.337,13.942,28.26,14.173z"/>
		<path fill="#373F3F" d="M19,15c0,0,1.88,1.88,5.641,1.083c0.179-0.038,0.346,0.11,0.304,0.288
			C24.792,17.019,24.209,18.395,22,19.5c0,0,1.522,0.38,2.574-0.186c0.185-0.1,0.401,0.046,0.365,0.254
			C24.777,20.487,24.182,22.273,22,23l-1,8h-4v-5h-1V15H19z"/>
		<path fill="#434C4B" d="M17.954,30.001c0.849-0.026,1.546,0.656,1.546,1.499v0.063c0-0.821,0.633-1.538,1.454-1.562
			c0.849-0.026,1.546,0.656,1.546,1.499v0.25c0,0.138-0.112,0.25-0.25,0.25h-5.5c-0.138,0-0.25-0.112-0.25-0.25v-0.187
			C16.5,30.742,17.133,30.025,17.954,30.001z"/>
		<path fill="#505957" d="M18,31.75v-0.187c0-0.821,0.633-1.538,1.454-1.562C20.303,29.975,21,30.656,21,31.5v0.25
			c0,0.138-0.112,0.25-0.25,0.25h-2.5C18.112,32,18,31.888,18,31.75z"/>
		<path fill="#373F3F" d="M13,8.485c-5.352-1.784-9.113,2.002-9.863,2.84c-0.084,0.094-0.085,0.226-0.002,0.321
			C3.88,12.5,7.643,16.38,13,14.485V8.485z"/>
		<path fill="#2B3332" d="M19,8.485c5.352-1.784,9.113,2.002,9.863,2.84c0.084,0.094,0.085,0.226,0.002,0.321
			C28.12,12.5,24.357,16.38,19,14.485V8.485z"/>
		<path fill="#434C4B" d="M16.015,6.978C13.492,1.932,8.156,1.95,7.033,2.012c-0.126,0.007-0.22,0.1-0.228,0.226
			c-0.077,1.13-0.16,6.535,4.968,8.983L16.015,6.978z"/>
		<path fill="#373F3F" d="M15.985,6.978c2.523-5.046,7.859-5.028,8.982-4.966c0.126,0.007,0.22,0.1,0.228,0.226
			c0.077,1.13,0.16,6.535-4.968,8.983L15.985,6.978z"/>
		<path fill="#F7C845" d="M16,6c-3.787,0-6,2.239-6,5s2.213,5,6,5V6z"/>
		<path fill="#F0C13E" d="M22,11c0-2.761-2.213-5-6-5v10C19.787,16,22,13.761,22,11z"/>
		<path fill="#F57552" d="M11,10c0,1.105,0.672,2,1.5,2c0.792,0,1.441-0.819,1.496-1.856c0.005-0.089-0.041-0.174-0.116-0.224
			l-2.092-1.395c-0.11-0.073-0.258-0.05-0.338,0.055C11.174,8.942,11,9.442,11,10z"/>
		<path fill="#FFC550" d="M11.5,9.75c0,0.966,0.56,1.75,1.25,1.75c0.614,0,1.123-0.622,1.228-1.44
			c-0.018-0.056-0.047-0.107-0.097-0.14l-2.042-1.361C11.63,8.872,11.5,9.288,11.5,9.75z"/>
		<path fill="#F79654" d="M13.488,9.658l-1.234-0.823C12.105,9.057,12,9.372,12,9.75c0,0.737,0.396,1.25,0.75,1.25
			s0.75-0.513,0.75-1.25C13.5,9.717,13.489,9.691,13.488,9.658z"/>
		<path fill="#EB6B48" d="M21,10c0,1.105-0.672,2-1.5,2c-0.792,0-1.441-0.819-1.496-1.856c-0.005-0.089,0.041-0.174,0.116-0.224
			l2.092-1.395c0.11-0.073,0.258-0.05,0.338,0.055C20.826,8.942,21,9.442,21,10z"/>
		<path fill="#F7BC48" d="M20.5,9.75c0,0.966-0.56,1.75-1.25,1.75c-0.614,0-1.123-0.622-1.228-1.44
			c0.018-0.056,0.047-0.107,0.097-0.14l2.042-1.361C20.37,8.872,20.5,9.288,20.5,9.75z"/>
		<path fill="#EF8C48" d="M18.512,9.658l1.234-0.823C19.895,9.057,20,9.372,20,9.75c0,0.737-0.396,1.25-0.75,1.25
			s-0.75-0.513-0.75-1.25C18.5,9.717,18.511,9.691,18.512,9.658z"/>
		<path fill="#CF3C35" d="M16,12.033h-1c0,0,0.457,1,1,1V12.033z"/>
		<path fill="#C23734" d="M16,13.033c0.543,0,1-1,1-1h-1V13.033z"/>
		<ellipse fill="#F0C13E" cx="23.47" cy="8.033" rx="2.5" ry="3.5"/>
		<ellipse fill="#EF8C48" cx="23.5" cy="9" rx="1.5" ry="2"/>
		<path fill="#F7C845" d="M11.033,8.033C11.033,9.966,9.881,12,8.5,12S6,10.433,6,8.5S7.119,5,8.5,5S11.033,6.1,11.033,8.033z"/>
		<ellipse fill="#F79654" cx="8.5" cy="9" rx="1.5" ry="2"/>
		<path fill="#505957" d="M13,13l-2.888-0.963C10.6,14.3,12.701,16,16,16v-0.5c-2,0-4-1.5-4-1.5L13,13z"/>
		<path fill="#505957" d="M19,13l2.888-0.963C21.4,14.3,19.299,16,16,16v-0.5c2,0,4-1.5,4-1.5L19,13z"/>
		<path fill="#505957" d="M16,0.083c-0.064-0.006-0.129,0.008-0.182,0.056c-0.528,0.476-2.219,2.147-2.957,4.653l-0.184,0.12
			C11.631,5.59,11,6.752,11,7.998V8l1.977,1.993c0.001,0.002,0.001,0.005,0.002,0.007h0.005L15,12.033h1V0.083z"/>
		<path fill="#434C4B" d="M19.323,4.911l-0.184-0.12c-0.738-2.508-2.462-4.181-2.998-4.654C16.099,0.101,16.049,0.088,16,0.083
			v11.95h1L19.016,10h0.005c0.001-0.002,0.001-0.005,0.002-0.007L21,8V7.998C21,6.752,20.369,5.59,19.323,4.911z"/>
	</g>
</g>
</svg>
