<?xml version="1.0" encoding="utf-8"?>
<!-- Generator: Adobe Illustrator 23.0.6, SVG Export Plug-In . SVG Version: 6.00 Build 0)  -->
<svg version="1.1" xmlns="http://www.w3.org/2000/svg" xmlns:xlink="http://www.w3.org/1999/xlink" x="0px" y="0px" width="32px"
	 height="32px" viewBox="0 0 32 32" enable-background="new 0 0 32 32" xml:space="preserve">
<g id="labels">
</g>
<g id="icons">
	<g>
		<path fill="#CBEB6B" d="M12,29.668c0,0.977-0.848,1.741-1.439,2.156c-0.336,0.235-0.786,0.235-1.121,0
			C8.848,31.409,8,30.644,8,29.668c0-1.5,0.895-2,2-2S12,28.168,12,29.668z"/>
		<path fill="#BEE758" d="M24,29.668c0,0.977-0.848,1.741-1.439,2.156c-0.336,0.235-0.786,0.235-1.121,0
			C20.848,31.409,20,30.644,20,29.668c0-1.5,0.895-2,2-2S24,28.168,24,29.668z"/>
		<path fill="#6CD275" d="M16,30c7.732,0,13-4,13-10S21,7,16,5V2.385c0-1.398-1.393-2.355-2.706-1.875C11.703,1.092,10,2.336,10,5
			c0,5,6,6,6,6V30z"/>
		<path fill="#78DF7C" d="M16,30C8.268,30,3,26,3,20S11,7,16,5V2.385c0-1.398,1.393-2.355,2.706-1.875C20.297,1.092,22,2.336,22,5
			c0,5-6,6-6,6V30z"/>
		<path fill="#A366AD" d="M12.855,22.556C12.44,21.085,11.103,20,9.5,20C7.567,20,6,21.567,6,23.5S7.567,27,9.5,27
			c1.032,0,1.95-0.455,2.59-1.165C12.475,27.643,14.078,29,16,29v-8C14.716,21,13.587,21.616,12.855,22.556z"/>
		<path fill="#945BA0" d="M22.5,20c-1.603,0-2.94,1.085-3.355,2.556C18.413,21.616,17.284,21,16,21v8
			c1.922,0,3.525-1.357,3.91-3.165C20.55,26.545,21.468,27,22.5,27c1.933,0,3.5-1.567,3.5-3.5S24.433,20,22.5,20z"/>
		<path fill="#D9F07D" d="M16,11c-3,0-9,7.75-7,10.75c1,1.5,4,2.25,7,2.25V11z"/>
		<path fill="#CBEB6B" d="M23,21.75c2-3-4-10.75-7-10.75v13C19,24,22,23.25,23,21.75z"/>
		<path fill="#CBEB6B" d="M8.714,21.124c0.002,0.008,0.005,0.016,0.007,0.023C8.786,21.363,8.877,21.566,9,21.75
			c1,1.5,4,2.25,7,2.25v-2.25c-1.771,0-5.813-3.378-6.716-4.152C8.705,18.898,8.435,20.157,8.714,21.124z"/>
		<path fill="#BEE758" d="M23.286,21.124c0.28-0.966,0.009-2.226-0.57-3.526C21.813,18.372,17.771,21.75,16,21.75V24
			c3,0,6-0.75,7-2.25c0.123-0.184,0.214-0.387,0.279-0.603C23.281,21.139,23.283,21.131,23.286,21.124z"/>
		<ellipse fill="#2B3332" cx="18.501" cy="17.25" rx="0.5" ry="1.5"/>
		<ellipse fill="#373F3F" cx="13.499" cy="17.25" rx="0.5" ry="1.5"/>
		<path fill="#D9F07D" d="M18.706,0.51C17.393,0.03,16,0.987,16,2.385v1.592C16.838,4.61,17.869,5,19,5
			c1.093,0,2.095-0.36,2.918-0.955C21.563,2.03,20.093,1.017,18.706,0.51z"/>
		<path fill="#CBEB6B" d="M13.294,0.51C14.607,0.03,16,0.987,16,2.385v1.592C15.162,4.61,14.131,5,13,5
			c-1.093,0-2.095-0.36-2.918-0.955C10.437,2.03,11.907,1.017,13.294,0.51z"/>
	</g>
</g>
</svg>
