<?xml version="1.0" encoding="utf-8"?>
<!-- Generator: Adobe Illustrator 23.0.6, SVG Export Plug-In . SVG Version: 6.00 Build 0)  -->
<svg version="1.1" xmlns="http://www.w3.org/2000/svg" xmlns:xlink="http://www.w3.org/1999/xlink" x="0px" y="0px" width="32px"
	 height="32px" viewBox="0 0 32 32" enable-background="new 0 0 32 32" xml:space="preserve">
<g id="labels">
</g>
<g id="icons">
	<g>
		<path fill="#FFD96C" d="M14.5,31h-4.119c-0.226,0-0.422-0.146-0.481-0.364C9.494,29.137,8,23.321,8,19c0-5,0-5,0-5l7,5v11.5
			C15,30.776,14.776,31,14.5,31z"/>
		<path fill="#FFD04D" d="M17.5,31h4.119c0.226,0,0.422-0.146,0.481-0.364C22.506,29.137,24,23.321,24,19c0-5,0-5,0-5l-7,5v11.5
			C17,30.776,17.224,31,17.5,31z"/>
		<path fill="#FFE28A" d="M16,10c-4.124,0-9,5-9,5s0,0,0,5c0,4.321,1.494,10.137,1.899,11.636C8.958,31.854,9.155,32,9.381,32H13.5
			c0.276,0,0.5-0.224,0.5-0.5v-3.629C14.617,27.956,15.281,28,16,28V10z"/>
		<path fill="#FFD96C" d="M16,10v18c0.719,0,1.383-0.044,2-0.129V31.5c0,0.276,0.224,0.5,0.5,0.5h4.119
			c0.226,0,0.422-0.146,0.481-0.364C23.506,30.137,25,24.321,25,20c0-5,0-5,0-5S20.124,10,16,10z"/>
		<path fill="#F7F7F7" d="M10,31.997c0-1.597,0.958-2.556,1.343-2.877c0.094-0.078,0.22-0.078,0.314,0
			C12.042,29.442,13,30.401,13,32L10,31.997z"/>
		<path fill="#EDEEEE" d="M19,31.997c0-1.597,0.958-2.556,1.343-2.877c0.094-0.078,0.22-0.078,0.314,0
			C21.042,29.442,22,30.401,22,32L19,31.997z"/>
		<path fill="#263460" d="M16,0C10.477,0,6,5.373,6,12c0,6.627,4.477,12,10,12V0z"/>
		<path fill="#182A51" d="M26,12c0-6.627-4.477-12-10-12v24C21.523,24,26,18.627,26,12z"/>
		<path fill="#FFEAA7" d="M16,11H9.021C9.013,11.166,9,11.331,9,11.5c0,4.694,3.134,8.5,7,8.5V11z"/>
		<path fill="#FFE28A" d="M16,11v9c3.866,0,7-3.806,7-8.5c0-0.169-0.013-0.334-0.021-0.5H16z"/>
		<ellipse fill="#FFFFFF" cx="11" cy="13.75" rx="2.5" ry="2.75"/>
		<ellipse fill="#F7F7F7" cx="21" cy="13.75" rx="2.5" ry="2.75"/>
		<circle fill="#373F3F" cx="11" cy="14" r="1.5"/>
		<circle fill="#2B3332" cx="21" cy="14" r="1.5"/>
		<circle fill="#FFFFFF" cx="10.5" cy="14" r="0.5"/>
		<circle fill="#F7F7F7" cx="20.5" cy="14" r="0.5"/>
		<path fill="#313D68" d="M16,2c-4.272,0-7.754,3.982-8,9h8V2z"/>
		<path fill="#263460" d="M24,11c-0.246-5.018-3.728-9-8-9v9H24z"/>
		<path fill="#EDEEEE" d="M16,11.001c-5.633,0-9.002-0.918-9.089-0.942c-0.796-0.229-1.625,0.234-1.854,1.03
			c-0.228,0.796,0.234,1.627,1.03,1.854C6.239,12.986,9.86,14.001,16,14.001V11.001z"/>
		<path fill="#E3E5E5" d="M25.912,12.943c0.796-0.228,1.258-1.058,1.03-1.854c-0.228-0.797-1.061-1.258-1.854-1.03
			c-0.033,0.01-3.364,0.942-9.088,0.942v3C22.14,14.001,25.761,12.986,25.912,12.943z"/>
		<path fill="#EDEEEE" d="M16,18c-4.492,0-6.362,1.741-6.561,1.939c-0.574,0.574-0.571,1.484-0.014,2.074s1.498,0.616,2.105,0.076
			C11.542,22.079,12.792,21,16,21V18z"/>
		<path fill="#E3E5E5" d="M20.439,22.061C20.439,22.061,20.439,22.061,20.439,22.061c0.293,0.292,0.677,0.439,1.061,0.439
			s0.768-0.146,1.061-0.439c0.586-0.585,0.586-1.536,0-2.121C22.362,19.741,20.492,18,16,18v3C19.18,21,20.437,22.061,20.439,22.061
			z"/>
	</g>
</g>
</svg>
