<?xml version="1.0" encoding="utf-8"?>
<!-- Generator: Adobe Illustrator 23.0.6, SVG Export Plug-In . SVG Version: 6.00 Build 0)  -->
<svg version="1.1" xmlns="http://www.w3.org/2000/svg" xmlns:xlink="http://www.w3.org/1999/xlink" x="0px" y="0px" width="32px"
	 height="32px" viewBox="0 0 32 32" enable-background="new 0 0 32 32" xml:space="preserve">
<g id="labels">
</g>
<g id="icons">
	<g>
		<path fill="#182A51" d="M25.871,28c-0.311,1.196-0.606,2.163-0.76,2.653C25.046,30.861,24.854,31,24.635,31H19.5
			c-0.276,0-0.5-0.224-0.5-0.5V28H25.871z"/>
		<path fill="#263460" d="M6.129,28c0.311,1.196,0.606,2.163,0.76,2.653C6.954,30.861,7.146,31,7.365,31H12.5
			c0.276,0,0.5-0.224,0.5-0.5V28H6.129z"/>
		<path fill="#FFE28A" d="M16,13c-8.922,0-13,3.806-13,8.5C3,26.194,7.078,30,16,30V13z"/>
		<path fill="#FFD96C" d="M29,21.5c0-4.694-4.078-8.5-13-8.5v17C24.922,30,29,26.194,29,21.5z"/>
		<path fill="#263460" d="M22.5,32h5.136c0.218,0,0.41-0.138,0.476-0.346c0.399-1.265,1.744-5.744,1.878-9.127
			C30.001,22.241,29.777,22,29.49,22H29l-2,4l-5-3v8.5C22,31.776,22.224,32,22.5,32z"/>
		<path fill="#313D68" d="M9.5,32H4.364c-0.218,0-0.41-0.138-0.476-0.346c-0.399-1.265-1.744-5.744-1.878-9.127
			C1.999,22.241,2.223,22,2.51,22H3l2,4l5-3v8.5C10,31.776,9.776,32,9.5,32z"/>
		<path fill="#313D68" d="M16,22.889h1.815h6.148L25.185,18c0,0,3.457,9.062,0.339,12.521c-0.235,0.261-0.665,0.197-0.822-0.118
			L23.5,28l-1.1,1.467c-0.2,0.267-0.6,0.267-0.8,0L20.5,28H16V22.889z"/>
		<path fill="#3A4274" d="M16,22.889h-1.815H8.037L6.815,18c0,0-3.457,9.062-0.339,12.521c0.235,0.261,0.665,0.197,0.822-0.118
			L8.5,28l1.1,1.467c0.2,0.267,0.6,0.267,0.8,0L11.5,28H16V22.889z"/>
		<path fill="#EDEEEE" d="M10,4L7.924,0.678c-0.196-0.313-0.652-0.313-0.848,0L5,4H10z"/>
		<path fill="#2B3332" d="M16,26h8c0.552,0,1-0.448,1-1v-3h-9V26z"/>
		<path fill="#373F3F" d="M16,22H7v3c0,0.552,0.448,1,1,1h8V22z"/>
		<path fill="#E3E5E5" d="M27,4l-2.076-3.322c-0.196-0.313-0.652-0.313-0.848,0L22,4H27z"/>
		<path fill="#424B7E" d="M24.001,24C26,23.996,26,13.999,26,10c0-2.286,0.327-3.265,0.606-3.685C26.839,5.967,27,5.576,27,5.158V4
			h-5l-1.61-2.012c-0.2-0.25-0.581-0.25-0.781,0L18,4l-1.61-2.012C16.29,1.863,16.145,1.8,16,1.8V24C18.897,24,21.795,24,24.001,24z
			"/>
		<path fill="#495587" d="M16,1.8c-0.145,0-0.29,0.062-0.39,0.188L14,4l-1.61-2.012c-0.2-0.25-0.581-0.25-0.781,0L10,4H5v1.158
			c0,0.419,0.161,0.809,0.394,1.157C5.673,6.735,6,7.714,6,10c0,3.999,0,13.996,1.999,14c2.206,0,5.104,0,8.001,0V1.8z"/>
		<path fill="#313D68" d="M19.25,10C18.561,10,18,9.439,18,8.75V7.5C18,6.122,19.121,5,20.5,5S23,6.122,23,7.5v1.25
			C23,9.439,22.439,10,21.75,10H19.25z"/>
		<path fill="#FEF1C6" d="M21.75,9h-2.5C19.112,9,19,8.888,19,8.75V7.5C19,6.672,19.672,6,20.5,6h0C21.328,6,22,6.672,22,7.5v1.25
			C22,8.888,21.888,9,21.75,9z"/>
		<path fill="#3A4274" d="M10.25,10C9.561,10,9,9.439,9,8.75V7.5C9,6.122,10.121,5,11.5,5S14,6.122,14,7.5v1.25
			C14,9.439,13.439,10,12.75,10H10.25z"/>
		<path fill="#FFF5D8" d="M12.75,9h-2.5C10.112,9,10,8.888,10,8.75V7.5C10,6.672,10.672,6,11.5,6h0C12.328,6,13,6.672,13,7.5v1.25
			C13,8.888,12.888,9,12.75,9z"/>
		<path fill="#313D68" d="M19.25,17C18.561,17,18,16.439,18,15.75V14.5c0-1.378,1.121-2.5,2.5-2.5s2.5,1.122,2.5,2.5v1.25
			c0,0.689-0.561,1.25-1.25,1.25H19.25z"/>
		<path fill="#FEF1C6" d="M21.75,16h-2.5C19.112,16,19,15.888,19,15.75V14.5c0-0.828,0.672-1.5,1.5-1.5h0c0.828,0,1.5,0.672,1.5,1.5
			v1.25C22,15.888,21.888,16,21.75,16z"/>
		<path fill="#3A4274" d="M10.25,17C9.561,17,9,16.439,9,15.75V14.5c0-1.378,1.121-2.5,2.5-2.5s2.5,1.122,2.5,2.5v1.25
			c0,0.689-0.561,1.25-1.25,1.25H10.25z"/>
		<path fill="#FFF5D8" d="M12.75,16h-2.5C10.112,16,10,15.888,10,15.75V14.5c0-0.828,0.672-1.5,1.5-1.5h0c0.828,0,1.5,0.672,1.5,1.5
			v1.25C13,15.888,12.888,16,12.75,16z"/>
		<circle fill="#FFE28A" cx="11" cy="21" r="2"/>
		<circle fill="#373F3F" cx="11" cy="21" r="1"/>
		<circle fill="#FFD96C" cx="21" cy="21" r="2"/>
		<circle fill="#2B3332" cx="21" cy="21" r="1"/>
		<path fill="#EDEEEE" d="M13,18v3c0,0-11-0.5-11-1.5S13,18,13,18z"/>
		<path fill="#E3E5E5" d="M19,18v3c0,0,11-0.5,11-1.5S19,18,19,18z"/>
		<path fill="#EDEEEE" d="M12,26c0,0,0-3,1-3s1,3,1,3H12z"/>
		<path fill="#EDEEEE" d="M8,26c0,0,0-3,1-3s1,3,1,3H8z"/>
		<path fill="#E3E5E5" d="M22,26c0,0,0-3,1-3s1,3,1,3H22z"/>
		<path fill="#E3E5E5" d="M18,26c0,0,0-3,1-3s1,3,1,3H18z"/>
		<path fill="#515E91" d="M16,12c-1,0-2,3-3,6v3c0,0,2,5,3,5V12z"/>
		<path fill="#495587" d="M19,21v-3c-1-3-2-6-3-6v14C17,26,19,21,19,21z"/>
	</g>
</g>
</svg>
