<?xml version="1.0" encoding="utf-8"?>
<!-- Generator: Adobe Illustrator 23.0.6, SVG Export Plug-In . SVG Version: 6.00 Build 0)  -->
<svg version="1.1" xmlns="http://www.w3.org/2000/svg" xmlns:xlink="http://www.w3.org/1999/xlink" x="0px" y="0px" width="32px"
	 height="32px" viewBox="0 0 32 32" enable-background="new 0 0 32 32" xml:space="preserve">
<g id="labels">
</g>
<g id="icons">
	<g>
		<path fill="#434C4B" d="M18,0c0,0-0.289,2.41-1.07,3.191c-0.781,0.781-1.655,1.174-2.475,0.354
			c-0.82-0.82-0.427-1.694,0.354-2.475S18,0,18,0z"/>
		<path fill="#373F3F" d="M16,3v0.869c0.318-0.139,0.631-0.379,0.93-0.678C17.711,2.41,18,0,18,0C16.503,1.232,16,3,16,3z"/>
		<path fill="#505957" d="M12,4.5C12,5.66,13.791,6,16,6V3C13.791,3,12,3.34,12,4.5z"/>
		<path fill="#434C4B" d="M20,4.5C20,3.34,18.209,3,16,3v3C18.209,6,20,5.66,20,4.5z"/>
		<path fill="#5C6664" d="M16,5c-2.761,0-5,0.397-5,1.75s2.239,1.75,5,1.75V5z"/>
		<path fill="#505957" d="M21,6.75C21,5.397,18.761,5,16,5v3.5C18.761,8.5,21,8.103,21,6.75z"/>
		<path fill="#687271" d="M16,7.5c-3.314,0-6,0.454-6,2s2.686,2,6,2V7.5z"/>
		<path fill="#5C6664" d="M22,9.5c0-1.546-2.686-2-6-2v4C19.314,11.5,22,11.046,22,9.5z"/>
		<path fill="#E8AAB1" d="M16,17c-0.656,0-1.258,0.216-1.752,0.574c-0.107-0.159-0.229-0.312-0.37-0.453
			c-0.595-0.595-1.377-0.885-2.157-0.875C11.896,15.866,12,15.446,12,15s-0.104-0.866-0.278-1.246
			c0.78,0.009,1.562-0.28,2.157-0.875c0.141-0.141,0.263-0.293,0.37-0.452C14.742,12.784,15.344,13,16,13V7
			c-1.04,0-1.955,0.529-2.493,1.333c-1.173-0.847-2.815-0.752-3.871,0.304c-0.912,0.912-1.104,2.261-0.597,3.368
			C9.026,12.004,9.013,12,9,12c-1.657,0-3,1.343-3,3c0,0.912,0.415,1.718,1.057,2.268C6.709,17.758,6.5,18.353,6.5,19
			c0,0.912,0.415,1.718,1.057,2.268C7.209,21.758,7,22.353,7,23c0,1.311,0.846,2.414,2.018,2.822C9.014,25.882,9,25.939,9,26
			c0,1.657,1.343,3,3,3c0.537,0,1.034-0.153,1.47-0.4C14.002,29.439,14.933,30,16,30V17z"/>
		<path fill="#E59FA8" d="M17.752,12.426c0.107,0.159,0.229,0.312,0.37,0.452c0.595,0.595,1.377,0.884,2.157,0.875
			C20.104,14.134,20,14.554,20,15s0.104,0.866,0.278,1.246c-0.78-0.009-1.562,0.28-2.157,0.875c-0.141,0.141-0.263,0.293-0.37,0.453
			C17.258,17.216,16.656,17,16,17v13c1.067,0,1.998-0.561,2.53-1.4C18.966,28.847,19.463,29,20,29c1.657,0,3-1.343,3-3
			c0-0.061-0.014-0.118-0.018-0.178C24.154,25.414,25,24.311,25,23c0-0.647-0.209-1.242-0.557-1.732
			C25.085,20.718,25.5,19.912,25.5,19c0-0.647-0.209-1.242-0.557-1.732C25.585,16.718,26,15.912,26,15c0-1.657-1.343-3-3-3
			c-0.013,0-0.026,0.004-0.039,0.004c0.507-1.107,0.315-2.456-0.597-3.368c-1.056-1.056-2.698-1.151-3.871-0.304
			C17.955,7.529,17.04,7,16,7v6C16.656,13,17.258,12.784,17.752,12.426z"/>
		<path fill="#757F7E" d="M16,11c-3.787,0-6,1.686-6,5s2.213,5,6,5V11z"/>
		<path fill="#687271" d="M22,16c0-3.314-2.213-5-6-5v10C19.787,21,22,19.314,22,16z"/>
		<ellipse fill="#FFD96C" cx="13" cy="15.5" rx="1.5" ry="2"/>
		<ellipse fill="#FFD04D" cx="19" cy="15.5" rx="1.5" ry="2"/>
		<circle fill="#373F3F" cx="13" cy="15" r="0.5"/>
		<circle fill="#2B3332" cx="19" cy="15" r="0.5"/>
		<path fill="#687271" d="M16,16.833c0,0-2.165,2.1-4.344,2.964C12.68,20.595,14.151,21,16,21V16.833z"/>
		<path fill="#E59FA8" d="M12.711,23.478c-0.567,0.269-1.213,0.435-1.911,0.435c-1.613,0-2.996-0.819-3.59-1.986
			C7.08,22.261,7,22.62,7,23c0,1.311,0.846,2.414,2.018,2.822C9.014,25.882,9,25.939,9,26c0,1.657,1.343,3,3,3
			c0.537,0,1.034-0.153,1.47-0.4c0.333,0.525,0.833,0.92,1.414,1.158c-0.234,0.671-0.758,0.738-0.89,0.742
			C13.721,30.503,13.5,30.726,13.5,31c0,0.276,0.224,0.5,0.5,0.5c0.417,0,1.056-0.198,1.5-0.783V31.5c0,0.276,0.224,0.5,0.5,0.5v-7
			C14.613,25,13.403,24.39,12.711,23.478z"/>
		<path fill="#E2959E" d="M25,23c0-0.38-0.08-0.739-0.21-1.073c-0.594,1.167-1.977,1.986-3.59,1.986
			c-0.698,0-1.344-0.166-1.911-0.435C18.597,24.39,17.387,25,16,25v7c0.276,0,0.5-0.224,0.5-0.5v-0.783
			c0.444,0.586,1.083,0.783,1.5,0.783c0.276,0,0.5-0.224,0.5-0.5s-0.224-0.5-0.5-0.5c-0.032,0-0.625-0.022-0.88-0.744
			c0.579-0.238,1.078-0.632,1.41-1.156C18.966,28.847,19.463,29,20,29c1.657,0,3-1.343,3-3c0-0.061-0.014-0.118-0.018-0.178
			C24.154,25.414,25,24.311,25,23z"/>
		<path fill="#D1D4D4" d="M9.5,31c-0.128,0-0.256-0.049-0.354-0.146c-0.195-0.195-0.195-0.512,0-0.707l1.646-1.646l-0.646-0.646
			c-0.195-0.195-0.195-0.512,0-0.707l2-2c0.195-0.195,0.512-0.195,0.707,0s0.195,0.512,0,0.707L11.207,27.5l0.646,0.646
			c0.195,0.195,0.195,0.512,0,0.707l-2,2C9.756,30.951,9.628,31,9.5,31z"/>
		<path fill="#C8CCCB" d="M22.5,31c-0.128,0-0.256-0.049-0.354-0.146l-2-2c-0.195-0.195-0.195-0.512,0-0.707l0.646-0.646
			l-1.646-1.646c-0.195-0.195-0.195-0.512,0-0.707s0.512-0.195,0.707,0l2,2c0.195,0.195,0.195,0.512,0,0.707L21.207,28.5
			l1.646,1.646c0.195,0.195,0.195,0.512,0,0.707C22.756,30.951,22.628,31,22.5,31z"/>
		<path fill="#5C6664" d="M20.344,19.798C18.165,18.933,16,16.833,16,16.833V21C17.849,21,19.32,20.595,20.344,19.798z"/>
	</g>
	<g>
		<path fill="#E3979A" d="M6.923,20.458c-0.009-0.003-0.016-0.006-0.025-0.009c0.007,0.012,0.015,0.023,0.022,0.035
			C6.921,20.476,6.923,20.467,6.923,20.458z"/>
		<path fill="#E3979A" d="M25.077,20.458c0.001,0.009,0.002,0.017,0.003,0.026c0.007-0.012,0.015-0.023,0.022-0.035
			C25.093,20.452,25.085,20.456,25.077,20.458z"/>
	</g>
</g>
</svg>
