<?xml version="1.0" encoding="utf-8"?>
<!-- Generator: Adobe Illustrator 23.0.6, SVG Export Plug-In . SVG Version: 6.00 Build 0)  -->
<svg version="1.1" xmlns="http://www.w3.org/2000/svg" xmlns:xlink="http://www.w3.org/1999/xlink" x="0px" y="0px" width="32px"
	 height="32px" viewBox="0 0 32 32" enable-background="new 0 0 32 32" xml:space="preserve">
<g id="labels">
</g>
<g id="icons">
	<g>
		<path fill="#3A9B46" d="M10.007,6.262c-0.006-0.145,0.111-0.261,0.256-0.256c0.644,0.026,2.3,0.155,2.938,0.793
			C14,7.6,14,10,14,10s-2.4,0-3.2-0.8C10.162,8.562,10.033,6.907,10.007,6.262z"/>
		<path fill="#2F963C" d="M21.993,6.262c0.006-0.145-0.111-0.261-0.256-0.256c-0.644,0.026-2.3,0.155-2.938,0.793
			C18,7.6,18,10,18,10s2.4,0,3.2-0.8C21.838,8.562,21.967,6.907,21.993,6.262z"/>
		<path fill="#263460" d="M16,2c0,0,0.406-0.998,0.848-1.888c-0.053-0.024-0.113-0.034-0.175-0.014C16.106,0.289,15,0.756,15,1.5
			c0,0.55,0.451,0.973,1,0.977V2z"/>
		<path fill="#182A51" d="M16,2.477c0.057,0,0.109,0.019,0.168,0.01C16.66,2.406,17,1.945,17,1.446v-1.11
			c0-0.106-0.066-0.186-0.152-0.224C16.406,1.002,16,2,16,2V2.477z"/>
		<path fill="#3A4274" d="M16,3h-0.5l-0.082,1.307c-0.147,2.347-1.276,4.46-2.926,6.134C11.573,11.348,11,12.606,11,14
			c0,2.761,2.239,5,5,5V3z"/>
		<path fill="#313D68" d="M16.596,4.536L16.5,3H16v16c2.761,0,5-2.239,5-5c0-1.405-0.584-2.671-1.517-3.579
			C17.851,8.84,16.738,6.804,16.596,4.536z"/>
		<path fill="#3A9B46" d="M16,18c-1.657,0-3,1.343-3,3s1.343,3,3,3V18z"/>
		<path fill="#2F963C" d="M19,21c0-1.657-1.343-3-3-3v6C17.657,24,19,22.657,19,21z"/>
		<path fill="#A2D336" d="M15.008,17.22c-0.007-0.128-0.112-0.22-0.24-0.226C11.948,16.845,11,14,11,14
			c0-1.298,0.51-2.466,1.322-3.354l-7.694,0.623l0,0c-0.214-0.092-0.426,0.133-0.322,0.342L5,13l-3.676,2.757
			c-0.149,0.112-0.128,0.341,0.038,0.424L5,18l-0.819,1.638C4.098,19.804,4.219,20,4.404,20H6c2,4,6,6,6,6l-1.741,2.611
			C10.148,28.777,10.267,29,10.467,29H12v1.595c0,0.186,0.196,0.307,0.362,0.224L14,30l1.823,1.823
			c0.049,0.049,0.113,0.073,0.177,0.073V21C15.198,19.396,15.039,17.793,15.008,17.22z"/>
		<path fill="#8FB720" d="M30.676,15.757L27,13l0.695-1.39c0.104-0.208-0.108-0.433-0.322-0.342l-7.699-0.623
			C20.486,11.534,21,12.701,21,14c0,0-0.948,2.845-3.768,2.994c-0.128,0.007-0.233,0.099-0.24,0.226
			C16.961,17.793,16.802,19.396,16,21v10.896c0.064,0,0.128-0.024,0.177-0.073L18,30l1.638,0.819C19.804,30.902,20,30.781,20,30.595
			V29h1.533c0.2,0,0.319-0.223,0.208-0.389L20,26c0,0,4-2,6-6h1.596c0.186,0,0.307-0.196,0.224-0.362L27,18l3.638-1.819
			C30.804,16.098,30.825,15.869,30.676,15.757z"/>
		<ellipse fill="#FFFFFF" cx="14" cy="13.5" rx="1" ry="1.5"/>
		<ellipse fill="#FFFFFF" cx="18" cy="13.5" rx="1" ry="1.5"/>
		<ellipse fill="#231F20" cx="14" cy="13.5" rx="0.25" ry="0.75"/>
		<ellipse fill="#231F20" cx="18" cy="13.5" rx="0.25" ry="0.75"/>
		<path fill="#313D68" d="M16,2c-0.828,0-1.5,0.672-1.5,1.5S15.172,5,16,5V2z"/>
		<path fill="#263460" d="M17.5,3.5C17.5,2.672,16.828,2,16,2v3C16.828,5,17.5,4.328,17.5,3.5z"/>
		<path fill="#F7F7F7" d="M12.249,17.501c-0.28,0-0.627,0.082-0.965,0.215c0.134-0.338,0.215-0.685,0.215-0.965
			c0-0.828-0.671-0.75-1.499-0.75c-0.828,0-1.499-0.078-1.499,0.75c0,0.28,0.082,0.627,0.215,0.965
			c-0.338-0.134-0.685-0.215-0.965-0.215c-0.828,0-0.75,0.671-0.75,1.499s-0.078,1.499,0.75,1.499c0.28,0,0.627-0.082,0.965-0.215
			c-0.134,0.338-0.215,0.685-0.215,0.965c0,0.828,0.671,0.75,1.499,0.75c0.828,0,1.499,0.078,1.499-0.75
			c0-0.28-0.082-0.627-0.215-0.965c0.338,0.134,0.685,0.215,0.965,0.215c0.828,0,0.75-0.671,0.75-1.499S13.076,17.501,12.249,17.501
			z M10,19.5c-0.276,0-0.5-0.224-0.5-0.5c0-0.276,0.224-0.5,0.5-0.5c0.276,0,0.5,0.224,0.5,0.5C10.5,19.276,10.276,19.5,10,19.5z"/>
		<path fill="#EDEEEE" d="M24.249,17.501c-0.28,0-0.627,0.082-0.965,0.215c0.134-0.338,0.215-0.685,0.215-0.965
			c0-0.828-0.671-0.75-1.499-0.75c-0.828,0-1.499-0.078-1.499,0.75c0,0.28,0.082,0.627,0.215,0.965
			c-0.338-0.134-0.685-0.215-0.965-0.215c-0.828,0-0.75,0.671-0.75,1.499s-0.078,1.499,0.75,1.499c0.28,0,0.627-0.082,0.965-0.215
			c-0.134,0.338-0.215,0.685-0.215,0.965c0,0.828,0.671,0.75,1.499,0.75c0.828,0,1.499,0.078,1.499-0.75
			c0-0.28-0.082-0.627-0.215-0.965c0.338,0.134,0.685,0.215,0.965,0.215c0.828,0,0.75-0.671,0.75-1.499S25.076,17.501,24.249,17.501
			z M22,19.5c-0.276,0-0.5-0.224-0.5-0.5c0-0.276,0.224-0.5,0.5-0.5c0.276,0,0.5,0.224,0.5,0.5C22.5,19.276,22.276,19.5,22,19.5z"/>
		<path fill="#F7F7F7" d="M16,25.5c-0.128,0-0.256-0.049-0.354-0.146c-0.195-0.195-0.195-0.512,0-0.707
			C15.744,24.549,15.872,24.5,16,24.5v-1.316c-0.144-0.333-0.332-0.636-0.53-0.834c-0.585-0.585-1.005-0.055-1.59,0.53
			c-0.585,0.585-1.115,1.005-0.53,1.59c0.198,0.198,0.501,0.386,0.834,0.53c-0.333,0.144-0.636,0.332-0.834,0.53
			c-0.585,0.585-0.055,1.005,0.53,1.59s1.005,1.115,1.59,0.53c0.198-0.198,0.386-0.501,0.53-0.834V25.5z"/>
		<path fill="#EDEEEE" d="M16.354,24.646c0.195,0.195,0.195,0.512,0,0.707C16.256,25.451,16.128,25.5,16,25.5v1.316
			c0.144,0.333,0.332,0.636,0.53,0.834c0.585,0.585,1.005,0.055,1.59-0.53c0.585-0.585,1.115-1.005,0.53-1.59
			c-0.198-0.198-0.501-0.386-0.834-0.53c0.333-0.144,0.636-0.332,0.834-0.53c0.585-0.585,0.055-1.005-0.53-1.59
			c-0.585-0.585-1.004-1.115-1.59-0.53c-0.198,0.198-0.386,0.501-0.53,0.834V24.5C16.128,24.5,16.256,24.549,16.354,24.646z"/>
		<path fill="#48A353" d="M12.964,9.934C12.964,9.934,10,8,6,9c-3.406,0.852-3.912,6.054-5.839,7.58
			c-0.25,0.198-0.141,0.592,0.177,0.62C1.845,17.332,4.422,17.289,7,16C11,14,12.964,9.934,12.964,9.934z"/>
		<path fill="#4EAC5D" d="M12.964,9.934C12.964,9.934,10,8,6,9c-3.406,0.852-3.912,6.054-5.839,7.58
			c-0.142,0.113-0.158,0.283-0.096,0.419C2.417,15.681,4.943,13.371,7,12C10,10,12.964,9.934,12.964,9.934z"/>
		<path fill="#3A9B46" d="M19.012,9.936c0,0,2.964-1.934,6.964-0.934c3.406,0.852,3.912,6.054,5.839,7.58
			c0.25,0.198,0.141,0.592-0.177,0.62c-1.507,0.132-4.085,0.089-6.663-1.199C20.977,14.003,19.012,9.936,19.012,9.936z"/>
		<path fill="#48A353" d="M19.012,9.936c0,0,2.964-1.934,6.964-0.934c3.406,0.852,3.912,6.054,5.839,7.58
			c0.142,0.113,0.158,0.283,0.096,0.419c-2.352-1.318-4.878-3.628-6.935-4.999C21.977,10.003,19.012,9.936,19.012,9.936z"/>
	</g>
</g>
</svg>
