<?xml version="1.0" encoding="utf-8"?>
<!-- Generator: Adobe Illustrator 23.0.6, SVG Export Plug-In . SVG Version: 6.00 Build 0)  -->
<svg version="1.1" xmlns="http://www.w3.org/2000/svg" xmlns:xlink="http://www.w3.org/1999/xlink" x="0px" y="0px" width="32px"
	 height="32px" viewBox="0 0 32 32" enable-background="new 0 0 32 32" xml:space="preserve">
<g id="labels">
</g>
<g id="icons">
	<g>
		<path fill="#FFD98D" d="M11.692,6.586c-1.473-1.473-4.065-2.227-6.071-2.171V2.5c0-0.276-0.224-0.5-0.5-0.5h-1
			c-0.276,0-0.5,0.224-0.5,0.5v1.672L2.146,2.697c-0.195-0.195-0.512-0.195-0.707,0L0.732,3.404c-0.195,0.195-0.195,0.512,0,0.707
			l1.51,1.51H0.5c-0.276,0-0.5,0.224-0.5,0.5l0,1c0,0.276,0.224,0.5,0.5,0.5h1.95c-0.046,2.001,0.707,4.571,2.172,6.036
			c3.359,3.359,9.899,5.657,11.314,4.243S15.051,9.945,11.692,6.586z"/>
		<path fill="#EF8C48" d="M15.228,17.192c-0.707,0.707-5.657-1.414-7.778-3.536c-1.414-1.414-1.414-4.243-0.707-4.95
			S10.278,8,11.692,9.414C13.814,11.536,15.935,16.485,15.228,17.192z"/>
		<path fill="#EF8C48" d="M5.621,3.321V2.5c0-0.276-0.224-0.5-0.5-0.5h-1c-0.276,0-0.5,0.224-0.5,0.5v1.192
			C4.252,3.393,4.939,3.271,5.621,3.321z"/>
		<path fill="#EF8C48" d="M1.709,5.621H0.5c-0.276,0-0.5,0.224-0.5,0.5l0,1c0,0.276,0.224,0.5,0.5,0.5h0.86
			C1.304,6.94,1.417,6.254,1.709,5.621z"/>
		<path fill="#EF8C48" d="M2.5,4.464c0.246-0.246,0.521-0.439,0.807-0.607L2.146,2.697c-0.195-0.195-0.512-0.195-0.707,0
			L0.732,3.404c-0.195,0.195-0.195,0.512,0,0.707l1.161,1.161C2.061,4.985,2.254,4.71,2.5,4.464z"/>
		<path fill="#FFD98D" d="M12.475,19.569l-0.315-0.735l-0.735-0.315C11.222,18.433,10.141,18,8.719,18
			c-1.676,0-3.165,0.604-4.307,1.746c-0.914,0.913-1.417,2.128-1.417,3.419c0,0.747,0.186,1.459,0.505,2.111l-2.017,0.54
			c-0.267,0.071-0.425,0.346-0.354,0.612l0.258,0.966C1.459,27.661,1.733,27.82,2,27.748l1.709-0.457L3.252,29
			c-0.071,0.267,0.087,0.541,0.354,0.612l0.966,0.258c0.267,0.071,0.541-0.087,0.612-0.354l0.54-2.019
			C6.375,27.815,7.085,28,7.83,28c1.291,0,2.505-0.503,3.419-1.416C13.588,24.246,13.12,21.074,12.475,19.569z"/>
		<path fill="#EF8C48" d="M11.816,19.89c0.234,0.888,0.481,2.717-0.87,4.17c-0.927,0.997-2.382,1.26-3.546,0.554
			c-1.652-1.001-1.842-3.182-0.569-4.455c1.463-1.463,3.353-1.218,4.268-0.978C11.45,19.273,11.723,19.539,11.816,19.89z"/>
		<path fill="#EF8C48" d="M3.694,27.347L3.252,29c-0.071,0.267,0.087,0.541,0.354,0.612l0.966,0.258
			c0.267,0.071,0.541-0.087,0.612-0.354l0.31-1.16C4.806,28.177,4.186,27.831,3.694,27.347z"/>
		<path fill="#EF8C48" d="M2.643,25.506l-1.16,0.31c-0.267,0.071-0.425,0.346-0.354,0.612l0.258,0.966
			C1.459,27.661,1.733,27.82,2,27.748l1.653-0.442C3.169,26.814,2.823,26.194,2.643,25.506z"/>
		<path fill="#FFCF6E" d="M19.525,19.569l0.315-0.735l0.735-0.315C20.778,18.433,21.859,18,23.281,18
			c1.676,0,3.165,0.604,4.307,1.746c0.914,0.913,1.417,2.128,1.417,3.419c0,0.747-0.186,1.459-0.505,2.111l2.017,0.54
			c0.267,0.071,0.425,0.346,0.354,0.612l-0.258,0.966c-0.071,0.267-0.345,0.425-0.612,0.354l-1.709-0.457L28.748,29
			c0.071,0.267-0.087,0.541-0.354,0.612l-0.966,0.258c-0.267,0.071-0.541-0.087-0.612-0.354l-0.54-2.019
			C25.625,27.815,24.915,28,24.17,28c-1.291,0-2.505-0.503-3.419-1.416C18.412,24.246,18.88,21.074,19.525,19.569z"/>
		<path fill="#E8803A" d="M20.184,19.89c-0.234,0.888-0.481,2.717,0.87,4.17c0.927,0.997,2.382,1.26,3.546,0.554
			c1.652-1.001,1.842-3.182,0.569-4.455c-1.463-1.463-3.353-1.218-4.268-0.978C20.55,19.273,20.277,19.539,20.184,19.89z"/>
		<path fill="#E8803A" d="M28.306,27.347L28.748,29c0.071,0.267-0.087,0.541-0.354,0.612l-0.966,0.258
			c-0.267,0.071-0.541-0.087-0.612-0.354l-0.31-1.16C27.194,28.177,27.814,27.831,28.306,27.347z"/>
		<path fill="#E8803A" d="M29.357,25.506l1.16,0.31c0.267,0.071,0.425,0.346,0.354,0.612l-0.258,0.966
			c-0.071,0.267-0.345,0.425-0.612,0.354l-1.653-0.442C28.831,26.814,29.177,26.194,29.357,25.506z"/>
		<g>
			<path fill="#FFCF6E" d="M20.308,6.586c1.473-1.473,4.065-2.227,6.071-2.171V2.5c0-0.276,0.224-0.5,0.5-0.5h1
				c0.276,0,0.5,0.224,0.5,0.5v1.672l1.475-1.475c0.195-0.195,0.512-0.195,0.707,0l0.707,0.707c0.195,0.195,0.195,0.512,0,0.707
				l-1.51,1.51H31.5c0.276,0,0.5,0.224,0.5,0.5v1c0,0.276-0.224,0.5-0.5,0.5h-1.95c0.046,2.001-0.707,4.571-2.172,6.036
				c-3.359,3.359-9.899,5.657-11.314,4.243S16.949,9.945,20.308,6.586z"/>
			<path fill="#E8803A" d="M16.772,17.192c0.707,0.707,5.657-1.414,7.778-3.536c1.414-1.414,1.414-4.243,0.707-4.95
				C24.55,8,21.722,8,20.308,9.414C18.186,11.536,16.065,16.485,16.772,17.192z"/>
			<path fill="#E8803A" d="M26.379,3.321V2.5c0-0.276,0.224-0.5,0.5-0.5h1c0.276,0,0.5,0.224,0.5,0.5v1.192
				C27.748,3.393,27.061,3.271,26.379,3.321z"/>
			<path fill="#E8803A" d="M30.291,5.621H31.5c0.276,0,0.5,0.224,0.5,0.5v1c0,0.276-0.224,0.5-0.5,0.5h-0.86
				C30.696,6.94,30.583,6.254,30.291,5.621z"/>
			<path fill="#E8803A" d="M29.5,4.464c-0.246-0.246-0.521-0.439-0.807-0.607l1.161-1.161c0.195-0.195,0.512-0.195,0.707,0
				l0.707,0.707c0.195,0.195,0.195,0.512,0,0.707l-1.161,1.161C29.939,4.985,29.746,4.71,29.5,4.464z"/>
		</g>
		<path fill="#5C6664" d="M16,11c-2.761,0-5,5.239-5,8c0,2.149,1.363,3.966,3.267,4.673l-0.489,0.733
			c-0.153,0.23-0.091,0.54,0.138,0.693l0.933,0.622c0.23,0.153,0.54,0.091,0.693-0.138L16,24.898V11z"/>
		<path fill="#505957" d="M16.458,25.584c0.153,0.23,0.464,0.292,0.693,0.138l0.933-0.622c0.23-0.153,0.292-0.464,0.138-0.693
			l-0.489-0.733C19.637,22.966,21,21.149,21,19c0-2.761-2.239-8-5-8v13.898L16.458,25.584z"/>
		<path fill="#E8803A" d="M16,16c-1.488,0-2.865-0.401-3.999-1.079C11.375,16.345,11,17.876,11,19c0,0.074,0.019,0.143,0.022,0.216
			C12.291,20.317,14.052,21,16,21V16z"/>
		<path fill="#DD7731" d="M20.978,19.216C20.981,19.143,21,19.074,21,19c0-1.124-0.375-2.655-1.001-4.079
			C18.865,15.599,17.488,16,16,16v5C17.948,21,19.709,20.317,20.978,19.216z"/>
		<path fill="#687271" d="M16,6c-2.209,0-4,1.791-4,4c0,1.853,1.267,3.397,2.977,3.851C15.306,14.396,15.73,15,16,15V6z"/>
		<path fill="#5C6664" d="M17.023,13.851C18.733,13.397,20,11.853,20,10c0-2.209-1.791-4-4-4v9
			C16.27,15,16.694,14.396,17.023,13.851z"/>
		<g>
			<path fill="#EDEEEE" d="M14.555,1.508C13.966,2.24,13,3.675,13,5.214c0,0.659,0.405,1.229,1,1.538l0.477,6.011
				C14.49,12.897,14.603,13,14.738,13h0C14.883,13,15,12.883,15,12.738V1.665C15,1.428,14.704,1.323,14.555,1.508z"/>
			<path fill="#EF8C48" d="M15,4.09V1.665c0-0.235-0.295-0.344-0.442-0.161c-0.534,0.664-1.374,1.91-1.526,3.286
				C13.631,4.448,14.294,4.209,15,4.09z"/>
			<path fill="#E3E5E5" d="M17.445,1.508C18.034,2.24,19,3.675,19,5.214c0,0.659-0.405,1.229-1,1.538l-0.477,6.011
				C17.51,12.897,17.397,13,17.262,13l0,0C17.117,13,17,12.883,17,12.738V1.665C17,1.428,17.296,1.323,17.445,1.508z"/>
			<path fill="#E8803A" d="M17,4.09V1.665c0-0.235,0.295-0.344,0.442-0.161c0.534,0.664,1.374,1.91,1.526,3.286
				C18.369,4.448,17.706,4.209,17,4.09z"/>
		</g>
		<g>
			<path fill="#F79654" d="M14,8c-1.105,0-2,0.895-2,2c0,1.105,0.895,2,2,2c0.137,0,0.284-0.017,0.413-0.044L14.099,8
				C14.099,8,14.008,8,14,8z"/>
		</g>
		<g>
			<path fill="#EF8C48" d="M18,8c1.105,0,2,0.895,2,2c0,1.105-0.895,2-2,2c-0.137,0-0.284-0.017-0.413-0.044L17.901,8
				C17.901,8,17.992,8,18,8z"/>
		</g>
		<ellipse fill="#373F3F" cx="13.5" cy="10" rx="0.5" ry="1"/>
		<ellipse fill="#2B3332" cx="18.5" cy="10" rx="0.5" ry="1"/>
		<path fill="#E3E5E5" d="M13.59,19.41c0.547,0.547,0.547,1.434,0,1.981c-0.355,0.355-1.363,0.528-2.026,0.605
			c-0.323,0.038-0.598-0.237-0.56-0.56c0.077-0.663,0.25-1.671,0.605-2.026C12.155,18.863,13.043,18.863,13.59,19.41z"/>
		<path fill="#DADDDC" d="M18.41,19.41c-0.547,0.547-0.547,1.434,0,1.981c0.355,0.355,1.363,0.528,2.026,0.605
			c0.323,0.038,0.598-0.237,0.56-0.56c-0.077-0.663-0.25-1.671-0.605-2.026C19.845,18.863,18.957,18.863,18.41,19.41z"/>
		<path fill="#E3E5E5" d="M13.59,14.41c0.547,0.547,0.547,1.434,0,1.981c-0.355,0.355-1.363,0.528-2.026,0.605
			c-0.323,0.038-0.598-0.237-0.56-0.56c0.077-0.663,0.25-1.671,0.605-2.026C12.155,13.863,13.043,13.863,13.59,14.41z"/>
		<path fill="#DADDDC" d="M18.41,14.41c-0.547,0.547-0.547,1.434,0,1.981c0.355,0.355,1.363,0.528,2.026,0.605
			c0.323,0.038,0.598-0.237,0.56-0.56c-0.077-0.663-0.25-1.671-0.605-2.026C19.845,13.863,18.957,13.863,18.41,14.41z"/>
	</g>
</g>
</svg>
