<?xml version="1.0" encoding="utf-8"?>
<!-- Generator: Adobe Illustrator 23.0.6, SVG Export Plug-In . SVG Version: 6.00 Build 0)  -->
<svg version="1.1" xmlns="http://www.w3.org/2000/svg" xmlns:xlink="http://www.w3.org/1999/xlink" x="0px" y="0px" width="32px"
	 height="32px" viewBox="0 0 32 32" enable-background="new 0 0 32 32" xml:space="preserve">
<g id="labels">
</g>
<g id="icons">
	<g>
		<path fill="#E3DBF4" d="M16,1c-3.866,0-7,3.134-7,7c0,3.866,3.134,7,7,7V1z"/>
		<path fill="#D4C9EF" d="M23,8c0-3.866-3.134-7-7-7v14C19.866,15,23,11.866,23,8z"/>
		<path fill="#B370B9" d="M16,1c-0.695,0-1.366,0.105-2,0.294V14h2V1z"/>
		<path fill="#A366AD" d="M18,14V1.294C17.366,1.105,16.695,1,16,1v13H18z"/>
		<path fill="#E3DBF4" d="M16,18c-1.8,0-3.954,2.13-5.394,4.607l-1.193-1.193c-0.551-0.551-1.443-0.551-1.994,0l-0.006,0.006
			c-0.551,0.551-0.551,1.443,0,1.994l1.955,1.955C9.135,26.122,9,26.849,9,27.5c0,3.59,2.651,3.5,7,3.5V18z"/>
		<path fill="#D4C9EF" d="M23,27.5c0-0.651-0.135-1.378-0.368-2.132l1.955-1.955c0.551-0.551,0.551-1.443,0-1.994l-0.006-0.006
			c-0.551-0.551-1.443-0.551-1.994,0l-1.193,1.193C19.954,20.129,17.8,18,16,18v13C20.349,31,23,31.09,23,27.5z"/>
		<path fill="#E3DBF4" d="M22,31.5c0,0.5-0.672,0.5-1.5,0.5S19,32,19,31.5c0-0.828,0.672-1.5,1.5-1.5S22,30.672,22,31.5z"/>
		<path fill="#F1EDFA" d="M13,31.5c0,0.5-0.672,0.5-1.5,0.5S10,32,10,31.5c0-0.828,0.672-1.5,1.5-1.5S13,30.672,13,31.5z"/>
		<path fill="#F1EDFA" d="M16,10c-7,0-8,2.91-8,6.5c0,3.59,3.029,6.5,8,6.5V10z"/>
		<path fill="#E3DBF4" d="M24,16.5c0-3.59-1-6.5-8-6.5v13C20.971,23,24,20.09,24,16.5z"/>
		<ellipse fill="#373F3F" cx="13" cy="16.5" rx="1" ry="1.5"/>
		<circle fill="#FFFFFF" cx="13" cy="16" r="0.5"/>
		<ellipse fill="#2B3332" cx="19" cy="16.5" rx="1" ry="1.5"/>
		<circle fill="#F7F7F7" cx="19" cy="16" r="0.5"/>
		<path fill="#B370B9" d="M23,11c0-2.209-0.895-4-2-4s-2,1.791-2,4c0,1.681,0.52,1.961,1.254,1.999C20.422,13.499,20.672,14,21,14
			s0.578-0.501,0.746-1.001C22.48,12.96,23,12.681,23,11z"/>
		<path fill="#C27BC6" d="M11,7c-1.105,0-2,1.791-2,4c0,1.681,0.52,1.961,1.254,1.999C10.422,13.499,10.672,14,11,14
			s0.578-0.501,0.746-1.001C12.48,12.96,13,12.681,13,11C13,8.791,12.105,7,11,7z"/>
		<path fill="#FFC2B1" d="M23.732,18.272C23.388,17.516,22.746,17,22,17c-1.105,0-2,1.119-2,2.5c0,0.946,0.426,1.76,1.046,2.185
			C22.388,20.842,23.31,19.652,23.732,18.272z"/>
		<path fill="#FFCEC2" d="M10,17c-0.746,0-1.388,0.516-1.732,1.272c0.422,1.38,1.344,2.57,2.686,3.412
			C11.574,21.26,12,20.446,12,19.5C12,18.119,11.105,17,10,17z"/>
		<path fill="#C27BC6" d="M16,10c-0.526,0-1.007,0.022-1.467,0.053C14.915,11.939,15.457,14,16,14V10z"/>
		<path fill="#B370B9" d="M17.467,10.053C17.007,10.021,16.526,10,16,10v4C16.543,14,17.085,11.939,17.467,10.053z"/>
		<path fill="#D786B3" d="M16,19c-1.105,0-2,0.5-2,0.5c0,1.381,0.895,2.5,2,2.5V19z"/>
		<path fill="#C976A3" d="M18,19.5c0,0-0.895-0.5-2-0.5v3C17.105,22,18,20.881,18,19.5z"/>
		<path fill="#FFFFFF" d="M16,19c-1.044,0-1.892,0.442-1.982,0.491C14.547,19.804,15.236,20,16,20V19z"/>
		<path fill="#F7F7F7" d="M17.982,19.491C17.892,19.442,17.044,19,16,19v1C16.764,20,17.453,19.804,17.982,19.491z"/>
		<path fill="#C27BC6" d="M16,0c-0.091,0-0.183,0.05-0.223,0.151L14.086,4.38c-0.048,0.121,0.005,0.258,0.125,0.309
			c0.346,0.145,1.068,0.406,1.79,0.406V0z"/>
		<path fill="#B370B9" d="M17.79,4.688c0.12-0.05,0.173-0.188,0.125-0.309l-1.692-4.229C16.183,0.05,16.091,0,16,0v5.094
			C16.722,5.094,17.444,4.833,17.79,4.688z"/>
		<path fill="#D285D2" d="M16,4.309c-0.089,0-0.178,0.046-0.224,0.138l-1.659,3.319c-0.064,0.129-0.008,0.287,0.125,0.342
			C14.599,8.255,15.299,8.5,16,8.5V4.309z"/>
		<path fill="#C27BC6" d="M17.758,8.108c0.133-0.055,0.19-0.213,0.125-0.342l-1.659-3.319C16.178,4.355,16.089,4.309,16,4.309V8.5
			C16.701,8.5,17.401,8.255,17.758,8.108z"/>
	</g>
</g>
</svg>
