<?xml version="1.0" encoding="utf-8"?>
<!-- Generator: Adobe Illustrator 23.0.6, SVG Export Plug-In . SVG Version: 6.00 Build 0)  -->
<svg version="1.1" xmlns="http://www.w3.org/2000/svg" xmlns:xlink="http://www.w3.org/1999/xlink" x="0px" y="0px" width="32px"
	 height="32px" viewBox="0 0 32 32" enable-background="new 0 0 32 32" xml:space="preserve">
<g id="labels">
</g>
<g id="icons">
	<g>
		<path fill="#DB7383" d="M16,20c-3.038,0-5.5,2.462-5.5,5.5c0,0.121,0.01,0.239,0.018,0.358c0.003,0.047,0.003,0.093,0.007,0.139
			c0.02,0.222,0.052,0.44,0.097,0.653c0.382,2.154,1.663,4.278,2.171,5.047c0.099,0.15,0.313,0.15,0.413,0
			c0.163-0.247,0.409-0.637,0.678-1.12C14.536,30.849,15.25,31,16,31V20z"/>
		<path fill="#D56A7D" d="M18.115,30.577c0.27,0.484,0.515,0.873,0.678,1.12c0.099,0.15,0.313,0.15,0.413,0
			c0.508-0.769,1.789-2.894,2.171-5.047c0.045-0.213,0.078-0.432,0.097-0.653c0.004-0.047,0.004-0.093,0.007-0.139
			C21.49,25.739,21.5,25.621,21.5,25.5c0-3.038-2.462-5.5-5.5-5.5v11C16.75,31,17.464,30.849,18.115,30.577z"/>
		<path fill="#675099" d="M16,7c6,0,9,4,9,9c0,4.593-1.688,10.03,1.138,13.21c0.29,0.326,0.094,0.841-0.342,0.849
			C22.987,30.109,15.941,29.729,12,25C7,19,10,7,16,7z"/>
		<path fill="#6E57A0" d="M16,7c-6,0-9,4-9,9c0,4.593,1.688,10.03-1.138,13.21c-0.29,0.326-0.094,0.841,0.342,0.849
			C9.013,30.109,16.059,29.729,20,25C25,19,22,7,16,7z"/>
		<path fill="#745DA6" d="M16,15l-3.691-7.381C8.775,8.922,7,12.162,7,16c0,4.593,1.688,10.03-1.138,13.21
			c-0.187,0.21-0.157,0.487-0.007,0.667C15.056,28.189,16,15,16,15z"/>
		<path fill="#54B668" d="M16,6c-5.138,0-8.177,2.899-8.945,3.733C6.95,9.847,6.98,10.035,7.111,10.118
			C9.883,11.857,12.5,11,12.5,11s1.437,2.874,3.373,3.934c0.039,0.021,0.083,0.032,0.127,0.032V6z"/>
		<path fill="#4EAC5D" d="M16.127,14.934C18.063,13.874,19.5,11,19.5,11s2.617,0.857,5.389-0.882
			c0.132-0.083,0.162-0.271,0.056-0.385C24.177,8.899,21.138,6,16,6v8.966C16.044,14.966,16.088,14.955,16.127,14.934z"/>
		<path fill="#E08C96" d="M13,0c-1.697,0-3.064,1.408-2.998,3.12c0.06,1.548,1.342,2.823,2.89,2.878
			c0.933,0.033,1.765-0.367,2.336-1.006c0.44,0.555,0.629,1.14,0.711,1.535C15.996,6.803,16.24,7,16.522,7l0,0
			c0.286,0,0.531-0.203,0.587-0.483C17.866,2.761,16.256,0,13,0z"/>
		<path fill="#DE8490" d="M17.109,6.517C17.866,2.761,16.256,0,13,0c-0.38,0-0.74,0.08-1.075,0.209
			c3.843,0.908,4.062,4.58,4.074,6.469C16.099,6.87,16.296,7,16.522,7C16.808,7,17.053,6.797,17.109,6.517z"/>
	</g>
</g>
</svg>
