<?xml version="1.0" encoding="utf-8"?>
<!-- Generator: Adobe Illustrator 23.0.6, SVG Export Plug-In . SVG Version: 6.00 Build 0)  -->
<svg version="1.1" xmlns="http://www.w3.org/2000/svg" xmlns:xlink="http://www.w3.org/1999/xlink" x="0px" y="0px" width="32px"
	 height="32px" viewBox="0 0 32 32" enable-background="new 0 0 32 32" xml:space="preserve">
<g id="labels">
</g>
<g id="icons">
	<g>
		<path fill="#FFB76D" d="M25.118,22.82c-0.08-0.208-0.217-0.494-0.383-0.82c0.711,0,1.718,0,2.214,0c1.105,0,2-0.895,2-2
			c0-0.601-0.27-1.133-0.69-1.5c0.419-0.367,0.69-0.899,0.69-1.5c0-1.105-0.895-2-2-2c-0.601,0-1.133,0.27-1.5,0.69
			c-0.367-0.419-0.899-0.69-1.5-0.69c-1.105,0-2,0.895-2,2L21,16.487C21.245,15.078,22.469,14,23.948,14
			c0.531,0,1.047,0.144,1.5,0.408c0.453-0.265,0.969-0.408,1.5-0.408c1.654,0,3,1.346,3,3c0,0.531-0.144,1.048-0.408,1.5
			c0.265,0.452,0.408,0.969,0.408,1.5c0,1.654-1.346,3-3,3h-1.784C25.146,22.94,25.139,22.879,25.118,22.82z"/>
		<path fill="#FFC172" d="M6.83,22.82c0.08-0.208,0.217-0.494,0.383-0.82C6.503,22,5.496,22,5,22c-1.105,0-2-0.895-2-2
			c0-0.601,0.27-1.133,0.69-1.5C3.27,18.133,3,17.601,3,17c0-1.105,0.895-2,2-2c0.601,0,1.133,0.27,1.5,0.69
			C6.867,15.27,7.399,15,8,15c1.105,0,2,0.895,2,2l0.948-0.513C10.703,15.078,9.479,14,8,14c-0.531,0-1.047,0.144-1.5,0.408
			C6.047,14.144,5.531,14,5,14c-1.654,0-3,1.346-3,3c0,0.531,0.144,1.048,0.408,1.5C2.144,18.952,2,19.469,2,20c0,1.654,1.346,3,3,3
			h1.784C6.802,22.94,6.81,22.879,6.83,22.82z"/>
		<path fill="#F7F7F7" d="M13,2c-2.852,0-4.687-1.017-5.506-1.6C7.311,0.269,7.066,0.428,7.108,0.649C7.472,2.554,8.875,8,13,8h3V5
			C16,3.343,14.657,2,13,2z"/>
		<path fill="#EDEEEE" d="M19,2c2.852,0,4.687-1.017,5.506-1.6c0.183-0.131,0.429,0.028,0.386,0.249C24.528,2.554,23.125,8,19,8h-3
			V5C16,3.343,17.343,2,19,2z"/>
		<path fill="#51BAC5" d="M10.5,16c0,0-0.134,0.399-0.398,1c0,0-0.039,0.064-0.102,0.166c0-0.055,0-0.12,0-0.166
			c0-1.105-0.895-2-2-2c-0.601,0-1.133,0.27-1.5,0.69C6.133,15.27,5.601,15,5,15c-1.105,0-2,0.895-2,2c0,0.601,0.27,1.133,0.69,1.5
			C3.27,18.867,3,19.399,3,20c0,1.105,0.895,2,2,2c0.496,0,1.503,0,2.214,0c-0.167,0.326-0.303,0.613-0.383,0.82
			C6.224,24.563,6.819,26.546,9,28c0,0,0-2.08,0.537-4c0.487-1.743,2.104-4.371,2.402-6.436L10.5,16z"/>
		<path fill="#4CAEBC" d="M21.5,16c0,0,0.134,0.399,0.398,1c0,0,0.039,0.064,0.102,0.166c0-0.055,0-0.12,0-0.166
			c0-1.105,0.895-2,2-2c0.601,0,1.133,0.27,1.5,0.69C25.867,15.27,26.399,15,27,15c1.105,0,2,0.895,2,2c0,0.601-0.27,1.133-0.69,1.5
			C28.73,18.867,29,19.399,29,20c0,1.105-0.895,2-2,2c-0.496,0-1.503,0-2.214,0c0.167,0.326,0.303,0.613,0.383,0.82
			c0.606,1.743,0.012,3.726-2.17,5.18c0,0,0-2.08-0.537-4c-0.487-1.743-2.104-4.371-2.402-6.436L21.5,16z"/>
		<path fill="#FFC172" d="M23,29c-0.552,0-1-0.447-1-1c0-0.983-0.172-2.256-0.513-3.782c-0.169-0.759-0.597-1.69-1.05-2.677
			C19.731,20.003,19,18.412,19,16.946c0-0.553,0.448-1,1-1s1,0.447,1,1c0,1.028,0.638,2.417,1.255,3.76
			c0.499,1.086,0.969,2.11,1.185,3.076C23.812,25.451,24,26.87,24,28C24,28.553,23.552,29,23,29z"/>
		<path fill="#FFCA88" d="M9,29L9,29c-0.553-0.001-1-0.448-1-1c0-0.091,0.006-2.239,0.574-4.27c0.219-0.784,0.623-1.677,1.051-2.621
			C10.27,19.686,11,18.072,11,16.946c0-0.553,0.448-1,1-1s1,0.447,1,1c0,1.558-0.825,3.38-1.553,4.987
			c-0.396,0.873-0.769,1.698-0.947,2.336c-0.491,1.759-0.5,3.712-0.5,3.731C9.999,28.553,9.552,29,9,29z"/>
		<path fill="#47A1B4" d="M22.801,26.064c0.136,1.1,0.137,1.936,0.137,1.936c1.681-1.121,2.411-2.554,2.385-3.951
			C24.572,24.822,23.723,25.496,22.801,26.064z"/>
		<path fill="#4CAEBC" d="M6.62,23.986C6.57,25.403,7.294,26.863,9,28c0,0,0.002-0.854,0.142-1.971
			C8.218,25.453,7.37,24.769,6.62,23.986z"/>
		<path fill="#FFB76D" d="M21.899,26.574C21.962,27.097,22,27.58,22,28c0,0.553,0.448,1,1,1s1-0.447,1-1
			c0-0.737-0.089-1.609-0.248-2.582C23.169,25.853,22.552,26.241,21.899,26.574z"/>
		<path fill="#FFC172" d="M8.222,25.399C8.007,26.791,8,27.934,8,28c0,0.552,0.447,0.999,1,1h0c0.552,0,0.999-0.447,1-0.999
			c0-0.011,0.006-0.611,0.089-1.433C9.431,26.232,8.809,25.839,8.222,25.399z"/>
		<path fill="#BEE758" d="M16,16h-4v0.947c0,2.131-1.927,5.133-2.463,7.053S9,28,9,28c0,1.657,1.343,3,3,3
			c0.537,0,1.034-0.153,1.47-0.4C14.002,31.439,14.933,32,16,32V16z"/>
		<path fill="#B1E346" d="M20,16.947V16h-4v16c1.067,0,1.998-0.561,2.53-1.4C18.966,30.847,19.463,31,20,31c1.657,0,3-1.343,3-3
			c0-0.681-0.073-1.92-0.537-4S20,19.077,20,16.947z"/>
		<path fill="#B1E346" d="M16,28c-2.551,0-4.912-0.735-6.856-1.979C9.002,27.141,9,28,9,28c0,1.657,1.343,3,3,3
			c0.537,0,1.034-0.153,1.47-0.4C14.002,31.439,14.933,32,16,32V28z"/>
		<path fill="#AADB3D" d="M18.53,30.6C18.966,30.847,19.463,31,20,31c1.657,0,3-1.343,3-3c0-0.42-0.029-1.056-0.159-1.969
			C20.9,27.269,18.544,28,16,28v4C17.067,32,17.998,31.439,18.53,30.6z"/>
		<path fill="#56C7CD" d="M16,6c-5.049,0-8,2.91-8,6.5s2.951,6.5,8,6.5V6z"/>
		<path fill="#51BAC5" d="M24,12.5C24,8.91,21.049,6,16,6v13C21.049,19,24,16.09,24,12.5z"/>
		<ellipse fill="#FFCA88" cx="12" cy="12.5" rx="2" ry="2.5"/>
		<ellipse fill="#373F3F" cx="12" cy="12.5" rx="1" ry="1.5"/>
		<ellipse fill="#FFC172" cx="20" cy="12.5" rx="2" ry="2.5"/>
		<ellipse fill="#2B3332" cx="20" cy="12.5" rx="1" ry="1.5"/>
		<circle fill="#FFFFFF" cx="12" cy="12" r="0.5"/>
		<circle fill="#F7F7F7" cx="20" cy="12" r="0.5"/>
		<path fill="#FFC172" d="M16,16c-3.238,0-4.86-1.486-4.95-1.571c-0.586-0.576-1.528-0.572-2.11,0.011
			c-0.586,0.586-0.586,1.535,0,2.121C9.039,16.66,11.431,19,16,19V16z"/>
		<path fill="#FFB76D" d="M23.061,16.561c0.581-0.581,0.58-1.514,0.006-2.102c-0.575-0.59-1.521-0.599-2.115-0.032
			C20.884,14.491,19.263,16,16,16v3C20.569,19,22.961,16.66,23.061,16.561z"/>
		<path fill="#FFCA88" d="M16,16c-3.238,0-4.86-1.486-4.95-1.571c-0.586-0.576-1.528-0.572-2.11,0.011
			c-0.165,0.165-0.271,0.36-0.343,0.566C9.701,15.86,12.301,17.5,16,17.5V16z"/>
		<path fill="#FFC172" d="M23.4,15.009c-0.071-0.199-0.176-0.388-0.333-0.55c-0.575-0.59-1.521-0.599-2.115-0.032
			C20.884,14.491,19.263,16,16,16v1.5C19.695,17.5,22.293,15.864,23.4,15.009z"/>
		<path fill="#56C7CD" d="M13,8h3V5c0-1.657-1.343-3-3-3c-0.762,0-1.445-0.076-2.062-0.193c-1.02,0.834-1.827,1.916-2.336,3.153
			C9.513,6.593,10.904,8,13,8z"/>
		<path fill="#51BAC5" d="M23.398,4.959c-0.509-1.237-1.317-2.318-2.336-3.153C20.445,1.924,19.762,2,19,2c-1.657,0-3,1.343-3,3v3h3
			C21.096,8,22.487,6.593,23.398,4.959z"/>
	</g>
</g>
</svg>
