<?xml version="1.0" encoding="utf-8"?>
<!-- Generator: Adobe Illustrator 23.0.6, SVG Export Plug-In . SVG Version: 6.00 Build 0)  -->
<svg version="1.1" xmlns="http://www.w3.org/2000/svg" xmlns:xlink="http://www.w3.org/1999/xlink" x="0px" y="0px" width="32px"
	 height="32px" viewBox="0 0 32 32" enable-background="new 0 0 32 32" xml:space="preserve">
<g id="labels">
</g>
<g id="icons">
	<g>
		<path fill="#FF97AF" d="M16,1h-0.002c-2.526,0-4.789,1.639-5.487,4.067C10.207,6.126,10,7.425,10,9c0,6,3,10,3,14s-3,5-5,4
			s-3,0-3,0s0,5,2,5s2-1.5,4-1.5s2,1.5,5,1.5V1z"/>
		<path fill="#FF87A4" d="M24,27c-2,1-5,0-5-4s3-8,3-14c0-1.575-0.207-2.874-0.511-3.933C20.791,2.639,18.528,1,16.002,1H16v31
			c3,0,3-1.5,5-1.5s2,1.5,4,1.5s2-5,2-5S26,26,24,27z"/>
		<path fill="#869642" d="M10,9H8c0,5,3,11,0,12s-3,6-3,6s1-1,3,0s5,0,5-4S10,15,10,9z"/>
		<path fill="#828E3D" d="M24,21c-3-1,0-7,0-12h-2c0,6-3,10-3,14s3,5,5,4s3,0,3,0S27,22,24,21z"/>
		<path fill="#869642" d="M4,9.5C4,10.328,4.567,11,6.5,11S10,9.5,10,9.5S8.433,8,6.5,8S4,8.672,4,9.5z"/>
		<path fill="#828E3D" d="M28,9.5c0,0.828-0.567,1.5-2.5,1.5S22,9.5,22,9.5S23.567,8,25.5,8S28,8.672,28,9.5z"/>
		<path fill="#869642" d="M12,3c0,0-1,0-3,0C7.478,3,5.956,1.262,5.315,0.432c-0.132-0.171-0.398-0.103-0.44,0.109
			C4.551,2.183,4.023,7,9,7L12,3z"/>
		<path fill="#828E3D" d="M20,3c0,0,1,0,3,0c1.522,0,3.044-1.738,3.685-2.568c0.132-0.171,0.398-0.103,0.44,0.109
			C27.449,2.183,27.977,7,23,7L20,3z"/>
		<path fill="#869642" d="M16,1c-4.418,0-8,3.582-8,8c0,2.047,1.735,3.585,3,5c0.336-2.995,1.915-5,5-5V1z"/>
		<path fill="#828E3D" d="M21,14c1.265-1.415,3-2.953,3-5c0-4.418-3.582-8-8-8v8C19.085,9,20.664,11.005,21,14z"/>
		<path fill="#FFCF6E" d="M9.526,28.359c-0.673,0-1.352-0.154-1.974-0.465c-1.275-0.638-1.852-0.179-1.875-0.159
			c-0.41,0.341-1.037,0.315-1.397-0.079c-0.36-0.396-0.365-0.985,0.013-1.363c0.56-0.561,2.065-1.23,4.154-0.188
			c0.731,0.366,1.599,0.338,2.264-0.073C11.542,25.519,12,24.441,12,23c0-1.634-0.566-3.312-1.221-5.256C9.945,15.271,9,12.467,9,9
			c0-2.665,0.562-4.618,1.233-6c0.955-1.968,3.739-1.762,3.733-1.739c-0.06,0.223-0.197,0.426-0.402,0.565
			C13.441,1.912,11,3.705,11,9c0,3.139,0.851,5.664,1.674,8.105C13.356,19.128,14,21.038,14,23c0,2.916-1.402,4.218-2.238,4.734
			C11.089,28.149,10.312,28.359,9.526,28.359z"/>
		<path fill="#FFC550" d="M22.484,28.359c0.673,0,1.352-0.154,1.974-0.465c1.275-0.638,1.852-0.179,1.875-0.159
			c0.41,0.341,1.037,0.315,1.397-0.079c0.36-0.396,0.365-0.985-0.013-1.363c-0.56-0.561-2.065-1.23-4.154-0.188
			c-0.731,0.366-1.599,0.338-2.264-0.073C20.468,25.519,20.01,24.441,20.01,23c0-1.634,0.566-3.312,1.221-5.256
			C22.065,15.271,23.01,12.467,23.01,9c0-2.665-0.562-4.618-1.233-6c-0.955-1.968-3.739-1.762-3.733-1.739
			c0.06,0.223,0.197,0.426,0.402,0.565C18.569,1.912,21.01,3.705,21.01,9c0,3.139-0.851,5.664-1.674,8.105
			C18.654,19.128,18.01,21.038,18.01,23c0,2.916,1.402,4.218,2.238,4.734C20.921,28.149,21.698,28.359,22.484,28.359z"/>
		<path fill="#FF87A4" d="M8.947,20.249C8.737,20.59,8.439,20.854,8,21c-0.852,0.284-1.456,0.895-1.893,1.618
			C6.369,23.418,7.113,24,8,24c1.105,0,2-0.895,2-2C10,21.24,9.571,20.587,8.947,20.249z"/>
		<circle fill="#FF7898" cx="22" cy="24" r="1"/>
		<path fill="#FF7898" d="M25.967,22.74C25.526,21.963,24.9,21.3,24,21c-0.393-0.131-0.678-0.352-0.885-0.641
			C23.046,20.561,23,20.774,23,21c0,1.105,0.895,2,2,2C25.353,23,25.68,22.901,25.967,22.74z"/>
		<ellipse fill="#373F3F" cx="10.5" cy="7" rx="1.5" ry="2"/>
		<ellipse fill="#FFFFFF" cx="10.5" cy="7" rx="0.75" ry="1.25"/>
		<ellipse fill="#2B3332" cx="21.5" cy="7" rx="1.5" ry="2"/>
		<ellipse fill="#F7F7F7" cx="21.5" cy="7" rx="0.75" ry="1.25"/>
		<path fill="#434C4B" d="M16,2c-0.828,0-1.5,0.395-1.5,1.5C14.5,4.605,15.172,5,16,5V2z"/>
		<path fill="#373F3F" d="M17.5,3.5C17.5,2.395,16.828,2,16,2v3C16.828,5,17.5,4.605,17.5,3.5z"/>
		<path fill="#EDEEEE" d="M16,2.75c-0.661,0-0.75,0.151-0.75,0.75S15.339,4.25,16,4.25V2.75z"/>
		<path fill="#E3E5E5" d="M16.75,3.5c0-0.599-0.089-0.75-0.75-0.75v1.5C16.661,4.25,16.75,4.099,16.75,3.5z"/>
	</g>
</g>
</svg>
