<?xml version="1.0" encoding="utf-8"?>
<!-- Generator: Adobe Illustrator 23.0.6, SVG Export Plug-In . SVG Version: 6.00 Build 0)  -->
<svg version="1.1" xmlns="http://www.w3.org/2000/svg" xmlns:xlink="http://www.w3.org/1999/xlink" x="0px" y="0px" width="32px"
	 height="32px" viewBox="0 0 32 32" enable-background="new 0 0 32 32" xml:space="preserve">
<g id="labels">
</g>
<g id="icons">
	<g>
		<path fill="#2B3332" d="M25,32c-5.15,0-7.159-7.614-7.242-7.938c-0.034-0.133,0.047-0.27,0.18-0.304
			c0.138-0.032,0.271,0.047,0.305,0.18C18.262,24.014,20.237,31.5,25,31.5c1.052,0,1.951-0.366,2.673-1.09
			c2.062-2.065,2.077-6.366,2.077-6.409V23c0-0.138,0.112-0.25,0.25-0.25s0.25,0.112,0.25,0.25v1c0,0.185-0.017,4.553-2.223,6.764
			C27.208,31.584,26.189,32,25,32z"/>
		<path fill="#F7C845" d="M29,21c0.552,0,1,0.448,1,1c0-0.552,0.448-1,1-1s1,0.448,1,1c0,0.803-1.289,1.283-1.797,1.959
			c-0.106,0.14-0.3,0.14-0.405,0C29.289,23.283,28,22.803,28,22C28,21.448,28.448,21,29,21z"/>
		<path fill="#373F3F" d="M7,32c-1.189,0-2.208-0.416-3.027-1.236c-2.206-2.211-2.223-6.579-2.223-6.765V23
			c0-0.138,0.112-0.25,0.25-0.25S2.25,22.862,2.25,23v1c0,0.044,0.018,4.348,2.077,6.411C5.049,31.134,5.948,31.5,7,31.5
			c4.763,0,6.738-7.486,6.758-7.562c0.034-0.133,0.168-0.212,0.305-0.18c0.133,0.034,0.214,0.171,0.18,0.304
			C14.159,24.386,12.15,32,7,32z"/>
		<path fill="#FFD04D" d="M3,21c-0.552,0-1,0.448-1,1c0-0.552-0.448-1-1-1s-1,0.448-1,1c0,0.803,1.289,1.283,1.797,1.959
			c0.106,0.14,0.3,0.14,0.405,0C2.711,23.283,4,22.803,4,22C4,21.448,3.552,21,3,21z"/>
		<path fill="#7A63AD" d="M16,20l-3.573,3.573C12.269,23.731,12.381,24,12.604,24H14v1.396c0,0.223,0.269,0.334,0.427,0.177L16,24
			V20z"/>
		<path fill="#745DA6" d="M17.573,25.573C17.731,25.731,18,25.619,18,25.396V24h1.396c0.223,0,0.334-0.269,0.177-0.427L16,20v4
			L17.573,25.573z"/>
		<path fill="#9179C6" d="M16,7.5c-4.971,0-9,2.806-9,7.5c0,4.694,4.029,7.5,9,7.5V7.5z"/>
		<path fill="#866EBA" d="M25,15c0-4.694-4.029-7.5-9-7.5v15C20.971,22.5,25,19.694,25,15z"/>
		<ellipse fill="#373F3F" cx="10" cy="15.5" rx="1" ry="1.5"/>
		<ellipse fill="#2B3332" cx="22" cy="15.5" rx="1" ry="1.5"/>
		<path fill="#F7F7F7" d="M16,2.345C15.463,1.535,14.545,1,13.5,1c-1.657,0-3,1.343-3,3c0,0.017,0.005,0.033,0.005,0.05
			C9.085,4.287,8,5.513,8,7c0,1.657,1.343,3,3,3c0.781,0,1.487-0.306,2.021-0.796C13.128,10.764,14.413,12,16,12V2.345z"/>
		<path fill="#EDEEEE" d="M18.979,9.204C19.513,9.694,20.219,10,21,10c1.657,0,3-1.343,3-3c0-0.917-0.414-1.732-1.063-2.28
			c0.611-0.715,0.878-1.515,0.986-2.062c0.044-0.223-0.218-0.376-0.397-0.236C22.746,3.029,22,3.213,21.39,3.237
			C21.051,1.952,19.891,1,18.5,1c-1.045,0-1.963,0.535-2.5,1.345V12C17.587,12,18.872,10.764,18.979,9.204z"/>
		<path fill="#FFD96C" d="M16,13.891l-1.756-1.756c-0.195-0.195-0.512-0.195-0.707,0l-1.402,1.402c-0.195,0.195-0.195,0.512,0,0.707
			L13.891,16l-1.756,1.756c-0.195,0.195-0.195,0.512,0,0.707l1.402,1.402c0.195,0.195,0.512,0.195,0.707,0L16,18.109V13.891z"/>
		<path fill="#FFD04D" d="M17.756,19.865c0.195,0.195,0.512,0.195,0.707,0l1.402-1.402c0.195-0.195,0.195-0.512,0-0.707L18.109,16
			l1.756-1.756c0.195-0.195,0.195-0.512,0-0.707l-1.402-1.402c-0.195-0.195-0.512-0.195-0.707,0L16,13.891v4.218L17.756,19.865z"/>
		<path fill="#866EBA" d="M16,21c-3.034,0-5.781-0.7-7.771-1.986C9.789,21.243,12.681,22.5,16,22.5V21z"/>
		<path fill="#7A63AD" d="M23.771,19.014C21.781,20.3,19.034,21,16,21v1.5C19.319,22.5,22.211,21.243,23.771,19.014z"/>
	</g>
</g>
</svg>
