<?xml version="1.0" encoding="utf-8"?>
<!-- Generator: Adobe Illustrator 23.0.6, SVG Export Plug-In . SVG Version: 6.00 Build 0)  -->
<svg version="1.1" xmlns="http://www.w3.org/2000/svg" xmlns:xlink="http://www.w3.org/1999/xlink" x="0px" y="0px" width="32px"
	 height="32px" viewBox="0 0 32 32" enable-background="new 0 0 32 32" xml:space="preserve">
<g id="labels">
</g>
<g id="icons">
	<g>
		<path fill="#FAE09F" d="M15,29.75c0-1.381-0.619-3-2-3s-2,1.619-2,3c0,1.138,0.429,1.751,1.35,1.934
			C12.509,31.894,12.722,32,13,32s0.491-0.106,0.65-0.316C14.571,31.501,15,30.888,15,29.75z"/>
		<path fill="#F7D684" d="M21,29.75c0-1.381-0.619-3-2-3s-2,1.619-2,3c0,1.138,0.429,1.751,1.35,1.934
			C18.509,31.894,18.722,32,19,32s0.491-0.106,0.65-0.316C20.571,31.501,21,30.888,21,29.75z"/>
		<path fill="#9E6E43" d="M15,19l-0.239,1.074c-0.614,0.187-2.429,0.698-4.475,0.87C9.563,21.005,9,21.598,9,22.324v0
			c0,0.933,0.903,1.615,1.791,1.329c0.996-0.321,2.303-0.939,3.648-2.126L14,23.5h2V19H15z"/>
		<path fill="#96643B" d="M21.713,20.944c-2.046-0.172-3.861-0.683-4.475-0.87L17,19h-1v4.5h2l-0.438-1.973
			c1.345,1.187,2.652,1.805,3.648,2.126C22.097,23.939,23,23.257,23,22.324v0C23,21.598,22.437,21.005,21.713,20.944z"/>
		<path fill="#FDEBBB" d="M16,22.389C15.734,22.15,15.386,22,15,22c-0.693,0-1.27,0.472-1.442,1.11C13.385,23.04,13.198,23,13,23
			c-0.828,0-1.5,0.672-1.5,1.5c0,0.269,0.076,0.517,0.2,0.735C11.28,25.501,11,25.966,11,26.5c0,0.828,0.672,1.5,1.5,1.5
			c0.031,0,0.059-0.007,0.089-0.009C12.793,28.577,13.345,29,14,29c0.269,0,0.517-0.076,0.735-0.2c0.266,0.42,0.731,0.7,1.265,0.7
			V22.389z"/>
		<path fill="#FAE09F" d="M17.265,28.8C17.483,28.924,17.731,29,18,29c0.655,0,1.207-0.423,1.411-1.009
			C19.441,27.993,19.469,28,19.5,28c0.828,0,1.5-0.672,1.5-1.5c0-0.534-0.28-0.999-0.7-1.265c0.124-0.218,0.2-0.467,0.2-0.735
			c0-0.828-0.672-1.5-1.5-1.5c-0.198,0-0.385,0.04-0.558,0.11C18.27,22.472,17.693,22,17,22c-0.386,0-0.734,0.15-1,0.389V29.5
			C16.534,29.5,16.999,29.22,17.265,28.8z"/>
		<path fill="#B38658" d="M16,7c0,3.866-2,7-3,7s-3-3.134-3-7s1.343-5,3-5S16,3.134,16,7z"/>
		<path fill="#FDEBBB" d="M15.491,1.589C15.493,1.559,15.5,1.531,15.5,1.5C15.5,0.672,14.828,0,14,0c-0.386,0-0.734,0.15-1,0.389
			C12.734,0.15,12.386,0,12,0c-0.828,0-1.5,0.672-1.5,1.5c0,0.031,0.007,0.059,0.009,0.089C9.923,1.793,9.5,2.345,9.5,3
			c0,0.828,0.672,1.5,1.5,1.5c0.198,0,0.385-0.04,0.558-0.11C11.73,5.028,12.307,5.5,13,5.5s1.27-0.472,1.442-1.11
			C14.615,4.46,14.802,4.5,15,4.5c0.828,0,1.5-0.672,1.5-1.5C16.5,2.345,16.077,1.793,15.491,1.589z"/>
		<path fill="#E59FA8" d="M13,6.322c-0.371,0-1.5,0-1.5,2.588c0,1.104,0.338,2.057,0.736,2.773C12.517,11.885,12.783,12,13,12
			s0.483-0.115,0.764-0.316c0.398-0.716,0.736-1.669,0.736-2.773C14.5,6.322,13.371,6.322,13,6.322z"/>
		<path fill="#B38658" d="M16,11c-3.59,0-6,1.462-6,4.5c0,3.038,2.41,4.5,6,4.5V11z"/>
		<path fill="#A7794C" d="M22,15.5c0-3.038-2.41-4.5-6-4.5v9C19.59,20,22,18.538,22,15.5z"/>
		<ellipse fill="#373F3F" cx="13.25" cy="16" rx="0.75" ry="1"/>
		<ellipse fill="#2B3332" cx="18.75" cy="16" rx="0.75" ry="1"/>
		<circle fill="#FFFFFF" cx="13.25" cy="15.75" r="0.5"/>
		<circle fill="#F7F7F7" cx="18.75" cy="15.75" r="0.5"/>
		<circle fill="#FDEBBB" cx="13.25" cy="13.5" r="0.5"/>
		<circle fill="#FAE09F" cx="18.75" cy="13.5" r="0.5"/>
		<path fill="#E59FA8" d="M16,17c-0.276,0-0.5-0.026-0.5,0.25C15.5,17.526,16,18,16,18V17z"/>
		<path fill="#E2959E" d="M16.5,17.25c0-0.276-0.224-0.25-0.5-0.25v1C16,18,16.5,17.526,16.5,17.25z"/>
		<ellipse transform="matrix(0.5 -0.866 0.866 0.5 1.0985 22.8313)" fill="#B38658" cx="20.322" cy="10.464" rx="2.5" ry="3.5"/>
		<path fill="#FAE09F" d="M24.435,8.323c0.017-0.025,0.037-0.046,0.052-0.073c0.414-0.717,0.168-1.635-0.549-2.049
			c-0.334-0.193-0.711-0.237-1.061-0.163c-0.11-0.34-0.337-0.644-0.671-0.837c-0.717-0.414-1.635-0.168-2.049,0.549
			c-0.015,0.026-0.023,0.055-0.037,0.082c-0.609-0.116-1.252,0.15-1.579,0.717c-0.414,0.717-0.168,1.635,0.549,2.049
			c0.171,0.099,0.354,0.158,0.538,0.184c-0.169,0.639,0.094,1.336,0.694,1.682c0.6,0.346,1.335,0.226,1.804-0.24
			c0.115,0.146,0.257,0.275,0.428,0.374c0.717,0.414,1.635,0.168,2.049-0.549C24.931,9.482,24.84,8.793,24.435,8.323z"/>
		<g>
			<path fill="#A7794C" d="M11.483,18.736C12.54,19.576,14.096,20,16,20v-2c-0.721,0.618-1.91,1-3,1
				C12.463,19,11.951,18.904,11.483,18.736z"/>
		</g>
		<g>
			<path fill="#9E6E43" d="M20.508,18.736C19.452,19.576,17.896,20,15.992,20v-2c0.721,0.618,1.91,1,3,1
				C19.529,19,20.04,18.904,20.508,18.736z"/>
		</g>
	</g>
</g>
</svg>
