<?xml version="1.0" encoding="utf-8"?>
<!-- Generator: Adobe Illustrator 23.0.6, SVG Export Plug-In . SVG Version: 6.00 Build 0)  -->
<svg version="1.1" xmlns="http://www.w3.org/2000/svg" xmlns:xlink="http://www.w3.org/1999/xlink" x="0px" y="0px" width="32px"
	 height="32px" viewBox="0 0 32 32" enable-background="new 0 0 32 32" xml:space="preserve">
<g id="labels">
</g>
<g id="icons">
	<g>
		<path fill="#FF7898" d="M21.85,20.154C21.572,18.512,21,14.805,21,12l4-1c2.185,2.185,3.306,5.424,3.755,7.026
			C29.461,18.147,30,18.759,30,19.5c0,0.752-0.555,1.369-1.277,1.478c0.016,0.089,0.027,0.179,0.027,0.272
			c0,0.828-0.672,1.5-1.5,1.5c-0.404,0-0.769-0.162-1.039-0.421c-0.15,0.67-0.746,1.171-1.461,1.171
			c-0.583,0-1.083-0.336-1.331-0.822C23.164,22.877,22.848,23,22.5,23c-0.828,0-1.5-0.672-1.5-1.5
			C21,20.905,21.349,20.396,21.85,20.154z"/>
		<path fill="#A7794C" d="M16,7.051c0,0,0-6,2-7S25,11,25,11s-0.016,2.629-1,3s-3-2-3-2s-2-7.949-3-7.949l-1,4L16,7.051z"/>
		<path fill="#FF87A4" d="M10.15,20.154C10.428,18.512,11,14.805,11,12l-4-1c-2.185,2.185-3.306,5.424-3.755,7.026
			C2.539,18.147,2,18.759,2,19.5c0,0.752,0.555,1.369,1.277,1.478C3.261,21.066,3.25,21.157,3.25,21.25c0,0.828,0.672,1.5,1.5,1.5
			c0.404,0,0.769-0.162,1.039-0.421c0.15,0.67,0.746,1.171,1.461,1.171c0.583,0,1.083-0.336,1.331-0.822
			C8.836,22.877,9.152,23,9.5,23c0.828,0,1.5-0.672,1.5-1.5C11,20.905,10.651,20.396,10.15,20.154z"/>
		<path fill="#B38658" d="M16,7.051c0,0,0-6-2-7S7,11,7,11s0.016,2.629,1,3s3-2,3-2s2-7.949,3-7.949l1,4L16,7.051z"/>
		<path fill="#A7794C" d="M14,14c0,0-0.151,0.534-0.349,1.316c-1.531,0.708-5.065,2.725-7.473,7.107
			c-0.444,0.809-0.02,1.826,0.855,2.118c0.756,0.252,1.577-0.14,1.868-0.882c1.568-4.002,3.313-5.986,4.411-6.916
			C12.85,18.824,12.42,21.42,13,22c0.5,0.5,1.75,0.75,3,0.75V14H14z"/>
		<path fill="#B38658" d="M15,24c0,2.209,0.105,4-1,4s-2-1.791-2-4s0.895-4,2-4S15,21.791,15,24z"/>
		<path fill="#9E6E43" d="M25.822,22.423c-2.408-4.382-5.942-6.399-7.473-7.107C18.151,14.534,18,14,18,14h-2v8.75
			c1.25,0,2.5-0.25,3-0.75c0.58-0.58,0.15-3.176-0.313-5.257c1.098,0.93,2.844,2.914,4.411,6.916
			c0.291,0.742,1.112,1.134,1.868,0.882C25.842,24.249,26.266,23.232,25.822,22.423z"/>
		<path fill="#FF87A4" d="M14.884,27c0,0-0.635,0.5-1.134,0.5c-0.263,0-0.541-0.137-0.751-0.269
			c-0.008-0.336-0.113-0.743-0.315-1.142c-0.403-0.797-1.035-1.258-1.414-1.031c-0.378,0.227-0.358,1.056,0.044,1.853
			c0.342,0.676,0.848,1.107,1.225,1.084C12.387,29.452,12.32,32,13.75,32C15.75,32,14.884,27,14.884,27z"/>
		<path fill="#FF97AF" d="M9.79,21.269c-0.049-0.027-0.103-0.029-0.154-0.048c-0.001-0.414-0.204-0.816-0.593-1.028
			c-0.388-0.213-0.837-0.167-1.186,0.055c-0.044-0.033-0.074-0.077-0.123-0.104c-0.568-0.311-1.28-0.102-1.59,0.466
			c-0.311,0.568-0.102,1.28,0.466,1.59c0.049,0.027,0.103,0.029,0.154,0.048c0.001,0.414,0.204,0.816,0.593,1.028
			s0.837,0.167,1.186-0.055c0.044,0.033,0.074,0.077,0.123,0.104c0.568,0.311,1.28,0.102,1.59-0.466
			C10.566,22.291,10.357,21.579,9.79,21.269z"/>
		<path fill="#FF87A4" d="M25.856,20.609c-0.311-0.568-1.022-0.776-1.59-0.466c-0.049,0.027-0.08,0.071-0.123,0.104
			c-0.349-0.222-0.797-0.268-1.186-0.055c-0.388,0.213-0.592,0.615-0.593,1.028c-0.051,0.019-0.105,0.021-0.154,0.048
			c-0.568,0.311-0.776,1.022-0.465,1.59c0.311,0.568,1.022,0.776,1.59,0.466c0.049-0.027,0.08-0.071,0.123-0.104
			c0.349,0.222,0.797,0.268,1.186,0.055s0.592-0.615,0.593-1.028c0.051-0.019,0.105-0.021,0.154-0.048
			C25.958,21.889,26.167,21.177,25.856,20.609z"/>
		<path fill="#C09265" d="M16,7.051c-2.209,0-4,2.015-4,4.5c0,2.485,1.791,3.5,4,3.5V7.051z"/>
		<path fill="#B38658" d="M20,11.551c0-2.485-1.791-4.5-4-4.5v8C18.209,15.051,20,14.036,20,11.551z"/>
		<ellipse fill="#FFB0C2" cx="14" cy="11.75" rx="1" ry="1.25"/>
		<ellipse fill="#373F3F" cx="14" cy="11.776" rx="0.5" ry="0.724"/>
		<ellipse fill="#FF97AF" cx="18" cy="11.75" rx="1" ry="1.25"/>
		<ellipse fill="#2B3332" cx="18" cy="11.776" rx="0.5" ry="0.724"/>
		<path fill="#FFB0C2" d="M16,13.052c-0.276,0-0.5-0.026-0.5,0.25c0,0.276,0.5,0.75,0.5,0.75V13.052z"/>
		<path fill="#FF97AF" d="M16.5,13.302c0-0.276-0.224-0.25-0.5-0.25v1C16,14.052,16.5,13.578,16.5,13.302z"/>
		<path fill="#A7794C" d="M17,24c0,2.209-0.105,4,1,4s2-1.791,2-4s-0.895-4-2-4S17,21.791,17,24z"/>
		<path fill="#FF7898" d="M20.729,25.058c-0.378-0.227-1.011,0.235-1.414,1.031c-0.202,0.399-0.307,0.806-0.315,1.142
			c-0.21,0.131-0.488,0.269-0.751,0.269c-0.499,0-1.134-0.5-1.134-0.5s-0.866,5,1.134,5c1.43,0,1.363-2.548,1.209-4.006
			c0.377,0.023,0.883-0.407,1.225-1.084C21.087,26.114,21.107,25.285,20.729,25.058z"/>
		<circle fill="#FFFFFF" cx="14" cy="11.051" r="0.25"/>
		<circle fill="#FFFFFF" cx="18" cy="11.051" r="0.25"/>
	</g>
</g>
</svg>
