<?xml version="1.0" encoding="utf-8"?>
<!-- Generator: Adobe Illustrator 23.0.6, SVG Export Plug-In . SVG Version: 6.00 Build 0)  -->
<svg version="1.1" xmlns="http://www.w3.org/2000/svg" xmlns:xlink="http://www.w3.org/1999/xlink" x="0px" y="0px" width="32px"
	 height="32px" viewBox="0 0 32 32" enable-background="new 0 0 32 32" xml:space="preserve">
<g id="labels">
</g>
<g id="icons">
	<g>
		<path fill="#604893" d="M16,21.809l-3.5,8l1.288,1.717c0.104,0.138,0.312,0.132,0.408-0.011L15,30.309l0.776,1.553
			C15.822,31.954,15.911,32,16,32V21.809z"/>
		<path fill="#58458C" d="M16.224,31.862L17,30.309l0.804,1.206c0.096,0.143,0.305,0.149,0.408,0.011l1.288-1.717l-3.5-8V32
			C16.089,32,16.178,31.954,16.224,31.862z"/>
		<path fill="#675099" d="M14,21c-0.885,2.027-3.496,5.073-5.443,6.595c-0.267,0.208-0.244,0.613,0.037,0.801l2.073,1.382
			c0.198,0.132,0.457,0.111,0.626-0.057c0.904-0.899,3.648-3.949,4.657-8.722H14z"/>
		<path fill="#604893" d="M18,21h-1.95c1.008,4.773,3.752,7.822,4.657,8.722c0.169,0.168,0.428,0.189,0.626,0.057l2.073-1.382
			c0.282-0.188,0.304-0.593,0.037-0.801C21.496,26.073,18.885,23.027,18,21z"/>
		<path fill="#6E57A0" d="M14.5,21c0,0-2.219,6.213-4.984,8.604c-0.245,0.212-0.209,0.6,0.061,0.78l2.012,1.341
			c0.231,0.154,0.541,0.096,0.693-0.137C13.05,30.403,15.187,26.694,16,21H14.5z"/>
		<path fill="#675099" d="M17.5,21c0,0,2.219,6.213,4.984,8.604c0.245,0.212,0.209,0.6-0.061,0.78l-2.012,1.341
			c-0.231,0.154-0.541,0.096-0.693-0.137C18.95,30.403,16.813,26.694,16,21H17.5z"/>
		<path fill="#604893" d="M16,19c-1.933,0-3,0.895-3,2c0,1.105,1.067,2,3,2V19z"/>
		<path fill="#58458C" d="M19,21c0-1.105-1.067-2-3-2v4C17.933,23,19,22.105,19,21z"/>
		<ellipse fill="#E55D53" cx="14" cy="22.5" rx="0.5" ry="1"/>
		<ellipse fill="#DD564C" cx="18" cy="22.5" rx="0.5" ry="1"/>
		<path fill="#E7685F" d="M16,21c-0.552,0-1,0.672-1,1.5s0.448,1.5,1,1.5V21z"/>
		<path fill="#E55D53" d="M17,22.5c0-0.828-0.448-1.5-1-1.5v3C16.552,24,17,23.328,17,22.5z"/>
		<path fill="#945BA0" d="M7,13l-0.819,1.638C6.098,14.804,6.219,15,6.405,15H7.75C7.888,15,8,15.112,8,15.25v1.403
			c0,0.171,0.167,0.291,0.329,0.237L11,16v-3H7z"/>
		<path fill="#8C5699" d="M25,13l0.819,1.638C25.902,14.804,25.781,15,25.595,15H24.25C24.112,15,24,15.112,24,15.25v1.403
			c0,0.171-0.167,0.291-0.329,0.237L21,16v-3H25z"/>
		<path fill="#604893" d="M16,10c-3.866,0-7,1.686-7,5s3.134,5,7,5V10z"/>
		<path fill="#58458C" d="M23,15c0-3.314-3.134-5-7-5v10C19.866,20,23,18.314,23,15z"/>
		<ellipse fill="#FFD04D" cx="19.5" cy="14" rx="2.5" ry="2"/>
		<ellipse fill="#FFD96C" cx="12.5" cy="14" rx="2.5" ry="2"/>
		<circle fill="#E7685F" cx="12.5" cy="14.5" r="1.5"/>
		<circle fill="#E55D53" cx="19.5" cy="14.5" r="1.5"/>
		<ellipse fill="#373F3F" cx="12.5" cy="14" rx="0.5" ry="1"/>
		<ellipse fill="#2B3332" cx="19.5" cy="14" rx="0.5" ry="1"/>
		<path fill="#675099" d="M16,17.108c-0.214,0-0.427,0.034-0.632,0.103l-1.673,0.557c-0.449,0.15-0.936,0.135-1.375-0.04
			l-3.068-1.227C10.06,18.819,12.771,20,16,20V17.108z"/>
		<path fill="#604893" d="M22.748,16.501l-3.068,1.227c-0.439,0.176-0.927,0.19-1.375,0.04l-1.673-0.557
			c-0.205-0.068-0.419-0.103-0.632-0.103V20C19.229,20,21.94,18.819,22.748,16.501z"/>
		<polygon fill="#675099" points="16,2 13.097,5.839 10,11 16,11 		"/>
		<polygon fill="#604893" points="22,11 18.903,5.839 16,2 16,11 		"/>
		<path fill="#6E57A0" d="M16,11H5l1,3h7.283c0.472,0,0.937,0.11,1.359,0.321l0.911,0.456c0.141,0.07,0.294,0.106,0.447,0.106V11z"
			/>
		<path fill="#675099" d="M16,14.882c0.153,0,0.306-0.035,0.447-0.106l0.911-0.456C17.78,14.11,18.246,14,18.717,14H26l1-3H16
			V14.882z"/>
		<path fill="#B370B9" d="M16,0.207c-0.128,0-0.256,0.049-0.354,0.146L14,2h-2.396c-0.223,0-0.334,0.269-0.177,0.427L13,4
			l-1.502,0.751c-0.193,0.096-0.181,0.376,0.019,0.456l1.58,0.632L14,5l0.553,1.106c0.184,0.369,0.71,0.369,0.894,0L16,5V0.207z"/>
		<path fill="#A366AD" d="M16.553,6.106c0.184,0.369,0.71,0.369,0.894,0L18,5l0.903,0.839l1.58-0.632
			c0.2-0.08,0.212-0.359,0.019-0.456L19,4l1.573-1.573C20.731,2.269,20.619,2,20.396,2H18l-1.646-1.646
			C16.256,0.256,16.128,0.207,16,0.207V5L16.553,6.106z"/>
		<path fill="#B370B9" d="M24,11l2.573-2.573C26.731,8.269,27,8.381,27,8.604V10h2.396c0.223,0,0.334,0.269,0.177,0.427L28,12
			l0.819,1.638C28.902,13.804,28.781,14,28.595,14H25l0.888-1.776c0.062-0.123,0.012-0.274-0.112-0.335L24,11z"/>
		<path fill="#C27BC6" d="M8,11L5.427,8.427C5.269,8.269,5,8.381,5,8.604V10H2.604c-0.223,0-0.334,0.269-0.177,0.427L4,12
			l-0.819,1.638C3.098,13.804,3.219,14,3.405,14H7l-0.888-1.776C6.05,12.1,6.1,11.95,6.224,11.888L8,11z"/>
	</g>
</g>
</svg>
