<?xml version="1.0" encoding="utf-8"?>
<!-- Generator: Adobe Illustrator 23.0.6, SVG Export Plug-In . SVG Version: 6.00 Build 0)  -->
<svg version="1.1" xmlns="http://www.w3.org/2000/svg" xmlns:xlink="http://www.w3.org/1999/xlink" x="0px" y="0px" width="32px"
	 height="32px" viewBox="0 0 32 32" enable-background="new 0 0 32 32" xml:space="preserve">
<g id="labels">
</g>
<g id="icons">
	<g>
		<path fill="#373F3F" d="M16,27h-2v2l-3.108,0.777c-0.566,0.142-1.043,0.524-1.304,1.046l-0.227,0.454
			C9.196,31.609,9.437,32,9.809,32H16V27z"/>
		<path fill="#2B3332" d="M22.411,30.823c-0.261-0.522-0.737-0.904-1.304-1.046L18,29v-2h-2v5h6.191
			c0.372,0,0.613-0.391,0.447-0.724L22.411,30.823z"/>
		<path fill="#BF538E" d="M16,25.277C15.705,25.106,15.366,25,15,25c-1.105,0-2,0.895-2,2c0,1.105,0.895,2,2,2
			c0.366,0,0.705-0.106,1-0.277V25.277z"/>
		<path fill="#B54E8B" d="M16,25.277C16.295,25.106,16.634,25,17,25c1.105,0,2,0.895,2,2c0,1.105-0.895,2-2,2
			c-0.366,0-0.705-0.106-1-0.277V25.277z"/>
		<path fill="#B54E8B" d="M10.816,13.763c0,0-2.489,0.453-4.345,2.647c-0.848-1.067-1.787-1.97-2.266-1.49
			c-0.39,0.39-0.17,1.387,0.241,2.459c-0.841-1.053-1.766-1.934-2.241-1.459c-0.39,0.39-0.17,1.387,0.241,2.459
			c-0.841-1.053-1.766-1.934-2.241-1.459c-1,1,2,6,2,6c2.635,4.375,10,1,10,1L10.816,13.763z"/>
		<path fill="#AD4586" d="M21.184,13.763c0,0,2.489,0.453,4.345,2.647c0.848-1.067,1.787-1.97,2.266-1.49
			c0.39,0.39,0.17,1.387-0.241,2.459c0.841-1.053,1.766-1.934,2.241-1.459c0.39,0.39,0.17,1.387-0.241,2.459
			c0.841-1.053,1.766-1.934,2.241-1.459c1,1-2,6-2,6c-2.635,4.375-10,1-10,1L21.184,13.763z"/>
		<path fill="#BF538E" d="M16,1.025C15.598,0.411,15.24,0,15,0c-1,0-4,7-4,7h2h3V1.025z"/>
		<path fill="#C25E94" d="M16,11c-4.418,0-7,5.582-7,10s2.582,6,7,6V11z"/>
		<path fill="#BF538E" d="M23,21c0-4.418-2.582-10-7-10v16C20.418,27,23,25.418,23,21z"/>
		<path fill="#B54E8B" d="M19,7h2c0,0-3-7-4-7c-0.24,0-0.598,0.411-1,1.025V7H19z"/>
		<path fill="#F7F7F7" d="M12,32h-2c0-0.552,0.448-1,1-1S12,31.448,12,32z"/>
		<path fill="#F7F7F7" d="M15,32h-2c0-0.552,0.448-1,1-1S15,31.448,15,32z"/>
		<path fill="#EDEEEE" d="M19,32h-2c0-0.552,0.448-1,1-1S19,31.448,19,32z"/>
		<path fill="#EDEEEE" d="M22,32h-2c0-0.552,0.448-1,1-1S22,31.448,22,32z"/>
		<path fill="#B54E8B" d="M16,6c-3.314,0-6,1.686-6,5c0,3.314,2.686,5,6,5V6z"/>
		<path fill="#AD4586" d="M22,11c0-3.314-2.686-5-6-5v10C19.314,16,22,14.314,22,11z"/>
		<path fill="#FFD04D" d="M18,10c0-1.105-0.895-2-2-2v4C17.105,12,18,11.105,18,10z"/>
		<path fill="#FFD96C" d="M16,8c-1.105,0-2,0.895-2,2c0,1.105,0.895,2,2,2V8z"/>
		<path fill="#F7F7F7" d="M16,12.723c0,0-4.326-2.213-6.489,1.106s3.245,6.639,3.245,9.958c0,0,0.855-0.043,1.082-1.106
			c0,0,0.554,2.429,2.163,3.319V12.723z"/>
		<path fill="#EDEEEE" d="M16,12.723c0,0,4.326-2.213,6.489,1.106s-3.245,6.639-3.245,9.958c0,0-0.855-0.043-1.082-1.106
			c0,0-0.554,2.429-2.163,3.319V12.723z"/>
		<path fill="#FFD96C" d="M17.908,9.433C17.663,8.606,16.906,8,16,8v3C16.389,11,17.05,9.817,17.908,9.433z"/>
		<path fill="#FFE28A" d="M14.092,9.433C14.337,8.606,15.094,8,16,8v3C15.611,11,14.95,9.817,14.092,9.433z"/>
		<path fill="#FFFFFF" d="M13.5,9.5c0,0.828-0.672,1.5-1.5,1.5s-1.5-0.672-1.5-1.5S13.5,8.672,13.5,9.5z"/>
		<path fill="#89283B" d="M11.361,8.934C11.292,9.097,11.25,9.285,11.25,9.5c0,0.552,0.198,1,0.75,1s0.75-0.448,0.75-1
			c0-0.215-0.042-0.403-0.111-0.566C12.237,8.863,11.763,8.863,11.361,8.934z"/>
		<path fill="#F7F7F7" d="M21.5,9.5c0,0.828-0.672,1.5-1.5,1.5s-1.5-0.672-1.5-1.5S21.5,8.672,21.5,9.5z"/>
		<path fill="#7F1E32" d="M19.361,8.934C19.292,9.097,19.25,9.285,19.25,9.5c0,0.552,0.198,1,0.75,1s0.75-0.448,0.75-1
			c0-0.215-0.042-0.403-0.111-0.566C20.237,8.863,19.763,8.863,19.361,8.934z"/>
		<path fill="#C25E94" d="M16,6c-3.381,0-8.191-0.714-9.599-0.936C6.216,5.035,6.071,5.213,6.13,5.391C6.65,6.949,8.108,8,9.75,8H16
			V6z"/>
		<path fill="#BF538E" d="M22.25,8c1.642,0,3.1-1.051,3.62-2.609c0.059-0.178-0.086-0.356-0.271-0.327C24.191,5.286,19.381,6,16,6v2
			H22.25z"/>
	</g>
</g>
</svg>
