<?xml version="1.0" encoding="utf-8"?>
<!-- Generator: Adobe Illustrator 23.0.6, SVG Export Plug-In . SVG Version: 6.00 Build 0)  -->
<svg version="1.1" xmlns="http://www.w3.org/2000/svg" xmlns:xlink="http://www.w3.org/1999/xlink" x="0px" y="0px" width="32px"
	 height="32px" viewBox="0 0 32 32" enable-background="new 0 0 32 32" xml:space="preserve">
<g id="labels">
</g>
<g id="icons">
	<g>
		<polygon fill="#87A1B7" points="16,19 15,19 13,27 16,27 		"/>
		<polygon fill="#7C98B0" points="16,27 19,27 17,19 16,19 		"/>
		<path fill="#6789A5" d="M31,21h-7c-0.552,0-1-0.447-1-1s0.448-1,1-1h7c0.552,0,1,0.447,1,1S31.552,21,31,21z"/>
		<path fill="#6789A5" d="M31,17h-7c-0.552,0-1-0.447-1-1s0.448-1,1-1h7c0.552,0,1,0.447,1,1S31.552,17,31,17z"/>
		<path fill="#6789A5" d="M31,13h-7c-0.552,0-1-0.447-1-1s0.448-1,1-1h7c0.552,0,1,0.447,1,1S31.552,13,31,13z"/>
		<path fill="#7290AB" d="M16.001,29c-0.357,0-0.703-0.192-0.883-0.529c-0.26-0.487-0.076-1.093,0.412-1.354l15-8
			c0.488-0.257,1.093-0.074,1.353,0.412c0.26,0.487,0.076,1.093-0.412,1.354l-15,8C16.321,28.962,16.16,29,16.001,29z"/>
		<path fill="#7290AB" d="M24.001,21c-0.347,0-0.685-0.181-0.869-0.504c-0.274-0.479-0.107-1.09,0.372-1.364l7-4
			c0.479-0.274,1.091-0.107,1.364,0.372c0.274,0.479,0.107,1.09-0.372,1.364l-7,4C24.34,20.958,24.169,21,24.001,21z"/>
		<path fill="#7290AB" d="M24.001,17c-0.347,0-0.685-0.181-0.869-0.504c-0.274-0.479-0.107-1.09,0.372-1.364l7-4
			c0.479-0.274,1.091-0.106,1.364,0.372c0.274,0.479,0.107,1.09-0.372,1.364l-7,4C24.34,16.958,24.169,17,24.001,17z"/>
		<path fill="#7290AB" d="M24.001,13c-0.304,0-0.604-0.138-0.801-0.4c-0.332-0.441-0.242-1.068,0.2-1.399L27,8.5V5
			c0-0.553,0.448-1,1-1s1,0.447,1,1v3c0,0.944-0.445,1.833-1.2,2.4l-3.2,2.4C24.42,12.935,24.209,13,24.001,13z"/>
		<path fill="#DADDDC" d="M29.298,3.49C29.423,3.271,29.5,3.02,29.5,2.75c0-0.517-0.261-0.972-0.659-1.242
			C28.933,1.357,29,1.19,29,1c0-0.552-0.448-1-1-1s-1,0.448-1,1c0,0.19,0.067,0.357,0.159,0.508C26.761,1.778,26.5,2.233,26.5,2.75
			c0,0.27,0.077,0.521,0.202,0.74C26.276,3.856,26,4.393,26,5c0,1.105,0.895,2,2,2s2-0.895,2-2C30,4.393,29.724,3.856,29.298,3.49z"
			/>
		<ellipse fill="#7C98B0" cx="19" cy="28.5" rx="3" ry="2.5"/>
		<path fill="#7C98B0" d="M18.536,31c-0.28,0-0.534-0.214-0.536-0.495c0-0.002,0-0.004,0-0.005c0-0.828,1.343-1.5,3-1.5
			s3,0.672,3,1.5c0,0.002,0,0.004,0,0.005C23.998,30.786,23.744,31,23.464,31H18.536z"/>
		<ellipse fill="#87A1B7" cx="13" cy="28.5" rx="3" ry="2.5"/>
		<path fill="#87A1B7" d="M13.464,31c0.28,0,0.534-0.214,0.536-0.495c0-0.002,0-0.004,0-0.005c0-0.828-1.343-1.5-3-1.5
			s-3,0.672-3,1.5c0,0.002,0,0.004,0,0.005C8.002,30.786,8.256,31,8.536,31H13.464z"/>
		
			<ellipse transform="matrix(0.8618 -0.5073 0.5073 0.8618 -9.9867 10.3514)" fill="#87A1B7" cx="14" cy="23.5" rx="1.676" ry="2.727"/>
		
			<ellipse transform="matrix(0.5073 -0.8618 0.8618 0.5073 -11.3831 27.0894)" fill="#7C98B0" cx="18" cy="23.5" rx="2.727" ry="1.676"/>
		<path fill="#87A1B7" d="M24,0c1,0,4,6,4,11s-4,9-12,9V5C24,5,23,0,24,0z"/>
		<path fill="#E3E5E5" d="M25,5c-1.347,0-2.564-0.538-3.463-1.404C23.531,2.117,23.349,0,24,0c0.578,0,1.821,2.007,2.77,4.662
			C26.218,4.872,25.625,5,25,5z"/>
		<path fill="#DD7C8A" d="M25.832,7.997c-1.623-0.065-3.047-1.06-3.921-2.553c-0.068-0.117-0.021-0.269,0.094-0.34
			c0.987-0.615,1.624-1.355,2.055-2.053c0.101-0.164,0.347-0.151,0.431,0.022c0.575,1.188,1.201,2.843,1.599,4.608
			C25.976,7.819,25.943,7.859,25.832,7.997z"/>
		<path fill="#96ADBF" d="M8,0C7,0,4,6,4,11s4,9,12,9V5C8,5,9,0,8,0z"/>
		<path fill="#EDEEEE" d="M16,10c-2.485,0-4,1.791-4,4c0,2.209,1.515,4,4,4V10z"/>
		<path fill="#E3E5E5" d="M20,14c0-2.209-1.515-4-4-4v8C18.485,18,20,16.209,20,14z"/>
		<ellipse fill="#FFD04D" cx="21" cy="11" rx="3" ry="2"/>
		<ellipse fill="#1B6A89" cx="21" cy="11" rx="1.5" ry="2"/>
		<path fill="#DE8490" d="M21,9c-1.657,0-3,1.6-3,2h6C24,10.6,22.657,9,21,9z"/>
		<ellipse fill="#FFD96C" cx="11" cy="11" rx="3" ry="2"/>
		<ellipse fill="#1D7293" cx="11" cy="11" rx="1.5" ry="2"/>
		<path fill="#E08C96" d="M11,9c-1.657,0-3,1.6-3,2h6C14,10.6,12.657,9,11,9z"/>
		<path fill="#EDEEEE" d="M7,5c1.347,0,2.564-0.538,3.463-1.404C8.469,2.117,8.651,0,8,0C7.422,0,6.179,2.007,5.23,4.662
			C5.782,4.872,6.375,5,7,5z"/>
		<path fill="#DE8490" d="M6.168,7.997c1.623-0.065,3.047-1.06,3.921-2.553c0.068-0.117,0.021-0.269-0.094-0.34
			C9.009,4.488,8.372,3.748,7.942,3.05C7.84,2.886,7.595,2.899,7.511,3.072C6.936,4.26,6.31,5.915,5.913,7.681
			C6.024,7.819,6.057,7.859,6.168,7.997z"/>
		<path fill="#96ADBF" d="M14,23v3l-0.486-0.971c-0.284-0.568-0.975-0.798-1.543-0.514l-0.002,0.001
			c-0.545,0.272-0.783,0.922-0.543,1.482l2.26,5.273c0.19,0.443,0.626,0.73,1.108,0.73C15.46,32,16,31.46,16,30.795V24
			C15,24,14,23,14,23z"/>
		<path fill="#87A1B7" d="M18,23v3l0.486-0.971c0.284-0.568,0.975-0.798,1.543-0.514l0.002,0.001
			c0.545,0.272,0.783,0.922,0.543,1.482l-2.26,5.273c-0.19,0.443-0.626,0.73-1.108,0.73C16.54,32,16,31.46,16,30.795V26v-2
			C17,24,18,23,18,23z"/>
		<path fill="#EDEEEE" d="M15,30c-0.608,0-1.172,0.184-1.645,0.495l0.332,0.775c0.19,0.443,0.626,0.73,1.108,0.73
			C15.46,32,16,31.46,16,30.795v-0.611C15.686,30.072,15.353,30,15,30z"/>
		<path fill="#E3E5E5" d="M17,30c-0.353,0-0.686,0.072-1,0.184v0.611C16,31.46,16.54,32,17.205,32c0.482,0,0.918-0.287,1.108-0.73
			l0.332-0.775C18.172,30.184,17.608,30,17,30z"/>
		<path fill="#E3E5E5" d="M9.908,31C9.964,30.843,10,30.676,10,30.5c0-0.52-0.265-0.978-0.667-1.247C8.53,29.522,8,29.98,8,30.5
			c0,0.002,0,0.004,0,0.005C8.002,30.786,8.256,31,8.536,31H9.908z"/>
		<path fill="#DADDDC" d="M22.667,29.253C22.265,29.522,22,29.98,22,30.5c0,0.176,0.036,0.343,0.092,0.5h1.372
			c0.28,0,0.534-0.214,0.536-0.495c0-0.002,0-0.004,0-0.005C24,29.98,23.47,29.522,22.667,29.253z"/>
		<path fill="#E3E5E5" d="M14.5,16.5c-1.116,0-1.953-0.828-2.31-1.254C12.655,16.841,14.008,18,16,18v-5C16,13,16,16.5,14.5,16.5z"
			/>
		<path fill="#DADDDC" d="M17.5,16.5c1.116,0,1.953-0.828,2.31-1.254C19.345,16.841,17.992,18,16,18v-5C16,13,16,16.5,17.5,16.5z"/>
		<path fill="#373F3F" d="M16,12c-0.552,0-1,0.224-1,0.5c0,0.276,0.448,0.5,1,0.5V12z"/>
		<path fill="#2B3332" d="M17,12.5c0-0.276-0.448-0.5-1-0.5v1C16.552,13,17,12.776,17,12.5z"/>
		<g>
			<path fill="#373F3F" d="M1,16.25c-0.076,0-0.151-0.034-0.2-0.1c-0.083-0.111-0.06-0.268,0.05-0.351
				c4.066-3.049,9.191-1.053,9.243-1.032c0.128,0.052,0.19,0.197,0.139,0.325c-0.052,0.128-0.199,0.188-0.325,0.14
				c-0.05-0.021-4.92-1.911-8.757,0.968C1.105,16.233,1.052,16.25,1,16.25z"/>
			<path fill="#373F3F" d="M1.49,19.75c-0.054,0-0.108-0.018-0.153-0.053c-0.109-0.085-0.129-0.242-0.044-0.351
				c3.119-4.012,8.591-3.438,8.645-3.43c0.137,0.016,0.236,0.14,0.22,0.276c-0.016,0.138-0.134,0.231-0.277,0.22
				c-0.052-0.006-5.25-0.547-8.193,3.24C1.638,19.717,1.564,19.75,1.49,19.75z"/>
		</g>
		<g>
			<path fill="#2B3332" d="M31,16.25c-0.052,0-0.105-0.017-0.15-0.05c-3.838-2.879-8.708-0.989-8.757-0.968
				c-0.126,0.048-0.273-0.012-0.325-0.14s0.011-0.273,0.139-0.325c0.052-0.021,5.177-2.018,9.243,1.032
				c0.11,0.083,0.133,0.239,0.05,0.351C31.151,16.216,31.076,16.25,31,16.25z"/>
			<path fill="#2B3332" d="M30.51,19.75c-0.074,0-0.148-0.033-0.197-0.097c-2.949-3.793-8.142-3.244-8.193-3.24
				c-0.135,0.013-0.261-0.082-0.277-0.22c-0.016-0.137,0.083-0.261,0.22-0.276c0.054-0.01,5.526-0.582,8.645,3.43
				c0.085,0.108,0.065,0.266-0.044,0.351C30.618,19.732,30.564,19.75,30.51,19.75z"/>
		</g>
	</g>
</g>
</svg>
