<?xml version="1.0" encoding="utf-8"?>
<!-- Generator: Adobe Illustrator 23.0.6, SVG Export Plug-In . SVG Version: 6.00 Build 0)  -->
<svg version="1.1" xmlns="http://www.w3.org/2000/svg" xmlns:xlink="http://www.w3.org/1999/xlink" x="0px" y="0px" width="32px"
	 height="32px" viewBox="0 0 32 32" enable-background="new 0 0 32 32" xml:space="preserve">
<g id="labels">
</g>
<g id="icons">
	<g>
		<g>
			<path fill="#E55D53" d="M29.177,3.835c-1.196,0.32-2.988,1.84-2.668,3.036s2.632,1.615,3.828,1.295
				c1.196-0.32,1.906-1.55,1.585-2.746S30.373,3.515,29.177,3.835z"/>
			<path fill="#E55D53" d="M21.083,2.823c0.32,1.196,1.84,2.988,3.036,2.668s1.615-2.632,1.295-3.828s-1.55-1.906-2.746-1.585
				S20.762,1.627,21.083,2.823z"/>
			<path fill="#E7685F" d="M15.758,20.733l1.732,1l10.163-11.565c1.708-1.943,1.211-4.962-1.029-6.256l0,0
				c-2.24-1.293-5.103-0.214-5.932,2.236L15.758,20.733z"/>
			<path fill="#E3E5E5" d="M25.259,1.276c-0.663,1.148-0.831,3.677,0.365,4.368c1.196,0.69,3.302-0.72,3.965-1.868
				c0.663-1.148,0.231-2.638-0.965-3.328C27.428-0.242,25.922,0.129,25.259,1.276z"/>
			<path fill="#E3E5E5" d="M20.624,14.304c-0.771-0.445-1.599-0.693-2.43-0.772l1.586-4.689c1.145,0.148,2.281,0.518,3.344,1.132
				c1.063,0.613,1.951,1.412,2.652,2.33l-3.268,3.719C22.024,15.342,21.394,14.749,20.624,14.304z"/>
		</g>
		<g>
			<path fill="#E7685F" d="M2.823,3.835c1.196,0.32,2.988,1.84,2.668,3.036S2.858,8.486,1.662,8.166
				c-1.196-0.32-1.906-1.55-1.585-2.746S1.627,3.515,2.823,3.835z"/>
			<path fill="#E7685F" d="M10.917,2.823c-0.32,1.196-1.84,2.988-3.036,2.668S6.266,2.858,6.586,1.662s1.55-1.906,2.746-1.585
				S11.238,1.627,10.917,2.823z"/>
			<path fill="#E9746A" d="M16.242,20.733l-1.732,1L4.347,10.168C2.639,8.225,3.136,5.205,5.376,3.912l0,0
				c2.24-1.293,5.103-0.214,5.932,2.236L16.242,20.733z"/>
			<path fill="#EDEEEE" d="M6.741,1.276c0.663,1.148,0.831,3.677-0.365,4.368s-3.302-0.72-3.965-1.868S2.18,1.138,3.376,0.448
				S6.078,0.129,6.741,1.276z"/>
			<path fill="#EDEEEE" d="M11.376,14.304c0.771-0.445,1.599-0.693,2.43-0.772L12.22,8.843c-1.145,0.148-2.281,0.518-3.344,1.132
				s-1.951,1.412-2.652,2.33l3.268,3.719C9.976,15.342,10.606,14.749,11.376,14.304z"/>
		</g>
		<path fill="#FFD04D" d="M16,13c-1.105,0-2,0.895-2,2c0,1.105,0.895,2,2,2V13z"/>
		<path fill="#F7C845" d="M18,15c0-1.105-0.895-2-2-2v4C17.105,17,18,16.105,18,15z"/>
		<path fill="#FFD04D" d="M24,23.305l4.032-0.672C29.062,22.461,30,23.255,30,24.3v0.01c0,1.044-0.938,1.839-1.968,1.667L24,25.305
			V23.305z"/>
		<path fill="#FFD96C" d="M8,23.305l-4.032-0.672C2.938,22.461,2,23.255,2,24.3v0.01c0,1.044,0.938,1.839,1.968,1.667L8,25.305
			V23.305z"/>
		<path fill="#FFD04D" d="M25,23.5c0-4.779-4.029-7.5-9-7.5v15C20.971,31,25,28.279,25,23.5z"/>
		<path fill="#FFD96C" d="M16,16c-4.971,0-9,2.721-9,7.5c0,4.779,4.029,7.5,9,7.5V16z"/>
		<ellipse fill="#373F3F" cx="12.25" cy="21.75" rx="0.75" ry="1.25"/>
		<ellipse fill="#2B3332" cx="19.75" cy="21.75" rx="0.75" ry="1.25"/>
		
			<ellipse transform="matrix(0.377 -0.9262 0.9262 0.377 -21.2449 28.4161)" fill="#FFE28A" cx="10.5" cy="30" rx="1.885" ry="2.588"/>
		
			<ellipse transform="matrix(0.9262 -0.377 0.377 0.9262 -9.723 10.3182)" fill="#FFD96C" cx="21.5" cy="30" rx="2.588" ry="1.885"/>
		<path fill="#373F3F" d="M16,27c-1.31,0-2.512-0.566-3.141-0.921C12.521,25.152,11.57,23,10,23c-1.105,0-2,0.895-2,2
			c0,1.105,0.895,2,2,2c1.44,0,2.353-0.258,2.756-0.403C13.463,26.98,14.666,27.5,16,27.5V27z"/>
		<path fill="#2B3332" d="M22,23c-1.571,0-2.522,2.153-2.859,3.08C18.513,26.435,17.313,27,16,27v0.5
			c1.334,0,2.537-0.52,3.244-0.903C19.647,26.742,20.56,27,22,27c1.105,0,2-0.895,2-2C24,23.895,23.105,23,22,23z"/>
	</g>
</g>
</svg>
