<?xml version="1.0" encoding="utf-8"?>
<!-- Generator: Adobe Illustrator 23.0.6, SVG Export Plug-In . SVG Version: 6.00 Build 0)  -->
<svg version="1.1" xmlns="http://www.w3.org/2000/svg" xmlns:xlink="http://www.w3.org/1999/xlink" x="0px" y="0px" width="32px"
	 height="32px" viewBox="0 0 32 32" enable-background="new 0 0 32 32" xml:space="preserve">
<g id="labels">
</g>
<g id="icons">
	<g>
		<path fill="#79C6C1" d="M22,13h-6v17c4.355,0,7.13-1.054,8.323-1.631c0.406-0.196,0.621-0.648,0.532-1.09L22,13z"/>
		<path fill="#8FCEC9" d="M16,13h-6L7.144,27.278c-0.089,0.442,0.126,0.894,0.532,1.09C8.87,28.946,11.645,30,16,30V13z"/>
		<path fill="#79C6C1" d="M14.324,2.309C14.073,1.83,13.578,1.5,13,1.5c-0.828,0-1.5,0.672-1.5,1.5c0,0.237,0.06,0.459,0.158,0.658
			C11.459,3.56,11.237,3.5,11,3.5c-0.828,0-1.5,0.672-1.5,1.5c0,0.782,0.601,1.417,1.365,1.486
			c-0.538,1.779-2.912,7.987-9.959,8.482C0.392,15.005,0,15.447,0,15.962v2.914c0,0.625,0.561,1.098,1.175,0.986
			C3.572,19.423,8.967,17.597,11,10h4V7c0-0.552,0.448-1,1-1V2C15.409,2,14.85,2.121,14.324,2.309z"/>
		<path fill="#67BFB5" d="M31.094,14.969c-7.047-0.495-9.42-6.704-9.959-8.482C21.899,6.417,22.5,5.782,22.5,5
			c0-0.828-0.672-1.5-1.5-1.5c-0.237,0-0.459,0.06-0.658,0.158C20.44,3.459,20.5,3.237,20.5,3c0-0.828-0.672-1.5-1.5-1.5
			c-0.578,0-1.073,0.33-1.324,0.809C17.15,2.121,16.591,2,16,2v4c0.552,0,1,0.448,1,1v3h4c2.033,7.597,7.428,9.423,9.825,9.862
			C31.439,19.974,32,19.5,32,18.876v-2.914C32,15.447,31.608,15.005,31.094,14.969z"/>
		<path fill="#3B8FA3" d="M16,4c-1.657,0-3,1.343-3,3v3h2V7c0-0.552,0.448-1,1-1V4z"/>
		<path fill="#348B99" d="M17,7v3h2V7c0-1.657-1.343-3-3-3v2C16.552,6,17,6.448,17,7z"/>
		<path fill="#348B99" d="M27.339,18.624c0.973,0.526,1.894,0.851,2.661,1.051v-4.852c-0.735-0.122-1.414-0.306-2.04-0.545
			L27.339,18.624z"/>
		<path fill="#348B99" d="M21.482,11.518c0.372,1.023,0.812,1.915,1.294,2.706l1.945-1.945c-0.745-0.681-1.359-1.418-1.849-2.151
			L21.482,11.518z"/>
		<path fill="#3B8FA3" d="M2,19.675c0.766-0.2,1.687-0.525,2.661-1.051L4.04,14.278C3.414,14.516,2.735,14.701,2,14.823V19.675z"/>
		<path fill="#3B8FA3" d="M7.279,12.279l1.945,1.945c0.482-0.791,0.922-1.683,1.294-2.706l-1.39-1.39
			C8.637,10.86,8.023,11.598,7.279,12.279z"/>
		<circle fill="#3B8FA3" cx="13" cy="3" r="0.5"/>
		<circle fill="#3B8FA3" cx="11" cy="5" r="0.5"/>
		<circle fill="#348B99" cx="19" cy="3" r="0.5"/>
		<circle fill="#348B99" cx="21" cy="5" r="0.5"/>
		<path fill="#3B8FA3" d="M19,19h4.2l-0.8-4H19c-0.552,0-1,0.448-1,1v2C18,18.552,18.448,19,19,19z"/>
		<path fill="#4295AC" d="M13,15H9.6l-0.8,4H13c0.552,0,1-0.448,1-1v-2C14,15.448,13.552,15,13,15z"/>
		<path fill="#4295AC" d="M14,24.914V26c0,1.105-0.895,2-2,2s-2-0.895-2-2v-1.771c-0.9-0.254-1.601-0.528-2.095-0.754l-0.761,3.803
			c-0.089,0.442,0.126,0.894,0.532,1.09C8.87,28.946,11.645,30,16,30v-5C15.286,25,14.629,24.964,14,24.914z"/>
		<circle fill="#E55D53" cx="12" cy="26" r="1"/>
		<path fill="#3B8FA3" d="M24.856,27.278l-0.761-3.803C23.601,23.7,22.9,23.975,22,24.229V26c0,1.105-0.895,2-2,2s-2-0.895-2-2
			v-1.086C17.371,24.964,16.714,25,16,25v5c4.355,0,7.13-1.054,8.323-1.631C24.73,28.172,24.944,27.721,24.856,27.278z"/>
		<circle fill="#DD564C" cx="20" cy="26" r="1"/>
		<path fill="#4295AC" d="M21.5,18h-2c-0.276,0-0.5-0.224-0.5-0.5v-1c0-0.276,0.224-0.5,0.5-0.5h2c0.276,0,0.5,0.224,0.5,0.5v1
			C22,17.776,21.776,18,21.5,18z"/>
		<path fill="#47A1B4" d="M12.5,18h-2c-0.276,0-0.5-0.224-0.5-0.5v-1c0-0.276,0.224-0.5,0.5-0.5h2c0.276,0,0.5,0.224,0.5,0.5v1
			C13,17.776,12.776,18,12.5,18z"/>
		<path fill="#B6DDD9" d="M16,23.525c-0.714,0-1.371-0.036-2-0.086v1.475C14.629,24.964,15.286,25,16,25V23.525z"/>
		<path fill="#A7D8D3" d="M18,24.914v-1.475c-0.629,0.05-1.286,0.086-2,0.086V25C16.714,25,17.371,24.964,18,24.914z"/>
		<path fill="#B6DDD9" d="M16,10h-6c-0.552,0-1,0.448-1,1v1c0,0.552,0.448,1,1,1h6V10z"/>
		<path fill="#A7D8D3" d="M22,10h-6v3h6c0.552,0,1-0.448,1-1v-1C23,10.448,22.552,10,22,10z"/>
	</g>
</g>
</svg>
