<?xml version="1.0" encoding="utf-8"?>
<!-- Generator: Adobe Illustrator 23.0.6, SVG Export Plug-In . SVG Version: 6.00 Build 0)  -->
<svg version="1.1" xmlns="http://www.w3.org/2000/svg" xmlns:xlink="http://www.w3.org/1999/xlink" x="0px" y="0px" width="32px"
	 height="32px" viewBox="0 0 32 32" enable-background="new 0 0 32 32" xml:space="preserve">
<g id="labels">
</g>
<g id="icons">
	<g>
		<path fill="#FCD8DE" d="M15.7,21.1c-0.037,0.028-3.646,2.644-10.78,1.989C4.971,22.908,5,22.709,5,22.5C5,21.672,4.552,21,4,21
			s-1,0.672-1,1.5c0,0.797,0.416,1.442,0.939,1.491l-0.001,0.005c1.174,0.146,2.263,0.21,3.269,0.21
			c5.938,0,8.948-2.197,9.093-2.306L15.7,21.1z"/>
		<path fill="#FBCFD6" d="M29,22.5c0-0.828-0.448-1.5-1-1.5s-1,0.672-1,1.5c0,0.209,0.029,0.408,0.08,0.588
			c-7.103,0.652-10.744-1.96-10.781-1.989L15.7,21.9c0.145,0.108,3.154,2.306,9.093,2.306c1.006,0,2.095-0.063,3.269-0.21
			l-0.001-0.005C28.584,23.942,29,23.297,29,22.5z"/>
		<path fill="#5B689D" d="M16,1.5L16,3c0,0-6,0.429-6,3c0,0.836,0.638,1.442,1.493,1.884C8.273,9.245,6.05,12.111,6,16h10V1.5z"/>
		<path fill="#515E91" d="M23.205,16H26c-0.02-1.533-0.386-2.901-1.008-4.088c-0.061-3.943-4.021-5.697-6.667-6.429
			C19.206,5.148,20,4.609,20,3.75c0-1.929-4-2.25-4-2.25V16H23.205z"/>
		<path fill="#515E91" d="M16,23c0,0-4,1.791-4,4c0,2.209,1,5,2,5c0.394,0,0.787-0.437,1.12-1.098C15.4,30.96,15.692,31,16,31V23z"
			/>
		<path fill="#495587" d="M16.88,30.902C17.213,31.563,17.606,32,18,32c1,0,2-2.791,2-5c0-2.209-4-4-4-4v8
			C16.308,31,16.6,30.96,16.88,30.902z"/>
		<path fill="#FCD8DE" d="M16,21c0,0-2.896,1.3-4.278,3.14c0,0-2.722,0.756-2.722,1.86c0,1.105,0.895,2,2,2
			c0.023,0,0.045-0.006,0.069-0.007C11.289,28.858,12.067,29.5,13,29.5c0.493,0,0.939-0.185,1.288-0.481
			C14.636,29.604,15.269,30,16,30V21z"/>
		<path fill="#FBCFD6" d="M17.712,29.019C18.061,29.315,18.507,29.5,19,29.5c0.933,0,1.711-0.642,1.931-1.507
			C20.955,27.994,20.977,28,21,28c1.105,0,2-0.895,2-2c0-1.105-2.722-1.86-2.722-1.86C18.896,22.3,16,21,16,21v9
			C16.731,30,17.364,29.604,17.712,29.019z"/>
		<ellipse fill="#515E91" cx="25" cy="15.5" rx="3" ry="3.5"/>
		<ellipse fill="#5B689D" cx="7" cy="15.5" rx="3" ry="3.5"/>
		<path fill="#FF8D6E" d="M16,23c-1.105,0-2,0.895-2,2c0,1.105,0.895,2,2,2V23z"/>
		<path fill="#FF805D" d="M18,25c0-1.105-0.895-2-2-2v4C17.105,27,18,26.105,18,25z"/>
		<path fill="#FDE2E6" d="M16,9c-4.418,0-8,2.659-8,6.882C8,20.106,11.582,22,16,22V9z"/>
		<path fill="#FCD8DE" d="M16,9v13c4.418,0,8-1.894,8-6.118C24,11.659,20.418,9,16,9z"/>
		<ellipse fill="#373F3F" cx="11.5" cy="15" rx="1.5" ry="2"/>
		<ellipse fill="#FFFFFF" cx="11.5" cy="15" rx="0.5" ry="1"/>
		<ellipse fill="#2B3332" cx="20.5" cy="15" rx="1.5" ry="2"/>
		<ellipse fill="#F7F7F7" cx="20.5" cy="15" rx="0.5" ry="1"/>
		<path fill="#FF9A7E" d="M16,14c-1.381,0-2.5,0.674-2.5,2c0,1.325,1.119,2,2.5,2V14z"/>
		<path fill="#FF8D6E" d="M18.5,16c0-1.326-1.119-2-2.5-2v4C17.381,18,18.5,17.325,18.5,16z"/>
		<path fill="#F7F7F7" d="M16,0c-1.105,0-2,0.895-2,2c0,1.105,0.895,2,2,2V0z"/>
		<path fill="#EDEEEE" d="M18,2c0-1.105-0.895-2-2-2v4C17.105,4,18,3.105,18,2z"/>
		<path fill="#ECB7BE" d="M16,19h-1.725c-0.152,0-0.271,0.134-0.248,0.285C14.113,19.837,14.475,21,16,21V19z"/>
		<path fill="#E8AAB1" d="M16,21c1.525,0,1.887-1.163,1.973-1.715C17.997,19.134,17.878,19,17.725,19H16V21z"/>
	</g>
</g>
</svg>
