<?xml version="1.0" encoding="utf-8"?>
<!-- Generator: Adobe Illustrator 23.0.6, SVG Export Plug-In . SVG Version: 6.00 Build 0)  -->
<svg version="1.1" xmlns="http://www.w3.org/2000/svg" xmlns:xlink="http://www.w3.org/1999/xlink" x="0px" y="0px" width="32px"
	 height="32px" viewBox="0 0 32 32" enable-background="new 0 0 32 32" xml:space="preserve">
<g id="labels">
</g>
<g id="icons">
	<g>
		<path fill="#FBCFD6" d="M16,6C10.477,6,6,11.906,6,17.429C6,17.625,6.018,17.81,6.029,18H6v3c0,2.209,1.791,4,4,4h6V6z"/>
		<path fill="#FAC4D1" d="M22,25c2.209,0,4-1.791,4-4v-3h-0.029C25.982,17.81,26,17.625,26,17.429C26,11.906,21.523,6,16,6v19H22z"
			/>
		<path fill="#FAC4D1" d="M21.5,0C14.93,0,15,5,15,5h2c0,0,1-2,4.5-1V0z"/>
		<path fill="#FAB8CD" d="M25,3.5C25,1.567,23.433,0,21.5,0v7C23.433,7,25,5.433,25,3.5z"/>
		<path fill="#FBCFD6" d="M21.5,2C20.119,2,19,3.119,19,4.5S20.119,7,21.5,7V2z"/>
		<path fill="#FAC4D1" d="M21.5,2C22.328,2,23,2.672,23,3.5S22.328,5,21.5,5V2z"/>
		<ellipse fill="#373F3F" cx="11.5" cy="15" rx="1.5" ry="2"/>
		<ellipse fill="#FFFFFF" cx="11.5" cy="15" rx="0.5" ry="1"/>
		<ellipse fill="#2B3332" cx="20.5" cy="15" rx="1.5" ry="2"/>
		<ellipse fill="#F7F7F7" cx="20.5" cy="15" rx="0.5" ry="1"/>
		<path fill="none" d="M19.781,15.098c0-0.015,0-0.031,0-0.046"/>
		<path fill="#E8AAB1" d="M16,15h-1.75C14.112,15,14,15.112,14,15.25V16c0,1.105,0.895,2,2,2V15z"/>
		<path fill="#E59FA8" d="M17.75,15H16v3c1.105,0,2-0.895,2-2v-0.75C18,15.112,17.888,15,17.75,15z"/>
		<path fill="#E59FA8" d="M9,16c0-1.105-0.895-2-2-2c-0.16,0-0.313,0.024-0.463,0.059C6.194,15.163,6,16.303,6,17.429
			c0,0.104,0.012,0.201,0.016,0.302C6.307,17.897,6.64,18,7,18C8.105,18,9,17.105,9,16z"/>
		<path fill="#E2959E" d="M23,16c0,1.105,0.895,2,2,2c0.36,0,0.693-0.103,0.984-0.269C25.988,17.629,26,17.532,26,17.429
			c0-1.126-0.194-2.265-0.537-3.369C25.313,14.024,25.16,14,25,14C23.895,14,23,14.895,23,16z"/>
		<circle fill="#FCD8DE" cx="12" cy="10" r="2"/>
		<circle fill="#FBCFD6" cx="20" cy="10" r="2"/>
		<path fill="#FCD8DE" d="M16,8c-1.105,0-2,0.895-2,2c0,1.105,0.895,2,2,2V8z"/>
		<path fill="#FBCFD6" d="M18,10c0-1.105-0.895-2-2-2v4C17.105,12,18,11.105,18,10z"/>
		<path fill="#E2959E" d="M16,4v2.998c1.473,0,2-0.422,2-1.25S17.473,4,16,4z"/>
		<path fill="#E59FA8" d="M14,5.748c0,0.828,0.527,1.25,2,1.25V4C14.527,4,14,4.921,14,5.748z"/>
		<path fill="#FEF5F7" d="M16,19c-1.933,0-3.5,2.067-3.5,4s1.567,3,3.5,3V19z"/>
		<path fill="#FDECEF" d="M19.5,23c0-1.933-1.567-4-3.5-4v7C17.933,26,19.5,24.933,19.5,23z"/>
		<path fill="#FCD8DE" d="M15,22c0,0.552-0.895,1-2,1s-1.5-0.448-1.5-1s0.395-1,1.5-1S15,21.448,15,22z"/>
		<path fill="#FBCFD6" d="M20.5,22c0,0.552-0.395,1-1.5,1s-2-0.448-2-1s0.895-1,2-1S20.5,21.448,20.5,22z"/>
		<ellipse fill="#DE8490" cx="10" cy="29.5" rx="2" ry="2.5"/>
		<ellipse fill="#DD7C8A" cx="22" cy="29.5" rx="2" ry="2.5"/>
		<path fill="#E2959E" d="M6,22c0,0-1,1-1,3s3,5,11,5v-3L6,22z"/>
		<path fill="#E08C96" d="M26,22c0,0,1,1,1,3s-3,5-11,5v-3L26,22z"/>
		<path fill="#EDEEEE" d="M16,24.5c8,0,10-4.5,10-4.5s1,1,1,3s-5,5-11,5V24.5z"/>
		<path fill="#F7F7F7" d="M16,24.5C8,24.5,6,20,6,20s-1,1-1,3s5,5,11,5V24.5z"/>
	</g>
</g>
</svg>
