<?xml version="1.0" encoding="utf-8"?>
<!-- Generator: Adobe Illustrator 23.0.6, SVG Export Plug-In . SVG Version: 6.00 Build 0)  -->
<svg version="1.1" xmlns="http://www.w3.org/2000/svg" xmlns:xlink="http://www.w3.org/1999/xlink" x="0px" y="0px" width="32px"
	 height="32px" viewBox="0 0 32 32" enable-background="new 0 0 32 32" xml:space="preserve">
<g id="labels">
</g>
<g id="icons">
	<g>
		<path fill="#456F93" d="M11,26.5c0-2.485-1.291-4.5-3.5-4.5S4,24.015,4,26.5c0,1.066,0.681,4.12,0.919,5.153
			c0.039,0.17,0.236,0.243,0.381,0.146l1.029-0.686c0.099-0.066,0.231-0.053,0.315,0.031l0.678,0.678
			c0.098,0.098,0.256,0.098,0.354,0l0.678-0.678c0.084-0.084,0.216-0.097,0.315-0.031L9.7,31.8c0.146,0.097,0.342,0.024,0.381-0.146
			C10.319,30.62,11,27.566,11,26.5z"/>
		<path fill="#3E688C" d="M28,26.5c0-2.485-1.291-4.5-3.5-4.5S21,24.015,21,26.5c0,1.066,0.681,4.12,0.919,5.153
			c0.039,0.17,0.236,0.243,0.381,0.146l1.029-0.686c0.099-0.066,0.231-0.053,0.315,0.031l0.678,0.678
			c0.098,0.098,0.256,0.098,0.354,0l0.678-0.678c0.084-0.084,0.216-0.097,0.315-0.031L26.7,31.8
			c0.146,0.097,0.342,0.024,0.381-0.146C27.319,30.62,28,27.566,28,26.5z"/>
		<path fill="#4C7495" d="M16,0c-0.776,0-2.257,3.357-2.865,5.65c-0.093,0.349-0.379,0.602-0.729,0.695C7.656,7.617,5,12.348,5,18
			h11V0z"/>
		<path fill="#456F93" d="M27,18c0-5.652-2.656-10.383-7.406-11.655c-0.349-0.093-0.636-0.346-0.729-0.695
			C18.257,3.357,16.776,0,16,0v18H27z"/>
		<path fill="#E7685F" d="M16,18H5c0,6.627,4.925,12,11,12V18z"/>
		<path fill="#E55D53" d="M16,30c6.075,0,11-5.373,11-12H16V30z"/>
		<circle fill="#47A1B4" cx="28" cy="9" r="4"/>
		<circle fill="#4CAEBC" cx="4" cy="9" r="4"/>
		<path fill="#5F82A0" d="M4.21,17.21l-0.357-0.357c-0.195-0.195-0.512-0.195-0.707,0L2.79,17.21
			c-0.169,0.169-0.433,0.195-0.631,0.062l-0.382-0.254C1.445,16.797,1,17.035,1,17.434l0,1.958c0,1.306,0.955,2.472,2.254,2.596
			C4.746,22.13,6,20.962,6,19.5v-2.066c0-0.399-0.445-0.638-0.777-0.416l-0.382,0.254C4.643,17.405,4.379,17.379,4.21,17.21z"/>
		<path fill="#F7F7F7" d="M24,12.5c0,1.381-0.895,2.5-2,2.5c-1.105,0-2-1.119-2-2.5l2-2.5C23.105,10,24,11.119,24,12.5z"/>
		<path fill="#FFFFFF" d="M12,12.5c0,1.381-0.895,2.5-2,2.5c-1.105,0-2-1.119-2-2.5c0-1.381,0.895-2.5,2-2.5L12,12.5z"/>
		<ellipse fill="#2B3332" cx="22" cy="12.5" rx="1.5" ry="2"/>
		<ellipse fill="#373F3F" cx="10" cy="12.5" rx="1.5" ry="2"/>
		<circle fill="#FFFFFF" cx="10" cy="11.5" r="0.5"/>
		<path fill="#7E4F69" d="M16,18H9c0,0,3,8,7,8V18z"/>
		<path fill="#73475F" d="M16,26c4,0,7-8,7-8h-7V26z"/>
		<circle fill="#F7F7F7" cx="22" cy="11.5" r="0.5"/>
		<path fill="#567B9B" d="M20,12.5c0,0,0.581-0.701,3-2.5c1.794-1.334,3-3,2-3s-4,1-5,3S20,12.5,20,12.5z"/>
		<path fill="#5F82A0" d="M12,12.5c0,0-0.581-0.701-3-2.5C7.206,8.666,6,7,7,7s4,1,5,3S12,12.5,12,12.5z"/>
		<circle fill="#5F82A0" cx="4" cy="9" r="2.5"/>
		<circle fill="#567B9B" cx="28" cy="9" r="2.5"/>
		<path fill="#73475F" d="M16,13c-4,0-7,5-7,5h7V13z"/>
		<path fill="#693F56" d="M23,18c0,0-3-5-7-5v5H23z"/>
		<path fill="#FFFFFF" d="M12.75,16.5c0.414,0,0.75-0.895,0.75-2c0-0.294-0.025-0.572-0.068-0.824
			c-0.509,0.262-0.989,0.577-1.428,0.925C12.024,15.658,12.349,16.5,12.75,16.5z"/>
		<path fill="#FFFFFF" d="M10.102,16.49c0.129,0.601,0.37,1.01,0.648,1.01c0.414,0,0.75-0.895,0.75-2
			c0-0.157-0.008-0.308-0.021-0.454C10.941,15.53,10.479,16.035,10.102,16.49z"/>
		<path fill="#F7F7F7" d="M19.25,16.5c0.401,0,0.726-0.842,0.746-1.898c-0.439-0.348-0.919-0.663-1.428-0.925
			C18.525,13.928,18.5,14.206,18.5,14.5C18.5,15.605,18.836,16.5,19.25,16.5z"/>
		<path fill="#E8AAB1" d="M16,18h-2.849c-1.52,0-2.503,1.639-1.754,2.962C12.479,22.871,14.109,25,16,25V18z"/>
		<path fill="#E59FA8" d="M18.849,18H16v7h0c1.891,0,3.521-2.129,4.602-4.038C21.352,19.639,20.369,18,18.849,18z"/>
		<path fill="#F7F7F7" d="M21.25,17.5c0.278,0,0.519-0.409,0.648-1.01c-0.377-0.455-0.839-0.96-1.377-1.444
			C20.508,15.192,20.5,15.343,20.5,15.5C20.5,16.605,20.836,17.5,21.25,17.5z"/>
		<path fill="#F7F7F7" d="M20.45,22.825c-0.104-0.77-0.375-1.325-0.7-1.325c-0.414,0-0.75,0.895-0.75,2
			c0,0.346,0.043,0.653,0.101,0.935C19.586,23.954,20.04,23.406,20.45,22.825z"/>
		<path fill="#FFFFFF" d="M12.25,21.5c-0.325,0-0.596,0.555-0.7,1.325c0.41,0.581,0.864,1.13,1.349,1.61
			C12.957,24.153,13,23.846,13,23.5C13,22.395,12.664,21.5,12.25,21.5z"/>
		<path fill="#567B9B" d="M27.79,17.21l0.357-0.357c0.195-0.195,0.512-0.195,0.707,0l0.357,0.357
			c0.169,0.169,0.433,0.195,0.631,0.062l0.382-0.254C30.555,16.797,31,17.035,31,17.434v1.958c0,1.306-0.955,2.472-2.254,2.596
			C27.254,22.13,26,20.962,26,19.5v-2.066c0-0.399,0.445-0.638,0.777-0.416l0.382,0.254C27.357,17.405,27.621,17.379,27.79,17.21z"
			/>
	</g>
</g>
</svg>
