<?xml version="1.0" encoding="utf-8"?>
<!-- Generator: Adobe Illustrator 23.0.6, SVG Export Plug-In . SVG Version: 6.00 Build 0)  -->
<svg version="1.1" xmlns="http://www.w3.org/2000/svg" xmlns:xlink="http://www.w3.org/1999/xlink" x="0px" y="0px" width="32px"
	 height="32px" viewBox="0 0 32 32" enable-background="new 0 0 32 32" xml:space="preserve">
<g id="labels">
</g>
<g id="icons">
	<g>
		<path fill="#FDEBBB" d="M14.929,32C14.975,31.838,15,31.671,15,31.5c0-1.381-1.567-2.5-3.5-2.5S8,30.119,8,31.5
			c0,0.171,0.025,0.338,0.071,0.5H14.929z"/>
		<path fill="#FAE09F" d="M23.929,32C23.975,31.838,24,31.671,24,31.5c0-1.381-1.567-2.5-3.5-2.5S17,30.119,17,31.5
			c0,0.171,0.025,0.338,0.071,0.5H23.929z"/>
		<path fill="#3E88B3" d="M16,15.743h-4c0,0-7.119,3.655-7.93,6.258c-0.052,0.168,0.088,0.335,0.264,0.321l0.971-0.081l-0.084,1.011
			c-0.013,0.154,0.116,0.283,0.27,0.27l1.011-0.084L6.42,24.421c-0.014,0.174,0.147,0.307,0.316,0.265
			c0.995-0.246,2.028-1.167,2.917-2.193C9.653,22.493,8,25,8,27l-0.823,0.823c-0.098,0.098-0.098,0.256,0,0.354L8,29v0.75
			C8,29.888,8.112,30,8.25,30H9l1,1l1-1l0.823,0.823c0.098,0.098,0.256,0.098,0.354,0L13,30l0.823,0.823
			c0.098,0.098,0.256,0.098,0.354,0L15,30l0.823,0.823c0.049,0.049,0.113,0.073,0.177,0.073V15.743z"/>
		<path fill="#3980A8" d="M20,15.743h-4v15.153c0.064,0,0.128-0.024,0.177-0.073L17,30l0.823,0.823c0.098,0.098,0.256,0.098,0.354,0
			L19,30l0.823,0.823c0.098,0.098,0.256,0.098,0.354,0L21,30l0.823,0.823c0.098,0.098,0.256,0.098,0.354,0L23,30h0.75
			c0.138,0,0.25-0.112,0.25-0.25V29l0.823-0.823c0.098-0.098,0.098-0.256,0-0.354L24,27c0-2-1.653-4.507-1.653-4.507
			c0.889,1.025,1.923,1.947,2.917,2.193c0.169,0.042,0.33-0.091,0.316-0.265l-0.082-0.983l1.011,0.084
			c0.154,0.013,0.283-0.116,0.27-0.27l-0.084-1.011l0.971,0.081c0.176,0.015,0.316-0.152,0.264-0.321
			C27.119,19.398,20,15.743,20,15.743z"/>
		<path fill="#FDEBBB" d="M16,18c-2.209,0-3.5,1.791-3.5,4c0,2.209,1.291,4,3.5,4V18z"/>
		<path fill="#FAE09F" d="M19.5,22c0-2.209-1.291-4-3.5-4v8C18.209,26,19.5,24.209,19.5,22z"/>
		<path fill="#4390BF" d="M16,5c-0.108,0-0.212,0.009-0.319,0.012C15.076,2.725,13.754,0,13,0c-1,0-3,4.791-3,7
			c0,0.063,0.007,0.121,0.009,0.183C8.742,8.401,8,10.06,8,12c0,4.124,3.322,7,8,7V5z"/>
		<path fill="#3E88B3" d="M24,12c0-1.94-0.742-3.599-2.009-4.817C21.993,7.121,22,7.063,22,7c0-2.209-2-7-3-7
			c-0.754,0-2.076,2.725-2.681,5.012C16.212,5.009,16.108,5,16,5v14C20.678,19,24,16.124,24,12z"/>
		<path fill="#FFF3D9" d="M16,15c-3.1,0-5.801-0.563-7.853-1.546C8.835,16.784,11.894,19,16,19V15z"/>
		<path fill="#FDEBBB" d="M23.853,13.454C21.801,14.437,19.1,15,16,15v4C20.106,19,23.165,16.784,23.853,13.454z"/>
		<ellipse fill="#FFFFFF" cx="12.5" cy="11" rx="1.5" ry="2"/>
		<ellipse fill="#F7F7F7" cx="19.5" cy="11" rx="1.5" ry="2"/>
		<path fill="#E8AAB1" d="M16,15c-1.044,0-2.037-0.069-2.981-0.191C13.015,14.873,13,14.935,13,15c0,1.657,1.343,3,3,3V15z"/>
		<path fill="#E59FA8" d="M19,15c0-0.065-0.015-0.127-0.019-0.191C18.037,14.931,17.044,15,16,15v3C17.657,18,19,16.657,19,15z"/>
		<path fill="#F7F7F7" d="M17.028,17.813c0.298-0.11,0.573-0.265,0.817-0.46C17.769,17.161,17.659,17,17.5,17
			C17.212,17,17.08,17.524,17.028,17.813z"/>
		<path fill="#FFFFFF" d="M14.154,17.353c0.244,0.194,0.519,0.349,0.817,0.46C14.92,17.524,14.788,17,14.5,17
			C14.341,17,14.231,17.161,14.154,17.353z"/>
		<circle fill="#373F3F" cx="12.5" cy="11" r="0.5"/>
		<circle fill="#2B3332" cx="19.5" cy="11" r="0.5"/>
	</g>
</g>
</svg>
