<?xml version="1.0" encoding="utf-8"?>
<!-- Generator: Adobe Illustrator 23.0.6, SVG Export Plug-In . SVG Version: 6.00 Build 0)  -->
<svg version="1.1" xmlns="http://www.w3.org/2000/svg" xmlns:xlink="http://www.w3.org/1999/xlink" x="0px" y="0px" width="32px"
	 height="32px" viewBox="0 0 32 32" enable-background="new 0 0 32 32" xml:space="preserve">
<g id="labels">
</g>
<g id="icons">
	<g>
		<path fill="#2B3332" d="M18.5,31h3l-1.3-1.733c-0.13-0.173-0.2-0.384-0.2-0.6V24h-2v3.172c0,0.551,0.046,1.101,0.136,1.644
			L18.5,31z"/>
		<path fill="#373F3F" d="M13.5,31h-3l1.3-1.733c0.13-0.173,0.2-0.384,0.2-0.6V24h2v3.172c0,0.551-0.046,1.101-0.136,1.644L13.5,31z
			"/>
		<path fill="#5CA3D5" d="M14,20l-0.85,0.85c-1.071,1.071-1.766,2.46-1.98,3.96l-0.088,0.619C11.038,25.731,11.272,26,11.577,26
			h3.033c0.229,0,0.429-0.156,0.485-0.379l0.311-1.243C15.461,24.156,15.661,24,15.89,24H16v-3L14,20z"/>
		<path fill="#529CCF" d="M18,20l0.85,0.85c1.071,1.071,1.766,2.46,1.98,3.96l0.088,0.619C20.962,25.731,20.728,26,20.423,26H17.39
			c-0.229,0-0.429-0.156-0.485-0.379l-0.311-1.243C16.539,24.156,16.339,24,16.11,24H16v-3L18,20z"/>
		<path fill="#434C4B" d="M14,20l-1,1c0,0,1,2,3,2v-3H14z"/>
		<path fill="#373F3F" d="M18,20l1,1c0,0-1,2-3,2v-3H18z"/>
		<path fill="#434C4B" d="M14,31.499c0,0.552-0.448,0.5-1,0.5s-1,0.052-1-0.5c0-0.552,0.448-1,1-1S14,30.946,14,31.499z"/>
		<path fill="#373F3F" d="M18,31.499c0,0.552,0.448,0.5,1,0.5s1,0.052,1-0.5c0-0.552-0.448-1-1-1S18,30.946,18,31.499z"/>
		<path fill="#373F3F" d="M20,31.499c0,0.552,0.448,0.5,1,0.5s1,0.052,1-0.5c0-0.552-0.448-1-1-1S20,30.946,20,31.499z"/>
		<path fill="#434C4B" d="M19,31.499c0,0.552,0.448,0.5,1,0.5s1,0.052,1-0.5c0-0.552-0.448-1-1-1S19,30.946,19,31.499z"/>
		<path fill="#FDEBBB" d="M16,12h-2v8c0,0,0.5,1,2,1V12z"/>
		<path fill="#FAE09F" d="M16,21c1.5,0,2-1,2-1v-8h-2V21z"/>
		<path fill="#5CA3D5" d="M13.101,13.989c-1,0-2.5-0.039-5,4.719c-1.493,2.84-1.237,4.399-0.58,5.272
			c0.526,0.699,1.645,0.38,1.77-0.486C9.702,20.651,10.827,16,13.101,16"/>
		<path fill="#529CCF" d="M19,13.989c1,0,2.5-0.039,5,4.719c1.493,2.84,1.237,4.399,0.58,5.272c-0.526,0.699-1.645,0.38-1.77-0.486
			C22.399,20.651,21.274,16,19,16"/>
		<path fill="#434C4B" d="M9.256,19.767c-0.118-0.353-0.565-0.458-0.828-0.195l-1.175,1.175c-0.466,1.591-0.21,2.597,0.268,3.233
			c0.526,0.699,1.645,0.38,1.77-0.486c0.1-0.695,0.244-1.497,0.436-2.313L9.256,19.767z"/>
		<path fill="#373F3F" d="M22.851,19.767c0.118-0.353,0.565-0.458,0.828-0.195l1.175,1.175c0.466,1.591,0.21,2.597-0.268,3.233
			c-0.526,0.699-1.645,0.38-1.77-0.486c-0.1-0.695-0.244-1.497-0.436-2.313L22.851,19.767z"/>
		<path fill="#373F3F" d="M19,17h-1v-4h1c0.276,0,0.5,0.224,0.5,0.5v3C19.5,16.776,19.276,17,19,17z"/>
		<path fill="#434C4B" d="M13,17h1v-4h-1c-0.276,0-0.5,0.224-0.5,0.5v3C12.5,16.776,12.724,17,13,17z"/>
		<g>
			<path fill="#F7F7F7" d="M7.052,21.316l-1.341,0.447c-0.228,0.076-0.228,0.398,0,0.474l1.341,0.447C7.519,22.84,8,22.492,8,22.001
				v-0.002C8,21.508,7.519,21.16,7.052,21.316z"/>
		</g>
		<path fill="#EDEEEE" d="M24.948,21.316l1.341,0.447c0.228,0.076,0.228,0.398,0,0.474l-1.341,0.447
			C24.481,22.84,24,22.492,24,22.001v-0.002C24,21.508,24.481,21.16,24.948,21.316z"/>
		<g>
			<path fill="#F7F7F7" d="M16,15c-0.552,0-1,0.448-1,1c0,0.552,0.448,1,1,1V15z"/>
		</g>
		<path fill="#EDEEEE" d="M17,16c0-0.552-0.448-1-1-1v2C16.552,17,17,16.552,17,16z"/>
		<path fill="#65A9DC" d="M16,4c-0.358,0-0.698,0.032-1.02,0.089C14.878,1.799,13.972,0,13.5,0C13,0,12,2.015,12,4.5
			c0,0.596,0.008,1.162,0.038,1.682C11.699,6.837,11.5,7.608,11.5,8.5c0,2.761,3.5,5.5,4.5,5.5V4z"/>
		<path fill="#5CA3D5" d="M20.5,8.5c0-0.892-0.199-1.663-0.538-2.318C19.992,5.662,20,5.096,20,4.5C20,2.015,19,0,18.5,0
			c-0.472,0-1.378,1.799-1.48,4.089C16.698,4.032,16.358,4,16,4v10C17,14,20.5,11.261,20.5,8.5z"/>
		<path fill="#373F3F" d="M17.026,13.587c0.187-2.463,1.993-3.239,3.108-3.477C20.36,9.588,20.5,9.045,20.5,8.5
			c0-0.423-0.048-0.816-0.131-1.185l-2.17,0.441C17.579,7.882,17,7.409,17,6.776V4.087C16.683,4.032,16.351,4,16,4v10
			C16.232,14,16.601,13.848,17.026,13.587z"/>
		<path fill="#434C4B" d="M15,4.087v2.689c0,0.632-0.579,1.106-1.199,0.98l-2.17-0.441C11.548,7.684,11.5,8.077,11.5,8.5
			c0,0.545,0.14,1.088,0.366,1.61c1.114,0.239,2.92,1.014,3.108,3.477C15.399,13.848,15.768,14,16,14V4
			C15.649,4,15.317,4.032,15,4.087z"/>
		<g>
			<path fill="#FFFFFF" d="M14,10c0.458,0,0.845-0.309,0.963-0.729c0.04-0.141-0.048-0.288-0.192-0.317l-1.93-0.386
				c-0.181-0.036-0.339,0.13-0.293,0.308C12.714,9.522,13.301,10,14,10z"/>
		</g>
		<path fill="#F7F7F7" d="M17.229,8.954c-0.144,0.029-0.232,0.175-0.192,0.317C17.155,9.691,17.542,10,18,10
			c0.699,0,1.286-0.477,1.452-1.124c0.046-0.178-0.112-0.344-0.293-0.308L17.229,8.954z"/>
		<path fill="#DD564C" d="M13,9c0,0.387,0.17,0.714,0.412,0.88c0.127,0.054,0.264,0.085,0.406,0.102C14.199,9.934,14.5,9.52,14.5,9
			c0-0.037-0.013-0.068-0.016-0.103l-1.426-0.285C13.021,8.731,13,8.862,13,9z"/>
		<path fill="#D64F45" d="M17.5,9c0,0.52,0.301,0.934,0.682,0.982c0.142-0.017,0.28-0.048,0.406-0.102C18.83,9.714,19,9.387,19,9
			c0-0.138-0.021-0.269-0.059-0.388l-1.426,0.285C17.513,8.932,17.5,8.963,17.5,9z"/>
		<path fill="#373F3F" d="M13.5,9c0,0.276,0.112,0.5,0.25,0.5S14,9.276,14,9c0-0.073-0.009-0.142-0.023-0.205L13.552,8.71
			C13.521,8.793,13.5,8.89,13.5,9z"/>
		<path fill="#2B3332" d="M18,9c0,0.276,0.112,0.5,0.25,0.5S18.5,9.276,18.5,9c0-0.11-0.021-0.207-0.052-0.29l-0.425,0.085
			C18.009,8.858,18,8.927,18,9z"/>
		<g>
			<path fill="#373F3F" d="M13.645,4.938l0.001,0.001c0.128,0.128,0.347,0.039,0.35-0.142C13.999,4.638,14,4.471,14,4.293
				c0-1.183-0.305-2.841-0.5-2.841S13,3.11,13,4.293c0,0.178,0.001,0.345,0.004,0.504c0.003,0.182,0.222,0.271,0.35,0.142
				l0.001-0.001C13.435,4.858,13.565,4.858,13.645,4.938z"/>
		</g>
		<g>
			<path fill="#2B3332" d="M18.645,4.938l0.001,0.001c0.128,0.128,0.347,0.039,0.35-0.142C18.999,4.638,19,4.471,19,4.293
				c0-1.183-0.305-2.841-0.5-2.841S18,3.11,18,4.293c0,0.178,0.001,0.345,0.004,0.504c0.003,0.182,0.222,0.271,0.35,0.142
				l0.001-0.001C18.435,4.858,18.565,4.858,18.645,4.938z"/>
		</g>
		<path fill="#434C4B" d="M12,31.499c0,0.552-0.448,0.5-1,0.5s-1,0.052-1-0.5c0-0.552,0.448-1,1-1S12,30.946,12,31.499z"/>
		<path fill="#505957" d="M13,31.499c0,0.552-0.448,0.5-1,0.5s-1,0.052-1-0.5c0-0.552,0.448-1,1-1S13,30.946,13,31.499z"/>
	</g>
</g>
</svg>
