<?xml version="1.0" encoding="utf-8"?>
<!-- Generator: Adobe Illustrator 23.0.6, SVG Export Plug-In . SVG Version: 6.00 Build 0)  -->
<svg version="1.1" xmlns="http://www.w3.org/2000/svg" xmlns:xlink="http://www.w3.org/1999/xlink" x="0px" y="0px" width="32px"
	 height="32px" viewBox="0 0 32 32" enable-background="new 0 0 32 32" xml:space="preserve">
<g id="labels">
</g>
<g id="icons">
	<g>
		<path fill="#8DA04A" d="M30,19.5C30,13.057,24.435,9,16,9v21c1.046,0,2.047-0.063,3-0.185V31.5c0,0.276,0.224,0.5,0.5,0.5h6.226
			c0.172,0,0.33-0.083,0.421-0.229C26.866,30.614,30,25.253,30,19.5z"/>
		<path fill="#828E3D" d="M28,20v4l1.116,1.116C29.629,23.391,30,21.471,30,19.5c0-0.481-0.041-0.944-0.102-1.398L28,20z"/>
		<path fill="#FFD96C" d="M28,24l-1.781,1.781c-0.134,0.134-0.181,0.332-0.121,0.512l0.788,2.365C26.954,28.862,27.145,29,27.36,29
			h0.274c0.509-1.086,1.045-2.413,1.482-3.884L28,24z"/>
		<path fill="#FFE28A" d="M29.898,18.102c-0.117-0.871-0.348-1.688-0.678-2.45c-0.022-0.052-0.044-0.104-0.067-0.156
			c-0.105-0.23-0.218-0.456-0.342-0.676c-0.017-0.031-0.036-0.061-0.054-0.091c-0.563-0.972-1.307-1.838-2.216-2.582L25,16l3,4
			L29.898,18.102z"/>
		<path fill="#90A74E" d="M2,19.5C2,13.057,7.565,9,16,9v21c-1.046,0-2.047-0.063-3-0.185V31.5c0,0.276-0.224,0.5-0.5,0.5H6.274
			c-0.172,0-0.33-0.083-0.421-0.229C5.134,30.614,2,25.253,2,19.5z"/>
		<path fill="#869642" d="M4,20v4l-1.116,1.116C2.371,23.391,2,21.471,2,19.5c0-0.481,0.041-0.944,0.102-1.398L4,20z"/>
		<path fill="#FFE28A" d="M4,24l1.781,1.781c0.134,0.134,0.181,0.332,0.121,0.512l-0.788,2.365C5.046,28.862,4.855,29,4.64,29H4.366
			c-0.509-1.086-1.045-2.413-1.482-3.884L4,24z"/>
		<path fill="#FFEAA7" d="M2.102,18.102c0.117-0.871,0.348-1.688,0.678-2.45c0.022-0.052,0.044-0.104,0.067-0.156
			c0.105-0.23,0.218-0.456,0.342-0.676c0.017-0.031,0.036-0.061,0.054-0.091c0.563-0.972,1.307-1.838,2.216-2.582L7,16l-3,4
			L2.102,18.102z"/>
		<path fill="#FFEAA7" d="M16,0.908C15.468,0.35,14.772,0,14,0c-1.657,0-3,1.567-3,3.5c0,0.546,0.117,1.056,0.308,1.517
			c-1.289-0.079-2.119,0.198-2.28,0.702c-0.191,0.597,0.614,1.312,2.257,1.813C10.482,8.212,10,9.068,10,10c0,2.209,2.686,4,6,4
			V0.908z"/>
		<path fill="#FFE28A" d="M22,10c0-0.932-0.482-1.788-1.284-2.468c1.642-0.501,2.447-1.216,2.257-1.813
			c-0.161-0.505-0.991-0.781-2.28-0.702C20.883,4.556,21,4.046,21,3.5C21,1.567,19.657,0,18,0c-0.772,0-1.468,0.35-2,0.908V14
			C19.314,14,22,12.209,22,10z"/>
		<path fill="#97AC59" d="M14.5,32H8.321c-0.2,0-0.378-0.115-0.458-0.299C7.589,31.071,7,29.535,7,28c0-2,0-4,0-4h8v7.5
			C15,31.776,14.776,32,14.5,32z"/>
		<path fill="#90A74E" d="M17.5,32h6.179c0.2,0,0.378-0.115,0.458-0.299C24.411,31.071,25,29.535,25,28c0-2,0-4,0-4h-8v7.5
			C17,31.776,17.224,32,17.5,32z"/>
		<path fill="#B4C187" d="M16,8C8.168,8,3,11.863,3,18c0,6.136,5.168,10,13,10V8z"/>
		<path fill="#A8B875" d="M29,18c0-6.137-5.168-10-13-10v20C23.832,28,29,24.136,29,18z"/>
		<circle fill="#FEF1C6" cx="10" cy="18" r="3"/>
		<circle fill="#FFEAA7" cx="22" cy="18" r="3"/>
		<circle fill="#373F3F" cx="10" cy="18" r="2"/>
		<circle fill="#2B3332" cx="22" cy="18" r="2"/>
		<ellipse fill="#FFFFFF" cx="14" cy="3.5" rx="1.5" ry="2"/>
		<ellipse fill="#FFFFFF" cx="14" cy="3.5" rx="1.5" ry="2"/>
		<ellipse fill="#F7F7F7" cx="18" cy="3.5" rx="1.5" ry="2"/>
		<ellipse fill="#2B3332" cx="18" cy="3.5" rx="0.5" ry="0.75"/>
		<ellipse fill="#373F3F" cx="14" cy="3.5" rx="0.5" ry="0.75"/>
		<path fill="#A8B875" d="M16,24c-5.195,0-9.488-0.998-12.463-2.778C5.048,25.457,9.647,28,16,28V24z"/>
		<path fill="#9EB164" d="M28.463,21.222C25.488,23.002,21.195,24,16,24v4C22.353,28,26.952,25.457,28.463,21.222z"/>
		<path fill="#EDEEEE" d="M18.025,30.5c-0.725,0-1.33,0.515-1.47,1.199C16.524,31.854,16.645,32,16.804,32h2.443
			c0.158,0,0.28-0.146,0.248-0.301C19.356,31.015,18.75,30.5,18.025,30.5z"/>
		<path fill="#EDEEEE" d="M22.025,30.5c-0.725,0-1.33,0.515-1.47,1.199C20.524,31.854,20.645,32,20.804,32h2.443
			c0.158,0,0.28-0.146,0.248-0.301C23.356,31.015,22.75,30.5,22.025,30.5z"/>
		<path fill="#F7F7F7" d="M10.025,30.5c-0.725,0-1.33,0.515-1.47,1.199C8.524,31.854,8.645,32,8.804,32h2.443
			c0.158,0,0.28-0.146,0.248-0.301C11.356,31.015,10.75,30.5,10.025,30.5z"/>
		<path fill="#F7F7F7" d="M14.025,30.5c-0.725,0-1.33,0.515-1.47,1.199C12.524,31.854,12.645,32,12.804,32h2.443
			c0.158,0,0.28-0.146,0.248-0.301C15.356,31.015,14.75,30.5,14.025,30.5z"/>
	</g>
</g>
</svg>
