<?xml version="1.0" encoding="utf-8"?>
<!-- Generator: Adobe Illustrator 23.0.6, SVG Export Plug-In . SVG Version: 6.00 Build 0)  -->
<svg version="1.1" xmlns="http://www.w3.org/2000/svg" xmlns:xlink="http://www.w3.org/1999/xlink" x="0px" y="0px" width="32px"
	 height="32px" viewBox="0 0 32 32" enable-background="new 0 0 32 32" xml:space="preserve">
<g id="labels">
</g>
<g id="icons">
	<g>
		<path fill="#7D883A" d="M1.276,16.638l-1-0.5C0.107,16.054,0,15.88,0,15.691v-3.382c0-0.189,0.107-0.363,0.276-0.447l1-0.5
			C1.609,11.196,2,11.437,2,11.809v4.382C2,16.563,1.609,16.804,1.276,16.638z"/>
		<path fill="#778238" d="M30.724,16.638l1-0.5C31.893,16.054,32,15.88,32,15.691v-3.382c0-0.189-0.107-0.363-0.276-0.447l-1-0.5
			C30.391,11.196,30,11.437,30,11.809v4.382C30,16.563,30.391,16.804,30.724,16.638z"/>
		<path fill="#CBEB6B" d="M3,27c0,0-1.72-5-0.72-10h2l3,10H3z"/>
		<path fill="#BEE758" d="M29,27c0,0,1.72-5,0.72-10h-2l-3,10H29z"/>
		<path fill="#778238" d="M29,29h-8.5c-0.276,0-0.5-0.224-0.5-0.5l0,0c0-0.276,0.224-0.5,0.5-0.5H29c0.276,0,0.5,0.224,0.5,0.5l0,0
			C29.5,28.776,29.276,29,29,29z"/>
		<path fill="#7D883A" d="M29,28h-8.5c-0.276,0-0.5-0.224-0.5-0.5l0,0c0-0.276,0.224-0.5,0.5-0.5H29c0.276,0,0.5,0.224,0.5,0.5l0,0
			C29.5,27.776,29.276,28,29,28z"/>
		<path fill="#C8CCCB" d="M26.5,31h3c0.412,0,0.647-0.47,0.4-0.8L29,29h-2.5V31z"/>
		<path fill="#7D883A" d="M11.5,29H3c-0.276,0-0.5-0.224-0.5-0.5l0,0C2.5,28.224,2.724,28,3,28h8.5c0.276,0,0.5,0.224,0.5,0.5l0,0
			C12,28.776,11.776,29,11.5,29z"/>
		<path fill="#828E3D" d="M11.5,28H3c-0.276,0-0.5-0.224-0.5-0.5l0,0C2.5,27.224,2.724,27,3,27h8.5c0.276,0,0.5,0.224,0.5,0.5l0,0
			C12,27.776,11.776,28,11.5,28z"/>
		<path fill="#D1D4D4" d="M5.5,31h-3c-0.412,0-0.647-0.47-0.4-0.8L3,29h2.5V31z"/>
		<path fill="#E3E5E5" d="M11.5,31H14c0.412,0,0.647-0.47,0.4-0.8L13.5,29h-2V31z"/>
		<path fill="#CBEB6B" d="M29.938,13c0,0,1,9-5,16H18.5L18,11L29.938,13z"/>
		<path fill="#D9F07D" d="M2.062,13c0,0-1,9,5,16H13.5L14,11L2.062,13z"/>
		<path fill="#828E3D" d="M16,1C7.716,1,1,6.254,1,14.386s6.716,0,15,0V1z"/>
		<path fill="#7D883A" d="M31,14.386C31,6.254,24.284,1,16,1v13.386C24.284,14.386,31,22.518,31,14.386z"/>
		<path fill="#E6F490" d="M16,5.431c-0.515,0-1.03-0.077-1.524-0.231C14.059,5.071,13.611,5,13.143,5C8,5,8,15,8,15h8V5.431z"/>
		<path fill="#D9F07D" d="M24,15c0,0,0-10-5.143-10c-0.468,0-0.916,0.071-1.333,0.2C17.03,5.354,16.515,5.431,16,5.431V15H24z"/>
		<path fill="#869642" d="M16,12c-7,0-10,4.686-10,8s2.686,6,6,6c0.577,0,1.135-0.082,1.662-0.235c0.759-0.22,1.549-0.33,2.338-0.33
			V12z"/>
		<path fill="#828E3D" d="M18.338,25.765C18.865,25.918,19.423,26,20,26c3.314,0,6-2.686,6-6s-3-8-10-8v13.435
			C16.79,25.435,17.579,25.545,18.338,25.765z"/>
		<circle fill="#778238" cx="23.25" cy="21.75" r="0.75"/>
		<circle fill="#778238" cx="21.25" cy="23.25" r="0.75"/>
		<circle fill="#778238" cx="19.75" cy="21.5" r="0.75"/>
		<circle fill="#7D883A" cx="8.75" cy="21.75" r="0.75"/>
		<circle fill="#7D883A" cx="10.75" cy="23.25" r="0.75"/>
		<circle fill="#7D883A" cx="12.25" cy="21.5" r="0.75"/>
		<circle fill="#869642" cx="10" cy="10" r="2"/>
		<circle fill="#828E3D" cx="22" cy="10" r="2"/>
		<path fill="#E7685F" d="M8.661,9.487c-0.283,0.778,0.118,1.639,0.897,1.923c0.778,0.283,1.639-0.118,1.923-0.897
			C11.764,9.735,8.945,8.709,8.661,9.487z"/>
		<circle fill="#373F3F" cx="10.071" cy="10" r="0.5"/>
		<path fill="#E55D53" d="M23.41,9.487c0.283,0.778-0.118,1.639-0.897,1.923c-0.778,0.283-1.639-0.118-1.923-0.897
			C20.307,9.735,23.126,8.709,23.41,9.487z"/>
		<circle fill="#2B3332" cx="22" cy="10" r="0.5"/>
		<circle fill="#8DA04A" cx="21.5" cy="17.5" r="2.5"/>
		<circle fill="#2B3332" cx="21.5" cy="17.5" r="1.5"/>
		<circle fill="#90A74E" cx="10.5" cy="17.5" r="2.5"/>
		<circle fill="#373F3F" cx="10.5" cy="17.5" r="1.5"/>
		<path fill="#869642" d="M14,29H5.5C5.224,29,5,28.776,5,28.5l0,0C5,28.224,5.224,28,5.5,28H14c0.276,0,0.5,0.224,0.5,0.5l0,0
			C14.5,28.776,14.276,29,14,29z"/>
		<path fill="#8DA04A" d="M14,28H5.5C5.224,28,5,27.776,5,27.5l0,0C5,27.224,5.224,27,5.5,27H14c0.276,0,0.5,0.224,0.5,0.5l0,0
			C14.5,27.776,14.276,28,14,28z"/>
		<path fill="#828E3D" d="M26.5,29H18c-0.276,0-0.5-0.224-0.5-0.5l0,0c0-0.276,0.224-0.5,0.5-0.5h8.5c0.276,0,0.5,0.224,0.5,0.5l0,0
			C27,28.776,26.776,29,26.5,29z"/>
		<path fill="#869642" d="M26.5,28H18c-0.276,0-0.5-0.224-0.5-0.5l0,0c0-0.276,0.224-0.5,0.5-0.5h8.5c0.276,0,0.5,0.224,0.5,0.5l0,0
			C27,27.776,26.776,28,26.5,28z"/>
		<path fill="#EDEEEE" d="M8,31H5c-0.412,0-0.647-0.47-0.4-0.8L5.5,29H8V31z"/>
		<path fill="#F7F7F7" d="M9.5,31H7.309c-0.372,0-0.613-0.391-0.447-0.724L7.5,29h2V31z"/>
		<path fill="#EDEEEE" d="M9.5,31h2.191c0.372,0,0.613-0.391,0.447-0.724L11.5,29h-2V31z"/>
		<path fill="#DADDDC" d="M24,31h3c0.412,0,0.647-0.47,0.4-0.8L26.5,29H24V31z"/>
		<path fill="#E3E5E5" d="M20.5,31H18c-0.412,0-0.647-0.47-0.4-0.8l0.9-1.2h2V31z"/>
		<path fill="#EDEEEE" d="M22.5,31h-2.191c-0.372,0-0.613-0.391-0.447-0.724L20.5,29h2V31z"/>
		<path fill="#E3E5E5" d="M22.5,31h2.191c0.372,0,0.613-0.391,0.447-0.724L24.5,29h-2V31z"/>
		<path fill="#869642" d="M3.744,7.232L3.098,5.293c-0.06-0.18-0.013-0.378,0.121-0.512l2.563-2.563
			c0.134-0.134,0.332-0.181,0.512-0.121l1.939,0.646c0.353,0.118,0.458,0.565,0.195,0.828L4.572,7.428
			C4.309,7.691,3.862,7.585,3.744,7.232z"/>
		<path fill="#828E3D" d="M28.256,7.232l0.646-1.939c0.06-0.18,0.013-0.378-0.121-0.512l-2.563-2.563
			c-0.134-0.134-0.332-0.181-0.512-0.121l-1.939,0.646c-0.353,0.118-0.458,0.565-0.195,0.828l3.856,3.856
			C27.691,7.691,28.138,7.585,28.256,7.232z"/>
	</g>
</g>
</svg>
