<?xml version="1.0" encoding="utf-8"?>
<!-- Generator: Adobe Illustrator 23.0.6, SVG Export Plug-In . SVG Version: 6.00 Build 0)  -->
<svg version="1.1" xmlns="http://www.w3.org/2000/svg" xmlns:xlink="http://www.w3.org/1999/xlink" x="0px" y="0px" width="32px"
	 height="32px" viewBox="0 0 32 32" enable-background="new 0 0 32 32" xml:space="preserve">
<g id="labels">
</g>
<g id="icons">
	<g>
		<path fill="#993147" d="M13,22.818c0,0-7.158,0-5.247,8.977c0.054,0.253,0.413,0.281,0.486,0.032
			c0.485-1.659,1.803-4.749,4.761-4.009V22.818z"/>
		<path fill="#912B41" d="M19,22.818c0,0,7.158,0,5.247,8.977c-0.054,0.253-0.413,0.281-0.486,0.032
			c-0.485-1.659-1.803-4.749-4.761-4.009V22.818z"/>
		<path fill="#993147" d="M16,20c-4.833,0-7,2.686-7,6s2.167,6,7,6V20z"/>
		<path fill="#912B41" d="M23,26c0-3.314-2.167-6-7-6v12C20.833,32,23,29.314,23,26z"/>
		<path fill="#E583B2" d="M11,22.818c0,0-7.158,0-5.247,8.977c0.054,0.253,0.413,0.281,0.486,0.032
			c0.485-1.659,1.803-4.749,4.761-4.009V22.818z"/>
		<path fill="#DD7AAE" d="M21,22.818c0,0,7.158,0,5.247,8.977c-0.054,0.253-0.413,0.281-0.486,0.032
			c-0.485-1.659-1.803-4.749-4.761-4.009V22.818z"/>
		<path fill="#E583B2" d="M16,18c-4.833,0-7,2.686-7,6s2.167,6,7,6V18z"/>
		<path fill="#DD7AAE" d="M23,24c0-3.314-2.167-6-7-6v12C20.833,30,23,27.314,23,24z"/>
		<path fill="#A8364C" d="M16,19c-3.452,0-5,1.791-5,4c0,2.209,1.548,4,5,4V19z"/>
		<path fill="#993147" d="M21,23c0-2.209-1.548-4-5-4v8C19.452,27,21,25.209,21,23z"/>
		<path fill="#EA8BB4" d="M16,18c-2.761,0-4,1.343-4,3s1.239,3,4,3V18z"/>
		<path fill="#E583B2" d="M20,21c0-1.657-1.239-3-4-3v6C18.761,24,20,22.657,20,21z"/>
		<path fill="#B93D4F" d="M16,15c-2.761,0-4,1.343-4,3s1.239,3,4,3V15z"/>
		<path fill="#A8364C" d="M20,18c0-1.657-1.239-3-4-3v6C18.761,21,20,19.657,20,18z"/>
		<path fill="#993147" d="M5,7.5C5,9.433,6.343,11,8,11s3-1.567,3-3.5S9,2,8,2S5,5.567,5,7.5z"/>
		<path fill="#EA8BB4" d="M2.888,9.919c1.298,1.298,3.253,1.449,4.366,0.336s0.963-3.068-0.336-4.366s-5.038-2.351-5.71-1.679
			S1.59,8.62,2.888,9.919z"/>
		<path fill="#A8364C" d="M4.889,14.333C6.607,14.333,8,13.139,8,11.667S6.607,9,4.889,9S0,10.778,0,11.667
			C0,12.556,3.171,14.333,4.889,14.333z"/>
		<path fill="#F297BE" d="M4.278,18C5.781,18,7,16.881,7,15.5S5.781,13,4.278,13S0,14.667,0,15.5C0,16.333,2.774,18,4.278,18z"/>
		<circle fill="#B93D4F" cx="4.5" cy="18.5" r="2.5"/>
		<path fill="#EDEEEE" d="M8.7,20.552c-0.421-0.332-1.398-0.951-2.376-0.462c0,0-0.324,0-0.324-1.295C6,17.5,6.324,17.5,6.324,17.5
			s3.044,0,2.639,2.951C8.946,20.574,8.798,20.63,8.7,20.552z"/>
		<path fill="#EDEEEE" d="M0.3,20.552c0.421-0.332,1.398-0.951,2.376-0.462c0,0,0.324,0,0.324-1.295C3,17.5,2.676,17.5,2.676,17.5
			s-3.044,0-2.639,2.951C0.054,20.574,0.202,20.63,0.3,20.552z"/>
		<path fill="#912B41" d="M27,7.5c0,1.933-1.343,3.5-3,3.5s-3-1.567-3-3.5S23,2,24,2S27,5.567,27,7.5z"/>
		<path fill="#E583B2" d="M29.112,9.919c-1.298,1.298-3.253,1.449-4.366,0.336c-1.113-1.113-0.963-3.068,0.336-4.366
			c1.298-1.298,5.038-2.351,5.71-1.679C31.463,4.881,30.41,8.62,29.112,9.919z"/>
		<path fill="#993147" d="M27.111,14.333c-1.718,0-3.111-1.194-3.111-2.667S25.393,9,27.111,9C28.829,9,32,10.778,32,11.667
			C32,12.556,28.829,14.333,27.111,14.333z"/>
		<path fill="#F297BE" d="M16,12c-2.761,0-4,1.343-4,3s1.239,3,4,3V12z"/>
		<path fill="#EA8BB4" d="M20,15c0-1.657-1.239-3-4-3v6C18.761,18,20,16.657,20,15z"/>
		<path fill="#F297BE" d="M23,9c0-2.803-1.853-5.15-5.095-5.809l-1.457-2.915C16.355,0.092,16.177,0,16,0v15
			C20.418,15,23,12.314,23,9z"/>
		<path fill="#F8A1C4" d="M16,0c-0.178,0-0.355,0.092-0.447,0.276l-1.457,2.915C10.853,3.85,9,6.197,9,9c0,3.314,2.582,6,7,6V0z"/>
		<path fill="#F7F7F7" d="M13,5c0,1.105-0.895,2-2,2S9,6.105,9,5s1-3,2-3S13,3.895,13,5z"/>
		<path fill="#7CD8D5" d="M12.939,5.469C12.975,5.318,13,5.162,13,5c0-1.105-1-3-2-3c-0.65,0-1.295,0.801-1.67,1.665L12.939,5.469z"
			/>
		<circle fill="#373F3F" cx="11.5" cy="5.5" r="0.5"/>
		<path fill="#EDEEEE" d="M19,5c0,1.105,0.895,2,2,2s2-0.895,2-2s-1-3-2-3S19,3.895,19,5z"/>
		<path fill="#66D3D3" d="M19.061,5.469C19.025,5.318,19,5.162,19,5c0-1.105,1-3,2-3c0.65,0,1.295,0.801,1.67,1.665L19.061,5.469z"
			/>
		<circle fill="#2B3332" cx="20.5" cy="5.5" r="0.5"/>
		<path fill="#EA8BB4" d="M27.722,18C26.219,18,25,16.881,25,15.5s1.219-2.5,2.722-2.5C29.226,13,32,14.667,32,15.5
			C32,16.333,29.226,18,27.722,18z"/>
		<circle fill="#A8364C" cx="27.5" cy="18.5" r="2.5"/>
		<path fill="#E3E5E5" d="M23.3,20.552c0.421-0.332,1.398-0.951,2.376-0.462c0,0,0.324,0,0.324-1.295
			c0-1.295-0.324-1.295-0.324-1.295s-3.044,0-2.639,2.951C23.054,20.574,23.202,20.63,23.3,20.552z"/>
		<path fill="#E3E5E5" d="M31.7,20.552c-0.421-0.332-1.398-0.951-2.376-0.462c0,0-0.324,0-0.324-1.295
			c0-1.295,0.324-1.295,0.324-1.295s3.044,0,2.639,2.951C31.946,20.574,31.798,20.63,31.7,20.552z"/>
		<path fill="#532F42" d="M16,7c-0.861,0-1.678,0.092-2.419,0.256l-0.453,1.36c-0.059,0.176-0.283,0.229-0.414,0.098l-0.873-0.873
			C10.708,8.386,10,9.151,10,10c0,1.174,1.353,2.188,3.319,2.681l0.504-0.504c0.098-0.098,0.256-0.098,0.354,0l0.775,0.775
			c0.03,0.003,0.06,0.004,0.091,0.007l0.781-0.781c0.049-0.049,0.113-0.073,0.177-0.073V7z"/>
		<path fill="#472236" d="M16.177,12.177l0.781,0.781c0.03-0.002,0.061-0.004,0.091-0.007l0.775-0.775
			c0.098-0.098,0.256-0.098,0.354,0l0.504,0.504C20.647,12.188,22,11.174,22,10c0-0.849-0.708-1.614-1.841-2.159l-0.873,0.873
			c-0.131,0.131-0.355,0.079-0.414-0.098l-0.453-1.36C17.678,7.092,16.861,7,16,7v5.104C16.064,12.104,16.128,12.128,16.177,12.177z
			"/>
		<path fill="#EDEEEE" d="M11,10.18c0,0.477-0.336,0.887-0.804,0.981L6.81,11.838c-0.243,0.049-0.401-0.247-0.226-0.422l1.239-1.239
			c0.098-0.098,0.098-0.256,0-0.354L6.584,8.584C6.409,8.409,6.567,8.113,6.81,8.162l3.386,0.677C10.664,8.933,11,9.343,11,9.82
			V10.18z"/>
		<path fill="#E3E5E5" d="M21,10.18c0,0.477,0.336,0.887,0.804,0.981l3.386,0.677c0.243,0.049,0.401-0.247,0.226-0.422l-1.239-1.239
			c-0.098-0.098-0.098-0.256,0-0.354l1.239-1.239c0.175-0.175,0.017-0.47-0.226-0.422l-3.386,0.677C21.336,8.933,21,9.343,21,9.82
			V10.18z"/>
		<circle fill="#56C7CD" cx="27.5" cy="18.5" r="1"/>
		<circle fill="#66D3D3" cx="4.5" cy="18.5" r="1"/>
	</g>
	<path fill="#EDEEEE" d="M5.438,29c0.001,0.821,0.091,1.741,0.315,2.795c0.054,0.253,0.413,0.281,0.486,0.032
		C6.475,31.021,6.91,29.878,7.632,29H5.438z"/>
	<path fill="#EDEEEE" d="M24.368,29c0.722,0.878,1.157,2.021,1.393,2.827c0.073,0.249,0.432,0.221,0.486-0.032
		c0.224-1.054,0.314-1.974,0.315-2.795H24.368z"/>
	<path fill="#EDEEEE" d="M7.487,30c0.049,0.558,0.128,1.147,0.266,1.795c0.054,0.253,0.413,0.281,0.486,0.032
		C8.391,31.305,8.627,30.641,8.97,30H7.487z"/>
	<path fill="#EDEEEE" d="M23.03,30c0.343,0.641,0.578,1.305,0.731,1.827c0.073,0.249,0.432,0.221,0.486-0.032
		c0.138-0.648,0.217-1.237,0.266-1.795H23.03z"/>
</g>
</svg>
