<?xml version="1.0" encoding="utf-8"?>
<!-- Generator: Adobe Illustrator 23.0.6, SVG Export Plug-In . SVG Version: 6.00 Build 0)  -->
<svg version="1.1" xmlns="http://www.w3.org/2000/svg" xmlns:xlink="http://www.w3.org/1999/xlink" x="0px" y="0px" width="32px"
	 height="32px" viewBox="0 0 32 32" enable-background="new 0 0 32 32" xml:space="preserve">
<g id="labels">
</g>
<g id="icons">
	<g>
		<g>
			<path fill="#707EB7" d="M26,29c-1-1-1-1,1-3s0-3-3-5c-2.054-1.369,0.11-3.207,2-5.834V20h2l0.119-10C28.346,5.235,23.802,0,21,0
				c-3,0-3,1-5,1v26c2,0,4-1,4-1s1,0,2,2c0.464,0.928,0.282,1.856-0.046,2.584C21.654,31.248,22.131,32,22.86,32h6.633
				c0.274,0,0.496-0.22,0.5-0.493L30,31C30,29,27,30,26,29z"/>
			<path fill="#7C8AC4" d="M11,0C8.198,0,3.654,5.235,3.881,10L4,20h2v-4.834c1.89,2.627,4.054,4.465,2,5.834c-3,2-5,3-3,5s2,2,1,3
				s-4,0-4,2l0.007,0.507C2.01,31.78,2.233,32,2.507,32H9.14c0.729,0,1.206-0.752,0.906-1.416C9.718,29.856,9.536,28.928,10,28
				c1-2,2-2,2-2s2,1,4,1V1C14,1,14,0,11,0z"/>
		</g>
		<path fill="#7C8AC4" d="M28.111,9.293C27.896,4.732,23.664,0,21,0c-3,0-3,1-5,1v10c4,0,4,1,7,1
			C25.003,12,27.001,10.775,28.111,9.293z"/>
		<path fill="#8694D1" d="M3.889,9.293C4.999,10.775,6.997,12,9,12c3,0,3-1,7-1V1c-2,0-2-1-5-1C8.336,0,4.104,4.732,3.889,9.293z"/>
		<path fill="#505957" d="M11,4c-0.79,0-1.537-0.185-2.2-0.513c-0.304-0.15-0.658,0.042-0.712,0.376
			C7.956,4.678,7.971,5.599,8.144,6.582C8.39,7.975,9.622,9.013,11.037,9C13.218,8.98,14,7.197,14,5
			c0-0.396-0.029-0.776-0.087-1.135c-0.054-0.335-0.408-0.528-0.712-0.378C12.537,3.815,11.79,4,11,4z"/>
		<path fill="#434C4B" d="M21,4c-0.79,0-1.537-0.185-2.2-0.513c-0.304-0.15-0.658,0.042-0.712,0.376
			c-0.131,0.814-0.117,1.736,0.057,2.718C18.39,7.975,19.622,9.013,21.037,9C23.218,8.98,24,7.197,24,5
			c0-0.396-0.029-0.776-0.087-1.135c-0.054-0.335-0.408-0.528-0.712-0.378C22.537,3.815,21.79,4,21,4z"/>
		<g>
			<path fill="#434C4B" d="M6,20c0,0-0.535-0.5-1-0.5S4,20,4,20l-0.944,1.889C2.361,23.277,2,24.808,2,26.361v0.889
				C2,27.664,2.336,28,2.75,28s0.75-0.336,0.75-0.75V24H5v3.25C5,27.664,5.336,28,5.75,28s0.75-0.336,0.75-0.75v-0.76
				c0-1.659-0.103-3.316-0.309-4.961L6,20z"/>
			<path fill="#FCA15E" d="M4.25,28L4.25,28c-0.414,0-0.75-0.336-0.75-0.75V24c0,0,0.212-0.25,0.75-0.25S5,24,5,24v3.25
				C5,27.664,4.664,28,4.25,28z"/>
		</g>
		<g>
			<path fill="#373F3F" d="M26,20c0,0,0.535-0.5,1-0.5s1,0.5,1,0.5l0.944,1.889C29.639,23.277,30,24.808,30,26.361v0.889
				c0,0.414-0.336,0.75-0.75,0.75s-0.75-0.336-0.75-0.75V24H27v3.25c0,0.414-0.336,0.75-0.75,0.75s-0.75-0.336-0.75-0.75v-0.76
				c0-1.659,0.103-3.316,0.309-4.961L26,20z"/>
			<path fill="#F79654" d="M27.75,28L27.75,28c0.414,0,0.75-0.336,0.75-0.75V24c0,0-0.212-0.25-0.75-0.25S27,24,27,24v3.25
				C27,27.664,27.336,28,27.75,28z"/>
		</g>
		<circle fill="#F79654" cx="24" cy="11" r="2"/>
		<circle fill="#FCA15E" cx="8" cy="11" r="2"/>
		<path fill="#FFE28A" d="M12.676,4.762C12.135,4.92,11.574,5,11,5S9.865,4.92,9.324,4.762C9.164,4.715,9,4.821,8.999,4.987
			C8.999,5.434,9.041,5.905,9.127,6.394C9.288,7.312,10.07,7.993,11,7.999c0.93-0.006,1.712-0.687,1.873-1.605
			c0.086-0.49,0.128-0.96,0.128-1.407C13,4.821,12.836,4.715,12.676,4.762z"/>
		<path fill="#FFD96C" d="M22.677,4.762C22.136,4.92,21.575,5,21.001,5s-1.135-0.08-1.676-0.238C19.165,4.715,19,4.821,19,4.987
			c-0.001,0.447,0.042,0.917,0.128,1.407c0.161,0.917,0.943,1.599,1.873,1.605c0.93-0.006,1.712-0.687,1.873-1.605
			c0.086-0.49,0.128-0.96,0.128-1.407C23.001,4.821,22.836,4.715,22.677,4.762z"/>
		<path fill="#373F3F" d="M10.501,4.965C10.501,4.977,10.5,4.988,10.5,5c0,1.105,0.224,2,0.5,2s0.5-0.895,0.5-2
			c0-0.012-0.001-0.023-0.001-0.035C11.333,4.979,11.168,5,11,5S10.667,4.979,10.501,4.965z"/>
		<path fill="#FFFFFF" d="M16,11c-2.694,0-3.575,0.453-4.778,0.749C11.819,12.38,13.584,14,16,14V11z"/>
		<path fill="#EDEEEE" d="M20.778,11.749C19.575,11.453,18.694,11,16,11v3C18.416,14,20.181,12.38,20.778,11.749z"/>
		<path fill="#2B3332" d="M20.501,4.966C20.501,4.977,20.5,4.988,20.5,5c0,1.105,0.224,2,0.5,2s0.5-0.895,0.5-2
			c0-0.012-0.001-0.023-0.001-0.034c-0.166,0.014-0.33,0.035-0.498,0.035C20.832,5.001,20.667,4.98,20.501,4.966z"/>
		<path fill="#F7F7F7" d="M14,13.615C14.6,13.841,15.265,14,16,14s1.4-0.159,2-0.385v-2.503C17.456,11.045,16.818,11,16,11
			s-1.456,0.045-2,0.111V13.615z"/>
		<path fill="#E3E5E5" d="M23.326,19H16v2h8C23.138,20.425,23.033,19.764,23.326,19z"/>
		<path fill="#EDEEEE" d="M16,19H8.674C8.967,19.764,8.862,20.425,8,21h8V19z"/>
		<path fill="#EDEEEE" d="M24.597,17H16v2h7.326C23.554,18.402,24.024,17.74,24.597,17z"/>
		<path fill="#F7F7F7" d="M16,17H7.403c0.573,0.74,1.043,1.402,1.272,2H16V17z"/>
		<path fill="#373F3F" d="M25.375,16H16v1h8.597C24.844,16.681,25.107,16.348,25.375,16z"/>
		<path fill="#434C4B" d="M16,16H6.625c0.268,0.348,0.531,0.681,0.778,1H16V16z"/>
	</g>
</g>
</svg>
