<?xml version="1.0" encoding="utf-8"?>
<!-- Generator: Adobe Illustrator 23.0.6, SVG Export Plug-In . SVG Version: 6.00 Build 0)  -->
<svg version="1.1" xmlns="http://www.w3.org/2000/svg" xmlns:xlink="http://www.w3.org/1999/xlink" x="0px" y="0px" width="32px"
	 height="32px" viewBox="0 0 32 32" enable-background="new 0 0 32 32" xml:space="preserve">
<g id="labels">
</g>
<g id="icons">
	<g>
		<path fill="#E85160" d="M19.213,26.398c-1.191-0.308-2.094-1.383-2.2-2.609c-0.08-0.924,0.226-1.769,0.789-2.369
			C18.55,20.622,19,19.593,19,18.5v0h-3v0c0,1.293-0.393,2.567-1.181,3.592c-0.617,0.802-0.935,1.843-0.781,2.969
			c0.235,1.718,1.626,3.134,3.341,3.393c1.659,0.25,3.153-0.522,3.968-1.777c0.133-0.205-0.089-0.444-0.318-0.359
			C20.482,26.518,19.86,26.566,19.213,26.398z"/>
		<path fill="#6CD275" d="M19.213,29.898c-1.191-0.308-2.094-1.383-2.2-2.609c-0.08-0.924,0.226-1.769,0.789-2.369
			C18.55,24.122,19,23.093,19,22v0h-3v0c0,1.293-0.393,2.567-1.181,3.592c-0.617,0.802-0.935,1.843-0.781,2.969
			c0.235,1.718,1.626,3.134,3.341,3.393c1.659,0.25,3.153-0.522,3.968-1.777c0.133-0.205-0.089-0.444-0.318-0.359
			C20.482,30.018,19.86,30.066,19.213,29.898z"/>
		<path fill="#F3586F" d="M16.213,28.898c-1.191-0.308-2.094-1.383-2.2-2.609c-0.08-0.924,0.226-1.769,0.789-2.37
			C15.55,23.122,16,22.093,16,21v0h-3v0.762c0,0.994-0.414,1.919-1.057,2.677c-0.697,0.821-1.068,1.923-0.904,3.121
			c0.235,1.718,1.626,3.134,3.341,3.393c1.659,0.25,3.153-0.522,3.968-1.777c0.133-0.205-0.089-0.444-0.318-0.359
			C17.482,29.018,16.86,29.066,16.213,28.898z"/>
		<path fill="#84ED82" d="M18.213,27.898c-1.191-0.308-2.094-1.383-2.2-2.609c-0.08-0.924,0.226-1.769,0.789-2.37
			C17.55,22.122,18,21.093,18,20v0h-3v0.762c0,0.994-0.414,1.919-1.057,2.677c-0.697,0.821-1.068,1.923-0.904,3.121
			c0.235,1.718,1.626,3.134,3.341,3.393c1.659,0.25,3.153-0.522,3.968-1.777c0.133-0.205-0.089-0.444-0.318-0.359
			C19.482,28.018,18.86,28.066,18.213,27.898z"/>
		<path fill="#78DF7C" d="M22,28c0,1,0,2,1,2s1-1,2-1s1,1,2,1s1-1,2-1s1,1,2,1s1-1,1-2c0-2-3-3-5-6c-2.481-3.721-4-7-7-7v4
			c2,0,4,3,4,5S22,25,22,28z"/>
		<path fill="#84ED82" d="M10,28c0,1,0,2-1,2s-1-1-2-1s-1,1-2,1s-1-1-2-1s-1,1-2,1s-1-1-1-2c0-2,3-3,5-6c2.481-3.721,4-7,7-7v4
			c-2,0-4,3-4,5S10,25,10,28z"/>
		<path fill="#8FF888" d="M6.788,4.653L6.013,2.329C5.948,2.134,6.134,1.948,6.329,2.013l2.324,0.775
			C8.83,2.847,8.883,3.07,8.751,3.202L7.202,4.751C7.07,4.883,6.847,4.83,6.788,4.653z"/>
		<path fill="#84ED82" d="M25.212,4.653l0.775-2.324c0.065-0.195-0.121-0.381-0.316-0.316l-2.324,0.775
			c-0.176,0.059-0.229,0.283-0.098,0.414l1.549,1.549C24.93,4.883,25.153,4.83,25.212,4.653z"/>
		<ellipse fill="#FFD96C" cx="16" cy="19" rx="5" ry="4"/>
		<path fill="#FFD04D" d="M16,23c2.761,0,5-1.791,5-4c0-3-2-4-5-4V23z"/>
		<path fill="#FFD04D" d="M11.158,20c0.555,1.725,2.513,3,4.842,3c2.33,0,4.287-1.275,4.842-3C19,21,15,22,11.158,20z"/>
		<path fill="#F0C13E" d="M16,23c2.33,0,4.287-1.275,4.842-3c-1.048,0.569-2.794,1.138-4.812,1.154L16,23z"/>
		<circle fill="#4B7E6D" cx="14" cy="17.5" r="1.5"/>
		<circle fill="#407966" cx="18" cy="18.5" r="1"/>
		<path fill="#A9FAA2" d="M27,9c0-4-4.392-9-11-9C9.408,0,5,5,5,9c0,5,3.3,8,11,8S27,14,27,9z"/>
		<path fill="#8FF888" d="M16,17c7.7,0,11-3,11-8c0-4-4.392-9-11-9V17z"/>
		<path fill="#CF3C35" d="M24,9.28c0-0.236-0.251-0.371-0.424-0.21c-2.36,2.193-5.473,2.508-7.576,2.554
			c-2.103-0.046-5.216-0.36-7.576-2.554C8.251,8.909,8,9.044,8,9.28c0,3.537,5,5.352,8,5.318C19,14.598,24,12.817,24,9.28z"/>
		<path fill="#C23734" d="M16,14.598c3,0,8-1.781,8-5.318c0-0.236-0.251-0.371-0.424-0.21c-2.36,2.193-5.473,2.508-7.576,2.554
			V14.598z"/>
		<g>
			<circle fill="#FFFFFF" cx="10.75" cy="6.25" r="2"/>
			<path fill="#373F3F" d="M10.75,8.5C9.509,8.5,8.5,7.49,8.5,6.25S9.509,4,10.75,4S13,5.01,13,6.25S11.991,8.5,10.75,8.5z
				 M10.75,4.5C9.785,4.5,9,5.285,9,6.25S9.785,8,10.75,8s1.75-0.785,1.75-1.75S11.715,4.5,10.75,4.5z"/>
		</g>
		<circle fill="#373F3F" cx="10.75" cy="6.25" r="0.5"/>
		<g>
			<circle fill="#F7F7F7" cx="21.25" cy="6.25" r="2"/>
			<path fill="#2B3332" d="M21.25,8.5C20.009,8.5,19,7.49,19,6.25S20.009,4,21.25,4s2.25,1.01,2.25,2.25S22.491,8.5,21.25,8.5z
				 M21.25,4.5c-0.965,0-1.75,0.785-1.75,1.75S20.285,8,21.25,8S23,7.215,23,6.25S22.215,4.5,21.25,4.5z"/>
		</g>
		<circle fill="#2B3332" cx="21.25" cy="6.25" r="0.5"/>
		<path fill="none" d="M10.441,10.447l0.447,2.837c0.54,0.295,1.122,0.537,1.713,0.734l-0.589-2.961
			C11.485,10.9,10.958,10.704,10.441,10.447z"/>
		<path fill="none" d="M16.466,11.606l0.462,2.937c0.547-0.057,1.126-0.16,1.714-0.313l-0.55-2.766
			C17.516,11.541,16.971,11.585,16.466,11.606z"/>
		<path fill="none" d="M19.989,11.057l-0.585,2.944c0.59-0.196,1.172-0.437,1.712-0.731l0.444-2.823
			C21.042,10.704,20.515,10.9,19.989,11.057z"/>
		<path fill="none" d="M24,9.28c0-0.236-0.251-0.371-0.424-0.21c-0.384,0.357-0.792,0.648-1.209,0.913l0.337,2.137
			C23.491,11.351,24,10.406,24,9.28z"/>
		<path fill="none" d="M13.908,11.463l-0.553,2.78c0.588,0.153,1.168,0.254,1.715,0.307l0.464-2.945
			C15.029,11.585,14.484,11.541,13.908,11.463z"/>
		<path fill="#84ED82" d="M10.243,9.189c-0.063-0.252-0.422-0.252-0.485,0l-0.463,2.938c0.398,0.426,1.038,0.903,1.592,1.158
			L10.243,9.189z"/>
		<path fill="#84ED82" d="M12,11.057l0.746,3.753c0.063,0.253,0.422,0.253,0.485,0l0.665-3.348
			C13.283,11.379,12.646,11.25,12,11.057z"/>
		<path fill="#78DF7C" d="M18.092,11.463l0.665,3.348c0.063,0.253,0.422,0.253,0.485,0l0.747-3.746
			C19.344,11.257,18.706,11.379,18.092,11.463z"/>
		<path fill="#4B7E6D" d="M12.7,2c1.215,0,2.2-0.448,2.2-1c0-0.341-0.377-0.642-0.951-0.822c-1.225,0.203-2.355,0.574-3.366,1.079
			C10.833,1.684,11.682,2,12.7,2z"/>
		<path fill="#407966" d="M19.3,2c1.02,0,1.87-0.317,2.119-0.745c-1.01-0.505-2.141-0.875-3.366-1.077
			C17.478,0.358,17.1,0.659,17.1,1C17.1,1.552,18.085,2,19.3,2z"/>
		<ellipse fill="#568473" cx="16" cy="3" rx="1.5" ry="1"/>
		<path fill="#4B7E6D" d="M16,2c0.828,0,1.5,0.448,1.5,1S16.828,4,16,4V2z"/>
		<g>
			<path fill="#84ED82" d="M16.243,10.189c-0.063-0.252-0.422-0.252-0.485,0l-0.686,4.368c0.518,0.084,1.423,0.064,1.855-0.005
				L16.243,10.189z"/>
			<path fill="#78DF7C" d="M16.926,14.553l-0.683-4.363C16.211,10.063,16.105,10,16,10v4.609
				C16.355,14.608,16.703,14.588,16.926,14.553z"/>
		</g>
		<path fill="#78DF7C" d="M22.243,9.189c-0.063-0.252-0.422-0.252-0.485,0l-0.643,4.081c0.567-0.264,1.219-0.766,1.589-1.15
			L22.243,9.189z"/>
		<g>
			<path fill="#2B3332" d="M16,20.75v0.5c1.658,0,3.473-0.284,4.718-0.979c0.101-0.241,0.173-0.49,0.216-0.748
				C19.875,20.36,17.934,20.75,16,20.75z"/>
			<path fill="#373F3F" d="M11.066,19.523c0.043,0.259,0.115,0.507,0.216,0.748c1.246,0.695,3.06,0.979,4.718,0.979v-0.5
				C14.066,20.75,12.125,20.36,11.066,19.523z"/>
		</g>
	</g>
</g>
</svg>
