<?xml version="1.0" encoding="utf-8"?>
<!-- Generator: Adobe Illustrator 23.0.6, SVG Export Plug-In . SVG Version: 6.00 Build 0)  -->
<svg version="1.1" xmlns="http://www.w3.org/2000/svg" xmlns:xlink="http://www.w3.org/1999/xlink" x="0px" y="0px" width="32px"
	 height="32px" viewBox="0 0 32 32" enable-background="new 0 0 32 32" xml:space="preserve">
<g id="labels">
</g>
<g id="icons">
	<g>
		<path fill="#FAE09F" d="M27.085,1.145c-0.068-0.147-0.26-0.191-0.387-0.091C22.836,4.073,19.041,8.168,19,16
			c-0.031,6.014-2,12,8,12c4,0,4-6,0-6c0,0,5-2.581,5-9c0-6.083-4-8-4-8S28,3.132,27.085,1.145z"/>
		<path fill="#FF5F7E" d="M22,25c0,1.105,2.343,2,4,2s3-0.895,3-2s-1.343-2-3-2S22,23.895,22,25z"/>
		<ellipse fill="#FF5F7E" cx="26" cy="13" rx="4" ry="7"/>
		<path fill="#4F4949" d="M20.591,2.049C20.718,1.956,20.906,2,20.974,2.142c0.838,1.748,1.422,3.736,0.699,6.333
			c-0.659,2.37-2.297,3.138-3.843,3.935C15.939,7.974,17.094,4.607,20.591,2.049z"/>
		<path fill="#FDEBBB" d="M4.915,1.145c0.068-0.147,0.26-0.191,0.387-0.091C9.164,4.073,12.959,8.168,13,16c0.031,6.014,2,12-8,12
			c-4,0-4-6,0-6c0,0-5-2.581-5-9c0-6.083,4-8,4-8S4,3.132,4.915,1.145z"/>
		<path fill="#FF6B8B" d="M10,25c0,1.105-2.343,2-4,2s-3-0.895-3-2s1.343-2,3-2S10,23.895,10,25z"/>
		<ellipse fill="#FF6B8B" cx="6" cy="13" rx="4" ry="7"/>
		<path fill="#5A5353" d="M6,17.965c0,5.523,4.477,10,10,10v-10v-10C10.477,7.965,6,12.442,6,17.965z"/>
		<path fill="#4F4949" d="M26,17.965c0,5.523-4.477,10-10,10v-10v-10C21.523,7.965,26,12.442,26,17.965z"/>
		<path fill="#263460" d="M25.984,18.288c-0.172,5.372-4.57,9.676-9.984,9.676v-9c1,0,2,1,2,1
			C21.776,19.965,24.379,19.092,25.984,18.288z"/>
		<path fill="#FFF3D9" d="M6.016,18.288c0.061,5.299,4.572,9.765,9.984,9.676v-9c-1,0-2,1-2,1
			C10.224,19.965,7.621,19.092,6.016,18.288z"/>
		<path fill="#FDEBBB" d="M25.984,18.288C25.897,23.622,21.379,28,16,27.965v-9c1,0,2,1,2,1
			C21.776,19.965,24.379,19.092,25.984,18.288z"/>
		<path fill="#FF7898" d="M6.009,18.276c0,0.534,0.069,1.137,0.179,1.681c1.789,1,4.974,2.007,9.811,2.007v-3c-1.074-0.017-2,1-2,1
			C9.99,19.872,7.615,19.08,6.009,18.276z"/>
		<path fill="#FF6B8B" d="M26,18.276c0,0.534-0.069,1.137-0.179,1.681c-1.789,1-4.974,2.007-9.811,2.007v-3c1.074-0.017,2,1,2,1
			C22.02,19.872,24.395,19.08,26,18.276z"/>
		<g>
			<g>
				<ellipse fill="#FF87A4" cx="11" cy="18.965" rx="2" ry="3"/>
				<ellipse fill="#373F3F" cx="11" cy="18.965" rx="1" ry="2"/>
				<circle fill="#FFFFFF" cx="11.5" cy="19.965" r="0.5"/>
			</g>
		</g>
		<g>
			<g>
				<ellipse fill="#FF7898" cx="21" cy="18.965" rx="2" ry="3"/>
				<ellipse fill="#2B3332" cx="21" cy="18.965" rx="1" ry="2"/>
				<circle fill="#F7F7F7" cx="21.5" cy="19.965" r="0.5"/>
			</g>
		</g>
		<path fill="#5A5353" d="M11.409,2.049C11.282,1.956,11.094,2,11.026,2.142c-0.838,1.748-1.422,3.736-0.699,6.333
			c0.659,2.37,2.297,3.138,3.843,3.935C16.061,7.974,14.906,4.607,11.409,2.049z"/>
		<path fill="#FFF3D9" d="M6.469,28.5l1.996,1.996c0.841,0.841,2.273,0.503,2.649-0.625l1.205-3.615
			c0.06-0.18,0.013-0.378-0.121-0.512l-0.977-0.977c-0.134-0.134-0.332-0.181-0.512-0.121L7.095,25.85
			C5.966,26.226,5.628,27.659,6.469,28.5z"/>
		<path fill="#FDEBBB" d="M25.531,28.5l-1.996,1.996c-0.841,0.841-2.273,0.503-2.649-0.625l-1.205-3.615
			c-0.06-0.18-0.013-0.378,0.121-0.512l0.977-0.977c0.134-0.134,0.332-0.181,0.512-0.121l3.615,1.205
			C26.034,26.226,26.372,27.659,25.531,28.5z"/>
	</g>
</g>
</svg>
