<?xml version="1.0" encoding="utf-8"?>
<!-- Generator: Adobe Illustrator 23.0.6, SVG Export Plug-In . SVG Version: 6.00 Build 0)  -->
<svg version="1.1" xmlns="http://www.w3.org/2000/svg" xmlns:xlink="http://www.w3.org/1999/xlink" x="0px" y="0px" width="32px"
	 height="32px" viewBox="0 0 32 32" enable-background="new 0 0 32 32" xml:space="preserve">
<g id="labels">
</g>
<g id="icons">
	<g>
		<path fill="#3A3333" d="M14,22h4l1.216,6.078C19.621,30.107,18.069,32,16,32h0c-2.069,0-3.621-1.893-3.216-3.922L14,22z"/>
		<g>
			<path fill="#413B3B" d="M14,22l-1.216,6.078C12.379,30.107,13.931,32,16,32V22H14z"/>
		</g>
		<path fill="#3A3333" d="M16,17.589C16,6,19.107,0,30.107,0c3,0,2,3,0,3s-3-1-3-1S27.086,4.14,30,6c1.186,0.757,2,1.001,2,3
			c0,1.911-1,3-3,3c-1.03,0-2,0.132-2,1.5c0,1.5,0.839,1.5,2,1.5c1.809,0,3,0.879,3,3c0,2.847-3.07,4-8,4C20.112,22,16,22,16,17.589
			z"/>
		<path fill="#FAE09F" d="M25,0.557C26.474,0.186,28.168,0,30.107,0c3,0,2,3,0,3s-3-1-3-1S27.086,4.14,30,6c1.186,0.757,2,1.001,2,3
			c0,1.911-1,3-3,3c-1.03,0-2,0.132-2,1.5c0,1.5,0.839,1.5,2,1.5c1.809,0,3,0.879,3,3c0,2.847-3.07,4-8,4
			c-0.488,0-1.014,0.015-1.304-0.074C21.207,21.47,22.325,20,24,20c1.262,0,6,0,6-2s-5,0-5-4c0-1,0-4,2-4c2.285,0,2.932,0.552,3-1
			c0.065-1.489-1.95-1.95-3-3C25,4,25,3,25,0.557z"/>
		<g>
			<path fill="#413B3B" d="M16,17.589C16,6,12.893,0,1.893,0c-3,0-2,3,0,3s3-1,3-1S4.914,4.14,2,6C0.814,6.757,0,7.001,0,9
				c0,1.911,1,3,3,3c1.03,0,2,0.132,2,1.5C5,15,4.161,15,3,15c-1.809,0-3,0.879-3,3c0,2.847,3.07,4,8,4C11.888,22,16,22,16,17.589z"
				/>
			<path fill="#FDEBBB" d="M7,0.557C5.526,0.186,3.832,0,1.893,0c-3,0-2,3,0,3s3-1,3-1S4.914,4.14,2,6C0.814,6.757,0,7.001,0,9
				c0,1.911,1,3,3,3c1.03,0,2,0.132,2,1.5C5,15,4.161,15,3,15c-1.809,0-3,0.879-3,3c0,2.847,3.07,4,8,4
				c0.75,0,1.348-0.029,1.644-0.216C10.535,21.221,9.5,20,8,20c-1.262,0-6,0-6-2s5,0,5-4c0-1,0-4-2-4c-2.285,0-2.932,0.552-3-1
				C1.935,7.511,3.95,7.05,5,6C7,4,7,3,7,0.557z"/>
		</g>
		<g>
			<path fill="#FDEBBB" d="M8.898,29.558L8.898,29.558c-1.222-0.861-1.377-2.613-0.327-3.676l4.096-4.147L15,23.38l-2.53,5.251
				C11.822,29.977,10.119,30.419,8.898,29.558z"/>
			<path fill="#FAE09F" d="M23.102,29.558L23.102,29.558c1.222-0.861,1.377-2.613,0.327-3.676l-4.096-4.147L17,23.38l2.53,5.251
				C20.178,29.977,21.881,30.419,23.102,29.558z"/>
		</g>
		<path fill="#5A5353" d="M6,15c0,5.523,4.477,10,10,10V15V5C10.477,5,6,9.477,6,15z"/>
		<path fill="#4F4949" d="M26,15c0,5.523-4.477,10-10,10V15V5C21.523,5,26,9.477,26,15z"/>
		<path fill="#413B3B" d="M25.984,15.324C25.811,20.695,21.414,25,16,25v-9c1,0,2,1,2,1C21.776,17,24.379,16.128,25.984,15.324z"/>
		<path fill="#4F4949" d="M6.016,15.324C6.189,20.695,10.586,25,16,25v-9c-1,0-2,1-2,1C10.224,17,7.621,16.128,6.016,15.324z"/>
		<g>
			<path fill="#FFF3D9" d="M12,16.5c0,2.761,1.791,5,4,5v-5v-5C13.791,11.5,12,13.739,12,16.5z"/>
			<path fill="#FDEBBB" d="M20,16.5c0,2.761-1.791,5-4,5v-5v-5C18.209,11.5,20,13.739,20,16.5z"/>
			<path fill="#FDEBBB" d="M12.033,16.908C12.202,19.475,13.903,21.5,16,21.5V16c-1.394,0-2,1-2,1
				C13.045,16.971,12.635,16.919,12.033,16.908z"/>
			<path fill="#FAE09F" d="M19.967,16.908C19.385,16.919,18.565,16.954,18,17c0,0-0.862-0.999-2-1v5.5
				C18.097,21.5,19.798,19.475,19.967,16.908z"/>
		</g>
		<g>
			<ellipse fill="#E85160" cx="11" cy="16" rx="2" ry="3"/>
			<ellipse fill="#373F3F" cx="11" cy="16" rx="1" ry="2"/>
			<circle fill="#FFFFFF" cx="11.5" cy="17" r="0.5"/>
		</g>
		<path fill="#FFF3D9" d="M12.921,14.832c-0.094-0.966-0.569-1.855-1.89-1.855c-1.313,0-1.777,0.778-1.951,1.855
			c0,0,0.311,0.163,1.921,0.166V15C12.657,15,12.921,14.832,12.921,14.832z"/>
		<g>
			<g>
				<ellipse fill="#E85160" cx="21" cy="16" rx="2" ry="3"/>
				<ellipse fill="#2B3332" cx="21" cy="16" rx="1" ry="2"/>
				<circle fill="#F7F7F7" cx="21.5" cy="17" r="0.5"/>
			</g>
		</g>
		<path fill="#FDEBBB" d="M22.921,14.832c-0.094-0.966-0.569-1.855-1.89-1.855c-1.313,0-1.783,0.758-1.954,1.852
			c0,0,0.314,0.166,1.924,0.169V15C22.657,15,22.921,14.832,22.921,14.832z"/>
	</g>
</g>
</svg>
