<?xml version="1.0" encoding="utf-8"?>
<!-- Generator: Adobe Illustrator 23.0.6, SVG Export Plug-In . SVG Version: 6.00 Build 0)  -->
<svg version="1.1" xmlns="http://www.w3.org/2000/svg" xmlns:xlink="http://www.w3.org/1999/xlink" x="0px" y="0px" width="32px"
	 height="32px" viewBox="0 0 32 32" enable-background="new 0 0 32 32" xml:space="preserve">
<g id="labels">
</g>
<g id="icons">
	<g>
		<path fill="#A5D1D8" d="M16,10c4,0,8,4,12,4c3,0,4,1.053,4,2c0,0.936-1.028,1.384-1.932,2c-1.075,0.732-6.062,3.032-10,2.844
			C19.506,20.817,16,10,16,10z"/>
		<path fill="#1B6A89" d="M17.69,10.231c0.152,0.039,0.312,0.064,0.458,0.112C21.432,11.308,24.716,14,28,14c3,0,4,1.053,4,2
			c-0.628-0.279-1.54-0.796-3.93-0.791c-2.068,0.005-3.843,0.276-5.002-0.209c-0.001-0.001-0.003-0.001-0.004-0.002
			C21.948,12.594,19.949,10.831,17.69,10.231z"/>
		<path fill="#237899" d="M15.176,11.181c0,0-1.544-3.09-1.365-4.307c0.031-0.208,0.208-0.479,0.208-0.875
			c0-0.828-0.672-1.5-1.5-1.5s-1.5,0.672-1.5,1.5c0,2.001,2.966,5.233,3.433,5.7L15.176,11.181z"/>
		<path fill="#ACD7DD" d="M16,10c-4,0-8,4-12,4c-3,0-4,1.053-4,2c0,0.936,1.028,1.384,1.932,2c1.075,0.732,6.062,3.032,10,2.844
			C12.494,20.817,16,10,16,10z"/>
		<path fill="#B9E2E7" d="M16,10v15c-4.158,0-8-1.962-8-5.738C8,14.064,11.842,10,16,10z"/>
		<path fill="#373F3F" d="M11.63,20.684c-0.367-0.206-0.684-0.427-0.898-0.677c-0.06-0.07-0.169-0.022-0.157,0.069
			c0.061,0.477,0.421,0.77,0.873,1.023c0.432,0.242,0.937,0.41,1.388,0.186c0.081-0.04,0.061-0.162-0.03-0.168
			C12.447,21.089,12.046,20.917,11.63,20.684z"/>
		<ellipse fill="#373F3F" cx="13.248" cy="16.054" rx="1.003" ry="1"/>
		<g>
			<path fill="#373F3F" d="M13.971,17.663c-0.094,0-0.184-0.054-0.227-0.145l-0.423-0.906c-0.059-0.125-0.004-0.273,0.121-0.332
				c0.124-0.057,0.273-0.004,0.332,0.121l0.423,0.906c0.059,0.125,0.004,0.273-0.121,0.332
				C14.042,17.655,14.006,17.663,13.971,17.663z"/>
			<path fill="#373F3F" d="M12.524,17.663c-0.036,0-0.071-0.008-0.105-0.023c-0.125-0.059-0.18-0.207-0.121-0.332l0.423-0.906
				c0.059-0.125,0.208-0.178,0.332-0.121c0.125,0.059,0.18,0.207,0.121,0.332l-0.423,0.906
				C12.708,17.609,12.618,17.663,12.524,17.663z"/>
		</g>
		<ellipse fill="#FFFFFF" cx="13.248" cy="16.054" rx="0.502" ry="0.571"/>
		<path fill="#1D7293" d="M16.824,11.181c0,0,1.544-3.09,1.365-4.307c-0.031-0.208-0.208-0.479-0.208-0.875
			c0-0.828,0.672-1.5,1.5-1.5s1.5,0.672,1.5,1.5c0,2.001-2.966,5.233-3.433,5.7L16.824,11.181z"/>
		<path fill="none" d="M14.31,10.231c0.097-0.025,0.192-0.05,0.291-0.071C14.504,10.181,14.407,10.205,14.31,10.231z"/>
		<path fill="none" d="M15.063,10.076C15.367,10.034,15.675,10,16,10C15.685,10,15.373,10.031,15.063,10.076z"/>
		<path fill="#5C699E" d="M14.601,10.16c0.153-0.033,0.307-0.061,0.461-0.083C14.905,10.098,14.753,10.128,14.601,10.16z"/>
		<path fill="#1D7293" d="M14.489,10.17c-0.152,0.039-0.49,0.113-0.636,0.161C10.569,11.296,7.284,14,4,14c-3,0-4,1.053-4,2
			c0.628-0.279,1.54-0.796,3.93-0.791C5.998,15.214,7.773,15.485,8.932,15c0.001-0.001,0.003-0.001,0.004-0.002
			C10.052,12.594,12.23,10.77,14.489,10.17z"/>
		<path fill="#ACD7DD" d="M24,19.262C24,23.038,20.158,25,16,25V10C20.158,10,24,14.064,24,19.262z"/>
		<path fill="#1D7293" d="M16,10c-0.325,0-0.633,0.034-0.937,0.076c-0.155,0.023-0.309,0.05-0.461,0.083
			c-0.099,0.021-0.195,0.046-0.291,0.071c-2.259,0.6-4.259,2.363-5.374,4.767C9.935,14.578,11.027,13.5,13,13.5c1.007,0,1,0.5,3,0.5
			s1.993-0.5,3-0.5c1.973,0,3.08,1.087,4.078,1.507C21.609,11.683,18.632,10,16,10z"/>
		<path fill="#237899" d="M16,14v-4c-1.858-0.087-5.258,1.094-7.064,4.998C9.935,14.578,11.027,13.5,13,13.5
			C14.007,13.5,14,14,16,14z"/>
		<path fill="#2B3332" d="M20.37,20.684c0.367-0.206,0.684-0.427,0.898-0.677c0.06-0.07,0.169-0.022,0.157,0.069
			c-0.061,0.477-0.421,0.77-0.873,1.023c-0.432,0.242-0.937,0.41-1.388,0.186c-0.081-0.04-0.061-0.162,0.03-0.168
			C19.553,21.089,19.954,20.917,20.37,20.684z"/>
		<g>
			<path fill="#2B3332" d="M19.476,17.663c-0.094,0-0.184-0.054-0.227-0.145l-0.423-0.906c-0.059-0.125-0.004-0.273,0.121-0.332
				c0.125-0.057,0.273-0.004,0.332,0.121l0.423,0.906c0.059,0.125,0.004,0.273-0.121,0.332
				C19.547,17.655,19.511,17.663,19.476,17.663z"/>
			<path fill="#2B3332" d="M18.029,17.663c-0.036,0-0.071-0.008-0.105-0.023c-0.125-0.059-0.18-0.207-0.121-0.332l0.423-0.906
				c0.059-0.125,0.208-0.178,0.332-0.121c0.125,0.059,0.18,0.207,0.121,0.332l-0.423,0.906
				C18.213,17.609,18.123,17.663,18.029,17.663z"/>
		</g>
		<ellipse fill="#2B3332" cx="18.752" cy="16.054" rx="1.003" ry="1"/>
		<ellipse fill="#F7F7F7" cx="18.752" cy="16.054" rx="0.502" ry="0.571"/>
		<path fill="#2B3332" d="M17.666,19.099c-0.089-0.109-0.245-0.124-0.352-0.037C16.979,19.333,16.5,19.489,16,19.489
			s-0.979-0.156-1.313-0.428c-0.106-0.086-0.264-0.071-0.352,0.037c-0.087,0.106-0.07,0.265,0.037,0.352
			c0.429,0.348,1.007,0.539,1.629,0.539s1.2-0.191,1.629-0.539C17.736,19.363,17.752,19.205,17.666,19.099z"/>
		<path fill="#373F3F" d="M14.687,19.062c-0.106-0.086-0.264-0.071-0.352,0.037c-0.087,0.106-0.07,0.265,0.037,0.352
			c0.425,0.345,0.997,0.534,1.613,0.538v-0.5C15.49,19.485,15.017,19.33,14.687,19.062z"/>
	</g>
</g>
</svg>
