<?xml version="1.0" encoding="utf-8"?>
<!-- Generator: Adobe Illustrator 23.0.6, SVG Export Plug-In . SVG Version: 6.00 Build 0)  -->
<svg version="1.1" xmlns="http://www.w3.org/2000/svg" xmlns:xlink="http://www.w3.org/1999/xlink" x="0px" y="0px" width="32px"
	 height="32px" viewBox="0 0 32 32" enable-background="new 0 0 32 32" xml:space="preserve">
<g id="labels">
</g>
<g id="icons">
	<g>
		<path fill="#C84054" d="M6.014,6.684C5.997,6.878,6.109,7.06,6.279,7.155L15,12h1c0,0,0-11,0-12C10.17,0,6.278,3.727,6.014,6.684z
			"/>
		<path fill="#D84459" d="M6.014,6.685C5.997,6.878,6.108,7.06,6.277,7.154L15,12h1c0,0-6.179-8.785-7-9.826
			C7.216,3.484,6.148,5.184,6.014,6.685z"/>
		<path fill="#B93D4F" d="M25.986,6.684c0.017,0.194-0.094,0.376-0.264,0.471L17,12h-1c0,0,0-11,0-12
			C21.83,0,25.722,3.727,25.986,6.684z"/>
		<path fill="#C84054" d="M25.986,6.685c0.017,0.193-0.094,0.375-0.263,0.469L17,12h-1c0,0,6.179-8.785,7-9.826
			C24.784,3.484,25.852,5.184,25.986,6.685z"/>
		<g>
			<path fill="#B93D4F" d="M17.692,10.851c0.571-0.827,2.242-1.416,3.984-1.531c1.718-0.113,4.376,0.579,5.225,1.019
				c0.12,0.062,0.134,0.218,0.024,0.295c-1.103,0.767-2.768,1.775-3.877,2.001C21.855,12.878,19.052,12.36,17.692,10.851z"/>
			<path fill="#C84054" d="M17.995,11.143c1.438,1.238,3.943,1.718,5.053,1.492c0.969-0.197,2.362-1.073,3.434-1.716
				c-1.067-0.487-3.366-0.969-4.91-0.868C20.135,10.147,17.732,10.633,17.995,11.143z"/>
		</g>
		<g>
			<path fill="#C84054" d="M14.308,10.851c-0.571-0.827-2.242-1.416-3.984-1.531c-1.718-0.113-4.376,0.579-5.225,1.019
				c-0.12,0.062-0.134,0.218-0.024,0.295c1.103,0.767,2.768,1.775,3.877,2.001C10.145,12.878,12.948,12.36,14.308,10.851z"/>
			<path fill="#D84459" d="M14.005,11.143c-1.438,1.238-3.943,1.718-5.053,1.492c-0.969-0.197-2.362-1.073-3.434-1.716
				c1.067-0.487,3.366-0.969,4.91-0.868C11.865,10.147,14.268,10.633,14.005,11.143z"/>
		</g>
		<g>
			<path fill="#3B8FA3" d="M18.095,13.15c0.651,0.192,4.076,1.788,5.359,2.704c2.475,1.768,5.238,2.317,5.629,2.67
				c0.411,0.372,0.716,1.07,1.079,1.6c0.416,0.609,0.859,1.045,0.837,1.284c-0.037,0.409-0.608,0.65-0.893,1.042
				c-0.298,0.409-0.372,0.893-0.633,1.154c-0.223,0.223-0.595-0.037-1.098,0.019c-0.562,0.062-0.893,0.484-1.079,0.335
				c-0.123-0.099,0.205-2.363-0.037-2.605c-0.411-0.411-3.452-2.689-5.387-3.842s-4.428-2.196-4.819-2.289
				S18.095,13.15,18.095,13.15z"/>
			<path fill="#E3E5E5" d="M30.162,20.125c0.416,0.609,0.859,1.045,0.837,1.284c-0.037,0.409-0.608,0.65-0.893,1.042
				c-0.298,0.409-0.372,0.893-0.633,1.154c-0.223,0.223-0.595-0.037-1.098,0.019c-0.562,0.062-0.893,0.484-1.079,0.335
				c-0.123-0.099,0.205-2.363-0.037-2.605c-0.186-0.186-0.916-0.758-1.835-1.433l2.077,0.15l-1.472-1.786
				c-0.071-0.089,0-0.219,0.113-0.207l2.734,0.33c0.087,0.042,0.167,0.082,0.207,0.118C29.493,18.896,29.799,19.594,30.162,20.125z"
				/>
			<path fill="#DADDDC" d="M30.999,21.408c-0.037,0.409-0.608,0.65-0.893,1.042c-0.298,0.409-0.372,0.893-0.633,1.154
				c-0.223,0.223-0.595-0.037-1.098,0.019c-0.562,0.062-0.893,0.484-1.079,0.335c-0.117-0.093,0.164-2.101-0.008-2.527l3.663-0.187
				C30.977,21.303,31.003,21.363,30.999,21.408z"/>
		</g>
		<g>
			<path fill="#4295AC" d="M13.905,13.15c-0.651,0.192-4.076,1.788-5.359,2.704c-2.475,1.768-5.238,2.317-5.629,2.67
				c-0.411,0.372-0.716,1.07-1.079,1.6c-0.416,0.609-0.859,1.045-0.837,1.284c0.037,0.409,0.608,0.65,0.893,1.042
				c0.298,0.409,0.372,0.893,0.633,1.154c0.223,0.223,0.595-0.037,1.098,0.019c0.562,0.062,0.893,0.484,1.079,0.335
				c0.123-0.099-0.205-2.363,0.037-2.605c0.411-0.411,3.452-2.689,5.387-3.842s4.428-2.196,4.819-2.289S13.905,13.15,13.905,13.15z"
				/>
			<path fill="#EDEEEE" d="M1.838,20.125c-0.416,0.609-0.859,1.045-0.837,1.284c0.037,0.409,0.608,0.65,0.893,1.042
				c0.298,0.409,0.372,0.893,0.633,1.154c0.223,0.223,0.595-0.037,1.098,0.019c0.562,0.062,0.893,0.484,1.079,0.335
				c0.123-0.099-0.205-2.363,0.037-2.605c0.186-0.186,0.916-0.758,1.835-1.433L4.5,20.069l1.472-1.786
				c0.071-0.089,0-0.219-0.113-0.207l-2.734,0.33c-0.087,0.042-0.167,0.082-0.207,0.118C2.507,18.896,2.201,19.594,1.838,20.125z"/>
			<path fill="#E3E5E5" d="M1.049,21.244l3.663,0.187c-0.172,0.426,0.108,2.434-0.008,2.527c-0.186,0.149-0.518-0.273-1.079-0.335
				c-0.502-0.056-0.875,0.205-1.098-0.019c-0.261-0.261-0.335-0.744-0.633-1.154c-0.285-0.392-0.856-0.633-0.893-1.042
				C0.997,21.363,1.023,21.303,1.049,21.244z"/>
		</g>
		<g>
			<path fill="#4295AC" d="M15.25,24.039h-3c0,0,0.042,4.618,0.5,5.972c-1.188,0.146-1.833-0.521-2.75-0.521
				c-1.042,0-1.583,2.5-0.042,2.5c1.792,0,5.542,0.125,5.542-0.542c0-0.917-0.5-2.188-0.5-3.958
				C15,25.681,15.25,24.039,15.25,24.039z"/>
			<path fill="#E3E5E5" d="M9.618,29.741c-0.311-0.064-1.857-0.101-2.92,1.122c-0.059,0.068-0.025,0.179,0.062,0.201
				c1.199,0.314,2.843,0.226,3.358-0.032C10.326,30.928,10.43,29.907,9.618,29.741z"/>
			<path fill="#EDEEEE" d="M10.074,30.782c-0.323-0.066-1.104-0.083-1.988,0.208c-0.328,0.108-0.777,0.463-0.948,0.797
				c-0.043,0.084,0.012,0.184,0.107,0.185c1.215,0.02,2.832,0.038,3.33,0.018C10.678,31.845,10.886,30.949,10.074,30.782z"/>
		</g>
		<g>
			<path fill="#3B8FA3" d="M16.76,24.039h3c0,0-0.042,4.618-0.5,5.972c1.188,0.146,1.833-0.521,2.75-0.521
				c1.042,0,1.583,2.5,0.042,2.5c-1.792,0-5.542,0.125-5.542-0.542c0-0.917,0.5-2.188,0.5-3.958
				C17.01,25.681,16.76,24.039,16.76,24.039z"/>
			<path fill="#DADDDC" d="M22.393,29.741c0.311-0.064,1.857-0.101,2.92,1.122c0.059,0.068,0.025,0.179-0.062,0.201
				c-1.199,0.314-2.843,0.226-3.358-0.032C21.684,30.928,21.58,29.907,22.393,29.741z"/>
			<path fill="#E3E5E5" d="M21.937,30.782c0.323-0.066,1.104-0.083,1.988,0.208c0.328,0.108,0.777,0.463,0.948,0.797
				c0.043,0.084-0.012,0.184-0.107,0.185c-1.215,0.02-2.832,0.038-3.33,0.018C21.332,31.845,21.124,30.949,21.937,30.782z"/>
		</g>
		<path fill="#B93D4F" d="M20.548,20c1.161-0.134,3.007,0.359,4.101,0.7c0.393,0.122,0.478,0.642,0.144,0.881
			C23.965,22.171,22.615,23,21.548,23c-2.151,0-3.879-0.395-5-1C16.547,22,18.379,20.25,20.548,20z"/>
		<path fill="#C84054" d="M18.539,22.147C19.3,23.17,20.07,25.051,22,26c1.349,0.664,3.269,0.431,4.565,0.21
			c0.423-0.072,0.559-0.61,0.226-0.881c-1.111-0.9-2.808-2.429-3.959-2.812C20.76,21.828,18.539,22.147,18.539,22.147z"/>
		<path fill="#47A1B4" d="M13.667,13.292c-0.708,1-2.333,3.417-2.667,7.708s3.458,4.5,5,4.5V13.292
			C16,13.292,13.718,13.22,13.667,13.292z"/>
		<path fill="#4295AC" d="M18.344,13.292c0.708,1,2.333,3.417,2.667,7.708c0.333,4.292-3.469,4.5-5.01,4.5V13.292
			C16,13.292,18.292,13.22,18.344,13.292z"/>
		<g>
			<path fill="#C84054" d="M9.001,15.044c-0.012-0.129,0.066-0.251,0.185-0.314l6.113-3.23H16c0,0,0,7.333,0,8
				C11.914,19.5,9.186,17.015,9.001,15.044z"/>
			<path fill="#D84459" d="M9.001,15.043c-0.012-0.129,0.066-0.25,0.185-0.313l6.113-3.231H16c0,0-4.331,5.856-4.906,6.551
				C9.844,17.178,9.095,16.044,9.001,15.043z"/>
			<path fill="#B93D4F" d="M22.999,15.044c0.012-0.129-0.066-0.251-0.185-0.314l-6.113-3.23H16c0,0,0,7.333,0,8
				C20.086,19.5,22.814,17.015,22.999,15.044z"/>
			<path fill="#C84054" d="M22.999,15.043c0.012-0.129-0.066-0.25-0.185-0.313L16.701,11.5H16c0,0,4.331,5.856,4.906,6.551
				C22.156,17.178,22.905,16.044,22.999,15.043z"/>
		</g>
		<path fill="#47A1B4" d="M21.456,8.332l1.295-1.943C22.862,6.223,22.743,6,22.543,6H19.26l0.618-2.473
			c0.052-0.207-0.163-0.38-0.354-0.284l-2.322,1.161l-0.978-1.957c-0.092-0.184-0.355-0.184-0.447,0L14.8,4.4l-2.314-1.157
			c-0.191-0.096-0.406,0.077-0.354,0.284L12.75,6H9.467c-0.2,0-0.319,0.223-0.208,0.389l1.295,1.943L8.539,8.859
			c-0.209,0.055-0.255,0.33-0.075,0.45l1.787,1.105c0.054,0.981,0.36,1.963,1.129,2.731c0.889,0.889,3.466,1.644,4.326,1.909
			c0.097,0.03,0.196,0.042,0.295,0.041v0.001c0.002,0,0.003-0.001,0.005-0.001s0.003,0.001,0.005,0.001v-0.001
			c0.099,0,0.198-0.011,0.295-0.041c0.86-0.265,3.437-1.02,4.326-1.909c0.769-0.769,1.083-1.757,1.137-2.738l1.779-1.099
			c0.18-0.12,0.133-0.395-0.075-0.45L21.456,8.332z"/>
		<g>
			<path fill="#4CAEBC" d="M15.776,2.447L14.8,4.4l-2.314-1.157c-0.191-0.096-0.406,0.077-0.354,0.284L12.75,6H9.467
				c-0.2,0-0.319,0.223-0.208,0.389l1.295,1.943L8.539,8.859c-0.209,0.055-0.255,0.33-0.075,0.45l1.787,1.104
				c0.054,0.981,0.36,1.964,1.128,2.733c0.889,0.889,3.466,1.644,4.326,1.909c0.097,0.03,0.196,0.042,0.295,0.041V2.309
				C15.911,2.309,15.822,2.355,15.776,2.447z"/>
		</g>
		<path fill="#0E616D" d="M16,13c-0.109,0-0.28,0-0.796,0c-0.211,0-0.449-0.363-0.583-0.438c-0.045-0.025-0.1,0.011-0.093,0.062
			C14.563,12.872,14.89,13.5,15.5,13.5c0.291,0,0.164,0,0.5,0V13z"/>
		<path fill="#005865" d="M16,13c0.109,0,0.28,0,0.796,0c0.211,0,0.449-0.363,0.583-0.438c0.045-0.025,0.1,0.011,0.093,0.062
			C17.437,12.872,17.11,13.5,16.5,13.5c-0.291,0-0.164,0-0.5,0V13z"/>
		<g>
			<g>
				<g>
					<path fill="#0E616D" d="M10.371,8.231c-0.047-0.066,0.01-0.155,0.089-0.138c0.403,0.087,0.919,0.228,1.325,0.431
						c0.486,0.243-0.286,1.937-0.841,2.105c-0.451-0.109-1.196-0.392-1.599-0.551c-0.082-0.032-0.07-0.152,0.017-0.168l1.074-0.208
						L9.663,8.944c-0.061-0.06-0.01-0.163,0.075-0.15l1.163,0.179L10.371,8.231z"/>
					<path fill="#FFFFFF" d="M14.018,11.292c0.21,0.021,0.353-0.205,0.239-0.383c-0.576-0.897-1.741-2.111-2.648-2.464
						c-1.06-0.412-1.783,1.68-1.236,2.002C10.986,10.807,12.79,11.168,14.018,11.292z"/>
				</g>
				<path fill="#C84054" d="M13.27,11.196c-0.349-0.039-1.115-0.175-1.556-0.296c-0.136-0.204-0.232-0.442-0.232-0.713
					c0-0.631,0.439-1.13,1-1.213c0.408,0.296,0.942,0.82,1.292,1.272C13.755,10.644,13.555,10.983,13.27,11.196z"/>
			</g>
			<ellipse fill="#373F3F" cx="12.605" cy="10.242" rx="0.329" ry="0.657"/>
		</g>
		<g>
			<g>
				<g>
					<path fill="#005865" d="M21.629,8.231c0.047-0.066-0.01-0.155-0.089-0.138c-0.403,0.087-0.919,0.228-1.325,0.431
						c-0.486,0.243,0.286,1.937,0.841,2.105c0.451-0.109,1.196-0.392,1.599-0.551c0.082-0.032,0.07-0.152-0.017-0.168l-1.074-0.208
						l0.775-0.757c0.061-0.06,0.01-0.163-0.075-0.15l-1.163,0.179L21.629,8.231z"/>
					<path fill="#F7F7F7" d="M17.982,11.292c-0.21,0.021-0.353-0.205-0.239-0.383c0.576-0.897,1.741-2.111,2.648-2.464
						c1.06-0.412,1.783,1.68,1.236,2.002C21.014,10.807,19.21,11.168,17.982,11.292z"/>
				</g>
				<path fill="#B93D4F" d="M18.229,10.247c0.374-0.457,0.825-0.916,1.284-1.274c0.561,0.083,1.005,0.583,1.005,1.214
					c0,0.271-0.098,0.511-0.234,0.716c-0.442,0.108-1.066,0.223-1.554,0.293C18.445,10.983,18.249,10.645,18.229,10.247z"/>
			</g>
			<ellipse fill="#2B3332" cx="19.395" cy="10.242" rx="0.329" ry="0.657"/>
		</g>
		<g>
			<path fill="#FFD96C" d="M16,6.958v3.125c-0.535,0-0.969-0.7-0.969-1.562C15.031,7.658,15.465,6.958,16,6.958z"/>
			<path fill="#FFD04D" d="M16,6.958v3.125c0.535,0,0.969-0.7,0.969-1.562C16.969,7.658,16.535,6.958,16,6.958z"/>
		</g>
	</g>
</g>
</svg>
