<?xml version="1.0" encoding="utf-8"?>
<!-- Generator: Adobe Illustrator 23.0.6, SVG Export Plug-In . SVG Version: 6.00 Build 0)  -->
<svg version="1.1" xmlns="http://www.w3.org/2000/svg" xmlns:xlink="http://www.w3.org/1999/xlink" x="0px" y="0px" width="32px"
	 height="32px" viewBox="0 0 32 32" enable-background="new 0 0 32 32" xml:space="preserve">
<g id="labels">
</g>
<g id="icons">
	<g>
		<path fill="#434C4B" d="M29.333,10H28h-1.333C26.298,10,26,10.298,26,10.667v0.583c0,0.138,0.112,0.25,0.25,0.25h0.125
			c0.069,0,0.125,0.056,0.125,0.125V14H28h1.5v-2.375c0-0.069,0.056-0.125,0.125-0.125h0.125c0.138,0,0.25-0.112,0.25-0.25v-0.583
			C30,10.298,29.702,10,29.333,10z"/>
		<path fill="#FFD96C" d="M15,3c0,2-1,5-1.97,7c-0.233,0.481,0.122,1.068,0.599,1.309C14.129,11.562,14.99,12,16,12V3H15z"/>
		<path fill="#FFD04D" d="M17,3c0,2,1,5,1.97,7c0.233,0.481-0.122,1.068-0.599,1.309C17.871,11.562,17.01,12,16,12V3H17z"/>
		<path fill="#FFE28A" d="M16,0c-1.105,0-2,0.895-2,2s0.895,2,2,2V0z"/>
		<path fill="#FFD96C" d="M16,0c1.105,0,2,0.895,2,2s-0.895,2-2,2V0z"/>
		<path fill="#434C4B" d="M20,27v4h-3v-4c0-0.551-0.448-1-1-1s-1,0.449-1,1v4h-3v-4c0-2.206,1.794-4,4-4S20,24.794,20,27z"/>
		<path fill="#505957" d="M16,26c-0.552,0-1,0.449-1,1v4h-3v-4c0-2.206,1.794-4,4-4V26z"/>
		<path fill="#56C7CD" d="M17,31.5V31h3v0.5c0,0.276-0.224,0.5-0.5,0.5h-2C17.224,32,17,31.776,17,31.5z"/>
		<path fill="#DD564C" d="M12,31.5V31h3v0.5c0,0.276-0.224,0.5-0.5,0.5h-2C12.224,32,12,31.776,12,31.5z"/>
		<path fill="#373F3F" d="M25,25v-3c0-1,1-2,3-2s3,1,3,2v3h-2v-2.017c0-0.982-0.586-1-1-1s-1,0.041-1,1V25H25z"/>
		<path fill="#CF3C35" d="M25,25.5V25h2v0.5c0,0.276-0.224,0.5-0.5,0.5h-1C25.224,26,25,25.776,25,25.5z"/>
		<path fill="#4CAEBC" d="M29,25.5V25h2v0.5c0,0.276-0.224,0.5-0.5,0.5h-1C29.224,26,29,25.776,29,25.5z"/>
		<path fill="#434C4B" d="M1,25v-3c0-1,1-2,3-2s3,1,3,2v3H5v-2.017c0-0.982-0.586-1-1-1s-1,0.041-1,1V25H1z"/>
		<path fill="#D64F45" d="M1,25.5V25h2v0.5C3,25.776,2.776,26,2.5,26h-1C1.224,26,1,25.776,1,25.5z"/>
		<path fill="#51BAC5" d="M5,25.5V25h2v0.5C7,25.776,6.776,26,6.5,26h-1C5.224,26,5,25.776,5,25.5z"/>
		<path fill="#505957" d="M5.333,10H4H2.667C2.298,10,2,10.298,2,10.667v0.583c0,0.138,0.112,0.25,0.25,0.25h0.125
			c0.069,0,0.125,0.056,0.125,0.125V14H4h1.5v-2.375c0-0.069,0.056-0.125,0.125-0.125H5.75C5.888,11.5,6,11.388,6,11.25v-0.583
			C6,10.298,5.702,10,5.333,10z"/>
		<circle fill="#838C8A" cx="4" cy="17" r="4"/>
		<path fill="#757F7E" d="M8,17c-1,1-2,2-4,2s-3-1-4-2c0,2.209,1.791,4,4,4S8,19.209,8,17z"/>
		<g>
			<circle fill="#FFFFFF" cx="4" cy="16" r="2"/>
			<circle fill="#373F3F" cx="4" cy="16" r="0.5"/>
		</g>
		<circle fill="#505957" cx="28" cy="17" r="4"/>
		<circle fill="#757F7E" cx="28" cy="17" r="4"/>
		<path fill="#687271" d="M32,17c-1,1-2,2-4,2s-3-1-4-2c0,2.209,1.791,4,4,4S32,19.209,32,17z"/>
		<g>
			<circle fill="#F7F7F7" cx="28" cy="16" r="2"/>
			<circle fill="#2B3332" cx="28" cy="16" r="0.5"/>
		</g>
		<path fill="#909997" d="M26,17c0-4.349-4-8-10-8S6,12.651,6,17s5.651,7,10,7S26,21.349,26,17z"/>
		<path fill="#9DA5A4" d="M16,9c-6,0-10,3.651-10,8s5.651,7,10,7V9z"/>
		<path fill="#909997" d="M16,19c-5,0-8-1-10-2c0,4.349,5.651,7,10,7V19z"/>
		<path fill="#838C8A" d="M16,19c5,0,8-1,10-2c0,4.349-5.651,7-10,7V19z"/>
		<g>
			<path fill="#FFFFFF" d="M12,15c0,2.209,1.791,4,4,4v-8C13.791,11,12,12.791,12,15z"/>
			<path fill="#F7F7F7" d="M16,11v8c2.209,0,4-1.791,4-4C20,12.791,18.209,11,16,11z"/>
			<circle fill="#D64F45" cx="16" cy="16" r="1.5"/>
			<path fill="#D1473D" d="M17.5,16c0-0.828-0.672-1.5-1.5-1.5v3C16.828,17.5,17.5,16.828,17.5,16z"/>
			<circle fill="#E55D53" cx="16" cy="16" r="0.75"/>
			<path fill="#DD564C" d="M16.75,16c0-0.414-0.336-0.75-0.75-0.75v1.5C16.414,16.75,16.75,16.414,16.75,16z"/>
		</g>
		<path fill="#505957" d="M24,12.075C22.254,10.214,19.459,9,16,9c-3.459,0-6.254,1.214-8,3.075C7.725,12.368,11.651,14,16,14
			S24.275,12.368,24,12.075z"/>
		<path fill="#5C6664" d="M16,9c-3.459,0-6.254,1.214-8,3.075C7.725,12.368,11.651,14,16,14V9z"/>
	</g>
</g>
</svg>
