<?xml version="1.0" encoding="utf-8"?>
<!-- Generator: Adobe Illustrator 23.0.6, SVG Export Plug-In . SVG Version: 6.00 Build 0)  -->
<svg version="1.1" xmlns="http://www.w3.org/2000/svg" xmlns:xlink="http://www.w3.org/1999/xlink" x="0px" y="0px" width="32px"
	 height="32px" viewBox="0 0 32 32" enable-background="new 0 0 32 32" xml:space="preserve">
<g id="labels">
</g>
<g id="icons">
	<g>
		<path fill="#EA8BB4" d="M23.237,17.385c1.111,0.741,2.775,4.369,5.013,4.6s3.095-2.151,2.625-3.271
			c-0.47-1.12-2.483-3.464-4.766-5.387s-5.68-1.189-5.68-1.189v5.238L23.237,17.385z"/>
		<path fill="#F297BE" d="M16,10v19.988c0,0,9,0.012,9.916-6.467c0.995-7.042-5.38-13.52-5.38-13.52H16z"/>
		<g>
			<path fill="#F297BE" d="M8.763,17.385c-1.111,0.741-2.775,4.369-5.013,4.6s-3.095-2.151-2.625-3.271s2.483-3.464,4.766-5.387
				s5.68-1.189,5.68-1.189v5.238L8.763,17.385z"/>
			<path fill="#F8A1C4" d="M16,10v19.988c0,0-9,0.012-9.916-6.467C5.089,16.478,11.464,10,11.464,10H16z"/>
			<g>
				<path fill="#F7F7F7" d="M14,12.423l-5.47,4.558c-0.18,0.15-0.074,0.442,0.16,0.442H11v4.396c0,0.223,0.269,0.334,0.427,0.177
					L14,19.423l1.768,4.42C15.81,23.948,15.905,24,16,24V12.423H14z"/>
			</g>
			<path fill="#FAB8CD" d="M22.928,7.726c-0.73-1.679-0.993-2.945-2.538-4.319c-2.001-1.779-4.384-1.576-4.384-1.576h-0.013
				c0,0-0.175-0.012-0.458,0h-0.03v0.002c-0.796,0.038-2.441,0.28-3.896,1.574c-1.545,1.374-1.809,2.64-2.538,4.319
				c-0.743,1.711-0.996,3.194,0.644,4.809c1.696,1.671,5.137,1.29,6.048,1.154c1.013,0.135,4.825,0.517,6.522-1.154
				C23.924,10.92,23.672,9.437,22.928,7.726z"/>
			<path fill="#FAC4D1" d="M15.994,1.831v11.821c0,0-4.314,0.819-6.279-1.117C8.076,10.92,8.328,9.437,9.072,7.726
				c0.73-1.679,0.993-2.945,2.538-4.319C13.611,1.628,15.994,1.831,15.994,1.831"/>
			<ellipse fill="#373F3F" cx="12.994" cy="6.5" rx="1" ry="1.5"/>
			<circle fill="#F7F7F7" cx="12.994" cy="6" r="0.5"/>
			<path fill="#F9ADC8" d="M16,0c-2.186,0-3.006,1-3.006,2c0,0.976,0.96,1.75,1.541,2.285c0.436,0.401,1.209,0.965,1.459,0.965L16,0
				z"/>
			<g>
				<path fill="#FFEAA7" d="M10.281,21.704c-0.192-0.197-0.509-0.199-0.707-0.008c-0.197,0.193-0.201,0.51-0.008,0.707
					c1.707,1.746,3.991,2.707,6.434,2.707v-1C13.829,24.111,11.799,23.256,10.281,21.704z"/>
				<path fill="#FFE28A" d="M15.983,26.018c-2.677,0-5.192-1.044-7.082-2.939c-0.195-0.197-0.514-0.195-0.707-0.002
					c-0.196,0.195-0.196,0.512-0.002,0.707c2.079,2.086,4.846,3.234,7.791,3.234c0.006,0,0.011-0.003,0.017-0.003v-0.993
					C15.994,26.021,15.989,26.018,15.983,26.018z"/>
				<path fill="#FFD96C" d="M7.637,24.429c-0.191-0.2-0.507-0.208-0.707-0.02c-0.2,0.19-0.209,0.507-0.02,0.707
					c2.385,2.516,5.607,3.901,9.073,3.901c0.006,0,0.011-0.003,0.017-0.003v-0.993c-0.006,0-0.011-0.003-0.017-0.003
					C12.795,28.018,9.83,26.743,7.637,24.429z"/>
			</g>
			<path fill="#F9ADC8" d="M10,28.703C10,31.852,8.433,32,6.5,32S3,31.852,3,28.703S4.567,23,6.5,23S10,25.553,10,28.703z"/>
			<path fill="#F7F7F7" d="M4.796,32c-0.39,0-0.639-0.431-0.429-0.759C4.731,30.675,5.396,30,6.5,30s1.769,0.675,2.133,1.241
				C8.844,31.569,8.594,32,8.204,32H4.796z"/>
			<path fill="#434C4B" d="M18.979,9.087C17.609,9.645,16,9.913,16,9.913s-1.609-0.268-2.979-0.826
				c-1.288-0.524-2.56,1.438-1.785,2.777C12.012,13.202,16,12.987,16,12.987s3.988,0.214,4.763-1.124
				C21.539,10.525,20.267,8.563,18.979,9.087z"/>
			<path fill="#505957" d="M16,12.987V9.913c0,0-1.609-0.268-2.979-0.826c-1.288-0.524-2.56,1.438-1.785,2.777S16,12.987,16,12.987z
				"/>
		</g>
		<g>
			<g>
				<path fill="#EDEEEE" d="M18,12.423l5.47,4.558c0.18,0.15,0.074,0.442-0.16,0.442H21v4.396c0,0.223-0.269,0.334-0.427,0.177
					L18,19.423l-1.768,4.42C16.19,23.948,16.095,24,16,24V12.423H18z"/>
			</g>
			<ellipse fill="#373F3F" cx="19.006" cy="6.5" rx="1" ry="1.5"/>
			<circle fill="#F7F7F7" cx="19.006" cy="6" r="0.5"/>
			<path fill="#F8A1C4" d="M16,0c2.186,0,3.006,1,3.006,2c0,0.976-0.96,1.75-1.541,2.285c-0.436,0.401-1.209,0.965-1.459,0.965L16,0
				z"/>
			<g>
				<path fill="#FFE28A" d="M21.719,21.704c0.192-0.197,0.509-0.199,0.707-0.008c0.197,0.193,0.201,0.51,0.008,0.707
					c-1.707,1.746-3.991,2.707-6.434,2.707v-1C18.171,24.111,20.201,23.256,21.719,21.704z"/>
				<path fill="#FFD96C" d="M16.017,26.018c2.677,0,5.192-1.044,7.082-2.939c0.195-0.197,0.514-0.195,0.707-0.002
					c0.196,0.195,0.196,0.512,0.002,0.707c-2.079,2.086-4.846,3.234-7.791,3.234c-0.006,0-0.011-0.003-0.017-0.003v-0.993
					C16.006,26.021,16.011,26.018,16.017,26.018z"/>
				<path fill="#FFD04D" d="M24.363,24.429c0.191-0.2,0.507-0.208,0.707-0.02c0.2,0.19,0.209,0.507,0.02,0.707
					c-2.385,2.516-5.607,3.901-9.073,3.901c-0.006,0-0.011-0.003-0.017-0.003v-0.993c0.006,0,0.011-0.003,0.017-0.003
					C19.205,28.018,22.17,26.743,24.363,24.429z"/>
			</g>
			<path fill="#F8A1C4" d="M20,11.637c0.097-1.369-0.933-1.939-2-1.483c-1.067,0.456-2,0.599-2,0.599s-0.933-0.143-2-0.599
				c-1.067-0.456-2.097,0.114-2,1.483C12.097,13.006,11,15,11,17c0,1.227,1,4,5,4s5-2.773,5-4C21,15,19.903,13.006,20,11.637z"/>
			<path fill="#F8A1C4" d="M16,21V10.753c0,0-0.933-0.143-2-0.599c-1.067-0.456-2.097,0.114-2,1.483S11,15,11,17
				C11,18.227,12,21,16,21z"/>
		</g>
		<path fill="#F9ADC8" d="M16,21V10.753c0,0-0.933-0.143-2-0.599c-1.067-0.456-2.097,0.114-2,1.483S11,15,11,17
			C11,18.227,12,21,16,21z"/>
		<path fill="#F8A1C4" d="M22,28.703C22,31.852,23.567,32,25.5,32s3.5-0.148,3.5-3.297S27.433,23,25.5,23S22,25.553,22,28.703z"/>
		<path fill="#EDEEEE" d="M27.204,32c0.39,0,0.639-0.431,0.429-0.759C27.269,30.675,26.604,30,25.5,30s-1.769,0.675-2.133,1.241
			C23.156,31.569,23.406,32,23.796,32H27.204z"/>
	</g>
</g>
</svg>
