<?xml version="1.0" encoding="utf-8"?>
<!-- Generator: Adobe Illustrator 23.0.6, SVG Export Plug-In . SVG Version: 6.00 Build 0)  -->
<svg version="1.1" xmlns="http://www.w3.org/2000/svg" xmlns:xlink="http://www.w3.org/1999/xlink" x="0px" y="0px" width="32px"
	 height="32px" viewBox="0 0 32 32" enable-background="new 0 0 32 32" xml:space="preserve">
<g id="labels">
</g>
<g id="icons">
	<g>
		<path fill="#E3E5E5" d="M4.125,21.026H4.91c0.054,0,0.102,0.034,0.119,0.085l0.752,2.256c0.108,0.324-0.133,0.658-0.474,0.658H4.5
			c-0.276,0-0.5-0.224-0.5-0.5v-2.375C4,21.082,4.056,21.026,4.125,21.026z"/>
		<path fill="#EDEEEE" d="M3.125,22.026H3.91c0.054,0,0.102,0.034,0.119,0.085l0.752,2.256c0.108,0.324-0.133,0.658-0.474,0.658H3.5
			c-0.276,0-0.5-0.224-0.5-0.5v-2.375C3,22.082,3.056,22.026,3.125,22.026z"/>
		<path fill="#F7F7F7" d="M2.125,22.026H2.91c0.054,0,0.102,0.034,0.119,0.085l0.752,2.256c0.108,0.324-0.133,0.658-0.474,0.658H2.5
			c-0.276,0-0.5-0.224-0.5-0.5v-2.375C2,22.082,2.056,22.026,2.125,22.026z"/>
		<g>
			<path fill="#869642" d="M28.691,3.026H27.5c-0.276,0-0.5,0.224-0.5,0.5v10.5h4v-6.97C31,7.036,30.995,7.017,30.987,7
				l-1.849-3.697C29.054,3.133,28.88,3.026,28.691,3.026z"/>
			<path fill="#869642" d="M21.825,7.042l1.94-0.498c0.113-0.029,0.19-0.129,0.182-0.246c-0.032-0.437-0.219-1.535-1.243-2.695
				s-2.091-1.482-2.52-1.568c-0.115-0.023-0.224,0.041-0.267,0.15l-0.735,1.864L21.825,7.042z"/>
			<path fill="#FFD96C" d="M20.203,2.017c0.429,0.086,1.496,0.408,2.52,1.568s1.211,2.259,1.243,2.695
				c0.009,0.117-0.069,0.217-0.182,0.246l-0.497-0.28C23.237,6.218,23.2,6.174,23.18,6.12c-0.195-0.524-0.613-1.189-1.186-1.839
				c-0.585-0.663-1.208-1.168-1.709-1.422c-0.053-0.027-0.094-0.07-0.117-0.125l-0.232-0.568
				C19.979,2.059,20.088,1.994,20.203,2.017z"/>
		</g>
		<polygon fill="#778238" points="22,10.026 28,12.026 28,14.026 22,16.026 		"/>
		<path fill="#7D883A" d="M16.001,11.474v2.757L19,17.026c0.683,0.512,4.163,0.167,5,0l1-2.795c0,0,0.062-5-5-5L16.001,11.474z"/>
		<path fill="#828E3D" d="M22,12.026c-1.163-2.383-2.959-3-6-3s-4.837,0.618-6,3c-0.976,2-2,3-2,6s0,6,2,8c1,1,3,2,6,2s5-1,6-2
			c2-2,2-5,2-8S22.976,14.026,22,12.026z"/>
		<path fill="#869642" d="M3.309,3.026H4.5c0.276,0,0.5,0.224,0.5,0.5v10.5H1v-6.97C1,7.036,1.005,7.017,1.013,7l1.849-3.697
			C2.946,3.133,3.12,3.026,3.309,3.026z"/>
		<polygon fill="#7D883A" points="10,10.026 4,12.026 4,14.026 10,16.026 		"/>
		<path fill="#828E3D" d="M15.999,11.474v2.757L13,17.026c-0.683,0.512-4.163,0.167-5,0l-1-2.795c0,0-0.062-5,5-5L15.999,11.474z"/>
		<path fill="#869642" d="M16,9.026c-3.041,0-4.837,0.618-6,3c-0.976,2-2,3-2,6s0,6,2,8c1,1,3,2,6,2V9.026z"/>
		<path fill="#8DA04A" d="M8.995,22.082l-2.844,2.771C6.054,24.947,6,25.076,6,25.211v2.625c0,0.1-0.059,0.19-0.151,0.229
			l-1.991,0.862c-0.108,0.047-0.196,0.13-0.248,0.235l-0.557,1.114C2.887,30.609,3.129,31,3.501,31h7.947c0.276,0,0.5-0.224,0.5-0.5
			v-1.42c0.018-0.063,0.035-0.122,0.053-0.185l1.021-1.646c0.077-0.154,0.069-0.337-0.021-0.485l-3.247-4.568
			C9.59,21.931,9.228,21.876,8.995,22.082z"/>
		<path fill="#FFD96C" d="M6.422,9.379L8.55,8.216c0.486-0.347,1.165-0.194,1.455,0.328l1.663,2.994
			c0.152,0.274,0.018,0.618-0.279,0.717l-2.135,0.712c-0.18,0.06-0.378,0.013-0.512-0.121l-2.447-1.947
			C5.859,10.462,5.919,9.738,6.422,9.379z"/>
		<path fill="#FFD96C" d="M9.548,14.011l2.218-0.923c0.093-0.039,0.201-0.018,0.273,0.054l0.849,0.849
			c0.047,0.047,0.073,0.11,0.073,0.177v0.837c0,0.039-0.009,0.077-0.026,0.112l-0.905,1.809c-0.042,0.085-0.129,0.138-0.224,0.138
			h-1.741c-0.067,0-0.131-0.027-0.178-0.075l-0.855-0.869c-0.046-0.047-0.072-0.11-0.072-0.175v-0.822
			c0-0.038,0.009-0.076,0.026-0.11l0.433-0.881C9.447,14.078,9.492,14.035,9.548,14.011z"/>
		<path fill="#FFD96C" d="M16,19.026h-0.896c-0.066,0-0.13,0.026-0.177,0.073l-0.854,0.854C14.026,20,14,20.063,14,20.13v2.793
			c0,0.066,0.026,0.13,0.073,0.177l0.854,0.854c0.047,0.047,0.11,0.073,0.177,0.073H16V19.026z"/>
		<path fill="#FFD04D" d="M12.896,19.026h-1.793c-0.066,0-0.13,0.026-0.177,0.073l-0.854,0.854C10.026,20,10,20.063,10,20.13v2.793
			c0,0.066,0.026,0.13,0.073,0.177l0.854,0.854c0.047,0.047,0.11,0.073,0.177,0.073h1.793c0.066,0,0.13-0.026,0.177-0.073
			l0.854-0.854C13.974,23.052,14,22.989,14,22.923V20.13c0-0.066-0.026-0.13-0.073-0.177l-0.854-0.854
			C13.026,19.052,12.963,19.026,12.896,19.026z"/>
		<path fill="#F7C845" d="M8.896,19.065H7.999c-0.052,0-0.098,0.031-0.117,0.08C7.786,19.401,7.5,20.233,7.5,21.065
			c0,0.125,0.007,0.25,0.02,0.373c0.089,0.869,0.487,1.677,1.084,2.315l0.125,0.133c0.093,0.099,0.248,0.106,0.35,0.015l0.839-0.755
			c0.029-0.064,0.054-0.121,0.082-0.185v-2.793c0-0.066-0.026-0.13-0.073-0.177l-0.854-0.854
			C9.026,19.091,8.963,19.065,8.896,19.065z"/>
		<path fill="#8DA04A" d="M2,8.026c-1.346,0-2,2-2,5s0,9,1,10c0.707,0.707,4,0,5-1c0.482-0.482-1-3.712-1-7c0-2,0-3,0-5
			c0-1.247-0.753-2-1-2C3,8.026,3,8.026,2,8.026z"/>
		<path fill="#FFD96C" d="M2.155,10.026h0.691c0.095,0,0.181,0.054,0.224,0.138l0.89,1.779c0.027,0.053,0.033,0.115,0.019,0.172
			l-0.93,3.721c-0.028,0.111-0.128,0.189-0.243,0.189h-0.61c-0.115,0-0.215-0.078-0.243-0.189l-0.93-3.721
			c-0.014-0.058-0.008-0.119,0.019-0.172l0.89-1.779C1.973,10.08,2.06,10.026,2.155,10.026z"/>
		<path fill="#DADDDC" d="M27.875,21.026H27.09c-0.054,0-0.102,0.034-0.119,0.085l-0.752,2.256
			c-0.108,0.324,0.133,0.658,0.474,0.658H27.5c0.276,0,0.5-0.224,0.5-0.5v-2.375C28,21.082,27.944,21.026,27.875,21.026z"/>
		<path fill="#E3E5E5" d="M28.875,22.026H28.09c-0.054,0-0.102,0.034-0.119,0.085l-0.752,2.256
			c-0.108,0.324,0.133,0.658,0.474,0.658H28.5c0.276,0,0.5-0.224,0.5-0.5v-2.375C29,22.082,28.944,22.026,28.875,22.026z"/>
		<path fill="#EDEEEE" d="M29.875,22.026H29.09c-0.054,0-0.102,0.034-0.119,0.085l-0.752,2.256
			c-0.108,0.324,0.133,0.658,0.474,0.658H29.5c0.276,0,0.5-0.224,0.5-0.5v-2.375C30,22.082,29.944,22.026,29.875,22.026z"/>
		<path fill="#869642" d="M23.005,22.082l2.844,2.771C25.946,24.947,26,25.076,26,25.211v2.625c0,0.1,0.059,0.19,0.151,0.229
			l1.991,0.862c0.108,0.047,0.196,0.13,0.248,0.235l0.557,1.114C29.113,30.609,28.871,31,28.499,31h-7.947
			c-0.276,0-0.5-0.224-0.5-0.5v-1.42c-0.018-0.063-0.035-0.122-0.053-0.185l-1.021-1.646c-0.077-0.154-0.069-0.337,0.021-0.485
			l3.247-4.568C22.41,21.931,22.772,21.876,23.005,22.082z"/>
		<path fill="#FFD04D" d="M25.581,9.375l-2.128-1.163c-0.486-0.347-1.165-0.194-1.455,0.328l-1.663,2.994
			c-0.152,0.274-0.018,0.618,0.279,0.717l2.135,0.712c0.18,0.06,0.378,0.013,0.512-0.121l2.447-1.947
			C26.144,10.459,26.084,9.735,25.581,9.375z"/>
		<path fill="#FFD04D" d="M22.455,14.008l-2.218-0.923c-0.093-0.039-0.201-0.018-0.273,0.054l-0.849,0.849
			c-0.047,0.047-0.073,0.11-0.073,0.177v0.837c0,0.039,0.009,0.077,0.026,0.112l0.905,1.809c0.042,0.085,0.129,0.138,0.224,0.138
			h1.741c0.067,0,0.131-0.027,0.178-0.075l0.855-0.869c0.046-0.047,0.072-0.11,0.072-0.175V15.12c0-0.038-0.009-0.076-0.026-0.11
			l-0.433-0.881C22.557,14.074,22.511,14.032,22.455,14.008z"/>
		<path fill="#FFD04D" d="M16,19.026h0.896c0.066,0,0.13,0.026,0.177,0.073l0.854,0.854C17.974,20,18,20.063,18,20.13v2.793
			c0,0.066-0.026,0.13-0.073,0.177l-0.854,0.854c-0.047,0.047-0.11,0.073-0.177,0.073H16V19.026z"/>
		<path fill="#F7C845" d="M19.104,19.026h1.793c0.066,0,0.13,0.026,0.177,0.073l0.854,0.854C21.974,20,22,20.063,22,20.13v2.793
			c0,0.066-0.026,0.13-0.073,0.177l-0.854,0.854c-0.047,0.047-0.11,0.073-0.177,0.073h-1.793c-0.066,0-0.13-0.026-0.177-0.073
			l-0.854-0.854C18.026,23.052,18,22.989,18,22.923V20.13c0-0.066,0.026-0.13,0.073-0.177l0.854-0.854
			C18.974,19.052,19.037,19.026,19.104,19.026z"/>
		<path fill="#F0C13E" d="M23.104,19.065h0.898c0.052,0,0.098,0.031,0.117,0.08c0.096,0.256,0.382,1.088,0.382,1.92
			c0,0.125-0.007,0.25-0.02,0.373c-0.089,0.869-0.487,1.677-1.084,2.315l-0.125,0.133c-0.093,0.099-0.248,0.106-0.35,0.015
			l-0.839-0.755c-0.029-0.064-0.054-0.121-0.082-0.185v-2.793c0-0.066,0.026-0.13,0.073-0.177l0.854-0.854
			C22.974,19.091,23.037,19.065,23.104,19.065z"/>
		<path fill="#869642" d="M30,8.026c1.346,0,2,2,2,5s0,9-1,10c-0.707,0.707-4,0-5-1c-0.482-0.482,1-3.712,1-7c0-2,0-3,0-5
			c0-1.247,0.753-2,1-2C29,8.026,29,8.026,30,8.026z"/>
		<path fill="#FFD04D" d="M29.845,10.026h-0.691c-0.095,0-0.181,0.054-0.224,0.138l-0.89,1.779
			c-0.027,0.053-0.033,0.115-0.019,0.172l0.93,3.721c0.028,0.111,0.128,0.189,0.243,0.189h0.61c0.115,0,0.215-0.078,0.243-0.189
			l0.93-3.721c0.014-0.058,0.008-0.119-0.019-0.172l-0.89-1.779C30.027,10.08,29.94,10.026,29.845,10.026z"/>
		<path fill="#8DA04A" d="M10.175,7.042l-1.94-0.498c-0.113-0.029-0.19-0.129-0.182-0.246c0.032-0.437,0.219-1.535,1.243-2.695
			s2.091-1.482,2.52-1.568c0.115-0.023,0.224,0.041,0.267,0.15l0.735,1.864L10.175,7.042z"/>
		<path fill="#FFD96C" d="M11.797,2.017c-0.429,0.086-1.496,0.408-2.52,1.568S8.067,5.844,8.034,6.28
			C8.026,6.397,8.103,6.497,8.216,6.526l0.497-0.28C8.763,6.218,8.8,6.174,8.82,6.12c0.195-0.524,0.613-1.189,1.186-1.839
			c0.585-0.663,1.208-1.168,1.709-1.422c0.053-0.027,0.094-0.07,0.117-0.125l0.232-0.568C12.021,2.059,11.912,1.994,11.797,2.017z"
			/>
		<path fill="#E3E5E5" d="M16,9.305c-2.423,0-4-0.279-4,1.721c0,3,2.302,4,4,4V9.305z"/>
		<path fill="#EDEEEE" d="M16,8.305c-2.423,0-4,1-4,3c0,1,2.302,2.721,4,2.721V8.305z"/>
		<path fill="#DADDDC" d="M16,9.305c2.423,0,4-0.279,4,1.721c0,3-2.302,4-4,4V9.305z"/>
		<path fill="#E3E5E5" d="M16,8.305c2.423,0,4,1,4,3c0,1-2.302,2.721-4,2.721V8.305z"/>
		<path fill="#869642" d="M13.959,4.026l-0.931-1.824c-0.054-0.106-0.03-0.233,0.066-0.306c0.356-0.27,1.325-0.87,2.906-0.87
			s2.55,0.6,2.906,0.87c0.096,0.073,0.12,0.2,0.066,0.306l-0.931,1.824H13.959z"/>
		<path fill="#8DA04A" d="M16,4.026h-2.041l-0.931-1.824c-0.054-0.106-0.03-0.233,0.066-0.306c0.356-0.27,1.325-0.87,2.906-0.87
			V4.026z"/>
		<path fill="#869642" d="M19.717,3.742c-0.097-0.092-0.199-0.161-0.321-0.216c-0.585-0.267-2.479-0.5-3.396-0.5
			s-2.811,0.232-3.396,0.5c-0.122,0.056-0.224,0.124-0.321,0.216C11.76,4.237,10,6.42,10,7.026c0,0.82,1.752,3.067,2.262,3.645
			c0.095,0.108,0.198,0.189,0.324,0.257c0.542,0.29,2.159,1.097,3.414,1.097s2.872-0.807,3.414-1.097
			c0.126-0.068,0.229-0.15,0.324-0.257C20.248,10.093,22,7.847,22,7.026C22,6.42,20.24,4.237,19.717,3.742z"/>
		<path fill="#8DA04A" d="M16,3.026c-0.917,0-2.811,0.232-3.396,0.5c-0.122,0.056-0.224,0.124-0.321,0.216
			C11.76,4.237,10,6.42,10,7.026c0,0.82,1.752,3.067,2.262,3.645c0.095,0.108,0.198,0.189,0.324,0.257
			c0.542,0.29,2.159,1.097,3.414,1.097V3.026z"/>
		<path fill="#8DA04A" d="M19.717,3.742c-0.097-0.092-0.199-0.161-0.321-0.216c-0.585-0.267-2.479-0.5-3.396-0.5
			s-2.811,0.232-3.396,0.5c-0.122,0.056-0.224,0.124-0.321,0.216C11.76,4.237,10,6.42,10,7.026c0,0.82,4.745,3,6,3s6-2.18,6-3
			C22,6.42,20.24,4.237,19.717,3.742z"/>
		<path fill="#90A74E" d="M16,3.026c-0.917,0-2.811,0.232-3.396,0.5c-0.122,0.056-0.224,0.124-0.321,0.216
			C11.76,4.237,10,6.42,10,7.026c0,0.82,4.745,3,6,3V3.026z"/>
		<g>
			<g>
				<path fill="#E3E5E5" d="M15.047,7.825C15.018,7.949,15,8.068,15,8.177c0,0.837,1,0.849,1,0.849V8.208
					C15.645,8.207,15.317,8.064,15.047,7.825z"/>
				<path fill="#DADDDC" d="M16.005,8.209c-0.002,0-0.003-0.001-0.005-0.001v0.818c0,0,1-0.012,1-0.849
					c0-0.106-0.016-0.222-0.045-0.343C16.685,8.069,16.359,8.209,16.005,8.209z"/>
				<path fill="#EDEEEE" d="M16,8.208V7.176c-0.226-0.001-0.437-0.073-0.628-0.191c-0.138,0.276-0.261,0.57-0.325,0.84
					C15.317,8.064,15.645,8.207,16,8.208z"/>
				<path fill="#E3E5E5" d="M16.005,7.177c-0.002,0-0.003-0.001-0.005-0.001v1.032c0.002,0,0.003,0.001,0.005,0.001
					c0.353,0,0.68-0.14,0.95-0.375c-0.063-0.271-0.187-0.567-0.325-0.844C16.441,7.106,16.23,7.177,16.005,7.177z"/>
			</g>
			<g>
				<path fill="#EDEEEE" d="M16.104,6.083C16.079,6.045,16.039,6.026,16,6.026v1.15c0.002,0,0.003,0.001,0.005,0.001
					c0.225,0,0.435-0.071,0.625-0.186C16.442,6.612,16.228,6.271,16.104,6.083z"/>
			</g>
			<g>
				<path fill="#F7F7F7" d="M15.896,6.083C15.921,6.045,15.961,6.026,16,6.026v1.15c-0.002,0-0.003,0.001-0.005,0.001
					c-0.225,0-0.435-0.071-0.625-0.186C15.558,6.612,15.772,6.271,15.896,6.083z"/>
			</g>
		</g>
		<g>
			<g>
				<path fill="#E3E5E5" d="M15.047,3.825C15.018,3.949,15,4.068,15,4.177c0,0.837,1,0.849,1,0.849V4.208
					C15.645,4.207,15.317,4.064,15.047,3.825z"/>
				<path fill="#DADDDC" d="M16.005,4.209c-0.002,0-0.003-0.001-0.005-0.001v0.818c0,0,1-0.012,1-0.849
					c0-0.106-0.016-0.222-0.045-0.343C16.685,4.069,16.359,4.209,16.005,4.209z"/>
				<path fill="#EDEEEE" d="M16,4.208V3.176c-0.226-0.001-0.437-0.073-0.628-0.191c-0.138,0.276-0.261,0.57-0.325,0.84
					C15.317,4.064,15.645,4.207,16,4.208z"/>
				<path fill="#E3E5E5" d="M16.005,3.177c-0.002,0-0.003-0.001-0.005-0.001v1.032c0.002,0,0.003,0.001,0.005,0.001
					c0.353,0,0.68-0.14,0.95-0.375c-0.063-0.271-0.187-0.567-0.325-0.844C16.441,3.106,16.23,3.177,16.005,3.177z"/>
			</g>
			<g>
				<path fill="#EDEEEE" d="M16.104,2.083C16.079,2.045,16.039,2.026,16,2.026v1.15c0.002,0,0.003,0.001,0.005,0.001
					c0.225,0,0.435-0.071,0.625-0.186C16.442,2.612,16.228,2.271,16.104,2.083z"/>
			</g>
			<g>
				<path fill="#F7F7F7" d="M15.896,2.083C15.921,2.045,15.961,2.026,16,2.026v1.15c-0.002,0-0.003,0.001-0.005,0.001
					c-0.225,0-0.435-0.071-0.625-0.186C15.558,2.612,15.772,2.271,15.896,2.083z"/>
			</g>
		</g>
		<path fill="#FFFFFF" d="M12.5,5.541c1.692,0.026,2.425,0.985,2.425,1.985c0,0,0.047,0.5-0.925,0.5
			C11.332,8.026,11.878,6.032,12.5,5.541z"/>
		<path fill="#993147" d="M13.97,5.894c-0.61,0.086-1.08,0.609-1.08,1.243c0,0.31,0.112,0.593,0.298,0.812
			c0.23,0.049,0.498,0.077,0.812,0.077c0.971,0,0.925-0.5,0.925-0.5C14.925,6.888,14.626,6.267,13.97,5.894z"/>
		<path fill="#FFD96C" d="M14.512,7.913c-0.102-0.937-1.414-1.81-2.365-1.894c-0.076-0.007-0.132-0.075-0.116-0.15
			c0.099-0.462,0.734-0.845,0.982-0.845c0.978,0,1.956,0.968,1.999,2.881c0.002,0.071-0.057,0.13-0.128,0.129l-0.249-0.003
			C14.569,8.03,14.519,7.978,14.512,7.913z"/>
		<path fill="#F7F7F7" d="M19.512,5.541c-1.692,0.026-2.425,0.985-2.425,1.985c0,0-0.047,0.5,0.925,0.5
			C20.68,8.026,20.133,6.032,19.512,5.541z"/>
		<path fill="#912B41" d="M18.042,5.894c0.61,0.086,1.08,0.609,1.08,1.243c0,0.31-0.112,0.593-0.298,0.812
			c-0.23,0.049-0.498,0.077-0.812,0.077c-0.971,0-0.925-0.5-0.925-0.5C17.087,6.888,17.386,6.267,18.042,5.894z"/>
		<path fill="#FFD04D" d="M17.5,7.913c0.102-0.937,1.414-1.81,2.365-1.894c0.076-0.007,0.132-0.075,0.116-0.15
			c-0.099-0.462-0.734-0.845-0.982-0.845c-0.978,0-1.956,0.968-1.999,2.881c-0.002,0.071,0.057,0.13,0.128,0.129l0.249-0.003
			C17.442,8.03,17.492,7.978,17.5,7.913z"/>
	</g>
</g>
</svg>
