<?xml version="1.0" encoding="utf-8"?>
<!-- Generator: Adobe Illustrator 23.0.6, SVG Export Plug-In . SVG Version: 6.00 Build 0)  -->
<svg version="1.1" xmlns="http://www.w3.org/2000/svg" xmlns:xlink="http://www.w3.org/1999/xlink" x="0px" y="0px" width="32px"
	 height="32px" viewBox="0 0 32 32" enable-background="new 0 0 32 32" xml:space="preserve">
<g id="labels">
</g>
<g id="icons">
	<g>
		<path fill="#FF9A7E" d="M2,32c-0.553,0-1-0.448-1-1v-6c0-0.552,0.447-1,1-1s1,0.448,1,1v6C3,31.552,2.553,32,2,32z"/>
		<path fill="#FF9A7E" d="M4,32c-0.419,0-0.809-0.265-0.948-0.684C3.009,31.188,2,28.126,2,25c0-0.552,0.447-1,1-1s1,0.448,1,1
			c0,2.794,0.939,5.656,0.949,5.685c0.174,0.524-0.109,1.09-0.634,1.264C4.211,31.983,4.104,32,4,32z"/>
		<path fill="#FF9A7E" d="M6,32c-0.256,0-0.512-0.098-0.707-0.293C4.854,31.268,1,27.318,1,24c0-0.552,0.447-1,1-1s1,0.448,1,1
			c0,2.121,2.676,5.262,3.707,6.293c0.391,0.391,0.391,1.023,0,1.414C6.512,31.902,6.256,32,6,32z"/>
		<path fill="#7C8AC4" d="M9,10c-4,0-9,5.228-9,10.93S0.288,30,1,30c2.118,0,5,0,4-2s-1-2.877-1-7c0-3,1-7,4-7C10,14,9,10,9,10z"/>
		<path fill="#FF8D6E" d="M30,32c-0.553,0-1-0.448-1-1v-6c0-0.552,0.447-1,1-1s1,0.448,1,1v6C31,31.552,30.553,32,30,32z"/>
		<path fill="#FF8D6E" d="M28,32c-0.104,0-0.211-0.017-0.315-0.051c-0.524-0.174-0.808-0.74-0.634-1.264
			C27.061,30.656,28,27.794,28,25c0-0.552,0.447-1,1-1s1,0.448,1,1c0,3.126-1.009,6.188-1.052,6.316C28.809,31.735,28.419,32,28,32z
			"/>
		<path fill="#FF8D6E" d="M26,32c-0.256,0-0.512-0.098-0.707-0.292c-0.39-0.391-0.391-1.023,0-1.414C26.323,29.26,29,26.115,29,24
			c0-0.552,0.447-1,1-1s1,0.448,1,1c0,3.318-3.854,7.268-4.293,7.707C26.512,31.902,26.256,32,26,32z"/>
		<path fill="#7C8AC4" d="M23,10c4,0,9,5.228,9,10.93S31.712,30,31,30c-2.118,0-5,0-4-2s1-2.877,1-7c0-3-1-7-4-7C22,14,23,10,23,10z
			"/>
		<g>
			<path fill="#373F3F" d="M12.101,23C9.899,23,8,25.015,8,27.5S9.798,32,12,32c1.084,0,2.281-0.492,3-1.284
				c0.354,0.025,0.672,0.03,1,0.019V23C14.488,23,12.977,23,12.101,23z"/>
		</g>
		<path fill="#FF9A7E" d="M8.675,30c0.719,1.206,1.942,2,3.325,2c1.084,0,2.281-0.492,3-1.284C13,31,10,31,8.675,30z"/>
		<g>
			<path fill="#2B3332" d="M19.899,23C22.101,23,24,25.015,24,27.5S22.202,32,20,32c-1.084,0-2.281-0.492-3-1.284
				c-0.354,0.025-0.672,0.03-1,0.019V23C17.512,23,19.023,23,19.899,23z"/>
		</g>
		<path fill="#FF8C6E" d="M23.325,30c-0.719,1.206-1.942,2-3.325,2c-1.084,0-2.281-0.492-3-1.284C19,31,22,31,23.325,30z"/>
		<path fill="#6673AA" d="M14.005,29.421c-0.256,0-0.512-0.098-0.707-0.292c-0.898-0.898-1.248-2.261-0.983-3.838
			c0.198-1.181,0.741-2.385,1.352-2.995c0.391-0.391,1.023-0.391,1.414,0s0.391,1.023,0,1.414c-0.229,0.229-0.64,0.995-0.793,1.911
			c-0.09,0.534-0.153,1.515,0.425,2.093c0.391,0.391,0.391,1.024,0,1.415C14.517,29.324,14.261,29.421,14.005,29.421z"/>
		<path fill="#6673AA" d="M11.164,30c-0.256,0-0.512-0.098-0.707-0.293c-1.974-1.974-0.868-5.596,0.368-6.833
			c0.391-0.391,1.023-0.391,1.414,0s0.391,1.023,0,1.414c-0.229,0.229-0.639,0.995-0.793,1.911
			c-0.089,0.534-0.153,1.516,0.425,2.093c0.391,0.391,0.391,1.023,0,1.414C11.676,29.902,11.42,30,11.164,30z"/>
		<path fill="#6673AA" d="M7.271,29.053c-0.269,0-0.536-0.108-0.733-0.32c-0.376-0.405-0.352-1.038,0.054-1.413
			c0.486-0.451,0.498-1.65,0.507-2.615c0.01-1.118,0.021-2.175,0.675-2.83c0.389-0.392,1.023-0.391,1.414-0.001
			c0.382,0.381,0.391,0.995,0.026,1.387c-0.104,0.218-0.111,0.964-0.115,1.462c-0.013,1.348-0.028,3.026-1.147,4.062
			C7.759,28.965,7.515,29.053,7.271,29.053z M9.188,23.288C9.188,23.288,9.188,23.289,9.188,23.288
			C9.188,23.289,9.188,23.288,9.188,23.288z"/>
		<path fill="#6673AA" d="M5.885,27.461c-0.412,0-0.794-0.079-1.108-0.243C4.29,26.963,4,26.508,4,26c0-0.552,0.447-1,1-1
			c0.354,0,0.665,0.184,0.843,0.461c0.268,0.006,0.826-0.092,1.308-0.476c0.723-0.576,1.02-1.565,0.857-2.861
			c-0.068-0.548,0.32-1.048,0.868-1.116c0.55-0.072,1.048,0.32,1.116,0.868c0.358,2.864-0.985,4.261-1.818,4.839
			C7.474,27.201,6.631,27.461,5.885,27.461z"/>
		<path fill="#6673AA" d="M8.785,8.319C7.365,9.731,6,11,5,16c-0.52,2.598,0.729,3.585,1,4c-3,3,1,8,4,7
			c2.173-0.724,4.215,0.652,5.162-0.348c0.947-1,0.684-1.294,0.684-1.294s0.053,0.823,2.052,0.765C19.896,26.063,25,26,26,25
			c1.379-1.379,2-3,1.997-4.406c-0.003-1.594-0.647-3.987-2.488-4.928C25,11,24.656,2.729,17,2
			C11.055,1.434,8.785,8.319,8.785,8.319z"/>
		<path fill="#6673AA" d="M17.438,29.421c-0.256,0-0.512-0.098-0.707-0.293c-0.391-0.391-0.391-1.023,0-1.414
			c1.043-1.043,0.144-3.492-0.368-4.004c-0.391-0.391-0.391-1.023,0-1.414s1.023-0.391,1.414,0c1.236,1.236,2.342,4.859,0.368,6.833
			C17.95,29.324,17.694,29.421,17.438,29.421z"/>
		<path fill="#6673AA" d="M20.279,30c-0.256,0-0.512-0.098-0.707-0.293c-0.391-0.391-0.391-1.023,0-1.414
			c0.578-0.578,0.514-1.56,0.425-2.093c-0.154-0.917-0.564-1.682-0.793-1.911c-0.391-0.391-0.391-1.023,0-1.414s1.023-0.391,1.414,0
			c1.236,1.236,2.342,4.859,0.368,6.833C20.791,29.902,20.535,30,20.279,30z"/>
		<path fill="#6673AA" d="M24.172,29.053c-0.243,0-0.487-0.088-0.68-0.266c-1.119-1.037-1.135-2.714-1.147-4.063
			c-0.005-0.508-0.012-1.276-0.123-1.475c-0.391-0.391-0.374-1.004,0.017-1.394c0.392-0.391,1.04-0.37,1.431,0.02
			c0.655,0.655,0.665,1.712,0.676,2.831c0.009,0.964,0.021,2.164,0.507,2.614c0.405,0.375,0.43,1.008,0.054,1.413
			C24.709,28.945,24.44,29.053,24.172,29.053z"/>
		<path fill="#6673AA" d="M26.417,27.27c-0.981,0-1.906-0.269-2.705-0.801c-1.042-0.694-1.737-1.772-1.814-2.813
			c-0.041-0.551,0.372-1.03,0.923-1.071c0.56-0.05,1.03,0.373,1.071,0.923c0.025,0.344,0.327,0.896,0.929,1.296
			c0.549,0.365,1.49,0.706,2.863,0.248c0.528-0.176,1.09,0.109,1.265,0.632c0.175,0.524-0.108,1.09-0.632,1.265
			C27.672,27.163,27.033,27.27,26.417,27.27z"/>
		<path fill="#7C8AC4" d="M17.86,22.996c-0.312,0-0.618-0.145-0.813-0.417c-1.306-1.819-0.243-2.904,0.328-3.486
			C17.786,18.674,18,18.435,18,18c0-0.58-0.251-0.918-0.569-1.346c-0.484-0.651-1.217-1.636-0.286-3.172
			c0.286-0.474,0.902-0.623,1.374-0.337c0.472,0.287,0.623,0.901,0.337,1.374c-0.234,0.386-0.234,0.386,0.18,0.942
			C19.419,15.977,20,16.757,20,18c0,1.272-0.72,2.006-1.196,2.493c-0.142,0.144-0.355,0.362-0.381,0.447l0,0
			c0.002,0,0.012,0.142,0.249,0.472c0.322,0.449,0.22,1.074-0.229,1.396C18.266,22.935,18.062,22.996,17.86,22.996z"/>
		<path fill="#7C8AC4" d="M25.082,20.671c-1.076,0-1.637-0.499-1.898-0.848c-0.679-0.909-0.533-2.237,0.433-3.948
			c0.273-0.481,0.881-0.65,1.363-0.379c0.48,0.271,0.65,0.881,0.379,1.362c-0.747,1.321-0.571,1.768-0.569,1.771
			c0.026,0.016,0.285,0.096,0.827-0.029c0.537-0.121,1.075,0.212,1.199,0.75c0.124,0.538-0.212,1.075-0.75,1.199
			C25.697,20.635,25.371,20.671,25.082,20.671z"/>
		<path fill="#7C8AC4" d="M12.641,26.058c-0.762,0-1.533-0.221-2.259-0.669c-2-1.236-3.003-3.689-2.33-5.705
			c0.606-1.82,2.243-2.885,3.438-3.664c0.42-0.273,1.034-0.673,1.219-0.905c-0.235-0.464-0.085-1.051,0.365-1.324
			c0.471-0.286,1.079-0.151,1.365,0.321c1.031,1.702-0.708,2.834-1.858,3.583c-1.053,0.686-2.246,1.462-2.633,2.62
			c-0.373,1.122,0.293,2.634,1.485,3.371c0.695,0.43,1.755,0.708,2.859-0.395c0.391-0.391,1.023-0.391,1.414,0s0.391,1.023,0,1.414
			C14.813,25.601,13.736,26.058,12.641,26.058z M12.746,15.181h0.01H12.746z"/>
		<path fill="#7C8AC4" d="M17.979,25.804c-0.599,0-1.22-0.124-1.832-0.377C14.265,24.646,13,22.868,13,21
			c0-2.711,1.329-4.755,4.445-6.832c0.46-0.307,1.081-0.183,1.387,0.277c0.307,0.459,0.183,1.081-0.277,1.387
			C15.604,17.799,15,19.32,15,21c0,1.234,0.96,2.184,1.911,2.579c0.35,0.144,1.548,0.551,2.382-0.286
			c0.391-0.391,1.023-0.391,1.414,0s0.391,1.023,0,1.414C19.985,25.429,19.018,25.804,17.979,25.804z"/>
		<path fill="#7C8AC4" d="M22,26c-0.553,0-1-0.448-1-1s0.447-1,1-1c0.185-0.01,2-0.207,2-4c0-2.729-2.225-4-7-4
			c-0.553,0-1-0.448-1-1s0.447-1,1-1c5.972,0,9,2.019,9,6C26,25.931,22.04,26,22,26z"/>
		<path fill="#2B3332" d="M16.071,7.963c-0.047,0-0.092-0.003-0.139-0.003C13.171,7.972,10.988,9.204,11,11.774
			c0.011,2.324,2.258,4.198,5.02,4.185c0.03,0,0.059-0.004,0.089-0.004c2.72-0.052,4.902-1.927,4.891-4.225
			C20.988,9.163,18.77,7.99,16.071,7.963z"/>
		<path fill="#8694D1" d="M7.999,26c-0.15,0-0.303-0.034-0.446-0.105c-1.45-0.725-2.196-2.742-1.735-4.693
			C6.283,19.227,7.886,18,10,18c2.471,0,4-1.557,4-3c0-0.552,0.447-1,1-1s1,0.448,1,1c0,2.405-2.294,5-6,5
			c-1.524,0-2.058,0.903-2.236,1.661c-0.254,1.077,0.151,2.178,0.684,2.444c0.494,0.247,0.694,0.848,0.447,1.342
			C8.719,25.798,8.366,26,7.999,26z"/>
		<path fill="#3D4443" d="M15.932,7.96C13.171,7.972,10.988,9.204,11,11.774c0.011,2.318,2.248,4.187,5,4.184V7.961
			C15.978,7.961,15.955,7.96,15.932,7.96z"/>
		<circle fill="#F7F7F7" cx="18.423" cy="12.532" r="1.5"/>
		<circle fill="#F7F7F7" cx="13.5" cy="12.532" r="1.5"/>
		<circle fill="#2B3332" cx="18.423" cy="12.532" r="0.5"/>
		<circle fill="#2B3332" cx="13.5" cy="12.532" r="0.5"/>
		<path fill="#6673AA" d="M6.684,18.848c-0.199,0-0.396-0.015-0.59-0.045c-1.155-0.18-2.021-0.893-2.375-1.955
			c-0.175-0.524,0.108-1.09,0.632-1.265c0.529-0.176,1.09,0.109,1.265,0.632c0.074,0.222,0.236,0.526,0.786,0.612
			c0.779,0.12,1.957-0.282,2.601-1.163c0.478-0.654,0.513-1.4,0.104-2.217c-0.247-0.494-0.047-1.095,0.447-1.342
			c0.494-0.246,1.094-0.047,1.342,0.447c0.748,1.497,0.649,3.021-0.278,4.292C9.726,18.063,8.146,18.848,6.684,18.848z"/>
		<path fill="#7C8AC4" d="M8.92,14.14c-0.033,0-0.066-0.001-0.1-0.005c-2.199-0.219-3.483-1.646-3.354-3.723
			c0.183-2.932,3.46-3.895,4.693-4.258C10.687,6,11.255,6.298,11.411,6.829c0.156,0.53-0.138,1.083-0.667,1.239l-0.02,0.006
			c-1.565,0.46-3.178,1.113-3.262,2.463c-0.027,0.433-0.091,1.444,1.555,1.608c0.55,0.055,0.951,0.544,0.896,1.094
			C9.862,13.755,9.428,14.14,8.92,14.14z"/>
		<path fill="#6673AA" d="M11.585,16.245c-0.081,0-0.163-0.01-0.245-0.031c-1.357-0.343-3.908-1.88-3.846-5.239
			c0.035-1.828,0.92-4.962,6.462-5.424c0.556-0.051,1.034,0.364,1.079,0.914c0.046,0.55-0.362,1.034-0.913,1.08
			c-4.569,0.38-4.613,2.705-4.628,3.468c-0.048,2.547,2.099,3.199,2.343,3.265c0.531,0.143,0.851,0.688,0.712,1.219
			C12.432,15.946,12.028,16.245,11.585,16.245z"/>
		<path fill="#7C8AC4" d="M20.053,20.365c-0.532,0-0.976-0.42-0.998-0.958c-0.023-0.552,0.405-1.018,0.957-1.041
			c1.262-0.053,1.973-1.171,2.22-1.649c0.425-0.824,0.449-1.525,0.384-1.795c-0.058,0.014-0.142,0.043-0.256,0.099
			c-0.493,0.244-1.096,0.038-1.337-0.459c-0.242-0.497-0.037-1.095,0.46-1.337c1.293-0.632,2.091-0.183,2.453,0.14
			c0.775,0.694,0.926,2.048,0.394,3.534c-0.552,1.54-1.991,3.372-4.233,3.467C20.082,20.365,20.067,20.365,20.053,20.365z"/>
		<path fill="#8694D1" d="M21.421,22.575c-0.137,0-0.276-0.029-0.409-0.088c-2.359-1.062-1.897-2.962-1.622-4.098
			c0.292-1.203,0.323-1.634-0.431-2.137c-0.46-0.307-0.584-0.927-0.277-1.387c0.306-0.459,0.926-0.584,1.387-0.277
			c1.98,1.321,1.532,3.168,1.265,4.272c-0.302,1.244-0.293,1.446,0.499,1.802c0.504,0.227,0.729,0.819,0.502,1.322
			C22.167,22.355,21.803,22.575,21.421,22.575z"/>
		<path fill="#6673AA" d="M23.935,18.582c-0.274,0-0.549-0.113-0.746-0.334c-0.368-0.412-0.332-1.044,0.08-1.412
			c0.816-0.729,1.396-1.85,1.444-2.789c0.028-0.552-0.123-1.013-0.451-1.373c-0.373-0.408-0.344-1.041,0.064-1.413
			c0.405-0.371,1.039-0.344,1.412,0.064c0.692,0.758,1.028,1.734,0.973,2.823c-0.076,1.483-0.885,3.085-2.11,4.179
			C24.41,18.498,24.172,18.582,23.935,18.582z"/>
		<path fill="#7C8AC4" d="M23.183,14.14c-0.508,0-0.942-0.385-0.994-0.901c-0.055-0.55,0.347-1.04,0.896-1.094
			c0.22-0.022,1.02-0.439,0.917-2.083c-0.068-1.098-0.676-2.002-1.223-2.241c-0.233-0.101-0.372-0.048-0.508,0.062
			c-0.428,0.35-1.058,0.285-1.407-0.144c-0.349-0.428-0.284-1.058,0.144-1.407c0.747-0.608,1.683-0.733,2.573-0.344
			c1.313,0.574,2.308,2.198,2.417,3.948c0.18,2.864-1.525,4.079-2.716,4.198C23.249,14.139,23.216,14.14,23.183,14.14z"/>
		<path fill="#6673AA" d="M19,17c-0.403,0-0.783-0.246-0.935-0.645c-0.196-0.516,0.062-1.094,0.579-1.29
			c0.031-0.012,3.407-1.35,3.355-4.046c-0.025-1.35-0.47-3.18-4.02-3.475c-0.551-0.046-0.959-0.529-0.913-1.08
			c0.045-0.55,0.513-0.964,1.079-0.914c5.012,0.417,5.818,3.582,5.854,5.43c0.078,4.109-4.451,5.88-4.645,5.954
			C19.238,16.979,19.118,17,19,17z"/>
		<path fill="#7C8AC4" d="M20.539,18.045c-0.989,0-1.927-0.584-2.434-1.598c-0.849-1.697,0.098-2.792,0.789-3.591
			c0.504-0.583,0.98-1.134,1.117-2.011c0.13-0.827-0.453-1.307-0.876-1.427c-0.593-0.167-0.781,0.272-0.843,0.417
			c-0.215,0.509-0.808,0.746-1.311,0.531c-0.509-0.215-0.746-0.802-0.531-1.311c0.561-1.325,1.856-1.956,3.233-1.562
			c1.334,0.381,2.596,1.792,2.304,3.66c-0.226,1.443-1.009,2.349-1.581,3.01c-0.693,0.802-0.741,0.932-0.513,1.389
			c0.245,0.493,0.625,0.546,0.871,0.445c0.37-0.153,0.602-0.732,0.286-1.681c-0.175-0.524,0.108-1.09,0.632-1.265
			c0.528-0.176,1.09,0.109,1.265,0.632c0.724,2.17-0.19,3.653-1.417,4.162C21.204,17.98,20.868,18.045,20.539,18.045z"/>
		<path fill="#7C8AC4" d="M15.587,8.648c-0.385,0-0.757-0.228-0.929-0.598c-0.353-0.76-0.177-1.625,0.482-2.373
			c1.104-1.25,3.557-2.184,5.449-1.577C21.871,4.51,22.66,5.54,22.812,7c0.057,0.549-0.343,1.041-0.892,1.098
			c-0.559,0.058-1.041-0.342-1.099-0.892c-0.061-0.59-0.28-1.271-1.446-1.292c-0.02,0-0.04,0-0.061,0
			c-1.449,0-2.781,0.966-2.834,1.342c0.232,0.501,0.011,1.072-0.49,1.305C15.86,8.62,15.723,8.648,15.587,8.648z"/>
		<path fill="#7C8AC4" d="M12.404,8.572c-0.236,0-0.474-0.083-0.664-0.252c-1.317-1.171-1.735-2.658-1.146-4.081
			c0.633-1.53,2.362-2.607,4.029-2.514c1.607,0.093,2.824,1.188,3.339,3.002c0.15,0.531-0.157,1.084-0.689,1.235
			c-0.527,0.149-1.083-0.157-1.234-0.689c-0.192-0.678-0.614-1.498-1.531-1.551c-0.827-0.056-1.753,0.527-2.065,1.282
			c-0.253,0.613-0.042,1.226,0.627,1.821c0.413,0.367,0.45,0.999,0.083,1.412C12.954,8.459,12.68,8.572,12.404,8.572z"/>
		<path fill="#8694D1" d="M10.425,23.072c-1.196,0-2.351-0.654-3.256-1.872c-1.268-1.703-1.939-4.454-0.772-6.416
			c0.502-0.845,1.784-2.198,4.745-1.774c0.547,0.078,0.927,0.584,0.849,1.131c-0.078,0.546-0.58,0.928-1.132,0.848
			c-1.379-0.193-2.303,0.078-2.743,0.817c-0.604,1.016-0.31,2.9,0.658,4.2c0.356,0.479,1.083,1.247,1.984,1.023
			c0.532-0.135,1.078,0.192,1.212,0.728c0.135,0.536-0.191,1.079-0.728,1.213C10.97,23.039,10.696,23.072,10.425,23.072z"/>
		<path fill="#7C8AC4" d="M10.694,16.795c-0.076,0-0.153-0.003-0.23-0.01c-0.944-0.081-1.687-0.623-1.937-1.415
			c-0.167-0.527,0.125-1.088,0.652-1.255c0.524-0.167,1.089,0.126,1.254,0.652c0.05,0.029,0.27,0.048,0.396,0.013
			c-0.028-0.117-0.131-0.384-0.5-0.82c-1.335-1.576-1.017-3.708-0.156-5.021c0.823-1.257,2.116-1.805,3.369-1.428
			c0.529,0.159,0.829,0.716,0.671,1.246c-0.159,0.528-0.716,0.826-1.245,0.67c-0.558-0.167-0.967,0.371-1.122,0.607
			c-0.47,0.717-0.625,1.883,0.01,2.633c1.209,1.427,1.09,2.448,0.777,3.052C12.289,16.388,11.543,16.795,10.694,16.795z"/>
		<path fill="#8694D1" d="M10.1,12.065c-0.553,0-1-0.448-1-1s0.447-1,1-1c0.63,0,1.214-0.517,1.785-1.579
			c0.812-1.508,2.8-1.508,3.756-1.508c0.553,0,1,0.448,1,1s-0.447,1-1,1c-0.433,0-1.749,0-1.994,0.456
			C12.706,11.181,11.513,12.065,10.1,12.065z"/>
		<path fill="#8694D1" d="M8.412,9.26c-0.091,0-0.183-0.013-0.273-0.038c-0.531-0.15-0.84-0.703-0.689-1.235
			c0.716-2.532,2.635-3.34,4.178-3.247c1.721,0.1,3.144,1.247,3.383,2.729c0.088,0.545-0.282,1.059-0.828,1.147
			c-0.546,0.09-1.059-0.283-1.146-0.828c-0.088-0.545-0.758-1.007-1.524-1.051c-0.48-0.03-1.656,0.092-2.138,1.795
			C9.249,8.973,8.848,9.26,8.412,9.26z"/>
		<path fill="#8694D1" d="M14.114,8.817c-0.413,0-0.8-0.258-0.943-0.67c-1.668-4.761-0.718-6.775,0.373-7.626
			c0.988-0.771,2.443-0.767,3.627,0.011c1.192,0.786,1.747,2.115,1.413,3.385c-0.139,0.535-0.69,0.853-1.221,0.713
			c-0.534-0.141-0.854-0.688-0.713-1.222c0.136-0.518-0.211-0.962-0.58-1.206c-0.374-0.247-0.938-0.383-1.296-0.104
			c-0.581,0.454-0.855,2.137,0.283,5.389c0.183,0.521-0.092,1.092-0.612,1.274C14.336,8.799,14.224,8.817,14.114,8.817z"/>
		<path fill="#8694D1" d="M17.967,11.208c-1.028,0-1.867-0.514-2.332-1.443c-0.673-1.346-0.3-3.1,0.869-4.081
			c1.096-0.921,2.563-0.91,3.825,0.026c0.444,0.329,0.537,0.955,0.209,1.399s-0.955,0.538-1.398,0.208
			c-0.521-0.386-0.974-0.417-1.35-0.102c-0.404,0.339-0.659,1.068-0.366,1.655c0.105,0.212,0.268,0.36,0.591,0.336
			c0.645-0.025,1.321-0.549,1.409-0.764c0.142-0.533,0.685-0.844,1.222-0.703c0.533,0.142,0.849,0.696,0.707,1.23
			c-0.284,1.064-1.684,2.081-3.057,2.221C18.185,11.202,18.074,11.208,17.967,11.208z"/>
		<path fill="#6673AA" d="M15.875,23.137c-0.007-0.06-0.029-0.09-0.029-0.09S15.852,23.085,15.875,23.137z"/>
	</g>
</g>
</svg>
