<?xml version="1.0" encoding="utf-8"?>
<!-- Generator: Adobe Illustrator 23.0.6, SVG Export Plug-In . SVG Version: 6.00 Build 0)  -->
<svg version="1.1" xmlns="http://www.w3.org/2000/svg" xmlns:xlink="http://www.w3.org/1999/xlink" x="0px" y="0px" width="32px"
	 height="32px" viewBox="0 0 32 32" enable-background="new 0 0 32 32" xml:space="preserve">
<g id="labels">
</g>
<g id="icons">
	<g>
		<rect x="24" y="27" transform="matrix(-1 -4.668766e-11 4.668766e-11 -1 51 57)" fill="#2B3332" width="3" height="3"/>
		<path fill="#FF8D6E" d="M23,19c4.017,0,5,3.1,5,6c0,3-3,4-6,2s-4-4-4-4L23,19z"/>
		<path fill="#CF3C35" d="M23,30.961c0,0.552,0.895,1,2,1s3,0.039,3-1C28,30,28,29,26,29S23,29,23,30.961z"/>
		<rect x="5" y="27" fill="#373F3F" width="3" height="3"/>
		<path fill="#FF9A7E" d="M9,19c-4.017,0-5,3.1-5,6c0,3,3,4,6,2s4-4,4-4L9,19z"/>
		<path fill="#CF3C35" d="M25,21c0-4.971-3-10-9-10s-9,5.029-9,10c0,4,4,8,9,8S25,25,25,21z"/>
		<path fill="#D1473D" d="M16,11c-6,0-9,5.029-9,10c0,4,4,8,9,8V11z"/>
		<path fill="#FFD04D" d="M9.607,17.1c1.414-1.414,2.774-0.055,4.188-1.469c1.414-1.414,0.055-2.774,1.469-4.188
			c0.193-0.193,0.386-0.331,0.577-0.435C10,11.008,7,15.978,7,21c0,0.307,0.031,0.613,0.077,0.918
			c0.351-0.093,0.704-0.273,1.061-0.629C9.552,19.874,8.192,18.515,9.607,17.1z"/>
		<path fill="#FFD04D" d="M15.728,18.908c-1.414,1.414,0,2.828-1.414,4.243c-1.414,1.414-2.828,0-4.243,1.414
			c-0.56,0.56-0.675,1.12-0.699,1.679c1.038,1.036,2.358,1.865,3.859,2.331c0.097-0.158,0.217-0.316,0.376-0.475
			c0.809-0.809,1.6-0.711,2.393-0.743V18.67C15.909,18.739,15.819,18.817,15.728,18.908z"/>
		<path fill="#F7C845" d="M21.66,13.014c-0.092,0.068-0.184,0.146-0.275,0.238c-1.414,1.414,0,2.828-1.414,4.243
			c-1.324,1.323-2.647,0.17-3.971,1.176v8.687c0.594-0.024,1.189-0.12,1.795-0.726c1.414-1.414,0.055-2.774,1.469-4.188
			c1.414-1.414,2.774-0.055,4.188-1.469c1.203-1.203,0.404-2.366,1.007-3.557C23.925,15.709,22.989,14.163,21.66,13.014z"/>
		<path fill="#D1473D" d="M9,30.961c0,0.552-0.895,1-2,1s-3,0.039-3-1C4,30,4,29,6,29S9,29,9,30.961z"/>
		<path fill="#2B3332" d="M10.268,13.079C11.534,14.239,13.628,15,16,15s4.466-0.761,5.732-1.921C20.294,11.805,18.389,11,16,11
			S11.706,11.805,10.268,13.079z"/>
		<path fill="#373F3F" d="M16,11c-2.389,0-4.294,0.805-5.732,2.079C11.534,14.239,13.628,15,16,15V11z"/>
		<g>
			<path fill="#FF8D6E" d="M19.243,12.189l-2.757,0.689c-0.318,0.08-0.652,0.08-0.97,0l-2.757-0.689
				C12.312,12.078,12,11.678,12,11.219V7h8v4.219C20,11.678,19.688,12.078,19.243,12.189z"/>
			<g>
				<path fill="#FF9A7E" d="M12,7v4.219c0,0.459,0.312,0.859,0.757,0.97l2.758,0.689c0.159,0.04,0.322,0.06,0.485,0.06V7H12z"/>
			</g>
			<path fill="#2B3332" d="M12.458,9.75c0.026,0.157,0.124,0.293,0.266,0.365C13.676,10.598,14.721,11,16,11
				s2.324-0.402,3.276-0.884c0.142-0.072,0.239-0.208,0.266-0.365L20,7h-8L12.458,9.75z"/>
			<path fill="#373F3F" d="M16,7h-4l0.458,2.75c0.026,0.157,0.124,0.293,0.266,0.365C13.676,10.598,14.721,11,16,11V7z"/>
			<path fill="#F7F7F7" d="M19,9c0,0.552-1,1-1.5,1C17.224,10,17,9.552,17,9s1.224-1,1.5-1S19,8.448,19,9z"/>
			<path fill="#FFFFFF" d="M13,9c0,0.552,1,1,1.5,1c0.276,0,0.5-0.448,0.5-1s-1.224-1-1.5-1S13,8.448,13,9z"/>
			<path fill="#D1473D" d="M20,7c0,1.105-1.791,2-4,2s-4-0.895-4-2c0-2,3-3,4-5C17,4,20,5,20,7z"/>
			<path fill="#DD564C" d="M11.668,3.057c-0.086-0.208-0.383-0.213-0.466-0.004C10.218,5.503,12.598,9.358,14,8
				C16.905,5.187,12.728,5.625,11.668,3.057z"/>
			<path fill="#D1473D" d="M18.789,2.083c0.068-0.204,0.354-0.23,0.454-0.04c2.151,4.091,0.302,7.37-1.307,5.956
				C15.212,5.606,17.994,4.462,18.789,2.083z"/>
			<path fill="#DD564C" d="M16,9c-2.209,0-4-0.895-4-2c0-2,3-3,4-5V9z"/>
			<path fill="#FFD04D" d="M16.271,6.861c-0.174,0.125-0.401,0.124-0.574-0.003c-0.528-0.388-2.288-1.55-2.373-2.068
				c-0.207-1.256,0.654-4.407,4.07-4.76c0.221-0.023,0.367,0.221,0.233,0.398C16.333,2.136,18,3.097,18,4.5
				C18,5.031,16.807,6.476,16.271,6.861z"/>
			<path fill="#F7C845" d="M17.643,0.154c0.047,0.08,0.05,0.186-0.017,0.274C16.333,2.136,18,3.097,18,4.5
				c0,0.531-1.193,1.976-1.729,2.361C16.189,6.921,16.095,6.952,16,6.954c0,0-0.5-0.774-0.5-3.454
				C15.5,0.985,17.643,0.154,17.643,0.154z"/>
		</g>
		<path fill="#D1473D" d="M28.98,4.96c0-1.792-1.672-3.617-3.486-3.864c-0.207-0.028-0.367,0.19-0.262,0.37
			c1.364,2.347-0.78,2.641,0.389,4.927c0.5,0.977,0.115,2.07-0.683,2.666l0.015-0.094c0.79-2.173-1.373-2.517-1.077-4.175
			c0.041-0.228-0.246-0.385-0.414-0.226c-1.135,1.07-1.191,2.607-0.86,3.396c0.28,0.668,0.231,1.145,0.089,1.554
			c-1.645,0.074-3.037,0.602-3.555,2.491c-0.407,1.486,0.139,2.804,1.195,3.714C22.98,18,25.98,14.936,25.98,14c0-3,4-2,4-5
			C29.98,7,28.98,7,28.98,4.96z"/>
		<path fill="#DD564C" d="M3.02,4.96c0-1.792,1.672-3.617,3.486-3.864c0.207-0.028,0.367,0.19,0.262,0.37
			c-1.364,2.347,0.78,2.641-0.389,4.927c-0.5,0.977-0.115,2.07,0.683,2.666L7.046,8.966c-0.79-2.173,1.373-2.517,1.077-4.175
			C8.083,4.563,8.369,4.406,8.538,4.564c1.135,1.07,1.191,2.607,0.86,3.396C9.119,8.628,9.168,9.105,9.31,9.514
			c1.645,0.074,3.037,0.602,3.555,2.491c0.407,1.486-0.139,2.804-1.195,3.714C9.02,18,6.02,14.936,6.02,14c0-3-4-2-4-5
			C2.02,7,3.02,7,3.02,4.96z"/>
		<g>
			<circle fill="#373F3F" cx="8" cy="18" r="4"/>
			<path fill="#FFD96C" d="M8,15c1.654,0,3,1.346,3,3s-1.346,3-3,3s-3-1.346-3-3S6.346,15,8,15 M8,14c-2.209,0-4,1.791-4,4
				s1.791,4,4,4s4-1.791,4-4S10.209,14,8,14L8,14z"/>
		</g>
		<g>
			<circle fill="#373F3F" cx="24" cy="18" r="4"/>
			<path fill="#FFD04D" d="M24,15c1.654,0,3,1.346,3,3s-1.346,3-3,3s-3-1.346-3-3S22.346,15,24,15 M24,14c-2.209,0-4,1.791-4,4
				s1.791,4,4,4s4-1.791,4-4S26.209,14,24,14L24,14z"/>
		</g>
	</g>
</g>
</svg>
