<?xml version="1.0" encoding="utf-8"?>
<!-- Generator: Adobe Illustrator 23.0.6, SVG Export Plug-In . SVG Version: 6.00 Build 0)  -->
<svg version="1.1" xmlns="http://www.w3.org/2000/svg" xmlns:xlink="http://www.w3.org/1999/xlink" x="0px" y="0px" width="32px"
	 height="32px" viewBox="0 0 32 32" enable-background="new 0 0 32 32" xml:space="preserve">
<g id="labels">
</g>
<g id="icons">
	<g>
		<g>
			<path fill="#E3E5E5" d="M16,8c0,0-16,9.674-16,15.031C0,28.426,16,21,16,21V8z"/>
			<path fill="#EDEEEE" d="M12,27c-4,0-8,0.236-8-2c0-2,3-6,7-6L12,27z"/>
		</g>
		<g>
			<path fill="#DADDDC" d="M16,8c0,0,16,9.674,16,15.031C32,28.426,16,21,16,21V8z"/>
			<path fill="#E3E5E5" d="M20,27c4,0,8,0.236,8-2c0-2-3-6-7-6L20,27z"/>
		</g>
		<path fill="#E3E5E5" d="M24.883,1.644L23,12l-7-4l8.483-6.598C24.665,1.261,24.924,1.418,24.883,1.644z"/>
		
			<ellipse transform="matrix(0.9848 -0.1736 0.1736 0.9848 -5.0202 2.5433)" fill="#F7F7F7" cx="12.025" cy="29.962" rx="3" ry="2"/>
		
			<ellipse transform="matrix(0.1736 -0.9848 0.9848 0.1736 -13.0005 44.4309)" fill="#EDEEEE" cx="19.975" cy="29.962" rx="2" ry="3"/>
		<path fill="#EDEEEE" d="M7.117,1.644L9,12l7-4L7.517,1.402C7.335,1.261,7.076,1.418,7.117,1.644z"/>
		<g>
			<path fill="#EDEEEE" d="M22.163,10.375c-2.342-3.301-3.91-6.479-5.713-10.098c-0.184-0.369-0.716-0.369-0.9,0
				c-1.803,3.62-3.371,6.797-5.713,10.098C6.998,14.378,7,17.592,7,20c0,6,4,10,9,10c4.971,0,9-4,9-10.006
				C25,17.587,25,14.375,22.163,10.375z"/>
		</g>
		<g>
			<g>
				<path fill="#F7F7F7" d="M15.55,0.277c-1.803,3.62-3.371,6.797-5.713,10.098C6.998,14.378,7,17.592,7,20c0,6,4,10,9,10V0
					C15.821,0,15.642,0.092,15.55,0.277z"/>
			</g>
		</g>
		<path fill="#4390BF" d="M21.879,5.515l-0.437-1.747l3.042-2.366c0.181-0.141,0.44,0.016,0.399,0.242L24.19,5.452l-1.705,0.426
			C22.217,5.946,21.946,5.783,21.879,5.515z"/>
		<path fill="#D64F45" d="M10.121,5.515l0.437-1.747L7.516,1.402c-0.181-0.141-0.44,0.016-0.399,0.242L7.81,5.452l1.705,0.426
			C9.783,5.946,10.054,5.783,10.121,5.515z"/>
		<g>
			<path fill="#2B3332" d="M19.5,11c0,1.105-0.436,2-1,2c-0.552,0-1-0.895-1-2c0-1.004,0.518-1.5,1-1.5
				C19.029,9.5,19.5,9.996,19.5,11z"/>
			<circle fill="#F7F7F7" cx="18.5" cy="10.5" r="0.5"/>
		</g>
		<g>
			<path fill="#2B3332" d="M14.5,11c0,1.105-0.436,2-1,2c-0.552,0-1-0.895-1-2c0-1.004,0.518-1.5,1-1.5
				C14.029,9.5,14.5,9.996,14.5,11z"/>
			<circle fill="#F7F7F7" cx="13.5" cy="10.5" r="0.5"/>
		</g>
		<path fill="#D64F45" d="M16,14h-1.831c-0.084,0-0.145,0.08-0.12,0.16c0.146,0.475,0.677,1.84,1.949,1.84C15.999,16,16,14,16,14z"
			/>
		<path fill="#CF3C35" d="M16,14h1.831c0.084,0,0.145,0.08,0.12,0.16C17.805,14.635,17.274,16,16.002,16C16.001,16,16,14,16,14z"/>
		<path fill="#D1473D" d="M18.5,18h2c0.206,0,0.324,0.235,0.2,0.4l-1,1.333c-0.1,0.133-0.3,0.133-0.4,0l-1-1.333
			C18.176,18.235,18.294,18,18.5,18z"/>
		<path fill="#D64F45" d="M9,25v-2c0-0.206,0.235-0.324,0.4-0.2l1.333,1c0.133,0.1,0.133,0.3,0,0.4l-1.333,1
			C9.235,25.324,9,25.206,9,25z"/>
		<path fill="#4896C8" d="M11.5,19h2c0.206,0,0.324,0.235,0.2,0.4l-1,1.333c-0.1,0.133-0.3,0.133-0.4,0l-1-1.333
			C11.176,19.235,11.294,19,11.5,19z"/>
		<path fill="#4390BF" d="M17.083,24.25v-2c0-0.206,0.235-0.324,0.4-0.2l1.333,1c0.133,0.1,0.133,0.3,0,0.4l-1.333,1
			C17.319,24.574,17.083,24.456,17.083,24.25z"/>
		<path fill="#4896C8" d="M12.125,27h1.396c0.111,0,0.167,0.135,0.088,0.213l-0.698,0.698c-0.049,0.049-0.128,0.049-0.177,0
			l-0.698-0.698C11.958,27.135,12.014,27,12.125,27z"/>
		<path fill="#D1473D" d="M20.478,25h1.396c0.111,0,0.167,0.135,0.088,0.213l-0.698,0.698c-0.049,0.049-0.128,0.049-0.177,0
			l-0.698-0.698C20.311,25.135,20.367,25,20.478,25z"/>
	</g>
</g>
</svg>
