<?xml version="1.0" encoding="utf-8"?>
<!-- Generator: Adobe Illustrator 23.0.6, SVG Export Plug-In . SVG Version: 6.00 Build 0)  -->
<svg version="1.1" xmlns="http://www.w3.org/2000/svg" xmlns:xlink="http://www.w3.org/1999/xlink" x="0px" y="0px" width="32px"
	 height="32px" viewBox="0 0 32 32" enable-background="new 0 0 32 32" xml:space="preserve">
<g id="labels">
</g>
<g id="icons">
	<g>
		<g>
			<polygon fill="#F7F7F7" points="13,14 14,22 16,22 16,14 			"/>
			<polygon fill="#EDEEEE" points="19,14 16,14 16,22 18,22 			"/>
		</g>
		<polygon fill="#377AA0" points="19,14 27,18 26,20.016 18,15.937 		"/>
		<path fill="#377AA0" d="M29.922,10.472c-0.626,4.784-4.844,11.351-8.455,12.703c-0.191,0.071-0.238,0.316-0.075,0.438l3.431,2.573
			c0.103,0.077,0.243,0.069,0.33-0.025c0.923-1.003,5.766-6.689,5.848-15.611c0.001-0.146-0.057-0.287-0.16-0.391l0,0
			C30.522,9.842,29.98,10.026,29.922,10.472z"/>
		<polygon fill="#3980A8" points="13,14 5,18 6,20.016 14,15.937 		"/>
		<ellipse fill="#EDEEEE" cx="16" cy="23" rx="4" ry="3"/>
		<path fill="#F7F7F7" d="M16,26c-2.209,0-4-1.343-4-3s1.791-3,4-3V26z"/>
		<path fill="#377AA0" d="M16.421,21.346l2.062-3.208L19,14h-6l0.517,4.138l2.062,3.208C15.776,21.652,16.224,21.652,16.421,21.346z
			"/>
		<g>
			<path fill="#3980A8" d="M13,14l0.517,4.138l2.062,3.208c0.098,0.153,0.259,0.23,0.421,0.23V14H13z"/>
		</g>
		<path fill="#F7F7F7" d="M13,24c0,0-3.532,4.397-3.972,7.418C8.983,31.725,9.216,32,9.526,32h3.007c0.273,0,0.496-0.216,0.5-0.49
			C13.051,30.058,13.175,25.825,14,25L13,24z"/>
		<path fill="#EDEEEE" d="M19.023,24c0,0,3.532,4.397,3.972,7.418C23.039,31.725,22.807,32,22.497,32H19.49
			c-0.273,0-0.496-0.216-0.5-0.49c-0.018-1.452-0.142-5.685-0.967-6.51L19.023,24z"/>
		<ellipse fill="#EDEEEE" cx="16" cy="9" rx="7" ry="6"/>
		<path fill="#F7F7F7" d="M16,15c-3.866,0-7-2.686-7-6s3.134-6,7-6V15z"/>
		<g>
			<path fill="#F7F7F7" d="M10.124,7L6.196,7.873c-0.215,0.048-0.268,0.33-0.084,0.452L10.124,11V7z"/>
			<path fill="#F7F7F7" d="M10,10l-2.939,1.679c-0.198,0.113-0.153,0.412,0.07,0.461L11,13L10,10z"/>
		</g>
		<g>
			<path fill="#EDEEEE" d="M21.876,7l3.928,0.873c0.215,0.048,0.268,0.33,0.084,0.452L21.876,11V7z"/>
			<path fill="#EDEEEE" d="M22,10l2.939,1.679c0.198,0.113,0.153,0.412-0.07,0.461L21,13L22,10z"/>
		</g>
		<ellipse fill="#FFFFFF" cx="13" cy="9" rx="2" ry="3"/>
		<ellipse fill="#DD564C" cx="13" cy="8" rx="1" ry="3"/>
		<ellipse fill="#FFFFFF" cx="19" cy="9" rx="2" ry="3"/>
		<ellipse fill="#D64F45" cx="19" cy="8" rx="1" ry="3"/>
		<path fill="#3E88B3" d="M16,3c-3.047,0-5.632,1.671-6.593,4c3.455,0.004,5.43,4.579,5.579,7.93C15.318,14.971,15.654,15,16,15
			c0,0,0.001,0,0.001,0l0.023-11.999C16.016,3.001,16.008,3,16,3z"/>
		<path fill="#3980A8" d="M16.024,3c3.047,0,5.632,1.671,6.593,4c-3.455,0.004-5.43,4.579-5.579,7.93
			C16.706,14.971,16.37,15,16.024,15c0,0-0.001,0-0.001,0L16,3.001C16.008,3.001,16.016,3,16.024,3z"/>
		<path fill="#5C6664" d="M15.992,0c-0.557,0-1.008,0.451-1.008,1.008L15,14.932C15.327,14.972,15.66,15,16,15s0.673-0.028,1-0.068
			V1.008C17,0.451,16.549,0,15.992,0z"/>
		<path fill="#687271" d="M15.998,3l-0.006-3c-0.557,0-1.008,0.451-1.008,1.008L15,14.932C15.327,14.972,15.66,15,16,15V3
			C15.999,3,15.999,3,15.998,3z"/>
		<path fill="#3980A8" d="M2.078,10.472c0.626,4.784,4.844,11.351,8.455,12.703c0.191,0.071,0.238,0.316,0.075,0.438l-3.431,2.573
			c-0.103,0.077-0.243,0.069-0.33-0.025C5.925,25.158,1.082,19.472,1,10.55c-0.001-0.146,0.057-0.287,0.16-0.391l0,0
			C1.478,9.842,2.02,10.026,2.078,10.472z"/>
		<path fill="#DD564C" d="M14.847,16h2.306c0.171,0,0.291,0.167,0.237,0.329l-1.153,3.459c-0.076,0.228-0.398,0.228-0.474,0
			l-1.153-3.459C14.556,16.167,14.676,16,14.847,16z"/>
		<g>
			<path fill="#E55D53" d="M14.847,16c-0.171,0-0.291,0.167-0.237,0.329l1.153,3.459c0.038,0.114,0.138,0.171,0.237,0.171V16H14.847
				z"/>
		</g>
	</g>
</g>
</svg>
