<?xml version="1.0" encoding="utf-8"?>
<!-- Generator: Adobe Illustrator 23.0.6, SVG Export Plug-In . SVG Version: 6.00 Build 0)  -->
<svg version="1.1" xmlns="http://www.w3.org/2000/svg" xmlns:xlink="http://www.w3.org/1999/xlink" x="0px" y="0px" width="32px"
	 height="32px" viewBox="0 0 32 32" enable-background="new 0 0 32 32" xml:space="preserve">
<g id="labels">
</g>
<g id="icons">
	<g>
		<path fill="#3A4274" d="M21,15c3,2,8-0.5,8-0.5V11c0,0-5,2-8,0V15z"/>
		<path fill="#3E4679" d="M11,15c-3,2-8-0.5-8-0.5V11c0,0,5,2,8,0V15z"/>
		<path fill="#3A4274" d="M16,28.056c-1.105,0-2,0.895-2,2c0,0.874,1.252,1.617,1.775,1.889C15.846,31.982,15.923,32,16,32V28.056z"
			/>
		<path fill="#313D68" d="M16.225,31.945C16.748,31.672,18,30.929,18,30.056c0-1.105-0.895-2-2-2V32
			C16.077,32,16.155,31.982,16.225,31.945z"/>
		<path fill="#3E4679" d="M16,25.5c-1.657,0-3,0.895-3,2c0,1.105,1.343,2,3,2V25.5z"/>
		<path fill="#3A4274" d="M19,27.5c0-1.105-1.343-2-3-2v4C17.657,29.5,19,28.605,19,27.5z"/>
		<path fill="#424B7E" d="M16,9c-4.971,0-9,6.029-9,11c0,4.971,4.029,7,9,7V9z"/>
		<path fill="#3E4679" d="M25,20c0-4.971-4.029-11-9-11v18C20.971,27,25,24.971,25,20z"/>
		<path fill="#567B9B" d="M29.25,9h0.5C29.888,9,30,9.112,30,9.25V11l1.689-0.422C31.847,10.538,32,10.658,32,10.82v0.5
			c0,0.108-0.069,0.203-0.171,0.237L30.5,12h1.25c0.138,0,0.25,0.112,0.25,0.25v0.5c0,0.138-0.112,0.25-0.25,0.25H30.5l1.329,0.443
			C31.931,13.477,32,13.573,32,13.68v0.473c0,0.171-0.167,0.291-0.329,0.237L30.5,14l1.389,0.926C31.958,14.972,32,15.05,32,15.134
			v0.462c0,0.186-0.196,0.307-0.362,0.224l-2.362-1.181C29.107,14.554,29,14.38,29,14.191V11c0,0.077,0-1.75,0-1.75
			C29,9.112,29.112,9,29.25,9z"/>
		<path fill="#3A3333" d="M28.5,15.5L28.5,15.5c0.276,0,0.5-0.224,0.5-0.5v-4c0-0.276-0.224-0.5-0.5-0.5l0,0
			c-0.276,0-0.5,0.224-0.5,0.5v4C28,15.276,28.224,15.5,28.5,15.5z"/>
		<path fill="#F7C845" d="M27,15.264c-0.312,0.094-0.646,0.184-1,0.262v-3.759c0.354-0.051,0.688-0.114,1-0.182V15.264z"/>
		<ellipse fill="#FFD96C" cx="21" cy="17" rx="2" ry="1"/>
		<ellipse fill="#FFE28A" cx="11" cy="17" rx="2" ry="1"/>
		<path fill="#5F82A0" d="M2.75,9h-0.5C2.112,9,2,9.112,2,9.25V11l-1.689-0.422C0.153,10.538,0,10.658,0,10.82v0.5
			c0,0.108,0.069,0.203,0.171,0.237L1.5,12H0.25C0.112,12,0,12.112,0,12.25v0.5C0,12.888,0.112,13,0.25,13H1.5l-1.329,0.443
			C0.069,13.477,0,13.573,0,13.68v0.473c0,0.171,0.167,0.291,0.329,0.237L1.5,14l-1.389,0.926C0.042,14.972,0,15.05,0,15.134v0.462
			c0,0.186,0.196,0.307,0.362,0.224l2.362-1.181C2.893,14.554,3,14.38,3,14.191V11c0,0.077,0-1.75,0-1.75C3,9.112,2.888,9,2.75,9z"
			/>
		<path fill="#413B3B" d="M3.5,15.5L3.5,15.5C3.224,15.5,3,15.276,3,15v-4c0-0.276,0.224-0.5,0.5-0.5l0,0C3.776,10.5,4,10.724,4,11
			v4C4,15.276,3.776,15.5,3.5,15.5z"/>
		<path fill="#FFD04D" d="M5,15.264c0.312,0.094,0.646,0.184,1,0.262v-3.759c-0.354-0.051-0.688-0.114-1-0.182V15.264z"/>
		<path fill="#FFD96C" d="M16,21.899c-0.097,0-0.193-0.028-0.277-0.084l-2.168-1.445c-0.336-0.224-0.773-0.224-1.109,0l-2.168,1.445
			c-0.168,0.112-0.387,0.112-0.555,0L7,20c0,0.82,0.119,1.552,0.325,2.216l2.121,1.414c0.336,0.224,0.773,0.224,1.109,0l2.168-1.445
			c0.168-0.112,0.387-0.112,0.555,0l2.168,1.445c0.168,0.112,0.361,0.168,0.555,0.168V21.899z"/>
		<path fill="#FFD04D" d="M16.555,23.63l2.168-1.445c0.168-0.112,0.387-0.112,0.555,0l2.168,1.445c0.336,0.224,0.773,0.224,1.109,0
			l2.121-1.414C24.881,21.552,25,20.82,25,20l-2.723,1.815c-0.168,0.112-0.387,0.112-0.555,0l-2.168-1.445
			c-0.336-0.224-0.773-0.224-1.109,0l-2.168,1.445c-0.084,0.056-0.181,0.084-0.277,0.084v1.899
			C16.193,23.798,16.387,23.742,16.555,23.63z"/>
		<path fill="#4C7495" d="M18,12l4.596-5.515c0.206-0.248,0.128-0.623-0.161-0.767L19,4l-2,8H18z"/>
		<path fill="#4C7495" d="M19,13l5.493-2.747c0.269-0.134,0.359-0.474,0.192-0.725l-1.383-2.075
			c-0.163-0.244-0.499-0.296-0.728-0.113L18,11L19,13z"/>
		<path fill="#567B9B" d="M14,12L9.404,6.485C9.198,6.237,9.276,5.862,9.565,5.718L13,4l2,8H14z"/>
		<path fill="#567B9B" d="M13,13l-5.493-2.747c-0.269-0.134-0.359-0.474-0.192-0.725l1.383-2.075C8.86,7.21,9.197,7.158,9.426,7.341
			L14,11L13,13z"/>
		<path fill="#567B9B" d="M16,8h-4l-1,4c0,0,1.919,2.878,4.816,3.936c0.059,0.021,0.121,0.032,0.184,0.032V8z"/>
		<path fill="#4C7495" d="M16.184,15.936C19.081,14.878,21,12,21,12l-1-4h-4v7.968C16.063,15.968,16.125,15.957,16.184,15.936z"/>
		<path fill="#567B9B" d="M19.5,5H16v8c1.599,0,2.771-0.568,3.518-1.099c0.623-0.443,0.932-1.203,0.806-1.957L19.5,5z"/>
		<path fill="#5F82A0" d="M16,5h-3.5l-0.824,4.945c-0.126,0.754,0.183,1.514,0.806,1.957C13.229,12.432,14.401,13,16,13V5z"/>
		<path fill="#373F3F" d="M16,6c-1.657,0-3,1.343-3,3s1.343,3,3,3V6z"/>
		<path fill="#2B3332" d="M19,9c0-1.657-1.343-3-3-3v6C17.657,12,19,10.657,19,9z"/>
		<path fill="#FFE28A" d="M16,7c-1.105,0-2,0.895-2,2c0,1.105,0.895,2,2,2V7z"/>
		<path fill="#FFD96C" d="M18,9c0-1.105-0.895-2-2-2v4C17.105,11,18,10.105,18,9z"/>
		<polygon fill="#F5CE75" points="16,3 12.833,3 12.5,5 16,5 		"/>
		<polygon fill="#F5CE75" points="16,5 19.5,5 19.167,3 16,3 		"/>
		<path fill="#FFD96C" d="M16,0h-1.5C14.224,0,14,0.224,14,0.5C14,0.776,14.224,1,14.5,1H16V0z"/>
		<path fill="#FFD04D" d="M17.5,0H16v1h1.5C17.776,1,18,0.776,18,0.5C18,0.224,17.776,0,17.5,0z"/>
		<rect x="15" y="1" fill="#FFD04D" width="1" height="1"/>
		<rect x="16" y="1" fill="#F7C845" width="1" height="1"/>
		<path fill="#E55D53" d="M16,7.5c-0.828,0-1.5,0.672-1.5,1.5s0.672,1.5,1.5,1.5V7.5z"/>
		<path fill="#DD564C" d="M17.5,9c0-0.828-0.672-1.5-1.5-1.5v3C16.828,10.5,17.5,9.828,17.5,9z"/>
		<path fill="#6789A5" d="M16,2h-2.153c-0.489,0-0.906,0.353-0.986,0.836l-0.732,4.389c-0.078,0.471,0.183,0.929,0.629,1.099
			C13.522,8.616,14.761,9,16,9V2z"/>
		<path fill="#5F82A0" d="M18.153,2H16v7c1.239,0,2.478-0.384,3.242-0.676c0.446-0.171,0.708-0.628,0.629-1.099l-0.732-4.389
			C19.059,2.353,18.642,2,18.153,2z"/>
	</g>
</g>
</svg>
