<?xml version="1.0" encoding="utf-8"?>
<!-- Generator: Adobe Illustrator 23.0.6, SVG Export Plug-In . SVG Version: 6.00 Build 0)  -->
<svg version="1.1" xmlns="http://www.w3.org/2000/svg" xmlns:xlink="http://www.w3.org/1999/xlink" x="0px" y="0px" width="32px"
	 height="32px" viewBox="0 0 32 32" enable-background="new 0 0 32 32" xml:space="preserve">
<g id="labels">
</g>
<g id="icons">
	<g>
		<path fill="#EDEEEE" d="M11,10l-1-1l-6.19,6.81L3.5,15.5c-0.276-0.276-0.724-0.276-1,0c-0.276,0.276-0.276,0.724,0,1
			c-0.276-0.276-0.724-0.276-1,0c-0.276,0.276-0.276,0.724,0,1c-0.276-0.276-0.724-0.276-1,0c-0.276,0.276-0.276,0.724,0,1
			l0.452,0.452l-0.632,0.695c-0.18,0.198-0.172,0.501,0.016,0.69L3.68,23.68c0.729,0.729,1.912,0.729,2.641,0h0
			c0.426-0.426,0.621-1.033,0.522-1.627l-0.161-0.966c-0.436-2.616,0.185-5.298,1.727-7.456L11,10z"/>
		<path fill="#E3E5E5" d="M31.679,19.647l-0.632-0.695L31.5,18.5c0.276-0.276,0.276-0.724,0-1c-0.276-0.276-0.724-0.276-1,0
			c0.276-0.276,0.276-0.724,0-1c-0.276-0.276-0.724-0.276-1,0c0.276-0.276,0.276-0.724,0-1c-0.276-0.276-0.724-0.276-1,0l-0.31,0.31
			L22,9l-1,1l2.592,3.629c1.542,2.158,2.163,4.84,1.727,7.456l-0.161,0.966c-0.099,0.595,0.095,1.201,0.522,1.627h0
			c0.729,0.729,1.912,0.729,2.641,0l3.342-3.342C31.852,20.148,31.859,19.845,31.679,19.647z"/>
		<path fill="#FF5F7E" d="M16,21c0,2.209-1.791,6-4,6s-4-3.791-4-6s1.791-4,4-4S16,18.791,16,21z"/>
		<path fill="#F3586F" d="M24,21c0,2.209-1.791,6-4,6s-4-3.791-4-6s1.791-4,4-4S24,18.791,24,21z"/>
		<path fill="#E3E5E5" d="M16,12h-2l-3.823,18.159c-0.107,0.508,0.187,1.008,0.682,1.162C11.8,31.614,13.514,32,16,32V12z"/>
		<path fill="#D1D4D4" d="M16,12v20c2.486,0,4.2-0.386,5.141-0.679c0.495-0.154,0.789-0.655,0.682-1.162L18,12H16z"/>
		<path fill="#DADDDC" d="M14.149,31.431c-0.011,0.269,0.191,0.502,0.46,0.52C15.04,31.981,15.499,32,16,32
			c0.501,0,0.96-0.019,1.392-0.049c0.269-0.018,0.471-0.251,0.46-0.52L17.042,12h-2.083L14.149,31.431z"/>
		<path fill="#FF6B8B" d="M16,21c-1.6,0-2.865-0.16-3.821-0.352l-1.002,4.761C12.162,25.686,13.754,26,16,26V21z"/>
		<path fill="#FF5F7E" d="M20.823,25.41l-1.002-4.761C18.865,20.84,17.6,21,16,21v5C18.246,26,19.838,25.686,20.823,25.41z"/>
		<path fill="#76A6C0" d="M16,12h-2l-0.803,3.816C13.988,15.924,14.914,16,16,16V12z"/>
		<path fill="#649BB7" d="M16,12v4c1.086,0,2.012-0.076,2.803-0.184L18,12H16z"/>
		<path fill="#745DA6" d="M16,1c-3.314,0-6,2.686-6,6s2.686,6,6,6V1z"/>
		<path fill="#6E57A0" d="M22,7c0-3.314-2.686-6-6-6v12C19.314,13,22,10.314,22,7z"/>
		<path fill="#EDEEEE" d="M16,0.01C12.135,0.011,9,3.135,9,7c0,1.592,0.533,3.06,1.429,4.236c0.243,0.319,0.749,0.23,0.876-0.15
			l0.521-1.564c0.091-0.274,0.392-0.416,0.658-0.306C13.198,9.509,14.599,10,16,10V0.01z"/>
		<path fill="#E3E5E5" d="M17.402,0.136C16.926,0.044,16.459,0.01,16,0.01V10c1.401,0,2.802-0.491,3.516-0.785
			c0.267-0.11,0.567,0.033,0.658,0.306l0.521,1.564c0.127,0.382,0.635,0.468,0.878,0.148c1.15-1.511,1.701-3.503,1.293-5.623
			C22.339,2.874,20.138,0.667,17.402,0.136z"/>
		<path fill="#745DA6" d="M14.606,6.41l-0.759-1.139c-0.5-0.75-1.441-1.073-2.297-0.788l-1.076,0.359
			c-0.262,0.087-0.404,0.37-0.316,0.632l0.256,0.769c0.33,0.991,1.369,1.561,2.382,1.308l1.515-0.379
			C14.647,7.088,14.798,6.697,14.606,6.41z"/>
		<path fill="#6E57A0" d="M17.394,6.41l0.759-1.139c0.5-0.75,1.441-1.073,2.297-0.788l1.076,0.359
			c0.262,0.087,0.404,0.37,0.316,0.632l-0.256,0.769c-0.33,0.991-1.369,1.561-2.382,1.308l-1.515-0.379
			C17.353,7.088,17.202,6.697,17.394,6.41z"/>
		<path fill="#99BDCF" d="M10.491,3.509l2.019-2.019c0.241-0.241,0.175-0.648-0.13-0.801l-1.057-0.529
			c-0.192-0.096-0.425-0.059-0.577,0.094l-1.49,1.49C9.103,1.897,9.065,2.13,9.161,2.322L9.69,3.38
			C9.842,3.685,10.249,3.751,10.491,3.509z"/>
		<path fill="#87B2C7" d="M21.509,3.509l-2.019-2.019c-0.241-0.241-0.175-0.648,0.13-0.801l1.057-0.529
			c0.192-0.096,0.425-0.059,0.577,0.094l1.49,1.49c0.152,0.152,0.19,0.385,0.094,0.577L22.31,3.38
			C22.158,3.685,21.751,3.751,21.509,3.509z"/>
		<path fill="#87B2C7" d="M6.207,17c-0.133,0-0.26,0.053-0.354,0.146l-0.707,0.707C5.053,17.947,5,18.074,5,18.207v0.586
			c0,0.133-0.053,0.26-0.146,0.354l-0.707,0.707C4.053,19.947,3.925,20,3.793,20H3.207c-0.133,0-0.26,0.053-0.354,0.146
			l-0.707,0.707C2.053,20.947,2,21.074,2,21.207V22l1.68,1.68c0.729,0.729,1.912,0.729,2.641,0h0
			c0.426-0.426,0.621-1.033,0.522-1.627l-0.161-0.966C6.452,19.713,6.522,18.324,6.855,17H6.207z"/>
		<path fill="#87B2C7" d="M3.25,19h0.5C3.888,19,4,18.888,4,18.75v-0.5C4,18.112,3.888,18,3.75,18h-0.5C3.112,18,3,18.112,3,18.25
			v0.5C3,18.888,3.112,19,3.25,19z"/>
		<path fill="#76A6C0" d="M25.793,17c0.133,0,0.26,0.053,0.354,0.146l0.707,0.707C26.947,17.947,27,18.074,27,18.207v0.586
			c0,0.133,0.053,0.26,0.146,0.354l0.707,0.707C27.947,19.947,28.075,20,28.207,20h0.586c0.133,0,0.26,0.053,0.354,0.146
			l0.707,0.707C29.947,20.947,30,21.074,30,21.207V22l-1.68,1.68c-0.729,0.729-1.912,0.729-2.641,0h0
			c-0.426-0.426-0.621-1.033-0.522-1.627l0.161-0.966c0.229-1.373,0.159-2.762-0.174-4.086H25.793z"/>
		<path fill="#76A6C0" d="M28.75,19h-0.5C28.112,19,28,18.888,28,18.75v-0.5c0-0.138,0.112-0.25,0.25-0.25h0.5
			c0.138,0,0.25,0.112,0.25,0.25v0.5C29,18.888,28.888,19,28.75,19z"/>
		<path fill="#FFD96C" d="M11.551,5.483l-1.076,0.359c-0.062,0.021-0.116,0.054-0.163,0.093l0.103,0.308
			c0.331,0.991,1.369,1.561,2.382,1.308l1.515-0.379c0.039-0.01,0.067-0.036,0.101-0.054l-0.565-0.848
			C13.347,5.521,12.406,5.198,11.551,5.483z"/>
		<path fill="#FFD04D" d="M19.203,7.551c1.014,0.253,2.052-0.316,2.382-1.308l0.103-0.308c-0.047-0.04-0.101-0.073-0.163-0.093
			l-1.076-0.359c-0.856-0.285-1.796,0.038-2.297,0.788l-0.565,0.848c0.034,0.018,0.061,0.044,0.101,0.054L19.203,7.551z"/>
		<path fill="#87B2C7" d="M19.52,5.405c-0.544,0.082-1.046,0.385-1.367,0.866l-0.565,0.848c0.034,0.018,0.061,0.044,0.101,0.054
			l1.515,0.379c0.104,0.026,0.208,0.038,0.312,0.047C19.812,7.324,20,6.935,20,6.5C20,6.067,19.813,5.679,19.52,5.405z"/>
		<path fill="#99BDCF" d="M12.48,5.405C12.187,5.679,12,6.067,12,6.5c0,0.435,0.188,0.824,0.484,1.098
			c0.104-0.009,0.208-0.021,0.312-0.047l1.515-0.379c0.039-0.01,0.067-0.036,0.101-0.054l-0.565-0.848
			C13.527,5.79,13.025,5.488,12.48,5.405z"/>
		<path fill="#373F3F" d="M13.847,6.271c-0.132-0.199-0.301-0.358-0.485-0.493C13.016,5.845,12.75,6.135,12.75,6.5
			c0,0.414,0.336,0.75,0.75,0.75c0.312,0,0.579-0.191,0.692-0.462L13.847,6.271z"/>
		<path fill="#2B3332" d="M18.137,6.271c0.132-0.199,0.301-0.358,0.485-0.493c0.346,0.067,0.612,0.357,0.612,0.722
			c0,0.414-0.336,0.75-0.75,0.75c-0.312,0-0.569-0.181-0.682-0.452L18.137,6.271z"/>
		<path fill="#745DA6" d="M16,2.207c-0.128,0-0.256,0.049-0.354,0.146l-1.293,1.293c-0.195,0.195-0.195,0.512,0,0.707l1.293,1.293
			C15.744,5.744,15.872,5.793,16,5.793V2.207z"/>
		<path fill="#6E57A0" d="M16.354,5.646l1.293-1.293c0.195-0.195,0.195-0.512,0-0.707l-1.293-1.293
			C16.256,2.256,16.128,2.207,16,2.207v3.586C16.128,5.793,16.256,5.744,16.354,5.646z"/>
	</g>
</g>
</svg>
