<?xml version="1.0" encoding="utf-8"?>
<!-- Generator: Adobe Illustrator 23.0.6, SVG Export Plug-In . SVG Version: 6.00 Build 0)  -->
<svg version="1.1" xmlns="http://www.w3.org/2000/svg" xmlns:xlink="http://www.w3.org/1999/xlink" x="0px" y="0px" width="32px"
	 height="32px" viewBox="0 0 32 32" enable-background="new 0 0 32 32" xml:space="preserve">
<g id="labels">
</g>
<g id="icons">
	<g>
		<path fill="#F3586F" d="M25,12c-0.877-1.735-3.208-2.715-7.109-2.945l-1.408-5.744c-0.132-0.495-0.834-0.495-0.966,0l-1.408,5.744
			C10.208,9.285,7.877,10.265,7,12c-1.888,3.737,0.454,12.695,2.054,18.455c0.154,0.554,0.855,0.729,1.266,0.323L11.937,29H16h4.171
			l1.617,1.778c0.41,0.406,1.112,0.231,1.266-0.323C24.654,24.695,26.888,15.737,25,12z"/>
		<g>
			<path fill="#FF5F7E" d="M15.517,3.312l-1.408,5.744C10.208,9.285,7.877,10.265,7,12c-1.888,3.737,0.454,12.695,2.054,18.455
				c0.154,0.554,0.855,0.729,1.266,0.323L11.937,29H16V2.941C15.791,2.941,15.583,3.064,15.517,3.312z"/>
		</g>
		<g>
			<g>
				<path fill="#FF6B8B" d="M15.517,3.312l-1.408,5.744C10.208,9.285,7.877,10.265,7,12c-0.712,1.408-0.822,3.559-0.598,6
					C8.2,18,12.098,18,16,18V2.941C15.791,2.941,15.583,3.064,15.517,3.312z"/>
			</g>
			<path fill="#FF5F7E" d="M25,12c-0.877-1.735-3.208-2.715-7.109-2.945l-1.408-5.744C16.417,3.064,16.209,2.941,16,2.941V18
				c3.905,0,7.816,0,9.633,0C25.838,15.559,25.712,13.408,25,12z"/>
		</g>
		<g>
			<g>
				<ellipse fill="#FFFFFF" cx="11" cy="13.5" rx="2" ry="2.5"/>
			</g>
			<g>
				<path fill="#F7F7F7" d="M9,13.5C9,15,10,16,11,16s2-1,2-2.5H9z"/>
			</g>
			<g>
				<ellipse fill="#D1473D" cx="11" cy="13.5" rx="1" ry="1.5"/>
			</g>
			<g>
				<path fill="#CF3C35" d="M10,13.5c0,0.828,0.448,1.5,1,1.5c0.552,0,1-0.672,1-1.5H10z"/>
			</g>
		</g>
		<g>
			<g>
				<ellipse fill="#F7F7F7" cx="21" cy="13.5" rx="2" ry="2.5"/>
			</g>
			<g>
				<path fill="#EDEEEE" d="M19,13.5c0,1.5,1,2.5,2,2.5s2-1,2-2.5H19z"/>
			</g>
			<g>
				<ellipse fill="#CF3C35" cx="21" cy="13.5" rx="1" ry="1.5"/>
			</g>
			<path fill="#C23734" d="M20,13.5c0,0.828,0.448,1.5,1,1.5s1-0.672,1-1.5H20z"/>
		</g>
		<path fill="#FAE09F" d="M7.947,5.605L7.368,4.447C7.245,4.2,6.944,4.1,6.697,4.224L5.362,4.891C5.196,4.974,5,4.854,5,4.668V1
			c0-0.552-0.448-1-1-1H1C0.448,0,0,0.448,0,1v7c0,0.552,0.448,1,1,1h1l1.145-1H4.71C4.9,8,5.085,7.946,5.245,7.845l2.533-1.601
			C7.987,6.105,8.06,5.831,7.947,5.605z"/>
		<polygon fill="#FAE09F" points="5,7 5,10 4,12 2,12 1,10 1,7 		"/>
		<polygon fill="#FAE09F" points="2,12 2,17 4,19 6,18 6,17 4,17 4,15 4,12 		"/>
		<path fill="#FFFFFF" d="M3.829,3.057l-2.5,0.833C1.167,3.944,1,3.824,1,3.653V1.25C1,1.112,1.112,1,1.25,1h2.5
			C3.888,1,4,1.112,4,1.25v1.57C4,2.927,3.931,3.023,3.829,3.057z"/>
		<path fill="#FFFFFF" d="M3.75,8h-2.5C1.112,8,1,7.888,1,7.75V5.18c0-0.108,0.069-0.203,0.171-0.237l2.5-0.833
			C3.833,4.056,4,4.176,4,4.347V7.75C4,7.888,3.888,8,3.75,8z"/>
		<g>
			<path fill="#F7D684" d="M24.053,5.605l0.579-1.158C24.755,4.2,25.056,4.1,25.303,4.224l1.336,0.668
				C26.804,4.974,27,4.854,27,4.668V1c0-0.552,0.448-1,1-1l3,0c0.552,0,1,0.448,1,1v7c0,0.552-0.448,1-1,1h-1l-1.145-1H27.29
				c-0.189,0-0.374-0.054-0.534-0.155l-2.533-1.601C24.013,6.105,23.94,5.831,24.053,5.605z"/>
			<polygon fill="#F7D684" points="27,7 27,10 28,12 30,12 31,10 31,7 			"/>
			<polygon fill="#F7D684" points="30,12 30,17 28,19 26,18 26,17 28,17 28,15 28,12 			"/>
			<path fill="#F7F7F7" d="M28.171,3.057l2.5,0.833C30.833,3.944,31,3.824,31,3.653V1.25C31,1.112,30.888,1,30.75,1h-2.5
				C28.112,1,28,1.112,28,1.25v1.57C28,2.927,28.069,3.023,28.171,3.057z"/>
			<path fill="#F7F7F7" d="M28.25,8h2.5C30.888,8,31,7.888,31,7.75V5.18c0-0.108-0.069-0.203-0.171-0.237l-2.5-0.833
				C28.167,4.056,28,4.176,28,4.347V7.75C28,7.888,28.112,8,28.25,8z"/>
		</g>
		<path fill="#373F3F" d="M8.27,20.217C8.132,19.592,8.607,19,9.247,19H16h6.753c0.64,0,1.115,0.592,0.976,1.217l-1.01,4.544
			C22.299,26.653,20.621,28,18.682,28H16h-2.682c-1.939,0-3.617-1.347-4.038-3.239L8.27,20.217z"/>
		<path fill="#434C4B" d="M16,28h-2.682c-1.939,0-3.617-1.347-4.038-3.239l-1.01-4.544C8.132,19.592,8.607,19,9.247,19H16V28z"/>
		<path fill="#F7F7F7" d="M20,28h-8c-0.552,0-1-0.448-1-1v-1c0-0.552,0.448-1,1-1h8c0.552,0,1,0.448,1,1v1
			C21,27.552,20.552,28,20,28z"/>
		<g>
			<path fill="#FFFFFF" d="M12,25c-0.552,0-1,0.448-1,1v1c0,0.552,0.448,1,1,1h4v-3H12z"/>
		</g>
		<path fill="#373F3F" d="M10.5,28L10.5,28c-0.276,0-0.5-0.224-0.5-0.5v-1c0-0.276,0.224-0.5,0.5-0.5h0c0.276,0,0.5,0.224,0.5,0.5v1
			C11,27.776,10.776,28,10.5,28z"/>
		<path fill="#2B3332" d="M21.5,28L21.5,28c-0.276,0-0.5-0.224-0.5-0.5v-1c0-0.276,0.224-0.5,0.5-0.5l0,0c0.276,0,0.5,0.224,0.5,0.5
			v1C22,27.776,21.776,28,21.5,28z"/>
		<g>
			<path fill="#F7F7F7" d="M13.241,15.641c-0.115-0.165,0.006-0.391,0.207-0.391c0,0,1.552,0.25,2.552,0.25s2.552-0.25,2.552-0.25
				c0.201,0,0.322,0.226,0.207,0.391C18.353,16.223,17.433,17,16,17S13.647,16.223,13.241,15.641z"/>
		</g>
		<g>
			<path fill="#FFFFFF" d="M16,17c-1.433,0-2.353-0.777-2.759-1.359c-0.115-0.165,0.006-0.391,0.207-0.391
				c0,0,1.552,0.25,2.552,0.25V17z"/>
		</g>
		<g>
			<path fill="none" d="M20.171,29l1.617,1.778C21.942,30.929,22.136,31,22.327,31c0.32,0,0.631-0.198,0.727-0.545
				C24.654,24.695,26.888,15.737,25,12c-0.877-1.735-3.208-2.715-7.109-2.945l-1.408-5.744C16.417,3.064,16.209,2.941,16,2.941V29
				H20.171z"/>
			<path fill="none" d="M15.517,3.312l-1.408,5.744C10.208,9.285,7.877,10.265,7,12c-1.888,3.737,0.454,12.695,2.054,18.455
				C9.15,30.802,9.461,31,9.781,31c0.191,0,0.385-0.071,0.538-0.222L11.937,29H16V2.941C15.791,2.941,15.583,3.064,15.517,3.312z"/>
			<path fill="#F7D684" d="M16,2.941c0.209,0,0.417,0.124,0.483,0.371l1.408,5.744C21.792,9.285,24.123,10.265,25,12
				c1.888,3.737-0.346,12.695-1.946,18.455C22.958,30.802,22.647,31,22.327,31c-0.191,0-0.385-0.071-0.538-0.222L20.171,29H16
				h-4.063l-1.617,1.778C10.166,30.929,9.972,31,9.781,31c-0.32,0-0.631-0.198-0.727-0.545C7.454,24.695,5.112,15.737,7,12
				c0.877-1.735,3.208-2.715,7.109-2.945l1.408-5.744C15.583,3.064,15.791,2.941,16,2.941 M16,1.941
				c-0.689,0-1.272,0.447-1.449,1.114l-1.24,5.057c-3.846,0.336-6.206,1.464-7.203,3.438C4.212,15.299,5.94,22.98,8.09,30.723
				C8.299,31.475,8.994,32,9.781,32c0.467,0,0.908-0.182,1.242-0.512l0.019-0.018l0.018-0.019L12.379,30H16h3.729l1.32,1.451
				l0.018,0.019l0.019,0.018C21.419,31.818,21.86,32,22.327,32c0.787,0,1.482-0.525,1.691-1.277
				c1.909-6.876,3.848-15.27,1.875-19.174c-0.997-1.974-3.358-3.102-7.203-3.438l-1.235-5.037C17.272,2.388,16.689,1.941,16,1.941
				L16,1.941z"/>
			<path fill="#FAE09F" d="M11.937,29l-1.617,1.778C10.166,30.929,9.972,31,9.781,31c-0.32,0-0.631-0.198-0.727-0.545
				C7.454,24.695,5.112,15.737,7,12c0.877-1.735,3.208-2.715,7.109-2.945l1.408-5.744C15.583,3.064,15.791,2.941,16,2.941v-1
				c-0.689,0-1.272,0.447-1.449,1.114l-1.24,5.057c-3.846,0.336-6.206,1.464-7.203,3.438C4.212,15.299,5.94,22.98,8.09,30.723
				C8.299,31.475,8.994,32,9.781,32c0.467,0,0.908-0.182,1.242-0.512l0.019-0.018l0.018-0.019L12.379,30H16v-1H11.937z"/>
		</g>
		<path fill="#2B3332" d="M23,27H9c-0.552,0-1-0.448-1-1v0c0-0.552,0.448-1,1-1h14c0.552,0,1,0.448,1,1v0C24,26.552,23.552,27,23,27
			z"/>
		<g>
			<path fill="#373F3F" d="M9,25c-0.552,0-1,0.448-1,1c0,0.552,0.448,1,1,1h7v-2H9z"/>
		</g>
	</g>
</g>
</svg>
