<?xml version="1.0" encoding="utf-8"?>
<!-- Generator: Adobe Illustrator 23.0.6, SVG Export Plug-In . SVG Version: 6.00 Build 0)  -->
<svg version="1.1" xmlns="http://www.w3.org/2000/svg" xmlns:xlink="http://www.w3.org/1999/xlink" x="0px" y="0px" width="32px"
	 height="32px" viewBox="0 0 32 32" enable-background="new 0 0 32 32" xml:space="preserve">
<g id="labels">
</g>
<g id="icons">
	<g>
		<path fill="#FAC4D1" d="M30.944,0.753L26.22,2.9c-0.139,0.063-0.241,0.186-0.278,0.334L25,7h3.657
			c0.207,0,0.392-0.127,0.467-0.321l2.157-5.609C31.361,0.861,31.148,0.66,30.944,0.753z"/>
		<path fill="#FBCFD6" d="M29.382,2.947l-2.309,8.774c-0.045,0.173-0.18,0.308-0.352,0.355L16,15V7l13.062-4.354
			C29.25,2.583,29.433,2.755,29.382,2.947z"/>
		<path fill="#2B3332" d="M25,11l-3,1c0,0,2,6,3,6S26.574,12.821,25,11z"/>
		<path fill="#373F3F" d="M19,11c0,1.657,1,3,3,3s3.5-1,3.5-3c0-1.657-1.5-4-3.5-4S19,9.343,19,11z"/>
		<g>
			<path fill="#FCD8DE" d="M24.996,12.421c0.086,0.117,0.262,0.144,0.37,0.046c1.138-1.035,1.215-2.954,0.133-4.425
				c-1.082-1.471-2.936-1.969-4.263-1.192c-0.126,0.074-0.153,0.25-0.067,0.367L24.996,12.421z"/>
			<g>
				<path fill="#E85160" d="M24.637,11.933l-0.154-0.21c0.65-0.768,1.199-1.788,1.576-2.592c0.054,0.16,0.097,0.322,0.129,0.484
					c0.001,0.007,0.004,0.015,0.005,0.022c0.028,0.147,0.044,0.293,0.054,0.438c0.002,0.037,0.005,0.073,0.006,0.11
					c0.005,0.131,0.003,0.261-0.007,0.39c-0.004,0.054-0.013,0.106-0.02,0.159c-0.015,0.115-0.03,0.23-0.057,0.341
					c-0.021,0.087-0.052,0.17-0.081,0.254c-0.038,0.114-0.082,0.225-0.134,0.332c-0.056,0.114-0.114,0.226-0.185,0.331
					c-0.034,0.051-0.076,0.098-0.114,0.147c-0.071,0.091-0.146,0.179-0.229,0.26c-0.026,0.026-0.056,0.049-0.084,0.074
					c-0.109,0.077-0.265,0.057-0.346-0.053L24.637,11.933z"/>
				<path fill="#E85160" d="M21.221,6.871c0.032-0.019,0.063-0.04,0.096-0.058c0.102-0.055,0.208-0.101,0.316-0.141
					c0.058-0.022,0.115-0.048,0.174-0.066c0.121-0.036,0.246-0.059,0.371-0.078c0.119-0.018,0.238-0.026,0.359-0.029
					c0.088-0.002,0.176-0.007,0.265-0.002c0.114,0.008,0.229,0.027,0.343,0.047c0.052,0.009,0.105,0.017,0.157,0.029
					c0.126,0.029,0.251,0.066,0.375,0.11c0.034,0.012,0.068,0.025,0.101,0.038c0.136,0.053,0.271,0.112,0.403,0.183
					c0.007,0.004,0.014,0.008,0.021,0.012c0.144,0.079,0.286,0.167,0.423,0.267c-0.88,0.12-2.017,0.34-2.944,0.731l-0.513-0.697
					C21.088,7.107,21.115,6.952,21.221,6.871z"/>
			</g>
			<path fill="#E85160" d="M22.581,9.137l2.659-1.391c0.088,0.098,0.18,0.188,0.26,0.296c0.065,0.089,0.112,0.184,0.169,0.276
				l-2.094,2.169L22.581,9.137z"/>
		</g>
		<path fill="#FCD8DE" d="M26.517,17.96c0.097,0,0.194-0.028,0.28-0.086c0.229-0.155,0.289-0.466,0.134-0.694l-4.047-5.977
			c-0.155-0.229-0.467-0.288-0.694-0.134c-0.229,0.155-0.289,0.466-0.134,0.694l4.047,5.977
			C26.199,17.883,26.356,17.96,26.517,17.96z"/>
		<path fill="#FDE2E6" d="M26.517,19.46c0.097,0,0.194-0.028,0.28-0.086c0.229-0.155,0.289-0.466,0.134-0.694l-4.047-5.977
			c-0.155-0.228-0.467-0.288-0.694-0.134c-0.229,0.155-0.289,0.466-0.134,0.694l4.047,5.977
			C26.199,19.383,26.356,19.46,26.517,19.46z"/>
		<path fill="#FDECEF" d="M26.517,20.96c0.097,0,0.194-0.028,0.28-0.086c0.229-0.155,0.289-0.466,0.134-0.694l-4.047-5.977
			c-0.155-0.228-0.467-0.287-0.694-0.134c-0.229,0.155-0.289,0.466-0.134,0.694l4.047,5.977
			C26.199,20.883,26.356,20.96,26.517,20.96z"/>
		<path fill="#373F3F" d="M7,11l3,1c0,0-2,6-3,6S5.426,12.821,7,11z"/>
		<path fill="#FBCFD6" d="M1.056,0.753L5.78,2.9c0.139,0.063,0.241,0.186,0.278,0.334L7,7H3.343C3.137,7,2.951,6.873,2.877,6.679
			L0.719,1.07C0.639,0.861,0.852,0.66,1.056,0.753z"/>
		<path fill="#FCD8DE" d="M2.618,2.947l2.309,8.774c0.045,0.173,0.18,0.308,0.352,0.355L16,15V7L2.938,2.646
			C2.75,2.583,2.567,2.755,2.618,2.947z"/>
		<path fill="#434C4B" d="M13,11c0,1.657-1,3-3,3s-3.5-1-3.5-3C6.5,9.343,8,7,10,7S13,9.343,13,11z"/>
		<g>
			<path fill="#FDE2E6" d="M7.004,12.421c-0.086,0.117-0.262,0.144-0.37,0.046c-1.138-1.035-1.215-2.954-0.133-4.425
				C7.583,6.57,9.437,6.072,10.764,6.85c0.126,0.074,0.153,0.25,0.067,0.367L7.004,12.421z"/>
			<g>
				<path fill="#F3586F" d="M7.363,11.933l0.154-0.21c-0.65-0.768-1.199-1.788-1.576-2.592c-0.054,0.16-0.097,0.322-0.129,0.484
					C5.812,9.622,5.809,9.63,5.808,9.637C5.78,9.784,5.764,9.93,5.754,10.075c-0.002,0.037-0.005,0.073-0.006,0.11
					c-0.005,0.131-0.003,0.261,0.007,0.39c0.004,0.054,0.013,0.106,0.02,0.159c0.015,0.115,0.03,0.23,0.057,0.341
					c0.021,0.087,0.052,0.17,0.081,0.254c0.038,0.114,0.082,0.225,0.134,0.332c0.056,0.114,0.114,0.226,0.185,0.331
					c0.034,0.051,0.076,0.098,0.114,0.147c0.071,0.091,0.146,0.179,0.229,0.26c0.026,0.026,0.056,0.049,0.084,0.074
					c0.109,0.077,0.265,0.057,0.346-0.053L7.363,11.933z"/>
				<path fill="#F3586F" d="M10.779,6.871c-0.032-0.019-0.063-0.04-0.096-0.058c-0.102-0.055-0.208-0.101-0.316-0.141
					c-0.058-0.022-0.115-0.048-0.174-0.066C10.071,6.57,9.947,6.548,9.821,6.529C9.703,6.511,9.583,6.502,9.462,6.5
					C9.374,6.497,9.286,6.492,9.197,6.498C9.083,6.506,8.968,6.525,8.854,6.545C8.802,6.554,8.749,6.562,8.697,6.574
					C8.571,6.603,8.446,6.64,8.322,6.684C8.288,6.696,8.254,6.709,8.22,6.722C8.084,6.775,7.949,6.834,7.818,6.904
					C7.811,6.908,7.804,6.913,7.797,6.917C7.652,6.995,7.511,7.084,7.374,7.183c0.88,0.12,2.017,0.34,2.944,0.731l0.513-0.697
					C10.912,7.107,10.885,6.952,10.779,6.871z"/>
			</g>
			<path fill="#F3586F" d="M9.419,9.137L6.761,7.745c-0.088,0.098-0.18,0.188-0.26,0.296C6.435,8.131,6.389,8.226,6.332,8.318
				l2.094,2.169L9.419,9.137z"/>
		</g>
		<path fill="#FCD8DE" d="M5.483,17.96c-0.097,0-0.194-0.028-0.28-0.086C4.975,17.72,4.915,17.409,5.07,17.18l4.047-5.977
			c0.155-0.229,0.467-0.288,0.694-0.134c0.229,0.155,0.289,0.466,0.134,0.694l-4.047,5.977C5.801,17.883,5.644,17.96,5.483,17.96z"
			/>
		<path fill="#FDE2E6" d="M5.483,19.46c-0.097,0-0.194-0.028-0.28-0.086C4.975,19.22,4.915,18.909,5.07,18.68l4.047-5.977
			c0.155-0.228,0.467-0.288,0.694-0.134c0.229,0.155,0.289,0.466,0.134,0.694l-4.047,5.977C5.801,19.383,5.644,19.46,5.483,19.46z"
			/>
		<path fill="#FDECEF" d="M5.483,20.96c-0.097,0-0.194-0.028-0.28-0.086C4.975,20.72,4.915,20.409,5.07,20.18l4.047-5.977
			c0.155-0.228,0.467-0.287,0.694-0.134c0.229,0.155,0.289,0.466,0.134,0.694l-4.047,5.977C5.801,20.883,5.644,20.96,5.483,20.96z"
			/>
		<path fill="#2B3332" d="M11.961,12.96l-1.304,5.389c-0.095,0.394,0.056,0.806,0.384,1.044l4.371,3.179
			c0.351,0.255,0.826,0.255,1.176,0l4.366-3.175c0.33-0.24,0.481-0.656,0.382-1.051L20,13L11.961,12.96z"/>
		<g>
			<path fill="#373F3F" d="M11.961,12.96l-1.304,5.389c-0.095,0.394,0.056,0.806,0.384,1.044l4.371,3.179
				c0.175,0.128,0.382,0.191,0.588,0.191V12.98L11.961,12.96z"/>
		</g>
		<path fill="#373F3F" d="M11.961,12.96l-0.686,2.836l4.137,3.009c0.351,0.255,0.826,0.255,1.176,0l4.115-2.993L20,13L11.961,12.96z
			"/>
		<g>
			<path fill="#434C4B" d="M11.961,12.96l-0.686,2.836l4.137,3.009c0.175,0.128,0.382,0.191,0.588,0.191V12.98L11.961,12.96z"/>
		</g>
		<path fill="#FCD8DE" d="M14,5l-2.707,2.707C11.105,7.895,11,8.149,11,8.414v5.065c0,0.326,0.159,0.632,0.427,0.819l3.427,2.399
			c0.689,0.482,1.605,0.482,2.294,0l3.427-2.399C20.841,14.111,21,13.806,21,13.479V8.414c0-0.265-0.105-0.52-0.293-0.707L18,5H14z"
			/>
		<g>
			<path fill="#FDE2E6" d="M14,5l-2.707,2.707C11.105,7.895,11,8.149,11,8.414v5.065c0,0.326,0.159,0.632,0.427,0.819l3.427,2.399
				c0.344,0.241,0.746,0.362,1.147,0.362V5H14z"/>
		</g>
		<g>
			<path fill="#E85160" d="M18.01,5.098l0.91,4.551c0.028,0.143-0.006,0.29-0.095,0.405L16.79,12.67
				c-0.382,0.491-1.197,0.491-1.579,0l-2.035-2.616c-0.089-0.115-0.124-0.263-0.096-0.405l0.91-4.551l-0.074-0.015l-1.179,1.179
				L12.1,9.453c-0.085,0.427,0.019,0.87,0.287,1.215l2.035,2.616c0.381,0.491,0.957,0.772,1.579,0.772s1.197-0.281,1.579-0.772
				l2.036-2.617c0.268-0.345,0.372-0.788,0.286-1.215l-0.638-3.191l-1.179-1.179L18.01,5.098z"/>
			<path fill="#F3586F" d="M15.21,12.67l-2.035-2.616c-0.089-0.115-0.124-0.263-0.096-0.405l0.91-4.551l-0.074-0.015l-1.179,1.179
				L12.1,9.453c-0.085,0.427,0.019,0.87,0.287,1.215l2.035,2.616c0.381,0.491,0.957,0.772,1.579,0.772v-1.018
				C15.701,13.039,15.401,12.916,15.21,12.67z"/>
		</g>
		<path fill="#FCD8DE" d="M6,27l-1.758,4.311C4.108,31.64,4.35,32,4.705,32h5.55c0.356,0,0.598-0.361,0.463-0.69L8.949,27H6z"/>
		<path fill="#FDE2E6" d="M11,18.5c-2,0-6,4.5-6,7.5c0,2,2,3,3,3c2,0,3-1,3-3S11,18.5,11,18.5z"/>
		<path fill="#FBCFD6" d="M26,27l1.758,4.311C27.892,31.64,27.65,32,27.295,32h-5.55c-0.356,0-0.598-0.361-0.463-0.69L23.051,27H26z
			"/>
		<path fill="#FCD8DE" d="M21,18.5c2,0,6,4.5,6,7.5c0,2-2,3-3,3c-2,0-3-1-3-3S21,18.5,21,18.5z"/>
		<path fill="#FCD8DE" d="M10.868,18.049L16,22.155l5.141-4.048c0.158-0.115,0.38-0.013,0.396,0.181L22,26.5c0,0-3,4-6,4s-6-4-6-4
			l0.47-8.271C10.486,18.034,10.71,17.933,10.868,18.049z"/>
		<path fill="#FDE2E6" d="M16,30.5c-3,0-6-4-6-4l0.47-8.271c0.016-0.195,0.24-0.297,0.398-0.18L16,22.155V30.5z"/>
		<g>
			<path fill="#FDE2E6" d="M16,2c2,0,4,1,4,1l-0.938,3.752c-0.039,0.156-0.15,0.283-0.299,0.343l-1.814,0.726
				c-0.616,0.205-1.282,0.205-1.897,0l-1.814-0.726c-0.149-0.06-0.26-0.187-0.299-0.343L12,3C12,3,13.957,2,16,2z"/>
			<g>
				<path fill="#FDECEF" d="M12,3l0.938,3.752c0.039,0.156,0.15,0.283,0.299,0.343l1.814,0.726C15.359,7.924,15.68,7.975,16,7.975V2
					C13.957,2,12,3,12,3z"/>
			</g>
		</g>
		<path fill="#E85160" d="M13,3l0.465,2.791C13.485,5.912,13.59,6,13.712,6h4.576c0.122,0,0.227-0.088,0.247-0.209L19,3H13z"/>
		<path fill="#F3586F" d="M13.293,4.755C14.006,4.92,14.952,5.023,16,5.023s1.994-0.103,2.707-0.268L19,3h-6L13.293,4.755z"/>
		<ellipse fill="#373F3F" cx="14" cy="4" rx="0.5" ry="1"/>
		<ellipse fill="#2B3332" cx="18" cy="4" rx="0.5" ry="1"/>
		<ellipse fill="#FDECEF" cx="16" cy="3" rx="4" ry="1"/>
		<path fill="#FEF5F7" d="M16,2c-2.209,0-4,0.448-4,1s1.791,1,4,1V2z"/>
		<circle fill="#FEF5F7" cx="13" cy="7" r="1"/>
		<circle fill="#FDECEF" cx="19" cy="7" r="1"/>
		<path fill="#F3586F" d="M11.001,29c-0.037,0-0.074-0.002-0.112-0.006c-0.549-0.061-0.944-0.555-0.883-1.104l1-9
			c0.061-0.549,0.557-0.949,1.104-0.883c0.549,0.061,0.944,0.555,0.883,1.104l-1,9C11.937,28.622,11.504,29,11.001,29z"/>
		<path fill="#E85160" d="M20.999,29c-0.502,0-0.936-0.378-0.992-0.89l-1-9c-0.061-0.549,0.334-1.043,0.883-1.104
			c0.546-0.067,1.043,0.333,1.104,0.883l1,9c0.061,0.549-0.334,1.043-0.883,1.104C21.073,28.998,21.036,29,20.999,29z"/>
		<path fill="#E85160" d="M16,32c-0.552,0-1-0.448-1-1V21c0-0.552,0.448-1,1-1s1,0.448,1,1v10C17,31.552,16.552,32,16,32z"/>
		<path fill="#F3586F" d="M16,32c-0.552,0-1-0.448-1-1V21c0-0.552,0.448-1,1-1V32z"/>
		<path fill="#FDE2E6" d="M3.59,32c-0.34,0-0.579-0.328-0.478-0.653C3.292,30.763,3.764,30,5,30s1.708,0.763,1.888,1.347
			C6.989,31.672,6.75,32,6.41,32H3.59z"/>
		<path fill="#FDE2E6" d="M7.678,32C7.339,32,7.1,31.672,7.2,31.347C7.381,30.763,7.853,30,9.089,30s1.708,0.763,1.888,1.347
			c0.1,0.325-0.139,0.653-0.478,0.653H7.678z"/>
		<path fill="#FDECEF" d="M5.501,32c-0.34,0-0.579-0.328-0.478-0.653C5.204,30.763,5.676,30,6.911,30s1.708,0.763,1.888,1.347
			C8.9,31.672,8.661,32,8.322,32H5.501z"/>
		<path fill="#FCD8DE" d="M21.501,32c-0.34,0-0.579-0.328-0.478-0.653C21.204,30.763,21.676,30,22.911,30s1.708,0.763,1.888,1.347
			C24.9,31.672,24.661,32,24.322,32H21.501z"/>
		<path fill="#FCD8DE" d="M25.413,32c-0.34,0-0.579-0.328-0.478-0.653C25.115,30.763,25.587,30,26.823,30
			c1.236,0,1.708,0.763,1.888,1.347c0.1,0.325-0.139,0.653-0.478,0.653H25.413z"/>
		<path fill="#FDE2E6" d="M23.324,32c-0.34,0-0.579-0.328-0.478-0.653C23.027,30.763,23.499,30,24.734,30
			c1.236,0,1.708,0.763,1.888,1.347c0.1,0.325-0.139,0.653-0.478,0.653H23.324z"/>
		<path fill="#FDECEF" d="M15.76,5.819L15,3.16h2l-0.76,2.659C16.171,6.06,15.829,6.06,15.76,5.819z"/>
		<g>
			<path fill="#FEF5F7" d="M15,3.16l0.76,2.659C15.794,5.94,15.897,6,16,6V3.16H15z"/>
		</g>
	</g>
</g>
</svg>
