<?xml version="1.0" encoding="utf-8"?>
<!-- Generator: Adobe Illustrator 23.0.6, SVG Export Plug-In . SVG Version: 6.00 Build 0)  -->
<svg version="1.1" xmlns="http://www.w3.org/2000/svg" xmlns:xlink="http://www.w3.org/1999/xlink" x="0px" y="0px" width="32px"
	 height="32px" viewBox="0 0 32 32" enable-background="new 0 0 32 32" xml:space="preserve">
<g id="labels">
</g>
<g id="icons">
	<g>
		<path fill="#71B1E1" d="M13.839,28.965l1.719,2.813c0.198,0.325,0.672,0.318,0.861-0.013L18,29L13.839,28.965z"/>
		<g>
			<path fill="#7FB8E0" d="M13.839,28.965l1.719,2.813c0.101,0.165,0.272,0.242,0.441,0.237v-3.032L13.839,28.965z"/>
		</g>
		<path fill="#8EC0E0" d="M15,2c0,0,1.038-2,5.11-2C27.928,0,32,13.199,32,23.134C32,23.704,32,25,31,25s-1-2-1-2s0,2-1,2s-1-1-1-2
			c0-10-0.807-15.138-3-18c-3.831-5-7-3-7-3H15z"/>
		<path fill="#7FB8E0" d="M11.777,20c-3,2-9.22,6.369-11.22,8.369c-1.581,1.581,0.22,6,5.22,2s6-8.369,6-8.369V20z"/>
		<path fill="#71B1E1" d="M20.223,20c3,2,9.22,6.369,11.22,8.369c1.581,1.581-0.22,6-5.22,2s-6-8.369-6-8.369V20z"/>
		<circle fill="#71B1E1" cx="16" cy="25" r="5"/>
		<path fill="#7FB8E0" d="M16,30c-2.761,0-5-2.239-5-5s2.239-5,5-5V30z"/>
		<path fill="#8EC0E0" d="M26,16c0,5.263-4.477,8-10,8S6,21.263,6,16S10.477,5,16,5S26,10.737,26,16z"/>
		<path fill="#9FC9E4" d="M16,24c-5.523,0-10-2.737-10-8S10.477,5,16,5V24z"/>
		<path fill="#FF7898" d="M14.282,19H16h1.718c0.16,0,0.277,0.146,0.245,0.302C17.86,19.803,17.47,21,15.994,21
			c-1.468,0-1.856-1.198-1.958-1.698C14.005,19.146,14.122,19,14.282,19z"/>
		<path fill="#FF87A4" d="M15.994,21c-1.468,0-1.856-1.198-1.958-1.698C14.005,19.146,14.122,19,14.282,19H16L15.994,21z"/>
		<ellipse fill="#8EC0E0" cx="16" cy="4" rx="5" ry="3"/>
		<path fill="#9FC9E4" d="M16,7c-2.761,0-5-1.343-5-3s2.239-3,5-3V7z"/>
		<ellipse fill="#2B3332" cx="20.5" cy="16" rx="2.5" ry="3"/>
		<circle fill="#FFFFFF" cx="20.5" cy="15.5" r="0.5"/>
		<ellipse fill="#373F3F" cx="11.5" cy="16" rx="2.5" ry="3"/>
		<circle fill="#FFFFFF" cx="11.5" cy="15.5" r="0.5"/>
		<ellipse fill="#C84054" cx="16" cy="27" rx="1" ry="2"/>
		<path fill="#D84459" d="M16,29c-0.552,0-1-0.895-1-2s0.448-2,1-2V29z"/>
		<g>
			<path fill="#8EC0E0" d="M6.569,19c1.373,3.299,5.077,5,9.431,5v-2C12.642,22,9,21,6.569,19z"/>
			<path fill="#7FB8E0" d="M16,22v2c4.354,0,8.058-1.701,9.431-5C23,21,19.358,22,16,22z"/>
		</g>
		<path fill="#4896C8" d="M20.5,13c-0.102,0-0.199,0.022-0.298,0.036l-0.663-1.458C19.822,11.305,20,10.924,20,10.5
			C20,9.672,19.328,9,18.5,9S17,9.672,17,10.5s0.672,1.5,1.5,1.5c0.043,0,0.084-0.009,0.127-0.013l0.643,1.416
			C18.515,13.919,18,14.883,18,16c0,1.657,1.119,3,2.5,3c1.381,0,2.5-1.343,2.5-3S21.881,13,20.5,13z M20.5,18
			c-0.813,0-1.5-0.916-1.5-2s0.687-2,1.5-2c0.813,0,1.5,0.916,1.5,2S21.313,18,20.5,18z"/>
		<path fill="#529CCF" d="M13.5,12c0.828,0,1.5-0.672,1.5-1.5S14.328,9,13.5,9S12,9.672,12,10.5c0,0.424,0.178,0.805,0.461,1.078
			l-0.663,1.458C11.699,13.022,11.602,13,11.5,13C10.119,13,9,14.343,9,16s1.119,3,2.5,3c1.381,0,2.5-1.343,2.5-3
			c0-1.117-0.515-2.081-1.27-2.597l0.643-1.416C13.416,11.991,13.457,12,13.5,12z M11.5,18c-0.813,0-1.5-0.916-1.5-2s0.687-2,1.5-2
			c0.813,0,1.5,0.916,1.5,2S12.313,18,11.5,18z"/>
	</g>
</g>
</svg>
