<?xml version="1.0" encoding="utf-8"?>
<!-- Generator: Adobe Illustrator 23.0.6, SVG Export Plug-In . SVG Version: 6.00 Build 0)  -->
<svg version="1.1" xmlns="http://www.w3.org/2000/svg" xmlns:xlink="http://www.w3.org/1999/xlink" x="0px" y="0px" width="32px"
	 height="32px" viewBox="0 0 32 32" enable-background="new 0 0 32 32" xml:space="preserve">
<g id="labels">
</g>
<g id="icons">
	<g>
		<path fill="#505957" d="M15.293,16.707l-1.586,1.586c-0.391,0.391-0.391,1.024,0,1.414l1.586,1.586
			c0.391,0.391,1.024,0.391,1.414,0l1.586-1.586c0.391-0.391,0.391-1.024,0-1.414l-1.586-1.586
			C16.317,16.317,15.683,16.317,15.293,16.707z"/>
		<g>
			<path fill="#5C6664" d="M15.293,16.707l-1.586,1.586c-0.391,0.391-0.391,1.024,0,1.414l1.586,1.586
				c0.195,0.195,0.451,0.293,0.707,0.293v-5.172C15.744,16.414,15.488,16.512,15.293,16.707z"/>
		</g>
		<circle fill="#505957" cx="16" cy="9" r="3"/>
		<path fill="#5C6664" d="M16,12c-1.657,0-3-1.343-3-3s1.343-3,3-3V12z"/>
		<ellipse fill="#7CD8D5" cx="14.5" cy="8" rx="0.5" ry="1"/>
		<ellipse fill="#7CD8D5" cx="17.5" cy="8" rx="0.5" ry="1"/>
		<path fill="#EDEEEE" d="M16,8c0.981,0,1.853-0.314,2.4-0.8C17.853,6.471,16.981,6,16,6s-1.853,0.471-2.4,1.2
			C14.147,7.686,15.019,8,16,8z"/>
		<path fill="#F7F7F7" d="M16,6c-0.981,0-1.853,0.471-2.4,1.2C14.147,7.686,15.019,8,16,8V6z"/>
		<path fill="#687271" d="M16,18c-1,0-5-2-5-5c0-2.209,1.686-4,5-4V18z"/>
		<path fill="#D1473D" d="M13,9l0.987,2.962C13.996,11.987,14,12.014,14,12.041v0.9c0,0.039-0.009,0.077-0.026,0.112L13.31,14.38
			c-0.153,0.305-0.559,0.371-0.801,0.13L11,13C11,12,11,10,13,9z"/>
		<path fill="#5C6664" d="M16,18c1,0,5-2,5-5c0-2.209-1.686-4-5-4V18z"/>
		<path fill="#F7F7F7" d="M13.044,8.504l0.681,0.681c0.087,0.087,0.233,0.01,0.211-0.111l-0.343-1.886
			C13.313,7.568,13.12,8.017,13.044,8.504z"/>
		<path fill="#F7F7F7" d="M13.044,8.504C12.727,6.774,14.558,0,16,0v7.007L14,7L13.044,8.504z"/>
		<path fill="#CF3C35" d="M18.996,9l-0.987,2.962c-0.008,0.025-0.013,0.052-0.013,0.079v0.9c0,0.039,0.009,0.077,0.026,0.112
			l0.663,1.327c0.153,0.305,0.559,0.371,0.801,0.13L20.996,13C20.996,12,20.996,10,18.996,9z"/>
		<path fill="#EDEEEE" d="M18.952,8.504l-0.681,0.681c-0.087,0.087-0.233,0.01-0.211-0.111l0.343-1.886
			C18.683,7.568,18.876,8.017,18.952,8.504z"/>
		<path fill="#EDEEEE" d="M18.939,8.504C19.256,6.774,17.442,0,16,0v7.007L17.983,7L18.939,8.504z"/>
		<g>
			<path fill="#F7F7F7" d="M15,7.309l0.776,1.553C15.822,8.954,15.911,9,16,9V7.309H15z"/>
			<path fill="#EDEEEE" d="M16,7.309V9c0.089,0,0.178-0.046,0.224-0.138L17,7.309H16z"/>
		</g>
		<path fill="#D1473D" d="M16.354,10.354c-0.195-0.195-0.512-0.195-0.707,0l-1.573,1.573C14.026,11.974,14,12.037,14,12.104v0.821
			c0,0.049,0.015,0.098,0.042,0.139l1.542,2.313c0.198,0.297,0.634,0.297,0.832,0l1.542-2.313C17.985,13.022,18,12.974,18,12.924
			v-0.821c0-0.066-0.026-0.13-0.073-0.177L16.354,10.354z"/>
		<g>
			<path fill="#D64F45" d="M15.646,10.354l-1.573,1.573C14.026,11.974,14,12.037,14,12.104v0.821c0,0.049,0.015,0.098,0.042,0.139
				l1.542,2.313c0.099,0.148,0.257,0.223,0.416,0.223v-5.391C15.872,10.207,15.744,10.256,15.646,10.354z"/>
		</g>
		<path fill="#5C6664" d="M24.52,29.517c0.14,0.21,0.471,0.103,0.459-0.15c-0.294-6.053-3.697-9.131-8.973-9.131
			c-5.276,0-8.691,3.078-8.986,9.131c-0.012,0.252,0.319,0.36,0.459,0.15l1.442-2.163c0.03-0.045,0.099-0.033,0.113,0.019
			l0.844,3.355c0.051,0.204,0.316,0.257,0.442,0.089l2.63-3.507c0.027-0.035,0.08-0.033,0.103,0.005l2.788,4.566
			c0.098,0.161,0.333,0.159,0.429-0.003l2.688-4.56c0.023-0.038,0.077-0.041,0.104-0.006l2.628,3.504
			c0.126,0.169,0.392,0.115,0.443-0.09l0.833-3.352c0.013-0.053,0.083-0.065,0.113-0.02L24.52,29.517z"/>
		<g>
			<path fill="#687271" d="M7.021,29.367c-0.012,0.252,0.319,0.36,0.459,0.15l1.442-2.163c0.03-0.045,0.099-0.033,0.113,0.019
				l0.844,3.355c0.051,0.204,0.316,0.257,0.442,0.089l2.63-3.507c0.027-0.035,0.08-0.033,0.103,0.005l2.788,4.566
				c0.038,0.062,0.096,0.099,0.158,0.113V20.236C10.728,20.238,7.315,23.316,7.021,29.367z"/>
		</g>
		<ellipse fill="#757F7E" cx="10" cy="13" rx="2" ry="3"/>
		<g>
			<path fill="#757F7E" d="M10,10c-2,0-2,2-3,2c-2,0-1-2-3-2S2,9,1,9c-1.598,0-0.994,2.96,0,2.96c3,0,1,4.04,3,4.04c1,0,1-1,3-1
				c1,0,1,1,3,1S10,10,10,10z"/>
			<path fill="#757F7E" d="M8,14c0,0,1.702,0.599,2,1c-2.875,2.875-2.995,6.669-3,10.501C7,25.776,6.777,26,6.501,26H4.502
				C4.224,26,4,25.781,4.002,25.503C4.02,23.034,4.564,16.333,8,14z"/>
		</g>
		<g>
			<ellipse fill="#687271" cx="22.015" cy="13" rx="2" ry="3"/>
			<g>
				<path fill="#687271" d="M22.015,10c2,0,2,2,3,2c2,0,1-2,3-2s2-1,3-1c1.598,0,0.994,2.96,0,2.96c-3,0-1,4.04-3,4.04c-1,0-1-1-3-1
					c-1,0-1,1-3,1S22.015,10,22.015,10z"/>
				<path fill="#687271" d="M24.015,14c0,0-1.702,0.599-2,1c2.875,2.875,2.995,6.669,3,10.501c0,0.276,0.224,0.499,0.499,0.499
					h1.999c0.278,0,0.503-0.219,0.501-0.497C27.995,23.034,27.451,16.333,24.015,14z"/>
			</g>
		</g>
	</g>
</g>
</svg>
