<?xml version="1.0" encoding="utf-8"?>
<!-- Generator: Adobe Illustrator 23.0.6, SVG Export Plug-In . SVG Version: 6.00 Build 0)  -->
<svg version="1.1" xmlns="http://www.w3.org/2000/svg" xmlns:xlink="http://www.w3.org/1999/xlink" x="0px" y="0px" width="32px"
	 height="32px" viewBox="0 0 32 32" enable-background="new 0 0 32 32" xml:space="preserve">
<g id="labels">
</g>
<g id="icons">
	<g>
		<path fill="#EDEEEE" d="M15.246,8.5l-3.12,1.783c-0.168,0.096-0.168,0.338,0,0.434l3.12,1.783V8.5z"/>
		<path fill="#EDEEEE" d="M12.126,12.283l3.12-1.783v4l-3.12-1.783C11.958,12.621,11.958,12.379,12.126,12.283z"/>
		<path fill="#E3E5E5" d="M16.754,8.5l3.12,1.783c0.168,0.096,0.168,0.338,0,0.434l-3.12,1.783V8.5z"/>
		<path fill="#E3E5E5" d="M19.874,12.283l-3.12-1.783v4l3.12-1.783C20.042,12.621,20.042,12.379,19.874,12.283z"/>
		<path fill="#EDEEEE" d="M14,5.018l1.765-4.854c0.08-0.219,0.39-0.219,0.47,0L18,5.018H14z"/>
		<g>
			<path fill="#F7F7F7" d="M15.765,0.165L14,5.018h2V0C15.902,0,15.805,0.055,15.765,0.165z"/>
		</g>
		<path fill="#DD564C" d="M2.438,30c0.101,0,0.202-0.03,0.29-0.093l10.5-7.5c0.225-0.16,0.277-0.473,0.116-0.697
			c-0.161-0.224-0.474-0.276-0.697-0.116l-10.5,7.5c-0.225,0.16-0.277,0.473-0.116,0.697C2.128,29.927,2.282,30,2.438,30z"/>
		<path fill="#DD564C" d="M13,18.46c0.147,0,0.292-0.064,0.391-0.188c0.173-0.215,0.138-0.53-0.078-0.703L2.75,9.11
			C2.534,8.936,2.22,8.972,2.047,9.188C1.875,9.403,1.909,9.718,2.125,9.89l10.562,8.46C12.78,18.425,12.89,18.46,13,18.46z"/>
		<path fill="#DD564C" d="M8.896,29.46c0.187,0,0.366-0.105,0.452-0.285c0.119-0.249,0.013-0.547-0.236-0.666
			C5.246,26.667,2.938,23.486,2.938,20c0-3.478,2.412-6.76,6.294-8.565c0.25-0.117,0.359-0.414,0.243-0.665
			c-0.117-0.25-0.414-0.358-0.665-0.243C4.571,12.499,1.937,16.128,1.937,20c0,3.882,2.521,7.4,6.744,9.412
			C8.75,29.445,8.824,29.46,8.896,29.46z"/>
		<path fill="#D64F45" d="M29.5,30c-0.101,0-0.202-0.03-0.29-0.093l-10.5-7.5c-0.225-0.16-0.277-0.473-0.116-0.697
			c0.161-0.224,0.474-0.276,0.697-0.116l10.5,7.5c0.225,0.16,0.277,0.473,0.116,0.697C29.809,29.927,29.656,30,29.5,30z"/>
		<path fill="#D64F45" d="M18.938,18.46c-0.147,0-0.292-0.064-0.391-0.188c-0.173-0.215-0.138-0.53,0.078-0.703l10.562-8.46
			c0.216-0.174,0.53-0.138,0.703,0.078c0.173,0.215,0.138,0.53-0.078,0.703l-10.562,8.46C19.158,18.425,19.047,18.46,18.938,18.46z"
			/>
		<g>
			<path fill="#EDEEEE" d="M9.184,18.805L12.104,18v2.965l-2.978-1.702C8.933,19.153,8.969,18.864,9.184,18.805z"/>
			<path fill="#EDEEEE" d="M14.007,16.96v2.023l-1.023,3.023l-1.953,0c0,0-0.372-2.279,0.477-4c0.453-0.919,1.616-1.047,1.616-1.047
				H14.007z"/>
			<path fill="#EDEEEE" d="M15,24l-3-3l-2.4,1.8c-0.8,0.6-0.8,1.8,0,2.4l0,0c0.256,0.192,0.407,0.494,0.407,0.814v5.736
				c0,0.138,0.112,0.25,0.25,0.25h2.5c0.138,0,0.25-0.112,0.25-0.25v-4.004c0-1.122,0.446-2.199,1.239-2.992L15,24z"/>
			<path fill="#DD564C" d="M11.354,24.582l-0.824,3.297c-0.02,0.08-0.02,0.163,0,0.243l0.824,3.297c0.038,0.151,0.253,0.151,0.291,0
				l0.824-3.297c0.02-0.08,0.02-0.163,0-0.243l-0.824-3.297C11.608,24.431,11.392,24.431,11.354,24.582z"/>
		</g>
		<g>
			<path fill="#E3E5E5" d="M22.816,18.805L19.896,18v2.965l2.978-1.702C23.067,19.153,23.031,18.864,22.816,18.805z"/>
			<path fill="#E3E5E5" d="M17.993,16.96v2.023l1.023,3.023l1.953,0c0,0,0.372-2.279-0.477-4c-0.453-0.919-1.616-1.047-1.616-1.047
				H17.993z"/>
			<path fill="#E3E5E5" d="M17,24l3-3l2.4,1.8c0.8,0.6,0.8,1.8,0,2.4l0,0c-0.256,0.192-0.407,0.494-0.407,0.814v5.736
				c0,0.138-0.112,0.25-0.25,0.25h-2.5c-0.138,0-0.25-0.112-0.25-0.25v-4.004c0-1.122-0.446-2.199-1.239-2.992L17,24z"/>
			<path fill="#D64F45" d="M20.646,24.582l0.824,3.297c0.02,0.08,0.02,0.163,0,0.243l-0.824,3.297c-0.038,0.151-0.253,0.151-0.291,0
				l-0.824-3.297c-0.02-0.08-0.02-0.163,0-0.243l0.824-3.297C20.392,24.431,20.608,24.431,20.646,24.582z"/>
		</g>
		<path fill="#D64F45" d="M23.042,29.46c-0.187,0-0.366-0.105-0.452-0.285c-0.119-0.249-0.013-0.547,0.236-0.666
			C26.692,26.667,29,23.486,29,20c0-3.478-2.412-6.76-6.294-8.565c-0.25-0.117-0.359-0.414-0.243-0.665
			c0.117-0.25,0.414-0.358,0.665-0.243C27.367,12.499,30,16.128,30,20c0,3.882-2.521,7.4-6.744,9.412
			C23.187,29.445,23.114,29.46,23.042,29.46z"/>
		<path fill="#E3E5E5" d="M18.685,16.168L18,9h-4l-0.685,7.167c-0.109,0.979-0.525,1.889-1.157,2.645
			c-0.895,1.072-1.351,2.521-1.081,4.081c0.342,1.967,1.893,3.59,3.848,3.996C18.157,27.56,21,25.112,21,22
			c0-1.236-0.452-2.364-1.197-3.234C19.176,18.033,18.792,17.126,18.685,16.168z"/>
		<g>
			<path fill="#EDEEEE" d="M14,9l-0.685,7.167c-0.109,0.979-0.525,1.889-1.157,2.645c-0.895,1.072-1.351,2.522-1.081,4.081
				c0.342,1.967,1.893,3.589,3.848,3.996c0.365,0.076,0.723,0.107,1.074,0.107V9H14z"/>
		</g>
		<circle fill="#E3E5E5" cx="16" cy="22" r="4"/>
		<path fill="#DADDDC" d="M16.007,26c2.209,0,4-1.791,4-4s-1.791-4-4-4V26z"/>
		<path fill="#76260D" d="M17.814,17.881l-0.779-5.632c-0.014-0.102-0.139-0.144-0.212-0.071l-0.734,0.734
			c-0.049,0.049-0.128,0.049-0.177,0l-0.734-0.734c-0.073-0.073-0.198-0.031-0.212,0.071l-0.78,5.635
			c-0.084,0.505-0.318,0.963-0.619,1.377c-0.444,0.611-0.665,1.393-0.527,2.237c0.202,1.238,1.185,2.241,2.421,2.455
			C17.356,24.282,19,22.833,19,21c0-0.646-0.209-1.24-0.559-1.727C18.139,18.853,17.899,18.392,17.814,17.881z"/>
		<g>
			<path fill="#7D3119" d="M15.912,12.912l-0.734-0.734c-0.073-0.073-0.198-0.031-0.212,0.071l-0.78,5.635
				c-0.084,0.505-0.318,0.963-0.619,1.377c-0.444,0.611-0.664,1.393-0.527,2.237c0.202,1.238,1.185,2.241,2.421,2.455
				c0.183,0.032,0.361,0.033,0.538,0.033V12.948C15.968,12.948,15.936,12.936,15.912,12.912z"/>
		</g>
		<path fill="#EDEEEE" d="M16,3c-2.737,0-3.809,1.665-3.976,1.957c-0.016,0.028-0.02,0.06-0.012,0.091l0.971,3.886
			c0.01,0.041,0.041,0.075,0.082,0.088l2.777,0.926c0.103,0.034,0.214,0.034,0.316,0l2.777-0.926
			c0.041-0.014,0.071-0.047,0.082-0.088l0.971-3.886c0.008-0.031,0.004-0.063-0.012-0.091C19.809,4.665,18.737,3,16,3z"/>
		<g>
			<path fill="#F7F7F7" d="M12.024,4.957c-0.016,0.028-0.02,0.06-0.012,0.091l0.971,3.886c0.01,0.041,0.041,0.075,0.082,0.088
				l2.777,0.926c0.051,0.017,0.105,0,0.158,0V3C13.263,3,12.191,4.665,12.024,4.957z"/>
		</g>
		<path fill="#F7F7F7" d="M12,5h3l-2.56-2.987C12.289,1.837,12,1.944,12,2.176V5z"/>
		<path fill="#EDEEEE" d="M20,5h-3l2.56-2.987C19.711,1.837,20,1.944,20,2.176V5z"/>
		<g>
			<path fill="#EB6B48" d="M15.76,5.181L15,8h1V5C15.897,5,15.794,5.06,15.76,5.181z"/>
			<path fill="#E56142" d="M16.24,5.181C16.206,5.06,16.103,5,16,5v3h1L16.24,5.181z"/>
		</g>
		<path fill="#7D3119" d="M13.251,6.167l2.68,1.786c0.042,0.028,0.097,0.028,0.139,0l2.68-1.786
			c0.093-0.062,0.214,0.019,0.192,0.129l-0.43,2.15c-0.007,0.035-0.028,0.065-0.058,0.083l-2.195,1.317
			c-0.158,0.095-0.356,0.095-0.514,0l-2.195-1.317c-0.03-0.018-0.051-0.048-0.058-0.083l-0.43-2.15
			C13.037,6.187,13.158,6.106,13.251,6.167z"/>
		<g>
			<path fill="#843822" d="M15.931,7.954l-2.68-1.786c-0.093-0.062-0.214,0.019-0.192,0.129l0.43,2.15
				c0.007,0.035,0.028,0.065,0.058,0.083l2.195,1.317C15.822,9.893,15.911,9.917,16,9.917V7.975
				C15.976,7.975,15.952,7.968,15.931,7.954z"/>
		</g>
		<g>
			<path fill="#F9C900" d="M17,7.5c0,0.552,0.224,1,0.5,1s0.5-0.448,0.5-1c0-0.289-0.063-0.544-0.161-0.726l-0.821,0.548
				C17.012,7.381,17,7.437,17,7.5z"/>
			<path fill="#FFD400" d="M14,7.5c0,0.552,0.224,1,0.5,1s0.5-0.448,0.5-1c0-0.063-0.012-0.119-0.018-0.179l-0.821-0.548
				C14.063,6.956,14,7.211,14,7.5z"/>
		</g>
		<g>
			<path fill="#76260D" d="M15.912,12.912l-0.037-0.037l-0.269,1.886C15.202,17.583,15,20.431,15,23.282v0.55
				c0.149,0.052,0.303,0.094,0.462,0.121c0.183,0.032,0.362,0.04,0.538,0.037V12.948C15.968,12.948,15.936,12.936,15.912,12.912z"/>
			<path fill="#6D240B" d="M17,23.282c0-2.851-0.202-5.698-0.606-8.521l-0.269-1.886l-0.037,0.037
				c-0.024,0.024-0.056,0.037-0.088,0.037v11.042c0.35-0.004,0.686-0.065,1-0.177V23.282z"/>
		</g>
	</g>
</g>
</svg>
