<?xml version="1.0" encoding="utf-8"?>
<!-- Generator: Adobe Illustrator 23.0.6, SVG Export Plug-In . SVG Version: 6.00 Build 0)  -->
<svg version="1.1" xmlns="http://www.w3.org/2000/svg" xmlns:xlink="http://www.w3.org/1999/xlink" x="0px" y="0px" width="32px"
	 height="32px" viewBox="0 0 32 32" enable-background="new 0 0 32 32" xml:space="preserve">
<g id="labels">
	<g>
	</g>
</g>
<g id="icons">
	<g>
		<path fill="#48A353" d="M24,21h2c0,0,1.524,8-10,8v-4C16,25,23.001,26,24,21z"/>
		<path fill="#48A353" d="M27.705,18.082c-0.247,0.088-0.641,0.253-1.058,0.525c-0.421-0.948-1.085-1.897-1.414-2.344
			c-0.1-0.136-0.299-0.135-0.4,0c-0.333,0.452-1.008,1.419-1.429,2.378c-0.437-0.293-0.854-0.468-1.111-0.56
			c-0.139-0.049-0.293,0.036-0.325,0.179c-0.78,3.456,2.486,4.567,2.994,4.718c0.001,0.007,0.001,0.013,0.003,0.021
			c0,0,0.017-0.005,0.034-0.01C25.017,22.995,25.033,23,25.033,23v0l0,0l0.001,0c0,0,0-0.001,0-0.001c0,0,0.029-0.021,0.044-0.033
			c0.615-0.19,3.714-1.326,2.952-4.704C27.999,18.119,27.843,18.033,27.705,18.082z"/>
		<path fill="#4EAC5D" d="M23,20c0,5.799-3.134,9-7,9s-7-3.201-7-9s3.134-12,7-12S23,14.201,23,20z"/>
		<path fill="#54B668" d="M16,8c-3.866,0-7,6.201-7,12c0,5.799,3.134,9,7,9V8z"/>
		<path fill="#F7D684" d="M21,22c0,5.799-2.239,7-5,7s-5-1.201-5-7s2.239-14,5-14S21,16.201,21,22z"/>
		<path fill="#FAE09F" d="M16,8c-2.761,0-5,8.201-5,14c0,5.799,2.239,7,5,7V8z"/>
		<path fill="#FAE09F" d="M14.179,32.025c-0.154-0.014-0.299-0.099-0.384-0.241c-1.834-3.065,0.47-6.381,0.569-6.521
			c0.159-0.226,0.471-0.278,0.696-0.119c0.226,0.159,0.279,0.471,0.12,0.697c-0.02,0.029-2.023,2.929-0.527,5.43
			c0.142,0.237,0.065,0.544-0.172,0.686C14.387,32.013,14.281,32.034,14.179,32.025z"/>
		<path fill="#F7D684" d="M17.638,32c-0.102,0-0.206-0.031-0.294-0.096c-0.223-0.163-0.272-0.476-0.109-0.699
			c1.718-2.354-0.012-5.424-0.029-5.455c-0.137-0.239-0.056-0.545,0.184-0.683c0.238-0.137,0.544-0.057,0.682,0.182
			c0.086,0.148,2.077,3.66-0.029,6.545C17.945,31.929,17.792,32,17.638,32z"/>
		<path fill="#FDEBBB" d="M21,22c0-5.799-2.239-14-5-14s-5,8.201-5,14c0,0.737,0.037,1.398,0.106,1.994
			c1.967-0.032,3.723-0.933,4.894-2.342c1.171,1.409,2.927,2.31,4.894,2.342C20.963,23.398,21,22.737,21,22z"/>
		<path fill="#FAE09F" d="M16,21.652c1.171,1.409,2.927,2.31,4.894,2.342C20.963,23.398,21,22.737,21,22c0-5.799-2.239-14-5-14
			L16,21.652L16,21.652z"/>
		<path fill="#FFD04D" d="M16,18v-1c0,0,4.065-4.025,6-5c2.417-1.219,4.367-0.91,5.544,0.387c0.163,0.179-0.013,0.459-0.249,0.405
			C26.169,12.532,23.896,12.307,22,14C19.363,16.354,18.296,17.862,16,18z"/>
		<path fill="#60C46F" d="M14.483,20h-1.601c-0.13,0-0.174-0.174-0.06-0.235c0.29-0.153,0.671-0.265,1.173-0.265
			c0.001,0,0.002,0,0.003,0h0.001c0.144,0,0.287-0.057,0.38-0.168c0.281-0.335,0.032-0.893-0.384-0.832
			c-2.268,0-3.392,1.146-3.805,1.703c-0.133,0.179-0.133,0.415,0,0.594c0.412,0.557,1.537,1.703,3.805,1.703
			c0.351,0.038,0.582-0.331,0.479-0.662C14.411,21.634,14.214,21.5,14,21.5h0c-0.001,0-0.002,0-0.003,0
			c-0.501,0-0.882-0.111-1.172-0.265C12.71,21.174,12.755,21,12.884,21H14.5c0.287,0,0.517-0.242,0.499-0.533
			C14.982,20.201,14.75,20,14.483,20z"/>
		<path fill="#54B668" d="M17.517,20h1.601c0.13,0,0.174-0.174,0.06-0.235c-0.29-0.153-0.671-0.265-1.173-0.265
			c-0.001,0-0.002,0-0.003,0h-0.001c-0.144,0-0.287-0.057-0.38-0.168c-0.281-0.335-0.032-0.893,0.384-0.832
			c2.268,0,3.392,1.146,3.805,1.703c0.133,0.179,0.133,0.415,0,0.594c-0.412,0.557-1.537,1.703-3.805,1.703
			c-0.351,0.038-0.582-0.331-0.479-0.662C17.589,21.634,17.786,21.5,18,21.5h0c0.001,0,0.002,0,0.003,0
			c0.501,0,0.882-0.111,1.172-0.265C19.29,21.174,19.246,21,19.116,21H17.5c-0.287,0-0.517-0.242-0.499-0.533
			C17.018,20.201,17.25,20,17.517,20z"/>
		<path fill="#FFF3D9" d="M21,8c0,2.691-3.005,5.417-4.356,6.506c-0.375,0.302-0.905,0.295-1.272-0.017
			C14.029,13.348,11,10.498,11,8c0-2.761,2.239-5,5-5S21,5.239,21,8z"/>
		<path fill="#FDEBBB" d="M16.644,14.506C17.995,13.417,21,10.691,21,8c0-2.761-2.239-5-5-5v11.727
			C16.227,14.731,16.455,14.658,16.644,14.506z"/>
		<path fill="#FFD04D" d="M15.776,0.152C14.933,2.084,12,3.103,12,3.103l4,3.5l4-3.5c0,0-2.933-1.019-3.776-2.951
			C16.135-0.051,15.865-0.051,15.776,0.152z"/>
		<path fill="#FFFFFF" d="M12.5,5c-0.176,0-0.347,0.015-0.513,0.043C11.374,5.873,11,6.889,11,8c0,0.209,0.023,0.42,0.062,0.632
			C11.47,8.862,11.964,9,12.5,9C13.881,9,15,8.104,15,7S13.881,5,12.5,5z"/>
		<path fill="#F7F7F7" d="M17,7c0,1.104,1.119,2,2.5,2c0.54,0,1.037-0.14,1.446-0.373C20.98,8.418,21,8.209,21,8
			c0-1.111-0.374-2.127-0.987-2.957C19.847,5.015,19.676,5,19.5,5C18.119,5,17,5.896,17,7z"/>
		<ellipse fill="#C65546" cx="12.5" cy="6" rx="1.5" ry="2"/>
		<ellipse fill="#BF4F3C" cx="19.5" cy="6" rx="1.5" ry="2"/>
		<ellipse fill="#373F3F" cx="12.5" cy="6" rx="0.5" ry="1"/>
		<ellipse fill="#2B3332" cx="19.5" cy="6" rx="0.5" ry="1"/>
		<path fill="#F7C845" d="M16,0v6.603l4-3.5c0,0-2.933-1.019-3.776-2.951C16.18,0.051,16.09,0,16,0z"/>
		<path fill="#54B668" d="M24.918,5.637c-0.334-1.754-1.73-3.19-3.481-3.543c-0.318-0.064-0.63-0.089-0.937-0.089l0,0h0h0l0,0
			c-0.306,0-0.619,0.025-0.937,0.089c-1.75,0.353-3.146,1.789-3.481,3.543c-0.206,1.079-0.015,2.094,0.442,2.948
			c0.128,0.239,0.472,0.15,0.476-0.12c0.009-0.677,0.272-1.426,1.07-2.297c0.604-0.658,1.424-1.139,2.317-1.167
			C20.426,5.001,20.462,5.01,20.5,5.01l0,0h0h0l0,0c0.038,0,0.074-0.009,0.113-0.008c0.893,0.028,1.713,0.508,2.317,1.167
			c0.798,0.871,1.061,1.619,1.07,2.297c0.003,0.27,0.348,0.359,0.476,0.12C24.932,7.731,25.123,6.717,24.918,5.637z"/>
		<path fill="#60C46F" d="M15.918,5.637c-0.334-1.754-1.73-3.19-3.481-3.543c-0.318-0.064-0.63-0.089-0.937-0.089l0,0h0h0l0,0
			c-0.306,0-0.619,0.025-0.937,0.089c-1.75,0.353-3.146,1.789-3.481,3.543C6.877,6.717,7.068,7.731,7.525,8.585
			C7.652,8.823,7.997,8.735,8,8.465c0.009-0.677,0.272-1.426,1.07-2.297c0.604-0.658,1.424-1.139,2.317-1.167
			C11.426,5.001,11.462,5.01,11.5,5.01l0,0h0h0l0,0c0.038,0,0.074-0.009,0.113-0.008c0.893,0.028,1.713,0.508,2.317,1.167
			c0.798,0.871,1.061,1.619,1.07,2.297c0.003,0.27,0.348,0.359,0.476,0.12C15.932,7.731,16.123,6.717,15.918,5.637z"/>
		<path fill="#FFD96C" d="M16,18v-1c0,0-4.065-4.025-6-5c-2.417-1.219-4.367-0.91-5.544,0.387c-0.163,0.179,0.013,0.459,0.249,0.405
			C5.831,12.532,8.104,12.307,10,14C12.637,16.354,13.704,17.862,16,18z"/>
	</g>
</g>
</svg>
