<?xml version="1.0" encoding="utf-8"?>
<!-- Generator: Adobe Illustrator 23.0.6, SVG Export Plug-In . SVG Version: 6.00 Build 0)  -->
<svg version="1.1" xmlns="http://www.w3.org/2000/svg" xmlns:xlink="http://www.w3.org/1999/xlink" x="0px" y="0px" width="32px"
	 height="32px" viewBox="0 0 32 32" enable-background="new 0 0 32 32" xml:space="preserve">
<g id="labels">
	<g>
	</g>
</g>
<g id="icons">
	<g>
		<g>
			<path fill="#338C5D" d="M12.997,23.99L12.997,23.99c-1.471,0.929-2.994,2.03-5,2.971c-3.062,1.438-5,0.5-5-3.5
				c0-0.994-0.494-1.491-0.991-1.498c-0.503-0.006-1.009,0.491-1.009,1.498c0,2.562,0.426,8.5,6.75,8.5
				c2.265,0,4.449-0.988,6.427-2.159C14.115,29.745,12.997,23.99,12.997,23.99z"/>
		</g>
		<path fill="#349363" d="M13.586,26.991c0,0-0.562,0.354-0.593,0.377c-3.653,2.688-8.122,3.438-9.84,0.562
			c-1.571-2.628-1.341-3.704-1.147-5.966c0.497,0.006,0.991,0.504,0.991,1.498c0,4,1.938,4.938,5,3.5
			c2.006-0.942,3.529-2.042,5-2.971l0,0L13.586,26.991z"/>
		<path fill="#338C5D" d="M7.521,25.211c-0.137,0.06-0.301,0.143-0.472,0.254c-0.219-0.493-0.541-0.987-0.766-1.305
			c-0.127-0.18-0.391-0.179-0.518,0c-0.227,0.323-0.556,0.826-0.775,1.326c-0.186-0.125-0.366-0.216-0.514-0.28
			c-0.188-0.081-0.405,0.041-0.437,0.244c-0.325,2.033,1.628,2.697,1.94,2.79c0.001,0.005,0.001,0.009,0.002,0.013
			c0,0,0.011-0.003,0.022-0.006c0.011,0.003,0.021,0.006,0.021,0.006v0l0,0l0.001,0c0,0,0,0,0-0.001c0,0,0.018-0.013,0.028-0.021
			c0.378-0.117,2.232-0.796,1.913-2.782C7.934,25.243,7.712,25.127,7.521,25.211z"/>
		<path fill="#338C5D" d="M12.521,23.211c-0.137,0.06-0.301,0.143-0.472,0.254c-0.219-0.493-0.541-0.987-0.766-1.305
			c-0.127-0.18-0.391-0.179-0.518,0c-0.227,0.323-0.556,0.826-0.775,1.326c-0.186-0.125-0.366-0.216-0.514-0.28
			c-0.188-0.081-0.405,0.041-0.437,0.244c-0.325,2.033,1.628,2.697,1.94,2.79c0.001,0.005,0.001,0.009,0.002,0.013
			c0,0,0.011-0.003,0.022-0.006c0.011,0.003,0.021,0.006,0.021,0.006v0l0,0l0.001,0c0,0,0,0,0-0.001c0,0,0.018-0.013,0.028-0.021
			c0.378-0.117,2.232-0.796,1.913-2.782C12.934,23.243,12.712,23.127,12.521,23.211z"/>
		<path fill="#6EDCA2" d="M27.496,25.336c-1.562-3.188-6.5-3.375-8.5-3.375c0-4.382,0-5,0-5l-3,3.766l-3-3.451v6.715h0l0.066,2.338
			c0.025,0.875,0.175,1.748,0.508,2.558c0.125,0.305,0.27,0.581,0.426,0.747c0.057,0.06,0.118,0.112,0.177,0.169c0,0,0,0,0,0l0,0
			c0.273,0.266,0.564,0.503,0.868,0.712c0.002,0.002,0.005,0.003,0.007,0.005c0.303,0.208,0.62,0.391,0.948,0.549
			c0.335,0.161,0.683,0.289,1.036,0.402c0.068,0.021,0.135,0.045,0.204,0.064c0.342,0.099,0.69,0.179,1.041,0.238
			c0.066,0.011,0.133,0.019,0.2,0.029c0.349,0.052,0.701,0.089,1.052,0.106c0.019,0.001,0.038,0.003,0.057,0.004
			c0.369,0.016,0.737,0.01,1.101-0.008c0.065-0.003,0.129-0.006,0.194-0.01c0.358-0.023,0.712-0.058,1.057-0.109
			c0.04-0.006,0.079-0.013,0.119-0.019c0.356-0.055,0.705-0.12,1.039-0.199c0.003-0.001,0.006-0.001,0.009-0.002
			c0.344-0.081,0.671-0.175,0.983-0.275c0.03-0.01,0.059-0.019,0.089-0.029c0.31-0.103,0.604-0.213,0.874-0.329
			c0.022-0.009,0.062-0.028,0.062-0.028c0.21-0.093,0.403-0.189,0.583-0.286c0.025-0.014,0.052-0.027,0.076-0.041
			c0.18-0.1,0.616-0.384,0.666-0.434C26.439,30.143,29.059,28.524,27.496,25.336z M20.303,28.363
			c-0.047-0.047-0.512-0.525-0.711-0.811c-0.169-0.244-0.359-0.775-0.407-0.918h0c1.212-0.65,2.202-0.903,2.895-0.298
			C23.123,27.246,21.559,27.964,20.303,28.363z"/>
		<path fill="#7AEBAC" d="M16.003,20.719l-0.007,0.008l-3-3.451v6.715h0l0.066,2.338c0.025,0.875,0.175,1.748,0.508,2.558
			c0.125,0.305,0.27,0.581,0.426,0.747c0.057,0.06,0.118,0.112,0.177,0.169c0,0,0,0,0,0l0,0c0.273,0.266,0.564,0.503,0.868,0.712
			c0.002,0.002,0.005,0.003,0.007,0.005c0.303,0.208,0.62,0.391,0.948,0.549c0.002,0.001,0.005,0.002,0.007,0.003V20.719z"/>
		<path fill="#349363" d="M27.503,25.336c-1.562-3.188-6.5-3.375-8.5-3.375v2.667C21.777,23.422,25.461,23.649,27.503,25.336
			L27.503,25.336z"/>
		<path fill="#F7C845" d="M29.031,13.025c0,0-8.07-1.7-11.035,5.15v-5.15C17.997,13.025,22.823,9.573,29.031,13.025z"/>
		<path fill="#FFD04D" d="M3.003,13.025c0,0,8.07-1.7,11.035,5.15v-5.15C14.038,13.025,9.212,9.573,3.003,13.025z"/>
		<polygon fill="#E3E5E5" points="16.003,16.025 13.003,13.025 13.003,17.025 16.003,21.025 		"/>
		<polygon fill="#DADDDC" points="16.003,16.025 19.003,13.025 19.003,17.025 16.003,21.025 		"/>
		<path fill="#F7F7F7" d="M22.003,9.025c0,3.219-3.886,6.438-5.403,7.572c-0.355,0.266-0.836,0.264-1.19-0.004
			c-1.515-1.146-5.406-4.399-5.406-7.569c0-3.314,2.024-5,6-5S22.003,5.712,22.003,9.025z"/>
		<path fill="#EDEEEE" d="M16.6,16.598c1.517-1.134,5.403-4.353,5.403-7.573c0-3.314-2.024-5-6-5v12.771
			C16.213,16.797,16.422,16.731,16.6,16.598z"/>
		<path fill="#E7685F" d="M11.503,6.025c-0.334,0-0.64,0.151-0.889,0.397c-0.318,0.582-0.508,1.27-0.567,2.064
			c0.156,0.882,0.747,1.54,1.456,1.54c0.828,0,1.5-0.895,1.5-2C13.003,6.921,12.332,6.025,11.503,6.025z"/>
		<path fill="#E55D53" d="M21.392,6.422c-0.249-0.246-0.555-0.397-0.889-0.397c-0.828,0-1.5,0.896-1.5,2c0,1.105,0.672,2,1.5,2
			c0.709,0,1.3-0.658,1.456-1.539C21.9,7.692,21.711,7.004,21.392,6.422z"/>
		<ellipse fill="#2B3332" cx="20.503" cy="8.025" rx="0.5" ry="1"/>
		<ellipse fill="#373F3F" cx="11.503" cy="8.025" rx="0.5" ry="1"/>
		<path fill="#99F2BD" d="M12.897,12.596c-0.533,0.176-1.006,0.198-1.42,0.134c0.312,0.427,0.652,0.836,1.005,1.221
			c0.44-0.376,0.645-0.759,0.74-1.046C13.286,12.709,13.092,12.531,12.897,12.596z"/>
		<path fill="#7AEBAC" d="M19.135,12.596c0.533,0.176,1.006,0.198,1.42,0.134c-0.312,0.427-0.652,0.836-1.005,1.221
			c-0.44-0.376-0.645-0.759-0.74-1.046C18.745,12.709,18.939,12.531,19.135,12.596z"/>
		<path fill="#99F2BD" d="M22.686,0.436c0.123-0.17-0.008-0.408-0.218-0.397c-3.356,0.176-5.385,1.98-6.465,3.369
			c-1.08-1.389-3.109-3.193-6.465-3.369c-0.21-0.011-0.341,0.227-0.218,0.397c0.619,0.852,1.919,2.923,1.881,5.198
			c-0.449,0.483-0.783,1.061-0.972,1.757c0.211-0.165,0.46-0.297,0.774-0.365c2.281-0.498,2.223,2.2,2.085,3.422
			c-0.025,0.224,0.238,0.367,0.41,0.221c0.746-0.633,0.978-1.357,1.035-1.888c0.014-0.132,0.195-0.158,0.241-0.033l0.995,2.653
			c0.081,0.216,0.387,0.216,0.468,0l0.995-2.653c0.047-0.125,0.227-0.099,0.241,0.033c0.056,0.53,0.289,1.254,1.035,1.888
			c0.172,0.146,0.435,0.003,0.41-0.221c-0.138-1.222-0.196-3.92,2.085-3.422h0l0,0h0c0.315,0.069,0.563,0.2,0.774,0.365
			c-0.189-0.696-0.523-1.274-0.972-1.757C20.767,3.359,22.067,1.287,22.686,0.436z"/>
		<path fill="#349363" d="M29.003,13.025c-8.5-3-13,6-13,6s-4.5-9-13-6c-0.479,0.209-1.092,0.49-0.988,1.142
			c0.069,0.434,0.42,0.793,0.856,0.849c0.611,0.079,1.132-0.396,1.132-0.991c0-0.053-0.022-0.098-0.03-0.149
			c2.157-0.172,7.446,0.303,11.03,8.149c0,0-0.388,2.197-1.439,2.192c-0.236-0.001-0.365,0.275-0.189,0.432
			c0.283,0.254,0.776,0.468,1.628,0.375l0.776,1.553c0.092,0.184,0.355,0.184,0.447,0l0.776-1.553
			c0.853,0.093,1.345-0.122,1.628-0.375c0.176-0.157,0.047-0.434-0.189-0.432c-1.051,0.005-1.439-2.192-1.439-2.192
			c3.584-7.846,8.873-8.321,11.03-8.149c-0.008,0.051-0.03,0.096-0.03,0.149c0,0.596,0.521,1.07,1.132,0.991
			c0.436-0.056,0.787-0.415,0.856-0.849C30.096,13.515,29.482,13.234,29.003,13.025z"/>
		<path fill="#338C5D" d="M16.227,26.578l0.776-1.553c0.853,0.093,1.345-0.122,1.628-0.375c0.176-0.157,0.047-0.434-0.189-0.432
			c-1.051,0.005-1.439-2.192-1.439-2.192c3.584-7.846,8.873-8.321,11.03-8.149c-0.008,0.051-0.03,0.096-0.03,0.149
			c0,0.596,0.521,1.07,1.133,0.991c0.436-0.056,0.787-0.415,0.856-0.849c0.104-0.652-0.51-0.934-0.988-1.142c-8.5-3-13,6-13,6v7.691
			C16.092,26.716,16.181,26.67,16.227,26.578z"/>
		<path fill="#FFE28A" d="M14.681,4.104c-1.162-1.472-3.024-3.354-5.332-3.993C9.267,0.193,9.242,0.328,9.321,0.436
			c0.619,0.852,1.92,2.922,1.882,5.197C11.977,4.8,13.132,4.284,14.681,4.104z"/>
		<path fill="#7AEBAC" d="M16.237,11.401l0.995-2.653c0.047-0.125,0.227-0.099,0.241,0.033c0.056,0.53,0.289,1.254,1.035,1.888
			c0.172,0.146,0.435,0.003,0.41-0.221c-0.138-1.222-0.196-3.92,2.085-3.422h0h0c0.315,0.069,0.563,0.2,0.774,0.365
			c-0.189-0.696-0.523-1.274-0.972-1.757c-0.038-2.275,1.262-4.346,1.881-5.198c0.123-0.17-0.008-0.408-0.218-0.397
			c-3.356,0.176-5.385,1.98-6.465,3.369v8.155C16.1,11.563,16.197,11.509,16.237,11.401z"/>
		<path fill="#FFD96C" d="M22.658,0.112c-2.308,0.639-4.17,2.521-5.332,3.993c1.552,0.179,2.707,0.697,3.482,1.532
			c-0.039-2.276,1.259-4.348,1.878-5.2C22.764,0.328,22.74,0.193,22.658,0.112z"/>
	</g>
</g>
</svg>
