<?xml version="1.0" encoding="utf-8"?>
<!-- Generator: Adobe Illustrator 23.0.6, SVG Export Plug-In . SVG Version: 6.00 Build 0)  -->
<svg version="1.1" xmlns="http://www.w3.org/2000/svg" xmlns:xlink="http://www.w3.org/1999/xlink" x="0px" y="0px" width="32px"
	 height="32px" viewBox="0 0 32 32" enable-background="new 0 0 32 32" xml:space="preserve">
<g id="labels">
	<g>
	</g>
</g>
<g id="icons">
	<g>
		<g>
			<path fill="#373F3F" d="M19.674,32h3.652c0.354,0,0.596-0.357,0.464-0.686L22.064,27h-2l-0.88,4.402
				C19.122,31.711,19.359,32,19.674,32z"/>
			<path fill="#434C4B" d="M12.326,32H8.674c-0.354,0-0.596-0.357-0.464-0.686L9.936,27h2l0.88,4.402
				C12.878,31.711,12.641,32,12.326,32z"/>
		</g>
		<g>
			<path fill="#66D3D3" d="M11.102,12.869c0.139-3.697,1.104-6.767,4.804-6.798c0.033,0,0.061,0.004,0.094,0.004v21.996
				c-2,0-3.624,1.257-5.118,0.846c-1.347-0.371-2.421-1.482-2.757-2.838c-0.22-0.887-0.139-1.734,0.157-2.471
				C8.834,22.235,11.018,15.117,11.102,12.869z"/>
			<path fill="#56C7CD" d="M20.898,12.869c-0.139-3.697-1.104-6.767-4.804-6.798c-0.033,0-0.061,0.004-0.094,0.004v21.996
				c2,0,3.624,1.257,5.118,0.846c1.347-0.371,2.421-1.482,2.757-2.838c0.22-0.887,0.139-1.734-0.157-2.471
				C23.166,22.235,20.982,15.117,20.898,12.869z"/>
		</g>
		<path fill="#51BAC5" d="M16,28.071c2,0,3.624,1.257,5.118,0.846c1.347-0.371,2.421-1.482,2.757-2.838
			c0.22-0.887,0.139-1.734-0.157-2.471c-0.171-0.425-0.497-1.4-0.87-2.608H16V28.071z"/>
		<path fill="#56C7CD" d="M9.152,21c-0.372,1.209-0.699,2.184-0.87,2.608c-0.296,0.737-0.377,1.583-0.157,2.471
			c0.336,1.356,1.41,2.467,2.757,2.838C12.376,29.328,14,28.071,16,28.071V21H9.152z"/>
		<path fill="#66D3D3" d="M11.793,14l-3.438-0.688c-1.024-0.205-2.083-0.139-3.074,0.191l-0.702,0.234
			c-0.503,0.168-1.052,0.129-1.527-0.109l-0.535-0.268c-0.332-0.166-0.724,0.076-0.724,0.447V14l-0.646,0.646
			c-0.195,0.195-0.195,0.512,0,0.707L1.793,16v0.191c0,0.372,0.391,0.613,0.724,0.447l0.535-0.268
			c0.474-0.237,1.024-0.276,1.527-0.109l0.702,0.234c0.991,0.33,2.05,0.396,3.074,0.191L11.793,16V14z"/>
		<path fill="#434C4B" d="M5,13.598l-0.421,0.14c-0.503,0.168-1.052,0.129-1.527-0.109l-0.535-0.268
			c-0.332-0.166-0.724,0.075-0.724,0.447V14l-0.646,0.646c-0.195,0.195-0.195,0.512,0,0.707L1.793,16v0.191
			c0,0.372,0.391,0.614,0.724,0.447l0.535-0.268c0.474-0.237,1.024-0.276,1.527-0.109L5,16.402V13.598z"/>
		<path fill="#373F3F" d="M17.184,0.866c-1.367,1.367-1.367,3.583,0,4.95s3.583,1.367,4.95,0c0.994-0.994,0.916-3.533,0.8-4.845
			c-0.043-0.483-0.421-0.862-0.905-0.905C20.717-0.05,18.178-0.128,17.184,0.866z"/>
		<path fill="#434C4B" d="M14.816,0.866c1.367,1.367,1.367,3.583,0,4.95s-3.583,1.367-4.95,0c-0.994-0.994-0.916-3.533-0.8-4.845
			c0.043-0.483,0.421-0.862,0.905-0.905C11.283-0.05,13.822-0.128,14.816,0.866z"/>
		<ellipse fill="#8EDDD9" cx="16" cy="6.5" rx="7" ry="6.5"/>
		<path fill="#7CD8D5" d="M23,6.5C23,2.358,20.418,0,16,0v13C20.418,13,23,10.642,23,6.5z"/>
		<g>
			<path fill="#3E688C" d="M16,17.379C15.267,16.541,14.202,16,13,16c-2.209,0-3.591,2.324-4,4
				c-0.384,1.577-1.069,1.709-3.518,1.952c-0.208,0.021-0.304,0.272-0.158,0.422c0.429,0.441,1.263,1.129,2.372,1.24
				c0,0-0.395,0.715-2.248,1.264c-0.195,0.058-0.249,0.31-0.089,0.435c1.164,0.911,5.082,3.204,10.64-1.59L16,17.379z"/>
			<path fill="#396186" d="M16,17.379C16.733,16.541,17.798,16,19,16c2.209,0,3.591,2.324,4,4c0.384,1.577,1.069,1.709,3.518,1.952
				c0.208,0.021,0.304,0.272,0.158,0.422c-0.429,0.441-1.263,1.129-2.372,1.24c0,0,0.395,0.715,2.248,1.264
				c0.195,0.058,0.249,0.31,0.089,0.435c-1.164,0.911-5.082,3.204-10.64-1.59L16,17.379z"/>
		</g>
		<path fill="#FFE28A" d="M11.894,20.106c-0.039-0.04-0.101-0.049-0.156-0.066c0.337-0.692,0.359-1.372-0.023-1.754
			c-0.568-0.568-1.797-0.261-2.744,0.686c-0.947,0.947-1.254,2.175-0.686,2.744c0.382,0.382,1.062,0.361,1.754,0.023
			c0.017,0.056,0.027,0.117,0.066,0.156c0.247,0.247,0.847,0.047,1.341-0.447C11.941,20.953,12.141,20.353,11.894,20.106z"/>
		<g>
			<path fill="#56C7CD" d="M20.207,14l3.438-0.688c1.024-0.205,2.083-0.139,3.074,0.191l0.702,0.234
				c0.503,0.168,1.052,0.129,1.527-0.109l0.535-0.268c0.332-0.166,0.724,0.076,0.724,0.447V14l0.646,0.646
				c0.195,0.195,0.195,0.512,0,0.707L30.207,16v0.191c0,0.372-0.391,0.613-0.724,0.447l-0.535-0.268
				c-0.474-0.237-1.024-0.276-1.527-0.109l-0.702,0.234c-0.991,0.33-2.05,0.396-3.074,0.191L20.207,16V14z"/>
			<path fill="#373F3F" d="M27,13.598l0.421,0.14c0.503,0.168,1.052,0.129,1.527-0.109l0.535-0.268
				c0.332-0.166,0.724,0.075,0.724,0.447V14l0.646,0.646c0.195,0.195,0.195,0.512,0,0.707L30.207,16v0.191
				c0,0.372-0.391,0.614-0.724,0.447l-0.535-0.268c-0.474-0.237-1.024-0.276-1.527-0.109L27,16.402V13.598z"/>
		</g>
		<path fill="#7CD8D5" d="M16,13c1.135,0,2.147-0.158,3.027-0.46L16,8l-3.027,4.54C13.853,12.842,14.865,13,16,13z"/>
		<path fill="#373F3F" d="M11.882,4.376c-0.185-0.037-0.381,0.028-0.493,0.179C11.148,4.881,11,5.356,11,6c0,1.381,0.672,2,1.5,2
			S14,7.381,14,6c0-0.382-0.052-0.705-0.144-0.973c-0.059-0.17-0.202-0.296-0.379-0.332L11.882,4.376z"/>
		<path fill="#2B3332" d="M20.118,4.376c0.185-0.037,0.381,0.028,0.493,0.179C20.852,4.881,21,5.356,21,6c0,1.381-0.672,2-1.5,2
			S18,7.381,18,6c0-0.382,0.052-0.705,0.144-0.973c0.059-0.17,0.202-0.296,0.379-0.332L20.118,4.376z"/>
		<circle fill="#F7F7F7" cx="19.5" cy="5.5" r="0.5"/>
		<circle fill="#F7F7F7" cx="12.5" cy="5.5" r="0.5"/>
		<path fill="#EDEEEE" d="M8.5,13c-0.17,0-0.335-0.086-0.429-0.243c-0.142-0.237-0.065-0.544,0.171-0.686l3.835-2.301l-4.66-0.777
			C7.146,8.948,6.961,8.69,7.007,8.418c0.045-0.272,0.301-0.46,0.575-0.411l6,1c0.207,0.034,0.37,0.194,0.409,0.4
			s-0.054,0.414-0.234,0.522l-5,3C8.677,12.977,8.588,13,8.5,13z"/>
		<path fill="#E3E5E5" d="M23.5,13c-0.087,0-0.176-0.023-0.257-0.071l-5-3c-0.18-0.108-0.273-0.316-0.234-0.522
			s0.202-0.366,0.409-0.4l6-1c0.274-0.048,0.53,0.139,0.575,0.411c0.045,0.272-0.139,0.53-0.411,0.575l-4.66,0.777l3.835,2.301
			c0.237,0.142,0.313,0.449,0.171,0.686C23.835,12.914,23.669,13,23.5,13z"/>
		<path fill="#66D3D3" d="M19.027,12.54L16,8v5C17.135,13,18.147,12.842,19.027,12.54z"/>
		<ellipse fill="#DD7C8A" cx="16" cy="8" rx="1.5" ry="1"/>
		<path fill="#DB7383" d="M17.5,8c0-0.552-0.395-1-1.5-1v2C17.105,9,17.5,8.552,17.5,8z"/>
		<path fill="#FFEAA7" d="M11.894,20.106c-0.039-0.04-0.156-0.066-0.156-0.066l-1.591-1.865c-0.398,0.161-0.808,0.429-1.176,0.797
			c-0.374,0.374-0.644,0.792-0.804,1.196l1.872,1.571c0,0,0.027,0.117,0.066,0.156c0.247,0.247,0.847,0.047,1.341-0.447
			C11.941,20.953,12.141,20.353,11.894,20.106z"/>
		<path fill="#FFD96C" d="M20.106,20.106c0.039-0.04,0.101-0.049,0.156-0.066c-0.337-0.692-0.359-1.372,0.023-1.754
			c0.568-0.568,1.797-0.261,2.744,0.686c0.947,0.947,1.254,2.175,0.686,2.744c-0.382,0.382-1.062,0.361-1.754,0.023
			c-0.017,0.056-0.027,0.117-0.066,0.156c-0.247,0.247-0.847,0.047-1.341-0.447C20.059,20.953,19.859,20.353,20.106,20.106z"/>
		<path fill="#FFE28A" d="M20.106,20.106c0.039-0.04,0.156-0.066,0.156-0.066l1.591-1.865c0.398,0.161,0.808,0.429,1.176,0.797
			c0.374,0.374,0.644,0.792,0.804,1.196l-1.872,1.571c0,0-0.027,0.117-0.066,0.156c-0.247,0.247-0.847,0.047-1.341-0.447
			C20.059,20.953,19.859,20.353,20.106,20.106z"/>
	</g>
</g>
</svg>
