<?xml version="1.0" encoding="utf-8"?>
<!-- Generator: Adobe Illustrator 23.0.6, SVG Export Plug-In . SVG Version: 6.00 Build 0)  -->
<svg version="1.1" xmlns="http://www.w3.org/2000/svg" xmlns:xlink="http://www.w3.org/1999/xlink" x="0px" y="0px" width="32px"
	 height="32px" viewBox="0 0 32 32" enable-background="new 0 0 32 32" xml:space="preserve">
<g id="labels">
	<g>
	</g>
</g>
<g id="icons">
	<g>
		<path fill="#365C84" d="M18.5,19.5c4.573,0,6.916,6.183,7.905,9.851l1.837,0.459C28.688,29.922,29,30.322,29,30.781V31
			c0,0.552-0.448,1-1,1h0c-0.764,0-1.52-0.085-2.265-0.252C22.558,31.037,16.5,28.719,16.5,23.5L18.5,19.5z"/>
		<path fill="#396186" d="M13.5,19.5c-4.573,0-6.916,6.183-7.905,9.851l-1.837,0.459C3.312,29.922,3,30.322,3,30.781V31
			c0,0.552,0.448,1,1,1h0c0.764,0,1.52-0.085,2.265-0.252C9.442,31.037,15.5,28.719,15.5,23.5L13.5,19.5z"/>
		<g>
			<path fill="#396186" d="M16,20c0,0-4.029-6.114-10.145-4.301c-0.509,0.151-0.833,0.658-0.718,1.176C5.598,18.951,7.586,24,16,24
				V20z"/>
			<path fill="#365C84" d="M16,20c0,0,4.029-6.114,10.145-4.301c0.509,0.151,0.833,0.658,0.718,1.176C26.402,18.951,24.414,24,16,24
				V20z"/>
		</g>
		<path fill="#4C7495" d="M23,21.5c0,3.59-3.134,6.5-7,6.5s-7-2.91-7-6.5s3.134-9.5,7-9.5S23,17.91,23,21.5z"/>
		<path fill="#456F93" d="M23,21.5c0-3.59-3.134-9.5-7-9.5v16C19.866,28,23,25.09,23,21.5z"/>
		<path fill="#456F93" d="M21.5,19.5c4.573,0,6.916,6.183,7.905,9.851l1.837,0.459C31.688,29.922,32,30.322,32,30.781V31
			c0,0.552-0.448,1-1,1h0c-0.764,0-1.52-0.085-2.265-0.252C25.558,31.037,17.5,28.719,17.5,23.5L21.5,19.5z"/>
		<path fill="#F0C877" d="M27.406,25.352l-0.386-4.135c-0.012-0.133-0.125-0.231-0.259-0.227c-0.496,0.012-1.673,0.222-2.639,1.802
			c-0.069,0.113-0.037,0.268,0.073,0.343L27.406,25.352z"/>
		<path fill="#F7D684" d="M28.406,27.352l-0.386-4.135c-0.012-0.133-0.125-0.231-0.259-0.227c-0.496,0.012-1.673,0.222-2.639,1.802
			c-0.069,0.113-0.037,0.268,0.073,0.343L28.406,27.352z"/>
		<path fill="#FAE09F" d="M29.406,29.352l-0.386-4.135c-0.012-0.133-0.125-0.231-0.259-0.227c-0.496,0.012-1.673,0.222-2.639,1.802
			c-0.069,0.113-0.037,0.268,0.073,0.343L29.406,29.352z"/>
		<path fill="#4C7495" d="M10.5,19.5c-4.573,0-6.916,6.183-7.905,9.851l-1.837,0.459C0.312,29.922,0,30.322,0,30.781V31
			c0,0.552,0.448,1,1,1h0c0.764,0,1.52-0.085,2.265-0.252C6.442,31.037,14.5,28.719,14.5,23.5L10.5,19.5z"/>
		<path fill="#99C7CE" d="M22.3,21.237c0.441,0.165,0.708,0.616,0.645,1.083C22.511,25.523,19.567,28,16,28s-6.511-2.477-6.945-5.68
			C8.992,21.854,9.26,21.403,9.7,21.237l2.697-1.011c0.367-0.138,0.781-0.048,1.058,0.229l1.838,1.838
			c0.391,0.391,1.024,0.391,1.414,0l1.838-1.838c0.277-0.277,0.691-0.367,1.058-0.229L22.3,21.237z"/>
		<path fill="#DADDDC" d="M18.877,9.871L16,11l-2.877-1.129c0,0-1.858,3.446-7.356,3.187c-0.249-0.012-0.351,0.312-0.147,0.456
			C6.653,14.246,8.923,15.354,12,14c0,0-0.485,0.877-1.522,1.669c-0.181,0.139-0.121,0.425,0.106,0.452
			C11.332,16.21,12.689,16.157,14,15l1.823,1.823c0.098,0.098,0.256,0.098,0.354,0L18,15c1.311,1.157,2.668,1.21,3.416,1.121
			c0.227-0.027,0.287-0.313,0.106-0.452C20.485,14.877,20,14,20,14c3.077,1.354,5.347,0.246,6.38-0.485
			c0.204-0.144,0.102-0.468-0.147-0.456C20.735,13.317,18.877,9.871,18.877,9.871z"/>
		<circle fill="#567B9B" cx="16" cy="7" r="5"/>
		<path fill="#E3E5E5" d="M13.698,8.241c-0.998,0.431-3.444,1.109-6.156-0.945c-0.165-0.125-0.4-0.023-0.406,0.183
			C7.106,8.54,7.341,11,10.174,11c2.625,0,3.547-1.584,3.855-2.45C14.1,8.349,13.894,8.156,13.698,8.241z"/>
		<path fill="#D1D4D4" d="M16.177,16.823L18,15c1.311,1.157,2.668,1.21,3.416,1.121c0.227-0.027,0.287-0.313,0.106-0.452
			C20.485,14.877,20,14,20,14c3.077,1.354,5.347,0.246,6.38-0.485c0.204-0.144,0.102-0.468-0.147-0.456
			c-5.498,0.259-7.356-3.188-7.356-3.188L16,11v5.896C16.064,16.896,16.128,16.872,16.177,16.823z"/>
		<path fill="#EDEEEE" d="M13.629,8.351c-0.948,0.831-3.62,2.783-6.948,1.873c-0.233-0.064-0.406,0.208-0.255,0.397
			c0.716,0.9,2.329,2.373,4.778,1.524c2.512-0.871,2.841-2.704,2.84-3.612C14.043,8.318,13.79,8.209,13.629,8.351z"/>
		<path fill="#4C7495" d="M21,7c0-2.761-2.239-5-5-5v10C18.761,12,21,9.761,21,7z"/>
		<g>
			<path fill="#DADDDC" d="M18.345,8.241c0.998,0.431,3.444,1.109,6.156-0.945c0.165-0.125,0.4-0.023,0.406,0.183
				C24.937,8.54,24.703,11,21.87,11c-2.625,0-3.547-1.584-3.855-2.45C17.943,8.349,18.149,8.156,18.345,8.241z"/>
			<path fill="#E3E5E5" d="M18.415,8.351c0.948,0.831,3.62,2.783,6.948,1.873c0.233-0.064,0.406,0.208,0.255,0.397
				c-0.716,0.9-2.329,2.373-4.778,1.524C18.328,11.274,17.999,9.44,18,8.532C18,8.318,18.253,8.209,18.415,8.351z"/>
		</g>
		<path fill="#DD7C8A" d="M17,8.5c0,0.552-1,1-1,1s-1-0.448-1-1S15.448,8,16,8C16.552,8,17,7.948,17,8.5z"/>
		<g>
			<path fill="#F7F7F7" d="M17.138,6.431l1.753-0.877c0.187-0.094,0.4,0.071,0.356,0.275l-0.164,0.774
				C19.035,6.835,18.831,7,18.595,7H17.25C17.112,7,17,6.888,17,6.75V6.655C17,6.56,17.054,6.473,17.138,6.431z"/>
			<path fill="#FFFFFF" d="M14.862,6.431l-1.753-0.877c-0.187-0.094-0.4,0.071-0.356,0.275l0.164,0.774
				C12.965,6.835,13.169,7,13.405,7h1.345C14.888,7,15,6.888,15,6.75V6.655C15,6.56,14.946,6.473,14.862,6.431z"/>
			<path fill="#D64F45" d="M17.5,6.25l1-0.5v1C18.5,6.888,18.388,7,18.25,7h-0.5c-0.138,0-0.25-0.112-0.25-0.25V6.25z"/>
			<path fill="#DD564C" d="M14.5,6.25l-1-0.5v1C13.5,6.888,13.612,7,13.75,7h0.5c0.138,0,0.25-0.112,0.25-0.25V6.25z"/>
		</g>
		<path fill="#F7D684" d="M4.594,25.352l0.386-4.135c0.012-0.133,0.125-0.231,0.259-0.227c0.496,0.012,1.673,0.222,2.639,1.802
			c0.069,0.113,0.037,0.268-0.073,0.343L4.594,25.352z"/>
		<path fill="#FAE09F" d="M3.594,27.352l0.386-4.135c0.012-0.133,0.125-0.231,0.259-0.227c0.496,0.012,1.673,0.222,2.639,1.802
			c0.069,0.113,0.037,0.268-0.073,0.343L3.594,27.352z"/>
		<path fill="#FDEBBB" d="M2.594,29.352l0.386-4.135c0.012-0.133,0.125-0.231,0.259-0.227c0.496,0.012,1.673,0.222,2.639,1.802
			c0.069,0.113,0.037,0.268-0.073,0.343L2.594,29.352z"/>
		<path fill="#F7D684" d="M10.806,3.322c-0.459,0.504-0.272,1.31,0.353,1.581l4.642,2.012c0.127,0.055,0.271,0.055,0.398,0
			l4.642-2.012c0.625-0.271,0.812-1.077,0.353-1.581C20.287,2.326,18.592,1,16,1S11.713,2.326,10.806,3.322z"/>
		<path fill="#FAE09F" d="M12.233,5.368l3.568,1.546c0.127,0.055,0.271,0.055,0.398,0l3.568-1.546
			c0.632-0.274,0.815-1.096,0.34-1.596C19.339,2.963,18.005,2,16,2s-3.339,0.963-4.108,1.772C11.418,4.272,11.6,5.093,12.233,5.368z
			"/>
		<path fill="#FDEBBB" d="M16.247,0.209c-0.046-0.279-0.447-0.279-0.493,0L15.455,2h-1.153c-0.111,0-0.167,0.135-0.088,0.213
			l1.034,1.034l-0.228,1.367c-0.018,0.109,0.036,0.219,0.137,0.266C15.29,4.942,15.538,5,16,5s0.71-0.058,0.844-0.12
			c0.101-0.047,0.155-0.157,0.137-0.266L16.247,0.209z"/>
		<path fill="#F0C877" d="M16.199,6.914l4.642-2.011c0.625-0.271,0.812-1.077,0.353-1.581C20.287,2.326,18.592,1,16,1v5.955
			C16.068,6.955,16.135,6.941,16.199,6.914z"/>
		<path fill="#F7D684" d="M16.199,6.914l3.568-1.546c0.632-0.274,0.815-1.095,0.34-1.595C19.339,2.963,18.005,2,16,2v4.955
			C16.068,6.955,16.135,6.941,16.199,6.914z"/>
		<path fill="#FAE09F" d="M16.844,4.88c0.101-0.047,0.155-0.157,0.137-0.266l-0.734-4.405C16.223,0.07,16.112,0,16,0v5
			C16.462,5,16.71,4.942,16.844,4.88z"/>
		<path fill="#93C2CA" d="M22.945,22.32c0.063-0.466-0.204-0.917-0.645-1.083l-2.697-1.011c-0.367-0.138-0.781-0.048-1.058,0.229
			l-1.838,1.838c-0.195,0.195-0.451,0.293-0.707,0.293V28C19.567,28,22.511,25.523,22.945,22.32z"/>
		<path fill="#DB7383" d="M17,8.5C17,7.948,16.552,8,16,8v1.5C16,9.5,17,9.052,17,8.5z"/>
	</g>
</g>
</svg>
