<?xml version="1.0" encoding="utf-8"?>
<!-- Generator: Adobe Illustrator 23.0.6, SVG Export Plug-In . SVG Version: 6.00 Build 0)  -->
<svg version="1.1" xmlns="http://www.w3.org/2000/svg" xmlns:xlink="http://www.w3.org/1999/xlink" x="0px" y="0px" width="32px"
	 height="32px" viewBox="0 0 32 32" enable-background="new 0 0 32 32" xml:space="preserve">
<g id="labels">
	<g>
	</g>
</g>
<g id="icons">
	<g>
		<path fill="#99533D" d="M23.992,5.449c-0.003-0.354-0.031-0.715-0.105-1.082c-0.111-0.555-0.315-1.079-0.588-1.563l0.6-2.401
			c0.046-0.183-0.12-0.349-0.303-0.303l-2.4,0.6c-0.464-0.261-0.968-0.458-1.499-0.572c-0.696-0.15-1.373-0.165-2.014-0.068
			c-1.116,0.169-2.25,0.169-3.367,0c-0.641-0.097-1.32-0.082-2.016,0.068c-0.53,0.114-1.033,0.31-1.497,0.572l-2.399-0.6
			c-0.183-0.046-0.349,0.12-0.303,0.303l0.6,2.401C8.429,3.289,8.224,3.813,8.113,4.369C8.04,4.735,8.012,5.095,8.008,5.449
			C6.668,6.111,6,7.444,6,9c0,2.209,1.316,4,4.05,4c1.866,0,3.472-0.845,4.315-2.077c0.579-0.093,1.13-0.27,1.635-0.528
			c0.504,0.258,1.056,0.435,1.635,0.528C18.478,12.155,20.084,13,21.95,13C24.684,13,26,11.209,26,9
			C26,7.444,25.332,6.111,23.992,5.449z"/>
		<path fill="#914C39" d="M23.992,5.449c-0.003-0.354-0.031-0.715-0.105-1.082c-0.111-0.555-0.315-1.079-0.588-1.563l0.6-2.401
			c0.046-0.183-0.12-0.349-0.303-0.303l-2.4,0.6c-0.464-0.261-0.968-0.458-1.499-0.572c-0.696-0.15-1.373-0.165-2.014-0.068
			C17.125,0.146,16.563,0.188,16,0.188v10.207c0.504,0.258,1.056,0.435,1.635,0.528C18.478,12.155,20.084,13,21.95,13
			C24.684,13,26,11.209,26,9C26,7.444,25.332,6.111,23.992,5.449z"/>
		<path fill="#8C4430" d="M16,29c-0.552,0-1-0.448-1-1s0.448-1,1-1c11,0,11-15.256,11-21c0-0.552,0.448-1,1-1s1,0.448,1,1
			C29,12.291,29,29,16,29z"/>
		<path fill="#99533D" d="M16,9c-1.437,0-2.755,1.597-3.788,3.853C10.598,14.021,7.064,17.112,7,21.841
			c-0.004,0.306,0.127,0.604,0.344,0.821c0.628,0.627,1.707,0.342,1.92-0.52c0.18-0.73,0.493-1.574,0.998-2.423
			C10.093,20.865,10,21.983,10,23c0,0.442,0.023,0.841,0.057,1.221C10.021,24.632,10,25.059,10,25.5c0,3.038,2.001,5.5,3,5.5
			c0.64,0,0.873-0.831,0.957-2.118C14.595,28.973,15.281,29,16,29c3.314,0,6-0.477,6-6C22,17.477,19.314,9,16,9z"/>
		<path fill="#914C39" d="M19.788,12.853C18.755,10.597,17.437,9,16,9v20c0.72,0,1.406-0.027,2.046-0.119
			C18.129,30.169,18.362,31,19.003,31c0.999,0,3-2.462,3-5.5c0-0.446-0.021-0.877-0.058-1.292C21.977,23.832,22,23.437,22,23
			c0-1.017-0.093-2.135-0.262-3.281c0.505,0.849,0.818,1.693,0.998,2.423c0.213,0.862,1.292,1.147,1.92,0.52
			c0.217-0.217,0.348-0.514,0.344-0.821C24.936,17.112,21.402,14.021,19.788,12.853z"/>
		<path fill="#EACEA1" d="M18.053,29l1.45,0.5l1.636-0.5c-0.337,0.64-0.736,1.153-1.129,1.502l1.615,0.404
			c0.223,0.056,0.379,0.256,0.379,0.485v0.11c0,0.276-0.224,0.5-0.5,0.5h-3c-0.276,0-0.5-0.224-0.5-0.5V29H18.053z"/>
		<polygon fill="#EFD4A7" points="19,15 16,18 13,15 14,10 18,10 		"/>
		<path fill="#EFD4A7" d="M13.95,29l-1.45,0.5L10.864,29c0.337,0.64,0.736,1.153,1.129,1.502l-1.615,0.404
			C10.156,30.961,10,31.161,10,31.39v0.11c0,0.276,0.224,0.5,0.5,0.5h3c0.276,0,0.5-0.224,0.5-0.5V29H13.95z"/>
		<path fill="#F7C845" d="M16,22c-3.384,0-5.432-0.762-5.897-0.955c0.058-0.611,0.143-1.237,0.25-1.871
			c0.596,0.255,2.012,0.708,4.626,0.805l-2.834-2.834c-0.084-0.084-0.216-0.097-0.315-0.031l-1.242,0.828
			c0.306-1.437,0.718-2.858,1.22-4.134L16,18v2h0c3.281,0,4.977-0.54,5.647-0.826c0.106,0.634,0.191,1.26,0.25,1.871
			C21.432,21.238,19.384,22,16,22z M16,24c-4.461,0-6-1-6-1c0,0.442,0.023,0.841,0.057,1.221c-0.03,0.349-0.043,0.716-0.048,1.087
			C11.24,25.601,13.543,26,16,26c2.324,0,4.506-0.356,5.778-0.643C21.919,24.695,22,23.923,22,23C21.999,23,20.46,24,16,24z"/>
		<path fill="#FAC042" d="M28.476,15c0.099-0.674,0.187-1.344,0.251-2h-2.019c-0.07,0.659-0.163,1.329-0.27,2H28.476z"/>
		<path fill="#F0C13E" d="M21.945,24.208c0.031,0.354,0.044,0.724,0.049,1.1C20.763,25.601,18.458,26,16,26v-2h0c4.46,0,5.999-1,6-1
			C22,23.437,21.977,23.832,21.945,24.208z M21.647,19.174c-0.596,0.255-2.012,0.708-4.626,0.805l2.834-2.834
			c0.084-0.084,0.216-0.097,0.315-0.031l1.242,0.828c-0.306-1.437-0.718-2.858-1.22-4.134L16,18v2h0v2
			c3.384,0,5.432-0.762,5.897-0.955C21.839,20.434,21.754,19.807,21.647,19.174z"/>
		<polygon fill="#EACEA1" points="16,10 16,18 19,15 18,10 		"/>
		<path fill="#4F4949" d="M12.596,1.09C10.234,1.572,8.54,3.881,9.111,6.492c0.333,1.523,1.506,2.781,2.99,3.259
			c1.375,0.443,2.651,0.195,3.684-0.419l-2.635-7.904C13.073,1.195,12.836,1.041,12.596,1.09z"/>
		<path fill="#413B3B" d="M18.849,1.452l-2.635,7.904c1.033,0.614,2.309,0.861,3.684,0.419c1.484-0.478,2.657-1.735,2.99-3.259
			c0.571-2.611-1.123-4.92-3.484-5.402C19.164,1.065,18.927,1.22,18.849,1.452z"/>
		<path fill="#E9746A" d="M13.339,2.016C11.482,2.102,10,3.622,10,5.5C10,7.433,11.567,9,13.5,9c0.729,0,1.405-0.224,1.965-0.605
			L13.339,2.016z"/>
		<path fill="#E7685F" d="M18.661,2.016l-2.126,6.379C17.095,8.776,17.771,9,18.5,9C20.433,9,22,7.433,22,5.5
			C22,3.622,20.518,2.102,18.661,2.016z"/>
		<path fill="#FFE28A" d="M13.673,3.017C13.615,3.013,13.559,3,13.5,3C12.119,3,11,4.119,11,5.5C11,6.881,12.119,8,13.5,8
			c0.625,0,1.19-0.238,1.628-0.617L13.673,3.017z"/>
		<path fill="#FFD96C" d="M18.5,3c-0.059,0-0.115,0.013-0.173,0.017l-1.455,4.366C17.311,7.762,17.875,8,18.5,8
			C19.881,8,21,6.881,21,5.5C21,4.119,19.881,3,18.5,3z"/>
		<path fill="#E9746A" d="M14.034,4.102C13.868,4.039,13.689,4,13.5,4C12.672,4,12,4.672,12,5.5S12.672,8,13.5,8
			c0.534,0,1.266-1.702,1.266-1.702L14.034,4.102z"/>
		<path fill="#E7685F" d="M18.5,4c-0.189,0-0.368,0.039-0.534,0.102l-0.732,2.195c0,0,0.732,1.702,1.266,1.702
			C19.328,8,20,6.328,20,5.5S19.328,4,18.5,4z"/>
		<ellipse fill="#373F3F" cx="13.5" cy="5.75" rx="0.5" ry="0.75"/>
		<path fill="#F5DEB9" d="M22,6c-1.202,0-2.267,0.406-3,1.035C18.267,6.406,17.202,6,16,6s-2.267,0.406-3,1.035
			C12.267,6.406,11.201,6,10,6C7.791,6,7,7.343,7,9s0.791,3,3,3c1.202,0,2.267-0.406,3-1.035C13.733,11.594,14.798,12,16,12
			s2.267-0.406,3-1.035C19.733,11.594,20.798,12,22,12c2.209,0,3-1.343,3-3S24.209,6,22,6z"/>
		<path fill="#EFD4A7" d="M22,6c-1.202,0-2.267,0.406-3,1.035C18.267,6.406,17.202,6,16,6v6c1.202,0,2.267-0.406,3-1.035
			C19.733,11.594,20.798,12,22,12c2.209,0,3-1.343,3-3S24.209,6,22,6z"/>
		<ellipse fill="#2B3332" cx="18.5" cy="5.75" rx="0.5" ry="0.75"/>
		<path fill="#4F4949" d="M15.6,7.467c0.2,0.267,0.6,0.267,0.8,0l0.958-1.287C16.932,6.064,16.479,6,16,6s-0.932,0.064-1.358,0.179
			L15.6,7.467z"/>
		<path fill="#FFFFFF" d="M17.5,9c0,0.622-0.846,1.156-1.268,1.383c-0.145,0.078-0.32,0.078-0.465,0
			C15.346,10.156,14.5,9.622,14.5,9L16,8L17.5,9z"/>
		<path fill="#F7F7F7" d="M16.233,10.383C16.654,10.156,17.5,9.622,17.5,9L16,8v2.442C16.08,10.442,16.16,10.422,16.233,10.383z"/>
		<path fill="#FCE8CC" d="M30.638,5.319L30,5l0.757-1.514c0.096-0.191-0.077-0.406-0.284-0.354L29,3.5l-0.792-1.188
			c-0.099-0.148-0.317-0.148-0.416,0L27,3.5l-1.473-0.368c-0.207-0.052-0.38,0.163-0.284,0.354L26,5l-0.638,0.319
			c-0.166,0.083-0.187,0.312-0.038,0.424l1.675,1.257L26.998,7c-0.003,0.606-0.032,1.26-0.032,2h2.002
			c0.019-0.721,0.027-1.391,0.03-2H29l1.676-1.257C30.825,5.631,30.804,5.402,30.638,5.319z"/>
		<path fill="#FAC042" d="M26.803,12h2.012c0.054-0.69,0.092-1.359,0.119-2H26.93C26.902,10.641,26.86,11.312,26.803,12z"/>
		<path fill="#413B3B" d="M16.4,7.467l0.958-1.287C16.932,6.064,16.479,6,16,6v1.667C16.15,7.667,16.3,7.6,16.4,7.467z"/>
	</g>
</g>
</svg>
