<?xml version="1.0" encoding="utf-8"?>
<!-- Generator: Adobe Illustrator 23.0.6, SVG Export Plug-In . SVG Version: 6.00 Build 0)  -->
<svg version="1.1" xmlns="http://www.w3.org/2000/svg" xmlns:xlink="http://www.w3.org/1999/xlink" x="0px" y="0px" width="32px"
	 height="32px" viewBox="0 0 32 32" enable-background="new 0 0 32 32" xml:space="preserve">
<g id="labels">
	<g>
	</g>
</g>
<g id="icons">
	<g>
		<path fill="#6E57A0" d="M15.791,20c0,0,5.461,3.438,10,0s1.955-8.419,2-11c0.043-2.48,0.696-5.735,3.631-5.985
			C31.6,3,31.707,2.81,31.623,2.653c-0.372-0.698-1.372-2.234-3.117-2.582c-0.239-0.048-0.392,0.251-0.22,0.424L28.791,1
			c0,0-1.631-0.531-3.738,1.71c-0.126,0.134-0.073,0.354,0.101,0.412L27.791,4c0,0-1.712,1.877-1,6s1.107,6.949-2,9s-9-1-9-1V20z"/>
		<path fill="#F0C13E" d="M22,25c-1,2.38-0.895,4.105-0.721,4.279l0.514,0.514c0.133,0.133,0.207,0.312,0.207,0.5v0
			C22,30.683,21.683,31,21.293,31h-1.586C19.317,31,19,30.683,19,30.293V25v-4l3-1C22,20,23,22.62,22,25z"/>
		<path fill="#F7C845" d="M10,25c1,2.38,0.895,4.105,0.721,4.279l-0.514,0.514C10.074,29.926,10,30.105,10,30.293v0
			C10,30.683,10.317,31,10.707,31h1.586C12.683,31,13,30.683,13,30.293V25v-4l-3-1C10,20,9,22.62,10,25z"/>
		<path fill="#745DA6" d="M22.994,14.137c0,0,2.089,6.06-1.359,11.863L21,24L22.994,14.137z"/>
		<path fill="#7A63AD" d="M9.006,14.137c0,0-2.089,6.06,1.359,11.863L11,24L9.006,14.137z"/>
		<g>
			<path fill="#FFD04D" d="M20,26c-1,2.38-0.895,4.105-0.721,4.279l0.514,0.514c0.133,0.133,0.207,0.312,0.207,0.5v0
				C20,31.683,19.683,32,19.293,32h-1.586C17.317,32,17,31.683,17,31.293V26v-4l3-1C20,21,21,23.62,20,26z"/>
			<g>
				<path fill="#81689A" d="M16,2c2.753,0,4,1,4,1s1.34-2.008,3.681-2.889c0.156-0.059,0.333,0.063,0.345,0.23
					C24.669,9.282,23.037,10.522,23,13c-0.037,2.509-0.014,2.61,0,5c0.024,4.171-3,8-3,8l-1-3l-2,3v-2.69
					c0-0.87,0.114-1.736,0.338-2.577L18,18.25c0-0.138,0.112-0.25,0.25-0.25h0.345c0.186,0,0.307-0.196,0.224-0.362L18.27,16.54
					c-0.1-0.199,0.091-0.419,0.303-0.349l0.318,0.106c0.216,0.072,0.408-0.159,0.298-0.359l-2.116-3.81
					C17.027,12.049,16.944,12,16.853,12H16V2z"/>
			</g>
		</g>
		<path fill="#FFD96C" d="M12,26c1,2.38,0.895,4.105,0.721,4.279l-0.514,0.514C12.074,30.926,12,31.105,12,31.293v0
			C12,31.683,12.317,32,12.707,32h1.586C14.683,32,15,31.683,15,31.293V26v-4l-3-1C12,21,11,23.62,12,26z"/>
		<ellipse fill="#FFD04D" cx="16" cy="17.5" rx="6" ry="5.5"/>
		<path fill="#F7C845" d="M22,17.5c0-3.645-2.134-5.5-6-5.5v11C19.866,23,22,21.145,22,17.5z"/>
		<path fill="#866EBA" d="M23.674,0.113C21.338,0.996,20,3,20,3s-1.247-1-4-1s-4,1-4,1s-1.338-2.004-3.674-2.887
			c-0.16-0.06-0.339,0.064-0.352,0.234C7.332,9.282,8.963,10.523,9,13c0.037,2.509,0.014,2.61,0,5c-0.024,4.171,3,8,3,8l0.838-2.515
			c0.066-0.197,0.33-0.233,0.445-0.06L15,26v-2.689c0-0.87-0.114-1.736-0.338-2.577L14,18.25c0-0.138-0.112-0.25-0.25-0.25h-0.346
			c-0.186,0-0.307-0.196-0.224-0.362l0.549-1.098c0.1-0.199-0.091-0.419-0.303-0.349l-0.318,0.106
			c-0.216,0.072-0.408-0.159-0.298-0.359l2.116-3.81C14.973,12.049,15.056,12,15.147,12H16h0.853c0.091,0,0.174,0.049,0.219,0.129
			l2.116,3.81c0.111,0.199-0.081,0.431-0.298,0.359l-0.318-0.106c-0.211-0.071-0.402,0.15-0.303,0.349l0.549,1.098
			C18.902,17.804,18.781,18,18.596,18H18.25C18.112,18,18,18.112,18,18.25l-0.662,2.484C17.114,21.574,17,22.441,17,23.311V26l2-3
			l1,3c0,0,3.024-3.829,3-8c-0.014-2.39-0.037-2.491,0-5c0.037-2.477,1.668-3.718,1.026-12.652
			C24.014,0.178,23.834,0.053,23.674,0.113z"/>
		<path fill="#7A63AD" d="M16.853,12c0.091,0,0.174,0.049,0.219,0.129l2.116,3.81c0.111,0.199-0.081,0.431-0.298,0.359l-0.318-0.106
			c-0.211-0.071-0.402,0.15-0.303,0.349l0.549,1.098C18.902,17.804,18.781,18,18.596,18H18.25C18.112,18,18,18.112,18,18.25
			l-0.662,2.484C17.114,21.574,17,22.441,17,23.311V26l1.716-2.575c0.115-0.173,0.379-0.138,0.445,0.06L20,26c0,0,3.024-3.829,3-8
			c-0.014-2.39-0.037-2.491,0-5c0.037-2.477,1.668-3.718,1.026-12.652c-0.012-0.17-0.192-0.295-0.352-0.234C21.338,0.996,20,3,20,3
			s-1.247-1-4-1v10H16.853z"/>
		<g>
			<path fill="#DF75B8" d="M15,9c0,0-0.891-1.891-2-3c-0.923-0.923-2.774-3.081-3.704-3.778C9.152,2.113,8.948,2.187,8.908,2.364
				C8.721,3.185,8.363,5.25,9,7c0.384,1.054,0.849,1.78,1.234,2.254C10.618,9.725,11.187,10,11.795,10H15V9z"/>
			<path fill="#FFFFFF" d="M15,9l-4.605-2.763c-0.172-0.103-0.391,0.025-0.379,0.225C10.08,7.514,10.401,10,12,10c2.028,0,3,0,3,0V9
				z"/>
			<path fill="#54B668" d="M13.906,8.344l-2.812-1.688C11.036,6.921,11,7.202,11,7.5c0,1.381,0.672,2.5,1.5,2.5
				C13.15,10,13.698,9.307,13.906,8.344z"/>
			<path fill="#373F3F" d="M12.038,7.223C12.016,7.39,12,7.565,12,7.75c0,0.967,0.336,1.75,0.75,1.75
				c0.364,0,0.667-0.606,0.735-1.409L12.038,7.223z"/>
		</g>
		<path fill="#D672AB" d="M17,9c0,0,0.891-1.891,2-3c0.923-0.923,2.774-3.081,3.704-3.778c0.145-0.109,0.348-0.035,0.388,0.142
			C23.279,3.185,23.637,5.25,23,7c-0.384,1.054-0.849,1.78-1.234,2.254C21.382,9.725,20.813,10,20.205,10H17V9z"/>
		<path fill="#F7F7F7" d="M17,9l4.605-2.763c0.172-0.103,0.391,0.025,0.379,0.225C21.92,7.514,21.599,10,20,10c-2.028,0-3,0-3,0V9z"
			/>
		<path fill="#4EAC5D" d="M18.094,8.344l2.812-1.688C20.964,6.921,21,7.202,21,7.5c0,1.381-0.672,2.5-1.5,2.5
			C18.85,10,18.302,9.307,18.094,8.344z"/>
		<path fill="#2B3332" d="M19.962,7.223C19.984,7.39,20,7.565,20,7.75c0,0.967-0.336,1.75-0.75,1.75
			c-0.364,0-0.667-0.606-0.735-1.409L19.962,7.223z"/>
		<ellipse fill="#FFD96C" cx="16" cy="12.5" rx="2" ry="1.5"/>
		<path fill="#DF75B8" d="M17,10l-0.823,0.823c-0.098,0.098-0.256,0.098-0.354,0L15,10l-1-2l1.106,0.553
			c0.563,0.282,1.226,0.282,1.789,0L18,8L17,10z"/>
		<path fill="#D672AB" d="M16,8.764v2.133c0.064,0,0.128-0.024,0.177-0.073L17,10l1-2l-1.106,0.553
			C16.613,8.694,16.306,8.764,16,8.764z"/>
		<path fill="#FFD04D" d="M18,12.5c0-0.828-0.895-1.5-2-1.5v3C17.105,14,18,13.328,18,12.5z"/>
		<path fill="#F7C845" d="M23.5,19c-0.827,0-1.5-0.673-1.5-1.5c0-0.799,0.63-1.448,1.418-1.492c-0.06-0.379-0.124-0.708-0.186-0.981
			C21.979,15.163,21,16.211,21,17.5c0,1.381,1.119,2.5,2.5,2.5c0.017,0,0.032-0.005,0.049-0.005
			c0.031-0.345,0.052-0.681,0.061-1.006C23.573,18.992,23.538,19,23.5,19z"/>
		<path fill="#FFD04D" d="M8.768,15.027c-0.062,0.273-0.126,0.602-0.186,0.981C9.37,16.052,10,16.701,10,17.5
			c0,0.827-0.673,1.5-1.5,1.5c-0.038,0-0.073-0.008-0.11-0.011c0.009,0.325,0.03,0.661,0.061,1.006C8.468,19.995,8.483,20,8.5,20
			c1.381,0,2.5-1.119,2.5-2.5C11,16.211,10.021,15.163,8.768,15.027z"/>
		<path fill="#FFE28A" d="M18.5,10L17,10l-0.823,0.823c-0.098,0.098-0.256,0.098-0.354,0L15,10h-1.5c0,0-2.5-1.065-2.5,1s5,1,5,1
			s5,1.065,5-1S18.5,10,18.5,10z"/>
		<path fill="#FFD96C" d="M21,11c0-2.065-2.5-1-2.5-1H17l-0.823,0.823c-0.049,0.049-0.113,0.073-0.177,0.073V12
			C16,12,21,13.065,21,11z"/>
		<path fill="#FFEAA7" d="M13,10.75c-4.314,0-6.114-2-6.188-2.085C6.721,8.561,6.731,8.404,6.835,8.312
			c0.104-0.091,0.262-0.081,0.353,0.022C7.205,8.354,8.93,10.25,13,10.25c0.138,0,0.25,0.112,0.25,0.25S13.138,10.75,13,10.75z"/>
		<path fill="#FFEAA7" d="M13,11.75c-4.267,0-6.05-0.991-6.124-1.033c-0.12-0.068-0.161-0.221-0.093-0.34
			c0.068-0.121,0.22-0.162,0.341-0.094C7.141,10.292,8.887,11.25,13,11.25c0.138,0,0.25,0.112,0.25,0.25S13.138,11.75,13,11.75z"/>
		<path fill="#FFE28A" d="M19,10.75c-0.138,0-0.25-0.112-0.25-0.25s0.112-0.25,0.25-0.25c4.07,0,5.795-1.896,5.812-1.915
			c0.091-0.104,0.25-0.113,0.353-0.022c0.104,0.091,0.114,0.249,0.023,0.352C25.114,8.75,23.314,10.75,19,10.75z"/>
		<path fill="#FFE28A" d="M19,11.75c-0.138,0-0.25-0.112-0.25-0.25s0.112-0.25,0.25-0.25c4.113,0,5.859-0.958,5.876-0.967
			c0.12-0.068,0.271-0.026,0.341,0.094c0.068,0.12,0.026,0.272-0.093,0.34C25.05,10.759,23.267,11.75,19,11.75z"/>
	</g>
</g>
</svg>
