<?xml version="1.0" encoding="utf-8"?>
<!-- Generator: Adobe Illustrator 23.0.6, SVG Export Plug-In . SVG Version: 6.00 Build 0)  -->
<svg version="1.1" xmlns="http://www.w3.org/2000/svg" xmlns:xlink="http://www.w3.org/1999/xlink" x="0px" y="0px" width="32px"
	 height="32px" viewBox="0 0 32 32" enable-background="new 0 0 32 32" xml:space="preserve">
<g id="labels">
	<g>
	</g>
</g>
<g id="icons">
	<g>
		<path fill="#D64F3C" d="M32,23.5c0-1.135-0.858-1.983-1.276-2.762c-0.099-0.184-0.348-0.185-0.446-0.001
			c-0.399,0.745-1.203,1.554-1.272,2.616c-0.039,0.589,0.234,1.124,0.704,1.416c-0.489,0.732-1.556,1.937-3.707,2.944
			c-3.334,1.565-7.771-0.417-7.816-0.437l-0.455-0.207l-0.414,0.909l0.455,0.207c0.169,0.078,3.626,1.625,6.975,0.973
			c0.568-0.111,1.134-0.285,1.68-0.54c2.702-1.265,3.877-2.833,4.336-3.647C31.465,24.845,32,24.238,32,23.5z"/>
		<path fill="#E56142" d="M23,14c0,2.761,0.567,4,2.5,4s4.5-1.239,4.5-4s-1.567-5-3.5-5S23,11.239,23,14z"/>
		<path fill="#F7BC48" d="M27.38,11.413c-0.656,0.535-0.899,1.143-0.969,1.633c1.049,0.219,1.797,1.26,1.537,2.419
			c-0.163,0.727-0.751,1.318-1.476,1.484C25.162,17.248,24,16.261,24,15.003c0-3.383,2.053-3.972,3.218-4.034
			C27.458,10.956,27.566,11.261,27.38,11.413z"/>
		<path fill="#EB6B48" d="M9,14c0,2.761-0.567,4-2.5,4S2,16.761,2,14s1.567-5,3.5-5S9,11.239,9,14z"/>
		<ellipse fill="#EB6B48" cx="16" cy="14.5" rx="8" ry="6.5"/>
		<path fill="#E56142" d="M24,14.5c0-3.59-3.14-6.5-8-6.5v13C20.86,21,24,18.09,24,14.5z"/>
		<polygon fill="#F7D684" points="19,27 13,27 14,20 18,20 		"/>
		<polygon fill="#F0C877" points="16,27 19,27 18,20 16,20 		"/>
		<path fill="#FAE09F" d="M19.5,14c-0.356,0-0.701,0.042-1.031,0.121c-1.635,0.392-3.302,0.392-4.938,0
			C13.201,14.042,12.856,14,12.5,14c-1.498,0-2.9,3.21-1.695,5.563C12.145,20.46,13.912,21,16,21s3.855-0.54,5.195-1.437
			C22.4,17.21,20.998,14,19.5,14z"/>
		<ellipse fill="#FFFFFF" cx="12" cy="14.5" rx="2" ry="2.5"/>
		<path fill="#F7D684" d="M14.621,21.592l-3.282,0.821c-0.463,0.116-0.952,0.062-1.379-0.151l-2.593-1.296
			c-0.484-0.242-0.876-0.634-1.118-1.118l-0.26-0.52c-0.181-0.362-0.663-0.44-0.949-0.154l0,0c-0.231,0.231-0.231,0.606,0,0.838
			l0.581,0.581L5.31,20.282c-0.743-0.743-2.014-0.392-2.268,0.628l-0.001,0.002c-0.213,0.854,0.432,1.681,1.312,1.681l0.786,0
			c0.318,0,0.633,0.061,0.928,0.179l2.885,1.154c1.061,0.424,2.252,0.375,3.274-0.136l2.393-1.197V21.592z"/>
		<path fill="#F0C877" d="M17.379,21.592l3.282,0.821c0.463,0.116,0.952,0.062,1.379-0.151l2.593-1.296
			c0.484-0.242,0.876-0.634,1.118-1.118l0.26-0.52c0.181-0.362,0.663-0.44,0.949-0.154v0c0.231,0.231,0.231,0.606,0,0.838
			l-0.581,0.581l0.311-0.311c0.743-0.743,2.014-0.392,2.268,0.628l0.001,0.002c0.213,0.854-0.432,1.681-1.312,1.681l-0.786,0
			c-0.318,0-0.633,0.061-0.928,0.179l-2.885,1.154c-1.061,0.424-2.252,0.375-3.274-0.136l-2.393-1.197V21.592z"/>
		<path fill="#EB6B48" d="M20,31c0,0,2-1.452,2-3s-3-1-3-1l-0.823-0.823c-0.098-0.098-0.256-0.098-0.354,0l-0.646,0.646
			c-0.098,0.098-0.256,0.098-0.354,0l-0.646-0.646c-0.098-0.098-0.256-0.098-0.354,0l-0.646,0.646c-0.098,0.098-0.256,0.098-0.354,0
			l-0.646-0.646c-0.098-0.098-0.256-0.098-0.354,0L13,27c0,0-3-0.548-3,1s2,3,2,3s-2.321-0.401-2.059,0.807
			C9.966,31.92,10.07,32,10.186,32H14c1.44,0,0-1.351,0-2s0.621-1,2-1s2,0.351,2,1s-1.44,2,0,2h3.814c0.116,0,0.22-0.08,0.245-0.193
			C22.321,30.599,20,31,20,31z"/>
		<path fill="#F7D684" d="M21.195,19.563C22.4,17.21,20.998,14,19.5,14c-0.356,0-0.701,0.042-1.031,0.121
			c-0.818,0.196-1.643,0.294-2.469,0.294V21C18.088,21,19.855,20.46,21.195,19.563z"/>
		<ellipse fill="#F7F7F7" cx="20" cy="14.5" rx="2" ry="2.5"/>
		<path fill="#EB6B48" d="M15.713,0.321C12.353,4.351,18.923,7.077,16,10c2.761,0,5-1.239,5-4c0-3.709-3.901-3.175-4.872-5.593
			C16.058,0.233,15.833,0.177,15.713,0.321z"/>
		<circle fill="#FF805D" cx="16" cy="7" r="3"/>
		<path fill="#F57552" d="M19,7c0-1.657-1.343-3-3-3v6C17.657,10,19,8.657,19,7z"/>
		<path fill="#FFC550" d="M4.62,11.413c0.656,0.535,0.899,1.143,0.969,1.633c-1.049,0.219-1.797,1.26-1.537,2.419
			c0.163,0.727,0.751,1.318,1.476,1.484C6.838,17.248,8,16.261,8,15.003c0-3.383-2.053-3.972-3.218-4.034
			C4.542,10.956,4.434,11.261,4.62,11.413z"/>
		<path fill="#E56142" d="M18,30c0,0.649-1.44,2,0,2h3.814c0.116,0,0.22-0.08,0.245-0.193C22.321,30.599,20,31,20,31s2-1.452,2-3
			s-3-1-3-1l-0.823-0.823c-0.098-0.098-0.256-0.098-0.354,0l-0.646,0.646c-0.098,0.098-0.256,0.098-0.354,0l-0.646-0.646
			c-0.049-0.049-0.113-0.073-0.177-0.073V29C17.379,29,18,29.351,18,30z"/>
		<path fill="#373F3F" d="M12,12c-0.039,0-0.076,0.009-0.114,0.011C11.648,12.345,11.5,12.842,11.5,13.5c0,1.325,0.597,2,1.333,2
			c0.503,0,0.936-0.323,1.163-0.945C13.996,14.536,14,14.52,14,14.5C14,12.843,13.105,12,12,12z"/>
		<path fill="#2B3332" d="M18,14.5c0,0.02,0.004,0.036,0.004,0.055c0.227,0.622,0.66,0.945,1.163,0.945c0.736,0,1.333-0.675,1.333-2
			c0-0.658-0.148-1.155-0.386-1.489C20.076,12.009,20.039,12,20,12C18.895,12,18,12.843,18,14.5z"/>
		<ellipse fill="#373F3F" cx="16" cy="17.5" rx="1" ry="0.5"/>
		<path fill="#2B3332" d="M17,17.5c0-0.276-0.448-0.5-1-0.5v1C16.552,18,17,17.776,17,17.5z"/>
	</g>
</g>
</svg>
