<?xml version="1.0" encoding="utf-8"?>
<!-- Generator: Adobe Illustrator 23.0.6, SVG Export Plug-In . SVG Version: 6.00 Build 0)  -->
<svg version="1.1" xmlns="http://www.w3.org/2000/svg" xmlns:xlink="http://www.w3.org/1999/xlink" x="0px" y="0px" width="32px"
	 height="32px" viewBox="0 0 32 32" enable-background="new 0 0 32 32" xml:space="preserve">
<g id="labels">
	<g>
	</g>
</g>
<g id="icons">
	<g>
		<path fill="#DD583E" d="M29,22c0-3.709-3.901-3.175-4.872-5.593c-0.07-0.174-0.295-0.23-0.415-0.086
			c-1.146,1.374-1.136,2.596-0.743,3.726C22.813,20.031,22.661,20,22.5,20c-2.485,0-4.5,2.015-4.5,4.5s2.015,4.5,4.5,4.5
			c2.178,0,3.994-1.548,4.41-3.603C28.171,24.778,29,23.673,29,22z"/>
		<path fill="#E56142" d="M25,20c-0.909-1.019-1.082-2.636-1.079-3.754c-0.075-0.011-0.152,0.009-0.208,0.075
			c-1.146,1.374-1.136,2.596-0.743,3.726C22.813,20.031,22.661,20,22.5,20c-2.485,0-4.5,2.015-4.5,4.5C23,28.268,26.365,21.53,25,20
			z"/>
		<circle fill="#E3E5E5" cx="20.5" cy="16.5" r="1.5"/>
		<circle fill="#EDEEEE" cx="11.5" cy="16.5" r="1.5"/>
		<path fill="#F7D684" d="M7.971,26.005L7.72,25h-2L5.03,27.757C4.873,28.389,5.35,29,6.001,29h1.438
			c0.651,0,1.128-0.611,0.97-1.243l-0.121-0.485C8.837,27.492,9.602,27.668,9.72,27C9.868,26.159,8.532,26.025,7.971,26.005z"/>
		<path fill="#EB6B48" d="M8.391,19.001C6.789,20.315,5.896,22.333,5.72,25l0,0.001L5.03,27.757C5.01,27.839,5.001,27.92,5.001,28
			h3.438c0-0.08-0.009-0.161-0.029-0.243l-0.121-0.485c0.124,0.05,0.259,0.096,0.395,0.132v-1.32
			c-0.267-0.05-0.53-0.072-0.712-0.079L7.722,25.01c0.155-2.026,0.798-3.523,1.926-4.453c1.954-1.613,4.813-1.082,4.841-1.077
			l0.39-1.961C14.726,17.488,11.087,16.792,8.391,19.001z"/>
		<path fill="#F0C877" d="M24.029,26.005L24.28,25h2l0.689,2.757C27.127,28.389,26.65,29,26,29h-1.438
			c-0.651,0-1.128-0.611-0.97-1.243l0.121-0.485c-0.549,0.22-1.314,0.396-1.432-0.272C22.132,26.159,23.468,26.025,24.029,26.005z"
			/>
		<path fill="#EB6B48" d="M23.609,19.001c1.602,1.313,2.495,3.331,2.671,5.999l0,0.001l0.689,2.757
			c0.02,0.082,0.029,0.163,0.029,0.243h-3.438c0-0.08,0.009-0.161,0.029-0.243l0.121-0.485c-0.124,0.05-0.259,0.096-0.395,0.132
			v-1.32c0.267-0.05,0.53-0.072,0.712-0.079l0.249-0.994c-0.155-2.026-0.798-3.523-1.926-4.453
			c-1.954-1.613-4.813-1.082-4.841-1.077l-0.39-1.961C17.274,17.488,20.913,16.792,23.609,19.001z"/>
		<path fill="#F7D684" d="M21,23.5c0,2.485-2.239,4.25-5,4.25s-5-1.765-5-4.25c0-3.92,5-6.537,5-9.5C16,16.963,21,19.619,21,23.5z"
			/>
		<path fill="#F0C877" d="M21,23.5c0-3.881-5-6.537-5-9.5v13.75C18.761,27.75,21,25.985,21,23.5z"/>
		<path fill="#EB6B48" d="M20.732,25.94c-0.099-0.115-0.221-0.205-0.341-0.298c0.152-0.26,0.287-0.53,0.381-0.817l-0.596-0.596
			c-0.098-0.098-0.256-0.098-0.354,0l-0.646,0.646c-0.098,0.098-0.256,0.098-0.354,0l-0.646-0.646c-0.098-0.098-0.256-0.098-0.354,0
			l-0.646,0.646c-0.098,0.098-0.256,0.098-0.354,0l-0.646-0.646c-0.098-0.098-0.256-0.098-0.354,0l-0.646,0.646
			c-0.098,0.098-0.256,0.098-0.354,0l-0.646-0.646c-0.098-0.098-0.256-0.098-0.354,0l-0.646,0.646c-0.098,0.098-0.256,0.098-0.354,0
			l-0.646-0.646c-0.098-0.098-0.256-0.098-0.354,0l-0.596,0.596c0.095,0.287,0.229,0.557,0.381,0.817
			c-0.12,0.093-0.242,0.184-0.341,0.298c-0.789,0.911-0.608,2.154-0.434,3.356C10.916,29.856,11,30.435,11,31h2
			c0-0.709-0.099-1.39-0.186-1.991c-0.047-0.32-0.057-0.726-0.055-1.067c0.002-0.339,0.335-0.576,0.656-0.468
			C14.122,27.712,14.961,28,16,28s1.878-0.288,2.585-0.525c0.321-0.108,0.654,0.129,0.656,0.468
			c0.002,0.341-0.008,0.746-0.055,1.067C19.099,29.61,19,30.291,19,31h2c0-0.565,0.084-1.144,0.166-1.704
			C21.34,28.094,21.521,26.851,20.732,25.94z"/>
		<circle fill="#F7F7F7" cx="13" cy="18" r="2"/>
		<circle fill="#EDEEEE" cx="19" cy="18" r="2"/>
		
			<ellipse transform="matrix(0.8742 -0.4855 0.4855 0.8742 -4.8829 5.1507)" fill="#EB6B48" cx="7.5" cy="12" rx="3.253" ry="4.203"/>
		<path fill="#FFC550" d="M5.867,9.259C7.436,9.08,9.977,9.795,10,12.5c0,1.104-0.895,2-2,2s-2-0.896-2-2
			c0-0.841,0.521-1.558,1.257-1.854C6.933,10.31,6.475,9.988,5.812,9.74C5.569,9.649,5.609,9.288,5.867,9.259z"/>
		
			<ellipse transform="matrix(0.4855 -0.8742 0.8742 0.4855 2.114 27.5923)" fill="#E56142" cx="24.5" cy="12" rx="4.203" ry="3.253"/>
		<path fill="#F7BC48" d="M26.133,9.259C24.564,9.08,22.023,9.795,22,12.5c0,1.104,0.895,2,2,2s2-0.896,2-2
			c0-0.841-0.521-1.558-1.257-1.854c0.324-0.336,0.782-0.659,1.445-0.906C26.431,9.649,26.391,9.288,26.133,9.259z"/>
		<path fill="#EB6B48" d="M23,11.963c0,2.761-2.582,4.75-7,4.75s-7-1.989-7-4.75s2.582-5,7-5S23,9.201,23,11.963z"/>
		<path fill="#E56142" d="M23,11.963c0-2.761-2.582-5-7-5v9.75C20.418,16.713,23,14.724,23,11.963z"/>
		<path fill="#FAE09F" d="M16,12c-4.321,0-6.417-0.081-6.892,0.906c0.524,2.31,2.99,4.056,6.892,4.056s6.368-1.746,6.892-4.056
			C22.417,11.919,20.321,12,16,12z"/>
		<path fill="#F7D684" d="M22.892,12.906C22.417,11.919,20.321,12,16,12v4.963C19.902,16.963,22.368,15.216,22.892,12.906z"/>
		<ellipse fill="#434C4B" cx="16" cy="14.5" rx="1" ry="0.5"/>
		<path fill="#373F3F" d="M17,14.5c0-0.276-0.448-0.5-1-0.5v1C16.552,15,17,14.776,17,14.5z"/>
		<path fill="#E56142" d="M15.713,0.321C12.353,4.351,18.923,7.077,16,10c2.761,0,5-1.239,5-4c0-3.709-3.901-3.175-4.872-5.593
			C16.058,0.233,15.833,0.177,15.713,0.321z"/>
		<circle fill="#EB6B48" cx="16" cy="7" r="3"/>
		<path fill="#E56142" d="M19,7c0-1.657-1.343-3-3-3v6C17.657,10,19,8.657,19,7z"/>
		<path fill="#FF805D" d="M14,8c0,1.105-0.895,2-2,2s-2-0.895-2-2c0-0.868,1.25-1.998,1.774-3.105
			c0.095-0.201,0.366-0.202,0.462-0.001C12.764,6.002,14,7.132,14,8z"/>
		<path fill="#F57552" d="M12,4.745V10c1.105,0,2-0.896,2-2c0-0.868-1.236-1.999-1.765-3.106C12.187,4.792,12.093,4.743,12,4.745z"
			/>
		<path fill="#F57552" d="M22,8c0,1.105-0.895,2-2,2s-2-0.895-2-2c0-0.868,1.25-1.998,1.774-3.105
			c0.095-0.201,0.366-0.202,0.462-0.001C20.764,6.002,22,7.132,22,8z"/>
		<path fill="#EB6B48" d="M20,4.745V10c1.105,0,2-0.896,2-2c0-0.868-1.236-1.999-1.765-3.106C20.187,4.792,20.093,4.743,20,4.745z"
			/>
		<path fill="#F57552" d="M18,6c0-1.105-0.895-2-2-2v4C17.105,8,18,7.105,18,6z"/>
		<path fill="#EB6B48" d="M18.585,27.475c0.321-0.108,0.654,0.129,0.656,0.468c0.002,0.341-0.008,0.746-0.055,1.067
			C19.099,29.61,19,30.291,19,31h2c0-0.565,0.084-1.144,0.166-1.704c0.175-1.202,0.355-2.445-0.434-3.356
			c-0.099-0.115-0.221-0.205-0.341-0.298c0.152-0.26,0.287-0.53,0.381-0.817l-0.596-0.596c-0.098-0.098-0.256-0.098-0.354,0
			l-0.646,0.646c-0.098,0.098-0.256,0.098-0.354,0l-0.646-0.646c-0.098-0.098-0.256-0.098-0.354,0l-0.646,0.646
			c-0.098,0.098-0.256,0.098-0.354,0l-0.646-0.646c-0.049-0.049-0.113-0.073-0.177-0.073V28C17.039,28,17.878,27.712,18.585,27.475z
			"/>
		<circle fill="#F0C877" cx="19" cy="31" r="1"/>
		<circle fill="#F7D684" cx="13" cy="31" r="1"/>
		<circle fill="#F0C877" cx="21" cy="31" r="1"/>
		<circle fill="#F7D684" cx="20" cy="31" r="1"/>
		<circle fill="#F7D684" cx="11" cy="31" r="1"/>
		<circle fill="#FAE09F" cx="12" cy="31" r="1"/>
		<path fill="#FFFFFF" d="M13.5,14L13.5,14c-0.828,0-1.5-0.672-1.5-1.5v-1.25c0-0.138,0.112-0.25,0.25-0.25h2.5
			c0.138,0,0.25,0.112,0.25,0.25v1.25C15,13.328,14.328,14,13.5,14z"/>
		<path fill="#F7F7F7" d="M18.5,14L18.5,14c-0.828,0-1.5-0.672-1.5-1.5v-1.25c0-0.138,0.112-0.25,0.25-0.25h2.5
			c0.138,0,0.25,0.112,0.25,0.25v1.25C20,13.328,19.328,14,18.5,14z"/>
		<path fill="#2B3332" d="M17.25,11C17.112,11,17,11.112,17,11.25v1.25c0,0.38,0.146,0.724,0.379,0.988
			C17.42,13.491,17.459,13.5,17.5,13.5c0.828,0,1.5-0.672,1.5-1.5v-1H17.25z"/>
		<path fill="#373F3F" d="M14.75,11H13v1c0,0.828,0.672,1.5,1.5,1.5c0.041,0,0.08-0.009,0.121-0.012C14.854,13.224,15,12.88,15,12.5
			v-1.25C15,11.112,14.888,11,14.75,11z"/>
	</g>
</g>
</svg>
