<?xml version="1.0" encoding="utf-8"?>
<!-- Generator: Adobe Illustrator 23.0.6, SVG Export Plug-In . SVG Version: 6.00 Build 0)  -->
<svg version="1.1" xmlns="http://www.w3.org/2000/svg" xmlns:xlink="http://www.w3.org/1999/xlink" x="0px" y="0px" width="32px"
	 height="32px" viewBox="0 0 32 32" enable-background="new 0 0 32 32" xml:space="preserve">
<g id="labels">
	<g>
	</g>
</g>
<g id="icons">
	<g>
		<path fill="#E8BA67" d="M28.066,25.25c-0.011,0.019-1.13,1.872-4.688,2.765c-3.572,0.899-7.548-1.894-7.588-1.922l-0.407-0.29
			l-0.581,0.813l0.407,0.29c0.151,0.108,3.249,2.288,6.66,2.288c0.579,0,1.167-0.063,1.752-0.209
			c4.009-1.005,5.262-3.148,5.313-3.238L28.066,25.25z"/>
		<path fill="#F7D684" d="M20,31c0,0,2-1.452,2-3s-3-1-3-1l-0.143-1h0L18,20h-4l-0.259,1.812l-2.402,0.601
			c-0.463,0.116-0.953,0.062-1.38-0.151l-2.593-1.296c-0.484-0.242-0.876-0.634-1.118-1.118l-0.26-0.52
			c-0.181-0.362-0.663-0.44-0.949-0.154c-0.231,0.231-0.231,0.606,0,0.838l0.27,0.27c-0.743-0.743-2.013-0.391-2.268,0.628l0,0.002
			c-0.213,0.854,0.432,1.681,1.312,1.681h0.786c0.318,0,0.633,0.061,0.928,0.179l2.885,1.154c1.061,0.424,2.253,0.375,3.274-0.136
			l1.326-0.663L13,27c0,0-3-0.548-3,1s2,3,2,3s-2.321-0.401-2.059,0.807C9.966,31.92,10.07,32,10.186,32H14c1.44,0,0-1.351,0-2
			s0.621-1,2-1s2,0.351,2,1s-1.44,2,0,2h3.814c0.116,0,0.22-0.08,0.245-0.193C22.321,30.599,20,31,20,31z"/>
		<path fill="#F0C877" d="M28.959,20.912l0-0.002c-0.255-1.02-1.525-1.372-2.268-0.628l0.27-0.27c0.231-0.231,0.231-0.606,0-0.838
			c-0.286-0.286-0.768-0.208-0.949,0.154l-0.26,0.52c-0.242,0.484-0.634,0.876-1.118,1.118l-2.593,1.296
			c-0.427,0.214-0.916,0.267-1.38,0.151l-2.402-0.601L18,20h-2v6v1v2c1.379,0,2,0.351,2,1s-1.44,2,0,2h3.814
			c0.116,0,0.22-0.08,0.245-0.193C22.321,30.599,20,31,20,31s2-1.452,2-3s-3-1-3-1l-0.143-1h0l-0.411-2.874l1.326,0.663
			c1.022,0.511,2.214,0.561,3.274,0.136l2.885-1.154c0.295-0.118,0.61-0.179,0.928-0.179h0.786
			C28.527,22.592,29.172,21.766,28.959,20.912z"/>
		<path fill="#51BAC5" d="M16.707,23.707c0.162,0.162,0.424,0.162,0.586,0c0.333-0.333,0.833-0.364,1.218-0.13L18,20h-4
			l-0.259,1.812l-2.343,0.586l1.204,1.204l0.951-0.476l-0.064,0.451c0.385-0.234,0.885-0.202,1.218,0.13
			c0.162,0.162,0.424,0.162,0.586,0C15.683,23.317,16.317,23.317,16.707,23.707z"/>
		<path fill="#4CAEBC" d="M16.707,23.707c0.162,0.162,0.424,0.162,0.586,0c0.333-0.333,0.833-0.364,1.218-0.13l-0.064-0.451
			l0.951,0.476l1.204-1.204l-2.343-0.586L18,20h-2v3.414C16.256,23.414,16.512,23.512,16.707,23.707z"/>
		<path fill="#51BAC5" d="M21.237,12.611c-0.699,2.467,0.173,5.788,2.259,6.317s4.597-1.935,5.296-4.402s-0.426-4.895-2.512-5.423
			S21.936,10.145,21.237,12.611z"/>
		<path fill="#56C7CD" d="M10.763,12.611c0.699,2.467-0.173,5.788-2.259,6.317s-4.597-1.935-5.296-4.402S3.633,9.631,5.72,9.102
			S10.064,10.145,10.763,12.611z"/>
		<path fill="#66D3D3" d="M25,12c1.105,0,2,0.896,2,2s-0.895,2-2,2v0.061c0.581,0.138,1,0.504,1,0.939c0,0.552-0.672,1-1.5,1
			S23,17.552,23,17v-3C23,14,23.896,12,25,12z"/>
		<path fill="#7CD8D5" d="M7,11c-1.105,0-2,1.045-2,2.333s0.895,2.333,2,2.333v0.071c-0.581,0.161-1,0.588-1,1.095
			C6,17.478,6.672,18,7.5,18S9,17.478,9,16.833v-3.5C9,13.333,8.105,11,7,11z"/>
		<ellipse fill="#56C7CD" cx="16" cy="14.5" rx="8" ry="6.5"/>
		<path fill="#51BAC5" d="M24,14.5c0-3.59-3.14-6.5-8-6.5v13C20.86,21,24,18.09,24,14.5z"/>
		<path fill="#FAE09F" d="M19.5,14c-1.241,0-2.353,0.512-3.164,1.328c-0.181,0.182-0.49,0.182-0.671,0
			C14.853,14.513,13.741,14,12.5,14c-1.498,0-2.9,3.21-1.695,5.563C12.145,20.46,13.912,21,16,21s3.855-0.54,5.195-1.437
			C22.4,17.21,20.998,14,19.5,14z"/>
		<ellipse fill="#EDEEEE" cx="12" cy="14.5" rx="2" ry="2.5"/>
		<path fill="#F7D684" d="M21.195,19.563C22.4,17.21,20.998,14,19.5,14c-1.241,0-2.353,0.512-3.164,1.328
			c-0.091,0.091-0.213,0.137-0.336,0.137V21C18.088,21,19.855,20.46,21.195,19.563z"/>
		<ellipse fill="#E3E5E5" cx="20" cy="14.5" rx="2" ry="2.5"/>
		<path fill="#56C7CD" d="M11,5c0,0,4,0.71,4,4h1h1c0-3.29,4-4,4-4C18.497,2.133,13.503,2.133,11,5z"/>
		<path fill="#FFFFFF" d="M12,14c-0.763,0-1.452,0.294-1.982,0.763C10.112,16.24,10.958,17,12,17c1.042,0,1.888-0.76,1.982-2.237
			C13.452,14.294,12.763,14,12,14z"/>
		<path fill="#F7F7F7" d="M20,14c-0.763,0-1.452,0.294-1.982,0.763C18.112,16.24,18.958,17,20,17c1.042,0,1.888-0.76,1.982-2.237
			C21.452,14.294,20.763,14,20,14z"/>
		<path fill="#51BAC5" d="M17,9c0-3.29,4-4,4-4c-1.251-1.434-3.126-2.151-5-2.151V9H17z"/>
		<path fill="#7CD8D5" d="M20.5,1c-0.315,0-0.613,0.065-0.89,0.171C19.167,0.469,18.391,0,17.5,0c-0.565,0-1.081,0.195-1.5,0.511
			C15.581,0.195,15.065,0,14.5,0c-0.891,0-1.667,0.469-2.11,1.171C12.113,1.065,11.815,1,11.5,1C10.119,1,9,2.119,9,3.5
			S10.119,6,11.5,6c0.891,0,1.667-0.469,2.11-1.171C13.887,4.935,14.185,5,14.5,5c0.565,0,1.081-0.195,1.5-0.511
			C16.419,4.805,16.935,5,17.5,5c0.315,0,0.613-0.065,0.89-0.171C18.833,5.531,19.609,6,20.5,6C21.881,6,23,4.881,23,3.5
			S21.881,1,20.5,1z"/>
		<path fill="#66D3D3" d="M17.5,5c0.315,0,0.613-0.065,0.89-0.171C18.833,5.531,19.609,6,20.5,6C21.881,6,23,4.881,23,3.5
			S21.881,1,20.5,1c-0.315,0-0.613,0.065-0.89,0.171C19.167,0.469,18.391,0,17.5,0c-0.565,0-1.081,0.195-1.5,0.511v3.977
			C16.419,4.805,16.935,5,17.5,5z"/>
		<path fill="#45BEDA" d="M31.5,24c0-0.828-0.672-1.5-1.5-1.5c-0.646,0-1.192,0.411-1.403,0.983C28.323,23.188,27.935,23,27.5,23
			c-0.828,0-1.5,0.672-1.5,1.5c0,0.798,0.625,1.444,1.411,1.491c-0.208,0.193-0.464,0.406-0.791,0.629l0.722,0.722
			c0.268-0.191,0.494-0.378,0.688-0.553C28.164,27.479,28.77,28,29.5,28c0.828,0,1.5-0.672,1.5-1.5c0-0.435-0.188-0.823-0.483-1.097
			C31.089,25.192,31.5,24.646,31.5,24z"/>
		<ellipse fill="#373F3F" cx="16" cy="17.5" rx="1" ry="0.5"/>
		<path fill="#2B3332" d="M17,17.5c0-0.276-0.448-0.5-1-0.5v1C16.552,18,17,17.776,17,17.5z"/>
	</g>
</g>
</svg>
