<?xml version="1.0" encoding="utf-8"?>
<!-- Generator: Adobe Illustrator 23.0.6, SVG Export Plug-In . SVG Version: 6.00 Build 0)  -->
<svg version="1.1" xmlns="http://www.w3.org/2000/svg" xmlns:xlink="http://www.w3.org/1999/xlink" x="0px" y="0px" width="32px"
	 height="32px" viewBox="0 0 32 32" enable-background="new 0 0 32 32" xml:space="preserve">
<g id="labels">
	<g>
	</g>
</g>
<g id="icons">
	<g>
		<circle fill="#F9ADC8" cx="15.999" cy="17" r="13"/>
		<path fill="#F8A1C4" d="M28.999,17c0-7.18-5.82-13-13-13v26C23.179,30,28.999,24.18,28.999,17z"/>
		<path fill="#F8A1C4" d="M20.095,13.667c0,7.18-0.754,18.333,1.981,18.333s7.924-11.154,7.924-18.333S20.095,6.487,20.095,13.667z"
			/>
		<path fill="#F9ADC8" d="M11.904,13.667c0,7.18,0.754,18.333-1.981,18.333S1.999,20.846,1.999,13.667S11.904,6.487,11.904,13.667z"
			/>
		<path fill="#FBCFD6" d="M30.001,13.81c0,8.166-8.702,12.898-12.385,14.535c-1.031,0.458-2.199,0.458-3.23,0
			C10.703,26.707,2.001,21.975,2.001,13.81c0-7.627,6.268-13.81,14-13.81S30.001,6.183,30.001,13.81z"/>
		<path fill="#FAC4D1" d="M16.001,0C16,0,16,0,15.999,0v28.688c0.55,0,1.101-0.114,1.616-0.343
			c3.683-1.637,12.385-6.369,12.385-14.535C30.001,6.183,23.733,0,16.001,0z"/>
		<path fill="#FAC4D1" d="M15.999,24c-4.865,0-9.289-1.844-12.651-4.852c2.587,4.938,8.248,7.957,11.037,9.197
			c1.031,0.458,2.199,0.458,3.23,0c2.79-1.24,8.454-4.261,11.039-9.201C25.293,22.154,20.867,24,15.999,24z"/>
		<path fill="#FAB8CD" d="M15.999,24v4.688c0.55,0,1.101-0.114,1.616-0.343c2.79-1.24,8.454-4.261,11.039-9.201
			C25.293,22.154,20.867,24,15.999,24z"/>
		<path fill="#2B3332" d="M22.999,16.5c-0.176,0-0.338-0.092-0.429-0.243l-1.5-2.5c-0.142-0.237-0.065-0.544,0.171-0.686
			c0.238-0.142,0.544-0.065,0.686,0.171l1.071,1.786l1.071-1.786c0.142-0.237,0.448-0.313,0.686-0.171
			c0.237,0.142,0.313,0.449,0.171,0.686l-1.5,2.5C23.338,16.408,23.175,16.5,22.999,16.5z"/>
		<ellipse fill="#D84459" cx="22.999" cy="17" rx="2" ry="3"/>
		<path fill="#9179C6" d="M29.144,9.095l-0.581-1.348c-0.733-1.474-1.718-2.8-2.909-3.921C25.251,4.27,24.999,4.853,24.999,5.5
			c0,0.11,0.008,0.218,0.023,0.324c0.017,0.12-0.058,0.236-0.175,0.268c-1.064,0.287-1.848,1.253-1.848,2.408
			c0,1.381,1.119,2.5,2.5,2.5c0.079,0,0.157-0.005,0.234-0.013c0.163-0.018,0.296,0.116,0.279,0.279
			c-0.008,0.077-0.013,0.155-0.013,0.234c0,1.381,1.119,2.5,2.5,2.5c0.558,0,1.068-0.189,1.484-0.498
			C29.949,11.955,29.653,10.476,29.144,9.095z"/>
		<path fill="#EA8BB4" d="M27.804,6.406C27.318,6.77,26.999,7.346,26.999,8c0,1.105,0.895,2,2,2c0.15,0,0.295-0.019,0.435-0.051
			C29.06,8.682,28.507,7.494,27.804,6.406z"/>
		<path fill="#9D85D3" d="M2.839,9.095l0.581-1.348c0.733-1.474,1.718-2.8,2.909-3.921C6.731,4.27,6.984,4.853,6.984,5.5
			c0,0.11-0.008,0.218-0.023,0.324C6.944,5.944,7.018,6.06,7.136,6.092C8.199,6.379,8.984,7.345,8.984,8.5
			c0,1.381-1.119,2.5-2.5,2.5c-0.079,0-0.157-0.005-0.234-0.013c-0.163-0.018-0.296,0.116-0.279,0.279
			c0.008,0.077,0.013,0.155,0.013,0.234c0,1.381-1.119,2.5-2.5,2.5c-0.558,0-1.068-0.189-1.484-0.498
			C2.034,11.955,2.329,10.476,2.839,9.095z"/>
		<path fill="#F297BE" d="M4.179,6.406C4.665,6.77,4.984,7.346,4.984,8c0,1.105-0.895,2-2,2c-0.15,0-0.295-0.019-0.435-0.051
			C2.922,8.682,3.476,7.494,4.179,6.406z"/>
		<ellipse fill="#F297BE" cx="15.999" cy="18.5" rx="2" ry="3.5"/>
		<path fill="#373F3F" d="M8.999,16.5c-0.176,0-0.338-0.092-0.429-0.243l-1.5-2.5c-0.142-0.237-0.065-0.544,0.171-0.686
			c0.237-0.142,0.544-0.065,0.686,0.171l1.071,1.786l1.071-1.786c0.143-0.237,0.449-0.313,0.686-0.171s0.313,0.449,0.171,0.686
			l-1.5,2.5C9.338,16.408,9.175,16.5,8.999,16.5z"/>
		<ellipse fill="#E85160" cx="8.999" cy="17" rx="2" ry="3"/>
		<circle fill="#FFFFFF" cx="8.999" cy="16" r="1"/>
		<circle fill="#F7F7F7" cx="22.999" cy="16" r="1"/>
		<path fill="#EA8BB4" d="M17.999,18.5c0-2.209-0.895-3.5-2-3.5v7C17.104,22,17.999,20.709,17.999,18.5z"/>
		<path fill="#F3586F" d="M22.999,18c-0.631,0-1.221,0.159-1.752,0.42c0.338,0.937,0.992,1.58,1.752,1.58s1.413-0.643,1.752-1.58
			C24.22,18.159,23.631,18,22.999,18z"/>
		<path fill="#FF5F7E" d="M8.984,18c-0.626,0-1.211,0.156-1.738,0.413C7.583,19.353,8.237,20,8.999,20
			c0.758,0,1.41-0.64,1.749-1.573C10.214,18.162,9.62,18,8.984,18z"/>
	</g>
</g>
</svg>
