<?xml version="1.0" encoding="utf-8"?>
<!-- Generator: Adobe Illustrator 23.0.6, SVG Export Plug-In . SVG Version: 6.00 Build 0)  -->
<svg version="1.1" xmlns="http://www.w3.org/2000/svg" xmlns:xlink="http://www.w3.org/1999/xlink" x="0px" y="0px" width="32px"
	 height="32px" viewBox="0 0 32 32" enable-background="new 0 0 32 32" xml:space="preserve">
<g id="labels">
	<g>
	</g>
</g>
<g id="icons">
	<path fill="#B4B0B0" d="M16.729,27h-1.457c-5.006,0-8.956-4.254-8.586-9.246l0.724-9.78C7.742,3.478,11.487,0,15.996,0h0.008
		c4.508,0,8.253,3.478,8.586,7.974l0.724,9.78C25.685,22.746,21.734,27,16.729,27z"/>
	<path fill="#A7A2A2" d="M25.315,17.754l-0.724-9.78C24.258,3.478,20.513,0,16.004,0H16v27h0.729
		C21.734,27,25.685,22.746,25.315,17.754z"/>
	<path fill="#EA9C7A" d="M20,25l1,5l2.603,0.868C23.84,30.947,24,31.168,24,31.418v0.002c0,0.32-0.26,0.58-0.58,0.58h-5.84
		C17.26,32,17,31.74,17,31.42v-0.009c0-0.215,0.118-0.412,0.308-0.512L19,30l-2-5H20z"/>
	<path fill="#EF8C48" d="M20,25l1,5l2.603,0.868C23.84,30.947,24,31.168,24,31.418v0.002c0,0.32-0.26,0.58-0.58,0.58h-5.84
		C17.26,32,17,31.74,17,31.42v-0.009c0-0.215,0.118-0.412,0.308-0.512L19,30l-2-5H20z"/>
	<path fill="#373F3F" d="M17.308,30.899L19,30l0.106,0.211c0.369,0.737,1.42,0.737,1.789,0L21,30l2.603,0.868
		C23.84,30.947,24,31.168,24,31.418v0.002c0,0.32-0.26,0.58-0.58,0.58h-5.84C17.26,32,17,31.74,17,31.42v-0.009
		C17,31.197,17.118,31,17.308,30.899z"/>
	<path fill="#EA9C7A" d="M12,25l-1,5l-2.603,0.868C8.16,30.947,8,31.168,8,31.418v0.002C8,31.74,8.26,32,8.58,32h5.84
		c0.32,0,0.58-0.26,0.58-0.58v-0.009c0-0.215-0.118-0.412-0.308-0.512L13,30l2-5H12z"/>
	<path fill="#F79654" d="M12,25l-1,5l-2.603,0.868C8.16,30.947,8,31.168,8,31.418v0.002C8,31.74,8.26,32,8.58,32h5.84
		c0.32,0,0.58-0.26,0.58-0.58v-0.009c0-0.215-0.118-0.412-0.308-0.512L13,30l2-5H12z"/>
	<path fill="#FFAD68" d="M17.5,7c-0.601,0-1.133,0.27-1.5,0.69C15.633,7.27,15.101,7,14.5,7c-1.105,0-2,0.895-2,2s0.895,2,2,2
		c0.601,0,1.133-0.27,1.5-0.69C16.367,10.73,16.899,11,17.5,11c1.105,0,2-0.895,2-2S18.605,7,17.5,7z"/>
	<ellipse fill="#FFD96C" cx="10" cy="8" rx="2" ry="3"/>
	<ellipse fill="#FFD04D" cx="22" cy="8" rx="2" ry="3"/>
	<ellipse fill="#373F3F" cx="10" cy="8" rx="1" ry="2"/>
	<ellipse fill="#2B3332" cx="22" cy="8" rx="1" ry="2"/>
	<circle fill="#FFFFFF" cx="9.5" cy="6.5" r="0.5"/>
	<circle fill="#F7F7F7" cx="22.5" cy="6.5" r="0.5"/>
	<path fill="#434C4B" d="M14.692,30.899L13,30l-0.106,0.211c-0.369,0.737-1.42,0.737-1.789,0L11,30l-2.603,0.868
		C8.16,30.947,8,31.168,8,31.418v0.002C8,31.74,8.26,32,8.58,32h5.84c0.32,0,0.58-0.26,0.58-0.58v-0.009
		C15,31.197,14.882,31,14.692,30.899z"/>
	<path fill="#EDEEEE" d="M16,17.864C14.196,16.094,11.727,15,9,15c-0.731,0-1.442,0.083-2.128,0.232l-0.187,2.522
		C6.315,22.746,10.266,27,15.271,27h1.457c5.006,0,8.956-4.254,8.586-9.246l-0.187-2.522C24.442,15.083,23.731,15,23,15
		C20.273,15,17.804,16.094,16,17.864z"/>
	<path fill="#E3E5E5" d="M25.315,17.754l-0.187-2.522C24.442,15.083,23.731,15,23,15c-2.727,0-5.196,1.094-7,2.864V27h0.729
		C21.734,27,25.685,22.746,25.315,17.754z"/>
	<path fill="#434C4B" d="M8,18.5C8,22.642,9.209,26,7,26s-4-3.358-4-7.5S4.791,11,7,11S8,14.358,8,18.5z"/>
	<path fill="#373F3F" d="M24,18.5c0,4.142-1.209,7.5,1,7.5s4-3.358,4-7.5S27.209,11,25,11S24,14.358,24,18.5z"/>
	<path fill="#FCA15E" d="M17.5,7c-0.601,0-1.133,0.27-1.5,0.69v2.62C16.367,10.73,16.899,11,17.5,11c1.105,0,2-0.895,2-2
		S18.605,7,17.5,7z"/>
	<path fill="#434C4B" d="M18,11c0,1.105-0.895,3-2,3s-2-1.895-2-3s0.895-2,2-2S18,9.895,18,11z"/>
	<path fill="#373F3F" d="M18,11c0-1.105-0.895-2-2-2v5C17.105,14,18,12.105,18,11z"/>
</g>
</svg>
