<?xml version="1.0" encoding="utf-8"?>
<!-- Generator: Adobe Illustrator 23.0.6, SVG Export Plug-In . SVG Version: 6.00 Build 0)  -->
<svg version="1.1" xmlns="http://www.w3.org/2000/svg" xmlns:xlink="http://www.w3.org/1999/xlink" x="0px" y="0px" width="32px"
	 height="32px" viewBox="0 0 32 32" enable-background="new 0 0 32 32" xml:space="preserve">
<g id="labels">
	<g>
	</g>
</g>
<g id="icons">
	<g>
		<circle fill="#2B3332" cx="19.5" cy="14.5" r="1.5"/>
		<path fill="#D1D4D4" d="M18.998,15.001l0.079-0.079c0.548-0.548,1.352-0.332,2.122-0.422c2.064-0.241,6.679-1.916,8.012-7.658
			C29.317,6.388,29.37,6,29.836,6h0.164c0,0,0,0,0,0h1c0.552,0,1,0.448,1,1c0,0.516-0.396,0.926-0.899,0.98l0.215,0.072
			c0.524,0.175,0.807,0.741,0.632,1.265c-0.108,0.324-0.367,0.552-0.673,0.641L31.6,10.2c0.442,0.331,0.531,0.958,0.2,1.4
			c-0.139,0.186-0.337,0.285-0.545,0.341L31.6,12.2c0.442,0.331,0.531,0.958,0.2,1.4c-0.196,0.262-0.497,0.4-0.801,0.4
			c-0.007,0-0.014-0.003-0.021-0.003l0.303,0.379c0.345,0.431,0.275,1.061-0.156,1.405C30.94,15.928,30.719,16,30.5,16
			c-0.183,0-0.355-0.067-0.514-0.164l0.382,0.668c0.274,0.479,0.107,1.09-0.372,1.364C29.839,17.958,29.669,18,29.501,18
			c-0.285,0-0.559-0.128-0.752-0.351l0.187,0.5c0.194,0.517-0.068,1.093-0.585,1.288C28.235,19.479,28.116,19.5,28,19.5
			c-0.405,0-0.786-0.248-0.937-0.649l-0.205-0.548l0.134,1.073c0.068,0.548-0.32,1.048-0.868,1.116
			c-0.042,0.005-0.084,0.008-0.125,0.008c-0.454,0-0.838-0.316-0.952-0.755l-0.057,0.396C24.918,20.64,24.49,21,24.001,21
			c-0.047,0-0.095-0.003-0.143-0.01c-0.504-0.072-0.849-0.511-0.841-1.007l-0.604,0.604C22.148,20.851,21.79,21,21.416,21h-0.003
			c-0.904,0-1.772-0.359-2.411-0.999l-0.002-0.002C18.359,19.359,18,18.492,18,17.588v-0.175C18,16.508,18.359,15.641,18.998,15.001
			z"/>
		<circle fill="#373F3F" cx="12.5" cy="14.5" r="1.5"/>
		<path fill="#F79654" d="M13,26l0.859,3.434l-1.712,1.712c-0.195,0.195-0.195,0.512,0,0.707C12.244,31.951,12.372,32,12.5,32
			s0.256-0.049,0.354-0.146l0.18-0.18c0.043,0.115,0.124,0.215,0.242,0.274C13.348,31.983,13.424,32,13.5,32
			c0.184,0,0.36-0.101,0.448-0.276l0.07-0.139C14.058,31.819,14.254,32,14.5,32c0.276,0,0.5-0.224,0.5-0.5V30v-1.707V26H13z"/>
		<path fill="#EF8C48" d="M19.854,31.146l-1.712-1.712L19,26h-2v2.293V30v1.5c0,0.276,0.224,0.5,0.5,0.5
			c0.246,0,0.442-0.181,0.483-0.416l0.07,0.139C18.141,31.899,18.317,32,18.5,32c0.075,0,0.151-0.017,0.223-0.053
			c0.118-0.059,0.2-0.16,0.242-0.274l0.18,0.18C19.244,31.951,19.372,32,19.5,32s0.256-0.049,0.354-0.146
			C20.049,31.658,20.049,31.342,19.854,31.146z"/>
		<path fill="#434C4B" d="M14.5,30c-0.276,0-0.5,0.224-0.5,0.5c0-0.202-0.122-0.385-0.309-0.462
			c-0.187-0.079-0.401-0.035-0.545,0.108l-1,1c-0.195,0.195-0.195,0.512,0,0.707C12.244,31.951,12.372,32,12.5,32
			s0.256-0.049,0.354-0.146l0.18-0.18c0.043,0.115,0.124,0.215,0.242,0.274C13.348,31.983,13.424,32,13.5,32
			c0.184,0,0.36-0.101,0.448-0.276l0.07-0.139C14.058,31.819,14.254,32,14.5,32c0.276,0,0.5-0.224,0.5-0.5v-1
			C15,30.224,14.776,30,14.5,30z"/>
		<path fill="#373F3F" d="M17.5,30c0.276,0,0.5,0.224,0.5,0.5c0-0.202,0.122-0.385,0.309-0.462c0.187-0.079,0.401-0.035,0.545,0.108
			l1,1c0.195,0.195,0.195,0.512,0,0.707C19.756,31.951,19.628,32,19.5,32s-0.256-0.049-0.354-0.146l-0.18-0.18
			c-0.043,0.115-0.124,0.215-0.242,0.274C18.652,31.983,18.576,32,18.5,32c-0.184,0-0.36-0.101-0.448-0.276l-0.07-0.139
			C17.942,31.819,17.746,32,17.5,32c-0.276,0-0.5-0.224-0.5-0.5v-1C17,30.224,17.224,30,17.5,30z"/>
		<path fill="#DADDDC" d="M13.001,15.001l-0.079-0.079C12.374,14.374,11.57,14.59,10.8,14.5c-2.064-0.241-6.679-1.916-8.012-7.658
			C2.682,6.388,2.629,6,2.164,6H2c0,0,0,0,0,0H1C0.448,6,0,6.448,0,7c0,0.516,0.396,0.926,0.899,0.98L0.684,8.051
			C0.16,8.226-0.124,8.792,0.051,9.316c0.108,0.324,0.367,0.552,0.673,0.641L0.4,10.2c-0.442,0.331-0.531,0.958-0.2,1.4
			c0.139,0.186,0.337,0.285,0.545,0.341L0.4,12.2c-0.442,0.331-0.531,0.958-0.2,1.4C0.396,13.862,0.697,14,1.001,14
			c0.007,0,0.014-0.003,0.021-0.003l-0.303,0.379c-0.345,0.431-0.275,1.061,0.156,1.405C1.06,15.928,1.28,16,1.5,16
			c0.183,0,0.355-0.067,0.514-0.164l-0.382,0.668c-0.274,0.479-0.107,1.09,0.372,1.364C2.16,17.958,2.331,18,2.499,18
			c0.285,0,0.559-0.128,0.752-0.351l-0.187,0.5c-0.194,0.517,0.068,1.093,0.585,1.288C3.765,19.479,3.883,19.5,4,19.5
			c0.405,0,0.786-0.248,0.937-0.649l0.205-0.548l-0.134,1.073c-0.068,0.548,0.32,1.048,0.868,1.116
			C5.918,20.498,5.96,20.5,6.001,20.5c0.454,0,0.838-0.316,0.952-0.755l0.057,0.396C7.082,20.64,7.509,21,7.999,21
			c0.047,0,0.095-0.003,0.143-0.01c0.504-0.072,0.849-0.511,0.841-1.007l0.604,0.604C9.851,20.851,10.21,21,10.584,21h0.003
			c0.904,0,1.772-0.359,2.411-0.999l0.002-0.002c0.64-0.64,0.999-1.507,0.999-2.411v-0.175C14,16.508,13.641,15.641,13.001,15.001z"
			/>
		<path fill="#B4B0B0" d="M19.191,15.509l1.259,3.357c0.944,2.517,0.329,5.354-1.571,7.254l0,0C18.316,26.684,17.553,27,16.757,27
			h-1.515c-0.796,0-1.559-0.316-2.121-0.879l0,0c-1.901-1.901-2.515-4.737-1.571-7.254l1.259-3.357
			C12.935,15.173,13,14.816,13,14.456V6c0-1.657,1.343-3,3-3h0c1.657,0,3,1.343,3,3v8.456C19,14.816,19.065,15.173,19.191,15.509z"
			/>
		<path fill="#A7A2A2" d="M16.757,27c0.796,0,1.559-0.316,2.121-0.879c1.901-1.901,2.515-4.737,1.571-7.255l-1.259-3.357
			C19.065,15.173,19,14.816,19,14.456V6c0-1.657-1.343-3-3-3v24H16.757z"/>
		<path fill="#EDEEEE" d="M19,14.456V6.17c0-0.018-0.01-0.033-0.012-0.051C18.99,6.078,19,6.041,19,6
			c0-1.71-1.431-3.086-3.161-2.996C14.216,3.089,13,4.545,13,6.17l0,8.287c0,0.236,1.31,2.126,2.207,3.393
			c0.4,0.565,1.24,0.561,1.635-0.008C17.721,16.574,19,14.692,19,14.456z"/>
		<path fill="#373F3F" d="M18.998,15.001l0.079-0.079c0.548-0.548,1.264-0.887,2.034-0.977c2.064-0.241,6.399-1.439,7.733-7.181
			C28.95,6.311,29.37,6,29.836,6h0.153c-0.087,1.647-0.572,4.959-2.989,7c-2.394,2.022-6.415,2.799-8.934,3.748
			C18.196,16.091,18.518,15.482,18.998,15.001z"/>
		<path fill="#E3E5E5" d="M27.811,9.541l1.173,0.782C28.541,11.291,27.906,12.235,27,13c-0.278,0.235-0.582,0.449-0.898,0.652
			l-0.832-1.247C26.205,11.751,27.105,10.833,27.811,9.541z"/>
		<path fill="#434C4B" d="M13.001,15.001l-0.079-0.079c-0.548-0.548-1.264-0.887-2.034-0.977c-2.064-0.241-6.399-1.439-7.733-7.181
			C3.049,6.311,2.629,6,2.164,6H2.011C2.098,7.647,2.583,10.959,5,13c2.394,2.022,6.415,2.799,8.934,3.748
			C13.804,16.091,13.482,15.482,13.001,15.001z"/>
		<circle fill="#505957" cx="13.5" cy="15.5" r="1.5"/>
		<path fill="#E3E5E5" d="M16,3.013v15.252c0.318,0.007,0.639-0.13,0.842-0.423C17.721,16.574,19,14.692,19,14.456V6.17
			c0-0.018-0.01-0.033-0.012-0.051C18.99,6.078,19,6.041,19,6C19,4.344,17.655,3.014,16,3.013z"/>
		<circle fill="#FFE28A" cx="14" cy="7" r="1"/>
		<circle fill="#FFD96C" cx="18" cy="7" r="1"/>
		<path fill="#373F3F" d="M16.831,3.131l-0.586-2.93c-0.054-0.268-0.437-0.268-0.49,0l-0.586,2.93
			c-1.186,0.346-2.068,1.398-2.15,2.678C13.685,5.923,14.406,6.247,15,7h1h1c0.594-0.753,1.315-1.077,1.981-1.19
			C18.899,4.529,18.018,3.477,16.831,3.131z"/>
		<path fill="#D84459" d="M13.639,4.173c-0.353,0.46-0.58,1.021-0.62,1.637C13.685,5.923,14.406,6.247,15,7h1V6
			C15.42,4.924,14.333,4.407,13.639,4.173z"/>
		<path fill="#2B3332" d="M17,7c0.594-0.753,1.315-1.077,1.981-1.19c-0.082-1.28-0.963-2.332-2.15-2.678l-0.586-2.93
			C16.218,0.067,16.109,0,16,0v7H17z"/>
		<path fill="#C84054" d="M18.981,5.81c-0.039-0.615-0.267-1.177-0.62-1.637C17.667,4.407,16.58,4.924,16,6v1h1
			C17.594,6.247,18.315,5.923,18.981,5.81z"/>
		<path fill="#FFD04D" d="M17,7c0,0.552-0.448,2-1,2c-0.552,0-1-1.448-1-2s0.448-1,1-1C16.552,6,17,6.448,17,7z"/>
		<circle fill="#373F3F" cx="14" cy="7" r="0.5"/>
		<circle fill="#2B3332" cx="18" cy="7" r="0.5"/>
		<path fill="#EDEEEE" d="M4.188,9.541l-1.173,0.782C3.459,11.291,4.094,12.235,5,13c0.278,0.235,0.582,0.449,0.898,0.652
			l0.832-1.247C5.794,11.751,4.894,10.833,4.188,9.541z"/>
		<path fill="#F7C845" d="M17,7c0-0.552-0.448-1-1-1v3C16.552,9,17,7.552,17,7z"/>
		<circle fill="#434C4B" cx="18.5" cy="15.5" r="1.5"/>
	</g>
</g>
</svg>
