<?xml version="1.0" encoding="utf-8"?>
<!-- Generator: Adobe Illustrator 23.0.6, SVG Export Plug-In . SVG Version: 6.00 Build 0)  -->
<svg version="1.1" xmlns="http://www.w3.org/2000/svg" xmlns:xlink="http://www.w3.org/1999/xlink" x="0px" y="0px" width="32px"
	 height="32px" viewBox="0 0 32 32" enable-background="new 0 0 32 32" xml:space="preserve">
<g id="labels">
	<g>
	</g>
</g>
<g id="icons">
	<g>
		<path fill="#434C4B" d="M20.764,13.528l-0.176-0.352c-1.027-2.054-1.316-4.399-0.818-6.641l0.145-0.654
			c0.518-2.33-1.097-4.546-3.39-4.844l-0.288-0.865c-0.076-0.228-0.398-0.228-0.474,0l-0.288,0.865
			c-2.293,0.297-3.908,2.514-3.39,4.844l0.145,0.654c0.498,2.242,0.21,4.587-0.818,6.641l-0.176,0.352
			c-1.408,2.815-1.408,6.129,0,8.944l1.253,2.505C12.802,25.604,13.443,26,14.143,26h0.007c1.022,0,1.85-0.828,1.85-1.85
			c0,1.022,0.828,1.85,1.85,1.85h0.007c0.701,0,1.341-0.396,1.655-1.023l1.253-2.505C22.172,19.657,22.172,16.343,20.764,13.528z"/>
		<path fill="#373F3F" d="M17.85,26h0.007c0.701,0,1.341-0.396,1.655-1.023l1.253-2.505c1.408-2.815,1.408-6.129,0-8.944
			l-0.176-0.352c-1.027-2.054-1.316-4.399-0.818-6.641l0.145-0.654c0.518-2.33-1.097-4.546-3.39-4.844l-0.288-0.865
			C16.199,0.057,16.1,0,16,0v24.15C16,25.172,16.828,26,17.85,26z"/>
		<path fill="#B9BFBE" d="M13,25l0.859,4.434l-1.712,1.712c-0.195,0.195-0.195,0.512,0,0.707C12.244,31.951,12.372,32,12.5,32
			s0.256-0.049,0.354-0.146l0.18-0.18c0.043,0.115,0.124,0.215,0.242,0.274C13.348,31.983,13.424,32,13.5,32
			c0.184,0,0.36-0.101,0.448-0.276l0.07-0.139C14.058,31.819,14.254,32,14.5,32c0.276,0,0.5-0.224,0.5-0.5V30v-1.707V25H13z"/>
		<path fill="#ABB2B1" d="M19.854,31.146l-1.712-1.712L19,25h-2v3.293V30v1.5c0,0.276,0.224,0.5,0.5,0.5
			c0.246,0,0.442-0.181,0.483-0.416l0.07,0.139C18.141,31.899,18.317,32,18.5,32c0.075,0,0.151-0.017,0.223-0.053
			c0.118-0.059,0.2-0.16,0.242-0.274l0.18,0.18C19.244,31.951,19.372,32,19.5,32s0.256-0.049,0.354-0.146
			C20.049,31.658,20.049,31.342,19.854,31.146z"/>
		<path fill="#60C46F" d="M16.852,19.971c-0.414,0.028-0.824-0.219-0.956-0.612C15.628,18.569,14.88,18,14,18
			c-0.877,0-1.614,0.568-1.884,1.354c-0.655-0.216-1.296-0.464-1.902-0.779c0.077,1.338,0.407,2.665,1.023,3.896l1.253,2.505
			C12.802,25.604,13.443,26,14.143,26h0.007c1.022,0,1.85-0.828,1.85-1.85c0,1.022,0.828,1.85,1.85,1.85h0.007
			c0.701,0,1.341-0.396,1.655-1.023l1.253-2.505c0.616-1.231,0.945-2.558,1.023-3.896C20.282,19.355,18.617,19.85,16.852,19.971z"/>
		<path fill="#54B668" d="M16,19.548v4.602c0,1.022,0.828,1.85,1.85,1.85h0.007c0.701,0,1.341-0.396,1.655-1.023l1.253-2.505
			c0.616-1.231,0.945-2.558,1.023-3.896c-1.505,0.779-3.17,1.274-4.935,1.395C16.511,19.994,16.183,19.825,16,19.548z"/>
		<path fill="#505957" d="M14.5,30c-0.276,0-0.5,0.224-0.5,0.5c0-0.202-0.122-0.385-0.309-0.462
			c-0.187-0.079-0.401-0.035-0.545,0.108l-1,1c-0.195,0.195-0.195,0.512,0,0.707C12.244,31.951,12.372,32,12.5,32
			s0.256-0.049,0.354-0.146l0.18-0.18c0.043,0.115,0.124,0.215,0.242,0.274C13.348,31.983,13.424,32,13.5,32
			c0.184,0,0.36-0.101,0.448-0.276l0.07-0.139C14.058,31.819,14.254,32,14.5,32c0.276,0,0.5-0.224,0.5-0.5v-1
			C15,30.224,14.776,30,14.5,30z"/>
		<path fill="#434C4B" d="M17.5,30c0.276,0,0.5,0.224,0.5,0.5c0-0.202,0.122-0.385,0.309-0.462c0.187-0.079,0.401-0.035,0.545,0.108
			l1,1c0.195,0.195,0.195,0.512,0,0.707C19.756,31.951,19.628,32,19.5,32s-0.256-0.049-0.354-0.146l-0.18-0.18
			c-0.043,0.115-0.124,0.215-0.242,0.274C18.652,31.983,18.576,32,18.5,32c-0.184,0-0.36-0.101-0.448-0.276l-0.07-0.139
			C17.942,31.819,17.746,32,17.5,32c-0.276,0-0.5-0.224-0.5-0.5v-1C17,30.224,17.224,30,17.5,30z"/>
		<g>
			<path fill="#DADDDC" d="M12.893,14c0,3.866-1.015,11-3.5,11c-4.501,0-5.988-4.689-6.38-6.391C2.941,18.295,3.18,18,3.502,18
				h1.391c0-3.866,2.015-7,4.5-7S12.893,12,12.893,14z"/>
			<path fill="#434C4B" d="M4.893,18H3.502c-0.322,0-0.561,0.295-0.489,0.609c0.296,1.285,1.218,4.27,3.587,5.657
				C5.561,22.8,4.893,20.54,4.893,18z"/>
			<path fill="#505957" d="M8.859,23.306c-0.721-1.855,0.748-2.861,0.811-2.903c0.168-0.112,0.251-0.314,0.212-0.513
				s-0.194-0.354-0.393-0.394c-0.062-0.013-1.526-0.323-1.598-1.539c-0.074-1.251,1.676-2.002,1.694-2.009
				c0.174-0.073,0.293-0.24,0.306-0.429s-0.083-0.369-0.247-0.464c-0.142-0.085-1.39-0.886-0.788-2.382
				c0.389-0.966,1.199-1.373,1.803-1.549C10.285,11.049,9.875,11,9.393,11c-0.215,0-0.424,0.031-0.631,0.077
				c-0.327,0.312-0.624,0.705-0.833,1.224c-0.554,1.377-0.036,2.457,0.574,3.102c-0.708,0.456-1.685,1.324-1.609,2.614
				c0.066,1.12,0.834,1.805,1.559,2.167c-0.613,0.742-1.118,1.961-0.526,3.485c0.211,0.542,0.496,0.96,0.815,1.289
				C8.953,24.98,9.167,25,9.393,25c0.268,0,0.515-0.097,0.749-0.25C9.672,24.529,9.174,24.116,8.859,23.306z"/>
			<path fill="#D1D4D4" d="M19.107,14c0,3.866,1.015,11,3.5,11c4.501,0,5.988-4.689,6.38-6.391C29.059,18.295,28.82,18,28.498,18
				h-1.391c0-3.866-2.015-7-4.5-7S19.107,12,19.107,14z"/>
			<path fill="#373F3F" d="M27.107,18h1.391c0.322,0,0.561,0.295,0.489,0.609c-0.296,1.285-1.218,4.27-3.587,5.657
				C26.439,22.8,27.107,20.54,27.107,18z"/>
			<path fill="#434C4B" d="M23.141,23.306c0.721-1.855-0.748-2.861-0.811-2.903c-0.168-0.112-0.251-0.314-0.212-0.513
				s0.194-0.354,0.393-0.394c0.062-0.013,1.526-0.323,1.598-1.539c0.074-1.251-1.676-2.002-1.694-2.009
				c-0.174-0.073-0.293-0.24-0.306-0.429s0.083-0.369,0.247-0.464c0.142-0.085,1.39-0.886,0.788-2.382
				c-0.389-0.966-1.199-1.373-1.803-1.549C21.715,11.049,22.125,11,22.607,11c0.215,0,0.424,0.031,0.631,0.077
				c0.327,0.312,0.624,0.705,0.833,1.224c0.554,1.377,0.036,2.457-0.574,3.102c0.708,0.456,1.685,1.324,1.609,2.614
				c-0.066,1.12-0.834,1.805-1.559,2.167c0.613,0.742,1.118,1.961,0.526,3.485c-0.211,0.542-0.496,0.96-0.815,1.289
				C23.047,24.98,22.833,25,22.607,25c-0.268,0-0.515-0.097-0.749-0.25C22.328,24.529,22.826,24.116,23.141,23.306z"/>
		</g>
		<path fill="#DADDDC" d="M17.5,3c-0.249,0-0.487,0.231-0.713,0.516c-0.403,0.51-1.172,0.51-1.575,0C14.987,3.231,14.749,3,14.5,3
			C13.119,3,12,4.119,12,5.5c0,1.101,2.543,5.524,3.573,7.273c0.192,0.326,0.661,0.326,0.853,0C17.457,11.024,20,6.601,20,5.5
			C20,4.119,18.881,3,17.5,3z"/>
		<path fill="#F3586F" d="M27.477,3.484c-0.017-0.135-0.045-0.26-0.079-0.379c-0.083-0.351-0.206-0.691-0.418-1.005
			C26.094,0.785,24.137,0,21.748,0C18.425,0,16.472,1.605,16,2.044C15.528,1.605,13.575,0,10.252,0C7.863,0,5.906,0.785,5.02,2.101
			C4.808,2.414,4.684,2.755,4.601,3.106C4.568,3.224,4.54,3.349,4.523,3.484c-0.006,0.059-0.008,0.117-0.01,0.177
			C4.5,3.867,4.508,4.089,4.547,4.33c0.004,0.026,0.012,0.052,0.016,0.079c0.045,0.243,0.113,0.5,0.226,0.778
			c0.402,0.996,1.448,1.831,2.66,2.797c2.366,1.888,5.311,4.238,5.304,9.014c0,0.276,0.223,0.5,0.499,0.501c0,0,0,0,0.001,0
			c0.276,0,0.5-0.223,0.5-0.499c0.008-5.258-3.28-7.882-5.68-9.798C6.971,6.324,6.02,5.565,5.716,4.813
			c-0.079-0.196-0.134-0.386-0.17-0.571C5.535,4.184,5.537,4.132,5.53,4.076C5.516,3.963,5.505,3.85,5.508,3.741
			c0.015-0.297,0.098-0.568,0.258-0.806C6.373,2.036,8.049,1.5,10.252,1.5c1.792,0,3.123,0.675,3.982,1.295
			c-1.921-0.724-4.408-0.42-5.909-0.118C7.645,2.815,7.311,3.593,7.68,4.181C8.371,5.283,9.544,6.916,11,8c2.376,1.769,5-1,5-1
			s2.624,2.769,5,1c1.456-1.084,2.629-2.717,3.32-3.819c0.369-0.588,0.036-1.366-0.645-1.503c-1.502-0.302-3.988-0.606-5.909,0.118
			c0.86-0.62,2.191-1.295,3.982-1.295c2.203,0,3.88,0.536,4.486,1.435c0.161,0.238,0.244,0.509,0.258,0.806
			c0.003,0.109-0.008,0.222-0.022,0.335c-0.007,0.056-0.005,0.108-0.016,0.166c-0.036,0.185-0.091,0.375-0.17,0.571
			c-0.304,0.752-1.255,1.511-2.356,2.39c-2.4,1.916-5.688,4.54-5.68,9.798c0,0.276,0.224,0.499,0.5,0.499c0,0,0,0,0.001,0
			c0.276,0,0.5-0.225,0.499-0.501c-0.007-4.776,2.938-7.126,5.304-9.014c1.211-0.967,2.258-1.802,2.66-2.797
			c0.113-0.279,0.18-0.535,0.226-0.778c0.005-0.026,0.012-0.053,0.016-0.079c0.039-0.242,0.047-0.463,0.035-0.669
			C27.485,3.602,27.483,3.543,27.477,3.484z"/>
		<path fill="#D1D4D4" d="M16.427,12.773C17.457,11.024,20,6.601,20,5.5C20,4.119,18.881,3,17.5,3c-0.249,0-0.487,0.231-0.713,0.516
			C16.586,3.771,16.293,3.899,16,3.899v9.118C16.165,13.017,16.33,12.936,16.427,12.773z"/>
		<circle fill="#54B668" cx="18" cy="17" r="1"/>
		<circle fill="#60C46F" cx="14.5" cy="15.5" r="0.5"/>
		<path fill="#FFFFFF" d="M15,5.5C15,6.328,14.328,7,13.5,7S12,6.328,12,5.5S15,4.672,15,5.5z"/>
		<path fill="#E85160" d="M21,8c1.456-1.084,2.629-2.717,3.32-3.819c0.369-0.588,0.036-1.366-0.645-1.503
			c-1.502-0.302-3.988-0.606-5.909,0.118c0.86-0.62,2.191-1.295,3.982-1.295c2.203,0,3.88,0.536,4.486,1.435
			c0.161,0.238,0.244,0.509,0.258,0.806c0.003,0.109-0.008,0.222-0.022,0.335c-0.007,0.056-0.005,0.108-0.016,0.166
			c-0.036,0.185-0.091,0.375-0.17,0.571c-0.304,0.752-1.255,1.511-2.356,2.39c-2.4,1.916-5.688,4.54-5.68,9.798
			c0,0.276,0.224,0.499,0.5,0.499c0,0,0,0,0.001,0c0.276,0,0.5-0.225,0.499-0.501c-0.007-4.776,2.938-7.126,5.304-9.014
			c1.211-0.967,2.258-1.802,2.66-2.797c0.113-0.279,0.18-0.535,0.226-0.778c0.005-0.026,0.012-0.053,0.016-0.079
			c0.039-0.242,0.047-0.463,0.035-0.669c-0.003-0.059-0.004-0.118-0.01-0.177c-0.017-0.135-0.045-0.26-0.079-0.379
			c-0.083-0.351-0.206-0.691-0.418-1.005C26.094,0.785,24.137,0,21.748,0C18.425,0,16.472,1.605,16,2.044V7C16,7,18.624,9.769,21,8z
			"/>
		<path fill="#F7F7F7" d="M20,5.5C20,6.328,19.328,7,18.5,7S17,6.328,17,5.5S20,4.672,20,5.5z"/>
		<path fill="#FFD04D" d="M12.671,4.973C12.572,5.129,12.5,5.302,12.5,5.5c0,0.552,0.448,1,1,1s1-0.448,1-1
			c0-0.198-0.072-0.371-0.171-0.527C13.834,4.848,13.166,4.848,12.671,4.973z"/>
		<path fill="#F7C845" d="M19.329,4.973C19.428,5.129,19.5,5.302,19.5,5.5c0,0.552-0.448,1-1,1s-1-0.448-1-1
			c0-0.198,0.072-0.371,0.171-0.527C18.166,4.848,18.834,4.848,19.329,4.973z"/>
		<circle fill="#373F3F" cx="13.5" cy="5.5" r="0.5"/>
		<circle fill="#2B3332" cx="18.5" cy="5.5" r="0.5"/>
		<path fill="#F7C845" d="M17,7c0,0.552-0.448,2-1,2c-0.552,0-1-1.448-1-2s0.448-1,1-1C16.552,6,17,6.448,17,7z"/>
		<path fill="#F0C13E" d="M17,7c0-0.552-0.448-1-1-1v3C16.552,9,17,7.552,17,7z"/>
	</g>
</g>
</svg>
