<?xml version="1.0" encoding="utf-8"?>
<!-- Generator: Adobe Illustrator 23.0.6, SVG Export Plug-In . SVG Version: 6.00 Build 0)  -->
<svg version="1.1" xmlns="http://www.w3.org/2000/svg" xmlns:xlink="http://www.w3.org/1999/xlink" x="0px" y="0px" width="32px"
	 height="32px" viewBox="0 0 32 32" enable-background="new 0 0 32 32" xml:space="preserve">
<g id="labels">
	<g>
	</g>
</g>
<g id="icons">
	<g>
		<path fill="#4F4949" d="M13,11c-3.939,0-8.85-4.851-1.354-10.728C11.6,0.136,11.6,0.137,11.554,0.001
			C3.11,0.049,0.11,1.549,0.003,11.439c-0.002,0.145,0.189,0.215,0.271,0.096C1.331,10.007,3.085,10.085,4,11
			c0.721,0.721,0.922,1.963,0.978,2.599c0.012,0.135,0.176,0.188,0.263,0.084C5.831,12.969,7.416,11.416,9,13c2,2,4,0,4,0V11z"/>
		<path fill="#413B3B" d="M19.003,11c3.939,0,8.85-4.851,1.354-10.728c0.046-0.135,0.046-0.135,0.092-0.271
			C28.893,0.049,31.893,1.549,32,11.439c0.002,0.145-0.189,0.215-0.271,0.096c-1.057-1.528-2.811-1.45-3.726-0.535
			c-0.721,0.721-0.922,1.963-0.978,2.599c-0.012,0.135-0.176,0.188-0.263,0.084c-0.59-0.714-2.174-2.268-3.759-0.683c-2,2-4,0-4,0
			V11z"/>
		<path fill="#C1DDEE" d="M28.862,18.776l-3.329-1.665c-0.092-0.046-0.092-0.178,0-0.224l1.172-0.586
			c0.208-0.104,0.174-0.41-0.051-0.466l-1.868-0.467l1.015-1.692c0.12-0.2-0.075-0.441-0.296-0.365l-1.269,0.437
			c-0.098,0.034-0.192-0.059-0.159-0.158l1.176-3.528c0.065-0.195-0.121-0.381-0.316-0.316l-3.531,1.177
			c-0.098,0.033-0.191-0.06-0.158-0.158l0.414-1.243c0.073-0.22-0.167-0.413-0.366-0.293l-1.651,0.99l-0.479-1.914
			c-0.057-0.226-0.365-0.259-0.467-0.049l-0.588,1.207c-0.045,0.093-0.178,0.094-0.224,0.001l-1.663-3.326
			c-0.092-0.184-0.355-0.184-0.447,0l-1.665,3.329c-0.046,0.092-0.178,0.092-0.224,0l-0.586-1.172
			c-0.104-0.208-0.41-0.174-0.466,0.051l-0.625,2.498C9.137,12.276,7,15.385,7,19c0,3.61,2.13,6.714,5.197,8.148l0.637,2.546
			c0.057,0.226,0.365,0.259,0.467,0.049l0.588-1.207c0.045-0.093,0.178-0.094,0.224-0.001l1.663,3.326
			c0.092,0.184,0.355,0.184,0.447,0l1.665-3.329c0.046-0.092,0.178-0.092,0.224,0l0.586,1.172c0.104,0.208,0.41,0.174,0.466-0.051
			l0.467-1.868l1.692,1.015c0.2,0.12,0.441-0.075,0.365-0.296l-0.437-1.269c-0.034-0.098,0.059-0.192,0.158-0.159l3.528,1.176
			c0.195,0.065,0.381-0.121,0.316-0.316l-1.177-3.531c-0.033-0.098,0.06-0.191,0.158-0.158l1.243,0.414
			c0.22,0.073,0.413-0.167,0.293-0.366l-0.99-1.651l1.914-0.479c0.226-0.057,0.259-0.365,0.049-0.467l-1.207-0.588
			c-0.093-0.045-0.094-0.178-0.001-0.224l3.326-1.663C29.046,19.131,29.046,18.869,28.862,18.776z"/>
		<path fill="#D2E6F3" d="M15.776,6.138l-1.665,3.329c-0.046,0.092-0.178,0.092-0.224,0l-0.586-1.172
			c-0.104-0.208-0.41-0.174-0.466,0.051l-0.467,1.868l-1.692-1.015c-0.2-0.12-0.441,0.075-0.365,0.296l0.437,1.269
			c0.034,0.098-0.059,0.192-0.158,0.159L7.063,9.747c-0.195-0.065-0.381,0.121-0.316,0.316l1.177,3.531
			c0.033,0.098-0.06,0.191-0.158,0.158l-1.243-0.414c-0.22-0.073-0.413,0.167-0.293,0.366l0.99,1.651l-1.914,0.479
			c-0.226,0.057-0.259,0.365-0.049,0.467l1.207,0.588c0.093,0.045,0.094,0.178,0.001,0.224l-3.326,1.663
			c-0.184,0.092-0.184,0.355,0,0.447l3.329,1.665c0.092,0.046,0.092,0.178,0,0.224l-1.172,0.586
			c-0.208,0.104-0.174,0.41,0.051,0.466l1.868,0.467l-1.015,1.692c-0.12,0.2,0.075,0.441,0.296,0.365l1.269-0.437
			c0.098-0.034,0.192,0.059,0.159,0.158l-1.176,3.528c-0.065,0.195,0.121,0.381,0.316,0.316l3.531-1.177
			c0.098-0.033,0.191,0.06,0.158,0.158l-0.414,1.243c-0.073,0.22,0.167,0.413,0.366,0.293l1.651-0.99l0.479,1.914
			c0.057,0.226,0.365,0.259,0.467,0.049l0.588-1.207c0.045-0.093,0.178-0.094,0.224-0.001l1.663,3.326
			C15.822,31.954,15.911,32,16,32v-4v-1.665V11.665V10V6C15.911,6,15.822,6.046,15.776,6.138z"/>
		<ellipse fill="#E59FA8" cx="16" cy="19.5" rx="3" ry="2.5"/>
		<path fill="#E8AAB1" d="M16,17c-1.657,0-3,1.119-3,2.5s1.343,2.5,3,2.5V17z"/>
		<g>
			<path fill="#2B3332" d="M21,16.75c-0.039,0-0.077-0.009-0.112-0.026L20,16.279l-0.888,0.444
				c-0.067,0.034-0.147,0.035-0.216,0.003c-0.069-0.032-0.12-0.093-0.138-0.167l-0.5-2c-0.033-0.134,0.048-0.27,0.182-0.303
				c0.135-0.034,0.27,0.048,0.303,0.182l0.424,1.698l0.721-0.361c0.07-0.035,0.153-0.035,0.224,0l0.721,0.361l0.424-1.698
				c0.033-0.134,0.168-0.215,0.303-0.182c0.134,0.034,0.215,0.169,0.182,0.303l-0.5,2c-0.019,0.074-0.069,0.135-0.138,0.167
				C21.071,16.742,21.036,16.75,21,16.75z"/>
		</g>
		<g>
			<path fill="#373F3F" d="M13,16.75c-0.039,0-0.077-0.009-0.112-0.026L12,16.279l-0.888,0.444
				c-0.068,0.034-0.147,0.035-0.216,0.003c-0.069-0.032-0.12-0.093-0.138-0.167l-0.5-2c-0.033-0.134,0.048-0.27,0.182-0.303
				c0.134-0.034,0.27,0.048,0.303,0.182l0.424,1.698l0.721-0.361c0.07-0.035,0.153-0.035,0.224,0l0.721,0.361l0.424-1.698
				c0.033-0.134,0.167-0.215,0.303-0.182c0.134,0.034,0.215,0.169,0.182,0.303l-0.5,2c-0.019,0.074-0.069,0.135-0.138,0.167
				C13.071,16.742,13.036,16.75,13,16.75z"/>
		</g>
		<path fill="#2B3332" d="M17,18c-0.321,0-0.607,0.152-0.79,0.387c-0.112,0.145-0.307,0.145-0.419,0C15.607,18.152,15.321,18,15,18
			c-0.552,0-1,0.448-1,1c0,1,1,2,2,2s2-1,2-2C18,18.448,17.552,18,17,18z"/>
		<path fill="#E8AAB1" d="M16,27c3.398,0,5.352-2.886,5.864-4.981c0.104-0.425-0.354-0.768-0.736-0.556
			C19.64,22.287,18.533,23,16,23s-3.64-0.713-5.128-1.537c-0.383-0.212-0.84,0.131-0.736,0.556C10.648,24.114,12.602,27,16,27z"/>
		<path fill="#ECB7BE" d="M16,23c-2.533,0-3.64-0.713-5.128-1.537c-0.383-0.212-0.84,0.131-0.736,0.556
			C10.648,24.114,12.602,27,16,27V23z"/>
		<path fill="#E59FA8" d="M19.938,25.366C19.023,24.541,17.608,24,16,24s-3.023,0.541-3.938,1.366C13.033,26.312,14.344,27,16,27
			S18.967,26.312,19.938,25.366z"/>
		<path fill="#E8AAB1" d="M16,24c-1.608,0-3.023,0.541-3.938,1.366C13.033,26.312,14.344,27,16,27V24z"/>
		<path fill="#EDEEEE" d="M16,23c-0.59,0-1.098-0.042-1.556-0.112l1.109,2.217c0.184,0.369,0.71,0.369,0.894,0l1.109-2.217
			C17.098,22.958,16.59,23,16,23z"/>
		<g>
			<path fill="#FFFFFF" d="M14.444,22.888l1.109,2.217c0.092,0.184,0.27,0.276,0.447,0.276V23C15.41,23,14.902,22.958,14.444,22.888
				z"/>
		</g>
		<g>
			<path fill="#373F3F" d="M15.79,18.387C15.607,18.152,15.321,18,15,18c-0.552,0-1,0.448-1,1c0,1,1,2,2,2v-2.504
				C15.923,18.496,15.846,18.46,15.79,18.387z"/>
		</g>
	</g>
</g>
</svg>
