<svg xmlns="http://www.w3.org/2000/svg" viewBox="0 0 32 32"><defs><style>.a{fill:#413b3b;}.b{fill:#4f4949;}.c{fill:#dd7c8a;}.d{fill:#e3e5e5;}.e{fill:#b0d3ea;}.f{fill:#e08c96;}.g{fill:#dadddc;}.h{fill:#5a5353;}.i{fill:#de8490;}.j{fill:#f7f7f7;}.k{fill:#2b3332;}.l{fill:#544c4a;}.m{fill:#edeeee;}.n{fill:#c1ddee;}.o{fill:#e2959e;}.p{fill:#635c5c;}.q{fill:#fff;}.r{fill:#373f3f;}</style></defs><title>529-drilbur-shiny</title><path class="a" d="M20.56543,25.41487c-.74952.28437-1.016,1.41409-.59515,2.52332s1.36955,1.778,2.11907,1.49369,1.0159-1.41409.59509-2.52332S21.31489,25.13057,20.56543,25.41487Z"/><path class="b" d="M16,24.70667h4.53687l3.05194-2.44581a11.18293,11.18293,0,0,0-.48084-2.12573L16,23.12213Z"/><path class="b" d="M21.04706,15.69592C20.291,10.03461,19.96326,7.78448,16,7.78448V19.71484l5.75537-2.741C21.5376,16.55859,21.306,16.13513,21.04706,15.69592Z"/><path class="c" d="M23.108,20.13513a19.86872,19.86872,0,0,0-1.3526-3.16125L16,19.71484v3.40729Z"/><path class="c" d="M16,24.70667v2.46856c1.133,0,4.66412-.04657,5.68323-.53448,1.42474-.68207,2.15381-2.164,1.90558-4.37989l-3.05194,2.44581Z"/><path class="d" d="M19.18086,14.372c0-2.347-1.42408-4.24968-3.18086-4.24968v8.49929C17.43355,18.16287,18.59828,16.54807,19.18086,14.372Z"/><path class="e" d="M17.62859,12.09775c0-.64652-.72915-1.17059-1.62859-1.17059v2.34118C16.89944,13.26834,17.62859,12.74421,17.62859,12.09775Z"/><path class="f" d="M18.12062,15.26592a5.10342,5.10342,0,0,1-2.12062.43v1.91089C16.89944,17.60683,18.12062,15.91238,18.12062,15.26592Z"/><path class="g" d="M24.173,7.45962c2.51887,1.27429,4.42744,4.09074,4.0484,9.49257C31.01906,12.86048,32.146,6.40659,31.985,2.5027,28.59815,2.612,25.99318,4.843,24.173,7.45962Z"/><path class="h" d="M24.173,7.45962c-2.27492,3.27038-3.32279,7.14372-3.12588,8.23632l.9091,5.04535c2.64874.02655,4.71309-1.51915,6.26518-3.7891C28.60041,11.55036,26.69184,8.73391,24.173,7.45962Z"/><ellipse class="i" cx="25.54265" cy="13.63759" rx="1.66919" ry="2.53176"/><path class="j" d="M18.83791,9.903c-.59412,0-1.07578.72277-1.07578,1.61441s.48166,1.61434,1.07578,1.61434,1.07578-.72277,1.07578-1.61434S19.432,9.903,18.83791,9.903Z"/><path class="k" d="M18.63669,10.60155a.40551.40551,0,1,0,.40554.40553A.40554.40554,0,0,0,18.63669,10.60155Z"/><path class="b" d="M11.43457,25.41487c.74952.28437,1.016,1.41409.59515,2.52332s-1.36955,1.778-2.11907,1.49369-1.0159-1.41409-.59509-2.52332S10.68511,25.13057,11.43457,25.41487Z"/><polygon class="l" points="16 24.707 16 23.122 12.229 24.707 16 24.707"/><path class="h" d="M16,7.78448c-3.96326,0-4.291,2.25013-5.04706,7.91144-1.88867,3.20392-2.6579,5.76813-2.57715,7.64984L16,19.71484Z"/><path class="i" d="M10.31677,26.64075c1.01911.48791,4.55023.53448,5.68323.53448V24.70667H12.22925L16,23.12213V19.71484L8.37579,23.34576A3.54071,3.54071,0,0,0,10.31677,26.64075Z"/><path class="m" d="M12.81914,14.372c0-2.347,1.42408-4.24968,3.18086-4.24968v8.49929C14.56645,18.16287,13.40172,16.54807,12.81914,14.372Z"/><path class="n" d="M14.37141,12.09775c0-.64652.72915-1.17059,1.62859-1.17059v2.34118C15.10056,13.26834,14.37141,12.74421,14.37141,12.09775Z"/><path class="o" d="M13.87938,15.26592a5.10342,5.10342,0,0,0,2.12062.43v1.91089C15.10056,17.60683,13.87938,15.91238,13.87938,15.26592Z"/><path class="d" d="M7.827,7.45962c-2.51887,1.27429-4.42744,4.09074-4.0484,9.49257C.98094,12.86048-.14595,6.40659.015,2.5027,3.40185,2.612,6.00682,4.843,7.827,7.45962Z"/><path class="p" d="M7.827,7.45962c2.27492,3.27038,3.32279,7.14372,3.12588,8.23632l-.9091,5.04535c-2.64874.02655-4.71309-1.51915-6.26518-3.7891C3.39959,11.55036,5.30816,8.73391,7.827,7.45962Z"/><ellipse class="f" cx="6.45735" cy="13.63759" rx="1.66919" ry="2.53176"/><path class="q" d="M13.16209,9.903c.59412,0,1.07578.72277,1.07578,1.61441s-.48166,1.61434-1.07578,1.61434-1.07578-.72277-1.07578-1.61434S12.568,9.903,13.16209,9.903Z"/><path class="r" d="M13.36331,10.60155a.40551.40551,0,1,1-.40554.40553A.40554.40554,0,0,1,13.36331,10.60155Z"/></svg>