<svg xmlns="http://www.w3.org/2000/svg" viewBox="0 0 32 32"><defs><style>.a{fill:#78df7c;}.b{fill:#6cd275;}.c{fill:#b1e346;}.d{fill:#edeeee;}.e{fill:#84ed82;}.f{fill:#bee758;}.g{fill:#373f3f;}.h{fill:#dd564c;}.i{fill:#d64f45;}.j{fill:#60c46f;}.k{fill:#aadb3d;}.l{fill:#e3e5e5;}.m{fill:#2b3332;}.n{fill:#d1473d;}</style></defs><title>540-sewaddle-shiny</title><path class="a" d="M12.07862,24.37539C11.39645,30.25348,12.3051,32,16.00361,32V24.79856A12.399,12.399,0,0,1,12.07862,24.37539Z"/><path class="b" d="M9.899,4.77532c.57923,6.51306-1.16269,8.40771-4.6273,6.8749-1.13236,1.29179-.99638,3.227-.26441,5.46462.27773-1.17276.91669-1.46867,1.93026-.85475.26478-3.63989,4.2161-7.7461,9.06607-7.7461V.01578Z"/><path class="c" d="M6.93754,16.26009a4.25971,4.25971,0,0,1,.36233.2412A21.481,21.481,0,0,1,9.23682,19.475c.668-2.00319,3.44246-3.506,6.76679-3.506V8.514C11.15364,8.514,7.20232,12.6202,6.93754,16.26009Z"/><path class="d" d="M9.23682,19.475a17.01445,17.01445,0,0,0,2.95378,3.98589c-.04248.3188-.07747.61717-.112.91448a12.399,12.399,0,0,0,3.925.42317V15.969C12.67928,15.969,9.90482,17.47183,9.23682,19.475Z"/><path class="e" d="M7.29987,16.50129c-1.22789-.92124-1.98288-.69439-2.29259.61355.324,2.92639,3.70183,4.65652,7.18332,6.34607C10.45538,22.10226,8.12822,17.25076,7.29987,16.50129Z"/><path class="f" d="M14.22584,5.57684a2.07581,2.07581,0,1,0,1.77777,3.13231V6.59606A2.06741,2.06741,0,0,0,14.22584,5.57684Z"/><circle class="g" cx="11.25397" cy="14.34188" r="1.62716"/><circle class="d" cx="11.25397" cy="14.34188" r="0.82762"/><path class="h" d="M13.887,18.09875l2.11665-1.558V14.17413C12.88113,14.17413,12.46748,16.59289,13.887,18.09875Z"/><circle class="i" cx="13.03891" cy="25.27749" r="1.59746"/><circle class="i" cx="12.83365" cy="28.43879" r="1.3922"/><circle class="i" cx="12.83365" cy="30.969" r="0.96637"/><path class="b" d="M19.92138,24.35961c.68217,5.87809-.22648,7.62461-3.925,7.62461V24.78278A12.399,12.399,0,0,0,19.92138,24.35961Z"/><path class="j" d="M22.101,4.75954c-.57923,6.51306,1.16269,8.40771,4.6273,6.8749,1.13236,1.29179.99638,3.227.26441,5.46461-.27773-1.17275-.91669-1.46866-1.93026-.85475-.26478-3.63988-4.2161-7.7461-9.06607-7.7461V0Z"/><path class="k" d="M25.06246,16.2443a4.26233,4.26233,0,0,0-.36233.24121,21.481,21.481,0,0,0-1.937,2.97373c-.668-2.00319-3.44246-3.506-6.76679-3.506V8.4982C20.84636,8.4982,24.79768,12.60442,25.06246,16.2443Z"/><path class="l" d="M22.76318,19.45924a17.01445,17.01445,0,0,1-2.95378,3.98589c.04248.3188.07747.61716.112.91448a12.399,12.399,0,0,1-3.925.42317V15.95325C19.32072,15.95325,22.09518,17.45605,22.76318,19.45924Z"/><path class="a" d="M24.70013,16.48551c1.22789-.92124,1.98288-.6944,2.29259.61354-.324,2.9264-3.70183,4.65653-7.18332,6.34608C21.54462,22.08648,23.87178,17.235,24.70013,16.48551Z"/><path class="c" d="M17.77416,5.56106a2.07581,2.07581,0,1,1-1.77777,3.13231V6.58028A2.06741,2.06741,0,0,1,17.77416,5.56106Z"/><circle class="m" cx="20.74603" cy="14.3261" r="1.62716"/><circle class="l" cx="20.74603" cy="14.3261" r="0.82762"/><path class="i" d="M18.113,18.083l-2.11665-1.558V14.15835C19.11887,14.15835,19.53252,16.57711,18.113,18.083Z"/><circle class="n" cx="18.96109" cy="25.26171" r="1.59746"/><circle class="n" cx="19.16635" cy="28.42301" r="1.3922"/><circle class="n" cx="19.16635" cy="30.95322" r="0.96637"/></svg>