<svg xmlns="http://www.w3.org/2000/svg" viewBox="0 0 32 32"><defs><style>.a{fill:#8e7763;}.b{fill:#cbeb6b;}.c{fill:#edeeee;}.d{fill:#988371;}.e{fill:#9aa6d6;}.f{fill:#9d8978;}.g{fill:#d9f07d;}.h{fill:#b9bfbe;}.i{fill:#e6f490;}.j{fill:#a28f7f;}.k{fill:#373f3f;}.l{fill:#876f5d;}.m{fill:#bee758;}.n{fill:#e3e5e5;}.o{fill:#8694d1;}.p{fill:#abb2b1;}.q{fill:#2b3332;}</style></defs><title>552-krokorok-shiny</title><path class="a" d="M12.50634,28.487c0-1.97518-.39768-4.03822-2.31813-3.57639a1.848,1.848,0,0,0-1.87614.46557,5.43977,5.43977,0,0,0,1.26564,1.12877,1.66952,1.66952,0,0,0-.65564,1.20468,1.80724,1.80724,0,0,1-1.0886-.15956,3.57937,3.57937,0,0,0,2.16671,2.62949h2.56045C12.54239,29.73221,12.50634,29.1786,12.50634,28.487Z"/><path class="b" d="M8.92207,27.70961a1.66952,1.66952,0,0,1,.65564-1.20468,5.43977,5.43977,0,0,1-1.26564-1.12877,2.49324,2.49324,0,0,0-.4786,2.17389A1.80724,1.80724,0,0,0,8.92207,27.70961Z"/><path class="b" d="M12.56063,30.17954H10.00018c-.28663.68126,1.02624.97125,2.41844,1.24186A2.43189,2.43189,0,0,0,12.56063,30.17954Z"/><path class="c" d="M6.86666,32.00451c.72785,0,1.36347.00293,1.91937.00337l-.78983-.80763C7.14166,31.32751,5.2062,31.72469,6.86666,32.00451Z"/><path class="a" d="M12.41862,31.4214c-1.3922-.27061-2.70507-.5606-2.41844-1.24186l-.42247-.087c-.78666-.105-1.48387.17792-1.58151,1.10773l.78983.80763C11.21382,32.00972,12.11019,31.96408,12.41862,31.4214Z"/><path class="d" d="M13.2642,16.3668l.32871-1.46429-.63631-1.64838-.08194,1.82059A18.19751,18.19751,0,0,0,9.95676,17.101l.9342,1.07156A8.96957,8.96957,0,0,1,13.2642,16.3668Z"/><path class="c" d="M8.26566,22.58629l.40665-.707c.0293-.08137.06738-.152.098-.23171l-.569-.25058Z"/><polygon class="c" points="7.554 22.261 8.201 21.397 7.495 21.397 7.554 22.261"/><path class="d" d="M8.6123,18.45291a9.30706,9.30706,0,0,0-1.41178,2.219l-.098.33506.39234.39006h.70649l.569.25058A11.55351,11.55351,0,0,1,9.7754,19.616Z"/><polygon class="c" points="6.847 21.879 7.495 21.397 7.102 21.007 6.847 21.879"/><path class="b" d="M8.6123,18.45291,9.7754,19.616a9.46661,9.46661,0,0,1,1.11556-1.4435L9.95676,17.101A12.20628,12.20628,0,0,0,8.6123,18.45291Z"/><path class="e" d="M12.9566,14.1383c-.17946,3.68128-2.00049,7.3428-3.53915,11.00774,2.31356,4.26814,3.81732,4.47417,6.59568,4.47417V14.70908Z"/><path class="f" d="M12.84815,15.001c0,.65539,1.54336.996,3.165,1.02974V2.32446C13.80485-6.0468-1.30328,11.01737,12.84815,15.001Z"/><path class="g" d="M9.65907,4.31763c-1.27561,4.22549,2.8303,6.69974,4.58427,4.46469h1.76979V5.1149Z"/><ellipse class="h" cx="12.60797" cy="6.86888" rx="0.87699" ry="1.5148"/><circle class="c" cx="12.50636" cy="6.1507" r="0.45025"/><path class="i" d="M12.9566,11.01737c0-.21448,1.52855-.32178,3.05653-.32165v-1.073C14.48515,9.62237,12.9566,10.08731,12.9566,11.01737Z"/><ellipse class="j" cx="13.59289" cy="12.39577" rx="2.42024" ry="1.74254"/><ellipse class="k" cx="13.59289" cy="12.39577" rx="0.38425" ry="0.67767" transform="translate(-4.37678 8.45716) rotate(-30)"/><path class="g" d="M12.35181,17.5922c-.16922.60955-.35986,1.21892-.57758,1.8279a42.1798,42.1798,0,0,0,4.2389.18975V17.69753C14.68068,17.694,13.36457,17.65939,12.35181,17.5922Z"/><path class="g" d="M11.01065,21.397c-.36163.87927-.74082,1.75835-1.11885,2.63749,1.48132.11589,3.81242.17164,6.12133.16858V21.4947C14.22408,21.49718,12.42224,21.46514,11.01065,21.397Z"/><path class="g" d="M10.00018,26.15613c1.99927,3.28189,3.47532,3.46408,6.013,3.46408V26.74865A26.85423,26.85423,0,0,1,10.00018,26.15613Z"/><path class="l" d="M19.49366,28.49227c0-1.97519.39768-4.03822,2.31813-3.5764a1.84807,1.84807,0,0,1,1.87614.46557,5.43982,5.43982,0,0,1-1.26564,1.12878,1.66952,1.66952,0,0,1,.65564,1.20468,1.80724,1.80724,0,0,0,1.0886-.15956,3.57939,3.57939,0,0,1-2.16671,2.62949H19.43937C19.45761,29.7375,19.49366,29.18389,19.49366,28.49227Z"/><path class="m" d="M23.07793,27.7149a1.66952,1.66952,0,0,0-.65564-1.20468,5.43982,5.43982,0,0,0,1.26564-1.12878,2.49327,2.49327,0,0,1,.4786,2.1739A1.80724,1.80724,0,0,1,23.07793,27.7149Z"/><path class="m" d="M19.43937,30.18483h2.56045c.28663.68125-1.02624.97125-2.41844,1.24186A2.43191,2.43191,0,0,1,19.43937,30.18483Z"/><path class="n" d="M25.13334,32.0098c-.72785,0-1.36347.00292-1.91937.00337l.78983-.80763C24.85834,31.3328,26.7938,31.73,25.13334,32.0098Z"/><path class="l" d="M19.58138,31.42669c1.3922-.27061,2.70507-.56061,2.41844-1.24186l.42247-.087c.78666-.10495,1.48387.17793,1.58151,1.10774l-.78983.80763C20.78618,32.015,19.88981,31.96937,19.58138,31.42669Z"/><path class="a" d="M18.7358,16.37209l-.32871-1.46429.63631-1.64838L19.12534,15.08a18.19687,18.19687,0,0,1,2.9179,2.02623L21.109,18.1778A8.96936,8.96936,0,0,0,18.7358,16.37209Z"/><path class="n" d="M23.73434,22.59157l-.40665-.707c-.0293-.08136-.06738-.152-.098-.2317l.569-.25059Z"/><polygon class="n" points="24.446 22.267 23.799 21.402 24.505 21.402 24.446 22.267"/><path class="a" d="M23.3877,18.4582a9.307,9.307,0,0,1,1.41178,2.219l.098.33507-.39234.39005h-.70649l-.569.25059A11.55351,11.55351,0,0,0,22.2246,19.6213Z"/><polygon class="n" points="25.153 21.885 24.505 21.402 24.898 21.012 25.153 21.885"/><path class="m" d="M23.3877,18.4582l-1.1631,1.1631A9.46612,9.46612,0,0,0,21.109,18.1778l.9342-1.07156A12.20542,12.20542,0,0,1,23.3877,18.4582Z"/><path class="o" d="M19.0434,14.14359c.17946,3.68128,2.00049,7.34279,3.53915,11.00774-2.31356,4.26814-3.81732,4.47416-6.59568,4.47416V14.71436Z"/><path class="d" d="M19.15185,15.00627c0,.65538-1.54336.996-3.165,1.02974V2.32974C18.19515-6.04152,33.30328,11.02266,19.15185,15.00627Z"/><path class="b" d="M22.34093,4.32292c1.27561,4.22548-2.8303,6.69974-4.58427,4.46469H15.98687V5.12019Z"/><ellipse class="p" cx="19.39203" cy="6.87417" rx="0.87699" ry="1.5148"/><circle class="n" cx="19.49364" cy="6.15599" r="0.45025"/><path class="g" d="M19.0434,11.02266c0-.21448-1.52855-.32178-3.05653-.32166V9.628C17.51485,9.62766,19.0434,10.0926,19.0434,11.02266Z"/><ellipse class="f" cx="18.40711" cy="12.40105" rx="2.42024" ry="1.74254"/><ellipse class="q" cx="18.40711" cy="12.40105" rx="0.67767" ry="0.38425" transform="translate(-1.53607 22.14155) rotate(-60)"/><path class="b" d="M19.64819,17.59749c.16922.60955.35986,1.21891.57758,1.82789a42.17682,42.17682,0,0,1-4.2389.18975V17.70282C17.31932,17.69926,18.63543,17.66468,19.64819,17.59749Z"/><path class="b" d="M20.98935,21.40228c.36163.87927.74082,1.75835,1.11885,2.6375-1.48132.11588-3.81242.17163-6.12133.16858V21.5C17.77592,21.50247,19.57776,21.47043,20.98935,21.40228Z"/><path class="b" d="M21.99982,26.16142c-1.99927,3.28189-3.47532,3.46407-6.01295,3.46407V26.75394A26.85423,26.85423,0,0,0,21.99982,26.16142Z"/></svg>