<svg xmlns="http://www.w3.org/2000/svg" viewBox="0 0 32 32"><defs><style>.a{fill:#cc6aa7;}.b{fill:#c98123;}.c{fill:#d672ab;}.d{fill:#ce8924;}.e{fill:#dd7aae;}.f{fill:#f7c845;}.g{fill:#d39126;}.h{fill:#dadddc;}.i{fill:#f7f7f7;}.j{fill:#373f3f;}.k{fill:#ffd04d;}.l{fill:#bf64a6;}.m{fill:#c17c21;}.n{fill:#f0c13e;}.o{fill:#e3e5e5;}.p{fill:#edeeee;}.q{fill:#2b3332;}</style></defs><title>554-darumaka-shiny</title><path class="a" d="M12.1582,27.25168l-.07086-.0625.93036-2.75-6.22229-3.375c-.22351,2.64435.23376,4.66168,1.875,6.25l-.00794.0069Q10.39392,27.36145,12.1582,27.25168Z"/><path class="b" d="M12.1582,27.25168q-1.76349.10675-3.49573.0694c-1.95929,1.62945-2.27606,2.46569-1.86706,2.95147.28436.50623,1.14349.348,2.16662,0a2.23092,2.23092,0,0,0,1.375.75,1.56236,1.56236,0,0,0,1.3916-.83337c1.32721.32281,2.09351.32385,2.36615.04169C14.79345,29.48758,13.40783,28.357,12.1582,27.25168Z"/><path class="c" d="M3.62872,10.78964c-.00464-.00146-.00781-.00708-.01239-.00873a14.51325,14.51325,0,0,0-.57428,3.36164.58927.58927,0,0,1,.08667.01379l3.125,2.24121L7.962,10.23087Z"/><path class="d" d="M1.837,8.52255c-.54211.15485-.52636.87049-.45831,1.91663a1.761,1.761,0,0,0-1.375.91669c-.05054.44641.42133.87042.95831,1.29168C.38513,13.6282.215,14.21579.37872,14.48087c.22266.56433,1.95923-.52,2.66333-.33832a14.51325,14.51325,0,0,1,.57428-3.36164C2.9096,10.52762,2.87494,8.35623,1.837,8.52255Z"/><path class="e" d="M5.73272,18.10416c0,5.35956,6.60669,8.47821,10.271,8.47821V1.73026C9.68762,1.73026,5.73272,9.47647,5.73272,18.10416Z"/><path class="f" d="M14.41638,17.96237c0,1.609.71069,2.91321,1.58734,2.91321V15.04916C15.12707,15.04916,14.41638,16.35342,14.41638,17.96237Z"/><ellipse class="f" cx="12.08735" cy="17.8321" rx="2.78296" ry="1.51636" transform="translate(-6.85019 28.10134) rotate(-84.33853)"/><path class="g" d="M12.08734,6.41385l.32672,4.22046c-.08771.30414,2.61175,1.6615,3.58966,1.34772V3.61081C13.24994,3.79666,12.08734,5.73813,12.08734,6.41385Z"/><path class="h" d="M15.98089,11.57712c-1.96991,0-2.66455-1.28284-2.92407-.57379a2.58875,2.58875,0,0,0,2.92407,2.78137l.02283-.00006V11.57785Z"/><ellipse class="i" cx="11.72312" cy="8.86023" rx="2.37167" ry="3.156"/><ellipse class="j" cx="11.72863" cy="8.80736" rx="0.62177" ry="1.00442"/><path class="k" d="M9.88006,2.6892,4.75372,1.02253c.84313,2.54074,2.14717,6.25,4.125,6.25,2.10062-.147,4.01909-.55737,4.79167-2.625.3419-.73092,1.134-3.22739-.875-3.625C11.1978.85449,9.95733,1.09937,9.88006,2.6892Z"/><path class="l" d="M19.84924,27.25168l.07086-.0625-.93036-2.75,6.22229-3.375c.22351,2.64435-.23376,4.66168-1.875,6.25l.00794.0069Q21.61352,27.36145,19.84924,27.25168Z"/><path class="m" d="M19.84924,27.25168q1.76349.10675,3.49573.0694c1.95929,1.62945,2.27606,2.46569,1.86706,2.95147-.28436.50623-1.14349.348-2.16662,0a2.23092,2.23092,0,0,1-1.375.75,1.56236,1.56236,0,0,1-1.3916-.83337c-1.32721.32281-2.09351.32385-2.36615.04169C17.214,29.48758,18.59961,28.357,19.84924,27.25168Z"/><path class="a" d="M28.37872,10.78964c.00464-.00146.00781-.00708.01239-.00873a14.51325,14.51325,0,0,1,.57428,3.36164.58927.58927,0,0,0-.08667.01379l-3.125,2.24121-1.70831-6.16668Z"/><path class="b" d="M30.17041,8.52255c.54211.15485.52636.87049.45831,1.91663a1.761,1.761,0,0,1,1.375.91669c.05054.44641-.42133.87042-.95831,1.29168.5769.98065.74707,1.56824.58331,1.83332-.22266.56433-1.95923-.52-2.66333-.33832a14.51325,14.51325,0,0,0-.57428-3.36164C29.09784,10.52762,29.1325,8.35623,30.17041,8.52255Z"/><path class="c" d="M26.27472,18.10416c0,5.35956-6.60669,8.47821-10.271,8.47821V1.73026C22.31982,1.73026,26.27472,9.47647,26.27472,18.10416Z"/><path class="n" d="M17.59106,17.95985c-.00357,1.60894-.71715,2.91162-1.5938,2.90968l.01293-5.82641C16.88684,15.04507,17.59464,16.3509,17.59106,17.95985Z"/><ellipse class="n" cx="19.92038" cy="17.83474" rx="1.51636" ry="2.78296" transform="translate(-1.62716 2.00429) rotate(-5.53431)"/><path class="d" d="M19.9201,6.41385l-.32672,4.22046c.08771.30414-2.61175,1.6615-3.58966,1.34772V3.61081C18.7575,3.79666,19.9201,5.73813,19.9201,6.41385Z"/><path class="o" d="M16.02655,11.57712c1.96991,0,2.66455-1.28284,2.92407-.57379a2.58875,2.58875,0,0,1-2.92407,2.78137l-.02283-.00006V11.57785Z"/><ellipse class="p" cx="20.28432" cy="8.86023" rx="2.37167" ry="3.156"/><ellipse class="q" cx="20.27881" cy="8.80736" rx="0.62177" ry="1.00442"/><path class="f" d="M22.12738,2.6892l5.12634-1.66667c-.84313,2.54074-2.14717,6.25-4.125,6.25-2.10062-.147-4.01909-.55737-4.79167-2.625-.3419-.73092-1.134-3.22739.875-3.625C20.80964.85449,22.05011,1.09937,22.12738,2.6892Z"/></svg>