<svg xmlns="http://www.w3.org/2000/svg" viewBox="0 0 32 32"><defs><style>.a{fill:#bee758;}.b{fill:#a366ad;}.c{fill:#b370b9;}.d{fill:#d9f07d;}.e{fill:#d285d2;}.f{fill:#e6f490;}.g{fill:#eab5d7;}.h{fill:#e2a1c8;}.i{fill:#db92bb;}.j{fill:#ffd96c;}.k{fill:#c27bc6;}.l{fill:#cbeb6b;}.m{fill:#d786b3;}.n{fill:#b1e346;}.o{fill:#945ba0;}.p{fill:#ffd04d;}.q{fill:#c976a3;}</style></defs><title>556-maractus-shiny</title><path class="a" d="M13.748,17.8614a24.62977,24.62977,0,0,0-8.3915.65287L5.716,21.96241c2.09074.88484,4.50116.69152,7.028.10561a14.04648,14.04648,0,0,0-.74951,1.7236l.96091,2.12443,1.5223-2.71115,1.46623,3.51455L16,26.7052V17.54388Z"/><path class="b" d="M15.94394,26.71945,14.47771,23.2049,12.95541,25.916l-.96091-2.12443c-.4689,1.34037-.4772,2.31881-.01449,2.99658a40.9011,40.9011,0,0,1-3.87207,1.557l5.155.5109-1.63955,3.14908L16,29.62V26.7052Z"/><polygon class="c" points="13.357 17.534 13.955 19.964 16 18.598 16 17.909 13.357 17.534"/><path class="d" d="M11.36969,10.93625C13.24084,8.526,10.41055.54978,6.83453,3.48336L4.93166,5.35451C1.76022,7.24,8.42025,12.77569,11.36969,10.93625Z"/><polygon class="e" points="12.955 10.905 12.955 7.543 11.655 9.414 9.499 8.558 9.784 10.905 7.437 11.539 11.275 12.617 12.955 10.905"/><path class="f" d="M10.41052,14.15514c0,2.45378,2.50253,4.44293,5.58948,4.44293V9.71227C12.91305,9.71227,10.41052,11.70143,10.41052,14.15514Z"/><path class="g" d="M14.64842,10.75136c.11044.30426.73755.43619,1.35158.43508V7.24C14.73161,9.51282,14.50143,10.35146,14.64842,10.75136Z"/><circle class="h" cx="13.62142" cy="13.0294" r="1.49058"/><path class="i" d="M9.81429,5.41948c-.50638.279.30228,1.74661.80867,1.46758.59267.02632,1.12535-.85641,1.64728-1.90187C11.16406,5.01666,10.02371,5.03466,9.81429,5.41948Z"/><path class="i" d="M7.22959,9.5281c.42939-.38718-.69272-1.63162-1.12211-1.24444-.58305.10957-.90033,1.09053-1.17,2.22748C6.00729,10.22818,7.11346,9.95053,7.22959,9.5281Z"/><path class="j" d="M3.82416,2.74638C2.81777-.32428,5.12522-1.08054,6.13162,1.99013,9.33642-.88882,10.63622.5581,7.43141,3.437c4.14033.11153,3.1968,2.23206-.75071,1.87012C7.24149,8.532,5.55653,9.196,4.93744,6.09337,2.87506,9.06339.84918,7.89305,3.14509,4.98519-.15,4.65008.356,2.15009,3.82416,2.74638Z"/><ellipse class="i" cx="5.3565" cy="3.85549" rx="1.51077" ry="0.96283" transform="translate(-0.8969 5.96544) rotate(-54.39031)"/><polygon class="k" points="1.298 18.221 3.92 18.221 5.717 16.149 6.47 18.813 8.782 19.658 6.985 21.392 7.302 23.993 4.892 22.809 2.418 23.655 2.693 20.716 1.298 18.221"/><ellipse class="l" cx="4.49037" cy="20.44077" rx="1.88172" ry="1.79715"/><path class="m" d="M4.50576,22.3314c.27659-.30826-.61679-1.10985-.89338-.80159-.407.12213-.55887.84486-.665,1.67512C3.688,22.92249,4.455,22.64108,4.50576,22.3314Z"/><path class="m" d="M2.805,21.04436c.41383-.01645.36616-1.21578-.04766-1.19933-.37124-.20682-.9954.18793-1.66483.69038C1.81122,20.86979,2.5475,21.22375,2.805,21.04436Z"/><path class="m" d="M3.75273,19.31927c.11941.39656,1.26872.0505,1.14931-.34606.10741-.41116-.43088-.91678-1.08476-1.4393C3.67324,18.31341,3.51465,19.11482,3.75273,19.31927Z"/><path class="n" d="M18.252,17.82549a24.63027,24.63027,0,0,1,8.3915.65287L26.284,21.9265c-2.09074.88485-4.50116.69153-7.028.10561a14.04656,14.04656,0,0,1,.74951,1.72361l-.96091,2.12443L17.52229,23.169l-1.46623,3.51454L16,26.6693V17.508Z"/><path class="o" d="M16.05606,26.68354,17.52229,23.169l1.5223,2.71115.96091-2.12443c.4689,1.34037.4772,2.31881.01449,2.99658a40.90377,40.90377,0,0,0,3.87207,1.557l-5.155.5109,1.63955,3.14908L16,29.58405V26.6693Z"/><polygon class="b" points="18.643 17.498 18.045 19.928 16 18.562 16 17.873 18.643 17.498"/><path class="l" d="M20.63031,10.90035c-1.87115-2.4103.95914-10.38648,4.53516-7.45289l1.90287,1.87115C30.23978,7.20411,23.57975,12.73979,20.63031,10.90035Z"/><polygon class="k" points="19.045 10.869 19.045 7.507 20.345 9.378 22.501 8.522 22.216 10.869 24.563 11.503 20.725 12.581 19.045 10.869"/><path class="d" d="M21.58948,14.11924c0,2.45378-2.50253,4.44293-5.58948,4.44293V9.67637C19.087,9.67637,21.58948,11.66552,21.58948,14.11924Z"/><path class="h" d="M17.35158,10.71545c-.11044.30426-.73755.4362-1.35158.43508V7.20413C17.26839,9.47692,17.49857,10.31555,17.35158,10.71545Z"/><circle class="i" cx="18.37858" cy="12.9935" r="1.49058"/><path class="m" d="M22.18571,5.38357c.50638.279-.30228,1.74661-.80867,1.46759-.59267.02631-1.12535-.85641-1.64728-1.90187C20.83594,4.98076,21.97629,4.99876,22.18571,5.38357Z"/><path class="m" d="M24.77041,9.49219c-.42939-.38718.69272-1.63161,1.12211-1.24443.58305.10957.90033,1.09053,1.17,2.22748C25.99271,10.19228,24.88654,9.91463,24.77041,9.49219Z"/><path class="p" d="M28.17584,2.71048c1.00639-3.07067-1.30106-3.82692-2.30746-.75626-3.2048-2.87894-4.5046-1.432-1.29979,1.44692-4.14033.11152-3.1968,2.23206.75071,1.87012-.56079,3.2248,1.12417,3.88888,1.74326.7862,2.06238,2.97,4.08826,1.79969,1.79235-1.10817C32.15,4.61418,31.644,2.11419,28.17584,2.71048Z"/><ellipse class="m" cx="26.6435" cy="3.81959" rx="0.96283" ry="1.51077" transform="translate(2.75828 16.22771) rotate(-35.60969)"/><polygon class="c" points="30.702 18.185 28.08 18.185 26.283 16.113 25.53 18.777 23.218 19.623 25.015 21.356 24.698 23.957 27.108 22.773 29.582 23.619 29.307 20.68 30.702 18.185"/><ellipse class="a" cx="27.50963" cy="20.40487" rx="1.88172" ry="1.79715"/><path class="q" d="M27.49424,22.29549c-.27659-.30825.61679-1.10984.89338-.80158.407.12212.55887.84486.665,1.67512C28.312,22.88658,27.545,22.60518,27.49424,22.29549Z"/><path class="q" d="M29.195,21.00846c-.41383-.01645-.36616-1.21578.04766-1.19933.37124-.20682.9954.18793,1.66483.69037C30.18878,20.83389,29.4525,21.18785,29.195,21.00846Z"/><path class="q" d="M28.24727,19.28336c-.11941.39657-1.26872.05051-1.14931-.34606-.10741-.41116.43088-.91677,1.08476-1.43929C28.32676,18.27751,28.48535,19.07891,28.24727,19.28336Z"/></svg>