<svg xmlns="http://www.w3.org/2000/svg" viewBox="0 0 32 32"><defs><style>.a{fill:#84ed82;}.b{fill:#349363;}.c{fill:#379b6d;}.d{fill:#a9faa2;}.e{fill:#40a87b;}.f{fill:#c1fdbd;}.g{fill:#ffeaa7;}.h{fill:#ffe28a;}.i{fill:#ffd96c;}.j{fill:#db92bb;}.k{fill:#3aa176;}.l{fill:#8ff888;}.m{fill:#ffd04d;}.n{fill:#78df7c;}.o{fill:#338c5d;}.p{fill:#d786b3;}.q{fill:#f7c845;}</style></defs><title>556-maractus</title><path class="a" d="M13.748,18.01015a24.63027,24.63027,0,0,0-8.3915.65287L5.716,22.11116c2.09074.88484,4.50116.69152,7.028.10561a14.04656,14.04656,0,0,0-.74951,1.72361l.96091,2.12443,1.5223-2.71115,1.46623,3.51454L16,26.854V17.69263Z"/><path class="b" d="M15.94394,26.8682l-1.46623-3.51454-1.5223,2.71115-.96091-2.12443c-.4689,1.34036-.4772,2.3188-.01449,2.99658a40.90377,40.90377,0,0,1-3.87207,1.557l5.155.5109L11.62341,32.154,16,29.76871V26.854Z"/><polygon class="c" points="13.357 17.683 13.955 20.113 16 18.747 16 18.058 13.357 17.683"/><path class="d" d="M11.36969,11.085c1.87115-2.4103-.95914-10.38648-4.53516-7.45289L4.93166,5.50327C1.76022,7.38877,8.42025,12.92444,11.36969,11.085Z"/><polygon class="e" points="12.955 11.053 12.955 7.692 11.655 9.563 9.499 8.706 9.784 11.053 7.437 11.688 11.275 12.766 12.955 11.053"/><path class="f" d="M10.41052,14.3039c0,2.45378,2.50253,4.44293,5.58948,4.44293V9.861C12.91305,9.861,10.41052,11.85018,10.41052,14.3039Z"/><path class="g" d="M14.64842,10.90011c.11044.30426.73755.4362,1.35158.43508V7.38879C14.73161,9.66157,14.50143,10.50021,14.64842,10.90011Z"/><circle class="h" cx="13.62142" cy="13.17816" r="1.49058"/><path class="i" d="M9.81429,5.56823c-.50638.279.30228,1.74661.80867,1.46758.59267.02632,1.12535-.8564,1.64728-1.90186C11.16406,5.16541,10.02371,5.18342,9.81429,5.56823Z"/><path class="i" d="M7.22959,9.67685c.42939-.38718-.69272-1.63161-1.12211-1.24443-.58305.10956-.90033,1.09052-1.17,2.22748C6.00729,10.37693,7.11346,10.09929,7.22959,9.67685Z"/><path class="j" d="M3.82416,2.89513C2.81777-.17553,5.12522-.93178,6.13162,2.13888c3.2048-2.87895,4.5046-1.432,1.29979,1.44692,4.14033.11152,3.1968,2.23205-.75071,1.87012.56079,3.22479-1.12417,3.88887-1.74326.7862C2.87506,9.21214.84918,8.04181,3.14509,5.13395-.15,4.79883.356,2.29885,3.82416,2.89513Z"/><ellipse class="i" cx="5.3565" cy="4.00424" rx="1.51077" ry="0.96283" transform="translate(-1.01784 6.02758) rotate(-54.39031)"/><polygon class="k" points="1.298 18.37 3.92 18.37 5.717 16.298 6.47 18.962 8.782 19.807 6.985 21.541 7.302 24.142 4.892 22.958 2.418 23.803 2.693 20.864 1.298 18.37"/><ellipse class="l" cx="4.49037" cy="20.58953" rx="1.88172" ry="1.79715"/><path class="m" d="M4.50576,22.48015c.27659-.30826-.61679-1.10984-.89338-.80159-.407.12213-.55887.84487-.665,1.67513C3.688,23.07124,4.455,22.78984,4.50576,22.48015Z"/><path class="m" d="M2.805,21.19311c.41383-.01644.36616-1.21577-.04766-1.19933-.37124-.20681-.9954.18794-1.66483.69038C1.81122,21.01855,2.5475,21.37251,2.805,21.19311Z"/><path class="m" d="M3.75273,19.468c.11941.39657,1.26872.0505,1.14931-.34606.10741-.41116-.43088-.91677-1.08476-1.4393C3.67324,18.46216,3.51465,19.26357,3.75273,19.468Z"/><path class="n" d="M18.252,17.97425a24.62977,24.62977,0,0,1,8.3915.65287L26.284,22.07526c-2.09074.88484-4.50116.69152-7.028.10561a14.04648,14.04648,0,0,1,.74951,1.7236l-.96091,2.12443-1.5223-2.71115L16.05606,26.8323,16,26.81805V17.65673Z"/><path class="o" d="M16.05606,26.8323l1.46623-3.51455,1.5223,2.71115.96091-2.12443c.4689,1.34037.4772,2.31881.01449,2.99658a40.9011,40.9011,0,0,0,3.87207,1.557l-5.155.5109,1.63955,3.14909L16,29.7328V26.81805Z"/><polygon class="b" points="18.643 17.647 18.045 20.077 16 18.711 16 18.022 18.643 17.647"/><path class="l" d="M20.63031,11.0491c-1.87115-2.41029.95914-10.38647,4.53516-7.45289l1.90287,1.87115C30.23978,7.35286,23.57975,12.88854,20.63031,11.0491Z"/><polygon class="k" points="19.045 11.017 19.045 7.656 20.345 9.527 22.501 8.671 22.216 11.017 24.563 11.652 20.725 12.73 19.045 11.017"/><path class="d" d="M21.58948,14.268c0,2.45378-2.50253,4.44293-5.58948,4.44293V9.82512C19.087,9.82512,21.58948,11.81428,21.58948,14.268Z"/><path class="h" d="M17.35158,10.86421c-.11044.30426-.73755.43619-1.35158.43508V7.35289C17.26839,9.62567,17.49857,10.46431,17.35158,10.86421Z"/><circle class="i" cx="18.37858" cy="13.14226" r="1.49058"/><path class="m" d="M22.18571,5.53233c.50638.279-.30228,1.74661-.80867,1.46758-.59267.02632-1.12535-.85641-1.64728-1.90187C20.83594,5.12951,21.97629,5.14751,22.18571,5.53233Z"/><path class="m" d="M24.77041,9.641c-.42939-.38718.69272-1.63162,1.12211-1.24444.58305.10957.90033,1.09053,1.17,2.22748C25.99271,10.341,24.88654,10.06339,24.77041,9.641Z"/><path class="p" d="M28.17584,2.85923C29.18223-.21143,26.87478-.96769,25.86838,2.103,22.66358-.776,21.36378.671,24.56859,3.5499c-4.14033.11152-3.1968,2.23205.75071,1.87011-.56079,3.2248,1.12417,3.88888,1.74326.78621,2.06238,2.97,4.08826,1.79968,1.79235-1.10818C32.15,4.76293,31.644,2.26294,28.17584,2.85923Z"/><ellipse class="m" cx="26.6435" cy="3.96834" rx="0.96283" ry="1.51077" transform="translate(2.67167 16.25553) rotate(-35.60969)"/><polygon class="c" points="30.702 18.334 28.08 18.334 26.283 16.262 25.53 18.926 23.218 19.771 25.015 21.505 24.698 24.106 27.108 22.922 29.582 23.767 29.307 20.828 30.702 18.334"/><ellipse class="a" cx="27.50963" cy="20.55362" rx="1.88172" ry="1.79715"/><path class="q" d="M27.49424,22.44425c-.27659-.30826.61679-1.10985.89338-.80159.407.12213.55887.84486.665,1.67512C28.312,23.03534,27.545,22.75393,27.49424,22.44425Z"/><path class="q" d="M29.195,21.15721c-.41383-.01645-.36616-1.21578.04766-1.19933.37124-.20682.9954.18793,1.66483.69038C30.18878,20.98264,29.4525,21.3366,29.195,21.15721Z"/><path class="q" d="M28.24727,19.43212c-.11941.39656-1.26872.0505-1.14931-.34606-.10741-.41116.43088-.91678,1.08476-1.4393C28.32676,18.42626,28.48535,19.22767,28.24727,19.43212Z"/></svg>