<svg xmlns="http://www.w3.org/2000/svg" viewBox="0 0 32 32"><defs><style>.a{fill:#a79586;}.b{fill:#ab998b;}.c{fill:#ff805d;}.d{fill:#ff8d6e;}.e{fill:#373f3f;}.f{fill:#f7f7f7;}.g{fill:#f57552;}.h{fill:#ff9a7e;}.i{fill:#ffa68e;}.j{fill:#a28f7f;}.k{fill:#2b3332;}.l{fill:#edeeee;}.m{fill:#eb6b48;}.n{fill:#ffb49f;}</style></defs><title>557-dwebble-shiny</title><polygon class="a" points="7.606 4.682 7.606 8.573 16 6.465 16 0 7.606 4.682"/><polygon class="b" points="11.197 5.56 3.836 10.323 1.187 21.41 4.823 26.797 12.178 30.522 16 30.522 16 4.497 11.197 5.56"/><path class="c" d="M10.838,26.15808c0,1.92123,2.31114,3.47872,5.16205,3.47872V22.6793C13.14909,22.6793,10.838,24.23679,10.838,26.15808Z"/><path class="d" d="M9.41033,19.23327c0,2.9377,2.95026,5.31913,6.58967,5.31913V13.91413C12.36059,13.91413,9.41033,16.29563,9.41033,19.23327Z"/><path class="e" d="M14.26663,9.34471c-.00066-.2296-.00125-.4581-.00125-.684,0-3.75573-.96525-5.24536-2.29149-5.24536-1.31748,0-1.55781,1.86323-1.561,5.56926C11.62475,11.27344,13.14008,11.24858,14.26663,9.34471Z"/><ellipse class="f" cx="12.34107" cy="5.56022" rx="0.59142" ry="0.87817"/><path class="g" d="M11.64185,26.81216c.22194,1.77552-.29725,4.204-.79691,4.204s-.72892-1.63489-.72892-2.97642.22926-1.88169.72892-1.88169S11.64185,25.47063,11.64185,26.81216Z"/><path class="h" d="M8.13937,28.49907a9.24626,9.24626,0,0,1-2.61473-.51479c-3.32247-1.48224,1.512-8.30194,4.30008-8.06613C11.91928,20.26493,14.54094,29.18414,8.13937,28.49907Z"/><path class="i" d="M9.4103,26.4307C9.21514,27.93139,6.984,31.67039,6.1211,32c-.99591,0-.749-3.59265-.749-5.57682S9.4103,24.44653,9.4103,26.4307Z"/><polygon class="j" points="24.394 4.682 24.394 8.573 16 6.465 16 0 24.394 4.682"/><polygon class="a" points="20.803 5.56 28.164 10.323 30.813 21.41 27.177 26.797 19.822 30.522 16 30.522 16 4.497 20.803 5.56"/><path class="g" d="M21.16205,26.15808c0,1.92123-2.31114,3.47872-5.16205,3.47872V22.6793C18.85091,22.6793,21.16205,24.23679,21.16205,26.15808Z"/><path class="c" d="M22.58967,19.23327c0,2.9377-2.95026,5.31913-6.58967,5.31913V13.91413C19.63941,13.91413,22.58967,16.29563,22.58967,19.23327Z"/><path class="k" d="M17.73337,9.34471c.00066-.2296.00125-.4581.00125-.684,0-3.75573.96525-5.24536,2.29149-5.24536,1.31748,0,1.55781,1.86323,1.561,5.56926C20.37525,11.27344,18.85992,11.24858,17.73337,9.34471Z"/><ellipse class="l" cx="19.65893" cy="5.56022" rx="0.59142" ry="0.87817"/><path class="m" d="M20.35815,26.81216c-.22194,1.77552.29725,4.204.79691,4.204s.72892-1.63489.72892-2.97642-.22926-1.88169-.72892-1.88169S20.35815,25.47063,20.35815,26.81216Z"/><path class="d" d="M23.86063,28.49907a9.24626,9.24626,0,0,0,2.61473-.51479c3.32247-1.48224-1.512-8.30194-4.30008-8.06613C20.08072,20.26493,17.45906,29.18414,23.86063,28.49907Z"/><path class="h" d="M22.5897,26.4307C22.78486,27.93139,25.016,31.67039,25.8789,32c.99591,0,.749-3.59265.749-5.57682S22.5897,24.44653,22.5897,26.4307Z"/><path class="n" d="M10.41286,8.98459,10.4122,9.055c0,3.75573,1.34386,7.77684,2.67015,7.77684,1.24654,0,1.195-3.9,1.18428-7.48714C13.14008,11.24858,11.62475,11.27344,10.41286,8.98459Z"/><path class="i" d="M21.58714,8.98459l.00066.07042c0,3.75573-1.34386,7.77684-2.67015,7.77684-1.24654,0-1.195-3.9-1.18428-7.48714C18.85992,11.24858,20.37525,11.27344,21.58714,8.98459Z"/></svg>