<svg xmlns="http://www.w3.org/2000/svg" viewBox="0 0 32 32"><defs><style>.a{fill:#56c7cd;}.b{fill:#66d3d3;}.c{fill:#687271;}.d{fill:#5c6664;}.e{fill:#7cd8d5;}.f{fill:#f7f7f7;}.g{fill:#757f7e;}.h{fill:#8eddd9;}.i{fill:#838c8a;}.j{fill:#373f3f;}.k{fill:#51bac5;}.l{fill:#505957;}.m{fill:#edeeee;}.n{fill:#2b3332;}</style></defs><title>564-tirtouga-shiny</title><path class="a" d="M4.28025,17.55985c-1.07674-.0083-2.42447-.875-4.28025-3.351.94277,4.47181,2.35051,6.94318,5.14472,4.48638Z"/><path class="b" d="M3.02549,16.38788a8.89726,8.89726,0,0,0,1.32758,3.27723c2.67866.23782,7.15783.35728,11.64693.35867V8.95685C4.67245,8.95685,5.48233,16.36466,3.02549,16.38788Z"/><path class="c" d="M2.87459,14.89675a8.16058,8.16058,0,0,0,.1509,1.49113c2.45684-.02322,1.647-7.431,12.97451-7.431V4.52949C8.751,4.52949,2.87459,9.171,2.87459,14.89675Z"/><path class="d" d="M4.35307,19.66511C6.53914,22.98935,10.92971,25.26394,16,25.26394V20.02378C11.5109,20.02239,7.03173,19.90293,4.35307,19.66511Z"/><path class="e" d="M9.8599,10.80769A6.03445,6.03445,0,0,0,16,16.73063V4.88468A6.03451,6.03451,0,0,0,9.8599,10.80769Z"/><ellipse class="f" cx="13.16433" cy="12.05707" rx="1.3595" ry="2.4499"/><path class="g" d="M12.17608,6.17666c-2.09491,2.21312-2.49781,5.03566-.665,8.66342.30993-2.78888.29372-4.6288,1.71365-4.6288,1.29907,0,1.53681,2.68631.82824,3.49022-.5065.45908-.23322,2.37848.64126,2.37848A18.40863,18.40863,0,0,0,16,18.3659V8.13007A5.39111,5.39111,0,0,1,12.17608,6.17666Z"/><path class="h" d="M6.79486,13.3673c.99873,4.89593.71521,7.68228-.50165,8.93309L1.07285,27.47051c5.07955-.51571,9.34007-1.32041,10.32157-3.28211,1.0371-1.57846.12722-5.55007-2.94438-12.17882"/><ellipse class="i" cx="10.27504" cy="23.96466" rx="1.73265" ry="0.99687" transform="translate(-11.9043 10.25488) rotate(-35.07079)"/><ellipse class="j" cx="13.12807" cy="12.14839" rx="0.26108" ry="0.49843"/><path class="k" d="M27.71975,17.55985c1.07674-.0083,2.42447-.875,4.28025-3.351-.94277,4.47181-2.35051,6.94318-5.14472,4.48638Z"/><path class="a" d="M28.97451,16.38788a8.89726,8.89726,0,0,1-1.32758,3.27723c-2.67866.23782-7.15783.35728-11.64693.35867V8.95685C27.32755,8.95685,26.51767,16.36466,28.97451,16.38788Z"/><path class="d" d="M29.12541,14.89675a8.16058,8.16058,0,0,1-.1509,1.49113c-2.45684-.02322-1.647-7.431-12.97451-7.431V4.52949C23.249,4.52949,29.12541,9.171,29.12541,14.89675Z"/><path class="l" d="M27.64693,19.66511C25.46086,22.98935,21.07029,25.26394,16,25.26394V20.02378C20.4891,20.02239,24.96827,19.90293,27.64693,19.66511Z"/><path class="b" d="M22.1401,10.80769A6.03445,6.03445,0,0,1,16,16.73063V4.88468A6.03451,6.03451,0,0,1,22.1401,10.80769Z"/><ellipse class="m" cx="18.83567" cy="12.05707" rx="1.3595" ry="2.4499"/><path class="c" d="M19.82392,6.17666c2.09491,2.21312,2.49781,5.03566.665,8.66342-.30993-2.78888-.29372-4.6288-1.71365-4.6288-1.29907,0-1.53681,2.68631-.82824,3.49022.5065.45908.23322,2.37848-.64126,2.37848A18.40863,18.40863,0,0,1,16,18.3659V8.13007A5.39111,5.39111,0,0,0,19.82392,6.17666Z"/><path class="e" d="M25.20514,13.3673c-.99873,4.89593-.71521,7.68228.50165,8.93309l5.22036,5.17012c-5.07955-.51571-9.34007-1.32041-10.32157-3.28211-1.0371-1.57846-.12722-5.55007,2.94438-12.17882"/><ellipse class="g" cx="21.72496" cy="23.96466" rx="0.99687" ry="1.73265" transform="translate(-10.37165 27.97549) rotate(-54.92921)"/><ellipse class="n" cx="18.87193" cy="12.14839" rx="0.26108" ry="0.49843"/></svg>