<svg xmlns="http://www.w3.org/2000/svg" viewBox="0 0 32 32"><defs><style>.a{fill:#b9e2e7;}.b{fill:#fff5d8;}.c{fill:#f9f0d5;}.d{fill:#f6edd2;}.e{fill:#efe6cc;}.f{fill:#acd7dd;}.g{fill:#8eddd9;}.h{fill:#0b263a;}.i{fill:#ff6b8b;}.j{fill:#c96483;}</style></defs><title>578-duosion-shiny</title><path class="a" d="M15.63282,27.694a5.57809,5.57809,0,0,1-1.67858-1.61378,20.45331,20.45331,0,0,1-2.53392-4.99814.38549.38549,0,0,0-.51563-.30168,3.4901,3.4901,0,0,1-1.79442-.17354.85307.85307,0,0,1-.41707-1.44569,3.9432,3.9432,0,0,1,1.20207-.92461c.12586-.07426.28193-.10638.36174-.24835a4.90966,4.90966,0,0,1-2.97074-3.58365A6.08377,6.08377,0,0,1,10.168,7.96312a11.92755,11.92755,0,0,1,4.4097-1.50276A10.91616,10.91616,0,0,1,16,6.33532V4.05794c-.02912,0-.07117.00919-.09629.00619a2.53087,2.53087,0,0,1-1.90089-.66961.47876.47876,0,0,1-.13806-.49979A2.25121,2.25121,0,0,1,16,1.36258V.04129a5.1646,5.1646,0,0,0-1.43341.41944,3.92777,3.92777,0,0,0-2.46667,2.912.50044.50044,0,0,1-.39878.4097,12.51592,12.51592,0,0,0-6.6697,5.1563,13.20433,13.20433,0,0,0-1.95559,6.51636l.00155.22214q.00014.59913.00018,1.19816l-.00055.2975a26.12775,26.12775,0,0,0,1.25577,6.5209.70653.70653,0,0,1-.07262.61956,4.1174,4.1174,0,0,0-.0658,4.15689,2.205,2.205,0,0,0,1.29854,1.10106,5.56022,5.56022,0,0,0,3.61551-.06807.41.41,0,0,1,.51263.10766,6.87489,6.87489,0,0,0,2.37521,1.569A11.80076,11.80076,0,0,0,16,32.00534v-4.2327A.56139.56139,0,0,1,15.63282,27.694ZM6.30206,9.18166A.78586.78586,0,0,1,6.195,8.37373a1.8486,1.8486,0,0,1,.44437-.68081A6.53239,6.53239,0,0,1,8.552,6.35889a1.45185,1.45185,0,0,1,.67743-.16071c.63967.00528.94936.48269.62757.98521A5.12468,5.12468,0,0,1,7.01544,9.34265.60568.60568,0,0,1,6.30206,9.18166Z"/><path class="b" d="M15.77132,14.95961c-.395-.55376-.80639-1.09614-1.22182-1.63489-.10211-.1325-.1113-.21695.00555-.34554.42426-.46685.83824-.94326,1.25322-1.41858.06552-.075.12823-.12922.19175-.127V6.33532a10.91616,10.91616,0,0,0-1.42231.125A11.92755,11.92755,0,0,0,10.168,7.96312a6.08377,6.08377,0,0,0-2.88174,6.44146A4.90966,4.90966,0,0,0,10.257,17.98823a12.38208,12.38208,0,0,0,3.80835,1.0289A11.76121,11.76121,0,0,0,16,19.08028V15.14107C15.93213,15.14016,15.85841,15.08165,15.77132,14.95961Zm-4.23779-1.814a.58319.58319,0,0,1-1.01852-.006,1.72442,1.72442,0,0,1,.00528-1.858.58343.58343,0,0,1,1.01861.00774,1.70314,1.70314,0,0,1-.00537,1.8563Z"/><path class="c" d="M20.11714,18.52234a11.50885,11.50885,0,0,0,1.66947-.60864,5.11663,5.11663,0,0,0,2.76062-2.83278,6.02149,6.02149,0,0,0-2.3976-6.99868A10.725,10.725,0,0,0,16,6.33532v5.09833c.04632.00164.093.0294.14205.11958.46822.47586.93353.95473,1.40675,1.42549.11976.119.13359.2024.01656.33827-.45948.53346-.90658,1.07749-1.35833,1.6176-.06752.14114-.13387.20749-.207.20648v3.93921c.43709-.01638.87437-.03949,1.31319-.08772A19.42109,19.42109,0,0,0,20.11714,18.52234Zm.43-7.36316a.569.569,0,0,1,.94963.0162,1.55884,1.55884,0,0,1,.30359.98066,1.5273,1.5273,0,0,1-.3166.96283.56389.56389,0,0,1-.92542.014A1.69646,1.69646,0,0,1,20.54713,11.15918Z"/><path class="d" d="M14.06536,19.01713a12.38208,12.38208,0,0,1-3.80835-1.0289c-.07981.142-.23588.17409-.36174.24835a3.9432,3.9432,0,0,0-1.20207.92461.85307.85307,0,0,0,.41707,1.44569,3.4901,3.4901,0,0,0,1.79442.17354.38549.38549,0,0,1,.51563.30168,20.45331,20.45331,0,0,0,2.53392,4.99814A5.57809,5.57809,0,0,0,15.63282,27.694.56139.56139,0,0,0,16,27.77264V19.08028A11.76121,11.76121,0,0,1,14.06536,19.01713Z"/><path class="e" d="M18.19822,25.85464a21.28515,21.28515,0,0,0,2.44292-4.88019c.07271-.195.14069-.33872.3875-.28539a3.39246,3.39246,0,0,0,1.33039-.00983c.51044-.09183,1.0541-.18574,1.21081-.76717.15807-.58625-.26173-.94744-.67771-1.2574-.35528-.26473-.736-.49525-1.10552-.741a11.50885,11.50885,0,0,1-1.66947.60864,19.42109,19.42109,0,0,1-2.80393.47022c-.43882.04823-.8761.07134-1.31319.08772v8.69236a.5568.5568,0,0,0,.21158-.051A5.48293,5.48293,0,0,0,18.19822,25.85464Z"/><path class="b" d="M13.86478,2.89473a.47876.47876,0,0,0,.13806.49979,2.53087,2.53087,0,0,0,1.90089.66961c.02512.003.06717-.00619.09629-.00619V1.36258A2.25121,2.25121,0,0,0,13.86478,2.89473Z"/><path class="c" d="M18.06336,3.29669a.46361.46361,0,0,0,.11612-.47167A1.962,1.962,0,0,0,16.426,1.38742,2.37073,2.37073,0,0,0,16,1.36258V4.05794a5.99257,5.99257,0,0,0,.76243-.09865A2.09893,2.09893,0,0,0,18.06336,3.29669Z"/><path class="f" d="M28.018,22.60742a2.36478,2.36478,0,0,0,.07972-.28637,20.51205,20.51205,0,0,0,.70916-8.431,12.17874,12.17874,0,0,0-8.41565-10.1615.59937.59937,0,0,1-.46014-.49079A4.282,4.282,0,0,0,16.132.01544c-.04541.00342-.0871.02045-.132.02582V1.36255a2.37664,2.37664,0,0,1,.426.02484A1.962,1.962,0,0,1,18.17945,2.825a.46356.46356,0,0,1-.11609.47168,2.09918,2.09918,0,0,1-1.3009.6626A5.99941,5.99941,0,0,1,16,4.05792V6.33533a10.72482,10.72482,0,0,1,6.1496,1.74689,6.02157,6.02157,0,0,1,2.39764,6.99872,5.11689,5.11689,0,0,1-2.76074,2.83276c.36957.24573.75036.4762,1.10565.741.41595.30993.83575.67114.67767,1.25738-.15667.58142-.70037.67535-1.21081.76715a3.39189,3.39189,0,0,1-1.33039.00983c-.24682-.05335-.31475.09039-.38751.2854a21.28477,21.28477,0,0,1-2.44287,4.88019,5.484,5.484,0,0,1-1.98663,1.86706.55786.55786,0,0,1-.21161.051v4.23266c.04425.00244.08783.00794.13208.01013a13.31281,13.31281,0,0,1,1.89984-.3045,8.30317,8.30317,0,0,0,4.45233-2.23663c.15436-.16.2782-.09766.4289-.04816a5.80591,5.80591,0,0,0,2.85937.267,2.61614,2.61614,0,0,0,2.03284-1.212,3.70961,3.70961,0,0,0,.27252-3.53552A2.65337,2.65337,0,0,1,28.018,22.60742Z"/><path class="g" d="M9.22935,6.19819c.63973.0053.9494.48265.62759.98522A5.12423,5.12423,0,0,1,7.01541,9.34265a.60574.60574,0,0,1-.71338-.161.786.786,0,0,1-.1071-.808A1.84734,1.84734,0,0,1,6.63936,7.693,6.53144,6.53144,0,0,1,8.55194,6.3589,1.45192,1.45192,0,0,1,9.22935,6.19819Z"/><path class="h" d="M20.54713,11.15918a1.69646,1.69646,0,0,0,.0112,1.9737.56389.56389,0,0,0,.92542-.014,1.5273,1.5273,0,0,0,.3166-.96283,1.55884,1.55884,0,0,0-.30359-.98066A.569.569,0,0,0,20.54713,11.15918Z"/><path class="h" d="M11.8113,12.19683a1.58,1.58,0,0,1-.27777.94886.58322.58322,0,0,1-1.01856-.00605,1.72433,1.72433,0,0,1,.00533-1.858.5834.5834,0,0,1,1.01864.00775A1.57636,1.57636,0,0,1,11.8113,12.19683Z"/><path class="i" d="M15.80827,11.5606c-.415.47532-.829.95163-1.25331,1.41858-.11676.1285-.10766.213-.00546.34554.41543.53875.82677,1.081,1.22182,1.6348.08709.12213.16081.18064.2287.18155V11.43365C15.9365,11.43138,15.87379,11.48553,15.80827,11.5606Z"/><path class="j" d="M16.20705,14.93449c.45175-.54.89885-1.084,1.35824-1.6175.117-.136.10329-.21923-.01647-.33836-.47322-.47076-.93853-.94963-1.40684-1.4254-.049-.09018-.09564-.11794-.142-.11958v3.70742C16.07309,15.142,16.13953,15.07564,16.20705,14.93449Z"/></svg>