<svg xmlns="http://www.w3.org/2000/svg" viewBox="0 0 32 32"><defs><style>.a{fill:#edeeee;}.b{fill:#a78edd;}.c{fill:#b8a5e4;}.d{fill:#c6b7e9;}.e{fill:#e1e6da;}.f{fill:#58458c;}.g{fill:#f5f7f3;}.h{fill:#507519;}.i{fill:#f7f7f7;}.j{fill:#d4c9ef;}.k{fill:#e3dbf4;}.l{fill:#6e57a0;}</style></defs><title>583-vanillish-shiny</title><path class="a" d="M19.35131,19.31021c.03152-.09506.07853-.1645.1423-.02175a2.026,2.026,0,0,0,3.01919.56472,1.72218,1.72218,0,0,0,.46705-.59035.42318.42318,0,0,1,.32311-.27163,2.5097,2.5097,0,0,0,1.17653-.65875,1.70071,1.70071,0,0,0,.3778-1.85509,1.33875,1.33875,0,0,0-1.24246-.9125,10.39538,10.39538,0,0,0-.917,1.28113c-.31328.43688-.30606.447-.7398.121-.14469-.10878-.27395-.23811-.41029-.35791a3.42929,3.42929,0,0,1-.42361-1.4589.09267.09267,0,0,1,.001-.02994c.11428-.29265.08888-.70271.3652-.85141.26188-.14066.62984-.0076.94565-.08851a.97455.97455,0,0,1,.21025-.00805,10.85557,10.85557,0,0,0-2.33168-5.73574,4.06414,4.06414,0,0,0-.66165-.66992A6.65189,6.65189,0,0,0,17.63,6.3928c-.04545-.02026-.09067-.04113-.136-.06169a.83161.83161,0,0,1,.11772-.08493,1.84645,1.84645,0,0,0,.863-2.58461,4.36958,4.36958,0,0,0-1.17281-1.38365.34565.34565,0,0,1-.0999-.534c.05923-.094.10788-.1949.17-.287a.28376.28376,0,0,0,.00626-.34226A3.47551,3.47551,0,0,0,16-.00124V12.83989a4.63788,4.63788,0,0,0,1.6558-.4187,1.80807,1.80807,0,0,1,.87868-.20548.60543.60543,0,0,1,.55533.83516,1.4992,1.4992,0,0,1-.78465.77348,3.682,3.682,0,0,1-1.57229.41393A2.20732,2.20732,0,0,1,16,14.298v6.69756a4.01587,4.01587,0,0,0,2.86236-.926A1.82413,1.82413,0,0,0,19.35131,19.31021Zm.2516-9.21378c.22767-.30024.23043-.30277.49275-.02533a1.64685,1.64685,0,0,1,.32833.36834,2.74423,2.74423,0,0,1-.50363.60793c-.13187.00552-.1838-.11145-.25934-.18506C19.29357,10.50381,19.29544,10.50187,19.60291,10.09643Zm-1.30982.74621a.791.791,0,0,1-1.38015-.02056,1.70952,1.70952,0,0,1,.00388-1.78685.79089.79089,0,0,1,1.38052-.00745A1.71386,1.71386,0,0,1,18.29309,10.84264Zm.19445,6.16189a3.17628,3.17628,0,0,1-.78555.81982,5.27133,5.27133,0,0,1-1.05964-1.3911.10676.10676,0,0,1,.01267-.13887,8.54024,8.54024,0,0,1,1.04839-1.25014c.38376.13008.553.48844.78838.76692C18.98454,16.39451,18.97873,16.40971,18.48754,17.00453Z"/><path class="b" d="M17.81345,25.93283a.82073.82073,0,0,0,.11756.13172q1.008-1.93869,2.01662-3.87678c.02965-.05692.04857-.15168.14743-.07048.09067-.08046.19572-.20562.30479-.164.10877.04127.08389.20831.10453.323a8.07176,8.07176,0,0,0,.28795,1.27547c.07167.20235.10251.49171.37385.495.24541.00328.30031-.26776.39076-.45565.19862-.41289.25293-.87227.41065-1.29872q.06538-.496.1309-.99206l.00768-.10744a.31011.31011,0,0,1,.10355-.194,4.02364,4.02364,0,0,0,.30308-1.14569,2.026,2.026,0,0,1-3.01919-.56472c-.06377-.14275-.11078-.07331-.1423.02175a1.82413,1.82413,0,0,1-.489.75933A4.01587,4.01587,0,0,1,16,20.99559v1.78954a10.896,10.896,0,0,1,.74167,1.25654C17.1065,24.66764,17.45517,25.303,17.81345,25.93283Z"/><path class="c" d="M24.95161,5.04208a.79082.79082,0,0,0-.027-1.39184.97287.97287,0,0,0-1.52311.24332.40408.40408,0,0,1-.423.20667,1.44163,1.44163,0,0,0-.33481.00715.77342.77342,0,0,0-.81081.77959c-.043.39337-.03106.793-.07435,1.18622-.08724.7924-.2732.98566-1.05569,1.14047a1.57329,1.57329,0,0,0-.87569.4558c-.04828.05126-.08769.11578-.17426.09715a4.06414,4.06414,0,0,1,.66165.66992.729.729,0,0,1,.76513-.38294A6.30391,6.30391,0,0,1,21.944,8.23a1.45475,1.45475,0,0,0,1.7283-.84857.7484.7484,0,0,1,.34822-.36715c.18864-.09849.38294-.186.57165-.28415.54662-.28474.67126-.72207.28586-1.19217C24.67789,5.2939,24.7407,5.21269,24.95161,5.04208Z"/><path class="d" d="M25.99881,21.48582c.03665-.30174-.14237-.439-.45357-.41587a.90561.90561,0,0,0-.26575.05781c-.133.05379-.20249.03546-.28064-.104a1.24052,1.24052,0,0,0-1.15836-.64027c-.36334-.0079-.65174.274-1.0168.20145-.01773-.00343-.06183.034-.06332.05454-.02154.29636-.314.29338-.47466.43449l-.10549.12367c-.02116.03919-.025.09194-.0818.10267q-.06539.49617-.13083.99206a1.60657,1.60657,0,0,0,.36126.55608c.062.05782.11719.10252.02555.19311-.1595.15735-.09349.3214.03539.45595a1.01287,1.01287,0,0,0,.95951.4038c.09887-.02026.14856.0371.217.0754a.82511.82511,0,0,0,1.13831-.25241c.06124-.0897.09864-.13619.23066-.124a1.03018,1.03018,0,0,0,1.11648-1.16043A3.94588,3.94588,0,0,1,25.99881,21.48582Z"/><path class="b" d="M17.49682,30.56147a19.38079,19.38079,0,0,0,1.04227-2.71127,4.38634,4.38634,0,0,1-.40394-.99489c-.07719-.19594-.13537-.39918-.20213-.59915-.06764-.09566-.10341-.07807-.15772.02235-.3176.58857-.64168,1.17341-.96658,1.7578-.26746.48113-.539.96-.80872,1.43982v2.52263a1.37474,1.37474,0,0,0,.935-.5388A4.66854,4.66854,0,0,0,17.49682,30.56147Z"/><path class="d" d="M19.94763,22.18777q-1.00925,1.93779-2.01662,3.87678l.002.19161c.06676.2.12494.40321.20213.59915a4.38634,4.38634,0,0,0,.40394.99489c.19952-.6577.41058-1.31182.59609-1.9734.34927-1.24552.72647-2.48434.95988-3.75951C19.9962,22.03609,19.97728,22.13085,19.94763,22.18777Z"/><path class="d" d="M20.97389,26.8793a.37664.37664,0,0,1-.28363-.02951.67042.67042,0,0,0-.84522.06378.78906.78906,0,0,0-.22373.86213.89658.89658,0,0,1,.0558.16227c-.31209.17418-.051.3661-.01445.54177.06794.32647.23922.44761.58849.44657.53194-.00149.94222-.25.9858-.63118a.55364.55364,0,0,1,.214-.40738.54944.54944,0,0,0,.12673-.7176A.49546.49546,0,0,0,20.97389,26.8793Z"/><path class="b" d="M23.07148,15.03024l-.061.0593-.00052.00089q-.62214.63566-1.24366,1.2716c-.07659.07867-.14588.1645-.21852.247.13634.1198.2656.24913.41029.35791.43374.326.42652.31588.7398-.121a10.39538,10.39538,0,0,1,.917-1.28113c.04082-.24854.23892-.41006.34464-.62283.10259-.20652.21621-.41021.08881-.64757Z"/><path class="d" d="M23.78126,14.172c-.37832-.00239-.75671-.0003-1.135.00029a.97455.97455,0,0,0-.21025.00805c-.31581.08091-.68377-.05215-.94565.08851-.27632.1487-.25092.55876-.3652.85141a.09267.09267,0,0,0-.001.02994,1.29751,1.29751,0,0,1,.65055-.05855c.41147-.00984.82346-.00179,1.23524-.0012l.00052-.00089.061-.0593.9768-.73578C24.01006,14.14337,23.88564,14.17257,23.78126,14.172Z"/><path class="e" d="M22.10617,21.19287l.074.00477.10556-.12367-.076-.0751A.31011.31011,0,0,0,22.10617,21.19287Z"/><path class="f" d="M18.53448,12.21571a1.80807,1.80807,0,0,0-.87868.20548A4.63788,4.63788,0,0,1,16,12.83989V14.298a2.20732,2.20732,0,0,0,.73287-.05975,3.682,3.682,0,0,0,1.57229-.41393,1.4992,1.4992,0,0,0,.78465-.77348A.60543.60543,0,0,0,18.53448,12.21571Z"/><path class="c" d="M16.91682,9.03523a1.70911,1.70911,0,0,0-.00388,1.78685.791.791,0,0,0,1.38015.02056,1.71386,1.71386,0,0,0,.00425-1.81486A.79089.79089,0,0,0,16.91682,9.03523Zm.55779,1.718c-.31462-.00909-.56889-.39248-.5674-.85588.00149-.46444.25993-.84544.57545-.84812.31686-.00269.57843.37489.5826.841C18.06951,10.3706,17.80108,10.76278,17.47461,10.75324Z"/><path class="c" d="M17.70341,15.04424A8.54024,8.54024,0,0,0,16.655,16.29438a.10676.10676,0,0,0-.01267.13887,5.27133,5.27133,0,0,0,1.05964,1.3911,1.91351,1.91351,0,0,1,.16175-.79016,1.97237,1.97237,0,0,0-.04217-1.37426A1.4775,1.4775,0,0,1,17.70341,15.04424Z"/><path class="b" d="M17.70341,15.04424a1.4775,1.4775,0,0,0,.11816.61569,1.97237,1.97237,0,0,1,.04217,1.37426,1.91351,1.91351,0,0,0-.16175.79016,3.17628,3.17628,0,0,0,.78555-.81982c.49119-.59482.497-.61.00425-1.19337C18.25644,15.53268,18.08717,15.17432,17.70341,15.04424Z"/><path class="c" d="M21.12416,15.15018a3.42929,3.42929,0,0,0,.42361,1.4589c.07264-.08255.14193-.16838.21852-.247q.62034-.63744,1.24366-1.2716c-.41178-.00059-.82377-.00864-1.23524.0012A1.29751,1.29751,0,0,0,21.12416,15.15018Z"/><path class="c" d="M20.09566,10.0711c-.26232-.27744-.26508-.27491-.49275.02533-.30747.40544-.30934.40738.05811.76588.07554.07361.12747.19058.25934.18506a2.74423,2.74423,0,0,0,.50363-.60793A1.64685,1.64685,0,0,0,20.09566,10.0711Z"/><path class="c" d="M17.7753,26.27851c.05431-.10042.09008-.118.15772-.02235l-.002-.19161a.82073.82073,0,0,1-.11756-.13172c-.35828-.62984-.70695-1.26519-1.07178-1.89116A10.896,10.896,0,0,0,16,22.78513v6.691c.2697-.47979.54126-.95869.80872-1.43982C17.13362,27.45192,17.4577,26.86708,17.7753,26.27851Z"/><path class="g" d="M22.09842,21.30031c.05684-.01073.06064-.06348.08173-.10267l-.074-.00477Z"/><path class="h" d="M23.01047,15.08959l.061-.05944Z"/><path class="f" d="M17.48266,9.04924c-.31552.00268-.574.38368-.57545.84812-.00149.4634.25278.84679.5674.85588.32647.00954.5949-.38264.59065-.863C18.06109,9.42413,17.79952,9.04655,17.48266,9.04924Z"/><path class="i" d="M13.13764,20.072A4.01587,4.01587,0,0,0,16,20.99807V14.30051a2.20732,2.20732,0,0,1-.73287-.05975,3.682,3.682,0,0,1-1.57229-.41393,1.4992,1.4992,0,0,1-.78465-.77348.60543.60543,0,0,1,.55533-.83516,1.80817,1.80817,0,0,1,.87868.20547A4.63746,4.63746,0,0,0,16,12.84236V.00124a3.47551,3.47551,0,0,0-1.37821,1.11589.28376.28376,0,0,0,.00626.34226c.06213.09208.11078.193.17.287a.34565.34565,0,0,1-.0999.534A4.36965,4.36965,0,0,0,13.52535,3.664a1.84645,1.84645,0,0,0,.86295,2.58462.83161.83161,0,0,1,.11772.08493c-.0453.02056-.09052.04143-.136.06169a6.65189,6.65189,0,0,0-2.023,1.37381,4.06414,4.06414,0,0,0-.66165.66992,10.85557,10.85557,0,0,0-2.33168,5.73574.97455.97455,0,0,1,.21025.00805c.31581.08091.68377-.05215.94565.08851.27632.1487.25092.55876.3652.85141a.09267.09267,0,0,1,.001.02994,3.42929,3.42929,0,0,1-.42361,1.4589c-.13634.1198-.2656.24913-.41029.3579-.43374.326-.42652.31589-.7398-.121a10.39538,10.39538,0,0,0-.917-1.28113,1.33875,1.33875,0,0,0-1.24246.9125,1.70071,1.70071,0,0,0,.3778,1.85509,2.5097,2.5097,0,0,0,1.17653.65875.42318.42318,0,0,1,.32311.27163,1.72218,1.72218,0,0,0,.46705.59035,2.026,2.026,0,0,0,3.01919-.56472c.06377-.14275.11078-.07331.1423.02175A1.82413,1.82413,0,0,0,13.13764,20.072ZM12.339,10.86479c-.07554.07361-.12747.19058-.25934.18506a2.74423,2.74423,0,0,1-.50363-.60793,1.64685,1.64685,0,0,1,.32833-.36834c.26232-.27744.26508-.27491.49275.02533C12.70456,10.50435,12.70643,10.50629,12.339,10.86479Zm1.36368-1.83453a.79089.79089,0,0,1,1.38052.00745,1.70952,1.70952,0,0,1,.00388,1.78685.791.791,0,0,1-1.38015.02056A1.71386,1.71386,0,0,1,13.70266,9.03026Zm-.19445,6.78338c.23535-.27848.40462-.63684.78838-.76692A8.54024,8.54024,0,0,1,15.345,16.29686a.10676.10676,0,0,1,.01267.13887,5.27133,5.27133,0,0,1-1.05964,1.3911,3.17628,3.17628,0,0,1-.78555-.81982C13.02127,16.41219,13.01546,16.397,13.50821,15.81364Z"/><path class="c" d="M14.18655,25.93531a.82024.82024,0,0,1-.11756.13171q-1.008-1.93867-2.01662-3.87677c-.02965-.05692-.04857-.15168-.14743-.07048-.09067-.08046-.19572-.20562-.30479-.164-.10877.04127-.08389.20831-.10453.323a8.07176,8.07176,0,0,1-.288,1.27547c-.07167.20235-.10251.49171-.37385.495-.24541.00328-.30031-.26776-.39076-.45565-.19862-.41289-.25293-.87227-.41065-1.29872q-.06539-.496-.1309-.99206l-.00768-.10744a.31011.31011,0,0,0-.10355-.194,4.02364,4.02364,0,0,1-.30308-1.14569,2.026,2.026,0,0,0,3.01919-.56472c.06377-.14275.11078-.07331.1423.02175a1.82413,1.82413,0,0,0,.48895.75933A4.01587,4.01587,0,0,0,16,20.99807v1.78954a10.896,10.896,0,0,0-.74167,1.25654C14.8935,24.67012,14.54483,25.30547,14.18655,25.93531Z"/><path class="j" d="M7.04839,5.04456a.79082.79082,0,0,1,.027-1.39184A.97287.97287,0,0,1,8.59847,3.896a.40408.40408,0,0,0,.423.20667,1.44163,1.44163,0,0,1,.33481.00715.77342.77342,0,0,1,.81081.77959c.043.39337.03106.793.07435,1.18622.08724.7924.2732.98566,1.05569,1.14047a1.57329,1.57329,0,0,1,.87569.4558c.04828.05126.08769.11578.17426.09715a4.06414,4.06414,0,0,0-.66165.66992.729.729,0,0,0-.76513-.38294,6.30391,6.30391,0,0,0-.86429.17642,1.45475,1.45475,0,0,1-1.7283-.84857.7484.7484,0,0,0-.34822-.36715c-.18864-.09849-.38294-.186-.57165-.28415-.54662-.28474-.67126-.72207-.28586-1.19217C7.32211,5.29638,7.2593,5.21517,7.04839,5.04456Z"/><path class="j" d="M6.00119,21.4883c-.03665-.30174.14237-.439.45357-.41587a.90561.90561,0,0,1,.26575.05781c.133.05379.20249.03546.28064-.104A1.24052,1.24052,0,0,1,8.15951,20.386c.36334-.0079.65174.274,1.0168.20145.01773-.00343.06183.034.06332.05454.02154.29636.314.29338.47466.43449l.10549.12367c.02116.03919.025.09194.0818.10267q.06538.49617.13083.99206a1.60657,1.60657,0,0,1-.36126.55608c-.062.05782-.11719.10252-.02555.19311.1595.15735.09349.3214-.03539.456a1.01287,1.01287,0,0,1-.95951.4038c-.09887-.02026-.14856.0371-.217.0754a.82511.82511,0,0,1-1.13831-.25241c-.06124-.0897-.09864-.13619-.23066-.124A1.03019,1.03019,0,0,1,5.9483,22.44236,3.94577,3.94577,0,0,0,6.00119,21.4883Z"/><path class="c" d="M14.50318,30.564a19.38079,19.38079,0,0,1-1.04227-2.71127,4.38634,4.38634,0,0,0,.40394-.99489c.07719-.19594.13537-.39918.20213-.59915.06764-.09566.10341-.07807.15772.02235.3176.58857.64168,1.17341.96658,1.7578.26746.48113.539.96.80872,1.43982v2.52263a1.37474,1.37474,0,0,1-.935-.5388A4.66854,4.66854,0,0,1,14.50318,30.564Z"/><path class="k" d="M12.05237,22.19025Q13.06162,24.128,14.069,26.067l-.002.19162c-.06676.2-.12494.40321-.20213.59915a4.38634,4.38634,0,0,1-.40394.99489c-.19952-.6577-.41058-1.31182-.59609-1.9734-.34927-1.24552-.72647-2.48434-.95988-3.75951C12.0038,22.03857,12.02272,22.13333,12.05237,22.19025Z"/><path class="j" d="M11.02611,26.88178a.37664.37664,0,0,0,.28363-.02951.67042.67042,0,0,1,.84522.06378.78906.78906,0,0,1,.22373.86213.89632.89632,0,0,0-.0558.16227c.31209.17418.051.3661.01445.54177-.06794.32647-.23922.44761-.58849.44657-.53194-.00149-.94222-.25-.9858-.63118a.55364.55364,0,0,0-.214-.40738.54944.54944,0,0,1-.12673-.7176A.49546.49546,0,0,1,11.02611,26.88178Z"/><path class="c" d="M8.92852,15.03272l.061.0593.00052.00089q.62214.63565,1.24366,1.2716c.07659.07867.14588.1645.21852.24705-.13634.1198-.2656.24913-.41029.3579-.43374.326-.42652.31589-.7398-.121a10.39538,10.39538,0,0,0-.917-1.28113c-.04082-.24854-.23892-.41006-.34464-.62283-.10259-.20652-.21621-.41021-.08881-.64757Z"/><path class="k" d="M8.21874,14.17446c.37832-.00239.75671-.0003,1.135.00029a.97455.97455,0,0,1,.21025.00805c.31581.08091.68377-.05215.94565.08851.27632.1487.25092.55876.3652.85141a.09267.09267,0,0,1,.001.02994,1.29751,1.29751,0,0,0-.65055-.05855c-.41147-.00984-.82346-.00179-1.23524-.0012L8.98953,15.092l-.061-.0593-.9768-.73578C7.98994,14.14585,8.11436,14.17505,8.21874,14.17446Z"/><path class="e" d="M9.89383,21.19535l-.074.00477-.10556-.12367.076-.0751A.31011.31011,0,0,1,9.89383,21.19535Z"/><path class="l" d="M13.46552,12.21819a1.80817,1.80817,0,0,1,.87868.20547A4.63746,4.63746,0,0,0,16,12.84236v1.45815a2.20732,2.20732,0,0,1-.73287-.05975,3.682,3.682,0,0,1-1.57229-.41393,1.4992,1.4992,0,0,1-.78465-.77348A.60543.60543,0,0,1,13.46552,12.21819Z"/><path class="j" d="M13.70266,9.03026a1.71386,1.71386,0,0,0,.00425,1.81486.791.791,0,0,0,1.38015-.02056,1.70911,1.70911,0,0,0-.00388-1.78685A.79089.79089,0,0,0,13.70266,9.03026Zm.23208.86243c.00417-.46608.26574-.84366.5826-.841.31552.00269.574.38369.57545.84813.00149.4634-.25278.84679-.5674.85588C14.19892,10.76526,13.93049,10.37308,13.93474,9.89269Z"/><path class="d" d="M14.29659,15.04672A8.54024,8.54024,0,0,1,15.345,16.29686a.10676.10676,0,0,1,.01267.13887,5.27133,5.27133,0,0,1-1.05964,1.3911,1.91351,1.91351,0,0,0-.16175-.79016,1.97237,1.97237,0,0,1,.04217-1.37426A1.4775,1.4775,0,0,0,14.29659,15.04672Z"/><path class="c" d="M14.29659,15.04672a1.4775,1.4775,0,0,1-.11816.61569,1.97237,1.97237,0,0,0-.04217,1.37426,1.91351,1.91351,0,0,1,.16175.79016,3.17628,3.17628,0,0,1-.78555-.81982c-.49119-.59482-.497-.61-.00425-1.19337C13.74356,15.53516,13.91283,15.1768,14.29659,15.04672Z"/><path class="d" d="M10.87584,15.15266a3.42929,3.42929,0,0,1-.42361,1.4589c-.07264-.08255-.14193-.16838-.21852-.24705q-.62034-.63744-1.24366-1.2716c.41178-.00059.82377-.00864,1.23524.0012A1.29751,1.29751,0,0,1,10.87584,15.15266Z"/><path class="j" d="M11.90434,10.07358c.26232-.27744.26508-.27491.49275.02533.30747.40544.30934.40738-.05811.76588-.07554.07361-.12747.19058-.25934.18506a2.74423,2.74423,0,0,1-.50363-.60793A1.64685,1.64685,0,0,1,11.90434,10.07358Z"/><path class="d" d="M14.2247,26.281c-.05431-.10042-.09008-.118-.15772-.02235l.002-.19162a.82024.82024,0,0,0,.11756-.13171c.35828-.62984.70695-1.26519,1.07178-1.89116A10.896,10.896,0,0,1,16,22.78761v6.691c-.2697-.47979-.54126-.95869-.80872-1.43982C14.86638,27.4544,14.5423,26.86956,14.2247,26.281Z"/><path class="g" d="M9.90158,21.30279c-.05684-.01073-.06064-.06348-.08173-.10267l.074-.00477Z"/><path class="h" d="M8.98953,15.09207l-.061-.05944Z"/><path class="l" d="M14.51734,9.05171c.31552.00269.574.38369.57545.84813.00149.4634-.25278.84679-.5674.85588-.32647.00954-.5949-.38264-.59065-.863C13.93891,9.42661,14.20048,9.049,14.51734,9.05171Z"/></svg>