<svg xmlns="http://www.w3.org/2000/svg" viewBox="0 0 32 32"><defs><style>.a{fill:#a78edd;}.b{fill:#c6b7e9;}.c{fill:#b8a5e4;}.d,.q{fill:#d4c9ef;}.e{fill:#e3dbf4;}.f{fill:#e4e3d7;}.g{fill:#e9e8df;}.h{fill:#58458c;}.i{fill:#bcbcbc;}.j{fill:#b2ae8b;}.k{fill:#6a601d;}.l{fill:#6e57a0;}.m{fill:#d4d2be;}.n{fill:#cccab2;}.o{fill:#f7f7f7;}.p{fill:#edeeee;}.q{opacity:0.51;}</style></defs><title>584-vanilluxe-shiny</title><path class="a" d="M22.41042,21.19877a3.45454,3.45454,0,0,0,1.51618-1.32059c.11375-.18306.18419-.16291.299-.01292a1.7315,1.7315,0,0,0,1.02913.70329,1.5864,1.5864,0,0,0,1.37441-.44558c.0718-.06018.14225-.122.21335-.18309a5.02033,5.02033,0,0,1-3.9112,3.59244.37791.37791,0,0,0-.32511.28978c-.26472.7948-.54727,1.58366-.82339,2.37466-.21031-.5128-.41934-1.02613-.632-1.538-.04179-.10058-.09765-.19531-.147-.29275-.12139.07082-.11162.20941-.16193.31674a1.11076,1.11076,0,0,0-.025.10969,14.16932,14.16932,0,0,1-.51081,1.46207q-.36171-1.2355-.72408-2.47083c-.0346-.11755-.01928-.256-.22216-.26538-.2076-.00958-.22458.11731-.26866.2531-.6913,2.1293-1.40839,4.25052-1.98822,6.41448a3.64635,3.64635,0,0,1-.31024,1.023c-.26706-.65619-.62471-1.2722-.86158-1.9418l.00023-.117c.219-.49109.4987-.9499.76435-1.41561a.42024.42024,0,0,0,.016-.50793c-.27724-.42635-.522-.87382-.78-1.31267l-.00006-.116c.35387-.696.80769-1.33277,1.19254-2.01053.06209-.10935.12131-.19522.05527-.33415-.38406-.80785-.75716-1.6209-1.13657-2.431-.04626-.09877-.07646-.22222-.22389-.22332.02054-.15783.14939-.09843.23843-.11887a2.72456,2.72456,0,0,0,1.22335-.1497,1.50437,1.50437,0,0,0,.69829-.59764c.09863-.16791.13826-.14944.22687.00541a2.92761,2.92761,0,0,0,1.53325,1.32207,6.4432,6.4432,0,0,1,.22813,1.0145.6317.6317,0,0,0,.24.43117c.26224.1833.52409.36784.77641.5643.09392.07312.1546.08254.23948-.00308a1.47176,1.47176,0,0,1,.22161-.17373,1.63191,1.63191,0,0,0,.75535-1.16416A5.21757,5.21757,0,0,1,22.41042,21.19877Z"/><path class="b" d="M29.28914,23.43517c-.15565-.04866-.238.01046-.31206.1697a.59436.59436,0,0,1-.81539.29954,1.99823,1.99823,0,0,0-.57844-.09748c-.51115-.02791-.6902-.24249-.60528-.747.01949-.11575-.03476-.14966-.09211-.20719-.425-.42636-.42458-.60751-.02431-1.06953a2.90266,2.90266,0,0,0,.21566-.36319,1.20356,1.20356,0,0,1,2.17467.00651c.0842.13752.15.14112.284.09777.29441-.09522.41237-.00234.40106.302-.00315.08476-.03137.15707.06359.22076a.66787.66787,0,0,1,.238.80863.7927.7927,0,0,1-.6601.55255A2.614,2.614,0,0,1,29.28914,23.43517Z"/><path class="c" d="M20.30605,26.25456a14.16932,14.16932,0,0,0,.51081-1.46207,1.11076,1.11076,0,0,1,.025-.10969c.05031-.10733.04054-.24592.16193-.31674.04937.09744.10523.19217.147.29275.21268.51182.42171,1.02515.632,1.538a5.48979,5.48979,0,0,1-.32539.98868c-.21113.48295-.48913.50334-.79634.07035A2.46246,2.46246,0,0,1,20.30605,26.25456Z"/><path class="b" d="M26.72458,8.11864l-1.0102,1.15172a1.69731,1.69731,0,0,1-.474-1.6693,9.40931,9.40931,0,0,1,.7496-.89449c.13636.127-.02261.32833.11462.45509A1.6086,1.6086,0,0,0,26.72458,8.11864Z"/><path class="b" d="M29.069,11.65751c-.26808.00592-.41237-.10459-.4104-.34851.00108-.13318-.0384-.1634-.1681-.18661-.40185-.07191-.46034-.20063-.30089-.58374.23113-.55534.39489-.69362.78016-.6435a.672.672,0,0,1,.55368.3416.62915.62915,0,0,0,.1611.19191.295.295,0,0,1,.013.5023c-.05016.04757-.111.07361-.10514.17725C29.61439,11.49267,29.43872,11.65774,29.069,11.65751Z"/><path class="b" d="M24.83842,10.39441l-.15118.06569a1.85823,1.85823,0,0,1-.4065-1.71375l.74867-.90256c.06164.04919.05241.11792.04553.1826a1.60247,1.60247,0,0,0,.34481,1.20912.44714.44714,0,0,1,.11619.25217c-.19047.2224-.38228.44365-.57059.66785C24.90689,10.22513,24.81742,10.28137,24.83842,10.39441Z"/><path class="a" d="M27.86315,16.24218c-.3387.3532-.56657.79045-.881,1.16206l-.01681.02259c-.41966.56291-.41966.56291-1.0278.18176l.9619-1.41217c.1047-.0616.21391-.11675.31328-.186a4.9072,4.9072,0,0,0,.93413-.59238c.13162.108.01507.20549-.019.30044C28.06155,15.90319,27.901,16.04177,27.86315,16.24218Z"/><path class="b" d="M27.8594,6.811l-.95312,1.09452a.922.922,0,0,1-.62957-.66722,2.67222,2.67222,0,0,1-.05973-.81385l.55725-.68954c.1353.08179.00462.25944.12494.34663l.0542.05988c.0028.06219-.00408.12774.05852.16926.01584.13773.11979.20683.22012.27567A2.5634,2.5634,0,0,0,27.8594,6.811Z"/><path class="b" d="M28.14684,15.418a4.9072,4.9072,0,0,1-.93413.59238c-.09937.06926-.20858.12441-.31328.186l-1.40839.11747c.37372-1.08743.02506-.8145,1.41637-.97648A2.6569,2.6569,0,0,1,28.14684,15.418Z"/><path class="c" d="M15.9311,29.26718c.23688.66958.59453,1.28559.86159,1.94178a1.14063,1.14063,0,0,1-.974.791l-.11943-.0615c.1719-.034.11688-.17222.11751-.27446.00405-.65332.0032-1.30669.00077-1.96-.00034-.09083.03134-.1919-.05413-.267C15.80245,29.36377,15.81929,29.2686,15.9311,29.26718Z"/><path class="a" d="M25.53594,9.48768a.44714.44714,0,0,0-.11619-.25217,1.60247,1.60247,0,0,1-.34481-1.20912c.00688-.06468.01611-.13341-.04555-.18259a.72854.72854,0,0,1,.211-.24274,1.69731,1.69731,0,0,0,.474,1.6693Z"/><path class="b" d="M27.79527,13.239a.08347.08347,0,0,1-.05145-.01806c-.26593-.21509-.3587-.01783-.44836.18725-.2193.09973-.23059.15625-.05841.29358a.68373.68373,0,0,0,.54828.01209.36654.36654,0,0,0,.24859-.34375C28.06066,13.19153,27.90489,13.23364,27.79527,13.239Z"/><path class="c" d="M12.01239,21.26048a2.95391,2.95391,0,0,0,1.54585-1.3426c.06558-.11549.09519-.16547.1968-.0147a1.81342,1.81342,0,0,0,2.06289.71963c.081.014.17066-.00821.23936.05735-.089.02041-.21781-.039-.23835.11884l-.0559.11422c-.39606.84747-.78935,1.69626-1.19121,2.541a.29082.29082,0,0,0,.0402.31207c.38606.6379.76819,1.27818,1.15163,1.91767a.16452.16452,0,0,0,.16792.114l.00008.116a.16485.16485,0,0,0-.16811.11385c-.24144.40485-.4666.82079-.73128,1.20983a.39469.39469,0,0,0,.01737.48332c.2419.43621.47706.87615.7149,1.3146a.16189.16189,0,0,0,.1668.11462l-.00023.117c-.11182.00144-.12866.09661-.16769.16986q-.40235.88617-.80465,1.77238a1.57512,1.57512,0,0,1-.20748-.58131c-.57363-2.353-1.38339-4.63385-2.11376-6.939-.04326-.13652-.11535-.16425-.24574-.16777-.14-.00379-.17447.06992-.20494.17869q-.34024,1.21462-.68615,2.42764a1.0018,1.0018,0,0,1-.05536.127c-.0764-.05565-.07994-.14854-.10552-.22593-.1508-.45621-.29186-.91563-.4412-1.37233-.03383-.10346-.038-.22645-.151-.2904-.046.08864-.09871.17449-.13684.26639-.216.52071-.42858,1.04287-.64232,1.56454-.27217-.78255-.55061-1.563-.812-2.34914a.42984.42984,0,0,0-.36362-.32263,4.99528,4.99528,0,0,1-2.93226-1.74333,3.11681,3.11681,0,0,1-.56826-1.0049c-.09249-.29909-.28118-.54768-.38408-.83818.115.09673.22531.19992.34583.28932a1.49216,1.49216,0,0,0,2.20429-.27221c.22268-.26912.2213-.26816.42284.01953A3.59361,3.59361,0,0,0,9.341,21.19881c.0766.27118.14479.54511.23213.81279.09164.28083.1058.59828.3852.79456a5.27971,5.27971,0,0,1,.54833.44263c.10715.09909.17139.09539.2828.00307a6.31075,6.31075,0,0,1,.68326-.49982.69187.69187,0,0,0,.31585-.50491A5.46941,5.46941,0,0,1,12.01239,21.26048Z"/><path class="d" d="M1.71814,22.96266l-.00029-.3504a.39941.39941,0,0,1,.11233-.2545.5886.5886,0,0,0,.2274-.49389c-.00188-.23684.20062-.24814.37663-.17169.152.066.21692.02914.30237-.1112a1.19454,1.19454,0,0,1,2.12686-.047,4.56871,4.56871,0,0,0,.41854.59673c.23385.24795.17225.54333-.1407.84215a.32384.32384,0,0,0-.12229.3557c.0832.37349-.11875.60368-.55257.64118a3.8054,3.8054,0,0,0-.7172.11906.56773.56773,0,0,1-.76405-.35033c-.0699-.15362-.15935-.14284-.28588-.14033A.8842.8842,0,0,1,1.71814,22.96266Z"/><path class="b" d="M9.96847,26.197c.21374-.52167.42628-1.04383.64232-1.56454.03813-.0919.09086-.17775.13684-.26639.113.064.11716.18694.151.2904.14934.4567.2904.91612.4412,1.37233.02558.07739.02912.17028.10552.22593a2.45886,2.45886,0,0,1-.355,1.00117c-.30673.4328-.585.41234-.79632-.07038A5.50627,5.50627,0,0,1,9.96847,26.197Z"/><path class="d" d="M2.36567,11.32531c.07844-.12288-.03173-.17317-.1035-.24414a.27917.27917,0,0,1,.01119-.46174,1.28013,1.28013,0,0,0,.21044-.25978.73279.73279,0,0,1,.72218-.29441.59817.59817,0,0,1,.51131.42993c.027.0701.04368.1443.07228.21366.15789.38295.09814.50731-.30108.587-.09759.01949-.16074.01408-.16967.15424-.02014.31628-.1441.40178-.46425.373C2.50845,11.79205,2.34212,11.62552,2.36567,11.32531Z"/><path class="c" d="M5.814,17.60835c-.60723.38186-.5988.37529-1.03043-.1787-.30482-.39123-.55168-.82573-.89442-1.18791-.03913-.2-.19829-.33918-.26562-.52344-.03454-.09451-.15094-.1923-.019-.30024.01519.10345.10945.11813.1797.159q.53351.31033,1.06769.61954Z"/><path class="e" d="M4.85191,16.19659q-.53391-.30968-1.06769-.61954c-.07025-.04086-.16451-.05554-.1797-.159a2.67436,2.67436,0,0,1,1.23972-.08117c.31546.03369.63049.07193.94647.09926A.27233.27233,0,0,1,6.056,15.673c.05761.21645.13507.42762.20412.641Z"/><path class="d" d="M6.269,5.35c.00185.09421-.00136.18884.00643.28255.03759.45233-.0656.60389-.49168.71522-.13081.03418-.26278.026-.3087-.1145-.04354-.13317-.13974-.15253-.24433-.18889a.47473.47473,0,0,1-.31845-.45661.56526.56526,0,0,1,.2154-.55171.44759.44759,0,0,1,.52887.01942c.13334.11281.29908-.00281.43919.06228l.06445.05116.00219.00219.05207.06235.02021.05208Z"/><path class="b" d="M14.95877,31.2094q.40231-.8862.80465-1.77238c.08548.07509.0538.17616.05414.267.00243.65334.00328,1.30671-.00077,1.96-.00063.10224.05439.24051-.11751.27446A1.10362,1.10362,0,0,1,14.95877,31.2094Z"/><path class="d" d="M6.66571,8.491a.50419.50419,0,0,1-.39653.275c-.18938.01118-.27235-.20491-.28949-.35515-.02889-.25318.25464-.22777.38013-.26C6.57933,8.0944,6.52856,8.39472,6.66571,8.491Z"/><path class="d" d="M4.68309,13.57874c-.0899-.20447-.18072-.40345-.44916-.18836a.17507.17507,0,0,1-.10632.01392c-.24274-.01294-.22107.10717-.13843.2655.13727.2627.37171.327.75238.20239C4.91429,13.73486,4.90294,13.678,4.68309,13.57874Z"/><path class="f" d="M8.60138,5.28654a.11865.11865,0,0,1,.11389.05366A.116.116,0,0,1,8.60138,5.28654Z"/><path class="g" d="M6.23468,5.28555l.03956-.00044L6.269,5.35Z"/><path class="h" d="M20.83937,15.516a3.29011,3.29011,0,0,1-1.1169-.15938c-.14407-.04717-.22727-.04662-.23327.13224a.47038.47038,0,0,1-.04525.16338c-.04085.09506-.07911.20832-.20829.20069-.15321-.00905-.12169-.1425-.1334-.23914a.59906.59906,0,0,1-.00053-.198c.04988-.22355-.04169-.34154-.24749-.43176a1.3144,1.3144,0,0,1-.54237-.48875.60739.60739,0,0,1-.023-.71878.5861.5861,0,0,1,.67905-.22551,1.43429,1.43429,0,0,1,.341.13531,3.22652,3.22652,0,0,0,3.19853.04672,1.76583,1.76583,0,0,1,.56534-.17683.51934.51934,0,0,1,.62522.68393.82712.82712,0,0,1-.3926.53561A4.70965,4.70965,0,0,1,20.83937,15.516Z"/><path class="c" d="M22.41042,21.19877a5.21757,5.21757,0,0,0-.21035.7305,1.63191,1.63191,0,0,1-.75535,1.16416,1.47176,1.47176,0,0,0-.22161.17373c-.08488.08562-.14556.0762-.23948.00308-.25232-.19646-.51417-.381-.77641-.5643a.6317.6317,0,0,1-.24-.43117,6.4432,6.4432,0,0,0-.22813-1.0145c.32189.05313.64406.10463.96561.15968a3.62571,3.62571,0,0,0,1.59617-.20039C22.3366,21.20969,22.37388,21.20556,22.41042,21.19877Z"/><path class="a" d="M24.11462,16.36546a12.75193,12.75193,0,0,1,.96409,1.06193c.06209.06258.03326.11566-.01593.17068q-.47037.526-.93867,1.05389a1.82475,1.82475,0,0,1-.14665-1.85835A1.85467,1.85467,0,0,0,24.11462,16.36546Z"/><path class="a" d="M17.40953,16.4791a12.75047,12.75047,0,0,1,.96409,1.06194c.06208.06258.03326.11566-.01594.17067q-.47035.52605-.93866,1.0539a1.82474,1.82474,0,0,1-.14665-1.85836A1.85484,1.85484,0,0,0,17.40953,16.4791Z"/><path class="b" d="M23.82844,9.26057l.24413-.274c.1021.13907-.00606.27189-.013.40756a1.55978,1.55978,0,0,0,.51128,1.18117c-.15883.27363-.40836.18457-.62655.13392a.64586.64586,0,0,1-.51172-.56782.71833.71833,0,0,1,.20162-.64155C23.70437,9.42517,23.764,9.34062,23.82844,9.26057Z"/><path class="c" d="M25.491,16.31389l1.40839-.11747-.9619,1.41217c-.114-.02309-.138-.12113-.162-.20943C25.67755,17.03826,25.58536,16.67578,25.491,16.31389Z"/><path class="b" d="M24.11462,16.36546a1.85467,1.85467,0,0,1-.13716.42815,1.82475,1.82475,0,0,0,.14665,1.85835c-.04475.07-.07953.0887-.14474.0076-.28878-.35917-.58407-.71311-.87907-1.06723-.05077-.06094-.0619-.117-.00141-.172C23.46066,17.091,23.72165,16.66463,24.11462,16.36546Z"/><path class="b" d="M17.40953,16.4791a1.85484,1.85484,0,0,1-.13716.42815,1.82474,1.82474,0,0,0,.14665,1.85836c-.04475.07-.07952.08871-.14474.00759-.28877-.35916-.58407-.71311-.87907-1.06722-.05077-.06094-.0619-.117-.00142-.172C16.75557,17.20459,17.01656,16.77828,17.40953,16.4791Z"/><path class="c" d="M24.885,11.99591a2.08429,2.08429,0,0,1-.47264.47067,1.64713,1.64713,0,0,1-.44518-.49213,1.79582,1.79582,0,0,1,.44686-.49091A2.16049,2.16049,0,0,1,24.885,11.99591Z"/><path class="c" d="M17.95245,12.05671a2.0739,2.0739,0,0,1-.4764.466,1.65236,1.65236,0,0,1-.4415-.49519,1.71965,1.71965,0,0,1,.45094-.48688A2.16818,2.16818,0,0,1,17.95245,12.05671Z"/><path class="i" d="M22.94881,11.64881a.88916.88916,0,0,1,.75548.3481c.03111.04076.09.08905.03986.14527-.04415.04955-.10465.02749-.15348-.00691-.03841-.02706-.0728-.05976-.10987-.0888a.75.75,0,0,0-1.05055.00051c-.04437.03489-.08574.07365-.12791.11128-.06651.05936-.14894.12047-.21747.03271-.055-.07048.02108-.13914.07418-.19129A1.15116,1.15116,0,0,1,22.94881,11.64881Z"/><path class="i" d="M19.61791,11.70637a.857.857,0,0,1,.67341.34175c.03254.04181.09079.09461.04755.14634-.05177.06192-.11977.02808-.17529-.01544-.02223-.01743-.043-.03673-.06538-.05394a.76806.76806,0,0,0-1.11763.00863c-.08626.06992-.18717.24294-.29416.11311-.09577-.1162.07863-.2057.16515-.27834A1.12023,1.12023,0,0,1,19.61791,11.70637Z"/><path class="a" d="M24.57085,10.57528a1.55978,1.55978,0,0,1-.51128-1.18117c.00694-.13567.1151-.26849.013-.40756a.70622.70622,0,0,1,.20818-.24021,1.85821,1.85821,0,0,0,.40649,1.71376Z"/><path class="c" d="M15.763,20.91322l.0559-.11422c.14743.0011.17763.12455.22389.22332.37941.81006.75251,1.62311,1.13657,2.431.066.13893.00682.2248-.05527.33415-.38485.67776-.83867,1.31455-1.19254,2.01053a.16459.16459,0,0,1-.16795-.114c.085-.07467.05386-.17524.054-.2656q.00267-2.11988,0-4.23973C15.81752,21.08824,15.84844,20.98764,15.763,20.91322Z"/><path class="c" d="M15.93134,29.15016a.162.162,0,0,1-.16683-.11458c.06938-.05615.05384-.13521.0539-.20859q.001-1.29547,0-2.59094c0-.07348.01486-.15246-.05488-.20826a.16485.16485,0,0,1,.16811-.11385c.258.43886.50277.88633.78,1.31268a.42024.42024,0,0,1-.016.50793C16.43,28.20026,16.15038,28.65907,15.93134,29.15016Z"/><path class="a" d="M26.27672,7.23828a2.67234,2.67234,0,0,1-.05975-.81384.26069.26069,0,0,0-.11676.15149L25.99,6.70654c.13635.127-.02265.32837.11456.45508a1.60891,1.60891,0,0,0,.62006.957l.1817-.21313A.92208.92208,0,0,1,26.27672,7.23828Z"/><path class="a" d="M27.07268,6.19287a.12637.12637,0,0,0-.06079.1178c.01587.13769.11981.20691.22015.27576a2.57064,2.57064,0,0,0,.62738.22461l.18146-.21509A1.11614,1.11614,0,0,1,27.07268,6.19287Z"/><path class="a" d="M27.012,5.96924l-.0542-.44324-.10144.10535a.38423.38423,0,0,1,.04639.22265.38423.38423,0,0,0-.04639-.22265l-.08209.10351c.13531.08179.00464.25952.12494.34668l.0542.05982c.0028.06225-.00409.12781.05853.16931a.12644.12644,0,0,1,.06073-.1178Z"/><path class="b" d="M28.32317,5.73254a.08356.08356,0,0,0-.0141-.0509l-.04456-.058.002.00183.00018.00024h0l-.00244-.05908-.04779-.05518-.02484.00415-.04438-.047-.00744-.00574-.0506-.07739L28.043,5.34119l-.00586-.00476c-.24073-.12976-.48212-.25074-.74652-.0542l-.055.02649-.05346.03308-.06879.05322a.30873.30873,0,0,0-.15564.131l.0542.44324.06067.22363a1.11631,1.11631,0,0,0,.96826.40308q.13659-.14685.27319-.29346l.01209-.08789.0401-.074.00409-.28784C28.36783,5.79731,28.33776,5.7798,28.32317,5.73254Zm-.173.29212c-.00109.01831-.00158.03674-.00158.05517l-.05689.05835c-.36609.18091-.58368.10328-.79547-.28405a.33017.33017,0,0,1,.00073-.39759.11567.11567,0,0,1,.05774-.11279l.00013.00024a.62074.62074,0,0,1,.73687.17078l.00238.05554.05512.05713.00177.05676A.26058.26058,0,0,1,28.15019,6.02466Z"/><path class="b" d="M27.2003,5.29749a.09933.09933,0,0,0-.01855.04455l.00043-.00024.05346-.03321A.22656.22656,0,0,1,27.2003,5.29749Z"/><path class="j" d="M28.08913,5.38557,28.043,5.34122Z"/><path class="k" d="M28.32617,6.2146l.04011-.07387Z"/><path class="k" d="M28.1916,5.51561l-.04438-.047Z"/><path class="k" d="M28.30909,5.68174l-.04456-.05809Z"/><path class="c" d="M28.151,5.6842l-.00177-.05676-.05512-.05713-.00238-.05554a.62074.62074,0,0,0-.73687-.17078l.00006-.00048a.1027.1027,0,0,0-.05793.113h0a.33017.33017,0,0,0-.00073.39759c.21179.38733.42938.465.79547.28405l.05689-.05835c0-.01843.00049-.03686.00158-.05517A.26058.26058,0,0,0,28.151,5.6842Z"/><path class="k" d="M28.14924,5.62753l-.05513-.05723Z"/><path class="k" d="M27.11341,5.395l.06937-.05361Z"/><path class="k" d="M28.09173,6.13811l.05687-.05828Z"/><path class="l" d="M8.03552,14.14644c-.00545-.41695.2287-.63731.579-.60105a2.22041,2.22041,0,0,1,.74988.2455,3.18035,3.18035,0,0,0,2.99568-.06188,1.79525,1.79525,0,0,1,.41555-.17776.61082.61082,0,0,1,.68443.21812.641.641,0,0,1-.03168.74369,1.47048,1.47048,0,0,1-.59923.50908.26616.26616,0,0,0-.18157.32929,1.21892,1.21892,0,0,1,.001.28325c-.00754.08926.00982.20491-.125.21888a.179.179,0,0,1-.19811-.167c-.02529-.45573-.28632-.32217-.561-.26127a4.10085,4.10085,0,0,1-2.70634-.3335c-.19637-.093-.39372-.18634-.58066-.29643A.83327.83327,0,0,1,8.03552,14.14644Z"/><path class="b" d="M12.01239,21.26048a5.46941,5.46941,0,0,0-.22386.98665.69187.69187,0,0,1-.31585.50491,6.31075,6.31075,0,0,0-.68326.49982c-.11141.09232-.17565.096-.2828-.00307a5.27971,5.27971,0,0,0-.54833-.44263c-.2794-.19628-.29356-.51373-.3852-.79456-.08734-.26768-.15553-.54161-.23213-.81279.32741.07478.65285.16018.98271.22183a3.98113,3.98113,0,0,0,1.43986-.13422A.71654.71654,0,0,1,12.01239,21.26048Z"/><path class="d" d="M13.03412,11.74434a1.18538,1.18538,0,0,1-.26373.7133.68765.68765,0,0,1-1.17189.0054,1.3647,1.3647,0,0,1-.01439-1.61.71805.71805,0,0,1,1.2746.10916A1.40207,1.40207,0,0,1,13.03412,11.74434Zm-1.3056-.10563c-.00422.378.2365.6979.52016.69121.27209-.00642.50177-.31931.50085-.68227-.00093-.36438-.23238-.67408-.506-.6771C11.96951,10.96753,11.73257,11.27492,11.72852,11.63871Z"/><path class="d" d="M10.19593,11.61824a1.2384,1.2384,0,0,1-.25622.77047.693.693,0,0,1-1.19074.00841,1.37515,1.37515,0,0,1-.01658-1.58884.72241.72241,0,0,1,1.29117.1079A1.38636,1.38636,0,0,1,10.19593,11.61824Zm-1.30855-.03182c-.00247.36312.22461.67722.49643.68669.28358.00988.52717-.309.52458-.68678-.00251-.36489-.23609-.6726-.51055-.67257S8.88985,11.22154,8.88738,11.58642Z"/><path class="c" d="M14.33177,18.76639q-.45914-.51722-.91845-1.03428c-.051-.05732-.11231-.11261-.03485-.19108a12.58422,12.58422,0,0,1,.96349-1.06214c.06394.18661.13067.37231.19106.56005.06875.21374.23188.43284.17993.64192A4.398,4.398,0,0,1,14.33177,18.76639Z"/><path class="c" d="M7.62668,18.65275q-.45913-.51722-.91845-1.03428c-.051-.05733-.11231-.11262-.03485-.19109a12.58406,12.58406,0,0,1,.96349-1.06214c.06393.18661.13067.37231.19106.56005.06875.21374.23188.43284.17993.64193A4.39857,4.39857,0,0,1,7.62668,18.65275Z"/><path class="b" d="M4.85191,16.19659l1.40823.11747c-.09415.362-.186.72462-.284,1.08556-.02389.088-.04726.18675-.1622.20874Z"/><path class="b" d="M14.33177,18.76639a4.398,4.398,0,0,0,.38118-1.08553c.052-.20908-.11118-.42818-.17993-.64192-.06039-.18774-.12712-.37344-.19106-.56005a14.11731,14.11731,0,0,1,1.01541,1.055c.0598.05578.04929.11116-.00147.17214-.29494.35423-.59.70839-.87893,1.06754C14.41234,18.85388,14.37685,18.83688,14.33177,18.76639Z"/><path class="b" d="M7.62668,18.65275a4.39857,4.39857,0,0,0,.38118-1.08553c.05195-.20909-.11118-.42819-.17993-.64193-.06039-.18774-.12713-.37344-.19106-.56005a14.11718,14.11718,0,0,1,1.0154,1.055c.0598.05578.0493.11116-.00147.17214-.29494.35423-.59.7084-.87893,1.06754C7.70725,18.74023,7.67176,18.72323,7.62668,18.65275Z"/><path class="d" d="M14.716,12.03552a1.63078,1.63078,0,0,1-.44882.48868,2.15294,2.15294,0,0,1-.46792-.47652,2.13183,2.13183,0,0,1,.475-.50824A1.74191,1.74191,0,0,1,14.716,12.03552Z"/><path class="d" d="M7.78364,11.98325a1.62374,1.62374,0,0,1-.4533.48492,2.21936,2.21936,0,0,1-.46349-.48191,2.10443,2.10443,0,0,1,.4797-.50359A1.73507,1.73507,0,0,1,7.78364,11.98325Z"/><path class="b" d="M15.763,20.91322c.0854.07442.05448.175.05459.26541q.00263,2.11986,0,4.23973c-.00011.09036.03105.19093-.054.2656-.38342-.63951-.76555-1.27979-1.15161-1.91769a.29082.29082,0,0,1-.0402-.31207C14.97369,22.60948,15.367,21.76069,15.763,20.91322Z"/><path class="b" d="M15.76355,26.02779c.06974.0558.05483.13478.05488.20826q.001,1.29546,0,2.59094c-.00006.07338.01548.15244-.0539.20859-.23781-.43849-.473-.87843-.71487-1.31464a.39469.39469,0,0,1-.01737-.48332C15.297,26.84858,15.52211,26.43264,15.76355,26.02779Z"/><path class="m" d="M12.518,5.18355l-.068-.06218Z"/><path class="m" d="M12.57537,5.23881l-.06318-.06068Z"/><path class="g" d="M6.09576,5.11777l.06445.05116Z"/><path class="g" d="M6.1624,5.17112l.05207.06236Z"/><path class="n" d="M14.97408,3.64043l-.06286.04882Z"/><path class="n" d="M15.09025,3.58456l-.06539.04794Z"/><path class="d" d="M14.70957,6.03171c-.069.13681-.19686.31256-.35008.27187-.14465-.03841-.39156-.11806-.39206-.298a.35737.35737,0,0,1,.28744-.36047C14.38194,5.633,14.71559,5.91437,14.70957,6.03171Z"/><path class="l" d="M11.72852,11.63871c.00405-.36379.241-.67118.515-.66816.27363.003.50508.31272.506.6771.00092.363-.22876.67585-.50085.68227C11.965,12.33661,11.7243,12.01674,11.72852,11.63871Z"/><path class="l" d="M8.88738,11.58642c.00247-.36488.236-.67263.51046-.67266s.508.30768.51055.67257c.00259.37776-.241.69666-.52458.68678C9.112,12.26364,8.88491,11.94954,8.88738,11.58642Z"/><path class="o" d="M15.76974,12.67168a12.94022,12.94022,0,0,0-1.34291-2.353,6.05921,6.05921,0,0,0-2.14347-1.89623c-.14451-.07006-.11183-.11307-.01533-.18536a2.25049,2.25049,0,0,0,.174-.14513,1.72848,1.72848,0,0,0,.36927-2.58634c-.01706-.0043-.03392-.0093-.05071-.01457l-.18744-.25362.00222.00138-.05994-.05772-.00319-.003.0027.00264L12.45,5.12145a6.94142,6.94142,0,0,0-.64718-.45439c-.1771-.09823-.15456-.17495-.06833-.32008.39383-.66265.38724-.69359-.11231-1.24843a.095.095,0,0,1-.01159-.0258l.0016.00138-.06313-.05827-.55664-.40957-.11711-.10406q-.3975.2847-.795.56955l-.06528.1.00027.00056-.06319.06021.00652-.0061-.06729.06493q-.12894.12528-.25786.251a.66952.66952,0,0,0-.042.79362c.22712.27.09157.36878-.13007.4802-.04135.02081-.08089.04523-.12134.068a3.37965,3.37965,0,0,0-.51592.5128h0l-.04821.00833a1.80909,1.80909,0,0,0,.36441,2.8469c.16.13362.04086.15165-.04579.197A5.83412,5.83412,0,0,0,7.39426,9.797a11.90777,11.90777,0,0,0-2.55,5.53981c.31544.03371.63046.072.94645.0992a.2725.2725,0,0,1,.26528.237c.05765.21644.13507.42761.20409.641-.09407.36212-.186.72466-.28394,1.08554-.02386.088-.04724.18675-.16219.20881-.60722.38183-.59882.37531-1.03046-.1787-.30482-.39126-.55165-.82567-.89442-1.18794A1.77539,1.77539,0,0,0,2.933,18.1503a1.64072,1.64072,0,0,0,1.46966,1.42311.58148.58148,0,0,1,.50551.36517c.115.09685.22532.20007.34589.28942a1.492,1.492,0,0,0,2.20431-.27221c.22262-.269.2213-.26806.42283.0197A3.59382,3.59382,0,0,0,9.34092,21.1988c.32744.07479.65287.16025.98273.22186a3.98324,3.98324,0,0,0,1.4399-.13431.71632.71632,0,0,1,.24884-.02581,2.95358,2.95358,0,0,0,1.54583-1.34277c.06562-.11544.09524-.16538.19681-.01471a1.81355,1.81355,0,0,0,2.06292.71981q.004-3.8689.00805-7.7378Zm-1.49539-1.13216a1.73978,1.73978,0,0,1,.44169.496,1.62943,1.62943,0,0,1-.44884.48866,2.15214,2.15214,0,0,1-.46791-.47659A2.13067,2.13067,0,0,1,14.27435,11.53952Zm-1.41562-.57732a1.4023,1.4023,0,0,1,.17538.78211,1.18582,1.18582,0,0,1-.26369.71328.68763.68763,0,0,1-1.17191.00541,1.36479,1.36479,0,0,1-.01443-1.61A.71808.71808,0,0,1,12.85873,10.9622Zm-4.12634-.15387a.72237.72237,0,0,1,1.29116.10781,1.38575,1.38575,0,0,1,.17239.702,1.238,1.238,0,0,1-.25626.77045A.69288.69288,0,0,1,8.749,12.3971,1.37507,1.37507,0,0,1,8.73239,10.80833Zm-1.38585.6743a1.73375,1.73375,0,0,1,.43711.50059,1.62394,1.62394,0,0,1-.45328.48492,2.21828,2.21828,0,0,1-.46355-.48186A2.105,2.105,0,0,1,7.34654,11.48263Zm1.30427,6.10978c-.295.35407-.59.70829-.87895,1.0675-.06459.08033-.10011.06327-.1452-.00722q-.45911-.51717-.91842-1.0342c-.051-.05744-.11231-.11266-.0349-.19119a12.59525,12.59525,0,0,1,.96352-1.06209,14.12315,14.12315,0,0,1,1.0154,1.055C8.71206,17.476,8.70159,17.53136,8.65081,17.59241Zm4.17837-2.57026a.26614.26614,0,0,0-.18162.32925,1.21992,1.21992,0,0,1,.001.28331c-.00756.08922.00979.20479-.125.2188a.179.179,0,0,1-.19812-.16691c-.02525-.45577-.2863-.32216-.561-.26139a4.10048,4.10048,0,0,1-2.70636-.33341c-.19632-.09309-.39369-.18633-.58065-.29649a.83311.83311,0,0,1-.442-.64891c-.00548-.41693.22865-.63726.579-.60105a2.22466,2.22466,0,0,1,.74984.24544,3.17982,3.17982,0,0,0,2.99571-.06188,1.79488,1.79488,0,0,1,.41554-.17759.61055.61055,0,0,1,.68443.21811.6409.6409,0,0,1-.0317.74367A1.4703,1.4703,0,0,1,12.82918,15.02215Zm2.52668,2.68375c-.2949.35435-.59.70843-.87888,1.06764-.06465.08033-.1001.06341-.14519-.00708q-.45921-.51738-.91849-1.03434c-.051-.0573-.11232-.11266-.03483-.191a12.58511,12.58511,0,0,1,.96352-1.06223,14.11417,14.11417,0,0,1,1.0154,1.055C15.41719,17.58963,15.40665,17.645,15.35586,17.7059Z"/><path class="p" d="M27.86317,16.24214c-.33875.35324-.56657.79057-.881,1.16213l-.01679.02247c-.41971.563-.41971.563-1.02782.18176-.114-.023-.138-.121-.162-.20937-.098-.36087-.19015-.72327-.2845-1.08526.37371-1.08734.025-.81457,1.41638-.97649-.04169-.19355-.07763-.38862-.126-.58064a12.2762,12.2762,0,0,0-1.943-4.36242l-.15116.06576-.11641.11516c-.1588.27361-.40833.18453-.6265.134a.64607.64607,0,0,1-.51177-.56788.71821.71821,0,0,1,.20167-.64156c.07014-.07465.1298-.15914.19424-.23934a5.52053,5.52053,0,0,0-1.16323-.80222c-.16754-.08075-.1588-.1221-.01492-.23184a1.861,1.861,0,0,0,.842-1.61374A1.92562,1.92562,0,0,0,23.00342,5.46a3.03159,3.03159,0,0,0-.5316-.51c-.14381-.10712-.34437-.174-.43011-.31357-.0981-.16.16025-.25626.19153-.42137a.71232.71232,0,0,0-.08872-.59646c-.11308-.1504-.24163-.28942-.36331-.43344l-.10274-.06285-.1334-.16136a4.844,4.844,0,0,1-.41235-.29386.3183.3183,0,0,0-.48478-.01346q-.28335.23787-.5667.47548c-.14853.20964-.3821.37627-.34395.6804l.05647.0573c.04072.10448.07333.213.12355.31274.18481.3667.1871.36559-.16129.606a3.497,3.497,0,0,0-.89962.85342,1.56784,1.56784,0,0,0,.0564,2.034,3.512,3.512,0,0,0,.58307.57635c.06022.04787.1316.0924.00611.15761a8.22564,8.22564,0,0,0-3.51816,4.28667c-.03232.07117-.01123.20687-.15782.19147Q15.822,16.754,15.818,20.62287c.081.01388.17066-.00832.23934.0573a2.72547,2.72547,0,0,0,1.22345-.1497,1.50459,1.50459,0,0,0,.69824-.59772c.09864-.16788.13826-.14942.22691.00542a2.9276,2.9276,0,0,0,1.53327,1.3221c.32189.05314.64406.10461.9656.15969a3.6248,3.6248,0,0,0,1.59612-.20048c.03573-.00972.073-.01388.10954-.02082a3.45369,3.45369,0,0,0,1.51621-1.32057c.1137-.183.18418-.16289.299-.01277a1.73124,1.73124,0,0,0,1.02914.70316,1.58613,1.58613,0,0,0,1.37441-.44551c.0718-.06021.14221-.12195.21332-.18314a.582.582,0,0,1,.5051-.36615,1.64114,1.64114,0,0,0,1.4707-1.42227A1.77612,1.77612,0,0,0,27.86317,16.24214ZM24.414,11.48347a2.16118,2.16118,0,0,1,.471.51252,2.0865,2.0865,0,0,1-.47264.47062,1.64584,1.64584,0,0,1-.44516-.49227A1.79855,1.79855,0,0,1,24.414,11.48347Zm-2.255.51613a1.1504,1.1504,0,0,1,.78974-.35075.88894.88894,0,0,1,.75547.348c.03108.04079.09.08908.03989.14541-.04419.04939-.10469.02747-.15353-.00694-.03836-.0272-.07277-.0598-.10981-.0888a.74988.74988,0,0,0-1.05058.00056c-.0444.03482-.08574.07353-.12792.11127-.06653.05938-.14894.12043-.21748.03261C22.02984,12.12044,22.10594,12.05176,22.15908,11.9996Zm-3.30754-.03108a1.12041,1.12041,0,0,1,.76636-.26223.85707.85707,0,0,1,.6734.34187c.03254.04176.09081.09462.04759.14623-.05182.06188-.11981.028-.17531-.0154-.02226-.01734-.043-.03676-.06541-.054a.76814.76814,0,0,0-1.11759.0086c-.08623.06993-.18717.24309-.29414.11322C18.59063,12.13057,18.765,12.04108,18.85154,11.96852Zm-1.36608-.42789a2.16679,2.16679,0,0,1,.467.51613,2.07424,2.07424,0,0,1-.47645.4659,1.65155,1.65155,0,0,1-.44149-.49518A1.71763,1.71763,0,0,1,17.48546,11.54063Zm.87222,6.1711q-.47034.52611-.93861,1.0539c-.04481.06993-.07957.08866-.14478.00749-.2888-.35907-.58405-.71314-.87909-1.06722-.05078-.06091-.06188-.11682-.00138-.172.36177-.32938.62275-.7556,1.01568-1.05473a12.74994,12.74994,0,0,1,.96414,1.06195C18.43572,17.6035,18.40687,17.65678,18.35768,17.71173Zm2.48138-2.19592a3.28886,3.28886,0,0,1-1.11661-.15914c-.144-.04717-.22727-.04662-.23323.13208a.4705.4705,0,0,1-.04524.16345c-.04086.09517-.07915.20839-.20832.20076-.15318-.009-.12168-.14249-.1334-.2392a.60036.60036,0,0,1-.00056-.198c.04988-.22351-.04169-.34159-.24745-.43177a1.31456,1.31456,0,0,1-.54236-.48866.60746.60746,0,0,1-.023-.71884.586.586,0,0,1,.679-.22546,1.43576,1.43576,0,0,1,.341.13528,3.22675,3.22675,0,0,0,3.19848.04676,1.76507,1.76507,0,0,1,.56539-.1769.51929.51929,0,0,1,.62518.68387.827.827,0,0,1-.39258.53569A4.70726,4.70726,0,0,1,20.83906,15.51581ZM25.06281,17.598q-.47046.52612-.93868,1.05405c-.04475.06993-.07957.08866-.14478.00763-.28873-.35935-.58405-.71315-.879-1.06722-.05078-.06105-.06195-.11711-.00146-.17205.36178-.32938.62276-.75574,1.01575-1.055a12.75907,12.75907,0,0,1,.96407,1.062C25.14078,17.49,25.112,17.543,25.06281,17.598Z"/><path class="q" d="M29.45735,4.65832a.61062.61062,0,0,0-.24482-.12861c-.45661-.19175-.9513-.27694-1.39654-.50018l-.00263.0025-.05828-.05439L27.696,3.9177a1.83424,1.83424,0,0,1-.22567-.7778.97886.97886,0,0,0-1.03268-.975c-.31856-.01873-.63913-.00236-.9588-.00194q-.33465-.00583-.6693-.01152a2.14014,2.14014,0,0,1-.85918-.56025L23.89,1.53046l.003.003-.05751-.07145a.03732.03732,0,0,0-.01672-.03538,3.30285,3.30285,0,0,0-.61207-.68693,1.76257,1.76257,0,0,0-.849-.52182q-.24589.59355-.00007,0a.63783.63783,0,0,0-.34291-.1035,2.37,2.37,0,0,0-.97122-.1042,2.45539,2.45539,0,0,0-.73826.05841,2.65319,2.65319,0,0,0-1.02.339,2.90345,2.90345,0,0,0-.68006.4523q-.42768.28284-.85522.56567l-.68284.174q-.36483-.00624-.72959-.01276c-.18141-.101-.404-.05272-.58335-.16095l-.21769-.00444q-.31322-.0849-.62643-.1701a2.29585,2.29585,0,0,0-.56768-.17329A.611.611,0,0,0,14.001.96743L13.88968.91915,13.77459.90666c-.06216-.072-.14714-.049-.22539-.05411a1.553,1.553,0,0,0-.91246.00083L12.521.86046a.11989.11989,0,0,1-.1137.04939.18693.18693,0,0,0-.05557.00472,3.38485,3.38485,0,0,0-.73681.28248q-.36951.11509-.73895.23046-.42633.08407-.85266.1683c-.17613-.03122-.338.06424-.51134.05785l-.45453.05661a3.21863,3.21863,0,0,0-.73944.168,1.46727,1.46727,0,0,0-.738.45411c-.15262.11322-.22338.30788-.39771.39931a4.72276,4.72276,0,0,1-.9665.56608l-.05771.05564L6.15749,3.353c-.08678.03455-.17655.06327-.25994.10475-.55574.2768-.64093.53722-.3683,1.08513a3.55271,3.55271,0,0,0,.21887.32716c.039.06091.16123.07964.12161.16-.01727.0351-.13895.01845-.21318.02539.13334.11294.29914-.00277.4392.06244l.06445.05106.00222.00222.052.06243.02025.05189.03955-.00028c.05577-.0641.11252.01957.16864-.00111a2.10894,2.10894,0,0,0,.96629.00139Q7.94863,5.285,8.488,5.28434l.05772.00042c.01852.00152.03711.00208.05563.0018a.11854.11854,0,0,1,.11391.05356l.06064.06521L8.8241,5.397c.17482.0351.27589.18342.41644.27111A2.46962,2.46962,0,0,0,11.1598,6.025c.11391-.01748.24107.0444.341-.05675a2.5272,2.5272,0,0,0,1.25973-.47714c.01679.00527.03365.01027.05071.01457l.16934-.15248c-.08651-.35269-.141-.57524-.16795-.685l.168.68513a1.55524,1.55524,0,0,0,.56906-.46383,3.05665,3.05665,0,0,0,.513-.51072,2.28773,2.28773,0,0,0,.403-.39445l.00007.00014a1.391,1.391,0,0,0,.38945-.28013l.056-.01512.06285-.0487a.14359.14359,0,0,0,.05078-.008l.06535-.048.50843-.11322h.00014l.21325-.00083c.11571.01221.24114-.045.34533.04856l.17115.01221a5.05842,5.05842,0,0,0,.85446.1547q-.132-.8743,0-.00014.39782.057.79563.11377a.37183.37183,0,0,1-.13028-.17787.37084.37084,0,0,0,.13028.17773,3.24561,3.24561,0,0,0,.62491.05717V3.85638a3.35259,3.35259,0,0,0,1.031-.04371.27946.27946,0,0,1-.19577-.04065.27966.27966,0,0,0,.19584.04065l.10267-.00319.05647.0573a.40035.40035,0,0,1,.19105-.11391c.55685-.23087,1.11759-.45133,1.69366-.63059l.10274.06285c.11426-.17454.33008-.063.46965-.16663q-.14256-.0356.00007,0a5.77935,5.77935,0,0,1,1.012.04453l.625.17024a7.70615,7.70615,0,0,0,1.13646.342,3.1698,3.1698,0,0,0,1.25.11391.87311.87311,0,0,1,.51661.405l.04863.061-.00437.00084a2.71384,2.71384,0,0,0,.38731.04523,2.73592,2.73592,0,0,1-.38738-.04509.58665.58665,0,0,0,.1989.334c.286.22879.24072.512.16621.80721a.24377.24377,0,0,0,.03538.01138l.05495-.0265c.26444-.1966.50579-.07562.74651.05425h.00007l.00583.00472.04606.04439.05064.07715.0075.00582.04433.0469.0249-.004.04773.05508.00243.05924-.00208-.00208.04453.058a.083.083,0,0,1,.01409.05078.11916.11916,0,0,1,.04717.12015l-.00409.288-.0401.07382-.01207.088A.88555.88555,0,0,0,29.222,6.215a2.40268,2.40268,0,0,0,.50746-.48727A.63145.63145,0,0,0,29.45735,4.65832Z"/></svg>