<svg xmlns="http://www.w3.org/2000/svg" viewBox="0 0 32 32"><defs><style>.a{fill:#fca15e;}.b{fill:#413b3b;}.c{fill:#fff5d8;}.d{fill:#ffda40;}.e{fill:#ffeaa7;}.f{fill:#f4d736;}.g{fill:#e5dac2;}.h{fill:#ddc436;}.i{fill:#f1d0bf;}.j{fill:#fcf1d5;}.k{fill:#efefef;}.l{fill:#f79654;}.m{fill:#3a3333;}.n{fill:#fef1c6;}.o{fill:#f9c900;}.p{fill:#ffe28a;}</style></defs><title>585-deerling-autumn</title><path class="a" d="M8.1711.00393a12.86516,12.86516,0,0,0,2.08249.93732,3.79776,3.79776,0,0,1,1.60413.88459,4.35067,4.35067,0,0,1,.80152,1.26631c-.29914.29792.06619.3234.18452.45014l.06091.06207a3.76722,3.76722,0,0,0,.31583.8932L12.544,4.926c-.33764-.62681-.72623-1.23246-.998-1.88663a2.14785,2.14785,0,0,0-1.245-1.20158,16.49389,16.49389,0,0,0-1.87254-.62752C8.25252.87076,8.262.47622,8.108.13016,8.134.09057,8.04664-.0057,8.1711.00393Z"/><path class="b" d="M14.47233,30.75888l-.116,1.24438H14.167c-.59916-.0077-.66674-.42986-.69636-.88681-.00935-.14435-.03749-.28749-.057-.43119Z"/><path class="c" d="M14.85155,18.30672a3.8986,3.8986,0,0,1-1.64457.67777,1.2782,1.2782,0,0,1-1.07419-.3401,4.41075,4.41075,0,0,1-.73807-.97583,10.43344,10.43344,0,0,0,.07741,1.87094,3.01363,3.01363,0,0,0,.1049.9792c.02553-.10753-.05861-.28108.04426-.31126.09513-.028.13468.15671.207.24106a5.17345,5.17345,0,0,0,.48778.572,1.0294,1.0294,0,0,1,.33363.71416c.149,1.27456.31558,2.5475.43469,3.825.09406,1.00857.21607,2.01432.27677,3.02707.03079.51392.03376,1.02608.04662,1.53906.00256.10025.03672.213-.05854.29644a.42612.42612,0,0,0,.0644.263l1.0587.07357c.04528-.52012.09453-1.04011.13488-1.56063.06778-.87477.11049-1.752.19922-2.62458q.18231-1.792.30682-3.588c.03854-.56836.0477-.57968.605-.46986a1.87779,1.87779,0,0,0,.27474.0163V17.24276A8.87848,8.87848,0,0,1,14.85155,18.30672Z"/><path class="a" d="M13.43046,10.66825A3.29513,3.29513,0,0,1,11.9653,7.92213a6.0502,6.0502,0,0,1,.05828-1.60078c-.06151-.09675-.16008-.061-.24645-.069a2.95687,2.95687,0,0,0-.2511,1.22376,4.75565,4.75565,0,0,0,1.35574,3.57723,2.85428,2.85428,0,0,1,.91708,2.38392.34878.34878,0,0,1-.23728.34953,3.03558,3.03558,0,0,0-1.08309.79473,4.41546,4.41546,0,0,0-1.07062,2.60168c.31645.07343.43556.32338.57105.58614a1.18429,1.18429,0,0,0,1.82911.48077,7.8734,7.8734,0,0,0,2.13585-1.83119l.04911-.06818V11.42956A5.77637,5.77637,0,0,1,13.43046,10.66825ZM12.139,17.36013c-.17672-.019-.20758-.16049-.20434-.29752A.19382.19382,0,0,1,12.138,16.862a.29024.29024,0,0,1,.22382.29321A.19252.19252,0,0,1,12.139,17.36013Zm.63115.4169a.09049.09049,0,0,1-.09284-.09607c-.00054-.05309.04338-.06522.08415-.0636a.08151.08151,0,0,1,.07714.07815C12.83192,17.73647,12.82215,17.77959,12.77014,17.777Zm1.25448-.19053c-.0981-.00364-.22415-.04986-.21034-.18029a.24374.24374,0,0,1,.28452-.22247.189.189,0,0,1,.19531.20347A.2475.2475,0,0,1,14.02462,17.5865Z"/><path class="d" d="M8.42846,1.21031a16.49389,16.49389,0,0,1,1.87254.62752,2.14785,2.14785,0,0,1,1.245,1.20158c.27179.65417.66038,1.25982.99793,1.88664a.76.76,0,0,1-.45881.45084A5.412,5.412,0,0,1,9.97144,4.467a1.73266,1.73266,0,0,1-.45967-.46874A8.77079,8.77079,0,0,1,8.42846,1.21031Z"/><path class="e" d="M11.577,20.51879c.02554-.10762-.05863-.28112.04422-.31136.09513-.028.13469.15671.207.24106a5.15671,5.15671,0,0,0,.4878.572,1.02956,1.02956,0,0,1,.33361.71412c.149,1.27461.31557,2.54766.43469,3.82511.094,1.00849.21608,2.01431.27675,3.02708.03078.51385.03378,1.02608.04665,1.53906.00251.10022.03672.213-.05857.29648l-.00589-.06843c.00114-.14652.00319-.293.00326-.43953.00034-.74714.00016-.74714-.75514-.74661-.08484-.59938-.17468-1.19809-.25337-1.79827q-.18726-1.42847-.36179-2.85859c-.07122-.58049-.13977-1.16148-.19716-1.74346C11.70528,22.01851,11.64383,21.26839,11.577,20.51879Z"/><path class="f" d="M15.993,17.20342v.03934l.00459-.00458A.14307.14307,0,0,1,15.993,17.20342Z"/><path class="a" d="M12.08511,5.37689a.76.76,0,0,0,.45881-.45084q.33839-.21425.67658-.42854a1.41568,1.41568,0,0,1,.44286-.20855,3.48753,3.48753,0,0,0-.5728,1.52525,2.46653,2.46653,0,0,1-.874.36973c-.09686.016-.134.0849-.193.13746-.06155-.09669-.16013-.06109-.24649-.069a2.01747,2.01747,0,0,1,.28073-.62644C12.10428,5.54187,12.174,5.47124,12.08511,5.37689Z"/><path class="b" d="M12.59144,29.16774c.7553-.00053.75548-.00053.75514.74661-.00007.14651-.00212.293-.00326.43953-.61819-.10324-.61933-.10308-.70351-.71941C12.61866,29.47958,12.6073,29.32335,12.59144,29.16774Z"/><polygon class="g" points="15.993 17.203 15.993 17.204 15.993 17.203 15.993 17.203"/><path class="d" d="M15.9438,16.41893A7.87206,7.87206,0,0,1,13.808,18.25012a1.18429,1.18429,0,0,1-1.82911-.48077c-.13549-.26276-.2546-.51271-.57105-.58614a.5072.5072,0,0,0-.01314.48535,4.41075,4.41075,0,0,0,.73807.97583,1.2782,1.2782,0,0,0,1.07419.3401,3.8986,3.8986,0,0,0,1.64457-.67777,8.87848,8.87848,0,0,0,1.14143-1.064v-.03934l-.00013-.00095a1.60051,1.60051,0,0,1,.00013-.19929v-.65243Z"/><path class="h" d="M15.99285,17.20261H15.993v-.19943A1.60276,1.60276,0,0,0,15.99285,17.20261Z"/><path class="d" d="M14.74322,2.43259c-.041.08327-.02722.22907-.18764.19821a2.54672,2.54672,0,0,0-1.89634.46124c-.29913.298.06616.32352.18454.45032a.1279.1279,0,0,1,.12228.0547,4.30439,4.30439,0,0,0,1.03114.24955c.03948.00458.07808.01617.11716.02453a.676.676,0,0,1-.07236.09c-.12491.11076-.25224.21882-.3787.32783a3.48809,3.48809,0,0,0-.57274,1.52519c-.00835.154.06165.20535.21034.16911.26309-.06414.52746-.12316.79123-.18447A3.57052,3.57052,0,0,0,15.993,4.004V1.33738A2.05436,2.05436,0,0,0,14.74322,2.43259Z"/><path class="i" d="M12.96606,3.59716a.27153.27153,0,0,1-.06138.00717l-.06092-.062A.1279.1279,0,0,1,12.96606,3.59716Z"/><path class="j" d="M16,9.85856c.00027-.01846-.006-.03315-.007-.0508v1.59661C15.99447,10.8891,15.99211,10.3737,16,9.85856Z"/><polygon class="j" points="15.993 11.419 15.993 11.43 15.999 11.43 15.993 11.419"/><path class="d" d="M12.138,16.86209a.29.29,0,0,1,.22381.29306.19246.19246,0,0,1-.22283.205c-.17673-.019-.20759-.16041-.20435-.29752A.19366.19366,0,0,1,12.138,16.86209Z"/><path class="d" d="M14.2941,17.38717a.24746.24746,0,0,1-.26946.19934c-.09812-.00358-.2242-.04986-.21038-.18029a.24361.24361,0,0,1,.28457-.22236A.18884.18884,0,0,1,14.2941,17.38717Z"/><path class="d" d="M12.83866,17.69554c-.00676.04089-.01653.084-.06852.08151a.09049.09049,0,0,1-.09283-.09612c-.00052-.05308.04339-.06507.0841-.06357A.08175.08175,0,0,1,12.83866,17.69554Z"/><path class="a" d="M14.09219,5.79894c.12478.0764.24753.1559.3744.22826a4.16389,4.16389,0,0,0,1.52639.41435V4.004A3.57132,3.57132,0,0,1,14.09219,5.79894Z"/><path class="c" d="M15.93545,8.78774l.05753-.00081V6.44155a4.16389,4.16389,0,0,1-1.52639-.41435c-.12687-.07236-.24962-.15186-.3744-.22826-.26383.06118-.5282.1202-.79129.18434-.14869.03624-.21869-.0151-.21034-.16911a2.46691,2.46691,0,0,1-.874.36974c-.09688.0159-.13394.08489-.193.13744a6.0502,6.0502,0,0,0-.05828,1.60078,3.29513,3.29513,0,0,0,1.46516,2.74612,5.77637,5.77637,0,0,0,2.56252.76131v-.01024h-.00006l.00006-.015v-1.93l-.13427.00148a.69639.69639,0,0,1-.13555-.06723c-.15651-.125-.341-.28068-.27657-.48158C15.51464,8.71524,15.75482,8.7837,15.93545,8.78774ZM13.99073,8.1229a.56105.56105,0,0,1-.54471.4002.57565.57565,0,0,1-.57287-.41017,1.31011,1.31011,0,0,1,.09392-1.12162c.02472-.0473.11473-.09028.0605-.14687-.04662-.04865-.11582.011-.17382.03018a1.45181,1.45181,0,0,0-.38517.26464l-.11211.12774a.17019.17019,0,0,1-.02412.05524c-.01968.04851-.02877.12316-.10221.08947-.02661-.01212.00256-.06872.04346-.0865l.01206-.06091a.2784.2784,0,0,1,.10941-.19942,1.061,1.061,0,0,1,1.39327-.301.51367.51367,0,0,1,.24982.31A1.62771,1.62771,0,0,1,13.99073,8.1229Z"/><path class="b" d="M14.03815,7.07392a.5148.5148,0,0,0-.24976-.31018,1.06127,1.06127,0,0,0-1.39331.30127.27815.27815,0,0,0-.10944.19922l-.012.061c-.04089.01783-.07013.07447-.04352.08655.07349.03357.08258-.04114.10224-.08948a.17225.17225,0,0,0,.02411-.05529l.11212-.12781a1.44835,1.44835,0,0,1,.38519-.26465c.058-.01916.1272-.07886.17383-.03.0542.05664-.03577.09949-.06049.14673a1.31017,1.31017,0,0,0-.094,1.12158A.57557.57557,0,0,0,13.446,8.523a.561.561,0,0,0,.54474-.40015A1.62766,1.62766,0,0,0,14.03815,7.07392Zm-.80268.39539c-.16-.00525-.19378-.10205-.19781-.21167-.00458-.12439.03772-.23255.17889-.249.12921-.01513.19275.069.19745.187A.2551.2551,0,0,1,13.23547,7.46931Z"/><path class="k" d="M13.23547,7.46934c-.16-.00524-.1938-.1021-.19783-.21174-.00457-.12437.03775-.2325.17893-.249.12919-.01506.19272.069.19744.18694A.25526.25526,0,0,1,13.23547,7.46934Z"/><path class="b" d="M15.44659,8.92707c-.06441.2009.12006.35653.27657.48158a.69639.69639,0,0,0,.13555.06723L15.993,9.4744V8.78693C15.95254,8.78693,15.48594,8.69525,15.44659,8.92707Z"/><path class="l" d="M23.8289-.00259a12.86516,12.86516,0,0,1-2.08249.93732,3.79766,3.79766,0,0,0-1.60413.88459,4.35053,4.35053,0,0,0-.80152,1.26631c.29914.29792-.06619.3234-.18452.45014l-.06091.06207a3.76738,3.76738,0,0,1-.31583.8932l.67649.42848c.33764-.62682.72623-1.23246.998-1.88663A2.14784,2.14784,0,0,1,21.699,1.8313a16.49389,16.49389,0,0,1,1.87254-.62752C23.74748.86424,23.738.46969,23.892.12364,23.866.084,23.95336-.01222,23.8289-.00259Z"/><path class="m" d="M17.52767,30.75236l.116,1.24438H17.833c.59916-.0077.66674-.42986.69636-.88681.00935-.14436.03749-.2875.057-.43119Z"/><path class="n" d="M17.14845,18.30019A3.89848,3.89848,0,0,0,18.793,18.978a1.27819,1.27819,0,0,0,1.07419-.34009,4.411,4.411,0,0,0,.73807-.97583,10.43352,10.43352,0,0,1-.07741,1.87094,3.01366,3.01366,0,0,1-.1049.9792c-.02553-.10753.05861-.28108-.04426-.31126-.09513-.028-.13468.15671-.207.24106a5.17345,5.17345,0,0,1-.48778.572,1.0294,1.0294,0,0,0-.33363.71415c-.149,1.27456-.31558,2.54751-.43469,3.825-.09406,1.00857-.21607,2.01431-.27677,3.02706-.03079.51392-.03376,1.02609-.04662,1.53907-.00256.10025-.03672.213.05854.29644a.42607.42607,0,0,1-.0644.263l-1.0587.07357c-.04528-.52011-.09453-1.0401-.13488-1.56062-.06778-.87477-.11049-1.752-.19922-2.62458q-.18231-1.792-.30682-3.588c-.03854-.56835-.0477-.57967-.605-.46986a1.87641,1.87641,0,0,1-.27474.01631V17.23624A8.8777,8.8777,0,0,0,17.14845,18.30019Z"/><path class="l" d="M16.007,11.423v4.92118l.04911.06819A7.8734,7.8734,0,0,0,18.192,18.2436a1.18429,1.18429,0,0,0,1.82911-.48077c.13549-.26276.2546-.51271.571-.58615A4.41546,4.41546,0,0,0,19.52152,14.575a3.03558,3.03558,0,0,0-1.08309-.79473.34878.34878,0,0,1-.23728-.34953,2.85428,2.85428,0,0,1,.91708-2.38392A4.75565,4.75565,0,0,0,20.474,7.4696a2.95684,2.95684,0,0,0-.2511-1.22376c-.08637.008-.18494-.02776-.24645.069a6.05018,6.05018,0,0,1,.05828,1.60078,3.29514,3.29514,0,0,1-1.46516,2.74612A5.77637,5.77637,0,0,1,16.007,11.423Zm3.63112,5.72562a.29024.29024,0,0,1,.22382-.29321.19382.19382,0,0,1,.20339.20064c.00324.137-.02762.27851-.20434.29751A.19251.19251,0,0,1,19.63814,17.14866Zm-.47673.54033a.08153.08153,0,0,1,.07714-.07816c.04077-.00161.08469.01051.08415.0636a.0905.0905,0,0,1-.09284.09608C19.17785,17.77307,19.16808,17.73,19.16141,17.689Zm-1.45552-.3083a.189.189,0,0,1,.19531-.20347.24374.24374,0,0,1,.28452.22247c.01381.13043-.11224.17665-.21034.18029A.24752.24752,0,0,1,17.70589,17.38069Z"/><path class="o" d="M23.57154,1.20378A16.49389,16.49389,0,0,0,21.699,1.8313a2.14784,2.14784,0,0,0-1.245,1.20159c-.27179.65417-.66038,1.25981-.99793,1.88664a.76.76,0,0,0,.45881.45084,5.4121,5.4121,0,0,0,2.11367-.90985,1.7328,1.7328,0,0,0,.45967-.46874A8.77075,8.77075,0,0,0,23.57154,1.20378Z"/><path class="p" d="M20.423,20.51227c-.02554-.10762.05863-.28112-.04422-.31136-.09513-.028-.13469.1567-.207.24106a5.15671,5.15671,0,0,1-.4878.572,1.02956,1.02956,0,0,0-.33361.71412c-.149,1.27461-.31557,2.54766-.43469,3.82511-.094,1.00849-.21608,2.01431-.27675,3.02708-.03078.51385-.03378,1.02608-.04665,1.53906-.00251.10022-.03672.213.05857.29648l.00589-.06843c-.00114-.14652-.00319-.293-.00326-.43953-.00034-.74714-.00016-.74714.75514-.74662.08484-.59937.17468-1.19808.25337-1.79826q.18726-1.42846.36179-2.85859c.07122-.58049.13977-1.16148.19716-1.74346C20.29472,22.012,20.35617,21.26187,20.423,20.51227Z"/><path class="f" d="M16.007,17.19689v.03935l-.00459-.00458A.14308.14308,0,0,0,16.007,17.19689Z"/><path class="l" d="M19.91489,5.37037a.76.76,0,0,1-.45881-.45084q-.33839-.21426-.67658-.42854a1.41568,1.41568,0,0,0-.44286-.20855,3.48749,3.48749,0,0,1,.5728,1.52525,2.46689,2.46689,0,0,0,.874.36973c.09686.016.13395.0849.193.13746.06155-.09669.16013-.06109.24649-.069a2.01768,2.01768,0,0,0-.28073-.62644C19.89572,5.53535,19.826,5.46472,19.91489,5.37037Z"/><path class="m" d="M19.40856,29.16121c-.7553-.00052-.75548-.00052-.75514.74662.00007.14651.00212.293.00326.43953.61819-.10324.61933-.10309.70351-.71941C19.38134,29.47306,19.3927,29.31683,19.40856,29.16121Z"/><polygon class="g" points="16.007 17.196 16.007 17.197 16.007 17.196 16.007 17.196"/><path class="o" d="M16.0562,16.41241A7.87206,7.87206,0,0,0,18.192,18.2436a1.18429,1.18429,0,0,0,1.82911-.48077c.13549-.26276.2546-.51271.571-.58615a.50722.50722,0,0,1,.01314.48536,4.411,4.411,0,0,1-.73807.97583A1.27819,1.27819,0,0,1,18.793,18.978a3.89848,3.89848,0,0,1-1.64457-.67777,8.8777,8.8777,0,0,1-1.14143-1.064v-.03935l.00013-.00094a1.60051,1.60051,0,0,0-.00013-.19929v-.65244Z"/><path class="h" d="M16.00715,17.19609H16.007v-.19943A1.60276,1.60276,0,0,1,16.00715,17.19609Z"/><path class="o" d="M17.25678,2.42607c.041.08327.02722.22907.18764.19821a2.54675,2.54675,0,0,1,1.89634.46123c.29913.29806-.06616.32353-.18454.45032a.1279.1279,0,0,0-.12228.05471,4.30439,4.30439,0,0,1-1.03114.24955c-.03948.00458-.07808.01617-.11716.02452a.67473.67473,0,0,0,.07236.09c.12491.11076.25224.21883.3787.32784a3.48809,3.48809,0,0,1,.57274,1.52519c.00835.154-.06165.20535-.21034.1691-.26309-.06414-.52746-.12315-.79123-.18446A3.5705,3.5705,0,0,1,16.007,3.99747V1.33086A2.05433,2.05433,0,0,1,17.25678,2.42607Z"/><path class="i" d="M19.03394,3.59064a.27153.27153,0,0,0,.06138.00717l.06092-.062A.1279.1279,0,0,0,19.03394,3.59064Z"/><path class="j" d="M16,9.852c-.00027-.01846.006-.03315.007-.0508v1.5966C16.00553,10.88258,16.00789,10.36717,16,9.852Z"/><polygon class="j" points="16.007 11.413 16.007 11.423 16.001 11.424 16.007 11.413"/><path class="o" d="M19.862,16.85557a.29.29,0,0,0-.22381.29306.19247.19247,0,0,0,.22283.205c.17673-.019.20759-.16041.20435-.29753A.19365.19365,0,0,0,19.862,16.85557Z"/><path class="o" d="M17.7059,17.38065a.24746.24746,0,0,0,.26946.19934c.09812-.00358.2242-.04986.21038-.1803a.24362.24362,0,0,0-.28457-.22236A.18885.18885,0,0,0,17.7059,17.38065Z"/><path class="o" d="M19.16134,17.689c.00676.04088.01653.084.06852.08151a.09049.09049,0,0,0,.09283-.09612c.00052-.05308-.04339-.06508-.0841-.06357A.08174.08174,0,0,0,19.16134,17.689Z"/><path class="l" d="M17.90781,5.79242c-.12478.0764-.24753.1559-.3744.22826A4.16388,4.16388,0,0,1,16.007,6.435V3.99747A3.5713,3.5713,0,0,0,17.90781,5.79242Z"/><path class="n" d="M16.55341,8.92054c.06441.20091-.12006.35654-.27657.48158a.69586.69586,0,0,1-.13555.06724L16.007,9.46788v1.93c0,.005.00006.00984.00006.015H16.007V11.423a5.77637,5.77637,0,0,0,2.56252-.76131A3.29514,3.29514,0,0,0,20.0347,7.91561a6.05018,6.05018,0,0,0-.05828-1.60078c-.05908-.05255-.09614-.12154-.193-.13744a2.46728,2.46728,0,0,1-.874-.36974c.00835.154-.06165.20535-.21034.1691-.26309-.06414-.52746-.12315-.79129-.18433-.12478.0764-.24753.1559-.3744.22826A4.16388,4.16388,0,0,1,16.007,6.435V8.78041l.05753.00081C16.24518,8.77717,16.48536,8.70872,16.55341,8.92054Zm1.40843-1.85316a.51368.51368,0,0,1,.24982-.31,1.061,1.061,0,0,1,1.39327.301.2784.2784,0,0,1,.10941.19942l.01206.06091c.0409.01778.07007.07438.04346.0865-.07344.03369-.08253-.041-.10221-.08947a.17028.17028,0,0,1-.02412-.05524l-.11211-.12774a1.45181,1.45181,0,0,0-.38517-.26464c-.058-.01914-.1272-.07883-.17382-.03019-.05423.0566.03578.09958.0605.14688a1.31011,1.31011,0,0,1,.09392,1.12162.57566.57566,0,0,1-.57287.41017.56105.56105,0,0,1-.54471-.4002A1.62774,1.62774,0,0,1,17.96184,7.06738Z"/><path class="m" d="M19.72638,7.31867l-.012-.06091a.27862.27862,0,0,0-.10944-.19934,1.06111,1.06111,0,0,0-1.39331-.30115.51447.51447,0,0,0-.24976.31018,1.6277,1.6277,0,0,0,.04743,1.049.561.561,0,0,0,.54474.40015.57571.57571,0,0,0,.57287-.41016,1.30987,1.30987,0,0,0-.094-1.12146c-.02472-.04736-.11469-.09033-.06049-.147.04663-.04871.11585.011.17383.03a1.45156,1.45156,0,0,1,.38519.26477l.11212.12781a.17162.17162,0,0,0,.02411.05517c.01966.04834.02875.12305.10224.0896C19.79651,7.39313,19.76727,7.33649,19.72638,7.31867Zm-.96185.14405A.25511.25511,0,0,1,18.586,7.189c.0047-.11792.06824-.202.19745-.187.14117.0166.18347.12476.17889.249C18.95831,7.36066,18.9245,7.45759,18.76453,7.46272Z"/><path class="k" d="M18.76453,7.46281c.16-.00524.1938-.10209.19783-.21173.00457-.12437-.03775-.23251-.17893-.249-.12919-.01507-.19272.069-.19744.18694A.25525.25525,0,0,0,18.76453,7.46281Z"/><path class="m" d="M16.55341,8.92054c.06441.20091-.12006.35654-.27657.48158a.69586.69586,0,0,1-.13555.06724L16.007,9.46788V8.78041C16.04746,8.78041,16.51406,8.68873,16.55341,8.92054Z"/></svg>