<?xml version="1.0" encoding="utf-8"?>
<!-- Generator: Adobe Illustrator 23.0.6, SVG Export Plug-In . SVG Version: 6.00 Build 0)  -->
<svg version="1.1" xmlns="http://www.w3.org/2000/svg" xmlns:xlink="http://www.w3.org/1999/xlink" x="0px" y="0px" width="32px"
	 height="32px" viewBox="0 0 32 32" enable-background="new 0 0 32 32" xml:space="preserve">
<g id="labels">
	<g>
	</g>
</g>
<g id="icons">
	<g>
		<g>
			<path fill="#F5DEB9" d="M24,27c0-4.418-3.582-11-8-11s-8,6.582-8,11s3.582,5,8,5S24,31.418,24,27z"/>
			<path fill="#FCE8CC" d="M16,16c-4.418,0-8,6.582-8,11s3.582,5,8,5V16z"/>
			<path fill="#F5DEB9" d="M8,27c0-9,5-10,5-19c0,0,1.425,0,3,0c1.063,0,2.194,0,3,0c0,9,5,10,5,19h-8H8z"/>
			<path fill="#FCE8CC" d="M16,27H8c0-9,5-10,5-19c0,0,1.425,0,3,0L16,27z"/>
			<path fill="#EFD4A7" d="M12.724,11.349c-0.327,1.918-0.915,3.421-1.572,4.812C12.411,16.68,14.117,17,16,17
				s3.589-0.32,4.848-0.839c-0.657-1.391-1.245-2.893-1.572-4.812C18.298,11.127,17.184,11,16,11S13.702,11.127,12.724,11.349z"/>
			<path fill="#F5DEB9" d="M12.724,11.349c-0.327,1.918-0.915,3.421-1.572,4.812C12.411,16.68,14.117,17,16,17v-6
				C14.816,11,13.702,11.127,12.724,11.349z"/>
			<path fill="#635C5C" d="M13,24L13,24c-0.552,0-1-0.448-1-1v-3c0-0.552,0.448-1,1-1h0c0.552,0,1,0.448,1,1v3
				C14,23.552,13.552,24,13,24z"/>
			<path fill="#5A5353" d="M19,24L19,24c-0.552,0-1-0.448-1-1v-3c0-0.552,0.448-1,1-1h0c0.552,0,1,0.448,1,1v3
				C20,23.552,19.552,24,19,24z"/>
			<path fill="#FF7898" d="M19,26c0-2-1-3-3-3s-3,1-3,3c0,1.105,1.343,2,3,2S19,27.105,19,26z"/>
			<path fill="#FF87A4" d="M16,23c-2,0-3,1-3,3c0,1.105,1.343,2,3,2V23z"/>
			<circle fill="#5A5353" cx="16" cy="25" r="1"/>
			<path fill="#635C5C" d="M16,24c-0.552,0-1,0.448-1,1s0.448,1,1,1V24z"/>
			<path fill="#FCE8CC" d="M8.187,25.934c-0.891,1.356-2.162,1.212-2.748,0.626s-0.828-2.474,0.626-3.248
				C7.156,22.733,7.675,22.555,9,21c0.415-0.487,1.116,0.116,1.5,0.5C11.561,22.561,9.091,24.558,8.187,25.934z"/>
			<path fill="#F5DEB9" d="M23.794,25.934c0.891,1.356,2.162,1.212,2.748,0.626c0.586-0.586,0.828-2.474-0.626-3.248
				c-1.091-0.581-1.609-0.758-2.934-2.313c-0.415-0.487-1.116,0.116-1.5,0.5C20.42,22.561,22.889,24.558,23.794,25.934z"/>
		</g>
		<g>
			<path fill="#F5DEB9" d="M27.996,13c0.564,0,1.03-0.469,1.003-1.032C28.638,4.572,23.65,0,16,0S3.362,4.572,3.001,11.968
				C2.974,12.531,3.44,13,4.004,13H16H27.996z"/>
		</g>
		<g>
			<path fill="#FCE8CC" d="M16,0C8.35,0,3.362,4.572,3.001,11.968C2.974,12.531,3.44,13,4.004,13H16V0z"/>
		</g>
		<path fill="#5A5353" d="M28.999,12H16H3.001c-0.027,0.563,0.439,1,1.003,1H16h11.996C28.56,13,29.026,12.563,28.999,12z"/>
		<path fill="#635C5C" d="M16,12H3.001c-0.027,0.563,0.439,1,1.003,1H16V12z"/>
		<g>
			<path fill="#5A5353" d="M16,4c3.341,0,6.414-0.581,8.291-1.562c-0.313-0.229-0.64-0.442-0.98-0.641C21.547,2.557,18.892,3,16,3
				c-2.893,0-5.548-0.444-7.308-1.204c-0.34,0.198-0.667,0.412-0.98,0.64C9.585,3.418,12.657,4,16,4z"/>
			<path fill="#635C5C" d="M16,3c-2.893,0-5.548-0.444-7.308-1.204c-0.34,0.198-0.667,0.412-0.98,0.64C9.585,3.418,12.657,4,16,4V3z
				"/>
		</g>
	</g>
</g>
</svg>
