<?xml version="1.0" encoding="utf-8"?>
<!-- Generator: Adobe Illustrator 23.0.6, SVG Export Plug-In . SVG Version: 6.00 Build 0)  -->
<svg version="1.1" xmlns="http://www.w3.org/2000/svg" xmlns:xlink="http://www.w3.org/1999/xlink" x="0px" y="0px" width="32px"
	 height="32px" viewBox="0 0 32 32" enable-background="new 0 0 32 32" xml:space="preserve">
<g id="labels">
	<g>
	</g>
</g>
<g id="icons">
	<g>
		<g>
			<path fill="#FDE2E6" d="M19.718,2.026c0.103,0.068,0.231-0.034,0.188-0.15C19.337,0.364,17,0.174,17,2.727
				c0,1.353,0,2.981,0,2.981h1c0,0,0-0.47,0-0.981C18,2.354,18.139,0.978,19.718,2.026z"/>
			<path fill="#FDECEF" d="M12.196,2.026c-0.103,0.068-0.231-0.034-0.188-0.15c0.568-1.512,2.905-1.702,2.905,0.851
				c0,1.353,0,2.981,0,2.981h-1c0,0,0-0.47,0-0.981C13.914,2.354,13.775,0.978,12.196,2.026z"/>
			<g>
				<path fill="#FEF5F7" d="M13.193,1.527c-0.102,0.068-0.229-0.032-0.188-0.148c0.562-1.579,2.909-2.212,2.909,0.347
					c0,1.353,0,2.981,0,2.981h-1c0,0,0-0.47,0-0.981C14.914,1.793,14.775,0.471,13.193,1.527z"/>
			</g>
			<g>
				<path fill="#FDECEF" d="M18.721,1.527c0.102,0.068,0.229-0.032,0.188-0.148C18.348-0.199,16-0.832,16,1.727
					c0,1.353,0,2.981,0,2.981h1c0,0,0-0.47,0-0.981C17,1.793,17.14,0.471,18.721,1.527z"/>
			</g>
		</g>
		<g>
			<path fill="#FDECEF" d="M32,22c0,1.26-0.228,3-2,3c-1,0-1-1-2-1c-0.937,0-1,1-2,1s-2-1-2-2s-3-3-3-3S24,22,32,22z"/>
			<path fill="#FF97AF" d="M27.326,22.014c0.323,0,0.633-0.004,0.928-0.007L29,22v-1l-0.758,0.007
				c-2.961,0.031-7.435,0.093-11.888-4.36l-0.707,0.707C19.949,21.656,24.232,22.014,27.326,22.014z"/>
			<path fill="#FF97AF" d="M27,21c1,0,2,0,3,0s2,0.028,2,0.958C32,23.353,31,24,30,24s-1-1-2-1s-1,1-2,1s-0.844-2.089-2.007-2.228
				c-1.268-0.152-1.767-0.884-1.767-0.884L27,21z"/>
		</g>
		<path fill="#FDECEF" d="M0,22c0,1.26,0.228,3,2,3c1,0,1-1,2-1c0.937,0,1,1,2,1s2-1,2-2s3-3,3-3S8,22,0,22z"/>
		<path fill="#FFB0C2" d="M4.674,22.014c-0.323,0-0.633-0.004-0.928-0.007L3,22v-1l0.758,0.007c2.961,0.031,7.435,0.093,11.888-4.36
			l0.707,0.707C12.051,21.656,7.768,22.014,4.674,22.014z"/>
		<path fill="#FDECEF" d="M17,25h-0.5h-1H15c0,0-2,6,0,6c0.301,0,0.557-0.363,0.768-0.926c0.08-0.213,0.384-0.213,0.464,0
			C16.443,30.637,16.699,31,17,31C19,31,17,25,17,25z"/>
		<g>
			<path fill="#FEF5F7" d="M15.5,25H15c0,0-2,6,0,6c0.301,0,0.557-0.364,0.768-0.926c0.04-0.107,0.136-0.16,0.232-0.16V25H15.5z"/>
		</g>
		<path fill="#FDE2E6" d="M18,21c1,5,9.994,4.998,9,8c-0.993,3-7-2-9-4C18,24,18,21,18,21z"/>
		<path fill="#FDE2E6" d="M18,26c0,2,4.591,6.409,6,5c1-1-3-5-3-5H18z"/>
		<path fill="#FDECEF" d="M14,21c-1,5-9.994,4.998-9,8c0.993,3,7-2,9-4C14,24,14,21,14,21z"/>
		<path fill="#FDECEF" d="M14,26c0,2-4.591,6.409-6,5c-1-1,3-5,3-5H14z"/>
		<path fill="#FDECEF" d="M17,26c0,3,2.007,6,4,6c1.937,0-1-6-1-6H17z"/>
		<path fill="#FEF5F7" d="M15,26c0,3-2.007,6-4,6c-1.937,0,1-6,1-6H15z"/>
		<path fill="#FF97AF" d="M20,25c-2.286-2.185-2-6-2-6h-2h-2c0,0,0.286,3.815-2,6c-1.635,1.563-1,4,0.5,4
			c1.393,0,2.329-0.899,3.281-2.596c0.096-0.172,0.342-0.172,0.438,0C17.171,28.101,18.107,29,19.5,29C21,29,21.635,26.563,20,25z"
			/>
		<g>
			<path fill="#FFB0C2" d="M14,19c0,0,0.286,3.815-2,6c-1.635,1.563-1,4,0.5,4c1.393,0,2.329-0.899,3.281-2.596
				c0.048-0.086,0.134-0.129,0.219-0.129V19H14z"/>
		</g>
		<path fill="none" d="M20,25c-2.286-2.185-2-6-2-6h-2h-2c0,0,0.286,3.815-2,6c-1.635,1.563-1,4,0.5,4
			c1.393,0,2.329-0.899,3.281-2.596c0.096-0.172,0.342-0.172,0.438,0C17.171,28.101,18.107,29,19.5,29C21,29,21.635,26.563,20,25z"
			/>
		<path fill="#FFB0C2" d="M5,21c-1,0-2,0-3,0s-2,0.028-2,0.958C0,23.353,1,24,2,24s1-1,2-1s1,1,2,1s0.844-2.089,2.007-2.228
			c1.268-0.152,1.767-0.884,1.767-0.884L5,21z"/>
		<path fill="#FF97AF" d="M27,13c0-4.971-4.925-10.5-11-10.5S5,8.029,5,13s4.925,7.5,11,7.5S27,17.971,27,13z"/>
		<path fill="#FFB0C2" d="M16,2.5C9.925,2.5,5,8.029,5,13s4.925,7.5,11,7.5V2.5z"/>
		<g>
			<ellipse fill="#D64F45" cx="11.5" cy="9" rx="1.5" ry="2"/>
			<path fill="#4390BF" d="M12,9c0,1-0.224,1-0.5,1S11,10,11,9s0.224-0.5,0.5-0.5S12,8,12,9z"/>
			<circle fill="#FFFFFF" cx="11.5" cy="8.5" r="0.5"/>
		</g>
		<g>
			<ellipse fill="#D1473D" cx="20.5" cy="9" rx="1.5" ry="2"/>
			<path fill="#3E88B3" d="M21,9c0,1-0.224,1-0.5,1S20,10,20,9s0.224-0.5,0.5-0.5S21,8,21,9z"/>
			<circle fill="#EDEEEE" cx="20.5" cy="8.5" r="0.5"/>
		</g>
		<path fill="#FEF5F7" d="M11.132,4.414c0.694,0.694,1.772,0.771,2.551,0.231c0.132-0.091,0.301-0.06,0.371,0.084
			C14.332,5.301,15.175,6,16,6V2.5c-1.889,0-3.666,0.536-5.219,1.422C10.872,4.098,10.984,4.266,11.132,4.414z"/>
		<path fill="#FDECEF" d="M17.946,4.73c0.07-0.144,0.239-0.176,0.371-0.084c0.779,0.54,1.857,0.463,2.551-0.231
			c0.148-0.148,0.26-0.316,0.352-0.492C19.666,3.036,17.889,2.5,16,2.5V6C16.825,6,17.668,5.301,17.946,4.73z"/>
		<circle fill="#FDECEF" cx="16" cy="20" r="4"/>
		<path fill="#FEF5F7" d="M16,16c-2.209,0-4,1-4,4s1.791,4,4,4V16z"/>
		<circle fill="#FEF5F7" cx="10" cy="19" r="4"/>
		<circle fill="#FEF5F7" cx="5.5" cy="16.5" r="2.5"/>
		<circle fill="#FDECEF" cx="26.5" cy="16.5" r="2.5"/>
		<circle fill="#FDECEF" cx="22" cy="19" r="4"/>
		<path fill="#D1473D" d="M18,12c0,1.105-0.895,2-2,2s-2-0.895-2-2c0-0.972,0.774-1.782,1.642-0.94
			c0.101,0.098,0.23,0.147,0.358,0.147c0.129,0,0.257-0.049,0.358-0.147C17.226,10.218,18,11.028,18,12z"/>
		<path fill="#D64F45" d="M16,14c-1.105,0-2-0.895-2-2c0-0.972,0.774-1.782,1.642-0.94c0.101,0.098,0.23,0.147,0.358,0.147L16,14z"
			/>
	</g>
</g>
</svg>
