<?xml version="1.0" encoding="utf-8"?>
<!-- Generator: Adobe Illustrator 23.0.6, SVG Export Plug-In . SVG Version: 6.00 Build 0)  -->
<svg version="1.1" xmlns="http://www.w3.org/2000/svg" xmlns:xlink="http://www.w3.org/1999/xlink" x="0px" y="0px" width="32px"
	 height="32px" viewBox="0 0 32 32" enable-background="new 0 0 32 32" xml:space="preserve">
<g id="labels">
	<g>
	</g>
</g>
<g id="icons">
	<g>
		<path fill="#807A7A" d="M31.196,18.839l-2.67-0.534c-0.16-0.444-0.354-0.882-0.598-1.305s-0.526-0.81-0.831-1.171l0.872-2.579
			c0.153-0.452-0.034-0.948-0.447-1.187l-2.044-1.18c-0.413-0.238-0.936-0.152-1.251,0.206l-1.796,2.044
			c-0.936-0.171-1.904-0.171-2.859,0.003l-1.798-2.047c-0.315-0.358-0.838-0.444-1.251-0.206l-2.044,1.18
			c-0.413,0.238-0.6,0.735-0.447,1.187l0.873,2.581c-0.628,0.74-1.111,1.578-1.432,2.475l-2.668,0.534
			C10.336,18.933,10,19.343,10,19.82v2.36c0,0.477,0.336,0.887,0.804,0.981l2.67,0.534c0.16,0.444,0.354,0.882,0.598,1.305
			s0.526,0.81,0.831,1.171l-0.872,2.579c-0.153,0.451,0.034,0.948,0.447,1.186l2.044,1.18c0.413,0.238,0.936,0.152,1.251-0.206
			l1.796-2.044c0.936,0.171,1.904,0.171,2.859-0.003l1.798,2.046c0.315,0.358,0.838,0.444,1.251,0.206l2.044-1.18
			c0.413-0.238,0.6-0.735,0.447-1.186l-0.873-2.581c0.628-0.74,1.111-1.578,1.432-2.475l2.668-0.534
			C31.664,23.067,32,22.657,32,22.18v-2.36C32,19.343,31.664,18.933,31.196,18.839z"/>
		<path fill="#746E6E" d="M31.196,18.839l-2.67-0.534c-0.16-0.444-0.354-0.882-0.598-1.305s-0.526-0.81-0.831-1.171l0.872-2.579
			c0.153-0.452-0.034-0.948-0.447-1.187l-2.044-1.18c-0.413-0.238-0.936-0.152-1.251,0.206l-1.796,2.044
			c-0.471-0.086-0.95-0.128-1.43-0.127v15.988c0.476-0.001,0.953-0.044,1.428-0.13l1.798,2.046c0.315,0.358,0.838,0.444,1.251,0.206
			l2.044-1.18c0.413-0.238,0.6-0.735,0.447-1.186l-0.873-2.581c0.628-0.74,1.111-1.578,1.432-2.475l2.668-0.534
			C31.664,23.067,32,22.657,32,22.18v-2.36C32,19.343,31.664,18.933,31.196,18.839z"/>
		<path fill="#4F4949" d="M22,14.206v-0.242c0-0.276-0.224-0.5-0.5-0.5h-1c-0.276,0-0.5,0.224-0.5,0.5v0.242
			c-3.317,0.487-5.875,3.343-5.875,6.794c0,3.791,3.084,6.875,6.875,6.875s6.875-3.084,6.875-6.875
			C27.875,17.55,25.317,14.693,22,14.206z M21,27.125c-3.377,0-6.125-2.748-6.125-6.125c0-3.036,2.223-5.556,5.125-6.036l0,0
			c0,0.276,0.224,0.5,0.5,0.5h1c0.276,0,0.5-0.224,0.5-0.5l0,0c2.902,0.48,5.125,3,5.125,6.036
			C27.125,24.377,24.377,27.125,21,27.125z"/>
		<path fill="#413B3B" d="M27.875,21c0-3.45-2.558-6.307-5.875-6.794v-0.242c0-0.276-0.224-0.5-0.5-0.5H21v0.661v0.75v0.589h0.5
			c0.276,0,0.5-0.224,0.5-0.5l0,0c2.902,0.48,5.125,3,5.125,6.036c0,0.8-0.158,1.562-0.438,2.263
			c-0.521,0.035-0.937,0.457-0.937,0.987c0,0.165,0.049,0.313,0.12,0.45c-1.12,1.47-2.883,2.425-4.87,2.425v0.75
			c2.214,0,4.182-1.057,5.44-2.688c0.099,0.033,0.2,0.062,0.31,0.062c0.552,0,1-0.448,1-1c0-0.302-0.141-0.564-0.353-0.748
			C27.702,22.726,27.875,21.884,27.875,21z"/>
		<path fill="#C8CCCB" d="M25.815,19.727c-0.111-0.419-0.257-0.833-0.485-1.227s-0.513-0.727-0.82-1.033l0.684-1.623
			c0.098-0.232,0.008-0.501-0.211-0.627l-0.968-0.559c-0.218-0.126-0.497-0.07-0.649,0.131l-1.051,1.389
			c-0.846-0.231-1.75-0.223-2.622,0.014l-1.062-1.403c-0.152-0.201-0.43-0.257-0.649-0.131l-0.968,0.559
			c-0.218,0.126-0.309,0.395-0.211,0.627l0.684,1.621c-0.641,0.637-1.1,1.415-1.323,2.264l-1.729,0.216
			C14.188,19.977,14,20.189,14,20.441l0,1.117c0,0.252,0.188,0.465,0.438,0.496l1.747,0.219c0.111,0.419,0.257,0.833,0.485,1.227
			s0.513,0.727,0.82,1.033l-0.685,1.622c-0.098,0.232-0.008,0.501,0.211,0.627l0.968,0.559c0.218,0.126,0.497,0.07,0.649-0.131
			l1.051-1.389c0.846,0.231,1.75,0.223,2.622-0.014l1.062,1.403c0.152,0.201,0.43,0.257,0.649,0.131l0.968-0.559
			c0.218-0.126,0.309-0.395,0.211-0.627l-0.684-1.621c0.641-0.637,1.1-1.415,1.323-2.264l1.729-0.216
			C27.812,22.023,28,21.811,28,21.559l0-1.117c0-0.252-0.188-0.465-0.438-0.496L25.815,19.727z"/>
		<path fill="#B9BFBE" d="M27.562,19.945l-1.747-0.218c-0.111-0.419-0.257-0.833-0.484-1.227c-0.227-0.394-0.513-0.727-0.82-1.033
			l0.684-1.623c0.098-0.232,0.008-0.501-0.211-0.627l-0.968-0.559c-0.218-0.126-0.496-0.07-0.649,0.131l-1.051,1.389
			c-0.428-0.117-0.87-0.172-1.316-0.167v9.978c0.436-0.004,0.874-0.064,1.306-0.181l1.062,1.403c0.152,0.201,0.43,0.257,0.649,0.131
			l0.968-0.559c0.218-0.126,0.309-0.395,0.211-0.627l-0.684-1.621c0.641-0.637,1.1-1.415,1.323-2.264l1.729-0.216
			C27.812,22.023,28,21.811,28,21.559v-1.117C28,20.189,27.812,19.977,27.562,19.945z"/>
		<circle fill="#58B7AE" cx="21" cy="21" r="3"/>
		<path fill="#4EAFA3" d="M24,21c0-1.657-1.343-3-3-3v6C22.657,24,24,22.657,24,21z"/>
		<path fill="#DADDDC" d="M0.757,11.689l2.657,0.664c0.287,0.803,0.712,1.539,1.254,2.176l-0.753,2.63
			c-0.126,0.441,0.064,0.912,0.461,1.141l1.246,0.719c0.397,0.229,0.9,0.159,1.219-0.171l1.903-1.968C9.152,16.955,9.571,17,10,17
			c0.429,0,0.848-0.045,1.256-0.119l1.903,1.968c0.319,0.33,0.821,0.4,1.219,0.171l1.246-0.719c0.397-0.229,0.588-0.7,0.461-1.141
			l-0.753-2.631c0.541-0.637,0.967-1.372,1.254-2.175l2.657-0.664C19.688,11.578,20,11.178,20,10.719V9.281
			c0-0.459-0.312-0.859-0.757-0.97l-2.657-0.664c-0.287-0.803-0.712-1.538-1.254-2.175l0.753-2.63
			c0.126-0.441-0.064-0.912-0.461-1.141L14.377,0.98c-0.397-0.229-0.9-0.159-1.219,0.171l-1.903,1.968C10.848,3.045,10.429,3,10,3
			C9.57,3,9.152,3.045,8.744,3.119L6.842,1.151c-0.319-0.33-0.821-0.4-1.219-0.171L4.377,1.699C3.98,1.929,3.789,2.399,3.916,2.84
			l0.752,2.63C4.127,6.108,3.701,6.843,3.414,7.646L0.757,8.311C0.312,8.422,0,8.822,0,9.281l0,1.438
			C0,11.178,0.312,11.578,0.757,11.689z"/>
		<path fill="#D1D4D4" d="M0.757,11.689l2.657,0.664c0.287,0.803,0.712,1.539,1.254,2.176l-0.753,2.63
			c-0.126,0.441,0.064,0.912,0.461,1.141l1.246,0.719c0.397,0.229,0.9,0.159,1.219-0.171l1.903-1.968C9.152,16.955,9.571,17,10,17
			c0,0,0,0,0,0V3c0,0,0,0,0,0C9.57,3,9.152,3.045,8.744,3.119L6.842,1.151c-0.319-0.33-0.821-0.4-1.219-0.171L4.377,1.699
			C3.98,1.929,3.789,2.399,3.916,2.84l0.752,2.63C4.127,6.108,3.701,6.843,3.414,7.646L0.757,8.311C0.312,8.422,0,8.822,0,9.281
			l0,1.438C0,11.178,0.312,11.578,0.757,11.689z"/>
		<circle fill="#807A7A" cx="10" cy="10" r="6"/>
		<path fill="#746E6E" d="M10,16C10,16,10,16,10,16l0-12c0,0,0,0,0,0c-3.314,0-6,2.686-6,6S6.686,16,10,16z"/>
		<circle fill="#434C4B" cx="12" cy="6.536" r="1"/>
		<circle fill="#FFFFFF" cx="11.415" cy="12.549" r="1.5"/>
		<circle fill="#434C4B" cx="11.415" cy="12.549" r="0.5"/>
		<path fill="#F7F7F7" d="M4.788,9.674l0.129,0.483c0.036,0.133,0.173,0.213,0.306,0.177l0.642-0.172l0.172,0.642
			c0.036,0.133,0.173,0.213,0.306,0.177l0.483-0.129c0.133-0.036,0.213-0.173,0.177-0.306L6.831,9.903l0.642-0.172
			C7.606,9.695,7.685,9.558,7.65,9.425L7.52,8.942C7.485,8.808,7.347,8.729,7.214,8.765L6.572,8.937L6.401,8.295
			C6.365,8.162,6.228,8.083,6.094,8.118L5.611,8.248C5.478,8.284,5.399,8.421,5.435,8.554l0.172,0.642L4.965,9.367
			C4.832,9.403,4.752,9.54,4.788,9.674z"/>
		<circle fill="#67BFB5" cx="10" cy="10" r="2"/>
		<path fill="#58B7AE" d="M8,10c0,1.105,0.895,2,2,2V8C8.895,8,8,8.895,8,10z"/>
		<path fill="#FFFFFF" d="M15.669,25.9l-0.483-0.129c-0.133-0.036-0.213-0.173-0.177-0.306l0.324-1.207l-1.207-0.324
			c-0.133-0.036-0.213-0.173-0.177-0.306l0.129-0.483c0.036-0.133,0.173-0.213,0.306-0.177l1.932,0.518
			c0.133,0.036,0.213,0.173,0.177,0.306l-0.518,1.932C15.939,25.856,15.802,25.935,15.669,25.9z"/>
	</g>
	<path fill="#D84459" d="M21,23c-1.657,0-3,0.448-3,1v4c0,0.552,1.343,1,3,1s3-0.448,3-1v-4C24,23.448,22.657,23,21,23z"/>
	<path fill="#C84054" d="M24,28v-4c0-0.552-1.343-1-3-1v6C22.657,29,24,28.552,24,28z"/>
	<path fill="#DADDDC" d="M30,28H2c-0.552,0-1-0.448-1-1v-2c0-0.552,0.448-1,1-1h28c0.552,0,1,0.448,1,1v2C31,27.552,30.552,28,30,28
		z"/>
	<path fill="#D1D4D4" d="M30,24H16v4h14c0.552,0,1-0.448,1-1v-2C31,24.448,30.552,24,30,24z"/>
	<circle fill="#EDEEEE" cx="16" cy="26" r="2"/>
	<path fill="#E3E5E5" d="M31.57,26.386c-0.679,0.568-2.066,1.566-3.469,1.613c-0.974,0.032-1.891-0.662-2.066-1.621
		C25.802,25.107,26.772,24,28,24c1.441,0,2.883,1.039,3.575,1.619C31.816,25.82,31.811,26.184,31.57,26.386z"/>
	<path fill="#EDEEEE" d="M0.43,26.386c0.679,0.568,2.066,1.566,3.469,1.613c0.974,0.032,1.891-0.662,2.066-1.621
		C6.198,25.107,5.228,24,4,24c-1.441,0-2.883,1.039-3.575,1.619C0.184,25.82,0.189,26.184,0.43,26.386z"/>
	<path fill="#E3E5E5" d="M18,26c0-1.105-0.895-2-2-2v4C17.105,28,18,27.104,18,26z"/>
</g>
</svg>
