<svg xmlns="http://www.w3.org/2000/svg" viewBox="0 0 32 32"><defs><style>.a{fill:#d2e6f3;}.b{fill:#c1ddee;}.c{fill:#9fc9e4;}.d{fill:#e2eff7;}.e{fill:#b0d3ea;}.f{fill:#ffe28a;}.g{fill:#ffd96c;}.h{fill:#cce3e3;}.i{fill:#ff5f7e;}.j{fill:#211915;}.k{fill:#9b9f9f;}.l{fill:#787c7c;}.m{fill:#deabb6;}.n{fill:#db9eaa;}.o{fill:#e0b8c1;}.p{fill:#e9e7ea;}.q{fill:#d47688;}.r{fill:#db9aa7;}.s{fill:#e8e0e4;}.t{fill:#e6d9de;}.u{fill:#f9f9f9;}</style></defs><title>602-tynamo</title><path class="a" d="M13.95941,9.864a33.53964,33.53964,0,0,0-5.22833,1.36621,6.42721,6.42721,0,0,0,1.513.21009,20.71923,20.71923,0,0,1,3.49139.76758c.76923.22595,1.52033.49646,2.26453.78381V9.682C15.31854,9.728,14.639,9.79175,13.95941,9.864Z"/><path class="b" d="M20.47772,15.09912l-.00079-.00244a.15768.15768,0,0,1,.15484.07947l.078.0686c.02588-.042.05011-.03674.07312.00256a7.74216,7.74216,0,0,1,.9859.53321l-.00055.07861.07989.06616c.027-.04529.05078-.03686.07239.00464a.594.594,0,0,0,.06751-.00012l.08227.075q.03663.00239.07324.00147l.07911.07446c.02435.0011.04876.00159.07318.0011l.07873.0747q.037.00129.074.001l.07745.07446q.03744.00111.075.00135l.0766.07422c.05023.03356.14282.06774.14246.1007-.001.08667-.08863.04651-.1399.04944-.15838.00916-.31726.01135-.47589.01624a5.30474,5.30474,0,0,0,.92456.06445,6.0634,6.0634,0,0,0,3.666-.0481,9.1001,9.1001,0,0,1,2.00537-.32177,4.52969,4.52969,0,0,1,3.19983,1.12719,2.09715,2.09715,0,0,0-1.79987-1.96,3.7462,3.7462,0,0,1-2.76642-1.74463,2.29287,2.29287,0,0,0-2.45422-1.23828,3.52279,3.52279,0,0,1-1.79053-.36572A11.86673,11.86673,0,0,1,21.341,10.89478,7.29326,7.29326,0,0,0,17.18689,9.6272c-.39795-.001-.79224.0282-1.18689.05481V12.9917c1.42706.551,2.81787,1.19067,4.18665,1.88257C20.29675,14.92993,20.42761,14.96362,20.47772,15.09912Z"/><path class="a" d="M13.6264,20.93921c-1.01324.20044-2.03875.25879-3.06.37109-.0871.00952-.1789-.0061-.24164.07617.27759.07642.5545.1554.83282.229a27.60515,27.60515,0,0,0,2.80188.53125c.68116.03833,1.36151.09717,2.04053.15515v-1.983A22.77362,22.77362,0,0,1,13.6264,20.93921Z"/><path class="b" d="M19.30347,22.27808a1.992,1.992,0,0,0,1.16595-.38721c.3327-.28809.66589-.57593,1.00812-.85254A3.67925,3.67925,0,0,1,24.29572,20.2a13.9993,13.9993,0,0,0,2.01355.14014,3.151,3.151,0,0,0,2.51159-1.398,3.30147,3.30147,0,0,1,2.88043-1.57581,3.8115,3.8115,0,0,0-2.21209-.7539,13.36877,13.36877,0,0,0-3.73175.4248,4.24682,4.24682,0,0,1-2.76453-.2716l-.24182.08789c.00012.01782.00079.03552.00213.05322a.43243.43243,0,0,1-.22833.2345q-.53035.303-1.06067.60632c-.13983.29663-.46124.34839-.70379.48877A23.42285,23.42285,0,0,1,16,20.31885v1.983c.08368.0072.16785.012.2514.01916A16.48039,16.48039,0,0,0,19.30347,22.27808Z"/><path class="c" d="M26.79468,16.49023a6.0634,6.0634,0,0,1-3.666.0481c.04493.12976-.09228.15063-.1358.2273a4.24682,4.24682,0,0,0,2.76453.2716,13.36877,13.36877,0,0,1,3.73175-.4248,3.8115,3.8115,0,0,1,2.21209.7539c.10328-.00769.21894.03675.29859-.07068a4.52969,4.52969,0,0,0-3.19983-1.12719A9.1001,9.1001,0,0,0,26.79468,16.49023Z"/><path class="d" d="M8.05082,21.23311a19.81123,19.81123,0,0,1-5.68724-1.226A3.57659,3.57659,0,0,1,.00348,16.6283,4.52809,4.52809,0,0,1,3.13,12.1478a12.14125,12.14125,0,0,1,3.74948-.77769c.38873-.026.77631-.06537,1.16661-.06491a.36125.36125,0,0,0,.11653.22946,7.39483,7.39483,0,0,1,1.35756,2.546,7.84909,7.84909,0,0,1,.20611,3.02352,5.59938,5.59938,0,0,1-1.72871,3.89748C7.80727,21.17229,7.99808,21.16581,8.05082,21.23311ZM2.965,18.50258l.03063.01841-.033-.01621-.06947-.15142-.0704-.08361c-.05866-.12383-.11367-.24955-.17655-.37119a2.82915,2.82915,0,0,1-.038-2.69824c.06665-.13383.12906-.26977.19343-.40473a.1451.1451,0,0,0,.08671-.1532l.01808-.02984L2.89,14.64414a.20891.20891,0,0,0-.14761.1526,1.65041,1.65041,0,0,1-2.119.13946c-.02561-.05227-.06523-.116-.12161-.08984-.05315.02463-.02222.07486.02821.09685a4.63365,4.63365,0,0,1,.29959,3.25491c-.07664.063-.06409.14976-.06207.23368l-.04852.08694c.08995.03708.0957-.0424.1245-.09l.06421-.16407A.90165.90165,0,0,1,1.942,17.94625a3.50083,3.50083,0,0,1,.87244.4191l.07726.0643Zm3.4185-3.71629c-.03014-.06763-.05927-.13614-.13908-.16082-.4452-.41266-.874-.38507-1.19116.12177A2.28181,2.28181,0,0,0,4.951,17.02046a.82528.82528,0,0,0,.73531.56946.84275.84275,0,0,0,.76453-.58438,2.43753,2.43753,0,0,0,.07953-1.90981A.40626.40626,0,0,0,6.38347,14.78629Z"/><path class="d" d="M14.401,19.12451a33.37944,33.37944,0,0,1-3.85138.04028c-.65063-.03417-1.04333.05481-1.29437.718A3.19226,3.19226,0,0,1,8.195,21.23389c.616-.0315,1.22345.1261,1.84088.083a.99035.99035,0,0,1,.28888.06958c.06274-.08227.15454-.06665.24164-.07617,1.02124-.1123,2.04675-.17065,3.06-.37109A22.77362,22.77362,0,0,0,16,20.31885V18.99927C15.46857,19.05139,14.93488,19.0907,14.401,19.12451Z"/><path class="a" d="M21.46423,17.74756a18.99662,18.99662,0,0,1-4.88781,1.1936c-.19111.0249-.38416.03931-.57642.05811v1.31958a23.42285,23.42285,0,0,0,4.76044-2.08252C21.003,18.09595,21.3244,18.04419,21.46423,17.74756Z"/><path class="d" d="M13.73547,12.20789a20.71923,20.71923,0,0,0-3.49139-.76758,6.42721,6.42721,0,0,1-1.513-.21009.68151.68151,0,0,1-.38355.07642,5.70043,5.70043,0,0,1,1.18995,1.69092.32723.32723,0,0,0,.32421.20654c1.00269.07007,2.00831.11926,3.00605.23511,1.0498.12183,2.09356.28955,3.13226.48865V12.9917C15.2558,12.70435,14.5047,12.43384,13.73547,12.20789Z"/><path class="a" d="M20.25629,15.05811a1.44014,1.44014,0,0,0,.22143.04089c-.05011-.13538-.181-.16907-.29107-.22473C18.81787,14.18237,17.42706,13.54272,16,12.9917v.93616c.25641.04919.51434.089.7699.14355A28.90861,28.90861,0,0,1,20.25629,15.05811Z"/><path class="b" d="M15.97784,18.66614a45.86434,45.86434,0,0,1-4.70575.21887c-.428-.00208-.84863-.11206-1.27886-.07678-.11164.00915-.22132-.02869-.18085-.1676a11.284,11.284,0,0,0,.319-1.62281c.00763-.05542.06793-.10351.10376-.15515-.15491-.15369-.05835-.31433-.01319-.47351-.10992-.24829-.02166-.51147-.05737-.76526-.08191-.05725-.06976-.14368-.0697-.22619l.00067-.30213.0011-.15149-.0047-.15112c-.10541-.0813-.06586-.19763-.073-.30274l-.00421-.0791c-.085-.05713-.071-.14526-.07129-.22876.00006-.02466-.001-.04919-.00336-.07373-.08484-.05652-.07257-.14416-.07306-.22778q-.00054-.03735-.00347-.07446a.15967.15967,0,0,1-.07123-.15369l.0744-.071q.30276-.00019.60553-.00037l.45416-.00073c.15137.01928.31738-.05628.45227.06958q.18971.0042.37946.00854l.15448-.002c.15063.01855.31549-.05567.4497.06933l.31086.0066.29974-.00049c.08191.00049.168-.01221.22485.06933l.23267.0066c.127.01367.26807-.04639.37518.07165l.23383.00391c.12579.01367.26568-.04554.37158.07165q.11454.00221.22907.00476c.10449.00672.21972-.03247.30157.07068l.22559.00513c.08429.00012.17291-.01392.23126.0708l.22577.00476c.08349.00037.17138-.01331.22888.07092L16,14.18591v-.258c-1.0387-.1991-2.08246-.36682-3.13226-.48865-.99774-.11585-2.00336-.165-3.006-.23511a.32723.32723,0,0,1-.32421-.20654,5.70043,5.70043,0,0,0-1.18995-1.69092l-.30145-.00146a.36146.36146,0,0,0,.11652.22949,7.39538,7.39538,0,0,1,1.35754,2.5459,7.84912,7.84912,0,0,1,.20612,3.02368,5.59963,5.59963,0,0,1-1.7287,3.89746c-.19031.17065.00055.16406.05322.23144l.14423.00074a3.19226,3.19226,0,0,0,1.06024-1.35108c.251-.66321.64374-.75219,1.29437-.718a33.37944,33.37944,0,0,0,3.85138-.04028c.53388-.03381,1.06757-.07312,1.599-.12524v-.33594Z"/><path class="e" d="M21.46423,17.74756q.53037-.30322,1.06067-.60632l-.07525-.07544A15.25082,15.25082,0,0,1,19.356,18.13843a28.30068,28.30068,0,0,1-3.356.5249v.33594c.19226-.0188.38531-.03321.57642-.05811A18.99662,18.99662,0,0,0,21.46423,17.74756Z"/><path class="f" d="M14.76678,16.20032a8.38877,8.38877,0,0,1-.49664.80212.77545.77545,0,0,1-1.369-.07568,2.527,2.527,0,0,1-.23358-.51343c-.11981-.34448-.21435-.69775-.33514-1.042-.17725-.50476-.42859-.70264-.83136-.67969a.88217.88217,0,0,0-.81134.76563,1.85377,1.85377,0,0,1-.46784.93188c-.04516.15918-.14172.31982.01319.47351a1.11493,1.11493,0,0,0,.61029-.89892,3.85121,3.85121,0,0,1,.12677-.58912.58314.58314,0,0,1,.52929-.42334c.24518-.01428.38569.15833.49512.3523a2.09563,2.09563,0,0,1,.2218.71789,2.49,2.49,0,0,0,.46064,1.18457,1.01369,1.01369,0,0,0,1.76818-.07714c.175-.27686.3216-.57276.509-.84058.3222-.4602.69848-.5354,1.04376-.26562v-.31495C15.57166,15.48193,15.10345,15.64185,14.76678,16.20032Z"/><path class="g" d="M18.40625,16.80884a1.61682,1.61682,0,0,1,.87225-.19373c1.15735.08289,2.31507.15955,3.47266.23841l.24176-.08789c.04352-.07667.18073-.09754.1358-.2273a5.2922,5.2922,0,0,1-.92456-.06458Q21.184,16.445,20.16382,16.4165a4.49091,4.49091,0,0,0-2.18341.24366c-.7555.35962-1.06647.44567-1.46637-.4563a.21709.21709,0,0,0-.02136-.03125A1.37089,1.37089,0,0,0,16,15.70776v.31495a1.23232,1.23232,0,0,1,.26367.2694C16.98309,17.31335,17.27722,17.3866,18.40625,16.80884Z"/><path class="e" d="M20.78284,15.24731c-.023-.0393-.04724-.04455-.07318-.00256l-.07789-.0686a.15768.15768,0,0,0-.15484-.07947l.00079.00232a1.44014,1.44014,0,0,1-.22143-.04089,28.90861,28.90861,0,0,0-3.48639-.9867c-.25556-.05456-.51349-.09436-.7699-.14355v.258l.074.00171c.08411-.00012.17249-.01465.23151.06909l.15338.006c.08258.00061.1695-.01282.22638.07055l.15289.00513c.0824.00049.16895-.01245.22565.07043l.14887.00635a.16193.16193,0,0,1,.15686.07007l.15307.00476c.08167.00049.16742-.012.22327.07031l.08246.00537c.08191.00061.16778-.011.223.072l.07965.00366c.08209.00073.16815-.01074.22357.07226l.079.00342c.08209.00073.168-.01074.22363.07214l.07776.00464a.1575.1575,0,0,1,.15137.07117l.14581.00476a.15893.15893,0,0,1,.15406.069l.08007.00659a.1559.1559,0,0,1,.14991.07105l.14312.005.08533.07.14612.00586.082.07031.1452.00537a.1622.1622,0,0,1,.15534.07056.7199.7199,0,0,0,.07422.00549l.08.07019.14447.00537.082.06983.08258.00439.14356.07092.07611.006a.16092.16092,0,0,1,.15247.07251c.02417.00244.0484.00366.07275.0039l.07916.06983.079.0039.14783.07227c.02441.003.049.00488.07361.00574l.07824.06958q.03736.00384.07489.00549.07737.00073.15467.00171A7.74216,7.74216,0,0,0,20.78284,15.24731Z"/><path class="d" d="M14.95624,16.28833c-.18744.26782-.334.56372-.509.84058a1.01369,1.01369,0,0,1-1.76818.07714,2.49,2.49,0,0,1-.46064-1.18457,2.09563,2.09563,0,0,0-.2218-.71789c-.10943-.194-.24994-.36658-.49512-.3523a.58314.58314,0,0,0-.52929.42334,3.85121,3.85121,0,0,0-.12677.58912,1.11493,1.11493,0,0,1-.61029.89892c-.03583.05164-.09613.09973-.10376.15515a11.284,11.284,0,0,1-.319,1.62281c-.04047.13891.06921.17675.18085.1676.43023-.03528.85089.0747,1.27886.07678a45.86434,45.86434,0,0,0,4.70575-.21887L16,18.66333V16.02271C15.65472,15.75293,15.27844,15.82813,14.95624,16.28833Z"/><path class="a" d="M22.44965,17.0658a.49526.49526,0,0,1,.30358-.15894c-.00134-.01782-.002-.03552-.00207-.05334-1.15759-.07886-2.31531-.15552-3.47266-.23841a1.61682,1.61682,0,0,0-.87225.19373c-1.129.57776-1.42316.50451-2.14258-.51673A1.23232,1.23232,0,0,0,16,16.02271v2.64062a28.30068,28.30068,0,0,0,3.356-.5249A15.25082,15.25082,0,0,0,22.44965,17.0658Z"/><path class="h" d="M22.5249,17.14124a.4326.4326,0,0,0,.22833-.23438.49526.49526,0,0,0-.30358.15894Z"/><path class="i" d="M.82965,18.19813a4.63372,4.63372,0,0,0-.29958-3.25492l.09339-.007a1.6504,1.6504,0,0,0,2.119-.13947l.0297.00479.0295-.00593c-.06437.135-.12678.2709-.19343.40473a2.82915,2.82915,0,0,0,.038,2.69824c.06288.12164.11789.24736.17651.37125l-.00825.09554a3.50083,3.50083,0,0,0-.87244-.4191.90165.90165,0,0,0-1.03424.31847Z"/><path class="j" d="M6.53037,15.09573a2.43753,2.43753,0,0,1-.07953,1.90981.84275.84275,0,0,1-.76453.58438.82528.82528,0,0,1-.73531-.56946,2.28181,2.28181,0,0,1,.10223-2.27322c.31719-.50684.746-.53443,1.19116-.12177l-.09933.09716c-.37823.00859-.46167.26-.43666.56589.01738.21249.12383.41766.36926.39981.32595-.02371.37334-.28548.37353-.55541,0-.01259-.00072-.02518-.00111-.03777Z"/><path class="k" d="M6.53037,15.09573l-.08029-.00058-.13179-.23249.06518-.07637A.40626.40626,0,0,1,6.53037,15.09573Z"/><path class="l" d="M6.38347,14.78629l-.0652.07637-.17321-.14.09933-.09716C6.3242,14.65015,6.35333,14.71866,6.38347,14.78629Z"/><path class="m" d="M.82965,18.19813l.07812.06659-.0642.16408-.076.003C.76556,18.34788.753,18.26116.82965,18.19813Z"/><path class="n" d="M.62346,14.9362l-.09339.007c-.05044-.022-.08137-.07222-.02822-.09685C.55823,14.82023.59785,14.88393.62346,14.9362Z"/><path class="o" d="M2.80163,14.79559l-.0295.00593-.0297-.00479A.20891.20891,0,0,1,2.89,14.64414l-.00175-.00172A.145.145,0,0,1,2.80163,14.79559Z"/><path class="p" d="M.76758,18.4318l.076-.003c-.02881.04754-.03456.127-.12451.08994Z"/><path class="q" d="M2.81445,18.36535l.00825-.09554.07044.08356-.00143.07628Z"/><path class="r" d="M2.89171,18.42965l.00143-.07628.06947.15141.00232-.00226Z"/><path class="s" d="M2.89,14.64414l.01638-.03159-.0181.02985Z"/><path class="t" d="M2.96261,18.50478l.033.01621L2.965,18.50255Z"/><path class="d" d="M15.85315,14.18237H15.853c-.05762-.084-.14527-.07055-.22858-.071h-.00012l-.22583-.00464c-.05835-.08472-.147-.07068-.2312-.0708a.155.155,0,0,0,.10547.06836.155.155,0,0,1-.10547-.06836l-.22565-.00513c-.05267-.00146-.10779.00733-.15979.00318.052.00415.10712-.00464.15979-.00318-.08185-.10315-.19708-.064-.30151-.07068q-.11463-.00237-.22913-.00476c-.06335-.00451-.13007.00794-.194.00635.0639.00159.13062-.011.194-.00635-.1059-.11719-.24579-.058-.37164-.07165l-.23377-.00391c-.10711-.118-.24817-.058-.37524-.07165l-.23267-.0066-.22259.00208.22265-.00208c-.05688-.08154-.14294-.06884-.22485-.06933l-.29968.00049H12.6731l-.3108-.0066-.22345.00013.22345-.00013c-.13421-.125-.29907-.05078-.4497-.06933l-.15448.002q-.1898-.00439-.37952-.00854l-.45148-.00037.45154.00037c-.13489-.12586-.3009-.0503-.45227-.06958l-.45416.00073q-.30276.00036-.60553.00049v-.00012l-.0744.071a.1596.1596,0,0,0,.07129.15369q.00283.03717.00341.07446a.15439.15439,0,0,1,.06916.10352.15439.15439,0,0,0-.06916-.10352c.00049.08362-.01178.17126.07312.22778.00226.02454.00336.04907.0033.07373.02124.01429.02344.03455.0343.052-.01086-.01746-.01306-.0376-.0343-.052.00031.0835-.01373.17163.07135.22876l.00415.0791a.191.191,0,0,1,.07422.14234.191.191,0,0,0-.07422-.14234c.00714.10511-.03241.22144.07306.30274l.00464.15112-.00116.15149-.00061.30213c-.00006.08251-.01221.16894.06976.22631h0c.03565.25367-.05261.51685.05731.76514a1.85377,1.85377,0,0,0,.46784-.93188.88217.88217,0,0,1,.81134-.76563c.40277-.02295.65411.17493.83136.67969.12079.34424.21533.69751.33514,1.042a2.527,2.527,0,0,0,.23358.51343.77545.77545,0,0,0,1.369.07568,8.38877,8.38877,0,0,0,.49664-.80212c.33667-.55847.80488-.71839,1.23322-.49256v-1.522Zm-5.68829.91626a.20283.20283,0,0,0-.01117-.0874.20256.20256,0,0,1,.01117.0874Z"/><path class="a" d="M22.67749,16.3075l-.0766-.07422q-.03753-.0002-.075-.00135l-.07745-.07446q-.037.00036-.074-.001l-.07867-.0747c-.02448.00049-.04889,0-.07324-.0011l-.079-.07446q-.03671.00092-.0733-.00147l-.08221-.075a.595.595,0,0,1-.06757.00012c-.02161-.0415-.04535-.04993-.07245-.00451l-.07983-.06629.00055-.07861q-.07728-.00109-.15467-.00171-.03753-.00165-.07489-.00549l-.07818-.06958c-.02472-.00086-.04926-.00269-.07367-.00574l-.14783-.07227-.079-.0039-.07916-.06983c-.02435-.00024-.04858-.00146-.07275-.0039a.16092.16092,0,0,0-.15247-.07251l-.07611-.006-.14362-.07092-.08252-.00439-.08191-.06983-.14453-.00537-.08-.07031a.6877.6877,0,0,1-.07428-.00537.16215.16215,0,0,0-.15528-.07056l-.14526-.00537-.082-.07031-.14618-.00586-.0852-.07-.14325-.005a.1559.1559,0,0,0-.14991-.07105l-.08007-.00659a.15889.15889,0,0,0-.154-.069l-.14587-.00476a.1575.1575,0,0,0-.15137-.07117l-.07776-.00464c-.0556-.08288-.14154-.07141-.22369-.07214l-.07892-.00342c-.05542-.083-.14148-.07153-.22357-.07226l-.07965-.00366c-.05518-.083-.141-.07142-.223-.072l-.0824-.00537c-.05585-.08227-.1416-.06982-.22327-.07043l-.15307-.00464a.16189.16189,0,0,0-.1568-.07007l-.14893-.00635c-.0567-.08288-.14325-.06994-.22565-.07043l-.15289-.00513c-.05688-.08337-.1438-.06994-.22638-.07055l-.15338-.006c-.059-.08374-.1474-.06921-.23138-.06909L16,14.18579v1.522a1.37089,1.37089,0,0,1,.49268.46485.21709.21709,0,0,1,.02136.03125c.3999.902.71087.81592,1.46637.4563a4.49091,4.49091,0,0,1,2.18341-.24366q1.02016.0282,2.04034.05725c.15863-.00476.31751-.00695.47589-.01611.05127-.00293.13886.03723.1399-.04944C22.82031,16.37524,22.72772,16.34106,22.67749,16.3075Z"/><path class="u" d="M6.14506,14.72263l.17321.14.13181.23249c.00039.01259.00111.02518.00111.03777-.00019.26993-.04758.5317-.37353.55541-.24543.01785-.35188-.18732-.36926-.39981C5.68339,14.98265,5.76683,14.73122,6.14506,14.72263Z"/></svg>