<?xml version="1.0" encoding="utf-8"?>
<!-- Generator: Adobe Illustrator 23.0.6, SVG Export Plug-In . SVG Version: 6.00 Build 0)  -->
<svg version="1.1" xmlns="http://www.w3.org/2000/svg" xmlns:xlink="http://www.w3.org/1999/xlink" x="0px" y="0px" width="32px"
	 height="32px" viewBox="0 0 32 32" enable-background="new 0 0 32 32" xml:space="preserve">
<g id="labels">
	<g>
	</g>
</g>
<g id="icons">
	<g>
		<path fill="#ABB4DD" d="M16,5c-4,0-13,6-13,8s10,3,13,3s13-1,13-3S20,5,16,5z"/>
		<path fill="#BAC2E0" d="M16,5c-4,0-13,6-13,8s10,3,13,3V5z"/>
		<circle fill="#C7CFE5" cx="16" cy="15" r="8"/>
		<ellipse fill="#FFD96C" cx="21" cy="14.5" rx="1" ry="1.5"/>
		<path fill="#D3DAEA" d="M16,7c-4.418,0-8,3.582-8,8s3.582,8,8,8V7z"/>
		<path fill="#529CCF" d="M14,9c0.388,0.777,1,2,1,3c0,1.839-2,4-2,6s2,3,3,3V9H14z"/>
		<path fill="#4390BF" d="M18,9c1,2-1,4-1,5c0,2,2,2,2,4s-2,3-3,3V9H18z"/>
		<path fill="#ABB4DD" d="M17,19.377c0-0.681-0.206-1.567-0.804-2.285c-0.102-0.122-0.29-0.122-0.392,0
			C15.206,17.81,15,18.697,15,19.377c0,0.452,0.408,1.108,0.856,1.414c0.087,0.06,0.201,0.06,0.288,0
			C16.592,20.485,17,19.829,17,19.377z"/>
		<g>
			<path fill="#BAC2E0" d="M15.804,17.092C15.206,17.81,15,18.697,15,19.377c0,0.452,0.408,1.108,0.856,1.414
				c0.044,0.03,0.094,0.045,0.144,0.045V17C15.927,17,15.855,17.031,15.804,17.092z"/>
		</g>
		<path fill="#866EBA" d="M14,9c0.388,0.777,1,2,1,3c0,1.149-0.781,2.425-1.367,3.708C14.373,15.891,15.168,16,16,16V9H14z"/>
		<path fill="#7A63AD" d="M17,14c0-1,2-3,1-5h-2v7c0.633,0,1.245-0.063,1.827-0.174C17.391,15.378,17,14.884,17,14z"/>
		<path fill="#4F4949" d="M16,5c-4,0-13,6-13,8c3-1,9-2,13-2s10,1,13,2C29,11,20,5,16,5z"/>
		<path fill="#5A5353" d="M16,5c-4,0-13,6-13,8c3-1,9-2,13-2V5z"/>
		<path fill="#4F4949" d="M19,28.667L16.8,31.6c-0.4,0.533-1.2,0.533-1.6,0L13,28.667V22h6V28.667z"/>
		<g>
			<path fill="#5A5353" d="M13,22v6.667l2.2,2.933c0.2,0.267,0.5,0.4,0.8,0.4V22H13z"/>
		</g>
		<path fill="#4F4949" d="M16,23c1.456,0,2.821-0.389,3.997-1.069C19.925,20.858,18.163,20,16,20s-3.925,0.858-3.997,1.931
			C13.179,22.611,14.544,23,16,23z"/>
		<path fill="#5A5353" d="M16,20c-2.163,0-3.925,0.858-3.997,1.931C13.179,22.611,14.544,23,16,23V20z"/>
		<ellipse fill="#4F4949" cx="16" cy="28" rx="5" ry="2"/>
		<path fill="#5A5353" d="M16,30c-2.761,0-5-0.895-5-2s2.239-2,5-2V30z"/>
		<path fill="#5A5353" d="M13.847,24.454c-2.205-0.625-4.488-1.051-6.703-0.936c-1.098,0.065-2.185,0.265-3.112,0.7
			c-0.925,0.425-1.672,1.109-1.935,1.915c-0.27,0.799-0.1,1.646,0.438,2.412c0.53,0.745,1.389,1.318,2.201,1.4l0.3,0.012
			l0.358-0.039c0.229-0.038,0.448-0.085,0.634-0.159c0.381-0.145,0.616-0.34,0.775-0.62c0.351-0.545,0.403-1.588,0.291-2.647
			c-0.082-0.776,0.149-1.513,1.236-1.513c1.335,0,1.493,0.439,1.575,1.215c0.008,0.077,0.01,0.153,0.006,0.228l-0.003,0.045
			c-0.039,0.633-0.106,1.287-0.262,1.974c-0.151,0.682-0.409,1.433-0.935,2.103c-0.515,0.682-1.325,1.14-2.065,1.309
			c-0.374,0.096-0.735,0.131-1.086,0.148c-0.333,0.004-0.693,0.005-1.089-0.047c-1.512-0.255-2.72-1.13-3.54-2.275
			c-0.404-0.582-0.711-1.254-0.838-1.999c-0.138-0.752-0.025-1.534,0.263-2.223c0.587-1.406,1.822-2.288,3.03-2.756
			c1.229-0.48,2.497-0.615,3.725-0.614c2.466,0.029,4.809,0.635,7.043,1.417c0.261,0.091,0.398,0.377,0.307,0.637
			c-0.088,0.251-0.355,0.387-0.607,0.316L13.847,24.454z"/>
		<path fill="#4F4949" d="M18.187,24.454c2.205-0.625,4.488-1.051,6.703-0.936c1.098,0.065,2.185,0.265,3.112,0.7
			c0.925,0.425,1.672,1.109,1.935,1.915c0.27,0.799,0.1,1.646-0.438,2.412c-0.53,0.745-1.389,1.318-2.201,1.4l-0.3,0.012
			l-0.358-0.039c-0.229-0.038-0.448-0.085-0.634-0.159c-0.381-0.145-0.616-0.34-0.775-0.62c-0.351-0.545-0.403-1.588-0.291-2.647
			c0.082-0.776-0.149-1.513-1.236-1.513c-1.335,0-1.493,0.439-1.575,1.215c-0.008,0.077-0.01,0.153-0.006,0.228l0.003,0.045
			c0.039,0.633,0.106,1.287,0.262,1.974c0.151,0.682,0.409,1.433,0.935,2.103c0.515,0.682,1.325,1.14,2.065,1.309
			c0.374,0.096,0.735,0.131,1.086,0.148c0.333,0.004,0.693,0.005,1.089-0.047c1.512-0.255,2.72-1.13,3.54-2.275
			c0.404-0.582,0.711-1.254,0.838-1.999c0.138-0.752,0.025-1.534-0.263-2.223c-0.587-1.406-1.822-2.288-3.03-2.756
			c-1.229-0.48-2.497-0.615-3.725-0.614c-2.466,0.029-4.809,0.635-7.043,1.417c-0.261,0.091-0.398,0.377-0.307,0.637
			c0.088,0.251,0.355,0.387,0.607,0.316L18.187,24.454z"/>
		<path fill="#4F4949" d="M14,3.272c0-0.828,0.609-1.96,1.155-2.809c0.397-0.618,1.293-0.618,1.69,0C17.391,1.312,18,2.444,18,3.272
			c0,2-1,3.5-1,3.5h-2C15,6.772,14,5.272,14,3.272z"/>
		<g>
			<path fill="#5A5353" d="M15.155,0.463C14.609,1.312,14,2.444,14,3.272c0,2,1,3.5,1,3.5h1V0C15.677,0,15.354,0.154,15.155,0.463z"
				/>
		</g>
		<ellipse fill="#FFE28A" cx="11" cy="14.5" rx="1" ry="1.5"/>
	</g>
</g>
</svg>
