<svg xmlns="http://www.w3.org/2000/svg" viewBox="0 0 32 32"><defs><style>.a{fill:#a0422c;}.b{fill:#923d27;}.c{fill:#687271;}.d{fill:#5c6664;}.e{fill:#3a9b46;}.f{fill:#2f963c;}.g{fill:#48a353;}.h{fill:#505957;}.i{fill:#843822;}.j{fill:#757f7e;}.k{fill:#b94a34;}.l{fill:#bf4f3c;}.m{fill:#4eac5d;}.n{fill:#ad4630;}.o{fill:#c84040;}.p{fill:#c8cccb;}.q{fill:#b9bfbe;}.r{fill:#211915;}.s{fill:#373f3f;}.t{fill:#434c4b;}.u{fill:#54b668;}.v{fill:#fff;}</style></defs><title>611-fraxure</title><path class="a" d="M3.39188,18.57121A6.03741,6.03741,0,0,1,4.18337,17.407c.10142-.11784.17089-.191-.037-.28233-.17761-.078-.4414-.19258-.39183-.40024.0484-.20276.33734-.17223.5311-.19511.29-.03423.583-.04292.87471-.06248a1.07738,1.07738,0,0,0,.02695,1.00184,1.46023,1.46023,0,0,0,.8604.54554c-.23952.32892-.47706.65933-.72018.98557-.05126.06879-.10537.16873-.21088.13838-.09669-.02782-.11018-.13732-.13893-.22059-.059-.17073.00821-.43764-.16042-.499-.13418-.04881-.333.10749-.5091.14037-.30161.0563-.59487.24434-.91633.08041Z"/><path class="b" d="M27.72751,17.2729c-.01481-.1817.25574-.15791.35391-.28719.0134-.01764.035-.02862.05017-.04493.05924-.06456.15616-.11747.12871-.2203-.02663-.09984-.12921-.11332-.21665-.13245a5.34347,5.34347,0,0,0-1.20634-.12113c.30466.78171-.02679,1.29686-.88721,1.54744.21032.29419.41457.59319.63421.88039.077.10083.14385.2792.295.23711.13744-.03844.14044-.21465.16681-.3471.07954-.401.07987-.40017.482-.27554a3.09651,3.09651,0,0,0,.42338.11946c.216.034.43445.15608.65434.01065v-.06822a5.713,5.713,0,0,0-.60134-.92713C27.90405,17.52266,27.73816,17.40335,27.72751,17.2729Z"/><path class="c" d="M15.99776,27.08805a.22952.22952,0,0,1,.001-.06755l.00333-.01964V21.779c-.06639-.00366-.1337-.00948-.19817-.00815a3.35924,3.35924,0,0,1-.60268,2.30536.80056.80056,0,0,1-.75026.33562c-.72139.002-.99943-.40883-1.24869-1.03a1.85043,1.85043,0,0,1,.22554-1.94912,7.65464,7.65464,0,0,0,.39594-.6709,6.96206,6.96206,0,0,1-2.598-3.07775A5.0811,5.0811,0,0,1,9.65472,17.216a25.59294,25.59294,0,0,0-.81183,5.666,1.37138,1.37138,0,0,1-.51764,1.1674,7.1347,7.1347,0,0,0-2.33573,5.884c.47222-.24859.75858-.16523.98121.32313.083.182.12563.1406.20774.02113a1.01667,1.01667,0,0,1,.0951-.13976.74369.74369,0,0,1,.778-.29369.63549.63549,0,0,1,.45875.70634l.32954-.03029c.17571-.677.45042-.83745,1.07007-.62413a4.41863,4.41863,0,0,1,2.29488-2.16793.349.349,0,0,1,.40242.016,4.53134,4.53134,0,0,0,1.66434.73928,7.47946,7.47946,0,0,0,1.73056.22529V27.12732Z"/><path class="d" d="M19.41788,27.72317a.3453.3453,0,0,1,.37446.00632,4.40448,4.40448,0,0,1,2.29547,2.16676c.61914-.21348.894-.05341,1.07015.62381q.1646.01546.32946.03028a.633.633,0,0,1,.45907-.70583.69278.69278,0,0,1,.7922.32446c.17537.25242.221.24327.34734-.03494.16606-.36507.50824-.419.92215-.20067a7.3421,7.3421,0,0,0-1.861-5.43537c-.05266-.05874-.114-.11282-.10749-.20267-.45-.32862-.98812-.5674-.89885-1.30352a3.9107,3.9107,0,0,0-.0495-1.38138.4213.4213,0,0,1,.06073-.35775c-.11614-.05291-.1074-.16739-.1183-.26306a37.82551,37.82551,0,0,0-.691-3.77328,5.085,5.085,0,0,1-1.57082.46756A6.874,6.874,0,0,1,19.50781,19.639a8.45616,8.45616,0,0,1-3.23209,2.11485.67691.67691,0,0,1-.27363.02512v5.22189c.0411-.2.03236-.49219.275-.48254.232.00915.27763.31382.33653.5085-.00649.24842-.11556.38836-.34426.40267-.22214.014-.25309-.14027-.26723-.30217v1.58139A6.03438,6.03438,0,0,0,19.41788,27.72317Zm-2.87909-2.61885c.00948-.13544.00166-.27188.00166-.408h-.00424a1.22059,1.22059,0,0,1,.00116-.17006c.03212-.22829-.10848-.52813.23928-.631a.79506.79506,0,0,1,.94918.32464c.38678.58653.36523.96357-.04193,1.36541-.28328.27954-.54568.08719-.8164.006A.42636.42636,0,0,1,16.53879,25.10432Z"/><path class="e" d="M6.04772,18.01419a1.46023,1.46023,0,0,1-.8604-.54554,1.07738,1.07738,0,0,1-.02695-1.00184,2.86749,2.86749,0,0,1,.88394-.82476,15.65813,15.65813,0,0,1,2.3202-1.24726,1.33127,1.33127,0,0,0-.12457.75442,2.79319,2.79319,0,0,0,1.1006,1.86359.23257.23257,0,0,1,.1169.19194A5.84191,5.84191,0,0,1,6.04772,18.01419Z"/><path class="f" d="M26.20285,15.817a14.75485,14.75485,0,0,0-2.56926-1.42182c.40084.732-.18752,2.0205-.88987,2.5656-.08718.06772-.20624.10349-.20349.24393a5.84284,5.84284,0,0,0,3.40987.80966c.86042-.25058,1.19187-.76573.88721-1.54744A2.52391,2.52391,0,0,0,26.20285,15.817Z"/><path class="g" d="M9.45744,17.20474a.23257.23257,0,0,0-.1169-.19194,2.79319,2.79319,0,0,1-1.1006-1.86359,1.33127,1.33127,0,0,1,.12457-.75442q.11621-.15013.23226-.30037.76686.11614,1.534.23262c.13461.04935.29422-.02621.41674.08354a8.68919,8.68919,0,0,0,.67823,3.27344,5.07841,5.07841,0,0,1-1.571-.468Z"/><path class="e" d="M23.40081,14.09447q-.767.11631-1.53389.23245c-.13752.03345-.28811.0025-.41581.0842a8.72335,8.72335,0,0,1-.67922,3.27294,5.08974,5.08974,0,0,0,1.57091-.46773q.09883-.006.19743-.01165c-.00275-.14044.11631-.17621.20349-.24393.70235-.5451,1.29071-1.83365.88987-2.5656Q23.51716,14.24464,23.40081,14.09447Z"/><path class="h" d="M23.15205,21.25267a.4213.4213,0,0,0-.06073.35775,3.9107,3.9107,0,0,1,.0495,1.38138c-.08927.73612.44884.9749.89885,1.30352a6.19545,6.19545,0,0,0,1.57149-2.726,7.09514,7.09514,0,0,0-1.77133-.93646Q23.49591,20.94285,23.15205,21.25267Z"/><path class="a" d="M5.9895,29.93326c.47223-.24856.7586-.16513.98127.32322.083.18208.12561.14066.2077.02119a1.0183,1.0183,0,0,1,.09507-.13983.74411.74411,0,0,1,.778-.29373.6356.6356,0,0,1,.45874.70646c-.01432.08609.0016.17551-.08514.24478A14.34153,14.34153,0,0,1,6.93888,31.9204c-.074.04476-.1686.12171-.24435.05086-.04269-.03993-.02727-.14867-.0272-.2264.00021-.21383.21016-.47783.05313-.60966-.10064-.0845-.398.06921-.6083.11056a3.68509,3.68509,0,0,1-.91184.07044c-.11179-.006-.24578.007-.29692-.11457-.04872-.11581.07134-.17885.137-.2501C5.35471,30.61023,5.67277,30.27236,5.9895,29.93326Z"/><path class="b" d="M26.95728,30.95135c-.31432-.34111-.63238-.67905-.9491-1.018-.41391-.21831-.75609-.1644-.92215.20067-.12638.27821-.172.28736-.34734.03494a.69278.69278,0,0,0-.7922-.32446.633.633,0,0,0-.45907.70583.32421.32421,0,0,0,.137.28886c.36057.27288.70708.5644,1.07057.83313.18378.13594.40741.40449.59793.2802.166-.10832.00383-.4273-.0505-.63678-.0609-.23478-.00067-.22164.18-.17255a4.39209,4.39209,0,0,0,1.375.17288c.11173-.00566.24576.007.29684-.11448C27.143,31.08579,27.02292,31.02273,26.95728,30.95135Z"/><path class="i" d="M25.7288,18.3255a.75484.75484,0,0,0-.11373.11647,14.44329,14.44329,0,0,1-1.77524,2.19089,7.09514,7.09514,0,0,1,1.77133.93646,6.44412,6.44412,0,0,0,.18-3.08874A.68566.68566,0,0,0,25.7288,18.3255Z"/><path class="a" d="M8.83981,30.52021c.17568-.67707.45042-.83729,1.07012-.624a2.20892,2.20892,0,0,1,.49414,1.02511c.02225.17435.018.27894-.219.20347A3.32513,3.32513,0,0,1,8.83981,30.52021Z"/><path class="b" d="M22.08781,29.89625a2.07122,2.07122,0,0,0-.49352,1.05909c-.00732.09318-.06781.24926.152.18453a3.3383,3.3383,0,0,0,1.41167-.61981C22.98183,29.84284,22.707,29.68277,22.08781,29.89625Z"/><path class="j" d="M15.98345,13.62442c-.06938-.00666-.04733-.10433-.05166-.1654l-.00025-.2035a5.04228,5.04228,0,0,0-1.22689-2.52866,4.787,4.787,0,0,1-.46391-.57339A17.43044,17.43044,0,0,0,13.09022,8.311c-.36964-.46557-.7065-.53279-1.13105-.14809a3.49055,3.49055,0,0,0-.68562.92181c-.135.24527-.10241-.06489-.1668-.04559l.13677,1.02a9.04212,9.04212,0,0,0,.74444,1.98972c.07562.12962.00183.1817-.0822.24326a2.6586,2.6586,0,0,1,.26432-.03893c.41581-.0203.81266-.1208,1.10368.38336a1.18215,1.18215,0,0,0,1.22714.68837.27906.27906,0,0,1,.29393.13145,10.378,10.378,0,0,1,.726,1.29536c.11423.20566.22713.41232.34335.617.04493.0792.09143.115.13794.11281V13.6116C15.99252,13.61343,15.99718,13.62575,15.98345,13.62442Zm-2.25811-2.3686a.70329.70329,0,0,1-.80009.07022,1.25808,1.25808,0,0,1-.86533-.97157,1.66032,1.66032,0,0,1,.49768-1.52215c.14876-.14094.29327-.09568.40575.0559a2.51929,2.51929,0,0,1,.39527.63047,1.61381,1.61381,0,0,1,.33045.6649,2.59579,2.59579,0,0,1,.12163.27588C13.89806,10.736,13.968,11.02437,13.72534,11.25582Zm1.66293,2.18307c-.13619-.019-.16207-.1451-.1946-.24926-.02221-.07055.00982-.14908.10134-.12529.1267.03278.13827.16423.18361.25608C15.4881,13.39762,15.44925,13.44721,15.38827,13.43889Z"/><path class="c" d="M16.47689,14.75172a10.37922,10.37922,0,0,1,.726-1.29536.27906.27906,0,0,1,.29393-.13145,1.18218,1.18218,0,0,0,1.22715-.68837c.291-.50416.68786-.40366,1.10368-.38336a2.61011,2.61011,0,0,1,.26431.0391c-.08394-.06173-.15791-.11365-.0822-.24343a9.07334,9.07334,0,0,0,.74461-1.98922l.13652-1.02015c-.06381-.018-.03577.29118-.16622.04459a4.90333,4.90333,0,0,0-.58728-.83.6884.6884,0,0,0-1.17124-.02562,9.83634,9.83634,0,0,0-.75168,1.13014,6.15777,6.15777,0,0,1-.81823,1.28471,4.86655,4.86655,0,0,0-1.33006,2.61219l-.00025.2035c-.01289.05624.0084.13911-.06381.15258v1.86992c.04418-.00183.08835-.03777.13112-.11315C16.24935,15.16371,16.3625,14.95738,16.47689,14.75172Zm1.66526-4.12852a1.0437,1.0437,0,0,1,.16647-.43961,1.6137,1.6137,0,0,1,.33046-.6649,2.50623,2.50623,0,0,1,.39526-.63047.25288.25288,0,0,1,.43179-.03411,1.63909,1.63909,0,0,1,.45442,1.56542,1.25619,1.25619,0,0,1-1.0125.94711C18.34781,11.50474,18.00487,11.176,18.14215,10.6232Zm-1.42449,2.43831c.06356-.01364.09609.04409.08952.12579-.03478.09019-.056.21016-.1797.25026a.0808.0808,0,0,1-.10858-.09035C16.548,13.2309,16.57207,13.09279,16.71766,13.06151Z"/><path class="k" d="M24.87063,13.53839a4.76385,4.76385,0,0,0-.9298-.48636,12.30217,12.30217,0,0,0-2.62658-.65043q-.09273-.00525-.18545-.01032a4.39051,4.39051,0,0,1,.73812,1.93581q.76686-.11655,1.53389-.23262.71432-.14575,1.42873-.29118c.07687-.01564.19135-.008.209-.08336C25.06224,13.61859,24.93927,13.58565,24.87063,13.53839Z"/><path class="g" d="M20.00973,12.04885c-.07571.12978-.00174.1817.0822.24326q.5184.04943,1.03679.09917.09285.005.18553.01032a13.1056,13.1056,0,0,0-.55991-2.342A9.07334,9.07334,0,0,1,20.00973,12.04885Z"/><path class="l" d="M10.1308,14.32692q-.76709-.11629-1.534-.2325-.71409-.1455-1.42852-.291c-.07689-.01561-.19139-.008-.20906-.08339-.02378-.10146.09857-.13567.16774-.18171A7.16908,7.16908,0,0,1,9.716,12.57577c.32078-.0662.64482-.11658.96732-.174q.09265-.00506.18548-.01056A4.39407,4.39407,0,0,0,10.1308,14.32692Z"/><path class="m" d="M10.86873,12.3913q-.09273.00533-.18541.01046a13.13214,13.13214,0,0,1,.56017-2.34272,9.04115,9.04115,0,0,0,.74447,1.9898c.07559.12969.00179.18167-.08223.24345Q11.38724,12.34187,10.86873,12.3913Z"/><path class="m" d="M15.86415,15.36871c-.11622-.20467-.22912-.41133-.34335-.617a44.73354,44.73354,0,0,1-4.49833-.31864c-.15674-.0198-.31656-.01547-.475-.02246a8.68877,8.68877,0,0,0,.6783,3.27344,6.96206,6.96206,0,0,0,2.598,3.07775,14.96566,14.96566,0,0,0,1.73222.84927c.09152.04027.19976.05291.24793.15974.06447-.00133.13178.00449.19817.00815V15.48152C15.95558,15.48368,15.90908,15.44791,15.86415,15.36871Z"/><path class="g" d="M16.27572,21.75385A8.45616,8.45616,0,0,0,19.50781,19.639a6.87333,6.87333,0,0,0,1.26408-1.95494,8.72335,8.72335,0,0,0,.67922-3.27294c-.9041.04027-1.79846.18919-2.70355.22846-.75683.03311-1.51142.11913-2.27067.11214-.11439.20566-.22754.412-.34368.61665-.04277.07538-.08694.11132-.13112.11315V21.779A.67691.67691,0,0,0,16.27572,21.75385Z"/><path class="n" d="M13.82376,20.7619a14.96683,14.96683,0,0,0,1.73223.84917c.09151.04036.19975.05293.24794.15981a3.35947,3.35947,0,0,1-.60269,2.30535.801.801,0,0,1-.75024.33566c-.72142.00182-.99941-.40894-1.24868-1.03008a1.85065,1.85065,0,0,1,.22551-1.94919A7.62528,7.62528,0,0,0,13.82376,20.7619Z"/><path class="a" d="M16.77665,23.89531c-.34776.10283-.20716.40267-.23928.631a1.22059,1.22059,0,0,0-.00116.17006h.00424c0,.13611.00782.27255-.00166.408a.42636.42636,0,0,0,.32871.487c.27072.0812.53312.27355.8164-.006.40716-.40184.42871-.77888.04193-1.36541A.79506.79506,0,0,0,16.77665,23.89531Z"/><path class="o" d="M15.99876,27.0205a.22952.22952,0,0,0-.001.06755l.00433.03927v-.12646Z"/><path class="a" d="M16.26932,27.42949c.2287-.01431.33777-.15425.34426-.40267-.0589-.19468-.10449-.49935-.33653-.5085-.2426-.00965-.23386.28254-.275.48254v.12646C16.01623,27.28922,16.04718,27.44346,16.26932,27.42949Z"/><path class="p" d="M15.52077,14.75179a44.73973,44.73973,0,0,1-4.49831-.3187c-.15676-.0198-.31656-.01555-.47495-.02249-.12252-.10977-.28213-.03421-.41674-.08356a4.39439,4.39439,0,0,1,.738-1.93584q.5184-.04932,1.03693-.09891a2.59671,2.59671,0,0,1,.26438-.03914c.41577-.02027.81264-.12078,1.10366.38343a1.182,1.182,0,0,0,1.2271.68835.27888.27888,0,0,1,.29395.13148A10.3634,10.3634,0,0,1,15.52077,14.75179Z"/><path class="q" d="M20.09193,12.29228a2.61011,2.61011,0,0,0-.26431-.0391c-.41582-.0203-.81266-.1208-1.10368.38336a1.18218,1.18218,0,0,1-1.22715.68837.27906.27906,0,0,0-.29393.13145,10.37922,10.37922,0,0,0-.726,1.29536c.75925.007,1.51384-.079,2.27067-.11214.90509-.03927,1.79945-.18819,2.70355-.22846.1277-.0817.27829-.05075.41581-.084a4.38966,4.38966,0,0,0-.7382-1.93581Q20.61032,12.34136,20.09193,12.29228Z"/><path class="n" d="M19.03434,8.88822a2.50623,2.50623,0,0,0-.39526.63047.37894.37894,0,0,1,.11081.22729c.1223-.04859.21789-.02463.25383.11148a.19853.19853,0,0,1-.15008.27688,2.1749,2.1749,0,0,1-.04593.70167c-.0391.13694-.04276.33429-.21206.34227-.18.00832-.18162-.19268-.22347-.32712a2.76915,2.76915,0,0,1-.06356-.66757,1.0437,1.0437,0,0,0-.16647.43961c-.13728.55275.20566.88154.7659.74344a1.25619,1.25619,0,0,0,1.0125-.94711,1.63909,1.63909,0,0,0-.45442-1.56542A.25288.25288,0,0,0,19.03434,8.88822Z"/><path class="k" d="M13.68909,10.18354a2.62968,2.62968,0,0,1,.12161.27583c.08734.27675.15736.56506-.08538.7964a.70331.70331,0,0,1-.8.07024,1.25791,1.25791,0,0,1-.86532-.9715,1.66,1.66,0,0,1,.49766-1.52217c.14877-.14092.29325-.09567.40569.05586a2.5179,2.5179,0,0,1,.39526.63042.37932.37932,0,0,0-.11072.22745c-.12234-.04873-.218-.02468-.2539.11127a.19873.19873,0,0,0,.15009.27709,2.17926,2.17926,0,0,0,.0527.73456c.03647.12627.04781.30339.20535.31121.16676.00828.17737-.17313.2164-.29632A2.68267,2.68267,0,0,0,13.68909,10.18354Z"/><path class="r" d="M13.68909,10.18354a2.68267,2.68267,0,0,1-.0706.70034c-.039.12319-.04964.3046-.2164.29632-.15754-.00782-.16888-.18494-.20535-.31121a2.17926,2.17926,0,0,1-.0527-.73456c.19942-.0854.244-.21219.10381-.38836a.37932.37932,0,0,1,.11072-.22745A1.61456,1.61456,0,0,1,13.68909,10.18354Z"/><path class="r" d="M18.74964,9.74631a.37722.37722,0,0,0-.11056-.22762,1.6137,1.6137,0,0,0-.33046.6649,2.76915,2.76915,0,0,0,.06356.66757c.04185.13444.04343.33544.22347.32712.1693-.008.173-.20533.21206-.34227a2.1749,2.1749,0,0,0,.04593-.70167C18.65463,10.04914,18.60962,9.92269,18.74964,9.74631Z"/><path class="s" d="M16.71766,13.06151c-.14559.03128-.16964.16939-.19876.2857a.0808.0808,0,0,0,.10858.09035c.12371-.0401.14492-.16007.1797-.25026C16.81375,13.1056,16.78122,13.04787,16.71766,13.06151Z"/><path class="t" d="M15.47861,13.3204c.00947.07728-.02937.12693-.09032.11845-.13623-.01894-.16209-.1451-.19465-.24908-.02215-.07079.00984-.14916.10138-.12541C15.42171,13.09724,15.43324,13.22867,15.47861,13.3204Z"/><path class="u" d="M15.79418.23932c-.0802.17371-.15774.34909-.24093.52147A15.54492,15.54492,0,0,0,14.23,4.38615a.56482.56482,0,0,1-.38836.477,4.0656,4.0656,0,0,0-2.7349,4.17595c.06439-.0193.03178.29086.1668.04559a3.49055,3.49055,0,0,1,.68562-.92181c.42455-.3847.76141-.31748,1.13105.14809a17.41738,17.41738,0,0,1,1.15052,1.84246,4.80222,4.80222,0,0,0,.46391.57356,5.04106,5.04106,0,0,1,1.22689,2.52849l.00025.2035c.00433.06107-.01772.15874.05166.1654.01373.00133.00907-.01082.01864-.01282V.00005C15.95292.00238,15.89876.08058,15.79418.23932Z"/><path class="m" d="M16.0659,13.459l.00025-.2035a4.86655,4.86655,0,0,1,1.33006-2.61219,6.15409,6.15409,0,0,0,.81823-1.28471,9.83634,9.83634,0,0,1,.75168-1.13014.6884.6884,0,0,1,1.17124.02562,4.90333,4.90333,0,0,1,.58728.83c.13045.24676.10241-.06256.16622-.04459A3.68271,3.68271,0,0,0,20.802,7.7902a4.19083,4.19083,0,0,0-2.70953-2.96078c-.15749-.06523-.26274-.12813-.29876-.31382A16.27829,16.27829,0,0,0,16.19619.26894c-.09443-.18586-.14144-.27122-.1941-.26889V13.6116C16.0743,13.59813,16.053,13.51543,16.0659,13.459Z"/><path class="v" d="M18.74964,9.74631c-.14.17638-.095.30283.104.388a.19853.19853,0,0,0,.15008-.27688C18.96778,9.72135,18.87219,9.69739,18.74964,9.74631Z"/><path class="v" d="M13.24785,9.74607c.14018.17617.09561.303-.10381.38836a.19873.19873,0,0,1-.15009-.27709C13.02989,9.72139,13.12551,9.69734,13.24785,9.74607Z"/></svg>