<svg xmlns="http://www.w3.org/2000/svg" viewBox="0 0 32 32"><defs><style>.a{fill:#f7f7f7;}.b{fill:#edeeee;}.c{fill:#fee1e9;}.d{fill:#c8cccb;}.e{fill:#b9bfbe;}.f{fill:#ff5f7e;}.g{fill:#373f3f;}.h{fill:#313d68;}.i{fill:#9090a2;}.j{fill:#6cd275;}.k{fill:#60c46f;}.l{fill:#909997;}.m{fill:#182a51;}.n{fill:#dadddc;}.o{fill:#d1d4d4;}.p{fill:#908f61;}.q{fill:#131313;}</style></defs><title>616-shelmet</title><path class="a" d="M11.98523,20.574c-1.865-.14965,1.87,4.40186,4.01477,2.01587V20.88208C14.773,20.78955,12.036,20.56421,11.98523,20.574Z"/><path class="b" d="M16.409,22.01147a2.21416,2.21416,0,0,0,.39569-.91992l-.21607-.17016c-.01416.00293-.24579-.01319-.58862-.03931v1.70776A3.23421,3.23421,0,0,0,16.409,22.01147Z"/><path class="c" d="M.05433,20.5541.00009,20.552v-.32668l.05467-.002Z"/><path class="d" d="M13.67938,26.12207c-.17352.08789-.3598.15039-.54028.22437a30.57224,30.57224,0,0,1-3.80023,1.69262,4.162,4.162,0,0,1-1.8183.27979c-.34454-.03809-.729-.08618-.8537-.47949-.12054-.38038.15009-.64356.412-.85376.74451-.59766,1.50616-1.17383,2.261-1.75855q-.22376-.10693-.44732-.21362-.24024.193-.48071.3855A17.5614,17.5614,0,0,0,6.2406,27.21118a.9594.9594,0,0,0,.151,1.50391,3.08083,3.08083,0,0,0,1.00476.52392,12.22353,12.22353,0,0,0,4.17432.477,13.20606,13.20606,0,0,0,3.32641-.54443c.37177-.113.73725-.24658,1.10291-.37915v-3.9873C15.24426,25.27441,14.47412,25.71948,13.67938,26.12207Z"/><path class="d" d="M14.96741,4.2168a7.26861,7.26861,0,0,0-1.5221,4.85937A6.37073,6.37073,0,0,0,14.9588,13.2356,1.8398,1.8398,0,0,0,16,13.22656V3.18481A6.85821,6.85821,0,0,0,14.96741,4.2168Z"/><path class="e" d="M17.1889,28.55176a4.32191,4.32191,0,0,1,2.23792,1.11914c.28119.23437.46448.57178.83.71875a1.85442,1.85442,0,0,0,2.42347-1.01734A9.26846,9.26846,0,0,1,24.97339,25.926c1.11078-1.04053,2.25561-2.0459,3.26568-3.19117a13.23468,13.23468,0,0,0,2.73542-4.55224,18.68719,18.68719,0,0,0,.98572-7.24073,12.42611,12.42611,0,0,0-.80085-3.772,8.26488,8.26488,0,0,0-4.62445-4.74707,12.45559,12.45559,0,0,0-3.81756-.895,12.46555,12.46555,0,0,0-3.34.13379,8.38092,8.38092,0,0,0-2.977,1.18775c-.13879.106-.26691.22338-.40033.33544V13.22656c.11047-.0227.22083-.04565.33136-.06225a14.50508,14.50508,0,0,1,2.0293-.19361,6.22077,6.22077,0,0,1-1.01392-2.54736,3.91456,3.91456,0,0,1,.934-3.53174,4.807,4.807,0,0,1,2.788-1.3623,6.20021,6.20021,0,0,1,4.80651,1.24511A4.615,4.615,0,0,1,27.29156,8.8457a6.50039,6.50039,0,0,1,.46351,2.63916A6.096,6.096,0,0,1,26.1,15.77588a4.04479,4.04479,0,0,1-1.73322,1.05566,7.16158,7.16158,0,0,1,.26141,2.21192,5.28324,5.28324,0,0,1-.90777,2.93091,2.40654,2.40654,0,0,1-1.8786,1.00219,6.6659,6.6659,0,0,1-2.70429-.59253,10.43445,10.43445,0,0,1-2.1159,1.77271c-.3324.22973-.679.43579-1.02161.64844v3.9873c.13281-.04834.26544-.09692.39868-.14355A1.53813,1.53813,0,0,1,17.1889,28.55176Z"/><path class="f" d="M10.67214,15.45832a21.04083,21.04083,0,0,1,2.13049,1.91629c.26848.26888.52864.54607.79256.81951l.05946.07319-.002-.00367a.22446.22446,0,0,0,.05982.20749,7.66646,7.66646,0,0,1,.34074,2.33l-.45672-.03086c-.53728-.06409-1.07552-.12137-1.61129-.19625-.16835-.02353-.231.00753-.23786.18769a1.97677,1.97677,0,0,0,.42847,1.36287,3.1678,3.1678,0,0,0,1.6092.98614,7.10138,7.10138,0,0,1-1.43137,3.06717c-.09565-.01434-.1924-.02359-.2868-.0438a16.42321,16.42321,0,0,1-2.727-.907l-.4473-.21353a27.49269,27.49269,0,0,1-6.35521-4.30115c-.13976-.12476-.20617-.13991-.31181.03314a1.50769,1.50769,0,0,1-.7052.60864.9797.9797,0,0,1-1.466-.8l.00043-.33075a1.81427,1.81427,0,0,1,.559-1.14735c.14751-.138.12084-.22713.03836-.38032a2.56308,2.56308,0,0,1-.33467-1.81562,1.56746,1.56746,0,0,1,1.76318-1.162c.6328.02478,1.05637.46793,1.18862,1.21334A5.52276,5.52276,0,0,1,3.18287,19.002c-.044.21913.02529.28568.20261.3496a10.94464,10.94464,0,0,0,3.62083.54792c.11223.00141.17939-.01994.18909-.15493a5.91984,5.91984,0,0,1,.46536-1.71936,6.24388,6.24388,0,0,1,1.471-1.67311A10.37847,10.37847,0,0,1,10.67214,15.45832Z"/><path class="g" d="M10.67214,15.45832a10.37847,10.37847,0,0,0-1.54034.89379,6.24388,6.24388,0,0,0-1.471,1.67311A20.20109,20.20109,0,0,1,3.30939,13.8303a4.45407,4.45407,0,0,1-.78614-1.59289.63731.63731,0,0,1,.03505-.50311,15.58354,15.58354,0,0,1,5.24692,1.75733A16.80975,16.80975,0,0,1,10.67214,15.45832Z"/><path class="h" d="M14.56,13.24328c-.004.23178-.205.2557-.35369.314a3.6184,3.6184,0,0,1-1.73637.12058,7.82047,7.82047,0,0,1-2.76649-.783,3.984,3.984,0,0,1-1.48452-1.28555l.01413-.09055c1.18918.41385,2.35674.89081,3.57489,1.2201A14.00087,14.00087,0,0,0,14.56,13.24328Z"/><path class="i" d="M8.233,11.51879l-.01413.09055L8.109,11.47726C8.1557,11.47509,8.20473,11.46593,8.233,11.51879Z"/><path class="j" d="M14.17126,23.13672c-.1289-.00293-.25744-.01709-.38623-.02612a7.10034,7.10034,0,0,1-1.43133,3.06713q.39258.0846.78528.16871c.1806-.074.36688-.13648.5404-.22437.79474-.40259,1.56488-.84766,2.32062-1.31689V22.52979A2.45883,2.45883,0,0,1,14.17126,23.13672Z"/><path class="k" d="M19.13751,22.384c-.39233-.1997-.79065-.38842-1.17547-.602-.39264-.21753-.7721-.45923-1.15729-.69067a2.21467,2.21467,0,0,1-.39575.92016,2.30169,2.30169,0,0,1-.409.51832v2.27539c.34259-.21265.68921-.41871,1.02161-.64844A10.43445,10.43445,0,0,0,19.13751,22.384Z"/><path class="l" d="M25.87531,6.77441a6.20034,6.20034,0,0,0-4.80658-1.24487,4.8037,4.8037,0,0,0-2.788,1.36231,3.91387,3.91387,0,0,0-.934,3.53149A6.2215,6.2215,0,0,0,18.3606,12.9707l.5852.00147a7.619,7.619,0,0,1-1.01434-2.55445A3.567,3.567,0,0,1,20.624,6.104a6.24153,6.24153,0,0,1,3.916.16211,3.98112,3.98112,0,0,1,2.56335,3.009,7.75017,7.75017,0,0,1-.45447,4.49,4.32582,4.32582,0,0,1-2.2882,2.54345c-.05872.02662-.12189.04322-.18293.06446a1.40054,1.40054,0,0,0,.189.45849A4.04211,4.04211,0,0,0,26.1,15.77588a6.09571,6.09571,0,0,0,1.65509-4.291,6.4982,6.4982,0,0,0-.46351-2.63916A4.6168,4.6168,0,0,0,25.87531,6.77441Z"/><path class="g" d="M12.35367,26.17784q.3926.08441.78533.16873a30.58711,30.58711,0,0,1-3.80011,1.69258,4.15946,4.15946,0,0,1-1.81836.27973c-.34444-.03795-.729-.08593-.85368-.47948-.12055-.38036.15008-.64351.412-.85374.74459-.59755,1.50618-1.17392,2.261-1.75865a16.42374,16.42374,0,0,0,2.727.907C12.16127,26.15425,12.258,26.1635,12.35367,26.17784Z"/><path class="e" d="M24.54,6.26611A6.24153,6.24153,0,0,0,20.624,6.104a3.567,3.567,0,0,0-2.69256,4.31372,7.619,7.619,0,0,0,1.01434,2.55445l1.17944.12817a2.73645,2.73645,0,0,1-.00555-2.61963,2.07876,2.07876,0,0,1,2.4129-.89575,2.63387,2.63387,0,0,1,2.08948,2.698,2.77413,2.77413,0,0,1-1.19836,2.17285c-.06189.04419-.134.073-.16449.15015a5.88434,5.88434,0,0,1,.91851,1.76709c.061-.02124.12421-.03784.18293-.06446a4.32582,4.32582,0,0,0,2.2882-2.54345,7.75017,7.75017,0,0,0,.45447-4.49A3.98112,3.98112,0,0,0,24.54,6.26611Z"/><path class="e" d="M21.3208,10.219a1.71858,1.71858,0,0,0-.9552,2.33008,1.44988,1.44988,0,0,1,.21362.62232,5.59216,5.59216,0,0,1,2.41266,1.17773,2.7395,2.7395,0,0,0,.968-1.14355,2.78181,2.78181,0,0,0-.01941-2.29981A2.05943,2.05943,0,0,0,21.3208,10.219Z"/><path class="l" d="M22.53259,9.585a2.07876,2.07876,0,0,0-2.4129.89575,2.73645,2.73645,0,0,0,.00555,2.61963l.454.07105a1.44988,1.44988,0,0,0-.21362-.62232,1.71858,1.71858,0,0,1,.9552-2.33008,2.05943,2.05943,0,0,1,2.61969.68677,2.78181,2.78181,0,0,1,.01941,2.29981,2.7395,2.7395,0,0,1-.968,1.14355.77967.77967,0,0,0,.26734.25684c.03045-.07715.1026-.106.16449-.15015A2.77413,2.77413,0,0,0,24.62207,12.283,2.63387,2.63387,0,0,0,22.53259,9.585Z"/><path class="h" d="M15.697,15.06909a8.60061,8.60061,0,0,0-2.52484-.09643,3.30107,3.30107,0,0,0-.6076.09765c-.18195.05054-.40308.09888-.41156.34986-.0091.26953.2268.31225.41088.39379a1.09843,1.09843,0,0,0,.15693.04053,5.31324,5.31324,0,0,0,1.45257.13184,5.7642,5.7642,0,0,0,1.518-.1333c.0968-.02442.20788-.04248.30859-.07349v-.63745A2.97012,2.97012,0,0,0,15.697,15.06909Z"/><path class="m" d="M16.26733,15.48291A.322.322,0,0,0,16,15.14209v.63745C16.14105,15.73608,16.25928,15.66406,16.26733,15.48291Z"/><path class="k" d="M16.39374,20.95923c.06506-.01245.13006-.02466.19488-.03784l-.09088-.07154a.78019.78019,0,0,0-.08832-.09155c-.14251-.10669-.27069-.229-.40942-.33984v.501l.26447.01392Z"/><path class="h" d="M14.09094,16.99951c-.11755.02271-.29522.02539-.29809.19434-.00244.144.161.16308.26727.20166A7.43428,7.43428,0,0,0,16,17.75635V16.9126A6.47466,6.47466,0,0,0,14.09094,16.99951Z"/><path class="m" d="M17.01508,17.75049c.16986-.0232.38641-.01172.415-.2312.02613-.20044-.15417-.2937-.31616-.36914a1.20093,1.20093,0,0,0-.18207-.07056A5.655,5.655,0,0,0,16,16.9126v.84375c.20123.01636.4043.03076.61053.04541C16.71362,17.78857,16.8645,17.77075,17.01508,17.75049Z"/><path class="n" d="M14.06006,17.39551c-.1062-.03858-.26965-.05762-.26721-.20166.00287-.169.18054-.17188.29809-.19434A6.46639,6.46639,0,0,1,16,16.9126V15.7793c-.10071.03125-.21179.04907-.30859.07373a5.74372,5.74372,0,0,1-1.51825.133,5.29285,5.29285,0,0,1-1.45233-.13183,1.03557,1.03557,0,0,1-.15687-.04053c-.18408-.08154-.42-.124-.41094-.39355.00854-.25074.22961-.29932.41156-.34986a3.30083,3.30083,0,0,1,.60754-.0979,8.60134,8.60134,0,0,1,2.5249.09668,2.908,2.908,0,0,1,.303.073V13.22656a1.8398,1.8398,0,0,1-1.0412.009c-.13013.14917-.26654-.02759-.39886.00756-.004.23194-.205.25586-.35364.31421a3.61792,3.61792,0,0,1-1.73639.12061,7.81863,7.81863,0,0,1-2.76654-.7832,3.985,3.985,0,0,1-1.48456-1.2854L8.109,11.47705a15.02159,15.02159,0,0,0-2.17188-.77051,3.39869,3.39869,0,0,0-2.67163.27393,1.33331,1.33331,0,0,0-.70715.75391,15.58191,15.58191,0,0,1,5.247,1.75732,16.77015,16.77015,0,0,1,2.86688,1.9668,21.01223,21.01223,0,0,1,2.13049,1.916c.2685.2688.52869.5459.7926.81934l.05945.07348-.002-.0039a.20088.20088,0,0,1,.13849.12744A21.94563,21.94563,0,0,0,16,20.41846V17.75635A7.43426,7.43426,0,0,1,14.06006,17.39551Z"/><path class="o" d="M16.49774,20.84985l.09088.07154.21607.17016c.38525.2312.76471.4729,1.15735.69043.38482.21363.78314.40235,1.17547.602a6.6659,6.6659,0,0,0,2.70429.59253,2.40654,2.40654,0,0,0,1.8786-1.00219,5.28324,5.28324,0,0,0,.90777-2.93091,7.15981,7.15981,0,0,0-.26147-2.21192,1.40086,1.40086,0,0,1-.189-.45849,5.88713,5.88713,0,0,0-.91845-1.76709.77932.77932,0,0,1-.2674-.25684,5.59238,5.59238,0,0,0-2.41272-1.17773q-.227-.03552-.45392-.07129-.58968-.06336-1.17944-.12793l-.58514-.00147a14.50508,14.50508,0,0,0-2.0293.19361c-.11053.0166-.22089.03955-.33136.06225v1.91553a.32184.32184,0,0,1,.26733.34082A.31374.31374,0,0,1,16,15.7793v1.1333a5.655,5.655,0,0,1,.93188.167,1.21947,1.21947,0,0,1,.182.07031c.162.07569.34241.16919.31622.36963-.02862.21924-.24517.208-.415.231-.15058.02051-.3014.03833-.40455.051-.20623-.0144-.4093-.0288-.61053-.04516v2.66211c.13873.11084.26691.23315.40942.33984A.78019.78019,0,0,1,16.49774,20.84985Z"/><path class="j" d="M13.79114,18.39087h0a.19994.19994,0,0,0-.13849-.1272.22468.22468,0,0,0,.05987.20752h.00007a7.66549,7.66549,0,0,1,.34063,2.32984l.12628.02172L16,20.91943v-.501A21.94563,21.94563,0,0,1,13.79114,18.39087Z"/><path class="p" d="M13.65465,18.26731l-.05946-.07319Z"/><path class="q" d="M14.05324,20.80108l.12624.02174a8.69868,8.69868,0,0,1-.135,1.42685c-.02479.12065-.03064.31765-.16982.31018-.13368-.00717-.133-.2072-.14619-.32888-.05255-.48607-.08929-.97383-.13189-1.46086Q13.82488,20.7857,14.05324,20.80108Z"/></svg>