<svg xmlns="http://www.w3.org/2000/svg" viewBox="0 0 32 32"><defs><style>.a{fill:#d1d4d4;}.b{fill:#a7794c;}.c{fill:#e3e5e5;}.d{fill:#2b3332;}.e{fill:#c8cccb;}.f,.m{fill:none;stroke-miterlimit:10;stroke-width:0.5px;}.f{stroke:#b1e346;}.g{fill:#dadddc;}.h{fill:#373f3f;}.i{fill:#b1e346;}.j{fill:#434c4b;}.k{fill:#b38658;}.l{fill:#edeeee;}.m{stroke:#bee758;}.n{fill:#bee758;}</style></defs><title>623-golurk-shiny</title><path class="a" d="M29.45918,13.6066a2.51134,2.51134,0,0,0-1.80108-1.35081L26.90763,10.192l2.36393-3.97738-.8255-.60034,1.50087-2.66413a9.11886,9.11886,0,0,0-4.05242.97564L24.09344,3.1807,21.12918,6.89005,22.262,9.70425l2.732,1.07625.41278,2.2257a2.43873,2.43873,0,0,0-1.08815,2.02624l.71292,1.61346s.45026,4.953,1.08815,4.84043.863-.90054.863-.90054c.77681.75864-.788,3.67719-.03749,3.3395,2.38318-.67663,4.75046-1.38025,3.18937-8.74278Z"/><rect class="b" x="23.29158" y="13.61715" width="7.72964" height="2.46944" transform="matrix(0.97582, -0.21857, 0.21857, 0.97582, -2.58957, 6.29467)"/><path class="c" d="M21.48934,10.06764,21.35118,11.794l-2.31334.27626-.82867,1.76087H16v4.11156a6.963,6.963,0,0,0,6.745-7.16219A7.58979,7.58979,0,0,0,22.571,9.18458Z"/><path class="c" d="M16,3.61824V5.8207h4.85905A6.53969,6.53969,0,0,0,16,3.61824Z"/><path class="d" d="M19.03784,12.07026l2.31334-.27626.13816-1.72636,1.0817-.88306a7.28256,7.28256,0,0,0-1.712-3.36388H16v8.01043h2.20917Z"/><rect class="e" x="18.12736" y="28.80321" width="5.62839" height="3.18943"/><polygon class="e" points="21.579 19.873 17.077 19.873 19.028 23.513 18.127 26.739 23.568 26.927 21.579 23.306 21.579 19.873"/><rect class="b" x="17.45193" y="26.523" width="6.86668" height="2.88062"/><path class="a" d="M22.262,19.86243l-2.16466-3.40725H16v4.13036C19.14,20.58276,22.262,20.34189,22.262,19.86243Z"/><polyline class="f" points="24.793 7.492 25.652 7.825 25.036 9.068 23.399 8.412 24.46 6.299 26.976 7.259 26.036 9.25"/><path class="g" d="M18.3505,4.06516l-.177-2.19746-1.3484-.74914H16v.63675C17.41191,1.75531,17.86534,2.39382,18.3505,4.06516Z"/><polygon class="g" points="17.499 0.007 16 0.007 16 1.119 16.825 1.119 17.499 0.007"/><path class="h" d="M16,1.75531V4.06516h2.3505C17.86534,2.39382,17.41191,1.75531,16,1.75531Z"/><rect class="i" x="16.48908" y="2.42954" width="0.41392" height="1.25253"/><path class="g" d="M4.01827,6.425l1.0741,3.767L4.3419,12.25579A2.51134,2.51134,0,0,0,2.54082,13.6066l-.67537,1.57591c-1.56109,7.36253.80619,8.06615,3.18937,8.74278.75047.33769-.8143-2.58086-.03749-3.3395,0,0,.2251.788.863.90054S6.96847,16.6459,6.96847,16.6459l.71292-1.61346A2.43873,2.43873,0,0,0,6.59324,13.0062L7.006,10.7805,9.738,9.70425l.81183-2.01674L7.68139,4.54316Z"/><path class="j" d="M7.90656,3.1807l-1.80107.74509a9.11886,9.11886,0,0,0-4.05242-.97564L3.55394,5.61428l-.8255.60034L5.09237,10.192,4.01827,6.425,7.68139,4.54316l2.86847,3.14435.321-.79746Z"/><rect class="k" x="3.60888" y="10.98704" width="2.46944" height="7.72964" transform="translate(-10.70783 16.33218) rotate(-77.37494)"/><path class="l" d="M9.255,10.78049A6.96292,6.96292,0,0,0,16,17.9426V13.831H14.48017l-.51795-.69043-1.69183-.31079-.51789-1.58813-1.76092-.31079L9.4737,9.20431l1.69183.48365,3.97064-3.86719H16V3.61813A6.96314,6.96314,0,0,0,9.255,10.78049Z"/><polygon class="h" points="15.136 5.821 11.166 9.688 9.474 9.204 9.992 10.931 11.753 11.242 12.27 12.83 13.962 13.141 14.48 13.831 16 13.831 16 12.963 16 7.141 16 5.821 15.136 5.821"/><rect class="a" x="8.24425" y="28.80321" width="5.62839" height="3.18943"/><polygon class="a" points="10.421 19.873 14.923 19.873 12.972 23.513 13.873 26.739 8.432 26.927 10.421 23.306 10.421 19.873"/><rect class="k" x="7.68139" y="26.523" width="6.86668" height="2.88062"/><path class="g" d="M9.738,19.86243l2.16466-3.40725H16v4.13036C12.86,20.58276,9.738,20.34189,9.738,19.86243Z"/><polyline class="m" points="7.207 7.492 6.348 7.825 6.964 9.068 8.601 8.412 7.54 6.299 5.024 7.259 5.964 9.25"/><path class="c" d="M13.6495,4.06516l.177-2.19746,1.3484-.74914H16v.63675C14.58809,1.75531,14.13466,2.39382,13.6495,4.06516Z"/><polygon class="j" points="14.501 0.007 16 0.007 16 1.119 15.175 1.119 14.501 0.007"/><path class="j" d="M16,1.75531V4.06516H13.6495C14.13466,2.39382,14.58809,1.75531,16,1.75531Z"/><rect class="i" x="15.09699" y="2.42954" width="0.41392" height="1.25253"/><polygon class="n" points="13.582 9.032 12.236 11.932 10.924 11.932 11.062 13.831 11.649 12.485 12.857 12.485 13.651 10.447 14.998 9.239 16 8.897 16 7.141 13.582 9.032"/><polygon class="i" points="19.245 7.098 20.695 6.788 20.143 5.821 20.143 6.408 18.727 6.408 18.727 7.167 16.276 6.926 16 7.141 16 8.897 19.349 7.754 19.245 7.098"/><path class="b" d="M16,9.10666v3.75073a1.81684,1.81684,0,0,0,.45667-.3064C17.62866,11.50729,16.99646,10.47116,16,9.10666Z"/><path class="k" d="M15.77912,8.80392c-1.12006-1.51977-2.02808-2.75171-3.37861-1.7561-1.35058.99536-.44256,2.22729.67756,3.74707.98126,1.3313,1.87048,2.53735,2.92193,2.0625V9.10666C15.92658,9.00632,15.856,8.90817,15.77912,8.80392Z"/></svg>