<svg xmlns="http://www.w3.org/2000/svg" viewBox="0 0 32 32"><defs><style>.a{fill:#58458c;}.b{fill:#eacea1;}.c{fill:#dbba8c;}.d{fill:#6e57a0;}.e{fill:#675099;}.f{fill:#d1d4d4;}.g{fill:#93c427;}.h{fill:#9acc2e;}.i{fill:#a2d336;}.j{fill:#e3e5e5;}.k{fill:#d3c17f;}.l{fill:#dadddc;}.m{fill:#998e9e;}.n{fill:#7a63ad;}.o{fill:#e8803a;}.p{fill:#8fb720;}.q{fill:#745da6;}.r{fill:#211915;}.s{fill:#aadb3d;}.t{fill:#edeeee;}.u{fill:#866eba;}.v{fill:#ef8c48;}</style></defs><title>641-tornadus-therian-shiny</title><path class="a" d="M10.13069,5.78521a.74011.74011,0,0,0,1.112-.03168.75018.75018,0,0,0,.04856-.1517c-.06822-.01343-.07876.05482-.11478.0847a.6767.6767,0,0,1-1.06659-.2119,1.213,1.213,0,0,1,.78131-1.65313,1.994,1.994,0,0,1,2.46658,1.42071l.15933-.11243c.03695-.09548-.02014-.17287-.04864-.25659a2.11756,2.11756,0,0,0-.96832-1.11053,1.99869,1.99869,0,0,0-2.16129.0793A1.39552,1.39552,0,0,0,10.13069,5.78521Z"/><path class="b" d="M20.05029,5.88977a1.009,1.009,0,0,1-1.35195,1.06107,3.0952,3.0952,0,0,1-.67242-.26034A1.91094,1.91094,0,0,1,17.18481,4.555a1.43238,1.43238,0,0,1,2.04251-.80293A3.10728,3.10728,0,0,1,21.12557,5.69a.732.732,0,0,1,.02319.12273A.31621.31621,0,0,1,21.057,5.781a2.81758,2.81758,0,0,0-.99415-.39753c-.04861-.07471-.09314-.15242-.14649-.22353a.93356.93356,0,0,0-1.24571-.3414.67855.67855,0,0,0-.31484.63485.49824.49824,0,0,0,.488.41633.40632.40632,0,0,0,.38817-.19569.37252.37252,0,0,0-.01657-.3848c-.036-.06954-.09347-.123-.17243-.08161-.08126.04261.0017.08926.01726.13017a.21458.21458,0,0,1-.08418.28212.27147.27147,0,0,1-.32683.02646.25374.25374,0,0,1-.09121-.30892.60678.60678,0,0,1,.98344-.26953,2.58413,2.58413,0,0,1,.47961.49412C20.07644,5.66724,20.0394,5.78064,20.05029,5.88977Z"/><path class="b" d="M25.39111,17.95624a1.94066,1.94066,0,0,1,.66728-1.78465.62588.62588,0,0,1,.67939-.11876.57.57,0,0,1,.32981.56947,1.94849,1.94849,0,0,1-1.20238,1.78432A.56184.56184,0,0,1,25.39111,17.95624Z"/><path class="c" d="M20.02108,5.56207a2.58413,2.58413,0,0,0-.47961-.49412.60678.60678,0,0,0-.98344.26953.25374.25374,0,0,0,.09121.30892.27147.27147,0,0,0,.32683-.02646.21458.21458,0,0,0,.08418-.28212c-.01556-.04091-.09852-.08756-.01726-.13017.079-.04141.13639.01207.17243.08161a.37252.37252,0,0,1,.01657.3848.40632.40632,0,0,1-.38817.19569.49824.49824,0,0,1-.488-.41633.67855.67855,0,0,1,.31484-.63485.93356.93356,0,0,1,1.24571.3414c.05335.07111.09788.14882.14649.22353Z"/><path class="c" d="M25.39111,17.95624a.56184.56184,0,0,0,.4741.45038,3.94965,3.94965,0,0,1-.74625.5997c-.04139.0077-.08349.022-.12-.01353.12-.24139.23277-.48685.36342-.72235C25.4222,18.16262,25.35823,18.05809,25.39111,17.95624Z"/><path class="d" d="M14.60885,1.561c-.14936.00864-.4368.05471-.4368.05471a11.14166,11.14166,0,0,0-3.29922.89611,1.14211,1.14211,0,0,0-.21833.10577,5.63323,5.63323,0,0,1-.7139.41755,4.6517,4.6517,0,0,0-1.05338.95449,2.7337,2.7337,0,0,0,.22756,3.802,2.30528,2.30528,0,0,0,2.80443.17383,4.35281,4.35281,0,0,0,.62188-.46,2.39824,2.39824,0,0,0,.76633-1.23983s.03357-.15656.049-.15132a1.78287,1.78287,0,0,0,.00124-.87228,1.99372,1.99372,0,0,0-2.46652-1.42048,1.21281,1.21281,0,0,0-.78131,1.65294.67642.67642,0,0,0,1.06666.21179c.03587-.02958.0464-.09764.11473-.08455a.74843.74843,0,0,1-.04856.15157.73934.73934,0,0,1-1.11189.03168,1.395,1.395,0,0,1,.20806-1.943,1.99816,1.99816,0,0,1,2.16121-.07958,2.12013,2.12013,0,0,1,.96843,1.11077c.0284.08378.08573.161.04862.25656.17665-.45473.788-.74846,1.6413-.82464l.08508-.02121c.25139.005.50349.0199.75651.04739V1.60833A5.08576,5.08576,0,0,0,14.60885,1.561Z"/><path class="e" d="M27.15417,11.51291a9.72623,9.72623,0,0,0-.63739-1.60922,15.63632,15.63632,0,0,0-.82131-1.4553,16.76745,16.76745,0,0,0-5.94715-5.634,3.88237,3.88237,0,0,1-.7302-.39818,1.74854,1.74854,0,0,1-.62176-.22514l.00727.00393A12.43223,12.43223,0,0,0,16.30427,1.661s-.25767-.05026-.28064-.05L16,1.60833V4.33122a6.70744,6.70744,0,0,1,.73845.1199c.14928.03377.29772.06937.44635.10393a1.43263,1.43263,0,0,1,2.04249-.80318,3.10743,3.10743,0,0,1,1.89824,1.9383.71944.71944,0,0,1,.02317.12252.3098.3098,0,0,1-.09176-.03168,2.8161,2.8161,0,0,0-.994-.3974c-.01394.05943-.02781.11912-.04188.17828.05536.10524.01839.2186.02932.328a3.53872,3.53872,0,0,1,.90154.57436,12.55224,12.55224,0,0,1,2.74965,2.752c.04182.05759,1.64522,2.67392,1.4117,2.75141a9.72786,9.72786,0,0,1,.52574,3.3627,4.75538,4.75538,0,0,1-3.54137,4.53918,11.46433,11.46433,0,0,1-1.54875.35054,6.71507,6.71507,0,0,1-.00537.91522,9.53345,9.53345,0,0,0,4.11378-1.16287,5.47609,5.47609,0,0,0,2.69081-3.54831A8.71328,8.71328,0,0,0,27.15417,11.51291Zm-1.28893,6.894a3.94855,3.94855,0,0,1-.74629.5995c-.04137.00759-.08352.022-.12-.01361.12023-.24111.2328-.48693.3635-.72254.05988-.10734-.00425-.21232.02867-.31415a1.94232,1.94232,0,0,1,.66717-1.78489.6263.6263,0,0,1,.67954-.11833.57006.57006,0,0,1,.32979.5694A1.94932,1.94932,0,0,1,25.86524,18.4069Z"/><path class="f" d="M20.56415,23.62264c1.48812.72509,2.71249,1.07838,2.92,0,.58092-.43281,1.32012-.7172.94087-2.05265-.17045-1.08961-.02967-1.995,1.29522-2.19956-1.59337-.68776-1.96952.04765-2.01184,1.17308-.61345-.39032-.68741,1.13768-1.03071.953-.93546-.2331-1.02634-.50232-.683-.79035.26993-.34388.16012-.59215-.45945-.71265.57351-.8987.01017-1.74246-.97108-2.56589l-2.868.20456.96591,5.46687Z"/><path class="e" d="M16.39054,29.22548a1.55036,1.55036,0,0,1,1.29092.43858l.01472-.60338A1.02264,1.02264,0,0,0,16.39054,29.22548Z"/><path class="g" d="M30.57444,6.13546a11.87907,11.87907,0,0,1-2.34114,1.6332,13.44228,13.44228,0,0,0,2.07679-2.49092,5.65718,5.65718,0,0,0-.90622-1.54094,19.481,19.481,0,0,1-1.76743,2.3847,15.35359,15.35359,0,0,0,1.15221-3.02329,7.16957,7.16957,0,0,0-1.52477-1.031C22.97259,12.88285,17.92647,12.40937,18.10881,13.859l1.03027,3.0509.30867,1.12452h.48092l.16367-1.21739.09553,1.21739h.47742l.28652-1.289.191,1.289.62069-.16724.11935-1.313.52523,1.12208.74012-.33416-.21489-1.4086.764,1.21769.66841-.33417-.26262-1.21769.71622,1.09811.74011-.573L24.7,15.09789l1.45633.5967.31034-.66833-1.31307-.52508,2.19637.33417.573-1.09811-1.695-.16724a17.82163,17.82163,0,0,0,2.95591-.339,16.14263,16.14263,0,0,0,.76917-1.66052,12.42172,12.42172,0,0,1-2.57917.25465c.98512-.24767,1.98823-.4929,2.76029-.76576a11.2599,11.2599,0,0,0,.54906-2.29122,23.615,23.615,0,0,1-2.808,1.06776,17.03959,17.03959,0,0,0,2.86166-1.73943A7.20855,7.20855,0,0,0,30.57444,6.13546Z"/><path class="h" d="M17.75172,21.757a14.06328,14.06328,0,0,0,1.22248-3.54381,4.95817,4.95817,0,0,0-.86539-4.35419c-.45709-.40307-.67866-1.31877-.661-2.75377L16,10.96678V24.29765c.29759-.03.51946-.08589.55672-.1645A12.88242,12.88242,0,0,0,17.75172,21.757Z"/><path class="i" d="M17.92048,9.72632A2.01534,2.01534,0,0,0,16,7.62783v4.19728A2.01562,2.01562,0,0,0,17.92048,9.72632Z"/><polygon class="j" points="17.107 11.174 17.366 10.575 18.252 11.174 18.032 10.475 18.731 9.936 17.712 9.726 18.052 9.017 16.854 9.836 16 9.157 16 11.334 16.714 10.375 17.107 11.174"/><path class="k" d="M16.31216,9.4052l.54162.43069A.78812.78812,0,0,0,16.9,8.72564,1.68118,1.68118,0,0,0,16.31216,9.4052Z"/><path class="l" d="M16.63457,6.98287c0-.67137-.28409-1.21557-.63457-1.21557V8.19844C16.35048,8.19844,16.63457,7.65424,16.63457,6.98287Z"/><path class="m" d="M16.84376,8.12013c.26368.07831,1.50626-2.96774,1.07672-3.29007C17.6373,4.87892,16.58153,8.03424,16.84376,8.12013Z"/><path class="n" d="M19.02427,15.77988C18.36209,13.9585,17.54617,13.536,16,15.29638v1.80347C17.10676,19.34919,18.58062,19.13066,19.02427,15.77988Z"/><polygon class="o" points="16 21.164 16 23.099 16.51 22.15 16 21.164"/><path class="d" d="M27.68417.96482q-.20874.57045-.42029,1.10236a7.16957,7.16957,0,0,1,1.52477,1.031c.14728-.53114.28424-1.07747.39958-1.656A1.55269,1.55269,0,0,0,27.68417.96482Z"/><path class="d" d="M30.14323,2.3971a12.616,12.616,0,0,1-.73936,1.3397,5.65718,5.65718,0,0,1,.90622,1.54094,10.33975,10.33975,0,0,0,1.05068-2.069C30.96727,2.57223,30.56617,2.16036,30.14323,2.3971Z"/><path class="d" d="M30.78781,11.33372a6.99234,6.99234,0,0,1-.83481.23674,16.14263,16.14263,0,0,1-.76917,1.66052,8.88528,8.88528,0,0,0,1.413-.40094C31.01879,11.71524,31.08131,11.21839,30.78781,11.33372Z"/><path class="d" d="M31.33687,8.4373c-.20343.11382-.4253.22308-.65369.33083a11.2599,11.2599,0,0,1-.54906,2.29122,3.86068,3.86068,0,0,0,1.10729-.54511C32.28,9.30292,32.19361,8.23365,31.33687,8.4373Z"/><path class="d" d="M31.36077,5.19033a4.42171,4.42171,0,0,1-.78633.94513,7.20855,7.20855,0,0,1,.16238,1.961,4.42968,4.42968,0,0,0,1.19691-1.44988C31.89928,5.59339,31.73492,5.011,31.36077,5.19033Z"/><path class="d" d="M21.198,29.40729a3.55217,3.55217,0,0,0-.12224.77395l.91889.17361C21.87942,29.87773,21.68464,29.4859,21.198,29.40729Z"/><path class="d" d="M18.26982,30.21949l.29691.86379.48585-.80977C19.09659,29.63492,18.31383,29.5809,18.26982,30.21949Z"/><path class="d" d="M19.67334,30.2468l.89081.59367v-.75574C20.47142,29.57483,19.58069,29.7366,19.67334,30.2468Z"/><path class="p" d="M18.43447,20.15319a7.77652,7.77652,0,0,0-1.87775,3.98c2.32323.57516,2.19333,1.49176.88861,3.14682-.9355,1.51908.09249,2.93952.82449,2.93952.044-.63859.82677-.58457.78276.054l.62076-.02671c-.09265-.5102.79808-.672.89081-.16207l.51164.09651a3.55217,3.55217,0,0,1,.12224-.77395,1.36689,1.36689,0,0,0-.44495.00243l-.56681-.29684c-1.05432-.58972-.63009-1.03042.11519-1.9446C22.137,24.6385,22.77448,23.67181,18.43447,20.15319Z"/><path class="q" d="M24.56459,6.42168c-.56635-.28288-1.28795.23825-1.80764,1.05288-.60566.94939-.4882,1.72759-.00865,1.37339a.86687.86687,0,0,0,.25176.70415c.56636.28288,1.3756-.18817,1.80765-1.05258S25.13087,6.70485,24.56459,6.42168Z"/><ellipse class="r" cx="16.74115" cy="9.33757" rx="0.10658" ry="0.19515"/><path class="l" d="M11.43585,23.62256c-2.32521.85785-2.82805-2.28372-2.11352-2.126.93546-.233,1.02634-.50238.683-.79035-.68244-.09189-1.12817-1.18643-.27667-1.44875-.5735-.89872,1.21844-1.82981,1.70719-1.82981l2.868.20456-.96591,5.46687Z"/><path class="d" d="M15.60946,29.22548a1.55036,1.55036,0,0,0-1.29092.43858l-.01472-.60338A1.02264,1.02264,0,0,1,15.60946,29.22548Z"/><path class="h" d="M1.42556,6.13546A11.87907,11.87907,0,0,0,3.7667,7.76866,13.44228,13.44228,0,0,1,1.68991,5.27774,5.65718,5.65718,0,0,1,2.59613,3.7368,19.481,19.481,0,0,0,4.36356,6.1215,15.35359,15.35359,0,0,1,3.21135,3.09821a7.16957,7.16957,0,0,1,1.52477-1.031C9.02741,12.88285,14.07353,12.40937,13.89119,13.859l-1.03027,3.0509-.30867,1.12452h-.48092L11.90766,16.817l-.09553,1.21739h-.47742l-.28652-1.289-.191,1.289-.62069-.16724-.11935-1.313-.52523,1.12208-.74012-.33416.21489-1.4086-.764,1.21769L7.63428,16.817l.26262-1.21769L7.18068,16.6974l-.74011-.573L7.3,15.09789l-1.45633.5967-.31034-.66833,1.31307-.52508-2.19637.33417-.573-1.09811,1.695-.16724a17.82163,17.82163,0,0,1-2.95591-.339A16.14263,16.14263,0,0,1,2.047,11.57046a12.42172,12.42172,0,0,0,2.57917.25465c-.98512-.24767-1.98823-.4929-2.76029-.76576a11.2599,11.2599,0,0,1-.54906-2.29122,23.615,23.615,0,0,0,2.808,1.06776A17.03959,17.03959,0,0,1,1.26318,8.09646,7.20855,7.20855,0,0,1,1.42556,6.13546Z"/><path class="i" d="M14.24828,21.757a14.06328,14.06328,0,0,1-1.22248-3.54381,4.95817,4.95817,0,0,1,.86539-4.35419c.45709-.40307.67866-1.31877.661-2.75377L16,10.96678V24.29765c-.29759-.03-.51946-.08589-.55672-.1645A12.88242,12.88242,0,0,1,14.24828,21.757Z"/><path class="s" d="M14.07952,9.72632A2.01534,2.01534,0,0,1,16,7.62783v4.19728A2.01562,2.01562,0,0,1,14.07952,9.72632Z"/><polygon class="t" points="14.893 11.174 14.634 10.575 13.748 11.174 13.968 10.475 13.269 9.936 14.288 9.726 13.948 9.017 15.146 9.836 16 9.157 16 11.334 15.286 10.375 14.893 11.174"/><path class="k" d="M15.68784,9.4052l-.54162.43069A.78812.78812,0,0,1,15.1,8.72564,1.68118,1.68118,0,0,1,15.68784,9.4052Z"/><path class="j" d="M15.36543,6.98287c0-.67137.28409-1.21557.63457-1.21557V8.19844C15.64952,8.19844,15.36543,7.65424,15.36543,6.98287Z"/><path class="m" d="M15.15624,8.12013c-.26368.07831-1.50626-2.96774-1.07672-3.29007C14.3627,4.87892,15.41847,8.03424,15.15624,8.12013Z"/><path class="u" d="M12.97573,15.77988c.66218-1.82138,1.4781-2.24387,3.02427-.4835v1.80347C14.89324,19.34919,13.41938,19.13066,12.97573,15.77988Z"/><polygon class="v" points="16 21.164 16 23.099 15.49 22.15 16 21.164"/><path class="q" d="M4.31583.96482q.20874.57045.42029,1.10236a7.16957,7.16957,0,0,0-1.52477,1.031c-.14728-.53114-.28424-1.07747-.39958-1.656A1.55269,1.55269,0,0,1,4.31583.96482Z"/><path class="q" d="M1.85677,2.3971a12.616,12.616,0,0,0,.73936,1.3397,5.65718,5.65718,0,0,0-.90622,1.54094,10.33975,10.33975,0,0,1-1.05068-2.069C1.03273,2.57223,1.43383,2.16036,1.85677,2.3971Z"/><path class="q" d="M1.21219,11.33372a6.99234,6.99234,0,0,0,.83481.23674A16.14263,16.14263,0,0,0,2.81617,13.231a8.88528,8.88528,0,0,1-1.413-.40094C.98121,11.71524.91869,11.21839,1.21219,11.33372Z"/><path class="q" d="M.66313,8.4373c.20343.11382.4253.22308.65369.33083a11.2599,11.2599,0,0,0,.54906,2.29122,3.86068,3.86068,0,0,1-1.10729-.54511C-.28,9.30292-.19361,8.23365.66313,8.4373Z"/><path class="q" d="M.63923,5.19033a4.42171,4.42171,0,0,0,.78633.94513,7.20855,7.20855,0,0,0-.16238,1.961A4.42968,4.42968,0,0,1,.06627,6.64658C.10072,5.59339.26508,5.011.63923,5.19033Z"/><path class="q" d="M10.802,29.40729a3.55217,3.55217,0,0,1,.12224.77395l-.91889.17361C10.12058,29.87773,10.31536,29.4859,10.802,29.40729Z"/><path class="q" d="M13.73018,30.21949l-.29691.86379-.48585-.80977C12.90341,29.63492,13.68617,29.5809,13.73018,30.21949Z"/><path class="q" d="M12.32666,30.2468l-.89081.59367v-.75574C11.52858,29.57483,12.41931,29.7366,12.32666,30.2468Z"/><path class="g" d="M13.56553,20.15319a7.77652,7.77652,0,0,1,1.87775,3.98c-2.32323.57516-2.19333,1.49176-.88861,3.14682.9355,1.51908-.09249,2.93952-.82449,2.93952-.044-.63859-.82677-.58457-.78276.054l-.62076-.02671c.09265-.5102-.79808-.672-.89081-.16207l-.51164.09651a3.55217,3.55217,0,0,0-.12224-.77395,1.36689,1.36689,0,0,1,.44495.00243l.56681-.29684c1.05432-.58972.63009-1.03042-.11519-1.9446C9.863,24.6385,9.22552,23.67181,13.56553,20.15319Z"/><path class="n" d="M7.43541,6.42168c.56635-.28288,1.28795.23825,1.80764,1.05288.60566.94939.4882,1.72759.00865,1.37339a.86687.86687,0,0,1-.25176.70415c-.56636.28288-1.3756-.18817-1.80765-1.05258S6.86913,6.70485,7.43541,6.42168Z"/><ellipse class="r" cx="15.25885" cy="9.33757" rx="0.10658" ry="0.19515"/></svg>