<svg xmlns="http://www.w3.org/2000/svg" viewBox="0 0 32 32"><defs><style>.a{fill:#ab74b6;}.b{fill:#ba85c5;}.c{fill:#865193;}.d{fill:#a366ad;}.e{fill:#8c5699;}.f{fill:#53bf8c;}.g{fill:#46b080;}.h{fill:#965ba2;}.i{fill:#edeeee;}.j{fill:#e3e5e5;}.k{fill:#b370b9;}.l{fill:#dadddc;}.m{fill:#7ea369;}.n{fill:#3aa176;}.o{fill:#40a87b;}.p{fill:#373f3f;}.q{fill:#2b3332;}.r{fill:#e5c79a;}.s{fill:#379b6d;}.t{fill:#d1d4d4;}.u{fill:#eacea1;}.v{fill:#dbba8c;}.w{fill:#945ba0;}.x{fill:#a96eb5;}.y{fill:#dcdddb;}.z{fill:#b980c4;}.aa{fill:#113e6d;}.ab{fill:#929388;}.ac{fill:#e0c193;}</style></defs><title>641-tornadus</title><path class="a" d="M25.32985,13.06866l-.02364-.01343-.00358-.002.00307.00262Z"/><path class="b" d="M18.31046,21.6942l.00182.00934v-.12962Z"/><path class="c" d="M26.286,14.696c-.05073-.02745-.10291-.052-.152-.08175a.95251.95251,0,0,0-1.54965.63965c-.09328.39559-.16853.42391-.52587.19356-.07291-.047-.14006-.10276-.21085-.15327-.023-.01664-.05985-.047-.0716-.04-.04212.02539-.01081.06364-.00271.09809a1.30451,1.30451,0,0,0,.91876,1.02706,4.381,4.381,0,0,0,.86467.06686,4.99314,4.99314,0,0,0,.86168-.45777.38063.38063,0,0,0,.17991-.4931C26.49523,15.22847,26.3902,14.96222,26.286,14.696Z"/><path class="c" d="M24.09427,10.49487c-.231.26917-.25465.4782-.06949.689a.75106.75106,0,0,0,.56711.24582c.40361.01459.40354.01635.30705.39821-.00861.03416-.05233.07415-.006.10014a.1409.1409,0,0,0,.10619-.01051.743.743,0,0,0,.36537-.43A1.74926,1.74926,0,0,0,24.09427,10.49487Z"/><path class="d" d="M21.38552,3.2476l-.03949.02394-.06079.0473c-.01745.00321-.035.00584-.05263.00759-.25508.18889-.50477.38595-.76657.56491a11.89747,11.89747,0,0,1-1.20523.837c-.04269.09664-.17006.13255-.1783.25575a.92651.92651,0,0,0,.57688.73453c.38844.11211.54156.05109.73344-.29077a2.98721,2.98721,0,0,1,.303-.644.22368.22368,0,0,1-.0081-.0432l.019-.0076a4.0343,4.0343,0,0,1,.23034-.47353c.021-.05664.03974-.1134.09484-.13821.07787-.035.14674-.439.19273-.49794l.07269-.21867h0l.05474-.07065C21.38275,3.31271,21.40785,3.28964,21.38552,3.2476Z"/><path class="e" d="M27.4323,24.15676a2.94635,2.94635,0,0,0-1.713-3.73078,2.485,2.485,0,0,0-2.88559.91993c-.16926.21516-.31552.42448-.61761.43266.23509-.02131.29647.0362.17239.27238a2.58154,2.58154,0,0,0-.28589,1.54469.09709.09709,0,0,1,.00986.17166,1.91909,1.91909,0,0,0,.33909.87642,2.1493,2.1493,0,0,0,3.03288.46449,1.3075,1.3075,0,0,0,.13962-1.966.72942.72942,0,0,0-1.15435.20348c-.02453.04409-.00847.11678-.08226.12992a.80864.80864,0,0,1-.01043-.17137.79777.79777,0,0,1,1.10486-.46595,1.50425,1.50425,0,0,1,.54952,2.0337,2.1544,2.1544,0,0,1-2.14055.92342,2.28248,2.28248,0,0,1-1.40645-.73775c-.0613-.073-.14889-.12845-.149-.23881a7.26958,7.26958,0,0,1-4.01112,2.28448c-.002.01372-.00474.02715-.0081.04058l-.00387.00058v3.20673a.2607.2607,0,0,0,.19517-.052,10.02345,10.02345,0,0,0,2.44869-.70476,14.05023,14.05023,0,0,0,5.058-3.17754,1.24011,1.24011,0,0,0,.17823-.19122.792.792,0,0,1,.86241-.42653c-.06488-.01431-.12926-.031-.19458-.04263-.0735-.01284-.1913.00234-.2121-.0362-.03671-.06831.05627-.13167.09853-.193A5.02062,5.02062,0,0,0,27.4323,24.15676Z"/><path class="f" d="M16.88948,7.92516a.51175.51175,0,0,0,.4793-.09342c.28071-.21867.58674-.40493.88219-.60462l.06131-.05606V4.48662a3.07529,3.07529,0,0,0-.93853.24173c.21414.24378.2029.43734-.04372.75381a.6276.6276,0,0,1-1.08713-.0546,1.49035,1.49035,0,0,1-.30209.34829c-.1851.11211-.22546-.17633-.38136-.1921-.0273-.00291-.052-.02539-.07934-.03415a2.12316,2.12316,0,0,0-1.30872.08145c-.09765.02978-.1021.09371-.07721.18159.16239.574.39631,1.08137,1.07567,1.18267.089.01314.141.03212.05211.11182-.26136.23385-.44062.53747-.67826.79146a7.25839,7.25839,0,0,0-.36858.915,2.75471,2.75471,0,0,0,.06882,1.44484l.05635.1197a4.0252,4.0252,0,0,0,1.23748,1.58,1.9561,1.9561,0,0,1,.16087.16349,12.27952,12.27952,0,0,1,2.50124.35238l.1124.05459V9.62428a3.699,3.699,0,0,0-.61958.70856c-.139.165-.22881.19326-.3669-.00789a2.77827,2.77827,0,0,0-.45515-.59557,1.016,1.016,0,0,0-.07671.12087c-.08364.18247-.14247.13225-.20647-.0146-.11459-.263-.242-.52083-.35165-.78592-.056-.13517-.112-.15589-.22955-.06452-.13546.1054-.28326.19473-.42565.29107l-.04212.02453c-.02124-.04438-.00211-.073.03621-.09459.15356-.38712.15188-.3807-.27524-.49252-.09648-.02539-.26311.01957-.27735-.09546-.01175-.09518.15452-.11649.24217-.16933.07416-.04438.15437-.07912.22969-.122.12481-.07095.29348-.11737.35953-.22539.07357-.12057-.10612-.22392-.15188-.34566a.55679.55679,0,0,1-.01854-.09868.57562.57562,0,0,1,.11255.005Q16.343,7.79173,16.88948,7.92516Zm-.70957-1.05743a2.2161,2.2161,0,0,1,.08138-.3372.66512.66512,0,0,1,.67914-.5217.7257.7257,0,0,1,.67162.61717c.01175.05635.01124.11532.01941.17283.09138.64024.05219.68724-.58754.67673a2.90934,2.90934,0,0,1-.49864-.04583C16.14261,7.32667,16.1067,7.28054,16.17991,6.86773Z"/><path class="g" d="M21.46646,6.99823c.67688-.108.91343-.61075,1.074-1.18471.01905-.06832.03934-.13955-.05029-.16875a1.57674,1.57674,0,0,0-1.425-.02773c-.33311.23239-.451.12261-.61513-.12379a.61987.61987,0,0,0-.05729-.06539c-.19181.34186-.34493.40288-.73337.29077a.92651.92651,0,0,1-.57688-.73453c.00824-.1232.13561-.15911.1783-.25575a1.5948,1.5948,0,0,0-.69089-.18188.22379.22379,0,0,0-.20516.05518.22364.22364,0,0,1,.20509-.05518c-.07452-.06131-.16926-.03824-.253-.06072l-.00453.00087V7.17106l.00577-.00525c.29275.20407.59505.39617.87488.61659a.63167.63167,0,0,0,.63484.12086c.33-.10072.672-.16319,1.00918-.24.03606-.00817.08927-.02131.10941-.0035.046.04058-.00679.08379-.0246.12028-.1664.3407-.16743.34012.16868.517.14487.0762.29107.15035.434.23005.03883.0219.09554.06131.09525.09226-.00051.05284-.06532.05634-.113.06481-.123.02189-.24494.05109-.36858.06773-.20152.02744-.26392.11211-.1424.29516a.85272.85272,0,0,1,.065.1594c.03737.02131.05715.04934.03635.09313L21.055,9.27628a3.70624,3.70624,0,0,1-.3831-.25983c-.14313-.12437-.22173-.1121-.29114.06832-.07978.20757-.17211.41077-.27137.60958-.04583.09226-.05372.2464-.15407.26012-.11634.01606-.10663-.162-.1902-.2245a2.73628,2.73628,0,0,0-.455.595c-.13846.20086-.22881.172-.36749.00789a3.61386,3.61386,0,0,0-.62469-.7144c0,.85833.00183,1.71635-.00263,2.57438a.66.66,0,0,1-.003.19123v.14451c.04131.01985.08255.04.12386.06014l.34661.06131a3.76665,3.76665,0,0,0,.77439-.059,3.19654,3.19654,0,0,0,1.83612-.88168,6.82346,6.82346,0,0,0,.891-1.16048,2.68865,2.68865,0,0,0-.05993-2.351,4.19628,4.19628,0,0,0-.76716-1.04926C21.41391,7.10479,21.27692,7.0283,21.46646,6.99823Zm-1.93684.47733c-.57732.00467-.61849-.04846-.53441-.63294a1.23827,1.23827,0,0,1,.155-.52229.6614.6614,0,0,1,1.134.01139.13364.13364,0,0,1,.01379.0254C20.63237,7.28492,20.61135,7.45805,19.52962,7.47556Z"/><path class="h" d="M18.31527,12.19282c.00446-.858.00263-1.716.00263-2.57438l-.00562.00584v2.75977A.66.66,0,0,0,18.31527,12.19282Z"/><path class="i" d="M17.89983,1.22909A1.60875,1.60875,0,0,0,16.63461,2.401a2.47173,2.47173,0,0,0,.10394,1.80335l.03014.05255.039.06452a1.77248,1.77248,0,0,0,.56615.407,3.07434,3.07434,0,0,1,.93846-.24173V3.15389a.66547.66547,0,0,1,0-1.16107V1.17654C18.17572,1.20136,18.02873,1.14268,17.89983,1.22909Z"/><path class="j" d="M21.11627,3.79938c-.00131.01752-.15816.40347-.17918.46011l-.058.11648a2.32776,2.32776,0,0,0-.17218.35705.14028.14028,0,0,0-.011.0508c.22282.13774.58247-.74765.52879-1.16048A.32657.32657,0,0,0,21.11627,3.79938Z"/><path class="j" d="M20.52348,2.92646c-.12766.0146-.16488.02044-.13276-.13108a3.25165,3.25165,0,0,0,.07583-.92342A1.96226,1.96226,0,0,0,19.198,0l-.05912.01109a1.68285,1.68285,0,0,1,.21874,1.56016A1.24963,1.24963,0,0,1,19.593,2.65671a.8153.8153,0,0,1-.96334.61921c-.10379-.01343-.20517-.04554-.30764-.06919q-.00263.63936-.00518,1.279c.08378.02248.17852-.00059.253.06072a1.59484,1.59484,0,0,1,.691.18188,11.89747,11.89747,0,0,0,1.20523-.837c.2618-.179.51149-.376.76657-.56491A.57812.57812,0,0,0,20.52348,2.92646Z"/><path class="j" d="M18.31622,3.15827l-.00394-.00438V4.48662l.00453-.00087q.00263-.63936.0051-1.279Z"/><path class="k" d="M17.37382,4.72835a1.77248,1.77248,0,0,1-.56615-.407.114.114,0,0,1-.11861-.06072l.00219-.00643q-.67046-.46813-1.34083-.936l-.061-.04672L15.25035,3.247c-.02306.04117.00146.06481.032.08612l.05526.0727c.03955.09751.076.19648.11933.29194q.39171.86577.78592,1.72978a.6276.6276,0,0,0,1.08713.0546C17.57665,5.16569,17.58789,4.97213,17.37382,4.72835Z"/><path class="j" d="M18.13237,30.40381c-.10634.007-.21371.007-.319.02161a10.41389,10.41389,0,0,1-5.54953-.71118A11.61263,11.61263,0,0,1,9.17015,27.729c.0751.29253.13378.616.45689.72636.16407.05605.18415.12816.20728.26917A1.30814,1.30814,0,0,0,11.02553,29.923a1.743,1.743,0,0,0,.75038-.03912c.23217-.06744.325-.01635.38814.22888a.9812.9812,0,0,0,.67928.73629,1.43854,1.43854,0,0,0,.96656-.07649c.13649-.05547.20692-.042.293.09722.19779.32.39821.38332.704.20582.17217-.10014.1948.01752.25961.10072a1.54553,1.54553,0,0,0,2.1639.574.123.123,0,0,1,.14926.01226,1.23291,1.23291,0,0,0,.88087.20816l.05175.01868V30.35126A.2357.2357,0,0,0,18.13237,30.40381Z"/><path class="l" d="M27.87329,26.50108a.867.867,0,0,0-.81855-.70183.792.792,0,0,0-.86241.42653,1.24011,1.24011,0,0,1-.17823.19122,14.05023,14.05023,0,0,1-5.058,3.17754,10.02345,10.02345,0,0,1-2.44869.70476.2607.2607,0,0,1-.19517.052v1.63811l.00533.00175a1.47613,1.47613,0,0,0,.80986-.17954.24231.24231,0,0,1,.32106-.00175,1.32313,1.32313,0,0,0,1.4301-.04088,2.14749,2.14749,0,0,0,.64513-.6198c.08291-.12145.139-.13254.27224-.05751a.42692.42692,0,0,0,.645-.17575c.10831-.17721.19648-.18656.38194-.12262a1.11154,1.11154,0,0,0,1.62467-.79292c.04606-.14043.09532-.18627.23991-.12963a1.32668,1.32668,0,0,0,.286.047,1.41753,1.41753,0,0,0,1.78394-1.27989c.01051-.05838-.02555-.136.08422-.15152.32267-.04554.4234-.29836.51361-.56228.02729-.08.01284-.19327.16641-.18743.285.01022.38062-.18772.41164-.42945A2.0069,2.0069,0,0,0,27.87329,26.50108Z"/><path class="j" d="M8.64214,27.2635a1.88253,1.88253,0,0,1,.53369.47261C8.79461,27.7437,8.69665,27.657,8.64214,27.2635Z"/><path class="j" d="M18.31046,21.6942c-.65849-.13284-.88095-.02482-1.14881.58944-.05313.122-.07364.14422-.19407.07094a.46746.46746,0,0,0-.56587.05372c-.1078.08933-.14414.054-.22195-.03387-.37675-.42536-.45025-.43237-.93182-.11911-.04408.02861-.09167.06714-.11743.012-.07817-.1667-.27852-.202-.36449-.35589l-.07744-.04846a1.65671,1.65671,0,0,0-2.25324,1.26062c-.04678.18451-.09766.24436-.30063.20057a1.67116,1.67116,0,0,0-.80161.04963,2.05988,2.05988,0,0,1-.00467,2.47395c.13524.09371.26983.1886.406.28114a6.96673,6.96673,0,0,0,4.166,1.31113,15.93794,15.93794,0,0,0,2.41184-.29545v-5.441Z"/><path class="l" d="M22.11247,23.7673l-.00986-.17166A2.58154,2.58154,0,0,1,22.3885,22.051c.12408-.23618.0627-.29369-.17247-.27238q-.08573.01226-.17122.02511c-.01424.04554-.01475.11619-.04511.13312-.14816.08262-.20071.37574-.44879.2359-.40135-.22685-.59112-.20991-.90131.16115-.119.14247-.19232.14013-.276-.00467-.10845-.188-.24932-.18334-.41711-.09284a.44178.44178,0,0,1-.66148-.1959.74738.74738,0,0,0-.53295-.407c-.15327-.02832-.28151.12641-.44412.09868a.10575.10575,0,0,1-.00562-.02861v5.441l.00387-.00058c.00336-.01343.00606-.02686.0081-.04058a7.26958,7.26958,0,0,0,4.01112-2.28448l.11619-.17517A1.91909,1.91909,0,0,1,22.11247,23.7673Z"/><path class="c" d="M25.48188,22.83833a.79777.79777,0,0,0-1.10486.46595.80864.80864,0,0,0,.01043.17137c.07379-.01314.05773-.08583.08226-.12992a.72942.72942,0,0,1,1.15435-.20348,1.3075,1.3075,0,0,1-.13962,1.966,2.1493,2.1493,0,0,1-3.03288-.46449l-.11619.17517c.00014.11036.08773.16583.149.23881a2.28248,2.28248,0,0,0,1.40645.73775A2.1544,2.1544,0,0,0,26.0314,24.872,1.50425,1.50425,0,0,0,25.48188,22.83833Z"/><path class="m" d="M22.11247,23.7673a.09709.09709,0,0,0-.00986-.17166Z"/><path class="n" d="M22.96086,17.132a16.67378,16.67378,0,0,1-1.993-.33077c-.84394-.20291-1.689-.40085-2.5335-.60112a.12338.12338,0,0,0-.11678-.05868l-.00533-.00146v3.348l.00883-.01693c.08321-.06481.13853-.01693.192.04584a1.716,1.716,0,0,1,.44259.97831c.03912.47-.16349.69162-.63791.7176v.00029l-.00547-.00263v.4931a.10575.10575,0,0,0,.00562.02861c.16261.02773.29085-.127.44412-.09868a.74738.74738,0,0,1,.53295.407.44178.44178,0,0,0,.66148.1959c.16779-.0905.30866-.09517.41711.09284.08372.1448.157.14714.276.00467.31019-.37106.5-.388.90131-.16115.24808.13984.30063-.15328.44879-.2359.03036-.01693.03087-.08758.04511-.13312a5.51766,5.51766,0,0,1,.64644-2.92764c.354-.58739.68921-1.18325.98977-1.79926A5.11255,5.11255,0,0,1,22.96086,17.132ZM21.7814,18.29157a1.17393,1.17393,0,0,1-.5201-.306.22846.22846,0,0,1-.03613-.31472.26181.26181,0,0,1,.328-.10743.8055.8055,0,0,1,.46033.5579C22.05466,18.253,21.97248,18.31259,21.7814,18.29157Z"/><polygon class="b" points="25.306 13.056 25.306 13.055 25.303 13.053 25.306 13.056"/><path class="g" d="M18.25944,14.51146q-.548.4458-1.09626.8916c-.05342.04321-.09911.141-.18546.04a.91187.91187,0,0,0-.29048.29049l1.625.40639v-1.7327Z"/><path class="o" d="M26.11672,13.66569a5.6267,5.6267,0,0,0-.7522-2.17821.743.743,0,0,1-.36537.43.1409.1409,0,0,1-.10619.01051c-.04635-.026-.00263-.066.006-.10014.09649-.38186.09656-.38362-.30705-.39821a.75106.75106,0,0,1-.56711-.24582c-.18516-.21079-.16152-.41982.06949-.689a.82238.82238,0,0,0-.129-.05693,3.65419,3.65419,0,0,0-1.681.11094,6.82346,6.82346,0,0,1-.891,1.16048,3.19654,3.19654,0,0,1-1.83612.88168,3.76665,3.76665,0,0,1-.77439.059c.32384.12262.6517.23589.9697.37223.15641.06686.239-.03854.33829-.10014a5.87846,5.87846,0,0,1,1.88517-.87525,3.431,3.431,0,0,1,3.32672,1.00634l.00358.002.02364.01343-.02415-.01285-.00307-.00262c-.45011-.21546-.85088-.52025-1.325-.69659a3.45677,3.45677,0,0,0-2.73239.082,9.87186,9.87186,0,0,0-2.68656,1.799,1.64323,1.64323,0,0,1-.24071.15824l-.00569.01138v1.7327l.00533.00146a.12338.12338,0,0,1,.11678.05868c.84452.20027,1.68956.39821,2.5335.60112a16.67378,16.67378,0,0,0,1.993.33077,5.11255,5.11255,0,0,0,.72016-.05518,4.35109,4.35109,0,0,0,1.87575-.6306,4.381,4.381,0,0,1-.86467-.06686,1.30451,1.30451,0,0,1-.91876-1.02706c-.0081-.03445-.03941-.0727.00271-.09809.01175-.007.0486.02335.0716.04.07079.05051.13794.10627.21085.15327.35734.23035.43259.202.52587-.19356a.95251.95251,0,0,1,1.54965-.63965c.04905.02978.10123.0543.152.08175C26.23014,14.35235,26.18241,14.00727,26.11672,13.66569ZM22.389,13.62277a1.27156,1.27156,0,0,1-.60856.24465c-.23027.02161-.31756-.10276-.2402-.3226a.75681.75681,0,0,1,.69016-.43646c.15123-.00233.30457.01694.361.1778C22.65271,13.461,22.50761,13.53986,22.389,13.62277Z"/><path class="c" d="M22.23041,13.10836a.75681.75681,0,0,0-.69016.43646c-.07736.21984.00993.34421.2402.3226a1.27156,1.27156,0,0,0,.60856-.24465c.1186-.08291.2637-.16174.20239-.33661C22.535,13.1253,22.38164,13.106,22.23041,13.10836Z"/><path class="n" d="M16.97772,15.44305c.08635.101.132.00322.18546-.04q.549-.44493,1.09626-.8916l.05284-.10423V14.282C17.82437,14.61948,17.4279,15.06207,16.97772,15.44305Z"/><path class="b" d="M25.3057,13.05581l.02415.01285-.02364-.01343Z"/><path class="c" d="M21.55317,17.56346a.26181.26181,0,0,0-.328.10743.22846.22846,0,0,0,.03613.31472,1.17393,1.17393,0,0,0,.5201.306c.19108.021.27326-.03854.2321-.17021A.8055.8055,0,0,0,21.55317,17.56346Z"/><path class="p" d="M18.2771,9.03309c-.15334-.20815-.24173-.47-.60382-.43646-.16553.01548-.25669.0254-.328.17751-.151.32172-.31559.63732-.47463.95524a2.77827,2.77827,0,0,1,.45515.59557c.13809.20115.22793.17284.3669.00789a3.699,3.699,0,0,1,.61958-.70856V9.02755C18.29958,9.02842,18.29236,9.03485,18.2771,9.03309Z"/><path class="q" d="M18.94259,10.33284c.13868.16407.229.193.36749-.00789a2.73628,2.73628,0,0,1,.455-.595c-.15145-.301-.30115-.60316-.45478-.903a.4776.4776,0,0,0-.79767-.03474c-.058.0797-.0635.22626-.20035.23531v.59673l.00562-.00584A3.61386,3.61386,0,0,1,18.94259,10.33284Z"/><path class="r" d="M20.28423,6.33172a.6614.6614,0,0,0-1.134-.01139,1.23827,1.23827,0,0,0-.155.52229c-.08408.58448-.04291.63761.53441.63294,1.08173-.01751,1.10275-.19064.7684-1.11844A.13364.13364,0,0,0,20.28423,6.33172Zm-.76519.88109a.18559.18559,0,0,1-.32837-.03766c-.0878-.08291-.0589-.18714-.0524-.287l.0351-.06073c.10759-.13838.23415-.17633.35552-.03094A.29547.29547,0,0,1,19.519,7.21281Z"/><path class="n" d="M18.19988,12.474a12.27952,12.27952,0,0,0-2.50124-.35238A6.36537,6.36537,0,0,0,13.104,12.61c-.07393.03066-.21188.06365-.18976.12817.02277.06627.13546-.01694.20407-.03854a8.69464,8.69464,0,0,1,3.22556-.39092,6.82216,6.82216,0,0,1,1.96837.39472v-.17488Z"/><path class="s" d="M21.97591,12.04685a5.87846,5.87846,0,0,0-1.88517.87525c-.09926.0616-.18188.167-.33829.10014-.318-.13634-.64586-.24961-.9697-.37223l-.34661-.06131c-.04131-.02014-.08255-.04029-.12386-.06014v.17488l.00591.00175-.00065.00146a6.36333,6.36333,0,0,1,1.05954.4493c.13845.0797.14656.15123.01847.24757-.36027.27093-.71841.54448-1.07736.81716l-.00087.05722-.005.00409v.12524l.00569-.01138a1.64323,1.64323,0,0,0,.24071-.15824,9.87186,9.87186,0,0,1,2.68656-1.799,3.45677,3.45677,0,0,1,2.73239-.082c.47412.17634.87489.48113,1.325.69659A3.431,3.431,0,0,0,21.97591,12.04685Z"/><path class="l" d="M18.26367,2.86136a.43812.43812,0,0,1-.00146-.57747c-.00489-.03153.02-.05751.05007-.08262V1.99282a.66547.66547,0,0,0,0,1.16107V2.913Z"/><path class="t" d="M18.31673,1.98786l-.00445.005v.20845C18.38242,2.14288,18.48321,2.08975,18.31673,1.98786Z"/><path class="t" d="M19.35759,1.57125c-.052.05372-.10933.026-.16575.0111a1.53794,1.53794,0,0,0,.16692.39441.89552.89552,0,0,1,.09831.52609.76665.76665,0,0,1-1.08107.47792L18.31228,2.913v.24086l.00394.00438.00569.04846c.10255.02365.20393.05576.30772.06919a.8153.8153,0,0,0,.96334-.61921A1.24963,1.24963,0,0,0,19.35759,1.57125Z"/><path class="t" d="M18.31775,1.67343c0-.09021-.0016-.15239-.00547-.20845v.52784l.00445-.005C18.3171,1.88305,18.31768,1.778,18.31775,1.67343Z"/><path class="i" d="M18.31226,2.64111a.71888.71888,0,0,1-.04859.22022l.04859.05176Z"/><path class="i" d="M18.26221,2.28394a.438.438,0,0,0,.00146.57739.71888.71888,0,0,0,.04859-.22022V2.20117C18.28223,2.22632,18.25732,2.25244,18.26221,2.28394Z"/><path class="j" d="M19.35876,1.97681a1.53622,1.53622,0,0,1-.16693-.39453,1.9951,1.9951,0,0,0-.87408-.40577h-.00549v.28833c.0039.05616.00549.11841.00549.2085-.00006.10449-.00067.20972-.001.31445.16651.10205.06574.155-.00445.21338v.3042a.6429.6429,0,0,1,0,.13574v.272l.06372.06762a.7667.7667,0,0,0,1.08111-.47778A.89577.89577,0,0,0,19.35876,1.97681Z"/><path class="u" d="M8.98652,23.37278a1.08766,1.08766,0,0,1,1.776-.52673,3.33562,3.33562,0,0,1,.57054.52781,2.05981,2.05981,0,0,1-.00472,2.47395,1.544,1.544,0,0,1-2.36564-.00609,3.34934,3.34934,0,0,1-1.13311-2.69559.78946.78946,0,0,1,.02547-.13219.34047.34047,0,0,1,.07935.0682,3.03731,3.03731,0,0,0,.83851.793c.01906.09416.03284.18972.05808.28215a1.00629,1.00629,0,0,0,1.11288.83661.73142.73142,0,0,0,.56751-.51125.53705.53705,0,0,0-.32379-.61093.438.438,0,0,0-.46668.042.40154.40154,0,0,0-.13613.39221c.00852.084.04483.16039.14041.15023.09834-.01045.03372-.09013.03436-.13731a.23131.23131,0,0,1,.19636-.24931.29263.29263,0,0,1,.338.10321.27352.27352,0,0,1-.03122.3458.654.654,0,0,1-1.09254-.12026,2.78511,2.78511,0,0,1-.28451-.68556C8.872,23.58541,8.95412,23.48646,8.98652,23.37278Z"/><path class="u" d="M6.32523,15.27206a1.90361,1.90361,0,0,1,.28119,3.09029,1.01751,1.01751,0,0,1-1.60265-.60457,3.83907,3.83907,0,0,1,.07-2.94283c.04766-.131.07336-.3674.18218-.358.116.01.098.24288.13221.37937.04923.19664.08493.39667.12635.59531-.08977.31356-.18724.62511-.26716.94108a1.09283,1.09283,0,0,0,.22175.97787.356.356,0,0,0,.61964.01525l.05709-.05909.00111-.05788a.44851.44851,0,0,0,.04105-.4123c-.02936-.13961-.10077-.27711-.28135-.28233a.14147.14147,0,0,0-.15221.10693c-.0143.05107.00536.111.06017.10933.32684-.01006.27217.22141.27329.41922l.00024.00016-.05775.05869-.00016.00016-.05832.058c-.31159.10985-.39171-.1383-.45767-.33288A2.48922,2.48922,0,0,1,5.624,15.50658.78911.78911,0,0,1,6.32523,15.27206Z"/><path class="u" d="M8.42381,9.16026A2.09189,2.09189,0,0,1,7.04669,10.6839a.67464.67464,0,0,1-.728-.15066.61442.61442,0,0,1-.10447-.70161A2.10029,2.10029,0,0,1,8.12745,8.52072.60565.60565,0,0,1,8.42381,9.16026Z"/><path class="v" d="M8.88573,23.71277a2.78511,2.78511,0,0,0,.28451.68556.654.654,0,0,0,1.09254.12026.27352.27352,0,0,0,.03122-.3458.29263.29263,0,0,0-.338-.10321.23131.23131,0,0,0-.19636.24931c-.00064.04718.064.12686-.03436.13731-.09558.01016-.13189-.06623-.14041-.15023a.40154.40154,0,0,1,.13613-.39221.438.438,0,0,1,.46668-.042.53705.53705,0,0,1,.32379.61093.73142.73142,0,0,1-.56751.51125,1.00629,1.00629,0,0,1-1.11288-.83661c-.02524-.09243-.039-.188-.05808-.28215Z"/><path class="v" d="M5.624,15.50658a2.48922,2.48922,0,0,0-.10977,1.46721c.066.19458.14608.44273.45767.33288l.05832-.058.00015-.00016.05776-.05869-.00023-.00015.059.05914-.0011.05788-.0571.05909a.356.356,0,0,1-.61964-.01525,1.09283,1.09283,0,0,1-.22175-.97787c.07992-.316.17739-.62752.26716-.94108Z"/><path class="v" d="M8.42381,9.16026a.60565.60565,0,0,0-.29636-.63954,4.25786,4.25786,0,0,1,.9859-.30478c.04454.00871.09239.01115.11489.0612-.21612.19426-.42652.3955-.65093.57965C8.47457,8.9411,8.49718,9.07124,8.42381,9.16026Z"/><path class="w" d="M15.90044,27.44a6.96673,6.96673,0,0,1-4.166-1.31113c-.13619-.09254-.27078-.18743-.4061-.28114a1.54394,1.54394,0,0,1-2.36563-.00584,3.3493,3.3493,0,0,1-1.133-2.69583.78792.78792,0,0,1,.0254-.132.334.334,0,0,1,.0794.068A3.03713,3.03713,0,0,0,8.773,23.875l.11277-.16232c-.01372-.12729.06839-.22626.10079-.34012a3.82437,3.82437,0,0,1-.67542-.93364,13.52793,13.52793,0,0,1-1.66336-3.849c-.019-.07445-.0278-.15152-.04138-.22772a1.01729,1.01729,0,0,1-1.60256-.60433,3.83911,3.83911,0,0,1,.07-2.94281c.04766-.13108.07335-.36756.18218-.35822.116.00993.098.2429.13225.37924.04919.19677.08488.39675.12634.59557l.10948.07474a.79031.79031,0,0,1,.70118-.23444A10.4864,10.4864,0,0,1,7.133,11.6933,5.12655,5.12655,0,0,1,12.484,8.55022a12.34786,12.34786,0,0,1,1.69117.26333,7.25839,7.25839,0,0,1,.36858-.915,10.28,10.28,0,0,0-4.58421-.4674,5.90138,5.90138,0,0,0-4.105,2.48767,9.39293,9.39293,0,0,0-1.7551,4.9984l-.00124.17458.0019.11649.001.174q.00021.43923.00036.87846l-.0035.17517.00233.2321-.0008.11532a16.82522,16.82522,0,0,0,.24545,1.78437,18.07217,18.07217,0,0,0,3.7237,8.0069,4.17114,4.17114,0,0,1,.57367.689,1.88167,1.88167,0,0,1,.53368.47236l-.00569-.007a11.61263,11.61263,0,0,0,3.09374,1.98523,10.41389,10.41389,0,0,0,5.54953.71118c.10524-.0146.21261-.0146.319-.02161a.2357.2357,0,0,1,.17991-.05255V27.14453A15.93794,15.93794,0,0,1,15.90044,27.44ZM6.21419,9.83157A2.10018,2.10018,0,0,1,8.12746,8.52073a4.25469,4.25469,0,0,1,.9859-.30479c.04452.00876.0924.01109.11488.06131a.2323.2323,0,0,0,.06423-.038.2323.2323,0,0,1-.06423.038c-.21611.19414-.42653.39529-.651.57951-.1027.08437-.08007.21458-.15349.30333a2.09268,2.09268,0,0,1-1.37711,1.524.67492.67492,0,0,1-.728-.15065A.6148.6148,0,0,1,6.21419,9.83157Z"/><polygon class="x" points="13.075 16.846 13.073 16.845 13.072 16.845 13.075 16.846"/><path class="x" d="M18.31819,14.22068l-.00065-1.514.00065-.00146-.00591-.00175V14.282l.005-.00409Z"/><path class="j" d="M21.52441,8.5271c-.14288-.07959-.28912-.15381-.434-.23-.33612-.177-.33508-.17651-.1687-.51709.01783-.03638.07062-.07983.0246-.12036-.02014-.01758-.07336-.00464-.10937.00366-.33722.07666-.67914.13916-1.00922.24a.63223.63223,0,0,1-.63483-.12085c-.27984-.22046-.58215-.4126-.87488-.6167l-.00579.00513v.53515c.007.22339.00293.44678,0,.66993v.65161c.1369-.009.14233-.15552.20037-.23535a.47762.47762,0,0,1,.79767.03466c.15363.29981.30335.60206.45478.90308.08355.0625.07385.24048.19018.22461.1004-.01392.10828-.168.15412-.26025.09924-.19873.19158-.4021.27136-.60962.06939-.18042.148-.19263.29114-.06836a3.69722,3.69722,0,0,0,.38311.26h0l.04212.02319c.02075-.0437.001-.07178-.03638-.093h0a.85805.85805,0,0,0-.065-.15942c-.12152-.18311-.05915-.26782.14239-.29517.1236-.0166.24555-.0459.36853-.06787.04767-.0083.11249-.01172.113-.0647C21.61993,8.58838,21.56323,8.54907,21.52441,8.5271Z"/><path class="u" d="M17.044,7.47568a2.91312,2.91312,0,0,1-.49865-.04588c-.40266-.103-.43862-.1491-.36541-.56219a2.21362,2.21362,0,0,1,.08142-.33714.66527.66527,0,0,1,.67915-.52165.72574.72574,0,0,1,.67156.61706c.01177.05653.01128.1155.01947.17291C17.72288,7.43905,17.68364,7.48605,17.044,7.47568Zm.44973-.41958L17.494,6.944a.094.094,0,0,0,.0032-.056L17.462,6.827c-.10786-.138-.23441-.17566-.3555-.03025a.29569.29569,0,0,0,.0102.41633c.11242.12015.2344.1109.32821-.03784A.11616.11616,0,0,0,17.49368,7.0561Z"/><path class="g" d="M16.34391,12.30872a8.69464,8.69464,0,0,0-3.22556.39092c-.06861.0216-.1813.10481-.20407.03854-.02212-.06452.11583-.09751.18976-.12817a6.36537,6.36537,0,0,1,2.5946-.48842,1.9561,1.9561,0,0,0-.16087-.16349,4.0252,4.0252,0,0,1-1.23748-1.58h0l-.05635-.1197c-.02459.0508-.07233.05664-.12028.06189a.14894.14894,0,0,0,.12839.05576.14819.14819,0,0,1-.12839-.05576,1.66853,1.66853,0,0,0-.82285-.11094.41727.41727,0,0,1,.05357.5947.82337.82337,0,0,1-.83832.2499c-.36493-.113-.41967-.08963-.60265.25575-.00737.02277-.0151.06568-.022.06539-.04978-.00087-.02919-.042-.0327-.06977a.943.943,0,0,1,.102-.53777A2.60344,2.60344,0,0,0,10.915,12.14786c-.22611.75235-.23268,1.54031-.38515,2.3055a2.044,2.044,0,0,0,.09036,1.11319.98306.98306,0,0,1,.6187-.60813c.59134-.1702.97167.10715.972.7141.00007.12262-.08379.32552.00445.34888.1232.033.24947-.11386.35486-.21721.05313-.052.08357-.17108.15721-.14831.10145.03124.04846.15065.05657.23152a1.14444,1.14444,0,0,1-.47011.9497q.29449-.00308.58915-.00643c.06262-.06072.12028-.06627.17027.01431.49-.07941.98656-.1305,1.4682-.24465a5.68907,5.68907,0,0,0,2.14573-.86679.91187.91187,0,0,1,.29048-.29049c.45018-.381.84665-.82357,1.33456-1.16106V12.70344A6.82216,6.82216,0,0,0,16.34391,12.30872Zm-1.4636,2.83772a3.14127,3.14127,0,0,1-.79723.18655c-.08109-.01839-.17619-.0327-.2664-.06248-.131-.04291-.12006-.13517-.05722-.22771a1.27014,1.27014,0,0,1,1.0656-.39822c.11371.031.2664.05022.28611.20349C15.132,15.00952,15.00059,15.08951,14.88031,15.14644Z"/><path class="i" d="M18.251,7.22705c-.29547.19971-.6015.386-.88221.60474a.5122.5122,0,0,1-.4793.0935q-.54657-.13293-1.09382-.26318a.55473.55473,0,0,0-.11254-.00488.56044.56044,0,0,0,.01849.09863c.04578.12158.22546.2251.15192.3457-.066.10791-.23475.1543-.35956.22534-.07532.04273-.15552.07764-.22968.12207-.08764.05274-.2539.074-.24219.16919.01429.11524.18091.07007.27741.09546.42706.11182.42877.10547.27521.49243l.00592.07032c.14239-.09644.29016-.18579.42566-.291.11749-.09155.17352-.0708.22955.06445.10962.26514.23706.52271.35162.78589.064.14673.12287.197.20649.01441a1.006,1.006,0,0,1,.07672-.12061c.159-.31811.3236-.63379.47461-.95532.07128-.1521.16247-.16211.328-.17749.36212-.03369.4505.22827.60382.43652.01526.00171.02246-.00488.03516-.00561V7.1709Z"/><path class="i" d="M15.53851,9.30078l.04206-.02466-.00586-.06982C15.53638,9.22778,15.51727,9.25635,15.53851,9.30078Z"/><path class="y" d="M16.68907,4.26072l.07963-.0038.03895.06442A.1141.1141,0,0,1,16.68907,4.26072Z"/><path class="o" d="M18.26447,19.5808l.04781-.09284v-3.348l-1.625-.40639a5.68907,5.68907,0,0,1-2.14573.86679c-.48208.11415-.97911.16553-1.46951.24494a5.55335,5.55335,0,0,0,.72468,1.48162,5.72664,5.72664,0,0,1,.97481,3.34395.20658.20658,0,0,1,.05211.12145.2067.2067,0,0,0-.05218-.12145c-.01329.07007-.00059.15152-.08284.1921l.07736.04817H14.766c.08605.15415.28632.18948.36449.35618.02576.05517.07335.01664.11743-.012.48157-.31326.55507-.30625.93182.11911.07781.08788.11415.1232.22195.03387a.46746.46746,0,0,1,.56587-.05372c.12043.07328.14094.05109.19407-.07094.26786-.61426.49032-.72228,1.14881-.58944l.00182-.12028v-.36348l-.118-.05693a.61573.61573,0,0,1-.33354-.73541A1.51265,1.51265,0,0,1,18.26447,19.5808Zm-2.73465-1.57446a1.12488,1.12488,0,0,1-.54287.29194c-.12467-.005-.24334-.01722-.19189-.17662a.839.839,0,0,1,.43471-.54711.26544.26544,0,0,1,.35457.09605A.23612.23612,0,0,1,15.52982,18.00634Z"/><path class="e" d="M18.26447,19.5808a1.51265,1.51265,0,0,0-.40368.8373.61568.61568,0,0,0,.33362.73541l.11787.05693V19.488Z"/><path class="c" d="M18.51307,19.51687c-.05343-.06277-.10875-.11065-.192-.04584l-.00883.01693v1.72248l.00547.00234c.47442-.026.677-.24757.63791-.7176A1.716,1.716,0,0,0,18.51307,19.51687Z"/><path class="e" d="M14.98693,18.29839c-.12465-.00509-.24334-.01729-.19189-.17654a.839.839,0,0,1,.4347-.54726.26526.26526,0,0,1,.35461.09607.236.236,0,0,1-.05455.33565A1.12558,1.12558,0,0,1,14.98693,18.29839Z"/><path class="o" d="M18.31754,12.70665l.00065,1.514c.359-.27268.71709-.54623,1.07736-.81716.12809-.09634.12-.16787-.01847-.24757A6.36333,6.36333,0,0,0,18.31754,12.70665Z"/><path class="e" d="M10.62014,15.56668a.983.983,0,0,1,.61875-.60822c.59135-.17012.97167.10717.972.71417.00008.12244-.0838.3253.00446.34886.12316.03288.24946-.114.35485-.21718.05315-.052.08353-.17121.15719-.14849.10143.0313.04849.1506.05654.23168a1.14438,1.14438,0,0,1-.47012.94968c-.07658.004-.15339.005-.22961.01234C11.14922,16.939,10.85708,16.53313,10.62014,15.56668Z"/><path class="e" d="M13.30084,10.20924a.41741.41741,0,0,1,.05357.59475.82326.82326,0,0,1-.83833.24992c-.36491-.11288-.4197-.08963-.60266.25571q-.02742-.00137-.05472-.00411a.94372.94372,0,0,1,.1019-.53808A1.56737,1.56737,0,0,1,13.30084,10.20924Z"/><path class="z" d="M12.903,16.83054c.06315-.06119.12133-.06725.17152.01548Z"/><path class="v" d="M6.147,17.24883l-.059-.05914c-.00113-.19782.05354-.42929-.2733-.41923-.05481.00169-.07447-.05826-.06017-.10933a.14147.14147,0,0,1,.15221-.10693c.18058.00522.252.14272.28135.28233A.44851.44851,0,0,1,6.147,17.24883Z"/><path class="aa" d="M6.03024,17.24869l-.05832.058Z"/><path class="aa" d="M6.08876,17.3658l.0571-.05909Z"/><path class="aa" d="M6.08815,17.18984l-.05776.05869Z"/><path class="e" d="M14.0831,15.333c-.08107-.01846-.17623-.03284-.26641-.06241-.131-.04294-.12008-.13523-.05724-.22787a1.271,1.271,0,0,1,1.06558-.3983c.11373.03093.26643.0502.28617.2037.02075.1614-.11064.24153-.23092.29819A3.147,3.147,0,0,1,14.0831,15.333Z"/><path class="ab" d="M11.8587,11.30551q.0273.00274.05472.00411c-.00735.02291-.01509.06564-.022.06551C11.8416,11.3742,11.86215,11.33311,11.8587,11.30551Z"/><path class="v" d="M19.25249,6.88729l-.01182.172c.0462.07182.10094.11765.17962.04291a.154.154,0,0,0,.01649-.20523C19.37993,6.79416,19.31628,6.84379,19.25249,6.88729Z"/><path class="q" d="M19.52889,6.7965c-.12137-.14539-.24793-.10744-.35559.03094q.01741-.00525.00007,0l-.0351.06073c-.0065.09984-.0354.20407.0524.287a.18559.18559,0,0,0,.32837.03766A.29547.29547,0,0,0,19.52889,6.7965Zm-.1086.30566c-.07868.07474-.13342.02891-.17962-.04291l.01182-.172-.01-.016h.00008l.00992.016c.06379-.0435.12744-.09313.18429.00964A.154.154,0,0,1,19.42029,7.10216Z"/><path class="ac" d="M17.38292,6.88767l.0121.17171c-.04643.07218-.102.11759-.18041.04306a.15487.15487,0,0,1-.016-.206C17.25565,6.79331,17.31924,6.84308,17.38292,6.88767Z"/><path class="p" d="M17.462,6.82686c-.1078-.1378-.23436-.17575-.35552-.03007a.29574.29574,0,0,0,.01022.41631.18568.18568,0,0,0,.32822-.03795.116.116,0,0,0,.04875-.11911l.00037-.11211a.09351.09351,0,0,0,.00314-.05576Zm-.06693.23239c-.04649.0724-.102.11765-.18042.04321a.155.155,0,0,1-.01606-.20612c.05708-.10305.12065-.05313.18436-.00876l.012.17167Q17.41951,7.05663,17.39506,7.05925Z"/></svg>