<svg xmlns="http://www.w3.org/2000/svg" viewBox="0 0 32 32"><defs><style>.a{fill:#edeeee;}.b{fill:#e3e5e5;}.c{fill:#e9edf8;}.d{fill:#7fb8e0;}.e{fill:#71b1e1;}.f{fill:#6fbbe0;}.g{fill:#9fc9e4;}.h{fill:#8ec0e0;}.i{fill:#505957;}.j{fill:#5c6664;}.k{fill:#687271;}.l{fill:#675099;}.m{fill:#604893;}.n{fill:#58458c;}.o{fill:#373f3f;}.p{fill:#2b3332;}.q{fill:#534184;}.r{fill:#434c4b;}.s{fill:#e5c79a;}.t{fill:#eacea1;}.u{fill:#e9edf7;}.v{fill:#e8ecf7;}.w{fill:#e5e8f3;}.x{fill:#68609b;}.y{fill:#68619b;}.z{fill:#5da5cf;}.aa{fill:#559cc9;}.ab{fill:#3980a8;}.ac{fill:#377aa0;}.ad{fill:#b0d3ea;}.ae{fill:#81c9ec;}.af{fill:#3e88b3;}.ag{fill:#dbba8c;}.ah{fill:#e0c193;}</style></defs><title>642-thundurus</title><polygon class="a" points="18.87 4.855 17.947 5.512 15.584 3.607 15.966 5.589 15.05 6.213 14.436 6.541 15.265 6.479 17.242 8.777 18.936 8.867 18.936 4.902 18.87 4.855"/><polygon class="b" points="22.777 6.504 23.389 6.592 22.822 6.213 21.926 5.21 22.266 3.735 19.639 5.41 18.936 4.902 18.936 8.867 20.736 8.964 22.777 6.504"/><polygon class="c" points="17.564 25.068 17.564 25.068 17.563 25.071 17.564 25.068"/><path class="a" d="M17.9946,19.16357c-.08025.15158-.11451.37133-.36438.19-.00836-.006-.02673-.01159-.03161-.00728-.324.28628-.50074.005-.7248-.16879a.40182.40182,0,0,0-.53061.04335c-.1448.12577-.222.05263-.36422-.03078a.988.988,0,0,1-.50745-1.11765.33591.33591,0,0,0-.05063-.2598c-.00306.22472-.01283.44978-.00728.6745.005.20354-.01126.29124-.27933.24193a1.33173,1.33173,0,0,0-1.61169,1.41452c.02267.27469.01042.30349-.24963.182a1.11468,1.11468,0,0,0-1.58314.52324,4.16623,4.16623,0,0,1-.27759.70131c.15968-.13669.318-.275.47972-.4094.04592-.03806.08671-.11749.15737-.07182.0187.01225-.00331.10359-.02134.15357-.15489.42826-.31317.85553-.47046,1.28313a.8142.8142,0,0,0,.101.72182,1.622,1.622,0,0,1-.06379,1.58827,1.8051,1.8051,0,0,0,.624.44779A8.636,8.636,0,0,0,16.28619,26.444c.13429.0053.26808.02449.40212.03707a2.04573,2.04573,0,0,1,.87522-1.4132l.01506-.39583c-.0609-.4693-.12345-.93826-.18046-1.4079-.007-.05824-.05552-.14793.02367-.1754.07289-.02516.10863.06553.14487.11749.29754.42495.59085.85288.8883,1.27783.064.09168.13941.17475.20966.26212a1.94953,1.94953,0,0,1,.271.02979V18.66415A1.17255,1.17255,0,0,0,17.9946,19.16357Z"/><path class="b" d="M20.49575,25.96247a9.61056,9.61056,0,0,0,3.103-1.51911c.063-.045.132-.08141.19816-.12212a.37848.37848,0,0,0-.04021-.22638,2.16485,2.16485,0,0,1,.866-2.61954q-.17958-1.00479-.359-2.00959c-.009-.05063-.04593-.1069.02523-.14363a1.44712,1.44712,0,0,0-1.578-.54509c-.20015.05792-.26138.0182-.25352-.188.00985-.25881-.00347-.51861-.00687-.77808a2.32648,2.32648,0,0,0-.05163.83534.42994.42994,0,0,1-.17491.367c-.226.19361-.38681.375-.72256.13139-.20586-.14926-.45507.02218-.59871.238-.0863.12974-.16258.17541-.28727.048-.03707-.03773-.11633-.087-.14562-.07182-.3907.20222-.41089-.16217-.54658-.34883a.86276.86276,0,0,0-.06429-.07843,1.13256,1.13256,0,0,0-.9233-.26742V24.776A1.85984,1.85984,0,0,1,20.49575,25.96247Z"/><path class="d" d="M18.92551,18.22166c-.26766.00662-.54344-.369-.53053-.72249.01084-.29786.36464-.88631.54062-.90947V13.42738a13.08422,13.08422,0,0,0-1.6936-.275,3.40808,3.40808,0,0,1-1.2492.6275,8.48014,8.48014,0,0,1-2.076.38888A7.56654,7.56654,0,0,0,14.8902,16.13a2.98729,2.98729,0,0,1,.5307,1.6826.33591.33591,0,0,1,.05063.2598A.988.988,0,0,0,15.979,19.19c.14223.08341.21942.15655.36422.03078a.40182.40182,0,0,1,.53061-.04335c.22406.17375.40079.45507.7248.16879.00488-.00431.02325.00132.03161.00728.24987.18136.28413-.03839.36438-.19a1.17255,1.17255,0,0,1,.941-.49942v-.44547Zm-2.74945-2.8532a1.186,1.186,0,0,1-.48659.22207c-.3063.00563-.38126-.08605-.2579-.3068a.71307.71307,0,0,1,.54137-.40741.301.301,0,0,1,.34113.15423C16.38631,15.18444,16.29132,15.29631,16.17606,15.36846Z"/><path class="e" d="M19.8589,18.93157a.86276.86276,0,0,1,.06429.07843c.13569.18666.15588.55105.54658.34883.02929-.01522.10855.03409.14562.07182.12469.12742.201.08175.28727-.048.14364-.21578.39285-.38722.59871-.238.33575.24359.4966.06222.72256-.13139a.42994.42994,0,0,0,.17491-.367,2.32826,2.32826,0,0,1,.05155-.83534,3.06557,3.06557,0,0,1,.55055-1.71239,6.07727,6.07727,0,0,0,.81772-1.58761,10.05507,10.05507,0,0,1-3.501-.67615,10.29038,10.29038,0,0,0-1.38209-.40741V16.5897l.01316-.00828c.14736.00133.51133.62121.52763.89856.00066.01125.00008.02283.00008.03409a.68208.68208,0,0,1-.54087.70461v.44547A1.13256,1.13256,0,0,1,19.8589,18.93157Zm1.70783-3.92187a.31844.31844,0,0,1,.32186-.136.71755.71755,0,0,1,.58737.4928c.0863.21148-.07488.2138-.22671.22869a1.13823,1.13823,0,0,1-.62113-.28462A.21774.21774,0,0,1,21.56673,15.0097Z"/><path class="f" d="M17.42924,13.04413l.01573-.0288.00049-.00033-.00066.00033Z"/><path class="g" d="M18.46639,12.36566c-.15671.1079-.3183.20884-.47766.31276a.99524.99524,0,0,1-.54327.33659l-.0005.00033-.01572.02879.01556-.02879-.2028.137a12.97191,12.97191,0,0,1,1.6936.275V11.99466C18.77881,12.11777,18.63112,12.25247,18.46639,12.36566Z"/><path class="h" d="M23.81866,14.51094a.91542.91542,0,0,1,.47468-.08141q.22935-.06156.45879-.12378a3.13341,3.13341,0,0,0,1.0321-.5398,2.31151,2.31151,0,0,1-1.18095-.21148.98673.98673,0,0,1-.42611-.419,1.12,1.12,0,0,1-.14272-.44348c.1318.03045.16481.186.28264.22836.1126.04038.27924.22307.30795-.06851.0422-.4276.14918-.81945.61683-.94555a1.16806,1.16806,0,0,1,1.23721.32765.22989.22989,0,0,0,.05767.03442c-.32633-.93033-.703-1.84377-.94911-2.80091A1.64477,1.64477,0,0,0,25.13993,8.69a2.47208,2.47208,0,0,0-2.07139-.67979c-.0633.06123-.1649.11252-.18376.18534a3.19689,3.19689,0,0,1-.83,1.36553,3.99436,3.99436,0,0,1,2.70013.46864c.11824.06487.23126.139.34668.20851a.45414.45414,0,0,1,.22795.22836c-.13693.01721-.20453-.09333-.2953-.16085-.278-.11848-.55551-.238-.83393-.35545a3.30519,3.30519,0,0,0-3.49352.59374c-.60384.466-1.17069.979-1.77122,1.4506v1.43272a10.28584,10.28584,0,0,1,1.382.40741A10.05587,10.05587,0,0,0,23.81866,14.51094ZM21.8411,10.94452a1.108,1.108,0,0,1,.72968-.30779c.15522.00794.29869-.01291.35189.13139.05535.15059-.08042.22075-.17086.29687a1.461,1.461,0,0,1-.69468.32269.26627.26627,0,0,1-.31-.14761C21.68257,11.112,21.75976,11.02462,21.8411,10.94452Z"/><path class="g" d="M15.37018,10.03472c-.2574.0129-.5139.044-.77089.06685-.07173.096-.17748.05792-.27081.06851-.016.01489-.03094.04038-.0484.04236-.19386.02052-.36207.14761-.56354.13437a1.34467,1.34467,0,0,1,.544-.24491l.27081-.06652a6.37364,6.37364,0,0,1,1.62791-.20917A3.46891,3.46891,0,0,1,14.938,8.137a2.147,2.147,0,0,0-.98742-.16085,2.248,2.248,0,0,0-2.11533,1.865c-.17872.7195-.23523,1.46383-.41047,2.18631a1.10644,1.10644,0,0,0-.004.73142c.19046-.16812.33278-.38921.60515-.46135.68112-.18071,1.12882.25318,1.07637,1.05741l.0781.00761c.06694-.041.1328-.0834.20106-.12212.08473-.048.11857-.22472.20544-.17839.11832.06321.05751.22572.04311.34056a1.50966,1.50966,0,0,1-.32624.76385q.30655.001.6131.00232a8.46467,8.46467,0,0,0,2.076-.38888,3.40808,3.40808,0,0,0,1.2492-.6275l.2028-.137.00066-.00033c.1016-.16946.328-.21281.4065-.40477l.06834-.00033a9.19484,9.19484,0,0,0,1.0153-.90914V10.42359A12.17068,12.17068,0,0,0,15.37018,10.03472Zm.22364,2.49609a2.19284,2.19284,0,0,1-.89714.3998.33181.33181,0,0,1-.28877-.17607.30612.30612,0,0,1,.02615-.34751,1.42533,1.42533,0,0,1,1.06288-.31739c.10549.03277.22538.06553.24929.19858C15.76791,12.40869,15.66986,12.46694,15.59382,12.53081Z"/><path class="h" d="M19.72519,10.63309c-.262-.07877-.52581-.144-.78959-.2095v1.27718a11.15659,11.15659,0,0,1,.8552-.79729C19.94668,10.77805,19.96993,10.70689,19.72519,10.63309Z"/><path class="a" d="M17.59092,28.34173a1.84243,1.84243,0,0,1-.83485-1.21991l-.06718-.07149-.0005.0043a10.55,10.55,0,0,1-4.80992-1.41717q-.26534-.14645-.5316-.29124a.71583.71583,0,0,0,.035.61658,1.7043,1.7043,0,0,0,1.83558.71752c.16507-.07315.23085-.086.24036.13039a.935.935,0,0,0,.24169.512.95825.95825,0,0,0,1.26029.22009c.05543-.041.08646-.05759.13023.0086a.488.488,0,0,0,.639.13106c.18948-.06818.23109-.00695.27453.14231a.92189.92189,0,0,0,.44473.649.78157.78157,0,0,1,.46855.55171c.071.284.32732.38855.582.46136.28032.08009.56693.138.84742.21777.1481.042.27974.12676.248.31077a.63976.63976,0,0,0,.29034.60533c.02134.01919.03193.04236.051.06288V28.6439A1.8775,1.8775,0,0,1,17.59092,28.34173Z"/><path class="b" d="M19.25622,31.99486c.082.0331.126-.1016.17284-.17706.28231-.45408.01556-.81515-.19808-1.18616-.18947-.329-.1342-.555.201-.71454a1.16083,1.16083,0,0,0,.63834-.56627.60445.60445,0,0,1,.45623-.31971,4.21238,4.21238,0,0,0,1.13932-.62651A.45246.45246,0,0,0,21.888,28.114c.08381-.35743.24739-.54211.64777-.39748.1807.0652.291-.12146.43182-.187.09639-.04468.21578.21082.43314.20221a1.1618,1.1618,0,0,0,1.15455-.94753c.02267-.10326-.00314-.21082.16648-.13636a1.55022,1.55022,0,0,0,1.6931-.41568.753.753,0,0,0,.25079-.879l-.09648-.01291a2.15941,2.15941,0,0,1-2.48732-.66159,11.78076,11.78076,0,0,1-3.44885,1.8921,1.95241,1.95241,0,0,1-1.05468,1.86529,1.98393,1.98393,0,0,1-.64273.20784v2.0397a1.50182,1.50182,0,0,1,.33336,1.08191C19.26971,31.84593,19.148,31.95151,19.25622,31.99486Z"/><path class="i" d="M26.3874,21.22412a3.05484,3.05484,0,0,0-.60822-.06487,1.26988,1.26988,0,0,1,.08109.14827c.05444.14.29645.18534.21876.38259a.94144.94144,0,0,1-.43347.49909,1.23747,1.23747,0,0,1-.69121.10723c-.1846-.01225-.19593-.17011-.22936-.2929-.047-.17243-.06942-.35181-.10235-.52821a2.16485,2.16485,0,0,0-.866,2.61954.37912.37912,0,0,1,.04029.22638c.15.07513.19734.23233.285.35743a2.15918,2.15918,0,0,0,2.48716.66159,3.15842,3.15842,0,0,0,.90939-.72579,2.56115,2.56115,0,0,0,.41205-1.43272A2.274,2.274,0,0,0,26.3874,21.22412Z"/><path class="j" d="M11.55753,22.5056a.81434.81434,0,0,0,.101.72193,1.62157,1.62157,0,0,1-.06372,1.588l-.31815.46351a1.875,1.875,0,0,1-2.012.35525,1.79413,1.79413,0,0,1-.75478-2.73256,1.92077,1.92077,0,0,1,.52422-.50593,2.2438,2.2438,0,0,1,1.69491-.18464c-.015.07851-.08455.09751-.14181.12945-.20433.114-.39345.24355-.30552.52089a.86322.86322,0,0,0,.82329.52015c.29314-.03858.25546-.30069.29812-.49089C11.43467,22.75006,11.41773,22.59978,11.55753,22.5056Z"/><path class="j" d="M6.12726,19.73236a1.43625,1.43625,0,0,1-1.15794-1.08789,1.48766,1.48766,0,0,1,.42238-1.54016c.10238-.10234.21531-.19413.3234-.29082l.55014-.14323a1.70417,1.70417,0,0,1,.85128.1215.43489.43489,0,0,0,.29288-.00008c-.04911.12558-.17389.12425-.274.168-.19205.08382-.32825.21829-.25169.44391a.66409.66409,0,0,0,.59106.48015c.2224.01818.2939-.17889.334-.35831.02662-.11909.00354-.25372.155-.30627a.69973.69973,0,0,0,.006.57249,1.56308,1.56308,0,0,1-.69827,1.79649l-.61091.21331.00507.00239C6.50324,19.65118,6.308,19.74619,6.12726,19.73236Z"/><path class="k" d="M6.68266,11.59668c-.01981.064-.06654.13327-.05532.1913a1.46118,1.46118,0,0,1-.69533,1.5016l-.567.14318a1.40549,1.40549,0,0,1-1.47595-1.74633,1.36884,1.36884,0,0,1,1.36532-1.03835,2.52571,2.52571,0,0,1,1.00227.34028.33264.33264,0,0,1,.008.05957c-.19066.05188-.45427-.00279-.47434.30559a.57218.57218,0,0,0,.36643.5853c.25716.11674.29873-.14556.41619-.27206A.51036.51036,0,0,1,6.68266,11.59668Z"/><path class="k" d="M6.95657,7.73775a1.29086,1.29086,0,0,1,1.891-1.70956,1.35276,1.35276,0,0,1,.46286.67611c.01.02005.03111.04179.02837.05992-.09023.59734.33494.86812.72765,1.16438.08465.06386.2513.14189.20537.23309-.06241.12394-.21608.013-.32959-.0007a2.58458,2.58458,0,0,1-.33086-.05976,1.00774,1.00774,0,0,0-.97336.1206.99862.99862,0,0,1-1.02837.04643A1.226,1.226,0,0,1,6.95657,7.73775Zm1.61-.07908c-.00558.15558.04223.27748.22.26991a4.10991,4.10991,0,0,1,1.09311.12963c.03685.00841.1045-.0017.11648-.02474.02584-.04968-.03533-.06889-.067-.09777a3.23008,3.23008,0,0,1-.62374-.5512c-.09817-.14959-.2073-.335-.42119-.23938A.53918.53918,0,0,0,8.56659,7.65867Z"/><path class="l" d="M18.93254,0c-.15166-.00232-.13255.13271-.1601.2181-.26187.8092-.51836,1.62038-.77643,2.43123a.29735.29735,0,0,0,.17408.329,1.54468,1.54468,0,0,0,.76551.21645V.00168Z"/><path class="m" d="M19.702,2.97833a.29759.29759,0,0,0,.17384-.3293q-.3876-1.21578-.77693-2.4309C19.07072.13076,19.07469.007,18.9356.00168v3.1931A1.5483,1.5483,0,0,0,19.702,2.97833Z"/><path class="n" d="M26.53675,12.26836a.23132.23132,0,0,1-.05767-.03442,1.16806,1.16806,0,0,0-1.23721-.32765c-.46765.1261-.57463.51795-.61683.94555-.02871.29158-.19535.10889-.30795.06851-.11783-.04236-.15084-.19791-.28256-.22836a1.11857,1.11857,0,0,0,.14264.44348.98673.98673,0,0,0,.42611.419,2.31151,2.31151,0,0,0,1.18095.21148c.20271-.13933.39591-.29621.6102-.415.44217-.24524.47568-.31077.28711-.77941C26.63984,12.4676,26.5854,12.3693,26.53675,12.26836Z"/><path class="k" d="M13.32176,4.88992l.06217.32018a1.14927,1.14927,0,0,1-.26379.56672l-.00115.00066-.06576.06557A1.03068,1.03068,0,0,1,11.546,5.82746c-.10459-.15483-.25592-.28277-.27924-.48449A.97122.97122,0,0,1,11.637,4.2932a.93647.93647,0,0,1,1.07989-.10395.85571.85571,0,0,0,.82462.03126,1.60218,1.60218,0,0,1,.25881-.07607c.05135-.01.13566-.01636.15574.01138.05031.06953-.02384.11823-.06882.1642q-.28261.28885-.56742.57553c-.01654-.19313.16272-.255.25241-.377.05194-.07062.18947-.12646.15073-.2031-.05133-.10153-.15355.01769-.23654.02187-.18778.00943-.353.1341-.55918.08205-.14924-.03767-.21517.07084-.22851.22023a.41277.41277,0,0,0,.23281.41594C13.12649,5.16955,13.20392,4.97529,13.32176,4.88992Z"/><path class="o" d="M18.063,6.41237a.30338.30338,0,0,0-.28289.26576c-.0762.30547-.16854.60665-.25418.9098.11733.135.24.26643.35057.40708.12113.15456.20305.19428.28231-.03607.08373-.24326.19461-.47757.29389-.71587.03368-.08075.0518-.16283.16226-.192a1.02606,1.02606,0,0,1,.32061-.03575V6.33459A4.967,4.967,0,0,0,18.063,6.41237Z"/><path class="p" d="M19.52488,7.491c.29108.7109.29108.71057.7938.1165a.1484.1484,0,0,1,.02714-.01986c-.08563-.30282-.178-.604-.25418-.90947a.30345.30345,0,0,0-.283-.26576,4.94189,4.94189,0,0,0-.87307-.07778v.68078A.65921.65921,0,0,1,19.52488,7.491Z"/><path class="m" d="M11.27669,25.279l.31815-.46351a1.80132,1.80132,0,0,0,.624.448,8.63877,8.63877,0,0,0,4.06736,1.18049c.13432.00515.26811.02444.40214.0372l.00009.57338a10.55052,10.55052,0,0,1-4.81-1.4172c-.17689-.09766-.35437-.19423-.53159-.29131Z"/><path class="q" d="M24.29334,14.42953a6.43555,6.43555,0,0,1,.42106,5.12987,1.341,1.341,0,0,1-.08729.17706q.13119.16332.26237.327a6.964,6.964,0,0,0,.62005-2.508,6.44548,6.44548,0,0,0-.7574-3.24969Q24.52266,14.36781,24.29334,14.42953Z"/><path class="o" d="M25.86027,21.30752a1.26988,1.26988,0,0,0-.08109-.14827,7.6541,7.6541,0,0,1-.76774-.94952l-.122-.14628q-.13119-.16333-.26237-.327-.169-.207-.33824-.41436c-.07116.03673-.03425.093-.02523.14363q.17933,1.0048.359,2.00959c.03293.1764.05536.35578.10235.52821.03343.12279.04476.28065.22936.2929a1.23747,1.23747,0,0,0,.69121-.10723.94144.94144,0,0,0,.43347-.49909C26.15672,21.49286,25.91471,21.44752,25.86027,21.30752Z"/><path class="m" d="M6.66055,19.80142l.61091-.21331a14.23714,14.23714,0,0,0,1.51371,2.538,3.34465,3.34465,0,0,0,.249.26969,1.9206,1.9206,0,0,0-.52429.506c-.00785-.14812-.11977-.236-.20049-.3403A12.31676,12.31676,0,0,1,6.66055,19.80142Z"/><path class="l" d="M6.95657,7.73775a1.226,1.226,0,0,0,.653.53051c-.16159.01418-.21384.14928-.28552.26075a8.7334,8.7334,0,0,0-1.00152,2.31925l-.066.14015a2.52451,2.52451,0,0,0-1.00222-.34033c.36832.06891.47175-.12988.55576-.4559A6.6059,6.6059,0,0,1,6.81152,8.03505.59315.59315,0,0,0,6.95657,7.73775Z"/><path class="m" d="M5.365,13.43276l.567-.14318a12,12,0,0,0,.25916,3.12269c.01971.08715.04919.17208.0741.258q-.27512.07155-.55017.1432a12.993,12.993,0,0,1-.33523-2.80666C5.37412,13.8155,5.36992,13.62412,5.365,13.43276Z"/><path class="r" d="M11.55753,22.5056c-.1398.09418-.12286.24446-.15442.38516-.04266.1902-.005.45231-.29812.49089a.86322.86322,0,0,1-.82329-.52015c-.08793-.27734.10119-.40693.30552-.52089.05726-.03194.12683-.05094.14181-.12946l.68324-.66089c.15964-.13676.318-.275.47971-.40931.04593-.03816.08667-.1177.15735-.07192.01871.01212-.00332.10361-.02131.15335C11.8731,21.65081,11.71481,22.078,11.55753,22.5056Z"/><path class="r" d="M7.96371,17.21913c-.15144.05255-.12836.18718-.155.30627-.0401.17942-.1116.37649-.334.35831a.66409.66409,0,0,1-.59106-.48015c-.07656-.22562.05964-.36009.25169-.44391.10015-.04372.22493-.04239.274-.168.339-.23388.6772-.46886,1.01794-.70014.04-.02717.08886-.09415.13669-.04293.01969.02109-.01.10327-.03451.14827C8.34332,16.53894,8.15285,16.87867,7.96371,17.21913Z"/><path class="s" d="M19.89315,4.36505a1.48732,1.48732,0,0,0-.349,1.25368c.28023-.01523.58381.10557.8283-.12246.18617-.17375.36009-.36041.53938-.54145-.03408-.13007-.06073-.26278-.1035-.38987C20.61133,3.97849,20.32671,3.91958,19.89315,4.36505Zm.20933.99818-.08092.04534c-.04385.00033-.0877.001-.13155.00165a.17222.17222,0,0,1-.15142-.10557c-.07686-.0983-.09788-.19428.01134-.28529a.06361.06361,0,0,1,.06851-.06818c.093-.11319.19121-.08506.29116-.01092l.05792.0695A.22554.22554,0,0,1,20.10248,5.36323Z"/><path class="t" d="M18.32937,4.95863l-.00171.66024c-.63734.15234-1.01571-.22865-1.3677-.66405a4.94506,4.94506,0,0,1,.1754-.57446c.15283-.35.30608-.39366.62562-.18717a3.38681,3.38681,0,0,1,.35495.30265.47871.47871,0,0,0,.14317.25871Zm-.20742.06068a.06369.06369,0,0,0-.06859-.06813c-.093-.11317-.19121-.08493-.29114-.01081l-.05782.0693a.22537.22537,0,0,0,.06508.35343l.0805.04534L17.982,5.41a.1714.1714,0,0,0,.15119-.10523C18.21011,5.20641,18.231,5.1103,18.12195,5.01931Z"/><path class="l" d="M11.26678,5.343c.02332.20172.17465.32966.27924.48449a5.28927,5.28927,0,0,0-2.06917.64783.25516.25516,0,0,0-.16641.22912,1.35283,1.35283,0,0,0-.46289-.67622.36174.36174,0,0,0,.31633.00837A8.50587,8.50587,0,0,1,11.26678,5.343Z"/><path class="l" d="M13.12014,5.77682a1.14927,1.14927,0,0,0,.26379-.56672,10.41158,10.41158,0,0,1,1.95868.20022.82027.82027,0,0,1-.26258.62536A6.31761,6.31761,0,0,0,13.12014,5.77682Z"/><path class="u" d="M25.01144,20.20973a7.6541,7.6541,0,0,0,.76774.94952,3.05484,3.05484,0,0,1,.60822.06487,1.77849,1.77849,0,0,0-.02656-.2641A1.10125,1.10125,0,0,0,25.01144,20.20973Z"/><path class="v" d="M27.47849,24.61447a.40337.40337,0,0,0,.00331.06387c.39326-.0417.64082-.2459.66837-.56759a1.10406,1.10406,0,0,0-.25963-.929A2.56115,2.56115,0,0,1,27.47849,24.61447Z"/><path class="w" d="M26.56918,25.34026l.09639.01291c.55122-.02085.70172-.14529.81623-.67483a.40337.40337,0,0,1-.00331-.06387A3.15916,3.15916,0,0,1,26.56918,25.34026Z"/><path class="x" d="M6.12726,19.73236c.18077.01383.376-.08118.53836.07145C6.48723,19.7721,6.296,19.837,6.12726,19.73236Z"/><path class="y" d="M13.05323,5.84305l.06576-.06557Z"/><path class="j" d="M18.66463,24.74619c.0158.02946.03037.0599.04774.0887.12378.2042.32385.38987.06429.64471a1.01043,1.01043,0,0,1-.96053.24888.26991.26991,0,0,1-.166-.27007,1.05464,1.05464,0,0,0-.08655-.39053,2.0443,2.0443,0,0,0-.8753,1.4132l.00008.57355.0005-.0043.06726.07149a1.84205,1.84205,0,0,0,.83477,1.21991,1.8775,1.8775,0,0,0,1.34468.30217V24.776A1.94953,1.94953,0,0,0,18.66463,24.74619Z"/><path class="i" d="M20.633,26.57077a2.438,2.438,0,0,0-.13726-.6083A1.85984,1.85984,0,0,0,18.9356,24.776V28.6439a1.98393,1.98393,0,0,0,.64273-.20784A1.95241,1.95241,0,0,0,20.633,26.57077Z"/><path class="n" d="M23.7969,24.32124c-.06619.04071-.1352.07711-.19816.12212a9.61056,9.61056,0,0,1-3.103,1.51911,2.438,2.438,0,0,1,.13726.6083,11.78219,11.78219,0,0,0,3.44893-1.8921C23.99432,24.55357,23.947,24.39637,23.7969,24.32124Z"/><path class="r" d="M18.71237,24.83489c-.01737-.0288-.03193-.05925-.04774-.0887-.07024-.08737-.1457-.17045-.20966-.26212-.29745-.42495-.59076-.85288-.88829-1.27784-.03624-.052-.072-.14264-.14488-.11749-.07918.02747-.0307.11716-.02367.17541.057.46963.11956.9386.18046,1.4079l-.01514.39914.00074-.00132a1.04544,1.04544,0,0,1,.086.38854.2699.2699,0,0,0,.166.27007,1.01044,1.01044,0,0,0,.96052-.24889C19.03622,25.22476,18.83615,25.03909,18.71237,24.83489Z"/><path class="m" d="M18.395,17.49917c-.01291.35347.26287.72911.53053.72249l.01009-.003v-1.629C18.75962,16.61286,18.40582,17.20131,18.395,17.49917Z"/><path class="n" d="M19.4768,17.51407c-.00033-.01126.00025-.02284-.00041-.03409-.0163-.27735-.38027-.89723-.52763-.89856l-.01316.00828v1.629A.68263.68263,0,0,0,19.4768,17.51407Z"/><path class="n" d="M21.88859,14.87367a.31844.31844,0,0,0-.32186.136.21774.21774,0,0,0,.06139.30084,1.13823,1.13823,0,0,0,.62113.28462c.15183-.01489.313-.01721.22671-.22869A.71755.71755,0,0,0,21.88859,14.87367Z"/><path class="m" d="M15.68951,15.59041c-.30633.00587-.38128-.08589-.258-.30666a.71308.71308,0,0,1,.54137-.40755.30145.30145,0,0,1,.34117.15433c.0722.154-.02278.26574-.138.338A1.18292,1.18292,0,0,1,15.68951,15.59041Z"/><path class="n" d="M21.8411,10.94452c-.08134.0801-.15853.16747-.094.29555a.26627.26627,0,0,0,.31.14761,1.461,1.461,0,0,0,.69468-.32269c.09044-.07612.22621-.14628.17086-.29687-.0532-.1443-.19667-.12345-.35189-.13139A1.108,1.108,0,0,0,21.8411,10.94452Z"/><path class="z" d="M17.445,13.01533H17.4448l-.01556.0288Z"/><path class="m" d="M14.69669,12.93063a.33146.33146,0,0,1-.28881-.176.30621.30621,0,0,1,.02618-.34754,1.42409,1.42409,0,0,1,1.06291-.31731c.10543.03269.22534.0653.24928.19837.02168.12053-.07642.17872-.15244.24274A2.19148,2.19148,0,0,1,14.69669,12.93063Z"/><polygon class="aa" points="17.445 13.015 17.445 13.015 17.445 13.015 17.445 13.015"/><path class="ab" d="M17.92029,12.60986c-.02277,0-.0456,0-.0683.00049-.07855.1919-.30493.23511-.40656.40479a.99572.99572,0,0,0,.54322-.33667h.00006c.15936-.104.321-.20484.47766-.31275.16473-.11328.31244-.248.46924-.37109v-.294A9.1856,9.1856,0,0,1,17.92029,12.60986Z"/><path class="ac" d="M25.10162,10.23828c-.11541-.06958-.22845-.14355-.34668-.20849A3.99457,3.99457,0,0,0,22.05481,9.561c-.18988.12011-.35437.29736-.60956.27075-.05163.07544-.13006.06518-.2055.06494l-.00043.00024c-.286.2146-.63269.332-.90369.57422-.08612.07715-.21136.03052-.32318.002-.33508-.08544-.67267-.16064-1.00928-.24023l-.06756-.00049v.19116c.26379.06568.52752.13062.78961.20948.24469.074.22144.145.06561.27026a11.22224,11.22224,0,0,0-.85522.79736v.294C19.53613,11.523,20.103,11.01,20.70679,10.544a3.30552,3.30552,0,0,1,3.49353-.59375c.27844.11767.556.23706.834.35546.09076.06763.15833.17823.29529.16089A.45427.45427,0,0,0,25.10162,10.23828Z"/><path class="ab" d="M18.86957,10.23169l-.07257-.06006c-.12073-.01587-.243-.02417-.36188-.04858-.75147-.15479-1.51514-.21387-2.27588-.29688a6.37038,6.37038,0,0,0-1.62781.20923l.06787.06616c.257-.02295.51349-.05395.77088-.06689a12.17362,12.17362,0,0,1,3.56543.38891v-.19116Z"/><path class="ab" d="M14.26056,10.10181a1.34577,1.34577,0,0,0-.544.24487c.20148.01343.36969-.11377.56354-.13428.01746-.002.03235-.02734.0484-.04248.09332-.0105.1991.02759.27081-.06836l-.06793-.06616Q14.396,10.06873,14.26056,10.10181Z"/><path class="m" d="M13.58681,13.062c-.08688-.04633-.12072.1304-.20545.17839-.06826.03872-.13412.08108-.20105.12212l-.07811-.00761c.05246-.80423-.39525-1.23812-1.07636-1.05742-.27238.07215-.41469.29323-.60516.46136a.62446.62446,0,0,0,.03946.332c.4051,1.01837.74582,1.18782,1.84353,1.07562a1.50957,1.50957,0,0,0,.32624-.76385C13.64431,13.28771,13.70512,13.12521,13.58681,13.062Z"/><path class="x" d="M16.68893,27.05032l.06722.0716Z"/><path class="ad" d="M18.615,7.05112c-.11046.02912-.12858.1112-.16226.192-.09928.2383-.21016.47261-.294.71587-.07918.23035-.1611.19063-.28223.03607-.11054-.14065-.23324-.272-.35057-.40708-.06552.21513-.129.43091-.19766.64471-.02267.07083-.00819.17806-.10781.186-.02689.00232-.0681-.10127-.0935-.16051-.138-.3207-.2689-.64438-.41-.96343-.41552-.93992-.41486-.91841-1.45184-.81581-.33319.03276-.37373.19162-.394.44679A9.59289,9.59289,0,0,0,14.938,8.137a3.46856,3.46856,0,0,0,1.2214,1.68921c.76063.08307,1.52432.142,2.27576.29687.1189.02449.24119.03277.3619.04865l.07257.05991.066.00066V7.01537A1.02606,1.02606,0,0,0,18.615,7.05112Z"/><path class="g" d="M22.96423,7.75244a3.46646,3.46646,0,0,0,.02991-.87353c-.00488-.231-.06329-.38916-.36609-.39746-.26721-.00733-.53815-.0149-.80572-.04a.35259.35259,0,0,0-.42627.26709c-.16144.44262-.35706.8728-.5434,1.30566-.06048.14111-.13592.27539-.20453.41235-.13574-.10913-.121-.27758-.1673-.42212-.04443-.13916-.0899-.27783-.135-.41674a.14683.14683,0,0,0-.02717.01977c-.50268.59424-.50268.59448-.79388-.11645a.65928.65928,0,0,0-.58917-.47559v3.217l.06756.00049c.33661.07959.67426.15479,1.00928.24023.11182.02857.23706.0752.32318-.002.271-.24219.61768-.35962.90369-.57422l.00043-.00024c.07544.00024.15387.0105.2055-.06494.25519.02661.41968-.15064.60956-.27075a3.19525,3.19525,0,0,0,.83-1.36548c.01886-.07276.12048-.124.18383-.18531C22.89124,7.98218,22.93933,7.85864,22.96423,7.75244Z"/><path class="f" d="M18.86955,10.23168l-.07254-.06Z"/><path class="ae" d="M15.70271,3.85372h-.00008c.0791-.03674.08927.03442.1184.07579C15.7919,3.88814,15.78181,3.817,15.70271,3.85372Z"/><path class="ad" d="M18.17009,2.97833a.29725.29725,0,0,1-.17408-.329,2.59256,2.59256,0,0,0-1.32988.81085c-.15745.16349-.2555.21612-.45987.04435a5.56149,5.56149,0,0,0-1.08637-.73175c-.09308-.04667-.1903-.15655-.302-.06421a.31822.31822,0,0,0-.072.3154,6.03142,6.03142,0,0,0,.58985,1.98444c.07521.13536.128.26576.00695.40178a.82116.82116,0,0,1-.2627.62551l-.00612.13437-.02375.04336c.04468.02846.06983-.00033.09275-.03409h.00017c.30274-.11981.5997-.25881.91005-.35346.25393-.07778.29894-.186.20305-.43124-.18774-.48023-.34238-.97369-.51076-1.46185l.07563-.00331c-.02913-.04137-.0393-.11253-.1184-.07579h.00008c.0791-.03674.08919.03442.11832.07579.38954.331.72017.72679,1.13891,1.02531a4.96563,4.96563,0,0,1,.17541-.57454c.15282-.34983.30605-.39351.6256-.187a3.37756,3.37756,0,0,1,.35495.30283V4.49578a.47817.47817,0,0,0,.14322.25881L18.25755,4.612a.16078.16078,0,0,1-.01018-.05494l-.04732-.08208-.0197-.11385a.16137.16137,0,0,0-.05518-.02416l-.00654-.133-.13826-.13006c-.01191-.01523-.03715-.03674-.03351-.04468.023-.05.06752-.03442.108-.02747.182.02846.18343.18136.21562.31309l.04881.09564.06289.20255a.1026.1026,0,0,1,.01861.05792l.05833.145a.11774.11774,0,0,1,.01134.05361l.04137.08307c-.01977.06189.16821.17376-.04551.189a.10691.10691,0,0,1-.07314-.12311.1013.1013,0,0,1-.01216-.05064.17113.17113,0,0,0-.05163-.00927l-.00174.66027c.2517.04964.32815-.15589.43207-.3078.06263-.09134.11931-.137.1759-.13734V3.19478A1.54468,1.54468,0,0,1,18.17009,2.97833Z"/><path class="g" d="M19.11209,5.31093c.10392.15225.18045.35744.43207.3078a1.48732,1.48732,0,0,1,.349-1.25368c.43356-.44547.71818-.38656.91519.1999.04277.12709.06942.2598.1035.38987.41867-.29852.74938-.69435,1.13892-1.02531l.07562.00331c-.16837.48816-.323.98162-.51075,1.46185-.09581.24524-.05089.35346.203.43124.31036.09465.60731.23365.91006.35346h.00008c.023.03376.04816.06255.09284.03409L22.798,6.1701a5.04048,5.04048,0,0,0-.21562-.56627.69434.69434,0,0,1,.01291-.72579,5.6751,5.6751,0,0,0,.53193-1.87058.29338.29338,0,0,0-.08638-.31044c-.09871-.06719-.19038.02548-.27635.06851a6.17146,6.17146,0,0,0-1.11955.75326c-.17773.14463-.26733.11948-.41031-.03045A2.6547,2.6547,0,0,0,19.87586,2.649a.29759.29759,0,0,1-.17384.3293,1.5483,1.5483,0,0,1-.76642.21645V5.17359C18.99245,5.17359,19.04921,5.21893,19.11209,5.31093Zm3.05707-1.45688h.00008l-.02135.03939Zm-2.76575.88664.07943-.19692.05453-.0834a.11217.11217,0,0,1,.01134-.05064q.09879-.205.19766-.40973c.068-.07281.1601-.11352.23018-.03773.03988.043-.0407.08638-.0954.10293l-.06387.07248q-.09394.17774-.18782.35578l-.02863.11882-.04972.07777a.15114.15114,0,0,1-.01084.05561l-.05478.07612a.22081.22081,0,0,1-.01489.05626c-.01473.092-.04013.26576-.12163.21148C19.21262,4.99917,19.35377,4.85686,19.40341,4.74069Z"/><path class="ab" d="M19.74637,4q-.09891.205-.19766.40973a.11217.11217,0,0,0-.01134.05064l-.05453.0834-.07943.19725c-.04964.11584-.19079.25815-.05444.3485.0815.05428.1069-.11947.12163-.21148a.22081.22081,0,0,0,.01489-.05626l.05478-.07612a.15114.15114,0,0,0,.01084-.05561l.0498-.07777.02847-.11882q.09406-.17821.1879-.35578l.064-.07248c.05461-.01655.13519-.0599.09531-.10293C19.90647,3.88648,19.81438,3.92719,19.74637,4Z"/><path class="i" d="M8.56659,7.65867a.53918.53918,0,0,1,.31761-.51355c.21389-.09562.323.08979.42119.23938a3.23008,3.23008,0,0,0,.62374.5512c.03171.02888.09288.04809.067.09777-.012.023-.07963.03315-.11648.02474a4.10991,4.10991,0,0,0-1.09311-.12963C8.60882,7.93615,8.561,7.81425,8.56659,7.65867Z"/><path class="i" d="M13.32176,4.88992c-.11784.08537-.19527.27963-.39026.16563a.41277.41277,0,0,1-.23281-.41594c.01334-.14939.07927-.2579.22851-.22023.20618.052.3714-.07262.55918-.08205.083-.00418.18521-.1234.23654-.02187.03874.07664-.09879.13248-.15073.2031-.08969.122-.269.18386-.25241.377Z"/><path class="p" d="M20.10952,4.94026c-.09788-.07248-.19411-.09763-.28546.00794l.17268.01192.08307.137a.25368.25368,0,0,1-.12642.19726c-.067-.0288-.134-.05726-.20106-.08605l-.0053-.18369c-.10226.08936-.08381.18369-.00844.28a.17219.17219,0,0,0,.15133.10557c.04394-.00066.08779-.00132.13164-.00165l.08084-.04568a.22514.22514,0,0,0,.06512-.35313Z"/><path class="p" d="M19.74678,5.01671l.00025.00794.0029-.00529a.06361.06361,0,0,1,.06851-.06818l.00562-.003-.00819-.00066Z"/><path class="o" d="M18.12476,5.02465l-.0053.18369q-.10053.04269-.201.086a.254.254,0,0,1-.12651-.19725h.00008l.083-.137h.00008l.1726-.01192c-.09135-.10557-.18758-.08042-.28554-.00794l-.05775.0695a.22539.22539,0,0,0,.065.35346c.02689.0149.0537.03012.08051.04535l.13205.00132a.17108.17108,0,0,0,.15117-.10525C18.20874,5.20834,18.22694,5.114,18.12476,5.02465Z"/><path class="o" d="M18.12194,5.01936l.00282.00529.00024-.00794-.06908-.06917-.00819.00066.00562.003A.06371.06371,0,0,1,18.12194,5.01936Z"/><path class="i" d="M7.41152,10.6268a.796.796,0,0,0-.13768.07579.193.193,0,0,0-.20412.06719.19676.19676,0,0,0-.20586.06983l-.25963.08141-.20636.12742c-.04468-.00033-.08936-.00066-.134-.00066l.00033.00033c-.19047.052-.45383-.00265-.47385.30548a.57208.57208,0,0,0,.36637.58513c.25715.11683.29877-.14562.41626-.272a.518.518,0,0,1,.10971-.07017l.52888-.54608.06222-.07149.00149-.002c.08133-.06984.16721-.135.24193-.21149.035-.03541.08017-.11021.06561-.136C7.54092,10.55465,7.468,10.6086,7.41152,10.6268Z"/><path class="af" d="M18.51181,4.9525l-.04145-.08307a.1157.1157,0,0,0-.01134-.05361l-.03251-.00166.0326.00166-.05842-.145a.10192.10192,0,0,0-.01853-.05792l-.06288-.20255-.0489-.09565c-.03211-.13172-.03351-.28462-.21554-.31308-.04046-.007-.085-.02251-.108.02747-.00365.00794.02159.02945.0335.04468l.13826.13006.00654.133a.16142.16142,0,0,1,.05519.02416l.01977.11385.0556.002-.05568-.002.04733.08208a.16057.16057,0,0,0,.01017.05494l.00158.14264.07024.20387a.17107.17107,0,0,1,.05163.00927.10134.10134,0,0,0,.01216.05063c.00692.043.00025.0983.07315.12312C18.68,5.12626,18.492,5.01439,18.51181,4.9525Z"/><path class="ag" d="M19.816,4.94754l-.06918.06917.00555.19163c.067.02879.134.05725.20106.08605a.25368.25368,0,0,0,.12642-.19726l-.083-.137C19.93659,4.95615,19.87627,4.95184,19.816,4.94754Z"/><path class="ah" d="M18.05591,4.94765l.06909.0692-.00552.19152-.201.08592a.25342.25342,0,0,1-.12645-.19711l.083-.13695Z"/></svg>