<svg xmlns="http://www.w3.org/2000/svg" viewBox="0 0 32 32"><defs><style>.a{fill:#1d7293;}.b{fill:#6edca2;}.c{fill:#357093;}.d{fill:#fef1c6;}.e{fill:#e75f3b;}.f{fill:#7aebac;}.g{fill:#ffe28a;}.h{fill:#1b6a89;}.i{fill:#ffeaa7;}.j{fill:#b0e29d;}.k{fill:#d64f45;}.l{fill:#2b3332;}.m{fill:#fff;}.n{fill:#d1473d;}.o{fill:#edeeee;}.p{fill:#237899;}.q{fill:#fff5d8;}.r{fill:#99f2bd;}.s{fill:#dd564c;}.t{fill:#373f3f;}.u{fill:#f7f7f7;}</style></defs><title>647-keldeo-shiny</title><path class="a" d="M19.44943,30.95638A2.37662,2.37662,0,0,0,19.18577,32H21.557a2.72433,2.72433,0,0,0-.48157-1.30851A3.462,3.462,0,0,1,19.44943,30.95638Z"/><path class="b" d="M26.19737,15.61527a7.43372,7.43372,0,0,0-1.54227-2.87873.479.479,0,0,0-.5821-.17022c-.22986.10653-.164.33957-.14431.52572a3.14549,3.14549,0,0,1,.0191,1.345c-.02967.09148-.0427.18846-.0634.28284a2.47815,2.47815,0,0,1-.09922-.26344,1.42338,1.42338,0,0,0-.79321-1.10384c-.11066-.04516-.22906-.11232-.336-.03995-.14779.10016-.07136.25128-.03351.37779a3.52852,3.52852,0,0,1,.26612.89569,3.46066,3.46066,0,0,1-2.9828,3.55064,4.90653,4.90653,0,0,1,.247,1.15594,7.91632,7.91632,0,0,0,1.58259.44988,3.78522,3.78522,0,0,0,4.463-2.89927A4.269,4.269,0,0,0,26.19737,15.61527Z"/><polygon class="c" points="19.425 9.579 19.419 9.586 19.419 9.591 19.425 9.579"/><path class="d" d="M18.78446,12.30577c.04263-.1433.12007-.19251.25592-.10595-.18926-.52427.13758-.98081.20011-1.47208A5.94773,5.94773,0,0,0,19.425,9.579c-.30288.3057-.48649.8789-1.1076.47245-.058-.03793-.09322.141-.10567.2342a1.39864,1.39864,0,0,1,.01889,1.61479c-.13258.16791-.28479.34276-.53462.28747a.459.459,0,0,1-.396-.4988q-.02757-.24664-.05471-.49445c-.1336.14011-.26228.2866-.40312.42005-.10928.10364-.22884.28457-.38951.18615-.18629-.11406-.02873-.29471.03358-.41427a10.54505,10.54505,0,0,0,.74031-2.16078c-.19773-.24462-.2473-.19193-.321.10191-.157.6253-.31693.69159-.8894.48026v4.76535q.68708-.17673,1.37423-.35318A3.72705,3.72705,0,0,0,18.78446,12.30577Zm-2.43695,1.20951c-.17442.0854-.13338-.03822-.12571-.12941.02967-.08453.10342-.13577.17015-.086C16.49819,13.37863,16.44521,13.45969,16.34751,13.51528Z"/><polygon class="e" points="19.419 9.591 19.425 9.584 19.425 9.579 19.419 9.591"/><path class="f" d="M19.88146,16.24028c-.09641-.01563-.19664-.00666-.29406-.01795a2.45047,2.45047,0,0,1-2.197-2.00213q-.68709.17673-1.37423.35318v5.67725a.3189.3189,0,0,1,.08142.02432,2.87455,2.87455,0,0,0,.27393,1.25438c.07629.17572.15387.39428.39856.37547.24506-.01882.37-.21307.43989-.42527a2.723,2.723,0,0,0,.01788-1.338,14.4926,14.4926,0,0,1-.31237-3.15692c.013-.271.06318-.52282.35051-.61923.26387-.08829.44321.07411.60648.262a2.7855,2.7855,0,0,0,.91089.823c.188.0828.45921.27994.51979-.15082q-.05189-.06428-.10371-.12883-.07393-.10986-.14793-.21914c-.07332-.05385-.20359-.10711-.11088-.21017.07086-.07875.18173-.01651.25338.06311a.32185.32185,0,0,1,.11073.031,5.67389,5.67389,0,0,0,.588-.02663c.15379-.02171.33306-.07556.34616-.26373C20.255,16.31266,20.06014,16.26923,19.88146,16.24028Z"/><path class="g" d="M18.01752,24.59042c-.089-.17109-.17123-.60475-.50039-.16935a21.93817,21.93817,0,0,1,.725,4.36787q.5251.01389,1.05028.02808c-.075-.42-.14359-.84156-.226-1.26016A11.012,11.012,0,0,0,18.01752,24.59042Z"/><path class="h" d="M18.2421,28.78894c-.16067.19512-.09155.45016-.17348.66584-.151.39747-.0372.5758.40753.5344.30752-.02837.61908-.01274.929-.01679q-.05623-.578-.11276-1.15537Q18.76727,28.80313,18.2421,28.78894Z"/><path class="i" d="M20.39089,25.46585c-.10545-1.86173-.09669-3.73012-.14525-5.59532a4.25471,4.25471,0,0,0-.09286-.57783,4.90672,4.90672,0,0,0-.247-1.156q-.3005-.65049-.60106-1.30127a.32185.32185,0,0,0-.11073-.031c-.07165-.07962-.18252-.14186-.25338-.06311-.09271.10306.03756.15632.11088.21017q.074.10942.148.21914l.10364.12883c-.06058.43076-.33176.23362-.51979.15082a2.7855,2.7855,0,0,1-.91089-.823c-.16327-.18789-.34261-.35029-.60648-.262-.28733.09641-.33748.34826-.35051.61923a14.4926,14.4926,0,0,0,.31237,3.15692,2.723,2.723,0,0,1-.01788,1.338c-.06984.2122-.19483.40645-.43989.42527-.24469.01881-.32227-.19975-.39856-.37547a2.8756,2.8756,0,0,1-.274-1.25438.31854.31854,0,0,0-.08135-.02432v4.38988a3.44914,3.44914,0,0,0,1.501-.21944c.32916-.43539.41137-.00173.50039.16936a11.01193,11.01193,0,0,1,1.04884,2.96643c.08243.41861.151.84011.226,1.26017q.05645.57753.11283,1.15537.022.492.04429.984a3.462,3.462,0,0,0,1.626-.26488A21.0555,21.0555,0,0,1,20.39089,25.46585Z"/><path class="j" d="M19.30307,17.2996l-.10367-.12888Z"/><path class="k" d="M20.35587,5.30713a3.29692,3.29692,0,0,0-1.21094-2.88086c-.20013-.16016-.38275-.3418-.58312-.50147-.11554-.09179-.17536-.32519-.35444-.24975-.14709.06177-.15814.27856-.14282.42383.04328.41162-.10943.25757-.29138.12475A6.364,6.364,0,0,1,16.094.10962L16.01615,0V9.80811c.57245.21118.73236.145.88941-.48047.07373-.2937.12329-.34644.321-.10181.19824-.49268.36951-.99854.60565-1.47241.12305-.24658.28021-.65161.67645-.18726.18512.217.17908-.05493.21174-.15429.17761-.542.33-1.093.53375-1.625.08984-.23414.152-.61719.5083-.54566.311.063.30426.41943.35663.68555a2.04875,2.04875,0,0,1,.01953.23559l-.01349.23072a.1292.1292,0,0,1,.01.09155c.15179-.07251.11719-.21069.11822-.33643l.00763.00586C20.26432,6.07471,20.35923,5.437,20.35587,5.30713Z"/><path class="l" d="M17.88457,10.79954l-.01042-.02808-.1137.08714c.01687.11232-.02981.16182-.14366.145-.23065-.14417-.28877.0469-.37149.19107q.027.24752.05471.49474c.60975.08945.76087-.11319.61836-.8294A.10083.10083,0,0,1,17.88457,10.79954Z"/><path class="k" d="M20.68444,10.3242a5.12815,5.12815,0,0,1-.531-.8433q-.30614-.11029-.61227-.22088c-.13672.07527-.13389.20178-.12232.33147.00558-.0026.0037-.00839.00876-.01129l-.00275.00376a6.03737,6.03737,0,0,1-.18433,1.14379c-.06253.49127-.38937.9478-.20012,1.47208a2.96257,2.96257,0,0,1,.1551.982c-.01831.19106.08663.27762.24071.18469a3.70676,3.70676,0,0,0,1.282-.96227A1.54008,1.54008,0,0,0,20.68444,10.3242Z"/><path class="a" d="M22.9495,6.07646c-.258.14243-.20235-.07092-.20293-.1844a2.20234,2.20234,0,0,0-.13049-.81058c-.08-.2012-.17254-.43338-.46507-.23044-.232-.1462-.00181-.45537-.21488-.60823-.2418-.45537-.51725-.32278-.773-.02692a4.79423,4.79423,0,0,0-.6955,1.35541l-.09894.22551a.817.817,0,0,0-.10762.35724l-.00767-.00579c-.001.12564.03358.26373-.11818.3361v.00029a.12906.12906,0,0,0-.01006-.09148l.01353-.23073a2.05884,2.05884,0,0,0-.01954-.23564c-.0524-.266-.0456-.6227-.35666-.68552-.35622-.07151-.41846.31149-.50827.54569-.20374.5318-.35615,1.083-.53376,1.62493-.03264.09929-.02663.37142-.21176.1543-.39625-.46435-.55337-.05935-.6764.1873-.23616.4739-.40746.97964-.6057,1.47236a10.54523,10.54523,0,0,1-.7403,2.16078c-.06232.11956-.21987.3002-.03358.41426.16067.09843.28023-.0825.38951-.18614.14084-.13346.26952-.27994.40341-.42063.08243-.14359.14055-.33466.371-.19049.048-.04864.0959-.09669.14388-.145l.1137-.08713q.16881-.24318.33762-.48577c.01245-.09322.0477-.27213.10567-.2342.61676.40355.80233-.15836,1.10152-.4658-.01122-.12738-.01245-.25157.12217-.32568q.30613.11073.61227.22088c.38018-.21856.61988-.80652,1.23911-.39313.16552.1103.43026-.13316.61466-.2811.12195-.09784.21213-.26633.34725-.31178,1.02148-.34218,1.06194-1.19966,1.08553-2.05251C23.44787,6.15607,23.37289,5.84255,22.9495,6.07646Z"/><path class="m" d="M17.76045,10.8586c-.048.04834-.09589.0964-.14366.145C17.73064,11.02042,17.77732,10.97092,17.76045,10.8586Z"/><path class="n" d="M16.392,13.2999c-.06673-.04979-.14048.00145-.17015.086-.00768.09119-.04871.2148.12564.1294C16.44524,13.4597,16.49822,13.37864,16.392,13.2999Z"/><path class="o" d="M18.21179,10.28564q-.16882.24316-.33765.4856l.01044.02832h0l.00012.00024h.00006a.1017.1017,0,0,0,.03363.06031c.14246.71606-.0086.9187-.6184.82934a.459.459,0,0,0,.396.49854c.24982.05517.402-.11963.53461-.2876A1.39859,1.39859,0,0,0,18.21179,10.28564Z"/><path class="p" d="M12.58279,30.95638A2.37662,2.37662,0,0,1,12.84645,32H10.47521a2.72443,2.72443,0,0,1,.48157-1.30851A3.462,3.462,0,0,0,12.58279,30.95638Z"/><polygon class="c" points="12.607 9.579 12.613 9.586 12.613 9.591 12.607 9.579"/><path class="q" d="M14.64189,14.22019q.68708.17674,1.37422.35318V9.808c-.57247.21133-.73234.145-.88939-.48026-.07375-.29384-.12333-.34653-.32105-.10191a10.54562,10.54562,0,0,0,.7403,2.16078c.06232.11956.21987.30021.03359.41427-.16067.09842-.28023-.08251-.38952-.18615-.14084-.13345-.26952-.27994-.40312-.42005q-.027.24752-.05471.49445a.459.459,0,0,1-.396.4988c-.24983.05529-.402-.11956-.53462-.28747a1.39867,1.39867,0,0,1,.01889-1.61479c-.01245-.09322-.04769-.27213-.10566-.2342-.62111.40645-.80472-.16675-1.10761-.47245a5.947,5.947,0,0,0,.18456,1.1487c.06253.49127.38936.94781.20011,1.47208.13584-.08656.21328-.03735.25591.106A3.727,3.727,0,0,0,14.64189,14.22019Zm.99839-.9203c.06673-.04979.14047.00145.17015.086.00767.09119.0487.21481-.12572.12941C15.587,13.45969,15.534,13.37863,15.64028,13.29989Z"/><polygon class="e" points="12.613 9.591 12.607 9.584 12.607 9.579 12.613 9.591"/><path class="r" d="M12.15077,16.24028c.0964-.01563.19664-.00666.29405-.01795a2.45049,2.45049,0,0,0,2.197-2.00213q.68708.17673,1.37422.35318v5.67725a.3189.3189,0,0,0-.08142.02432,2.87455,2.87455,0,0,1-.27393,1.25438c-.07628.17572-.15387.39428-.39856.37547-.24506-.01882-.37-.21307-.43989-.42527a2.723,2.723,0,0,1-.01787-1.338,14.49321,14.49321,0,0,0,.31236-3.15692c-.013-.271-.06318-.52282-.3505-.61923-.26388-.08829-.44322.07411-.60649.262a2.7854,2.7854,0,0,1-.91089.823c-.188.0828-.45921.27994-.51979-.15082q.0519-.06428.10371-.12883.07393-.10986.14794-.21914c.07331-.05385.20358-.10711.11087-.21017-.07085-.07875-.18173-.01651-.25338.06311a.32185.32185,0,0,0-.11073.031,5.6737,5.6737,0,0,1-.588-.02663c-.1538-.02171-.33306-.07556-.34616-.26373C11.77725,16.31266,11.97208,16.26923,12.15077,16.24028Z"/><path class="i" d="M14.0147,24.59042c.089-.17109.17124-.60475.50039-.16935a21.93887,21.93887,0,0,0-.725,4.36787q-.5251.01389-1.05029.02808c.075-.42.14359-.84156.226-1.26016A11.012,11.012,0,0,1,14.0147,24.59042Z"/><path class="a" d="M13.79013,28.78894c.16066.19512.09155.45016.17347.66584.151.39747.0372.5758-.40753.5344-.30751-.02837-.61908-.01274-.929-.01679q.05623-.578.11275-1.15537Q13.26495,28.80313,13.79013,28.78894Z"/><path class="d" d="M11.64133,25.46585c.10545-1.86173.09669-3.73012.14526-5.59532a4.25468,4.25468,0,0,1,.09285-.57783,4.90722,4.90722,0,0,1,.247-1.156q.30049-.65049.60106-1.30127a.32185.32185,0,0,1,.11073-.031c.07165-.07962.18253-.14186.25338-.06311.09271.10306-.03756.15632-.11087.21017q-.074.10942-.148.21914l-.10364.12883c.06058.43076.33176.23362.51979.15082a2.7854,2.7854,0,0,0,.91089-.823c.16327-.18789.34261-.35029.60649-.262.28732.09641.33747.34826.3505.61923a14.49321,14.49321,0,0,1-.31236,3.15692,2.723,2.723,0,0,0,.01787,1.338c.06985.2122.19483.40645.43989.42527.24469.01881.32228-.19975.39856-.37547a2.87575,2.87575,0,0,0,.274-1.25438.31849.31849,0,0,1,.08134-.02432v4.38988a3.44916,3.44916,0,0,1-1.501-.21944c-.32915-.43539-.41137-.00173-.50039.16936a11.01191,11.01191,0,0,0-1.04883,2.96643c-.08244.41861-.151.84011-.22595,1.26017q-.05646.57753-.11283,1.15537-.022.492-.0443.984a3.462,3.462,0,0,1-1.626-.26488A21.055,21.055,0,0,0,11.64133,25.46585Z"/><path class="j" d="M12.72915,17.2996l.10367-.12888Z"/><path class="s" d="M15.93821.10962a6.36476,6.36476,0,0,1-1.67914,2.114c-.18195.13282-.33466.28687-.29138-.12475.01526-.14527.00427-.36206-.14288-.42383-.179-.07544-.2389.158-.35437.24975-.20044.15967-.383.34131-.58313.50147a3.29677,3.29677,0,0,0-1.21094,2.88086c-.00342.12988.09155.76758.09479.84692l.00769-.00586c.001.12574-.03357.26392.11816.33643a.12953.12953,0,0,1,.01007-.09155l-.01355-.23072a2.06234,2.06234,0,0,1,.01959-.23559c.05237-.26612.0456-.62256.35663-.68555.3562-.07153.41846.31152.5083.54566.20374.532.35614,1.083.53376,1.625.03259.09936.02661.37133.21173.15429.39624-.46435.5534-.05932.67639.18726.23614.47387.40747.97973.60571,1.47241.19769-.24463.24731-.19189.321.10181.157.62549.31689.69165.8894.48047V0Z"/><path class="t" d="M14.14765,10.79954l.01042-.02808.1137.08714c-.01686.11232.02982.16182.14366.145.23065-.14417.28877.0469.37149.19107q-.027.24752-.05471.49474c-.60975.08945-.76086-.11319-.61836-.8294A.10073.10073,0,0,0,14.14765,10.79954Z"/><path class="s" d="M11.34779,10.3242a5.1281,5.1281,0,0,0,.531-.8433q.30613-.11029.61228-.22088c.13671.07527.13389.20178.12231.33147-.00557-.0026-.00369-.00839-.00876-.01129l.00275.00376a6.03659,6.03659,0,0,0,.18434,1.14379c.06253.49127.38937.9478.20011,1.47208a2.96257,2.96257,0,0,0-.1551.982c.01831.19106-.08663.27762-.24071.18469a3.70676,3.70676,0,0,1-1.282-.96227A1.54008,1.54008,0,0,1,11.34779,10.3242Z"/><path class="p" d="M9.08272,6.07646c.258.14243.20235-.07092.20293-.1844a2.20234,2.20234,0,0,1,.13049-.81058c.08-.2012.17254-.43338.46507-.23044.232-.1462.00181-.45537.21488-.60823.2418-.45537.51725-.32278.773-.02692a4.79452,4.79452,0,0,1,.69551,1.35541l.09893.22551a.817.817,0,0,1,.10762.35724l.00767-.00579c.001.12564-.03358.26373.11819.3361v.00029a.129.129,0,0,1,.01006-.09148l-.01354-.23073a2.05884,2.05884,0,0,1,.01954-.23564c.0524-.266.0456-.6227.35666-.68552.35622-.07151.41846.31149.50828.54569.20373.5318.35615,1.083.53375,1.62493.03264.09929.02663.37142.21177.1543.39624-.46435.55336-.05935.6764.1873.23615.4739.40746.97964.60569,1.47236a10.54526,10.54526,0,0,0,.74031,2.16078c.06231.11956.21987.3002.03358.41426-.16067.09843-.28023-.0825-.38952-.18614-.14083-.13346-.26951-.27994-.40341-.42063-.08243-.14359-.14054-.33466-.371-.19049-.048-.04864-.0959-.09669-.14388-.145l-.1137-.08713q-.16881-.24318-.33762-.48577c-.01245-.09322-.04769-.27213-.10566-.2342-.61677.40355-.80233-.15836-1.10153-.4658.01122-.12738.01245-.25157-.12216-.32568q-.30614.11073-.61228.22088c-.38018-.21856-.61988-.80652-1.2391-.39313-.16552.1103-.43026-.13316-.61467-.2811-.12195-.09784-.21213-.26633-.34725-.31178C8.6563,8.15271,8.61584,7.29523,8.59224,6.44238,8.58436,6.15607,8.65933,5.84255,9.08272,6.07646Z"/><path class="m" d="M14.27177,10.8586c.048.04834.09589.0964.14366.145C14.30159,11.02042,14.25491,10.97092,14.27177,10.8586Z"/><path class="k" d="M15.64025,13.2999c.06673-.04979.14047.00145.17015.086.00767.09119.0487.2148-.12564.1294C15.587,13.4597,15.534,13.37864,15.64025,13.2999Z"/><path class="u" d="M14.11383,10.86011a.1017.1017,0,0,0,.03363-.06031h.00006l.00012-.00024h0l.01044-.02832q-.16882-.24279-.33765-.4856a1.39861,1.39861,0,0,0-.01886,1.61475c.13257.168.28479.34277.53461.2876a.45906.45906,0,0,0,.39606-.49854C14.12244,11.77881,13.97137,11.57617,14.11383,10.86011Z"/><path class="d" d="M16.017,4.52338v5.92507C17.02035,9.24351,17.0661,7.30365,16.017,4.52338Z"/><path class="q" d="M16.01517,4.52338v5.92507C15.01182,9.24351,14.96607,7.30365,16.01517,4.52338Z"/></svg>