<svg xmlns="http://www.w3.org/2000/svg" viewBox="0 0 32 32"><defs><style>.a{fill:#745da6;}.b{fill:#c6b7e9;}.c{fill:#e3dbf4;}.d{fill:#9d85d3;}.e{fill:#373f3f;}.f{fill:#7a63ad;}.g{fill:#866eba;}.h{fill:#9179c6;}.i{fill:#d4c9ef;}.j{fill:#6e57a0;}.k{fill:#f0c13e;}.l{fill:#58458c;}.m{fill:#675099;}.n{fill:#604893;}.o{fill:#e7685f;}.p{fill:#b9bfbe;}.q{fill:#687271;}.r{fill:#cf3c35;}.s{fill:#b8a5e4;}.t{fill:#2b3332;}.u{fill:#e8ba36;}.v{fill:#534184;}.w{fill:#e55d53;}.x{fill:#abb2b1;}.y{fill:#5c6664;}.z{fill:#c23734;}</style></defs><title>649-genesect</title><path class="a" d="M13.89287,3.7997C12.17023,5.13621,9.25684,4.708,8.50861,7.537A2.02738,2.02738,0,0,0,9.017,9.65313q.574-.42167,1.14813-.84331c.80874-1.77414,2.73808-1.46209,4.10173-2.20315Q15.13343,5.81245,16,5.01849V3.80757Q14.94643,3.80376,13.89287,3.7997Z"/><path class="b" d="M12.88231,21.16386q-.1233.57616-.2466,1.15206.11331.63249.22669,1.265l.26791.24889Q14.56509,24.83176,16,25.834V23.4104Q14.44116,22.287,12.88231,21.16386Z"/><path class="c" d="M14.778,2.7103Q15.38905,1.96975,16,1.22919V0q-.16412.05138-.32835.10224L13.63416,2.5355l-.12806.1195.00184.00786-.12222.63248q.25355.25232.50715.50436Q14.94653,3.80351,16,3.80757V2.77728Z"/><path class="d" d="M14.26683,6.60667Q15.13346,7.29394,16,7.98173V5.01849Q15.13348,5.81271,14.26683,6.60667Z"/><path class="e" d="M14.778,2.7103l1.222.067V1.22919Q15.389,1.96974,14.778,2.7103Z"/><path class="f" d="M13.26071,13.89148h0l-.02309-.276q-.07515.06014-.15019.12076-.48976.31472-.97967.62969.11949.2645.239.52923l.006-.00508.152-.0959q.24088-.0822.48178-.1649.13233-.062.26461-.12432.00466-.30672.00945-.61345Z"/><path class="g" d="M14.05886,12.9954c-.18064-.0449-.37548-.08829-.5428-.13294q-.13928.37636-.27844.75274a7.54119,7.54119,0,0,0-.091,1.29439c.01535.79941-.22205,1.70183.77474,2.10243A9.7027,9.7027,0,0,1,14.05886,12.9954Z"/><path class="g" d="M14.30108,13.05451a9.07911,9.07911,0,0,0-.10465,4.05569c.36768.086.889.1129.709.42216L13.63023,19.3339q-.12406.274-.24819.54826-.24992.64085-.49979,1.2817Q14.4411,22.28688,16,23.4104V13.40259C15.42042,13.31,14.84844,13.18517,14.30108,13.05451Z"/><path class="a" d="M14.30108,13.05451c-.08271-.01953-.16167-.03932-.24222-.05911a9.7027,9.7027,0,0,0-.13751,4.01662c.03527.01421.06.03273.09844.04567a1.199,1.199,0,0,0,.17664.05251A9.07911,9.07911,0,0,1,14.30108,13.05451Z"/><path class="a" d="M15.27822,12.93464a14.47944,14.47944,0,0,0-.21942,4.38373l.29479.05023a13.60671,13.60671,0,0,1,.14932-4.38373Z"/><path class="h" d="M14.26689,6.60667c-1.36365.74106-3.293.429-4.10173,2.20315-.92868,3.0424,1.27409,3.49551,3.3509,4.05264h.00026A25.09156,25.09156,0,0,0,16,13.398V7.98173Q15.13339,7.29407,14.26689,6.60667Z"/><path class="a" d="M10.8044,16.18542a4.95619,4.95619,0,0,1-4.19174,2.93463l.026-.67855-.6422.26964c-.16458-1.25435,2.65369-3.66238,3.81077-3.25611Z"/><path class="i" d="M13.38573,3.29544l.50716.50426c-1.72264,1.33645-4.636.90829-5.3843,3.73725A2.02736,2.02736,0,0,0,9.017,9.65311q-.23058.29778-.46109.59564c-.35024-.63732-1.01221-1.28215-.99707-1.91067.06753-2.80332,2.34161-3.55523,4.43762-4.41869Q12.69109,3.60753,13.38573,3.29544Z"/><path class="j" d="M13.63026,19.334l-.24822.54816c-2.4648,1.07655-3.91,3.22264-5.4869,5.23062l-.382.128-.8954.63814-.60265.228a2.26915,2.26915,0,0,1,.20565-.64074A19.09541,19.09541,0,0,1,13.63026,19.334Z"/><path class="b" d="M6.11385,31.88507q1.537-.46275,3.07411-.92525l-1.54619-.99629q-.56769.4266-1.13544.85346l-.12248.152-.78261.77938-.00139.12533h0l.00139-.12533q-.12824.126-.25655.25167l.25516-.03806.259-.03881h0l.25421-.03806ZM5.861,31.88228h0c-.04281-.00127-.08556-.00279-.12837-.00431l.12831.00431.13078.00152C5.94805,31.8833,5.90454,31.88254,5.861,31.88228Z"/><path class="a" d="M10.8044,16.18542,9.80723,15.455c.76658-.36359,1.10459-1.63241,2.30052-1.0891l.23908.529C12.491,16.112,11.182,15.59212,10.8044,16.18542Z"/><path class="k" d="M13.38573,3.29544q-.69464.312-1.38926.62395c-.244-1.31864,1.04518-.79257,1.51149-1.25649Z"/><path class="b" d="M5.99646,18.71114l.6422-.26964-.026.67855-1.01959.55745Z"/><path class="l" d="M7.51314,25.24061q-.44772.31928-.89544.63831A7.29591,7.29591,0,0,1,6.47316,30.715l-.08931.25395.12248-.152q.56769-.42662,1.13544-.85346Q7.57747,27.6022,7.51314,25.24061Z"/><path class="m" d="M7.89514,25.11275c1.57688-2.008,3.0221-4.15407,5.4869-5.23062q-.2499.64091-.49977,1.28178-.12325.576-.24657,1.15195l-3.31809,5.227Z"/><path class="n" d="M7.89514,25.11275,9.31761,27.5429c.12789,1.0462.25383,2.09264.38447,3.1385.06774.54233-.183.48079-.51411.27836l-1.54621-.99629-.12863-4.7227Z"/><path class="g" d="M13.13031,23.82977q-.134-.12446-.26791-.24889l.12216.39882A8.118,8.118,0,0,0,16,28.0189V25.834Q14.56511,24.832,13.13031,23.82977Z"/><path class="o" d="M10.87609,8.77139l1.90152.71292.71307,1.331C11.49409,12.05135,10.45311,10.29829,10.87609,8.77139Z"/><ellipse class="e" cx="14.10827" cy="8.20289" rx="0.3149" ry="0.47639" transform="translate(-0.81545 14.80692) rotate(-54.04507)"/><polygon class="p" points="15.658 11.417 15.731 12.074 16 12.116 16 11.446 15.658 11.417"/><polygon class="p" points="14.588 11.326 14.632 11.901 15.476 12.034 15.404 11.395 14.588 11.326"/><polygon class="q" points="15.404 11.395 15.476 12.034 15.731 12.074 15.658 11.417 15.404 11.395"/><polygon class="p" points="13.491 11.233 13.732 11.761 14.369 11.86 14.324 11.304 13.491 11.233"/><polygon class="q" points="14.324 11.304 14.369 11.86 14.632 11.901 14.588 11.326 14.324 11.304"/><ellipse class="r" cx="11.55224" cy="10.02451" rx="0.29068" ry="0.52484"/><ellipse class="r" cx="12.39356" cy="10.32404" rx="0.2568" ry="0.37066"/><ellipse class="o" cx="11.56031" cy="10.04105" rx="0.12112" ry="0.28299"/><ellipse class="o" cx="12.40813" cy="10.34227" rx="0.08074" ry="0.14249"/><path class="j" d="M18.10713,3.7997c1.72264,1.33651,4.636.90826,5.38426,3.73729A2.02738,2.02738,0,0,1,22.983,9.65313q-.574-.42167-1.14813-.84331c-.80874-1.77414-2.73808-1.46209-4.10173-2.20315Q16.86657,5.81245,16,5.01849V3.80757Q17.05357,3.80376,18.10713,3.7997Z"/><path class="s" d="M19.11769,21.16386q.1233.57616.2466,1.15206-.11331.63249-.22669,1.265l-.26791.24889Q17.43491,24.83176,16,25.834V23.4104Q17.55884,22.287,19.11769,21.16386Z"/><path class="i" d="M17.222,2.7103Q16.611,1.96975,16,1.22919V0q.16412.05138.32835.10224L18.36584,2.5355l.12806.1195-.00184.00786.12222.63248q-.25354.25232-.50715.50436Q17.05347,3.80351,16,3.80757V2.77728Z"/><path class="h" d="M17.73317,6.60667Q16.86654,7.29394,16,7.98173V5.01849Q16.86652,5.81271,17.73317,6.60667Z"/><path class="t" d="M17.222,2.7103,16,2.77728V1.22919Q16.611,1.96974,17.222,2.7103Z"/><path class="a" d="M18.73929,13.89148h0l.02309-.276q.07515.06014.15019.12076.48977.31472.97967.62969-.11949.2645-.23905.52923l-.006-.00508-.152-.0959q-.24088-.0822-.48178-.1649-.13233-.062-.26461-.12432-.00467-.30672-.00945-.61345Z"/><path class="f" d="M17.94114,12.9954c.18064-.0449.37548-.08829.5428-.13294q.13927.37636.27844.75274a7.54119,7.54119,0,0,1,.091,1.29439c-.01535.79941.222,1.70183-.77474,2.10243A9.7027,9.7027,0,0,0,17.94114,12.9954Z"/><path class="f" d="M17.69892,13.05451a9.07911,9.07911,0,0,1,.10465,4.05569c-.36768.086-.889.1129-.709.42216l1.27523,1.80154q.12407.274.24819.54826.24991.64085.49979,1.2817Q17.55891,22.28688,16,23.4104V13.40259C16.57958,13.31,17.15156,13.18517,17.69892,13.05451Z"/><path class="j" d="M17.69892,13.05451c.08271-.01953.16167-.03932.24222-.05911a9.7027,9.7027,0,0,1,.13751,4.01662c-.03527.01421-.06.03273-.09844.04567a1.199,1.199,0,0,1-.17664.05251A9.07911,9.07911,0,0,0,17.69892,13.05451Z"/><path class="j" d="M16.72178,12.93464a14.47944,14.47944,0,0,1,.21942,4.38373l-.29479.05023a13.60671,13.60671,0,0,0-.14932-4.38373Z"/><path class="g" d="M17.73311,6.60667c1.36365.74106,3.293.429,4.10173,2.20315.92868,3.0424-1.27409,3.49551-3.3509,4.05264h-.00026A25.09156,25.09156,0,0,1,16,13.398V7.98173Q16.86661,7.29407,17.73311,6.60667Z"/><path class="j" d="M21.1956,16.18542a4.95619,4.95619,0,0,0,4.19174,2.93463l-.026-.67855.6422.26964c.16458-1.25435-2.65369-3.66238-3.81077-3.25611Z"/><path class="b" d="M18.61427,3.29544l-.50716.50426c1.72264,1.33645,4.636.90829,5.3843,3.73725A2.02736,2.02736,0,0,1,22.983,9.65311q.23058.29778.46109.59564c.35024-.63732,1.01221-1.28215.99707-1.91067-.06753-2.80332-2.34161-3.55523-4.43762-4.41869Q19.30891,3.60753,18.61427,3.29544Z"/><path class="m" d="M18.36974,19.334l.24822.54816c2.4648,1.07655,3.91,3.22264,5.4869,5.23062l.382.128.8954.63814.60265.228a2.26915,2.26915,0,0,0-.20565-.64074A19.09541,19.09541,0,0,0,18.36974,19.334Z"/><path class="s" d="M25.88691,31.88507l.25421.03806h0l.259.03881L26.65531,32q-.12834-.126-.25655-.25167l.00139.12533h0l-.00139-.12533-.78261-.77938-.12248-.152q-.56769-.42662-1.13544-.85346l-1.54619.99629q1.537.46238,3.07411.92525Zm.1214-.00127.13078-.00152.12831-.00431c-.04281.00152-.08556.003-.12837.00431h0C26.09546,31.88254,26.052,31.8833,26.00831,31.8838Z"/><path class="j" d="M21.1956,16.18542l.99717-.73039c-.76658-.36359-1.10459-1.63241-2.30052-1.0891l-.23908.529C19.509,16.112,20.818,15.59212,21.1956,16.18542Z"/><path class="u" d="M18.61427,3.29544q.69463.312,1.38926.62395c.244-1.31864-1.04518-.79257-1.51149-1.25649Z"/><path class="s" d="M26.00354,18.71114l-.6422-.26964.026.67855,1.01959.55745Z"/><path class="v" d="M24.48686,25.24061q.44772.31928.89544.63831a7.29591,7.29591,0,0,0,.14454,4.83608l.08931.25395-.12248-.152q-.56769-.42662-1.13544-.85346Q24.42254,27.6022,24.48686,25.24061Z"/><path class="n" d="M24.10486,25.11275c-1.57688-2.008-3.0221-4.15407-5.4869-5.23062q.2499.64091.49977,1.28178.12325.576.24657,1.15195l3.31809,5.227Z"/><path class="l" d="M24.10486,25.11275,22.68239,27.5429c-.12789,1.0462-.25383,2.09264-.38447,3.1385-.06774.54233.183.48079.51411.27836l1.54621-.99629.12863-4.7227Z"/><path class="f" d="M18.86969,23.82977q.134-.12446.26791-.24889l-.12216.39882A8.118,8.118,0,0,1,16,28.0189V25.834Q17.43488,24.832,18.86969,23.82977Z"/><path class="w" d="M21.12391,8.77139l-1.90152.71292-.71307,1.331C20.50591,12.05135,21.54689,10.29829,21.12391,8.77139Z"/><ellipse class="t" cx="17.89173" cy="8.20289" rx="0.47639" ry="0.3149" transform="translate(-1.40757 12.06793) rotate(-35.95493)"/><polygon class="x" points="16.342 11.417 16.269 12.074 16 12.116 16 11.446 16.342 11.417"/><polygon class="x" points="17.412 11.326 17.368 11.901 16.524 12.034 16.596 11.395 17.412 11.326"/><polygon class="y" points="16.596 11.395 16.524 12.034 16.269 12.074 16.342 11.417 16.596 11.395"/><polygon class="x" points="18.509 11.233 18.268 11.761 17.631 11.86 17.676 11.304 18.509 11.233"/><polygon class="y" points="17.676 11.304 17.631 11.86 17.368 11.901 17.412 11.326 17.676 11.304"/><ellipse class="z" cx="20.44776" cy="10.02451" rx="0.29068" ry="0.52484"/><ellipse class="z" cx="19.60644" cy="10.32404" rx="0.2568" ry="0.37066"/><ellipse class="w" cx="20.43969" cy="10.04105" rx="0.12112" ry="0.28299"/><ellipse class="w" cx="19.59187" cy="10.34227" rx="0.08074" ry="0.14249"/></svg>