<svg id="Layer_1" xmlns="http://www.w3.org/2000/svg" width="1800" height="800" viewBox="0 0 1800 800"><style>.tulip_06{fill:#D84459;} .tulip_07{fill:#C84054;} .grey_16{fill:#373F3F;} .grey_17{fill:#2B3332;} .white{fill:#FFFFFF;} .grey_01{fill:#F7F7F7;}</style><path class="tulip_06" d="M899.97 627.6l-.04-.22V230.06c-296 0-536.5 240-536.5 537h365.24c16.56-80 87.06-139.46 171.3-139.46z"/><path class="tulip_07" d="M1071.33 767.05h365.23c0-297-240.62-537-536.62-537V627.4c84 0 154.83 59.67 171.38 139.67z"/><path class="white" d="M769.8 767.05c-2.92 10-4.57 21-4.77 33h134.9V667.6c-62.04 0-114.4 41.46-130.12 99.45z"/><path class="grey_01" d="M1030.2 767.05c-15.73-58-68.27-99.67-130.27-99.67V800.05h135.04c-.2-12-1.85-23-4.78-33z"/><path class="grey_16" d="M899.93 647.38V627.6c-84.22 0-154.7 59.46-171.25 139.45H363.43c0 11 .35 22 1.03 33h400.56c.2-12 1.85-23 4.8-33 15.7-58 68.08-99.46 130.14-99.46l-.03-.22v-20z"/><path class="grey_17" d="M1071.33 767.05c-16.56-80-87.4-139.67-171.4-139.67v40c62 0 114.54 41.67 130.26 99.67 2.92 10 4.57 21 4.78 33h400.5c.7-11 1.08-22 1.08-33h-365.23z"/></svg>
