<svg xmlns="http://www.w3.org/2000/svg" viewBox="0 0 32 32"><title>-636-larvesta-shiny</title><path d="M16.08862,27.40278a.60411.60411,0,0,1,.16841-.24151c.2428-.35277.488-.7041.72682-1.05946.0815-.12161.1523-.14806.22756-.00431.11313.21592.187.10667.27737-.02185.0713-.10149.141-.297.22936-.27428.13146.03392.08733.23144.11514.35766.06491.29412.11206.59255.16632.889a.34489.34489,0,0,1,.04565.24093c.04607.08078.0782.19981.19277.05548a1.95647,1.95647,0,0,1,.16409-.16531q.07816-.09531.15619-.19a10.94637,10.94637,0,0,0,.88013-1.5764c.01811-.04082.02516-.11184.08532-.098.03407.00748.06778.06268.082.1035.06742.19206.12794.38641.191.5799.069.14922.038.42954.15605.44018.14936.01293.23863-.22627.33918-.368.0846-.11932.15763-.24668.23576-.3706a8.14375,8.14375,0,0,0,.645-1.782c.01035-.04514.03335-.11644.06152-.12219.07173-.01495.07792.06641.09761.11213a2.97055,2.97055,0,0,1,.18422,1.37888c.26235-.13513.306-.41861.41616-.64718a7.54668,7.54668,0,0,0,.52894-2.204c.01021-.06785-.05743-.20614.11688-.15065l.05994.06008-.00259-.00287.06189.06181-.00324-.00374q.06351.05736.12715.115l.06045.05865c.23317.16963.3187.08481.36434-.17711a6.11316,6.11316,0,0,0,.02351-1.51256c-.005-.06642-.03716-.176-.01229-.19062.071-.04226.13987.0322.20729.06325a6.25749,6.25749,0,0,0,1.01439.36485c.07461.01983.1559.06785.16733-.06642-.00446-.1012-.04341-.20844.049-.29325-.03853-.34559-.09114-.69-.11012-1.03675-.0115-.20959-.144-.38813-.12276-.6.00561-.05606-.01905-.12621.04428-.159.06734-.0345.10666.02875.14626.06728.15432.15065.30419.30619.45973.45541.04621.04456.08208.13254.16143.10235s.09754-.11443.10056-.19637a2.55917,2.55917,0,0,0-.06548-.54654,5.52171,5.52171,0,0,0-.676-1.6431c-.04-.0736-.1301-.16129-.06864-.23777.06469-.08108.18134-.03738.2773-.02271.221.03392.44175.07044.66356.09861.14771.019.19989-.04255.13894-.18745a3.10334,3.10334,0,0,0-.29649-.63539,5.99773,5.99773,0,0,0-.60607-.75183c-.04614-.04657-.1137-.092-.06914-.17365.03414-.06239.091-.04572.1523-.04543.144.00086.28794-.02041.43205-.0299.09028-.006.20025-.01524.22663-.10206.036-.11874-.08287-.16417-.16819-.20413a14.2688,14.2688,0,0,1-1.39246-.9206,2.1885,2.1885,0,0,1-.31518-.29009c.14418-.05693.276.01322.41221.03939a.27381.27381,0,0,0,.08776.0046c.072-.01007.17488.03939.20356-.06153.02048-.07216-.05844-.115-.11335-.15525a3.98367,3.98367,0,0,1-.89472-.95682,11.87782,11.87782,0,0,1-1.08893-2.02577,10.02439,10.02439,0,0,0-.76074-1.40648A11.738,11.738,0,0,0,19.811,7.50707a.15008.15008,0,0,1-.05722-.01006,7.77271,7.77271,0,0,0-2.17556-.97321c-.22015-.0621-.50155-.0207-.65623-.26278l-.056.069c-.1214.49969-.48179.50687-.866.46432v9.95835a3.77431,3.77431,0,0,0,1.62678-.85677c.32373-.25473.5891-.57041.88523-.85389l.34688-.43126.07187-.10091.05664-.05923-.003.0023q.206-.30015.41193-.60031a17.44243,17.44243,0,0,0,1.12336-2.16234c-.00561-.04025.00215-.08711.04895-.07532.06742.017.07194.07849.05857.13915a7.11275,7.11275,0,0,1,.10336,2.68416,4.93,4.93,0,0,1-1.92837,3.1226,6.47058,6.47058,0,0,1-2.463,1.19171A.49571.49571,0,0,1,16,18.8167v8.69361C16.04715,27.4896,16.0345,27.41744,16.08862,27.40278Zm2.92365-6.698a.7154.7154,0,0,1,1.30327-.0023,2.90637,2.90637,0,0,1-.00733,2.88052.71139.71139,0,0,1-1.28667.00058,2.87728,2.87728,0,0,1-.00927-2.8788Z" style="fill:#edeeee"/><path d="M21.1708,26.17225c-.1927-.18688-.31834-.46518-.64315-.47266-.07813.12392-.15109.25128-.23569.3706-.10055.14174-.18982.38094-.33918.368-.118-.01064-.08705-.29067-.15605-.44018-.2121.25962-.01933.47439.07785.69951q.17584.14663.35183.293a1.87834,1.87834,0,0,0,.65077.07131l.33631-.07332c.22706-.04916.26178-.17394.1577-.37031C21.29507,26.47471,21.23692,26.32147,21.1708,26.17225Z" style="fill:#373f3f"/><path d="M19.319,28.82708a.47057.47057,0,0,0-.59291-.04744.85621.85621,0,0,0-.33013.864q.1201.11644.24029.23259a1.78946,1.78946,0,0,0,.58974.12507l.02911-.00259c.63122-.04284.66091-.08769.43155-.65063A2.43149,2.43149,0,0,0,19.319,28.82708Z" style="fill:#2b3332"/><path d="M21.23419,23.79544c-.02817.00575-.05117.07734-.0616.12219a8.136,8.136,0,0,1-.64494,1.782c.32481.00748.45045.28578.64315.47266q.1726-.44247.34522-.88552a2.97123,2.97123,0,0,0-.18422-1.37916C21.31211,23.86185,21.30592,23.78049,21.23419,23.79544Z" style="fill:#a7794c"/><path d="M27.50757,23.40817c-.17185-.01208-.34543.00144-.5183.00374.15712.12391.36593-.01754.52391.10206C27.58247,23.474,27.69819,23.42168,27.50757,23.40817Z" style="fill:#f2da91"/><path d="M26.98927,23.41191a2.15716,2.15716,0,0,1-2.00586-1.74718c-.06591-.24438-.15539-.48215-.234-.72279l-.05426-.18026c-.09236.08481-.05341.19205-.04895.29325-.01143.13427-.09272.08654-.16733.06642a6.229,6.229,0,0,1-1.01439-.36456c-.06742-.03134-.13628-.1058-.20729-.06354-.02487.01466.00733.12449.01222.19062a6.10976,6.10976,0,0,1-.02344,1.51256c-.04564.26192-.13117.34674-.36427.17682l-.07885.00776a3.04862,3.04862,0,0,0,1.96863,1.41022,4.0577,4.0577,0,0,0,2.74173-.47726C27.3552,23.39437,27.14639,23.53582,26.98927,23.41191Z" style="fill:#ffd96c"/><path d="M23.26887,5.65467a3.65673,3.65673,0,0,0-.63258-.91341c-.01639-.04341-.05147-.09919-.08956-.07331-.05592.03737-.01934.09373.02091.13455.00777.06814.01431.13657.02365.20442a1.51162,1.51162,0,0,1-1.22981,1.83515c-.21807.05491-.44031.09286-.65989.14174a1.45025,1.45025,0,0,0-.89055.52355,11.73542,11.73542,0,0,1,1.64245,1.63332,1.00331,1.00331,0,0,1,.55582-.87229c.19917-.12392.4102-.23145.59837-.37031A1.761,1.761,0,0,0,23.26887,5.65467Z" style="fill:#ffe28a"/><path d="M22.74978,22.52093l.07123-.006-.127-.115A.11891.11891,0,0,0,22.74978,22.52093Z" style="fill:#f1d67e"/><path d="M22.74978,22.52093l.053.06008.07878-.00747-.06059-.05865Z" style="fill:#f2cb53"/><path d="M22.578,22.28462l.06.06Z" style="fill:#f2e5bc"/><path d="M22.63537,22.342l.06185.06179Z" style="fill:#f0dd98"/><path d="M18.39608,29.6436a.85581.85581,0,0,1,.33-.864.47056.47056,0,0,1,.59291.04744,2.429,2.429,0,0,1,.36765.521c.151-.26306.31259-.52038.45074-.78978.25387-.49508.49393-.99735.73975-1.49646a1.87834,1.87834,0,0,1-.65077-.07131c-.5459.06872-1.09209.13513-1.63742.20816-.06771.0092-.13.044-.18688-.01955a1.95647,1.95647,0,0,0-.16409.16531c-.11457.14433-.1467.0253-.19277-.05548-.65523-.01352-1.30039.14519-1.95663.11385-.05412.01466-.04147.08682-.08862.10753v2.41993c.50285-.04513,1.00649-.08424,1.50818-.1403C17.8059,29.75688,18.10023,29.69334,18.39608,29.6436Z" style="fill:#9e6e43"/><path d="M19.226,30.001a1.78911,1.78911,0,0,1-.58974-.12478c-.635.07188-1.26956.14836-1.90531.213A3.15671,3.15671,0,0,1,16,30.118V32a3.33417,3.33417,0,0,0,1.0931-.22138A5.11346,5.11346,0,0,0,19.226,30.001Z" style="fill:#96643b"/><path d="M19.01227,20.70475a2.87728,2.87728,0,0,0,.00927,2.8788.71139.71139,0,0,0,1.28667-.00058,2.9062,2.9062,0,0,0,.00726-2.88052A.71542.71542,0,0,0,19.01227,20.70475Z" style="fill:#434c4b"/><path d="M17.71806,25.80137c-.08833-.02271-.158.17279-.22928.27428-.09035.1288-.16424.23806-.27737.02185-.07526-.14375-.14606-.1173-.22756.004-.23878.35593-.48409.707-.72682,1.05974q.87124-.05649,1.74257-.11327c-.05426-.29642-.10141-.59457-.16632-.889C17.80547,26.03281,17.8496,25.83529,17.71806,25.80137Z" style="fill:#a7794c"/><path d="M19.79673,25.998c-.063-.19349-.12362-.38784-.191-.5799-.01423-.04053-.04794-.09574-.082-.1035-.06016-.0138-.06721.05722-.08532.098a10.95551,10.95551,0,0,1-.88013,1.57668c.34343-.05692.68635-.1173,1.03071-.16819a.41591.41591,0,0,0,.28549-.12362C19.7774,26.47241,19.58463,26.25764,19.79673,25.998Z" style="fill:#a7794c"/><path d="M18.98438,14.45293c.2055.09229.21686.26048.16166.44333-.01891.06268-.07684.13369-.15461.10063-.17876-.07619-.11112-.249-.13254-.38583q-.17347.21563-.34688.431c.02092.05463.04047.10954.063.1633.08021.19206.17042.40826.40322.41257.25136.00432.35076-.21965.4217-.42464a1.862,1.862,0,0,0-.00359-1.34064Q19.19038,14.15277,18.98438,14.45293Z" style="fill:#54b668"/><path d="M16.866,6.33l.056-.069a2.81957,2.81957,0,0,0-.00309-1.67731A2.64331,2.64331,0,0,1,16.90953,2.777a1.54409,1.54409,0,0,0-.20507-1.45248A2.2476,2.2476,0,0,1,16.34954.368.52238.52238,0,0,0,16,0V6.79434C16.38425,6.83689,16.74464,6.83,16.866,6.33Z" style="fill:#ffeaa7"/><path d="M16.257,27.16127a.605.605,0,0,0-.16848.24151c.65631.03134,1.30147-.12737,1.9567-.11385a.34531.34531,0,0,0-.04565-.24093Q17.12836,27.10493,16.257,27.16127Z" style="fill:#604631"/><path d="M19.589,26.82115c-.34436.05089-.68728.11127-1.03071.16819l-.15619.18976c.05686.06382.11917.02875.18688.01955.54533-.073,1.09152-.13944,1.63742-.20816q-.176-.14619-.35191-.293A.41591.41591,0,0,1,19.589,26.82115Z" style="fill:#604631"/><path d="M18.98489,14.45322l-.05413.05664-.07187.1012c.02142.13685-.04622.30964.13254.38583.07777.03306.1357-.038.15461-.10063C19.20116,14.71341,19.18974,14.54579,18.98489,14.45322Z" style="fill:#211915"/><polygon points="18.984 14.453 18.985 14.453 18.987 14.451 18.984 14.453" style="fill:#3d413c"/><path d="M20.62719,11.75411c.01337-.06066.00885-.12219-.05857-.13915-.0468-.01179-.05463.03507-.04895.07532a17.452,17.452,0,0,1-1.12336,2.16234,1.862,1.862,0,0,1,.00359,1.34064c-.07094.205-.17034.429-.4217.42464-.2328-.00431-.323-.22051-.40322-.41257-.0225-.05376-.042-.10867-.063-.1633-.29613.28377-.5615.59916-.8853.85418A3.77687,3.77687,0,0,1,16,16.753V18.8167a.49754.49754,0,0,0,.33875-.06383h.00044a6.46694,6.46694,0,0,0,2.463-1.192,4.93047,4.93047,0,0,0,1.92837-3.12232A7.11586,7.11586,0,0,0,20.62719,11.75411Z" style="fill:#2b3332"/><path d="M18.98743,14.45075l-.05668.05925Z" style="fill:#1eba67"/><path d="M16.731,30.08923c.63575-.06468,1.27028-.14116,1.90531-.213q-.1201-.11643-.24021-.23259c-.29585.04974-.59018.11328-.8879.14634-.50169.05606-1.00533.09517-1.50818.1403V30.118A3.15671,3.15671,0,0,0,16.731,30.08923Z" style="fill:#4f4032"/><path d="M16,27.51031V18.8167a.49571.49571,0,0,1-.33919-.06412,6.47058,6.47058,0,0,1-2.463-1.19171,4.93,4.93,0,0,1-1.92837-3.1226,7.11275,7.11275,0,0,1,.10336-2.68416c-.01337-.06066-.00885-.12219.05857-.13915.0468-.01179.05456.03507.04895.07532a17.44243,17.44243,0,0,0,1.12336,2.16234q.20594.30015.41193.60031l-.003-.0023.05664.05923.07187.10091.34688.43126c.29613.28348.5615.59916.88523.85389A3.77431,3.77431,0,0,0,16,16.75269V6.79434c-.38425.04255-.74464.03537-.866-.46432l-.056-.069c-.15468.24208-.43608.20068-.65623.26278a7.77271,7.77271,0,0,0-2.17556.97321.15008.15008,0,0,1-.05722.01006,11.738,11.738,0,0,0-1.64245,1.63361,10.02439,10.02439,0,0,0-.76074,1.40648,11.87782,11.87782,0,0,1-1.08893,2.02577,3.98367,3.98367,0,0,1-.89472.95682c-.05491.04025-.13383.08309-.11335.15525.02868.10092.13154.05146.20356.06153a.27381.27381,0,0,0,.08776-.0046c.13621-.02617.268-.09632.41221-.03939a2.1885,2.1885,0,0,1-.31518.29009,14.2688,14.2688,0,0,1-1.39246.9206c-.08532.04-.2042.08539-.16819.20413.02638.08682.13635.096.22663.10206.14411.00949.28808.03076.43205.0299.06131-.00029.11816-.017.1523.04543.04456.08165-.023.12708-.06914.17365a5.99773,5.99773,0,0,0-.60607.75183,3.10334,3.10334,0,0,0-.29649.63539c-.06095.1449-.00877.20643.13894.18745.22181-.02817.44254-.06469.66356-.09861.096-.01467.21261-.05837.2773.02271.06146.07648-.02868.16417-.06864.23777a5.52171,5.52171,0,0,0-.676,1.6431,2.55917,2.55917,0,0,0-.06548.54654c.003.08194.02128.16618.10056.19637s.11522-.05779.16143-.10235c.15554-.14922.30541-.30476.45973-.45541.0396-.03853.07892-.10178.14626-.06728.06333.03278.03867.10293.04428.159.02128.2119-.11126.39044-.12276.6-.019.34673-.07159.69116-.11012,1.03675.09243.08481.05348.19205.049.29325.01143.13427.09272.08625.16733.06642a6.25749,6.25749,0,0,0,1.01439-.36485c.06742-.03105.13628-.10551.20729-.06325.02487.01466-.00733.1242-.01229.19062a6.11316,6.11316,0,0,0,.02351,1.51256c.04564.26192.13117.34674.36434.17711l.06045-.05865q.0636-.0578.12715-.115l-.00324.00374.06189-.06181-.00259.00287L9.422,22.2846c.17431-.05549.10667.0828.11688.15065a7.54668,7.54668,0,0,0,.52894,2.204c.11011.22857.15381.512.41616.64718a2.97055,2.97055,0,0,1,.18422-1.37888c.01969-.04572.02588-.12708.09761-.11213.02817.00575.05117.077.06152.12219a8.14375,8.14375,0,0,0,.64495,1.782c.07813.12392.15116.25128.23576.3706.10055.14174.18982.38094.33918.368.118-.01064.08705-.291.15605-.44018.063-.19349.12355-.38784.191-.5799.01423-.04082.04794-.096.082-.1035.06016-.0138.06721.05722.08532.098a10.94637,10.94637,0,0,0,.88013,1.5764q.07806.09487.15619.19a1.95647,1.95647,0,0,1,.16409.16531c.11457.14433.1467.0253.19277-.05548a.34489.34489,0,0,1,.04565-.24093c.05426-.29642.10141-.59485.16632-.889.02781-.12622-.01632-.32374.11514-.35766.08841-.02271.15806.17279.22936.27428.09035.12852.16424.23777.27737.02185.07526-.14375.14606-.1173.22756.00431.23878.35536.484.70669.72682,1.05946a.60411.60411,0,0,1,.16841.24151C15.9655,27.41744,15.95285,27.4896,16,27.51031Zm-2.631-5.37867a2.59352,2.59352,0,0,1-.39057,1.45191.71139.71139,0,0,1-1.28667-.00058,2.90637,2.90637,0,0,1-.00733-2.88052.7154.7154,0,0,1,1.30327.0023A2.60474,2.60474,0,0,1,13.369,22.13164Z" style="fill:#f7f7f7"/><path d="M10.8292,26.17225c.1927-.18688.31834-.46518.64315-.47266.07813.12392.15109.25128.23569.3706.10055.14174.18982.38094.33918.368.118-.01064.08705-.29067.15605-.44018.2121.25962.01933.47439-.07785.69951q-.17584.14663-.35183.293a1.87834,1.87834,0,0,1-.65077.07131l-.33631-.07332c-.22706-.04916-.26178-.17394-.1577-.37031C10.70493,26.47471,10.76308,26.32147,10.8292,26.17225Z" style="fill:#434c4b"/><path d="M12.681,28.82708a.47057.47057,0,0,1,.59291-.04744.85621.85621,0,0,1,.33013.864q-.1201.11644-.24029.23259a1.78946,1.78946,0,0,1-.58974.12507l-.02911-.00259c-.63122-.04284-.66091-.08769-.43155-.65063A2.43149,2.43149,0,0,1,12.681,28.82708Z" style="fill:#373f3f"/><path d="M10.76581,23.79544c.02817.00575.05117.07734.0616.12219a8.136,8.136,0,0,0,.64494,1.782c-.32481.00748-.45045.28578-.64315.47266q-.1726-.44247-.34522-.88552a2.97123,2.97123,0,0,1,.18422-1.37916C10.68789,23.86185,10.69408,23.78049,10.76581,23.79544Z" style="fill:#b38658"/><path d="M4.49243,23.40817c.17185-.01208.34543.00144.5183.00374-.15712.12391-.36593-.01754-.52391.10206C4.41753,23.474,4.30181,23.42168,4.49243,23.40817Z" style="fill:#f2da91"/><path d="M5.01073,23.41191a2.15716,2.15716,0,0,0,2.00586-1.74718c.06591-.24438.15539-.48215.234-.72279l.05426-.18026c.09236.08481.05341.19205.049.29325.01143.13427.09272.08654.16733.06642a6.229,6.229,0,0,0,1.01439-.36456c.06742-.03134.13628-.1058.20729-.06354.02487.01466-.00733.12449-.01222.19062a6.10976,6.10976,0,0,0,.02344,1.51256c.04564.26192.13117.34674.36427.17682l.07885.00776a3.04862,3.04862,0,0,1-1.96863,1.41022A4.0577,4.0577,0,0,1,4.48682,23.514C4.6448,23.39437,4.85361,23.53582,5.01073,23.41191Z" style="fill:#ffe28a"/><path d="M8.73113,5.65467a3.65673,3.65673,0,0,1,.63258-.91341c.01639-.04341.05147-.09919.08956-.07331.05592.03737.01934.09373-.02091.13455-.00777.06814-.01431.13657-.02365.20442a1.51162,1.51162,0,0,0,1.22981,1.83515c.21807.05491.44031.09286.65989.14174a1.45025,1.45025,0,0,1,.89055.52355,11.73542,11.73542,0,0,0-1.64245,1.63332,1.00331,1.00331,0,0,0-.55582-.87229c-.19917-.12392-.4102-.23145-.59837-.37031A1.761,1.761,0,0,1,8.73113,5.65467Z" style="fill:#ffeaa7"/><path d="M9.25022,22.52093l-.07123-.006.127-.115A.11891.11891,0,0,1,9.25022,22.52093Z" style="fill:#f1d67e"/><path d="M9.25022,22.52093l-.053.06008-.07878-.00747.06059-.05865Z" style="fill:#f2cb53"/><path d="M9.422,22.28462l-.06.06Z" style="fill:#f2e5bc"/><path d="M9.36463,22.342l-.06185.06179Z" style="fill:#f0dd98"/><path d="M13.60392,29.6436a.85581.85581,0,0,0-.33-.864.47056.47056,0,0,0-.59291.04744,2.429,2.429,0,0,0-.36765.521c-.151-.26306-.31259-.52038-.45074-.78978-.25387-.49508-.49393-.99735-.73975-1.49646a1.87834,1.87834,0,0,0,.65077-.07131c.5459.06872,1.09209.13513,1.63742.20816.06771.0092.13.044.18688-.01955a1.95647,1.95647,0,0,1,.16409.16531c.11457.14433.1467.0253.19277-.05548.65523-.01352,1.30039.14519,1.95663.11385.05412.01466.04147.08682.08862.10753v2.41993c-.50285-.04513-1.00649-.08424-1.50818-.1403C14.1941,29.75688,13.89977,29.69334,13.60392,29.6436Z" style="fill:#a7794c"/><path d="M12.774,30.001a1.78911,1.78911,0,0,0,.58974-.12478c.635.07188,1.26956.14836,1.90531.213A3.15671,3.15671,0,0,0,16,30.118V32a3.33417,3.33417,0,0,1-1.0931-.22138A5.11346,5.11346,0,0,1,12.774,30.001Z" style="fill:#9e6e43"/><path d="M12.98773,20.70475a2.87728,2.87728,0,0,1-.00927,2.8788.71139.71139,0,0,1-1.28667-.00058,2.9062,2.9062,0,0,1-.00726-2.88052A.71542.71542,0,0,1,12.98773,20.70475Z" style="fill:#505957"/><path d="M14.28194,25.80137c.08833-.02271.158.17279.22928.27428.09035.1288.16424.23806.27737.02185.07526-.14375.14606-.1173.22756.004.23878.35593.48409.707.72682,1.05974q-.87124-.05649-1.74257-.11327c.05426-.29642.10141-.59457.16632-.889C14.19453,26.03281,14.1504,25.83529,14.28194,25.80137Z" style="fill:#b38658"/><path d="M12.20327,25.998c.063-.19349.12362-.38784.191-.5799.01423-.04053.04794-.09574.082-.1035.06016-.0138.06721.05722.08532.098a10.95551,10.95551,0,0,0,.88013,1.57668c-.34343-.05692-.68635-.1173-1.03071-.16819a.41591.41591,0,0,1-.28549-.12362C12.2226,26.47241,12.41537,26.25764,12.20327,25.998Z" style="fill:#b38658"/><path d="M13.01562,14.45293c-.2055.09229-.21686.26048-.16166.44333.01891.06268.07684.13369.15461.10063.17876-.07619.11112-.249.13254-.38583q.17348.21563.34688.431c-.02092.05463-.04047.10954-.063.1633-.08021.19206-.17042.40826-.40322.41257-.25136.00432-.35076-.21965-.4217-.42464a1.862,1.862,0,0,1,.00359-1.34064Q12.80963,14.15277,13.01562,14.45293Z" style="fill:#60c46f"/><path d="M15.134,6.33l-.056-.069a2.81957,2.81957,0,0,1,.00309-1.67731A2.64331,2.64331,0,0,0,15.09047,2.777a1.54409,1.54409,0,0,1,.20507-1.45248A2.2476,2.2476,0,0,0,15.65046.368.52238.52238,0,0,1,16,0V6.79434C15.61575,6.83689,15.25536,6.83,15.134,6.33Z" style="fill:#fef1c6"/><path d="M15.743,27.16127a.605.605,0,0,1,.16848.24151c-.65631.03134-1.30147-.12737-1.9567-.11385a.34531.34531,0,0,1,.04565-.24093Q14.87165,27.10493,15.743,27.16127Z" style="fill:#724d31"/><path d="M12.411,26.82115c.34436.05089.68728.11127,1.03071.16819l.15619.18976c-.05686.06382-.11917.02875-.18688.01955-.54533-.073-1.09152-.13944-1.63742-.20816q.176-.14619.35191-.293A.41591.41591,0,0,0,12.411,26.82115Z" style="fill:#724d31"/><path d="M13.01511,14.45322l.05413.05664.07187.1012c-.02142.13685.04622.30964-.13254.38583-.07777.03306-.1357-.038-.15461-.10063C12.79884,14.71341,12.81026,14.54579,13.01511,14.45322Z" style="fill:#211915"/><polygon points="13.016 14.453 13.015 14.453 13.013 14.451 13.016 14.453" style="fill:#3d413c"/><path d="M11.37281,11.75411c-.01337-.06066-.00885-.12219.05857-.13915.0468-.01179.05463.03507.04895.07532a17.452,17.452,0,0,0,1.12336,2.16234,1.862,1.862,0,0,0-.00359,1.34064c.07094.205.17034.429.4217.42464.2328-.00431.323-.22051.40322-.41257.0225-.05376.042-.10867.063-.1633.29613.28377.5615.59916.8853.85418A3.77687,3.77687,0,0,0,16,16.753V18.8167a.49754.49754,0,0,1-.33875-.06383h-.00044a6.46694,6.46694,0,0,1-2.463-1.192,4.93047,4.93047,0,0,1-1.92837-3.12232A7.11586,7.11586,0,0,1,11.37281,11.75411Z" style="fill:#373f3f"/><path d="M13.01257,14.45075l.05668.05925Z" style="fill:#1eba67"/><path d="M15.269,30.08923c-.63575-.06468-1.27028-.14116-1.90531-.213q.12011-.11643.24021-.23259c.29585.04974.59018.11328.8879.14634.50169.05606,1.00533.09517,1.50818.1403V30.118A3.15671,3.15671,0,0,1,15.269,30.08923Z" style="fill:#604631"/></svg>