<?xml version="1.0" encoding="utf-8"?>
<!-- Generator: Adobe Illustrator 23.0.6, SVG Export Plug-In . SVG Version: 6.00 Build 0)  -->
<svg version="1.1" xmlns="http://www.w3.org/2000/svg" xmlns:xlink="http://www.w3.org/1999/xlink" x="0px" y="0px" width="32px"
	 height="32px" viewBox="0 0 32 32" enable-background="new 0 0 32 32" xml:space="preserve">
<g id="icons">
	<g>
		<g>
			<path fill="#FFFFFF" d="M7.356,15.136c-0.14-0.841,0.77-1.461,1.501-1.022l1.954,1.173C12.278,14.479,14.066,14,16,14V0
				l-1.778,0.003c-0.257,0-0.467,0.196-0.495,0.451c-0.182,1.663-1.359,3.069-2.973,3.427c-4.239,0.941-6.82,3.259-6.82,7.369
				c0,2.976,1.362,4.689,3.716,5.647L7.356,15.136z"/>
			<path fill="#FFFFFF" d="M21.113,3.881c-1.614-0.358-2.792-1.764-2.973-3.427c-0.028-0.255-0.238-0.45-0.495-0.451L16,0v14
				c1.934,0,3.722,0.479,5.189,1.287l1.954-1.173c0.731-0.439,1.641,0.181,1.501,1.022l-0.284,1.701
				c2.266-0.969,3.573-2.672,3.573-5.587C27.933,7.14,25.352,4.821,21.113,3.881z"/>
			<g>
				<path fill="#FFFFFF" d="M19.617,29.285l0.323,2.285c0.035,0.247,0.246,0.43,0.495,0.43h3.134c0.248,0,0.458-0.176,0.494-0.422
					C24.28,30.067,25,24.868,25,22c0-4.418-3.477-8-9-8v16C17.469,30,18.36,29.74,19.617,29.285z"/>
				<path fill="#FFFFFF" d="M16,14c-5.523,0-9,3.582-9,8c0,2.868,0.72,8.067,0.938,9.578C7.974,31.824,8.184,32,8.432,32h3.134
					c0.249,0,0.46-0.183,0.495-0.43l0.323-2.285C13.64,29.74,14.531,30,16,30V14z"/>
				<path fill="#FFFFFF" d="M25,21c0-1.053-0.307-2.048-0.843-2.943l0.487-2.921c0.14-0.841-0.77-1.461-1.501-1.022l-1.954,1.173
					C19.722,14.479,17.934,14,16,14v14C20.971,28,25,24.866,25,21z"/>
				<path fill="#FFFFFF" d="M16,14c-1.934,0-3.722,0.479-5.189,1.287l-1.954-1.173c-0.731-0.439-1.641,0.181-1.501,1.022
					l0.487,2.921C7.307,18.952,7,19.947,7,21c0,3.866,4.029,7,9,7V14z"/>
				<g>
					<g>
						<g>
							<g>
								<path fill="#FFFFFF" d="M12.874,24h-1.767c-0.996,0-1.92-0.681-2.08-1.664C8.824,21.083,9.785,20,11,20
									c1.907,0,2.602,1.617,2.855,2.795C13.989,23.416,13.51,24,12.874,24z"/>
							</g>
							<g>
								<path fill="#FFFFFF" d="M12.874,24h-1.767c-0.996,0-1.92-0.681-2.08-1.664C8.824,21.083,9.785,20,11,20
									c1.907,0,2.602,1.617,2.855,2.795C13.989,23.416,13.51,24,12.874,24z"/>
							</g>
							<g>
								<path fill="#FFFFFF" d="M12.874,24h-1.767c-0.996,0-1.92-0.681-2.08-1.664C8.824,21.083,9.785,20,11,20
									c1.907,0,2.602,1.617,2.855,2.795C13.989,23.416,13.51,24,12.874,24z"/>
							</g>
						</g>
						<path fill="#FFFFFF" d="M11,20c-0.084,0-0.163,0.017-0.244,0.027C10.291,20.555,10,21.241,10,22
							c0,0.758,0.29,1.442,0.754,1.97C10.87,23.989,10.988,24,11.107,24h1.767c0.636,0,1.114-0.584,0.981-1.205
							C13.602,21.617,12.907,20,11,20z"/>
					</g>
					<circle fill="#FFFFFF" cx="11.5" cy="21.5" r="0.5"/>
				</g>
				<g>
					<g>
						<g>
							<g>
								<path fill="#FFFFFF" d="M19.003,24h1.767c0.996,0,1.92-0.681,2.08-1.664C23.054,21.083,22.092,20,20.878,20
									c-1.907,0-2.602,1.617-2.855,2.795C17.889,23.416,18.367,24,19.003,24z"/>
							</g>
							<g>
								<path fill="#FFFFFF" d="M19.003,24h1.767c0.996,0,1.92-0.681,2.08-1.664C23.054,21.083,22.092,20,20.878,20
									c-1.907,0-2.602,1.617-2.855,2.795C17.889,23.416,18.367,24,19.003,24z"/>
							</g>
							<g>
								<path fill="#FFFFFF" d="M19.003,24h1.767c0.996,0,1.92-0.681,2.08-1.664C23.054,21.083,22.092,20,20.878,20
									c-1.907,0-2.602,1.617-2.855,2.795C17.889,23.416,18.367,24,19.003,24z"/>
							</g>
						</g>
						<path fill="#FFFFFF" d="M20.878,20c0.084,0,0.163,0.017,0.244,0.027c0.465,0.528,0.756,1.214,0.756,1.973
							c0,0.758-0.29,1.442-0.754,1.97C21.008,23.989,20.89,24,20.771,24h-1.767c-0.636,0-1.114-0.584-0.981-1.205
							C18.276,21.617,18.97,20,20.878,20z"/>
					</g>
					<circle fill="#FFFFFF" cx="20.5" cy="21.5" r="0.5"/>
				</g>
				<path fill="#FFFFFF" d="M16,26.5V28c3.032,0,5.708-1.17,7.339-2.957c0,0-2.995,0.55-5.339,0.957
					C17.214,26.136,16.502,26.505,16,26.5z"/>
				<path fill="#FFFFFF" d="M16,26.5V28c-3.032,0-5.708-1.17-7.339-2.957c0,0,2.995,0.55,5.339,0.957
					C14.786,26.136,15.498,26.505,16,26.5z"/>
			</g>
			<path fill="#FFFFFF" d="M10.827,15.271c1.467-0.808,3.255-1.287,5.189-1.287v-14h-1.317v0.003c0,1.855-1.756,3.877-1.756,3.877
				s-3.928,3.259-3.928,7.369c0,1.609,0.584,2.84,1.405,3.793L10.827,15.271z"/>
			<path fill="#FFFFFF" d="M21.595,15.043C22.416,14.09,23,12.859,23,11.25c0-4.11-3.928-7.369-3.928-7.369
				s-1.756-2.023-1.756-3.877V0H16v14c1.934,0,3.722,0.479,5.189,1.287L21.595,15.043z"/>
			<path fill="#FFFFFF" d="M12.383,29.285L12.141,31h0.468c0.229,0,0.429-0.156,0.485-0.379l0.253-1.012
				C13.041,29.515,12.726,29.409,12.383,29.285z"/>
			<path fill="#FFFFFF" d="M19.617,29.285c-0.342,0.124-0.657,0.23-0.964,0.324l0.253,1.012C18.961,30.844,19.161,31,19.39,31h0.468
				L19.617,29.285z"/>
		</g>
		<g>
			<path fill="#78DF7C" d="M7.356,15.136c-0.14-0.841,0.77-1.461,1.501-1.022l1.954,1.173C12.278,14.479,14.066,14,16,14V0
				l-1.778,0.003c-0.257,0-0.467,0.196-0.495,0.451c-0.182,1.663-1.359,3.069-2.973,3.427c-4.239,0.941-6.82,3.259-6.82,7.369
				c0,2.976,1.362,4.689,3.716,5.647L7.356,15.136z"/>
			<path fill="#54B668" d="M21.113,3.881c-1.614-0.358-2.792-1.764-2.973-3.427c-0.028-0.255-0.238-0.45-0.495-0.451L16,0v14
				c1.934,0,3.722,0.479,5.189,1.287l1.954-1.173c0.731-0.439,1.641,0.181,1.501,1.022l-0.284,1.701
				c2.266-0.969,3.573-2.672,3.573-5.587C27.933,7.14,25.352,4.821,21.113,3.881z"/>
			<g>
				<path fill="#46B080" d="M19.617,29.285l0.323,2.285c0.035,0.247,0.246,0.43,0.495,0.43h3.134c0.248,0,0.458-0.176,0.494-0.422
					C24.28,30.067,25,24.868,25,22c0-4.418-3.477-8-9-8v16C17.469,30,18.36,29.74,19.617,29.285z"/>
				<path fill="#53BF8C" d="M16,14c-5.523,0-9,3.582-9,8c0,2.868,0.72,8.067,0.938,9.578C7.974,31.824,8.184,32,8.432,32h3.134
					c0.249,0,0.46-0.183,0.495-0.43l0.323-2.285C13.64,29.74,14.531,30,16,30V14z"/>
				<path fill="#6EDCA2" d="M25,21c0-1.053-0.307-2.048-0.843-2.943l0.487-2.921c0.14-0.841-0.77-1.461-1.501-1.022l-1.954,1.173
					C19.722,14.479,17.934,14,16,14v14C20.971,28,25,24.866,25,21z"/>
				<path fill="#7AEBAC" d="M16,14c-1.934,0-3.722,0.479-5.189,1.287l-1.954-1.173c-0.731-0.439-1.641,0.181-1.501,1.022
					l0.487,2.921C7.307,18.952,7,19.947,7,21c0,3.866,4.029,7,9,7V14z"/>
				<g>
					<g>
						<g>
							<g>
								<path fill="#FFFFFF" d="M12.874,24h-1.767c-0.996,0-1.92-0.681-2.08-1.664C8.824,21.083,9.785,20,11,20
									c1.907,0,2.602,1.617,2.855,2.795C13.989,23.416,13.51,24,12.874,24z"/>
							</g>
							<g>
								<path fill="#FFFFFF" d="M12.874,24h-1.767c-0.996,0-1.92-0.681-2.08-1.664C8.824,21.083,9.785,20,11,20
									c1.907,0,2.602,1.617,2.855,2.795C13.989,23.416,13.51,24,12.874,24z"/>
							</g>
						</g>
						<path fill="#E85160" d="M11,20c-0.084,0-0.163,0.017-0.244,0.027C10.291,20.555,10,21.241,10,22
							c0,0.758,0.29,1.442,0.754,1.97C10.87,23.989,10.988,24,11.107,24h1.767c0.636,0,1.114-0.584,0.981-1.205
							C13.602,21.617,12.907,20,11,20z"/>
					</g>
					<circle fill="#FFFFFF" cx="11.5" cy="21.5" r="0.5"/>
				</g>
				<g>
					<g>
						<g>
							<g>
								<path fill="#F7F7F7" d="M19.003,24h1.767c0.996,0,1.92-0.681,2.08-1.664C23.054,21.083,22.092,20,20.878,20
									c-1.907,0-2.602,1.617-2.855,2.795C17.889,23.416,18.367,24,19.003,24z"/>
							</g>
							<g>
								<path fill="#F7F7F7" d="M19.003,24h1.767c0.996,0,1.92-0.681,2.08-1.664C23.054,21.083,22.092,20,20.878,20
									c-1.907,0-2.602,1.617-2.855,2.795C17.889,23.416,18.367,24,19.003,24z"/>
							</g>
						</g>
						<path fill="#D84459" d="M20.878,20c0.084,0,0.163,0.017,0.244,0.027c0.465,0.528,0.756,1.214,0.756,1.973
							c0,0.758-0.29,1.442-0.754,1.97C21.008,23.989,20.89,24,20.771,24h-1.767c-0.636,0-1.114-0.584-0.981-1.205
							C18.276,21.617,18.97,20,20.878,20z"/>
					</g>
					<circle fill="#F7F7F7" cx="20.5" cy="21.5" r="0.5"/>
				</g>
				<path fill="#60CD96" d="M16,26.5V28c3.032,0,5.708-1.17,7.339-2.957c0,0-2.995,0.55-5.339,0.957
					C17.214,26.136,16.502,26.505,16,26.5z"/>
				<path fill="#6EDCA2" d="M16,26.5V28c-3.032,0-5.708-1.17-7.339-2.957c0,0,2.995,0.55,5.339,0.957
					C14.786,26.136,15.498,26.505,16,26.5z"/>
			</g>
			<path fill="#6CD275" d="M10.827,15.271c1.467-0.808,3.255-1.287,5.189-1.287v-14h-1.317v0.003c0,1.855-1.756,3.877-1.756,3.877
				s-3.928,3.259-3.928,7.369c0,1.609,0.584,2.84,1.405,3.793L10.827,15.271z"/>
			<path fill="#60C46F" d="M21.595,15.043C22.416,14.09,23,12.859,23,11.25c0-4.11-3.928-7.369-3.928-7.369
				s-1.756-2.023-1.756-3.877V0H16v14c1.934,0,3.722,0.479,5.189,1.287L21.595,15.043z"/>
			<path fill="#46B080" d="M12.383,29.285L12.141,31h0.468c0.229,0,0.429-0.156,0.485-0.379l0.253-1.012
				C13.041,29.515,12.726,29.409,12.383,29.285z"/>
			<path fill="#3AA176" d="M19.617,29.285c-0.342,0.124-0.657,0.23-0.964,0.324l0.253,1.012C18.961,30.844,19.161,31,19.39,31h0.468
				L19.617,29.285z"/>
		</g>
	</g>
</g>
<g id="labels">
</g>
</svg>
