<?xml version="1.0" encoding="utf-8"?>
<!-- Generator: Adobe Illustrator 23.0.6, SVG Export Plug-In . SVG Version: 6.00 Build 0)  -->
<svg version="1.1" xmlns="http://www.w3.org/2000/svg" xmlns:xlink="http://www.w3.org/1999/xlink" x="0px" y="0px" width="32px"
	 height="32px" viewBox="0 0 32 32" enable-background="new 0 0 32 32" xml:space="preserve">
<g id="icons">
	<g>
		<path fill="#2B3332" d="M16,25c0,0,7,3,12,0l1,1c0,0-5,6-13,4V25z"/>
		<path fill="#7D3119" d="M19,14.002c0,0,4.601-0.92,5.859-6.292c0.104-0.445,0.039-0.914-0.166-1.322l-0.4-0.8
			c-0.175-0.35-0.106-0.772,0.17-1.048l0,0c0.325-0.325,0.839-0.355,1.203-0.074c1.717,1.328,6.175,5.668,6.33,15.032
			c0.005,0.278-0.222,0.505-0.5,0.505h-0.004c-0.292,0-0.56-0.153-0.715-0.4c-0.603-0.96-2.443-3.2-5.776-1.6c0,0-3-1.833-5,0
			L19,14.002"/>
		<path fill="#2B3332" d="M19,14.002c0,0,4.601-0.92,5.859-6.292c0.104-0.445,0.039-0.914-0.166-1.322l-0.4-0.8
			c-0.175-0.35-0.106-0.772,0.17-1.048v0c0.325-0.325,0.839-0.355,1.203-0.074c1.717,1.328,6.172,5.665,6.33,15.024
			c0.005,0.282-0.226,0.512-0.508,0.512h0c-0.269,0-0.491-0.208-0.506-0.476c-0.097-1.699-0.703-7.548-4.482-11.024
			c0,0-1.458,6.32-7.251,6.496L19,14.002"/>
		<path fill="#843822" d="M13.006,14.002c0,0-4.601-0.92-5.859-6.292C7.043,7.265,7.109,6.797,7.313,6.388l0.4-0.8
			c0.175-0.35,0.106-0.772-0.17-1.048l0,0C7.218,4.214,6.704,4.185,6.34,4.466c-1.717,1.328-6.175,5.668-6.33,15.032
			c-0.005,0.278,0.222,0.505,0.5,0.505h0.004c0.292,0,0.56-0.153,0.715-0.4c0.603-0.96,2.443-3.2,5.776-1.6c0,0,3-1.833,5,0
			L13.006,14.002"/>
		<path fill="#373F3F" d="M13.006,14.002c0,0-4.601-0.92-5.859-6.292C7.043,7.265,7.109,6.797,7.313,6.388l0.4-0.8
			c0.175-0.35,0.106-0.772-0.17-1.048l0,0C7.218,4.214,6.704,4.185,6.34,4.466C4.624,5.793,0.168,10.131,0.01,19.49
			c-0.005,0.282,0.226,0.512,0.508,0.512h0c0.269,0,0.491-0.208,0.506-0.476c0.097-1.699,0.703-7.548,4.482-11.024
			c0,0,1.458,6.32,7.251,6.496L13.006,14.002"/>
		<path fill="#373F3F" d="M27.063,19.594l-1.159-1.739c-1.234-1.85-3.049-3.237-5.158-3.94l-2.185-0.728
			C18.199,12.169,18,11.092,18,10v0h-2v20c1.094,0,2.117-0.257,3-0.763v1.348c0,0.265,0.105,0.52,0.293,0.707l0.414,0.414
			C19.895,31.895,20.149,32,20.414,32h4.98c0.359,0,0.611-0.372,0.46-0.698C25.254,30,23,30,23,30s1-1,1-4
			c0-1.854-1.145-2.943-2.021-3.505c-0.089-2.237-0.755-4.556-1.796-6.344c1.281,0.78,2.335,1.885,3.009,3.234l0.951,1.903
			c0.455,0.909,1.603,1.214,2.449,0.65l0.001-0.001C27.37,21.42,27.58,20.37,27.063,19.594z"/>
		<path fill="#434C4B" d="M19.863,7.451l-0.62-2.481c-0.159-0.637-0.159-1.303,0-1.94l0.447-1.788C19.847,0.611,19.37,0,18.72,0
			c-0.43,0-0.812,0.275-0.948,0.683l-0.544,1.633C17.092,2.725,16.71,3,16.279,3H16v10h0.438c0.918,0,1.718-0.625,1.94-1.515
			l0.554-2.216c0.044-0.176,0.135-0.336,0.263-0.465L19.6,8.4C19.848,8.152,19.948,7.792,19.863,7.451z"/>
		<path fill="#434C4B" d="M16,10h-2v0c0,1.091-0.199,2.168-0.56,3.186l-2.185,0.728c-2.11,0.703-3.925,2.09-5.158,3.94l-1.159,1.739
			C4.42,20.37,4.63,21.42,5.406,21.937l0.001,0.001c0.846,0.564,1.994,0.259,2.449-0.65l0.951-1.903
			c0.674-1.349,1.729-2.454,3.009-3.234c-1.1,1.888-1.787,4.37-1.812,6.721C9.003,23.497,8,24.497,8,26c0,3,1,4,1,4
			s-2.254,0-2.854,1.302C5.995,31.628,6.247,32,6.606,32h4.98c0.265,0,0.52-0.105,0.707-0.293l0.414-0.414
			C12.895,31.105,13,30.851,13,30.586v-1.348C13.883,29.743,14.906,30,16,30V10z"/>
		<path fill="#505957" d="M16,3h-0.279c-0.43,0-0.813-0.275-0.949-0.684l-0.544-1.633C14.092,0.275,13.71,0,13.28,0
			c-0.65,0-1.127,0.611-0.969,1.242l0.447,1.788c0.159,0.637,0.159,1.303,0,1.94l-0.62,2.481C12.052,7.792,12.152,8.152,12.4,8.4
			l0.404,0.404c0.128,0.128,0.219,0.289,0.263,0.465l0.554,2.216c0.223,0.89,1.023,1.515,1.94,1.515H16V3z"/>
		<path fill="#FAE09F" d="M18.917,29.291c0.284-0.156,0.507-0.417,0.615-0.722C19.885,27.571,20,26.339,20,25c0-3.314-0.686-6-4-6
			v11C17.059,30,18.053,29.764,18.917,29.291z"/>
		<path fill="#FDEBBB" d="M12,25c0,1.339,0.115,2.571,0.468,3.569c0.108,0.305,0.331,0.566,0.615,0.722
			C13.947,29.764,14.941,30,16,30V19C12.686,19,12,21.686,12,25z"/>
		<g>
			<path fill="#FFFFFF" d="M14.978,7.717c-0.187-0.36-0.601-0.969-1.356-1.254c-0.06-0.023-0.129-0.014-0.18,0.024
				c-0.102,0.075-0.265,0.243-0.379,0.599c-0.118,0.366-0.045,0.647,0.019,0.796C13.112,7.954,13.183,8,13.262,8h1.541
				C14.948,8,15.045,7.846,14.978,7.717z"/>
			<path fill="#0F769B" d="M14.978,7.717c-0.174-0.334-0.545-0.878-1.199-1.183c-0.1,0.09-0.228,0.252-0.325,0.552
				c-0.118,0.366-0.045,0.647,0.019,0.796C13.504,7.954,13.575,8,13.654,8h1.149C14.948,8,15.045,7.846,14.978,7.717z"/>
			<path fill="#373F3F" d="M14.527,7.881c0.061-0.144,0.128-0.414,0.026-0.763c-0.14-0.154-0.304-0.307-0.509-0.437
				c-0.069,0.095-0.139,0.222-0.197,0.404c-0.118,0.366-0.045,0.647,0.019,0.796C13.896,7.954,13.967,8,14.046,8h0.3
				C14.425,8,14.496,7.954,14.527,7.881z"/>
		</g>
		<g>
			<path fill="#F7F7F7" d="M17.022,7.717c0.187-0.36,0.601-0.969,1.356-1.254c0.06-0.023,0.129-0.014,0.18,0.024
				c0.102,0.075,0.265,0.243,0.379,0.599c0.118,0.366,0.045,0.647-0.019,0.796C18.888,7.954,18.817,8,18.738,8h-1.541
				C17.052,8,16.955,7.846,17.022,7.717z"/>
			<path fill="#0A6F8E" d="M18.527,7.881c0.063-0.149,0.136-0.43,0.019-0.796c-0.096-0.3-0.225-0.462-0.325-0.552
				c-0.654,0.305-1.025,0.85-1.199,1.183C16.955,7.846,17.052,8,17.197,8h1.149C18.425,8,18.496,7.954,18.527,7.881z"/>
			<path fill="#2B3332" d="M18.135,7.881c0.063-0.149,0.136-0.43,0.019-0.796c-0.059-0.182-0.129-0.309-0.197-0.404
				c-0.205,0.13-0.368,0.283-0.509,0.437c-0.102,0.349-0.036,0.619,0.026,0.763C17.504,7.954,17.575,8,17.654,8h0.3
				C18.033,8,18.104,7.954,18.135,7.881z"/>
		</g>
		<path fill="#FF4A00" d="M28,25v-0.001c0-1.175,0.799-2.199,1.939-2.484l1.252-0.313c0.366-0.092,0.698,0.24,0.606,0.606
			l-0.313,1.252C31.2,25.201,30.176,26,29.001,26H29L28,25z"/>
		<path fill="#FF8F00" d="M28.106,24.789L28,25l1,1l0.211-0.106c1.009-0.505,1.676-1.494,1.776-2.605
			c0.014-0.159-0.118-0.291-0.277-0.277C29.6,23.113,28.61,23.78,28.106,24.789z"/>
		<path fill="#FFD400" d="M28,25l1,1c0,0,0.804-0.785,0.97-1.672c0.033-0.178-0.12-0.332-0.298-0.298C28.793,24.198,28,25,28,25z"/>
	</g>
</g>
<g id="labels">
</g>
</svg>
