<?xml version="1.0" encoding="utf-8"?>
<!-- Generator: Adobe Illustrator 23.0.2, SVG Export Plug-In . SVG Version: 6.00 Build 0)  -->
<svg version="1.1" xmlns="http://www.w3.org/2000/svg" xmlns:xlink="http://www.w3.org/1999/xlink" x="0px" y="0px" width="32px"
	 height="32px" viewBox="0 0 32 32" enable-background="new 0 0 32 32" xml:space="preserve">
<g id="icons">
	<g>
		<path fill="#FFEAA7" d="M26,20c0-5.523-4.477-10-10-10v20C21.523,30,26,25.523,26,20z"/>
		<path fill="#FEF1C6" d="M16,10c-5.523,0-10,4.477-10,10c0,5.523,4.477,10,10,10V10z"/>
		<g>
			<path fill="#FFD96C" d="M8.518,15H16v-4C12.88,11,10.132,12.589,8.518,15z"/>
			<path fill="#FFD04D" d="M23.482,15c-1.615-2.411-4.362-4-7.482-4v4H23.482z"/>
			<path fill="#F7C845" d="M16,15v5h9c0-1.851-0.56-3.57-1.518-5H16z"/>
			<path fill="#F0C13E" d="M16,25h7.482C24.44,23.57,25,21.851,25,20h-9V25z"/>
			<path fill="#E8BA36" d="M16,25v4c3.12,0,5.868-1.589,7.482-4H16z"/>
			<path fill="#FFD04D" d="M16,15H8.518C7.56,16.43,7,18.149,7,20h9V15z"/>
			<path fill="#F7C845" d="M16,25v-5H7c0,1.851,0.56,3.57,1.518,5H16z"/>
			<path fill="#F0C13E" d="M8.518,25c1.615,2.411,4.362,4,7.482,4v-4H8.518z"/>
			<path fill="#51BAC5" d="M29.696,14.93c-0.571-0.99-1.79-1.399-2.843-0.955l-3.188,1.345C24.501,16.687,25,18.281,25,20
				c0,0.351-0.039,0.693-0.078,1.033l4.18-3.164C30.013,17.18,30.268,15.92,29.696,14.93z"/>
		</g>
		<path fill="#51BAC5" d="M25,9.143C25,4.093,21.049,0,16,0v16C21.049,16,25,14.192,25,9.143z"/>
		<path fill="#56C7CD" d="M16,0c-5.049,0-9,4.093-9,9.143C7,14.192,10.951,16,16,16V0z"/>
		<g>
			<path fill="#FFFFFF" d="M10.049,10.841c-0.37-0.062-0.682-0.32-0.789-0.68C9.132,9.726,9,9.028,9,8c0-2,0.966-3,1.983-3
				S13,6,13,8c0,0.967-0.117,1.758-0.238,2.318c-0.114,0.527-0.613,0.873-1.145,0.785L10.049,10.841z"/>
			<path fill="#C27BC6" d="M13,8c0-1.666-0.696-2.627-1.515-2.906c0,0,0,0-0.001,0C10.673,5.372,10,6.334,10,8
				c0,1.385,0.238,2.398,0.385,2.897l1.057,0.176l0.175,0.029c0.532,0.089,1.031-0.258,1.145-0.785C12.883,9.758,13,8.967,13,8z"/>
			<path fill="#373F3F" d="M13,8c0-1.666-0.696-2.628-1.516-2.906C10.673,5.372,10,6.334,10,8c0,0.42,0.022,0.801,0.057,1.145
				c0.045,0.445,0.39,0.797,0.831,0.871l0.881,0.147c0.564,0.094,1.095-0.298,1.16-0.866C12.971,8.912,13,8.478,13,8z"/>
			<circle fill="#FFFFFF" cx="11.488" cy="6.5" r="0.5"/>
		</g>
		<g>
			<path fill="#F7F7F7" d="M21.951,10.841c0.37-0.062,0.682-0.32,0.789-0.68C22.868,9.726,23,9.028,23,8c0-2-0.966-3-1.983-3
				S19,6,19,8c0,0.967,0.117,1.758,0.238,2.318c0.114,0.527,0.613,0.873,1.145,0.785L21.951,10.841z"/>
			<path fill="#B370B9" d="M19,8c0-1.666,0.696-2.627,1.515-2.906c0,0,0,0,0.001,0C21.327,5.372,22,6.334,22,8
				c0,1.385-0.238,2.398-0.385,2.897l-1.057,0.176l-0.175,0.029c-0.532,0.089-1.031-0.258-1.145-0.785C19.117,9.758,19,8.967,19,8z"
				/>
			<path fill="#2B3332" d="M19,8c0-1.666,0.696-2.628,1.516-2.906C21.327,5.372,22,6.334,22,8c0,0.42-0.022,0.801-0.057,1.145
				c-0.045,0.445-0.39,0.797-0.831,0.871l-0.881,0.147c-0.564,0.094-1.095-0.298-1.16-0.866C19.029,8.912,19,8.478,19,8z"/>
			<circle fill="#F7F7F7" cx="20.512" cy="6.5" r="0.5"/>
		</g>
		<g>
			<path fill="#56C7CD" d="M7.28,11.237c-0.083-0.294-0.146-0.606-0.193-0.93C7.132,10.634,7.197,10.943,7.28,11.237z"/>
			<path fill="#56C7CD" d="M7.072,10.215C7.026,9.875,7,9.52,7,9.143C7,9.52,7.029,9.873,7.072,10.215z"/>
			<path fill="#51BAC5" d="M7.28,11.238C8.251,14.696,11.727,16,16,16v-2.571c-0.679-0.047-1.347-0.832-2.001-0.929
				C11.475,12.125,9.172,12.108,7.28,11.238z"/>
		</g>
		<g>
			<path fill="#51BAC5" d="M24.923,10.246C24.969,9.895,25,9.532,25,9.143C25,9.532,24.971,9.897,24.923,10.246z"/>
			<path fill="#4CAEBC" d="M24.696,11.323C22.8,12.169,20.508,12.169,18,12.518c-0.633,0.088-1.28,0.919-1.938,0.919
				c-0.021,0-0.042-0.007-0.062-0.009V16c4.614,0,8.301-1.518,8.904-5.632C24.852,10.702,24.785,11.022,24.696,11.323z"/>
		</g>
		<path fill="#56C7CD" d="M7,20c0-1.719,0.499-3.313,1.335-4.679l-3.188-1.345c-1.053-0.444-2.271-0.035-2.843,0.955
			s-0.316,2.25,0.595,2.939l4.18,3.164C7.039,20.693,7,20.351,7,20z"/>
		<path fill="#51BAC5" d="M26.5,30H26c0,0-0.002-2.971-1.972-5.956c-0.166,0.329-0.342,0.652-0.545,0.956
			c-0.956,1.427-2.315,2.555-3.907,3.247c0.201,0.694,0.386,1.731,0.419,3.254c0.006,0.273,0.224,0.5,0.498,0.5H27.5
			c0.276,0,0.5-0.224,0.5-0.5C28,30.672,27.328,30,26.5,30z"/>
		<path fill="#56C7CD" d="M8.518,25c-0.204-0.304-0.379-0.627-0.545-0.956C6.002,27.029,6,30,6,30H5.5C4.672,30,4,30.672,4,31.5
			C4,31.776,4.224,32,4.5,32h7.008c0.273,0,0.492-0.227,0.498-0.5c0.033-1.522,0.218-2.56,0.419-3.253
			C10.833,27.555,9.473,26.427,8.518,25z"/>
	</g>
</g>
<g id="labels">
</g>
</svg>
