<?xml version="1.0" encoding="utf-8"?>
<!-- Generator: Adobe Illustrator 23.0.2, SVG Export Plug-In . SVG Version: 6.00 Build 0)  -->
<svg version="1.1" xmlns="http://www.w3.org/2000/svg" xmlns:xlink="http://www.w3.org/1999/xlink" x="0px" y="0px" width="32px"
	 height="32px" viewBox="0 0 32 32" enable-background="new 0 0 32 32" xml:space="preserve">
<g id="icons">
	<g>
		<path fill="#FFD96C" d="M15.5,26.5c-2.209,0-4-1.791-4-4c0-0.533,0.109-1.04,0.298-1.505l-1.418,0.956
			c-0.177,0.451-0.282,0.939-0.282,1.453c0,2.209,1.791,4,4,4c0.722,0,1.389-0.206,1.974-0.541l0.335-0.476
			C16.115,26.455,15.813,26.5,15.5,26.5z"/>
		<path fill="#FFEAA7" d="M6.868,14.864L7.5,14.5c-0.638,0-1.242-0.131-1.803-0.349C6.269,14.897,6.868,14.864,6.868,14.864z"/>
		<path fill="#FFE28A" d="M11.842,20.966C11.727,20.974,11.617,21,11.5,21C9.015,21,7,18.985,7,16.5c0-0.712,0.18-1.376,0.474-1.974
			L7.5,14.5l-0.632,0.364C6.328,15.606,6,16.512,6,17.5c0,2.429,1.928,4.395,4.335,4.483L11.842,20.966z"/>
		<path fill="#9ACC2E" d="M19.456,22.063c-0.221-2-1.897-3.563-3.956-3.563l-3.702,2.495C11.609,21.46,11.5,21.967,11.5,22.5
			c0,2.209,1.791,4,4,4c0.313,0,0.615-0.045,0.908-0.113L19.456,22.063z"/>
		<path fill="#AADB3D" d="M7.5,14.5l4.289-2.468c0.652-1.101,0.93-2.451,0.514-3.908c-0.513-1.797-2.03-3.206-3.869-3.539
			C5.262,4.01,2.5,6.433,2.5,9.5c0,0.638,0.131,1.242,0.349,1.803l-0.687,1.375c-0.096,0.192-0.059,0.425,0.094,0.577l1.49,1.49
			c0.152,0.152,0.385,0.19,0.577,0.094l1.375-0.687C6.258,14.369,6.862,14.5,7.5,14.5z"/>
		<circle fill="#FFEAA7" cx="7.5" cy="9.5" r="3"/>
		<circle fill="#2B3332" cx="7.5" cy="9.5" r="2"/>
		<path fill="#A2D336" d="M11.5,21c0.117,0,0.227-0.026,0.342-0.034L15.5,18.5l0.016-0.008C15.816,17.889,16,17.219,16,16.5
			c0-2.385-1.861-4.317-4.207-4.47L7.5,14.5l-0.026,0.026C7.18,15.124,7,15.788,7,16.5C7,18.985,9.015,21,11.5,21z"/>
		<path fill="#FFE28A" d="M11.5,15c0.827,0,1.5,0.673,1.5,1.5c0,0.827-0.673,1.5-1.5,1.5S10,17.327,10,16.5
			C10,15.673,10.673,15,11.5,15 M11.5,14C10.119,14,9,15.119,9,16.5s1.119,2.5,2.5,2.5s2.5-1.119,2.5-2.5S12.881,14,11.5,14L11.5,14
			z"/>
		<path fill="#93C427" d="M20.332,28.639l3.682-0.307c2.29-0.191,4.043-2.134,3.985-4.444C27.972,22.828,27.06,22,26,22
			l-6.544,0.063l-3.05,4.327C17.103,27.827,18.624,28.781,20.332,28.639z"/>
		<path fill="#F79654" d="M2.5,9.5c0-0.597,0.108-1.169,0.3-1.7L2.586,7.586C2.211,7.211,2,6.702,2,6.172V5c0-0.552-0.448-1-1-1
			S0,4.448,0,5v1.343c0,1.061,0.421,2.078,1.172,2.828L2.66,10.66C2.567,10.286,2.5,9.903,2.5,9.5z"/>
		<g>
			<path fill="#FFD04D" d="M24.014,28.332l-3.682,0.307c-1.708,0.142-3.229-0.812-3.926-2.25l-0.315,0.447
				c0.502,1.624,2.057,2.774,3.848,2.641l3.472-0.299c2.395-0.206,4.251-2.082,4.518-4.413
				C27.59,26.672,26.007,28.166,24.014,28.332z"/>
			<path fill="#FFD04D" d="M27.973,24.245c0-0.038,0.01-0.074,0.009-0.112c0-0.002-0.001-0.005-0.001-0.007
				C27.98,24.166,27.975,24.205,27.973,24.245z"/>
		</g>
		<path fill="#FFD04D" d="M24,24c-0.552,0-1,0.448-1,1s0.448,1,1,1s1-0.448,1-1S24.552,24,24,24L24,24z"/>
		<path fill="#FFD96C" d="M15.5,21.5c0.551,0,1,0.449,1,1s-0.449,1-1,1s-1-0.449-1-1S14.949,21.5,15.5,21.5 M15.5,20.5
			c-1.105,0-2,0.895-2,2s0.895,2,2,2s2-0.895,2-2S16.605,20.5,15.5,20.5L15.5,20.5z"/>
		<path fill="#FFD04D" d="M20,24.5c0.276,0,0.5,0.224,0.5,0.5s-0.224,0.5-0.5,0.5s-0.5-0.224-0.5-0.5S19.724,24.5,20,24.5 M20,23.5
			c-0.828,0-1.5,0.672-1.5,1.5s0.672,1.5,1.5,1.5s1.5-0.672,1.5-1.5S20.828,23.5,20,23.5L20,23.5z"/>
		<path fill="#FFD04D" d="M31.373,16.198c-0.957-0.552-1.567,0.129-2.12,1.086c-0.361,0.625-1.115,2.389-1.284,3.723
			C27.432,21.024,27,21.459,27,22c0,0.552,0.448,1,1,1s1-0.448,1-1c0-0.158-0.044-0.302-0.109-0.435
			c1.076-0.809,2.239-2.36,2.602-2.989C32.045,17.62,32.329,16.75,31.373,16.198z"/>
		<circle fill="#FCA15E" cx="2" cy="6" r="1"/>
	</g>
</g>
<g id="labels">
</g>
</svg>
