<?xml version="1.0" encoding="utf-8"?>
<!-- Generator: Adobe Illustrator 23.0.2, SVG Export Plug-In . SVG Version: 6.00 Build 0)  -->
<svg version="1.1" xmlns="http://www.w3.org/2000/svg" xmlns:xlink="http://www.w3.org/1999/xlink" x="0px" y="0px" width="32px"
	 height="32px" viewBox="0 0 32 32" enable-background="new 0 0 32 32" xml:space="preserve">
<g id="icons">
	<g>
		<path fill="#505957" d="M16,12.809C16,12.809,19.988,0,25.969,0c5.981,0,8.972,12.809,1.994,18.632
			c-0.699,0.583-1.347,1.05-1.967,1.459C28.947,20.436,32,21.416,32,24c0,5-2,8-6,8S16,21.5,16,21.5V12.809z"/>
		<path fill="#434C4B" d="M31.61,6.075c0.996,4.122,0.162,9.378-3.647,12.556c-0.651,0.543-1.255,0.98-1.836,1.368H16v-6
			C16,14,18.681,6.87,31.61,6.075z"/>
		<path fill="#2B3332" d="M31.136,28.768C30.195,30.842,28.484,32,26,32c-4,0-10-10.5-10-10.5V20C16,20,21.092,25.423,31.136,28.768
			z"/>
		<path fill="#373F3F" d="M26.127,20C29.078,20.345,32,21.416,32,24c0,1.895-0.289,3.502-0.864,4.768C21.092,25.423,16,20,16,20
			H26.127z"/>
		<path fill="#F7F7F7" d="M26,31c0.989,0,4-1,4-7c0-1.052-2.188-1.683-4.237-1.923h0c-1.853-0.217-2.426-2.628-0.869-3.656l0,0
			c0.648-0.427,1.216-0.849,1.787-1.325c3.47-2.895,3.963-8.059,2.656-11.664C28.737,3.773,27.536,1,25.969,1
			C22.657,1,18.246,8.308,17,12.121v9.841C19.817,26.748,24.563,31,26,31z"/>
		<path fill="#D1D4D4" d="M17,20.939c1.761,1.553,5.881,4.737,12.331,7.182C28.386,30.498,26.695,31,26,31
			c-1.437,0-6.183-4.252-9-9.038V20.939z"/>
		<path fill="#E3E5E5" d="M17,20v-7.656c1.517-1.988,5.069-5.166,12.595-6.084c0.957,3.532,0.3,8.156-2.913,10.837
			c-0.571,0.477-1.139,0.898-1.787,1.325l0,0c-0.593,0.391-0.873,0.983-0.895,1.579H17z"/>
		<path fill="#DADDDC" d="M17,20h6.999c-0.036,0.967,0.617,1.943,1.764,2.077C27.812,22.317,30,22.948,30,24
			c0,1.783-0.269,3.116-0.669,4.121c-6.45-2.445-10.57-5.628-12.331-7.182V20z"/>
		<path fill="#EDEEEE" d="M27,6.691c2.595-0.431-0.884,8.83-10.019,9.283v-3.63C18.313,10.597,21.216,7.935,27,6.691z"/>
		<path fill="#5C6664" d="M16,12.809C16,12.809,12.012,0,6.031,0C0.049,0-2.941,12.809,4.037,18.632
			c0.699,0.583,1.347,1.05,1.967,1.459C3.053,20.436,0,21.416,0,24c0,5,2,8,6,8s10-10.5,10-10.5V12.809z"/>
		<path fill="#505957" d="M0.39,6.075c-0.996,4.122-0.162,9.378,3.647,12.556c0.651,0.543,1.255,0.98,1.836,1.368H16v-6
			C16,14,13.319,6.87,0.39,6.075z"/>
		<path fill="#373F3F" d="M0.864,28.768C1.805,30.842,3.516,32,6,32c4,0,10-10.5,10-10.5V20C16,20,10.908,25.423,0.864,28.768z"/>
		<path fill="#434C4B" d="M5.873,20C2.922,20.345,0,21.416,0,24c0,1.895,0.289,3.502,0.864,4.768C10.908,25.423,16,20,16,20H5.873z"
			/>
		<path fill="#FFFFFF" d="M6,31c-0.989,0-4-1-4-7c0-1.052,2.188-1.683,4.237-1.923h0c1.853-0.217,2.426-2.628,0.869-3.656l0,0
			c-0.648-0.427-1.216-0.849-1.787-1.325c-3.47-2.895-3.963-8.059-2.656-11.664C3.263,3.773,4.464,1,6.031,1
			C9.343,1,13.754,8.308,15,12.121v9.841C12.183,26.748,7.437,31,6,31z"/>
		<path fill="#DADDDC" d="M15,20.939c-1.761,1.553-5.881,4.737-12.331,7.182C3.614,30.498,5.305,31,6,31
			c1.437,0,6.183-4.252,9-9.038V20.939z"/>
		<path fill="#EDEEEE" d="M15,20v-7.656C13.483,10.355,9.931,7.177,2.405,6.26c-0.957,3.532-0.3,8.156,2.913,10.837
			c0.571,0.477,1.139,0.898,1.787,1.325l0,0C7.699,18.813,7.979,19.405,8.001,20H15z"/>
		<path fill="#E3E5E5" d="M15,20H8.001c0.036,0.967-0.617,1.943-1.764,2.077C4.188,22.317,2,22.948,2,24
			c0,1.783,0.269,3.116,0.669,4.121c6.45-2.445,10.57-5.628,12.331-7.182V20z"/>
		<path fill="#F7F7F7" d="M4.981,6.691C2.405,6.26,5.865,15.521,15,15.974v-3.63C13.668,10.597,10.765,7.935,4.981,6.691z"/>
		<ellipse transform="matrix(0.9659 -0.2588 0.2588 0.9659 -6.746 5.7593)" fill="#51BAC5" cx="18.5" cy="28.5" rx="1.5" ry="3.5"/>
		
			<ellipse transform="matrix(0.2588 -0.9659 0.9659 0.2588 -17.5229 34.1637)" fill="#56C7CD" cx="13.5" cy="28.5" rx="3.5" ry="1.5"/>
		<g>
			<path fill="#945BA0" d="M16,19h-3.567C10.964,20.063,10,22.083,10,24c0,3.222,2.686,5,6,5V19z"/>
			<path fill="#845194" d="M19.567,19H16v10c3.314,0,6-1.778,6-5C22,22.083,21.036,20.063,19.567,19z"/>
			<path fill="#A366AD" d="M16,10c-3.314,0-6,2.612-6,5.833c0,1.917,0.964,2.103,2.433,3.167H16V10z"/>
			<path fill="#945BA0" d="M19.567,19C21.036,17.937,22,17.751,22,15.833C22,12.612,19.314,10,16,10v9H19.567z"/>
			
				<ellipse transform="matrix(0.2588 -0.9659 0.9659 0.2588 -3.5319 23.4279)" fill="#F3586F" cx="13.5" cy="14.015" rx="2" ry="1.5"/>
			
				<ellipse transform="matrix(0.9659 -0.2588 0.2588 0.9659 -2.9971 5.2657)" fill="#E85160" cx="18.5" cy="14.015" rx="1.5" ry="2"/>
			<path fill="#5BD3D5" d="M16,16c-0.828,0-1.5,0.264-1.5,1s0.672,1,1.5,1V16z"/>
			<path fill="#56C7CD" d="M17.5,17c0-0.736-0.672-1-1.5-1v2C16.828,18,17.5,17.736,17.5,17z"/>
			<path fill="#5BD3D5" d="M14,23c0,0.828,0.328,1.5-0.5,1.5S12,23.828,12,23s0.672-1.5,1.5-1.5S14,22.172,14,23z"/>
			<path fill="#56C7CD" d="M18,23c0,0.828-0.328,1.5,0.5,1.5S20,23.828,20,23s-0.672-1.5-1.5-1.5S18,22.172,18,23z"/>
		</g>
	</g>
</g>
<g id="labels">
</g>
</svg>
