<?xml version="1.0" encoding="utf-8"?>
<!-- Generator: Adobe Illustrator 23.0.2, SVG Export Plug-In . SVG Version: 6.00 Build 0)  -->
<svg version="1.1" xmlns="http://www.w3.org/2000/svg" xmlns:xlink="http://www.w3.org/1999/xlink" x="0px" y="0px" width="32px"
	 height="32px" viewBox="0 0 32 32" enable-background="new 0 0 32 32" xml:space="preserve">
<g id="icons">
	<g>
		<path fill="#FCD8DE" d="M2,12.055c0-0.432,0.072-0.844,0.175-1.244c-0.199-0.24-0.495-0.391-0.925-0.391
			c-0.92,0-1.25,0.672-1.25,1.5s0.33,1.5,1.25,1.5c0.393,0,0.673-0.128,0.871-0.333C2.05,12.754,2,12.412,2,12.055z"/>
		<path fill="#F7F7F7" d="M7,7.055c0.637,0,1.241,0.131,1.801,0.348L7.237,2.712c-0.076-0.228-0.398-0.228-0.474,0L5.199,7.403
			C5.759,7.186,6.363,7.055,7,7.055z"/>
		<path fill="#FEF1C6" d="M5.454,16.787l4.615-0.811C11.236,15.06,12,13.654,12,12.055c0-2.761-2.239-5-5-5s-5,2.239-5,5
			C2,14.274,3.454,16.133,5.454,16.787z"/>
		<circle fill="#2B3332" cx="5" cy="11.055" r="1"/>
		<path fill="#FFEAA7" d="M11.606,18.884c0.096-0.323,0.124-0.693,0.046-1.135c-0.187-1.063-0.77-1.574-1.569-1.775L5.435,16.79
			c-0.686,0.462-1.061,1.143-0.873,2.208c0.261,1.482,1.276,1.912,2.603,1.885L11.606,18.884z"/>
		<path fill="#FFD96C" d="M15.456,22.585c-0.085-0.311-0.263-0.624-0.565-0.937c-0.511-0.529-1.032-0.703-1.557-0.654l-3.632,3.198
			c-0.223,0.652-0.124,1.31,0.515,1.971c0.951,0.985,1.935,0.782,2.922,0.079L15.456,22.585z"/>
		<path fill="#F7C845" d="M18.487,29.014c1.323,0.281,1.957-0.526,2.327-1.721l0.205-2.982c-0.193-0.505-0.587-0.88-1.313-1.034
			c-0.739-0.157-1.259,0.033-1.643,0.432l-1.037,3.382C17.031,28.047,17.384,28.78,18.487,29.014z"/>
		<path fill="#E8BA36" d="M24.334,27.366c0.352,0.829,0.917,1.337,1.942,1.119c1.43-0.304,1.479-1.526,1.175-2.955
			c-0.304-1.43-0.846-2.526-2.276-2.222c-0.596,0.127-0.942,0.419-1.133,0.813L24.334,27.366z"/>
		<path fill="#2B3332" d="M27.451,25.529c0.03,0.141,0.053,0.279,0.076,0.416l0.007,0.028l0.696-0.242l-0.621-1.503l-0.5,0.165
			l0.01,0.039C27.258,24.757,27.366,25.127,27.451,25.529z"/>
		<path fill="#FFE28A" d="M9.706,24.187l3.634-3.2c-0.019-0.292-0.089-0.601-0.263-0.941c-0.377-0.739-0.891-1.071-1.485-1.156
			l-4.405,1.984c-0.514,0.616-0.678,1.347-0.204,2.277C7.601,24.365,8.579,24.515,9.706,24.187z"/>
		<path fill="#FFD04D" d="M18.061,23.718c-0.136-0.384-0.413-0.727-0.912-1.003c-0.66-0.366-1.215-0.352-1.705-0.11l-2.27,3.581
			c-0.116,0.772,0.112,1.446,0.982,1.929c1.243,0.689,2.127,0.076,2.866-1.008L18.061,23.718z"/>
		<path fill="#F0C13E" d="M24.042,24.116c-0.276-0.465-0.727-0.755-1.462-0.755c-0.833,0-1.3,0.373-1.561,0.952l-0.206,2.989
			c0.173,0.96,0.642,1.63,1.767,1.63c1.101,0,1.571-0.644,1.753-1.57L24.042,24.116z"/>
		<circle fill="#FBCFD6" cx="4.669" cy="19.377" r="1"/>
		<circle fill="#FAC4D1" cx="7.081" cy="23.337" r="1"/>
		<circle fill="#FAB8CD" cx="10.523" cy="26.418" r="1"/>
		<circle fill="#F9ADC8" cx="14.256" cy="28.152" r="1"/>
		<circle fill="#F8A1C4" cx="18.377" cy="29" r="1"/>
		<circle fill="#F297BE" cx="22.418" cy="28.932" r="1"/>
		<circle fill="#EA8BB4" cx="26.276" cy="28.485" r="1"/>
		<path fill="#F7F7F7" d="M28.502,22.814c-0.532,0.307-0.846,0.844-0.892,1.413l0.621,1.503c0.564,0.486,1.39,0.595,2.071,0.202
			c0.688-0.397,1.36-2.111,1.603-2.785c0.053-0.146-0.036-0.301-0.189-0.328C31.01,22.692,29.19,22.417,28.502,22.814z"/>
	</g>
</g>
<g id="labels">
</g>
</svg>
