<?xml version="1.0" encoding="utf-8"?>
<!-- Generator: Adobe Illustrator 23.0.2, SVG Export Plug-In . SVG Version: 6.00 Build 0)  -->
<svg version="1.1" xmlns="http://www.w3.org/2000/svg" xmlns:xlink="http://www.w3.org/1999/xlink" x="0px" y="0px" width="32px"
	 height="32px" viewBox="0 0 32 32" enable-background="new 0 0 32 32" xml:space="preserve">
<g id="icons">
	<g>
		<path fill="#E55D53" d="M13,20.993l-4.73,9.46c-0.1,0.199,0.091,0.419,0.303,0.349L11,29.993l3-8L13,20.993z"/>
		<path fill="#D64F45" d="M14,21.993l-3,8l1.223,0.815c0.168,0.112,0.387,0.112,0.555,0L14,29.993l1-8H14z"/>
		<path fill="#D1473D" d="M19,20.993l4.73,9.46c0.1,0.199-0.091,0.419-0.303,0.349L21,29.993l-3-8L19,20.993z"/>
		<path fill="#D64F45" d="M18,21.993l3,8l-1.223,0.815c-0.168,0.112-0.387,0.112-0.555,0L18,29.993l-1-8H18z"/>
		<path fill="#E55D53" d="M16,21.993h-1l-1,8l1.776,0.888c0.07,0.035,0.147,0.053,0.224,0.053V21.993z"/>
		<path fill="#D1473D" d="M16.224,30.881L18,29.993l-1-8h-1v8.941C16.077,30.934,16.153,30.917,16.224,30.881z"/>
		<path fill="#DBA728" d="M21.923,7.84L21,5.993l-1,1l-4,2l3.616,3.384l1.777-1.777c0.07-0.07,0.117-0.159,0.137-0.255l0.437-2.183
			C21.988,8.052,21.973,7.939,21.923,7.84z"/>
		<path fill="#FFD96C" d="M4.969,6.993L2.164,2.27C2.081,2.13,1.888,2.105,1.773,2.221L1.127,2.866
			C1.051,2.942,1.032,3.058,1.081,3.154L1.5,3.993H0.68c-0.108,0-0.203,0.069-0.237,0.171L0.069,5.288
			C0.029,5.406,0.083,5.535,0.194,5.59L1,5.993L0.138,6.424C0.054,6.467,0,6.553,0,6.648l0,0.691C0,7.433,0.054,7.52,0.138,7.562
			L1,7.993L0.138,8.424C0.054,8.467,0,8.553,0,8.648l0,0.691C0,9.433,0.054,9.52,0.138,9.562L1,9.993l-0.862,0.431
			C0.054,10.467,0,10.553,0,10.648l0,1.165c0,0.108,0.069,0.203,0.171,0.237L1.5,12.493l-1.314,0.657
			c-0.108,0.054-0.162,0.177-0.129,0.292l0.36,1.261c0.043,0.151,0.212,0.225,0.352,0.155L2.5,13.993l-1.394,1.858
			c-0.064,0.085-0.067,0.2-0.008,0.289l0.744,1.116c0.084,0.126,0.259,0.149,0.373,0.049L4,15.743l-0.924,2.541
			c-0.043,0.119,0.01,0.252,0.123,0.309l1.558,0.779c0.131,0.065,0.29,0.005,0.344-0.131L6,16.993v2.529
			c0,0.126,0.094,0.232,0.219,0.248l1.55,0.194c0.13,0.016,0.25-0.071,0.276-0.199L8.5,17.493l0.46,2.299
			c0.023,0.117,0.126,0.201,0.245,0.201H11v-5l-3.632-1.816c-0.236-0.118-0.415-0.324-0.5-0.574L4.969,6.993z"/>
		<path fill="#2B3332" d="M19.5,8.993H16l4-2l1.965,0.983c0.011,0.061,0.014,0.124,0.001,0.186l-0.437,2.183
			c-0.019,0.097-0.067,0.186-0.137,0.255l-1.777,1.777l0.822-2.681L19.5,8.993z"/>
		<path fill="#FFD04D" d="M27.031,6.993l2.805-4.723c0.083-0.14,0.276-0.164,0.392-0.049l0.645,0.645
			c0.076,0.076,0.095,0.192,0.047,0.289L30.5,3.993h0.82c0.108,0,0.203,0.069,0.237,0.171l0.374,1.123
			c0.039,0.118-0.014,0.247-0.125,0.303L31,5.993l0.862,0.431C31.946,6.467,32,6.553,32,6.648v0.691
			c0,0.095-0.054,0.181-0.138,0.224L31,7.993l0.862,0.431C31.946,8.467,32,8.553,32,8.648v0.691c0,0.095-0.054,0.181-0.138,0.224
			L31,9.993l0.862,0.431C31.946,10.467,32,10.553,32,10.648v1.165c0,0.108-0.069,0.203-0.171,0.237L30.5,12.493l1.314,0.657
			c0.108,0.054,0.162,0.177,0.129,0.292l-0.36,1.261c-0.043,0.151-0.212,0.225-0.352,0.155L29.5,13.993l1.394,1.858
			c0.064,0.085,0.067,0.2,0.008,0.289l-0.744,1.116c-0.084,0.126-0.259,0.149-0.373,0.049L28,15.743l0.924,2.541
			c0.043,0.119-0.01,0.252-0.123,0.309l-1.558,0.779c-0.131,0.065-0.29,0.005-0.344-0.131L26,16.993v2.529
			c0,0.126-0.094,0.232-0.219,0.248l-1.55,0.194c-0.13,0.016-0.25-0.071-0.276-0.199L23.5,17.493l-0.46,2.299
			c-0.023,0.117-0.126,0.201-0.245,0.201H21v-5l3.632-1.816c0.236-0.118,0.415-0.324,0.5-0.574L27.031,6.993z"/>
		<path fill="#E0B12E" d="M10.077,7.84L11,5.993l1,1l4,2l-3.616,3.384L10.607,10.6c-0.07-0.07-0.117-0.159-0.137-0.255l-0.437-2.183
			C10.012,8.052,10.027,7.939,10.077,7.84z"/>
		<path fill="#E0B12E" d="M12.384,12.378l-0.411,0.386c-0.268,0.252-0.652,0.337-1.001,0.22l-2.27-0.757
			c-0.453-0.151-0.837-0.459-1.083-0.868L5,6.993L6.869,12.6c0.084,0.252,0.264,0.46,0.501,0.578L11,14.993l2-1L12.384,12.378z"/>
		<path fill="#DBA728" d="M19.616,12.378l0.411,0.386c0.268,0.252,0.652,0.337,1.001,0.22l2.27-0.757
			c0.453-0.151,0.837-0.459,1.083-0.868L27,6.993L25.131,12.6c-0.084,0.252-0.264,0.46-0.501,0.578L21,14.993l-2-1L19.616,12.378z"
			/>
		<path fill="#D64F45" d="M20,6.993l2.591-2.591c0.223-0.223,0.19-0.6-0.076-0.77c-1.57-1.004-4.441-1.59-6.515-1.59v6.951L20,6.993
			z"/>
		<path fill="#E55D53" d="M12,6.993L9.409,4.402c-0.223-0.223-0.19-0.6,0.076-0.77c1.57-1.004,4.441-1.59,6.515-1.59v6.951L12,6.993
			z"/>
		<path fill="#FFE28A" d="M16,8.993h-3.5l-0.938,0.703l0.822,2.681L11,14.993c0,0-1,1.62-1,4c0,4.418,2.134,8,6,8V8.993z"/>
		<path fill="#FFD96C" d="M21,14.993l-1.384-2.616l0.822-2.681L19.5,8.993H16v18c3.866,0,6-3.582,6-8C22,16.613,21,14.993,21,14.993
			z"/>
		<path fill="#FFEAA7" d="M16,1.066c-1.122,0-2.244,0.14-3.341,0.421c-0.317,0.081-0.475,0.437-0.32,0.725L16,8.993V1.066z"/>
		<path fill="#FFE28A" d="M19.341,1.487C18.244,1.206,17.122,1.066,16,1.066v7.928l3.661-6.782
			C19.816,1.924,19.657,1.568,19.341,1.487z"/>
		<polygon fill="#F7F7F7" points="20,6.993 19.5,8.993 16,8.993 		"/>
		<path fill="#2B3332" d="M16,8.993l2.667-1.333v0.833c0,0.276-0.224,0.5-0.5,0.5H16z"/>
		<path fill="#373F3F" d="M12.5,8.993H16l-4-2l-1.965,0.983c-0.011,0.061-0.014,0.124-0.001,0.186l0.437,2.183
			c0.019,0.097,0.067,0.186,0.137,0.255l1.777,1.777l-0.822-2.681L12.5,8.993z"/>
		<polygon fill="#FFFFFF" points="12,6.993 12.5,8.993 16,8.993 		"/>
		<path fill="#373F3F" d="M16,8.993L13.333,7.66v0.833c0,0.276,0.224,0.5,0.5,0.5H16z"/>
		<path fill="#F4A984" d="M18.084,25.271l-0.553,0.369c-0.342,0.228-0.586,0.575-0.686,0.974l-0.187,0.747
			c-0.08,0.322,0.163,0.634,0.495,0.634h0.032c0.193,0,0.37-0.109,0.456-0.282L18,26.993l0.452,0.752
			c0.092,0.154,0.258,0.248,0.437,0.248h0.396c0.193,0,0.37-0.109,0.456-0.282l0.359-0.718l0.272,0.679
			c0.077,0.194,0.265,0.321,0.474,0.321h0.001c0.332,0,0.575-0.312,0.495-0.634l-0.187-0.747c-0.1-0.399-0.344-0.746-0.686-0.974
			l-0.553-0.369c-0.271-0.181-0.59-0.277-0.916-0.277l0,0C18.674,24.993,18.355,25.09,18.084,25.271z"/>
		<path fill="#F6B392" d="M12.084,25.271l-0.553,0.369c-0.342,0.228-0.586,0.575-0.686,0.974l-0.187,0.747
			c-0.08,0.322,0.163,0.634,0.495,0.634h0.032c0.193,0,0.37-0.109,0.456-0.282L12,26.993l0.452,0.752
			c0.092,0.154,0.258,0.248,0.437,0.248h0.396c0.193,0,0.37-0.109,0.456-0.282l0.359-0.718l0.272,0.679
			c0.077,0.194,0.265,0.321,0.474,0.321h0.001c0.332,0,0.575-0.312,0.495-0.634l-0.187-0.747c-0.1-0.399-0.344-0.746-0.686-0.974
			l-0.553-0.369c-0.271-0.181-0.59-0.277-0.916-0.277h0C12.674,24.993,12.355,25.09,12.084,25.271z"/>
		<path fill="#F4A984" d="M16,8.993l-1.193,1.193c-0.176,0.176-0.196,0.454-0.046,0.654l0.84,1.12c0.1,0.133,0.25,0.2,0.4,0.2V8.993
			z"/>
		<path fill="#EA9C7A" d="M16.4,11.96l0.84-1.12c0.149-0.199,0.13-0.478-0.046-0.654L16,8.993v3.167
			C16.15,12.16,16.3,12.093,16.4,11.96z"/>
	</g>
</g>
<g id="labels">
</g>
</svg>
