<?xml version="1.0" encoding="utf-8"?>
<!-- Generator: Adobe Illustrator 23.0.6, SVG Export Plug-In . SVG Version: 6.00 Build 0)  -->
<svg version="1.1" xmlns="http://www.w3.org/2000/svg" xmlns:xlink="http://www.w3.org/1999/xlink" x="0px" y="0px" width="32px"
	 height="32px" viewBox="0 0 32 32" enable-background="new 0 0 32 32" xml:space="preserve">
<g id="icons">
	<g>
		<path fill="#FDE2E6" d="M11.042,3.984C8.756,3.481,3.989,2.54,3.264,3.264c-0.724,0.724,0.217,5.492,0.72,7.778
			c-0.423,1.023-0.71,2.114-0.859,3.249l-2.279,0.76c-0.912,0.304-0.912,1.593,0,1.897l3.017,1.006C6.276,22.161,10.802,25,16,25V3
			C14.244,3,12.571,3.353,11.042,3.984z"/>
		<path fill="#FCD8DE" d="M31.154,15.051l-2.279-0.76c-0.149-1.135-0.436-2.226-0.859-3.249c0.503-2.286,1.445-7.054,0.72-7.778
			c-0.724-0.724-5.492,0.217-7.778,0.72C19.429,3.353,17.756,3,16,3v22c5.198,0,9.724-2.839,12.137-7.046l3.017-1.006
			C32.066,16.645,32.066,15.355,31.154,15.051z"/>
		
			<ellipse transform="matrix(0.9659 -0.2588 0.2588 0.9659 -7.0118 3.2595)" fill="#FBCFD6" cx="8.873" cy="28.26" rx="5" ry="2.5"/>
		
			<ellipse transform="matrix(0.2588 -0.9659 0.9659 0.2588 -10.1558 43.2842)" fill="#FAC4D1" cx="23.127" cy="28.26" rx="2.5" ry="5"/>
		<path fill="#FEF5F7" d="M16,1c-2.209,0-4,1.791-4,4c0,1.129,0.471,2.144,1.224,2.871C13.082,8.22,13,8.6,13,9c0,1.657,1.343,3,3,3
			V1z"/>
		<path fill="#FDECEF" d="M19,9c0-0.4-0.082-0.78-0.224-1.129C19.529,7.144,20,6.129,20,5c0-2.209-1.791-4-4-4v11
			C17.657,12,19,10.657,19,9z"/>
		<g>
			<circle fill="#FFFFFF" cx="9" cy="15" r="4"/>
			<path fill="#4CAEBC" d="M9,16c-1.182,0-2.234-0.523-2.966-1.338C6.021,14.774,6,14.884,6,15c0,1.657,1.343,3,3,3s3-1.343,3-3
				c0-0.116-0.021-0.226-0.034-0.338C11.234,15.477,10.182,16,9,16z"/>
			<path fill="#51BAC5" d="M9,16c1.182,0,2.234-0.523,2.966-1.338C11.796,13.166,10.541,12,9,12s-2.796,1.166-2.966,2.662
				C6.766,15.477,7.818,16,9,16z"/>
			<circle fill="#FFFFFF" cx="9" cy="14" r="1"/>
		</g>
		<g>
			<circle fill="#F7F7F7" cx="23" cy="15" r="4"/>
			<path fill="#47A1B4" d="M23,16c-1.182,0-2.234-0.523-2.966-1.338C20.021,14.774,20,14.884,20,15c0,1.657,1.343,3,3,3s3-1.343,3-3
				c0-0.116-0.021-0.226-0.034-0.338C25.234,15.477,24.182,16,23,16z"/>
			<path fill="#4CAEBC" d="M23,16c1.182,0,2.234-0.523,2.966-1.338C25.796,13.166,24.541,12,23,12s-2.796,1.166-2.966,2.662
				C20.766,15.477,21.818,16,23,16z"/>
			<circle fill="#F7F7F7" cx="23" cy="14" r="1"/>
		</g>
		<path fill="#373F3F" d="M16,18c-0.828,0-1.5,0.672-1.5,1.5c0,0.828,0.672,1.5,1.5,1.5V18z"/>
		<path fill="#2B3332" d="M17.5,19.5c0-0.828-0.672-1.5-1.5-1.5v3C16.828,21,17.5,20.328,17.5,19.5z"/>
		<path fill="#373F3F" d="M9.589,4.699c-1.283-0.26-3.097-0.54-4.501-0.637C4.479,4.02,3.971,4.516,4.015,5.125
			c0.08,1.116,0.341,2.766,0.683,4.468C5.857,7.552,7.549,5.859,9.589,4.699z"/>
		<path fill="#FCD8DE" d="M3.863,17.954L3.129,17.71C3.967,24.079,9.401,29,16,29v-4C10.802,25,6.276,22.161,3.863,17.954z"/>
		<path fill="#FBCFD6" d="M28.137,17.954C25.724,22.161,21.198,25,16,25v4c6.599,0,12.033-4.921,12.871-11.29L28.137,17.954z"/>
		<path fill="#2B3332" d="M22.423,4.699c1.283-0.26,3.097-0.54,4.501-0.637c0.609-0.042,1.117,0.453,1.073,1.062
			c-0.08,1.116-0.341,2.766-0.683,4.468C26.155,7.552,24.462,5.859,22.423,4.699z"/>
	</g>
</g>
<g id="labels">
</g>
</svg>
