<?xml version="1.0" encoding="utf-8"?>
<!-- Generator: Adobe Illustrator 23.0.6, SVG Export Plug-In . SVG Version: 6.00 Build 0)  -->
<svg version="1.1" xmlns="http://www.w3.org/2000/svg" xmlns:xlink="http://www.w3.org/1999/xlink" x="0px" y="0px" width="32px"
	 height="32px" viewBox="0 0 32 32" enable-background="new 0 0 32 32" xml:space="preserve">
<g id="icons">
	<g>
		<path fill="#F6B392" d="M23.846,12.792c3.345,5.174,0.926,9.156-0.188,10.548c-0.025,0.004-0.047,0.003-0.072,0.008
			c0,0-0.296-5.91-7.234-6.16l0.5-2.688C16.853,14.5,20.157,15.444,23.846,12.792z"/>
		<path fill="#F9BDA0" d="M23.846,12.793C23.846,12.792,23.847,12.792,23.846,12.793c1.681-1.208,3.442-3.163,5.007-6.293
			c0,0,6,10,0,20c0,0-1.245-3.825-5.266-3.152c0.025-0.004,0.047-0.004,0.072-0.008C24.772,21.948,27.191,17.966,23.846,12.793z"/>
		<path fill="#3A9B46" d="M29.282,6.243C29.189,6.087,29.021,5.999,28.835,6c-0.183,0.007-0.347,0.113-0.428,0.276
			c-4.738,9.477-11.146,7.818-11.417,7.742c-0.262-0.069-0.541,0.081-0.616,0.346c-0.075,0.265,0.078,0.541,0.343,0.617
			c0.077,0.021,1.923,0.531,4.413-0.254c0.766-0.242,1.648-0.632,2.581-1.245c0.588,0.99,2.921,5.501-0.593,9.697
			c-0.177,0.211-0.149,0.527,0.062,0.704C23.272,23.962,23.386,24,23.499,24c0.143,0,0.285-0.061,0.384-0.179
			c3.971-4.741,1.215-9.95,0.639-10.924c1.435-1.122,2.947-2.799,4.33-5.317c1.227,2.556,4.372,10.664-0.427,18.663
			c-0.142,0.237-0.065,0.544,0.171,0.686C28.677,26.977,28.766,27,28.853,27c0.17,0,0.335-0.086,0.429-0.243
			C35.366,16.617,29.344,6.345,29.282,6.243z"/>
		<path fill="#48A353" d="M22.586,11.657c1.147-1.147,1.365-3.966,1.405-5.136c0.01-0.287-0.225-0.522-0.512-0.512
			c-1.169,0.041-3.989,0.259-5.136,1.405c-0.646,0.646-0.721,1.546-0.605,2.352C17.195,9.602,16.614,9.504,16,9.504v14.489
			c0.979,0,1.885-0.292,2.656-0.777c1.218,2.031,3.028,4.941,3.311,4.778c0.289-0.167-1.391-3.298-2.545-5.37
			C20.389,21.714,21,20.433,21,19c0-0.312-0.03-0.616-0.087-0.911c-0.208-1.075-0.191-2.177,0.011-3.253
			C20.974,14.57,21,14.291,21,14c0-0.624-0.128-1.187-0.337-1.698C21.346,12.333,22.053,12.19,22.586,11.657z"/>
		<path fill="#F9BDA0" d="M8.154,12.792c-3.345,5.174-0.926,9.156,0.188,10.548c0.025,0.004,0.047,0.003,0.072,0.008
			c0,0,0.296-5.91,7.234-6.16l-0.5-2.688C15.147,14.5,11.843,15.444,8.154,12.792z"/>
		<path fill="#FAC7AF" d="M8.154,12.793C8.154,12.792,8.153,12.792,8.154,12.793C6.472,11.584,4.712,9.63,3.147,6.5c0,0-6,10,0,20
			c0,0,1.245-3.825,5.266-3.152c-0.025-0.004-0.047-0.004-0.072-0.008C7.228,21.948,4.809,17.966,8.154,12.793z"/>
		<path fill="#48A353" d="M15.627,14.364c-0.075-0.265-0.354-0.415-0.616-0.346c-0.271,0.076-6.679,1.735-11.417-7.742
			C3.512,6.113,3.348,6.007,3.165,6C2.979,5.999,2.811,6.087,2.718,6.243c-0.062,0.103-6.084,10.375,0,20.515
			C2.811,26.914,2.977,27,3.147,27c0.087,0,0.176-0.023,0.257-0.071c0.237-0.142,0.313-0.449,0.171-0.686
			C-1.224,18.244,1.921,10.136,3.148,7.58c1.383,2.518,2.895,4.195,4.33,5.317c-0.577,0.973-3.332,6.182,0.639,10.924
			C8.215,23.939,8.357,24,8.501,24c0.113,0,0.227-0.038,0.32-0.117c0.212-0.177,0.24-0.493,0.062-0.704
			c-3.515-4.197-1.182-8.707-0.593-9.697c0.933,0.613,1.815,1.003,2.581,1.245c2.489,0.786,4.335,0.275,4.413,0.254
			C15.549,14.905,15.702,14.629,15.627,14.364z"/>
		<path fill="#4EAC5D" d="M15.33,9.534c-0.37,0.037-0.724,0.127-1.07,0.239c0.118-0.807,0.044-1.711-0.604-2.358
			C12.51,6.268,9.691,6.05,8.521,6.009c-0.287-0.01-0.522,0.225-0.512,0.512c0.041,1.169,0.259,3.989,1.405,5.136
			c0.539,0.539,1.256,0.68,1.947,0.644c-0.228,0.512-0.357,1.074-0.361,1.668c-0.002,0.358,0.035,0.698,0.107,1.019
			c0.241,1.073,0.121,2.18-0.049,3.266c-0.103,0.658-0.074,1.362,0.128,2.091c0.244,0.883,0.735,1.671,1.385,2.289
			c-1.153,2.071-2.827,5.193-2.539,5.359c0.283,0.164,2.088-2.737,3.306-4.768c0.518,0.33,1.092,0.573,1.709,0.687
			c0.323,0.06,0.641,0.081,0.953,0.08V9.504C15.779,9.503,15.557,9.511,15.33,9.534z"/>
		<path fill="#FAC7AF" d="M12.11,11.172c0.293-0.329,0.628-0.618,1.005-0.859c0.221-0.74,0.342-1.685-0.165-2.192
			c-0.618-0.617-2.211-0.94-3.626-1.062C9.17,7.046,9.041,7.175,9.054,7.328c0.118,1.385,0.44,2.994,1.068,3.622
			c0.241,0.241,0.583,0.358,1.044,0.358C11.488,11.308,11.815,11.249,12.11,11.172z"/>
		<path fill="#F9BDA0" d="M19.05,8.122c-0.491,0.491-0.394,1.396-0.186,2.125c0.431,0.254,0.804,0.576,1.121,0.946
			c0.271,0.065,0.561,0.115,0.85,0.115c0.461,0,0.803-0.117,1.044-0.358c0.628-0.628,0.95-2.238,1.068-3.623
			c0.013-0.154-0.116-0.282-0.27-0.269C21.274,7.179,19.67,7.502,19.05,8.122z"/>
		<path fill="#373F3F" d="M16,13c-1.657,0-3,0.343-3,2s1.343,2,3,2V13z"/>
		<path fill="#2B3332" d="M19,15c0-1.657-1.343-2-3-2v4C17.657,17,19,16.657,19,15z"/>
		<path fill="#FFFFFF" d="M14.082,16.705c0.259,0.109,0.55,0.185,0.872,0.229c-0.086-0.564-0.278-1.684-0.454-1.684
			C14.345,15.25,14.179,16.113,14.082,16.705z"/>
		<path fill="#F7F7F7" d="M16.538,13.016c0.081,0.54,0.279,1.734,0.462,1.734c0.169,0,0.352-1.027,0.442-1.608
			C17.163,13.077,16.863,13.034,16.538,13.016z"/>
		<path fill="#FFFFFF" d="M14.558,13.142c0.09,0.581,0.273,1.608,0.442,1.608c0.182,0,0.381-1.194,0.462-1.734
			C15.137,13.034,14.837,13.077,14.558,13.142z"/>
		<path fill="#F7F7F7" d="M17.046,16.934c0.322-0.044,0.613-0.12,0.872-0.229c-0.096-0.592-0.263-1.455-0.418-1.455
			C17.324,15.25,17.131,16.37,17.046,16.934z"/>
		<path fill="#F6B392" d="M12.11,11.172c0.293-0.329,0.628-0.618,1.005-0.859c0.221-0.74,0.342-1.685-0.165-2.192
			c-0.037-0.037-0.089-0.069-0.132-0.103c-1.509,0.092-2.707,1.291-2.8,2.8c0.035,0.043,0.066,0.095,0.103,0.132
			c0.241,0.241,0.583,0.358,1.044,0.358C11.488,11.308,11.815,11.249,12.11,11.172z"/>
		<path fill="#F4A984" d="M19.182,8.018c-0.043,0.035-0.096,0.066-0.132,0.103c-0.491,0.491-0.394,1.396-0.186,2.125
			c0.431,0.254,0.804,0.576,1.121,0.946c0.271,0.065,0.561,0.115,0.85,0.115c0.461,0,0.803-0.117,1.044-0.358
			c0.037-0.037,0.069-0.089,0.103-0.132C21.889,9.309,20.691,8.111,19.182,8.018z"/>
	</g>
</g>
<g id="labels">
</g>
</svg>
