<?xml version="1.0" encoding="utf-8"?>
<!-- Generator: Adobe Illustrator 23.0.6, SVG Export Plug-In . SVG Version: 6.00 Build 0)  -->
<svg version="1.1" xmlns="http://www.w3.org/2000/svg" xmlns:xlink="http://www.w3.org/1999/xlink" x="0px" y="0px" width="32px"
	 height="32px" viewBox="0 0 32 32" enable-background="new 0 0 32 32" xml:space="preserve">
<g id="icons">
	<g>
		<path fill="#EFB43F" d="M24.677,11.084C24.88,10.771,25,10.4,25,10c0-0.738-0.405-1.376-1-1.723V8c0-4.411-3.589-8-8-8v17h8
			c1.657,0,3-1.343,3-3C27,12.577,26.007,11.392,24.677,11.084z"/>
		<path fill="#F7BC48" d="M7.323,11.084C7.12,10.771,7,10.4,7,10c0-0.738,0.405-1.376,1-1.723V8c0-4.411,3.589-8,8-8v17H8
			c-1.657,0-3-1.343-3-3C5,12.577,5.993,11.392,7.323,11.084z"/>
		<path fill="#8C4430" d="M16,1L16,1c-3.866,0-7,3.134-7,7v22h7V1z"/>
		<path fill="#873E2D" d="M16,30h7V8c0-3.866-3.134-7-7-7h0V30z"/>
		<g>
			<ellipse fill="#373F3F" cx="13.501" cy="6" rx="0.5" ry="1"/>
		</g>
		<g>
			<g>
				<ellipse fill="#2B3332" cx="18.501" cy="6" rx="0.5" ry="1"/>
			</g>
			<g>
				<ellipse fill="#2B3332" cx="18.501" cy="6" rx="0.5" ry="1"/>
			</g>
		</g>
		<path fill="#A366AD" d="M14,9.5c0,0.828,0.343,1.5,2,1.5V8C14.343,8,14,8.672,14,9.5z"/>
		<path fill="#945BA0" d="M16,8v3c1.657,0,2-0.672,2-1.5S17.657,8,16,8z"/>
		<path fill="#F7BC48" d="M23,14v12l9-3C32,18.038,27.963,14,23,14z"/>
		<path fill="#FFC550" d="M14,23l9,3V14C18.037,14,14,18.038,14,23z"/>
		<path fill="#873E2D" d="M30,23v7h-7V19c1.79,0,3.394-0.528,4.493-1.357C29.023,18.927,30,20.847,30,23z"/>
		<path fill="#8C4430" d="M18.501,17.64C19.601,18.472,21.206,19,23,19v11h-7v-7C16,20.848,16.973,18.924,18.501,17.64z"/>
		<path fill="#99533D" d="M9,13c-3.866,0-7,3.134-7,7v10h7V13z"/>
		<path fill="#914C39" d="M16,30V20c0-3.866-3.134-7-7-7v17H16z"/>
		<g>
			<path fill="#434C4B" d="M16,28h-0.586c-0.265,0-0.52,0.105-0.707,0.293l-1.414,1.414C13.105,29.895,13,30.149,13,30.414V31.5
				c0,0.276,0.224,0.5,0.5,0.5H16V28z"/>
			<path fill="#373F3F" d="M16,28v4h2.5c0.276,0,0.5-0.224,0.5-0.5v-1.086c0-0.265-0.105-0.52-0.293-0.707l-1.414-1.414
				C17.105,28.105,16.851,28,16.586,28H16z"/>
			<path fill="#434C4B" d="M6,31.5v-1.086c0-0.265,0.105-0.52,0.293-0.707l1.414-1.414C7.895,28.105,8.149,28,8.414,28h1.172
				c0.265,0,0.52,0.105,0.707,0.293l1.414,1.414C11.895,29.895,12,30.149,12,30.414V31.5c0,0.276-0.224,0.5-0.5,0.5h-5
				C6.224,32,6,31.776,6,31.5z"/>
			<path fill="#434C4B" d="M0,31.5v-2.086c0-0.265,0.105-0.52,0.293-0.707l0.414-0.414C0.895,28.105,1.149,28,1.414,28h1.172
				c0.265,0,0.52,0.105,0.707,0.293l1.414,1.414C4.895,29.895,5,30.149,5,30.414V31.5C5,31.776,4.776,32,4.5,32h-4
				C0.224,32,0,31.776,0,31.5z"/>
			<path fill="#373F3F" d="M20,31.5v-1.086c0-0.265,0.105-0.52,0.293-0.707l1.414-1.414C21.895,28.105,22.149,28,22.414,28h1.172
				c0.265,0,0.52,0.105,0.707,0.293l1.414,1.414C25.895,29.895,26,30.149,26,30.414V31.5c0,0.276-0.224,0.5-0.5,0.5h-5
				C20.224,32,20,31.776,20,31.5z"/>
			<path fill="#373F3F" d="M27,31.5v-1.086c0-0.265,0.105-0.52,0.293-0.707l1.414-1.414C28.895,28.105,29.149,28,29.414,28h1.172
				c0.265,0,0.52,0.105,0.707,0.293l0.414,0.414C31.895,28.895,32,29.149,32,29.414V31.5c0,0.276-0.224,0.5-0.5,0.5h-4
				C27.224,32,27,31.776,27,31.5z"/>
			<path fill="#505957" d="M10,31.5v-1.086c0-0.265,0.105-0.52,0.293-0.707l0.414-0.414C10.895,29.105,11.149,29,11.414,29h2.172
				c0.265,0,0.52,0.105,0.707,0.293l0.414,0.414C14.895,29.895,15,30.149,15,30.414V31.5c0,0.276-0.224,0.5-0.5,0.5h-4
				C10.224,32,10,31.776,10,31.5z"/>
			<path fill="#434C4B" d="M17,31.5v-1.086c0-0.265,0.105-0.52,0.293-0.707l0.414-0.414C17.895,29.105,18.149,29,18.414,29h2.172
				c0.265,0,0.52,0.105,0.707,0.293l0.414,0.414C21.895,29.895,22,30.149,22,30.414V31.5c0,0.276-0.224,0.5-0.5,0.5h-4
				C17.224,32,17,31.776,17,31.5z"/>
			<path fill="#434C4B" d="M24,31.5v-1.086c0-0.265,0.105-0.52,0.293-0.707l0.414-0.414C24.895,29.105,25.149,29,25.414,29h2.172
				c0.265,0,0.52,0.105,0.707,0.293l0.414,0.414C28.895,29.895,29,30.149,29,30.414V31.5c0,0.276-0.224,0.5-0.5,0.5h-4
				C24.224,32,24,31.776,24,31.5z"/>
			<path fill="#505957" d="M3,31.5v-1.086c0-0.265,0.105-0.52,0.293-0.707l0.414-0.414C3.895,29.105,4.149,29,4.414,29h2.172
				c0.265,0,0.52,0.105,0.707,0.293l0.414,0.414C7.895,29.895,8,30.149,8,30.414V31.5C8,31.776,7.776,32,7.5,32h-4
				C3.224,32,3,31.776,3,31.5z"/>
		</g>
		<g>
			<g>
				<ellipse fill="#373F3F" cx="6.501" cy="19" rx="0.5" ry="1"/>
			</g>
			<g>
				<ellipse fill="#373F3F" cx="6.501" cy="19" rx="0.5" ry="1"/>
			</g>
		</g>
		<g>
			<g>
				<ellipse fill="#2B3332" cx="11.501" cy="19" rx="0.5" ry="1"/>
			</g>
			<g>
				<ellipse fill="#2B3332" cx="11.501" cy="19" rx="0.5" ry="1"/>
			</g>
		</g>
		<path fill="#A366AD" d="M7,22.5C7,23.328,7.343,24,9,24v-3C7.343,21,7,21.672,7,22.5z"/>
		<path fill="#945BA0" d="M9,21v3c1.657,0,2-0.672,2-1.5S10.657,21,9,21z"/>
		<g>
			<g>
				<ellipse fill="#373F3F" cx="20.501" cy="21" rx="0.5" ry="1"/>
			</g>
			<g>
				<ellipse fill="#373F3F" cx="20.501" cy="21" rx="0.5" ry="1"/>
			</g>
		</g>
		<g>
			<g>
				<ellipse fill="#2B3332" cx="25.501" cy="21" rx="0.5" ry="1"/>
			</g>
			<g>
				<ellipse fill="#2B3332" cx="25.501" cy="21" rx="0.5" ry="1"/>
			</g>
		</g>
		<path fill="#A366AD" d="M21,24.5c0,0.828,0.343,1.5,2,1.5v-3C21.343,23,21,23.672,21,24.5z"/>
		<path fill="#945BA0" d="M23,23v3c1.657,0,2-0.672,2-1.5S24.657,23,23,23z"/>
		<path fill="#FFD98D" d="M9,13c0,0-2,3-4,3c0,0,0,3-2,5c0,0,0,3-2,3v-6c0-4.418,3.582-8,8-8h0V13z"/>
		<path fill="#FFCF6E" d="M9,13c0,0,2,3,4,3c0,0,0,3,2,5c0,0,0,3,2,3v-6c0-4.418-3.582-8-8-8h0V13z"/>
	</g>
</g>
<g id="labels">
</g>
</svg>
