<?xml version="1.0" encoding="utf-8"?>
<!-- Generator: Adobe Illustrator 23.0.6, SVG Export Plug-In . SVG Version: 6.00 Build 0)  -->
<svg version="1.1" xmlns="http://www.w3.org/2000/svg" xmlns:xlink="http://www.w3.org/1999/xlink" x="0px" y="0px" width="32px"
	 height="32px" viewBox="0 0 32 32" enable-background="new 0 0 32 32" xml:space="preserve">
<g id="icons">
	<g>
		<g>
			<path fill="#2B3332" d="M23.259,0.744l-0.002-0.002c-1.066-1.066-2.823-0.969-3.765,0.209l-1.229,1.537
				c1.389,0.621,2.499,1.8,3.002,3.309l0,0.001c0.013,0.038,0.02,0.077,0.032,0.115l1.753-1.402
				C24.228,3.566,24.325,1.81,23.259,0.744z"/>
			<path fill="#373F3F" d="M10.735,5.795L10.735,5.795c0.503-1.51,1.613-2.688,3.002-3.309L12.508,0.95
				C11.566-0.228,9.81-0.325,8.744,0.741L8.741,0.744C7.675,1.81,7.772,3.566,8.95,4.508l1.753,1.402
				C10.715,5.872,10.722,5.833,10.735,5.795z"/>
			<path fill="#F7D684" d="M20.067,27c0,0,10.933-1,10.933-8l-3,1c0,0,0,2.581-8,4.855L20.067,27z"/>
			<path fill="#FAE09F" d="M16,20l3.814-0.954c2.028-0.507,3.94,1.164,3.709,3.242l-0.47,4.234
				c-0.034,0.302,0.072,0.603,0.287,0.818l0.367,0.367C23.895,27.895,24,28.149,24,28.414V30c0,0.552-0.448,1-1,1h-7V20z"/>
			<path fill="#FDEBBB" d="M16,20l-3.814-0.954c-2.028-0.507-3.94,1.164-3.709,3.242l0.47,4.234
				c0.034,0.302-0.072,0.603-0.287,0.818l-0.367,0.367C8.105,27.895,8,28.149,8,28.414V30c0,0.552,0.448,1,1,1h7V20z"/>
			<path fill="#FDEBBB" d="M21.706,28.706C21.254,28.254,21,27.641,21,27.002V16.083c0-2.928-2.114-5.427-5-5.915v10.273
				c0.074,0.108,0.134,0.228,0.161,0.363l0.257,1.283C16.805,24.024,17,25.995,17,27.971V31c0,0.552,0.448,1,1,1h3
				c0.552,0,1-0.448,1-1v-1.586c0-0.265-0.105-0.52-0.293-0.707L21.706,28.706z"/>
			<path fill="#FFF3D9" d="M16,10.168c-2.886,0.488-5,2.987-5,5.915v10.919c0,0.639-0.254,1.252-0.706,1.704l-0.001,0.001
				C10.105,28.895,10,29.149,10,29.414V31c0,0.552,0.448,1,1,1h3c0.552,0,1-0.448,1-1v-3.029c0-1.976,0.195-3.946,0.583-5.883
				l0.257-1.283c0.027-0.135,0.087-0.255,0.161-0.363V10.168z"/>
			<path fill="#FFF3D9" d="M16,2L16,2c-2.389,0-4.51,1.529-5.265,3.795l0,0.001c-0.471,1.412-0.361,2.952,0.304,4.283l0.855,1.71
				C12.572,13.144,13.957,14,15.472,14H16V2z"/>
			<path fill="#FDEBBB" d="M16,2L16,2c2.389,0,4.51,1.529,5.265,3.795l0,0.001c0.471,1.412,0.361,2.952-0.304,4.283l-0.855,1.71
				C19.428,13.144,18.043,14,16.528,14H16V2z"/>
			<path fill="#E85160" d="M16,5c-0.552,0-1,0.448-1,1c0,0.552,0.448,1,1,1V5z"/>
			<path fill="#D84459" d="M17,6c0-0.552-0.448-1-1-1v2C16.552,7,17,6.552,17,6z"/>
			<path fill="#FFFFFF" d="M11.953,7.302c0.017-0.158,0.177-0.259,0.328-0.209l2.48,0.827c0.136,0.045,0.206,0.195,0.154,0.329
				C14.712,8.768,14.133,9.888,13,9.5C11.895,9.121,11.89,7.881,11.953,7.302z"/>
			<path fill="#E85160" d="M13.97,7.657l-0.962-0.321C13.049,8.28,13.253,9,13.5,9C13.718,9,13.902,8.437,13.97,7.657z"/>
			<path fill="#F7F7F7" d="M20.047,7.302c-0.017-0.158-0.177-0.259-0.328-0.209l-2.48,0.827c-0.136,0.045-0.206,0.195-0.154,0.329
				C17.288,8.768,17.867,9.888,19,9.5C20.105,9.121,20.11,7.881,20.047,7.302z"/>
			<path fill="#D84459" d="M18.03,7.657l0.962-0.321C18.951,8.28,18.747,9,18.5,9C18.282,9,18.098,8.437,18.03,7.657z"/>
			<path fill="#FDEBBB" d="M11.933,11.855C12.623,13.17,13.983,14,15.472,14H16v-2.5C16,11.5,14.166,12.409,11.933,11.855z"/>
			<path fill="#FAE09F" d="M20.067,11.855C17.834,12.409,16,11.5,16,11.5V14h0.528C18.017,14,19.377,13.17,20.067,11.855z"/>
			<path fill="#FAE09F" d="M28,16c-1.105,0-2,0.895-2,2s0.895,2,2,2V16z"/>
			<path fill="#F7D684" d="M31,19c0-1.657-1.343-3-3-3v6C29.657,22,31,20.657,31,19z"/>
			<path fill="#FDEBBB" d="M28,20c0.552,0,1-0.448,1-1s-0.448-1-1-1V20z"/>
			<path fill="#F0C877" d="M24,10.506c0-0.201-2.283-0.251-3.399-0.263c1.058-0.314,3.31-1.007,3.261-1.204
				c-0.051-0.204-2.491,0.448-3.496,0.726C20.149,9.824,20,10.021,20,10.246v0.508c0,0.225,0.149,0.422,0.365,0.482
				c1.006,0.278,3.445,0.93,3.496,0.726c0.049-0.195-2.151-0.874-3.224-1.193C21.767,10.755,24,10.705,24,10.506z"/>
			<path fill="#F7D684" d="M12,10.246c0-0.225-0.149-0.422-0.365-0.482C10.63,9.487,8.19,8.835,8.139,9.039
				c-0.05,0.197,2.203,0.89,3.261,1.204c-1.116,0.012-3.398,0.061-3.398,0.263c0,0.199,2.232,0.249,3.361,0.262
				c-1.073,0.319-3.273,0.998-3.224,1.193c0.051,0.204,2.491-0.448,3.496-0.726C11.852,11.176,12,10.979,12,10.754V10.246z"/>
			<path fill="#E8BA67" d="M13.334,2.686L11.873,1.59c-0.649-0.487-1.557-0.422-2.131,0.151L9.742,1.743
				C9.168,2.316,9.104,3.224,9.59,3.873l1.244,1.659C11.317,4.295,12.214,3.301,13.334,2.686z"/>
			<path fill="#DDAA5F" d="M22.258,1.743L22.258,1.743c-0.574-0.574-1.482-0.639-2.131-0.152l-1.461,1.096
				c1.12,0.615,2.017,1.609,2.5,2.845l1.244-1.659C22.896,3.224,22.832,2.316,22.258,1.743z"/>
			<path fill="#373F3F" d="M16,10c-0.552,0-1-0.052-1,0.5c0,0.341,0.382,0.738,0.674,0.991c0.094,0.081,0.21,0.122,0.326,0.122V10z"
				/>
			<path fill="#2B3332" d="M16.326,11.491C16.618,11.238,17,10.841,17,10.5c0-0.552-0.448-0.5-1-0.5v1.613
				C16.116,11.613,16.233,11.573,16.326,11.491z"/>
		</g>
	</g>
</g>
<g id="labels">
</g>
</svg>
