<?xml version="1.0" encoding="utf-8"?>
<!-- Generator: Adobe Illustrator 23.0.6, SVG Export Plug-In . SVG Version: 6.00 Build 0)  -->
<svg version="1.1" xmlns="http://www.w3.org/2000/svg" xmlns:xlink="http://www.w3.org/1999/xlink" x="0px" y="0px" width="32px"
	 height="32px" viewBox="0 0 32 32" enable-background="new 0 0 32 32" xml:space="preserve">
<g id="icons">
	<g>
		<path fill="#FFE28A" d="M7.822,11.391L6.083,14l-2.008-1.004L3,11.013V9.256c0-0.135-0.108-0.246-0.243-0.25H2.756
			C2.241,8.992,1.819,9.412,1.831,9.927l0.052,2.189l0.035,1.468l0.011,0.464l0.789-0.007l3.097,1.971
			c0.435,0.277,1.01,0.177,1.326-0.23l2.366-3.042L7.822,11.391z"/>
		<path fill="#F7C845" d="M14,23c0,0,1.997,4,6,4c6,0,5.933-5,9-5h2.474c0.297,0,0.525-0.254,0.498-0.55
			C31.852,20.151,31.228,17,28,17c-4.067,0-6,5-10,2L14,23z"/>
		<path fill="#8D5B36" d="M29,22c0.38,0,0.71,0,1,0v-4.455C29.479,17.214,28.829,17,28,17v5.208C28.298,22.077,28.625,22,29,22z"/>
		<path fill="#8D5B36" d="M24.187,18.373c-0.658,0.411-1.29,0.827-1.934,1.132l2.787,5.575c0.62-0.601,1.113-1.243,1.606-1.789
			L24.187,18.373z"/>
		<path fill="#FFD96C" d="M22.276,23.362l-2.829,1.415C19.2,24.9,19.1,25.2,19.224,25.447L21,29l-0.726,0.726
			C20.098,29.902,20,30.139,20,30.387V31.5c0,0.276,0.224,0.5,0.5,0.5h5c0.276,0,0.5-0.224,0.5-0.5v0
			c0-0.312-0.156-0.604-0.416-0.777L23,29v-5.191C23,23.437,22.609,23.196,22.276,23.362z"/>
		<path fill="#96643B" d="M21,12l-0.822,4.109c-0.116,0.581-0.402,1.114-0.82,1.533L19,18h-3v-6H21z"/>
		<path fill="#9E6E43" d="M11,12l0.822,4.109c0.116,0.581,0.402,1.114,0.82,1.533L13,18h3v-6H11z"/>
		<path fill="#A7794C" d="M12,8H7C6.448,8,6,8.448,6,9v0.519C6,9.823,6.138,10.11,6.375,10.3L11,14l3-3L12,8z"/>
		<path fill="#9E6E43" d="M20,8h5c0.552,0,1,0.448,1,1v0.519c0,0.304-0.138,0.591-0.375,0.781L21,14l-3-3L20,8z"/>
		<path fill="#FFD96C" d="M31.505,13.555l-1.681-0.21l1.31-1.685c0.175-0.225,0.155-0.545-0.046-0.746l-0.002-0.002
			c-0.201-0.201-0.521-0.221-0.746-0.046l-1.685,1.31l-0.21-1.681C28.409,10.212,28.169,10,27.884,10h-0.002
			c-0.285,0-0.525,0.212-0.561,0.495l-0.373,3.031L26,14l-1.739-2.609l-1.686,1.348l2.366,3.042c0.317,0.407,0.891,0.507,1.326,0.23
			l1.271-0.809h0l3.967-0.524C31.788,14.644,32,14.403,32,14.118v-0.002C32,13.831,31.788,13.591,31.505,13.555z"/>
		<path fill="#FFEAA7" d="M14,3l-2.832-2.852c-0.35-0.35-0.941-0.033-0.844,0.452L11,4L9.395,7.21c-0.226,0.451-0.08,1,0.34,1.279
			l1.268,0.845c0.66,0.44,1.241,0.989,1.717,1.624L14.7,13.6c0.189,0.252,0.485,0.4,0.8,0.4H16V3H14z"/>
		<path fill="#FFE28A" d="M18,3l2.832-2.852c0.35-0.35,0.941-0.033,0.844,0.452L21,4l1.605,3.21c0.226,0.451,0.08,1-0.34,1.279
			l-1.268,0.845c-0.66,0.44-1.241,0.989-1.717,1.624L17.3,13.6c-0.189,0.252-0.485,0.4-0.8,0.4H16V3H18z"/>
		<path fill="#FEF1C6" d="M14.613,10.613L14.33,10.33c-0.189-0.189-0.491-0.196-0.689-0.017c-1.468,1.325-6.776,6.576-3.139,10.241
			c0.163,0.165,0.444,0.038,0.428-0.194c-0.109-1.593-0.006-5.838,3.657-9.018C14.805,11.152,14.817,10.817,14.613,10.613z"/>
		<path fill="#FFEAA7" d="M17.387,10.613l0.282-0.282c0.189-0.189,0.491-0.196,0.689-0.017c1.468,1.325,6.776,6.576,3.139,10.241
			c-0.163,0.165-0.444,0.038-0.428-0.194c0.109-1.593,0.006-5.838-3.657-9.018C17.195,11.152,17.183,10.817,17.387,10.613z"/>
		<path fill="#909997" d="M3,6.5C3,5.119,2.605,4,1.5,4S0,5.119,0,6.5c0,1.241,0.324,2.263,1.191,2.459l-0.185,7.785
			C1.003,16.884,1.116,17,1.256,17h0.488c0.14,0,0.253-0.116,0.25-0.256L1.809,8.959C2.676,8.763,3,7.741,3,6.5z"/>
		<path fill="#FFEAA7" d="M3.505,15.062l-2.513,0.314C0.465,15.442,0,15.031,0,14.5v0c0-0.531,0.465-0.942,0.992-0.876l2.513,0.314
			C3.788,13.973,4,14.214,4,14.499v0.002C4,14.786,3.788,15.027,3.505,15.062z"/>
		<path fill="#FFEAA7" d="M3.505,13.062l-2.513,0.314C0.465,13.442,0,13.031,0,12.5v0c0-0.531,0.465-0.942,0.992-0.876l2.513,0.314
			C3.788,11.973,4,12.214,4,12.499v0.002C4,12.786,3.788,13.027,3.505,13.062z"/>
		<path fill="#FFE28A" d="M9.724,23.362l2.829,1.415C12.8,24.9,12.9,25.2,12.776,25.447L11,29l0.726,0.726
			C11.902,29.902,12,30.139,12,30.387V31.5c0,0.276-0.224,0.5-0.5,0.5h-5C6.224,32,6,31.776,6,31.5v0
			c0-0.312,0.156-0.604,0.416-0.777L9,29v-5.191C9,23.437,9.391,23.196,9.724,23.362z"/>
		<polygon fill="#FFE28A" points="13,18 14,23 16,23 16,18 		"/>
		<polygon fill="#FFD96C" points="19,18 18,23 16,23 16,18 		"/>
		<polygon fill="#FFD96C" points="10.333,23.667 12.333,24.667 14,23 13.5,20.5 		"/>
		<polygon fill="#FFD04D" points="18.5,20.5 18,23 19.667,24.667 21.667,23.667 		"/>
		<path fill="#E8BA67" d="M15.997,4.001c-0.068-0.005-0.137,0.028-0.163,0.106l-0.298,0.917h-0.964
			c-0.153,0-0.217,0.196-0.093,0.286l0.78,0.566l-0.298,0.917c-0.047,0.146,0.119,0.267,0.244,0.177l0.78-0.567l0.012,0.009V4.001z"
			/>
		<path fill="#DDAA5F" d="M17.396,5.023h-0.964l-0.298-0.917c-0.022-0.068-0.079-0.101-0.138-0.106v2.411l0.767,0.558
			c0.124,0.09,0.291-0.031,0.244-0.177L16.71,5.876l0.78-0.566C17.613,5.219,17.55,5.023,17.396,5.023z"/>
		<path fill="#F7F7F7" d="M17.138,8.431l1.753-0.877c0.187-0.094,0.4,0.071,0.356,0.275l-0.164,0.774
			C19.035,8.835,18.831,9,18.595,9H17.25C17.112,9,17,8.888,17,8.75V8.655C17,8.56,17.054,8.473,17.138,8.431z"/>
		<path fill="#FFFFFF" d="M14.862,8.431l-1.753-0.877c-0.187-0.094-0.4,0.071-0.356,0.275l0.164,0.774
			C12.965,8.835,13.169,9,13.405,9h1.345C14.888,9,15,8.888,15,8.75V8.655C15,8.56,14.946,8.473,14.862,8.431z"/>
		<path fill="#2B3332" d="M17.5,8.25l1-0.5v1C18.5,8.888,18.388,9,18.25,9h-0.5c-0.138,0-0.25-0.112-0.25-0.25V8.25z"/>
		<path fill="#373F3F" d="M14.5,8.25l-1-0.5v1C13.5,8.888,13.612,9,13.75,9h0.5c0.138,0,0.25-0.112,0.25-0.25V8.25z"/>
	</g>
</g>
<g id="labels">
</g>
</svg>
