<?xml version="1.0" encoding="utf-8"?>
<!-- Generator: Adobe Illustrator 23.0.6, SVG Export Plug-In . SVG Version: 6.00 Build 0)  -->
<svg version="1.1" xmlns="http://www.w3.org/2000/svg" xmlns:xlink="http://www.w3.org/1999/xlink" x="0px" y="0px" width="32px"
	 height="32px" viewBox="0 0 32 32" enable-background="new 0 0 32 32" xml:space="preserve">
<g id="icons">
	<g>
		<path fill="#3A9B46" d="M17,22.002l1.703,2.555c0.185,0.278,0.498,0.445,0.832,0.445H20v1.055c0,0.621,0.145,1.234,0.423,1.79
			L21,29l-0.894,1.789C20.036,30.928,20,31.081,20,31.236V31.5c0,0.276,0.224,0.5,0.5,0.5h6c0.276,0,0.5-0.224,0.5-0.5v0.035
			c0-0.334-0.167-0.647-0.445-0.832L24,29l0.725-2.901c0.17-0.682-0.029-1.403-0.526-1.899L24,24l0.001-0.584
			c0-0.266-0.105-0.52-0.293-0.708L20,19L17,22.002z"/>
		<path fill="#48A353" d="M15,22.002l-1.703,2.555c-0.185,0.278-0.498,0.445-0.832,0.445H12v1.055c0,0.621-0.145,1.234-0.423,1.79
			L11,29l0.894,1.789C11.964,30.928,12,31.081,12,31.236V31.5c0,0.276-0.224,0.5-0.5,0.5h-6C5.224,32,5,31.776,5,31.5v0.035
			c0-0.334,0.167-0.647,0.445-0.832L8,29l-0.725-2.901c-0.17-0.682,0.029-1.403,0.526-1.899L8,24l-0.001-0.584
			c0-0.266,0.105-0.52,0.293-0.708L12,19L15,22.002z"/>
		<polygon fill="#48A353" points="22,13 20,18 16,18 16,8 22,9 		"/>
		<path fill="#4EAC5D" d="M20.123,16H16l0-8l6,1v4l-0.949,2.371C20.9,15.751,20.532,16,20.123,16z"/>
		<path fill="#4EAC5D" d="M18,5h3.172c0.53,0,1.039,0.211,1.414,0.586L23,6h1.708L26,3l-0.5-0.5c-0.276-0.276-0.276-0.724,0-1l0,0
			c0.276-0.276,0.724-0.276,1,0L27,2l1.293-1.293c0.391-0.391,1.024-0.391,1.414,0l1.586,1.586c0.391,0.391,0.391,1.024,0,1.414
			l-0.707,0.707C30.211,4.789,29.702,5,29.172,5H28l-2.126,3.543C25.332,9.447,24.355,10,23.301,10H18V5z"/>
		<polygon fill="#4EAC5D" points="10,13 12,18 16,18 16,8 10,9 		"/>
		<path fill="#54B668" d="M11.877,16H16l0-8l-6,1v4l0.949,2.371C11.1,15.751,11.468,16,11.877,16z"/>
		<path fill="#54B668" d="M14,5h-3.172c-0.53,0-1.039,0.211-1.414,0.586L9,6H7.292L6,3l0.5-0.5c0.276-0.276,0.276-0.724,0-1l0,0
			c-0.276-0.276-0.724-0.276-1,0L5,2L3.707,0.707c-0.391-0.391-1.024-0.391-1.414,0L0.707,2.293c-0.391,0.391-0.391,1.024,0,1.414
			l0.707,0.707C1.789,4.789,2.298,5,2.828,5H4l2.126,3.543C6.668,9.447,7.645,10,8.699,10H14V5z"/>
		<path fill="#6CD275" d="M16,3.183c-0.361,0-0.722,0.058-1.069,0.173l-0.001,0c-1.188,0.396-2.059,1.416-2.265,2.651L12,10h4V3.183
			z"/>
		<path fill="#60C46F" d="M20,10l-0.665-3.993c-0.206-1.235-1.077-2.255-2.265-2.651l-0.001,0C16.722,3.241,16.361,3.183,16,3.183
			V10H20z"/>
		<g>
			<polygon fill="#3A4274" points="20,18 16,18.002 16,22.002 17,22.002 20,19 			"/>
			<path fill="#FFCF6E" d="M16,17c0.828,0,1.5,0.672,1.5,1.5c0,0.828-0.672,1.5-1.5,1.5V17z"/>
			<polygon fill="#424B7E" points="12,18 16,18.002 16,22.002 15,22.002 12,19 			"/>
			<path fill="#FFD98D" d="M16,17c-0.828,0-1.5,0.672-1.5,1.5c0,0.828,0.672,1.5,1.5,1.5V17z"/>
		</g>
		<path fill="#60C46F" d="M10.149,13.371C10.3,13.751,10.668,14,11.077,14H16V8l-4.452,0.742c-1.03,0.172-2.046,0.424-3.037,0.754
			L7.448,9.851c-0.295,0.098-0.562,0.264-0.782,0.483l-0.274,0.274c-0.256,0.256-0.438,0.577-0.526,0.929L5.06,14.761
			C5.02,14.92,5,15.083,5,15.246c0,1.104,0.52,2.144,1.403,2.806l1.662,1.246C8.672,19.754,9.41,20,10.169,20H12
			c0.552,0,1-0.448,1-1v-1c0-0.552-0.448-1-1-1h-0.586c-0.265,0-0.52,0.105-0.707,0.293L10.5,17.5L9,15l1-2L10.149,13.371z"/>
		<g>
			<path fill="#F7F7F7" d="M17.75,6C17.011,6,17,7.172,17,8h1.5C18.5,7.172,18.5,6,17.75,6z"/>
			<path fill="#D84459" d="M17.75,6c-0.5,0-0.5,1.172-0.5,2h1C18.25,7.172,18.25,6,17.75,6z"/>
			<ellipse fill="#2B3332" cx="17.75" cy="6.841" rx="0.25" ry="0.5"/>
		</g>
		<g>
			<path fill="#FFFFFF" d="M14.25,6c-0.739,0-0.75,1.172-0.75,2H15C15,7.172,15,6,14.25,6z"/>
			<path fill="#E85160" d="M14.25,6c-0.5,0-0.5,1.172-0.5,2h1C14.75,7.172,14.75,6,14.25,6z"/>
			<ellipse fill="#373F3F" cx="14.25" cy="6.841" rx="0.25" ry="0.5"/>
		</g>
		<path fill="#54B668" d="M26.94,14.761l-0.806-3.224c-0.088-0.352-0.27-0.673-0.526-0.929l-0.274-0.274
			c-0.22-0.22-0.487-0.385-0.782-0.483L22,9l-6-1v6h4.923c0.409,0,0.777-0.249,0.928-0.629L22,13l1,2l-1.5,2.5l-0.207-0.207
			C21.105,17.105,20.851,17,20.586,17H20c-0.552,0-1,0.448-1,1v1c0,0.552,0.448,1,1,1h1.831c0.759,0,1.497-0.246,2.105-0.702
			l1.662-1.246C26.48,17.39,27,16.35,27,15.246C27,15.083,26.98,14.92,26.94,14.761z"/>
		<path fill="#FFCF6E" d="M16,8.213h-3.493C12.227,8.213,12,8.44,12,8.72V8.9c0,0.192,0.108,0.367,0.28,0.453l0.136,0.068
			c1.041,0.521,2.19,0.792,3.354,0.792H16V8.213z"/>
		<path fill="#FFC550" d="M19.493,8.213H16v2h0.229c1.164,0,2.313-0.271,3.354-0.792l0.136-0.068C19.892,9.267,20,9.092,20,8.9V8.72
			C20,8.44,19.773,8.213,19.493,8.213z"/>
		<path fill="#FFD98D" d="M16,7.905c-0.815,0-1.629-0.1-2.425-0.299L12.63,7.37C12.31,7.29,12,7.532,12,7.862
			c0,0.211,0.131,0.4,0.329,0.474l1.565,0.587C14.572,9.178,15.286,9.305,16,9.305V7.905z"/>
		<path fill="#FFCF6E" d="M18.107,8.923l1.565-0.587C19.869,8.262,20,8.073,20,7.862c0-0.33-0.31-0.571-0.63-0.492l-0.945,0.236
			C17.629,7.806,16.815,7.905,16,7.905v1.4C16.714,9.305,17.428,9.178,18.107,8.923z"/>
		<path fill="#F7F7F7" d="M16,2.003c-0.276,0-0.5,0.221-0.5,0.497v3.25l-1.372-3.43c-0.065-0.163-0.208-0.29-0.382-0.315
			c-0.369-0.053-0.646,0.295-0.534,0.632l0.228,0.683c0.368,1.104,0.988,2.108,1.812,2.931l0.395,0.394
			C15.744,6.744,15.872,6.793,16,6.793V2.003z"/>
		<path fill="#EDEEEE" d="M18.253,2.005C18.08,2.03,17.937,2.157,17.872,2.32L16.5,5.75V2.527c0-0.249-0.17-0.48-0.416-0.52
			C16.055,2.002,16.028,2.002,16,2.003v4.79c0.128,0,0.256-0.049,0.354-0.146l0.395-0.394c0.823-0.823,1.444-1.827,1.812-2.931
			l0.228-0.683C18.9,2.301,18.622,1.952,18.253,2.005z"/>
	</g>
</g>
<g id="labels">
</g>
</svg>
