<svg xmlns="http://www.w3.org/2000/svg" viewBox="0 0 32 32"><title>076-golem-alola</title><circle cx="10" cy="1" r="1" style="fill:#f7c845"/><circle cx="11" cy="4" r="1" style="fill:#f7c845"/><circle cx="22" cy="1" r="1" style="fill:#f0c13e"/><circle cx="21" cy="4" r="1" style="fill:#f0c13e"/><path d="M6,21,4.77858,23.44283a3,3,0,0,0,.18714,3.00574L6,28,3.29289,30.70711A1,1,0,0,0,3,31.41421V31.5a.5.5,0,0,0,.5.5h8a.5.5,0,0,0,.5-.5v-.55573a4,4,0,0,0-.42229-1.78885L11,28l2-2-3-1Z" style="fill:#9e6e43"/><path d="M26,21l1.22142,2.44283a3,3,0,0,1-.18714,3.00574L26,28l2.70711,2.70711A1,1,0,0,1,29,31.41421V31.5a.5.5,0,0,1-.5.5h-8a.5.5,0,0,1-.5-.5v-.55573a4,4,0,0,1,.42229-1.78885L21,28l-2-2,3-1Z" style="fill:#96643b"/><polygon points="14 19 11 13 16 9 16 19 14 19" style="fill:#909997"/><polygon points="18 19 21 13 16 9 16 19 18 19" style="fill:#838c8a"/><polygon points="16 9 11 13 9 9 12 5 16 6 16 9" style="fill:#838c8a"/><polygon points="16 9 21 13 23 9 20 5 16 6 16 9" style="fill:#757f7e"/><path d="M16,4H13.41421a1,1,0,0,0-.7071.29289L12,5l4,1Z" style="fill:#434c4b"/><path d="M16,4V6l4-1-.70711-.70711A1,1,0,0,0,18.58579,4Z" style="fill:#373f3f"/><polygon points="9 9 5 11 3 15 5 18 11 13 9 9" style="fill:#687271"/><polygon points="23 9 27 11 29 15 27 18 21 13 23 9" style="fill:#5c6664"/><polygon points="11 13 14 19 12 23 10 24 5 21 5 18 11 13" style="fill:#757f7e"/><polygon points="21 13 18 19 20 23 22 24 27 21 27 18 21 13" style="fill:#687271"/><polygon points="22 24 19 27 20 28 23 27 27 23 27 21 22 24" style="fill:#5c6664"/><polygon points="20 23 22 24 19 27 16 26 16 25 20 23" style="fill:#373f3f"/><polygon points="10 24 13 27 12 28 9 27 5 23 5 23 5 21 10 24" style="fill:#687271"/><polygon points="12 23 10 24 13 27 16 26 16 25 12 23" style="fill:#434c4b"/><path d="M16,17H14.45941a2.99988,2.99988,0,0,0-2.94171,2.41162l-.20282,1.014a2.99989,2.99989,0,0,0,.82043,2.70965l.986.986A3,3,0,0,0,15.24261,25H16Z" style="fill:#b38658"/><path d="M20.4823,19.41162A2.99988,2.99988,0,0,0,17.54059,17H16v8h.75739a3,3,0,0,0,2.12127-.87872l.986-.986a2.99989,2.99989,0,0,0,.82043-2.70965Z" style="fill:#a7794c"/><path d="M15,22H13.24777a.50242.50242,0,0,1-.43337-.24679A2.4046,2.4046,0,0,1,12.5,20.5,2.09853,2.09853,0,0,1,13,19l2,2Z" style="fill:#fff"/><path d="M17,22h1.75223a.50242.50242,0,0,0,.43337-.24679A2.4046,2.4046,0,0,0,19.5,20.5,2.09853,2.09853,0,0,0,19,19l-2,2Z" style="fill:#f7f7f7"/><path d="M13.2937,19.2937A2.353,2.353,0,0,0,13,20.5a2.40444,2.40444,0,0,0,.31439,1.25317A.50236.50236,0,0,0,13.7478,22H15V21Z" style="fill:#e85160"/><path d="M12.41107,17.82214l2.31254,4.62507A1,1,0,0,0,15.618,23H16V17l-2.00151-1.57563a.5.5,0,0,0-.778.21876Z" style="fill:#434c4b"/><path d="M18.7063,19.2937A2.353,2.353,0,0,1,19,20.5a2.40444,2.40444,0,0,1-.31439,1.25317A.50236.50236,0,0,1,18.2522,22H17V21Z" style="fill:#d84459"/><path d="M19.58893,17.82214l-.80944-2.179a.5.5,0,0,0-.778-.21876L16,17v6h.382a1,1,0,0,0,.89442-.55279Z" style="fill:#373f3f"/><path d="M14.5,23.5a1.70684,1.70684,0,0,0-1.20709-.5H12.03c.03833.043.06427.09424.10534.13525l.986.986A3,3,0,0,0,15.24261,25H16V24h-.29291A1.70709,1.70709,0,0,1,14.5,23.5Z" style="fill:#a7794c"/><path d="M18.87866,24.12128l.986-.986c.04107-.041.067-.09222.10534-.13525H18.70709A1.70684,1.70684,0,0,0,17.5,23.5a1.70709,1.70709,0,0,1-1.20709.5H16v1h.75739A3,3,0,0,0,18.87866,24.12128Z" style="fill:#9e6e43"/><path d="M3,15,.4,18.46667a2,2,0,0,0-.4,1.2V24.75A.25.25,0,0,0,.25,25H.34549a.25.25,0,0,0,.22361-.1382l.20729-.41459a.25.25,0,0,1,.44722,0l.20729.41459A.25.25,0,0,0,1.65451,25h.191a.25.25,0,0,0,.22361-.1382l.20729-.41459a.25.25,0,0,1,.44722,0l.20729.41459A.25.25,0,0,0,3.15451,25H3.25a.25.25,0,0,0,.25-.25V23.33333a1,1,0,0,1,.2-.6L5,21V18Z" style="fill:#a7794c"/><path d="M29,15l2.6,3.46667a2,2,0,0,1,.4,1.2V24.75a.25.25,0,0,1-.25.25h-.09549a.25.25,0,0,1-.22361-.1382l-.20729-.41459a.25.25,0,0,0-.44722,0l-.20729.41459A.25.25,0,0,1,30.34549,25h-.191a.25.25,0,0,1-.22361-.1382l-.20729-.41459a.25.25,0,0,0-.44722,0l-.20729.41459A.25.25,0,0,1,28.84549,25H28.75a.25.25,0,0,1-.25-.25V23.33333a1,1,0,0,0-.2-.6L27,21V18Z" style="fill:#9e6e43"/><path d="M16,26l-3,1-1,1,3.51492.87872A2,2,0,0,0,16,28.93843Z" style="fill:#373f3f"/><path d="M16.48508,28.87872,20,28l-1-1-3-1v2.93843A2,2,0,0,0,16.48508,28.87872Z" style="fill:#2b3332"/><path d="M12,5,10.58579,3.58579A2,2,0,0,1,10,2.17157V0H8.6594a1,1,0,0,0-.91915.60608L5.64684,5.49071A7.99994,7.99994,0,0,0,5,8.64206V11L9,9Z" style="fill:#434c4b"/><path d="M20,5l1.41421-1.41421A2,2,0,0,0,22,2.17157V0h1.3406a1,1,0,0,1,.91915.60608l2.09341,4.88463A7.99994,7.99994,0,0,1,27,8.64206V11L23,9Z" style="fill:#373f3f"/><path d="M14.5,22h-1a1.90888,1.90888,0,0,1-.90857-.477.24973.24973,0,0,0-.39636.25739l.21026.84088A.5.5,0,0,0,12.89038,23h.40253A1.70684,1.70684,0,0,1,14.5,23.5a1.70709,1.70709,0,0,0,1.20709.5H16V23Z" style="fill:#373f3f"/><path d="M17.5,22h1a1.90888,1.90888,0,0,0,.90857-.477.24973.24973,0,0,1,.39636.25739l-.21026.84088A.5.5,0,0,1,19.10962,23h-.40253A1.70684,1.70684,0,0,0,17.5,23.5a1.70709,1.70709,0,0,1-1.20709.5H16V23Z" style="fill:#2b3332"/></svg>