<?xml version="1.0" encoding="utf-8"?>
<!-- Generator: Adobe Illustrator 23.0.6, SVG Export Plug-In . SVG Version: 6.00 Build 0)  -->
<svg version="1.1" xmlns="http://www.w3.org/2000/svg" xmlns:xlink="http://www.w3.org/1999/xlink" x="0px" y="0px" width="32px"
	 height="32px" viewBox="0 0 32 32" enable-background="new 0 0 32 32" xml:space="preserve">
<g id="icons">
	<g>
		<path fill="#9FC9E4" d="M16,16c0,2.968,1.957,4.957,5.871,4.999c3.349,0.037,6.171-2.297,6.866-5.573
			c1.264-5.958-2.285-9.815-5.077-10.36c-0.231-0.045-0.391,0.227-0.242,0.409C24.005,6.191,25,7.611,25,9c0,3-2.297,3-4,3
			C21,12,16,12,16,16z"/>
		<path fill="#7FB8E0" d="M21.871,20.999c3.349,0.037,6.165-2.298,6.866-5.573c1.099-5.132-1.296-8.592-3.734-9.857
			c0.082,0.082,1.966,1.869,1.966,4.431s-1.812,5.188-4.719,4.969s-4.469,1.906-4.469,1.906s-0.596,0.549-1.304,1.356
			C17.266,19.918,19.053,20.969,21.871,20.999z"/>
		<path fill="#65A9DC" d="M28.607,10.129c0.036,0.313,0.251,2.59-0.482,4.496c-0.525,1.366-1.781,3.281-5.031,3.281
			s-4.722,2.031-4.722,2.031l0.027,0.289c0.9,0.483,2.055,0.757,3.473,0.773c3.349,0.037,6.165-2.298,6.866-5.573
			C29.171,13.398,29.066,11.591,28.607,10.129z"/>
		<polygon fill="#F7D684" points="18,22 18,29 20,29 20.434,19.528 		"/>
		<path fill="#2B3332" d="M18.5,31h1c0.276,0,0.5-0.224,0.5-0.5V29h-2v1.5C18,30.776,18.224,31,18.5,31z"/>
		<polygon fill="#FAE09F" points="14,22 14,29 12,29 11.566,19.528 		"/>
		<path fill="#373F3F" d="M13.5,31h-1c-0.276,0-0.5-0.224-0.5-0.5V29h2v1.5C14,30.776,13.776,31,13.5,31z"/>
		<path fill="#FAE09F" d="M18,12l0.774,3.096c0.149,0.598,0.401,1.166,0.743,1.679l0.025,0.037c0.92,1.381,1.152,3.109,0.627,4.683
			v0c-0.112,0.336-0.19,0.682-0.234,1.033L19,30h-2v-7h-1V12H18z"/>
		<path fill="#373F3F" d="M17.5,32h1c0.276,0,0.5-0.224,0.5-0.5V30h-2v1.5C17,31.776,17.224,32,17.5,32z"/>
		<path fill="#FDEBBB" d="M14,12l-0.774,3.096c-0.149,0.598-0.401,1.166-0.743,1.679l-0.025,0.037
			c-0.92,1.381-1.152,3.109-0.627,4.683l0,0c0.112,0.336,0.19,0.682,0.234,1.033L13,30h2v-7h1V12H14z"/>
		<path fill="#FDEBBB" d="M21.688,6.008l-3.205,0.801c-0.058-0.073-0.099-0.122-0.099-0.122H16V16c1.173,0,1.658-0.688,1.859-1.258
			c0.151-0.429,0.419-0.804,0.802-1.05C19.243,13.32,20,12.539,20,11c0-0.607-0.097-1.17-0.241-1.679l2.19-2.92
			C22.09,6.212,21.917,5.951,21.688,6.008z"/>
		<path fill="#FFF3D9" d="M13.616,6.687c0,0-0.041,0.049-0.099,0.122l-3.205-0.801c-0.228-0.057-0.402,0.204-0.261,0.393l2.19,2.92
			C12.097,9.83,12,10.393,12,11c0,1.539,0.757,2.32,1.339,2.693c0.383,0.245,0.651,0.62,0.802,1.05C14.342,15.312,14.827,16,16,16
			V6.687H13.616z"/>
		<g>
			<path fill="#65A9DC" d="M16,9c-1.657,0-3-1.378-3-3.078v0c0-2.861,3.457-3.062,2.337-5.549c-0.1-0.221,0.111-0.451,0.326-0.348
				C16.8,0.571,19,2.118,19,5.922v0C19,7.622,17.657,9,16,9L16,9z"/>
			<path fill="#7FB8E0" d="M15.517,8.939c-0.937-0.231-1.585-1.21-1.511-2.213c0.057-0.773,0.484-1.239,1.15-1.908
				c0.428-0.429,0.958-0.961,1.228-1.667c0.069-0.179,0.302-0.204,0.421-0.056C17.452,3.894,18,5.104,18,6.909
				C18,8.225,16.828,9.262,15.517,8.939z"/>
			<path fill="#9FC9E4" d="M15.77,8.973c-0.495-0.117-0.807-0.606-0.765-1.139c0.027-0.342,0.199-0.58,0.841-1.233
				c0.148-0.151,0.317-0.322,0.49-0.517c0.13-0.147,0.365-0.098,0.423,0.093c0.16,0.526,0.241,1.116,0.243,1.767
				C17.003,8.606,16.424,9.127,15.77,8.973z"/>
		</g>
		<path fill="#373F3F" d="M14.486,11.536c-0.084-0.236-0.353-0.856-1.015-1.457c-0.134-0.122-0.323-0.097-0.357,0.045
			c-0.111,0.467-0.257,1.379,0.194,1.67c0.663,0.426,1.03,0.088,1.158-0.079C14.502,11.667,14.51,11.602,14.486,11.536z"/>
		<circle fill="#FFFFFF" cx="13.75" cy="11.25" r="0.25"/>
		<path fill="#2B3332" d="M17.514,11.536c0.084-0.236,0.353-0.856,1.015-1.457c0.134-0.122,0.323-0.097,0.357,0.045
			c0.111,0.467,0.257,1.379-0.194,1.67c-0.663,0.426-1.03,0.088-1.158-0.079C17.498,11.667,17.49,11.602,17.514,11.536z"/>
		<circle fill="#F7F7F7" cx="18.25" cy="11.25" r="0.25"/>
		<path fill="#434C4B" d="M14.5,32h-1c-0.276,0-0.5-0.224-0.5-0.5V30h2v1.5C15,31.776,14.776,32,14.5,32z"/>
	</g>
</g>
<g id="labels">
</g>
</svg>
