<?xml version="1.0" encoding="utf-8"?>
<!-- Generator: Adobe Illustrator 23.0.6, SVG Export Plug-In . SVG Version: 6.00 Build 0)  -->
<svg version="1.1" xmlns="http://www.w3.org/2000/svg" xmlns:xlink="http://www.w3.org/1999/xlink" x="0px" y="0px" width="32px"
	 height="32px" viewBox="0 0 32 32" enable-background="new 0 0 32 32" xml:space="preserve">
<g id="icons">
	<g>
		<g>
			<polygon fill="#88B9C3" points="16.033,19.179 21.533,24.679 23.533,20.679 19.033,16.179 			"/>
			<path fill="#93C2CA" d="M26.606,19.252l-1.573-1.573l0.5-1l-3.499-3.499l-3,3l4.499,4.499l0.5-1h2.396
				C26.652,19.679,26.763,19.41,26.606,19.252z"/>
			<polygon fill="#99C7CE" points="22.033,13.179 25.533,16.679 27.533,12.679 25.033,10.179 			"/>
			<path fill="#9FCCD3" d="M29.033,9.679l0.5-1l-1.499-1.499l-3,3l2.499,2.499l0.5-1h2.396c0.223,0,0.334-0.269,0.177-0.427
				L29.033,9.679z"/>
			<path fill="#A5D1D8" d="M31.033,4.179l-3,3l1.499,1.499l1.684-3.368C31.405,4.933,31.332,4.478,31.033,4.179z"/>
			<path fill="#ACD7DD" d="M31.032,4.178c-0.298-0.298-0.754-0.372-1.131-0.184l-0.368,0.184l-1.573-1.573
				c-0.157-0.158-0.427-0.046-0.427,0.177v2.396l-1,0.5l1.501,1.501l3-3L31.032,4.178z"/>
			<polygon fill="#A5D1D8" points="26.533,5.679 22.533,7.679 25.033,10.179 28.033,7.179 			"/>
			<path fill="#9FCCD3" d="M22.533,7.679l-1,0.5l-1.573-1.573c-0.157-0.158-0.427-0.046-0.427,0.177v2.396l-1,0.5l3.501,3.501l3-3
				L22.533,7.679z"/>
			<polygon fill="#99C7CE" points="18.533,9.679 14.533,11.679 19.033,16.179 22.033,13.179 			"/>
			<polygon fill="#93C2CA" points="19.033,16.179 14.533,11.679 10.533,13.679 16.033,19.179 			"/>
			<g>
				<path fill="#F7F7F7" d="M25.628,13.179h-2.595l1.755,1.755c0.121,0.121,0.324,0.088,0.4-0.065l0.664-1.328
					C25.935,13.374,25.814,13.179,25.628,13.179z"/>
				<path fill="#2B3332" d="M24.5,14.179c0.276,0,0.5-0.448,0.5-1h-1C24,13.731,24.224,14.179,24.5,14.179z"/>
				<path fill="#FFFFFF" d="M22.033,9.588v2.595l-1.755-1.755c-0.121-0.121-0.088-0.324,0.065-0.4l1.328-0.664
					C21.837,9.282,22.033,9.402,22.033,9.588z"/>
				<path fill="#373F3F" d="M21.033,10.717c0-0.276,0.448-0.5,1-0.5v1C21.48,11.217,21.033,10.993,21.033,10.717z"/>
			</g>
		</g>
		<g>
			<path fill="#F8A1C4" d="M15,20.999l3.652,0.522C20.573,21.795,22,23.441,22,25.382v0.002c0,1.034-0.411,2.026-1.142,2.758
				L20,28.999l1.447,0.724C21.786,29.892,22,30.238,22,30.617v0.132c0,0.138-0.112,0.25-0.25,0.25l-6.5,0.002
				c-0.138,0-0.25-0.112-0.25-0.25v-0.337c0-0.265,0.105-0.52,0.293-0.707L16,28.999l-1-1V20.999z"/>
			<path fill="#F9ADC8" d="M9,20.999l-3.652,0.522C3.427,21.795,2,23.441,2,25.382v0.002c0,1.034,0.411,2.026,1.142,2.758L4,28.999
				l-1.447,0.724C2.214,29.892,2,30.238,2,30.617v0.132c0,0.138,0.112,0.25,0.25,0.25l6.5,0.002c0.138,0,0.25-0.112,0.25-0.25
				v-0.337c0-0.265-0.105-0.52-0.293-0.707L8,28.999l1-1V20.999z"/>
			<path fill="#FAE09F" d="M11.998,13.999C7.581,14,5,17.582,5,21.999s2.581,6.999,6.998,7V13.999z"/>
			<path fill="#F7D684" d="M12,13.999c-0.001,0-0.001,0-0.002,0v15c0.001,0,0.001,0,0.002,0c4.418,0,7-2.582,7-7
				S16.418,13.999,12,13.999z"/>
			<path fill="#FDEBBB" d="M11.998,13.999C7.581,14,5,17.582,5,21.999c0,0.142,0.01,0.277,0.016,0.415
				c1.264,2.304,3.667,3.584,6.983,3.585V13.999z"/>
			<path fill="#FAE09F" d="M12,13.999c-0.001,0-0.001,0-0.002,0v12c0.001,0,0.001,0,0.002,0c3.317,0,5.72-1.28,6.984-3.585
				C18.99,22.276,19,22.141,19,21.999C19,17.581,16.418,13.999,12,13.999z"/>
			<path fill="#FFF3D9" d="M12,13.999c-3.654,0-6.046,2.452-6.767,5.798c1.314,2.066,3.636,3.202,6.767,3.202V13.999z"/>
			<path fill="#FDEBBB" d="M18.767,19.797c-0.721-3.346-3.113-5.798-6.767-5.798v9C15.131,22.999,17.453,21.863,18.767,19.797z"/>
			<path fill="#FAB8CD" d="M7.652,2.873C7.292,2.346,6.687,1.999,6,1.999c-1.105,0-2,0.895-2,2c0,1.105,0.895,2,2,2
				c0.031,0,0.06-0.008,0.091-0.009C6.036,6.319,6,6.654,6,6.999v10.396c0.076,0.182,0.179,0.43,0.255,0.613
				c1.363,1.279,3.308,1.97,5.745,1.97V0.999C10.287,0.999,8.745,1.721,7.652,2.873z"/>
			<circle fill="#F297BE" cx="6" cy="3.999" r="1"/>
			<path fill="#F9ADC8" d="M18,1.999c-0.687,0-1.292,0.347-1.652,0.874C15.255,1.721,13.713,0.999,12,0.999v18.979
				c2.437,0,4.382-0.691,5.745-1.97c0.076-0.182,0.179-0.43,0.255-0.613V6.999c0-0.345-0.036-0.68-0.091-1.009
				C17.94,5.991,17.969,5.999,18,5.999c1.105,0,2-0.895,2-2C20,2.895,19.105,1.999,18,1.999z"/>
			<circle fill="#EA8BB4" cx="18" cy="3.999" r="1"/>
			<circle fill="#F7F7F7" cx="15" cy="5.999" r="2"/>
			<circle fill="#2B3332" cx="15.5" cy="5.499" r="0.5"/>
			<circle fill="#FFFFFF" cx="9" cy="5.999" r="2"/>
			<circle fill="#373F3F" cx="8.5" cy="5.499" r="0.5"/>
			<path fill="#FDEBBB" d="M12,7.111c-1.592,0-3.183,0.541-4.481,1.622L6.841,9.298c-0.452,0.376-0.483,1.06-0.067,1.475
				l1.812,1.811c0.905,0.906,2.134,1.414,3.414,1.414V7.111z"/>
			<path fill="#FAE09F" d="M15.414,12.585l1.812-1.811c0.416-0.416,0.385-1.099-0.067-1.475l-0.677-0.565
				C15.183,7.652,13.592,7.111,12,7.111v6.888C13.281,13.999,14.509,13.49,15.414,12.585z"/>
			<path fill="#FAC4D1" d="M6,11.999l-1.211,2.019c-1.075,1.792-0.922,4.064,0.383,5.696l0.254,0.317
				c0.84,1.05,2.406,1.136,3.356,0.186l0,0c0.719-0.719,0.868-1.831,0.363-2.714L6,11.999z"/>
			<path fill="#FAB8CD" d="M18,11.999l1.211,2.019c1.075,1.792,0.922,4.064-0.383,5.696l-0.254,0.317
				c-0.84,1.05-2.406,1.136-3.356,0.186l0,0c-0.719-0.719-0.868-1.831-0.363-2.714L18,11.999z"/>
			<path fill="#FAE09F" d="M12,10.184c-0.489,0-0.977,0.06-1.455,0.179l-0.85,0.212c-1,0.25-2.043,0.224-3.034-0.047
				c-0.008,0.013-0.011,0.028-0.018,0.042c0.041,0.069,0.072,0.144,0.132,0.204l1.812,1.811c0.905,0.906,2.134,1.414,3.414,1.414
				V10.184z"/>
			<path fill="#F7D684" d="M15.414,12.585l1.812-1.811c0.06-0.06,0.09-0.134,0.132-0.204c-0.008-0.013-0.01-0.029-0.018-0.042
				c-0.991,0.271-2.034,0.297-3.034,0.047l-0.85-0.212c-0.478-0.119-0.966-0.179-1.455-0.179v3.815
				C13.281,13.999,14.509,13.49,15.414,12.585z"/>
			<path fill="#F9ADC8" d="M12,10.184c-0.408,0-0.816,0.05-1.212,0.148l-0.851,0.213C9.4,10.68,8.843,10.748,8.282,10.748
				c-0.04,0-0.08,0-0.12-0.001l1.131,1.131c0.713,0.713,1.699,1.121,2.707,1.121V10.184z"/>
			<path fill="#F8A1C4" d="M14.707,11.878l1.127-1.131c-0.039,0.001-0.077,0.001-0.116,0.001c-0.561,0-1.118-0.068-1.656-0.203
				l-0.849-0.212c-0.396-0.1-0.805-0.149-1.213-0.149v2.815C13.008,12.999,13.994,12.591,14.707,11.878z"/>
		</g>
	</g>
</g>
<g id="labels">
</g>
</svg>
