<?xml version="1.0" encoding="utf-8"?>
<!-- Generator: Adobe Illustrator 23.0.6, SVG Export Plug-In . SVG Version: 6.00 Build 0)  -->
<svg version="1.1" xmlns="http://www.w3.org/2000/svg" xmlns:xlink="http://www.w3.org/1999/xlink" x="0px" y="0px" width="32px"
	 height="32px" viewBox="0 0 32 32" enable-background="new 0 0 32 32" xml:space="preserve">
<g id="icons">
	<g>
		<path fill="#F7D684" d="M29.737,4.582c0.136-0.274-0.024-0.6-0.315-0.692C29.042,3.77,28.521,3.521,28,3c-1-1-1-2-2-2s-2,1-3,1
			s-2-2-3-2v11c0,14-5,14-5,14v4c11.991,0,7-18,7-18S27.475,9.156,29.737,4.582z"/>
		<path fill="#FAE09F" d="M17,2c-1,0-2-1-3-1s-1,1-2,2c-0.521,0.521-1.042,0.77-1.421,0.89c-0.292,0.092-0.451,0.417-0.315,0.692
			C12.525,9.156,18,11,18,11h0.015c0,0-1.93,6.966-0.502,12.231C18.759,21.475,20,17.976,20,11V0C19,0,18,2,17,2z"/>
		<path fill="#FAE09F" d="M18,11c0,0,2,11-3,11v3"/>
		<path fill="#FDEBBB" d="M10,14v1.505c0,0.329-0.033,0.658-0.097,0.981L9.2,20.001l-2.462,2.11
			c-1.786,1.531-3.083,3.553-3.729,5.814L2.545,29.55c-0.298,1.044,0.327,2.127,1.38,2.39l0.009,0.002
			c1.105,0.276,2.205-0.464,2.366-1.591l0.39-2.731c0.202-1.415,0.78-2.75,1.673-3.866L9,22.958V24c0,2.761,2.239,5,5,5h1V9
			C12.239,9,10,11.239,10,14z"/>
		<path fill="#FAE09F" d="M28.455,29.55l-0.464-1.624c-0.646-2.262-1.943-4.284-3.729-5.814l-3.669-3.144l-0.496-2.481
			C20.033,16.163,20,15.834,20,15.505V14c0-2.761-2.239-5-5-5v20h1c2.761,0,5-2.239,5-5v-2.292l1.636,2.045
			c0.893,1.116,1.471,2.451,1.673,3.866l0.39,2.731c0.161,1.127,1.262,1.867,2.366,1.591l0.009-0.002
			C28.127,31.677,28.753,30.593,28.455,29.55z"/>
		<path fill="#FFFFFF" d="M12,15.541l0.763,2.288c0.076,0.228,0.398,0.228,0.474,0L14,15.541H12z"/>
		<path fill="#F7F7F7" d="M16,15.541l0.763,2.288c0.076,0.228,0.398,0.228,0.474,0L18,15.541H16z"/>
		<path fill="#FFF3D9" d="M10,14v1.346C10.648,16.144,11.466,17,12,17c2,0,2-1,3-1V9C12.239,9,10,11.239,10,14z"/>
		<path fill="#FDEBBB" d="M15,9v7c1,0,1,1,3,1c0.534,0,1.352-0.856,2-1.654V14C20,11.239,17.761,9,15,9z"/>
		<path fill="#8D5B36" d="M14,13.5c0,0.828-0.448,1-1,1s-1-0.172-1-1s0.448-1.5,1-1.5S14,12.672,14,13.5z"/>
		<path fill="#845331" d="M18,13.5c0,0.828-0.448,1-1,1s-1-0.172-1-1s0.448-1.5,1-1.5S18,12.672,18,13.5z"/>
		<path fill="#2B3332" d="M17,12c-0.552,0-1,0.672-1,1.5c0,0.043,0.006,0.078,0.009,0.118C16.273,13.853,16.618,14,17,14
			s0.727-0.147,0.991-0.382C17.994,13.578,18,13.543,18,13.5C18,12.672,17.552,12,17,12z"/>
		<path fill="#373F3F" d="M13,12c-0.552,0-1,0.672-1,1.5c0,0.043,0.006,0.078,0.009,0.118C12.273,13.853,12.618,14,13,14
			s0.727-0.147,0.991-0.382C13.994,13.578,14,13.543,14,13.5C14,12.672,13.552,12,13,12z"/>
		<path fill="#373F3F" d="M15,14.5c-0.276,0-0.5,0.043-0.5,0.25S14.724,15,15,15V14.5z"/>
		<path fill="#2B3332" d="M15.5,14.75c0-0.207-0.224-0.25-0.5-0.25V15C15.276,15,15.5,14.957,15.5,14.75z"/>
		<circle fill="#FFFFFF" cx="13" cy="12.75" r="0.5"/>
		<circle fill="#F7F7F7" cx="17" cy="12.75" r="0.5"/>
	</g>
</g>
<g id="labels">
</g>
</svg>
