<?xml version="1.0" encoding="utf-8"?>
<!-- Generator: Adobe Illustrator 23.0.6, SVG Export Plug-In . SVG Version: 6.00 Build 0)  -->
<svg version="1.1" xmlns="http://www.w3.org/2000/svg" xmlns:xlink="http://www.w3.org/1999/xlink" x="0px" y="0px" width="32px"
	 height="32px" viewBox="0 0 32 32" enable-background="new 0 0 32 32" xml:space="preserve">
<g id="icons">
	<g>
		<path fill="#A8B875" d="M15.951,0c-0.244,0-0.453,0.177-0.493,0.418L14.527,6H13.31c-0.176,0-0.338,0.092-0.429,0.243l-2.712,4.52
			c-0.093,0.155-0.143,0.333-0.143,0.515v2.446c0,0.181,0.049,0.359,0.143,0.514l2.712,4.52C12.972,18.908,13.135,19,13.31,19h2.717
			V6V0H15.951z"/>
		<path fill="#9EB164" d="M21.885,10.762L19.027,6h-1.5l-0.93-5.582C16.557,0.177,16.348,0,16.103,0h-0.076v6v13h2.717
			c0.176,0,0.338-0.092,0.429-0.243L22.027,14v-2.723C22.027,11.096,21.978,10.918,21.885,10.762z"/>
		<path fill="#97AC59" d="M22.027,14l-3,3h-3v2h2.717c0.176,0,0.338-0.092,0.429-0.243L22.027,14z"/>
		<path fill="#4F4949" d="M19.027,17l-0.854,0.854C18.08,17.947,17.953,18,17.82,18h-1.793v-1H19.027z"/>
		<path fill="#F7F7F7" d="M17.301,11.909l2.397-0.799c0.162-0.054,0.329,0.067,0.329,0.237v0.535c0,0.078-0.018,0.154-0.053,0.224
			l-0.309,0.618C19.581,12.893,19.407,13,19.218,13h-1.382c-0.189,0-0.363-0.107-0.447-0.276l-0.233-0.466
			C17.088,12.122,17.156,11.957,17.301,11.909z"/>
		<path fill="#FFFFFF" d="M14.754,11.909l-2.397-0.799c-0.162-0.054-0.329,0.067-0.329,0.237v0.535c0,0.078,0.018,0.154,0.053,0.224
			l0.309,0.618C12.474,12.893,12.647,13,12.836,13h1.382c0.189,0,0.363-0.107,0.447-0.276l0.233-0.466
			C14.966,12.122,14.898,11.957,14.754,11.909z"/>
		<path fill="#9EB164" d="M10.088,14.052c0.022,0.061,0.048,0.12,0.081,0.176l2.712,4.52c0.09,0.151,0.253,0.243,0.429,0.243h2.717
			v-2h-3L10.088,14.052z"/>
		<path fill="#5A5353" d="M13.027,17l0.854,0.854C13.974,17.947,14.102,18,14.234,18h1.793v-1H13.027z"/>
		<path fill="#97AC59" d="M19.027,6l2.857,4.762c0.093,0.155,0.143,0.333,0.143,0.514V14h3l1.854-1.854
			c0.094-0.094,0.146-0.221,0.146-0.354V8l-2.854-2.854C24.08,5.053,23.953,5,23.82,5h-3.586c-0.133,0-0.26,0.053-0.354,0.146
			L19.027,6z"/>
		<path fill="#90A74E" d="M26.027,15l-1-1l1.854-1.854c0.094-0.094,0.146-0.221,0.146-0.354V8h1.793c0.133,0,0.26,0.053,0.354,0.146
			l1.707,1.707c0.094,0.094,0.146,0.221,0.146,0.354V15H26.027z"/>
		<path fill="#8DA04A" d="M31.974,17.842L31.027,15h-5l-0.947,2.842c-0.034,0.103-0.034,0.214,0,0.316L26.027,21h5l0.947-2.842
			C32.009,18.055,32.009,17.945,31.974,17.842z"/>
		<path fill="#869642" d="M24.173,22.854L26.027,21h5l0,0v4.793c0,0.133-0.053,0.26-0.146,0.354L29.027,28l-5-3v-1.793
			C24.027,23.074,24.08,22.947,24.173,22.854z"/>
		<path fill="#8DA04A" d="M22.027,27l2-2l5,3v1.793c0,0.133-0.053,0.26-0.146,0.354l-1.707,1.707C27.08,31.947,26.953,32,26.82,32
			h-3.586c-0.133,0-0.26-0.053-0.354-0.146L22.027,31V27z"/>
		<path fill="#90A74E" d="M21.173,31.854L22.027,31v-4h-3.793c-0.133,0-0.26,0.053-0.354,0.146L17.027,28v3l0.854,0.854
			C17.974,31.947,18.102,32,18.234,32h2.586C20.953,32,21.08,31.947,21.173,31.854z"/>
		<path fill="#97AC59" d="M16.173,31.854L17.027,31v-3h-2.793c-0.133,0-0.26,0.053-0.354,0.146L13.027,29v2l0.854,0.854
			C13.974,31.947,14.102,32,14.234,32h1.586C15.953,32,16.08,31.947,16.173,31.854z"/>
		<path fill="#9EB164" d="M13.027,29h-1.793c-0.133,0-0.26,0.053-0.354,0.146L10.027,30v1l0.854,0.854
			C10.974,31.947,11.102,32,11.234,32h0.586c0.133,0,0.26-0.053,0.354-0.146L13.027,31V29z"/>
		<path fill="#A8B875" d="M10.027,30H8.234c-0.133,0-0.26,0.053-0.354,0.146l-0.5,0.5c-0.195,0.195-0.195,0.512,0,0.707l0.5,0.5
			C7.974,31.947,8.102,32,8.234,32H8.82c0.133,0,0.26-0.053,0.354-0.146L10.027,31V30z"/>
		<path fill="#2B3332" d="M18.527,12.5c0.276,0,0.5-0.448,0.5-1c0-0.057-0.012-0.107-0.016-0.161l-0.967,0.323
			C18.083,12.134,18.28,12.5,18.527,12.5z"/>
		<path fill="#373F3F" d="M13.043,11.339c-0.005,0.055-0.016,0.104-0.016,0.161c0,0.552,0.224,1,0.5,1
			c0.247,0,0.444-0.366,0.484-0.839L13.043,11.339z"/>
	</g>
</g>
<g id="labels">
</g>
</svg>
