<?xml version="1.0" encoding="utf-8"?>
<!-- Generator: Adobe Illustrator 23.0.6, SVG Export Plug-In . SVG Version: 6.00 Build 0)  -->
<svg version="1.1" xmlns="http://www.w3.org/2000/svg" xmlns:xlink="http://www.w3.org/1999/xlink" x="0px" y="0px" width="32px"
	 height="32px" viewBox="0 0 32 32" enable-background="new 0 0 32 32" xml:space="preserve">
<g id="icons">
	<g>
		<path fill="#CDA073" d="M9.062,8.111L7.313,7.139l-2.896,5.213c-0.668,0.152-1.167,0.746-1.167,1.46c0,0.828,0.672,1.5,1.5,1.5
			s1.5-0.672,1.5-1.5c0-0.171-0.035-0.332-0.087-0.484L9.062,8.111z"/>
		<path fill="#C09265" d="M27.583,12.352l-2.896-5.213l-1.748,0.972l2.898,5.217c-0.052,0.153-0.087,0.314-0.087,0.484
			c0,0.828,0.672,1.5,1.5,1.5s1.5-0.672,1.5-1.5C28.75,13.099,28.25,12.504,27.583,12.352z"/>
		<path fill="#E3E5E5" d="M6.354,31c0,0-2.25,0-2.25,1h2.25V31z"/>
		<g>
			<g>
				<path fill="#FFF3D9" d="M10.198,18.911c-0.371,1.126-0.663,2.48-0.878,4.066l3.24,1.048c0.201-1.745,0.469-2.986,0.741-3.871
					L10.198,18.911z"/>
			</g>
			<g>
				<path fill="#FFF3D9" d="M10.198,18.911c-0.371,1.126-0.663,2.48-0.878,4.066l3.24,1.048c0.201-1.745,0.469-2.986,0.741-3.871
					L10.198,18.911z"/>
			</g>
		</g>
		<g>
			<path fill="#FAE09F" d="M8.871,30.935h3.352c0-1.324,0.031-2.496,0.08-3.564l-3.334-0.396
				C8.907,28.203,8.871,29.514,8.871,30.935z"/>
			<path fill="#FDEBBB" d="M9.32,22.978c-0.162,1.197-0.276,2.536-0.351,3.998l3.334,0.396c0.059-1.274,0.146-2.392,0.256-3.346
				L9.32,22.978z"/>
		</g>
		<path fill="#C09265" d="M8.676,5.018C8.617,5.014,8.56,5,8.5,5C7.119,5,6,6.119,6,7.5C6,8.881,7.119,10,8.5,10
			c0.227,0,0.442-0.04,0.651-0.096c0.401,0.935,0.909,1.705,1.302,2.683c0.45,1.12,0.437,2.349-0.022,3.465l-0.962,2.335
			c-0.129,0.314-0.015,0.668,0.28,0.869l3.779,2.566c0.408,0.277,0.991,0.156,1.227-0.254L16,18.833V0C16,0,9.761,0.017,8.676,5.018
			z"/>
		<g>
			<g>
				<path fill="#FFF3D9" d="M4.75,13.875L4.75,13.875c-0.145-0.533,0.17-1.082,0.703-1.227l2.445-0.664
					c0.533-0.145,1.082,0.17,1.227,0.703l0,0c0.145,0.533-0.17,1.082-0.703,1.227l-2.445,0.664
					C5.444,14.723,4.895,14.408,4.75,13.875z"/>
			</g>
			<g>
				<path fill="#FFF3D9" d="M4.75,13.875L4.75,13.875c-0.145-0.533,0.17-1.082,0.703-1.227l2.445-0.664
					c0.533-0.145,1.082,0.17,1.227,0.703l0,0c0.145,0.533-0.17,1.082-0.703,1.227l-2.445,0.664
					C5.444,14.723,4.895,14.408,4.75,13.875z"/>
			</g>
		</g>
		<path fill="#CFAB81" d="M11.274,13.018l-0.643,0.179c-0.216,0.061-0.444,0.048-0.623-0.036c-0.028-0.013-0.065-0.041-0.101-0.066
			l1.792-0.499c0.399-0.111,0.633-0.525,0.521-0.924c-0.111-0.399-0.522-0.634-0.924-0.521L9.505,11.65
			c0.018-0.04,0.035-0.083,0.052-0.109c0.109-0.164,0.298-0.292,0.515-0.353l0.643-0.179c0.399-0.111,0.633-0.525,0.521-0.924
			c-0.111-0.398-0.523-0.631-0.924-0.521L9.67,9.743C9.105,9.9,8.623,10.242,8.312,10.705c-0.331,0.492-0.435,1.085-0.283,1.628
			l0.263,0.941c0.151,0.542,0.546,0.997,1.084,1.247c0.306,0.142,0.642,0.214,0.983,0.214c0.225,0,0.451-0.031,0.675-0.093
			l0.643-0.179c0.398-0.111,0.633-0.524,0.521-0.924C12.086,13.141,11.676,12.908,11.274,13.018z"/>
		<path fill="#B38658" d="M6,32h6.714c0,0,0.815-0.742-0.309-2.198S6,28.757,6,32z"/>
		<path fill="#373F3F" d="M14.806,6.678l-1.419-1.095c-0.048-0.037-0.102-0.065-0.16-0.082l-1.585-0.478
			c-0.357-0.108-0.701,0.2-0.633,0.567l0.29,1.574c0.044,0.236,0.249,0.407,0.489,0.407h2.714
			C14.976,7.569,15.181,6.968,14.806,6.678z"/>
		<path fill="#FFFFFF" d="M13.387,5.582c-0.048-0.037-0.102-0.065-0.16-0.082l-1.067-0.322c-0.059,0.17-0.097,0.355-0.097,0.555
			c0,0.735,0.447,1.331,0.999,1.331c0.464,0,0.836-0.43,0.949-1.002L13.387,5.582z"/>
		<path fill="#373F3F" d="M13.387,5.582c-0.048-0.037-0.102-0.065-0.16-0.082l-0.668-0.201c-0.113,0.119-0.185,0.278-0.185,0.455
			c0,0.368,0.298,0.666,0.666,0.666c0.345,0,0.619-0.265,0.653-0.601L13.387,5.582z"/>
		<path fill="#DADDDC" d="M25.646,31c0,0,2.25,0,2.25,1h-2.25V31z"/>
		<g>
			<g>
				<path fill="#FDEBBB" d="M21.802,18.911c0.371,1.126,0.663,2.48,0.878,4.066l-3.24,1.048c-0.201-1.745-0.469-2.986-0.741-3.871
					L21.802,18.911z"/>
			</g>
			<g>
				<path fill="#FDEBBB" d="M21.802,18.911c0.371,1.126,0.663,2.48,0.878,4.066l-3.24,1.048c-0.201-1.745-0.469-2.986-0.741-3.871
					L21.802,18.911z"/>
			</g>
		</g>
		<g>
			<path fill="#F7D684" d="M23.129,30.935h-3.352c0-1.324-0.031-2.496-0.08-3.564l3.334-0.396
				C23.093,28.203,23.129,29.514,23.129,30.935z"/>
			<path fill="#FAE09F" d="M22.68,22.978c0.162,1.197,0.276,2.536,0.351,3.998l-3.334,0.396c-0.059-1.274-0.146-2.392-0.256-3.346
				L22.68,22.978z"/>
		</g>
		<path fill="#B38658" d="M23.5,5c-0.06,0-0.117,0.014-0.176,0.018C22.239,0.017,16,0,16,0v18.833l1.245,2.733
			c0.236,0.41,0.819,0.531,1.227,0.254l3.779-2.566c0.295-0.2,0.409-0.555,0.28-0.869l-0.962-2.335
			c-0.46-1.117-0.472-2.345-0.022-3.465c0.393-0.978,0.901-1.748,1.302-2.683C23.058,9.96,23.273,10,23.5,10
			c1.381,0,2.5-1.119,2.5-2.5C26,6.119,24.881,5,23.5,5z"/>
		<g>
			<g>
				<path fill="#FDEBBB" d="M27.25,13.875L27.25,13.875c0.145-0.533-0.17-1.082-0.703-1.227l-2.445-0.664
					c-0.533-0.145-1.082,0.17-1.227,0.703v0c-0.145,0.533,0.17,1.082,0.703,1.227l2.445,0.664
					C26.556,14.723,27.105,14.408,27.25,13.875z"/>
			</g>
			<g>
				<path fill="#FDEBBB" d="M27.25,13.875L27.25,13.875c0.145-0.533-0.17-1.082-0.703-1.227l-2.445-0.664
					c-0.533-0.145-1.082,0.17-1.227,0.703v0c-0.145,0.533,0.17,1.082,0.703,1.227l2.445,0.664
					C26.556,14.723,27.105,14.408,27.25,13.875z"/>
			</g>
		</g>
		<path fill="#CDA073" d="M23.687,10.705c-0.311-0.463-0.793-0.805-1.357-0.962l-0.643-0.179c-0.4-0.11-0.812,0.123-0.924,0.521
			c-0.111,0.399,0.122,0.813,0.521,0.924l0.643,0.179c0.217,0.061,0.405,0.189,0.515,0.353c0.017,0.025,0.035,0.069,0.052,0.109
			l-1.793-0.499c-0.401-0.112-0.812,0.122-0.924,0.521c-0.111,0.399,0.122,0.812,0.521,0.924l1.792,0.499
			c-0.036,0.025-0.073,0.053-0.101,0.066c-0.179,0.083-0.407,0.097-0.623,0.036l-0.643-0.179c-0.401-0.11-0.812,0.123-0.924,0.521
			c-0.111,0.399,0.123,0.813,0.521,0.924l0.643,0.179c0.224,0.062,0.45,0.093,0.675,0.093c0.342,0,0.678-0.072,0.983-0.214
			c0.538-0.25,0.933-0.705,1.084-1.247l0.263-0.941C24.122,11.79,24.019,11.197,23.687,10.705z"/>
		<path fill="#B38658" d="M26,32h-6.714c0,0-0.815-0.742,0.309-2.198C20.719,28.345,26,28.757,26,32z"/>
		<path fill="#2B3332" d="M17.194,6.678l1.419-1.095c0.048-0.037,0.102-0.065,0.16-0.082l1.585-0.478
			c0.357-0.108,0.701,0.2,0.633,0.567l-0.29,1.574c-0.044,0.236-0.249,0.407-0.489,0.407h-2.714
			C17.024,7.569,16.819,6.968,17.194,6.678z"/>
		<path fill="#F7F7F7" d="M18.613,5.582c0.048-0.037,0.102-0.065,0.16-0.082l1.067-0.322c0.059,0.17,0.097,0.355,0.097,0.555
			c0,0.735-0.447,1.331-0.999,1.331c-0.464,0-0.836-0.43-0.949-1.002L18.613,5.582z"/>
		<path fill="#2B3332" d="M18.613,5.582c0.048-0.037,0.102-0.065,0.16-0.082l0.668-0.201c0.113,0.119,0.185,0.278,0.185,0.455
			c0,0.368-0.298,0.666-0.666,0.666c-0.345,0-0.619-0.265-0.653-0.601L18.613,5.582z"/>
	</g>
</g>
<g id="labels">
</g>
</svg>
