<?xml version="1.0" encoding="utf-8"?>
<!-- Generator: Adobe Illustrator 23.0.6, SVG Export Plug-In . SVG Version: 6.00 Build 0)  -->
<svg version="1.1" xmlns="http://www.w3.org/2000/svg" xmlns:xlink="http://www.w3.org/1999/xlink" x="0px" y="0px" width="32px"
	 height="32px" viewBox="0 0 32 32" enable-background="new 0 0 32 32" xml:space="preserve">
<g id="icons">
	<g>
		<path fill="#9ACC2E" d="M26.362,23c0.14,0,0.281-0.029,0.414-0.09c0.395-0.179,0.629-0.592,0.579-1.023l-0.906-7.969l-1.986,0.226
			l0.558,4.904l-1.545-1.691l-1.477,1.349l3.625,3.969C25.817,22.886,26.088,23,26.362,23z"/>
		<path fill="#93C427" d="M20.5,31L20.5,31c0.828,0,1.5-0.672,1.5-1.5v-2.813c0-0.179-0.032-0.357-0.095-0.525L20.68,22.88
			c-0.29-0.776-1.154-1.17-1.93-0.881l0,0c-0.776,0.29-1.171,1.154-0.881,1.93l1.036,2.775C18.968,26.872,19,27.05,19,27.229V29.5
			C19,30.328,19.672,31,20.5,31z"/>
		<path fill="#C6B7E9" d="M20,19l1.726,4.314C21.857,23.643,21.615,24,21.261,24H16v-5H20z"/>
		<path fill="#D4C9EF" d="M16,13.5V19h4l1.968-4.486c0.106-0.301-0.064-0.635-0.347-0.681l-5.117-0.828
			C16.238,12.962,16,13.196,16,13.5z"/>
		<path fill="#93C427" d="M20.499,11.111l7.44,1.653c0.417,0.093,0.533,0.632,0.192,0.888L25.133,15.9
			c-0.087,0.065-0.192,0.1-0.3,0.1H20l-0.1-4.499C19.955,11.226,20.225,11.05,20.499,11.111z"/>
		<path fill="#2B3332" d="M16,20h4c0.552,0,1-0.448,1-1v0c0-0.552-0.448-1-1-1h-4V20z"/>
		<path fill="#C6B7E9" d="M18.999,29.245c0,0-0.999,0.398-0.999,1.326s0.875,1.424,0.875,1.424L24.125,32
			c0,0,0.875-0.25,0.875-1.214c0-1.041-1.304-1.362-1.959-1.25c-0.627,0.107-1.042-0.235-1.042-0.235S20.043,30.066,18.999,29.245z"
			/>
		<path fill="#4295AC" d="M22.937,14.452c0.768,0.556,1.092,1.397,1.019,2.211c-0.042,0.466,0.056,0.932,0.355,1.288l0.07,0.083
			c0.351,0.418,0.292,1.044-0.131,1.399l-0.341,0.286c-0.423,0.355-1.05,0.305-1.401-0.113l-0.072-0.086
			c-0.295-0.351-0.728-0.532-1.188-0.568c-0.631-0.049-1.239-0.336-1.676-0.856c-1.015-1.209-0.659-3.117,0.895-3.863
			C21.259,13.854,22.233,13.943,22.937,14.452z"/>
		<path fill="#A2D336" d="M5.638,23c-0.14,0-0.281-0.029-0.414-0.09c-0.395-0.179-0.629-0.592-0.579-1.023l0.906-7.969l1.986,0.226
			L6.98,19.048l1.545-1.691l1.477,1.349l-3.625,3.969C6.183,22.886,5.912,23,5.638,23z"/>
		<path fill="#9ACC2E" d="M11.5,31L11.5,31c-0.828,0-1.5-0.672-1.5-1.5v-2.813c0-0.179,0.032-0.357,0.095-0.525l1.225-3.282
			c0.29-0.776,1.154-1.17,1.93-0.881l0,0c0.776,0.29,1.171,1.154,0.881,1.93l-1.036,2.775C13.032,26.872,13,27.05,13,27.229V29.5
			C13,30.328,12.328,31,11.5,31z"/>
		<path fill="#D4C9EF" d="M12,19l-1.726,4.314C10.143,23.643,10.385,24,10.739,24H16v-5H12z"/>
		<path fill="#E3DBF4" d="M16,13.5V19h-4l-1.968-4.486c-0.106-0.301,0.064-0.635,0.347-0.681l5.117-0.828
			C15.762,12.962,16,13.196,16,13.5z"/>
		<path fill="#9ACC2E" d="M11.501,11.111l-7.44,1.653c-0.417,0.093-0.533,0.632-0.192,0.888L6.867,15.9
			c0.087,0.065,0.192,0.1,0.3,0.1H12l0.1-4.499C12.045,11.226,11.775,11.05,11.501,11.111z"/>
		<path fill="#AADB3D" d="M16,0v15l-1.496-0.002c-0.309,0-0.61-0.091-0.855-0.26l-2.804-1.93c-0.294-0.202-0.486-0.5-0.533-0.829
			l-1.31-8.994C8.991,2.913,9.04,2.844,9.119,2.822l1.169-0.326c0.06-0.017,0.126-0.002,0.171,0.037l1.033,0.922
			c0.108,0.096,0.293,0.026,0.29-0.11l-0.033-1.516c-0.001-0.063,0.041-0.121,0.107-0.144l1.171-0.412
			c0.091-0.032,0.192,0.011,0.223,0.093L14,4.896c0.061,0.162,0.329,0.124,0.331-0.047l0.309-4.493
			c0.001-0.07,0.055-0.131,0.132-0.147L16,0z"/>
		<path fill="#A2D336" d="M16,0v15l1.496-0.002c0.309,0,0.61-0.091,0.855-0.26l2.804-1.93c0.294-0.202,0.486-0.5,0.533-0.829
			l1.31-8.994c0.011-0.073-0.039-0.142-0.118-0.164l-1.169-0.326c-0.06-0.017-0.126-0.002-0.171,0.037l-1.033,0.922
			c-0.108,0.096-0.293,0.026-0.29-0.11l0.033-1.516c0.001-0.063-0.041-0.121-0.107-0.144l-1.171-0.412
			c-0.091-0.032-0.192,0.011-0.223,0.093L18,4.896c-0.061,0.162-0.329,0.124-0.331-0.047l-0.309-4.493
			c-0.001-0.07-0.055-0.131-0.132-0.147L16,0z"/>
		<g>
			<path fill="#FFFFFF" d="M13.261,9.874L12.879,9.53c-0.291-0.263-0.759-0.102-0.828,0.284c-0.121,0.672,0.001,1.141,0.108,1.396
				c0.058,0.138,0.173,0.242,0.317,0.286l0.621,0.188C13.037,11.469,13,11.241,13,11C13,10.582,13.097,10.195,13.261,9.874z"/>
			<path fill="#373F3F" d="M14.591,11.075l-1.33-1.201C13.097,10.195,13,10.582,13,11c0,0.241,0.037,0.47,0.096,0.684l1.015,0.308
				c0.321,0.097,0.645-0.143,0.645-0.478v-0.067C14.756,11.305,14.696,11.17,14.591,11.075z"/>
		</g>
		<g>
			<path fill="#F7F7F7" d="M18.739,9.874l0.382-0.345c0.291-0.263,0.759-0.102,0.828,0.284c0.121,0.672-0.001,1.141-0.108,1.396
				c-0.058,0.138-0.173,0.242-0.317,0.286l-0.621,0.188C18.963,11.469,19,11.241,19,11C19,10.582,18.903,10.195,18.739,9.874z"/>
			<path fill="#2B3332" d="M17.409,11.075l1.33-1.201C18.903,10.195,19,10.582,19,11c0,0.241-0.037,0.47-0.096,0.684l-1.015,0.308
				c-0.321,0.097-0.645-0.143-0.645-0.478v-0.067C17.244,11.305,17.304,11.17,17.409,11.075z"/>
		</g>
		<path fill="#373F3F" d="M16,20h-4c-0.552,0-1-0.448-1-1v0c0-0.552,0.448-1,1-1h4V20z"/>
		<path fill="#D4C9EF" d="M13.001,29.245c0,0,0.999,0.398,0.999,1.326s-0.875,1.424-0.875,1.424L7.875,32C7.875,32,7,31.75,7,30.785
			c0-1.041,1.304-1.362,1.959-1.25c0.627,0.107,1.042-0.235,1.042-0.235S11.957,30.066,13.001,29.245z"/>
		<path fill="#47A1B4" d="M9.063,14.452c-0.768,0.556-1.092,1.397-1.019,2.211c0.042,0.466-0.056,0.932-0.355,1.288l-0.07,0.083
			c-0.351,0.418-0.292,1.044,0.131,1.399l0.341,0.286c0.423,0.355,1.05,0.305,1.401-0.113l0.072-0.086
			c0.295-0.351,0.728-0.532,1.188-0.568c0.631-0.049,1.239-0.336,1.676-0.856c1.015-1.209,0.659-3.117-0.895-3.863
			C10.741,13.854,9.767,13.943,9.063,14.452z"/>
	</g>
</g>
<g id="labels">
</g>
</svg>
