<?xml version="1.0" encoding="utf-8"?>
<!-- Generator: Adobe Illustrator 23.0.6, SVG Export Plug-In . SVG Version: 6.00 Build 0)  -->
<svg version="1.1" xmlns="http://www.w3.org/2000/svg" xmlns:xlink="http://www.w3.org/1999/xlink" x="0px" y="0px" width="32px"
	 height="32px" viewBox="0 0 32 32" enable-background="new 0 0 32 32" xml:space="preserve">
<g id="icons">
	<g>
		<g>
			<path fill="none" d="M19.036,25.823l-3.03,1.118L16,26.94l-3.036-1.12c-0.045-0.236-0.169-0.443-0.343-0.59
				c-0.272-0.056-0.539-0.122-0.805-0.192C11.354,25.127,11,25.513,11,26c0,0.552,0.448,1,1,1c0.272,0,0.516-0.11,0.697-0.286
				l2.218,0.63l-2.101,0.775C12.727,28.048,12.62,28,12.5,28c-0.276,0-0.5,0.224-0.5,0.5c0,0.276,0.224,0.5,0.5,0.5
				c0.274,0,0.494-0.22,0.499-0.493L16,27.655l0.005-0.001l2.996,0.85C19.003,28.778,19.225,29,19.5,29c0.276,0,0.5-0.224,0.5-0.5
				c0-0.276-0.224-0.5-0.5-0.5c-0.119,0-0.224,0.047-0.309,0.117l-2.095-0.773l2.211-0.628C19.487,26.89,19.73,27,20,27
				c0.552,0,1-0.448,1-1c0-0.487-0.354-0.873-0.815-0.963c-0.266,0.069-0.533,0.135-0.804,0.191
				C19.205,25.377,19.08,25.585,19.036,25.823z"/>
			<path fill="#A5D1D8" d="M12.964,25.819L16,26.94V26c-0.875,0-1.628-0.214-2.161-0.573c-0.411-0.053-0.819-0.115-1.219-0.198
				C12.795,25.377,12.919,25.583,12.964,25.819z"/>
			<path fill="#A5D1D8" d="M12.999,28.507C12.994,28.78,12.774,29,12.5,29c-0.276,0-0.5-0.224-0.5-0.5c0-0.276,0.224-0.5,0.5-0.5
				c0.12,0,0.227,0.048,0.313,0.119l2.101-0.775l-2.218-0.63C12.516,26.89,12.272,27,12,27c-0.552,0-1-0.448-1-1
				c0-0.487,0.354-0.873,0.815-0.963c-5.066-1.32-9.077-4.963-10.592-9.617C1.086,15.594,1,15.805,1,16.035v1.764
				c0,0.379,0.214,0.725,0.553,0.894l1.7,0.85c0.327,1.649,0.97,3.183,1.857,4.543L4.528,25.83c-0.12,0.359-0.026,0.756,0.242,1.023
				L6.017,28.1c0.268,0.268,0.664,0.361,1.023,0.242l1.69-0.563C10.805,29.181,13.307,30,16,30v-2.345L12.999,28.507z"/>
			<path fill="#99C7CE" d="M20.185,25.037C20.646,25.127,21,25.513,21,26c0,0.552-0.448,1-1,1c-0.27,0-0.513-0.11-0.693-0.284
				l-2.211,0.628l2.095,0.773C19.276,28.047,19.381,28,19.5,28c0.276,0,0.5,0.224,0.5,0.5c0,0.276-0.224,0.5-0.5,0.5
				c-0.275,0-0.497-0.222-0.499-0.496l-2.996-0.85L16,27.655V30c2.709,0,5.223-0.83,7.305-2.247l1.768,0.589
				c0.359,0.12,0.755,0.026,1.023-0.242l1.247-1.247c0.268-0.268,0.361-0.664,0.242-1.023l-0.621-1.863
				c0.848-1.331,1.466-2.821,1.784-4.423l1.7-0.85C30.786,18.524,31,18.177,31,17.799v-1.764c0-0.229-0.086-0.441-0.223-0.615
				C29.262,20.075,25.251,23.717,20.185,25.037z"/>
			<path fill="#99C7CE" d="M16,26.94l0.005,0.002l3.03-1.118c0.044-0.238,0.169-0.446,0.345-0.594
				c-0.4,0.083-0.808,0.145-1.22,0.198C17.628,25.786,16.875,26,16,26V26.94z"/>
			<path fill="#F7F7F7" d="M12,25c-0.066,0-0.123,0.025-0.185,0.037c0.266,0.069,0.534,0.135,0.805,0.192
				C12.453,25.087,12.239,25,12,25z"/>
			<path fill="#F7F7F7" d="M19.381,25.229c0.271-0.056,0.539-0.122,0.804-0.191C20.123,25.025,20.066,25,20,25
				C19.761,25,19.548,25.088,19.381,25.229z"/>
			<path fill="#ACD7DD" d="M11.815,25.037C11.877,25.025,11.934,25,12,25c0.239,0,0.453,0.087,0.62,0.229
				c0.4,0.083,0.808,0.145,1.219,0.198C13.312,25.073,13,24.576,13,24c0-1.159,1.262-2,3-2v-2c-3.798,0-5.618-1.272-6.425-2.159
				C9.28,17.517,9.506,17,9.944,17H16V5V4V2h-0.882c-0.379,0-0.725,0.214-0.894,0.553l-0.858,1.715
				c-1.74,0.358-3.347,1.071-4.757,2.048L7.178,5.839c-0.359-0.12-0.755-0.026-1.023,0.242L4.908,7.328
				C4.64,7.596,4.546,7.992,4.666,8.351l0.495,1.484c-0.879,1.327-1.517,2.823-1.861,4.431L1.553,15.14
				c-0.134,0.067-0.241,0.167-0.33,0.28C2.738,20.075,6.749,23.717,11.815,25.037z"/>
			<path fill="#A5D1D8" d="M30.447,15.14L28.7,14.267c-0.31-1.447-0.858-2.804-1.607-4.028l0.629-1.887
				c0.12-0.359,0.026-0.755-0.242-1.023l-1.247-1.247c-0.268-0.268-0.664-0.361-1.023-0.242l-1.69,0.563
				c-1.44-1.024-3.094-1.766-4.886-2.135l-0.857-1.715C17.607,2.214,17.261,2,16.882,2H16v2v1v12h6.056
				c0.438,0,0.664,0.517,0.369,0.841C21.618,18.728,19.798,20,16,20v2c1.738,0,3,0.841,3,2c0,0.576-0.313,1.073-0.839,1.427
				c0.411-0.054,0.819-0.115,1.22-0.198C19.548,25.088,19.761,25,20,25c0.066,0,0.123,0.025,0.185,0.037
				c5.066-1.32,9.077-4.963,10.592-9.617C30.688,15.307,30.581,15.207,30.447,15.14z"/>
		</g>
		<path fill="#ACD7DD" d="M14,24c0,0.552,0.895,1,2,1v-2C14.895,23,14,23.448,14,24z"/>
		<path fill="#FF805D" d="M16,20v-3H9.944c-0.438,0-0.664,0.517-0.369,0.841C10.382,18.728,12.202,20,16,20z"/>
		<path fill="#A5D1D8" d="M18,24c0-0.552-0.895-1-2-1v2C17.105,25,18,24.552,18,24z"/>
		<path fill="#F57552" d="M22.056,17H16v3c3.798,0,5.618-1.272,6.425-2.159C22.72,17.517,22.494,17,22.056,17z"/>
		<g>
			<g>
				<path fill="#FFFFFF" d="M13,24c0,1.159,1.262,2,3,2v-1c-1.105,0-2-0.448-2-1c0-0.552,0.895-1,2-1v-1C14.262,22,13,22.841,13,24z
					"/>
				<path fill="#F7F7F7" d="M18,24c0,0.552-0.895,1-2,1v1c1.738,0,3-0.841,3-2s-1.262-2-3-2v1C17.105,23,18,23.448,18,24z"/>
			</g>
			<g>
				<path fill="#FFFFFF" d="M12,25c-0.552,0-1,0.448-1,1c0,0.552,0.448,1,1,1c0.272,0,0.516-0.11,0.697-0.286l2.218,0.63
					l-2.101,0.775C12.727,28.048,12.62,28,12.5,28c-0.276,0-0.5,0.224-0.5,0.5c0,0.276,0.224,0.5,0.5,0.5
					c0.274,0,0.494-0.22,0.499-0.493L16,27.655V26.94l-3.036-1.12C12.876,25.357,12.488,25,12,25z"/>
				<path fill="#F7F7F7" d="M16.005,27.654l2.996,0.85C19.003,28.778,19.225,29,19.5,29c0.276,0,0.5-0.224,0.5-0.5
					c0-0.276-0.224-0.5-0.5-0.5c-0.119,0-0.224,0.047-0.309,0.117l-2.095-0.773l2.211-0.628C19.487,26.89,19.73,27,20,27
					c0.552,0,1-0.448,1-1c0-0.552-0.448-1-1-1c-0.49,0-0.878,0.359-0.964,0.823l-3.03,1.118L16,26.94v0.716L16.005,27.654z"/>
			</g>
		</g>
		<path fill="#FFFFFF" d="M14,15l-6-0.002c0,0,0.001-2.999,3.001-2.998S14,15,14,15z"/>
		<ellipse fill="#373F3F" cx="11.5" cy="13.25" rx="0.5" ry="0.75"/>
		<path fill="#F7F7F7" d="M19,17l0.823,0.823c0.098,0.098,0.256,0.098,0.354,0L21,17H19z"/>
		<path fill="#F7F7F7" d="M24,15l-6-0.002c0,0,0.001-2.999,3.001-2.998S24,15,24,15z"/>
		<path fill="#FFFFFF" d="M11,17l0.823,0.823c0.098,0.098,0.256,0.098,0.354,0L13,17H11z"/>
		<ellipse fill="#2B3332" cx="20.5" cy="13.25" rx="0.5" ry="0.75"/>
		<path fill="#9179C6" d="M30,1c-0.375,0-0.721,0.11-1.021,0.289C28.875,0.561,28.256,0,27.5,0C26.672,0,26,0.672,26,1.5
			c0,0.693,0.472,1.27,1.11,1.442C27.04,3.115,27,3.302,27,3.5C27,4.328,27.672,5,28.5,5c0.25,0,0.482-0.067,0.689-0.175
			C29.437,4.936,29.711,5,30,5c1.105,0,2-0.895,2-2C32,1.895,31.105,1,30,1z"/>
		<path fill="#9D85D3" d="M4,27.5C4,26.672,3.328,26,2.5,26S1,26.672,1,27.5c0,0.248,0.066,0.478,0.172,0.684
			C0.482,28.499,0,29.192,0,30c0,1.105,0.895,2,2,2s2-0.895,2-2c0-0.526-0.207-1-0.539-1.357C3.788,28.368,4,27.961,4,27.5z"/>
	</g>
</g>
<g id="labels">
</g>
</svg>
