<svg xmlns="http://www.w3.org/2000/svg" viewBox="0 0 32 32"><title>110-weezing-galar-shinyv</title><path d="M4.3301,15.93029a1.28256,1.28256,0,1,0-.00566-2.56511c-.011,0-.02109.003-.032.00328a1.60309,1.60309,0,1,0-1.567,1.92409,1.58573,1.58573,0,0,0,.45794-.07549A1.27837,1.27837,0,0,0,4.3301,15.93029Z" style="fill:#e6f490"/><path d="M30.30149,26.13457a1.35971,1.35971,0,0,0-.701.19833,1.0273,1.0273,0,1,0-1.28293,1.13487,1.02321,1.02321,0,0,0,1.42718,1.29244,1.372,1.372,0,1,0,.55675-2.62564Z" style="fill:#cbeb6b"/><path d="M23.25854,27.70462l.69547-6.39921L21.62568,21.203l-.27535,6.24217a2.31555,2.31555,0,0,0-.66608.31228L13.79734,23.895,12.6582,25.9268l7.04163,3.57772c-.00389.05489-.01645.10727-.01645.16315a2.32985,2.32985,0,1,0,3.57516-1.96305Z" style="fill:#604631"/><path d="M19.19061,17.43066c.00056.022-.01242.04143-.00961.06351l.09046.71108A4.65528,4.65528,0,0,0,22.78981,25.914V17.43066Z" style="fill:#845331"/><path d="M25.99983,25.2666a.66425.66425,0,0,0,.67375-.18458l.34589-.37138a.66443.66443,0,0,0,.13623-.68518l-.233-.624a4.62158,4.62158,0,0,0,.44021-3.03336l.41116-.49544a.66447.66447,0,0,0,.09684-.69186l-.20444-.46453a.66435.66435,0,0,0-.57545-.396l-.71011-.03494a4.65688,4.65688,0,0,0-2.51661-1.56119l-.34327-.673a.66442.66442,0,0,0-.59716-.36248l-.134.00109V25.914a4.63584,4.63584,0,0,0,2.63364-.817Z" style="fill:#724d31"/><path d="M11.91721,22.67812V17.00643H6.68186l.0826.64895a7.73865,7.73865,0,0,0-2.61337,5.79933c0,.08684.0101.17118.013.25728l-.5014.39179a.77659.77659,0,0,0-.28286.7661l.11766.58144a.77684.77684,0,0,0,.55861.59567l.60777.1642a7.7283,7.7283,0,0,0,.92557,1.73535l-.20432.62249a.77659.77659,0,0,0,.19122.79393l.42142.41749a.77636.77636,0,0,0,.79555.184l.60265-.204a7.73565,7.73565,0,0,0,1.73017.93505l.175.62486a.77665.77665,0,0,0,.60065.55312l.58257.11242a.77676.77676,0,0,0,.76336-.29l.37588-.48986c.09826.00362.19452.01472.29365.01472V24.23129c-3.30817,0-4.15.58594-4.15837.59193a.72354.72354,0,0,1-.51644.217.7904.7904,0,0,1-.55748-.23819.803.803,0,0,1,.02352-1.11972C6.94357,23.44672,8.01593,22.67812,11.91721,22.67812Z" style="fill:#96643b"/><path d="M6.68494,24.80207a.79011.79011,0,0,0,.55743.23815.724.724,0,0,0,.51648-.21691c.00834-.00607.85018-.59194,4.15838-.59194V22.67814c-3.90128,0-4.97367.76865-5.20878,1.00414A.803.803,0,0,0,6.68494,24.80207Z" style="fill:#f57552"/><path d="M17.07,17.65538l.0826-.64895H11.91721v5.67169c3.90128,0,4.97371.7686,5.20878,1.00417a.77654.77654,0,0,1-1.09738,1.099v.001c-.01516,0-.90329-.551-4.1114-.551v6.98954a7.775,7.775,0,0,0,1.70209-.1929l.46647.399a.777.777,0,0,0,.80691.12527l.54656-.23083a.77666.77666,0,0,0,.473-.66579l.03668-.57246A7.746,7.746,0,0,0,17.07,17.65538Z" style="fill:#8d5b36"/><path d="M16.02859,24.78236v-.00114A.77653.77653,0,0,0,17.126,23.68228c-.23511-.23549-1.3075-1.00414-5.20878-1.00414v1.55323C15.12532,24.23137,16.01342,24.78236,16.02859,24.78236Z" style="fill:#eb6b48"/><path d="M9.58739,26.89405c0,.64286.97982,1.10945,2.32984,1.10945v-.55473c-.85781,0-1.55323-.24838-1.55323-.55472s.69542-.55473,1.55323-.55473V25.7846C10.56721,25.7846,9.58739,26.25119,9.58739,26.89405Z" style="fill:#f7d684"/><path d="M8.81077,27.44877c-.42893,0-.77661.24835-.77661.55473s.34768.55472.77661.55472a.95225.95225,0,0,0,.54094-.15852l1.7224.34928L9.44224,29.179a.47819.47819,0,0,0-.24316-.06609c-.21444,0-.38831.12416-.38831.27736s.17387.27736.38831.27736c.2125,0,.384-.12212.38717-.2734l2.331-.47268v-.39692L9.559,27.90318A.73544.73544,0,0,0,8.81077,27.44877Z" style="fill:#f7d684"/><path d="M13.47046,26.89405c0,.30634-.69542.55472-1.55323.55472v.55473c1.35,0,2.32985-.46659,2.32985-1.10945s-.97983-1.10945-2.32985-1.10945v.55472C12.775,26.33932,13.47046,26.58767,13.47046,26.89405Z" style="fill:#f0c877"/><path d="M11.92126,28.92077l2.32643.47178c.0018.15212.17434.27512.38769.27512.21445,0,.38831-.12419.38831-.27736s-.17386-.27736-.38831-.27736a.47856.47856,0,0,0-.24032.06473l-1.6267-.4287,1.71676-.34816a.952.952,0,0,0,.53857.1574c.42893,0,.77662-.24838.77662-.55472s-.34769-.55473-.77662-.55473a.73419.73419,0,0,0-.74893.45668l-2.3535.62027-.004-.001v.39692Z" style="fill:#f0c877"/><path d="M21.04246,24.23137c0,.45.73487.77661,1.74738.77661v-.3883c-.64336,0-1.16492-.17387-1.16492-.38831s.52156-.38831,1.16492-.38831v-.38831C21.77733,23.45475,21.04246,23.78137,21.04246,24.23137Z" style="fill:#f0c877"/><path d="M23.95477,24.23137c0,.21444-.52157.38831-1.16493.38831v.3883c1.01252,0,1.74739-.32661,1.74739-.77661s-.73487-.77662-1.74739-.77662v.38831C23.4332,23.84306,23.95477,24.0169,23.95477,24.23137Z" style="fill:#e8ba67"/><path d="M17.18383,21.084,13.44005,19.9649c-.06386-.01909-.2496.01795-.27469.10188-.38222,1.27869.56094,1.54333,1.71852,1.88934s2.05972.74784,2.47346-.63631C17.38243,21.23588,17.24768,21.103,17.18383,21.084Z" style="fill:#f7f7f7"/><path d="M17.18383,21.084,13.44005,19.9649c-.06386-.01909-.2496.01795-.27469.10188-.38222,1.27869.56094,1.54333,1.71852,1.88934s2.05972.74784,2.47346-.63631C17.38243,21.23588,17.24768,21.103,17.18383,21.084Z" style="fill:#f7f7f7"/><path d="M15.13433,21.11822a.87021.87021,0,0,0,.97071-.35673l-1.58641-.47419A.87019.87019,0,0,0,15.13433,21.11822Z" style="fill:#2b3332"/><path d="M15.13433,21.11822a.87021.87021,0,0,0,.97071-.35673l-1.58641-.47419A.87019.87019,0,0,0,15.13433,21.11822Z" style="fill:#2b3332"/><path d="M6.65751,21.084,10.4013,19.9649c.06385-.01909.2496.01795.27468.10188.38222,1.27869-.56094,1.54333-1.71852,1.88934S6.89774,22.704,6.484,21.31981C6.45891,21.23588,6.59366,21.103,6.65751,21.084Z" style="fill:#fff"/><path d="M6.65751,21.084,10.4013,19.9649c.06385-.01909.2496.01795.27468.10188.38222,1.27869-.56094,1.54333-1.71852,1.88934S6.89774,22.704,6.484,21.31981C6.45891,21.23588,6.59366,21.103,6.65751,21.084Z" style="fill:#fff"/><path d="M8.707,21.11822a.87021.87021,0,0,1-.97071-.35673l1.58641-.47419A.87019.87019,0,0,1,8.707,21.11822Z" style="fill:#373f3f"/><path d="M8.707,21.11822a.87021.87021,0,0,1-.97071-.35673l1.58641-.47419A.87019.87019,0,0,1,8.707,21.11822Z" style="fill:#373f3f"/><path d="M14.45564,24.38229a7.19507,7.19507,0,0,1,1.22308.261l-.47084-1.41256a.19415.19415,0,0,0-.36838,0Z" style="fill:#f7f7f7"/><path d="M8.15294,24.65158a6.89376,6.89376,0,0,1,1.22626-.2681L8.995,23.23071a.19415.19415,0,0,0-.36838,0Z" style="fill:#fff"/><path d="M25.8963,20.33607s-.36394,1.24593-1.41216.92068c-.83806-.26008-.66493-1.34575-.66493-1.34575Z" style="fill:#fff"/><circle cx="24.75985" cy="20.60563" r="0.38831" style="fill:#2b3332"/><path d="M19.68338,20.33607s.36395,1.24593,1.41217.92068c.838-.26008.66493-1.34575.66493-1.34575Z" style="fill:#fff"/><circle cx="20.81983" cy="20.60563" r="0.38831" style="fill:#2b3332"/><path d="M21.25482,22.20834l-.85625.28554a.19426.19426,0,1,0,.12286.36859l.85625-.28554a4.4619,4.4619,0,0,1,1.41217-.22809h0v-.38793A4.863,4.863,0,0,0,21.25482,22.20834Z" style="fill:#2b3332"/><path d="M25.1197,22.87233a.19261.19261,0,0,1-.06143-.00986l-.85625-.28554a4.4619,4.4619,0,0,0-1.41217-.22809h0a4.4619,4.4619,0,0,1,1.41217.22809l.85625.28554a.19261.19261,0,0,0,.06143.00986.1949.1949,0,0,0,.1843-.13272h0A.1949.1949,0,0,1,25.1197,22.87233Z" style="fill:#2b3332"/><path d="M25.05827,22.86247a.19261.19261,0,0,0,.06143.00986.1942.1942,0,0,0,.06143-.37845l-.85625-.28554a4.863,4.863,0,0,0-1.535-.24743v.38793a4.4619,4.4619,0,0,1,1.41217.22809Z" style="fill:#2b3332"/><path d="M21.25482,22.20834l-.85625.28554a.19426.19426,0,1,0,.12286.36859l.85625-.28554a4.4619,4.4619,0,0,1,1.41217-.22809h0v-.38793A4.863,4.863,0,0,0,21.25482,22.20834Z" style="fill:#2b3332"/><path d="M25.1197,22.87233a.19261.19261,0,0,1-.06143-.00986l-.85625-.28554a4.4619,4.4619,0,0,0-1.41217-.22809h0a4.4619,4.4619,0,0,1,1.41217.22809l.85625.28554a.19261.19261,0,0,0,.06143.00986.1949.1949,0,0,0,.1843-.13272h0A.1949.1949,0,0,1,25.1197,22.87233Z" style="fill:#2b3332"/><path d="M25.05827,22.86247a.19261.19261,0,0,0,.06143.00986.1942.1942,0,0,0,.06143-.37845l-.85625-.28554a4.863,4.863,0,0,0-1.535-.24743v.38793a4.4619,4.4619,0,0,1,1.41217.22809Z" style="fill:#2b3332"/><path d="M10.83736,22.7a1.20866,1.20866,0,0,0-1.51465.06238A2.39572,2.39572,0,0,0,7.7363,22.9c-.91-.12476-1.66231.30887-1.66231.55478-.26772-.58-1.10406-1.3549-1.28148-.77661-.37456.97285,1.29618,2.58657,2.44987,2.36208,1.69482,0-2.40783-1.63419,4.67487-1.70359V22.33139C11.51084,22.29887,11.09158,22.6286,10.83736,22.7Z" style="fill:#d9f07d"/><path d="M12.99714,22.7a1.20866,1.20866,0,0,1,1.51465.06238A2.39575,2.39575,0,0,1,16.09821,22.9c.91-.12476,1.6623.30887,1.6623.55478.26772-.58,1.10407-1.3549,1.28149-.77661.37456.97285-1.29618,2.58657-2.44987,2.36208-1.69483,0,2.40782-1.63419-4.67488-1.70359V22.33139C12.32367,22.29887,12.74293,22.6286,12.99714,22.7Z" style="fill:#cbeb6b"/><path d="M21.999,19.91574l-2.44177.46984c-.18752.03491-.31888-.29626-.09146-.34118a.52607.52607,0,0,0,.44763-.03348c.09841-.25122.32583-.31815.688-.36138a1.142,1.142,0,0,1,.82534-.16448C21.98536,19.28564,22.29481,19.85415,21.999,19.91574Z" style="fill:#bee758"/><path d="M23.58065,19.91574l2.44177.46984c.18752.03491.31888-.29626.09146-.34118a.52607.52607,0,0,1-.44763-.03348c-.09841-.25122-.32584-.31815-.688-.36138a1.142,1.142,0,0,0-.82535-.16448C23.59432,19.28564,23.28488,19.85415,23.58065,19.91574Z" style="fill:#b1e346"/><path d="M22.78985,22.34884a4.4619,4.4619,0,0,0-1.41217.22809l-.85625.28554a.19426.19426,0,1,1-.12286-.36859l.85625-.28554a4.863,4.863,0,0,1,1.535-.24743l.01195.00094v-.256a.55577.55577,0,0,0-.37319.07461.53052.53052,0,0,0-.547.04313.53615.53615,0,0,0-.53582.08419c-.20629-.09812-.66286.00161-.70182.20771-.184.0164-.4943.13528-.44225.29512a.32626.32626,0,0,0-.07845.20268c-.127.25891.51748.68106,1.02552.52729-.017.26118.93062.44538,1.06036.00607a1.01937,1.01937,0,0,0,.59266.16818v-.96509Z" style="fill:#bee758"/><path d="M22.8018,22.34978v.96509a1.01936,1.01936,0,0,0,.59265-.16818c.12974.43931,1.07733.25511,1.06036-.00607.508.15377,1.15255-.26838,1.02552-.52729a.32626.32626,0,0,0-.07845-.20268c.05205-.15984-.25829-.27872-.44225-.29512-.039-.2061-.49553-.30583-.70182-.20771a.53615.53615,0,0,0-.53582-.08419.53052.53052,0,0,0-.547-.04313.55576.55576,0,0,0-.37318-.07461v.256l.01194-.00094a4.863,4.863,0,0,1,1.535.24743l.85625.28554a.19426.19426,0,1,1-.12286.36859l-.85625-.28554a4.4619,4.4619,0,0,0-1.41217-.22809Z" style="fill:#bee758"/><path d="M11.80716.91932a2.64282,2.64282,0,0,1-1.368.2881,1.51216,1.51216,0,0,0-.624.6719.91167.91167,0,0,1-.72911.37133c0,.616,1.41555.92406,2.8311.92406V.89524C11.88022.905,11.84434.90846,11.80716.91932Z" style="fill:#f7f7f7"/><path d="M30.83855,1.44736c-.22172-.33864-.76817-.61638-1.99194-.768a3.63535,3.63535,0,0,0-3.48809.12C25.672.73777,23.838.31254,22.78981.24741c-.70316-.18067-2.91875.90349-2.8709.648A3.85992,3.85992,0,0,0,17.087.24741a6.06068,6.06068,0,0,1-3.19189.67191,3.52206,3.52206,0,0,0-1.9779-.02408V3.17471c1.41555,0,2.8311-.30806,2.8311-.92406a1.53287,1.53287,0,0,1,1.45074-.27525l2.83191.71994c1.50782.12464,2.71538.01148,3.26388-.624a1.39141,1.39141,0,0,1,1.56-.216c1.41811.31418,3.862.68513,3.55186.39529C27.5471.76223,31.11985,1.78886,30.83855,1.44736Z" style="fill:#edeeee"/><path d="M17.55365,14.48c-1.22047,0-.4578,1.74869-2.80534,1.74869V2.25065a7.62,7.62,0,0,1-2.8311.34449V18.3444A30.87634,30.87634,0,0,0,17.07,17.8207C17.53069,17.88746,18.01431,14.54678,17.55365,14.48Z" style="fill:#9e6e43"/><path d="M6.28078,14.48c1.22046,0,.4578,1.74869,2.80533,1.74869V2.25065a7.62,7.62,0,0,0,2.8311.34449V18.3444a30.87624,30.87624,0,0,1-5.15281-.5237C6.30373,17.88746,5.82011,14.54678,6.28078,14.48Z" style="fill:#a7794c"/><path d="M22.7173,6.56116a1.78731,1.78731,0,0,1-.925.19482,1.02252,1.02252,0,0,0-.422.45435.61649.61649,0,0,1-.493.2511c0,.41656.95723.62488,1.91446.62488V6.54487C22.7667,6.55145,22.74244,6.55381,22.7173,6.56116Z" style="fill:#edeeee"/><path d="M31.881,6.48008a4.75592,4.75592,0,0,0-1.737-.37332c-.47545-.12216-1.97372.61089-1.94134.4382a2.61041,2.61041,0,0,0-1.915-.4382,4.09892,4.09892,0,0,1-2.15845.45442,2.38075,2.38075,0,0,0-1.33751-.01634V8.08628c.95726,0,1.91446-.20824,1.91446-.62486a1.03668,1.03668,0,0,1,.981-.18616l1.915.48686c1.01964.08422,1.83622.00774,2.20711-.422A.94121.94121,0,0,1,30.86419,7.194c.33134.07349.74433.15048,1.13581.21311v-.9726C31.95876,6.45363,31.9232,6.45887,31.881,6.48008Z" style="fill:#e3e5e5"/><path d="M26.6032,15.73122c-.8253,0-.30957,1.18251-1.897,1.18251V7.46143a5.15271,5.15271,0,0,1-1.91445.233v10.65a20.8799,20.8799,0,0,0,3.48445-.35414C26.58768,18.0354,26.91471,15.77636,26.6032,15.73122Z" style="fill:#8d5b36"/><path d="M18.98023,15.73122c.82531,0,.30957,1.18251,1.897,1.18251V7.46143a5.15277,5.15277,0,0,0,1.91446.233v10.65a20.8799,20.8799,0,0,1-3.48446-.35414C18.99575,18.0354,18.66872,15.77636,18.98023,15.73122Z" style="fill:#96643b"/></svg>