<?xml version="1.0" encoding="utf-8"?>
<!-- Generator: Adobe Illustrator 23.0.6, SVG Export Plug-In . SVG Version: 6.00 Build 0)  -->
<svg version="1.1" xmlns="http://www.w3.org/2000/svg" xmlns:xlink="http://www.w3.org/1999/xlink" x="0px" y="0px" width="32px"
	 height="32px" viewBox="0 0 32 32" enable-background="new 0 0 32 32" xml:space="preserve">
<g id="icons">
	<g>
		<g>
			<path fill="#F4A984" d="M15,0.25c0,0-0.398,6.75-4,6.75l4,1.625V0.25z"/>
			<path fill="#E59276" d="M2.169,15.272c-0.405,1.037-0.83,2.578-1.114,3.33c-0.118,0.313-0.042,0.665,0.194,0.901l1.248,1.248
				c0.159,0.159,0.249,0.376,0.249,0.601v0.273c0,0.632-0.665,1.043-1.23,0.76l-0.01-0.005c-0.42-0.21-0.93-0.04-1.14,0.38
				L0.09,23.311c-0.195,0.391-0.063,0.866,0.307,1.099l4.212,2.654c0.322,0.203,0.734,0.171,1.017-0.083
				c1.315-1.181,4.897-4.428,4.744-4.606c-0.147-0.172-4.79-5.204-6.788-7.369C3.157,14.545,2.397,14.687,2.169,15.272z"/>
			<path fill="#EA9C7A" d="M8.958,20.042c0,0-5.958-4.2-5.958-9.042c0-6.18,4.568-7.791,5.182-7.98C8.229,3.005,8.273,3,8.322,3
				h1.45c0.428,0,0.662,0.5,0.379,0.822c-1.22,1.392-2.834,4.299,1.942,6.74C17.776,13.467,8.958,20.042,8.958,20.042z"/>
			<path fill="#F9BDA0" d="M13,8.458c1.426-0.412,1.904-6.905,1.986-8.225C14.995,0.101,15.104,0,15.236,0L16,0v8L13,8.458z"/>
			<path fill="#DD8B72" d="M29.831,15.272c0.405,1.037,0.83,2.578,1.114,3.33c0.118,0.313,0.042,0.665-0.194,0.901l-1.248,1.248
				c-0.159,0.159-0.249,0.376-0.249,0.601v0.273c0,0.632,0.665,1.043,1.23,0.76l0.01-0.005c0.42-0.21,0.93-0.04,1.14,0.38
				l0.275,0.551c0.195,0.391,0.063,0.866-0.307,1.099l-4.212,2.654c-0.322,0.203-0.734,0.171-1.017-0.083
				c-1.315-1.181-4.897-4.428-4.744-4.606c0.147-0.172,4.79-5.204,6.788-7.369C28.843,14.545,29.603,14.687,29.831,15.272z"/>
			<path fill="#E59276" d="M23.044,20.042c0,0,5.958-4.2,5.958-9.042c0-6.18-4.568-7.791-5.182-7.98C23.773,3.005,23.729,3,23.68,3
				h-1.45c-0.428,0-0.662,0.5-0.379,0.822c1.22,1.392,2.834,4.299-1.942,6.74C14.226,13.467,23.044,20.042,23.044,20.042z"/>
			<path fill="#EA9C7A" d="M17,0.25c0,0,0.398,6.75,4,6.75l-4,1.625V0.25z"/>
			<path fill="#F6B392" d="M19,8.458c-1.426-0.412-1.904-6.905-1.986-8.225C17.005,0.101,16.896,0,16.764,0H16v8L19,8.458z"/>
			<path fill="#F4A984" d="M11.94,31H4.194c-0.677,0-1.194-0.588-1.12-1.26C3.317,27.516,4.277,22,8.067,22s4.75,5.516,4.993,7.74
				C13.133,30.412,12.617,31,11.94,31z"/>
			<path fill="#EA9C7A" d="M27.873,31h-7.746c-0.677,0-1.194-0.588-1.12-1.26C19.25,27.516,20.21,22,24,22s4.75,5.516,4.993,7.74
				C29.066,30.412,28.55,31,27.873,31z"/>
			<path fill="#F9BDA0" d="M7.43,11.677L3.502,15.51c-0.301,0.294-0.386,0.746-0.212,1.129l4.337,9.541
				c0.212,0.466,0.741,0.697,1.227,0.535l1.477-0.492c0.382-0.127,0.8-0.017,1.064,0.287C12.081,27.301,13.647,29,16,29v-5.471
				l-4.37-12.956L7.43,11.677z"/>
			<g>
				<path fill="#FAC7AF" d="M11.007,6.539l-0.821-0.433C10.034,6.026,9.867,5.997,9.7,6v1.065c0,0.552-0.448,1-1,1H5.245
					C5.095,8.242,5,8.464,5,8.705l0,2.643c0,0.423,0.265,0.797,0.662,0.941c1.239,0.449,3.795,1.522,3.921,2.778
					C9.749,16.728,13.4,23.594,16,23.594v-6.176C13.295,17.379,10.888,10.782,11.007,6.539z"/>
				<path fill="#E59276" d="M9.7,6C9.564,6.003,9.427,6.024,9.301,6.082L5.581,7.797C5.446,7.859,5.337,7.956,5.245,8.065H8.7
					c0.552,0,1-0.448,1-1V6z"/>
			</g>
			<path fill="#F6B392" d="M24.57,11.677l3.927,3.833c0.301,0.294,0.386,0.746,0.212,1.129l-4.337,9.541
				c-0.212,0.466-0.741,0.697-1.227,0.535l-1.477-0.492c-0.382-0.127-0.8-0.017-1.064,0.287C19.919,27.301,18.353,29,16,29v-5.471
				l4.37-12.956L24.57,11.677z"/>
			<g>
				<path fill="#F9BDA0" d="M20.993,6.539l0.821-0.433C21.966,6.026,22.133,5.997,22.3,6v1.065c0,0.552,0.448,1,1,1h3.455
					C26.905,8.242,27,8.464,27,8.705l0,2.643c0,0.423-0.265,0.797-0.662,0.941c-1.239,0.449-3.795,1.522-3.921,2.778
					C22.251,16.728,18.6,23.594,16,23.594v-6.176C18.705,17.379,21.112,10.782,20.993,6.539z"/>
				<path fill="#DD8B72" d="M22.3,6c0.136,0.003,0.273,0.024,0.399,0.082l3.719,1.714c0.135,0.062,0.244,0.159,0.337,0.268H23.3
					c-0.552,0-1-0.448-1-1V6z"/>
			</g>
			<g>
				<path fill="#F7F7F7" d="M18.357,22.142c0.393,0.075,2.157,0.363,2.477-0.35c0.465-1.035-0.036-2.285-0.223-2.689
					C19.948,20.213,19.162,21.311,18.357,22.142z"/>
				<path fill="#845331" d="M18.954,21.476c0.139,0.322,0.349,0.544,0.599,0.544c0.42,0,0.76-0.592,0.76-1.323
					c0-0.318-0.073-0.598-0.181-0.827C19.761,20.439,19.363,20.983,18.954,21.476z"/>
				<path fill="#2B3332" d="M19.267,21.086c0.064,0.177,0.165,0.301,0.285,0.301c0.196,0,0.355-0.309,0.355-0.689
					c0-0.149-0.03-0.28-0.071-0.393C19.651,20.574,19.461,20.835,19.267,21.086z"/>
			</g>
			<g>
				<path fill="#FFFFFF" d="M13.669,22.142c-0.393,0.075-2.157,0.363-2.477-0.35c-0.465-1.035,0.036-2.285,0.223-2.689
					C12.079,20.213,12.864,21.311,13.669,22.142z"/>
				<path fill="#8D5B36" d="M13.073,21.476c-0.139,0.322-0.349,0.544-0.599,0.544c-0.42,0-0.76-0.592-0.76-1.323
					c0-0.318,0.073-0.598,0.181-0.827C12.265,20.439,12.664,20.983,13.073,21.476z"/>
				<path fill="#373F3F" d="M12.76,21.086c-0.064,0.177-0.165,0.301-0.285,0.301c-0.196,0-0.355-0.309-0.355-0.689
					c0-0.149,0.03-0.28,0.071-0.393C12.376,20.574,12.565,20.835,12.76,21.086z"/>
			</g>
			<g>
				<path fill="#F9BDA0" d="M12.942,7.16l-1.935-0.622c-0.119,4.243,2.288,10.84,4.993,10.878V7.639
					C14.968,7.639,13.937,7.48,12.942,7.16z"/>
				<path fill="#FAC7AF" d="M20.993,6.539L19.058,7.16C18.063,7.48,17.032,7.639,16,7.639v9.778
					C18.705,17.379,21.112,10.782,20.993,6.539z"/>
			</g>
			<path fill="#EDEEEE" d="M27.497,32h-1.994c-0.373,0-0.616-0.397-0.449-0.734l0.987-1.987c0.184-0.371,0.708-0.373,0.896-0.004
				l1.008,1.987C28.115,31.6,27.873,32,27.497,32z"/>
			<path fill="#EDEEEE" d="M22.497,32h-1.994c-0.373,0-0.616-0.397-0.449-0.734l0.987-1.987c0.184-0.371,0.708-0.373,0.896-0.004
				l1.008,1.987C23.115,31.6,22.873,32,22.497,32z"/>
			<path fill="#EDEEEE" d="M11.497,32H9.503c-0.373,0-0.616-0.397-0.449-0.734l0.987-1.987c0.184-0.371,0.708-0.373,0.896-0.004
				l1.008,1.987C12.115,31.6,11.873,32,11.497,32z"/>
			<path fill="#EDEEEE" d="M6.497,32H4.503c-0.373,0-0.616-0.397-0.449-0.734l0.987-1.987c0.184-0.371,0.708-0.373,0.896-0.004
				l1.008,1.987C7.115,31.6,6.873,32,6.497,32z"/>
		</g>
		<g>
			<path fill="#F4A984" d="M17.886,24.117l-1.431-3.124c-0.089-0.195-0.272-0.292-0.455-0.292V26c0.427,0,0.854-0.09,1.264-0.269
				l0.189-0.082C17.938,25.437,18.149,24.691,17.886,24.117z"/>
			<path fill="#F6B392" d="M15.545,20.992l-1.431,3.124c-0.263,0.574-0.053,1.32,0.433,1.532l0.189,0.082
				C15.146,25.91,15.573,26,16,26v-5.299C15.817,20.701,15.635,20.798,15.545,20.992z"/>
		</g>
	</g>
</g>
<g id="labels">
</g>
</svg>
