<?xml version="1.0" encoding="utf-8"?>
<!-- Generator: Adobe Illustrator 23.0.6, SVG Export Plug-In . SVG Version: 6.00 Build 0)  -->
<svg version="1.1" xmlns="http://www.w3.org/2000/svg" xmlns:xlink="http://www.w3.org/1999/xlink" x="0px" y="0px" width="32px"
	 height="32px" viewBox="0 0 32 32" enable-background="new 0 0 32 32" xml:space="preserve">
<g id="icons">
	<g>
		<g>
			<path fill="#434C4B" d="M18.606,20.623c0,0,3.316,4.206,6.062,1.938c2.481-2.05,4.404-4.099,6.731-4.662
				c0.434-0.105,0.764,0.4,0.513,0.769c-1.047,1.541-3.155,4.71-4.432,7.081c-2.133,3.962-7.439,8.127-13.814,2.877L18.606,20.623z"
				/>
			<path fill="#5C6664" d="M27.638,31.276l-0.564-1.127c-0.048-0.097-0.127-0.175-0.224-0.224l-1.575-0.787
				C25.107,29.054,25,28.88,25,28.691v-2.466c0-0.143-0.062-0.28-0.169-0.375l-3.134-2.769c-0.233-0.206-0.595-0.151-0.758,0.114
				l-2.794,4.568c-0.09,0.147-0.098,0.33-0.021,0.485l0.823,1.646C18.982,29.964,19,30.04,19,30.118V31.5c0,0.276,0.224,0.5,0.5,0.5
				h7.691C27.563,32,27.804,31.609,27.638,31.276z"/>
			<path fill="#687271" d="M10.303,23.082l-3.134,2.769C7.062,25.946,7,26.082,7,26.225v2.466c0,0.189-0.107,0.363-0.276,0.447
				l-1.575,0.787c-0.097,0.048-0.175,0.127-0.224,0.224l-0.564,1.127C4.196,31.609,4.437,32,4.809,32H12.5
				c0.276,0,0.5-0.224,0.5-0.5v-1.382c0-0.078,0.018-0.154,0.053-0.224l0.823-1.646c0.077-0.154,0.069-0.337-0.021-0.485
				l-2.794-4.568C10.899,22.931,10.536,22.876,10.303,23.082z"/>
			<path fill="#505957" d="M23,22.4c0-6.6-1.104-9.4-7-9.4v2c2.761,0,5,3.358,5,7.5c0,2.35-0.721,4.445-1.849,5.821
				C21.009,27.554,23,25.921,23,22.4z"/>
			<path fill="#5C6664" d="M16,15v-2c-5.896,0-7,2.799-7,9.4c0,3.521,1.991,5.154,3.849,5.921C11.721,26.945,11,24.85,11,22.5
				C11,18.358,13.239,15,16,15z"/>
			<g>
				<path fill="#C8CCCB" d="M16,29c0,0,1.525-0.009,3.151-0.679c0.676-0.824,1.201-1.91,1.517-3.151C19.266,25.697,17.683,26,16,26
					V29z"/>
				<path fill="#D1D4D4" d="M20.744,20.143C19.324,20.688,17.713,21,16,21v5c1.683,0,3.266-0.303,4.668-0.83
					C20.88,24.339,21,23.442,21,22.5C21,21.676,20.908,20.885,20.744,20.143z"/>
				<path fill="#DADDDC" d="M16,15v6c1.713,0,3.324-0.312,4.744-0.857C20.085,17.157,18.212,15,16,15z"/>
			</g>
			<g>
				<path fill="#D1D4D4" d="M12.849,28.321C14.475,28.991,16,29,16,29v-3c-1.683,0-3.266-0.303-4.668-0.83
					C11.648,26.411,12.174,27.497,12.849,28.321z"/>
				<path fill="#DADDDC" d="M11.256,20.143C11.092,20.885,11,21.676,11,22.5c0,0.942,0.12,1.839,0.332,2.67
					C12.734,25.697,14.317,26,16,26v-5C14.287,21,12.676,20.688,11.256,20.143z"/>
				<path fill="#E3E5E5" d="M11.256,20.143C12.676,20.688,14.287,21,16,21v-6C13.788,15,11.915,17.157,11.256,20.143z"/>
			</g>
			<path fill="#5C6664" d="M16.001,12.243V15l2.926,2.195c0.683,0.512,1.552,0.709,2.389,0.542L25,17c0,0,0.062-7-5-7L16.001,12.243
				z"/>
			<path fill="#687271" d="M27.992,16.605c0.016-0.814-0.229-1.726-0.76-2.567c-1.107-1.756-3.004-2.525-4.237-1.717
				c-1.233,0.807-1.334,2.885-0.227,4.641c0.363,0.576,0.815,1.033,1.297,1.376C24.025,18.552,24,18.772,24,19
				c0,1.657,1.119,3,2.5,3s2.5-1.343,2.5-3C29,18.017,28.6,17.152,27.992,16.605z"/>
			<circle fill="#757F7E" cx="26.5" cy="22.5" r="2.5"/>
			<path fill="#687271" d="M15.999,12.243V15l-2.926,2.195c-0.683,0.512-1.552,0.709-2.389,0.542L7,17c0,0-0.062-7,5-7
				L15.999,12.243z"/>
			<path fill="#757F7E" d="M9.005,12.321c-1.233-0.807-3.129-0.039-4.237,1.717c-0.53,0.841-0.776,1.753-0.76,2.567
				C3.4,17.152,3,18.017,3,19c0,1.657,1.119,3,2.5,3S8,20.657,8,19c0-0.228-0.025-0.448-0.066-0.662
				c0.482-0.343,0.934-0.8,1.297-1.376C10.339,15.206,10.237,13.128,9.005,12.321z"/>
			<circle fill="#838C8A" cx="5.5" cy="22.5" r="2.5"/>
			<path fill="#687271" d="M21.907,9.685c0,0-0.49,4.315-5.907,4.315v-4L21.907,9.685z"/>
			<path fill="#757F7E" d="M10.093,9.685c0,0,0.49,4.315,5.907,4.315v-4L10.093,9.685z"/>
			<g>
				<path fill="#838C8A" d="M13.699,2.768L13.699,2.768c-0.001,0-1.837-2.035-3.19-2.589C9.156-0.375,7.884,0.429,9.237,1.593
					c1.353,1.164,1.809,3.31,1.809,3.31l-0.704,1.302L9.665,6.05c-0.175-0.04-0.355,0.044-0.44,0.206L8.941,6.8
					C8.834,7.005,8.915,7.258,9.119,7.36l0.52,0.258L8.143,9.196c-0.157,0.166-0.19,0.414-0.08,0.615l0.682,1.252
					c0.152,0.278,0.49,0.361,0.758,0.192c0.7-0.442,1.578-1.158,2.234-1.158c1.029,0,1.448,1.179,2.476,2.232
					c1.029,1.053,1.786,0.914,1.786,0.914l0.001,0V2.476C15.227,2.476,14.454,2.573,13.699,2.768z"/>
				<path fill="#757F7E" d="M17.786,12.329c1.029-1.053,1.448-2.232,2.476-2.232c0.655,0,1.534,0.716,2.234,1.158
					c0.268,0.169,0.606,0.086,0.758-0.192l0.682-1.252c0.109-0.201,0.077-0.449-0.08-0.615L22.36,7.618l0.52-0.258
					c0.204-0.101,0.285-0.355,0.178-0.559l-0.284-0.544c-0.085-0.162-0.265-0.246-0.44-0.206l-0.678,0.154l-0.704-1.302
					c0,0,0.407-2.146,1.76-3.31c1.353-1.164,0.081-1.967-1.272-1.413C20.087,0.734,18.3,2.768,18.3,2.768l-0.001,0
					C17.545,2.573,16.773,2.476,16,2.476v10.767C16.004,13.244,16.76,13.379,17.786,12.329z"/>
			</g>
			<polygon fill="#373F3F" points="23.226,0.874 21.625,6.204 20.931,4.902 20.812,2.086 			"/>
			<polygon fill="#434C4B" points="8.704,0.877 10.342,6.204 11.046,4.902 11.117,2.086 			"/>
			<g>
				<path fill="#F7F7F7" d="M20.117,6l-0.746,0.712v1.19c0.443-0.158,0.917-0.315,1.056-0.61C20.702,6.708,20.117,6,20.117,6z"/>
				<path fill="#D84459" d="M18.5,7.542V8.5c0.254-0.271,0.381-0.312,0.871-0.598v-1.19L18.5,7.542z"/>
			</g>
			<g>
				<path fill="#FFFFFF" d="M11.883,6l0.746,0.712v1.19c-0.443-0.158-0.917-0.315-1.056-0.61C11.298,6.708,11.883,6,11.883,6z"/>
				<path fill="#E85160" d="M13.5,7.542V8.5c-0.254-0.271-0.381-0.312-0.871-0.598v-1.19L13.5,7.542z"/>
			</g>
			<g>
				<path fill="#D1D4D4" d="M14.094,8.257C14.035,8.497,14,8.727,14,8.939c0,1.622,1.989,1.645,1.989,1.645V8.999
					C15.283,8.996,14.631,8.72,14.094,8.257z"/>
				<path fill="#C8CCCB" d="M16,9c-0.004,0-0.007-0.001-0.011-0.001v1.585c0,0,1.989-0.023,1.989-1.645
					c0-0.206-0.033-0.431-0.089-0.665C17.353,8.729,16.703,9,16,9z"/>
				<path fill="#DADDDC" d="M15.989,8.999v-2c-0.45-0.002-0.87-0.142-1.249-0.37c-0.274,0.534-0.52,1.105-0.647,1.628
					C14.631,8.72,15.283,8.996,15.989,8.999z"/>
				<path fill="#D1D4D4" d="M16,7c-0.004,0-0.007-0.001-0.011-0.001v2C15.993,8.999,15.996,9,16,9c0.703,0,1.353-0.271,1.89-0.727
					c-0.126-0.525-0.372-1.098-0.647-1.635C16.866,6.863,16.448,7,16,7z"/>
			</g>
		</g>
		<g>
			<polygon fill="#838C8A" points="15.761,0.775 15.057,3.058 15.761,0.775 			"/>
			<path fill="#838C8A" d="M16.943,3.058l-0.704-2.283C16.203,0.657,16.101,0.599,16,0.599V4c0.213,0,0.427-0.045,0.632-0.134
				l0.094-0.041C16.969,3.718,17.074,3.346,16.943,3.058z"/>
			<path fill="#909997" d="M15.761,0.775l-0.704,2.283c-0.132,0.287-0.026,0.66,0.216,0.766l0.094,0.041C15.573,3.955,15.787,4,16,4
				V0.599C15.899,0.599,15.797,0.657,15.761,0.775z"/>
		</g>
		<g>
			<path fill="#DADDDC" d="M16.196,4.881c-0.049-0.073-0.128-0.11-0.206-0.11v2.228C15.993,6.999,15.996,7,16,7
				c0.448,0,0.866-0.137,1.243-0.361C16.869,5.907,16.443,5.246,16.196,4.881z"/>
			<path fill="#E3E5E5" d="M15.783,4.88C15.779,4.887,15.775,4.893,15.77,4.9c-0.021,0.032-0.044,0.066-0.068,0.101
				c-0.009,0.014-0.018,0.027-0.027,0.041c-0.032,0.049-0.067,0.101-0.102,0.157c-0.006,0.01-0.013,0.02-0.019,0.03
				c-0.03,0.046-0.061,0.095-0.093,0.145c-0.013,0.02-0.026,0.041-0.038,0.061c-0.029,0.046-0.058,0.093-0.087,0.141
				c-0.012,0.02-0.024,0.04-0.037,0.06c-0.042,0.068-0.084,0.139-0.127,0.211c-0.004,0.007-0.009,0.015-0.013,0.022
				c-0.038,0.066-0.077,0.133-0.116,0.201c-0.013,0.023-0.026,0.046-0.039,0.069c-0.032,0.056-0.063,0.114-0.095,0.172
				c-0.013,0.024-0.027,0.048-0.04,0.073c-0.043,0.08-0.086,0.161-0.128,0.244c0.378,0.229,0.798,0.368,1.249,0.37V4.771
				C15.911,4.771,15.833,4.807,15.783,4.88z"/>
		</g>
	</g>
</g>
<g id="labels">
</g>
</svg>
