<?xml version="1.0" encoding="utf-8"?>
<!-- Generator: Adobe Illustrator 23.0.6, SVG Export Plug-In . SVG Version: 6.00 Build 0)  -->
<svg version="1.1" xmlns="http://www.w3.org/2000/svg" xmlns:xlink="http://www.w3.org/1999/xlink" x="0px" y="0px" width="32px"
	 height="32px" viewBox="0 0 32 32" enable-background="new 0 0 32 32" xml:space="preserve">
<g id="icons">
	<g>
		<path fill="#FFF3D9" d="M5.862,14.389c-1.768,1.906-0.683,8.933,2.049,8.715C10.643,22.886,16,20.985,16,20.985v-2.783
			C16,18.202,7.629,12.483,5.862,14.389z"/>
		<path fill="#B0D3EA" d="M16,9v21c0,0-6.181-0.057-7.699-7.25C7,16.583,13.894,12,13.894,8L16,9z"/>
		<path fill="#FDEBBB" d="M26.138,14.389C24.371,12.483,16,18.202,16,18.202v2.783c0,0,5.357,1.901,8.089,2.119
			C26.821,23.322,27.906,16.295,26.138,14.389z"/>
		<path fill="#9FC9E4" d="M16,9v21c0,0,6.181-0.057,7.699-7.25C25,16.583,18.106,12,18.106,8L16,9z"/>
		<g>
			<path fill="#FDEBBB" d="M16,13.186h-2c-0.361,0.599-0.75,1.204-1.144,1.818c-1.168,1.819-2.254,2.925-2.505,4.754
				C12.128,19.273,14.023,19,16,19V13.186z"/>
			<path fill="#FAE09F" d="M21.649,19.759c-0.251-1.829-1.337-2.935-2.505-4.754c-0.394-0.614-0.783-1.22-1.144-1.818h-2V19
				C17.977,19,19.872,19.273,21.649,19.759z"/>
			<path fill="#FAE09F" d="M10.437,22.094c0.157,0.557,0.362,1.042,0.586,1.493C12.604,23.212,14.271,23,16,23v-4
				c-1.977,0-3.872,0.273-5.649,0.759C10.26,20.421,10.271,21.172,10.437,22.094z"/>
			<path fill="#F7D684" d="M16,23c1.729,0,3.396,0.212,4.977,0.587c0.224-0.451,0.428-0.936,0.586-1.493
				c0.166-0.922,0.178-1.673,0.087-2.335C19.872,19.273,17.977,19,16,19V23z"/>
			<path fill="#F7D684" d="M11.023,23.587C12.239,26.04,14.311,27,16,27v-4C14.271,23,12.604,23.212,11.023,23.587z"/>
			<path fill="#F0C877" d="M16,27c1.689,0,3.761-0.96,4.977-3.413C19.396,23.212,17.729,23,16,23V27z"/>
		</g>
		<g>
			<g>
				<path fill="#B0D3EA" d="M18,30.062V25.5c0-1.105-0.895-2-2-2v8.562C17.105,32.062,18,31.167,18,30.062z"/>
			</g>
			<g>
				<path fill="#B0D3EA" d="M18,30.062V25.5c0-1.105-0.895-2-2-2v8.562C17.105,32.062,18,31.167,18,30.062z"/>
			</g>
		</g>
		<path fill="#C1DDEE" d="M14,25.5v4.562c0,1.105,0.895,2,2,2V23.5C14.895,23.5,14,24.395,14,25.5z"/>
		<g>
			<g>
				<path fill="#9FC9E4" d="M25.4,15.8c0,0-0.553-0.304-1.354-0.799c-0.81-0.483-1.852-1.176-2.881-1.888
					c-0.51-0.361-1.027-0.714-1.496-1.065c-0.469-0.351-0.92-0.661-1.284-0.957c-0.354-0.309-0.611-0.618-0.767-0.866
					C17.46,9.981,17.4,9.8,17.4,9.8c-0.211-0.639,0.136-1.328,0.775-1.539c0.14-0.046,0.286-0.065,0.425-0.061
					c0,0,0.19,0.007,0.469,0.091c0.282,0.08,0.65,0.24,1.046,0.494c0.386,0.266,0.81,0.613,1.278,0.965
					c0.469,0.352,0.952,0.749,1.441,1.138c0.971,0.788,1.929,1.595,2.619,2.237C26.153,13.754,26.6,14.2,26.6,14.2
					c0.395,0.394,0.396,1.033,0.002,1.428C26.277,15.954,25.784,16.011,25.4,15.8z"/>
			</g>
			<g>
				<path fill="#9FC9E4" d="M25.4,15.8c0,0-0.553-0.304-1.354-0.799c-0.81-0.483-1.852-1.176-2.881-1.888
					c-0.51-0.361-1.027-0.714-1.496-1.065c-0.469-0.351-0.92-0.661-1.284-0.957c-0.354-0.309-0.611-0.618-0.767-0.866
					C17.46,9.981,17.4,9.8,17.4,9.8c-0.211-0.639,0.136-1.328,0.775-1.539c0.14-0.046,0.286-0.065,0.425-0.061
					c0,0,0.19,0.007,0.469,0.091c0.282,0.08,0.65,0.24,1.046,0.494c0.386,0.266,0.81,0.613,1.278,0.965
					c0.469,0.352,0.952,0.749,1.441,1.138c0.971,0.788,1.929,1.595,2.619,2.237C26.153,13.754,26.6,14.2,26.6,14.2
					c0.395,0.394,0.396,1.033,0.002,1.428C26.277,15.954,25.784,16.011,25.4,15.8z"/>
			</g>
		</g>
		<g>
			<g>
				<path fill="#9FC9E4" d="M26.6,1.8c0,0-0.447,0.446-1.146,1.076c-0.69,0.642-1.648,1.449-2.619,2.237
					c-0.49,0.389-0.973,0.786-1.441,1.138c-0.468,0.352-0.892,0.699-1.278,0.965c-0.396,0.254-0.764,0.413-1.046,0.494
					C18.79,7.793,18.6,7.8,18.6,7.8c-0.673,0.024-1.237-0.502-1.261-1.175C17.334,6.478,17.357,6.332,17.4,6.2
					c0,0,0.06-0.181,0.219-0.425c0.156-0.248,0.412-0.557,0.767-0.866c0.364-0.296,0.815-0.606,1.284-0.957
					c0.469-0.351,0.986-0.704,1.496-1.065c1.029-0.712,2.071-1.405,2.881-1.888C24.847,0.504,25.4,0.2,25.4,0.2
					c0.489-0.269,1.103-0.091,1.372,0.398C26.994,1.001,26.91,1.49,26.6,1.8z"/>
			</g>
			<g>
				<path fill="#9FC9E4" d="M26.6,1.8c0,0-0.447,0.446-1.146,1.076c-0.69,0.642-1.648,1.449-2.619,2.237
					c-0.49,0.389-0.973,0.786-1.441,1.138c-0.468,0.352-0.892,0.699-1.278,0.965c-0.396,0.254-0.764,0.413-1.046,0.494
					C18.79,7.793,18.6,7.8,18.6,7.8c-0.673,0.024-1.237-0.502-1.261-1.175C17.334,6.478,17.357,6.332,17.4,6.2
					c0,0,0.06-0.181,0.219-0.425c0.156-0.248,0.412-0.557,0.767-0.866c0.364-0.296,0.815-0.606,1.284-0.957
					c0.469-0.351,0.986-0.704,1.496-1.065c1.029-0.712,2.071-1.405,2.881-1.888C24.847,0.504,25.4,0.2,25.4,0.2
					c0.489-0.269,1.103-0.091,1.372,0.398C26.994,1.001,26.91,1.49,26.6,1.8z"/>
			</g>
		</g>
		<g>
			<g>
				<path fill="#9FC9E4" d="M17,6l12,1c0.552,0.046,0.963,0.531,0.917,1.083C29.875,8.579,29.48,8.96,29,9l-12,1
					c-1.105,0.092-2.075-0.729-2.167-1.833C14.741,7.062,15.562,6.092,16.667,6C16.776,5.991,16.894,5.992,17,6z"/>
			</g>
			<g>
				<path fill="#9FC9E4" d="M17,6l12,1c0.552,0.046,0.963,0.531,0.917,1.083C29.875,8.579,29.48,8.96,29,9l-12,1
					c-1.105,0.092-2.075-0.729-2.167-1.833C14.741,7.062,15.562,6.092,16.667,6C16.776,5.991,16.894,5.992,17,6z"/>
			</g>
		</g>
		<g>
			<g>
				<path fill="#B0D3EA" d="M5.4,14.2c0,0,0.447-0.446,1.146-1.076c0.69-0.642,1.648-1.449,2.619-2.237
					c0.49-0.389,0.973-0.786,1.441-1.138c0.468-0.352,0.892-0.699,1.278-0.965c0.396-0.254,0.764-0.413,1.046-0.494
					C13.21,8.207,13.4,8.2,13.4,8.2c0.673-0.024,1.237,0.502,1.261,1.175C14.666,9.522,14.643,9.668,14.6,9.8
					c0,0-0.06,0.181-0.219,0.425c-0.156,0.248-0.412,0.557-0.767,0.866c-0.364,0.296-0.815,0.606-1.284,0.957
					c-0.469,0.351-0.986,0.704-1.496,1.065c-1.029,0.712-2.071,1.405-2.881,1.888C7.153,15.496,6.6,15.8,6.6,15.8
					c-0.489,0.269-1.103,0.091-1.372-0.398C5.006,14.999,5.09,14.51,5.4,14.2z"/>
			</g>
			<g>
				<path fill="#B0D3EA" d="M5.4,14.2c0,0,0.447-0.446,1.146-1.076c0.69-0.642,1.648-1.449,2.619-2.237
					c0.49-0.389,0.973-0.786,1.441-1.138c0.468-0.352,0.892-0.699,1.278-0.965c0.396-0.254,0.764-0.413,1.046-0.494
					C13.21,8.207,13.4,8.2,13.4,8.2c0.673-0.024,1.237,0.502,1.261,1.175C14.666,9.522,14.643,9.668,14.6,9.8
					c0,0-0.06,0.181-0.219,0.425c-0.156,0.248-0.412,0.557-0.767,0.866c-0.364,0.296-0.815,0.606-1.284,0.957
					c-0.469,0.351-0.986,0.704-1.496,1.065c-1.029,0.712-2.071,1.405-2.881,1.888C7.153,15.496,6.6,15.8,6.6,15.8
					c-0.489,0.269-1.103,0.091-1.372-0.398C5.006,14.999,5.09,14.51,5.4,14.2z"/>
			</g>
		</g>
		<g>
			<g>
				<path fill="#B0D3EA" d="M6.6,0.2c0,0,0.553,0.304,1.354,0.799c0.81,0.483,1.852,1.176,2.881,1.888
					c0.51,0.361,1.027,0.714,1.496,1.065c0.469,0.351,0.92,0.661,1.284,0.957c0.354,0.309,0.611,0.618,0.767,0.866
					C14.54,6.019,14.6,6.2,14.6,6.2c0.211,0.639-0.136,1.328-0.775,1.539C13.686,7.785,13.539,7.804,13.4,7.8
					c0,0-0.19-0.007-0.469-0.091c-0.282-0.08-0.65-0.24-1.046-0.494c-0.386-0.266-0.81-0.613-1.278-0.965
					c-0.469-0.352-0.952-0.749-1.441-1.138C8.194,4.324,7.237,3.517,6.546,2.876C5.847,2.246,5.4,1.8,5.4,1.8
					C5.005,1.406,5.004,0.767,5.398,0.372C5.723,0.046,6.216-0.011,6.6,0.2z"/>
			</g>
			<g>
				<path fill="#B0D3EA" d="M6.6,0.2c0,0,0.553,0.304,1.354,0.799c0.81,0.483,1.852,1.176,2.881,1.888
					c0.51,0.361,1.027,0.714,1.496,1.065c0.469,0.351,0.92,0.661,1.284,0.957c0.354,0.309,0.611,0.618,0.767,0.866
					C14.54,6.019,14.6,6.2,14.6,6.2c0.211,0.639-0.136,1.328-0.775,1.539C13.686,7.785,13.539,7.804,13.4,7.8
					c0,0-0.19-0.007-0.469-0.091c-0.282-0.08-0.65-0.24-1.046-0.494c-0.386-0.266-0.81-0.613-1.278-0.965
					c-0.469-0.352-0.952-0.749-1.441-1.138C8.194,4.324,7.237,3.517,6.546,2.876C5.847,2.246,5.4,1.8,5.4,1.8
					C5.005,1.406,5.004,0.767,5.398,0.372C5.723,0.046,6.216-0.011,6.6,0.2z"/>
			</g>
		</g>
		<g>
			<g>
				<path fill="#B0D3EA" d="M15,10L3,9C2.448,8.954,2.037,8.469,2.083,7.917C2.125,7.421,2.52,7.04,3,7l12-1
					c1.105-0.092,2.075,0.729,2.167,1.833c0.092,1.105-0.729,2.075-1.833,2.167C15.224,10.009,15.106,10.008,15,10z"/>
			</g>
			<g>
				<path fill="#B0D3EA" d="M15,10L3,9C2.448,8.954,2.037,8.469,2.083,7.917C2.125,7.421,2.52,7.04,3,7l12-1
					c1.105-0.092,2.075,0.729,2.167,1.833c0.092,1.105-0.729,2.075-1.833,2.167C15.224,10.009,15.106,10.008,15,10z"/>
			</g>
		</g>
		<g>
			<path fill="#C1DDEE" d="M9,7c0,3.866,3.134,7,7,7V0C12.134,0,9,3.134,9,7z"/>
			<path fill="#B0D3EA" d="M23,7c0-3.866-3.134-7-7-7v14C19.866,14,23,10.866,23,7z"/>
		</g>
		<g>
			<path fill="#373F3F" d="M13,13c0,1.654,1.346,3,3,3v-6C14.346,10,13,11.346,13,13z"/>
			<path fill="#D2E6F3" d="M13,13c0-1.654,1.346-3,3-3V8c-2.761,0-5,2.239-5,5s2.239,5,5,5v-2C14.346,16,13,14.654,13,13z"/>
			<path fill="#2B3332" d="M19,13c0-1.654-1.346-3-3-3v6C17.654,16,19,14.654,19,13z"/>
			<path fill="#C1DDEE" d="M21,13c0-2.761-2.239-5-5-5v2c1.654,0,3,1.346,3,3c0,1.654-1.346,3-3,3v2C18.761,18,21,15.761,21,13z"/>
		</g>
		<g>
			<g>
				<path fill="#FF6B8B" d="M11.875,7.062c0-0.846,0.539-1.531,1.203-1.531c0.205,0,0.395,0.071,0.564,0.187
					C13.862,6.066,14,6.509,14,7c0,0.6-0.202,1.131-0.515,1.498c-0.128,0.059-0.263,0.096-0.407,0.096
					C12.414,8.594,11.875,7.908,11.875,7.062z"/>
				<path fill="#FFFFFF" d="M12.5,5c0.46,0,0.867,0.283,1.142,0.718c-0.169-0.115-0.359-0.187-0.564-0.187
					c-0.664,0-1.203,0.686-1.203,1.531c0,0.846,0.539,1.531,1.203,1.531c0.143,0,0.279-0.037,0.407-0.096
					C13.221,8.807,12.879,9,12.5,9C11.672,9,11,8.105,11,7C11,5.895,11.672,5,12.5,5z"/>
			</g>
			<ellipse fill="#373F3F" cx="12.922" cy="7.078" rx="0.328" ry="0.641"/>
		</g>
		<g>
			<g>
				<path fill="#FF5F7E" d="M20.125,7.062c0-0.846-0.539-1.531-1.203-1.531c-0.205,0-0.395,0.071-0.564,0.187
					C18.138,6.066,18,6.509,18,7c0,0.6,0.202,1.131,0.515,1.498c0.128,0.059,0.263,0.096,0.407,0.096
					C19.586,8.594,20.125,7.908,20.125,7.062z"/>
				<path fill="#F7F7F7" d="M19.5,5c-0.46,0-0.867,0.283-1.142,0.718c0.169-0.115,0.359-0.187,0.564-0.187
					c0.664,0,1.203,0.686,1.203,1.531c0,0.846-0.539,1.531-1.203,1.531c-0.143,0-0.279-0.037-0.407-0.096
					C18.779,8.807,19.121,9,19.5,9C20.328,9,21,8.105,21,7C21,5.895,20.328,5,19.5,5z"/>
			</g>
			<ellipse fill="#2B3332" cx="19.078" cy="7.078" rx="0.328" ry="0.641"/>
		</g>
	</g>
</g>
<g id="labels">
</g>
</svg>
