<?xml version="1.0" encoding="utf-8"?>
<!-- Generator: Adobe Illustrator 23.0.6, SVG Export Plug-In . SVG Version: 6.00 Build 0)  -->
<svg version="1.1" xmlns="http://www.w3.org/2000/svg" xmlns:xlink="http://www.w3.org/1999/xlink" x="0px" y="0px" width="32px"
	 height="32px" viewBox="0 0 32 32" enable-background="new 0 0 32 32" xml:space="preserve">
<g id="icons">
	<g>
		<g>
			<path fill="#7C8AC4" d="M15.546,0.984L14,4.333l2-1.25v-2.39C15.818,0.693,15.635,0.79,15.546,0.984z"/>
			<polygon fill="#7C8AC4" points="16.454,0.984 16.454,0.984 18,4.333 			"/>
			<path fill="#707EB7" d="M16.454,0.984C16.365,0.79,16.182,0.693,16,0.693v2.39l2,1.25L16.454,0.984z"/>
		</g>
		<g>
			<path fill="#7C8AC4" d="M16,7.229c0,0,1.198-3.969,4.885-6.812c1.5-0.656-0.75,0.937-0.187,1.75
				c0.32,0.462,0.599,0.702,0.781,0.823c0.11,0.073,0.142,0.217,0.072,0.329c-0.238,0.383-0.628,1.198-0.072,1.755
				c0.75,0.75-1.969,4.875-2.031,4.781S16,7.229,16,7.229z"/>
			<g>
				<path fill="#EC8179" d="M27.224,19.867l4.538-1.75c0.315-0.121,0.318-0.565,0.006-0.691l-4.283-1.735l4.443-6.066
					c0.233-0.326-0.144-0.739-0.49-0.537l-5.29,3.097l0.144-0.059l-1.197,3.091c-0.175,0.453,0,0.967,0.417,1.217l0.936,0.564
					c0.683,0.411,0.633,1.417-0.087,1.76l-0.777,0.37c-0.52,0.247-0.724,0.882-0.446,1.386l1.917,3.475l4.428,1.981
					c0.363,0.151,0.682-0.292,0.423-0.588L27.224,19.867z"/>
				<path fill="#707EB7" d="M25.584,19.127l0.777-0.37c0.72-0.342,0.769-1.348,0.087-1.76l-0.936-0.564
					c-0.416-0.251-0.592-0.764-0.417-1.217l1.197-3.091l-0.144,0.059l-6.102,3.572l0.131,5.155l6.879,3.077l-1.917-3.475
					C24.86,20.009,25.064,19.375,25.584,19.127z"/>
			</g>
			<path fill="#7C8AC4" d="M19.25,13.917L16,13.696v-1.241l2.182-1.038c0,0,4.818,1.75,4.818,5.583
				c0.007,2.667-0.725,3.559-2.917,5.75c-0.104,0.104-0.203,0.228-0.302,0.354C22.867,17.14,19.25,13.917,19.25,13.917z"/>
			<g>
				<path fill="#ED8C86" d="M4.777,19.867l-4.538-1.75c-0.315-0.121-0.318-0.565-0.006-0.691l4.283-1.735L0.072,9.625
					c-0.233-0.326,0.144-0.739,0.49-0.537l5.29,3.097l-0.144-0.059l1.197,3.091c0.175,0.453,0,0.967-0.417,1.217l-0.936,0.564
					c-0.683,0.411-0.633,1.417,0.087,1.76l0.777,0.37c0.52,0.247,0.724,0.882,0.446,1.386l-1.917,3.475l-4.428,1.981
					c-0.363,0.151-0.682-0.292-0.423-0.588L4.777,19.867z"/>
				<path fill="#7C8AC4" d="M6.416,19.127l-0.777-0.37c-0.72-0.342-0.769-1.348-0.087-1.76l0.936-0.564
					c0.416-0.251,0.592-0.764,0.417-1.217l-1.197-3.091l0.144,0.059l6.102,3.572l-0.131,5.155l-6.879,3.077l1.917-3.475
					C7.14,20.009,6.936,19.375,6.416,19.127z"/>
			</g>
			<path fill="#8694D1" d="M12.75,13.917L16,13.696v-1.241l-2.182-1.038c0,0-4.818,1.75-4.818,5.583
				c-0.007,2.667,0.725,3.559,2.917,5.75c0.104,0.104,0.203,0.228,0.302,0.354C9.133,17.14,12.75,13.917,12.75,13.917z"/>
			<g>
				<path fill="#E7685F" d="M17.276,21.478l-0.247,0.493C16.689,21.987,16.348,22,16,22v8.455l0.336,0.29
					c0.301-0.037,0.632-0.141,0.987-0.346c0.317-1.828,1.104-5.549,2.459-7.295c0.283-0.547,0.493-1.063,0.671-1.564
					c-0.803,0.167-1.641,0.295-2.514,0.369l-0.216-0.431C17.631,21.294,17.368,21.294,17.276,21.478z"/>
				<path fill="#E9746A" d="M14.97,21.972l-0.247-0.493c-0.092-0.184-0.355-0.184-0.447,0L14.06,21.91
					c-0.872-0.074-1.71-0.202-2.513-0.369c0.178,0.501,0.388,1.017,0.671,1.564c1.355,1.746,2.141,5.466,2.459,7.295
					c0.356,0.205,0.686,0.31,0.987,0.346L16,30.455V22h0C15.652,22,15.31,21.987,14.97,21.972z"/>
				<path fill="#E9746A" d="M17.276,17.478l-0.247,0.493C16.689,17.987,16.348,18,16,18v4c0.348,0,0.689-0.013,1.029-0.028
					l0.247-0.493c0.092-0.184,0.355-0.184,0.447,0l0.216,0.431c0.872-0.074,1.71-0.203,2.514-0.369
					c0.576-1.618,0.643-2.987,0.479-4.104c-0.945,0.221-1.945,0.384-2.992,0.473l-0.216-0.431
					C17.631,17.294,17.368,17.294,17.276,17.478z"/>
				<path fill="#EC8179" d="M19.25,13.917L16,13.696V18c0.348,0,0.689-0.013,1.029-0.028l0.247-0.493
					c0.092-0.184,0.355-0.184,0.447,0l0.216,0.431c1.047-0.089,2.048-0.253,2.992-0.473C20.592,15.132,19.25,13.917,19.25,13.917z"
					/>
				<path fill="#EC8179" d="M14.97,17.972l-0.247-0.493c-0.092-0.184-0.355-0.184-0.447,0L14.06,17.91
					c-1.047-0.089-2.047-0.252-2.992-0.473c-0.165,1.117-0.097,2.486,0.479,4.104c0.803,0.167,1.641,0.295,2.513,0.369l0.216-0.431
					c0.092-0.184,0.355-0.184,0.447,0l0.247,0.493C15.31,21.987,15.652,22,16,22h0v-4h0C15.652,18,15.31,17.987,14.97,17.972z"/>
				<path fill="#ED8C86" d="M12.75,13.917c0,0-1.342,1.215-1.681,3.52c0.945,0.221,1.945,0.384,2.992,0.473l0.216-0.431
					c0.092-0.184,0.355-0.184,0.447,0l0.247,0.493C15.31,17.987,15.652,18,16,18h0v-4.304L12.75,13.917z"/>
			</g>
			<path fill="#8694D1" d="M16,22.438V32c1.105,0,2-0.895,2-2v-5.562C18,23.333,17.105,22.438,16,22.438z"/>
			<path fill="#9AA6D6" d="M14,24.438V30c0,1.105,0.895,2,2,2v-9.562C14.895,22.438,14,23.333,14,24.438z"/>
			<path fill="#8694D1" d="M16,7.229c0,0-1.198-3.969-4.885-6.812c-1.5-0.656,0.75,0.937,0.188,1.75
				c-0.32,0.462-0.599,0.702-0.781,0.823c-0.11,0.073-0.142,0.217-0.072,0.329c0.238,0.383,0.628,1.198,0.072,1.755
				c-0.75,0.75,1.969,4.875,2.031,4.781S16,7.229,16,7.229z"/>
			<path fill="#707EB7" d="M19.375,7.542l7.506-6.563c0.212-0.186,0.522,0.067,0.382,0.312L24,7l3.344,0.836
				c0.225,0.056,0.259,0.362,0.051,0.466L24,10l0.821,2.464c0.069,0.206-0.14,0.395-0.338,0.308l-7.608-3.356L19.375,7.542z"/>
			<path fill="#7C8AC4" d="M16,3v10.985c0,0,3.577,0.396,4.609-2.925c0.572-1.839,0.578-4.044-0.397-5.731
				c-0.939-1.627-2.49-2.175-4.121-2.322C16.061,3.005,16.031,3.002,16,3z"/>
			<path fill="#7C8AC4" d="M12.625,7.542L5.119,0.979C4.907,0.793,4.598,1.046,4.738,1.291L8,7L4.656,7.836
				C4.43,7.892,4.397,8.198,4.604,8.302L8,10l-0.821,2.464c-0.069,0.206,0.14,0.395,0.338,0.308l7.608-3.356L12.625,7.542z"/>
			<path fill="#8694D1" d="M16,3v10.985c0,0-3.577,0.396-4.609-2.925c-0.572-1.839-0.578-4.044,0.397-5.731
				c0.939-1.627,2.49-2.175,4.121-2.322C15.939,3.005,15.969,3.002,16,3z"/>
			<path fill="#9AA6D6" d="M15.233,11.303c0.087-0.12,0.205-0.209,0.338-0.269s0.281-0.09,0.43-0.09v-2
				c-0.956,0-1.848,0.443-2.386,1.184l-1.104,1.521c-0.588,0.81-0.673,1.864-0.221,2.749c0.486,0.953,1.485,1.545,2.607,1.545H16v-2
				h-1.104c-0.695,0-1.125-0.627-0.767-1.12L15.233,11.303z"/>
			<g>
				<path fill="#F7F7F7" d="M19,7.498c0-0.166-0.011-0.323-0.028-0.472L20,5.998v2c0,0.552-0.448,1-1,1h-0.5
					C18.776,8.998,19,8.326,19,7.498z"/>
				<path fill="#F7F7F7" d="M18.028,7.97c0.066,0.596,0.251,1.028,0.472,1.028H17L18.028,7.97z"/>
				<path fill="#2B3332" d="M18.028,7.97l0.944-0.944C18.989,7.175,19,7.332,19,7.498c0,0.828-0.224,1.5-0.5,1.5
					C18.279,8.998,18.094,8.566,18.028,7.97z"/>
			</g>
			<g>
				<path fill="#FFFFFF" d="M13,7.498c0-0.166,0.011-0.323,0.028-0.472L12,5.998v2c0,0.552,0.448,1,1,1h0.5
					C13.224,8.998,13,8.326,13,7.498z"/>
				<path fill="#FFFFFF" d="M13.972,7.97c-0.066,0.596-0.251,1.028-0.472,1.028H15L13.972,7.97z"/>
				<path fill="#2B3332" d="M13.972,7.97l-0.944-0.944C13.011,7.175,13,7.332,13,7.498c0,0.828,0.224,1.5,0.5,1.5
					C13.721,8.998,13.906,8.566,13.972,7.97z"/>
			</g>
			<path fill="#373F3F" d="M15.233,11.303l-1.104,1.521c-0.358,0.493,0.072,1.12,0.767,1.12H16v-3c-0.148,0-0.297,0.03-0.43,0.09
				C15.437,11.093,15.32,11.183,15.233,11.303z"/>
			<path fill="#8694D1" d="M19.49,11.649l-1.104-1.521C17.848,9.386,16.956,8.944,16,8.944v2c0.297,0,0.593,0.12,0.767,0.359
				l1.104,1.521c0.045,0.062,0.077,0.125,0.098,0.19L18,13.206c-0.001,0.128-0.043,0.253-0.117,0.362
				c-0.15,0.218-0.431,0.375-0.779,0.375H16v2h1.104c1.122,0,2.121-0.592,2.607-1.545C20.163,13.512,20.078,12.459,19.49,11.649z"/>
			<path fill="#2B3332" d="M17.104,13.944c0.348,0,0.629-0.157,0.779-0.375c0.075-0.109,0.117-0.234,0.117-0.362
				c0-0.064-0.009-0.129-0.031-0.193c-0.021-0.064-0.054-0.128-0.098-0.19l-1.104-1.521c-0.174-0.239-0.471-0.359-0.767-0.359v3
				H17.104z"/>
		</g>
	</g>
</g>
<g id="labels">
</g>
</svg>
