<?xml version="1.0" encoding="utf-8"?>
<!-- Generator: Adobe Illustrator 23.0.6, SVG Export Plug-In . SVG Version: 6.00 Build 0)  -->
<svg version="1.1" xmlns="http://www.w3.org/2000/svg" xmlns:xlink="http://www.w3.org/1999/xlink" x="0px" y="0px" width="32px"
	 height="32px" viewBox="0 0 32 32" enable-background="new 0 0 32 32" xml:space="preserve">
<g id="icons">
	<g>
		<path fill="#B93D4F" d="M21.473,23l7.549,0.172c1.061,0.024,1.359,1.466,0.394,1.909l-3.671,1.684L21.473,23z"/>
		<path fill="#C84054" d="M16,32c0,0,11.466,0,13.419,0c3.15,0,4.387-2.479-2.016-6.545c-5-3.175-5.859-7.455-5.859-7.455H16V32z"/>
		<path fill="#D84459" d="M16,18v14c0,0,7.875,0,9.25,0s4.188-0.656-2.75-5.927c-3.973-3.018-3-8.073-3-8.073H16z"/>
		<path fill="#C84054" d="M10.527,23l-7.549,0.172c-1.061,0.024-1.359,1.466-0.394,1.909l3.671,1.684L10.527,23z"/>
		<path fill="#D84459" d="M16,32c0,0-11.466,0-13.419,0c-3.15,0-4.387-2.479,2.016-6.545c5-3.175,5.859-7.455,5.859-7.455H16V32z"/>
		<path fill="#E85160" d="M16,18v14c0,0-7.875,0-9.25,0s-4.188-0.656,2.75-5.927c3.973-3.018,3-8.073,3-8.073H16z"/>
		<path fill="#A366AD" d="M14.167,13.703c0.563,0.325,1.202,0.486,1.841,0.485v-0.691c-0.013-0.001-0.029-0.002-0.033-0.002
			c-0.026,0-0.052-0.002-0.079-0.006v0C14.887,13.433,13,12.829,13,11.625C13,10.4,14.649,10,15.217,10
			c0.301,0,0.57,0.122,0.783,0.266c0.002-0.002,0.006-0.003,0.008-0.004V1.045c-0.003,0-0.005,0-0.008,0c-3.866,0-7,3.582-7,8
			c0,1.532,0.384,2.959,1.037,4.175C10.503,13.09,10.988,13,11.5,13C12.483,13,13.397,13.258,14.167,13.703z"/>
		<path fill="#FFD96C" d="M14.167,13.703C13.397,13.258,12.483,13,11.5,13c-0.512,0-0.997,0.09-1.463,0.219
			C7.997,13.786,6.5,15.48,6.5,17.5c0,2.481,2.243,4.5,5,4.5c0.983,0,1.897-0.258,2.667-0.703c0.563-0.325,1.202-0.486,1.841-0.485
			v-3.769v-2.856C15.369,14.189,14.73,14.028,14.167,13.703z"/>
		<path fill="#373F3F" d="M15.632,11.264C15.456,11.082,15.293,11,15.209,11c-0.391,0-1.217,0.296-1.217,0.625
			c0,0.271,0.984,0.812,1.952,0.866c0.016,0,0.032,0.002,0.048,0.005c0.003,0,0.005,0,0.008-0.001v-1.086
			C15.865,11.411,15.728,11.364,15.632,11.264z"/>
		<path fill="#F9ADC8" d="M16,10.266C15.787,10.122,15.518,10,15.217,10C14.649,10,13,10.4,13,11.625
			c0,1.204,1.887,1.808,2.896,1.864v0c0.026,0.004,0.052,0.006,0.079,0.006c0.004,0,0.02,0.001,0.033,0.002v-0.501v-0.5
			c-0.003,0-0.005,0-0.008,0.001c-0.016-0.002-0.032-0.004-0.048-0.005C14.984,12.437,14,11.896,14,11.625
			C14,11.296,14.827,11,15.217,11c0.083,0,0.247,0.082,0.423,0.264c0.096,0.1,0.232,0.147,0.368,0.145v-0.5v-0.648
			C16.006,10.263,16.002,10.264,16,10.266z"/>
		<path fill="#945BA0" d="M16.775,10c0.568,0,2.217,0.4,2.217,1.625c0,1.163-1.762,1.767-2.792,1.856
			c-0.042,0.012-0.087,0.019-0.133,0.019c-0.009,0-0.041-0.002-0.068-0.004v0.691c0.634-0.001,1.267-0.163,1.825-0.485
			C18.595,13.258,19.509,13,20.492,13c0.512,0,0.997,0.09,1.463,0.219c0.654-1.216,1.037-2.643,1.037-4.175
			c0-4.415-3.13-7.995-6.992-8v9.217C16.212,10.12,16.477,10,16.775,10z"/>
		<path fill="#FFD04D" d="M21.955,13.219C21.489,13.09,21.004,13,20.492,13c-0.983,0-1.897,0.258-2.667,0.703
			c-0.558,0.322-1.192,0.483-1.825,0.485v2.856v3.769c0.634,0.001,1.267,0.163,1.825,0.485C18.595,21.742,19.509,22,20.492,22
			c2.757,0,5-2.019,5-4.5C25.492,15.48,23.995,13.786,21.955,13.219z"/>
		<path fill="#2B3332" d="M17.992,11.625c0-0.329-0.827-0.625-1.217-0.625c-0.083,0-0.247,0.082-0.423,0.264
			C16.26,11.36,16.13,11.407,16,11.409v1.086c0.013-0.002,0.026-0.004,0.04-0.004C17.008,12.437,17.992,11.896,17.992,11.625z"/>
		<path fill="#F8A1C4" d="M16.775,10c-0.297,0-0.563,0.12-0.775,0.261v0.648v0.5c0.13-0.002,0.26-0.049,0.352-0.145
			C16.528,11.082,16.691,11,16.775,11c0.391,0,1.217,0.296,1.217,0.625c0,0.271-0.984,0.812-1.952,0.866
			c-0.014,0-0.027,0.002-0.04,0.004v0.5v0.501c0.027,0.002,0.059,0.004,0.068,0.004c0.046,0,0.09-0.006,0.133-0.019
			c1.03-0.09,2.792-0.693,2.792-1.856C18.992,10.4,17.343,10,16.775,10z"/>
		<g>
			<ellipse fill="#F7F7F7" cx="18.25" cy="7.5" rx="1.25" ry="1.5"/>
			<circle fill="#2B3332" cx="18.125" cy="7.5" r="0.5"/>
		</g>
		<g>
			<ellipse fill="#FFFFFF" cx="13.75" cy="7.5" rx="1.25" ry="1.5"/>
			<circle fill="#373F3F" cx="13.875" cy="7.5" r="0.5"/>
		</g>
		<ellipse fill="#E85160" cx="11.5" cy="17.5" rx="3.5" ry="3"/>
		<ellipse fill="#D84459" cx="20.5" cy="17.5" rx="3.5" ry="3"/>
		<path fill="#FAE09F" d="M13.951,0c-2.817,0-5.602,2.562-6.659,6.875C6.93,8.353,6.558,9.758,6.214,11.002
			c-0.799,2.888,0.692,5.906,3.508,7.085l0.538,0.225c0.712,0.298,1.48-0.284,1.378-1.049C11.085,13.121,10.219,3,14.976,3
			C16,3,16,3.688,16,3.688V0.771C16,0.771,16,0,13.951,0z"/>
		<path fill="#F7D684" d="M25.786,11.002c-0.344-1.244-0.716-2.648-1.078-4.127C23.651,2.562,20.866,0,18.049,0
			C16,0,16,0.771,16,0.771v2.917C16,3.688,16,3,17.024,3c4.732,0,3.88,10.126,3.334,14.267c-0.101,0.764,0.667,1.345,1.378,1.047
			l0.541-0.227C25.093,16.908,26.584,13.889,25.786,11.002z"/>
		<path fill="#E3E5E5" d="M6.789,13.527H5.5v6.999c0,0,2.5,0.125,2.5-2.25S6.789,16.052,6.789,13.527z"/>
		<path fill="#DADDDC" d="M4.211,13.527H5.5v6.999c0,0-2.5,0.125-2.5-2.25S4.211,16.052,4.211,13.527z"/>
		<path fill="#DADDDC" d="M25.211,13.527H26.5v6.999c0,0-2.5,0.125-2.5-2.25S25.211,16.052,25.211,13.527z"/>
		<path fill="#D1D4D4" d="M27.789,13.527H26.5v6.999c0,0,2.5,0.125,2.5-2.25S27.789,16.052,27.789,13.527z"/>
		<path fill="#A366AD" d="M30.741,9.173c-0.367-0.349-0.962-0.302-1.269,0.099l-0.416,0.544l-0.081-0.178l1.061-1.758
			c0.279-0.463,0.083-1.061-0.419-1.276c-0.502-0.215-1.082,0.051-1.236,0.567l-0.393,1.312l-0.229-0.047l0.516-2.299
			c0.123-0.55-0.271-1.082-0.842-1.134c-0.571-0.052-1.059,0.399-1.041,0.962l0.071,2.206l-0.313-0.064l-0.38-2.018
			c-0.115-0.611-0.749-0.984-1.351-0.797h0c-0.603,0.188-0.901,0.852-0.637,1.416l1.18,2.518l-0.483,0.894l-0.511-0.537
			c-0.467-0.491-1.267-0.469-1.705,0.048c-0.438,0.516-0.316,1.293,0.259,1.656l1.514,0.955c0.924,2.134,1.863,1.822,3.308,1.592
			c1.193-0.19,1.87-1.725,2.128-2.453l1.211-0.958C31.081,10.108,31.108,9.522,30.741,9.173z"/>
		<path fill="#B370B9" d="M9.736,9.632C9.298,9.116,8.499,9.093,8.032,9.584l-0.511,0.537L7.038,9.227l1.18-2.518
			C8.482,6.145,8.183,5.48,7.58,5.293h0C6.978,5.105,6.344,5.478,6.229,6.089l-0.38,2.018L5.536,8.172l0.071-2.206
			c0.018-0.563-0.47-1.014-1.041-0.962C3.996,5.056,3.601,5.588,3.724,6.138l0.516,2.299L4.012,8.484L3.619,7.172
			C3.464,6.656,2.884,6.39,2.383,6.605C1.881,6.82,1.684,7.418,1.963,7.881l1.061,1.758L2.943,9.817L2.528,9.273
			C2.221,8.871,1.626,8.825,1.259,9.173c-0.367,0.349-0.34,0.934,0.057,1.249l1.211,0.959c0.258,0.729,0.935,2.263,2.128,2.453
			c1.445,0.23,2.384,0.542,3.308-1.592l1.514-0.955C10.053,10.925,10.174,10.148,9.736,9.632z"/>
	</g>
</g>
<g id="labels">
</g>
</svg>
