<?xml version="1.0" encoding="utf-8"?>
<!-- Generator: Adobe Illustrator 23.0.6, SVG Export Plug-In . SVG Version: 6.00 Build 0)  -->
<svg version="1.1" xmlns="http://www.w3.org/2000/svg" xmlns:xlink="http://www.w3.org/1999/xlink" x="0px" y="0px" width="32px"
	 height="32px" viewBox="0 0 32 32" enable-background="new 0 0 32 32" xml:space="preserve">
<g id="icons">
	<g>
		<g>
			<path fill="#F7C845" d="M24.87,30c0,0-0.815,0-1.87,0v-2.375h-3v2.478l-0.382,1.251C19.52,31.675,19.76,32,20.096,32h6.574
				c0.369,0,0.618-0.391,0.455-0.722C26.584,30.177,24.87,30,24.87,30z"/>
			<path fill="#FFD04D" d="M12,30.103v-2.478H9V30c-1.055,0-1.87,0-1.87,0s-1.714,0.177-2.255,1.278C4.712,31.609,4.961,32,5.33,32
				h6.574c0.336,0,0.576-0.325,0.478-0.646L12,30.103z"/>
			<g>
				<path fill="#F7C845" d="M21.901,22l-4.561,4.201c0,0,0.798,1.483,1.967,2.575l4.685-1.513C23.952,24.921,21.901,22,21.901,22z"
					/>
				<path fill="#2B3332" d="M22.588,29.695c1.068-0.512,1.421-1.419,1.404-2.433l-4.685,1.513
					C20.236,29.644,21.4,30.265,22.588,29.695z"/>
			</g>
			<g>
				<path fill="#FFD04D" d="M14.66,26.201L10.099,22c0,0-2.105,3.002-2.088,5.36l4.604,1.487
					C13.827,27.749,14.66,26.201,14.66,26.201z"/>
				<path fill="#373F3F" d="M9.412,29.695c1.155,0.554,2.287-0.019,3.204-0.849L8.011,27.36C8.018,28.333,8.378,29.2,9.412,29.695z"
					/>
			</g>
			<g>
				<polygon fill="#FFD04D" points="23.129,1.399 23.601,1.871 19.83,6.585 18.415,5.17 				"/>
				<circle fill="#FFD96C" cx="23" cy="2" r="1"/>
			</g>
			<g>
				<polygon fill="#FFD96C" points="8.871,1.399 8.399,1.871 12.17,6.585 13.585,5.17 				"/>
				<circle fill="#FFE28A" cx="9" cy="2" r="1"/>
			</g>
			<g>
				<path fill="#F7C845" d="M28.215,16.559l-6.3-3.84l-1.562,2.562l5.416,3.301c0.191,0.116,0.337,0.293,0.416,0.503l2.244,5.984
					l2.809-1.054l-2.607-6.953C28.552,16.853,28.406,16.676,28.215,16.559z"/>
				<path fill="#FFD04D" d="M11.646,15.281l-1.562-2.562l-6.3,3.84c-0.191,0.116-0.337,0.293-0.416,0.503l-2.256,6.017
					c-0.194,0.517,0.068,1.093,0.585,1.287l1.872,0.702l2.244-5.984c0.079-0.209,0.225-0.386,0.416-0.503L11.646,15.281z"/>
				<polygon fill="#373F3F" points="2.382,19.695 5.145,20.871 5.848,18.997 3.085,17.82 				"/>
				<polygon fill="#2B3332" points="28.915,17.82 26.152,18.997 26.855,20.871 29.618,19.695 				"/>
			</g>
			<circle fill="#FFD04D" cx="29.5" cy="23.527" r="2.499"/>
			<circle fill="#FFD96C" cx="2.5" cy="23.527" r="2.499"/>
			<path fill="#FFD04D" d="M16,9c0,4.545,0,15.206,0,17.988c0,0,11.319,0.774,8.569-9.889C22.657,9.682,16,9,16,9z"/>
			<path fill="#FFD96C" d="M16,9c0,4.545,0,15.206,0,17.988c0,0-11.319,0.774-8.569-9.889C9.343,9.682,16,9,16,9z"/>
			<g>
				<path fill="#373F3F" d="M13.031,12l-4.462,6.208C8.331,18.539,8.568,19,8.975,19H15l-2.613,3.92
					c-0.303,0.455,0.239,0.997,0.693,0.693L16,21.667V12H13.031z"/>
				<path fill="#2B3332" d="M18.833,17l3.08-5H16v9.667l5.626-3.751C22.038,17.642,21.843,17,21.349,17H18.833z"/>
			</g>
			<g>
				<path fill="#FFE28A" d="M10,7.5c0,0.004,0,0.007,0,0.011c0.001,0.643-0.357,1.231-0.948,1.485l-1.417,0.18
					c-0.816,0.352-0.855,1.703-0.062,2.123c1.757,0.929,5.075,2.275,6.651,3.204C14.786,14.834,15.393,15,16,15V2
					C12.686,2,10,4.462,10,7.5z"/>
				<path fill="#FFD96C" d="M24.427,11.299c0.793-0.42,0.754-1.771-0.062-2.123l-1.417-0.18C22.357,8.741,21.999,8.153,22,7.511
					c0-0.004,0-0.007,0-0.011C22,4.462,19.314,2,16,2v13c0.607,0,1.214-0.166,1.776-0.497
					C19.352,13.574,22.669,12.228,24.427,11.299z"/>
			</g>
			<path fill="#2B3332" d="M24.932,19.042l-7.815,4.885c-0.077,0.048-0.139,0.116-0.18,0.197l-0.298,0.584
				c-0.214,0.419,0.216,0.874,0.647,0.685l7.475-3.287C24.987,21.244,25.064,20.233,24.932,19.042z"/>
			<g>
				<path fill="#FFFFFF" d="M13.5,10H13c-0.552,0-1-0.448-1-1V7.604c0-0.223,0.269-0.334,0.427-0.177l0.601,0.601
					C13.011,8.177,13,8.334,13,8.5C13,9.328,13.224,10,13.5,10z M13.972,8.972C13.906,9.568,13.721,10,13.5,10h0.896
					c0.223,0,0.334-0.269,0.177-0.427L13.972,8.972z"/>
				<path fill="#373F3F" d="M13.972,8.972l-0.944-0.944C13.011,8.177,13,8.334,13,8.5c0,0.828,0.224,1.5,0.5,1.5
					C13.721,10,13.906,9.568,13.972,8.972z"/>
			</g>
			<g>
				<path fill="#F7F7F7" d="M19.573,7.427C19.731,7.269,20,7.381,20,7.604V9c0,0.552-0.448,1-1,1h-0.5c0.276,0,0.5-0.672,0.5-1.5
					c0-0.166-0.011-0.323-0.028-0.472L19.573,7.427z M18.028,8.972l-0.601,0.601C17.269,9.731,17.381,10,17.604,10H18.5
					C18.279,10,18.094,9.568,18.028,8.972z"/>
				<path fill="#2B3332" d="M18.028,8.972l0.944-0.944C18.989,8.177,19,8.334,19,8.5c0,0.828-0.224,1.5-0.5,1.5
					C18.279,10,18.094,9.568,18.028,8.972z"/>
			</g>
		</g>
		<g>
			<path fill="#373F3F" d="M15.82,7.369l-2.212-2.293c-0.119-0.123-0.324-0.093-0.402,0.059L13.07,5.4
				c-0.043,0.083-0.036,0.183,0.018,0.259l2.708,3.81c0.051,0.072,0.13,0.104,0.21,0.102V7.443
				C15.938,7.445,15.871,7.422,15.82,7.369z"/>
			<path fill="#2B3332" d="M18.912,5.659c0.054-0.076,0.061-0.176,0.018-0.259l-0.136-0.264c-0.078-0.152-0.283-0.182-0.402-0.059
				L16.18,7.369c-0.048,0.049-0.111,0.072-0.174,0.074v2.128c0.075-0.002,0.149-0.034,0.198-0.102L18.912,5.659z"/>
		</g>
		<g>
			<path fill="#FFD96C" d="M15.762,1.173l-0.731,2.264l0.251,0.259C15.478,3.899,15.739,4,16,4V1C15.9,1,15.8,1.058,15.762,1.173z"
				/>
			<path fill="#FFD04D" d="M16.719,3.696l0.251-0.259l-0.731-2.264C16.201,1.058,16.1,1,16,1v3C16.261,4,16.522,3.899,16.719,3.696z
				"/>
		</g>
		<g>
			<path fill="#373F3F" d="M15.455,12.06l-0.293-0.25c-0.103-0.089-0.262-0.078-0.352,0.028c-0.09,0.105-0.077,0.263,0.028,0.352
				l0.293,0.25c0.244,0.208,0.556,0.312,0.869,0.312v-0.503C15.802,12.249,15.603,12.186,15.455,12.06z"/>
			<path fill="#2B3332" d="M17.162,12.19c0.105-0.089,0.118-0.247,0.028-0.352c-0.09-0.105-0.248-0.117-0.352-0.028l-0.293,0.25
				c-0.148,0.126-0.346,0.189-0.545,0.189v0.503c0.313,0,0.625-0.104,0.869-0.312L17.162,12.19z"/>
		</g>
	</g>
</g>
<g id="labels">
</g>
</svg>
