<?xml version="1.0" encoding="utf-8"?>
<!-- Generator: Adobe Illustrator 23.0.6, SVG Export Plug-In . SVG Version: 6.00 Build 0)  -->
<svg version="1.1" xmlns="http://www.w3.org/2000/svg" xmlns:xlink="http://www.w3.org/1999/xlink" x="0px" y="0px" width="32px"
	 height="32px" viewBox="0 0 32 32" enable-background="new 0 0 32 32" xml:space="preserve">
<g id="icons">
	<g>
		<g>
			<path fill="#EDEEEE" d="M9,21l-7.151,1.589c-0.785,0.174-1.444-0.601-1.145-1.348l1.145-2.864c0.04-0.101,0.053-0.208,0.06-0.315
				L9,20.274V21z"/>
			<path fill="#F7F7F7" d="M1.844,17.624L0.495,14.37L0.203,13.27L6,16l3,4v0.274l-7.092-2.211
				C1.917,17.914,1.902,17.764,1.844,17.624z"/>
		</g>
		<g>
			<path fill="#E3E5E5" d="M23,20.935l7.151,1.589c0.785,0.174,1.444-0.601,1.145-1.348l-1.145-2.864
				c-0.04-0.101-0.053-0.208-0.06-0.315L23,20.209V20.935z"/>
			<path fill="#EDEEEE" d="M30.156,17.624l1.349-3.254l0.292-1.099L26,16l-3,4v0.274l7.092-2.211
				C30.083,17.914,30.098,17.764,30.156,17.624z"/>
		</g>
		<path fill="#FFD96C" d="M9.321,21.113l0.801-0.6l-3.166-4.142c0,0-5.609-2.97-6.234-3.303c-0.625-0.333-1.25,0.646,0,1.175
			c0.75,0.388,5.667,2.96,5.667,2.96L9.321,21.113z"/>
		<path fill="#FFD04D" d="M22.679,21.113l-0.801-0.6l3.166-4.142c0,0,5.609-2.97,6.234-3.303c0.625-0.333,1.25,0.646,0,1.175
			c-0.75,0.388-5.667,2.96-5.667,2.96L22.679,21.113z"/>
		<g>
			<path fill="#FFE28A" d="M15.757,0.189L14.92,4.053C9.758,4.575,8,8.981,8,16.3c0,4.862,2.327,6.998,4.472,7.945L14,19.113h2V0
				C15.894,0,15.789,0.063,15.757,0.189z"/>
			<path fill="#FFD96C" d="M17.08,4.053l-0.837-3.863C16.211,0.063,16.105,0,16,0v19.113h2l1.528,5.133
				C21.673,23.298,24,21.162,24,16.3C24,8.981,22.242,4.575,17.08,4.053z"/>
		</g>
		<g>
			<path fill="#FFE28A" d="M14,23v4.941c0,0.264,0.356,0.348,0.474,0.112L15,27l0.776,1.553c0.046,0.092,0.135,0.138,0.224,0.138V23
				H14z"/>
			<path fill="#FFD96C" d="M16.224,28.553L17,27l0.526,1.053C17.644,28.289,18,28.205,18,27.941V23h-2v5.691
				C16.089,28.691,16.178,28.645,16.224,28.553z"/>
		</g>
		<g>
			<path fill="#FFD96C" d="M16,24.999v-5.886h-2l-1.528,5.133C14.302,25.054,16,24.999,16,24.999z"/>
			<path fill="#FFD04D" d="M16,19.113v5.886c0,0,1.698,0.055,3.528-0.754L18,19.113H16z"/>
		</g>
		<path fill="#F7F7F7" d="M10.566,8.158c0,0-2.007-0.813-3.171,1.248s0.802,3.702,0.802,3.702s1.675-0.399,2.413-1.889
			C11.513,9.398,10.566,8.158,10.566,8.158z"/>
		<path fill="#EDEEEE" d="M21.434,8.158c0,0,2.007-0.813,3.171,1.248c1.164,2.061-0.802,3.702-0.802,3.702s-1.675-0.399-2.413-1.889
			C20.487,9.398,21.434,8.158,21.434,8.158z"/>
		<path fill="#F57552" d="M18.546,17.508l-0.902-1.89C17.465,15.244,17.043,15,16.574,15h-1.148c-0.469,0-0.891,0.244-1.07,0.619
			l-0.902,1.89c0.81-0.191,1.662-0.3,2.546-0.3C16.884,17.208,17.736,17.317,18.546,17.508z"/>
		<circle fill="#373F3F" cx="8.5" cy="10.5" r="0.5"/>
		<circle fill="#2B3332" cx="23.5" cy="10.5" r="0.5"/>
		<g>
			<path fill="#FFEAA7" d="M15.39,21c-0.457,0-0.871-0.232-1.057-0.593l-0.974-1.885c-0.129-0.25-0.134-0.535-0.013-0.789
				l1.01-2.115C14.535,15.244,14.957,15,15.426,15H16v-1h-1.349c-0.469,0-0.891,0.244-1.07,0.619l-1.494,3.13
				c-0.121,0.253-0.116,0.538,0.013,0.789l1.482,2.87c0.186,0.36,0.6,0.593,1.057,0.593H16v-1H15.39z"/>
			<g>
				<path fill="#FF805D" d="M13.454,17.508l-0.108,0.225c-0.121,0.253-0.116,0.538,0.013,0.789l0.974,1.885
					c0.186,0.36,0.6,0.593,1.057,0.593H16v-3.792C15.116,17.208,14.264,17.317,13.454,17.508z"/>
				<path fill="#EB6B48" d="M18.653,17.734l-1.01-2.115C17.465,15.244,17.043,15,16.574,15H16v2.208c0.884,0,1.736,0.109,2.546,0.3
					L18.653,17.734z"/>
				<path fill="#F57552" d="M18.653,17.734l-0.108-0.225c-0.81-0.191-1.662-0.3-2.546-0.3V21h0.61c0.343,0,0.661-0.131,0.878-0.348
					c0.072-0.072,0.133-0.155,0.179-0.245l0.974-1.885C18.77,18.272,18.774,17.987,18.653,17.734z"/>
			</g>
			<path fill="#FFE28A" d="M18.417,21.407l1.482-2.87c0.129-0.25,0.134-0.535,0.013-0.789l-1.494-3.13
				C18.24,14.244,17.818,14,17.349,14H16v1h0.574c0.469,0,0.891,0.244,1.07,0.619l1.01,2.115c0.121,0.253,0.116,0.538-0.013,0.789
				l-0.974,1.885C17.481,20.768,17.067,21,16.61,21H16v1h1.36C17.817,22,18.231,21.768,18.417,21.407z"/>
		</g>
		<path fill="#FFEAA7" d="M27.411,32c-0.859,0-1.812-0.274-2.597-0.962c-0.952-0.835-1.929-2.525-1.177-5.832
			c0.406-1.789,0.27-3.161-0.405-4.08c-0.755-1.027-1.936-1.132-1.948-1.133c-0.274-0.022-0.48-0.263-0.458-0.538
			c0.021-0.276,0.269-0.482,0.538-0.459c0.066,0.005,1.65,0.146,2.674,1.538c0.854,1.163,1.048,2.809,0.574,4.894
			c-0.643,2.827,0.114,4.203,0.862,4.858c0.891,0.781,2.103,0.84,2.853,0.562c0.256-0.095,0.547,0.037,0.642,0.296
			c0.096,0.259-0.036,0.547-0.296,0.643C28.306,31.921,27.872,32,27.411,32z"/>
		<path fill="#FEF1C6" d="M4.589,32c0.859,0,1.812-0.274,2.597-0.962c0.952-0.835,1.929-2.525,1.177-5.832
			c-0.406-1.789-0.27-3.161,0.405-4.08c0.755-1.027,1.936-1.132,1.948-1.133c0.274-0.022,0.48-0.263,0.458-0.538
			c-0.021-0.276-0.269-0.482-0.538-0.459c-0.066,0.005-1.65,0.146-2.674,1.538c-0.854,1.163-1.048,2.809-0.574,4.894
			c0.643,2.827-0.114,4.203-0.862,4.858c-0.891,0.781-2.103,0.84-2.853,0.562c-0.256-0.095-0.547,0.037-0.642,0.296
			c-0.096,0.259,0.036,0.547,0.296,0.643C3.694,31.921,4.128,32,4.589,32z"/>
	</g>
</g>
<g id="labels">
</g>
</svg>
