<?xml version="1.0" encoding="utf-8"?>
<!-- Generator: Adobe Illustrator 23.0.6, SVG Export Plug-In . SVG Version: 6.00 Build 0)  -->
<svg version="1.1" xmlns="http://www.w3.org/2000/svg" xmlns:xlink="http://www.w3.org/1999/xlink" x="0px" y="0px" width="32px"
	 height="32px" viewBox="0 0 32 32" enable-background="new 0 0 32 32" xml:space="preserve">
<g id="icons">
	<g>
		<path fill="#D1D4D4" d="M8.67,22.001l-1.678-3.527c-0.088-0.185-0.054-0.404,0.084-0.554l0.172-0.186
			c0.165-0.179,0.436-0.213,0.64-0.08l2.618,1.705l0.509-0.967l-0.411-1.442c-0.059-0.206,0.02-0.426,0.196-0.548l0.201-0.139
			c0.184-0.127,0.43-0.117,0.602,0.025l0.951,0.782l-0.876,2.439L8.67,22.001z"/>
		<ellipse fill="#D1D4D4" cx="8.322" cy="25.778" rx="1.848" ry="1.619"/>
		<path fill="#8EC0E0" d="M13.395,10.206c0,0-0.051,6.864-2.121,9.86c-1.759,2.547-3.46,5.358-3.46,5.358s-0.26,1.674-0.26,1.972
			c0,0-2.194-0.583-4.502-0.112C1.271,27.649,0,28.588,0,30.708l4.949,0.595l9.935-5.023l0.185-15.075L13.395,10.206z"/>
		<path fill="#FDEBBB" d="M16,11.546l-1.935-0.707c0,0-0.893,14.177-4.763,17.191S0,30.708,0,30.708s3.758,1.935,6.958,1.005
			c3.2-0.93,3.944-1.674,3.944-1.674S12.8,31.75,16,31.75V11.546z"/>
		<path fill="#DADDDC" d="M12.092,19.843c0,0-2.523,2.605-3.236,5.209c-0.635,2.319-3.2,0-1.935-2.009s3.267-5.063,5.634-5.974
			L12.092,19.843z"/>
		<path fill="#8EC0E0" d="M13.113,2.952C13.113,2.952,13,1,11.075,1S7.472,4.423,8.156,5.757s2.206,2.175,3.418,1.044
			S13.113,2.952,13.113,2.952z"/>
		<path fill="#7FB8E0" d="M11.508,6.142c-0.014,0-0.028-0.001-0.042-0.003c-0.136-0.023-0.228-0.152-0.205-0.289
			c0.101-0.594,0.199-2.216-0.541-2.576c-0.171-0.083-0.334-0.092-0.501-0.029c-0.471,0.178-0.854,0.891-0.961,1.15
			C9.206,4.524,9.06,4.584,8.932,4.531C8.804,4.478,8.744,4.332,8.796,4.205c0.019-0.046,0.475-1.134,1.244-1.427
			c0.297-0.114,0.602-0.097,0.899,0.047c1.227,0.597,0.832,3.007,0.815,3.109C11.733,6.056,11.628,6.142,11.508,6.142z"/>
		<path fill="#C8CCCB" d="M23.33,22.001l1.678-3.527c0.088-0.185,0.054-0.404-0.084-0.554l-0.172-0.186
			c-0.165-0.179-0.436-0.213-0.64-0.08l-2.618,1.705l-0.509-0.967l0.411-1.442c0.059-0.206-0.02-0.426-0.196-0.548l-0.201-0.139
			c-0.184-0.127-0.43-0.117-0.602,0.025l-0.951,0.782l0.876,2.439L23.33,22.001z"/>
		<ellipse fill="#C8CCCB" cx="23.678" cy="25.778" rx="1.848" ry="1.619"/>
		<path fill="#7FB8E0" d="M18.605,10.206c0,0,0.051,6.864,2.121,9.86c1.759,2.547,3.46,5.358,3.46,5.358s0.26,1.674,0.26,1.972
			c0,0,2.194-0.583,4.502-0.112C30.729,27.649,32,28.588,32,30.708l-4.949,0.595l-9.935-5.023l-0.185-15.075L18.605,10.206z"/>
		<path fill="#FAE09F" d="M16,11.546l1.935-0.707c0,0,0.893,14.177,4.763,17.191S32,30.708,32,30.708s-3.758,1.935-6.958,1.005
			c-3.2-0.93-3.944-1.674-3.944-1.674S19.2,31.75,16,31.75V11.546z"/>
		<path fill="#D1D4D4" d="M19.908,19.843c0,0,2.523,2.605,3.236,5.209c0.635,2.319,3.2,0,1.935-2.009
			c-1.265-2.009-3.267-5.063-5.634-5.974L19.908,19.843z"/>
		<path fill="#7FB8E0" d="M18.887,2.952C18.887,2.952,19,1,20.925,1s3.603,3.423,2.919,4.757c-0.684,1.334-2.206,2.175-3.418,1.044
			S18.887,2.952,18.887,2.952z"/>
		<path fill="#71B1E1" d="M20.574,6.142c-0.12,0-0.225-0.086-0.246-0.208c-0.017-0.103-0.412-2.513,0.815-3.109
			c0.298-0.145,0.6-0.161,0.898-0.047c0.77,0.293,1.225,1.381,1.244,1.427c0.053,0.127-0.008,0.273-0.136,0.326
			c-0.124,0.054-0.273-0.007-0.326-0.136c-0.108-0.259-0.49-0.972-0.96-1.151c-0.166-0.062-0.33-0.053-0.501,0.03
			c-0.74,0.36-0.641,1.982-0.541,2.576c0.023,0.136-0.069,0.265-0.205,0.289C20.602,6.141,20.588,6.142,20.574,6.142z"/>
		<g>
			<path fill="#8EC0E0" d="M10.125,12.542c0.336,2.144,1.354,3.049,2.899,4.27c1.546,1.221,2.971,1.154,2.971,1.154v-2.547
				C13.806,15.419,11.784,14.347,10.125,12.542z"/>
			<path fill="#7FB8E0" d="M15.994,15.419v2.547c0,0,1.118,0.067,2.971-1.154c1.645-1.084,2.612-2.078,2.916-4.29
				C20.219,14.339,18.191,15.419,15.994,15.419z"/>
			<path fill="#9FC9E4" d="M15.994,15.419V1.99c0,0-2.285-0.304-3.502,1.247c-1.229,1.458-2.439,3.612-2.496,7.318
				c-0.012,0.778,0.04,1.417,0.129,1.987C11.784,14.347,13.806,15.419,15.994,15.419z"/>
			<path fill="#8EC0E0" d="M19.496,3.237c-1.217-1.551-3.502-1.247-3.502-1.247v13.429c2.197,0,4.225-1.08,5.886-2.897
				c0.079-0.572,0.124-1.206,0.112-1.967C21.936,6.85,20.726,4.695,19.496,3.237z"/>
		</g>
		<g>
			<path fill="#F7F7F7" d="M19.989,9.196c-0.144,0.107-0.283,0.228-0.416,0.356c0.313,0.456,0.508,1.078,0.508,1.765
				c0,0.158-0.013,0.312-0.033,0.462c0.357-0.14,0.603-0.328,0.737-0.449c0.081-0.073,0.135-0.169,0.155-0.276
				c0.064-0.34,0.164-1.167-0.235-1.746C20.543,9.074,20.218,9.026,19.989,9.196z"/>
			<path fill="#4390BF" d="M19.573,9.552c-0.109,0.105-0.213,0.216-0.314,0.33c0.027,0.15,0.045,0.313,0.045,0.49
				c0,0.639-0.2,1.157-0.446,1.157c-0.164,0-0.302-0.241-0.379-0.585c-0.055,0.088-0.106,0.173-0.152,0.252
				c-0.184,0.316,0.021,0.716,0.385,0.752c0.553,0.055,0.994-0.037,1.334-0.171c0.02-0.15,0.033-0.304,0.033-0.462
				C20.081,10.629,19.886,10.008,19.573,9.552z"/>
			<path fill="#2B3332" d="M18.859,11.53c0.246,0,0.446-0.518,0.446-1.157c0-0.177-0.018-0.34-0.045-0.49
				c-0.31,0.352-0.574,0.732-0.78,1.063C18.557,11.288,18.695,11.53,18.859,11.53z"/>
		</g>
		<g>
			<path fill="#FFFFFF" d="M12.011,9.196c0.144,0.107,0.283,0.228,0.416,0.356c-0.313,0.456-0.508,1.078-0.508,1.765
				c0,0.158,0.013,0.312,0.033,0.462c-0.357-0.14-0.603-0.328-0.737-0.449c-0.081-0.073-0.135-0.169-0.155-0.276
				c-0.064-0.34-0.164-1.167,0.235-1.746C11.457,9.074,11.782,9.026,12.011,9.196z"/>
			<path fill="#4896C8" d="M12.427,9.552c0.109,0.105,0.213,0.216,0.314,0.33c-0.027,0.15-0.045,0.313-0.045,0.49
				c0,0.639,0.2,1.157,0.446,1.157c0.164,0,0.302-0.241,0.379-0.585c0.055,0.088,0.106,0.173,0.152,0.252
				c0.184,0.316-0.021,0.716-0.385,0.752c-0.553,0.055-0.994-0.037-1.334-0.171c-0.02-0.15-0.033-0.304-0.033-0.462
				C11.919,10.629,12.114,10.008,12.427,9.552z"/>
			<path fill="#373F3F" d="M13.141,11.53c-0.246,0-0.446-0.518-0.446-1.157c0-0.177,0.018-0.34,0.045-0.49
				c0.31,0.352,0.574,0.732,0.78,1.063C13.443,11.288,13.305,11.53,13.141,11.53z"/>
		</g>
		<g>
			<path fill="#C1DDEE" d="M15.598,1.186l-0.586,0.729c-0.054,0.067-0.089,0.147-0.099,0.232l-0.367,2.827
				c-0.025,0.195,0.077,0.386,0.259,0.479l0.953,0.491C15.833,5.982,15.917,6.001,16,6V1C15.85,0.998,15.699,1.06,15.598,1.186z"/>
			<path fill="#9FC9E4" d="M17.185,5.453c0.182-0.093,0.284-0.284,0.259-0.479l-0.367-2.827c-0.011-0.084-0.045-0.164-0.099-0.232
				l-0.586-0.729C16.292,1.063,16.146,1.002,16,1v5c0.08-0.001,0.159-0.019,0.232-0.057L17.185,5.453z"/>
		</g>
	</g>
</g>
<g id="labels">
</g>
</svg>
