<?xml version="1.0" encoding="utf-8"?>
<!-- Generator: Adobe Illustrator 23.0.6, SVG Export Plug-In . SVG Version: 6.00 Build 0)  -->
<svg version="1.1" xmlns="http://www.w3.org/2000/svg" xmlns:xlink="http://www.w3.org/1999/xlink" x="0px" y="0px" width="32px"
	 height="32px" viewBox="0 0 32 32" enable-background="new 0 0 32 32" xml:space="preserve">
<g id="icons">
	<g>
		<g>
			<path fill="#7FB8E0" d="M15.999,22.703c-0.289-0.059-0.579-0.119-0.865-0.189c-1.436-0.352-2.898-0.774-4.248-1.381
				c-1.372-0.616-2.701-1.508-4.258-1.51c-1.677-0.002-3.683,1.047-5.448,1.042c-0.233,0.243-0.44,0.513-0.59,0.842
				c-0.348,0.762-0.533,1.595-0.578,2.43c-0.057,1.047,0.472,2.171,1.119,2.966C2.908,29.093,5.751,26.997,7.941,27
				c1.34,0.002,2.482,0.768,3.662,1.298c1.161,0.522,2.418,0.884,3.653,1.187c0.246,0.06,0.495,0.111,0.744,0.162L15.999,22.703
				C16,22.703,16,22.703,15.999,22.703z"/>
			<path fill="#71B1E1" d="M28.697,21.514c-1.776-0.479-3.172-0.877-4.96-0.127c-1.244,0.521-2.428,1.279-3.779,1.505
				c-1.322,0.221-2.655,0.08-3.959-0.188v6.945c1.121,0.23,2.268,0.351,3.405,0.162c1.161-0.194,2.179-0.846,3.249-1.294
				c1.538-0.645,2.738-0.302,4.265,0.11c2.013,0.542,3.685,0.098,4.711-1.838c0.905-1.707,0.008-3.445-1.173-5.031
				C29.901,21.761,29.314,21.68,28.697,21.514z"/>
			<path fill="#8EC0E0" d="M10.886,21.134c1.351,0.607,2.812,1.029,4.248,1.381c0.286,0.07,0.576,0.129,0.865,0.189c0,0,0,0,0,0
				L16,2.97C14.82,2.924,12.978,2,11.894,2c-1.226,0-1.779,1.08-2.611,1.798c-1.262,1.09-2.991,0.83-4.426,1.536
				C4.243,5.636,3.688,6.091,3.356,6.69c-0.721,1.302-0.232,2.674,0.107,3.998c0.488,1.907,0.994,3.954,0.688,5.932
				c-0.142,0.917-0.479,1.773-1.126,2.451c-0.569,0.597-1.29,1.012-1.847,1.594c1.766,0.006,3.771-1.044,5.448-1.042
				C8.185,19.626,9.514,20.518,10.886,21.134z"/>
			<path fill="#7FB8E0" d="M30,11.814c0-1.387-0.813-2.001-2.019-2.433c-1.398-0.501-2.667-1.033-3.517-2.326
				c-0.801-1.217-1.226-2.674-2.224-3.761c-0.68-0.74-1.686-1.285-2.714-1.2c-1.206,0.1-2.2,0.895-3.451,0.883
				c-0.023,0-0.051-0.006-0.075-0.007v19.733c1.304,0.267,2.637,0.408,3.959,0.188c1.35-0.226,2.534-0.983,3.779-1.505
				c1.789-0.75,3.184-0.351,4.96,0.127c0.617,0.166,1.204,0.247,1.759,0.243c-1.111-1.491-2.472-2.849-2.828-3.915
				C26.893,15.641,30,14.308,30,11.814z"/>
		</g>
		<circle fill="#373F3F" cx="12.5" cy="7.5" r="0.5"/>
		<circle fill="#2B3332" cx="19.5" cy="7.5" r="0.5"/>
		<g>
			<g>
				<path fill="#2B3332" d="M10.079,9.763C9.95,9.719,9.807,9.791,9.763,9.921c-0.043,0.131,0.027,0.272,0.158,0.316
					c0.124,0.041,3.073,1.013,6.079,1.013v-0.5C13.077,10.75,10.109,9.772,10.079,9.763z"/>
				<path fill="#2B3332" d="M22.237,9.921c-0.044-0.131-0.184-0.202-0.316-0.158c-0.03,0.01-2.998,0.987-5.921,0.987v0.5
					c3.006,0,5.955-0.972,6.079-1.013C22.21,10.193,22.281,10.052,22.237,9.921z"/>
			</g>
			<g>
				<path fill="#373F3F" d="M10.079,9.763C9.95,9.719,9.807,9.791,9.763,9.921c-0.043,0.131,0.027,0.272,0.158,0.316
					c0.124,0.041,3.073,1.013,6.079,1.013v-0.5C13.077,10.75,10.109,9.772,10.079,9.763z"/>
				<path fill="#2B3332" d="M22.237,9.921c-0.044-0.131-0.184-0.202-0.316-0.158c-0.03,0.01-2.998,0.987-5.921,0.987v0.5
					c3.006,0,5.955-0.972,6.079-1.013C22.21,10.193,22.281,10.052,22.237,9.921z"/>
			</g>
		</g>
	</g>
</g>
<g id="labels">
</g>
</svg>
