<?xml version="1.0" encoding="utf-8"?>
<!-- Generator: Adobe Illustrator 23.0.6, SVG Export Plug-In . SVG Version: 6.00 Build 0)  -->
<svg version="1.1" xmlns="http://www.w3.org/2000/svg" xmlns:xlink="http://www.w3.org/1999/xlink" x="0px" y="0px" width="32px"
	 height="32px" viewBox="0 0 32 32" enable-background="new 0 0 32 32" xml:space="preserve">
<g id="icons">
	<g>
		<g>
			<path fill="#865193" d="M22.852,23.315l0.379-0.51c0.053-0.071,0.14-0.109,0.228-0.099l0.824,0.09
				c0.131,0.014,0.25-0.075,0.273-0.204l0.091-0.507c0.008-0.045,0.028-0.087,0.058-0.121l0.664-0.753
				c0.076-0.087,0.083-0.214,0.017-0.309l-0.499-0.714c-0.042-0.059-0.055-0.134-0.038-0.204l0.196-0.779
				c0.022-0.087-0.005-0.18-0.07-0.242l-0.658-0.626c-0.068-0.065-0.094-0.162-0.068-0.252l0.358-1.214
				c0.068-0.231,0.392-0.242,0.475-0.015l1.91,5.229c0.017,0.047,0.02,0.099,0.007,0.148l-1.058,4.142
				c-0.03,0.119-0.143,0.199-0.265,0.187c-0.704-0.067-2.921-0.277-3.033-0.28c-0.985-0.025-1.194-2.087-1.238-2.96
				c-0.009-0.181,0.173-0.31,0.342-0.244l0.812,0.321C22.665,23.44,22.785,23.406,22.852,23.315z"/>
			<g>
				<path fill="#D285D2" d="M30.988,9.465c-0.031-0.423-0.67-0.621-0.97-0.321c-0.766,0.765-2.018,1.407-3.286,1.389
					c-2.736-0.04-2.116,3.68-2.323,4.821c-0.082,0.453,0.268,1.527,0.656,2.759c0.59,1.87,1.271,4.108,0.671,5.119
					c-0.996,1.677-4.231,0.854-4.231,0.854l-2.904,2.98c1.641,0.387,4.193,0.714,6.55-0.148c2.908-1.063,2.453-4.827,2.046-6.638
					c-0.302-0.427-0.552-0.865-0.76-1.3c-0.941-1.969-0.986-3.843-0.702-3.979c1.043-0.497,2.17-0.82,3.22-1.312
					c1.227-0.574,1.869-1.4,2.032-2.733C30.988,10.956,31.042,10.191,30.988,9.465z"/>
				<path fill="#C27BC6" d="M25.152,26.917c-2.357,0.862-4.909,0.536-6.55,0.148l-1.825,1.873c0,0,3.567,1.742,8.255,0.763
					c4.687-0.979,5.268-6.031,2.904-8.52c-0.275-0.289-0.517-0.593-0.737-0.902C27.606,22.09,28.06,25.853,25.152,26.917z"/>
			</g>
			<path fill="#C27BC6" d="M20.909,28.067c0.148-0.332,0.31-0.707,0.503-1.147c1.676-3.83-0.825-10.621-0.93-10.778h-4.493v13.821
				c1.59,0.098,2.509,0.234,3.135,0.152C19.359,30.636,19.88,31,20.488,31c0.828,0,1.5-0.672,1.5-1.5
				C21.988,28.819,21.531,28.25,20.909,28.067z"/>
			<path fill="#D285D2" d="M11.495,16.143c-0.105,0.157-2.606,6.948-0.93,10.778c0.192,0.439,0.355,0.815,0.503,1.147
				c-0.622,0.183-1.079,0.751-1.079,1.433c0,0.828,0.672,1.5,1.5,1.5c0.608,0,1.13-0.364,1.365-0.884
				c0.626,0.082,1.546-0.055,3.135-0.152V16.143H11.495z"/>
			<g>
				<path fill="#D799D6" d="M14.988,30.232V19.593l-4.005,0.876c0,0,1.373,6.912,1.572,9.345c-0.514,0.206-0.861,0.578-0.861,1.007
					c0,0.651,0.792,1.179,1.769,1.179c0.977,0,1.769-0.528,1.769-1.179C15.233,30.605,15.14,30.406,14.988,30.232z"/>
				<path fill="#D285D2" d="M19.42,29.814c0.2-2.408,1.572-9.093,1.572-9.093l-4.005-1.128v10.639
					c-0.151,0.174-0.245,0.373-0.245,0.589c0,0.651,0.792,1.179,1.769,1.179c0.977,0,1.769-0.528,1.769-1.179
					C20.281,30.392,19.934,30.02,19.42,29.814z"/>
			</g>
			<g>
				<path fill="#F7F7F7" d="M15.627,2.198l-0.721,0.788c-0.943,1.031-2.368,1.476-3.731,1.166l-1.041-0.237
					C9.758,3.829,9.39,4.09,9.347,4.473l-0.12,1.061C9.07,6.922,8.18,8.119,6.896,8.669L5.913,9.09
					c-0.355,0.152-0.499,0.578-0.309,0.914l0.528,0.933c0.687,1.214,0.67,2.703-0.044,3.901L5.54,15.76
					c-0.197,0.331-0.063,0.761,0.288,0.921l0.975,0.445c1.269,0.579,2.131,1.793,2.257,3.182l0.097,1.067
					c0.035,0.384,0.396,0.653,0.774,0.576l1.047-0.213c1.369-0.279,2.782,0.198,3.702,1.25l0.703,0.804
					c0.157,0.18,0.388,0.237,0.605,0.197V2.012C15.855,2.037,15.726,2.09,15.627,2.198z"/>
				<path fill="#EDEEEE" d="M17.07,23.014c0.943-1.031,2.368-1.476,3.731-1.166l1.041,0.237c0.377,0.086,0.744-0.175,0.787-0.559
					l0.12-1.061c0.157-1.388,1.047-2.585,2.332-3.135l0.982-0.421c0.355-0.152,0.499-0.578,0.309-0.914l-0.528-0.933
					c-0.687-1.214-0.67-2.703,0.044-3.901l0.549-0.921C26.634,9.909,26.5,9.48,26.149,9.32l-0.975-0.445
					c-1.269-0.579-2.131-1.793-2.257-3.182l-0.097-1.067c-0.035-0.384-0.396-0.653-0.774-0.576l-1.047,0.213
					c-1.369,0.279-2.782-0.198-3.702-1.25l-0.703-0.804c-0.157-0.18-0.388-0.237-0.605-0.197v21.976
					c0.133-0.025,0.262-0.078,0.361-0.186L17.07,23.014z"/>
			</g>
			<path fill="#FFF3D9" d="M0.988,2c0,0,0.987,2.276,0.915,3.311C1.89,5.492,1.994,5.661,2.149,5.756
				C2.602,6.034,3.12,6.205,3.197,7.176C3.209,7.334,3.281,7.481,3.412,7.57C3.84,7.86,4.784,8.585,4.747,9.308
				C4.734,9.562,4.95,9.772,5.199,9.822L11.079,11l0.886-1.828L0.988,2z"/>
			<path fill="#945BA0" d="M12.988,7.625L1.365,1.702c-0.255-0.13-0.494,0.201-0.29,0.4C3.148,4.123,7.804,8.28,11.702,9
				L12.988,7.625z"/>
			<path fill="#8C5699" d="M18.988,7.625l11.623-5.923c0.255-0.13,0.494,0.201,0.29,0.4C28.828,4.123,24.172,8.28,20.274,9
				L18.988,7.625z"/>
			<path fill="#FDEBBB" d="M30.988,2c0,0-0.987,2.276-0.915,3.311c0.013,0.181-0.091,0.35-0.246,0.445
				c-0.454,0.279-0.971,0.449-1.048,1.421c-0.013,0.158-0.084,0.305-0.215,0.393c-0.428,0.29-1.372,1.015-1.335,1.738
				c0.013,0.254-0.202,0.464-0.451,0.514L20.897,11l-0.886-1.828L30.988,2z"/>
			<g>
				<path fill="#D799D6" d="M15.464,10.51c-0.568-0.358-1.48-0.826-2.133-0.635c-0.913,0.267-2.497,1.32-3.339,1.908
					C9.948,13.845,10.49,16.239,11.369,17c0.951,0.823,3.466,1.644,4.326,1.909c0.101,0.031,0.203,0.044,0.305,0.043V10.66
					C15.814,10.662,15.627,10.613,15.464,10.51z"/>
				<path fill="#945BA0" d="M15.464,10.51c0.163,0.103,0.349,0.152,0.536,0.15V7h-0.688c-1.665,0-3.31,0.572-4.354,1.709
					c-0.423,0.461-0.704,1.025-0.824,1.639c-0.086,0.438-0.131,0.927-0.142,1.435c0.843-0.588,2.426-1.641,3.339-1.908
					C13.985,9.684,14.896,10.152,15.464,10.51z"/>
				<path fill="#D285D2" d="M20.609,17c0.879-0.761,1.421-3.155,1.377-5.217c-0.843-0.588-2.426-1.641-3.339-1.908
					c-0.653-0.191-1.564,0.277-2.131,0.635c-0.157,0.099-0.336,0.148-0.515,0.15v8.292c0.094-0.001,0.188-0.014,0.281-0.043
					C17.141,18.644,19.658,17.823,20.609,17z"/>
				<path fill="#8C5699" d="M16.515,10.51c0.568-0.358,1.478-0.826,2.131-0.635c0.913,0.267,2.497,1.32,3.339,1.908
					c-0.011-0.508-0.057-0.996-0.142-1.434c-0.12-0.614-0.401-1.178-0.824-1.639C19.976,7.571,18.33,7,16.665,7H16v3.66
					C16.179,10.658,16.358,10.609,16.515,10.51z"/>
			</g>
			<g>
				<path fill="#373F3F" d="M14.231,13.34c-0.035,0.243-0.234,0.433-0.486,0.433c-0.276,0-0.5-0.225-0.5-0.502
					c0-0.233,0.161-0.42,0.375-0.477c-0.014-0.008-0.022-0.018-0.036-0.025c-1.272-0.69-1.585,0.167-1.585,0.167
					s-0.109,0.847,0.353,1.408c0.382,0.464,1.637,0.656,2.067,0.37C14.418,14.714,14.667,13.991,14.231,13.34z"/>
				<path fill="#FFFFFF" d="M13.245,13.271c0,0.277,0.224,0.502,0.5,0.502c0.252,0,0.451-0.19,0.486-0.433
					c-0.132-0.196-0.328-0.385-0.611-0.546C13.406,12.851,13.245,13.038,13.245,13.271z"/>
			</g>
			<path fill="#2B3332" d="M17.744,13.34c0.035,0.243,0.234,0.433,0.486,0.433c0.276,0,0.5-0.225,0.5-0.502
				c0-0.233-0.161-0.42-0.375-0.477c0.014-0.008,0.022-0.018,0.036-0.025c1.272-0.69,1.585,0.167,1.585,0.167
				s0.109,0.847-0.353,1.408c-0.382,0.464-1.637,0.656-2.067,0.37C17.556,14.714,17.308,13.991,17.744,13.34z"/>
			<g>
				<g>
					<path fill="#F7F7F7" d="M18.73,13.271c0,0.277-0.224,0.502-0.5,0.502c-0.252,0-0.451-0.19-0.486-0.433
						c0.132-0.196,0.328-0.385,0.611-0.546C18.569,12.851,18.73,13.038,18.73,13.271z"/>
				</g>
				<g>
					<path fill="#F7F7F7" d="M18.73,13.271c0,0.277-0.224,0.502-0.5,0.502c-0.252,0-0.451-0.19-0.486-0.433
						c0.132-0.196,0.328-0.385,0.611-0.546C18.569,12.851,18.73,13.038,18.73,13.271z"/>
				</g>
			</g>
		</g>
		<g>
			<path fill="#8C5699" d="M15.74,1.984l-0.737,5.894c-0.01,0.077,0.017,0.153,0.071,0.208l0.737,0.737
				c0.051,0.051,0.119,0.074,0.186,0.071V1.767C15.879,1.763,15.759,1.835,15.74,1.984z"/>
			<path fill="#865193" d="M16.902,8.086c0.055-0.055,0.081-0.131,0.071-0.208l-0.737-5.894c-0.018-0.142-0.127-0.214-0.239-0.218
				v7.128c0.061-0.002,0.121-0.025,0.168-0.071L16.902,8.086z"/>
		</g>
		<g>
			<path fill="#373F3F" d="M15.138,16c-0.122,0-0.184,0.13-0.097,0.206l0.862,0.758C15.93,16.988,15.965,17,16,17v-1H15.138z"/>
			<path fill="#2B3332" d="M16.96,16.206C17.046,16.13,16.985,16,16.862,16H16v1c0.035,0,0.07-0.012,0.097-0.035L16.96,16.206z"/>
		</g>
	</g>
</g>
<g id="labels">
</g>
</svg>
