<?xml version="1.0" encoding="utf-8"?>
<!-- Generator: Adobe Illustrator 23.0.6, SVG Export Plug-In . SVG Version: 6.00 Build 0)  -->
<svg version="1.1" xmlns="http://www.w3.org/2000/svg" xmlns:xlink="http://www.w3.org/1999/xlink" x="0px" y="0px" width="32px"
	 height="32px" viewBox="0 0 32 32" enable-background="new 0 0 32 32" xml:space="preserve">
<g id="icons">
	<g>
		<path fill="#78DF7C" d="M21.117,28.136c0.095-0.172,0.195-0.357,0.306-0.558c1.676-3.048-0.825-8.453-0.93-8.578H16v11
			c1.592,0.078,2.512,0.186,3.138,0.121C19.374,30.638,19.894,31,20.5,31c0.828,0,1.5-0.672,1.5-1.5
			C22,28.892,21.637,28.372,21.117,28.136z"/>
		<path fill="#84ED82" d="M11.507,19c-0.105,0.125-2.606,5.53-0.93,8.578c0.111,0.201,0.211,0.386,0.306,0.558
			C10.363,28.372,10,28.892,10,29.5c0,0.828,0.672,1.5,1.5,1.5c0.606,0,1.126-0.362,1.362-0.879C13.488,30.187,14.408,30.078,16,30
			V19H11.507z"/>
		<g>
			<path fill="#8FF888" d="M16,24.408V13l-7.434,0.052l2.171,4.655L7,18.593l2.211,1.671l-3.054,2.82
				c-0.151,0.14-0.078,0.392,0.124,0.43l3.437,0.632l-1.376,4.23c-0.071,0.218,0.165,0.409,0.364,0.293l3.425-2
				c0.188,1.015,0.381,2.214,0.442,3.144c-0.516,0.206-0.865,0.579-0.865,1.009c0,0.651,0.792,1.179,1.769,1.179
				c0.977,0,1.769-0.528,1.769-1.179c0-0.216-0.093-0.415-0.245-0.589v-5.24L16,24.408z"/>
			<path fill="#84ED82" d="M23.658,28.376l-1.376-4.23l3.437-0.632c0.203-0.037,0.276-0.29,0.124-0.43l-3.054-2.82L25,18.593
				l-3.737-0.886l2.171-4.655L16,13v11.408l1,0.584v5.24c-0.151,0.174-0.245,0.373-0.245,0.589c0,0.651,0.792,1.179,1.769,1.179
				c0.977,0,1.769-0.528,1.769-1.179c0-0.43-0.349-0.803-0.865-1.009c0.061-0.93,0.253-2.129,0.442-3.144l3.425,2
				C23.493,28.785,23.729,28.594,23.658,28.376z"/>
		</g>
		<g>
			<path fill="#F7F7F7" d="M15.759,1.341l-1.096,3.833l-2.084-1.839c-0.145-0.128-0.375-0.05-0.411,0.141l-0.803,4.227L6.648,6.977
				C6.421,6.943,6.271,7.206,6.417,7.384L8.5,9.913l-5.349,1.851c-0.221,0.076-0.225,0.387-0.007,0.47L8.5,14.267l-3.382,4.209
				c-0.138,0.172-0.002,0.425,0.217,0.406L11,18.378l-0.862,2.387c-0.076,0.21,0.14,0.406,0.341,0.311l3.021-1.42l2.291,3.513
				c0.049,0.076,0.129,0.113,0.209,0.113V1.16C15.897,1.16,15.794,1.22,15.759,1.341z"/>
			<path fill="#EDEEEE" d="M16.21,23.169l2.29-3.502l3.021,1.42c0.202,0.095,0.417-0.102,0.341-0.311L21,18.389l5.665,0.504
				c0.219,0.019,0.355-0.234,0.217-0.406L23.5,14.278l5.356-2.033c0.218-0.083,0.214-0.394-0.007-0.47L23.5,9.924l2.083-2.529
				c0.146-0.177-0.004-0.441-0.231-0.406l-4.717,0.726l-0.803-4.227c-0.036-0.19-0.266-0.269-0.411-0.141l-2.084,1.839L16.24,1.341
				C16.206,1.221,16.103,1.16,16,1.16v22.122C16.08,23.282,16.16,23.244,16.21,23.169z"/>
		</g>
		<g>
			<path fill="#A9FAA2" d="M15.908,7l-1.379-2.789c-0.117-0.237-0.474-0.154-0.474,0.111v2.799
				c-0.582,0.106-1.123,0.311-1.633,0.565L11.243,4.54c-0.068-0.084-0.131-0.161-0.198-0.245L4.378,0.036
				c-0.168-0.115-0.38,0.065-0.294,0.25l2.771,4.961L6.548,5.159C6.339,5.098,6.158,5.316,6.255,5.511L6.97,6.94
				c0.02,0.039,0.049,0.072,0.085,0.097l2.224,1.476l0.877,1.861c-0.036,0.188-0.073,0.373-0.095,0.577l-1.905,0.225
				c-0.254,0.03-0.304,0.377-0.07,0.478l1.927,0.829c0.024,0.606,0.094,1.216,0.204,1.794l-1.136,1.108
				c-0.161,0.157-0.05,0.429,0.175,0.429h1.394c0.003,0.008,0.003,0.009,0.007,0.017l-1.079,0.995
				c-0.176,0.162-0.046,0.454,0.192,0.433l1.744-0.155c1.031,0.789,3.376,1.556,4.196,1.81c0.096,0.03,0.194,0.044,0.291,0.044V7
				H15.908z"/>
			<path fill="#8FF888" d="M16.293,18.911c0.861-0.266,3.376-1.089,4.326-1.911c0.179-0.155,0.339-0.391,0.488-0.664l0.14-0.011
				l1.001,0.368c0.242,0.089,0.444-0.203,0.275-0.398l-0.785-0.908l1.182,0.313c0.222,0.059,0.399-0.187,0.273-0.379l-0.999-1.526
				l1.395-0.65c0.213-0.099,0.184-0.412-0.045-0.469l-1.557-0.391c0.004-0.168,0.01-0.337,0.007-0.502
				c-0.004-0.199-0.024-0.386-0.04-0.576l1.842-1.621c0.164-0.144,0.077-0.415-0.14-0.436l-1.647-0.166l2.933-1.946
				c0.036-0.024,0.066-0.057,0.085-0.097l0.715-1.43c0.097-0.195-0.084-0.413-0.293-0.352l-0.306,0.088l2.771-4.961
				c0.086-0.185-0.126-0.365-0.294-0.25l-6.68,4.268c-0.062,0.076-0.118,0.146-0.18,0.222L19.584,7.67
				c-0.297-0.143-0.605-0.269-0.928-0.365l-0.222-4.039c-0.014-0.259-0.365-0.328-0.476-0.093L16.146,7H16v11.956
				C16.098,18.956,16.197,18.941,16.293,18.911z"/>
		</g>
		<g>
			<g>
				<path fill="#F7F7F7" d="M18.742,13.271c0,0.277-0.224,0.502-0.5,0.502c-0.252,0-0.451-0.19-0.486-0.433
					c0.132-0.196,0.328-0.385,0.611-0.546C18.581,12.851,18.742,13.038,18.742,13.271z"/>
			</g>
			<g>
				<path fill="#F7F7F7" d="M18.742,13.271c0,0.277-0.224,0.502-0.5,0.502c-0.252,0-0.451-0.19-0.486-0.433
					c0.132-0.196,0.328-0.385,0.611-0.546C18.581,12.851,18.742,13.038,18.742,13.271z"/>
			</g>
		</g>
		<path fill="#2B3332" d="M17.756,13.34c0.035,0.243,0.234,0.433,0.486,0.433c0.276,0,0.5-0.225,0.5-0.502
			c0-0.233-0.161-0.42-0.375-0.477c0.014-0.008,0.022-0.018,0.036-0.025c1.272-0.69,1.585,0.167,1.585,0.167
			s0.109,0.847-0.353,1.408c-0.382,0.464-1.637,0.656-2.067,0.37C17.568,14.714,17.32,13.991,17.756,13.34z"/>
		<path fill="#246C57" d="M24.947,3.079l-3.522,2.315c-0.064,0.042-0.114,0.101-0.145,0.171l-1.093,2.444
			c0.238,0.156,0.467,0.325,0.669,0.522c0.112,0.109,0.216,0.227,0.315,0.347l2.469-2.236c0.039-0.035,0.071-0.078,0.093-0.125
			l1.505-3.185C25.324,3.149,25.116,2.968,24.947,3.079z"/>
		<path fill="#377360" d="M8.361,6.642l1.48,1.341l1.941-0.043l-1.062-2.374c-0.031-0.07-0.082-0.129-0.145-0.171L7.053,3.079
			c-0.169-0.111-0.377,0.07-0.291,0.253l1.505,3.185C8.291,6.564,8.322,6.606,8.361,6.642z"/>
		<path fill="#373F3F" d="M14.243,13.34c-0.035,0.243-0.234,0.433-0.486,0.433c-0.276,0-0.5-0.225-0.5-0.502
			c0-0.233,0.161-0.42,0.375-0.477c-0.014-0.008-0.022-0.018-0.036-0.025c-1.272-0.69-1.585,0.167-1.585,0.167
			s-0.109,0.847,0.353,1.408C12.745,14.807,14,15,14.43,14.714C14.43,14.714,14.678,13.991,14.243,13.34z"/>
		<g>
			<g>
				<path fill="#FFFFFF" d="M13.257,13.271c0,0.277,0.224,0.502,0.5,0.502c0.252,0,0.451-0.19,0.486-0.433
					c-0.132-0.196-0.328-0.385-0.611-0.546C13.418,12.851,13.257,13.038,13.257,13.271z"/>
			</g>
			<g>
				<path fill="#FFFFFF" d="M13.257,13.271c0,0.277,0.224,0.502,0.5,0.502c0.252,0,0.451-0.19,0.486-0.433
					c-0.132-0.196-0.328-0.385-0.611-0.546C13.418,12.851,13.257,13.038,13.257,13.271z"/>
			</g>
		</g>
		<g>
			<path fill="#373F3F" d="M15.138,16c-0.122,0-0.184,0.13-0.097,0.206l0.862,0.758C15.93,16.988,15.965,17,16,17v-1H15.138z"/>
			<path fill="#2B3332" d="M16.96,16.206C17.046,16.13,16.985,16,16.862,16H16v1c0.035,0,0.07-0.012,0.097-0.035L16.96,16.206z"/>
		</g>
	</g>
</g>
<g id="labels">
</g>
</svg>
