<?xml version="1.0" encoding="utf-8"?>
<!-- Generator: Adobe Illustrator 23.0.6, SVG Export Plug-In . SVG Version: 6.00 Build 0)  -->
<svg version="1.1" xmlns="http://www.w3.org/2000/svg" xmlns:xlink="http://www.w3.org/1999/xlink" x="0px" y="0px" width="32px"
	 height="32px" viewBox="0 0 32 32" enable-background="new 0 0 32 32" xml:space="preserve">
<g id="icons">
	<g>
		<g>
			<g>
				<path fill="#D799D6" d="M8,25v1l2.854,4.757C10.945,30.908,11.107,31,11.283,31H16v-6H8z"/>
				<path fill="#D285D2" d="M16,31h4.717c0.176,0,0.338-0.092,0.429-0.243L24,26v-1h-8V31z"/>
				<polygon fill="#111918" points="23.313,19.283 22,16 23.313,19.283 				"/>
				<path fill="#E0ABDF" d="M10.014,15.965l-1.942,4.857C8.024,20.939,8,21.065,8,21.193V22v3h8v-3v-6L10.014,15.965z"/>
				<path fill="#D799D6" d="M21.985,15.96L16,16v6v3h8v-3.807c0-0.127-0.024-0.253-0.072-0.371L21.985,15.96z"/>
			</g>
			<path fill="#E0ABDF" d="M8,21.701V31.5C8,31.776,7.776,32,7.5,32h-7C0.224,32,0,31.776,0,31.5v-7.065
				c0-0.206,0.126-0.391,0.318-0.466l7-2.734C7.646,21.107,8,21.349,8,21.701z"/>
			<path fill="#D799D6" d="M8,26.969l-8,2V31.5C0,31.776,0.224,32,0.5,32h7C7.776,32,8,31.776,8,31.5V26.969z"/>
			<path fill="#D799D6" d="M24,21.701V31.5c0,0.276,0.224,0.5,0.5,0.5h7c0.276,0,0.5-0.224,0.5-0.5v-7.065
				c0-0.206-0.126-0.391-0.318-0.466l-7-2.734C24.354,21.107,24,21.349,24,21.701z"/>
			<path fill="#D285D2" d="M24,26.969l8,2V31.5c0,0.276-0.224,0.5-0.5,0.5h-7c-0.276,0-0.5-0.224-0.5-0.5V26.969z"/>
			<g>
				<path fill="#8694D1" d="M12.535,0C12.342,0,12.158,0.057,12,0.157V5l1.003,8.045C13.066,13.016,13.136,13,13.207,13H16V0H12.535
					z"/>
				<path fill="#7C8AC4" d="M20,0.157C19.842,0.057,19.658,0,19.465,0H16v13h2.793c0.08,0,0.156,0.021,0.226,0.056L20,5V0.157z"/>
			</g>
		</g>
		<path fill="#707EB7" d="M23.832,5.748l-3.535-5.303C20.218,0.327,20.116,0.231,20,0.157V5l-0.981,8.056
			c0.046,0.024,0.09,0.052,0.128,0.09l2.84,2.84c0.027-0.036,0.049-0.074,0.066-0.116l1.876-4.691
			C23.976,11.061,24,10.935,24,10.807V6.303C24,6.105,23.942,5.912,23.832,5.748z"/>
		<path fill="#7C8AC4" d="M13.002,13.045L13.002,13.045L13.002,13.045L12,5V0.157c-0.116,0.074-0.218,0.17-0.297,0.288L8.168,5.748
			C8.058,5.912,8,6.105,8,6.303v4.505c0,0.09,0.016,0.178,0.04,0.265c0.01,0.036,0.017,0.072,0.031,0.107l1.876,4.691
			c0.017,0.042,0.039,0.081,0.066,0.116l2.84-2.84C12.897,13.103,12.948,13.07,13.002,13.045z"/>
		<path fill="#F7F7F7" d="M19.869,5.096l-1.095,0.796c-0.089,0.064-0.125,0.179-0.09,0.283l0.765,2.254
			c0.027,0.08,0.092,0.14,0.174,0.162l1.959,0.51c0.073,0.019,0.15,0.004,0.21-0.04l1.05-0.766c0.072-0.053,0.111-0.14,0.101-0.229
			l-0.146-1.33c-0.009-0.079-0.054-0.149-0.123-0.189l-2.533-1.464C20.055,5.032,19.948,5.037,19.869,5.096z"/>
		<ellipse transform="matrix(0.6173 -0.7867 0.7867 0.6173 2.5292 19.1995)" fill="#2B3332" cx="21" cy="7" rx="0.448" ry="0.594"/>
		<path fill="#FFFFFF" d="M12.152,5.096l1.095,0.796c0.089,0.064,0.125,0.179,0.09,0.283l-0.765,2.254
			c-0.027,0.08-0.092,0.14-0.174,0.162l-1.959,0.51c-0.073,0.019-0.15,0.004-0.21-0.04l-1.05-0.766
			c-0.072-0.053-0.111-0.14-0.101-0.229l0.146-1.33c0.009-0.079,0.054-0.149,0.123-0.189l2.533-1.464
			C11.966,5.032,12.072,5.037,12.152,5.096z"/>
		
			<ellipse transform="matrix(0.7867 -0.6173 0.6173 0.7867 -1.9706 8.2965)" fill="#373F3F" cx="11.021" cy="7" rx="0.594" ry="0.448"/>
		<path fill="#D799D6" d="M13.018,13.04c-0.005,0.002-0.011,0.003-0.016,0.005c-0.055,0.025-0.106,0.058-0.149,0.101l-2.84,2.84
			c0.021,0.028,0.048,0.052,0.075,0.075l3.803,2.852c0.04,0.026,0.081,0.049,0.126,0.063l0.996-0.95L13.018,13.04z"/>
		<path fill="#D285D2" d="M21.986,15.986l-2.84-2.84c-0.038-0.038-0.081-0.066-0.128-0.09c-0.012-0.006-0.025-0.009-0.038-0.014
			l-1.999,4.992l0.999,0.941c0.045-0.014,0.087-0.036,0.126-0.063l3.803-2.852C21.938,16.038,21.965,16.014,21.986,15.986z"/>
		<g>
			<g>
				<path fill="#E0ABDF" d="M13.207,13c-0.066,0-0.129,0.015-0.189,0.04l1.99,4.973c0.03-0.012,0.062-0.019,0.096-0.019H16V13
					H13.207z"/>
				<path fill="#E5BDE5" d="M15.104,17.994c-0.033,0-0.066,0.007-0.096,0.019c-0.03,0.012-0.058,0.031-0.081,0.054l-0.908,0.908
					c0.036,0.011,0.075,0.015,0.113,0.018H16v-1H15.104z"/>
			</g>
			<g>
				<path fill="#D799D6" d="M16.991,18.013l1.99-4.971C18.921,13.017,18.859,13,18.793,13H16v4.994h0.896
					C16.929,17.994,16.961,18.001,16.991,18.013z"/>
				<path fill="#E0ABDF" d="M17.073,18.068c-0.024-0.024-0.052-0.042-0.082-0.054c-0.03-0.012-0.062-0.019-0.094-0.019H16v1h1.868
					c0.038-0.003,0.077-0.007,0.113-0.018L17.073,18.068z"/>
			</g>
		</g>
	</g>
</g>
<g id="labels">
</g>
</svg>
