<?xml version="1.0" encoding="utf-8"?>
<!-- Generator: Adobe Illustrator 23.0.6, SVG Export Plug-In . SVG Version: 6.00 Build 0)  -->
<svg version="1.1" xmlns="http://www.w3.org/2000/svg" xmlns:xlink="http://www.w3.org/1999/xlink" x="0px" y="0px" width="32px"
	 height="32px" viewBox="0 0 32 32" enable-background="new 0 0 32 32" xml:space="preserve">
<g id="icons">
	<g>
		<path fill="#FFD96C" d="M8.935,23.044l-2.407,0.059L3.81,20.471l2.633-1.964c0.664-0.495,0.801-1.435,0.305-2.099
			c-0.495-0.664-1.435-0.801-2.099-0.305L0.603,19.12c-0.061,0.046-0.126,0.102-0.181,0.159c-0.576,0.595-0.561,1.545,0.034,2.121
			l4.325,4.187l0.325,0.314c0.369,0.359,0.959,0.352,1.319-0.017l2.59-2.658c0.019-0.02,0.031-0.048,0.031-0.078
			C9.044,23.089,8.994,23.042,8.935,23.044z"/>
		<path fill="#373F3F" d="M3.562,20.16c0,0-0.75,4.812,12.438,4.812v-12H3.875L3.562,20.16z"/>
		<circle fill="#FF7899" cx="11" cy="20.972" r="2"/>
		<path fill="#FFE28A" d="M7.789,26.905l-1.261,0.031L3.81,24.304l2.582-1.927c0.658-0.491,0.854-1.427,0.383-2.099
			c-0.488-0.696-1.45-0.847-2.126-0.343l-4.046,3.018C0.542,23,0.477,23.056,0.422,23.113c-0.576,0.595-0.561,1.545,0.034,2.121
			l4.325,4.187l0.325,0.314c0.369,0.359,0.959,0.352,1.319-0.017l1.751-1.982C8.465,27.409,8.225,26.895,7.789,26.905z"/>
		<path fill="#FFD04D" d="M23.065,23.044l2.407,0.059l2.719-2.632l-2.633-1.964c-0.664-0.495-0.801-1.435-0.305-2.099
			c0.495-0.664,1.435-0.801,2.099-0.305l4.046,3.018c0.061,0.046,0.126,0.102,0.181,0.159c0.576,0.595,0.561,1.545-0.034,2.121
			l-4.325,4.187l-0.325,0.314c-0.369,0.359-0.959,0.352-1.319-0.017l-2.59-2.658c-0.019-0.02-0.031-0.048-0.031-0.078
			C22.956,23.089,23.006,23.042,23.065,23.044z"/>
		<path fill="#2B3332" d="M28.438,20.16c0,0,0.75,4.812-12.438,4.812v-12h12.125L28.438,20.16z"/>
		<path fill="#FFD96C" d="M24.211,26.905l1.261,0.031l2.719-2.632l-2.582-1.927c-0.658-0.491-0.854-1.427-0.383-2.099
			c0.488-0.696,1.45-0.847,2.126-0.343l4.046,3.018c0.061,0.046,0.126,0.102,0.181,0.159c0.576,0.595,0.561,1.545-0.034,2.121
			l-4.325,4.187l-0.325,0.314c-0.369,0.359-0.959,0.352-1.319-0.017l-1.751-1.982C23.535,27.409,23.775,26.895,24.211,26.905z"/>
		<circle fill="#FF6B8B" cx="21" cy="20.972" r="2"/>
		<g>
			<path fill="#CFAB81" d="M16,2C13,2,8.123,3.321,5,5.972c-1.469,1.247-2.455,2.881-3.068,4.589C5.411,7.749,10.416,5.972,16,5.972
				V2z"/>
			<path fill="#CDA073" d="M30.068,10.561C29.455,8.853,28.469,7.219,27,5.972C23.877,3.321,19,2,16,2v3.972
				C21.584,5.972,26.589,7.749,30.068,10.561z"/>
			<path fill="#CDA073" d="M3.523,19.97c3.625,0.094,5.125-3.149,7.875-3.149c0.985,0,1.855,0.51,2.566,1.165
				c0.577,0.531,1.307,0.797,2.037,0.797V5.972c-5.584,0-10.589,1.777-14.068,4.589C0.343,14.984,1.336,19.913,3.523,19.97z"/>
			<path fill="#C09265" d="M16,18.783c0.73,0,1.46-0.266,2.037-0.797c0.711-0.655,1.581-1.165,2.566-1.165
				c2.75,0,4.25,3.243,7.875,3.149c2.187-0.057,3.18-4.986,1.591-9.409C26.589,7.749,21.584,5.972,16,5.972V18.783z"/>
		</g>
		<circle fill="#373F3F" cx="8.5" cy="11.472" r="1.5"/>
		<circle fill="#2B3332" cx="24.5" cy="11.472" r="1.5"/>
	</g>
</g>
<g id="labels">
</g>
</svg>
