<?xml version="1.0" encoding="utf-8"?>
<!-- Generator: Adobe Illustrator 23.0.6, SVG Export Plug-In . SVG Version: 6.00 Build 0)  -->
<svg version="1.1" xmlns="http://www.w3.org/2000/svg" xmlns:xlink="http://www.w3.org/1999/xlink" x="0px" y="0px" width="32px"
	 height="32px" viewBox="0 0 32 32" enable-background="new 0 0 32 32" xml:space="preserve">
<g id="icons">
	<g>
		<g>
			<path fill="#F7C845" d="M15.823,24.82l-1.626-1.626c-0.105-0.105-0.279-0.096-0.372,0.021l-3.501,4.376
				c-0.131,0.164-0.014,0.406,0.195,0.406H13l-0.665,1.995c-0.083,0.25,0.227,0.442,0.414,0.256L14,28.997l1.792,2.688
				c0.049,0.074,0.129,0.111,0.208,0.111v-6.903C15.936,24.893,15.872,24.869,15.823,24.82z"/>
			<path fill="#F0C13E" d="M18,28.997l1.251,1.251c0.187,0.187,0.497-0.006,0.414-0.256L19,27.997h2.48
				c0.21,0,0.326-0.242,0.195-0.406l-3.501-4.376c-0.093-0.116-0.267-0.126-0.372-0.021l-1.626,1.626
				c-0.049,0.049-0.113,0.073-0.177,0.073v6.903c0.079,0,0.159-0.037,0.208-0.111L18,28.997z"/>
		</g>
		<path fill="#2B3332" d="M16,12.997l11.36-8.52c0.196-0.147,0.465,0.047,0.387,0.279L26,9.997l4.483,1.793
			c0.2,0.08,0.212,0.359,0.019,0.456L25,14.997l5.342,5.342c0.181,0.181,0.006,0.484-0.241,0.418L16,16.997V12.997z"/>
		<path fill="#F7C845" d="M16,13.997l9.152-10.982c0.177-0.212,0.517-0.023,0.429,0.239L24,7.997l7.328-1.596
			c0.228-0.05,0.394,0.213,0.251,0.397L26,13.997l5.254,1.073c0.236,0.048,0.274,0.371,0.055,0.472L26,17.997l1.826,5.479
			c0.068,0.204-0.135,0.392-0.333,0.31L16,18.997V13.997z"/>
		<path fill="#373F3F" d="M16,12.997L4.64,4.477C4.444,4.33,4.176,4.524,4.253,4.756L6,9.997L1.517,11.79
			c-0.2,0.08-0.212,0.359-0.019,0.456L7,14.997l-5.342,5.342c-0.181,0.181-0.006,0.484,0.241,0.418L16,16.997V12.997z"/>
		<path fill="#FFD04D" d="M16,13.997L6.848,3.015C6.671,2.802,6.332,2.992,6.419,3.254L8,7.997L0.672,6.401
			c-0.228-0.05-0.394,0.213-0.251,0.397L6,13.997L0.746,15.07c-0.236,0.048-0.274,0.371-0.055,0.472L6,17.997l-1.826,5.479
			c-0.068,0.204,0.135,0.392,0.333,0.31L16,18.997V13.997z"/>
		<path fill="#CDA073" d="M13.853,19.997c0,0-2.762,3.075-1.542,4.496C13.853,26.292,17,22.695,17,22.695L13.853,19.997z"/>
		<path fill="#FCA15E" d="M12.479,25.965c0.276-0.018,0.484-0.256,0.466-0.532l-0.138-2.083l0.005-0.003l-2.217-3.916
			c-0.136-0.24-0.441-0.325-0.681-0.189l0,0c-0.24,0.136-0.325,0.441-0.189,0.681l1.428,2.521L8.69,21.997
			c-0.272-0.05-0.532,0.131-0.582,0.402l0,0c-0.05,0.272,0.131,0.532,0.402,0.582l2.208,0.403l-0.801,0.454
			c-0.24,0.136-0.325,0.441-0.189,0.681l0,0c0.136,0.24,0.441,0.325,0.681,0.189l1.431-0.81l0.106,1.602
			C11.966,25.775,12.204,25.983,12.479,25.965L12.479,25.965z"/>
		<path fill="#C09265" d="M18.147,19.997c0,0,2.762,3.075,1.542,4.496C18.147,26.292,15,22.695,15,22.695L18.147,19.997z"/>
		<path fill="#F79654" d="M23.891,22.4L23.891,22.4c-0.05-0.272-0.31-0.452-0.582-0.402l-2.462,0.449l1.428-2.521
			c0.136-0.24,0.052-0.545-0.189-0.681l0,0c-0.24-0.136-0.545-0.052-0.681,0.189l-2.217,3.916l0.005,0.003l-0.138,2.083
			c-0.018,0.276,0.19,0.514,0.466,0.532h0c0.276,0.018,0.514-0.19,0.532-0.466l0.106-1.602l1.431,0.81
			c0.24,0.136,0.545,0.052,0.681-0.189l0,0c0.136-0.24,0.052-0.545-0.189-0.681l-0.801-0.454l2.208-0.403
			C23.761,22.932,23.941,22.671,23.891,22.4z"/>
		<path fill="#FFD96C" d="M16,11.997c-2.209,0-4,2.91-4,6.5s2.857,7.5,4,7.5V11.997z"/>
		<path fill="#FFD04D" d="M16,11.997c2.209,0,4,2.91,4,6.5s-2.857,7.5-4,7.5V11.997z"/>
		<g>
			<path fill="#FFE28A" d="M15.768,0.577L14,4.997L9.636,2.379c-0.205-0.123-0.45,0.085-0.361,0.307L11,6.997L6.825,7.832
				C6.581,7.881,6.55,8.217,6.781,8.309L11,9.997l-2.715,5.431c-0.102,0.203,0.099,0.426,0.311,0.346L16,12.997V0.42
				C15.905,0.42,15.81,0.472,15.768,0.577z"/>
			<path fill="#FFD96C" d="M23.715,15.427L21,9.997l4.219-1.688c0.231-0.092,0.2-0.428-0.044-0.477L21,6.997l1.724-4.311
				c0.089-0.222-0.155-0.43-0.361-0.307L18,4.997l-1.768-4.42C16.19,0.472,16.095,0.42,16,0.42v12.577l7.404,2.776
				C23.617,15.853,23.817,15.631,23.715,15.427z"/>
		</g>
		<g>
			<path fill="#373F3F" d="M13.855,7.388l-0.375-0.392L13.046,8.07c-0.029,0.072-0.023,0.154,0.017,0.221l0.344,0.583
				c0.045,0.076,0.127,0.123,0.215,0.123h0.37c-0.184-0.199-0.313-0.517-0.313-0.896C13.679,7.826,13.749,7.582,13.855,7.388z"/>
			<path fill="#FFFFFF" d="M14.618,8.997h0.147C14.863,8.89,14.947,8.754,15,8.583l-0.382-0.399V8.997z"/>
			<path fill="#FFFFFF" d="M14.138,7.684l-0.284-0.296c-0.106,0.193-0.176,0.437-0.176,0.713c0,0.379,0.129,0.697,0.313,0.896h0.147
				V7.684z"/>
			<polygon fill="#373F3F" points="14.138,7.684 14.138,8.997 14.618,8.997 14.618,8.184 			"/>
		</g>
		<g>
			<path fill="#2B3332" d="M18.145,7.388l0.375-0.392l0.433,1.074c0.029,0.072,0.023,0.154-0.017,0.221l-0.344,0.583
				c-0.045,0.076-0.127,0.123-0.215,0.123h-0.37c0.184-0.199,0.313-0.517,0.313-0.896C18.321,7.826,18.251,7.582,18.145,7.388z"/>
			<path fill="#F7F7F7" d="M17.382,8.997h-0.147C17.137,8.89,17.053,8.754,17,8.583l0.382-0.399V8.997z"/>
			<path fill="#F7F7F7" d="M17.862,7.684l0.284-0.296c0.106,0.193,0.176,0.437,0.176,0.713c0,0.379-0.129,0.697-0.313,0.896h-0.147
				V7.684z"/>
			<polygon fill="#2B3332" points="17.862,7.684 17.862,8.997 17.382,8.997 17.382,8.184 			"/>
		</g>
		<g>
			<path fill="#CDA073" d="M16,10.1c-0.064,0-0.128,0.024-0.177,0.073l-0.729,0.729c-0.027,0.027-0.046,0.06-0.058,0.095H16V10.1z"
				/>
			<path fill="#C09265" d="M16.964,10.997c-0.012-0.035-0.031-0.068-0.058-0.095l-0.729-0.729C16.128,10.125,16.064,10.1,16,10.1
				v0.896H16.964z"/>
			<path fill="#C09265" d="M15.026,11.128l0.729,3.643c0.027,0.134,0.136,0.201,0.245,0.201v-3.975h-0.964
				C15.022,11.039,15.017,11.083,15.026,11.128z"/>
			<path fill="#B38658" d="M16,14.972c0.109,0,0.218-0.067,0.245-0.201l0.729-3.643c0.009-0.045,0.004-0.09-0.01-0.131H16V14.972z"
				/>
		</g>
	</g>
</g>
<g id="labels">
</g>
</svg>
