<?xml version="1.0" encoding="utf-8"?>
<!-- Generator: Adobe Illustrator 23.0.6, SVG Export Plug-In . SVG Version: 6.00 Build 0)  -->
<svg version="1.1" xmlns="http://www.w3.org/2000/svg" xmlns:xlink="http://www.w3.org/1999/xlink" x="0px" y="0px" width="32px"
	 height="32px" viewBox="0 0 32 32" enable-background="new 0 0 32 32" xml:space="preserve">
<g id="icons">
	<g>
		<path fill="#D799D6" d="M22,6.5C22,3.462,19.314,1,16,1v1c0.552,0,1,0.448,1,1c0,0.552-0.448,1-1,1v2
			c1.981,0,3.614,1.082,3.933,2.5C19.97,8.663,20,8.829,20,9c0,1.657-1.791,3-4,3C19.314,12,22,9.538,22,6.5z"/>
		<path fill="#E0ABDF" d="M12,9c0-0.171,0.03-0.337,0.067-0.5C12.386,7.082,14.019,6,16,6V4c-0.552,0-1-0.448-1-1
			c0-0.552,0.448-1,1-1V1c-3.314,0-6,2.462-6,5.5c0,3.038,2.686,5.5,6,5.5C13.791,12,12,10.657,12,9z"/>
		<path fill="#D285D2" d="M28.354,23.173c-0.543-1.217-1.427-2.075-2.295-2.65c-1.77-1.15-3.562-1.474-5.243-1.594
			c-0.274-0.017-0.541-0.015-0.811-0.017v-8.325C18.942,11.463,17.541,12,16,12c-1.536,0-2.934-0.534-3.995-1.405v10.935
			c-0.119,0.081-0.245,0.16-0.36,0.241c-2.314,1.638-4.14,3.296-5.747,4.082c-0.397,0.195-0.771,0.328-1.117,0.397
			c-0.088,0.023-0.171,0.026-0.255,0.042c0,0-0.063,0.01-0.079,0.013c0.138,0.003,0.032,0.001,0.049,0.002L4.451,26.31l-0.175,0.007
			c-0.116,0.005-0.23,0.009-0.343,0.014l-0.2-0.01c-0.596-0.01-1.128-0.215-1.519-0.466c-0.802-0.534-1.107-1.2-1.094-1.128
			c-0.069-0.306-0.373-0.497-0.679-0.428c-0.306,0.069-0.497,0.373-0.428,0.679c0.01,0.024,0.004,0.245,0.105,0.632
			c0.105,0.38,0.286,0.96,0.784,1.583c0.499,0.613,1.317,1.254,2.453,1.517c0.149,0.031,0.301,0.063,0.455,0.096
			c0.112,0.015,0.225,0.031,0.341,0.047l0.174,0.024c0,0,0.044,0.006,0.055,0.008l0.082,0.003l0.029,0l0.115,0.001
			c0.152-0.002,0.312,0.006,0.466-0.007c0.627-0.033,1.254-0.167,1.855-0.362c1.952-0.638,3.642-1.793,5.397-2.858
			c0.068,0.825,0.302,1.702,0.66,2.458c0.358,0.743,0.881,1.478,1.588,2.089c0.698,0.615,1.586,1.104,2.555,1.369
			c0.156,0.037,0.314,0.074,0.474,0.112c0.22,0.052,0.365,0.072,0.552,0.107c0.353,0.057,0.71,0.1,1.07,0.127
			c1.441,0.095,2.924,0.004,4.571-0.473c0.824-0.252,1.699-0.584,2.65-1.267c0.471-0.347,0.969-0.802,1.399-1.438
			c0.054-0.075,0.105-0.165,0.155-0.249l0.074-0.129l0.036-0.065l0.07-0.134l0.099-0.229c0.104-0.237,0.267-0.648,0.329-0.904
			C28.952,25.877,28.914,24.38,28.354,23.173z M23.105,25.29c-0.015,0.013-0.031,0.025-0.049,0.036
			c-0.223,0.14-0.492,0.146-0.744,0.183c-0.742,0.109-1.62,0.06-2.305-0.091c-0.001,0-0.001-0.002-0.002-0.003v-1.958
			c0.097,0.016,0.198,0.025,0.293,0.044c1.141,0.208,2.206,0.656,2.732,1.162c0.098,0.094,0.168,0.246,0.179,0.379
			C23.218,25.145,23.178,25.228,23.105,25.29z"/>
		<g>
			<path fill="#EDEEEE" d="M10,6.5c0-1.51,0.665-2.878,1.74-3.872L7.38,0.037C7.165-0.092,6.916,0.139,7.028,0.362l1.616,3.225
				l-0.57,0.821c-0.098,0.097-0.098,0.255,0,0.353L9,5.583V8.75c0,0.247,0.321,0.344,0.458,0.138l0.662-1.289
				C10.042,7.244,10,6.877,10,6.5z"/>
			<path fill="#F7F7F7" d="M12.067,8.5C12.03,8.663,12,8.829,12,9c0,1.657,1.791,3,4,3v-1C14.019,11,12.386,9.918,12.067,8.5z"/>
			<path fill="#FFFFFF" d="M12.067,8.5C12.386,9.918,14.019,11,16,11V6C14.019,6,12.386,7.082,12.067,8.5z"/>
			<path fill="#F7F7F7" d="M15,3c0,0.552,0.448,1,1,1V2C15.448,2,15,2.448,15,3z"/>
			<path fill="#E3E5E5" d="M24.611,0.037l-4.354,2.588C21.334,3.619,22,4.988,22,6.5c0,0.381-0.042,0.753-0.123,1.112l0.656,1.276
				c0.137,0.205,0.458,0.108,0.458-0.138V5.583l0.927-0.821c0.098-0.097,0.098-0.255,0-0.353l-0.57-0.821l1.616-3.225
				C25.075,0.139,24.825-0.092,24.611,0.037z"/>
			<path fill="#EDEEEE" d="M20,9c0-0.171-0.03-0.337-0.067-0.5C19.614,9.918,17.981,11,16,11v1C18.209,12,20,10.657,20,9z"/>
			<path fill="#F7F7F7" d="M19.933,8.5C19.614,7.082,17.981,6,16,6v5C17.981,11,19.614,9.918,19.933,8.5z"/>
			<path fill="#EDEEEE" d="M17,3c0-0.552-0.448-1-1-1v2C16.552,4,17,3.552,17,3z"/>
		</g>
		<g>
			<g>
				<path fill="#373F3F" d="M13.466,6.081c-0.064-0.759-0.271-1.963-0.949-1.963c-0.538,0-0.803,0.703-0.926,1.445
					C11.88,6.124,12.431,6.553,13.466,6.081z"/>
				<path fill="#4896C8" d="M12.108,6.988l0.98-0.214c0.243-0.053,0.409-0.274,0.393-0.523c-0.003-0.052-0.009-0.113-0.014-0.171
					c-1.036,0.472-1.587,0.043-1.875-0.518c-0.053,0.32-0.083,0.647-0.091,0.928C11.49,6.815,11.791,7.057,12.108,6.988z"/>
			</g>
			<circle fill="#FFFFFF" cx="12.529" cy="4.844" r="0.5"/>
		</g>
		<g>
			<g>
				<path fill="#2B3332" d="M18.515,6.081c0.064-0.759,0.271-1.963,0.949-1.963c0.538,0,0.803,0.703,0.926,1.445
					C20.102,6.124,19.551,6.553,18.515,6.081z"/>
				<path fill="#4390BF" d="M19.874,6.988l-0.98-0.214c-0.243-0.053-0.409-0.274-0.393-0.523c0.003-0.052,0.009-0.113,0.014-0.171
					c1.036,0.472,1.587,0.043,1.875-0.518c0.053,0.32,0.083,0.647,0.091,0.928C20.491,6.815,20.191,7.057,19.874,6.988z"/>
			</g>
			<circle fill="#F7F7F7" cx="19.453" cy="4.844" r="0.5"/>
		</g>
		<g>
			<polygon fill="#DCF2FD" points="20,10.591 19.989,10.601 20,10.597 			"/>
			<path fill="#D799D6" d="M28.354,23.173c-0.543-1.217-1.427-2.075-2.295-2.65c-1.77-1.15-3.562-1.474-5.243-1.594
				c-0.274-0.017-0.541-0.015-0.811-0.017l-0.002,1.644c4.106,0.437,7.89,3.519,5.372,6.038C21.828,30.141,16,27.562,16,25.568
				v-6.505C16,15.554,16,12,16,12c-1.536,0-2.934-0.534-3.995-1.405v10.935c-0.119,0.081-0.245,0.16-0.36,0.241
				c-2.314,1.638-4.14,3.296-5.747,4.082c-0.397,0.195-0.771,0.328-1.117,0.397c-0.088,0.023-0.171,0.026-0.255,0.042
				c0,0-0.063,0.01-0.079,0.013c0.138,0.003,0.032,0.001,0.049,0.002L4.451,26.31l-0.175,0.007c-0.116,0.005-0.23,0.009-0.343,0.014
				l-0.2-0.01c-0.596-0.01-1.128-0.215-1.519-0.466c-0.802-0.534-1.107-1.2-1.094-1.128c-0.069-0.306-0.373-0.497-0.679-0.428
				c-0.039,0.009-0.07,0.031-0.106,0.047c0.352,1.531,1.482,3.028,3.976,3.091c1.926,0.048,4.542-1.576,7.812-3.781
				c0.046,0.702,0.11,1.4,0.199,2.003c0.068,0.825,0.302,1.702,0.66,2.458c0.358,0.743,0.881,1.478,1.588,2.089
				c0.698,0.615,1.586,1.104,2.555,1.369c0.156,0.037,0.314,0.074,0.474,0.112c0.22,0.052,0.365,0.072,0.552,0.107
				c0.353,0.057,0.71,0.1,1.07,0.127c1.441,0.095,2.924,0.004,4.571-0.473c0.824-0.252,1.699-0.584,2.65-1.267
				c0.471-0.347,0.969-0.802,1.399-1.438c0.054-0.075,0.105-0.165,0.155-0.249l0.074-0.129l0.036-0.065l0.07-0.134l0.099-0.229
				c0.104-0.237,0.267-0.648,0.329-0.904C28.952,25.877,28.914,24.38,28.354,23.173z"/>
		</g>
		<g>
			<path fill="#FFFFFF" d="M14,15v14.672c1,1.069,2,1.479,2,1.479V13C14.895,13,14,13.895,14,15z"/>
			<path fill="#F7F7F7" d="M16,13v18.151c0.576,0.355,2,0.624,2,0.624V15C18,13.895,17.105,13,16,13z"/>
		</g>
	</g>
</g>
<g id="labels">
</g>
</svg>
