<?xml version="1.0" encoding="utf-8"?>
<!-- Generator: Adobe Illustrator 23.0.6, SVG Export Plug-In . SVG Version: 6.00 Build 0)  -->
<svg version="1.1" xmlns="http://www.w3.org/2000/svg" xmlns:xlink="http://www.w3.org/1999/xlink" x="0px" y="0px" width="32px"
	 height="32px" viewBox="0 0 32 32" enable-background="new 0 0 32 32" xml:space="preserve">
<g id="icons">
	<g>
		<g>
			<path fill="#8C5699" d="M22.977,13.753c-1.181,1.3-2.43,2.502-3.758,3.645c-0.014,0.012-0.031,0.016-0.046,0.026
				c0.504,1.171,2.031,4.232,3.327,1.785c1.125-2.124,3.092-1.743,4.007-1.418c0.135,0.048,0.277,0.051,0.41,0.019l-2.513-5.771
				C23.95,12.635,23.469,13.201,22.977,13.753z"/>
			<path fill="#945BA0" d="M27.326,17.553c0.006-0.007,0.012-0.013,0.018-0.02c0.07-0.084,0.141-0.163,0.212-0.236
				c0.011-0.012,0.023-0.023,0.034-0.034c0.072-0.072,0.145-0.139,0.217-0.2c0.009-0.007,0.017-0.014,0.026-0.021
				c0.076-0.062,0.152-0.12,0.228-0.17c0.002-0.002,0.005-0.003,0.007-0.004c0.076-0.051,0.153-0.095,0.229-0.135
				c0.006-0.003,0.012-0.007,0.018-0.01c0.074-0.038,0.148-0.07,0.221-0.099c0.01-0.004,0.02-0.008,0.03-0.012
				c0.071-0.027,0.142-0.049,0.213-0.068c0.012-0.003,0.023-0.006,0.035-0.009c0.07-0.017,0.139-0.031,0.207-0.041
				c0.011-0.002,0.023-0.003,0.034-0.005c0.069-0.009,0.137-0.015,0.205-0.018c0.009,0,0.019,0,0.028-0.001
				c0.07-0.002,0.138-0.001,0.206,0.003c0.005,0,0.009,0.001,0.014,0.001c0.069,0.005,0.137,0.012,0.204,0.022
				c0.003,0,0.006,0.001,0.009,0.001c0.067,0.01,0.132,0.024,0.196,0.038c0.008,0.002,0.015,0.003,0.023,0.005
				c0.061,0.015,0.121,0.032,0.18,0.05c0.009,0.003,0.018,0.006,0.028,0.009c0.057,0.018,0.113,0.038,0.167,0.059
				c0.009,0.004,0.018,0.007,0.028,0.011c0.054,0.021,0.106,0.044,0.157,0.067c0.008,0.004,0.015,0.007,0.023,0.011
				c0.051,0.024,0.101,0.049,0.149,0.074c0.005,0.003,0.009,0.005,0.014,0.008c0.05,0.026,0.098,0.053,0.144,0.08
				c-0.034-0.258-0.072-0.515-0.132-0.766c-0.078-0.449-0.207-0.88-0.327-1.311c-0.148-0.421-0.299-0.837-0.495-1.228
				c-0.083-0.204-0.21-0.38-0.312-0.571c-0.098-0.194-0.24-0.356-0.357-0.534c-0.505-0.687-1.139-1.254-1.878-1.667
				c-0.344-0.196-0.713-0.354-1.094-0.49c-0.041-0.015-0.082-0.025-0.124-0.032c-0.116-0.019-0.233-0.008-0.343,0.027
				c-0.026,0.008-0.051,0.019-0.076,0.03c-0.096,0.043-0.184,0.104-0.256,0.184c-0.01,0.011-0.017,0.024-0.026,0.035
				c-0.017,0.022-0.035,0.043-0.05,0.068c-0.299,0.483-0.619,0.942-0.955,1.383l2.513,5.771
				C27.074,17.771,27.219,17.684,27.326,17.553z"/>
		</g>
		<g>
			<path fill="#945BA0" d="M12.781,17.397c-1.328-1.143-2.577-2.344-3.758-3.645c-0.492-0.551-0.973-1.118-1.427-1.716L5.06,17.862
				c0.095,0.022,0.197,0.018,0.293-0.02c0.837-0.327,2.961-0.874,4.147,1.366c1.296,2.448,2.823-0.613,3.327-1.785
				C12.812,17.413,12.795,17.409,12.781,17.397z"/>
			<path fill="#A366AD" d="M7.163,11.44c-0.036-0.051-0.072-0.103-0.107-0.155c-0.139-0.203-0.275-0.408-0.406-0.619
				c-0.003-0.004-0.006-0.008-0.008-0.012c-0.178-0.288-0.53-0.42-0.851-0.319c-0.103,0.037-0.207,0.073-0.308,0.113
				c-0.001,0-0.002,0.001-0.002,0.001c-0.124,0.049-0.244,0.102-0.363,0.157c-0.03,0.014-0.061,0.028-0.091,0.043
				c-0.12,0.058-0.239,0.118-0.355,0.184c-0.739,0.413-1.372,0.979-1.878,1.667c-0.117,0.178-0.259,0.341-0.357,0.534
				c-0.101,0.191-0.229,0.367-0.312,0.571c-0.196,0.391-0.347,0.807-0.495,1.228c-0.12,0.431-0.249,0.862-0.327,1.311
				c-0.06,0.251-0.097,0.508-0.132,0.766c0.048-0.028,0.098-0.056,0.15-0.083c0.004-0.002,0.007-0.004,0.01-0.006
				c0.05-0.026,0.103-0.052,0.157-0.077c0.006-0.003,0.012-0.006,0.019-0.009c0.053-0.024,0.108-0.047,0.165-0.07
				c0.008-0.003,0.016-0.007,0.025-0.01c0.056-0.021,0.114-0.042,0.173-0.06c0.009-0.003,0.019-0.006,0.028-0.009
				c0.059-0.018,0.12-0.035,0.182-0.049c0.01-0.002,0.02-0.005,0.03-0.007c0.063-0.014,0.126-0.026,0.191-0.035
				c0.01-0.001,0.019-0.003,0.029-0.004c0.066-0.009,0.134-0.016,0.202-0.019c0.008,0,0.017,0,0.025-0.001
				c0.071-0.003,0.142-0.003,0.214,0.001c0.005,0,0.01,0.001,0.016,0.001c0.076,0.005,0.152,0.012,0.23,0.025l0.001,0
				c0.077,0.013,0.155,0.031,0.234,0.053c0.005,0.002,0.011,0.003,0.016,0.004c0.075,0.022,0.151,0.049,0.227,0.08
				c0.009,0.004,0.018,0.007,0.027,0.011c0.074,0.031,0.148,0.068,0.223,0.109c0.011,0.006,0.022,0.012,0.033,0.018
				c0.074,0.042,0.147,0.089,0.221,0.141c0.012,0.008,0.023,0.016,0.035,0.025c0.073,0.053,0.146,0.112,0.22,0.177
				c0.012,0.01,0.024,0.021,0.035,0.032c0.073,0.066,0.146,0.138,0.219,0.217c0.011,0.012,0.022,0.024,0.033,0.036
				c0.074,0.081,0.147,0.168,0.22,0.263c0.003,0.004,0.007,0.008,0.01,0.012c0.074,0.097,0.178,0.16,0.29,0.187l2.536-5.824
				C7.448,11.842,7.304,11.643,7.163,11.44z"/>
		</g>
		<g>
			<path fill="#379B6D" d="M18.469,16.63l0.008-0.008c1.175-1.205,2.295-2.491,3.304-3.823c1-1.329,1.927-2.744,2.452-4.17
				l0.001-0.002l0.014-0.036c0.183-0.45,0.692-0.694,1.172-0.548c0.993,0.301,1.981,0.724,2.87,1.328
				c0.893,0.596,1.653,1.396,2.204,2.289c0.128,0.228,0.281,0.445,0.382,0.683c0.104,0.236,0.235,0.463,0.315,0.706
				c0.192,0.476,0.327,0.963,0.454,1.448c0.097,0.49,0.199,0.977,0.245,1.467c0.074,0.489,0.075,0.977,0.11,1.464
				c0.019,0.274-0.179,0.524-0.461,0.566c-0.297,0.045-0.575-0.156-0.621-0.448l-0.008-0.049c-0.071-0.453-0.107-0.912-0.212-1.354
				c-0.078-0.449-0.207-0.88-0.327-1.311c-0.148-0.421-0.299-0.837-0.495-1.228c-0.083-0.204-0.21-0.38-0.312-0.571
				c-0.098-0.194-0.24-0.356-0.357-0.534c-0.505-0.687-1.139-1.254-1.878-1.667c-0.344-0.196-0.713-0.354-1.094-0.49
				c-0.326-0.116-0.692,0.015-0.874,0.309c-0.704,1.14-1.527,2.143-2.384,3.102c-1.181,1.3-2.43,2.502-3.758,3.645
				c-0.259,0.221-0.685,0.165-0.855-0.183C18.268,17.02,18.318,16.784,18.469,16.63z"/>
			<path fill="#3AA176" d="M13.531,16.63l-0.008-0.008c-1.175-1.205-2.295-2.491-3.304-3.823c-1-1.329-1.927-2.744-2.452-4.17
				L7.766,8.626L7.752,8.591C7.569,8.14,7.06,7.896,6.58,8.042C5.587,8.343,4.598,8.766,3.71,9.371
				c-0.893,0.596-1.653,1.396-2.204,2.289c-0.128,0.228-0.281,0.445-0.382,0.683c-0.104,0.236-0.235,0.463-0.315,0.706
				c-0.192,0.476-0.327,0.963-0.454,1.448c-0.097,0.49-0.199,0.977-0.245,1.467c-0.074,0.489-0.075,0.977-0.11,1.464
				c-0.019,0.274,0.179,0.524,0.461,0.566c0.297,0.045,0.575-0.156,0.621-0.448l0.008-0.049c0.071-0.453,0.107-0.912,0.212-1.354
				c0.078-0.449,0.207-0.88,0.327-1.311c0.148-0.421,0.299-0.837,0.495-1.228c0.083-0.204,0.21-0.38,0.312-0.571
				c0.098-0.194,0.24-0.356,0.357-0.534c0.505-0.687,1.139-1.254,1.878-1.667c0.344-0.196,0.713-0.354,1.094-0.49
				c0.326-0.116,0.692,0.015,0.874,0.309c0.704,1.14,1.527,2.143,2.384,3.102c1.181,1.3,2.43,2.502,3.758,3.645
				c0.259,0.221,0.685,0.165,0.855-0.183C13.732,17.02,13.682,16.784,13.531,16.63z"/>
			<path fill="#379B6D" d="M19,24.975c0,0,5.792-0.982,8.469-4.457c0.143-0.185,0.469-0.091,0.489,0.131
				c0.141,1.598-1.866,6.722-5.41,8.31C18.11,30.947,19,24.975,19,24.975z"/>
			<path fill="#3AA176" d="M7,32h6.714c0,0,0.815-0.495-0.309-1.466S7,29.838,7,32z"/>
			<path fill="#379B6D" d="M25,32h-6.714c0,0-0.815-0.495,0.309-1.466C19.719,29.563,25,29.838,25,32z"/>
			<path fill="#40A87B" d="M12,11.625c0,6.157-3,7.417-3,10.958c0,0.404,0.03,0.773,0.066,1.133
				c-0.135,0.231-0.262,0.482-0.372,0.775c-1.458,3.903-0.315,4.683,0.67,5.751c0.936,1.015,4.242,1.163,5.251-0.529
				C15.425,29.83,16,29.792,16,29.792V13.5L12,11.625z"/>
			<path fill="#3AA176" d="M23.306,24.492c-0.109-0.293-0.237-0.544-0.372-0.775C22.97,23.356,23,22.988,23,22.583
				c0-3.458-3-4.801-3-10.958L16,13.5v16.292c0,0,0.575,0.038,1.385-0.077c1.009,1.691,4.314,1.543,5.251,0.529
				C23.621,29.175,24.765,28.394,23.306,24.492z"/>
			<g>
				<path fill="#F7D684" d="M11.135,23.993c0.334,1.675,1.439,3.692,4.865,3.882V25C14.202,25,12.531,24.628,11.135,23.993z"/>
				<path fill="#F0C877" d="M16,27.875c3.425-0.19,4.531-2.207,4.865-3.882C19.469,24.628,17.798,25,16,25V27.875z"/>
				<path fill="#FAE09F" d="M16,21c-1.698,0-3.279-0.336-4.626-0.907C11.142,20.731,11,21.48,11,22.583
					c0,0.391,0.031,0.884,0.135,1.41C12.531,24.628,14.202,25,16,25V21z"/>
				<path fill="#F7D684" d="M16,25c1.798,0,3.469-0.372,4.865-1.007C20.969,23.467,21,22.974,21,22.583
					c0-1.103-0.142-1.852-0.374-2.49C19.279,20.664,17.698,21,16,21V25z"/>
				<path fill="#FDEBBB" d="M16,17c-1.036,0-2.026-0.129-2.95-0.355c-0.308,0.806-0.643,1.45-0.895,1.887
					c-0.311,0.537-0.579,1.008-0.78,1.561C12.721,20.664,14.302,21,16,21V17z"/>
				<path fill="#FAE09F" d="M16,21c1.698,0,3.279-0.336,4.626-0.907c-0.201-0.553-0.469-1.024-0.78-1.561
					c-0.253-0.436-0.587-1.08-0.895-1.887C18.026,16.871,17.036,17,16,17V21z"/>
				<polygon fill="#FDEBBB" points="13.856,13 13.856,13 13.857,13 				"/>
				<polygon fill="#FAE09F" points="18.144,13 18.143,13 18.144,13 				"/>
				<path fill="#FFF3D9" d="M16,14l-1-0.792L13.857,13l-0.001,0c-0.096,1.44-0.432,2.665-0.806,3.645C13.974,16.871,14.964,17,16,17
					V14z"/>
				<path fill="#FDEBBB" d="M18.143,13L17,13.208L16,14v3c1.036,0,2.026-0.129,2.95-0.355c-0.375-0.98-0.711-2.205-0.806-3.645
					L18.143,13z"/>
			</g>
			<path fill="#46B080" d="M13.583,21.697c0.531,0.973,0.267,2.188-0.62,2.853l-0.005,0.004c-0.941,0.705-2.267,0.56-3.033-0.333
				l-1.15-1.342c-1.242-1.449-0.959-3.655,0.609-4.743L11.021,17L13.583,21.697z"/>
			<path fill="#40A87B" d="M20.979,17l1.636,1.135c1.568,1.088,1.851,3.294,0.609,4.743l-1.15,1.342
				c-0.765,0.893-2.092,1.038-3.033,0.333l-0.005-0.004c-0.887-0.665-1.151-1.88-0.62-2.853L20.979,17z"/>
			<g>
				<path fill="#46B080" d="M11.455,7.201c0,0.181,0.009,0.36,0.025,0.536c0.032,0.348-0.02,0.698-0.17,1.014
					C11.11,9.171,11,9.625,11,10.099C11,12.254,13.239,14,16,14V2C13.49,2,11.455,4.328,11.455,7.201z"/>
				<path fill="#40A87B" d="M21,10.099c0-0.474-0.11-0.928-0.31-1.348c-0.15-0.315-0.202-0.666-0.17-1.014
					c0.016-0.176,0.025-0.355,0.025-0.536C20.545,4.328,18.51,2,16,2v12C18.761,14,21,12.254,21,10.099z"/>
			</g>
			<g>
				<g>
					<path fill="#40A87B" d="M15.783,1.312l-0.669,1.004c-0.072,0.108-0.05,0.255,0.052,0.334C15.355,2.798,15.673,3,15.991,3
						C15.994,3,15.997,2.999,16,2.999V1.203C15.918,1.2,15.834,1.235,15.783,1.312z"/>
					<path fill="#3AA176" d="M16.868,2.316l-0.669-1.004C16.151,1.241,16.076,1.206,16,1.203v1.796
						c0.315-0.004,0.628-0.203,0.816-0.349C16.919,2.571,16.94,2.424,16.868,2.316z"/>
				</g>
			</g>
			<path fill="#F7D684" d="M14,4c-0.137,0-0.249-0.111-0.25-0.249C13.749,3.69,13.715,2.25,11.857,2.25
				c-2.884,0-3.107-1.531-3.107-2C8.75,0.112,8.862,0,9,0s0.25,0.112,0.25,0.25c0,0.953,0.95,1.5,2.607,1.5
				c2.365,0,2.393,1.98,2.393,2C14.25,3.888,14.139,3.999,14,4L14,4z"/>
			<path fill="#231F20" d="M15,11.75c-0.082,0-0.162-0.041-0.21-0.114c-0.013-0.018-0.221-0.308-0.823-0.388
				c-0.137-0.018-0.232-0.144-0.215-0.281c0.018-0.136,0.134-0.242,0.281-0.214c0.842,0.112,1.146,0.564,1.179,0.615
				c0.073,0.117,0.038,0.271-0.079,0.344C15.092,11.738,15.046,11.75,15,11.75z"/>
			<g>
				<path fill="#FFFFFF" d="M13.368,5.653C13.262,5.565,13.145,5.5,13,5.5c-0.807,0-0.968,1.605-1,2.243
					C11.993,7.885,12.109,8,12.252,8h0.642c-0.178-0.263-0.288-0.591-0.288-0.952C12.606,6.43,12.919,5.901,13.368,5.653z"/>
				<g>
					<path fill="#4896C8" d="M12.647,6.726c-0.019,0.105-0.04,0.209-0.04,0.321c0,0.361,0.111,0.689,0.288,0.952h0.853
						C13.891,8,14.007,7.885,14,7.743c-0.006-0.12-0.018-0.276-0.037-0.447c-0.08,0.015-0.154,0.048-0.238,0.048
						C13.262,7.344,12.875,7.089,12.647,6.726z"/>
					<path fill="#373F3F" d="M12.647,6.726c0.228,0.363,0.615,0.617,1.077,0.617c0.085,0,0.158-0.032,0.238-0.048
						c-0.064-0.573-0.22-1.332-0.594-1.643C13.001,5.856,12.735,6.252,12.647,6.726z"/>
				</g>
			</g>
			<g>
				<path fill="#F7F7F7" d="M18.632,5.653C18.738,5.565,18.855,5.5,19,5.5c0.807,0,0.968,1.605,1,2.243
					C20.007,7.885,19.891,8,19.748,8h-0.642c0.178-0.263,0.288-0.591,0.288-0.952C19.394,6.43,19.081,5.901,18.632,5.653z"/>
				<g>
					<path fill="#4390BF" d="M19.353,6.726c0.019,0.105,0.04,0.209,0.04,0.321c0,0.361-0.111,0.689-0.288,0.952h-0.853
						C18.109,8,17.993,7.885,18,7.743c0.006-0.12,0.018-0.276,0.037-0.447c0.08,0.015,0.154,0.048,0.238,0.048
						C18.738,7.344,19.125,7.089,19.353,6.726z"/>
					<path fill="#2B3332" d="M19.353,6.726c-0.228,0.363-0.615,0.617-1.077,0.617c-0.085,0-0.158-0.032-0.238-0.048
						c0.064-0.573,0.22-1.332,0.594-1.643C18.999,5.856,19.265,6.252,19.353,6.726z"/>
				</g>
			</g>
			<path fill="#F0C877" d="M18,4c-0.138,0-0.25-0.112-0.25-0.25c0-0.02,0.027-2,2.393-2c1.657,0,2.607-0.547,2.607-1.5
				C22.75,0.112,22.862,0,23,0s0.25,0.112,0.25,0.25c0,0.469-0.224,2-3.107,2c-1.871,0-1.893,1.439-1.893,1.5
				C18.25,3.888,18.138,4,18,4z"/>
			<path fill="#231F20" d="M17,11.748c-0.047,0-0.094-0.013-0.135-0.04c-0.114-0.075-0.149-0.225-0.077-0.34
				c0.032-0.051,0.337-0.503,1.179-0.615c0.146-0.027,0.263,0.078,0.281,0.214c0.018,0.137-0.078,0.263-0.215,0.281
				c-0.608,0.082-0.815,0.376-0.823,0.389C17.161,11.708,17.081,11.748,17,11.748z"/>
		</g>
	</g>
</g>
<g id="labels">
</g>
</svg>
