<?xml version="1.0" encoding="utf-8"?>
<!-- Generator: Adobe Illustrator 23.0.6, SVG Export Plug-In . SVG Version: 6.00 Build 0)  -->
<svg version="1.1" xmlns="http://www.w3.org/2000/svg" xmlns:xlink="http://www.w3.org/1999/xlink" x="0px" y="0px" width="32px"
	 height="32px" viewBox="0 0 32 32" enable-background="new 0 0 32 32" xml:space="preserve">
<g id="labels">
	<g>
	</g>
</g>
<g id="icons">
	<path fill="#EFD4A7" d="M27.165,0.235c-0.202,0.333-0.422,0.651-0.656,0.953L25.548,1.34c-0.114,0.016-0.203-0.099-0.159-0.205
		l0.547-1.056C26.277,0.05,26.636,0.023,27.016,0C27.137-0.007,27.228,0.131,27.165,0.235z"/>
	<path fill="#F5DEB9" d="M4.835,0.235c0.202,0.333,0.422,0.651,0.656,0.953L6.452,1.34c0.114,0.016,0.203-0.099,0.159-0.205
		L6.064,0.079C5.723,0.05,5.364,0.023,4.984,0C4.863-0.007,4.772,0.131,4.835,0.235z"/>
	<g>
		<g>
			<path fill="#FAC4D1" d="M24.5,15c-1.511,2.519-1.466,6-8.5,6v9c4.422,0,10.976-1.437,11.716-9.788
				c0.43-4.855,2.008-5.174,3.016-5.207c0.115-0.004,0.159-0.147,0.073-0.223C30.582,14.584,30.31,14.5,30,14.5
				c0.147-0.362,0.941-0.761,1.894-0.949c0.112-0.022,0.141-0.176,0.04-0.229c-0.787-0.418-2.203-0.297-2.872-0.094
				c0.026-0.269,0.245-0.556,0.67-0.785c0.098-0.053,0.086-0.195-0.019-0.23C27.642,11.525,25.934,12.609,24.5,15z"/>
			<path fill="#E85160" d="M27.579,21.209c-0.176,1.13-0.454,2.135-0.837,3c-1.216-0.237-2.399-0.826-3.363-1.79
				c-0.841-0.841-1.388-1.85-1.676-2.9c1.052-0.843,1.562-1.94,2.051-3.021c0.236,1.208,0.829,2.38,1.789,3.339
				C26.149,20.443,26.846,20.89,27.579,21.209z"/>
			<path fill="#E85160" d="M24.654,27.151C22.174,29.456,18.694,30,16,30v-9c1.488,0,2.646-0.163,3.582-0.433
				C20.386,23.233,22.591,26.099,24.654,27.151z"/>
		</g>
		<path fill="#FDE2E6" d="M21.28,13.085c0.088-0.479,0.255-0.951,0.541-1.345c1.05-1.445,1.329-3.057,1.367-3.678
			C23.396,4.646,19.591,1,16,1S8.604,4.646,8.812,8.062c0.035,0.572,0.275,1.987,1.135,3.337c0.418,0.656,0.724,1.384,0.856,2.151
			C10.919,14.217,11,14.798,11,15.25c0,2.25-2,3.621-2,7.25c0,4.25,2,7.5,7,7.5s7-3.25,7-7.5c0-3.629-2-5-2-7.25
			C21,14.695,21.122,13.947,21.28,13.085z"/>
		<path fill="#FDECEF" d="M8.812,8.062c0.035,0.572,0.275,1.987,1.135,3.337c0.418,0.656,0.723,1.384,0.856,2.151
			C10.919,14.217,11,14.798,11,15.25c0,2.25-2,3.621-2,7.25c0,4.25,2,7.5,7,7.5V1C12.409,1,8.604,4.646,8.812,8.062z"/>
		<path fill="#E85160" d="M18.938,2.296C19.799,1.619,20.816,0.375,27.016,0c0.122-0.007,0.212,0.131,0.149,0.235
			c-1.631,2.691-4.44,4.362-5.704,5.01C21.461,5.246,20.062,3.233,18.938,2.296z"/>
		<path fill="#F3586F" d="M13.062,2.296C12.201,1.619,11.184,0.375,4.984,0C4.863-0.007,4.772,0.131,4.835,0.235
			c1.631,2.691,4.44,4.362,5.704,5.01C10.539,5.246,11.938,3.233,13.062,2.296z"/>
		<path fill="#FCD8DE" d="M12.717,28.731c-1.19,0-3.255,0.768-3.255,2.269c0,0.942,2.012,1,3.081,1s3.207-0.062,3.207-2.2
			C15.75,28.823,14.734,28.731,12.717,28.731z"/>
		<path fill="#FBCFD6" d="M19.283,28.731c1.19,0,3.255,0.768,3.255,2.269c0,0.942-2.012,1-3.081,1s-3.207-0.062-3.207-2.2
			C16.25,28.823,17.266,28.731,19.283,28.731z"/>
		<path fill="#F3586F" d="M22.275,18.976C21.249,20.171,19.188,21,16,21s-5.25-0.812-6.276-2.007
			c-0.356,0.854-0.66,1.833-0.713,3.112C10.062,23.438,12.188,24.5,16,24.5s5.938-1.062,6.988-2.394
			C22.953,20.808,22.631,19.83,22.275,18.976z"/>
		<path fill="#F3586F" d="M16,27.81c-3.406,0-5.011-0.998-6.586-2.276C10.141,28.156,12.203,30,16,30s5.859-1.844,6.586-4.466
			C21.011,26.812,19.406,27.81,16,27.81z"/>
		<path fill="#F3586F" d="M21.607,7.093c-0.122-0.019-0.203-0.118-0.206-0.242c-0.043-1.777-2.295-4.829-5.293-2.25
			C16.064,4.639,16.045,4.684,16,4.684V1c4.172,0,7.094,4.109,7.172,6.375C22.988,7.375,22.228,7.192,21.607,7.093z"/>
		<path fill="#F3586F" d="M19.755,8.482c0.005-0.026,0.028-0.045,0.055-0.045l2.016,0.049c0.074-0.01,0.136,0.055,0.123,0.129
			l-0.217,1.16c-0.012,0.066-0.081,0.106-0.144,0.083l-1.909-0.722c-0.025-0.009-0.039-0.035-0.034-0.061L19.755,8.482z"/>
		<path fill="#F3586F" d="M19.246,9.853c0.013-0.023,0.042-0.033,0.067-0.024l1.883,0.721c0.073,0.015,0.11,0.098,0.073,0.162
			l-0.593,1.02c-0.034,0.058-0.111,0.072-0.164,0.03l-1.557-1.319c-0.02-0.017-0.025-0.046-0.012-0.069L19.246,9.853z"/>
		<g>
			<path fill="#FDECEF" d="M11.25,14.753C9.25,14.625,5,16,5,18.398c0,0.74,0.625,1.599,1.75,1.599c1.129,0,2.25-3.372,4.5-3.256
				C11.25,16.141,11.25,15.569,11.25,14.753z"/>
		</g>
		<path fill="#FF5F7E" d="M8.312,18.65c-0.557,0.71-1.063,1.347-1.562,1.347c-1.125,0-1.75-0.86-1.75-1.599
			c0-0.84,0.497-1.536,1.21-2.09c-0.001,0.031-0.01,0.06-0.01,0.092C6.201,17.367,6.955,18.466,8.312,18.65z"/>
		<path fill="#FDE2E6" d="M20.75,14.753c2.188,0,6.25,1.247,6.25,3.645c0,0.74-0.625,1.599-1.75,1.599
			c-1.129,0-2.062-3.256-4.5-3.256C20.75,16.141,20.75,15.569,20.75,14.753z"/>
		<path fill="#F3586F" d="M25.799,16.4c0-0.032-0.009-0.061-0.01-0.092c0.714,0.554,1.21,1.249,1.21,2.09
			c0,0.74-0.625,1.599-1.75,1.599c-0.499,0-1.006-0.637-1.562-1.347C25.045,18.466,25.799,17.367,25.799,16.4z"/>
		<g>
			<path fill="#2B3332" d="M18.5,7.221c-0.552,0-1-0.481-1-1.075s0.448-1.075,1-1.075s1,0.481,1,1.075S19.052,7.221,18.5,7.221z"/>
			<path fill="#005865" d="M18.578,7.217c0.404-0.029,0.73-0.313,0.862-0.706c-0.101-0.116-0.24-0.189-0.4-0.189
				c-0.305,0-0.552,0.266-0.552,0.594C18.488,7.028,18.528,7.128,18.578,7.217z"/>
			<ellipse fill="#F7F7F7" cx="18.5" cy="5.821" rx="0.375" ry="0.5"/>
		</g>
		<path fill="#2B3332" d="M16.233,8.69c0.175,0.45,0.723,0.708,1.145,0.545c0.129-0.051,0.274,0.013,0.324,0.142
			c0.05,0.129-0.014,0.274-0.142,0.324c-0.146,0.057-0.299,0.083-0.453,0.083c-0.416,0-0.831-0.198-1.107-0.526v-0.73
			C16.099,8.53,16.195,8.592,16.233,8.69z"/>
		<path fill="#FF5F7E" d="M10.393,7.093c0.122-0.019,0.203-0.118,0.206-0.242c0.043-1.777,2.295-4.829,5.293-2.25
			C15.936,4.639,15.955,4.684,16,4.684V1c-4.375,0-7.094,4.109-7.172,6.375C9.012,7.375,9.772,7.192,10.393,7.093z"/>
		<path fill="#FF5F7E" d="M12.245,8.482c-0.005-0.026-0.028-0.045-0.055-0.045l-2.016,0.049c-0.074-0.01-0.136,0.055-0.123,0.129
			l0.217,1.16c0.012,0.066,0.081,0.106,0.144,0.083l1.909-0.722c0.025-0.009,0.039-0.035,0.034-0.061L12.245,8.482z"/>
		<path fill="#FF5F7E" d="M12.723,9.853c-0.013-0.023-0.042-0.033-0.067-0.024l-1.883,0.721c-0.073,0.015-0.11,0.098-0.073,0.162
			l0.593,1.02c0.034,0.058,0.111,0.072,0.164,0.03l1.557-1.319c0.02-0.017,0.025-0.046,0.012-0.069L12.723,9.853z"/>
		<g>
			<path fill="#373F3F" d="M12.5,6.146c0-0.594,0.448-1.075,1-1.075s1,0.481,1,1.075s-0.448,1.075-1,1.075S12.5,6.739,12.5,6.146z"
				/>
			<path fill="#0E616D" d="M13.422,7.217c-0.404-0.029-0.73-0.313-0.862-0.706c0.101-0.116,0.24-0.189,0.4-0.189
				c0.305,0,0.552,0.266,0.552,0.594C13.512,7.028,13.472,7.128,13.422,7.217z"/>
			<ellipse fill="#FFFFFF" cx="13.5" cy="5.821" rx="0.375" ry="0.5"/>
		</g>
		<path fill="#373F3F" d="M16,8.529v0.73c-0.276,0.328-0.691,0.526-1.107,0.526c-0.153,0-0.307-0.027-0.453-0.083
			c-0.128-0.05-0.192-0.195-0.142-0.324c0.05-0.129,0.194-0.193,0.324-0.142c0.422,0.162,0.97-0.095,1.145-0.545
			C15.805,8.592,15.901,8.53,16,8.529z"/>
		<path fill="#FF5F7E" d="M9.012,22.106c0.035-1.275,0.35-2.264,0.706-3.118C10.743,20.182,12.812,21,16,21v3.5
			C12.188,24.5,10.062,23.438,9.012,22.106z"/>
		<path fill="#FF5F7E" d="M16,27.81V30c-3.797,0-5.859-1.844-6.586-4.466C10.989,26.812,12.594,27.81,16,27.81z"/>
	</g>
</g>
</svg>
