<?xml version="1.0" encoding="utf-8"?>
<!-- Generator: Adobe Illustrator 23.0.6, SVG Export Plug-In . SVG Version: 6.00 Build 0)  -->
<svg version="1.1" xmlns="http://www.w3.org/2000/svg" xmlns:xlink="http://www.w3.org/1999/xlink" x="0px" y="0px" width="32px"
	 height="32px" viewBox="0 0 32 32" enable-background="new 0 0 32 32" xml:space="preserve">
<g id="labels">
	<g>
	</g>
</g>
<g id="icons">
	<g>
		<path fill="#FFAD68" d="M14.073,16.319c-1.516-0.827-3.721-3.256-7.511-3.256c-2.433,0-4.382,0.738-5.741,1.504
			c-1.13,0.637-1.081,2.282,0.07,2.879c1.506,0.781,3.613,1.492,5.601,1.492c2.206,0,5.237-0.482,7.58-1.447
			C14.073,16.939,14.073,16.319,14.073,16.319z"/>
		<path fill="#FFE28A" d="M14.073,17.49c-2.343,0.965-5.374,1.447-7.58,1.447c-1.596,0-3.268-0.458-4.644-1.043
			c-0.653-0.277-1.098-2.978,4.722-3.082c3.789-0.068,5.987,1.429,7.503,2.256C14.073,17.069,14.073,16.939,14.073,17.49z"/>
		<path fill="#FCA15E" d="M17.927,16.319c1.516-0.827,3.721-3.256,7.511-3.256c2.433,0,4.382,0.738,5.741,1.504
			c1.13,0.637,1.081,2.282-0.07,2.879c-1.506,0.781-3.613,1.492-5.601,1.492c-2.206,0-5.237-0.482-7.58-1.447
			C17.927,16.939,17.927,16.319,17.927,16.319z"/>
		<path fill="#FFD96C" d="M17.927,17.069c1.516-0.827,3.713-2.324,7.503-2.256c5.82,0.104,5.375,2.805,4.722,3.082
			c-1.377,0.585-3.049,1.043-4.644,1.043c-2.206,0-5.237-0.482-7.58-1.447C17.927,16.939,17.927,17.069,17.927,17.069z"/>
		<rect x="14" y="25.615" fill="#373F3F" width="2" height="5.333"/>
		<path fill="#FFB76D" d="M16,3.681v12.444c-3.436,0-7-1.426-7-6.222C9,6.466,12.564,3.681,16,3.681z"/>
		<path fill="#373F3F" d="M12.498,6.254L11.89,3.211c-0.044-0.22,0.012-0.447,0.151-0.622l2.013-2.516
			c0.136-0.17,0.405-0.014,0.324,0.189l-0.958,2.394c-0.055,0.137-0.068,0.286-0.04,0.43l0.594,2.972
			c0.062,0.309-0.175,0.598-0.49,0.598h-0.497C12.75,6.656,12.545,6.488,12.498,6.254z"/>
		
			<rect x="16" y="25.615" transform="matrix(-1 -4.547486e-11 4.547486e-11 -1 34 56.5625)" fill="#2B3332" width="2" height="5.333"/>
		<path fill="#FFE28A" d="M16,14.5c-3.314,0-5.5,3.186-5.5,6.5c0,2.938,2.186,6,5.5,6s5.5-3.062,5.5-6
			C21.5,17.686,19.314,14.5,16,14.5z"/>
		<path fill="#FFEAA7" d="M16,14.5V27c-3.314,0-5.5-3.062-5.5-6C10.5,17.686,12.686,14.5,16,14.5z"/>
		<path fill="#FFAD68" d="M23,9.903c0,4.796-3.564,6.222-7,6.222V3.681C19.436,3.681,23,6.466,23,9.903z"/>
		<path fill="#FFEAA7" d="M16,13.417c-3.436,0-5.5-1.083-6.868-2.009c0.674,3.597,3.821,4.718,6.868,4.718s6.193-1.121,6.868-4.718
			C21.5,12.333,19.436,13.417,16,13.417z"/>
		<path fill="#FEF1C6" d="M16,13.417v2.708c-3.047,0-6.193-1.121-6.868-4.718C10.5,12.333,12.564,13.417,16,13.417z"/>
		<path fill="#2B3332" d="M19.502,6.254l0.609-3.043c0.044-0.22-0.012-0.447-0.151-0.622l-2.013-2.516
			c-0.136-0.17-0.405-0.014-0.324,0.189l0.958,2.394c0.055,0.137,0.068,0.286,0.04,0.43l-0.594,2.972
			c-0.062,0.309,0.175,0.598,0.49,0.598h0.497C19.25,6.656,19.455,6.488,19.502,6.254z"/>
		<path fill="#2B3332" d="M26.781,25.909c-0.372,0.407-1.004,0.435-1.411,0.064c-0.027-0.024-2.687-2.42-5.058-2.316
			c-0.552,0.024-1.019-0.403-1.043-0.955s0.403-1.019,0.955-1.043c3.203-0.142,6.362,2.716,6.495,2.838
			c0.407,0.373,0.435,1.004,0.063,1.411L26.781,25.909z"/>
		<circle fill="#C8CCCB" cx="27.5" cy="25.703" r="2.5"/>
		<path fill="#FFAD68" d="M16,29.294V32h-3.651c-0.516,0-0.928-0.468-0.829-0.974c0.282-1.443,1.778-1.732,2.834-1.732
			C15.271,29.294,16,29.294,16,29.294z"/>
		<path fill="#FCA15E" d="M17.646,29.294c1.057,0,2.553,0.289,2.834,1.732C20.579,31.532,20.167,32,19.651,32H16v-2.706
			C16,29.294,16.729,29.294,17.646,29.294z"/>
		<path fill="#2B3332" d="M26.531,22.159c-0.372,0.407-1.004,0.435-1.411,0.064c-0.027-0.024-2.687-2.42-5.058-2.316
			c-0.552,0.024-1.019-0.403-1.043-0.955s0.403-1.019,0.955-1.043c3.203-0.142,6.362,2.716,6.495,2.838
			c0.407,0.373,0.435,1.004,0.063,1.411L26.531,22.159z"/>
		<circle fill="#D1D4D4" cx="26.5" cy="21.953" r="2.5"/>
		<g>
			
				<ellipse transform="matrix(0.0727 -0.9974 0.9974 0.0727 9.6852 31.4401)" fill="#0F769B" cx="21.75" cy="10.512" rx="3.261" ry="1.771"/>
			<path fill="#0A6F8E" d="M23.492,9.598c0.036,0.331,0.051,0.679,0.025,1.043c-0.131,1.796-1.028,3.194-2.004,3.123
				c-0.976-0.071-1.661-1.585-1.53-3.381c0.012-0.158,0.036-0.309,0.059-0.461c0.517-0.465,1.193-0.756,1.943-0.756
				C22.539,9.167,23.051,9.33,23.492,9.598z"/>
			<ellipse fill="#F7F7F7" cx="21.896" cy="9.042" rx="1" ry="1.25"/>
		</g>
		<g>
			
				<ellipse transform="matrix(0.9974 -0.0727 0.0727 0.9974 -0.7369 0.7728)" fill="#137FA0" cx="10.25" cy="10.512" rx="1.771" ry="3.261"/>
			<path fill="#0F769B" d="M8.508,9.598c-0.036,0.331-0.051,0.679-0.025,1.043c0.131,1.796,1.028,3.194,2.004,3.123
				c0.976-0.071,1.661-1.585,1.53-3.381c-0.012-0.158-0.036-0.309-0.059-0.461c-0.517-0.465-1.193-0.756-1.943-0.756
				C9.461,9.167,8.949,9.33,8.508,9.598z"/>
			<path fill="#FFFFFF" d="M11.104,9.042c0,0.69-0.448,1.25-1,1.25c-0.552,0-1-0.56-1-1.25c0-0.69,0.448-1.25,1-1.25
				C10.656,7.792,11.104,8.351,11.104,9.042z"/>
		</g>
		<path fill="#373F3F" d="M5.219,25.909c0.372,0.407,1.004,0.435,1.411,0.064c0.027-0.024,2.687-2.42,5.058-2.316
			c0.552,0.024,1.019-0.403,1.043-0.955c0.024-0.552-0.403-1.019-0.955-1.043c-3.203-0.142-6.362,2.716-6.495,2.838
			c-0.407,0.373-0.435,1.004-0.063,1.411L5.219,25.909z"/>
		<circle fill="#D1D4D4" cx="4.5" cy="25.703" r="2.5"/>
		<path fill="#373F3F" d="M5.469,22.159c0.372,0.407,1.004,0.435,1.411,0.064c0.027-0.024,2.687-2.42,5.058-2.316
			c0.552,0.024,1.019-0.403,1.043-0.955c0.024-0.552-0.403-1.019-0.955-1.043c-3.203-0.142-6.362,2.716-6.495,2.838
			c-0.407,0.373-0.435,1.004-0.063,1.411L5.469,22.159z"/>
		<circle fill="#DADDDC" cx="5.5" cy="21.953" r="2.5"/>
	</g>
</g>
</svg>
