<?xml version="1.0" encoding="utf-8"?>
<!-- Generator: Adobe Illustrator 23.0.6, SVG Export Plug-In . SVG Version: 6.00 Build 0)  -->
<svg version="1.1" xmlns="http://www.w3.org/2000/svg" xmlns:xlink="http://www.w3.org/1999/xlink" x="0px" y="0px" width="32px"
	 height="32px" viewBox="0 0 32 32" enable-background="new 0 0 32 32" xml:space="preserve">
<g id="labels">
	<g>
	</g>
</g>
<g id="icons">
	<g>
		<path fill="#65A9DC" d="M7.929,28.429c-1.481,0.697-2.267,1.716-1.786,2.786c0.643,1.429,5.071,0.571,5.786-0.929
			c0.443-0.93,0.378-1.69-0.286-2.071C10.948,27.815,9.143,27.857,7.929,28.429z"/>
		<path fill="#2B3332" d="M18.271,31c-0.021,0-0.041-0.001-0.062-0.002c-0.253-0.021-0.477-0.167-0.598-0.39l-4.437-8.435
			c-0.129-0.245-0.035-0.547,0.209-0.675c0.245-0.127,0.547-0.035,0.675,0.209l4.247,8.074l3.545-4.822l7.663,4.628l-2.84-8.811
			c-0.084-0.263,0.06-0.544,0.323-0.629c0.262-0.083,0.545,0.06,0.629,0.323l3.045,9.447c0.097,0.301-0.001,0.623-0.249,0.818
			c-0.249,0.196-0.584,0.216-0.853,0.053l-7.453-4.501L18.871,30.7C18.72,30.894,18.502,31,18.271,31z M29.719,30.223h0.01H29.719z"
			/>
		<circle fill="#4896C8" cx="27.296" cy="22.644" r="3.604"/>
		<path fill="#65A9DC" d="M5.045,14.981C4.442,15.253,3.743,15.404,3,15.404c-0.917,0-3-0.625-3,1.5c0,1.75,1.958,1.875,3,1.5
			c0.538-0.194,1.302-0.719,2.047-1.301L5.045,14.981z"/>
		<path fill="#5CA3D5" d="M26.955,14.981c0.602,0.272,1.302,0.424,2.045,0.424c0.917,0,3-0.625,3,1.5c0,1.75-1.958,1.875-3,1.5
			c-0.538-0.194-1.302-0.719-2.047-1.301L26.955,14.981z"/>
		<path fill="#65A9DC" d="M14.274,11.022c-0.523-1.254-2.512-6.662-2.904-7.524c-0.211-0.463-0.679-2.456-3.814-2.456
			c-3.031,0-7.472,1.933-7.472,4.337c0,1.933,6.897,0.627,6.897,0.627l4.785,7.524L14.274,11.022z"/>
		<path fill="#E55D53" d="M12.417,8.975c-0.532-1.29-1.625-4.1-1.897-4.654C9.917,4.958,8.583,5.667,7.917,5.909
			c0.243,0.419,2.447,3.895,2.447,3.895S11.419,9.206,12.417,8.975z"/>
		<path fill="#5CA3D5" d="M17.725,10.769c0.498-1.195,2.07-5.924,2.717-6.571c0.647-0.647,9.264-5.974,11.326-3.584
			c1.512,1.752-4.821,5.54-6.251,6.438c-0.203,0.127-0.381,0.282-0.538,0.464l-4.865,5.644L17.725,10.769z"/>
		<path fill="#D64F45" d="M19.836,8.733c0.265-0.886,1.336-3.571,1.758-3.992c0.421-0.421,6.44-3.737,7.155-2.513
			c0.596,1.022-3.742,3.722-4.131,4.046s-2.705,3.341-2.705,3.341S20.85,9.01,19.836,8.733z"/>
		<g>
			<g>
				<path fill="#65A9DC" d="M4,19.001c0,6.502,5.498,10,12,10V5.149C8.439,5.149,4,14.337,4,19.001z"/>
			</g>
			<g>
				<path fill="#65A9DC" d="M4,19.001c0,6.502,5.498,10,12,10V5.149C8.439,5.149,4,14.337,4,19.001z"/>
			</g>
		</g>
		<path fill="#5CA3D5" d="M28,19.001c0,6.502-5.498,10-12,10V5.149C23.561,5.149,28,14.337,28,19.001z"/>
		<path fill="#5CA3D5" d="M24.071,28.429c1.481,0.697,2.267,1.716,1.786,2.786c-0.643,1.429-5.071,0.571-5.786-0.929
			c-0.443-0.93-0.378-1.69,0.286-2.071C21.052,27.815,22.857,27.857,24.071,28.429z"/>
		<path fill="#CE8683" d="M16,14.763L16,14.763c-0.506,0-1.169,0.133-1.479,0.733c0.149,0.289,0.355,0.529,0.595,0.704
			c0.022,0.016,0.044,0.029,0.067,0.044c0.096,0.063,0.197,0.112,0.303,0.152c0.033,0.012,0.065,0.027,0.099,0.037
			C15.718,16.473,15.856,16.5,16,16.5V14.763z"/>
		<ellipse fill="#F7F7F7" cx="10.367" cy="19.875" rx="1.875" ry="2"/>
		<ellipse fill="#F7F7F7" cx="6.417" cy="17.063" rx="0.875" ry="1"/>
		<path fill="#F7F7F7" d="M14.625,19.771c0,0.81,0.616,1.467,1.375,1.467v-2.933C15.241,18.304,14.625,18.961,14.625,19.771z"/>
		<path fill="#EDEEEE" d="M25.583,21.083c-0.927,0.695-1.668,2.616-3.917,2.792C19,24.083,18.708,22.65,16,22.65
			c-2.896,0-3,1.451-5.667,1.243c-2.248-0.176-2.99-2.097-3.917-2.792c-0.833-0.625-1.583-0.667-2.263-0.261
			c0.753,5.272,5.98,8.178,11.846,8.178s10.937-2.83,11.846-8.196C27.167,20.417,26.417,20.458,25.583,21.083z"/>
		<path fill="#F7F7F7" d="M16,22.65c-2.896,0-3,1.451-5.667,1.243c-2.248-0.176-2.99-2.097-3.917-2.792
			c-0.833-0.625-1.583-0.667-2.263-0.261c0.753,5.272,5.98,8.178,11.846,8.178V22.65z"/>
		<ellipse fill="#EDEEEE" cx="21.633" cy="19.875" rx="1.875" ry="2"/>
		<ellipse fill="#EDEEEE" cx="25.583" cy="17.062" rx="0.875" ry="1"/>
		<path fill="#EDEEEE" d="M16,18.304v2.933c0.759,0,1.375-0.657,1.375-1.467C17.375,18.961,16.759,18.304,16,18.304z"/>
		<path fill="#E55D53" d="M16,13.502v0.981v2.237c-1.188,0-2.198-1.625-2.249-2.551c-0.006-0.102,0.079-0.172,0.175-0.207
			C14.309,13.822,14.933,13.508,16,13.502z"/>
		<path fill="#D64F45" d="M18.075,13.962c0.096,0.035,0.181,0.105,0.175,0.207c-0.051,0.926-1.062,2.551-2.249,2.551v-3.218
			C17.068,13.508,17.692,13.822,18.075,13.962z"/>
		<g>
			
				<ellipse transform="matrix(0.4131 -0.9107 0.9107 0.4131 -2.8288 17.9049)" fill="#373F3F" cx="12.477" cy="11.147" rx="1.665" ry="1.499"/>
			<circle fill="#FFFFFF" cx="12.739" cy="10.571" r="0.833"/>
		</g>
		<g>
			
				<ellipse transform="matrix(0.9107 -0.4131 0.4131 0.9107 -2.8613 9.061)" fill="#2B3332" cx="19.523" cy="11.147" rx="1.499" ry="1.665"/>
			<circle fill="#F7F7F7" cx="19.261" cy="10.571" r="0.833"/>
		</g>
	</g>
</g>
</svg>
