<?xml version="1.0" encoding="utf-8"?>
<!-- Generator: Adobe Illustrator 23.0.6, SVG Export Plug-In . SVG Version: 6.00 Build 0)  -->
<svg version="1.1" xmlns="http://www.w3.org/2000/svg" xmlns:xlink="http://www.w3.org/1999/xlink" x="0px" y="0px" width="32px"
	 height="32px" viewBox="0 0 32 32" enable-background="new 0 0 32 32" xml:space="preserve">
<g id="labels">
	<g>
	</g>
</g>
<g id="icons">
	<g>
		<path fill="#C976A3" d="M15,25.5c0,1.933-0.895,3.5-2,3.5s-2-1.567-2-3.5S15,23.567,15,25.5z"/>
		<path fill="#C56A9B" d="M21,25.5c0,1.933-0.895,3.5-2,3.5s-2-1.567-2-3.5S21,23.567,21,25.5z"/>
		<path fill="#C976A3" d="M22.801,9.146C22.801,9.146,32,11,32,15s-3,6.5-6.5,6.5S22.801,9.146,22.801,9.146z"/>
		<path fill="#D786B3" d="M9.199,9.146C9.199,9.146,0,11,0,15s3,6.5,6.5,6.5S9.199,9.146,9.199,9.146z"/>
		<path fill="#DB92BB" d="M16,7C9.925,7,5,11.477,5,17c0,5.523,4.925,10,11,10V7z"/>
		<path fill="#D786B3" d="M27,17c0-5.523-4.925-10-11-10v20C22.075,27,27,22.523,27,17z"/>
		<circle fill="#C84054" cx="12" cy="15" r="1"/>
		<circle fill="#B93D4F" cx="20" cy="15" r="1"/>
		<path fill="#D786B3" d="M10,21c-1.628,0-3.826-1.32-4.71-1.749C6.415,23.688,10.778,27,16,27v-5C14,22,15,21,10,21z"/>
		<path fill="#C976A3" d="M22,21c1.628,0,3.826-1.32,4.71-1.749C25.585,23.688,21.222,27,16,27v-5C18,22,17,21,22,21z"/>
		<path fill="#D786B3" d="M10.265,25.563c-1.367,1.367-3.108,1.842-3.889,1.061c-0.781-0.781-0.306-2.522,1.061-3.889
			C8.804,21.368,11.632,24.196,10.265,25.563z"/>
		<path fill="#C976A3" d="M21.735,25.563c1.367,1.367,3.108,1.842,3.889,1.061c0.781-0.781,0.306-2.522-1.061-3.889
			C23.196,21.368,20.368,24.196,21.735,25.563z"/>
		<path fill="#FFD96C" d="M16,3c-1.657,0-3,0.895-3,2c0,1.105,1.343,2,3,2V3z"/>
		<path fill="#FFD04D" d="M19,5c0-1.105-1.343-2-3-2v4C17.657,7,19,6.105,19,5z"/>
		<ellipse fill="#FFE28A" cx="12" cy="6" rx="3" ry="2"/>
		<ellipse fill="#FFD96C" cx="20" cy="6" rx="3" ry="2"/>
		<path fill="#FFFFFF" d="M16,5c-2.209,0-4,0.895-4,2c0,1.105,1.791,2,4,2V5z"/>
		<path fill="#F7F7F7" d="M20,7c0-1.105-1.791-2-4-2v4C18.209,9,20,8.105,20,7z"/>
		<ellipse fill="#FFEAA7" cx="12" cy="8" rx="3" ry="2"/>
		<ellipse fill="#FFE28A" cx="20" cy="8" rx="3" ry="2"/>
		<path fill="#FEF1C6" d="M16,7c-1.657,0-3,0.895-3,2c0,1.105,1.343,2,3,2V7z"/>
		<path fill="#FFEAA7" d="M19,9c0-1.105-1.343-2-3-2v4C17.657,11,19,10.105,19,9z"/>
		<circle fill="#FFFFFF" cx="12" cy="14.75" r="0.25"/>
		<circle fill="#F7F7F7" cx="20" cy="14.75" r="0.25"/>
	</g>
</g>
</svg>
