<?xml version="1.0" encoding="utf-8"?>
<!-- Generator: Adobe Illustrator 23.0.6, SVG Export Plug-In . SVG Version: 6.00 Build 0)  -->
<svg version="1.1" xmlns="http://www.w3.org/2000/svg" xmlns:xlink="http://www.w3.org/1999/xlink" x="0px" y="0px" width="32px"
	 height="32px" viewBox="0 0 32 32" enable-background="new 0 0 32 32" xml:space="preserve">
<g id="labels">
	<g>
	</g>
</g>
<g id="icons">
	<g>
		<path fill="#845194" d="M22.169,28.724c-0.134,0-0.27-0.004-0.408-0.012c-3.191-0.18-7.438-2.553-8.259-3.689l1.619-1.173
			c0.433,0.56,4.098,2.759,6.84,2.87c0.882,0.033,1.541-0.159,1.924-0.58c0.674-0.741-0.188-3.621-0.881-5.934
			c-0.53-1.77-1.078-3.6-1.288-5.269l1.984-0.249c0.188,1.503,0.713,3.252,1.22,4.944c1.008,3.368,1.879,6.276,0.445,7.854
			C24.617,28.308,23.543,28.724,22.169,28.724z"/>
		<g>
			<circle fill="#F7D684" cx="22.921" cy="14.483" r="4.474"/>
			<g>
				<path fill="#F7D684" d="M28.468,19.577c1.324,0.738,3.052,0.072,3.464-1.511c0.208-0.799-0.046-1.687-0.644-2.256
					c-0.635-0.605-1.447-0.783-2.18-0.617c-0.448,0.101-0.915,0.061-1.317-0.163l-2.93-1.633l-1.237,2.219l2.931,1.633
					c0.4,0.223,0.681,0.598,0.83,1.032C27.568,18.813,27.938,19.282,28.468,19.577z"/>
			</g>
			<path fill="#F7D684" d="M26.317,7.806c1.085-1.059,2.926-0.868,3.739,0.551c0.41,0.716,0.397,1.64-0.031,2.346
				c-0.454,0.75-1.192,1.134-1.942,1.166c-0.459,0.02-0.899,0.181-1.228,0.502l-2.401,2.344l-1.774-1.818l2.401-2.344
				c0.328-0.32,0.501-0.755,0.531-1.213C25.648,8.78,25.882,8.23,26.317,7.806z"/>
		</g>
		<polygon fill="#945BA0" points="13.5,31.241 16.5,30.991 17,23.333 13.5,25.218 		"/>
		<path fill="#A366AD" d="M12.5,12.742c1.375,0,2,0,2,0s2.792,5.375,2.792,9s-2.375,5.5-4.792,5.5V12.742z"/>
		<path fill="#FAE09F" d="M19.08,31.265c-0.134,0.912-1.305,0.734-2.915,0.734s-2.915,0.134-2.915-0.734
			c0-0.553,1.305-1.268,2.915-1.268S19.16,30.718,19.08,31.265z"/>
		<path fill="#A366AD" d="M13.458,14.333c5.625,0,10.417,4.948,10.417,6.667c0,1.333-1.875,1.667-4.958-1
			c-1.388-1.201-3.035-2.684-5.37-2.684L13.458,14.333z"/>
		<path fill="#B370B9" d="M11.417,14.333C5.792,14.333,1,19.281,1,21c0,1.333,1.875,1.667,4.958-1
			c1.388-1.201,3.035-2.684,5.37-2.684L11.417,14.333z"/>
		<polygon fill="#A366AD" points="11.5,31.241 8.5,30.991 8,23.333 11.5,25.218 		"/>
		<path fill="#B370B9" d="M12.5,3.742v11c-4.287,0-7-2.324-7-5.5C5.5,6.066,8.213,3.742,12.5,3.742z"/>
		<path fill="#B370B9" d="M12.5,12.742c-1.375,0-2,0-2,0s-2.792,5.375-2.792,9s2.375,5.5,4.792,5.5V12.742z"/>
		<g>
			<path fill="#FAE09F" d="M12.5,19.167c-1.375,0-3.458,0.667-4.792,2.575c0,3.625,2.375,5.5,4.792,5.5s4.792-1.875,4.792-5.5
				C15.958,19.833,13.875,19.167,12.5,19.167z"/>
			<path fill="#FDEBBB" d="M12.5,19.167c-1.375,0-3.458,0.667-4.792,2.575c0,3.625,2.375,5.5,4.792,5.5V19.167z"/>
		</g>
		<path fill="#B370B9" d="M6.861,6.786c1.248,2.73,0.702,5.54-0.91,6.277S2.02,12.185,0.772,9.455s-0.952-5.54,0.66-6.277
			S5.613,4.057,6.861,6.786z"/>
		
			<ellipse transform="matrix(0.9095 -0.4158 0.4158 0.9095 -3.5118 2.0672)" fill="#FDEBBB" cx="2.991" cy="9.098" rx="1.283" ry="2.936"/>
		<path fill="#B370B9" d="M12.5,0c-0.458,0-1.063,2.417-1.25,3.063c-0.119-0.255-0.433-0.901-0.635-1.321
			c-0.048-0.1-0.19-0.091-0.23,0.012c-0.304,0.797-0.45,2.277,0.052,3.059c0.563,0.875,2.063,0,2.063,0V0z"/>
		<path fill="#FDEBBB" d="M5.92,31.265c0.134,0.912,1.305,0.734,2.915,0.734s2.915,0.134,2.915-0.734
			c0-0.553-1.305-1.268-2.915-1.268S5.84,30.718,5.92,31.265z"/>
		<path fill="#A366AD" d="M19.5,9.242c0,3.176-2.713,5.5-7,5.5v-11C16.787,3.742,19.5,6.066,19.5,9.242z"/>
		<path fill="#A366AD" d="M18.139,6.786c-1.248,2.73-0.702,5.54,0.91,6.277c1.612,0.737,3.931-0.878,5.179-3.608
			c1.248-2.73,0.952-5.54-0.66-6.277C21.955,2.441,19.387,4.057,18.139,6.786z"/>
		
			<ellipse transform="matrix(0.4158 -0.9095 0.9095 0.4158 4.5839 25.332)" fill="#FAE09F" cx="22.009" cy="9.098" rx="2.936" ry="1.283"/>
		<path fill="#A366AD" d="M12.5,0c0.458,0,1.063,2.417,1.25,3.062c0.119-0.255,0.433-0.901,0.635-1.321
			c0.048-0.1,0.19-0.091,0.23,0.012c0.304,0.797,0.45,2.277-0.052,3.059c-0.563,0.875-2.063,0-2.063,0V0z"/>
		<g>
			<path fill="#FAE09F" d="M16.562,7.104c-1.365-0.211-2.604,1.153-4.062,1.153S9.802,6.893,8.437,7.104
				c-1.479,0.229-2.146,1.179-2.146,2.938c0,2.136,3.325,4.449,6.208,4.449s6.208-2.313,6.208-4.449
				C18.708,8.284,18.042,7.333,16.562,7.104z"/>
			<path fill="#FDEBBB" d="M8.437,7.104c1.365-0.211,2.604,1.153,4.063,1.153v6.235c-2.884,0-6.208-2.313-6.208-4.449
				C6.292,8.284,6.958,7.333,8.437,7.104z"/>
		</g>
		<g>
			<path fill="#F7F7F7" d="M14.548,12.341c-0.506,0-0.839,0.51-2.048,0.51s-1.542-0.51-2.048-0.51c-0.457,0-0.573,0.496-0.244,0.826
				c0.458,0.458,1.417,0.825,2.292,0.825s1.833-0.367,2.292-0.825C15.121,12.837,15.005,12.341,14.548,12.341z"/>
			<path fill="#FFFFFF" d="M10.452,12.341c0.506,0,0.839,0.511,2.048,0.511v1.141c-0.874,0-1.833-0.367-2.292-0.825
				C9.879,12.837,9.995,12.341,10.452,12.341z"/>
		</g>
		<g>
			<circle fill="#FFFFFF" cx="9" cy="10" r="2"/>
			<circle fill="#373F3F" cx="9" cy="10" r="1.5"/>
			<circle fill="#FFFFFF" cx="9" cy="9.5" r="0.5"/>
		</g>
		<g>
			<circle fill="#F7F7F7" cx="16" cy="10" r="2"/>
			<circle fill="#2B3332" cx="16" cy="10" r="1.5"/>
			<circle fill="#F7F7F7" cx="16" cy="9.5" r="0.5"/>
		</g>
	</g>
</g>
</svg>
