<?xml version="1.0" encoding="utf-8"?>
<!-- Generator: Adobe Illustrator 23.0.6, SVG Export Plug-In . SVG Version: 6.00 Build 0)  -->
<svg version="1.1" xmlns="http://www.w3.org/2000/svg" xmlns:xlink="http://www.w3.org/1999/xlink" x="0px" y="0px" width="32px"
	 height="32px" viewBox="0 0 32 32" enable-background="new 0 0 32 32" xml:space="preserve">
<g id="labels">
	<g>
	</g>
</g>
<g id="icons">
	<g>
		<path fill="#84ED82" d="M4.333,2.647C4.242,2.743,4.196,2.871,4.196,3h11.812C16.008,3,10.223-3.508,4.333,2.647z"/>
		<path fill="#78DF7C" d="M16.008,3h-0.009H4.196c0,0.129,0.046,0.257,0.138,0.353c4.407,4.606,8.755,2.121,10.665,0.578V12h1V3.01
			C16.002,3.007,16.008,3,16.008,3z"/>
		<path fill="#78DF7C" d="M27.646,2.634C26.263,1.323,21.136-2.769,16.008,3h11.796C27.804,2.867,27.751,2.734,27.646,2.634z"/>
		<path fill="#6CD275" d="M16.008,3h-0.009v9h1V3.994c4.783,4.257,9.354,0.598,10.648-0.629c0.106-0.1,0.158-0.233,0.158-0.366
			H16.008z"/>
		<path fill="#F7C845" d="M25.998,13l-0.428-4.278c-0.035-0.348-0.408-0.554-0.721-0.397L21.498,10l-1.671-2.925
			c-0.165-0.288-0.56-0.339-0.792-0.101l-3.037,3.109L25.998,13z"/>
		<path fill="#FFD04D" d="M5.998,13l0.428-4.278c0.035-0.348,0.408-0.554,0.721-0.397L10.498,10l1.671-2.925
			c0.165-0.288,0.56-0.339,0.792-0.101l3.037,3.109L5.998,13z"/>
		<path fill="#FFE28A" d="M15.998,6.333c-0.15,0-0.3,0.067-0.4,0.2L12.998,10L9.601,7.452C9.315,7.237,8.902,7.384,8.816,7.731
			L7.998,11l-2.963-0.741c-0.412-0.103-0.756,0.321-0.571,0.703l1.672,3.451c0.262,0.54,0.279,1.175,0.011,1.712
			c-0.945,1.897-1.366,4.099-1.04,6.43c0.688,4.929,4.76,8.867,9.71,9.382c0.398,0.042,0.792,0.059,1.181,0.059V6.333z"/>
		<path fill="#FFD96C" d="M26.998,21c0-1.756-0.419-3.41-1.153-4.881c-0.267-0.535-0.246-1.168,0.015-1.706l1.671-3.45
			c0.185-0.382-0.16-0.806-0.571-0.703L23.998,11l-0.817-3.269c-0.087-0.347-0.499-0.493-0.785-0.279L18.998,10l-2.6-3.467
			c-0.1-0.133-0.25-0.2-0.4-0.2v25.664C22.073,31.997,26.998,27.075,26.998,21z"/>
		<path fill="#845331" d="M12.998,31.586V16.934c0-0.399-0.445-0.638-0.777-0.416L11.498,17l-1.146-1.146
			c-0.195-0.195-0.512-0.195-0.707,0L8.498,17l-0.723-0.482c-0.332-0.222-0.777,0.017-0.777,0.416v10.36
			C8.44,29.341,10.554,30.889,12.998,31.586z"/>
		<path fill="#724D31" d="M18.998,31.573c2.46-0.696,4.566-2.222,6-4.261V16.934c0-0.399-0.445-0.638-0.777-0.416L23.498,17
			l-1.146-1.146c-0.195-0.195-0.512-0.195-0.707,0L20.498,17l-0.723-0.482c-0.332-0.222-0.777,0.017-0.777,0.416V31.573z"/>
		<path fill="#845331" d="M13.368,31.675c0.474,0.117,0.955,0.212,1.449,0.263c0.398,0.042,0.792,0.059,1.181,0.059V26h-2
			L13.368,31.675z"/>
		<path fill="#724D31" d="M17.998,26h-2v5.998c0.908,0,1.786-0.122,2.63-0.33L17.998,26z"/>
		<circle fill="#373F3F" cx="9.998" cy="20" r="3"/>
		<circle fill="#FFFFFF" cx="9.998" cy="20" r="1"/>
		<circle fill="#FFFFFF" cx="8.498" cy="18.5" r="0.5"/>
		<circle fill="#2B3332" cx="21.998" cy="20" r="3"/>
		<circle fill="#F7F7F7" cx="21.998" cy="20" r="1"/>
		<circle fill="#F7F7F7" cx="20.498" cy="18.5" r="0.5"/>
		<path fill="#F9ADC8" d="M15.998,23c-2,0-3,1-3,1s0,3,3,3V23z"/>
		<path fill="#F8A1C4" d="M18.998,24c0,0-1-1-3-1v4C18.998,27,18.998,24,18.998,24z"/>
	</g>
</g>
</svg>
