<?xml version="1.0" encoding="utf-8"?>
<!-- Generator: Adobe Illustrator 23.0.6, SVG Export Plug-In . SVG Version: 6.00 Build 0)  -->
<svg version="1.1" xmlns="http://www.w3.org/2000/svg" xmlns:xlink="http://www.w3.org/1999/xlink" x="0px" y="0px" width="32px"
	 height="32px" viewBox="0 0 32 32" enable-background="new 0 0 32 32" xml:space="preserve">
<g id="labels">
	<g>
	</g>
</g>
<g id="icons">
	<g>
		<path fill="#FBCFD6" d="M8.429,30.443c0,1.896,3,1.528,4.062,1.528c1.205,0,2.079-0.67,2.079-1.764
			c0-1.172-0.567-1.813-1.875-2.031C11.571,27.989,8.429,28.756,8.429,30.443z"/>
		<path fill="#FAC4D1" d="M23.571,30.443c0,1.896-3,1.528-4.062,1.528c-1.205,0-2.079-0.67-2.079-1.764
			c0-1.172,0.567-1.813,1.875-2.031C20.429,27.989,23.571,28.756,23.571,30.443z"/>
		<path fill="#DD7C8A" d="M7.799,7.5c-0.498,0-1.223,0.013-2.041,0.04C5.344,7.149,1.836,3.789,1.437,4.188
			C1.096,4.529,2.408,6.194,3.767,7.63C3.271,7.659,0,7.875,0,8.53c0,0.72,3.246,0.884,3.732,0.903
			c-1.363,1.442-2.634,3.102-2.295,3.441C1.837,13.274,5.36,9.863,5.76,9.486C6.526,9.497,7.235,9.5,7.799,9.5
			C8.19,9.187,8.158,7.849,7.799,7.5z"/>
		<path fill="#DB7383" d="M24.201,7.5c0.498,0,1.223,0.013,2.041,0.04c0.414-0.391,3.922-3.751,4.321-3.352
			c0.342,0.342-0.971,2.007-2.33,3.443C28.729,7.659,32,7.875,32,8.53c0,0.72-3.246,0.884-3.732,0.903
			c1.363,1.442,2.634,3.102,2.295,3.441c-0.399,0.399-3.922-3.012-4.322-3.389C25.474,9.497,24.765,9.5,24.201,9.5
			C23.81,9.187,23.842,7.849,24.201,7.5z"/>
		<path fill="#FAC4D1" d="M26.25,16.688c-3.537,2.432-3.563,6.187-6,6.187c0,0.875,0,2.625,0,3.375c2.312,0,3.455-3,7.062-3
			c3.063,0,4.688-1.75,4.688-4.312C32,16.25,28.25,15.313,26.25,16.688z"/>
		<path fill="#FBCFD6" d="M25,7.5c0,3.14-2.315,5.828-5.6,6.945c-0.421,0.143-0.672,0.561-0.672,1.006
			c0,2.924,3.773,4.299,3.773,8.667c0,3.694-3,5.381-6.5,5.381V0C20.971,0,25,3.358,25,7.5z"/>
		<path fill="#E08C96" d="M18.458,18.749c0-0.348-0.379-0.598-0.794-0.332c-0.359,0.23-0.873,0.461-1.664,0.461v1.261
			c0.67,0,1.664-0.224,2.158-0.717C18.343,19.236,18.458,19.013,18.458,18.749z"/>
		<path fill="#DE8490" d="M19.854,21.376c0-0.545-0.595-0.938-1.245-0.521c-0.562,0.361-1.368,0.723-2.61,0.723v1.977
			c1.05,0,2.609-0.352,3.383-1.124C19.674,22.14,19.854,21.79,19.854,21.376z"/>
		<path fill="#DD7C8A" d="M21.192,25.002c0-0.734-0.801-1.264-1.676-0.701c-0.757,0.487-1.843,0.973-3.515,0.973v2.663
			c1.415,0,3.514-0.474,4.557-1.514C20.949,26.031,21.192,25.559,21.192,25.002z"/>
		<path fill="#FCD8DE" d="M16,0v29.5c-3.5,0-6.5-1.687-6.5-5.381c0-4.369,3.773-5.744,3.773-8.667c0-0.445-0.251-0.863-0.672-1.006
			C9.315,13.328,7,10.64,7,7.5C7,3.358,11.029,0,16,0z"/>
		<path fill="#FDE2E6" d="M16,0c0,0,0,10.219,0,14.934c-1.906,0.004-2.978-0.345-3.4-0.488C9.315,13.328,7,10.64,7,7.5
			C7,3.358,11.029,0,16,0z"/>
		<path fill="#FCD8DE" d="M25,7.5c0,3.14-2.315,5.828-5.6,6.945c-0.421,0.143-1.493,0.492-3.4,0.488C16,10.219,16,0,16,0
			C20.971,0,25,3.358,25,7.5z"/>
		<circle fill="#373F3F" cx="13" cy="8" r="1"/>
		<circle fill="#FFFFFF" cx="13" cy="8" r="0.5"/>
		<circle fill="#2B3332" cx="19" cy="8" r="1"/>
		<circle fill="#F7F7F7" cx="19" cy="8" r="0.5"/>
		<g>
			<path fill="#FDECEF" d="M16,4.938V0c-2.383,0-4.544,0.778-6.154,2.038C11.051,3.749,13.588,4.938,16,4.938z"/>
			<path fill="#FDE2E6" d="M16,4.938V0c2.383,0,4.544,0.778,6.154,2.038C20.949,3.749,18.412,4.938,16,4.938z"/>
		</g>
		<g>
			<path fill="#C84054" d="M16,10v3c-0.552,0-1-0.395-1-1.5C15,10.395,15.448,10,16,10z"/>
			<path fill="#B93D4F" d="M17,11.5c0,1.105-0.448,1.5-1,1.5v-3C16.552,10,17,10.395,17,11.5z"/>
		</g>
		<path fill="#E2959E" d="M13.542,18.749c0-0.348,0.379-0.598,0.794-0.332c0.359,0.23,0.873,0.461,1.664,0.461v1.261
			c-0.67,0-1.664-0.224-2.158-0.717C13.657,19.236,13.542,19.013,13.542,18.749z"/>
		<path fill="#E08C96" d="M12.146,21.376c0-0.545,0.595-0.938,1.245-0.521c0.562,0.361,1.368,0.723,2.61,0.723v1.977
			c-1.05,0-2.609-0.352-3.383-1.124C12.326,22.14,12.146,21.79,12.146,21.376z"/>
		<path fill="#DE8490" d="M10.808,25.002c0-0.734,0.801-1.264,1.676-0.701c0.757,0.487,1.843,0.973,3.515,0.973v2.663
			c-1.415,0-3.514-0.474-4.557-1.514C11.051,26.031,10.808,25.559,10.808,25.002z"/>
	</g>
</g>
</svg>
