<?xml version="1.0" encoding="utf-8"?>
<!-- Generator: Adobe Illustrator 23.0.6, SVG Export Plug-In . SVG Version: 6.00 Build 0)  -->
<svg version="1.1" xmlns="http://www.w3.org/2000/svg" xmlns:xlink="http://www.w3.org/1999/xlink" x="0px" y="0px" width="32px"
	 height="32px" viewBox="0 0 32 32" enable-background="new 0 0 32 32" xml:space="preserve">
<g id="labels">
	<g>
	</g>
</g>
<g id="icons">
	<g>
		<path fill="#D799D6" d="M16,24.992c4.042,0,7.917-0.492,9.1-5.992c0.916-4.259,2.484-6.995,3.55-9.042
			c0.933-1.792,2.225-0.542,1.808,0.125c-0.353,0.565-1.333,1.75-1.667,2.625c0.875-1,1.771-1.838,2.083-2.042
			c1.083-0.708,1.552,1.085,0.583,1.625c-2.167,1.208-3.956,3.835-4.458,6.75c-1.083,6.292-5.125,8.458-11,8.458V24.992z"/>
		<path fill="#EBCEEB" d="M11.325,8.131C9.803,7.868,5.221,8.126,4.013,9.071c1.102,0.735,3.201,1.026,3.569,0.973
			c-0.472,0.262-1.517,1.045-1.622,1.622c4.158-0.534,5.838-2.591,5.838-2.591L11.325,8.131z"/>
		<path fill="#E5BDE5" d="M20.659,8.131c1.522-0.262,6.105-0.004,7.312,0.941c-1.102,0.735-3.201,1.026-3.569,0.973
			c0.472,0.262,1.517,1.045,1.622,1.622c-4.158-0.534-5.838-2.591-5.838-2.591L20.659,8.131z"/>
		<path fill="#E5BDE5" d="M30.679,0.056c0.075-0.098,0.239-0.06,0.268,0.06c0.355,1.503-1.094,3.26-3.427,5.26
			c-1.346,1.154-4.701,3.129-6.784,3.421c-2.083,0.292-5.105-2.595-4.083-3.458C19.27,3.125,24.53,2.135,28.27,1.333
			C29.819,1.001,30.215,0.661,30.679,0.056z"/>
		<path fill="#2B376B" d="M27.52,5.375c-1.346,1.154-4.701,3.129-6.784,3.421c-2.083,0.292-3.029-1.766-2.008-2.629
			c2.541-2.148,6.981-2.914,10.403-3.833c0.123-0.033,0.22,0.098,0.166,0.213C28.756,3.683,28.404,4.298,27.52,5.375z"/>
		<path fill="#E0ABDF" d="M19.5,16.143c0,4.107,3.611,6.948,1.935,10.778c-0.192,0.439-0.355,0.815-0.503,1.147
			c0.622,0.183,1.079,0.751,1.079,1.433c0,0.828-0.672,1.5-1.5,1.5c-0.608,0-1.13-0.364-1.365-0.884
			c-0.626,0.082-1.557-0.055-3.147-0.152V16.143H19.5z"/>
		<path fill="#E5BDE5" d="M17.012,30.232C17.012,30.232,16.25,19,16,19v-5l2-0.75c0,0,2.592,3.085,2.385,5.5
			c-0.341,3.984-0.817,9.549-0.941,11.064c0.514,0.206,0.861,0.578,0.861,1.007c0,0.651-0.792,1.179-1.769,1.179
			c-0.977,0-1.769-0.528-1.769-1.179C16.767,30.605,16.86,30.406,17.012,30.232z"/>
		<path fill="#E0ABDF" d="M16,17.25V14l2-0.75c0,0,1.036,1.233,1.746,2.75C18,17.25,16,17.25,16,17.25z"/>
		<path fill="#E5BDE5" d="M21.815,7.911c0.393,2.125,0.549,4.029-0.928,5.505c-0.938,0.938-3.658,1.735-4.565,2.015
			c-0.106,0.033-0.214,0.046-0.322,0.045c0,0,0-9.362,0-12C18.385,3.477,21.287,5.059,21.815,7.911z"/>
		<path fill="#EBCEEB" d="M1.382,0.056c-0.075-0.098-0.239-0.06-0.268,0.06c-0.355,1.503,1.094,3.26,3.427,5.26
			c1.346,1.154,4.701,3.129,6.784,3.421c2.083,0.292,5.105-2.595,4.083-3.458C12.792,3.125,7.531,2.135,3.792,1.333
			C2.242,1.001,1.846,0.661,1.382,0.056z"/>
		<path fill="#3A4274" d="M4.542,5.375c1.346,1.154,4.701,3.129,6.784,3.421c2.083,0.292,3.029-1.766,2.008-2.629
			C10.793,4.018,6.352,3.253,2.931,2.333C2.807,2.3,2.71,2.431,2.765,2.547C3.305,3.683,3.657,4.298,4.542,5.375z"/>
		<path fill="#E5BDE5" d="M12.5,16.143c0,4.107-3.611,6.948-1.935,10.778c0.192,0.439,0.355,0.815,0.503,1.147
			c-0.622,0.183-1.079,0.751-1.079,1.433c0,0.828,0.672,1.5,1.5,1.5c0.608,0,1.13-0.364,1.365-0.884
			c0.626,0.082,1.557-0.055,3.147-0.152V16.143H12.5z"/>
		<path fill="#EBCEEB" d="M14.988,30.232C14.988,30.232,15.75,19,16,19v-5l-2-0.75c0,0-2.592,3.085-2.385,5.5
			c0.341,3.984,0.817,9.549,0.941,11.064c-0.514,0.206-0.861,0.578-0.861,1.007c0,0.651,0.792,1.179,1.769,1.179
			c0.977,0,1.769-0.528,1.769-1.179C15.233,30.605,15.14,30.406,14.988,30.232z"/>
		<path fill="#E5BDE5" d="M16,17.25V14l-2-0.75c0,0-1.036,1.233-1.746,2.75C14,17.25,16,17.25,16,17.25z"/>
		<path fill="#EBCEEB" d="M10.196,7.911c-0.393,2.125-0.549,4.029,0.928,5.505c0.938,0.938,3.658,1.735,4.565,2.015
			c0.106,0.033,0.214,0.046,0.322,0.045c0,0,0-9.362,0-12C13.625,3.477,10.723,5.059,10.196,7.911z"/>
		<path fill="#C84054" d="M15.167,6.995c0,0.46,0.373,0.833,0.833,0.833V6.162C15.54,6.162,15.167,6.535,15.167,6.995z"/>
		<path fill="#B93D4F" d="M16.833,6.995c0,0.46-0.373,0.833-0.833,0.833V6.162C16.46,6.162,16.833,6.535,16.833,6.995z"/>
		<path fill="#373F3F" d="M15.138,12.833c-0.122,0-0.184,0.13-0.097,0.206l0.862,0.758c0.027,0.024,0.062,0.035,0.097,0.035v-1
			H15.138z"/>
		<path fill="#2B3332" d="M16.96,13.039c0.086-0.076,0.025-0.206-0.097-0.206h-0.862v1c0.035,0,0.07-0.012,0.097-0.035L16.96,13.039
			z"/>
		<path fill="#9179C6" d="M11.478,8.75c-0.25,1.25,0.25,2.75,1.25,2.75c0.5,0,1.5-0.331,1.5-0.75C14.228,9,11.577,8.26,11.478,8.75z
			"/>
		<path fill="#FFFFFF" d="M14.149,10.26c-0.219-0.709-0.88-1.203-1.493-1.457c-0.211,0.18-0.343,0.429-0.343,0.708
			c0,0.547,0.504,0.99,1.125,0.99C13.711,10.5,13.953,10.403,14.149,10.26z"/>
		<path fill="#866EBA" d="M20.522,8.75c0.25,1.25-0.25,2.75-1.25,2.75c-0.5,0-1.5-0.331-1.5-0.75C17.772,9,20.423,8.26,20.522,8.75z
			"/>
		<path fill="#F7F7F7" d="M17.851,10.26c0.219-0.709,0.88-1.203,1.493-1.457c0.211,0.18,0.343,0.429,0.343,0.708
			c0,0.547-0.504,0.99-1.125,0.99C18.289,10.5,18.047,10.403,17.851,10.26z"/>
	</g>
</g>
</svg>
