<?xml version="1.0" encoding="utf-8"?>
<!-- Generator: Adobe Illustrator 23.0.6, SVG Export Plug-In . SVG Version: 6.00 Build 0)  -->
<svg version="1.1" xmlns="http://www.w3.org/2000/svg" xmlns:xlink="http://www.w3.org/1999/xlink" x="0px" y="0px" width="32px"
	 height="32px" viewBox="0 0 32 32" enable-background="new 0 0 32 32" xml:space="preserve">
<g id="labels">
	<g>
	</g>
</g>
<g id="icons">
	<path fill="#EA8BB4" d="M28.715,22.251C27.937,30.125,20.937,30.75,16,30.75v-5.333c5.312,0.208,9.164,0.264,12.272-3.338
		C28.429,21.897,28.739,22.013,28.715,22.251z"/>
	<path fill="#F9ADC8" d="M12.896,22.207l-3.575,0.511c-1.881,0.269-3.314,1.84-3.314,3.744C6.006,27.375,6.284,28.284,7,29l1,1.04
		l-1.417,0.708C6.252,30.914,6,31.094,6,31.624c0,0.251,0.152,0.374,0.287,0.374L12.651,32C12.786,32,13,31.875,13,31.425
		c0-0.362-0.207-0.509-0.391-0.692l-0.692-0.692L12.896,29V22.207z"/>
	<path fill="#F9ADC8" d="M14,20.5c0,0-7.438,2.906-10.064,0.501C4.88,19.908,10.791,16.542,14,16.5V20.5z"/>
	<path fill="#FAB8CD" d="M16,14.958V30.75c-3.495,0-6-2.496-6-6.938C10,19.625,12.505,14.958,16,14.958z"/>
	<path fill="#FEF1C6" d="M16,26.167v4.583c-3.495,0-6-2.496-6-6.938C11.667,25.375,13.812,26.167,16,26.167z"/>
	<path fill="#E3E5E5" d="M6.036,21.879c-0.83-0.119-1.564-0.388-2.099-0.878c0.254-0.294,0.867-0.752,1.69-1.266
		C5.708,20.542,5.833,21.083,6.036,21.879z"/>
	<path fill="#F8A1C4" d="M18.061,20.5c0,0,7.438,2.906,10.064,0.501c-0.943-1.093-6.855-4.459-10.064-4.501V20.5z"/>
	<path fill="#E3E5E5" d="M26.026,21.879c0.83-0.119,1.564-0.388,2.099-0.878c-0.254-0.294-0.867-0.752-1.69-1.266
		C26.353,20.542,26.228,21.083,26.026,21.879z"/>
	<path fill="#FFEAA7" d="M16,28.417v2.333c-2.751,0-4.889-1.547-5.674-4.371C11.5,27.292,13.75,28.417,16,28.417z"/>
	<path fill="#F8A1C4" d="M19.104,22.207l3.575,0.511c1.881,0.269,3.314,1.84,3.314,3.744c0,0.913-0.278,1.822-0.994,2.538l-1,1.04
		l1.417,0.708C25.748,30.914,26,31.094,26,31.624c0,0.251-0.152,0.374-0.287,0.374L19.349,32C19.214,32,19,31.875,19,31.425
		c0-0.362,0.207-0.509,0.391-0.692l0.692-0.692L19.104,29V22.207z"/>
	<path fill="#F9ADC8" d="M22,23.812c0,4.441-2.505,6.938-6,6.938V14.958C19.495,14.958,22,19.625,22,23.812z"/>
	<path fill="#FFEAA7" d="M22,23.812c0,4.441-2.505,6.938-6,6.938v-4.583C18.188,26.167,20.333,25.375,22,23.812z"/>
	<path fill="#FFE28A" d="M21.674,26.379C20.889,29.203,18.751,30.75,16,30.75v-2.333C18.25,28.417,20.5,27.292,21.674,26.379z"/>
	<path fill="#B93D4F" d="M21.436,16.864c-0.329-0.388-1.189-1.133-2.592-1.133c-0.75,0.771-2.014,1.242-2.844,1.242
		s-2.093-0.471-2.844-1.242c-1.403,0-2.263,0.745-2.592,1.133c-0.306,0.362-1.631-0.181-1.631,1.087
		c1.676-0.249,1.835,0.702,2.741,1.087c0.851,0.361,1.647-0.604,2.174-0.544c0.997,0.113,0.883,1.631,2.152,1.631
		s1.155-1.517,2.152-1.631c0.527-0.06,1.324,0.905,2.174,0.544c0.906-0.385,1.065-1.336,2.741-1.087
		C23.066,16.682,21.742,17.226,21.436,16.864z"/>
	<path fill="#E3E5E5" d="M16.977,16.81c0.374-0.112,0.763-0.28,1.119-0.496c1.234,0.108,2.932,0.787,3.611,1.767
		c-0.539,0.251-0.813,0.715-1.381,0.957c-0.851,0.361-1.647-0.604-2.174-0.544C18.208,18.087,17.902,17.475,16.977,16.81z"/>
	<path fill="#C84054" d="M16,16.972c-0.829,0-2.093-0.471-2.844-1.242c-1.403,0-2.263,0.745-2.592,1.133
		c-0.306,0.362-1.631-0.181-1.631,1.087c1.676-0.249,1.835,0.702,2.741,1.087c0.851,0.361,1.647-0.604,2.174-0.544
		c0.997,0.113,0.883,1.631,2.152,1.631V16.972z"/>
	<path fill="#EDEEEE" d="M15.023,16.81c-0.374-0.112-0.763-0.28-1.119-0.496c-1.234,0.108-2.932,0.787-3.611,1.767
		c0.539,0.251,0.813,0.715,1.381,0.957c0.851,0.361,1.647-0.604,2.174-0.544C13.792,18.087,14.098,17.475,15.023,16.81z"/>
	<path fill="#EDEEEE" d="M13.394,9.595c-0.02,0.611-0.072,2.013-0.083,2.775c-0.002,0.132-0.121,0.237-0.26,0.235
		c-4.798-0.066-6.691-4.056-6.943-6.954c-0.021-0.238,0.297-0.348,0.453-0.16c1.89,2.276,4.019,3.825,6.589,3.87
		C13.287,9.363,13.398,9.464,13.394,9.595z"/>
	<path fill="#DADDDC" d="M16,0c-0.062,0-0.136,0.077-0.218,0.206c-0.308,0.487-0.725,1.719-1,2.407
		c-0.087,0.219-0.43,0.21-0.564,0.022c-0.277-0.391-0.7-0.992-1.049-1.516c-0.092-0.138-0.289-0.06-0.282,0.112
		c0.029,0.708,0.064,1.513,0.082,1.929c0.006,0.127-0.16,0.259-0.263,0.203c-0.376-0.207-1.165-0.639-1.981-1.069
		c-0.132-0.07-0.27,0.083-0.21,0.231c0.767,1.894,1.249,3.821,0.809,5.04c0.772,0.975,4.676,0,4.676,0V0z"/>
	<path fill="#E3E5E5" d="M16,4.898v6.592c-2.239,0-5.121-0.464-5.121-2.382C10.879,6.714,13.114,4.898,16,4.898z"/>
	<path fill="#EDEEEE" d="M16,7.064v5.749c-2.443,0-5.586-0.506-5.586-2.598C10.414,8.114,13.557,7.064,16,7.064z"/>
	<path fill="#E3E5E5" d="M16,4.115v1.604c-0.633,0-1.146-0.359-1.146-0.802C14.854,4.474,15.367,4.115,16,4.115z"/>
	<path fill="#E3E5E5" d="M18.851,9.361c2.569-0.046,4.699-1.594,6.589-3.87c0.156-0.188,0.474-0.078,0.453,0.16
		c-0.252,2.898-2.145,6.888-6.943,6.954c-0.139,0.002-0.258-0.103-0.26-0.235c-0.011-0.763-0.064-2.165-0.083-2.775
		C18.602,9.464,18.713,9.363,18.851,9.361z"/>
	<path fill="#D1D4D4" d="M16,0c0.062,0,0.136,0.077,0.218,0.206c0.308,0.487,0.725,1.719,1,2.407c0.087,0.219,0.43,0.21,0.564,0.022
		c0.277-0.391,0.7-0.992,1.049-1.516c0.092-0.138,0.289-0.06,0.282,0.112c-0.029,0.708-0.064,1.513-0.082,1.929
		c-0.006,0.127,0.16,0.259,0.263,0.203c0.376-0.207,1.165-0.639,1.981-1.069c0.132-0.07,0.27,0.083,0.21,0.231
		c-0.767,1.894-1.249,3.821-0.809,5.04c-0.772,0.975-4.676,0-4.676,0V0z"/>
	<path fill="#DADDDC" d="M21.121,9.108c0,1.917-2.882,2.382-5.121,2.382V4.898C18.886,4.898,21.121,6.714,21.121,9.108z"/>
	<path fill="#E3E5E5" d="M21.586,10.214c0,2.092-3.144,2.598-5.586,2.598V7.064C18.443,7.064,21.586,8.114,21.586,10.214z"/>
	<path fill="#F9ADC8" d="M19.969,11.025C19.624,10.069,18.664,9,16,9s-3.624,1.069-3.969,2.025c-0.325,0.523-0.52,1.138-0.52,1.859
		c0,2.314,1.829,4.116,4.49,4.116s4.49-1.802,4.49-4.116C20.49,12.163,20.294,11.548,19.969,11.025z"/>
	<ellipse fill="#F7F7F7" cx="17.54" cy="11.79" rx="0.954" ry="1.563"/>
	<path fill="#DADDDC" d="M17.146,4.917c0,0.443-0.513,0.802-1.146,0.802V4.115C16.633,4.115,17.146,4.474,17.146,4.917z"/>
	<path fill="#C84054" d="M16,4.333V5.5c-0.46,0-0.833-0.261-0.833-0.583C15.167,4.594,15.54,4.333,16,4.333z"/>
	<path fill="#B93D4F" d="M16.833,4.917C16.833,5.239,16.46,5.5,16,5.5V4.333C16.46,4.333,16.833,4.594,16.833,4.917z"/>
	<path fill="#FAB8CD" d="M12.031,11.025c-0.325,0.523-0.52,1.138-0.52,1.859c0,2.314,1.829,4.116,4.49,4.116v-0.744V9.215V9
		C13.336,9,12.376,10.069,12.031,11.025z"/>
	<ellipse fill="#FFFFFF" cx="14.46" cy="11.79" rx="0.954" ry="1.563"/>
	<circle fill="#373F3F" cx="14.5" cy="11.5" r="0.25"/>
	<circle fill="#2B3332" cx="17.5" cy="11.5" r="0.25"/>
	<path fill="#FEF1C6" d="M18.865,12.755l-0.028-0.008C17.91,12.482,16.955,12.35,16,12.35s-1.91,0.132-2.837,0.397l-0.028,0.008
		c-0.342,0.098-0.578,0.41-0.578,0.766c0,0.242,0.11,0.471,0.299,0.622l1.392,1.114c0.497,0.398,1.115,0.614,1.751,0.614h0h0
		c0.637,0,1.254-0.217,1.751-0.614l1.392-1.114c0.189-0.151,0.299-0.38,0.299-0.622C19.443,13.165,19.207,12.853,18.865,12.755z"/>
	<path fill="#FFEAA7" d="M16,14.395c-1.267,0-2.438-0.235-3.4-0.632c0.047,0.147,0.133,0.28,0.256,0.379l1.392,1.114
		c0.497,0.398,1.115,0.614,1.751,0.614h0V14.395z"/>
	<path fill="#FFFFFF" d="M13.977,14.173l0.149,0.595c0.018,0.07,0.08,0.119,0.153,0.119h0c0.072,0,0.135-0.049,0.153-0.119
		l0.122-0.489C14.358,14.249,14.165,14.214,13.977,14.173z"/>
	<path fill="#FFEAA7" d="M16,12.35c0.955,0,1.91,0.132,2.837,0.397l0.028,0.008c0.342,0.098,0.578,0.41,0.578,0.766
		c0,0.242-0.11,0.471-0.299,0.622l-1.392,1.114c-0.497,0.398-1.115,0.614-1.751,0.614h0V12.35z"/>
	<path fill="#FFE28A" d="M16,14.395c1.267,0,2.438-0.235,3.4-0.632c-0.047,0.147-0.133,0.28-0.256,0.379l-1.392,1.114
		c-0.497,0.398-1.115,0.614-1.751,0.614h0V14.395z"/>
	<path fill="#F7F7F7" d="M18.023,14.173l-0.149,0.595c-0.018,0.07-0.08,0.119-0.153,0.119h0c-0.072,0-0.135-0.049-0.153-0.119
		l-0.122-0.489C17.642,14.249,17.835,14.214,18.023,14.173z"/>
</g>
</svg>
