<?xml version="1.0" encoding="utf-8"?>
<!-- Generator: Adobe Illustrator 23.0.6, SVG Export Plug-In . SVG Version: 6.00 Build 0)  -->
<svg version="1.1" xmlns="http://www.w3.org/2000/svg" xmlns:xlink="http://www.w3.org/1999/xlink" x="0px" y="0px" width="32px"
	 height="32px" viewBox="0 0 32 32" enable-background="new 0 0 32 32" xml:space="preserve">
<g id="labels">
	<g>
	</g>
</g>
<g id="icons">
	<g>
		<path fill="#FFFFFF" d="M10.5,3C6.358,3,3,6.358,3,10.5S6.358,18,10.5,18V3z"/>
		<path fill="#F7F7F7" d="M18,10.5C18,6.358,14.642,3,10.5,3v15C14.642,18,18,14.642,18,10.5z"/>
		<path fill="#373F3F" d="M10.5,8C9.119,8,8,9.119,8,10.5c0,1.381,1.119,2.5,2.5,2.5V8z"/>
		<path fill="#2B3332" d="M13,10.5C13,9.119,11.881,8,10.5,8v5C11.881,13,13,11.881,13,10.5z"/>
		<circle fill="#FFFFFF" cx="10" cy="10" r="1"/>
		<path fill="#3980A8" d="M10.5,17C6.916,17,4,14.084,4,10.5S6.916,4,10.5,4V1C5.262,1,1,5.262,1,10.5S5.262,20,10.5,20V17z"/>
		<path fill="#377AA0" d="M27.621,25.5l2.939-2.939c0.586-0.585,0.586-1.536,0-2.121c-0.586-0.586-1.535-0.586-2.121,0L25.5,23.379
			l-7.316-7.316C19.321,14.497,20,12.579,20,10.5C20,5.262,15.738,1,10.5,1v3c3.584,0,6.5,2.916,6.5,6.5
			c0,1.732-0.685,3.304-1.793,4.47c-0.045,0.036-0.1,0.053-0.142,0.095c-0.042,0.042-0.059,0.097-0.095,0.142
			C13.804,16.315,12.232,17,10.5,17v3c2.079,0,3.997-0.679,5.563-1.816l12.376,12.376C28.732,30.854,29.116,31,29.5,31
			s0.768-0.146,1.061-0.439c0.586-0.585,0.586-1.536,0-2.121L27.621,25.5z"/>
	</g>
</g>
</svg>
