<?xml version="1.0" encoding="utf-8"?>
<!-- Generator: Adobe Illustrator 23.0.6, SVG Export Plug-In . SVG Version: 6.00 Build 0)  -->
<svg version="1.1" xmlns="http://www.w3.org/2000/svg" xmlns:xlink="http://www.w3.org/1999/xlink" x="0px" y="0px" width="32px"
	 height="32px" viewBox="0 0 32 32" enable-background="new 0 0 32 32" xml:space="preserve">
<g id="labels">
	<g>
	</g>
</g>
<g id="icons">
	<g>
		<path fill="#FFFFFF" d="M16,13c-4.142,0-7.5,3.358-7.5,7.5S11.858,28,16,28V13z"/>
		<path fill="#F7F7F7" d="M23.5,20.5c0-4.142-3.358-7.5-7.5-7.5v15C20.142,28,23.5,24.642,23.5,20.5z"/>
		<path fill="#373F3F" d="M16,18c-1.381,0-2.5,1.119-2.5,2.5c0,1.381,1.119,2.5,2.5,2.5V18z"/>
		<path fill="#2B3332" d="M18.5,20.5c0-1.381-1.119-2.5-2.5-2.5v5C17.381,23,18.5,21.881,18.5,20.5z"/>
		<circle fill="#FFFFFF" cx="15.5" cy="20" r="1"/>
		<path fill="#3980A8" d="M14.5,3.5V11c0,0.044,0.009,0.085,0.013,0.128c-3.081,0.488-5.669,2.455-7.013,5.156
			C4.756,13.9,3,10.411,3,6.5C3,5.671,2.329,5,1.5,5S0,5.671,0,6.5c0,5.294,2.595,9.981,6.57,12.893
			C6.528,19.757,6.5,20.125,6.5,20.5c0,5.238,4.262,9.5,9.5,9.5v-3c-3.584,0-6.5-2.916-6.5-6.5S12.416,14,16,14V2
			C15.171,2,14.5,2.671,14.5,3.5z"/>
		<path fill="#377AA0" d="M32,6.5C32,5.671,31.329,5,30.5,5S29,5.671,29,6.5c0,3.912-1.752,7.408-4.496,9.791
			c-1.344-2.704-3.933-4.675-7.017-5.163C17.491,11.085,17.5,11.044,17.5,11V3.5C17.5,2.671,16.829,2,16,2v12
			c3.584,0,6.5,2.916,6.5,6.5S19.584,27,16,27v3c5.238,0,9.5-4.262,9.5-9.5c0-0.377-0.028-0.747-0.071-1.113
			C29.403,16.475,32,11.793,32,6.5z"/>
	</g>
</g>
</svg>
