<?xml version="1.0" encoding="utf-8"?>
<!-- Generator: Adobe Illustrator 23.0.6, SVG Export Plug-In . SVG Version: 6.00 Build 0)  -->
<svg version="1.1" xmlns="http://www.w3.org/2000/svg" xmlns:xlink="http://www.w3.org/1999/xlink" x="0px" y="0px" width="32px"
	 height="32px" viewBox="0 0 32 32" enable-background="new 0 0 32 32" xml:space="preserve">
<g id="labels">
	<g>
	</g>
</g>
<g id="icons">
	<g>
		<path fill="#FFFFFF" d="M9.5,2C5.358,2,2,5.358,2,9.5S5.358,17,9.5,17V2z"/>
		<path fill="#F7F7F7" d="M17,9.5C17,5.358,13.642,2,9.5,2v15C13.642,17,17,13.642,17,9.5z"/>
		<path fill="#3980A8" d="M9.5,16C5.916,16,3,13.084,3,9.5S5.916,3,9.5,3V0C4.262,0,0,4.262,0,9.5c0,4.727,3.474,8.647,8,9.37v6.38
			L2.6,29.3c-0.663,0.497-0.797,1.438-0.3,2.1c0.499,0.664,1.439,0.797,2.1,0.3l5.1-3.825V16z"/>
		<path fill="#377AA0" d="M16,9.5c0,3.584-2.916,6.5-6.5,6.5v11.875l5.1,3.825c0.27,0.202,0.585,0.3,0.899,0.3
			c0.456,0,0.906-0.207,1.201-0.6c0.497-0.663,0.362-1.603-0.3-2.1L11,25.25v-1.808c0.537,0.126,1.173,0.222,1.904,0.222
			c1.067,0,2.319-0.199,3.687-0.785c0.762-0.327,1.114-1.208,0.788-1.97c-0.327-0.762-1.21-1.112-1.97-0.788
			c-2.191,0.94-3.825,0.44-4.409,0.194V18.87c3.087-0.493,5.677-2.472,7.016-5.185l7.314,3.657c0.215,0.107,0.444,0.159,0.67,0.159
			c0.55,0,1.08-0.304,1.343-0.83l4-8c0.232-0.465,0.208-1.017-0.066-1.459S30.52,6.5,30,6.5H18.507C17.247,2.729,13.689,0,9.5,0v3
			C13.084,3,16,5.916,16,9.5z M19,9.5h8.573l-2.244,4.487l-6.425-3.212C18.961,10.357,19,9.933,19,9.5z"/>
		<path fill="#373F3F" d="M9.5,7C8.119,7,7,8.119,7,9.5C7,10.881,8.119,12,9.5,12V7z"/>
		<path fill="#2B3332" d="M12,9.5C12,8.119,10.881,7,9.5,7v5C10.881,12,12,10.881,12,9.5z"/>
		<circle fill="#FFFFFF" cx="9" cy="9" r="1"/>
	</g>
</g>
</svg>
