<?xml version="1.0" encoding="utf-8"?>
<!-- Generator: Adobe Illustrator 23.0.6, SVG Export Plug-In . SVG Version: 6.00 Build 0)  -->
<svg version="1.1" xmlns="http://www.w3.org/2000/svg" xmlns:xlink="http://www.w3.org/1999/xlink" x="0px" y="0px" width="32px"
	 height="32px" viewBox="0 0 32 32" enable-background="new 0 0 32 32" xml:space="preserve">
<g id="labels">
	<g>
	</g>
</g>
<g id="icons">
	<g>
		<g>
			<path fill="#FFFFFF" d="M16,8.5c-4.142,0-7.5,3.358-7.5,7.5s3.358,7.5,7.5,7.5V8.5z"/>
			<path fill="#F7F7F7" d="M23.5,16c0-4.142-3.358-7.5-7.5-7.5v15C20.142,23.5,23.5,20.142,23.5,16z"/>
			<path fill="#373F3F" d="M16,13.5c-1.381,0-2.5,1.119-2.5,2.5c0,1.381,1.119,2.5,2.5,2.5V13.5z"/>
			<path fill="#2B3332" d="M18.5,16c0-1.381-1.119-2.5-2.5-2.5v5C17.381,18.5,18.5,17.381,18.5,16z"/>
			<circle fill="#FFFFFF" cx="15.5" cy="15.5" r="1"/>
		</g>
		<path fill="#377AA0" d="M22.734,9.308C22.727,9.3,22.725,9.29,22.718,9.283l-8.844-8.843C13.593,0.158,13.211,0,12.813,0H8.5
			C7.672,0,7,0.671,7,1.5S7.672,3,8.5,3h3.692L16,6.807V9.5c3.584,0,6.5,2.916,6.5,6.5s-2.916,6.5-6.5,6.5v3
			c5.238,0,9.5-4.262,9.5-9.5C25.5,13.391,24.442,11.026,22.734,9.308z"/>
		<path fill="#3980A8" d="M23.5,29h-3.692L16,25.193V22.5c-3.584,0-6.5-2.916-6.5-6.5s2.916-6.5,6.5-6.5v-3
			c-5.238,0-9.5,4.262-9.5,9.5c0,2.609,1.058,4.974,2.766,6.692c0.007,0.007,0.009,0.018,0.017,0.025l8.844,8.843
			C18.407,31.842,18.789,32,19.187,32H23.5c0.828,0,1.5-0.671,1.5-1.5S24.328,29,23.5,29z"/>
	</g>
</g>
</svg>
