<?xml version="1.0" encoding="utf-8"?>
<!-- Generator: Adobe Illustrator 23.0.6, SVG Export Plug-In . SVG Version: 6.00 Build 0)  -->
<svg version="1.1" xmlns="http://www.w3.org/2000/svg" xmlns:xlink="http://www.w3.org/1999/xlink" x="0px" y="0px" width="32px"
	 height="32px" viewBox="0 0 32 32" enable-background="new 0 0 32 32" xml:space="preserve">
<g id="labels">
	<g>
	</g>
</g>
<g id="icons">
	<g>
		<path fill="#FFFFFF" d="M16,8.5c-4.142,0-7.5,3.358-7.5,7.5s3.358,7.5,7.5,7.5V8.5z"/>
		<path fill="#F7F7F7" d="M23.5,16c0-4.142-3.358-7.5-7.5-7.5v15C20.142,23.5,23.5,20.142,23.5,16z"/>
		<path fill="#373F3F" d="M16,13.5c-1.381,0-2.5,1.119-2.5,2.5c0,1.381,1.119,2.5,2.5,2.5V13.5z"/>
		<path fill="#2B3332" d="M18.5,16c0-1.381-1.119-2.5-2.5-2.5v5C17.381,18.5,18.5,17.381,18.5,16z"/>
		<circle fill="#FFFFFF" cx="15.5" cy="15.5" r="1"/>
		<path fill="#3980A8" d="M16,0c-0.828,0-1.5,0.671-1.5,1.5v0.579c-3.173,0.335-6.112,1.734-8.399,4.021
			c-0.586,0.586-0.586,1.536,0,2.121l2.215,2.215C7.179,12.003,6.5,13.921,6.5,16c0,5.238,4.262,9.5,9.5,9.5v-3
			c-3.584,0-6.5-2.916-6.5-6.5s2.916-6.5,6.5-6.5v-3c-2.079,0-3.997,0.679-5.563,1.816L9.354,7.232C11.256,5.784,13.567,5,16,5
			c0.828,0,1.5-0.671,1.5-1.5v-2C17.5,0.671,16.828,0,16,0z"/>
		<path fill="#377AA0" d="M25.899,23.778l-2.215-2.215C24.821,19.997,25.5,18.079,25.5,16c0-5.238-4.262-9.5-9.5-9.5v3
			c3.584,0,6.5,2.916,6.5,6.5s-2.916,6.5-6.5,6.5v3c2.079,0,3.997-0.679,5.563-1.816l1.083,1.083C20.744,26.216,18.433,27,16,27
			c-0.828,0-1.5,0.671-1.5,1.5v2c0,0.829,0.672,1.5,1.5,1.5s1.5-0.671,1.5-1.5v-0.579c3.173-0.335,6.112-1.734,8.399-4.021
			C26.485,25.313,26.485,24.364,25.899,23.778z"/>
	</g>
</g>
</svg>
