<?xml version="1.0" encoding="utf-8"?>
<!-- Generator: Adobe Illustrator 23.0.6, SVG Export Plug-In . SVG Version: 6.00 Build 0)  -->
<svg version="1.1" xmlns="http://www.w3.org/2000/svg" xmlns:xlink="http://www.w3.org/1999/xlink" x="0px" y="0px" width="32px"
	 height="32px" viewBox="0 0 32 32" enable-background="new 0 0 32 32" xml:space="preserve">
<g id="labels">
	<g>
	</g>
</g>
<g id="icons">
	<g>
		<path fill="#FFFFFF" d="M16,2c-4.142,0-7.5,3.358-7.5,7.5S11.858,17,16,17V2z"/>
		<path fill="#F7F7F7" d="M23.5,9.5C23.5,5.358,20.142,2,16,2v15C20.142,17,23.5,13.642,23.5,9.5z"/>
		<path fill="#373F3F" d="M16,7c-1.381,0-2.5,1.119-2.5,2.5c0,1.381,1.119,2.5,2.5,2.5V7z"/>
		<path fill="#2B3332" d="M18.5,9.5C18.5,8.119,17.381,7,16,7v5C17.381,12,18.5,10.881,18.5,9.5z"/>
		<circle fill="#FFFFFF" cx="15.5" cy="9" r="1"/>
		<path fill="#377AA0" d="M25.621,16.5l-1.726-1.726C24.908,13.264,25.5,11.45,25.5,9.5C25.5,4.262,21.238,0,16,0v3
			c3.584,0,6.5,2.916,6.5,6.5S19.584,16,16,16v3c2.207,0,4.235-0.763,5.849-2.03l1.651,1.651c0.293,0.293,0.677,0.439,1.061,0.439
			s0.768-0.146,1.061-0.439C26.207,18.036,26.207,17.085,25.621,16.5z"/>
		<path fill="#3980A8" d="M16,3V0c-5.238,0-9.5,4.262-9.5,9.5v21C6.5,31.329,7.172,32,8,32s1.5-0.671,1.5-1.5V16.409
			C11.201,18.011,13.485,19,16,19v-3c-3.584,0-6.5-2.916-6.5-6.5S12.416,3,16,3z"/>
	</g>
</g>
</svg>
