<?xml version="1.0" encoding="utf-8"?>
<!-- Generator: Adobe Illustrator 23.0.6, SVG Export Plug-In . SVG Version: 6.00 Build 0)  -->
<svg version="1.1" xmlns="http://www.w3.org/2000/svg" xmlns:xlink="http://www.w3.org/1999/xlink" x="0px" y="0px" width="32px"
	 height="32px" viewBox="0 0 32 32" enable-background="new 0 0 32 32" xml:space="preserve">
<g id="labels">
	<g>
	</g>
</g>
<g id="icons">
	<g>
		<polygon fill="#724D31" points="17.938,29.5 19.688,29.5 21.438,21.375 17.938,21.375 		"/>
		<path fill="#2E2D2B" d="M17.88,30.5h2.092c0.151,0,0.266-0.134,0.244-0.283l-0.208-1.384h-2.167l-0.207,1.381
			C17.612,30.365,17.728,30.5,17.88,30.5z"/>
		<path fill="#724D31" d="M17.442,29c0.063-0.945,0.666-1.5,1.495-1.5s1.434,0.555,1.497,1.5l0.003,0.506l-1.425,0.469
			c-0.049,0.016-0.102,0.016-0.15,0l-1.423-0.469L17.442,29z"/>
		<polygon fill="#724D31" points="14.062,29.5 12.312,29.5 10.562,21.375 14.062,21.375 		"/>
		<g>
			<path fill="#2E2D2B" d="M14.12,30.5h-2.092c-0.151,0-0.266-0.134-0.244-0.283l0.208-1.384h2.167l0.207,1.381
				C14.388,30.365,14.272,30.5,14.12,30.5z"/>
			<path fill="#724D31" d="M14.558,29c-0.063-0.945-0.666-1.5-1.495-1.5c-0.829,0-1.434,0.555-1.497,1.5l-0.003,0.506l1.425,0.469
				c0.049,0.016,0.102,0.016,0.15,0l1.423-0.469L14.558,29z"/>
		</g>
		<circle fill="#604631" cx="22" cy="17" r="2.5"/>
		<path fill="#E3E5E5" d="M23.569,18.946c-0.569-0.259-0.882-0.696-1.382-1.571C23.062,17.125,24.5,16.827,24.5,17
			C24.5,17.786,24.137,18.488,23.569,18.946z"/>
		<path fill="#F7BC48" d="M22.669,14.602c-0.098,0.154-0.169,0.327-0.169,0.523c0,0.552,0.448,1,1,1c0.273,0,0.52-0.111,0.7-0.288
			C23.883,15.238,23.335,14.788,22.669,14.602z"/>
		<path fill="#604631" d="M23.988,15.499c-0.25-0.331-0.577-0.599-0.959-0.772c-0.092,0.109-0.154,0.245-0.154,0.398
			c0,0.345,0.28,0.625,0.625,0.625C23.702,15.75,23.874,15.648,23.988,15.499z"/>
		<path fill="#2E2D2B" d="M15.557,32h-2.092c-0.151,0-0.266-0.134-0.244-0.283l0.208-1.384h2.167l0.207,1.381
			C15.826,31.865,15.709,32,15.557,32z"/>
		<path fill="#EFB43F" d="M14,6.062v9.381c0,0.332-0.021,0.473-0.2,0.565c-1.092,0.562-3.487,2.998-3.3,5.241
			c0.187,2.25,1.867,2.988,2.312,4.938C13.062,27.281,14,31,14,31h1.5c0,0,0-5.312,0-7.375L16,23.5V6.062H14z"/>
		<path fill="#E5AC38" d="M18,6.062v9.381c0,0.332,0.021,0.473,0.2,0.565c1.092,0.562,3.487,2.998,3.3,5.241
			c-0.188,2.25-1.867,2.988-2.312,4.938C18.938,27.281,18,31,18,31h-1.5c0,0,0-5.312,0-7.375L16,23.5V6.062H18z"/>
		<path fill="#EFB43F" d="M16,30.25C15.937,29.305,15.329,29,14.5,29s-1.434,0.555-1.497,1.5L13,31.006l1.425,0.469
			c0.049,0.016,0.102,0.016,0.15,0L16,31.006V30.25z"/>
		<path fill="#845331" d="M14.511,12.472c0.153,0,0.288-0.098,0.336-0.244l0.316-0.971c0.047-0.145-0.005-0.305-0.128-0.395
			l-0.826-0.6c-0.062-0.045-0.135-0.067-0.207-0.067v2.278H14.511z"/>
		<path fill="#845331" d="M14.207,15.321l0.826-0.6c0.124-0.09,0.175-0.249,0.128-0.395l-0.316-0.971
			c-0.047-0.145-0.183-0.244-0.336-0.244H14v1.332v0.945C14.073,15.388,14.146,15.366,14.207,15.321z"/>
		<path fill="#F7BC48" d="M10.75,3.419c0.868,1.534,4.041,1.905,4.041,1.905V2.682C14.791,2.682,11.983,2.761,10.75,3.419z"/>
		<path fill="#F7BC48" d="M16,2.25v8.18c-2.182-0.007-4.09-0.663-4.09-2.922S13.839,2.25,16,2.25z"/>
		<path fill="#EDEEEE" d="M13.145,4.032C13.897,3,14.92,2.25,16,2.25v8.18c-1.956,0-1.528-1.101-1.528-3.36
			C14.472,5.941,13.906,4.438,13.145,4.032z"/>
		<circle fill="#EDEEEE" cx="13.625" cy="0.625" r="0.625"/>
		<path fill="#FFFFFF" d="M14.009,4.534c1.113,0.121,1.074,1.708,1.059,2.683c-0.003,0.202-0.19,0.351-0.387,0.306
			c-0.528-0.118-1.362-0.278-1.844-0.392c-0.158-0.037-0.266-0.187-0.245-0.348C12.702,5.967,13.252,4.452,14.009,4.534z"/>
		<path fill="#EDEEEE" d="M15.081,3.057l-1.688-2.25l0.4-0.301l1.688,2.25L15.081,3.057z"/>
		<path fill="#FAB8CD" d="M16,7.988v4.21c-1.424,0-1.789-1.293-2.034-1.868c-0.09-0.212-0.106-0.227,0-0.383
			C14.299,9.459,15.27,7.988,16,7.988z"/>
		<path fill="#845331" d="M14.253,19.147c0.103-0.138,0.105-0.327,0.006-0.467l-1.402-1.982c-1.046,0.935-2.28,2.55-2.362,4.135
			l1.723,0.584c0.163,0.055,0.343-0.001,0.446-0.139L14.253,19.147z"/>
		<path fill="#373F3F" d="M14.701,6.588c0.034-0.76-0.211-1.381-0.641-1.425c-0.43-0.044-0.84,0.523-0.917,1.266
			c-0.03,0.294,0.009,0.558,0.079,0.789c0.374,0.08,0.889,0.188,1.262,0.267C14.633,7.259,14.685,6.936,14.701,6.588z"/>
		<ellipse fill="#FFFFFF" cx="14.016" cy="6.125" rx="0.312" ry="0.625"/>
		<path fill="#2E2D2B" d="M16.443,32h2.092c0.151,0,0.266-0.134,0.244-0.283l-0.208-1.384h-2.167l-0.207,1.381
			C16.174,31.865,16.291,32,16.443,32z"/>
		<path fill="#E5AC38" d="M16,30.25c0.063-0.945,0.671-1.25,1.5-1.25s1.434,0.555,1.497,1.5L19,31.006l-1.425,0.469
			c-0.049,0.016-0.102,0.016-0.15,0L16,31.006V30.25z"/>
		<path fill="#724D31" d="M17.489,12.472c-0.153,0-0.288-0.098-0.336-0.244l-0.316-0.971c-0.047-0.145,0.005-0.305,0.128-0.395
			l0.826-0.6c0.062-0.045,0.135-0.067,0.207-0.067v2.278H17.489z"/>
		<path fill="#724D31" d="M17.793,15.321l-0.826-0.6c-0.124-0.09-0.175-0.249-0.128-0.395l0.316-0.971
			c0.047-0.145,0.183-0.244,0.336-0.244H18v1.332v0.945C17.927,15.388,17.854,15.366,17.793,15.321z"/>
		<path fill="#E5AC38" d="M21.25,3.419c-0.868,1.534-4.041,1.905-4.041,1.905V2.682C17.209,2.682,20.017,2.761,21.25,3.419z"/>
		<path fill="#EFB43F" d="M20.09,7.509c0,2.259-1.908,2.915-4.09,2.922V2.25C18.161,2.25,20.09,5.25,20.09,7.509z"/>
		<path fill="#E3E5E5" d="M17.528,7.07c0,2.259,0.428,3.36-1.528,3.36V2.25c1.08,0,2.103,0.75,2.855,1.782
			C18.094,4.438,17.528,5.941,17.528,7.07z"/>
		<circle fill="#E3E5E5" cx="18.375" cy="0.625" r="0.625"/>
		<path fill="#F7F7F7" d="M17.991,4.534c-1.113,0.121-1.074,1.708-1.059,2.683c0.003,0.202,0.19,0.351,0.387,0.306
			c0.528-0.118,1.362-0.278,1.844-0.392c0.158-0.037,0.266-0.187,0.245-0.348C19.298,5.967,18.748,4.452,17.991,4.534z"/>
		<path fill="#E3E5E5" d="M16.519,2.756l1.688-2.25l0.4,0.301l-1.688,2.25L16.519,2.756z"/>
		<path fill="#F9ADC8" d="M18.034,9.947c0.106,0.156,0.09,0.171,0,0.383c-0.244,0.576-0.61,1.868-2.034,1.868v-4.21
			C16.73,7.988,17.701,9.459,18.034,9.947z"/>
		<path fill="#724D31" d="M17.747,19.147c-0.103-0.138-0.105-0.327-0.006-0.467l1.402-1.982c1.046,0.935,2.28,2.55,2.362,4.135
			l-1.723,0.584c-0.163,0.055-0.343-0.001-0.446-0.139L17.747,19.147z"/>
		<path fill="#2B3332" d="M17.299,6.588c-0.034-0.76,0.211-1.381,0.641-1.425c0.43-0.044,0.84,0.523,0.917,1.266
			c0.03,0.294-0.009,0.558-0.079,0.789c-0.374,0.08-0.889,0.188-1.262,0.267C17.367,7.259,17.315,6.936,17.299,6.588z"/>
		<ellipse fill="#F7F7F7" cx="17.984" cy="6.125" rx="0.312" ry="0.625"/>
	</g>
</g>
</svg>
