<?xml version="1.0" encoding="utf-8"?>
<!-- Generator: Adobe Illustrator 23.0.6, SVG Export Plug-In . SVG Version: 6.00 Build 0)  -->
<svg version="1.1" xmlns="http://www.w3.org/2000/svg" xmlns:xlink="http://www.w3.org/1999/xlink" x="0px" y="0px" width="32px"
	 height="32px" viewBox="0 0 32 32" enable-background="new 0 0 32 32" xml:space="preserve">
<g id="labels">
	<g>
	</g>
</g>
<g id="icons">
	<g>
		<path fill="#D64F45" d="M16,6C8.82,6,3,10.701,3,16.5C3,22.299,8.82,27,16,27V6z"/>
		<path fill="#D1473D" d="M29,16.5C29,10.701,23.18,6,16,6v21C23.18,27,29,22.299,29,16.5z"/>
		<path fill="#373F3F" d="M16,16h-1.55c-0.232-1.141-1.24-2-2.45-2s-2.218,0.859-2.45,2H7v1h2.55c0.232,1.141,1.24,2,2.45,2
			s2.218-0.859,2.45-2H16V16z"/>
		<path fill="#2B3332" d="M25,16h-2.55c-0.232-1.141-1.24-2-2.45-2s-2.218,0.859-2.45,2H16v1h1.55c0.232,1.141,1.24,2,2.45,2
			s2.218-0.859,2.45-2H25V16z"/>
		<circle fill="#FFFFFF" cx="12" cy="16.5" r="1.5"/>
		<circle fill="#373F3F" cx="12" cy="16.5" r="1"/>
		<circle fill="#F7F7F7" cx="20" cy="16.5" r="1.5"/>
		<circle fill="#2B3332" cx="20" cy="16.5" r="1"/>
		<path fill="#FDE2E6" d="M15,19l-1,3h-2l-1-2H9l-1,1.5L6,21l-2-4H3c0,0,0.001,1.385,0.671,3.123L3.19,20.752
			c-0.116,0.152-0.135,0.356-0.05,0.527l0.722,1.444C3.946,22.893,4.12,23,4.309,23h1.065c0.389,0.457,0.843,0.903,1.371,1.321
			l0.224,2.355c0.019,0.197,0.152,0.364,0.34,0.427l2.398,0.799c0.18,0.06,0.378,0.013,0.512-0.121l1.267-1.267
			c0.559,0.132,1.156,0.237,1.791,0.317l0.609,1.827C13.954,28.862,14.145,29,14.36,29H16v-2v-1v-7H15z"/>
		<path fill="#FCD8DE" d="M28.329,20.123C28.999,18.385,29,17,29,17h-1l-2,4l-2,0.5L23,20h-2l-1,2h-2l-1-3h-1v7v1v2h1.64
			c0.215,0,0.406-0.138,0.474-0.342l0.609-1.827c0.532-0.067,1.044-0.148,1.523-0.252l1.203,1.203
			c0.134,0.134,0.332,0.181,0.512,0.121l2.398-0.799c0.188-0.063,0.321-0.23,0.34-0.427l0.199-2.086
			c0.684-0.494,1.255-1.033,1.73-1.59h1.065c0.189,0,0.363-0.107,0.447-0.276l0.722-1.444c0.085-0.171,0.066-0.376-0.05-0.527
			L28.329,20.123z"/>
		<path fill="#FDECEF" d="M14.36,4c-0.215,0-0.406,0.138-0.474,0.342l-0.609,1.827c-0.635,0.08-1.233,0.185-1.791,0.317
			l-1.267-1.267c-0.134-0.134-0.332-0.181-0.512-0.121L7.309,5.897c-0.188,0.063-0.321,0.23-0.34,0.427L6.745,8.679
			C6.217,9.097,5.763,9.543,5.374,10H4.309c-0.189,0-0.363,0.107-0.447,0.276L3.14,11.721c-0.085,0.171-0.066,0.376,0.05,0.527
			l0.481,0.629C3.001,14.615,3,16,3,16h1l2-4l2-0.5L9,13h2l1-2h2l1,3h1V7V6V4H14.36z"/>
		<path fill="#FDE2E6" d="M28.329,12.877l0.481-0.629c0.116-0.152,0.135-0.356,0.05-0.527l-0.722-1.444
			C28.054,10.107,27.88,10,27.691,10h-1.065c-0.475-0.558-1.046-1.097-1.73-1.59l-0.199-2.086c-0.019-0.197-0.152-0.364-0.34-0.427
			L21.96,5.098c-0.18-0.06-0.378-0.013-0.512,0.121l-1.203,1.203c-0.479-0.104-0.99-0.185-1.523-0.252l-0.609-1.827
			C18.046,4.138,17.855,4,17.64,4H16v2v1v7h1l1-3h2l1,2h2l1-1.5l2,0.5l2,4h1C29,16,28.999,14.615,28.329,12.877z"/>
		<path fill="#E55D53" d="M6.175,18.823l-5.78-1.239C0.165,17.535,0,17.332,0,17.096v-1.192c0-0.236,0.165-0.44,0.395-0.489
			l5.78-1.239c0.476-0.102,0.957,0.154,1.138,0.606l0.093,0.231c0.381,0.954,0.381,2.017,0,2.971l-0.092,0.231
			C7.132,18.669,6.652,18.925,6.175,18.823z"/>
		<path fill="#D64F45" d="M25.825,14.177l5.78,1.239C31.835,15.465,32,15.668,32,15.904v1.192c0,0.236-0.165,0.44-0.395,0.489
			l-5.78,1.239c-0.476,0.102-0.957-0.154-1.138-0.606l-0.093-0.231c-0.381-0.954-0.381-2.017,0-2.971l0.092-0.231
			C24.868,14.331,25.348,14.075,25.825,14.177z"/>
	</g>
</g>
</svg>
