<?xml version="1.0" encoding="utf-8"?>
<!-- Generator: Adobe Illustrator 23.0.6, SVG Export Plug-In . SVG Version: 6.00 Build 0)  -->
<svg version="1.1" xmlns="http://www.w3.org/2000/svg" xmlns:xlink="http://www.w3.org/1999/xlink" x="0px" y="0px" width="32px"
	 height="32px" viewBox="0 0 32 32" enable-background="new 0 0 32 32" xml:space="preserve">
<g id="labels">
	<g>
	</g>
</g>
<g id="icons">
	<g>
		<path fill="#C56A9B" d="M9.985,26.945c0-2.757,2.941-10.042,6.015-10.042v15.034C12.709,31.938,9.985,29.702,9.985,26.945z"/>
		<path fill="#C25E94" d="M16,31.938V16.903c3.075,0,6.015,7.284,6.015,10.042C22.015,29.702,19.291,31.938,16,31.938z"/>
		<g>
			<path fill="#FBCFD6" d="M11.553,26.739c0,2.038,2.014,3.691,4.447,3.691V19.316C13.727,19.316,11.553,24.701,11.553,26.739z"/>
			<path fill="#FAC4D1" d="M16,19.316V30.43c2.433,0,4.447-1.652,4.447-3.691S18.273,19.316,16,19.316z"/>
		</g>
		<path fill="#FCD8DE" d="M7.997,20.699l3.398,3.398L6.8,26.384c-0.406,0.202-0.85-0.197-0.691-0.622L7.997,20.699z"/>
		<ellipse fill="#C25E94" cx="18.097" cy="26.627" rx="0.549" ry="1.646"/>
		<ellipse fill="#C56A9B" cx="13.903" cy="26.627" rx="0.549" ry="1.646"/>
		<path fill="#C56A9B" d="M11.5,9.218l-3.398,3.398L3.498,7.108C3.166,6.711,3.581,6.134,4.063,6.321L11.5,9.218z"/>
		<path fill="#C56A9B" d="M16,3.115v22c-6.075,0-11-4.925-11-11S9.925,3.115,16,3.115z"/>
		<path fill="#FDE2E6" d="M6.466,14.615v4.801l-6.108-1.801c-0.469-0.138-0.481-0.799-0.017-0.954L6.466,14.615z"/>
		<path fill="#C56A9B" d="M13.068,4.346C13.083,6.417,10.083,8.5,10.083,8.5L5.4,0.764C5.126,0.316,5.64-0.197,6.088,0.077
			C6.088,0.077,10.417,2.583,13.068,4.346z"/>
		<g>
			<g>
				<path fill="#FFFFFF" d="M9.75,7.989c0,1.175,0.883,2.127,1.972,2.127c0.559,0,1.061-0.253,1.419-0.656
					c0,0-0.68-2.933-1.856-3.541C10.49,5.995,9.75,6.976,9.75,7.989z"/>
			</g>
			<g>
				<path fill="#FFFFFF" d="M9.75,7.989c0,1.175,0.883,2.127,1.972,2.127c0.559,0,1.061-0.253,1.419-0.656
					c0,0-0.68-2.933-1.856-3.541C10.49,5.995,9.75,6.976,9.75,7.989z"/>
			</g>
		</g>
		<circle fill="#373F3F" cx="11.517" cy="7.74" r="0.375"/>
		<path fill="#FBCFD6" d="M24.003,20.699l-3.398,3.398l4.594,2.288c0.406,0.202,0.85-0.197,0.691-0.622L24.003,20.699z"/>
		<path fill="#C25E94" d="M20.5,9.218l3.398,3.398l4.604-5.507c0.332-0.397-0.083-0.974-0.565-0.787L20.5,9.218z"/>
		<path fill="#C25E94" d="M27,14.115c0,6.075-4.925,11-11,11v-22C22.075,3.115,27,8.04,27,14.115z"/>
		<path fill="#FCD8DE" d="M16,13.115c-4.5,0-8.75,0.5-11,1c0,6.075,4.925,11,11,11s11-4.925,11-11
			C24.75,13.615,20.5,13.115,16,13.115z"/>
		<path fill="#FDE2E6" d="M16,13.115v12c-6.075,0-11-4.925-11-11C7.25,13.615,11.5,13.115,16,13.115z"/>
		<path fill="#FCD8DE" d="M25.534,14.615v4.801l6.108-1.801c0.469-0.138,0.481-0.799,0.017-0.954L25.534,14.615z"/>
		<path fill="#FF6B8B" d="M16,11.365c-1.477,0-3.235,1.082-3.235,1.832c0.672-0.031,2.14-0.082,3.235-0.082s2.563,0.051,3.235,0.082
			C19.235,12.448,17.477,11.365,16,11.365z"/>
		<path fill="#FF5F7E" d="M16,13.115c-1.096,0-2.247,0.027-3.243,0.082c0,0.751,1.972,1.668,3.243,1.668s3.243-0.917,3.243-1.668
			C18.247,13.143,17.096,13.115,16,13.115z"/>
		<path fill="#FBCFD6" d="M24.875,20.615c-2.002,2.729-5.232,4.5-8.875,4.5v-2.75C20.5,22.365,22.5,21.365,24.875,20.615z"/>
		<path fill="#C25E94" d="M18.932,4.346C18.917,6.417,21.917,8.5,21.917,8.5L26.6,0.764c0.274-0.448-0.239-0.961-0.687-0.687
			C25.912,0.077,21.583,2.583,18.932,4.346z"/>
		<g>
			<g>
				<path fill="#F7F7F7" d="M22.25,7.989c0,1.175-0.883,2.127-1.972,2.127c-0.559,0-1.061-0.253-1.419-0.656
					c0,0,0.68-2.933,1.856-3.541C21.51,5.995,22.25,6.976,22.25,7.989z"/>
			</g>
			<g>
				<path fill="#FFFFFF" d="M22.25,7.989c0,1.175-0.883,2.127-1.972,2.127c-0.559,0-1.061-0.253-1.419-0.656
					c0,0,0.68-2.933,1.856-3.541C21.51,5.995,22.25,6.976,22.25,7.989z"/>
			</g>
		</g>
		<circle fill="#2B3332" cx="20.483" cy="7.74" r="0.375"/>
		<path fill="#FF7899" d="M12.765,13.198c0.672-0.031,2.14-0.082,3.235-0.082v-1.75C14.523,11.365,12.765,12.448,12.765,13.198z"/>
		<path fill="#FF6B8B" d="M16,14.865v-1.75c-1.096,0-2.247,0.027-3.243,0.082C12.757,13.949,14.729,14.865,16,14.865z"/>
		<path fill="#FCD8DE" d="M16,22.365v2.75c-3.643,0-6.873-1.771-8.875-4.5C9.5,21.365,11.5,22.365,16,22.365z"/>
	</g>
</g>
</svg>
