<?xml version="1.0" encoding="utf-8"?>
<!-- Generator: Adobe Illustrator 23.0.6, SVG Export Plug-In . SVG Version: 6.00 Build 0)  -->
<svg version="1.1" xmlns="http://www.w3.org/2000/svg" xmlns:xlink="http://www.w3.org/1999/xlink" x="0px" y="0px" width="32px"
	 height="32px" viewBox="0 0 32 32" enable-background="new 0 0 32 32" xml:space="preserve">
<g id="labels">
	<g>
	</g>
</g>
<g id="icons">
	<g>
		<path fill="#923D27" d="M11.311,22.07C10.974,22.359,9.048,25.589,9,27.951c-0.042,2.081,0.721,4.001,0.721,4.001
			s1.639,0.145,1.784-0.289c0.145-0.434,0.675-9.593,0.434-9.593S11.311,22.07,11.311,22.07z"/>
		<path fill="#ACD7DD" d="M1.727,0c2,0.136,12.818,7.591,14.182,12C10.5,12,8.045,11.591,5,8.773C1.721,5.738,1.727,2.091,1.727,0z"
			/>
		<path fill="#B9E2E7" d="M3.253,0.574c0.235,1.935,0.952,4.25,3.156,6.289c2.539,2.35,4.674,3.023,8.446,3.182
			C12.304,6.474,6.298,2.106,3.253,0.574z"/>
		<path fill="#ACD7DD" d="M13.998,10.697c0.433,1.392,1.449,5.343,0.318,6.319c-1.132,0.976-6.034-1.301-5.488-2.593
			s2.949-3.439,3.61-3.963S13.998,10.697,13.998,10.697z"/>
		<path fill="#A0422C" d="M10.03,18.307C10.812,17,16,17.062,16,21.625C13.687,24.25,8.282,21.228,10.03,18.307z"/>
		<path fill="#A0422C" d="M12.165,18.687c-0.822,1.42-3.148,6.686-1.978,8.126c0.813,1,4.376-7.154,3.983-7.539
			S12.165,18.687,12.165,18.687z"/>
		<path fill="#DADDDC" d="M8.125,32c0-0.481,1.623-1.562,2.103-1.562S11.102,31.52,11.07,32C9.868,32,9.297,32,8.125,32z"/>
		<path fill="#AD4630" d="M12.25,21.752c0,2.292,1.417,3.625,2.875,4.812c0.292,0.238,0.518,0.281,0.875,0.281v-9.656
			C14.375,17.189,12.25,19.439,12.25,21.752z"/>
		<path fill="#AD4630" d="M16,17.682c0,0-2.268,0.613-1.958,0.402c1.042-0.708,0.458-2.827,0.458-2.827H16V17.682z"/>
		<path fill="#434C4B" d="M12.467,20.44c0.57,1.219,1.569,2.129,2.596,2.966c0.313,0.255,0.555,0.301,0.938,0.301v-2.574
			c-0.918,0-1.985-3.248-2.747-2.209C12.92,19.379,12.645,19.895,12.467,20.44z"/>
		<path fill="#505957" d="M12.882,19.494c0.581,0.861,1.372,1.564,2.18,2.222c0.313,0.255,0.556,0.302,0.938,0.302v-2.186
			c-0.719,0-1.69-0.878-2.215-1.528C13.445,18.646,13.135,19.051,12.882,19.494z"/>
		<path fill="#5C6664" d="M13.408,18.717c0.494,0.562,1.07,1.058,1.652,1.533c0.314,0.255,0.557,0.302,0.94,0.302v-1.253
			c-0.613,0-1.58-0.965-1.906-1.282C13.852,18.221,13.621,18.457,13.408,18.717z"/>
		<path fill="#843822" d="M20.689,22.07c0.337,0.289,2.263,3.519,2.311,5.881c0.042,2.081-0.721,4.001-0.721,4.001
			s-1.639,0.145-1.784-0.289c-0.145-0.434-0.675-9.593-0.434-9.593C20.303,22.07,20.689,22.07,20.689,22.07z"/>
		<path fill="#A5D1D8" d="M30.273,0c-2,0.136-12.818,7.591-14.182,12C21.5,12,23.955,11.591,27,8.773
			C30.279,5.738,30.273,2.091,30.273,0z"/>
		<path fill="#ACD7DD" d="M28.747,0.574c-0.235,1.935-0.952,4.25-3.156,6.289c-2.539,2.35-4.674,3.023-8.446,3.182
			C19.696,6.474,25.702,2.106,28.747,0.574z"/>
		<path fill="#A5D1D8" d="M18.002,10.697c-0.433,1.392-1.449,5.343-0.318,6.319c1.132,0.976,6.034-1.301,5.488-2.593
			s-2.949-3.439-3.61-3.963S18.002,10.697,18.002,10.697z"/>
		<path fill="#923D27" d="M21.97,18.307C21.188,17,16,17.062,16,21.625C18.312,24.25,23.718,21.228,21.97,18.307z"/>
		<path fill="#923D27" d="M19.835,18.687c0.822,1.42,3.148,6.686,1.978,8.126c-0.812,1-4.376-7.154-3.983-7.539
			C18.223,18.887,19.835,18.687,19.835,18.687z"/>
		<path fill="#D1D4D4" d="M23.875,32c0-0.481-1.623-1.562-2.103-1.562c-0.481,0-0.873,1.083-0.841,1.562
			C22.132,32,22.703,32,23.875,32z"/>
		<path fill="#A0422C" d="M17.17,10.438v1.206c0,0,1.243,0.695,2.047,1.024c0.804,0.329,0.366,5.52-3.217,5.52v-7.75H17.17z"/>
		<path fill="#A0422C" d="M19.75,21.752c0,2.292-1.417,3.625-2.875,4.812c-0.292,0.238-0.518,0.281-0.875,0.281v-9.656
			C17.625,17.189,19.75,19.439,19.75,21.752z"/>
		<path fill="#A0422C" d="M16,17.682c0,0,2.268,0.613,1.958,0.402c-1.042-0.708-0.458-2.827-0.458-2.827H16V17.682z"/>
		<g>
			<path fill="#AD4630" d="M25.534,18.292l0.704-1.533l-3.904-1.633l-1.959-3.938l-1.688,0.5l2.147,4.535
				c0.026,0.058,0.072,0.104,0.131,0.129L25.534,18.292z"/>
		</g>
		
			<ellipse transform="matrix(0.3039 -0.9527 0.9527 0.3039 2.4109 38.5167)" fill="#AD4630" cx="27.563" cy="17.609" rx="3.078" ry="4.477"/>
		<path fill="#A0422C" d="M24.43,18.123c0.01-0.055,0.048-0.096,0.102-0.109c0.434-0.104,1.083-0.281,1.486-0.411
			c0.046-0.015,0.092-0.006,0.129,0.025c0.617,0.513,1.849,1.608,2.391,1.981c-0.153-0.735-0.253-1.202-0.345-1.706
			c-0.019-0.102,0.073-0.189,0.173-0.161c0.608,0.167,1.53,0.45,2.025,0.618c0.046,0.016,0.078,0.052,0.089,0.099
			c0.088,0.378,0.257,1.101,0.391,1.719c-1.013,0.693-2.614,0.882-4.243,0.363c-0.985-0.314-1.804-0.839-2.403-1.454
			C24.294,18.796,24.376,18.432,24.43,18.123z"/>
		
			<ellipse transform="matrix(0.1831 -0.9831 0.9831 0.1831 4.8771 38.1868)" fill="#2B3332" cx="25.415" cy="16.159" rx="1.172" ry="0.923"/>
		
			<ellipse transform="matrix(0.1831 -0.9831 0.9831 0.1831 4.8771 38.1868)" fill="#E8BA36" cx="25.415" cy="16.159" rx="0.533" ry="0.42"/>
		<path fill="#373F3F" d="M19.533,20.44c-0.57,1.219-1.569,2.129-2.596,2.966c-0.313,0.255-0.555,0.301-0.938,0.301v-2.574
			c0.918,0,1.985-3.248,2.747-2.209C19.08,19.379,19.355,19.895,19.533,20.44z"/>
		<path fill="#434C4B" d="M19.118,19.494c-0.581,0.861-1.372,1.564-2.18,2.222c-0.313,0.255-0.556,0.302-0.938,0.302v-2.186
			c0.719,0,1.69-0.878,2.215-1.528C18.555,18.646,18.865,19.051,19.118,19.494z"/>
		<path fill="#505957" d="M18.592,18.717c-0.494,0.562-1.07,1.058-1.652,1.533c-0.314,0.255-0.557,0.302-0.94,0.302v-1.253
			c0.613,0,1.58-0.965,1.906-1.282C18.148,18.221,18.379,18.457,18.592,18.717z"/>
		<path fill="#505957" d="M17.53,10.004v1.578c0,0-0.908,4.231-1.53,4.231v-5.808H17.53z"/>
		<path fill="#AD4630" d="M14.83,10.438v1.206c0,0-1.243,0.695-2.047,1.024c-0.804,0.329-0.366,5.52,3.217,5.52v-7.75H14.83z"/>
		<g>
			<path fill="#B94A34" d="M6.466,18.292l-0.704-1.533l3.904-1.633l1.959-3.938l1.688,0.5l-2.147,4.535
				c-0.026,0.058-0.072,0.104-0.131,0.129L6.466,18.292z"/>
		</g>
		
			<ellipse transform="matrix(0.9527 -0.3039 0.3039 0.9527 -5.1416 2.1812)" fill="#B94A34" cx="4.437" cy="17.609" rx="4.477" ry="3.078"/>
		<path fill="#AD4630" d="M7.57,18.123c-0.01-0.055-0.048-0.096-0.102-0.109c-0.434-0.104-1.083-0.281-1.486-0.411
			c-0.046-0.015-0.092-0.006-0.129,0.025c-0.617,0.513-1.849,1.608-2.391,1.981c0.153-0.735,0.253-1.202,0.345-1.706
			c0.019-0.102-0.073-0.189-0.173-0.161c-0.608,0.167-1.53,0.45-2.025,0.618c-0.046,0.016-0.078,0.052-0.089,0.099
			c-0.088,0.378-0.257,1.101-0.391,1.719c1.013,0.693,2.614,0.882,4.243,0.363c0.985-0.314,1.804-0.839,2.403-1.454
			C7.706,18.796,7.624,18.432,7.57,18.123z"/>
		
			<ellipse transform="matrix(0.9831 -0.1831 0.1831 0.9831 -2.8466 1.4784)" fill="#373F3F" cx="6.585" cy="16.159" rx="0.923" ry="1.172"/>
		
			<ellipse transform="matrix(0.9831 -0.1831 0.1831 0.9831 -2.8466 1.4784)" fill="#F0C13E" cx="6.585" cy="16.159" rx="0.42" ry="0.533"/>
		<path fill="#5C6664" d="M14.47,10.004v1.578c0,0,0.908,4.231,1.53,4.231v-5.808H14.47z"/>
		<path fill="#AD4630" d="M12.334,5.426v3.703c0,0.275,0.106,0.539,0.308,0.725c0.564,0.521,1.761,1.363,2.556,1.878
			c0.325,0.21,0.562,0.344,0.802,0.358V5.675L12.334,5.426z"/>
		<path fill="#B94A34" d="M16,0.002c-0.486-0.08-1.5,2.894-1.612,3.162c-0.336-0.202-4.377-1.534-4.836-1.075
			c-0.542,0.542,3.302,4.204,5.351,5.844C15.351,8.291,15.485,8.418,16,8.418V0.002z"/>
		<g>
			<path fill="#FFFFFF" d="M13.468,7.523c-0.029-0.026-0.074-0.006-0.074,0.033c0.006,0.447,0.003,0.752,0.003,0.983
				c0,0.298,0.516,1.066,1.512,0.614c0.111-0.05,0.113-0.181,0.045-0.271C14.896,8.803,13.771,7.794,13.468,7.523z"/>
			<path fill="#E8BA36" d="M14.676,8.616c-0.229-0.211-0.553-0.504-0.822-0.746c-0.076,0.129-0.127,0.295-0.127,0.481
				c0,0.405,0.221,0.734,0.493,0.734C14.429,9.084,14.605,8.889,14.676,8.616z"/>
			<path fill="#373F3F" d="M14.424,8.384c-0.102-0.093-0.208-0.189-0.315-0.285c-0.058,0.057-0.103,0.139-0.103,0.25
				c0,0.176,0.096,0.318,0.214,0.318C14.329,8.668,14.411,8.541,14.424,8.384z"/>
		</g>
		<path fill="#A0422C" d="M19.666,5.426v3.703c0,0.275-0.106,0.539-0.308,0.725c-0.564,0.521-1.761,1.363-2.556,1.878
			c-0.325,0.21-0.562,0.344-0.802,0.358V5.675L19.666,5.426z"/>
		<path fill="#AD4630" d="M16,0.002c0.486-0.08,1.5,2.894,1.612,3.162c0.336-0.202,4.377-1.534,4.836-1.075
			c0.542,0.542-3.302,4.204-5.351,5.844C16.649,8.291,16.515,8.418,16,8.418V0.002z"/>
		<g>
			<path fill="#F7F7F7" d="M18.532,7.523c0.029-0.026,0.074-0.006,0.074,0.033c-0.006,0.447-0.003,0.752-0.003,0.983
				c0,0.298-0.516,1.066-1.512,0.614c-0.111-0.05-0.113-0.181-0.045-0.271C17.104,8.803,18.229,7.794,18.532,7.523z"/>
			<path fill="#E0B12E" d="M17.324,8.616c0.229-0.211,0.553-0.504,0.822-0.746c0.076,0.129,0.127,0.295,0.127,0.481
				c0,0.405-0.221,0.734-0.493,0.734C17.571,9.084,17.395,8.889,17.324,8.616z"/>
			<path fill="#2B3332" d="M17.576,8.384c0.102-0.093,0.208-0.189,0.315-0.285c0.058,0.057,0.103,0.139,0.103,0.25
				c0,0.176-0.096,0.318-0.214,0.318C17.671,8.668,17.589,8.541,17.576,8.384z"/>
		</g>
		<path fill="#AD4630" d="M21.382,11.19c-0.105-0.907-5.299-0.526-4.16,2.229C18.154,15.677,21.741,14.3,21.382,11.19z"/>
		<path fill="#B94A34" d="M10.618,11.19c0.105-0.907,5.299-0.526,4.16,2.229C13.846,15.677,10.259,14.3,10.618,11.19z"/>
	</g>
</g>
</svg>
