<?xml version="1.0" encoding="utf-8"?>
<!-- Generator: Adobe Illustrator 23.0.6, SVG Export Plug-In . SVG Version: 6.00 Build 0)  -->
<svg version="1.1" xmlns="http://www.w3.org/2000/svg" xmlns:xlink="http://www.w3.org/1999/xlink" x="0px" y="0px" width="32px"
	 height="32px" viewBox="0 0 32 32" enable-background="new 0 0 32 32" xml:space="preserve">
<g id="labels">
	<g>
	</g>
</g>
<g id="icons">
	<g>
		<path fill="#FFD04D" d="M9.726,21.265c-0.298-0.444-0.971,0.047-1.539,0.047C6.125,21.312,6,19.45,4,19.45c-1.938,0-3,0.8-3,2.55
			c0,1.508,1.687,2,3,2c2.187,0,3.564-0.016,5.477-1.24C9.918,22.478,10.07,21.779,9.726,21.265z"/>
		<path fill="#4896C8" d="M16,15v14c-5.5,0-9.5-2.688-9.5-5.781C6.5,18.188,10.375,15,16,15z"/>
		
			<ellipse transform="matrix(0.8173 -0.5762 0.5762 0.8173 -8.7622 8.5678)" fill="#EDEEEE" cx="9.131" cy="18.103" rx="2.333" ry="1.325"/>
		
			<ellipse transform="matrix(0.8173 -0.5762 0.5762 0.8173 -8.5592 8.3007)" fill="#373F3F" cx="8.811" cy="17.649" rx="1.361" ry="0.478"/>
		<g>
			<path fill="#EDEEEE" d="M7,27c-1.636-1.869-2.224-3.714-1-4.938c0.812-0.812,2.825-0.49,4.461,1.378s2.975,4.517,1.476,5.559
				C10.5,30,8.636,28.869,7,27z"/>
			
				<ellipse transform="matrix(0.7236 -0.6902 0.6902 0.7236 -15.866 12.9649)" fill="#373F3F" cx="8.256" cy="26.294" rx="1.112" ry="2.268"/>
		</g>
		<path fill="#FFD96C" d="M8.687,25.875c-0.423-0.423-1.005-0.555-1.562-0.25C4.109,27.278,4.11,26,2.5,26
			C0.985,26,0,26.891,0,28.375C0,30.06,1.812,31,3,31c2.536,0,4.083-1.535,5.917-3.292C9.339,27.304,9.176,26.364,8.687,25.875z"/>
		<path fill="#F7C845" d="M22.274,21.265c0.298-0.444,0.971,0.047,1.539,0.047c2.062,0,2.188-1.862,4.188-1.862
			c1.938,0,3,0.8,3,2.55c0,1.508-1.688,2-3,2c-2.188,0-3.564-0.016-5.477-1.24C22.082,22.478,21.93,21.779,22.274,21.265z"/>
		<path fill="#4390BF" d="M25.5,23.219c0,3.094-4,5.781-9.5,5.781V15C21.625,15,25.5,18.188,25.5,23.219z"/>
		<path fill="#E3E5E5" d="M16,16c-1.83,0-3.787,0.936-3.5,3c0.208,1.5,2.042,2.5,3.5,2.5s3.292-1,3.5-2.5
			C19.787,16.936,17.83,16,16,16z"/>
		<path fill="#EDEEEE" d="M16,16v5.5c-1.458,0-3.292-1-3.5-2.5C12.213,16.936,14.17,16,16,16z"/>
		
			<ellipse transform="matrix(0.5762 -0.8173 0.8173 0.5762 -5.1033 26.3641)" fill="#E3E5E5" cx="22.869" cy="18.103" rx="1.325" ry="2.333"/>
		
			<ellipse transform="matrix(0.5762 -0.8173 0.8173 0.5762 -4.597 26.4332)" fill="#2B3332" cx="23.189" cy="17.649" rx="0.478" ry="1.361"/>
		<g>
			<path fill="#E3E5E5" d="M25,27c1.636-1.869,2.224-3.714,1-4.938c-0.812-0.812-2.825-0.49-4.461,1.378
				c-1.636,1.869-2.975,4.517-1.476,5.559C21.5,30,23.364,28.869,25,27z"/>
			
				<ellipse transform="matrix(0.6902 -0.7236 0.7236 0.6902 -11.671 25.3284)" fill="#2B3332" cx="23.744" cy="26.294" rx="2.268" ry="1.112"/>
		</g>
		<path fill="#FFD04D" d="M23.312,25.875c0.423-0.423,1.005-0.555,1.562-0.25C27.891,27.278,27.89,26,29.5,26
			c1.515,0,2.5,0.891,2.5,2.375C32,30.06,30.188,31,29,31c-2.536,0-4.083-1.535-5.917-3.292
			C22.661,27.304,22.824,26.364,23.312,25.875z"/>
		<g>
			<path fill="#2B3332" d="M16,16.417c-1.238,0-2.625,0.792-2.458,1.75c0.181,1.039,1.333,1.458,2.458,1.458
				s2.278-0.419,2.458-1.458C18.625,17.208,17.238,16.417,16,16.417z"/>
			<path fill="#373F3F" d="M16,16.417v3.208c-1.125,0-2.278-0.419-2.458-1.458C13.375,17.208,14.762,16.417,16,16.417z"/>
		</g>
		<g>
			<path fill="#FFD04D" d="M16,1c-2.416,0-4.375,1.959-4.375,4.375c0,1.655,0.93,3.078,2.286,3.821C13.96,9.318,14,9.447,14,9.581
				v7.356c0,1.105,0.937,1.562,2,1.562c1.062,0,2-0.458,2-1.562V9.581c0-0.134,0.04-0.263,0.089-0.385
				c1.356-0.743,2.286-2.166,2.286-3.821C20.375,2.959,18.416,1,16,1z"/>
			<path fill="#2B3332" d="M17.667,4.583c0.276,0,0.5,0.448,0.5,1s-0.224,1-0.5,1s-0.5-0.448-0.5-1S17.391,4.583,17.667,4.583z"/>
			<path fill="#FFD96C" d="M11.625,5.375c0,1.655,0.93,3.078,2.286,3.821C13.96,9.318,14,9.447,14,9.581v7.356
				c0,1.105,0.937,1.562,2,1.562V1C13.584,1,11.625,2.959,11.625,5.375z"/>
			<ellipse fill="#373F3F" cx="14.333" cy="5.583" rx="0.5" ry="1"/>
		</g>
	</g>
</g>
</svg>
