<?xml version="1.0" encoding="utf-8"?>
<!-- Generator: Adobe Illustrator 23.0.6, SVG Export Plug-In . SVG Version: 6.00 Build 0)  -->
<svg version="1.1" xmlns="http://www.w3.org/2000/svg" xmlns:xlink="http://www.w3.org/1999/xlink" x="0px" y="0px" width="32px"
	 height="32px" viewBox="0 0 32 32" enable-background="new 0 0 32 32" xml:space="preserve">
<g id="labels">
	<g>
	</g>
</g>
<g id="icons">
	<g>
		
			<rect x="7.123" y="27.25" transform="matrix(-1 -5.733914e-11 5.733914e-11 -1 16.339 57.25)" fill="#456F93" width="2.094" height="2.75"/>
		
			<rect x="4.668" y="18.17" transform="matrix(-0.7656 0.6434 -0.6434 -0.7656 22.8259 29.4847)" fill="#456F93" width="2.747" height="1.461"/>
		<g>
			<g>
				<path fill="#4D7495" d="M10.006,13.49v9.019c0,3.308,2.682,5.99,5.991,5.99v-21C12.688,7.5,10.006,10.182,10.006,13.49z"/>
			</g>
			<g>
				<path fill="#4D7495" d="M10.006,13.49v9.019c0,3.308,2.682,5.99,5.991,5.99v-21C12.688,7.5,10.006,10.182,10.006,13.49z"/>
			</g>
		</g>
		<path fill="#3E688C" d="M15.996,18.75v9.75c-3.308,0-5.991-2.682-5.991-5.99c0,0,0-3.541,0-5.229
			C13.781,17.281,12.688,18.75,15.996,18.75z"/>
		<path fill="#396186" d="M10,14.938c-1.719,0-1.861,1.473-2.43,1.739C6.812,17.031,6,17.062,6,18
			c0.875-0.062,1.297,0.975,0.832,1.169c0.005,0.199,0.31,0.473,0.812,0.335c0.594-0.164,0.573-0.981,1.173-1.027
			c0.6-0.046,2.684,0.198,2.684-1.602C11.5,15.906,11.108,14.938,10,14.938z"/>
		<path fill="#396186" d="M2,23c-0.092-0.069-0.954-0.177-1-0.5c-0.046-0.323,0.969-0.654,1.5-1s0.25-1,0.5-1.5
			c0.633-1.266,2.469-1.468,3-0.938c0.496,0.496,0.051,1.702-0.5,2.438C5.125,22,5,22.062,5,24c0,1.153-0.32,1.91-0.5,2
			c-0.084-0.758-0.802-1.604-1.771-1.604c-0.799,0-1.131,0.86-1.229,1.604C1.199,26.014,0,25.435,0,25C0,24.438,2,23.844,2,23z"/>
		<ellipse fill="#396186" cx="7.344" cy="30.375" rx="2.25" ry="1.625"/>
		<path fill="#396186" d="M10.344,22.938c-0.254,0-0.6,0.155-0.976,0.406C9.017,22.895,8.281,22,8,22c-0.531,0-0.625,1.219-0.5,2
			c0.056,0.348,0.184,0.623,0.297,0.812c-0.902,1.11-1.487,2.435-0.766,3.156c0.812,0.812,3.589-0.165,4.763-1.828
			C12.919,24.547,11.312,22.938,10.344,22.938z"/>
		<path fill="#E3E5E5" d="M6.786,31.06c0-0.565-0.474-0.935-1.071-0.803c-0.61,0.135-1.903,0.833-1.903,1.427
			C3.812,32.279,6.786,32.012,6.786,31.06z"/>
		<path fill="#456F93" d="M13.125,25.208c0.45,0.45,2.042,0.73,2.871,0.73V18.75c-1.699,0-2.238-0.387-2.871-0.764
			C13.125,19.628,13.125,23.753,13.125,25.208z"/>
		<path fill="#396186" d="M13.125,27.767c0.853,0.467,1.831,0.733,2.871,0.733v-2.562c-0.83,0-2.422-0.28-2.871-0.73
			C13.125,26.014,13.125,26.914,13.125,27.767z"/>
		<path fill="#3E688C" d="M16,3c-0.417,0-2.708-3-3.5-3c-1.292,0,0,2.25,0,3S12,4.042,12,5c0,1.083,1.083-0.5,2-0.5
			c0.661,0,0.822,0.966,0.828,1.199c0.027,0.98-0.106,3.173-0.211,4.694c-0.344,0.181-0.667,0.413-0.935,0.686
			c-0.956-0.62-2.016-1.957-2.515-2.845C11.369,8.051,11.5,7.793,11.5,7.5c0-0.552-0.448-1-1-1s-1,0.448-1,1
			c0,0.538,0.427,0.969,0.959,0.992c0.541,1.047,1.666,2.443,2.784,3.177C13.096,11.933,13,12.212,13,12.5
			c0,1.316-0.125,3.25,1,3.25c0.958,0,0.958-0.5,2-0.5L15.998,12H16V3z"/>
		
			<ellipse transform="matrix(0.9897 -0.1434 0.1434 0.9897 -1.8629 2.0302)" fill="#FFEAA7" cx="13.154" cy="13.941" rx="1.072" ry="1.463"/>
		
			<ellipse transform="matrix(0.9897 -0.1434 0.1434 0.9897 -1.8629 2.0302)" fill="#373F3F" cx="13.154" cy="13.941" rx="0.636" ry="0.867"/>
		<circle fill="#456F93" cx="2.75" cy="26" r="1.75"/>
		<path fill="#E3E5E5" d="M3.735,25.708c-0.438,0-0.694,0.376-0.623,0.831C3.187,27.017,3.538,28,4,28S4.474,25.708,3.735,25.708z"
			/>
		<path fill="#E3E5E5" d="M2.028,26.1c-0.462,0-0.488,0.565-0.438,1.015C1.646,27.625,2.062,28.5,2.5,28.5S2.974,26.1,2.028,26.1z"
			/>
		<rect x="22.784" y="27.25" fill="#3E688C" width="2.094" height="2.75"/>
		
			<rect x="24.585" y="18.17" transform="matrix(0.7656 0.6434 -0.6434 0.7656 18.2456 -12.2698)" fill="#3E688C" width="2.747" height="1.461"/>
		<g>
			<g>
				<path fill="#456F93" d="M21.994,13.49v9.019c0,3.308-2.682,5.99-5.991,5.99v-21C19.312,7.5,21.994,10.182,21.994,13.49z"/>
			</g>
			<g>
				<path fill="#456F93" d="M21.994,13.49v9.019c0,3.308-2.682,5.99-5.991,5.99v-21C19.312,7.5,21.994,10.182,21.994,13.49z"/>
			</g>
		</g>
		<g>
			<g>
				<path fill="#396186" d="M21.994,17.281c0,1.688,0,5.229,0,5.229c0,3.308-2.682,5.99-5.991,5.99v-9.75
					C19.312,18.75,18.219,17.281,21.994,17.281z"/>
			</g>
			<g>
				<path fill="#396186" d="M21.994,17.281c0,1.688,0,5.229,0,5.229c0,3.308-2.682,5.99-5.991,5.99v-9.75
					C19.312,18.75,18.219,17.281,21.994,17.281z"/>
			</g>
		</g>
		<path fill="#365C84" d="M22,14.938c1.719,0,1.861,1.473,2.43,1.739C25.188,17.031,26,17.062,26,18
			c-0.875-0.062-1.297,0.975-0.832,1.169c-0.005,0.199-0.31,0.473-0.812,0.335c-0.594-0.164-0.573-0.981-1.173-1.027
			c-0.6-0.046-2.684,0.198-2.684-1.602C20.5,15.906,20.892,14.938,22,14.938z"/>
		<path fill="#365C84" d="M30,23c0.092-0.069,0.954-0.177,1-0.5c0.046-0.323-0.969-0.654-1.5-1s-0.25-1-0.5-1.5
			c-0.633-1.266-2.469-1.468-3-0.938c-0.496,0.496-0.051,1.702,0.5,2.438C26.875,22,27,22.062,27,24c0,1.153,0.32,1.91,0.5,2
			c0.084-0.758,0.802-1.604,1.771-1.604c0.799,0,1.131,0.86,1.229,1.604c0.301,0.014,1.5-0.565,1.5-1C32,24.438,30,23.844,30,23z"/>
		<ellipse fill="#365C84" cx="24.656" cy="30.375" rx="2.25" ry="1.625"/>
		<path fill="#365C84" d="M24.203,24.812c0.113-0.189,0.241-0.464,0.297-0.812c0.125-0.781,0.031-2-0.5-2
			c-0.281,0-1.017,0.895-1.368,1.343c-0.376-0.251-0.722-0.406-0.976-0.406c-0.969,0-2.576,1.609-1.451,3.203
			c1.174,1.663,3.951,2.641,4.763,1.828C25.69,27.247,25.105,25.922,24.203,24.812z"/>
		<path fill="#DADDDC" d="M25.214,31.06c0-0.565,0.474-0.935,1.071-0.803c0.61,0.135,1.903,0.833,1.903,1.427
			C28.188,32.279,25.214,32.012,25.214,31.06z"/>
		<path fill="#3E688C" d="M18.875,25.208c-0.45,0.45-2.042,0.73-2.871,0.73V18.75c1.699,0,2.238-0.387,2.871-0.764
			C18.875,19.628,18.875,23.753,18.875,25.208z"/>
		<path fill="#365C84" d="M18.875,27.767c-0.853,0.467-1.831,0.733-2.871,0.733v-2.562c0.83,0,2.422-0.28,2.871-0.73
			C18.875,26.014,18.875,26.914,18.875,27.767z"/>
		<path fill="#396186" d="M22.5,7.5c0-0.552-0.448-1-1-1s-1,0.448-1,1c0,0.293,0.131,0.551,0.333,0.734
			c-0.499,0.888-1.559,2.226-2.515,2.845c-0.268-0.273-0.591-0.505-0.935-0.686c-0.105-1.522-0.238-3.715-0.211-4.694
			C17.178,5.466,17.339,4.5,18,4.5c0.917,0,2,1.583,2,0.5c0-0.958-0.5-1.25-0.5-2s1.292-3,0-3c-0.792,0-3.083,3-3.5,3v9h0.002
			L16,15.25c1.042,0,1.042,0.5,2,0.5c1.125,0,1-1.934,1-3.25c0-0.288-0.096-0.567-0.242-0.832c1.118-0.734,2.243-2.13,2.784-3.177
			C22.073,8.469,22.5,8.038,22.5,7.5z"/>
		
			<ellipse transform="matrix(0.1434 -0.9897 0.9897 0.1434 2.3467 30.5926)" fill="#FFE28A" cx="18.846" cy="13.941" rx="1.463" ry="1.072"/>
		
			<ellipse transform="matrix(0.1434 -0.9897 0.9897 0.1434 2.3467 30.5926)" fill="#2B3332" cx="18.846" cy="13.941" rx="0.867" ry="0.636"/>
		<circle fill="#3E688C" cx="29.25" cy="26" r="1.75"/>
		<path fill="#DADDDC" d="M28.265,25.708c0.438,0,0.694,0.376,0.623,0.831C28.813,27.017,28.462,28,28,28
			S27.526,25.708,28.265,25.708z"/>
		<path fill="#DADDDC" d="M29.972,26.1c0.462,0,0.488,0.565,0.438,1.015c-0.057,0.51-0.472,1.385-0.911,1.385
			S29.026,26.1,29.972,26.1z"/>
	</g>
</g>
</svg>
