<?xml version="1.0" encoding="utf-8"?>
<!-- Generator: Adobe Illustrator 23.0.6, SVG Export Plug-In . SVG Version: 6.00 Build 0)  -->
<svg version="1.1" xmlns="http://www.w3.org/2000/svg" xmlns:xlink="http://www.w3.org/1999/xlink" x="0px" y="0px" width="32px"
	 height="32px" viewBox="0 0 32 32" enable-background="new 0 0 32 32" xml:space="preserve">
<g id="labels">
	<g>
	</g>
</g>
<g id="icons">
	<g>
		<g>
			<path fill="#3B8FA3" d="M16.563,14.679c0.596-0.325,4.146-1.618,5.701-1.877c3-0.5,5.342-2.066,5.868-2.092
				c0.553-0.028,1.263,0.25,1.895,0.368c0.725,0.136,1.347,0.132,1.5,0.316c0.263,0.316,0.03,0.889,0.105,1.368
				c0.079,0.5,0.368,0.895,0.368,1.263c0,0.316-0.447,0.395-0.763,0.789c-0.353,0.441-0.289,0.974-0.526,1
				c-0.157,0.017-1.526-1.816-1.868-1.816c-0.581,0-4.342,0.539-6.526,1.092s-4.684,1.579-5.026,1.789
				C16.948,17.091,16.563,14.679,16.563,14.679z"/>
			<path fill="#DADDDC" d="M30.026,11.079c0.725,0.136,1.347,0.132,1.5,0.316c0.263,0.316,0.03,0.889,0.105,1.368
				c0.079,0.5,0.368,0.895,0.368,1.263c0,0.316-0.447,0.395-0.763,0.789c-0.353,0.441-0.289,0.974-0.526,1
				c-0.157,0.017-1.526-1.816-1.868-1.816c-0.264,0-1.183,0.112-2.311,0.284l1.574-1.362L25.802,12.7
				c-0.113-0.012-0.155-0.155-0.066-0.226l2.166-1.7c0.091-0.032,0.176-0.06,0.23-0.063C28.685,10.683,29.395,10.96,30.026,11.079z"
				/>
			<path fill="#D1D4D4" d="M31.526,11.394c0.263,0.316,0.03,0.889,0.105,1.368c0.079,0.5,0.368,0.895,0.368,1.263
				c0,0.316-0.447,0.395-0.763,0.789c-0.353,0.441-0.289,0.974-0.526,1c-0.148,0.016-1.369-1.601-1.793-1.781l2.458-2.722
				C31.437,11.336,31.497,11.359,31.526,11.394z"/>
		</g>
		<g>
			<g>
				<path fill="#47A1B4" d="M15.437,14.679c-0.596-0.325-4.146-1.618-5.701-1.877c-3-0.5-5.342-2.066-5.868-2.092
					c-0.553-0.028-1.263,0.25-1.895,0.368c-0.725,0.136-1.347,0.132-1.5,0.316c-0.263,0.316-0.03,0.889-0.105,1.368
					C0.289,13.263,0,13.657,0,14.026c0,0.316,0.447,0.395,0.763,0.789c0.353,0.441,0.289,0.974,0.526,1
					c0.157,0.017,1.526-1.816,1.868-1.816c0.581,0,4.342,0.539,6.526,1.092s4.684,1.579,5.026,1.789
					C15.052,17.091,15.437,14.679,15.437,14.679z"/>
				<path fill="#47A1B4" d="M1.974,11.079c-0.725,0.136-1.347,0.132-1.5,0.316c-0.263,0.316-0.03,0.889-0.105,1.368
					C0.289,13.263,0,13.657,0,14.026c0,0.316,0.447,0.395,0.763,0.789c0.353,0.441,0.289,0.974,0.526,1
					c0.157,0.017,1.526-1.816,1.868-1.816c0.264,0,1.183,0.112,2.311,0.284l-1.574-1.362L6.198,12.7
					c0.113-0.012,0.155-0.155,0.066-0.226l-2.166-1.7c-0.091-0.032-0.176-0.06-0.23-0.063C3.315,10.683,2.605,10.96,1.974,11.079z"
					/>
				<path fill="#47A1B4" d="M0.624,11.312l2.458,2.722c-0.423,0.18-1.644,1.798-1.793,1.781c-0.237-0.026-0.173-0.559-0.526-1
					C0.447,14.42,0,14.342,0,14.026c0-0.368,0.289-0.763,0.368-1.263c0.076-0.479-0.158-1.053,0.105-1.368
					C0.503,11.359,0.563,11.336,0.624,11.312z"/>
			</g>
			<g>
				<path fill="#4295AC" d="M15.437,14.679c-0.596-0.325-4.146-1.618-5.701-1.877c-3-0.5-5.342-2.066-5.868-2.092
					c-0.553-0.028-1.263,0.25-1.895,0.368c-0.725,0.136-1.347,0.132-1.5,0.316c-0.263,0.316-0.03,0.889-0.105,1.368
					C0.289,13.263,0,13.657,0,14.026c0,0.316,0.447,0.395,0.763,0.789c0.353,0.441,0.289,0.974,0.526,1
					c0.157,0.017,1.526-1.816,1.868-1.816c0.581,0,4.342,0.539,6.526,1.092s4.684,1.579,5.026,1.789
					C15.052,17.091,15.437,14.679,15.437,14.679z"/>
				<path fill="#E3E5E5" d="M1.974,11.079c-0.725,0.136-1.347,0.132-1.5,0.316c-0.263,0.316-0.03,0.889-0.105,1.368
					C0.289,13.263,0,13.657,0,14.026c0,0.316,0.447,0.395,0.763,0.789c0.353,0.441,0.289,0.974,0.526,1
					c0.157,0.017,1.526-1.816,1.868-1.816c0.264,0,1.183,0.112,2.311,0.284l-1.574-1.362L6.198,12.7
					c0.113-0.012,0.155-0.155,0.066-0.226l-2.166-1.7c-0.091-0.032-0.176-0.06-0.23-0.063C3.315,10.683,2.605,10.96,1.974,11.079z"
					/>
				<path fill="#DADDDC" d="M0.624,11.312l2.458,2.722c-0.423,0.18-1.644,1.798-1.793,1.781c-0.237-0.026-0.173-0.559-0.526-1
					C0.447,14.42,0,14.342,0,14.026c0-0.368,0.289-0.763,0.368-1.263c0.076-0.479-0.158-1.053,0.105-1.368
					C0.503,11.359,0.563,11.336,0.624,11.312z"/>
			</g>
		</g>
		<g>
			<path fill="#4295AC" d="M15.25,24.039h-3c0,0,0.042,4.618,0.5,5.972c-1.188,0.146-1.833-0.521-2.75-0.521
				c-1.042,0-1.583,2.5-0.042,2.5c1.792,0,5.542,0.125,5.542-0.542c0-0.917-0.5-2.188-0.5-3.958
				C15,25.681,15.25,24.039,15.25,24.039z"/>
			<path fill="#DADDDC" d="M9.618,29.741c-0.311-0.064-1.857-0.101-2.92,1.122c-0.059,0.068-0.025,0.179,0.062,0.201
				c1.199,0.314,2.843,0.226,3.358-0.032C10.326,30.928,10.43,29.907,9.618,29.741z"/>
			<path fill="#E3E5E5" d="M10.074,30.782c-0.323-0.066-1.104-0.083-1.988,0.208c-0.328,0.108-0.777,0.463-0.948,0.797
				c-0.043,0.084,0.012,0.184,0.107,0.185c1.215,0.02,2.832,0.038,3.33,0.018C10.678,31.845,10.886,30.949,10.074,30.782z"/>
		</g>
		<g>
			<path fill="#3B8FA3" d="M16.76,24.039h3c0,0-0.042,4.618-0.5,5.972c1.188,0.146,1.833-0.521,2.75-0.521
				c1.042,0,1.583,2.5,0.042,2.5c-1.792,0-5.542,0.125-5.542-0.542c0-0.917,0.5-2.188,0.5-3.958
				C17.01,25.681,16.76,24.039,16.76,24.039z"/>
			<path fill="#D1D4D4" d="M22.393,29.741c0.311-0.064,1.857-0.101,2.92,1.122c0.059,0.068,0.025,0.179-0.062,0.201
				c-1.199,0.314-2.843,0.226-3.358-0.032C21.684,30.928,21.58,29.907,22.393,29.741z"/>
			<path fill="#DADDDC" d="M21.937,30.782c0.323-0.066,1.104-0.083,1.988,0.208c0.328,0.108,0.777,0.463,0.948,0.797
				c0.043,0.084-0.012,0.184-0.107,0.185c-1.215,0.02-2.832,0.038-3.33,0.018C21.332,31.845,21.124,30.949,21.937,30.782z"/>
		</g>
		<path fill="#E7685F" d="M23.083,19.833c1.736-0.2,4.752,0.56,5.891,0.802c0.143,0.03,0.16,0.224,0.025,0.282
			c-1.017,0.432-3.269,1.282-4.917,1.708c-2.083,0.538-3.925-0.708-5.047-1.313C19.036,21.312,20.915,20.084,23.083,19.833z
			 M18.368,22.684c0.761,1.023,1.904,2.931,4.019,3.323c1.674,0.311,4.073,0.491,5.178,0.53c0.147,0.005,0.213-0.178,0.096-0.266
			c-0.931-0.7-3.343-2.664-5.001-3.216C20.59,22.364,18.368,22.684,18.368,22.684z M17.48,20.184
			c1.273,0.075,3.469,0.425,5.129-0.943c1.314-1.083,2.995-2.805,3.734-3.626c0.098-0.109,0.001-0.278-0.142-0.245
			c-1.135,0.263-4.19,0.848-5.678,1.763C18.663,18.277,17.48,20.184,17.48,20.184z"/>
		<path fill="#47A1B4" d="M13.667,13.292c-0.708,1-2.333,3.417-2.667,7.708s3.458,4.5,5,4.5V13.292
			C16,13.292,13.718,13.22,13.667,13.292z"/>
		<path fill="#47A1B4" d="M10.577,7.521c-0.415-1.499-0.447-3.941-0.442-4.904c0.001-0.199,0.198-0.331,0.382-0.255
			c0.991,0.408,3.623,1.522,4.047,1.993c0.502,0.559-2.537,3.609-3.792,3.364C10.674,7.7,10.604,7.617,10.577,7.521z"/>
		<path fill="#4CAEBC" d="M10.5,7.929c-0.373,2.014-0.52,3.818,0.879,5.217c0.889,0.889,3.466,1.644,4.326,1.909
			c0.101,0.031,0.203,0.044,0.305,0.043c0,0,0-8.871,0-11.371C13.75,3.727,11,5.227,10.5,7.929z"/>
		<path fill="#4295AC" d="M18.344,13.292c0.708,1,2.333,3.417,2.667,7.708c0.333,4.292-3.469,4.5-5.01,4.5V13.292
			C16,13.292,18.292,13.22,18.344,13.292z"/>
		<path fill="#47A1B4" d="M21.51,7.929c0.373,2.014,0.52,3.818-0.879,5.217c-0.889,0.889-3.466,1.644-4.326,1.909
			c-0.101,0.031-0.203,0.044-0.305,0.043c0,0,0-8.871,0-11.371C18.26,3.727,21.01,5.227,21.51,7.929z"/>
		<g>
			<path fill="#E55D53" d="M18.059,7.035c0-1.375,1.123-3.641,2.941-4.994C22.792,0.708,26.477,0.073,27.736,0
				c0.178-0.01,0.311,0.165,0.248,0.332C27.358,2.008,26.042,3.958,25,5C23.88,6.12,20.684,7.869,18.059,7.035z"/>
			<path fill="#E7685F" d="M18.61,7.169C21.116,7.628,23.957,6.043,25,5c0.91-0.91,2.029-2.513,2.715-4.021
				c-1.533,0.169-4.667,0.802-6.277,2C19.939,4.094,17.937,6.75,18.61,7.169z"/>
		</g>
		<path fill="#47A1B4" d="M16.375,5.848l2.589-0.419c0.101-0.016,0.178,0.089,0.131,0.181L18.5,6.765l1.581-0.463
			c0.069-0.02,0.141,0.022,0.157,0.092l0.429,1.871l-3.417-0.5L16.375,5.848z"/>
		<path fill="#E7685F" d="M16.017,12.5c-0.109,0-0.297,0.25-0.813,0.25c-0.211,0-0.449-0.113-0.583-0.188
			c-0.045-0.025-0.1,0.011-0.093,0.062c0.048,0.344,0.289,1.282,1.488,1.282V12.5z"/>
		<path fill="#E55D53" d="M16,12.5c0.109,0,0.297,0.25,0.812,0.25c0.211,0,0.449-0.113,0.583-0.188
			c0.045-0.025,0.1,0.011,0.093,0.062c-0.048,0.344-0.289,1.282-1.488,1.282V12.5z"/>
		<g>
			<g>
				<g>
					<path fill="#0E616D" d="M10.371,8.231c-0.047-0.066,0.01-0.155,0.089-0.138c0.403,0.087,0.919,0.228,1.325,0.431
						c0.486,0.243-0.286,1.937-0.841,2.105c-0.451-0.109-1.196-0.392-1.599-0.551c-0.082-0.032-0.07-0.152,0.017-0.168l1.074-0.208
						L9.663,8.944c-0.061-0.06-0.01-0.163,0.075-0.15l1.163,0.179L10.371,8.231z"/>
					<path fill="#FFFFFF" d="M14.018,11.292c0.21,0.021,0.353-0.205,0.239-0.383c-0.576-0.897-1.741-2.111-2.648-2.464
						c-1.06-0.412-1.783,1.68-1.236,2.002C10.986,10.807,12.79,11.168,14.018,11.292z"/>
				</g>
				<path fill="#D1473D" d="M13.27,11.196c-0.517-0.077-1.064-0.178-1.556-0.296c-0.136-0.204-0.232-0.442-0.232-0.713
					c0-0.631,0.439-1.13,1-1.213c0.459,0.357,0.914,0.821,1.287,1.278C13.75,10.65,13.555,10.983,13.27,11.196z"/>
			</g>
			<ellipse fill="#373F3F" cx="12.605" cy="10.242" rx="0.329" ry="0.657"/>
		</g>
		<g>
			<g>
				<g>
					<path fill="#005865" d="M21.629,8.231c0.047-0.066-0.01-0.155-0.089-0.138c-0.403,0.087-0.919,0.228-1.325,0.431
						c-0.486,0.243,0.286,1.937,0.841,2.105c0.451-0.109,1.196-0.392,1.599-0.551c0.082-0.032,0.07-0.152-0.017-0.168l-1.074-0.208
						l0.775-0.757c0.061-0.06,0.01-0.163-0.075-0.15l-1.163,0.179L21.629,8.231z"/>
					<path fill="#F7F7F7" d="M17.982,11.292c-0.21,0.021-0.353-0.205-0.239-0.383c0.576-0.897,1.741-2.111,2.648-2.464
						c1.06-0.412,1.783,1.68,1.236,2.002C21.014,10.807,19.21,11.168,17.982,11.292z"/>
				</g>
				<path fill="#CF3C35" d="M18.23,10.252c0.374-0.457,0.828-0.921,1.287-1.278c0.561,0.083,1,0.583,1,1.213
					c0,0.271-0.097,0.508-0.232,0.713c-0.492,0.118-1.039,0.219-1.556,0.296C18.445,10.983,18.25,10.65,18.23,10.252z"/>
			</g>
			<ellipse fill="#2B3332" cx="19.395" cy="10.242" rx="0.329" ry="0.657"/>
		</g>
		<g>
			<path fill="#FFD96C" d="M16,6.958v3.125c-0.535,0-0.969-0.7-0.969-1.562C15.031,7.658,15.465,6.958,16,6.958z"/>
			<path fill="#FFD04D" d="M16,6.958v3.125c0.535,0,0.969-0.7,0.969-1.562C16.969,7.658,16.535,6.958,16,6.958z"/>
		</g>
		<g>
			<path fill="#FFD96C" d="M15.25,17.729c0,0.69,0.336,1.25,0.75,1.25v-2.5C15.586,16.479,15.25,17.039,15.25,17.729z"/>
			<path fill="#FFD04D" d="M16.75,17.729c0,0.69-0.336,1.25-0.75,1.25v-2.5C16.414,16.479,16.75,17.039,16.75,17.729z"/>
		</g>
	</g>
</g>
</svg>
