<?xml version="1.0" encoding="utf-8"?>
<!-- Generator: Adobe Illustrator 23.0.6, SVG Export Plug-In . SVG Version: 6.00 Build 0)  -->
<svg version="1.1" xmlns="http://www.w3.org/2000/svg" xmlns:xlink="http://www.w3.org/1999/xlink" x="0px" y="0px" width="32px"
	 height="32px" viewBox="0 0 32 32" enable-background="new 0 0 32 32" xml:space="preserve">
<g id="labels">
	<g>
	</g>
</g>
<g id="icons">
	<g>
		<path fill="#EF8C48" d="M24,11.835c0,3.774-3.72,6.833-8,6.833V4.001C20.833,3.918,24,8.061,24,11.835z"/>
		<path fill="#F79654" d="M16,4.001v14.667c-4.28,0-8-3.059-8-6.833C8,8.061,11.167,3.918,16,4.001z"/>
		<path fill="#C8CCCB" d="M23.808,30.425l-1.289-0.411c-0.182-0.089-0.412,0.017-0.414,0.191L22.096,31
			c-0.001,0.065,0.037,0.116,0.087,0.157l-0.157,0.536c-0.049,0.167,0.14,0.335,0.341,0.303l1.352-0.018
			c0.2-0.032,0.261-0.24,0.11-0.375l-0.833-0.549l0.807-0.239C23.987,30.731,23.99,30.514,23.808,30.425z"/>
		
			<ellipse transform="matrix(0.3827 -0.9239 0.9239 0.3827 -15.0736 37.9279)" fill="#DD7731" cx="20.845" cy="30.244" rx="1.561" ry="2.618"/>
		<path fill="#E8803A" d="M18.883,17.109c0.847,0.226,4.81,2.876,6.448,4.817c1.203,1.425-0.376,2.559-1.709,2.549
			c-3.207-0.025-6.997-6.764-6.997-6.764L18.883,17.109z"/>
		<path fill="#EF8C48" d="M16,16.582c3.707,0,6.711,5.242,6.711,8.948S19.707,30.005,16,30.005V16.582z"/>
		<path fill="#C8CCCB" d="M24.556,25.048l-0.622-0.494c-0.107-0.059-0.109-0.211-0.005-0.274l0.478-0.287
			c0.104-0.063,0.238,0.011,0.24,0.133l0.145,0.782C24.793,25.029,24.662,25.107,24.556,25.048z M26.505,22.671l-0.743-0.283
			c-0.105-0.061-0.237,0.014-0.238,0.136l-0.003,0.557c-0.001,0.122,0.131,0.199,0.237,0.138l0.746-0.275
			C26.609,22.885,26.61,22.733,26.505,22.671z M25.991,24.246l-0.329-0.723c-0.032-0.118-0.179-0.157-0.265-0.071l-0.394,0.394
			c-0.086,0.086-0.047,0.233,0.071,0.265l0.723,0.329C25.915,24.471,26.023,24.363,25.991,24.246z"/>
		<ellipse fill="#EF8C48" cx="23.417" cy="4.083" rx="3.917" ry="4.083"/>
		<ellipse fill="#2B3332" cx="23.445" cy="5.292" rx="1.972" ry="2.083"/>
		<path fill="#E8803A" d="M22.711,25.531c0,3.707-3.005,4.474-6.711,4.474V27.78C16,27.78,20.494,27.998,22.711,25.531z"/>
		<path fill="#D1D4D4" d="M9.821,31.157c0.05-0.04,0.087-0.092,0.087-0.157l-0.008-0.794c-0.002-0.174-0.232-0.28-0.414-0.191
			l-1.289,0.411c-0.182,0.089-0.18,0.306,0.004,0.39l0.807,0.239l-0.833,0.549c-0.151,0.135-0.09,0.343,0.11,0.375l1.352,0.018
			c0.2,0.032,0.389-0.137,0.341-0.303L9.821,31.157z"/>
		
			<ellipse transform="matrix(0.9239 -0.3827 0.3827 0.9239 -10.7242 6.5727)" fill="#E8803A" cx="11.159" cy="30.244" rx="2.618" ry="1.561"/>
		<path fill="#EF8C48" d="M13.117,17.109c-0.847,0.226-4.81,2.876-6.448,4.817c-1.203,1.425,0.376,2.559,1.709,2.549
			c3.207-0.025,6.997-6.764,6.997-6.764L13.117,17.109z"/>
		<path fill="#F79654" d="M16,16.582c-3.707,0-6.711,5.242-6.711,8.948s3.005,4.474,6.711,4.474V16.582z"/>
		<path fill="#FFD96C" d="M16,11.792c-5.5,0-6.985,3.791-5.404,5.038c1.444,1.14,3.36,1.838,5.404,1.838s3.96-0.698,5.404-1.838
			C22.985,15.583,21.5,11.792,16,11.792z"/>
		<path fill="#D1D4D4" d="M7.209,24.907l0.145-0.782c0.002-0.122,0.135-0.196,0.24-0.133l0.478,0.287
			c0.104,0.063,0.102,0.215-0.005,0.274l-0.622,0.494C7.338,25.107,7.207,25.029,7.209,24.907z M5.497,22.945l0.746,0.275
			c0.106,0.06,0.237-0.016,0.237-0.138l-0.003-0.557c-0.001-0.122-0.133-0.197-0.238-0.136l-0.743,0.283
			C5.39,22.733,5.391,22.885,5.497,22.945z M6.203,24.44l0.723-0.329c0.118-0.032,0.157-0.179,0.071-0.265l-0.394-0.394
			c-0.086-0.086-0.233-0.047-0.265,0.071l-0.329,0.723C5.977,24.363,6.085,24.471,6.203,24.44z"/>
		<path fill="#FFE28A" d="M16,11.792v6.876c-2.044,0-3.96-0.698-5.404-1.838C9.015,15.583,10.5,11.792,16,11.792z"/>
		<path fill="#FFF5D8" d="M16,11.221c-0.679-0.485-1.11-1.297-1.059-2.206c0.044-0.779,0.46-1.458,1.059-1.892V5.234
			c-0.075,0.001-0.148-0.005-0.224,0.001c-1.871,0.132-3.419,1.612-3.626,3.475c-0.262,2.355,1.557,4.346,3.85,4.382V11.221z"/>
		<path fill="#FEF1C6" d="M19.874,10.134c-0.432,1.704-1.973,2.965-3.811,2.965c-0.021,0-0.041-0.006-0.062-0.007v-1.87
			c0.414,0.296,0.92,0.471,1.468,0.471c1.062,0,1.946-0.655,2.332-1.583C19.819,10.065,19.885,10.087,19.874,10.134z M19.066,7.2
			c0.195,0.16,0.416,0.001,0.277-0.21C18.629,5.911,17.396,5.213,16,5.234v1.889c0.433-0.314,0.959-0.504,1.522-0.492
			C18.111,6.643,18.645,6.853,19.066,7.2z"/>
		<ellipse fill="#373F3F" cx="12.333" cy="11.417" rx="1.25" ry="1.458"/>
		<ellipse fill="#FFFFFF" cx="12.333" cy="10.9" rx="0.679" ry="0.792"/>
		<path fill="#373F3F" d="M16,12.625v1.042c-0.736,0-1.333-0.233-1.333-0.521S15.264,12.625,16,12.625z"/>
		<ellipse fill="#F79654" cx="8.708" cy="4.083" rx="3.917" ry="4.083"/>
		<path fill="#373F3F" d="M8.555,7.375c-1.089,0-1.972-0.933-1.972-2.083s0.883-2.083,1.972-2.083s1.972,0.933,1.972,2.083
			S9.644,7.375,8.555,7.375z"/>
		<path fill="#EF8C48" d="M9.289,25.531c0,3.707,3.005,4.474,6.711,4.474V27.78C16,27.78,11.506,27.998,9.289,25.531z"/>
		<ellipse fill="#2B3332" cx="19.667" cy="11.417" rx="1.25" ry="1.458"/>
		<ellipse fill="#F7F7F7" cx="19.667" cy="10.9" rx="0.679" ry="0.792"/>
		<path fill="#2B3332" d="M17.333,13.146c0,0.288-0.597,0.521-1.333,0.521v-1.042C16.736,12.625,17.333,12.858,17.333,13.146z"/>
	</g>
</g>
</svg>
