<?xml version="1.0" encoding="utf-8"?>
<!-- Generator: Adobe Illustrator 23.0.6, SVG Export Plug-In . SVG Version: 6.00 Build 0)  -->
<svg version="1.1" xmlns="http://www.w3.org/2000/svg" xmlns:xlink="http://www.w3.org/1999/xlink" x="0px" y="0px" width="32px"
	 height="32px" viewBox="0 0 32 32" enable-background="new 0 0 32 32" xml:space="preserve">
<g id="labels">
	<g>
	</g>
</g>
<g id="icons">
	<g>
		<path fill="#7D8091" d="M16,0v28c-2.667,0-8.495-0.17-10.917-5.083C2.167,17,2.083,7.333,6.75,3C8.883,1.019,11.5,0.167,16,0z"/>
		<path fill="#8D5B36" d="M16,0v28c-2.667,0-8.495-0.17-10.917-5.083C2.167,17,2.083,7.333,6.75,3C8.883,1.019,11.5,0.167,16,0z"/>
		<path fill="#845331" d="M5.083,22.917c0.355,0.72,0.79,1.328,1.271,1.859c0.481-0.531,0.916-1.139,1.271-1.859
			c2.829-5.738,2.979-14.989-1.271-19.495C2.105,7.928,2.255,17.179,5.083,22.917z"/>
		<path fill="#724D31" d="M3.742,19.181c0.099-0.147,0.193-0.301,0.277-0.471c1.421-2.882,1.543-7.453-0.418-9.898
			C2.79,12.076,2.906,15.853,3.742,19.181z"/>
		<path fill="#845331" d="M16,0v28c2.667,0,8.495-0.17,10.917-5.083C29.833,17,29.917,7.333,25.25,3C23.117,1.019,20.5,0.167,16,0z"
			/>
		<path fill="#724D31" d="M26.917,22.917c-0.355,0.72-0.79,1.328-1.271,1.859c-0.481-0.531-0.916-1.139-1.271-1.859
			c-2.829-5.738-2.979-14.989,1.271-19.495C29.895,7.928,29.745,17.179,26.917,22.917z"/>
		<path fill="#945BA0" d="M10.458,16.625c2.792,2.5,1.521,7.802-1.708,8.094l0.001,0.001C4.684,25.394,1.145,26.662,1,28.625
			C0.875,30.312,3.25,29,5,29c1.661,0,0.75,2,3,2c2.75,0,2.5-1.312,4-1.25S13.562,32,16,32v-4.688c0-0.473,0-1.713,0-3.188
			c0-3.197,0-7.5,0-7.5H10.458z"/>
		<path fill="#8C5699" d="M23.249,24.719L23.249,24.719c-3.228-0.292-4.499-5.594-1.707-8.094H16c0,0,0,4.303,0,7.5
			c0,1.474,0,2.714,0,3.188V32c2.437,0,2.5-2.188,4-2.25S21.25,31,24,31c2.25,0,1.339-2,3-2c1.75,0,4.125,1.312,4-0.375
			C30.855,26.662,27.316,25.394,23.249,24.719z"/>
		<path fill="#B370B9" d="M8.279,25.584c0.137,0.78-0.76,1.59-2.004,1.809c-1.244,0.219-2.364-0.235-2.501-1.015
			s0.76-1.59,2.004-1.809C7.022,24.35,8.142,24.805,8.279,25.584z M11.562,24.935c-0.828,0-1.5,0.421-1.5,0.94
			c0,0.519,0.672,0.94,1.5,0.94c0.828,0,1.5-0.421,1.5-0.94S12.391,24.935,11.562,24.935z M13.5,28.188
			c0,1.036,1.119,1.875,2.5,1.875v-3.75C14.619,26.312,13.5,27.152,13.5,28.188z"/>
		<path fill="#A366AD" d="M26.223,24.569c1.244,0.219,2.141,1.029,2.004,1.809s-1.257,1.234-2.501,1.015
			c-1.244-0.219-2.141-1.029-2.004-1.809C23.858,24.805,24.978,24.35,26.223,24.569z M18.938,25.875c0,0.519,0.672,0.94,1.5,0.94
			s1.5-0.421,1.5-0.94s-0.672-0.94-1.5-0.94S18.938,25.356,18.938,25.875z M16,26.312v3.75c1.381,0,2.5-0.839,2.5-1.875
			S17.381,26.312,16,26.312z"/>
		<path fill="#A366AD" d="M19.207,4.485c1.496,0,2.536,1.925,2.708,4.286c0.208,2.854,1.396,3.053,1.396,4.354
			c0,3.314-3.274,6-7.312,6V6.375C17.311,6.375,17.811,4.485,19.207,4.485z"/>
		<path fill="#945BA0" d="M23.311,13.125c0,3.314-3.274,6-7.312,6v-4C19.248,15.125,19.311,13.125,23.311,13.125z"/>
		<path fill="#B370B9" d="M12.79,4.485c-1.496,0-2.536,1.925-2.708,4.286c-0.208,2.854-1.396,3.053-1.396,4.354
			c0,3.314,3.274,6,7.313,6V6.375C14.686,6.375,14.186,4.485,12.79,4.485z"/>
		<path fill="#A366AD" d="M8.686,13.125c0,3.314,3.274,6,7.313,6v-4C12.748,15.125,12.686,13.125,8.686,13.125z"/>
		<ellipse fill="#FEF1C6" cx="12.79" cy="8.521" rx="1.875" ry="2.967"/>
		<ellipse fill="#373F3F" cx="12.79" cy="8.625" rx="0.316" ry="0.5"/>
		<path fill="#B370B9" d="M10.266,16.019c0-0.379-0.205-3.144,0.467-3.953c-0.204,0-1.079,0-1.079,0s-0.452-0.003-0.656-0.003
			C8.311,13,8.977,14.625,9.043,16.019c-0.602,0.41-1.295,0.982-1.295,1.867c0,1.396,0.885,1.974,1.906,1.974
			c1.021,0,1.906-0.579,1.906-1.974C11.561,17.002,10.868,16.43,10.266,16.019z"/>
		<path fill="#C27BC6" d="M15.998,9.562c-2.688,0-4.688,1.733-4.688,3.562c0,0.205,0.03,0.404,0.075,0.599
			c-0.008,1.08-0.03,3.107-0.03,3.421c-0.602,0.41-1.295,0.982-1.295,1.867c0,1.396,0.885,1.974,1.906,1.974
			c1.021,0,1.906-0.579,1.906-1.974c0-0.885-0.692-1.457-1.295-1.867c0-0.177-0.007-0.899-0.015-1.689
			c0.813,0.606,1.989,0.982,3.435,0.982V9.562z"/>
		<ellipse fill="#FFEAA7" cx="19.207" cy="8.521" rx="1.875" ry="2.967"/>
		<ellipse fill="#2B3332" cx="19.207" cy="8.625" rx="0.316" ry="0.5"/>
		<path fill="#A366AD" d="M24.252,17.887c0-0.885-0.692-1.457-1.295-1.867c0.066-1.394,0.732-3.019,0.045-3.957
			c-0.204,0-0.656,0.003-0.656,0.003c-0.002,0-0.874,0-1.078,0c0.672,0.809,0.467,3.574,0.467,3.953
			c-0.602,0.41-1.295,0.982-1.295,1.867c0,1.396,0.885,1.974,1.906,1.974l0,0h0h0l0,0C23.367,19.861,24.252,19.282,24.252,17.887z"
			/>
		<path fill="#B370B9" d="M20.641,17.144c0-0.313-0.022-2.341-0.03-3.421c0.044-0.195,0.075-0.394,0.075-0.599
			c0-1.829-2-3.562-4.688-3.562v6.875c1.446,0,2.621-0.376,3.434-0.982c-0.008,0.789-0.015,1.512-0.015,1.688
			c-0.602,0.41-1.295,0.982-1.295,1.867c0,1.396,0.885,1.974,1.906,1.974c1.021,0,1.906-0.579,1.906-1.974
			C21.936,18.127,21.243,17.555,20.641,17.144z"/>
		<path fill="#604631" d="M28.271,19.165c-0.099-0.147-0.159-0.285-0.242-0.455c-1.421-2.882-1.583-7.468,0.378-9.913
			C29.217,12.061,29.106,15.837,28.271,19.165z"/>
	</g>
</g>
</svg>
