<?xml version="1.0" encoding="utf-8"?>
<!-- Generator: Adobe Illustrator 23.0.6, SVG Export Plug-In . SVG Version: 6.00 Build 0)  -->
<svg version="1.1" xmlns="http://www.w3.org/2000/svg" xmlns:xlink="http://www.w3.org/1999/xlink" x="0px" y="0px" width="32px"
	 height="32px" viewBox="0 0 32 32" enable-background="new 0 0 32 32" xml:space="preserve">
<g id="labels">
	<g>
	</g>
</g>
<g id="icons">
	<g>
		<path fill="#505957" d="M21,22.406c11.375-0.688,8.875-8.625,6.187-13.125c7.656,7.656,2.708,14.625-5.25,14.625L21,22.406z"/>
		<path fill="#5C6664" d="M22.311,27.766c0.159-0.357,0.334-0.762,0.541-1.235c1.805-4.124-3.084-7.182-3.084-11.604H16h-3.768
			c0,4.422-4.888,7.481-3.084,11.604c0.207,0.473,0.382,0.878,0.541,1.235C9.019,27.963,8,28.575,8,29.308
			C8,30.2,9.25,30.5,10.142,30.5c0.655,0,1.466,0.032,1.72-0.529c0.674,0.088,2.427-0.059,4.138-0.164
			c1.711,0.105,3.464,0.252,4.138,0.164c0.253,0.56,1.064,0.529,1.72,0.529C22.75,30.5,24,30.2,24,29.308
			C24,28.575,22.981,27.963,22.311,27.766z"/>
		<path fill="#687271" d="M12.232,14.927c0,4.422-4.888,7.481-3.084,11.604c0.207,0.473,0.382,0.878,0.541,1.235
			C9.019,27.963,8,28.575,8,29.308C8,30.2,9.25,30.5,10.142,30.5c0.655,0,1.466,0.032,1.72-0.529
			c0.674,0.088,2.427-0.059,4.138-0.164V14.927H12.232z"/>
		<g>
			<path fill="#DADDDC" d="M12.373,26.698l-0.027-1.121c0,0-1.13,0.292-1.891,0.282c-0.664-0.008-1.379-0.145-1.648-0.25
				c-0.108-0.042-0.222,0.042-0.205,0.157l0.401,0.91c0.365,0.152,0.853,0.291,1.489,0.311
				C11.132,27.008,11.895,26.831,12.373,26.698z"/>
			<path fill="#D1D4D4" d="M10.493,26.988c-0.636-0.02-1.124-0.16-1.489-0.311l0.388,0.88c0.007,0.046,0.029,0.084,0.07,0.107
				c0.181,0.102,0.508,0.265,1.331,0.269c0.823,0.004,1.607-0.181,1.607-0.181l-0.026-1.053
				C11.895,26.831,11.132,27.008,10.493,26.988z"/>
		</g>
		<g>
			<path fill="#D1D4D4" d="M19.627,26.698l0.027-1.121c0,0,1.13,0.292,1.891,0.282c0.664-0.008,1.379-0.145,1.648-0.25
				c0.108-0.042,0.222,0.042,0.205,0.157l-0.401,0.91c-0.365,0.152-0.853,0.291-1.489,0.311
				C20.868,27.008,20.105,26.831,19.627,26.698z"/>
			<path fill="#C8CCCB" d="M21.507,26.988c0.636-0.02,1.124-0.16,1.489-0.311l-0.388,0.88c-0.007,0.046-0.029,0.084-0.07,0.107
				c-0.181,0.102-0.508,0.265-1.331,0.269c-0.823,0.004-1.607-0.181-1.607-0.181l0.026-1.053
				C20.105,26.831,20.868,27.008,21.507,26.988z"/>
		</g>
		<path fill="#EF8C48" d="M16,14.927h-3.768c0,4.422,0.574,15.074,1.31,15.035c0.736-0.039,1.208-1.67,2.458-1.67
			s1.722,1.631,2.458,1.67c0.736,0.039,1.31-10.613,1.31-15.035H16z"/>
		<path fill="#687271" d="M19.708,29.396c0.133-1.631,0.646-7.372,1.013-11.662c0.223-2.6-2.568-5.922-2.568-5.922L16,12.62
			l-2.153-0.807c0,0-2.791,3.321-2.568,5.922c0.368,4.29,0.88,10.031,1.013,11.662c-0.553,0.222-1.354,1.142-1.354,1.604
			c0,0.701,1.28,1,2.332,1c1.052,0,2.251-0.299,2.251-1c0-0.232-0.447-0.966-0.61-1.153c0,0,0.342-10.093,1.09-10.093
			s1.09,10.093,1.09,10.093c-0.163,0.187-0.61,0.921-0.61,1.153c0,0.701,1.2,1,2.251,1c1.052,0,2.332-0.299,2.332-1
			C21.062,30.538,20.261,29.618,19.708,29.396z"/>
		<path fill="#F79654" d="M12.232,14.927c0,4.422,0.574,15.074,1.31,15.035c0.736-0.039,1.208-1.67,2.458-1.67V14.927H12.232z"/>
		<path fill="#757F7E" d="M14.91,29.847c0,0,0.342-10.093,1.09-10.093V12.62l-2.153-0.807c0,0-2.791,3.321-2.568,5.922
			c0.368,4.29,0.88,10.031,1.013,11.662c-0.553,0.222-1.354,1.142-1.354,1.604c0,0.701,1.28,1,2.332,1c1.052,0,2.251-0.299,2.251-1
			C15.521,30.768,15.074,30.034,14.91,29.847z"/>
		<path fill="#757F7E" d="M21.26,6.202C20.76,3.5,18.26,2,16,2s-4.76,1.5-5.26,4.202c-0.373,2.014-0.093,4.292,0.996,5.29
			c0.927,0.85,3.099,1.571,3.959,1.836c0.101,0.031,0.203,0.044,0.305,0.043c0.102,0.001,0.205-0.012,0.305-0.043
			c0.86-0.265,3.032-0.986,3.959-1.836C21.353,10.494,21.633,8.216,21.26,6.202z"/>
		<path fill="#838C8A" d="M10.74,6.202c-0.373,2.014-0.093,4.292,0.996,5.29c0.927,0.85,3.099,1.571,3.959,1.836
			c0.101,0.031,0.203,0.044,0.305,0.043c0,0,0-8.871,0-11.371C13.74,2,11.24,3.5,10.74,6.202z"/>
		<g>
			<path fill="#DADDDC" d="M16.891,28.73l-0.061-0.815c-0.008-0.107,0.089-0.188,0.191-0.155c0.316,0.104,0.935,0.282,1.438,0.282
				c0.664,0,1.125-0.187,1.377-0.328c0.101-0.056,0.226,0.012,0.224,0.128l-0.009,0.794c-0.367,0.155-0.864,0.299-1.512,0.32
				C18,28.974,17.364,28.849,16.891,28.73z"/>
			<path fill="#D1D4D4" d="M18.539,28.956c0.648-0.021,1.145-0.165,1.512-0.32l-0.008,0.729c-0.001,0.047-0.017,0.087-0.054,0.115
				c-0.165,0.125-0.706,0.481-1.53,0.481c-0.79,0-1.267-0.21-1.433-0.298c-0.046-0.024-0.068-0.067-0.072-0.119l-0.061-0.815
				C17.364,28.849,18,28.974,18.539,28.956z"/>
		</g>
		<g>
			<path fill="#E3E5E5" d="M15.109,28.73l0.061-0.815c0.008-0.107-0.089-0.188-0.191-0.155c-0.316,0.104-0.935,0.282-1.438,0.282
				c-0.664,0-1.125-0.187-1.377-0.328c-0.101-0.056-0.226,0.012-0.224,0.128l0.009,0.794c0.367,0.155,0.864,0.299,1.512,0.32
				C14,28.974,14.636,28.849,15.109,28.73z"/>
			<path fill="#DADDDC" d="M13.461,28.956c-0.648-0.021-1.145-0.165-1.512-0.32l0.008,0.729c0.001,0.047,0.017,0.087,0.054,0.115
				c0.165,0.125,0.706,0.481,1.53,0.481c0.79,0,1.267-0.21,1.433-0.298c0.046-0.024,0.068-0.067,0.072-0.119l0.061-0.815
				C14.636,28.849,14,28.974,13.461,28.956z"/>
		</g>
		<g>
			<path fill="#FFFFFF" d="M12.221,5.81c-0.028,0.003-0.047,0.02-0.06,0.045c-0.229,0.441-0.283,1.222-0.242,1.645
				c0.057,0.581,0.43,0.766,1.014,0.772c0.678,0.007,1.91-0.032,1.91-0.401C14.843,6.954,12.734,5.76,12.221,5.81z"/>
			<path fill="#7D3119" d="M12.933,8.272c-0.028,0-0.048-0.008-0.075-0.009c-0.141-0.27-0.233-0.593-0.233-0.957
				c0-0.494,0.143-0.94,0.382-1.247c0.792,0.365,1.836,1.17,1.836,1.812C14.843,8.24,13.612,8.279,12.933,8.272z"/>
			<ellipse fill="#FFFFFF" cx="13.591" cy="7.438" rx="0.375" ry="0.5"/>
		</g>
		<g>
			<path fill="#FFFFFF" d="M19.78,5.81c0.028,0.003,0.047,0.02,0.06,0.045c0.229,0.441,0.283,1.222,0.242,1.645
				c-0.057,0.581-0.43,0.766-1.014,0.772c-0.678,0.007-1.91-0.032-1.91-0.401C17.158,6.954,19.267,5.76,19.78,5.81z"/>
			<path fill="#7D3119" d="M17.158,7.871c0-0.643,1.043-1.448,1.836-1.812c0.239,0.308,0.382,0.754,0.382,1.247
				c0,0.364-0.091,0.687-0.233,0.957c-0.027,0.001-0.047,0.008-0.075,0.009C18.389,8.279,17.158,8.24,17.158,7.871z"/>
			<ellipse fill="#FFFFFF" cx="18.41" cy="7.438" rx="0.375" ry="0.5"/>
		</g>
		<path fill="#F79654" d="M17.5,7.75c0-0.333-0.042-3.023-1.5-3.023s-1.5,2.69-1.5,3.023c0,1.633-3.042,1.042-3.563,2.45
			c0.188,0.527,0.452,0.975,0.799,1.292c0.927,0.85,3.099,1.571,3.959,1.836c0.101,0.031,0.203,0.044,0.305,0.043
			c0.102,0.001,0.205-0.012,0.305-0.043c0.86-0.265,3.032-0.986,3.959-1.836c0.347-0.318,0.611-0.765,0.799-1.292
			C20.542,8.792,17.5,9.383,17.5,7.75z"/>
		<path fill="#FCA15E" d="M10.937,10.2c0.188,0.527,0.452,0.975,0.799,1.292c0.927,0.85,3.099,1.571,3.959,1.836
			c0.101,0.031,0.203,0.044,0.305,0.043V4.727c-1.458,0-1.5,2.69-1.5,3.023C14.5,9.384,11.458,8.792,10.937,10.2z"/>
		<path fill="#EF8C48" d="M16,10.275c-1.833,0-2.068,1.505-4.914,0.294c0.149,0.345,0.421,0.714,0.65,0.924
			c0.927,0.85,3.099,1.571,3.959,1.836c0.101,0.031,0.203,0.044,0.305,0.043c0.102,0.001,0.205-0.012,0.305-0.043
			c0.86-0.265,3.032-0.986,3.959-1.836c0.229-0.21,0.501-0.579,0.65-0.924C18.068,11.779,17.833,10.275,16,10.275z"/>
		<path fill="#F79654" d="M11.086,10.569c0.149,0.345,0.421,0.714,0.65,0.924c0.927,0.85,3.099,1.571,3.959,1.836
			c0.101,0.031,0.203,0.044,0.305,0.043v-3.097C14.167,10.275,13.932,11.779,11.086,10.569z"/>
		<path fill="#373F3F" d="M16,8.523c-0.417,0-0.885,0.214-0.885,0.513c0,0.28,0.652,0.559,0.885,0.559V8.523z"/>
		<path fill="#E3E5E5" d="M14.75,2.625C14.146,1.856,12.875,0,10,0C7.331,0,6.35,3.088,7.556,4.231c0.088,0.084,0.236,0,0.208-0.118
			C7.446,2.751,8.628,1.792,9.667,1.792c1.381,0,2.528,2.044,2.75,2.333C12.833,4.667,15.208,3.208,14.75,2.625z"/>
		<path fill="#E3E5E5" d="M14.766,14.696c0.151-0.016,0.172-0.227,0.035-0.293c-0.894-0.431-1.505-0.873-1.838-1.384
			c-0.225,0.34-0.474,0.732-0.704,1.161C12.968,14.596,13.84,14.795,14.766,14.696z"/>
		<path fill="#E3E5E5" d="M16,13.812v1.875c-0.219,0-0.734-0.42-0.734-0.938S15.594,13.812,16,13.812z"/>
		<path fill="#F79654" d="M17.781,17.594c-0.086-0.588-1.365-1.5-1.781-1.5s-1.695,0.912-1.781,1.5
			c-0.156,1.062,1.031,0.188,1.396,3.128c0.114-0.599,0.242-0.969,0.385-0.969s0.272,0.37,0.385,0.969
			C16.75,17.781,17.937,18.656,17.781,17.594z"/>
		<path fill="#2B3332" d="M16,8.523c0.417,0,0.885,0.214,0.885,0.513c0,0.28-0.652,0.559-0.885,0.559V8.523z"/>
		<path fill="#DADDDC" d="M17.25,2.625C17.854,1.856,19.125,0,22,0c2.669,0,3.65,3.088,2.444,4.231
			c-0.088,0.084-0.236,0-0.208-0.118c0.318-1.361-0.863-2.321-1.902-2.321c-1.381,0-2.528,2.044-2.75,2.333
			C19.167,4.667,16.792,3.208,17.25,2.625z"/>
		<path fill="#DADDDC" d="M17.234,14.696c-0.151-0.016-0.172-0.227-0.035-0.293c0.894-0.431,1.505-0.873,1.838-1.384
			c0.225,0.34,0.47,0.732,0.701,1.161C19.028,14.596,18.16,14.795,17.234,14.696z"/>
		<path fill="#DADDDC" d="M16.734,14.75c0,0.518-0.516,0.938-0.734,0.938v-1.875C16.406,13.812,16.734,14.232,16.734,14.75z"/>
		<path fill="#505957" d="M24.951,6.954c-0.124-0.063-0.26,0.063-0.207,0.191l2.283,5.563c0.014,0.034,0.063,0.031,0.073-0.005
			l0.679-2.556l2.687-0.338c0.038-0.005,0.046-0.055,0.012-0.073L24.951,6.954z"/>
		<path fill="#FFFFFF" d="M13.706,10.953l-0.362,0.825c-0.054,0.118-0.222,0.116-0.274-0.003l-0.321-0.741
			C13.127,11.075,13.432,11.02,13.706,10.953z"/>
		<path fill="#FCA15E" d="M15.614,20.722c0.114-0.599,0.242-0.969,0.386-0.969v-3.659c-0.417,0-1.695,0.912-1.781,1.5
			C14.062,18.656,15.25,17.781,15.614,20.722z"/>
		<path fill="#FFFFFF" d="M18.294,10.953l0.362,0.825c0.054,0.118,0.222,0.116,0.274-0.003l0.321-0.741
			C18.873,11.075,18.568,11.02,18.294,10.953z"/>
	</g>
</g>
</svg>
