<?xml version="1.0" encoding="utf-8"?>
<!-- Generator: Adobe Illustrator 23.0.6, SVG Export Plug-In . SVG Version: 6.00 Build 0)  -->
<svg version="1.1" xmlns="http://www.w3.org/2000/svg" xmlns:xlink="http://www.w3.org/1999/xlink" x="0px" y="0px" width="32px"
	 height="32px" viewBox="0 0 32 32" enable-background="new 0 0 32 32" xml:space="preserve">
<g id="labels">
	<g>
	</g>
</g>
<g id="icons">
	<g>
		<path fill="#909997" d="M20.375,28.75h3.501c0.25,0,0.462-0.185,0.495-0.433l0.691-8.755h-4.688V28.75z"/>
		<path fill="#EDEEEE" d="M23.158,28.75c0.234-0.299,0.317-0.979-0.602-1.384c-1.271-0.561-1.505,1.085-1.305,1.384
			C22.02,28.75,23.158,28.75,23.158,28.75z"/>
		<path fill="#EDEEEE" d="M23.928,27.707c-0.313,0.73-0.119,1.043-0.119,1.043s0.834,0,1.572,0
			C25.113,28.214,24.532,27.722,23.928,27.707z"/>
		<path fill="#9DA5A4" d="M11.625,28.75H8.124c-0.25,0-0.462-0.185-0.495-0.433l-0.691-8.755h4.688V28.75z"/>
		<path fill="#EDEEEE" d="M8.842,28.75c-0.234-0.299-0.317-0.979,0.602-1.384c1.271-0.561,1.505,1.085,1.305,1.384
			C9.98,28.75,8.842,28.75,8.842,28.75z"/>
		<path fill="#EDEEEE" d="M8.072,27.707c0.313,0.73,0.119,1.043,0.119,1.043s-0.834,0-1.572,0
			C6.887,28.214,7.468,27.722,8.072,27.707z"/>
		<path fill="#C8CCCB" d="M16,1.25v21.754c-0.411,0-0.413-0.06-0.5,0.621c-0.188,1.469-0.5,6.043-0.5,6.043
			c0.018,0.284-0.237,0.523-0.522,0.528l-3.133,0.052c-0.208,0.003-0.392-0.116-0.47-0.309c-0.821-2.044-2.611-5.876-3.5-8.189
			c-0.433-1.126-2.25-5.875,0.875-11.496C8.25,6.833,12.25,1.25,16,1.25z"/>
		<path fill="#ABB2B1" d="M16,19.333v3.67c-0.411,0-0.442-0.064-0.5,0.621c-0.125,1.469-0.5,6.543-0.5,6.543
			c-0.031,0.301-0.237,0.577-0.522,0.582c0,0-3.019,0-3.603,0c-0.821-2.044-2.611-6.687-3.5-9C7.244,21.409,6.344,18.875,6.5,17.5
			C8.557,18.359,12.25,19.25,16,19.333z"/>
		<path fill="#FFFFFF" d="M10.042,7.65v2.39c0,0.142,0.078,0.273,0.204,0.34l2.782,1.471V9.058L10.042,7.65z"/>
		<path fill="#EDEEEE" d="M7.526,14.604c1.765-0.854,3.724,0.188,3.724,2.125s-1.787,2.438-3.053,2.438s-3.176-1.125-3.176-3.688
			c0-2.251,1.58-4.74,3.686-6.093c0.246-0.158,0.583,0.062,0.46,0.301C7.607,12.723,7.604,13.25,7.526,14.604z"/>
		<path fill="#E3E5E5" d="M11.25,16.729c0,1.938-1.787,2.438-3.053,2.438s-3.176-1.125-3.176-3.688c0-0.54,0.091-1.095,0.259-1.643
			C5.771,15.312,7.333,17.5,11.25,16.729z"/>
		<path fill="#EDEEEE" d="M11.592,30.75c-0.234-0.299-0.317-0.979,0.602-1.384c1.271-0.561,1.505,1.085,1.305,1.384
			C12.73,30.75,11.592,30.75,11.592,30.75z"/>
		<path fill="#EDEEEE" d="M10.822,29.707c0.313,0.73,0.119,1.043,0.119,1.043s-0.834,0-1.572,0
			C9.637,30.214,10.218,29.722,10.822,29.707z"/>
		<ellipse fill="#373F3F" cx="11.729" cy="9.78" rx="0.5" ry="0.75"/>
		<path fill="#EDEEEE" d="M14.297,29.707c-0.313,0.73-0.119,1.043-0.119,1.043h1.572C15.482,30.214,14.901,29.722,14.297,29.707z"/>
		<path fill="#505957" d="M12.419,24.797v2.372c0,0.297-0.235,0.543-0.533,0.544c-1.174,0.004-2.814-0.884-3.14-1.65
			c-0.325-0.764-0.841-1.903-1.033-2.639c-0.115-0.44,0.237-0.687,0.478-0.555c1.605,0.882,2.343,1.307,3.738,1.391
			C12.208,24.276,12.419,24.518,12.419,24.797z"/>
		<path fill="#ABB2B1" d="M23.75,10.254c3.125,5.621,1.308,10.371,0.875,11.496c-0.89,2.313-2.679,6.145-3.5,8.189
			c-0.077,0.193-0.262,0.312-0.47,0.309l-3.133-0.052c-0.285-0.005-0.54-0.244-0.522-0.528c0,0-0.312-4.574-0.5-6.043
			c-0.087-0.682-0.089-0.621-0.5-0.621V1.25C19.75,1.25,23.75,6.833,23.75,10.254z"/>
		<path fill="#9DA5A4" d="M25.5,17.5c0.156,1.375-0.744,3.909-0.875,4.25c-0.89,2.313-2.679,6.956-3.5,9c-0.792,0-3.603,0-3.603,0
			c-0.285-0.005-0.491-0.281-0.522-0.582c0,0-0.375-5.074-0.5-6.543c-0.058-0.685-0.089-0.621-0.5-0.621v-3.67
			C19.75,19.25,23.443,18.359,25.5,17.5z"/>
		<path fill="#F7F7F7" d="M21.958,7.65v2.39c0,0.142-0.078,0.273-0.204,0.34l-2.782,1.471V9.058L21.958,7.65z"/>
		<ellipse fill="#2B3332" cx="20.271" cy="9.78" rx="0.5" ry="0.75"/>
		<path fill="#E3E5E5" d="M24.474,14.604c-1.765-0.854-3.724,0.188-3.724,2.125s1.787,2.438,3.053,2.438s3.176-1.125,3.176-3.688
			c0-2.251-1.58-4.74-3.686-6.093c-0.246-0.158-0.583,0.062-0.46,0.301C24.393,12.723,24.396,13.25,24.474,14.604z"/>
		<path fill="#DADDDC" d="M20.75,16.729c0,1.938,1.787,2.438,3.053,2.438s3.176-1.125,3.176-3.688c0-0.54-0.091-1.095-0.259-1.643
			C26.229,15.312,24.667,17.5,20.75,16.729z"/>
		<path fill="#EDEEEE" d="M20.408,30.75c0.234-0.299,0.317-0.979-0.602-1.384c-1.271-0.561-1.505,1.085-1.305,1.384
			C19.27,30.75,20.408,30.75,20.408,30.75z"/>
		<path fill="#EDEEEE" d="M21.178,29.707c-0.313,0.73-0.119,1.043-0.119,1.043s0.834,0,1.572,0
			C22.363,30.214,21.782,29.722,21.178,29.707z"/>
		<path fill="#EDEEEE" d="M17.703,29.707c0.313,0.73,0.119,1.043,0.119,1.043H16.25C16.518,30.214,17.099,29.722,17.703,29.707z"/>
		<path fill="#434C4B" d="M19.581,24.797v2.372c0,0.297,0.235,0.543,0.533,0.544c1.174,0.004,2.814-0.884,3.14-1.65
			c0.325-0.764,0.841-1.903,1.033-2.639c0.115-0.44-0.237-0.687-0.478-0.555c-1.605,0.882-2.343,1.307-3.738,1.391
			C19.792,24.276,19.581,24.518,19.581,24.797z"/>
		<path fill="#373F3F" d="M31.83,6.13c-1.821-0.638-3.29-0.88-5.562-0.88c-1.833,0-4.174,0.731-4.583-0.375
			C21.268,3.75,20.667,1.25,16,1.25s-5.268,2.5-5.685,3.625C9.905,5.981,7.565,5.25,5.732,5.25c-2.271,0-3.74,0.242-5.562,0.88
			c-0.245,0.086-0.218,0.441,0.038,0.483C2.37,6.967,3.741,8.671,5.482,8.75c2.75,0.125,4.863-0.887,6.5,0.75
			c1.5,1.5,1,9.581,1,12.333c0,1.333,1.435,1.792,3.018,1.792s3.018-0.458,3.018-1.792c0-2.753-0.5-10.833,1-12.333
			c1.637-1.637,3.75-0.625,6.5-0.75c1.741-0.079,3.112-1.783,5.274-2.137C32.049,6.571,32.075,6.216,31.83,6.13z"/>
		<path fill="#505957" d="M16,9.963h3.269v1.415c-0.227,1.198-0.316,2.763-0.34,4.359H16V9.963z"/>
		<path fill="#434C4B" d="M20.883,8.876c-0.303,0.154-0.596,0.342-0.872,0.615l0,0C20.008,9.495,20.004,9.496,20,9.5
			c-0.085,0.085-0.158,0.207-0.23,0.332c-0.039,0.072-0.079,0.144-0.115,0.225c-0.231,0.513-0.396,1.231-0.507,2.085
			c-0.558-1.845-1.815-1.739-3.148-1.739V8.239v-0.21V5.864C19.671,5.864,20.591,7.422,20.883,8.876z"/>
		<path fill="#434C4B" d="M18.99,13.912c-0.053,0.955-0.069,1.968-0.068,2.959c0.001,0.825,0.013,1.63,0.029,2.37
			C18.247,19.559,17.3,19.759,16,19.759v-2.165v-0.21v-2.165C17.219,15.218,18.375,15.307,18.99,13.912z"/>
		<path fill="#434C4B" d="M0.208,6.613C-0.049,6.571-0.075,6.216,0.17,6.13c1.821-0.638,3.29-0.88,5.562-0.88
			c1.833,0,4.174,0.731,4.583-0.375C10.732,3.75,11.333,1.25,16,1.25v22.375c-1.583,0-3.018-0.458-3.018-1.792
			c0-2.753,0.5-10.833-1-12.333c-1.637-1.637-3.75-0.625-6.5-0.75C3.741,8.671,2.37,6.967,0.208,6.613z"/>
		<path fill="#5C6664" d="M16,9.963h-3.269v1.415c0.227,1.198,0.316,2.763,0.34,4.359H16V9.963z"/>
		<path fill="#505957" d="M13.01,13.912c0.053,0.955,0.069,1.968,0.068,2.959c-0.001,0.825-0.013,1.63-0.029,2.37
			c0.705,0.317,1.651,0.517,2.952,0.517v-2.165v-0.21v-2.165C14.781,15.218,13.625,15.307,13.01,13.912z"/>
		<path fill="#505957" d="M11.117,8.876c0.303,0.154,0.596,0.342,0.872,0.615l0,0C11.992,9.495,11.996,9.496,12,9.5
			c0.085,0.085,0.158,0.207,0.23,0.332c0.039,0.072,0.079,0.144,0.115,0.225c0.231,0.513,0.396,1.231,0.507,2.085
			c0.558-1.845,1.815-1.739,3.148-1.739V8.239v-0.21V5.864C12.329,5.864,11.409,7.422,11.117,8.876z"/>
	</g>
</g>
</svg>
