<?xml version="1.0" encoding="utf-8"?>
<!-- Generator: Adobe Illustrator 23.0.6, SVG Export Plug-In . SVG Version: 6.00 Build 0)  -->
<svg version="1.1" xmlns="http://www.w3.org/2000/svg" xmlns:xlink="http://www.w3.org/1999/xlink" x="0px" y="0px" width="32px"
	 height="32px" viewBox="0 0 32 32" enable-background="new 0 0 32 32" xml:space="preserve">
<g id="labels">
	<g>
	</g>
</g>
<g id="icons">
	<g>
		<polygon fill="#B0A091" points="21.484,22.158 23.156,21.579 20.805,17.386 19.159,17.966 		"/>
		<path fill="#B0A091" d="M24.41,21.982c0.2,0.319,0.052,1.192-0.298,1.413c-0.62,0.393-1.576,0.628-2.512,0.795
			c-1.006,0-1.093-0.926-1.093-1.708s0.815-1.417,1.821-1.417C23.184,21.066,23.937,21.229,24.41,21.982z"/>
		<path fill="#DADDDC" d="M21.748,20.32c0.206-0.07,0.377-0.174,0.546-0.278l0.6,1.07c-0.174,0.11-0.361,0.21-0.575,0.282
			c-0.385,0.131-0.785,0.172-1.175,0.149l-0.593-1.07C20.946,20.5,21.355,20.453,21.748,20.32z"/>
		<path fill="#E3E5E5" d="M21.178,19.246c0.197-0.067,0.359-0.167,0.521-0.266l0.601,1.073c-0.168,0.104-0.348,0.197-0.552,0.267
			c-0.393,0.134-0.803,0.173-1.202,0.147l-0.593-1.069C20.358,19.429,20.777,19.383,21.178,19.246z"/>
		<path fill="#B0A091" d="M20.923,17.899c0,0-0.253-1.316-0.885-3.042c0.26-0.417,0.312-1.083,0-1.5
			c-0.446-0.595-1.394-0.82-2.29-0.914V11H16v9.292h2.5v-4.276c0-0.073,0.104-0.087,0.123-0.016l0.537,1.967L20.923,17.899z"/>
		<path fill="#3E88B3" d="M19.454,28.523c1.21,0.097,2.902,0.608,2.87,1.858C22.292,31.631,20.269,32,19.308,32S17,31.791,17,30.445
			s0.526-1.787,1.3-1.886C19.126,28.452,19.454,28.523,19.454,28.523z"/>
		<path fill="#B0A091" d="M19.199,24.977c-0.133-1.261-0.241-2.279-0.241-2.279l-1.823,0.193l0.365,2.443
			c-0.006,0.081-0.172,0.432-0.247,0.682c-0.221,0.733,0.247,1.344,0.731,1.516c0,0,0.031,1.484,0.031,2.109
			c0.117,0.373,1.672,0.243,1.734-0.161c-0.048-0.458-0.167-1.417-0.25-2.479C20.042,26.708,20.354,25.729,19.199,24.977z"/>
		<path fill="#3E88B3" d="M18.035,18.836c1.926,0,3.721,1.729,3.981,3.348c0.239,1.485-0.412,3.334-3.534,3.334
			c-1.795,0-1.91-1.539-2.482-1.539v-4.576C16.215,18.987,17.144,18.836,18.035,18.836z"/>
		<path fill="#E3E5E5" d="M18.5,17.194v1.24c-0.514,0.235-1.787,0.381-2.5,0.381v-1.208C16.719,17.607,17.986,17.433,18.5,17.194z"
			/>
		<path fill="#DADDDC" d="M16,18.815c0.719,0,1.986-0.217,2.5-0.456c0,0-0.026,0.354,0.203,0.484
			c0.208,0.119,0.255,0.104,0.525,0.206c-0.201,0.229-0.506,0.432-0.855,0.592v0.001c-0.001,0-0.002,0-0.002,0.001
			c-0.003,0.002-0.006,0.004-0.01,0.005v-0.002c-0.512,0.232-1.653,0.378-2.361,0.378V18.815z"/>
		<polygon fill="#B6A799" points="10.516,22.158 8.844,21.579 11.195,17.386 12.841,17.966 		"/>
		<path fill="#B6A799" d="M7.59,21.982c-0.2,0.319-0.052,1.192,0.298,1.413c0.62,0.393,1.576,0.628,2.512,0.795
			c1.006,0,1.093-0.926,1.093-1.708s-0.815-1.417-1.821-1.417C8.816,21.066,8.063,21.229,7.59,21.982z"/>
		<path fill="#E3E5E5" d="M10.252,20.32c-0.206-0.07-0.377-0.174-0.546-0.278l-0.6,1.07c0.174,0.11,0.361,0.21,0.575,0.282
			c0.385,0.131,0.785,0.172,1.175,0.149l0.593-1.07C11.054,20.5,10.645,20.453,10.252,20.32z"/>
		<path fill="#EDEEEE" d="M10.822,19.246c-0.197-0.067-0.359-0.167-0.521-0.266L9.7,20.053c0.168,0.104,0.348,0.197,0.552,0.267
			c0.393,0.134,0.803,0.173,1.202,0.147l0.593-1.069C11.642,19.429,11.223,19.383,10.822,19.246z"/>
		<path fill="#B6A799" d="M11.077,17.899c0,0,0.253-1.316,0.885-3.042c-0.26-0.417-0.312-1.083,0-1.5
			c0.446-0.595,1.394-0.82,2.29-0.914V11H16v9.292h-2.5v-4.276c0-0.073-0.104-0.087-0.123-0.016l-0.537,1.967L11.077,17.899z"/>
		<path fill="#4390BF" d="M12.546,28.523c-1.21,0.097-2.902,0.608-2.87,1.858C9.708,31.631,11.731,32,12.692,32S15,31.791,15,30.445
			s-0.526-1.787-1.3-1.886C12.874,28.452,12.546,28.523,12.546,28.523z"/>
		<path fill="#B6A799" d="M12.801,24.977c0.133-1.261,0.241-2.279,0.241-2.279l1.823,0.193L14.5,25.333
			c0.006,0.081,0.172,0.432,0.247,0.682c0.221,0.733-0.247,1.344-0.731,1.516c0,0-0.031,1.484-0.031,2.109
			c-0.117,0.373-1.672,0.243-1.734-0.161c0.048-0.458,0.167-1.417,0.25-2.479C11.958,26.708,11.646,25.729,12.801,24.977z"/>
		<path fill="#4390BF" d="M16,19.403v4.576c-0.572,0-0.688,1.539-2.482,1.539c-3.122,0-3.773-1.849-3.534-3.334
			c0.26-1.618,2.055-3.348,3.981-3.348C14.856,18.836,15.785,18.987,16,19.403z"/>
		<path fill="#EDEEEE" d="M16,17.607v1.208c-0.713,0-1.986-0.147-2.5-0.381v-1.24C14.014,17.433,15.281,17.607,16,17.607z"/>
		<path fill="#E3E5E5" d="M16,20.024c-0.708,0-1.849-0.146-2.361-0.378v0.002c-0.004-0.002-0.006-0.004-0.01-0.005
			c-0.001,0-0.002,0-0.002-0.001v-0.001c-0.348-0.161-0.654-0.364-0.855-0.592c0.27-0.102,0.317-0.087,0.525-0.206
			c0.229-0.131,0.203-0.484,0.203-0.484c0.514,0.239,1.781,0.456,2.5,0.456V20.024z"/>
		<path fill="#BAAC9E" d="M16,2.304v9.858c-3.176,0-5.75-2.207-5.75-4.929S12.824,2.304,16,2.304z"/>
		<g>
			<g>
				<path fill="#FFFFFF" d="M14.558,6.461l-2.272-0.714c-0.249,0.247-0.401,0.934-0.401,1.571c0,0.633,0.152,1.029,0.394,1.509
					l2.024-0.243c0.255-0.34,0.414-0.792,0.414-1.293C14.717,6.992,14.657,6.713,14.558,6.461z"/>
			</g>
			<g>
				<path fill="#FFFFFD" d="M14.558,6.461l-2.272-0.714c-0.249,0.247-0.401,0.934-0.401,1.571c0,0.633,0.152,1.029,0.394,1.509
					l2.024-0.243c0.255-0.34,0.414-0.792,0.414-1.293C14.717,6.992,14.657,6.713,14.558,6.461z"/>
			</g>
		</g>
		<path fill="#4390BF" d="M12.754,7.215c0,0.77,0.25,1.381,0.571,1.487l0.244-0.029c0.289-0.164,0.508-0.739,0.508-1.458
			c0-0.367-0.063-0.69-0.157-0.954l-0.877-0.276C12.873,6.262,12.754,6.697,12.754,7.215z"/>
		<ellipse fill="#373F3F" cx="13.56" cy="7.091" rx="0.269" ry="0.621"/>
		<path fill="#B6A799" d="M10.92,9.496c0.213-0.59,0.343-1.267,0.343-1.999c0-0.871-0.177-1.671-0.47-2.328
			c-0.341,0.63-0.544,1.324-0.544,2.064C10.25,8.053,10.506,8.815,10.92,9.496z"/>
		<path fill="#B6A799" d="M16,0c0,0-0.386,0-0.629,0.244c-0.204,0.204-0.554,2.239-0.661,2.888
			c-0.021,0.125,0.028,0.247,0.127,0.327c0,0,0.687,0.929,1.164,0.929V0z"/>
		<path fill="#B6A799" d="M21.75,7.232c0,2.722-2.575,4.929-5.75,4.929V2.304C19.176,2.304,21.75,4.51,21.75,7.232z"/>
		<g>
			<g>
				<path fill="#F7F7F7" d="M17.442,6.461l2.272-0.714c0.249,0.247,0.401,0.934,0.401,1.571c0,0.633-0.152,1.029-0.394,1.509
					l-2.024-0.243c-0.255-0.34-0.414-0.792-0.414-1.293C17.283,6.992,17.343,6.713,17.442,6.461z"/>
			</g>
			<g>
				<path fill="#FFFFFD" d="M17.442,6.461l2.272-0.714c0.249,0.247,0.401,0.934,0.401,1.571c0,0.633-0.152,1.029-0.394,1.509
					l-2.024-0.243c-0.255-0.34-0.414-0.792-0.414-1.293C17.283,6.992,17.343,6.713,17.442,6.461z"/>
			</g>
		</g>
		<path fill="#3E88B3" d="M19.246,7.215c0,0.77-0.25,1.381-0.571,1.487l-0.244-0.029c-0.289-0.164-0.508-0.739-0.508-1.458
			c0-0.367,0.063-0.69,0.157-0.954l0.877-0.276C19.127,6.262,19.246,6.697,19.246,7.215z"/>
		<ellipse fill="#2B3332" cx="18.44" cy="7.091" rx="0.269" ry="0.621"/>
		<path fill="#B0A091" d="M21.08,9.496c-0.213-0.59-0.343-1.267-0.343-1.999c0-0.871,0.177-1.671,0.47-2.328
			c0.341,0.63,0.544,1.324,0.544,2.064C21.75,8.053,21.494,8.815,21.08,9.496z"/>
		<path fill="#B0A091" d="M16,0c0,0,0.386,0,0.629,0.244c0.204,0.204,0.554,2.239,0.661,2.888c0.021,0.125-0.028,0.247-0.127,0.327
			c0,0-0.772,0.929-1.164,0.929V0z"/>
		<g>
			<path fill="#2B3332" d="M17.385,10.189c-0.092-0.13-0.271-0.162-0.4-0.07c-0.185,0.13-0.589,0.188-0.985,0.189v0.579
				c0.515-0.003,1.035-0.102,1.315-0.299C17.445,10.498,17.477,10.319,17.385,10.189z"/>
			<path fill="#373F3F" d="M15.035,10.134c-0.12-0.1-0.302-0.086-0.405,0.035c-0.103,0.121-0.087,0.302,0.034,0.405
				c0.247,0.209,0.778,0.314,1.316,0.314c0.007,0,0.013-0.001,0.02-0.001v-0.579C15.581,10.31,15.17,10.248,15.035,10.134z"/>
		</g>
	</g>
</g>
</svg>
