<?xml version="1.0" encoding="utf-8"?>
<!-- Generator: Adobe Illustrator 23.0.6, SVG Export Plug-In . SVG Version: 6.00 Build 0)  -->
<svg version="1.1" xmlns="http://www.w3.org/2000/svg" xmlns:xlink="http://www.w3.org/1999/xlink" x="0px" y="0px" width="32px"
	 height="32px" viewBox="0 0 32 32" enable-background="new 0 0 32 32" xml:space="preserve">
<g id="labels">
	<g>
	</g>
</g>
<g id="icons">
	<g>
		<path fill="#B9BFBE" d="M13.25,11.846L8.421,7.567c-0.186-0.165-0.477-0.013-0.45,0.234l0.327,2.892L2.845,6.987
			C2.587,6.811,2.285,7.14,2.483,7.383l3.578,4.396l-4.687-1.239c-0.282-0.075-0.467,0.288-0.241,0.473L6.4,15.305l-2.907,0.883
			c-0.26,0.079-0.256,0.448,0.006,0.521l9.548,2.666L13.25,11.846z"/>
		<path fill="#ABB2B1" d="M18.782,11.846l4.829-4.279c0.186-0.165,0.477-0.013,0.45,0.234l-0.327,2.892l5.453-3.706
			c0.259-0.176,0.56,0.153,0.363,0.396l-3.578,4.396l4.687-1.239c0.282-0.075,0.467,0.288,0.241,0.473l-5.267,4.293l2.907,0.883
			c0.26,0.079,0.256,0.448-0.006,0.521l-9.548,2.666L18.782,11.846z"/>
		<path fill="#845331" d="M16,20l-3.814-1.954c-1.936,0.766-3.94,2.164-3.709,4.242l0.47,4.234c0.034,0.302-0.072,0.603-0.287,0.818
			l-0.367,0.367C8.105,27.895,8,28.149,8,28.414V30c0,0.552,0.448,1,1,1h5c0,0,1.521-2.376,2-2.376V20z"/>
		<path fill="#96643B" d="M14.375,30.188h0.175c0.485-0.689,1.159-1.564,1.45-1.564V20l-1.625-0.406V30.188z"/>
		<path fill="#413B3B" d="M14.594,24.677c0,1.536-1.749,2.781-3.906,2.781c-0.806,0-1.548-0.181-2.168-0.481
			c-0.129-0.062-0.207-0.198-0.207-0.341v-1.537c0-0.26,0.258-0.445,0.499-0.348c0.555,0.222,1.192,0.351,1.876,0.351
			c1.563,0,2.902-0.658,3.526-1.603C14.451,23.858,14.594,24.254,14.594,24.677z"/>
		<path fill="#8D5B36" d="M16,10.168c-2.886,0.488-5,2.987-5,5.915v10.919c0,0.639-0.254,1.252-0.706,1.704l-0.001,0.001
			C10.105,28.895,10,29.149,10,29.414V31c0,0.552,0.448,1,1,1h3c0.552,0,1-0.448,1-1v-3.029c0-1.976,0.195-3.946,0.583-5.883
			l0.257-1.283c0.027-0.135,0.087-0.255,0.161-0.363V10.168z"/>
		<path fill="#4F4949" d="M15.024,25.465c0.197-0.083,0.413,0.076,0.413,0.289l-0.102,1.715c0,0.117-0.063,0.228-0.169,0.28
			c-0.628,0.311-1.281,0.458-2.104,0.458c-0.807,0-1.548-0.181-2.168-0.481c-0.129-0.062-0.207-0.198-0.207-0.341l0-1.537
			c0-0.26,0.258-0.445,0.499-0.348c0.555,0.222,1.192,0.351,1.876,0.351C13.782,25.852,14.449,25.709,15.024,25.465z"/>
		<path fill="#724D31" d="M16,20l3.814-1.954c1.936,0.766,3.94,2.164,3.709,4.242l-0.47,4.234c-0.034,0.302,0.072,0.603,0.287,0.818
			l0.367,0.367C23.895,27.895,24,28.149,24,28.414V30c0,0.552-0.448,1-1,1h-5c0,0-1.521-2.376-2-2.376V20z"/>
		<path fill="#8D5B36" d="M17.625,30.188H17.45c-0.485-0.689-1.159-1.564-1.45-1.564V20l1.625-0.406V30.188z"/>
		<path fill="#3A3333" d="M17.786,23.499c0.624,0.945,1.963,1.603,3.526,1.603c0.683,0,1.321-0.129,1.876-0.351
			c0.241-0.096,0.499,0.089,0.499,0.348v1.537c0,0.143-0.078,0.279-0.207,0.341c-0.621,0.3-1.362,0.481-2.168,0.481
			c-2.157,0-3.906-1.245-3.906-2.781C17.406,24.254,17.549,23.858,17.786,23.499z"/>
		<path fill="#845331" d="M16,10.168c2.886,0.488,5,2.987,5,5.915v10.919c0,0.639,0.254,1.252,0.706,1.704l0.001,0.001
			C21.895,28.895,22,29.149,22,29.414V31c0,0.552-0.448,1-1,1h-3c-0.552,0-1-0.448-1-1v-3.029c0-1.976-0.195-3.946-0.583-5.883
			l-0.257-1.283c-0.027-0.135-0.087-0.255-0.161-0.363V10.168z"/>
		<path fill="#B9BFBE" d="M16,17h-2.167c0,0.875,1.042,3.441,2.167,3.441s2.167-2.566,2.167-3.441H16z"/>
		<path fill="#413B3B" d="M18.938,25.852c0.683,0,1.32-0.129,1.876-0.351c0.241-0.096,0.499,0.089,0.499,0.348l0,1.537
			c0,0.143-0.077,0.279-0.207,0.341c-0.621,0.3-1.362,0.481-2.168,0.481c-0.823,0-1.476-0.147-2.104-0.458
			c-0.105-0.052-0.169-0.163-0.169-0.28l-0.102-1.715c0-0.214,0.216-0.373,0.413-0.289C17.551,25.709,18.218,25.852,18.938,25.852z"
			/>
		<path fill="#C8CCCB" d="M13.833,17c0,0.875,1.042,3.441,2.167,3.441V17H13.833z"/>
		<path fill="#96643B" d="M16,0.948c-0.305-0.305-0.726-0.771-1.28-0.942c-0.125-0.038-0.226,0.107-0.147,0.212
			c0.239,0.314,0.334,0.491,0.388,0.73c-0.35,0-2.721-0.694-4.566,2.699c-0.068,0.126,0.075,0.255,0.194,0.175
			c0.451-0.301,0.767-0.281,1.121-0.383c-1.152,0.72-1.492,2.142-1.58,2.949c-0.014,0.129,0.148,0.2,0.233,0.102
			c0.478-0.553,1.003-0.666,1.314-0.582c-0.955,0.637-1.8,2.474-1.307,3.652c0.038,0.09,0.151,0.112,0.221,0.045
			c0.512-0.494,1.124-0.763,1.689-0.814c-0.997,1.689-1.294,6.759-2.696,8.961c-0.073,0.114,0.056,0.251,0.176,0.189
			c0.493-0.256,0.833-0.571,1.146-0.771c-0.359,0.629-0.469,1.266-0.496,2.247c-0.003,0.126,0.154,0.188,0.236,0.093
			c0.509-0.584,0.914-1.099,1.69-1.77c0.194,0.852,0.689,2.308,1.429,3.117c0.09,0.098,0.258,0.015,0.23-0.116
			c-0.281-1.346,0.27-3.046,0.631-3.437c0.134,0.402,0.871-0.991,1.374-0.991V0.948z"/>
		<path fill="#4F4949" d="M16,5.184v3.031l-2.746,4.463c-0.08,0.131-0.282,0.073-0.281-0.081l0.034-4.344l-2.094-0.508
			c-0.138-0.033-0.158-0.221-0.031-0.283l2.088-1.028l-1.602-2.158c-0.085-0.115,0.021-0.273,0.159-0.237L16,5.184z"/>
		<path fill="#FFFFFF" d="M13.527,5.004c0,0.716-0.065,1.269,0.749,1.53c0.49,0.157,1.53,0.195,1.53,0.195L15.74,5.297L13.527,5.004
			z"/>
		<path fill="#E55D53" d="M14.891,6.653c0.154-0.134,0.263-0.379,0.263-0.673c0-0.431-0.226-0.781-0.504-0.781
			s-0.504,0.35-0.504,0.781c0,0.22,0.06,0.418,0.155,0.56C14.461,6.589,14.674,6.626,14.891,6.653z"/>
		<ellipse fill="#3A3333" cx="14.601" cy="6.046" rx="0.195" ry="0.325"/>
		<path fill="#8D5B36" d="M16,0.948c0.305-0.305,0.726-0.771,1.28-0.942c0.125-0.038,0.226,0.107,0.147,0.212
			c-0.239,0.314-0.334,0.491-0.388,0.73c0.35,0,2.721-0.694,4.566,2.699c0.068,0.126-0.075,0.255-0.194,0.175
			C20.96,3.521,20.644,3.54,20.29,3.439c1.152,0.72,1.492,2.142,1.58,2.949c0.014,0.129-0.148,0.2-0.233,0.102
			c-0.478-0.553-1.003-0.666-1.314-0.582c0.955,0.637,1.8,2.474,1.307,3.652c-0.038,0.09-0.151,0.112-0.221,0.045
			C20.897,9.11,20.285,8.842,19.72,8.79c0.997,1.689,1.294,6.759,2.696,8.961c0.073,0.114-0.056,0.251-0.176,0.189
			c-0.493-0.256-0.833-0.571-1.146-0.771c0.359,0.629,0.469,1.266,0.496,2.247c0.003,0.126-0.154,0.188-0.236,0.093
			c-0.509-0.584-0.914-1.099-1.69-1.77c-0.194,0.852-0.689,2.308-1.429,3.117c-0.09,0.098-0.258,0.015-0.23-0.116
			c0.281-1.346-0.27-3.046-0.631-3.437c-0.134,0.402-0.871-0.928-1.374-0.928V0.948z"/>
		<path fill="#C98B44" d="M16.917,9.292l-0.917,0l-0.917,0c-0.458,1.333-2.167,8.333,0,9.333c-0.208-0.625-0.208-1.167,0.083-1.458
			c0.167,0.875,0.583,2.125,0.833,2.125s0.667-1.25,0.833-2.125c0.292,0.292,0.292,0.833,0.083,1.458
			C19.083,17.625,17.375,10.625,16.917,9.292z"/>
		<path fill="#413B3B" d="M16,5.184v3.031l2.746,4.463c0.08,0.131,0.282,0.073,0.281-0.081l-0.034-4.344l2.094-0.508
			c0.138-0.033,0.158-0.221,0.031-0.283l-2.088-1.028l1.602-2.158c0.085-0.115-0.021-0.273-0.159-0.237L16,5.184z"/>
		<path fill="#F7F7F7" d="M18.473,5.004c0,0.716,0.065,1.269-0.749,1.53c-0.49,0.157-1.53,0.195-1.53,0.195l0.065-1.432
			L18.473,5.004z"/>
		<path fill="#D64F45" d="M17.109,6.653c-0.154-0.134-0.263-0.379-0.263-0.673c0-0.431,0.226-0.781,0.504-0.781
			s0.504,0.35,0.504,0.781c0,0.22-0.06,0.418-0.155,0.56C17.539,6.589,17.326,6.626,17.109,6.653z"/>
		<ellipse fill="#2B3332" cx="17.399" cy="6.046" rx="0.195" ry="0.325"/>
		<path fill="#D4994F" d="M15.083,9.292c-0.458,1.333-2.167,8.333,0,9.333c-0.208-0.625-0.208-1.167,0.083-1.458
			c0.167,0.875,0.583,2.125,0.833,2.125v-10L15.083,9.292z"/>
		<path fill="#E5C79A" d="M17.5,8.469l-1.5-1l-1.5,1c0,0-0.188,2.031,1.5,2.031C17.687,10.5,17.5,8.469,17.5,8.469z"/>
		<path fill="#EACEA1" d="M16,7.469l-1.5,1c0,0-0.188,2.031,1.5,2.031V7.469z"/>
		<path fill="#B9BFBE" d="M18.083,8.031c-0.13-0.163-1.53-1.041-1.53-1.041V5.981C16.293,5.72,16,5.948,16,5.948
			s-0.293-0.228-0.553,0.033V6.99c0,0-1.399,0.879-1.53,1.041s0.553,3.417,1.041,3.677V8.552L16,8.259l1.041,0.293v3.157
			C17.53,11.448,18.213,8.194,18.083,8.031z"/>
		<path fill="#C8CCCB" d="M15.447,5.981V6.99c0,0-1.399,0.879-1.53,1.041s0.553,3.417,1.041,3.678V8.552L16,8.259V5.948
			C16,5.948,15.707,5.72,15.447,5.981z"/>
		<path fill="#FFD04D" d="M19.53,3.062c-0.21,0.43-0.456,0.803-1.447,0.803c-0.456,0-1.302-0.033-1.562,0.586
			C16.488,4.093,16.325,1.75,16,1.75s-0.488,2.343-0.521,2.701c-0.26-0.618-1.107-0.586-1.562-0.586
			c-0.991,0-1.237-0.373-1.447-0.803c-0.03-0.061-0.122-0.041-0.123,0.027c-0.014,0.883,0.109,2.338,1.635,2.338
			c1.953,0,1.334,1.562,2.018,1.562s0.065-1.562,2.018-1.562c1.526,0,1.649-1.455,1.635-2.338C19.652,3.022,19.56,3.001,19.53,3.062
			z"/>
		<path fill="#FFD96C" d="M12.47,3.062c-0.03-0.061-0.122-0.041-0.123,0.027c-0.014,0.883,0.109,2.338,1.635,2.338
			c1.953,0,1.334,1.562,2.018,1.562V1.75c-0.325,0-0.488,2.343-0.521,2.701c-0.26-0.618-1.107-0.586-1.562-0.586
			C12.926,3.865,12.68,3.493,12.47,3.062z"/>
	</g>
</g>
</svg>
