<?xml version="1.0" encoding="utf-8"?>
<!-- Generator: Adobe Illustrator 23.0.6, SVG Export Plug-In . SVG Version: 6.00 Build 0)  -->
<svg version="1.1" xmlns="http://www.w3.org/2000/svg" xmlns:xlink="http://www.w3.org/1999/xlink" x="0px" y="0px" width="32px"
	 height="32px" viewBox="0 0 32 32" enable-background="new 0 0 32 32" xml:space="preserve">
<g id="labels">
	<g>
	</g>
</g>
<g id="icons">
	<g>
		<path fill="#6673AA" d="M26.629,22.177c0.272,0.761,1.649,2.192,2.083,2.228l-0.254-1.359
			C28.459,23.047,27.553,22.304,26.629,22.177z"/>
		<path fill="#6673AA" d="M32,26.125c-1.052-0.027-3.382-1.148-3.604-1.671l1.784-0.239C30.18,24.215,31.467,25.034,32,26.125z"/>
		<path fill="#9FC9E4" d="M14.071,15.708l-3.498,1.446l-4.698,0.512L3.939,19.87c-0.081,0.082-0.207,0.098-0.306,0.039
			c0,0-0.654-0.805-0.803-0.98c-0.038-0.045-0.109-0.163-0.039-0.262c0.25-0.354,0.75-1.042,0.75-1.042l-2.446,0.037
			c-0.055-0.042-0.093-0.071-0.148-0.114l-0.321-1.285c-0.023-0.092,0.045-0.183,0.14-0.186l2.418-0.095l-3.068-0.704
			c-0.078-0.018-0.128-0.094-0.114-0.172l0.31-1.747c0.017-0.094,0.116-0.149,0.204-0.113l2.415,0.978L1.605,13.27l-0.794-1.601
			c-0.03-0.061-0.015-0.136,0.036-0.18l1.201-1.036c0.084-0.072,0.214-0.032,0.243,0.075l0.456,1.692l1.496,1.447l-0.25-2.202
			c-0.009-0.077,0.043-0.149,0.12-0.164l1.361-0.273c0.083-0.017,0.163,0.038,0.177,0.121l0.427,2.463c0,0,3.999,1.227,4.445,1.221
			c0.446-0.006,2.28-0.371,3.136-0.572L14.071,15.708z"/>
		<path fill="#8EC0E0" d="M18.34,14.261c0.856,0.2,2.69,0.565,3.136,0.572c0.446,0.006,4.445-1.221,4.445-1.221l0.427-2.463
			c0.014-0.083,0.095-0.138,0.177-0.121l1.361,0.273c0.076,0.015,0.128,0.087,0.12,0.164l-0.25,2.202l1.496-1.447l0.456-1.692
			c0.029-0.107,0.159-0.147,0.243-0.075l1.201,1.036c0.052,0.045,0.067,0.119,0.036,0.18l-0.794,1.601l-1.326,0.954l2.415-0.978
			c0.088-0.036,0.187,0.019,0.204,0.113l0.31,1.747c0.014,0.079-0.036,0.155-0.114,0.172l-3.068,0.704l2.418,0.095
			c0.095,0.004,0.163,0.094,0.14,0.186l-0.321,1.285c-0.055,0.042-0.093,0.071-0.148,0.114l-2.446-0.037c0,0,0.5,0.688,0.75,1.042
			c0.07,0.099,0,0.217-0.039,0.262c-0.149,0.175-0.803,0.98-0.803,0.98c-0.099,0.059-0.225,0.043-0.306-0.039l-1.936-2.204
			l-4.698-0.512l-3.498-1.446L18.34,14.261z"/>
		<path fill="#7FB8E0" d="M31.999,20.751c-0.778,7.874-7.778,8.499-12.715,8.499v-5.333c5.312,0.208,9.164,0.264,12.272-3.338
			C31.712,20.397,32.022,20.513,31.999,20.751z"/>
		<path fill="#B0D3EA" d="M16,7.25c-2.667,0-1.415,1.748-2.417,6.167c-1.108,4.888-2.875,4.75-4.042,7.75
			C8.262,24.457,8.458,30,16,30V7.25z"/>
		<path fill="#9FC9E4" d="M16,7.25c2.667,0,1.415,1.748,2.417,6.167c1.108,4.888,2.875,4.75,4.042,7.75
			C23.738,24.457,23.542,30,16,30V7.25z"/>
		<g>
			<path fill="#C1DDEE" d="M12.314,5.523c0,1.016,0.564,4.909,0.733,5.191C13.217,10.996,16,12.745,16,12.745V5.467L12.314,5.523z"
				/>
			<path fill="#D2E6F3" d="M16,0c-0.733,0-2.467,3.286-2.866,3.685c-3.152,3.152,1.145,2.916,1.456,4.264
				c0.169,0.733,0.733,4.796,1.411,4.796V0z"/>
			<path fill="#7C8AC4" d="M10.472,4.875c0.576,1.612,3.493,4.645,4.415,4.722l-0.537-2.879C14.349,6.718,12.43,5.144,10.472,4.875z
				"/>
			<path fill="#FFFFFF" d="M14.481,7.425C14.17,6.959,13.798,6.69,13.52,6.797c-0.389,0.15-0.439,0.96-0.113,1.81
				c0.008,0.022,0.02,0.037,0.029,0.059c0.597,0.529,1.14,0.906,1.451,0.932L14.481,7.425z"/>
			<ellipse fill="#373F3F" cx="14.029" cy="8.087" rx="0.233" ry="0.497"/>
			<path fill="#B0D3EA" d="M19.686,5.523c0,1.016-0.564,4.909-0.733,5.191C18.783,10.996,16,12.745,16,12.745V5.467L19.686,5.523z"
				/>
			<path fill="#C1DDEE" d="M16,0c0.733,0,2.467,3.286,2.866,3.685c3.152,3.152-1.145,2.916-1.456,4.264
				c-0.169,0.733-0.733,4.796-1.411,4.796V0z"/>
			<path fill="#707EB7" d="M21.528,4.875c-0.576,1.612-3.493,4.645-4.415,4.722l0.537-2.879C17.651,6.718,19.57,5.144,21.528,4.875z
				"/>
			<path fill="#F7F7F7" d="M17.519,7.425c0.311-0.466,0.684-0.735,0.961-0.628c0.389,0.15,0.439,0.96,0.113,1.81
				c-0.008,0.022-0.02,0.037-0.029,0.059c-0.597,0.529-1.14,0.906-1.451,0.932L17.519,7.425z"/>
			<ellipse fill="#2B3332" cx="17.971" cy="8.087" rx="0.233" ry="0.497"/>
		</g>
		<path fill="#707EB7" d="M22.604,21.57c-0.046-0.138-2.105-2.695-4.354-3.945c-0.563-0.312-1.5,1-2.25,1s-1.688-1.312-2.25-1
			c-2.249,1.249-4.308,3.807-4.354,3.945C8.289,24.89,8.758,30,16,30S23.711,24.89,22.604,21.57z"/>
		<path fill="#8EC0E0" d="M19.458,25.692c-0.042,2.533,0.357,4.058,2.702,4.058c2.177,0,3.224-1.926,3.224-4.25
			s-1.717-4.125-3.015-4.125C21.029,21.375,19.496,23.368,19.458,25.692z"/>
		<path fill="#8EC0E0" d="M23.549,29.054c0.463,0.641,1.095,1.556,1.533,2.196C25.301,31.569,25.07,32,24.683,32h-2.792
			c-0.166,0-0.32-0.085-0.408-0.226l-0.712-1.139c-0.03-0.048-0.029-0.108,0.002-0.156l1.092-1.667L23.549,29.054z"/>
		<path fill="#7C8AC4" d="M16,18.625c-0.75,0-1.688-1.312-2.25-1c-2.249,1.249-4.308,3.807-4.354,3.945C8.289,24.89,8.758,30,16,30
			V18.625z"/>
		<path fill="#9FC9E4" d="M12.542,25.692c0.042,2.533-0.357,4.058-2.702,4.058c-2.177,0-3.224-1.926-3.224-4.25
			s1.717-4.125,3.015-4.125C10.971,21.375,12.504,23.368,12.542,25.692z"/>
		<path fill="#9FC9E4" d="M8.451,29.054c-0.463,0.641-1.095,1.556-1.533,2.196C6.699,31.569,6.93,32,7.317,32h2.792
			c0.166,0,0.32-0.085,0.408-0.226l0.712-1.139c0.03-0.048,0.029-0.108-0.002-0.156l-1.092-1.667L8.451,29.054z"/>
	</g>
</g>
</svg>
