<?xml version="1.0" encoding="utf-8"?>
<!-- Generator: Adobe Illustrator 23.0.6, SVG Export Plug-In . SVG Version: 6.00 Build 0)  -->
<svg version="1.1" xmlns="http://www.w3.org/2000/svg" xmlns:xlink="http://www.w3.org/1999/xlink" x="0px" y="0px" width="32px"
	 height="32px" viewBox="0 0 32 32" enable-background="new 0 0 32 32" xml:space="preserve">
<g id="icons">
	<g>
		<path fill="#AADB3D" d="M16.794,30.475v-4.6h1.47l0,4.077c0,0.173,0.151,0.302,0.324,0.292c1.182-0.07,3.105,0.09,3.105,0.874
			c0,0.931-2.304,0.882-3.332,0.882c-1.028,0-1.862-0.147-1.862-0.882C16.5,30.802,16.615,30.607,16.794,30.475z"/>
		<path fill="#CBEB6B" d="M16,19c0,0,0,0,1.399,0c1.142,2.708,2.351,2.792,2.351,5.25c0,3.333-2.25,4.5-3.75,4.5V19z"/>
		<path fill="#B1E346" d="M18.116,20.402c0.88,1.442,1.634,1.906,1.634,3.848c0,3.333-2.25,4.5-3.75,4.5v-6.301
			C16.333,22.449,17.537,21.13,18.116,20.402z"/>
		<path fill="#E2EFF7" d="M14.929,17.391c-1.414-0.805-5.901-2.516-10.179-2.058C3.583,15.458,3.482,16.48,4.125,17
			s7.804,3.315,10.25,2.792S14.929,17.391,14.929,17.391z"/>
		<path fill="#D2E6F3" d="M17.071,17.391c1.414-0.805,5.901-2.516,10.179-2.058c1.167,0.125,1.268,1.147,0.625,1.667
			s-7.804,3.315-10.25,2.792S17.071,17.391,17.071,17.391z"/>
		<path fill="#B1E346" d="M15.5,31.118c0,0.735-0.834,0.882-1.862,0.882s-3.332,0.049-3.332-0.882c0-0.784,1.924-0.944,3.105-0.874
			c0.173,0.01,0.324-0.118,0.324-0.292l0-4.077h1.47v4.6C15.385,30.607,15.5,30.802,15.5,31.118z"/>
		<path fill="#D9F07D" d="M16,19c0,0,0,0-1.399,0c-1.142,2.708-2.351,2.792-2.351,5.25c0,3.333,2.25,4.5,3.75,4.5V19z"/>
		<path fill="#BEE758" d="M13.884,20.402c-0.88,1.442-1.634,1.906-1.634,3.848c0,3.333,2.25,4.5,3.75,4.5v-6.301
			C15.667,22.449,14.463,21.13,13.884,20.402z"/>
		<path fill="#D9F07D" d="M15.25,17.552v0.283C11.803,18.456,3.646,22.312,2.5,23c-1.458,0.875-1.625,1.576-1.25,2.25
			c0.406,0.73,1.958,0.958,3.5,0c1.907-1.186,7.788-5.042,11.25-5.042V18.99v-1.24v-0.198H15.25z"/>
		<path fill="#CBEB6B" d="M16.75,17.552v0.283C20.197,18.456,28.354,22.312,29.5,23c1.458,0.875,1.625,1.576,1.25,2.25
			c-0.406,0.73-1.958,0.958-3.5,0c-1.907-1.186-7.788-5.042-11.25-5.042V18.99v-1.24v-0.198H16.75z"/>
		<path fill="#E6F490" d="M16,0c-2.417,7.5-8,6.583-8,11.542c0,4.583,4.292,6.25,8,6.25V0z"/>
		<path fill="#BEE758" d="M7.9,5.495C7.135,3.53,7.585,1.444,9.095,0.212C9.196,0.13,9.145-0.035,9.03,0.021
			C6.844,1.081,5.804,3.662,6.7,5.966c0.901,2.317,3.435,3.517,5.774,2.796c0.109-0.034,0.067-0.187-0.037-0.179
			C10.457,8.735,8.675,7.488,7.9,5.495z"/>
		<path fill="#373F3F" d="M9.788,10.036c0.896-0.256,2.8,1.162,3.199,2.776c0.399,1.614,0.296,2.386-0.208,2.62
			c-0.72,0.334-3.273,0.082-3.681-2.252C8.69,10.845,9.369,10.155,9.788,10.036z"/>
		<path fill="#FFFFFF" d="M10.078,10.82c0.692-0.197,2.162,0.897,2.471,2.143c0.308,1.246,0.229,1.843-0.161,2.023
			c-0.556,0.258-2.527,0.063-2.843-1.739C9.229,11.445,9.754,10.912,10.078,10.82z"/>
		<path fill="#C1DDEE" d="M11.814,11.685c0.34,0.365,0.619,0.811,0.735,1.278c0.308,1.246,0.229,1.843-0.161,2.023
			c-0.278,0.129-0.91,0.145-1.511-0.097C10.097,13.466,10.63,11.169,11.814,11.685z"/>
		<ellipse fill="#65A9DC" cx="11.698" cy="13.542" rx="0.698" ry="1.167"/>
		<path fill="#FFFFFF" d="M12.009,12.832c-0.065,0.441,0.094,0.83,0.355,0.868c0.106,0.016,0.206-0.062,0.299-0.15
			c-0.031-0.183-0.059-0.362-0.115-0.586c-0.059-0.238-0.162-0.47-0.292-0.689C12.139,12.406,12.044,12.595,12.009,12.832z"/>
		<path fill="#D9F07D" d="M16,0c2.417,7.5,8,6.583,8,11.542c0,4.583-4.292,6.25-8,6.25V0z"/>
		<path fill="#2B3332" d="M22.212,10.036c-0.896-0.256-2.8,1.162-3.199,2.776s-0.296,2.386,0.208,2.62
			c0.72,0.334,3.273,0.082,3.681-2.252C23.31,10.845,22.631,10.155,22.212,10.036z"/>
		<path fill="#F7F7F7" d="M21.922,10.82c-0.692-0.197-2.162,0.897-2.471,2.143c-0.308,1.246-0.229,1.843,0.161,2.023
			c0.556,0.258,2.527,0.063,2.843-1.739C22.771,11.445,22.246,10.912,21.922,10.82z"/>
		<path fill="#B0D3EA" d="M20.186,11.685c-0.34,0.365-0.619,0.811-0.735,1.278c-0.308,1.246-0.229,1.843,0.161,2.023
			c0.278,0.129,0.91,0.145,1.511-0.097C21.903,13.466,21.37,11.169,20.186,11.685z"/>
		<path fill="#B1E346" d="M20.144,6.111c0.009,0.035,0.014,0.068,0.023,0.103c0.038,0.14-0.121,0.244-0.229,0.15
			C19.503,5.985,19.144,5.69,18.757,5.4c0.003,0.386,0.282,1.291,0.449,2.007c0.034,0.145-0.137,0.242-0.24,0.137
			c-0.55-0.565-1.172-1.401-1.548-1.63c-0.017,0.323-0.124,1.314-0.232,2.166c-0.02,0.16-0.216,0.15-0.296-0.026
			C16.582,7.382,16.255,6.57,16,6.235V0c0.25,0,0.446,0.348,0.5,0.5C17.533,3.399,18.714,4.927,20.144,6.111z"/>
		<path fill="#BEE758" d="M11.856,6.111c-0.009,0.035-0.014,0.068-0.023,0.103c-0.038,0.14,0.121,0.244,0.229,0.15
			c0.436-0.379,0.795-0.674,1.183-0.964c-0.003,0.386-0.282,1.291-0.449,2.007c-0.034,0.145,0.137,0.242,0.24,0.137
			c0.55-0.565,1.172-1.401,1.548-1.63c0.017,0.323,0.124,1.314,0.232,2.166c0.02,0.16,0.216,0.15,0.296-0.026
			C15.418,7.382,15.745,6.57,16,6.235V0c-0.25,0-0.446,0.348-0.5,0.5C14.467,3.399,13.286,4.927,11.856,6.111z"/>
		<ellipse fill="#5CA3D5" cx="20.302" cy="13.542" rx="0.698" ry="1.167"/>
		<path fill="#F7F7F7" d="M19.991,12.832c0.065,0.441-0.094,0.83-0.355,0.868c-0.106,0.016-0.206-0.062-0.299-0.15
			c0.031-0.183,0.059-0.362,0.115-0.586c0.059-0.238,0.162-0.47,0.292-0.689C19.861,12.406,19.956,12.595,19.991,12.832z"/>
		<path fill="#B1E346" d="M24.1,5.495c0.764-1.965,0.315-4.051-1.196-5.283c-0.101-0.082-0.049-0.247,0.065-0.192
			c2.186,1.061,3.226,3.641,2.33,5.945c-0.901,2.317-3.435,3.517-5.774,2.796c-0.109-0.034-0.067-0.187,0.037-0.179
			C21.543,8.735,23.325,7.488,24.1,5.495z"/>
		<path fill="#373F3F" d="M16,16.375c-0.52,0-1.068-0.163-1.336-0.396c-0.103-0.09-0.261-0.08-0.353,0.024
			c-0.091,0.104-0.08,0.262,0.024,0.353c0.361,0.315,1.015,0.52,1.664,0.52V16.375z"/>
		<path fill="#2B3332" d="M17.688,16.003c-0.092-0.104-0.25-0.114-0.353-0.024c-0.268,0.233-0.816,0.396-1.336,0.396v0.5
			c0.649,0,1.303-0.204,1.664-0.52C17.769,16.265,17.779,16.106,17.688,16.003z"/>
	</g>
</g>
</svg>
