<?xml version="1.0" encoding="utf-8"?>
<!-- Generator: Adobe Illustrator 23.0.6, SVG Export Plug-In . SVG Version: 6.00 Build 0)  -->
<svg version="1.1" xmlns="http://www.w3.org/2000/svg" xmlns:xlink="http://www.w3.org/1999/xlink" x="0px" y="0px" width="32px"
	 height="32px" viewBox="0 0 32 32" enable-background="new 0 0 32 32" xml:space="preserve">
<g id="labels">
	<g>
	</g>
</g>
<g id="icons">
	<g>
		<polygon fill="#46B080" points="22.5,29 20,28.372 20,26 18,26 18,30.688 		"/>
		<g>
			<path fill="#D84459" d="M26.611,8.716C24.166,9.029,22,10.207,22,13.667c0,2.222-0.708,4.479-1.417,6.125
				c-1.165,2.706-1.941,4.682-1.954,5.875c0.783-0.578,1.711-1.203,2.829-1.868C25.59,21.34,26.5,13.881,26.611,8.716z"/>
			<path fill="#C84054" d="M20,27c3.084,0,9.56,0.489,11-9c0.977-6.438,0.977-9.102,0.977-9.102
				c-1.35-0.139-3.444-0.428-5.366-0.182C26.5,13.881,25.59,21.34,21.458,23.798c-1.118,0.665-2.046,1.29-2.829,1.868
				C18.62,26.544,19.023,27,20,27z"/>
		</g>
		<path fill="#D84459" d="M28.5,5c-0.706,0-1.361,0.213-1.911,0.573c0.052,1.457,0.066,3.532-0.104,5.782
			C27.056,11.758,27.748,12,28.5,12c1.933,0,3.5-1.567,3.5-3.5S30.433,5,28.5,5z"/>
		<path fill="#E85160" d="M24.5,12c0.737,0,1.419-0.231,1.984-0.62c0.167-2.192,0.158-4.353,0.11-5.807
			C26.008,5.132,25.289,5,24.5,5C22.567,5,21,6.567,21,8.5S22.567,12,24.5,12z"/>
		<circle fill="#53BF8C" cx="22.5" cy="30.5" r="1.5"/>
		<circle fill="#60CD96" cx="21" cy="30.5" r="1.5"/>
		<circle fill="#6EDCA2" cx="19.5" cy="30.5" r="1.5"/>
		<path fill="#53BF8C" d="M25.849,21.541c-0.008,0-0.149,0.004-0.357,0.01c-0.285-1.748-1.33-3.314-2.882-4.222l-2.917-1.708
			c-0.476-0.279-2.646-0.242-2.646-0.242H16V28c0,0,6,0.071,6-4.733c0-2.06-0.912-3.801-1.953-5.121l1.552,0.909
			c0.958,0.561,1.624,1.498,1.87,2.558c-0.227,0.007-0.378,0.012-0.378,0.012c-0.414,0.174-0.706,0.583-0.707,1.061
			c-0.002,0.637,0.513,1.155,1.151,1.157c-0.002,0.637,0.513,1.155,1.151,1.157c0.637,0.002,1.155-0.513,1.157-1.151
			c0.637,0.002,1.155-0.513,1.157-1.151C27.002,22.061,26.487,21.543,25.849,21.541z"/>
		<polygon fill="#53BF8C" points="14,26 12,26 12,28.372 9.5,29 14,30.688 		"/>
		<circle fill="#60CD96" cx="9.5" cy="30.5" r="1.5"/>
		<circle fill="#6EDCA2" cx="11" cy="30.5" r="1.5"/>
		<circle fill="#7AEBAC" cx="12.5" cy="30.5" r="1.5"/>
		<path fill="#60CD96" d="M14.952,15.379c0,0-2.169-0.039-2.646,0.242L9.39,17.33c-1.552,0.909-2.597,2.475-2.882,4.222
			c-0.208-0.006-0.349-0.01-0.357-0.01C5.513,21.543,4.998,22.061,5,22.699c0.002,0.637,0.52,1.153,1.157,1.151
			c0.002,0.637,0.52,1.152,1.157,1.151c0.637-0.002,1.153-0.52,1.151-1.157c0.637-0.002,1.152-0.52,1.151-1.157
			c-0.001-0.478-0.293-0.887-0.707-1.061c0,0-0.151-0.005-0.378-0.012c0.245-1.06,0.912-1.997,1.87-2.558l1.552-0.909
			C10.912,19.466,10,21.207,10,23.267C10,28.071,16,28,16,28V15.379H14.952z"/>
		<path fill="#6EDCA2" d="M13.483,12.621c0,0-3.356,0.08-5.483-1.496l0,0C8,14.163,11.582,17,16,17v-2.172
			C16,14.828,13.483,15.172,13.483,12.621z"/>
		<path fill="#60CD96" d="M24,11.125L24,11.125c-2.127,1.576-5.483,1.496-5.483,1.496c0,2.552-2.517,2.207-2.517,2.207V17
			C20.418,17,24,14.163,24,11.125z"/>
		<path fill="#FCE8CC" d="M11.724,12.494c0,0-0.097,3.506,2.57,4.506H16v-4.506H11.724z"/>
		<g>
			<path fill="#EFD4A7" d="M16,27v-2.442c-1.785,0-3.469-0.278-4.976-0.759C11.281,27.039,16,27,16,27z"/>
			<path fill="#F5DEB9" d="M14.294,17c0,0-3.294,3.007-3.294,6.529c0,0.096,0.017,0.179,0.024,0.269
				c1.507,0.482,3.19,0.759,4.976,0.759V17H14.294z"/>
		</g>
		<path fill="#F5DEB9" d="M20.276,12.494c0,0,0.097,3.506-2.57,4.506H16v-4.506H20.276z"/>
		<g>
			<path fill="#EACEA1" d="M16,27v-2.442c1.785,0,3.469-0.278,4.976-0.759C20.719,27.039,16,27,16,27z"/>
			<path fill="#EFD4A7" d="M17.706,17c0,0,3.294,3.007,3.294,6.529c0,0.096-0.017,0.179-0.024,0.269
				c-1.507,0.482-3.19,0.759-4.976,0.759V17H17.706z"/>
		</g>
		<path fill="#7AEBAC" d="M13.483,12.621C13.483,15.016,16,15,16,15V2.087c-0.001-0.001-0.003-0.003-0.004-0.004
			c-0.035-0.032-1.342-1.199-1.377-1.229C14.072,0.335,13.442,0,12.769,0C10.688,0,9,3.179,9,5.25c0,0.01,0.002,3.208,0.002,3.212
			C8.365,9.251,8,10.158,8,11.125C10.127,12.701,13.483,12.621,13.483,12.621z"/>
		<path fill="#6EDCA2" d="M18.517,12.621c0,0,3.356,0.08,5.483-1.496c0-0.966-0.365-1.873-1.002-2.662C22.998,8.458,23,5.26,23,5.25
			C23,3.179,21.312,0,19.231,0c-0.673,0-1.303,0.335-1.849,0.854c-0.035,0.03-1.342,1.197-1.377,1.229
			C16.003,2.084,16.001,2.085,16,2.087V15C16,15,18.517,14.969,18.517,12.621z"/>
		<g>
			<path fill="#FFEAA7" d="M10.753,4.438c-0.109-0.026-0.218,0.021-0.273,0.118C10.181,5.079,10,5.757,10,6.5c0,1.657,0.895,3,2,3
				s2-1.343,2-3c0-0.042-0.008-0.122-0.008-0.122C12.418,4.943,11.196,4.543,10.753,4.438z"/>
			<ellipse fill="#373F3F" cx="12.104" cy="7.216" rx="0.25" ry="1.25"/>
		</g>
		<g>
			<path fill="#FFE28A" d="M21.247,4.438c0.109-0.026,0.218,0.021,0.273,0.118C21.819,5.079,22,5.757,22,6.5c0,1.657-0.895,3-2,3
				s-2-1.343-2-3c0-0.042,0.008-0.122,0.008-0.122C19.582,4.943,20.804,4.543,21.247,4.438z"/>
			<ellipse fill="#2B3332" cx="19.896" cy="7.216" rx="0.25" ry="1.25"/>
		</g>
	</g>
</g>
</svg>
