<?xml version="1.0" encoding="utf-8"?>
<!-- Generator: Adobe Illustrator 23.0.6, SVG Export Plug-In . SVG Version: 6.00 Build 0)  -->
<svg version="1.1" xmlns="http://www.w3.org/2000/svg" xmlns:xlink="http://www.w3.org/1999/xlink" x="0px" y="0px" width="32px"
	 height="32px" viewBox="0 0 32 32" enable-background="new 0 0 32 32" xml:space="preserve">
<g id="labels">
	<g>
	</g>
</g>
<g id="icons">
	<g>
		<g>
			<g>
				<path fill="#9ACC2E" d="M27.01,23.323c-0.086-0.102,0.027-0.25,0.148-0.193c0.623,0.29,1.679,0.81,2.211,1.233
					c0.532,0.423,1.277,1.334,1.7,1.875c0.082,0.105-0.036,0.249-0.155,0.188c-0.608-0.31-1.637-0.859-2.167-1.28
					C28.216,24.724,27.449,23.846,27.01,23.323z"/>
				<path fill="#A2D336" d="M26.994,23.178c-0.061,0.119,0.082,0.237,0.188,0.155c0.541-0.423,1.453-1.168,1.875-1.7
					c0.423-0.532,0.943-1.588,1.233-2.211c0.057-0.121-0.091-0.234-0.193-0.148c-0.522,0.439-1.401,1.206-1.823,1.736
					S27.304,22.57,26.994,23.178z"/>
				<path fill="#9ACC2E" d="M25.833,23.475c-0.106-0.127,0.033-0.309,0.183-0.239c0.77,0.359,2.076,1.002,2.733,1.525
					c0.658,0.523,1.579,1.65,2.102,2.319c0.102,0.13-0.044,0.308-0.191,0.232c-0.752-0.383-2.024-1.062-2.68-1.583
					S26.375,24.121,25.833,23.475z"/>
				<path fill="#A2D336" d="M25.812,23.295c-0.075,0.147,0.102,0.293,0.232,0.191c0.669-0.523,1.796-1.444,2.319-2.102
					c0.523-0.658,1.166-1.963,1.525-2.733c0.07-0.15-0.112-0.29-0.239-0.183c-0.646,0.543-1.732,1.491-2.254,2.147
					C26.874,21.272,26.195,22.544,25.812,23.295z"/>
				<path fill="#9ACC2E" d="M24.384,23.641c-0.106-0.127,0.033-0.309,0.183-0.239c0.77,0.359,2.076,1.002,2.733,1.525
					c0.658,0.523,1.579,1.65,2.102,2.319c0.102,0.13-0.044,0.308-0.191,0.232c-0.752-0.383-2.024-1.062-2.68-1.583
					C25.875,25.373,24.927,24.287,24.384,23.641z"/>
				<path fill="#A2D336" d="M24.363,23.461c-0.075,0.147,0.102,0.293,0.232,0.191c0.669-0.523,1.796-1.444,2.319-2.102
					c0.523-0.658,1.166-1.963,1.525-2.733c0.07-0.15-0.112-0.29-0.239-0.183c-0.646,0.543-1.732,1.491-2.254,2.147
					C25.425,21.437,24.746,22.709,24.363,23.461z"/>
				<path fill="#9ACC2E" d="M22.935,23.807c-0.106-0.127,0.033-0.309,0.183-0.239c0.77,0.359,2.076,1.002,2.733,1.525
					c0.658,0.523,1.579,1.65,2.102,2.319c0.102,0.13-0.044,0.308-0.191,0.232c-0.752-0.383-2.024-1.062-2.68-1.583
					C24.426,25.539,23.478,24.452,22.935,23.807z"/>
				<path fill="#A2D336" d="M22.914,23.627c-0.075,0.147,0.102,0.293,0.232,0.191c0.669-0.523,1.796-1.444,2.319-2.102
					c0.523-0.658,1.166-1.963,1.525-2.733c0.07-0.15-0.112-0.29-0.239-0.183c-0.646,0.543-1.732,1.491-2.254,2.147
					C23.976,21.603,23.297,22.875,22.914,23.627z"/>
				<path fill="#9ACC2E" d="M21.486,23.972c-0.106-0.127,0.033-0.309,0.183-0.239c0.77,0.359,2.076,1.002,2.733,1.525
					c0.658,0.523,1.579,1.65,2.102,2.319c0.102,0.13-0.044,0.308-0.191,0.232c-0.752-0.383-2.024-1.062-2.68-1.583
					C22.977,25.704,22.029,24.618,21.486,23.972z"/>
				<path fill="#A2D336" d="M21.465,23.792c-0.075,0.147,0.102,0.293,0.232,0.191c0.669-0.523,1.796-1.444,2.319-2.102
					c0.523-0.658,1.166-1.963,1.525-2.733c0.07-0.15-0.112-0.29-0.239-0.183c-0.646,0.543-1.732,1.491-2.254,2.147
					C22.527,21.768,21.849,23.041,21.465,23.792z"/>
				<path fill="#9ACC2E" d="M20.037,24.138c-0.106-0.127,0.033-0.309,0.183-0.239c0.77,0.359,2.076,1.002,2.733,1.525
					c0.658,0.523,1.579,1.65,2.102,2.319c0.102,0.13-0.044,0.308-0.191,0.232c-0.752-0.383-2.024-1.062-2.68-1.583
					C21.528,25.87,20.58,24.784,20.037,24.138z"/>
				<path fill="#A2D336" d="M20.017,23.958c-0.075,0.147,0.102,0.293,0.232,0.191c0.669-0.523,1.796-1.444,2.319-2.102
					c0.523-0.658,1.166-1.963,1.525-2.733c0.07-0.15-0.112-0.29-0.239-0.183c-0.646,0.543-1.732,1.491-2.254,2.147
					C21.078,21.934,20.4,23.206,20.017,23.958z"/>
				<path fill="#9ACC2E" d="M18.588,24.303c-0.106-0.127,0.033-0.309,0.183-0.239c0.77,0.359,2.076,1.002,2.733,1.525
					c0.658,0.523,1.579,1.65,2.102,2.319c0.102,0.13-0.044,0.308-0.191,0.232c-0.752-0.383-2.024-1.062-2.68-1.583
					C20.079,26.035,19.131,24.949,18.588,24.303z"/>
				<path fill="#A2D336" d="M18.568,24.123c-0.075,0.147,0.102,0.293,0.232,0.191c0.669-0.523,1.796-1.444,2.319-2.102
					c0.523-0.658,1.166-1.963,1.525-2.733c0.07-0.15-0.112-0.29-0.239-0.183c-0.646,0.543-1.732,1.491-2.254,2.147
					C19.629,22.1,18.951,23.372,18.568,24.123z"/>
			</g>
			<polygon fill="#A2D336" points="27.359,23.21 28.19,21.675 20.035,22.606 19.203,24.142 			"/>
			<polygon fill="#9ACC2E" points="27.359,23.21 28.515,24.518 20.359,25.45 19.203,24.142 			"/>
		</g>
		<circle fill="#FFEAA7" cx="13.25" cy="12.042" r="1.833"/>
		<circle fill="#FFEAA7" cx="12.375" cy="17.375" r="1.833"/>
		<circle fill="#FFE28A" cx="18.792" cy="12.042" r="1.833"/>
		<circle fill="#FFE28A" cx="19.625" cy="17.292" r="1.833"/>
		<path fill="#AADB3D" d="M25.696,16.25c0,0-0.337,2.752,0.384,4.945c0.504,1.535,1.542,2.843,2.12,3.489
			c0.153,0.171,0.432,0.069,0.436-0.16c0.013-0.837-0.044-2.436-0.554-3.987C27.251,18.01,25.696,16.25,25.696,16.25z"/>
		<path fill="#AADB3D" d="M6.304,16.25c0,0,0.337,2.752-0.384,4.945c-0.504,1.535-1.542,2.843-2.12,3.489
			c-0.153,0.171-0.432,0.069-0.436-0.16c-0.013-0.837,0.044-2.436,0.554-3.987C4.749,18.01,6.304,16.25,6.304,16.25z"/>
		<path fill="#AADB3D" d="M25.696,17.769c0,0-0.337-2.752,0.384-4.945c0.504-1.535,1.542-2.843,2.12-3.489
			c0.153-0.171,0.432-0.069,0.436,0.16c0.013,0.837-0.044,2.436-0.554,3.987C27.251,16.009,25.696,17.769,25.696,17.769z"/>
		<path fill="#AADB3D" d="M6.304,17.769c0,0,0.337-2.752-0.384-4.945c-0.504-1.535-1.542-2.843-2.12-3.489
			c-0.153-0.171-0.432-0.069-0.436,0.16c-0.013,0.837,0.044,2.436,0.554,3.987C4.749,16.009,6.304,17.769,6.304,17.769z"/>
		<path fill="#BEE758" d="M13.5,11.792c-1.219,1.053-6.264,5.044-6.264,5.044l0.776,1.508l5.488-2.727V11.792z"/>
		<path fill="#B1E346" d="M18.72,13.389v-3.222H13.28v3.549c0,2.296-1.209,4.505-2.195,6.579c-0.464,0.976-0.643,2.112-0.423,3.311
			c0.388,2.118,2.066,3.857,4.174,4.295c3.508,0.728,6.595-1.931,6.595-5.31c0-0.787-0.17-1.532-0.474-2.204
			C19.953,18.168,18.72,15.823,18.72,13.389z"/>
		<g>
			<path fill="#BEE758" d="M13.28,10.167v3.549c0,2.296-1.209,4.505-2.195,6.579c-0.464,0.976-0.643,2.112-0.423,3.311
				c0.388,2.118,2.066,3.857,4.174,4.295c0.395,0.082,0.783,0.115,1.164,0.115V10.167H13.28z"/>
		</g>
		<path fill="#B1E346" d="M18.5,11.792c1.219,1.053,6.264,5.044,6.264,5.044l-0.776,1.508L18.5,15.616V11.792z"/>
		<path fill="#B1E346" d="M22.833,17.41c-0.397,0.441-0.615,1.027,0.198,0.996c0.957-0.037,6.269-0.501,6.469-1
			c0.25-0.625,1.125-0.594,0.969,0.25c-0.191,1.03,1.492,0.468,1.529-0.509c0.038-0.977-0.413-1.465-1.052-1.39
			c-0.639,0.075-0.488-0.751-1.427-0.789c-0.939-0.038-1.765,0.627-2.592,0.777c-0.826,0.15-2.615,0.395-3.052,0.504
			C23.208,16.417,23.171,17.035,22.833,17.41z"/>
		<path fill="#B1E346" d="M19.63,21.229l-2.419,2.419c-0.39,0.39-0.35,1.033,0.085,1.371l5.011,3.898l2.019-2.019
			c0.327-0.327,0.359-0.846,0.075-1.21L21,21.315C20.662,20.88,20.019,20.84,19.63,21.229z"/>
		
			<rect x="19.802" y="25.105" transform="matrix(-0.866 -0.5 0.5 -0.866 25.5275 63.2212)" fill="#B1E346" width="2.863" height="6.172"/>
		<path fill="#B1E346" d="M18.158,32h6.211c0.381,0,0.69-0.309,0.69-0.69v0c0-0.862-0.699-1.56-1.56-1.56h-4.827l-0.99,1.278
			C17.375,31.425,17.657,32,18.158,32z"/>
		<path fill="#BEE758" d="M12.37,21.229l2.419,2.419c0.39,0.39,0.35,1.033-0.085,1.371l-5.011,3.898l-2.019-2.019
			c-0.327-0.327-0.359-0.846-0.075-1.21L11,21.315C11.338,20.88,11.981,20.84,12.37,21.229z"/>
		
			<rect x="9.335" y="25.105" transform="matrix(0.866 -0.5 0.5 0.866 -12.6529 9.1599)" fill="#BEE758" width="2.863" height="6.172"/>
		<path fill="#E7685F" d="M16,22.125v1.771c-1.875,0-3.792-0.396-5.378-2.063c0.077-0.544,0.236-1.061,0.463-1.539
			C12.125,21.333,13.708,22.125,16,22.125z"/>
		<path fill="#E55D53" d="M20.914,20.294c0.227,0.478,0.386,0.995,0.463,1.539C19.792,23.5,17.875,23.896,16,23.896v-1.771
			C18.292,22.125,19.875,21.333,20.914,20.294z"/>
		<path fill="#BEE758" d="M13.842,32H7.631c-0.381,0-0.69-0.309-0.69-0.69v0c0-0.862,0.699-1.56,1.56-1.56h4.827l0.99,1.278
			C14.625,31.425,14.343,32,13.842,32z"/>
		<path fill="#E55D53" d="M16,6.347L9,5.46l1.733,3.619c0.268,0.56,0.652,1.041,1.127,1.402c0.651,0.494,1.658,1.205,2.702,1.736
			c0.625,0.318,0.875,0.45,1.438,0.45s0.812-0.132,1.438-0.45c1.043-0.532,2.05-1.242,2.702-1.736
			c0.475-0.361,0.859-0.842,1.127-1.402L23,5.46L16,6.347z"/>
		<path fill="#E7685F" d="M16,6.347L9,5.46l1.733,3.619c0.268,0.56,0.652,1.041,1.127,1.402c0.651,0.494,1.658,1.205,2.702,1.736
			c0.625,0.318,0.875,0.45,1.438,0.45V6.347z"/>
		<path fill="#B1E346" d="M23.015,4.882l-2.955-4.38c-0.302-0.512-0.926-0.657-1.391-0.321C17.634,0.93,16,1.99,16,1.99
			s-1.634-1.06-2.669-1.809c-0.465-0.336-1.089-0.191-1.391,0.321l-2.955,4.38C8.742,5.177,8.826,5.643,9.152,5.817l2.435,1.308
			c0.985,0.529,1.163,1.004,1.913,1.833c0.198,0.219,0.547,0.657,0.708,0.833c0.485,0.53,1.095,0.593,1.792,0.593
			s1.307-0.063,1.792-0.593c0.161-0.176,0.51-0.614,0.708-0.833c0.75-0.829,0.928-1.304,1.913-1.833l2.435-1.308
			C23.174,5.643,23.258,5.177,23.015,4.882z"/>
		<path fill="#BEE758" d="M9.167,17.41c0.397,0.441,0.615,1.027-0.198,0.996c-0.957-0.037-6.269-0.501-6.469-1
			c-0.25-0.625-1.125-0.594-0.969,0.25c0.191,1.03-1.492,0.468-1.529-0.509c-0.038-0.977,0.413-1.465,1.052-1.39
			c0.639,0.075,0.488-0.751,1.427-0.789c0.939-0.038,1.765,0.627,2.592,0.777c0.826,0.15,2.615,0.395,3.052,0.504
			C8.792,16.417,8.829,17.035,9.167,17.41z"/>
		<path fill="#BEE758" d="M13.331,0.181c-0.465-0.336-1.089-0.191-1.391,0.321l-2.955,4.38C8.742,5.177,8.826,5.643,9.152,5.817
			l2.435,1.308c0.985,0.529,1.163,1.004,1.913,1.833c0.198,0.219,0.547,0.657,0.708,0.833c0.485,0.53,1.095,0.593,1.792,0.593V1.99
			C16,1.99,14.366,0.93,13.331,0.181z"/>
		<path fill="#FFE28A" d="M20.273,3.665c0.204-0.105,0.462,0.002,0.517,0.224c0.208,0.836-0.176,1.736-0.976,2.147
			c-0.8,0.411-1.755,0.199-2.314-0.457c-0.148-0.174-0.084-0.446,0.119-0.551L20.273,3.665z"/>
		<g>
			<path fill="#FFEAA7" d="M11.727,3.665c-0.204-0.105-0.462,0.002-0.517,0.224c-0.208,0.836,0.176,1.736,0.976,2.147
				c0.8,0.411,1.755,0.199,2.314-0.457c0.148-0.174,0.084-0.446-0.119-0.551L11.727,3.665z"/>
			<ellipse fill="#373F3F" cx="12.867" cy="5.333" rx="0.25" ry="0.625"/>
		</g>
		<ellipse fill="#2B3332" cx="19.154" cy="5.333" rx="0.25" ry="0.625"/>
		<g>
			<path fill="#B1E346" d="M13.331,0.181c-0.045-0.032-0.096-0.039-0.143-0.063l1.946,3.871c0.192,0.333,0.529,0.5,0.866,0.5V1.99
				C16,1.99,14.366,0.93,13.331,0.181z"/>
			<path fill="#AADB3D" d="M18.669,0.181C17.634,0.93,16,1.99,16,1.99v2.499c0.337,0,0.674-0.167,0.866-0.5l1.946-3.871
				C18.765,0.142,18.714,0.149,18.669,0.181z"/>
		</g>
	</g>
</g>
</svg>
