<?xml version="1.0" encoding="utf-8"?>
<!-- Generator: Adobe Illustrator 23.0.6, SVG Export Plug-In . SVG Version: 6.00 Build 0)  -->
<svg version="1.1" xmlns="http://www.w3.org/2000/svg" xmlns:xlink="http://www.w3.org/1999/xlink" x="0px" y="0px" width="32px"
	 height="32px" viewBox="0 0 32 32" enable-background="new 0 0 32 32" xml:space="preserve">
<g id="labels">
	<g>
	</g>
</g>
<g id="icons">
	<g>
		<path fill="#B0D3EA" d="M31.753,17.745c-0.823-3.583-9.972-0.036-11.571,4.3c-1.599,4.336,0.719,5.265,1.834,5.691
			C25.686,29.138,33.345,24.676,31.753,17.745z"/>
		<path fill="#9FC9E4" d="M20.623,26.979c0.465,0.397,1.003,0.607,1.393,0.756c3.187,1.218,9.379-1.985,9.915-7.386
			C28.022,21.097,21.383,25.27,20.623,26.979z"/>
		<path fill="#C1DDEE" d="M31.753,17.745c-0.823-3.583-9.972-0.036-11.571,4.3c-0.353,0.957-0.515,1.748-0.541,2.404
			C19.547,26.766,23.217,19.453,31.753,17.745z"/>
		
			<ellipse transform="matrix(0.866 -0.5 0.5 0.866 -13.5377 9.5353)" fill="#5BD3D5" cx="11.024" cy="30.029" rx="2.759" ry="1.625"/>
		<path fill="#5BD3D5" d="M12.584,17.854c-1.681,0.571-8.587,2.881-8.756,3.659c-0.169,0.778,0.096,2.641,2.297,2.326
			s8.304-2.7,8.304-2.7L12.584,17.854z"/>
		<path fill="#56C7CD" d="M16,0c-2.563,0-3.75,4.625-2.375,8.312L16,8.562V0z"/>
		<path fill="#D2E6F3" d="M16,17.551c-1.425,0-2.852-0.339-3.735,0.778c-1.167,1.478-2.49,4.212-2.49,6.224
			C9.776,27.991,12.563,30,16,30V17.551z"/>
		<path fill="#5BD3D5" d="M14.5,0.632c-0.292,0.798-0.411,2.663-0.263,4.476C10.528,5.96,7.75,9.397,7.75,12.96
			c0,4.109,3.694,6.824,8.25,6.824V0C15.427,0,14.922,0.231,14.5,0.632z"/>
		<path fill="#E2EFF7" d="M16,13.854c-4.557,0-7.621,1.889-7.455,2.182C9.87,18.369,12.71,19.784,16,19.784V13.854z"/>
		<path fill="#FF9A7E" d="M8.606,9.531c-0.318,0.62-0.544,1.277-0.687,1.95l-1.631,0.602c-0.213,0.078-0.261,0.358-0.086,0.503
			l1.013,0.843l-2.079,1.325c-0.24,0.153-0.145,0.523,0.139,0.542l2.563,0.173l-0.369,0.856c-0.09,0.208,0.08,0.436,0.305,0.409
			l1.142-0.134c0.291,0.403,0.626,0.777,1.008,1.111C12.39,15.622,10.696,9.36,8.606,9.531z"/>
		<g>
			<ellipse fill="#373F3F" cx="13.343" cy="11.188" rx="1" ry="1.25"/>
			<circle fill="#FFFFFF" cx="13.364" cy="10.688" r="0.5"/>
		</g>
		
			<ellipse transform="matrix(0.5 -0.866 0.866 0.5 -15.5181 33.1803)" fill="#56C7CD" cx="20.976" cy="30.029" rx="1.625" ry="2.759"/>
		<path fill="#56C7CD" d="M19.538,17.854c1.681,0.571,8.465,2.881,8.634,3.659c0.169,0.778-0.096,2.641-2.297,2.326
			s-8.304-2.7-8.304-2.7L19.538,17.854z"/>
		<path fill="#51BAC5" d="M16,0c2.562,0,3.75,4.625,2.375,8.312L16,8.562V0z"/>
		<path fill="#C1DDEE" d="M16,17.551c1.425,0,2.852-0.339,3.735,0.778c1.167,1.478,2.49,4.212,2.49,6.224
			C22.224,27.991,19.438,30,16,30V17.551z"/>
		<path fill="#56C7CD" d="M17.763,5.108c0.148-1.812,0.029-3.677-0.263-4.476C17.078,0.231,16.573,0,16,0v8.562l0,11.222
			c4.557,0,8.25-2.714,8.25-6.824C24.251,9.397,21.472,5.96,17.763,5.108z"/>
		<path fill="#D2E6F3" d="M16,13.854c4.557,0,7.621,1.889,7.455,2.182c-1.325,2.334-4.165,3.749-7.455,3.749V13.854z"/>
		<path fill="#FF8D6E" d="M26.863,14.754l-2.079-1.325l1.013-0.843c0.174-0.145,0.126-0.424-0.086-0.503l-1.631-0.602
			c-0.143-0.673-0.369-1.33-0.687-1.95c-2.09-0.171-3.785,6.09-1.318,8.18c0.382-0.334,0.717-0.708,1.008-1.111l1.142,0.134
			c0.225,0.026,0.395-0.201,0.305-0.409l-0.369-0.856l2.563-0.173C27.009,15.277,27.103,14.907,26.863,14.754z"/>
		<g>
			<ellipse fill="#2B3332" cx="18.657" cy="11.188" rx="1" ry="1.25"/>
			<circle fill="#F7F7F7" cx="18.636" cy="10.688" r="0.5"/>
		</g>
	</g>
</g>
</svg>
