<?xml version="1.0" encoding="utf-8"?>
<!-- Generator: Adobe Illustrator 23.0.6, SVG Export Plug-In . SVG Version: 6.00 Build 0)  -->
<svg version="1.1" xmlns="http://www.w3.org/2000/svg" xmlns:xlink="http://www.w3.org/1999/xlink" x="0px" y="0px" width="32px"
	 height="32px" viewBox="0 0 32 32" enable-background="new 0 0 32 32" xml:space="preserve">
<g id="labels">
	<g>
	</g>
</g>
<g id="icons">
	<g>
		<path fill="#FFD96C" d="M24.475,17.658l-2.95,0.218l0.649-9.41c0.041-0.599,0.91-0.63,0.994-0.036L24.475,17.658z"/>
		<path fill="#FFD04D" d="M25.538,16.834L22.6,16.49l2.417-9.117c0.154-0.58,1.012-0.447,0.983,0.153L25.538,16.834z"/>
		<path fill="#7A63AD" d="M26.08,28.284c-0.068-0.117-0.069-0.25-0.027-0.374c0.008-0.024,0.005-0.05,0.018-0.073l0.436-0.821
			l0.431-0.788c0.041-0.075,0.057-0.157,0.054-0.238c0.002-0.084-0.014-0.167-0.059-0.243l-0.852-1.459
			c-0.033-0.057-0.049-0.119-0.053-0.181c0-0.055,0.006-0.111,0.024-0.166c0.008-0.024,0.005-0.05,0.018-0.073l0.437-0.823
			l0.435-0.795c0.041-0.076,0.056-0.158,0.052-0.24c0-0.053-0.02-0.104-0.039-0.155c-0.006-0.014-0.004-0.03-0.011-0.044
			l-0.003-0.005c-0.004-0.009-0.003-0.019-0.008-0.028l-0.093-0.159l-0.797-1.477c-0.004-0.007-0.011-0.012-0.015-0.019
			c-0.002-0.061,0.008-0.123,0.028-0.183c0.008-0.025,0.006-0.051,0.019-0.075l0.868-1.584c0.076-0.138,0.076-0.3,0.001-0.439
			l-0.901-1.67c-0.06-0.111-0.164-0.199-0.291-0.245L21.5,16l-1.056-0.035v14.577L18.275,32H21.5h2.225
			c1.009,0,1.929-0.313,2.675-0.822l0.537-0.981c0.079-0.143,0.076-0.312-0.006-0.453L26.08,28.284z"/>
		<path fill="#866EBA" d="M21.003,8.668l-1.712-2.287c-0.192-0.257-0.342-0.544-0.444-0.848l-1.732-5.191
			C17.046,0.138,16.855,0,16.64,0H16h-0.64c-0.215,0-0.406,0.138-0.474,0.342l-1.732,5.191c-0.102,0.305-0.252,0.591-0.444,0.848
			l-1.712,2.287C10.35,9.533,10,10.584,10,11.664V28c0,2.209,1.791,4,4,4h2h2c2.209,0,4-1.791,4-4V11.664
			C22,10.584,21.65,9.533,21.003,8.668z"/>
		<path fill="#9179C6" d="M16,0v32h-2c-2.209,0-4-1.791-4-4V11.664c0-1.08,0.35-2.132,0.997-2.996l1.712-2.287
			c0.192-0.257,0.342-0.543,0.444-0.848l1.732-5.191C14.954,0.138,15.145,0,15.36,0H16z"/>
		<path fill="#F7F7F7" d="M9.679,23.929l-2.377-0.972c-0.404-0.165-0.404-0.749,0-0.914l2.377-0.972
			C10.312,20.813,11,21.289,11,21.985v1.029C11,23.711,10.312,24.187,9.679,23.929z"/>
		<path fill="#EDEEEE" d="M9.679,28.929l-2.377-0.972c-0.404-0.165-0.404-0.749,0-0.914l2.377-0.972
			C10.312,25.813,11,26.289,11,26.985v1.029C11,28.711,10.312,29.187,9.679,28.929z"/>
		<path fill="#EDEEEE" d="M22.321,23.929l2.377-0.972c0.404-0.165,0.404-0.749,0-0.914l-2.377-0.972
			C21.688,20.813,21,21.289,21,21.985v1.029C21,23.711,21.688,24.187,22.321,23.929z"/>
		<path fill="#E3E5E5" d="M22.321,28.929l2.377-0.972c0.404-0.165,0.404-0.749,0-0.914l-2.377-0.972
			C21.688,25.813,21,26.289,21,26.985v1.029C21,28.711,21.688,29.187,22.321,28.929z"/>
		<path fill="#E3E5E5" d="M11.848,23.909c0.039,0.125,0.039,0.26-0.023,0.379l-0.766,1.459c-0.073,0.14-0.076,0.306-0.008,0.448
			l0.784,1.642c0.011,0.023,0.009,0.049,0.016,0.073c1.255,0.298,2.694,0.465,4.148,0.465v-4
			C14.544,24.375,13.104,24.207,11.848,23.909z"/>
		<path fill="#EDEEEE" d="M16,17.938l-3.879,1.959c-0.115,0.047-0.208,0.134-0.262,0.245l-0.81,1.67
			c-0.067,0.139-0.067,0.301,0.001,0.439l0.78,1.584c0.012,0.023,0.009,0.05,0.017,0.075c1.256,0.298,2.696,0.466,4.152,0.466
			V17.938z"/>
		<path fill="#DADDDC" d="M16,24.375v4c1.455,0,2.894-0.167,4.148-0.465c0.007-0.024,0.005-0.05,0.016-0.073l0.784-1.642
			c0.068-0.142,0.065-0.308-0.008-0.448l-0.766-1.459c-0.062-0.118-0.062-0.253-0.023-0.379C18.896,24.207,17.456,24.375,16,24.375z
			"/>
		<path fill="#E3E5E5" d="M20.949,22.25c0.068-0.138,0.069-0.3,0.001-0.439l-0.81-1.67c-0.054-0.111-0.147-0.199-0.262-0.245
			L16,17.938v6.438c1.456,0,2.896-0.168,4.152-0.466c0.008-0.025,0.005-0.051,0.017-0.075L20.949,22.25z"/>
		<path fill="#D1D4D4" d="M20.944,30.197c0.071-0.143,0.068-0.312-0.006-0.453l-0.766-1.459c-0.061-0.117-0.062-0.25-0.024-0.374
			c-1.255,0.298-2.694,0.465-4.148,0.465V32h2.056c0.907,0,1.734-0.313,2.405-0.822L20.944,30.197z"/>
		<path fill="#DADDDC" d="M11.827,28.284l-0.766,1.459c-0.074,0.141-0.076,0.31-0.006,0.453l0.483,0.981
			C12.21,31.687,13.037,32,13.944,32H16v-3.625c-1.455,0-2.894-0.167-4.148-0.465C11.889,28.034,11.888,28.167,11.827,28.284z"/>
		<path fill="#EDEEEE" d="M17.5,12.29c-0.539,0-1.044,0.151-1.5,0.4v7.201c0.456,0.249,0.961,0.4,1.5,0.4c1.933,0,3.5-1.791,3.5-4
			C21,14.081,19.433,12.29,17.5,12.29z"/>
		<path fill="#F7F7F7" d="M16,12.69c-0.456-0.249-0.961-0.4-1.5-0.4c-1.726,0-3.152,1.431-3.439,3.31v1.38
			c0.287,1.879,1.713,3.31,3.439,3.31c0.539,0,1.044-0.151,1.5-0.4V12.69z"/>
		<g>
			<path fill="#FFE28A" d="M15.543,5.303l-0.972,2.377C14.313,8.312,14.789,9,15.485,9H16V5C15.813,5,15.626,5.101,15.543,5.303z"/>
			<path fill="#FFD96C" d="M17.429,7.679l-0.972-2.377C16.374,5.101,16.187,5,16,5v4h0.515C17.211,9,17.687,8.312,17.429,7.679z"/>
		</g>
		<path fill="#FFE28A" d="M21.5,11c-1.381,0-2.5,1.567-2.5,3.5s1.119,3.5,2.5,3.5s2.5-1.567,2.5-3.5S22.881,11,21.5,11L21.5,11z"/>
		<path fill="#FFEAA7" d="M10.5,11C9.119,11,8,12.567,8,14.5S9.119,18,10.5,18s2.5-1.567,2.5-3.5S11.881,11,10.5,11L10.5,11z"/>
		<g>
			<g>
				<ellipse fill="#373F3F" cx="10.5" cy="14.5" rx="1.5" ry="2.5"/>
			</g>
			<g>
				<ellipse fill="#373F3F" cx="10.5" cy="14.5" rx="1.5" ry="2.5"/>
			</g>
		</g>
		<g>
			<g>
				<ellipse fill="#2B3332" cx="21.5" cy="14.5" rx="1.5" ry="2.5"/>
			</g>
			<g>
				<ellipse fill="#2B3332" cx="21.5" cy="14.5" rx="1.5" ry="2.5"/>
			</g>
		</g>
	</g>
</g>
</svg>
