<?xml version="1.0" encoding="utf-8"?>
<!-- Generator: Adobe Illustrator 23.0.6, SVG Export Plug-In . SVG Version: 6.00 Build 0)  -->
<svg version="1.1" xmlns="http://www.w3.org/2000/svg" xmlns:xlink="http://www.w3.org/1999/xlink" x="0px" y="0px" width="32px"
	 height="32px" viewBox="0 0 32 32" enable-background="new 0 0 32 32" xml:space="preserve">
<g id="labels">
	<g>
	</g>
</g>
<g id="icons">
	<g>
		<g>
			<path fill="#58B7AE" d="M16,15.125c-8.837,0-16-2.239-16-5s7.163-5,16-5V15.125z"/>
			<path fill="#67BFB5" d="M16,1C7.163,1,0,3.239,0,6v4.125c0-2.761,7.163-5,16-5V1z"/>
			<path fill="#4EAFA3" d="M16,15.125c8.837,0,16-2.239,16-5s-7.163-5-16-5V15.125z"/>
			<path fill="#58B7AE" d="M16,1c8.837,0,16,2.239,16,5v4.125c0-2.761-7.163-5-16-5V1z"/>
		</g>
		<path fill="#73475F" d="M16,30c-6.075,0-11-3.736-11-8.946S7.5,10.24,16,10V30z"/>
		<path fill="#693F56" d="M16,26.9c-6.042,0-9.625-2.227-10.587-3.315c0.213,0.629,0.512,1.22,0.874,1.775
			c0.169,0.971,0.94,3.561,1.695,3.636c0.447,0.045,0.903-0.315,1.269-0.798c0.024,0.015,0.048,0.031,0.073,0.046
			c0.313,1.102,0.938,2.691,1.545,2.752c0.628,0.063,1.269-0.674,1.66-1.429C13.621,29.848,14.786,30,16,30V26.9z"/>
		<circle fill="#FFFFFF" cx="10.5" cy="17.5" r="1.5"/>
		<circle fill="#373F3F" cx="10.5" cy="17.5" r="0.5"/>
		<path fill="#693F56" d="M16,30c6.075,0,11-3.736,11-8.946S24.5,10.24,16,10V30z"/>
		<path fill="#5D374C" d="M26.587,23.585C25.625,24.672,22.042,26.9,16,26.9V30c1.214,0,2.379-0.152,3.471-0.433
			c0.391,0.754,1.032,1.492,1.66,1.429c0.607-0.061,1.233-1.65,1.545-2.752c0.025-0.015,0.048-0.031,0.073-0.046
			c0.367,0.483,0.822,0.843,1.269,0.798c0.756-0.076,1.526-2.665,1.695-3.636C26.075,24.805,26.374,24.214,26.587,23.585z"/>
		<circle fill="#F7F7F7" cx="21.5" cy="17.5" r="1.5"/>
		<circle fill="#2B3332" cx="21.5" cy="17.5" r="0.5"/>
	</g>
	<path fill="#FFD04D" d="M8.815,22.448c-0.375-0.183-0.375-0.713,0-0.895C10.025,20.963,12.531,20,16,20s5.975,0.963,7.185,1.552
		c0.375,0.183,0.375,0.713,0,0.895C21.975,23.037,19.469,24,16,24S10.025,23.037,8.815,22.448z"/>
	<path fill="#FFD96C" d="M16,20c-3.469,0-5.975,0.963-7.185,1.552c-0.375,0.183-0.375,0.713,0,0.895C10.025,23.037,12.531,24,16,24
		V20z"/>
</g>
</svg>
