<?xml version="1.0" encoding="utf-8"?>
<!-- Generator: Adobe Illustrator 23.0.6, SVG Export Plug-In . SVG Version: 6.00 Build 0)  -->
<svg version="1.1" xmlns="http://www.w3.org/2000/svg" xmlns:xlink="http://www.w3.org/1999/xlink" x="0px" y="0px" width="32px"
	 height="32px" viewBox="0 0 32 32" enable-background="new 0 0 32 32" xml:space="preserve">
<g id="labels">
	<g>
	</g>
</g>
<g id="icons">
	<path fill="#E3E5E5" d="M24,5c-2.5-3.583-6.417-4-8-4s-5.5,0.417-8,4C7.035,6.384,6.174,7.833,9.917,7.833
		C11.417,7.833,11,10.417,11,12h5h5c0-1.583-0.417-4.167,1.083-4.167C25.826,7.833,24.965,6.384,24,5z"/>
	<path fill="#EDEEEE" d="M11,12c0-1.583,0.417-4.167-1.083-4.167C6.174,7.833,7.035,6.384,8,5c2.5-3.583,6.417-4,8-4v11H11z"/>
	<g>
		<path fill="#DADDDC" d="M20.937,24.5c3.092-0.079,11.735-9.197,11.021-19.188L26.25,3.647c0,0,0.317,6.422-1.269,9.911
			c-1.967,4.327-5.074,6.977-5.074,6.977L20.937,24.5z"/>
		<path fill="#7FB8E0" d="M31.044,8.246H30.97c-0.505,0-0.914-0.409-0.914-0.914V1.548c0-0.505,0.409-0.914,0.914-0.914h0.075
			c0.505,0,0.914,0.409,0.914,0.914v5.783C31.958,7.837,31.549,8.246,31.044,8.246z"/>
		<path fill="#8EC0E0" d="M29.141,7.77h-0.075c-0.505,0-0.914-0.409-0.914-0.914V1.073c0-0.505,0.409-0.914,0.914-0.914h0.075
			c0.505,0,0.914,0.409,0.914,0.914v5.783C30.055,7.361,29.646,7.77,29.141,7.77z"/>
		<path fill="#9FC9E4" d="M27.238,7.612h-0.075c-0.505,0-0.914-0.409-0.914-0.914V0.914C26.25,0.409,26.659,0,27.164,0h0.075
			c0.505,0,0.914,0.409,0.914,0.914v5.783C28.152,7.202,27.743,7.612,27.238,7.612z"/>
	</g>
	<g>
		<path fill="#E3E5E5" d="M11.063,24.5C7.97,24.421-0.672,15.303,0.042,5.312L5.75,3.647c0,0-0.317,6.422,1.269,9.911
			c1.967,4.327,5.074,6.977,5.074,6.977L11.063,24.5z"/>
		<path fill="#8EC0E0" d="M0.956,8.246H1.03c0.505,0,0.914-0.409,0.914-0.914V1.548c0-0.505-0.409-0.914-0.914-0.914H0.956
			c-0.505,0-0.914,0.409-0.914,0.914v5.783C0.042,7.837,0.451,8.246,0.956,8.246z"/>
		<path fill="#9FC9E4" d="M2.859,7.77h0.075c0.505,0,0.914-0.409,0.914-0.914V1.073c0-0.505-0.409-0.914-0.914-0.914H2.859
			c-0.505,0-0.914,0.409-0.914,0.914v5.783C1.945,7.361,2.354,7.77,2.859,7.77z"/>
		<path fill="#B0D3EA" d="M4.762,7.612h0.075c0.505,0,0.914-0.409,0.914-0.914V0.914C5.75,0.409,5.341,0,4.836,0H4.762
			C4.257,0,3.848,0.409,3.848,0.914v5.783C3.848,7.202,4.257,7.612,4.762,7.612z"/>
	</g>
	<path fill="#B0D3EA" d="M13.187,28.837c-0.336,0.807-0.952,2.436-1.201,3.1c-0.044,0.117-0.204,0.13-0.267,0.022l-0.546-0.935
		c-0.021-0.036-0.068-0.048-0.104-0.025l-1.373,0.865c-0.105,0.066-0.239-0.017-0.227-0.14l0.161-1.586
		c0.004-0.043-0.029-0.081-0.072-0.082l-1.1-0.024c-0.122-0.003-0.189-0.144-0.113-0.24l2.44-3.103L13.187,28.837z"/>
	<path fill="#9FC9E4" d="M18.813,28.837c0.336,0.807,0.952,2.436,1.201,3.1c0.044,0.117,0.204,0.13,0.267,0.022l0.546-0.935
		c0.021-0.036,0.068-0.048,0.104-0.025l1.373,0.865c0.105,0.066,0.239-0.017,0.227-0.14l-0.161-1.586
		c-0.004-0.043,0.029-0.081,0.072-0.082l1.1-0.024c0.122-0.003,0.189-0.144,0.113-0.24l-2.44-3.103L18.813,28.837z"/>
	<ellipse fill="#FFFFFF" cx="13.5" cy="8.708" rx="1.792" ry="2.542"/>
	<path fill="#373F3F" d="M13.83,8.38h-1.098c-0.16,0-0.282-0.15-0.246-0.307c0.123-0.539,0.432-0.923,0.795-0.923
		s0.672,0.383,0.795,0.923C14.111,8.229,13.99,8.38,13.83,8.38z M13.281,10.037c0.363,0,0.672-0.383,0.795-0.923
		c0.036-0.156-0.086-0.307-0.246-0.307h-1.098c-0.16,0-0.282,0.15-0.246,0.307C12.609,9.654,12.917,10.037,13.281,10.037z"/>
	<ellipse fill="#F7F7F7" cx="18.5" cy="8.708" rx="1.792" ry="2.542"/>
	<path fill="#2B3332" d="M18.719,7.15c0.363,0,0.672,0.383,0.795,0.923c0.036,0.156-0.086,0.307-0.246,0.307H18.17
		c-0.16,0-0.282-0.15-0.246-0.307C18.048,7.534,18.356,7.15,18.719,7.15z M19.269,8.808H18.17c-0.16,0-0.282,0.15-0.246,0.307
		c0.123,0.539,0.432,0.923,0.795,0.923c0.363,0,0.672-0.383,0.795-0.923C19.55,8.958,19.429,8.808,19.269,8.808z"/>
	<path fill="#F7C845" d="M6,13.573C6,20.488,8,30,16,30s10-9.512,10-16.427H6z"/>
	<path fill="#FFD04D" d="M16,13.573H6C6,20.488,8,30,16,30V13.573z"/>
	<path fill="#9FC9E4" d="M16,1c-1.302,0-4.183,0.282-6.556,2.376c2.806,0,5.962,2.791,5.962,8.624H16h0.594
		c0-5.833,3.156-8.624,5.962-8.624C20.183,1.282,17.302,1,16,1z"/>
	<path fill="#B0D3EA" d="M16,1c-1.302,0-4.183,0.282-6.556,2.376c2.806,0,5.962,2.791,5.962,8.624L16,12V1z"/>
	<path fill="#FFD04D" d="M27.693,13.759C26.317,12.342,22.96,11,20,11c-3.833,0-1.583-1.917-4-1.917S15.833,11,12,11
		c-2.96,0-6.317,1.342-7.693,2.759c-0.359,0.37,0.015,0.976,0.508,0.825C5.862,14.262,7.519,13.889,9.334,14
		c2.269,0.139,4.785,1,6.666,1s4.397-0.861,6.666-1c1.815-0.111,3.472,0.262,4.519,0.584C27.678,14.735,28.053,14.129,27.693,13.759
		z"/>
	<path fill="#FFD96C" d="M16,9.083c-2.417,0-0.167,1.917-4,1.917c-2.96,0-6.317,1.342-7.693,2.759
		c-0.359,0.37,0.015,0.976,0.508,0.825C5.862,14.262,7.519,13.889,9.334,14c2.269,0.139,4.785,1,6.666,1V9.083z"/>
</g>
</svg>
