<?xml version="1.0" encoding="utf-8"?>
<!-- Generator: Adobe Illustrator 23.0.6, SVG Export Plug-In . SVG Version: 6.00 Build 0)  -->
<svg version="1.1" xmlns="http://www.w3.org/2000/svg" xmlns:xlink="http://www.w3.org/1999/xlink" x="0px" y="0px" width="32px"
	 height="32px" viewBox="0 0 32 32" enable-background="new 0 0 32 32" xml:space="preserve">
<g id="labels">
	<g>
	</g>
</g>
<g id="icons">
	<g>
		<ellipse fill="#EF8C48" cx="16" cy="18" rx="14" ry="11"/>
		<path fill="#E8803A" d="M30,18c0-6.075-6.268-11-14-11v22C23.732,29,30,24.075,30,18z"/>
		<ellipse fill="#F79654" cx="10" cy="28.5" rx="3" ry="2.5"/>
		<ellipse fill="#EF8C48" cx="22" cy="28.5" rx="3" ry="2.5"/>
		<path fill="#FFF3D9" d="M30.496,15.75c-0.002-0.003-0.004-0.005-0.006-0.008c-0.408-0.485-0.715-1.044-0.889-1.654
			c-1.112-3.904-4.456-7.055-8.806-8.415c-0.475-0.148-0.783-0.624-0.687-1.111c0.115-0.581,0.035-1.077-0.279-1.391
			c-0.432-0.432-1.208-0.418-2.078-0.068C17.412,1.857,16.759,1,16,1s-1.412,0.857-1.751,2.104c-0.869-0.35-1.646-0.364-2.078,0.068
			c-0.314,0.314-0.394,0.81-0.279,1.391c0.096,0.488-0.212,0.963-0.687,1.111c-4.35,1.36-7.694,4.511-8.806,8.415
			c-0.174,0.61-0.48,1.169-0.889,1.654c-0.002,0.003-0.004,0.005-0.006,0.008c-1.775,2.115-2.014,4.837-0.533,6.08
			c1.053,0.883,2.689,0.765,4.186-0.128C5.323,22.63,5.763,23.405,6.5,23.83c1.151,0.664,2.675,0.308,3.968-0.745
			c0.468,0.982,1.223,1.673,2.164,1.839c1.255,0.221,2.513-0.555,3.368-1.88c0.855,1.326,2.113,2.102,3.368,1.88
			c0.941-0.166,1.696-0.857,2.164-1.839c1.293,1.054,2.817,1.41,3.968,0.745c0.737-0.425,1.177-1.201,1.342-2.128
			c1.497,0.893,3.133,1.012,4.186,0.128C32.509,20.588,32.271,17.866,30.496,15.75z"/>
		<path fill="#FDEBBB" d="M31.028,21.83c1.481-1.242,1.242-3.965-0.533-6.08c-0.002-0.003-0.004-0.005-0.006-0.008
			c-0.408-0.485-0.715-1.044-0.889-1.654c-0.073-0.257-0.181-0.502-0.274-0.752C26.591,12.755,21.911,12,16,12
			S5.409,12.755,2.673,13.337c-0.092,0.25-0.2,0.495-0.274,0.752c-0.174,0.61-0.48,1.169-0.889,1.654
			c-0.002,0.003-0.004,0.005-0.006,0.008c-1.775,2.115-2.014,4.837-0.533,6.08c1.053,0.883,2.689,0.765,4.186-0.128
			C5.323,22.63,5.763,23.405,6.5,23.83c1.151,0.664,2.675,0.308,3.968-0.745c0.468,0.982,1.223,1.673,2.164,1.839
			c1.255,0.221,2.513-0.555,3.368-1.88c0.855,1.326,2.113,2.102,3.368,1.88c0.941-0.166,1.696-0.857,2.164-1.839
			c1.293,1.054,2.817,1.41,3.968,0.745c0.737-0.425,1.177-1.201,1.342-2.128C28.339,22.595,29.976,22.714,31.028,21.83z"/>
		<path fill="#FDEBBB" d="M19.368,24.924c0.941-0.166,1.696-0.857,2.164-1.839c1.293,1.054,2.817,1.41,3.968,0.745
			c0.737-0.425,1.177-1.201,1.342-2.128c1.497,0.893,3.133,1.012,4.186,0.128c1.481-1.242,1.242-3.965-0.533-6.08
			c-0.002-0.003-0.004-0.005-0.006-0.008c-0.408-0.485-0.715-1.044-0.889-1.654c-1.112-3.904-4.456-7.055-8.806-8.415
			c-0.475-0.148-0.783-0.624-0.687-1.111c0.115-0.581,0.035-1.077-0.279-1.391c-0.432-0.432-1.208-0.418-2.078-0.068
			C17.412,1.857,16.759,1,16,1v22.044C16.855,24.369,18.113,25.145,19.368,24.924z"/>
		<path fill="#FAE09F" d="M19.368,24.924c0.941-0.166,1.696-0.857,2.164-1.839c1.293,1.054,2.817,1.41,3.968,0.745
			c0.737-0.425,1.177-1.201,1.342-2.128c1.497,0.893,3.133,1.012,4.186,0.128c1.481-1.242,1.242-3.965-0.533-6.08
			c-0.002-0.003-0.004-0.005-0.006-0.008c-0.408-0.485-0.715-1.044-0.889-1.654c-0.073-0.257-0.181-0.502-0.274-0.752
			C26.591,12.755,21.911,12,16,12v11.044C16.855,24.369,18.113,25.145,19.368,24.924z"/>
		<ellipse fill="#373F3F" cx="11.5" cy="14" rx="0.5" ry="1"/>
		<ellipse fill="#2B3332" cx="20.5" cy="14" rx="0.5" ry="1"/>
		<circle fill="#F79654" cx="6.5" cy="17.5" r="2.5"/>
		<circle fill="#EF8C48" cx="25.5" cy="17.5" r="2.5"/>
		<circle fill="#FCA15E" cx="11.5" cy="9.5" r="1.5"/>
		<path fill="#F79654" d="M25.749,8.336c-0.756-0.628-1.591-1.182-2.497-1.652c-0.146,0.232-0.234,0.504-0.234,0.799
			c0,0.828,0.672,1.5,1.5,1.5C25.028,8.982,25.478,8.726,25.749,8.336z"/>
		<g>
			<path fill="#373F3F" d="M11.323,17.323c-0.098,0.098-0.098,0.256,0,0.354c0.049,0.049,0.113,0.073,0.177,0.073
				s0.128-0.024,0.177-0.073c0.814-0.814,3.178-2.927,4.323-2.927v-0.5C14.415,14.25,11.449,17.198,11.323,17.323z"/>
			<path fill="#2B3332" d="M20.677,17.323C20.551,17.198,17.585,14.25,16,14.25v0.5c1.145,0,3.509,2.113,4.323,2.927
				c0.098,0.098,0.256,0.098,0.354,0S20.774,17.421,20.677,17.323z"/>
		</g>
	</g>
</g>
</svg>
