<?xml version="1.0" encoding="utf-8"?>
<!-- Generator: Adobe Illustrator 23.0.6, SVG Export Plug-In . SVG Version: 6.00 Build 0)  -->
<svg version="1.1" xmlns="http://www.w3.org/2000/svg" xmlns:xlink="http://www.w3.org/1999/xlink" x="0px" y="0px" width="32px"
	 height="32px" viewBox="0 0 32 32" enable-background="new 0 0 32 32" xml:space="preserve">
<g id="labels">
	<g>
	</g>
</g>
<g id="icons">
	<g>
		<path fill="#E3E5E5" d="M30,30c-0.186-0.027-0.75,0-0.75,0C29.112,30,29,29.888,29,29.75v-6.596c0-2.783-0.341-5.555-1.016-8.255
			l-0.07-0.282c-0.552-2.207-2.275-3.858-4.401-4.405l-1.197-4.388c-0.313-1.147-0.929-2.142-1.735-2.934l0.382-1.147
			c0.065-0.195-0.121-0.381-0.316-0.316l-1.382,0.461C18.294,1.327,17.18,1,16,1v11v15.578c0.414,0,0.828,0.026,1.24,0.077
			l2.475,0.309c0.15,0.019,0.25,0.166,0.211,0.312L19,31.75c0,0.138,0.112,0.25,0.25,0.25H25c0-1.105-0.895-2-2-2h-1l0.943-0.943
			C23.62,28.38,24,27.462,24,26.505v-0.003c0-1.505-0.934-2.852-2.343-3.38c-0.181-0.068-0.275-0.266-0.214-0.449l1.761-5.283
			c0.08-0.24,0.425-0.223,0.481,0.024l3.257,13.348c0.037,0.151,0.142,0.276,0.284,0.339l1.525,0.673L31,31
			C31,30.448,30.549,30.078,30,30z"/>
		<path fill="#7F6858" d="M19,4c-1.105,0-3,1.895-3,3c0,2,1.895,2,3,2s2-1,2-3C21,4.895,20.105,4,19,4z"/>
		<path fill="#F7F7F7" d="M18.9,5.25c-0.608,0-1.1,0.492-1.1,1.1c0,1.1,0.492,1.65,1.1,1.65S20,7.45,20,6.35
			C20,5.742,19.508,5.25,18.9,5.25z"/>
		<ellipse fill="#E7685F" cx="16" cy="8.25" rx="2" ry="1.25"/>
		<path fill="#7F6858" d="M16,10h4.234c0.144,0,0.267,0.125,0.254,0.269C20.227,13,16,13,16,13V10z"/>
		<path fill="#F7F7F7" d="M17.268,10l0.698,1.396c0.069,0.138,0.266,0.138,0.335,0L19,10H17.268z"/>
		<path fill="#EDEEEE" d="M12.735,1.888l-1.382-0.461c-0.195-0.065-0.381,0.121-0.316,0.316l0.382,1.147
			c-0.806,0.792-1.422,1.787-1.735,2.934l-1.197,4.388c-2.126,0.547-3.849,2.198-4.401,4.405l-0.07,0.282
			C3.341,17.599,3,20.371,3,23.154v6.596C3,29.888,2.888,30,2.75,30c0,0-0.564-0.027-0.75,0c-0.549,0.078-1,0.448-1,1l2.25,0.773
			l1.525-0.673c0.142-0.063,0.247-0.188,0.284-0.339l3.257-13.348c0.056-0.247,0.401-0.264,0.481-0.024l1.761,5.283
			c0.061,0.183-0.034,0.382-0.214,0.449C8.934,23.65,8,24.997,8,26.502v0.003c0,0.957,0.38,1.875,1.057,2.552L10,30H9
			c-1.105,0-2,0.895-2,2h5.75c0.138,0,0.25-0.112,0.25-0.25l-0.926-3.473c-0.039-0.146,0.06-0.294,0.211-0.312l2.475-0.309
			c0.412-0.052,0.826-0.077,1.24-0.077V12V1C14.82,1,13.706,1.327,12.735,1.888z"/>
		<path fill="#876F5D" d="M12.93,4c1.105,0,3,1.895,3,3c0,2-1.895,2-3,2s-2-1-2-3C10.93,4.895,11.825,4,12.93,4z"/>
		<path fill="#FFFFFF" d="M13.1,5.25c0.608,0,1.1,0.492,1.1,1.1c0,1.1-0.492,1.65-1.1,1.65C12.492,8,12,7.45,12,6.35
			C12,5.742,12.492,5.25,13.1,5.25z"/>
		<circle fill="#373F3F" cx="13.375" cy="6.875" r="0.375"/>
		<path fill="#E9746A" d="M14,8.25c0,0.69,0.895,1.25,2,1.25V7C14.895,7,14,7.56,14,8.25z"/>
		<path fill="#876F5D" d="M16,10h-4.234c-0.144,0-0.267,0.125-0.254,0.269C11.773,13,16,13,16,13V10z"/>
		<path fill="#FFFFFF" d="M14.732,10l-0.698,1.396c-0.069,0.138-0.266,0.138-0.335,0L13,10H14.732z"/>
		<path fill="#2B3332" d="M18.25,6.875c0-0.207,0.168-0.375,0.375-0.375C18.832,6.5,19,6.668,19,6.875S18.832,7.25,18.625,7.25
			C18.418,7.25,18.25,7.082,18.25,6.875z M31.988,31.938c0.154-0.178-1.255-1.885-1.626-1.816c-0.371,0.069-0.498,0.567-0.616,0.975
			C30.165,31.385,31.834,32.116,31.988,31.938z"/>
		<path fill="#8E7763" d="M28.75,31.773c-0.009-0.425-0.036-0.938,0.297-1.115c0.333-0.177,2.188,1.03,2.094,1.247
			S29.236,31.922,28.75,31.773z"/>
		<g>
			<path fill="#8E7763" d="M0.012,31.938c-0.154-0.178,1.255-1.885,1.626-1.816c0.371,0.069,0.498,0.567,0.616,0.975
				C1.835,31.385,0.166,32.116,0.012,31.938z"/>
			<path fill="#988371" d="M0.859,31.905c-0.094-0.216,1.761-1.423,2.094-1.247s0.306,0.69,0.297,1.115
				C2.764,31.922,0.952,32.121,0.859,31.905z"/>
		</g>
		<path fill="#D64F45" d="M17.371,2.499c-0.02-0.049-0.024-0.103-0.011-0.154l0.509-2.034c0.052-0.207-0.163-0.38-0.354-0.284
			L16.488,0.54c-0.063-0.126-0.127-0.254-0.181-0.355C16.242,0.061,16.121,0,16,0h0v7c1.16,0,2-0.84,2-2
			C18,4.541,17.769,3.474,17.371,2.499z"/>
		<path fill="#DD564C" d="M14.629,2.499c0.02-0.049,0.024-0.103,0.011-0.154l-0.509-2.034c-0.052-0.207,0.163-0.38,0.354-0.284
			l1.025,0.513c0.063-0.126,0.127-0.254,0.181-0.355C15.758,0.061,15.879,0,16,0h0v7c-1.16,0-2-0.84-2-2
			C14,4.541,14.231,3.474,14.629,2.499z"/>
		<path fill="#DADDDC" d="M24.175,11.385l1.469-0.722c0.238-0.117,0.154-0.474-0.11-0.474h-1.96c-0.079,0-0.152,0.036-0.199,0.099
			c-0.155,0.206-0.51,0.678-0.663,0.853c-0.151,0.173-0.836,0.982-1.165,1.255c-0.326,0.27-1.068,0.679-1.431,0.901
			c-0.287,0.175-0.99,0.48-1.461,0.679c-0.19,0.08-0.206,0.341-0.029,0.446l1.306,0.767c0.142,0.084,0.325,0.009,0.368-0.15
			l0.195-0.719c0.037-0.136,0.18-0.215,0.315-0.173l1.135,0.349c0.15,0.046,0.306-0.056,0.322-0.213l0.109-1.032
			c0.014-0.138,0.138-0.237,0.276-0.222l1.777,0.193c0.2,0.022,0.343-0.19,0.247-0.368l-0.608-1.123
			C23.998,11.604,24.047,11.448,24.175,11.385z"/>
		<path fill="#E3E5E5" d="M7.825,11.385l-1.469-0.722c-0.238-0.117-0.154-0.474,0.11-0.474h1.96c0.079,0,0.152,0.036,0.199,0.099
			c0.155,0.206,0.51,0.678,0.663,0.853c0.151,0.173,0.836,0.982,1.165,1.255c0.325,0.27,1.068,0.679,1.431,0.901
			c0.287,0.175,0.99,0.48,1.461,0.679c0.19,0.08,0.206,0.341,0.029,0.446l-1.306,0.767c-0.142,0.084-0.325,0.009-0.368-0.15
			l-0.195-0.719c-0.037-0.136-0.18-0.215-0.315-0.173l-1.135,0.349c-0.15,0.046-0.306-0.056-0.322-0.213L9.627,13.25
			c-0.014-0.138-0.138-0.237-0.276-0.222L7.574,13.22c-0.2,0.022-0.343-0.19-0.247-0.368l0.608-1.123
			C8.002,11.604,7.953,11.448,7.825,11.385z"/>
		<path fill="#E3E5E5" d="M10.557,22.672c0.036,0.107,0.013,0.216-0.044,0.305c2.364,0.039,2.986,0.992,5.486,0.992l0-1.719
			c-3.364-0.121-6.142-1.675-6.142-1.675L10.557,22.672z"/>
		<path fill="#DADDDC" d="M21.443,22.672c-0.036,0.107-0.013,0.216,0.044,0.305C19.122,23.016,18.5,23.969,16,23.969l0-1.719
			c3.364-0.121,6.142-1.675,6.142-1.675L21.443,22.672z"/>
	</g>
</g>
</svg>
