<?xml version="1.0" encoding="utf-8"?>
<!-- Generator: Adobe Illustrator 23.0.6, SVG Export Plug-In . SVG Version: 6.00 Build 0)  -->
<svg version="1.1" xmlns="http://www.w3.org/2000/svg" xmlns:xlink="http://www.w3.org/1999/xlink" x="0px" y="0px" width="32px"
	 height="32px" viewBox="0 0 32 32" enable-background="new 0 0 32 32" xml:space="preserve">
<g id="labels">
	<g>
	</g>
</g>
<g id="icons">
	<g>
		<path fill="#EFD4A7" d="M16,11c-6.075,0-10,0.925-10,7s6,11,10,11V11z"/>
		<path fill="#FCE8CC" d="M16,19.612C15.089,20.549,13.643,21,12,21c-2.522,0-5.433-1.037-5.921-3.319
			c0.45-3.961,3.013-5.234,6.955-5.571c1.212,0.255,2.251,0.958,2.966,1.918V19.612z"/>
		<path fill="#8D5B36" d="M24.661,23L24.661,23C26.145,24.269,27,26.124,27,28.077v0.513c0,0.238,0.168,0.444,0.402,0.49
			l3.794,0.759C31.664,29.933,32,30.343,32,30.82v0.68c0,0.276-0.224,0.5-0.5,0.5h-8c-0.276,0-0.5-0.224-0.5-0.5v-2.161
			c0-0.205-0.125-0.389-0.315-0.465l-3.435-1.187L24.661,23z"/>
		<path fill="#EACEA1" d="M16,11c6.075,0,10,0.925,10,7s-6,11-10,11V11z"/>
		<path fill="#F5DEB9" d="M16,19.612C16.911,20.549,18.357,21,20,21c2.522,0,5.433-1.037,5.921-3.319
			c-0.45-3.961-3.013-5.234-6.955-5.571c-1.212,0.255-2.251,0.958-2.966,1.918V19.612z"/>
		<path fill="#96643B" d="M7.339,23L7.339,23C5.855,24.269,5,26.124,5,28.077v0.513c0,0.238-0.168,0.444-0.402,0.49l-3.794,0.759
			C0.336,29.933,0,30.343,0,30.82l0,0.68C0,31.776,0.224,32,0.5,32h8C8.776,32,9,31.776,9,31.5v-2.161
			c0-0.205,0.125-0.389,0.315-0.465l3.435-1.187L7.339,23z"/>
		<path fill="#F5DEB9" d="M23.524,26.5l-2.293,2.293c-0.391,0.391-1.024,0.391-1.414,0l-1.086-1.086
			c-0.391-0.391-0.391-1.024,0-1.414L19.024,26l-0.646-0.646c-0.195-0.195-0.195-0.512,0-0.707l0.5-0.5
			C18.971,24.053,19.098,24,19.231,24h1.793L23.524,26.5z"/>
		<path fill="#96643B" d="M24.024,20l-3.927,3.927c-0.047,0.047-0.073,0.11-0.073,0.177v0.646c0,0.138,0.112,0.25,0.25,0.25h0.5
			c0.138,0,0.25,0.112,0.25,0.25v0.5c0,0.138,0.112,0.25,0.25,0.25h0.5c0.138,0,0.25,0.112,0.25,0.25v0.5
			c0,0.138,0.112,0.25,0.25,0.25h0.664c0.066,0,0.13-0.026,0.177-0.073l6.386-6.386c0.319-0.319,0.385-0.813,0.16-1.205
			l-2.195-3.825C26.574,13.958,24.92,13,23.129,13h-4.105L24.024,20z"/>
		<path fill="#FCE8CC" d="M8.5,26.5l2.293,2.293c0.391,0.391,1.024,0.391,1.414,0l1.086-1.086c0.391-0.391,0.391-1.024,0-1.414
			L13,26l0.646-0.646c0.195-0.195,0.195-0.512,0-0.707l-0.5-0.5C13.053,24.053,12.925,24,12.793,24H11L8.5,26.5z"/>
		<path fill="#9E6E43" d="M8,20l3.927,3.927C11.974,23.974,12,24.037,12,24.104v0.646c0,0.138-0.112,0.25-0.25,0.25h-0.5
			C11.112,25,11,25.112,11,25.25v0.5c0,0.138-0.112,0.25-0.25,0.25h-0.5C10.112,26,10,26.112,10,26.25v0.5
			C10,26.888,9.888,27,9.75,27H9.086c-0.066,0-0.13-0.026-0.177-0.073l-6.386-6.386c-0.319-0.319-0.385-0.813-0.16-1.205
			l2.195-3.825C5.45,13.958,7.104,13,8.895,13H13L8,20z"/>
		<path fill="#EDEEEE" d="M26.716,9.548c0.18-0.18,0.052-0.487-0.202-0.487h-1.329c-0.105,0-0.174-0.11-0.128-0.205l0.64-1.322
			c0.119-0.245-0.141-0.501-0.384-0.379l-1.119,0.559c-0.19,0.095-0.412-0.043-0.412-0.255V5.189c0-0.254-0.307-0.381-0.487-0.202
			L21.8,6l-0.136,3.062H16v7.04c0.123,0.039,0.268,0.005,0.34-0.138l0.345-0.69c0.105-0.21,0.405-0.21,0.51,0l0.63,1.261
			c0.105,0.21,0.405,0.21,0.51,0l0.758-1.516c0.07-0.141,0.242-0.198,0.382-0.128l1.613,0.806c0.19,0.095,0.412-0.043,0.412-0.255
			v-0.284c0-0.195,0.191-0.332,0.375-0.27l2.393,0.798c0.241,0.08,0.459-0.171,0.345-0.398l-0.626-1.253
			c-0.095-0.19,0.043-0.413,0.255-0.413h1.358c0.212,0,0.35-0.223,0.255-0.413l-0.842-1.684c-0.055-0.11-0.033-0.242,0.053-0.329
			L26.716,9.548z"/>
		<path fill="#F7F7F7" d="M5.284,9.548c-0.18-0.18-0.052-0.487,0.202-0.487h1.329c0.105,0,0.174-0.11,0.128-0.205l-0.64-1.322
			C6.184,7.29,6.443,7.034,6.687,7.156l1.119,0.559C7.995,7.81,8.218,7.672,8.218,7.46V5.189c0-0.254,0.307-0.381,0.487-0.202
			L10.2,6l0.136,3.062H16v7.04c-0.123,0.039-0.268,0.005-0.34-0.138l-0.345-0.69c-0.105-0.21-0.405-0.21-0.51,0l-0.63,1.261
			c-0.105,0.21-0.405,0.21-0.51,0l-0.758-1.516c-0.07-0.141-0.242-0.198-0.382-0.128l-1.613,0.806
			c-0.19,0.095-0.412-0.043-0.412-0.255v-0.284c0-0.195-0.191-0.332-0.375-0.27l-2.393,0.798c-0.241,0.08-0.459-0.171-0.345-0.398
			l0.626-1.253c0.095-0.19-0.043-0.413-0.255-0.413H6.399c-0.212,0-0.35-0.223-0.255-0.413l0.842-1.684
			c0.055-0.11,0.033-0.242-0.053-0.329L5.284,9.548z"/>
		<path fill="#EDEEEE" d="M18.196,2.515c-0.059,1.103-0.553,1.973-1.105,1.944c-0.552-0.029-0.951-0.947-0.892-2.05
			C16.258,1.305,16.902-0.029,17.454,0C18.005,0.03,18.255,1.412,18.196,2.515z"/>
		<path fill="#F5DEB9" d="M16,12c3.219,0,7.542,0.027,7.542-3c0-2.414-1.609-4.039-2.042-5.556C20.507-0.039,17.225,1,16,1V12z"/>
		<g>
			<path fill="#DB7383" d="M21.627,9.568L21.4,9h0.717c0.123,0,0.173,0.161,0.071,0.23C22.006,9.353,21.819,9.465,21.627,9.568z
				 M16,9v1.7c0,0,1.831,0.026,3.789-0.445L20.291,9H16z"/>
			<path fill="#F7F7F7" d="M21.069,8.173c-0.092-0.23-0.355-0.23-0.447,0l-0.833,2.083c0.619-0.149,1.248-0.37,1.838-0.688
				L21.069,8.173z"/>
		</g>
		<path fill="#EDEEEE" d="M13.804,2.515c0.059,1.103,0.553,1.973,1.105,1.944c0.552-0.029,0.951-0.947,0.892-2.05
			C15.742,1.305,15.098-0.029,14.546,0C13.995,0.03,13.745,1.412,13.804,2.515z"/>
		<path fill="#FCE8CC" d="M16,12c-3.219,0-7.542,0.027-7.542-3c0-2.414,1.609-4.039,2.042-5.556C11.493-0.039,14.775,1,16,1V12z"/>
		<g>
			<path fill="#DD7C8A" d="M9.883,9H10.6l-0.227,0.568C10.181,9.465,9.994,9.353,9.812,9.23C9.71,9.161,9.76,9,9.883,9z M11.709,9
				l0.502,1.255C14.169,10.726,16,10.7,16,10.7V9H11.709z"/>
			<path fill="#FFFFFF" d="M10.931,8.173c0.092-0.23,0.355-0.23,0.447,0l0.833,2.083c-0.619-0.149-1.248-0.37-1.838-0.688
				L10.931,8.173z"/>
		</g>
		<g>
			<g>
				<ellipse fill="#8D5B36" cx="18.75" cy="4.5" rx="2.25" ry="2"/>
				<circle fill="#F7F7F7" cx="18.75" cy="4.5" r="1.5"/>
				<ellipse fill="#2B3332" cx="18.75" cy="4.5" rx="0.5" ry="0.75"/>
			</g>
			<path fill="#EACEA1" d="M18.75,2.5c-1.243,0-2.25,0.895-2.25,2H21C21,3.395,19.993,2.5,18.75,2.5z"/>
		</g>
		<g>
			<g>
				<ellipse fill="#96643B" cx="13.25" cy="4.5" rx="2.25" ry="2"/>
				<circle fill="#FFFFFF" cx="13.25" cy="4.5" r="1.5"/>
				<ellipse fill="#373F3F" cx="13.25" cy="4.5" rx="0.5" ry="0.75"/>
			</g>
			<path fill="#EFD4A7" d="M13.25,2.5c-1.243,0-2.25,0.895-2.25,2h4.5C15.5,3.395,14.493,2.5,13.25,2.5z"/>
		</g>
		<g>
			<path fill="#E59FA8" d="M16,9.319c1.343,0,2.837-1.151,2.433-2.433C17.748,4.719,16,6.278,16,6.278V9.319z"/>
			<ellipse fill="#2B3332" cx="17" cy="7.25" rx="0.5" ry="0.75"/>
			<path fill="#E8AAB1" d="M16,9.319c-1.343,0-2.837-1.151-2.433-2.433C14.252,4.719,16,6.278,16,6.278V9.319z"/>
			<ellipse fill="#373F3F" cx="15" cy="7.25" rx="0.5" ry="0.75"/>
		</g>
	</g>
</g>
</svg>
