<?xml version="1.0" encoding="utf-8"?>
<!-- Generator: Adobe Illustrator 23.0.2, SVG Export Plug-In . SVG Version: 6.00 Build 0)  -->
<svg version="1.1" xmlns="http://www.w3.org/2000/svg" xmlns:xlink="http://www.w3.org/1999/xlink" x="0px" y="0px" width="32px"
	 height="32px" viewBox="0 0 32 32" enable-background="new 0 0 32 32" xml:space="preserve">
<g id="labels">
	<g>
	</g>
</g>
<g id="icons">
	<g>
		<path fill="#5C6664" d="M16,2C7.163,2,1,7.163,1,16c0,3.91,3.507,7.485,7,11.138c2.551,2.667,4.588,4.792,8,4.792
			s5.449-2.124,8-4.792c3.493-3.653,7-7.228,7-11.138C31,7.163,24.837,2,16,2z"/>
		<path fill="#687271" d="M16,2C7.163,2,1,7.163,1,16c0,0.97,0.217,1.918,0.594,2.853C4.599,22.471,9.919,24,16,24
			s11.401-1.529,14.406-5.147C30.783,17.918,31,16.97,31,16C31,7.163,24.837,2,16,2z"/>
		<path fill="#757F7E" d="M16,2C9.691,2,4.759,4.644,2.445,9.367C5.549,12.33,10.457,13.602,16,13.602s10.451-1.273,13.555-4.236
			C27.241,4.644,22.309,2,16,2z"/>
		<path fill="#D1D4D4" d="M23,20l4.431-2.658c0.285-0.171,0.655-0.021,0.74,0.3l3.661,13.73C31.917,31.689,31.678,32,31.349,32
			h-1.926c-0.244,0-0.453-0.177-0.493-0.418l-1.841-11.048c-0.048-0.288-0.331-0.474-0.614-0.403L23,21V20z"/>
		<path fill="#DADDDC" d="M20.447,20.761c-0.944,2.595-1.47,5.85-0.173,6.322c1.297,0.472,3.457-2.188,4.401-4.783
			c0.944-2.595,0.658-5.081-0.639-5.554C22.739,16.274,21.391,18.166,20.447,20.761z"/>
		<path fill="#E3E5E5" d="M22.144,19.534c-0.42,1.155-0.654,2.604-0.077,2.814s1.539-0.974,1.959-2.129
			c0.42-1.155,0.293-2.262-0.284-2.472C23.165,17.537,22.565,18.379,22.144,19.534z"/>
		<path fill="#687271" d="M16,2v29.929c-3.412,0-5.449-2.124-8-4.792C4.507,23.485,1,19.91,1,16C1,7.163,7.163,2,16,2z"/>
		<path fill="#757F7E" d="M16,2v22c-6.081,0-11.401-1.529-14.406-5.147C1.217,17.918,1,16.97,1,16C1,7.163,7.163,2,16,2z"/>
		<path fill="#838C8A" d="M16,2v11.602c-5.543,0-10.451-1.273-13.555-4.236C4.759,4.644,9.691,2,16,2z"/>
		<path fill="#E6F490" d="M0.288,6.786L0.288,6.786c2.441,1.226,5.135,1.865,7.866,1.865H9l2.333-3.318L0.743,0.064
			C0.41-0.122,0,0.119,0,0.501l0,5.832C0,6.527,0.112,6.704,0.288,6.786z"/>
		<path fill="#DADDDC" d="M9,20l-4.431-2.658c-0.285-0.171-0.655-0.021-0.74,0.3l-3.661,13.73C0.083,31.689,0.322,32,0.651,32h1.926
			c0.244,0,0.453-0.177,0.493-0.418l1.841-11.048c0.048-0.288,0.331-0.474,0.614-0.403L9,21V20z"/>
		<path fill="#E3E5E5" d="M11.553,20.761c0.944,2.595,1.47,5.85,0.173,6.322c-1.297,0.472-3.457-2.188-4.401-4.783
			s-0.658-5.081,0.639-5.554S10.609,18.166,11.553,20.761z"/>
		<path fill="#EDEEEE" d="M9.856,19.534c0.42,1.155,0.654,2.604,0.077,2.814s-1.539-0.974-1.959-2.129
			c-0.42-1.155-0.293-2.262,0.284-2.472S9.435,18.379,9.856,19.534z"/>
		<path fill="#D9F07D" d="M31.712,6.786L31.712,6.786c-2.441,1.226-5.135,1.865-7.866,1.865H23l-2.333-3.318l10.591-5.27
			C31.59-0.122,32,0.119,32,0.501v5.832C32,6.527,31.888,6.704,31.712,6.786z"/>
		<path fill="#E3E5E5" d="M16,4.006C11.583,4.007,8,5.583,8,10c0,2.461,1.482,3.973,3.681,5.715c0.98,0.777,2.219,1.715,3.118,2.39
			c0.356,0.267,0.779,0.401,1.201,0.401s0.845-0.134,1.201-0.401c0.899-0.674,2.138-1.613,3.118-2.39C22.518,13.973,24,12.461,24,10
			C24,5.583,20.417,4.007,16,4.006z"/>
		<path fill="#373F3F" d="M22.5,10c0,1.657-1.119,3-2.5,3s-2-1.343-2-3s0.619-3,2-3S22.5,8.343,22.5,10z"/>
		<ellipse fill="#CBEB6B" cx="20" cy="10" rx="1.5" ry="2"/>
		<ellipse fill="#2B3332" cx="20" cy="10" rx="0.75" ry="1"/>
		<path fill="#F7F7F7" d="M18.356,21.902L18.356,21.902c-0.54,0.048-1.008-0.369-1.023-0.911l-0.181-6.778
			c-0.004-0.132,0.096-0.244,0.228-0.256l0.528-0.047c0.131-0.012,0.249,0.081,0.269,0.211l1.023,6.703
			C19.283,21.36,18.895,21.854,18.356,21.902z"/>
		<path fill="#EDEEEE" d="M16,4.006v14.499c-0.422,0-0.845-0.134-1.201-0.401c-0.899-0.674-2.138-1.613-3.118-2.39
			C9.482,13.973,8,12.461,8,10C8,5.583,11.583,4.007,16,4.006z"/>
		<path fill="#434C4B" d="M9.5,10c0,1.657,1.119,3,2.5,3s2-1.343,2-3s-0.619-3-2-3S9.5,8.343,9.5,10z"/>
		<ellipse fill="#D9F07D" cx="12" cy="10" rx="1.5" ry="2"/>
		<ellipse fill="#373F3F" cx="12" cy="10" rx="0.75" ry="1"/>
		<path fill="#FFFFFF" d="M13.644,21.902L13.644,21.902c0.54,0.048,1.008-0.369,1.023-0.911l0.181-6.778
			c0.004-0.132-0.096-0.244-0.228-0.256l-0.528-0.047c-0.131-0.012-0.249,0.081-0.269,0.211l-1.023,6.703
			C12.717,21.36,13.105,21.854,13.644,21.902z"/>
	</g>
</g>
</svg>
