<?xml version="1.0" encoding="utf-8"?>
<!-- Generator: Adobe Illustrator 23.0.6, SVG Export Plug-In . SVG Version: 6.00 Build 0)  -->
<svg version="1.1" xmlns="http://www.w3.org/2000/svg" xmlns:xlink="http://www.w3.org/1999/xlink" x="0px" y="0px" width="32px"
	 height="32px" viewBox="0 0 32 32" enable-background="new 0 0 32 32" xml:space="preserve">
<g id="labels">
	<g>
	</g>
</g>
<g id="icons">
	<g>
		<path fill="#FFD96C" d="M31.258,18.302l-5.117-1.544c-0.094-0.028-0.191-0.043-0.289-0.043H18l3.627,9l4.382,0.876
			c0.378,0.076,0.765-0.073,0.996-0.381l4.764-6.352C32.186,19.303,31.923,18.502,31.258,18.302z"/>
		<path fill="#FEF1C6" d="M18,16.715c0,0,3.246-11.37,6-14c1.115-1.065,4.791-2.156,6.748-2.68C31.383-0.136,32,0.345,32,1.003
			v12.992c0,0.43-0.275,0.813-0.684,0.949L26,16.715H18z"/>
		<path fill="#FFEAA7" d="M26,16.715l5.316-1.772C31.725,14.807,32,14.424,32,13.994V4.506c-2.193,0.592-6.143,1.778-7.357,2.937
			c-1.587,1.515-3.322,5.653-4.62,9.272H26z"/>
		<path fill="#FFE28A" d="M26,16.715l5.316-1.772C31.725,14.807,32,14.424,32,13.994V8.869c-2.403,0.766-4.98,1.755-6,2.729
			c-1.038,0.992-2.128,2.887-3.162,5.116H26z"/>
		<path fill="#FF805D" d="M30.748,0.034C31.383-0.136,32,0.345,32,1.003v3.504l-3.742-3.742C29.176,0.469,30.066,0.217,30.748,0.034
			z"/>
		<path fill="#F57552" d="M32,4.506v4.363l-3.351-3.351C29.854,5.107,31.081,4.754,32,4.506z"/>
		<path fill="#EB6B48" d="M27.754,10.49c1.21-0.588,2.76-1.147,4.246-1.621v5.125c0,0.23-0.083,0.443-0.219,0.615
			C31.072,13.862,28.811,11.487,27.754,10.49z"/>
		<path fill="#3A3333" d="M8,19c0-5.523,2.477-10,8-10s8,4.477,8,10s-2.477,13-8,13S8,24.523,8,19z"/>
		<path fill="#4F4949" d="M16,26.5c3.841,0,6.062-1.75,7.581-3.397C23.863,21.709,24,20.3,24,19c0-5.523-2.477-10-8-10V26.5z"/>
		<path fill="#5A5353" d="M23.596,15.382C22.693,11.647,20.247,9,16,9v11C21.523,20,23.868,16.504,23.596,15.382z"/>
		<path fill="#FFE28A" d="M0.742,18.302l5.117-1.544c0.094-0.028,0.191-0.043,0.289-0.043H14l-3.627,9l-4.382,0.876
			c-0.378,0.076-0.765-0.073-0.996-0.381l-4.764-6.352C-0.186,19.303,0.077,18.502,0.742,18.302z"/>
		<path fill="#413B3B" d="M16,32c-5.523,0-8-7.477-8-13s2.477-10,8-10V32z"/>
		<path fill="#FFF5D8" d="M14,16.715c0,0-3.246-11.37-6-14C6.885,1.65,3.209,0.559,1.252,0.034C0.617-0.136,0,0.345,0,1.003
			l0,12.992c0,0.43,0.275,0.813,0.684,0.949L6,16.715H14z"/>
		<path fill="#FEF1C6" d="M6,16.715l-5.316-1.772C0.275,14.807,0,14.424,0,13.994l0-9.488c2.193,0.592,6.143,1.778,7.357,2.937
			c1.587,1.515,3.322,5.653,4.62,9.272H6z"/>
		<path fill="#FFEAA7" d="M6,16.715l-5.316-1.772C0.275,14.807,0,14.424,0,13.994l0-5.125c2.403,0.766,4.98,1.755,6,2.729
			c1.038,0.992,2.128,2.887,3.162,5.116H6z"/>
		<path fill="#5A5353" d="M16,26.5c-3.841,0-6.062-1.75-7.581-3.397C8.137,21.709,8,20.3,8,19c0-5.523,2.477-10,8-10V26.5z"/>
		<path fill="#635C5C" d="M8.404,15.382C9.307,11.647,11.753,9,16,9v11C10.477,20,8.132,16.504,8.404,15.382z"/>
		<path fill="#FFEAA7" d="M13.553,19.761c0.944,2.595,1.47,5.85,0.173,6.322c-1.297,0.472-3.457-2.188-4.401-4.783
			c-0.944-2.595-0.658-5.081,0.639-5.554S12.609,17.166,13.553,19.761z"/>
		<path fill="#FEF1C6" d="M11.856,18.534c0.42,1.155,0.654,2.604,0.077,2.814s-1.539-0.974-1.959-2.129
			c-0.42-1.155-0.293-2.262,0.284-2.472S11.435,17.379,11.856,18.534z"/>
		<path fill="#FFD04D" d="M21.989,9.14C21.991,9.082,22,9.023,22,8.965c0-0.489-0.095-0.961-0.255-1.41l-0.732-4.76
			c-0.009-0.054-0.022-0.106-0.039-0.158L20.2,0.23c-0.072-0.215-0.37-0.231-0.464-0.025L18,4.07l0.001,0.004
			C17.35,3.845,16.67,3.715,16,3.715c-2.899,0-6,2.351-6,5.25c0,2.9,3.101,5.75,6,5.75c2.818,0,5.816-2.692,5.984-5.505L22,9.215
			L21.989,9.14z"/>
		<path fill="#FFE28A" d="M13.999,4.074L14,4.07l-1.736-3.865C12.17-0.001,11.872,0.015,11.8,0.23l-0.774,2.408
			c-0.017,0.051-0.03,0.104-0.039,0.158l-0.732,4.76C10.095,8.004,10,8.476,10,8.965c0,0.059,0.009,0.117,0.011,0.175L10,9.215
			l0.016-0.005c0.168,2.813,3.166,5.505,5.984,5.505v-11C15.33,3.715,14.65,3.845,13.999,4.074z"/>
		<path fill="#FFE28A" d="M18.447,19.761c-0.944,2.595-1.47,5.85-0.173,6.322c1.297,0.472,3.457-2.188,4.401-4.783
			c0.944-2.595,0.658-5.081-0.639-5.554C20.739,15.274,19.391,17.166,18.447,19.761z"/>
		<path fill="#FFEAA7" d="M20.144,18.534c-0.42,1.155-0.654,2.604-0.077,2.814s1.539-0.974,1.959-2.129
			c0.42-1.155,0.293-2.262-0.284-2.472C21.165,16.537,20.565,17.379,20.144,18.534z"/>
		<path fill="#8D8888" d="M10.824,11.606c0.928,1.476,2.523,2.645,4.176,2.996V12c0,0-1.534-0.009-2.792-0.146
			C11.726,11.802,11.258,11.71,10.824,11.606z"/>
		<path fill="#413B3B" d="M14,7.715c0,0.37,0.108,0.829,0.283,1.276c-0.531-0.012-1.041-0.038-1.526-0.101
			c-1.012-0.13-1.916-0.317-2.706-0.538C10.02,8.553,10,8.757,10,8.965c0,0.524,0.104,1.08,0.288,1.638
			C11.98,10.907,14.307,11,16,11v-0.285V9V5.715C14.895,5.715,14,6.61,14,7.715z"/>
		<g>
			<path fill="#F57552" d="M12,9.715c0,1.105,0.105,2-1,2s-2-0.895-2-2s0.895-2,2-2S12,8.61,12,9.715z"/>
			<ellipse fill="#FF805D" cx="11" cy="9.715" rx="1" ry="2"/>
			<path fill="#FFFFFF" d="M11.501,9.715c0,0.552-0.224,1-0.5,1c-0.276,0-1-0.448-1-1c0-0.552,0.724-1,1-1
				C11.277,8.715,11.501,9.163,11.501,9.715z"/>
		</g>
		<path fill="#3A3333" d="M21.949,8.352c-0.791,0.221-1.695,0.408-2.706,0.538c-0.485,0.062-0.995,0.089-1.526,0.101
			C17.892,8.544,18,8.085,18,7.715c0-1.105-0.895-2-2-2V9v1.715V11c1.693,0,4.02-0.093,5.712-0.397C21.896,10.045,22,9.489,22,8.965
			C22,8.757,21.98,8.553,21.949,8.352z"/>
		<path fill="#807A7A" d="M21.176,11.606c-0.928,1.476-2.523,2.645-4.176,2.996V12c0,0,1.534-0.009,2.792-0.146
			C20.274,11.802,20.742,11.71,21.176,11.606z"/>
		<path fill="#EB6B48" d="M20.001,9.715c0,1.105-0.105,2,1,2c1.105,0,2-0.895,2-2s-0.895-2-2-2
			C19.897,7.715,20.001,8.61,20.001,9.715z"/>
		<ellipse fill="#F57552" cx="21.001" cy="9.715" rx="1" ry="2"/>
		<path fill="#F7F7F7" d="M20.499,9.715c0,0.552,0.224,1,0.5,1s1-0.448,1-1c0-0.552-0.724-1-1-1S20.499,9.163,20.499,9.715z"/>
		<path fill="#FF8D6E" d="M1.252,0.034C0.617-0.136,0,0.345,0,1.003v3.504l3.742-3.742C2.824,0.469,1.934,0.217,1.252,0.034z"/>
		<path fill="#FF805D" d="M0,4.506v4.363l3.351-3.351C2.146,5.107,0.919,4.754,0,4.506z"/>
		<path fill="#F57552" d="M4.246,10.49C3.036,9.902,1.486,9.343,0,8.869v5.125c0,0.23,0.083,0.443,0.219,0.615
			C0.928,13.862,3.189,11.487,4.246,10.49z"/>
	</g>
</g>
</svg>
