<?xml version="1.0" encoding="utf-8"?>
<!-- Generator: Adobe Illustrator 23.0.6, SVG Export Plug-In . SVG Version: 6.00 Build 0)  -->
<svg version="1.1" xmlns="http://www.w3.org/2000/svg" xmlns:xlink="http://www.w3.org/1999/xlink" x="0px" y="0px" width="32px"
	 height="32px" viewBox="0 0 32 32" enable-background="new 0 0 32 32" xml:space="preserve">
<g id="labels">
	<g>
	</g>
</g>
<g id="icons">
	<g>
		<path fill="#F0C877" d="M19.157,12c0.75-0.562,2.875-2.125,2.875-2.125l1.562,0.375l5.156-3.478
			c0.119-0.08,0.28-0.044,0.354,0.079L29.974,8.3c0.068,0.113,0.036,0.259-0.072,0.334l-4.933,3.429l6.423-1.501
			c0.143-0.033,0.283,0.062,0.304,0.207l0.301,2.056c0.019,0.132-0.069,0.257-0.201,0.282l-2.39,0.455l-0.438,1.125l0.109,1.092
			c0.01,0.096-0.037,0.189-0.12,0.239l-1.005,0.603c-0.068,0.041-0.152,0.047-0.226,0.016l-1.071-0.451l-1.688,0.688l5.579,1.543
			c0.152,0.042,0.229,0.212,0.157,0.353c-0.242,0.473-0.729,1.436-0.902,1.844c-0.049,0.116-0.175,0.172-0.296,0.137l-3.725-1.064
			l-0.967,1.536c-0.057,0.091-0.161,0.136-0.266,0.111c-0.458-0.11-1.67-0.409-1.517-0.46C23.22,20.812,19.157,12,19.157,12z"/>
		<path fill="#F7D684" d="M12.843,12c-0.75-0.562-2.875-2.125-2.875-2.125L8.405,10.25L3.249,6.772
			c-0.119-0.08-0.28-0.044-0.354,0.079L2.026,8.3C1.958,8.412,1.989,8.558,2.097,8.633l4.933,3.429l-6.423-1.501
			c-0.143-0.033-0.283,0.062-0.304,0.207l-0.301,2.056c-0.019,0.132,0.069,0.257,0.201,0.282l2.39,0.455l0.438,1.125L2.921,15.78
			c-0.01,0.096,0.037,0.189,0.12,0.239l1.005,0.603c0.068,0.041,0.152,0.047,0.226,0.016l1.071-0.451l1.688,0.688l-5.579,1.543
			c-0.152,0.042-0.229,0.212-0.157,0.353c0.242,0.473,0.729,1.436,0.902,1.844c0.049,0.116,0.175,0.172,0.296,0.137l3.725-1.064
			l0.967,1.536c0.057,0.091,0.161,0.136,0.266,0.111c0.458-0.11,1.67-0.409,1.517-0.46C8.78,20.812,12.843,12,12.843,12z"/>
		<path fill="#FDEBBB" d="M16,11.302c-4.142,0-7.5,4.386-7.5,9.796c0,4.985,2.427,8.853,6.438,10.061
			c0.345,0.104,0.704,0.15,1.062,0.142c0.358,0.009,0.717-0.038,1.062-0.142c4.011-1.208,6.438-5.077,6.438-10.061
			C23.5,15.688,20.142,11.302,16,11.302z"/>
		<path fill="#FAE09F" d="M23.5,21.098c0,4.985-2.427,8.853-6.438,10.061c-0.345,0.104-0.704,0.15-1.062,0.142v-9.63
			c3.558,0,6.028-1.316,7.307-2.791C23.433,19.593,23.5,20.336,23.5,21.098z"/>
		<path fill="#F7D684" d="M23.388,22.912c-0.519,4.096-2.816,7.19-6.326,8.247c-0.345,0.104-0.704,0.15-1.062,0.142v-4.333
			C19.325,26.969,21.963,24.493,23.388,22.912z"/>
		<path fill="#F7D684" d="M23.5,21.098c-2.156,0.354-1.7-5.162-7.5-5.162v-4.634C20.142,11.302,23.5,15.688,23.5,21.098z"/>
		<path fill="#FFF3D9" d="M16,11.302v19.999c-0.358,0.009-0.717-0.038-1.062-0.142C10.927,29.951,8.5,26.083,8.5,21.098
			C8.5,15.688,11.858,11.302,16,11.302z"/>
		<path fill="#FDEBBB" d="M8.693,18.881c1.279,1.475,3.749,2.791,7.307,2.791v9.63c-0.358,0.009-0.717-0.038-1.062-0.142
			C10.927,29.951,8.5,26.083,8.5,21.098C8.5,20.336,8.567,19.593,8.693,18.881z"/>
		<path fill="#FAE09F" d="M16,26.969v4.333c-0.358,0.009-0.717-0.038-1.062-0.142c-3.51-1.057-5.807-4.151-6.326-8.247
			C10.037,24.493,12.675,26.969,16,26.969z"/>
		<path fill="#FAE09F" d="M16,11.302v4.634c-5.8,0-5.344,5.516-7.5,5.162C8.5,15.688,11.858,11.302,16,11.302z"/>
		<path fill="#FAE09F" d="M23,10.633c0-1.01-0.423-1.949-1.145-2.736l-0.175-2.129c-0.031-0.384-0.466-0.589-0.783-0.37L19.552,6.33
			C18.509,5.89,17.298,5.633,16,5.633c-3.866,0-7,2.239-7,5c0,2.24,2.062,4.135,4.904,4.771l1.232,2.114
			c0.386,0.662,1.342,0.662,1.728,0l1.232-2.114C20.938,14.768,23,12.873,23,10.633z"/>
		<path fill="#FDEBBB" d="M12.448,6.33l-1.346-0.932c-0.316-0.219-0.751-0.013-0.783,0.37l-0.175,2.129
			C9.423,8.684,9,9.622,9,10.633c0,2.24,2.062,4.135,4.904,4.771l1.232,2.114c0.193,0.331,0.528,0.496,0.864,0.496v-2.381v-1.849
			V5.633C14.702,5.633,13.491,5.89,12.448,6.33z"/>
		<ellipse fill="#FAE09F" cx="11" cy="10.728" rx="2" ry="2.5"/>
		<ellipse fill="#F7D684" cx="21" cy="10.728" rx="2" ry="2.5"/>
		<ellipse fill="#F0C877" cx="20.062" cy="23.188" rx="1.5" ry="3"/>
		<ellipse fill="#F7D684" cx="11.937" cy="23.188" rx="1.5" ry="3"/>
		<path fill="#E3E5E5" d="M19.785,0.048c-0.171-0.126-0.437,0.016-0.399,0.225C19.574,1.286,17.787,2,16,2s-3.574-0.714-3.387-1.727
			c0.039-0.209-0.228-0.351-0.399-0.225C9.26,2.233,11.621,5,16,5S22.74,2.233,19.785,0.048z"/>
		<path fill="#EDEEEE" d="M16,5c-4.379,0-6.74-2.767-3.785-4.952c0.171-0.126,0.437,0.016,0.399,0.225C12.426,1.286,14.213,2,16,2V5
			z"/>
		<path fill="#373F3F" d="M13,10.729v-0.001c0-0.078-0.013-0.151-0.018-0.227h-1.241C11.588,10.206,11.32,10,11,10
			s-0.588,0.206-0.741,0.5H9.018C9.013,10.576,9,10.65,9,10.728c0,0.271,0.043,0.527,0.107,0.772h1.152
			C10.412,11.793,10.68,12,11,12s0.588-0.207,0.741-0.5h1.152C12.957,11.256,13,11,13,10.729z"/>
		<path fill="#2B3332" d="M21,10c-0.32,0-0.588,0.206-0.741,0.5h-1.241C19.013,10.576,19,10.65,19,10.727v0.001
			c0,0.271,0.043,0.527,0.107,0.771h1.152C20.412,11.793,20.68,12,21,12s0.588-0.207,0.741-0.5h1.152
			C22.957,11.255,23,10.999,23,10.728c0-0.078-0.013-0.152-0.018-0.228h-1.241C21.588,10.206,21.32,10,21,10z"/>
	</g>
</g>
</svg>
