<?xml version="1.0" encoding="utf-8"?>
<!-- Generator: Adobe Illustrator 23.0.6, SVG Export Plug-In . SVG Version: 6.00 Build 0)  -->
<svg version="1.1" xmlns="http://www.w3.org/2000/svg" xmlns:xlink="http://www.w3.org/1999/xlink" x="0px" y="0px" width="32px"
	 height="32px" viewBox="0 0 32 32" enable-background="new 0 0 32 32" xml:space="preserve">
<g id="labels">
	<g>
	</g>
</g>
<g id="icons">
	<g>
		<path fill="#D799D6" d="M18.18,5.167H13.82c-1.803,0-3.443,0.714-4.666,1.866L8.548,6.427c0.795-1.671,0.518-3.725-0.866-5.109
			c-1.757-1.757-4.607-1.757-6.364,0c-1.757,1.757-1.757,4.607,0,6.364c1.383,1.383,3.437,1.661,5.109,0.866l1.025,1.026
			C7.165,10.326,7,11.137,7,11.987v4.208c-0.759-0.093-1.288-0.209-1.5-0.456c-0.375-0.438-1.043-1.5-0.938-2
			c0.082-0.387,0.356-0.812,0.418-1.812s-1.562-1.125-2.688-0.688s-2.562,1.438-2.25,2.625s1.019,4.875,2.269,5.25
			C3.277,19.404,5.689,19.655,7,19.726v0.62c0,1.011,0.229,1.969,0.628,2.833c-1.067,0.611-1.621,3.33-0.686,4.739
			c-1.286,0.593-2.796,1-2.246,2.396c0.5,1.269,2.5-0.565,3.083,0.519c0.279,0.519,0.501,1.632,2.203,0.826s2.253-1.232,2.419-2.24
			c0.089-0.534-0.156-1.013-0.659-1.32c0.253-0.273,0.368-0.649,0.402-1.151c0.537,0.137,1.097,0.218,1.676,0.218h4.359
			c3.751,0,6.82-3.069,6.82-6.82v-8.359C25,8.236,21.931,5.167,18.18,5.167z"/>
		<path fill="#D285D2" d="M29.707,11.239c-1.125-0.438-2.75-0.312-2.688,0.688s0.336,1.426,0.418,1.812
			c0.106,0.5-0.562,1.562-0.937,2c-0.212,0.248-0.741,0.364-1.5,0.456v-4.208c0-0.85-0.165-1.662-0.452-2.414l1.025-1.026
			c1.671,0.795,3.725,0.518,5.109-0.866c1.757-1.757,1.757-4.607,0-6.364c-1.757-1.757-4.607-1.757-6.364,0
			c-1.383,1.383-1.661,3.437-0.866,5.109l-0.607,0.607c-1.223-1.153-2.863-1.866-4.666-1.866H16v22h2.18
			c0.579,0,1.138-0.081,1.676-0.218c0.034,0.501,0.148,0.878,0.402,1.151c-0.502,0.307-0.747,0.785-0.659,1.32
			c0.167,1.008,0.717,1.434,2.419,2.24s1.924-0.307,2.203-0.826c0.583-1.083,2.583,0.75,3.083-0.519
			c0.55-1.396-0.96-1.804-2.246-2.396c0.934-1.409,0.381-4.128-0.686-4.739C24.771,22.315,25,21.357,25,20.346v-0.62
			c1.311-0.071,3.723-0.323,4.687-0.612c1.25-0.375,1.957-4.062,2.269-5.25S30.832,11.677,29.707,11.239z"/>
		<g>
			<path fill="#F7F7F7" d="M18.125,10.833C17.958,10.042,18.793,8.806,20,8.625s2.424,0.82,2.167,1.958
				C21.875,11.875,18.538,12.796,18.125,10.833z"/>
			<ellipse fill="#2B3332" cx="20.25" cy="10" rx="0.25" ry="0.5"/>
		</g>
		<g>
			<path fill="#FFFFFF" d="M13.875,10.833c0.167-0.792-0.668-2.027-1.875-2.208s-2.424,0.82-2.167,1.958
				C10.125,11.875,13.462,12.796,13.875,10.833z"/>
			<ellipse fill="#373F3F" cx="11.75" cy="10" rx="0.25" ry="0.5"/>
		</g>
		<path fill="#FFCF6E" d="M20.25,11c-1.294,0.333-3,1.083-4.25,1.083S13.044,11.333,11.75,11c-1.094-0.281-2.104,0.667-2.188,1.5
			c-0.083,0.833,0.301,1.411,0.301,2c0,1.16,0,5.938,0,7.94c0,1.591,0.969,2.727,2.136,2.393s3-0.083,4-0.083s2.833-0.25,4,0.083
			s2.136-0.802,2.136-2.393c0-2.002,0-6.78,0-7.94c0-0.589,0.385-1.167,0.301-2C22.354,11.667,21.344,10.719,20.25,11z"/>
		<path fill="#FFC550" d="M16,12.083c1.25,0,2.956-0.751,4.25-1.083c1.094-0.281,2.104,0.667,2.187,1.5
			c0.083,0.833-0.301,1.411-0.301,2c0,1.16,0,5.938,0,7.94c0,1.591-0.969,2.727-2.136,2.393c-1.167-0.333-3-0.083-4-0.083V12.083z"
			/>
		<path fill="#C84054" d="M20.083,13.583c-1-0.167-0.833-0.594-1.583-0.677c-0.75-0.083-1.719,0.469-2.5,0.469
			s-1.75-0.552-2.5-0.469c-0.75,0.083-0.583,0.51-1.583,0.677s-1.167,0-1.167,1.5s0,6.573,0,7.25c0,0.589,0.583-0.5,1.333-0.167
			c0.75,0.333,0.448,1.188,1.448,1.271c1,0.083,1.781,0.062,2.469,0.062c0.687,0,1.469,0.021,2.469-0.062
			c1-0.083,0.698-0.938,1.448-1.271c0.75-0.333,1.333,0.756,1.333,0.167c0-0.677,0-5.75,0-7.25S21.083,13.75,20.083,13.583z"/>
		<path fill="#B93D4F" d="M16,13.375c0.781,0,1.75-0.552,2.5-0.469s0.583,0.51,1.583,0.677c1,0.167,1.167,0,1.167,1.5
			s0,6.573,0,7.25c0,0.589-0.583-0.5-1.333-0.167c-0.75,0.333-0.448,1.188-1.448,1.271c-1,0.083-1.781,0.062-2.469,0.062V13.375z"/>
		<path fill="#F7F7F7" d="M19.953,15.37L19.953,15.37c-0.413,0-0.75-0.337-0.75-0.75v-1.277c0-0.412,0.337-0.75,0.75-0.75l0,0
			c0.413,0,0.75,0.337,0.75,0.75v1.277C20.703,15.033,20.366,15.37,19.953,15.37z"/>
		<path fill="#FFFFFF" d="M12.047,15.37L12.047,15.37c-0.413,0-0.75-0.337-0.75-0.75v-1.277c0-0.412,0.337-0.75,0.75-0.75h0
			c0.412,0,0.75,0.337,0.75,0.75v1.277C12.797,15.033,12.459,15.37,12.047,15.37z"/>
		<path fill="#FF87A4" d="M16,17.625c-1.333,0-2.917-1.542-5.25,1.232c0,1.599,0,3.126,0,3.476c0,0.589,0.583-0.5,1.333-0.167
			c0.75,0.333,0.448,1.188,1.448,1.271c1,0.083,1.781,0.062,2.469,0.062c0.687,0,1.469,0.021,2.469-0.062
			c1-0.083,0.698-0.938,1.448-1.271c0.75-0.333,1.333,0.756,1.333,0.167c0-0.35,0-1.877,0-3.476
			C18.917,16.083,17.333,17.625,16,17.625z"/>
		<path fill="#FF7898" d="M18.469,23.438c1-0.083,0.698-0.938,1.448-1.271c0.75-0.333,1.333,0.756,1.333,0.167
			c0-0.35,0-1.877,0-3.476c-2.333-2.774-3.917-1.232-5.25-1.232V23.5C16.687,23.5,17.469,23.521,18.469,23.438z"/>
		<path fill="#FFFFFF" d="M11.683,23.427l-0.095-0.033c-0.364-0.126-0.559-0.526-0.433-0.89l0.24-0.695
			c0.126-0.364,0.526-0.559,0.89-0.433l0.095,0.033c0.364,0.126,0.559,0.526,0.433,0.89l-0.24,0.695
			C12.447,23.357,12.047,23.552,11.683,23.427z"/>
		<path fill="#F7F7F7" d="M19.911,23.427l0.095-0.033c0.364-0.126,0.559-0.526,0.433-0.89l-0.24-0.695
			c-0.126-0.364-0.526-0.559-0.89-0.433l-0.095,0.033c-0.364,0.126-0.559,0.526-0.433,0.89l0.24,0.695
			C19.146,23.357,19.547,23.552,19.911,23.427z"/>
		<g>
			<circle fill="#2B3332" cx="27.5" cy="4.5" r="3.5"/>
			<circle fill="#FF7898" cx="27.5" cy="4.5" r="2.5"/>
			<circle fill="#2B3332" cx="27.5" cy="4.5" r="1"/>
		</g>
		<g>
			<circle fill="#373F3F" cx="4.5" cy="4.5" r="3.5"/>
			<circle fill="#FF87A4" cx="4.5" cy="4.5" r="2.5"/>
			<circle fill="#373F3F" cx="4.5" cy="4.5" r="1"/>
		</g>
	</g>
</g>
</svg>
