<?xml version="1.0" encoding="utf-8"?>
<!-- Generator: Adobe Illustrator 23.0.6, SVG Export Plug-In . SVG Version: 6.00 Build 0)  -->
<svg version="1.1" xmlns="http://www.w3.org/2000/svg" xmlns:xlink="http://www.w3.org/1999/xlink" x="0px" y="0px" width="32px"
	 height="32px" viewBox="0 0 32 32" enable-background="new 0 0 32 32" xml:space="preserve">
<g id="labels">
	<g>
	</g>
</g>
<g id="icons">
	<g>
		<g>
			<path fill="#B370B9" d="M28.823,13.142L28.823,13.142c-0.215-0.373-0.088-0.85,0.285-1.065l1.722-0.994
				c0.373-0.215,0.85-0.088,1.065,0.285v0c0.215,0.373,0.088,0.85-0.285,1.065l-1.722,0.994
				C29.515,13.643,29.038,13.515,28.823,13.142z"/>
			<path fill="#C27BC6" d="M30.92,7.027l-0.667-0.013L29.526,7c-0.235-0.005-0.452,0.122-0.564,0.328l-2.329,4.295l2.534,1.851
				c0.333,0.177,0.747,0.023,0.882-0.33l0.688-1.802l0.757-3.463C31.649,7.473,31.354,7.036,30.92,7.027z"/>
		</g>
		<g>
			<path fill="#C27BC6" d="M3.177,13.142L3.177,13.142c0.215-0.373,0.088-0.85-0.285-1.065L1.17,11.083
				c-0.373-0.215-0.85-0.088-1.065,0.285l0,0c-0.215,0.373-0.088,0.85,0.285,1.065l1.722,0.994
				C2.485,13.643,2.962,13.515,3.177,13.142z"/>
			<path fill="#D285D2" d="M1.08,7.027l0.667-0.013L2.474,7c0.235-0.005,0.452,0.122,0.564,0.328l2.329,4.295l-2.534,1.851
				c-0.333,0.177-0.747,0.023-0.882-0.33l-0.688-1.802L0.506,7.879C0.351,7.473,0.646,7.036,1.08,7.027z"/>
		</g>
		<path fill="#F5DEB9" d="M8.618,11.008l-4.774,0.434c-0.572,0.052-1.011,0.532-1.011,1.107v0.007c0,0.557,0.412,1.028,0.964,1.102
			l3.482,0.464C7.104,14.863,7,15.635,7,16.434c0,5.247,4.029,9.5,9,9.5v-19C12.942,6.934,10.244,8.548,8.618,11.008z"/>
		<path fill="#EFD4A7" d="M28.156,11.442l-4.774-0.434C21.756,8.548,19.058,6.934,16,6.934v19c4.971,0,9-4.253,9-9.5
			c0-0.799-0.104-1.571-0.28-2.312l3.482-0.464c0.552-0.074,0.964-0.545,0.964-1.102v-0.007
			C29.167,11.974,28.728,11.494,28.156,11.442z"/>
		<path fill="#F5DEB9" d="M25.094,5.801c-0.581-0.581-1.607-0.521-2.459,0.081c-1.25-1.349-3.75-2.27-6.635-2.27v8.444
			c3.104,0,5.767-1.066,6.902-2.583c0.591-0.008,1.248-0.283,1.778-0.812C25.583,7.756,25.769,6.476,25.094,5.801z"/>
		<path fill="#FCE8CC" d="M9.364,5.883C8.512,5.28,7.485,5.22,6.904,5.801C6.229,6.476,6.414,7.756,7.318,8.66
			c0.531,0.531,1.189,0.806,1.78,0.812c1.135,1.518,3.797,2.583,6.902,2.583V3.612C13.114,3.612,10.614,4.534,9.364,5.883z"/>
		<g>
			<path fill="#D799D6" d="M11,20.125c0,2.761,2.239,5,5,5v-10C13.239,15.125,11,17.364,11,20.125z"/>
			<path fill="#D285D2" d="M21,20.125c0-2.761-2.239-5-5-5v10C18.761,25.125,21,22.886,21,20.125z"/>
		</g>
		<path fill="#C27BC6" d="M29,30.443c0,1.896-3,1.528-4.062,1.528c-1.205,0-2.079-0.67-2.079-1.764c0-1.172,0.567-1.813,1.875-2.031
			C25.859,27.989,29,28.756,29,30.443z"/>
		<path fill="#FFFFFF" d="M11.589,6.608c0,0-0.477,2.066,0.139,2.94c0,0,2.305,0.874,3.477,0.556l0.02-2.682L11.589,6.608z"/>
		<ellipse fill="#373F3F" cx="13.358" cy="8.446" rx="0.417" ry="1.023"/>
		<path fill="#F7F7F7" d="M20.411,6.608c0,0,0.477,2.066-0.139,2.94c0,0-2.305,0.874-3.477,0.556l-0.02-2.682L20.411,6.608z"/>
		<ellipse fill="#2B3332" cx="18.642" cy="8.446" rx="0.417" ry="1.023"/>
		<path fill="#373F3F" d="M23.134,7.115c-0.334,0.334-0.282,0.928-0.282,0.928s0.594,0.052,0.928-0.282
			c0.334-0.334,0.46-0.75,0.282-0.928C23.884,6.654,23.468,6.781,23.134,7.115z"/>
		<path fill="#434C4B" d="M8.864,7.115c0.334,0.334,0.282,0.928,0.282,0.928S8.551,8.095,8.217,7.761
			c-0.334-0.334-0.46-0.75-0.282-0.928C8.114,6.654,8.53,6.781,8.864,7.115z"/>
		
			<ellipse transform="matrix(0.5417 -0.8406 0.8406 0.5417 -10.2246 30.7851)" fill="#182A51" cx="23.119" cy="24.769" rx="6.467" ry="5.619"/>
		<path fill="#D285D2" d="M3.238,30.443c0,1.896,3,1.528,4.062,1.528c1.205,0,2.079-0.67,2.079-1.764
			c0-1.172-0.567-1.813-1.875-2.031C6.379,27.989,3.238,28.756,3.238,30.443z"/>
		
			<ellipse transform="matrix(0.8406 -0.5417 0.5417 0.8406 -11.9633 8.8884)" fill="#263460" cx="9.119" cy="24.769" rx="5.619" ry="6.467"/>
		<g>
			<path fill="#5B689D" d="M9.536,4.471c-0.245,0.167-0.253,0.527-0.01,0.698c1.29,0.904,4.772,3.801,6.277,5.893
				c0.05,0.07,0.123,0.105,0.196,0.105V2.48C16,2.48,13.131,2.022,9.536,4.471z"/>
			<path fill="#515E91" d="M22.473,5.168c0.243-0.17,0.236-0.531-0.01-0.698C18.869,2.022,16,2.48,16,2.48v8.686
				c0.073,0,0.146-0.035,0.196-0.105C17.701,8.97,21.183,6.072,22.473,5.168z"/>
		</g>
		<g>
			<path fill="#FCE8CC" d="M12.332,3.43c-0.143,0.394-0.14,0.823,0.028,1.207c0.755,1.726,2.875,3.703,3.478,4.244
				C15.885,8.924,15.943,8.945,16,8.945V0C13.833,0,12.734,2.319,12.332,3.43z"/>
			<path fill="#F5DEB9" d="M19.64,4.638c0.168-0.384,0.171-0.813,0.028-1.207C19.266,2.319,18.167,0,16,0v8.945
				c0.057,0,0.115-0.021,0.162-0.064C16.766,8.34,18.886,6.364,19.64,4.638z"/>
		</g>
		<g>
			<path fill="#E9746A" d="M15.284,20.759c-1.495-1.551-5.061-5.001-8.121-6.006c0,0-4.342,0.672-5.872,2.267
				c-0.083,0.087-0.126,0.203-0.133,0.323l-0.098,1.722c-0.024,0.413,0.435,0.677,0.777,0.444c0.994-0.676,2.675-1.718,3.939-1.971
				c0,0-2.627,2.465-3.54,3.66c-0.142,0.186-0.131,0.438,0.023,0.614c0.71,0.812,2.789,3.122,4.136,3.912
				c0.189,0.111,0.424,0.093,0.588-0.053c0.875-0.776,3.741-3.314,4.073-3.545c0,0-0.351,3.905-0.2,6.039
				c0.015,0.218,0.174,0.389,0.387,0.433c0.274,0.057,0.709,0.136,1.313,0.216c1.141,0.151,2.292,0.22,3.443,0.216v-7.966
				C15.74,21.066,15.481,20.964,15.284,20.759z"/>
			<path fill="#E7685F" d="M20.745,28.597c0.22-0.043,0.384-0.22,0.399-0.443c0.149-2.137-0.201-6.027-0.201-6.027
				c0.333,0.231,3.199,2.769,4.073,3.545c0.164,0.146,0.399,0.164,0.588,0.053c1.346-0.791,3.426-3.1,4.136-3.912
				c0.154-0.176,0.165-0.428,0.023-0.614c-0.913-1.195-3.54-3.66-3.54-3.66c1.264,0.253,2.945,1.295,3.939,1.971
				c0.342,0.233,0.801-0.031,0.777-0.444l-0.098-1.722c-0.007-0.12-0.049-0.236-0.133-0.323c-1.53-1.595-5.872-2.267-5.872-2.267
				c-3.06,1.006-6.627,4.455-8.121,6.006c-0.197,0.204-0.456,0.306-0.716,0.306v7.966c1.086-0.003,2.172-0.07,3.25-0.202
				C19.943,28.744,20.44,28.657,20.745,28.597z"/>
		</g>
	</g>
</g>
</svg>
