<svg xmlns="http://www.w3.org/2000/svg" width="32" height="32"><path fill="#2B3332" d="M16.151 32l-.062-.002a.75.75 0 01-.598-.39l-4.437-8.435a.5.5 0 11.884-.466l4.247 8.074 3.545-4.822 7.663 4.628-2.84-8.811a.5.5 0 01.952-.306l3.045 9.447a.743.743 0 01-.249.818.745.745 0 01-.853.053l-7.453-4.501-3.244 4.413a.756.756 0 01-.6.3zm11.448-.777h.01-.01z"/><circle fill="#4390BF" cx="24" cy="20" r="8"/><path fill="#65A9DC" d="M5.615 26.32c-1.55.73-2.373 1.796-1.869 2.915.673 1.495 5.307.598 6.055-.972.464-.973.395-1.769-.299-2.168-.727-.417-2.616-.373-3.887.225z"/><path fill="#65A9DC" d="M13.03 4.666V27c-6.688 0-11.5-4.108-11.5-10 0-4.227 4.648-12.334 11.5-12.334z"/><ellipse transform="rotate(-45.001 5.276 5.394)" fill="#65A9DC" cx="5.276" cy="5.394" rx="5.552" ry="4.984"/><ellipse transform="rotate(-45.001 5.547 5.665)" fill="#EA8BB4" cx="5.547" cy="5.665" rx="2.933" ry="2.25"/><ellipse transform="rotate(-65.6 9.507 11.147)" fill="#373F3F" cx="9.507" cy="11.147" rx="1.665" ry="1.499"/><circle fill="#FFF" cx="9.769" cy="10.571" r=".833"/><path fill="#5CA3D5" d="M20.385 26.32c1.55.73 2.373 1.796 1.869 2.915-.673 1.495-5.307.598-6.055-.972-.464-.973-.395-1.769.299-2.168.727-.417 2.616-.373 3.887.225z"/><path fill="#5CA3D5" d="M24.5 17c0 5.892-4.812 10-11.5 10V4.666c6.852 0 11.5 8.107 11.5 12.334z"/><ellipse transform="rotate(-45.001 20.754 5.394)" fill="#5CA3D5" cx="20.754" cy="5.394" rx="4.984" ry="5.552"/><ellipse transform="rotate(-45.001 20.483 5.665)" fill="#FF7899" cx="20.483" cy="5.665" rx="2.25" ry="2.933"/><ellipse transform="rotate(-24.398 16.524 11.147)" fill="#2B3332" cx="16.523" cy="11.147" rx="1.499" ry="1.665"/><circle fill="#F7F7F7" cx="16.261" cy="10.571" r=".833"/><path fill="#E55D53" d="M15.249 13.802c.006-.102-.079-.172-.175-.207-.38-.139-.998-.445-2.044-.458v-.002l-.015.001-.015-.001v.002c-1.047.013-1.665.319-2.044.458-.096.035-.181.105-.175.207.051.918 1.045 2.518 2.219 2.546v.005l.015-.003.015.003v-.005c1.174-.028 2.168-1.628 2.219-2.546z"/><ellipse fill="#FFF" cx="5.75" cy="15" rx="1.75" ry="2"/><ellipse fill="#F7F7F7" cx="20.25" cy="15" rx="1.75" ry="2"/><path fill="#E7685F" d="M13 13.135v3.218c-1.188 0-2.198-1.625-2.249-2.551-.006-.102.079-.172.175-.207.383-.14 1.007-.454 2.074-.46z"/></svg>