<?xml version="1.0" encoding="utf-8"?>
<!-- Generator: Adobe Illustrator 23.0.6, SVG Export Plug-In . SVG Version: 6.00 Build 0)  -->
<svg version="1.1" xmlns="http://www.w3.org/2000/svg" xmlns:xlink="http://www.w3.org/1999/xlink" x="0px" y="0px" width="32px"
	 height="32px" viewBox="0 0 32 32" enable-background="new 0 0 32 32" xml:space="preserve">
<g id="labels">
	<g>
	</g>
</g>
<g id="icons">
	<g>
		<path fill="#FFE28A" d="M16,0v28H6.236c-0.758,0-1.45-0.428-1.789-1.106L2,22L8.702,4.767C8.9,4.258,9.166,3.779,9.494,3.342L12,0
			H16z"/>
		<polygon fill="#FFEAA7" points="12,0 10.7,5.6 16,6.633 16,0 		"/>
		<path fill="#373F3F" d="M16,10V6.633l-4.775-0.931c-0.328-0.064-0.666,0.04-0.901,0.277l-3.46,3.487L6.667,10H16z"/>
		<polygon fill="#FFEAA7" points="9,10 7.133,18 16,18 16,10 		"/>
		<path fill="#9DA5A4" d="M11.5,9.239c-1.649,0-2.201-1.082-2.225-1.128C9.215,7.987,9.266,7.837,9.39,7.776
			c0.123-0.061,0.273-0.01,0.334,0.113c0.022,0.043,0.458,0.85,1.776,0.85c1.325,0,1.759-0.816,1.776-0.851
			c0.064-0.123,0.216-0.171,0.335-0.11c0.123,0.062,0.174,0.21,0.113,0.333C13.701,8.157,13.149,9.239,11.5,9.239z"/>
		<path fill="#FFD96C" d="M16,0v28h9.764c0.758,0,1.45-0.428,1.789-1.106L30,22L23.298,4.767c-0.198-0.509-0.464-0.988-0.792-1.425
			L20,0L16,0z"/>
		<polygon fill="#FFE28A" points="20,0 21.3,5.6 16,6.633 16,0 		"/>
		<path fill="#2B3332" d="M16,10V6.633l4.775-0.931c0.328-0.064,0.666,0.04,0.901,0.277l3.46,3.487L25.333,10H16z"/>
		<polygon fill="#FFE28A" points="23,10 24.867,18 16,18 16,10 		"/>
		<polygon fill="#D64F45" points="16,11.031 15.25,12.406 16,12.406 16.75,12.406 		"/>
		<path fill="#909997" d="M20.5,9.239c-1.649,0-2.201-1.082-2.225-1.128c-0.061-0.124-0.01-0.273,0.114-0.334
			c0.122-0.061,0.273-0.01,0.335,0.114c0.017,0.033,0.45,0.849,1.775,0.849s1.759-0.816,1.776-0.851
			c0.063-0.123,0.216-0.171,0.335-0.11c0.123,0.062,0.174,0.21,0.113,0.333C22.701,8.157,22.149,9.239,20.5,9.239z"/>
		<path fill="#FFD04D" d="M24.867,18l-1.21,10h2.108c0.758,0,1.45-0.428,1.789-1.106L30,22L24.867,18z"/>
		<path fill="#FFD96C" d="M7.133,18L2,22l1.193,2.387l1.254,2.508C4.786,27.572,5.479,28,6.236,28h2.108L7.133,18z"/>
		<rect x="7.5" y="26" fill="#FFEAA7" width="6" height="6"/>
		<path fill="#FFD96C" d="M13.5,26l1.5,2.033l-0.427,3.296c-0.024,0.187-0.151,0.344-0.329,0.407L13.5,32V26z"/>
		<path fill="#FFE28A" d="M7.5,26L6,28.033l0.427,3.296c0.024,0.187,0.151,0.344,0.329,0.407L7.5,32V26z"/>
		<rect x="18.5" y="26" fill="#FFE28A" width="6" height="6"/>
		<path fill="#FFD96C" d="M24.5,26l1.5,2.033l-0.427,3.296c-0.024,0.187-0.151,0.344-0.329,0.407L24.5,32V26z"/>
		<path fill="#FFD04D" d="M18.5,26L17,28.033l0.427,3.296c0.024,0.187,0.151,0.344,0.329,0.407L18.5,32V26z"/>
		<path fill="#FFEAA7" d="M29.562,15.312l-3.906-7.055c-0.135-0.107-0.306-0.159-0.473-0.096l-0.486,0.183l4.864,12.53V15.312z"/>
		<path fill="#FFE28A" d="M29.562,15.312l1.348-0.117c-0.034-0.122-0.088-0.24-0.167-0.343l-4.988-6.527
			c-0.026-0.034-0.068-0.043-0.1-0.068L29.562,15.312z"/>
		<path fill="#FFD96C" d="M30.911,15.195l-1.348,0.117v5.562l0,0L30,22l0.939-6.396C30.959,15.466,30.947,15.327,30.911,15.195z"/>
		<path fill="#FEF1C6" d="M2.438,15.312l3.906-7.055C6.478,8.151,6.65,8.099,6.816,8.162l0.486,0.183l-4.864,12.53V15.312z"/>
		<path fill="#FFEAA7" d="M2.438,15.312l-1.348-0.117c0.034-0.122,0.088-0.24,0.167-0.343l4.988-6.527
			c0.026-0.034,0.068-0.043,0.1-0.068L2.438,15.312z"/>
		<path fill="#FFE28A" d="M1.089,15.195l1.348,0.117v5.562l0,0L2,22l-0.939-6.396C1.041,15.466,1.053,15.327,1.089,15.195z"/>
		<g>
			<path fill="#D1473D" d="M15.233,12.395l-4.987,3.435c0.091,0.101,0.219,0.17,0.369,0.17h3.461c0.131,0,0.257-0.051,0.35-0.143
				L16,14.312v-1.906h-0.75L15.233,12.395z"/>
			<path fill="#DD564C" d="M13.667,11.375l-2.731,1.194c-0.148,0.065-0.256,0.197-0.289,0.355l-0.52,2.473
				c-0.034,0.164,0.018,0.32,0.12,0.433l4.987-3.435L13.667,11.375z"/>
		</g>
		<g>
			<path fill="#D64F45" d="M15.689,7.881l-1.705,1.357c-0.109,0.087-0.177,0.216-0.187,0.355l-0.13,1.782l1.583,1.031L16,11.031
				V7.772C15.89,7.772,15.78,7.809,15.689,7.881z"/>
			<path fill="#D1473D" d="M18.333,11.375l-0.13-1.782c-0.01-0.139-0.078-0.268-0.187-0.355l-1.705-1.357
				C16.22,7.809,16.11,7.772,16,7.772v3.259l0.75,1.375L18.333,11.375z"/>
		</g>
		<g>
			<path fill="#CF3C35" d="M16.75,12.406H16v1.906l1.573,1.544C17.666,15.949,17.792,16,17.923,16h3.461
				c0.15,0,0.279-0.069,0.369-0.17l-4.988-3.434L16.75,12.406z"/>
			<path fill="#D64F45" d="M21.873,15.397l-0.52-2.473c-0.033-0.158-0.141-0.29-0.289-0.355l-2.731-1.194l-1.568,1.021l4.988,3.434
				C21.855,15.717,21.908,15.561,21.873,15.397z"/>
		</g>
		<polygon fill="#DD564C" points="15.25,12.406 16,11.031 16,12.406 		"/>
	</g>
</g>
</svg>
