<?xml version="1.0" encoding="utf-8"?>
<!-- Generator: Adobe Illustrator 23.0.6, SVG Export Plug-In . SVG Version: 6.00 Build 0)  -->
<svg version="1.1" xmlns="http://www.w3.org/2000/svg" xmlns:xlink="http://www.w3.org/1999/xlink" x="0px" y="0px" width="32px"
	 height="32px" viewBox="0 0 32 32" enable-background="new 0 0 32 32" xml:space="preserve">
<g id="labels">
	<g>
	</g>
</g>
<g id="icons">
	<path fill="#EFD4A7" d="M9.939,30.391l1.567-2.25l-3.74-1.662c-0.259-0.115-0.52,0.155-0.396,0.41l1.703,3.502
		C9.265,30.724,9.746,30.724,9.939,30.391z"/>
	<path fill="#EACEA1" d="M20.061,30.391l-1.567-2.25l3.74-1.662c0.259-0.115,0.52,0.155,0.396,0.41l-1.703,3.502
		C20.735,30.724,20.254,30.724,20.061,30.391z"/>
	<path fill="#EACEA1" d="M21,27.75v-0.5c4.293,0,5.871-4.52,5.884-4.566l0.482,0.132C27.1,23.795,25.128,27.75,21,27.75z"/>
	<g>
		<path fill="#2B3332" d="M27.51,13.069c-0.722-0.586-1.694-2.763-1.504-3.663l0.488,0.104c-0.141,0.667,0.692,2.653,1.33,3.171
			L27.51,13.069z"/>
	</g>
	<g>
		<path fill="#2B3332" d="M28.288,13.354l-0.408-0.29l0.208-0.292c0.153-0.301,0.371-3.151,0.371-3.646h0.5
			c0,0.033-0.166,3.52-0.464,3.937L28.288,13.354z"/>
	</g>
	<g>
		<path fill="#2B3332" d="M29.486,13.432l-0.223-0.447c0.294-0.229,1.67-2.918,1.739-3.234l0.495,0.075
			C31.455,10.131,29.947,13.202,29.486,13.432z"/>
	</g>
	<path fill="#F5DEB9" d="M15,19.5c-1.136,0-2.35-0.091-3.5,0.5C8.845,21.365,7,24.362,7,25.5c0,2.899,4.325,4.5,8,4.5V19.5z"/>
	<path fill="#F5DEB9" d="M11.933,31.75L13.5,29.5l-4.5-2l2.067,4.25C11.259,32.083,11.741,32.083,11.933,31.75z"/>
	<path fill="#EFD4A7" d="M15,19.5c1.136,0,2.35-0.091,3.5,0.5c2.655,1.365,4.5,4.362,4.5,5.5c0,2.899-4.325,4.5-8,4.5V19.5z"/>
	<path fill="#F8A1C4" d="M18.5,20c-1.15-0.591-2.364-0.5-3.5-0.5s-2.35-0.091-3.5,0.5C8.845,21.365,7,24.362,7,25.5
		c0,2.899,4.325-2.333,8-2.333s8,5.233,8,2.333C23,24.362,21.155,21.365,18.5,20z"/>
	<path fill="#F9ADC8" d="M15,19.5c-1.136,0-2.35-0.091-3.5,0.5C8.845,21.365,7,24.362,7,25.5c0,2.899,4.325-2.333,8-2.333V19.5z"/>
	<path fill="#EFD4A7" d="M18.067,31.75L16.5,29.5l4.5-2l-2.067,4.25C18.741,32.083,18.259,32.083,18.067,31.75z"/>
	<path fill="#F297BE" d="M28.708,12.005c-1,0-3.333,2.208-3.333,5.958s1.167,4.667,1.167,4.667l-0.586,0.521
		c-0.072,0.064-0.047,0.183,0.045,0.212l1.947,0.626c0.085,0.027,0.17-0.041,0.163-0.129l-0.068-0.813c0,0,3.125-1.958,3.125-5.75
		S29.333,12.005,28.708,12.005z"/>
	<circle fill="#F5DEB9" cx="31.25" cy="9.792" r="0.75"/>
	<circle fill="#F5DEB9" cx="28.708" cy="9.125" r="0.75"/>
	<ellipse fill="#F5DEB9" cx="15" cy="13.313" rx="10.026" ry="7.812"/>
	<path fill="#FCE8CC" d="M15,21.125c-5.537,0-10.026-3.498-10.026-7.812C4.974,8.998,9.463,5.5,15,5.5V21.125z"/>
	<path fill="#FAB8CD" d="M15,5.5c-5.537,0-10.026,3.498-10.026,7.813c0,1.963,0.901,4.312,3.484,5.896
		c-2.04-4.04-0.431-8.611,0.953-9.345C9.51,9.811,9.633,9.856,9.704,9.943c1.759,2.154,3.667,2.432,5.296,2.432V5.5z"/>
	<g>
		<path fill="#FAB8CD" d="M10.568,6.211C9.779,3.752,5.557,3.428,4.444,2.314c-0.775-0.775-1.011-1.551-1.082-1.95
			C3.342,0.257,3.204,0.226,3.139,0.313C2.978,0.526,2.773,0.863,2.773,1.201L1.276,0.702C1.191,0.673,1.105,0.741,1.112,0.831
			C1.139,1.172,1.244,1.898,1.66,2.314c0,0-1.246,0-1.586,0.359c-0.067,0.07-0.034,0.191,0.061,0.21
			C0.6,2.977,1.864,3.725,2.333,5.133c0.557,1.67,0.019,4.924,2.992,6.229C7.227,12.196,11.078,7.802,10.568,6.211z"/>
		<path fill="#A366AD" d="M4.841,4.222c-0.15-0.169-0.431-0.074-0.44,0.151C4.365,5.247,4.408,6.888,5.117,8.01
			c0.773,1.223,0.83,1.299,1.023,1.466c0.112,0.098,0.288,0.083,0.368-0.043c0.395-0.618,1.32-1.342,1.762-1.668
			c0.126-0.093,0.133-0.277,0.017-0.383L4.841,4.222z"/>
	</g>
	<path fill="#F9ADC8" d="M15,5.5c5.537,0,10.026,3.498,10.026,7.812c0,1.963-0.901,4.312-3.484,5.896
		c2.04-4.04,0.431-8.611-0.953-9.345c-0.099-0.052-0.222-0.007-0.292,0.079c-1.759,2.154-3.667,2.432-5.296,2.432V5.5z"/>
	<path fill="#373F3F" d="M12.875,15.583c-0.108,0-0.208-0.071-0.24-0.18c-0.17-0.583-0.526-0.981-1.03-1.154
		c-0.597-0.206-1.271-0.052-1.625,0.203c-0.111,0.081-0.269,0.055-0.35-0.056c-0.08-0.112-0.055-0.269,0.057-0.349
		c0.444-0.322,1.284-0.544,2.081-0.271c0.462,0.159,1.072,0.546,1.348,1.487c0.038,0.133-0.037,0.271-0.17,0.31
		C12.922,15.58,12.898,15.583,12.875,15.583z M14.916,18.541c-1.14-0.018-1.616-0.405-1.932-0.784
		c-0.09-0.107-0.247-0.12-0.353-0.033c-0.105,0.088-0.12,0.246-0.032,0.352c0.527,0.633,1.221,0.934,2.233,0.963L15,19.042v-0.002
		v-0.503C14.971,18.537,14.946,18.541,14.916,18.541z"/>
	<g>
		<path fill="#2B3332" d="M17.125,15.583c0.108,0,0.208-0.071,0.24-0.18c0.17-0.583,0.526-0.981,1.03-1.154
			c0.597-0.206,1.271-0.052,1.625,0.203c0.111,0.081,0.269,0.055,0.35-0.056c0.08-0.112,0.055-0.269-0.057-0.349
			c-0.444-0.322-1.284-0.544-2.081-0.271c-0.462,0.159-1.072,0.546-1.348,1.487c-0.038,0.133,0.037,0.271,0.17,0.31
			C17.078,15.58,17.102,15.583,17.125,15.583z"/>
	</g>
	<g>
		<path fill="#2B3332" d="M15.084,18.541c1.14-0.018,1.616-0.405,1.932-0.784c0.09-0.107,0.247-0.12,0.353-0.033
			c0.105,0.088,0.12,0.246,0.032,0.352c-0.527,0.633-1.221,0.934-2.233,0.963L15,19.042v-0.002v-0.503
			C15.029,18.537,15.054,18.541,15.084,18.541z"/>
	</g>
	<g>
		<path fill="#F9ADC8" d="M19.432,6.211c0.789-2.459,5.011-2.784,6.124-3.897c0.775-0.775,1.011-1.551,1.082-1.95
			c0.019-0.107,0.157-0.138,0.223-0.051c0.161,0.213,0.365,0.551,0.365,0.888l1.497-0.499c0.085-0.028,0.171,0.039,0.164,0.129
			c-0.027,0.341-0.132,1.068-0.548,1.483c0,0,1.246,0,1.586,0.359c0.067,0.07,0.034,0.191-0.061,0.21
			c-0.465,0.094-1.729,0.842-2.198,2.25c-0.557,1.67-0.019,4.924-2.992,6.229C22.773,12.196,18.922,7.801,19.432,6.211z"/>
		<path fill="#945BA0" d="M25.159,4.221c0.15-0.169,0.431-0.074,0.44,0.151c0.036,0.874-0.007,2.515-0.716,3.637
			c-0.773,1.223-0.83,1.299-1.023,1.466c-0.112,0.098-0.288,0.083-0.368-0.043c-0.395-0.618-1.32-1.342-1.762-1.668
			c-0.126-0.093-0.133-0.277-0.017-0.383L25.159,4.221z"/>
	</g>
</g>
</svg>
