<?xml version="1.0" encoding="utf-8"?>
<!-- Generator: Adobe Illustrator 23.0.6, SVG Export Plug-In . SVG Version: 6.00 Build 0)  -->
<svg version="1.1" xmlns="http://www.w3.org/2000/svg" xmlns:xlink="http://www.w3.org/1999/xlink" x="0px" y="0px" width="32px"
	 height="32px" viewBox="0 0 32 32" enable-background="new 0 0 32 32" xml:space="preserve">
<g id="labels">
	<g>
	</g>
</g>
<g id="icons">
	<g>
		<path fill="#8C3179" d="M16,3.542c0-1.75,3.208-4.292,6.514-3.335c4.254,1.231,3.841,5.528,4.989,7.976
			c1.163,2.483,5.339,10.241,4.372,13.275c-0.51,1.601-3.98,1.642-5.183-0.937C24.583,16,16,11.023,16,3.542z"/>
		<path fill="#93357B" d="M18.25,0.708c1.083-0.792,3.144-0.843,4.264-0.501c4.236,1.293,3.841,5.528,4.989,7.976
			c1.163,2.483,5.339,10.241,4.372,13.275c-0.128,0.4-0.44,0.703-0.856,0.892C28.583,16,22.392,3.87,18.25,0.708z"/>
		<path fill="#FFD96C" d="M16,16.327l3.126,0.5c0,2.988,1.743,6.521,2.744,7.79c1.816,2.302,2.557,4.676,2.779,5.634
			c0.024,0.104-0.013,0.211-0.105,0.266c-1.452,0.859-6.355,1.477-7.441,1.483c-0.071,0-0.131-0.028-0.177-0.081
			c-0.283-0.328-0.611-0.92-0.927-0.92V16.327z"/>
		<path fill="#FFD96C" d="M17.204,13.114v1.232c3.755,3.426,7.309,6.112,9.024,6.305c1.884,0.212,3.007,0.524,3.57,0.796
			c0.09,0.044,0.09,0.172,0.003,0.221c-0.591,0.334-0.992,0.499-1.604,0.67c-0.031,0.009-0.052,0.039-0.046,0.071
			c0.099,0.58,0.248,1.195,0.189,1.867c-0.008,0.089-0.108,0.14-0.186,0.096c-0.609-0.348-1.331-0.791-1.71-0.99
			c-0.033-0.017-0.073-0.002-0.086,0.033c-0.205,0.541-0.39,1.28-0.61,1.945c-0.034,0.104-0.176,0.116-0.229,0.021
			c-0.699-1.251-0.899-1.645-1.672-2.197c-0.821-0.587-5.576-4.321-6.904-5.638C16.217,16.827,16,16.429,16,16.429v-3.491
			L17.204,13.114z"/>
		<path fill="#FFE28A" d="M16,16.327l-3.126,0.5c0,2.988-1.743,6.521-2.744,7.79c-1.816,2.302-2.557,4.676-2.779,5.634
			c-0.024,0.104,0.013,0.211,0.105,0.266c1.452,0.859,6.355,1.477,7.441,1.483c0.071,0,0.131-0.028,0.177-0.081
			c0.283-0.328,0.611-0.92,0.927-0.92V16.327z"/>
		<path fill="#FFD96C" d="M16,26.5c-1.938,0-4.188-0.437-5.871-1.883c-1.816,2.302-2.557,4.676-2.779,5.634
			c-0.024,0.104,0.013,0.211,0.105,0.266c1.452,0.859,6.355,1.477,7.441,1.483c0.071,0,0.131-0.028,0.177-0.081
			c0.283-0.328,0.611-0.92,0.927-0.92V26.5z"/>
		<path fill="#FFD04D" d="M16,26.5c1.938,0,4.188-0.438,5.871-1.883c1.816,2.302,2.557,4.676,2.779,5.634
			c0.024,0.104-0.013,0.211-0.105,0.266c-1.452,0.859-6.355,1.477-7.441,1.483c-0.071,0-0.131-0.028-0.177-0.081
			c-0.283-0.328-0.611-0.92-0.927-0.92V26.5z"/>
		<path fill="#9B3A7D" d="M22.101,18.434c1.731,1.248,3.185,2.098,4.111,2.201c1.941,0.216,2.929,0.482,3.601,0.81
			c0.09,0.044,0.089,0.17,0.003,0.221c-0.628,0.375-1.007,0.5-1.618,0.67c-0.031,0.009-0.053,0.039-0.048,0.07
			c0.099,0.58,0.248,1.195,0.189,1.868c-0.008,0.089-0.108,0.14-0.186,0.096c-0.612-0.35-1.338-0.796-1.716-0.993
			c-0.034-0.018-0.066-0.003-0.079,0.033c-0.206,0.542-0.39,1.282-0.611,1.949c-0.034,0.104-0.176,0.116-0.229,0.021
			c-0.699-1.251-0.899-1.645-1.672-2.197c-0.504-0.36-2.501-1.87-4.255-3.35c1.276,0.164,2.127,0.274,2.563,0.33
			c0.171,0.022,0.31-0.129,0.274-0.298C22.359,19.536,22.242,19.005,22.101,18.434z"/>
		<path fill="#FFE28A" d="M14.796,13.114v1.232c-3.755,3.426-7.309,6.112-9.024,6.305c-1.884,0.212-3.007,0.524-3.57,0.796
			c-0.09,0.044-0.09,0.172-0.003,0.221c0.591,0.334,0.992,0.499,1.604,0.67c0.031,0.009,0.052,0.039,0.046,0.071
			c-0.099,0.58-0.248,1.195-0.189,1.867c0.008,0.089,0.108,0.14,0.186,0.096c0.609-0.348,1.331-0.791,1.71-0.99
			c0.033-0.017,0.073-0.002,0.086,0.033c0.205,0.541,0.39,1.28,0.61,1.945c0.034,0.104,0.176,0.116,0.229,0.021
			c0.699-1.251,0.899-1.645,1.672-2.197c0.821-0.587,5.576-4.321,6.904-5.638C15.783,16.827,16,16.429,16,16.429v-3.491
			L14.796,13.114z"/>
		<path fill="#A53F83" d="M9.899,18.434c-1.731,1.248-3.185,2.098-4.111,2.201c-1.941,0.216-2.929,0.482-3.601,0.81
			c-0.09,0.044-0.089,0.17-0.003,0.221c0.628,0.375,1.007,0.5,1.618,0.67c0.031,0.009,0.053,0.039,0.048,0.07
			c-0.099,0.58-0.248,1.195-0.189,1.868c0.008,0.089,0.108,0.14,0.186,0.096c0.612-0.35,1.338-0.796,1.716-0.993
			c0.034-0.018,0.066-0.003,0.079,0.033c0.206,0.542,0.39,1.282,0.611,1.949c0.034,0.104,0.176,0.116,0.229,0.021
			c0.699-1.251,0.899-1.645,1.672-2.197c0.504-0.36,2.501-1.87,4.255-3.35c-1.276,0.164-2.127,0.274-2.563,0.33
			c-0.171,0.022-0.31-0.129-0.274-0.298C9.641,19.536,9.758,19.005,9.899,18.434z"/>
		<path fill="#FFE28A" d="M16,3.287c-2.761,0-5,2.376-5,5.307c0,1.832,0.357,3.203,1.687,4.156c0.798,0.572,2.277,1.151,3.313,1.151
			s2.515-0.578,3.312-1.151C20.643,11.796,21,10.426,21,8.594C21,5.663,18.761,3.287,16,3.287z"/>
		<path fill="#FFEAA7" d="M16,13.9c-1.036,0-2.514-0.578-3.313-1.15C11.357,11.796,11,10.426,11,8.594c0-2.931,2.239-5.307,5-5.307
			V13.9z"/>
		<path fill="#9B3A7D" d="M16,3.27c-2.075,0-3.854,1.358-4.611,3.268c1.14,0,2.367,0.003,3.385,0.003
			c0.09,0,0.167-0.046,0.211-0.124c0.119-0.214,0.312-0.511,0.625-0.824C15.693,5.51,15.91,5.313,16,5.313s0.307,0.198,0.391,0.281
			c0.312,0.312,0.506,0.61,0.625,0.824c0.044,0.078,0.121,0.124,0.211,0.124c1.017,0,2.249-0.003,3.389-0.003
			C19.859,4.628,18.165,3.27,16,3.27z"/>
		<path fill="#A53F83" d="M14.773,6.542c-1.017,0-2.248-0.003-3.388-0.003C12.142,4.628,13.847,3.27,16,3.27v2.043
			c-0.09,0-0.307,0.198-0.391,0.281c-0.312,0.312-0.506,0.61-0.625,0.824C14.941,6.496,14.863,6.542,14.773,6.542z"/>
		<path fill="#A53F83" d="M13.85,4.125c-2.904,0-6.949,3.014-9.174,7.471c-0.046,0.092-0.031,0.205,0.037,0.283l1.632,1.865
			c0.129,0.147,0.366,0.101,0.425-0.085c0.551-1.747,2.875-8.283,6.81-8.283L13.85,4.125z"/>
		<path fill="#9B3A7D" d="M18.15,4.125c2.904,0,6.949,3.014,9.174,7.471c0.046,0.092,0.031,0.205-0.037,0.283l-1.632,1.865
			c-0.129,0.147-0.366,0.101-0.425-0.085c-0.551-1.747-2.875-8.283-6.81-8.283L18.15,4.125z"/>
		<path fill="#FFFFFF" d="M11.924,8.038c-0.031,0.024-0.049,0.06-0.049,0.099c0,1.039,0.026,2.488,1.542,2.488
			c1.125,0,1.25-1.208,1.25-1.208S14.5,8.458,13.375,8.042C12.478,7.709,12.058,7.934,11.924,8.038z"/>
		<path fill="#D84459" d="M13.375,8.042c-0.119-0.044-0.202-0.074-0.304-0.1C12.858,8.224,12.719,8.602,12.719,9
			c0,0.755,0.274,1.43,0.899,1.612c0.976-0.153,1.049-1.195,1.049-1.195S14.5,8.458,13.375,8.042z"/>
		<ellipse fill="#373F3F" cx="13.7" cy="9.276" rx="0.418" ry="0.747"/>
		<path fill="#F7F7F7" d="M20.076,8.038c0.031,0.024,0.049,0.06,0.049,0.099c0,1.039-0.026,2.488-1.542,2.488
			c-1.125,0-1.25-1.208-1.25-1.208s0.167-0.958,1.292-1.375C19.522,7.709,19.942,7.934,20.076,8.038z"/>
		<path fill="#C84054" d="M18.625,8.042c0.119-0.044,0.202-0.074,0.304-0.1C19.142,8.224,19.281,8.602,19.281,9
			c0,0.755-0.274,1.43-0.899,1.612c-0.976-0.153-1.049-1.195-1.049-1.195S17.5,8.458,18.625,8.042z"/>
		<ellipse fill="#2B3332" cx="18.3" cy="9.276" rx="0.418" ry="0.747"/>
		<path fill="#FFE28A" d="M16,11.354c-0.729,0-1.833,0.375-1.833,0.375s0.271,1.396,1.833,1.396V11.354z"/>
		<path fill="#FFD96C" d="M16,11.354c0.729,0,1.833,0.375,1.833,0.375S17.562,13.125,16,13.125V11.354z"/>
		<path fill="#FFEAA7" d="M16,10.5c-0.646,0-2,0.479-2,1.5c0,0.178,0.083,0.396,0.311,0.396c0.48,0,0.293-0.333,0.793-0.333
			c0.479,0,0.312,0.526,0.896,0.526s0.417-0.526,0.896-0.526c0.5,0,0.312,0.333,0.793,0.333C17.917,12.396,18,12.178,18,12
			C18,10.979,16.646,10.5,16,10.5z"/>
		<path fill="#FEF1C6" d="M14,12c0,0.178,0.083,0.396,0.311,0.396c0.48,0,0.293-0.333,0.793-0.333c0.479,0,0.312,0.526,0.896,0.526
			V10.5C15.354,10.5,14,10.979,14,12z"/>
	</g>
</g>
</svg>
