<?xml version="1.0" encoding="utf-8"?>
<!-- Generator: Adobe Illustrator 23.0.6, SVG Export Plug-In . SVG Version: 6.00 Build 0)  -->
<svg version="1.1" xmlns="http://www.w3.org/2000/svg" xmlns:xlink="http://www.w3.org/1999/xlink" x="0px" y="0px" width="32px"
	 height="32px" viewBox="0 0 32 32" enable-background="new 0 0 32 32" xml:space="preserve">
<g id="labels">
	<g>
	</g>
</g>
<g id="icons">
	<g>
		<path fill="#88B9C3" d="M12.232,14.927c0,4.422-4.888,7.481-3.084,11.604c0.207,0.473,0.382,0.878,0.541,1.235
			C9.019,27.963,8,28.575,8,29.308C8,30.2,9.25,30.5,10.142,30.5c0.655,0,1.466,0.032,1.72-0.529
			c0.674,0.088,2.427-0.059,4.138-0.164V14.927H12.232z"/>
		<path fill="#78ABB6" d="M19.208,19.333c0,0,4.081-1.783,9.941-4.355c0.477-0.209,0.924,0.354,0.6,0.762
			c-4.157,5.252-9.458,12.092-9.458,12.092L19.208,19.333z"/>
		<path fill="#FFD04D" d="M26.381,16.193c0.865-0.379,1.789-0.784,2.762-1.212c0.478-0.21,0.928,0.353,0.604,0.763
			c-0.642,0.811-1.312,1.66-1.984,2.516c-1.247,0.558-2.199,0.992-2.907,1.319c-0.482,0.222-0.943-0.348-0.619-0.768
			C24.741,18.159,25.438,17.294,26.381,16.193z"/>
		<path fill="#7EB1BD" d="M19.768,14.927c0,4.422,4.888,7.481,3.084,11.604c-0.207,0.473-0.382,0.878-0.541,1.235
			C22.981,27.963,24,28.575,24,29.308c0,0.892-1.25,1.192-2.142,1.192c-0.655,0-1.466,0.032-1.72-0.529
			c-0.674,0.088-2.427-0.059-4.138-0.164V14.927H19.768z"/>
		<path fill="#88B9C3" d="M17.258,29.513c0,0-0.394-10.156-1.258-10.156V9.62l2.487-0.932c0,0,3.223,3.835,2.966,6.838
			c-0.425,4.954-1.016,11.584-1.17,13.467c0.639,0.257,1.564,1.319,1.564,1.852c0,0.81-1.478,1.155-2.693,1.155
			c-1.215,0-2.6-0.345-2.6-1.155C16.553,30.577,17.07,29.729,17.258,29.513z"/>
		<path fill="#93C2CA" d="M14.742,29.513c0,0,0.394-10.156,1.258-10.156V9.62l-2.487-0.932c0,0-3.223,3.835-2.966,6.838
			c0.425,4.954,1.016,11.584,1.17,13.467c-0.639,0.257-1.564,1.319-1.564,1.852c0,0.81,1.478,1.155,2.693,1.155
			c1.215,0,2.6-0.345,2.6-1.155C15.447,30.577,14.93,29.729,14.742,29.513z"/>
		<path fill="#93C2CA" d="M16,17.018c1.459,0,2.112-1.342,2.782-1.746c0.899-0.542,1.004-0.537,1.596-0.907
			c1.061-0.663,3.781-1.99,3.615-5.903H16V17.018z"/>
		<path fill="#99C7CE" d="M19.93,12.541c-0.597,0.133-2.239,2.355-2.802,2.521c-0.564,0.166-0.58-0.099-1.128-0.099V3.188
			l2.587,1.293l1.155-1.155c0.124-0.124,0.311-0.155,0.466-0.072c0.895,0.481,3.785,2.264,3.785,5.207
			C23.993,11.944,20.975,12.309,19.93,12.541z"/>
		<path fill="#FFD96C" d="M20.877,9.567c-0.851,0.36-1.313,0.667-1.544,0.735c0.236-0.361,0.323-1.828,0.182-1.807l0.066-3.814
			l1.99,2.222l0.089-1.577c0.004-0.079,0.094-0.122,0.158-0.075c0.511,0.378,2.174,1.723,2.174,3.211
			c0,2.95-2.166,3.663-3.463,3.953c0.147-0.67,0.406-1.938,0.487-2.748C21.023,9.592,20.946,9.538,20.877,9.567z"/>
		<path fill="#99C7CE" d="M16,17.018c-1.459,0-2.106-1.353-2.782-1.746c-0.933-0.542-1.004-0.537-1.596-0.907
			c-1.061-0.663-3.781-1.99-3.615-5.903H16V17.018z"/>
		<path fill="#9FCCD3" d="M12.07,12.541c0.597,0.133,2.239,2.355,2.802,2.521c0.564,0.166,0.58-0.099,1.128-0.099V3.188
			l-2.587,1.293l-1.155-1.155c-0.124-0.124-0.311-0.155-0.466-0.072c-0.895,0.481-3.785,2.264-3.785,5.207
			C8.007,11.944,11.025,12.309,12.07,12.541z"/>
		<path fill="#FFE28A" d="M11.123,9.567c0.851,0.36,1.313,0.667,1.544,0.735c-0.236-0.361-0.323-1.828-0.182-1.807l-0.066-3.814
			l-1.99,2.222l-0.089-1.577c-0.004-0.079-0.094-0.122-0.158-0.075C9.671,5.628,8.007,6.974,8.007,8.461
			c0,2.95,2.166,3.663,3.463,3.953c-0.147-0.67-0.406-1.938-0.487-2.748C10.977,9.592,11.054,9.538,11.123,9.567z"/>
		<path fill="#FFE28A" d="M17.26,9.771L16,8.279l-1.26,1.492l-0.298,1.161l0.441,2.613c0.015,0.09,0.061,0.172,0.13,0.233
			l0.726,0.638c0.075,0.066,0.169,0.099,0.263,0.099c0.094,0,0.188-0.033,0.263-0.099l0.726-0.638
			c0.069-0.06,0.115-0.143,0.13-0.233l0.441-2.613L17.26,9.771z"/>
		<path fill="#FFEAA7" d="M14.74,9.771l-0.298,1.161l0.441,2.613c0.015,0.09,0.061,0.172,0.13,0.233l0.726,0.638
			c0.075,0.066,0.169,0.099,0.263,0.099V8.279L14.74,9.771z"/>
		<path fill="#FFFFFF" d="M12.634,8.262c-0.713,0.564-0.139,1.974-0.139,1.974l1.856,0.825c0.115,0.053,0.249-0.011,0.277-0.135
			c0.061-0.273,0.165-0.742,0.262-1.205L12.634,8.262z"/>
		<ellipse fill="#373F3F" cx="13.844" cy="9.564" rx="0.614" ry="0.804"/>
		<ellipse fill="#FFFFFF" cx="13.844" cy="9.564" rx="0.323" ry="0.423"/>
		<path fill="#A5D1D8" d="M16,1.165c-0.398,0-0.531,0.099-0.895,0.332s-1.293,0.779-1.625,0.995
			c-0.386,0.251-0.829,0.497-1.128,1.559s-0.63,2.189-0.564,2.885c0.066,0.696,0.099,1.128,0.763,1.592
			c0.663,0.464,1.675,1.227,1.874,1.327c0.199,0.099,0.415,0.199,0.614-0.133c0.139-0.232,0.412-0.682,0.663-1.028
			C15.8,8.558,15.9,8.561,16,8.561V1.165z"/>
		<path fill="#F7F7F7" d="M19.366,8.262c0.713,0.564,0.139,1.974,0.139,1.974l-1.856,0.825c-0.115,0.053-0.249-0.011-0.277-0.135
			c-0.061-0.273-0.165-0.742-0.262-1.205L19.366,8.262z"/>
		<ellipse fill="#2B3332" cx="18.156" cy="9.564" rx="0.614" ry="0.804"/>
		<ellipse fill="#F7F7F7" cx="18.156" cy="9.564" rx="0.323" ry="0.423"/>
		<path fill="#9FCCD3" d="M16,1.165c0.398,0,0.531,0.099,0.895,0.332c0.365,0.232,1.293,0.779,1.625,0.995
			c0.386,0.251,0.829,0.497,1.128,1.559c0.298,1.061,0.63,2.189,0.564,2.885s-0.099,1.128-0.763,1.592s-1.675,1.227-1.874,1.327
			c-0.199,0.099-0.415,0.199-0.614-0.133C16.823,9.49,16.55,9.04,16.298,8.694C16.2,8.558,16.1,8.561,16,8.561V1.165z"/>
	</g>
</g>
</svg>
