<?xml version="1.0" encoding="utf-8"?>
<!-- Generator: Adobe Illustrator 23.0.6, SVG Export Plug-In . SVG Version: 6.00 Build 0)  -->
<svg version="1.1" xmlns="http://www.w3.org/2000/svg" xmlns:xlink="http://www.w3.org/1999/xlink" x="0px" y="0px" width="32px"
	 height="32px" viewBox="0 0 32 32" enable-background="new 0 0 32 32" xml:space="preserve">
<g id="labels">
	<g>
	</g>
</g>
<g id="icons">
	<path fill="#9C2C30" d="M28.271,25.125v2.5c0,0.138-0.112,0.25-0.25,0.25h-8.14c-0.138,0-0.25-0.112-0.25-0.25v-2.5
		c0-0.138,0.112-0.25,0.25-0.25h8.14C28.159,24.875,28.271,24.987,28.271,25.125z"/>
	<path fill="#9C2C30" d="M25.201,30.695h-2.5c-0.138,0-0.25-0.112-0.25-0.25v-8.14c0-0.138,0.112-0.25,0.25-0.25h2.5
		c0.138,0,0.25,0.112,0.25,0.25v8.14C25.451,30.583,25.339,30.695,25.201,30.695z"/>
	
		<ellipse transform="matrix(0.9239 -0.3827 0.3827 0.9239 -10.7047 6.6482)" fill="#F7D684" cx="11.359" cy="30.232" rx="2.5" ry="1.5"/>
	<path fill="#FAE09F" d="M13.654,19.272c0,0-3.847,0.769-6.142,2.308c-0.524,0.351-0.676,1.056-0.394,1.62l0.004,0.008
		c0.294,0.588,0.986,0.854,1.603,0.628c3.733-1.367,5.929-0.564,5.929-0.564L13.654,19.272z"/>
	<path fill="#C23734" d="M7.118,23.201l0.004,0.008c0.281,0.562,0.922,0.839,1.518,0.664c0.976-0.376,1.751-1.129,1.259-1.948
		c-0.483-0.805-1.259-0.887-2.219-0.449c-0.056,0.035-0.114,0.069-0.168,0.105C6.988,21.932,6.836,22.637,7.118,23.201z"/>
	
		<ellipse transform="matrix(0.3827 -0.9239 0.9239 0.3827 -15.1977 37.7193)" fill="#F0C877" cx="20.627" cy="30.232" rx="1.5" ry="2.5"/>
	<path fill="#F7D684" d="M18.332,19.272c0,0,3.847,0.769,6.142,2.308c0.524,0.351,0.676,1.056,0.394,1.62l-0.004,0.008
		c-0.294,0.588-0.986,0.854-1.603,0.628c-3.733-1.367-5.929-0.564-5.929-0.564L18.332,19.272z"/>
	<path fill="#F7D684" d="M15.993,17.916c-3.314,0-6,4.686-6,8s2.686,4,6,4s6-0.686,6-4S19.306,17.916,15.993,17.916z"/>
	<path fill="#B33533" d="M24.868,23.201l-0.004,0.008c-0.281,0.562-0.922,0.839-1.518,0.664c-0.976-0.376-1.751-1.129-1.259-1.948
		c0.483-0.805,1.259-0.887,2.219-0.449c0.056,0.035,0.114,0.069,0.168,0.105C24.997,21.932,25.149,22.637,24.868,23.201z"/>
	<path fill="#FAE09F" d="M16,17.916c-3.314,0-6,4.609-6,8c0,3.314,2.686,4,6,4V17.916z"/>
	<path fill="#FDEBBB" d="M15.993,6.916v14c-4.418,0-8-3.333-8-7C7.993,10.584,11.978,6.916,15.993,6.916z"/>
	<circle fill="#8A323F" cx="11.478" cy="13.416" r="1.5"/>
	<path fill="#373F3F" d="M11.478,11.916c-0.286,0-0.55,0.084-0.777,0.223c-0.139,0.227-0.223,0.492-0.223,0.777
		c0,0.828,0.672,1.5,1.5,1.5c0.286,0,0.55-0.084,0.777-0.223c0.139-0.227,0.223-0.492,0.223-0.777
		C12.978,12.588,12.307,11.916,11.478,11.916z"/>
	<circle fill="#FFFFFF" cx="11.978" cy="12.916" r="0.5"/>
	<path fill="#CF3C35" d="M10.427,3.609c2.067,2.845,2.894,5.648,1.659,6.641s-4.373,0.047-6.285-2.344
		C3.753,5.345,3.389,1.55,3.993,0.644C4.993-0.856,8.409,0.832,10.427,3.609z"/>
	<circle fill="#FDEBBB" cx="10.908" cy="8.999" r="2.084"/>
	<path fill="#FAE09F" d="M15.993,6.916v14c4.418,0,8-3.333,8-7C23.993,10.584,20.007,6.916,15.993,6.916z"/>
	<circle fill="#7F1E32" cx="20.507" cy="13.416" r="1.5"/>
	<path fill="#2B3332" d="M20.507,11.916c0.286,0,0.55,0.084,0.777,0.223c0.139,0.227,0.223,0.492,0.223,0.777
		c0,0.828-0.672,1.5-1.5,1.5c-0.286,0-0.55-0.084-0.777-0.223c-0.139-0.227-0.223-0.492-0.223-0.777
		C19.007,12.588,19.679,11.916,20.507,11.916z"/>
	<circle fill="#F7F7F7" cx="20.007" cy="12.916" r="0.5"/>
	<path fill="#2B3332" d="M16.25,14.416H16v0h-0.25c-0.138,0-0.25,0.112-0.25,0.25s0.112,0.25,0.25,0.25H16v0h0.25
		c0.138,0,0.25-0.112,0.25-0.25S16.388,14.416,16.25,14.416z"/>
	<path fill="#2B3332" d="M17.677,16.24c-0.098-0.097-0.255-0.098-0.353-0.001c-0.023,0.022-0.457,0.428-1.324,0.428v0
		c-0.867,0-1.301-0.405-1.324-0.428c-0.098-0.097-0.255-0.096-0.353,0.001c-0.098,0.098-0.098,0.256,0,0.354
		c0.023,0.023,0.586,0.573,1.677,0.573v0c1.091,0,1.653-0.55,1.677-0.573C17.774,16.495,17.774,16.337,17.677,16.24z"/>
	<path fill="#C23734" d="M21.559,3.609c-2.067,2.845-2.894,5.648-1.659,6.641s4.373,0.047,6.285-2.344
		c2.048-2.561,2.412-6.356,1.808-7.262C26.993-0.856,23.577,0.832,21.559,3.609z"/>
	<circle fill="#FAE09F" cx="21.077" cy="8.999" r="2.084"/>
	<path fill="#C23734" d="M23.118,16.584c0.053,0.053,0.102,0.112,0.148,0.168c-0.863,1.624-2.432,2.978-4.36,3.668
		c-0.797-1.018-0.662-2.586,0.379-3.627C20.401,15.676,22.117,15.583,23.118,16.584z"/>
	<path fill="#FAE09F" d="M21.011,17.405l1.028,1.022c-0.231,0.237-0.486,0.477-0.75,0.688l-0.986-1.001
		c-0.048-0.049-0.048-0.128,0.001-0.176l0.531-0.531C20.883,17.357,20.962,17.356,21.011,17.405z"/>
	<path fill="#FAE09F" d="M22.177,17.372l-1.804,1.83c-0.049,0.049-0.048,0.128,0,0.177l0.215,0.221
		c0.823-0.518,1.419-1.03,2.079-1.908l-0.314-0.319C22.305,17.324,22.226,17.324,22.177,17.372z"/>
	<g>
		<path fill="#CF3C35" d="M8.878,16.584c-0.053,0.053-0.11,0.115-0.156,0.172c0.863,1.624,2.439,2.974,4.368,3.664
			c0.797-1.018,0.662-2.586-0.379-3.627C11.595,15.676,9.879,15.583,8.878,16.584z"/>
		<path fill="#FDEBBB" d="M10.985,17.405l-1.028,1.022c0.231,0.237,0.486,0.477,0.75,0.688l0.986-1.001
			c0.048-0.049,0.048-0.128-0.001-0.176l-0.531-0.531C11.113,17.357,11.034,17.356,10.985,17.405z"/>
		<path fill="#FDEBBB" d="M9.819,17.372l1.804,1.83c0.049,0.049,0.048,0.128,0,0.177L11.408,19.6
			c-0.827-0.502-1.53-1.172-2.087-1.906l0.322-0.321C9.691,17.324,9.77,17.324,9.819,17.372z"/>
	</g>
	<path fill="#373F3F" d="M16,14.917h-0.25c-0.138,0-0.25-0.112-0.25-0.25s0.112-0.25,0.25-0.25H16V14.917z"/>
	<path fill="#373F3F" d="M16,16.667c-0.867,0-1.301-0.405-1.324-0.428c-0.098-0.097-0.255-0.096-0.353,0.001
		c-0.098,0.098-0.098,0.256,0,0.354c0.023,0.023,0.586,0.573,1.677,0.573V16.667z"/>
</g>
</svg>
