<?xml version="1.0" encoding="utf-8"?>
<!-- Generator: Adobe Illustrator 23.0.6, SVG Export Plug-In . SVG Version: 6.00 Build 0)  -->
<svg version="1.1" xmlns="http://www.w3.org/2000/svg" xmlns:xlink="http://www.w3.org/1999/xlink" x="0px" y="0px" width="32px"
	 height="32px" viewBox="0 0 32 32" enable-background="new 0 0 32 32" xml:space="preserve">
<g id="labels">
	<g>
	</g>
</g>
<g id="icons">
	<g>
		<path fill="#ACD7DD" d="M3.535,11.001c1.138,0.072,3.955,0.601,7.176,3.821l-3.889,3.889c-3.221-3.221-3.75-6.038-3.821-7.176
			C2.982,11.229,3.229,10.982,3.535,11.001z"/>
		<path fill="#434C4B" d="M8.744,14.479l-5.559,4.931c-0.551,0.786,0.215,1.822,1.128,1.525l6.118-1.986L8.744,14.479z"/>
		<path fill="#434C4B" d="M14.594,26.476l-1.623,4.842c-0.305,0.91-1.593,0.909-1.897-0.001l-1.615-4.84H14.594z"/>
		<path fill="#373F3F" d="M17.406,26.476l1.623,4.842c0.305,0.91,1.593,0.909,1.897-0.001l1.615-4.84H17.406z"/>
		<path fill="#434C4B" d="M16,13.453H8v10.399c0,2.761,2.239,5,5,5h3h3c2.761,0,5-2.239,5-5V13.453H16z"/>
		<path fill="#A5D1D8" d="M28.465,11.001c-1.138,0.072-3.955,0.601-7.176,3.821l3.889,3.889c3.221-3.221,3.75-6.038,3.821-7.176
			C29.018,11.229,28.771,10.982,28.465,11.001z"/>
		<path fill="#373F3F" d="M23.256,14.479l5.559,4.931c0.551,0.786-0.215,1.822-1.128,1.525l-6.118-1.986L23.256,14.479z"/>
		<path fill="#373F3F" d="M19,28.852h-3V13.453h8v10.399C24,26.614,21.761,28.852,19,28.852z"/>
		<path fill="#F7C845" d="M16,26.75V10.547l3.937-0.734c0,0,3.35,1.623,3.688,7.562C23.937,22.875,20.812,26.75,16,26.75z"/>
		<path fill="#B8A5E4" d="M16,24.062V10.547l3.937-0.734c0,0,3.25,1.875,3.25,8.75C23.187,22.207,18.5,24.062,16,24.062z"/>
		<path fill="#FFD04D" d="M16,19.062v-8.516l3.937-0.734c0,0,1.63,1.751,2.625,5.375C22.833,16.173,20.125,19.062,16,19.062z"/>
		<path fill="#FFD04D" d="M16,26.75V10.547l-3.938-0.734c0,0-3.379,2.927-3.5,8.875C8.5,21.75,10.5,26.75,16,26.75z"/>
		<path fill="#C6B7E9" d="M16,24.062V10.547l-3.938-0.734c0,0-3.188,1.625-3.25,8.75C8.781,22.207,13.5,24.062,16,24.062z"/>
		<path fill="#FFD96C" d="M16,19.062v-8.516l-3.938-0.734c0,0-1.63,1.751-2.625,5.375C9.167,16.173,11.875,19.062,16,19.062z"/>
		<path fill="#529CCF" d="M17.671,29.013L17.671,29.013c-0.14-0.534,0.18-1.081,0.714-1.221l2.902-0.76
			c0.534-0.14,1.081,0.18,1.221,0.714l0,0c0.14,0.534-0.18,1.081-0.714,1.221l-2.902,0.76
			C18.357,29.867,17.811,29.547,17.671,29.013z"/>
		<path fill="#5CA3D5" d="M14.329,29.013L14.329,29.013c0.14-0.534-0.18-1.081-0.714-1.221l-2.902-0.76
			c-0.534-0.14-1.081,0.18-1.221,0.714v0c-0.14,0.534,0.18,1.081,0.714,1.221l2.902,0.76C13.643,29.867,14.189,29.547,14.329,29.013
			z"/>
		<path fill="#529CCF" d="M24,21L24,21c-0.552,0-1-0.448-1-1v-4c0-0.552,0.448-1,1-1h0c0.552,0,1,0.448,1,1v4
			C25,20.552,24.552,21,24,21z"/>
		<path fill="#5CA3D5" d="M8,21L8,21c0.552,0,1-0.448,1-1v-4c0-0.552-0.448-1-1-1h0c-0.552,0-1,0.448-1,1v4C7,20.552,7.448,21,8,21z
			"/>
		<ellipse fill="#D4C9EF" cx="16" cy="9.672" rx="8" ry="6"/>
		<path fill="#C6B7E9" d="M16,3.672v12c4.418,0,8-2.686,8-6S20.418,3.672,16,3.672z"/>
		<g>
			<g>
				<path fill="#F7F7F7" d="M21.193,7.027c-0.248,0.031-0.622,0.095-1.033,0.229l0,0c-0.505,0.165-1.064,0.433-1.517,0.886
					c-0.082,0.082-0.146,0.173-0.217,0.261c0.383,0.084,0.748,0.27,1.045,0.568c0.321,0.321,0.514,0.72,0.586,1.136
					c0.102-0.079,0.206-0.155,0.3-0.25c0.443-0.443,0.71-0.987,0.876-1.484c0.143-0.426,0.209-0.815,0.24-1.07
					C21.493,7.142,21.354,7.007,21.193,7.027z"/>
				<path fill="#0F769B" d="M18.426,8.403c-0.638,0.795-0.837,1.798-0.899,2.292c-0.02,0.163,0.114,0.298,0.277,0.278
					c0.486-0.06,1.465-0.254,2.254-0.867c-0.072-0.416-0.265-0.814-0.586-1.136C19.174,8.674,18.809,8.487,18.426,8.403z"/>
			</g>
			<ellipse fill="#2B3332" cx="18.808" cy="9.702" rx="0.5" ry="0.667"/>
		</g>
		<g>
			<g>
				<path fill="#FFFFFF" d="M13.357,8.143c-0.453-0.453-1.012-0.721-1.517-0.886c-0.002,0.001-0.004,0.003-0.006,0.004
					c0.001-0.001,0.001-0.003,0.003-0.004c-0.411-0.134-0.785-0.199-1.033-0.229c-0.161-0.02-0.3,0.115-0.281,0.276
					c0.031,0.254,0.098,0.644,0.24,1.07c0.001-0.003,0.006-0.003,0.007-0.006c-0.001,0.002-0.002,0.004-0.003,0.006
					c0.166,0.497,0.433,1.041,0.876,1.484c0.094,0.094,0.198,0.17,0.3,0.25c0.072-0.416,0.265-0.814,0.586-1.136
					c0.298-0.298,0.662-0.484,1.045-0.568C13.504,8.315,13.439,8.225,13.357,8.143z"/>
				<path fill="#137FA0" d="M13.574,8.403c0.638,0.795,0.837,1.798,0.899,2.292c0.02,0.163-0.114,0.298-0.277,0.278
					c-0.486-0.06-1.465-0.254-2.254-0.867c0.072-0.416,0.265-0.814,0.586-1.136C12.826,8.674,13.191,8.487,13.574,8.403z"/>
			</g>
			<ellipse fill="#373F3F" cx="13.192" cy="9.702" rx="0.5" ry="0.667"/>
		</g>
		<g>
			<path fill="#A93949" d="M16,12.949v-0.3c0,0-1.103-0.077-1.959-0.609c-0.198-0.123-0.443,0.059-0.375,0.282
				c0.144,0.469,0.402,1.071,0.85,1.515C14.768,13.314,15.337,12.949,16,12.949z"/>
			<path fill="#9A3644" d="M17.484,13.837c0.448-0.444,0.706-1.046,0.85-1.515c0.069-0.223-0.176-0.405-0.375-0.282
				C17.103,12.572,16,12.649,16,12.649v0.3C16.663,12.949,17.232,13.314,17.484,13.837z"/>
			<path fill="#ED8C86" d="M16,12.949c-0.663,0-1.232,0.366-1.484,0.888c0.36,0.356,0.839,0.612,1.484,0.612V12.949z"/>
			<path fill="#EC8179" d="M16,12.949v1.5c0.645,0,1.124-0.256,1.484-0.612C17.232,13.314,16.663,12.949,16,12.949z"/>
		</g>
		<path fill="#65A9DC" d="M8,9.672c0-3.314,3.582-6,8-6V0C9.832,0,5,4.626,5,9.672c0,1.42,0.391,2.746,1.083,3.924
			c0.005,0.013,0.003,0.027,0.011,0.039c0.232,0.356,0.612,1.106,1.506,1.871c0.001,0.001,0.001,0.001,0.002,0.001
			c0.002,0.002,0.004,0.004,0.006,0.006c0,0,0.001-0.001,0.001-0.001c0.845,0.72,2.016,1.3,3.235,1.3
			c1.594,0,2.462-1.483,2.462-1.483c-0.904-0.293-2.366-0.939-3.36-1.78c-0.063-0.055-0.126-0.111-0.186-0.168
			c-0.096-0.089-0.191-0.178-0.274-0.271C8.559,12.139,8,10.96,8,9.672z"/>
		<path fill="#5CA3D5" d="M27,9.672C27,4.626,22.168,0,16,0v3.672c4.418,0,8,2.686,8,6c0,1.276-0.549,2.444-1.46,3.41
			c-0.004,0.004-0.009,0.007-0.012,0.011c-0.098,0.111-0.21,0.217-0.326,0.323c-0.04,0.037-0.08,0.073-0.121,0.109
			c-0.995,0.853-2.477,1.509-3.391,1.804c0,0,0.868,1.483,2.462,1.483c1.22,0,2.392-0.581,3.237-1.302
			c0.001,0.001,0.002,0.002,0.002,0.003c0.016-0.015,0.029-0.032,0.045-0.048c0.86-0.751,1.237-1.481,1.465-1.831
			c0.006-0.009,0.004-0.02,0.008-0.03C26.607,12.425,27,11.096,27,9.672z"/>
		<g>
			<g>
				<path fill="#FFC550" d="M9.675,6.786c-0.195,0-0.401-0.037-0.613-0.113c-0.588-0.21-0.921-0.667-0.938-1.287
					C8.097,4.385,8.897,3.244,9.977,2.705c-0.509-0.602-1.41-1.229-2.962-1.268C6.877,1.434,6.768,1.319,6.771,1.182
					C6.775,1.043,6.863,0.93,7.027,0.938c1.846,0.046,2.878,0.849,3.436,1.573c0.818-0.254,2.173-0.301,3.612,1.19
					c0.096,0.1,0.093,0.258-0.006,0.354c-0.1,0.096-0.258,0.094-0.354-0.006c-0.931-0.964-1.968-1.348-2.961-1.101
					c0.088,0.154,0.154,0.295,0.202,0.411c0.459,1.109,0.347,2.339-0.273,2.991C10.409,6.639,10.062,6.786,9.675,6.786z
					 M10.274,3.117c-1.047,0.481-1.67,1.531-1.65,2.255c0.011,0.411,0.215,0.69,0.606,0.83c0.442,0.159,0.82,0.09,1.091-0.196
					c0.481-0.505,0.554-1.538,0.174-2.456C10.446,3.432,10.375,3.281,10.274,3.117z"/>
			</g>
			<g>
				<path fill="#FFD96C" d="M9.675,6.786c-0.195,0-0.401-0.037-0.613-0.113c-0.588-0.21-0.921-0.667-0.938-1.287
					C8.097,4.385,8.897,3.244,9.977,2.705c-0.509-0.602-1.41-1.229-2.962-1.268C6.877,1.434,6.768,1.319,6.771,1.182
					C6.775,1.043,6.863,0.93,7.027,0.938c1.846,0.046,2.878,0.849,3.436,1.573c0.818-0.254,2.173-0.301,3.612,1.19
					c0.096,0.1,0.093,0.258-0.006,0.354c-0.1,0.096-0.258,0.094-0.354-0.006c-0.931-0.964-1.968-1.348-2.961-1.101
					c0.088,0.154,0.154,0.295,0.202,0.411c0.459,1.109,0.347,2.339-0.273,2.991C10.409,6.639,10.062,6.786,9.675,6.786z
					 M10.274,3.117c-1.047,0.481-1.67,1.531-1.65,2.255c0.011,0.411,0.215,0.69,0.606,0.83c0.442,0.159,0.82,0.09,1.091-0.196
					c0.481-0.505,0.554-1.538,0.174-2.456C10.446,3.432,10.375,3.281,10.274,3.117z"/>
			</g>
		</g>
		<g>
			<g>
				<path fill="#FFD96C" d="M22.325,6.786c-0.387,0-0.734-0.147-1.008-0.436c-0.62-0.652-0.733-1.882-0.273-2.991
					c0.048-0.116,0.114-0.257,0.202-0.411c-0.991-0.247-2.031,0.137-2.961,1.101c-0.095,0.1-0.253,0.102-0.354,0.006
					c-0.099-0.096-0.102-0.254-0.006-0.354c1.438-1.491,2.793-1.444,3.612-1.19c0.558-0.725,1.59-1.527,3.436-1.573
					c0.002,0,0.004,0,0.006,0c0.135,0,0.247,0.107,0.25,0.244c0.003,0.138-0.106,0.252-0.244,0.256
					c-1.552,0.039-2.453,0.666-2.962,1.268c1.08,0.539,1.88,1.68,1.853,2.681c-0.017,0.62-0.35,1.077-0.938,1.287
					C22.726,6.749,22.52,6.786,22.325,6.786z M21.726,3.117c-0.101,0.164-0.172,0.314-0.221,0.433
					c-0.38,0.918-0.307,1.951,0.174,2.456c0.271,0.286,0.648,0.354,1.091,0.196c0.391-0.14,0.595-0.419,0.606-0.83
					C23.396,4.648,22.773,3.599,21.726,3.117z"/>
			</g>
			<g>
				<path fill="#FFD04D" d="M22.325,6.786c-0.387,0-0.734-0.147-1.008-0.436c-0.62-0.652-0.733-1.882-0.273-2.991
					c0.048-0.116,0.114-0.257,0.202-0.411c-0.991-0.247-2.031,0.137-2.961,1.101c-0.095,0.1-0.253,0.102-0.354,0.006
					c-0.099-0.096-0.102-0.254-0.006-0.354c1.438-1.491,2.793-1.444,3.612-1.19c0.558-0.725,1.59-1.527,3.436-1.573
					c0.002,0,0.004,0,0.006,0c0.135,0,0.247,0.107,0.25,0.244c0.003,0.138-0.106,0.252-0.244,0.256
					c-1.552,0.039-2.453,0.666-2.962,1.268c1.08,0.539,1.88,1.68,1.853,2.681c-0.017,0.62-0.35,1.077-0.938,1.287
					C22.726,6.749,22.52,6.786,22.325,6.786z M21.726,3.117c-0.101,0.164-0.172,0.314-0.221,0.433
					c-0.38,0.918-0.307,1.951,0.174,2.456c0.271,0.286,0.648,0.354,1.091,0.196c0.391-0.14,0.595-0.419,0.606-0.83
					C23.396,4.648,22.773,3.599,21.726,3.117z"/>
			</g>
		</g>
	</g>
</g>
</svg>
