<?xml version="1.0" encoding="utf-8"?>
<!-- Generator: Adobe Illustrator 23.0.6, SVG Export Plug-In . SVG Version: 6.00 Build 0)  -->
<svg version="1.1" xmlns="http://www.w3.org/2000/svg" xmlns:xlink="http://www.w3.org/1999/xlink" x="0px" y="0px" width="32px"
	 height="32px" viewBox="0 0 32 32" enable-background="new 0 0 32 32" xml:space="preserve">
<g id="labels">
	<g>
	</g>
</g>
<g id="icons">
	<g>
		<path fill="#EB6B48" d="M18.136,23.548c0.639,0,2.822,3.848,2.822,6.473c0,0-0.549,0.902-1.828,0.965
			c-1.278,0.062-2.06-0.062-2.131-0.688s-0.061-3.087-0.923-3.812C17.229,24.667,17.497,23.548,18.136,23.548z"/>
		<path fill="#FF805D" d="M13.864,23.548c-0.639,0-2.822,3.848-2.822,6.473c0,0,0.549,0.902,1.828,0.965s2.06-0.062,2.131-0.688
			s0.061-3.087,0.923-3.812C14.771,24.667,14.503,23.548,13.864,23.548z"/>
		<ellipse fill="#FF805D" cx="16" cy="22" rx="8" ry="7"/>
		<path fill="#FF8D6E" d="M16,15c-4.418,0-8,3.134-8,7s3.582,7,8,7V15z"/>
		<path fill="#F7F7F7" d="M16,27.646c-4.418,0-6.578-2.476-7.51-3.23C9.547,27.139,12.553,29,16,29V27.646z"/>
		<ellipse fill="#FF9A7E" cx="16.001" cy="11" rx="12" ry="11"/>
		<path fill="#FFA68E" d="M16.001,0c-6.627,0-12,4.925-12,11s5.373,11,12,11V0z"/>
		<path fill="#FF8D6E" d="M28,11c-0.351,0.387-1.71,1.858-2.287,2.482c-0.133,0.144-0.364,0.122-0.47-0.043l-1.349-2.097
			c-0.116-0.18-0.375-0.185-0.497-0.009l-1.624,2.339c-0.112,0.161-0.345,0.173-0.473,0.024l-1.907-2.224
			c-0.124-0.144-0.345-0.142-0.461,0.009c-0.632,0.822-2.436,3.111-2.93,3.113c-0.494-0.002-2.299-2.291-2.93-3.113
			c-0.116-0.151-0.337-0.153-0.461-0.009l-1.907,2.224c-0.128,0.149-0.361,0.137-0.473-0.024l-1.624-2.339
			c-0.122-0.176-0.382-0.171-0.497,0.009l-1.349,2.097c-0.106,0.165-0.337,0.187-0.47,0.043C5.712,12.858,4.352,11.387,4.001,11
			c0,6.075,5.372,10.999,11.998,11v0c0,0,0.001,0,0.001,0l0.001,0v0C22.628,21.999,28,17.075,28,11z"/>
		<path fill="#FF9A7E" d="M16.001,14.596c-0.494,0-2.299-2.291-2.931-3.114c-0.116-0.151-0.337-0.153-0.461-0.009l-1.907,2.224
			c-0.128,0.149-0.361,0.137-0.473-0.024l-1.624-2.339c-0.122-0.176-0.382-0.171-0.497,0.009l-1.349,2.097
			c-0.106,0.165-0.337,0.187-0.47,0.043C5.712,12.858,4.352,11.387,4.001,11c0,6.075,5.373,11,12,11V14.596z"/>
		<path fill="#F7F7F7" d="M11.898,24.713c-1.059-0.658-2.366-0.573-3.22,0.118c0.701,1.55,2.291,2.882,4.12,3.582
			c0.027-0.037,0.06-0.067,0.085-0.106C13.639,27.129,13.198,25.52,11.898,24.713z"/>
		<path fill="#FF8D6E" d="M9.25,25.719c-0.553,0.32-2.431,2.578-1.938,5.156c0.093,0.486,0.716,1.048,1.994,1.111
			s2.06-0.062,2.131-0.688c0.071-0.625,0.054-2.271,0.344-3.361C12.312,25.938,10.656,24.906,9.25,25.719z"/>
		<path fill="#EDEEEE" d="M16,27.646c4.418,0,6.578-2.476,7.51-3.23C22.453,27.139,19.447,29,16,29V27.646z"/>
		<path fill="#EDEEEE" d="M20.102,24.713c1.059-0.658,2.366-0.573,3.22,0.118c-0.701,1.55-2.291,2.882-4.12,3.582
			c-0.027-0.037-0.06-0.067-0.085-0.106C18.361,27.129,18.802,25.52,20.102,24.713z"/>
		<path fill="#FF805D" d="M22.75,25.719c0.553,0.32,2.431,2.578,1.938,5.156c-0.093,0.486-0.716,1.048-1.994,1.111
			c-1.278,0.062-2.06-0.062-2.131-0.688s-0.054-2.271-0.344-3.361C19.688,25.938,21.344,24.906,22.75,25.719z"/>
		<g>
			<circle fill="#373F3F" cx="10" cy="7" r="2.5"/>
			<path fill="#FFFFFF" d="M9.868,5.398C9.562,6.1,8.964,6.619,8.368,6.87C8.256,6.917,8.251,7.076,8.359,7.131
				c0.581,0.299,1.2,0.82,1.51,1.475c0.05,0.105,0.211,0.105,0.261,0c0.31-0.655,0.93-1.176,1.51-1.475
				c0.108-0.056,0.103-0.214-0.009-0.262c-0.596-0.251-1.194-0.77-1.5-1.471C10.084,5.287,9.916,5.287,9.868,5.398z"/>
		</g>
		<g>
			<circle fill="#2B3332" cx="22" cy="7" r="2.5"/>
			<path fill="#F7F7F7" d="M21.868,5.398c-0.306,0.701-0.904,1.22-1.5,1.471c-0.112,0.047-0.117,0.206-0.009,0.262
				c0.581,0.299,1.2,0.82,1.51,1.475c0.05,0.105,0.211,0.105,0.261,0c0.31-0.655,0.93-1.176,1.51-1.475
				c0.108-0.056,0.103-0.214-0.009-0.262c-0.596-0.251-1.194-0.77-1.5-1.471C22.084,5.287,21.916,5.287,21.868,5.398z"/>
		</g>
	</g>
</g>
</svg>
