<?xml version="1.0" encoding="utf-8"?>
<!-- Generator: Adobe Illustrator 23.0.6, SVG Export Plug-In . SVG Version: 6.00 Build 0)  -->
<svg version="1.1" xmlns="http://www.w3.org/2000/svg" xmlns:xlink="http://www.w3.org/1999/xlink" x="0px" y="0px" width="32px"
	 height="32px" viewBox="0 0 32 32" enable-background="new 0 0 32 32" xml:space="preserve">
<g id="labels">
	<g>
	</g>
</g>
<g id="icons">
	<g>
		<g>
			<path fill="#FFE28A" d="M8,15.342c-0.833-0.013-1.207-0.042-2-0.297c-0.643-0.207-1.559-0.896-1.882-1.149
				c-0.074-0.058-0.168-0.068-0.253-0.028c-0.462,0.221-2.041,0.922-3.625,0.989C0.106,14.862,0,14.967,0,15.101V16h8V15.342z"/>
			<path fill="#FFD96C" d="M0,16v0.295c0,0.129,0.096,0.227,0.223,0.246c1.024,0.156,2.986,1.238,3.593,1.583
				c0.107,0.061,0.233,0.033,0.311-0.063C4.403,17.717,5.107,16.963,6,16.912c1.191-0.067,2-0.148,2-0.148V16H0z"/>
		</g>
		<g>
			<path fill="#FFE28A" d="M10.372,9.302c-0.58-0.598-0.823-0.883-1.204-1.624C8.859,7.077,8.7,5.942,8.65,5.535
				c-0.011-0.094-0.071-0.167-0.16-0.199c-0.483-0.17-2.095-0.791-3.263-1.865C5.129,3.381,4.98,3.381,4.886,3.475l-0.42,0.42
				L9.875,9.8L10.372,9.302z"/>
			<path fill="#FFD96C" d="M4.466,3.895L4.042,4.319C3.951,4.41,3.949,4.548,4.026,4.651c0.614,0.834,1.236,2.986,1.421,3.66
				C5.479,8.43,5.588,8.5,5.711,8.487c0.439-0.048,1.47-0.083,2.137,0.512c0.89,0.795,1.519,1.309,1.519,1.309L9.875,9.8
				L4.466,3.895z"/>
		</g>
		<path fill="#FFE28A" d="M15.999,0h-1.213c-0.146,0-0.26,0.124-0.249,0.27c0.028,0.364,0,1.047-0.455,1.73
			c-0.477,0.715-0.845,1.154-1.054,1.383c-0.1,0.109-0.084,0.271,0.035,0.359c0.458,0.341,1.436,1.212,1.436,2.425
			c0,1.419,0,2.833,0,2.833h1.5V0z"/>
		<g>
			<g>
				<path fill="#FFD96C" d="M10.372,22.698c-0.58,0.598-0.823,0.883-1.204,1.624C8.859,24.923,8.7,26.058,8.65,26.465
					c-0.011,0.094-0.071,0.167-0.16,0.199c-0.483,0.17-2.095,0.791-3.263,1.865c-0.099,0.091-0.248,0.091-0.342-0.004l-0.42-0.42
					L9.875,22.2L10.372,22.698z"/>
				<path fill="#FFE28A" d="M4.466,28.105l-0.424-0.424c-0.091-0.091-0.092-0.228-0.016-0.332c0.614-0.834,1.236-2.986,1.421-3.66
					c0.033-0.119,0.141-0.188,0.264-0.175c0.439,0.048,1.47,0.083,2.137-0.512c0.89-0.795,1.519-1.309,1.519-1.309L9.875,22.2
					L4.466,28.105z"/>
			</g>
			<path fill="#FFE28A" d="M15.999,32h-1.213c-0.146,0-0.26-0.124-0.249-0.27c0.028-0.364,0-1.047-0.455-1.73
				c-0.477-0.715-0.845-1.154-1.054-1.383c-0.1-0.109-0.084-0.271,0.035-0.359c0.458-0.341,1.436-1.212,1.436-2.425
				c0-1.419,0-2.833,0-2.833h1.5V32z"/>
		</g>
		<path fill="#EB6B48" d="M16,7.021c-4.971,0-9,4.029-9,9s4.029,9,9,9V7.021z"/>
		<g>
			<g>
				<path fill="#FFD96C" d="M9.971,9.335c0.739-0.667,1.582-1.212,2.512-1.606l0.251,1.366c0.008,0.044-0.008,0.089-0.043,0.118
					l-1.106,0.932c-0.034,0.029-0.081,0.037-0.123,0.022l-1.361-0.492c-0.042-0.015-0.073-0.052-0.081-0.096L9.971,9.335z"/>
				<path fill="#FFD96C" d="M12.14,23.158c0.008,0.044-0.008,0.089-0.043,0.118l-0.619,0.533c-0.816-0.475-1.562-1.082-2.188-1.78
					l1.031-0.86c0.034-0.029,0.081-0.037,0.123-0.022l1.361,0.492c0.042,0.015,0.073,0.052,0.081,0.096L12.14,23.158z"/>
			</g>
			<g>
				<path fill="#FEEA91" d="M9.971,9.335c0.739-0.667,1.582-1.212,2.512-1.606l0.251,1.366c0.008,0.044-0.008,0.089-0.043,0.118
					l-1.106,0.932c-0.034,0.029-0.081,0.037-0.123,0.022l-1.361-0.492c-0.042-0.015-0.073-0.052-0.081-0.096L9.971,9.335z"/>
				<path fill="#FEEA91" d="M12.14,23.158c0.008,0.044-0.008,0.089-0.043,0.118l-0.619,0.533c-0.816-0.475-1.562-1.082-2.188-1.78
					l1.031-0.86c0.034-0.029,0.081-0.037,0.123-0.022l1.361,0.492c0.042,0.015,0.073,0.052,0.081,0.096L12.14,23.158z"/>
			</g>
		</g>
		<g>
			<path fill="#FFD96C" d="M24,15.342c0.833-0.013,1.207-0.042,2-0.297c0.643-0.207,1.559-0.896,1.882-1.149
				c0.074-0.058,0.168-0.068,0.253-0.028c0.462,0.221,2.041,0.922,3.625,0.989C31.894,14.862,32,14.967,32,15.101V16h-8V15.342z"/>
			<path fill="#FFE28A" d="M32,16v0.295c0,0.129-0.096,0.227-0.223,0.246c-1.024,0.156-2.986,1.238-3.593,1.583
				c-0.107,0.061-0.233,0.033-0.311-0.063c-0.276-0.344-0.981-1.098-1.873-1.149c-1.191-0.067-2-0.148-2-0.148V16H32z"/>
		</g>
		<g>
			<path fill="#FFD96C" d="M21.628,9.302c0.58-0.598,0.823-0.883,1.204-1.624c0.309-0.601,0.469-1.736,0.518-2.143
				c0.011-0.094,0.071-0.167,0.16-0.199c0.483-0.17,2.095-0.791,3.263-1.865c0.099-0.091,0.248-0.091,0.342,0.004l0.42,0.42
				L22.125,9.8L21.628,9.302z"/>
			<path fill="#FFE28A" d="M27.534,3.895l0.424,0.424c0.091,0.091,0.092,0.228,0.016,0.332c-0.614,0.834-1.236,2.986-1.421,3.66
				C26.521,8.43,26.412,8.5,26.289,8.487c-0.439-0.048-1.47-0.083-2.137,0.512c-0.89,0.795-1.519,1.309-1.519,1.309L22.125,9.8
				L27.534,3.895z"/>
		</g>
		<path fill="#FFD96C" d="M16.001,0l1.213,0c0.146,0,0.26,0.124,0.249,0.27c-0.028,0.364,0,1.047,0.455,1.73
			c0.477,0.715,0.845,1.154,1.054,1.383c0.1,0.109,0.084,0.271-0.035,0.359c-0.458,0.341-1.436,1.212-1.436,2.425
			c0,1.419,0,2.833,0,2.833h-1.5V0z"/>
		<g>
			<g>
				<path fill="#FFE28A" d="M21.628,22.698c0.58,0.598,0.823,0.883,1.204,1.624c0.309,0.601,0.469,1.736,0.518,2.143
					c0.011,0.094,0.071,0.167,0.16,0.199c0.483,0.17,2.095,0.791,3.263,1.865c0.099,0.091,0.248,0.091,0.342-0.004l0.42-0.42
					L22.125,22.2L21.628,22.698z"/>
				<path fill="#FFD96C" d="M27.534,28.105l0.424-0.424c0.091-0.091,0.092-0.228,0.016-0.332c-0.614-0.834-1.236-2.986-1.421-3.66
					c-0.033-0.119-0.141-0.188-0.264-0.175c-0.439,0.048-1.47,0.083-2.137-0.512c-0.89-0.795-1.519-1.309-1.519-1.309L22.125,22.2
					L27.534,28.105z"/>
			</g>
			<path fill="#FFD96C" d="M16.001,32h1.213c0.146,0,0.26-0.124,0.249-0.27c-0.028-0.364,0-1.047,0.455-1.73
				c0.477-0.715,0.845-1.154,1.054-1.383c0.1-0.109,0.084-0.271-0.035-0.359c-0.458-0.341-1.436-1.212-1.436-2.425
				c0-1.419,0-2.833,0-2.833h-1.5V32z"/>
		</g>
		<path fill="#E56142" d="M16,7.021c4.971,0,9,4.029,9,9s-4.029,9-9,9V7.021z"/>
		<g>
			<path fill="#FFD96C" d="M21.979,9.579c-0.008,0.044-0.039,0.08-0.081,0.096l-1.361,0.492c-0.042,0.015-0.089,0.007-0.123-0.022
				l-1.106-0.932c-0.034-0.029-0.05-0.074-0.043-0.118l0.251-1.366c0.93,0.394,1.773,0.939,2.512,1.606L21.979,9.579z"/>
			<path fill="#FFD96C" d="M20.114,21.733c0.008-0.044,0.039-0.08,0.081-0.096l1.361-0.492c0.042-0.015,0.089-0.007,0.123,0.022
				l1.031,0.86c-0.627,0.698-1.373,1.305-2.188,1.78l-0.619-0.533c-0.034-0.029-0.05-0.074-0.043-0.118L20.114,21.733z"/>
		</g>
		<g>
			<g>
				<path fill="#FFD96C" d="M17.039,22.34l-0.963-0.602c-0.023-0.015-0.05-0.024-0.076-0.024s-0.053,0.009-0.076,0.024l-0.963,0.602
					c-0.042,0.026-0.068,0.072-0.068,0.122v1.224c0,0.05,0.026,0.096,0.068,0.122l0.963,0.602c0.023,0.015,0.05,0.019,0.076,0.019
					s0.053-0.004,0.076-0.019l0.963-0.602c0.042-0.026,0.068-0.072,0.068-0.122v-1.224C17.107,22.413,17.081,22.367,17.039,22.34z"
					/>
				<path fill="#FFE28A" d="M15.924,21.738c0.023-0.015,0.05-0.024,0.076-0.024v2.715c-0.026,0-0.053-0.004-0.076-0.019
					l-0.963-0.602c-0.042-0.026-0.068-0.072-0.068-0.122v-1.224c0-0.05,0.026-0.096,0.068-0.122L15.924,21.738z"/>
			</g>
			<g>
				<path fill="#FFD96C" d="M17.039,17.625l-0.963-0.602C16.053,17.009,16.026,17,16,17s-0.053,0.009-0.076,0.024l-0.963,0.602
					c-0.042,0.026-0.068,0.072-0.068,0.122v1.224c0,0.05,0.026,0.096,0.068,0.122l0.963,0.602c0.023,0.015,0.05,0.019,0.076,0.019
					s0.053-0.004,0.076-0.019l0.963-0.602c0.042-0.026,0.068-0.072,0.068-0.122v-1.224C17.107,17.698,17.081,17.652,17.039,17.625z"
					/>
				<path fill="#FFE28A" d="M15.924,17.024C15.947,17.009,15.974,17,16,17v2.715c-0.026,0-0.053-0.004-0.076-0.019l-0.963-0.602
					c-0.042-0.026-0.068-0.072-0.068-0.122v-1.224c0-0.05,0.026-0.096,0.068-0.122L15.924,17.024z"/>
			</g>
			<g>
				<path fill="#FFD96C" d="M17.039,12.911l-0.963-0.602c-0.023-0.015-0.05-0.024-0.076-0.024s-0.053,0.009-0.076,0.024
					l-0.963,0.602c-0.042,0.026-0.068,0.072-0.068,0.122v1.224c0,0.05,0.026,0.096,0.068,0.122l0.963,0.602
					C15.947,14.996,15.974,15,16,15s0.053-0.004,0.076-0.019l0.963-0.602c0.042-0.026,0.068-0.072,0.068-0.122v-1.224
					C17.107,12.983,17.081,12.937,17.039,12.911z"/>
				<path fill="#FFE28A" d="M15.924,12.309c0.023-0.015,0.05-0.024,0.076-0.024V15c-0.026,0-0.053-0.004-0.076-0.019l-0.963-0.602
					c-0.042-0.026-0.068-0.072-0.068-0.122v-1.224c0-0.05,0.026-0.096,0.068-0.122L15.924,12.309z"/>
			</g>
			<g>
				<path fill="#FFD96C" d="M17.039,8.196l-0.963-0.602C16.053,7.58,16.026,7.571,16,7.571s-0.053,0.009-0.076,0.024l-0.963,0.602
					c-0.042,0.026-0.068,0.072-0.068,0.122v1.224c0,0.05,0.026,0.096,0.068,0.122l0.963,0.602c0.023,0.015,0.05,0.019,0.076,0.019
					s0.053-0.004,0.076-0.019l0.963-0.602c0.042-0.026,0.068-0.072,0.068-0.122V8.318C17.107,8.268,17.081,8.222,17.039,8.196z"/>
				<path fill="#FFE28A" d="M15.924,7.594C15.947,7.58,15.974,7.571,16,7.571v2.715c-0.026,0-0.053-0.004-0.076-0.019l-0.963-0.602
					c-0.042-0.026-0.068-0.072-0.068-0.122V8.318c0-0.05,0.026-0.096,0.068-0.122L15.924,7.594z"/>
			</g>
		</g>
		<g>
			<path fill="#373F3F" d="M13.056,16.703C13.335,16.219,13.5,15.633,13.5,15c0-0.633-0.165-1.218-0.444-1.702l0.621-0.621
				c0.098-0.098,0.098-0.256,0-0.354s-0.256-0.098-0.354,0l-0.555,0.555c-0.396-0.476-0.929-0.777-1.518-0.849v-0.566
				c0-0.138-0.112-0.25-0.25-0.25s-0.25,0.112-0.25,0.25v0.566c-0.589,0.071-1.122,0.373-1.518,0.849l-0.555-0.555
				c-0.098-0.098-0.256-0.098-0.354,0s-0.098,0.256,0,0.354l0.621,0.621C8.665,13.782,8.5,14.367,8.5,15
				c0,0.633,0.165,1.219,0.444,1.703l-0.621,0.621c-0.098,0.098-0.098,0.256,0,0.354C8.372,17.726,8.436,17.75,8.5,17.75
				s0.128-0.024,0.177-0.073l0.556-0.556c0.396,0.475,0.929,0.777,1.518,0.848v0.566c0,0.138,0.112,0.25,0.25,0.25
				s0.25-0.112,0.25-0.25V17.97c0.589-0.071,1.121-0.373,1.518-0.848l0.556,0.556c0.049,0.049,0.112,0.073,0.177,0.073
				s0.128-0.024,0.177-0.073c0.098-0.098,0.098-0.256,0-0.354L13.056,16.703z"/>
			<path fill="#E85160" d="M11,16c-0.414,0-0.75-0.448-0.75-1c0-0.552,0.336-1,0.75-1s0.75,0.448,0.75,1
				C11.75,15.552,11.414,16,11,16z"/>
			<path fill="#FFE28A" d="M12.96,15.5c-0.186,1.14-0.994,2-1.96,2s-1.774-0.86-1.96-2H12.96z M12.96,14.5
				c-0.186-1.14-0.994-2-1.96-2s-1.774,0.86-1.96,2H12.96z"/>
		</g>
		<g>
			<path fill="#2B3332" d="M23.056,16.703C23.335,16.219,23.5,15.633,23.5,15c0-0.633-0.165-1.218-0.444-1.702l0.621-0.621
				c0.098-0.098,0.098-0.256,0-0.354s-0.256-0.098-0.354,0l-0.555,0.555c-0.396-0.476-0.929-0.777-1.518-0.849v-0.566
				c0-0.138-0.112-0.25-0.25-0.25s-0.25,0.112-0.25,0.25v0.566c-0.589,0.071-1.122,0.373-1.518,0.849l-0.555-0.555
				c-0.098-0.098-0.256-0.098-0.354,0s-0.098,0.256,0,0.354l0.621,0.621C18.665,13.782,18.5,14.367,18.5,15
				c0,0.633,0.165,1.219,0.444,1.703l-0.621,0.621c-0.098,0.098-0.098,0.256,0,0.354c0.049,0.049,0.112,0.073,0.177,0.073
				s0.128-0.024,0.177-0.073l0.556-0.556c0.396,0.475,0.929,0.777,1.518,0.848v0.566c0,0.138,0.112,0.25,0.25,0.25
				s0.25-0.112,0.25-0.25V17.97c0.589-0.071,1.121-0.373,1.518-0.848l0.556,0.556c0.049,0.049,0.112,0.073,0.177,0.073
				s0.128-0.024,0.177-0.073c0.098-0.098,0.098-0.256,0-0.354L23.056,16.703z"/>
			<path fill="#D84459" d="M21,16c-0.414,0-0.75-0.448-0.75-1c0-0.552,0.336-1,0.75-1s0.75,0.448,0.75,1
				C21.75,15.552,21.414,16,21,16z"/>
			<path fill="#FFD96C" d="M22.96,15.5c-0.186,1.14-0.994,2-1.96,2s-1.774-0.86-1.96-2H22.96z M22.96,14.5
				c-0.186-1.14-0.994-2-1.96-2s-1.774,0.86-1.96,2H22.96z"/>
		</g>
	</g>
</g>
</svg>
