<?xml version="1.0" encoding="utf-8"?>
<!-- Generator: Adobe Illustrator 23.0.6, SVG Export Plug-In . SVG Version: 6.00 Build 0)  -->
<svg version="1.1" xmlns="http://www.w3.org/2000/svg" xmlns:xlink="http://www.w3.org/1999/xlink" x="0px" y="0px" width="32px"
	 height="32px" viewBox="0 0 32 32" enable-background="new 0 0 32 32" xml:space="preserve">
<g id="labels">
	<g>
	</g>
</g>
<g id="icons">
	<g>
		<path fill="#56C7CD" d="M16,7.792c-1.5-1.083-3.958-2.5-3.125-3.833S15.5,3.792,16,3.876V7.792z"/>
		<path fill="#56C7CD" d="M19.125,3.959C18.292,2.626,16.5,3.792,16,3.876c-0.5-0.083-2.292-1.25-3.125,0.083
			C12.042,5.292,14.5,6.709,16,7.792C17.5,6.709,19.958,5.292,19.125,3.959z"/>
		<path fill="#51BAC5" d="M16,7.792c1.5-1.083,3.958-2.5,3.125-3.833S16.5,3.792,16,3.876V7.792z"/>
		<path fill="#373F3F" d="M16,13.186c-2.223,0.093-4.846-0.188-5.208-1.112c1.75-0.917,2.484-1.427,2.833-2.417
			c0.5-1.417,1.298-3.208,2.375-3.208V13.186z"/>
		<path fill="#373F3F" d="M18.375,9.657C17.875,8.24,17.077,6.449,16,6.449s-1.875,1.792-2.375,3.208
			c-0.349,0.99-1.083,1.5-2.833,2.417c0.362,0.924,2.985,1.205,5.208,1.112c2.223,0.093,4.846-0.188,5.208-1.112
			C19.458,11.157,18.724,10.647,18.375,9.657z"/>
		<path fill="#2B3332" d="M16,13.186c2.223,0.093,4.846-0.188,5.208-1.112c-1.75-0.917-2.484-1.427-2.833-2.417
			c-0.5-1.417-1.298-3.208-2.375-3.208V13.186z"/>
		<path fill="#373F3F" d="M6.325,22.574c-0.21,1.112-3.019,4.095-5.071,3.04c-1.468-0.755-2.024-2.901,0.446-4.29
			c2-1.125,2.563-1.062,2.563-1.062L6.325,22.574z"/>
		<path fill="#434C4B" d="M16,11.222c-6.627,0-12,3.907-12,8.727s5.373,8.727,12,8.727V11.222z"/>
		<path fill="#2B3332" d="M25.675,22.574c0.21,1.112,3.019,4.095,5.071,3.04c1.468-0.755,2.024-2.901-0.446-4.29
			c-2-1.125-2.562-1.062-2.562-1.062L25.675,22.574z"/>
		<path fill="#373F3F" d="M16,11.222c6.627,0,12,3.907,12,8.727s-5.373,8.727-12,8.727V11.222z"/>
		<path fill="#EA9C7A" d="M16,23.865c-6.627,0-7.875-0.542-10.552,0.243C7.48,26.829,11.444,28.676,16,28.676
			s8.52-1.847,10.552-4.567C23.875,23.324,22.627,23.865,16,23.865z"/>
		<path fill="#F4A984" d="M16,23.866c-6.627,0-7.875-0.542-10.552,0.243C7.48,26.829,11.444,28.676,16,28.676V23.866z"/>
		<circle fill="#FFFFFF" cx="9" cy="17" r="2"/>
		<circle fill="#373F3F" cx="9" cy="17" r="0.5"/>
		<path fill="#66D3D3" d="M8.562,23.386c0.25,1.688-0.312,4.562-1.437,4.562s-1.165-1.063-0.5-2.875C7.312,23.199,7,22.386,7,22.386
			L8.562,23.386z"/>
		<path fill="#66D3D3" d="M25.833,21.032c-0.917-2.167-4.75,1.25-9.833,1.417c-5.083-0.167-8.917-3.583-9.833-1.417
			c-0.883,2.087,5.042,4.917,9.833,4.917S26.716,23.119,25.833,21.032z"/>
		<path fill="#56C7CD" d="M16,24.157c5.083-0.167,9.083-2.625,9.833-3.125c0.883,2.087-5.042,4.917-9.833,4.917V24.157z"/>
		<circle fill="#F7F7F7" cx="23" cy="17" r="2"/>
		<circle fill="#2B3332" cx="23" cy="17" r="0.5"/>
		<path fill="#F6B392" d="M20.266,15.087l-2.724,1.235c0,0-1.354-2.292-1.542-2.292c-0.188,0-1.542,2.292-1.542,2.292l-2.724-1.235
			c-0.115-0.052-0.226,0.079-0.155,0.184l2.827,4.203c0.047,0.07,0.147,0.074,0.201,0.009L16,17.781l1.393,1.703
			c0.053,0.065,0.154,0.06,0.201-0.009l2.827-4.203C20.491,15.167,20.38,15.035,20.266,15.087z"/>
		<path fill="#F6B392" d="M5.687,20.511c-0.029,0-0.06-0.005-0.088-0.016c-1.838-0.694-1.316-3.844-0.764-7.178
			c0.503-3.032,1.022-6.168-0.092-7.68C4.379,5.143,3.859,4.856,3.153,4.759C2.542,4.673,1.35,4.967,0.803,5.632
			C0.515,5.984,0.45,6.4,0.611,6.868C0.768,7.319,1.056,7.576,1.444,7.61c0.461,0.046,0.946-0.237,1.099-0.511
			C2.626,6.95,2.57,6.877,2.55,6.849C2.467,6.738,2.489,6.582,2.6,6.499c0.11-0.081,0.269-0.061,0.351,0.05
			c0.172,0.229,0.183,0.519,0.03,0.793C2.71,7.827,2.014,8.163,1.4,8.108c-0.343-0.03-0.963-0.21-1.262-1.078
			C-0.08,6.396,0.017,5.803,0.417,5.315C1.098,4.485,2.5,4.168,3.222,4.263c0.834,0.114,1.481,0.478,1.925,1.078
			c1.239,1.682,0.702,4.924,0.183,8.059c-0.518,3.126-1.008,6.079,0.446,6.627c0.13,0.049,0.194,0.193,0.146,0.322
			C5.884,20.45,5.788,20.511,5.687,20.511z M26.4,20.496c1.838-0.694,1.316-3.844,0.764-7.178c-0.503-3.032-1.022-6.168,0.092-7.68
			c0.365-0.495,0.885-0.782,1.591-0.879c0.61-0.09,1.804,0.208,2.351,0.873c0.288,0.352,0.353,0.768,0.191,1.235
			c-0.156,0.451-0.444,0.708-0.833,0.742c-0.46,0.046-0.946-0.237-1.099-0.511c-0.083-0.149-0.027-0.223-0.007-0.25
			c0.083-0.111,0.061-0.268-0.05-0.351c-0.108-0.081-0.269-0.061-0.351,0.05c-0.172,0.229-0.183,0.519-0.03,0.793
			c0.271,0.485,0.969,0.819,1.58,0.767c0.343-0.03,0.963-0.21,1.262-1.078c0.219-0.634,0.122-1.227-0.278-1.715
			c-0.682-0.83-2.086-1.148-2.805-1.052c-0.834,0.114-1.481,0.478-1.925,1.078c-1.239,1.682-0.702,4.924-0.183,8.059
			c0.518,3.126,1.008,6.079-0.446,6.627c-0.13,0.049-0.194,0.193-0.146,0.322c0.038,0.101,0.134,0.162,0.234,0.162
			C26.342,20.511,26.372,20.506,26.4,20.496z"/>
		<path fill="#56C7CD" d="M23.438,23.386c-0.25,1.688,0.312,4.562,1.438,4.562s1.165-1.063,0.5-2.875
			C24.688,23.199,25,22.386,25,22.386L23.438,23.386z"/>
		<path fill="#F9BDA0" d="M11.734,15.087l2.724,1.235c0,0,1.354-2.292,1.542-2.292v3.75l-1.393,1.703
			c-0.053,0.065-0.154,0.06-0.2-0.009l-2.827-4.203C11.509,15.167,11.62,15.035,11.734,15.087z"/>
		<path fill="#7CD8D5" d="M16,22.449c-5.083-0.167-8.917-3.583-9.833-1.417c-0.883,2.087,5.042,4.917,9.833,4.917V22.449z"/>
		<path fill="#66D3D3" d="M16,24.157c-5.083-0.167-9.083-2.625-9.833-3.125c-0.883,2.087,5.042,4.917,9.833,4.917V24.157z"/>
	</g>
</g>
</svg>
