<?xml version="1.0" encoding="utf-8"?>
<!-- Generator: Adobe Illustrator 23.0.6, SVG Export Plug-In . SVG Version: 6.00 Build 0)  -->
<svg version="1.1" xmlns="http://www.w3.org/2000/svg" xmlns:xlink="http://www.w3.org/1999/xlink" x="0px" y="0px" width="32px"
	 height="32px" viewBox="0 0 32 32" enable-background="new 0 0 32 32" xml:space="preserve">
<g id="labels">
	<g>
	</g>
</g>
<g id="icons">
	<g>
		<path fill="#E5C79A" d="M19.638,4.921c-0.967-1.434-3.26-4.89-3.638-4.89v4.302v1.198V19.25c5.156,0,9.335-3.339,9.335-7.458
			C25.335,8.704,22.986,6.054,19.638,4.921z"/>
		<path fill="#EACEA1" d="M12.362,4.921c-3.348,1.133-5.697,3.783-5.697,6.871c0,4.119,4.179,7.458,9.335,7.458V5.531V4.333V0.031
			C15.622,0.031,13.329,3.487,12.362,4.921z"/>
		<path fill="#DD564C" d="M16,10.6l0,4.13c-0.209,0.454-0.479,0.88-0.817,1.254L13.7,14.643c0.347-0.384,0.58-0.832,0.691-1.332
			c0.373-1.669-0.771-3.35-2.55-3.748c-1.781-0.399-3.53,0.637-3.902,2.305c-0.138,0.617-0.074,1.256,0.187,1.846l-0.979,0.432
			c-0.308-0.74-0.481-1.53-0.482-2.353c0-0.981,0.243-1.916,0.675-2.774c1.23-1.226,3.069-1.827,4.938-1.406
			C13.996,7.996,15.335,9.148,16,10.6z"/>
		<path fill="#D64F45" d="M19.722,7.611c1.869-0.421,3.708,0.18,4.938,1.406c0.431,0.858,0.675,1.793,0.675,2.774
			c0,0.823-0.173,1.612-0.481,2.353l-0.979-0.432c0.26-0.59,0.325-1.229,0.187-1.846c-0.372-1.668-2.122-2.704-3.902-2.305
			c-1.779,0.398-2.923,2.079-2.55,3.748c0.112,0.5,0.344,0.948,0.691,1.332l-1.483,1.342c-0.338-0.374-0.607-0.8-0.817-1.254V10.6
			C16.665,9.148,18.004,7.996,19.722,7.611z"/>
		<path fill="#E0C193" d="M11.625,17.625C8.877,18.118,2.184,20.059,0,24.427c0,0,0.702,2.339,1.998,2.755
			c0.21,0.067,0.44-0.008,0.567-0.188c0.744-1.058,3.875-4.604,8.285-4.604L11.625,17.625z"/>
		<path fill="#E0C193" d="M16,32c-0.938,0-3.188-4.625-3.563-5.5c0.938,0,3.563,0,3.563,0V32z"/>
		<path fill="#E5C79A" d="M16,29c-3.866,0-7-2.494-7-6.36S12.134,15,16,15V29z"/>
		<path fill="#DBBA8C" d="M20.375,17.625c2.748,0.493,9.441,2.434,11.625,6.802c0,0-0.702,2.339-1.998,2.755
			c-0.21,0.067-0.44-0.008-0.567-0.188c-0.744-1.058-3.875-4.604-8.285-4.604L20.375,17.625z"/>
		<path fill="#DBBA8C" d="M16,32c0.938,0,3.188-4.625,3.562-5.5c-0.938,0-3.562,0-3.562,0V32z"/>
		<path fill="#E0C193" d="M16,29c3.866,0,7-2.494,7-6.36S19.866,15,16,15V29z"/>
		
			<ellipse transform="matrix(0.9892 -0.1468 0.1468 0.9892 -1.6704 3.174)" fill="#EACEA1" cx="20.666" cy="12.903" rx="3.627" ry="3.454"/>
		<path fill="#E5C79A" d="M16,14.333c5.156,0,6.917-0.667,9.335-2.542c0,4.119-4.179,7.458-9.335,7.458V14.333z"/>
		<path fill="#DBBA8C" d="M24.262,12.563c0.161,1.812-1.176,3.472-3.089,3.756c-1.653,0.245-3.189-0.62-3.82-2.006
			C20.789,14.216,22.518,13.709,24.262,12.563z"/>
		
			<ellipse transform="matrix(0.1468 -0.9892 0.9892 0.1468 -3.093 22.2194)" fill="#EFD4A7" cx="11.334" cy="12.903" rx="3.454" ry="3.627"/>
		<path fill="#EACEA1" d="M16,14.333c-5.156,0-6.917-0.667-9.335-2.542c0,4.119,4.179,7.458,9.335,7.458V14.333z"/>
		<path fill="#E0C193" d="M7.738,12.563c-0.161,1.812,1.176,3.472,3.089,3.756c1.653,0.245,3.189-0.62,3.82-2.006
			C11.211,14.216,9.482,13.709,7.738,12.563z"/>
		<path fill="#DD564C" d="M16,22v-2c-1.531,0-2.846,0.87-3.518,2.134c-1.389-0.479-2.447-1.227-3.014-2.081
			c-0.282,0.784-0.444,1.609-0.461,2.442c0.788,0.651,1.841,1.312,3.008,1.698l0.004-0.012C12.115,26.304,13.853,28,16,28v-2
			c-1.105,0-2-0.895-2-2C14,22.895,14.895,22,16,22z"/>
		<path fill="#D64F45" d="M22.993,22.496c-0.017-0.833-0.179-1.658-0.461-2.442c-0.566,0.854-1.625,1.602-3.014,2.081
			C18.846,20.87,17.531,20,16,20v2c1.105,0,2,0.895,2,2c0,1.105-0.895,2-2,2v2c2.147,0,3.885-1.696,3.982-3.819l0.004,0.012
			C21.152,23.808,22.204,23.147,22.993,22.496z"/>
	</g>
</g>
</svg>
