<?xml version="1.0" encoding="utf-8"?>
<!-- Generator: Adobe Illustrator 23.0.6, SVG Export Plug-In . SVG Version: 6.00 Build 0)  -->
<svg version="1.1" xmlns="http://www.w3.org/2000/svg" xmlns:xlink="http://www.w3.org/1999/xlink" x="0px" y="0px" width="32px"
	 height="32px" viewBox="0 0 32 32" enable-background="new 0 0 32 32" xml:space="preserve">
<g id="labels">
	<g>
	</g>
</g>
<g id="icons">
	<g>
		<path fill="#FFD96C" d="M17.417,19.573c0.236,0.845,0.63,4.456-1.417,4.456v-4.303L17.417,19.573z"/>
		<path fill="#866EBA" d="M18.029,24.743c1.454-0.255,2.556-0.729,3.57-0.04c0.981,0.666,0.778,2.15-0.609,2.282
			c-1.433,0.136-2.167,0.519-2.167,0.519L18.029,24.743z"/>
		<path fill="#9179C6" d="M16,22.423c1.212,0,2.195,0.799,2.195,1.786c0,0.986-0.983,1.786-2.195,1.786V22.423z"/>
		<path fill="#9179C6" d="M16,23.455c2.337,0,5.29,2.057,5.29,3.958c0,1.901-2.953,2.926-5.29,2.926V23.455z"/>
		<path fill="#9179C6" d="M20.144,26.768c1.014,0.344,2.425,1.248,2.865,2.452c0.441,1.205-1.19,2.065-2.292,1.162
			c-1.102-0.904-1.94-1.076-1.94-1.076L20.144,26.768z"/>
		<path fill="#9179C6" d="M13.971,24.743c-1.454-0.255-2.556-0.729-3.57-0.04c-0.981,0.666-0.778,2.15,0.609,2.282
			c1.433,0.136,2.167,0.519,2.167,0.519L13.971,24.743z"/>
		<path fill="#9D85D3" d="M16,22.423c-1.212,0-2.195,0.799-2.195,1.786c0,0.986,0.983,1.786,2.195,1.786V22.423z"/>
		<path fill="#9D85D3" d="M16,23.455c-2.337,0-5.29,2.057-5.29,3.958c0,1.901,2.953,2.926,5.29,2.926V23.455z"/>
		<path fill="#FFE28A" d="M14.583,19.573c-0.236,0.845-0.63,4.456,1.417,4.456v-4.303L14.583,19.573z"/>
		<path fill="#9D85D3" d="M11.856,26.768c-1.014,0.344-2.425,1.248-2.865,2.452c-0.441,1.205,1.19,2.065,2.292,1.162
			c1.102-0.904,1.94-1.076,1.94-1.076L11.856,26.768z"/>
		<path fill="#FFE28A" d="M16.003,17.618c1.145,0.002,2.072,0.758,2.07,1.689s-0.931,1.684-2.076,1.683L16.003,17.618z"/>
		<path fill="#FFEAA7" d="M16,17.62c-1.145,0-2.073,0.755-2.073,1.686c0,0.931,0.928,1.686,2.073,1.686V17.62z"/>
		<path fill="#FFD04D" d="M16,21.34c-0.954,0-1.555,0.685-1.555,1.461s0.601,1.574,1.555,1.574s1.555-0.798,1.555-1.574
			S16.954,21.34,16,21.34z"/>
		<path fill="#FFD96C" d="M16,21.34c-0.954,0-1.555,0.685-1.555,1.461c0,0.776,0.601,1.574,1.555,1.574V21.34z"/>
		<path fill="#9D85D3" d="M16,4.395c-1.411,0-7.45,0.774-7.45,7.271c0,6.497,4.541,8.218,7.45,8.218s7.45-1.721,7.45-8.218
			C23.45,5.17,17.411,4.395,16,4.395z"/>
		<path fill="#A78EDD" d="M16,19.884c-2.909,0-7.45-1.721-7.45-8.218S14.589,4.395,16,4.395V19.884z"/>
		<path fill="#FFEAA7" d="M9.27,14.641c-0.098,0.081-0.175,0.179-0.252,0.276c0.187,0.585,0.423,1.108,0.7,1.572
			c0.029-0.382,0.18-0.722,0.471-0.943c0.664-0.502,1.761-0.206,2.45,0.662c0.69,0.868,0.711,1.979,0.047,2.481
			c-0.144,0.109-0.326,0.18-0.502,0.217c0.479,0.269,0.98,0.486,1.481,0.623c0.972-0.893,0.837-2.653-0.334-3.99
			C12.134,14.171,10.316,13.769,9.27,14.641z"/>
		
			<ellipse transform="matrix(0.732 -0.6813 0.6813 0.732 -8.5973 12.3798)" fill="#FFEAA7" cx="11.438" cy="17.118" rx="1.025" ry="1.369"/>
		<path fill="#FFE28A" d="M22.743,14.641c0.098,0.081,0.175,0.179,0.252,0.276c-0.187,0.585-0.456,1.132-0.733,1.597
			c-0.029-0.382-0.147-0.747-0.438-0.967c-0.664-0.502-1.761-0.206-2.45,0.662c-0.69,0.868-0.711,1.979-0.047,2.481
			c0.144,0.109,0.311,0.174,0.488,0.21c-0.516,0.289-1.034,0.509-1.466,0.63c-0.972-0.893-0.837-2.653,0.334-3.99
			C19.879,14.171,21.697,13.769,22.743,14.641z"/>
		
			<ellipse transform="matrix(0.6813 -0.732 0.732 0.6813 -5.973 20.5172)" fill="#FFE28A" cx="20.576" cy="17.118" rx="1.369" ry="1.025"/>
		<path fill="#A78EDD" d="M16,4.395c-4.334,0-7.935,2.359-7.935,5.163s3.601,4.991,7.935,4.991s7.935-2.187,7.935-4.991
			S20.334,4.395,16,4.395z"/>
		<path fill="#B8A5E4" d="M16,4.395c-4.334,0-7.935,2.359-7.935,5.163s3.601,4.991,7.935,4.991V4.395z"/>
		<path fill="#FCD8DE" d="M14.759,5.256c-0.264-1.248-1.411-2.84-3.703-3.872c-3.174-1.43-5.186-0.03-5.554,0.473
			C5.156,2.33,5.193,2.932,6.163,2.975s2.513-0.086,3.879,0.688c1.111,0.63,1.719,1.248,2.425,2.237
			C13.37,7.167,14.921,6.019,14.759,5.256z"/>
		<path fill="#E59FA8" d="M9.685,0.913C7.306,0.36,5.814,1.43,5.502,1.857C5.156,2.33,5.193,2.932,6.163,2.975
			C6.8,3.004,7.685,2.958,8.604,3.142C8.594,2.287,8.991,1.556,9.685,0.913z"/>
		<path fill="#FBCFD6" d="M11.795,7.112c0.102-0.135,0.093-0.32-0.024-0.443c-0.909-0.954-2.52-2.49-5.711-2.458
			C2.576,4.245,1.523,6.726,2.042,7.379c0.649,0.817,2.162-0.561,4.199-0.67c1.771-0.094,3.231,0.369,4.553,1.182
			c0.16,0.098,0.368,0.064,0.48-0.084L11.795,7.112z"/>
		<path fill="#E2959E" d="M4.97,4.301C2.364,4.762,1.578,6.769,2.034,7.35c0.483,0.616,1.46-0.001,2.777-0.388
			C4.582,6.245,4.538,5.127,4.97,4.301z"/>
		<path fill="#FBCFD6" d="M17.241,5.256c0.264-1.248,1.411-2.84,3.703-3.872c3.174-1.43,5.186-0.03,5.554,0.473
			c0.346,0.473,0.309,1.076-0.661,1.119s-2.513-0.086-3.879,0.688c-1.111,0.63-1.719,1.248-2.425,2.237
			C18.63,7.167,17.079,6.019,17.241,5.256z"/>
		<path fill="#E2959E" d="M22.315,0.913c2.379-0.553,3.871,0.517,4.183,0.944c0.346,0.473,0.309,1.076-0.661,1.119
			c-0.637,0.028-1.522-0.018-2.441,0.167C23.406,2.287,23.009,1.556,22.315,0.913z"/>
		<path fill="#FAC4D1" d="M20.211,7.141c-0.102-0.135-0.095-0.32,0.021-0.443c0.903-0.959,2.505-2.505,5.696-2.492
			c3.484,0.014,4.551,2.488,4.036,3.145c-0.644,0.821-2.165-0.548-4.203-0.645c-1.771-0.084-3.229,0.388-4.546,1.209
			c-0.159,0.099-0.368,0.067-0.481-0.082L20.211,7.141z"/>
		<path fill="#2B3332" d="M16,5.414c-2.889,0-5.29,1.573-5.29,3.442c0,1.869,2.401,3.327,5.29,3.327s5.29-1.458,5.29-3.327
			C21.29,6.986,18.889,5.414,16,5.414z"/>
		<path fill="#373F3F" d="M16,5.414c-2.889,0-5.29,1.573-5.29,3.442s2.401,3.327,5.29,3.327V5.414z"/>
		<path fill="#E08C96" d="M27.03,4.301c2.606,0.461,3.391,2.468,2.935,3.05c-0.483,0.616-1.46-0.001-2.777-0.388
			C27.418,6.245,27.462,5.127,27.03,4.301z"/>
		
			<ellipse transform="matrix(0.6758 -0.737 0.737 0.6758 -0.248 16.3154)" fill="#FFEAA7" cx="18.425" cy="8.44" rx="0.784" ry="1.046"/>
		
			<ellipse transform="matrix(0.737 -0.6758 0.6758 0.737 -2.1341 11.3942)" fill="#FEF1C6" cx="13.575" cy="8.44" rx="1.046" ry="0.784"/>
		<path fill="#F9ADC8" d="M18.651,11.71c0.357-1.046,2.425-1.678,4.893,0.344s4.408,6.282,2.292,7.228
			c-2.116,0.947-3.478-3.918-4.32-5.163C20.062,11.968,18.519,12.097,18.651,11.71z"/>
		<path fill="#DD7C8A" d="M25.912,14.98c0.985,1.825,1.247,3.71-0.076,4.302c-1.28,0.573-2.284-0.981-3.064-2.574
			C24.332,16.313,25.169,15.754,25.912,14.98z"/>
		<path fill="#FAB8CD" d="M20.547,9.73c0.793-1.678,2.174-2.465,4.673-2.194c2.777,0.301,7.538,4.13,5.114,5.98
			c-1.788,1.364-2.576-1.892-5.29-3.184c-1.807-0.861-3.218-0.817-3.835-0.172C20.591,10.806,20.289,10.274,20.547,9.73z"/>
		<path fill="#DE8490" d="M28.98,9.287c1.703,1.34,2.791,3.133,1.353,4.23c-1.194,0.911-1.942-0.239-3.116-1.488
			C28.211,11.365,29.049,10.419,28.98,9.287z"/>
		<path fill="#FAB8CD" d="M13.349,11.71c-0.357-1.046-2.425-1.678-4.893,0.344s-4.408,6.282-2.292,7.228
			c2.116,0.947,3.478-3.918,4.32-5.163C11.938,11.968,13.481,12.097,13.349,11.71z"/>
		<path fill="#DE8490" d="M6.088,14.98c-0.985,1.825-1.247,3.71,0.076,4.302c1.28,0.573,2.284-0.981,3.064-2.574
			C7.668,16.313,6.831,15.754,6.088,14.98z"/>
		<path fill="#FAC4D1" d="M11.453,9.73C10.66,8.052,9.279,7.265,6.78,7.536c-2.777,0.301-7.538,4.13-5.114,5.98
			c1.788,1.364,2.576-1.892,5.29-3.184c1.807-0.861,3.218-0.817,3.835-0.172C11.409,10.806,11.711,10.274,11.453,9.73z"/>
		<path fill="#E08C96" d="M3.02,9.287c-1.703,1.34-2.791,3.133-1.353,4.23c1.194,0.911,1.942-0.239,3.116-1.488
			C3.789,11.365,2.951,10.419,3.02,9.287z"/>
	</g>
</g>
</svg>
