<?xml version="1.0" encoding="utf-8"?>
<!-- Generator: Adobe Illustrator 23.0.6, SVG Export Plug-In . SVG Version: 6.00 Build 0)  -->
<svg version="1.1" xmlns="http://www.w3.org/2000/svg" xmlns:xlink="http://www.w3.org/1999/xlink" x="0px" y="0px" width="32px"
	 height="32px" viewBox="0 0 32 32" enable-background="new 0 0 32 32" xml:space="preserve">
<g id="labels">
	<g>
	</g>
</g>
<g id="icons">
	<g>
		<path fill="#A9FAA2" d="M7.024,12.162c0.208,0.775,1.725,1.042,3.091,0.676c1.366-0.366,1.235-1.005,1.028-1.78
			c-0.208-0.775-0.414-1.393-1.78-1.028C7.996,10.397,6.816,11.387,7.024,12.162z"/>
		<path fill="#8FF888" d="M24.976,12.162c-0.208,0.775-1.725,1.042-3.091,0.676c-1.366-0.366-1.235-1.005-1.028-1.78
			c0.208-0.775,0.414-1.393,1.78-1.028C24.004,10.397,25.184,11.387,24.976,12.162z"/>
		<g>
			<path fill="#78DF7C" d="M19.844,27.719c-1.681-1.072-3.235-0.986-3.844-0.895V32h4c1.105,0,2-0.895,2-2v-1.848
				C21.338,28.262,20.59,28.195,19.844,27.719z"/>
			<path fill="#F7C845" d="M19.844,27.719c0.746,0.476,1.494,0.543,2.156,0.433V20.5c0-0.276-0.224-0.5-0.5-0.5h-1
				c-0.276,0-0.5,0.224-0.5,0.5v1c0,0.276-0.224,0.5-0.5,0.5H19c-0.276,0-0.5,0.224-0.5,0.5V24H16v2.823
				C16.609,26.733,18.162,26.647,19.844,27.719z"/>
		</g>
		<g>
			<path fill="#8FF888" d="M15,14v3.083l-1.658,0.553C13.138,17.704,13,17.895,13,18.11V30c0,1.105,0.895,2,2,2h1V14H15z"/>
			<path fill="#84ED82" d="M19,30V20v-1.89c0-0.215-0.138-0.406-0.342-0.474L17,17.083V14h-1v18h1C18.105,32,19,31.105,19,30z"/>
		</g>
		<g>
			<rect x="15" y="3" fill="#FFEAA7" width="1" height="4"/>
			<rect x="16" y="3" fill="#FFE28A" width="1" height="4"/>
		</g>
		<g>
			<path fill="#FFEAA7" d="M13.028,2.186C13.171,3.202,14.439,4,16,4V3C14.801,3,13.742,2.68,13.028,2.186z"/>
			<path fill="#FFE28A" d="M16,4c1.561,0,2.829-0.798,2.972-1.814C18.258,2.68,17.199,3,16,3V4z"/>
			<path fill="#FEF1C6" d="M16,0c-1.657,0-3,0.895-3,2c0,0.064,0.019,0.124,0.028,0.186C13.742,2.68,14.801,3,16,3V0z"/>
			<path fill="#FFEAA7" d="M16,0v3c1.199,0,2.258-0.32,2.972-0.814C18.981,2.124,19,2.064,19,2C19,0.895,17.657,0,16,0z"/>
		</g>
		<g>
			<path fill="#A9FAA2" d="M9.258,11.963C10.074,14.289,12.78,16,16,16v-2C13.44,14,11.092,13.235,9.258,11.963z"/>
			<path fill="#8FF888" d="M16,16c3.22,0,5.926-1.711,6.742-4.037C20.908,13.235,18.56,14,16,14V16z"/>
			<path fill="#C1FDBD" d="M16,5c-3.866,0-7,2.462-7,5.5c0,0.507,0.094,0.996,0.258,1.463C11.092,13.235,13.44,14,16,14V5z"/>
			<path fill="#A9FAA2" d="M16,5v9c2.56,0,4.908-0.765,6.742-2.037C22.905,11.496,23,11.007,23,10.5C23,7.462,19.866,5,16,5z"/>
		</g>
		<g>
			<path fill="#FFD04D" d="M22.289,8.806c-0.203-0.033-0.405,0.062-0.51,0.239l-0.701,1.185c-0.12,0.202-0.098,0.469,0.074,0.63
				C21.254,10.956,21.378,11,21.5,11c0.171,0,0.337-0.087,0.431-0.246l0.449-0.761c0.052-0.088,0.153-0.136,0.255-0.12l0.327,0.052
				c-0.048-0.364-0.141-0.717-0.275-1.057L22.289,8.806z"/>
			<path fill="#FFD96C" d="M10.069,10.755C10.163,10.913,10.329,11,10.5,11c0.122,0,0.246-0.044,0.348-0.14
				c0.171-0.161,0.193-0.428,0.074-0.63l-0.701-1.185c-0.105-0.177-0.307-0.272-0.51-0.239L9.313,8.87
				C9.179,9.209,9.086,9.563,9.038,9.927l0.327-0.052c0.101-0.016,0.203,0.031,0.255,0.12L10.069,10.755z"/>
		</g>
		<g>
			<path fill="#373F3F" d="M13.243,9.692l-0.486,0.115C12.762,9.829,13.302,12,16,12v-0.5C13.708,11.5,13.261,9.766,13.243,9.692z"
				/>
			<path fill="#2B3332" d="M19.243,9.807l-0.486-0.114C18.752,9.711,18.307,11.5,16,11.5V12C18.698,12,19.238,9.829,19.243,9.807z"
				/>
		</g>
		<circle fill="#FFD04D" cx="19" cy="10" r="1"/>
		<circle fill="#FFD96C" cx="13" cy="10" r="1"/>
	</g>
</g>
</svg>
