<?xml version="1.0" encoding="utf-8"?>
<!-- Generator: Adobe Illustrator 23.0.6, SVG Export Plug-In . SVG Version: 6.00 Build 0)  -->
<svg version="1.1" xmlns="http://www.w3.org/2000/svg" xmlns:xlink="http://www.w3.org/1999/xlink" x="0px" y="0px" width="32px"
	 height="32px" viewBox="0 0 32 32" enable-background="new 0 0 32 32" xml:space="preserve">
<g id="labels">
	<g>
	</g>
</g>
<g id="icons">
	<g>
		<path fill="#D64F45" d="M20.056,23.082c0,0,5.005-2.454,4.128-8.359c-0.025-0.167,0.03-0.339,0.158-0.449
			c0.363-0.313,1.125-1.008,1.551-1.685c0.374-0.594,0.533-1.418,0.505-2.462c-0.014-0.53,0.671-0.727,0.935-0.267
			c1.048,1.831,2.134,5.046-0.089,8.6c-3.442,5.5-7.389,5.938-7.389,5.938L20.056,23.082z"/>
		<path fill="#FBCFD6" d="M21.782,21.714l-0.008,0.001c0.002,0.309-0.016,0.618-0.072,0.925L20.182,31H21.5
			c0.281,0,0.507-0.231,0.5-0.512L21.782,21.714z"/>
		<path fill="#FCD8DE" d="M19.537,15.72l1.718,3.789c0.484,0.968,0.641,2.066,0.447,3.13l-1.627,8.95
			C20.031,31.827,19.824,32,19.583,32H17.5c-0.276,0-0.5-0.224-0.5-0.5V26h-1v-6.009C17.753,19.991,18.586,17.176,19.537,15.72z"/>
		<path fill="#FDE2E6" d="M12.463,15.72l-1.718,3.789c-0.484,0.968-0.641,2.066-0.447,3.13l1.627,8.95
			C11.969,31.827,12.176,32,12.417,32H14.5c0.276,0,0.5-0.224,0.5-0.5V26h1v-6.009C14.247,19.991,13.414,17.176,12.463,15.72z"/>
		<g>
			<path fill="#FDECEF" d="M11.025,13.701c-0.542-0.145-4.552-0.672-4.678-0.202c-0.124,0.462,3.479,1.964,4.116,2.153
				C9.894,15.703,5.958,16.578,6,17.062c0.042,0.479,3.977,0.658,4.614,0.615c-0.049,0.014-0.099,0.029-0.147,0.051
				c-0.508,0.237-3.919,2.411-3.714,2.852c0.198,0.424,3.747-0.605,4.48-0.898c-0.109,0.904-0.094,1.735,0.154,2.286
				c0.969,2.159,1.369,2.481,1.117,3.546c-0.048,0.205,0.113,0.395,0.323,0.377c0.578-0.05,1.578-0.305,1.943-1.43
				c0,0-0.033,0.813,0.24,1.577c0.11,0.308,0.475,0.959,0.729,1.398c0.057,0.099,0.156,0.148,0.256,0.149L16,13.701
				C16,13.701,11.048,13.707,11.025,13.701z"/>
			<path fill="#FDE2E6" d="M16.261,27.436c0.255-0.439,0.619-1.09,0.729-1.398c0.273-0.764,0.24-1.577,0.24-1.577
				c0.366,1.126,1.365,1.38,1.943,1.43c0.21,0.018,0.371-0.172,0.323-0.377c-0.252-1.064,0.148-1.386,1.117-3.546
				c0.247-0.551,0.263-1.382,0.154-2.286c0.732,0.292,4.282,1.321,4.48,0.898c0.206-0.441-3.205-2.615-3.714-2.852
				c-0.048-0.022-0.097-0.037-0.147-0.051c0.636,0.043,4.572-0.136,4.614-0.615c0.042-0.484-3.894-1.359-4.462-1.41
				c0.636-0.188,4.239-1.69,4.116-2.153c-0.126-0.47-4.136,0.057-4.678,0.202c-0.024,0.006-4.975,0-4.975,0l-0.005,13.884
				C16.098,27.587,16.202,27.538,16.261,27.436z"/>
		</g>
		<path fill="#FCD8DE" d="M10.218,21.714l0.008,0.001c-0.002,0.309,0.016,0.618,0.072,0.925l1.52,8.36H10.5
			c-0.281,0-0.507-0.231-0.5-0.512L10.218,21.714z"/>
		<path fill="#E55D53" d="M11,10.669c0,0-1.045-0.783-1.907-0.145c-0.566,0.419-0.763,0.816-0.83,1.066
			c-0.038,0.142-0.178,0.228-0.316,0.177C7.159,11.478,5,10.439,5,7.727C5,4.982,7.418,3.69,8.037,2.313
			C8.296,1.739,8.458,1.042,8.56,0.426c0.082-0.495,0.757-0.587,0.952-0.125c0.412,0.975,0.831,2.421,0.831,4.267
			c0,1.522-0.812,3.323-0.812,3.323L11,8.728V10.669z"/>
		<g>
			<path fill="#E55D53" d="M10.265,10.161c-0.388,2.125-0.542,4.029,0.916,5.505c0.926,0.938,3.61,1.735,4.506,2.015
				c0.105,0.033,0.211,0.046,0.318,0.045c0,0,0-9.362,0-12C13.651,5.727,10.786,7.309,10.265,10.161z"/>
			<path fill="#DD564C" d="M21.735,10.161c0.388,2.125,0.542,4.029-0.916,5.505c-0.926,0.938-3.61,1.735-4.506,2.015
				c-0.105,0.033-0.211,0.046-0.318,0.045c0,0,0-9.362,0-12C18.349,5.727,21.214,7.309,21.735,10.161z"/>
		</g>
		<g>
			<path fill="#FEF5F7" d="M10,7.081C10,9.798,12.686,12,16,12V2.163C12.686,2.163,10,4.365,10,7.081z"/>
			<path fill="#FDECEF" d="M17.008,15.111c-0.116,1.008,0.293,2.136,0.869,3.142c0.833,1.452,2.823,1.717,4.013,1.739
				c0.234,0.004,0.339-0.286,0.159-0.436c-0.463-0.387-0.959-1.134-0.959-2.555c0-2.664,1.894-3.414,2.028-6.522
				c0.09-2.085-0.662-3.779-1.427-4.946C20.899,3.575,18.653,2.163,16,2.163V12c0.097,0,0.191-0.008,0.286-0.012
				C16.881,12.911,17.133,14.02,17.008,15.111z"/>
		</g>
		<path fill="#E55D53" d="M14.5,9.5c0,0.719,1.187,1.5,1.5,1.5V8.7C16,8.7,14.5,8.672,14.5,9.5z"/>
		<path fill="#DD564C" d="M17.5,9.5c0,0.719-1.188,1.5-1.5,1.5V8.7C16,8.7,17.5,8.672,17.5,9.5z"/>
		<g>
			<path fill="#FFFFFF" d="M13.816,14c0.295,0,0.443-0.356,0.236-0.568C13.475,12.841,12.545,12,11.917,12c-0.571-0.034-0.54,2,0,2
				H13.816z"/>
			<path fill="#C23734" d="M13.895,13.272c-0.356-0.352-0.8-0.75-1.227-1.006c-0.429,0.111-0.758,0.486-0.758,0.95
				c0,0.327,0.167,0.602,0.41,0.784h1.173C13.722,13.829,13.877,13.574,13.895,13.272z"/>
		</g>
		<circle fill="#FFFFFF" cx="12.75" cy="12.749" r="0.25"/>
		<path fill="#373F3F" d="M16,15.001c-0.552,0-1-0.032-1,0.25c0,0.414,0.448,0.75,1,0.75V15.001z"/>
		<path fill="#2B3332" d="M17,15.251c0-0.282-0.448-0.25-1-0.25v1C16.552,16.001,17,15.665,17,15.251z"/>
	</g>
</g>
</svg>
