<?xml version="1.0" encoding="utf-8"?>
<!-- Generator: Adobe Illustrator 23.0.6, SVG Export Plug-In . SVG Version: 6.00 Build 0)  -->
<svg version="1.1" xmlns="http://www.w3.org/2000/svg" xmlns:xlink="http://www.w3.org/1999/xlink" x="0px" y="0px" width="32px"
	 height="32px" viewBox="0 0 32 32" enable-background="new 0 0 32 32" xml:space="preserve">
<g id="labels">
	<g>
	</g>
</g>
<g id="icons">
	<g>
		<path fill="#4F4032" d="M31,20c0-2.761-1.567-5-3.5-5S24,17.239,24,20c0,2.938-1.146,7.875-4.146,8.958s-2.66,2.132-2.66,2.132
			S31,30.375,31,20z"/>
		<ellipse fill="#EDEEEE" cx="27.5" cy="20" rx="2.5" ry="4"/>
		<circle fill="#2B3332" cx="27.5" cy="20" r="0.5"/>
		<path fill="#93C2CA" d="M14.003,32h-1c-1.105,0-2-0.895-2-2v-6h5v6C16.003,31.105,15.108,32,14.003,32z"/>
		<path fill="#88B9C3" d="M17.997,32h1c1.105,0,2-0.895,2-2v-6h-5v6C15.997,31.105,16.892,32,17.997,32z"/>
		<path fill="#9FCCD3" d="M9.234,9.039l-3.956,5.479c-0.179,0.252-0.542,0.282-0.761,0.064l-2.921-2.921
			c-0.282-0.282-0.766-0.136-0.844,0.255L0.01,15.626c-0.044,0.221,0.065,0.444,0.267,0.545l5.286,2.643
			c0.216,0.108,0.478,0.046,0.623-0.146l5.585-7.415L9.234,9.039z"/>
		<path fill="#99C7CE" d="M22.766,9.039l3.956,5.479c0.179,0.252,0.542,0.282,0.761,0.064l2.921-2.921
			c0.282-0.282,0.766-0.136,0.844,0.255l0.742,3.709c0.044,0.221-0.065,0.444-0.267,0.545l-5.286,2.643
			c-0.216,0.108-0.478,0.046-0.623-0.146l-5.585-7.415L22.766,9.039z"/>
		<g>
			<path fill="#99C7CE" d="M19.015,20.102h-1.021L16,20.91v0.003l-2-0.81h-1.021c-4.542,2.824-4.975,8.526-4.991,10.393
				c-0.002,0.226,0.272,0.338,0.43,0.176l1.364-1.408c0.097-0.1,0.257-0.102,0.355-0.004l1.685,1.668
				c0.098,0.097,0.255,0.096,0.353-0.001l1.647-1.647c0.098-0.098,0.256-0.098,0.354,0l1.641,1.641
				c0.05,0.05,0.116,0.072,0.182,0.071c0.062-0.002,0.124-0.023,0.171-0.07l1.646-1.641c0.098-0.097,0.256-0.097,0.354,0
				l1.647,1.647c0.097,0.097,0.255,0.098,0.353,0.001l1.685-1.668c0.099-0.098,0.259-0.096,0.355,0.004l1.364,1.408
				c0.157,0.162,0.431,0.05,0.43-0.176C23.99,28.628,23.557,22.926,19.015,20.102z"/>
			<path fill="#9FCCD3" d="M15.997,20.912L14,20.102h-1.021c-4.542,2.824-4.975,8.526-4.991,10.393
				c-0.002,0.226,0.272,0.338,0.43,0.176l1.364-1.408c0.097-0.1,0.257-0.102,0.355-0.004l1.685,1.668
				c0.098,0.097,0.255,0.096,0.353-0.001l1.647-1.647c0.098-0.098,0.256-0.098,0.354,0l1.641,1.641
				c0.05,0.05,0.116,0.072,0.182,0.071L15.997,20.912z"/>
		</g>
		<g>
			<path fill="#A5D1D8" d="M16,5.309c-4.418,0-8,3.582-8,8s3.582,8,8,8c0.001,0,0.002,0,0.003,0v-16
				C16.002,5.309,16.001,5.309,16,5.309z"/>
			<path fill="#9FCCD3" d="M24,13.309c0-4.417-3.58-7.998-7.997-8v16C20.42,21.308,24,17.727,24,13.309z"/>
		</g>
		<g>
			<path fill="#B9E2E7" d="M16,0c-1.376,0-2.589,0.87-3.309,2.192C13.677,2.707,14.803,3,16,3c0.001,0,0.002,0,0.003,0V0
				C16.002,0,16.001,0,16,0z"/>
			<path fill="#ACD7DD" d="M16.003,0v3c1.196,0,2.321-0.293,3.306-0.807C18.59,0.871,17.378,0.001,16.003,0z"/>
		</g>
		<g>
			<path fill="#ACD7DD" d="M16,3c-1.197,0-2.323-0.293-3.309-0.808C12.255,2.993,12,3.959,12,5c0,2.761,1.791,5,4,5
				c0.001,0,0.002,0,0.003,0V3C16.002,3,16.001,3,16,3z"/>
			<path fill="#A5D1D8" d="M20,5c0-1.041-0.255-2.007-0.691-2.808C18.324,2.706,17.199,2.999,16.003,3v7C18.211,9.998,20,7.76,20,5z
				"/>
		</g>
		<g>
			<path fill="#D64F45" d="M16,15.531c-0.625,0-0.625-0.75-1.188-0.75c-0.688,0-0.625,0.75-1.251,0.75s-0.625-0.75-1.251-0.75
				c-0.625,0-0.625,0.75-1.251,0.75c-0.023,0-0.039-0.007-0.06-0.009c0.006,1.039,0.418,1.984,1.081,2.744
				c0.916-1.048,2.322-1.734,3.919-1.734c0.001,0,0.002,0,0.004,0v-1.001C16.002,15.531,16.001,15.531,16,15.531z"/>
			<path fill="#D1473D" d="M19.919,18.266c0.663-0.76,1.075-1.704,1.081-2.744c-0.021,0.002-0.038,0.009-0.06,0.009
				c-0.625,0-0.625-0.75-1.251-0.75c-0.625,0-0.625,0.75-1.251,0.75s-0.563-0.75-1.251-0.75c-0.562,0-0.563,0.746-1.184,0.749v1.001
				C17.599,16.533,19.004,17.218,19.919,18.266z"/>
		</g>
		<g>
			<path fill="#E55D53" d="M16,16.531c-1.597,0-3.003,0.686-3.919,1.734C12.997,19.314,14.403,20,16,20c0.001,0,0.002,0,0.004,0
				v-3.468C16.002,16.531,16.001,16.531,16,16.531z"/>
			<path fill="#D64F45" d="M19.919,18.266c-0.915-1.048-2.32-1.733-3.915-1.734V20C17.599,19.999,19.004,19.313,19.919,18.266z"/>
		</g>
		<path fill="#373F3F" d="M14.248,13c-0.067,0-0.133-0.025-0.183-0.076l-1.624-1.65c-0.097-0.099-0.257-0.1-0.355-0.001
			l-1.654,1.653c-0.096,0.097-0.256,0.099-0.356,0.006c-0.1-0.093-0.102-0.247-0.006-0.344l2.014-2.013
			c0.047-0.047,0.113-0.074,0.181-0.074h0.001c0.069,0,0.134,0.028,0.182,0.076l1.982,2.013c0.095,0.097,0.091,0.251-0.01,0.344
			C14.373,12.977,14.31,13,14.248,13z"/>
		<path fill="#2B3332" d="M21.748,13c-0.067,0-0.133-0.025-0.183-0.076l-1.624-1.65c-0.097-0.099-0.257-0.1-0.355-0.001
			l-1.654,1.653c-0.096,0.097-0.256,0.099-0.356,0.006c-0.1-0.093-0.102-0.247-0.006-0.344l2.014-2.013
			c0.047-0.047,0.113-0.074,0.181-0.074h0.001c0.069,0,0.134,0.028,0.182,0.076l1.982,2.013c0.095,0.097,0.091,0.251-0.01,0.344
			C21.873,12.977,21.81,13,21.748,13z"/>
	</g>
</g>
</svg>
