<?xml version="1.0" encoding="utf-8"?>
<!-- Generator: Adobe Illustrator 23.0.6, SVG Export Plug-In . SVG Version: 6.00 Build 0)  -->
<svg version="1.1" xmlns="http://www.w3.org/2000/svg" xmlns:xlink="http://www.w3.org/1999/xlink" x="0px" y="0px" width="32px"
	 height="32px" viewBox="0 0 32 32" enable-background="new 0 0 32 32" xml:space="preserve">
<g id="labels">
	<g>
	</g>
</g>
<g id="icons">
	<g>
		<g>
			<path fill="#373F3F" d="M7,19.865C7,24.358,11.029,28,16,28V5C11.029,5,7,15.372,7,19.865z"/>
			<path fill="#2B3332" d="M25,19.865C25,15.372,20.971,5,16,5v23C20.971,28,25,24.358,25,19.865z"/>
		</g>
		<path fill="#373F3F" d="M8.483,27.598c-1.909,0.873-2.921,2.148-2.301,3.487c0.828,1.788,6.534,0.715,7.454-1.162
			c0.571-1.164,0.486-2.116-0.368-2.593C12.372,26.83,10.047,26.883,8.483,27.598z"/>
		<path fill="#2B3332" d="M23.517,27.598c1.909,0.873,2.921,2.148,2.301,3.487c-0.828,1.788-6.534,0.715-7.454-1.162
			c-0.571-1.164-0.486-2.116,0.368-2.593C19.628,26.83,21.953,26.883,23.517,27.598z"/>
		<path fill="#C8CCCB" d="M20.5,19.413v2.174C21.426,21.021,22,20.5,22,20.5S21.426,19.979,20.5,19.413z"/>
		<path fill="#F7F7F7" d="M10,20.5c0,0,0.574,0.521,1.5,1.087v-2.174C10.574,19.979,10,20.5,10,20.5z"/>
		<path fill="#EDEEEE" d="M14.5,18.17c-1.185,0.255-2.217,0.765-3,1.243v2.174c0.783,0.478,1.815,0.988,3,1.243V18.17z"/>
		<path fill="#D1D4D4" d="M17.5,18.17v4.661c1.185-0.255,2.217-0.765,3-1.243v-2.174C19.717,18.935,18.685,18.425,17.5,18.17z"/>
		<path fill="#F79654" d="M16.239,6.605l7.028,12.186c0.052,0.091,0.044,0.201-0.027,0.28c-0.902,1.005-2.177,2.015-3.799,3.008
			c-0.655,0.401-1.012,1.11-0.942,1.832l0.355,3.639c0.05,0.515,0.13,0.648,0.521,0.963c0.338,0.272,1.743-0.144,1.643-0.144
			c-0.546,0-1.033-0.378-1.085-0.909c-0.109-1.119-0.27-2.769-0.355-3.643c-0.036-0.368,0.152-0.715,0.485-0.919
			c1.553-0.953,3.224-2.186,4.371-3.612c0.125-0.156,0.136-0.366,0.037-0.537L16.478,4.892C16.376,4.715,16.188,4.626,16,4.626
			v1.846C16.094,6.472,16.188,6.517,16.239,6.605z"/>
		<path fill="#FCA15E" d="M15.761,6.605L8.733,18.791c-0.052,0.091-0.044,0.201,0.027,0.28c0.902,1.005,2.177,2.015,3.799,3.008
			c0.655,0.401,1.012,1.11,0.942,1.832l-0.355,3.639c-0.05,0.515-0.13,0.648-0.521,0.963c-0.338,0.272-1.743-0.144-1.643-0.144
			c0.546,0,1.033-0.378,1.085-0.909c0.109-1.119,0.27-2.769,0.355-3.643c0.036-0.368-0.152-0.715-0.485-0.919
			c-1.553-0.953-3.224-2.186-4.371-3.612c-0.125-0.156-0.136-0.366-0.037-0.537l7.993-13.859c0.102-0.177,0.29-0.265,0.478-0.265
			v1.846C15.906,6.472,15.812,6.517,15.761,6.605z"/>
		<ellipse fill="#56C7CD" cx="19" cy="15.5" rx="1" ry="1.5"/>
		<ellipse fill="#5BD3D5" cx="13" cy="15.5" rx="1" ry="1.5"/>
		<g>
			<path fill="#E3E5E5" d="M14.5,18.17v4.661C14.98,22.934,15.481,23,16,23v-5C15.481,18,14.98,18.066,14.5,18.17z"/>
			<path fill="#DADDDC" d="M17.5,18.17C17.02,18.066,16.519,18,16,18v5c0.519,0,1.02-0.066,1.5-0.17V18.17z"/>
		</g>
		<g>
			<path fill="#FFD96C" d="M3.6,19.161C3.222,19.87,3,20.619,3,21.401c0,3.088,3.154,5.742,7.679,6.931
				c0.657,0.173,1.328-0.246,1.389-0.874l0.182-1.87C8.555,24.585,5.459,22.177,3.6,19.161z"/>
			<path fill="#FFD04D" d="M19.75,25.587c0.063,0.65,0.129,1.326,0.183,1.874c0.061,0.628,0.731,1.042,1.388,0.87
				C25.846,27.143,29,24.488,29,21.401c0-0.782-0.222-1.53-0.6-2.239C26.541,22.177,23.445,24.585,19.75,25.587z"/>
			<path fill="#FFE28A" d="M11.937,22.899c-1.553-0.953-3.223-2.186-4.37-3.611c-0.125-0.156-0.136-0.366-0.037-0.537l7.993-13.859
				c0.102-0.177,0.29-0.265,0.478-0.265V0c-0.824,0-1.647,0.386-2.091,1.158L3.805,18.789c-0.076,0.122-0.138,0.248-0.204,0.373
				c1.858,3.015,4.954,5.423,8.65,6.426l0.172-1.764C12.458,23.455,12.27,23.104,11.937,22.899z"/>
			<path fill="#FFD96C" d="M28.4,19.161c-0.066-0.125-0.128-0.251-0.204-0.373L18.091,1.158C17.647,0.386,16.824,0,16,0v4.626
				c0.188,0,0.376,0.088,0.478,0.265l7.993,13.859c0.099,0.171,0.088,0.382-0.037,0.537c-1.147,1.426-2.817,2.658-4.37,3.611
				c-0.334,0.205-0.521,0.555-0.485,0.924c0.043,0.445,0.106,1.091,0.172,1.764C23.445,24.585,26.541,22.177,28.4,19.161z"/>
		</g>
		<g>
			<path fill="#2B3332" d="M19.5,24.685c-1.152,0-2.112-0.783-2.402-1.843C17.041,23.053,17,23.271,17,23.5
				c0,1.381,1.119,2.5,2.5,2.5s2.5-1.119,2.5-2.5c0-0.229-0.041-0.447-0.098-0.657C21.611,23.902,20.652,24.685,19.5,24.685z"/>
			<path fill="#373F3F" d="M19.5,24.685c1.152,0,2.112-0.783,2.402-1.843C21.611,21.783,20.652,21,19.5,21s-2.112,0.783-2.402,1.843
				C17.388,23.902,18.348,24.685,19.5,24.685z"/>
		</g>
		<g>
			<path fill="#373F3F" d="M12.5,24.685c-1.152,0-2.112-0.783-2.402-1.843C10.041,23.053,10,23.271,10,23.5
				c0,1.381,1.119,2.5,2.5,2.5s2.5-1.119,2.5-2.5c0-0.229-0.041-0.447-0.098-0.657C14.611,23.902,13.652,24.685,12.5,24.685z"/>
			<path fill="#434C4B" d="M12.5,24.685c1.152,0,2.112-0.783,2.402-1.843C14.611,21.783,13.652,21,12.5,21s-2.112,0.783-2.402,1.843
				C10.388,23.902,11.348,24.685,12.5,24.685z"/>
		</g>
	</g>
</g>
</svg>
