<?xml version="1.0" encoding="utf-8"?>
<!-- Generator: Adobe Illustrator 23.0.6, SVG Export Plug-In . SVG Version: 6.00 Build 0)  -->
<svg version="1.1" xmlns="http://www.w3.org/2000/svg" xmlns:xlink="http://www.w3.org/1999/xlink" x="0px" y="0px" width="32px"
	 height="32px" viewBox="0 0 32 32" enable-background="new 0 0 32 32" xml:space="preserve">
<g id="labels">
	<g>
	</g>
</g>
<g id="icons">
	<g>
		<g>
			<path fill="#9179C6" d="M23.216,27.063l7.274-1.497c0.469-0.097,0.941,0.148,1.125,0.591c0.326,0.783,0.648,2.13,0.053,3.758
				c-0.163,0.446-0.626,0.714-1.095,0.643l-7.19-1.099c-0.391-0.06-0.709-0.344-0.813-0.725l-0.117-0.427
				C22.3,27.749,22.65,27.179,23.216,27.063z"/>
			<path fill="#9D85D3" d="M22.226,25.588l5.988-4.392c0.386-0.283,0.917-0.257,1.269,0.068c0.621,0.574,1.471,1.659,1.613,3.377
				c0.04,0.479-0.266,0.926-0.727,1.058l-6.993,1.997c-0.38,0.108-0.788-0.017-1.042-0.32l-0.284-0.34
				C21.68,26.593,21.761,25.929,22.226,25.588z"/>
		</g>
		<g>
			<path fill="#F7F7F7" d="M10.167,6c0,3.257,2.597,5.903,5.833,5.992V0.008C12.764,0.097,10.167,2.743,10.167,6z"/>
			<path fill="#EDEEEE" d="M22.167,6c0-3.314-2.686-6-6-6C16.11,0,16.056,0.007,16,0.008v11.983C16.056,11.993,16.11,12,16.167,12
				C19.48,12,22.167,9.314,22.167,6z"/>
		</g>
		<g>
			<path fill="#B8A5E4" d="M8.684,13.953c0,0.138,0.014,0.273,0.027,0.409c-1.221,1.134-1.989,2.561-2.121,4.12
				c-0.304,0.408-0.792,1.319-0.792,1.319C5.296,20.818,5,21.92,5,23.083C5,28.008,6.833,32,16,32V8.355
				C11.96,8.355,8.684,10.861,8.684,13.953z"/>
			<path fill="#A78EDD" d="M27,23.083c0-1.163-0.296-2.265-0.799-3.282c0,0-0.487-0.911-0.792-1.319
				c-0.132-1.559-0.899-2.986-2.121-4.12c0.013-0.136,0.027-0.271,0.027-0.409c0-3.092-3.275-5.598-7.316-5.598V32
				C25.167,32,27,28.008,27,23.083z"/>
		</g>
		<g>
			<path fill="#E7685F" d="M16,9V7.448c-1.25,0-1.375-0.99-3.5-0.99c-1.992,0-2.842,3.329-1.539,5.294C12.029,10.098,13.885,9,16,9z
				"/>
			<path fill="#E55D53" d="M21.039,11.752c1.303-1.964,0.454-5.294-1.539-5.294c-2.125,0-2.25,0.99-3.5,0.99V9
				C18.115,9,19.971,10.098,21.039,11.752z"/>
			<path fill="#E55D53" d="M16,13.333V9c-2.115,0-3.971,1.098-5.039,2.752c0.087,0.131,0.183,0.255,0.289,0.373
				C12.425,13.424,16,13.333,16,13.333z"/>
			<path fill="#D64F45" d="M16,9v4.333c0,0,3.575,0.091,4.75-1.209c0.106-0.117,0.202-0.242,0.289-0.373
				C19.971,10.098,18.115,9,16,9z"/>
		</g>
		<path fill="#F5DEB9" d="M12.11,6.571c0,0-0.561,4.186,0.857,8.261c0.092,0.265,0.491,0.201,0.49-0.079
			c-0.011-2.131,0.062-6.239,0.739-8.181H12.11z"/>
		<path fill="#EFD4A7" d="M19.89,6.571c0,0,0.561,4.186-0.857,8.261c-0.092,0.265-0.491,0.201-0.49-0.079
			c0.011-2.131-0.062-6.239-0.739-8.181H19.89z"/>
		<path fill="#E3E5E5" d="M23.375,15.09c-0.253,0-0.481-0.038-0.712-0.071c-0.657,2.301-3.394,4.032-6.663,4.032v1
			c3.823,0,6.997-2.157,7.668-4.99C23.568,15.066,23.479,15.09,23.375,15.09z"/>
		<path fill="#EDEEEE" d="M8.625,15.09c0.253,0,0.481-0.038,0.712-0.071c0.657,2.301,3.394,4.032,6.663,4.032v1
			c-3.823,0-6.997-2.157-7.668-4.99C8.432,15.066,8.521,15.09,8.625,15.09z"/>
		<path fill="#E3E5E5" d="M5.336,8.213L2.63,8.001C2.513,7.991,2.404,8.075,2.358,8.209l-0.336,0.99
			C1.99,9.292,1.994,9.398,2.032,9.487l0.316,0.749c0.052,0.124,0.038,0.276-0.037,0.381l-0.518,0.731
			c-0.045,0.063-0.107,0.104-0.174,0.114l-1.43,0.216C0.05,11.7-0.054,11.845-0.054,12.017v0.592v0.378
			c0,0.188,0.124,0.341,0.276,0.341H0.55h1.007c0.102,0,0.196,0.07,0.244,0.182l0.231,0.54c0.08,0.187,0.004,0.419-0.16,0.483
			l-0.438,0.173c-0.122,0.048-0.201,0.195-0.191,0.353l0,0.001c0.01,0.151,0.1,0.276,0.221,0.306l0.592,0.146
			c0.06,0.015,0.123,0.005,0.177-0.029l0.648-0.4c0.076-0.047,0.166-0.048,0.243-0.002l0.488,0.289
			c0.149,0.088,0.202,0.317,0.114,0.489L3.403,16.49c-0.003,0.006-0.007,0.013-0.01,0.019l-0.365,0.619
			c-0.114,0.194-0.035,0.469,0.153,0.53l0.513,0.166c0.014,0.005,0.028,0.008,0.043,0.01l1.346,0.165
			c0.162,0.02,0.303-0.138,0.303-0.339v-1.278c0-0.18,0.114-0.329,0.26-0.34l0.657-0.048c0.158-0.012,0.292,0.144,0.292,0.34v0.323
			c0,0.163,0.094,0.304,0.224,0.334l0.621,0.147c0.17,0.04,0.328-0.121,0.328-0.334v-0.737c0-0.177,0.11-0.325,0.254-0.339
			l0.883-0.088c0.109-0.011,0.212,0.058,0.264,0.176l0.121,0.273c0.1,0.226,0.358,0.239,0.473,0.024l0.533-0.998
			c0.092-0.173,0.039-0.406-0.112-0.495L9.53,14.239c-0.187-0.11-0.214-0.426-0.048-0.58l0.998-0.928
			c0.081-0.075,0.122-0.199,0.107-0.323l-0.098-0.8c-0.012-0.102-0.061-0.191-0.133-0.243L7.888,9.578
			C7.878,9.571,7.869,9.565,7.859,9.56L5.43,8.242C5.4,8.226,5.369,8.216,5.336,8.213z"/>
		<path fill="#DADDDC" d="M26.609,8.213l2.706-0.213c0.117-0.009,0.226,0.074,0.272,0.208l0.336,0.99
			c0.032,0.093,0.028,0.199-0.01,0.289l-0.316,0.749c-0.052,0.124-0.038,0.276,0.037,0.381l0.518,0.731
			c0.045,0.063,0.107,0.104,0.174,0.114l1.43,0.216C31.896,11.7,32,11.845,32,12.017v0.592v0.378c0,0.188-0.124,0.341-0.276,0.341
			h-0.328h-1.007c-0.102,0-0.196,0.07-0.244,0.182l-0.231,0.54c-0.08,0.187-0.004,0.419,0.16,0.483l0.438,0.173
			c0.122,0.048,0.201,0.195,0.191,0.353l0,0.001c-0.01,0.151-0.1,0.276-0.221,0.306l-0.592,0.146
			c-0.06,0.015-0.123,0.005-0.177-0.029l-0.648-0.4c-0.076-0.047-0.166-0.048-0.243-0.002l-0.488,0.289
			c-0.149,0.088-0.202,0.317-0.114,0.489l0.323,0.633c0.003,0.006,0.007,0.013,0.01,0.019l0.365,0.619
			c0.114,0.194,0.035,0.469-0.153,0.53l-0.513,0.166c-0.014,0.005-0.028,0.008-0.043,0.01l-1.346,0.165
			c-0.162,0.02-0.303-0.138-0.303-0.339v-1.278c0-0.18-0.114-0.329-0.26-0.34l-0.657-0.048c-0.158-0.012-0.292,0.144-0.292,0.34
			v0.323c0,0.163-0.094,0.304-0.224,0.334l-0.621,0.147c-0.17,0.04-0.328-0.121-0.328-0.334v-0.737c0-0.177-0.11-0.325-0.254-0.339
			l-0.883-0.088c-0.109-0.011-0.212,0.058-0.264,0.176l-0.121,0.273c-0.1,0.226-0.358,0.239-0.473,0.024l-0.533-0.998
			c-0.092-0.173-0.039-0.406,0.112-0.495l0.652-0.381c0.187-0.11,0.214-0.426,0.048-0.58l-0.998-0.928
			c-0.081-0.075-0.122-0.199-0.107-0.323l0.098-0.8c0.012-0.102,0.061-0.191,0.133-0.243l2.468-1.787
			c0.009-0.007,0.019-0.013,0.029-0.018l2.429-1.318C26.545,8.226,26.577,8.216,26.609,8.213z"/>
		<path fill="#E3E5E5" d="M16,6.458c0.3,0,4.978-0.293,6.057-1.812c0.71-0.999,0.72-1.766,0.643-2.175
			c-0.035-0.185,0.098-0.358,0.295-0.388c0.172-0.026,0.368-0.056,0.515-0.078c0.204-0.032,0.394,0.105,0.416,0.298l0.054,0.485
			c0.015,0.137,0.118,0.252,0.26,0.289l1.018,0.27c0.082,0.022,0.17,0.015,0.248-0.018l1.074-0.46
			c0.114-0.049,0.248-0.038,0.351,0.028l0.325,0.207c0.183,0.116,0.212,0.358,0.061,0.509l-0.374,0.376
			c-0.092,0.093-0.121,0.226-0.075,0.345l0.2,0.516c0.051,0.131,0.183,0.22,0.332,0.222l1.172,0.02
			c0.155,0.003,0.291,0.098,0.337,0.237l0.126,0.382c0.055,0.165-0.033,0.343-0.202,0.41l-0.802,0.322
			c-0.132,0.053-0.218,0.175-0.218,0.31v1.497c0,0.134,0.085,0.256,0.216,0.309l0.616,0.252c0.185,0.076,0.268,0.279,0.183,0.451
			l-0.455,0.923c-0.079,0.16-0.275,0.236-0.451,0.175l-0.899-0.311c-0.106-0.037-0.225-0.025-0.321,0.033l-0.677,0.412
			c-0.158,0.096-0.21,0.291-0.119,0.446l0.221,0.375c0.12,0.204-0.011,0.459-0.257,0.496l-1.192,0.183
			c-0.179,0.028-0.353-0.075-0.404-0.238l-0.195-0.624c-0.045-0.144-0.186-0.243-0.345-0.243h-1.176
			c-0.126,0-0.244,0.062-0.309,0.164l-0.194,0.303c-0.088,0.138-0.267,0.198-0.428,0.145l-0.449-0.149
			c-0.168-0.056-0.268-0.219-0.233-0.383l0.198-0.95c0.008-0.038,0.009-0.078,0.003-0.116l-0.213-1.297
			c-0.011-0.07-0.045-0.134-0.096-0.182L20.23,7.841c-0.436-0.417-1.034-0.617-1.632-0.54c-0.785,0.102-1.9,0.198-2.598,0.147
			C16,7.053,16,6.458,16,6.458z"/>
		<path fill="#EDEEEE" d="M16,6.458c-0.3,0-4.978-0.293-6.057-1.812C9.233,3.648,9.223,2.88,9.3,2.471
			c0.035-0.185-0.098-0.358-0.295-0.388C8.832,2.057,8.636,2.027,8.489,2.005C8.285,1.973,8.095,2.109,8.073,2.302L8.019,2.788
			C8.004,2.925,7.901,3.04,7.759,3.077L6.74,3.347C6.658,3.369,6.572,3.362,6.494,3.329l-1.075-0.46
			C5.304,2.82,5.171,2.83,5.067,2.896L4.742,3.103C4.56,3.219,4.531,3.461,4.681,3.613l0.374,0.376
			c0.092,0.093,0.121,0.226,0.075,0.345l-0.2,0.516C4.878,4.982,4.746,5.07,4.597,5.072l-1.172,0.02
			C3.27,5.095,3.134,5.19,3.088,5.329L2.962,5.711c-0.055,0.165,0.033,0.343,0.202,0.41l0.802,0.322
			c0.132,0.053,0.218,0.175,0.218,0.31v1.497c0,0.134-0.085,0.256-0.216,0.309L3.353,8.812C3.168,8.888,3.085,9.091,3.17,9.263
			l0.455,0.923c0.079,0.16,0.275,0.236,0.451,0.175l0.899-0.311c0.106-0.037,0.225-0.025,0.321,0.033l0.677,0.412
			c0.158,0.096,0.21,0.291,0.119,0.446l-0.221,0.375c-0.12,0.204,0.011,0.459,0.257,0.496l1.192,0.183
			c0.179,0.028,0.353-0.075,0.404-0.238l0.195-0.624c0.045-0.144,0.186-0.243,0.345-0.243h1.176c0.126,0,0.244,0.062,0.309,0.164
			l0.194,0.303c0.088,0.138,0.267,0.198,0.428,0.145l0.449-0.149c0.168-0.056,0.268-0.219,0.233-0.383l-0.198-0.95
			c-0.008-0.038-0.009-0.078-0.002-0.116l0.213-1.297c0.011-0.07,0.045-0.134,0.096-0.182l0.609-0.583
			c0.436-0.417,1.034-0.617,1.632-0.54c0.785,0.102,1.9,0.198,2.598,0.147C16,7.053,16,6.458,16,6.458z"/>
		<g>
			<path fill="#FFFFFF" d="M12.148,5.677c0-0.633,0.307-1.19,0.775-1.546c-0.893-0.14-1.74,0.412-1.982,1.275
				c0.368,0.18,0.792,0.331,1.237,0.457C12.171,5.8,12.148,5.742,12.148,5.677z"/>
			<path fill="#FFEAA7" d="M12.148,5.677c0,0.065,0.023,0.123,0.029,0.187c0.738,0.209,1.523,0.348,2.195,0.44
				c0.006-0.024,0.018-0.045,0.023-0.07c0.193-0.965-0.434-1.903-1.398-2.095c-0.025-0.005-0.049-0.003-0.074-0.007
				C12.455,4.487,12.148,5.044,12.148,5.677z"/>
		</g>
		<g>
			<path fill="#FFFFFF" d="M19.831,5.677c0-0.633-0.307-1.19-0.775-1.546c0.893-0.14,1.74,0.412,1.982,1.275
				c-0.368,0.18-0.792,0.331-1.237,0.457C19.809,5.8,19.831,5.742,19.831,5.677z"/>
			<path fill="#FFE28A" d="M19.831,5.677c0,0.065-0.023,0.123-0.029,0.187c-0.738,0.209-1.523,0.348-2.195,0.44
				c-0.006-0.024-0.018-0.045-0.023-0.07c-0.193-0.965,0.434-1.903,1.398-2.095c0.025-0.005,0.049-0.003,0.074-0.007
				C19.525,4.487,19.831,5.044,19.831,5.677z"/>
		</g>
		<path fill="#2B3332" d="M18.219,6.215c0.225-0.037,0.456-0.082,0.689-0.13C18.961,6.006,19,5.915,19,5.812
			c0-0.276-0.224-0.5-0.5-0.5S18,5.536,18,5.812C18,5.982,18.09,6.125,18.219,6.215z"/>
		<path fill="#373F3F" d="M13.781,6.215C13.91,6.125,14,5.982,14,5.812c0-0.276-0.224-0.5-0.5-0.5S13,5.536,13,5.812
			c0,0.103,0.039,0.193,0.092,0.273C13.325,6.134,13.556,6.178,13.781,6.215z"/>
		<path fill="#A78EDD" d="M16,7c-0.828,0-1.5,0.048-1.5-0.375C14.5,6.004,15.172,5.5,16,5.5V7z"/>
		<path fill="#9D85D3" d="M17.5,6.625C17.5,7.048,16.828,7,16,7V5.5C16.828,5.5,17.5,6.004,17.5,6.625z"/>
		<path fill="#DADDDC" d="M25.323,17.875c-0.097-0.501-0.265-0.984-0.489-1.446c-0.875,3.065-4.502,5.37-8.834,5.37v1
			C20.228,22.799,23.846,20.756,25.323,17.875z"/>
		<path fill="#E3E5E5" d="M6.677,17.875c0.097-0.501,0.265-0.984,0.489-1.446c0.875,3.065,4.502,5.37,8.834,5.37v1
			C11.772,22.799,8.154,20.756,6.677,17.875z"/>
		<path fill="#A78EDD" d="M10.942,21.298c-2.129-0.636-4.624,0.427-5.574,3.607c-0.466,1.561-0.471,3.1-0.106,4.339
			c-0.406,0.011-0.789,0.036-1.031,0.101C3.385,29.571,3,30.948,3,31.375C3,32.065,4.555,32,6.344,32c0.085,0,0.165-0.01,0.248-0.01
			c2.564,0,5.587-1.781,6.484-4.783C14.026,24.027,13.071,21.933,10.942,21.298z"/>
		<path fill="#9D85D3" d="M21.058,21.298c2.129-0.636,4.624,0.427,5.574,3.607c0.466,1.561,0.471,3.1,0.106,4.339
			c0.406,0.011,0.789,0.036,1.031,0.101c0.845,0.226,1.23,1.603,1.23,2.03C29,32.065,27.445,32,25.656,32
			c-0.085,0-0.165-0.01-0.248-0.01c-2.564,0-5.587-1.781-6.484-4.783C17.974,24.027,18.929,21.933,21.058,21.298z"/>
	</g>
</g>
</svg>
