<?xml version="1.0" encoding="utf-8"?>
<!-- Generator: Adobe Illustrator 23.0.6, SVG Export Plug-In . SVG Version: 6.00 Build 0)  -->
<svg version="1.1" xmlns="http://www.w3.org/2000/svg" xmlns:xlink="http://www.w3.org/1999/xlink" x="0px" y="0px" width="32px"
	 height="32px" viewBox="0 0 32 32" enable-background="new 0 0 32 32" xml:space="preserve">
<g id="labels">
	<g>
	</g>
</g>
<g id="icons">
	<g>
		<g>
			<path fill="#DADDDC" d="M1.711,25.801l-0.737-0.137l0.322,1.473c0.034,0.156,0.235,0.193,0.322,0.06l0.83-1.259L1.711,25.801z"/>
			<path fill="#DADDDC" d="M4.169,26.258l-0.737-0.137l0.322,1.473c0.034,0.156,0.235,0.193,0.322,0.06l0.83-1.259L4.169,26.258z"/>
			<path fill="#E3E5E5" d="M2.94,26.03l-0.983-0.183l0.429,1.965c0.045,0.208,0.313,0.258,0.43,0.08l1.107-1.679L2.94,26.03z"/>
			<path fill="#0F769B" d="M13.508,3.464l-0.947-0.411c-0.308-0.134-0.667-0.006-0.821,0.291l-1.263,2.438
				C10.326,6.073,9.978,6.203,9.672,6.08L9.54,6.027C9.282,5.924,8.986,6,8.809,6.214L4.665,11.25
				c-0.06,0.072-0.102,0.157-0.125,0.247L3.992,13.66c-0.035,0.139-0.117,0.263-0.232,0.35L1.799,15.5
				c-0.108,0.082-0.187,0.196-0.225,0.326l-1.393,4.699c-0.03,0.1-0.034,0.205-0.013,0.307l0.399,1.947
				c0.011,0.052,0.028,0.102,0.051,0.149L1.2,24.127l-0.429-0.079c-0.272-0.05-0.532,0.13-0.582,0.402l-0.18,0.984
				c-0.05,0.272,0.13,0.532,0.402,0.582l5.119,0.938c0.272,0.05,0.532-0.13,0.582-0.402l0.18-0.984
				c0.05-0.272-0.13-0.532-0.402-0.582l-0.428-0.078c0.073-0.04,0.147-0.082,0.2-0.15l1.509-1.906
				c0.027-0.034,0.05-0.07,0.069-0.108l1.05-2.077c0.045-0.09,0.069-0.189,0.068-0.289L8.34,16.654c0-0.095,0.021-0.189,0.061-0.275
				l2.175-4.577L13.838,4.3C13.978,3.978,13.831,3.604,13.508,3.464z"/>
		</g>
		<g>
			<path fill="#D1D4D4" d="M30.289,25.801l0.737-0.137l-0.322,1.473c-0.034,0.156-0.235,0.193-0.322,0.06l-0.83-1.259L30.289,25.801
				z"/>
			<path fill="#D1D4D4" d="M27.831,26.258l0.737-0.137l-0.322,1.473c-0.034,0.156-0.235,0.193-0.322,0.06l-0.83-1.259L27.831,26.258
				z"/>
			<path fill="#DADDDC" d="M29.06,26.03l0.983-0.183l-0.429,1.965c-0.045,0.208-0.313,0.258-0.43,0.08l-1.107-1.679L29.06,26.03z"/>
			<path fill="#0A6F8E" d="M31.811,24.45c-0.05-0.272-0.31-0.451-0.582-0.402L30.8,24.127l0.582-1.199
				c0.023-0.047,0.04-0.098,0.051-0.149l0.399-1.947c0.021-0.102,0.016-0.208-0.013-0.307l-1.393-4.699
				c-0.038-0.13-0.117-0.244-0.225-0.326l-1.961-1.49c-0.115-0.087-0.196-0.211-0.232-0.35l-0.548-2.163
				c-0.023-0.091-0.066-0.175-0.125-0.247l-4.144-5.035C23.014,6,22.718,5.924,22.46,6.027L22.328,6.08
				c-0.305,0.122-0.654-0.007-0.805-0.298L20.26,3.344c-0.154-0.298-0.514-0.425-0.821-0.291l-0.947,0.411
				c-0.322,0.14-0.47,0.514-0.33,0.835l3.262,7.502l2.175,4.577c0.041,0.086,0.062,0.18,0.061,0.275l-0.019,3.724
				c0,0.1,0.023,0.2,0.068,0.289l1.05,2.077c0.019,0.038,0.042,0.074,0.069,0.108l1.509,1.906c0.054,0.068,0.127,0.11,0.2,0.15
				l-0.428,0.078c-0.272,0.05-0.451,0.31-0.402,0.582l0.18,0.984c0.05,0.272,0.31,0.451,0.582,0.402l5.119-0.938
				c0.272-0.05,0.451-0.31,0.402-0.582L31.811,24.45z"/>
		</g>
		<polygon fill="#468DAC" points="16,8 16,15.989 11.798,15.989 14.061,8 		"/>
		<path fill="#3A89A8" d="M14.061,8H12.02c-0.381,0-0.729,0.216-0.897,0.558l-3.332,6.734l4.006,0.698L14.061,8z"/>
		<polygon fill="#3A89A8" points="16,8 16,15.989 20.202,15.989 17.939,8 		"/>
		<path fill="#3085A6" d="M17.939,8h2.041c0.381,0,0.729,0.216,0.897,0.558l3.29,6.734l-3.964,0.698L17.939,8z"/>
		<path fill="#137FA0" d="M8.8,18l1.442,2.5c0.179,0.31,0.509,0.5,0.866,0.5H16v-3H8.8z"/>
		<path fill="#0F769B" d="M23.2,18l-1.442,2.5c-0.179,0.31-0.509,0.5-0.866,0.5H16v-3H23.2z"/>
		<circle fill="#2B3332" cx="19.5" cy="12.5" r="1.5"/>
		<circle fill="#D64F45" cx="19.5" cy="12.5" r="1"/>
		<circle fill="#2B3332" cx="19.5" cy="12.5" r="0.5"/>
		<circle fill="#373F3F" cx="12.5" cy="12.5" r="1.5"/>
		<circle fill="#D64F45" cx="12.5" cy="12.5" r="1"/>
		<circle fill="#373F3F" cx="12.5" cy="12.5" r="0.5"/>
		<g>
			<path fill="#5091AF" d="M8.179,15C7.528,15,7,15.528,7,16.179v0.643C7,17.472,7.528,18,8.179,18H16v-3H8.179z"/>
			<path fill="#468DAC" d="M25,16.821v-0.643C25,15.528,24.472,15,23.821,15H16v3h7.821C24.472,18,25,17.472,25,16.821z"/>
		</g>
		<g>
			<path fill="#DADDDC" d="M9.994,7.703c-0.242-0.175-0.58-0.122-0.755,0.12L8.603,8.699c-0.175,0.242-0.122,0.58,0.12,0.755
				l5.435,3.944l-5.435,3.944c-0.242,0.175-0.295,0.514-0.12,0.755l0.635,0.876c0.175,0.242,0.514,0.295,0.755,0.12L16,14.735
				v-2.673L9.994,7.703z"/>
			<path fill="#D1D4D4" d="M22.761,18.973l0.635-0.876c0.175-0.242,0.122-0.58-0.12-0.755l-5.435-3.944l5.435-3.944
				c0.242-0.175,0.295-0.514,0.12-0.755l-0.635-0.876c-0.175-0.242-0.514-0.295-0.755-0.12L16,12.062v2.673l6.006,4.359
				C22.248,19.269,22.586,19.215,22.761,18.973z"/>
		</g>
	</g>
</g>
</svg>
