<?xml version="1.0" encoding="utf-8"?>
<!-- Generator: Adobe Illustrator 23.0.6, SVG Export Plug-In . SVG Version: 6.00 Build 0)  -->
<svg version="1.1" xmlns="http://www.w3.org/2000/svg" xmlns:xlink="http://www.w3.org/1999/xlink" x="0px" y="0px" width="32px"
	 height="32px" viewBox="0 0 32 32" enable-background="new 0 0 32 32" xml:space="preserve">
<g id="labels">
	<g>
	</g>
</g>
<g id="icons">
	<g>
		<path fill="#AADB3D" d="M9,9C8.413,8.289,6.087,8.105,5,9s-1.531,3,0,3c0.75,0,2.281,0,3,0C8.487,12,10.215,10.47,9,9z"/>
		<path fill="#9ACC2E" d="M3,16c-2.312,0-3,1-3,4c0,1.281,0.739,1.168,1.25,0.656s1.068-1.321,2.602-1.129L3,16z"/>
		<path fill="#A2D336" d="M6,10.5c-1.094,0-3,1.017-3,2.5c0,2.156-1,2.062-1,3.969c0,0.897,0.51,2.302,1.852,2.558
			c0,0-0.446,1.504,0.148,1.504c0.75,0,2-0.279,2-3.031c0-2.906,1.062-3.5,2.5-3.5c1.639,0-0.108-3.54-0.108-3.54S8,10.5,6,10.5z"/>
		<path fill="#B1E346" d="M10,8c-2.083,0-4,1.167-4,3.042C6,13.088,8,12.297,8,13s0.083,2,2,2c2,0,3-1.787,3-3.958
			C13,8.792,11.061,8,10,8z"/>
		<path fill="#A2D336" d="M23,9c0.587-0.711,2.913-0.895,4,0s1.531,3,0,3c-0.75,0-2.281,0-3,0C23.513,12,21.785,10.47,23,9z"/>
		<path fill="#93C427" d="M29,16c2.312,0,3,1,3,4c0,1.281-0.739,1.168-1.25,0.656s-1.068-1.321-2.602-1.129L29,16z"/>
		<path fill="#9ACC2E" d="M26,10.5c1.094,0,3,1.017,3,2.5c0,2.156,1,2.062,1,3.969c0,0.897-0.51,2.302-1.852,2.558
			c0,0,0.446,1.504-0.148,1.504c-0.75,0-2-0.279-2-3.031c0-2.906-1.063-3.5-2.5-3.5c-1.639,0,0.108-3.54,0.108-3.54S24,10.5,26,10.5
			z"/>
		<path fill="#AADB3D" d="M22,8c2.083,0,4,1.167,4,3.042c0,2.046-2,1.255-2,1.958s-0.083,2-2,2c-2,0-3-1.787-3-3.958
			C19,8.792,20.939,8,22,8z"/>
		<path fill="#746E6E" d="M16,2.417c-4.093,0-3.915,1.832-4.917,6.25c-1.108,4.888-3.042,6.75-3.042,12.5
			C8.042,25.833,8.458,30,16,30V2.417z"/>
		<path fill="#E3E5E5" d="M11.152,4.425L7.739,5.333C7.488,5.4,7.492,5.757,7.744,5.818l3.565,0.866L11.152,4.425z"/>
		<path fill="#6D6666" d="M16,2.417c4.093,0,3.915,1.832,4.917,6.25c1.108,4.888,3.042,6.75,3.042,12.5
			C23.958,25.833,23.542,30,16,30V2.417z"/>
		<path fill="#6D6666" d="M16,16.75c-4.093,0-5.833-2.833-6.289-3.702c-0.867,2.325-1.669,4.416-1.669,8.119
			C8.042,25.833,8.458,30,16,30V16.75z"/>
		<path fill="#635C5C" d="M16,24.417c-4.093,0-6.729-2.021-7.958-3.25C8.042,25.833,8.458,30,16,30V24.417z"/>
		<path fill="#635C5C" d="M16,16.75c4.093,0,5.833-2.833,6.289-3.702c0.867,2.325,1.669,4.416,1.669,8.119
			C23.958,25.833,23.542,30,16,30V16.75z"/>
		<path fill="#5A5353" d="M16,24.417c4.093,0,6.729-2.021,7.958-3.25C23.958,25.833,23.542,30,16,30V24.417z"/>
		<path fill="#746E6E" d="M16,8.975l-4.277-2.153l0.056,2.451l0.818,1.327c0.229,0.372,0.538,0.688,0.906,0.923
			c0.242,0.154,0.51,0.32,0.692,0.418c0.408,0.22,1.334,0.747,1.804,0.747s1.396-0.527,1.804-0.747
			c0.181-0.098,0.45-0.264,0.692-0.418c0.368-0.235,0.677-0.551,0.906-0.923l0.818-1.327l0.056-2.451L16,8.975z"/>
		<path fill="#A2D336" d="M12,25c0-2.636-2.125-4.5-4-4.5c-2.438,0-4,2.394-4,4.512c0,2.024,0.78,2.826,1.399,3.707
			c0.443,0.63,0.615,1.413,0.615,2.184V31c0,0.552,0.448,1,1,1h3c0.552,0,1-0.412,1-0.965v-1.893c0-0.466,0.34-1.2,0.486-1.642
			C11.717,26.846,12,26.042,12,25z"/>
		<path fill="#DADDDC" d="M7.615,32H6c0-0.517,0.804-0.875,1.098-0.875C7.643,31.125,7.654,31.766,7.615,32z M9.436,32h1.615
			c0-0.517-0.804-0.875-1.098-0.875C9.408,31.125,9.397,31.766,9.436,32z M9.131,32c0.043-0.474-0.194-0.733-0.56-0.754
			C8.076,31.217,7.816,31.677,7.816,32H9.131z"/>
		<path fill="#373F3F" d="M8,24c1.105,0,2,0.895,2,2s-0.895,2-2,2s-2-0.895-2-2S6.895,24,8,24 M8,23.5c-1.379,0-2.5,1.122-2.5,2.5
			s1.121,2.5,2.5,2.5s2.5-1.122,2.5-2.5S9.379,23.5,8,23.5L8,23.5z"/>
		<path fill="#A2D336" d="M20,25c0-2.636,2.125-4.5,4-4.5c2.438,0,4,2.394,4,4.512c0,2.024-0.78,2.826-1.399,3.707
			c-0.443,0.63-0.615,1.413-0.615,2.184V31c0,0.552-0.448,1-1,1h-3c-0.552,0-1-0.412-1-0.965v-1.893c0-0.466-0.34-1.2-0.486-1.642
			C20.283,26.846,20,26.042,20,25z"/>
		<path fill="#373F3F" d="M24,24c1.105,0,2,0.895,2,2s-0.895,2-2,2s-2-0.895-2-2S22.895,24,24,24 M24,23.5
			c-1.379,0-2.5,1.122-2.5,2.5s1.121,2.5,2.5,2.5s2.5-1.122,2.5-2.5S25.379,23.5,24,23.5L24,23.5z"/>
		<path fill="#D1D4D4" d="M24.902,31.125C25.196,31.125,26,31.483,26,32h-1.615C24.346,31.766,24.357,31.125,24.902,31.125z
			 M22.046,31.125c-0.295,0-1.098,0.358-1.098,0.875h1.615C22.603,31.766,22.591,31.125,22.046,31.125z M24.184,32
			c0-0.323-0.259-0.783-0.754-0.754c-0.366,0.022-0.603,0.28-0.56,0.754H24.184z"/>
		<path fill="#807A7A" d="M11.779,9.273l0.818,1.327c0.229,0.372,0.538,0.688,0.906,0.923c0.242,0.154,0.51,0.32,0.692,0.418
			c0.408,0.22,1.334,0.747,1.804,0.747V8.975l-4.277-2.153L11.779,9.273z"/>
		<path fill="#DADDDC" d="M20.848,4.425l3.413,0.908c0.25,0.067,0.247,0.423-0.005,0.485l-3.565,0.866L20.848,4.425z"/>
		<path fill="#C8CCCB" d="M30.679,20.018c1.352,0.837,1.609,2.382,1.03,3.798c-0.42,1.027-2.06,2.36-2.929,3.014
			c-0.186,0.14-0.446-0.031-0.392-0.259l0.682-2.884L30.679,20.018z"/>
		<path fill="#DADDDC" d="M27.738,18.324c-0.386-1.352-0.837-1.803-1.803-1.223c-0.716,0.429-1.821,2.627-2.344,3.736
			c-0.101,0.214,0.128,0.432,0.34,0.326c1.152-0.576,3.485-1.761,3.678-2.002C27.867,18.839,27.738,18.324,27.738,18.324z"/>
		<path fill="#D1D4D4" d="M29.96,18.798c-0.736,0.309-1.446,0.517-1.751,0.601c-0.097,0.027-0.165,0.108-0.178,0.208l-0.756,5.816
			c-0.026,0.2,0.184,0.35,0.362,0.255c0.775-0.412,2.395-1.487,2.927-3.469c0.558-2.079-0.043-3.04-0.323-3.354
			C30.17,18.775,30.058,18.757,29.96,18.798z"/>
		<path fill="#D1D4D4" d="M1.321,20.018c-1.352,0.837-1.609,2.382-1.03,3.798c0.42,1.027,2.06,2.36,2.929,3.014
			c0.186,0.14,0.446-0.031,0.392-0.259L2.93,23.688L1.321,20.018z"/>
		<path fill="#E3E5E5" d="M4.262,18.324c0.386-1.352,0.837-1.803,1.803-1.223c0.716,0.429,1.821,2.627,2.344,3.736
			c0.101,0.214-0.128,0.432-0.34,0.326c-1.152-0.576-3.485-1.761-3.678-2.002C4.133,18.839,4.262,18.324,4.262,18.324z"/>
		<path fill="#DADDDC" d="M2.04,18.798c0.736,0.309,1.446,0.517,1.751,0.601c0.097,0.027,0.165,0.108,0.178,0.208l0.756,5.816
			c0.026,0.2-0.184,0.35-0.362,0.255c-0.775-0.412-2.395-1.487-2.927-3.469c-0.558-2.079,0.043-3.04,0.323-3.354
			C1.83,18.775,1.942,18.757,2.04,18.798z"/>
		<path fill="#CBEB6B" d="M15.65,1.01c-0.212-0.303-0.482-0.661-0.674-0.912c-0.113-0.148-0.341-0.124-0.423,0.043l-0.718,1.474
			l-1.216-1.33c-0.129-0.142-0.363-0.091-0.422,0.092L11.1,3.771l-0.007-0.016l-0.196,0.644l-0.028,0.087
			c0,0,0.005,0.013,0.011,0.026c0,0.01-0.004,0.021-0.003,0.031l0.196,1.465l-0.154,6.591c-0.002,0.078,0.033,0.153,0.094,0.202
			l0.564,0.448c0.164,0.13,0.406,0.013,0.406-0.196V7.28c0.252,0.636,0.496,1.253,0.667,1.695c0.072,0.187,0.176,0.357,0.312,0.504
			c0.466,0.504,1.16,1.115,1.783,1.738c0.455,0.455,0.861,0.644,1.255,0.659V1.332C15.863,1.332,15.828,1.264,15.65,1.01z"/>
		<path fill="#373F3F" d="M11.865,4.316l-0.066,1.173l0.185,0.454v1.344c0.25,0.629,0.49,1.238,0.659,1.677
			c0.07,0.182,0.16,0.341,0.292,0.484c0.142,0.154,0.309,0.321,0.486,0.494V7.726L11.865,4.316z"/>
		<path fill="#FFEAA7" d="M13.251,7.353L12.53,5.773c-0.19,0.188-0.324,0.599-0.324,1.081c0,0.659,0.246,1.192,0.549,1.192
			C12.976,8.046,13.163,7.76,13.251,7.353z"/>
		<path fill="#BEE758" d="M21.12,4.513c0.005-0.013,0.011-0.026,0.011-0.026l-0.028-0.087l-0.196-0.644L20.9,3.771l-1.096-3.394
			c-0.059-0.183-0.293-0.233-0.422-0.092l-1.216,1.33l-0.718-1.474c-0.081-0.167-0.31-0.191-0.423-0.043
			c-0.193,0.252-0.462,0.609-0.674,0.912C16.172,1.264,16.137,1.332,16,1.332v10.544c0.394-0.015,0.8-0.204,1.255-0.659
			c0.623-0.623,1.317-1.234,1.783-1.738c0.136-0.147,0.24-0.318,0.312-0.504c0.171-0.441,0.414-1.059,0.667-1.695v5.773
			c0,0.209,0.242,0.326,0.406,0.196l0.564-0.448c0.061-0.049,0.096-0.123,0.094-0.202l-0.154-6.591l0.196-1.465
			C21.124,4.533,21.12,4.523,21.12,4.513z"/>
		<path fill="#BEE758" d="M16,1.332v10.544c-0.394-0.015-0.8-0.204-1.255-0.659c-0.198-1.369-0.91-9.602-0.91-9.602l0.718-1.474
			c0.081-0.167,0.31-0.191,0.423-0.043c0.193,0.251,0.462,0.609,0.674,0.912C15.828,1.264,15.863,1.332,16,1.332z"/>
		<path fill="#2B3332" d="M20.017,5.942l0.185-0.454l-0.066-1.173l-1.556,3.41v2.216c0.177-0.172,0.345-0.339,0.486-0.494
			c0.132-0.144,0.221-0.302,0.292-0.484c0.17-0.439,0.41-1.048,0.659-1.677V5.942z"/>
		<path fill="#FFE28A" d="M18.749,7.353l0.721-1.581c0.19,0.188,0.324,0.599,0.324,1.081c0,0.659-0.246,1.192-0.549,1.192
			C19.024,8.046,18.837,7.76,18.749,7.353z"/>
		<path fill="#B1E346" d="M17.447,0.141c-0.081-0.167-0.31-0.191-0.423-0.043c-0.193,0.251-0.462,0.609-0.674,0.912
			C16.172,1.264,16.137,1.332,16,1.332v10.544c0.394-0.015,0.8-0.204,1.255-0.659c0.198-1.369,0.91-9.602,0.91-9.602L17.447,0.141z"
			/>
	</g>
</g>
</svg>
