<?xml version="1.0" encoding="utf-8"?>
<!-- Generator: Adobe Illustrator 23.0.6, SVG Export Plug-In . SVG Version: 6.00 Build 0)  -->
<svg version="1.1" xmlns="http://www.w3.org/2000/svg" xmlns:xlink="http://www.w3.org/1999/xlink" x="0px" y="0px" width="32px"
	 height="32px" viewBox="0 0 32 32" enable-background="new 0 0 32 32" xml:space="preserve">
<g id="icons">
	<g>
		<path fill="#FFD04D" d="M16.044,17c-1.657,0-3,1.119-3,2.5c0,1.381,1.343,2.5,3,2.5V17z"/>
		<path fill="#F7C845" d="M19.044,19.5c0-1.381-1.343-2.5-3-2.5v5C17.701,22,19.044,20.881,19.044,19.5z"/>
		<path fill="#53BF8C" d="M27.648,30.877c-1.493,0-2.793-0.507-3.747-1.499c-1.692-1.76-1.994-4.73-0.786-7.75
			c1.107-2.768,1.233-5.211,0.337-6.535C22.962,14.368,22.151,14,21.044,14h-3c-0.552,0-1-0.448-1-1s0.448-1,1-1h3
			c2.256,0,3.456,1.072,4.065,1.972c1.288,1.902,1.238,4.963-0.136,8.399c-0.913,2.28-0.771,4.434,0.371,5.621
			c0.945,0.981,2.495,1.159,4.366,0.494c0.52-0.187,1.092,0.087,1.277,0.608c0.185,0.521-0.087,1.092-0.608,1.277
			C29.425,30.71,28.505,30.877,27.648,30.877z"/>
		<path fill="#FFD04D" d="M28.044,32c-0.366,0-0.719-0.202-0.894-0.552c-0.088-0.176-2.141-4.368-1.086-9.644
			c0.531-2.657,0.164-5.002-1.01-6.433C24.309,14.461,23.296,14,22.044,14h-3c-0.552,0-1-0.448-1-1s0.448-1,1-1h3
			c1.853,0,3.429,0.727,4.557,2.103c1.554,1.896,2.073,4.846,1.424,8.093c-0.916,4.579,0.896,8.321,0.915,8.358
			c0.244,0.495,0.043,1.094-0.451,1.34C28.346,31.966,28.194,32,28.044,32z"/>
		<path fill="#60CD96" d="M4.44,30.877c-0.856,0-1.776-0.167-2.73-0.506c-0.521-0.185-0.792-0.756-0.608-1.277
			c0.185-0.52,0.758-0.792,1.277-0.608c1.872,0.665,3.422,0.489,4.366-0.494c1.141-1.187,1.283-3.34,0.371-5.621
			c-1.374-3.436-1.424-6.498-0.136-8.399C7.589,13.072,8.789,12,11.044,12h3c0.552,0,1,0.448,1,1s-0.448,1-1,1h-3
			c-1.107,0-1.917,0.368-2.409,1.093c-0.896,1.324-0.77,3.767,0.337,6.535c1.208,3.02,0.906,5.989-0.786,7.75
			C7.234,30.369,5.934,30.877,4.44,30.877z"/>
		<path fill="#FFD96C" d="M4.043,32c-0.15,0-0.303-0.034-0.446-0.105c-0.494-0.247-0.694-0.848-0.447-1.342
			c0.018-0.035,1.83-3.777,0.914-8.356c-0.649-3.248-0.13-6.197,1.424-8.093C6.616,12.727,8.191,12,10.044,12h3c0.552,0,1,0.448,1,1
			s-0.448,1-1,1h-3c-1.251,0-2.264,0.461-3.01,1.371c-1.173,1.431-1.541,3.776-1.01,6.433c1.055,5.276-0.998,9.468-1.086,9.644
			C4.764,31.798,4.411,32,4.043,32z"/>
		<path fill="#909997" d="M16.044,10h-1.149c0,0.422-0.029,0.807-0.074,1.154C14.756,11.644,14.325,12,13.831,12h-1.787v3
			l1.506,0.376c0.515,0.129,0.846,0.656,0.738,1.176c-0.071,0.339-0.463,0.861-0.648,1.576c-0.075,0.291-0.017,0.593,0.159,0.836
			C14.12,19.405,14.784,20,16.044,20V10z"/>
		<path fill="#838C8A" d="M18.288,18.964c0.177-0.244,0.235-0.545,0.159-0.836c-0.185-0.714-0.577-1.237-0.648-1.576
			c-0.108-0.52,0.223-1.047,0.738-1.176L20.044,15v-3h-1.787c-0.494,0-0.925-0.356-0.989-0.846
			c-0.045-0.347-0.074-0.733-0.074-1.154h-1.149v10C17.304,20,17.969,19.405,18.288,18.964z"/>
		<path fill="#9DA5A4" d="M14.359,19.494C14.742,19.769,15.27,20,16.044,20v-5.5h-0.64C15.405,14.5,15.521,17.331,14.359,19.494z"/>
		<path fill="#909997" d="M16.684,14.5h-0.64V20c0.774,0,1.303-0.231,1.686-0.506C16.568,17.331,16.684,14.5,16.684,14.5z"/>
		<path fill="#FFD04D" d="M20.044,12.5V12c0.828,0,1.5,0.672,1.5,1.5s-0.672,1.5-1.5,1.5v-0.5c0-0.276-0.224-0.5-0.5-0.5h-2.5v-1
			h2.5C19.821,13,20.044,12.776,20.044,12.5z"/>
		<path fill="#757F7E" d="M18.044,13.5c0-1.105-0.895-2-2-2v4C17.149,15.5,18.044,14.605,18.044,13.5z"/>
		<path fill="#6E57A0" d="M17.544,13.5c0-0.828-0.672-1.5-1.5-1.5v3C16.873,15,17.544,14.328,17.544,13.5z"/>
		<path fill="#FFD96C" d="M12.044,12.5V12c-0.828,0-1.5,0.672-1.5,1.5s0.672,1.5,1.5,1.5v-0.5c0-0.276,0.224-0.5,0.5-0.5h2.5v-1
			h-2.5C12.268,13,12.044,12.776,12.044,12.5z"/>
		<path fill="#838C8A" d="M14.044,13.5c0,1.105,0.895,2,2,2v-4C14.94,11.5,14.044,12.395,14.044,13.5z"/>
		<path fill="#7A63AD" d="M14.544,13.5c0,0.828,0.672,1.5,1.5,1.5v-3C15.216,12,14.544,12.672,14.544,13.5z"/>
		<path fill="#FFD04D" d="M16.371,22.593c0.681,1.643,2.532,6.302,2.761,8.913C19.157,31.787,19.397,32,19.679,32h0.001
			c0.274,0,0.506-0.2,0.544-0.471c0.314-2.217,1.542-11.635,0.218-14.967c-0.086-0.217-0.395-0.21-0.47,0.011
			c-0.318,0.942-1.016,2.777-1.817,3.427c-0.897,0.728-1.042,0.934-1.594,1.533C16.298,21.82,16.222,22.233,16.371,22.593z"/>
		<path fill="#FFD96C" d="M15.718,22.593c-0.681,1.643-2.532,6.302-2.761,8.913C12.932,31.787,12.692,32,12.41,32h-0.001
			c-0.274,0-0.506-0.2-0.544-0.471c-0.314-2.217-1.542-11.635-0.218-14.967c0.086-0.217,0.395-0.21,0.47,0.011
			c0.318,0.942,1.016,2.777,1.817,3.427c0.897,0.728,1.042,0.934,1.594,1.533C15.791,21.82,15.867,22.233,15.718,22.593z"/>
		<path fill="#6EDCA2" d="M13.044,25c0-1.745-1.522-5.011-1.91-5.816c-0.112,1.316-0.102,2.847-0.034,4.383l-0.841,0.504
			c-0.324,0.194-0.324,0.663,0,0.857l0.953,0.572c0.098,1.329,0.227,2.595,0.349,3.65C12.153,28.114,13.044,26.336,13.044,25z"/>
		<path fill="#60CD96" d="M19.048,25c0-1.745,1.522-5.011,1.91-5.816c0.112,1.316,0.102,2.847,0.034,4.383l0.841,0.504
			c0.324,0.194,0.324,0.663,0,0.857l-0.953,0.572c-0.098,1.329-0.227,2.595-0.349,3.65C19.939,28.114,19.048,26.336,19.048,25z"/>
		<path fill="#FFE28A" d="M12.953,4H7.605C7.118,4,6.918,4.624,7.314,4.907l5.279,3.771c0.295,0.495,0.678,0.921,1.099,1.26
			c0.87,0.7,1.857,1.063,2.353,1.063V4V0C15.252,0,12.953,4,12.953,4z"/>
		<path fill="#6EDCA2" d="M16.044,4c-1.552,0-2.81,1.698-2.81,3.754c0,0.748,0.17,1.511,0.457,2.183
			c0.87,0.7,1.857,1.063,2.353,1.063V4z"/>
		<path fill="#FFD96C" d="M19.136,4h5.348c0.486,0,0.686,0.624,0.291,0.907l-5.279,3.771c-0.295,0.495-0.678,0.921-1.099,1.26
			C17.528,10.637,16.54,11,16.044,11V4V0C16.837,0,19.136,4,19.136,4z"/>
		<path fill="#60CD96" d="M16.044,4v7c0.496,0,1.483-0.363,2.353-1.063c0.287-0.672,0.457-1.435,0.457-2.183
			C18.854,5.698,17.596,4,16.044,4z"/>
		<path fill="#373F3F" d="M14.99,7.754l-1.431-1.371c-0.173-0.112-0.404-0.001-0.425,0.204l-0.088,0.884
			c-0.013,0.133,0.07,0.256,0.198,0.293l1.447,0.419C14.943,8.255,15.146,7.966,14.99,7.754z"/>
		
			<ellipse transform="matrix(0.2178 -0.976 0.976 0.2178 2.8795 14.593)" fill="#6EDCA2" cx="10.544" cy="5.5" rx="0.381" ry="1.534"/>
		<path fill="#FFFFFF" d="M13.644,6.465C13.568,6.601,13.544,6.79,13.544,7c0,0.414,0.086,0.75,0.5,0.75
			c0.305,0,0.431-0.184,0.476-0.446L13.644,6.465z"/>
		<path fill="#373F3F" d="M13.84,6.653C13.814,6.727,13.794,6.826,13.794,7c0,0.5,0.133,0.5,0.25,0.5
			c0.109,0,0.227-0.017,0.244-0.418L13.84,6.653z"/>
		<path fill="#2B3332" d="M17.099,7.754l1.431-1.371c0.173-0.112,0.404-0.001,0.425,0.204l0.088,0.884
			c0.013,0.133-0.07,0.256-0.198,0.293l-1.447,0.419C17.145,8.255,16.943,7.966,17.099,7.754z"/>
		<path fill="#F7F7F7" d="M18.445,6.465C18.521,6.601,18.544,6.79,18.544,7c0,0.414-0.086,0.75-0.5,0.75
			c-0.305,0-0.431-0.184-0.476-0.446L18.445,6.465z"/>
		<path fill="#2B3332" d="M18.249,6.653C18.275,6.727,18.294,6.826,18.294,7c0,0.5-0.133,0.5-0.25,0.5
			c-0.109,0-0.227-0.017-0.244-0.418L18.249,6.653z"/>
		
			<ellipse transform="matrix(0.976 -0.2178 0.2178 0.976 -0.6807 4.8255)" fill="#60CD96" cx="21.544" cy="5.5" rx="1.534" ry="0.381"/>
		<path fill="#7A63AD" d="M16.044,6c-0.276,0-0.5,0.895-0.5,2c0,1.105,0.224,2,0.5,2V6z"/>
		<path fill="#6E57A0" d="M16.544,8c0-1.105-0.224-2-0.5-2v4C16.321,10,16.544,9.105,16.544,8z"/>
	</g>
</g>
</svg>
