<?xml version="1.0" encoding="utf-8"?>
<!-- Generator: Adobe Illustrator 23.0.6, SVG Export Plug-In . SVG Version: 6.00 Build 0)  -->
<svg version="1.1" xmlns="http://www.w3.org/2000/svg" xmlns:xlink="http://www.w3.org/1999/xlink" x="0px" y="0px" width="32px"
	 height="32px" viewBox="0 0 32 32" enable-background="new 0 0 32 32" xml:space="preserve">
<g id="icons">
	<g>
		<path fill="#F7C845" d="M24,11c0,0-3,1-4,2s-1,8-1,8s-1-1-3-1V10l4-3h2L24,11z"/>
		<path fill="#FFD04D" d="M20,7l-4,3v7c1.112,0,2.178-0.113,3.177-0.314C19.315,15.034,19.561,13.439,20,13c1-1,4-2,4-2l-2-4H20z"/>
		<path fill="#FFD96C" d="M20,7l-4,3v4c1.284,0,2.51-0.116,3.656-0.318C19.755,13.372,19.868,13.132,20,13c1-1,4-2,4-2l-2-4H20z"/>
		<path fill="#6CD275" d="M22,8c1.829,0,2.822,19.242,2.978,22.526C24.991,30.793,25.211,31,25.477,31h1.978
			c0.293,0,0.524-0.246,0.499-0.539C27.643,26.91,25.822,7,24,7C22,7,22,8,22,8z"/>
		<path fill="#FFD96C" d="M25,6c2.734,0.911,5.467,21.748,5.931,25.443C30.969,31.741,30.735,32,30.434,32h-2.98
			c-0.257,0-0.472-0.187-0.497-0.444C26.662,28.517,24.914,10.827,24,9c-1-2-4,0-4,0V6C20,6,22,5,25,6z"/>
		<path fill="#FFD04D" d="M8,11c0,0,3,1,4,2s1,8,1,8s1-1,3-1V10l-4-3h-2L8,11z"/>
		<path fill="#FFD96C" d="M12,7h-2l-2,4c0,0,3,1,4,2c0.439,0.439,0.685,2.034,0.823,3.686C13.822,16.887,14.888,17,16,17v-7L12,7z"
			/>
		<path fill="#FFE28A" d="M12,7h-2l-2,4c0,0,3,1,4,2c0.132,0.132,0.245,0.372,0.344,0.682C13.49,13.884,14.716,14,16,14v-4L12,7z"/>
		<path fill="#78DF7C" d="M10,8C8.171,8,7.178,27.242,7.022,30.526C7.009,30.793,6.789,31,6.523,31H4.545
			c-0.293,0-0.524-0.246-0.499-0.539C4.357,26.91,6.178,7,8,7C10,7,10,8,10,8z"/>
		<path fill="#FFE28A" d="M7,6C4.266,6.911,1.533,27.748,1.069,31.443C1.031,31.741,1.265,32,1.566,32h2.98
			c0.257,0,0.472-0.187,0.497-0.444C5.338,28.517,7.086,10.827,8,9c1-2,4,0,4,0V6C12,6,10,5,7,6z"/>
		<path fill="#FFEAA7" d="M16,0c-2.761,0-5,3.239-5,6s5,5,5,5V0z"/>
		<path fill="#FFE28A" d="M21,6c0-2.761-2.239-6-5-6v11C16,11,21,8.761,21,6z"/>
		<path fill="#FFE28A" d="M14.395,18.087c-0.352-2.197-1.486-3.793-2.533-3.565c-0.882,0.192-1.414,1.624-1.35,3.384
			c-3.009,4.047-2.592,10.798-2.322,13.208C8.248,31.621,8.674,32,9.185,32h0.149c0.537,0,0.977-0.419,0.999-0.955
			c0.079-1.953,0.423-6.417,1.882-8.824c0.301,0.218,0.615,0.324,0.923,0.257C14.184,22.25,14.747,20.284,14.395,18.087z"/>
		<path fill="#FFD96C" d="M21.487,17.906c0.064-1.76-0.468-3.192-1.35-3.384c-1.047-0.228-2.181,1.368-2.533,3.565
			s0.211,4.163,1.258,4.391c0.308,0.067,0.622-0.039,0.923-0.257c1.46,2.407,1.803,6.871,1.882,8.824
			C21.69,31.581,22.13,32,22.667,32h0.149c0.51,0,0.937-0.379,0.994-0.887C24.079,28.703,24.497,21.953,21.487,17.906z"/>
		<path fill="#757F7E" d="M18,11c0-1.105-0.895-2-2-2v4C17.105,13,18,12.105,18,11z"/>
		<path fill="#6E57A0" d="M17.5,11c0-0.828-0.672-1.5-1.5-1.5v3C16.828,12.5,17.5,11.828,17.5,11z"/>
		<path fill="#838C8A" d="M14,11c0,1.105,0.895,2,2,2V9C14.895,9,14,9.895,14,11z"/>
		<path fill="#7A63AD" d="M14.5,11c0,0.828,0.672,1.5,1.5,1.5v-3C15.172,9.5,14.5,10.172,14.5,11z"/>
		<circle fill="#84ED82" cx="9.5" cy="26" r="1"/>
		<circle fill="#84ED82" cx="22.5" cy="26" r="1"/>
		<path fill="#84ED82" d="M16,2c-0.5,0-2,1.343-2,3s1.5,3,2,3V2z"/>
		<path fill="#78DF7C" d="M18,5c0-1.657-1.5-3-2-3v6C16.5,8,18,6.657,18,5z"/>
		<path fill="#373F3F" d="M14.946,4.754l-1.431-1.371c-0.173-0.112-0.404-0.001-0.425,0.204l-0.088,0.884
			c-0.013,0.133,0.07,0.256,0.198,0.293l1.447,0.419C14.899,5.255,15.101,4.966,14.946,4.754z"/>
		<path fill="#FFFFFF" d="M13.599,3.465C13.523,3.601,13.5,3.79,13.5,4c0,0.414,0.086,0.75,0.5,0.75
			c0.305,0,0.431-0.184,0.476-0.446L13.599,3.465z"/>
		<path fill="#373F3F" d="M13.796,3.653C13.77,3.727,13.75,3.826,13.75,4c0,0.5,0.133,0.5,0.25,0.5c0.109,0,0.227-0.017,0.244-0.418
			L13.796,3.653z"/>
		<path fill="#2B3332" d="M17.054,4.754l1.431-1.371c0.173-0.112,0.404-0.001,0.425,0.204l0.088,0.884
			c0.013,0.133-0.07,0.256-0.198,0.293l-1.447,0.419C17.101,5.255,16.899,4.966,17.054,4.754z"/>
		<path fill="#F7F7F7" d="M18.401,3.465C18.477,3.601,18.5,3.79,18.5,4c0,0.414-0.086,0.75-0.5,0.75
			c-0.305,0-0.431-0.184-0.476-0.446L18.401,3.465z"/>
		<path fill="#2B3332" d="M18.204,3.653C18.23,3.727,18.25,3.826,18.25,4c0,0.5-0.133,0.5-0.25,0.5
			c-0.109,0-0.227-0.017-0.244-0.418L18.204,3.653z"/>
		<path fill="#7A63AD" d="M16,3c-0.276,0-0.5,0.895-0.5,2c0,1.105,0.224,2,0.5,2V3z"/>
		<path fill="#6E57A0" d="M16.5,5c0-1.105-0.224-2-0.5-2v4C16.276,7,16.5,6.105,16.5,5z"/>
	</g>
</g>
</svg>
