<?xml version="1.0" encoding="utf-8"?>
<!-- Generator: Adobe Illustrator 23.0.6, SVG Export Plug-In . SVG Version: 6.00 Build 0)  -->
<svg version="1.1" xmlns="http://www.w3.org/2000/svg" xmlns:xlink="http://www.w3.org/1999/xlink" x="0px" y="0px" width="32px"
	 height="32px" viewBox="0 0 32 32" enable-background="new 0 0 32 32" xml:space="preserve">
<g id="icons">
	<g>
		<path fill="#51BAC5" d="M29.999,31c0.552,0,1-0.448,1-1s-0.448-1-1-1c-0.018,0-2.196-0.035-2.956-1.468
			c-0.182-0.342-0.206-0.764-0.074-1.289c0.14-0.558,0.279-1.077,0.41-1.564c0.248-0.92,0.461-1.715,0.604-2.489
			c0.17-0.922,0.588-4.134-1.152-6.744C24.561,12.039,19.225,12,18.999,12C18.447,12,18,12.447,18,12.999
			c-0.001,0.552,0.446,1,0.998,1.001c0.045,0,4.495,0.043,6.169,2.555c1.051,1.577,1.128,3.757,0.849,5.272
			c-0.128,0.695-0.332,1.453-0.568,2.332c-0.134,0.499-0.277,1.028-0.419,1.599c-0.253,1.012-0.17,1.924,0.248,2.711
			C26.602,30.971,29.861,31,29.999,31z"/>
		<path fill="#DD7731" d="M27.999,32c0.397,0,0.772-0.238,0.929-0.629c1.546-3.865-0.118-5.431-1.456-6.689
			c-0.643-0.605-1.25-1.177-1.524-1.999c-0.351-1.052-0.051-2.208,0.266-3.433c0.458-1.766,0.977-3.767-0.383-5.806
			c-1.917-2.875-4.859-2.823-6.148-2.394c-0.524,0.175-0.807,0.741-0.632,1.265c0.173,0.522,0.734,0.805,1.258,0.635
			c0.242-0.076,2.354-0.656,3.859,1.604c0.863,1.294,0.514,2.638,0.111,4.194c-0.359,1.384-0.766,2.953-0.228,4.567
			c0.434,1.3,1.293,2.109,2.051,2.822c1.253,1.179,2.009,1.891,0.969,4.49c-0.205,0.513,0.044,1.095,0.557,1.3
			C27.75,31.977,27.875,32,27.999,32z"/>
		<path fill="#51BAC5" d="M26.161,29c0.158,0,0.318-0.037,0.467-0.116c0.488-0.259,0.674-0.864,0.416-1.352
			c-0.182-0.342-0.206-0.764-0.074-1.289c0.14-0.558,0.279-1.077,0.41-1.564c0.248-0.92,0.461-1.715,0.604-2.489
			c0.1-0.543-0.259-1.064-0.803-1.164c-0.54-0.104-1.064,0.259-1.164,0.803c-0.128,0.694-0.332,1.453-0.568,2.331
			c-0.134,0.499-0.277,1.028-0.419,1.599c-0.253,1.012-0.17,1.924,0.248,2.711C25.456,28.807,25.802,29,26.161,29z"/>
		<path fill="#56C7CD" d="M2,31c-0.552,0-1-0.448-1-1s0.448-1,1-1c0.018,0,2.196-0.035,2.956-1.468
			c0.182-0.342,0.206-0.764,0.074-1.289c-0.14-0.558-0.279-1.077-0.41-1.564c-0.248-0.92-0.461-1.715-0.604-2.489
			c-0.17-0.922-0.588-4.134,1.152-6.744C7.438,12.039,12.774,12,13,12c0.552,0,0.999,0.447,0.999,0.999
			c0.001,0.552-0.446,1-0.998,1.001c-0.045,0-4.495,0.043-6.169,2.555c-1.051,1.577-1.128,3.757-0.849,5.272
			c0.128,0.695,0.332,1.453,0.568,2.332c0.134,0.499,0.277,1.028,0.419,1.599c0.253,1.012,0.17,1.924-0.248,2.711
			C5.397,30.971,2.138,31,2,31z"/>
		<path fill="#E8803A" d="M4,32c-0.397,0-0.772-0.238-0.929-0.629c-1.546-3.865,0.118-5.431,1.456-6.689
			c0.643-0.605,1.25-1.177,1.524-1.999c0.351-1.052,0.051-2.208-0.266-3.433c-0.458-1.766-0.977-3.767,0.383-5.806
			c1.917-2.875,4.859-2.823,6.148-2.394c0.524,0.175,0.807,0.741,0.632,1.265c-0.173,0.522-0.734,0.805-1.258,0.635
			c-0.242-0.076-2.354-0.656-3.859,1.604c-0.863,1.294-0.514,2.638-0.111,4.194c0.359,1.384,0.766,2.953,0.228,4.567
			c-0.434,1.3-1.293,2.109-2.051,2.822c-1.253,1.179-2.009,1.891-0.969,4.49c0.205,0.513-0.044,1.095-0.557,1.3
			C4.25,31.977,4.124,32,4,32z"/>
		<path fill="#56C7CD" d="M5.838,29c-0.158,0-0.318-0.037-0.467-0.116c-0.488-0.259-0.674-0.864-0.416-1.352
			c0.182-0.342,0.206-0.764,0.074-1.289c-0.14-0.558-0.279-1.077-0.41-1.564c-0.248-0.92-0.461-1.715-0.604-2.489
			c-0.1-0.543,0.259-1.064,0.803-1.164c0.54-0.104,1.064,0.259,1.164,0.803c0.128,0.694,0.332,1.453,0.568,2.331
			c0.134,0.499,0.277,1.028,0.419,1.599c0.253,1.012,0.17,1.924-0.248,2.711C6.543,28.807,6.197,29,5.838,29z"/>
		<path fill="#DD7731" d="M22.817,29.936c-0.335-2.53-0.852-5.038-1.426-7.553c-0.156-0.636-0.322-1.27-0.493-1.904
			c1.009-1.438,1.4-2.812,0.851-3.287c-0.655-0.568-2.39,0.358-3.874,2.07s-2.156,3.559-1.501,4.127
			c0.336,0.292,0.959,0.184,1.685-0.216c0.058,0.115,0.122,0.226,0.18,0.341c1.063,2.225,2.094,4.495,2.956,6.839
			c0.151,0.392,0.299,0.785,0.442,1.181c0.285,0.785,1.461,0.513,1.356-0.316C22.939,30.79,22.88,30.363,22.817,29.936z"/>
		
			<ellipse transform="matrix(0.963 -0.2694 0.2694 0.963 -6.0355 6.4645)" fill="#51BAC5" cx="20.531" cy="25.219" rx="0.5" ry="2"/>
		<path fill="#E8803A" d="M14.125,19.261c-1.484-1.711-3.218-2.638-3.874-2.07c-0.548,0.476-0.158,1.849,0.851,3.287
			c-0.172,0.634-0.338,1.269-0.493,1.904c-0.574,2.515-1.091,5.023-1.426,7.553c-0.063,0.427-0.122,0.854-0.176,1.281
			c-0.105,0.829,1.071,1.101,1.356,0.316c0.143-0.395,0.291-0.789,0.442-1.181c0.863-2.343,1.893-4.613,2.956-6.839
			c0.057-0.115,0.121-0.226,0.18-0.341c0.726,0.4,1.348,0.508,1.685,0.216C16.281,22.82,15.609,20.972,14.125,19.261z"/>
		<path fill="#EF8C48" d="M16,22h-0.965c-0.782,0-1.511-0.417-1.938-1.11l-0.843-1.365C11.583,18.439,12.32,17,13.546,17H16V22z"/>
		<path fill="#E8803A" d="M16,22h0.965c0.782,0,1.511-0.417,1.938-1.11l0.843-1.365C20.417,18.439,19.68,17,18.454,17H16V22z"/>
		
			<ellipse transform="matrix(0.2694 -0.963 0.963 0.2694 -15.9075 29.4686)" fill="#56C7CD" cx="11.469" cy="25.219" rx="2" ry="0.5"/>
		<path fill="#909997" d="M14.489,14.698c0,0-0.069,1.749-0.639,3.225c-0.255,0.66,0.218,1.369,0.925,1.369H16v-4.594H14.489z"/>
		<path fill="#838C8A" d="M18.15,17.923c-0.57-1.476-0.639-3.225-0.639-3.225H16v4.594h1.224
			C17.932,19.292,18.405,18.582,18.15,17.923z"/>
		<path fill="#9DA5A4" d="M15.36,15.542c0,0-0.089,2.942-0.515,3.75H16v-3.75H15.36z"/>
		<path fill="#909997" d="M16,15.542v3.75h1.155c-0.427-0.808-0.515-3.75-0.515-3.75H16z"/>
		<path fill="#EF8C48" d="M16,9h-2.76c-0.408,0-0.74,0.331-0.74,0.74v0.298c-1.137,0.18-1.833,1.15-1.337,2.028l1.731,3.061
			c0.3,0.531,0.971,0.873,1.711,0.873H16V9z"/>
		<path fill="#E8803A" d="M19.5,10.038V9.74C19.5,9.331,19.169,9,18.76,9H16v7h1.396c0.74,0,1.41-0.342,1.711-0.873l1.731-3.061
			C21.333,11.188,20.637,10.218,19.5,10.038z"/>
		<path fill="#9DA5A4" d="M14.851,8c0,0.754-0.153,1.369-0.309,1.8c-0.157,0.433,0.138,0.874,0.73,1.095l0.379,0.141
			c0.113,0.042,0.231,0.063,0.349,0.063V8H14.851z"/>
		<path fill="#909997" d="M16.729,10.895c0.591-0.221,0.886-0.662,0.73-1.095c-0.156-0.431-0.309-1.046-0.309-1.8H16v3.099
			c0.118,0,0.237-0.021,0.349-0.063L16.729,10.895z"/>
		<path fill="#7A63AD" d="M14.5,13.5c0,0.828,0.672,1.5,1.5,1.5v-3C15.172,12,14.5,12.672,14.5,13.5z"/>
		<path fill="#6E57A0" d="M17.5,13.5c0-0.828-0.672-1.5-1.5-1.5v3C16.828,15,17.5,14.328,17.5,13.5z"/>
		<path fill="#F79654" d="M10.392,3.51l1.968-0.437C12.986,1.484,14.374,0,16,0v2v7c-0.496,0-1.483-0.363-2.353-1.063
			c-0.639-0.514-1.21-1.213-1.48-2.081l-1.775-0.394C10.163,5.411,10,5.208,10,4.974V3.998C10,3.764,10.163,3.561,10.392,3.51z"/>
		<path fill="#EF8C48" d="M21.608,3.51l-1.968-0.437C19.014,1.484,17.626,0,16,0v2v7c0.496,0,1.483-0.363,2.353-1.063
			c0.639-0.514,1.21-1.213,1.48-2.081l1.775-0.394C21.837,5.411,22,5.208,22,4.974V3.998C22,3.764,21.837,3.561,21.608,3.51z"/>
		<path fill="#56C7CD" d="M16,2c-1.552,0-2.81,1.698-2.81,3.754c0,0.748,0.17,1.511,0.457,2.183C14.517,8.637,15.504,9,16,9V2z"/>
		<path fill="#51BAC5" d="M16,2v7c0.496,0,1.483-0.363,2.353-1.063c0.287-0.672,0.457-1.435,0.457-2.183C18.81,3.698,17.552,2,16,2z
			"/>
		<ellipse fill="#56C7CD" cx="11.5" cy="4.5" rx="1" ry="0.5"/>
		<ellipse fill="#51BAC5" cx="20.5" cy="4.5" rx="1" ry="0.5"/>
		<path fill="#373F3F" d="M14.946,5.754l-1.431-1.371c-0.173-0.112-0.404-0.001-0.425,0.204l-0.088,0.884
			c-0.013,0.133,0.07,0.256,0.198,0.293l1.447,0.419C14.899,6.255,15.101,5.966,14.946,5.754z"/>
		<path fill="#FFFFFF" d="M13.599,4.465C13.523,4.601,13.5,4.79,13.5,5c0,0.414,0.086,0.75,0.5,0.75
			c0.305,0,0.431-0.184,0.476-0.446L13.599,4.465z"/>
		<path fill="#373F3F" d="M13.796,4.653C13.77,4.727,13.75,4.826,13.75,5c0,0.5,0.133,0.5,0.25,0.5c0.109,0,0.227-0.017,0.244-0.418
			L13.796,4.653z"/>
		<path fill="#2B3332" d="M17.054,5.754l1.431-1.371c0.173-0.112,0.404-0.001,0.425,0.204l0.088,0.884
			c0.013,0.133-0.07,0.256-0.198,0.293l-1.447,0.419C17.101,6.255,16.899,5.966,17.054,5.754z"/>
		<path fill="#F7F7F7" d="M18.401,4.465C18.477,4.601,18.5,4.79,18.5,5c0,0.414-0.086,0.75-0.5,0.75
			c-0.305,0-0.431-0.184-0.476-0.446L18.401,4.465z"/>
		<path fill="#2B3332" d="M18.204,4.653C18.23,4.727,18.25,4.826,18.25,5c0,0.5-0.133,0.5-0.25,0.5
			c-0.109,0-0.227-0.017-0.244-0.418L18.204,4.653z"/>
		<path fill="#7A63AD" d="M16,4c-0.276,0-0.5,0.895-0.5,2c0,1.105,0.224,2,0.5,2V4z"/>
		<path fill="#6E57A0" d="M16.5,6c0-1.105-0.224-2-0.5-2v4C16.276,8,16.5,7.105,16.5,6z"/>
	</g>
</g>
</svg>
