<?xml version="1.0" encoding="utf-8"?>
<!-- Generator: Adobe Illustrator 23.0.6, SVG Export Plug-In . SVG Version: 6.00 Build 0)  -->
<svg version="1.1" xmlns="http://www.w3.org/2000/svg" xmlns:xlink="http://www.w3.org/1999/xlink" x="0px" y="0px" width="32px"
	 height="32px" viewBox="0 0 32 32" enable-background="new 0 0 32 32" xml:space="preserve">
<g id="labels">
</g>
<g id="icons">
	<g>
		<path fill="#AADB3D" d="M8.995,19l-4-2C3.265,19.649,3.032,27.442,3,29.498C2.996,29.777,3.221,30,3.5,30h6.896
			c0.312,0,0.548-0.283,0.492-0.589L8.995,19z"/>
		<path fill="#B1E346" d="M6,20l-4-2c-1.73,2.649-1.964,10.442-1.995,12.498C0.001,30.777,0.226,31,0.505,31h6.896
			c0.312,0,0.548-0.283,0.492-0.589L6,20z"/>
		<path fill="#F7F7F7" d="M6,29.667c-0.191,0-0.489,0.259-0.711,0.583C4.969,29.603,4.358,29,4,29s-0.969,0.603-1.289,1.249
			C2.489,29.926,2.191,29.667,2,29.667c-0.333,0-1,0.781-1,1.333h6C7,30.448,6.333,29.667,6,29.667z"/>
		<path fill="#BEE758" d="M16,9C8.268,9,2,12.477,2,18c0,5.523,6.268,9,14,9V9z"/>
		<path fill="#A2D336" d="M23.005,19l4-2c1.73,2.649,1.964,10.442,1.995,12.498C29.004,29.777,28.779,30,28.5,30h-6.896
			c-0.312,0-0.548-0.283-0.492-0.589L23.005,19z"/>
		<path fill="#AADB3D" d="M26,20l4-2c1.73,2.649,1.964,10.442,1.995,12.498c0.004,0.279-0.221,0.502-0.5,0.502h-6.896
			c-0.312,0-0.548-0.283-0.492-0.589L26,20z"/>
		<path fill="#EDEEEE" d="M30,29.667c-0.191,0-0.489,0.259-0.711,0.583C28.969,29.603,28.358,29,28,29s-0.969,0.603-1.289,1.249
			c-0.222-0.323-0.52-0.583-0.711-0.583c-0.333,0-1,0.781-1,1.333h6C31,30.448,30.333,29.667,30,29.667z"/>
		<path fill="#B1E346" d="M30,18c0-5.523-6.268-9-14-9v18C23.732,27,30,23.523,30,18z"/>
		<path fill="#FEF1C6" d="M9.406,21.355C9.154,21.106,8.842,21,8.5,21c-0.828,0-2,1-2,2.5S11.029,29,16,29v-8
			C13.392,21,11.05,20.997,9.406,21.355z"/>
		<path fill="#CBEB6B" d="M8,21c0,0.032,0.003,0.059,0.004,0.091C8.16,21.033,8.325,21,8.5,21c0.828,0,1.5,0.567,1.5,2.5
			c0,0.39-0.034,0.712-0.084,0.997c0.909,0.388,2.092,0.488,3.44,0.508c0.624,0.916,1.908,1.628,2.423,1.888
			c0.07,0.035,0.146,0.053,0.221,0.053V13C14,13,8,16.582,8,21z"/>
		<path fill="#FFEAA7" d="M23.5,21c-0.342,0-0.654,0.106-0.906,0.355C20.95,20.997,18.608,21,16,21v8c4.971,0,9.5-4,9.5-5.5
			S24.328,21,23.5,21z"/>
		<path fill="#BEE758" d="M22,23.5c0-1.933,0.672-2.5,1.5-2.5c0.175,0,0.34,0.033,0.496,0.091C23.997,21.059,24,21.032,24,21
			c0-4.418-6-8-8-8v13.946c0.076,0,0.152-0.018,0.221-0.053c0.515-0.26,1.799-0.972,2.423-1.888c1.348-0.019,2.53-0.119,3.44-0.508
			C22.034,24.212,22,23.89,22,23.5z"/>
		<ellipse fill="#FFFFFF" cx="13" cy="21.5" rx="2" ry="2.5"/>
		<ellipse fill="#373F3F" cx="13" cy="21.5" rx="1" ry="1.5"/>
		<ellipse fill="#F7F7F7" cx="19" cy="21.5" rx="2" ry="2.5"/>
		<ellipse fill="#2B3332" cx="19" cy="21.5" rx="1" ry="1.5"/>
		<circle fill="#FFFFFF" cx="13" cy="21" r="0.5"/>
		<circle fill="#F7F7F7" cx="19" cy="21" r="0.5"/>
		<path fill="#FFC550" d="M16,5C7.163,5,2,10.029,2,15c0,4.282,10.391,4.155,13.269,7.234c0.203,0.218,0.467,0.326,0.731,0.326V5z"
			/>
		<path fill="#F7BC48" d="M16.731,22.234C19.609,19.155,30,19.282,30,15c0-4.971-5.163-10-14-10v17.561
			C16.264,22.561,16.528,22.452,16.731,22.234z"/>
		<path fill="#56C7CD" d="M16,5C7.163,5,2,10.029,2,15c0,4.282,10.391,4.155,13.269,7.234c0.203,0.218,0.467,0.326,0.731,0.326V5z"
			/>
		<path fill="#51BAC5" d="M16.731,22.234C19.609,19.155,30,19.282,30,15c0-4.971-5.163-10-14-10v17.561
			C16.264,22.561,16.528,22.452,16.731,22.234z"/>
		<path fill="#66D3D3" d="M2.58,16.573c2.218,2.735,10.218,3.018,12.689,5.662c0.203,0.218,0.467,0.326,0.731,0.326V9.439
			C8.881,9.439,4.151,12.705,2.58,16.573z"/>
		<path fill="#56C7CD" d="M29.42,16.573C27.849,12.705,23.119,9.439,16,9.439v13.122c0.264,0,0.528-0.109,0.731-0.326
			C19.202,19.591,27.203,19.308,29.42,16.573z"/>
		<path fill="#7CD8D5" d="M4.68,18.038c3.282,1.499,8.646,2.118,10.589,4.197c0.203,0.218,0.467,0.326,0.731,0.326V14
			C10.91,14,7.048,15.673,4.68,18.038z"/>
		<path fill="#66D3D3" d="M27.32,18.038C24.952,15.673,21.09,14,16,14v8.561c0.264,0,0.528-0.109,0.731-0.326
			C18.674,20.156,24.037,19.537,27.32,18.038z"/>
		<path fill="#4295AC" d="M16,20V5c-0.692,0-1.353,0.041-1.999,0.1C14.008,13.338,14.9,20,16,20z"/>
		<path fill="#3B8FA3" d="M17.999,5.1C17.353,5.041,16.692,5,16,5v15C17.1,20,17.992,13.338,17.999,5.1z"/>
		<path fill="#348B99" d="M25.204,10.122c0.395-0.683,0.763-1.349,1.105-1.989c-0.488-0.382-1.032-0.73-1.61-1.056
			c-0.401,0.643-0.813,1.327-1.227,2.044c-2.347,4.065-3.862,7.585-3.384,7.861S22.857,14.187,25.204,10.122z"/>
		<path fill="#3B8FA3" d="M6.796,10.122c2.347,4.065,4.638,7.137,5.116,6.861s-1.037-3.796-3.384-7.861
			C8.114,8.404,7.702,7.72,7.301,7.077c-0.577,0.325-1.122,0.674-1.61,1.056C6.033,8.773,6.401,9.438,6.796,10.122z"/>
		<path fill="#377360" d="M12.862,8.189c0,0.604-0.761,1.117-1.827,1.322c0.285,0.82,0.188,1.652-0.342,2.183
			c-0.531,0.531-1.363,0.627-2.184,0.342c-0.205,1.065-0.718,1.826-1.322,1.826c-0.364,0-0.693-0.282-0.944-0.733
			c-0.021,0.022-0.037,0.045-0.059,0.067c-0.83,0.83-1.951,1.054-2.505,0.501c-0.263-0.263-0.345-0.655-0.275-1.083
			c-1.013,0.246-1.755,0.227-1.884-0.11c-0.092-0.24,0.153-0.602,0.612-1.001c-1.29-0.315-2.159-0.969-2.131-1.766
			c0.027-0.793,0.935-1.505,2.24-1.911C1.815,7.463,1.599,7.122,1.706,6.877c0.11-0.251,0.539-0.353,1.14-0.327
			C2.208,5.389,2.094,4.266,2.681,3.68c0.566-0.566,1.631-0.481,2.748,0.098c-0.015-0.527,0.08-0.903,0.31-1.009
			c0.262-0.121,0.641,0.123,1.048,0.608C7.184,1.998,7.92,1.029,8.74,1.001c0.793-0.027,1.445,0.833,1.762,2.113
			c0.394-0.451,0.75-0.691,0.988-0.6c0.339,0.129,0.358,0.877,0.111,1.897c0.432-0.073,0.829,0.009,1.094,0.274
			c0.553,0.553,0.329,1.674-0.501,2.504c-0.021,0.021-0.045,0.038-0.067,0.058C12.58,7.496,12.862,7.825,12.862,8.189z"/>
		<path fill="#246C57" d="M19.871,7.246c-0.022-0.021-0.045-0.037-0.067-0.058c-0.83-0.83-1.054-1.951-0.501-2.504
			c0.265-0.265,0.662-0.347,1.094-0.274c-0.247-1.02-0.228-1.767,0.111-1.897c0.238-0.091,0.594,0.15,0.988,0.6
			c0.317-1.279,0.969-2.14,1.762-2.113c0.821,0.028,1.557,0.998,1.953,2.376c0.406-0.485,0.786-0.729,1.048-0.608
			c0.23,0.106,0.326,0.482,0.31,1.009c1.117-0.579,2.182-0.664,2.748-0.098c0.587,0.587,0.473,1.709-0.166,2.87
			c0.602-0.025,1.03,0.076,1.14,0.327c0.107,0.245-0.109,0.585-0.534,0.949c1.305,0.405,2.212,1.118,2.24,1.911
			c0.027,0.796-0.841,1.451-2.131,1.766c0.459,0.4,0.704,0.761,0.612,1.001c-0.13,0.337-0.872,0.356-1.884,0.11
			c0.07,0.427-0.012,0.82-0.275,1.083c-0.553,0.553-1.675,0.329-2.505-0.501c-0.021-0.021-0.038-0.045-0.059-0.067
			c-0.251,0.451-0.579,0.733-0.944,0.733c-0.605,0-1.118-0.761-1.322-1.826c-0.821,0.285-1.653,0.188-2.184-0.342
			c-0.531-0.531-0.627-1.363-0.342-2.183c-1.066-0.205-1.826-0.717-1.827-1.322C19.138,7.825,19.42,7.496,19.871,7.246z"/>
	</g>
</g>
</svg>
