<?xml version="1.0" encoding="utf-8"?>
<!-- Generator: Adobe Illustrator 23.0.6, SVG Export Plug-In . SVG Version: 6.00 Build 0)  -->
<svg version="1.1" xmlns="http://www.w3.org/2000/svg" xmlns:xlink="http://www.w3.org/1999/xlink" x="0px" y="0px" width="32px"
	 height="32px" viewBox="0 0 32 32" enable-background="new 0 0 32 32" xml:space="preserve">
<g id="labels">
</g>
<g id="icons">
	<g>
		<path fill="#869642" d="M16,21H6l-3.816-1.992C2.073,19.654,2,20.314,2,21c0,1.01,0.206,1.902,0.566,2.699l-0.016-0.001
			C2.182,26.396,2.017,29.406,2,30.498C1.996,30.777,2.221,31,2.5,31h6.896c0.312,0,0.548-0.283,0.492-0.589l-0.377-2.073
			C11.476,28.794,13.693,29,16,29V21z"/>
		<path fill="#8DA04A" d="M16,21H6l-1.945-1.015C4.02,20.318,4,20.656,4,21c0,4.71,5.72,7,12,7V21z"/>
		<path fill="#828E3D" d="M29.434,23.699C29.794,22.902,30,22.01,30,21c0-0.686-0.073-1.346-0.184-1.992L26,21H16v8
			c2.307,0,4.524-0.206,6.489-0.662l-0.377,2.073C22.056,30.717,22.292,31,22.604,31H29.5c0.279,0,0.504-0.223,0.5-0.502
			c-0.017-1.092-0.182-4.102-0.551-6.799L29.434,23.699z"/>
		<path fill="#869642" d="M26,21H16v7c6.28,0,12-2.29,12-7c0-0.344-0.02-0.682-0.055-1.015L26,21z"/>
		<path fill="#C8CCCB" d="M10.5,10.696l0.366-6.097c0.012-0.192,0.261-0.259,0.367-0.098l3.366,5.097l-1.866,1.232L10.5,10.696z"/>
		<path fill="#90A74E" d="M16,27v-6l-7-2v-1l-6.831,1c-1.73,2.649-2.132,10.442-2.164,12.498C0.001,31.777,0.226,32,0.505,32h6.896
			c0.312,0,0.548-0.283,0.492-0.589l-1.656-9.107C7.276,25.125,11.601,27,16,27z"/>
		<path fill="#F7F7F7" d="M6,30.667c-0.191,0-0.489,0.259-0.711,0.583C4.969,30.603,4.358,30,4,30s-0.969,0.603-1.289,1.249
			C2.489,30.926,2.191,30.667,2,30.667c-0.333,0-1,0.781-1,1.333h6C7,31.448,6.333,30.667,6,30.667z"/>
		<path fill="#8DA04A" d="M29.831,19L23,18v1l-7,2v6c4.399,0,8.724-1.875,9.763-4.696l-1.656,9.106
			C24.051,31.717,24.287,32,24.599,32h6.896c0.279,0,0.504-0.223,0.5-0.502C31.964,29.442,31.561,21.649,29.831,19z"/>
		<path fill="#EDEEEE" d="M30,30.667c-0.191,0-0.489,0.259-0.711,0.583C28.969,30.603,28.358,30,28,30s-0.969,0.603-1.289,1.249
			c-0.222-0.323-0.52-0.583-0.711-0.583c-0.333,0-1,0.781-1,1.333h6C31,31.448,30.333,30.667,30,30.667z"/>
		<path fill="#379B6D" d="M16,15c-4.418,0-8,2.213-8,6c0,2,3.582,5,8,5V15z"/>
		<path fill="#349363" d="M24,21c0-3.787-3.582-6-8-6v11C20.418,26,24,23,24,21z"/>
		<path fill="#3AA176" d="M16,18c-4,0-4,2.102-4,3h4V18z"/>
		<path fill="#379B6D" d="M20,21c0-0.898,0-3-4-3v3H20z"/>
		<path fill="#97AC59" d="M16,21l7-2l-0.5,2l-0.845,1.69c-0.076,0.153-0.28,0.186-0.4,0.065L21,22.5l-0.823,0.823
			c-0.098,0.098-0.256,0.098-0.354,0L19.5,23l-0.842,0.842c-0.09,0.09-0.233,0.098-0.333,0.018L16,22V21z"/>
		<path fill="#9EB164" d="M16,21l-7-2l0.5,2l0.845,1.69c0.076,0.153,0.28,0.186,0.4,0.065L11,22.5l0.823,0.823
			c0.098,0.098,0.256,0.098,0.354,0L12.5,23l0.842,0.842c0.09,0.09,0.233,0.098,0.333,0.018L16,22V21z"/>
		<path fill="#373F3F" d="M12,22c-1.105,0-2-0.895-2-2c0-0.24,0.048-0.466,0.126-0.678l3.82,1.091C13.756,21.318,12.962,22,12,22z"
			/>
		<path fill="#FFFFFF" d="M12,21.5c-0.828,0-1.5-0.672-1.5-1.5c0-0.192,0.044-0.372,0.111-0.54l2.861,0.817
			C13.341,20.973,12.733,21.5,12,21.5z"/>
		<path fill="#D64F45" d="M12,21c-0.552,0-1-0.448-1-1c0-0.145,0.04-0.277,0.095-0.401l1.877,0.536C12.904,20.62,12.504,21,12,21z"
			/>
		<path fill="#DADDDC" d="M9,19l-5.301,1.767c-0.227,0.076-0.228,0.396-0.003,0.473l5.287,1.826L9.5,21L9,19z"/>
		<path fill="#2B3332" d="M20,22c1.105,0,2-0.895,2-2c0-0.24-0.048-0.466-0.126-0.678l-3.82,1.091C18.244,21.318,19.038,22,20,22z"
			/>
		<path fill="#F7F7F7" d="M20,21.5c0.828,0,1.5-0.672,1.5-1.5c0-0.192-0.044-0.372-0.111-0.54l-2.861,0.817
			C18.659,20.973,19.267,21.5,20,21.5z"/>
		<path fill="#D1473D" d="M20,21c0.552,0,1-0.448,1-1c0-0.145-0.04-0.277-0.095-0.401l-1.877,0.536C19.096,20.62,19.496,21,20,21z"
			/>
		<path fill="#D1D4D4" d="M23,19l5.301,1.767c0.227,0.076,0.228,0.396,0.003,0.473l-5.287,1.826L22.5,21L23,19z"/>
		<path fill="#D1D4D4" d="M3.696,21.24l5.287,1.826L9.5,21H3.529C3.527,21.1,3.582,21.201,3.696,21.24z"/>
		<path fill="#C8CCCB" d="M28.304,21.24c0.114-0.039,0.169-0.14,0.168-0.24H22.5l0.517,2.066L28.304,21.24z"/>
		<path fill="#373F3F" d="M16,19.125c-0.106,0-0.211,0.033-0.3,0.1l-1.287,0.966c-0.226,0.169-0.267,0.492-0.09,0.712l1.287,1.609
			c0.1,0.125,0.245,0.188,0.39,0.188V19.125z"/>
		<path fill="#2B3332" d="M16.39,22.512l1.287-1.609c0.176-0.22,0.135-0.543-0.09-0.712L16.3,19.225c-0.089-0.067-0.194-0.1-0.3-0.1
			V22.7C16.145,22.7,16.29,22.637,16.39,22.512z"/>
		<path fill="#349363" d="M16,9C9.302,9,4.13,12.446,2.527,17.56C4.812,16.971,9.551,16,16,16V9z"/>
		<path fill="#338C5D" d="M29.473,17.56C27.87,12.446,22.698,9,16,9v7C22.449,16,27.188,16.971,29.473,17.56z"/>
		<path fill="#D1D4D4" d="M16,9h-1.661c-0.204,0-0.388,0.124-0.464,0.314l-0.729,1.821c-0.094,0.234-0.095,0.495-0.005,0.73
			l0.585,1.52c0.123,0.319-0.111,0.661-0.453,0.676c-5.879,0.254-9.98,1.266-11.556,1.718C1.287,15.903,1,16.293,1,16.739v2.611
			c0,0.326,0.301,0.566,0.617,0.486C3.493,19.358,9.407,18,16,18V9z"/>
		<path fill="#C8CCCB" d="M18.854,11.136l-0.729-1.821C18.05,9.124,17.866,9,17.661,9H16v9c6.593,0,12.507,1.358,14.383,1.836
			C30.699,19.917,31,19.676,31,19.35v-2.611c0-0.446-0.287-0.837-0.717-0.96c-1.576-0.452-5.678-1.463-11.556-1.718
			c-0.342-0.015-0.575-0.357-0.453-0.676l0.585-1.52C18.95,11.631,18.948,11.37,18.854,11.136z"/>
		<path fill="#D1D4D4" d="M6.294,13.589L3.268,7.537C3.182,7.365,3.365,7.182,3.537,7.268l6.052,3.026
			c0.233,0.116,0.337,0.391,0.241,0.633l-0.67,1.675c-0.102,0.254-0.303,0.455-0.557,0.557l-1.675,0.67
			C6.686,13.926,6.411,13.821,6.294,13.589z"/>
		<path fill="#246C57" d="M18.585,4.946c-0.633-0.123-1.049-0.325-1.091-0.594c-0.06-0.378,0.611-0.788,1.67-1.099
			c-0.29-0.355-0.423-0.758-0.321-1.139c0.215-0.8,1.362-1.188,2.562-0.867c0.031,0.008,0.059,0.021,0.089,0.03
			c-0.009-0.547,0.143-0.979,0.477-1.172c0.555-0.32,1.428,0.106,2.18,0.975c0.602-0.696,1.416-1.048,2.184-0.842
			c0.768,0.206,1.297,0.918,1.47,1.821c1.086-0.377,2.055-0.309,2.375,0.245c0.193,0.334,0.108,0.784-0.173,1.253
			c0.031,0.007,0.061,0.01,0.092,0.018c1.2,0.321,2,1.231,1.785,2.031c-0.103,0.384-0.424,0.669-0.859,0.831
			c0.766,0.804,1.145,1.5,0.902,1.798c-0.17,0.209-0.624,0.177-1.224-0.027c0.387,1.341,0.244,2.475-0.497,2.87
			c-0.768,0.409-1.956-0.091-3.049-1.145c-0.116,0.66-0.335,1.085-0.639,1.113c-0.267,0.024-0.554-0.27-0.819-0.761
			c-0.718,1.123-1.65,1.764-2.469,1.545c-0.849-0.227-1.339-1.317-1.368-2.72c-0.538,0.342-0.985,0.476-1.219,0.303
			c-0.228-0.168-0.21-0.595-0.013-1.153c-1.411,0.319-2.621,0.146-3.065-0.567C17.118,6.978,17.569,5.918,18.585,4.946z"/>
		<path fill="#377360" d="M22.149,6.195c0,0,0.676,0.992,2.212,1.403s2.617-0.109,2.617-0.109c0.694,2.354,3.22,3.589,3.22,3.589
			L30.2,11.08c0.002-0.001,0.004-0.001,0.005-0.002c0.742-0.395,0.884-1.529,0.497-2.87c0.6,0.205,1.054,0.237,1.224,0.027
			c0.243-0.298-0.136-0.994-0.902-1.798c0.435-0.161,0.756-0.447,0.859-0.831c0.215-0.8-0.585-1.709-1.785-2.031
			c-0.031-0.008-0.061-0.011-0.092-0.018c0.281-0.469,0.366-0.92,0.173-1.253c-0.32-0.554-1.289-0.622-2.375-0.245
			c-0.173-0.903-0.702-1.615-1.47-1.821c-0.768-0.206-1.582,0.147-2.184,0.842c-0.752-0.869-1.625-1.294-2.18-0.975
			c-0.334,0.193-0.486,0.625-0.477,1.172c-0.031-0.009-0.058-0.022-0.089-0.03c-1.2-0.321-2.347,0.067-2.562,0.867
			c-0.102,0.38,0.031,0.784,0.321,1.138c-1.059,0.311-1.729,0.721-1.67,1.099c0.042,0.269,0.458,0.471,1.091,0.594
			c-1.016,0.972-1.467,2.032-1.02,2.748C17.565,7.694,20.37,7.887,22.149,6.195z"/>
		<path fill="#869642" d="M25.598,9.558l1.091-1.965c-0.238,0.073-0.614,0.151-1.094,0.158l-1.121,1.084
			c-0.271,0.262-0.724,0.141-0.828-0.222l-0.429-1.499c-0.413-0.246-0.699-0.502-0.869-0.684L22.31,8.677
			c-0.009,0.549-0.131,1.09-0.359,1.589l-0.762,1.675c-0.091,0.2-0.041,0.435,0.123,0.581l1.023,0.907
			c0.235,0.209,0.556,0.295,0.864,0.231l1.339-0.274c0.215-0.044,0.376-0.223,0.397-0.442l0.178-1.832
			C25.166,10.567,25.331,10.038,25.598,9.558z"/>
	</g>
</g>
</svg>
