<?xml version="1.0" encoding="utf-8"?>
<!-- Generator: Adobe Illustrator 23.0.6, SVG Export Plug-In . SVG Version: 6.00 Build 0)  -->
<svg version="1.1" xmlns="http://www.w3.org/2000/svg" xmlns:xlink="http://www.w3.org/1999/xlink" x="0px" y="0px" width="32px"
	 height="32px" viewBox="0 0 32 32" enable-background="new 0 0 32 32" xml:space="preserve">
<g id="labels">
</g>
<g id="icons">
	<g>
		<path fill="#FF9933" d="M16,21.489l-6.975-2.481c-0.417-0.148-0.806,0.277-0.622,0.679l1.065,2.323
			c0.108,0.236,0.017,0.516-0.209,0.644l-2.485,1.399c-0.34,0.191-0.34,0.68,0,0.872l2.485,1.399
			c0.227,0.127,0.318,0.407,0.209,0.644l-1.065,2.323c-0.184,0.402,0.206,0.828,0.622,0.679L16,27.489V21.489z"/>
		<path fill="#FF8F00" d="M22.975,29.97c0.417,0.148,0.806-0.277,0.622-0.679l-1.065-2.323c-0.108-0.236-0.017-0.516,0.209-0.644
			l2.485-1.399c0.34-0.191,0.34-0.68,0-0.872l-2.485-1.399c-0.227-0.127-0.318-0.407-0.209-0.644l1.065-2.323
			c0.184-0.402-0.206-0.828-0.622-0.679L16,21.489v6L22.975,29.97z"/>
		<path fill="#FFDA40" d="M16,22.55l-5.637-2.005c-0.208-0.074-0.403,0.139-0.311,0.34l0.325,0.71
			c0.325,0.709,0.052,1.549-0.628,1.932l-1.323,0.745c-0.17,0.096-0.17,0.34,0,0.436l1.323,0.745
			c0.675,0.379,0.951,1.229,0.628,1.932l-0.325,0.709c-0.092,0.201,0.103,0.414,0.311,0.34L16,26.427V22.55z"/>
		<path fill="#FFD400" d="M21.637,28.432c0.208,0.074,0.403-0.139,0.311-0.34l-0.325-0.708c-0.323-0.704-0.047-1.553,0.628-1.933
			l1.323-0.745c0.17-0.096,0.17-0.34,0-0.436l-1.323-0.745c-0.674-0.379-0.95-1.228-0.628-1.932l0.325-0.709
			c0.092-0.201-0.103-0.414-0.311-0.34L16,22.55v3.877L21.637,28.432z"/>
		<path fill="#F7D684" d="M27.5,12c0,2.209-2.619,4-4,4s-1-1.791-1-4s1.119-4,2.5-4S27.5,9.791,27.5,12z"/>
		<path fill="#FAE09F" d="M4.452,12c0,2.209,2.619,4,4,4s1-1.791,1-4s-1.119-4-2.5-4S4.452,9.791,4.452,12z"/>
		<path fill="#89283B" d="M24.151,14.835c-0.323,0.136-0.686-0.092-0.695-0.442C23.446,14.031,23.5,12.428,23.5,12
			c0-1.717,0.792-3,1.5-3s1.5,1.283,1.5,3C26.5,13.299,25.128,14.426,24.151,14.835z"/>
		<path fill="#912B41" d="M8.496,14.393c-0.009,0.35-0.372,0.577-0.695,0.442C6.824,14.426,5.452,13.299,5.452,12
			c0-1.689,0.806-3,1.5-3c0.708,0,1.5,1.283,1.5,3C8.452,12.428,8.505,14.031,8.496,14.393z"/>
		<path fill="#FF5F7E" d="M14.295,19.645L15,20.353c-0.087,0.088-2.206,2.146-7.354,2.146v-1
			C12.341,21.5,14.276,19.663,14.295,19.645z"/>
		<path fill="#F3586F" d="M17.705,19.645c0.019,0.019,1.954,1.855,6.648,1.855v1c-5.148,0-7.266-2.059-7.354-2.146L17.705,19.645z"
			/>
		<path fill="#FF6B8B" d="M16,19h-1c0,0-3,3-3,7c0,2.209,1.791,3,4,3V19z"/>
		<path fill="#FF5F7E" d="M16,19v10c2.209,0,4-0.791,4-3c0-4-3-7-3-7H16z"/>
		<path fill="#FF7898" d="M16,0c0,2-2,2-2,4c0,0.036,0.011,0.06,0.012,0.095C10.558,4.449,8,6.011,8,11.5c0,4.142,3.582,7.5,8,7.5V0
			z"/>
		<path fill="#FF6B8B" d="M24,11.5c0-4.648-2.561-6.79-6.02-7.344C17.983,4.1,18,4.059,18,4c0-2-2-4-2-4v19
			C20.418,19,24,15.642,24,11.5z"/>
		<path fill="#FDEBBB" d="M14.5,6L14,8l-1-2c-2,0-5,1.358-5,5.5c0,0.744,0.12,1.461,0.335,2.14C8.12,13.931,8,14.27,8,14.667
			C8,16.876,11.582,20,16,20V8L14.5,6z"/>
		<path fill="#FAE09F" d="M24,11.5C24,7.358,21,6,19,6l-1,2l-0.5-2L16,8v12c4.418,0,8-3.124,8-5.333c0-0.397-0.12-0.735-0.335-1.027
			C23.88,12.961,24,12.244,24,11.5z"/>
		<path fill="#9A3644" d="M16,16c-1.322,0-2.495-0.358-3.223-0.646c-0.364-0.144-0.762,0.17-0.674,0.551
			C12.513,17.678,14.102,19,16,19V16z"/>
		<path fill="#8A323F" d="M19.223,15.354C18.495,15.642,17.322,16,16,16v3c1.898,0,3.487-1.322,3.897-3.095
			C19.985,15.524,19.587,15.21,19.223,15.354z"/>
		<path fill="#D84459" d="M23,11.5c0,1.933-1.119,2.5-2.5,2.5S18,13.433,18,11.5S19.119,8,20.5,8S23,9.567,23,11.5z"/>
		<path fill="#F7F7F7" d="M22.993,11.399C22.643,10.009,21.666,9,20.5,9s-2.143,1.009-2.493,2.399C18.007,11.433,18,11.465,18,11.5
			c0,1.933,1.119,2.5,2.5,2.5s2.5-0.567,2.5-2.5C23,11.465,22.993,11.433,22.993,11.399z"/>
		<ellipse fill="#724D31" cx="20.5" cy="11.75" rx="1.5" ry="2.188"/>
		<ellipse fill="#2B3332" cx="20.5" cy="11.75" rx="1" ry="1.75"/>
		<circle fill="#F7F7F7" cx="20" cy="11" r="0.5"/>
		<path fill="#E85160" d="M14,11.5c0,1.933-1.119,2.5-2.5,2.5S9,13.433,9,11.5S10.119,8,11.5,8S14,9.567,14,11.5z"/>
		<path fill="#FFFFFF" d="M13.993,11.399C13.643,10.009,12.666,9,11.5,9s-2.143,1.009-2.493,2.399C9.007,11.433,9,11.465,9,11.5
			c0,1.933,1.119,2.5,2.5,2.5s2.5-0.567,2.5-2.5C14,11.465,13.993,11.433,13.993,11.399z"/>
		<ellipse fill="#845331" cx="11.5" cy="11.75" rx="1.5" ry="2.188"/>
		<ellipse fill="#373F3F" cx="11.5" cy="11.75" rx="1" ry="1.75"/>
		<circle fill="#FFFFFF" cx="11" cy="11" r="0.5"/>
		<path fill="#FAE09F" d="M23.5,22c0,0.828,0.672,1.5,1.5,1.5c0.085,0,0.023,0.001,0.5,0.001c1.105,0,2.5,0.052,2.5-0.5
			c0-0.434-0.556-0.494-1.328-0.5c0.772-0.006,1.328-0.066,1.328-0.5c0-0.434-0.556-0.494-1.328-0.5
			c0.772-0.006,1.328-0.066,1.328-0.5c0-0.517-1.287-0.504-2.293-0.501c0.593-0.595,1.002-1.062,0.678-1.386
			c-0.391-0.391-0.987,0.28-1.768,1.061C24.342,20.451,23.5,20.5,23.5,22z"/>
		<path fill="#F7D684" d="M8.5,22c0,0.828-0.672,1.5-1.5,1.5c-0.085,0-0.023,0.001-0.5,0.001c-1.105,0-2.5,0.052-2.5-0.5
			c0-0.434,0.556-0.494,1.328-0.5C4.556,22.495,4,22.435,4,22.001c0-0.434,0.556-0.494,1.328-0.5C4.556,21.495,4,21.435,4,21.001
			c0-0.517,1.287-0.504,2.293-0.501c-0.593-0.595-1.002-1.062-0.678-1.386c0.391-0.391,0.987,0.28,1.768,1.061
			C7.658,20.451,8.5,20.5,8.5,22z"/>
		<path fill="#E7685F" d="M16,17c-1.119,0-2.083,0.413-2.599,1.018C14.102,18.622,15.003,19,16,19V17z"/>
		<path fill="#E55D53" d="M18.599,18.018C18.083,17.413,17.119,17,16,17v2C16.997,19,17.898,18.622,18.599,18.018z"/>
		<path fill="#F7D684" d="M16,27v2c1.117,0,2.124-0.204,2.85-0.69c0.088-0.239,0.15-0.5,0.15-0.81c0-0.368-0.043-0.72-0.102-1.063
			C18.079,26.788,17.083,27,16,27z"/>
		<path fill="#FAE09F" d="M17.302,22.903c-0.31-0.409-0.787-0.653-1.301-0.653H16V27c1.083,0,2.079-0.212,2.898-0.563
			C18.629,24.888,17.848,23.622,17.302,22.903z"/>
		<path fill="#FDEBBB" d="M15.999,22.25c-0.509,0-0.984,0.236-1.292,0.641c-0.546,0.717-1.343,1.984-1.613,3.542
			C13.914,26.786,14.913,27,16,27L15.999,22.25L15.999,22.25z"/>
		<path fill="#FAE09F" d="M13.013,27.109c-0.03,0.466,0.087,0.906,0.3,1.292C14.024,28.816,14.961,29,16,29v-2
			c-1.087,0-2.086-0.214-2.906-0.567C13.055,26.653,13.028,26.878,13.013,27.109z"/>
		<path fill="#FF7898" d="M13.998,28.5c0,1.381,0.078,2.5-0.75,2.5S11,29.881,11,28.5s0.671-2.5,1.499-2.5
			C13.327,26,13.998,27.119,13.998,28.5z"/>
		<path fill="#FF6B8B" d="M18.002,28.5c0,1.381-0.078,2.5,0.75,2.5S21,29.881,21,28.5S20.329,26,19.501,26
			S18.002,27.119,18.002,28.5z"/>
		<g>
			<circle fill="#FAE09F" cx="14" cy="31" r="1"/>
			<circle fill="#FAE09F" cx="11" cy="31" r="1"/>
			<circle fill="#FDEBBB" cx="12.5" cy="31" r="1"/>
		</g>
		<g>
			<circle fill="#F7D684" cx="21" cy="31" r="1"/>
			<circle fill="#F7D684" cx="18" cy="31" r="1"/>
			<circle fill="#FAE09F" cx="19.5" cy="31" r="1"/>
		</g>
	</g>
</g>
</svg>
