<?xml version="1.0" encoding="utf-8"?>
<!-- Generator: Adobe Illustrator 23.0.6, SVG Export Plug-In . SVG Version: 6.00 Build 0)  -->
<svg version="1.1" xmlns="http://www.w3.org/2000/svg" xmlns:xlink="http://www.w3.org/1999/xlink" x="0px" y="0px" width="32px"
	 height="32px" viewBox="0 0 32 32" enable-background="new 0 0 32 32" xml:space="preserve">
<g id="labels">
</g>
<g id="icons">
	<g>
		<path fill="#FF9933" d="M28.517,12.5h0.967l2.161-2.146c0.196-0.195,0.197-0.513,0.001-0.708l-0.427-0.427
			c-0.134-0.134-0.181-0.332-0.121-0.512l0.765-2.295c0.079-0.236-0.028-0.494-0.251-0.605l-1.427-0.713
			c-0.119-0.059-0.209-0.163-0.251-0.289l-0.46-1.38c-0.152-0.456-0.797-0.456-0.949,0l-0.46,1.38
			c-0.042,0.126-0.132,0.23-0.251,0.289l-1.427,0.713c-0.223,0.111-0.329,0.369-0.251,0.605l0.765,2.295
			c0.06,0.18,0.013,0.378-0.121,0.512l-0.427,0.427c-0.196,0.196-0.195,0.513,0.001,0.708L28.517,12.5z"/>
		<path fill="#FFDA40" d="M28.517,12.5h0.967l0.489-2.368c0.017-0.082-0.009-0.168-0.068-0.227l-0.268-0.268
			c-0.38-0.38-0.475-0.962-0.234-1.443l0.541-1.082c0.035-0.07,0.035-0.153,0-0.224l-0.72-1.441c-0.092-0.184-0.355-0.184-0.447,0
			l-0.72,1.441c-0.035,0.07-0.035,0.153,0,0.224l0.541,1.082c0.241,0.481,0.146,1.062-0.234,1.443l-0.268,0.268
			c-0.06,0.06-0.085,0.145-0.068,0.227L28.517,12.5z"/>
		<path fill="#F3586F" d="M16,27.483v-0.967c7.37,0,12.517-5.764,12.517-14.017h0.967C29.483,21.182,23.813,27.483,16,27.483z"/>
		<path fill="#FDEBBB" d="M9.5,28H9H5v2.5C5,30.776,5.224,31,5.5,31S6,30.776,6,30.5C6,30.776,6.224,31,6.5,31S7,30.776,7,30.5
			C7,30.776,7.224,31,7.5,31S8,30.776,8,30.5C8,30.776,8.224,31,8.5,31S9,30.776,9,30.5V29h0.5c0.276,0,0.5-0.224,0.5-0.5
			C10,28.224,9.776,28,9.5,28z"/>
		<path fill="#FF6B8B" d="M13,19c0,0-8,3-8,9v1h4v-1c0-5,5-8,5-8L13,19z"/>
		<path fill="#FAE09F" d="M22.5,28c-0.276,0-0.5,0.224-0.5,0.5c0,0.276,0.224,0.5,0.5,0.5H23v1.5c0,0.276,0.224,0.5,0.5,0.5
			s0.5-0.224,0.5-0.5c0,0.276,0.224,0.5,0.5,0.5s0.5-0.224,0.5-0.5c0,0.276,0.224,0.5,0.5,0.5s0.5-0.224,0.5-0.5
			c0,0.276,0.224,0.5,0.5,0.5s0.5-0.224,0.5-0.5V28H22.5z"/>
		<path fill="#FF5F7E" d="M19,19c0,0,8,3,8,9v1h-4v-1c0-5-5-8-5-8L19,19z"/>
		<path fill="#FF5F7E" d="M16,19h-1c0,0-3,3-3,7c0,2.209,1.791,3,4,3V19z"/>
		<path fill="#F3586F" d="M16,19v10c2.209,0,4-0.791,4-3c0-4-3-7-3-7H16z"/>
		<path fill="#F7D684" d="M16,27v2c1.117,0,2.124-0.204,2.85-0.69c0.088-0.239,0.15-0.5,0.15-0.81c0-0.368-0.043-0.72-0.102-1.063
			C18.079,26.788,17.083,27,16,27z"/>
		<path fill="#FAE09F" d="M17.302,22.903c-0.31-0.409-0.787-0.653-1.301-0.653H16V27c1.083,0,2.079-0.212,2.898-0.563
			C18.629,24.888,17.848,23.622,17.302,22.903z"/>
		<path fill="#FDEBBB" d="M15.999,22.25c-0.509,0-0.984,0.236-1.292,0.641c-0.546,0.717-1.343,1.984-1.613,3.542
			C13.914,26.786,14.913,27,16,27L15.999,22.25L15.999,22.25z"/>
		<path fill="#FAE09F" d="M13.013,27.109c-0.03,0.466,0.087,0.906,0.3,1.292C14.024,28.816,14.961,29,16,29v-2
			c-1.087,0-2.086-0.214-2.906-0.567C13.055,26.653,13.028,26.878,13.013,27.109z"/>
		<path fill="#FF6B8B" d="M13.998,28.5c0,1.381,0.078,2.5-0.75,2.5S11,29.881,11,28.5s0.671-2.5,1.499-2.5
			C13.327,26,13.998,27.119,13.998,28.5z"/>
		<path fill="#FF5F7E" d="M18.002,28.5c0,1.381-0.078,2.5,0.75,2.5S21,29.881,21,28.5S20.329,26,19.501,26
			S18.002,27.119,18.002,28.5z"/>
		<path fill="#F7F7F7" d="M16,15l-4.948-0.391l-2.1,0.957C8.57,15.74,8.56,16.28,8.936,16.468L10,17l-0.712,2.136
			c-0.125,0.374,0.213,0.739,0.596,0.643L13,19l2.646,2.646c0.098,0.098,0.226,0.146,0.354,0.146V15z"/>
		<path fill="#EDEEEE" d="M16.354,21.646L19,19l3.116,0.779c0.383,0.096,0.72-0.269,0.596-0.643L22,17l1.064-0.532
			c0.376-0.188,0.366-0.728-0.016-0.902l-2.1-0.957L16,15v6.793C16.128,21.793,16.256,21.744,16.354,21.646z"/>
		<path fill="#FF7898" d="M16,7.425c0-3.214-1.492-4.004-0.682-5.586c0.538-1.051,1.536-1.512,2.151-1.706
			c-0.053-0.057-0.125-0.099-0.215-0.088c-3.732,0.437-8.65,4.009-9.196,8.615C8.023,8.928,8,9.205,8,9.5c0,4.142,3.582,6.5,8,6.5
			C16,13.119,16,9.294,16,7.425z"/>
		<path fill="#FF6B8B" d="M23.937,8.634C23.304,3.357,17,4.006,17,2c0-0.749,0.245-1.247,0.493-1.558
			c0.081-0.103,0.053-0.226-0.023-0.309c-0.615,0.195-1.613,0.655-2.151,1.706C14.508,3.421,16,4.211,16,7.425
			c0,1.869,0,5.694,0,8.575c4.418,0,8-2.358,8-6.5C24,9.195,23.975,8.909,23.937,8.634z"/>
		<g>
			<circle fill="#FAE09F" cx="14" cy="31" r="1"/>
			<circle fill="#FAE09F" cx="11" cy="31" r="1"/>
			<circle fill="#FDEBBB" cx="12.5" cy="31" r="1"/>
		</g>
		<g>
			<circle fill="#F7D684" cx="21" cy="31" r="1"/>
			<circle fill="#F7D684" cx="18" cy="31" r="1"/>
			<circle fill="#FAE09F" cx="19.5" cy="31" r="1"/>
		</g>
		<ellipse fill="#F7F7F7" cx="19" cy="10.5" rx="2" ry="2.5"/>
		<ellipse fill="#2B3332" cx="19" cy="10.5" rx="1" ry="1.5"/>
		<path fill="#FF7898" d="M19,8c-0.967,0-2,0.657-2,2.5c0,0.059,0.01,0.106,0.012,0.163l3.825-1.275C20.511,8.387,19.738,8,19,8z"/>
		<ellipse fill="#FFFFFF" cx="13" cy="10.5" rx="2" ry="2.5"/>
		<ellipse fill="#373F3F" cx="13" cy="10.5" rx="1" ry="1.5"/>
		<path fill="#FF87A4" d="M13,8c0.967,0,2,0.657,2,2.5c0,0.059-0.01,0.106-0.012,0.163l-3.825-1.275C11.489,8.387,12.262,8,13,8z"/>
		<path fill="#FAE09F" d="M16,12c-2.761,0-5,0.791-5,3c0,2.209,2.239,3,5,3V12z"/>
		<path fill="#F7D684" d="M21,15c0-2.209-2.239-3-5-3v6C18.761,18,21,17.209,21,15z"/>
		<path fill="#FFFFFF" d="M12,15l0.776,1.553c0.092,0.184,0.355,0.184,0.447,0L14,15H12z"/>
		<path fill="#F7F7F7" d="M18,15l0.776,1.553c0.092,0.184,0.355,0.184,0.447,0L20,15H18z"/>
		<path fill="#FDEBBB" d="M16,12c-2.584,0-4.686,0.709-4.948,2.609C12.133,16.052,13.945,16,16,16V12z"/>
		<path fill="#FAE09F" d="M20.948,14.609C20.686,12.709,18.584,12,16,12v4C18.055,16,19.867,16.052,20.948,14.609z"/>
		<path fill="#D84459" d="M14.964,11c-0.052,0.433-0.164,0.791-0.328,1.071l0.002,0.003C14.993,12.341,15.578,12.5,16,12.5V11
			H14.964z"/>
		<path fill="#C84054" d="M17.036,11c0.052,0.433,0.164,0.791,0.328,1.071l-0.002,0.003C17.007,12.341,16.422,12.5,16,12.5V11
			H17.036z"/>
		<path fill="#7A63AD" d="M16,7.425C15.218,6.471,14.092,6,13,6c-1.927,0-4,1.408-4,4.5c0,1.439,1.324,1.717,2.449,1.695
			C11.178,11.801,11,11.255,11,10.5C11,8.657,12.033,8,13,8s2,0.657,2,2.5c0,0.181-0.017,0.341-0.036,0.5l0.342,0.33
			c0.194,0.187,0.444,0.28,0.694,0.28V7.425z"/>
		<path fill="#745DA6" d="M16.694,11.33L17.036,11C17.017,10.841,17,10.681,17,10.5C17,8.657,18.033,8,19,8s2,0.657,2,2.5
			c0,0.755-0.178,1.301-0.449,1.695C21.676,12.217,23,11.939,23,10.5C23,7.408,20.927,6,19,6c-1.092,0-2.218,0.471-3,1.425v4.185
			C16.25,11.61,16.501,11.517,16.694,11.33z"/>
		<path fill="#FDEBBB" d="M8.432,9.982c0.5,1.867,0.641,3.452-0.64,3.795s-2.611-0.47-3.111-2.337S4.049,7.533,5.208,7.223
			C6.367,6.912,7.932,8.115,8.432,9.982z"/>
		
			<ellipse transform="matrix(0.9659 -0.2588 0.2588 0.9659 -2.7123 2.2003)" fill="#E8BA67" cx="7" cy="11.401" rx="0.75" ry="1.5"/>
		<path fill="#FAE09F" d="M23.568,9.982c-0.5,1.867-0.641,3.452,0.64,3.795c1.28,0.343,2.611-0.47,3.111-2.337
			c0.5-1.867,0.633-3.907-0.526-4.217C25.633,6.912,24.068,8.115,23.568,9.982z"/>
		
			<ellipse transform="matrix(0.2588 -0.9659 0.9659 0.2588 7.5166 32.5982)" fill="#E2B060" cx="25" cy="11.401" rx="1.5" ry="0.75"/>
	</g>
</g>
</svg>
