<?xml version="1.0" encoding="utf-8"?>
<!-- Generator: Adobe Illustrator 23.0.6, SVG Export Plug-In . SVG Version: 6.00 Build 0)  -->
<svg version="1.1" xmlns="http://www.w3.org/2000/svg" xmlns:xlink="http://www.w3.org/1999/xlink" x="0px" y="0px" width="32px"
	 height="32px" viewBox="0 0 32 32" enable-background="new 0 0 32 32" xml:space="preserve">
<g id="labels">
</g>
<g id="icons">
	<g>
		<path fill="#FF4A00" d="M10,6.029L7.317,2.452c-0.131-0.175,0.01-0.418,0.228-0.4C9.348,2.202,11,3.029,11,3.029l-0.883-2.65
			c-0.056-0.167,0.079-0.349,0.255-0.33C12.308,0.253,13,2.029,13,2.029s2.645-1.823,5.58-1.988
			c0.188-0.011,0.317,0.195,0.232,0.363L18,2.029c0,0,3.609-1.824,6.584-1.988c0.188-0.01,0.313,0.195,0.229,0.363L24,2.029
			c0,0,3.603-1.243,5.707-0.171c0.152,0.077,0.183,0.281,0.063,0.402L29,3.029l2.553,1.276c0.184,0.092,0.184,0.355,0,0.447
			L29,6.029l0.785,0.785c0.115,0.115,0.093,0.308-0.046,0.392C27.026,8.839,22,6.029,22,6.029H10z"/>
		<path fill="#FFDA40" d="M29.739,7.206c0.139-0.084,0.161-0.277,0.046-0.392L29,6.029l2.553-1.276
			c0.087-0.044,0.13-0.126,0.134-0.21c0,0-2.497-0.664-4.87,0l0.153-1.291c0.016-0.138-0.081-0.27-0.219-0.284
			C24.727,2.771,22,4,22,4V2.258C22,2.117,21.883,2,21.741,2.003C19.312,2.067,17,3,17,3l-0.87-1.739
			c-0.069-0.137-0.251-0.193-0.372-0.098C14.217,2.378,14,6,14,6l0.064,0.029H22C22,6.029,27.026,8.839,29.739,7.206z"/>
		<path fill="#FF5F7E" d="M15.959,21c1.695-0.07,3.288-0.794,4.443-1.956c1.176-1.149,2.019-2.589,2.841-4.044
			c0.828-1.457,1.602-2.984,2.756-4.379c0.579-0.691,1.275-1.345,2.129-1.827c0.849-0.487,1.851-0.759,2.83-0.794l0.044-0.002
			c0.553-0.02,1.018,0.413,1.038,0.966c0.02,0.553-0.413,1.018-0.966,1.038c-0.039,0.001-0.078,0-0.116-0.003
			c-1.412-0.113-2.742,0.523-3.856,1.637c-1.12,1.101-2.042,2.514-3.014,3.896c-0.973,1.381-1.998,2.799-3.358,3.887
			C19.389,20.528,17.644,21.102,15.959,21z"/>
		<polygon fill="#D1D4D4" points="24.459,31 19.459,31 20.459,26 23.459,26 		"/>
		<circle fill="#58458C" cx="18.959" cy="31" r="1"/>
		<circle fill="#58458C" cx="24.959" cy="31" r="1"/>
		<circle fill="#604893" cx="20.209" cy="30.75" r="1.25"/>
		<circle fill="#604893" cx="23.709" cy="30.75" r="1.25"/>
		<polygon fill="#FF6B8B" points="15.959,21 11.959,21 8.959,25 10.959,27 15.959,24 		"/>
		<polygon fill="#FF5F7E" points="15.959,21 15.959,24 20.959,27 22.959,25 19.959,21 		"/>
		<path fill="#FF6B8B" d="M21.959,9c0,0,0,0,0-2s3-3,5-3S22.959,11,21.959,9z"/>
		<path fill="#58458C" d="M21.959,7.483c0-0.8,1.89-1.849,3.407-2.267c0.236-0.065,0.421,0.208,0.265,0.397
			c-0.966,1.175-2.9,2.972-3.672,3.387V7.483z"/>
		<polygon fill="#EDEEEE" points="15.959,12 12.959,12 11.959,14 12.959,20 15.959,21 		"/>
		<polygon fill="#E3E5E5" points="15.959,12 15.959,21 18.959,20 19.959,14 18.959,12 		"/>
		<path fill="#FF7898" d="M9.959,9c0,0,0,0,0-2s-3-3-5-3S8.959,11,9.959,9z"/>
		<path fill="#604893" d="M9.959,7.483c0-0.8-1.89-1.849-3.407-2.267C6.316,5.151,6.131,5.424,6.286,5.613
			C7.252,6.788,9.186,8.585,9.959,9V7.483z"/>
		<path fill="#FF7898" d="M10.959,13c0,0-4.557,1-6,10h3c0,0,1-6,4-8L10.959,13z"/>
		<polygon fill="#DADDDC" points="12.459,31 7.459,31 8.459,26 11.459,26 		"/>
		<circle fill="#675099" cx="21.959" cy="30.5" r="1.5"/>
		<circle fill="#FFD96C" cx="9.959" cy="26" r="2"/>
		<circle fill="#FFD04D" cx="21.959" cy="26" r="2"/>
		<ellipse fill="#FFD96C" cx="13.459" cy="16" rx="1.5" ry="2"/>
		<ellipse fill="#FFD04D" cx="18.459" cy="16" rx="1.5" ry="2"/>
		
			<ellipse transform="matrix(0.7071 -0.7071 0.7071 0.7071 -6.3008 12.3244)" fill="#FFE28A" cx="11.726" cy="13.768" rx="2" ry="1.5"/>
		<path fill="#604893" d="M5.959,23.131V23h-1v1.947c0,0.498,0.34,0.96,0.832,1.04C6.417,26.088,6.959,25.607,6.959,25
			c0-0.331-0.161-0.625-0.409-0.807C6.201,23.937,5.959,23.564,5.959,23.131z"/>
		<path fill="#675099" d="M6.959,23.131V23h-1v1.947c0,0.498,0.34,0.96,0.832,1.04C7.417,26.088,7.959,25.607,7.959,25
			c0-0.331-0.161-0.625-0.409-0.807C7.201,23.937,6.959,23.564,6.959,23.131z"/>
		<path fill="#6E57A0" d="M7.959,23.131V23h-1v1.947c0,0.498,0.34,0.96,0.832,1.04C8.417,26.088,8.959,25.607,8.959,25
			c0-0.331-0.161-0.625-0.409-0.807C8.201,23.937,7.959,23.564,7.959,23.131z"/>
		<path fill="#FFE28A" d="M6.959,22c0,1.105-0.672,2-1.5,2s-1.5-0.895-1.5-2c0-1.105,1-3,1-3S6.959,21,6.959,22z"/>
		<path fill="#FF6B8B" d="M20.959,13c0,0,4.557,1,6,10h-3c0,0-1-6-4-8L20.959,13z"/>
		<path fill="#58458C" d="M25.959,23.131V23h1l0,1.947c0,0.498-0.34,0.96-0.832,1.04C25.5,26.088,24.959,25.607,24.959,25
			c0-0.331,0.161-0.625,0.409-0.807C25.717,23.937,25.959,23.564,25.959,23.131z"/>
		<path fill="#604893" d="M24.959,23.131V23h1l0,1.947c0,0.498-0.34,0.96-0.832,1.04C24.5,26.088,23.959,25.607,23.959,25
			c0-0.331,0.161-0.625,0.409-0.807C24.717,23.937,24.959,23.564,24.959,23.131z"/>
		<path fill="#675099" d="M23.959,23.131V23h1l0,1.947c0,0.498-0.34,0.96-0.832,1.04C23.5,26.088,22.959,25.607,22.959,25
			c0-0.331,0.161-0.625,0.409-0.807C23.717,23.937,23.959,23.564,23.959,23.131z"/>
		<path fill="#FFD96C" d="M24.959,22c0,1.105,0.672,2,1.5,2c0.828,0,1.5-0.895,1.5-2c0-1.105-1-3-1-3S24.959,21,24.959,22z"/>
		
			<ellipse transform="matrix(0.7071 -0.7071 0.7071 0.7071 -3.8216 18.3095)" fill="#FFD96C" cx="20.191" cy="13.768" rx="1.5" ry="2"/>
		<path fill="#F7F7F7" d="M15.959,6.059c-0.569-0.871-1.407-1.896-2.599-2.777c-0.165-0.122-0.401-0.005-0.401,0.201l0,1.517
			c0,0-0.328-0.833-1.606-1.738c-0.165-0.117-0.394,0.003-0.394,0.205l0,2.533c0,0-0.725-0.992-2.176-1.286
			C8.538,4.664,8.38,4.965,8.559,5.139C9.148,5.71,9.959,6.727,9.959,8c0,0.605-0.514,1.885-0.805,2.561
			c-0.108,0.25,0.004,0.541,0.252,0.652c1.142,0.514,4.239,1.712,6.553,0.787V6.059z"/>
		<path fill="#EDEEEE" d="M23.135,4.715C21.684,5.009,20.959,6,20.959,6l0-2.533c0-0.202-0.23-0.322-0.394-0.205
			C19.287,4.167,18.959,5,18.959,5l0-1.517c0-0.206-0.236-0.323-0.401-0.201c-1.192,0.881-2.03,1.906-2.599,2.777V12
			c2.314,0.926,5.411-0.273,6.553-0.787c0.248-0.112,0.36-0.402,0.252-0.652C22.473,9.885,21.959,8.605,21.959,8
			c0-1.273,0.81-2.289,1.399-2.86C23.537,4.966,23.379,4.665,23.135,4.715z"/>
		<path fill="#FF7898" d="M15.959,8h-3v3c0,1.105,0.929,2,3,2V8z"/>
		<path fill="#FF6B8B" d="M15.959,13c2.071,0,3-0.895,3-2V8h-3V13z"/>
		<g>
			<path fill="#FFD96C" d="M19.959,8.894c0,0.828-0.672,1.5-1.5,1.5c-0.828,0-1.5-0.672-1.5-1.5c0-0.5,0.672-0.5,1.5-0.5
				C19.287,8.394,19.959,8.394,19.959,8.894z"/>
			<path fill="#604893" d="M19.459,8.894c0-0.16-0.021-0.311-0.052-0.456c-0.259-0.042-0.586-0.044-0.948-0.044
				s-0.689,0.003-0.948,0.044c-0.031,0.145-0.052,0.296-0.052,0.456c0,0.828,0.448,1.5,1,1.5S19.459,9.722,19.459,8.894z"/>
			<path fill="#2B3332" d="M18.034,8.398c-0.044,0.148-0.075,0.312-0.075,0.496c0,0.552,0.224,1,0.5,1s0.5-0.448,0.5-1
				c0-0.184-0.032-0.348-0.075-0.496c-0.135-0.003-0.276-0.004-0.425-0.004S18.169,8.395,18.034,8.398z"/>
		</g>
		<g>
			<path fill="#FFE28A" d="M14.959,8.894c0,0.828-0.672,1.5-1.5,1.5s-1.5-0.672-1.5-1.5c0-0.5,0.672-0.5,1.5-0.5
				S14.959,8.394,14.959,8.894z"/>
			<path fill="#675099" d="M14.459,8.894c0-0.16-0.021-0.311-0.052-0.456c-0.259-0.042-0.586-0.044-0.948-0.044
				s-0.689,0.003-0.948,0.044c-0.031,0.145-0.052,0.296-0.052,0.456c0,0.828,0.448,1.5,1,1.5S14.459,9.722,14.459,8.894z"/>
			<path fill="#373F3F" d="M13.034,8.398c-0.044,0.148-0.075,0.312-0.075,0.496c0,0.552,0.224,1,0.5,1s0.5-0.448,0.5-1
				c0-0.184-0.032-0.348-0.075-0.496c-0.135-0.003-0.276-0.004-0.425-0.004S13.169,8.395,13.034,8.398z"/>
		</g>
		<path fill="#FF6B8B" d="M15.959,11.75c-2.152,0-2.969-0.466-2.969-0.466C13.14,12.253,14.07,13,15.959,13V11.75z"/>
		<path fill="#FF5F7E" d="M18.928,11.284c0,0-0.817,0.466-2.969,0.466V13C17.847,13,18.777,12.253,18.928,11.284z"/>
		<path fill="#D84459" d="M15.959,7.05c-0.131,0-0.263-0.05-0.365-0.151c-1.502-1.48-4.635-1.232-4.635,1.495c0,2,2.5,2,2.5,2
			c-1.5,0-2-1.993,0.075-1.996c1.026,0,1.832,1.351,2.203,2.106c0.046,0.093,0.134,0.14,0.222,0.14V7.05z"/>
		<path fill="#C84054" d="M16.18,10.504c0.37-0.755,1.176-2.106,2.203-2.106c2.075,0.003,1.575,1.996,0.075,1.996c0,0,2.5,0,2.5-2
			c0-2.727-3.132-2.975-4.635-1.495C16.221,7,16.09,7.05,15.959,7.05v3.593C16.047,10.643,16.135,10.597,16.18,10.504z"/>
		<path fill="#F7F7F7" d="M15.959,21l-3-1l-3.344,0.836c-0.225,0.056-0.259,0.362-0.051,0.466l1.257,0.629
			c0.085,0.042,0.138,0.129,0.138,0.224v0.596c0,0.138,0.112,0.25,0.25,0.25h1.646c0.066,0,0.13,0.026,0.177,0.073l0.799,0.799
			c0.076,0.076,0.192,0.095,0.289,0.047l1.727-0.863c0.035-0.018,0.073,0,0.112,0V21z"/>
		<path fill="#EDEEEE" d="M16.07,23.056l1.727,0.863c0.096,0.048,0.213,0.029,0.289-0.047l0.799-0.799
			C18.932,23.026,18.996,23,19.062,23h1.646c0.138,0,0.25-0.112,0.25-0.25v-0.596c0-0.095,0.054-0.181,0.138-0.224l1.257-0.629
			c0.208-0.104,0.174-0.41-0.051-0.466L18.959,20l-3,1v2.056C15.997,23.056,16.035,23.038,16.07,23.056z"/>
		<circle fill="#604893" cx="6.959" cy="31" r="1"/>
		<circle fill="#604893" cx="12.959" cy="31" r="1"/>
		<circle fill="#675099" cx="8.209" cy="30.75" r="1.25"/>
		<circle fill="#675099" cx="11.709" cy="30.75" r="1.25"/>
		<circle fill="#6E57A0" cx="9.959" cy="30.5" r="1.5"/>
	</g>
</g>
</svg>
