<?xml version="1.0" encoding="utf-8"?>
<!-- Generator: Adobe Illustrator 23.0.6, SVG Export Plug-In . SVG Version: 6.00 Build 0)  -->
<svg version="1.1" xmlns="http://www.w3.org/2000/svg" xmlns:xlink="http://www.w3.org/1999/xlink" x="0px" y="0px" width="32px"
	 height="32px" viewBox="0 0 32 32" enable-background="new 0 0 32 32" xml:space="preserve">
<g id="labels">
</g>
<g id="icons">
	<g>
		<path fill="#A5D1D8" d="M11,17l-1.022,2.249c-0.402-0.643-0.907-1.29-1.52-1.903c-2.271-2.271-5.483-2.741-6.168-2.056
			c-0.685,0.685-0.215,3.897,2.056,6.168c1.158,1.158,2.441,1.959,3.573,2.321L7.51,24.677c-1.101,2.421,0.587,5.222,3.245,5.319
			C10.836,29.998,10.918,30,11,30c1.286,0,2.388-0.367,3.227-0.787c0.562-0.281,1.167-0.421,1.773-0.421V17H11z"/>
		<path fill="#0A6F8E" d="M28.739,23.029c1.189-1.435,1.61-3.002,0.918-3.694c-0.781-0.781-2.681-0.148-4.243,1.414
			c-0.131,0.131-0.245,0.266-0.363,0.401c-1.34-0.365-2.828-0.039-3.88,1.013c-1.562,1.562-1.562,4.095,0,5.657
			c1.562,1.562,4.095,1.562,5.657,0c0.259-0.259,0.459-0.552,0.633-0.856c0.178,0.012,0.354,0.027,0.539,0.027c2.209,0,4-0.895,4-2
			C32,24.013,30.594,23.202,28.739,23.029z"/>
		<path fill="#9FCCD3" d="M29.71,15.29c-0.685-0.685-3.897-0.215-6.168,2.056c-0.613,0.613-1.118,1.261-1.52,1.903L21,17h-5v11.792
			c0.605,0,1.211,0.14,1.773,0.421C18.612,29.633,19.714,30,21,30c0.082,0,0.164-0.002,0.245-0.004
			c2.658-0.096,4.345-2.897,3.245-5.319l-0.408-0.898c1.132-0.362,2.415-1.163,3.573-2.321C29.925,19.187,30.396,15.975,29.71,15.29
			z"/>
		<path fill="#9FCCD3" d="M16,26c-2.975,0-5.75-0.775-8.136-2.101L7.51,24.677c-1.101,2.421,0.587,5.222,3.245,5.319
			C10.836,29.998,10.918,30,11,30c1.286,0,2.388-0.367,3.227-0.787c0.562-0.281,1.167-0.421,1.773-0.421V26z"/>
		<path fill="#99C7CE" d="M17.773,29.213C18.612,29.633,19.714,30,21,30c0.082,0,0.164-0.002,0.245-0.004
			c2.658-0.096,4.345-2.897,3.245-5.319l-0.353-0.778C21.75,25.225,18.975,26,16,26v2.792
			C16.605,28.792,17.211,28.932,17.773,29.213z"/>
		<path fill="#468DAC" d="M16,0C9.458,0,5,3.816,5,9.5C5,15.184,9.458,19,16,19V0z"/>
		<path fill="#3A89A8" d="M16,16.38C15.267,15.541,14.202,15,13,15c-2.209,0-4,1.791-4,4c0,2.209,1.791,4,4,4
			c1.202,0,2.267-0.541,3-1.38V16.38z"/>
		<path fill="#3085A6" d="M19,15c-1.202,0-2.267,0.541-3,1.38v5.241c0.733,0.839,1.798,1.38,3,1.38c2.209,0,4-1.791,4-4
			C23,16.791,21.209,15,19,15z"/>
		<path fill="#3A89A8" d="M16,0c6.542,0,11,3.816,11,9.5c0,5.684-4.458,9.5-11,9.5V0z"/>
		<path fill="#9FCCD3" d="M18,13V9c0-0.582,0.119-1.131,0.301-1.651L17,8l-0.763-2.289C16.199,5.598,16.1,5.541,16,5.541v9.449
			C17.104,14.989,18,14.104,18,13z"/>
		<path fill="#A5D1D8" d="M16,5.541c-0.1,0-0.199,0.057-0.237,0.171L15,8l-1.301-0.651C13.881,7.869,14,8.418,14,9v3.893
			c0,0.996,0.681,1.92,1.664,2.08c0.114,0.019,0.225,0.017,0.336,0.017V5.541z"/>
		<path fill="#F7F7F7" d="M16,15c-1.105,0-2-0.895-2-2V9c0-2.761-2.239-5-5-5C7.956,4,6.988,4.322,6.187,4.869
			C5.421,6.202,5,7.762,5,9.5C5,15.184,9.458,19,16,19V15z"/>
		<path fill="#EDEEEE" d="M27,9.5c0-1.738-0.421-3.298-1.187-4.631C25.012,4.322,24.044,4,23,4c-2.761,0-5,2.239-5,5v4
			c0,1.105-0.895,2-2,2v4C22.542,19,27,15.184,27,9.5z"/>
		<ellipse fill="#FFFFFF" cx="11" cy="26" rx="1" ry="2"/>
		<ellipse fill="#F7F7F7" cx="21" cy="26" rx="1" ry="2"/>
		<path fill="#FFD04D" d="M12.946,32H7.054c-0.315,0-0.56-0.292-0.496-0.6c0.299-1.453,1.726-1.9,3.442-1.9s3.144,0.447,3.442,1.9
			C13.506,31.708,13.261,32,12.946,32z"/>
		<path fill="#F7C845" d="M24.946,32h-5.893c-0.315,0-0.56-0.292-0.496-0.6c0.299-1.453,1.726-1.9,3.442-1.9s3.144,0.447,3.442,1.9
			C25.506,31.708,25.261,32,24.946,32z"/>
		<path fill="#FFD96C" d="M11.723,32C11.894,31.705,12,31.366,12,31c0-1.105-0.895-2-2-2s-2,0.895-2,2c0,0.366,0.106,0.705,0.277,1
			H11.723z"/>
		<path fill="#FFD04D" d="M23.723,32C23.894,31.705,24,31.366,24,31c0-1.105-0.895-2-2-2s-2,0.895-2,2c0,0.366,0.106,0.705,0.277,1
			H23.723z"/>
		<ellipse fill="#515E91" cx="10.5" cy="9.5" rx="2.5" ry="3.5"/>
		<ellipse fill="#373F3F" cx="10.5" cy="9.5" rx="1.5" ry="2.5"/>
		<circle fill="#FFFFFF" cx="10" cy="8" r="1"/>
		<ellipse fill="#495587" cx="21.5" cy="9.5" rx="2.5" ry="3.5"/>
		<ellipse fill="#2B3332" cx="21.5" cy="9.5" rx="1.5" ry="2.5"/>
		<circle fill="#F7F7F7" cx="21" cy="8" r="1"/>
		<path fill="#FFD04D" d="M16,11c-1.289,0-2,1.119-2,2.5c0,1.381,0.711,2.5,2,2.5V11z"/>
		<path fill="#F7C845" d="M18,13.5c0-1.381-0.711-2.5-2-2.5v5C17.289,16,18,14.881,18,13.5z"/>
		<path fill="#FFD96C" d="M16,11c-1.254,0-1.956,1.063-1.993,2.393c0.512,0.344,1.248,0.732,1.993,0.732V11z"/>
		<path fill="#FFD04D" d="M17.993,13.393C17.956,12.063,17.254,11,16,11v3.125C16.745,14.125,17.481,13.737,17.993,13.393z"/>
	</g>
</g>
</svg>
