<?xml version="1.0" encoding="utf-8"?>
<!-- Generator: Adobe Illustrator 23.0.6, SVG Export Plug-In . SVG Version: 6.00 Build 0)  -->
<svg version="1.1" xmlns="http://www.w3.org/2000/svg" xmlns:xlink="http://www.w3.org/1999/xlink" x="0px" y="0px" width="32px"
	 height="32px" viewBox="0 0 32 32" enable-background="new 0 0 32 32" xml:space="preserve">
<g id="labels">
</g>
<g id="icons">
	<g>
		<path fill="#137FA0" d="M16,1C9.925,1,8,5.925,8,12c0,0.111,0.003,0.265,0.01,0.443c0.048,1.319-0.206,2.623-0.601,3.882
			C7.141,17.178,6.997,18.085,7,19.028c0.015,4.798,3.978,8.852,8.774,8.97c0.076,0.002,0.15-0.006,0.225-0.006V1z"/>
		<path fill="#0F769B" d="M25,19c0-0.929-0.143-1.824-0.406-2.666c-0.395-1.263-0.652-2.57-0.604-3.893
			C23.997,12.264,24,12.111,24,12c0-6.075-1.925-11-8-11v26.991C20.97,27.99,25,23.97,25,19z"/>
		<path fill="#9FCCD3" d="M16,21.88c-0.072,0-0.143-0.027-0.193-0.081C14.14,20,14.248,18.224,14.58,17.122
			c0.073-0.244-0.216-0.425-0.405-0.254c-2.974,2.691-5.5,3.627-6.904,3.954C7,24,11.086,30,11.086,30h2v-0.469
			c0-0.352,0.057-0.701,0.168-1.034l0,0c0.158-0.473,0.641-0.757,1.13-0.662c0.523,0.102,1.063,0.155,1.615,0.161V21.88z"/>
		<path fill="#99C7CE" d="M17.93,16.815c-0.183-0.171-0.474,0.004-0.408,0.246c0.297,1.098,0.374,2.906-1.328,4.739
			c-0.05,0.054-0.121,0.08-0.193,0.08v6.116c0.029,0,0.057,0.004,0.086,0.004c0.582,0,1.15-0.058,1.701-0.166
			c0.49-0.096,0.974,0.188,1.131,0.662l0,0.001c0.111,0.333,0.168,0.683,0.168,1.034V30h2c0,0,3.914-6,3.642-8.505
			C23.285,20.86,20.815,19.51,17.93,16.815z"/>
		<path fill="#9FCCD3" d="M21,6.5c0,1.933-0.619,3.5-2,3.5s-2-1.567-2-3.5S19,3,19,3C20.381,3,21,4.567,21,6.5z"/>
		<path fill="#A5D1D8" d="M15,6.5c0,1.933-0.619,3.5-2,3.5s-2-1.567-2-3.5S11.619,3,13,3C13,3,15,4.567,15,6.5z"/>
		<ellipse fill="#FFFFFF" cx="13" cy="20.5" rx="1" ry="1.5"/>
		<ellipse fill="#FFFFFF" cx="13" cy="24.5" rx="1" ry="1.5"/>
		<ellipse fill="#F7F7F7" cx="19" cy="20.5" rx="1" ry="1.5"/>
		<ellipse fill="#F7F7F7" cx="19" cy="24.5" rx="1" ry="1.5"/>
		<path fill="#137FA0" d="M8,13c-4.468,1.489-6.718,7.969-7.575,11.181c-0.213,0.797,0.561,1.496,1.329,1.194
			C4.714,24.211,10.527,21.419,12,17L8,13z"/>
		<path fill="#A5D1D8" d="M2,24c-0.467-0.467-0.74-1.224-0.894-2.046c-0.285,0.827-0.511,1.592-0.681,2.228
			c-0.213,0.797,0.561,1.496,1.329,1.194c0.459-0.181,0.992-0.405,1.561-0.664C2.789,24.549,2.323,24.323,2,24z"/>
		<path fill="#0F769B" d="M24,13c4.468,1.489,6.718,7.969,7.575,11.181c0.213,0.797-0.561,1.496-1.329,1.194
			C27.286,24.211,21.473,21.419,20,17L24,13z"/>
		<path fill="#9FCCD3" d="M30,24c0.467-0.467,0.74-1.224,0.894-2.046c0.285,0.827,0.511,1.592,0.681,2.228
			c0.213,0.797-0.561,1.496-1.329,1.194c-0.459-0.181-0.992-0.405-1.561-0.664C29.211,24.549,29.677,24.323,30,24z"/>
		<path fill="#FFD04D" d="M13,30h-2l-3.273,0.818C7.3,30.925,7,31.309,7,31.75v0C7,31.888,7.112,32,7.25,32h6.5
			c0.138,0,0.25-0.112,0.25-0.25l0-0.352c0-0.255-0.101-0.499-0.281-0.679L13,30L13,30z"/>
		<path fill="#F7C845" d="M19,30h2l3.273,0.818C24.7,30.925,25,31.309,25,31.75v0c0,0.138-0.112,0.25-0.25,0.25h-6.5
			C18.112,32,18,31.888,18,31.75l0-0.352c0-0.255,0.101-0.499,0.281-0.679L19,30L19,30z"/>
		<path fill="#A5D1D8" d="M16,3.309c-0.089,0-0.178,0.046-0.224,0.138L15.155,4.69c-0.076,0.153-0.28,0.186-0.4,0.065L14,4l1,6h1
			V3.309z"/>
		<path fill="#9FCCD3" d="M17,10l1-6l-0.755,0.755c-0.121,0.121-0.324,0.088-0.4-0.065l-0.621-1.243
			C16.178,3.355,16.089,3.309,16,3.309V10H17z"/>
		<path fill="#F7F7F7" d="M17.5,6.5h3.229c0.151,0,0.268,0.132,0.248,0.282C20.902,7.333,20.587,8.5,19.25,8.5
			C17.5,8.5,17.5,6.5,17.5,6.5z"/>
		<path fill="#FFFFFF" d="M11.271,6.5H14.5c0,0,0,2-1.75,2c-1.337,0-1.652-1.167-1.727-1.718C11.003,6.632,11.12,6.5,11.271,6.5z"/>
		<path fill="#3B5D8A" d="M18.055,6.5h1.89C19.978,6.655,20,6.821,20,7c0,0.802-0.36,1.394-0.87,1.482
			c-0.221-0.013-0.411-0.059-0.576-0.13C18.218,8.119,18,7.623,18,7C18,6.821,18.022,6.655,18.055,6.5z"/>
		<path fill="#3B5D8A" d="M14,7c0,0.623-0.218,1.119-0.554,1.352c-0.165,0.071-0.355,0.116-0.576,0.13C12.36,8.394,12,7.802,12,7
			c0-0.179,0.022-0.345,0.055-0.5h1.89C13.978,6.655,14,6.821,14,7z"/>
		<path fill="#294C65" d="M19.5,7c0,0.552-0.224,1-0.5,1s-0.5-0.448-0.5-1c0-0.186,0.032-0.351,0.077-0.5h0.847
			C19.468,6.649,19.5,6.814,19.5,7z"/>
		<path fill="#294C65" d="M13.5,7c0,0.552-0.224,1-0.5,1s-0.5-0.448-0.5-1c0-0.186,0.032-0.351,0.077-0.5h0.847
			C13.468,6.649,13.5,6.814,13.5,7z"/>
		<path fill="#FFD04D" d="M16,10.172c-0.75,0-1.5,0.276-1.5,0.828c0,1.105,0.395,2,1.5,2V10.172z"/>
		<path fill="#F7C845" d="M17.5,11c0-0.552-0.75-0.828-1.5-0.828V13C17.105,13,17.5,12.105,17.5,11z"/>
		<path fill="#FFD96C" d="M15.799,8.267c-0.205,0.282-0.532,0.755-0.806,1.264C14.949,7.559,14.609,0,12,0C9,0,8.863,6,8.863,6
			S10,4,12,4c3,0,2.5,7,2.5,7c0,0.234,1.112,1,1.5,1V8.164C15.925,8.164,15.849,8.198,15.799,8.267z"/>
		<path fill="#FFD04D" d="M20,0c-2.609,0-2.949,7.559-2.993,9.531c-0.274-0.509-0.601-0.982-0.806-1.264
			C16.151,8.198,16.075,8.164,16,8.164V12c0.388,0,1.5-0.766,1.5-1c0,0-0.5-7,2.5-7c2,0,3.129,2,3.129,2S23,0,20,0z"/>
	</g>
</g>
</svg>
