<?xml version="1.0" encoding="utf-8"?>
<!-- Generator: Adobe Illustrator 23.0.6, SVG Export Plug-In . SVG Version: 6.00 Build 0)  -->
<svg version="1.1" xmlns="http://www.w3.org/2000/svg" xmlns:xlink="http://www.w3.org/1999/xlink" x="0px" y="0px" width="32px"
	 height="32px" viewBox="0 0 32 32" enable-background="new 0 0 32 32" xml:space="preserve">
<g id="labels">
</g>
<g id="icons">
	<g>
		<path fill="#4F4A4A" d="M20,6c0,0-1.037-6-4-6s-4,6-4,6s2,1,4,1S20,6,20,6z"/>
		<path fill="#EF8C48" d="M12,26v5H9.414c-0.265,0-0.52,0.105-0.707,0.293l-0.28,0.28C8.269,31.731,8.381,32,8.604,32h5.793
			c0.223,0,0.334-0.269,0.177-0.427l-0.28-0.28C14.105,31.105,13.851,31,13.586,31H13l1-5H12z"/>
		<path fill="#E8803A" d="M20,26v5h2.586c0.265,0,0.52,0.105,0.707,0.293l0.28,0.28C23.731,31.731,23.619,32,23.396,32h-5.793
			c-0.223,0-0.334-0.269-0.177-0.427l0.28-0.28C17.895,31.105,18.149,31,18.414,31H19l-1-5H20z"/>
		<path fill="#5A5353" d="M10,31H9.414c-0.265,0-0.52,0.105-0.707,0.293l-0.28,0.28C8.269,31.731,8.381,32,8.604,32h1.419L10,31z"/>
		<path fill="#4F4A4A" d="M22,31h0.586c0.265,0,0.52,0.105,0.707,0.293l0.28,0.28C23.731,31.731,23.619,32,23.396,32h-1.419L22,31z"
			/>
		<path fill="#6D6666" d="M15,18c0,3.866-2.015,7-4.5,7c-4.501,0-5.988-4.689-6.38-6.391C4.048,18.295,4.287,18,4.609,18H6
			c0-3.866,2.015-7,4.5-7S15,14.134,15,18z"/>
		<path fill="#635C5C" d="M17,18c0,3.866,2.015,7,4.5,7c4.501,0,5.988-4.689,6.38-6.391C27.952,18.295,27.713,18,27.391,18H26
			c0-3.866-2.015-7-4.5-7S17,14.134,17,18z"/>
		<path fill="#DEDBD8" d="M16,20l-5,1c0,0,0.959,2.877,4.755,4.874c0.075,0.039,0.16,0.059,0.245,0.059V20z"/>
		<path fill="#DEDBD8" d="M16.245,25.874C20.041,23.877,21,21,21,21l-5-1v5.933C16.085,25.933,16.171,25.914,16.245,25.874z"/>
		<path fill="#746E6E" d="M16,10c-4.418,0-7,13-7,13s2.582,5,7,5V10z"/>
		<path fill="#6D6666" d="M23,23c0,0-2.582-13-7-13v18C20.418,28,23,23,23,23z"/>
		<path fill="#5A5353" d="M16,11l-6-8c0,0-1.677,3.354-0.424,6.223c0.197,0.451,0.049,0.972-0.364,1.24
			c-1.095,0.711-2.967,2.196-3.19,4.152c-0.028,0.248,0.163,0.468,0.41,0.509c0.485,0.081,1.331,0.059,2.286-0.691
			c-0.455,2.366-0.674,5.361,0.16,8.179c0.069,0.233,0.304,0.384,0.544,0.345C10.114,22.845,11.557,22.443,13,21
			c0,0,0,1.858,2.686,3.783c0.091,0.065,0.203,0.098,0.314,0.098V11z"/>
		<path fill="#4F4A4A" d="M16,11l6-8c0,0,1.677,3.354,0.424,6.223c-0.197,0.451-0.049,0.972,0.364,1.24
			c1.095,0.711,2.967,2.196,3.19,4.152c0.028,0.248-0.163,0.468-0.41,0.509c-0.485,0.081-1.331,0.059-2.286-0.691
			c0.455,2.366,0.674,5.361-0.16,8.179c-0.069,0.233-0.304,0.384-0.544,0.345C21.886,22.845,20.443,22.443,19,21
			c0,0,0,1.858-2.686,3.783c-0.091,0.065-0.203,0.098-0.314,0.098V11z"/>
		<path fill="#D1D4D4" d="M16,8c-2,0-6-5-6-5c0,4,2,7,2,7s-2.757,3.676-2.104,8.386c0.045,0.323,0.393,0.512,0.693,0.382
			C11.514,18.366,13.278,17.444,14,16c0,0-0.913,3.654,1.625,6.596c0.096,0.111,0.236,0.167,0.375,0.167V8z"/>
		<path fill="#C8CCCB" d="M16.375,22.596C18.913,19.654,18,16,18,16c0.722,1.444,2.486,2.366,3.411,2.768
			c0.299,0.13,0.648-0.059,0.693-0.382C22.757,13.676,20,10,20,10s2-3,2-7c0,0-4,5-6,5v14.763
			C16.14,22.763,16.279,22.708,16.375,22.596z"/>
		<circle fill="#FFFFFF" cx="13" cy="7" r="1.5"/>
		<circle fill="#F7F7F7" cx="19" cy="7" r="1.5"/>
		<circle fill="#D64F45" cx="13" cy="7" r="1"/>
		<circle fill="#D1473D" cx="19" cy="7" r="1"/>
		<path fill="#807A7A" d="M16,5c-4,0-6-2-6-2s4,5,6,5V5z"/>
		<path fill="#746E6E" d="M22,3c0,0-2,2-6,2v3C18,8,22,3,22,3z"/>
		<path fill="#FCA15E" d="M16,9c-0.633,0-1.267,0.401-1.646,0.695c-0.208,0.161-0.254,0.454-0.108,0.673l1.339,2.008
			c0.099,0.148,0.257,0.223,0.416,0.223V9z"/>
		<path fill="#F79654" d="M16.416,12.376l1.339-2.008c0.146-0.219,0.1-0.511-0.108-0.673C17.267,9.401,16.633,9,16,9v3.599
			C16.159,12.599,16.317,12.524,16.416,12.376z"/>
		<path fill="#E7685F" d="M16,0c-2.853,0-5.706,3.618-4.258,9.133c0.064,0.244,0.408,0.262,0.481,0.02C12.66,7.727,13.784,5,16,5
			l-0.886-1.329c-0.066-0.099-0.053-0.231,0.031-0.315l0.678-0.678c0.098-0.098,0.098-0.256,0-0.354l-0.678-0.678
			c-0.084-0.084-0.097-0.216-0.031-0.315L16,0z"/>
		<path fill="#56514D" d="M16,11c-0.39,0-0.777,0.153-1.108,0.338l0.692,1.038c0.099,0.148,0.257,0.223,0.416,0.223V11z"/>
		<path fill="#56514D" d="M16.416,12.376l0.692-1.038C16.777,11.153,16.39,11,16,11v1.599
			C16.159,12.599,16.317,12.524,16.416,12.376z"/>
	</g>
</g>
</svg>
