<?xml version="1.0" encoding="utf-8"?>
<!-- Generator: Adobe Illustrator 23.0.6, SVG Export Plug-In . SVG Version: 6.00 Build 0)  -->
<svg version="1.1" xmlns="http://www.w3.org/2000/svg" xmlns:xlink="http://www.w3.org/1999/xlink" x="0px" y="0px" width="32px"
	 height="32px" viewBox="0 0 32 32" enable-background="new 0 0 32 32" xml:space="preserve">
<g id="labels">
</g>
<g id="icons">
	<g>
		<circle fill="#D39126" cx="11.5" cy="3.5" r="2.5"/>
		<circle fill="#CE8924" cx="20.5" cy="3.5" r="2.5"/>
		<path fill="#CE8924" d="M19,3c0-1.657-1.343-3-3-3v6C17.657,6,19,6,19,3z"/>
		<path fill="#D39126" d="M16,5C7.716,5,1,7.716,1,16c0,8.284,6.716,12,15,12V5z"/>
		<path fill="#CE8924" d="M16,5c8.284,0,15,2.716,15,11c0,8.284-6.716,12-15,12V5z"/>
		<path fill="#472236" d="M25.084,27.277l-0.553,0.369c-0.342,0.228-0.586,0.575-0.686,0.974l-0.187,0.747
			C23.578,29.688,23.821,30,24.153,30h0.032c0.193,0,0.37-0.109,0.456-0.282L25,29l0.452,0.752C25.544,29.906,25.71,30,25.889,30
			h0.396c0.193,0,0.37-0.109,0.456-0.282L27.1,29l0.272,0.679C27.449,29.873,27.637,30,27.845,30h0.001
			c0.332,0,0.575-0.312,0.495-0.634l-0.187-0.747c-0.1-0.399-0.344-0.746-0.686-0.974l-0.553-0.369C26.645,27.097,26.326,27,26,27
			l0,0C25.674,27,25.355,27.097,25.084,27.277z"/>
		<ellipse fill="#CE8924" cx="26" cy="24" rx="3" ry="4"/>
		<path fill="#532F42" d="M5.084,27.277l-0.553,0.369c-0.342,0.228-0.586,0.575-0.686,0.974l-0.187,0.747
			C3.578,29.688,3.821,30,4.153,30h0.032c0.193,0,0.37-0.109,0.456-0.282L5,29l0.452,0.752C5.544,29.906,5.71,30,5.889,30h0.396
			c0.193,0,0.37-0.109,0.456-0.282L7.1,29l0.272,0.679C7.449,29.873,7.637,30,7.845,30h0.001c0.332,0,0.575-0.312,0.495-0.634
			l-0.187-0.747c-0.1-0.399-0.344-0.746-0.686-0.974l-0.553-0.369C6.645,27.097,6.326,27,6,27h0C5.674,27,5.355,27.097,5.084,27.277
			z"/>
		<ellipse fill="#D39126" cx="6" cy="24" rx="3" ry="4"/>
		<path fill="#532F42" d="M23.084,29.277l-0.553,0.369c-0.342,0.228-0.586,0.575-0.686,0.974l-0.187,0.747
			C21.578,31.688,21.821,32,22.153,32h0.032c0.193,0,0.37-0.109,0.456-0.282L23,31l0.452,0.752C23.544,31.906,23.71,32,23.889,32
			h0.396c0.193,0,0.37-0.109,0.456-0.282L25.1,31l0.272,0.679C25.449,31.873,25.637,32,25.845,32h0.001
			c0.332,0,0.575-0.312,0.495-0.634l-0.187-0.747c-0.1-0.399-0.344-0.746-0.686-0.974l-0.553-0.369C24.645,29.097,24.326,29,24,29
			l0,0C23.674,29,23.355,29.097,23.084,29.277z"/>
		<path fill="#5D374C" d="M7.084,29.277l-0.553,0.369c-0.342,0.228-0.586,0.575-0.686,0.974l-0.187,0.747
			C5.578,31.688,5.821,32,6.153,32h0.032c0.193,0,0.37-0.109,0.456-0.282L7,31l0.452,0.752C7.544,31.906,7.71,32,7.889,32h0.396
			c0.193,0,0.37-0.109,0.456-0.282L9.1,31l0.272,0.679C9.449,31.873,9.637,32,9.845,32h0.001c0.332,0,0.575-0.312,0.495-0.634
			l-0.187-0.747c-0.1-0.399-0.344-0.746-0.686-0.974l-0.553-0.369C8.645,29.097,8.326,29,8,29h0C7.674,29,7.355,29.097,7.084,29.277
			z"/>
		<ellipse fill="#D8992B" cx="8" cy="26" rx="3" ry="4"/>
		<ellipse fill="#D39126" cx="24" cy="26" rx="3" ry="4"/>
		<path fill="#D8992B" d="M17,26.5c0,1.381,1.119,2.5,2.5,2.5s2.5-1.119,2.5-2.5c0-0.004-0.001-0.008-0.001-0.012
			C22.418,26.805,22.934,27,23.5,27c1.381,0,2.5-1.119,2.5-2.5c0-0.566-0.195-1.082-0.512-1.501c0.004,0,0.008,0.001,0.012,0.001
			c1.381,0,2.5-1.119,2.5-2.5c0-0.822-0.402-1.544-1.014-2c0.612-0.456,1.014-1.178,1.014-2c0-1.226-0.884-2.242-2.049-2.455
			C25.465,9.08,21.197,7,16,7v18C16.557,25,17,25.867,17,26.5z"/>
		<path fill="#DEA32F" d="M16,7c-5.197,0-9.465,2.08-9.951,7.045C4.884,14.258,4,15.274,4,16.5c0,0.822,0.402,1.544,1.014,2
			C4.402,18.956,4,19.678,4,20.5C4,21.881,5.119,23,6.5,23c0.004,0,0.008-0.001,0.012-0.001C6.195,23.418,6,23.934,6,24.5
			C6,25.881,7.119,27,8.5,27c0.566,0,1.082-0.195,1.501-0.512c0,0.004-0.001,0.008-0.001,0.012c0,1.381,1.119,2.5,2.5,2.5
			s2.5-1.119,2.5-2.5c0-0.633,0.443-1.5,1-1.5V7z"/>
		<path fill="#FFEAA7" d="M20.5,20c1.933,0,3.5-1.567,3.5-3.5S22.433,13,20.5,13c-0.213,0-0.419,0.026-0.622,0.063
			C19.455,11.308,17.885,10,16,10v10C17.88,20,19.76,20,20.5,20z"/>
		<path fill="#FEF1C6" d="M16,10c-1.885,0-3.455,1.308-3.878,3.063C11.919,13.026,11.713,13,11.5,13C9.567,13,8,14.567,8,16.5
			S9.567,20,11.5,20c0.74,0,2.62,0,4.5,0V10z"/>
		<path fill="#532F42" d="M21,21c0-2.761-1.686-4-5-4v8C19.314,25,21,23.761,21,21z"/>
		<circle fill="#373F3F" cx="12" cy="16" r="1"/>
		<circle fill="#2B3332" cx="20" cy="16" r="1"/>
		<circle fill="#F7F7F7" cx="20" cy="15.75" r="0.25"/>
		<circle fill="#FFFFFF" cx="12" cy="15.75" r="0.25"/>
		<path fill="#5D374C" d="M16,17c-3.314,0-5,1.239-5,4s1.686,4,5,4V17z"/>
		<path fill="#F7F7F7" d="M14.5,23c-0.47,0-0.914-0.082-1.34-0.201l0.76,3.799C13.966,26.832,14.172,27,14.41,27H16v-4.245
			C15.529,22.904,15.029,23,14.5,23z"/>
		<path fill="#EDEEEE" d="M17.5,23c-0.529,0-1.029-0.096-1.5-0.245V27h1.59c0.238,0,0.444-0.168,0.49-0.402l0.76-3.799
			C18.414,22.918,17.97,23,17.5,23z"/>
		<path fill="#F3586F" d="M16,18c-0.828,0-1.5,0.129-1.5,0.75c0,0.621,0.672,1.5,1.5,1.5V18z"/>
		<path fill="#E85160" d="M17.5,18.75c0-0.621-0.672-0.75-1.5-0.75v2.25C16.828,20.25,17.5,19.371,17.5,18.75z"/>
		<circle fill="#DEA32F" cx="7.5" cy="8.5" r="2.5"/>
		<circle fill="#D8992B" cx="24.5" cy="8.5" r="2.5"/>
		<path fill="#D39126" d="M16,0c-1.657,0-3,1.343-3,3c0,3,1.343,3,3,3V0z"/>
	</g>
</g>
</svg>
