<?xml version="1.0" encoding="utf-8"?>
<!-- Generator: Adobe Illustrator 23.0.6, SVG Export Plug-In . SVG Version: 6.00 Build 0)  -->
<svg version="1.1" xmlns="http://www.w3.org/2000/svg" xmlns:xlink="http://www.w3.org/1999/xlink" x="0px" y="0px" width="32px"
	 height="32px" viewBox="0 0 32 32" enable-background="new 0 0 32 32" xml:space="preserve">
<g id="labels">
</g>
<g id="icons">
	<g>
		<path fill="#FF805D" d="M16,16h-2c0,0-2,3-2,10v3.755C13.213,29.928,14.548,30,16,30V16z"/>
		<path fill="#F57552" d="M17,16h-1v14c1.452,0,2.787-0.072,4-0.245V26c0-7-2-10-2-10H17z"/>
		<path fill="#FF8D6E" d="M8.245,12.756C6.185,15.201,5,18.561,5,22c0,5.176,2.675,7.14,7,7.755V26c0-4.95,0.998-7.892,1.584-9.195
			C10.723,16.319,8.872,14.915,8.245,12.756z"/>
		<path fill="#EB6B48" d="M23.743,12.738c-0.626,2.163-2.462,3.58-5.327,4.067C19.002,18.108,20,21.05,20,26v3.755
			c4.325-0.615,7-2.579,7-7.755C27,18.554,25.81,15.186,23.743,12.738z"/>
		<rect x="15" y="16" fill="#F7D684" width="1" height="10"/>
		<rect x="16" y="16" fill="#F0C877" width="1" height="10"/>
		<path fill="#FAE09F" d="M15,26V16h-1c0,0-1.806,2.709-1.986,8.986c-0.016,0.558,0.442,1.014,1,1.014H15z"/>
		<path fill="#E8BA67" d="M17,26V16h1c0,0,1.806,2.709,1.986,8.986c0.016,0.558-0.442,1.014-1,1.014H17z"/>
		<path fill="#FDEBBB" d="M16,3C9.318,3,5,6.229,5,12c0,4.997,3.241,6.958,8.448,7.798L16,16V3z"/>
		<path fill="#FAE09F" d="M18.622,19.784C23.787,18.925,27,16.974,27,12c0-5.771-4.318-9-11-9v13L18.622,19.784z"/>
		<path fill="#FF9A7E" d="M9,11c0,3.263,2.582,5,7,5V6C11.582,6,9,7.737,9,11z"/>
		<path fill="#FF8D6E" d="M23,11c0-3.263-2.582-5-7-5v10C20.418,16,23,14.263,23,11z"/>
		<ellipse fill="#373F3F" cx="12" cy="11.5" rx="1" ry="1.5"/>
		<ellipse fill="#FFFFFF" cx="12" cy="11.25" rx="0.5" ry="0.75"/>
		<ellipse fill="#2B3332" cx="20" cy="11.5" rx="1" ry="1.5"/>
		<path fill="#C23734" d="M16,4c-1.657,0-3,0.619-3,2c0,0.541,0.461,1.119,1.021,1.621c0.56,0.503,1.27,0.754,1.979,0.754V4z"/>
		<path fill="#B33533" d="M17.979,7.621C18.539,7.119,19,6.541,19,6c0-1.381-1.343-2-3-2v4.375
			C16.709,8.375,17.419,8.124,17.979,7.621z"/>
		<ellipse fill="#F7F7F7" cx="20" cy="11.25" rx="0.5" ry="0.75"/>
		<path fill="#505957" d="M12.929,31.613c0.126-0.554,0.102-1.163-0.224-1.826c-0.516-1.05-1.558-1.794-2.727-1.786
			C8.331,28.012,7,29.35,7,31c0,0.212,0.026,0.417,0.071,0.615C7.123,31.842,7.328,32,7.56,32h4.879
			C12.673,32,12.878,31.84,12.929,31.613z"/>
		<path fill="#434C4B" d="M24.929,31.613c0.126-0.554,0.102-1.163-0.224-1.826c-0.516-1.05-1.558-1.794-2.727-1.786
			C20.331,28.012,19,29.35,19,31c0,0.212,0.026,0.417,0.071,0.615C19.123,31.842,19.328,32,19.56,32h4.879
			C24.673,32,24.878,31.84,24.929,31.613z"/>
		<circle fill="#5C6664" cx="11" cy="23" r="2"/>
		<circle fill="#505957" cx="21" cy="23" r="2"/>
		<path fill="#434C4B" d="M24,0c-3,0-2,5.5-5,5.5h-0.066c0,0-0.184,0.107-0.184,0.5c0,0.393,0.132,0.5,0.132,0.5H19c4,0,3-4.5,5-4.5
			v2c1.105,0,2-0.895,2-2C26,0.895,25.105,0,24,0z"/>
		<path fill="#5C6664" d="M25,2c0-0.552-0.448-1-1-1v2C24.552,3,25,2.552,25,2z"/>
		<path fill="#505957" d="M13.066,5.5H13C10,5.5,11,0,8,0C6.895,0,6,0.895,6,2c0,1.105,0.895,2,2,2V2c2,0,1,4.5,5,4.5h0.118
			c0,0,0.132-0.107,0.132-0.5C13.25,5.607,13.066,5.5,13.066,5.5z"/>
		<path fill="#5C6664" d="M8,1c0.828,0,1.5,0.672,1.5,1.5C9.5,3.328,8.828,4,8,4V1z"/>
		<path fill="#687271" d="M7,2c0-0.552,0.448-1,1-1v2C7.448,3,7,2.552,7,2z"/>
		<path fill="#C23734" d="M16,13c-1.657,0-3,0.619-3,2c0,1.381,1.343,2,3,2V13z"/>
		<path fill="#B33533" d="M19,15c0-1.381-1.343-2-3-2v4C17.657,17,19,16.381,19,15z"/>
		<path fill="#505957" d="M24,1c-0.828,0-1.5,0.672-1.5,1.5C22.5,3.328,23.172,4,24,4V1z"/>
	</g>
</g>
</svg>
