<?xml version="1.0" encoding="utf-8"?>
<!-- Generator: Adobe Illustrator 23.0.6, SVG Export Plug-In . SVG Version: 6.00 Build 0)  -->
<svg version="1.1" xmlns="http://www.w3.org/2000/svg" xmlns:xlink="http://www.w3.org/1999/xlink" x="0px" y="0px" width="32px"
	 height="32px" viewBox="0 0 32 32" enable-background="new 0 0 32 32" xml:space="preserve">
<g id="labels">
</g>
<g id="icons">
	<g>
		<ellipse fill="#DEA32F" cx="11.5" cy="29.5" rx="1.5" ry="2.5"/>
		<path fill="#EFB43F" d="M12.967,4.624c-1.609-1.047-3.776-2.347-5.045-2.67C7.969,1.81,8,1.659,8,1.5C8,0.672,7.328,0,6.5,0
			S5,0.672,5,1.5c0,0.222,0.051,0.431,0.138,0.621C3.41,3.957,0.231,8.155,1.005,13.571C1.041,13.82,1.255,14,1.499,14
			c0.023,0,0.048-0.001,0.071-0.005c0.273-0.039,0.464-0.292,0.425-0.566C1.293,8.515,4.245,4.578,5.847,2.844
			C6.045,2.941,6.265,3,6.5,3c0.159,0,0.31-0.031,0.454-0.077c0.37,1.453,2.025,4.088,3.105,5.704C10.024,8.887,10,9.151,10,9.422
			c0,2.994,2.134,5.422,6,5.422V4C14.824,4,13.811,4.227,12.967,4.624z"/>
		<ellipse fill="#D8992B" cx="20.5" cy="29.5" rx="1.5" ry="2.5"/>
		<path fill="#604631" d="M13,14c0,0-9.671,3.868-9.992,14.458c-0.009,0.29,0.242,0.543,0.532,0.525C12.08,28.437,14,15,14,15L13,14
			z"/>
		<path fill="#4F4032" d="M19,14c0,0,9.671,3.868,9.992,14.458c0.009,0.29-0.242,0.543-0.532,0.525C19.92,28.437,18,15,18,15L19,14z
			"/>
		<path fill="#E6AB37" d="M13,13v0.832c0,0.407-0.038,0.807-0.094,1.203c-2.339,0.818-4.053,2.83-4.661,3.628
			C7.976,18.263,7.519,18,7,18V6.544c0-0.221-0.261-0.335-0.421-0.184C5.753,7.141,4,9.187,4,12.5c0,2.858,1.302,4.767,2.191,5.74
			C5.776,18.507,5.5,18.97,5.5,19.5C5.5,20.328,6.172,21,7,21c0.721,0,1.322-0.509,1.466-1.186l3.217-1.287
			c-0.26,0.45-0.552,0.885-0.875,1.299c-1.104,1.417-1.785,3.304-1.807,5.083c-0.033,2.617,2.109,4.736,4.715,4.978
			c0.778,0.072,1.543,0.109,2.284,0.109V13H13z"/>
		<path fill="#DEA32F" d="M25.809,18.24C26.698,17.267,28,15.358,28,12.5c0-3.313-1.753-5.359-2.579-6.139
			C25.261,6.209,25,6.324,25,6.544V18c-0.519,0-0.976,0.263-1.245,0.664c-0.608-0.798-2.323-2.811-4.663-3.629
			C19.037,14.639,19,14.24,19,13.834V13h-3v16.995c3.865-0.001,7-1.13,7-4.995c0-1.817-0.694-3.758-1.83-5.202
			c-0.319-0.406-0.606-0.833-0.863-1.275l3.226,1.291C23.678,20.491,24.279,21,25,21c0.828,0,1.5-0.672,1.5-1.5
			C26.5,18.97,26.224,18.507,25.809,18.24z"/>
		<path fill="#E6AB37" d="M26.862,2.121C26.949,1.931,27,1.722,27,1.5C27,0.672,26.328,0,25.5,0S24,0.672,24,1.5
			c0,0.159,0.031,0.31,0.077,0.454c-1.269,0.323-3.435,1.623-5.045,2.67C18.189,4.227,17.176,4,16,4v10.844c3.866,0,6-2.427,6-5.422
			c0-0.271-0.024-0.535-0.058-0.795c1.079-1.616,2.735-4.251,3.105-5.704C25.19,2.969,25.341,3,25.5,3
			c0.236,0,0.456-0.059,0.655-0.156c1.603,1.73,4.553,5.662,3.85,10.585c-0.039,0.273,0.151,0.527,0.425,0.566
			C30.453,13.999,30.478,14,30.501,14c0.244,0,0.458-0.18,0.494-0.429C31.769,8.155,28.59,3.956,26.862,2.121z"/>
		<rect x="15" y="15" fill="#FDEBBB" width="1" height="9"/>
		<rect x="16" y="15" fill="#FAE09F" width="1" height="9"/>
		<path fill="#724D31" d="M21.094,19.694C20.434,20.414,20,21.625,20,23c0,2.209,1.119,4,2.5,4c0.048,0,0.093-0.018,0.14-0.023
			C22.867,26.414,23,25.765,23,25c0-1.817-0.694-3.758-1.83-5.202C21.144,19.764,21.12,19.728,21.094,19.694z"/>
		<path fill="#96643B" d="M12,23c0-1.376-0.434-2.588-1.095-3.308c-0.033,0.044-0.063,0.09-0.097,0.134
			c-1.104,1.417-1.785,3.304-1.807,5.083c-0.01,0.751,0.176,1.452,0.485,2.089C9.49,26.998,9.495,27,9.5,27
			C10.881,27,12,25.209,12,23z"/>
		<ellipse fill="#8D5B36" cx="11" cy="9.5" rx="2" ry="2.5"/>
		<ellipse fill="#4F4032" cx="11" cy="9.5" rx="1" ry="1.5"/>
		<circle fill="#FFFFFF" cx="10.5" cy="8.5" r="0.5"/>
		<ellipse fill="#845331" cx="21" cy="9.5" rx="2" ry="2.5"/>
		<ellipse fill="#2B3332" cx="21" cy="9.5" rx="1" ry="1.5"/>
		<circle fill="#F7F7F7" cx="20.5" cy="8.5" r="0.5"/>
		<path fill="#8D5B36" d="M13,12c-2,1-1,4-3,4v-3c-1.105,0-2,0.895-2,2c0,1.105,0.895,2,2,2c3,0,3-3,5-2l1-2.156
			C16,12.844,15,11,13,12z"/>
		<path fill="#724D31" d="M9,15c0,0.552,0.448,1,1,1v-2C9.448,14,9,14.448,9,15z"/>
		<path fill="#845331" d="M10,16c0.828,0,1.5-0.672,1.5-1.5c0-0.828-0.672-1.5-1.5-1.5V16z"/>
		<path fill="#845331" d="M19,12c2,1,1,4,3,4v-3c1.105,0,2,0.895,2,2c0,1.105-0.895,2-2,2c-3,0-3-3-5-2l-1-2.156
			C16,12.844,17,11,19,12z"/>
		<path fill="#604631" d="M23,15c0,0.552-0.448,1-1,1v-2C22.552,14,23,14.448,23,15z"/>
		<path fill="#724D31" d="M22,16c-0.828,0-1.5-0.672-1.5-1.5c0-0.828,0.672-1.5,1.5-1.5V16z"/>
		<g>
			<path fill="#FAE09F" d="M16,26h-1.691c-0.189,0-0.363,0.107-0.447,0.276l-1.619,3.238c0.467,0.185,0.956,0.325,1.473,0.372
				c0.781,0.072,1.541,0.097,2.284,0.096V26z"/>
			<path fill="#F7D684" d="M16,29.982c1.373-0.003,2.663-0.135,3.744-0.495l-1.606-3.211C18.054,26.107,17.88,26,17.691,26H16
				V29.982z"/>
			<path fill="#B33533" d="M16,26v2c1.069,0,2-0.375,2.532-0.936l-0.394-0.787C18.054,26.107,17.88,26,17.691,26H16z"/>
			<path fill="#C23734" d="M16,26h-1.691c-0.189,0-0.363,0.107-0.447,0.276l-0.394,0.787C14,27.625,14.931,28,16,28V26z"/>
		</g>
		<path fill="#C23734" d="M16,12.844c-1.105,0-2,0.395-2,1.5c0,0.433,0.307,0.834,0.681,1.161C15.058,15.835,15.529,16,16,16V12.844
			z"/>
		<path fill="#B33533" d="M17.319,15.504C17.693,15.177,18,14.776,18,14.344c0-1.105-0.895-1.5-2-1.5V16
			C16.471,16,16.942,15.835,17.319,15.504z"/>
		<path fill="#8D5B36" d="M16,20c-1.105,0-2,1.119-2,2.5c0,1.381,0.895,2.5,2,2.5V20z"/>
		<path fill="#845331" d="M18,22.5c0-1.381-0.895-2.5-2-2.5v5C17.105,25,18,23.881,18,22.5z"/>
	</g>
</g>
</svg>
