<?xml version="1.0" encoding="utf-8"?>
<!-- Generator: Adobe Illustrator 23.0.6, SVG Export Plug-In . SVG Version: 6.00 Build 0)  -->
<svg version="1.1" xmlns="http://www.w3.org/2000/svg" xmlns:xlink="http://www.w3.org/1999/xlink" x="0px" y="0px" width="32px"
	 height="32px" viewBox="0 0 32 32" enable-background="new 0 0 32 32" xml:space="preserve">
<g id="labels">
</g>
<g id="icons">
	<g>
		<path fill="#3A9B46" d="M16,19.011l-8,3c0,0-1.788,2.683,0.554,5.511C8.704,27.704,9,27.601,9,27.365v-1.355
			c0,0,0,1.818,2.6,3.721c0.165,0.121,0.4,0.003,0.4-0.202v-1.519c0,0,1.437,3.237,3.925,3.979c0.024,0.007,0.05,0,0.075,0V19.011z"
			/>
		<path fill="#2F963C" d="M16.075,31.989C18.563,31.248,20,28.011,20,28.011v1.519c0,0.205,0.235,0.323,0.4,0.202
			c2.6-1.903,2.6-3.721,2.6-3.721v1.355c0,0.236,0.296,0.338,0.446,0.157C25.788,24.693,24,22.011,24,22.011l-8-3v12.979
			C16.025,31.989,16.051,31.996,16.075,31.989z"/>
		<g>
			<path fill="#263460" d="M18,0c0,0-0.289,2.41-1.07,3.191c-0.781,0.781-1.655,1.174-2.475,0.354
				c-0.82-0.82-0.427-1.694,0.354-2.475S18,0,18,0z"/>
			<path fill="#182A51" d="M16,3v0.869c0.318-0.139,0.631-0.379,0.93-0.678C17.711,2.41,18,0,18,0C16.503,1.232,16,3,16,3z"/>
			<path fill="#313D68" d="M12,4.5C12,5.66,13.791,6,16,6V3C13.791,3,12,3.34,12,4.5z"/>
			<path fill="#263460" d="M20,4.5C20,3.34,18.209,3,16,3v3C18.209,6,20,5.66,20,4.5z"/>
			<path fill="#3A4274" d="M16,5c-2.761,0-5,0.397-5,1.75s2.239,1.75,5,1.75V5z"/>
			<path fill="#313D68" d="M21,6.75C21,5.397,18.761,5,16,5v3.5C18.761,8.5,21,8.103,21,6.75z"/>
			<path fill="#3E4679" d="M16,7.5c-3.314,0-6,0.454-6,2s2.686,2,6,2V7.5z"/>
			<path fill="#3A4274" d="M22,9.5c0-1.546-2.686-2-6-2v4C19.314,11.5,22,11.046,22,9.5z"/>
			<path fill="#424B7E" d="M16,10c-4.418,0-7,2.024-7,6s2.582,6,7,6V10z"/>
			<path fill="#3E4679" d="M23,16c0-3.976-2.582-6-7-6v12C20.418,22,23,19.976,23,16z"/>
			<ellipse fill="#FFD96C" cx="13" cy="15.5" rx="1.5" ry="2"/>
			<ellipse fill="#FFD04D" cx="19" cy="15.5" rx="1.5" ry="2"/>
			<circle fill="#182A51" cx="13" cy="15" r="0.5"/>
			<circle fill="#2B3332" cx="19" cy="15" r="0.5"/>
			<path fill="#3E4679" d="M16,17c0,0-2.525,2.52-5.068,3.557C12.127,21.514,13.843,22,16,22V17z"/>
			<path fill="#3A4274" d="M21.068,20.557C18.525,19.52,16,17,16,17v5C18.157,22,19.873,21.514,21.068,20.557z"/>
		</g>
		<path fill="#4EAC5D" d="M16,21c0,0-3,2-3,5s3,5,3,5V21z"/>
		<path fill="#48A353" d="M16,21c0,0,3,2,3,5s-3,5-3,5V21z"/>
		<g>
			<path fill="#60C46F" d="M11.907,10.093c0,0-2.907-0.581-4.651,1.163s-1.163,4.651-1.163,4.651L11.907,10.093z"/>
			<path fill="#54B668" d="M11.907,10.093c0,0,0.581,2.907-1.163,4.651s-4.651,1.163-4.651,1.163L11.907,10.093z"/>
		</g>
		<g>
			<path fill="#54B668" d="M11.891,18.109c0,0-3.391-0.678-5.426,1.357s-1.357,5.426-1.357,5.426L11.891,18.109z"/>
			<path fill="#4EAC5D" d="M11.891,18.109c0,0,0.678,3.391-1.357,5.426s-5.426,1.357-5.426,1.357L11.891,18.109z"/>
		</g>
		<g>
			<path fill="#3A9B46" d="M20.109,18.109c0,0,3.391-0.678,5.426,1.357s1.357,5.426,1.357,5.426L20.109,18.109z"/>
			<path fill="#48A353" d="M20.109,18.109c0,0-0.678,3.391,1.357,5.426s5.426,1.357,5.426,1.357L20.109,18.109z"/>
		</g>
		<g>
			<path fill="#48A353" d="M20.093,10.093c0,0,2.907-0.581,4.651,1.163s1.163,4.651,1.163,4.651L20.093,10.093z"/>
			<path fill="#4EAC5D" d="M20.093,10.093c0,0-0.581,2.907,1.163,4.651s4.651,1.163,4.651,1.163L20.093,10.093z"/>
		</g>
		<path fill="#C09265" d="M8.5,30.999c-0.128,0-0.256-0.049-0.354-0.146c-0.195-0.195-0.195-0.512,0-0.707
			C9.959,28.332,10,26.514,10,26.496C10.003,26.222,10.227,26,10.5,26c0.001,0,0.002,0,0.003,0C10.777,26.001,11,26.224,11,26.499
			c0,0.09-0.024,2.231-2.146,4.354C8.756,30.95,8.628,30.999,8.5,30.999z"/>
		<path fill="#B38658" d="M23.5,30.999c0.128,0,0.256-0.049,0.354-0.146c0.195-0.195,0.195-0.512,0-0.707
			C22.041,28.332,22,26.514,22,26.496C21.997,26.222,21.773,26,21.5,26c-0.001,0-0.002,0-0.003,0C21.223,26.001,21,26.224,21,26.499
			c0,0.09,0.024,2.231,2.146,4.354C23.244,30.95,23.372,30.999,23.5,30.999z"/>
	</g>
</g>
</svg>
