<?xml version="1.0" encoding="utf-8"?>
<!-- Generator: Adobe Illustrator 23.0.6, SVG Export Plug-In . SVG Version: 6.00 Build 0)  -->
<svg version="1.1" xmlns="http://www.w3.org/2000/svg" xmlns:xlink="http://www.w3.org/1999/xlink" x="0px" y="0px" width="32px"
	 height="32px" viewBox="0 0 32 32" enable-background="new 0 0 32 32" xml:space="preserve">
<g id="labels">
</g>
<g id="icons">
	<g>
		<path fill="#AD4586" d="M10.007,8.256C10.001,8.111,10.117,7.994,10.262,8c0.644,0.026,2.3,0.155,2.938,0.793
			c0.8,0.8,0.8,3.2,0.8,3.2s-2.4,0-3.2-0.8C10.162,10.556,10.033,8.9,10.007,8.256z"/>
		<path fill="#A53F83" d="M21.993,8.256C21.999,8.111,21.883,7.994,21.738,8c-0.644,0.026-2.3,0.155-2.938,0.793
			c-0.8,0.8-0.8,3.2-0.8,3.2s2.4,0,3.2-0.8C21.838,10.556,21.967,8.9,21.993,8.256z"/>
		<path fill="#E8AAB1" d="M16,12c-0.779,0-1.526,0.171-2.226,0.473C13.382,11.606,12.513,11,11.5,11
			c-0.891,0-1.667,0.469-2.11,1.171C9.113,12.065,8.815,12,8.5,12C7.119,12,6,13.119,6,14.5c0,0.187,0.024,0.368,0.063,0.544
			C4.892,15.251,4,16.269,4,17.5c0,1.231,0.892,2.249,2.063,2.456C6.024,20.132,6,20.313,6,20.5C6,21.881,7.119,23,8.5,23
			c0.228,0,0.444-0.04,0.654-0.097c0.442,2.738,1.827,5.006,3.748,6.195l-0.866,0.866c-0.254,0.254-0.165,0.685,0.168,0.818
			l1.332,0.533c0.256,0.103,0.547-0.022,0.65-0.279l0.479-1.197c0.062,0.015,0.127,0.024,0.19,0.036l-0.257,1.542
			C14.546,31.723,14.781,32,15.09,32H16V12z"/>
		<path fill="#E59FA8" d="M16.91,32c0.309,0,0.544-0.277,0.493-0.582l-0.257-1.542c0.063-0.013,0.127-0.022,0.19-0.036l0.479,1.197
			c0.103,0.256,0.393,0.381,0.65,0.279l1.332-0.533c0.333-0.133,0.422-0.564,0.168-0.818l-0.866-0.866
			c1.921-1.189,3.306-3.457,3.748-6.195C23.056,22.96,23.272,23,23.5,23c1.381,0,2.5-1.119,2.5-2.5c0-0.187-0.024-0.368-0.063-0.544
			C27.108,19.749,28,18.731,28,17.5c0-1.231-0.892-2.249-2.063-2.456C25.976,14.868,26,14.687,26,14.5c0-1.381-1.119-2.5-2.5-2.5
			c-0.315,0-0.613,0.065-0.89,0.171C22.167,11.469,21.391,11,20.5,11c-1.013,0-1.882,0.606-2.274,1.473
			C17.526,12.171,16.779,12,16,12v20H16.91z"/>
		<path fill="#E59FA8" d="M16,25c-2.374,0-4.62-0.415-6.646-1.14c0.582,2.305,1.857,4.19,3.549,5.237l-0.866,0.866
			c-0.254,0.254-0.165,0.685,0.168,0.818l1.332,0.533c0.256,0.103,0.547-0.022,0.65-0.279l0.479-1.197
			c0.062,0.015,0.127,0.024,0.19,0.036l-0.257,1.542C14.546,31.723,14.781,32,15.09,32H16V25z"/>
		<path fill="#E2959E" d="M16.91,32c0.309,0,0.544-0.277,0.493-0.582l-0.257-1.542c0.063-0.013,0.127-0.022,0.19-0.036l0.479,1.197
			c0.103,0.256,0.393,0.381,0.65,0.279l1.332-0.533c0.333-0.133,0.422-0.564,0.168-0.818l-0.866-0.866
			c1.692-1.047,2.966-2.932,3.549-5.237C20.62,24.585,18.374,25,16,25v7H16.91z"/>
		<path fill="#263460" d="M16,2c0,0,0.406-0.998,0.848-1.888c-0.053-0.024-0.113-0.034-0.175-0.014C16.106,0.289,15,0.756,15,1.5
			c0,0.55,0.451,0.973,1,0.977V2z"/>
		<path fill="#182A51" d="M16,2.477c0.057,0,0.109,0.019,0.168,0.01C16.66,2.406,17,1.945,17,1.446v-1.11
			c0-0.106-0.066-0.186-0.152-0.224C16.406,1.002,16,2,16,2V2.477z"/>
		<path fill="#3A4274" d="M15.5,3l-0.082,1.307c-0.147,2.347-1.276,4.46-2.926,6.134C11.573,11.348,11,12.606,11,14
			c0,0.341,0.035,0.674,0.1,0.996c0.541,0.836,1.965,1.908,3.667,1.998c0.128,0.007,0.233,0.099,0.24,0.226
			c0.017,0.314,0.077,0.942,0.256,1.706C15.506,18.962,15.748,19,16,19V3H15.5z"/>
		<path fill="#313D68" d="M16.992,17.22c0.007-0.128,0.112-0.22,0.24-0.226c1.703-0.09,3.126-1.162,3.668-1.998
			C20.965,14.674,21,14.341,21,14c0-1.405-0.584-2.671-1.517-3.579c-1.631-1.581-2.745-3.617-2.887-5.885L16.5,3H16v16
			c0.252,0,0.494-0.038,0.736-0.074C16.915,18.162,16.975,17.534,16.992,17.22z"/>
		<ellipse fill="#FFFFFF" cx="14" cy="13.5" rx="1" ry="1.5"/>
		<ellipse fill="#FFFFFF" cx="18" cy="13.5" rx="1" ry="1.5"/>
		<ellipse fill="#231F20" cx="14" cy="13.5" rx="0.25" ry="0.75"/>
		<ellipse fill="#231F20" cx="18" cy="13.5" rx="0.25" ry="0.75"/>
		<path fill="#313D68" d="M16,2c-0.828,0-1.5,0.672-1.5,1.5S15.172,5,16,5V2z"/>
		<path fill="#263460" d="M17.5,3.5C17.5,2.672,16.828,2,16,2v3C16.828,5,17.5,4.328,17.5,3.5z"/>
		<g>
			<path fill="#B54E8B" d="M16,18v3c0.524-1.048,0.771-2.09,0.89-2.851C16.607,18.061,16.312,18,16,18z"/>
		</g>
		<g>
			<path fill="#BF538E" d="M15.11,18.149C15.229,18.91,15.476,19.952,16,21v-3C15.688,18,15.393,18.061,15.11,18.149z"/>
		</g>
		<path fill="#B54E8B" d="M12,11c0,0-2,0-4,0c-1.913,0-3.369-0.458-4.367-3.124c-0.064-0.171-0.281-0.229-0.41-0.1L1.595,9.405
			c-0.063,0.063-0.087,0.15-0.067,0.236C1.686,10.294,2.604,13,7,13C9.795,13,12,11,12,11z"/>
		<path fill="#BF538E" d="M12,11c0,0-3,1-5,1c-1.915,0-3.83-0.917-4.867-3.629c-0.065-0.17-0.279-0.225-0.407-0.096L0.106,9.894
			c-0.067,0.067-0.092,0.162-0.062,0.253C0.283,10.867,1.575,14,6,14C8.795,14,12,11,12,11z"/>
		<path fill="#AD4586" d="M20,11c0,0,2,0,4,0c1.913,0,3.369-0.458,4.367-3.124c0.064-0.171,0.281-0.229,0.41-0.1l1.628,1.628
			c0.063,0.063,0.087,0.15,0.067,0.236C30.314,10.294,29.396,13,25,13C22.205,13,20,11,20,11z"/>
		<path fill="#B54E8B" d="M20,11c0,0,3,1,5,1c1.915,0,3.83-0.917,4.867-3.629c0.065-0.17,0.279-0.225,0.407-0.096l1.619,1.619
			c0.067,0.067,0.092,0.162,0.062,0.253C31.717,10.867,30.425,14,26,14C23.205,14,20,11,20,11z"/>
	</g>
</g>
</svg>
