<?xml version="1.0" encoding="utf-8"?>
<!-- Generator: Adobe Illustrator 23.0.6, SVG Export Plug-In . SVG Version: 6.00 Build 0)  -->
<svg version="1.1" xmlns="http://www.w3.org/2000/svg" xmlns:xlink="http://www.w3.org/1999/xlink" x="0px" y="0px" width="32px"
	 height="32px" viewBox="0 0 32 32" enable-background="new 0 0 32 32" xml:space="preserve">
<g id="labels">
</g>
<g id="icons">
	<g>
		<path fill="#FF8D6E" d="M23.5,11c-2.485,0-4.5,2.015-4.5,4.5s2.015,4.5,4.5,4.5V11z"/>
		<path fill="#FF805D" d="M28,15.5c0-2.485-2.015-4.5-4.5-4.5v9C25.985,20,28,17.985,28,15.5z"/>
		<path fill="#532F42" d="M25.506,15.584c-0.264,0-0.504-0.052-0.677-0.114c-0.26-0.094-0.394-0.381-0.299-0.641
			c0.094-0.258,0.382-0.391,0.637-0.301c0.109,0.039,0.656,0.197,0.888-0.255c0.125-0.247,0.429-0.343,0.672-0.219
			c0.246,0.125,0.345,0.426,0.219,0.672C26.606,15.393,26.015,15.584,25.506,15.584z"/>
		<path fill="#5D374C" d="M21.494,15.584c-0.509,0-1.101-0.191-1.439-0.857c-0.126-0.246-0.027-0.547,0.219-0.672
			c0.244-0.124,0.547-0.028,0.672,0.219c0.232,0.454,0.781,0.292,0.888,0.255c0.258-0.087,0.544,0.046,0.637,0.306
			c0.091,0.259-0.041,0.542-0.299,0.636C21.998,15.532,21.757,15.584,21.494,15.584z"/>
		<path fill="#9ACC2E" d="M21.916,13.062c-1.345,0-3.515-0.241-5.078-1.597C15.618,10.407,15,8.905,15,7c0-0.553,0.447-1,1-1
			s1,0.447,1,1c0,1.314,0.374,2.279,1.144,2.95c1.679,1.461,4.687,1.065,4.717,1.06c0.546-0.082,1.052,0.305,1.129,0.852
			c0.077,0.546-0.302,1.051-0.848,1.129C23.087,12.998,22.612,13.062,21.916,13.062z"/>
		<path fill="#FFB49F" d="M16,14c-6.136,0-10,3.208-10,8.471C6,26.706,7.916,32,9.333,32c0.645,0,1.194-0.815,1.652-1.955
			c1.42,0.585,3.107,0.896,5.015,0.896V14z"/>
		<path fill="#FFA68E" d="M21.015,30.045C21.473,31.185,22.021,32,22.667,32C24.084,32,26,26.706,26,22.471
			C26,17.208,22.136,14,16,14v16.941C17.907,30.941,19.594,30.63,21.015,30.045z"/>
		<path fill="#AADB3D" d="M16,7c0,0-3,3-7,3c-3.6,0-5.58-3.24-8.127-3.159C0.501,6.853,0.272,6.429,0.452,6.103
			C1.495,4.214,4.345,0,9,0c6,0,7,4,7,4V7z"/>
		<path fill="#A2D336" d="M16,7c0,0,3,3,7,3c3.6,0,5.58-3.24,8.127-3.159c0.373,0.012,0.602-0.412,0.421-0.738
			C30.505,4.214,27.655,0,23,0c-6,0-7,4-7,4V7z"/>
		<path fill="#B1E346" d="M9,0C4.345,0,1.495,4.214,0.452,6.103C0.335,6.315,0.401,6.557,0.557,6.705C9.204,2.213,14,7,14,7
			c0.081,0.163,0.154,0.343,0.223,0.53c0.014,0.038,0.027,0.076,0.041,0.115c0.064,0.186,0.124,0.377,0.178,0.578l0,0
			C14.999,10.305,15,13.035,15,13.035V16h1v-2.965V4C16,4,15,0,9,0z"/>
		<path fill="#AADB3D" d="M31.548,6.103C30.505,4.214,27.655,0,23,0c-6,0-7,4-7,4v9v3h1v-2.965c0,0,0.001-2.73,0.559-4.812l0,0
			c0.054-0.2,0.114-0.392,0.178-0.578c0.013-0.038,0.027-0.077,0.041-0.115C17.846,7.343,17.919,7.163,18,7
			c0,0,4.796-4.787,13.443-0.295C31.599,6.557,31.665,6.315,31.548,6.103z"/>
		<ellipse fill="#5D374C" cx="12" cy="22.5" rx="1" ry="1.5"/>
		<ellipse fill="#532F42" cx="20" cy="22.5" rx="1" ry="1.5"/>
		<circle fill="#FFFFFF" cx="12" cy="22" r="0.5"/>
		<circle fill="#FFFFFF" cx="20" cy="22" r="0.5"/>
		<path fill="#FF9A7E" d="M21.015,30.045C21.473,31.185,22.021,32,22.667,32c1.274,0,2.945-4.273,3.272-8.212
			c-2.59,1.804-6.084,2.918-9.939,2.918v4.235C17.907,30.941,19.594,30.63,21.015,30.045z"/>
		<path fill="#FFA68E" d="M16,26.706c-3.855,0-7.348-1.114-9.939-2.918C6.389,27.727,8.06,32,9.333,32
			c0.645,0,1.194-0.815,1.652-1.955c1.42,0.585,3.107,0.896,5.015,0.896V26.706z"/>
		<path fill="#D64F45" d="M16,14c-0.341,0-0.673,0.014-1,0.033V22c0,0.552,0.448,1,1,1V14z"/>
		<path fill="#D1473D" d="M17,22v-7.967C16.673,14.014,16.341,14,16,14v9C16.552,23,17,22.552,17,22z"/>
	</g>
</g>
</svg>
