<?xml version="1.0" encoding="utf-8"?>
<!-- Generator: Adobe Illustrator 23.0.6, SVG Export Plug-In . SVG Version: 6.00 Build 0)  -->
<svg version="1.1" xmlns="http://www.w3.org/2000/svg" xmlns:xlink="http://www.w3.org/1999/xlink" x="0px" y="0px" width="32px"
	 height="32px" viewBox="0 0 32 32" enable-background="new 0 0 32 32" xml:space="preserve">
<g id="labels">
</g>
<g id="icons">
	<g>
		<path fill="#FBCFD6" d="M5.544,25.257c-0.3-0.027-0.516-0.299-0.459-0.595l0.348-1.809l-1.809,0.348
			c-0.296,0.057-0.568-0.159-0.595-0.459c-0.137-1.517,0.167-3.308,2.051-5.192c2.121-2.121,6.152-1.626,6.718-1.061
			c0.566,0.566,1.061,4.596-1.061,6.718C8.852,25.09,7.061,25.394,5.544,25.257z"/>
		<path fill="#FAC4D1" d="M26.456,25.257c0.3-0.027,0.516-0.299,0.459-0.595l-0.348-1.809l1.809,0.348
			c0.296,0.057,0.568-0.159,0.595-0.459c0.137-1.517-0.167-3.308-2.051-5.192c-2.121-2.121-6.152-1.626-6.718-1.061
			c-0.566,0.566-1.061,4.596,1.061,6.718C23.148,25.09,24.939,25.394,26.456,25.257z"/>
		<path fill="#FFD04D" d="M16,20c-3.038,0-5.5,2.462-5.5,5.5c0,0.121,0.01,0.239,0.018,0.358c0.003,0.047,0.003,0.093,0.007,0.139
			c0.02,0.222,0.052,0.44,0.097,0.653c0.382,2.154,1.663,4.278,2.171,5.047c0.099,0.15,0.313,0.15,0.413,0
			c0.163-0.247,0.409-0.637,0.678-1.12C14.536,30.849,15.25,31,16,31V20z"/>
		<path fill="#F7C845" d="M18.115,30.577c0.27,0.484,0.515,0.873,0.678,1.12c0.099,0.15,0.313,0.15,0.413,0
			c0.508-0.769,1.789-2.894,2.171-5.047c0.045-0.213,0.078-0.432,0.097-0.653c0.004-0.047,0.004-0.093,0.007-0.139
			C21.49,25.739,21.5,25.621,21.5,25.5c0-3.038-2.462-5.5-5.5-5.5v11C16.75,31,17.464,30.849,18.115,30.577z"/>
		<path fill="#FDE2E6" d="M16,21h-2l-3.99,0.887c-0.205,0.046-0.266,0.308-0.102,0.439L12,24l-1.616,2.019
			c-0.14,0.175,0.004,0.432,0.226,0.404L14,26l1.792,2.688c0.049,0.074,0.129,0.111,0.208,0.111V21z"/>
		<path fill="#FCD8DE" d="M22.034,21.867L19,21h-3v7.799c0.079,0,0.159-0.037,0.208-0.111L18,26l3.389,0.424
			c0.223,0.028,0.366-0.229,0.226-0.404L20,24l2.122-1.697C22.28,22.176,22.23,21.923,22.034,21.867z"/>
		<path fill="#60C46F" d="M16,21h-2c0,0,1,4,2,4V21z"/>
		<path fill="#54B668" d="M16,25c1,0,2-4,2-4h-2V25z"/>
		<path fill="#FBCFD6" d="M27.456,5.029c0.3,0.027,0.516,0.299,0.459,0.595l-0.348,1.809l1.809-0.348
			c0.296-0.057,0.568,0.159,0.595,0.459c0.137,1.517-0.167,3.308-2.051,5.192c-2.121,2.121-6.152,1.626-6.718,1.061
			c-0.566-0.566-1.061-4.596,1.061-6.718C24.148,5.195,25.939,4.892,27.456,5.029z"/>
		<path fill="#FCD8DE" d="M4.544,5.029c-0.3,0.027-0.516,0.299-0.459,0.595l0.348,1.809L2.624,7.085
			C2.328,7.028,2.056,7.244,2.028,7.544c-0.137,1.517,0.167,3.308,2.051,5.192c2.121,2.121,6.152,1.626,6.718,1.061
			s1.061-4.596-1.061-6.718C7.852,5.195,6.061,4.892,4.544,5.029z"/>
		<path fill="#FFD96C" d="M16,7c-5.633,0-9,3.582-9,8s3.367,8,9,8V7z"/>
		<path fill="#FFD04D" d="M25,15c0-4.418-3.367-8-9-8v16C21.633,23,25,19.418,25,15z"/>
		<ellipse fill="#D672AB" cx="11" cy="15.75" rx="1" ry="1.25"/>
		<ellipse fill="#CC6AA7" cx="21" cy="15.75" rx="1" ry="1.25"/>
		<circle fill="#F7F7F7" cx="21" cy="15.5" r="0.5"/>
		<circle fill="#FFFFFF" cx="11" cy="15.5" r="0.5"/>
		<circle fill="#E583B2" cx="9.5" cy="9.5" r="2.5"/>
		<circle fill="#DD7AAE" cx="22.5" cy="9.5" r="2.5"/>
		<path fill="#FCD8DE" d="M16,2l1.033-1.525c0.169-0.25,0.514-0.29,0.745-0.096C18.948,1.354,20,2.836,20,5.5c0,3-3.2,6.5-4,6.5V2z"
			/>
		<path fill="#FDE2E6" d="M16,2l-1.033-1.525c-0.169-0.25-0.514-0.29-0.745-0.096C13.052,1.354,12,2.836,12,5.5c0,3,3.2,6.5,4,6.5V2
			z"/>
		<path fill="#E583B2" d="M16,17h-1.422c-0.302,0-0.536,0.262-0.497,0.561c0.11,0.86,0.506,2.404,1.92,2.433V17z"/>
		<path fill="#DD7AAE" d="M17.499,17H16v2.995c0.014,0,0.024,0.005,0.038,0.005c1.447,0,1.847-1.57,1.958-2.439
			C18.034,17.262,17.801,17,17.499,17z"/>
		<path fill="#EA8BB4" d="M9.5,10c0.967,0,1.843-0.28,2.476-0.734C11.857,7.997,10.801,7,9.5,7S7.143,7.997,7.024,9.266
			C7.657,9.72,8.533,10,9.5,10z"/>
		<path fill="#E583B2" d="M22.5,10c0.967,0,1.843-0.28,2.476-0.734C24.857,7.997,23.801,7,22.5,7s-2.357,0.997-2.476,2.266
			C20.657,9.72,21.533,10,22.5,10z"/>
	</g>
</g>
</svg>
