<?xml version="1.0" encoding="utf-8"?>
<!-- Generator: Adobe Illustrator 23.0.6, SVG Export Plug-In . SVG Version: 6.00 Build 0)  -->
<svg version="1.1" xmlns="http://www.w3.org/2000/svg" xmlns:xlink="http://www.w3.org/1999/xlink" x="0px" y="0px" width="32px"
	 height="32px" viewBox="0 0 32 32" enable-background="new 0 0 32 32" xml:space="preserve">
<g id="labels">
</g>
<g id="icons">
	<g>
		<path fill="#A366AD" d="M23.5,25.5c-2.206,0-4-1.794-4-4s1.794-4,4-4s4,1.794,4,4S25.706,25.5,23.5,25.5z M23.5,18.5
			c-1.654,0-3,1.346-3,3s1.346,3,3,3s3-1.346,3-3S25.154,18.5,23.5,18.5z"/>
		<path fill="#945BA0" d="M25.5,27.5c-2.206,0-4-1.794-4-4s1.794-4,4-4s4,1.794,4,4S27.706,27.5,25.5,27.5z M25.5,20.5
			c-1.654,0-3,1.346-3,3s1.346,3,3,3s3-1.346,3-3S27.154,20.5,25.5,20.5z"/>
		<path fill="#8C5699" d="M23.5,28.5c-2.206,0-4-1.794-4-4s1.794-4,4-4s4,1.794,4,4S25.706,28.5,23.5,28.5z M23.5,21.5
			c-1.654,0-3,1.346-3,3s1.346,3,3,3s3-1.346,3-3S25.154,21.5,23.5,21.5z"/>
		<path fill="#8C5699" d="M23,20c0,6-4,10-4,10h-1c0,0-3-4-3-9L23,20z"/>
		<path fill="#C8CCCB" d="M17.5,30.517c-0.003-0.195,0.038-0.402,0.145-0.621c0.256-0.526,0.777-0.899,1.362-0.897
			c0.825,0.004,1.492,0.674,1.492,1.5c0,0.008,0,0.017,0,0.025C20.495,30.792,20.266,31,19.999,31h-1.998
			C17.732,31,17.504,30.787,17.5,30.517z"/>
		<path fill="#945BA0" d="M9,20c0,6,4,10,4,10h1c0,0,3-4,3-9L9,20z"/>
		<path fill="#D1D4D4" d="M14.5,30.517c0.003-0.195-0.038-0.402-0.145-0.621c-0.256-0.526-0.777-0.899-1.362-0.897
			c-0.825,0.004-1.492,0.674-1.492,1.5c0,0.008,0,0.017,0,0.025c0.005,0.266,0.234,0.475,0.5,0.475h1.998
			C14.268,31,14.496,30.787,14.5,30.517z"/>
		<path fill="#A366AD" d="M25,21c0,6-4,10-4,10h-1c0,0-3-4-3-9L25,21z"/>
		<path fill="#E3E5E5" d="M19.5,31.517c-0.003-0.195,0.038-0.402,0.145-0.621c0.256-0.526,0.777-0.899,1.362-0.897
			c0.825,0.004,1.492,0.674,1.492,1.5c0,0.008,0,0.017,0,0.025C22.495,31.792,22.266,32,21.999,32h-1.998
			C19.732,32,19.504,31.787,19.5,31.517z"/>
		<path fill="#B370B9" d="M7,21c0,6,4,10,4,10h1c0,0,3-4,3-9L7,21z"/>
		<path fill="#EDEEEE" d="M16,14c-5.523,0-10,2.582-10,7s4.477,7,10,7V14z"/>
		<path fill="#E3E5E5" d="M26,21c0-4.418-4.477-7-10-7v14C21.523,28,26,25.418,26,21z"/>
		<path fill="#C27BC6" d="M15.975,22.991V11c-1.527,0.006-3.052,0.59-4.218,1.755c-2.11,2.109-2.316,5.397-0.627,7.741
			c0.077,0.107,0.227,0.135,0.34,0.067l1.55-0.93c0.223-0.134,0.477,0.12,0.343,0.343l-0.93,1.549
			c-0.068,0.113-0.04,0.264,0.067,0.341C13.537,22.613,14.755,22.986,15.975,22.991z"/>
		<path fill="#B370B9" d="M15.975,11v11.991c1.237,0.005,2.475-0.369,3.524-1.125c0.107-0.077,0.134-0.226,0.067-0.339l-0.931-1.551
			c-0.134-0.223,0.12-0.477,0.343-0.343l1.55,0.93c0.113,0.068,0.263,0.04,0.34-0.067c1.689-2.345,1.483-5.632-0.627-7.741
			C19.065,11.577,17.519,10.994,15.975,11z"/>
		<path fill="#EDEEEE" d="M12.5,31.517c0.003-0.195-0.038-0.402-0.145-0.621c-0.256-0.526-0.777-0.899-1.362-0.897
			C10.168,30.004,9.5,30.674,9.5,31.5c0,0.008,0,0.017,0,0.025C9.505,31.792,9.734,32,10.001,32h1.998
			C12.268,32,12.496,31.787,12.5,31.517z"/>
		<path fill="#A2AAB4" d="M24,11c0,3.787-3.582,6-8,6s-8-2.213-8-6s3.582-7,8-7S24,7.213,24,11z"/>
		<path fill="#D285D2" d="M7,2L3,6c3,3,3,11,13,11V4C12,4,9.5,4.5,7,2z"/>
		<path fill="#515E91" d="M7,2L5.207,0.207c-0.276-0.276-0.724-0.276-1,0c-0.276,0.276-0.276,0.724,0,1l-1-1
			c-0.276-0.276-0.724-0.276-1,0c-0.276,0.276-0.276,0.724,0,1l1,1c-0.276-0.276-0.724-0.276-1,0c-0.276,0.276-0.276,0.724,0,1l1,1
			c-0.276-0.276-0.724-0.276-1,0c-0.276,0.276-0.276,0.724,0,1L3,6c0.528,0.528,0.963,1.214,1.376,1.981
			c2.56-0.159,4.683-1.918,5.379-4.293C8.791,3.401,7.895,2.895,7,2z"/>
		<path fill="#F297BE" d="M12,9c0,0-5-5-6-4s4,6,4,6L12,9z"/>
		<path fill="#C27BC6" d="M25,2l4,4c-3,3-3,11-13,11V4C20,4,22.5,4.5,25,2z"/>
		<path fill="#495587" d="M29.793,2.207c-0.276-0.276-0.724-0.276-1,0l1-1c0.276-0.276,0.276-0.724,0-1
			c-0.276-0.276-0.724-0.276-1,0l-1,1c0.276-0.276,0.276-0.724,0-1c-0.276-0.276-0.724-0.276-1,0L25,2
			c-0.895,0.895-1.791,1.401-2.755,1.688c0.696,2.375,2.819,4.134,5.379,4.293C28.037,7.214,28.472,6.528,29,6l0.793-0.793
			c0.276-0.276,0.276-0.724,0-1c-0.276-0.276-0.724-0.276-1,0l1-1C30.069,2.931,30.069,2.483,29.793,2.207z"/>
		<path fill="#EA8BB4" d="M20,9c0,0,5-5,6-4s-4,6-4,6L20,9z"/>
		<path fill="#EDEEEE" d="M16,17v-6.5c-0.936,0-3.627-2.009-3.965-4.078c-0.03-0.185-0.255-0.265-0.4-0.147
			C10.835,6.919,9,8.654,9,11c0,0.367,0.029,0.718,0.084,1.054c0.027,0.168,0.207,0.256,0.36,0.184
			c0.391-0.185,0.837-0.272,1.309-0.225C12.046,12.143,13,13.29,13,14.589v2.033C13.927,16.869,14.938,17,16,17z"/>
		<path fill="#E3E5E5" d="M16,17v-6.5c0.936,0,3.627-2.009,3.965-4.078c0.03-0.185,0.255-0.265,0.4-0.147
			C21.165,6.919,23,8.654,23,11c0,0.367-0.029,0.718-0.084,1.054c-0.027,0.168-0.207,0.256-0.36,0.184
			c-0.391-0.185-0.837-0.272-1.309-0.225C19.954,12.143,19,13.29,19,14.589v2.033C18.073,16.869,17.062,17,16,17z"/>
		<g>
			<path fill="#FFD96C" d="M13.578,10.527c0.226,0.243,0.156,0.629-0.138,0.783C12.878,11.603,12.022,12,11.5,12
				c-0.828,0-1.5-0.672-1.5-1.5S10.672,9,11.5,9C12.067,9,13.028,9.936,13.578,10.527z"/>
			<ellipse fill="#373F3F" cx="11.5" cy="11" rx="0.5" ry="1"/>
			<path fill="#515E91" d="M11.5,9C10.672,9,10,9.672,10,10.5c0,0.176,0.036,0.343,0.092,0.5h3.592
				c0.046-0.16,0.021-0.337-0.106-0.473C13.028,9.936,12.067,9,11.5,9z"/>
		</g>
		<g>
			<path fill="#FFD04D" d="M18.422,10.527c-0.226,0.243-0.156,0.629,0.138,0.783C19.122,11.603,19.978,12,20.5,12
				c0.828,0,1.5-0.672,1.5-1.5S21.328,9,20.5,9C19.933,9,18.972,9.936,18.422,10.527z"/>
			<ellipse fill="#2B3332" cx="20.5" cy="11" rx="0.5" ry="1"/>
			<path fill="#495587" d="M20.5,9c-0.567,0-1.528,0.936-2.078,1.527C18.295,10.663,18.27,10.84,18.316,11h3.592
				C21.964,10.843,22,10.676,22,10.5C22,9.672,21.328,9,20.5,9z"/>
		</g>
		<path fill="#373F3F" d="M1,13.75c-0.027,0-0.055-0.005-0.083-0.014c-0.13-0.046-0.199-0.188-0.153-0.319
			C0.939,12.916,1.412,11.75,2,11.75c0.436,0,0.808,0.64,1.042,1.175C3.262,12.604,3.597,12.25,4,12.25c0.554,0,0.979,0.671,1.154,1
			H11c0.138,0,0.25,0.112,0.25,0.25s-0.112,0.25-0.25,0.25H5c-0.097,0-0.186-0.057-0.227-0.145C4.612,13.261,4.255,12.75,4,12.75
			s-0.612,0.511-0.773,0.855c-0.043,0.092-0.146,0.142-0.239,0.145c-0.102-0.006-0.19-0.071-0.224-0.167
			c-0.231-0.659-0.604-1.308-0.767-1.333c-0.158,0.025-0.53,0.674-0.762,1.333C1.2,13.686,1.103,13.75,1,13.75z"/>
		<path fill="#373F3F" d="M2.68,19.131c-0.549,0-1.231-0.886-1.514-1.289c-0.079-0.113-0.051-0.27,0.062-0.349
			c0.113-0.078,0.269-0.051,0.348,0.062c0.394,0.562,0.915,1.077,1.088,1.077c0.003,0,0.006,0,0.009,0
			c0.146-0.067,0.329-0.792,0.374-1.488c0.006-0.102,0.074-0.189,0.17-0.222c0.099-0.033,0.203-0.002,0.269,0.074
			c0.248,0.289,0.72,0.679,0.976,0.615c0.246-0.069,0.452-0.657,0.514-1.033c0.016-0.096,0.085-0.174,0.179-0.199l5.777-1.619
			c0.131-0.042,0.271,0.04,0.308,0.173s-0.041,0.271-0.173,0.308l-5.628,1.578c-0.08,0.364-0.309,1.125-0.843,1.274
			c-0.385,0.108-0.805-0.143-1.103-0.392c-0.082,0.579-0.268,1.295-0.687,1.413C2.765,19.125,2.723,19.131,2.68,19.131z"/>
		<path fill="#2B3332" d="M31,13.75c-0.103,0-0.2-0.064-0.236-0.167c-0.231-0.659-0.604-1.308-0.767-1.333
			c-0.158,0.025-0.53,0.674-0.762,1.333c-0.034,0.096-0.122,0.161-0.224,0.167c-0.107-0.004-0.197-0.053-0.239-0.145
			C28.612,13.261,28.255,12.75,28,12.75s-0.612,0.511-0.773,0.855C27.186,13.693,27.097,13.75,27,13.75h-6
			c-0.138,0-0.25-0.112-0.25-0.25s0.112-0.25,0.25-0.25h5.846c0.175-0.329,0.6-1,1.154-1c0.403,0,0.738,0.354,0.958,0.675
			C29.192,12.39,29.564,11.75,30,11.75c0.588,0,1.061,1.166,1.236,1.667c0.046,0.131-0.023,0.273-0.153,0.319
			C31.055,13.745,31.027,13.75,31,13.75z"/>
		<path fill="#2B3332" d="M29.32,19.131c-0.043,0-0.085-0.006-0.126-0.017c-0.419-0.118-0.605-0.834-0.687-1.413
			c-0.298,0.25-0.716,0.505-1.104,0.391c-0.534-0.148-0.762-0.909-0.842-1.273l-5.628-1.578c-0.133-0.037-0.21-0.175-0.173-0.308
			s0.176-0.212,0.308-0.173l5.777,1.619c0.094,0.025,0.164,0.104,0.179,0.199c0.062,0.376,0.269,0.964,0.514,1.032
			c0.247,0.073,0.728-0.324,0.976-0.614c0.066-0.076,0.171-0.107,0.269-0.074c0.096,0.032,0.164,0.12,0.17,0.222
			c0.045,0.696,0.229,1.421,0.378,1.489c0.003,0.001,0.005,0.001,0.008,0.001c0.169,0,0.691-0.516,1.085-1.079
			c0.08-0.112,0.236-0.14,0.348-0.062c0.113,0.079,0.141,0.235,0.062,0.349C30.552,18.245,29.87,19.131,29.32,19.131z"/>
		<path fill="#E3E5E5" d="M16,13c-0.519,0-1.844,0.807-3,1.584v2.127C13.888,16.895,14.878,17,16,17V13z"/>
		<path fill="#DADDDC" d="M19,16.712v-2.127C17.844,13.807,16.519,13,16,13v4C17.122,17,18.112,16.895,19,16.712z"/>
		<path fill="#373F3F" d="M16,10c-0.276,0-0.5,0.224-0.5,0.5c0,0.276,0.224,0.5,0.5,0.5V10z"/>
		<path fill="#2B3332" d="M16.5,10.5c0-0.276-0.224-0.5-0.5-0.5v1C16.276,11,16.5,10.776,16.5,10.5z"/>
	</g>
</g>
</svg>
