<svg xmlns="http://www.w3.org/2000/svg" width="32" height="32"><path fill="#54B668" d="M16 3C9.373 3 4 8.82 4 16s5.373 13 12 13V3z"/><path fill="#4EAC5D" d="M28 16c0-7.18-5.373-13-12-13v26c6.627 0 12-5.82 12-13z"/><path fill="#349363" d="M16 7c-4.411 0-8 4.037-8 9s3.589 9 8 9V7z"/><path fill="#338C5D" d="M24 16c0-4.963-3.589-9-8-9v18c4.411 0 8-4.037 8-9z"/><circle fill="#338C5D" cx="26" cy="9" r="3"/><circle fill="#338C5D" cx="26" cy="23" r="3"/><circle fill="#349363" cx="6" cy="9" r="3"/><circle fill="#349363" cx="6" cy="23" r="3"/><path fill="#379B6D" d="M16 10c-2.757 0-5 2.691-5 6s2.243 6 5 6V10z"/><path fill="#349363" d="M21 16c0-3.309-2.243-6-5-6v12c2.757 0 5-2.691 5-6z"/><ellipse fill="#FFE28A" cx="11.5" cy="16" rx="2.5" ry="3.5"/><ellipse fill="#373F3F" cx="11.5" cy="16" rx="1" ry="2"/><ellipse fill="#FFD96C" cx="20.5" cy="16" rx="2.5" ry="3.5"/><ellipse fill="#2B3332" cx="20.5" cy="16" rx="1" ry="2"/><circle fill="#54B668" cx="13" cy="11" r="1"/><circle fill="#4EAC5D" cx="19" cy="11" r="1"/><circle fill="#54B668" cx="13" cy="21" r="1"/><circle fill="#4EAC5D" cx="19" cy="21" r="1"/><path fill="#349363" d="M16 0a3 3 0 100 6V0z"/><path fill="#338C5D" d="M19 3a3 3 0 00-3-3v6a3 3 0 003-3z"/><path fill="#349363" d="M16 26a3 3 0 100 6v-6z"/><path fill="#338C5D" d="M19 29a3 3 0 00-3-3v6a3 3 0 003-3z"/><path fill="#54B668" d="M16 14a2 2 0 100 4v-4z"/><path fill="#4EAC5D" d="M18 16a2 2 0 00-2-2v4a2 2 0 002-2z"/></svg>