<?xml version="1.0" encoding="utf-8"?>
<!-- Generator: Adobe Illustrator 23.0.6, SVG Export Plug-In . SVG Version: 6.00 Build 0)  -->
<svg version="1.1" xmlns="http://www.w3.org/2000/svg" xmlns:xlink="http://www.w3.org/1999/xlink" x="0px" y="0px" width="32px"
	 height="32px" viewBox="0 0 32 32" enable-background="new 0 0 32 32" xml:space="preserve">
<g id="labels">
</g>
<g id="icons">
	<g>
		<ellipse fill="#707EB7" cx="10" cy="3" rx="2" ry="3"/>
		<path fill="#D4C9EF" d="M10,3c0.717,0,1.382,0.217,1.937,0.587C11.976,3.397,12,3.201,12,3c0-0.606-0.203-1.169-0.482-1.641
			C11.057,1.136,10.546,1,10,1S8.943,1.136,8.482,1.359C8.203,1.831,8,2.394,8,3c0,0.201,0.024,0.397,0.063,0.587
			C8.618,3.217,9.283,3,10,3z"/>
		<ellipse fill="#6673AA" cx="22" cy="3" rx="2" ry="3"/>
		<path fill="#C6B7E9" d="M22,3c0.717,0,1.382,0.217,1.937,0.587C23.976,3.397,24,3.201,24,3c0-0.606-0.203-1.169-0.482-1.641
			C23.057,1.136,22.546,1,22,1s-1.057,0.136-1.518,0.359C20.203,1.831,20,2.394,20,3c0,0.201,0.024,0.397,0.063,0.587
			C20.618,3.217,21.283,3,22,3z"/>
		<path fill="#5B689D" d="M11.437,26.402c0-1.938-0.103-6.341-1.771-6.152C7.229,21.75,4,23.527,4,25.964
			c0,1.391,0.499,2.483,1.279,3.176c0.218,0.417,0.346,0.602,0.232,0.794C5.237,30.395,4.154,32,4.154,32s4.193,0,4.889,0
			c-0.373-0.485-0.771-1.045-0.871-1.344c-0.044-0.131,0.089-0.302,0.289-0.807C10.3,29.461,11.437,28.05,11.437,26.402z"/>
		<path fill="#EDEEEE" d="M5.281,31.125c-0.295,0-1.098,0.358-1.098,0.875h1.615C5.837,31.766,5.826,31.125,5.281,31.125z"/>
		<path fill="#EDEEEE" d="M8.136,31.125c0.295,0,1.098,0.358,1.098,0.875H7.619C7.58,31.766,7.591,31.125,8.136,31.125z"/>
		<path fill="#EDEEEE" d="M5.999,32c0-0.323,0.259-0.783,0.754-0.754c0.366,0.022,0.603,0.28,0.56,0.754H5.999z"/>
		<path fill="#EDEEEE" d="M6.5,23.5l-1.238,1.238c-0.129,0.129-0.346,0.085-0.41-0.085c-0.211-0.555-0.523-1.656-0.044-2.412
			c0.086-0.135,0.278-0.155,0.391-0.042L6.5,23.5z"/>
		<path fill="#EDEEEE" d="M7.823,22.177L6,24c0,0-0.851-2.552-0.198-3.733c0.082-0.149,0.282-0.183,0.402-0.063l1.619,1.619
			C7.921,21.921,7.921,22.079,7.823,22.177z"/>
		<path fill="#515E91" d="M26.721,29.14C27.501,28.447,28,27.356,28,25.964c0-2.438-3.229-4.214-5.667-5.714
			c-1.668-0.19-1.771,4.214-1.771,6.152c0,1.648,1.138,3.06,2.976,3.448c0.2,0.504,0.333,0.676,0.289,0.807
			c-0.1,0.299-0.498,0.858-0.871,1.344c0.697,0,4.889,0,4.889,0s-1.082-1.605-1.356-2.065C26.375,29.742,26.503,29.558,26.721,29.14
			z"/>
		<path fill="#E3E5E5" d="M26.719,31.125c0.295,0,1.098,0.358,1.098,0.875h-1.615C26.163,31.766,26.174,31.125,26.719,31.125z"/>
		<path fill="#E3E5E5" d="M23.864,31.125c-0.295,0-1.098,0.358-1.098,0.875h1.615C24.42,31.766,24.409,31.125,23.864,31.125z"/>
		<path fill="#E3E5E5" d="M26.001,32c0-0.323-0.259-0.783-0.754-0.754c-0.366,0.022-0.603,0.28-0.56,0.754H26.001z"/>
		<path fill="#E3E5E5" d="M25.5,23.5l1.238,1.238c0.129,0.129,0.346,0.085,0.41-0.085c0.211-0.555,0.523-1.656,0.045-2.412
			c-0.086-0.135-0.278-0.155-0.391-0.042L25.5,23.5z"/>
		<path fill="#E3E5E5" d="M24.177,22.177L26,24c0,0,0.851-2.552,0.198-3.733c-0.082-0.149-0.282-0.183-0.402-0.063l-1.619,1.619
			C24.079,21.921,24.079,22.079,24.177,22.177z"/>
		<g>
			<path fill="#DD564C" d="M18.8,10.357V9H16v19.993c3.865-0.001,7-2.978,7-6.66c0-1.481-0.508-2.848-1.368-3.953
				C19.822,16.052,18.8,13.255,18.8,10.357z"/>
			<path fill="#E55D53" d="M16,9h-2.8v1.035c0,2.94-0.829,5.895-2.727,8.214c-1.154,1.41-1.726,3.273-1.366,5.266
				c0.474,2.625,2.646,4.791,5.384,5.335c0.512,0.102,1.016,0.143,1.509,0.143V9z"/>
			<path fill="#6673AA" d="M10.473,18.249c-0.529,0.647-0.928,1.392-1.179,2.197C15.771,17.311,14,11.825,14,9l-0.8-1v2.035
				C13.2,12.975,12.371,15.93,10.473,18.249z"/>
			<path fill="#5B689D" d="M21.535,18.249c0.529,0.647,0.928,1.392,1.179,2.197C16.237,17.311,18.008,11.825,18.008,9l0.8-1v2.035
				C18.808,12.975,19.637,15.93,21.535,18.249z"/>
		</g>
		<path fill="#6673AA" d="M14,11.035l-1.35-0.699c-0.387-0.2-0.859-0.127-1.167,0.181l-0.19,0.19
			c-0.188,0.188-0.442,0.293-0.707,0.293H4.618c-0.379,0-0.725,0.214-0.894,0.553l-3.34,6.679c-0.112,0.224,0.138,0.455,0.352,0.326
			L2.5,17.501l2.5-1h0.669c0.166,0,0.286-0.159,0.24-0.319L5,13.001L10.764,13c0.155,0,0.309,0.036,0.447,0.106L13,14.001L14,11.035
			z"/>
		<path fill="#EDEEEE" d="M2.844,15.778L2.5,17.501l2.073,2.073C4.731,19.731,5,19.62,5,19.397v-2.896l-1.365-1.024
			C3.34,15.256,2.917,15.418,2.844,15.778z"/>
		<path fill="#5B689D" d="M18,11.035l1.35-0.699c0.387-0.2,0.859-0.127,1.167,0.181l0.19,0.19c0.188,0.188,0.442,0.293,0.707,0.293
			h5.968c0.379,0,0.725,0.214,0.894,0.553l3.34,6.679c0.112,0.224-0.138,0.455-0.352,0.326L29.5,17.501l-2.5-1h-0.669
			c-0.166,0-0.286-0.159-0.24-0.319L27,13.001L21.236,13c-0.155,0-0.309,0.036-0.447,0.106L19,14.001L18,11.035z"/>
		<path fill="#E3E5E5" d="M29.156,15.778l0.344,1.722l-2.073,2.073C27.269,19.731,27,19.62,27,19.397v-2.896l1.365-1.024
			C28.66,15.256,29.083,15.418,29.156,15.778z"/>
		<path fill="#E7685F" d="M16,0c-2.761,0-5,1.99-5,4.444C11,6.899,13.5,10,16,10V0z"/>
		<path fill="#E55D53" d="M21,4.444C21,1.99,18.761,0,16,0v10C18.5,10,21,6.899,21,4.444z"/>
		<ellipse fill="#FFFFFF" cx="13" cy="7" rx="0.5" ry="1"/>
		<ellipse fill="#FFFFFF" cx="14.5" cy="7.5" rx="0.5" ry="1"/>
		<ellipse fill="#F7F7F7" cx="19" cy="7" rx="0.5" ry="1"/>
		<ellipse fill="#F7F7F7" cx="17.5" cy="7.5" rx="0.5" ry="1"/>
		<path fill="#707EB7" d="M16,0c-2.761,0-5,1.99-5,4.444c0,2.455,3.75,3.333,5,3.333V0z"/>
		<path fill="#6673AA" d="M21,4.444C21,1.99,18.761,0,16,0v7.778C17.25,7.778,21,6.899,21,4.444z"/>
		<g>
			<path fill="#2B3332" d="M17.011,4.873c-0.109-0.405,0.603-0.686,1.337-0.883c0.734-0.197,1.491-0.309,1.6,0.096
				c0.217,0.811-0.264,1.645-1.075,1.862C18.062,6.165,17.228,5.684,17.011,4.873z"/>
			<path fill="#F0C13E" d="M18.348,3.99c-0.259,0.069-0.514,0.15-0.733,0.242c0.087,0.707,0.498,1.243,0.995,1.243
				c0.56,0,1.013-0.681,1.013-1.52c0-0.042-0.006-0.081-0.008-0.122C19.304,3.773,18.823,3.863,18.348,3.99z"/>
			<path fill="#2B3332" d="M19.105,3.833c-0.236,0.029-0.497,0.087-0.757,0.157c-0.079,0.021-0.157,0.044-0.234,0.067
				c0.027,0.51,0.235,0.912,0.497,0.912c0.28,0,0.507-0.454,0.507-1.013C19.117,3.912,19.108,3.875,19.105,3.833z"/>
		</g>
		<g>
			<path fill="#373F3F" d="M14.989,4.873c0.109-0.405-0.603-0.686-1.337-0.883c-0.734-0.197-1.491-0.309-1.6,0.096
				c-0.217,0.811,0.264,1.645,1.075,1.862C13.938,6.165,14.772,5.684,14.989,4.873z"/>
			<path fill="#F7C845" d="M13.652,3.99c0.259,0.069,0.514,0.15,0.733,0.242c-0.087,0.707-0.498,1.243-0.995,1.243
				c-0.56,0-1.013-0.681-1.013-1.52c0-0.042,0.006-0.081,0.008-0.122C12.696,3.773,13.177,3.863,13.652,3.99z"/>
			<path fill="#373F3F" d="M12.895,3.833c0.236,0.029,0.497,0.087,0.757,0.157c0.079,0.021,0.157,0.044,0.234,0.067
				c-0.027,0.51-0.235,0.912-0.497,0.912c-0.28,0-0.507-0.454-0.507-1.013C12.883,3.912,12.892,3.875,12.895,3.833z"/>
		</g>
		<path fill="#D4C9EF" d="M16,22.414c-0.256,0-0.512,0.098-0.707,0.293l-1.741,1.741c-0.324,0.324-0.828,0.386-1.222,0.15
			l-3.318-1.99c0.013,0.299,0.039,0.6,0.094,0.907c0.474,2.625,2.646,4.791,5.384,5.335c0.512,0.102,1.016,0.145,1.509,0.145V22.414
			z"/>
		<path fill="#C6B7E9" d="M22.983,22.61l-3.314,1.988c-0.393,0.236-0.897,0.174-1.222-0.15l-1.741-1.741
			c-0.195-0.195-0.451-0.293-0.707-0.293v6.58C19.765,28.993,22.83,26.162,22.983,22.61z"/>
		<path fill="#C6B7E9" d="M14.491,28.85c0.512,0.102,1.016,0.145,1.509,0.145V27c-2.648,0-5.022-1.023-6.669-2.642
			C10.072,26.593,12.054,28.365,14.491,28.85z"/>
		<path fill="#B8A5E4" d="M16,27v1.995c3.112-0.001,5.74-1.938,6.647-4.615C21.001,25.986,18.637,27,16,27z"/>
	</g>
</g>
</svg>
