<?xml version="1.0" encoding="utf-8"?>
<!-- Generator: Adobe Illustrator 23.0.6, SVG Export Plug-In . SVG Version: 6.00 Build 0)  -->
<svg version="1.1" xmlns="http://www.w3.org/2000/svg" xmlns:xlink="http://www.w3.org/1999/xlink" x="0px" y="0px" width="32px"
	 height="32px" viewBox="0 0 32 32" enable-background="new 0 0 32 32" xml:space="preserve">
<g id="labels">
</g>
<g id="icons">
	<g>
		<rect x="14" y="15" fill="#F0C877" width="2" height="2"/>
		<rect x="16" y="15" fill="#E8BA67" width="2" height="2"/>
		<path fill="#396186" d="M16,24c0,0,5-3,5-9s4-6,4-6s4,0,4,6c0,8-13,10-13,10V24z"/>
		<polygon fill="#2B3332" points="19.081,32 17.081,32 17.581,25 18.581,25 		"/>
		<path fill="#373F3F" d="M19.747,32h-1.414c-0.167,0-0.294-0.163-0.241-0.321C18.227,31.284,18.6,31,19.04,31
			s0.814,0.284,0.947,0.679C20.041,31.837,19.914,32,19.747,32z"/>
		<path fill="#373F3F" d="M17.828,32h-1.414c-0.167,0-0.294-0.163-0.241-0.321C16.307,31.284,16.681,31,17.121,31
			s0.814,0.284,0.947,0.679C18.122,31.837,17.995,32,17.828,32z"/>
		<path fill="#434C4B" d="M18.747,32h-1.414c-0.167,0-0.294-0.163-0.241-0.321C17.227,31.284,17.6,31,18.04,31
			s0.814,0.284,0.947,0.679C19.041,31.837,18.914,32,18.747,32z"/>
		<polygon fill="#373F3F" points="15,32 13,32 13.5,25 14.5,25 		"/>
		<path fill="#434C4B" d="M15.667,32h-1.414c-0.167,0-0.294-0.163-0.241-0.321C14.146,31.284,14.52,31,14.96,31
			s0.814,0.284,0.947,0.679C15.961,31.837,15.834,32,15.667,32z"/>
		<path fill="#434C4B" d="M13.747,32h-1.414c-0.167,0-0.294-0.163-0.241-0.321C12.227,31.284,12.6,31,13.04,31
			s0.814,0.284,0.947,0.679C14.041,31.837,13.914,32,13.747,32z"/>
		<path fill="#505957" d="M14.667,32h-1.414c-0.167,0-0.294-0.163-0.241-0.321C13.146,31.284,13.52,31,13.96,31
			s0.814,0.284,0.947,0.679C14.961,31.837,14.834,32,14.667,32z"/>
		<path fill="#5CA3D5" d="M16,17h-2l-0.074,0.556c-0.186,1.392-0.607,2.75-1.31,3.966C12.141,22.342,12,22.848,12,23.5
			c0,1.381,0.995,2.5,2.222,2.5c0.122,0,0.241-0.011,0.357-0.033c0.474-0.088,0.948-0.131,1.421-0.131V17z"/>
		<path fill="#529CCF" d="M18.074,17.556L18,17h-2v8.836c0.473,0,0.946,0.044,1.421,0.131C17.537,25.989,17.656,26,17.778,26
			C19.005,26,20,24.881,20,23.5c0-0.652-0.141-1.158-0.615-1.977C18.682,20.307,18.26,18.949,18.074,17.556z"/>
		<path fill="#529CCF" d="M18,17v1c0,0,3.03,2.275,3.814,5.173C21.333,23.423,21,23.92,21,24.5c0,0.828,0.672,1.5,1.5,1.5
			s1.5-0.672,1.5-1.5C24,21,20,17,18,17z"/>
		<path fill="#5CA3D5" d="M8,23.5C8,24.328,8.672,25,9.5,25s1.5-0.672,1.5-1.5c0-0.574-0.327-1.068-0.801-1.32
			C11.002,19.503,14,18,14,18v-1C12,17,8,20,8,23.5z"/>
		<path fill="#65A9DC" d="M16,2.823c-0.683,0-1.342,0.088-1.971,0.24C13.133,1.705,11.896,0,11.333,0c-0.933,0-2.8,5.647-2.8,9.412
			C8.533,13.05,11.876,16,16,16V2.823z"/>
		<path fill="#5CA3D5" d="M23.467,9.412C23.467,5.647,21.6,0,20.667,0c-0.562,0-1.799,1.705-2.696,3.063
			c-0.629-0.152-1.287-0.24-1.971-0.24V16C20.124,16,23.467,13.05,23.467,9.412z"/>
		<path fill="#373F3F" d="M29.289,9.941c-0.751-0.757-4.452-3.514-6.429-4.153c-1.59-1.02-5.255,1.742-6.86,1.742v4.706
			c0.933,0,1.867,0,1.867-1.882c0-1.602,2.702,2.237,4.658,2.258c0.476-0.755,0.782-1.602,0.89-2.502
			c0.957,1.481,2.018,2.864,2.443,3.292c0.948,0.955,2.484,0.955,3.431,0C30.237,12.446,30.237,10.896,29.289,9.941z"/>
		<path fill="#434C4B" d="M9.14,5.788C7.162,6.427,3.462,9.184,2.711,9.941c-0.948,0.955-0.948,2.505,0,3.46s2.484,0.955,3.431,0
			c0.425-0.428,1.486-1.811,2.443-3.292c0.108,0.9,0.414,1.747,0.89,2.502c1.956-0.021,4.658-3.86,4.658-2.258
			c0,1.882,0.933,1.882,1.867,1.882V7.529C14.394,7.529,10.729,4.767,9.14,5.788z"/>
		<path fill="#FFFFFF" d="M12.566,8.337L9.627,7.235c-0.319-0.12-0.663,0.104-0.676,0.444C8.91,8.82,9.024,11,10.5,11
			c1.445,0,2.107-1.305,2.363-2.03C12.954,8.713,12.821,8.433,12.566,8.337z"/>
		<path fill="#DD564C" d="M11.868,10.5C11.95,10.172,12,9.765,12,9.25c0-0.472-0.043-0.852-0.112-1.167l-1.574-0.59
			C10.121,7.854,10,8.423,10,9.25c0,0.798,0.112,1.36,0.292,1.723C10.36,10.984,10.425,11,10.5,11
			C11.072,11,11.518,10.792,11.868,10.5z"/>
		<ellipse fill="#373F3F" cx="11" cy="9" rx="0.5" ry="1"/>
		<path fill="#F7F7F7" d="M19.434,8.337l2.939-1.102c0.319-0.12,0.663,0.104,0.676,0.444C23.09,8.82,22.976,11,21.5,11
			c-1.445,0-2.107-1.305-2.363-2.03C19.046,8.713,19.179,8.433,19.434,8.337z"/>
		<path fill="#D64F45" d="M20.132,10.5C20.05,10.172,20,9.765,20,9.25c0-0.472,0.043-0.852,0.112-1.167l1.574-0.59
			C21.879,7.854,22,8.423,22,9.25c0,0.798-0.112,1.36-0.292,1.723C21.64,10.984,21.575,11,21.5,11
			C20.928,11,20.482,10.792,20.132,10.5z"/>
		<ellipse fill="#2B3332" cx="21" cy="9" rx="0.5" ry="1"/>
		<path fill="#434C4B" d="M16,17h-2l-0.074,0.556c-0.122,0.917-0.358,1.815-0.698,2.671l0.875,1.219
			c0.197,0.274,0.604,0.279,0.806,0.008L16,20V17z"/>
		<path fill="#373F3F" d="M18,17h-2v3l1.091,1.455c0.203,0.27,0.609,0.266,0.806-0.008l0.875-1.219
			c-0.34-0.856-0.576-1.754-0.698-2.671L18,17z"/>
	</g>
</g>
</svg>
