<?xml version="1.0" encoding="utf-8"?>
<!-- Generator: Adobe Illustrator 23.0.6, SVG Export Plug-In . SVG Version: 6.00 Build 0)  -->
<svg version="1.1" xmlns="http://www.w3.org/2000/svg" xmlns:xlink="http://www.w3.org/1999/xlink" x="0px" y="0px" width="32px"
	 height="32px" viewBox="0 0 32 32" enable-background="new 0 0 32 32" xml:space="preserve">
<g id="labels">
</g>
<g id="icons">
	<g>
		<path fill="#C8CCCB" d="M23.964,13c1.12,0,2.968,0.784,4,2c2.655,3.129,4,9.12,4,12c0,2.337-3,2-4,2
			c-2.343,0-1.027-7.317-2.242-11c-0.341-1.034-0.881-1.781-1.758-2C21.795,15.458,23.964,13,23.964,13z"/>
		<path fill="#377AA0" d="M27.964,24l1-2l2,2l0.286-1.839c0.473,1.866,0.714,3.628,0.714,4.839c0,2.337-3,2-4,2
			c-1.516,0-1.501-3.063-1.63-6.222L27.964,24z"/>
		<path fill="#D1D4D4" d="M8,13c-1.12,0-2.968,0.784-4,2c-2.655,3.129-4,9.12-4,12c0,2.337,3,2,4,2c2.343,0,1.027-7.317,2.242-11
			C6.583,16.966,7.123,16.219,8,16C10.169,15.458,8,13,8,13z"/>
		<path fill="#D1D4D4" d="M8,13c-1.12,0-2.968,0.784-4,2c-2.655,3.129-4,9.12-4,12c0,2.337,3,2,4,2c2.343,0,1.027-7.317,2.242-11
			C6.583,16.966,7.123,16.219,8,16C10.169,15.458,8,13,8,13z"/>
		<path fill="#7D883A" d="M14.45,17.447c0.82,9.191-2.69,13.855-3.818,14.467c-0.217,0.118-0.472,0.113-0.689-0.005
			c-1.021-0.558-3.932-4.766-3.932-11.826C6.011,16.387,10.694,17.272,14.45,17.447z"/>
		<path fill="#778238" d="M17.634,17.447c-0.82,9.191,2.69,13.855,3.818,14.467c0.217,0.118,0.472,0.113,0.689-0.005
			c1.021-0.558,3.932-4.766,3.932-11.826C26.073,16.387,21.39,17.272,17.634,17.447z"/>
		<path fill="#D1D4D4" d="M26,20c0-8-5.029-14-10-14S6,12,6,20c0,4.971,3,10,10,10S26,24.971,26,20z"/>
		<path fill="#DADDDC" d="M16,6C11.029,6,6,12,6,20c0,4.971,3,10,10,10V6z"/>
		<ellipse fill="#FFFFFF" cx="12" cy="14.5" rx="2" ry="2.5"/>
		<path fill="#3980A8" d="M13.665,13.117C13.522,13.042,13.365,13,13.2,13c-0.663,0-1.2,0.672-1.2,1.5s0.537,1.5,1.2,1.5
			c0.165,0,0.322-0.042,0.465-0.117C13.876,15.487,14,15.012,14,14.5S13.876,13.513,13.665,13.117z"/>
		<ellipse fill="#F7F7F7" cx="20" cy="14.5" rx="2" ry="2.5"/>
		<path fill="#377AA0" d="M18.335,13.117C18.478,13.042,18.635,13,18.8,13c0.663,0,1.2,0.672,1.2,1.5S19.463,16,18.8,16
			c-0.165,0-0.322-0.042-0.465-0.117C18.124,15.487,18,15.012,18,14.5S18.124,13.513,18.335,13.117z"/>
		<g>
			<path fill="#E3E5E5" d="M15.968,0.061l-2.183,3.701C13.73,3.857,13.59,3.84,13.558,3.735l-0.483-1.611
				c-0.03-0.1-0.162-0.121-0.222-0.036l-6.442,9.202c-0.203,0.289-0.05,0.693,0.294,0.773c1.249,0.289,4.209,0.813,9.295,0.813
				V0.044C15.99,0.052,15.976,0.049,15.968,0.061z"/>
			<path fill="#DADDDC" d="M25.589,11.289l-6.44-9.2c-0.06-0.086-0.192-0.064-0.222,0.036l-0.448,1.493
				c-0.031,0.105-0.173,0.122-0.228,0.027l-2.066-3.581C16.143-0.008,16.057-0.006,16,0.044v12.833c0,0,0,0,0.001,0
				c5.052,0,8.035-0.525,9.293-0.815C25.639,11.983,25.792,11.579,25.589,11.289z"/>
		</g>
		<path fill="#869642" d="M16,23.5c-0.173,0-0.235-0.026-0.328-0.163c-0.45-0.663-1.496-2.267-1.496-2.267
			c-0.098-0.098-0.256-0.098-0.354,0l-1.608,1.714c-0.112,0.112-0.297,0.093-0.385-0.038l-1.632-2.635
			c-0.088-0.131-0.273-0.15-0.385-0.038l-1.559,1.672c-0.123,0.123-0.33,0.09-0.403-0.069C7.432,20.751,6.248,18.159,6.107,18
			C6.037,18.65,6,19.318,6,20c0,4.971,3,10,10,10V23.5z"/>
		<path fill="#828E3D" d="M16,27l-1.823-1.823c-0.098-0.098-0.256-0.098-0.354,0l-1.608,1.608c-0.112,0.112-0.297,0.093-0.385-0.038
			l-1.708-2.563c-0.07-0.105-0.207-0.141-0.32-0.085L8.18,24.91c-0.105,0.052-0.232,0.025-0.306-0.066L6.381,23
			c1.006,3.81,4.044,7,9.619,7V27z"/>
		<path fill="#828E3D" d="M16,23.5c0.173,0,0.236-0.025,0.328-0.163c0.394-0.593,1.523-2.267,1.523-2.267
			c0.098-0.098,0.256-0.098,0.354,0l1.58,1.714c0.112,0.112,0.297,0.093,0.385-0.038l1.645-2.632
			c0.088-0.131,0.273-0.15,0.385-0.038l1.546,1.669c0.123,0.123,0.33,0.09,0.403-0.069c0.42-0.925,1.604-3.517,1.746-3.675
			C25.963,18.65,26,19.318,26,20c0,4.971-3,10-10,10V23.5z"/>
		<path fill="#7D883A" d="M16,27l1.823-1.823c0.098-0.098,0.256-0.098,0.354,0l1.608,1.608c0.112,0.112,0.297,0.093,0.385-0.038
			l1.708-2.563c0.07-0.105,0.207-0.141,0.32-0.085l1.623,0.811c0.105,0.052,0.232,0.025,0.306-0.066L25.619,23
			c-1.006,3.81-4.044,7-9.619,7V27z"/>
		<path fill="#EDEEEE" d="M15.955,0c-0.012,0.009-0.023,0.021-0.031,0.036c0,0-5.879,9.978-5.879,12.577
			c1.498,0.163,3.452,0.29,5.91,0.29L15.955,0z"/>
		<path fill="#E3E5E5" d="M16.001,0c0.012,0.009,0.023,0.021,0.031,0.036c0,0,5.879,9.978,5.879,12.577
			c-1.498,0.163-3.452,0.29-5.91,0.29L16.001,0z"/>
		<g>
			<path fill="#F7F7F7" d="M15.968,0.061l-2.183,3.701C13.73,3.857,13.59,3.84,13.558,3.735l-0.483-1.611
				c-0.03-0.1-0.162-0.121-0.222-0.036L10,6.164C10,6.164,12,7,16,7V0.044C15.99,0.052,15.976,0.049,15.968,0.061z"/>
			<path fill="#EDEEEE" d="M19.149,2.088c-0.06-0.086-0.192-0.064-0.222,0.036l-0.448,1.493c-0.031,0.105-0.173,0.122-0.228,0.027
				l-2.066-3.581C16.143-0.008,16.057-0.006,16,0.044V7c3,0,5.887-1,5.887-1L19.149,2.088z"/>
		</g>
		<circle fill="#D1D4D4" cx="20" cy="23" r="0.5"/>
		<circle fill="#D1D4D4" cx="24" cy="22" r="0.5"/>
		<circle fill="#DADDDC" cx="12" cy="23" r="0.5"/>
		<circle fill="#DADDDC" cx="8" cy="22" r="0.5"/>
		<circle fill="#D1D4D4" cx="16" cy="23.5" r="0.5"/>
		<path fill="#DADDDC" d="M16,23c-0.276,0-0.5,0.224-0.5,0.5S15.724,24,16,24V23z"/>
		<path fill="#3980A8" d="M4,24l-1-2l-2,2l-0.286-1.839C0.241,24.027,0,25.789,0,27c0,2.337,3,2,4,2c1.516,0,1.501-3.063,1.63-6.222
			L4,24z"/>
	</g>
</g>
</svg>
