<?xml version="1.0" encoding="utf-8"?>
<!-- Generator: Adobe Illustrator 23.0.6, SVG Export Plug-In . SVG Version: 6.00 Build 0)  -->
<svg version="1.1" xmlns="http://www.w3.org/2000/svg" xmlns:xlink="http://www.w3.org/1999/xlink" x="0px" y="0px" width="32px"
	 height="32px" viewBox="0 0 32 32" enable-background="new 0 0 32 32" xml:space="preserve">
<g id="labels">
</g>
<g id="icons">
	<g>
		<path fill="#DADDDC" d="M14.726,1h2.548c0.128,0,0.236,0.097,0.249,0.225L19,16h-6l1.477-14.775C14.49,1.097,14.598,1,14.726,1z"
			/>
		<g>
			<path fill="#D1D4D4" d="M17.523,1.225C17.51,1.097,17.402,1,17.274,1h-1.221v15H19L17.523,1.225z"/>
		</g>
		<path fill="#3A9384" d="M16,22v5l-3,1l1.15,3.337C14.262,31.662,14.021,32,13.678,32h-5.53c-0.298,0-0.53-0.26-0.497-0.556
			l0.625-5.517L16,22z"/>
		<path fill="#3E9B8D" d="M16,19v6l-4.614,1.846c-0.224,0.09-0.352,0.326-0.305,0.562l0.859,4.293
			C11.971,31.856,11.853,32,11.695,32H4.283c-0.15,0-0.267-0.132-0.248-0.281l0.896-7.164c0.043-0.345,0.262-0.643,0.578-0.786
			L16,19z"/>
		<g>
			<path fill="#D1D4D4" d="M7.225,0.034L5.082,1.271C4.959,1.342,4.92,1.503,4.997,1.623l8.656,13.397v-3L7.573,0.136
				C7.507,0.009,7.349-0.038,7.225,0.034z"/>
		</g>
		<g>
			<path fill="#D1D4D4" d="M3.932,2.151L2.164,3.919C2.066,4.017,2.067,4.176,2.165,4.273l11.489,11.368v-4.243L4.285,2.15
				C4.187,2.053,4.029,2.054,3.932,2.151z"/>
		</g>
		<g>
			<path fill="#D1D4D4" d="M1.296,5.047L0.034,7.233C-0.034,7.35,0.003,7.498,0.117,7.57l13.537,8.548v-5.196L1.624,4.948
				C1.505,4.889,1.362,4.932,1.296,5.047z"/>
		</g>
		<path fill="#DADDDC" d="M1.835,11.032l-0.652,2.433c-0.034,0.126,0.035,0.257,0.159,0.301L16,18.898V14.5L2.14,10.855
			C2.007,10.82,1.871,10.899,1.835,11.032z"/>
		<path fill="#DADDDC" d="M8.365,26.305l-1.837-1.696c-0.101-0.093-0.108-0.251-0.015-0.352L16,12.194v4.239L8.719,26.29
			C8.625,26.392,8.466,26.399,8.365,26.305z"/>
		<path fill="#DADDDC" d="M12.055,27.746l-2.396-0.713c-0.132-0.039-0.207-0.178-0.169-0.31l4.575-15.685l2.02,3.731l-3.719,12.806
			C12.327,27.709,12.188,27.785,12.055,27.746z"/>
		<path fill="#DADDDC" d="M13.302,1.317l-2.415,0.647c-0.124,0.033-0.203,0.155-0.182,0.282l2.397,14.531L16,15.224L13.613,1.515
			C13.588,1.37,13.444,1.279,13.302,1.317z"/>
		<path fill="#DADDDC" d="M9.571,2.514L7.429,3.751C7.305,3.823,7.266,3.983,7.344,4.103L16,17.5v-3L9.919,2.617
			C9.854,2.489,9.695,2.442,9.571,2.514z"/>
		<path fill="#DADDDC" d="M6.278,4.631L4.51,6.399C4.412,6.497,4.413,6.656,4.511,6.754L16,18.121v-4.243L6.631,4.63
			C6.533,4.534,6.376,4.534,6.278,4.631z"/>
		<path fill="#DADDDC" d="M3.642,7.527L2.38,9.714C2.313,9.83,2.349,9.979,2.463,10.05L16,18.598v-5.196L3.97,7.428
			C3.852,7.37,3.708,7.413,3.642,7.527z"/>
		<path fill="#DADDDC" d="M1,14.871v2.524c0,0.129,0.098,0.237,0.227,0.249L16,19v-4.5L1.248,14.621C1.111,14.622,1,14.734,1,14.871
			z"/>
		<path fill="#DADDDC" d="M1.187,18.797l0.652,2.435c0.034,0.126,0.158,0.204,0.286,0.181L16,18.898V14.5L1.363,18.491
			C1.23,18.527,1.152,18.664,1.187,18.797z"/>
		<path fill="#DADDDC" d="M2.378,22.529l1.262,2.186c0.067,0.116,0.213,0.158,0.331,0.097L16,18.598v-5.196L2.459,22.195
			C2.347,22.267,2.312,22.414,2.378,22.529z"/>
		<path fill="#318474" d="M16,22v5l3,1l-1.15,3.337C17.738,31.662,17.979,32,18.322,32h5.53c0.298,0,0.53-0.26,0.497-0.556
			l-0.625-5.517L16,22z"/>
		<path fill="#378C7C" d="M16,19v6l4.614,1.846c0.224,0.09,0.352,0.326,0.305,0.562l-0.859,4.293C20.029,31.856,20.147,32,20.305,32
			h7.412c0.15,0,0.267-0.132,0.248-0.281l-0.896-7.164c-0.043-0.345-0.262-0.643-0.578-0.786L16,19z"/>
		<g>
			<path fill="#C8CCCB" d="M24.775,0.034l2.143,1.237c0.124,0.071,0.163,0.232,0.085,0.352L18.346,15.02v-3l6.081-11.883
				C24.493,0.009,24.651-0.038,24.775,0.034z"/>
		</g>
		<g>
			<path fill="#C8CCCB" d="M28.068,2.151l1.768,1.768c0.098,0.098,0.098,0.257-0.001,0.354L18.346,15.641v-4.243l9.369-9.249
				C27.813,2.053,27.971,2.054,28.068,2.151z"/>
		</g>
		<g>
			<path fill="#C8CCCB" d="M30.704,5.047l1.262,2.187c0.067,0.116,0.03,0.265-0.083,0.336l-13.537,8.548v-5.196l12.03-5.974
				C30.495,4.889,30.638,4.932,30.704,5.047z"/>
		</g>
		<path fill="#D1D4D4" d="M30.165,11.032l0.652,2.433c0.034,0.126-0.035,0.257-0.159,0.301L16,18.898V14.5l13.86-3.645
			C29.993,10.82,30.129,10.899,30.165,11.032z"/>
		<path fill="#D1D4D4" d="M18.698,1.317l2.415,0.647c0.124,0.033,0.203,0.155,0.182,0.282l-2.397,14.531L16,15.224l2.387-13.708
			C18.412,1.37,18.556,1.279,18.698,1.317z"/>
		<path fill="#D1D4D4" d="M22.429,2.514l2.143,1.237c0.124,0.071,0.163,0.232,0.085,0.352L16,17.5v-3l6.081-11.883
			C22.146,2.489,22.305,2.442,22.429,2.514z"/>
		<path fill="#D1D4D4" d="M25.722,4.631l1.768,1.768c0.098,0.098,0.098,0.257-0.001,0.354L16,18.121v-4.243l9.369-9.249
			C25.467,4.534,25.624,4.534,25.722,4.631z"/>
		<path fill="#D1D4D4" d="M28.358,7.527l1.262,2.187c0.067,0.116,0.03,0.265-0.083,0.336L16,18.598v-5.196l12.03-5.974
			C28.148,7.37,28.292,7.413,28.358,7.527z"/>
		<path fill="#D1D4D4" d="M31,14.871v2.524c0,0.129-0.098,0.237-0.227,0.249L16,19v-4.5l14.752,0.121
			C30.889,14.622,31,14.734,31,14.871z"/>
		<path fill="#D1D4D4" d="M30.813,18.797l-0.652,2.435c-0.034,0.126-0.158,0.204-0.286,0.181L16,18.898V14.5l14.637,3.991
			C30.77,18.527,30.848,18.664,30.813,18.797z"/>
		<path fill="#D1D4D4" d="M29.622,22.529l-1.262,2.186c-0.067,0.116-0.213,0.158-0.331,0.097L16,18.598v-5.196l13.541,8.793
			C29.653,22.267,29.688,22.414,29.622,22.529z"/>
		<path fill="#D1D4D4" d="M23.668,26.305l1.837-1.696c0.101-0.093,0.108-0.251,0.015-0.352l-9.487-12.063v4.239l7.281,9.856
			C23.407,26.392,23.567,26.399,23.668,26.305z"/>
		<path fill="#D1D4D4" d="M19.978,27.746l2.396-0.713c0.132-0.039,0.207-0.178,0.169-0.31l-4.575-15.685l-2.02,3.731l3.719,12.806
			C19.706,27.709,19.845,27.785,19.978,27.746z"/>
		<g>
			<path fill="#3E9B8D" d="M9.712,6.321L8.435,7.058C8.311,7.13,8.273,7.29,8.35,7.41l5.723,8.858v-2l-4.014-7.844
				C9.994,6.296,9.836,6.25,9.712,6.321z"/>
		</g>
		<g>
			<path fill="#3E9B8D" d="M7.534,7.747L6.473,8.808C6.375,8.906,6.376,9.065,6.474,9.163l7.6,7.519v-2.828L7.886,7.746
				C7.789,7.65,7.631,7.65,7.534,7.747z"/>
		</g>
		<g>
			<path fill="#3E9B8D" d="M5.796,9.687l-0.762,1.321c-0.067,0.116-0.03,0.265,0.083,0.336L14.074,17v-3.464l-7.95-3.948
				C6.005,9.53,5.862,9.573,5.796,9.687z"/>
		</g>
		<g>
			<path fill="#378C7C" d="M22.288,6.321l1.277,0.737C23.689,7.13,23.727,7.29,23.65,7.41l-5.723,8.858v-2l4.014-7.844
				C22.006,6.296,22.164,6.25,22.288,6.321z"/>
		</g>
		<g>
			<path fill="#378C7C" d="M24.466,7.747l1.061,1.061c0.098,0.098,0.098,0.257-0.001,0.354l-7.6,7.519v-2.828l6.187-6.108
				C24.211,7.65,24.369,7.65,24.466,7.747z"/>
		</g>
		<g>
			<path fill="#378C7C" d="M26.204,9.687l0.762,1.321c0.067,0.116,0.03,0.265-0.083,0.336L17.926,17v-3.464l7.95-3.948
				C25.995,9.53,26.138,9.573,26.204,9.687z"/>
		</g>
		<path fill="#D84459" d="M16,16l-3.5,3l0.5,3h1l0.927,0.927C14.974,22.974,15.037,23,15.104,23H16h0.896
			c0.066,0,0.13-0.026,0.177-0.073L18,22h1l0.5-3L16,16z"/>
		<path fill="#E85160" d="M16,16l-3.5,3l0.5,3h1l0.927,0.927C14.974,22.974,15.037,23,15.104,23H16V16z"/>
		<path fill="#EDEEEE" d="M13,8.25V16h3v-3.896c0-0.066-0.026-0.13-0.073-0.177L15,11V8.25C15,8.112,14.888,8,14.75,8h-1.5
			C13.112,8,13,8.112,13,8.25z"/>
		<path fill="#E3E5E5" d="M16.973,8.219L16,16h4v-3.896c0-0.066-0.026-0.13-0.073-0.177L19,11V8.25C19,8.112,18.888,8,18.75,8
			h-1.529C17.095,8,16.988,8.094,16.973,8.219z"/>
		<path fill="#EDEEEE" d="M13,15.84l-0.989,5.937c-0.007,0.04,0.006,0.08,0.035,0.109l0.811,0.811
			c0.066,0.066,0.178,0.039,0.207-0.049l0.927-2.78c0.006-0.018,0.016-0.035,0.03-0.049l0.958-0.958
			c0.014-0.014,0.024-0.03,0.03-0.049L16,15.84H13z"/>
		<path fill="#EDEEEE" d="M13,14.84l-5.896,0.983C7.044,15.833,7,15.885,7,15.946v0.803c0,0.054,0.035,0.103,0.087,0.119
			l3.049,0.972l0.864,1h2V14.84z"/>
		<path fill="#EDEEEE" d="M11.672,15.563l-1.649,5.205c-0.014,0.044-0.002,0.093,0.031,0.126l0.839,0.839
			c0.056,0.056,0.148,0.047,0.192-0.018l3.297-4.865L11.672,15.563z"/>
		<path fill="#EDEEEE" d="M12.168,14.592l-4.054,4.16c-0.048,0.049-0.047,0.127,0.001,0.176l0.845,0.845
			c0.04,0.04,0.102,0.048,0.151,0.02L14,16.967L12.168,14.592z"/>
		<path fill="#E3E5E5" d="M19,15.84l0.989,5.937c0.007,0.04-0.006,0.08-0.035,0.109l-0.811,0.811
			c-0.066,0.066-0.178,0.039-0.207-0.049l-0.927-2.78c-0.006-0.018-0.016-0.035-0.03-0.049l-0.958-0.958
			c-0.014-0.014-0.024-0.03-0.03-0.049L16,15.84H19z"/>
		<path fill="#E3E5E5" d="M19,14.84l5.896,0.983c0.06,0.01,0.104,0.062,0.104,0.123v0.803c0,0.054-0.035,0.103-0.087,0.119
			l-3.049,0.972l-0.864,1h-2V14.84z"/>
		<path fill="#E3E5E5" d="M20.328,15.563l1.649,5.205c0.014,0.044,0.002,0.093-0.031,0.126l-0.839,0.839
			c-0.056,0.056-0.148,0.047-0.192-0.018l-3.297-4.865L20.328,15.563z"/>
		<path fill="#E3E5E5" d="M19.832,14.592l4.054,4.16c0.048,0.049,0.047,0.127-0.001,0.176l-0.845,0.845
			c-0.04,0.04-0.102,0.048-0.151,0.02L18,16.967L19.832,14.592z"/>
		<path fill="#F7F7F7" d="M10.975,10.306l-0.243-0.27c-0.075-0.083-0.211-0.013-0.187,0.096l0.267,1.204l-2.28-1.14
			c-0.215-0.107-0.443,0.121-0.335,0.335l1.14,2.28l-1.204-0.267c-0.109-0.024-0.18,0.112-0.096,0.187l0.27,0.243
			c0.939,0.846,1.786,1.822,2.289,2.981c0.163,0.376,0.403,0.736,0.72,1.053c1.19,1.19,2.982,1.328,4.002,0.308
			s0.882-2.812-0.308-4.002c-0.317-0.317-0.676-0.557-1.053-0.72C12.797,12.092,11.821,11.245,10.975,10.306z"/>
		<path fill="#EDEEEE" d="M21.025,10.306l0.243-0.27c0.075-0.083,0.211-0.013,0.187,0.096l-0.267,1.204l2.28-1.14
			c0.215-0.107,0.443,0.121,0.335,0.335l-1.14,2.28l1.204-0.267c0.109-0.024,0.18,0.112,0.096,0.187l-0.27,0.243
			c-0.939,0.846-1.786,1.822-2.289,2.981c-0.163,0.376-0.403,0.736-0.72,1.053c-1.19,1.19-2.982,1.328-4.002,0.308
			s-0.882-2.812,0.308-4.002c0.317-0.317,0.676-0.557,1.053-0.72C19.203,12.092,20.179,11.245,21.025,10.306z"/>
		<g>
			<g>
				<path fill="#D56A7D" d="M12.167,14.888c-0.14,0.271-0.203,0.589-0.147,0.928c0.107,0.642,0.638,1.158,1.284,1.24
					c0.608,0.078,1.149-0.212,1.448-0.674c0.038-0.059,0.015-0.138-0.045-0.173l-2.369-1.367
					C12.279,14.807,12.199,14.827,12.167,14.888z"/>
			</g>
			<circle fill="#373F3F" cx="13.319" cy="16.25" r="0.25"/>
		</g>
		<g>
			<g>
				<path fill="#CB6278" d="M19.833,14.888c0.14,0.271,0.203,0.589,0.147,0.928c-0.107,0.642-0.638,1.158-1.284,1.24
					c-0.608,0.078-1.149-0.212-1.448-0.674c-0.038-0.059-0.015-0.138,0.045-0.173l2.369-1.367
					C19.721,14.807,19.801,14.827,19.833,14.888z"/>
			</g>
			<circle fill="#2B3332" cx="18.681" cy="16.25" r="0.25"/>
		</g>
	</g>
</g>
</svg>
