<?xml version="1.0" encoding="utf-8"?>
<!-- Generator: Adobe Illustrator 23.0.6, SVG Export Plug-In . SVG Version: 6.00 Build 0)  -->
<svg version="1.1" xmlns="http://www.w3.org/2000/svg" xmlns:xlink="http://www.w3.org/1999/xlink" x="0px" y="0px" width="32px"
	 height="32px" viewBox="0 0 32 32" enable-background="new 0 0 32 32" xml:space="preserve">
<g id="labels">
</g>
<g id="icons">
	<g>
		<path fill="#3E88B3" d="M16,7h-4.996c0.235-1.06,0.523-2.079,0.878-3H16V7z"/>
		<path fill="#3980A8" d="M16,7h4.996c-0.235-1.06-0.523-2.079-0.878-3H16V7z"/>
		<path fill="#3980A8" d="M16,3h-0.5C15.224,3,15,2.776,15,2.5V0.977c0-0.389-0.436-0.648-0.759-0.432
			C13.235,1.218,12.47,2.473,11.881,4H16V3z"/>
		<path fill="#377AA0" d="M17,0.977V2.5C17,2.776,16.776,3,16.5,3H16v1h4.119c-0.589-1.527-1.354-2.782-2.36-3.455
			C17.436,0.329,17,0.588,17,0.977z"/>
		<path fill="#F3586F" d="M16,4.5c-1.105,0-1.5,0.448-1.5,1c0,0.552,0.395,1,1.5,1V4.5z"/>
		<path fill="#E85160" d="M17.5,5.5c0-0.552-0.395-1-1.5-1v2C17.105,6.5,17.5,6.052,17.5,5.5z"/>
		<path fill="#4390BF" d="M16,7h-4.996c-0.219,0.987-0.395,2.001-0.53,3H16V7z"/>
		<path fill="#3E88B3" d="M16,10h5.526c-0.135-0.999-0.311-2.013-0.53-3H16V10z"/>
		<path fill="#4896C8" d="M16,10h-5.526C10.076,12.953,10,15.734,10,17c0,3.314,2.686,6,6,6V10z"/>
		<path fill="#4390BF" d="M16,10v13c3.314,0,6-2.686,6-6c0-1.266-0.076-4.047-0.474-7H16z"/>
		<path fill="#FF5F7E" d="M16,7.5c-1.105,0-1.5,0.448-1.5,1c0,0.552,0.395,1,1.5,1V7.5z"/>
		<path fill="#F3586F" d="M17.5,8.5c0-0.552-0.395-1-1.5-1v2C17.105,9.5,17.5,9.052,17.5,8.5z"/>
		<path fill="#FF6B8B" d="M16,10.5c-1.105,0-1.5,0.448-1.5,1c0,0.552,0.395,1,1.5,1V10.5z"/>
		<path fill="#FF5F7E" d="M17.5,11.5c0-0.552-0.395-1-1.5-1v2C17.105,12.5,17.5,12.052,17.5,11.5z"/>
		<path fill="#529CCF" d="M16,12c-3.866,0-7,0.686-7,4s3.134,6,7,6V12z"/>
		<path fill="#4896C8" d="M23,16c0-3.314-3.134-4-7-4v10C19.866,22,23,19.314,23,16z"/>
		<path fill="#5CA3D5" d="M16,14c-4.418,0-8,0.686-8,4s3.582,6,8,6V14z"/>
		<path fill="#529CCF" d="M24,18c0-3.314-3.582-4-8-4v10C20.418,24,24,21.314,24,18z"/>
		<path fill="#373F3F" d="M29.5,32c-0.276,0-0.5-0.224-0.5-0.5v-8.286l-4.829,1.756c-0.26,0.095-0.547-0.04-0.641-0.299
			c-0.095-0.26,0.04-0.546,0.299-0.641l5.5-2c0.153-0.057,0.324-0.034,0.458,0.06S30,22.337,30,22.5v9C30,31.776,29.776,32,29.5,32z
			"/>
		<path fill="#434C4B" d="M2.5,32C2.224,32,2,31.776,2,31.5v-9c0-0.163,0.08-0.316,0.213-0.41s0.305-0.117,0.458-0.06l5.5,2
			c0.259,0.094,0.394,0.381,0.299,0.641c-0.094,0.259-0.38,0.395-0.641,0.299L3,23.214V31.5C3,31.776,2.776,32,2.5,32z"/>
		<path fill="#3980A8" d="M16,17c-4.971,0-9,2.686-9,6s4.029,6,9,6V17z"/>
		<path fill="#377AA0" d="M25,23c0-3.314-4.029-6-9-6v12C20.971,29,25,26.314,25,23z"/>
		<path fill="#DADDDC" d="M13,3.5C13,4.328,9.328,5,8.5,5S7,4.328,7,3.5S7.672,2,8.5,2S13,2.672,13,3.5z"/>
		<path fill="#D1D4D4" d="M19,3.5C19,4.328,22.672,5,23.5,5S25,4.328,25,3.5S24.328,2,23.5,2S19,2.672,19,3.5z"/>
		<path fill="#434C4B" d="M27.5,32c-0.021,0-0.042-0.001-0.062-0.004c-0.274-0.034-0.468-0.284-0.434-0.558l0.901-7.213
			l-3.747,1.249c-0.264,0.087-0.545-0.054-0.632-0.316c-0.087-0.262,0.054-0.545,0.316-0.632l4.5-1.5
			c0.161-0.056,0.342-0.021,0.475,0.087s0.201,0.278,0.179,0.449l-1,8C27.964,31.815,27.749,32,27.5,32z"/>
		<path fill="#505957" d="M25.5,32c-0.046,0-0.092-0.006-0.138-0.019c-0.266-0.076-0.419-0.353-0.344-0.618l1.762-6.168l-3.16,0.79
			c-0.268,0.065-0.539-0.096-0.606-0.364c-0.067-0.268,0.096-0.539,0.364-0.606l4-1c0.172-0.044,0.356,0.009,0.48,0.137
			s0.17,0.313,0.122,0.485l-2,7C25.918,31.857,25.718,32,25.5,32z"/>
		<path fill="#505957" d="M4.5,32c-0.249,0-0.464-0.185-0.496-0.438l-1-8c-0.021-0.17,0.046-0.34,0.179-0.449
			c0.133-0.108,0.314-0.142,0.475-0.087l4.5,1.5c0.262,0.087,0.403,0.37,0.316,0.632c-0.087,0.262-0.368,0.403-0.632,0.316
			l-3.747-1.249l0.901,7.213c0.034,0.274-0.16,0.524-0.434,0.558C4.541,31.999,4.52,32,4.5,32z"/>
		<path fill="#5C6664" d="M6.5,32c-0.217,0-0.417-0.143-0.48-0.363l-2-7c-0.049-0.171-0.002-0.356,0.122-0.485
			c0.124-0.128,0.308-0.182,0.48-0.137l4,1c0.268,0.067,0.431,0.338,0.364,0.606c-0.067,0.268-0.339,0.428-0.606,0.364l-3.16-0.79
			l1.762,6.168c0.076,0.265-0.078,0.542-0.344,0.618C6.591,31.994,6.545,32,6.5,32z"/>
		<path fill="#F3586F" d="M8.5,18c0,1.105,0.052,1.5-0.5,1.5S7,19.105,7,18s0.448-1.5,1-1.5S8.5,16.895,8.5,18z"/>
		<path fill="#E85160" d="M23.501,18c0,1.105-0.052,1.5,0.5,1.5c0.552,0,1-0.395,1-1.5s-0.448-1.5-1-1.5
			C23.449,16.5,23.501,16.895,23.501,18z"/>
		<path fill="#E3E5E5" d="M19,17c1.531,0.634,7.55-10.387,8.184-11.918s-0.093-3.286-1.624-3.92
			c-1.531-0.634-3.286,0.093-3.92,1.624C21.006,4.317,17.469,16.366,19,17z"/>
		<path fill="#E85160" d="M22.772,7.894c1.531,0.634,3.778-1.281,4.412-2.812s-0.093-3.286-1.624-3.92
			c-1.531-0.634-3.286,0.093-3.92,1.624C21.006,4.317,21.241,7.26,22.772,7.894z"/>
		<path fill="#EDEEEE" d="M19,17c1.172,1.172,10.95-6.707,12.121-7.879c1.172-1.172,1.172-3.071,0-4.243
			c-1.172-1.172-3.071-1.172-4.243,0C25.707,6.05,17.828,15.828,19,17z"/>
		<path fill="#F3586F" d="M25.969,10.031c1.172,1.172,3.98,0.262,5.152-0.909c1.172-1.172,1.172-3.071,0-4.243
			c-1.172-1.172-3.071-1.172-4.243,0C25.707,6.05,24.798,8.859,25.969,10.031z"/>
		<path fill="#F3586F" d="M16,20v6h7.786C24.554,25.117,25,24.094,25,23s-0.446-2.117-1.214-3H16z"/>
		<path fill="#FF5F7E" d="M16,20H8.214C7.446,20.883,7,21.906,7,23s0.446,2.117,1.214,3H16V20z"/>
		<path fill="#FF87A4" d="M16,20H9.944C9.347,20.883,9,21.906,9,23s0.347,2.117,0.944,3H16V20z"/>
		<path fill="#FF7898" d="M16,20v6h6.056C22.653,25.117,23,24.094,23,23s-0.347-2.117-0.944-3H16z"/>
		<path fill="#4390BF" d="M16,19.5c-1.933,0-3.5,1.567-3.5,3.5s1.567,3.5,3.5,3.5V19.5z"/>
		<path fill="#3E88B3" d="M19.5,23c0-1.933-1.567-3.5-3.5-3.5v7C17.933,26.5,19.5,24.933,19.5,23z"/>
		<path fill="#EDEEEE" d="M13,17C11.469,17.634,5.45,6.613,4.816,5.082s0.093-3.286,1.624-3.92s3.286,0.093,3.92,1.624
			C10.994,4.317,14.531,16.366,13,17z"/>
		<path fill="#F3586F" d="M9.228,7.894C7.697,8.528,5.45,6.613,4.816,5.082s0.093-3.286,1.624-3.92s3.286,0.093,3.92,1.624
			C10.994,4.317,10.759,7.26,9.228,7.894z"/>
		<path fill="#F7F7F7" d="M13,17c-1.172,1.172-10.95-6.707-12.121-7.879s-1.172-3.071,0-4.243s3.071-1.172,4.243,0
			S14.172,15.828,13,17z"/>
		<path fill="#FF5F7E" d="M6.031,10.031c-1.172,1.172-3.98,0.262-5.152-0.909s-1.172-3.071,0-4.243s3.071-1.172,4.243,0
			S7.202,8.859,6.031,10.031z"/>
		<path fill="#3E88B3" d="M16,19.5c-1.933,0-3.5,1.567-3.5,3.5c0,0.35,0.067,0.681,0.163,1H16V19.5z"/>
		<path fill="#3980A8" d="M19.337,24c0.096-0.319,0.163-0.65,0.163-1c0-1.933-1.567-3.5-3.5-3.5V24H19.337z"/>
		<path fill="#F7F7F7" d="M13.757,26.53l-0.515-2.061c-0.123-0.492,0.249-0.969,0.757-0.969h0.002c0.507,0,0.88,0.477,0.757,0.969
			l-0.515,2.061C14.179,26.782,13.821,26.782,13.757,26.53z"/>
		<path fill="#EDEEEE" d="M17.757,26.53l-0.515-2.061c-0.123-0.492,0.249-0.969,0.757-0.969h0.002c0.507,0,0.88,0.477,0.757,0.969
			l-0.515,2.061C18.179,26.782,17.821,26.782,17.757,26.53z"/>
		<path fill="#373F3F" d="M16,0c-0.69,0-0.91,2.383-0.974,3.47C15.009,3.758,15.236,4,15.525,4H16V0z"/>
		<path fill="#2B3332" d="M16.475,4c0.289,0,0.516-0.242,0.499-0.53C16.91,2.383,16.69,0,16,0v4H16.475z"/>
		<path fill="#505957" d="M16,10c-0.894,0-0.989,6.393-0.999,7.749C15,17.888,15.113,18,15.251,18H16V10z"/>
		<path fill="#434C4B" d="M16.749,18c0.139,0,0.251-0.112,0.25-0.251C16.989,16.393,16.894,10,16,10v8H16.749z"/>
		<path fill="#373F3F" d="M9.5,23c0-0.949,0.297-1.889,0.858-2.72l0.19-0.28H9.369c-0.47,0.779-0.75,1.63-0.832,2.5H7.051
			C7.03,22.666,7,22.83,7,23s0.03,0.334,0.051,0.5h1.486c0.082,0.87,0.362,1.721,0.832,2.5h1.179l-0.19-0.28
			C9.797,24.889,9.5,23.949,9.5,23z"/>
		<path fill="#2B3332" d="M25,23c0-0.17-0.03-0.334-0.051-0.5h-1.486c-0.082-0.87-0.362-1.721-0.832-2.5h-1.179l0.19,0.28
			C22.203,21.111,22.5,22.051,22.5,23s-0.297,1.889-0.858,2.72L21.452,26h1.179c0.47-0.779,0.75-1.63,0.832-2.5h1.486
			C24.97,23.334,25,23.17,25,23z"/>
	</g>
</g>
</svg>
