<?xml version="1.0" encoding="utf-8"?>
<!-- Generator: Adobe Illustrator 23.0.6, SVG Export Plug-In . SVG Version: 6.00 Build 0)  -->
<svg version="1.1" xmlns="http://www.w3.org/2000/svg" xmlns:xlink="http://www.w3.org/1999/xlink" x="0px" y="0px" width="32px"
	 height="32px" viewBox="0 0 32 32" enable-background="new 0 0 32 32" xml:space="preserve">
<g id="labels">
</g>
<g id="icons">
	<g>
		<g>
			<path fill="#8DA04A" d="M14.159,22.26C12.64,20.951,11,21,11,21s-1.622-0.049-3.141,1.26C7,23,6.637,24.825,7.553,27
				c0.732,1.738,0.128,2.958,1.477,2.958C10.363,29.958,11,30,11,30s0.655-0.042,1.987-0.042c1.349,0,0.745-1.22,1.477-2.958
				C15.38,24.825,15.017,23,14.159,22.26z"/>
			<path fill="#EDEEEE" d="M8.622,28c0.575,0,0.992,0.661,1.378,1.224L10.006,30H7.503c-0.399,0-0.643-0.447-0.417-0.776
				C7.471,28.662,8.046,28,8.622,28z"/>
			<path fill="#DADDDC" d="M13.385,28c-0.575,0-0.992,0.661-1.378,1.224L12,30h2.503c0.399,0,0.643-0.447,0.417-0.776
				C14.535,28.662,13.96,28,13.385,28z"/>
			<path fill="#E3E5E5" d="M11.126,28c0.575,0,0.915,0.661,1.301,1.224C12.653,29.553,12.409,30,12.01,30h-2.003
				c-0.399,0-0.643-0.447-0.417-0.776C9.975,28.662,10.55,28,11.126,28z"/>
		</g>
		<g>
			<path fill="#869642" d="M17.847,22.26c1.519-1.309,3.159-1.26,3.159-1.26s1.622-0.049,3.141,1.26
				c0.859,0.74,1.221,2.565,0.305,4.74c-0.732,1.738-0.128,2.958-1.477,2.958c-1.332,0-1.97,0.042-1.97,0.042
				s-0.655-0.042-1.987-0.042c-1.349,0-0.745-1.22-1.477-2.958C16.626,24.825,16.989,23,17.847,22.26z"/>
			<path fill="#EDEEEE" d="M23.385,28c-0.575,0-0.992,0.661-1.378,1.224L22,30h2.503c0.399,0,0.643-0.447,0.417-0.776
				C24.535,28.662,23.96,28,23.385,28z"/>
			<path fill="#D1D4D4" d="M18.622,28c0.575,0,0.992,0.661,1.378,1.224L20.006,30h-2.503c-0.399,0-0.643-0.447-0.417-0.776
				C17.471,28.662,18.046,28,18.622,28z"/>
			<path fill="#DADDDC" d="M20.881,28c-0.575,0-0.915,0.661-1.301,1.224C19.353,29.553,19.597,30,19.996,30h2.003
				c0.399,0,0.643-0.447,0.417-0.776C22.031,28.662,21.456,28,20.881,28z"/>
		</g>
		<path fill="#90A74E" d="M30,17.545c0-4.2-1.803-10.403-4.667-13C22.856,2.3,20.667,1,16,1S9.144,2.3,6.667,4.545
			C3.803,7.142,2,13.345,2,17.545C2,25.378,8.268,27,16,27S30,25.378,30,17.545z"/>
		<g>
			<path fill="#97AC59" d="M6.667,4.545C3.803,7.142,2,13.345,2,17.545C2,25.378,8.268,27,16,27V1C11.333,1,9.144,2.3,6.667,4.545z"
				/>
		</g>
		<g>
			<path fill="#90A74E" d="M2,17.545C2,25.378,8.268,27,16,27v-5C11.333,22,7,21,2,17.545z"/>
		</g>
		<g>
			<path fill="#8DA04A" d="M30,17.545C30,25.378,23.732,27,16,27v-5C20.667,22,25,21,30,17.545z"/>
		</g>
		<path fill="#8DA04A" d="M28.141,23.26C26.622,21.951,24.983,22,24.983,22s-1.622-0.049-3.141,1.26
			C20.983,24,20.62,25.825,21.536,28c0.732,1.738,0.128,2.958,1.477,2.958c1.332,0,1.97,0.042,1.97,0.042s0.655-0.042,1.987-0.042
			c1.349,0,0.745-1.22,1.477-2.958C29.363,25.825,29,24,28.141,23.26z"/>
		<g>
			<path fill="#EDEEEE" d="M13.71,5.167l-2.041-1.224c-0.393-0.236-0.897-0.174-1.222,0.15c0,0-2.536,1.943-3.879,3.226
				C5.724,8.125,5.776,9.057,6.508,9.885C7.31,10.791,8.49,11.701,9,12c1.826,1.07,3.246,1.292,5.321,0.877L16,12.541v-6.74
				C15.207,5.802,14.415,5.59,13.71,5.167z"/>
		</g>
		<g>
			<path fill="#E3E5E5" d="M18.237,5.167l2.041-1.224c0.393-0.236,0.897-0.174,1.222,0.15c0,0,2.536,1.943,3.879,3.226
				c0.844,0.806,0.793,1.738,0.061,2.565c-0.802,0.906-1.982,1.816-2.492,2.115c-1.826,1.07-3.246,1.292-5.321,0.877l-1.679-0.336
				v-6.74C16.74,5.802,17.532,5.59,18.237,5.167z"/>
		</g>
		<path fill="#56C7CD" d="M23.974,7.503c-1.16-0.977-2.75-2.426-2.75-2.426c-0.162-0.162-0.414-0.193-0.611-0.075l-1.933,1.16
			C17.839,6.666,16.946,6.8,16,6.8s-1.891-0.135-2.732-0.639l-1.933-1.16c-0.197-0.118-0.449-0.087-0.611,0.075
			c0,0-1.59,1.449-2.751,2.426c-1.257,1.059-1.038,1.466,0.794,2.871c0.757,0.581,3.237,2.077,3.237,2.077L16,11.3l3.943,1.149
			c0,0,2.48-1.496,3.237-2.077C25.012,8.968,25.231,8.561,23.974,7.503z"/>
		<g>
			<path fill="#66D3D3" d="M13.268,6.161l-1.933-1.16c-0.197-0.118-0.449-0.087-0.611,0.075c0,0-1.59,1.449-2.751,2.426
				c-1.257,1.059-1.038,1.466,0.794,2.871c0.757,0.58,3.237,2.077,3.237,2.077L16,11.3V6.8C15.054,6.8,14.109,6.666,13.268,6.161z"
				/>
		</g>
		<g>
			<path fill="#90A74E" d="M11.159,23.26C9.64,21.951,8,22,8,22s-1.622-0.049-3.141,1.26C4,24,3.637,25.825,4.553,28
				c0.732,1.738,0.128,2.958,1.477,2.958C7.363,30.958,8,31,8,31s0.655-0.042,1.987-0.042c1.349,0,0.745-1.22,1.477-2.958
				C12.38,25.825,12.017,24,11.159,23.26z"/>
			<path fill="#EDEEEE" d="M5.622,29C6.197,29,6.614,29.661,7,30.224L7.006,31H4.503c-0.399,0-0.643-0.447-0.417-0.776
				C4.471,29.662,5.046,29,5.622,29z"/>
			<path fill="#EDEEEE" d="M10.385,29c-0.575,0-0.992,0.661-1.378,1.224L9,31h2.503c0.399,0,0.643-0.447,0.417-0.776
				C11.535,29.662,10.96,29,10.385,29z"/>
			<path fill="#F7F7F7" d="M8.126,29c0.575,0,0.915,0.661,1.301,1.224C9.653,30.552,9.409,31,9.01,31H7.007
				c-0.399,0-0.643-0.447-0.417-0.776C6.975,29.662,7.55,29,8.126,29z"/>
		</g>
		<path fill="#EDEEEE" d="M0.995,16.045c-0.098-0.218-0.415-0.194-0.47,0.038c-0.345,1.456-0.987,4.92,0.007,7.381
			C1.821,26.654,5,27.5,6.979,25.161c1.568-1.854,1.932-3.986,2.005-4.568c0.013-0.104-0.004-0.199-0.054-0.291
			c-0.227-0.427-1-1.722-2.239-2.172c-1.082-0.394-2.272-0.286-2.845-0.197c-0.209,0.032-0.371,0.19-0.412,0.397L3,20.5
			L0.995,16.045z"/>
		<path fill="#E3E5E5" d="M31.005,16.045c0.098-0.218,0.415-0.194,0.47,0.038c0.345,1.456,0.987,4.92-0.007,7.381
			c-1.289,3.19-4.468,4.036-6.447,1.697c-1.568-1.854-1.932-3.986-2.005-4.568c-0.013-0.104,0.004-0.199,0.054-0.291
			c0.227-0.427,1-1.722,2.239-2.172c1.082-0.394,2.272-0.286,2.845-0.197c0.209,0.032,0.371,0.19,0.412,0.397L29,20.5L31.005,16.045
			z"/>
		<path fill="#E3E5E5" d="M22.615,29c0.575,0,0.992,0.661,1.378,1.224L24,31h-2.503c-0.399,0-0.643-0.447-0.417-0.776
			C21.465,29.662,22.04,29,22.615,29z"/>
		<path fill="#E3E5E5" d="M27.378,29c-0.575,0-0.992,0.661-1.378,1.224L25.994,31h2.503c0.399,0,0.643-0.447,0.417-0.776
			C28.529,29.662,27.954,29,27.378,29z"/>
		<path fill="#EDEEEE" d="M25.119,29c0.575,0,0.915,0.661,1.301,1.224C26.647,30.552,26.403,31,26.004,31h-2.003
			c-0.399,0-0.643-0.447-0.417-0.776C23.969,29.662,24.544,29,25.119,29z"/>
		<ellipse fill="#373F3F" cx="11.5" cy="8" rx="1.5" ry="2"/>
		<ellipse fill="#FFFFFF" cx="11.5" cy="8" rx="0.75" ry="1"/>
		<ellipse fill="#2B3332" cx="20.5" cy="8" rx="1.5" ry="2"/>
		<ellipse fill="#F7F7F7" cx="20.5" cy="8" rx="0.75" ry="1"/>
		<path fill="#D9F07D" d="M24.46,15.506l-3.234-1.617c-0.092-0.046-0.094-0.177-0.001-0.223c0.486-0.242,1.645-0.848,2.362-1.466
			c0.171-0.147,0.069-0.427-0.157-0.438c-3.685-0.171-4.44-1.987-7.431-1.987s-3.746,1.816-7.431,1.987
			c-0.226,0.01-0.328,0.29-0.157,0.438c0.718,0.617,1.877,1.224,2.362,1.466c0.092,0.046,0.091,0.177-0.001,0.223L7.54,15.506
			c-0.199,0.1-0.179,0.39,0.033,0.461l2.291,0.764c0.072,0.024,0.106,0.106,0.072,0.174l-0.7,1.4
			c-0.094,0.188,0.073,0.402,0.278,0.356l2.16-0.484c0.075-0.017,0.147,0.037,0.152,0.113l0.14,2
			c0.014,0.203,0.252,0.305,0.409,0.175l1.447-1.199c0.054-0.045,0.134-0.036,0.177,0.018l1.806,2.249c0.1,0.125,0.29,0.125,0.39,0
			l1.806-2.249c0.044-0.054,0.123-0.063,0.177-0.018l1.447,1.199c0.157,0.13,0.395,0.028,0.409-0.175l0.14-2
			c0.005-0.076,0.077-0.13,0.152-0.113l2.16,0.484c0.206,0.046,0.372-0.167,0.278-0.356l-0.7-1.4c-0.034-0.068,0-0.15,0.072-0.174
			l2.291-0.764C24.639,15.897,24.659,15.606,24.46,15.506z"/>
		<g>
			<path fill="#E6F490" d="M8.569,11.763c-0.226,0.01-0.328,0.29-0.157,0.438c0.718,0.617,1.877,1.224,2.362,1.466
				c0.092,0.046,0.091,0.177-0.001,0.223L7.54,15.506c-0.199,0.1-0.179,0.39,0.033,0.461l2.291,0.764
				c0.072,0.024,0.106,0.106,0.072,0.174l-0.7,1.4c-0.094,0.188,0.073,0.402,0.278,0.356l2.16-0.484
				c0.075-0.017,0.147,0.037,0.152,0.113l0.14,2c0.014,0.203,0.252,0.305,0.409,0.175l1.447-1.199
				c0.054-0.044,0.133-0.036,0.177,0.018l1.806,2.249c0.05,0.062,0.122,0.093,0.195,0.093V9.776
				C13.009,9.776,12.254,11.592,8.569,11.763z"/>
		</g>
		<path fill="#FF87A4" d="M15.016,11.527l-1.772,2.659c-0.532,0.797,0.04,1.866,0.998,1.866h3.516c0.958,0,1.53-1.068,0.998-1.866
			l-1.772-2.659C16.516,10.824,15.484,10.824,15.016,11.527z"/>
		<g>
			<path fill="#FF97AF" d="M15.016,11.527l-1.772,2.659c-0.532,0.797,0.04,1.866,0.998,1.866H16V11
				C15.625,11,15.25,11.175,15.016,11.527z"/>
		</g>
	</g>
</g>
</svg>
