<?xml version="1.0" encoding="utf-8"?>
<!-- Generator: Adobe Illustrator 23.0.6, SVG Export Plug-In . SVG Version: 6.00 Build 0)  -->
<svg version="1.1" xmlns="http://www.w3.org/2000/svg" xmlns:xlink="http://www.w3.org/1999/xlink" x="0px" y="0px" width="32px"
	 height="32px" viewBox="0 0 32 32" enable-background="new 0 0 32 32" xml:space="preserve">
<g id="labels">
</g>
<g id="icons">
	<g>
		<path fill="#C84054" d="M16,1c-2.761,0-5,0.448-5,1v4h5h5V2C21,1.448,18.761,1,16,1z"/>
		<path fill="#D84459" d="M16,1c-2.761,0-5,0.448-5,1v4h5V1z"/>
		<path fill="#B93D4F" d="M17,5.02V5l-0.823-0.823c-0.098-0.098-0.256-0.098-0.354,0L15,5v0.02C12.718,5.113,11,5.516,11,6
			c0,0.552,2.239,1,5,1s5-0.448,5-1C21,5.516,19.282,5.113,17,5.02z"/>
		<g>
			<path fill="#C84054" d="M15.823,4.177L15,5v0.02C12.718,5.113,11,5.516,11,6c0,0.552,2.239,1,5,1V4.104
				C15.936,4.104,15.872,4.128,15.823,4.177z"/>
		</g>
		<g>
			<path fill="#F0C877" d="M15.804,11.961l-4.544-0.908c-0.171-0.034-0.347-0.023-0.512,0.032l-2.227,0.742
				c-0.324,0.108-0.571,0.374-0.654,0.706l-3.73,14.921C4.052,27.793,4.15,28.152,4.396,28.4l3.27,3.304
				C7.854,31.893,8.11,32,8.377,32H16V11.961C15.934,11.961,15.869,11.973,15.804,11.961z"/>
		</g>
		<g>
			<path fill="#E8BA67" d="M7.666,31.704L4.396,28.4c-0.246-0.248-0.344-0.607-0.259-0.946l3.73-14.921
				c0.083-0.332,0.33-0.598,0.654-0.706l2.227-0.742c0.165-0.055,0.342-0.066,0.512-0.032l4.544,0.908
				c0.129,0.026,0.263,0.026,0.392,0l4.544-0.908c0.171-0.034,0.347-0.023,0.512,0.032l2.227,0.742
				c0.324,0.108,0.571,0.374,0.654,0.706L27.86,27.44c0.087,0.346-0.018,0.713-0.275,0.961l-3.428,3.317
				C23.971,31.899,23.722,32,23.462,32H8.377C8.11,32,7.854,31.893,7.666,31.704z"/>
			<g>
				<path fill="#F0C877" d="M27.86,27.44l-3.727-14.908c-0.083-0.332-0.33-0.598-0.654-0.706l-2.227-0.742
					c-0.165-0.055-0.342-0.066-0.512-0.032l-4.544,0.908c-0.129,0.026-0.263,0.026-0.392,0l-4.544-0.908
					c-0.171-0.034-0.347-0.023-0.512,0.032l-2.227,0.742c-0.324,0.108-0.571,0.374-0.654,0.706l-3.73,14.921
					C4.091,27.638,4.103,27.825,4.159,28h23.674C27.893,27.822,27.907,27.629,27.86,27.44z"/>
			</g>
			<g>
				<path fill="#F7D684" d="M15.804,11.961l-4.544-0.908c-0.171-0.034-0.347-0.023-0.512,0.032l-2.227,0.742
					c-0.324,0.108-0.571,0.374-0.654,0.706l-3.73,14.921C4.091,27.638,4.103,27.825,4.159,28H16V11.961
					C15.934,11.961,15.869,11.973,15.804,11.961z"/>
			</g>
			<path fill="#E2B060" d="M21.006,11.036c-0.017-0.011-0.026-0.018-0.042-0.029l-4.768,0.953c-0.129,0.026-0.263,0.026-0.392,0
				l-4.768-0.953c-0.017,0.011-0.026,0.018-0.042,0.029L8.091,27.483c-0.057,0.324,0.048,0.655,0.282,0.886l3.387,3.343
				C11.948,31.896,12.2,32,12.463,32h6.999c0.26,0,0.509-0.101,0.695-0.281l3.461-3.349c0.239-0.231,0.347-0.565,0.289-0.892
				L21.006,11.036z"/>
			<g>
				<path fill="#E8BA67" d="M15.804,11.961l-4.768-0.953c-0.017,0.011-0.026,0.018-0.042,0.029L8.091,27.483
					c-0.057,0.324,0.048,0.655,0.282,0.885l3.387,3.343C11.948,31.896,12.2,32,12.463,32H16V11.961
					C15.934,11.961,15.869,11.973,15.804,11.961z"/>
			</g>
			<g>
				<path fill="#E8BA67" d="M23.908,27.477l-2.901-16.441c-0.017-0.011-0.026-0.018-0.042-0.029l-4.768,0.953
					c-0.129,0.026-0.263,0.026-0.392,0l-4.768-0.953c-0.017,0.011-0.026,0.018-0.042,0.029L8.091,27.483
					C8.06,27.66,8.081,27.837,8.141,28h15.714C23.917,27.835,23.939,27.656,23.908,27.477z"/>
			</g>
		</g>
		<g>
			<path fill="#F0C877" d="M15.804,11.961l-4.768-0.953c-0.017,0.011-0.026,0.018-0.042,0.029L8.091,27.483
				C8.06,27.66,8.081,27.837,8.141,28H16V11.961C15.934,11.961,15.869,11.973,15.804,11.961z"/>
		</g>
		<path fill="#2B3332" d="M16,6c-2.209,0-4,0.224-4,0.5V25h4h4V6.5C20,6.224,18.209,6,16,6z"/>
		<path fill="#373F3F" d="M16,6c-2.209,0-4,0.224-4,0.5V25h4V6z"/>
		<path fill="#C84054" d="M21.943,24.943l-0.829-0.829c-0.074-0.074-0.123-0.169-0.14-0.271l-1.938-11.628
			c-0.023-0.136-0.101-0.257-0.216-0.334l-2.542-1.695c-0.168-0.112-0.387-0.112-0.555,0L13.18,11.88
			c-0.115,0.077-0.193,0.198-0.216,0.334l-1.938,11.628c-0.017,0.103-0.066,0.198-0.14,0.271l-0.829,0.829
			c-0.038,0.038-0.07,0.082-0.094,0.13l-0.803,1.605c-0.096,0.192-0.059,0.425,0.094,0.577l1.599,1.599
			C10.947,28.947,11.074,29,11.207,29H16h4.793c0.133,0,0.26-0.053,0.354-0.146l1.599-1.599c0.152-0.152,0.19-0.385,0.094-0.577
			l-0.803-1.605C22.012,25.025,21.981,24.981,21.943,24.943z"/>
		<g>
			<path fill="#D84459" d="M15.723,10.185L13.18,11.88c-0.115,0.077-0.193,0.198-0.216,0.334l-1.938,11.628
				c-0.017,0.103-0.066,0.198-0.14,0.271l-0.829,0.829c-0.038,0.038-0.07,0.082-0.094,0.13l-0.802,1.605
				c-0.096,0.192-0.059,0.425,0.094,0.577l1.599,1.599C10.947,28.947,11.075,29,11.207,29H16V10.101
				C15.903,10.101,15.807,10.129,15.723,10.185z"/>
		</g>
		<g>
			<path fill="#C84054" d="M13,24V12.122c-0.012,0.031-0.03,0.059-0.036,0.092l-1.938,11.628c-0.017,0.103-0.066,0.198-0.14,0.271
				l-0.829,0.829c-0.015,0.015-0.024,0.034-0.036,0.05L13,24z"/>
			<path fill="#B93D4F" d="M21.943,24.943l-0.829-0.829c-0.074-0.074-0.122-0.169-0.14-0.271l-1.938-11.628
				c-0.005-0.033-0.024-0.061-0.036-0.092V24l2.979,0.993C21.966,24.977,21.957,24.957,21.943,24.943z"/>
		</g>
		<circle fill="#FFFFFF" cx="14" cy="9" r="1"/>
		<circle fill="#515E91" cx="14" cy="9" r="0.5"/>
		<circle fill="#F7F7F7" cx="18" cy="9" r="1"/>
		<circle fill="#495587" cx="18" cy="9" r="0.5"/>
		<path fill="#B93D4F" d="M16.141,26.02c-0.094-0.013-0.189-0.013-0.283,0l-6.743,0.963c0.017,0.1,0.063,0.196,0.139,0.271
			l1.599,1.599C10.947,28.947,11.075,29,11.207,29H16h4.793c0.133,0,0.26-0.053,0.354-0.146l1.599-1.599
			c0.076-0.076,0.122-0.171,0.139-0.271L16.141,26.02z"/>
		<g>
			<path fill="#C84054" d="M15.859,26.02l-6.743,0.963c0.017,0.1,0.063,0.196,0.139,0.271l1.599,1.599
				C10.947,28.947,11.075,29,11.207,29H16v-2.98C15.953,26.02,15.906,26.013,15.859,26.02z"/>
		</g>
		<g>
			<path fill="#FDEBBB" d="M4.391,14H7.61c0.229,0,0.429,0.156,0.485,0.379l0.875,3.5c0.02,0.08,0.02,0.163,0,0.243l-0.875,3.5
				C8.039,21.844,7.839,22,7.61,22H4.39c-0.229,0-0.429-0.156-0.485-0.379L3.03,18.128c-0.02-0.08-0.02-0.163,0-0.243l0.875-3.507
				C3.961,14.156,4.161,14,4.391,14z"/>
			<path fill="#FAE09F" d="M8.97,18.121l-0.875,3.5C8.039,21.844,7.839,22,7.61,22H4.39c-0.229,0-0.429-0.156-0.485-0.379
				L3.03,18.128L8.97,18.121z"/>
			<path fill="#F7D684" d="M0.074,19.073C-0.084,19.231,0.028,19.5,0.251,19.5h4.793c0.223,0,0.334-0.269,0.177-0.427L4.647,18.5
				v-3.396c0-0.223-0.269-0.334-0.427-0.177L0.074,19.073z"/>
			<ellipse fill="#373F3F" cx="6.5" cy="16" rx="1" ry="1.5"/>
			<ellipse fill="#FDEBBB" cx="6.5" cy="16" rx="0.5" ry="1"/>
		</g>
		<g>
			<path fill="#FAE09F" d="M27.609,14H24.39c-0.229,0-0.429,0.156-0.485,0.379l-0.875,3.5c-0.02,0.08-0.02,0.163,0,0.243l0.875,3.5
				C23.961,21.844,24.161,22,24.39,22h3.219c0.229,0,0.429-0.156,0.485-0.379l0.875-3.493c0.02-0.08,0.02-0.163,0-0.243
				l-0.875-3.507C28.039,14.156,27.839,14,27.609,14z"/>
			<path fill="#F7D684" d="M23.03,18.121l0.875,3.5C23.961,21.844,24.161,22,24.39,22h3.219c0.229,0,0.429-0.156,0.485-0.379
				l0.875-3.493L23.03,18.121z"/>
			<path fill="#F0C877" d="M31.926,19.073c0.157,0.157,0.046,0.427-0.177,0.427h-4.793c-0.223,0-0.334-0.269-0.177-0.427
				l0.573-0.573v-3.396c0-0.223,0.269-0.334,0.427-0.177L31.926,19.073z"/>
			<ellipse fill="#2B3332" cx="25.5" cy="16" rx="1" ry="1.5"/>
			<ellipse fill="#FAE09F" cx="25.5" cy="16" rx="0.5" ry="1"/>
		</g>
		<path fill="#2B3332" d="M21.5,28c0-0.276-0.224-0.5-0.5-0.5c0-0.276-0.224-0.5-0.5-0.5S20,27.224,20,27.5
			c-0.276,0-0.5,0.224-0.5,0.5c0-0.276-0.224-0.5-0.5-0.5c0-0.276-0.224-0.5-0.5-0.5S18,27.224,18,27.5c-0.276,0-0.5,0.224-0.5,0.5
			c0-0.276-0.224-0.5-0.5-0.5c-0.048,0-0.091,0.015-0.135,0.027C16.695,27.218,16.378,27,16,27s-0.695,0.218-0.865,0.527
			C15.091,27.515,15.048,27.5,15,27.5c-0.276,0-0.5,0.224-0.5,0.5c0-0.276-0.224-0.5-0.5-0.5c0-0.276-0.224-0.5-0.5-0.5
			S13,27.224,13,27.5c-0.276,0-0.5,0.224-0.5,0.5c0-0.276-0.224-0.5-0.5-0.5c0-0.276-0.224-0.5-0.5-0.5S11,27.224,11,27.5
			c-0.276,0-0.5,0.224-0.5,0.5c-0.276,0-0.5,0.224-0.5,0.5c0,0.276,0.224,0.5,0.5,0.5c0,0.276,0.224,0.5,0.5,0.5
			c0,0.276,0.224,0.5,0.5,0.5c0,0.276,0.224,0.5,0.5,0.5c0,0.276,0.224,0.5,0.5,0.5c0,0.276,0.224,0.5,0.5,0.5
			c0,0.276,0.224,0.5,0.5,0.5s0.5-0.224,0.5-0.5c0,0.276,0.224,0.5,0.5,0.5s0.5-0.224,0.5-0.5c0,0.276,0.224,0.5,0.5,0.5
			s0.5-0.224,0.5-0.5c0,0.276,0.224,0.5,0.5,0.5s0.5-0.224,0.5-0.5c0,0.276,0.224,0.5,0.5,0.5s0.5-0.224,0.5-0.5
			c0,0.276,0.224,0.5,0.5,0.5s0.5-0.224,0.5-0.5c0.276,0,0.5-0.224,0.5-0.5c0.276,0,0.5-0.224,0.5-0.5c0.276,0,0.5-0.224,0.5-0.5
			c0.276,0,0.5-0.224,0.5-0.5c0.276,0,0.5-0.224,0.5-0.5c0.276,0,0.5-0.224,0.5-0.5C22,28.224,21.776,28,21.5,28z"/>
		<g>
			<path fill="#373F3F" d="M15.135,27.527C15.091,27.515,15.048,27.5,15,27.5c-0.276,0-0.5,0.224-0.5,0.5c0-0.276-0.224-0.5-0.5-0.5
				c0-0.276-0.224-0.5-0.5-0.5S13,27.224,13,27.5c-0.276,0-0.5,0.224-0.5,0.5c0-0.276-0.224-0.5-0.5-0.5c0-0.276-0.224-0.5-0.5-0.5
				S11,27.224,11,27.5c-0.276,0-0.5,0.224-0.5,0.5c-0.276,0-0.5,0.224-0.5,0.5c0,0.276,0.224,0.5,0.5,0.5c0,0.276,0.224,0.5,0.5,0.5
				c0,0.276,0.224,0.5,0.5,0.5c0,0.276,0.224,0.5,0.5,0.5c0,0.276,0.224,0.5,0.5,0.5c0,0.276,0.224,0.5,0.5,0.5
				c0,0.276,0.224,0.5,0.5,0.5s0.5-0.224,0.5-0.5c0,0.276,0.224,0.5,0.5,0.5s0.5-0.224,0.5-0.5c0,0.276,0.224,0.5,0.5,0.5
				s0.5-0.224,0.5-0.5V27C15.622,27,15.305,27.218,15.135,27.527z"/>
		</g>
	</g>
</g>
</svg>
