<?xml version="1.0" encoding="utf-8"?>
<!-- Generator: Adobe Illustrator 23.0.6, SVG Export Plug-In . SVG Version: 6.00 Build 0)  -->
<svg version="1.1" xmlns="http://www.w3.org/2000/svg" xmlns:xlink="http://www.w3.org/1999/xlink" x="0px" y="0px" width="32px"
	 height="32px" viewBox="0 0 32 32" enable-background="new 0 0 32 32" xml:space="preserve">
<g id="labels">
</g>
<g id="icons">
	<g>
		<path fill="#3E88B3" d="M21.003,3.251C24.974,5.961,27,9.03,27,14.839L21.003,13V3.251z"/>
		<path fill="#F7D684" d="M23.974,8.949c1.396,0.889,2.943,3.882,3.026,5.89c0.004,0.104-0.06,0.2-0.154,0.245
			c-1.948,0.916-3.921,0.89-6.842-0.083C20.003,14,23.974,8.949,23.974,8.949z"/>
		<path fill="#4390BF" d="M11,3.251C7.03,5.961,5.004,9.03,5.004,14.839L11,13V3.251z"/>
		<path fill="#FAE09F" d="M8.03,8.949c-1.396,0.889-2.943,3.882-3.026,5.89c-0.004,0.104,0.06,0.2,0.154,0.245
			C7.106,15.999,9.079,15.974,12,15C12,14,8.03,8.949,8.03,8.949z"/>
		<g>
			<path fill="#F7D684" d="M11.526,28.5v-1c-6.328,0-7.528-4.392-7.528-12.496V8h-1v7.004C2.998,22.116,3.65,28.5,11.526,28.5z"/>
			<g>
				<path fill="#F7D684" d="M3.591,0.039c-0.049-0.052-0.137-0.052-0.186,0C2.498,1.007,2.498,1.975,2.498,2.943c0,1,0,2,1,3
					c1-1,1-2,1-3C4.498,1.975,4.498,1.007,3.591,0.039z"/>
				<path fill="#F7D684" d="M6.864,1.945c0.072-0.002,0.134,0.06,0.132,0.132c-0.043,1.326-0.728,2.01-1.412,2.695
					C4.877,5.479,3.998,5.943,2.998,5.943c0-1,0.464-1.879,1.172-2.586C4.854,2.673,5.538,1.989,6.864,1.945z"/>
				<path fill="#F7D684" d="M0.132,1.945C0.06,1.943-0.002,2.005,0,2.077c0.043,1.326,0.728,2.01,1.412,2.695
					c0.707,0.707,1.586,1.172,2.586,1.172c0-1-0.464-1.879-1.172-2.586C2.142,2.673,1.457,1.989,0.132,1.945z"/>
			</g>
			<path fill="#F7D684" d="M2.811,7.875L1.81,7.208c-0.148-0.099-0.148-0.317,0-0.416L2.998,6h1l1.188,0.792
				c0.148,0.099,0.148,0.317,0,0.416L4.185,7.875c-0.089,0.059-0.089,0.19,0,0.25l1.001,0.667c0.148,0.099,0.148,0.317,0,0.416
				L3.998,10h-1L1.81,9.208c-0.148-0.099-0.148-0.317,0-0.416l1.001-0.667C2.9,8.065,2.9,7.935,2.811,7.875z"/>
			
				<rect x="2.998" y="4.961" transform="matrix(-1 -4.001789e-11 4.001789e-11 -1 6.9958 11.9212)" fill="#F7D684" width="1" height="2"/>
			<g>
				<ellipse fill="#E85160" cx="3.498" cy="4" rx="0.5" ry="1"/>
			</g>
		</g>
		<g>
			<rect x="28.002" y="4.961" fill="#F0C877" width="1" height="2"/>
			<path fill="#F0C877" d="M20.474,28.5v-1c6.328,0,7.528-4.392,7.528-12.496V8h1v7.004C29.002,22.116,28.35,28.5,20.474,28.5z"/>
			<g>
				<path fill="#F0C877" d="M28.409,0.039c0.049-0.052,0.137-0.052,0.186,0c0.907,0.968,0.907,1.936,0.907,2.904c0,1,0,2-1,3
					c-1-1-1-2-1-3C27.502,1.975,27.502,1.007,28.409,0.039z"/>
				<path fill="#F0C877" d="M25.136,1.945c-0.072-0.002-0.134,0.06-0.132,0.132c0.043,1.326,0.728,2.01,1.412,2.695
					c0.707,0.707,1.586,1.172,2.586,1.172c0-1-0.464-1.879-1.172-2.586C27.146,2.673,26.462,1.989,25.136,1.945z"/>
				<path fill="#F0C877" d="M31.868,1.945C31.94,1.943,32.002,2.005,32,2.077c-0.043,1.326-0.728,2.01-1.412,2.695
					c-0.707,0.707-1.586,1.172-2.586,1.172c0-1,0.464-1.879,1.172-2.586C29.858,2.673,30.543,1.989,31.868,1.945z"/>
			</g>
			<path fill="#F0C877" d="M29.189,7.875l1.001-0.667c0.148-0.099,0.148-0.317,0-0.416L29.002,6h-1l-1.188,0.792
				c-0.148,0.099-0.148,0.317,0,0.416l1.001,0.667c0.089,0.059,0.089,0.19,0,0.25l-1.001,0.667c-0.148,0.099-0.148,0.317,0,0.416
				L28.002,10h1l1.188-0.792c0.148-0.099,0.148-0.317,0-0.416l-1.001-0.667C29.1,8.065,29.1,7.935,29.189,7.875z"/>
			<g>
				<ellipse fill="#D84459" cx="28.502" cy="4" rx="0.5" ry="1"/>
			</g>
		</g>
		<path fill="#F7D684" d="M16,14h2c0,0,0,5,1,7c1.342,2.683,2,5,2,7c0,4-0.53,4.03-5,4L16,14z"/>
		
			<ellipse transform="matrix(0.7071 -0.7071 0.7071 0.7071 -14.1369 22.8157)" fill="#FAE09F" cx="20.473" cy="28.473" rx="4.352" ry="2.436"/>
		<path fill="#FAE09F" d="M16,14h-2c0,0,0,5-1,7c-1.342,2.683-2,5-2,7c0,4,0.53,4.03,5,4L16,14z"/>
		
			<ellipse transform="matrix(0.7071 -0.7071 0.7071 0.7071 -16.7568 16.4906)" fill="#FDEBBB" cx="11.527" cy="28.473" rx="2.436" ry="4.352"/>
		<path fill="#FAE09F" d="M9.801,22.217C6.533,24.283,4,25,3,25c0-1,1.931-3.254,5.199-5.319s6.276-3.171,6.719-2.471
			C15.36,17.911,13.069,20.152,9.801,22.217z"/>
		<path fill="#F7D684" d="M22.171,22.217C25.439,24.283,27.972,25,28.972,25c0-1-1.931-3.254-5.199-5.319s-6.276-3.171-6.719-2.471
			C16.612,17.911,18.903,20.152,22.171,22.217z"/>
		<ellipse fill="#4390BF" cx="16" cy="9" rx="8" ry="7"/>
		<path fill="#4896C8" d="M16,16c-4.418,0-8-3.134-8-7s3.582-7,8-7V16z"/>
		<path fill="#4390BF" d="M15.799,0.045C14.559,0.609,8,3.838,8,8.949h8h8c0-5.111-6.559-8.339-7.799-8.904
			C16.07-0.015,15.93-0.015,15.799,0.045z"/>
		<g>
			<path fill="#4896C8" d="M15.799,0.045C14.559,0.609,8,3.838,8,8.949h8V0C15.932,0,15.865,0.015,15.799,0.045z"/>
		</g>
		<path fill="#FDEBBB" d="M11.953,12.5C13,12.5,14,11.256,14,9.5C14,7.75,12.751,6,11,6C9.479,6,7.832,7.275,8,9.5
			c0.301,3.989,4.047,6.5,8,6.5C12.147,16,11.953,13.5,11.953,12.5z"/>
		<path fill="#FAE09F" d="M20.051,12.5c-1.047,0-2.047-1.244-2.047-3c0-1.75,1.249-3.5,3-3.5c1.521,0,3.168,1.275,3,3.5
			c-0.301,3.989-4.047,6.5-8,6.5C19.857,16,20.051,13.5,20.051,12.5z"/>
		<g>
			<path fill="#2B3332" d="M15.983,15.001c-0.782,0-1.491-0.21-1.897-0.562c-0.104-0.09-0.116-0.249-0.025-0.353
				c0.09-0.104,0.249-0.115,0.353-0.025c0.313,0.271,0.915,0.44,1.57,0.44c0.642,0,1.238-0.164,1.555-0.428
				c0.106-0.087,0.264-0.073,0.353,0.032c0.088,0.106,0.074,0.264-0.032,0.353C17.45,14.798,16.749,15.001,15.983,15.001z"/>
			<path fill="#373F3F" d="M15.983,15.001c-0.782,0-1.491-0.21-1.897-0.562c-0.104-0.09-0.116-0.249-0.025-0.353
				c0.09-0.104,0.249-0.115,0.353-0.025c0.313,0.271,0.915,0.44,1.57,0.44V15.001z"/>
		</g>
		<g>
			<ellipse fill="#F7F7F7" cx="12" cy="9.5" rx="2" ry="3"/>
			<ellipse fill="#FFEAA7" cx="12" cy="9.5" rx="1" ry="2"/>
		</g>
		<g>
			<ellipse fill="#F7F7F7" cx="19.953" cy="9.5" rx="2" ry="3"/>
			<ellipse fill="#FFE28A" cx="19.953" cy="9.5" rx="1" ry="2"/>
		</g>
		<g>
			<ellipse fill="#D84459" cx="16" cy="5.5" rx="0.889" ry="1.75"/>
			<path fill="#E85160" d="M16,7.25c-0.491,0-0.889-0.784-0.889-1.75S15.509,3.75,16,3.75V7.25z"/>
		</g>
		<circle fill="#373F3F" cx="12" cy="9.5" r="0.5"/>
		<circle fill="#2B3332" cx="20" cy="9.5" r="0.5"/>
	</g>
</g>
</svg>
