<?xml version="1.0" encoding="utf-8"?>
<!-- Generator: Adobe Illustrator 23.0.6, SVG Export Plug-In . SVG Version: 6.00 Build 0)  -->
<svg version="1.1" xmlns="http://www.w3.org/2000/svg" xmlns:xlink="http://www.w3.org/1999/xlink" x="0px" y="0px" width="32px"
	 height="32px" viewBox="0 0 32 32" enable-background="new 0 0 32 32" xml:space="preserve">
<g id="labels">
</g>
<g id="icons">
	<g>
		<path fill="#378C7C" d="M16,0c2.983,0,4,6.577,4,8.5h-8C12,6.112,12.983,0,16,0z"/>
		<path fill="#3A9384" d="M16,0c2.983,0,3,8,3,9h-6C13,9,12.983,0,16,0z"/>
		<path fill="#318474" d="M20,8.5C20,6.577,18.983,0,16,0v8.5H20z"/>
		<path fill="#378C7C" d="M19,9c0-1-0.017-9-3-9v9H19z"/>
		<g>
			<g>
				<path fill="#378C7C" d="M16,23c0,0-2-4-3-5c-1.076,1.193-2,7-2,7l-0.903,5.418C10.046,30.723,10.281,31,10.59,31h3.798
					c0.316,0,0.553-0.29,0.49-0.6l-0.79-3.88c-0.052-0.254-0.003-0.519,0.137-0.737L16,23z"/>
			</g>
			<path fill="#EDEEEE" d="M12.272,28.691l-0.7,1.976C11.514,30.829,11.635,31,11.807,31h1.348c0.17,0,0.291-0.166,0.238-0.328
				l-0.647-1.976C12.671,28.47,12.352,28.466,12.272,28.691z"/>
			<path fill="#EDEEEE" d="M10.376,28.366l-0.356,2.491C10.01,30.933,10.068,31,10.144,31h0.712c0.076,0,0.135-0.067,0.124-0.143
				l-0.356-2.491C10.603,28.223,10.397,28.223,10.376,28.366z"/>
			<path fill="#DADDDC" d="M14.376,28.366l-0.356,2.491C14.01,30.933,14.068,31,14.144,31h0.712c0.076,0,0.135-0.067,0.124-0.143
				l-0.356-2.491C14.603,28.223,14.397,28.223,14.376,28.366z"/>
		</g>
		<g>
			<g>
				<path fill="#318474" d="M16.019,23c0,0,2-4,3-5c1.076,1.193,2,7,2,7l0.903,5.418C21.973,30.723,21.738,31,21.429,31h-3.798
					c-0.316,0-0.553-0.29-0.49-0.6l0.79-3.88c0.052-0.254,0.003-0.519-0.137-0.737L16.019,23z"/>
			</g>
			<path fill="#EDEEEE" d="M19.747,28.691l0.7,1.976C20.505,30.829,20.384,31,20.212,31h-1.348c-0.17,0-0.291-0.166-0.238-0.328
				l0.647-1.976C19.348,28.47,19.667,28.466,19.747,28.691z"/>
			<path fill="#EDEEEE" d="M21.643,28.366l0.356,2.491C22.009,30.933,21.951,31,21.875,31h-0.712c-0.076,0-0.135-0.067-0.124-0.143
				l0.356-2.491C21.416,28.223,21.622,28.223,21.643,28.366z"/>
			<path fill="#DADDDC" d="M17.643,28.366l0.356,2.491C18.009,30.933,17.951,31,17.875,31h-0.712c-0.076,0-0.135-0.067-0.124-0.143
				l0.356-2.491C17.416,28.223,17.622,28.223,17.643,28.366z"/>
		</g>
		<path fill="#D1D4D4" d="M16.363,17.396l6.45-1.843c0.12-0.034,0.249-0.022,0.361,0.034l1.55,0.775
			C24.893,16.446,25,16.62,25,16.809v1.382c0,0.189-0.107,0.363-0.276,0.447l-1.618,0.809c-0.069,0.035-0.146,0.053-0.224,0.053
			H16.5c-0.276,0-0.5-0.224-0.5-0.5v-1.123C16,17.654,16.148,17.458,16.363,17.396z"/>
		<path fill="#D1D4D4" d="M24.255,9.755l0.49,0.49c0.152,0.152,0.19,0.385,0.094,0.577l-1.746,3.492
			c-0.059,0.119-0.163,0.209-0.289,0.251l-4.521,1.507c-0.44,0.147-0.826-0.334-0.587-0.732l2.23-3.716
			c0.049-0.082,0.12-0.147,0.205-0.19l3.547-1.774C23.87,9.565,24.103,9.603,24.255,9.755z"/>
		<path fill="#DADDDC" d="M15.637,17.396l-6.45-1.843c-0.12-0.034-0.249-0.022-0.361,0.034l-1.55,0.775
			C7.107,16.446,7,16.62,7,16.809v1.382c0,0.189,0.107,0.363,0.276,0.447l1.618,0.809C8.964,19.482,9.04,19.5,9.118,19.5H15.5
			c0.276,0,0.5-0.224,0.5-0.5v-1.123C16,17.654,15.852,17.458,15.637,17.396z"/>
		<path fill="#DADDDC" d="M7.745,9.755l-0.49,0.49c-0.152,0.152-0.19,0.385-0.094,0.577l1.746,3.492
			c0.059,0.119,0.163,0.209,0.289,0.251l4.521,1.507c0.44,0.147,0.826-0.334,0.587-0.732l-2.23-3.716
			c-0.049-0.082-0.12-0.147-0.205-0.19L8.322,9.661C8.13,9.565,7.897,9.603,7.745,9.755z"/>
		<path fill="#BEE758" d="M17,0.353C16.71,0.125,16.38,0,16,0c-0.379,0-0.71,0.135-1,0.384V6h1h1V0.353z"/>
		<path fill="#CBEB6B" d="M16,0c-0.379,0-0.71,0.133-1,0.382V6h1V0z"/>
		<g>
			<path fill="#378C7C" d="M17,24c0,0,2-4,3-5c1.076,1.193,2,7,2,7l0.903,5.418C22.954,31.723,22.719,32,22.41,32h-3.798
				c-0.316,0-0.553-0.29-0.49-0.6l0.79-3.88c0.052-0.254,0.003-0.519-0.137-0.737L17,24z"/>
		</g>
		<path fill="#378C7C" d="M18.685,16.168L18,9h-4l-0.685,7.167c-0.109,0.979-0.525,1.889-1.157,2.645
			c-0.895,1.072-1.351,2.521-1.081,4.081c0.342,1.967,1.893,3.59,3.848,3.996C18.157,27.56,21,25.112,21,22
			c0-1.236-0.452-2.364-1.197-3.234C19.176,18.033,18.792,17.126,18.685,16.168z"/>
		<g>
			<path fill="#3A9384" d="M14,9l-0.685,7.167c-0.109,0.979-0.525,1.889-1.157,2.645c-0.895,1.072-1.351,2.522-1.081,4.081
				c0.342,1.967,1.893,3.589,3.848,3.996c0.365,0.076,0.723,0.107,1.074,0.107V9H14z"/>
		</g>
		<ellipse fill="#3E9B8D" cx="16" cy="8.5" rx="4" ry="3.5"/>
		<path fill="#3A9384" d="M20,8.5C20,6.567,18.209,5,16,5v7C18.209,12,20,10.433,20,8.5z"/>
		<g>
			<ellipse fill="#373F3F" cx="14" cy="8.25" rx="1" ry="1.25"/>
			<ellipse fill="#E55D53" cx="14" cy="8.25" rx="0.5" ry="0.625"/>
		</g>
		<ellipse fill="#2B3332" cx="18" cy="8.25" rx="1" ry="1.25"/>
		<ellipse fill="#DD564C" cx="18" cy="8.25" rx="0.5" ry="0.625"/>
		<path fill="#EDEEEE" d="M13.007,6.884l0-2.358c0-0.249-0.17-0.48-0.416-0.519c-0.313-0.051-0.584,0.189-0.584,0.493v0.609
			c-0.061-0.084-0.137-0.155-0.237-0.188L6.161,3.052C5.617,2.87,5.246,3.599,5.713,3.933l4.242,3.03
			c0.033,0.023,0.052,0.061,0.052,0.102v0.802c0,0.084,0.042,0.162,0.111,0.208l0.889,0.592l0,2.807c0,0.249,0.17,0.48,0.416,0.519
			c0.313,0.051,0.584-0.189,0.584-0.493V8.707l0.78-0.78c0.031-0.031,0.074-0.046,0.117-0.043c0.853,0.064,1.649,0.094,2.251,0.106
			c0.056,0.001,0.103,0.04,0.117,0.094l0.431,1.722c0.024,0.096-0.051,0.189-0.15,0.188c-1.251-0.014-2.333-0.082-3.257-0.173
			c0.188,0.402,0.471,0.785,0.799,1.083C14.379,10.994,15.519,11,16,11V7C14.876,7,13.883,6.952,13.007,6.884z"/>
		<path fill="#E3E5E5" d="M18.993,6.884V4.526c0-0.249,0.17-0.48,0.416-0.519c0.313-0.051,0.584,0.189,0.584,0.493v0.609
			c0.061-0.084,0.137-0.155,0.237-0.188l5.608-1.869c0.544-0.181,0.916,0.548,0.449,0.881l-4.242,3.03
			c-0.033,0.023-0.052,0.061-0.052,0.102v0.802c0,0.084-0.042,0.162-0.111,0.208l-0.889,0.592v2.807c0,0.249-0.17,0.48-0.416,0.519
			c-0.313,0.051-0.584-0.189-0.584-0.493V8.707l-0.78-0.78c-0.031-0.031-0.074-0.046-0.117-0.043
			c-0.853,0.064-1.649,0.094-2.251,0.106c-0.056,0.001-0.103,0.04-0.117,0.094l-0.431,1.722c-0.024,0.096,0.051,0.189,0.15,0.188
			c1.251-0.014,2.333-0.082,3.257-0.173c-0.188,0.402-0.471,0.785-0.799,1.083C17.621,10.994,16.481,11,16,11V7
			C17.124,7,18.117,6.952,18.993,6.884z"/>
		<path fill="#DADDDC" d="M20.272,29.691l-0.7,1.976C19.514,31.829,19.635,32,19.807,32h1.348c0.17,0,0.291-0.166,0.238-0.328
			l-0.647-1.976C20.671,29.47,20.352,29.466,20.272,29.691z"/>
		<path fill="#DADDDC" d="M18.376,29.366l-0.356,2.491C18.01,31.933,18.068,32,18.144,32h0.712c0.076,0,0.135-0.067,0.124-0.143
			l-0.356-2.491C18.603,29.223,18.397,29.223,18.376,29.366z"/>
		<path fill="#DADDDC" d="M22.376,29.366l-0.356,2.491C22.01,31.933,22.068,32,22.144,32h0.712c0.076,0,0.135-0.067,0.124-0.143
			l-0.356-2.491C22.603,29.223,22.397,29.223,22.376,29.366z"/>
		<g>
			<g>
				<path fill="#3A9384" d="M15,24c0,0-2-4-3-5c-1.076,1.193-2,7-2,7l-0.903,5.418C9.046,31.723,9.281,32,9.59,32h3.798
					c0.316,0,0.553-0.29,0.49-0.6l-0.79-3.88c-0.052-0.254-0.003-0.519,0.137-0.737L15,24z"/>
			</g>
			<path fill="#E3E5E5" d="M11.272,29.691l-0.7,1.976C10.514,31.829,10.635,32,10.807,32h1.348c0.17,0,0.291-0.166,0.238-0.328
				l-0.647-1.976C11.671,29.47,11.352,29.466,11.272,29.691z"/>
			<path fill="#E3E5E5" d="M9.376,29.366L9.02,31.857C9.01,31.933,9.068,32,9.144,32h0.712c0.076,0,0.135-0.067,0.124-0.143
				l-0.356-2.491C9.603,29.223,9.397,29.223,9.376,29.366z"/>
			<path fill="#E3E5E5" d="M13.376,29.366l-0.356,2.491C13.01,31.933,13.068,32,13.144,32h0.712c0.076,0,0.135-0.067,0.124-0.143
				l-0.356-2.491C13.603,29.223,13.397,29.223,13.376,29.366z"/>
		</g>
		<path fill="#BEE758" d="M21,27.965c-0.138,0-0.25-0.112-0.25-0.25V25.25c0-0.138,0.112-0.25,0.25-0.25s0.25,0.112,0.25,0.25v2.465
			C21.25,27.854,21.138,27.965,21,27.965z"/>
		<path fill="#BEE758" d="M20.823,27.28l-0.646,0.646c-0.098,0.098-0.098,0.256,0,0.354l0.646,0.646
			c0.098,0.098,0.256,0.098,0.354,0l0.646-0.646c0.098-0.098,0.098-0.256,0-0.354l-0.646-0.646
			C21.079,27.183,20.921,27.183,20.823,27.28z"/>
		<path fill="#CBEB6B" d="M11,27.965c-0.138,0-0.25-0.112-0.25-0.25V25.25c0-0.138,0.112-0.25,0.25-0.25s0.25,0.112,0.25,0.25v2.465
			C11.25,27.854,11.138,27.965,11,27.965z"/>
		<path fill="#CBEB6B" d="M10.823,27.28l-0.646,0.646c-0.098,0.098-0.098,0.256,0,0.354l0.646,0.646
			c0.098,0.098,0.256,0.098,0.354,0l0.646-0.646c0.098-0.098,0.098-0.256,0-0.354l-0.646-0.646
			C11.079,27.183,10.921,27.183,10.823,27.28z"/>
		<g>
			<path fill="#E3E5E5" d="M14.707,17l-3.854-3.854c-0.195-0.195-0.512-0.195-0.707,0s-0.195,0.512,0,0.707l3.8,3.8l-0.898,3.591
				l-1.914,1.914c-0.195,0.195-0.195,0.512,0,0.707c0.098,0.098,0.226,0.146,0.354,0.146s0.256-0.049,0.354-0.146l1.624-1.625
				l1.994,2.393V27.5c0,0.276,0.224,0.5,0.5,0.5c0.014,0,0.026-0.007,0.04-0.008V17H14.707z"/>
			<path fill="#DADDDC" d="M21.854,13.146c-0.195-0.195-0.512-0.195-0.707,0L17.293,17H16v10.992c0.257-0.021,0.46-0.23,0.46-0.492
				v-2.771l2.074-2.489l1.608,1.608c0.098,0.098,0.226,0.146,0.354,0.146s0.256-0.049,0.354-0.146c0.195-0.195,0.195-0.512,0-0.707
				l-1.897-1.897l-0.898-3.592l3.8-3.8C22.049,13.658,22.049,13.342,21.854,13.146z"/>
		</g>
		<g>
			<path fill="#CBEB6B" d="M15.18,18c-0.108,0-0.203,0.069-0.237,0.171l-0.9,2.7c-0.027,0.08-0.011,0.169,0.042,0.235l1.72,2.15
				c0.05,0.062,0.123,0.094,0.195,0.094V18H15.18z"/>
			<path fill="#BEE758" d="M17.957,20.871l-0.9-2.7C17.023,18.069,16.927,18,16.82,18H16v5.35c0.073,0,0.145-0.031,0.195-0.094
				l1.72-2.15C17.968,21.04,17.984,20.951,17.957,20.871z"/>
		</g>
		<path fill="#CBEB6B" d="M15.584,5.777c0.217,0.283,0.615,0.283,0.832,0C16.551,5.601,17,5.11,17,5.11C16.67,5.035,16.319,5,16,5
			s-0.687,0.037-1,0.11C15,5.11,15.449,5.601,15.584,5.777z"/>
		<g>
			<path fill="#D9F07D" d="M15,5.11c0,0,0.449,0.492,0.584,0.668C15.692,5.919,15.846,5.99,16,5.99V5C15.681,5,15.313,5.037,15,5.11
				z"/>
		</g>
	</g>
</g>
</svg>
