<?xml version="1.0" encoding="utf-8"?>
<!-- Generator: Adobe Illustrator 23.0.6, SVG Export Plug-In . SVG Version: 6.00 Build 0)  -->
<svg version="1.1" xmlns="http://www.w3.org/2000/svg" xmlns:xlink="http://www.w3.org/1999/xlink" x="0px" y="0px" width="32px"
	 height="32px" viewBox="0 0 32 32" enable-background="new 0 0 32 32" xml:space="preserve">
<g id="labels">
</g>
<g id="icons">
	<g>
		<path fill="#EDEEEE" d="M1.5,24L1.5,24C1.224,24,1,23.776,1,23.5v-2C1,21.224,1.224,21,1.5,21h0C1.776,21,2,21.224,2,21.5v2
			C2,23.776,1.776,24,1.5,24z"/>
		<path fill="#EDEEEE" d="M3.5,24L3.5,24C3.224,24,3,23.776,3,23.5v-2C3,21.224,3.224,21,3.5,21h0C3.776,21,4,21.224,4,21.5v2
			C4,23.776,3.776,24,3.5,24z"/>
		<path fill="#E3E5E5" d="M28.5,24L28.5,24c-0.276,0-0.5-0.224-0.5-0.5v-2c0-0.276,0.224-0.5,0.5-0.5l0,0c0.276,0,0.5,0.224,0.5,0.5
			v2C29,23.776,28.776,24,28.5,24z"/>
		<path fill="#E3E5E5" d="M30.5,24L30.5,24c-0.276,0-0.5-0.224-0.5-0.5v-2c0-0.276,0.224-0.5,0.5-0.5l0,0c0.276,0,0.5,0.224,0.5,0.5
			v2C31,23.776,30.776,24,30.5,24z"/>
		<path fill="#E3E5E5" d="M27,7v4c1,0,1,1,1,4s-1,7-1,7h4c0,0,0-7,0-9S30,7,27,7z"/>
		<path fill="#745DA6" d="M26.5,22h5c0.276,0,0.5-0.224,0.5-0.5v-0.97c0-0.276-0.224-0.5-0.5-0.5h-5c-0.276,0-0.5,0.224-0.5,0.5
			v0.97C26,21.776,26.224,22,26.5,22z"/>
		<path fill="#EDEEEE" d="M5,7v4c-1,0-1,1-1,4s1,7,1,7H1c0,0,0-7,0-9S2,7,5,7z"/>
		<path fill="#EDEEEE" d="M16,4c-3.281,0-6.563,0.861-8.431,1.454c-0.916,0.29-1.488,1.198-1.368,2.151l1.708,13.667
			c0.061,0.489,0.296,0.934,0.668,1.258C9.824,23.616,12.912,26,16,26V4z"/>
		<path fill="#E3E5E5" d="M16,4c3.281,0,6.563,0.861,8.431,1.454c0.916,0.29,1.488,1.198,1.368,2.151l-1.708,13.667
			c-0.061,0.489-0.296,0.934-0.668,1.258C22.176,23.616,19.088,26,16,26V4z"/>
		<g>
			<path fill="#7A63AD" d="M12,5c0,1.355,1.836,10.514,3.021,16.28c0.109,0.533,0.544,0.799,0.979,0.799V2C14,2,12,3,12,5z"/>
			<path fill="#745DA6" d="M16,2v20.079c0.435,0,0.87-0.266,0.979-0.799C18.164,15.514,20,6.355,20,5C20,3,18,2,16,2z"/>
		</g>
		<circle fill="#373F3F" cx="14.5" cy="6.5" r="0.5"/>
		<circle fill="#2B3332" cx="17.5" cy="6.5" r="0.5"/>
		<circle fill="#2B3332" cx="16" cy="4.5" r="0.5"/>
		<path fill="#373F3F" d="M16,5c-0.276,0-0.5-0.224-0.5-0.5S15.724,4,16,4V5z"/>
		<circle fill="#2B3332" cx="16" cy="8.5" r="0.5"/>
		<path fill="#373F3F" d="M16,9c-0.276,0-0.5-0.224-0.5-0.5S15.724,8,16,8V9z"/>
		<circle fill="#2B3332" cx="16" cy="12.5" r="0.5"/>
		<path fill="#373F3F" d="M16,13c-0.276,0-0.5-0.224-0.5-0.5S15.724,12,16,12V13z"/>
		<circle fill="#2B3332" cx="16" cy="16.5" r="0.5"/>
		<path fill="#373F3F" d="M16,17c-0.276,0-0.5-0.224-0.5-0.5S15.724,16,16,16V17z"/>
		<circle fill="#2B3332" cx="16" cy="20.5" r="0.5"/>
		<path fill="#373F3F" d="M16,21c-0.276,0-0.5-0.224-0.5-0.5S15.724,20,16,20V21z"/>
		<ellipse fill="#7A63AD" cx="6" cy="8" rx="2" ry="5"/>
		<ellipse fill="#745DA6" cx="26" cy="8" rx="2" ry="5"/>
		<path fill="#373F3F" d="M10.5,8h-1C9.224,8,9,7.776,9,7.5V4h2v3.5C11,7.776,10.776,8,10.5,8z"/>
		<path fill="#2B3332" d="M22.5,8h-1C21.224,8,21,7.776,21,7.5V4h2v3.5C23,7.776,22.776,8,22.5,8z"/>
		<g>
			<circle fill="#D64F45" cx="9.5" cy="11.5" r="1"/>
			<circle fill="#373F3F" cx="8.5" cy="11.5" r="0.5"/>
			<circle fill="#373F3F" cx="10.5" cy="11.5" r="0.5"/>
		</g>
		<g>
			<circle fill="#65A9DC" cx="10.5" cy="15.5" r="1"/>
			<circle fill="#373F3F" cx="9.5" cy="15.5" r="0.5"/>
			<circle fill="#373F3F" cx="11.5" cy="15.5" r="0.5"/>
		</g>
		<g>
			<circle fill="#DADDDC" cx="11.5" cy="19.5" r="1"/>
			<circle fill="#373F3F" cx="10.5" cy="19.5" r="0.5"/>
			<circle fill="#373F3F" cx="12.5" cy="19.5" r="0.5"/>
		</g>
		<circle fill="#D1473D" cx="22.5" cy="11.5" r="1"/>
		<circle fill="#2B3332" cx="23.5" cy="11.5" r="0.5"/>
		<circle fill="#2B3332" cx="21.5" cy="11.5" r="0.5"/>
		<circle fill="#5CA3D5" cx="21.5" cy="15.5" r="1"/>
		<circle fill="#2B3332" cx="22.5" cy="15.5" r="0.5"/>
		<circle fill="#2B3332" cx="20.5" cy="15.5" r="0.5"/>
		<circle fill="#D1D4D4" cx="20.5" cy="19.5" r="1"/>
		<circle fill="#2B3332" cx="21.5" cy="19.5" r="0.5"/>
		<circle fill="#2B3332" cx="19.5" cy="19.5" r="0.5"/>
		<path fill="#EDEEEE" d="M5.443,24.409L8,21l3,3l-1.336,2.003c-0.427,0.64-0.591,1.419-0.46,2.177l0.561,3.234
			C9.819,31.72,9.584,32,9.273,32H4.455c-0.308,0-0.543-0.276-0.494-0.58l0.921-5.691C4.959,25.25,5.152,24.797,5.443,24.409z"/>
		<path fill="#373F3F" d="M7.783,15H7.125l-0.073,1.467c-0.034,0.684,0.049,1.368,0.246,2.024L7.75,20h0.833
			c0.315,0,0.552-0.289,0.49-0.598l-0.8-4C8.227,15.168,8.022,15,7.783,15z"/>
		<path fill="#2B3332" d="M24.208,15h0.658l0.077,1.447c0.037,0.697-0.047,1.395-0.25,2.063L24.241,20h-0.833
			c-0.315,0-0.552-0.289-0.49-0.598l0.8-4C23.764,15.168,23.969,15,24.208,15z"/>
		<path fill="#373F3F" d="M7.039,22.281l-1.212,1.616L9.2,27.271c0.06-0.449,0.209-0.884,0.465-1.268l0.438-0.658L7.039,22.281z"/>
		<path fill="#E3E5E5" d="M26.511,24.409L23.955,21l-3,3l1.336,2.003c0.427,0.64,0.591,1.419,0.46,2.177l-0.561,3.234
			C22.136,31.72,22.371,32,22.682,32H27.5c0.308,0,0.543-0.276,0.494-0.58l-0.921-5.691C26.995,25.25,26.803,24.797,26.511,24.409z"
			/>
		<path fill="#2B3332" d="M24.916,22.281l1.212,1.616l-3.373,3.373c-0.06-0.449-0.209-0.884-0.465-1.268l-0.438-0.658L24.916,22.281
			z"/>
		<path fill="#7A63AD" d="M5.5,22h-5C0.224,22,0,21.776,0,21.5v-0.97c0-0.276,0.224-0.5,0.5-0.5h5c0.276,0,0.5,0.224,0.5,0.5v0.97
			C6,21.776,5.776,22,5.5,22z"/>
		<path fill="#4EAC5D" d="M10.5,30c0-0.276-0.224-0.5-0.5-0.5c-0.002,0-0.003,0.001-0.005,0.001c0-0.001,0-0.001,0-0.002
			c0.002,0,0.003,0.001,0.005,0.001c0.276,0,0.5-0.224,0.5-0.5c0-0.276-0.224-0.5-0.5-0.5c0-0.276-0.224-0.5-0.5-0.5
			S9,28.224,9,28.5C9,28.224,8.776,28,8.5,28S8,28.224,8,28.5C8,28.224,7.776,28,7.5,28S7,28.224,7,28.5C7,28.224,6.776,28,6.5,28
			S6,28.224,6,28.5C6,28.224,5.776,28,5.5,28S5,28.224,5,28.5C5,28.224,4.776,28,4.5,28S4,28.224,4,28.5c-0.276,0-0.5,0.224-0.5,0.5
			c0,0.276,0.224,0.5,0.5,0.5c0.002,0,0.003-0.001,0.005-0.001c0,0.001,0,0.001,0,0.002C4.003,29.501,4.002,29.5,4,29.5
			c-0.276,0-0.5,0.224-0.5,0.5c0,0.276,0.224,0.5,0.5,0.5c0.002,0,0.003-0.001,0.005-0.001c0,0.001,0,0.001,0,0.002
			C4.003,30.501,4.002,30.5,4,30.5c-0.276,0-0.5,0.224-0.5,0.5c0,0.276,0.224,0.5,0.5,0.5c0.002,0,0.003-0.001,0.005-0.001
			C4.004,31.508,4,31.515,4,31.523c0,0.276,0.224,0.5,0.5,0.5s0.5-0.224,0.5-0.5c0-0.009-0.004-0.016-0.005-0.024
			C4.997,31.499,4.998,31.5,5,31.5s0.003-0.001,0.005-0.001C5.004,31.508,5,31.515,5,31.523c0,0.276,0.224,0.5,0.5,0.5
			s0.5-0.224,0.5-0.5c0-0.009-0.004-0.016-0.005-0.024C5.997,31.499,5.998,31.5,6,31.5s0.003-0.001,0.005-0.001
			C6.004,31.508,6,31.515,6,31.523c0,0.276,0.224,0.5,0.5,0.5s0.5-0.224,0.5-0.5c0-0.009-0.004-0.016-0.005-0.024
			C6.997,31.499,6.998,31.5,7,31.5s0.003-0.001,0.005-0.001C7.004,31.508,7,31.515,7,31.523c0,0.276,0.224,0.5,0.5,0.5
			s0.5-0.224,0.5-0.5c0-0.009-0.004-0.016-0.005-0.024C7.997,31.499,7.998,31.5,8,31.5s0.003-0.001,0.005-0.001
			C8.004,31.508,8,31.515,8,31.523c0,0.276,0.224,0.5,0.5,0.5s0.5-0.224,0.5-0.5c0-0.009-0.004-0.016-0.005-0.024
			C8.997,31.499,8.998,31.5,9,31.5s0.003-0.001,0.005-0.001C9.004,31.508,9,31.515,9,31.523c0,0.276,0.224,0.5,0.5,0.5
			s0.5-0.224,0.5-0.5c0-0.009-0.004-0.016-0.005-0.024c0.002,0,0.003,0.001,0.005,0.001c0.276,0,0.5-0.224,0.5-0.5
			c0-0.276-0.224-0.5-0.5-0.5c-0.002,0-0.003,0.001-0.005,0.001c0-0.001,0-0.001,0-0.002c0.002,0,0.003,0.001,0.005,0.001
			C10.276,30.5,10.5,30.276,10.5,30z M9,30.5c-0.002,0-0.003,0.001-0.005,0.001c0-0.001,0-0.001,0-0.002
			C8.997,30.499,8.998,30.5,9,30.5s0.003-0.001,0.005-0.001c0,0.001,0,0.001,0,0.002C9.003,30.501,9.002,30.5,9,30.5z M8,30.5
			c-0.002,0-0.003,0.001-0.005,0.001c0-0.001,0-0.001,0-0.002C7.997,30.499,7.998,30.5,8,30.5s0.003-0.001,0.005-0.001
			c0,0.001,0,0.001,0,0.002C8.003,30.501,8.002,30.5,8,30.5z M7,30.5c-0.002,0-0.003,0.001-0.005,0.001c0-0.001,0-0.001,0-0.002
			C6.997,30.499,6.998,30.5,7,30.5s0.003-0.001,0.005-0.001c0,0.001,0,0.001,0,0.002C7.003,30.501,7.002,30.5,7,30.5z M6,30.5
			c-0.002,0-0.003,0.001-0.005,0.001c0-0.001,0-0.001,0-0.002C5.997,30.499,5.998,30.5,6,30.5s0.003-0.001,0.005-0.001
			c0,0.001,0,0.001,0,0.002C6.003,30.501,6.002,30.5,6,30.5z M5,30.5c-0.002,0-0.003,0.001-0.005,0.001c0-0.001,0-0.001,0-0.002
			C4.997,30.499,4.998,30.5,5,30.5s0.003-0.001,0.005-0.001c0,0.001,0,0.001,0,0.002C5.003,30.501,5.002,30.5,5,30.5z M4.495,30.022
			c0.002,0,0.003,0.001,0.005,0.001s0.003-0.001,0.005-0.001c0,0.001,0,0.001,0,0.002c-0.002,0-0.003-0.001-0.005-0.001
			s-0.003,0.001-0.005,0.001C4.495,30.023,4.495,30.023,4.495,30.022z M8.5,30.023c0.002,0,0.003-0.001,0.005-0.001
			c0,0.001,0,0.001,0,0.002C8.503,30.024,8.502,30.023,8.5,30.023s-0.003,0.001-0.005,0.001c0-0.001,0-0.001,0-0.002
			C8.497,30.022,8.498,30.023,8.5,30.023z M7.5,30.023c0.002,0,0.003-0.001,0.005-0.001c0,0.001,0,0.001,0,0.002
			C7.503,30.024,7.502,30.023,7.5,30.023s-0.003,0.001-0.005,0.001c0-0.001,0-0.001,0-0.002C7.497,30.022,7.498,30.023,7.5,30.023z
			 M6.5,30.023c0.002,0,0.003-0.001,0.005-0.001c0,0.001,0,0.001,0,0.002C6.503,30.024,6.502,30.023,6.5,30.023
			s-0.003,0.001-0.005,0.001c0-0.001,0-0.001,0-0.002C6.497,30.022,6.498,30.023,6.5,30.023z M5.5,30.023
			c0.002,0,0.003-0.001,0.005-0.001c0,0.001,0,0.001,0,0.002C5.503,30.024,5.502,30.023,5.5,30.023s-0.003,0.001-0.005,0.001
			c0-0.001,0-0.001,0-0.002C5.497,30.022,5.498,30.023,5.5,30.023z M9.495,30.024c0-0.001,0-0.001,0-0.002
			c0.002,0,0.003,0.001,0.005,0.001s0.003-0.001,0.005-0.001c0,0.001,0,0.001,0,0.002c-0.002,0-0.003-0.001-0.005-0.001
			S9.497,30.024,9.495,30.024z M9.505,29.024c-0.002,0-0.003-0.001-0.005-0.001s-0.003,0.001-0.005,0.001
			C9.496,29.016,9.5,29.009,9.5,29C9.5,29.009,9.504,29.016,9.505,29.024z M9.005,29.499c0,0.001,0,0.001,0,0.002
			C9.003,29.501,9.002,29.5,9,29.5s-0.003,0.001-0.005,0.001c0-0.001,0-0.001,0-0.002C8.997,29.499,8.998,29.5,9,29.5
			S9.003,29.499,9.005,29.499z M8.505,29.024c-0.002,0-0.003-0.001-0.005-0.001s-0.003,0.001-0.005,0.001
			C8.496,29.016,8.5,29.009,8.5,29C8.5,29.009,8.504,29.016,8.505,29.024z M8.005,29.499c0,0.001,0,0.001,0,0.002
			C8.003,29.501,8.002,29.5,8,29.5s-0.003,0.001-0.005,0.001c0-0.001,0-0.001,0-0.002C7.997,29.499,7.998,29.5,8,29.5
			S8.003,29.499,8.005,29.499z M7.505,29.024c-0.002,0-0.003-0.001-0.005-0.001s-0.003,0.001-0.005,0.001
			C7.496,29.016,7.5,29.009,7.5,29C7.5,29.009,7.504,29.016,7.505,29.024z M7.005,29.499c0,0.001,0,0.001,0,0.002
			C7.003,29.501,7.002,29.5,7,29.5s-0.003,0.001-0.005,0.001c0-0.001,0-0.001,0-0.002C6.997,29.499,6.998,29.5,7,29.5
			S7.003,29.499,7.005,29.499z M6.505,29.024c-0.002,0-0.003-0.001-0.005-0.001s-0.003,0.001-0.005,0.001
			C6.496,29.016,6.5,29.009,6.5,29C6.5,29.009,6.504,29.016,6.505,29.024z M6.005,29.499c0,0.001,0,0.001,0,0.002
			C6.003,29.501,6.002,29.5,6,29.5s-0.003,0.001-0.005,0.001c0-0.001,0-0.001,0-0.002C5.997,29.499,5.998,29.5,6,29.5
			S6.003,29.499,6.005,29.499z M5.505,29.024c-0.002,0-0.003-0.001-0.005-0.001s-0.003,0.001-0.005,0.001
			C5.496,29.016,5.5,29.009,5.5,29C5.5,29.009,5.504,29.016,5.505,29.024z M5.005,29.499c0,0.001,0,0.001,0,0.002
			C5.003,29.501,5.002,29.5,5,29.5s-0.003,0.001-0.005,0.001c0-0.001,0-0.001,0-0.002C4.997,29.499,4.998,29.5,5,29.5
			S5.003,29.499,5.005,29.499z M4.505,29.024c-0.002,0-0.003-0.001-0.005-0.001s-0.003,0.001-0.005,0.001
			C4.496,29.016,4.5,29.009,4.5,29C4.5,29.009,4.504,29.016,4.505,29.024z M4.495,31.024c0-0.001,0-0.001,0-0.002
			c0.002,0,0.003,0.001,0.005,0.001s0.003-0.001,0.005-0.001c0,0.001,0,0.001,0,0.002c-0.002,0-0.003-0.001-0.005-0.001
			S4.497,31.024,4.495,31.024z M5.495,31.024c0-0.001,0-0.001,0-0.002c0.002,0,0.003,0.001,0.005,0.001s0.003-0.001,0.005-0.001
			c0,0.001,0,0.001,0,0.002c-0.002,0-0.003-0.001-0.005-0.001S5.497,31.024,5.495,31.024z M6.495,31.024c0-0.001,0-0.001,0-0.002
			c0.002,0,0.003,0.001,0.005,0.001s0.003-0.001,0.005-0.001c0,0.001,0,0.001,0,0.002c-0.002,0-0.003-0.001-0.005-0.001
			S6.497,31.024,6.495,31.024z M7.495,31.024c0-0.001,0-0.001,0-0.002c0.002,0,0.003,0.001,0.005,0.001s0.003-0.001,0.005-0.001
			c0,0.001,0,0.001,0,0.002c-0.002,0-0.003-0.001-0.005-0.001S7.497,31.024,7.495,31.024z M8.495,31.024c0-0.001,0-0.001,0-0.002
			c0.002,0,0.003,0.001,0.005,0.001s0.003-0.001,0.005-0.001c0,0.001,0,0.001,0,0.002c-0.002,0-0.003-0.001-0.005-0.001
			S8.497,31.024,8.495,31.024z M9.495,31.024c0-0.001,0-0.001,0-0.002c0.002,0,0.003,0.001,0.005,0.001s0.003-0.001,0.005-0.001
			c0,0.001,0,0.001,0,0.002c-0.002,0-0.003-0.001-0.005-0.001S9.497,31.024,9.495,31.024z"/>
		<path fill="#48A353" d="M28.5,30c0-0.276-0.224-0.5-0.5-0.5c-0.002,0-0.003,0.001-0.005,0.001c0-0.001,0-0.001,0-0.002
			c0.002,0,0.003,0.001,0.005,0.001c0.276,0,0.5-0.224,0.5-0.5c0-0.276-0.224-0.5-0.5-0.5c0-0.276-0.224-0.5-0.5-0.5
			S27,28.224,27,28.5c0-0.276-0.224-0.5-0.5-0.5S26,28.224,26,28.5c0-0.276-0.224-0.5-0.5-0.5S25,28.224,25,28.5
			c0-0.276-0.224-0.5-0.5-0.5S24,28.224,24,28.5c0-0.276-0.224-0.5-0.5-0.5S23,28.224,23,28.5c0-0.276-0.224-0.5-0.5-0.5
			S22,28.224,22,28.5c-0.276,0-0.5,0.224-0.5,0.5c0,0.276,0.224,0.5,0.5,0.5c0.002,0,0.003-0.001,0.005-0.001
			c0,0.001,0,0.001,0,0.002c-0.002,0-0.003-0.001-0.005-0.001c-0.276,0-0.5,0.224-0.5,0.5c0,0.276,0.224,0.5,0.5,0.5
			c0.002,0,0.003-0.001,0.005-0.001c0,0.001,0,0.001,0,0.002c-0.002,0-0.003-0.001-0.005-0.001c-0.276,0-0.5,0.224-0.5,0.5
			c0,0.276,0.224,0.5,0.5,0.5c0.002,0,0.003-0.001,0.005-0.001c0,0.008-0.005,0.016-0.005,0.024c0,0.276,0.224,0.5,0.5,0.5
			s0.5-0.224,0.5-0.5c0-0.009-0.004-0.016-0.005-0.024c0.002,0,0.003,0.001,0.005,0.001s0.003-0.001,0.005-0.001
			c0,0.008-0.005,0.016-0.005,0.024c0,0.276,0.224,0.5,0.5,0.5s0.5-0.224,0.5-0.5c0-0.009-0.004-0.016-0.005-0.024
			c0.002,0,0.003,0.001,0.005,0.001s0.003-0.001,0.005-0.001c0,0.008-0.005,0.016-0.005,0.024c0,0.276,0.224,0.5,0.5,0.5
			s0.5-0.224,0.5-0.5c0-0.009-0.004-0.016-0.005-0.024c0.002,0,0.003,0.001,0.005,0.001s0.003-0.001,0.005-0.001
			c0,0.008-0.005,0.016-0.005,0.024c0,0.276,0.224,0.5,0.5,0.5s0.5-0.224,0.5-0.5c0-0.009-0.004-0.016-0.005-0.024
			c0.002,0,0.003,0.001,0.005,0.001s0.003-0.001,0.005-0.001c0,0.008-0.005,0.016-0.005,0.024c0,0.276,0.224,0.5,0.5,0.5
			s0.5-0.224,0.5-0.5c0-0.009-0.004-0.016-0.005-0.024c0.002,0,0.003,0.001,0.005,0.001s0.003-0.001,0.005-0.001
			c0,0.008-0.005,0.016-0.005,0.024c0,0.276,0.224,0.5,0.5,0.5s0.5-0.224,0.5-0.5c0-0.009-0.004-0.016-0.005-0.024
			c0.002,0,0.003,0.001,0.005,0.001c0.276,0,0.5-0.224,0.5-0.5c0-0.276-0.224-0.5-0.5-0.5c-0.002,0-0.003,0.001-0.005,0.001
			c0-0.001,0-0.001,0-0.002c0.002,0,0.003,0.001,0.005,0.001C28.276,30.5,28.5,30.276,28.5,30z M27,30.5
			c-0.002,0-0.003,0.001-0.005,0.001c0-0.001,0-0.001,0-0.002C26.997,30.499,26.998,30.5,27,30.5s0.003-0.001,0.005-0.001
			c0,0.001,0,0.001,0,0.002C27.003,30.501,27.002,30.5,27,30.5z M26,30.5c-0.002,0-0.003,0.001-0.005,0.001c0-0.001,0-0.001,0-0.002
			C25.997,30.499,25.998,30.5,26,30.5s0.003-0.001,0.005-0.001c0,0.001,0,0.001,0,0.002C26.003,30.501,26.002,30.5,26,30.5z
			 M25,30.5c-0.002,0-0.003,0.001-0.005,0.001c0-0.001,0-0.001,0-0.002C24.997,30.499,24.998,30.5,25,30.5s0.003-0.001,0.005-0.001
			c0,0.001,0,0.001,0,0.002C25.003,30.501,25.002,30.5,25,30.5z M24,30.5c-0.002,0-0.003,0.001-0.005,0.001c0-0.001,0-0.001,0-0.002
			C23.997,30.499,23.998,30.5,24,30.5s0.003-0.001,0.005-0.001c0,0.001,0,0.001,0,0.002C24.003,30.501,24.002,30.5,24,30.5z
			 M23,30.5c-0.002,0-0.003,0.001-0.005,0.001c0-0.001,0-0.001,0-0.002C22.997,30.499,22.998,30.5,23,30.5s0.003-0.001,0.005-0.001
			c0,0.001,0,0.001,0,0.002C23.003,30.501,23.002,30.5,23,30.5z M22.495,30.022c0.002,0,0.003,0.001,0.005,0.001
			s0.003-0.001,0.005-0.001c0,0.001,0,0.001,0,0.002c-0.002,0-0.003-0.001-0.005-0.001s-0.003,0.001-0.005,0.001
			C22.495,30.023,22.495,30.023,22.495,30.022z M26.5,30.023c0.002,0,0.003-0.001,0.005-0.001c0,0.001,0,0.001,0,0.002
			C26.503,30.024,26.502,30.023,26.5,30.023s-0.003,0.001-0.005,0.001c0-0.001,0-0.001,0-0.002
			C26.497,30.022,26.498,30.023,26.5,30.023z M25.5,30.023c0.002,0,0.003-0.001,0.005-0.001c0,0.001,0,0.001,0,0.002
			C25.503,30.024,25.502,30.023,25.5,30.023s-0.003,0.001-0.005,0.001c0-0.001,0-0.001,0-0.002
			C25.497,30.022,25.498,30.023,25.5,30.023z M24.5,30.023c0.002,0,0.003-0.001,0.005-0.001c0,0.001,0,0.001,0,0.002
			C24.503,30.024,24.502,30.023,24.5,30.023s-0.003,0.001-0.005,0.001c0-0.001,0-0.001,0-0.002
			C24.497,30.022,24.498,30.023,24.5,30.023z M23.5,30.023c0.002,0,0.003-0.001,0.005-0.001c0,0.001,0,0.001,0,0.002
			C23.503,30.024,23.502,30.023,23.5,30.023s-0.003,0.001-0.005,0.001c0-0.001,0-0.001,0-0.002
			C23.497,30.022,23.498,30.023,23.5,30.023z M27.495,30.024c0-0.001,0-0.001,0-0.002c0.002,0,0.003,0.001,0.005,0.001
			s0.003-0.001,0.005-0.001c0,0.001,0,0.001,0,0.002c-0.002,0-0.003-0.001-0.005-0.001S27.497,30.024,27.495,30.024z M27.505,29.024
			c-0.002,0-0.003-0.001-0.005-0.001s-0.003,0.001-0.005,0.001c0-0.008,0.005-0.016,0.005-0.024
			C27.5,29.009,27.504,29.016,27.505,29.024z M27.005,29.499c0,0.001,0,0.001,0,0.002c-0.002,0-0.003-0.001-0.005-0.001
			s-0.003,0.001-0.005,0.001c0-0.001,0-0.001,0-0.002c0.002,0,0.003,0.001,0.005,0.001S27.003,29.499,27.005,29.499z M26.505,29.024
			c-0.002,0-0.003-0.001-0.005-0.001s-0.003,0.001-0.005,0.001c0-0.008,0.005-0.016,0.005-0.024
			C26.5,29.009,26.504,29.016,26.505,29.024z M26.005,29.499c0,0.001,0,0.001,0,0.002c-0.002,0-0.003-0.001-0.005-0.001
			s-0.003,0.001-0.005,0.001c0-0.001,0-0.001,0-0.002c0.002,0,0.003,0.001,0.005,0.001S26.003,29.499,26.005,29.499z M25.505,29.024
			c-0.002,0-0.003-0.001-0.005-0.001s-0.003,0.001-0.005,0.001c0-0.008,0.005-0.016,0.005-0.024
			C25.5,29.009,25.504,29.016,25.505,29.024z M25.005,29.499c0,0.001,0,0.001,0,0.002c-0.002,0-0.003-0.001-0.005-0.001
			s-0.003,0.001-0.005,0.001c0-0.001,0-0.001,0-0.002c0.002,0,0.003,0.001,0.005,0.001S25.003,29.499,25.005,29.499z M24.505,29.024
			c-0.002,0-0.003-0.001-0.005-0.001s-0.003,0.001-0.005,0.001c0-0.008,0.005-0.016,0.005-0.024
			C24.5,29.009,24.504,29.016,24.505,29.024z M24.005,29.499c0,0.001,0,0.001,0,0.002c-0.002,0-0.003-0.001-0.005-0.001
			s-0.003,0.001-0.005,0.001c0-0.001,0-0.001,0-0.002c0.002,0,0.003,0.001,0.005,0.001S24.003,29.499,24.005,29.499z M23.505,29.024
			c-0.002,0-0.003-0.001-0.005-0.001s-0.003,0.001-0.005,0.001c0-0.008,0.005-0.016,0.005-0.024
			C23.5,29.009,23.504,29.016,23.505,29.024z M23.005,29.499c0,0.001,0,0.001,0,0.002c-0.002,0-0.003-0.001-0.005-0.001
			s-0.003,0.001-0.005,0.001c0-0.001,0-0.001,0-0.002c0.002,0,0.003,0.001,0.005,0.001S23.003,29.499,23.005,29.499z M22.505,29.024
			c-0.002,0-0.003-0.001-0.005-0.001s-0.003,0.001-0.005,0.001c0-0.008,0.005-0.016,0.005-0.024
			C22.5,29.009,22.504,29.016,22.505,29.024z M22.495,31.024c0-0.001,0-0.001,0-0.002c0.002,0,0.003,0.001,0.005,0.001
			s0.003-0.001,0.005-0.001c0,0.001,0,0.001,0,0.002c-0.002,0-0.003-0.001-0.005-0.001S22.497,31.024,22.495,31.024z M23.495,31.024
			c0-0.001,0-0.001,0-0.002c0.002,0,0.003,0.001,0.005,0.001s0.003-0.001,0.005-0.001c0,0.001,0,0.001,0,0.002
			c-0.002,0-0.003-0.001-0.005-0.001S23.497,31.024,23.495,31.024z M24.495,31.024c0-0.001,0-0.001,0-0.002
			c0.002,0,0.003,0.001,0.005,0.001s0.003-0.001,0.005-0.001c0,0.001,0,0.001,0,0.002c-0.002,0-0.003-0.001-0.005-0.001
			S24.497,31.024,24.495,31.024z M25.495,31.024c0-0.001,0-0.001,0-0.002c0.002,0,0.003,0.001,0.005,0.001s0.003-0.001,0.005-0.001
			c0,0.001,0,0.001,0,0.002c-0.002,0-0.003-0.001-0.005-0.001S25.497,31.024,25.495,31.024z M26.495,31.024c0-0.001,0-0.001,0-0.002
			c0.002,0,0.003,0.001,0.005,0.001s0.003-0.001,0.005-0.001c0,0.001,0,0.001,0,0.002c-0.002,0-0.003-0.001-0.005-0.001
			S26.497,31.024,26.495,31.024z M27.495,31.024c0-0.001,0-0.001,0-0.002c0.002,0,0.003,0.001,0.005,0.001s0.003-0.001,0.005-0.001
			c0,0.001,0,0.001,0,0.002c-0.002,0-0.003-0.001-0.005-0.001S27.497,31.024,27.495,31.024z"/>
		<path fill="#4EAC5D" d="M11.473,3.135C11.485,3.091,11.5,3.048,11.5,3c0-0.276-0.224-0.5-0.5-0.5c0.276,0,0.5-0.224,0.5-0.5
			c0-0.276-0.224-0.5-0.5-0.5c-0.048,0-0.091,0.015-0.135,0.027c-0.024-0.044-0.053-0.085-0.084-0.125C10.91,1.312,11,1.17,11,1
			c0-0.276-0.224-0.5-0.5-0.5C10.5,0.224,10.276,0,10,0S9.5,0.224,9.5,0.5C9.224,0.5,9,0.724,9,1c0,0.17,0.09,0.312,0.219,0.402
			c-0.031,0.04-0.06,0.08-0.084,0.125C9.091,1.515,9.048,1.5,9,1.5C8.724,1.5,8.5,1.724,8.5,2c0,0.276,0.224,0.5,0.5,0.5
			C8.724,2.5,8.5,2.724,8.5,3c0,0.048,0.015,0.091,0.027,0.135C8.218,3.305,8,3.622,8,4c0,0.552,0.448,1,1,1c0,0.552,0.448,1,1,1
			s1-0.448,1-1c0.552,0,1-0.448,1-1C12,3.622,11.782,3.305,11.473,3.135z"/>
		<path fill="#48A353" d="M23.473,3.135C23.485,3.091,23.5,3.048,23.5,3c0-0.276-0.224-0.5-0.5-0.5c0.276,0,0.5-0.224,0.5-0.5
			c0-0.276-0.224-0.5-0.5-0.5c-0.048,0-0.091,0.015-0.135,0.027c-0.024-0.044-0.053-0.085-0.084-0.125C22.91,1.312,23,1.17,23,1
			c0-0.276-0.224-0.5-0.5-0.5C22.5,0.224,22.276,0,22,0s-0.5,0.224-0.5,0.5C21.224,0.5,21,0.724,21,1c0,0.17,0.09,0.312,0.219,0.402
			c-0.031,0.04-0.06,0.08-0.084,0.125C21.091,1.515,21.048,1.5,21,1.5c-0.276,0-0.5,0.224-0.5,0.5c0,0.276,0.224,0.5,0.5,0.5
			c-0.276,0-0.5,0.224-0.5,0.5c0,0.048,0.015,0.091,0.027,0.135C20.218,3.305,20,3.622,20,4c0,0.552,0.448,1,1,1
			c0,0.552,0.448,1,1,1s1-0.448,1-1c0.552,0,1-0.448,1-1C24,3.622,23.782,3.305,23.473,3.135z"/>
		<g>
			<path fill="#373F3F" d="M4.239,18H2.5C2.224,18,2,18.224,2,18.5C2,18.776,2.224,19,2.5,19h1.892
				C4.338,18.678,4.286,18.343,4.239,18z"/>
			<path fill="#373F3F" d="M2.5,12C2.776,12,3,11.776,3,11.5C3,11.224,2.776,11,2.5,11H1.256c-0.082,0.344-0.143,0.68-0.184,1H2.5z"
				/>
			<path fill="#373F3F" d="M2,13.25v0.625C2,13.944,1.944,14,1.875,14H1c0,0.303,0,0.642,0,1h1.75C2.888,15,3,14.888,3,14.75v-0.625
				C3,14.056,3.056,14,3.125,14h0.877c0.002-0.376,0.009-0.703,0.02-1H2.25C2.112,13,2,13.112,2,13.25z"/>
			<path fill="#373F3F" d="M3,16.5C3,16.224,2.776,16,2.5,16H1c0,0.327,0,0.663,0,1h1.5C2.776,17,3,16.776,3,16.5z"/>
		</g>
		<g>
			<path fill="#2B3332" d="M29.5,18h-1.739c-0.047,0.343-0.099,0.678-0.153,1H29.5c0.276,0,0.5-0.224,0.5-0.5
				C30,18.224,29.776,18,29.5,18z"/>
			<path fill="#2B3332" d="M29,11.5c0,0.276,0.224,0.5,0.5,0.5h1.428c-0.041-0.32-0.102-0.656-0.184-1H29.5
				C29.224,11,29,11.224,29,11.5z"/>
			<path fill="#2B3332" d="M31,16h-1.5c-0.276,0-0.5,0.224-0.5,0.5c0,0.276,0.224,0.5,0.5,0.5H31C31,16.663,31,16.327,31,16z"/>
			<path fill="#2B3332" d="M29.25,15H31c0-0.358,0-0.697,0-1h-0.875C30.056,14,30,13.944,30,13.875V13.25
				c0-0.138-0.112-0.25-0.25-0.25h-1.771c0.011,0.297,0.017,0.624,0.02,1h0.877C28.944,14,29,14.056,29,14.125v0.625
				C29,14.888,29.112,15,29.25,15z"/>
		</g>
	</g>
</g>
</svg>
