<?xml version="1.0" encoding="utf-8"?>
<!-- Generator: Adobe Illustrator 23.0.6, SVG Export Plug-In . SVG Version: 6.00 Build 0)  -->
<svg version="1.1" xmlns="http://www.w3.org/2000/svg" xmlns:xlink="http://www.w3.org/1999/xlink" x="0px" y="0px" width="32px"
	 height="32px" viewBox="0 0 32 32" enable-background="new 0 0 32 32" xml:space="preserve">
<g id="labels">
</g>
<g id="icons">
	<g>
		<g>
			<path fill="#DADDDC" d="M9.895,29.023L30.118,2.171c0.169-0.225,0.523-0.042,0.438,0.226l-8.455,26.615L9.895,29.023z"/>
			<path fill="#E3E5E5" d="M9.895,29.023L30.118,2.171c0.085-0.112,0.215-0.123,0.314-0.072C30.532,2.15,16,29.017,16,29.017
				L9.895,29.023z"/>
			<path fill="#E3E5E5" d="M25.444,4.055L27.838,7l-2,2l-0.834-4.744C24.96,4.002,25.282,3.855,25.444,4.055z"/>
			<path fill="#E3E5E5" d="M25.681,9.449l-1.628,2.233l-1.29-4.321c-0.073-0.244,0.224-0.428,0.41-0.254L25.681,9.449z"/>
			<path fill="#DADDDC" d="M27.855,7L31.8,7.804c0.254,0.052,0.271,0.408,0.023,0.484L27.855,9.5V7z"/>
			<path fill="#DADDDC" d="M26.855,10.128l3.945,0.804c0.254,0.052,0.271,0.408,0.023,0.484l-3.968,1.212V10.128z"/>
		</g>
		<g>
			<g>
				<path fill="#2B3332" d="M30.071,12.372C30.054,12.328,28.273,8,24,8c-4.586,0-5.378,0.792-7.293,2.707
					c-0.391,0.391-1.023,0.391-1.414,0s-0.391-1.023,0-1.414C17.516,7.069,18.815,6,24,6c5.612,0,7.836,5.399,7.929,5.628
					c0.205,0.513-0.044,1.095-0.557,1.3C31.249,12.977,31.124,13,31,13C30.603,13,30.228,12.762,30.071,12.372z M29.999,17
					c0.065,0,0.131-0.006,0.197-0.02c0.542-0.108,0.893-0.635,0.784-1.177C30.579,13.796,28.603,10,24,10
					c-5.184,0-6.483,1.069-8.707,3.293c-0.391,0.391-0.391,1.023,0,1.414s1.023,0.391,1.414,0C18.621,12.792,19.414,12,24,12
					c4.133,0,4.985,4.025,5.02,4.196C29.114,16.671,29.532,17,29.999,17z M28,21c0.552,0,1-0.448,1-1c0-2.075-1.254-6-6-6
					c-4.468,0-5.399,0.801-6.926,2.467c-0.231,0.252-0.482,0.527-0.781,0.826c-0.391,0.391-0.391,1.023,0,1.414s1.023,0.391,1.414,0
					c0.321-0.321,0.593-0.617,0.841-0.889C18.76,16.495,19.214,16,23,16c3.955,0,4,3.837,4,4C27,20.552,27.447,21,28,21z"/>
			</g>
			<g>
				<path fill="#C84054" d="M30.071,12.372C30.228,12.762,30.603,13,31,13c0.124,0,0.249-0.023,0.371-0.072
					c0.513-0.206,0.762-0.787,0.557-1.3c-0.052-0.13-0.785-1.907-2.423-3.431l-0.672,2.21C29.67,11.41,30.063,12.351,30.071,12.372z
					"/>
				<path fill="#C84054" d="M28,21c0.552,0,1-0.448,1-1c0-1.216-0.438-3.064-1.751-4.389l-0.732,2.404C26.985,18.97,27,19.921,27,20
					C27,20.552,27.447,21,28,21z"/>
				<path fill="#C84054" d="M29.999,17c0.065,0,0.131-0.006,0.197-0.02c0.542-0.108,0.893-0.635,0.784-1.177
					c-0.233-1.167-1.004-2.934-2.508-4.213l-0.655,2.151c0.914,1.111,1.183,2.36,1.201,2.454C29.114,16.671,29.532,17,29.999,17z"/>
			</g>
		</g>
		<g>
			<g>
				<path fill="#373F3F" d="M1,13c-0.124,0-0.249-0.023-0.371-0.072c-0.513-0.206-0.762-0.787-0.557-1.3C0.164,11.399,2.388,6,8,6
					c5.184,0,6.483,1.069,8.707,3.293c0.391,0.391,0.391,1.023,0,1.414s-1.023,0.391-1.414,0C13.379,8.792,12.586,8,8,8
					c-4.273,0-6.054,4.328-6.071,4.372C1.772,12.762,1.397,13,1,13z M2.981,16.196C3.015,16.025,3.868,12,8,12
					c4.586,0,5.378,0.792,7.293,2.707c0.391,0.391,1.023,0.391,1.414,0s0.391-1.023,0-1.414C14.484,11.069,13.185,10,8,10
					c-4.604,0-6.579,3.796-6.98,5.804c-0.108,0.542,0.243,1.068,0.784,1.177C1.871,16.994,1.937,17,2.001,17
					C2.468,17,2.886,16.671,2.981,16.196z M5,20c0-0.163,0.045-4,4-4c3.786,0,4.239,0.495,5.452,1.818
					c0.249,0.271,0.52,0.567,0.841,0.889c0.391,0.391,1.023,0.391,1.414,0s0.391-1.023,0-1.414c-0.298-0.298-0.55-0.574-0.781-0.826
					C14.4,14.801,13.468,14,9,14c-4.746,0-6,3.925-6,6c0,0.552,0.448,1,1,1S5,20.552,5,20z"/>
			</g>
			<g>
				<path fill="#D84459" d="M1.929,12.372C1.772,12.762,1.397,13,1,13c-0.124,0-0.249-0.023-0.371-0.072
					c-0.513-0.206-0.762-0.787-0.557-1.3c0.052-0.13,0.785-1.907,2.423-3.431l0.672,2.21C2.33,11.41,1.937,12.351,1.929,12.372z"/>
				<path fill="#D84459" d="M4,21c-0.552,0-1-0.448-1-1c0-1.216,0.438-3.064,1.751-4.389l0.732,2.404C5.015,18.97,5,19.921,5,20
					C5,20.552,4.553,21,4,21z"/>
				<path fill="#D84459" d="M2.001,17c-0.065,0-0.131-0.006-0.197-0.02c-0.542-0.108-0.893-0.635-0.784-1.177
					c0.233-1.167,1.004-2.934,2.508-4.213l0.655,2.151C3.268,14.854,3,16.102,2.981,16.196C2.886,16.671,2.468,17,2.001,17z"/>
			</g>
		</g>
		<g>
			<path fill="#E3E5E5" d="M22.036,22l9.803,3.735c0.224,0.085,0.211,0.407-0.019,0.474L22,29.023L22.036,22z"/>
			<path fill="#FFD04D" d="M26.161,25.735L29,24.653l2.839,1.082c0.224,0.085,0.211,0.407-0.019,0.474L29,27.017l-2.82-0.808
				C25.95,26.141,25.937,25.82,26.161,25.735z"/>
		</g>
		<g>
			<path fill="#EDEEEE" d="M9.964,22l-9.803,3.735c-0.224,0.085-0.211,0.407,0.019,0.474L10,29.023L9.964,22z"/>
			<path fill="#FFD96C" d="M5.839,25.735L3,24.653l-2.839,1.082c-0.224,0.085-0.211,0.407,0.019,0.474L3,27.017l2.82-0.808
				C6.05,26.141,6.063,25.82,5.839,25.735z"/>
		</g>
		<path fill="#FFD04D" d="M21.016,17.123v4.372l2.733-3.202c0.118-0.138,0.054-0.351-0.12-0.402L21.016,17.123z"/>
		<path fill="#FFD96C" d="M11.96,12.984V17l-3.548-2.687c-0.167-0.126-0.114-0.389,0.089-0.441L11.96,12.984z"/>
		<path fill="#FFD96C" d="M10.984,17.123v4.372L8.25,18.293c-0.118-0.138-0.054-0.351,0.12-0.402L10.984,17.123z"/>
		<path fill="#FFD04D" d="M20.04,12.984V17l3.548-2.687c0.167-0.126,0.114-0.389-0.089-0.441L20.04,12.984z"/>
		<path fill="#E3E5E5" d="M16,2c3.993,0,4,2.629,4,6c0,3,2,11,3,15s-1.007,9-7,9V2z"/>
		<path fill="#757F7E" d="M16,2c-3.993,0-4,2.629-4,6c0,3-2,11-3,15s1.007,9,7,9V2z"/>
		<path fill="#EDEEEE" d="M16,2c-3.993,0-4,2.629-4,6c0,3-2,11-3,15s1.007,9,7,9V2z"/>
		<path fill="#2B3332" d="M18,7h-2.086H14c0,4.193-2.214,15.935-4.105,22.023C11.023,30.761,13.017,32,16,32
			c2.973,0,4.971-1.245,6.102-2.989C20.211,22.92,18,11.19,18,7z"/>
		<path fill="#373F3F" d="M15.914,7H14c0,4.193-2.214,15.935-4.105,22.023C11.023,30.761,13.017,32,16,32L15.914,7z"/>
		<g>
			<path fill="#C84054" d="M21.6,27.282c-0.171-0.617-0.341-1.263-0.512-1.941c-1.427,0.408-3.167,0.666-5.089,0.666
				s-3.661-0.258-5.089-0.666c-0.17,0.678-0.341,1.324-0.512,1.941c1.623,0.461,3.524,0.724,5.6,0.724S19.978,27.743,21.6,27.282z"
				/>
			<path fill="#D84459" d="M16,26.007c-1.922,0-3.661-0.258-5.089-0.666c-0.17,0.678-0.341,1.324-0.512,1.941
				c1.623,0.461,3.524,0.724,5.6,0.724V26.007z"/>
			<path fill="#C84054" d="M16,18.007c-1.228,0-2.378-0.107-3.423-0.29c-0.124,0.655-0.254,1.311-0.388,1.969
				c1.179,0.205,2.456,0.321,3.812,0.321s2.633-0.116,3.812-0.321c-0.134-0.657-0.264-1.314-0.388-1.969
				C18.378,17.899,17.228,18.007,16,18.007z"/>
			<path fill="#D84459" d="M16,18.007c-1.228,0-2.378-0.107-3.423-0.29c-0.124,0.655-0.254,1.311-0.388,1.969
				c1.179,0.205,2.456,0.321,3.812,0.321V18.007z"/>
			<path fill="#D84459" d="M16,18.007c-1.228,0-2.378-0.107-3.423-0.29c-0.124,0.655-0.254,1.311-0.388,1.969
				c1.179,0.205,2.456,0.321,3.812,0.321V18.007z"/>
			<path fill="#C84054" d="M16,22.007c-1.543,0-2.966-0.168-4.207-0.445c-0.144,0.663-0.291,1.32-0.44,1.961
				c1.399,0.31,2.965,0.485,4.647,0.485s3.248-0.175,4.647-0.484c-0.15-0.641-0.296-1.298-0.44-1.961
				C18.966,21.839,17.543,22.007,16,22.007z"/>
			<path fill="#D84459" d="M16,22.007c-1.543,0-2.966-0.168-4.207-0.445c-0.144,0.663-0.291,1.32-0.44,1.961
				c1.399,0.31,2.965,0.485,4.647,0.485V22.007z"/>
			<path fill="#C84054" d="M22.102,29.011c-0.001-0.003-0.002-0.006-0.003-0.008c-1.578,0.598-3.693,1.004-6.099,1.004
				c-2.406,0-4.521-0.406-6.099-1.004c-0.002,0.006-0.004,0.014-0.006,0.02C11.023,30.761,13.017,32,16,32
				C18.973,32,20.971,30.755,22.102,29.011z"/>
			<path fill="#D84459" d="M16,30.007c-2.406,0-4.521-0.406-6.099-1.004c-0.002,0.006-0.004,0.014-0.006,0.02
				C11.023,30.761,13.017,32,16,32V30.007z"/>
			<path fill="#C84054" d="M16,14.007c-0.965,0-1.884-0.065-2.741-0.181c-0.103,0.644-0.212,1.301-0.331,1.976
				c0.969,0.131,1.995,0.205,3.071,0.205s2.102-0.074,3.071-0.205c-0.119-0.674-0.228-1.331-0.331-1.976
				C17.884,13.942,16.965,14.007,16,14.007z"/>
			<path fill="#D84459" d="M16,14.007c-0.965,0-1.884-0.065-2.741-0.181c-0.103,0.644-0.212,1.301-0.331,1.976
				c0.969,0.131,1.995,0.205,3.071,0.205V14.007z"/>
			<path fill="#C84054" d="M16,10.007c-0.766,0-1.498-0.045-2.198-0.12c-0.068,0.619-0.153,1.288-0.251,1.991
				c0.784,0.083,1.601,0.129,2.449,0.129s1.665-0.047,2.449-0.129c-0.098-0.703-0.183-1.372-0.251-1.991
				C17.498,9.962,16.766,10.007,16,10.007z"/>
			<path fill="#D84459" d="M16,10.007c-0.766,0-1.498-0.045-2.198-0.12c-0.068,0.619-0.153,1.288-0.251,1.991
				c0.784,0.083,1.601,0.129,2.449,0.129V10.007z"/>
		</g>
		<path fill="#FFD04D" d="M19.986,8l2.704,0.902c0.152,0.051,0.218,0.229,0.135,0.366l-1.101,1.835
			c-0.155,0.259-0.388,0.462-0.666,0.581l-2.3,0.986c-0.229,0.098-0.444-0.162-0.306-0.368l1.534-2.3C19.986,10,19.986,8,19.986,8z"
			/>
		<path fill="#FFD04D" d="M21.319,16h-2.715c-0.223,0-0.334-0.269-0.177-0.427l2.31-2.31C20.914,14.15,21.111,15.073,21.319,16z"/>
		<polygon fill="#2B3332" points="19,7 19,3 16,3 13,3 13,7 16,7 		"/>
		<rect x="13" y="3" fill="#373F3F" width="3" height="4"/>
		<circle fill="#D84459" cx="14" cy="5.5" r="0.5"/>
		<circle fill="#C84054" cx="18" cy="5.5" r="0.5"/>
		<path fill="#FFD96C" d="M12,8L9.296,8.901C9.144,8.952,9.078,9.13,9.16,9.267l1.101,1.835c0.155,0.259,0.388,0.462,0.666,0.581
			l2.3,0.986c0.229,0.098,0.444-0.162,0.306-0.368L12,10C12,10,12,8,12,8z"/>
		<path fill="#FFD96C" d="M10.681,16h2.715c0.223,0,0.334-0.269,0.177-0.427l-2.31-2.31C11.086,14.15,10.889,15.073,10.681,16z"/>
		<path fill="#FFD96C" d="M10.378,17.332c-0.213,0.92-0.429,1.818-0.636,2.668h3.007c0.223,0,0.334-0.269,0.177-0.427L10.378,17.332
			z"/>
		<path fill="#FFD04D" d="M21.622,17.332c0.213,0.92,0.429,1.818,0.636,2.668H19.25c-0.223,0-0.334-0.269-0.177-0.427L21.622,17.332
			z"/>
		<path fill="#FFD04D" d="M19,3v2.187c0,0.591-0.34,1.127-0.877,1.373C17.627,6.789,16.919,7,16,7c-0.919,0-1.627-0.211-2.123-0.439
			C13.34,6.314,13,5.778,13,5.187V3l-2.698-0.923c-0.126-0.043-0.237,0.092-0.179,0.212C10.959,4.026,10.998,4.965,11,5.867
			c0,0.076,0.057,0.132,0.133,0.139c0.844,0.084,1.689,0.948,1.85,1.871C12.995,7.949,13.052,8,13.124,8
			c0.923,0.002,1.846,0.038,2.769,0.896c0.058,0.054,0.157,0.054,0.215,0C17.03,8.038,17.953,8.002,18.876,8
			c0.072,0,0.129-0.051,0.141-0.122c0.161-0.923,1.006-1.787,1.85-1.871C20.943,5.999,21,5.943,21,5.867
			c0.002-0.902,0.041-1.842,0.876-3.577c0.058-0.12-0.052-0.256-0.179-0.212L19,3z"/>
		<g>
			<path fill="#FFD96C" d="M13.877,6.561C13.34,6.314,13,5.778,13,5.187V3l-2.698-0.923c-0.126-0.043-0.237,0.092-0.179,0.212
				C10.959,4.026,10.998,4.965,11,5.867c0,0.076,0.057,0.132,0.133,0.139c0.844,0.084,1.689,0.948,1.85,1.871
				C12.995,7.949,13.052,8,13.124,8c0.923,0.002,1.846,0.038,2.769,0.896c0.029,0.027,0.068,0.04,0.107,0.04V7
				C15.081,7,14.373,6.789,13.877,6.561z"/>
		</g>
		<path fill="#FFD04D" d="M19.407,0.185c-0.068-0.256-0.441-0.242-0.493,0.017c-0.226,1.147-0.963,2.69-2.915,2.69
			s-2.688-1.544-2.915-2.69c-0.051-0.26-0.425-0.273-0.493-0.017C12.187,1.711,12.789,4.449,15,4.814l0.908,0.98
			c0.049,0.053,0.134,0.053,0.183,0L17,4.814C19.211,4.449,19.813,1.711,19.407,0.185z"/>
		<g>
			<path fill="#FFD96C" d="M13.085,0.202c-0.051-0.26-0.424-0.273-0.493-0.017C12.187,1.711,12.789,4.449,15,4.814l0.908,0.98
				c0.025,0.027,0.058,0.04,0.092,0.04V2.893C14.049,2.893,13.312,1.349,13.085,0.202z"/>
		</g>
	</g>
</g>
</svg>
