<?xml version="1.0" encoding="utf-8"?>
<!-- Generator: Adobe Illustrator 23.0.6, SVG Export Plug-In . SVG Version: 6.00 Build 0)  -->
<svg version="1.1" xmlns="http://www.w3.org/2000/svg" xmlns:xlink="http://www.w3.org/1999/xlink" x="0px" y="0px" width="32px"
	 height="32px" viewBox="0 0 32 32" enable-background="new 0 0 32 32" xml:space="preserve">
<g id="labels">
</g>
<g id="icons">
	<g>
		<path fill="#FAE09F" d="M13,18c-0.86,0.86-1.939,2.362-3.309,4.123C9.244,22.698,9,23.409,9,24.137V30h5v-4l2-2L13,18z"/>
		<path fill="#EDEEEE" d="M11.388,27.224l-1.332,2.665c-0.023,0.046-0.089,0.046-0.112,0l-0.707-1.415
			C9.178,28.356,9,28.398,9,28.53V30c0,0.552,0.448,1,1,1h3c0.552,0,1-0.448,1-1v-1.47c0-0.132-0.178-0.174-0.237-0.056
			l-0.707,1.415c-0.023,0.046-0.089,0.046-0.112,0l-1.332-2.665C11.566,27.131,11.434,27.131,11.388,27.224z"/>
		<path fill="#F7D684" d="M19,18c0.86,0.86,1.939,2.362,3.309,4.123C22.756,22.698,23,23.409,23,24.137V30h-5v-4l-2-2L19,18z"/>
		<path fill="#E3E5E5" d="M20.612,27.224l1.332,2.665c0.023,0.046,0.089,0.046,0.112,0l0.707-1.415
			C22.822,28.356,23,28.398,23,28.53V30c0,0.552-0.448,1-1,1h-3c-0.552,0-1-0.448-1-1v-1.47c0-0.132,0.178-0.174,0.237-0.056
			l0.707,1.415c0.023,0.046,0.089,0.046,0.112,0l1.332-2.665C20.434,27.131,20.566,27.131,20.612,27.224z"/>
		<path fill="#373F3F" d="M6.859,1.127L5.003,3.944C4.98,3.979,4.941,4,4.899,4H4.043C3.996,4,3.952,4.027,3.931,4.069L3,5.931
			C2.979,5.973,2.936,6,2.889,6H1.995C1.976,6,1.957,6.005,1.939,6.013l-1.82,0.91C0.043,6.961,0.026,7.062,0.086,7.123L0.894,7.95
			c0.03,0.031,0.042,0.075,0.032,0.117l-0.923,3.778C-0.016,11.924,0.044,12,0.125,12h0.803c0.042,0,0.081-0.021,0.104-0.056
			l1.897-2.887C2.952,9.021,2.991,9,3.033,9h0.808C3.91,9,3.966,9.056,3.966,9.125v0.823c0,0.033-0.013,0.065-0.037,0.088
			l-0.927,0.927c-0.023,0.023-0.037,0.055-0.037,0.088V12l0.022,1.876C2.988,13.945,3.044,14,3.113,14h0.722
			c0.071,0,0.128-0.06,0.125-0.131l-0.039-0.835C3.92,13.012,3.925,12.99,3.935,12.97l0.996-1.903C4.952,11.026,4.995,11,5.042,11
			h0.799c0.069,0,0.125,0.056,0.125,0.125v0.823c0,0.033-0.013,0.065-0.037,0.088l-0.927,0.927
			c-0.023,0.023-0.037,0.055-0.037,0.088v1.823C4.966,14.944,5.022,15,5.091,15h0.75c0.069,0,0.125-0.056,0.125-0.125v-0.823
			c0-0.033,0.013-0.065,0.037-0.088l0.927-0.927C6.953,13.013,6.984,13,7.018,13h0.823c0.069,0,0.125,0.056,0.125,0.125v2.75
			C7.966,15.944,8.022,16,8.091,16h0.75c0.069,0,0.125-0.056,0.125-0.125v-1.791c0-0.051,0.031-0.096,0.077-0.116l0.845-0.348
			c0.047-0.019,0.077-0.065,0.077-0.116v-0.416c0-0.053,0.034-0.101,0.084-0.118l2.832-0.981c0.05-0.017,0.084-0.065,0.084-0.118
			V8.125C12.966,8.056,12.91,8,12.841,8H7.043C6.996,8,6.952,7.973,6.931,7.931L5.979,6.026C5.97,6.009,5.966,5.99,5.966,5.97V5.038
			c0-0.025,0.007-0.049,0.021-0.069l1.921-2.882c0.033-0.05,0.026-0.117-0.017-0.159L7.051,1.106
			C6.995,1.051,6.902,1.061,6.859,1.127z"/>
		<path fill="#2B3332" d="M25.141,1.127l1.856,2.817C27.02,3.979,27.059,4,27.101,4h0.855c0.047,0,0.091,0.027,0.112,0.069L29,5.931
			C29.021,5.973,29.064,6,29.111,6h0.893c0.019,0,0.039,0.005,0.056,0.013l1.82,0.91c0.076,0.038,0.093,0.139,0.034,0.199
			L31.106,7.95c-0.03,0.031-0.042,0.075-0.032,0.117l0.923,3.778C32.016,11.924,31.956,12,31.875,12h-0.803
			c-0.042,0-0.081-0.021-0.104-0.056l-1.897-2.887C29.048,9.021,29.009,9,28.967,9h-0.808c-0.069,0-0.125,0.056-0.125,0.125v0.823
			c0,0.033,0.013,0.065,0.037,0.088l0.927,0.927c0.023,0.023,0.037,0.055,0.037,0.088V12l-0.022,1.876
			C29.012,13.945,28.956,14,28.887,14h-0.722c-0.071,0-0.128-0.06-0.125-0.131l0.039-0.835c0.001-0.022-0.004-0.044-0.014-0.064
			l-0.996-1.903C27.048,11.026,27.005,11,26.958,11h-0.799c-0.069,0-0.125,0.056-0.125,0.125v0.823c0,0.033,0.013,0.065,0.037,0.088
			l0.927,0.927c0.023,0.023,0.037,0.055,0.037,0.088v1.823c0,0.069-0.056,0.125-0.125,0.125h-0.75c-0.069,0-0.125-0.056-0.125-0.125
			v-0.823c0-0.033-0.013-0.065-0.037-0.088l-0.927-0.927C25.047,13.013,25.016,13,24.982,13h-0.823
			c-0.069,0-0.125,0.056-0.125,0.125v2.75c0,0.069-0.056,0.125-0.125,0.125h-0.75c-0.069,0-0.125-0.056-0.125-0.125v-1.791
			c0-0.051-0.031-0.096-0.077-0.116l-0.845-0.348c-0.047-0.019-0.077-0.065-0.077-0.116v-0.416c0-0.053-0.034-0.101-0.084-0.118
			l-2.832-0.981c-0.05-0.017-0.084-0.065-0.084-0.118V8.125C19.034,8.056,19.09,8,19.159,8h5.798c0.047,0,0.091-0.027,0.112-0.069
			l0.952-1.905c0.009-0.017,0.013-0.036,0.013-0.056V5.038c0-0.025-0.007-0.049-0.021-0.069l-1.921-2.882
			c-0.033-0.05-0.026-0.117,0.017-0.159l0.841-0.822C25.005,1.051,25.098,1.061,25.141,1.127z"/>
		<path fill="#FAE09F" d="M22,20c-1-4-2-9-2-12c0-3.371-0.007-6-4-6s-4,2.629-4,6c0,3-1,8-2,12s2,7,6,7S23,24,22,20z"/>
		<path fill="#FAE09F" d="M21,19c0.86,0.86,1.939,2.362,3.309,4.123C24.756,23.698,25,24.409,25,25.137V31h-5v-4l-3-2L21,19z"/>
		<path fill="#EDEEEE" d="M22.612,28.224l1.332,2.665c0.023,0.046,0.089,0.046,0.112,0l0.707-1.415
			C24.822,29.356,25,29.398,25,29.53V31c0,0.552-0.448,1-1,1h-3c-0.552,0-1-0.448-1-1v-1.47c0-0.132,0.178-0.174,0.237-0.056
			l0.707,1.415c0.023,0.046,0.089,0.046,0.112,0l1.332-2.665C22.434,28.131,22.566,28.131,22.612,28.224z"/>
		<path fill="#2B3332" d="M19.799,26.866l-0.767-0.51c1.424-1.981,2.637-4.804,3.015-6.157c0.226,0.282,0.534,0.677,0.784,1.001
			C22.251,22.834,21.075,25.093,19.799,26.866z"/>
		<path fill="#FDEBBB" d="M16,2c-3.993,0-4,2.629-4,6c0,3-1,8-2,12s2,7,6,7V2z"/>
		<path fill="#FDEBBB" d="M11,19c-0.86,0.86-1.939,2.362-3.309,4.123C7.244,23.698,7,24.409,7,25.137V31h5v-4l3-2L11,19z"/>
		<path fill="#F7F7F7" d="M9.388,28.224l-1.332,2.665c-0.023,0.046-0.089,0.046-0.112,0l-0.707-1.415C7.178,29.356,7,29.398,7,29.53
			V31c0,0.552,0.448,1,1,1h3c0.552,0,1-0.448,1-1v-1.47c0-0.132-0.178-0.174-0.237-0.056l-0.707,1.415
			c-0.023,0.046-0.089,0.046-0.112,0l-1.332-2.665C9.566,28.131,9.434,28.131,9.388,28.224z"/>
		<path fill="#2B3332" d="M19,9V3h-3h-3v6l0.966,2.898c0.022,0.067,0.03,0.138,0.023,0.208l-0.953,9.518
			c-0.024,0.248-0.001,0.499,0.068,0.739l1.273,4.457C14.894,26.934,15.435,27,16,27s1.106-0.066,1.623-0.18l1.273-4.457
			c0.069-0.24,0.092-0.491,0.068-0.739l-0.953-9.518c-0.007-0.07,0.001-0.141,0.023-0.208L19,9z"/>
		<path fill="#373F3F" d="M13,3v6l0.966,2.898c0.022,0.067,0.03,0.138,0.023,0.208l-0.953,9.518
			c-0.024,0.248-0.001,0.499,0.068,0.739l1.271,4.468C14.891,26.945,15.435,27,16,27V3H13z"/>
		<path fill="#F7F7F7" d="M7.5,5.553L13,3v6L7.5,6.447C7.131,6.263,7.131,5.737,7.5,5.553z"/>
		<path fill="#F7F7F7" d="M10.735,5.977c0,2.843,1.796,4.787,3.686,4.984c0.115,0.012,0.181-0.124,0.105-0.21
			c-1.104-1.247-1.791-2.89-1.791-4.773H10.735z"/>
		<path fill="#EDEEEE" d="M24.5,5.553L19,3v6l5.5-2.553C24.869,6.263,24.869,5.737,24.5,5.553z"/>
		<path fill="#EDEEEE" d="M21.265,5.977c0,2.843-1.796,4.787-3.686,4.984c-0.115,0.012-0.181-0.124-0.105-0.21
			c1.104-1.247,1.791-2.89,1.791-4.773H21.265z"/>
		<circle fill="#56C7CD" cx="14" cy="5.5" r="0.5"/>
		<circle fill="#51BAC5" cx="18" cy="5.5" r="0.5"/>
		<g>
			<path fill="#F7F7F7" d="M8.194,11l3.384,0.004c0.073-0.013,0.147,0.007,0.204,0.054l1.287,1.069
				c0.155,0.129,0.102,0.379-0.092,0.433l-1.53,0.428c-0.044,0.012-0.091,0.012-0.136,0l-3.141-1.501
				C7.914,11.414,7.933,11.047,8.194,11z"/>
			<path fill="#F7F7F7" d="M7.93,14l3.239,0.002c0.072-0.008,0.144,0.015,0.197,0.063l1.249,1.136
				c0.148,0.135,0.085,0.381-0.11,0.428l-1.559,0.377c-0.05,0.012-0.102,0.009-0.149-0.01l-2.929-1.515
				C7.625,14.387,7.671,14.03,7.93,14z"/>
			<path fill="#F7F7F7" d="M7.221,17l3.239,0.002c0.072-0.008,0.144,0.015,0.197,0.063l1.249,1.136
				c0.148,0.135,0.085,0.381-0.11,0.428l-1.559,0.377c-0.05,0.012-0.102,0.009-0.149-0.01L7.16,17.481
				C6.917,17.387,6.962,17.03,7.221,17z"/>
		</g>
		<g>
			<path fill="#EDEEEE" d="M23.806,11l-3.384,0.004c-0.073-0.013-0.147,0.007-0.204,0.054l-1.287,1.069
				c-0.155,0.129-0.102,0.379,0.092,0.433l1.53,0.428c0.044,0.012,0.091,0.012,0.136,0l3.141-1.501
				C24.086,11.414,24.067,11.047,23.806,11z"/>
			<path fill="#EDEEEE" d="M24.07,14l-3.239,0.002c-0.072-0.008-0.144,0.015-0.197,0.063l-1.249,1.136
				c-0.148,0.135-0.085,0.381,0.11,0.428l1.559,0.377c0.05,0.012,0.102,0.009,0.149-0.01l2.929-1.515
				C24.375,14.387,24.329,14.03,24.07,14z"/>
			<path fill="#EDEEEE" d="M24.779,17l-3.239,0.002c-0.072-0.008-0.144,0.015-0.197,0.063l-1.249,1.136
				c-0.148,0.135-0.085,0.381,0.11,0.428l1.559,0.377c0.05,0.012,0.102,0.009,0.149-0.01l2.929-1.515
				C25.083,17.387,25.038,17.03,24.779,17z"/>
		</g>
		<path fill="#EDEEEE" d="M19.407,0.185c-0.068-0.256-0.441-0.242-0.493,0.017c-0.226,1.147-0.963,2.69-2.915,2.69
			s-2.688-1.544-2.915-2.69c-0.051-0.26-0.425-0.273-0.493-0.017C12.187,1.711,12.789,4.449,15,4.814l0.908,0.98
			c0.049,0.053,0.134,0.053,0.183,0L17,4.814C19.211,4.449,19.813,1.711,19.407,0.185z"/>
		<g>
			<path fill="#F7F7F7" d="M13.085,0.202c-0.051-0.26-0.424-0.273-0.493-0.017C12.187,1.711,12.789,4.449,15,4.814l0.908,0.98
				c0.025,0.027,0.058,0.04,0.092,0.04V2.893C14.049,2.893,13.312,1.349,13.085,0.202z"/>
		</g>
		<path fill="#EDEEEE" d="M17,6.939l-0.818,0.868c-0.099,0.105-0.265,0.105-0.364,0L15,6.939C13.219,6.708,12.351,4.854,11.503,4
			c0,1.381,0.993,5,4.497,5s4.497-3.619,4.497-5C19.649,4.854,18.781,6.708,17,6.939z"/>
		<g>
			<path fill="#F7F7F7" d="M15.818,7.807L15,6.939C13.219,6.708,12.351,4.854,11.503,4c0,1.381,0.993,5,4.497,5V7.885
				C15.934,7.885,15.867,7.859,15.818,7.807z"/>
		</g>
		<path fill="#373F3F" d="M12.201,26.866l0.76-0.515c-1.424-1.981-2.631-4.808-3.009-6.162c-0.226,0.282-0.534,0.685-0.783,1.01
			C9.749,22.834,10.925,25.093,12.201,26.866z"/>
		<g>
			<path fill="#51BAC5" d="M13.036,21.624c-0.012,0.125-0.012,0.251,0,0.376h5.928c0.012-0.125,0.012-0.251,0-0.376L18.801,20
				h-5.603L13.036,21.624z"/>
			<path fill="#51BAC5" d="M13.977,12c0.004,0.036,0.015,0.07,0.012,0.106L13.8,14H18.2l-0.19-1.894
				c-0.004-0.036,0.008-0.071,0.012-0.106H13.977z"/>
			<polygon fill="#51BAC5" points="18.601,18 18.401,16 13.599,16 13.399,18 			"/>
		</g>
		<g>
			<path fill="#56C7CD" d="M13.199,20l-0.163,1.624c-0.012,0.125-0.012,0.251,0,0.376H16v-2H13.199z"/>
			<path fill="#56C7CD" d="M13.977,12c0.004,0.036,0.015,0.07,0.012,0.106L13.8,14H16v-2H13.977z"/>
			<polygon fill="#56C7CD" points="13.599,16 13.399,18 16,18 16,16 			"/>
		</g>
		<path fill="#F7F7F7" d="M6.129,23.969l1.49-0.93c0.118-0.066,0.266-0.026,0.336,0.09l0.992,1.741
			c0.075,0.125,0.028,0.287-0.102,0.352l-1.701,0.752c-0.123,0.062-0.274,0.012-0.335-0.112l-0.781-1.562
			C5.967,24.18,6.012,24.034,6.129,23.969z"/>
		<path fill="#EDEEEE" d="M25.854,23.969l-1.49-0.93c-0.118-0.066-0.266-0.026-0.336,0.09l-0.992,1.741
			c-0.075,0.125-0.028,0.287,0.102,0.352l1.701,0.752c0.123,0.062,0.274,0.012,0.335-0.112l0.781-1.562
			C26.016,24.18,25.971,24.034,25.854,23.969z"/>
	</g>
</g>
</svg>
