<?xml version="1.0" encoding="utf-8"?>
<!-- Generator: Adobe Illustrator 23.0.2, SVG Export Plug-In . SVG Version: 6.00 Build 0)  -->
<svg version="1.1" xmlns="http://www.w3.org/2000/svg" xmlns:xlink="http://www.w3.org/1999/xlink" x="0px" y="0px" width="32px"
	 height="32px" viewBox="0 0 32 32" enable-background="new 0 0 32 32" xml:space="preserve">
<g id="labels">
</g>
<g id="icons">
	<g>
		<path fill="#99C7CE" d="M13.839,28.965l1.719,2.813c0.198,0.325,0.672,0.318,0.861-0.013L18,29L13.839,28.965z"/>
		<g>
			<path fill="#9FCCD3" d="M13.839,28.965l1.719,2.813c0.101,0.165,0.272,0.242,0.441,0.237v-3.032L13.839,28.965z"/>
		</g>
		<path fill="#A5D1D8" d="M15,2c0,0,1.038-2,5.11-2C27.928,0,32,13.199,32,23.134C32,23.704,32,25,31,25s-1-2-1-2s0,2-1,2s-1-1-1-2
			c0-10-0.807-15.138-3-18c-3.831-5-7-3-7-3H15z"/>
		<path fill="#9FCCD3" d="M11.777,20c-3,2-9.22,6.369-11.22,8.369c-1.581,1.581,0.22,6,5.22,2s6-8.369,6-8.369V20z"/>
		<path fill="#99C7CE" d="M20.223,20c3,2,9.22,6.369,11.22,8.369c1.581,1.581-0.22,6-5.22,2s-6-8.369-6-8.369V20z"/>
		<circle fill="#99C7CE" cx="16" cy="25" r="5"/>
		<path fill="#9FCCD3" d="M16,30c-2.761,0-5-2.239-5-5s2.239-5,5-5V30z"/>
		<path fill="#A5D1D8" d="M26,16c0,5.263-4.477,8-10,8S6,21.263,6,16S10.477,5,16,5S26,10.737,26,16z"/>
		<path fill="#ACD7DD" d="M16,24c-5.523,0-10-2.737-10-8S10.477,5,16,5V24z"/>
		<path fill="#FF7898" d="M14.282,19H16h1.718c0.16,0,0.277,0.146,0.245,0.302C17.86,19.803,17.47,21,15.994,21
			c-1.468,0-1.856-1.198-1.958-1.698C14.005,19.146,14.122,19,14.282,19z"/>
		<path fill="#FF87A4" d="M15.994,21c-1.468,0-1.856-1.198-1.958-1.698C14.005,19.146,14.122,19,14.282,19H16L15.994,21z"/>
		
			<rect x="9.229" y="12.75" transform="matrix(0.4141 -0.9102 0.9102 0.4141 -4.8833 18.9136)" fill="#5CA3D5" width="6.042" height="1"/>
		
			<rect x="19.25" y="10.229" transform="matrix(0.9104 -0.4138 0.4138 0.9104 -3.7126 9.3603)" fill="#4896C8" width="1" height="6.042"/>
		<circle fill="#5CA3D5" cx="13.5" cy="10.5" r="1.5"/>
		<circle fill="#4896C8" cx="18.5" cy="10.5" r="1.5"/>
		<ellipse fill="#A5D1D8" cx="16" cy="4" rx="5" ry="3"/>
		<path fill="#ACD7DD" d="M16,7c-2.761,0-5-1.343-5-3s2.239-3,5-3V7z"/>
		<g>
			<ellipse fill="#776151" cx="20.5" cy="16" rx="2.5" ry="3"/>
			<path fill="#4896C8" d="M20.5,14c0.813,0,1.5,0.916,1.5,2s-0.687,2-1.5,2S19,17.084,19,16S19.687,14,20.5,14 M20.5,13
				c-1.381,0-2.5,1.343-2.5,3s1.119,3,2.5,3s2.5-1.343,2.5-3S21.881,13,20.5,13L20.5,13z"/>
		</g>
		<circle fill="#2B3332" cx="20.5" cy="16" r="0.5"/>
		<g>
			<ellipse fill="#776151" cx="11.5" cy="16" rx="2.5" ry="3"/>
			<path fill="#529CCF" d="M11.5,14c0.813,0,1.5,0.916,1.5,2s-0.687,2-1.5,2S10,17.084,10,16S10.687,14,11.5,14 M11.5,13
				C10.119,13,9,14.343,9,16s1.119,3,2.5,3s2.5-1.343,2.5-3S12.881,13,11.5,13L11.5,13z"/>
		</g>
		<circle fill="#2B3332" cx="11.5" cy="16" r="0.5"/>
		<ellipse fill="#D1473D" cx="16" cy="27" rx="1" ry="2"/>
		<path fill="#D64F45" d="M16,29c-0.552,0-1-0.895-1-2s0.448-2,1-2V29z"/>
		<g>
			<path fill="#A5D1D8" d="M6.569,19c1.373,3.299,5.077,5,9.431,5v-2C12.642,22,9,21,6.569,19z"/>
			<path fill="#9FCCD3" d="M16,22v2c4.354,0,8.058-1.701,9.431-5C23,21,19.358,22,16,22z"/>
		</g>
	</g>
</g>
</svg>
