<?xml version="1.0" encoding="utf-8"?>
<!-- Generator: Adobe Illustrator 23.0.2, SVG Export Plug-In . SVG Version: 6.00 Build 0)  -->
<svg version="1.1" xmlns="http://www.w3.org/2000/svg" xmlns:xlink="http://www.w3.org/1999/xlink" x="0px" y="0px" width="32px"
	 height="32px" viewBox="0 0 32 32" enable-background="new 0 0 32 32" xml:space="preserve">
<g id="labels">
</g>
<g id="icons">
	<g>
		<path fill="#99C7CE" d="M16.186,4.434c-0.091-1.114,0.169-2.444,1.138-3.333c0.952-0.889,2.294-1.165,3.484-1.074
			c2.429,0.218,4.505,1.575,6.057,3.241c1.568,1.681,2.684,3.73,3.314,5.89c0.643,2.158,0.851,4.408,0.718,6.607h-0.794
			c-0.154-2.128-0.517-4.221-1.206-6.187c-0.732-1.941-1.715-3.798-3.142-5.261C24.35,2.878,22.58,1.69,20.666,1.418
			c-0.939-0.146-1.915-0.024-2.619,0.525c-0.738,0.516-1.108,1.477-1.233,2.494L16.186,4.434z"/>
		<path fill="#A5D1D8" d="M16.28,4.436c-0.066-0.54,0.155-1.141,0.544-1.547c0.381-0.421,0.876-0.671,1.369-0.823
			c0.995-0.305,2.027-0.264,2.984-0.04c1.935,0.45,3.591,1.663,4.789,3.154c1.221,1.487,2.007,3.268,2.421,5.084
			c0.44,1.815,0.55,3.677,0.433,5.5H28.18c-0.117-1.78-0.389-3.535-0.888-5.203c-0.242-0.836-0.582-1.634-0.969-2.396
			c-0.375-0.769-0.847-1.483-1.393-2.124C23.841,4.76,22.412,3.79,20.844,3.33c-0.78-0.221-1.609-0.309-2.364-0.169
			c-0.756,0.136-1.418,0.531-1.509,1.275H16.28z"/>
		<circle fill="#99C7CE" cx="30.5" cy="16.5" r="1.5"/>
		<path fill="#9FCCD3" d="M11.777,18.196c-3,2-9.22,6.369-11.22,8.369c-1.581,1.581,0.22,6,5.22,2s6-8.369,6-8.369V18.196z"/>
		<path fill="#99C7CE" d="M20.223,18c3,2,9.22,6.369,11.22,8.369c1.581,1.581-0.22,6-5.22,2s-6-8.369-6-8.369V18z"/>
		<path fill="#99C7CE" d="M22,25c0-4-3.239-7-6-7s-6,3-6,7s-2.118,7,0,7c2.961,0,4-1,6-1s2.987,1,6,1C24.118,32,22,29,22,25z"/>
		<path fill="#9FCCD3" d="M16,18c-2.761,0-6,3-6,7s-2.118,7,0,7c2.961,0,4-1,6-1V18z"/>
		<path fill="#A5D1D8" d="M26,14c0,5.263-4.477,8-10,8S6,19.263,6,14S10.477,3,16,3S26,8.737,26,14z"/>
		<path fill="#ACD7DD" d="M16,22c-5.523,0-10-2.737-10-8S10.477,3,16,3V22z"/>
		
			<rect x="9.229" y="10.75" transform="matrix(0.4141 -0.9102 0.9102 0.4141 -3.0628 17.7418)" fill="#FFEAA7" width="6.042" height="1"/>
		
			<rect x="19.25" y="8.229" transform="matrix(0.9104 -0.4138 0.4138 0.9104 -2.885 9.181)" fill="#FFE28A" width="1" height="6.042"/>
		<circle fill="#FFEAA7" cx="13.5" cy="8.5" r="1.5"/>
		
			<rect x="9.5" y="9.085" transform="matrix(0.8575 -0.5145 0.5145 0.8575 -4.7489 6.855)" fill="#FFEAA7" width="1" height="5.831"/>
		<path fill="#FFEAA7" d="M8.5,8C8.201,8,7.923,8.09,7.689,8.241C7.432,8.668,7.21,9.113,7.007,9.566C7.042,10.363,7.694,11,8.5,11
			c0.828,0,1.5-0.672,1.5-1.5S9.328,8,8.5,8z"/>
		<g>
			
				<rect x="19.096" y="11.5" transform="matrix(0.5145 -0.8575 0.8575 0.5145 0.3969 24.7009)" fill="#FFE28A" width="5.831" height="1"/>
			<path fill="#FFE28A" d="M23.512,8c0.299,0,0.577,0.09,0.811,0.241c0.257,0.427,0.479,0.872,0.682,1.325
				C24.97,10.363,24.318,11,23.512,11c-0.828,0-1.5-0.672-1.5-1.5S22.683,8,23.512,8z"/>
		</g>
		<circle fill="#FFE28A" cx="18.5" cy="8.5" r="1.5"/>
		<g>
			<ellipse fill="#515E91" cx="20.5" cy="14" rx="2.5" ry="3"/>
			<path fill="#FFE28A" d="M20.5,12c0.813,0,1.5,0.916,1.5,2s-0.687,2-1.5,2S19,15.084,19,14S19.687,12,20.5,12 M20.5,11
				c-1.381,0-2.5,1.343-2.5,3s1.119,3,2.5,3s2.5-1.343,2.5-3S21.881,11,20.5,11L20.5,11z"/>
		</g>
		<circle fill="#2B3332" cx="20.5" cy="14" r="0.5"/>
		<g>
			<ellipse fill="#5B689D" cx="11.5" cy="14" rx="2.5" ry="3"/>
			<path fill="#FFEAA7" d="M11.5,12c0.813,0,1.5,0.916,1.5,2s-0.687,2-1.5,2S10,15.084,10,14S10.687,12,11.5,12 M11.5,11
				C10.119,11,9,12.343,9,14s1.119,3,2.5,3s2.5-1.343,2.5-3S12.881,11,11.5,11L11.5,11z"/>
		</g>
		<circle fill="#2B3332" cx="11.5" cy="14" r="0.5"/>
		<ellipse fill="#D1473D" cx="16" cy="25" rx="1" ry="2"/>
		<path fill="#D64F45" d="M16,27c-0.552,0-1-0.895-1-2s0.448-2,1-2V27z"/>
		<g>
			<path fill="#A5D1D8" d="M6.569,17c1.373,3.299,5.077,5,9.431,5v-2C12.642,20,9,19,6.569,17z"/>
			<path fill="#9FCCD3" d="M16,20v2c4.354,0,8.058-1.701,9.431-5C23,19,19.358,20,16,20z"/>
		</g>
		<circle fill="#FFE28A" cx="16" cy="28.997" r="1"/>
		<path fill="#FFEAA7" d="M16,29.997c-0.552,0-1-0.448-1-1s0.448-1,1-1V29.997z"/>
		<circle fill="#A5D1D8" cx="28.5" cy="16.5" r="1.5"/>
		<path fill="#FF7898" d="M14.282,17H16h1.718c0.16,0,0.277,0.146,0.245,0.302C17.86,17.803,17.47,19,15.994,19
			c-1.468,0-1.856-1.198-1.958-1.698C14.005,17.146,14.122,17,14.282,17z"/>
		<path fill="#FF87A4" d="M15.994,19c-1.468,0-1.856-1.198-1.958-1.698C14.005,17.146,14.122,17,14.282,17H16L15.994,19z"/>
	</g>
</g>
</svg>
