<?xml version="1.0" encoding="utf-8"?>
<!-- Generator: Adobe Illustrator 23.0.6, SVG Export Plug-In . SVG Version: 6.00 Build 0)  -->
<svg version="1.1" xmlns="http://www.w3.org/2000/svg" xmlns:xlink="http://www.w3.org/1999/xlink" x="0px" y="0px" width="32px"
	 height="32px" viewBox="0 0 32 32" enable-background="new 0 0 32 32" xml:space="preserve">
<g id="labels">
</g>
<g id="icons">
	<g>
		<path fill="#DD564C" d="M20.13,22c1.41-1.41,2.957-1.409,3.87-1c1.814,0.812,1.984,2.732,4.459,3.795
			c0.195,0.084,0.192,0.374-0.004,0.457C24.636,26.884,20.879,25.603,20.13,22z"/>
		<path fill="#E55D53" d="M20.2,22.007c1.007-1.721,2-4,5-4c2.829,0,3.88,2.668,6.507,2.178c0.209-0.039,0.367,0.195,0.257,0.377
			C30.307,23.325,23.03,25.779,20.2,22.007z"/>
		<path fill="#E3E5E5" d="M11.442,8.608L9.071,6.554V3.95c0-0.552-0.448-1-1-1s-1,0.448-1,1V4.82l-0.95-0.823V1c0-0.552-0.448-1-1-1
			s-1,0.448-1,1v1.264L2.463,0.826C2.037,0.458,1.398,0.48,1,0.879S0.579,1.916,0.948,2.341l1.543,1.78H1c-0.552,0-1,0.448-1,1
			s0.448,1,1,1h3.224l0.823,0.95H3.95c-0.552,0-1,0.448-1,1s0.448,1,1,1h2.83l1.95,2.25c0.408,0.471,1.13,0.497,1.571,0.056
			l1.197-1.197C11.939,9.739,11.913,9.017,11.442,8.608z"/>
		<path fill="#DADDDC" d="M31,4.121h-1.49l1.543-1.78C31.421,1.916,31.398,1.277,31,0.879s-1.037-0.421-1.463-0.052l-1.659,1.438V1
			c0-0.552-0.448-1-1-1s-1,0.448-1,1v2.997l-0.95,0.823V3.95c0-0.552-0.448-1-1-1s-1,0.448-1,1v2.604l-2.371,2.055
			c-0.471,0.408-0.497,1.13-0.056,1.571l1.197,1.197c0.441,0.441,1.163,0.415,1.571-0.056l1.95-2.25h2.83c0.552,0,1-0.448,1-1
			s-0.448-1-1-1h-1.097l0.823-0.95H31c0.552,0,1-0.448,1-1S31.552,4.121,31,4.121z"/>
		<path fill="#DADDDC" d="M11.495,16.143c-0.105,0.157-2.606,6.948-0.93,10.778c0.192,0.439,0.355,0.815,0.503,1.147
			c-0.622,0.183-1.079,0.751-1.079,1.433c0,0.828,0.672,1.5,1.5,1.5c0.608,0,1.13-0.364,1.365-0.884
			c0.626,0.082,1.546-0.055,3.135-0.152V16.143H11.495z"/>
		<path fill="#BEE758" d="M12.853,30.116C12.618,30.636,12.096,31,11.488,31c-0.828,0-1.5-0.672-1.5-1.5
			c0.755,0.285,2.018,0.468,2.873-0.021C12.861,29.846,12.853,29.927,12.853,30.116z"/>
		<path fill="#E3E5E5" d="M14.988,30.232V19.593l-4.005,0.876c0,0,1.373,6.912,1.572,9.345c-0.514,0.206-0.861,0.578-0.861,1.007
			c0,0.651,0.792,1.179,1.769,1.179c0.977,0,1.769-0.528,1.769-1.179C15.233,30.605,15.14,30.406,14.988,30.232z"/>
		<path fill="#CBEB6B" d="M14.988,30.232c0,0-1.371,0.435-2.432-0.418c-0.514,0.206-0.861,0.578-0.861,1.007
			c0,0.651,0.792,1.179,1.769,1.179c0.977,0,1.769-0.528,1.769-1.179C15.233,30.605,15.14,30.406,14.988,30.232z"/>
		<path fill="#E3E5E5" d="M10.294,20.58c0.422-2.393,1.156-4.354,1.212-4.437H16v8.321C14.41,24.561,9.923,22.686,10.294,20.58z"/>
		<path fill="#D1D4D4" d="M20.909,28.067c0.148-0.332,0.31-0.707,0.503-1.147c1.676-3.83-0.825-10.621-0.93-10.778h-4.493v13.821
			c1.59,0.098,2.509,0.234,3.135,0.152C19.359,30.636,19.88,31,20.488,31c0.828,0,1.5-0.672,1.5-1.5
			C21.988,28.819,21.531,28.25,20.909,28.067z"/>
		<path fill="#B1E346" d="M19.123,30.116C19.359,30.636,19.88,31,20.488,31c0.828,0,1.5-0.672,1.5-1.5
			c-0.755,0.285-2.018,0.468-2.873-0.021C19.115,29.846,19.123,29.927,19.123,30.116z"/>
		<path fill="#DADDDC" d="M21.694,20.58c-0.422-2.393-1.156-4.354-1.212-4.437h-4.493v8.321
			C17.578,24.561,22.065,22.686,21.694,20.58z"/>
		<path fill="#DADDDC" d="M19.42,29.814c0.2-2.408,1.572-9.093,1.572-9.093l-4.005-1.128v10.639
			c-0.151,0.174-0.245,0.373-0.245,0.589c0,0.651,0.792,1.179,1.769,1.179c0.977,0,1.769-0.528,1.769-1.179
			C20.281,30.392,19.934,30.02,19.42,29.814z"/>
		<path fill="#E3E5E5" d="M19,18h-3h-3l-1.755,1.755c-0.121,0.121-0.088,0.324,0.065,0.4l1.607,0.803
			C12.968,20.984,13,21.036,13,21.093v1.503c0,0.186,0.196,0.307,0.362,0.224l1.504-0.752c0.074-0.037,0.164-0.007,0.201,0.067
			l0.709,1.419c0.092,0.184,0.355,0.184,0.447,0l0.709-1.419c0.037-0.074,0.127-0.104,0.201-0.067l1.504,0.752
			C18.804,22.902,19,22.781,19,22.595v-1.503c0-0.057,0.032-0.109,0.083-0.134l1.607-0.803c0.153-0.076,0.186-0.28,0.065-0.4L19,18z
			"/>
		<g>
			<path fill="#EDEEEE" d="M13,18l-1.755,1.755c-0.121,0.121-0.088,0.324,0.065,0.4l1.607,0.803C12.968,20.984,13,21.036,13,21.093
				v1.503c0,0.186,0.196,0.307,0.362,0.224l1.504-0.752c0.074-0.037,0.164-0.007,0.201,0.067l0.709,1.419
				c0.046,0.092,0.135,0.138,0.224,0.138V18H13z"/>
		</g>
		<path fill="#EDEEEE" d="M23,12.5c0,1.529-0.686,4.137-2.5,5.533C19.366,18.906,17.487,19.5,16,19.5c-1.487,0-3.366-0.627-4.5-1.5
			C9.686,16.604,9,14.029,9,12.5C9,10.015,13,6,16,6S23,10.015,23,12.5z"/>
		<path fill="#F7F7F7" d="M16,19.5c-1.487,0-3.366-0.627-4.5-1.5C9.686,16.604,9,14.029,9,12.5C9,10.015,13,6,16,6V19.5z"/>
		<g>
			<path fill="#373F3F" d="M15.15,16c-0.122,0-0.184,0.13-0.097,0.206l0.862,0.758C15.943,16.988,15.978,17,16.013,17v-1H15.15z"/>
			<path fill="#2B3332" d="M16.972,16.206C17.059,16.13,16.998,16,16.875,16h-0.862v1c0.035,0,0.07-0.012,0.097-0.035L16.972,16.206
				z"/>
		</g>
		<path fill="#BEE758" d="M16,9c-1.487,0-3,0-5.28,0c1.438-1.633,3.529-3,5.28-3c1.751,0,3.842,1.367,5.28,3C19,9,17.487,9,16,9z"/>
		<path fill="#CBEB6B" d="M16,9c-1.487,0-3,0-5.28,0c1.438-1.633,3.529-3,5.28-3V9z"/>
		<path fill="#BEE758" d="M14,8.618h4l-1.553,3.106c-0.184,0.369-0.71,0.369-0.894,0L14,8.618z"/>
		<g>
			<path fill="#CBEB6B" d="M14,8.618l1.553,3.106C15.645,11.908,15.822,12,16,12V8.618H14z"/>
		</g>
		<path fill="#BEE758" d="M15.575,0.286L12,7.826h8l-3.52-7.537C16.301-0.095,15.757-0.097,15.575,0.286z"/>
		<g>
			<path fill="#CBEB6B" d="M15.575,0.286L12,7.826h4V0.008C15.829,0.017,15.661,0.105,15.575,0.286z"/>
		</g>
		<path fill="#CBEB6B" d="M10.194,3.523L16,9V3.783l-5.604-0.69C10.156,3.064,10.018,3.357,10.194,3.523z"/>
		<path fill="#BEE758" d="M21.806,3.523L16,9V3.783l5.604-0.69C21.844,3.064,21.982,3.357,21.806,3.523z"/>
		<g>
			<path fill="#B1E346" d="M11.433,13.018c-0.134-0.054-0.287,0.016-0.332,0.153c-0.076,0.236-0.119,0.494-0.119,0.766
				c0,1.105,0.672,2,1.5,2c0.757,0,1.378-0.749,1.48-1.72c0.011-0.108-0.056-0.21-0.157-0.251L11.433,13.018z"/>
		</g>
		<path fill="#373F3F" d="M11.628,13.86c0,0.828,0.336,1.5,0.75,1.5c0.414,0,0.75-0.672,0.75-1.5c0-0.058-0.005-0.112-0.008-0.168
			l-1.394-0.558C11.665,13.351,11.628,13.596,11.628,13.86z"/>
		<g>
			<path fill="#AADB3D" d="M20.513,13.018c0.134-0.054,0.287,0.016,0.332,0.153c0.076,0.236,0.119,0.494,0.119,0.766
				c0,1.105-0.672,2-1.5,2c-0.757,0-1.378-0.749-1.48-1.72c-0.011-0.108,0.056-0.21,0.157-0.251L20.513,13.018z"/>
		</g>
		<path fill="#2B3332" d="M20.318,13.86c0,0.828-0.336,1.5-0.75,1.5c-0.414,0-0.75-0.672-0.75-1.5c0-0.058,0.005-0.112,0.008-0.168
			l1.394-0.558C20.281,13.351,20.318,13.596,20.318,13.86z"/>
		<path fill="#BEE758" d="M16.988,30.232c0,0,1.371,0.435,2.432-0.418c0.514,0.206,0.861,0.578,0.861,1.007
			c0,0.651-0.792,1.179-1.769,1.179c-0.977,0-1.769-0.528-1.769-1.179C16.743,30.605,16.837,30.406,16.988,30.232z"/>
	</g>
</g>
</svg>
