<?xml version="1.0" encoding="utf-8"?>
<!-- Generator: Adobe Illustrator 23.0.6, SVG Export Plug-In . SVG Version: 6.00 Build 0)  -->
<svg version="1.1" xmlns="http://www.w3.org/2000/svg" xmlns:xlink="http://www.w3.org/1999/xlink" x="0px" y="0px" width="32px"
	 height="32px" viewBox="0 0 32 32" enable-background="new 0 0 32 32" xml:space="preserve">
<g id="labels">
	<g>
	</g>
</g>
<g id="icons">
	<g>
		<path fill="#4EAC5D" d="M10.135,18.356c-2.58-0.765-5.169-0.081-5.919,0.153c-0.126,0.039-0.194,0.174-0.164,0.302
			c2.296,9.879,9.766,8.635,11.557,8.184C15.739,26.997,15.868,27,16,27V9C13.119,9,10.714,13.357,10.135,18.356z"/>
		<path fill="#48A353" d="M21.865,18.356C21.286,13.357,18.881,9,16,9v18c0.132,0,0.261-0.003,0.391-0.004
			c1.791,0.451,9.261,1.695,11.557-8.184c0.03-0.129-0.038-0.263-0.164-0.302C27.034,18.275,24.445,17.591,21.865,18.356z"/>
		<path fill="#F7D684" d="M20,22.6c0,4.308-1.791,5.4-4,5.4s-4-1.092-4-5.4S13.791,10,16,10S20,18.292,20,22.6z"/>
		<path fill="#FAE09F" d="M16,21c1.349,0,2.65-0.187,3.885-0.518C19.462,16.034,17.885,10,16,10s-3.462,6.034-3.885,10.482
			C13.35,20.813,14.651,21,16,21z"/>
		<path fill="#FAE09F" d="M14.5,32c-0.154,0-0.307-0.071-0.404-0.205c-2.106-2.885-0.115-6.397-0.029-6.545
			c0.138-0.24,0.444-0.32,0.682-0.182c0.239,0.138,0.321,0.443,0.184,0.683c-0.018,0.031-1.748,3.102-0.029,5.455
			c0.163,0.223,0.114,0.536-0.109,0.699C14.706,31.969,14.603,32,14.5,32z"/>
		<path fill="#F7D684" d="M17.638,32c-0.102,0-0.206-0.031-0.294-0.096c-0.223-0.163-0.272-0.476-0.109-0.699
			c1.718-2.354-0.012-5.424-0.029-5.455c-0.137-0.239-0.056-0.545,0.184-0.683c0.238-0.137,0.544-0.057,0.682,0.182
			c0.086,0.148,2.077,3.66-0.029,6.545C17.945,31.929,17.792,32,17.638,32z"/>
		<path fill="#FAE09F" d="M12,22.6c0,4.308,1.791,5.4,4,5.4V10C13.791,10,12,18.292,12,22.6z"/>
		<path fill="#FDEBBB" d="M12.115,20.482C13.35,20.813,14.651,21,16,21V10C14.115,10,12.538,16.034,12.115,20.482z"/>
		<path fill="#54B668" d="M19.368,16.99c0.588-0.608,1.294-1.148,2.043-1.621l4.563,3.635c0.37,0.295,0.162,0.891-0.312,0.891
			l-1.32,0c-0.138,0-0.25,0.112-0.25,0.25v1.325c0,0.473-0.595,0.681-0.89,0.312L19.368,16.99z"/>
		<path fill="#60C46F" d="M12.632,16.99c-0.588-0.608-1.294-1.148-2.043-1.621l-4.563,3.635c-0.37,0.295-0.162,0.891,0.312,0.891
			l1.32,0c0.138,0,0.25,0.112,0.25,0.25v1.325c0,0.473,0.595,0.681,0.89,0.312L12.632,16.99z"/>
		<path fill="#FFD04D" d="M16,14c0,0-5.372-3.609-10.434-1.286c-0.205,0.094-0.18,0.397,0.034,0.465
			C7.407,13.751,12.739,15.691,14,19L16,14z"/>
		<path fill="#F7C845" d="M16,14c0,0,5.372-3.609,10.434-1.286c0.205,0.094,0.18,0.397-0.034,0.465
			C24.593,13.751,19.261,15.691,18,19L16,14z"/>
		<path fill="#FFF3D9" d="M16,19c1.267,0,2.479-0.235,3.611-0.647C18.969,14.326,17.596,10,16,10s-2.969,4.326-3.611,8.353
			C13.521,18.765,14.733,19,16,19z"/>
		<path fill="#54B668" d="M29.144,5.813C25.078,13.068,16.273,14,16.273,14c-3.581,0.006-6.783-2.56-7.219-6.114
			C8.532,3.624,11.842,0,16,0c6.085,0,5.663,5.538,12.67,5.086C29.056,5.061,29.333,5.476,29.144,5.813z"/>
		<path fill="#60C46F" d="M9.055,7.886c0.425,3.463,3.477,5.981,6.945,6.102V0C11.842,0,8.532,3.625,9.055,7.886z"/>
		<path fill="#FFD96C" d="M11,7c0,2.761,2.239,5,5,5V7V2C13.239,2,11,4.239,11,7z"/>
		<path fill="#FDEBBB" d="M29.153,5.404C27.894,6.539,23.893,9.654,16,9v10c1.267,0,2.479-0.235,3.611-0.647
			c-0.264-1.659-0.655-3.365-1.132-4.802c2.88-0.77,7.881-2.771,10.665-7.738C29.221,5.676,29.206,5.532,29.153,5.404z"/>
		<path fill="#FFD04D" d="M21,7c0,2.761-2.239,5-5,5V7V2C18.761,2,21,4.239,21,7z"/>
		<path fill="#F7F7F7" d="M16,11c2.209,0,4-1.791,4-4h-8C12,9.209,13.791,11,16,11z"/>
		<path fill="#BF4F3C" d="M16,10c1.657,0,3-1.343,3-3h-6C13,8.657,14.343,10,16,10z"/>
		<path fill="#FFFFFF" d="M16,7h-4c0,2.209,1.791,4,4,4V7z"/>
		<path fill="#C65546" d="M16,7h-3c0,1.657,1.343,3,3,3V7z"/>
		<path fill="#2B3332" d="M16,9c0.552,0,1-0.896,1-2h-2C15,8.104,15.448,9,16,9z"/>
		<path fill="#373F3F" d="M16,7h-1c0,1.104,0.448,2,1,2V7z"/>
	</g>
</g>
</svg>
