<?xml version="1.0" encoding="utf-8"?>
<!-- Generator: Adobe Illustrator 23.0.6, SVG Export Plug-In . SVG Version: 6.00 Build 0)  -->
<svg version="1.1" xmlns="http://www.w3.org/2000/svg" xmlns:xlink="http://www.w3.org/1999/xlink" x="0px" y="0px" width="32px"
	 height="32px" viewBox="0 0 32 32" enable-background="new 0 0 32 32" xml:space="preserve">
<g id="labels">
	<g>
	</g>
</g>
<g id="icons">
	<g>
		<path fill="#E8803A" d="M14.75,32H11c0,0-2-2-2-7h6v6.75C15,31.888,14.888,32,14.75,32z"/>
		<path fill="#3A3333" d="M30,19.5h-1v3.013C28.581,22.196,28.065,22,27.5,22c-1.378,0-2.5,1.122-2.5,2.5s1.122,2.5,2.5,2.5
			c0.15,0,0.296-0.019,0.439-0.044c-0.871,1.085-2.192,1.794-3.689,1.794c-2.619,0-4.75-2.131-4.75-4.75h-1
			c0,3.17,2.58,5.75,5.75,5.75c2.659,0,4.896-1.817,5.551-4.273C29.916,25.016,30,24.434,30,24V19.5z M27.5,26
			c-0.827,0-1.5-0.673-1.5-1.5s0.673-1.5,1.5-1.5c0.742,0,1.355,0.542,1.475,1.25c-0.017,0.313-0.061,0.617-0.135,0.912
			C28.594,25.656,28.089,26,27.5,26z"/>
		<path fill="#DD7731" d="M17.25,32H21c0,0,2-2,2-7h-6v6.75C17,31.888,17.112,32,17.25,32z"/>
		<ellipse fill="#EF8C48" cx="16" cy="24" rx="9" ry="7"/>
		<path fill="#E8803A" d="M25,24c0-3.866-4.029-7-9-7v14C20.971,31,25,27.866,25,24z"/>
		<ellipse fill="#FCA15E" cx="16" cy="15" rx="11" ry="9"/>
		<path fill="#F79654" d="M16,21c-4.099,0-7.776-1.001-10.336-2.749C7.195,21.823,11.238,24,16,24s8.805-2.177,10.336-5.749
			C23.776,19.999,20.099,21,16,21z"/>
		<path fill="#F79654" d="M27,15c0-5.468-4.925-9-11-9v18C22.075,24,27,20.468,27,15z"/>
		<path fill="#EF8C48" d="M26.336,18.251C23.776,19.999,20.099,21,16,21v3C20.762,24,24.805,21.823,26.336,18.251z"/>
		<circle fill="#D1473D" cx="29.5" cy="19" r="2.5"/>
		<path fill="#4F4949" d="M19.085,6.337c0.686-0.286,1.383-0.694,1.97-1.281c1.416-1.416,1.801-3.469,1.905-4.467
			c0.033-0.319-0.23-0.583-0.549-0.549c-0.998,0.105-3.052,0.49-4.467,1.905c-1.245,1.245-1.691,2.98-1.852,4.059
			C16.061,6.004,16.031,6,16,6s-0.061,0.004-0.092,0.004c-0.161-1.08-0.607-2.814-1.852-4.059c-1.416-1.416-3.469-1.801-4.467-1.905
			c-0.319-0.033-0.583,0.23-0.549,0.549c0.105,0.998,0.49,3.052,1.905,4.467c0.587,0.587,1.284,0.995,1.97,1.281
			C10.646,6.83,8.677,7.855,7.273,9.325C8.244,13.445,11.777,16,16,16s7.756-2.555,8.727-6.675
			C23.323,7.856,21.354,6.83,19.085,6.337z"/>
		<ellipse fill="#FFFFFF" cx="8.5" cy="14.5" rx="2.5" ry="3.5"/>
		<ellipse fill="#373F3F" cx="9" cy="14.5" rx="1.5" ry="2.5"/>
		<ellipse fill="#FFFFFF" cx="9" cy="14.5" rx="0.5" ry="1"/>
		<path fill="#413B3B" d="M24.727,9.325c-1.404-1.47-3.373-2.495-5.641-2.988c0.686-0.286,1.383-0.694,1.97-1.281
			c1.416-1.416,1.801-3.469,1.905-4.467c0.033-0.319-0.23-0.583-0.549-0.549c-0.998,0.105-3.052,0.49-4.467,1.905
			c-1.245,1.245-1.691,2.98-1.852,4.059C16.061,6.004,16.031,6,16,6v10C20.223,16,23.756,13.445,24.727,9.325z"/>
		<path fill="#FFD04D" d="M20,13c0,1.657-1.791,3-4,3s-4-1.343-4-3c0-1.367,2.721-3.88,3.675-4.719c0.189-0.166,0.462-0.166,0.651,0
			C17.279,9.12,20,11.633,20,13z"/>
		<path fill="#F7C845" d="M20,13c0-1.366-2.721-3.88-3.675-4.719C16.231,8.198,16.115,8.156,16,8.156V16C18.209,16,20,14.657,20,13z
			"/>
		<ellipse fill="#DD564C" cx="16" cy="16" rx="4" ry="3"/>
		<path fill="#D64F45" d="M20,16c0-1.657-1.791-3-4-3v6C18.209,19,20,17.657,20,16z"/>
		<ellipse fill="#4F4949" cx="14.5" cy="16" rx="0.5" ry="1"/>
		<ellipse fill="#413B3B" cx="17.5" cy="16" rx="0.5" ry="1"/>
		<path fill="#4F4949" d="M16,29c-3.364,0-6.37-0.963-8.388-2.477C8.915,29.141,12.175,31,16,31s7.085-1.859,8.388-4.477
			C22.37,28.037,19.364,29,16,29z"/>
		<path fill="#413B3B" d="M16,29v2c3.825,0,7.085-1.859,8.388-4.477C22.37,28.037,19.364,29,16,29z"/>
		<path fill="#EF8C48" d="M13,31H9c0,0-2-2-2-7h6V31z"/>
		<path fill="#4F4949" d="M12.75,32H8.604c-0.223,0-0.334-0.269-0.177-0.427L9,31h4v0.75C13,31.888,12.888,32,12.75,32z"/>
		<path fill="#E8803A" d="M19,31h4c0,0,2-2,2-7h-6V31z"/>
		<path fill="#413B3B" d="M19.25,32h4.146c0.223,0,0.334-0.269,0.177-0.427L23,31h-4v0.75C19,31.888,19.112,32,19.25,32z"/>
		<ellipse fill="#F7F7F7" cx="23.5" cy="14.5" rx="2.5" ry="3.5"/>
		<ellipse fill="#2B3332" cx="23" cy="14.5" rx="1.5" ry="2.5"/>
		<ellipse fill="#F7F7F7" cx="23" cy="14.5" rx="0.5" ry="1"/>
	</g>
</g>
</svg>
