<?xml version="1.0" encoding="utf-8"?>
<!-- Generator: Adobe Illustrator 23.0.6, SVG Export Plug-In . SVG Version: 6.00 Build 0)  -->
<svg version="1.1" xmlns="http://www.w3.org/2000/svg" xmlns:xlink="http://www.w3.org/1999/xlink" x="0px" y="0px" width="32px"
	 height="32px" viewBox="0 0 32 32" enable-background="new 0 0 32 32" xml:space="preserve">
<g id="labels">
	<g>
	</g>
</g>
<g id="icons">
	<g>
		<path fill="#3A3333" d="M30.5,19.5c0-0.828-0.672-1.5-1.5-1.5s-1.5,0.672-1.5,1.5c-0.828,0-1.5,0.672-1.5,1.5s0.672,1.5,1.5,1.5
			c0,0.828,0.672,1.5,1.5,1.5s1.5-0.672,1.5-1.5c0.828,0,1.5-0.672,1.5-1.5S31.328,19.5,30.5,19.5z"/>
		<path fill="#413B3B" d="M29,21c-0.276,0-0.5,0.224-0.5,0.5c0,1.378-1.122,2.5-2.5,2.5v1c1.93,0,3.5-1.57,3.5-3.5
			C29.5,21.224,29.276,21,29,21z"/>
		<path fill="#F79654" d="M27,18.5C27,25.404,22.654,29,16,29S5,25.404,5,18.5S9.346,4,16,4S27,11.596,27,18.5z"/>
		<path fill="#EF8C48" d="M27,18.5C27,11.596,22.654,4,16,4v25C22.654,29,27,25.404,27,18.5z"/>
		<path fill="#EF8C48" d="M26.5,15c0,0,0.5-3.594,0.5-5c0-0.563-0.481-1.156-1.057-1.664C24.906,7.42,24.66,5.9,25.372,4.713l0,0
			c0.961-1.601,3.196-1.893,4.486-0.544C30.978,5.34,32,6.966,32,9c0,4.5-5,9.438-5,9.438L26.5,15z"/>
		<path fill="#4F4949" d="M29.858,4.169c0.839,0.877,1.622,2.008,1.963,3.375l-5.348,1.337c-0.159-0.188-0.334-0.373-0.53-0.546
			C24.906,7.42,24.66,5.9,25.372,4.713C26.333,3.113,28.568,2.82,29.858,4.169z"/>
		<path fill="#F7C845" d="M31.583,6.806c0.203,0.527,0.336,1.096,0.386,1.702l-5.017,1.254c-0.088-0.396-0.369-0.795-0.741-1.166
			L31.583,6.806z"/>
		<path fill="#FCA15E" d="M16,16c3.845,0,7.423-0.635,10.472-1.716C25.133,8.829,21.304,4,16,4S6.867,8.829,5.528,14.284
			C8.577,15.365,12.155,16,16,16z"/>
		<path fill="#F79654" d="M26.472,14.284C25.133,8.829,21.304,4,16,4v12C19.845,16,23.423,15.365,26.472,14.284z"/>
		<path fill="#F79654" d="M5.5,15c0,0-0.5-3.594-0.5-5c0-0.563,0.481-1.156,1.057-1.664C7.094,7.42,7.34,5.9,6.628,4.713l0,0
			C5.667,3.112,3.432,2.82,2.142,4.169C1.022,5.34,0,6.966,0,9c0,4.5,5,9.438,5,9.438L5.5,15z"/>
		<path fill="#FFFFFF" d="M10.167,9.053c-0.102-0.034-0.21-0.005-0.273,0.082C9.503,9.676,9,10.832,9,11.5c0,1.381,0.895,2.5,2,2.5
			s2-1.119,2-2.5C13,10.095,10.797,9.262,10.167,9.053z"/>
		<ellipse fill="#373F3F" cx="11" cy="12.5" rx="1" ry="1.5"/>
		<circle fill="#FFFFFF" cx="11" cy="12" r="0.5"/>
		<path fill="#F7F7F7" d="M21.833,9.053c0.102-0.034,0.21-0.005,0.273,0.082C22.497,9.676,23,10.832,23,11.5
			c0,1.381-0.895,2.5-2,2.5s-2-1.119-2-2.5C19,10.095,21.203,9.262,21.833,9.053z"/>
		<path fill="#5A5353" d="M16,4c-0.384,0-0.757,0.035-1.124,0.084C14.947,3.795,15,3.496,15,3.181c0-1.338-0.773-2.494-1.209-3.04
			c-0.15-0.188-0.432-0.188-0.582,0C12.773,0.687,12,1.843,12,3.181c0,0.603,0.163,1.16,0.375,1.65
			c-0.869,0.411-1.678,0.955-2.413,1.615C11.548,7.298,14.583,8.496,15,13h1L16,4z"/>
		<path fill="#4F4949" d="M19.625,4.831C19.837,4.341,20,3.783,20,3.181c0-1.338-0.773-2.494-1.209-3.04
			c-0.15-0.188-0.432-0.188-0.582,0C17.773,0.687,17,1.843,17,3.181c0,0.315,0.053,0.614,0.124,0.903C16.757,4.035,16.384,4,16,4
			l0,9h1c0.417-4.504,3.452-5.702,5.038-6.554C21.302,5.785,20.494,5.242,19.625,4.831z"/>
		<ellipse fill="#2B3332" cx="21" cy="12.5" rx="1" ry="1.5"/>
		<circle fill="#F7F7F7" cx="21" cy="12" r="0.5"/>
		<path fill="#DD564C" d="M18,13c0,1.105-0.895,1-2,1s-2,0.105-2-1s0.895-2,2-2S18,11.895,18,13z"/>
		<path fill="#4F4949" d="M16,23c-0.078-0.423-0.321-0.936-0.646-1.45c-0.681-1.076-1.615-1.747-2.087-1.498
			s-0.302,1.322,0.379,2.398c0.06,0.094,0.123,0.181,0.187,0.269c-4.603-1.209-7.264-6.052-8.31-8.412C5.185,15.688,5,17.107,5,18.5
			C5,25.404,9.346,29,16,29V23C15.987,23,16.013,23,16,23z"/>
		<path fill="#413B3B" d="M26.478,14.307c-1.046,2.36-3.707,7.204-8.31,8.413c0.063-0.088,0.127-0.175,0.187-0.269
			c0.681-1.076,0.85-2.15,0.379-2.398s-1.406,0.422-2.087,1.498C16.321,22.064,16.078,22.577,16,23c-0.013,0,0.013,0,0,0v6
			c6.654,0,11-3.596,11-10.5C27,17.107,26.815,15.688,26.478,14.307z"/>
		<path fill="#FCA15E" d="M11,28.161C11,29.444,9.209,31,7,31s-3-2.015-3-4.5S5.763,23,5.763,23C6.763,23,11,26.877,11,28.161z"/>
		<path fill="#E3E5E5" d="M8,31.5C8,32.002,7.328,32,6.5,32S5,32.002,5,31.5C5,30.672,5.672,30,6.5,30S8,30.672,8,31.5z"/>
		<path fill="#F79654" d="M21,28.161C21,29.444,22.791,31,25,31s3-2.015,3-4.5S26.237,23,26.237,23C25.237,23,21,26.877,21,28.161z"
			/>
		<path fill="#DADDDC" d="M24,31.5c0,0.502,0.672,0.5,1.5,0.5c0.828,0,1.5,0.002,1.5-0.5c0-0.828-0.672-1.5-1.5-1.5
			C24.672,30,24,30.672,24,31.5z"/>
		<path fill="#5A5353" d="M2.142,4.169C1.303,5.046,0.52,6.177,0.179,7.545l5.348,1.337c0.159-0.188,0.334-0.373,0.53-0.546
			C7.094,7.42,7.34,5.9,6.628,4.713C5.667,3.113,3.432,2.82,2.142,4.169z"/>
		<path fill="#FFD04D" d="M0.417,6.806C0.214,7.332,0.081,7.901,0.031,8.508l5.017,1.254c0.088-0.396,0.369-0.795,0.741-1.166
			L0.417,6.806z"/>
		<path fill="#FFFFFF" d="M12.5,14c-0.276,0-0.5,0.672-0.5,1.5c0,0.09,0.004,0.178,0.009,0.264c0.322,0.038,0.647,0.072,0.975,0.101
			C12.993,15.747,13,15.626,13,15.5C13,14.672,12.776,14,12.5,14z"/>
		<path fill="#F7F7F7" d="M20,15.5c0-0.828-0.224-1.5-0.5-1.5c-0.276,0-0.5,0.672-0.5,1.5c0,0.126,0.007,0.247,0.017,0.365
			c0.328-0.029,0.652-0.063,0.975-0.101C19.996,15.678,20,15.59,20,15.5z"/>
		<circle fill="#FFD04D" cx="8" cy="18" r="2"/>
		<circle fill="#F7C845" cx="24" cy="18" r="2"/>
		<path fill="#D64F45" d="M18,13c0-1.104-0.895-2-2-2v3C17.105,14,18,14.104,18,13z"/>
		<ellipse fill="#FFD96C" cx="9.5" cy="20.5" rx="2.5" ry="3.5"/>
		<ellipse fill="#FFD04D" cx="22.5" cy="20.5" rx="2.5" ry="3.5"/>
	</g>
</g>
</svg>
