<?xml version="1.0" encoding="utf-8"?>
<!-- Generator: Adobe Illustrator 23.0.6, SVG Export Plug-In . SVG Version: 6.00 Build 0)  -->
<svg version="1.1" xmlns="http://www.w3.org/2000/svg" xmlns:xlink="http://www.w3.org/1999/xlink" x="0px" y="0px" width="32px"
	 height="32px" viewBox="0 0 32 32" enable-background="new 0 0 32 32" xml:space="preserve">
<g id="labels">
	<g>
	</g>
</g>
<g id="icons">
	<g>
		<path fill="#FCA15E" d="M29,16.75L24,13H8l-5,3.75L5,19l2.344-0.391C7.125,19.392,7,20.214,7,21.067C7,26.074,11.029,29,16,29v0
			l0,0c4.971,0,9-2.926,9-7.933c0-0.853-0.125-1.675-0.344-2.457L27,19L29,16.75z"/>
		<path fill="#F79654" d="M16,13v16c4.971,0,9-2.926,9-7.933c0-0.853-0.125-1.675-0.344-2.457L27,19l2-2.25L24,13H16z"/>
		<path fill="#E55D53" d="M25.313,31.542L23,30c0.293-1.422,0.248-2.715,0.072-3.795c0.064-0.07,0.136-0.132,0.197-0.205h-0.23H18.4
			h-4.8H8.961h-0.23c0.061,0.072,0.133,0.135,0.197,0.205C8.752,27.285,8.707,28.578,9,30l-2.313,1.542
			C6.481,31.679,6.578,32,6.826,32H14c0,0,0.005-1.055,1.309-3.031C15.538,28.982,15.766,29,16,29s0.462-0.018,0.691-0.031
			C17.995,30.945,18,32,18,32h7.174C25.422,32,25.519,31.679,25.313,31.542z"/>
		<path fill="#DD564C" d="M23,30c0.293-1.422,0.248-2.715,0.072-3.795c0.064-0.07,0.136-0.132,0.197-0.205h-0.23H18.4H16v3
			c0.234,0,0.462-0.018,0.691-0.031C17.995,30.945,18,32,18,32h7.174c0.247,0,0.344-0.321,0.139-0.458L23,30z"/>
		<path fill="#4F4949" d="M7.244,19C7.09,19.665,7,20.354,7,21.067C7,23.061,7.647,24.719,8.731,26h14.538
			C24.353,24.719,25,23.061,25,21.067c0-0.712-0.09-1.402-0.244-2.067H7.244z"/>
		<path fill="#413B3B" d="M16,19v7h7.269C24.353,24.719,25,23.061,25,21.067c0-0.712-0.09-1.402-0.244-2.067H16z"/>
		<path fill="#FFAD68" d="M22.5,11c0,3.314-2.91,5-6.5,5s-6.5-1.686-6.5-5s2.91-7,6.5-7S22.5,7.686,22.5,11z"/>
		<path fill="#FCA15E" d="M22.5,11c0-3.314-2.91-7-6.5-7v12C19.59,16,22.5,14.314,22.5,11z"/>
		<path fill="#FCA15E" d="M16,13c-2.532,0-4.815-0.44-6.451-1.307C9.93,14.547,12.671,16,16,16s6.07-1.453,6.451-4.307
			C20.815,12.56,18.532,13,16,13z"/>
		<path fill="#F79654" d="M22.451,11.693C20.815,12.56,18.532,13,16,13v3C19.329,16,22.07,14.547,22.451,11.693z"/>
		<path fill="#F7F7F7" d="M19,10c1.105,0,2-0.896,2-2h-4C17,9.104,17.895,10,19,10z"/>
		<path fill="#D1473D" d="M19,9c0.552,0,1-0.448,1-1h-2C18,8.552,18.448,9,19,9z"/>
		<path fill="#FFFFFF" d="M13,10c-1.105,0-2-0.896-2-2h4C15,9.104,14.104,10,13,10z"/>
		<path fill="#D64F45" d="M13,9c-0.552,0-1-0.448-1-1h2C14,8.552,13.552,9,13,9z"/>
		<path fill="#5A5353" d="M2.665,14.665l-0.331-0.331c-0.142-0.142-0.385-0.067-0.422,0.13L0,24.5l4.651,1.951
			C4.651,26.451,6,24.784,6,23s-1.403-5.208-1.403-5.208C4.204,16.613,3.543,15.543,2.665,14.665z"/>
		<path fill="#EF6A65" d="M16,15.037c0,0,0.692-1.908,2.735-1.998C18.878,13.032,19,13.146,19,13.289v0.748
			c0,0,3.611-0.571,4.869-3.644c0.067-0.164,0.28-0.206,0.406-0.081L25,11.037c0,0,2.09-1.333,2.041-4.356
			c-0.004-0.222,0.269-0.333,0.426-0.176L28,7.037c0,0,0.887-1.533,1.017-3.717c0.016-0.273,0.391-0.331,0.484-0.074
			C29.95,4.494,30.472,6.473,30,8.037c0,0,0.331,0,0.673-0.428c0.139-0.174,0.419-0.095,0.444,0.127
			c0.131,1.194,0.097,3.649-2.008,5.222c-0.064,0.048-0.149,0.063-0.225,0.04c-0.596-0.179-3.33-0.768-4.82,2.881
			c-0.039,0.094-0.129,0.158-0.231,0.158H22l-0.845,1.69c-0.076,0.153-0.28,0.186-0.4,0.065L20,17.037c0,0,0.643,1.42,0.089,2.799
			c-0.048,0.121-0.177,0.19-0.302,0.154c-0.428-0.122-1.386-0.548-1.788-1.953c0,0,0.225,0.984-0.799,1.844
			c-0.112,0.094-0.279,0.074-0.366-0.043C16.552,19.456,16,18.523,16,17.037C16,15.037,16,15.037,16,15.037z"/>
		<circle fill="#E3E5E5" cx="3.5" cy="25.5" r="1.5"/>
		<circle fill="#EDEEEE" cx="1.5" cy="24.5" r="1.5"/>
		<path fill="#4F4949" d="M29.336,14.665l0.331-0.331c0.142-0.142,0.385-0.067,0.422,0.13L32,24.5l-4.651,1.951
			c0,0-1.349-1.667-1.349-3.451s1.403-5.208,1.403-5.208C27.796,16.613,28.457,15.543,29.336,14.665z"/>
		<circle fill="#DADDDC" cx="28.5" cy="25.5" r="1.5"/>
		<circle fill="#E3E5E5" cx="30.5" cy="24.5" r="1.5"/>
		<path fill="#F57552" d="M16,15.037c0,0-0.692-1.908-2.735-1.998C13.122,13.032,13,13.146,13,13.289v0.748
			c0,0-3.611-0.571-4.869-3.644c-0.067-0.164-0.28-0.206-0.406-0.081L7,11.037c0,0-2.09-1.333-2.041-4.356
			c0.004-0.222-0.269-0.333-0.426-0.176L4,7.037c0,0-0.887-1.533-1.017-3.717C2.967,3.047,2.592,2.989,2.499,3.246
			C2.05,4.494,1.528,6.473,2,8.037c0,0-0.331,0-0.673-0.428C1.188,7.435,0.908,7.515,0.884,7.736
			c-0.131,1.194-0.097,3.649,2.008,5.222c0.064,0.048,0.149,0.063,0.225,0.04c0.596-0.179,3.33-0.768,4.82,2.881
			c0.039,0.094,0.129,0.158,0.231,0.158H10l0.845,1.69c0.076,0.153,0.28,0.186,0.4,0.065L12,17.037c0,0-0.643,1.42-0.089,2.799
			c0.048,0.121,0.177,0.19,0.302,0.154c0.428-0.122,1.386-0.548,1.788-1.953c0,0-0.225,0.984,0.799,1.844
			c0.112,0.094,0.279,0.074,0.366-0.043C15.448,19.456,16,18.523,16,17.037C16,15.037,16,15.037,16,15.037z"/>
		<path fill="#EB6B48" d="M16,15.037c0,0,0.692-1.908,2.735-1.998C18.878,13.032,19,13.146,19,13.289v0.748
			c0,0,3.611-0.571,4.869-3.644c0.067-0.164,0.28-0.206,0.406-0.081L25,11.037c0,0,2.09-1.333,2.041-4.356
			c-0.004-0.222,0.269-0.333,0.426-0.176L28,7.037c0,0,0.887-1.533,1.017-3.717c0.016-0.273,0.391-0.331,0.484-0.074
			C29.95,4.494,30.472,6.473,30,8.037c0,0,0.331,0,0.673-0.428c0.139-0.174,0.419-0.095,0.444,0.127
			c0.131,1.194,0.097,3.649-2.008,5.222c-0.064,0.048-0.149,0.063-0.225,0.04c-0.596-0.179-3.33-0.768-4.82,2.881
			c-0.039,0.094-0.129,0.158-0.231,0.158H22l-0.845,1.69c-0.076,0.153-0.28,0.186-0.4,0.065L20,17.037c0,0,0.643,1.42,0.089,2.799
			c-0.048,0.121-0.177,0.19-0.302,0.154c-0.428-0.122-1.386-0.548-1.788-1.953c0,0,0.225,0.984-0.799,1.844
			c-0.112,0.094-0.279,0.074-0.366-0.043C16.552,19.456,16,18.523,16,17.037C16,15.037,16,15.037,16,15.037z"/>
		<path fill="#F7C845" d="M17.201,19.881C18.225,19.021,18,18.037,18,18.037c0.402,1.406,1.36,1.831,1.788,1.953
			c0.125,0.036,0.253-0.033,0.302-0.154C20.643,18.457,20,17.037,20,17.037l0.755,0.755c0.121,0.121,0.324,0.088,0.4-0.065
			L22,16.037h1.831c0.102,0,0.193-0.064,0.231-0.158c1.109-2.715,2.905-3.083,3.998-3.02C29.214,11.305,30.205,9,29,9
			c-1.579,0-3.994,4.219-6.35,5.958S16,16.339,16,16.339v0.698c0,1.485,0.552,2.419,0.836,2.801
			C16.922,19.956,17.09,19.975,17.201,19.881z"/>
		<path fill="#FFD04D" d="M14.799,19.881C13.775,19.021,14,18.037,14,18.037c-0.402,1.406-1.36,1.831-1.788,1.953
			c-0.125,0.036-0.253-0.033-0.302-0.154C11.357,18.457,12,17.037,12,17.037l-0.755,0.755c-0.121,0.121-0.324,0.088-0.4-0.065
			L10,16.037H8.169c-0.102,0-0.193-0.064-0.231-0.158c-1.109-2.715-2.905-3.083-3.998-3.02C2.786,11.305,1.795,9,3,9
			c1.579,0,3.994,4.219,6.35,5.958s6.65,1.38,6.65,1.38v0.698c0,1.485-0.552,2.419-0.836,2.801
			C15.078,19.956,14.91,19.975,14.799,19.881z"/>
		<path fill="#FFFFFF" d="M11.401,12.416c0.062-0.148,0.099-0.378,0.099-0.749C11.5,10.746,11.276,10,11,10s-0.5,0.746-0.5,1.667
			c0,0.188,0.011,0.334,0.029,0.459C10.808,12.232,11.098,12.329,11.401,12.416z"/>
		<path fill="#F7F7F7" d="M21.471,12.126c0.017-0.125,0.029-0.27,0.029-0.459C21.5,10.746,21.276,10,21,10s-0.5,0.746-0.5,1.667
			c0,0.371,0.038,0.601,0.099,0.749C20.902,12.329,21.192,12.232,21.471,12.126z"/>
		<path fill="#5A5353" d="M8.461,30.36l-1.774,1.182C6.481,31.679,6.578,32,6.826,32H14c0,0,0.016-0.698,0.7-2h-2.362
			c-0.204,0-0.388-0.124-0.464-0.314l-0.672-1.681c-0.109-0.272-0.426-0.392-0.688-0.262l-1.703,0.852
			c0.017,0.25,0.042,0.505,0.079,0.765C8.944,29.75,8.789,30.141,8.461,30.36z"/>
		<path fill="#4F4949" d="M23.539,30.36l1.774,1.182C25.519,31.679,25.422,32,25.174,32H18c0,0-0.016-0.698-0.7-2h2.362
			c0.204,0,0.388-0.124,0.464-0.314l0.672-1.681c0.109-0.272,0.426-0.392,0.688-0.262l1.703,0.852
			c-0.017,0.25-0.042,0.505-0.079,0.765C23.056,29.75,23.211,30.141,23.539,30.36z"/>
		<path fill="#FFD04D" d="M19,21c-0.938,0-1.72,0.648-1.935,1.52c-0.194-0.111-0.381-0.234-0.58-0.367
			c-0.152-0.101-0.314-0.207-0.485-0.313v2.376C16.698,24.626,17.6,25,19,25c1.105,0,2-0.896,2-2S20.105,21,19,21z"/>
		<path fill="#FFD96C" d="M16,21.84C15.305,21.412,14.413,21,13,21c-1.105,0-2,0.896-2,2s0.895,2,2,2
			c0.922,0,1.69-0.627,1.922-1.476c0.149,0.091,0.296,0.188,0.451,0.292c0.194,0.13,0.4,0.267,0.627,0.401V21.84z"/>
		<g>
			<path fill="#4F4949" d="M17,8V7.309c0-0.189,0.107-0.363,0.276-0.447l1.585-0.793C18.946,6.027,19,5.94,19,5.845V4.25
				C19,4.112,19.112,4,19.25,4h1.5C20.888,4,21,3.888,21,3.75V2.154c0-0.095,0.054-0.181,0.138-0.224L24.46,0.27
				c0.199-0.1,0.419,0.091,0.349,0.303L24.11,2.671C24.056,2.833,24.176,3,24.347,3h1.186c0.2,0,0.319,0.223,0.208,0.389
				l-1.464,2.195c-0.183,0.275-0.419,0.51-0.693,0.693L21,8L17,8z"/>
			<path fill="#5A5353" d="M15,8V7.309c0-0.189-0.107-0.363-0.276-0.447l-1.585-0.793C13.053,6.027,13,5.94,13,5.845V4.25
				C13,4.112,12.888,4,12.75,4h-1.5C11.112,4,11,3.888,11,3.75V2.154c0-0.095-0.054-0.181-0.138-0.224L7.54,0.27
				C7.341,0.17,7.12,0.361,7.191,0.573L7.89,2.671C7.944,2.833,7.824,3,7.653,3H6.467c-0.2,0-0.319,0.223-0.208,0.389l1.464,2.195
				c0.183,0.275,0.419,0.51,0.693,0.693L11,8L15,8z"/>
		</g>
		<path fill="#E55D53" d="M16,7c-1,0-2,1.266-2,2.828C14,10.609,15,11,16,11V7z"/>
		<path fill="#DD564C" d="M18,9.828C18,8.266,17,7,16,7v4C17,11,18,10.609,18,9.828z"/>
	</g>
</g>
</svg>
