<?xml version="1.0" encoding="utf-8"?>
<!-- Generator: Adobe Illustrator 23.0.6, SVG Export Plug-In . SVG Version: 6.00 Build 0)  -->
<svg version="1.1" xmlns="http://www.w3.org/2000/svg" xmlns:xlink="http://www.w3.org/1999/xlink" x="0px" y="0px" width="32px"
	 height="32px" viewBox="0 0 32 32" enable-background="new 0 0 32 32" xml:space="preserve">
<g id="labels">
	<g>
	</g>
</g>
<g id="icons">
	<g>
		<g>
			<path fill="#96643B" d="M13,17.958h-1c0,0-3,3.012-3,6c0,2.034,0.463,3.615,0.759,4.418c0.135,0.367,0.046,0.777-0.231,1.053
				l-0.321,0.322C9.075,29.884,9,30.064,9,30.251c0,0.39,0.317,0.707,0.707,0.707h2.586c0.391,0,0.707-0.317,0.707-0.707V17.958z"/>
		</g>
		<path fill="#9E6E43" d="M20.471,30.471c-0.276-0.276-0.366-0.686-0.231-1.053C20.537,28.615,21,27.034,21,25c0-2.988-1-7-1-7h-4
			h-4c0,0-1,4.012-1,7c0,2.034,0.463,3.615,0.759,4.418c0.135,0.367,0.046,0.777-0.231,1.053l-0.321,0.322
			C11.075,30.926,11,31.105,11,31.293C11,31.683,11.317,32,11.707,32h2.586C14.683,32,15,31.683,15,31.293v-4.01
			c0-0.336,0.327-0.558,0.648-0.459c0.312,0.096,0.392,0.096,0.704,0C16.673,26.725,17,26.948,17,27.283v4.01
			C17,31.683,17.317,32,17.707,32h2.586C20.683,32,21,31.683,21,31.293c0-0.188-0.075-0.367-0.207-0.5L20.471,30.471z"/>
		<path fill="#8D5B36" d="M22.471,29.43c-0.276-0.276-0.366-0.686-0.231-1.053C22.537,27.574,23,25.992,23,23.958c0-2.988-3-6-3-6
			h-1v12.293c0,0.39,0.317,0.707,0.707,0.707h2.586c0.391,0,0.707-0.317,0.707-0.707c0-0.188-0.075-0.367-0.207-0.5L22.471,29.43z"
			/>
		<path fill="#A7794C" d="M25,14.921c0,0,1.094-0.257,1.907-2.707c0.05-0.149-0.048-0.322-0.203-0.348
			c-1.154-0.198-2.224-0.146-2.915-0.068c-0.47,0.053-0.908-0.229-1.057-0.677L22,8.921c0,0,2.712-2.056,2.981-4.718
			c0.016-0.154-0.105-0.292-0.26-0.282C23.589,3.99,23,4.921,23,4.921s1.433-2.176,0.121-4.774
			c-0.062-0.123-0.228-0.182-0.353-0.124C18.513,1.983,18,7.421,18,7.421s-0.411-0.5-2-0.5s-2,0.5-2,0.5s-0.513-5.438-4.767-7.398
			C9.107-0.035,8.942,0.024,8.879,0.147C7.567,2.745,9,4.921,9,4.921S8.411,3.99,7.279,3.92c-0.154-0.009-0.275,0.128-0.26,0.282
			C7.288,6.865,10,8.921,10,8.921L9.267,11.12c-0.149,0.448-0.588,0.73-1.057,0.677c-0.69-0.078-1.76-0.131-2.915,0.068
			c-0.155,0.027-0.252,0.199-0.203,0.348C5.906,14.665,7,14.921,7,14.921s-0.626,0.366-0.92,0.845
			c-0.053,0.087-0.052,0.198,0.008,0.281c0.846,1.181,2.077,2.093,3.385,2.79c4.056,2.16,8.997,2.16,13.053,0
			c1.308-0.697,2.539-1.608,3.385-2.79c0.059-0.083,0.061-0.194,0.008-0.281C25.626,15.288,25,14.921,25,14.921z"/>
		<path fill="#9E6E43" d="M22.526,18.837c1.308-0.697,2.539-1.608,3.385-2.79c0.059-0.083,0.061-0.194,0.008-0.281
			C25.626,15.288,25,14.921,25,14.921s1.094-0.257,1.907-2.708c0.05-0.149-0.048-0.322-0.203-0.349
			c-1.154-0.198-2.224-0.146-2.915-0.068c-0.469,0.053-0.908-0.229-1.057-0.677L22,8.921c0,0,2.712-2.056,2.981-4.719
			c0.016-0.154-0.105-0.292-0.26-0.282C23.589,3.99,23,4.921,23,4.921s1.433-2.176,0.121-4.774
			c-0.062-0.124-0.228-0.182-0.353-0.124C18.513,1.983,18,7.421,18,7.421s-0.411-0.5-2-0.5v13.536
			C18.249,20.457,20.499,19.917,22.526,18.837z"/>
		<path fill="#96643B" d="M16.352,26.824C16.673,26.725,17,26.948,17,27.283v4.01C17,31.683,17.317,32,17.707,32h2.586
			C20.683,32,21,31.683,21,31.293c0-0.188-0.075-0.367-0.207-0.5l-0.321-0.322c-0.276-0.276-0.366-0.686-0.231-1.053
			C20.537,28.615,21,27.034,21,25c0-2.988-1-7-1-7h-4v8.896C16.098,26.896,16.196,26.872,16.352,26.824z"/>
		<path fill="#495587" d="M20,18l-4-1l-4,1c0,0-3.917,4.09-4.012,6.657c-0.008,0.207,0.143,0.398,0.339,0.464
			C10.513,25.86,12,25,12,25s1.008,1.234,3.738,2.847c0.157,0.093,0.367,0.093,0.524,0C18.992,26.234,20,25,20,25
			s1.487,0.86,3.672,0.121c0.197-0.066,0.347-0.257,0.339-0.464C23.917,22.09,20,18,20,18z"/>
		<path fill="#424B7E" d="M16.262,27.847C18.992,26.234,20,25,20,25s1.487,0.86,3.672,0.121c0.197-0.067,0.347-0.257,0.339-0.464
			C23.917,22.09,20,18,20,18l-4-1v10.917C16.092,27.917,16.183,27.894,16.262,27.847z"/>
		<path fill="#F7F7F7" d="M17,14c0,1.105,1.672,2,2.5,2s1.5-0.895,1.5-2s-0.672-2-1.5-2S17,12.895,17,14z"/>
		<path fill="#2B3332" d="M17,14c0,1.105,1.448,2,2,2s1-0.895,1-2s-0.448-2-1-2S17,12.895,17,14z"/>
		<circle fill="#F7F7F7" cx="19" cy="13.5" r="0.5"/>
		<path fill="#FFFFFF" d="M15,14c0,1.105-1.672,2-2.5,2S11,15.105,11,14s0.672-2,1.5-2S15,12.895,15,14z"/>
		<path fill="#373F3F" d="M15,14c0,1.105-1.448,2-2,2s-1-0.895-1-2s0.448-2,1-2S15,12.895,15,14z"/>
		<path fill="#FCE8CC" d="M24,9.893c0,0,1.972-0.691,2.87-2.682c0.071-0.158-0.028-0.345-0.199-0.37
			c-5.053-0.746-8.138,1.61-8.602,1.995c0.304-0.268,1.526-1.501,1.016-3.634c-0.039-0.163-0.222-0.247-0.371-0.171
			c-1.034,0.529-1.441,1.131-1.603,1.504c0.238-0.886,0.664-3.275-0.902-5.378c-0.104-0.14-0.312-0.14-0.416,0
			c-1.566,2.103-1.14,4.492-0.902,5.378c-0.162-0.373-0.569-0.975-1.603-1.504c-0.149-0.076-0.332,0.008-0.371,0.171
			c-0.511,2.133,0.711,3.366,1.016,3.634c-0.465-0.385-3.549-2.741-8.602-1.995C5.157,6.866,5.058,7.053,5.13,7.211
			C6.028,9.203,8,9.893,8,9.893S7.019,9.639,6.265,9.81c-0.163,0.037-0.236,0.224-0.156,0.37C7.147,12.072,14,12.893,14,12.893v2
			c0,0-4.152,0.375-6.858,3.815c-0.082,0.104-0.074,0.259,0.024,0.348C8.452,20.239,10,19.893,10,19.893s-1.132,1.303-1.024,2.787
			c0.009,0.122,0.098,0.226,0.22,0.24c2.486,0.284,4.545-1.614,5.39-2.538c-0.247,0.332-0.521,0.795-0.576,1.281
			c-0.015,0.136,0.086,0.261,0.221,0.276c1.061,0.116,1.77-1.045,1.77-1.045s0.709,1.16,1.77,1.045
			c0.136-0.015,0.237-0.14,0.221-0.276c-0.055-0.485-0.33-0.949-0.576-1.281c0.844,0.925,2.904,2.822,5.39,2.538
			c0.121-0.014,0.211-0.118,0.22-0.24C23.132,21.196,22,19.893,22,19.893s1.548,0.346,2.834-0.837
			c0.098-0.09,0.106-0.244,0.024-0.348C22.152,15.268,18,14.893,18,14.893v-2c0,0,6.853-0.821,7.891-2.713
			c0.08-0.146,0.007-0.334-0.156-0.37C24.981,9.639,24,9.893,24,9.893z"/>
		<circle fill="#FFFFFF" cx="13" cy="13.5" r="0.5"/>
		<path fill="#F5DEB9" d="M17.77,21.938c0.136-0.015,0.237-0.14,0.221-0.276c-0.055-0.485-0.33-0.949-0.576-1.281
			c0.844,0.925,2.904,2.822,5.39,2.538c0.121-0.014,0.211-0.118,0.22-0.24C23.132,21.196,22,19.893,22,19.893
			s1.548,0.346,2.834-0.837c0.098-0.09,0.106-0.244,0.024-0.349C22.152,15.268,18,14.893,18,14.893v-2c0,0,6.853-0.821,7.891-2.713
			c0.08-0.146,0.007-0.333-0.156-0.37C24.981,9.639,24,9.893,24,9.893s1.972-0.691,2.87-2.682c0.071-0.158-0.028-0.345-0.199-0.37
			c-5.053-0.746-8.138,1.61-8.602,1.995c0.304-0.268,1.526-1.501,1.016-3.634c-0.039-0.163-0.221-0.247-0.371-0.171
			c-1.034,0.529-1.441,1.131-1.603,1.504c0.238-0.886,0.664-3.275-0.902-5.378c-0.052-0.07-0.13-0.105-0.208-0.105v19.842
			C16,20.893,16.709,22.054,17.77,21.938z"/>
		<path fill="#434C4B" d="M17.5,16.25c0,0.659-0.949,1.06-1.337,1.197c-0.108,0.038-0.217,0.038-0.325,0
			C15.449,17.31,14.5,16.909,14.5,16.25c0-0.828,0.672-1.25,1.5-1.25C16.828,15,17.5,15.422,17.5,16.25z"/>
		<path fill="#373F3F" d="M16.163,17.447c0.388-0.137,1.337-0.538,1.337-1.197c0-0.828-0.672-1.25-1.5-1.25v2.476
			C16.054,17.476,16.109,17.466,16.163,17.447z"/>
	</g>
</g>
</svg>
