<?xml version="1.0" encoding="utf-8"?>
<!-- Generator: Adobe Illustrator 23.0.6, SVG Export Plug-In . SVG Version: 6.00 Build 0)  -->
<svg version="1.1" xmlns="http://www.w3.org/2000/svg" xmlns:xlink="http://www.w3.org/1999/xlink" x="0px" y="0px" width="32px"
	 height="32px" viewBox="0 0 32 32" enable-background="new 0 0 32 32" xml:space="preserve">
<g id="labels">
	<g>
	</g>
</g>
<g id="icons">
	<g>
		<path fill="#A7794C" d="M22.733,11.12L22,8.921c0,0,2.712-2.056,2.981-4.718c0.016-0.154-0.105-0.292-0.26-0.282
			C23.589,3.99,23,4.921,23,4.921s1.433-2.176,0.121-4.774c-0.062-0.123-0.228-0.182-0.353-0.124C18.513,1.983,18,7.421,18,7.421
			s-0.411-0.5-2-0.5s-2,0.5-2,0.5s-0.513-5.438-4.767-7.398C9.107-0.035,8.942,0.024,8.879,0.147C7.567,2.745,9,4.921,9,4.921
			S8.411,3.99,7.279,3.92c-0.154-0.009-0.275,0.128-0.26,0.282C7.288,6.865,10,8.921,10,8.921L9.267,11.12
			c-0.149,0.448,0.898,7.02,2.207,7.717c4.056,2.16,4.997,2.16,9.053,0C21.835,18.14,22.882,11.568,22.733,11.12z"/>
		<path fill="#9E6E43" d="M20.526,18.837c1.308-0.697,2.356-7.269,2.207-7.717L22,8.921c0,0,2.712-2.056,2.981-4.719
			c0.016-0.154-0.105-0.292-0.26-0.282C23.589,3.99,23,4.921,23,4.921s1.433-2.176,0.121-4.774
			c-0.062-0.124-0.228-0.182-0.353-0.124C18.513,1.983,18,7.421,18,7.421s-0.411-0.5-2-0.5v13.536
			C17.249,20.457,18.499,19.917,20.526,18.837z"/>
		<path fill="#313D68" d="M14,9c0,0-1.656-5.886-4.189-7.345C9.663,1.569,9.467,1.677,9.445,1.847C8.882,6.173,13,9,13,9H14z"/>
		<path fill="#263460" d="M18,9c0,0,1.656-5.886,4.189-7.345c0.148-0.085,0.344,0.022,0.366,0.192C23.118,6.173,19,9,19,9H18z"/>
		<path fill="#8D5B36" d="M17.802,26.805C18.424,26.682,19,27.151,19,27.784v3.509C19,31.683,19.317,32,19.707,32h2.586
			C22.683,32,23,31.683,23,31.293c0-0.188-0.075-0.367-0.207-0.5l-0.321-0.322c-0.276-0.276-0.366-0.686-0.231-1.053
			C22.537,28.615,23,27.034,23,25c0-2.988-1-7-1-7h-6v9C16.639,27,17.279,26.909,17.802,26.805z"/>
		<path fill="#96643B" d="M22.471,30.471c-0.276-0.276-0.366-0.686-0.231-1.053C22.537,28.615,23,27.034,23,25c0-2.988-1-7-1-7h-6
			h-6c0,0-1,4.012-1,7c0,2.034,0.463,3.615,0.759,4.418c0.135,0.367,0.046,0.777-0.231,1.053l-0.321,0.322
			C9.075,30.926,9,31.105,9,31.293C9,31.683,9.317,32,9.707,32h2.586C12.683,32,13,31.683,13,31.293l0-3.509
			c0-0.633,0.576-1.103,1.198-0.979C14.721,26.909,15.361,27,16,27c0.639,0,1.279-0.091,1.802-0.195
			C18.424,26.682,19,27.151,19,27.784l0,3.509C19,31.683,19.317,32,19.707,32h2.586C22.683,32,23,31.683,23,31.293
			c0-0.188-0.075-0.367-0.207-0.5L22.471,30.471z"/>
		<path fill="#6BA0A5" d="M21,21h-5h-5c0,0-3.013,5.021-3.017,7.665c0,0.204,0.145,0.388,0.339,0.454C10.51,29.862,12,29,12,29
			s1.005,1.23,3.726,2.84c0.164,0.097,0.383,0.097,0.547,0C18.995,30.23,20,29,20,29s1.49,0.862,3.678,0.119
			c0.193-0.066,0.339-0.25,0.339-0.454C24.013,26.021,21,21,21,21z"/>
		<path fill="#65999B" d="M16.274,31.84C18.995,30.23,20,29,20,29s1.49,0.862,3.678,0.119c0.193-0.066,0.339-0.25,0.339-0.454
			C24.013,26.021,21,21,21,21h-5v10.913C16.096,31.913,16.191,31.889,16.274,31.84z"/>
		<path fill="#495587" d="M20,18l-4-1l-4,1c0,0-3.917,4.09-4.012,6.657c-0.008,0.207,0.143,0.398,0.339,0.464
			C10.513,25.86,12,25,12,25s1.008,1.234,3.738,2.847c0.157,0.093,0.367,0.093,0.524,0C18.992,26.234,20,25,20,25
			s1.487,0.86,3.672,0.121c0.197-0.066,0.347-0.257,0.339-0.464C23.917,22.09,20,18,20,18z"/>
		<path fill="#424B7E" d="M16.262,27.847C18.992,26.234,20,25,20,25s1.487,0.86,3.672,0.121c0.197-0.067,0.347-0.257,0.339-0.464
			C23.917,22.09,20,18,20,18l-4-1v10.917C16.092,27.917,16.183,27.894,16.262,27.847z"/>
		<path fill="#F7F7F7" d="M17,14c0,1.105,1.672,2,2.5,2s1.5-0.895,1.5-2s-0.672-2-1.5-2S17,12.895,17,14z"/>
		<path fill="#2B3332" d="M17,14c0,1.105,1.448,2,2,2s1-0.895,1-2s-0.448-2-1-2S17,12.895,17,14z"/>
		<circle fill="#F7F7F7" cx="19" cy="13.5" r="0.5"/>
		<path fill="#FFFFFF" d="M15,14c0,1.105-1.672,2-2.5,2S11,15.105,11,14s0.672-2,1.5-2S15,12.895,15,14z"/>
		<path fill="#373F3F" d="M15,14c0,1.105-1.448,2-2,2s-1-0.895-1-2s0.448-2,1-2S15,12.895,15,14z"/>
		<path fill="#F5DEB9" d="M16,15.128c-4,0-5.906-0.999-9,2.872c-2.927,3.661-1.902,7.859-4,8c-0.946,0.063-1.649-0.134-2.136-0.369
			c-0.382-0.185-0.8,0.149-0.704,0.562C0.504,27.672,1.588,30,5,30c5.102,0,2.988-11,8-11L16,15.128z"/>
		<circle fill="#FFFFFF" cx="13" cy="13.5" r="0.5"/>
		<path fill="#EFD4A7" d="M16,15.128c4,0,5.906-0.999,9,2.872c2.927,3.661,1.902,7.859,4,8c0.946,0.063,1.649-0.134,2.136-0.369
			c0.382-0.185,0.8,0.149,0.704,0.562C31.496,27.672,30.412,30,27,30c-5.102,0-2.988-11-8-11L16,15.128z"/>
		<path fill="#FCE8CC" d="M22.809,18.556L22,16.128c-0.534-1.604-2.686-1-6-1s-5.466-0.604-6,1l-0.809,2.427
			c-0.07,0.211,0.15,0.402,0.349,0.303l1.098-0.549C10.804,18.226,11,18.347,11,18.533v1.227c0,0.188,0.199,0.308,0.366,0.222
			l1.446-0.755c0.109-0.057,0.242-0.026,0.316,0.072l0.814,1.085c0.083,0.111,0.241,0.133,0.352,0.049l1.555-1.188
			c0.09-0.068,0.214-0.068,0.304,0l1.555,1.188c0.11,0.084,0.269,0.062,0.352-0.049l0.814-1.085
			c0.073-0.098,0.207-0.128,0.316-0.072l1.446,0.755C20.801,20.068,21,19.948,21,19.76v-1.227c0-0.186,0.196-0.307,0.362-0.224
			l1.098,0.549C22.659,18.958,22.88,18.767,22.809,18.556z"/>
		<path fill="#FCE8CC" d="M8,9.893c0,0-0.981-0.254-1.735-0.083c-0.163,0.037-0.236,0.224-0.156,0.37
			C7.147,12.072,14,12.893,14,12.893V16h4v-3.107c0,0,6.853-0.821,7.891-2.713c0.08-0.146,0.007-0.333-0.156-0.37
			C24.981,9.639,24,9.893,24,9.893s1.972-0.691,2.87-2.682c0.071-0.158-0.028-0.345-0.199-0.37c-5.053-0.746-8.138,1.61-8.602,1.995
			c0.304-0.268,1.526-1.501,1.016-3.634c-0.039-0.163-0.221-0.247-0.371-0.171c-1.034,0.529-1.441,1.131-1.603,1.504
			c0.238-0.886,0.664-3.275-0.902-5.378c-0.104-0.14-0.312-0.14-0.416,0c-1.566,2.103-1.141,4.492-0.902,5.378
			c-0.162-0.373-0.569-0.975-1.603-1.504c-0.149-0.076-0.332,0.008-0.371,0.171c-0.511,2.133,0.711,3.366,1.016,3.634
			c-0.465-0.385-3.549-2.741-8.602-1.995C5.157,6.866,5.058,7.053,5.13,7.211C6.028,9.203,8,9.893,8,9.893z"/>
		<path fill="#F5DEB9" d="M18,16v-3.107c0,0,6.853-0.821,7.891-2.713c0.08-0.146,0.007-0.333-0.156-0.37
			C24.981,9.639,24,9.893,24,9.893s1.972-0.691,2.87-2.682c0.071-0.158-0.028-0.345-0.199-0.37c-5.053-0.746-8.138,1.61-8.602,1.995
			c0.304-0.268,1.526-1.501,1.016-3.634c-0.039-0.163-0.221-0.247-0.371-0.171c-1.034,0.529-1.441,1.131-1.603,1.504
			c0.238-0.886,0.664-3.275-0.902-5.378c-0.052-0.07-0.13-0.105-0.208-0.105V16H18z"/>
		<path fill="#F5DEB9" d="M16.152,19.244l1.555,1.188c0.11,0.084,0.269,0.062,0.352-0.049l0.814-1.085
			c0.073-0.098,0.207-0.128,0.316-0.072l1.446,0.755C20.801,20.068,21,19.948,21,19.76v-1.227c0-0.186,0.196-0.307,0.362-0.224
			l1.098,0.549c0.199,0.099,0.419-0.091,0.349-0.303L22,16.128c-0.534-1.604-2.686-1-6-1v4.065
			C16.053,19.193,16.107,19.21,16.152,19.244z"/>
		<path fill="#434C4B" d="M17.5,16c0,0.541-0.999,0.865-1.366,0.966c-0.09,0.025-0.178,0.025-0.267,0
			C15.499,16.865,14.5,16.541,14.5,16c0-0.663,0.672-1,1.5-1C16.828,15,17.5,15.337,17.5,16z"/>
	</g>
</g>
</svg>
