<?xml version="1.0" encoding="utf-8"?>
<!-- Generator: Adobe Illustrator 23.0.6, SVG Export Plug-In . SVG Version: 6.00 Build 0)  -->
<svg version="1.1" xmlns="http://www.w3.org/2000/svg" xmlns:xlink="http://www.w3.org/1999/xlink" x="0px" y="0px" width="32px"
	 height="32px" viewBox="0 0 32 32" enable-background="new 0 0 32 32" xml:space="preserve">
<g id="labels">
	<g>
	</g>
</g>
<g id="icons">
	<g>
		<path fill="#349363" d="M29,18c0-0.771-0.552-0.466-1.352-0.211C27.713,17.546,27.75,17.28,27.75,17c0-1.104-0.56-2-1.25-2
			s-1.25,0.896-1.25,2c0,0.28,0.037,0.546,0.102,0.789C24.552,17.534,24,17.229,24,18c0,0.923,0.786,1.692,1.849,1.923
			C25.398,21.609,23.556,25,16,25v1c8.373,0,10.372-4.106,10.849-6.028C28.063,19.835,29,19.009,29,18z"/>
		
			<ellipse transform="matrix(0.5616 -0.8274 0.8274 0.5616 1.4443 25.7261)" fill="#40A87B" cx="25" cy="11.5" rx="3.875" ry="2.496"/>
		<path fill="#6EDCA2" d="M22.5,11.921c0,0,2.809-3.377,3.984-2.869c1.164,0.504,0.439,4.172-2.988,3.825
			c0,0,1.403,0.273,0.996,0.956c-0.407,0.684-1.992-0.956-1.992-0.956V11.921z"/>
		<circle fill="#F0C877" cx="19" cy="31" r="1"/>
		<circle fill="#F7D684" cx="13" cy="31" r="1"/>
		<path fill="#F0C877" d="M26.97,27.757L26.28,25h-2l-0.251,1.005c-0.561,0.021-1.897,0.155-1.749,0.995
			c0.118,0.668,0.883,0.492,1.432,0.272l-0.121,0.485C23.433,28.389,23.91,29,24.561,29H26C26.65,29,27.127,28.389,26.97,27.757z"/>
		<path fill="#3AA176" d="M26.854,25.573L26.28,25h-0.037c-0.176-2.667-1.069-4.685-2.671-5.999
			c-2.696-2.21-6.334-1.513-6.488-1.482l0.39,1.961c0.028-0.005,2.887-0.536,4.841,1.077c1.132,0.934,1.778,2.439,1.929,4.478
			l-0.537,0.537C23.55,25.731,23.661,26,23.884,26h0.293c0.066,0,0.13,0.026,0.177,0.073l0.75,0.75c0.098,0.098,0.256,0.098,0.354,0
			l0.75-0.75C26.254,26.026,26.317,26,26.384,26h0.293C26.899,26,27.011,25.731,26.854,25.573z"/>
		<path fill="#DADDDC" d="M19.641,16.538l-0.528,0.791c-0.066,0.099-0.053,0.231,0.031,0.315l0.678,0.678
			c0.098,0.098,0.098,0.256,0,0.354l-0.678,0.678c-0.084,0.084-0.097,0.216-0.031,0.315l0.528,0.791
			c0.127,0.19-0.047,0.437-0.269,0.381L16,20v-3l3.373-0.843C19.594,16.101,19.768,16.348,19.641,16.538z"/>
		<path fill="#F7D684" d="M7.971,26.005L7.72,25h-2L5.03,27.757C4.873,28.389,5.35,29,6.001,29h1.438
			c0.651,0,1.128-0.611,0.97-1.243l-0.121-0.485C8.837,27.492,9.602,27.668,9.72,27C9.868,26.159,8.532,26.025,7.971,26.005z"/>
		<path fill="#40A87B" d="M8.428,19.001C6.826,20.315,5.933,22.333,5.757,25H5.72l-0.573,0.573C4.989,25.731,5.101,26,5.323,26
			h0.293c0.066,0,0.13,0.026,0.177,0.073l0.75,0.75c0.098,0.098,0.256,0.098,0.354,0l0.75-0.75C7.693,26.026,7.757,26,7.823,26
			h0.293c0.223,0,0.334-0.269,0.177-0.427l-0.537-0.537c0.151-2.039,0.797-3.545,1.929-4.478c1.954-1.613,4.813-1.082,4.841-1.077
			l0.39-1.961C14.763,17.488,11.124,16.792,8.428,19.001z"/>
		<path fill="#E3E5E5" d="M12.359,16.538l0.528,0.791c0.066,0.099,0.053,0.231-0.031,0.315l-0.678,0.678
			c-0.098,0.098-0.098,0.256,0,0.354l0.678,0.678c0.084,0.084,0.097,0.216,0.031,0.315l-0.528,0.791
			c-0.127,0.19,0.047,0.437,0.269,0.381L16,20v-3l-3.373-0.843C12.406,16.101,12.232,16.348,12.359,16.538z"/>
		<path fill="#F7D684" d="M17,16h-1h-1c0,4.112-3,8-3,8h4h4C20,24,17,20.112,17,16z"/>
		<path fill="#F0C877" d="M20,24c0,0-3-3.888-3-8h-1v8H20z"/>
		<circle fill="#F0C877" cx="21" cy="31" r="1"/>
		<circle fill="#F7D684" cx="20" cy="31" r="1"/>
		<circle fill="#F7D684" cx="11" cy="31" r="1"/>
		<circle fill="#FAE09F" cx="12" cy="31" r="1"/>
		<path fill="#40A87B" d="M20.976,28.476C20.825,26.675,20,25.025,20,25.025l0.809-2.427c0.07-0.211-0.15-0.402-0.349-0.303
			l-1.299,0.649c-0.096,0.048-0.212,0.029-0.289-0.047l-0.696-0.696c-0.098-0.098-0.256-0.098-0.354,0l-0.646,0.646
			c-0.098,0.098-0.256,0.098-0.354,0l-0.646-0.646c-0.098-0.098-0.256-0.098-0.354,0l-0.646,0.646c-0.098,0.098-0.256,0.098-0.354,0
			l-0.646-0.646c-0.098-0.098-0.256-0.098-0.354,0l-0.696,0.696c-0.076,0.076-0.192,0.095-0.289,0.047l-1.299-0.649
			c-0.199-0.1-0.419,0.091-0.349,0.303L12,25.025c0,0-0.825,1.65-0.976,3.452c-0.029,0.347-0.235,0.654-0.547,0.81l-1.03,0.515
			c-0.184,0.092-0.184,0.355,0,0.447l1.392,0.696c0.096,0.048,0.212,0.029,0.289-0.047l0.696-0.696c0.098-0.098,0.256-0.098,0.354,0
			l0.696,0.696c0.076,0.076,0.192,0.095,0.289,0.047l1.529-0.764c0.153-0.076,0.186-0.28,0.065-0.4l-0.466-0.466
			c-0.198-0.198-0.307-0.468-0.292-0.747c0.026-0.495,0.156-1.318,0.671-2.104c0.181-0.277,0.499-0.437,0.83-0.437l0.503,0l0.503,0
			c0.331,0,0.648,0.16,0.83,0.437c0.515,0.786,0.644,1.609,0.671,2.104c0.015,0.279-0.095,0.55-0.292,0.747l-0.466,0.466
			c-0.121,0.121-0.088,0.324,0.065,0.4l1.529,0.764c0.096,0.048,0.212,0.029,0.289-0.047l0.696-0.696
			c0.098-0.098,0.256-0.098,0.354,0l0.696,0.696c0.076,0.076,0.192,0.095,0.289,0.047l1.392-0.696c0.184-0.092,0.184-0.355,0-0.447
			l-1.03-0.515C21.212,29.131,21.005,28.823,20.976,28.476z"/>
		<path fill="#3AA176" d="M16.503,26.025c0.331,0,0.648,0.16,0.83,0.437c0.515,0.786,0.644,1.609,0.671,2.104
			c0.015,0.279-0.095,0.55-0.292,0.748l-0.466,0.466c-0.121,0.121-0.088,0.324,0.065,0.4l1.529,0.764
			c0.096,0.048,0.213,0.029,0.289-0.047l0.696-0.696c0.098-0.098,0.256-0.098,0.354,0l0.696,0.696
			c0.076,0.076,0.192,0.095,0.289,0.047l1.392-0.696c0.184-0.092,0.184-0.355,0-0.447l-1.03-0.515
			c-0.312-0.156-0.518-0.463-0.547-0.81C20.825,26.675,20,25.025,20,25.025l0.809-2.427c0.07-0.211-0.15-0.402-0.349-0.303
			l-1.299,0.649c-0.096,0.048-0.213,0.029-0.289-0.047l-0.696-0.696c-0.098-0.098-0.256-0.098-0.354,0l-0.646,0.646
			c-0.098,0.098-0.256,0.098-0.354,0l-0.646-0.646c-0.049-0.049-0.113-0.073-0.177-0.073v3.896H16.503z"/>
		
			<ellipse transform="matrix(0.8274 -0.5616 0.5616 0.8274 -5.2504 5.9164)" fill="#45B67B" cx="7" cy="11.5" rx="2.496" ry="3.875"/>
		<path fill="#6EDCA2" d="M9.5,11.921c0,0-2.809-3.377-3.984-2.869c-1.164,0.504-0.439,4.172,2.988,3.825
			c0,0-1.403,0.273-0.996,0.956C7.915,14.517,9.5,12.877,9.5,12.877V11.921z"/>
		<ellipse fill="#45B67B" cx="16" cy="11.963" rx="7" ry="5"/>
		<path fill="#40A87B" d="M23,11.963c0-2.761-2.582-5-7-5v10C20.418,16.963,23,14.724,23,11.963z"/>
		<path fill="#FAE09F" d="M21.958,14.785C21.984,14.691,22,14.596,22,14.5c0-0.589-0.491-0.766-1.31-0.775
			c-0.368-0.004-0.629-0.392-0.452-0.715C20.574,12.398,20.627,11.7,20,11c-1.165-1.3-2.498-1.755-3.293-0.828
			c-0.36,0.419-1.054,0.419-1.413,0C14.498,9.245,13.165,9.7,12,11c-0.627,0.7-0.574,1.398-0.238,2.01
			c0.177,0.323-0.084,0.71-0.452,0.715C10.491,13.734,10,13.911,10,14.5c0,0.096,0.016,0.191,0.042,0.285
			C11.185,16.121,13.232,17,16,17S20.815,16.121,21.958,14.785z"/>
		<path fill="#F7D684" d="M21.958,14.785C21.984,14.691,22,14.596,22,14.5c0-0.589-0.491-0.766-1.31-0.775
			c-0.368-0.004-0.629-0.392-0.452-0.715C20.574,12.398,20.627,11.7,20,11c-1.165-1.3-2.498-1.755-3.293-0.828
			c-0.18,0.21-0.443,0.314-0.707,0.314V17C18.768,17,20.815,16.121,21.958,14.785z"/>
		<path fill="#45B67B" d="M19,5c0,0,0.417-0.927,0-2s-1,0-1,0s-0.313-3-2-3s-2,3-2,3s-0.583-1.073-1,0s0,2,0,2s-1-0.542-1,1
			s3,4.999,3,4.999l0.823,0.823c0.098,0.098,0.256,0.098,0.354,0L17,10.999c0,0,3-3.457,3-4.999S19,5,19,5z"/>
		<path fill="#40A87B" d="M16.177,11.822L17,10.999c0,0,3-3.457,3-4.999s-1-1-1-1s0.417-0.927,0-2s-1,0-1,0s-0.313-3-2-3v11.895
			C16.064,11.895,16.128,11.871,16.177,11.822z"/>
		<ellipse fill="#434C4B" cx="16" cy="14.5" rx="1" ry="0.5"/>
		<ellipse fill="#FFE28A" cx="16" cy="6" rx="0.5" ry="1"/>
		<path fill="#EDEEEE" d="M13,8c-0.494,0.094,0,1.499,0,1.499s-1.416-2.36-2.141-1.929S12,9.999,12,9.999s-0.901-1.091-1.451-0.549
			S13,11.999,13,11.999L15,11C15,11,14,7.81,13,8z"/>
		
			<ellipse transform="matrix(0.7069 -0.7073 0.7073 0.7069 -0.348 12.1602)" fill="#FFE28A" cx="14.5" cy="6.5" rx="0.337" ry="0.621"/>
		
			<ellipse transform="matrix(0.7073 -0.7069 0.7069 0.7073 0.5277 14.2744)" fill="#FFD96C" cx="17.5" cy="6.5" rx="0.621" ry="0.337"/>
		<path fill="#FFD96C" d="M16.5,6c0-0.552-0.224-1-0.5-1v2C16.276,7,16.5,6.552,16.5,6z"/>
		<path fill="#FFFFFF" d="M15,12.001c0,1.105-0.948,1.5-1.5,1.5s-1.5-0.395-1.5-1.5v-0.5c0-0.276,0.224-0.5,0.5-0.5L15,11
			C15,11,15,11.656,15,12.001z"/>
		<path fill="#373F3F" d="M14,11.8c0,0.884-0.224,1.2-0.5,1.2S13,12.684,13,11.8c0-0.884,0-0.8,0-0.8l1-0.001
			C14,10.999,14,11.523,14,11.8z"/>
		<path fill="#E3E5E5" d="M19,8c0.494,0.094,0,1.499,0,1.499s1.416-2.36,2.141-1.929S20,9.999,20,9.999s0.901-1.091,1.451-0.549
			S19,11.999,19,11.999L17,11C17,11,18,7.81,19,8z"/>
		<path fill="#F7F7F7" d="M17,12.001c0,1.105,0.948,1.5,1.5,1.5s1.5-0.395,1.5-1.5v-0.5c0-0.276-0.224-0.5-0.5-0.5L17,11
			C17,11,17,11.656,17,12.001z"/>
		<path fill="#2B3332" d="M18,11.8c0,0.884,0.224,1.2,0.5,1.2s0.5-0.316,0.5-1.2c0-0.884,0-0.8,0-0.8l-1-0.001
			C18,10.999,18,11.523,18,11.8z"/>
		<path fill="#FFD96C" d="M16.5,6c0-0.552-0.224-1-0.5-1v2C16.276,7,16.5,6.552,16.5,6z"/>
		<path fill="#373F3F" d="M17,14.5c0-0.276-0.448-0.5-1-0.5v1C16.552,15,17,14.776,17,14.5z"/>
	</g>
</g>
</svg>
