<?xml version="1.0" encoding="utf-8"?>
<!-- Generator: Adobe Illustrator 23.0.6, SVG Export Plug-In . SVG Version: 6.00 Build 0)  -->
<svg version="1.1" xmlns="http://www.w3.org/2000/svg" xmlns:xlink="http://www.w3.org/1999/xlink" x="0px" y="0px" width="32px"
	 height="32px" viewBox="0 0 32 32" enable-background="new 0 0 32 32" xml:space="preserve">
<g id="labels">
	<g>
	</g>
</g>
<g id="icons">
	<g>
		<path fill="#9D85D3" d="M10,18c0,4.694,1,14-2,14s-6-9.306-6-14S10,13.306,10,18z"/>
		<path fill="#F297BE" d="M7.5,27c-1.215,0-2.335,0.254-3.245,0.679C5.326,30.146,6.662,32,8,32c1.385,0,1.913-1.991,2.085-4.589
			C9.314,27.149,8.435,27,7.5,27z"/>
		<path fill="#9D85D3" d="M30,18c0,7.732-6.268,5-14,5S2,25.732,2,18S8.268,4,16,4S30,10.268,30,18z"/>
		<path fill="#FBCFD6" d="M28.985,18c0,0,0.004-0.058,0.003-0.151c-0.002-0.094-0.011-0.186-0.015-0.279
			c-0.089-1.01-0.717-3.473-4.732-3.568C24.109,14,24,13.89,23.997,13.759C23.828,6.503,16,9.848,16,9.848s-7.828-3.345-7.997,3.91
			C8,13.89,7.891,14,7.759,14.003c-4.015,0.095-4.643,2.558-4.732,3.568c-0.004,0.093-0.013,0.185-0.015,0.279
			C3.012,17.942,3.015,18,3.015,18H3.004C3.004,18.024,3,18.047,3,18.071C3,24.738,11.113,32,16,32s13-7.262,13-13.929
			c0-0.024-0.004-0.047-0.004-0.071H28.985z"/>
		<path fill="#9179C6" d="M30,18c0,4.694-3,14-6,14s-2-9.306-2-14S30,13.306,30,18z"/>
		<path fill="#EA8BB4" d="M27.745,27.679C26.835,27.254,25.715,27,24.5,27c-0.935,0-1.814,0.149-2.585,0.411
			C22.087,30.009,22.615,32,24,32C25.338,32,26.674,30.146,27.745,27.679z"/>
		<path fill="#9179C6" d="M30,18c0-7.732-6.268-14-14-14v19C23.732,23,30,25.732,30,18z"/>
		<path fill="#FAC4D1" d="M29,18.071c0-0.024-0.004-0.047-0.004-0.071h-0.011c0,0,0.004-0.058,0.003-0.151
			c-0.002-0.094-0.011-0.186-0.015-0.279c-0.088-0.99-0.693-3.377-4.5-3.559c-0.263-0.013-0.472-0.223-0.484-0.486
			C23.658,6.576,16,9.848,16,9.848V32C20.887,32,29,24.738,29,18.071z"/>
		<path fill="#EA8BB4" d="M16,21.961c2.812-0.332,5-2.873,5-5.961s-2.188-5.629-5-5.961V21.961z"/>
		<path fill="#F297BE" d="M16,19.039c-2.812,0.332-5,2.873-5,5.961s2.5,4.961,5,4.961V19.039z"/>
		<path fill="#EA8BB4" d="M16,29.961c2.5,0,5-1.873,5-4.961s-2.188-5.629-5-5.961V29.961z"/>
		<path fill="#F297BE" d="M16,6.039C13.188,6.371,11,8.912,11,12s2.188,5.629,5,5.961V6.039z"/>
		<circle fill="#F297BE" cx="16" cy="2" r="2"/>
		<path fill="#F297BE" d="M19,16c0-2.209-1.343-4-3-4v8C17.657,20,19,18.209,19,16z"/>
		<path fill="#F297BE" d="M19,24c0-2.209-1.343-4-3-4v8C17.657,28,19,26.209,19,24z"/>
		<path fill="#F297BE" d="M19,8c0-2.209-1.343-4-3-4v8C17.657,12,19,10.209,19,8z"/>
		<path fill="#F8A1C4" d="M13,4c0,2.209,1.343,4,3,4V0C14.343,0,13,1.791,13,4z"/>
		<path fill="#F8A1C4" d="M13,12c0,2.209,1.343,4,3,4V8C14.343,8,13,9.791,13,12z"/>
		<path fill="#F8A1C4" d="M13,20c0,2.209,1.343,4,3,4v-8C14.343,16,13,17.791,13,20z"/>
		<path fill="#373F3F" d="M8,20.036c-1.033,0-2.065-0.333-2.851-1c-0.229-0.194-0.257-0.537-0.063-0.765
			c0.194-0.228,0.537-0.256,0.765-0.063c1.186,1.006,3.112,1.006,4.298,0c0.229-0.194,0.572-0.165,0.765,0.063
			c0.194,0.229,0.166,0.571-0.063,0.765C10.065,19.702,9.033,20.036,8,20.036z"/>
		<ellipse fill="#F9ADC8" cx="8" cy="23" rx="2" ry="1"/>
		<path fill="#2B3332" d="M24,20.036c-1.033,0-2.065-0.333-2.851-1c-0.229-0.194-0.257-0.537-0.063-0.765
			c0.194-0.228,0.537-0.256,0.765-0.063c1.186,1.006,3.112,1.006,4.298,0c0.229-0.194,0.572-0.165,0.765,0.063
			c0.194,0.229,0.166,0.571-0.063,0.765C26.065,19.702,25.033,20.036,24,20.036z"/>
		<ellipse fill="#F8A1C4" cx="24" cy="23" rx="2" ry="1"/>
		<path fill="#F8A1C4" d="M16,24c-1.105,0-2,0.895-2,2s0.895,2,2,2V24z"/>
	</g>
</g>
</svg>
