<svg xmlns="http://www.w3.org/2000/svg" viewBox="0 0 32 32"><path d="M11.866 27.77a20.222 20.222 0 01-.086 2.583 2.098 2.098 0 01.889-.202 1.996 1.996 0 011.848 1.16 8.944 8.944 0 00.233-3.392c-.278.02-.555.043-.838.043a11.55 11.55 0 01-2.046-.193z" fill="#d1d4d4"/><path d="M9.827 20.765c-.083 2.509 1.603 5.396 1.773 5.71a2.914 2.914 0 01.266 1.294 11.55 11.55 0 002.046.193c.283 0 .56-.023.838-.043a34.921 34.921 0 00-.665-4.453H16v-2.2a37.997 37.997 0 01-6.173-.5z" fill="#567b9b"/><path d="M10.348 18.86a3.794 3.794 0 00-.52 1.905 37.997 37.997 0 006.172.5v-1.99a38.367 38.367 0 01-5.652-.415z" fill="#dadddc"/><path d="M12.027 16.812l.122.634a3.507 3.507 0 00-1.8 1.414 38.367 38.367 0 005.651.415v-2.172a26.962 26.962 0 01-3.973-.291z" fill="#5f82a0"/><path d="M11.699 15.103l.328 1.709a26.962 26.962 0 003.973.291V15.45a26.727 26.727 0 01-4.301-.346z" fill="#e3e5e5"/><path d="M11.6 14.589l.099.514A26.727 26.727 0 0016 15.45V6.97c-10.238 0-9.486 7.62-4.4 7.62z" fill="#6789a5"/><path d="M12.669 30.151a2.098 2.098 0 00-.889.202C11.7 31.279 11.6 32 11.6 32h2.485a1.63 1.63 0 00.432-.688 1.996 1.996 0 00-1.848-1.161z" fill="#373f3f"/><ellipse cx="11.643" cy="10.665" rx="1.878" ry="1.829" fill="#ffe28a"/><path d="M13.92 12.332A1.897 1.897 0 0016 13.96v-3.257a1.897 1.897 0 00-2.08 1.629z" fill="#373f3f"/><ellipse cx="12.221" cy="10.703" rx="1.3" ry="1.295" fill="#84ed82"/><ellipse cx="12.365" cy="10.57" rx=".462" ry=".629" fill="#373f3f"/><path d="M20.134 27.77a20.222 20.222 0 00.086 2.583 2.098 2.098 0 00-.889-.202 1.996 1.996 0 00-1.848 1.16 8.944 8.944 0 01-.233-3.392c.278.02.555.043.838.043a11.55 11.55 0 002.046-.193z" fill="#c8cccb"/><path d="M22.173 20.765c.083 2.509-1.603 5.396-1.773 5.71a2.914 2.914 0 00-.266 1.294 11.55 11.55 0 01-2.045.193c-.284 0-.561-.023-.84-.043a34.921 34.921 0 01.666-4.453H16v-2.2a37.997 37.997 0 006.173-.5z" fill="#456f93"/><path d="M21.652 18.86a3.794 3.794 0 01.52 1.905 37.997 37.997 0 01-6.172.5v-1.99a38.367 38.367 0 005.652-.415z" fill="#d1d4d4"/><path d="M19.973 16.812l-.122.634a3.507 3.507 0 011.8 1.414 38.367 38.367 0 01-5.651.415v-2.172a26.962 26.962 0 003.973-.291z" fill="#567b9b"/><path d="M20.301 15.103l-.328 1.709a26.962 26.962 0 01-3.973.291V15.45a26.727 26.727 0 004.301-.346z" fill="#dadddc"/><path d="M20.4 14.589l-.099.514A26.727 26.727 0 0116 15.45V6.97c10.238 0 9.486 7.62 4.4 7.62z" fill="#5f82a0"/><path d="M19.331 30.151a2.098 2.098 0 01.889.202c.08.926.18 1.647.18 1.647h-2.485a1.63 1.63 0 01-.432-.688 1.996 1.996 0 011.848-1.161z" fill="#2b3332"/><ellipse cx="20.357" cy="10.665" rx="1.878" ry="1.829" fill="#ffd96c"/><path d="M18.08 12.332A1.897 1.897 0 0116 13.96v-3.257a1.897 1.897 0 012.08 1.629z" fill="#2b3332"/><ellipse cx="19.779" cy="10.703" rx="1.3" ry="1.295" fill="#78df7c"/><ellipse cx="19.635" cy="10.57" rx=".462" ry=".629" fill="#2b3332"/><path fill="#e3e5e5" d="M17.76 8.543h-3.52V4.861l3.52-1.165v4.847z"/><path fill="#edeeee" d="M15.336 6.181l-4.324 1.211L15.336 0v6.181z"/></svg>