<svg xmlns="http://www.w3.org/2000/svg" viewBox="0 0 32 32"><title>522-blitzle-shiny</title><path d="M11.866,27.76943a20.22155,20.22155,0,0,1-.08583,2.58359,2.09784,2.09784,0,0,1,.88882-.202,1.996,1.996,0,0,1,1.84781,1.1609,8.94365,8.94365,0,0,0,.23342-3.39286c-.27808.0201-.5555.04251-.83868.04251A11.55025,11.55025,0,0,1,11.866,27.76943Z" style="fill:#d1d4d4"/><path d="M9.82731,20.76546c-.0829,2.50822,1.60306,5.396,1.77237,5.71024a2.9136,2.9136,0,0,1,.26628,1.29373,11.55025,11.55025,0,0,0,2.04554.19215c.28318,0,.5606-.02241.83868-.04251a34.92128,34.92128,0,0,0-.66532-4.45317H16v-2.2A37.99676,37.99676,0,0,1,9.82731,20.76546Z" style="fill:#567b9b"/><path d="M10.34807,18.86041a3.79407,3.79407,0,0,0-.52076,1.905A37.99676,37.99676,0,0,0,16,21.26586V19.275A38.36664,38.36664,0,0,1,10.34807,18.86041Z" style="fill:#dadddc"/><path d="M12.02686,16.81188c.04655.24208.0898.4671.1219.63442a3.50677,3.50677,0,0,0-1.80069,1.41411A38.36664,38.36664,0,0,0,16,19.275V17.10345A26.96186,26.96186,0,0,1,12.02686,16.81188Z" style="fill:#5f82a0"/><path d="M11.69854,15.10328c.08867.46131.22,1.145.32832,1.7086A26.96186,26.96186,0,0,0,16,17.10345V15.44888A26.727,26.727,0,0,1,11.69854,15.10328Z" style="fill:#e3e5e5"/><path d="M11.59968,14.58894l.09886.51434A26.727,26.727,0,0,0,16,15.44888V6.96918C5.76249,6.96918,6.51383,14.58894,11.59968,14.58894Z" style="fill:#6789a5"/><path d="M12.669,30.151a2.09784,2.09784,0,0,0-.88882.202c-.081.92592-.18045,1.647-.18045,1.647h2.48518a1.63057,1.63057,0,0,0,.4319-.68807A1.996,1.996,0,0,0,12.669,30.151Z" style="fill:#373f3f"/><ellipse cx="11.64291" cy="10.66476" rx="1.87831" ry="1.82874" style="fill:#ffe28a"/><path d="M13.91943,12.33158A1.89672,1.89672,0,0,0,16,13.96032V10.70284A1.89672,1.89672,0,0,0,13.91943,12.33158Z" style="fill:#373f3f"/><ellipse cx="12.22086" cy="10.70286" rx="1.30037" ry="1.29536" style="fill:#84ed82"/><ellipse cx="12.36534" cy="10.56952" rx="0.46235" ry="0.62863" style="fill:#373f3f"/><path d="M20.134,27.76943a20.22155,20.22155,0,0,0,.08583,2.58359,2.09784,2.09784,0,0,0-.88882-.202,1.996,1.996,0,0,0-1.84781,1.1609,8.94365,8.94365,0,0,1-.23342-3.39286c.27808.0201.5555.04251.83868.04251A11.55025,11.55025,0,0,0,20.134,27.76943Z" style="fill:#c8cccb"/><path d="M22.17269,20.76546c.0829,2.50822-1.60306,5.396-1.77237,5.71024a2.9136,2.9136,0,0,0-.26628,1.29373,11.55025,11.55025,0,0,1-2.04554.19215c-.28318,0-.5606-.02241-.83868-.04251a34.92128,34.92128,0,0,1,.66532-4.45317H16v-2.2A37.99676,37.99676,0,0,0,22.17269,20.76546Z" style="fill:#456f93"/><path d="M21.65193,18.86041a3.79407,3.79407,0,0,1,.52076,1.905A37.99676,37.99676,0,0,1,16,21.26586V19.275A38.36664,38.36664,0,0,0,21.65193,18.86041Z" style="fill:#d1d4d4"/><path d="M19.97314,16.81188c-.04655.24208-.0898.4671-.1219.63442a3.50677,3.50677,0,0,1,1.80069,1.41411A38.36664,38.36664,0,0,1,16,19.275V17.10345A26.96186,26.96186,0,0,0,19.97314,16.81188Z" style="fill:#567b9b"/><path d="M20.30146,15.10328c-.08867.46131-.22,1.145-.32832,1.7086A26.96186,26.96186,0,0,1,16,17.10345V15.44888A26.727,26.727,0,0,0,20.30146,15.10328Z" style="fill:#dadddc"/><path d="M20.40032,14.58894l-.09886.51434A26.727,26.727,0,0,1,16,15.44888V6.96918C26.23751,6.96918,25.48617,14.58894,20.40032,14.58894Z" style="fill:#5f82a0"/><path d="M19.33105,30.151a2.09784,2.09784,0,0,1,.88882.202c.081.92592.18045,1.647.18045,1.647H17.91514a1.63057,1.63057,0,0,1-.4319-.68807A1.996,1.996,0,0,1,19.33105,30.151Z" style="fill:#2b3332"/><ellipse cx="20.35709" cy="10.66476" rx="1.87831" ry="1.82874" style="fill:#ffd96c"/><path d="M18.08057,12.33158A1.89672,1.89672,0,0,1,16,13.96032V10.70284A1.89672,1.89672,0,0,1,18.08057,12.33158Z" style="fill:#2b3332"/><ellipse cx="19.77914" cy="10.70286" rx="1.30037" ry="1.29536" style="fill:#78df7c"/><ellipse cx="19.63466" cy="10.56952" rx="0.46235" ry="0.62863" style="fill:#2b3332"/><polygon points="17.76 8.543 14.24 8.543 14.24 4.861 17.76 3.696 17.76 8.543" style="fill:#e3e5e5"/><polygon points="15.336 6.181 11.012 7.392 15.336 0 15.336 6.181" style="fill:#edeeee"/></svg>