<svg xmlns="http://www.w3.org/2000/svg" viewBox="0 0 32 32"><defs><style>.a{fill:#5d374c;}.b{fill:#693f56;}.c{fill:#e3e5e5;}.d{fill:#211915;}.e{fill:#dadddc;}.f{fill:#8e7763;}.g{fill:#d1d4d4;}.h{fill:#edeeee;}.i{fill:#6cd275;}.j{fill:#ffe28a;}.k{fill:#84ed82;}.l{fill:#532f42;}.m{fill:#876f5d;}.n{fill:#c8cccb;}.o{fill:#60c46f;}.p{fill:#ffd96c;}.q{fill:#78df7c;}</style></defs><title>523-zebstrika-shiny</title><path class="a" d="M11.0363,13.14629c-2.51427,0-2.16827,2.99326-2.16827,4.71744,0,5.08609,2.28662,5.62477,7.17866,5.62477L15.96227,8.27C13.11376,8.27,11.54379,10.5397,11.0363,13.14629Z"/><path class="b" d="M13.10542,11.78087s.66976,2.7189,2.94125,2.7189c0-.67322-.02946-.43533-.02946-1.85569v-8.512C8.662,4.13209,10.93992,11.78087,13.10542,11.78087Z"/><polygon class="c" points="15.208 11.819 16.047 11.819 16.017 8.136 15.208 11.819"/><path class="d" d="M14.93658,11.74416c-.73661.82406-.904,1.116-.77285,2.011a2.15873,2.15873,0,0,0,1.883,1.09355V11.58969A4.17219,4.17219,0,0,0,14.93658,11.74416Z"/><path class="e" d="M13.08691,21.11147a2.59966,2.59966,0,0,0-1.497-2.59052A3.234,3.234,0,0,0,9.8172,20.966a11.19447,11.19447,0,0,1,1.57537-1.11479A5.331,5.331,0,0,1,13.08691,21.11147Z"/><path class="b" d="M13.08691,21.11147a5.331,5.331,0,0,0-1.69434-1.26027A11.19447,11.19447,0,0,0,9.8172,20.966a6.03124,6.03124,0,0,0,.94234,3.34479l-.00024.02308h1.3132A7.67666,7.67666,0,0,0,13.08691,21.11147Z"/><path class="b" d="M12.04991,25.62558H10.74539c-.01889,1.06075-.0493,1.99226-.05557,2.81423h1.4945C12.1394,27.61674,12.08,26.68412,12.04991,25.62558Z"/><path class="b" d="M12.21983,30.45472c.013-.23564.018-.48822.01317-.76928H10.71246a7.72793,7.72793,0,0,0,.09466.87409l.66681.27922Z"/><path class="f" d="M11.58994,31.99212c.423-.20721.586-.74208.62989-1.5374l-.7459.384-.66681-.27922A1.84707,1.84707,0,0,0,11.58994,31.99212Z"/><path class="e" d="M10.68982,28.43981c-.00351.45246.00227.87095.02264,1.24563H12.233c-.00652-.37517-.02387-.79175-.04868-1.24563Z"/><path class="e" d="M12.0725,24.33386H10.7593c-.00019.45012-.00646.87606-.01391,1.29172h1.30452c-.01107-.389-.02172-.7811-.02172-1.19947C12.04548,24.39355,12.0557,24.3661,12.0725,24.33386Z"/><path class="g" d="M15.69442,19.57241c-1.92365.035-3.81184-3.23291-3.81184-3.23291s.40267,4.5282,3.81184,4.5282c.12253,0,.23565-.018.35227-.02923V19.5321A2.02859,2.02859,0,0,1,15.69442,19.57241Z"/><path class="g" d="M15.78513,16.98527c-1.428.02326-2.82986-2.15474-2.82986-2.15474s.299,3.018,2.82986,3.018c.091,0,.175-.012.26156-.01951v-.89058A1.79684,1.79684,0,0,1,15.78513,16.98527Z"/><polygon class="g" points="14.519 15.812 13.283 15.812 13.283 13.446 14.519 15.812"/><polygon class="h" points="12.184 4.885 12.184 3.719 12.764 4.044 13.087 0 14.519 5.886 13.517 5.279 13.517 6.125 12.184 4.885"/><path class="a" d="M12.933,4.99076a6.90641,6.90641,0,0,1-.1176,1.96c-.196.1568-1.49938-.98979-1.49938-.98979s-.2632-1.78358-.0084-1.90118C11.66041,3.903,12.933,4.99076,12.933,4.99076Z"/><path class="i" d="M12.43767,5.28671a2.93111,2.93111,0,0,1-.0499.83176c-.08318.06654-.6363-.42-.6363-.42s-.11169-.7569-.00357-.80681C11.89762,4.82508,12.43767,5.28671,12.43767,5.28671Z"/><path class="j" d="M13.19842,8.61834A1.77287,1.77287,0,0,1,13.28255,8.27a1.46306,1.46306,0,0,0-.5257-.21768c-.596,1.19984.10333,2.32823,1.22372,2.066a1.64131,1.64131,0,0,0,.02566-.65894.46121.46121,0,0,1-.40212.22937C13.30815,9.65029,13.12654,9.171,13.19842,8.61834Z"/><path class="k" d="M13.28255,8.27a1.77287,1.77287,0,0,0-.08413.34833c-.07188.55265.10973,1.032.40569,1.07041a.46121.46121,0,0,0,.40212-.22937A1.67773,1.67773,0,0,0,13.28255,8.27Z"/><path class="l" d="M20.9637,13.15417c2.51427,0,2.16827,2.99325,2.16827,4.71744,0,5.08608-2.28662,5.62477-7.17866,5.62477l.08442-15.2185C18.88624,8.27788,20.45621,10.54758,20.9637,13.15417Z"/><path class="a" d="M18.89458,11.78874s-.66976,2.71891-2.94125,2.71891c0-.67323.02946-.43533.02946-1.8557V4.14C23.338,4.14,21.06008,11.78874,18.89458,11.78874Z"/><polygon class="e" points="16.792 11.827 15.953 11.827 15.983 8.144 16.792 11.827"/><path class="d" d="M17.06342,11.752c.73661.82406.904,1.116.77285,2.011a2.15874,2.15874,0,0,1-1.883,1.09356V11.59756A4.173,4.173,0,0,1,17.06342,11.752Z"/><path class="g" d="M18.91309,21.11935a2.59965,2.59965,0,0,1,1.497-2.59052,3.234,3.234,0,0,1,1.77274,2.445,11.19618,11.19618,0,0,0-1.57537-1.11479A5.33105,5.33105,0,0,0,18.91309,21.11935Z"/><path class="a" d="M18.91309,21.11935a5.33105,5.33105,0,0,1,1.69434-1.26028,11.19618,11.19618,0,0,1,1.57537,1.11479,6.03122,6.03122,0,0,1-.94234,3.34479l.00024.02308H19.9275A7.67662,7.67662,0,0,1,18.91309,21.11935Z"/><path class="a" d="M19.95009,25.63345h1.30452c.01889,1.06076.0493,1.99227.05557,2.81424h-1.4945C19.8606,27.62461,19.92,26.692,19.95009,25.63345Z"/><path class="a" d="M19.78017,30.4626c-.013-.23565-.018-.48822-.01317-.76929h1.52054a7.72786,7.72786,0,0,1-.09466.8741l-.66681.27922Z"/><path class="m" d="M20.41006,32c-.423-.20721-.586-.74208-.62989-1.5374l.7459.384.66681-.27922A1.8471,1.8471,0,0,1,20.41006,32Z"/><path class="g" d="M21.31018,28.44769c.00351.45246-.00227.87095-.02264,1.24562H19.767c.00652-.37516.02387-.79175.04868-1.24562Z"/><path class="g" d="M19.9275,24.34173h1.3132c.00019.45013.00646.87606.01391,1.29172H19.95009c.01107-.389.02172-.7811.02172-1.19947C19.95452,24.40143,19.9443,24.374,19.9275,24.34173Z"/><path class="n" d="M16.30558,19.58028c1.92365.035,3.81184-3.2329,3.81184-3.2329s-.40267,4.5282-3.81184,4.5282c-.12253,0-.23565-.018-.35227-.02924V19.54A2.02859,2.02859,0,0,0,16.30558,19.58028Z"/><path class="n" d="M16.21487,16.99315c1.428.02326,2.82986-2.15474,2.82986-2.15474s-.299,3.018-2.82986,3.018c-.091,0-.175-.012-.26156-.01951v-.89059A1.79823,1.79823,0,0,0,16.21487,16.99315Z"/><polygon class="n" points="17.481 15.82 18.717 15.82 18.717 13.454 17.481 15.82"/><polygon class="c" points="19.816 4.893 19.816 3.727 19.236 4.052 18.913 0.008 17.481 5.894 18.483 5.287 18.483 6.133 19.816 4.893"/><path class="l" d="M19.067,4.99864a6.90633,6.90633,0,0,0,.1176,1.96c.196.1568,1.49938-.98978,1.49938-.98978s.2632-1.78358.0084-1.90118C20.33959,3.91085,19.067,4.99864,19.067,4.99864Z"/><path class="o" d="M19.56233,5.29458a2.9312,2.9312,0,0,0,.0499.83177c.08318.06654.6363-.42.6363-.42s.11169-.75691.00357-.80681C20.10238,4.833,19.56233,5.29458,19.56233,5.29458Z"/><path class="p" d="M18.80158,8.62621a1.77287,1.77287,0,0,0-.08413-.34833,1.46306,1.46306,0,0,1,.5257-.21768c.596,1.19984-.10333,2.32823-1.22372,2.066a1.64133,1.64133,0,0,1-.02566-.65894.46123.46123,0,0,0,.40212.22937C18.69185,9.65816,18.87346,9.17887,18.80158,8.62621Z"/><path class="q" d="M18.71745,8.27788a1.77287,1.77287,0,0,1,.08413.34833c.07188.55266-.10973,1.032-.40569,1.07042a.46123.46123,0,0,1-.40212-.22937A1.67776,1.67776,0,0,1,18.71745,8.27788Z"/></svg>