<svg xmlns="http://www.w3.org/2000/svg" viewBox="0 0 32 32"><defs><style>.a{fill:#5c6664;}.b{fill:#687271;}.c{fill:#6e57a0;}.d{fill:#ef8c48;}.e{fill:#373f3f;}.f{fill:#434c4b;}.g{fill:#505957;}.h{fill:#604893;}.i{fill:#e8803a;}.j{fill:#2b3332;}</style></defs><title>524-roggenrola-shiny</title><polygon class="a" points="14.995 3.573 14.515 0 13.196 1.871 13.196 3.909 14.515 7.147 16.059 7.147 16.059 4.85 14.995 3.573"/><polygon class="b" points="14.515 0 14.995 3.573 16.059 4.85 16.059 0 14.515 0"/><polygon class="c" points="10.019 7.806 5.222 11.763 3.543 18.958 5.642 24.714 10.378 28.311 16.059 30.11 16.059 6.008 10.019 7.806"/><polygon class="d" points="12.297 13.083 10.078 19.198 12.357 25.074 16.059 25.074 16.059 13.083 12.297 13.083"/><polygon class="e" points="14.275 16.56 13.196 19.078 14.215 21.656 16.059 21.656 16.059 16.56 14.275 16.56"/><polygon class="f" points="7.261 29.81 5.942 28.551 5.282 30.41 6.301 31.489 9.719 32 9.419 29.81 7.261 29.81"/><polygon class="e" points="13.556 28.611 11.053 27.33 10.378 28.311 9.419 29.81 9.719 32 13.196 30.949 13.556 28.611"/><polygon class="g" points="11.053 27.33 8.52 26.033 5.942 28.551 7.261 29.81 9.419 29.81 10.378 28.311 11.053 27.33"/><polygon class="g" points="17.122 3.573 17.602 0 18.921 1.871 18.921 3.909 17.602 7.147 16.059 7.147 16.059 4.85 17.122 3.573"/><polygon class="a" points="17.602 0 17.122 3.573 16.059 4.85 16.059 0 17.602 0"/><polygon class="h" points="22.099 7.806 26.895 11.763 28.574 18.958 26.475 24.714 21.739 28.311 16.059 30.11 16.059 6.008 22.099 7.806"/><polygon class="i" points="19.82 13.083 22.039 19.198 19.76 25.074 16.059 25.074 16.059 13.083 19.82 13.083"/><polygon class="j" points="17.842 16.56 18.921 19.078 17.902 21.656 16.059 21.656 16.059 16.56 17.842 16.56"/><polygon class="e" points="24.857 29.81 26.176 28.551 26.835 30.41 25.816 31.489 22.398 32 22.698 29.81 24.857 29.81"/><polygon class="j" points="18.561 28.611 21.064 27.33 21.739 28.311 22.698 29.81 22.398 32 18.921 30.949 18.561 28.611"/><polygon class="f" points="21.064 27.33 23.598 26.033 26.176 28.551 24.857 29.81 22.698 29.81 21.739 28.311 21.064 27.33"/></svg>