<svg xmlns="http://www.w3.org/2000/svg" viewBox="0 0 32 32"><title>524-roggenrola</title><polygon points="14.936 3.573 14.457 0 13.138 1.871 13.138 3.909 14.457 7.147 16 7.147 16 4.85 14.936 3.573" style="fill:#9e6e43"/><polygon points="14.457 0 14.936 3.573 16 4.85 16 0 14.457 0" style="fill:#b38658"/><polygon points="9.96 7.806 5.164 11.763 3.485 18.958 5.583 24.714 10.32 28.311 16 30.11 16 6.008 9.96 7.806" style="fill:#3e688c"/><polygon points="12.238 13.083 10.02 19.198 12.298 25.074 16 25.074 16 13.083 12.238 13.083" style="fill:#f7c845"/><polygon points="14.217 16.56 13.138 19.078 14.157 21.656 16 21.656 16 16.56 14.217 16.56" style="fill:#373f3f"/><polygon points="7.202 29.81 5.883 28.551 5.223 30.41 6.243 31.489 9.66 32 9.36 29.81 7.202 29.81" style="fill:#8d5b36"/><polygon points="13.497 28.611 10.994 27.33 10.32 28.311 9.36 29.81 9.66 32 13.138 30.949 13.497 28.611" style="fill:#724d31"/><polygon points="10.994 27.33 8.461 26.033 5.883 28.551 7.202 29.81 9.36 29.81 10.32 28.311 10.994 27.33" style="fill:#96643b"/><polygon points="17.064 3.573 17.543 0 18.862 1.871 18.862 3.909 17.543 7.147 16 7.147 16 4.85 17.064 3.573" style="fill:#96643b"/><polygon points="17.543 0 17.064 3.573 16 4.85 16 0 17.543 0" style="fill:#a7794c"/><polygon points="22.04 7.806 26.836 11.763 28.515 18.958 26.417 24.714 21.68 28.311 16 30.11 16 6.008 22.04 7.806" style="fill:#365c84"/><polygon points="19.762 13.083 21.98 19.198 19.702 25.074 16 25.074 16 13.083 19.762 13.083" style="fill:#f0c13e"/><polygon points="17.783 16.56 18.862 19.078 17.843 21.656 16 21.656 16 16.56 17.783 16.56" style="fill:#2b3332"/><polygon points="24.798 29.81 26.117 28.551 26.777 30.41 25.757 31.489 22.34 32 22.64 29.81 24.798 29.81" style="fill:#724d31"/><polygon points="18.503 28.611 21.006 27.33 21.68 28.311 22.64 29.81 22.34 32 18.862 30.949 18.503 28.611" style="fill:#604631"/><polygon points="21.006 27.33 23.539 26.033 26.117 28.551 24.798 29.81 22.64 29.81 21.68 28.311 21.006 27.33" style="fill:#8d5b36"/></svg>