<svg xmlns="http://www.w3.org/2000/svg" viewBox="0 0 32 32"><title>525-boldore</title><polygon points="12.85 6.937 10.864 5.199 8.567 5.199 8.07 6.937 9.25 9.668 12.85 6.937" style="fill:#d68370"/><polygon points="7.511 12.151 5.525 10.91 2.918 10.537 2.483 11.53 2.918 13.517 5.525 15.597 7.511 12.151" style="fill:#d68370"/><polygon points="14.104 5.509 8.132 9.668 4.656 15.486 2.918 17.862 8.443 24.318 13.595 25.994 16 24.877 16 5.199 14.104 5.509" style="fill:#263460"/><polygon points="13.533 12.648 12.85 13.144 10.46 17.738 12.54 20.345 14.961 19.166 13.533 12.648" style="fill:#e8ba36"/><polygon points="14.464 13.579 12.291 17.094 13.378 18.731 15.395 18.731 14.464 13.579" style="fill:#373f3f"/><polygon points="2.918 24.38 3.228 26.615 4.283 29.471 6.146 29.098 6.891 26.615 6.146 24.132 2.918 24.38" style="fill:#d68370"/><polygon points="1.428 17.552 5.96 17.552 8.567 22.704 6.891 26.615 4.097 25.25 3.228 26.615 1.428 25.125 0 21.277 1.428 17.552" style="fill:#313d68"/><polygon points="14.278 4.454 12.85 13.144 14.712 19.973 16 21.525 16 2.529 14.278 4.454" style="fill:#3a4274"/><polygon points="10.46 22.084 9.684 24.691 10.864 27.134 11.484 27.134 12.291 25.001 12.291 23.201 10.46 22.084" style="fill:#d68370"/><polygon points="14.961 23.573 15.706 26.801 16 26.643 16 22.917 14.961 23.573" style="fill:#d68370"/><polygon points="19.15 6.937 21.136 5.199 23.433 5.199 23.93 6.937 22.75 9.668 19.15 6.937" style="fill:#d17b6d"/><polygon points="24.489 12.151 26.475 10.91 29.082 10.537 29.517 11.53 29.082 13.517 26.475 15.597 24.489 12.151" style="fill:#d17b6d"/><polygon points="17.896 5.509 23.868 9.668 27.344 15.486 29.082 17.862 23.557 24.318 18.405 25.994 16 24.877 16 5.199 17.896 5.509" style="fill:#182a51"/><polygon points="18.467 12.648 19.15 13.144 21.54 17.738 19.46 20.345 17.039 19.166 18.467 12.648" style="fill:#e0b12e"/><polygon points="17.536 13.579 19.709 17.094 18.622 18.731 16.605 18.731 17.536 13.579" style="fill:#2b3332"/><polygon points="29.082 24.38 28.772 26.615 27.717 29.471 25.854 29.098 25.109 26.615 25.854 24.132 29.082 24.38" style="fill:#d17b6d"/><polygon points="30.572 17.552 26.04 17.552 23.433 22.704 25.109 26.615 27.903 25.25 28.772 26.615 30.572 25.125 32 21.277 30.572 17.552" style="fill:#263460"/><polygon points="17.722 4.454 19.15 13.144 17.288 19.973 16 21.525 16 2.529 17.722 4.454" style="fill:#313d68"/><polygon points="21.54 22.084 22.316 24.691 21.136 27.134 20.516 27.134 19.709 25.001 19.709 23.201 21.54 22.084" style="fill:#d17b6d"/><polygon points="17.039 23.573 16.294 26.801 16 26.643 16 22.917 17.039 23.573" style="fill:#d17b6d"/></svg>