<?xml version="1.0" encoding="utf-8"?>
<!-- Generator: Adobe Illustrator 23.0.6, SVG Export Plug-In . SVG Version: 6.00 Build 0)  -->
<svg version="1.1" xmlns="http://www.w3.org/2000/svg" xmlns:xlink="http://www.w3.org/1999/xlink" x="0px" y="0px" width="32px"
	 height="32px" viewBox="0 0 32 32" enable-background="new 0 0 32 32" xml:space="preserve">
<g id="labels">
	<g>
	</g>
</g>
<g id="icons">
	<g>
		<path fill="#5A5353" d="M10,12C5.147,12,4.062,9.645,4.917,0.364C4.941,0.105,4.61-0.021,4.459,0.191
			c-5.678,7.937-5.37,30.317-1.821,31.738c0.172,0.069,0.359-0.066,0.345-0.251C2.862,30.097,2.157,25,4,25
			c0.908,0,1.816,0.825,2.725,2.474c0.106,0.193,0.392,0.174,0.46-0.036C8.013,24.874,8.196,24,11,24C13.599,24,10,12,10,12z"/>
		<path fill="#4F4949" d="M11,24c2.599,0-1-12-1-12c-3.553,0-5.081-1.276-5.311-5.596c-1.643,5.951-2.015,13.62-1.422,19.009
			C3.449,25.157,3.685,25,4,25c0.908,0,1.816,0.825,2.725,2.474c0.106,0.193,0.392,0.174,0.46-0.036C8.013,24.874,8.196,24,11,24z"
			/>
		<g>
			<path fill="#413B3B" d="M22.065,12c4.853,0,5.938-2.355,5.083-11.636c-0.024-0.259,0.307-0.384,0.458-0.173
				c5.678,7.937,5.37,30.317,1.821,31.738c-0.172,0.069-0.359-0.066-0.345-0.251C29.203,30.097,29.908,25,28.065,25
				c-0.908,0-1.816,0.825-2.725,2.474c-0.106,0.193-0.392,0.174-0.46-0.036C24.052,24.874,23.869,24,21.065,24
				C18.466,24,22.065,12,22.065,12z"/>
			<path fill="#3A3333" d="M21.065,24c-2.599,0,1-12,1-12c3.553,0,5.081-1.276,5.311-5.596c1.643,5.951,2.015,13.62,1.422,19.009
				C28.616,25.157,28.38,25,28.065,25c-0.908,0-1.816,0.825-2.725,2.474c-0.106,0.193-0.392,0.174-0.46-0.036
				C24.052,24.874,23.869,24,21.065,24z"/>
		</g>
		<path fill="#E2959E" d="M17.5,32c-0.276,0-0.5-0.224-0.5-0.5c0-0.437-0.509-1.19-1-1.763c-0.491,0.572-1,1.326-1,1.763
			c0,0.276-0.224,0.5-0.5,0.5S14,31.776,14,31.5c0-1.173,1.478-2.685,1.646-2.854L16,28.293l0.354,0.354
			C16.522,28.815,18,30.327,18,31.5C18,31.776,17.776,32,17.5,32z"/>
		<path fill="#E59FA8" d="M16,29.737c-0.491,0.572-1,1.326-1,1.763c0,0.276-0.224,0.5-0.5,0.5S14,31.776,14,31.5
			c0-1.173,1.478-2.685,1.646-2.854L16,28.293V29.737z"/>
		<path fill="#E59FA8" d="M18,28c0,0.828-1,2-2,2s-2-1.172-2-2s1.448-1,2-1C16.552,27,18,27.172,18,28z"/>
		<path fill="#E8AAB1" d="M16,30c-1,0-2-1.172-2-2s1.448-1,2-1V30z"/>
		<path fill="#5A5353" d="M12,31c0,0.828-0.672,1-1.5,1S9,31.828,9,31s0.672-2,1.5-2S12,30.172,12,31z"/>
		<path fill="#5A5353" d="M11,30.5h-1c0-0.769,0.361-2.239,2.776-3.447l0.447,0.895C11.79,28.664,11,29.571,11,30.5z"/>
		<path fill="#3A3333" d="M20,31c0,0.828,0.672,1,1.5,1s1.5-0.172,1.5-1s-0.672-2-1.5-2S20,30.172,20,31z"/>
		<path fill="#3A3333" d="M21,30.5h1c0-0.769-0.361-2.239-2.776-3.447l-0.447,0.895C20.21,28.664,21,29.571,21,30.5z"/>
		<path fill="#51BAC5" d="M21,25c0-2.761-2.239-6-5-6s-5,3.239-5,6s2.239,4,5,4S21,27.761,21,25z"/>
		<path fill="#56C7CD" d="M16,19c-2.761,0-5,3.239-5,6s2.239,4,5,4V19z"/>
		<path fill="#C1DDEE" d="M24.912,21.322c0.049-0.049,0.049-0.128,0-0.177l-0.884-0.884c-0.005-0.023-0.01-0.041-0.015-0.064
			l0.909-2.726c0.033-0.098-0.06-0.191-0.158-0.158L22,18.234h-6h-6l-2.763-0.921c-0.098-0.033-0.191,0.06-0.158,0.158l0.909,2.726
			c-0.005,0.023-0.01,0.041-0.015,0.064l-0.884,0.884c-0.049,0.049-0.049,0.128,0,0.177l0.88,0.88
			c0.019,0.019,0.024,0.048,0.012,0.072l-0.812,1.624c-0.054,0.107,0.06,0.221,0.168,0.168l1.609-0.804
			c0.031-0.015,0.068-0.003,0.084,0.028l0.916,1.832c0.031,0.062,0.106,0.087,0.168,0.056l1.848-0.924
			c0.024-0.012,0.053-0.007,0.072,0.012l0.885,0.885c0.047,0.047,0.122,0.049,0.171,0.005l0.994-0.884
			c0.032,0,0.052,0.001,0.084,0.001l1.492,1.393c0.192,0.179,0.49,0.179,0.682,0l1.492-1.393c0.032,0,0.052-0.001,0.084-0.001
			l0.994,0.884c0.049,0.044,0.125,0.042,0.171-0.005l0.885-0.885c0.019-0.019,0.048-0.024,0.072-0.012l1.848,0.924
			c0.062,0.031,0.137,0.006,0.168-0.056l0.916-1.832c0.015-0.031,0.053-0.043,0.084-0.028l1.609,0.804
			c0.107,0.054,0.221-0.06,0.168-0.168l-0.812-1.624c-0.012-0.024-0.007-0.053,0.012-0.072L24.912,21.322z"/>
		<g>
			<path fill="#D2E6F3" d="M10,18.234l-2.763-0.921c-0.098-0.033-0.191,0.06-0.158,0.158l0.909,2.726
				c-0.005,0.023-0.01,0.041-0.015,0.064l-0.884,0.884c-0.049,0.049-0.049,0.128,0,0.177l0.88,0.88
				c0.019,0.019,0.024,0.048,0.012,0.072l-0.812,1.624c-0.054,0.107,0.06,0.221,0.168,0.168l1.609-0.804
				c0.031-0.015,0.068-0.003,0.084,0.028l0.916,1.832c0.031,0.062,0.106,0.087,0.168,0.056l1.848-0.924
				c0.024-0.012,0.053-0.007,0.072,0.012l0.885,0.885c0.047,0.047,0.122,0.049,0.171,0.005l0.994-0.884
				c0.032,0,0.052,0.001,0.084,0.001l1.492,1.393C15.755,25.755,15.877,25.8,16,25.8v-7.566H10z"/>
		</g>
		<path fill="#51BAC5" d="M21,8.667C21,5,18.761,0,16,0s-5,5-5,8.667C11,11.428,13.239,12,16,12S21,11.428,21,8.667z"/>
		<path fill="#56C7CD" d="M16,0c-2.761,0-5,5-5,8.667C11,11.428,13.239,12,16,12V0z"/>
		<path fill="#B0D3EA" d="M16,6c1.174,0,2.277,0.293,3.248,0.805c0.189,0.1,0.412-0.052,0.37-0.261C19.063,3.809,17.89,1,16,1
			s-3.063,2.809-3.617,5.544c-0.042,0.209,0.181,0.361,0.37,0.261C13.723,6.293,14.826,6,16,6z"/>
		<path fill="#C1DDEE" d="M16,1c-1.89,0-3.063,2.809-3.617,5.544c-0.042,0.209,0.181,0.361,0.37,0.261C13.723,6.293,14.826,6,16,6V1
			z"/>
		<path fill="#C1DDEE" d="M12.938,4.461C13.899,4.118,14.921,3.907,16,3.907s2.101,0.211,3.062,0.554C18.409,2.547,17.402,1,16,1
			S13.591,2.547,12.938,4.461z"/>
		<path fill="#D2E6F3" d="M16,1c-1.402,0-2.409,1.547-3.062,3.461C13.899,4.118,14.921,3.907,16,3.907V1z"/>
		<path fill="#D2E6F3" d="M16,2.646c0.845,0,1.658,0.125,2.435,0.338C17.819,1.812,17.014,1,16,1s-1.819,0.812-2.435,1.984
			C14.342,2.771,15.155,2.646,16,2.646z"/>
		<path fill="#E2EFF7" d="M16,1c-1.014,0-1.819,0.812-2.435,1.984c0.777-0.213,1.59-0.338,2.435-0.338V1z"/>
		<circle fill="#51BAC5" cx="16" cy="13" r="8"/>
		<path fill="#56C7CD" d="M16,5c-4.418,0-8,3.582-8,8s3.582,8,8,8V5z"/>
		<path fill="#E59FA8" d="M16,20c3.075,0,4.968-2.363,5.679-4.365c0.173-0.488-0.439-0.873-0.82-0.521C19.5,16.371,18.379,17,16,17
			s-3.5-0.629-4.859-1.886c-0.38-0.352-0.993,0.033-0.82,0.521C11.032,17.637,12.925,20,16,20z"/>
		<path fill="#E8AAB1" d="M16,17c-2.379,0-3.5-0.629-4.859-1.886c-0.38-0.352-0.993,0.033-0.82,0.521C11.032,17.637,12.925,20,16,20
			V17z"/>
		<path fill="#E2959E" d="M19.29,18.897C18.412,18.347,17.272,18,16,18s-2.412,0.347-3.29,0.897C13.594,19.552,14.681,20,16,20
			S18.406,19.552,19.29,18.897z"/>
		<path fill="#E59FA8" d="M16,18c-1.272,0-2.412,0.347-3.29,0.897C13.594,19.552,14.681,20,16,20V18z"/>
		<ellipse fill="#E59FA8" cx="16" cy="13.5" rx="3" ry="2.5"/>
		<path fill="#2B3332" d="M15.865,12.358c0.064,0.112,0.207,0.112,0.271,0C16.34,12,16.732,12,17.004,12C18.801,12,18,15,16,15
			s-2.801-3-1.004-3C15.268,12,15.66,12,15.865,12.358z"/>
		<ellipse fill="#EDEEEE" cx="19.5" cy="10" rx="1.5" ry="2"/>
		<ellipse fill="#FFFFFF" cx="12.5" cy="10" rx="1.5" ry="2"/>
		<ellipse fill="#373F3F" cx="12.5" cy="10" rx="0.5" ry="1"/>
		<ellipse fill="#2B3332" cx="19.5" cy="10" rx="0.5" ry="1"/>
		<path fill="#F5F5F6" d="M19.764,18.528l-0.462-0.924c-0.104-0.208-0.41-0.174-0.466,0.051l-0.447,1.786
			C18.899,19.195,19.363,18.891,19.764,18.528z"/>
		<path fill="#F5F5F6" d="M12.698,17.604l-0.462,0.924c0.401,0.363,0.866,0.667,1.375,0.913l-0.447-1.786
			C13.108,17.43,12.802,17.397,12.698,17.604z"/>
		<g>
			<path fill="#373F3F" d="M15.865,12.358C15.66,12,15.268,12,14.996,12C13.199,12,14,15,16,15v-2.558
				C15.948,12.442,15.896,12.414,15.865,12.358z"/>
		</g>
	</g>
</g>
</svg>
