<svg xmlns="http://www.w3.org/2000/svg" viewBox="0 0 32 32"><title>529-drilbur-shiny</title><path d="M20.56543,25.41487c-.74952.28437-1.016,1.41409-.59515,2.52332s1.36955,1.778,2.11907,1.49369,1.0159-1.41409.59509-2.52332S21.31489,25.13057,20.56543,25.41487Z" style="fill:#413b3b"/><path d="M16,24.70667h4.53687l3.05194-2.44581a11.18293,11.18293,0,0,0-.48084-2.12573L16,23.12213Z" style="fill:#4f4949"/><path d="M21.04706,15.69592C20.291,10.03461,19.96326,7.78448,16,7.78448V19.71484l5.75537-2.741C21.5376,16.55859,21.306,16.13513,21.04706,15.69592Z" style="fill:#4f4949"/><path d="M23.108,20.13513a19.86872,19.86872,0,0,0-1.3526-3.16125L16,19.71484v3.40729Z" style="fill:#dd7c8a"/><path d="M16,24.70667v2.46856c1.133,0,4.66412-.04657,5.68323-.53448,1.42474-.68207,2.15381-2.164,1.90558-4.37989l-3.05194,2.44581Z" style="fill:#dd7c8a"/><path d="M19.18086,14.372c0-2.347-1.42408-4.24968-3.18086-4.24968v8.49929C17.43355,18.16287,18.59828,16.54807,19.18086,14.372Z" style="fill:#e3e5e5"/><path d="M17.62859,12.09775c0-.64652-.72915-1.17059-1.62859-1.17059v2.34118C16.89944,13.26834,17.62859,12.74421,17.62859,12.09775Z" style="fill:#b0d3ea"/><path d="M18.12062,15.26592a5.10342,5.10342,0,0,1-2.12062.43v1.91089C16.89944,17.60683,18.12062,15.91238,18.12062,15.26592Z" style="fill:#e08c96"/><path d="M24.173,7.45962c2.51887,1.27429,4.42744,4.09074,4.0484,9.49257C31.01906,12.86048,32.146,6.40659,31.985,2.5027,28.59815,2.612,25.99318,4.843,24.173,7.45962Z" style="fill:#dadddc"/><path d="M24.173,7.45962c-2.27492,3.27038-3.32279,7.14372-3.12588,8.23632l.9091,5.04535c2.64874.02655,4.71309-1.51915,6.26518-3.7891C28.60041,11.55036,26.69184,8.73391,24.173,7.45962Z" style="fill:#5a5353"/><ellipse cx="25.54265" cy="13.63759" rx="1.66919" ry="2.53176" style="fill:#de8490"/><path d="M18.83791,9.903c-.59412,0-1.07578.72277-1.07578,1.61441s.48166,1.61434,1.07578,1.61434,1.07578-.72277,1.07578-1.61434S19.432,9.903,18.83791,9.903Z" style="fill:#f7f7f7"/><path d="M18.63669,10.60155a.40551.40551,0,1,0,.40554.40553A.40554.40554,0,0,0,18.63669,10.60155Z" style="fill:#2b3332"/><path d="M11.43457,25.41487c.74952.28437,1.016,1.41409.59515,2.52332s-1.36955,1.778-2.11907,1.49369-1.0159-1.41409-.59509-2.52332S10.68511,25.13057,11.43457,25.41487Z" style="fill:#4f4949"/><polygon points="16 24.707 16 23.122 12.229 24.707 16 24.707" style="fill:#544c4a"/><path d="M16,7.78448c-3.96326,0-4.291,2.25013-5.04706,7.91144-1.88867,3.20392-2.6579,5.76813-2.57715,7.64984L16,19.71484Z" style="fill:#5a5353"/><path d="M10.31677,26.64075c1.01911.48791,4.55023.53448,5.68323.53448V24.70667H12.22925L16,23.12213V19.71484L8.37579,23.34576A3.54071,3.54071,0,0,0,10.31677,26.64075Z" style="fill:#de8490"/><path d="M12.81914,14.372c0-2.347,1.42408-4.24968,3.18086-4.24968v8.49929C14.56645,18.16287,13.40172,16.54807,12.81914,14.372Z" style="fill:#edeeee"/><path d="M14.37141,12.09775c0-.64652.72915-1.17059,1.62859-1.17059v2.34118C15.10056,13.26834,14.37141,12.74421,14.37141,12.09775Z" style="fill:#c1ddee"/><path d="M13.87938,15.26592a5.10342,5.10342,0,0,0,2.12062.43v1.91089C15.10056,17.60683,13.87938,15.91238,13.87938,15.26592Z" style="fill:#e2959e"/><path d="M7.827,7.45962c-2.51887,1.27429-4.42744,4.09074-4.0484,9.49257C.98094,12.86048-.14595,6.40659.015,2.5027,3.40185,2.612,6.00682,4.843,7.827,7.45962Z" style="fill:#e3e5e5"/><path d="M7.827,7.45962c2.27492,3.27038,3.32279,7.14372,3.12588,8.23632l-.9091,5.04535c-2.64874.02655-4.71309-1.51915-6.26518-3.7891C3.39959,11.55036,5.30816,8.73391,7.827,7.45962Z" style="fill:#635c5c"/><ellipse cx="6.45735" cy="13.63759" rx="1.66919" ry="2.53176" style="fill:#e08c96"/><path d="M13.16209,9.903c.59412,0,1.07578.72277,1.07578,1.61441s-.48166,1.61434-1.07578,1.61434-1.07578-.72277-1.07578-1.61434S12.568,9.903,13.16209,9.903Z" style="fill:#fff"/><path d="M13.36331,10.60155a.40551.40551,0,1,1-.40554.40553A.40554.40554,0,0,1,13.36331,10.60155Z" style="fill:#373f3f"/></svg>