<svg xmlns="http://www.w3.org/2000/svg" viewBox="0 0 32 32"><title>531-audino</title><path d="M11.90313,10.79845,4.58036,17.479H4.51272a7.81414,7.81414,0,0,0,.75244,2.16279l4.9308-1.79906Z" style="fill:#e59fa8"/><path d="M3.27753,17.479l.49419.72314-.76375.53907.98837.31452L3.5471,20.26861l1.71806-.62686A7.81414,7.81414,0,0,1,4.51272,17.479Z" style="fill:#fef1c6"/><path d="M9.47715,21.97579c2.2013-.045,3.23462-1.52744,3.18967-6.91842.56-.63954,1.97669-3.05489-.08983-1.9318-.50179.27514-.84085-1.49721-1.29343-2.32712C11.5535,13.366,7.27585,21.70783,7.27585,23.72786a3.37574,3.37574,0,0,0,.0311.43161C8.30589,23.91056,9.848,23.30452,9.47715,21.97579Z" style="fill:#e59fa8"/><path d="M13.07118,1.84944A6.33727,6.33727,0,0,0,9.863,7.45192c1.80283-2.1425,4.53189-.01026,4.64577.59713A5.85832,5.85832,0,0,1,16,7.15058V1.24025A7.27443,7.27443,0,0,0,13.07118,1.84944Z" style="fill:#e8aab1"/><path d="M14.50872,8.04905c-.11388-.60739-2.84294-2.73963-4.64577-.59713a3.45208,3.45208,0,0,0,1.27643,2.84338,1.15387,1.15387,0,0,1,.14418.50315c.45258.82991.79164,2.60226,1.29343,2.32712,2.06652-1.12309.64987,1.29226.08983,1.9318.045,5.391-.98837,6.87347-3.18967,6.91842.37084,1.32873-1.17126,1.93477-2.1702,2.18368.14591,1.14876.85482,1.889,1.49634,3.25225.04489,2.06652.40429,3.89865,1.07821,4.26782s3.21212.42679,3.3244,0-.31446-.56152-.49413-1.28032a4.27865,4.27865,0,0,1,.20212-1.86441c0,.27668,1.52163.4174,3.08611.42469V7.15058A5.85832,5.85832,0,0,0,14.50872,8.04905Z" style="fill:#ffeaa7"/><ellipse cx="12.86899" cy="6.36439" rx="1.14558" ry="1.63976" style="fill:#3a89a8"/><ellipse cx="13.09003" cy="5.58804" rx="0.57289" ry="0.77635" style="fill:#f7f7f7"/><path d="M9.65688,4.05074c-.79708,1.01452-2.26319.76913-3.619.65135C5.0547,6.41681,3.21972,7.053,2.64856,7.7346,3.008,8.99248,5.973,7.42014,5.973,7.42014c.37721,1.704,1.60368,1.14412,2.83027.584-.11265,1.13731-.91207,2.27537-1.52744,2.26869-.40435-1.23544-2.5518-1.23519-2.96506.52559-.161,2.6268,2.381,2.77636,3.45924,1.51848A21.6297,21.6297,0,0,0,10.86666,5.8556C10.05684,5.43264,9.0511,5.50176,9.65688,4.05074Z" style="fill:#fef1c6"/><path d="M14.23922,1.89438C8.60112-3.2295,7.186,3.56923,6.19764,4.43265c-.047.09756-.10746.17824-.15976.26944,1.35581.11778,2.82192.36317,3.619-.65135-.60578,1.451.4,1.3819,1.20978,1.80486.03085-.09.06232-.17682.093-.26759C10.95971,5.588,14.46384,2.55705,14.23922,1.89438Z" style="fill:#e8aab1"/><path d="M20.09687,10.82l7.32277,6.68051h.06764a7.81419,7.81419,0,0,1-.75244,2.16278l-4.9308-1.799Z" style="fill:#e2959e"/><path d="M28.72247,17.50053l-.49419.72313.76375.53907-.98837.31452.44924,1.21293-1.71806-.62687a7.81419,7.81419,0,0,0,.75244-2.16278Z" style="fill:#ffeaa7"/><path d="M22.52285,21.99736c-2.2013-.045-3.23462-1.52745-3.18967-6.91843-.56-.63954-1.97669-3.05489.08983-1.93179.50179.27513.84085-1.49721,1.29343-2.32712-.26994,2.56756,4.00771,10.90938,4.00771,12.9294a3.37577,3.37577,0,0,1-.0311.43162C23.69411,23.93212,22.152,23.32609,22.52285,21.99736Z" style="fill:#e2959e"/><path d="M18.92882,1.871a6.33729,6.33729,0,0,1,3.20823,5.60249c-1.80283-2.14251-4.53189-.01027-4.64577.59713A5.85847,5.85847,0,0,0,16,7.17214V1.26181A7.27443,7.27443,0,0,1,18.92882,1.871Z" style="fill:#e59fa8"/><path d="M17.49128,8.07062c.11388-.6074,2.84294-2.73964,4.64577-.59713a3.45211,3.45211,0,0,1-1.27643,2.84338,1.15379,1.15379,0,0,0-.14418.50315c-.45258.82991-.79164,2.60225-1.29343,2.32712-2.06652-1.1231-.64987,1.29225-.08983,1.93179-.045,5.391.98837,6.87348,3.18967,6.91843-.37084,1.32873,1.17126,1.93476,2.1702,2.18368-.14591,1.14875-.85482,1.889-1.49634,3.25224-.04489,2.06652-.40429,3.89865-1.07821,4.26782s-3.21212.42679-3.3244,0,.31446-.56152.49413-1.28032a4.27865,4.27865,0,0,0-.20212-1.86441c0,.27668-1.52163.4174-3.08611.4247V7.17214A5.85847,5.85847,0,0,1,17.49128,8.07062Z" style="fill:#ffe28a"/><ellipse cx="19.13101" cy="6.38595" rx="1.14558" ry="1.63976" style="fill:#3085a6"/><ellipse cx="18.90997" cy="5.6096" rx="0.57289" ry="0.77635" style="fill:#edeeee"/><path d="M22.34312,4.0723c.79708,1.01453,2.26319.76913,3.619.65135.98318,1.71472,2.81816,2.35086,3.38932,3.03251C28.992,9.014,26.027,7.44171,26.027,7.44171c-.37721,1.704-1.60368,1.14411-2.83027.584.11265,1.13731.91207,2.27537,1.52744,2.26869.40435-1.23543,2.5518-1.23518,2.96506.5256.161,2.6268-2.381,2.77636-3.45924,1.51848a21.62994,21.62994,0,0,1-3.09663-6.46133C21.94316,5.4542,22.9489,5.52333,22.34312,4.0723Z" style="fill:#ffeaa7"/><path d="M17.76078,1.916c5.6381-5.12388,7.05321,1.67484,8.04158,2.53826.047.09756.10746.17825.15976.26944-1.35581.11778-2.82192.36318-3.619-.65135.60578,1.451-.4,1.3819-1.20978,1.80487-.03085-.09-.06232-.17683-.09305-.26759C21.04029,5.60958,17.53616,2.57861,17.76078,1.916Z" style="fill:#e59fa8"/></svg>