<svg xmlns="http://www.w3.org/2000/svg" viewBox="0 0 32 32"><defs><style>.a{fill:#cb6278;}.b{fill:#912b41;}.c{fill:#fff5d8;}.d{fill:#fef1c6;}.e{fill:#e9746a;}.f{fill:#dd583e;}.g{fill:#f7f7f7;}.h{fill:#373f3f;}.i{fill:#c95c73;}.j{fill:#89283b;}.k{fill:#ffeaa7;}.l{fill:#e7685f;}.m{fill:#d64f3c;}.n{fill:#edeeee;}.o{fill:#2b3332;}</style></defs><title>533-gurdurr-shiny</title><rect class="a" x="0.01108" y="0.186" width="16" height="5.64225"/><rect class="b" x="0.01108" y="1.08289" width="16" height="3.76969"/><path class="c" d="M13.91141,1.16169c-.45758-1.10541-2.49317-.26276-2.03552.84265a1.18827,1.18827,0,1,0-1.70167,1.64093A1.15464,1.15464,0,1,0,9.01254,5.64094a1.14051,1.14051,0,0,0,0,2.27288l4.09363-1.87371,2.90491-3.68738V.22474C15.14578.09913,14.00186.40735,13.91141,1.16169Z"/><path class="d" d="M16.10758,14.31766a15.71026,15.71026,0,0,0-6.086-2.42986C7.41575,6.633,4.90407,5.03569,3.32905,4.89811c.18317.2365.4413.42966.399.56533,0,0-.49435-.772-.94074-.38123A2.67828,2.67828,0,0,1,3.42945,5.54c-.36606-.17876-.73463-.36629-.98547-.14544.31387.04336.67009.40283,1.02982.7885-.55764,4.65778,2.0684,14.47089,9.23556,14.135,1.3192,1.99816-10.68778,8.484-4.62547,9.57052,0,0-1.50787,1.17523-1.55224,1.64093s4.834.35474,5.27758,0-1.64093-1.46356-1.64093-1.46356c0-1.2345,4.05072-1.7461,5.80115-1.7461l.04163.002V15.98654Z"/><path class="c" d="M15.98026.85764c-3.90668,0-7.07367,2.47961-7.07367,6.38629a7.07373,7.07373,0,0,0,7.07367,7.07373l.03082-.00153V.85886Z"/><path class="e" d="M11.93117,24.65529c-.84955-.85294-2.36544-3.11065-3.29239.77008,1.17266-.68648,1.6462-.71719,2.18366.4717"/><path class="f" d="M15.89157,7.64521a1.7518,1.7518,0,0,0,0,3.5036c.041,0,.07929-.00928.11951-.012V7.65723C15.97086,7.65449,15.93253,7.64521,15.89157,7.64521Z"/><path class="g" d="M13.30838,8.01081l-2.38391-.80774.26068,1.79614,2.17157-.51a1.3394,1.3394,0,0,1-.05957-.38806C13.29715,8.0691,13.30637,8.042,13.30838,8.01081Z"/><path class="h" d="M13.30838,8.01081c-.002.03119-.01123.05829-.01123.09033a1.3394,1.3394,0,0,0,.05957.38806l.80524-.18914Z"/><path class="e" d="M4.49793,8.85978a11.36362,11.36362,0,0,1,.35321,3.39389c.06143.62944-.645,2.31891.41464,3.00966a3.43427,3.43427,0,0,1,.86-2.07288c.49423-.54734,1.17878-.27494,1.88531.09214L8.21883,12.269a3.05994,3.05994,0,0,1-1.86045-.39928,7.79224,7.79224,0,0,1-1.154-3.25568Z"/><path class="e" d="M11.28571,14.02386a4.65843,4.65843,0,0,1,2.67211,1.65442l-.46071,1.41284a3.63561,3.63561,0,0,0-2.70282-1.04277Z"/><path class="e" d="M10.02161,11.8878c-1.20827,1.291-2.10375,3.51736-2.88257,6.09262.3534,2.44916,1.98231,2.48951,3.78543,2.20085C12.70936,11.9387,11.61531,11.14882,10.02161,11.8878Z"/><rect class="i" x="15.98892" y="0.16152" width="16" height="5.64225"/><rect class="j" x="15.98892" y="1.0584" width="16" height="3.76969"/><path class="d" d="M18.08859,1.1372c.45758-1.10541,2.49317-.26276,2.03552.84265a1.18827,1.18827,0,1,1,1.70167,1.64093,1.15464,1.15464,0,1,1,1.16168,1.99567,1.14052,1.14052,0,0,1,0,2.27289L18.89383,6.01562,15.98892,2.32824V.20025C16.85422.07464,17.99814.38287,18.08859,1.1372Z"/><path class="k" d="M16.01974,14.29317c1.58187-1.07147,4.47348-2.38614,5.95865-2.42985C24.58425,6.60853,27.09593,5.0112,28.671,4.87363c-.18317.23649-.4413.42965-.399.56532,0,0,.49435-.772.94074-.38123a2.67828,2.67828,0,0,0-.64218.45778c.36606-.17876.73463-.36628.98547-.14544-.31387.04336-.67009.40283-1.02982.7885.55764,4.65778-2.0684,14.47089-9.23556,14.135-1.3192,1.99817,10.68778,8.484,4.62547,9.57052,0,0,1.50787,1.17523,1.55224,1.64093s-4.834.35474-5.27758,0S21.8317,30.0414,21.8317,30.0414c0-1.2345-4.05072-1.74609-5.80115-1.74609l-.04163.002V15.96205Z"/><path class="d" d="M16.01974.83315c3.90668,0,7.07367,2.47961,7.07367,6.38629a7.07372,7.07372,0,0,1-7.07367,7.07373l-.03082-.00153V.83437C15.9993.83431,16.00937.83315,16.01974.83315Z"/><path class="l" d="M20.06883,24.6308c.84955-.85294,2.36544-3.11065,3.29239.77008-1.17266-.68648-1.6462-.71719-2.18366.4717"/><path class="m" d="M16.10843,7.62072a1.7518,1.7518,0,0,1,0,3.5036c-.041,0-.07929-.00928-.11951-.012V7.63275C16.02914,7.63,16.06747,7.62072,16.10843,7.62072Z"/><path class="n" d="M18.69162,7.98632l2.38391-.80774-.26068,1.79615-2.17157-.51a1.33947,1.33947,0,0,0,.05957-.38807C18.70285,8.04461,18.69363,8.01751,18.69162,7.98632Z"/><path class="o" d="M18.69162,7.98632c.002.03119.01123.05829.01123.09033a1.33947,1.33947,0,0,1-.05957.38807L17.838,8.27557Z"/><path class="l" d="M27.50207,8.83529a11.36365,11.36365,0,0,0-.35321,3.3939c-.06143.62943.645,2.3189-.41464,3.00965a3.43427,3.43427,0,0,0-.86-2.07288c-.49423-.54734-1.17878-.27494-1.88531.09214l-.20775-1.01356a3.05994,3.05994,0,0,0,1.86045-.39928,7.79218,7.79218,0,0,0,1.154-3.25568Z"/><path class="l" d="M20.71429,13.99937a4.65843,4.65843,0,0,0-2.67211,1.65442l.46071,1.41284a3.63569,3.63569,0,0,1,2.70282-1.04277Z"/><path class="l" d="M21.97839,11.86332c1.20827,1.291,2.10375,3.51735,2.88257,6.09261-.3534,2.44916-1.98231,2.48951-3.78543,2.20085C19.29064,11.91421,20.38469,11.12434,21.97839,11.86332Z"/></svg>