<?xml version="1.0" encoding="utf-8"?>
<!-- Generator: Adobe Illustrator 23.0.6, SVG Export Plug-In . SVG Version: 6.00 Build 0)  -->
<svg version="1.1" xmlns="http://www.w3.org/2000/svg" xmlns:xlink="http://www.w3.org/1999/xlink" x="0px" y="0px" width="32px"
	 height="32px" viewBox="0 0 32 32" enable-background="new 0 0 32 32" xml:space="preserve">
<g id="labels">
	<g>
	</g>
</g>
<g id="icons">
	<g>
		<ellipse fill="#7FB8E0" cx="16" cy="25.5" rx="6" ry="6.5"/>
		<path fill="#71B1E1" d="M22,25.5c0-4.039-2.686-6.5-6-6.5v13C19.314,32,22,29.539,22,25.5z"/>
		<circle fill="#413B3B" cx="16" cy="23" r="2"/>
		<path fill="#3A3333" d="M18,23c0-1.105-0.895-2-2-2v4C17.105,25,18,24.105,18,23z"/>
		<ellipse fill="#4F4949" cx="16" cy="11" rx="13" ry="11"/>
		<path fill="#413B3B" d="M29,11c0-6.75-5.137-11-13-11v22C23.863,22,29,17.75,29,11z"/>
		<ellipse fill="#F5DEB9" cx="16" cy="11" rx="11" ry="9"/>
		<path fill="#EFD4A7" d="M27,11c0-5.523-4.346-9-11-9v18C22.654,20,27,16.523,27,11z"/>
		<ellipse fill="#413B3B" cx="10" cy="11" rx="2" ry="3"/>
		<circle fill="#FFFFFF" cx="10" cy="10" r="1"/>
		<path fill="#5A5353" d="M10,12c-0.647,0-1.249,0.168-1.79,0.441C8.501,13.366,9.095,14,10,14s1.499-0.634,1.79-1.559
			C11.249,12.168,10.647,12,10,12z"/>
		<ellipse fill="#3A3333" cx="22" cy="11" rx="2" ry="3"/>
		<circle fill="#F7F7F7" cx="22" cy="10" r="1"/>
		<path fill="#4F4949" d="M22,12c-0.647,0-1.249,0.168-1.79,0.441C20.501,13.366,21.095,14,22,14s1.499-0.634,1.79-1.559
			C23.249,12.168,22.647,12,22,12z"/>
		<path fill="#4F4949" d="M13,5.5C13,4.672,12.552,4,12,4s-1,0.672-1,1.5c0,0.297,0.059,0.573,0.159,0.806
			c-1.137,0.372-2.417-0.244-2.432-0.252C8.481,5.929,8.18,6.027,8.055,6.273C7.93,6.52,8.027,6.819,8.272,6.945
			c0.063,0.032,1.002,0.502,2.119,0.502c0.554,0,1.15-0.1,1.708-0.462C12.657,6.623,13,6.278,13,5.5z"/>
		<path fill="#413B3B" d="M19,5.5C19,4.672,19.448,4,20,4s1,0.672,1,1.5c0,0.297-0.059,0.573-0.159,0.806
			c1.137,0.372,2.417-0.244,2.432-0.252c0.245-0.125,0.547-0.027,0.672,0.219c0.125,0.246,0.028,0.546-0.217,0.672
			c-0.063,0.032-1.002,0.502-2.119,0.502c-0.554,0-1.15-0.1-1.708-0.462C19.344,6.623,19,6.278,19,5.5z"/>
		<path fill="#413B3B" d="M16,19c-0.58,0-1.07-0.215-1.42-0.622c-0.522-0.607-0.63-1.516-0.629-2.168l-0.793,0.264
			c-0.263,0.088-0.545-0.054-0.632-0.316c-0.087-0.262,0.054-0.545,0.316-0.632l1.5-0.5c0.166-0.056,0.347-0.02,0.479,0.091
			c0.133,0.112,0.199,0.285,0.173,0.457c-0.062,0.416-0.121,1.614,0.344,2.153c0.32,0.372,1.002,0.372,1.322,0
			c0.465-0.539,0.406-1.737,0.344-2.153c-0.025-0.172,0.04-0.345,0.173-0.457c0.132-0.111,0.314-0.147,0.479-0.091l1.5,0.5
			c0.262,0.087,0.403,0.37,0.316,0.632c-0.087,0.262-0.369,0.404-0.632,0.316l-0.793-0.264c0.001,0.653-0.107,1.562-0.629,2.168
			C17.07,18.785,16.58,19,16,19z"/>
		<path fill="#3A3333" d="M17.42,18.378c0.522-0.607,0.63-1.516,0.629-2.168l0.793,0.264c0.264,0.088,0.545-0.054,0.632-0.316
			c0.087-0.262-0.054-0.545-0.316-0.632l-1.5-0.5c-0.166-0.056-0.347-0.02-0.479,0.091c-0.133,0.112-0.199,0.285-0.173,0.457
			c0.062,0.416,0.121,1.614-0.344,2.153c-0.16,0.186-0.411,0.279-0.661,0.279V19C16.58,19,17.07,18.785,17.42,18.378z"/>
		<path fill="#746E6E" d="M4.492,5.362C4.492,5.362,6,6.226,6,11s-1.508,5.641-1.508,5.641S0,16.05,0,11S4.492,5.362,4.492,5.362z"
			/>
		<path fill="#8EC0E0" d="M0,11c0,2.497,1.098,3.901,2.208,4.685C2.597,14.885,3,13.467,3,11c0-2.467-0.403-3.885-0.792-4.684
			C1.098,7.1,0,8.503,0,11z"/>
		<path fill="#6D6666" d="M27.508,5.362c0,0-1.508,0.864-1.508,5.638s1.508,5.641,1.508,5.641S32,16.05,32,11
			S27.508,5.362,27.508,5.362z"/>
		<path fill="#7FB8E0" d="M32,11c0,2.497-1.098,3.901-2.208,4.685C29.403,14.885,29,13.467,29,11c0-2.467,0.403-3.885,0.792-4.684
			C30.902,7.1,32,8.503,32,11z"/>
	</g>
</g>
</svg>
