<?xml version="1.0" encoding="utf-8"?>
<!-- Generator: Adobe Illustrator 23.0.6, SVG Export Plug-In . SVG Version: 6.00 Build 0)  -->
<svg version="1.1" xmlns="http://www.w3.org/2000/svg" xmlns:xlink="http://www.w3.org/1999/xlink" x="0px" y="0px" width="32px"
	 height="32px" viewBox="0 0 32 32" enable-background="new 0 0 32 32" xml:space="preserve">
<g id="labels">
	<g>
	</g>
</g>
<g id="icons">
	<g>
		<path fill="#4F4949" d="M11,11c0,2.761-0.48,5-2.8,5S3,13.761,3,11s2.88-5,5.2-5S11,8.239,11,11z"/>
		<path fill="#93C2CA" d="M3,11c0,1.957,1.448,3.647,3.117,4.468C6.816,14.652,7,12.967,7,11c0-1.967-0.184-3.652-0.883-4.468
			C4.448,7.353,3,9.043,3,11z"/>
		<path fill="#3E88B3" d="M11,30.5c0,0.828-0.672,1.5-1.5,1.5S8,31.328,8,30.5S9.672,28,10.5,28S11,29.672,11,30.5z"/>
		<path fill="#3E88B3" d="M15,30.5c0,0.828-0.672,1.5-1.5,1.5S12,31.328,12,30.5S11.672,28,12.5,28S15,29.672,15,30.5z"/>
		<path fill="#4390BF" d="M13,30.5c0,0.828-0.672,1.5-1.5,1.5c-0.828,0-1.5-0.672-1.5-1.5s0.672-2.5,1.5-2.5
			C12.328,28,13,29.672,13,30.5z"/>
		<path fill="#3980A8" d="M20,30.5c0,0.828-0.672,1.5-1.5,1.5c-0.828,0-1.5-0.672-1.5-1.5s1.672-2.5,2.5-2.5
			C20.328,28,20,29.672,20,30.5z"/>
		<path fill="#3980A8" d="M24,30.5c0,0.828-0.672,1.5-1.5,1.5c-0.828,0-1.5-0.672-1.5-1.5S20.672,28,21.5,28
			C22.328,28,24,29.672,24,30.5z"/>
		<path fill="#3E88B3" d="M22,30.5c0,0.828-0.672,1.5-1.5,1.5c-0.828,0-1.5-0.672-1.5-1.5s0.672-2.5,1.5-2.5
			C21.328,28,22,29.672,22,30.5z"/>
		<path fill="#E3E5E5" d="M31.298,22.499c-0.826-0.711-2.083-0.617-2.809,0.197c-0.062,0.07-1.562,1.707-4.838,1.707
			c-3.344,0-5.111-1.697-5.212-1.797c-0.763-0.785-2.019-0.811-2.812-0.054c-0.8,0.762-0.831,2.028-0.07,2.828
			c0.118,0.124,2.938,3.024,8.094,3.024c5.147,0,7.627-2.805,7.893-3.125C32.24,24.44,32.125,23.211,31.298,22.499z"/>
		<path fill="#4896C8" d="M16,30c-6.065,0-11-4.213-11-9.391c0-2.26,0.976-5.484,2.487-8.213c0.34-0.614,1.126-2.279,1.907-3.966
			C10.652,5.711,13.209,4,16,4h0c2.791,0,5.348,1.711,6.606,4.43c0.781,1.687,1.567,3.352,1.907,3.966
			C26.024,15.125,27,18.349,27,20.609C27,25.787,22.065,30,16,30z"/>
		<path fill="#413B3B" d="M21,11c0,2.761,0.48,5,2.8,5s5.2-2.239,5.2-5s-2.88-5-5.2-5S21,8.239,21,11z"/>
		<path fill="#88B9C3" d="M29,11c0,1.957-1.448,3.647-3.117,4.468C25.184,14.652,25,12.967,25,11c0-1.967,0.184-3.652,0.883-4.468
			C27.552,7.353,29,9.043,29,11z"/>
		<path fill="#4390BF" d="M27,20.609c0-2.26-0.976-5.484-2.487-8.213c-0.34-0.614-1.126-3.279-1.907-4.966
			C21.348,4.711,18.791,4,16,4v26C22.065,30,27,25.787,27,20.609z"/>
		<path fill="#4F4949" d="M16,29c-4.962,0-9-4.038-9-9c0-2.166,0.799-5.255,2.035-7.871C9.675,10.775,10,9.386,10,8V6h12v2
			c0,1.386,0.325,2.775,0.965,4.129C24.201,14.745,25,17.834,25,20C25,24.962,20.962,29,16,29z"/>
		<path fill="#413B3B" d="M22,8V6h-6v23c4.962,0,9-4.038,9-9c0-2.166-0.799-5.255-2.035-7.871C22.325,10.775,22,9.386,22,8z"/>
		<path fill="#F5DEB9" d="M20,8L20,8l-8,0v0c0,1.728-0.418,3.421-1.157,4.984C9.699,15.404,9,18.176,9,20c0,3.866,3.134,7,7,7
			s7-3.134,7-7c0-1.824-0.699-4.596-1.843-7.016C20.418,11.421,20,9.728,20,8z"/>
		<path fill="#9FCCD3" d="M6,20c0,1.105,0.105,2-1,2s-2-0.895-2-2s0.895-2,2-2S6,18.895,6,20z"/>
		<path fill="#99C7CE" d="M26.003,20c0,1.105-0.105,2,1,2c1.105,0,2-0.895,2-2s-0.895-2-2-2C25.898,18,26.003,18.895,26.003,20z"/>
		<path fill="#EFD4A7" d="M20,8h-4v19c3.866,0,7-3.134,7-7c0-1.824-0.699-4.596-1.843-7.016C20.418,11.421,20,9.728,20,8z"/>
		<circle fill="#FFFFFF" cx="11.5" cy="11.5" r="2.5"/>
		<circle fill="#F7F7F7" cx="20.5" cy="11.5" r="2.5"/>
		<circle fill="#373F3F" cx="11.5" cy="11.5" r="1.5"/>
		<circle fill="#2B3332" cx="20.5" cy="11.5" r="1.5"/>
		<path fill="#5A5353" d="M23,7c0,3.866-3.134,5-7,5s-7-1.134-7-5s3.134-7,7-7S23,3.134,23,7z"/>
		<path fill="#CB6278" d="M14.054,15.767c-0.032-0.221,0.223-0.366,0.399-0.23C14.76,15.774,15.249,16,16,16s1.24-0.226,1.546-0.462
			c0.176-0.136,0.431,0.009,0.399,0.23C17.818,16.656,17.394,18,16,18S14.182,16.656,14.054,15.767z"/>
		<path fill="#4F4949" d="M23,7c0-3.866-3.134-7-7-7v12C19.866,12,23,10.866,23,7z"/>
		<path fill="#9FCCD3" d="M21,4.571C21,7.096,18.761,8,16,8s-5-0.904-5-3.429S13.239,0,16,0S21,2.047,21,4.571z"/>
		<path fill="#99C7CE" d="M21,4.571C21,2.047,18.761,0,16,0v8C18.761,8,21,7.096,21,4.571z"/>
		<path fill="#C95C73" d="M17.946,15.767c0.032-0.221-0.223-0.366-0.399-0.23C17.24,15.774,16.751,16,16,16v2
			C17.394,18,17.818,16.656,17.946,15.767z"/>
	</g>
</g>
</svg>
