<?xml version="1.0" encoding="utf-8"?>
<!-- Generator: Adobe Illustrator 23.0.6, SVG Export Plug-In . SVG Version: 6.00 Build 0)  -->
<svg version="1.1" xmlns="http://www.w3.org/2000/svg" xmlns:xlink="http://www.w3.org/1999/xlink" x="0px" y="0px" width="32px"
	 height="32px" viewBox="0 0 32 32" enable-background="new 0 0 32 32" xml:space="preserve">
<g id="labels">
	<g>
	</g>
</g>
<g id="icons">
	<g>
		<path fill="#3E88B3" d="M4.562,11.095c-1.8,0.364-3.217,1.872-3.504,3.686c-0.142,0.899-0.012,1.752,0.316,2.5
			c0.194,0.443,0.001,0.947-0.385,1.239c-0.756,0.572-1.176,1.56-0.906,2.631c0.214,0.846,0.901,1.542,1.746,1.762
			C3.498,23.348,5,22.099,5,20.5c0-0.192-0.026-0.377-0.067-0.557C5.121,19.967,5.306,20,5.5,20c2.485,0,4.5-2.015,4.5-4.5
			C10,12.708,7.457,10.51,4.562,11.095z"/>
		<g>
			<path fill="#3980A8" d="M30.627,17.28c0.327-0.748,0.458-1.601,0.316-2.5c-0.287-1.814-1.704-3.322-3.504-3.686
				C24.543,10.51,22,12.708,22,15.5c0,2.485,2.015,4.5,4.5,4.5c0.194,0,0.379-0.033,0.567-0.057
				c-0.136,0.593-0.11,1.247,0.489,2.012c0.471,0.603,1.175,1.044,1.94,1.045C30.879,23.002,32,21.882,32,20.5
				c0-0.815-0.392-1.533-0.996-1.987C30.62,18.225,30.435,17.72,30.627,17.28z"/>
			<circle fill="#3980A8" cx="28" cy="23" r="1"/>
			<path fill="#3980A8" d="M30,24c0,0.552,0.448,1,1,1s1-0.448,1-1s-0.448-3-1-3S30,23.448,30,24z"/>
			<circle fill="#4390BF" cx="29.978" cy="22.478" r="1"/>
			<ellipse transform="matrix(0.7071 -0.7071 0.7071 0.7071 -0.3449 24.1673)" fill="#413B3B" cx="29" cy="12.5" rx="2.5" ry="3"/>
			
				<ellipse transform="matrix(0.7071 -0.7071 0.7071 0.7071 0.3622 24.4602)" fill="#7EB1BD" cx="29.707" cy="11.793" rx="1.697" ry="2.263"/>
		</g>
		<path fill="#3980A8" d="M23,23c0,0,5-0.403,5,3s-2,2.138-2,5h-2c0,0-0.421-4.37-3-4.37L23,23z"/>
		<path fill="#3980A8" d="M25,31c0,0.552,1.448,1,2,1s1-0.448,1-1s-0.448-1-1-1S25,30.448,25,31z"/>
		<path fill="#3980A8" d="M22,31c0,0.552,0.448,1,1,1s2-0.448,2-1s-1.448-1-2-1S22,30.448,22,31z"/>
		<circle fill="#3E88B3" cx="25" cy="31" r="1"/>
		<circle fill="#7EB1BD" cx="27.5" cy="26.5" r="1.5"/>
		<path fill="#3E88B3" d="M9,23c0,0-5-0.403-5,3s2,2.138,2,5h2c0,0,0.421-4.37,3-4.37L9,23z"/>
		<path fill="#3E88B3" d="M7,31c0,0.552-1.448,1-2,1s-1-0.448-1-1s0.448-1,1-1S7,30.448,7,31z"/>
		<path fill="#3E88B3" d="M10,31c0,0.552-0.448,1-1,1s-2-0.448-2-1s1.448-1,2-1S10,30.448,10,31z"/>
		<path fill="#4390BF" d="M16,30c-4.962,0-9-3.889-9-8.669c0-2.086,0.799-5.062,2.035-7.581c0.278-0.567,0.921-2.104,1.56-3.661
			C11.624,7.58,13.716,6,16,6h0c2.284,0,4.376,1.58,5.405,4.089c0.639,1.557,1.282,3.094,1.56,3.661
			C24.201,16.269,25,19.245,25,21.331C25,26.111,20.962,30,16,30z"/>
		<path fill="#3E88B3" d="M25,21.331c0-2.086-0.799-5.062-2.035-7.582c-0.278-0.567-0.921-3.027-1.56-4.584
			C20.376,6.656,18.284,6,16,6v24C20.962,30,25,26.111,25,21.331z"/>
		<path fill="#4F4949" d="M16,29c-4.411,0-8-3.687-8-8.217c0-1.978,0.71-4.798,1.809-7.186c0.569-1.237,0.858-2.505,0.858-3.77V8
			h10.667v1.826c0,1.265,0.289,2.534,0.858,3.77C23.29,15.984,24,18.805,24,20.783C24,25.313,20.411,29,16,29z"/>
		<path fill="#413B3B" d="M21.333,9.826V8H16v21c4.411,0,8-3.687,8-8.217c0-1.978-0.71-4.798-1.809-7.187
			C21.622,12.36,21.333,11.091,21.333,9.826z"/>
		<path fill="#93C2CA" d="M19.429,10L19.429,10l-6.857,0v0c0,1.546-0.358,3.061-0.991,4.459C10.599,16.625,10,19.105,10,20.737
			C10,24.196,12.686,27,16,27s6-2.804,6-6.263c0-1.632-0.599-4.112-1.58-6.278C19.787,13.061,19.429,11.546,19.429,10z"/>
		<path fill="#88B9C3" d="M19.429,10H16v17c3.314,0,6-2.804,6-6.263c0-1.632-0.599-4.112-1.58-6.278
			C19.787,13.061,19.429,11.546,19.429,10z"/>
		<path fill="#4896C8" d="M26,10.889C26,15.798,21.523,18,16,18S6,15.798,6,10.889S10.477,2,16,2S26,5.98,26,10.889z"/>
		<circle fill="#E9746A" cx="11.5" cy="9.5" r="2.5"/>
		<path fill="#4390BF" d="M26,10.889C26,5.98,21.523,2,16,2v16C21.523,18,26,15.798,26,10.889z"/>
		<circle fill="#E7685F" cx="20.5" cy="9.5" r="2.5"/>
		<circle fill="#2B3332" cx="20.5" cy="9.5" r="1"/>
		<circle fill="#373F3F" cx="11.5" cy="9.5" r="1"/>
		<ellipse fill="#4F4949" cx="11" cy="4.5" rx="5" ry="4.5"/>
		<ellipse fill="#9FCCD3" cx="10.5" cy="3" rx="3.5" ry="3"/>
		<ellipse fill="#413B3B" cx="21" cy="4.5" rx="5" ry="4.5"/>
		<ellipse fill="#99C7CE" cx="21.5" cy="3" rx="3.5" ry="3"/>
		<path fill="#99C7CE" d="M23.624,12.88c-1.258,0.989-2.947,1.611-4.869,1.909C18.296,15.501,17.236,16,16,16
			s-2.296-0.499-2.756-1.211c-1.922-0.298-3.611-0.92-4.869-1.909C8.133,13.549,8,14.261,8,15c0,0.2,0.015,0.397,0.034,0.593
			C9.86,17.227,12.744,18,16,18s6.14-0.773,7.966-2.407C23.985,15.397,24,15.2,24,15C24,14.261,23.867,13.549,23.624,12.88z"/>
		<circle fill="#4390BF" cx="7" cy="31" r="1"/>
		<circle fill="#88B9C3" cx="4.5" cy="26.5" r="1.5"/>
		<circle fill="#3E88B3" cx="4" cy="23" r="1"/>
		<path fill="#3E88B3" d="M2,24c0,0.552-0.448,1-1,1s-1-0.448-1-1s0.448-3,1-3S2,23.448,2,24z"/>
		<circle fill="#4390BF" cx="1.978" cy="22.478" r="1"/>
		<ellipse transform="matrix(0.7071 -0.7071 0.7071 0.7071 -7.9602 5.7825)" fill="#4F4949" cx="3" cy="12.5" rx="3" ry="2.5"/>
		
			<ellipse transform="matrix(0.7071 -0.7071 0.7071 0.7071 -7.6673 5.0754)" fill="#88B9C3" cx="2.293" cy="11.793" rx="2.263" ry="1.697"/>
		<path fill="#93C2CA" d="M23.966,15.593C23.985,15.397,24,15.2,24,15c0-0.739-0.133-1.451-0.376-2.12
			c-1.258,0.989-2.947,1.611-4.869,1.909C18.296,15.501,17.236,16,16,16v2C19.256,18,22.14,17.227,23.966,15.593z"/>
	</g>
</g>
</svg>
