<svg xmlns="http://www.w3.org/2000/svg" viewBox="0 0 32 32"><title>539-sawk</title><path d="M6.05225,16.83365,7.413,18.81058l-.24143,1.84454a2.36233,2.36233,0,0,1-.56762,2.495,1.09063,1.09063,0,0,1-1.5814.14461,1.06979,1.06979,0,0,1-.94318-.92259c-.37358.05781-1.11455-.34327-.77771-.88648C2.75,20.28028,2.90784,19.7232,3.625,18.32843Z" style="fill:#468dac"/><path d="M13.55468,25.27168c-.84348,1.4459-.74209,3.35854-.18391,5.49681.41275.53476-.48172.715-1.65495.81969L8.29561,29.12911c-.125-1.9693-.14811-3.84926.8091-4.87Z" style="fill:#c8cccb"/><path d="M9.10471,24.25913l-.88265-.33754c.52951-1.69815,1.04168-3.57467,1.76525-3.27877,0,.73112,3.014,1.09131,5.99629,1.08314v3.76123a14.38992,14.38992,0,0,1-2.42892-.21551Z" style="fill:#d1d4d4"/><path d="M9.98731,20.64282c-.57136-.26127-.01971-2.33463.55165-2.07336,0,.7593,2.70478,1.14144,5.44464,1.15086V21.726C13.0013,21.73413,9.98731,21.37394,9.98731,20.64282Z" style="fill:#434c4b"/><path d="M11.6933,6.21149,3.625,18.32843c1.45648-.205,2.747.9494,3.93506,2.94122l2.2066-5.30389.77228,2.6037c0,.75805,2.69653,1.1402,5.432,1.15075A13.32572,13.32572,0,0,1,11.6933,6.21149Z" style="fill:#d1d4d4"/><path d="M11.71582,6.17767l-.02252.03382a13.32572,13.32572,0,0,0,4.27759,13.50872l.01269.00013V17.26227l-.01086.00055c-3.60279-3.30042-5.07849-12.97455.01086-12.97455V3.76678A4.73754,4.73754,0,0,0,11.71582,6.17767Z" style="fill:#434c4b"/><path d="M15.97272,17.26282l.01086-.00055V4.28827C10.89423,4.28827,12.36993,13.9624,15.97272,17.26282Z" style="fill:#3085a6"/><path d="M8.29561,29.12911c1.52952-.25536,3.59224,1.29779,3.42021,2.45907-.08905.68194-4.40628.44067-4.30287-.16881C7.392,30.59221,7.06176,29.9165,8.29561,29.12911Z" style="fill:#2b7e9f"/><path d="M10.61269,25.48867a6.30908,6.30908,0,0,0-.36793,3.11,1.91127,1.91127,0,0,1-1.5446-.67508,6.41987,6.41987,0,0,1,.331-2.9894A2.53217,2.53217,0,0,0,10.61269,25.48867Z" style="fill:#434c4b"/><path d="M14.988,27.92362H13.3069c.15179-4.3458.75895-7.69493,2.664-8.20338l.0127-.00428v2.81016l-.0127.01455C15.07649,21.8013,14.97278,24.59683,14.988,27.92362Z" style="fill:#505957"/><path d="M15.97845,12.97449l.01429-.00055V0C9.32013,0,11.25488,9.67413,15.97845,12.97449Z" style="fill:#3a89a8"/><path d="M13.7665,5.3501c.6238.18126,1.04981.28422,1.18393.65508-.14624.50325-1.08968,1.34846-1.71348,1.1672s-.90734-1.37666-.761-1.8799S13.1427,5.16876,13.7665,5.3501Z" style="fill:#f7f7f7"/><path d="M13.82977,5.51268a.74221.74221,0,0,1,.5936.85083.82615.82615,0,0,1-1.55073-.45063A.7421.7421,0,0,1,13.82977,5.51268Z" style="fill:#373f3f"/><path d="M13.6068,5.89354a.226.226,0,1,1-.226.226A.22606.22606,0,0,1,13.6068,5.89354Z" style="fill:#edeeee"/><path d="M25.93317,16.83365l-1.3607,1.97693.24143,1.84454a2.36233,2.36233,0,0,0,.56762,2.495,1.09063,1.09063,0,0,0,1.5814.14461,1.06979,1.06979,0,0,0,.94318-.92259c.37358.05781,1.11455-.34327.77771-.88648.55165-1.20541.39377-1.76249-.32338-3.15726Z" style="fill:#3a89a8"/><path d="M18.43074,25.27168c.84348,1.4459.74209,3.35854.18391,5.49681-.41275.53476.48172.715,1.65495.81969l3.42021-2.45907c.125-1.9693.14811-3.84926-.8091-4.87Z" style="fill:#b9bfbe"/><path d="M22.88071,24.25913l.88265-.33754c-.52951-1.69815-1.04168-3.57467-1.76525-3.27877,0,.73112-3.014,1.09131-5.99629,1.08314v3.76123a14.38983,14.38983,0,0,0,2.42892-.21551Z" style="fill:#c8cccb"/><path d="M21.99811,20.64282c.57136-.26127.01971-2.33463-.55165-2.07336,0,.7593-2.70478,1.14144-5.44464,1.15086V21.726C18.98412,21.73413,21.99811,21.37394,21.99811,20.64282Z" style="fill:#373f3f"/><path d="M16.01453,19.72024c2.7354-.01059,5.43193-.39272,5.43193-1.15078l.7723-2.60368,2.20661,5.30387c1.18808-1.99179,2.47855-3.14622,3.93506-2.94122L20.2921,6.21151A13.32566,13.32566,0,0,1,16.01453,19.72024Z" style="fill:#c8cccb"/><path d="M20.29211,6.21149l-.02252-.03382a4.73753,4.73753,0,0,0-4.26776-2.41089v.52149l.0127.00159v0c5.07293.01745,3.59771,9.67553-.00183,12.973l-.01087-.00055v2.45807l.0127-.00013A13.32573,13.32573,0,0,0,20.29211,6.21149Z" style="fill:#373f3f"/><path d="M16.01453,4.28986v0l-.0127-.00159v12.974l.01087.00055C19.61224,13.96539,21.08746,4.30731,16.01453,4.28986Z" style="fill:#2b7e9f"/><path d="M23.68981,29.12911c-1.52952-.25536-3.59224,1.29779-3.42021,2.45907.08905.68194,4.40628.44067,4.30287-.16881C24.59343,30.59221,24.92366,29.9165,23.68981,29.12911Z" style="fill:#237899"/><path d="M21.37273,25.48867a6.30908,6.30908,0,0,1,.36793,3.11,1.91127,1.91127,0,0,0,1.5446-.67508,6.41974,6.41974,0,0,0-.331-2.9894A2.53217,2.53217,0,0,1,21.37273,25.48867Z" style="fill:#373f3f"/><path d="M16.99744,27.92362h1.68108c-.15179-4.3458-.75894-7.69493-2.664-8.20338l-.01271-.00428v2.81016l.01271.01455C16.90893,21.8013,17.01264,24.59683,16.99744,27.92362Z" style="fill:#434c4b"/><path d="M15.99274,0V12.97394l.01422.00055C20.73053,9.67413,22.66528,0,15.99274,0Zm.02179,10.41v0Z" style="fill:#3085a6"/><path d="M18.21892,5.3501c-.62379.18126-1.04981.28422-1.18393.65508.14624.50325,1.08968,1.34846,1.71348,1.1672s.90734-1.37666.761-1.8799S18.84272,5.16876,18.21892,5.3501Z" style="fill:#edeeee"/><path d="M18.15565,5.51268a.74221.74221,0,0,0-.5936.85083.82616.82616,0,0,0,1.55074-.45063A.74211.74211,0,0,0,18.15565,5.51268Z" style="fill:#2b3332"/><path d="M18.37862,5.89354a.226.226,0,1,0,.226.226A.22606.22606,0,0,0,18.37862,5.89354Z" style="fill:#e3e5e5"/><polygon points="14.445 4 16.015 10.41 16.015 4 14.445 4" style="fill:#5c6664"/><polygon points="19.134 1.822 18.605 4 16.015 4 16.015 10.41 17.035 6.005 19.883 5.042 19.134 1.822" style="fill:#505957"/></svg>