<svg xmlns="http://www.w3.org/2000/svg" viewBox="0 0 32 32"><title>539-sawk-shiny</title><path d="M6.05954,16.83365l1.3607,1.97693-.24143,1.84454a2.36233,2.36233,0,0,1-.56762,2.495,1.09063,1.09063,0,0,1-1.5814.14461,1.06979,1.06979,0,0,1-.94318-.92259c-.37358.05781-1.11455-.34327-.77771-.88648-.55165-1.20541-.39377-1.76249.32338-3.15726Z" style="fill:#a78edd"/><path d="M13.562,25.27168c-.84348,1.4459-.74209,3.35854-.18391,5.49681.41275.53476-.48172.715-1.65495.81969L8.3029,29.12911c-.125-1.9693-.14811-3.84926.8091-4.87Z" style="fill:#c8cccb"/><path d="M9.112,24.25913l-.88265-.33754c.52951-1.69815,1.04168-3.57467,1.76525-3.27877,0,.73112,3.014,1.09131,5.99629,1.08314v3.76123a14.38992,14.38992,0,0,1-2.42892-.21551Z" style="fill:#d1d4d4"/><path d="M9.9946,20.64282c-.57136-.26127-.01971-2.33463.55165-2.07336,0,.7593,2.70478,1.14144,5.44464,1.15086V21.726C13.00859,21.73413,9.9946,21.37394,9.9946,20.64282Z" style="fill:#434c4b"/><path d="M11.70059,6.21149,3.63229,18.32843c1.45648-.205,2.747.9494,3.93506,2.94122l2.2066-5.30389.77228,2.6037c0,.75805,2.69653,1.1402,5.432,1.15075A13.32572,13.32572,0,0,1,11.70059,6.21149Z" style="fill:#d1d4d4"/><path d="M11.72311,6.17767l-.02252.03382a13.32572,13.32572,0,0,0,4.27759,13.50872l.01269.00013V17.26227l-.01086.00055c-3.60279-3.30042-5.07849-12.97455.01086-12.97455V3.76678A4.73754,4.73754,0,0,0,11.72311,6.17767Z" style="fill:#434c4b"/><path d="M15.98,17.26282l.01086-.00055V4.28827C10.90152,4.28827,12.37722,13.9624,15.98,17.26282Z" style="fill:#9179c6"/><path d="M8.3029,29.12911c1.52952-.25536,3.59224,1.29779,3.42021,2.45907-.08905.68194-4.40628.44067-4.30287-.16881C7.39929,30.59221,7.06905,29.9165,8.3029,29.12911Z" style="fill:#866eba"/><path d="M10.62,25.48867a6.30908,6.30908,0,0,0-.36793,3.11,1.91127,1.91127,0,0,1-1.5446-.67508,6.41974,6.41974,0,0,1,.331-2.9894A2.53217,2.53217,0,0,0,10.62,25.48867Z" style="fill:#434c4b"/><path d="M14.99527,27.92362H13.31419c.15179-4.3458.75894-7.69493,2.664-8.20338l.0127-.00428v2.81016l-.0127.01455C15.08378,21.8013,14.98007,24.59683,14.99527,27.92362Z" style="fill:#505957"/><path d="M15.98574,12.97449,16,12.97394V0C9.32742,0,11.26217,9.67413,15.98574,12.97449Z" style="fill:#9d85d3"/><path d="M13.77379,5.3501c.62379.18126,1.04981.28422,1.18393.65508-.14624.50325-1.08968,1.34846-1.71348,1.1672s-.90734-1.37666-.761-1.8799S13.15,5.16876,13.77379,5.3501Z" style="fill:#f7f7f7"/><path d="M13.83706,5.51268a.74221.74221,0,0,1,.5936.85083.82615.82615,0,0,1-1.55073-.45063A.7421.7421,0,0,1,13.83706,5.51268Z" style="fill:#373f3f"/><path d="M13.61409,5.89354a.226.226,0,1,1-.226.226A.22606.22606,0,0,1,13.61409,5.89354Z" style="fill:#edeeee"/><path d="M25.94046,16.83365l-1.3607,1.97693.24143,1.84454a2.36233,2.36233,0,0,0,.56762,2.495,1.09063,1.09063,0,0,0,1.5814.14461,1.06979,1.06979,0,0,0,.94318-.92259c.37358.05781,1.11455-.34327.77771-.88648.55165-1.20541.39377-1.76249-.32338-3.15726Z" style="fill:#9d85d3"/><path d="M18.438,25.27168c.84348,1.4459.74209,3.35854.18391,5.49681-.41275.53476.48172.715,1.655.81969l3.42021-2.45907c.125-1.9693.14811-3.84926-.8091-4.87Z" style="fill:#b9bfbe"/><path d="M22.888,24.25913l.88265-.33754c-.52951-1.69815-1.04168-3.57467-1.76525-3.27877,0,.73112-3.014,1.09131-5.99629,1.08314v3.76123a14.38992,14.38992,0,0,0,2.42892-.21551Z" style="fill:#c8cccb"/><path d="M22.0054,20.64282c.57136-.26127.01971-2.33463-.55165-2.07336,0,.7593-2.70478,1.14144-5.44464,1.15086V21.726C18.99141,21.73413,22.0054,21.37394,22.0054,20.64282Z" style="fill:#373f3f"/><path d="M16.02181,19.72024c2.73541-.01059,5.43194-.39272,5.43194-1.15078l.7723-2.60368,2.20661,5.30387c1.18807-1.99179,2.47855-3.14622,3.93506-2.94122L20.29939,6.21151A13.32565,13.32565,0,0,1,16.02181,19.72024Z" style="fill:#c8cccb"/><path d="M20.2994,6.21149l-.02252-.03382a4.73753,4.73753,0,0,0-4.26776-2.41089v.52149l.0127.00159v0c5.07293.01745,3.59771,9.67553-.00184,12.973l-.01086-.00055v2.45807l.0127-.00013A13.32573,13.32573,0,0,0,20.2994,6.21149Z" style="fill:#373f3f"/><path d="M16.02182,4.28986v0l-.0127-.00159v12.974l.01086.00055C19.61953,13.96539,21.09475,4.30731,16.02182,4.28986Z" style="fill:#866eba"/><path d="M23.6971,29.12911c-1.52952-.25536-3.59224,1.29779-3.42021,2.45907.089.68194,4.40628.44067,4.30287-.16881C24.60071,30.59221,24.931,29.9165,23.6971,29.12911Z" style="fill:#7a63ad"/><path d="M21.38,25.48867a6.30908,6.30908,0,0,1,.36793,3.11,1.91127,1.91127,0,0,0,1.5446-.67508,6.41974,6.41974,0,0,0-.331-2.9894A2.53217,2.53217,0,0,1,21.38,25.48867Z" style="fill:#373f3f"/><path d="M17.00473,27.92362h1.68108c-.15179-4.3458-.75894-7.69493-2.664-8.20338l-.0127-.00428v2.81016l.0127.01455C16.91622,21.8013,17.01993,24.59683,17.00473,27.92362Z" style="fill:#434c4b"/><path d="M16,0V12.97394l.01422.00055C20.73782,9.67413,22.67257,0,16,0Zm.02179,10.41v0Z" style="fill:#9179c6"/><path d="M18.22621,5.3501c-.62379.18126-1.04981.28422-1.18393.65508.14624.50325,1.08968,1.34846,1.71348,1.1672s.90734-1.37666.761-1.8799S18.85,5.16876,18.22621,5.3501Z" style="fill:#edeeee"/><path d="M18.16294,5.51268a.74221.74221,0,0,0-.5936.85083.82615.82615,0,0,0,1.55073-.45063A.7421.7421,0,0,0,18.16294,5.51268Z" style="fill:#2b3332"/><path d="M18.38591,5.89354a.226.226,0,1,0,.226.226A.22606.22606,0,0,0,18.38591,5.89354Z" style="fill:#e3e5e5"/><polygon points="14.452 4 16.022 10.41 16.022 4 14.452 4" style="fill:#5c6664"/><polygon points="19.141 1.822 18.612 4 16.022 4 16.022 10.41 17.042 6.005 19.89 5.042 19.141 1.822" style="fill:#505957"/></svg>