<svg xmlns="http://www.w3.org/2000/svg" viewBox="0 0 32 32"><defs><style>.a{fill:#b1e346;}.b{fill:#aadb3d;}.c{fill:#ffd96c;}.d{fill:#edeeee;}.e{fill:#bee758;}.f{fill:#ffe28a;}.g{fill:#373f3f;}.h{fill:#efb43f;}.i{fill:#e6ab37;}.j{fill:#a2d336;}.k{fill:#ffd04d;}.l{fill:#e3e5e5;}.m{fill:#2b3332;}.n{fill:#dea32f;}</style></defs><title>540-sewaddle</title><path class="a" d="M12.04952,24.37539C11.36734,30.25348,12.276,32,15.97451,32V24.79856A12.399,12.399,0,0,1,12.04952,24.37539Z"/><path class="b" d="M9.86989,4.77532c.57922,6.51306-1.16269,8.40771-4.62731,6.8749-1.13236,1.29179-.99638,3.227-.26441,5.46462.27773-1.17276.91669-1.46867,1.93026-.85475.26478-3.63989,4.21611-7.7461,9.06608-7.7461V.01578Z"/><path class="c" d="M6.90843,16.26009a4.25979,4.25979,0,0,1,.36234.2412,21.482,21.482,0,0,1,1.937,2.97373c.668-2.00319,3.44245-3.506,6.76679-3.506V8.514C11.12454,8.514,7.17321,12.6202,6.90843,16.26009Z"/><path class="d" d="M9.20772,19.475a17.01417,17.01417,0,0,0,2.95378,3.98589c-.04248.3188-.07748.61717-.112.91448a12.399,12.399,0,0,0,3.925.42317V15.969C12.65017,15.969,9.87572,17.47183,9.20772,19.475Z"/><path class="e" d="M7.27077,16.50129c-1.22789-.92124-1.98288-.69439-2.2926.61355.324,2.92639,3.70183,4.65652,7.18333,6.34607C10.42627,22.10226,8.09912,17.25076,7.27077,16.50129Z"/><path class="f" d="M14.19674,5.57684a2.07581,2.07581,0,1,0,1.77777,3.13231V6.59606A2.06742,2.06742,0,0,0,14.19674,5.57684Z"/><circle class="g" cx="11.22487" cy="14.34188" r="1.62716"/><circle class="d" cx="11.22487" cy="14.34188" r="0.82762"/><path class="h" d="M13.85786,18.09875l2.11665-1.558V14.17413C12.852,14.17413,12.43837,16.59289,13.85786,18.09875Z"/><circle class="i" cx="13.00981" cy="25.27749" r="1.59746"/><circle class="i" cx="12.80455" cy="28.43879" r="1.3922"/><circle class="i" cx="12.80455" cy="30.969" r="0.96637"/><path class="b" d="M19.89227,24.35961c.68218,5.87809-.22647,7.62461-3.925,7.62461V24.78278A12.399,12.399,0,0,0,19.89227,24.35961Z"/><path class="j" d="M22.07191,4.75954c-.57923,6.51306,1.16268,8.40771,4.6273,6.8749,1.13236,1.29179.99638,3.227.26441,5.46461-.27773-1.17275-.91669-1.46866-1.93026-.85475-.26478-3.63988-4.21611-7.7461-9.06608-7.7461V0Z"/><path class="k" d="M25.03336,16.2443a4.26075,4.26075,0,0,0-.36233.24121,21.48078,21.48078,0,0,0-1.937,2.97373c-.668-2.00319-3.44245-3.506-6.76679-3.506V8.4982C20.81725,8.4982,24.76858,12.60442,25.03336,16.2443Z"/><path class="l" d="M22.73407,19.45924a17.01417,17.01417,0,0,1-2.95378,3.98589c.04249.3188.07748.61716.112.91448a12.399,12.399,0,0,1-3.925.42317V15.95325C19.29162,15.95325,22.06607,17.45605,22.73407,19.45924Z"/><path class="a" d="M24.671,16.48551c1.22788-.92124,1.98287-.6944,2.29259.61354-.324,2.9264-3.70183,4.65653-7.18333,6.34608C21.51552,22.08648,23.84267,17.235,24.671,16.48551Z"/><path class="c" d="M17.74505,5.56106a2.07581,2.07581,0,1,1-1.77777,3.13231V6.58028A2.06744,2.06744,0,0,1,17.74505,5.56106Z"/><circle class="m" cx="20.71692" cy="14.3261" r="1.62716"/><circle class="l" cx="20.71692" cy="14.3261" r="0.82762"/><path class="i" d="M18.08393,18.083l-2.11665-1.558V14.15835C19.08976,14.15835,19.50342,16.57711,18.08393,18.083Z"/><circle class="n" cx="18.93198" cy="25.26171" r="1.59746"/><circle class="n" cx="19.13725" cy="28.42301" r="1.3922"/><circle class="n" cx="19.13725" cy="30.95322" r="0.96637"/></svg>