<svg xmlns="http://www.w3.org/2000/svg" viewBox="0 0 32 32"><title>541-swadloon-shiny</title><path d="M6.605,28.94026c-2.2523,1.23237-4.91139,1.69453-4.41967,2.63481,1.91237.89243,6.15924-.14238,7.77691-.085C6.21,31.434,4.70967,30.699,6.605,28.94026Z" style="fill:#9eb164"/><path d="M15.99673,26.263c-.34,1.78487-4.2937,5.41018-6.03454,5.22711A20.59786,20.59786,0,0,0,16,32V19.55676Z" style="fill:#fdecef"/><path d="M11.06713,10.02921,16,14.02388V7.22441c-7.31268-.111-12.49728,13.174-9.39505,21.71585C4.70967,30.699,6.21,31.434,9.96219,31.49007c1.74084.18307,5.69454-3.44224,6.03454-5.22711L16,19.55676C10.81213,19.55676,6.47745,19.55676,11.06713,10.02921Z" style="fill:#d9f07d"/><path d="M11.06713,10.02921c-4.58968,9.52755-.255,9.52755,4.93287,9.52755V14.02388Z" style="fill:#fef5f7"/><path d="M13.19193,0C9.96219,3.14474,12.28969,9.798,16,8.58434V7.22441Z" style="fill:#e6f490"/><path d="M10.69537,14.67579a1.73594,1.73594,0,0,0-.09621.56311,1.48983,1.48983,0,0,0,1.39289,1.5707,1.48984,1.48984,0,0,0,1.3929-1.5707,1.73621,1.73621,0,0,0-.09621-.56311Z" style="fill:#373f3f"/><path d="M11.42454,14.67579a.77373.77373,0,0,0-.1734.47277.79076.79076,0,1,0,1.58151,0,.77367.77367,0,0,0-.17334-.47277Z" style="fill:#f4a984"/><path d="M25.39505,28.94026c2.2523,1.23237,4.91139,1.69453,4.41967,2.63481-1.91237.89243-6.15924-.14238-7.77691-.085C25.79,31.434,27.29033,30.699,25.39505,28.94026Z" style="fill:#97ac59"/><path d="M16.00327,26.263c.34,1.78487,4.2937,5.41018,6.03454,5.22711A20.59786,20.59786,0,0,1,16,32V19.55676Z" style="fill:#fde2e6"/><path d="M20.93287,10.02921,16,14.02388V7.22441c7.31268-.111,12.49728,13.174,9.39505,21.71585,1.89528,1.75878.39491,2.49376-3.35724,2.54981-1.74084.18307-5.69454-3.44224-6.03454-5.22711L16,19.55676C21.18787,19.55676,25.52255,19.55676,20.93287,10.02921Z" style="fill:#cbeb6b"/><path d="M20.93287,10.02921c4.58968,9.52755.255,9.52755-4.93287,9.52755V14.02388Z" style="fill:#fdecef"/><path d="M18.80807,0C22.03781,3.14474,19.71031,9.798,16,8.58434V7.22441Z" style="fill:#d9f07d"/><path d="M21.30463,14.67579a1.73594,1.73594,0,0,1,.09621.56311,1.403,1.403,0,1,1-2.78579,0,1.73621,1.73621,0,0,1,.09621-.56311Z" style="fill:#2b3332"/><path d="M20.57546,14.67579a.77373.77373,0,0,1,.1734.47277.79076.79076,0,1,1-1.58151,0,.77367.77367,0,0,1,.17334-.47277Z" style="fill:#ea9c7a"/></svg>