<svg xmlns="http://www.w3.org/2000/svg" viewBox="0 0 32 32"><title>541-swadloon</title><path d="M6.605,28.867c-2.2523,1.23237-4.91139,1.69453-4.41967,2.6348,1.91237.89244,6.15924-.14238,7.77691-.085C6.21,31.36072,4.70967,30.62574,6.605,28.867Z" style="fill:#4eac5d"/><path d="M15.99673,26.18966c-.34,1.78486-4.2937,5.41018-6.03454,5.2271A20.59747,20.59747,0,0,0,16,31.9267V19.48346Z" style="fill:#ffd96c"/><path d="M11.06713,9.95591,16,13.95058V7.1511C8.68732,7.04015,3.50272,20.32512,6.605,28.867c-1.89528,1.75878-.39491,2.49376,3.35724,2.5498,1.74084.18308,5.69454-3.44224,6.03454-5.2271L16,19.48346C10.81213,19.48346,6.47745,19.48346,11.06713,9.95591Z" style="fill:#9acc2e"/><path d="M11.06713,9.95591c-4.58968,9.52755-.255,9.52755,4.93287,9.52755V13.95058Z" style="fill:#ffe28a"/><path d="M13.19193-.0733C9.96219,3.07143,12.28969,9.72472,16,8.511V7.1511Z" style="fill:#a2d336"/><path d="M10.69537,14.60249a1.73594,1.73594,0,0,0-.09621.56311,1.48983,1.48983,0,0,0,1.39289,1.5707,1.48984,1.48984,0,0,0,1.3929-1.5707,1.73621,1.73621,0,0,0-.09621-.56311Z" style="fill:#373f3f"/><path d="M11.42454,14.60249a.77371.77371,0,0,0-.1734.47277.79076.79076,0,0,0,1.58151,0,.77365.77365,0,0,0-.17334-.47277Z" style="fill:#edeeee"/><path d="M25.39505,28.867c2.2523,1.23237,4.91139,1.69453,4.41967,2.6348-1.91237.89244-6.15924-.14238-7.77691-.085C25.79,31.36072,27.29033,30.62574,25.39505,28.867Z" style="fill:#48a353"/><path d="M16.00327,26.18966c.34,1.78486,4.2937,5.41018,6.03454,5.2271A20.59747,20.59747,0,0,1,16,31.9267V19.48346Z" style="fill:#ffd04d"/><path d="M20.93287,9.95591,16,13.95058V7.1511c7.31268-.11095,12.49728,13.174,9.39505,21.71586,1.89528,1.75878.39491,2.49376-3.35724,2.5498-1.74084.18308-5.69454-3.44224-6.03454-5.2271L16,19.48346C21.18787,19.48346,25.52255,19.48346,20.93287,9.95591Z" style="fill:#93c427"/><path d="M20.93287,9.95591c4.58968,9.52755.255,9.52755-4.93287,9.52755V13.95058Z" style="fill:#ffd96c"/><path d="M18.80807-.0733C22.03781,3.07143,19.71031,9.72472,16,8.511V7.1511Z" style="fill:#9acc2e"/><path d="M21.30463,14.60249a1.73594,1.73594,0,0,1,.09621.56311,1.403,1.403,0,1,1-2.78579,0,1.73621,1.73621,0,0,1,.09621-.56311Z" style="fill:#2b3332"/><path d="M20.57546,14.60249a.77371.77371,0,0,1,.1734.47277.79076.79076,0,0,1-1.58151,0,.77365.77365,0,0,1,.17334-.47277Z" style="fill:#e3e5e5"/></svg>