<svg xmlns="http://www.w3.org/2000/svg" viewBox="0 0 32 32"><path d="M6.605 28.867c-2.252 1.232-4.911 1.695-4.42 2.635 1.913.892 6.16-.143 7.777-.085-3.752-.056-5.252-.791-3.357-2.55z" fill="#4eac5d"/><path d="M15.997 26.19c-.34 1.785-4.294 5.41-6.035 5.227a20.597 20.597 0 006.038.51V19.483z" fill="#ffd96c"/><path d="M11.067 9.956L16 13.95v-6.8C8.687 7.04 3.503 20.324 6.605 28.866c-1.895 1.759-.395 2.494 3.357 2.55 1.741.183 5.695-3.442 6.035-5.227L16 19.483c-5.188 0-9.523 0-4.933-9.527z" fill="#9acc2e"/><path d="M11.067 9.956c-4.59 9.527-.255 9.527 4.933 9.527v-5.532z" fill="#ffe28a"/><path d="M13.192-.073C9.962 3.07 12.29 9.725 16 8.51V7.15z" fill="#a2d336"/><path d="M10.695 14.602a1.736 1.736 0 00-.096.564 1.49 1.49 0 001.393 1.57 1.49 1.49 0 001.393-1.57 1.736 1.736 0 00-.096-.564z" fill="#373f3f"/><path d="M11.425 14.602a.774.774 0 00-.174.473.79.79 0 001.582 0 .774.774 0 00-.174-.473z" fill="#edeeee"/><path d="M25.395 28.867c2.252 1.232 4.911 1.695 4.42 2.635-1.913.892-6.16-.143-7.777-.085 3.752-.056 5.252-.791 3.357-2.55z" fill="#48a353"/><path d="M16.003 26.19c.34 1.785 4.294 5.41 6.035 5.227a20.597 20.597 0 01-6.038.51V19.483z" fill="#ffd04d"/><path d="M20.933 9.956L16 13.95v-6.8c7.313-.11 12.497 13.174 9.395 21.716 1.895 1.759.395 2.494-3.357 2.55-1.741.183-5.695-3.442-6.035-5.227L16 19.483c5.188 0 9.523 0 4.933-9.527z" fill="#93c427"/><path d="M20.933 9.956c4.59 9.527.255 9.527-4.933 9.527v-5.532z" fill="#ffd96c"/><path d="M18.808-.073C22.038 3.07 19.71 9.725 16 8.51V7.15z" fill="#9acc2e"/><path d="M21.305 14.602a1.736 1.736 0 01.096.564 1.403 1.403 0 11-2.786 0 1.736 1.736 0 01.096-.564z" fill="#2b3332"/><path d="M20.575 14.602a.774.774 0 01.174.473.79.79 0 01-1.582 0 .774.774 0 01.174-.473z" fill="#e3e5e5"/></svg>