<svg xmlns="http://www.w3.org/2000/svg" viewBox="0 0 32 32"><title>543-venipede-shiny</title><path d="M2.99068,27.62035c.55763,2.85791,2.246,3.211,4.07255,3.25809a4.89874,4.89874,0,0,1,2.2263-4.07256C6.30762,27.86787,4.05125,28.27983,2.99068,27.62035Z" style="fill:#434c4b"/><path d="M4.40244,13.71935c-.063.04538-.1132.09549-.17468.14144a5.49391,5.49391,0,0,1,2.1244,5.48735c-.48071,2.97542-2.92242,5.05591-5.45369,4.64691a3.9405,3.9405,0,0,1-.65172-.186,5.6035,5.6035,0,0,0,2.74393,3.81134c1.06057.65948,3.31694.24752,6.29885-.81447A5.38472,5.38472,0,0,1,8.638,20.17559v-.02272a8.61485,8.61485,0,0,1,5.32142-7.38378C13.94365,10.90626,14.71471,8.89444,16,6.49733V1.12156C11.13578,1.12156,7.05525,5.66374,4.40244,13.71935Z" style="fill:#e56142"/><path d="M4.22776,13.86079c-.31873.23827-.60972.48656-.88843.73888a4.78471,4.78471,0,0,1,1.56626,4.51479C4.49328,21.66655,2.399,23.451.22777,23.10027c-.04454-.0072-.08357-.02753-.12747-.03642.03932.25359.08561.50371.14645.74516a3.9405,3.9405,0,0,0,.65172.186c2.53127.409,4.973-1.67149,5.45369-4.64691A5.49391,5.49391,0,0,0,4.22776,13.86079Z" style="fill:#505957"/><path d="M4.90559,19.11446a4.78471,4.78471,0,0,0-1.56626-4.51479,9.44069,9.44069,0,0,0-3.239,8.46418c.0439.00889.08293.02922.12747.03642C2.399,23.451,4.49328,21.66655,4.90559,19.11446Z" style="fill:#e56142"/><path d="M13.95938,12.76909A8.61485,8.61485,0,0,0,8.638,20.15287v.02272C9.79621,18.09362,12.17722,16.0163,16,14.341V6.49733C14.71471,8.89444,13.94365,10.90626,13.95938,12.76909Z" style="fill:#505957"/><path d="M8.299,25.36356l3.16253.68206L16,30.38968V14.341C8.84652,17.476,6.69036,22.01683,8.299,25.36356Z" style="fill:#eb6b48"/><path d="M16,30.38968l-4.53843-4.34406L8.299,25.36356a5.75289,5.75289,0,0,0,.99049,1.44232C10.56939,29.21943,13.85084,30.38968,16,30.38968Z" style="fill:#434c4b"/><path d="M9.80539,19.421c-1.16348,0-2.15164,1.12966-2.55,2.71767a8.25625,8.25625,0,0,0,5.29221,1.541C12.54762,21.32764,11.31984,19.421,9.80539,19.421Z" style="fill:#f57552"/><path d="M7.06323,23.67964c0,2.352,1.2277,4.25874,2.74216,4.25874s2.74223-1.90673,2.74223-4.25874a8.25625,8.25625,0,0,1-5.29221-1.541A6.32828,6.32828,0,0,0,7.06323,23.67964Z" style="fill:#ffd96c"/><path d="M8.299,24.36234c0,1.22954.635,2.22631,1.41834,2.22631s1.4184-.99677,1.4184-2.22631a3.34551,3.34551,0,0,0-.09366-.77678,8.44063,8.44063,0,0,1-2.409-.64289A3.04155,3.04155,0,0,0,8.299,24.36234Z" style="fill:#373f3f"/><circle cx="9.70457" cy="24.31187" r="0.63223" style="fill:#edeeee"/><path d="M7.95851,10.13618c.59123-.78673-4.3368-5.83142-5.88436-6.1572-.62228,0,1.86827,3.74373,4.66992,7.48745l.00007-.00014C6.77308,10.99469,7.12244,10.54716,7.95851,10.13618Z" style="fill:#f57552"/><path d="M11.70746,13.71928c-1.31042-2.11247-2.95721-3.97014-3.74895-3.5831-.83607.411-1.18543.85851-1.21437,1.33011l-.00007.00014c.95619,1.27775,1.94675,2.55167,2.864,3.68057C10.21608,14.03159,10.92927,13.65075,11.70746,13.71928Z" style="fill:#5c6664"/><path d="M11.70746,13.71928c-.77819-.06853-1.49138.31231-2.09934,1.42772,1.7703,2.17859,3.2626,3.80661,3.67252,3.80661C14.129,18.5389,13.11153,15.98264,11.70746,13.71928Z" style="fill:#f57552"/><path d="M29.00932,27.62035c-.55763,2.85791-2.246,3.211-4.07255,3.25809a4.89874,4.89874,0,0,0-2.2263-4.07256C25.69238,27.86787,27.94875,28.27983,29.00932,27.62035Z" style="fill:#373f3f"/><path d="M27.59756,13.71935c.063.04538.1132.09549.17468.14144a5.49391,5.49391,0,0,0-2.1244,5.48735c.48071,2.97542,2.92242,5.05591,5.45369,4.64691a3.9405,3.9405,0,0,0,.65172-.186,5.6035,5.6035,0,0,1-2.74393,3.81134c-1.06057.65948-3.31694.24752-6.29885-.81447a5.38472,5.38472,0,0,0,.65157-6.63029v-.02272a8.61485,8.61485,0,0,0-5.32142-7.38378C18.05635,10.90626,17.28529,8.89444,16,6.49733V1.12156C20.86422,1.12156,24.94475,5.66374,27.59756,13.71935Z" style="fill:#dd583e"/><path d="M27.77224,13.86079c.31873.23827.60972.48656.88843.73888a4.78471,4.78471,0,0,0-1.56626,4.51479c.41231,2.55209,2.50664,4.33658,4.67782,3.98581.04454-.0072.08357-.02753.12747-.03642-.03932.25359-.08561.50371-.14645.74516a3.9405,3.9405,0,0,1-.65172.186c-2.53127.409-4.973-1.67149-5.45369-4.64691A5.49391,5.49391,0,0,1,27.77224,13.86079Z" style="fill:#434c4b"/><path d="M27.09441,19.11446a4.78471,4.78471,0,0,1,1.56626-4.51479,9.44069,9.44069,0,0,1,3.239,8.46418c-.0439.00889-.08293.02922-.12747.03642C29.60105,23.451,27.50672,21.66655,27.09441,19.11446Z" style="fill:#dd583e"/><path d="M18.04062,12.76909A8.61485,8.61485,0,0,1,23.362,20.15287v.02272C22.20379,18.09362,19.82278,16.0163,16,14.341V6.49733C17.28529,8.89444,18.05635,10.90626,18.04062,12.76909Z" style="fill:#434c4b"/><path d="M23.701,25.36356l-3.16253.68206L16,30.38968V14.341C23.15348,17.476,25.30964,22.01683,23.701,25.36356Z" style="fill:#e56142"/><path d="M16,30.38968l4.53843-4.34406,3.16253-.68206a5.75289,5.75289,0,0,1-.99049,1.44232C21.43061,29.21943,18.14916,30.38968,16,30.38968Z" style="fill:#373f3f"/><path d="M22.19461,19.421c1.16348,0,2.15164,1.12966,2.55,2.71767a8.25625,8.25625,0,0,1-5.29221,1.541C19.45238,21.32764,20.68016,19.421,22.19461,19.421Z" style="fill:#eb6b48"/><path d="M24.93677,23.67964c0,2.352-1.2277,4.25874-2.74216,4.25874s-2.74223-1.90673-2.74223-4.25874a8.25625,8.25625,0,0,0,5.29221-1.541A6.32828,6.32828,0,0,1,24.93677,23.67964Z" style="fill:#ffd04d"/><path d="M23.701,24.36234c0,1.22954-.635,2.22631-1.41834,2.22631s-1.4184-.99677-1.4184-2.22631a3.34551,3.34551,0,0,1,.09366-.77678,8.44063,8.44063,0,0,0,2.409-.64289A3.04155,3.04155,0,0,1,23.701,24.36234Z" style="fill:#2b3332"/><circle cx="22.29543" cy="24.31187" r="0.63223" style="fill:#e3e5e5"/><path d="M24.04149,10.13618c-.59123-.78673,4.3368-5.83142,5.88436-6.1572.62228,0-1.86827,3.74373-4.66992,7.48745l-.00007-.00014C25.22692,10.99469,24.87756,10.54716,24.04149,10.13618Z" style="fill:#eb6b48"/><path d="M20.29254,13.71928c1.31042-2.11247,2.95721-3.97014,3.749-3.5831.83607.411,1.18543.85851,1.21437,1.33011l.00007.00014c-.95619,1.27775-1.94675,2.55167-2.864,3.68057C21.78392,14.03159,21.07073,13.65075,20.29254,13.71928Z" style="fill:#505957"/><path d="M20.29254,13.71928c.77819-.06853,1.49138.31231,2.09934,1.42772-1.7703,2.17859-3.2626,3.80661-3.67252,3.80661C17.871,18.5389,18.88847,15.98264,20.29254,13.71928Z" style="fill:#eb6b48"/></svg>