<svg xmlns="http://www.w3.org/2000/svg" viewBox="0 0 32 32"><defs><style>.a{fill:#c6b7e9;}.b{fill:#58458c;}.c{fill:#e8803a;}.d{fill:#9179c6;}.e{fill:#373f3f;}.f{fill:#b8a5e4;}.g{fill:#534184;}.h{fill:#dd7731;}.i{fill:#866eba;}.j{fill:#2b3332;}.k{fill:#604893;}</style></defs><title>544-whirlipede-shiny</title><path class="a" d="M15.79584,5.97675a10.06479,10.06479,0,0,0,0,20.12958c.14964,0,.29515-.0159.44314-.02239V5.99913C16.091,5.99264,15.94548,5.97675,15.79584,5.97675Z"/><path class="b" d="M9.73938,16.0415a6.49959,6.49959,0,0,0,6.4996,6.4996V9.5419A6.49964,6.49964,0,0,0,9.73938,16.0415Z"/><path class="c" d="M14.1305,15.19137A2.27,2.27,0,0,0,16.239,18.3178V15.19137Z"/><path class="d" d="M14.1305,15.19137H16.239V13.76528A2.274,2.274,0,0,0,14.1305,15.19137Z"/><polygon class="e" points="15.296 15.191 16.239 16.697 16.239 15.191 15.296 15.191"/><path class="f" d="M16.68212,5.97675a10.06479,10.06479,0,0,1,0,20.12958c-.14963,0-.29514-.0159-.44314-.02239V5.99913C16.387,5.99264,16.53249,5.97675,16.68212,5.97675Z"/><path class="g" d="M22.73859,16.0415A6.49959,6.49959,0,0,1,16.239,22.5411V9.5419A6.49964,6.49964,0,0,1,22.73859,16.0415Z"/><path class="h" d="M18.34746,15.19137A2.27,2.27,0,0,1,16.239,18.3178V15.19137Z"/><path class="i" d="M18.34746,15.19137H16.239V13.76528A2.274,2.274,0,0,1,18.34746,15.19137Z"/><polygon class="j" points="17.182 15.191 16.239 16.697 16.239 15.191 17.182 15.191"/><path class="d" d="M10.33837,8.55465l-2.3585,2.907c-.58541-1.659-.61851-3.13763.38394-4.27822Z"/><path class="d" d="M6.77416,17.27355l1.17557,3.554C6.237,20.42565,4.9741,19.6559,4.55442,18.19654Z"/><path class="i" d="M25.20919,14.70765l-1.10978-3.57513c1.705.43348,2.9535,1.22641,3.34617,2.69327Z"/><path class="i" d="M21.91609,23.31787l2.47151-2.81154c.51941,1.6808.49407,3.15961-.55267,4.25971Z"/><path class="i" d="M25.64125.02077a9.60528,9.60528,0,0,0-3.41,1.4663l2.07455.54786Z"/><path class="b" d="M24.30577,2.03493l-2.07455-.54786a16.3712,16.3712,0,0,0-1.749,1.36071l2.83386.67976Z"/><path class="i" d="M16.84232,6.76718l2.65585.65815.713-1.70027-2.15139-.43024Q17.44986,5.98926,16.84232,6.76718Z"/><path class="b" d="M22.48986,4.77362l-3.188-.80865q-.62215.62472-1.242,1.32985l2.15139.43024,2.08424-.65823Z"/><path class="i" d="M23.31605,3.52754l-2.83386-.67976c-.39424.34412-.78755.72274-1.18035,1.11719l3.188.80865Z"/><path class="d" d="M6.11205,32.02077a9.60514,9.60514,0,0,0,3.39921-1.4912l-2.0785-.53268Z"/><path class="k" d="M7.43276,29.99689l2.0785.53268a16.37092,16.37092,0,0,0,1.739-1.37348l-2.83876-.659Z"/><path class="d" d="M14.86139,25.21018l-2.66059-.63871-.70058,1.70544,2.15448.41449Q14.25956,25.99252,14.86139,25.21018Z"/><path class="k" d="M9.22859,27.245l3.19385.78531q.61756-.62925,1.23226-1.3389l-2.15448-.41449-2.07937.67345Z"/><path class="d" d="M8.41154,28.49709l2.83876.659c.3917-.347.78223-.72848,1.17214-1.12579L9.22859,27.245Z"/></svg>