<svg xmlns="http://www.w3.org/2000/svg" viewBox="0 0 32 32"><defs><style>.a{fill:#c6b7e9;}.b{fill:#5c6664;}.c{fill:#f0c13e;}.d{fill:#d4c9ef;}.e{fill:#373f3f;}.f{fill:#b8a5e4;}.g{fill:#505957;}.h{fill:#e8ba36;}.i{fill:#2b3332;}.j{fill:#687271;}</style></defs><title>544-whirlipede</title><path class="a" d="M15.79584,5.956a10.06479,10.06479,0,0,0,0,20.12958c.14964,0,.29515-.0159.44314-.02239V5.97836C16.091,5.97188,15.94548,5.956,15.79584,5.956Z"/><path class="b" d="M9.73938,16.02073a6.4996,6.4996,0,0,0,6.4996,6.49961V9.52113A6.49964,6.49964,0,0,0,9.73938,16.02073Z"/><path class="c" d="M14.1305,15.1706A2.27,2.27,0,0,0,16.239,18.297V15.1706Z"/><path class="d" d="M14.1305,15.1706H16.239V13.74451A2.274,2.274,0,0,0,14.1305,15.1706Z"/><polygon class="e" points="15.296 15.171 16.239 16.676 16.239 15.171 15.296 15.171"/><path class="f" d="M16.68212,5.956a10.06479,10.06479,0,0,1,0,20.12958c-.14963,0-.29514-.0159-.44314-.02239V5.97836C16.387,5.97188,16.53249,5.956,16.68212,5.956Z"/><path class="g" d="M22.73859,16.02073A6.4996,6.4996,0,0,1,16.239,22.52034V9.52113A6.49964,6.49964,0,0,1,22.73859,16.02073Z"/><path class="h" d="M18.34746,15.1706A2.27,2.27,0,0,1,16.239,18.297V15.1706Z"/><path class="a" d="M18.34746,15.1706H16.239V13.74451A2.274,2.274,0,0,1,18.34746,15.1706Z"/><polygon class="i" points="17.182 15.171 16.239 16.676 16.239 15.171 17.182 15.171"/><path class="d" d="M10.33837,8.53388l-2.3585,2.907c-.58541-1.659-.61851-3.13763.38394-4.27822Z"/><path class="d" d="M6.77416,17.25278l1.17557,3.554c-1.71269-.40194-2.97563-1.17169-3.39531-2.631Z"/><path class="a" d="M25.20919,14.68688l-1.10978-3.57513c1.705.43349,2.9535,1.22641,3.34617,2.69327Z"/><path class="a" d="M21.91609,23.2971l2.47151-2.81154c.51941,1.6808.49407,3.15961-.55267,4.25971Z"/><path class="a" d="M25.64125,0a9.60528,9.60528,0,0,0-3.41,1.4663l2.07455.54786Z"/><path class="b" d="M24.30577,2.01416,22.23122,1.4663a16.3712,16.3712,0,0,0-1.749,1.36071l2.83386.67976Z"/><path class="a" d="M16.84232,6.74641l2.65585.65815.713-1.70027-2.15139-.43024Q17.44986,5.96849,16.84232,6.74641Z"/><path class="b" d="M22.48986,4.75285l-3.188-.80865q-.62215.62472-1.242,1.32985l2.15139.43024,2.08424-.65822Z"/><path class="a" d="M23.31605,3.50677,20.48219,2.827c-.39424.34412-.78755.72274-1.18035,1.11719l3.188.80865Z"/><path class="d" d="M6.11205,32a9.60514,9.60514,0,0,0,3.39921-1.4912l-2.0785-.53268Z"/><path class="j" d="M7.43276,29.97612l2.0785.53268a16.37092,16.37092,0,0,0,1.739-1.37348l-2.83876-.659Z"/><path class="d" d="M14.86139,25.18941,12.2008,24.5507l-.70058,1.70544,2.15448.41449Q14.25956,25.97175,14.86139,25.18941Z"/><path class="j" d="M9.22859,27.22423l3.19385.7853q.61756-.62925,1.23226-1.3389l-2.15448-.41449-2.07937.67346Z"/><path class="d" d="M8.41154,28.47632l2.83876.659c.3917-.347.78223-.72848,1.17214-1.12579l-3.19385-.7853Z"/></svg>