<svg xmlns="http://www.w3.org/2000/svg" viewBox="0 0 32 32"><path d="M13.964 8.881l.489-5.246A5.488 5.488 0 0015.511 1.3c-3.009 0-4.134 2.583-4.074 6.074.127 1.69.93 2.258 2.527 1.508z" fill="#b93d4f"/><path d="M13.293 14.865a3.687 3.687 0 000-3.243c-.882.565-1.65.327-2.219-1.348a4.134 4.134 0 00-.154 3.004 1.844 1.844 0 002.373 1.587z" fill="#993147"/><path d="M12.269 17.493c.5-.157.891-.804 1.024-2.628a1.844 1.844 0 01-2.373-1.587c-.289.957-1.025 1.645.055 4.177.205.346.652.336 1.294.038z" fill="#912b41"/><path d="M11.507 28.864A22.474 22.474 0 0010.95 32c1.421 0 2.76-.012 3.087-3.354-1.222.456-2.245.712-2.53.218z" fill="#89283b"/><path d="M11.8 27.972l-.119.022c-.05.276-.112.571-.175.87.286.494 1.31.238 2.53-.218.033-.336.06-.693.071-1.1-1.08.634-1.901.86-2.307.426z" fill="#505957"/><path d="M12.269 17.493c-.642.298-1.089.308-1.294-.039-2.421 2.304-1.67 6.241.762 8.79.18.188.104.886-.056 1.75l.119-.022c.406.434 1.228.208 2.307-.426-2.096-2.882-3.724-5.912-1.838-10.053z" fill="#89283b"/><path d="M13.293 11.622a4.496 4.496 0 00.671-2.74c-1.598.75-2.4.18-2.527-1.51a3.187 3.187 0 00-.363 2.902c.568 1.675 1.337 1.913 2.219 1.348z" fill="#a8364c"/><path d="M15.511 1.299a5.488 5.488 0 01-1.058 2.336l-.489 5.246a4.496 4.496 0 01-.671 2.741 3.687 3.687 0 010 3.243c-.133 1.824-.525 2.471-1.024 2.628-1.886 4.141-.258 7.171 1.838 10.053a5.524 5.524 0 001.792 1.02c.034.006.067.002.1.007V1.248a4.145 4.145 0 00-.488.05z" fill="#5c6664"/><path d="M12.988 6.343a4.371 4.371 0 00.048.608A7.434 7.434 0 0016 9.301V2.524c-1.669.048-3.012 1.735-3.012 3.82z" fill="#c84054"/><path d="M15.67 8.694a10.246 10.246 0 01-2.634-2.35C12.903 8.07 14.08 9.568 16 10.69V8.807a1.746 1.746 0 01-.33-.113z" fill="#687271"/><path d="M12.538 10.362l-.46-1.302c.025-.49.97-.442.944.048z" fill="#bf538e"/><path d="M12.177 13.1l-.46-1.302c.025-.49.97-.442.945.047z" fill="#b54e8b"/><path d="M11.895 15.857l-.46-1.302c.025-.49.969-.442.944.048z" fill="#ad4586"/><path d="M11.593 18.717l-.46-1.302c.025-.49.97-.442.944.048z" fill="#a53f83"/><path d="M12.039 2.046a7.293 7.293 0 01-.759 1.442l.534.725a4.774 4.774 0 00.849-1.523 5.161 5.161 0 00-.624-.644z" fill="#c25e94"/><path d="M8.945.309c.095.144.442.618.88 1.21a3.695 3.695 0 00.448-.826C9.317.06 8.55-.29 8.945.31z" fill="#d84459"/><path d="M11.204 1.358a17.12 17.12 0 00-.931-.665 3.695 3.695 0 01-.448.827l.687.928a5.889 5.889 0 00.692-1.09z" fill="#c25e94"/><path d="M11.204 1.358a5.889 5.889 0 01-.692 1.09l.768 1.04a7.293 7.293 0 00.759-1.442c-.249-.224-.536-.46-.835-.688zm1.64 1.726a.664.664 0 00-.181-.394 4.774 4.774 0 01-.849 1.523 9.086 9.086 0 01.613.874 3.17 3.17 0 00.417-2.003z" fill="#d84459"/><path d="M12.844 3.084a3.17 3.17 0 01-.417 2.003l1.537-.822a7.871 7.871 0 00.346-2.11 2.7 2.7 0 00-1.466.93z" fill="#c25e94"/><path d="M14.31 2.154a7.871 7.871 0 01-.346 2.11l.882 1.217.394-1.216c-.244-1.05-.495-2.059-.93-2.11z" fill="#d84459"/><path d="M14.029 8.37c.416.24.876.219 1.04-.043a10.25 10.25 0 01-1.19-1.087.457.457 0 00-.332.196c-.156.271.059.69.482.933z" fill="#fca15e"/><path d="M14.096 8.187l.506-.24.005-.008c-.168-.15-.339-.31-.513-.483l.002.011z" fill="#373f3f"/><path d="M18.036 8.881l-.489-5.246A5.488 5.488 0 0116.489 1.3c3.009 0 4.134 2.583 4.074 6.074-.127 1.69-.93 2.258-2.527 1.508z" fill="#a8364c"/><path d="M18.707 14.865a3.687 3.687 0 010-3.243c.882.565 1.65.327 2.219-1.348a4.134 4.134 0 01.154 3.004 1.844 1.844 0 01-2.373 1.587z" fill="#912b41"/><path d="M19.731 17.493c-.5-.157-.891-.804-1.024-2.628a1.844 1.844 0 002.373-1.587c.289.957 1.025 1.645-.055 4.177-.205.346-.652.336-1.294.038z" fill="#89283b"/><path d="M20.493 28.864A22.474 22.474 0 0121.05 32c-1.421 0-2.76-.012-3.087-3.354 1.222.456 2.245.712 2.53.218z" fill="#7f1e32"/><path d="M20.2 27.972l.119.022c.05.276.112.571.175.87-.286.494-1.31.238-2.53-.218a15.612 15.612 0 01-.07-1.1c1.078.634 1.9.86 2.306.426z" fill="#434c4b"/><path d="M19.731 17.493c.642.298 1.089.308 1.294-.039 2.421 2.304 1.67 6.241-.762 8.79-.18.188-.104.886.056 1.75l-.119-.022c-.406.434-1.228.208-2.307-.426 2.096-2.882 3.724-5.912 1.838-10.053z" fill="#7f1e32"/><path d="M18.707 11.622a4.496 4.496 0 01-.671-2.74c1.598.75 2.4.18 2.527-1.51a3.187 3.187 0 01.363 2.902c-.568 1.675-1.337 1.913-2.219 1.348z" fill="#993147"/><path d="M16.489 1.299a5.488 5.488 0 001.058 2.336l.489 5.246a4.496 4.496 0 00.671 2.741 3.687 3.687 0 000 3.243c.133 1.824.525 2.471 1.024 2.628 1.886 4.141.258 7.171-1.838 10.053a5.524 5.524 0 01-1.792 1.02c-.034.006-.067.002-.1.007V1.248a4.145 4.145 0 01.488.05z" fill="#505957"/><path d="M19.012 6.343a4.371 4.371 0 01-.048.608A7.434 7.434 0 0116 9.301V2.524c1.669.048 3.012 1.735 3.012 3.82z" fill="#b93d4f"/><path d="M16.33 8.694a10.246 10.246 0 002.634-2.35C19.097 8.07 17.92 9.568 16 10.69V8.807a1.746 1.746 0 00.33-.113z" fill="#5c6664"/><path d="M19.462 10.362l.46-1.302c-.025-.49-.97-.442-.944.048z" fill="#b54e8b"/><path d="M19.823 13.1l.46-1.302c-.025-.49-.97-.442-.945.047z" fill="#ad4586"/><path d="M20.105 15.857l.46-1.302c-.025-.49-.969-.442-.944.048z" fill="#a53f83"/><path d="M20.407 18.717l.46-1.302c-.025-.49-.97-.442-.944.048z" fill="#9b3a7d"/><path d="M19.961 2.046a7.293 7.293 0 00.759 1.442l-.534.725a4.774 4.774 0 01-.849-1.523 5.161 5.161 0 01.624-.644z" fill="#bf538e"/><path d="M23.055.309c-.095.144-.442.618-.88 1.21a3.695 3.695 0 01-.448-.826C22.683.06 23.45-.29 23.055.31z" fill="#c84054"/><path d="M20.796 1.358a17.1 17.1 0 01.931-.665 3.695 3.695 0 00.448.827l-.687.928a5.889 5.889 0 01-.692-1.09z" fill="#bf538e"/><path d="M20.796 1.358a5.889 5.889 0 00.692 1.09l-.768 1.04a7.293 7.293 0 01-.759-1.442c.249-.224.536-.46.835-.688zm-1.64 1.726a.664.664 0 01.181-.394 4.774 4.774 0 00.849 1.523 9.086 9.086 0 00-.613.874 3.17 3.17 0 01-.417-2.003z" fill="#c84054"/><path d="M19.156 3.084a3.17 3.17 0 00.417 2.003l-1.537-.822a7.871 7.871 0 01-.346-2.11 2.7 2.7 0 011.466.93z" fill="#bf538e"/><path d="M17.69 2.154a7.871 7.871 0 00.346 2.11l-.882 1.217-.394-1.216c.244-1.05.495-2.059.93-2.11z" fill="#c84054"/><path d="M17.971 8.37c-.416.24-.876.219-1.04-.043a10.25 10.25 0 001.19-1.087.457.457 0 01.332.196c.156.271-.059.69-.482.933z" fill="#f79654"/><path d="M17.904 8.187l-.506-.24-.005-.008c.168-.15.339-.31.513-.483l-.002.011z" fill="#2b3332"/></svg>