<svg xmlns="http://www.w3.org/2000/svg" viewBox="0 0 32 32"><path d="M5.036 16.822c0 3.364 4.909 6.091 10.964 6.091V10.731c-6.055 0-10.964 2.727-10.964 6.091z" fill="#f7f7f7"/><ellipse cx="11.043" cy="15.876" rx="1.104" ry="1.922" fill="#f79654"/><ellipse cx="11.195" cy="15.378" rx=".457" ry=".815" fill="#fff"/><path d="M12.417 19.135c-6.361-4.572-6.894 3.955-2.25 3.955-.125 2.314 2.036 2.558 3.75 1.751-.135.753.362 1.695 2.083 1.695v-9.384c-1.93 0-2.967.478-3.583 1.983z" fill="#c8dac8"/><path d="M14.202 7.882c-5.33-.78-8.87 4.816-2.55 5.006.282 1.225 3.68 1.066 4.348 1.066v-8.49c-1.432 0-2.97 1.516-1.798 2.418z" fill="#d5e1cf"/><path d="M8.91 15.667c.64.745 1.6 4.606.61 5.444a8.187 8.187 0 01-1.244-1.409l-.24 1.028-.534-.647-.761 1.028c-4.018-.006-6.842-1.35-6.738-5.977a19.765 19.765 0 008.908.533z" fill="#53bf8c"/><path d="M26.964 16.822c0 3.364-4.909 6.091-10.964 6.091V10.731c6.055 0 10.964 2.727 10.964 6.091z" fill="#edeeee"/><ellipse cx="20.957" cy="15.876" rx="1.104" ry="1.922" fill="#ef8c48"/><ellipse cx="20.805" cy="15.378" rx=".457" ry=".815" fill="#f7f7f7"/><path d="M19.583 19.135c6.361-4.572 6.894 3.955 2.25 3.955.125 2.314-2.036 2.558-3.75 1.751.135.753-.362 1.695-2.083 1.695v-9.384c1.93 0 2.967.478 3.583 1.983z" fill="#bad3c1"/><path d="M17.798 7.882c5.33-.78 8.87 4.816 2.55 5.006-.282 1.225-3.68 1.066-4.348 1.066v-8.49c1.432 0 2.97 1.516 1.798 2.418z" fill="#c8dac8"/><path d="M23.09 15.667c-.64.745-1.6 4.606-.61 5.444a8.187 8.187 0 001.244-1.409l.24 1.028.534-.647.761 1.028c4.018-.006 6.842-1.35 6.738-5.977a19.765 19.765 0 01-8.908.533z" fill="#46b080"/></svg>