<svg xmlns="http://www.w3.org/2000/svg" viewBox="0 0 32 32"><title>546-cottonee</title><path d="M5.03618,16.82209c0,3.36393,4.90867,6.091,10.96382,6.091v-12.182C9.94485,10.73105,5.03618,13.45809,5.03618,16.82209Z" style="fill:#f7f7f7"/><ellipse cx="11.04275" cy="15.87626" rx="1.104" ry="1.92248" style="fill:#f79654"/><ellipse cx="11.19503" cy="15.37761" rx="0.45683" ry="0.81473" style="fill:#fff"/><path d="M12.41663,19.1348c-6.36089-4.57191-6.89385,3.95553-2.24948,3.95553-.1248,2.31415,2.03583,2.55788,3.74979,1.75115-.13445.75272.36169,1.69409,2.08306,1.69409v-9.384C14.06922,17.15156,13.03308,17.63,12.41663,19.1348Z" style="fill:#c8dac8"/><path d="M14.20249,7.88182c-5.32967-.78044-8.87,4.81571-2.55066,5.006C11.93432,14.1128,15.33246,13.9538,16,13.9538V5.46443C14.56835,5.46443,13.03,6.98026,14.20249,7.88182Z" style="fill:#d5e1cf"/><path d="M8.91089,15.66688c.63863.74508,1.5989,4.60633.60911,5.44385a8.1874,8.1874,0,0,1-1.24388-1.40855L8.03531,20.73l-.533-.64717L6.741,21.11073C2.72272,21.1052-.10132,19.76088.00279,15.13392A19.7651,19.7651,0,0,0,8.91089,15.66688Z" style="fill:#53bf8c"/><path d="M26.96382,16.82209c0,3.36393-4.90867,6.091-10.96382,6.091v-12.182C22.05515,10.73105,26.96382,13.45809,26.96382,16.82209Z" style="fill:#edeeee"/><ellipse cx="20.95725" cy="15.87626" rx="1.104" ry="1.92248" style="fill:#ef8c48"/><ellipse cx="20.80497" cy="15.37761" rx="0.45683" ry="0.81473" style="fill:#f7f7f7"/><path d="M19.58337,19.1348c6.36089-4.57191,6.89385,3.95553,2.24948,3.95553.1248,2.31415-2.03583,2.55788-3.74979,1.75115.13445.75272-.36169,1.69409-2.08306,1.69409v-9.384C17.93078,17.15156,18.96692,17.63,19.58337,19.1348Z" style="fill:#bad3c1"/><path d="M17.79751,7.88182c5.32967-.78044,8.87005,4.81571,2.55066,5.006C20.06568,14.1128,16.66754,13.9538,16,13.9538V5.46443C17.43165,5.46443,18.97,6.98026,17.79751,7.88182Z" style="fill:#c8dac8"/><path d="M23.08911,15.66688c-.63863.74508-1.5989,4.60633-.60911,5.44385a8.1874,8.1874,0,0,0,1.24388-1.40855L23.96469,20.73l.533-.64717.76138,1.02786c4.01825-.00553,6.84229-1.34985,6.73818-5.97681A19.7651,19.7651,0,0,1,23.08911,15.66688Z" style="fill:#46b080"/></svg>