<svg xmlns="http://www.w3.org/2000/svg" viewBox="0 0 32 32"><defs><style>.a{fill:#efd4a7;}.b{fill:#b38658;}.c{fill:#60c46f;}.d{fill:#fca15e;}.e{fill:#f7f7f7;}.f{fill:#f5deb9;}.g{fill:#fce8cc;}.h{fill:#eacea1;}.i{fill:#a7794c;}.j{fill:#54b668;}.k{fill:#f79654;}.l{fill:#edeeee;}</style></defs><title>547-whimsicott</title><path class="a" d="M14.57263,3.14764c-1.89148-3.97736-11.08948.39679-9.198,4.37414-.855-1.53192-2.61285-.55078-1.75781.98114-4.21069,3.63977-5.07019,7.92993-.85852,13.20423-1.98163.408-1.69543,1.79791.28619,1.38989C1.81238,28.07714,6.96027,32.06646,16,27.29284V1.5844A1.40631,1.40631,0,0,0,14.57263,3.14764Z"/><path class="b" d="M13.62384,12.623a7.32806,7.32806,0,0,0-2.68951,2.70685c2.09222.61932,2.41186,3.55652.04083,4.90558l1.96228,1.75781a3.288,3.288,0,0,0-2.94336,0,5.08144,5.08144,0,0,0,2.45276,2.24841c.56274,1.36945-1.26727,4.21063-.81757,6.17945a3.31339,3.31339,0,0,0,2.41193-1.39649H16V12.99194Z"/><path class="c" d="M10.93433,15.32989A7.32806,7.32806,0,0,1,13.62384,12.623L9.99408,12.0595c-5.06213,3.30475-4.16974,8.62561.98108,8.176C13.34619,18.88641,13.02655,15.94921,10.93433,15.32989Z"/><ellipse class="d" cx="13.85721" cy="17.98706" rx="0.83804" ry="1.4308"/><ellipse class="e" cx="13.91427" cy="17.66002" rx="0.29042" ry="0.69496"/><path class="f" d="M13.91425,21.748c-1.50831-2.12573-4.4516.54632-1.38562,1.55347-.23584.66607,1.14984,1.15661,1.38562.49053A2.22453,2.22453,0,0,0,16,25.385V21.04125A2.98283,2.98283,0,0,0,13.91425,21.748Z"/><path class="g" d="M14.69525,9.32049c0-1.7442-1.67608-1.7442-1.67608,0C10.4248,7.88146,8.593,11.184,11.18732,12.623c-.83808.84735,1.40252,3.0636,2.24066,2.21625,0,1.15478,1.331,1.798,2.572,1.82318V9.32055Z"/><path class="h" d="M17.42737,3.14764c1.89148-3.97736,11.08948.39679,9.198,4.37414.855-1.53192,2.61285-.55078,1.75781.98114,4.21069,3.63977,5.07019,7.92993.85852,13.20423,1.98163.408,1.69543,1.79791-.28619,1.38989,1.23211,4.9801-3.91578,8.96942-12.95551,4.1958V1.5844A1.40631,1.40631,0,0,1,17.42737,3.14764Z"/><path class="i" d="M18.37616,12.623a7.32806,7.32806,0,0,1,2.68951,2.70685c-2.09222.61932-2.41186,3.55652-.04083,4.90558l-1.96228,1.75781a3.288,3.288,0,0,1,2.94336,0,5.08144,5.08144,0,0,1-2.45276,2.24841c-.56274,1.36945,1.26727,4.21063.81757,6.17945a3.31339,3.31339,0,0,1-2.41193-1.39649H16V12.99194Z"/><path class="j" d="M21.06567,15.32989A7.32806,7.32806,0,0,0,18.37616,12.623l3.62976-.56354c5.06213,3.30475,4.16974,8.62561-.98108,8.176C18.65381,18.88641,18.97345,15.94921,21.06567,15.32989Z"/><ellipse class="k" cx="18.14279" cy="17.98706" rx="0.83804" ry="1.4308"/><ellipse class="l" cx="18.08573" cy="17.66002" rx="0.29042" ry="0.69496"/><path class="a" d="M18.08575,21.748c1.50831-2.12573,4.4516.54632,1.38562,1.55347.23584.66607-1.14984,1.15661-1.38562.49053A2.22453,2.22453,0,0,1,16,25.385V21.04125A2.98283,2.98283,0,0,1,18.08575,21.748Z"/><path class="f" d="M17.30475,9.32049c0-1.7442,1.67608-1.7442,1.67608,0C21.5752,7.88146,23.407,11.184,20.81268,12.623c.83808.84735-1.40252,3.0636-2.24066,2.21625,0,1.15478-1.331,1.798-2.572,1.82318V9.32055Z"/></svg>