<?xml version="1.0" encoding="utf-8"?>
<!-- Generator: Adobe Illustrator 23.0.6, SVG Export Plug-In . SVG Version: 6.00 Build 0)  -->
<svg version="1.1" xmlns="http://www.w3.org/2000/svg" xmlns:xlink="http://www.w3.org/1999/xlink" x="0px" y="0px" width="32px"
	 height="32px" viewBox="0 0 32 32" enable-background="new 0 0 32 32" xml:space="preserve">
<g id="labels">
	<g>
	</g>
</g>
<g id="icons">
	<g>
		<path fill="#CBEB6B" d="M21,22c-0.416,0-2.708,0-5,0s-4.584,0-5,0c-1,3-5,2-5,4c0,1.105,0.895,2,2,2c0,1.657,1.343,3,3,3
			c0.68,0,1.301-0.235,1.804-0.617C13.533,31.359,14.688,32,16,32s2.467-0.641,3.196-1.617C19.699,30.765,20.32,31,21,31
			c1.657,0,3-1.343,3-3c1.105,0,2-0.895,2-2C26,24,22,25,21,22z"/>
		<path fill="#D9F07D" d="M16,22c-2.292,0-4.584,0-5,0c-1,3-5,2-5,4c0,1.105,0.895,2,2,2c0,1.657,1.343,3,3,3
			c0.68,0,1.301-0.235,1.804-0.617C13.533,31.359,14.688,32,16,32V22z"/>
		<path fill="#BEE758" d="M6,26c0,1.105,0.895,2,2,2c0,1.657,1.343,3,3,3c0.68,0,1.301-0.235,1.804-0.617
			C13.533,31.359,14.688,32,16,32s2.467-0.641,3.196-1.617C19.699,30.765,20.32,31,21,31c1.657,0,3-1.343,3-3c1.105,0,2-0.895,2-2
			c-2,2-6.5,4-10,4C12.5,30,8,28,6,26z"/>
		<path fill="#CBEB6B" d="M16,30c-3.5,0-8-2-10-4c0,1.105,0.895,2,2,2c0,1.657,1.343,3,3,3c0.68,0,1.301-0.235,1.804-0.617
			C13.533,31.359,14.688,32,16,32L16,30z"/>
		<path fill="#60C46F" d="M10.007,3.653c-0.089-0.757,0.671-1.333,1.38-1.053c2.089,0.824,3.47,2.724,4.446,4.067
			c1.176,1.618,2.13,4.633,1.321,5.221c-0.809,0.588-3.381-1.251-4.557-2.87C11.628,7.685,10.26,5.802,10.007,3.653z"/>
		<path fill="#54B668" d="M21.993,3.653c0.089-0.757-0.671-1.333-1.38-1.053c-2.089,0.824-3.47,2.724-4.446,4.067
			c-1.176,1.618-2.13,4.633-1.321,5.221c0.809,0.588,3.381-1.251,4.557-2.87C20.372,7.685,21.74,5.802,21.993,3.653z"/>
		<path fill="#60C46F" d="M15.058,0.511c0.373-0.665,1.326-0.684,1.735-0.041C18,2.365,18,4.714,18,6.374c0,2-1,5-2,5s-2-3-2-5
			C14,4.726,14,2.398,15.058,0.511z"/>
		<g>
			<path fill="#6CD275" d="M15.058,0.511C14,2.398,14,4.726,14,6.374c0,2,1,5,2,5V0.009C15.635-0.014,15.261,0.15,15.058,0.511z"/>
		</g>
		
			<ellipse transform="matrix(0.2588 -0.9659 0.9659 0.2588 -8.526 36.6635)" fill="#54B668" cx="19.627" cy="23.887" rx="1.824" ry="4.5"/>
		
			<ellipse transform="matrix(0.9659 -0.2588 0.2588 0.9659 -5.7609 4.0162)" fill="#60C46F" cx="12.373" cy="23.887" rx="4.5" ry="1.824"/>
		<path fill="#60C46F" d="M19,25.75c0,1.657-1.343,2.25-3,2.25s-3-0.593-3-2.25S14.343,22,16,22S19,24.093,19,25.75z"/>
		<path fill="#6CD275" d="M16,28c-1.657,0-3-0.593-3-2.25S14.343,22,16,22V28z"/>
		<path fill="#CBEB6B" d="M25,17.877c0-5-4.686-8.723-8.537-10.762c-0.291-0.154-0.635-0.154-0.925,0
			C11.582,9.21,7,12.877,7.002,18.045c0.001,3.401,2.785,6.186,6.156,6.635C19.393,25.512,25,23.797,25,17.877z"/>
		<g>
			<path fill="#D9F07D" d="M15.537,7.115C11.581,9.21,7,12.877,7.002,18.045c0.001,3.401,2.785,6.186,6.156,6.635
				c0.97,0.129,1.921,0.189,2.842,0.189V7C15.841,7,15.683,7.039,15.537,7.115z"/>
		</g>
		<path fill="#F7F7F7" d="M13,13.877c-2,2-3.03,3.839-3,6c0.029,2.078,2.005,5,6.005,5s6-2,6-5c0-2-1.005-4-3.005-6
			S15,11.877,13,13.877z"/>
		<g>
			<path fill="#FFFFFF" d="M13,13.877c-2,2-3.03,3.839-3,6c0.029,2.077,2.004,4.997,6,5v-12.5C15,12.377,14,12.877,13,13.877z"/>
		</g>
		<path fill="#D9F07D" d="M20,12.877c0-2.385-1.712-4.609-3.51-5.724c-0.297-0.184-0.683-0.184-0.98-0.001
			c-1.847,1.139-3.56,3.381-3.51,5.809c0.035,1.7,2,2.916,4,2.916C18,15.877,20,15.377,20,12.877z"/>
		<ellipse fill="#FF805D" cx="14" cy="19.5" rx="1" ry="1.5"/>
		<ellipse fill="#F57552" cx="18" cy="19.5" rx="1" ry="1.5"/>
		<path fill="#BEE758" d="M24.663,20.143c-2.594,1.343-5.13,1.866-8.663,1.888c-3.514,0.022-6.04-0.53-8.62-1.879
			c0.866,2.39,3.139,4.177,5.778,4.529C18.506,25.393,23.381,24.224,24.663,20.143z"/>
		<g>
			<path fill="#CBEB6B" d="M7.38,20.152c0.866,2.39,3.139,4.177,5.778,4.529c0.969,0.129,1.922,0.194,2.842,0.194v-2.844
				C12.486,22.052,9.96,21.501,7.38,20.152z"/>
		</g>
		<path fill="#EDEEEE" d="M16,22.031c-2.201,0.013-4.007-0.208-5.689-0.694c0.696,1.766,2.578,3.54,5.695,3.54
			c3.327,0,5.249-1.396,5.809-3.588C20.097,21.79,18.256,22.017,16,22.031z"/>
		<path fill="#F7F7F7" d="M16,22.031c-2.201,0.013-4.007-0.208-5.689-0.694c0.696,1.766,2.578,3.54,5.695,3.54L16,22.031z"/>
		<g>
			<path fill="#E6F490" d="M15.51,7.152c-1.847,1.139-3.56,3.381-3.51,5.809c0.035,1.7,2,2.916,4,2.916V7.015
				C15.829,7.015,15.658,7.061,15.51,7.152z"/>
		</g>
	</g>
</g>
</svg>
