<svg xmlns="http://www.w3.org/2000/svg" viewBox="0 0 32 32"><defs><style>.a{fill:#cbeb6b;}.b{fill:#d9f07d;}.c{fill:#bee758;}.d{fill:#60c46f;}.e{fill:#54b668;}.f{fill:#6cd275;}.g{fill:#f7f7f7;}.h{fill:#fff;}.i{fill:#ff805d;}.j{fill:#f57552;}.k{fill:#edeeee;}.l{fill:#e6f490;}</style></defs><title>548-petili</title><path class="a" d="M21,22H11c-1,3-5,2-5,4a2,2,0,0,0,2,2,2.98633,2.98633,0,0,0,4.80408,2.38306,3.96688,3.96688,0,0,0,6.39184,0A2.98633,2.98633,0,0,0,24,28a2,2,0,0,0,2-2C26,24,22,25,21,22Z"/><path class="b" d="M16,22H11c-1,3-5,2-5,4a2,2,0,0,0,2,2,2.98633,2.98633,0,0,0,4.80408,2.38306A3.98183,3.98183,0,0,0,16,32Z"/><path class="c" d="M6,26a2,2,0,0,0,2,2,2.98633,2.98633,0,0,0,4.80408,2.38306,3.96688,3.96688,0,0,0,6.39184,0A2.98633,2.98633,0,0,0,24,28a2,2,0,0,0,2-2,16.439,16.439,0,0,1-10,4A16.439,16.439,0,0,1,6,26Z"/><path class="a" d="M16,30A16.439,16.439,0,0,1,6,26a2,2,0,0,0,2,2,2.98633,2.98633,0,0,0,4.80408,2.38306A3.98183,3.98183,0,0,0,16,32Z"/><path class="d" d="M10.00715,3.65325A1.01288,1.01288,0,0,1,11.387,2.60015c2.08933.82353,3.47017,2.72408,4.446,4.06719,1.17557,1.618,2.12991,4.63287,1.3209,5.22066s-3.38139-1.25148-4.557-2.86952A11.9955,11.9955,0,0,1,10.00715,3.65325Z"/><path class="e" d="M21.99285,3.65325A1.01288,1.01288,0,0,0,20.613,2.60015c-2.08933.82353-3.47017,2.72408-4.446,4.06719-1.17557,1.618-2.12991,4.63287-1.3209,5.22066s3.38139-1.25148,4.557-2.86952A11.9955,11.9955,0,0,0,21.99285,3.65325Z"/><path class="d" d="M15.05845.51123a1.01287,1.01287,0,0,1,1.7353-.04094C18,2.36462,18,4.71383,18,6.374c0,2-1,5-2,5s-2-3-2-5A11.99549,11.99549,0,0,1,15.05845.51123Z"/><path class="f" d="M15.05847.51123A11.99533,11.99533,0,0,0,14,6.374c0,2,1,5,2,5V.009A.99074.99074,0,0,0,15.05847.51123Z"/><ellipse class="e" cx="19.62739" cy="23.88744" rx="1.82439" ry="4.5" transform="translate(-8.52605 36.66352) rotate(-75)"/><ellipse class="d" cx="12.37261" cy="23.88744" rx="4.5" ry="1.82439" transform="translate(-5.76094 4.01621) rotate(-15)"/><path class="d" d="M19,25.75C19,27.40685,17.65685,28,16,28s-3-.59315-3-2.25S14.34315,22,16,22,19,24.09315,19,25.75Z"/><path class="f" d="M16,28c-1.65685,0-3-.59315-3-2.25S14.34315,22,16,22Z"/><path class="a" d="M25,17.87734c0-4.99977-4.68621-8.723-8.53731-10.76184a.98455.98455,0,0,0-.92533,0C11.58151,9.20981,7,12.87734,7.00174,18.04513A6.9379,6.9379,0,0,0,13.158,24.68054C19.39312,25.51159,25,23.79706,25,17.87734Z"/><path class="b" d="M15.53735,7.11548C11.58148,9.20984,7,12.87732,7.00177,18.0451A6.93781,6.93781,0,0,0,13.158,24.68054a21.484,21.484,0,0,0,2.842.1886V7A.98767.98767,0,0,0,15.53735,7.11548Z"/><path class="g" d="M13,13.87734c-2,2-3.03042,3.839-3,6,.02925,2.07776,2.00539,5,6.00539,5s6-2,6-5q0-3-3.00539-6Q16,10.87734,13,13.87734Z"/><path class="h" d="M13,13.87732c-2,2-3.0304,3.83905-3,6,.02924,2.07678,2.00366,4.99707,6,4.99976V12.37732A4.32166,4.32166,0,0,0,13,13.87732Z"/><path class="b" d="M20,12.87734a7.25439,7.25439,0,0,0-3.51-5.72441.94077.94077,0,0,0-.98036-.00073A7.13242,7.13242,0,0,0,12,12.96123c.0351,1.69995,2,2.91611,4,2.91611S20,15.3772,20,12.87734Z"/><ellipse class="i" cx="14" cy="19.5" rx="1" ry="1.5"/><ellipse class="j" cx="18" cy="19.5" rx="1" ry="1.5"/><path class="c" d="M24.66284,20.14313A17.81056,17.81056,0,0,1,16,22.0307,17.11023,17.11023,0,0,1,7.38007,20.152a7.1623,7.1623,0,0,0,5.77789,4.5285C18.50647,25.39343,23.38141,24.22394,24.66284,20.14313Z"/><path class="a" d="M7.38007,20.152a7.1623,7.1623,0,0,0,5.77789,4.5285A21.46269,21.46269,0,0,0,16,24.87439V22.0307A17.11023,17.11023,0,0,1,7.38007,20.152Z"/><path class="k" d="M16,22.0307a19.62759,19.62759,0,0,1-5.68921-.69385,5.84533,5.84533,0,0,0,5.69458,3.54047c3.32684,0,5.249-1.396,5.80884-3.58765A20.82348,20.82348,0,0,1,16,22.0307Z"/><path class="g" d="M16,22.0307a19.62759,19.62759,0,0,1-5.68921-.69385,5.84533,5.84533,0,0,0,5.69458,3.54047Z"/><path class="l" d="M15.50964,7.15222A7.13248,7.13248,0,0,0,12,12.96124c.0351,1.69995,2,2.91608,4,2.91608V7.01477A.93418.93418,0,0,0,15.50964,7.15222Z"/></svg>