<svg xmlns="http://www.w3.org/2000/svg" viewBox="0 0 32 32"><path fill="#dadddc" d="M27.048 15.223l1.462-5.941-4.249 5.667-.366 4.387 5.712.686-1.508-1.737 3.839-6.032-4.89 2.97zM16.002.051L16 .058v6.106l1.68-.126L16.002.051z"/><path d="M18.295 24.043h2.8l.698 1.234 1.828-3.61 1.564 2.452a34.45 34.45 0 00.389-5.514 15.475 15.475 0 00-3.92-10.752c-2.956 4.503-3.132 10.359-3.359 16.19z" fill="#349363"/><path d="M21.095 7.326A7.68 7.68 0 0016 5.26v18.782h1.336c.235-6.068.525-12.109 3.759-16.717z" fill="#5c6664"/><path d="M17.336 24.043h.96c.226-5.831.402-11.687 3.357-16.19a9.845 9.845 0 00-.558-.527c-3.234 4.608-3.524 10.65-3.76 16.717z" fill="#e53600"/><path d="M25.185 24.119l-1.564-2.452-1.828 3.61-.698-1.234H16v7.906c4.354 0 8.023-.698 9.185-7.83z" fill="#338c5d"/><path d="M19.951 11.37a30.833 30.833 0 00-1.417 7.908c.63 1.22 1.496 1.957 2.34 1.836 1.362-.197 2.15-2.543 1.762-5.24-.343-2.379-1.486-4.231-2.685-4.504z" fill="#f7f7f7"/><path d="M20.117 14.726c-.653.166-.915 1.356-.585 2.659s1.126 2.225 1.78 2.06.915-1.356.585-2.659-1.126-2.225-1.78-2.06z" fill="#e53600"/><path fill="#e3e5e5" d="M4.952 15.223L3.49 9.282l4.249 5.667.366 4.387-5.712.686 1.508-1.737-3.839-6.032 4.89 2.97zM15.998.051L16 .058v6.106l-1.68-.126L15.998.051z"/><path d="M13.705 24.043h-2.8l-.698 1.234-1.828-3.61-1.564 2.452a34.45 34.45 0 01-.389-5.514 15.475 15.475 0 013.92-10.752c2.956 4.503 3.132 10.359 3.359 16.19z" fill="#379b6d"/><path d="M10.905 7.326A7.68 7.68 0 0116 5.26v18.782h-1.336c-.235-6.068-.525-12.109-3.759-16.717z" fill="#687271"/><path d="M14.664 24.043h-.96c-.226-5.831-.402-11.687-3.357-16.19.18-.185.368-.36.558-.527 3.234 4.608 3.524 10.65 3.76 16.717z" fill="#f74000"/><path d="M6.815 24.119l1.564-2.452 1.828 3.61.698-1.234H16v7.906c-4.354 0-8.023-.698-9.185-7.83z" fill="#349363"/><path d="M12.049 11.37a30.833 30.833 0 011.417 7.908c-.63 1.22-1.496 1.957-2.34 1.836-1.362-.197-2.15-2.543-1.762-5.24.343-2.379 1.486-4.231 2.685-4.504z" fill="#fff"/><path d="M11.883 14.726c.653.166.915 1.356.585 2.659s-1.126 2.225-1.78 2.06-.915-1.356-.585-2.659 1.126-2.225 1.78-2.06z" fill="#f74000"/></svg>