<svg xmlns="http://www.w3.org/2000/svg" viewBox="0 0 32 32"><defs><style>.a{fill:#dadddc;}.b{fill:#9acc2e;}.c{fill:#5c6664;}.d{fill:#377aa0;}.e{fill:#93c427;}.f{fill:#f7f7f7;}.g{fill:#e3e5e5;}.h{fill:#a2d336;}.i{fill:#687271;}.j{fill:#3980a8;}.k{fill:#fff;}</style></defs><title>550-basculin-blue-shiny</title><polygon class="a" points="27.048 15.223 28.51 9.282 24.261 14.949 23.895 19.336 29.607 20.022 28.099 18.285 31.938 12.253 27.048 15.223"/><polygon class="a" points="16.002 0.051 16 0.058 16 6.164 17.68 6.038 16.002 0.051"/><path class="b" d="M18.29539,24.043H21.095l.69774,1.23393,1.82793-3.61024,1.56436,2.45222a34.45065,34.45065,0,0,0,.38885-5.514A15.47453,15.47453,0,0,0,21.65306,7.85261C18.6983,12.3564,18.52164,18.21169,18.29539,24.043Z"/><path class="c" d="M21.095,7.32562A7.6801,7.6801,0,0,0,16,5.26082V24.043h1.33587C17.5711,17.9752,17.86129,11.93427,21.095,7.32562Z"/><path class="d" d="M17.33587,24.043h.95952c.22625-5.83129.40291-11.68658,3.35767-16.19037-.18093-.18511-.36791-.3593-.55811-.527C17.86129,11.93427,17.5711,17.9752,17.33587,24.043Z"/><path class="e" d="M25.18506,24.11889,23.6207,21.66667l-1.82793,3.61024L21.095,24.043H16v7.90589C20.35435,31.94887,24.02338,31.25068,25.18506,24.11889Z"/><path class="f" d="M19.9513,11.36973A30.83333,30.83333,0,0,0,18.534,19.27756c.6293,1.22055,1.4957,1.95778,2.34086,1.83594,1.36137-.19633,2.14969-2.5425,1.76077-5.24042C22.29276,13.49534,21.1497,11.64273,19.9513,11.36973Z"/><path class="d" d="M20.11741,14.72628c-.65324.16537-.91546,1.35562-.58562,2.65851s1.12667,2.225,1.77991,2.05964.91546-1.35562.58563-2.65843S20.77065,14.56091,20.11741,14.72628Z"/><polygon class="g" points="4.952 15.223 3.49 9.282 7.739 14.949 8.105 19.336 2.393 20.022 3.901 18.285 0.062 12.253 4.952 15.223"/><polygon class="g" points="15.998 0.051 16 0.058 16 6.164 14.32 6.038 15.998 0.051"/><path class="h" d="M13.70461,24.043H10.905l-.69774,1.23393L8.3793,21.66667,6.81494,24.11889a34.45065,34.45065,0,0,1-.38885-5.514A15.47453,15.47453,0,0,1,10.34694,7.85261C13.3017,12.3564,13.47836,18.21169,13.70461,24.043Z"/><path class="i" d="M10.905,7.32562A7.6801,7.6801,0,0,1,16,5.26082V24.043H14.66413C14.4289,17.9752,14.13871,11.93427,10.905,7.32562Z"/><path class="j" d="M14.66413,24.043h-.95952c-.22625-5.83129-.40291-11.68658-3.35767-16.19037.18093-.18511.36791-.3593.55811-.527C14.13871,11.93427,14.4289,17.9752,14.66413,24.043Z"/><path class="b" d="M6.81494,24.11889,8.3793,21.66667l1.82793,3.61024L10.905,24.043H16v7.90589C11.64565,31.94887,7.97662,31.25068,6.81494,24.11889Z"/><path class="k" d="M12.0487,11.36973A30.83333,30.83333,0,0,1,13.466,19.27756c-.6293,1.22055-1.4957,1.95778-2.34086,1.83594-1.36137-.19633-2.14969-2.5425-1.76077-5.24042C9.70724,13.49534,10.8503,11.64273,12.0487,11.36973Z"/><path class="j" d="M11.88259,14.72628c.65324.16537.91546,1.35562.58562,2.65851s-1.12667,2.225-1.77991,2.05964-.91546-1.35562-.58563-2.65843S11.22935,14.56091,11.88259,14.72628Z"/></svg>