<svg xmlns="http://www.w3.org/2000/svg" viewBox="0 0 32 32"><title>551-sandile</title><polygon points="8.04 31.98 8.457 29.73 6.619 29.73 8.04 31.98" style="fill:#373f3f"/><polygon points="9.863 31.98 9.863 29.528 8.457 29.73 9.863 31.98" style="fill:#373f3f"/><polygon points="8.926 20.915 2.742 26.354 4.731 29.974 6.619 29.73 8.457 29.73 9.863 29.528 9.863 27.137 8.926 20.915" style="fill:#cfab81"/><polygon points="5.834 31.98 6.619 29.73 4.731 29.974 5.834 31.98" style="fill:#373f3f"/><path d="M8.04023,20.49323C6.27335,23.53154,6.30589,25.594,7.30991,26.9911,8.913,25.00188,12.19777,23.63469,16,23.63469V19.50377C10.7247,19.45025,8.04023,17.71357,8.04023,20.49323Z" style="fill:#d5b387"/><path d="M7.30991,26.9911C8.85622,29.14262,12.72032,29.69946,16,29.72471v-6.09C12.19777,23.63469,8.913,25.00188,7.30991,26.9911Z" style="fill:#e2959e"/><path d="M13.89559,5.16142c-2.53479-11.06519-19.03584-2.438-11.534,8.61015-2.65047,4.87416-.79869,7.288,4.8762,7.61253C7.98788,23.072,11.92639,24.57238,16,24.57238V4.51677C14.90758,4.54892,13.89559,4.76212,13.89559,5.16142Z" style="fill:#dbba8c"/><ellipse cx="8.0402" cy="9.30898" rx="5.29816" ry="6.61098" style="fill:#373f3f"/><path d="M13.15741,10.99716,8.73811,12.296,8.04023,15.92A29.01274,29.01274,0,0,1,16,14.06985v-3.537A6.28417,6.28417,0,0,0,13.15741,10.99716Z" style="fill:#373f3f"/><ellipse cx="8.0402" cy="9.30898" rx="3.69914" ry="4.61574" style="fill:#b9bfbe"/><ellipse cx="8.92562" cy="8.17003" rx="1.59414" ry="2.35219" style="fill:#edeeee"/><path d="M9.86335,17.35186c0-.29469,3.03783-.44407,6.13665-.4501v-1.514C12.90118,15.41393,9.86335,16.06587,9.86335,17.35186Z" style="fill:#757f7e"/><path d="M11.73931,16.9006c-2.447,0-4.43076,1.49871-4.43076,3.34738s1.98378,3.34727,4.43076,3.34727A4.38747,4.38747,0,0,0,16,21.11728V19.37867A4.38754,4.38754,0,0,0,11.73931,16.9006Z" style="fill:#e0c193"/><ellipse cx="11.60086" cy="21.23801" rx="1.73751" ry="0.99006" style="fill:#373f3f"/><polygon points="23.96 31.98 23.543 29.73 25.381 29.73 23.96 31.98" style="fill:#2b3332"/><polygon points="22.137 31.98 22.137 29.528 23.543 29.73 22.137 31.98" style="fill:#2b3332"/><polygon points="23.074 20.915 29.258 26.354 27.269 29.974 25.381 29.73 23.543 29.73 22.137 29.528 22.137 27.137 23.074 20.915" style="fill:#cda073"/><polygon points="26.166 31.98 25.381 29.73 27.269 29.974 26.166 31.98" style="fill:#2b3332"/><path d="M23.95977,20.49323c1.76688,3.03831,1.73434,5.10076.73032,6.49787C23.087,25.00188,19.80223,23.63469,16,23.63469V19.50377C21.2753,19.45025,23.95977,17.71357,23.95977,20.49323Z" style="fill:#cfab81"/><path d="M24.69009,26.9911C23.14378,29.14262,19.27968,29.69946,16,29.72471v-6.09C19.80223,23.63469,23.087,25.00188,24.69009,26.9911Z" style="fill:#e08c96"/><path d="M18.10441,5.16142c2.53479-11.06519,19.03584-2.438,11.534,8.61015,2.65047,4.87416.79869,7.288-4.8762,7.61253C24.01212,23.072,20.07361,24.57238,16,24.57238V4.51677C17.09242,4.54892,18.10441,4.76212,18.10441,5.16142Z" style="fill:#d5b387"/><ellipse cx="23.9598" cy="9.30898" rx="5.29816" ry="6.61098" style="fill:#2b3332"/><path d="M18.84259,10.99716l4.4193,1.29882.69788,3.624A29.01274,29.01274,0,0,0,16,14.06985v-3.537A6.28417,6.28417,0,0,1,18.84259,10.99716Z" style="fill:#2b3332"/><ellipse cx="23.9598" cy="9.30898" rx="3.69914" ry="4.61574" style="fill:#abb2b1"/><ellipse cx="23.07438" cy="8.17003" rx="1.59414" ry="2.35219" style="fill:#e3e5e5"/><path d="M22.13665,17.35186c0-.29469-3.03783-.44407-6.13665-.4501v-1.514C19.09882,15.41393,22.13665,16.06587,22.13665,17.35186Z" style="fill:#687271"/><path d="M20.26069,16.9006c2.447,0,4.43076,1.49871,4.43076,3.34738s-1.98378,3.34727-4.43076,3.34727A4.38747,4.38747,0,0,1,16,21.11728V19.37867A4.38754,4.38754,0,0,1,20.26069,16.9006Z" style="fill:#dbba8c"/><ellipse cx="20.39914" cy="21.23801" rx="1.73751" ry="0.99006" style="fill:#2b3332"/></svg>