<svg xmlns="http://www.w3.org/2000/svg" viewBox="0 0 32 32"><path d="M12.506 28.48c0-1.976-.397-4.04-2.318-3.577a1.848 1.848 0 00-1.876.465 5.44 5.44 0 001.266 1.129 1.67 1.67 0 00-.656 1.205 1.807 1.807 0 01-1.089-.16A3.58 3.58 0 0010 30.172h2.56c-.018-.448-.054-1.001-.054-1.693z" fill="#cfab81"/><path d="M8.922 27.702a1.67 1.67 0 01.656-1.205 5.44 5.44 0 01-1.266-1.129 2.493 2.493 0 00-.479 2.174 1.807 1.807 0 001.09.16zm3.638 2.47H10c-.286.68 1.026.97 2.419 1.241a2.432 2.432 0 00.142-1.241z" fill="#5c6664"/><path d="M6.867 31.997c.728 0 1.363.003 1.919.003l-.79-.808c-.854.128-2.79.525-1.13.805z" fill="#edeeee"/><path d="M12.419 31.413c-1.393-.27-2.705-.56-2.419-1.241l-.422-.087c-.787-.105-1.484.178-1.582 1.107l.79.808c2.428.002 3.324-.044 3.633-.587z" fill="#cfab81"/><path d="M13.264 16.359l.329-1.464-.636-1.649-.082 1.82a18.198 18.198 0 00-2.918 2.027l.934 1.072a8.97 8.97 0 012.373-1.806z" fill="#d5b387"/><path d="M8.266 22.578l.406-.707c.03-.081.068-.152.098-.231l-.569-.25zm-.712-.325l.647-.864h-.706l.059.864z" fill="#edeeee"/><path d="M8.612 18.445a9.307 9.307 0 00-1.411 2.219l-.098.335.392.39H8.2l.57.25a11.554 11.554 0 011.004-2.03z" fill="#d5b387"/><path fill="#edeeee" d="M6.847 21.871l.648-.482-.393-.39-.255.872z"/><path d="M8.612 18.445l1.163 1.163a9.467 9.467 0 011.116-1.443l-.934-1.072a12.206 12.206 0 00-1.345 1.352z" fill="#5c6664"/><path d="M12.957 14.13c-.18 3.682-2 7.343-3.54 11.008 2.314 4.268 3.818 4.474 6.596 4.474v-14.91z" fill="#e2959e"/><path d="M12.848 14.993c0 .655 1.544.996 3.165 1.03V2.317c-2.208-8.372-17.316 8.692-3.165 12.676z" fill="#dbba8c"/><path d="M9.66 4.31c-1.277 4.225 2.83 6.7 4.583 4.464h1.77V5.107z" fill="#373f3f"/><ellipse cx="12.608" cy="6.861" rx=".877" ry="1.515" fill="#b9bfbe"/><circle cx="12.506" cy="6.143" r=".45" fill="#edeeee"/><path d="M12.957 11.01c0-.215 1.528-.322 3.056-.322V9.615c-1.528 0-3.056.464-3.056 1.394z" fill="#757f7e"/><ellipse cx="13.593" cy="12.388" rx="2.42" ry="1.743" fill="#e0c193"/><ellipse cx="13.593" cy="12.388" rx=".384" ry=".678" transform="rotate(-30 13.593 12.388)" fill="#373f3f"/><path d="M12.352 17.584c-.17.61-.36 1.22-.578 1.828a42.18 42.18 0 004.24.19V17.69a61.22 61.22 0 01-3.662-.106zM11.01 21.39c-.361.878-.74 1.757-1.118 2.637 1.481.115 3.812.171 6.121.168v-2.708c-1.789.002-3.59-.03-5.002-.098zM10 26.148c2 3.282 3.476 3.464 6.013 3.464v-2.871A26.854 26.854 0 0110 26.148z" fill="#687271"/><path d="M19.494 28.484c0-1.975.397-4.038 2.318-3.576a1.848 1.848 0 011.876.466 5.44 5.44 0 01-1.266 1.128 1.67 1.67 0 01.656 1.205 1.807 1.807 0 001.089-.16A3.58 3.58 0 0122 30.177h-2.56c.018-.447.054-1.001.054-1.693z" fill="#cda073"/><path d="M23.078 27.707a1.67 1.67 0 00-.656-1.205 5.44 5.44 0 001.266-1.128 2.493 2.493 0 01.479 2.173 1.807 1.807 0 01-1.09.16zm-3.638 2.47H22c.286.681-1.026.971-2.419 1.242a2.432 2.432 0 01-.142-1.242z" fill="#505957"/><path d="M25.133 32.002c-.728 0-1.363.003-1.919.003l.79-.807c.854.127 2.79.524 1.13.804z" fill="#e3e5e5"/><path d="M19.581 31.419c1.393-.27 2.705-.56 2.419-1.242l.422-.087c.787-.105 1.484.178 1.582 1.108l-.79.807c-2.428.002-3.324-.044-3.633-.586z" fill="#cda073"/><path d="M18.736 16.364l-.329-1.464.636-1.649.082 1.821a18.198 18.198 0 012.918 2.026l-.934 1.072a8.97 8.97 0 00-2.373-1.806z" fill="#cfab81"/><path d="M23.734 22.584l-.406-.707c-.03-.082-.068-.152-.098-.232l.569-.25zm.712-.325l-.647-.865h.706l-.059.865z" fill="#e3e5e5"/><path d="M23.388 18.45a9.307 9.307 0 011.411 2.22l.098.334-.392.39H23.8l-.57.25a11.554 11.554 0 00-1.004-2.03z" fill="#cfab81"/><path fill="#e3e5e5" d="M25.153 21.877l-.648-.483.393-.39.255.873z"/><path d="M23.388 18.45l-1.163 1.163a9.466 9.466 0 00-1.116-1.443l.934-1.072a12.205 12.205 0 011.345 1.352z" fill="#505957"/><path d="M19.043 14.136c.18 3.68 2 7.342 3.54 11.007-2.314 4.269-3.818 4.475-6.596 4.475V14.706z" fill="#e08c96"/><path d="M19.152 14.998c0 .656-1.544.996-3.165 1.03V2.322c2.208-8.371 17.316 8.693 3.165 12.676z" fill="#d5b387"/><path d="M22.34 4.315c1.277 4.225-2.83 6.7-4.583 4.465h-1.77V5.112z" fill="#2b3332"/><ellipse cx="19.392" cy="6.866" rx=".877" ry="1.515" fill="#abb2b1"/><circle cx="19.494" cy="6.148" r=".45" fill="#e3e5e5"/><path d="M19.043 11.015c0-.215-1.528-.322-3.056-.322V9.62c1.528 0 3.056.465 3.056 1.395z" fill="#687271"/><ellipse cx="18.407" cy="12.393" rx="2.42" ry="1.743" fill="#dbba8c"/><ellipse cx="18.407" cy="12.393" rx=".678" ry=".384" transform="rotate(-60 18.407 12.393)" fill="#2b3332"/><path d="M19.648 17.59c.17.61.36 1.218.578 1.827a42.177 42.177 0 01-4.24.19v-1.912a61.187 61.187 0 003.662-.105zm1.342 3.804c.361.88.74 1.759 1.118 2.638-1.481.116-3.812.171-6.121.168v-2.708c1.789.003 3.59-.03 5.002-.098zM22 26.153c-2 3.282-3.476 3.465-6.013 3.465v-2.872A26.854 26.854 0 0022 26.153z" fill="#5c6664"/></svg>