<svg xmlns="http://www.w3.org/2000/svg" viewBox="0 0 32 32"><defs><style>.a{fill:#962931;}.b{fill:#876f5d;}.c{fill:#7f6858;}.d{fill:#edeeee;}.e{fill:#9c2c30;}.f{fill:#373f3f;}.g{fill:#8e7763;}.h{fill:#a92f31;}.i{fill:#b9bfbe;}.j{fill:#8e252d;}.k{fill:#776151;}.l{fill:#e3e5e5;}.m{fill:#2b3332;}.n{fill:#abb2b1;}</style></defs><title>553-krookodile</title><polygon class="a" points="13.466 14.584 8.129 14.584 8.129 16.108 13.999 16.108 13.466 14.584"/><path class="a" d="M9.31482,18.38369c-.186.48355-.33769.93664-.45866,1.36264a16.448,16.448,0,0,0,1.1463,1.54583c.16227-.63685.36763-1.30768.59611-1.99678A3.41469,3.41469,0,0,1,9.31482,18.38369Z"/><path class="a" d="M12.87069,13.67666l2.22463-.46409-.90424-.83767-2.22235.91126c-.595.94921-1.08591,1.80626-1.50155,2.59661a9.38744,9.38744,0,0,0,.7731,1.61948Q11.94012,15.68058,12.87069,13.67666Z"/><path class="b" d="M10.46718,15.88277a23.70346,23.70346,0,0,0-1.15236,2.50092,3.41469,3.41469,0,0,0,1.28375.91169q.28888-.87132.64171-1.79313A9.38744,9.38744,0,0,1,10.46718,15.88277Z"/><path class="a" d="M9.57122,23.49177a3.513,3.513,0,0,1-1.2276-.88579c-3.13922,3.5301-2.70495,5.78442-.56718,7.43049l4.64324.73887V29.70762C9.9475,28.839,9.16953,26.6315,9.57122,23.49177Z"/><path class="b" d="M8.3922,22.549c-.01744.01946-.0314.03765-.04858.057a3.513,3.513,0,0,0,1.2276.88579,18.42008,18.42008,0,0,1,.43124-2.19961,16.448,16.448,0,0,1-1.1463-1.54583A12.00075,12.00075,0,0,0,8.3922,22.549Z"/><path class="c" d="M12.41968,30.77534l-4.64324-.73887q-1.25032.07618-1.30794.83425a2.383,2.383,0,0,1,1.42506,1.09551h4.52612Z"/><path class="d" d="M6.4685,30.87072l-.00429.01485-1.85264.54033a5.03762,5.03762,0,0,0,2.80608.54033h.47591A2.383,2.383,0,0,0,6.4685,30.87072Z"/><path class="d" d="M15.09532,13.21257l-2.22463.46409q-.9313,2.00454-1.63041,3.82559a7.11786,7.11786,0,0,0,2.22551,2.25811,7.31775,7.31775,0,0,1-2.86722-.465c-.22848.6891-.43384,1.35993-.59611,1.99678a7.56482,7.56482,0,0,0,3.08976,2.36391,5.66413,5.66413,0,0,1-3.521-.1643c-.40169,3.13973.37628,5.34718,2.84846,6.21585l.57482.28129A16.955,16.955,0,0,0,16,30.2009V14.05067Z"/><path class="b" d="M11.24028,17.50225q-.35473.92327-.64171,1.79313a7.31775,7.31775,0,0,0,2.86722.465A7.11786,7.11786,0,0,1,11.24028,17.50225Z"/><path class="b" d="M13.09222,23.65607a7.56482,7.56482,0,0,1-3.08976-2.36391,18.42008,18.42008,0,0,0-.43124,2.19961A5.66413,5.66413,0,0,0,13.09222,23.65607Z"/><polygon class="c" points="7.008 14.584 6.081 15.144 6.081 16.889 7.169 16.108 8.129 16.108 8.129 14.584 7.008 14.584"/><polygon class="a" points="2.472 19.295 2.366 20.454 3.695 20.454 3.646 19.295 4.18 18.853 5.034 19.746 5.479 18.886 5.247 18.631 4.394 18.101 6.081 16.889 6.081 15.144 2.526 17.288 1.42 18.993 1.875 19.498 2.472 19.295"/><polygon class="d" points="6.081 19.547 5.479 18.886 5.034 19.746 6.081 19.547"/><polygon class="d" points="3.113 21.619 3.7 20.561 3.695 20.454 2.366 20.454 3.113 21.619"/><polygon class="d" points="1.875 19.498 1.42 18.993 0.871 19.838 1.875 19.498"/><path class="e" d="M12.07289,1.47464A18.50507,18.50507,0,0,1,8.3922.57179a6.87655,6.87655,0,0,0,.69446,5.97252c-3.62391,2.15142-.83337,6.667,3.47237,7.77817,0,.83741,1.77677,1.22481,3.441,1.17118V.031C14.30851.03442,12.55726.51525,12.07289,1.47464Z"/><path class="f" d="M14.57305,6.6138C12.0775,5.04908,9.76628,3.29423,8.3922.57179,8.71353,3.91365,9.98951,12.3749,14.57274,8.8335A2.52213,2.52213,0,0,1,16,8.18862V5.83349A2.13489,2.13489,0,0,0,14.57305,6.6138Z"/><path class="g" d="M12.41968,11.16418A12.72241,12.72241,0,0,1,16,10.56933V9.23524A5.2422,5.2422,0,0,0,12.41968,11.16418Z"/><path class="h" d="M11.0312,10.364c-.00448,1.74532.37022,3.17637,1.52783,3.95851A5.80181,5.80181,0,0,0,16,13.90583V12.34319A7.46684,7.46684,0,0,0,11.0312,10.364Z"/><ellipse class="f" cx="13.27032" cy="12.55157" rx="0.22513" ry="0.8681" transform="translate(-4.98851 13.0598) rotate(-45)"/><circle class="i" cx="11.96872" cy="7.48189" r="0.93756"/><circle class="d" cx="12.4197" cy="7.27311" r="0.45099"/><polygon class="j" points="18.534 14.584 23.871 14.584 23.871 16.108 18.001 16.108 18.534 14.584"/><path class="j" d="M22.68518,18.38369c.186.48355.33769.93664.45866,1.36264a16.448,16.448,0,0,1-1.1463,1.54583c-.16227-.63685-.36763-1.30768-.59611-1.99678A3.41469,3.41469,0,0,0,22.68518,18.38369Z"/><path class="j" d="M19.12931,13.67666l-2.22463-.46409.90424-.83767,2.22235.91126c.595.94921,1.08591,1.80626,1.50155,2.59661a9.38744,9.38744,0,0,1-.7731,1.61948Q20.05988,15.68058,19.12931,13.67666Z"/><path class="c" d="M21.53282,15.88277a23.70346,23.70346,0,0,1,1.15236,2.50092,3.41469,3.41469,0,0,1-1.28375.91169q-.28889-.87132-.64171-1.79313A9.38744,9.38744,0,0,0,21.53282,15.88277Z"/><path class="j" d="M22.42878,23.49177a3.513,3.513,0,0,0,1.2276-.88579c3.13922,3.5301,2.705,5.78442.56718,7.43049l-4.64324.73887V29.70762C22.0525,28.839,22.83047,26.6315,22.42878,23.49177Z"/><path class="c" d="M23.6078,22.549c.01744.01946.0314.03765.04858.057a3.513,3.513,0,0,1-1.2276.88579,18.42008,18.42008,0,0,0-.43124-2.19961,16.448,16.448,0,0,0,1.1463-1.54583A12.00075,12.00075,0,0,1,23.6078,22.549Z"/><path class="k" d="M19.58032,30.77534l4.64324-.73887q1.25033.07618,1.30794.83425a2.383,2.383,0,0,0-1.42506,1.09551H19.58032Z"/><path class="l" d="M25.5315,30.87072l.00429.01485,1.85264.54033a5.03762,5.03762,0,0,1-2.80608.54033h-.47591A2.383,2.383,0,0,1,25.5315,30.87072Z"/><path class="l" d="M16.90468,13.21257l2.22463.46409q.9313,2.00454,1.63041,3.82559a7.11786,7.11786,0,0,1-2.22551,2.25811,7.31775,7.31775,0,0,0,2.86722-.465c.22848.6891.43384,1.35993.59611,1.99678a7.56482,7.56482,0,0,1-3.08976,2.36391,5.66413,5.66413,0,0,0,3.521-.1643c.40169,3.13973-.37628,5.34718-2.84846,6.21585l-.57482.28129A16.955,16.955,0,0,1,16,30.2009V14.05067Z"/><path class="c" d="M20.75972,17.50225q.35473.92327.64171,1.79313a7.31775,7.31775,0,0,1-2.86722.465A7.11786,7.11786,0,0,0,20.75972,17.50225Z"/><path class="c" d="M18.90778,23.65607a7.56482,7.56482,0,0,0,3.08976-2.36391,18.42008,18.42008,0,0,1,.43124,2.19961A5.66413,5.66413,0,0,1,18.90778,23.65607Z"/><polygon class="k" points="24.992 14.584 25.919 15.144 25.919 16.889 24.831 16.108 23.871 16.108 23.871 14.584 24.992 14.584"/><polygon class="j" points="29.528 19.295 29.634 20.454 28.305 20.454 28.354 19.295 27.82 18.853 26.966 19.746 26.521 18.886 26.753 18.631 27.606 18.101 25.919 16.889 25.919 15.144 29.474 17.288 30.58 18.993 30.125 19.498 29.528 19.295"/><polygon class="l" points="25.919 19.547 26.521 18.886 26.966 19.746 25.919 19.547"/><polygon class="l" points="28.887 21.619 28.3 20.561 28.305 20.454 29.634 20.454 28.887 21.619"/><polygon class="l" points="30.125 19.498 30.58 18.993 31.129 19.838 30.125 19.498"/><path class="a" d="M19.92711,1.47464A18.50507,18.50507,0,0,0,23.6078.57179a6.87655,6.87655,0,0,1-.69446,5.97252c3.62391,2.15142.83337,6.667-3.47237,7.77817,0,.83741-1.77677,1.22481-3.441,1.17118V.031C17.69149.03442,19.44274.51525,19.92711,1.47464Z"/><path class="m" d="M17.427,6.6138c2.49555-1.56472,4.80677-3.31957,6.18085-6.042-.32133,3.34186-1.59731,11.80311-6.18054,8.26171A2.52213,2.52213,0,0,0,16,8.18862V5.83349A2.13489,2.13489,0,0,1,17.427,6.6138Z"/><path class="b" d="M19.58032,11.16418A12.72241,12.72241,0,0,0,16,10.56933V9.23524A5.2422,5.2422,0,0,1,19.58032,11.16418Z"/><path class="e" d="M20.9688,10.364c.00448,1.74532-.37022,3.17637-1.52783,3.95851A5.80181,5.80181,0,0,1,16,13.90583V12.34319A7.46684,7.46684,0,0,1,20.9688,10.364Z"/><ellipse class="m" cx="18.72968" cy="12.55157" rx="0.8681" ry="0.22513" transform="translate(-3.3895 16.92015) rotate(-45)"/><circle class="n" cx="20.03128" cy="7.48189" r="0.93756"/><circle class="l" cx="19.5803" cy="7.27311" r="0.45099"/></svg>