<svg xmlns="http://www.w3.org/2000/svg" viewBox="0 0 32 32"><path d="M11.47 25.036c-.02-.042-.03-.071-.05-.115-.603-1.535-.477-2.403.019-2.932l-1.922-2.636c-1.688 2.414-2.086 4.316-.654 5.489l-.006.002a6.599 6.599 0 002.613.192z" fill="#962931"/><path d="M8.857 24.844c-.688.146-1.152.453-1.242 1.028.119.813 2.394 1.138 3.993.674.405-.039.322-.536-.138-1.51a6.599 6.599 0 01-2.613-.192z" fill="#ce692c"/><path d="M5.93 24.96l-.722-1.193-1.247 1.507-1.182-2.081-.943 2.168-.803-2.168-.75 1.744c-.425 4.256-.095 5.817.773 5.453a13.17 13.17 0 006.301.356c.644.13.953-.78.575-3.824a4.258 4.258 0 00-2.001-1.961z" fill="#dd7731"/><path d="M1.836 25.361l.943-2.168 1.182 2.081 1.247-1.507.723 1.194a17.971 17.971 0 01.376-5.43l2.952-4.298-.495-2.973-6.519 3.467C.981 17.232.323 20.204.303 24.723l-.02.214.75-1.744z" fill="#a92f31"/><path d="M8.161 14.965c0 4.975 3.516 9.008 7.852 9.008V5.957c-4.336 0-7.852 4.033-7.852 9.008z" fill="#9c2c30"/><path fill="#d6712d" d="M14.567 9.422l-1.879-.919-1.672 2.757 1.672 2.674 2.005-1.504 1.32 1.304v-2.883l-1.446-1.429z"/><ellipse cx="13.257" cy="11.218" rx="1.63" ry="1.227" transform="rotate(-74.198 13.257 11.218)" fill="#f7f7f7"/><ellipse cx="13.209" cy="11.386" rx=".866" ry=".652" transform="rotate(-74.198 13.21 11.386)" fill="#373f3f"/><path d="M14.669 14.103l-2.338 1.922-2.1-2.814c-.123 4.575 1.882 6.494 5.782 6.553v-4.141z" fill="#dadddc"/><path d="M13.21 8.158l.222-.98-2.726-4.508v1.189L8.07 1.382l-2.893-.357 2.853 3.23-.674.377c.878.264 2.17 1.647 3.422 3.082l-.554-2.151z" fill="#cf3c35"/><path d="M14.312 8.634l-.88-1.456-.223.98-2.984-2.595.554 2.15c1.66 1.902 3.252 3.895 3.724 3.505 2.405-.642.92-3.495-.191-2.584z" fill="#e8ba36"/><path d="M15.086 22.335a1.037 1.037 0 00.927 1.12v-2.24a1.037 1.037 0 00-.927 1.12z" fill="#ce692c"/><ellipse cx="12.493" cy="21.511" rx=".884" ry="1.068" fill="#ce692c"/><path d="M20.557 25.036c.02-.042.029-.071.05-.115.602-1.535.476-2.403-.02-2.932l1.922-2.636c1.688 2.414 2.086 4.316.654 5.489l.007.002a6.599 6.599 0 01-2.613.192z" fill="#8e252d"/><path d="M23.17 24.844c.687.146 1.151.453 1.241 1.028-.119.813-2.394 1.138-3.993.674-.404-.039-.322-.536.139-1.51a6.599 6.599 0 002.613-.192z" fill="#c95f2b"/><path d="M26.096 24.96l.722-1.193 1.247 1.507 1.182-2.081.944 2.168.802-2.168.75 1.744c.426 4.256.096 5.817-.773 5.453a13.17 13.17 0 01-6.301.356c-.644.13-.953-.78-.575-3.824a4.258 4.258 0 012.002-1.961z" fill="#d6712d"/><path d="M30.19 25.361l-.943-2.168-1.182 2.081-1.247-1.507-.722 1.194a17.972 17.972 0 00-.377-5.43l-2.952-4.298.495-2.973 6.519 3.467c1.264 1.505 1.922 4.477 1.942 8.996l.02.214-.75-1.744z" fill="#9c2c30"/><path d="M23.865 14.965c0 4.975-3.515 9.008-7.852 9.008V5.957c4.336 0 7.852 4.033 7.852 9.008z" fill="#962931"/><path fill="#ce692c" d="M17.459 9.422l1.88-.919 1.671 2.757-1.671 2.674-2.006-1.504-1.32 1.304v-2.883l1.446-1.429z"/><ellipse cx="18.769" cy="11.218" rx="1.227" ry="1.63" transform="rotate(-15.802 18.77 11.218)" fill="#edeeee"/><ellipse cx="18.817" cy="11.386" rx=".652" ry=".866" transform="rotate(-15.802 18.817 11.386)" fill="#2b3332"/><path d="M17.358 14.103l2.338 1.922 2.1-2.814c.122 4.575-1.883 6.494-5.783 6.553v-4.141z" fill="#e3e5e5"/><path d="M18.817 8.158l-.222-.98L21.32 2.67v1.189l2.636-2.477 2.893-.357-2.854 3.23.674.377c-.878.264-2.17 1.647-3.422 3.082l.554-2.151z" fill="#c23734"/><path d="M17.714 8.634l.88-1.456.223.98L21.8 5.563l-.554 2.15c-1.66 1.902-3.252 3.895-3.724 3.505-2.404-.642-.92-3.495.191-2.584z" fill="#e0b12e"/><path d="M16.94 22.335a1.037 1.037 0 01-.927 1.12v-2.24a1.037 1.037 0 01.927 1.12z" fill="#c95f2b"/><ellipse cx="19.534" cy="21.511" rx=".884" ry="1.068" fill="#c95f2b"/></svg>