<svg xmlns="http://www.w3.org/2000/svg" viewBox="0 0 32 32"><path d="M29.98 16C29.405 7.606 23.724.766 16 .738v30.525C23.736 31.25 30.98 28.07 29.98 16z" fill="#47a1b4"/><path d="M20.24 4.38A11.068 11.068 0 0016 6.313V9.16a4.798 4.798 0 011.814 2.039c1.571-1.196 4.138-.857 7.38.527q-1.212-6.38-4.955-7.346z" fill="#9fccd3"/><circle cx="20.158" cy="8.211" r="1.793" fill="#2b3332"/><circle cx="20.158" cy="8.211" r="1.353" fill="#edeeee"/><path d="M20.354 4.185a5.579 5.579 0 013.154-.307c-2.562 3.898-5.54 3.668-6.088 1.905-.668-2.447 2.255-3.296 2.934-1.598z" fill="#fca15e"/><path fill="#2b3332" d="M19.208 11.56L16 13.375v.414l3.262-1.762 5.662 2.409.197-.324-5.913-2.552z"/><path d="M27.404 9.817h2.3c1.016 1.068 1.213 2.614 1.24 4.26l.99.736c.274 4.58-.93 6.567-2.175 8.484a6.314 6.314 0 01-4.063 0L26.901 12.8l1.132.09z" fill="#acd7dd"/><path d="M28.539 27.96c0 1.673-1.956 3.03-4.37 3.03-8.922 0-.188-.595-3.031-3.03 0-1.674.618-3.031 3.031-3.031s4.37 1.357 4.37 3.03z" fill="#4caebc"/><path d="M20.034 25.125a5.983 5.983 0 013.3.247 5.293 5.293 0 01-1.76 5.566 5.307 5.307 0 01-2.534-.35 8.36 8.36 0 01.994-5.463z" fill="#a5d1d8"/><path d="M16 16.467v7.717c1.004 0 1.818-1.728 1.818-3.858s-.814-3.859-1.818-3.859z" fill="#9fccd3"/><ellipse cx="21.396" cy="20.41" rx="2.721" ry="1.282" transform="rotate(-71.597 21.396 20.41)" fill="#9fccd3"/><path d="M2.02 15.999C2.595 7.606 8.276.765 16 .737v30.525C8.264 31.25 1.02 28.07 2.02 16z" fill="#4caebc"/><path d="M11.76 4.38A11.068 11.068 0 0116 6.313V9.16a4.798 4.798 0 00-1.814 2.038c-1.571-1.196-4.138-.856-7.38.527Q8.017 5.346 11.76 4.38z" fill="#a5d1d8"/><circle cx="11.842" cy="8.211" r="1.793" fill="#373f3f"/><circle cx="11.842" cy="8.211" r="1.353" fill="#f7f7f7"/><path d="M11.646 4.184a5.579 5.579 0 00-3.154-.307c2.562 3.898 5.54 3.668 6.088 1.906.668-2.447-2.255-3.296-2.934-1.6z" fill="#ffad68"/><path fill="#373f3f" d="M12.792 11.559L16 13.375v.413l-3.262-1.761-5.662 2.408-.197-.323 5.913-2.553z"/><path d="M4.596 9.816h-2.3c-1.016 1.068-1.213 2.614-1.24 4.26l-.99.737c-.274 4.58.93 6.567 2.175 8.483a6.314 6.314 0 004.063 0L5.099 12.8l-1.132.09z" fill="#b9e2e7"/><path d="M3.461 27.958c0 1.674 1.956 3.03 4.37 3.03 8.922 0 .188-.594 3.031-3.03 0-1.673-.618-3.03-3.031-3.03s-4.37 1.357-4.37 3.03z" fill="#51bac5"/><path d="M11.966 25.125a5.983 5.983 0 00-3.3.246 5.293 5.293 0 001.76 5.567 5.307 5.307 0 002.534-.35 8.36 8.36 0 00-.994-5.463z" fill="#acd7dd"/><path d="M16 16.466v7.717c-1.004 0-1.818-1.727-1.818-3.858s.814-3.859 1.818-3.859z" fill="#a5d1d8"/><ellipse cx="10.604" cy="20.409" rx="1.282" ry="2.721" transform="rotate(-18.403 10.604 20.41)" fill="#a5d1d8"/></svg>