<svg xmlns="http://www.w3.org/2000/svg" viewBox="0 0 32 32"><defs><style>.a{fill:#89283b;}.b{fill:#dbba8c;}.c{fill:#e5c79a;}.d{fill:#993147;}.e{fill:#912b41;}.f{fill:#e0c193;}.g{fill:#f7f7f7;}.h{fill:#373f3f;}.i{fill:#dadddc;}.j{fill:#bf538e;}.k{fill:#ffd04d;}.l{fill:#7f1e32;}.m{fill:#eacea1;}.n{fill:#edeeee;}.o{fill:#2b3332;}.p{fill:#e3e5e5;}.q{fill:#b54e8b;}.r{fill:#f7c845;}</style></defs><title>555-darmanitan-shiny</title><path class="a" d="M11.45642,25.03565c-.01977-.04187-.02917-.07092-.05041-.11456-.60169-1.53528-.47583-2.40345.01983-2.9325L9.50391,19.35334C7.81622,21.76746,7.41779,23.66877,8.85,24.84186l-.00647.002A6.5988,6.5988,0,0,0,11.45642,25.03565Z"/><path class="b" d="M8.84357,24.84382c-.68787.1463-1.15174.4533-1.24182,1.02832.11889.81237,2.39392,1.13739,3.99359.6737.40423-.03851.32165-.53595-.13892-1.51019A6.5988,6.5988,0,0,1,8.84357,24.84382Z"/><path class="c" d="M5.91754,24.9607,5.1947,23.76728,3.94775,25.27442,2.76587,23.19257l-.94336,2.16858-.80237-2.16858-.75043,1.744c-.42523,4.2569-.09521,5.817.77362,5.45318a13.17014,13.17014,0,0,0,6.30085.35663c.64392.13037.95257-.78058.57458-3.82409A4.2581,4.2581,0,0,0,5.91754,24.9607Z"/><path class="d" d="M1.82251,25.36115l.94336-2.16858,1.18188,2.08185,1.247-1.50714.72284,1.19342a17.97141,17.97141,0,0,1,.37647-5.429L9.24628,15.233,8.751,12.26,2.23212,15.72742C.96814,17.2323.30963,20.20356.29034,24.723c-.00769.07415-.01336.141-.02063.21362l.75043-1.744Z"/><path class="e" d="M8.14832,14.96479c0,4.975,3.51532,9.00811,7.85168,9.00811V5.95667C11.66364,5.95667,8.14832,9.98975,8.14832,14.96479Z"/><polygon class="f" points="14.554 9.422 12.674 8.503 11.003 11.26 12.674 13.934 14.68 12.43 16 13.734 16 10.851 14.554 9.422"/><ellipse class="g" cx="13.24378" cy="11.21795" rx="1.6298" ry="1.227" transform="translate(-1.15668 20.90643) rotate(-74.19806)"/><ellipse class="h" cx="13.19633" cy="11.38558" rx="0.86641" ry="0.65228" transform="translate(-1.35251 20.98277) rotate(-74.19806)"/><path class="i" d="M14.65552,14.10267,12.31744,16.0246,10.21716,13.211C10.09485,17.7865,12.09973,19.70539,16,19.76386V15.623Z"/><path class="j" d="M13.19635,8.15845l.22223-.98035L10.69269,2.67V3.85883L8.05743,1.38208,5.16461,1.02539,8.01782,4.25507l-.67364.37653c.87787.26422,2.16925,1.64715,3.42206,3.08227l-.55433-2.15106Z"/><path class="k" d="M14.29889,8.634,13.41858,7.1781l-.22223.98035L10.21191,5.56281l.55433,2.15106c1.65966,1.90119,3.25158,3.89435,3.724,3.50409C16.89447,10.57575,15.41077,7.72254,14.29889,8.634Z"/><path class="b" d="M15.07318,22.33539A1.03692,1.03692,0,0,0,16,23.45484V21.21589A1.03694,1.03694,0,0,0,15.07318,22.33539Z"/><ellipse class="b" cx="12.4796" cy="21.51128" rx="0.88429" ry="1.06815"/><path class="l" d="M20.54358,25.03565c.01977-.04187.02917-.07092.05041-.11456.60169-1.53528.47583-2.40345-.01983-2.9325l1.92193-2.63525c1.68769,2.41412,2.08612,4.31543.65387,5.48852l.00647.002A6.5988,6.5988,0,0,1,20.54358,25.03565Z"/><path class="f" d="M23.15643,24.84382c.68787.1463,1.15174.4533,1.24182,1.02832-.11889.81237-2.39392,1.13739-3.99359.6737-.40423-.03851-.32165-.53595.13892-1.51019A6.5988,6.5988,0,0,0,23.15643,24.84382Z"/><path class="m" d="M26.08246,24.9607l.72284-1.19342,1.247,1.50714,1.18188-2.08185.94336,2.16858.80237-2.16858.75043,1.744c.42523,4.2569.09521,5.817-.77362,5.45318a13.17014,13.17014,0,0,1-6.30085.35663c-.64392.13037-.95257-.78058-.57458-3.82409A4.2581,4.2581,0,0,1,26.08246,24.9607Z"/><path class="e" d="M30.17749,25.36115l-.94336-2.16858-1.18188,2.08185-1.247-1.50714-.72284,1.19342a17.97141,17.97141,0,0,0-.37647-5.429L22.75372,15.233,23.249,12.26l6.51886,3.46747c1.264,1.50488,1.92249,4.47614,1.94178,8.99555.00769.07415.01336.141.02063.21362l-.75043-1.744Z"/><path class="a" d="M23.85168,14.96479c0,4.975-3.51532,9.00811-7.85168,9.00811V5.95667C20.33636,5.95667,23.85168,9.98975,23.85168,14.96479Z"/><polygon class="c" points="17.446 9.422 19.326 8.503 20.997 11.26 19.326 13.934 17.32 12.43 16 13.734 16 10.851 17.446 9.422"/><ellipse class="n" cx="18.75622" cy="11.21795" rx="1.227" ry="1.6298" transform="translate(-2.34597 5.5315) rotate(-15.80194)"/><ellipse class="o" cx="18.80367" cy="11.38558" rx="0.65228" ry="0.86641" transform="translate(-2.38983 5.55076) rotate(-15.80194)"/><path class="p" d="M17.34448,14.10267l2.33808,1.92193,2.10028-2.8136c.12231,4.5755-1.88257,6.49439-5.78284,6.55286V15.623Z"/><path class="q" d="M18.80365,8.15845l-.22223-.98035L21.30731,2.67V3.85883l2.63526-2.47675,2.89282-.35669L23.98218,4.25507l.67364.37653c-.87787.26422-2.16925,1.64715-3.42206,3.08227l.55433-2.15106Z"/><path class="r" d="M17.70111,8.634l.88031-1.45588.22223.98035,2.98444-2.59564-.55433,2.15106c-1.65966,1.90119-3.25158,3.89435-3.724,3.50409C15.10553,10.57575,16.58923,7.72254,17.70111,8.634Z"/><path class="f" d="M16.92682,22.33539A1.03692,1.03692,0,0,1,16,23.45484V21.21589A1.03694,1.03694,0,0,1,16.92682,22.33539Z"/><ellipse class="f" cx="19.5204" cy="21.51128" rx="0.88429" ry="1.06815"/></svg>