<svg xmlns="http://www.w3.org/2000/svg" viewBox="0 0 32 32"><title>558-crustle</title><rect y="18.72387" width="16" height="10.75" style="fill:#7f6858"/><rect y="-0.02613" width="16" height="4.79169" style="fill:#c09265"/><rect y="4.76556" width="16" height="0.62494" style="fill:#7f6858"/><rect y="5.3905" width="16" height="5.41669" style="fill:#c09265"/><rect y="10.80719" width="16" height="1.16669" style="fill:#e8ba36"/><rect y="11.97387" width="16" height="6.75" style="fill:#c09265"/><path d="M8.91669,26.68219c0,2.05627,2.6206,2.78912,7.08331,2.79144V22.41137C11.20831,22.41137,9.16669,24.212,8.91669,26.68219Z" style="fill:#373f3f"/><polygon points="10.823 25.201 10.823 26.84 9.737 26.501 8.139 25.943 6.959 25.575 6.425 22.655 7.453 22.655 10.823 25.201" style="fill:#f57552"/><path d="M11.27991,25.94262c0,1.647,2.11328,2.98218,4.72009,2.98218V22.96045C13.39319,22.96045,11.27991,24.29559,11.27991,25.94262Z" style="fill:#eb6b48"/><ellipse cx="12.78771" cy="23.30703" rx="1.36005" ry="2.16667" transform="translate(-5.24824 3.77634) rotate(-13.9695)" style="fill:#f0c13e"/><ellipse cx="12.90996" cy="23.43571" rx="0.40629" ry="0.64725" transform="translate(-5.27569 3.80966) rotate(-13.9695)" style="fill:#373f3f"/><path d="M8.13875,25.94262a4.38959,4.38959,0,0,0-.68549-3.28741c-1.7984-2.22571-5.86694-2.90228-6.89972,0C-.47392,27.37732.15608,29.26257,2.08485,28.9248,1.31923,24.54321,5.05836,23.04693,8.13875,25.94262Z" style="fill:#ff805d"/><path d="M3.49147,30.20483c.69446.23145,1.45117,1.96747,2.475,1.63806a2.416,2.416,0,0,0-.39172-1.46c.0365.295,1.62122.09918,1.58472-.19586a2.69469,2.69469,0,0,0,.97931,1.44226,4.41337,4.41337,0,0,0,0-3.00916C7.57539,26.96808,2.92811,28.55279,3.49147,30.20483Z" style="fill:#a79586"/><path d="M8.13875,25.94262c-3.08039-2.89569-6.81952-1.39941-6.0539,2.98218.61511.83814,1.13007,1.39441,1.40662,1.28-.56336-1.652,4.08392-3.23675,4.64728-1.58472A2.03782,2.03782,0,0,0,8.13875,25.94262Z" style="fill:#ab998b"/><rect x="16" y="18.72387" width="16" height="10.75" style="fill:#776151"/><rect x="16" y="-0.02613" width="16" height="4.79169" style="fill:#b38658"/><rect x="16" y="4.76556" width="16" height="0.62494" style="fill:#776151"/><rect x="16" y="5.3905" width="16" height="5.41669" style="fill:#b38658"/><rect x="16" y="10.80719" width="16" height="1.16669" style="fill:#e0b12e"/><rect x="16" y="11.97387" width="16" height="6.75" style="fill:#b38658"/><path d="M23.08331,26.68219c0,2.05627-2.6206,2.78912-7.08331,2.79144V22.41137C20.79169,22.41137,22.83331,24.212,23.08331,26.68219Z" style="fill:#2b3332"/><polygon points="21.177 25.201 21.177 26.84 22.263 26.501 23.861 25.943 25.041 25.575 25.575 22.655 24.547 22.655 21.177 25.201" style="fill:#eb6b48"/><path d="M20.72009,25.94262c0,1.647-2.11328,2.98218-4.72009,2.98218V22.96045C18.60681,22.96045,20.72009,24.29559,20.72009,25.94262Z" style="fill:#e56142"/><ellipse cx="19.21229" cy="23.30703" rx="2.16667" ry="1.36005" transform="translate(-8.04337 36.32466) rotate(-76.0305)" style="fill:#e8ba36"/><ellipse cx="19.09004" cy="23.43571" rx="0.64725" ry="0.40629" transform="translate(-8.26097 36.30364) rotate(-76.0305)" style="fill:#2b3332"/><path d="M23.86125,25.94262a4.38959,4.38959,0,0,1,.68549-3.28741c1.7984-2.22571,5.86694-2.90228,6.89972,0,1.02746,4.72211.39746,6.60736-1.53131,6.26959C30.68077,24.54321,26.94164,23.04693,23.86125,25.94262Z" style="fill:#f57552"/><path d="M28.50853,30.20483c-.69446.23145-1.45117,1.96747-2.475,1.63806a2.416,2.416,0,0,1,.39172-1.46c-.0365.295-1.62122.09918-1.58472-.19586a2.69469,2.69469,0,0,1-.97931,1.44226,4.41337,4.41337,0,0,1,0-3.00916C24.42461,26.96808,29.07189,28.55279,28.50853,30.20483Z" style="fill:#ab998b"/><path d="M23.86125,25.94262c3.08039-2.89569,6.81952-1.39941,6.0539,2.98218-.61511.83814-1.13007,1.39441-1.40662,1.28.56336-1.652-4.08392-3.23675-4.64728-1.58472A2.03782,2.03782,0,0,1,23.86125,25.94262Z" style="fill:#a79586"/></svg>