<svg xmlns="http://www.w3.org/2000/svg" viewBox="0 0 32 32"><title>558-crustle-shiny</title><rect y="18.79478" width="16" height="10.75" style="fill:#413b3b"/><rect y="0.04478" width="16" height="4.79169" style="fill:#909997"/><rect y="4.83646" width="16" height="0.62494" style="fill:#413b3b"/><rect y="5.4614" width="16" height="5.41669" style="fill:#909997"/><rect y="10.87809" width="16" height="1.16669" style="fill:#8fb720"/><rect y="12.04478" width="16" height="6.75" style="fill:#909997"/><path d="M8.91669,26.75309c0,2.05627,2.6206,2.78912,7.08331,2.79144V22.48228C11.20831,22.48228,9.16669,24.28287,8.91669,26.75309Z" style="fill:#373f3f"/><polygon points="10.823 25.272 10.823 26.91 9.737 26.572 8.139 26.014 6.959 25.646 6.425 22.726 7.453 22.726 10.823 25.272" style="fill:#54b668"/><path d="M11.27991,26.01353c0,1.647,2.11328,2.98217,4.72009,2.98217V23.03135C13.39319,23.03135,11.27991,24.36649,11.27991,26.01353Z" style="fill:#4eac5d"/><ellipse cx="12.78771" cy="23.37793" rx="1.36005" ry="2.16667" transform="translate(-5.26535 3.77844) rotate(-13.9695)" style="fill:#93c427"/><ellipse cx="12.90996" cy="23.50661" rx="0.40629" ry="0.64725" transform="translate(-5.2928 3.81176) rotate(-13.9695)" style="fill:#373f3f"/><path d="M8.13875,26.01353a4.38961,4.38961,0,0,0-.68549-3.28742c-1.7984-2.22571-5.86694-2.90228-6.89972,0C-.47392,27.44822.15608,29.33347,2.08485,28.9957,1.31923,24.61411,5.05836,23.11783,8.13875,26.01353Z" style="fill:#60c46f"/><path d="M3.49147,30.27573c.69446.23145,1.45117,1.96747,2.475,1.63806a2.416,2.416,0,0,0-.39172-1.46c.0365.295,1.62122.09918,1.58472-.19586a2.69469,2.69469,0,0,0,.97931,1.44226,4.41335,4.41335,0,0,0,0-3.00915C7.57539,27.039,2.92811,28.62369,3.49147,30.27573Z" style="fill:#807a7a"/><path d="M8.13875,26.01353c-3.08039-2.8957-6.81952-1.39942-6.0539,2.98217.61511.83814,1.13007,1.39441,1.40662,1.28-.56336-1.652,4.08392-3.23675,4.64728-1.58471A2.03782,2.03782,0,0,0,8.13875,26.01353Z" style="fill:#8d8888"/><rect x="16" y="18.79478" width="16" height="10.75" style="fill:#3a3333"/><rect x="16" y="0.04478" width="16" height="4.79169" style="fill:#838c8a"/><rect x="16" y="4.83646" width="16" height="0.62494" style="fill:#3a3333"/><rect x="16" y="5.4614" width="16" height="5.41669" style="fill:#838c8a"/><rect x="16" y="10.87809" width="16" height="1.16669" style="fill:#8ead1e"/><rect x="16" y="12.04478" width="16" height="6.75" style="fill:#838c8a"/><path d="M23.08331,26.75309c0,2.05627-2.6206,2.78912-7.08331,2.79144V22.48228C20.79169,22.48228,22.83331,24.28287,23.08331,26.75309Z" style="fill:#2b3332"/><polygon points="21.177 25.272 21.177 26.91 22.263 26.572 23.861 26.014 25.041 25.646 25.575 22.726 24.547 22.726 21.177 25.272" style="fill:#4eac5d"/><path d="M20.72009,26.01353c0,1.647-2.11328,2.98217-4.72009,2.98217V23.03135C18.60681,23.03135,20.72009,24.36649,20.72009,26.01353Z" style="fill:#48a353"/><ellipse cx="19.21229" cy="23.37793" rx="2.16667" ry="1.36005" transform="translate(-8.11218 36.37845) rotate(-76.0305)" style="fill:#8fb720"/><ellipse cx="19.09004" cy="23.50661" rx="0.64725" ry="0.40629" transform="translate(-8.32978 36.35743) rotate(-76.0305)" style="fill:#2b3332"/><path d="M23.86125,26.01353a4.38961,4.38961,0,0,1,.68549-3.28742c1.7984-2.22571,5.86694-2.90228,6.89972,0,1.02746,4.72211.39746,6.60736-1.53131,6.26959C30.68077,24.61411,26.94164,23.11783,23.86125,26.01353Z" style="fill:#54b668"/><path d="M28.50853,30.27573c-.69446.23145-1.45117,1.96747-2.475,1.63806a2.416,2.416,0,0,1,.39172-1.46c-.0365.295-1.62122.09918-1.58472-.19586a2.69469,2.69469,0,0,1-.97931,1.44226,4.41335,4.41335,0,0,1,0-3.00915C24.42461,27.039,29.07189,28.62369,28.50853,30.27573Z" style="fill:#8d8888"/><path d="M23.86125,26.01353c3.08039-2.8957,6.81952-1.39942,6.0539,2.98217-.61511.83814-1.13007,1.39441-1.40662,1.28.56336-1.652-4.08392-3.23675-4.64728-1.58471A2.03782,2.03782,0,0,1,23.86125,26.01353Z" style="fill:#807a7a"/></svg>