<svg xmlns="http://www.w3.org/2000/svg" viewBox="0 0 32 32"><path d="M11.118 24.098l-.879.418.44.92-1.98 1.423 1.21 1.046-1.21 1.088h1.833c-7.175 2.775.544 4.456 1.004 1.297h4.477v-6.192z" fill="#e2b060"/><path d="M13.502 15.438c.61 2.19-.813 5.489-3.263 9.078h2.677c-.012-4.065.826-7.195 3.097-7.215v-1.198z" fill="#ffeaa7"/><path d="M12.916 24.516h3.097v-7.215c-2.27.02-3.11 3.15-3.097 7.215z" fill="#e85160"/><path fill="#f3586f" d="M15.05 0h.962v2.866h-.962z"/><path d="M8.492 5.856a3.842 3.842 0 011.747 3.564c0 1.811-.84 3.319-1.953 3.657.017.024.028.05.045.074a24.273 24.273 0 017.682-1.144V2.468a9.457 9.457 0 00-7.521 3.388z" fill="#e8ba67"/><path d="M10.24 9.42a3.842 3.842 0 00-1.748-3.564A6.13 6.13 0 007.16 9.61a6.064 6.064 0 001.126 3.468c1.113-.34 1.953-1.847 1.953-3.658z" fill="#f7f7f7"/><path d="M8.33 13.15a9.377 9.377 0 007.683 3.602v-4.745a24.273 24.273 0 00-7.682 1.144z" fill="#fff5d8"/><ellipse cx="8.699" cy="9.467" rx=".628" ry="1.234" fill="#373f3f"/><path d="M13.373 18.366c-3.727.69-5.878 2.388-4.807 6.15-.733.6.396 1.98 1.13 1.381.472.907 2.397-.097 1.924-1.004.842-.094.675-1.6-.168-1.506-1.907-1.773-.279-2.477 1.268-3.205" fill="#fef1c6"/><path d="M20.882 24.098l.879.418-.44.92 1.98 1.423-1.21 1.046 1.21 1.088h-1.833c7.175 2.775-.544 4.456-1.004 1.297h-4.477v-6.192z" fill="#daa355"/><path d="M18.498 15.438c-.61 2.19.813 5.489 3.263 9.078h-2.677c.012-4.065-.826-7.195-3.097-7.215v-1.198z" fill="#ffe28a"/><path d="M19.084 24.516h-3.097v-7.215c2.27.02 3.11 3.15 3.097 7.215z" fill="#d84459"/><path fill="#e85160" d="M15.987 0h.962v2.866h-.962z"/><path d="M23.508 5.856a3.842 3.842 0 00-1.747 3.564c0 1.811.84 3.319 1.953 3.657-.017.024-.028.05-.045.074a24.273 24.273 0 00-7.682-1.144V2.468a9.457 9.457 0 017.521 3.388z" fill="#e2b060"/><path d="M21.76 9.42a3.842 3.842 0 011.748-3.564A6.13 6.13 0 0124.84 9.61a6.064 6.064 0 01-1.126 3.468c-1.113-.34-1.953-1.847-1.953-3.658z" fill="#e3e5e5"/><path d="M23.67 13.15a9.377 9.377 0 01-7.683 3.602v-4.745a24.273 24.273 0 017.682 1.144z" fill="#fef1c6"/><ellipse cx="23.301" cy="9.467" rx=".628" ry="1.234" fill="#2b3332"/><path d="M18.627 18.366c3.727.69 5.878 2.388 4.807 6.15.733.6-.396 1.98-1.13 1.381-.472.907-2.397-.097-1.924-1.004-.842-.094-.675-1.6.168-1.506 1.907-1.773.279-2.477-1.268-3.205" fill="#ffeaa7"/></svg>