<svg xmlns="http://www.w3.org/2000/svg" viewBox="0 0 32 32"><title>560-scrafty-shiny</title><path d="M13.69122,25.02741l-1.824.36945-.76191-.83117,2.0318-1.84706L9.48917,20.964v3.50933L7.41125,27.29006l1.15443,1.38528L7.596,30.01442l1.26982.69264-.66958.92357c0,.49249,5.17174.49249,5.17174,0l-.73884-2.12412H16V26.82827Z" style="fill:#9acc2e"/><path d="M14.29146,17.08517l-1.15435,5.63346-2.0318,1.84706.76191.83117,1.26989-.25724a20.59011,20.59011,0,0,0,1.6066-7.14347l.44819-.40307H16v-.50791Z" style="fill:#f0c13e"/><path d="M15.1919,17.59308l-.44819.40307a20.59011,20.59011,0,0,1-1.6066,7.14347l.55411-.11221L16,26.82827V17.59308Z" style="fill:#757f7e"/><path d="M13.06,17.08517l-.82336.20251-2.14715.62864-.87737,2.44733c-1.18-.49483-1.78026.93663-.60029,1.43146a.90376.90376,0,1,0,1.75469.41557.93852.93852,0,1,0,.46939-1.80086l.50555-1.70851,3.04238-1.10823-.41441-.96969Z" style="fill:#f7c845"/><path d="M12.12121,14.36074c-1.80736,1.01664-.145,3.97193,1.66234,2.95529L16,18.886v-4.5253Z" style="fill:#a2d336"/><path d="M8.8658,10.27415c0,3.02206,3.19406,5.47187,7.1342,5.47187V4.80229C12.05986,4.80229,8.8658,7.25217,8.8658,10.27415Z" style="fill:#ffd04d"/><path d="M10.15909,9.572a4.67513,4.67513,0,0,0-.0696.77138c0,1.50467.68222,2.72443,1.52381,2.72443s1.52381-1.21976,1.52381-2.72443A4.66132,4.66132,0,0,0,13.06,9.52848,9.05762,9.05762,0,0,0,10.15909,9.572Z" style="fill:#f7f7f7"/><path d="M11.6133,7.61905c-.69062,0-1.26712.82684-1.45421,1.953A9.05762,9.05762,0,0,1,13.06,9.52848C12.86533,8.42472,12.295,7.61905,11.6133,7.61905Z" style="fill:#838c8a"/><path d="M14.74371,4.5945c0,2.53747.56243,4.59456,1.25629,4.59456V0C15.30614,0,14.74371,2.057,14.74371,4.5945Z" style="fill:#d6712d"/><path d="M15.1919,2.95529c0,1.6321.36181,2.95522.8081,2.95522V0C15.55371,0,15.1919,1.32312,15.1919,2.95529Z" style="fill:#e8803a"/><ellipse cx="11.86725" cy="10.76227" rx="0.25396" ry="0.4881" style="fill:#373f3f"/><path d="M18.30878,25.02741l1.824.36945.76191-.83117-2.0318-1.84706L22.51083,20.964v3.50933l2.07792,2.81677-1.15443,1.38528.9697,1.33908-1.26982.69264.66958.92357c0,.49249-5.17174.49249-5.17174,0l.73884-2.12412H16V26.82827Z" style="fill:#93c427"/><path d="M17.70854,17.08517l1.15435,5.63346,2.0318,1.84706-.76191.83117-1.26989-.25724a20.59011,20.59011,0,0,1-1.6066-7.14347l-.44819-.40307H16v-.50791Z" style="fill:#e8ba36"/><path d="M16.8081,17.59308l.44819.40307a20.59011,20.59011,0,0,0,1.6066,7.14347l-.55411-.11221L16,26.82827V17.59308Z" style="fill:#687271"/><path d="M18.94,17.08517l.82336.20251,2.14715.62864.87737,2.44733c1.18-.49483,1.78026.93663.60029,1.43146a.90376.90376,0,1,1-1.75469.41557.93852.93852,0,1,1-.46939-1.80086l-.50555-1.70851-3.04238-1.10823.41441-.96969Z" style="fill:#f0c13e"/><path d="M19.87879,14.36074c1.80736,1.01664.145,3.97193-1.66234,2.95529L16,18.886v-4.5253Z" style="fill:#9acc2e"/><path d="M23.1342,10.27415c0,3.02206-3.19406,5.47187-7.1342,5.47187V4.80229C19.94014,4.80229,23.1342,7.25217,23.1342,10.27415Z" style="fill:#f7c845"/><path d="M21.84091,9.572a4.67513,4.67513,0,0,1,.0696.77138c0,1.50467-.68222,2.72443-1.52381,2.72443s-1.52381-1.21976-1.52381-2.72443A4.66132,4.66132,0,0,1,18.94,9.52848,9.05762,9.05762,0,0,1,21.84091,9.572Z" style="fill:#edeeee"/><path d="M20.3867,7.61905c.69062,0,1.26712.82684,1.45421,1.953A9.05762,9.05762,0,0,0,18.94,9.52848C19.13467,8.42472,19.705,7.61905,20.3867,7.61905Z" style="fill:#757f7e"/><path d="M17.25629,4.5945c0,2.53747-.56243,4.59456-1.25629,4.59456V0C16.69386,0,17.25629,2.057,17.25629,4.5945Z" style="fill:#c95f2b"/><path d="M16.8081,2.95529c0,1.6321-.36181,2.95522-.8081,2.95522V0C16.44629,0,16.8081,1.32312,16.8081,2.95529Z" style="fill:#d6712d"/><ellipse cx="20.13275" cy="10.76227" rx="0.25396" ry="0.4881" style="fill:#2b3332"/></svg>