<svg xmlns="http://www.w3.org/2000/svg" viewBox="0 0 32 32"><defs><style>.a{fill:#373f3f;}.b{fill:#dadddc;}.c{fill:#876f5d;}.d{fill:#edeeee;}.e{fill:#e3e5e5;}.f{fill:#d9f07d;}.g{fill:#f79654;}.h{fill:#c23734;}.i{fill:#cbeb6b;}.j{fill:#fca15e;}.k{fill:#cf3c35;}.l{fill:#e6f490;}.m{fill:#fefefe;}.n{fill:#2b3332;}.o{fill:#d1d4d4;}.p{fill:#7f6858;}.q{fill:#ef8c48;}.r{fill:#b33533;}.s{fill:#bee758;}.t{fill:#f7f7f7;}</style></defs><title>561-sigilyph-shiny</title><path class="a" d="M9.48275,18.13336v-.811c-1.41588.18515-2.765.34744-2.83849.07278C6.56091,17.07808,9.14483,15.69,10.169,15.69c.45229,0,.58724.60532.49908,1.86113h.88377l.14557.93576H10.64725c.18084,1.15569.23914,1.82993-.208,2.06907a6.60235,6.60235,0,0,1-3.70146.36391c.21507-.33992,1.05549-.74463,2.74491-1.23729l-.0312-.53026c-.83911.24337-2.68918.24337-2.85927-.16636C6.68511,18.66386,8.34408,18.1434,9.48275,18.13336Z"/><path class="b" d="M14.91669,21.05505v1.18433a3.34823,3.34823,0,0,0,1.07361.16687L16,22.40558V21.05505Z"/><path class="c" d="M11.77582,15.24768a4.62615,4.62615,0,0,0-.434,1.49042l1.0332.86609L14,16.41669l2,1.1875V16.0011A10.10668,10.10668,0,0,1,11.77582,15.24768Z"/><path class="d" d="M14,16.41669l-1.625,1.1875-1.0332-.86609c-.009.08-.00977.1626-.0149.24377l1.04065.87232,1.625-1.1875,2,1.1875H16v-.25Z"/><path class="a" d="M15.99255,17.85419l-2-1.1875-1.625,1.1875-1.04065-.87232c-.00494.07868-.0144.156-.0144.23615a4.65713,4.65713,0,0,0,.33,1.70105l1.11248.93255,1.44965-1.05938,1.78418,1.05938H16V17.85419Z"/><path class="d" d="M15.98883,19.85162l-1.78418-1.05938L12.755,19.85162l-1.11248-.93255a4.67443,4.67443,0,0,0,.21881.45666l.89178.74756,1.44965-1.05939,1.78418,1.05939H16v-.27167Z"/><path class="c" d="M15.98694,20.12329,14.20276,19.0639l-1.44965,1.05939-.89178-.74756A4.66358,4.66358,0,0,0,16,21.90552V20.12329Z"/><path class="a" d="M12.28448,14.39691a4.79632,4.79632,0,0,0-.50866.85077A10.10668,10.10668,0,0,0,16,16.0011V14.93677A11.503,11.503,0,0,1,12.28448,14.39691Z"/><path class="e" d="M12.85071,13.76709a4.82831,4.82831,0,0,0-.56623.62982A11.503,11.503,0,0,0,16,14.93677V14.1347A12.67505,12.67505,0,0,1,12.85071,13.76709Z"/><path class="f" d="M12.85071,13.76709A12.67505,12.67505,0,0,0,16,14.1347V12.53052A4.65461,4.65461,0,0,0,12.85071,13.76709Z"/><circle class="d" cx="12.90442" cy="18.62493" r="0.77075"/><circle class="g" cx="12.90442" cy="18.62493" r="0.43268"/><path class="g" d="M12.13367,32c.17315-.68457.33362-1.3634.46985-2.03125h-.9928C11.761,30.65057,11.93848,31.327,12.13367,32Z"/><path class="g" d="M14.875,32a19.09879,19.09879,0,0,0,.45355-2.03125h-.92718C14.54431,30.63525,14.70648,31.31543,14.875,32Z"/><path class="h" d="M11.61072,29.96875h.9928q.12276-.602.20935-1.1875H11.3866Q11.48154,29.37836,11.61072,29.96875Z"/><path class="h" d="M14.40137,29.96875h.92718c.06452-.38892.10956-.78613.14472-1.1875H14.17273C14.24017,29.1709,14.31494,29.56567,14.40137,29.96875Z"/><path class="g" d="M14.17273,28.78125h1.30054c.0332-.37878.04974-.76465.05261-1.15625H14.01013C14.05182,28.00159,14.10425,28.38574,14.17273,28.78125Z"/><path class="i" d="M15.9903,22.40625a3.34823,3.34823,0,0,1-1.07361-.16687v.30231L11.3125,24.75a12.50037,12.50037,0,0,0-.0639,2.875h1.68878a9.00555,9.00555,0,0,0-.033-1.83331l1.13727-.725a8.62184,8.62184,0,0,0-.03156,2.55835h1.51575a13.83613,13.83613,0,0,0-.40088-3.41669L16,23.5V22.40558Z"/><path class="g" d="M11.3866,28.78125h1.42627c.05865-.39319.09759-.77747.12451-1.15625H11.2486C11.282,28.01288,11.32581,28.39874,11.3866,28.78125Z"/><path class="j" d="M4.055,5.38287a6.59879,6.59879,0,0,0-2.78173-.231A5.16344,5.16344,0,0,0,3.9342,7.24469,4.29,4.29,0,0,1,4.055,5.38287Z"/><path class="k" d="M5.39026,5.7934C4.93292,5.627,4.48865,5.49469,4.055,5.38287A4.29,4.29,0,0,0,3.9342,7.24469c.43695.19843.90839.38464,1.4021.558A4.33239,4.33239,0,0,1,5.39026,5.7934Z"/><path class="j" d="M5.39026,5.7934a4.33239,4.33239,0,0,0-.054,2.00927c.41913.14716.84845.28833,1.29267.41632a3.9508,3.9508,0,0,1,.04266-1.90716C6.24152,6.118,5.81323,5.94727,5.39026,5.7934Z"/><path class="j" d="M7.5,13.0625a2.1029,2.1029,0,0,0,1.65021.45081,1.97255,1.97255,0,0,1-.36493-1.00922A2.01324,2.01324,0,0,0,7.5,13.0625Z"/><path class="k" d="M9.41168,12.40735c-.221.02692-.42975.05963-.6264.09674a1.97255,1.97255,0,0,0,.36493,1.00922c.21551-.0055.43939-.01905.675-.04541A2.39293,2.39293,0,0,1,9.41168,12.40735Z"/><path class="j" d="M9.41168,12.40735A2.39293,2.39293,0,0,0,9.8252,13.4679c.24267-.02717.49127-.061.74749-.10553a2.89706,2.89706,0,0,1-.43957-1.02607C9.88458,12.35455,9.64423,12.379,9.41168,12.40735Z"/><path class="j" d="M3.85632,1.2428A15.78621,15.78621,0,0,0,0,0,16.28374,16.28374,0,0,0,3.1496,2.93347,2.69638,2.69638,0,0,1,3.85632,1.2428Z"/><path class="k" d="M5.15656,1.90259q-.64417-.35733-1.30024-.65979A2.69638,2.69638,0,0,0,3.1496,2.93347q.64873.48075,1.3678.95618A3.06369,3.06369,0,0,1,5.15656,1.90259Z"/><path class="j" d="M4.5174,3.88965c.50213.33264,1.02264.66382,1.56988.993A4.86968,4.86968,0,0,1,6.4541,2.67072c-.42792-.27729-.86194-.52643-1.29754-.76813A3.06369,3.06369,0,0,0,4.5174,3.88965Z"/><path class="j" d="M3.42694,9.30194a4.32987,4.32987,0,0,0,2.38715,1.26648,5.73575,5.73575,0,0,1-.22339-1.381A4.6575,4.6575,0,0,0,3.42694,9.30194Z"/><path class="k" d="M6.85425,9.39587c-.43982-.09344-.85877-.15905-1.26355-.20849a5.73575,5.73575,0,0,0,.22339,1.381c.4154.11823.86352.22626,1.33563.32312A4.91751,4.91751,0,0,1,6.85425,9.39587Z"/><path class="j" d="M6.85425,9.39587a4.91751,4.91751,0,0,0,.29547,1.49567c.33832.0694.68359.13538,1.03979.194a5.3485,5.3485,0,0,1-.24316-1.43274C7.57776,9.55731,7.213,9.47205,6.85425,9.39587Z"/><path class="l" d="M13.32529,13.24188C12.7919,11.22,10.56168,7.03033,10.43747,5.8125a29.05306,29.05306,0,0,0-3.9834-3.14178,4.86968,4.86968,0,0,0-.36682,2.21191q1.249.75127,2.63147,1.49237c-.22852.17456.03772.67236.42609,1.25A21.03418,21.03418,0,0,0,6.6716,6.31183,3.9508,3.9508,0,0,0,6.62894,8.219c.95715.2757,1.95373.50739,2.91839.68726-.22754.12915.2995,1.13928.64069,1.38739.05835.01788.11981.036.17755.05377-.04565.02594-.10913-.004-.17755-.05377-.72131-.2207-1.48334-.4444-2.2417-.64087a5.3485,5.3485,0,0,0,.24316,1.43274c.81629.13428,1.666.24133,2.494.32074-.03161.40039.21021.60931.629.87585-.39142.00788-.79132.02576-1.17938.0542a2.89706,2.89706,0,0,0,.43957,1.02607c.42682-.07422.86621-.16785,1.30066-.27185.48755.1939.82038.9071,1.10694,1.16339a.28289.28289,0,0,0,.20721.098C13.49582,14.32343,13.4971,13.89319,13.32529,13.24188Z"/><path class="a" d="M15.326,7.68555c-1.51575,1.88733-1.19037,2.89959-.22077,3.60559l-.40472,1.80279c0,.15119.63416.22962,1.2995.23719V4.2149C15.37506,4.2149,15.51538,6.28943,15.326,7.68555Z"/><path class="m" d="M14.921,9.86743A1.092,1.092,0,0,0,16,10.95825V8.77667A1.092,1.092,0,0,0,14.921,9.86743Z"/><path class="g" d="M15.4007,9.86743A.61234.61234,0,0,0,16,10.47852V9.25641A.61231.61231,0,0,0,15.4007,9.86743Z"/><path class="n" d="M22.51725,18.13336v-.811c1.41588.18515,2.765.34744,2.83849.07278C25.43909,17.07808,22.85517,15.69,21.831,15.69c-.45229,0-.58724.60532-.49908,1.86113h-.88377l-.14557.93576h1.05014c-.18084,1.15569-.23914,1.82993.208,2.06907a6.60235,6.60235,0,0,0,3.70146.36391c-.21507-.33992-1.05549-.74463-2.74491-1.23729l.0312-.53026c.83911.24337,2.68918.24337,2.85927-.16636C25.31489,18.66386,23.65592,18.1434,22.51725,18.13336Z"/><path class="o" d="M17.08331,21.05505v1.18433a3.34823,3.34823,0,0,1-1.07361.16687L16,22.40558V21.05505Z"/><path class="p" d="M20.22418,15.24768a4.62615,4.62615,0,0,1,.434,1.49042l-1.0332.86609L18,16.41669l-2,1.1875V16.0011A10.10668,10.10668,0,0,0,20.22418,15.24768Z"/><path class="e" d="M18,16.41669l1.625,1.1875,1.0332-.86609c.009.08.00977.1626.0149.24377l-1.04065.87232-1.625-1.1875-2,1.1875H16v-.25Z"/><path class="n" d="M16.00745,17.85419l2-1.1875,1.625,1.1875,1.04065-.87232c.00494.07868.0144.156.0144.23615a4.65713,4.65713,0,0,1-.33,1.70105l-1.11248.93255-1.44965-1.05938-1.78418,1.05938H16V17.85419Z"/><path class="e" d="M16.01117,19.85162l1.78418-1.05938L19.245,19.85162l1.11248-.93255a4.67443,4.67443,0,0,1-.21881.45666l-.89178.74756L17.79724,19.0639l-1.78418,1.05939H16v-.27167Z"/><path class="p" d="M16.01306,20.12329l1.78418-1.05939,1.44965,1.05939.89178-.74756A4.66358,4.66358,0,0,1,16,21.90552V20.12329Z"/><path class="n" d="M19.71552,14.39691a4.79632,4.79632,0,0,1,.50866.85077A10.10668,10.10668,0,0,1,16,16.0011V14.93677A11.503,11.503,0,0,0,19.71552,14.39691Z"/><path class="b" d="M19.14929,13.76709a4.82831,4.82831,0,0,1,.56623.62982A11.503,11.503,0,0,1,16,14.93677V14.1347A12.67505,12.67505,0,0,0,19.14929,13.76709Z"/><path class="i" d="M19.14929,13.76709A12.67505,12.67505,0,0,1,16,14.1347V12.53052A4.65461,4.65461,0,0,1,19.14929,13.76709Z"/><circle class="e" cx="19.09558" cy="18.62493" r="0.77075"/><circle class="q" cx="19.09558" cy="18.62493" r="0.43268"/><path class="q" d="M19.86633,32c-.17315-.68457-.33362-1.3634-.46985-2.03125h.9928C20.239,30.65057,20.06152,31.327,19.86633,32Z"/><path class="q" d="M17.125,32a19.09879,19.09879,0,0,1-.45355-2.03125h.92718C17.45569,30.63525,17.29352,31.31543,17.125,32Z"/><path class="r" d="M20.38928,29.96875h-.9928q-.12276-.602-.20935-1.1875H20.6134Q20.51847,29.37836,20.38928,29.96875Z"/><path class="r" d="M17.59863,29.96875h-.92718c-.06452-.38892-.10956-.78613-.14472-1.1875h1.30054C17.75983,29.1709,17.68506,29.56567,17.59863,29.96875Z"/><path class="q" d="M17.82727,28.78125H16.52673c-.0332-.37878-.04974-.76465-.05261-1.15625h1.51575C17.94818,28.00159,17.89575,28.38574,17.82727,28.78125Z"/><path class="s" d="M16.0097,22.40625a3.34823,3.34823,0,0,0,1.07361-.16687v.30231L20.6875,24.75a12.50037,12.50037,0,0,1,.0639,2.875H19.06262a9.00555,9.00555,0,0,1,.033-1.83331l-1.13727-.725a8.62184,8.62184,0,0,1,.03156,2.55835H16.47412a13.83613,13.83613,0,0,1,.40088-3.41669L16,23.5V22.40558Z"/><path class="q" d="M20.6134,28.78125H19.18713c-.05865-.39319-.09759-.77747-.12451-1.15625H20.7514C20.718,28.01288,20.67419,28.39874,20.6134,28.78125Z"/><path class="g" d="M27.945,5.38287a6.59879,6.59879,0,0,1,2.78173-.231A5.16344,5.16344,0,0,1,28.0658,7.24469,4.29,4.29,0,0,0,27.945,5.38287Z"/><path class="h" d="M26.60974,5.7934c.45734-.16639.90161-.29871,1.33521-.41053a4.29,4.29,0,0,1,.12085,1.86182c-.43695.19843-.90839.38464-1.4021.558A4.33239,4.33239,0,0,0,26.60974,5.7934Z"/><path class="g" d="M26.60974,5.7934a4.33239,4.33239,0,0,1,.054,2.00927c-.41913.14716-.84845.28833-1.29267.41632a3.9508,3.9508,0,0,0-.04266-1.90716C25.75848,6.118,26.18677,5.94727,26.60974,5.7934Z"/><path class="g" d="M24.5,13.0625a2.1029,2.1029,0,0,1-1.65021.45081,1.97255,1.97255,0,0,0,.36493-1.00922A2.01324,2.01324,0,0,1,24.5,13.0625Z"/><path class="h" d="M22.58832,12.40735c.221.02692.42975.05963.6264.09674a1.97255,1.97255,0,0,1-.36493,1.00922c-.21551-.0055-.43939-.01905-.675-.04541A2.39293,2.39293,0,0,0,22.58832,12.40735Z"/><path class="g" d="M22.58832,12.40735a2.39293,2.39293,0,0,1-.41352,1.06055c-.24267-.02717-.49127-.061-.74749-.10553a2.89706,2.89706,0,0,0,.43957-1.02607C22.11542,12.35455,22.35577,12.379,22.58832,12.40735Z"/><path class="g" d="M28.14368,1.2428A15.78621,15.78621,0,0,1,32,0a16.28374,16.28374,0,0,1-3.1496,2.93347A2.69638,2.69638,0,0,0,28.14368,1.2428Z"/><path class="h" d="M26.84344,1.90259q.64417-.35733,1.30024-.65979a2.69638,2.69638,0,0,1,.70672,1.69067q-.64874.48075-1.3678.95618A3.06369,3.06369,0,0,0,26.84344,1.90259Z"/><path class="g" d="M27.4826,3.88965c-.50213.33264-1.02264.66382-1.56988.993a4.86968,4.86968,0,0,0-.36682-2.21191c.42792-.27729.86194-.52643,1.29754-.76813A3.06369,3.06369,0,0,1,27.4826,3.88965Z"/><path class="g" d="M28.57306,9.30194a4.32987,4.32987,0,0,1-2.38715,1.26648,5.73575,5.73575,0,0,0,.22339-1.381A4.6575,4.6575,0,0,1,28.57306,9.30194Z"/><path class="h" d="M25.14575,9.39587c.43982-.09344.85877-.15905,1.26355-.20849a5.73575,5.73575,0,0,1-.22339,1.381c-.4154.11823-.86352.22626-1.33563.32312A4.91751,4.91751,0,0,0,25.14575,9.39587Z"/><path class="g" d="M25.14575,9.39587a4.91751,4.91751,0,0,1-.29547,1.49567c-.33832.0694-.68359.13538-1.03979.194a5.3485,5.3485,0,0,0,.24316-1.43274C24.42224,9.55731,24.78705,9.47205,25.14575,9.39587Z"/><path class="f" d="M25.54587,2.67072a29.05306,29.05306,0,0,0-3.9834,3.14178C21.43826,7.03033,19.208,11.22,18.67465,13.24188c-.17181.65131-.17053,1.08155.13782,1.11a.28289.28289,0,0,0,.20721-.098c.28656-.25629.61939-.96949,1.10694-1.16339.43445.104.87384.19763,1.30066.27185a2.89706,2.89706,0,0,0,.43957-1.02607c-.38806-.02844-.788-.04632-1.17938-.0542.41882-.26654.66064-.47546.629-.87585.828-.07941,1.67767-.18646,2.494-.32074a5.3485,5.3485,0,0,0,.24316-1.43274c-.75836.19647-1.52039.42017-2.2417.64087-.06842.04974-.1319.07971-.17755.05377.05774-.01776.1192-.03589.17755-.05377.34119-.24811.86823-1.25824.64069-1.38739.96466-.17987,1.96124-.41156,2.91839-.68726a3.9508,3.9508,0,0,0-.04266-1.90716A21.03418,21.03418,0,0,0,22.85513,7.625c.38837-.57764.65461-1.07544.42609-1.25q1.3797-.7413,2.63147-1.49237A4.86968,4.86968,0,0,0,25.54587,2.67072Z"/><path class="n" d="M16.674,7.68555c1.51575,1.88733,1.19037,2.89959.22077,3.60559l.40472,1.80279c0,.15119-.63416.22962-1.2995.23719V4.2149C16.62494,4.2149,16.48462,6.28943,16.674,7.68555Z"/><path class="m" d="M17.079,9.86743A1.092,1.092,0,0,1,16,10.95825V8.77667A1.092,1.092,0,0,1,17.079,9.86743Z"/><path class="q" d="M16.5993,9.86743A.61234.61234,0,0,1,16,10.47852V9.25641A.61231.61231,0,0,1,16.5993,9.86743Z"/><path class="t" d="M13.20488,20.50759c.07745-.137.99184.38.91439.517A3.82033,3.82033,0,0,1,12.88086,22.104C12.63155,22.05342,12.95557,20.457,13.20488,20.50759Z"/><path class="d" d="M18.65506,20.50759c-.07745-.137-.99184.38-.91439.517A3.82022,3.82022,0,0,0,18.97908,22.104C19.22839,22.05342,18.90437,20.457,18.65506,20.50759Z"/></svg>