<svg xmlns="http://www.w3.org/2000/svg" viewBox="0 0 32 32"><title>561-sigilyph</title><path d="M9.4702,18.13336v-.811c-1.41587.18515-2.765.34744-2.83848.07278C6.54837,17.07808,9.13229,15.69,10.15643,15.69c.45229,0,.58723.60532.49907,1.86113h.88378l.14556.93576H10.63471c.18084,1.15569.23914,1.82993-.208,2.06907a6.60236,6.60236,0,0,1-3.70146.36391c.21507-.33992,1.05549-.74463,2.7449-1.23729L9.439,19.15231c-.83911.24337-2.68919.24337-2.85928-.16636C6.67257,18.66386,8.33154,18.1434,9.4702,18.13336Z" style="fill:#373f3f"/><path d="M14.90414,21.05505v1.18433a3.34832,3.34832,0,0,0,1.07361.16687l.00971-.00067V21.05505Z" style="fill:#dadddc"/><path d="M11.76327,15.24768a4.62615,4.62615,0,0,0-.434,1.49042l1.03321.86609,1.625-1.1875,2,1.1875V16.0011A10.10673,10.10673,0,0,1,11.76327,15.24768Z" style="fill:#3a9b46"/><path d="M13.98746,16.41669l-1.625,1.1875-1.03321-.86609c-.009.08-.00976.1626-.01489.24377l1.04065.87232,1.625-1.1875,2,1.1875h.00745v-.25Z" style="fill:#edeeee"/><path d="M15.98,17.85419l-2-1.1875-1.625,1.1875-1.04065-.87232c-.00494.07868-.0144.156-.0144.23615a4.65733,4.65733,0,0,0,.33,1.70105l1.11249.93255,1.44965-1.05938,1.78418,1.05938h.01117V17.85419Z" style="fill:#373f3f"/><path d="M15.97629,19.85162l-1.78418-1.05938-1.44965,1.05938L11.63,18.91907a4.67221,4.67221,0,0,0,.21882.45666l.89178.74756,1.44965-1.05939,1.78418,1.05939h.01306v-.27167Z" style="fill:#edeeee"/><path d="M15.9744,20.12329,14.19022,19.0639l-1.44965,1.05939-.89178-.74756a4.66356,4.66356,0,0,0,4.13867,2.52979V20.12329Z" style="fill:#3a9b46"/><path d="M12.27194,14.39691a4.797,4.797,0,0,0-.50867.85077,10.10673,10.10673,0,0,0,4.22419.75342V14.93677A11.5029,11.5029,0,0,1,12.27194,14.39691Z" style="fill:#373f3f"/><path d="M12.83817,13.76709a4.82759,4.82759,0,0,0-.56623.62982,11.5029,11.5029,0,0,0,3.71552.53986V14.1347A12.675,12.675,0,0,1,12.83817,13.76709Z" style="fill:#e3e5e5"/><path d="M12.83817,13.76709a12.675,12.675,0,0,0,3.14929.36761V12.53052A4.65461,4.65461,0,0,0,12.83817,13.76709Z" style="fill:#f0c13e"/><circle cx="12.89187" cy="18.62493" r="0.77075" style="fill:#edeeee"/><circle cx="12.89187" cy="18.62493" r="0.43268" style="fill:#5ca3d5"/><path d="M12.12112,32c.17316-.68457.33362-1.3634.46985-2.03125h-.9928C11.7485,30.65057,11.92593,31.327,12.12112,32Z" style="fill:#5ca3d5"/><path d="M14.86246,32a19.09879,19.09879,0,0,0,.45355-2.03125h-.92719C14.53177,30.63525,14.69394,31.31543,14.86246,32Z" style="fill:#5ca3d5"/><path d="M11.59817,29.96875h.9928q.12277-.602.20935-1.1875H11.37405Q11.469,29.37836,11.59817,29.96875Z" style="fill:#c23734"/><path d="M14.38882,29.96875H15.316c.06451-.38892.10956-.78613.14471-1.1875H14.16019C14.22763,29.1709,14.3024,29.56567,14.38882,29.96875Z" style="fill:#c23734"/><path d="M14.16019,28.78125h1.30053c.03321-.37878.04975-.76465.05262-1.15625H13.99759C14.03928,28.00159,14.09171,28.38574,14.16019,28.78125Z" style="fill:#5ca3d5"/><path d="M15.97775,22.40625a3.34832,3.34832,0,0,1-1.07361-.16687v.30231L11.3,24.75a12.50094,12.50094,0,0,0-.06391,2.875h1.68879a9.00627,9.00627,0,0,0-.033-1.83331l1.13726-.725a8.6222,8.6222,0,0,0-.03155,2.55835h1.51575a13.83613,13.83613,0,0,0-.40088-3.41669l.875-.70831V22.40558Z" style="fill:#e8ba36"/><path d="M11.37405,28.78125h1.42627c.05866-.39319.0976-.77747.12452-1.15625H11.23605C11.2695,28.01288,11.31326,28.39874,11.37405,28.78125Z" style="fill:#5ca3d5"/><path d="M4.04251,5.38287a6.59884,6.59884,0,0,0-2.78174-.231A5.16347,5.16347,0,0,0,3.92166,7.24469,4.29,4.29,0,0,1,4.04251,5.38287Z" style="fill:#71b1e1"/><path d="M5.37772,5.7934c-.45734-.16639-.90162-.29871-1.33521-.41053a4.29,4.29,0,0,0-.12085,1.86182c.43695.19843.90839.38464,1.4021.558A4.33226,4.33226,0,0,1,5.37772,5.7934Z" style="fill:#cf3c35"/><path d="M5.37772,5.7934a4.33226,4.33226,0,0,0-.054,2.00927c.41913.14716.84845.28833,1.29266.41632a3.95081,3.95081,0,0,1,.04267-1.90716C6.229,6.118,5.80069,5.94727,5.37772,5.7934Z" style="fill:#71b1e1"/><path d="M7.48746,13.0625a2.10287,2.10287,0,0,0,1.6502.45081,1.97252,1.97252,0,0,1-.36492-1.00922A2.01321,2.01321,0,0,0,7.48746,13.0625Z" style="fill:#71b1e1"/><path d="M9.39914,12.40735c-.221.02692-.42975.05963-.6264.09674a1.97252,1.97252,0,0,0,.36492,1.00922c.21552-.0055.4394-.01905.675-.04541A2.393,2.393,0,0,1,9.39914,12.40735Z" style="fill:#cf3c35"/><path d="M9.39914,12.40735a2.393,2.393,0,0,0,.41351,1.06055c.24268-.02717.49127-.061.7475-.10553a2.8973,2.8973,0,0,1-.43958-1.02607C9.872,12.35455,9.63168,12.379,9.39914,12.40735Z" style="fill:#71b1e1"/><path d="M3.84378,1.2428A15.78621,15.78621,0,0,0-.01254,0,16.28366,16.28366,0,0,0,3.13705,2.93347,2.69639,2.69639,0,0,1,3.84378,1.2428Z" style="fill:#71b1e1"/><path d="M5.144,1.90259q-.64416-.35733-1.30023-.65979a2.69639,2.69639,0,0,0-.70673,1.69067q.64875.48075,1.3678.95618A3.06375,3.06375,0,0,1,5.144,1.90259Z" style="fill:#cf3c35"/><path d="M4.50485,3.88965c.50214.33264,1.02265.66382,1.56989.993a4.86968,4.86968,0,0,1,.36682-2.21191c-.42792-.27729-.86194-.52643-1.29755-.76813A3.06375,3.06375,0,0,0,4.50485,3.88965Z" style="fill:#71b1e1"/><path d="M3.4144,9.30194a4.32983,4.32983,0,0,0,2.38714,1.26648,5.73622,5.73622,0,0,1-.22338-1.381A4.6575,4.6575,0,0,0,3.4144,9.30194Z" style="fill:#71b1e1"/><path d="M6.84171,9.39587c-.43982-.09344-.85877-.15905-1.26355-.20849a5.73622,5.73622,0,0,0,.22338,1.381c.41541.11823.86353.22626,1.33564.32312A4.91751,4.91751,0,0,1,6.84171,9.39587Z" style="fill:#cf3c35"/><path d="M6.84171,9.39587a4.91751,4.91751,0,0,0,.29547,1.49567c.33831.0694.68359.13538,1.03979.194a5.3485,5.3485,0,0,1-.24316-1.43274C7.56522,9.55731,7.20041,9.47205,6.84171,9.39587Z" style="fill:#71b1e1"/><path d="M13.31274,13.24188C12.77936,11.22,10.54913,7.03033,10.42493,5.8125a29.05306,29.05306,0,0,0-3.9834-3.14178,4.86968,4.86968,0,0,0-.36682,2.21191Q7.32376,5.63391,8.70618,6.375c-.22852.17456.03772.67236.42608,1.25a21.03326,21.03326,0,0,0-2.4732-1.31317A3.95081,3.95081,0,0,0,6.61639,8.219c.95716.2757,1.95374.50739,2.9184.68726-.22754.12915.2995,1.13928.64069,1.38739.05835.01788.11981.036.17755.05377-.04566.02594-.10913-.004-.17755-.05377-.72132-.2207-1.48334-.4444-2.2417-.64087a5.3485,5.3485,0,0,0,.24316,1.43274c.81629.13428,1.666.24133,2.494.32074-.03162.40039.2102.60931.629.87585-.39142.00788-.79132.02576-1.17939.0542a2.8973,2.8973,0,0,0,.43958,1.02607c.42682-.07422.86621-.16785,1.30066-.27185.48755.1939.82037.9071,1.10693,1.16339a.28292.28292,0,0,0,.20722.098C13.48328,14.32343,13.48456,13.89319,13.31274,13.24188Z" style="fill:#f7c845"/><path d="M15.31345,7.68555c-1.51575,1.88733-1.19037,2.89959-.22077,3.60559L14.688,13.09393c0,.15119.63415.22962,1.2995.23719V4.2149C15.36252,4.2149,15.50284,6.28943,15.31345,7.68555Z" style="fill:#373f3f"/><path d="M14.90842,9.86743a1.092,1.092,0,0,0,1.079,1.09082V8.77667A1.092,1.092,0,0,0,14.90842,9.86743Z" style="fill:#fefefe"/><path d="M15.38815,9.86743a.61234.61234,0,0,0,.59931.61109V9.25641A.61232.61232,0,0,0,15.38815,9.86743Z" style="fill:#65a9dc"/><path d="M22.50471,18.13336v-.811c1.41588.18515,2.765.34744,2.83849.07278.08334-.31707-2.50057-1.70517-3.52472-1.70517-.45228,0-.58723.60532-.49907,1.86113h-.88378l-.14556.93576h1.05014c-.18084,1.15569-.23914,1.82993.20794,2.06907a6.60239,6.60239,0,0,0,3.70147.36391c-.21507-.33992-1.05549-.74463-2.74491-1.23729l.03119-.53026c.83911.24337,2.68919.24337,2.85928-.16636C25.30235,18.66386,23.64338,18.1434,22.50471,18.13336Z" style="fill:#2b3332"/><path d="M17.07077,21.05505v1.18433a3.34823,3.34823,0,0,1-1.07361.16687l-.0097-.00067V21.05505Z" style="fill:#d1d4d4"/><path d="M20.21164,15.24768a4.62615,4.62615,0,0,1,.434,1.49042l-1.0332.86609-1.625-1.1875-2,1.1875V16.0011A10.10671,10.10671,0,0,0,20.21164,15.24768Z" style="fill:#2f963c"/><path d="M17.98746,16.41669l1.625,1.1875,1.0332-.86609c.009.08.00977.1626.01489.24377l-1.04065.87232-1.625-1.1875-2,1.1875h-.00744v-.25Z" style="fill:#e3e5e5"/><path d="M15.9949,17.85419l2-1.1875,1.625,1.1875,1.04065-.87232c.005.07868.01441.156.01441.23615a4.65733,4.65733,0,0,1-.33,1.70105l-1.11249.93255-1.44964-1.05938-1.78418,1.05938h-.01117V17.85419Z" style="fill:#2b3332"/><path d="M15.99863,19.85162l1.78418-1.05938,1.44964,1.05938,1.11249-.93255a4.67443,4.67443,0,0,1-.21881.45666l-.89179.74756L17.7847,19.0639l-1.78418,1.05939h-.01306v-.27167Z" style="fill:#e3e5e5"/><path d="M16.00052,20.12329,17.7847,19.0639l1.44964,1.05939.89179-.74756a4.66359,4.66359,0,0,1-4.13867,2.52979V20.12329Z" style="fill:#2f963c"/><path d="M19.703,14.39691a4.79637,4.79637,0,0,1,.50867.85077,10.10671,10.10671,0,0,1-4.22418.75342V14.93677A11.50288,11.50288,0,0,0,19.703,14.39691Z" style="fill:#2b3332"/><path d="M19.13675,13.76709a4.82752,4.82752,0,0,1,.56622.62982,11.50288,11.50288,0,0,1-3.71551.53986V14.1347A12.67505,12.67505,0,0,0,19.13675,13.76709Z" style="fill:#dadddc"/><path d="M19.13675,13.76709a12.67505,12.67505,0,0,1-3.14929.36761V12.53052A4.65463,4.65463,0,0,1,19.13675,13.76709Z" style="fill:#e8ba36"/><circle cx="19.08304" cy="18.62493" r="0.77075" style="fill:#e3e5e5"/><circle cx="19.08304" cy="18.62493" r="0.43268" style="fill:#529ccf"/><path d="M19.85379,32c-.17316-.68457-.33362-1.3634-.46985-2.03125h.9928C20.22641,30.65057,20.049,31.327,19.85379,32Z" style="fill:#529ccf"/><path d="M17.11246,32a19.09882,19.09882,0,0,1-.45356-2.03125h.92719C17.44315,30.63525,17.281,31.31543,17.11246,32Z" style="fill:#529ccf"/><path d="M20.37674,29.96875h-.9928q-.12278-.602-.20935-1.1875h1.42627Q20.50592,29.37836,20.37674,29.96875Z" style="fill:#b33533"/><path d="M17.58609,29.96875H16.6589c-.06451-.38892-.10955-.78613-.14471-1.1875h1.30054C17.74728,29.1709,17.67252,29.56567,17.58609,29.96875Z" style="fill:#b33533"/><path d="M17.81473,28.78125H16.51419c-.0332-.37878-.04974-.76465-.05261-1.15625h1.51575C17.93564,28.00159,17.88321,28.38574,17.81473,28.78125Z" style="fill:#529ccf"/><path d="M15.99716,22.40625a3.34823,3.34823,0,0,0,1.07361-.16687v.30231L20.675,24.75a12.50149,12.50149,0,0,1,.0639,2.875H19.05008a9.00555,9.00555,0,0,1,.033-1.83331l-1.13727-.725a8.62218,8.62218,0,0,1,.03156,2.55835H16.46158a13.83565,13.83565,0,0,1,.40088-3.41669l-.875-.70831V22.40558Z" style="fill:#e0b12e"/><path d="M20.60086,28.78125H19.17459c-.05865-.39319-.09759-.77747-.12451-1.15625h1.68878C20.70541,28.01288,20.66165,28.39874,20.60086,28.78125Z" style="fill:#529ccf"/><path d="M27.9324,5.38287a6.59885,6.59885,0,0,1,2.78174-.231,5.16347,5.16347,0,0,1-2.66089,2.09283A4.28971,4.28971,0,0,0,27.9324,5.38287Z" style="fill:#65a9dc"/><path d="M26.5972,5.7934c.45733-.16639.90161-.29871,1.3352-.41053a4.28971,4.28971,0,0,1,.12085,1.86182c-.43695.19843-.90838.38464-1.4021.558A4.33227,4.33227,0,0,0,26.5972,5.7934Z" style="fill:#c23734"/><path d="M26.5972,5.7934a4.33227,4.33227,0,0,1,.054,2.00927c-.41913.14716-.84845.28833-1.29266.41632a3.9508,3.9508,0,0,0-.04266-1.90716C25.74594,6.118,26.17422,5.94727,26.5972,5.7934Z" style="fill:#65a9dc"/><path d="M24.48746,13.0625a2.10291,2.10291,0,0,1-1.65021.45081,1.97255,1.97255,0,0,0,.36493-1.00922A2.01327,2.01327,0,0,1,24.48746,13.0625Z" style="fill:#65a9dc"/><path d="M22.57577,12.40735c.221.02692.42975.05963.62641.09674a1.97255,1.97255,0,0,1-.36493,1.00922c-.21552-.0055-.43939-.01905-.675-.04541A2.39277,2.39277,0,0,0,22.57577,12.40735Z" style="fill:#c23734"/><path d="M22.57577,12.40735a2.39277,2.39277,0,0,1-.41351,1.06055c-.24267-.02717-.49127-.061-.7475-.10553a2.8973,2.8973,0,0,0,.43958-1.02607C22.10287,12.35455,22.34323,12.379,22.57577,12.40735Z" style="fill:#65a9dc"/><path d="M28.13113,1.2428A15.78615,15.78615,0,0,1,31.98746,0a16.284,16.284,0,0,1-3.1496,2.93347A2.69633,2.69633,0,0,0,28.13113,1.2428Z" style="fill:#65a9dc"/><path d="M26.8309,1.90259q.64417-.35733,1.30023-.65979a2.69633,2.69633,0,0,1,.70673,1.69067q-.64875.48075-1.3678.95618A3.06375,3.06375,0,0,0,26.8309,1.90259Z" style="fill:#c23734"/><path d="M27.47006,3.88965c-.50213.33264-1.02264.66382-1.56988.993a4.86982,4.86982,0,0,0-.36682-2.21191c.42791-.27729.86193-.52643,1.29754-.76813A3.06375,3.06375,0,0,1,27.47006,3.88965Z" style="fill:#65a9dc"/><path d="M28.56052,9.30194a4.32991,4.32991,0,0,1-2.38715,1.26648,5.73575,5.73575,0,0,0,.22339-1.381A4.65751,4.65751,0,0,1,28.56052,9.30194Z" style="fill:#65a9dc"/><path d="M25.13321,9.39587c.43982-.09344.85876-.15905,1.26355-.20849a5.73575,5.73575,0,0,1-.22339,1.381c-.41541.11823-.86353.22626-1.33563.32312A4.91781,4.91781,0,0,0,25.13321,9.39587Z" style="fill:#c23734"/><path d="M25.13321,9.39587a4.91781,4.91781,0,0,1-.29547,1.49567c-.33832.0694-.6836.13538-1.0398.194a5.34811,5.34811,0,0,0,.24317-1.43274C24.4097,9.55731,24.77451,9.47205,25.13321,9.39587Z" style="fill:#65a9dc"/><path d="M25.53333,2.67072a29.05245,29.05245,0,0,0-3.9834,3.14178c-.12421,1.21783-2.35443,5.40747-2.88782,7.42938-.17181.65131-.17053,1.08155.13782,1.11a.28292.28292,0,0,0,.20721-.098c.28656-.25629.61939-.96949,1.10693-1.16339.43445.104.87385.19763,1.30066.27185a2.8973,2.8973,0,0,0,.43958-1.02607c-.38806-.02844-.788-.04632-1.17938-.0542.41882-.26654.66064-.47546.629-.87585.828-.07941,1.67767-.18646,2.494-.32074a5.34811,5.34811,0,0,0,.24317-1.43274c-.75837.19647-1.52039.42017-2.2417.64087-.06842.04974-.1319.07971-.17755.05377.05774-.01776.1192-.03589.17755-.05377.34118-.24811.86822-1.25824.64068-1.38739.96466-.17987,1.96125-.41156,2.9184-.68726a3.9508,3.9508,0,0,0-.04266-1.90716A21.03339,21.03339,0,0,0,22.84259,7.625c.38837-.57764.6546-1.07544.42609-1.25q1.3797-.7413,2.63147-1.49237A4.86982,4.86982,0,0,0,25.53333,2.67072Z" style="fill:#f0c13e"/><path d="M16.66147,7.68555c1.51575,1.88733,1.19037,2.89959.22076,3.60559l.40473,1.80279c0,.15119-.63416.22962-1.2995.23719V4.2149C16.6124,4.2149,16.47208,6.28943,16.66147,7.68555Z" style="fill:#2b3332"/><path d="M17.0665,9.86743a1.092,1.092,0,0,1-1.079,1.09082V8.77667A1.092,1.092,0,0,1,17.0665,9.86743Z" style="fill:#fefefe"/><path d="M16.58676,9.86743a.61234.61234,0,0,1-.5993.61109V9.25641A.61231.61231,0,0,1,16.58676,9.86743Z" style="fill:#5ca3d5"/><path d="M13.19234,20.50759c.07745-.137.99184.38.91439.517A3.82034,3.82034,0,0,1,12.86831,22.104C12.619,22.05342,12.943,20.457,13.19234,20.50759Z" style="fill:#f7f7f7"/><path d="M18.64251,20.50759c-.07745-.137-.99184.38-.91439.517A3.82034,3.82034,0,0,0,18.96654,22.104C19.21585,22.05342,18.89182,20.457,18.64251,20.50759Z" style="fill:#edeeee"/></svg>