<svg xmlns="http://www.w3.org/2000/svg" viewBox="0 0 32 32"><defs><style>.a{fill:#515e91;}.b{fill:#ffd96c;}.c{fill:#373f3f;}.d{fill:#e3e5e5;}.e{fill:#5b689d;}.f{fill:none;stroke:#211915;stroke-miterlimit:10;stroke-width:0.25px;}.g{fill:#495587;}.h{fill:#ffd04d;}.i{fill:#2b3332;}.j{fill:#dadddc;}</style></defs><title>562-yamask-shiny</title><path class="a" d="M12.95876,4.59a6.05015,6.05015,0,0,1,.85508,3.57819c0,1.85713-.45693,3.40654-1.06426,3.76542.01126.08953.01886.18194.03118.27062-3.32785,3.22565-5.16139,4.06588-6.63063,4.32433-.38436-7.63964-9.3213,1.72972-2.78674,2.78681,3.23536.38745,6.53892-.48515,10.042-5.045C12.93064,14.773,15.52524,17.22341,16,16.72072V0C14.4924,0,13.47515,1.96291,12.95876,4.59Z"/><path class="b" d="M12.95876,4.59a21.54008,21.54008,0,0,0-.3327,2.84466,1.49942,1.49942,0,0,1,.17321.75345,1.37328,1.37328,0,0,1-.21622.82271,24.31542,24.31542,0,0,0,.16653,2.92279c.60733-.35888,1.06426-1.90829,1.06426-3.76542A6.05015,6.05015,0,0,0,12.95876,4.59Z"/><path class="c" d="M12.62606,7.43461c-.0309.523-.045,1.04526-.043,1.57616a1.37328,1.37328,0,0,0,.21622-.82271A1.49942,1.49942,0,0,0,12.62606,7.43461Z"/><path class="d" d="M16,29.59762V16.72072C9.52956,16.72072,9.52956,29.59762,16,29.59762Z"/><path class="e" d="M14.53456,30.2222A1.64446,1.64446,0,0,0,16,32V28.44447A1.64439,1.64439,0,0,0,14.53456,30.2222Z"/><polyline class="f" points="16 27.483 16 26.09 15.231 26.09 15.231 22.102"/><ellipse class="f" cx="13.81381" cy="22.00601" rx="1.41742" ry="1.15315"/><path class="g" d="M19.04124,4.59a6.05015,6.05015,0,0,0-.85508,3.57819c0,1.85713.45693,3.40654,1.06426,3.76542-.01126.08953-.01886.18194-.03118.27062,3.32785,3.22565,5.16139,4.06588,6.63063,4.32433.38436-7.63964,9.3213,1.72972,2.78674,2.78681-3.23536.38745-6.53892-.48515-10.042-5.045.47477.50269-2.11983,2.95314-2.59459,2.45045V0C17.5076,0,18.52485,1.96291,19.04124,4.59Z"/><path class="h" d="M19.04124,4.59a21.54008,21.54008,0,0,1,.3327,2.84466,1.49942,1.49942,0,0,0-.17321.75345,1.37328,1.37328,0,0,0,.21622.82271,24.31542,24.31542,0,0,1-.16653,2.92279c-.60733-.35888-1.06426-1.90829-1.06426-3.76542A6.05015,6.05015,0,0,1,19.04124,4.59Z"/><path class="i" d="M19.37394,7.43461c.0309.523.045,1.04526.043,1.57616a1.37328,1.37328,0,0,1-.21622-.82271A1.49942,1.49942,0,0,1,19.37394,7.43461Z"/><path class="j" d="M16,29.59762V16.72072C22.47044,16.72072,22.47044,29.59762,16,29.59762Z"/><path class="a" d="M17.46544,30.2222A1.64446,1.64446,0,0,1,16,32V28.44447A1.64439,1.64439,0,0,1,17.46544,30.2222Z"/><polyline class="f" points="16 27.483 16 26.09 16.769 26.09 16.769 22.102"/><ellipse class="f" cx="18.18619" cy="22.00601" rx="1.41742" ry="1.15315"/><line class="f" x1="13.57359" y1="27.48348" x2="18.18616" y2="27.48348"/></svg>