<svg xmlns="http://www.w3.org/2000/svg" viewBox="0 0 32 32"><title>563-cofagrigus-shiny</title><path d="M11.98763,22.13818a5.31015,5.31015,0,0,0-.86858-1.96869c-.65857-.7873-1.22437-.80382-1.69143,0-.38775.91589-1.0948,1.26807-2.42287.52382-1.7186-1.306-2.98318,1.91451-.58156,5.08649,3.1649,1.8741,2.54212,2.92582-.62277,1.05172,2.9784,3.6686,2.1713,4.32385-.8071.65525,2.307,5.0204,1.11844,5.56658-1.18858.54619,0,5.28939-1.14286,5.28939-1.14286,0-.32846-4.05895.07853-6.74527,1.32572-7.86347a2.51894,2.51894,0,0,1,3.01715-1.00478c.8743.65431,1.49827.57646,1.8743-.22654a1.90363,1.90363,0,0,1,2.74286,0,6.30465,6.30465,0,0,1,1.35543,2.80233Z" style="fill:#263460"/><path d="M10.06645,11.47118a5.31015,5.31015,0,0,1-.86858,1.96869c-.65857.7873-1.22437.80383-1.69143,0-.38775-.91589-1.0948-1.26807-2.42287-.52382C3.365,14.222,2.10039,11.00155,4.502,7.82956c3.1649-1.8741,2.54212-2.92581-.62277-1.05172,2.9784-3.66859,2.1713-4.32385-.8071-.65525C5.37916,1.1022,4.19058.556,1.88356,5.5764,1.88356.287.7407.287.7407,5.5764c-.32846,4.059.07853,6.74528,1.32572,7.86347a2.51892,2.51892,0,0,0,3.01715,1.00478c.8743-.6543,1.49827-.57646,1.8743.22654a1.90361,1.90361,0,0,0,2.74286,0,6.30444,6.30444,0,0,0,1.35543-2.80233Z" style="fill:#263460"/><path d="M13.84,15.45722V14.27784H12.0305l-.12482-.75489-1.46847-.6069a18.52,18.52,0,0,1,1.11416,10.15129c-.26967.84455-.94862,1.30942-1.11416,2.43463-.13246,2.50474,2.45525,3.05365,5.57212,3.05365v-12.412A3.04977,3.04977,0,0,1,13.84,15.45722Z" style="fill:#dadddc"/><path d="M8.66084,9.47421c.08136,1.7996.63945,3.36363,1.77637,3.44184l1.46847.6069.12482.75489H13.84v1.17938a3.04977,3.04977,0,0,0,2.16938.68639V12.15024A14.11,14.11,0,0,1,8.66084,9.47421Z" style="fill:#d799d6"/><path d="M8.90238,6.70717a10.7049,10.7049,0,0,0-.24154,2.767,15.91989,15.91989,0,0,0,5.208,2.39465V9.82738A9.992,9.992,0,0,1,8.90238,6.70717Z" style="fill:#dadddc"/><path d="M13.86881,9.82738v2.04148a9.26,9.26,0,0,0,2.14052.28138V10.09115A8.94032,8.94032,0,0,1,13.86881,9.82738Z" style="fill:#f7f7f7"/><path d="M11.20482,7.31454c0-1.09226,1.22994-1.845,3.03611-2.04564a8.74313,8.74313,0,0,1-3.18477-1.34866c-1.05609-.07266-1.79371,1.18862-2.15378,2.78693a9.30692,9.30692,0,0,0,7.10695,3.384C13.35586,10.09115,11.20482,8.73606,11.20482,7.31454Z" style="fill:#d799d6"/><path d="M14.16084,4.7593a1.83934,1.83934,0,0,1,.73768-1.46906l-.00321-.006c-.10828-.95739-.2694-1.54675-.49661-1.67485-1.92523.32913-2.95086,1.14757-3.34254,2.31088A8.74313,8.74313,0,0,0,14.24093,5.2689,1.82951,1.82951,0,0,1,14.16084,4.7593Z" style="fill:#dadddc"/><path d="M14.24093,5.2689c-1.80617.20063-3.03611.95338-3.03611,2.04564,0,1.42152,2.151,2.77661,4.80451,2.77661V6.60779A1.8428,1.8428,0,0,1,14.24093,5.2689Z" style="fill:#373f3f"/><path d="M14.3987,1.60936c.22721.1281.38833.71746.49661,1.67485l.00321.006a1.83184,1.83184,0,0,1,1.11081-.37943V0C14.91426,0,13.996.54456,14.3987,1.60936Z" style="fill:#d799d6"/><path d="M14.16084,4.7593a1.84851,1.84851,0,0,0,1.84849,1.84849v-3.697A1.84851,1.84851,0,0,0,14.16084,4.7593Z" style="fill:#e3e5e5"/><ellipse cx="13.34617" cy="7.62968" rx="1.23413" ry="1.52144" transform="translate(-2.02679 7.69527) rotate(-30)" style="fill:#e7685f"/><ellipse cx="13.34386" cy="7.67678" rx="0.14366" ry="0.24813" style="fill:#373f3f"/><polygon points="14.776 14.288 14.776 13.738 13.852 13.44 13.852 14.173 13.852 15.032 14.762 15.449 14.762 14.781 16.009 14.781 16.009 14.288 14.776 14.288" style="fill:#e3e5e5"/><polyline points="15.987 5.927 15.987 5.488 15.745 5.488 15.745 4.234" style="fill:none;stroke:#211915;stroke-miterlimit:10;stroke-width:0.25px"/><ellipse cx="15.29894" cy="4.20326" rx="0.44603" ry="0.36287" style="fill:none;stroke:#211915;stroke-miterlimit:10;stroke-width:0.25px"/><path d="M20.01237,22.13818a5.31015,5.31015,0,0,1,.86858-1.96869c.65857-.7873,1.22437-.80382,1.69143,0,.38775.91589,1.0948,1.26807,2.42287.52382,1.7186-1.306,2.98318,1.91451.58156,5.08649-3.1649,1.8741-2.54212,2.92582.62277,1.05172-2.9784,3.6686-2.1713,4.32385.8071.65525-2.307,5.0204-1.11844,5.56658,1.18858.54619,0,5.28939,1.14286,5.28939,1.14286,0,.32846-4.05895-.07853-6.74527-1.32572-7.86347a2.51894,2.51894,0,0,0-3.01715-1.00478c-.8743.65431-1.49827.57646-1.8743-.22654a1.90363,1.90363,0,0,0-2.74286,0,6.30465,6.30465,0,0,0-1.35543,2.80233Z" style="fill:#182a51"/><path d="M21.93355,11.47118a5.31015,5.31015,0,0,0,.86858,1.96869c.65857.7873,1.22437.80383,1.69143,0,.38775-.91589,1.0948-1.26807,2.42287-.52382,1.7186,1.306,2.98318-1.9145.58156-5.08649-3.1649-1.8741-2.54212-2.92581.62277-1.05172-2.9784-3.66859-2.1713-4.32385.8071-.65525C26.62084,1.1022,27.80942.556,30.11644,5.5764c0-5.28938,1.14286-5.28938,1.14286,0,.32846,4.059-.07853,6.74528-1.32572,7.86347a2.51892,2.51892,0,0,1-3.01715,1.00478c-.8743-.6543-1.49827-.57646-1.8743.22654a1.90361,1.90361,0,0,1-2.74286,0,6.30444,6.30444,0,0,1-1.35543-2.80233Z" style="fill:#182a51"/><path d="M18.16,15.45722V14.27784H19.9695l.12482-.75489,1.46847-.6069a18.52,18.52,0,0,0-1.11416,10.15129c.26967.84455.94862,1.30942,1.11416,2.43463.13246,2.50474-2.45525,3.05365-5.57212,3.05365v-12.412A3.04977,3.04977,0,0,0,18.16,15.45722Z" style="fill:#d1d4d4"/><path d="M23.33916,9.47421c-.08136,1.7996-.63945,3.36363-1.77637,3.44184l-1.46847.6069-.12482.75489H18.16v1.17938a3.04977,3.04977,0,0,1-2.16938.68639V12.15024A14.11,14.11,0,0,0,23.33916,9.47421Z" style="fill:#d285d2"/><path d="M23.09762,6.70717a10.7049,10.7049,0,0,1,.24154,2.767,15.91989,15.91989,0,0,1-5.208,2.39465V9.82738A9.992,9.992,0,0,0,23.09762,6.70717Z" style="fill:#d1d4d4"/><path d="M18.13119,9.82738v2.04148a9.26,9.26,0,0,1-2.14052.28138V10.09115A8.94032,8.94032,0,0,0,18.13119,9.82738Z" style="fill:#edeeee"/><path d="M20.79518,7.31454c0-1.09226-1.22994-1.845-3.03611-2.04564a8.74313,8.74313,0,0,0,3.18477-1.34866c1.05609-.07266,1.79371,1.18862,2.15378,2.78693a9.30692,9.30692,0,0,1-7.10695,3.384C18.64414,10.09115,20.79518,8.73606,20.79518,7.31454Z" style="fill:#d285d2"/><path d="M17.83916,4.7593a1.83934,1.83934,0,0,0-.73768-1.46906l.00321-.006c.10828-.95739.2694-1.54675.49661-1.67485,1.92523.32913,2.95086,1.14757,3.34254,2.31088A8.74313,8.74313,0,0,1,17.75907,5.2689,1.82951,1.82951,0,0,0,17.83916,4.7593Z" style="fill:#d1d4d4"/><path d="M17.75907,5.2689c1.80617.20063,3.03611.95338,3.03611,2.04564,0,1.42152-2.151,2.77661-4.80451,2.77661V6.60779A1.8428,1.8428,0,0,0,17.75907,5.2689Z" style="fill:#2b3332"/><path d="M17.6013,1.60936c-.22721.1281-.38833.71746-.49661,1.67485l-.00321.006a1.83184,1.83184,0,0,0-1.11081-.37943V0C17.08574,0,18.004.54456,17.6013,1.60936Z" style="fill:#d285d2"/><path d="M17.83916,4.7593a1.84851,1.84851,0,0,1-1.84849,1.84849v-3.697A1.84851,1.84851,0,0,1,17.83916,4.7593Z" style="fill:#dadddc"/><ellipse cx="18.65383" cy="7.62968" rx="1.52144" ry="1.23413" transform="matrix(0.5, -0.86603, 0.86603, 0.5, 2.71941, 19.96953)" style="fill:#e55d53"/><ellipse cx="18.65614" cy="7.67678" rx="0.14366" ry="0.24813" style="fill:#2b3332"/><polygon points="17.224 14.288 17.224 13.738 18.148 13.44 18.148 14.173 18.148 15.032 17.238 15.449 17.238 14.781 15.991 14.781 15.991 14.288 17.224 14.288" style="fill:#dadddc"/><polyline points="16.013 5.927 16.013 5.488 16.255 5.488 16.255 4.234" style="fill:none;stroke:#211915;stroke-miterlimit:10;stroke-width:0.25px"/><ellipse cx="16.70106" cy="4.20326" rx="0.44603" ry="0.36287" style="fill:none;stroke:#211915;stroke-miterlimit:10;stroke-width:0.25px"/></svg>