<svg xmlns="http://www.w3.org/2000/svg" viewBox="0 0 32 32"><defs><style>.a{fill:#649bb7;}.b{fill:#5c6664;}.c{fill:#5091af;}.d{fill:#505957;}.e{fill:#76a6c0;}.f{fill:#b0d3ea;}.g{fill:#757f7e;}.h{fill:#87b2c7;}.i{fill:#687271;}.j{fill:#edeeee;}.k{fill:#2b3332;}.l{fill:#c1ddee;}.m{fill:#838c8a;}.n{fill:#99bdcf;}.o{fill:#f7f7f7;}.p{fill:#373f3f;}</style></defs><title>565-carracosta</title><path class="a" d="M26.4102,27.02048c.88426-2.118.53551-6.15692-.73181-9.65287L21.35725,22.5251c-.12707.7593,1.30149,2.81431,2.9795,4.46053-1.513,1.513-2.03861,1.84694.01742,1.84694h3.51964C30.03438,28.83992,27.72,27.63379,26.4102,27.02048Z"/><path class="b" d="M26.90971,11.7803l.74337-.3252-.74337-1.71918-.60406.37168c-.20439-1.486-.76951-3.06015-2.13736-3.6706l.51115-2.18385-2.602-.65047L21.334,5.46126a7.95063,7.95063,0,0,0-3.08642,0l-1.46709.65592L20.033,8.99247l3.19614,1.20811,4.14513,6.13323h.83635V14.84692h-.55757A6.1776,6.1776,0,0,0,26.90971,11.7803Z"/><path class="c" d="M19.19668,24.30234l-3.206-.46813v4.47564C18.24762,28.30985,19.38446,26.80268,19.19668,24.30234Z"/><path class="d" d="M24.79419,16.479a8.63043,8.63043,0,0,0-4.64777-7.67771l-.53157.168v.34848l-2.19541,3.206v4.32114l3.03176.83635v2.19542l-3.03176.697v2.78783l2.147,1.04734a8.5871,8.5871,0,0,0,4.845-5.365c.70934-.07317,2.09094-.60324,2.15553-1.03149S25.4693,16.61389,24.79419,16.479Z"/><path class="e" d="M24.77234,9.73592c-.55062-.3996-1.10152-.80368-1.65023-1.1719L22.61878,9.6277l-2.414-.92027L20.69,7.34284a3.681,3.681,0,0,0-.80069-.13864l-1.2731,1.0681.99867,1.04544,2.04439.74344C21.79537,12.85344,26.30565,17.96,27.74606,22.56c1.44033,2.83432-1.35288,5.07336-1.17646,6.83019,2.36108-.15171,7.64653,1.88178,4.336-8.08472C30.801,19.84181,27.85638,17.96,24.77234,9.73592Z"/><path class="e" d="M19.56646,24.40879l-1.50411-.73371H15.99067v1.40685c.09767.0034.19126.02191.28974.02191A8.34708,8.34708,0,0,0,19.56646,24.40879Z"/><path class="e" d="M17.41944,12.52375l2.19541-3.206V8.96926l.53157-.168a8.37858,8.37858,0,0,0-3.866-.94715c-.09862,0-.19193.0198-.28974.02321v5.657h1.42877Z"/><polygon class="f" points="17.419 23.361 17.419 20.574 20.451 19.877 20.451 17.681 17.419 16.845 17.419 13.534 15.991 13.534 15.991 23.675 18.062 23.675 17.419 23.361"/><path class="d" d="M19.19668,6.80869l-3.206,1.12943v1.7978a5.03547,5.03547,0,0,0,3.11474-1.02849Z"/><path class="g" d="M19.10541,8.70743A3.29332,3.29332,0,0,0,20.4512,6.13494a3.49908,3.49908,0,0,0-2.068-3.03034c.37128,1.15645.31084,1.61778-.26817,1.892l-2.12436.97574V7.93812l3.206-1.12943Z"/><path class="h" d="M18.3832,3.1046A5.22046,5.22046,0,0,0,15.99067,2.534v3.4383L18.115,4.9966C18.694,4.72238,18.75448,4.26105,18.3832,3.1046Z"/><path class="i" d="M18.54621,7.69153a4.67439,4.67439,0,0,0,.24972,2.98371,5.787,5.787,0,0,0,.81892-3.309v-.6698a.65341.65341,0,0,1-.37624.32738c-.38864.10726-.80831-.21011-.991-.70921l-.02668.0294L15.99067,7.36626V9.17835l1.301-1.301Z"/><path class="d" d="M19.61485,5.57608V4.81072l-.30852.33936A1.21551,1.21551,0,0,1,19.61485,5.57608Z"/><path class="j" d="M18.24762,6.31463c.18268.4991.60235.81647.991.70921a.65341.65341,0,0,0,.37624-.32738V5.57608a1.21551,1.21551,0,0,0-.30852-.426Z"/><path class="k" d="M18.96411,5.91741a.218.218,0,1,0,.22372.14654A.19212.19212,0,0,0,18.96411,5.91741Z"/><path class="e" d="M5.57115,27.02048c-.88427-2.118-.53552-6.15692.7318-9.65287l4.32114,5.15749c.12708.7593-1.30148,2.81431-2.97949,4.46053,1.513,1.513,2.0386,1.84694-.01743,1.84694H4.10753C1.947,28.83992,4.26135,27.63379,5.57115,27.02048Z"/><path class="i" d="M5.07164,11.7803l-.74338-.3252.74338-1.71918.60405.37168c.20439-1.486.76951-3.06015,2.13736-3.6706L7.3019,4.25315l2.602-.65047.74337,1.85858a7.95064,7.95064,0,0,1,3.08642,0l1.46709.65592-3.2525,2.87529L8.75217,10.20058,4.607,16.33381H3.77069V14.84692h.55757A6.17748,6.17748,0,0,1,5.07164,11.7803Z"/><path class="a" d="M12.78466,24.30234l3.206-.46813v4.47564C13.73372,28.30985,12.59688,26.80268,12.78466,24.30234Z"/><path class="b" d="M7.18715,16.479a8.63043,8.63043,0,0,1,4.64777-7.67771l.53157.168v.34848l2.19542,3.206v4.32114l-3.03177.83635v2.19542l3.03177.697v2.78783l-2.147,1.04734a8.5871,8.5871,0,0,1-4.845-5.365c-.70934-.07317-2.09094-.60324-2.15553-1.03149S6.512,16.61389,7.18715,16.479Z"/><path class="h" d="M7.209,9.73592c.55062-.3996,1.10152-.80368,1.65024-1.1719L9.36256,9.6277l2.414-.92027-.48521-1.36459a3.681,3.681,0,0,1,.80068-.13864l1.27311,1.0681-.99868,1.04544-2.04439.74344C10.186,12.85344,5.67569,17.96,4.23529,22.56,2.795,25.39427,5.58816,27.63331,5.41174,29.39014c-2.36108-.15171-7.64653,1.88178-4.336-8.08472C1.18031,19.84181,4.125,17.96,7.209,9.73592Z"/><path class="h" d="M12.41488,24.40879l1.50411-.73371h2.07168v1.40685c-.09767.0034-.19125.02191-.28974.02191A8.34712,8.34712,0,0,1,12.41488,24.40879Z"/><path class="h" d="M14.56191,12.52375l-2.19542-3.206V8.96926l-.53157-.168a8.37862,8.37862,0,0,1,3.866-.94715c.09862,0,.19194.0198.28974.02321v5.657H14.56191Z"/><polygon class="l" points="14.562 23.361 14.562 20.574 11.53 19.877 11.53 17.681 14.562 16.845 14.562 13.534 15.991 13.534 15.991 23.675 13.919 23.675 14.562 23.361"/><path class="b" d="M12.78466,6.80869l3.206,1.12943v1.7978a5.03544,5.03544,0,0,1-3.11473-1.02849Z"/><path class="m" d="M12.87594,8.70743a3.29331,3.29331,0,0,1-1.3458-2.57249,3.49907,3.49907,0,0,1,2.068-3.03034c-.37128,1.15645-.31084,1.61778.26817,1.892l2.12436.97574V7.93812l-3.206-1.12943Z"/><path class="n" d="M13.59814,3.1046A5.22046,5.22046,0,0,1,15.99067,2.534v3.4383L13.86631,4.9966C13.2873,4.72238,13.22686,4.26105,13.59814,3.1046Z"/><path class="g" d="M13.43514,7.69153a4.67443,4.67443,0,0,1-.24973,2.98371,5.787,5.787,0,0,1-.81892-3.309v-.6698a.6534.6534,0,0,0,.37625.32738c.38863.10726.80831-.21011.991-.70921l.02668.0294,2.23027,1.02223V9.17835l-1.301-1.301Z"/><path class="b" d="M12.36649,5.57608V4.81072l.30853.33936A1.21541,1.21541,0,0,0,12.36649,5.57608Z"/><path class="o" d="M13.73372,6.31463c-.18267.4991-.60235.81647-.991.70921a.6534.6534,0,0,1-.37625-.32738V5.57608a1.21541,1.21541,0,0,1,.30853-.426Z"/><path class="p" d="M13.01723,5.91741a.218.218,0,1,1-.22372.14654A.19211.19211,0,0,1,13.01723,5.91741Z"/></svg>