<svg xmlns="http://www.w3.org/2000/svg" viewBox="0 0 32 32"><defs><style>.a{fill:#f0c13e;}.b{fill:#edeeee;}.c{fill:#e56142;}.d{fill:#3e9b8d;}.e{fill:#e8ba36;}.f{fill:#e3e5e5;}.g{fill:#e0b12e;}.h{fill:#dd583e;}.i{fill:#5ca3d5;}.j{fill:#f7c845;}.k{fill:#eb6b48;}.l{fill:#65a9dc;}.m{fill:#f7f7f7;}.n{fill:#373f3f;}.o{fill:#3a9384;}.p{fill:#dadddc;}.q{fill:#dba728;}.r{fill:#d64f3c;}.s{fill:#529ccf;}.t{fill:#2b3332;}</style></defs><title>567-archeops-shiny</title><path class="a" d="M11.53124,9.12441C7.883,13.92644,1.10036,21.4154,2.67256,21.74248A2.94342,2.94342,0,0,1,4.29889,19.557C5.87922,18.943,6.129,19.2,5.89761,19.7719l-.8865,1.436c-1.39411.76029-.20267,1.02975.573.59563a5.88032,5.88032,0,0,0,1.1304-2.75268L12.817,10.41348Z"/><path class="b" d="M3.84588,22.65865c.3056.32824.57.3693.79421.13147a1.045,1.045,0,0,1-.19326-1.18082C3.84336,21.40589,3.50583,21.56729,3.84588,22.65865Z"/><path class="c" d="M5.89761,19.7719c.23137-.57188-.0184-.82885-1.5987-.21494a2.94332,2.94332,0,0,0-1.62634,2.1855,5.32209,5.32209,0,0,0,.00079.9928c.25494-.38219.47914-.214.66973.56168,0,0,.35177-.744.75642.19408l.00713.01049a6.01928,6.01928,0,0,1-.26076-.84286c-.34005-1.09136-.00252-1.25276.601-1.04935l.56426-.40143Z"/><path class="b" d="M3.34309,23.29694c-.19059-.77566-.41479-.94387-.66973-.56168a4.9288,4.9288,0,0,0,.2738,1.25921Z"/><path class="b" d="M4.09951,23.491c-.40465-.93813-.75642-.19408-.75642-.19408A1.1761,1.1761,0,0,0,4.5042,24.42906c-.09745-.22984-.25043-.54248-.39756-.92755Z"/><path class="d" d="M.20329,27.89139c-.62158-1.10332.17688-3.41942,2.46929-6.14892l.27458,2.252c-.555.08845-.63821.92974-.688,1.82437-.29063-.19213-.35046-.70588-.21941-1.48564Z"/><path class="e" d="M14.84237,14.23461l-1.451.31437V13.32934l-.919-.4249-.04839,1.74126c-.59833,1.91418.14783,3.51212,1.64453,4.9336A2.91719,2.91719,0,0,0,16,20.3532V15.68164Z"/><path class="f" d="M3.86277,28.334l1.64666-.31068a6.37848,6.37848,0,0,0-.21906-1.38721C4.41833,26.7775,4.06932,27.4794,3.86277,28.334Z"/><path class="g" d="M11.73417,22.01115l.483.52743.884-.20229c-1.04949-1.33126-.90147-2.29435.96735-2.757-1.4967-1.42148-2.24286-3.01942-1.64453-4.9336-3.491,2.83023-4.23344,5.22041-2.757,7.25525l.87063.63763Z"/><path class="h" d="M9.83463,26.63607,9.1317,25.7035,7.10344,26.109l-1.01574.532a2.458,2.458,0,0,0-.79733-.005,6.37848,6.37848,0,0,1,.21906,1.38721l.91683-.173c.16609-.91373,1.76229-.62357,1.59621.29016l1.11246.0484c-.07891-1.14447,1.32372-1.24119,1.40263-.09673l.67718-.53206-.67718-1.177Z"/><polygon class="i" points="13.101 24.174 14.891 23.4 13.488 23.013 14.262 21.756 13.101 22.336 12.217 22.539 11.734 22.011 10.538 22.539 9.667 21.901 8.168 21.901 8.168 22.772 6.475 23.11 7.781 24.029 6.765 24.803 8.119 25.19 7.103 26.109 9.132 25.703 9.835 26.636 10.538 26.383 11.215 27.56 11.795 28.044 12.134 26.931 12.859 27.318 12.666 26.641 13.923 26.351 13.053 25.383 14.31 24.948 13.101 24.174"/><path class="f" d="M9.13493,28.18885l.87063,1.451.532-1.54775C10.45865,26.94766,9.056,27.04438,9.13493,28.18885Z"/><path class="f" d="M6.42626,27.85029v1.3543l1.59621-1.06414C8.18855,27.22672,6.59235,26.93656,6.42626,27.85029Z"/><polygon class="j" points="15.522 8.551 14.891 9.325 14.117 8.213 13.391 8.213 12.569 7.003 11.36 7.003 12.472 7.826 10.876 7.826 11.698 8.696 10.538 9.035 11.215 9.422 10.731 10.293 11.989 11.212 11.602 12.614 12.472 12.904 13.391 13.329 13.391 14.549 14.842 14.235 16 15.682 16 9.325 15.522 8.551"/><path class="k" d="M14.11686,7.584l-.77539-2.4938c-.11873.60427-.45006,1.04271-.84495,1.04271a.5279.5279,0,0,1-.07614-.0131,7.59941,7.59941,0,0,0,.14867.88373l.82229,1.20925h.72552l.7739,1.1124.6317-.77384L16,9.32515V7.8949A3.87208,3.87208,0,0,1,14.11686,7.584Z"/><path class="l" d="M13.05188,3.42323a2.03727,2.03727,0,0,1,.33946,1.18609,2.4792,2.4792,0,0,1-.04987.48084l.77539,2.4938A3.87208,3.87208,0,0,0,16,7.8949V2.36013A3.84855,3.84855,0,0,0,13.05188,3.42323Z"/><path class="m" d="M12.42038,6.11977a.5279.5279,0,0,0,.07614.0131c.49419,0,.89482-.68209.89482-1.52355a2.03727,2.03727,0,0,0-.33946-1.18609A3.35332,3.35332,0,0,0,12.42038,6.11977Z"/><ellipse class="n" cx="12.88085" cy="4.97173" rx="0.17103" ry="0.57398"/><path class="e" d="M20.46876,9.12441c3.64821,4.802,10.43088,12.291,8.85868,12.61807A2.94342,2.94342,0,0,0,27.70111,19.557c-1.58033-.61395-1.83011-.357-1.59872.21493l.8865,1.436c1.39411.76029.20267,1.02975-.573.59563a5.88032,5.88032,0,0,1-1.1304-2.75268l-6.10246-8.63736Z"/><path class="f" d="M28.15412,22.65865c-.3056.32824-.57.3693-.79421.13147a1.045,1.045,0,0,0,.19326-1.18082C28.15664,21.40589,28.49417,21.56729,28.15412,22.65865Z"/><path class="h" d="M26.10239,19.7719c-.23137-.57188.0184-.82885,1.5987-.21494a2.94332,2.94332,0,0,1,1.62634,2.1855,5.32209,5.32209,0,0,1-.00079.9928c-.25494-.38219-.47914-.214-.66973.56168,0,0-.35177-.744-.75642.19408l-.00713.01049a6.01928,6.01928,0,0,0,.26076-.84286c.34005-1.09136.00252-1.25276-.60095-1.04935l-.56426-.40143Z"/><path class="f" d="M28.65691,23.29694c.19059-.77566.41479-.94387.66973-.56168a4.9288,4.9288,0,0,1-.2738,1.25921Z"/><path class="f" d="M27.90049,23.491c.40465-.93813.75642-.19408.75642-.19408a1.1761,1.1761,0,0,1-1.16111,1.13212c.09745-.22984.25043-.54248.39756-.92755Z"/><path class="o" d="M31.79671,27.89139c.62158-1.10332-.17688-3.41942-2.46929-6.14892l-.27458,2.252c.555.08845.63821.92974.688,1.82437.29063-.19213.35046-.70588.21941-1.48564Z"/><path class="g" d="M17.15763,14.23461l1.451.31437V13.32934l.919-.4249.04839,1.74126c.59833,1.91418-.14783,3.51212-1.64453,4.9336A2.91719,2.91719,0,0,1,16,20.3532V15.68164Z"/><path class="p" d="M28.13723,28.334l-1.64666-.31068a6.37848,6.37848,0,0,1,.21906-1.38721C27.58167,26.7775,27.93068,27.4794,28.13723,28.334Z"/><path class="q" d="M20.26583,22.01115l-.483.52743-.884-.20229c1.04949-1.33126.90147-2.29435-.96735-2.757,1.4967-1.42148,2.24286-3.01942,1.64453-4.9336,3.491,2.83023,4.23344,5.22041,2.757,7.25525l-.87063.63763Z"/><path class="r" d="M22.16537,26.63607l.70293-.93257,2.02826.40553,1.01574.532a2.458,2.458,0,0,1,.79733-.005,6.37848,6.37848,0,0,0-.21906,1.38721l-.91683-.173c-.16609-.91373-1.76229-.62357-1.59621.29016l-1.11246.0484c.07891-1.14447-1.32372-1.24119-1.40263-.09673l-.67718-.53206.67718-1.177Z"/><polygon class="s" points="18.899 24.174 17.109 23.4 18.512 23.013 17.738 21.756 18.899 22.336 19.783 22.539 20.266 22.011 21.462 22.539 22.333 21.901 23.832 21.901 23.832 22.772 25.525 23.11 24.219 24.029 25.235 24.803 23.881 25.19 24.897 26.109 22.868 25.703 22.165 26.636 21.462 26.383 20.785 27.56 20.205 28.044 19.866 26.931 19.141 27.318 19.334 26.641 18.077 26.351 18.947 25.383 17.69 24.948 18.899 24.174"/><path class="p" d="M22.86507,28.18885l-.87063,1.451-.532-1.54775C21.54135,26.94766,22.944,27.04438,22.86507,28.18885Z"/><path class="p" d="M25.57374,27.85029v1.3543l-1.59621-1.06414C23.81145,27.22672,25.40765,26.93656,25.57374,27.85029Z"/><polygon class="a" points="16.478 8.551 17.109 9.325 17.883 8.213 18.609 8.213 19.431 7.003 20.64 7.003 19.528 7.826 21.124 7.826 20.302 8.696 21.462 9.035 20.785 9.422 21.269 10.293 20.011 11.212 20.398 12.614 19.528 12.904 18.609 13.329 18.609 14.549 17.158 14.235 16 15.682 16 9.325 16.478 8.551"/><path class="c" d="M17.88314,7.584l.77539-2.4938c.11873.60427.45006,1.04271.845,1.04271a.5279.5279,0,0,0,.07614-.0131,7.59941,7.59941,0,0,1-.14867.88373l-.82229,1.20925h-.72552l-.7739,1.1124-.6317-.77384L16,9.32515V7.8949A3.87208,3.87208,0,0,0,17.88314,7.584Z"/><path class="i" d="M18.94812,3.42323a2.03727,2.03727,0,0,0-.33946,1.18609,2.4792,2.4792,0,0,0,.04987.48084L17.88314,7.584A3.87208,3.87208,0,0,1,16,7.8949V2.36013A3.84855,3.84855,0,0,1,18.94812,3.42323Z"/><path class="b" d="M19.57962,6.11977a.5279.5279,0,0,1-.07614.0131c-.49419,0-.89482-.68209-.89482-1.52355a2.03727,2.03727,0,0,1,.33946-1.18609A3.35332,3.35332,0,0,1,19.57962,6.11977Z"/><ellipse class="t" cx="19.11915" cy="4.97173" rx="0.17103" ry="0.57398"/></svg>