<svg xmlns="http://www.w3.org/2000/svg" viewBox="0 0 32 32"><title>567-archeops</title><path d="M11.52191,9.12441C7.8737,13.92644,1.091,21.4154,2.66323,21.74248A2.94342,2.94342,0,0,1,4.28956,19.557c1.58034-.61395,1.83011-.357,1.59872.21493l-.8865,1.436c-1.39411.76029-.20267,1.02975.573.59563a5.88022,5.88022,0,0,0,1.1304-2.75268l6.10246-8.63736Z" style="fill:#ffe28a"/><path d="M3.83655,22.65865c.3056.32824.57.3693.79421.13147A1.045,1.045,0,0,1,4.4375,21.6093C3.834,21.40589,3.4965,21.56729,3.83655,22.65865Z" style="fill:#edeeee"/><path d="M5.88828,19.7719c.23137-.57188-.0184-.82885-1.5987-.21494a2.94328,2.94328,0,0,0-1.62633,2.1855,5.32125,5.32125,0,0,0,.00078.9928c.25494-.38219.47914-.214.66973.56168,0,0,.35177-.744.75642.19408l.00713.01049a6.01928,6.01928,0,0,1-.26076-.84286c-.34-1.09136-.00252-1.25276.601-1.04935l.56426-.40143Z" style="fill:#d1473d"/><path d="M3.33376,23.29694c-.19059-.77566-.41479-.94387-.66973-.56168a4.9288,4.9288,0,0,0,.2738,1.25921Z" style="fill:#edeeee"/><path d="M4.09018,23.491c-.40465-.93813-.75642-.19408-.75642-.19408a1.1761,1.1761,0,0,0,1.16111,1.13212c-.09745-.22984-.25043-.54248-.39756-.92755Z" style="fill:#edeeee"/><path d="M.194,27.89139c-.62157-1.10332.17688-3.41942,2.46929-6.14892l.27458,2.252c-.555.08845-.63821.92974-.688,1.82437-.29063-.19213-.35046-.70588-.21941-1.48564Z" style="fill:#65a9dc"/><path d="M14.833,14.23461l-1.451.31437V13.32934l-.919-.4249-.0484,1.74126c-.59833,1.91418.14783,3.51212,1.64453,4.9336a2.91723,2.91723,0,0,0,1.93154.7739V15.68164Z" style="fill:#ffd96c"/><path d="M3.85344,28.334l1.64667-.31068A6.37908,6.37908,0,0,0,5.281,26.63607C4.409,26.7775,4.06,27.4794,3.85344,28.334Z" style="fill:#e3e5e5"/><path d="M11.72484,22.01115l.483.52743.884-.20229c-1.04948-1.33126-.90146-2.29435.96735-2.757-1.4967-1.42148-2.24286-3.01942-1.64453-4.9336-3.491,2.83023-4.23344,5.22041-2.757,7.25525l.87063.63763Z" style="fill:#ffd04d"/><path d="M9.8253,26.63607l-.70293-.93257L7.09412,26.109l-1.01575.532a2.458,2.458,0,0,0-.79732-.005,6.37908,6.37908,0,0,1,.21906,1.38721l.91682-.173c.16609-.91373,1.76229-.62357,1.59621.29016l1.11246.0484c-.07891-1.14447,1.32372-1.24119,1.40263-.09673l.67719-.53206-.67719-1.177Z" style="fill:#c23734"/><polygon points="13.092 24.174 14.881 23.4 13.479 23.013 14.253 21.756 13.092 22.336 12.208 22.539 11.725 22.011 10.528 22.539 9.658 21.901 8.158 21.901 8.158 22.772 6.465 23.11 7.771 24.029 6.756 24.803 8.11 25.19 7.094 26.109 9.122 25.703 9.825 26.636 10.528 26.383 11.205 27.56 11.786 28.044 12.124 26.931 12.85 27.318 12.656 26.641 13.914 26.351 13.043 25.383 14.301 24.948 13.092 24.174" style="fill:#3a9384"/><path d="M9.1256,28.18885l.87063,1.451.532-1.54775C10.44932,26.94766,9.04669,27.04438,9.1256,28.18885Z" style="fill:#e3e5e5"/><path d="M6.41693,27.85029v1.3543l1.59621-1.06414C8.17922,27.22672,6.583,26.93656,6.41693,27.85029Z" style="fill:#e3e5e5"/><polygon points="15.513 8.551 14.881 9.325 14.108 8.213 13.382 8.213 12.56 7.003 11.351 7.003 12.463 7.826 10.867 7.826 11.689 8.696 10.528 9.035 11.205 9.422 10.722 10.293 11.979 11.212 11.592 12.614 12.463 12.904 13.382 13.329 13.382 14.549 14.833 14.235 15.991 15.682 15.991 9.325 15.513 8.551" style="fill:#ffeaa7"/><path d="M14.10753,7.584l-.77539-2.4938c-.11873.60427-.45006,1.04271-.845,1.04271a.5279.5279,0,0,1-.07614-.0131,7.59941,7.59941,0,0,0,.14867.88373l.8223,1.20925h.72551l.7739,1.1124.6317-.77384.47754.77384V7.8949A3.87208,3.87208,0,0,1,14.10753,7.584Z" style="fill:#cf3c35"/><path d="M13.04255,3.42323A2.03728,2.03728,0,0,1,13.382,4.60932a2.47919,2.47919,0,0,1-.04988.48084l.77539,2.4938a3.87208,3.87208,0,0,0,1.88314.31094V2.36013A3.84855,3.84855,0,0,0,13.04255,3.42323Z" style="fill:#3e9b8d"/><path d="M12.41105,6.11977a.5279.5279,0,0,0,.07614.0131c.49419,0,.89483-.68209.89483-1.52355a2.03728,2.03728,0,0,0-.33947-1.18609A3.35336,3.35336,0,0,0,12.41105,6.11977Z" style="fill:#f7f7f7"/><ellipse cx="12.87153" cy="4.97173" rx="0.17103" ry="0.57398" style="fill:#373f3f"/><path d="M20.45944,9.12441c3.6482,4.802,10.43088,12.291,8.85867,12.61807A2.94342,2.94342,0,0,0,27.69178,19.557c-1.58033-.61395-1.83011-.357-1.59872.21493l.8865,1.436c1.39411.76029.20267,1.02975-.573.59563a5.88032,5.88032,0,0,1-1.1304-2.75268l-6.10246-8.63736Z" style="fill:#ffd96c"/><path d="M28.14479,22.65865c-.3056.32824-.57.3693-.7942.13147a1.045,1.045,0,0,0,.19326-1.18082C28.14731,21.40589,28.48484,21.56729,28.14479,22.65865Z" style="fill:#e3e5e5"/><path d="M26.09307,19.7719c-.23138-.57188.01839-.82885,1.59869-.21494a2.94332,2.94332,0,0,1,1.62634,2.1855,5.32209,5.32209,0,0,1-.00079.9928c-.25494-.38219-.47914-.214-.66973.56168,0,0-.35176-.744-.75642.19408l-.00713.01049a6.01928,6.01928,0,0,0,.26076-.84286c.34-1.09136.00252-1.25276-.60094-1.04935l-.56427-.40143Z" style="fill:#cf3c35"/><path d="M28.64758,23.29694c.19059-.77566.41479-.94387.66973-.56168a4.9288,4.9288,0,0,1-.2738,1.25921Z" style="fill:#e3e5e5"/><path d="M27.89116,23.491c.40466-.93813.75642-.19408.75642-.19408a1.1761,1.1761,0,0,1-1.16111,1.13212c.09745-.22984.25044-.54248.39756-.92755Z" style="fill:#e3e5e5"/><path d="M31.78738,27.89139c.62158-1.10332-.17688-3.41942-2.46929-6.14892l-.27458,2.252c.555.08845.63821.92974.688,1.82437.29063-.19213.35046-.70588.21942-1.48564Z" style="fill:#5ca3d5"/><path d="M17.1483,14.23461l1.451.31437V13.32934l.919-.4249.04839,1.74126c.59834,1.91418-.14782,3.51212-1.64453,4.9336a2.91719,2.91719,0,0,1-1.93154.7739V15.68164Z" style="fill:#ffd04d"/><path d="M28.1279,28.334l-1.64666-.31068a6.37848,6.37848,0,0,1,.21906-1.38721C27.57234,26.7775,27.92136,27.4794,28.1279,28.334Z" style="fill:#dadddc"/><path d="M20.25651,22.01115l-.483.52743-.884-.20229c1.04949-1.33126.90147-2.29435-.96735-2.757,1.49671-1.42148,2.24287-3.01942,1.64453-4.9336,3.491,2.83023,4.23344,5.22041,2.757,7.25525l-.87063.63763Z" style="fill:#f7c845"/><path d="M22.156,26.63607l.70293-.93257,2.02826.40553,1.01574.532a2.458,2.458,0,0,1,.79733-.005,6.37848,6.37848,0,0,0-.21906,1.38721l-.91683-.173c-.16609-.91373-1.76229-.62357-1.5962.29016l-1.11247.0484c.07891-1.14447-1.32372-1.24119-1.40263-.09673l-.67718-.53206.67718-1.177Z" style="fill:#b33533"/><polygon points="18.89 24.174 17.1 23.4 18.503 23.013 17.729 21.756 18.89 22.336 19.774 22.539 20.257 22.011 21.453 22.539 22.324 21.901 23.823 21.901 23.823 22.772 25.516 23.11 24.21 24.029 25.226 24.803 23.871 25.19 24.887 26.109 22.859 25.703 22.156 26.636 21.453 26.383 20.776 27.56 20.196 28.044 19.857 26.931 19.131 27.318 19.325 26.641 18.067 26.351 18.938 25.383 17.68 24.948 18.89 24.174" style="fill:#378c7c"/><path d="M22.85574,28.18885l-.87063,1.451-.532-1.54775C21.532,26.94766,22.93465,27.04438,22.85574,28.18885Z" style="fill:#dadddc"/><path d="M25.56441,27.85029v1.3543l-1.5962-1.06414C23.80212,27.22672,25.39832,26.93656,25.56441,27.85029Z" style="fill:#dadddc"/><polygon points="16.468 8.551 17.1 9.325 17.874 8.213 18.599 8.213 19.422 7.003 20.631 7.003 19.518 7.826 21.114 7.826 20.292 8.696 21.453 9.035 20.776 9.422 21.26 10.293 20.002 11.212 20.389 12.614 19.518 12.904 18.599 13.329 18.599 14.549 17.148 14.235 15.991 15.682 15.991 9.325 16.468 8.551" style="fill:#ffe28a"/><path d="M17.87381,7.584l.77539-2.4938c.11873.60427.45006,1.04271.845,1.04271a.5279.5279,0,0,0,.07614-.0131,7.6014,7.6014,0,0,1-.14866.88373l-.8223,1.20925h-.72552l-.7739,1.1124-.63169-.77384-.47755.77384V7.8949A3.87206,3.87206,0,0,0,17.87381,7.584Z" style="fill:#c23734"/><path d="M18.93879,3.42323a2.03727,2.03727,0,0,0-.33946,1.18609,2.4792,2.4792,0,0,0,.04987.48084L17.87381,7.584a3.87206,3.87206,0,0,1-1.88314.31094V2.36013A3.84855,3.84855,0,0,1,18.93879,3.42323Z" style="fill:#3a9384"/><path d="M19.57029,6.11977a.5279.5279,0,0,1-.07614.0131c-.49419,0-.89482-.68209-.89482-1.52355a2.03727,2.03727,0,0,1,.33946-1.18609A3.35332,3.35332,0,0,1,19.57029,6.11977Z" style="fill:#edeeee"/><ellipse cx="19.10982" cy="4.97173" rx="0.17103" ry="0.57398" style="fill:#2b3332"/></svg>