<svg xmlns="http://www.w3.org/2000/svg" viewBox="0 0 32 32"><title>568-trubbish</title><path d="M18.40224,24.98548c-.54515.31472-.53867,1.34649.0144,2.30456s1.44347,1.47952,1.98862,1.1648.53867-1.34657-.01447-2.30456S18.94739,24.67075,18.40224,24.98548Z" style="fill:#4b7e6d"/><path d="M23.10322,25.15061c-.71893-1.7417.57826-3.02881,4.1767-3.797l-3.20036-.32545c1.13911-.59669.86895-4.13524-2.65786-5.64126.06939-1.60788-.29853-2.74432-1.24759-3.25456,1.1684.555,4.77332-7.377,4.12242-8.67884-2.06125.27117-6.22722,6.83636-5.09884,7.594A4.28567,4.28567,0,0,0,16,9.79989V26.498a11.65481,11.65481,0,0,0,5.53018-2.05253Z" style="fill:#568473"/><path d="M29.39537,23.95723l-2.11545-2.60366c-3.59844.76823-4.89563,2.05534-4.1767,3.797.98354,2.08932,2.66492,2.32537,4.88187,1.13911,1.21621.92394,2.54939.85627,4.01394-.32552l-.83813-.6509C30.62309,26.01344,28.85764,24.65736,29.39537,23.95723Zm-2.007,1.55123-2.33249-.77565,1.62732-1.37227,1.68152,1.37227Z" style="fill:#a28f7f"/><polygon points="25.056 24.733 27.388 25.508 28.365 24.733 26.683 23.361 25.056 24.733" style="fill:#d786b3"/><path d="M29.39537,23.95723c-.53773.70013,1.22772,2.05621,1.76553,1.35607C31.06357,24.47366,30.54067,23.9699,29.39537,23.95723Z" style="fill:#65a9dc"/><path d="M20.30973,15.8208c-.734,0-1.329,1.05646-1.329,2.35955s.595,2.35956,1.329,2.35956,1.32893-1.0564,1.32893-2.35956S21.04363,15.8208,20.30973,15.8208Z" style="fill:#edeeee"/><path d="M18.05858,21.7875l.5967-1.51876c-.93575-1.111-1.82751-1.68044-2.65528-1.46456v3.20036l.97375-1.46463Z" style="fill:#e3e5e5"/><path d="M20.29612,16.9057a.23054.23054,0,1,0,.23058.2305A.23044.23044,0,0,0,20.29612,16.9057Z" style="fill:#2b3332"/><path d="M13.59776,24.98548c.54515.31472.53867,1.34649-.0144,2.30456s-1.44347,1.47952-1.98862,1.1648-.53867-1.34657.01447-2.30456S13.05261,24.67075,13.59776,24.98548Z" style="fill:#568473"/><path d="M8.89678,25.15061c.71893-1.7417-.57826-3.02881-4.1767-3.797l3.20036-.32545c-1.13911-.59669-.86895-4.13524,2.65786-5.64126-.06939-1.60788.29853-2.74432,1.24759-3.25456-1.1684.555-4.77332-7.377-4.12242-8.67884,2.06125.27117,6.22722,6.83636,5.09884,7.594A4.28567,4.28567,0,0,1,16,9.79989V26.498a11.65481,11.65481,0,0,1-5.53018-2.05253Z" style="fill:#608a7a"/><path d="M.8391,25.3133.001,25.9642c1.46455,1.18179,2.79773,1.24946,4.01394.32552,2.21695,1.18626,3.89833.95021,4.88187-1.13911.71893-1.7417-.57826-3.02881-4.1767-3.797L2.60463,23.95723C3.14236,24.65736,1.37691,26.01344.8391,25.3133Zm2.79615-.58049,1.68152-1.37227,1.62732,1.37227-2.33249.77565Z" style="fill:#a79586"/><polygon points="6.944 24.733 4.612 25.508 3.635 24.733 5.317 23.361 6.944 24.733" style="fill:#db92bb"/><path d="M2.60463,23.95723c.53773.70013-1.22772,2.05621-1.76553,1.35607C.93643,24.47366,1.45933,23.9699,2.60463,23.95723Z" style="fill:#71b1e1"/><path d="M11.69027,15.8208c.734,0,1.329,1.05646,1.329,2.35955s-.595,2.35956-1.329,2.35956-1.32893-1.0564-1.32893-2.35956S10.95637,15.8208,11.69027,15.8208Z" style="fill:#f7f7f7"/><path d="M13.94142,21.7875l-.5967-1.51876c.93575-1.111,1.82751-1.68044,2.65528-1.46456v3.20036l-.97375-1.46463Z" style="fill:#edeeee"/><path d="M11.70388,16.9057a.23054.23054,0,1,1-.23058.2305A.23044.23044,0,0,1,11.70388,16.9057Z" style="fill:#373f3f"/></svg>