<svg xmlns="http://www.w3.org/2000/svg" viewBox="0 0 32 32"><defs><style>.a{fill:#909997;}.b{fill:#807a7a;}.c{fill:#ff8d6e;}.d{fill:#93c427;}.e{fill:#4295ac;}.f{fill:#6d6666;}.g{fill:#8d8888;}.h{fill:#746e6e;}.i{fill:#47a1b4;}.j{fill:#edeeee;}.k{fill:#2b3332;}.l{fill:#e3e5e5;}.m{fill:#9da5a4;}.n{fill:#9a9595;}.o{fill:#9acc2e;}.p{fill:#4caebc;}.q{fill:#f7f7f7;}.r{fill:#373f3f;}.s{fill:#ff9a7e;}</style></defs><title>569-garbodor-shiny</title><path class="a" d="M28.5722,11.09217q-.86239-.24235-.83311-.89614a7.64158,7.64158,0,0,0,1.97873-3.128c.408-.04455.72192.03432.795.42918A8.25109,8.25109,0,0,1,28.5722,11.09217Z"/><ellipse class="b" cx="27.70049" cy="10.75517" rx="2.70226" ry="2.33726" transform="translate(1.51643 24.80458) rotate(-49.4359)"/><path class="a" d="M26.54169,10.11849q.874.19641,1.1588-.39281a7.64154,7.64154,0,0,1-.25533-3.69248c-.33785-.233-.65157-.31274-.90347,0A8.25087,8.25087,0,0,0,26.54169,10.11849Z"/><path class="a" d="M29.27421,11.42314a.42937.42937,0,0,0-.53275.58087,10.66384,10.66384,0,0,0,2.47474.65039c.533-.23844.69414-.8203.33-.85915A8.12247,8.12247,0,0,1,29.27421,11.42314Z"/><ellipse class="c" cx="29.20783" cy="10.10262" rx="0.39309" ry="0.65255"/><ellipse class="d" cx="27.24239" cy="11.75406" rx="0.86893" ry="0.6619"/><path class="b" d="M26.39351,12.6544l1.0646.3847c.77821,1.22913.857,3.2353.25819,5.99427a7.92186,7.92186,0,0,1-4.06714-.954l-.053-1.022c.79985.42189,1.60124.85389,2.27311.44194A6.00845,6.00845,0,0,0,26.39351,12.6544Z"/><path class="e" d="M26.80958,27.206A12.98383,12.98383,0,0,0,32.001,29.87265c-1.16129.83739-3.69925.386-6.77765-.57142Z"/><path class="f" d="M18.99364,29.58694v-.82766l5.76822-.37867-.11537.76189C30.6887,32.2134,14.6098,33.444,18.99364,29.58694Z"/><path class="g" d="M19.88772,7.33324C18.66775,7.85759,17.48527,4.5243,18.70523,4c-1.3204-1.23964.35239-3.39835,1.67279-2.1587a1.7338,1.7338,0,1,1,3.46093,0c1.66576-1.19457,2.90592.90065,1.24016,2.09521,1.29783.29411.89405,2.45282-.40377,2.1587.99247.59977.18492,2.2188-.80755,1.619.33366,1.09383-1.64195,1.824-1.97562.73015-.18165.38878-1.6958-.46835-1.51415-.85713Z"/><path class="h" d="M18.19207,16.095a27.49951,27.49951,0,0,0,5.58922,9.80938,51.88185,51.88185,0,0,0-1.771-9.66294c-.365-.85969.52026-1.30994.80668-.41493.94625,2.95619,2.88182,5.308,4.7998,5.95783,1.49208,3.67271.39681,6.98881-1.0647,6.6692-.37907,1.23956-1.28009,1.78053-2.9165,1.33755-2.08514,1.3964-4.02941,1.57231-5.77218,0,0,.70055-.90578,1.06649-1.86243,1.10634V15.68232C16.94311,15.08766,17.76962,14.89266,18.19207,16.095Z"/><path class="d" d="M24.87745,24.15825l-4.38948.61327-.283,2.08511C23.48455,30.1903,27.61678,25.90442,24.87745,24.15825Z"/><path class="i" d="M19.13929,7.78784l.54687-3.14329.85062,1.5716,1.45828-1.1035-.85062,1.4714.85062.80253L20.17222,8.6573c.58929-.3971,2.41212,2.88,1.82284,3.277l3.038-1.47131-1.03293,1.07,1.5798.80253-1.15445.602.7291.66877-1.276.80253c-.664.36.68137,3.90837,2.00507,4.48093a11.06914,11.06914,0,0,1,1.73309,2.8946c-1.918-.64979-3.85355-3.00164-4.7998-5.95783-.28642-.895-1.17163-.44476-.80668.41493a51.88185,51.88185,0,0,1,1.771,9.66294A27.49951,27.49951,0,0,1,18.19207,16.095c-.42245-1.20238-1.249-1.00738-2.1911-.41272V7.78784C16.001,7.11818,19.13929,7.11818,19.13929,7.78784Z"/><ellipse class="j" cx="19.33974" cy="10.79352" rx="0.86523" ry="1.33332"/><ellipse class="k" cx="19.33974" cy="10.31734" rx="0.20189" ry="0.22222"/><polygon class="c" points="20.98 2.983 22.626 4.135 23.086 3.339 21.439 2.187 20.98 2.983"/><rect class="d" x="22.45797" y="5.81299" width="0.49968" height="1.04763" transform="translate(45.41563 12.67362) rotate(-180)"/><path class="c" d="M17.72817,22.106c0,.64357-.77329,1.16518-1.7272,1.16518V20.94084C16.95488,20.94084,17.72817,21.46246,17.72817,22.106Z"/><path class="l" d="M17.48578,10.79356l-.33423.56777-.55719-.56777-.59339.56777V9.83012C16.74055,9.82488,17.48578,10.14476,17.48578,10.79356Z"/><rect class="m" x="0.96356" y="16.11824" width="0.67774" height="2.90226" transform="matrix(0.99089, -0.13469, 0.13469, 0.99089, -2.35448, 0.3355)"/><rect class="m" x="4.70607" y="17.14971" width="0.67774" height="2.90226" transform="translate(16.52942 3.12345) rotate(51.75077)"/><ellipse class="g" cx="2.75777" cy="19.03366" rx="1.04417" ry="1.64657" transform="translate(-16.44542 17.97381) rotate(-78.59681)"/><ellipse class="g" cx="1.70357" cy="13.39174" rx="3.27116" ry="1.60834" transform="translate(-11.76063 12.41397) rotate(-78.59681)"/><circle class="g" cx="7.93505" cy="16.63458" r="2.89011"/><path class="i" d="M5.19236,27.206A12.98383,12.98383,0,0,1,.001,29.87265c1.16129.83739,3.69925.386,6.77765-.57142Z"/><path class="h" d="M13.00829,29.58694v-.82766l-5.76821-.37867.11536.76189C1.31324,32.2134,17.39214,33.444,13.00829,29.58694Z"/><path class="n" d="M12.11422,7.33324c1.22.52435,2.40245-2.80894,1.18249-3.33329,1.3204-1.23964-.35239-3.39835-1.67279-2.1587a1.7338,1.7338,0,1,0-3.46093,0C6.49723.64668,5.25706,2.7419,6.92283,3.93646c-1.29783.29411-.894,2.45282.40377,2.1587-.99247.59977-.18492,2.2188.80755,1.619-.33367,1.09383,1.64195,1.824,1.97562.73015.18165.38878,1.6958-.46835,1.51415-.85713Z"/><path class="b" d="M13.80987,16.095a27.49951,27.49951,0,0,1-5.58922,9.80938,51.88185,51.88185,0,0,1,1.771-9.66294c.365-.85969-.52026-1.30994-.80668-.41493-.94625,2.95619-2.88182,5.308-4.7998,5.95783-1.49208,3.67271-.39681,6.98881,1.0647,6.6692.37907,1.23956,1.28008,1.78053,2.91649,1.33755,2.08515,1.3964,4.02942,1.57231,5.77219,0,0,.70055.90577,1.06649,1.86243,1.10634V15.68232C15.05883,15.08766,14.23232,14.89266,13.80987,16.095Z"/><path class="o" d="M7.12449,24.15825l4.38948.61327.283,2.08511C8.51738,30.1903,4.38516,25.90442,7.12449,24.15825Z"/><path class="p" d="M12.86265,7.78784l-.54687-3.14329-.85062,1.5716-1.45828-1.1035.85062,1.4714-.85062.80253L11.82971,8.6573c-.58928-.3971-2.41212,2.88-1.82283,3.277L6.96887,10.463l1.03293,1.07L6.422,12.3356l1.15445.602-.7291.66877,1.276.80253c.664.36-.68137,3.90837-2.00507,4.48093a11.06914,11.06914,0,0,0-1.73309,2.8946c1.918-.64979,3.85355-3.00164,4.7998-5.95783.28642-.895,1.17163-.44476.80668.41493a51.88185,51.88185,0,0,0-1.771,9.66294A27.49951,27.49951,0,0,0,13.80987,16.095c.42245-1.20238,1.249-1.00738,2.1911-.41272V7.78784C16.001,7.11818,12.86265,7.11818,12.86265,7.78784Z"/><ellipse class="q" cx="12.6622" cy="10.79352" rx="0.86523" ry="1.33332"/><ellipse class="r" cx="12.6622" cy="10.31734" rx="0.20189" ry="0.22222"/><polygon class="s" points="11.022 2.983 9.375 4.135 8.916 3.339 10.563 2.187 11.022 2.983"/><rect class="o" x="9.04428" y="5.81299" width="0.49968" height="1.04763"/><path class="s" d="M14.27376,22.106c0,.64357.7733,1.16518,1.72721,1.16518V20.94084C15.04706,20.94084,14.27376,21.46246,14.27376,22.106Z"/><path class="j" d="M14.51615,10.79356l.33424.56777.55719-.56777.59339.56777V9.83012C15.26138,9.82488,14.51615,10.14476,14.51615,10.79356Z"/><path class="m" d="M2.83017,11.3004q-.85383.271-1.18836-.29145a7.64161,7.64161,0,0,0-.06393-3.70074c.31651-.26128.62218-.36775.90011-.07789A8.251,8.251,0,0,1,2.83017,11.3004Z"/></svg>