<svg xmlns="http://www.w3.org/2000/svg" viewBox="0 0 32 32"><title>570-zorua</title><path d="M23.16411,19.06233a1.92546,1.92546,0,0,1,1.10214-.58137q.62911-.22775,1.2583-.45537c.97254-.36063,1.95063-.70824,2.887-1.15536a6.91882,6.91882,0,0,0,.65681-.35831c.07533-.04659.1866-.11057.16485-.22005-.02085-.10477-.13108-.13329-.22907-.15811a2.84936,2.84936,0,0,0-.7083-.1161q-1.02034.00246-2.0407-.00232c-.06943-.00041-.173.04768-.20453-.03963-.02828-.07865.07068-.12332.12253-.17291.72213-.6903,1.44872-1.37616,2.16933-2.068A12.83193,12.83193,0,0,0,29.724,12.18557c.077-.10266.19389-.20968.11752-.343-.08646-.151-.25255-.10634-.38724-.07373-.28646.0693-.56883.1545-.85286.23321-.18958-.00505-.35276.25961-.562.05287-.01737.03888-.02425.09945-.05379.11329a4.02527,4.02527,0,0,1-1.28311.47318,5.44475,5.44475,0,0,1-1.107.54221c-.19285.10825-.2848.099-.371-.13376A7.5796,7.5796,0,0,0,24.002,10.91848a.52127.52127,0,0,1-.13156-.41322q.156-1.36031.29835-2.722a17.38312,17.38312,0,0,0,.09688-2.80668.60792.60792,0,0,0-.69031-.611,1.79514,1.79514,0,0,0-.81012.23178,13.1337,13.1337,0,0,0-2.40062,1.63079,9.4454,9.4454,0,0,1,.27548,1.49348c.01251.09317-.02112.19624.06151.27421a.42915.42915,0,0,1,.21523-.40068A6.86591,6.86591,0,0,1,22.2054,6.771c.51984-.22421.7063-.11841.67634.42557a10.4672,10.4672,0,0,1-.52435,2.252c-.06289.22244-.17659.09059-.26075.02831-.46278-.34249-.9209-.691-1.38062-1.03756a2.79581,2.79581,0,0,1-.62428,1.94784,3.59156,3.59156,0,0,1-2.43043,1.29935,15.558,15.558,0,0,1-1.89615.059v8.606a3.27029,3.27029,0,0,1,.94675.07026c.1759.04747.3987.0648.42636.29262.02607.21473-.16248.32019-.31968.41179a2.339,2.339,0,0,1-1.05343.332v.17155a12.71448,12.71448,0,0,0,6.91935-2.17962A2.55244,2.55244,0,0,0,23.16411,19.06233ZM18.02769,14.525a.52366.52366,0,0,1-.56862.299.65466.65466,0,0,1-.50017-.54364,1.98689,1.98689,0,0,1,.78-1.65426.43829.43829,0,0,1,.49308-.0193.63171.63171,0,0,1,.25248.62631A2.47157,2.47157,0,0,1,18.02769,14.525Zm3.93392,2.26726a1.508,1.508,0,0,1-1.43823.9626,1.59625,1.59625,0,0,1-1.38368-1.09124l-.02279-.0601a.12913.12913,0,0,1-.06039-.13123c-.05664-.02654-.05866-.07967-.06568-.13029a.6377.6377,0,0,1-.11856-.32427l-.0148-.1899a.13548.13548,0,0,1-.05226-.13751l.00222-.1281.001-.12831-.00111-.13117a3.05144,3.05144,0,0,1,.5796-2.03985,1.3918,1.3918,0,0,1,2.38637.00041,1.66838,1.66838,0,0,1,.32817.62515A3.315,3.315,0,0,1,21.96161,16.79226Z" style="fill:#756d80"/><path d="M29.72881,8.90769c-.1793-.26118-.3415-.24706-.47452.03752a2.5824,2.5824,0,0,0-.16978.52045c-.1909.83981-.25255,1.70356-.48307,2.53635.284-.07871.5664-.16391.85286-.23321.13469-.03261.30078-.07728.38724.07373.07637.13336-.04052.24038-.11752.343a12.83193,12.83193,0,0,1-1.38159,1.54921c-.72061.69186-1.4472,1.37772-2.16933,2.068-.05185.04959-.15081.09426-.12253.17291.03149.08731.1351.03922.20453.03963q1.02035.00594,2.0407.00232a2.84936,2.84936,0,0,1,.7083.1161c.098.02482.20822.05334.22907.15811.02175.10948-.08952.17346-.16485.22005a6.91882,6.91882,0,0,1-.65681.35831c-.93633.44712-1.91442.79473-2.887,1.15529.04344.38253.11314.76423.12552,1.14772a15.92565,15.92565,0,0,1-.23942,3.65447c-.02731.13649-.1702.30081-.002.44835a3.73524,3.73524,0,0,0,1.17248-.63484,7.24764,7.24764,0,0,0,2.29707-3.02032,18.65157,18.65157,0,0,0,1.3795-9.13522A3.205,3.205,0,0,0,29.72881,8.90769Z" style="fill:#4f4a56"/><path d="M17.46817,7.56332a6.45787,6.45787,0,0,0,.65695-1.61653c.06992-.28117.16158-.25716.36159-.12053a10.02977,10.02977,0,0,1,1.72345,1.54395c.12259.13383.18826.35218.43.3515a9.44479,9.44479,0,0,0-.27548-1.49355c-.14066-.39467-.28452-.78825-.42136-1.18421A12.14641,12.14641,0,0,1,18.997,2.00126c-.01467-.201-.10585-.07271-.15727-.02674a1.924,1.924,0,0,0-.62471,1.0746c-.01334.066.03684.175-.0581.18744-.04989.00655-.12015-.07851-.169-.13281q-.39239-.43555-.77808-.87692A12.11483,12.11483,0,0,1,15.76516.00261V9.187A3.37828,3.37828,0,0,0,17.46817,7.56332Z" style="fill:#9f442f"/><path d="M27.57609,9.95125c-.13906.00191-.16825.15593-.20633.26268a20.31871,20.31871,0,0,0-.66724,2.42742,4.02527,4.02527,0,0,0,1.28311-.47318c.02954-.01384.03642-.07441.05379-.11329a4.98041,4.98041,0,0,0-.25623-1.84457C27.74267,10.10343,27.71745,9.94927,27.57609,9.95125Z" style="fill:#4f4a56"/><path d="M20.43512,30.38214a3.72736,3.72736,0,0,0,.36624,1.26238c.23539.4607.54687.47359.8186.03874a6.14474,6.14474,0,0,0,.6637-1.53481A3.332,3.332,0,0,1,20.43512,30.38214Z" style="fill:#9f442f"/><path d="M22.88848,28.69071l-.06671.00055a.309.309,0,0,0-.14205.27489c.00993.05614.01153.10907-.05414.13628l-.07311.31043c.03662.05205.0738.10368.1098.15621.39245.57235.90714.53989,1.21035-.08731a3.96031,3.96031,0,0,0,.33421-1.16368,4.27192,4.27192,0,0,1-1.05051.32345A.32374.32374,0,0,1,22.88848,28.69071Z" style="fill:#9f442f"/><path d="M19.98409,28.009a23.87357,23.87357,0,0,0,.451,2.37313,3.332,3.332,0,0,0,1.84854-.23369,1.327,1.327,0,0,0,.14642-.47229.28527.28527,0,0,1-.10556.03226.07864.07864,0,0,1-.06276-.02149.07864.07864,0,0,0,.06276.02149.28428.28428,0,0,0,.10556-.03233l.12239-.26323.07311-.31043a.14308.14308,0,0,1,.05414-.13635.309.309,0,0,1,.14205-.27482l.06671-.00062c.07791-.07591.175-.05143.26784-.04911a4.27192,4.27192,0,0,0,1.05051-.32345q.52686-1.9164.927-3.862a3.11581,3.11581,0,0,1,.27485-1.18c-.16818-.14754-.02529-.31186.002-.44835a15.92565,15.92565,0,0,0,.23942-3.65447c-.01238-.38349-.08208-.76519-.12552-1.14772q-.62912.22776-1.2583.45544a4.68366,4.68366,0,0,1-.48856,4.13734,6.09672,6.09672,0,0,1-1.75284,1.70991c-.043.02906-.12315.06971-.14469.05321-.06693-.05143.00028-.1176.01939-.1721a4.24745,4.24745,0,0,0,.33129-1.073l-.06887.0015a6.42546,6.42546,0,0,1-3.24792,3.60052c-.05706.02722-.1554.07558-.17444.05648-.07179-.07224.018-.12987.05338-.18881a6.656,6.656,0,0,0,.70726-1.55726.61407.61407,0,0,0,.0048-.15538c-.0736.00553-.05782.07394-.07763.11337a6.96267,6.96267,0,0,1-3.05889,3.046c-.20209.10763-.40231.21875-.60337.3283v.06691a9.03587,9.03587,0,0,0,3.85205-.66089C19.92077,27.66161,19.94475,27.77355,19.98409,28.009Z" style="fill:#605a69"/><path d="M19.42742,25.00671c.01981-.03943.004-.10784.07763-.11337a.61407.61407,0,0,1-.0048.15538A6.656,6.656,0,0,1,18.793,26.606c-.03538.05894-.12517.11657-.05338.18881.019.0191.11738-.02926.17444-.05648A6.42546,6.42546,0,0,0,22.162,23.13779a.10889.10889,0,0,1,.00319-.03192c.03253-.077.06616-.15361.09938-.23035a.20215.20215,0,0,1-.0337.26077,4.24745,4.24745,0,0,1-.33129,1.073c-.01911.0545-.08632.12067-.01939.1721.02154.0165.10167-.02415.14469-.05321a6.09672,6.09672,0,0,0,1.75284-1.70991,4.68366,4.68366,0,0,0,.48856-4.13734,1.92546,1.92546,0,0,0-1.10214.58137,2.55244,2.55244,0,0,1-.4796.38777,12.71513,12.71513,0,0,1-6.91935,2.17969V28.381c.20106-.10955.40128-.22067.60337-.3283A6.96267,6.96267,0,0,0,19.42742,25.00671Z" style="fill:#2b282e"/><path d="M16.81859,21.12618c.1572-.0916.34575-.19706.31968-.41179-.02766-.22782-.25046-.24515-.42636-.29262a3.27029,3.27029,0,0,0-.94675-.07026v1.10666A2.339,2.339,0,0,0,16.81859,21.12618Z" style="fill:#2b282e"/><path d="M20.09174,10.38712A2.79581,2.79581,0,0,0,20.716,8.43928q-.00708-.22171-.01431-.44343c-.0827-.078-.04907-.181-.06158-.27414-.24171.00068-.30738-.21767-.43-.3515a10.02977,10.02977,0,0,0-1.72345-1.54395c-.2-.13663-.29167-.16064-.36159.12053a6.45787,6.45787,0,0,1-.65695,1.61653,3.37853,3.37853,0,0,1-1.703,1.62363v2.55852a15.558,15.558,0,0,0,1.89615-.059A3.59156,3.59156,0,0,0,20.09174,10.38712Z" style="fill:#867d91"/><path d="M20.691,14.5222a2.07726,2.07726,0,0,1,.02,1.83229.84084.84084,0,0,1-1.51808.24794l-.01341.01822a.05988.05988,0,0,1-.03983.043,1.59625,1.59625,0,0,0,1.38368,1.09124,1.508,1.508,0,0,0,1.43823-.9626,3.315,3.315,0,0,0,.1399-2.90381Z" style="fill:#f1f1f1"/><path d="M19.387,13.26289a3.05041,3.05041,0,0,0-.57946,2.03971.37672.37672,0,0,1,.05678.00348q.42646-.18712.85286-.3742.305-.13077.61011-.26139l.36374-.14829,1.41051-.63375a1.66838,1.66838,0,0,0-.32817-.62515A1.3918,1.3918,0,0,0,19.387,13.26289Z" style="fill:#9f442f"/><path d="M22.2054,6.771a6.86591,6.86591,0,0,0-1.28853.82419.429.429,0,0,0-.21516.40068q.00718.22172.01431.44343c.45972.34652.91784.69507,1.38062,1.03756.08416.06228.19786.19413.26075-.02831a10.4672,10.4672,0,0,0,.52435-2.252C22.9117,6.65257,22.72524,6.54677,22.2054,6.771Z" style="fill:#2b282e"/><path d="M18.232,12.60677a.43829.43829,0,0,0-.49308.0193,1.98689,1.98689,0,0,0-.78,1.65426.65466.65466,0,0,0,.50017.54364.52366.52366,0,0,0,.56862-.299,2.47157,2.47157,0,0,0,.4568-1.29192A.63171.63171,0,0,0,18.232,12.60677Z" style="fill:#9f442f"/><path d="M18.87221,16.01773a.63843.63843,0,0,0,.11863.32427l.06943.00062a.67323.67323,0,0,0-.12989-.32441C18.911,16.01827,18.89153,16.01814,18.87221,16.01773Z" style="fill:#bb9195"/><path d="M18.85755,15.82783l.01466.1899c.01932.00041.03878.00054.05824.00048l-.02154-.25736Z" style="fill:#ba9ea0"/><path d="M18.99084,16.342c.007.05062.009.10375.06568.13029a.39534.39534,0,0,0,.06088.00122l-.05713-.13089Z" style="fill:#d2c3c4"/><path d="M19.05652,16.47229a.12913.12913,0,0,0,.06039.13123.18355.18355,0,0,1,.06275.017l.01328-.01808-.07554-.12892A.39534.39534,0,0,1,19.05652,16.47229Z" style="fill:#e8dfe0"/><path d="M18.80515,15.69038a.13551.13551,0,0,0,.0524.13745l.05122-.067-.03927-.06494Q18.83719,15.69458,18.80515,15.69038Z" style="fill:#9a8888"/><path d="M18.83156,15.56378l-.02419-.00156-.00222.12816q.032.0042.06435.00553l-.01362-.13308Z" style="fill:#baaeae"/><path d="M18.83135,15.43473l-.02287-.00082-.00111.12831.02419.00156.02432-.00095-.00167-.12871Z" style="fill:#d3cccc"/><path d="M18.80848,15.43391l.02287.00082.02286-.00061.01008-.128a.36811.36811,0,0,0-.05685-.00341Z" style="fill:#e3e1e1"/><path d="M19.1397,16.66362a.06024.06024,0,0,0,.04-.04311.18355.18355,0,0,0-.06275-.017Z" style="fill:#f1f1f1"/><path d="M22.16516,23.10587a.10889.10889,0,0,0-.00319.03192l.06887-.0015a.20215.20215,0,0,0,.0337-.26077C22.23132,22.95226,22.19769,23.02886,22.16516,23.10587Z" style="fill:#46393c"/><path d="M22.88848,28.69071a.32374.32374,0,0,0,.26784-.04918C23.06348,28.63921,22.96639,28.61473,22.88848,28.69071Z" style="fill:#555061"/><path d="M22.62558,29.10243c.06567-.02721.06407-.08014.05414-.13635A.14308.14308,0,0,0,22.62558,29.10243Z" style="fill:#6e4354"/><path d="M20.32726,14.67049a.76759.76759,0,0,1,.04392.1517c.0189.23479-.00681.4858-.2825.52919-.2841.04467-.33247-.20477-.37153-.4195q-.42636.187-.85286.3742l-.01008.128.00167.12871.01362.13308.03941.06494.02147.25736a.67323.67323,0,0,1,.12989.32441l.05713.13089.07554.12892a.84084.84084,0,0,0,1.51808-.24794,2.07726,2.07726,0,0,0-.02-1.83229Z" style="fill:#6ca5cf"/><path d="M20.32726,14.67049q-.305.13067-.61011.26139c.03906.21473.08743.46417.37153.4195.27569-.04339.3014-.2944.2825-.52919A.76759.76759,0,0,0,20.32726,14.67049Z" style="fill:#edeced"/><path d="M8.84581,19.44749a12.71451,12.71451,0,0,0,6.91935,2.17962v-.17155a2.339,2.339,0,0,1-1.05342-.332c-.15721-.0916-.34575-.19706-.31969-.41179.02766-.22782.25047-.24515.42636-.29262a3.27032,3.27032,0,0,1,.94675-.07026v-8.606a15.55982,15.55982,0,0,1-1.89614-.059,3.59154,3.59154,0,0,1-2.43043-1.29935,2.79587,2.79587,0,0,1-.62429-1.94784c-.45972.34652-.91784.69507-1.38061,1.03756-.08417.06228-.19786.19413-.26076-.02831a10.46779,10.46779,0,0,1-.52435-2.252c-.03-.544.15651-.64978.67634-.42557a6.866,6.866,0,0,1,1.28854.82419.42918.42918,0,0,1,.21523.40067c.08263-.078.049-.181.0615-.2742a9.44542,9.44542,0,0,1,.27549-1.49348A13.1337,13.1337,0,0,0,8.76506,4.59476,1.79514,1.79514,0,0,0,7.95494,4.363a.60792.60792,0,0,0-.69031.611,17.38084,17.38084,0,0,0,.09688,2.80668q.1401,1.36194.29835,2.722a.52134.52134,0,0,1-.13156.41322,7.57946,7.57946,0,0,0-1.22251,2.13132c-.08618.2328-.17812.242-.371.13376A26.686,26.686,0,0,0,2.92888,11.9994c-.284-.07871-.56639-.16391-.85286-.23321-.13468-.03261-.30078-.07729-.38723.07373-.07638.13336.04051.24038.11752.343a12.83023,12.83023,0,0,0,1.38159,1.5492c.72061.69187,1.44719,1.37773,2.16933,2.068.05184.04959.15081.09427.12252.17292-.03148.08731-.1351.03922-.20453.03963q-1.02034.00594-2.04069.00232a2.84982,2.84982,0,0,0-.70831.11609c-.098.02483-.20821.05335-.22906.15812-.02175.10948.08951.17346.16485.22005a6.91759,6.91759,0,0,0,.65681.35831c.93632.44712,1.91442.79472,2.887,1.15536q.62912.22764,1.2583.45537a1.9255,1.9255,0,0,1,1.10215.58136A2.552,2.552,0,0,0,8.84581,19.44749Zm4.2-6.217a.63172.63172,0,0,1,.25249-.62631.43826.43826,0,0,1,.49307.0193,1.98689,1.98689,0,0,1,.78,1.65426.65464.65464,0,0,1-.50016.54364.52365.52365,0,0,1-.56862-.299A2.47167,2.47167,0,0,1,13.04583,13.23047Zm-3.617.65537a1.66821,1.66821,0,0,1,.32816-.62515,1.3918,1.3918,0,0,1,2.38637-.00041,3.05141,3.05141,0,0,1,.5796,2.03985l-.00111.13117.001.1283.00223.1281a.13551.13551,0,0,1-.05226.13752l-.01481.1899a.63764.63764,0,0,1-.11856.32427c-.007.05061-.009.10375-.06567.13029a.12913.12913,0,0,1-.06039.13123l-.0228.0601A1.59627,1.59627,0,0,1,11.007,17.75225a1.508,1.508,0,0,1-1.43823-.9626A3.315,3.315,0,0,1,9.42882,13.88584Z" style="fill:#7b7286"/><path d="M14.06215,7.56071a6.45787,6.45787,0,0,1-.657-1.61653c-.06991-.28117-.16158-.25716-.36159-.12053a10.02929,10.02929,0,0,0-1.72344,1.544c-.12259.13383-.18827.35218-.43.35149a9.4449,9.4449,0,0,1,.27549-1.49354c.14066-.39467.28452-.78825.42135-1.18421a12.146,12.146,0,0,0,.94634-3.04269c.01466-.201.10584-.07271.15727-.02674a1.92391,1.92391,0,0,1,.6247,1.0746c.01335.066-.03683.175.0581.18744.0499.00655.12016-.07851.169-.13281q.39237-.43555.77808-.87692A12.11478,12.11478,0,0,0,15.76516,0V9.18433A3.37826,3.37826,0,0,1,14.06215,7.56071Z" style="fill:#ad4630"/><path d="M11.09521,30.37953a3.72715,3.72715,0,0,1-.36625,1.26238c-.23538.4607-.54687.47359-.8186.03874a6.14471,6.14471,0,0,1-.66369-1.53481A3.33212,3.33212,0,0,0,11.09521,30.37953Z" style="fill:#ad4630"/><path d="M8.64184,28.6881l.06672.00055a.309.309,0,0,1,.142.27489c-.00994.05614-.01154.10907.05414.13628l.07311.31043c-.03663.052-.07381.10368-.10981.1562-.39244.57236-.90713.53989-1.21035-.08731a3.96077,3.96077,0,0,1-.33421-1.16367,4.27218,4.27218,0,0,0,1.05051.32345A.32375.32375,0,0,0,8.64184,28.6881Z" style="fill:#ad4630"/><path d="M11.54624,28.0064a23.877,23.877,0,0,1-.451,2.37313,3.33212,3.33212,0,0,1-1.84854-.23369,1.327,1.327,0,0,1-.14643-.47229.28536.28536,0,0,0,.10557.03226.0786.0786,0,0,0,.06275-.02149.0786.0786,0,0,1-.06275.02149.28437.28437,0,0,1-.10557-.03233l-.12238-.26323-.07311-.31043a.14308.14308,0,0,0-.05414-.13635.309.309,0,0,0-.142-.27482L8.64184,28.688c-.0779-.07592-.175-.05143-.26784-.04911a4.27218,4.27218,0,0,1-1.05051-.32345q-.52684-1.9164-.92694-3.862c-.08194-.39467-.24956-1.49184-.27687-1.62833a15.92569,15.92569,0,0,1-.23942-3.65447c.01237-.38349.08208-.7652.12551-1.14772q.62912.22775,1.2583.45544a4.68369,4.68369,0,0,0,.48856,4.13734A6.09688,6.09688,0,0,0,9.50548,24.3256c.043.02906.12314.06971.14469.05321.06692-.05144-.00028-.1176-.01939-.1721a4.24745,4.24745,0,0,1-.33129-1.073l.06887.0015a6.42542,6.42542,0,0,0,3.24792,3.60052c.05705.02722.15539.07558.17443.05648.07179-.07224-.018-.12988-.05337-.18881a6.65607,6.65607,0,0,1-.70727-1.55726.61407.61407,0,0,1-.00479-.15538c.0736.00552.05782.07394.07763.11337a6.9626,6.9626,0,0,0,3.05888,3.046c.2021.10763.40232.21875.60337.3283v.06691a9.03578,9.03578,0,0,1-3.852-.6609C11.60955,27.659,11.58557,27.77094,11.54624,28.0064Z" style="fill:#666070"/><path d="M12.10291,25.0041c-.01981-.03943-.004-.10785-.07763-.11337a.61407.61407,0,0,0,.00479.15538,6.65607,6.65607,0,0,0,.70727,1.55726c.03537.05893.12516.11657.05337.18881-.019.0191-.11738-.02926-.17443-.05648a6.42542,6.42542,0,0,1-3.24792-3.60052.10885.10885,0,0,0-.0032-.03192c-.03252-.077-.06616-.15361-.09938-.23035a.20215.20215,0,0,0,.03371.26077,4.24745,4.24745,0,0,0,.33129,1.073c.01911.0545.08631.12066.01939.1721-.02155.0165-.10168-.02415-.14469-.05321a6.09688,6.09688,0,0,1-1.75285-1.70991,4.68369,4.68369,0,0,1-.48856-4.13734,1.9255,1.9255,0,0,1,1.10215.58136,2.552,2.552,0,0,0,.47959.38778,12.71516,12.71516,0,0,0,6.91935,2.17969v6.75118c-.20105-.10955-.40127-.22067-.60337-.3283A6.9626,6.9626,0,0,1,12.10291,25.0041Z" style="fill:#39353d"/><path d="M14.71174,21.12357c-.15721-.0916-.34575-.19706-.31969-.41179.02766-.22782.25047-.24515.42636-.29262a3.27032,3.27032,0,0,1,.94675-.07026v1.10666A2.339,2.339,0,0,1,14.71174,21.12357Z" style="fill:#39353d"/><path d="M11.43859,10.38451a2.79587,2.79587,0,0,1-.62429-1.94784q.00709-.22171.01432-.44344c.0827-.078.04906-.181.06157-.27414.24171.00069.30739-.21766.43-.35149a10.02929,10.02929,0,0,1,1.72344-1.544c.2-.13663.29168-.16064.36159.12053a6.45787,6.45787,0,0,0,.657,1.61653,3.37851,3.37851,0,0,0,1.703,1.62362v2.55853a15.55982,15.55982,0,0,1-1.89614-.059A3.59154,3.59154,0,0,1,11.43859,10.38451Z" style="fill:#8d8398"/><path d="M10.83932,14.51959a2.07726,2.07726,0,0,0-.02,1.83229.84084.84084,0,0,0,1.51808.24794l.01341.01821a.05984.05984,0,0,0,.03982.043A1.59627,1.59627,0,0,1,11.007,17.75225a1.508,1.508,0,0,1-1.43823-.9626,3.315,3.315,0,0,1-.1399-2.90381Z" style="fill:#f1f1f1"/><path d="M12.14335,13.26028A3.05045,3.05045,0,0,1,12.72282,15.3a.37664.37664,0,0,0-.05678.00348q-.42647-.18714-.85286-.3742-.305-.13077-.61011-.26139l-.36375-.14829-1.4105-.63375a1.66821,1.66821,0,0,1,.32816-.62515A1.3918,1.3918,0,0,1,12.14335,13.26028Z" style="fill:#ad4630"/><path d="M9.32492,6.76837a6.866,6.866,0,0,1,1.28854.82419.429.429,0,0,1,.21516.40067q-.0072.22173-.01432.44344c-.45972.34652-.91784.69507-1.38061,1.03756-.08417.06228-.19786.19413-.26076-.02831a10.46779,10.46779,0,0,1-.52435-2.252C8.61863,6.65,8.80509,6.54416,9.32492,6.76837Z" style="fill:#39353d"/><path d="M13.29832,12.60416a.43826.43826,0,0,1,.49307.0193,1.98689,1.98689,0,0,1,.78,1.65426.65464.65464,0,0,1-.50016.54364.52365.52365,0,0,1-.56862-.299,2.47167,2.47167,0,0,1-.45681-1.29192A.63172.63172,0,0,1,13.29832,12.60416Z" style="fill:#ad4630"/><path d="M12.65811,16.01512a.63837.63837,0,0,1-.11863.32427l-.06942.00062A.67331.67331,0,0,1,12.6,16.01559C12.61933,16.01566,12.63879,16.01553,12.65811,16.01512Z" style="fill:#bb9195"/><path d="M12.67278,15.82522l-.01467.1899c-.01932.00041-.03878.00054-.05823.00047l.02154-.25736Z" style="fill:#ba9ea0"/><path d="M12.53948,16.33939c-.007.05061-.009.10375-.06567.13029a.39536.39536,0,0,1-.06088.00122l.05713-.13089Z" style="fill:#d2c3c4"/><path d="M12.47381,16.46968a.12913.12913,0,0,1-.06039.13123.18344.18344,0,0,0-.06276.017l-.01327-.01808.07554-.12892A.39536.39536,0,0,0,12.47381,16.46968Z" style="fill:#e8dfe0"/><path d="M12.72518,15.68777a.13553.13553,0,0,1-.0524.13745l-.05122-.067.03926-.06493Q12.69315,15.692,12.72518,15.68777Z" style="fill:#9a8888"/><path d="M12.69877,15.56117l.02418-.00157.00223.12817q-.032.0042-.06436.00553l.01363-.13308Z" style="fill:#baaeae"/><path d="M12.699,15.43212l.02286-.00082.00111.1283-.02418.00157-.02432-.001.00166-.12872Z" style="fill:#d3cccc"/><path d="M12.72184,15.4313l-.02286.00082-.02287-.00062-.01007-.128a.368.368,0,0,1,.05684-.00341Z" style="fill:#e3e1e1"/><path d="M12.39062,16.661a.06024.06024,0,0,1-.04-.04311.18344.18344,0,0,1,.06276-.017Z" style="fill:#f1f1f1"/><path d="M9.36516,23.10326a.10885.10885,0,0,1,.0032.03192l-.06887-.0015a.20215.20215,0,0,1-.03371-.26077C9.299,22.94965,9.33264,23.02625,9.36516,23.10326Z" style="fill:#46393c"/><path d="M8.64184,28.6881a.32375.32375,0,0,1-.26784-.04918C8.46685,28.6366,8.56394,28.61211,8.64184,28.6881Z" style="fill:#555061"/><path d="M8.90475,29.09982c-.06568-.02721-.06408-.08014-.05414-.13635A.14308.14308,0,0,1,8.90475,29.09982Z" style="fill:#6e4354"/><path d="M11.20307,14.66788a.76763.76763,0,0,0-.04393.1517c-.0189.23479.00681.4858.28251.52918.2841.04468.33247-.20476.37153-.41949q.42636.187.85286.3742l.01007.128-.00166.12872-.01363.13308-.0394.06493L12.6,16.01559a.67331.67331,0,0,0-.12989.32442l-.05713.13089-.07554.12892a.84084.84084,0,0,1-1.51808-.24794,2.07726,2.07726,0,0,1,.02-1.83229Z" style="fill:#71b1e1"/><path d="M11.20307,14.66788q.305.13066.61011.26139c-.03906.21473-.08743.46417-.37153.41949-.2757-.04338-.30141-.29439-.28251-.52918A.76763.76763,0,0,1,11.20307,14.66788Z" style="fill:#edeced"/></svg>