<svg xmlns="http://www.w3.org/2000/svg" viewBox="0 0 32 32"><defs><style>.a{fill:#675445;}.b{fill:#493c2d;}.c{fill:#5e99c5;}.d{fill:#514334;}.e{fill:#191100;}.f{fill:#715c4d;}.g{fill:#f1f1f1;}.h{fill:#bb9195;}.i{fill:#ba9ea0;}.j{fill:#d2c3c4;}.k{fill:#e8dfe0;}.l{fill:#9a8888;}.m{fill:#baaeae;}.n{fill:#d3cccc;}.o{fill:#e3e1e1;}.p{fill:#46393c;}.q{fill:#555061;}.r{fill:#6e4354;}.s{fill:#8e3043;}.t{fill:#edeced;}.u{fill:#6c5849;}.v{fill:#65a9dc;}.w{fill:#574839;}.x{fill:#251c0c;}.y{fill:#776151;}.z{fill:#993147;}</style></defs><title>570-zorua-shiny</title><path class="a" d="M23.16411,19.08055a1.92545,1.92545,0,0,1,1.10214-.58136q.62911-.22776,1.2583-.45538c.97254-.36063,1.95063-.70824,2.887-1.15536a6.91657,6.91657,0,0,0,.65681-.35831c.07533-.04659.1866-.11057.16485-.22005-.02085-.10477-.13108-.13328-.22907-.15811a2.84936,2.84936,0,0,0-.7083-.1161q-1.02034.00246-2.0407-.00232c-.06943-.00041-.173.04768-.20453-.03963-.02828-.07864.07068-.12332.12253-.17291.72213-.6903,1.44872-1.37616,2.16933-2.068A12.83041,12.83041,0,0,0,29.724,12.20379c.077-.10266.19389-.20968.11752-.343-.08646-.151-.25255-.10634-.38724-.07374-.28646.0693-.56883.1545-.85286.23321-.18958-.005-.35276.25962-.562.05287-.01737.03888-.02425.09945-.05379.1133a4.02551,4.02551,0,0,1-1.28311.47318,5.44527,5.44527,0,0,1-1.107.54221c-.19285.10825-.2848.099-.371-.13377A7.5796,7.5796,0,0,0,24.002,10.9367a.52127.52127,0,0,1-.13156-.41322q.156-1.36029.29835-2.722a17.383,17.383,0,0,0,.09688-2.80667.60793.60793,0,0,0-.69031-.611,1.79526,1.79526,0,0,0-.81012.23178,13.13421,13.13421,0,0,0-2.40062,1.63079,9.4454,9.4454,0,0,1,.27548,1.49348c.01251.09318-.02112.19624.06151.27421a.42914.42914,0,0,1,.21523-.40067,6.866,6.866,0,0,1,1.28853-.8242c.51984-.22421.7063-.11841.67634.42557a10.46729,10.46729,0,0,1-.52435,2.252c-.06289.22243-.17659.09058-.26075.0283-.46278-.34248-.9209-.691-1.38062-1.03755a2.79578,2.79578,0,0,1-.62428,1.94783,3.59156,3.59156,0,0,1-2.43043,1.29935,15.558,15.558,0,0,1-1.89615.059v8.60605a3.26994,3.26994,0,0,1,.94675.07025c.1759.04748.3987.0648.42636.29263.02607.21473-.16248.32018-.31968.41179a2.33914,2.33914,0,0,1-1.05343.332v.17155a12.71456,12.71456,0,0,0,6.91935-2.17961A2.55288,2.55288,0,0,0,23.16411,19.08055Zm-5.13642-4.53733a.52366.52366,0,0,1-.56862.299.65466.65466,0,0,1-.50017-.54364,1.98688,1.98688,0,0,1,.78-1.65425A.43827.43827,0,0,1,18.232,12.625a.63172.63172,0,0,1,.25248.62632A2.47154,2.47154,0,0,1,18.02769,14.54322Zm3.93392,2.26727a1.508,1.508,0,0,1-1.43823.96259,1.59624,1.59624,0,0,1-1.38368-1.09124l-.02279-.06009a.12914.12914,0,0,1-.06039-.13124c-.05664-.02654-.05866-.07967-.06568-.13028a.63774.63774,0,0,1-.11856-.32428l-.0148-.1899a.13548.13548,0,0,1-.05226-.13751l.00222-.1281.001-.12831-.00111-.13117a3.05144,3.05144,0,0,1,.5796-2.03985,1.39181,1.39181,0,0,1,2.38637.00041,1.66834,1.66834,0,0,1,.32817.62516A3.315,3.315,0,0,1,21.96161,16.81049Z"/><path class="b" d="M29.72881,8.92591c-.1793-.26118-.3415-.24706-.47452.03752a2.5824,2.5824,0,0,0-.16978.52045c-.1909.83981-.25255,1.70357-.48307,2.53635.284-.07871.5664-.16391.85286-.23321.13469-.0326.30078-.07728.38724.07374.07637.13335-.04052.24037-.11752.343A12.83041,12.83041,0,0,1,28.34243,13.753c-.72061.69186-1.4472,1.37772-2.16933,2.068-.05185.04959-.15081.09427-.12253.17291.03149.08731.1351.03922.20453.03963q1.02035.00594,2.0407.00232a2.84936,2.84936,0,0,1,.7083.1161c.098.02483.20822.05334.22907.15811.02175.10948-.08952.17346-.16485.22005a6.91657,6.91657,0,0,1-.65681.35831c-.93633.44712-1.91442.79473-2.887,1.15529.04344.38253.11314.76424.12552,1.14772a15.92565,15.92565,0,0,1-.23942,3.65447c-.02731.13649-.1702.30081-.002.44835a3.73524,3.73524,0,0,0,1.17248-.63484,7.24767,7.24767,0,0,0,2.29707-3.02031,18.65159,18.65159,0,0,0,1.3795-9.13523A3.205,3.205,0,0,0,29.72881,8.92591Z"/><path class="c" d="M17.46817,7.58154A6.45772,6.45772,0,0,0,18.12512,5.965c.06992-.28117.16158-.25715.36159-.12053a10.02983,10.02983,0,0,1,1.72345,1.544c.12259.13383.18826.35217.43.35149a9.44479,9.44479,0,0,0-.27548-1.49355c-.14066-.39467-.28452-.78825-.42136-1.18421A12.14641,12.14641,0,0,1,18.997,2.01948c-.01467-.201-.10585-.07271-.15727-.02674a1.924,1.924,0,0,0-.62471,1.0746c-.01334.066.03684.175-.0581.18744-.04989.00655-.12015-.07851-.169-.1328q-.39239-.43557-.77808-.87692A12.11524,12.11524,0,0,1,15.76516.02083V9.20517A3.37824,3.37824,0,0,0,17.46817,7.58154Z"/><path class="b" d="M27.57609,9.96947c-.13906.00191-.16825.15593-.20633.26268a20.31886,20.31886,0,0,0-.66724,2.42743,4.02551,4.02551,0,0,0,1.28311-.47318c.02954-.01385.03642-.07442.05379-.1133a4.98036,4.98036,0,0,0-.25623-1.84456C27.74267,10.12165,27.71745,9.96749,27.57609,9.96947Z"/><path class="c" d="M20.43512,30.40036a3.72729,3.72729,0,0,0,.36624,1.26238c.23539.4607.54687.47359.8186.03875a6.14481,6.14481,0,0,0,.6637-1.53482A3.332,3.332,0,0,1,20.43512,30.40036Z"/><path class="c" d="M22.88848,28.70894l-.06671.00054a.309.309,0,0,0-.14205.27489c.00993.05614.01153.10907-.05414.13629l-.07311.31043c.03662.052.0738.10368.1098.1562.39245.57236.90714.53989,1.21035-.08731a3.96031,3.96031,0,0,0,.33421-1.16368,4.27237,4.27237,0,0,1-1.05051.32346A.32381.32381,0,0,1,22.88848,28.70894Z"/><path class="d" d="M19.98409,28.02724a23.87338,23.87338,0,0,0,.451,2.37312,3.332,3.332,0,0,0,1.84854-.23369,1.327,1.327,0,0,0,.14642-.47229.28507.28507,0,0,1-.10556.03226.07867.07867,0,0,1-.06276-.02148.07867.07867,0,0,0,.06276.02148.28409.28409,0,0,0,.10556-.03233l.12239-.26322.07311-.31043a.1431.1431,0,0,1,.05414-.13636.309.309,0,0,1,.14205-.27482l.06671-.00061c.07791-.07592.175-.05143.26784-.04911a4.27237,4.27237,0,0,0,1.05051-.32346q.52686-1.91638.927-3.862a3.11581,3.11581,0,0,1,.27485-1.18c-.16818-.14754-.02529-.31186.002-.44835a15.92565,15.92565,0,0,0,.23942-3.65447c-.01238-.38348-.08208-.76519-.12552-1.14772q-.62912.22776-1.2583.45545a4.68364,4.68364,0,0,1-.48856,4.13733,6.09672,6.09672,0,0,1-1.75284,1.70991c-.043.02906-.12315.06972-.14469.05321-.06693-.05143.00028-.1176.01939-.1721a4.24726,4.24726,0,0,0,.33129-1.073l-.06887.0015a6.42544,6.42544,0,0,1-3.24792,3.60051c-.05706.02722-.1554.07558-.17444.05648-.07179-.07223.018-.12987.05338-.18881a6.65615,6.65615,0,0,0,.70726-1.55725.61416.61416,0,0,0,.0048-.15539c-.0736.00553-.05782.07394-.07763.11337a6.96257,6.96257,0,0,1-3.05889,3.046c-.20209.10764-.40231.21875-.60337.3283v.06691a9.03587,9.03587,0,0,0,3.85205-.66089C19.92077,27.67984,19.94475,27.79177,19.98409,28.02724Z"/><path class="e" d="M19.42742,25.02493c.01981-.03943.004-.10784.07763-.11337a.61416.61416,0,0,1-.0048.15539A6.65615,6.65615,0,0,1,18.793,26.6242c-.03538.05894-.12517.11658-.05338.18881.019.0191.11738-.02926.17444-.05648A6.42544,6.42544,0,0,0,22.162,23.156a.109.109,0,0,1,.00319-.03193c.03253-.077.06616-.15361.09938-.23034a.20215.20215,0,0,1-.0337.26077,4.24726,4.24726,0,0,1-.33129,1.073c-.01911.0545-.08632.12067-.01939.1721.02154.01651.10167-.02415.14469-.05321a6.09672,6.09672,0,0,0,1.75284-1.70991,4.68364,4.68364,0,0,0,.48856-4.13733,1.92545,1.92545,0,0,0-1.10214.58136,2.55288,2.55288,0,0,1-.4796.38778A12.7152,12.7152,0,0,1,15.76516,21.648v6.75118c.20106-.10955.40128-.22066.60337-.3283A6.96257,6.96257,0,0,0,19.42742,25.02493Z"/><path class="e" d="M16.81859,21.14441c.1572-.09161.34575-.19706.31968-.41179-.02766-.22783-.25046-.24515-.42636-.29263a3.26994,3.26994,0,0,0-.94675-.07025v1.10665A2.33914,2.33914,0,0,0,16.81859,21.14441Z"/><path class="f" d="M20.09174,10.40534A2.79578,2.79578,0,0,0,20.716,8.45751q-.00708-.22173-.01431-.44344c-.0827-.078-.04907-.181-.06158-.27414-.24171.00068-.30738-.21766-.43-.35149a10.02983,10.02983,0,0,0-1.72345-1.544c-.2-.13662-.29167-.16064-.36159.12053a6.45772,6.45772,0,0,1-.65695,1.61653,3.37853,3.37853,0,0,1-1.703,1.62363v2.55852a15.558,15.558,0,0,0,1.89615-.059A3.59156,3.59156,0,0,0,20.09174,10.40534Z"/><path class="g" d="M20.691,14.54043a2.07724,2.07724,0,0,1,.02,1.83228.84084.84084,0,0,1-1.51808.24795l-.01341.01821a.05988.05988,0,0,1-.03983.043,1.59624,1.59624,0,0,0,1.38368,1.09124,1.508,1.508,0,0,0,1.43823-.96259,3.315,3.315,0,0,0,.1399-2.90381Z"/><path class="c" d="M19.387,13.28111a3.05043,3.05043,0,0,0-.57946,2.03972.37412.37412,0,0,1,.05678.00348q.42646-.18714.85286-.37421.305-.13076.61011-.26138l.36374-.14829,1.41051-.63375a1.66834,1.66834,0,0,0-.32817-.62516A1.39181,1.39181,0,0,0,19.387,13.28111Z"/><path class="e" d="M22.2054,6.7892a6.866,6.866,0,0,0-1.28853.8242.42894.42894,0,0,0-.21516.40067q.00718.22171.01431.44344c.45972.34651.91784.69507,1.38062,1.03755.08416.06228.19786.19413.26075-.0283a10.46729,10.46729,0,0,0,.52435-2.252C22.9117,6.67079,22.72524,6.565,22.2054,6.7892Z"/><path class="c" d="M18.232,12.625a.43827.43827,0,0,0-.49308.01931,1.98688,1.98688,0,0,0-.78,1.65425.65466.65466,0,0,0,.50017.54364.52366.52366,0,0,0,.56862-.299,2.47154,2.47154,0,0,0,.4568-1.29191A.63172.63172,0,0,0,18.232,12.625Z"/><path class="h" d="M18.87221,16.036a.63846.63846,0,0,0,.11863.32428l.06943.00061a.67323.67323,0,0,0-.12989-.32441C18.911,16.0365,18.89153,16.03636,18.87221,16.036Z"/><path class="i" d="M18.85755,15.84605l.01466.1899c.01932.00041.03878.00055.05824.00048l-.02154-.25736Z"/><path class="j" d="M18.99084,16.36023c.007.05061.009.10374.06568.13028a.39409.39409,0,0,0,.06088.00123l-.05713-.1309Z"/><path class="k" d="M19.05652,16.49051a.12914.12914,0,0,0,.06039.13124.18331.18331,0,0,1,.06275.017l.01328-.01807-.07554-.12892A.39409.39409,0,0,1,19.05652,16.49051Z"/><path class="l" d="M18.80515,15.70861a.13551.13551,0,0,0,.0524.13744l.05122-.067-.03927-.06494Q18.83719,15.7128,18.80515,15.70861Z"/><path class="m" d="M18.83156,15.582l-.02419-.00157-.00222.12817q.032.00418.06435.00552l-.01362-.13308Z"/><path class="n" d="M18.83135,15.453l-.02287-.00082-.00111.12831.02419.00157.02432-.001-.00167-.12871Z"/><path class="o" d="M18.80848,15.45213l.02287.00082.02286-.00061.01008-.128a.36564.36564,0,0,0-.05685-.00341Z"/><path class="g" d="M19.1397,16.68184a.06024.06024,0,0,0,.04-.04311.18331.18331,0,0,0-.06275-.017Z"/><path class="p" d="M22.16516,23.12409a.109.109,0,0,0-.00319.03193l.06887-.0015a.20215.20215,0,0,0,.0337-.26077C22.23132,22.97048,22.19769,23.04708,22.16516,23.12409Z"/><path class="q" d="M22.88848,28.70894a.32381.32381,0,0,0,.26784-.04918C23.06348,28.65744,22.96639,28.633,22.88848,28.70894Z"/><path class="r" d="M22.62558,29.12066c.06567-.02722.06407-.08015.05414-.13636A.1431.1431,0,0,0,22.62558,29.12066Z"/><path class="s" d="M20.32726,14.68872a.7672.7672,0,0,1,.04392.1517c.0189.23478-.00681.4858-.2825.52918-.2841.04468-.33247-.20477-.37153-.4195q-.42636.187-.85286.37421l-.01008.128.00167.12871.01362.13308.03941.06494.02147.25736a.67323.67323,0,0,1,.12989.32441l.05713.1309.07554.12892a.84084.84084,0,0,0,1.51808-.24795,2.07724,2.07724,0,0,0-.02-1.83228Z"/><path class="t" d="M20.32726,14.68872q-.305.13065-.61011.26138c.03906.21473.08743.46418.37153.4195.27569-.04338.3014-.2944.2825-.52918A.7672.7672,0,0,0,20.32726,14.68872Z"/><path class="u" d="M8.84581,19.46572a12.71458,12.71458,0,0,0,6.91935,2.17961v-.17155a2.3391,2.3391,0,0,1-1.05342-.332c-.15721-.09161-.34575-.19707-.31969-.41179.02766-.22783.25047-.24515.42636-.29263a3.27032,3.27032,0,0,1,.94675-.07026v-8.606a15.55781,15.55781,0,0,1-1.89614-.059,3.59154,3.59154,0,0,1-2.43043-1.29935A2.79584,2.79584,0,0,1,10.8143,8.4549c-.45972.34651-.91784.69507-1.38061,1.03755-.08417.06228-.19786.19413-.26076-.0283a10.46788,10.46788,0,0,1-.52435-2.252c-.03-.544.15651-.64978.67634-.42557a6.866,6.866,0,0,1,1.28854.8242.42917.42917,0,0,1,.21523.40067c.08263-.078.049-.181.0615-.27421a9.44542,9.44542,0,0,1,.27549-1.49348A13.13421,13.13421,0,0,0,8.76506,4.613a1.79526,1.79526,0,0,0-.81012-.23178.60792.60792,0,0,0-.69031.611,17.38075,17.38075,0,0,0,.09688,2.80667q.1401,1.36194.29835,2.722a.52134.52134,0,0,1-.13156.41322,7.5796,7.5796,0,0,0-1.22251,2.13132c-.08618.23281-.17812.242-.371.13376a26.68791,26.68791,0,0,0-3.00594-1.18155c-.284-.07871-.56639-.16391-.85286-.23321-.13468-.0326-.30078-.07728-.38723.07374-.07638.13335.04051.24037.11752.343A12.82956,12.82956,0,0,0,3.1879,13.75039c.72061.69186,1.44719,1.37772,2.16933,2.068.05184.04959.15081.09426.12252.17291-.03148.08731-.1351.03922-.20453.03963q-1.02034.00594-2.04069.00232a2.84937,2.84937,0,0,0-.70831.1161c-.098.02483-.20821.05334-.22906.15811-.02175.10948.08951.17346.16485.22a6.91535,6.91535,0,0,0,.65681.35831c.93632.44712,1.91442.79473,2.887,1.15536q.62912.22765,1.2583.45537a1.92552,1.92552,0,0,1,1.10215.58137A2.55281,2.55281,0,0,0,8.84581,19.46572Zm4.2-6.217a.63172.63172,0,0,1,.25249-.62632.43826.43826,0,0,1,.49307.01931,1.98686,1.98686,0,0,1,.78,1.65425.65464.65464,0,0,1-.50016.54364.52365.52365,0,0,1-.56862-.299A2.47167,2.47167,0,0,1,13.04583,13.2487Zm-3.617.65537a1.66832,1.66832,0,0,1,.32816-.62516,1.39181,1.39181,0,0,1,2.38637-.00041,3.05144,3.05144,0,0,1,.5796,2.03985l-.00111.13117.001.12831.00223.1281a.1355.1355,0,0,1-.05226.13751l-.01481.1899a.63768.63768,0,0,1-.11856.32428c-.007.05061-.009.10374-.06567.13028a.12915.12915,0,0,1-.06039.13124l-.0228.06009A1.59624,1.59624,0,0,1,11.007,17.77047a1.508,1.508,0,0,1-1.43823-.96259A3.315,3.315,0,0,1,9.42882,13.90407Z"/><path class="v" d="M14.06215,7.57893a6.45772,6.45772,0,0,1-.657-1.61653c-.06991-.28117-.16158-.25716-.36159-.12053a10.02977,10.02977,0,0,0-1.72344,1.544c-.12259.13383-.18827.35217-.43.35149a9.44481,9.44481,0,0,1,.27549-1.49355c.14066-.39467.28452-.78825.42135-1.18421a12.146,12.146,0,0,0,.94634-3.04269c.01466-.201.10584-.07271.15727-.02674a1.92391,1.92391,0,0,1,.6247,1.0746c.01335.066-.03683.175.0581.18744.0499.00655.12016-.07851.169-.1328q.39237-.43557.77808-.87692A12.11519,12.11519,0,0,0,15.76516.01822V9.20256A3.37828,3.37828,0,0,1,14.06215,7.57893Z"/><path class="v" d="M11.09521,30.39775a3.72708,3.72708,0,0,1-.36625,1.26238c-.23538.4607-.54687.47359-.8186.03875a6.14478,6.14478,0,0,1-.66369-1.53482A3.332,3.332,0,0,0,11.09521,30.39775Z"/><path class="v" d="M8.64184,28.70632l.06672.00055a.309.309,0,0,1,.142.27489c-.00994.05614-.01154.10907.05414.13629l.07311.31042c-.03663.052-.07381.10368-.10981.15621-.39244.57236-.90713.53989-1.21035-.08731a3.96092,3.96092,0,0,1-.33421-1.16368,4.27218,4.27218,0,0,0,1.05051.32345A.32375.32375,0,0,0,8.64184,28.70632Z"/><path class="w" d="M11.54624,28.02462a23.8759,23.8759,0,0,1-.451,2.37313,3.332,3.332,0,0,1-1.84854-.23369,1.327,1.327,0,0,1-.14643-.47229.28536.28536,0,0,0,.10557.03226.07863.07863,0,0,0,.06275-.02148.07863.07863,0,0,1-.06275.02148.28437.28437,0,0,1-.10557-.03233l-.12238-.26323-.07311-.31042a.1431.1431,0,0,0-.05414-.13636.309.309,0,0,0-.142-.27482l-.06672-.00061c-.0779-.07592-.175-.05143-.26784-.04912a4.27218,4.27218,0,0,1-1.05051-.32345q-.52684-1.91639-.92694-3.862c-.08194-.39467-.24956-1.49184-.27687-1.62833a15.92565,15.92565,0,0,1-.23942-3.65447c.01237-.38348.08208-.76519.12551-1.14772q.62912.22776,1.2583.45544a4.68369,4.68369,0,0,0,.48856,4.13734,6.09688,6.09688,0,0,0,1.75285,1.70991c.043.02906.12314.06972.14469.05321.06692-.05143-.00028-.1176-.01939-.1721a4.24726,4.24726,0,0,1-.33129-1.073l.06887.0015a6.42544,6.42544,0,0,0,3.24792,3.60051c.05705.02722.15539.07558.17443.05648.07179-.07223-.018-.12987-.05337-.18881a6.65618,6.65618,0,0,1-.70727-1.55725.61417.61417,0,0,1-.00479-.15539c.0736.00553.05782.07394.07763.11337a6.96255,6.96255,0,0,0,3.05888,3.046c.2021.10764.40232.21875.60337.3283v.06691a9.03592,9.03592,0,0,1-3.852-.66089C11.60955,27.67723,11.58557,27.78916,11.54624,28.02462Z"/><path class="x" d="M12.10291,25.02232c-.01981-.03943-.004-.10784-.07763-.11337a.61417.61417,0,0,0,.00479.15539,6.65618,6.65618,0,0,0,.70727,1.55725c.03537.05894.12516.11658.05337.18881-.019.0191-.11738-.02926-.17443-.05648a6.42544,6.42544,0,0,1-3.24792-3.60051.10892.10892,0,0,0-.0032-.03193c-.03252-.077-.06616-.15361-.09938-.23035a.20217.20217,0,0,0,.03371.26078,4.24726,4.24726,0,0,0,.33129,1.073c.01911.0545.08631.12067.01939.1721-.02155.01651-.10168-.02415-.14469-.05321a6.09688,6.09688,0,0,1-1.75285-1.70991,4.68369,4.68369,0,0,1-.48856-4.13734,1.92552,1.92552,0,0,1,1.10215.58137,2.55281,2.55281,0,0,0,.47959.38778,12.71523,12.71523,0,0,0,6.91935,2.17968v6.75118c-.20105-.10955-.40127-.22066-.60337-.3283A6.96255,6.96255,0,0,1,12.10291,25.02232Z"/><path class="x" d="M14.71174,21.1418c-.15721-.09161-.34575-.19707-.31969-.41179.02766-.22783.25047-.24515.42636-.29263a3.27032,3.27032,0,0,1,.94675-.07026v1.10666A2.3391,2.3391,0,0,1,14.71174,21.1418Z"/><path class="y" d="M11.43859,10.40273A2.79584,2.79584,0,0,1,10.8143,8.4549q.00709-.22173.01432-.44344c.0827-.078.04906-.181.06157-.27414.24171.00068.30739-.21766.43-.35149a10.02977,10.02977,0,0,1,1.72344-1.544c.2-.13663.29168-.16064.36159.12053a6.45772,6.45772,0,0,0,.657,1.61653,3.37856,3.37856,0,0,0,1.703,1.62363v2.55852a15.55781,15.55781,0,0,1-1.89614-.059A3.59154,3.59154,0,0,1,11.43859,10.40273Z"/><path class="g" d="M10.83932,14.53781a2.07726,2.07726,0,0,0-.02,1.83229.84084.84084,0,0,0,1.51808.24794l.01341.01822a.05984.05984,0,0,0,.03982.043A1.59624,1.59624,0,0,1,11.007,17.77047a1.508,1.508,0,0,1-1.43823-.96259,3.315,3.315,0,0,1-.1399-2.90381Z"/><path class="v" d="M12.14335,13.2785a3.05049,3.05049,0,0,1,.57947,2.03972.374.374,0,0,0-.05678.00348q-.42647-.18714-.85286-.37421-.305-.13076-.61011-.26138l-.36375-.1483-1.4105-.63374a1.66832,1.66832,0,0,1,.32816-.62516A1.39181,1.39181,0,0,1,12.14335,13.2785Z"/><path class="x" d="M9.32492,6.78659a6.866,6.866,0,0,1,1.28854.8242.429.429,0,0,1,.21516.40067q-.0072.22171-.01432.44344c-.45972.34651-.91784.69507-1.38061,1.03755-.08417.06228-.19786.19413-.26076-.0283a10.46788,10.46788,0,0,1-.52435-2.252C8.61863,6.66818,8.80509,6.56238,9.32492,6.78659Z"/><path class="v" d="M13.29832,12.62238a.43826.43826,0,0,1,.49307.01931,1.98686,1.98686,0,0,1,.78,1.65425.65464.65464,0,0,1-.50016.54364.52365.52365,0,0,1-.56862-.299,2.47167,2.47167,0,0,1-.45681-1.29191A.63172.63172,0,0,1,13.29832,12.62238Z"/><path class="h" d="M12.65811,16.03334a.6384.6384,0,0,1-.11863.32428l-.06942.00061A.67323.67323,0,0,1,12.6,16.03382C12.61933,16.03389,12.63879,16.03375,12.65811,16.03334Z"/><path class="i" d="M12.67278,15.84344l-.01467.1899c-.01932.00041-.03878.00055-.05823.00048l.02154-.25736Z"/><path class="j" d="M12.53948,16.35762c-.007.05061-.009.10374-.06567.13028a.39411.39411,0,0,1-.06088.00123l.05713-.1309Z"/><path class="k" d="M12.47381,16.4879a.12915.12915,0,0,1-.06039.13124.18342.18342,0,0,0-.06276.017l-.01327-.01808.07554-.12891A.39411.39411,0,0,0,12.47381,16.4879Z"/><path class="l" d="M12.72518,15.706a.13552.13552,0,0,1-.0524.13744l-.05122-.067.03926-.06494Q12.69315,15.71019,12.72518,15.706Z"/><path class="m" d="M12.69877,15.5794l.02418-.00157.00223.12817q-.032.00419-.06436.00552l.01363-.13308Z"/><path class="n" d="M12.699,15.45034l.02286-.00082.00111.12831-.02418.00157-.02432-.001.00166-.12871Z"/><path class="o" d="M12.72184,15.44952l-.02286.00082-.02287-.00061-.01007-.128a.36675.36675,0,0,1,.05684-.00342Z"/><path class="g" d="M12.39062,16.67923a.06024.06024,0,0,1-.04-.04311.18342.18342,0,0,1,.06276-.017Z"/><path class="p" d="M9.36516,23.12148a.10892.10892,0,0,1,.0032.03193l-.06887-.0015a.20217.20217,0,0,1-.03371-.26078C9.299,22.96787,9.33264,23.04447,9.36516,23.12148Z"/><path class="q" d="M8.64184,28.70632a.32375.32375,0,0,1-.26784-.04918C8.46685,28.65483,8.56394,28.63034,8.64184,28.70632Z"/><path class="r" d="M8.90475,29.11805c-.06568-.02722-.06408-.08015-.05414-.13636A.1431.1431,0,0,1,8.90475,29.11805Z"/><path class="z" d="M11.20307,14.68611a.76724.76724,0,0,0-.04393.1517c-.0189.23478.00681.48579.28251.52918.2841.04468.33247-.20477.37153-.4195q.42636.187.85286.37421l.01007.128-.00166.12871-.01363.13308-.0394.06494L12.6,16.03382a.67323.67323,0,0,0-.12989.32441l-.05713.1309-.07554.12891a.84084.84084,0,0,1-1.51808-.24794,2.07726,2.07726,0,0,1,.02-1.83229Z"/><path class="t" d="M11.20307,14.68611q.305.13065.61011.26138c-.03906.21473-.08743.46418-.37153.4195-.2757-.04339-.30141-.2944-.28251-.52918A.76724.76724,0,0,1,11.20307,14.68611Z"/></svg>