<svg xmlns="http://www.w3.org/2000/svg" viewBox="0 0 32 32"><title>572-minccino</title><rect x="8.73195" y="13.62614" width="10.92235" height="2.37386" style="fill:#fff"/><path d="M27.1983,4.6214a11.48013,11.48013,0,0,0-.29669-1.53388l-1.10705.15815-.55939-.55945-.74506.33569-.65344-.55945-1.03552.27973-.53076-.44751h-1.3758l-.33331-.17041a9.01119,9.01119,0,0,0-1.11121,1.23736,11.64657,11.64657,0,0,0-1.85113,3.97852c-.04175.16046-.05939.2287-.25208.12958a2.373,2.373,0,0,0-1.46515-.29621l-.82806.19568V18.00336a.22844.22844,0,0,1,.23468.145c-.01025.17529-.12048.21582-.23468.2279v2.622c.22479-.069.30682-.01141.57538.29242a17.11344,17.11344,0,0,0,3.40991-.404c.06378-.02014.127-.04273.19153-.06037a6.7557,6.7557,0,0,0,3.32867-1.802,4.14615,4.14615,0,0,0,1.02716-3.42071,6.8748,6.8748,0,0,0-.75927-2.46473.18525.18525,0,0,1,.06994-.285c.30042-.207.59687-.42065.886-.64325a9.37835,9.37835,0,0,0,2.60034-3.0094A7.55345,7.55345,0,0,0,27.1983,4.6214ZM20.44611,17.09033a2.10606,2.10606,0,0,1-1.80854.1416.80548.80548,0,0,1-.58667-.83288c.00782-.19208.00129-.38458.00129-.57691A5.16,5.16,0,0,1,18.2348,14.196c.23157-.76043.62232-.936,1.35193-.62176a1.62145,1.62145,0,0,1,.83087.84326,5.97064,5.97064,0,0,1,.47144,1.8924A.76581.76581,0,0,1,20.44611,17.09033Zm3.426-7.2381c-.036.03919-.04773.12177-.12.09821-.02082-.00678-.02124-.0838-.02637-.12921a.55439.55439,0,0,0-.6-.56195,3.30284,3.30284,0,0,0-1.393.32416c-.07349.02838-.16687.11407-.23468.03918-.06671-.07367.02362-.15955.05536-.23547a6.22608,6.22608,0,0,0,.53534-2.02625A1.5568,1.5568,0,0,0,20.85229,5.523c-.2373-.0495-.12146-.117-.0379-.19891a4.69652,4.69652,0,0,1,2.01068-1.08747,7.46951,7.46951,0,0,1,.92688-.20678c.1352-.0224.21222-.01123.28131.11493A6.24565,6.24565,0,0,1,24.891,7.14789,3.93766,3.93766,0,0,1,23.87213,9.85223Z" style="fill:#cacccd"/><path d="M22.27039,2.29468l.53076.44751,1.03552-.27973.65344.55945.74506-.33569.55939.55945,1.10705-.15815a9.14748,9.14748,0,0,0-.768-2.00634A1.74126,1.74126,0,0,0,24.466.00171a2.9184,2.9184,0,0,0-.88.25293,8.642,8.642,0,0,0-3.02472,1.86963l.33331.17041Z" style="fill:#e3e5e5"/><path d="M14.87443,3.99251a2.701,2.701,0,0,0-.94082,1.44721,6.85923,6.85923,0,0,0-.22213,1.99568c.00078.08925.05387.21916-.03841.26012l1.38056-.32628V3.86994C14.99475,3.9123,14.934,3.95128,14.87443,3.99251Z" style="fill:#d1d4d4"/><path d="M15.681,6.94589a11.7652,11.7652,0,0,1,.05288-1.86266,8.91017,8.91017,0,0,0,.00381-1.12666c-.01292-.29019-.20482-.38438-.45985-.24a2.49449,2.49449,0,0,0-.22425.15336v3.4993l.82807-.19572C15.69417,7.20219,15.69163,7.0852,15.681,6.94589Z" style="fill:#cacccd"/><path d="M28.592,24.37152a.40577.40577,0,0,1-.16974-.50549,20.767,20.767,0,0,0,.66736-4.259,13.7544,13.7544,0,0,0-.1026-2.60175l-.6192.36676-.39154-.46521-.3916.46521-.32227-.46521-.86633.6272a12.358,12.358,0,0,1-1.10993,4.09552,11.67507,11.67507,0,0,1-1.79077,2.67676,1.39363,1.39363,0,0,0,.005.20043.80732.80732,0,0,1-.7121,1.07819,6.65675,6.65675,0,0,0-.81061.15576,20.02071,20.02071,0,0,1-1.77978,1.17285,1.05541,1.05541,0,0,0,.01587.55787,4.33352,4.33352,0,0,1-.3169,2.40545c-.02838.063-.10858.11969-.0473.20532a.43974.43974,0,0,0,.32239-.34185c.02111-.33728.1715-.23383.35974-.16016a6.44592,6.44592,0,0,0,2.63092.55756c.954-.04065,1.35229-.65589.94348-1.4751-.10346-.2074.05524-.17981.14337-.2063a21.182,21.182,0,0,0,2.04865-.6897,6.736,6.736,0,0,0,2.43829-1.44647A1.22185,1.22185,0,0,0,28.592,24.37152Z" style="fill:#b9bfbe"/><path d="M27.58466,17.37207l.3916-.46521.39154.46521.6192-.36676a9.76436,9.76436,0,0,0-.35687-1.64679,4.12894,4.12894,0,0,0-1.11029-1.92743c-.35041-.31091-.63214-.24884-.78351.18414a6.88143,6.88143,0,0,0-.29273,1.95807c-.03228.6529.01838,1.30573-.04754,1.96076l.86633-.6272Z" style="fill:#e3e5e5"/><path d="M23.752,4.02986a7.47055,7.47055,0,0,0-.92685.20681,4.69662,4.69662,0,0,0-2.01072,1.08747c-.08353.0819-.19939.1494.03792.1989a1.55673,1.55673,0,0,1,1.23645,1.83787,6.22625,6.22625,0,0,1-.53534,2.02626c-.03177.0759-.12207.16183-.05535.23547.06778.07491.16119-.01081.23469-.03919a3.30321,3.30321,0,0,1,1.393-.32415.55436.55436,0,0,1,.6.56195c.00516.0454.00558.12243.02641.12921.07223.02358.084-.059.12-.09821A3.93739,3.93739,0,0,0,24.891,7.14789a6.24545,6.24545,0,0,0-.85772-3.00308C23.96419,4.01863,23.88716,4.00748,23.752,4.02986Z" style="fill:#d58f98"/><path d="M19.58675,13.57425c-.72964-.3142-1.12037-.13867-1.352.62175a5.15948,5.15948,0,0,0-.18259,1.62613c0,.19233.0065.38488-.00127.57692a.8054.8054,0,0,0,.58667.83287,2.106,2.106,0,0,0,1.8085-.14156.76578.76578,0,0,0,.44291-.78048,5.96925,5.96925,0,0,0-.47144-1.89239A1.62132,1.62132,0,0,0,19.58675,13.57425Zm-.55214,1.80589a.28025.28025,0,0,1-.51-.00184,1.24931,1.24931,0,0,1-.17179-.59718,1.224,1.224,0,0,1,.18075-.60206.2768.2768,0,0,1,.49417.00085A1.18431,1.18431,0,0,1,19.03461,15.38014Z" style="fill:#4f4032"/><path d="M15.28833,18.14832a.22844.22844,0,0,0-.2347-.14495v.37287C15.16787,18.36416,15.27809,18.32363,15.28833,18.14832Z" style="fill:#453d3a"/><path d="M17.60682,31.38886a3.07368,3.07368,0,0,0,2.22494.59422,1.7226,1.7226,0,0,0,1.05245-.41431.4489.4489,0,0,0,.09369-.62,1.92023,1.92023,0,0,0-.90156-.68494c-.08989-.04364-.21754-.038-.22679-.1816-.06129-.08565.01892-.14235.0473-.20533a4.33364,4.33364,0,0,0,.31688-2.40547,1.05522,1.05522,0,0,1-.01588-.55779c-.16833-.19226-.12222-.45576-.22248-.672a1.569,1.569,0,0,1-.08656-.30325,1.84887,1.84887,0,0,1-.15449-.56782c.18682.03142.37718.0495.55991.09695a13.533,13.533,0,0,0,1.561.21386c.04893.00678.09483.01208.12251.05931a6.65381,6.65381,0,0,1,.81055-.15576.8073.8073,0,0,0,.71214-1.07815,1.39117,1.39117,0,0,1-.005-.20045c-.02323-.01638-.05606-.02768-.06827-.05013A6.52075,6.52075,0,0,0,21.1254,22.097c-.66843-.45152-1.39172-.80575-2.08648-1.2104a17.11406,17.11406,0,0,1-3.40992.404c-.26851-.30382-.35056-.36136-.57537-.29238V31.41068c.71623-.01688,1.43189-.04236,2.14579-.10753A.52962.52962,0,0,1,17.60682,31.38886Z" style="fill:#c1c5c4"/><path d="M15.48362,23.84016c.0627.02344.02874.1213.0269.18442a2.29677,2.29677,0,0,0,.15767.92847c.03975.09984.09885.19989.22029.20236a.276.276,0,0,0,.24112-.17793,2.13636,2.13636,0,0,0,.205-.8287,4.04235,4.04235,0,0,0-.70564-2.85814c-.26851-.30382-.35056-.36136-.57537-.29238v3.24237a3.51437,3.51437,0,0,0,.273-.2678C15.37284,23.91775,15.39205,23.80605,15.48362,23.84016Z" style="fill:#cacccd"/><path d="M3.724,9.20118a9.37824,9.37824,0,0,0,2.60035,3.00939c.28912.2226.58557.43628.886.64325a.18526.18526,0,0,1,.07.285A6.87477,6.87477,0,0,0,6.521,15.60352a4.14621,4.14621,0,0,0,1.02716,3.42071,6.75582,6.75582,0,0,0,3.32868,1.802c.06451.01764.12774.04022.19152.06036a17.11346,17.11346,0,0,0,3.40992.404c.26855-.30383.35058-.36139.57537-.29242v-2.622c-.11419-.01208-.22442-.05261-.23468-.2279a.22845.22845,0,0,1,.23468-.145V7.36921l-.82806-.19568a2.373,2.373,0,0,0-1.46515.2962c-.19269.09912-.21033.03088-.25207-.12958a11.64674,11.64674,0,0,0-1.85114-3.97851A9.01069,9.01069,0,0,0,9.546,2.12427l-.33331.17041H7.83688l-.53076.44751L6.27059,2.46247l-.65344.55945-.745-.3357-.55939.55945L3.20565,3.08753A11.48126,11.48126,0,0,0,2.909,4.6214,7.55364,7.55364,0,0,0,3.724,9.20118Zm5.49427,7.1087a5.9707,5.9707,0,0,1,.47143-1.8924,1.62152,1.62152,0,0,1,.83087-.84326c.72962-.31421,1.12036-.13867,1.35193.62177a5.15962,5.15962,0,0,1,.18262,1.62616c0,.19232-.00653.38482.00128.5769a.80548.80548,0,0,1-.58667.83289,2.10611,2.10611,0,0,1-1.80853-.1416A.76581.76581,0,0,1,9.21823,16.30988Zm-4.002-9.162A6.24579,6.24579,0,0,1,6.074,4.14478c.06909-.12616.14612-.13733.28131-.11493a7.46734,7.46734,0,0,1,.92688.20679A4.69651,4.69651,0,0,1,9.29287,5.3241c.08356.08191.1994.14941-.0379.19891A1.55678,1.55678,0,0,0,8.01852,7.3609a6.22583,6.22583,0,0,0,.53534,2.02625c.03174.07593.12207.1618.05536.23547-.06781.07489-.1612-.0108-.23468-.03918a3.303,3.303,0,0,0-1.393-.32416.55438.55438,0,0,0-.6.56195c-.00513.04541-.00556.12244-.02637.12921-.07227.02356-.084-.059-.12-.0982A3.93769,3.93769,0,0,1,5.21627,7.14789Z" style="fill:#d1d4d4"/><path d="M7.83688,2.29468l-.53076.44751L6.27059,2.46247l-.65344.55945-.745-.3357-.55939.55945L3.20565,3.08753a9.14708,9.14708,0,0,1,.768-2.00635A1.74127,1.74127,0,0,1,5.64126.00171a2.91866,2.91866,0,0,1,.88.25293A8.64208,8.64208,0,0,1,9.546,2.12427l-.33331.17041Z" style="fill:#e3e5e5"/><path d="M6.35532,4.02986a7.4718,7.4718,0,0,1,.92684.20681A4.69667,4.69667,0,0,1,9.29288,5.32414c.08353.08191.19939.14941-.03791.1989A1.55675,1.55675,0,0,0,8.01851,7.36092a6.22626,6.22626,0,0,0,.53534,2.02625c.03177.0759.12208.16183.05535.23547-.06778.07491-.16119-.0108-.23469-.03919a3.30336,3.30336,0,0,0-1.393-.32415.55437.55437,0,0,0-.6.562c-.00515.0454-.00557.12243-.0264.1292-.07223.02359-.08395-.059-.12-.09821A3.93732,3.93732,0,0,1,5.2163,7.1479,6.24557,6.24557,0,0,1,6.074,4.14481C6.14308,4.01864,6.22011,4.00748,6.35532,4.02986Z" style="fill:#e2959e"/><path d="M9.68969,14.4175a5.96966,5.96966,0,0,0-.47144,1.89238.7658.7658,0,0,0,.44291.78048,2.106,2.106,0,0,0,1.80851.14157.80541.80541,0,0,0,.58666-.83287c-.00776-.192-.00127-.38459-.00127-.57692a5.15969,5.15969,0,0,0-.18258-1.62613c-.23159-.76043-.62233-.936-1.352-.62176A1.62134,1.62134,0,0,0,9.68969,14.4175Zm1.38981-.23759a.2768.2768,0,0,1,.49417-.00085,1.22394,1.22394,0,0,1,.18075.60206,1.2493,1.2493,0,0,1-.17178.59719.28026.28026,0,0,1-.51.00183A1.18436,1.18436,0,0,1,11.0795,14.17991Z" style="fill:#4f4032"/><path d="M14.81894,18.14832a.22843.22843,0,0,1,.23469-.14495v.37287C14.93939,18.36417,14.82918,18.32364,14.81894,18.14832Z" style="fill:#453d3a"/><path d="M12.50045,31.38887a3.07378,3.07378,0,0,1-2.22494.59422,1.72264,1.72264,0,0,1-1.05246-.41432.4489.4489,0,0,1-.09369-.62,1.92021,1.92021,0,0,1,.90157-.685c.08988-.04364.21754-.038.22679-.1816.06128-.08564-.01893-.14234-.04731-.20532a4.33377,4.33377,0,0,1-.31688-2.40548,1.05522,1.05522,0,0,0,.01589-.55779c.16832-.19226.12221-.45576.22248-.672a1.57041,1.57041,0,0,0,.08656-.30325,1.84907,1.84907,0,0,0,.15448-.56781c-.18682.03142-.37717.04949-.5599.09694a13.53349,13.53349,0,0,1-1.561.21386c-.04893.00678-.09482.01208-.1225.05931A6.65585,6.65585,0,0,0,7.319,25.585a.8073.8073,0,0,1-.71213-1.07816,1.39258,1.39258,0,0,0,.005-.20045c.02323-.01638.05606-.02768.06828-.05013A6.52069,6.52069,0,0,1,8.98186,22.097c.66843-.45153,1.39172-.80576,2.08648-1.2104a17.11479,17.11479,0,0,0,3.40992.404c.26852-.30382.35056-.36137.57537-.29238V31.41068c-.71623-.01687-1.43189-.04236-2.14579-.10753A.52955.52955,0,0,0,12.50045,31.38887Z" style="fill:#c8cccb"/><path d="M14.87606,21.06018a4.90311,4.90311,0,0,0-.69328.23279,2.13415,2.13415,0,0,0-.94874.847c-.17369.38636-.02789.63277.39886.65742a2.73654,2.73654,0,0,0,.98728-.1636c.0502-.01581.092-.07639.15512-.03325a1.42807,1.42807,0,0,1-.10146.13485c-.08585.091-.17856.1756-.26421.26675a3.98585,3.98585,0,0,0-1.00924,1.8155c-.03092.12843-.05147.24825.06072.34512a.30671.30671,0,0,0,.35254.017,3.005,3.005,0,0,0,1.06241-.76488,1.59679,1.59679,0,0,0,.17757-.17426V20.99826C15.00117,21.01436,14.94942,21.031,14.87606,21.06018Z" style="fill:#d1d4d4"/></svg>