<svg xmlns="http://www.w3.org/2000/svg" viewBox="0 0 32 32"><title>572-minccino-shiny</title><rect x="8.88724" y="13.62614" width="10.92235" height="2.37386" style="fill:#fff"/><path d="M27.35359,4.6214a11.48126,11.48126,0,0,0-.29669-1.53387l-1.10706.15814-.55939-.55945-.74505.33569L23.992,2.46247l-1.03553.27972-.53076-.44751H21.04988l-.33332-.17041a9.01127,9.01127,0,0,0-1.1112,1.23737,11.64674,11.64674,0,0,0-1.85114,3.97851c-.04174.16046-.05938.2287-.25207.12958A2.373,2.373,0,0,0,16.037,7.17352l-.82806.19568V18.00336a.22845.22845,0,0,1,.23468.145c-.01026.17529-.12049.21582-.23468.2279v2.622c.22479-.069.30682-.01141.57537.29242a17.11346,17.11346,0,0,0,3.40992-.404c.06378-.02014.127-.04273.19152-.06037a6.75573,6.75573,0,0,0,3.32868-1.802,4.14621,4.14621,0,0,0,1.02716-3.42071,6.87471,6.87471,0,0,0-.75928-2.46472.18526.18526,0,0,1,.07-.285c.30041-.207.59686-.42065.886-.64325a9.37828,9.37828,0,0,0,2.60035-3.0094A7.5536,7.5536,0,0,0,27.35359,4.6214Zm-6.7522,12.46893a2.10608,2.10608,0,0,1-1.80853.14161.80549.80549,0,0,1-.58667-.83289c.00781-.19208.00128-.38458.00128-.5769a5.15962,5.15962,0,0,1,.18262-1.62616c.23157-.76044.62231-.936,1.35193-.62177a1.62148,1.62148,0,0,1,.83087.84326,5.97063,5.97063,0,0,1,.47143,1.8924A.76579.76579,0,0,1,20.60139,17.09033Zm3.426-7.23809c-.036.03918-.04773.12176-.12.0982-.02081-.00677-.02124-.0838-.02637-.12921a.55438.55438,0,0,0-.6-.56195,3.30289,3.30289,0,0,0-1.393.32416c-.07348.02838-.16687.11407-.23468.03918-.06671-.07367.02362-.15954.05536-.23547A6.22583,6.22583,0,0,0,22.244,7.3609,1.55678,1.55678,0,0,0,21.00758,5.523c-.2373-.0495-.12146-.117-.0379-.19891a4.6964,4.6964,0,0,1,2.01068-1.08746,7.46734,7.46734,0,0,1,.92688-.20679c.13519-.0224.21222-.01123.28131.11493a6.24576,6.24576,0,0,1,.85773,3.00311A3.93771,3.93771,0,0,1,24.02742,9.85224Z" style="fill:#e9c7d0"/><path d="M22.42567,2.29468l.53076.44751L23.992,2.46247l.65344.55944.74505-.33569.55939.55945,1.10706-.15814a9.14689,9.14689,0,0,0-.768-2.00635A1.74125,1.74125,0,0,0,24.62129.00171a2.91838,2.91838,0,0,0-.88.25293,8.64221,8.64221,0,0,0-3.02472,1.86963l.33332.17041Z" style="fill:#edeeee"/><path d="M15.02972,3.99251a2.701,2.701,0,0,0-.94083,1.44721,6.85892,6.85892,0,0,0-.22212,1.99568c.00077.08925.05387.21917-.03841.26012l1.38056-.32627V3.86994C15.15,3.9123,15.08924,3.95128,15.02972,3.99251Z" style="fill:#fbcfd6"/><path d="M15.83632,6.94589a11.76639,11.76639,0,0,1,.05289-1.86266A8.91391,8.91391,0,0,0,15.893,3.95657c-.01292-.29019-.20483-.38438-.45986-.24a2.49577,2.49577,0,0,0-.22424.15336V7.36925l.82807-.19572C15.84946,7.20219,15.84691,7.0852,15.83632,6.94589Z" style="fill:#e9c7d0"/><path d="M28.74727,24.37152a.40577.40577,0,0,1-.16974-.50549,20.76686,20.76686,0,0,0,.66736-4.259,13.75607,13.75607,0,0,0-.1026-2.60175l-.61921.36676-.39154-.46521-.3916.46521-.32226-.46521-.86634.6272a12.35772,12.35772,0,0,1-1.10992,4.09552,11.67572,11.67572,0,0,1-1.79077,2.67676,1.39526,1.39526,0,0,0,.005.20044.80731.80731,0,0,1-.7121,1.07818,6.65887,6.65887,0,0,0-.8106.15576,20.02463,20.02463,0,0,1-1.77979,1.17286,1.05547,1.05547,0,0,0,.01587.55786,4.3335,4.3335,0,0,1-.31689,2.40545c-.02839.063-.10859.11969-.04731.20533a.43974.43974,0,0,0,.32239-.34186c.02112-.33728.17151-.23383.35974-.16016a6.44592,6.44592,0,0,0,2.63092.55756c.954-.04065,1.3523-.65589.94348-1.4751-.10345-.2074.05524-.17981.14338-.2063a21.18185,21.18185,0,0,0,2.04864-.6897,6.73579,6.73579,0,0,0,2.43829-1.44647A1.22185,1.22185,0,0,0,28.74727,24.37152Z" style="fill:#e0b0c4"/><path d="M27.73994,17.37207l.3916-.46521.39154.46521.61921-.36676a9.76537,9.76537,0,0,0-.35688-1.64679,4.12894,4.12894,0,0,0-1.11029-1.92743c-.3504-.31091-.63214-.24884-.78351.18415a6.8813,6.8813,0,0,0-.29272,1.95806c-.03229.6529.01837,1.30573-.04755,1.96076l.86634-.6272Z" style="fill:#edeeee"/><path d="M23.90723,4.02986a7.4718,7.4718,0,0,0-.92684.20681,4.69656,4.69656,0,0,0-2.01072,1.08747c-.08353.0819-.1994.1494.03791.1989A1.55674,1.55674,0,0,1,22.244,7.36091a6.22625,6.22625,0,0,1-.53534,2.02626c-.03177.0759-.12208.16183-.05536.23547.06779.07491.1612-.0108.2347-.03919a3.30336,3.30336,0,0,1,1.393-.32415.55437.55437,0,0,1,.6.56195c.00515.0454.00557.12243.0264.12921.07223.02359.08395-.059.12-.09821A3.93735,3.93735,0,0,0,25.04625,7.1479a6.24557,6.24557,0,0,0-.85772-3.00309C24.11947,4.01864,24.04244,4.00748,23.90723,4.02986Z" style="fill:#ffe28a"/><path d="M19.742,13.57425c-.72964-.3142-1.12038-.13867-1.352.62176a5.15967,5.15967,0,0,0-.18258,1.62612c0,.19233.00649.38488-.00127.57693a.80541.80541,0,0,0,.58666.83287,2.106,2.106,0,0,0,1.80851-.14157.7658.7658,0,0,0,.44291-.78048,5.96966,5.96966,0,0,0-.47144-1.89238A1.6213,1.6213,0,0,0,19.742,13.57425Zm-.55214,1.80589a.28026.28026,0,0,1-.51-.00184,1.24927,1.24927,0,0,1-.17178-.59718,1.22394,1.22394,0,0,1,.18075-.60206.2768.2768,0,0,1,.49417.00085A1.18436,1.18436,0,0,1,19.1899,15.38014Z" style="fill:#4f4032"/><path d="M15.44361,18.14832a.22843.22843,0,0,0-.23469-.14495v.37287C15.32316,18.36416,15.43337,18.32364,15.44361,18.14832Z" style="fill:#453d3a"/><path d="M17.7621,31.38886a3.07369,3.07369,0,0,0,2.22494.59422,1.72257,1.72257,0,0,0,1.05246-.41431.4489.4489,0,0,0,.09369-.62,1.92021,1.92021,0,0,0-.90157-.685c-.08988-.04364-.21754-.038-.22679-.1816-.06128-.08565.01893-.14234.04731-.20532a4.33377,4.33377,0,0,0,.31688-2.40548,1.05522,1.05522,0,0,1-.01589-.55779c-.16832-.19226-.12221-.45576-.22248-.672a1.57041,1.57041,0,0,1-.08656-.30325,1.84907,1.84907,0,0,1-.15448-.56781c.18682.03141.37717.04949.5599.09694a13.53349,13.53349,0,0,0,1.561.21386c.04893.00678.09482.01208.1225.05931a6.65394,6.65394,0,0,1,.81056-.15575.8073.8073,0,0,0,.71213-1.07816,1.39261,1.39261,0,0,1-.005-.20045c-.02323-.01638-.05606-.02768-.06828-.05013a6.5206,6.5206,0,0,0-2.30168-2.1592c-.66843-.45153-1.39172-.80576-2.08648-1.2104a17.11478,17.11478,0,0,1-3.40992.404c-.26852-.30381-.35056-.36136-.57537-.29238V31.41068c.71623-.01687,1.43189-.04236,2.14579-.10753A.52959.52959,0,0,1,17.7621,31.38886Z" style="fill:#e4bbc9"/><path d="M15.63891,23.84016c.0627.02344.02874.1213.0269.18442a2.29673,2.29673,0,0,0,.15766.92847c.03975.09984.09885.19989.22029.20236a.276.276,0,0,0,.24112-.17793,2.136,2.136,0,0,0,.205-.8287,4.04235,4.04235,0,0,0-.70563-2.85814c-.26852-.30381-.35056-.36136-.57537-.29238v3.24238a3.51617,3.51617,0,0,0,.273-.26781C15.52813,23.91775,15.54733,23.80606,15.63891,23.84016Z" style="fill:#e9c7d0"/><path d="M3.87925,9.20118a9.37835,9.37835,0,0,0,2.60034,3.0094c.28912.22259.58557.43628.886.64325a.18525.18525,0,0,1,.06994.285,6.87475,6.87475,0,0,0-.75927,2.46472,4.14617,4.14617,0,0,0,1.02716,3.42072,6.75586,6.75586,0,0,0,3.32867,1.802c.06452.01764.12775.04022.19153.06036a17.11336,17.11336,0,0,0,3.40991.404c.26856-.30383.35059-.36138.57538-.29241v-2.622c-.1142-.01209-.22443-.05262-.23468-.22791a.22845.22845,0,0,1,.23468-.145V7.36921l-.82806-.19568a2.37294,2.37294,0,0,0-1.46515.2962c-.19269.09912-.21033.03089-.25208-.12958a11.64661,11.64661,0,0,0-1.85113-3.97851A9.01192,9.01192,0,0,0,9.70127,2.12427L9.368,2.29468H7.99216l-.53076.44751L6.42588,2.46247l-.65344.55945-.74506-.3357L4.468,3.24567,3.36094,3.08753A11.4784,11.4784,0,0,0,3.06425,4.6214,7.5535,7.5535,0,0,0,3.87925,9.20118Zm5.49426,7.1087A5.97059,5.97059,0,0,1,9.845,14.41749a1.62147,1.62147,0,0,1,.83087-.84327c.72961-.3142,1.12036-.13867,1.35193.62177a5.1599,5.1599,0,0,1,.18261,1.62616c0,.19232-.00653.38483.00129.5769a.80549.80549,0,0,1-.58667.83289,2.1061,2.1061,0,0,1-1.80854-.1416A.76582.76582,0,0,1,9.37351,16.30988Zm-4.00195-9.162a6.24572,6.24572,0,0,1,.85773-3.00311c.06909-.12616.14611-.13733.28131-.11493a7.46955,7.46955,0,0,1,.92688.20679A4.69651,4.69651,0,0,1,9.44816,5.3241c.08355.08191.1994.14942-.03791.19892A1.55679,1.55679,0,0,0,8.1738,7.36091a6.22609,6.22609,0,0,0,.53534,2.02624c.03174.07593.12207.16181.05536.23547-.06781.0749-.16119-.0108-.23468-.03918a3.30315,3.30315,0,0,0-1.393-.32416.5544.5544,0,0,0-.6.56195c-.00513.04541-.00555.12244-.02637.12921-.07226.02356-.084-.059-.12-.0982A3.93769,3.93769,0,0,1,5.37156,7.14789Z" style="fill:#fbcfd6"/><path d="M7.99216,2.29468l-.53076.44751L6.42588,2.46247l-.65344.55945-.74506-.3357L4.468,3.24567,3.36094,3.08753a9.14705,9.14705,0,0,1,.768-2.00635A1.74127,1.74127,0,0,1,5.79655.00171a2.91869,2.91869,0,0,1,.88.25293A8.64227,8.64227,0,0,1,9.70127,2.12427L9.368,2.29468Z" style="fill:#edeeee"/><path d="M6.5106,4.02987a7.47052,7.47052,0,0,1,.92685.2068A4.69664,4.69664,0,0,1,9.44817,5.32415c.08353.0819.19939.1494-.03792.19889A1.55674,1.55674,0,0,0,8.1738,7.36092a6.22626,6.22626,0,0,0,.53534,2.02625c.03177.0759.12207.16183.05535.23547-.06778.07492-.16119-.0108-.23469-.03918a3.30337,3.30337,0,0,0-1.393-.32416.55436.55436,0,0,0-.6.562c-.00516.0454-.00558.12243-.02641.12921-.07223.02358-.08395-.059-.12-.09822A3.93735,3.93735,0,0,1,5.37159,7.1479a6.24549,6.24549,0,0,1,.85772-3.00309C6.29836,4.01864,6.37539,4.00748,6.5106,4.02987Z" style="fill:#ffe28a"/><path d="M9.845,14.4175a5.96926,5.96926,0,0,0-.47144,1.89238.76578.76578,0,0,0,.44291.78048,2.106,2.106,0,0,0,1.8085.14157.80541.80541,0,0,0,.58667-.83287c-.00777-.192-.00127-.38459-.00127-.57692a5.15948,5.15948,0,0,0-.18259-1.62613c-.23159-.76043-.62232-.93595-1.352-.62176A1.62134,1.62134,0,0,0,9.845,14.4175Zm1.3898-.23759a.27681.27681,0,0,1,.49418-.00085,1.224,1.224,0,0,1,.18075.60206,1.24932,1.24932,0,0,1-.17179.59719.28025.28025,0,0,1-.51.00183A1.18434,1.18434,0,0,1,11.23478,14.17991Z" style="fill:#4f4032"/><path d="M14.97422,18.14832a.22847.22847,0,0,1,.2347-.14495v.37287C15.09468,18.36417,14.98446,18.32364,14.97422,18.14832Z" style="fill:#453d3a"/><path d="M12.65573,31.38887a3.07372,3.07372,0,0,1-2.22494.59422,1.72256,1.72256,0,0,1-1.05245-.41432.44889.44889,0,0,1-.09369-.62,1.92025,1.92025,0,0,1,.90156-.685c.08989-.04363.21754-.038.22679-.1816.06129-.08564-.01892-.14234-.04731-.20532a4.33385,4.33385,0,0,1-.31688-2.40548,1.05512,1.05512,0,0,0,.01589-.55779c.16833-.19226.12222-.45576.22248-.672a1.56909,1.56909,0,0,0,.08656-.30326,1.84881,1.84881,0,0,0,.15449-.56781c-.18682.03142-.37718.04949-.55991.09694a13.533,13.533,0,0,1-1.56095.21387c-.04893.00677-.09483.01207-.12251.05931a6.65381,6.65381,0,0,0-.81055-.15576.80731.80731,0,0,1-.71214-1.07816,1.39113,1.39113,0,0,0,.005-.20045c.02323-.01638.05606-.02767.06827-.05013A6.52072,6.52072,0,0,1,9.13715,22.097c.66843-.45153,1.39172-.80576,2.08648-1.2104a17.11479,17.11479,0,0,0,3.40992.404c.26851-.30382.35056-.36136.57537-.29238V31.41069c-.71623-.01688-1.43189-.04237-2.14579-.10754A.52957.52957,0,0,0,12.65573,31.38887Z" style="fill:#fac4d1"/><path d="M15.03134,21.06019a4.90222,4.90222,0,0,0-.69328.23278,2.13413,2.13413,0,0,0-.94873.847c-.17369.38636-.02789.63278.39885.65742a2.73655,2.73655,0,0,0,.98729-.1636c.0502-.01581.092-.07639.15512-.03325a1.42863,1.42863,0,0,1-.10146.13486c-.08586.091-.17857.17559-.26421.26674a3.98572,3.98572,0,0,0-1.00924,1.8155c-.03093.12843-.05148.24825.06072.34512a.30669.30669,0,0,0,.35253.017,3.00489,3.00489,0,0,0,1.06241-.76488,1.59767,1.59767,0,0,0,.17758-.17425V20.99826C15.15646,21.01436,15.1047,21.031,15.03134,21.06019Z" style="fill:#fbcfd6"/></svg>