<svg xmlns="http://www.w3.org/2000/svg" viewBox="0 0 32 32"><defs><style>.a{fill:#f2f0a2;}.b{fill:#d6c8b2;}.c{fill:#edeeee;}.d{fill:#f7f7f7;}.e{fill:#f4f39f;}.f{fill:#ebeceb;}.g{fill:#f6f5f5;}.h{fill:#c5b7a3;}.i{fill:#dadddc;}.j{fill:#c27bc6;}.k{fill:#747b5e;}.l{fill:#cdbfaa;}.m{fill:#969b3d;}.n{fill:#ac72a6;}.o{fill:#71785b;}.p{fill:#293045;}.q{fill:#fff;}</style></defs><title>573-cinccino-shiny</title><path class="a" d="M31.29449,28.03961a.15928.15928,0,0,0,.05153-.00491l-.07753.08314Z"/><path class="b" d="M10.318,17.44771l-.24716-.37471a5.71708,5.71708,0,0,1-.28916-4.45973c.02915-.10321.1279-.22779-.07983-.28366A5.55249,5.55249,0,0,1,6.02216,9.08776a11.08967,11.08967,0,0,1-.79747-4.4344c.03342-.782.27831-1.39011,1.289-1.209.624.11181,1.26576.12405,1.89956.181a7.31324,7.31324,0,0,1,3.72643,2.30057c1.112,1.25392,1.483,2.8473,2.114,4.32377a1.4491,1.4491,0,0,0,.114.18587c.04088-.0672.08764-.13159.12145-.20218.07508-.1568.14368-.3167.21491-.47533.08152.16082.16973.31863.24335.483.27312.60969.54144,1.22154.81153,1.83274l-.008.017.0019.5714-.00343.57305c-.00017.87643-.00869,1.753.00207,2.62925.00893.72719.04057,1.45411.06211,2.18113l-.06536.05561a3.95115,3.95115,0,0,0-1.717.79679.991.991,0,0,1-.98646.16713A6.92622,6.92622,0,0,1,10.7666,17.894ZM6.92705,7.3214A3.828,3.828,0,0,0,8.8895,10.74082a.82681.82681,0,0,0,.1762.06169.38236.38236,0,0,0-.02113-.10243c-.29654-.569.0276-.6423.48532-.60991l.27651.01969c-.04433-.09267-.095-.18291-.13189-.27845-.1644-.42546-.66518-1.10662-.24519-1.25711.757-.27127.38695-.74639.4856-1.13728.04855-.19238.12665-.38606.33256-.43016,1.01911-.21827.0548-.4857-.02618-.53935a5.58822,5.58822,0,0,0-1.18435-.61384C7.41338,5.27231,6.93148,5.61743,6.92705,7.3214Zm4.5546,6.563c.07984.62917-.06069,1.252.4819,1.51208a1.36042,1.36042,0,0,0,1.3895-.1469c.51756-.39741.2287-.96273.16568-1.46348a2.46782,2.46782,0,0,0-.17795-.62893c-.134-.32232-.25443-.69846-.68475-.71314a.97711.97711,0,0,0-.97743.65845A4.84573,4.84573,0,0,0,11.48165,13.88441Z"/><path class="c" d="M10.318,17.44771l.44852.44616a2.68468,2.68468,0,0,0-.7259,1.30241,4.99013,4.99013,0,0,0-2.5471,2.57181c-.29269.85893.16733,1.36958,1.05811,1.2198a4.65236,4.65236,0,0,0,1.53423-.657l.01285.06535-.23688.97487a11.121,11.121,0,0,0-7.7862,2.01133,2.89684,2.89684,0,0,0-1.373,2.612.15373.15373,0,0,1-.05137-.005C-.883,24.83758.21784,21.75061,3.62608,19.69117A17.94057,17.94057,0,0,1,10.318,17.44771Z"/><path class="b" d="M9.86185,23.37107l.23687-.97487.02642-.08973-.03926.02438a4.65236,4.65236,0,0,1-1.53423.657c-.89078.14978-1.3508-.36087-1.05811-1.2198a4.99,4.99,0,0,1,2.547-2.57177c-.1398,2.15969.29748,3.026,1.868,3.63322a8.76317,8.76317,0,0,0,3.8428.46516l-.00527.02275-.00084,4.95372.00653.01863a8.72681,8.72681,0,0,1-2.277-.35142c-.20009-.06652-.20488.03283-.18633.16911.15794,1.16-.32453,1.63285-1.49175,1.44084-.36168-.0595-.74217.00587-1.11215-.01681a.60154.60154,0,0,1-.65094-.55354.51458.51458,0,0,1,.53852-.57747c1.02294-.08641.57836-.8718.3495-1.09086A4.29592,4.29592,0,0,1,9.86185,23.37107Z"/><path class="d" d="M15.759,12.07362c-.27012-.611-.53844-1.22289-.81156-1.83258-.07362-.16436-.16183-.32217-.24335-.483-.07123.15863-.13983.31853-.21491.47533-.03381.07059-.08057.135-.12145.20218a1.4491,1.4491,0,0,1-.114-.18587c-.631-1.47647-1.002-3.06985-2.114-4.32377A7.31324,7.31324,0,0,0,8.41325,3.62535a3.89,3.89,0,0,1,6.14424.65561,9.25793,9.25793,0,0,1,1.14519,2.72023l.07314.34787Z"/><path class="d" d="M6.02216,9.08776a5.55249,5.55249,0,0,0,3.67971,3.24185c.20773.05587.109.18045.07983.28366a5.71708,5.71708,0,0,0,.28916,4.45973c-1.963-.24391-3.37066-1.83257-3.86666-4.38522A11.29384,11.29384,0,0,1,6.02216,9.08776Z"/><path class="e" d="M.6513,27.9894a.15373.15373,0,0,0,.05137.005l.02617.07869Z"/><path class="f" d="M20.15956,18.3874l.10979-.06934.06241-.04549.10909-.06893.06184-.04622-.00539.00357.06413-.06055.70107-.6956a20.45845,20.45845,0,0,1,6.4991,2.05022,7.47252,7.47252,0,0,1,4.11613,4.94175l.05028.74072-.0004.33766-.05082.79556-.6298,1.77593a.15925.15925,0,0,1-.05153.00491,3.09261,3.09261,0,0,0-1.62074-2.801A11.176,11.176,0,0,0,22.56351,23.4l-.01684-.51641a43.21261,43.21261,0,0,0-2.22531-4.2837l-.28309-.11311.05932-.0542Z"/><path class="g" d="M21.47211,17.07768a5.55187,5.55187,0,0,0,.3154-4.39437c-.06445-.231-.04568-.32252.20281-.397a5.38177,5.38177,0,0,0,3.40832-2.95292c.02815-.05808.06477-.11207.09744-.168l.07893.17484c.05614,2.3159-.076,4.59026-1.67255,6.47062A3.87226,3.87226,0,0,1,21.47211,17.07768Z"/><path class="g" d="M22.97955,3.46605c-2.65727-2.1872-6.1134-.77218-6.89745,2.82348l-.055.17634-.04392.13443a.03726.03726,0,0,0-.00908.04854l-.06216.23486-.13611.46532q-.00837,2.36232-.01683,4.72478l-.008.017a.21987.21987,0,0,1,.05224-.01509c.30211-.70744.60283-1.41537.90808-2.12142a2.91587,2.91587,0,0,1,.16551-.29024c.04358.10106.08925.20134.13018.30344.05859.146.11369.29338.17026.44018.08-.14435.16293-.28717.23877-.43361a1.38479,1.38479,0,0,0,.09749-.23773c.88315-2.95156,2.436-5.28591,5.62727-6.11214C23.08717,3.57122,23.03744,3.51368,22.97955,3.46605Z"/><path class="h" d="M15.7453,28.27117l.00084-4.95372a8.85145,8.85145,0,0,0,2.61476-.65191,3.04365,3.04365,0,0,1,3.28144.42981l.002.20753.03637.06144.02108.1078a4.20736,4.20736,0,0,1-1.06324,3.82922c-.229.21988-.6818.99859.33693,1.09695.31142.03008.574.19456.54635.573a.57764.57764,0,0,1-.617.55519,12.28946,12.28946,0,0,1-2.11183-.01036c-.75692-.10542-.45005-.80716-.507-1.26442-.03738-.30022-.05715-.36494-.37018-.26869A7.049,7.049,0,0,1,15.7453,28.27117Z"/><path class="c" d="M21.64234,23.09535a3.04365,3.04365,0,0,0-3.28144-.42981,8.85145,8.85145,0,0,1-2.61476.65191l.00527-.02275-.00318-5.19349.06536-.05561a6.58592,6.58592,0,0,1,4.22473.44128L20.3214,18.6a5.44017,5.44017,0,0,1,2.22527,4.28363l.01684.51641c-.03884.5377-.07679,1.07551-.11793,1.61308a.78681.78681,0,0,1-.04242.15153c-.00613-.0563-.01445-.11245-.01807-.16891a2.95025,2.95025,0,0,0-.45994-1.555Z"/><path class="i" d="M21.64234,23.09535l.28281.34538-.22337.03139-.02106-.10786-.03639-.06138Z"/><path class="d" d="M15.74823,18.10121l.00318,5.19349a8.76317,8.76317,0,0,1-3.8428-.46516c-1.57054-.60726-2.00782-1.47353-1.868-3.63322a2.68511,2.68511,0,0,1,.726-1.30245,6.92527,6.92527,0,0,0,2.27825,1.17126.991.991,0,0,0,.98646-.16713A3.95115,3.95115,0,0,1,15.74823,18.10121Z"/><path class="j" d="M6.92705,7.3214c.00443-1.704.48633-2.04909,2.1099-1.46773a5.58822,5.58822,0,0,1,1.18435.61384c.081.05365,1.04529.32108.02618.53935-.20591.0441-.284.23778-.33256.43016-.09865.39089.27142.866-.4856,1.13728-.42.15049.08079.83165.24519,1.25711.03691.09554.08756.18578.13189.27845l-.27651-.01969c-.45772-.03239-.78186.04088-.48532.60991a.38236.38236,0,0,1,.02113.10243.82681.82681,0,0,1-.1762-.06169A3.828,3.828,0,0,1,6.92705,7.3214Z"/><path class="k" d="M11.48165,13.88441a4.84573,4.84573,0,0,1,.19695-.78192A.97711.97711,0,0,1,12.656,12.444c.43032.01468.55075.39082.68475.71314a2.46782,2.46782,0,0,1,.17795.62893c.063.50075.35188,1.06607-.16568,1.46348a1.36042,1.36042,0,0,1-1.3895.1469C11.421,15.13644,11.56149,14.51358,11.48165,13.88441Zm1.70271-.44453c-.057-.26594-.09039-.5946-.4358-.612-.32815-.01651-.36438.29342-.37084.54062-.00708.27095.06939.54512.402.55222C13.06116,13.92674,13.1418,13.68874,13.18436,13.43988Z"/><path class="g" d="M25.575,9.34027a5.04784,5.04784,0,0,1,.1297-.71594l-.20862.54108Z"/><path class="l" d="M26.3236,4.56256c-.03656-.60248-.205-1.196-1.003-1.14844-.72822.04346-1.45331.138-2.17981.21-3.19129.82623-4.74414,3.16058-5.62726,6.11212a1.38656,1.38656,0,0,1-.09754.23773c-.0758.14648-.15875.28924-.23877.43365-.05651-.14685-.11163-.29419-.17022-.44018-.041-.10211-.08661-.20239-.13019-.30347a2.92313,2.92313,0,0,0-.16553.29022c-.30524.70606-.606,1.414-.90814,2.1214v.00006a.22033.22033,0,0,0-.05219.01508q.001.28565.0019.57141-.00165.28647-.00342.57306c-.00012.8764-.00867,1.75287.00213,2.62921.00892.72717.04053,1.4541.06214,2.18109a6.5856,6.5856,0,0,1,4.22467.44135l.05926-.05426.06195-.04523.10981-.06934.06244-.04553.10907-.06891.06182-.04626-.00537.00366.06415-.06061.701-.69561.20966-.32715a5.552,5.552,0,0,0,.31537-4.39435c-.06446-.23108-.04572-.32257.20282-.397a5.38166,5.38166,0,0,0,3.40826-2.953c.02814-.058.06482-.112.09747-.1679l.20862-.54108A10.82022,10.82022,0,0,0,26.3236,4.56256ZM18.48278,15.39685a.65989.65989,0,0,1-.55262-.72675,6.90839,6.90839,0,0,1,.22437-1.31488c.1286-.43225.24829-.98223.87732-.90051.66974.087.93109.59149,1.00659,1.2099a3.08046,3.08046,0,0,1,.0022.37091C20.038,15.39166,19.65465,15.72681,18.48278,15.39685ZM22.659,10.746a1.07748,1.07748,0,0,1-.15473.0669c-.00116-.03211-.01446-.07068-.00152-.0954.32562-.62055-.0553-.65552-.51624-.62634-.07941.005-.15918.00585-.23871.0086.0376-.07525.08-.14844.112-.22595.13031-.31543.27228-.62726.3808-.9502.076-.22644-.01856-.50256-.24243-.49371-.62494.02484-.35358-.36395-.34113-.63562.02179-.47589-.09747-.83527-.66241-.855a.868.868,0,0,1-.15412-.03308.66761.66761,0,0,1,.093-.1344,3.85187,3.85187,0,0,1,2.90228-1.123c1.08081.09809.61853,1.06946.79615,1.59082A3.88454,3.88454,0,0,1,22.659,10.746Z"/><path class="m" d="M10.08588,22.33085l.03926-.02438-.02642.08973Z"/><path class="n" d="M24.63187,7.23959A3.8846,3.8846,0,0,1,22.659,10.746a1.07654,1.07654,0,0,1-.15478.06688c-.00109-.03211-.01445-.07066-.00148-.0954.32562-.62055-.05528-.65557-.51627-.62638-.07942.005-.15911.00587-.23867.00864.03761-.0752.08-.14844.112-.22595.13034-.31546.27229-.62726.38081-.9502.07609-.22643-.01854-.50262-.24248-.49372-.6249.02485-.35353-.36395-.34109-.63559.0218-.4759-.09747-.83533-.66241-.855a.8725.8725,0,0,1-.15407-.0331.66382.66382,0,0,1,.09292-.13437,3.85168,3.85168,0,0,1,2.90225-1.123C24.91654,5.74684,24.45426,6.71819,24.63187,7.23959Z"/><path class="o" d="M20.0406,14.03557c-.00266,1.35606-.386,1.69125-1.55779,1.36131a.65985.65985,0,0,1-.55261-.72674,6.90321,6.90321,0,0,1,.22435-1.31494c.12858-.43221.24826-.98222.87729-.90045.66971.087.93113.59146,1.00661,1.20989A3.08292,3.08292,0,0,1,20.0406,14.03557Zm-.85066-.658c-.04578-.23754-.04364-.55518-.37066-.54947-.34669.00606-.42157.32677-.43368.60667-.01112.25712.10878.49549.40472.48549C19.10691,13.90961,19.15462,13.63745,19.18994,13.37761Z"/><path class="h" d="M22.54667,22.88362A5.44021,5.44021,0,0,0,20.3214,18.6c2.49953.72418,3.96724,2.7898,3.78186,3.85077A.93853.93853,0,0,1,22.54667,22.88362Z"/><path class="p" d="M21.64433,23.30288l.03639.06138Z"/><path class="q" d="M13.18436,13.43988c-.04256.24886-.1232.48686-.40468.48086-.33257-.0071-.409-.28127-.402-.55222.00646-.2472.04269-.55713.37084-.54062C13.094,12.84528,13.12739,13.17394,13.18436,13.43988Z"/><path class="q" d="M19.18994,13.37761c-.03532.25984-.083.532-.39962.54269-.29594.01-.41584-.22837-.40472-.48549.01211-.2799.087-.60061.43368-.60667C19.1463,12.82243,19.14416,13.14007,19.18994,13.37761Z"/></svg>