<svg xmlns="http://www.w3.org/2000/svg" viewBox="0 0 32 32"><defs><style>.a{fill:#2a3156;}.b{fill:#363e6d;}.c{fill:#0b1531;}.d{fill:#1b2240;}.e{fill:#e5e6eb;}.f{fill:#535364;}.g{fill:#747481;}.h{fill:#c5c6cc;}.i{fill:#41415a;}.j{fill:#903975;}.k{fill:#a73063;}.l{fill:#9d305f;}.m{fill:#e0dee5;}.n{fill:#e1e2e8;}.o{fill:#d798b7;}.p{fill:#be625a;}.q{fill:#cb655e;}.r{fill:#3a4274;}.s{fill:#f7f7f7;}.t{fill:#edeeee;}.u{fill:#9b3a7d;}.v{fill:#f8a1c4;}.w{fill:#e7685f;}</style></defs><title>575-gothorita-shiny</title><path class="a" d="M21.78353,6.75548a2.49944,2.49944,0,0,1-.756-2.19163c.00328-.04232.04268-.08186.06519-.12261a1.45924,1.45924,0,0,1-.102-1.40687.47574.47574,0,0,0-.145-.55507c-.247-.2292-.48175-.47157-.72178-.70839-.29923-.17875-.59055-.3729-.89918-.53362A7.15645,7.15645,0,0,0,16.00351.47546v5.944a.38454.38454,0,0,0,.06162-.087c.47407-.83634.94557-1.67425,1.42219-2.50924.06-.10509.09184-.28683.21224-.28284.11592.00384.144.18673.20469.29267q.31868.55593.6194,1.12211c.08329.15681.13964.14719.236.00876.28847-.41457.59754-.81518.877-1.23567.14726-.22164.2277-.164.34183.01667a4.40386,4.40386,0,0,1,.55749,2.71778A3.60964,3.60964,0,0,1,17.996,9.72818a10.80036,10.80036,0,0,1-1.76046.48774.62456.62456,0,0,0-.232.06269v.76182a2.91463,2.91463,0,0,0,.81682-.05535.16084.16084,0,0,1,.17911.0602c.12275-.16087.2443-.32267.36834-.48247a.913.913,0,0,1,1.45047-.177.84227.84227,0,0,0,.0996.05927,10.1526,10.1526,0,0,0,1.07708-.62574,5.122,5.122,0,0,0,2.02257-2.684C22.033,6.95141,21.8956,6.85722,21.78353,6.75548Z"/><path class="b" d="M25.6896,4.32525a2.37347,2.37347,0,0,1-.40524-1.04388.834.834,0,0,0-.644-.82566,3.86684,3.86684,0,0,0-1.39619-.0976A3.29939,3.29939,0,0,1,22.0725,4.28087a.76645.76645,0,0,1-.97983.16037c-.02251.04075-.06191.08029-.06519.12261a2.49944,2.49944,0,0,0,.756,2.19163c.11207.10174.24943.19593.234.37981.04652-.05407.09183-.09276.16771-.03762A3.54057,3.54057,0,0,0,23.006,7.479a4.18513,4.18513,0,0,0,1.0302.05635.31172.31172,0,0,1,.30286.11748c-.036-.21152.14684-.19364.25663-.22627a2.54194,2.54194,0,0,0,1.8389-2.62623A.86479.86479,0,0,1,25.6896,4.32525Z"/><path class="c" d="M19.01944,31.93562a.61791.61791,0,0,0,.488-.27913,1.43119,1.43119,0,0,0,.21523-1.00192.80607.80607,0,0,0-.75983-.71808,1.37444,1.37444,0,0,0-.31682-.04175c-.818.07688-1.25448-.43573-1.40958-1.27806a11.879,11.879,0,0,1,.02337-3.136c.09034-1.10159.23568-2.19769.38807-3.29251a11.52351,11.52351,0,0,1-1.64433.0565v9.43652a.77089.77089,0,0,0,.48617.24216A11.78081,11.78081,0,0,0,19.01944,31.93562Z"/><path class="d" d="M17.64784,22.18819a7.95312,7.95312,0,0,0,1.29053-.1841,4.5959,4.5959,0,0,0,2.03-.869,1.69768,1.69768,0,0,0,.25563-2.43273c-.621-.63985-1.30165-1.22171-1.956-1.829a5.77216,5.77216,0,0,1,.18609,2.06874,1.49067,1.49067,0,0,1-1.2948,1.31774,2.4587,2.4587,0,0,1-2.10166-.97555.47334.47334,0,0,1-.05414-.09583v3.0562A11.52351,11.52351,0,0,0,17.64784,22.18819Z"/><path class="e" d="M18.15931,20.25987a1.49067,1.49067,0,0,0,1.2948-1.31774,5.77216,5.77216,0,0,0-.18609-2.06874l.007.00314c-.04545.0062-.05614-.02309-.06027-.059l-.00228-.003-.05686-.05492c-.09326-.38245-.43395-.53733-.69991-.761l-.04289.03776-.01617-.03527a1.65119,1.65119,0,0,0-2.01046,1.00078,5.19112,5.19112,0,0,0-.38265.902v1.28461a.47334.47334,0,0,0,.05414.09583A2.4587,2.4587,0,0,0,18.15931,20.25987Z"/><polygon class="e" points="18.395 15.997 18.397 16.001 18.4 16.002 18.395 15.997"/><path class="e" d="M17.08123,14.20007a1.50156,1.50156,0,0,0,1.1972.40111,1.38888,1.38888,0,0,0,.676-.66906c.07452-.14277.13244-.29424.19784-.44179a7.19958,7.19958,0,0,0,.18275-1.5666c-.0005-.01874.03234-.0384.04966-.05764a4.8893,4.8893,0,0,0-.4668-1.421.84227.84227,0,0,1-.0996-.05927.913.913,0,0,0-1.45047.177c-.124.1598-.24559.3216-.36834.48247q-.4745.75449-.9482,1.50946a.33246.33246,0,0,1-.04773.051v.39042c.0161.02308.03149.04823.04787.07089A5.9194,5.9194,0,0,0,17.08123,14.20007Z"/><path class="e" d="M23.03438.96613c-.33065-.20911-.60808.00363-.88052.17255l-.02379.01667c-.04788.02907-.08557.11257-.14014.08279-.06063-.03313-.00292-.10117.00627-.15467a3.6468,3.6468,0,0,0,.07338-.48561c.01881-.55478-.23953-.72591-.74522-.50313A.55342.55342,0,0,0,21.175.183a2.82053,2.82053,0,0,0-.80457,1.08627c-.06426.17042-.04417.39534-.24651.50164.24.23682.47478.47919.72178.70839a.47574.47574,0,0,1,.145.55507,1.45924,1.45924,0,0,0,.102,1.40687.76645.76645,0,0,0,.97983-.16037,3.29939,3.29939,0,0,0,1.17162-1.92276,2.81166,2.81166,0,0,0,.1048-.47969C23.36517,1.53708,23.36752,1.17687,23.03438.96613Z"/><path class="d" d="M24.89992,15.96958a9.982,9.982,0,0,0-3.08412-1.71037,1.194,1.194,0,0,1-.42226-.24551,28.7133,28.7133,0,0,1-2.00889-2.14761c-.01732.01924-.05016.0389-.04966.05764a7.19958,7.19958,0,0,1-.18275,1.5666q.6987.70254,1.3969,1.40545a2.54965,2.54965,0,0,0,1.08592.64448,30.72387,30.72387,0,0,0,3.12472.75776,2.26274,2.26274,0,0,0,.53356.08763A1.28051,1.28051,0,0,0,24.89992,15.96958Z"/><path class="e" d="M25.64108,1.41426a.38943.38943,0,0,1-.31419-.088.442.442,0,0,0-.74322.37867,2.41407,2.41407,0,0,0,.05664.75077.834.834,0,0,1,.64405.82566,2.37347,2.37347,0,0,0,.40524,1.04388.86479.86479,0,0,0,.745.47506c.717-.016.93345-.56825.88009-1.14911a3.56108,3.56108,0,0,0-.65688-1.75212A.9838.9838,0,0,0,25.64108,1.41426Z"/><path class="d" d="M18.39954,16.00157a6.43687,6.43687,0,0,1-.12111-1.40039,1.50156,1.50156,0,0,1-1.1972-.40111,5.9194,5.9194,0,0,1-1.02985-1.133c-.01638-.02266-.03177-.04781-.04787-.07089v4.90777a5.18951,5.18951,0,0,1,.38265-.902A1.65123,1.65123,0,0,1,18.39954,16.00157Z"/><path class="a" d="M24.03622,7.53533A4.18513,4.18513,0,0,1,23.006,7.479a12.6016,12.6016,0,0,0-.22812,1.72113.83662.83662,0,0,0,.79224.90288.93175.93175,0,0,0,.953-.9271,7.68236,7.68236,0,0,0-.1841-1.52308A.31172.31172,0,0,0,24.03622,7.53533Z"/><path class="f" d="M19.275,16.87652c-.04544.00624-.05612-.02306-.06027-.059Z"/><path class="g" d="M18.41279,16.03641l.04289-.03776-.06105-.00192Z"/><path class="h" d="M19.21246,16.81458l-.05685-.055Z"/><path class="i" d="M16.00351,10.224v.05464a.62456.62456,0,0,1,.232-.06269A2.04013,2.04013,0,0,0,16.00351,10.224Z"/><path class="d" d="M16.99944,11.04528a.16084.16084,0,0,0-.17911-.0602,2.91463,2.91463,0,0,1-.81682.05535v1.56533a.33246.33246,0,0,0,.04773-.051Q16.52317,11.79867,16.99944,11.04528Z"/><path class="e" d="M19.972,5.49189c-.59076.00776-1.18181.00242-1.77272.00356-.07523.00014-.15759-.017-.21345.05813a1.05234,1.05234,0,0,1,.63237,1.12361,1.031,1.031,0,0,1-.92069.86512.7182.7182,0,0,0,.4809.16771,1.85243,1.85243,0,0,0,2.02912-1.98616C20.21451,5.54354,20.14625,5.48953,19.972,5.49189Z"/><path class="j" d="M17.98582,5.55358a1.00293,1.00293,0,0,0-1.1573.35758,1.797,1.797,0,0,0,.27259,1.07658.97585.97585,0,0,0,.59639.55457,1.031,1.031,0,0,0,.92069-.86512A1.05234,1.05234,0,0,0,17.98582,5.55358Zm-.02023.92106a.26893.26893,0,0,1-.29937-.28584c-.01054-.18994.1115-.27458.27693-.29253.21266.00057.27885.11912.28818.29916C18.24131,6.38665,18.12026,6.46345,17.96559,6.47464Z"/><path class="k" d="M16.00351,9.39974v.06362a.412.412,0,0,0,.24757-.05187C16.17129,9.40187,16.08238,9.40836,16.00351,9.39974Z"/><path class="l" d="M16.738,9.14988c.02743-.21-.22449-.21772-.38-.27657l-.17455.00035-.12076.005c-.02835-.00313-.037.01161-.0592.01347v.50762c.07887.00862.16778.00213.24757.01175C16.45249,9.391,16.70734,9.38478,16.738,9.14988Z"/><path class="m" d="M16.799,5.54924c-.08528.06276-.0751.24672.02956.36192a1.20812,1.20812,0,0,1,.5109-.37083A.55427.55427,0,0,0,16.799,5.54924Z"/><path class="n" d="M17.94315,5.89627c-.16543.01795-.28747.10259-.27693.29253a.26893.26893,0,0,0,.29937.28584c.15467-.01119.27572-.088.26574-.27921C18.222,6.01539,18.15581,5.89684,17.94315,5.89627Z"/><path class="o" d="M19.9784,3.74489c-.11413-.18068-.19457-.23831-.34183-.01667-.27942.42049-.58849.8211-.877,1.23567-.09632.13843-.15267.148-.236-.00876q-.30051-.566-.6194-1.12211c-.0607-.10594-.08877-.28883-.20469-.29267-.1204-.004-.15225.17775-.21224.28284-.47662.835-.94812,1.6729-1.42219,2.50924a.38454.38454,0,0,1-.06162.087V8.11754c.01254,0,.023.00271.03541.00292a.61064.61064,0,0,1,.14769.0124,1.49474,1.49474,0,0,1,.43324.09383.34056.34056,0,0,1,.17262.1058.19736.19736,0,0,1,.07082.14021.19094.19094,0,0,1-.05721.11705c-.00385.00592-.005.01383-.0094.01931l-.01176.00848a.33591.33591,0,0,1-.13636.08357,1.15519,1.15519,0,0,1-.28776.09248l-.00278.07972c.15553.05885.40745.06654.38.27657-.0307.2349-.28555.24109-.487.26161a.412.412,0,0,1-.24757.05187V10.224a2.04013,2.04013,0,0,1,.232-.008A10.80036,10.80036,0,0,0,17.996,9.72818a3.60964,3.60964,0,0,0,2.53988-3.26551A4.40386,4.40386,0,0,0,19.9784,3.74489ZM18.1784,7.71a.71854.71854,0,0,1-.481-.16771.97592.97592,0,0,1-.59631-.55457,1.79692,1.79692,0,0,1-.27259-1.07651c-.10466-.11527-.11484-.29923-.02956-.362a.55427.55427,0,0,1,.54046-.00891,1.21631,1.21631,0,0,1,.6464.01325c.05586-.07509.13822-.058.21345-.05813.59091-.00114,1.182.0042,1.77272-.00356.17426-.00236.24252.05165.23553.232A1.85243,1.85243,0,0,1,18.1784,7.71Z"/><path class="o" d="M16.79668,8.60906l-.01176.00848Z"/><path class="o" d="M16.03892,8.12046c-.0124-.00021-.02287-.00292-.03541-.00292V8.12C16.01541,8.1194,16.027,8.12089,16.03892,8.12046Z"/><path class="o" d="M16.36158,8.77164l-.00078.022a1.15519,1.15519,0,0,0,.28776-.09248A2.57608,2.57608,0,0,1,16.36158,8.77164Z"/><path class="o" d="M16.33287,8.174a1.56183,1.56183,0,0,1,.287.05265,1.49474,1.49474,0,0,0-.43324-.09383.32029.32029,0,0,1,.11734.04225A.19673.19673,0,0,1,16.33287,8.174Z"/><path class="o" d="M16.80608,8.58975a.19094.19094,0,0,0,.05721-.11705.19736.19736,0,0,0-.07082-.14021.21632.21632,0,0,1,.0498.12546A.20875.20875,0,0,1,16.80608,8.58975Z"/><path class="o" d="M16.00351,8.89212c.02223-.00186.03085-.0166.0592-.01347l.12076-.00491.17455-.00043.00271-.07965a1.90228,1.90228,0,0,1-.35722.03419Z"/><path class="o" d="M16.18155,8.76459c-.06576-.00135-.1333-.00841-.178.05642v.00684a1.90228,1.90228,0,0,0,.35722-.03419l.00078-.02209Z"/><path class="p" d="M16.0184,8.83434l-.01489.00121v.627l.01489.00121c.42483,0,.76916-.14092.76916-.31468S16.44323,8.83434,16.0184,8.83434Z"/><path class="q" d="M16.00351,8.11754v.71031c.47484,0,.85978-.159.85978-.35515S16.47835,8.11754,16.00351,8.11754Z"/><path class="b" d="M10.21647,6.75712a2.49944,2.49944,0,0,0,.75605-2.19163c-.00328-.04232-.04268-.08186-.06519-.12261a1.45926,1.45926,0,0,0,.102-1.40688.47573.47573,0,0,1,.145-.55506c.247-.2292.48175-.47157.72178-.70839.29923-.17875.59055-.3729.89918-.53363A7.15658,7.15658,0,0,1,15.99649.4771v5.944a.38454.38454,0,0,1-.06162-.087c-.47407-.83634-.94557-1.67425-1.42219-2.50924-.06-.10509-.09184-.28683-.21224-.28284-.11592.00384-.144.18673-.20469.29267q-.31868.55593-.6194,1.12211c-.08329.15681-.13964.14719-.236.00876-.28847-.41457-.59754-.81518-.877-1.23567-.14726-.22164-.2277-.164-.34183.01667a4.40386,4.40386,0,0,0-.55749,2.71778A3.60964,3.60964,0,0,0,14.004,9.72982a10.80036,10.80036,0,0,0,1.76046.48774.62456.62456,0,0,1,.232.06269v.76182a2.91463,2.91463,0,0,1-.81682-.05535.16084.16084,0,0,0-.17911.0602c-.12275-.16087-.2443-.32267-.36834-.48247a.913.913,0,0,0-1.45047-.177.84227.84227,0,0,1-.0996.05927,10.1526,10.1526,0,0,1-1.07708-.62574,5.122,5.122,0,0,1-2.02257-2.684C9.967,6.95305,10.1044,6.85886,10.21647,6.75712Z"/><path class="r" d="M6.3104,4.32689A2.37347,2.37347,0,0,0,6.71564,3.283a.834.834,0,0,1,.64405-.82566,3.86684,3.86684,0,0,1,1.39619-.0976A3.29934,3.29934,0,0,0,9.9275,4.2825a.76644.76644,0,0,0,.97983.16038c.02251.04075.06191.08029.06519.12261a2.49944,2.49944,0,0,1-.75605,2.19163c-.11207.10174-.24943.19593-.234.37981-.04652-.05407-.09183-.09276-.16771-.03762a3.54057,3.54057,0,0,1-.82081.38131,4.18513,4.18513,0,0,1-1.0302.05635.31172.31172,0,0,0-.30286.11748c.03605-.21152-.14684-.19364-.25663-.22627A2.54194,2.54194,0,0,1,5.56539,4.802.86479.86479,0,0,0,6.3104,4.32689Z"/><path class="d" d="M12.98056,31.93726a.61791.61791,0,0,1-.488-.27913,1.43119,1.43119,0,0,1-.21523-1.00192.80607.80607,0,0,1,.75983-.71808,1.37444,1.37444,0,0,1,.31682-.04175c.818.07688,1.25448-.43573,1.40958-1.27806a11.879,11.879,0,0,0-.02337-3.136c-.09034-1.10159-.23568-2.19769-.38807-3.29251a11.522,11.522,0,0,0,1.64433.05649v9.43653a.77089.77089,0,0,1-.48617.24216A11.78081,11.78081,0,0,1,12.98056,31.93726Z"/><path class="a" d="M14.35216,22.18983a7.95312,7.95312,0,0,1-1.29053-.1841,4.5959,4.5959,0,0,1-2.03-.869A1.69768,1.69768,0,0,1,10.776,18.704c.621-.63985,1.30165-1.22171,1.956-1.829a5.77216,5.77216,0,0,0-.18609,2.06874,1.49067,1.49067,0,0,0,1.2948,1.31774,2.4587,2.4587,0,0,0,2.10166-.97555.47334.47334,0,0,0,.05414-.09583v3.05619A11.522,11.522,0,0,1,14.35216,22.18983Z"/><path class="s" d="M13.84069,20.26151a1.49067,1.49067,0,0,1-1.2948-1.31774A5.77216,5.77216,0,0,1,12.732,16.875l-.007.00314c.04545.0062.05614-.02309.06027-.059l.00228-.003.05686-.05493c.09326-.38244.43395-.53732.69991-.761l.04289.03776.01617-.03527a1.65119,1.65119,0,0,1,2.01046,1.00078,5.19112,5.19112,0,0,1,.38265.902v1.28461a.47334.47334,0,0,1-.05414.09583A2.4587,2.4587,0,0,1,13.84069,20.26151Z"/><polygon class="e" points="13.605 15.998 13.603 16.003 13.6 16.003 13.605 15.998"/><path class="s" d="M14.91877,14.20171a1.50156,1.50156,0,0,1-1.1972.40111,1.38888,1.38888,0,0,1-.676-.66906c-.07452-.14277-.13244-.29424-.19784-.44179a7.19958,7.19958,0,0,1-.18275-1.5666c.0005-.01874-.03234-.0384-.04966-.05764a4.8893,4.8893,0,0,1,.4668-1.421.84227.84227,0,0,0,.0996-.05927.913.913,0,0,1,1.45047.177c.124.1598.24559.3216.36834.48247q.4745.75449.9482,1.50946a.3319.3319,0,0,0,.04773.051v.39043c-.0161.02308-.03149.04823-.04787.07089A5.9194,5.9194,0,0,1,14.91877,14.20171Z"/><path class="t" d="M8.96562.96777c.33065-.20911.60808.00363.88052.17255l.02379.01667c.04788.02907.08557.11257.14014.08279.06063-.03313.00292-.10117-.00627-.15467A3.6468,3.6468,0,0,1,9.93042.5995c-.01881-.55478.23953-.72591.74522-.50313a.55342.55342,0,0,1,.1494.08827,2.82053,2.82053,0,0,1,.80457,1.08627c.06426.17042.04417.39534.24651.50164-.24.23682-.47478.47919-.72178.70839a.47573.47573,0,0,0-.145.55506,1.45926,1.45926,0,0,1-.102,1.40688A.76644.76644,0,0,1,9.9275,4.2825,3.29934,3.29934,0,0,1,8.75588,2.35975a2.81166,2.81166,0,0,1-.1048-.47969C8.63483,1.53872,8.63248,1.17851,8.96562.96777Z"/><path class="a" d="M7.10008,15.97122a9.982,9.982,0,0,1,3.08412-1.71037,1.194,1.194,0,0,0,.42226-.24551,28.7133,28.7133,0,0,0,2.00889-2.14761c.01732.01924.05016.0389.04966.05764a7.19958,7.19958,0,0,0,.18275,1.5666q-.6987.70254-1.3969,1.40545a2.54965,2.54965,0,0,1-1.08592.64448,30.72387,30.72387,0,0,1-3.12472.75776,2.26274,2.26274,0,0,1-.53356.08763A1.28051,1.28051,0,0,1,7.10008,15.97122Z"/><path class="t" d="M6.35892,1.4159a.38943.38943,0,0,0,.31419-.088.442.442,0,0,1,.74322.37867,2.41409,2.41409,0,0,1-.05664.75077.834.834,0,0,0-.644.82566A2.37347,2.37347,0,0,1,6.3104,4.32689a.86479.86479,0,0,1-.745.47506c-.717-.016-.93345-.56825-.88009-1.14911a3.56108,3.56108,0,0,1,.65688-1.75212A.9838.9838,0,0,1,6.35892,1.4159Z"/><path class="a" d="M13.60046,16.00321a6.43687,6.43687,0,0,0,.12111-1.40039,1.50156,1.50156,0,0,0,1.1972-.40111,5.9194,5.9194,0,0,0,1.02985-1.133c.01638-.02266.03177-.04781.04787-.07089v4.90777a5.18951,5.18951,0,0,0-.38265-.902A1.65123,1.65123,0,0,0,13.60046,16.00321Z"/><path class="b" d="M7.96378,7.537A4.18513,4.18513,0,0,0,8.994,7.48062,12.6016,12.6016,0,0,1,9.2221,9.20175a.83662.83662,0,0,1-.79224.90288.93175.93175,0,0,1-.953-.92711,7.68235,7.68235,0,0,1,.1841-1.52307A.31172.31172,0,0,1,7.96378,7.537Z"/><path class="f" d="M12.725,16.87816c.04544.00624.05612-.02306.06027-.059Z"/><path class="g" d="M13.58721,16.038l-.04289-.03776.061-.00193Z"/><path class="h" d="M12.78754,16.81622l.05685-.055Z"/><path class="i" d="M15.99649,10.22561v.05464a.62456.62456,0,0,0-.232-.06269A2.04013,2.04013,0,0,1,15.99649,10.22561Z"/><path class="a" d="M15.00056,11.04692a.16084.16084,0,0,1,.17911-.0602,2.91463,2.91463,0,0,0,.81682.05535v1.56532a.3319.3319,0,0,1-.04773-.051Q15.47683,11.8003,15.00056,11.04692Z"/><path class="e" d="M12.028,5.49352c.59076.00777,1.18181.00243,1.77272.00357.07523.00014.15759-.017.21345.05813a1.05234,1.05234,0,0,0-.63237,1.12361,1.031,1.031,0,0,0,.92069.86512.7182.7182,0,0,1-.4809.16771A1.85243,1.85243,0,0,1,11.79248,5.7255C11.78549,5.54518,11.85375,5.49117,12.028,5.49352Z"/><path class="u" d="M13.38181,6.67883a1.031,1.031,0,0,0,.92069.86512.97585.97585,0,0,0,.59639-.55457,1.797,1.797,0,0,0,.27259-1.07658,1.00293,1.00293,0,0,0-1.1573-.35758A1.05234,1.05234,0,0,0,13.38181,6.67883Zm.38686-.48176c.00933-.18.07552-.29859.28818-.29916.16543.01795.28747.10259.27693.29253a.26893.26893,0,0,1-.29937.28584C13.87974,6.46509,13.75869,6.38829,13.76867,6.19707Z"/><path class="k" d="M15.99649,9.40138V9.465a.412.412,0,0,1-.24757-.05187C15.82871,9.40351,15.91762,9.41,15.99649,9.40138Z"/><path class="l" d="M15.262,9.15152c-.02743-.21.22449-.21772.38-.27657l.17455.00035.12076.005c.02835-.00313.037.01161.0592.01347v.50762c-.07887.00862-.16778.00213-.24757.01175C15.54751,9.39261,15.29266,9.38641,15.262,9.15152Z"/><path class="m" d="M15.201,5.55088c.08528.06276.0751.24672-.02956.36192a1.20812,1.20812,0,0,0-.5109-.37083A.55427.55427,0,0,1,15.201,5.55088Z"/><path class="n" d="M14.05685,5.89791c.16543.01795.28747.10259.27693.29253a.26893.26893,0,0,1-.29937.28584c-.15467-.01119-.27572-.088-.26574-.27921C13.778,6.017,13.84419,5.89848,14.05685,5.89791Z"/><path class="v" d="M11.46411,6.46431A3.60964,3.60964,0,0,0,14.004,9.72982a10.80036,10.80036,0,0,0,1.76046.48774,2.04013,2.04013,0,0,1,.232.008V9.465a.412.412,0,0,1-.24757-.05187c-.20141-.02052-.45626-.02672-.487-.26161-.02743-.21.22449-.21772.38-.27657l-.00278-.07972a1.15519,1.15519,0,0,1-.28776-.09248.33591.33591,0,0,1-.13636-.08357l-.01176-.00848c-.00441-.00548-.00555-.01339-.0094-.01931a.19094.19094,0,0,1-.05721-.11705.19736.19736,0,0,1,.07082-.14021.34056.34056,0,0,1,.17262-.1058,1.49474,1.49474,0,0,1,.43324-.09383.61064.61064,0,0,1,.14769-.0124c.0124-.00021.02287-.00292.03541-.00292V6.42106a.38454.38454,0,0,1-.06162-.087c-.47407-.83634-.94557-1.67425-1.42219-2.50924-.06-.10509-.09184-.28683-.21224-.28284-.11592.00384-.144.18673-.20469.29267q-.31868.55593-.6194,1.12211c-.08329.15681-.13964.14719-.236.00876-.28847-.41457-.59754-.81518-.877-1.23567-.14726-.22164-.2277-.164-.34183.01667A4.40386,4.40386,0,0,0,11.46411,6.46431Zm.32837-.73881c-.007-.18032.06127-.23433.23553-.232.59076.00777,1.18181.00243,1.77272.00357.07523.00014.15759-.017.21345.05813a1.21631,1.21631,0,0,1,.6464-.01325.55427.55427,0,0,1,.54046.00891c.08528.06276.0751.24672-.02956.362a1.79692,1.79692,0,0,1-.27259,1.07651.97592.97592,0,0,1-.59631.55457.71854.71854,0,0,1-.481.16771A1.85243,1.85243,0,0,1,11.79248,5.7255Z"/><path class="v" d="M15.20332,8.6107l.01176.00848Z"/><path class="v" d="M15.96108,8.1221c.0124-.00021.02287-.00292.03541-.00292v.0025C15.98459,8.121,15.973,8.12253,15.96108,8.1221Z"/><path class="v" d="M15.63842,8.77328l.00078.022a1.15519,1.15519,0,0,1-.28776-.09248A2.57608,2.57608,0,0,0,15.63842,8.77328Z"/><path class="v" d="M15.66713,8.17568a1.56183,1.56183,0,0,0-.287.05265,1.49474,1.49474,0,0,1,.43324-.09383.32011.32011,0,0,0-.11734.04225A.19673.19673,0,0,0,15.66713,8.17568Z"/><path class="v" d="M15.19392,8.59139a.19094.19094,0,0,1-.05721-.11705.19736.19736,0,0,1,.07082-.14021.21632.21632,0,0,0-.0498.12546A.20875.20875,0,0,0,15.19392,8.59139Z"/><path class="v" d="M15.99649,8.89376c-.02223-.00186-.03085-.0166-.0592-.01347l-.12076-.00491L15.642,8.875l-.00271-.07965a1.90228,1.90228,0,0,0,.35722.03419Z"/><path class="v" d="M15.81845,8.76623c.06576-.00136.1333-.00841.178.05642v.00684a1.90228,1.90228,0,0,1-.35722-.03419l-.00078-.02209Z"/><path class="q" d="M15.9816,8.836l.01489.00121v.627l-.01489.00121c-.42483,0-.76916-.14092-.76916-.31468S15.55677,8.836,15.9816,8.836Z"/><path class="w" d="M15.99649,8.11918v.71031c-.47484,0-.85978-.159-.85978-.35515S15.52165,8.11918,15.99649,8.11918Z"/></svg>