<svg xmlns="http://www.w3.org/2000/svg" viewBox="0 0 32 32"><defs><style>.a{fill:#fff;}.b{fill:#e5e6eb;}.c{fill:#2a3156;}.d{fill:#0b1531;}.e{fill:#1b2240;}.f{fill:#d798b7;}.g{fill:#8b8ba9;}.h{fill:#903975;}.i{fill:#f7f8fa;}.j{fill:#cb655e;}.k{fill:#be625a;}.l{fill:#f7f2f5;}.m{fill:#e9b6ce;}.n{fill:#f7f7f7;}.o{fill:#363e6d;}.p{fill:#3a4274;}.q{fill:#edeeee;}.r{fill:#f8a1c4;}.s{fill:#9b3a7d;}.t{fill:#e7685f;}</style></defs><title>576-gothitelle-shiny</title><rect class="a" x="12.0851" y="5.93846" width="7.63317" height="2.6075"/><path class="b" d="M19.80318,32.00272a2.39275,2.39275,0,0,0,.74343-1.12263A3.8689,3.8689,0,0,0,19.72,27.30771c-.27281-.09038-.269-.17236-.03187-.34163a1.50064,1.50064,0,0,0,.59609-1.12782,6.40308,6.40308,0,0,0-.05757-1.92976,1.69413,1.69413,0,0,0-1.73936-1.45184l-.0692-.00093a2.23312,2.23312,0,0,0-1.58.9554,7.05508,7.05508,0,0,0-.622.934A.65871.65871,0,0,1,16,24.612v1.01168a.3817.3817,0,0,1,.21295.15345,4.12511,4.12511,0,0,0,1.40174,1.25008c.05406.0286.146.0624.14784.09749.00383.07592-.09446.07944-.14963.11268-.07895.04757-.163.08655-.24495.12912A6.25676,6.25676,0,0,0,16,28.89473v1.82233c.008.00284.02335.00061.02718.0063a7.20984,7.20984,0,0,0,1.199,1.27837c.00933.00278.018.00649.0278.00859h2.53222Z"/><path class="c" d="M18.41811,22.45574l.06917.00092a4.20684,4.20684,0,0,1,1.19814-.04619,2.815,2.815,0,0,1,1.04464.05446c.1669-.12922.36192-.0648.53733-.05339.2746.01785.27376-.07161.19555-.29145q-.69994-1.96794-1.37646-3.94432a4.06374,4.06374,0,0,1-.28548-.91695H16v2.0146a.57146.57146,0,0,0,.18023-.22367A2.71046,2.71046,0,0,1,17.843,17.67429a1.42727,1.42727,0,0,1,1.72658.88409,3.90818,3.90818,0,0,1,.19364,2.124,1.70431,1.70431,0,0,1-1.2549,1.3878,1.60918,1.60918,0,0,1-1.69916-.5119A6.45949,6.45949,0,0,1,16,20.38163V22.4045q1.07485,0,2.14971,0C18.2414,22.40457,18.33944,22.38274,18.41811,22.45574Z"/><path class="d" d="M20.54661,30.88009a2.39275,2.39275,0,0,1-.74343,1.12263c1.3349.00012,2.67-.00952,4.00482.00747.31661.00408.29993-.08315.19874-.32149q-.7507-1.76808-1.4747-3.5476a3.82737,3.82737,0,0,1-.33552-.90091q-1.23822.03374-2.4765.06746A3.86906,3.86906,0,0,1,20.54661,30.88009Z"/><path class="c" d="M20.48456,17.26319c.22573.01923.266-.06656.19218-.25553l-.055-.11137c-.161-.70485-.38943-1.39033-.59586-2.08216-.02949-.099-.13389-.19693-.03914-.3142-.10907-.18544-.21922-.3702-.327-.5564a2.86647,2.86647,0,0,0-.67644-.87314l-.0599.0478a3.19239,3.19239,0,0,1,.62956,2.64652,1.25718,1.25718,0,0,1-1.55891,1.02978,3.81487,3.81487,0,0,1-1.77063-.9407A.60469.60469,0,0,0,16,15.706v1.55286h3.801C20.029,17.2589,20.25821,17.244,20.48456,17.26319Z"/><path class="c" d="M25.44472.09644a5.89217,5.89217,0,0,0-1.34544.7263,24.655,24.655,0,0,0-4.26059,3.67331c-.08.08487-.12861.2265-.2864.21149a3.07488,3.07488,0,0,1,.49582.75517c-.02107-.13389.09421-.14362.17127-.18314a21.81871,21.81871,0,0,0,4.698-3.304A4.13905,4.13905,0,0,0,25.92437.63c.076-.16683.18054-.36185.02283-.52592C25.80143-.04757,25.60779.041,25.44472.09644Z"/><path class="c" d="M24.2203,13.55418a23.94717,23.94717,0,0,0-4.35442-3.884c-.09529-.06794-.24013-.09858-.25231-.25376l-.68923.55977a18.37179,18.37179,0,0,0,1.51,1.88124c.31214.30647.62289.61439.93671.91917q.62791.60975,1.2595,1.21568a5.071,5.071,0,0,0,1.8365,1.04081c.15075.03975.32317.0838.43906-.05753.11306-.138.05086-.30026-.01463-.44464A4.19053,4.19053,0,0,0,24.2203,13.55418Z"/><path class="c" d="M26.92772,10.53922a11.00275,11.00275,0,0,0-2.18188-1.155A28.22529,28.22529,0,0,0,20.369,7.96983a2.99965,2.99965,0,0,1-.31749.87467.274.274,0,0,1,.20413.05821,22.23587,22.23587,0,0,0,3.5035,1.73785,7.26065,7.26065,0,0,0,2.89845.72209c.24374-.0056.56445.04067.6579-.2419C27.40952,10.83634,27.12389,10.68353,26.92772,10.53922Z"/><path class="c" d="M27.3376,4.69207a6.75737,6.75737,0,0,0-1.92276.18092,26.12757,26.12757,0,0,0-5.03844,1.57q.03195.4334.06381.86686a22.072,22.072,0,0,0,5.30155-1.00834,4.8408,4.8408,0,0,0,1.81261-.953c.131-.11482.28509-.251.20972-.45216C27.69523,4.71252,27.50144,4.70846,27.3376,4.69207Z"/><path class="e" d="M20.73006,22.46493a2.815,2.815,0,0,0-1.04464-.05446,4.20684,4.20684,0,0,0-1.19814.04619,1.69413,1.69413,0,0,1,1.73938,1.45183,6.404,6.404,0,0,1,.0576,1.9298,1.50086,1.50086,0,0,1-.59608,1.12783c-.23723.16928-.241.25124.03186.34154q1.23823-.03366,2.47648-.06748a3.28715,3.28715,0,0,1,.34315-.00038c.2085.02045.18552-.0756.12662-.214Q21.69611,24.74625,20.73006,22.46493Z"/><path class="b" d="M17.19622.82335a2.5568,2.5568,0,0,0-.79094.82948,4.92412,4.92412,0,0,0,2.14251,2.11669.40711.40711,0,0,0,.23332-.07062,1.79282,1.79282,0,0,0,.49995-2.40876A1.4434,1.4434,0,0,0,17.19622.82335Z"/><path class="e" d="M24.04765,18.00266c-.20268-.12539-.40175-.25652-.60244-.38513A9.49479,9.49479,0,0,1,20.977,15.6253c-.32378-.38046-.65974-.75058-.99026-1.12537-.09475.11727.00965.21524.03914.3142.20643.69183.43485,1.37731.59586,2.08216a.17177.17177,0,0,1,.1283.10065q.97063.75394,1.94136,1.508c.21892.15626.4396.31.65629.46932a.57069.57069,0,0,0,.854-.126C24.47292,18.48546,24.42643,18.23713,24.04765,18.00266Z"/><path class="f" d="M25.1348,18.51387a5.60887,5.60887,0,0,1-.74943,1.19186c.14377.07116.13719.22451.185.34622a6.18253,6.18253,0,0,0,.34224.9705.30649.30649,0,0,0,.302.18161.261.261,0,0,0,.23645-.25155c.01548-.102.03891-.20336.04581-.30585.00436-.066-.08732-.15435-.005-.19418.07844-.03791.15618.04382.20911.10693a1.16772,1.16772,0,0,1,.17487.25615c.09039.19884.16285.40573.24711.60742a.32321.32321,0,0,0,.36659.22757.31579.31579,0,0,0,.27039-.33282,2.61723,2.61723,0,0,0-.02887-.747A3.1064,3.1064,0,0,0,25.1348,18.51387Z"/><path class="d" d="M17.22617,32.00173a7.20984,7.20984,0,0,1-1.199-1.27837c-.00383-.00569-.01921-.00346-.02718-.0063v1.29326h.31476Q16.7704,32.006,17.22617,32.00173Z"/><path class="c" d="M16.11988,14.59591a5.14476,5.14476,0,0,1,1.08561-1.36513,1.31008,1.31008,0,0,1,1.71793-.11259l.0599-.0478a2.22805,2.22805,0,0,0-.65177-.4736,5.69454,5.69454,0,0,0-1.27037-.41892.6741.6741,0,0,1-.589-.72974c-.00644-.14515.00659-.29123.01057-.43691a.29338.29338,0,0,1,.29184-.32371,6.13693,6.13693,0,0,0,2.14978-.71136q.34458-.27989.68923-.55977a1.96335,1.96335,0,0,0,.43791-.57188,2.99965,2.99965,0,0,0,.31749-.87467l.07124-.66q-.03183-.43339-.06381-.86686a2.943,2.943,0,0,0-.32837-.9803,3.0723,3.0723,0,0,0-.49574-.75517,5.52,5.52,0,0,0-1.0045-.938,4.92412,4.92412,0,0,1-2.14251-2.11669A2.31433,2.31433,0,0,1,16.02719.5093l.00314-.17809L16,.33175V7.8655a.17624.17624,0,0,0,.08487-.08808c.25316-.46863.51726-.93143.76889-1.4009.087-.16231.152-.21271.26679-.02221.09138.15166.20528.28962.30922.43362a2.4085,2.4085,0,0,0,.4412.56981l.24358-.31145.10854-.19923.27407-.37341a1.74492,1.74492,0,0,1,.10907-.18644c.07967-.10532.12616-.30762.24121-.296.137.01386.16537.21018.21011.34515a2.65276,2.65276,0,0,1,.17717.32056c.09536.24335.17686.2013.26495-.00023.111-.21187.22068-.42443.33427-.63484a.42594.42594,0,0,1,.08089-.08342.36029.36029,0,0,1,.05576.10808,5.06577,5.06577,0,0,1-.20168,2.65013,2.23679,2.23679,0,0,1-.87283,1.00273A5.38933,5.38933,0,0,1,16,10.53271v4.22436A.39548.39548,0,0,0,16.11988,14.59591Z"/><path class="g" d="M20.67674,17.00766l.07331-.01072a.17177.17177,0,0,0-.1283-.10065Z"/><path class="f" d="M19.76891,8.69667a5.065,5.065,0,0,0,.20168-2.65013.36165.36165,0,0,0-.05569-.10808.42634.42634,0,0,0-.081.08342c-.11359.21041-.22328.423-.3342.63476A1.38295,1.38295,0,0,1,18.687,8.2691c-.05806.01861-.15611.11336-.19808-.03256a.69259.69259,0,0,1-.80543.10073,1.11991,1.11991,0,0,1-.765-1.11182c-.17618-.13282-.18721-.25307.04657-.31083.09957-.02459.20589-.12156.3188-.02443a.16342.16342,0,0,0,.146-.10234c-.10387-.14392-.21784-.282-.30922-.43354-.11482-.1905-.17978-.14017-.26679.02221-.25163.46947-.51566.93227-.76881,1.4009A.17631.17631,0,0,1,16,7.8655V9.04258c.03248.00253.06511.00237.09736.00529a.36139.36139,0,0,1,.35173.2114c.04542.14048-.10992.1758-.18766.2504-.01823.01747-.01555.05668-.02252.08587.09521.00781.20513.0134.20957.13642.00375.10448-.10126.11957-.1797.14178A1.2862,1.2862,0,0,1,16,9.916v.61669a5.3892,5.3892,0,0,0,2.89616-.83331A2.2371,2.2371,0,0,0,19.76891,8.69667Z"/><path class="b" d="M17.99407,16.79449A1.25718,1.25718,0,0,0,19.553,15.76471a3.19239,3.19239,0,0,0-.62956-2.64652,1.31008,1.31008,0,0,0-1.71793.11259,5.14616,5.14616,0,0,0-1.08561,1.36513A.39564.39564,0,0,1,16,14.75714V15.706a.60469.60469,0,0,1,.22344.14783A3.81487,3.81487,0,0,0,17.99407,16.79449Z"/><path class="h" d="M18.22309,6.847l-.10846.19923c.02781.01355.057.025.08334.04105a.30089.30089,0,0,1,.162.338.20153.20153,0,0,1-.20045.16446.28406.28406,0,0,1-.28855-.23194,2.40731,2.40731,0,0,1-.4412-.56989.16342.16342,0,0,1-.146.10234.10576.10576,0,0,1-.04964.02213l-.06626.0488-.24947.26426a1.11994,1.11994,0,0,0,.765,1.11189.69259.69259,0,0,0,.80543-.10073l.00658-.00881.04872-.06618A.893.893,0,0,0,18.30658,6.971.7118.7118,0,0,1,18.22309,6.847Z"/><path class="i" d="M18.11463,7.04622l-.24366.31152a.28406.28406,0,0,0,.28855.23194A.20153.20153,0,0,0,18.36,7.42522a.30089.30089,0,0,0-.162-.338C18.17162,7.07119,18.14244,7.05977,18.11463,7.04622Z"/><path class="f" d="M18.84744,5.99124c-.11505-.01165-.16154.19065-.24113.296a1.71768,1.71768,0,0,0-.10915.18644l.56039-.13734C19.01281,6.20142,18.9844,6.0051,18.84744,5.99124Z"/><path class="e" d="M16.21616,24.3451a7.05468,7.05468,0,0,1,.622-.934,2.23317,2.23317,0,0,1,1.58-.9554c-.07867-.073-.17671-.05117-.2684-.05124q-1.07485-.00081-2.14971,0V24.612A.65881.65881,0,0,0,16.21616,24.3451Z"/><path class="e" d="M17.61292,27.23742c.05515-.03324.15342-.03676.14959-.11267-.00184-.03508-.09375-.06886-.14783-.09751a4.12555,4.12555,0,0,1-1.40174-1.25007A.38169.38169,0,0,0,16,25.62374v1.79468c.456-.00046.912-.01692,1.368-.05185C17.44984,27.324,17.53394,27.285,17.61292,27.23742Z"/><path class="d" d="M17.368,27.36657c-.456.03493-.912.05139-1.368.05185v1.47635A6.25566,6.25566,0,0,1,17.368,27.36657Z"/><path class="b" d="M18.50834,22.07015a1.70431,1.70431,0,0,0,1.2549-1.3878,3.90818,3.90818,0,0,0-.19364-2.124,1.42727,1.42727,0,0,0-1.72658-.88409,2.71046,2.71046,0,0,0-1.66279,1.37546A.57146.57146,0,0,1,16,19.27342v1.10821a6.45949,6.45949,0,0,0,.80918,1.17662A1.60918,1.60918,0,0,0,18.50834,22.07015Z"/><path class="j" d="M16.26143,9.50967c.07774-.0746.23308-.10992.18766-.2504a.36139.36139,0,0,0-.35173-.2114C16.06511,9.045,16.03248,9.04511,16,9.04258V9.5685c.07958.00873.15925.021.23883.02711C16.24588,9.56635,16.2432,9.52714,16.26143,9.50967Z"/><path class="k" d="M16.44848,9.732c-.00444-.123-.11436-.12861-.20965-.13635-.07958-.00612-.15925-.01838-.23883-.02711V9.916a1.2862,1.2862,0,0,0,.26878-.04228C16.34722,9.85153,16.45223,9.83644,16.44848,9.732Z"/><path class="l" d="M16.965,6.91462c-.23378.05776-.22275.178-.04657.31076l.24947-.26426.06626-.04887a.105.105,0,0,0,.04964-.02206C17.17087,6.79306,17.06455,6.89,16.965,6.91462Z"/><path class="m" d="M18.54422,8.16157l-.04874.06622Z"/><path class="m" d="M17.16788,6.96117l.06628-.04887Z"/><path class="b" d="M22.67708,18.50385c.21892.15624.43965.31.65631.4693a.57069.57069,0,0,0,.854-.126c.27118-.36275.22468-.61111-.15408-.84553-.20265-.12542-.40174-.25659-.60244-.38517a1.74807,1.74807,0,0,1,1.24594-.60863.60094.60094,0,0,1,.68691.68625,1.39586,1.39586,0,0,1-.24328.81875,5.60782,5.60782,0,0,1-.74939,1.19181,2.62894,2.62894,0,0,1-.99565.62594c-.72122.19148-1.15009-.20712-.99987-.94085A3.19326,3.19326,0,0,1,22.67708,18.50385Z"/><path class="n" d="M14.77383,32.00173a7.20984,7.20984,0,0,0,1.199-1.27837c.00383-.00569.01921-.00346.02718-.0063V28.89473a6.25676,6.25676,0,0,0-1.368-1.5282c-.08192-.04257-.166-.08155-.24495-.12912-.05517-.03324-.15346-.03676-.14963-.11268.00186-.03509.09378-.06889.14784-.09749a4.12511,4.12511,0,0,0,1.40174-1.25008A.3817.3817,0,0,1,16,25.62371V24.612a.65871.65871,0,0,1-.21616-.26694,7.05508,7.05508,0,0,0-.622-.934,2.23312,2.23312,0,0,0-1.58-.9554l-.0692.00093a1.69413,1.69413,0,0,0-1.73936,1.45184,6.40308,6.40308,0,0,0-.05757,1.92976,1.50064,1.50064,0,0,0,.59609,1.12782c.23717.16927.24094.25125-.03187.34163a3.8689,3.8689,0,0,0-.82659,3.57238,2.39275,2.39275,0,0,0,.74343,1.12263l.017.0076H14.746C14.75579,32.00822,14.7645,32.00451,14.77383,32.00173Z"/><path class="o" d="M13.58189,22.45574l-.06917.00092a4.20684,4.20684,0,0,0-1.19814-.04619,2.815,2.815,0,0,0-1.04464.05446c-.1669-.12922-.36192-.0648-.53733-.05339-.2746.01785-.27376-.07161-.19555-.29145q.69994-1.96794,1.37646-3.94432a4.06374,4.06374,0,0,0,.28548-.91695H16v2.0146a.57146.57146,0,0,1-.18023-.22367A2.71046,2.71046,0,0,0,14.157,17.67429a1.42727,1.42727,0,0,0-1.72658.88409,3.90818,3.90818,0,0,0-.19364,2.124,1.70431,1.70431,0,0,0,1.2549,1.3878,1.60918,1.60918,0,0,0,1.69916-.5119A6.45949,6.45949,0,0,0,16,20.38163V22.4045q-1.07486,0-2.14971,0C13.7586,22.40457,13.66056,22.38274,13.58189,22.45574Z"/><path class="e" d="M9.468,28.14112a3.829,3.829,0,0,0,.33549-.90094q1.23825.03378,2.47648.06748a3.86914,3.86914,0,0,0-.82656,3.57244,2.39222,2.39222,0,0,0,.74345,1.12261c-1.33494.00016-2.67-.00949-4.00483.00751-.31665.00406-.29995-.08318-.19877-.32148Q8.744,29.9206,9.468,28.14112Z"/><path class="p" d="M11.51544,17.26319c-.22573.01923-.266-.06656-.19218-.25553l.055-.11137c.161-.70485.38943-1.39033.59586-2.08216.02949-.099.13389-.19693.03914-.3142.10907-.18544.21922-.3702.327-.5564a2.86647,2.86647,0,0,1,.67644-.87314l.0599.0478a3.19239,3.19239,0,0,0-.62956,2.64652,1.25718,1.25718,0,0,0,1.55891,1.02978,3.81487,3.81487,0,0,0,1.77063-.9407A.60469.60469,0,0,1,16,15.706v1.55286H12.199C11.971,17.2589,11.74179,17.244,11.51544,17.26319Z"/><path class="o" d="M6.55528.09644a5.89217,5.89217,0,0,1,1.34544.7263,24.655,24.655,0,0,1,4.26059,3.67331c.08.08487.12861.2265.2864.21149a3.07488,3.07488,0,0,0-.49582.75517c.02107-.13389-.09421-.14362-.17127-.18314a21.81871,21.81871,0,0,1-4.698-3.304A4.13905,4.13905,0,0,1,6.07563.63C5.99965.46319,5.89509.26817,6.0528.1041,6.19857-.04757,6.39221.041,6.55528.09644Z"/><path class="o" d="M7.7797,13.55418a23.94717,23.94717,0,0,1,4.35442-3.884c.09529-.06794.24013-.09858.25231-.25376l.68923.55977a18.37179,18.37179,0,0,1-1.51,1.88124c-.31214.30647-.62289.61439-.93671.91917q-.62792.60975-1.2595,1.21568A5.071,5.071,0,0,1,7.533,15.03305c-.15075.03975-.32317.0838-.43906-.05753-.11306-.138-.05086-.30026.01463-.44464A4.19053,4.19053,0,0,1,7.7797,13.55418Z"/><path class="o" d="M5.07228,10.53922a11.00275,11.00275,0,0,1,2.18188-1.155A28.22529,28.22529,0,0,1,11.631,7.96983a2.99965,2.99965,0,0,0,.31749.87467.274.274,0,0,0-.20413.05821,22.23587,22.23587,0,0,1-3.5035,1.73785,7.26065,7.26065,0,0,1-2.89845.72209c-.24374-.0056-.56445.04067-.6579-.2419C4.59048,10.83634,4.87611,10.68353,5.07228,10.53922Z"/><path class="o" d="M4.6624,4.69207A6.75737,6.75737,0,0,1,6.58516,4.873a26.12757,26.12757,0,0,1,5.03844,1.57q-.032.4334-.06381.86686A22.072,22.072,0,0,1,6.25824,6.30153a4.8408,4.8408,0,0,1-1.81261-.953c-.131-.11482-.28509-.251-.20972-.45216C4.30477,4.71252,4.49856,4.70846,4.6624,4.69207Z"/><path class="c" d="M11.26994,22.46493a2.815,2.815,0,0,1,1.04464-.05446,4.20684,4.20684,0,0,1,1.19814.04619,1.69413,1.69413,0,0,0-1.73938,1.45183,6.404,6.404,0,0,0-.0576,1.9298,1.50086,1.50086,0,0,0,.59608,1.12783c.23723.16928.241.25124-.03186.34154q-1.23824-.03366-2.47648-.06748a3.28715,3.28715,0,0,0-.34315-.00038c-.2085.02045-.18552-.0756-.12662-.214Q10.30389,24.74625,11.26994,22.46493Z"/><path class="q" d="M14.80378.82335a2.5568,2.5568,0,0,1,.79094.82948,4.92412,4.92412,0,0,1-2.14251,2.11669.40711.40711,0,0,1-.23332-.07062,1.79282,1.79282,0,0,1-.5-2.40876A1.4434,1.4434,0,0,1,14.80378.82335Z"/><path class="c" d="M7.95235,18.00266c.20268-.12539.40175-.25652.60244-.38513A9.49479,9.49479,0,0,0,11.023,15.6253c.32378-.38046.65974-.75058.99026-1.12537.09475.11727-.00965.21524-.03914.3142-.20643.69183-.43485,1.37731-.59586,2.08216a.17177.17177,0,0,0-.1283.10065q-.97063.75394-1.94136,1.508c-.21892.15626-.4396.31-.65629.46932a.57069.57069,0,0,1-.854-.126C7.52708,18.48546,7.57357,18.23713,7.95235,18.00266Z"/><path class="r" d="M6.8652,18.51387a5.60887,5.60887,0,0,0,.74943,1.19186c-.14377.07116-.13719.22451-.185.34622a6.18253,6.18253,0,0,1-.34224.9705.30649.30649,0,0,1-.302.18161.261.261,0,0,1-.23645-.25155c-.01548-.102-.03891-.20336-.04581-.30585-.00436-.066.08732-.15435.005-.19418-.07844-.03791-.15618.04382-.20911.10693a1.16772,1.16772,0,0,0-.17487.25615c-.09039.19884-.16285.40573-.24711.60742a.32321.32321,0,0,1-.36659.22757A.31579.31579,0,0,1,5.24,21.31773a2.61723,2.61723,0,0,1,.02887-.747A3.1064,3.1064,0,0,1,6.8652,18.51387Z"/><path class="e" d="M16,30.71706c-.008.00284-.02335.00061-.02718.0063a7.20984,7.20984,0,0,1-1.199,1.27837q.45573.00426.91141.00859H16Z"/><path class="p" d="M15.88012,14.59591a5.14476,5.14476,0,0,0-1.08561-1.36513,1.31008,1.31008,0,0,0-1.71793-.11259l-.0599-.0478a2.22805,2.22805,0,0,1,.65177-.4736,5.69454,5.69454,0,0,1,1.27037-.41892.6741.6741,0,0,0,.589-.72974c.00644-.14515-.00659-.29123-.01057-.43691a.29338.29338,0,0,0-.29184-.32371,6.13693,6.13693,0,0,1-2.14978-.71136q-.34458-.27989-.68923-.55977a1.96335,1.96335,0,0,1-.43791-.57188,2.99965,2.99965,0,0,1-.31749-.87467l-.07124-.66q.03183-.43339.06381-.86686a2.943,2.943,0,0,1,.32837-.9803,3.0723,3.0723,0,0,1,.49574-.75517,5.52,5.52,0,0,1,1.0045-.938,4.92412,4.92412,0,0,0,2.14251-2.11669A2.31433,2.31433,0,0,0,15.97281.5093L15.96967.33121,16,.33175V7.8655a.17624.17624,0,0,1-.08487-.08808c-.25316-.46863-.51726-.93143-.76889-1.4009-.087-.16231-.152-.21271-.26679-.02221-.09138.15166-.20528.28962-.30922.43362a2.4085,2.4085,0,0,1-.4412.56981l-.24358-.31145-.10854-.19923-.27407-.37341a1.74492,1.74492,0,0,0-.10907-.18644c-.07967-.10532-.12616-.30762-.24121-.296-.137.01386-.16537.21018-.21011.34515a2.65276,2.65276,0,0,0-.17717.32056c-.09536.24335-.17686.2013-.265-.00023-.111-.21187-.22068-.42443-.33427-.63484a.42594.42594,0,0,0-.08089-.08342.36029.36029,0,0,0-.05576.10808,5.06577,5.06577,0,0,0,.20168,2.65013,2.23679,2.23679,0,0,0,.87283,1.00273A5.38933,5.38933,0,0,0,16,10.53271v4.22436A.39548.39548,0,0,1,15.88012,14.59591Z"/><path class="g" d="M11.32326,17.00766,11.25,16.99694a.17177.17177,0,0,1,.1283-.10065Z"/><path class="r" d="M12.23109,8.69667a5.065,5.065,0,0,1-.20168-2.65013.36165.36165,0,0,1,.05569-.10808.42634.42634,0,0,1,.081.08342c.11359.21041.22328.423.3342.63476A1.38295,1.38295,0,0,0,13.313,8.2691c.05806.01861.15611.11336.19808-.03256a.69259.69259,0,0,0,.80543.10073,1.11991,1.11991,0,0,0,.76505-1.11182c.17618-.13282.18721-.25307-.04657-.31083-.09957-.02459-.20589-.12156-.3188-.02443a.16342.16342,0,0,1-.146-.10234c.10387-.14392.21784-.282.30922-.43354.11482-.1905.17978-.14017.26679.02221.25163.46947.51566.93227.76881,1.4009A.17631.17631,0,0,0,16,7.8655V9.04258c-.03248.00253-.06511.00237-.09736.00529a.36139.36139,0,0,0-.35173.2114c-.04542.14048.10992.1758.18766.2504.01823.01747.01555.05668.02252.08587-.09521.00781-.20513.0134-.20957.13642-.00375.10448.10126.11957.1797.14178A1.2862,1.2862,0,0,0,16,9.916v.61669a5.3892,5.3892,0,0,1-2.89616-.83331A2.2371,2.2371,0,0,1,12.23109,8.69667Z"/><path class="n" d="M14.00593,16.79449A1.25718,1.25718,0,0,1,12.447,15.76471a3.19239,3.19239,0,0,1,.62956-2.64652,1.31008,1.31008,0,0,1,1.71793.11259,5.14616,5.14616,0,0,1,1.08561,1.36513A.39564.39564,0,0,0,16,14.75714V15.706a.60469.60469,0,0,0-.22344.14783A3.81487,3.81487,0,0,1,14.00593,16.79449Z"/><path class="s" d="M13.77691,6.847l.10846.19923c-.02781.01355-.057.025-.08334.04105a.30089.30089,0,0,0-.162.338.20153.20153,0,0,0,.20045.16446.28406.28406,0,0,0,.28855-.23194,2.40731,2.40731,0,0,0,.4412-.56989.16342.16342,0,0,0,.146.10234.10576.10576,0,0,0,.04964.02213l.06626.0488.24947.26426a1.11994,1.11994,0,0,1-.76505,1.11189.69259.69259,0,0,1-.80543-.10073l-.00658-.00881-.04872-.06618A.893.893,0,0,1,13.69342,6.971.7118.7118,0,0,0,13.77691,6.847Z"/><path class="i" d="M13.88537,7.04622l.24366.31152a.28406.28406,0,0,1-.28855.23194A.20153.20153,0,0,1,13.64,7.42522a.30089.30089,0,0,1,.162-.338C13.82838,7.07119,13.85756,7.05977,13.88537,7.04622Z"/><path class="r" d="M13.15256,5.99124c.11505-.01165.16154.19065.24113.296a1.71768,1.71768,0,0,1,.10915.18644l-.56039-.13734C12.98719,6.20142,13.0156,6.0051,13.15256,5.99124Z"/><path class="c" d="M15.78384,24.3451a7.05468,7.05468,0,0,0-.622-.934,2.23317,2.23317,0,0,0-1.58-.9554c.07867-.073.17671-.05117.2684-.05124q1.07486-.00081,2.14971,0V24.612A.65881.65881,0,0,1,15.78384,24.3451Z"/><path class="c" d="M14.38708,27.23742c-.05515-.03324-.15342-.03676-.14959-.11267.00184-.03508.09375-.06886.14783-.09751a4.12555,4.12555,0,0,0,1.40174-1.25007A.38169.38169,0,0,1,16,25.62374v1.79468c-.456-.00046-.912-.01692-1.368-.05185C14.55016,27.324,14.46606,27.285,14.38708,27.23742Z"/><path class="e" d="M14.632,27.36657c.456.03493.912.05139,1.368.05185v1.47635A6.25566,6.25566,0,0,0,14.632,27.36657Z"/><path class="n" d="M13.49166,22.07015a1.70431,1.70431,0,0,1-1.2549-1.3878,3.90818,3.90818,0,0,1,.19364-2.124,1.42727,1.42727,0,0,1,1.72658-.88409,2.71046,2.71046,0,0,1,1.66279,1.37546A.57146.57146,0,0,0,16,19.27342v1.10821a6.45949,6.45949,0,0,1-.80918,1.17662A1.60918,1.60918,0,0,1,13.49166,22.07015Z"/><path class="t" d="M15.73857,9.50967c-.07774-.0746-.23308-.10992-.18766-.2504a.36139.36139,0,0,1,.35173-.2114c.03225-.00292.06488-.00276.09736-.00529V9.5685c-.07958.00873-.15925.021-.23883.02711C15.75412,9.56635,15.7568,9.52714,15.73857,9.50967Z"/><path class="j" d="M15.55152,9.732c.00444-.123.11436-.12861.20965-.13635.07958-.00612.15925-.01838.23883-.02711V9.916a1.2862,1.2862,0,0,1-.26878-.04228C15.65278,9.85153,15.54777,9.83644,15.55152,9.732Z"/><path class="l" d="M15.035,6.91462c.23378.05776.22275.178.04657.31076l-.24947-.26426-.06626-.04887a.105.105,0,0,1-.04964-.02206C14.82913,6.79306,14.93545,6.89,15.035,6.91462Z"/><path class="m" d="M13.45578,8.16157l.04874.06622Z"/><path class="m" d="M14.83212,6.96117l-.06628-.04887Z"/><path class="q" d="M9.32292,18.50385c-.21892.15624-.43965.31-.65631.4693a.57069.57069,0,0,1-.854-.126c-.27118-.36275-.22468-.61111.15408-.84553.20265-.12542.40174-.25659.60244-.38517a1.74807,1.74807,0,0,0-1.24594-.60863.60094.60094,0,0,0-.68691.68625,1.39586,1.39586,0,0,0,.24328.81875,5.60782,5.60782,0,0,0,.74939,1.19181,2.62894,2.62894,0,0,0,.99565.62594c.72122.19148,1.15009-.20712.99987-.94085A3.19326,3.19326,0,0,0,9.32292,18.50385Z"/></svg>