<svg xmlns="http://www.w3.org/2000/svg" viewBox="0 0 32 32"><title>578-duosion</title><path d="M3.01431,16.86537V15.67271q.03162-.00012.06312-.003l.00012,1.19819Q3.04589,16.868,3.01431,16.86537Z" style="fill:#cee8e6"/><path d="M3.01431,16.86537q.03156.00261.06326.00253l-.00049.2975q-.03144.00061-.06277-.00186Z" style="fill:#e8f4f3"/><path d="M3.07743,15.66972q-.0315.00288-.06312.003v-.22363l.06158-.00151Z" style="fill:#edf6f5"/><path d="M15.63281,27.68644a5.57794,5.57794,0,0,1-1.67858-1.61377,20.454,20.454,0,0,1-2.53392-4.99814.38549.38549,0,0,0-.51563-.30168,3.4901,3.4901,0,0,1-1.79442-.17354.85307.85307,0,0,1-.41707-1.44569A3.9432,3.9432,0,0,1,9.89526,18.229c.12586-.07426.28193-.10638.36174-.24835A4.90966,4.90966,0,0,1,7.28626,14.397,6.08379,6.08379,0,0,1,10.168,7.95554a11.92772,11.92772,0,0,1,4.4097-1.50275A10.91441,10.91441,0,0,1,16,6.32775V4.05037c-.02912,0-.07117.00919-.09628.00619a2.53089,2.53089,0,0,1-1.9009-.66961.47875.47875,0,0,1-.138-.4998A2.25119,2.25119,0,0,1,16,1.355V.03372A5.1646,5.1646,0,0,0,14.5666.45316a3.92777,3.92777,0,0,0-2.46667,2.912.50047.50047,0,0,1-.39878.4097,12.51592,12.51592,0,0,0-6.6697,5.1563,13.20429,13.20429,0,0,0-1.95559,6.51636l.00155.22214q.00014.59913.00018,1.19816l-.00055.29749a26.12828,26.12828,0,0,0,1.25577,6.52091.70653.70653,0,0,1-.07262.61956,4.1174,4.1174,0,0,0-.0658,4.15689,2.205,2.205,0,0,0,1.29854,1.10106,5.56022,5.56022,0,0,0,3.61551-.06807.41.41,0,0,1,.51263.10766,6.875,6.875,0,0,0,2.37521,1.569A11.80076,11.80076,0,0,0,16,31.99777v-4.2327A.5614.5614,0,0,1,15.63281,27.68644ZM6.30205,9.17409a.78586.78586,0,0,1-.10711-.80793,1.8486,1.8486,0,0,1,.44437-.68081A6.53239,6.53239,0,0,1,8.552,6.35132a1.45173,1.45173,0,0,1,.67743-.16071c.63967.00528.94936.48268.62757.98521A5.12468,5.12468,0,0,1,7.01543,9.33508.60569.60569,0,0,1,6.30205,9.17409Z" style="fill:#b3f4cd"/><path d="M15.77131,14.952c-.395-.55376-.80638-1.09615-1.22182-1.63489-.10211-.1325-.1113-.217.00555-.34554.42426-.46686.83824-.94326,1.25322-1.41858.06552-.075.12823-.12922.19175-.12695V6.32775a10.91441,10.91441,0,0,0-1.42231.125A11.92772,11.92772,0,0,0,10.168,7.95554,6.08379,6.08379,0,0,0,7.28626,14.397,4.90966,4.90966,0,0,0,10.257,17.98066a12.38208,12.38208,0,0,0,3.80835,1.0289A11.76121,11.76121,0,0,0,16,19.07271V15.1335C15.93212,15.13259,15.85841,15.07408,15.77131,14.952Zm-4.23779-1.814a.58319.58319,0,0,1-1.01852-.006,1.72442,1.72442,0,0,1,.00528-1.858.58343.58343,0,0,1,1.01861.00774,1.70309,1.70309,0,0,1-.00537,1.8563Z" style="fill:#fff5d8"/><path d="M20.11713,18.51477a11.50885,11.50885,0,0,0,1.66947-.60864,5.11663,5.11663,0,0,0,2.76062-2.83278,6.02149,6.02149,0,0,0-2.3976-6.99868A10.725,10.725,0,0,0,16,6.32775v5.09833c.04632.00164.093.0294.14206.11958.46821.47586.93352.95473,1.40674,1.42549.11976.119.13359.2024.01656.33826-.45948.53347-.90658,1.07749-1.35833,1.6176-.06752.14115-.13386.20749-.207.20649v3.93921c.43709-.01638.87437-.03949,1.31319-.08773A19.4197,19.4197,0,0,0,20.11713,18.51477Zm.43-7.36316a.569.569,0,0,1,.94962.0162,1.55876,1.55876,0,0,1,.30359.98066,1.5273,1.5273,0,0,1-.3166.96283.56389.56389,0,0,1-.92542.014A1.69644,1.69644,0,0,1,20.54713,11.15161Z" style="fill:#f9f0d5"/><path d="M14.06535,19.00956a12.38208,12.38208,0,0,1-3.80835-1.0289c-.07981.142-.23588.17409-.36174.24835a3.9432,3.9432,0,0,0-1.20207.92461.85307.85307,0,0,0,.41707,1.44569,3.4901,3.4901,0,0,0,1.79442.17354.38549.38549,0,0,1,.51563.30168,20.454,20.454,0,0,0,2.53392,4.99814,5.57794,5.57794,0,0,0,1.67858,1.61377A.5614.5614,0,0,0,16,27.76507V19.07271A11.76121,11.76121,0,0,1,14.06535,19.00956Z" style="fill:#f6edd2"/><path d="M18.19821,25.84707a21.285,21.285,0,0,0,2.44292-4.8802c.07271-.195.1407-.33871.3875-.28538a3.39246,3.39246,0,0,0,1.33039-.00983c.51044-.09183,1.0541-.18574,1.21081-.76717.15808-.58625-.26173-.94744-.67771-1.2574-.35528-.26474-.736-.49525-1.10552-.741a11.50885,11.50885,0,0,1-1.66947.60864,19.4197,19.4197,0,0,1-2.80393.47021c-.43882.04824-.8761.07135-1.31319.08773v8.69236a.5568.5568,0,0,0,.21158-.051A5.48285,5.48285,0,0,0,18.19821,25.84707Z" style="fill:#efe6cc"/><path d="M13.86478,2.88715a.47875.47875,0,0,0,.138.4998,2.53089,2.53089,0,0,0,1.9009.66961c.02511.003.06716-.00619.09628-.00619V1.355A2.25119,2.25119,0,0,0,13.86478,2.88715Z" style="fill:#fff5d8"/><path d="M18.06335,3.28912a.46361.46361,0,0,0,.11612-.47167A1.962,1.962,0,0,0,16.426,1.37985,2.37073,2.37073,0,0,0,16,1.355V4.05037a5.99257,5.99257,0,0,0,.76243-.09865A2.09893,2.09893,0,0,0,18.06335,3.28912Z" style="fill:#f9f0d5"/><path d="M28.01794,22.59985a2.36478,2.36478,0,0,0,.07972-.28637,20.51207,20.51207,0,0,0,.70916-8.431A12.17874,12.17874,0,0,0,20.39117,3.721a.59937.59937,0,0,1-.46014-.49079A4.282,4.282,0,0,0,16.132.00787c-.04541.00342-.0871.02045-.132.02582V1.355a2.37675,2.37675,0,0,1,.426.02484,1.962,1.962,0,0,1,1.75341,1.43762.46356.46356,0,0,1-.11609.47168,2.09916,2.09916,0,0,1-1.3009.6626A6.00124,6.00124,0,0,1,16,4.05035V6.32776a10.72482,10.72482,0,0,1,6.1496,1.74689,6.02156,6.02156,0,0,1,2.39764,6.99871,5.11688,5.11688,0,0,1-2.76074,2.83277c.36957.24573.75037.47619,1.10565.741.416.30994.83576.67115.67767,1.25739-.15667.58142-.70037.67535-1.21081.76715a3.392,3.392,0,0,1-1.33038.00983c-.24683-.05335-.31476.09039-.38752.2854a21.28477,21.28477,0,0,1-2.44287,4.88019,5.484,5.484,0,0,1-1.98663,1.86706.55786.55786,0,0,1-.21161.051v4.23266c.04425.00244.08783.00794.13208.01013a13.31281,13.31281,0,0,1,1.89984-.3045,8.3032,8.3032,0,0,0,4.45233-2.23663c.15436-.16.2782-.09766.4289-.04816a5.80591,5.80591,0,0,0,2.85937.267,2.61614,2.61614,0,0,0,2.03284-1.212,3.70961,3.70961,0,0,0,.27252-3.53552A2.65337,2.65337,0,0,1,28.01794,22.59985Z" style="fill:#99f2bd"/><path d="M9.22934,6.19062c.63973.0053.9494.48265.62759.98522A5.12423,5.12423,0,0,1,7.0154,9.33508a.60574.60574,0,0,1-.71338-.161.786.786,0,0,1-.1071-.808,1.84734,1.84734,0,0,1,.44443-.68073A6.53125,6.53125,0,0,1,8.55193,6.35133,1.4518,1.4518,0,0,1,9.22934,6.19062Z" style="fill:#c1fdbd"/><path d="M20.54713,11.15161a1.69644,1.69644,0,0,0,.01119,1.9737.56389.56389,0,0,0,.92542-.014,1.5273,1.5273,0,0,0,.3166-.96283,1.55876,1.55876,0,0,0-.30359-.98066A.569.569,0,0,0,20.54713,11.15161Z" style="fill:#313903"/><path d="M11.81129,12.18926a1.58,1.58,0,0,1-.27777.94886.58323.58323,0,0,1-1.01856-.00605,1.72433,1.72433,0,0,1,.00533-1.858.5834.5834,0,0,1,1.01864.00775A1.57636,1.57636,0,0,1,11.81129,12.18926Z" style="fill:#313903"/><path d="M15.80826,11.553c-.415.47532-.829.95163-1.25331,1.41858-.11676.12849-.10766.213-.00546.34554.41544.53874.82677,1.081,1.22182,1.6348.0871.12213.16081.18064.2287.18155V11.42608C15.93649,11.42381,15.87378,11.478,15.80826,11.553Z" style="fill:#ff6b8b"/><path d="M16.207,14.92692c.45175-.54.89885-1.084,1.35824-1.61751.117-.136.10329-.21922-.01647-.33835-.47322-.47076-.93853-.94963-1.40684-1.4254-.049-.09018-.09564-.11794-.142-.11958V15.1335C16.07308,15.13441,16.13952,15.06807,16.207,14.92692Z" style="fill:#c96483"/></svg>