<svg xmlns="http://www.w3.org/2000/svg" viewBox="0 0 32 32"><defs><style>.a{fill:#90d5ce;}.b{fill:#abb4dd;}.c{fill:#a1a9ce;}.d{fill:#fff5d8;}.e{fill:#f6edd2;}.f{fill:#b9e2e7;}.g{fill:#b3f4cd;}.h{fill:#f9f0d5;}.i{fill:#efe6cc;}.j{fill:#acd7dd;}.k{fill:#99f2bd;}.l{fill:#ff6b8b;}.m{fill:#313903;}.n{fill:#c96483;}</style></defs><title>579-reuniclus-shiny</title><path class="a" d="M0,12.062a.03346.03346,0,0,1,.04651-.01148l.002.26022-.0258.00214L0,12.30054Z"/><path class="b" d="M.04855,12.31075l-.002-.26022a.70637.70637,0,0,1,1.18878-.42322.2973.2973,0,0,0,.44971-.02063,2.56225,2.56225,0,0,1,.95193-.47807c.15211-.0435.18018-.118.1603-.25736-.07767-.54472.06664-.84176.42589-.89432a.80567.80567,0,0,1,.99776.76143c.022.22632.0993.293.305.34123A3.62048,3.62048,0,0,1,6.63105,12.497a.34535.34535,0,0,0,.44109.14432,2.1648,2.1648,0,0,1,1.56869.1047c.1675.08123.21441.02927.27749-.11339a9.73354,9.73354,0,0,1,1.60016-2.60273c.10848-.1213.0543-.2134.01348-.322a5.73843,5.73843,0,0,1-.4596-2.08,1.16915,1.16915,0,0,1,1.534-1.268A5.13682,5.13682,0,0,1,13.85764,7.4607a.35523.35523,0,0,0,.46259.06458,4.1768,4.1768,0,0,1,1.6007-.42379l.12058.01893.00294,2.128c-.17559.02546-.35442.03735-.52623.07853a4.92923,4.92923,0,0,0-2.98415,1.805,3.13428,3.13428,0,0,0-.6991,2.27645,3.258,3.258,0,0,0,1.75855,2.47176c-.163.13474-.37515.09478-.55987.15635a.5474.5474,0,0,0-.3528.87713,1.39909,1.39909,0,0,0,.7528.6008c.19516.07672.24957.12391.1004.32158a4.87866,4.87866,0,0,0-.79411,1.38808.23009.23009,0,0,1-.26042.17634,2.35994,2.35994,0,0,0-.83721.18076.63685.63685,0,0,0-.31623,1.06582,1.3814,1.3814,0,0,0,.31776.30967,4.98177,4.98177,0,0,0,1.46754.70408,9.24261,9.24261,0,0,0,2.93268.36882c-.001,1.07762.00243,2.15529-.00708,3.23284-.00175.19891.05136.30111.26023.28534-.076.06186-.17254.03588-.2573.06026a2.8623,2.8623,0,0,1-2.749-2.26709c-.06028-.20839-.207-.20765-.35465-.241a4.5639,4.5639,0,0,1-3.41864-2.76334,5.864,5.864,0,0,1-.41287-2.4165c.0032-.18773-.0006-.37558-.00118-.56337-.18165.038-.36268.07932-.54507.11338a2.90723,2.90723,0,0,1-2.3469-.48291.40383.40383,0,0,0-.331-.06511,6.774,6.774,0,0,1-2.83123-.148A3.40333,3.40333,0,0,1,1.80591,16.156c-.13183-.10747-.20373-.12918-.33852.00017a1.08269,1.08269,0,0,1-.71674.31806.55912.55912,0,0,1-.62625-.56415A.97259.97259,0,0,1,.67261,14.935c.14522-.07252.15214-.13339.10868-.26968A2.76989,2.76989,0,0,1,.654,13.28791.30213.30213,0,0,0,.506,12.94254.94428.94428,0,0,1,.04855,12.31075Zm3.86256.527a1.13516,1.13516,0,1,0-.02529,2.26469,1.1362,1.1362,0,1,0,.02529-2.26469Zm8.05782-3.103a.7117.7117,0,0,0,.1481-.00139c.41937-.09129.8683-.17187,1.032-.63688a.96326.96326,0,0,0-.29254-1.056,2.19584,2.19584,0,0,0-.95839-.51292.57364.57364,0,0,0-.80436.5807,3.5217,3.5217,0,0,0,.05354.94459A.74946.74946,0,0,0,11.96893,9.73483ZM6.63535,14.215c-.4184-.00536-.69751.16638-.738.42806-.04819.31136.11891.52814.514.65645a1.27232,1.27232,0,0,0,.7588.05367c.42309-.11849.53663-.453.2505-.78754A1.13951,1.13951,0,0,0,6.63535,14.215Zm2.58154,1.91022c.47161.00651.69732-.2968.4997-.67152a1.025,1.025,0,0,0-1.19571-.40941.42619.42619,0,0,0-.13813.74383A1.14471,1.14471,0,0,0,9.21689,16.12522Zm1.76094-.43037c-.23279-.0021-.36.08963-.36018.25971-.00024.23755.35794.51286.677.52438.18117.00653.318-.04217.3304-.25074C11.64053,15.96727,11.31117,15.69786,10.97783,15.69485Z"/><path class="c" d="M16.04446,9.24839l-.003-2.128a3.49712,3.49712,0,0,1,1.60691.38026.44.44,0,0,0,.565-.0765,5.09256,5.09256,0,0,1,2.17483-1.05956,1.89583,1.89583,0,0,1,.59356-.01987,1.07251,1.07251,0,0,1,.96351,1.10615,5.22993,5.22993,0,0,1-.43723,2.20226.39122.39122,0,0,0,.07444.46936A9.3734,9.3734,0,0,1,23.07819,12.582c.08727.20075.15405.2387.362.14094a2.142,2.142,0,0,1,1.54221-.07332.30658.30658,0,0,0,.39219-.13336,3.68687,3.68687,0,0,1,2.18349-1.45422.251.251,0,0,0,.23687-.26987.78329.78329,0,0,1,.80136-.81727.59775.59775,0,0,1,.655.78636c-.05237.23187-.01739.34.22367.402a2.19879,2.19879,0,0,1,.89058.46636.26531.26531,0,0,0,.40188.00889.72128.72128,0,0,1,1.2219.44705.8277.8277,0,0,1-.43349.82213.38851.38851,0,0,0-.1812.44782,2.57312,2.57312,0,0,1-.12135,1.26124c-.05067.16332-.05257.2434.13178.33685a.949.949,0,0,1,.51488.87924.59135.59135,0,0,1-.78805.62175.87978.87978,0,0,1-.39842-.18592c-.24809-.25593-.42226-.1626-.68177.01157a5.18618,5.18618,0,0,1-3.28732.70534c-.22737-.01192-.45377-.04765-.67972-.07887a.28066.28066,0,0,0-.221.0576,2.94262,2.94262,0,0,1-2.68893.42606c-.22028-.06256-.26435-.02859-.25164.197a6.28706,6.28706,0,0,1-.27421,2.41191,4.53178,4.53178,0,0,1-3.51745,3.09012.449.449,0,0,0-.4079.37144,2.77225,2.77225,0,0,1-2.40644,2.08686c-.20881.01581-.26192-.08639-.26017-.2853.00951-1.07755.00606-2.15522.00707-3.23287l-.00635-.01825a9.74444,9.74444,0,0,0,1.36452-.04314,7.08616,7.08616,0,0,0,2.54846-.74145,2.00986,2.00986,0,0,0,.76144-.60383.629.629,0,0,0-.30347-1.03112,2.36944,2.36944,0,0,0-.86487-.19133.23136.23136,0,0,1-.261-.17609,5.11249,5.11249,0,0,0-.81148-1.41212c-.12838-.17211-.08381-.21526.09053-.28461a1.44807,1.44807,0,0,0,.77928-.61411.547.547,0,0,0-.35238-.87694c-.18477-.06146-.39672-.0224-.56-.15653a3.10949,3.10949,0,0,0,.96781-.775,2.84165,2.84165,0,0,0,.80172-2.079,3.66194,3.66194,0,0,0-1.52025-2.71343,5.16051,5.16051,0,0,0-2.64019-1.04586Zm12.052,5.85411A1.13629,1.13629,0,1,0,26.895,13.95768,1.184,1.184,0,0,0,28.09647,15.1025ZM20.93164,8.41887c0-.099.00614-.19837-.001-.29681-.03712-.5101-.33033-.72521-.82179-.59138a2.36179,2.36179,0,0,0-.86407.44453A1.02678,1.02678,0,0,0,18.8462,8.999c.062.37318.35282.52524.674.63429a2.33387,2.33387,0,0,0,.22585.07213c.60675.139,1.08062-.11136,1.14174-.727C20.90631,8.792,20.92994,8.60639,20.93164,8.41887Zm4.18879,6.9844a1.46469,1.46469,0,0,0,.85752-.309.48256.48256,0,0,0-.117-.79342,1.1653,1.1653,0,0,0-1.27513.28181.43851.43851,0,0,0,.25452.76414C24.93525,15.37108,25.03262,15.3858,25.12043,15.40327Zm-2.33112.72106a1.12975,1.12975,0,0,0,.848-.334.42623.42623,0,0,0-.13315-.74482,1.035,1.035,0,0,0-1.09.263.5168.5168,0,0,0-.137.57248C22.36613,16.107,22.565,16.12927,22.78931,16.12433Zm-2.06436.35373c.31715-.00715.68708-.28338.67711-.52065-.0103-.24528-.19159-.26906-.38439-.26161-.31856.01232-.63367.279-.6206.52927C20.40794,16.4331,20.54336,16.48735,20.725,16.47806Z"/><path class="d" d="M13.59352,15.88016A3.258,3.258,0,0,1,11.835,13.4084a3.13428,3.13428,0,0,1,.6991-2.27645,4.92923,4.92923,0,0,1,2.98415-1.805c.17181-.04118.35064-.05307.52623-.07853l-.00653.01832.00288,4.703c-.01948.00341-.04376.00051-.05775.01114a5.94858,5.94858,0,0,1-2.02592,1.08081c-.2032.05537-.03582.13592.03471.184a4.05447,4.05447,0,0,0,2.05054.69907l-.00161.64869A5.43155,5.43155,0,0,1,13.59352,15.88016Zm-.47372-2.6615c-.0025.37538.21507.68869.47756.68768.26233-.001.47845-.31508.47494-.6902-.00339-.36177-.21014-.66247-.46259-.67278C13.346,12.53259,13.12232,12.84088,13.1198,13.21866Z"/><path class="e" d="M13.59352,15.88016a5.43155,5.43155,0,0,0,2.44725.71331l.001.00252,0,3.93482-.00026.23686-.00375,1.2436.00636.01829a9.2417,9.2417,0,0,1-2.93267-.36879,4.98177,4.98177,0,0,1-1.46754-.70408,1.3814,1.3814,0,0,1-.31776-.30967.63685.63685,0,0,1,.31623-1.06582,2.35994,2.35994,0,0,1,.83721-.18076.23009.23009,0,0,0,.26042-.17634,4.87866,4.87866,0,0,1,.79411-1.38808c.14917-.19767.09476-.24486-.1004-.32158a1.39909,1.39909,0,0,1-.7528-.6008.5474.5474,0,0,1,.3528-.87713C13.21837,15.97494,13.43048,16.0149,13.59352,15.88016Z"/><path class="f" d="M3.91111,12.83779a1.1362,1.1362,0,1,1-.02529,2.26469,1.13516,1.13516,0,1,1,.02529-2.26469Z"/><path class="d" d="M11.96893,9.73483a.74946.74946,0,0,1-.82162-.68187,3.5217,3.5217,0,0,1-.05354-.94459.57364.57364,0,0,1,.80436-.5807,2.19584,2.19584,0,0,1,.95839.51292.96326.96326,0,0,1,.29254,1.056c-.16373.465-.61266.54559-1.032.63688A.7117.7117,0,0,1,11.96893,9.73483Z"/><path class="g" d="M6.63535,14.215a1.13951,1.13951,0,0,1,.78531.35064c.28613.33453.17259.66905-.2505.78754a1.27232,1.27232,0,0,1-.7588-.05367c-.39511-.12831-.56221-.34509-.514-.65645C5.93784,14.38138,6.217,14.20964,6.63535,14.215Z"/><path class="e" d="M9.21693,16.12511a1.1442,1.1442,0,0,1-.83418-.337.42619.42619,0,0,1,.13813-.74383,1.025,1.025,0,0,1,1.19571.40941C9.91421,15.82842,9.6885,16.13173,9.21693,16.12511Z"/><path class="e" d="M10.97783,15.69485c.33334.003.6627.27242.64719.53335-.0124.20857-.14923.25727-.3304.25074-.319-.01152-.67721-.28683-.677-.52438C10.61782,15.78448,10.745,15.69275,10.97783,15.69485Z"/><path class="h" d="M16.04077,16.59347l.0016-.64875-.00287-.01334a3.89526,3.89526,0,0,0,2.018-.70064c.04151-.02749.099-.05068.0924-.10423-.00646-.05221-.06328-.06714-.11348-.07917a3.95307,3.95307,0,0,1-1.16406-.51008q-.41411-.2573-.82938-.51272-.00012-.02745-.00217-.05482l-.00288-4.703a5.16071,5.16071,0,0,1,2.64018,1.04588A3.66194,3.66194,0,0,1,20.19835,13.026a2.84165,2.84165,0,0,1-.80172,2.079,3.109,3.109,0,0,1-.96783.77494,5.364,5.364,0,0,1-2.38708.716ZM18.9026,13.2274c.00106-.37517-.21895-.68788-.4812-.684-.26146.00391-.47619.32-.47119.6937.00483.36166.21368.6615.46605.66908C18.67908,13.91411,18.90153,13.60362,18.9026,13.2274Z"/><path class="i" d="M16.04172,16.596a5.364,5.364,0,0,0,2.38708-.716c.16326.13415.37521.09509.56.15655a.547.547,0,0,1,.35238.87694,1.44807,1.44807,0,0,1-.77928.61411c-.17434.06935-.21891.1125-.09053.28461a5.11249,5.11249,0,0,1,.81148,1.41212.23136.23136,0,0,0,.261.17609,2.36944,2.36944,0,0,1,.86487.19133.629.629,0,0,1,.30347,1.03112,2.00986,2.00986,0,0,1-.76144.60383,7.08616,7.08616,0,0,1-2.54846.74145,9.74444,9.74444,0,0,1-1.36452.04314l.00373-1.24363a.14509.14509,0,0,0,.00027-.23687Z"/><path class="j" d="M28.09647,15.1025a1.13526,1.13526,0,1,1,1.24134-1.10484A1.17756,1.17756,0,0,1,28.09647,15.1025Z"/><path class="h" d="M20.93164,8.41887c-.0017.18752-.02533.37317-.04383.55953-.06112.61562-.535.866-1.14174.727a2.33387,2.33387,0,0,1-.22585-.07213c-.3212-.109-.612-.26111-.674-.63429a1.02678,1.02678,0,0,1,.39855-1.02375,2.36179,2.36179,0,0,1,.86407-.44453c.49146-.13383.78467.08128.82179.59138C20.93778,8.2205,20.93164,8.31991,20.93164,8.41887Z"/><path class="k" d="M25.12043,15.40327c-.08781-.01747-.18518-.03219-.28009-.05651a.43851.43851,0,0,1-.25452-.76414,1.1653,1.1653,0,0,1,1.27513-.28181.48256.48256,0,0,1,.117.79342A1.46469,1.46469,0,0,1,25.12043,15.40327Z"/><path class="i" d="M22.78931,16.12433c-.22433.00494-.42318-.01736-.51207-.24335a.5168.5168,0,0,1,.137-.57248,1.035,1.035,0,0,1,1.09-.263.42623.42623,0,0,1,.13315.74482A1.12975,1.12975,0,0,1,22.78931,16.12433Z"/><path class="i" d="M20.72484,16.47822c-.18148.00913-.3169-.04512-.32777-.25315-.01307-.25026.302-.51695.6206-.52927.1928-.00745.37409.01633.38439.26161C21.412,16.19468,21.0421,16.47091,20.72484,16.47822Z"/><path class="l" d="M16.0408,13.96972q.00205.02738.00215.05487-.00174.95345-.00345,1.90679l.00287.01334a4.05383,4.05383,0,0,1-2.05053-.699c-.07053-.04812-.23791-.12867-.03471-.184a5.94858,5.94858,0,0,0,2.02592-1.08081C15.997,13.97023,16.02132,13.97313,16.0408,13.96972Z"/><path class="m" d="M13.1198,13.21866c.00252-.37778.22618-.68607.48991-.6753.25245.01031.4592.311.46259.67278.00351.37512-.21261.68919-.47494.6902C13.33487,13.90735,13.1173,13.594,13.1198,13.21866Z"/><path class="n" d="M16.0395,15.93138q.00171-.95337.00345-1.90679.41476.25621.8294.51267a3.95307,3.95307,0,0,0,1.16406.51008c.0502.012.107.027.11348.07917.00662.05355-.05089.07674-.0924.10423A3.89526,3.89526,0,0,1,16.0395,15.93138Z"/><path class="m" d="M18.9026,13.2274c-.00107.37622-.22352.68671-.48634.67882-.25237-.00758-.46122-.30742-.46605-.66908-.005-.37367.20973-.68979.47119-.6937C18.68365,12.53952,18.90366,12.85223,18.9026,13.2274Z"/></svg>