<svg xmlns="http://www.w3.org/2000/svg" viewBox="0 0 32 32"><title>580-ducklett</title><path d="M12.69214,27.3086a7.56347,7.56347,0,0,1,.03961.98612,1.09765,1.09765,0,0,0,.45926,1.0271c.61381.50033,1.19086,1.04574,1.78329,1.57229l.00521.06236a1.80281,1.80281,0,0,0-1.556.22586c-.10911.077-.18068.03427-.27662-.00783a2.234,2.234,0,0,0-2.12944.212h-.0619a1.642,1.642,0,0,0-1.25183-.56979c-.083-.00181-.1948.05635-.24189-.04363-.01152-.02446.10029-.11386.16231-.165.5555-.45842,1.10145-.92952,1.67381-1.36594a.99992.99992,0,0,0,.39232-.82587c.01083-.26732.00778-.5352.01088-.80284Z" style="fill:#ffda40"/><path d="M17.0257,30.89412c.68321-.61047,1.36394-1.22375,2.05182-1.8289a.48983.48983,0,0,0,.17977-.39882c.006-.45272.032-.90517.05-1.35775q.49585.15234.99167.30473a7.4739,7.4739,0,0,0,.04624,1.078.71537.71537,0,0,0,.2662.46638q.88563.72136,1.76482,1.45065c.062.05119.17384.14107.16242.16478-.04781.09932-.15912.04137-.24218.04328a1.64309,1.64309,0,0,0-1.252.57h-.0619a2.23478,2.23478,0,0,0-2.1295-.2124c-.09584.042-.16718.08534-.27649.00824a1.80241,1.80241,0,0,0-1.55609-.226Z" style="fill:#f0d049"/><path d="M32,15.29369v.619a.54537.54537,0,0,0-.05716.00245l.00063-.624A.5472.5472,0,0,0,32,15.29369Z" style="fill:#f4cfd4"/><path d="M0,15.85075v-.55706q.0288.00022.05747-.00232l-.00072.56172A.35631.35631,0,0,0,0,15.85075Z" style="fill:#fad2d7"/><path d="M0,15.85075a.35954.35954,0,0,1,.0568.00232l-.00149.18574A.32361.32361,0,0,0,0,16.03644Z" style="fill:#fce7e9"/><path d="M.05747,15.29137Q.02879,15.29392,0,15.29369V15.1699q.02759,0,.05513-.002Z" style="fill:#fdeaec"/><path d="M32,15.29369a.55446.55446,0,0,1-.05658-.00258l.00209-.12341q.02721.00216.05449.0022Z" style="fill:#fae8ea"/><path d="M31.94284,15.9151A.54537.54537,0,0,1,32,15.91265v.12379q-.02682.00015-.05361.00224Z" style="fill:#fae9ec"/><path d="M.05747,15.29137l-.00234-.1235c.04113-.2378.10708-.47913.37413-.53493a.58349.58349,0,0,1,.56414.28659.19041.19041,0,0,0,.121.12587A.08746.08746,0,0,0,1.124,15.067l.01577.00481-.02642-.0254c.00091-.04991-.00393-.09724-.05568-.12339a9.83936,9.83936,0,0,1-.65993-2.682,4.751,4.751,0,0,1,.113-1.77462c.20608-.71121.777-.84674,1.30606-.32257.10214.1012.19333.21344.28957.3206l.0608.12424c.01775.04173.04129.10163.08846.08138s.00809-.05824-.02272-.07981c-.00871-.08725.01413-.18257-.06445-.252a10.0615,10.0615,0,0,1-.19156-2.08092,2.799,2.799,0,0,1,.11182-.66564A.95986.95986,0,0,1,3.6897,7.06864,4.95121,4.95121,0,0,1,4.82611,8.43629a21.08441,21.08441,0,0,1,1.34306,2.429,12.14875,12.14875,0,0,0,4.33029,4.91323c.22925.15613.46759.29891.70173.44784A10.67653,10.67653,0,0,0,9.31211,19.9209a2.58849,2.58849,0,0,1-.33646,1.00024,5.65457,5.65457,0,0,1-3.0585.93047,1.89372,1.89372,0,0,1-1.04739-.32206c-.12564-.08652-.27244-.18157-.24533-.36211.02688-.17894.18979-.22879.33748-.28.12287-.04265.24657-.08293.3699-.12426-.11844-.11565-.27208-.06655-.41077-.0884a5.86558,5.86558,0,0,1-3.42416-1.62655A5.16132,5.16132,0,0,1,.05535,16.0388l.00145-.18573Z" style="fill:#d2e6f3"/><path d="M31.94284,15.9151l.00355.12358a5.35211,5.35211,0,0,1-5.07978,4.64716,1.98684,1.98684,0,0,0-.23532.002c-.0403.0047-.11241.01974-.07954.08374.01263.02457.08678.01754.1329.0249.13812.03868.28028.06684.41358.11806.35119.135.38424.35413.07848.58022a2.22973,2.22973,0,0,1-1.68278.33759A6.1366,6.1366,0,0,1,23.02405,20.92c-.14931-.10847-.14669-.28316-.18452-.43729a10.79834,10.79834,0,0,0-2.0408-4.256,12.48911,12.48911,0,0,0,4.95542-5.20711,20.04752,20.04752,0,0,1,1.83447-3.18191,3.54282,3.54282,0,0,1,.71339-.76452.972.972,0,0,1,1.628.57126,4.496,4.496,0,0,1,.05825,1.62717c-.03682.357-.10367.71091-.157,1.06623-.0767.07-.05623.165-.06476.25247-.03114.02179-.06926.0605-.02216.08032.04733.01992.071-.03985.08833-.08211l.06072-.12426a4.992,4.992,0,0,1,.42672-.44477.6417.6417,0,0,1,1.07044.22092,2.36739,2.36739,0,0,1,.23029,1.04488,8.23436,8.23436,0,0,1-.58165,3.34625c-.0375.09522-.06526.19427-.09748.29153-.05239.02587-.05633.0734-.055.12329l-.02679.02568.016-.00483a.08822.08822,0,0,0,.00966-.02193.18743.18743,0,0,0,.12052-.12615.58734.58734,0,0,1,.5644-.28613c.26682.0567.33259.29751.37495.53468l-.00206.1234Z" style="fill:#b0d3ea"/><path d="M8.97565,20.92114a2.58849,2.58849,0,0,0,.33646-1.00024,10.67653,10.67653,0,0,1,1.88908-3.69453,8.35483,8.35483,0,0,1,2.44268-2.00231,1.9625,1.9625,0,0,0,.93752-1.42089,3.79179,3.79179,0,0,0,.09363-.85558c.00076-.18894-.064-.2374-.24864-.25116a3.98035,3.98035,0,0,1-2.16709-.79258,1.453,1.453,0,0,1-.40278-.42045,3.99643,3.99643,0,0,0-1.72917-1.3903c-.09913-.05471-.2015-.10355-.30231-.15523-.07846-.04023-.12489-.08448-.01945-.14914a3.1053,3.1053,0,0,0,1.247-1.79045,4.9475,4.9475,0,0,1,2.95-2.9621,4.26833,4.26833,0,0,1,.57791-.21376c.25086-.07266.25-.19072.12852-.39333a6.53843,6.53843,0,0,1-.86841-1.86536.71109.71109,0,0,1,.18682-.81747.72143.72143,0,0,1,.84048.00668,2.77657,2.77657,0,0,1,.90227.95435c.07166.10517.09978.25612.261.27947l.00211,6.24277a2.47858,2.47858,0,0,0-1.19849.41348,4.38855,4.38855,0,0,0-.94991.89476,1.09569,1.09569,0,0,0,.70128.49468,4.09327,4.09327,0,0,0,1.44743.19586q-.0018,4.26417-.00358,8.52838-.00306.02721-.00423.05451a2.72975,2.72975,0,0,1-.49358-.62142,1.9205,1.9205,0,0,0-1.96518-.81973,1.96444,1.96444,0,0,0-1.46758,2.49469,4.19249,4.19249,0,0,0,1.08448,2.17557q-.00075.03075-.00011.06152c-.14787-.07282-.29363-.15035-.44394-.21773A4.67633,4.67633,0,0,0,8.979,21.54946C8.9022,21.34042,9.12144,21.12982,8.97565,20.92114ZM14.07807,7.43582a.91748.91748,0,0,0-.45994-1.115.70213.70213,0,0,0-1.08223.19282,1.84748,1.84748,0,0,0-.00483,1.955.74705.74705,0,0,0,1.28513.0209,1.09051,1.09051,0,0,0,.238-.56085c.06566-.04857.05773-.11759.05167-.18608l.00241-.1838Z" style="fill:#e2eff7"/><path d="M16.02988,18.75667l.00358-8.52838-.0057-.02025a3.2217,3.2217,0,0,0,1.38563-.1767,1.073,1.073,0,0,0,.70273-.49335c-.07185-.08424-.14055-.17143-.21608-.25223a2.7432,2.7432,0,0,0-1.87289-1.0362l.006-.02005L16.031,1.98676a6.02759,6.02759,0,0,1,.8205-1.03713,1.117,1.117,0,0,1,.74468-.326.56343.56343,0,0,1,.59891.60054,3.52411,3.52411,0,0,1-.53261,1.56046c-.12485.24773-.266.488-.41213.724-.09813.15841-.0606.21942.11184.27969a7.37318,7.37318,0,0,1,2.1661,1.15908A4.09153,4.09153,0,0,1,20.875,6.8239a4.69266,4.69266,0,0,0,1.01519,1.74932c.11076.11336.38325.13524.31982.3246-.0376.11224-.27427.155-.41812.23491a4.88964,4.88964,0,0,0-1.73217,1.44055,3.0374,3.0374,0,0,1-2.02771,1.0674c-.08045.01587-.16179.02715-.24245.042-.47353.08716-.49562.08931-.45186.57165a2.35406,2.35406,0,0,0,1.284,2.12721,7.10669,7.10669,0,0,1,2.17695,1.84518,10.79854,10.79854,0,0,1,2.04081,4.256c.03783.15413.03521.32882.18452.43729-.14685.2089.0741.41983-.00341.62912a4.46854,4.46854,0,0,0-1.16423-.258,5.90967,5.90967,0,0,0-2.91458.75138l-.06722.055q-.02909.00308-.05829.00433.00058-.03081-.00012-.06159a3.9762,3.9762,0,0,0,1.11631-2.82506,1.82534,1.82534,0,0,0-1.18058-1.75691,1.88548,1.88548,0,0,0-2.02161.4408C16.457,18.15653,16.28678,18.49039,16.02988,18.75667Zm1.89229-11.3203-.03067.12234.00221.18371c-.00553.06855-.01386.13788.05232.18628a1.08313,1.08313,0,0,0,.23777.56081A.7474.7474,0,0,0,19.469,8.46862a1.848,1.848,0,0,0-.00471-1.95489A.70253.70253,0,0,0,18.382,6.32078.91767.91767,0,0,0,17.92217,7.43637Z" style="fill:#d2e6f3"/><path d="M29.76649,10.59034c.00853-.0875-.01194-.18244.06476-.25247a.14088.14088,0,0,0,.06214.12644l-.06072.12425Z" style="fill:#fbeef0"/><path d="M2.16721,10.58869l-.0608-.12424a.13884.13884,0,0,0,.06207-.12611c.0786.06935.05576.16467.06444.25191Z" style="fill:#fdeff1"/><path d="M1.0577,14.923c.05175.02615.05659.07348.05568.12339l.001-.001a.19038.19038,0,0,1-.121-.12586Z" style="fill:#fad8dc"/><path d="M30.88671,15.0464c-.00134-.0499.0026-.09743.055-.1233l.06445-.00392a.18751.18751,0,0,1-.12054.12613Z" style="fill:#f5d4d8"/><path d="M13.18379,22.04031a4.19249,4.19249,0,0,1-1.08448-2.17557,1.96444,1.96444,0,0,1,1.46758-2.49469,1.9205,1.9205,0,0,1,1.96518.81973,2.731,2.731,0,0,0,.49362.6215q.00307,4.45664.00608,8.91312a3.39921,3.39921,0,0,1-2.40777-.76228c-.07932-.07756-.13848-.05656-.21647-.01627-.23755.12272-.47684.242-.71542.36273l-.991.30486a5.741,5.741,0,0,1-1.99309.001,3.82966,3.82966,0,0,1-.78613-.27122A1.34646,1.34646,0,0,1,8.40737,25.244c.13651-.185.16525-.28957-.00105-.48468a2.39019,2.39019,0,0,1-.603-1.39568,1.50716,1.50716,0,0,1,.66419-1.471c.17092-.11369.34094-.22874.51139-.34315a4.67644,4.67644,0,0,1,3.7608.33466c.15031.06738.29607.14491.44394.21773.01912.03253.05492.07484.078.02949C13.286,22.08354,13.22419,22.06005,13.18379,22.04031Z" style="fill:#b0d3ea"/><path d="M16.03177,27.7244q-.003-4.45651-.00608-8.91312c.00074-.01829.00215-.03645.00419-.05459.2569-.2663.42716-.60016.70044-.85757a1.88548,1.88548,0,0,1,2.02161-.4408,1.82534,1.82534,0,0,1,1.18058,1.75691,3.9762,3.9762,0,0,1-1.11631,2.82506c-.04027.01983-.10211.04319-.07786.091.02306.04541.05877.00294.078-.02937q.0292-.00126.05831-.0043l.0672-.055a5.90967,5.90967,0,0,1,2.91458-.75138,4.46854,4.46854,0,0,1,1.16423.258c.112.07218.222.14792.33648.21595a1.70023,1.70023,0,0,1,.6801,2.25526,2.27733,2.27733,0,0,1-.46119.76326c-.1643.16971-.13344.27391-.00053.43379a1.4327,1.4327,0,0,1,.31066.9797,1.21286,1.21286,0,0,1-.699,1.08588,4.15712,4.15712,0,0,1-2.61346.363c-.09146-.01173-.18313-.02183-.27471-.03268l-.99167-.30472-.02653-.01589c-.44842-.25647-.8267-.46253-1.35953-.01366A3.007,3.007,0,0,1,16.03177,27.7244Z" style="fill:#9fc9e4"/><path d="M26.68465,20.79651c-.04612-.00736-.12027-.00033-.1329-.0249-.03287-.064.03924-.079.07954-.08374a1.98684,1.98684,0,0,1,.23532-.002Z" style="fill:#f4cdd1"/><path d="M14.97951,30.95647l-.00521-.06236c.04437.01495.10354.03886.08215.08755C15.03609,31.028,14.99724,30.994,14.97951,30.95647Z" style="fill:#faf6b6"/><path d="M17.0257,30.89412l-.00519.06228c-.01757.03792-.05657.07163-.07694.02539C16.92208,30.933,16.98121,30.909,17.0257,30.89412Z" style="fill:#f6f2b6"/><path d="M2.16721,10.58869l.06571.00156c.03084.02158.06977.05963.02275.07982S2.185,10.63042,2.16721,10.58869Z" style="fill:#facdd2"/><path d="M1.11338,15.04638l.02642.0254L1.124,15.067a.08746.08746,0,0,1-.00966-.02157Z" style="fill:#fad0d5"/><path d="M29.76649,10.59034l.06618-.00178c-.01732.04225-.041.102-.08834.0821C29.69723,10.65084,29.73535,10.61213,29.76649,10.59034Z" style="fill:#f3c8cd"/><path d="M30.88561,15.04531a.08822.08822,0,0,1-.00966.02193l-.016.00483.02679-.02568Z" style="fill:#f4cbd0"/><path d="M14.10825,7.55882l-.00229.18375c-.06492.04875-.05522.11828-.05172.1861a1.09051,1.09051,0,0,1-.238.56085.74705.74705,0,0,1-1.28513-.0209,1.84748,1.84748,0,0,1,.00483-1.955.70211.70211,0,0,1,1.08221-.19282c-.49187-.09462-.84909.50576-.716,1.07157A.69067.69067,0,0,0,13.391,7.974c.27321.06969.442-.10608.59734-.29358a.10773.10773,0,0,0,.06093-.12488l-.00015.00046Z" style="fill:#fcf9fe"/><path d="M13.98836,7.68041c-.15538.1875-.32413.36327-.59734.29358a.69067.69067,0,0,1-.48892-.58162c-.13308-.56581.22414-1.16619.716-1.07157a.91749.91749,0,0,1,.46,1.11507l-.02892.12012.00015-.00046Z" style="fill:#3c3b3b"/><path d="M13.88475,9.53777a4.38855,4.38855,0,0,1,.94991-.89476,2.47858,2.47858,0,0,1,1.19849-.41348l-.006.02.0034,1.03939c-.19246.01482-.38374.00013-.57878.03308C14.93213,9.4098,14.40744,9.46788,13.88475,9.53777Z" style="fill:#ffda40"/><path d="M13.88475,9.53777c.52269-.06989,1.04738-.128,1.567-.21577.195-.03295.38632-.01826.57878-.03308l.00076.00181-.00357.91729.0057.02027a4.0928,4.0928,0,0,1-1.44743-.19584A1.09569,1.09569,0,0,1,13.88475,9.53777Z" style="fill:#f0d049"/><path d="M14.05424,7.92867c-.0035-.06782-.0132-.13735.05172-.1861C14.112,7.81108,14.1199,7.8801,14.05424,7.92867Z" style="fill:#e7dce1"/><path d="M13.18379,22.04031c.0404.01974.10216.04323.07787.091-.02306.04535-.05886.003-.078-.02949Q13.183,22.07107,13.18379,22.04031Z" style="fill:#d893ca"/><path d="M14.04914,7.556l.02892-.12012.03023.12293Z" style="fill:#e7dce1"/><path d="M17.89371,7.74242l-.00224-.18373q.02962-.00189.05938-.00269l-.00016-.00048a.109.109,0,0,0,.061.12488c.18654.22862.3948.40525.71265.25192a.92253.92253,0,0,0,.37959-.99863.6808.6808,0,0,0-.72192-.61291.70253.70253,0,0,1,1.08228.19295A1.848,1.848,0,0,1,19.469,8.46862a.7474.7474,0,0,1-1.28521.02089,1.08285,1.08285,0,0,1-.23774-.5608C17.9492,7.86083,17.95908,7.79105,17.89371,7.74242Z" style="fill:#f0edf2"/><path d="M18.382,6.32078a.6808.6808,0,0,1,.72192.61291.92253.92253,0,0,1-.37959.99863c-.31785.15333-.52611-.0233-.71265-.25192l-.061-.12488.00016.00048-.02868-.11963A.91767.91767,0,0,1,18.382,6.32078Z" style="fill:#393838"/><path d="M16.03057,9.28892l-.0034-1.03939A2.74335,2.74335,0,0,1,17.9,9.28576c.07553.0808.14423.168.21618.25223-.10055-.01179-.20169-.02047-.30178-.0359a11.67765,11.67765,0,0,0-1.78311-.21136Z" style="fill:#f0d049"/><path d="M16.03133,9.29073a11.67765,11.67765,0,0,1,1.78311.21136c.10009.01543.20123.02411.30178.0359a1.07345,1.07345,0,0,1-.70283.49335,3.2217,3.2217,0,0,1-1.38563.1767Z" style="fill:#dfc24b"/><path d="M17.89371,7.74242c.06537.04863.05549.11841.05235.18629C17.87985,7.8803,17.88818,7.811,17.89371,7.74242Z" style="fill:#dcd2d7"/><path d="M18.81632,22.10188c-.01921.03231-.05492.07478-.078.02937-.02425-.04777.03759-.07113.07786-.091Q18.8169,22.07109,18.81632,22.10188Z" style="fill:#cd8cc0"/><path d="M17.92217,7.43637l.02868.11963q-.02973.00081-.05938.00269Z" style="fill:#dcd2d7"/><path d="M18.94183,22.04259l-.0672.055Z" style="fill:#cd8cc0"/><path d="M13.98836,7.68041l.06093-.12488A.10773.10773,0,0,1,13.98836,7.68041Z" style="fill:#e7dce1"/><path d="M17.95069,7.55552l.061.12488A.109.109,0,0,1,17.95069,7.55552Z" style="fill:#dcd2d7"/></svg>