<svg xmlns="http://www.w3.org/2000/svg" viewBox="0 0 32 32"><title>581-swanna</title><path d="M14.50733.16206h-.05976c-.06763.10451.02281.155.07055.22665a2.88248,2.88248,0,0,1,.53295,1.63086A2.69232,2.69232,0,0,1,14.68078,3.282c-.01662.03185-.038.08818-.02412.10378.03709.04176.06245-.01326.09109-.03214a2.274,2.274,0,0,1,1.25518-.37787V2.6246A3.82226,3.82226,0,0,0,14.50733.16206Z" style="fill:#edeeee"/><path d="M13.5445,28.57748a2.6249,2.6249,0,0,1-.378-.76525c-.22636-.70742-.466-1.41059-.70057-2.11539-.02117-.06361-.08156-.14143-.01023-.18917.07241-.04848.1186.04162.16974.083a5.44694,5.44694,0,0,0,2.38339,1.07288c.397.08163.40486.07186.3328.44963-.09608.50366-.19992,1.00588-.30437,1.5079-.05524.26551-.24051.34278-.48827.31924A4.67749,4.67749,0,0,1,13.5445,28.57748Z" style="fill:#edeeee"/><path d="M14.03,4.34032a1.94751,1.94751,0,0,0,.19626,1.94186c.04288.07517.15882.15262.10457.22765-.06654.092-.20272.04535-.30436.02647a1.701,1.701,0,0,1-1.08569-2.79184c.191-.291.36774-.63976.8192-.64526.08408-.001.18362-.16844.24485-.2767a1.05928,1.05928,0,0,1,.40349-.34008c.04914-.03191.109-.0657.16668-.02827.07255.04708.05234.12153.03191.18805a4.2443,4.2443,0,0,1-.49417,1.41854.39776.39776,0,0,0-.08333.28025Z" style="fill:#edeeee"/><path d="M15.99914,4.74928A.984.984,0,0,0,15.013,5.9326a8.05835,8.05835,0,0,0,.65153,2.60524,1.392,1.392,0,0,0,.33844.52115V4.7506Z" style="fill:#ffda40"/><path d="M11.34746,20.93565c.033.02135.06921.06225.02493.08162-.04688.02051-.07113-.03941-.08823-.08192Z" style="fill:#d9e7f3"/><path d="M15.76506,31.55528l-.006.08169.05961.04548.11435.0524-.06144-.05459A.1608.1608,0,0,0,15.76506,31.55528Z" style="fill:#626283"/><polygon points="15.938 31.737 15.933 31.735 15.937 31.738 15.938 31.737" style="fill:#626283"/><path d="M14.75657,4.89876a1.41328,1.41328,0,0,0-.257-.31768l-.05452-.05677-.00182-.00219-.05845-.05589-.003-.00226-.1145-.13548c-.06493-.06559-.123-.0755-.16864.01953V4.34773l-.06784-.00664.06318.059.05932.02376.12018.09022.00168.00241.04992.06705-.001-.00139.05546.07113a.63681.63681,0,0,0,.14459.40578c.05874.05423.12207.11027.20456.04482A.13989.13989,0,0,0,14.75657,4.89876Z" style="fill:#211915"/><polygon points="14.029 4.341 14.031 4.341 14.03 4.34 14.029 4.341" style="fill:#211915"/><path d="M14.44324,4.52213l-.0584-.05587Z" style="fill:#6c6c6c"/><path d="M14.27519,4.51645l.05.067Z" style="fill:#6c6c6c"/><path d="M14.49959,4.58112l-.05451-.05677Z" style="fill:#6c6c6c"/><path d="M14.3241,4.58214l.05548.07108Z" style="fill:#6c6c6c"/><path d="M14.891,30.62937a1.01793,1.01793,0,0,1-.28189-.50825,5.96475,5.96475,0,0,1-.06013-1.18077,4.68081,4.68081,0,0,1-1.00447-.36286c.13927.476.2722.95339.36563,1.44123a.37023.37023,0,0,1-.25362.483,4.64165,4.64165,0,0,0-1.5402.99559.1848.1848,0,0,0-.11733.12l-.05087.05845.05145-.00933a.16531.16531,0,0,0,.12113-.08848,1.87048,1.87048,0,0,1,.57967-.22c.20332-.0191.4084.0274.47873.2179.07812.21156.1349.18256.28779.07929.59534-.40207.88161-.37153,1.4338.12637.03433.031.06683.09737.10626.02121.18613-.36038.47531-.23059.75217-.16573l.006-.08169C15.47442,31.246,15.1883,30.93217,14.891,30.62937Z" style="fill:#5c6664"/><polygon points="11.944 31.681 11.948 31.676 11.94 31.677 11.944 31.681" style="fill:#5c6664"/><path d="M13.82563,14.85161a7.77229,7.77229,0,0,1-2.4468.1252,7.22421,7.22421,0,0,1-2.41167-.69744,7.67361,7.67361,0,0,1-4.13378-5.1596A12.8301,12.8301,0,0,1,4.536,5.8469a1.79661,1.79661,0,0,0-.131-.75341c-.107-.246-.2523-.2792-.46437-.11595a1.259,1.259,0,0,0-.34676.47822,7.26118,7.26118,0,0,0-.78875,3.17215c.00014.03885.03665.09956-.03163.1161-.009.00219-.03666-.06013-.05124-.09452-.17009-.40163-.32955-.807-.469-1.22093-.11129-.33028-.30886-.35979-.54921-.10348a1.02577,1.02577,0,0,0-.21.39026,3.67977,3.67977,0,0,0-.17665,1.04893,17.0261,17.0261,0,0,0,.50482,4.22917c.01873.0852.0758.19626-.00328.24349-.07083.04234-.12709-.07266-.17833-.12666a13.47459,13.47459,0,0,1-1.16976-1.3817.27949.27949,0,0,0-.301-.14488.26.26,0,0,0-.16149.2636,2.37873,2.37873,0,0,0,.025.62216A9.29953,9.29953,0,0,0,1.0535,14.93323a1.84308,1.84308,0,0,1,.33881.9617A1.90851,1.90851,0,0,0,1.72624,16.899a3.9733,3.9733,0,0,0,2.43025,1.64164,5.34834,5.34834,0,0,0,1.278.24837.23015.23015,0,0,1,.18387.08162c-.05313.01822-.10582.03812-.1596.05437-.17054.05145-.34107.103-.51241.15181-.16652.04729-.4299.03665-.4291.23823.00087.221.26527.25646.45315.3082a5.643,5.643,0,0,0,2.49723.05969,9.68208,9.68208,0,0,0,3.10351-1.06788c.2069-.1158.239-.04759.28458.11406.00409-.40433.00613-.80873.01356-1.21306.00189-.10611.00153-.246.09941-.28764.09138-.03892.17395.07353.24151.14327.1857.19167.36607.38844.54855.58317l.06239.06195.00452-.1279a.17466.17466,0,0,0-.01371-.05248c-.06391-.18015-.01384-.27321.19007-.2488.12768-.17636.25318-.35433.38341-.52866.50912-.68177,1.02087-1.3615,1.52759-2.045.03717-.05007.12178-.09868.07871-.17163C13.97853,14.82012,13.88189,14.84024,13.82563,14.85161Z" style="fill:#edeeee"/><path d="M12.94891,17.83668a6.80078,6.80078,0,0,0-.9469-.249c-.20391-.02441-.254.06865-.19014.2488a.17273.17273,0,0,1,.01378.05248l-.00452.1279-.06239-.06195c-.18248-.19473-.36285-.3915-.54855-.58317-.06756-.06974-.15013-.18219-.24151-.14327-.09788.04168-.09752.18153-.09941.28764-.00743.40433-.00947.80873-.01348,1.21306a8.50371,8.50371,0,0,0,.4917,2.20652c.033.02128.06917.06224.02493.08162-.04693.02048-.07113-.03943-.08826-.082-.28466-.33043-.56815-.6618-.85536-.99-.03513-.04016-.07383-.11427-.13978-.076-.02646.01538-.02332.08906-.02624.13664a4.71989,4.71989,0,0,0,.35222,2.15267,2.15742,2.15742,0,0,0,1.7487,1.444,3.34028,3.34028,0,0,0,2.36977-.6043,1.69029,1.69029,0,0,0,.74226-1.506A4.42723,4.42723,0,0,0,12.94891,17.83668Z" style="fill:#b0d3ea"/><polygon points="14.335 4.583 14.334 4.582 14.334 4.582 14.335 4.583" style="fill:#f1f1f1"/><polygon points="14.04 4.34 14.039 4.341 14.04 4.341 14.04 4.34" style="fill:#f1f1f1"/><path d="M15.82431,8.82979a7.53767,7.53767,0,0,1-.80509-2.95629.93505.93505,0,0,1,.98371-1.09485V2.97289a2.9806,2.9806,0,0,0-1.366.41249c-.09314.042-.08206.22475-.24079.17825-.101.26739-.33939.47167-.3571.77739l.00036-.00007.00022-.00066.00037.00059a.19275.19275,0,0,0,.05035-.00933c.06129-.06071.12331-.07725.18657-.0027l.11449.13519.003.00226.0583.05582.002.00226.05429.05663a1.406,1.406,0,0,1,.25683.31738.13991.13991,0,0,1-.02755.20508c-.08257.06479-.1459.00926-.20464-.045a.63883.63883,0,0,1-.14445-.40549l-.05538-.07084.001.00131-.0011-.00145.00008.00014-.04891-.06552L14.28294,4.514l-.12455-.05378L14.09069,4.41,14.04,4.34088l-.00059.00007A1.67245,1.67245,0,0,0,13.892,5.42282a3.62806,3.62806,0,0,0,.5041,1.12553,1.978,1.978,0,0,1,.59206,1.25954,9.38675,9.38675,0,0,1,.1784,2.44709,10.46207,10.46207,0,0,1-.976,4.29819.65985.65985,0,0,1-.27154.29217c.17184.10392-.00335.18329-.03834.23248-.6043.85063-1.28345,1.64558-1.86924,2.51028a4.596,4.596,0,0,1,1.13726.33451,4.36352,4.36352,0,0,1,2.30687,3.18775,1.71262,1.71262,0,0,1-.50708,1.7221,2.89387,2.89387,0,0,1-3.89335.07193,5.30182,5.30182,0,0,0,.696,1.55062c.18657.31053.40928.59935.61582.89793a5.54952,5.54952,0,0,0,2.299,1.21691c.25041.06639.53558.02383.74911.21769a.321.321,0,0,1,.25318-.03083c.18278.03928.28051.05123.33473.00991V9.05913A.44277.44277,0,0,1,15.82431,8.82979Z" style="fill:#f7f7f7"/><path d="M17.4956.16206h.05976c.06763.10451-.02281.155-.07055.22665a2.88248,2.88248,0,0,0-.53295,1.63086A2.69232,2.69232,0,0,0,17.32215,3.282c.01662.03185.038.08818.02412.10378-.03709.04176-.06245-.01326-.0911-.03214A2.27394,2.27394,0,0,0,16,2.97573V2.6246A3.82226,3.82226,0,0,1,17.4956.16206Z" style="fill:#e3e5e5"/><path d="M18.45843,28.57748a2.6249,2.6249,0,0,0,.378-.76525c.22636-.70742.466-1.41059.70057-2.11539.02117-.06361.08156-.14143.01023-.18917-.07241-.04848-.1186.04162-.16974.083a5.44694,5.44694,0,0,1-2.38339,1.07288c-.397.08163-.40486.07186-.3328.44963.09608.50366.19992,1.00588.30437,1.5079.05524.26551.24051.34278.48827.31924A4.67749,4.67749,0,0,0,18.45843,28.57748Z" style="fill:#e3e5e5"/><path d="M17.97294,4.34032a1.94751,1.94751,0,0,1-.19626,1.94186c-.04288.07517-.15882.15262-.10457.22765.06654.092.20271.04535.30436.02647a1.701,1.701,0,0,0,1.08569-2.79184c-.191-.291-.36774-.63976-.8192-.64526-.08408-.001-.18362-.16844-.24485-.2767a1.05928,1.05928,0,0,0-.40349-.34008c-.04914-.03191-.109-.0657-.16668-.02827-.07255.04708-.05234.12153-.03191.18805a4.24408,4.24408,0,0,0,.49417,1.41854.39776.39776,0,0,1,.08333.28025Z" style="fill:#e3e5e5"/><path d="M16.00379,4.74928A.984.984,0,0,1,16.99,5.9326a8.05835,8.05835,0,0,1-.65153,2.60524A1.392,1.392,0,0,1,16,9.059V4.7506Z" style="fill:#f0d049"/><path d="M20.65547,20.93565c-.033.02135-.06921.06225-.02493.08162.04688.02051.07113-.03941.08823-.08192Z" style="fill:#d9e7f3"/><path d="M16.23787,31.55528l.006.08169-.05961.04548-.11435.0524.06144-.05459A.1608.1608,0,0,1,16.23787,31.55528Z" style="fill:#626283"/><polygon points="16.065 31.737 16.07 31.735 16.066 31.738 16.065 31.737" style="fill:#626283"/><path d="M17.24636,4.89876a1.41328,1.41328,0,0,1,.257-.31768l.05452-.05677.00182-.00219.05845-.05589.003-.00226.1145-.13548c.06493-.06559.123-.0755.16863.01953V4.34773l.06785-.00664-.06318.059-.05932.02376-.12018.09022-.00168.00241-.04992.06705.001-.00139-.05546.07113a.63681.63681,0,0,1-.14459.40578c-.05874.05423-.12207.11027-.20456.04482A.13989.13989,0,0,1,17.24636,4.89876Z" style="fill:#211915"/><polygon points="17.974 4.341 17.972 4.341 17.973 4.34 17.974 4.341" style="fill:#211915"/><path d="M17.55969,4.52213l.0584-.05587Z" style="fill:#6c6c6c"/><path d="M17.72774,4.51645l-.05.067Z" style="fill:#6c6c6c"/><path d="M17.50334,4.58112l.05451-.05677Z" style="fill:#6c6c6c"/><path d="M17.67883,4.58214l-.05548.07108Z" style="fill:#6c6c6c"/><path d="M17.112,30.62937a1.01793,1.01793,0,0,0,.28189-.50825,5.96475,5.96475,0,0,0,.06013-1.18077,4.68081,4.68081,0,0,0,1.00447-.36286c-.13927.476-.2722.95339-.36563,1.44123a.37023.37023,0,0,0,.25362.483,4.64165,4.64165,0,0,1,1.5402.99559.1848.1848,0,0,1,.11733.12l.05087.05845-.05145-.00933a.16531.16531,0,0,1-.12113-.08848,1.87048,1.87048,0,0,0-.57967-.22c-.20332-.0191-.4084.0274-.47873.2179-.07813.21156-.1349.18256-.28779.07929-.59534-.40207-.88161-.37153-1.4338.12637-.03433.031-.06683.09737-.10626.02121-.18613-.36038-.47531-.23059-.75217-.16573l-.006-.08169C16.52851,31.246,16.81463,30.93217,17.112,30.62937Z" style="fill:#525b58"/><polygon points="20.059 31.681 20.055 31.676 20.063 31.677 20.059 31.681" style="fill:#525b58"/><path d="M18.1773,14.85161a7.77229,7.77229,0,0,0,2.4468.1252,7.22421,7.22421,0,0,0,2.41167-.69744,7.67361,7.67361,0,0,0,4.13378-5.1596A12.8301,12.8301,0,0,0,27.467,5.8469a1.79661,1.79661,0,0,1,.131-.75341c.107-.246.2523-.2792.46437-.11595a1.259,1.259,0,0,1,.34676.47822,7.26118,7.26118,0,0,1,.78875,3.17215c-.00014.03885-.03665.09956.03163.1161.009.00219.03666-.06013.05123-.09452.1701-.40163.32956-.807.469-1.22093.11129-.33028.30886-.35979.54921-.10348a1.02575,1.02575,0,0,1,.21.39026,3.67943,3.67943,0,0,1,.17666,1.04893,17.0261,17.0261,0,0,1-.50482,4.22917c-.01873.0852-.0758.19626.00328.24349.07083.04234.12709-.07266.17833-.12666a13.47459,13.47459,0,0,0,1.16976-1.3817.27948.27948,0,0,1,.301-.14488.26.26,0,0,1,.1615.2636,2.37873,2.37873,0,0,1-.025.62216,9.29953,9.29953,0,0,1-1.02022,2.46378,1.84308,1.84308,0,0,0-.33881.9617,1.90859,1.90859,0,0,1-.33393,1.00411,3.9733,3.9733,0,0,1-2.43025,1.64164,5.34834,5.34834,0,0,1-1.278.24837.23014.23014,0,0,0-.18387.08162c.05313.01822.10582.03812.1596.05437.17054.05145.34107.103.51241.15181.16652.04729.4299.03665.4291.23823-.00087.221-.26527.25646-.45315.3082a5.643,5.643,0,0,1-2.49723.05969,9.68208,9.68208,0,0,1-3.10351-1.06788c-.2069-.1158-.239-.04759-.28458.11406-.00409-.40433-.00613-.80873-.01356-1.21306-.0019-.10611-.00153-.246-.09941-.28764-.09138-.03892-.174.07353-.24151.14327-.1857.19167-.36607.38844-.54855.58317l-.06239.06195-.00452-.1279a.17466.17466,0,0,1,.01371-.05248c.06391-.18015.01384-.27321-.19007-.2488-.12768-.17636-.25318-.35433-.38341-.52866-.50912-.68177-1.02087-1.3615-1.52759-2.045-.03717-.05007-.12178-.09868-.07871-.17163C18.0244,14.82012,18.121,14.84024,18.1773,14.85161Z" style="fill:#e3e5e5"/><path d="M19.054,17.83668a6.80078,6.80078,0,0,1,.9469-.249c.20391-.02441.254.06865.19014.2488a.17273.17273,0,0,0-.01378.05248l.00452.1279.06239-.06195c.18248-.19473.36285-.3915.54855-.58317.06756-.06974.15013-.18219.24151-.14327.09788.04168.09751.18153.09941.28764.00743.40433.00947.80873.01348,1.21306a8.50371,8.50371,0,0,1-.4917,2.20652c-.033.02128-.06917.06224-.02493.08162.04693.02048.07113-.03943.08826-.082.28466-.33043.56815-.6618.85536-.99.03513-.04016.07383-.11427.13978-.076.02646.01538.02332.08906.02624.13664a4.71989,4.71989,0,0,1-.35222,2.15267,2.15742,2.15742,0,0,1-1.7487,1.444,3.34028,3.34028,0,0,1-2.36977-.6043,1.69029,1.69029,0,0,1-.74226-1.506A4.42723,4.42723,0,0,1,19.054,17.83668Z" style="fill:#9fc9e4"/><polygon points="17.668 4.583 17.669 4.582 17.669 4.582 17.668 4.583" style="fill:#f1f1f1"/><polygon points="17.963 4.34 17.964 4.341 17.963 4.341 17.963 4.34" style="fill:#f1f1f1"/><path d="M16.17862,8.82979A7.53749,7.53749,0,0,0,16.9837,5.8735.935.935,0,0,0,16,4.77865V2.97289a2.9806,2.9806,0,0,1,1.366.41249c.09314.042.08206.22475.24079.17825.101.26739.33939.47167.3571.77739L17.96355,4.341l-.00022-.00066-.00037.00059a.19275.19275,0,0,1-.05035-.00933c-.06129-.06071-.12331-.07725-.18657-.0027l-.11449.13519-.003.00226-.0583.05582-.002.00226L17.494,4.581a1.406,1.406,0,0,0-.25683.31738.13991.13991,0,0,0,.02755.20508c.08257.06479.1459.00926.20464-.045a.63883.63883,0,0,0,.14445-.40549l.05538-.07084-.001.00131.0011-.00145-.00008.00014.0489-.06552L17.72,4.514l.12455-.05378.0677-.05014.05072-.06916.00059.00007a1.67245,1.67245,0,0,1,.14736,1.08187,3.62806,3.62806,0,0,1-.5041,1.12553,1.978,1.978,0,0,0-.59206,1.25954,9.38675,9.38675,0,0,0-.1784,2.44709,10.46207,10.46207,0,0,0,.97605,4.29819.65985.65985,0,0,0,.27154.29217c-.17184.10392.00335.18329.03834.23248.6043.85063,1.28345,1.64558,1.86924,2.51028a4.596,4.596,0,0,0-1.13726.33451,4.36352,4.36352,0,0,0-2.30687,3.18775,1.71262,1.71262,0,0,0,.50708,1.7221,2.89387,2.89387,0,0,0,3.89335.07193,5.30182,5.30182,0,0,1-.696,1.55062c-.18657.31053-.40928.59935-.61582.89793a5.54952,5.54952,0,0,1-2.299,1.21691c-.25041.06639-.53558.02383-.74911.21769a.321.321,0,0,0-.25318-.03083c-.18278.03928-.28051.05123-.33473.00991V9.05913A.44277.44277,0,0,0,16.17862,8.82979Z" style="fill:#edeeee"/></svg>