<svg xmlns="http://www.w3.org/2000/svg" viewBox="0 0 32 32"><defs><style>.a{fill:#edeeee;}.b{fill:#ffda40;}.c{fill:#d9e7f3;}.d{fill:#626283;}.e{fill:#211915;}.f{fill:#6c6c6c;}.g{fill:#5c6664;}.h{fill:#9d85d3;}.i{fill:#f1f1f1;}.j{fill:#f7f7f7;}.k{fill:#e3e5e5;}.l{fill:#f0d049;}.m{fill:#525b58;}.n{fill:#9179c6;}</style></defs><title>581-swanna-shiny</title><path class="a" d="M14.50688.16206h-.05976c-.06763.10451.02281.155.07055.22665a2.88248,2.88248,0,0,1,.53295,1.63086A2.69243,2.69243,0,0,1,14.68033,3.282c-.01662.03185-.038.08818-.02412.10378.03709.04176.06245-.01326.09109-.03214a2.274,2.274,0,0,1,1.25518-.37787V2.6246A3.82234,3.82234,0,0,0,14.50688.16206Z"/><path class="a" d="M13.54405,28.57748a2.6249,2.6249,0,0,1-.378-.76525c-.22637-.70742-.466-1.41059-.70057-2.11539-.02117-.06361-.08156-.14143-.01023-.18917.07241-.04848.1186.04162.16974.083a5.44694,5.44694,0,0,0,2.38339,1.07288c.397.08163.40486.07186.3328.44963-.09608.50366-.19992,1.00588-.30437,1.5079-.05524.26551-.24051.34278-.48828.31924A4.6776,4.6776,0,0,1,13.54405,28.57748Z"/><path class="a" d="M14.02954,4.34032a1.94751,1.94751,0,0,0,.19626,1.94186c.04288.07517.15882.15262.10457.22765-.06654.092-.20272.04535-.30436.02647a1.701,1.701,0,0,1-1.08569-2.79184c.191-.291.36774-.63976.8192-.64526.08408-.001.18362-.16844.24485-.2767a1.05928,1.05928,0,0,1,.40349-.34008c.04914-.03191.109-.0657.16668-.02827.07255.04708.05234.12153.03191.18805a4.2443,4.2443,0,0,1-.49417,1.41854A.39776.39776,0,0,0,14.029,4.341Z"/><path class="b" d="M15.99869,4.74928a.984.984,0,0,0-.98618,1.18332A8.05859,8.05859,0,0,0,15.664,8.53784a1.39212,1.39212,0,0,0,.33845.52115V4.7506Z"/><path class="c" d="M11.347,20.93565c.033.02135.06921.06225.02493.08162-.04688.02051-.07113-.03941-.08823-.08192Z"/><path class="d" d="M15.7646,31.55528l-.006.08169.05961.04548.11435.0524-.06144-.05459A.16079.16079,0,0,0,15.7646,31.55528Z"/><polygon class="d" points="15.937 31.737 15.933 31.735 15.936 31.738 15.937 31.737"/><path class="e" d="M14.75612,4.89876a1.41305,1.41305,0,0,0-.257-.31768l-.05451-.05677-.00182-.00219-.05845-.05589-.003-.00226-.11449-.13548c-.06493-.06559-.123-.0755-.16864.01953V4.34773l-.06785-.00664.06319.059.05932.02376.12018.09022.00167.00241.04992.06705-.001-.00139.05546.07113a.63693.63693,0,0,0,.14459.40578c.05874.05423.12207.11027.20457.04482A.13989.13989,0,0,0,14.75612,4.89876Z"/><polygon class="e" points="14.029 4.341 14.03 4.341 14.03 4.34 14.029 4.341"/><path class="f" d="M14.44279,4.52213l-.0584-.05587Z"/><path class="f" d="M14.27474,4.51645l.05.067Z"/><path class="f" d="M14.49914,4.58112l-.05451-.05677Z"/><path class="f" d="M14.32364,4.58214l.05549.07108Z"/><path class="g" d="M14.89051,30.62937a1.01793,1.01793,0,0,1-.28189-.50825,5.96475,5.96475,0,0,1-.06013-1.18077,4.68081,4.68081,0,0,1-1.00447-.36286c.13927.476.2722.95339.36563,1.44123a.37024.37024,0,0,1-.25362.483,4.64155,4.64155,0,0,0-1.5402.99559.1848.1848,0,0,0-.11733.12l-.05087.05845.05145-.00933a.16528.16528,0,0,0,.12112-.08848,1.87067,1.87067,0,0,1,.57967-.22c.20333-.0191.40841.0274.47874.2179.07812.21156.13489.18256.28779.07929.59534-.40207.88161-.37153,1.4338.12637.03433.031.06683.09737.10626.02121.18613-.36038.47531-.23059.75217-.16573l.006-.08169C15.474,31.246,15.18785,30.93217,14.89051,30.62937Z"/><polygon class="g" points="11.943 31.681 11.948 31.676 11.939 31.677 11.943 31.681"/><path class="a" d="M13.82518,14.85161a7.77231,7.77231,0,0,1-2.4468.1252,7.22421,7.22421,0,0,1-2.41167-.69744,7.67354,7.67354,0,0,1-4.13378-5.1596A12.8301,12.8301,0,0,1,4.53552,5.8469a1.79692,1.79692,0,0,0-.131-.75341c-.107-.246-.2523-.2792-.46438-.11595a1.259,1.259,0,0,0-.34675.47822A7.26118,7.26118,0,0,0,2.8046,8.62791c.00014.03885.03665.09956-.03163.1161-.009.00219-.03666-.06013-.05124-.09452-.17009-.40163-.32955-.807-.469-1.22093-.11128-.33028-.30885-.35979-.5492-.10348a1.02577,1.02577,0,0,0-.21.39026,3.67907,3.67907,0,0,0-.17665,1.04893,17.0261,17.0261,0,0,0,.50482,4.22917c.01873.0852.07579.19626-.00328.24349-.07083.04234-.1271-.07266-.17833-.12666a13.47459,13.47459,0,0,1-1.16976-1.3817.2795.2795,0,0,0-.301-.14488.26.26,0,0,0-.16149.2636,2.37873,2.37873,0,0,0,.025.62216,9.29953,9.29953,0,0,0,1.02022,2.46378,1.84317,1.84317,0,0,1,.33881.9617A1.90858,1.90858,0,0,0,1.72578,16.899,3.97335,3.97335,0,0,0,4.156,18.54068a5.34824,5.34824,0,0,0,1.278.24837.23015.23015,0,0,1,.18387.08162c-.05313.01822-.10582.03812-.1596.05437-.17054.05145-.34107.103-.51241.15181-.16652.04729-.4299.03665-.4291.23823.00087.221.26527.25646.45315.3082a5.643,5.643,0,0,0,2.49723.05969,9.68208,9.68208,0,0,0,3.10351-1.06788c.2069-.1158.239-.04759.28458.11406.00408-.40433.00612-.80873.01356-1.21306.00189-.10611.00153-.246.0994-.28764.09139-.03892.174.07353.24152.14327.18569.19167.36607.38844.54855.58317l.06239.06195.00451-.1279a.17435.17435,0,0,0-.0137-.05248c-.06391-.18015-.01384-.27321.19007-.2488.12768-.17636.25318-.35433.38341-.52866.50912-.68177,1.02087-1.3615,1.52759-2.045.03717-.05007.12178-.09868.07871-.17163C13.97808,14.82012,13.88144,14.84024,13.82518,14.85161Z"/><path class="h" d="M12.94846,17.83668a6.80114,6.80114,0,0,0-.9469-.249c-.20391-.02441-.254.06865-.19014.2488a.17242.17242,0,0,1,.01377.05248l-.00451.1279-.06239-.06195c-.18248-.19473-.36286-.3915-.54855-.58317-.06756-.06974-.15013-.18219-.24152-.14327-.09787.04168-.09751.18153-.0994.28764-.00744.40433-.00948.80873-.01348,1.21306a8.50371,8.50371,0,0,0,.4917,2.20652c.033.02128.06916.06224.02493.08162-.04694.02048-.07113-.03943-.08826-.082-.28466-.33043-.56815-.6618-.85537-.99-.03512-.04016-.07382-.11427-.13978-.076-.02645.01538-.02332.08906-.02623.13664a4.71989,4.71989,0,0,0,.35222,2.15267,2.15742,2.15742,0,0,0,1.7487,1.444,3.34028,3.34028,0,0,0,2.36977-.6043,1.69029,1.69029,0,0,0,.74226-1.506A4.42723,4.42723,0,0,0,12.94846,17.83668Z"/><polygon class="i" points="14.334 4.583 14.333 4.582 14.333 4.582 14.334 4.583"/><polygon class="i" points="14.039 4.34 14.039 4.341 14.04 4.341 14.039 4.34"/><path class="j" d="M15.82385,8.82979a7.53783,7.53783,0,0,1-.80508-2.95629.93505.93505,0,0,1,.98371-1.09485V2.97289a2.9806,2.9806,0,0,0-1.366.41249c-.09314.042-.08206.22475-.24079.17825-.101.26739-.33939.47167-.3571.77739l.00036-.00007.00022-.00066.00036.00059a.19283.19283,0,0,0,.05036-.00933c.06129-.06071.12331-.07725.18657-.0027l.11449.13519.003.00226.0583.05582.002.00226.05429.05663a1.40564,1.40564,0,0,1,.25682.31738.1399.1399,0,0,1-.02754.20508c-.08257.06479-.14591.00926-.20464-.045a.63883.63883,0,0,1-.14445-.40549l-.05539-.07084.001.00131L14.33321,4.582l.00007.00014-.0489-.06552L14.28249,4.514l-.12455-.05378L14.09024,4.41l-.05073-.06916-.00058.00007a1.67245,1.67245,0,0,0-.14736,1.08187,3.62806,3.62806,0,0,0,.5041,1.12553,1.978,1.978,0,0,1,.59206,1.25954,9.38675,9.38675,0,0,1,.1784,2.44709,10.46223,10.46223,0,0,1-.97605,4.29819.65985.65985,0,0,1-.27154.29217c.17184.10392-.00336.18329-.03834.23248-.6043.85063-1.28345,1.64558-1.86924,2.51028a4.5961,4.5961,0,0,1,1.13726.33451,4.36354,4.36354,0,0,1,2.30687,3.18775,1.71262,1.71262,0,0,1-.50708,1.7221,2.89387,2.89387,0,0,1-3.89335.07193,5.30156,5.30156,0,0,0,.696,1.55062c.18657.31053.40928.59935.61582.89793a5.54945,5.54945,0,0,0,2.299,1.21691c.25041.06639.53558.02383.74911.21769a.321.321,0,0,1,.25318-.03083c.18278.03928.28051.05123.33473.00991V9.05913A.44284.44284,0,0,1,15.82385,8.82979Z"/><path class="k" d="M17.49515.16206h.05976c.06763.10451-.02281.155-.07055.22665a2.88248,2.88248,0,0,0-.53295,1.63086A2.69232,2.69232,0,0,0,17.3217,3.282c.01661.03185.038.08818.02412.10378-.03709.04176-.06246-.01326-.0911-.03214a2.27394,2.27394,0,0,0-1.25517-.37787V2.6246A3.82226,3.82226,0,0,1,17.49515.16206Z"/><path class="k" d="M18.458,28.57748a2.62462,2.62462,0,0,0,.378-.76525c.22637-.70742.46605-1.41059.70058-2.11539.02116-.06361.08155-.14143.01023-.18917-.07241-.04848-.11861.04162-.16975.083a5.4469,5.4469,0,0,1-2.38338,1.07288c-.397.08163-.40486.07186-.3328.44963.09607.50366.19992,1.00588.30437,1.5079.05524.26551.24051.34278.48827.31924A4.67768,4.67768,0,0,0,18.458,28.57748Z"/><path class="k" d="M17.97248,4.34032a1.94746,1.94746,0,0,1-.19626,1.94186c-.04287.07517-.15881.15262-.10457.22765.06655.092.20272.04535.30436.02647a1.701,1.701,0,0,0,1.0857-2.79184c-.191-.291-.36774-.63976-.8192-.64526-.08408-.001-.18362-.16844-.24485-.2767a1.05931,1.05931,0,0,0-.4035-.34008c-.04913-.03191-.109-.0657-.16667-.02827-.07255.04708-.05235.12153-.03191.18805a4.24408,4.24408,0,0,0,.49417,1.41854.39776.39776,0,0,1,.08333.28025Z"/><path class="l" d="M16.00334,4.74928a.984.984,0,0,1,.98618,1.18332A8.05835,8.05835,0,0,1,16.338,8.53784a1.392,1.392,0,0,1-.33844.52115V4.7506Z"/><path class="c" d="M20.655,20.93565c-.033.02135-.06921.06225-.02493.08162.04688.02051.07113-.03941.08823-.08192Z"/><path class="d" d="M16.23742,31.55528l.006.08169-.05962.04548-.11434.0524.06143-.05459A.16083.16083,0,0,1,16.23742,31.55528Z"/><polygon class="d" points="16.065 31.737 16.069 31.735 16.066 31.738 16.065 31.737"/><path class="e" d="M17.2459,4.89876a1.4136,1.4136,0,0,1,.257-.31768l.05451-.05677.00183-.00219.05844-.05589.003-.00226.11449-.13548c.06494-.06559.123-.0755.16864.01953V4.34773l.06785-.00664-.06318.059-.05933.02376-.12017.09022-.00168.00241-.04992.06705.001-.00139-.05546.07113a.63681.63681,0,0,1-.14459.40578c-.05874.05423-.12207.11027-.20457.04482A.13991.13991,0,0,1,17.2459,4.89876Z"/><polygon class="e" points="17.973 4.341 17.972 4.341 17.972 4.34 17.973 4.341"/><path class="f" d="M17.55923,4.52213l.05841-.05587Z"/><path class="f" d="M17.72729,4.51645l-.05.067Z"/><path class="f" d="M17.50288,4.58112l.05452-.05677Z"/><path class="f" d="M17.67838,4.58214l-.05549.07108Z"/><path class="m" d="M17.11152,30.62937a1.01793,1.01793,0,0,0,.28189-.50825,5.964,5.964,0,0,0,.06012-1.18077,4.68089,4.68089,0,0,0,1.00448-.36286c-.13927.476-.2722.95339-.36563,1.44123a.37023.37023,0,0,0,.25362.483,4.64175,4.64175,0,0,1,1.5402.99559.1848.1848,0,0,1,.11733.12l.05087.05845-.05145-.00933a.16531.16531,0,0,1-.12113-.08848,1.87048,1.87048,0,0,0-.57967-.22c-.20333-.0191-.4084.0274-.47873.2179-.07813.21156-.1349.18256-.2878.07929-.59534-.40207-.8816-.37153-1.43379.12637-.03433.031-.06683.09737-.10626.02121-.18613-.36038-.47531-.23059-.75217-.16573l-.006-.08169C16.52806,31.246,16.81418,30.93217,17.11152,30.62937Z"/><polygon class="m" points="20.059 31.681 20.054 31.676 20.063 31.677 20.059 31.681"/><path class="k" d="M18.17685,14.85161a7.77229,7.77229,0,0,0,2.4468.1252,7.22428,7.22428,0,0,0,2.41167-.69744,7.67361,7.67361,0,0,0,4.13378-5.1596,12.8301,12.8301,0,0,0,.29741-3.27287,1.79676,1.79676,0,0,1,.131-.75341c.107-.246.25231-.2792.46438-.11595a1.25884,1.25884,0,0,1,.34675.47822,7.261,7.261,0,0,1,.78876,3.17215c-.00014.03885-.03666.09956.03163.1161.009.00219.03666-.06013.05123-.09452.1701-.40163.32956-.807.469-1.22093.11129-.33028.30886-.35979.54921-.10348a1.02575,1.02575,0,0,1,.21.39026,3.67943,3.67943,0,0,1,.17666,1.04893,17.02564,17.02564,0,0,1-.50483,4.22917c-.01873.0852-.07579.19626.00328.24349.07084.04234.1271-.07266.17834-.12666a13.47459,13.47459,0,0,0,1.16976-1.3817.27948.27948,0,0,1,.301-.14488.26.26,0,0,1,.1615.2636,2.37831,2.37831,0,0,1-.025.62216A9.2995,9.2995,0,0,1,30.949,14.93323a1.843,1.843,0,0,0-.33881.9617,1.90868,1.90868,0,0,1-.33393,1.00411A3.9733,3.9733,0,0,1,27.846,18.54068a5.34816,5.34816,0,0,1-1.278.24837.23014.23014,0,0,0-.18387.08162c.05313.01822.10582.03812.1596.05437.17053.05145.34107.103.5124.15181.16653.04729.42991.03665.42911.23823-.00088.221-.26528.25646-.45315.3082a5.64305,5.64305,0,0,1-2.49724.05969,9.682,9.682,0,0,1-3.1035-1.06788c-.2069-.1158-.239-.04759-.28459.11406-.00408-.40433-.00612-.80873-.01355-1.21306-.0019-.10611-.00153-.246-.09941-.28764-.09139-.03892-.174.07353-.24151.14327-.1857.19167-.36607.38844-.54856.58317l-.06238.06195-.00452-.1279a.17464.17464,0,0,1,.0137-.05248c.06392-.18015.01385-.27321-.19006-.2488-.12768-.17636-.25318-.35433-.38341-.52866-.50913-.68177-1.02087-1.3615-1.52759-2.045-.03717-.05007-.12178-.09868-.07871-.17163C18.024,14.82012,18.12058,14.84024,18.17685,14.85161Z"/><path class="n" d="M19.05357,17.83668a6.80078,6.80078,0,0,1,.9469-.249c.20391-.02441.254.06865.19014.2488a.17244.17244,0,0,0-.01378.05248l.00452.1279.06238-.06195c.18249-.19473.36286-.3915.54856-.58317.06755-.06974.15012-.18219.24151-.14327.09788.04168.09751.18153.09941.28764.00743.40433.00947.80873.01348,1.21306a8.50372,8.50372,0,0,1-.49171,2.20652c-.033.02128-.06916.06224-.02492.08162.04693.02048.07113-.03943.08825-.082.28467-.33043.56816-.6618.85537-.99.03513-.04016.07383-.11427.13978-.076.02646.01538.02332.08906.02624.13664a4.72,4.72,0,0,1-.35222,2.15267,2.15742,2.15742,0,0,1-1.7487,1.444,3.34028,3.34028,0,0,1-2.36977-.6043,1.69029,1.69029,0,0,1-.74226-1.506A4.42723,4.42723,0,0,1,19.05357,17.83668Z"/><polygon class="i" points="17.668 4.583 17.669 4.582 17.669 4.582 17.668 4.583"/><polygon class="i" points="17.963 4.34 17.963 4.341 17.963 4.341 17.963 4.34"/><path class="a" d="M16.17817,8.82979a7.53766,7.53766,0,0,0,.80508-2.95629.935.935,0,0,0-.9837-1.09485V2.97289a2.9806,2.9806,0,0,1,1.366.41249c.09314.042.08206.22475.24079.17825.101.26739.33939.47167.3571.77739L17.9631,4.341l-.00022-.00066-.00037.00059a.1929.1929,0,0,1-.05036-.00933c-.06129-.06071-.12331-.07725-.18656-.0027L17.6111,4.464l-.003.00226-.0583.05582-.002.00226-.0543.05663a1.40591,1.40591,0,0,0-.25682.31738.1399.1399,0,0,0,.02755.20508c.08257.06479.1459.00926.20464-.045a.63876.63876,0,0,0,.14444-.40549l.05539-.07084-.001.00131.00109-.00145-.00007.00014.0489-.06552.0019-.00262.12455-.05378.0677-.05014.05072-.06916.00059.00007a1.67244,1.67244,0,0,1,.14735,1.08187,3.6278,3.6278,0,0,1-.50409,1.12553,1.978,1.978,0,0,0-.59206,1.25954,9.38719,9.38719,0,0,0-.17841,2.44709,10.46224,10.46224,0,0,0,.97606,4.29819.6598.6598,0,0,0,.27154.29217c-.17185.10392.00335.18329.03833.23248.60431.85063,1.28345,1.64558,1.86925,2.51028a4.596,4.596,0,0,0-1.13726.33451,4.36355,4.36355,0,0,0-2.30688,3.18775,1.71264,1.71264,0,0,0,.50709,1.7221,2.89387,2.89387,0,0,0,3.89335.07193,5.30182,5.30182,0,0,1-.696,1.55062c-.18657.31053-.40929.59935-.61582.89793a5.54949,5.54949,0,0,1-2.299,1.21691c-.2504.06639-.53557.02383-.74911.21769a.32093.32093,0,0,0-.25317-.03083c-.18278.03928-.28051.05123-.33473.00991V9.05913A.44277.44277,0,0,0,16.17817,8.82979Z"/></svg>