<svg xmlns="http://www.w3.org/2000/svg" viewBox="0 0 32 32"><defs><style>.a{fill:#f7f7f7;}.b{fill:#c1ddee;}.c{fill:#e2eff7;}.d{fill:#d2e6f3;}.e{fill:#567b9b;}.f{fill:#9fc9e4;}.g{fill:#edeeee;}.h{fill:#456f93;}.i{fill:#8ec0e0;}</style></defs><title>582-vanillite</title><path class="a" d="M16.68173.64844a3.24232,3.24232,0,0,0-.80921.55823,4.15865,4.15865,0,0,0-1.624,2.88488c-.0091.12842-.09137.15076-.16651.17774a2.75967,2.75967,0,0,0-1.46991,3.552c.0846.249.01905.32764-.14874.3988h4.31714V.54419Z"/><path class="b" d="M1.58375,25.36151l-.00713-.36262a1.564,1.564,0,0,0,.15165-.78733,2.20188,2.20188,0,0,1,.06325-.50616,1.32678,1.32678,0,0,1,1.726-1.14218.34776.34776,0,0,1,.06591.01739,2.92386,2.92386,0,0,0,1.704.15229,1.15177,1.15177,0,0,1,1.36985.98861,3.62153,3.62153,0,0,1,.046,1.65832A1.83978,1.83978,0,0,1,4.68171,26.843a3.77851,3.77851,0,0,0-1.19989.11395.95169.95169,0,0,1-1.17737-.68117c-.12171-.30684-.14921-.66472-.57382-.73735C1.67327,25.5286,1.63231,25.42284,1.58375,25.36151Z"/><path class="a" d="M14.63446,24.19512c.70663.155,1.42587.22246,2.13785.3382V21.39664a3.7876,3.7876,0,0,1-.76442-.06982,2.90516,2.90516,0,0,1-1.32174-.28693,1.60889,1.60889,0,0,1-.92969-1.03181.50225.50225,0,0,1,.652-.654,1.07634,1.07634,0,0,1,.49235.29528,1.86854,1.86854,0,0,0,1.19782.51373c.22464.02171.4491.0451.67365.06781V8.22009H12.61609c-3.43672,1.22939-5.135,3.80708-5.6246,7.30568a6.70653,6.70653,0,0,0,.95332,4.84239,7.915,7.915,0,0,0,3.68448,2.874A14.30193,14.30193,0,0,0,14.63446,24.19512Zm-3.6404-7.394c.07666.08935.10939.15515.01887.26054-.36893.42989-.73653.86145-1.0916,1.30287-.16342.20326-.27207.1281-.39541-.03006-.32759-.41987-.65811-.83741-.987-1.25628-.03373-.04292-.064-.08868-.10087-.13979.04117-.05611.07432-.10054.10638-.14563.30865-.43424.62555-.86313.92209-1.30555.14814-.221.25812-.19624.40993-.01169C10.2435,15.92193,10.61794,16.36217,10.99406,16.80109Zm.52818.017a2.92965,2.92965,0,0,1-.48877-1.52249,3.38709,3.38709,0,0,1,.31908-1.63908,1.47179,1.47179,0,0,1,1.2405-.9473,1.38378,1.38378,0,0,1,1.23966.77511,3.31181,3.31181,0,0,1-.07741,3.34144A1.2776,1.2776,0,0,1,11.52224,16.81812Z"/><path class="b" d="M12.80557,30.9565a32.64,32.64,0,0,1-.64876-3.34228c-.02731-.21662-.06873-.28108-.2977-.20643a7.32144,7.32144,0,0,1-.9914.241,4.113,4.113,0,0,1-1.79356.01386A.71229.71229,0,0,1,8.56351,26.524a2.26063,2.26063,0,0,1,.25578-.401A5.55757,5.55757,0,0,1,10.482,24.7349c.358.34639.71858.69011,1.0734,1.03983q1.41669,1.39641,2.82946,2.79665a8.05738,8.05738,0,0,0,.95106,1.34479c.46739.62881.95649,1.24141,1.4364,1.86037V32a16.37541,16.37541,0,0,1-3.60524-.661A.46539.46539,0,0,1,12.80557,30.9565Z"/><path class="c" d="M13.89926,25.34768c-.09161-.18272-.25119-.06931-.36-.03775a2.4962,2.4962,0,0,1-1.27064.05929,1.30687,1.30687,0,0,1-1.03673-1.11966.79638.79638,0,0,1,.10505-.667c.07641-.13411.26939-.16367.29235-.34037a14.30193,14.30193,0,0,0,3.00517.953c.70663.155,1.42587.22246,2.13785.33837v2.33334a5.11144,5.11144,0,0,1-1.29126-.21862A2.81,2.81,0,0,1,13.89926,25.34768Z"/><path class="d" d="M12.26862,25.36922a2.4962,2.4962,0,0,0,1.27064-.05929c.10881-.03156.26839-.145.36.03775a2.81,2.81,0,0,0,1.58179,1.30053c-.211.14347-.24735.39482-.36451.59591a9.15488,9.15488,0,0,1-.73169,1.32726q-1.41444-1.39866-2.82946-2.79665c-.35482-.34972-.7154-.69344-1.0734-1.03983q.37491-.24249.7499-.48534A1.30687,1.30687,0,0,0,12.26862,25.36922Z"/><path class="b" d="M11.35255,13.65655a3.38709,3.38709,0,0,0-.31908,1.63908,2.92965,2.92965,0,0,0,.48877,1.52249,1.2776,1.2776,0,0,0,2.23306.00768,3.31181,3.31181,0,0,0,.07741-3.34144,1.38378,1.38378,0,0,0-1.23966-.77511A1.47179,1.47179,0,0,0,11.35255,13.65655Zm.9114,1.04651a1.57763,1.57763,0,0,1,.28809-.92642.55185.55185,0,0,1,.92585-.00318,1.68343,1.68343,0,0,1,.0025,1.88592.54749.54749,0,0,1-.924.00167A1.47675,1.47675,0,0,1,12.264,14.70306Z"/><path class="b" d="M9.46647,15.48719c.14814-.221.25812-.19624.40993-.01169.3671.44643.74154.88667,1.11766,1.32559.07666.08935.10939.15515.01887.26054-.36893.42989-.73653.86145-1.0916,1.30287-.16342.20326-.27207.1281-.39541-.03006-.32759-.41987-.65811-.83741-.987-1.25628-.03373-.04292-.064-.08868-.10087-.13979.04117-.05611.07432-.10054.10638-.14563C8.853,16.3585,9.16993,15.92961,9.46647,15.48719Z"/><path class="e" d="M14.40849,19.35406a1.07634,1.07634,0,0,1,.49235.29528,1.86854,1.86854,0,0,0,1.19782.51373c.22464.02171.4491.0451.67365.06781V21.3968a3.811,3.811,0,0,1-.76442-.07,2.90516,2.90516,0,0,1-1.32174-.28693,1.60889,1.60889,0,0,1-.92969-1.03181A.50225.50225,0,0,1,14.40849,19.35406Z"/><path class="f" d="M14.38485,28.57138a9.15488,9.15488,0,0,0,.73169-1.32726c.11716-.20109.15349-.45244.36451-.59591a5.10412,5.10412,0,0,0,1.29126.21846v4.90987c-.47991-.619-.969-1.23156-1.4364-1.86037A8.05738,8.05738,0,0,1,14.38485,28.57138Z"/><path class="e" d="M13.47789,13.77346a1.68343,1.68343,0,0,1,.0025,1.88592.54749.54749,0,0,1-.924.00167,1.47675,1.47675,0,0,1-.29244-.958,1.57763,1.57763,0,0,1,.28809-.92642A.55185.55185,0,0,1,13.47789,13.77346Z"/><path class="g" d="M21.91248,23.24214a7.91494,7.91494,0,0,0,3.68449-2.874,6.70653,6.70653,0,0,0,.95332-4.84239c-.4896-3.4986-2.18788-6.07629-5.62461-7.30568H16.76946V20.23088c.22455-.02271.449-.0461.67365-.06781a1.86856,1.86856,0,0,0,1.19783-.51373,1.07634,1.07634,0,0,1,.49235-.29528.50225.50225,0,0,1,.652.654,1.60885,1.60885,0,0,1-.92968,1.03181,2.90519,2.90519,0,0,1-1.32174.28693,3.7877,3.7877,0,0,1-.76443.06982v3.13668c.712-.11574,1.43123-.18321,2.13786-.3382A14.30184,14.30184,0,0,0,21.91248,23.24214Zm1.7529-7.76664c.15181-.18455.26179-.20927.40993.01169.29653.44242.61344.87131.92208,1.30555.03207.04509.06522.08952.10639.14563-.03683.05111-.06714.09687-.10088.13979-.32893.41887-.65945.83641-.987,1.25628-.12334.15816-.232.23332-.3954.03006-.35507-.44142-.72267-.873-1.0916-1.30287-.09052-.10539-.05779-.17119.01887-.26054C22.92383,16.36217,23.29828,15.92193,23.66538,15.4755Zm-3.8789,1.3503a3.31181,3.31181,0,0,1-.07741-3.34144,1.38377,1.38377,0,0,1,1.23966-.77511,1.4718,1.4718,0,0,1,1.2405.9473,3.387,3.387,0,0,1,.31907,1.63908,2.92954,2.92954,0,0,1-.48876,1.52249A1.2776,1.2776,0,0,1,19.78648,16.8258Z"/><path class="g" d="M20.81813,7.936a1.948,1.948,0,0,0,.18764-.75256A3.13608,3.13608,0,0,0,19.595,4.425c-.10639-.07983-.21561-.13762-.265-.28793a6.04272,6.04272,0,0,0-.85912-1.61536A2.94851,2.94851,0,0,1,17.97271.16218c.03742-.19707-.0238-.18538-.16275-.11724-.34505.169-.69286.33235-1.03958.4982l-.00092.001v7.676h4.15622C20.72852,8.14944,20.75165,8.077,20.81813,7.936Z"/><path class="f" d="M20.73621,30.9565a32.64,32.64,0,0,0,.64876-3.34228c.02731-.21662.06873-.28108.2977-.20643a7.32144,7.32144,0,0,0,.9914.241,4.113,4.113,0,0,0,1.79356.01386.71229.71229,0,0,0,.51064-1.13869,2.26063,2.26063,0,0,0-.25578-.401,5.55761,5.55761,0,0,0-1.66271-1.38806c-.358.34639-.71857.69011-1.07339,1.03983q-1.41671,1.39641-2.82947,2.79665a8.05674,8.05674,0,0,1-.951,1.34479c-.46739.62881-.95649,1.24141-1.43641,1.86037V32a16.3753,16.3753,0,0,0,3.60524-.661A.4654.4654,0,0,0,20.73621,30.9565Z"/><path class="d" d="M19.64252,25.34768c.0916-.18272.25119-.06931.36-.03775a2.49624,2.49624,0,0,0,1.27065.05929,1.30687,1.30687,0,0,0,1.03673-1.11966.79638.79638,0,0,0-.105-.667c-.07641-.13411-.26939-.16367-.29236-.34037a14.30184,14.30184,0,0,1-3.00516.953c-.70663.155-1.42588.22246-2.13786.33837v2.33334a5.11144,5.11144,0,0,0,1.29127-.21862A2.81,2.81,0,0,0,19.64252,25.34768Z"/><path class="f" d="M30.16947,19.63731a1.01531,1.01531,0,0,0-1.19055-.62446,2.59986,2.59986,0,0,0-.67691.22229.37035.37035,0,0,1-.28134.06213.76427.76427,0,0,0-.99005.42522,7.49671,7.49671,0,0,1-.49837.76459.75919.75919,0,0,0,.1544,1.11765,2.94993,2.94993,0,0,0,1.66271.71783,1.39964,1.39964,0,0,0,1.32442-.794,1.48437,1.48437,0,0,1,.43256-.54514.76371.76371,0,0,0,.23574-.97653C30.29006,19.88149,30.22684,19.76057,30.16947,19.63731Z"/><path class="b" d="M21.27316,25.36922a2.49624,2.49624,0,0,1-1.27065-.05929c-.1088-.03156-.26839-.145-.36.03775a2.81,2.81,0,0,1-1.58179,1.30053c.211.14347.24735.39482.36451.59591a9.15483,9.15483,0,0,0,.73168,1.32726q1.41444-1.39866,2.82947-2.79665c.35482-.34972.7154-.69344,1.07339-1.03983q-.37489-.24249-.74989-.48534A1.30687,1.30687,0,0,1,21.27316,25.36922Z"/><path class="f" d="M27.72623,28.34774a.98759.98759,0,0,1-.51465-.11256.4668.4668,0,0,0-.70714.23515,1.42044,1.42044,0,0,1-.29528.40518.35337.35337,0,0,0,.0299.60492.38389.38389,0,0,1,.17093.3357.80766.80766,0,0,0,.64359.81269,2.18254,2.18254,0,0,0,.62288.06313c.52492.03841.97878.01035,1.22371-.48334A1.2137,1.2137,0,0,0,27.72623,28.34774Z"/><path class="f" d="M20.94873,12.70925a1.38377,1.38377,0,0,0-1.23966.77511,3.31181,3.31181,0,0,0,.07741,3.34144,1.2776,1.2776,0,0,0,2.23306-.00768,2.92954,2.92954,0,0,0,.48876-1.52249,3.387,3.387,0,0,0-.31907-1.63908A1.4718,1.4718,0,0,0,20.94873,12.70925Zm.03666,2.9518a.54749.54749,0,0,1-.924-.00167,1.68343,1.68343,0,0,1,.0025-1.88592.55184.55184,0,0,1,.92584.00318,1.57763,1.57763,0,0,1,.2881.92642A1.47675,1.47675,0,0,1,20.98539,15.66105Z"/><path class="f" d="M24.07531,15.48719c-.14814-.221-.25812-.19624-.40993-.01169-.3671.44643-.74155.88667-1.11766,1.32559-.07666.08935-.10939.15515-.01887.26054.36893.42989.73653.86145,1.0916,1.30287.16342.20326.27206.1281.3954-.03006.3276-.41987.65812-.83741.98705-1.25628.03374-.04292.064-.08868.10088-.13979-.04117-.05611-.07432-.10054-.10639-.14563C24.68875,16.3585,24.37184,15.92961,24.07531,15.48719Z"/><path class="h" d="M19.13329,19.35406a1.07634,1.07634,0,0,0-.49235.29528,1.86856,1.86856,0,0,1-1.19783.51373c-.22463.02171-.4491.0451-.67365.06781V21.3968a3.81108,3.81108,0,0,0,.76443-.07,2.90519,2.90519,0,0,0,1.32174-.28693,1.60885,1.60885,0,0,0,.92968-1.03181A.50225.50225,0,0,0,19.13329,19.35406Z"/><path class="i" d="M19.15692,28.57138a9.15483,9.15483,0,0,1-.73168-1.32726c-.11716-.20109-.15349-.45244-.36451-.59591a5.10412,5.10412,0,0,1-1.29127.21846v4.90987c.47992-.619.969-1.23156,1.43641-1.86037A8.05674,8.05674,0,0,0,19.15692,28.57138Z"/><path class="h" d="M20.06389,13.77346a1.68343,1.68343,0,0,0-.0025,1.88592.54749.54749,0,0,0,.924.00167,1.47675,1.47675,0,0,0,.29244-.958,1.57763,1.57763,0,0,0-.2881-.92642A.55184.55184,0,0,0,20.06389,13.77346Z"/></svg>