<svg xmlns="http://www.w3.org/2000/svg" viewBox="0 0 32 32"><title>585-deerling-spring</title><path d="M8.1711.01168A12.866,12.866,0,0,0,10.25359.949a3.79764,3.79764,0,0,1,1.60413.88458,4.35072,4.35072,0,0,1,.80152,1.26632c-.29914.29792.06619.3234.18452.45014l.06091.06207a3.76754,3.76754,0,0,0,.31583.8932l-.67649.42848c-.33764-.62682-.72623-1.23246-.998-1.88664a2.14785,2.14785,0,0,0-1.245-1.20158,16.49389,16.49389,0,0,0-1.87254-.62752C8.25252.87851,8.262.484,8.108.13791,8.134.09831,8.04664.002,8.1711.01168Z" style="fill:#e8aab1"/><path d="M14.47233,30.76663l-.116,1.24438H14.167c-.59916-.00771-.66674-.42987-.69636-.88681-.00935-.14436-.03749-.2875-.057-.43119Z" style="fill:#413b3b"/><path d="M14.85155,18.31446a3.89848,3.89848,0,0,1-1.64457.67777,1.2782,1.2782,0,0,1-1.07419-.3401,4.41075,4.41075,0,0,1-.73807-.97583,10.43359,10.43359,0,0,0,.07741,1.87095,3.0136,3.0136,0,0,0,.1049.97919c.02553-.10752-.05861-.28107.04426-.31126.09513-.028.13468.15671.207.24106a5.17448,5.17448,0,0,0,.48778.572,1.02938,1.02938,0,0,1,.33363.71415c.149,1.27456.31558,2.5475.43469,3.825.09406,1.00857.21607,2.01431.27677,3.02706.03079.51392.03376,1.02609.04662,1.53907.00256.10025.03672.213-.05854.29644a.4261.4261,0,0,0,.0644.263l1.0587.07357c.04528-.52012.09453-1.0401.13488-1.56062.06778-.87477.11049-1.752.19922-2.62458q.18231-1.792.30682-3.588c.03854-.56836.0477-.57968.605-.46986a1.87918,1.87918,0,0,0,.27474.01631V17.25051A8.8777,8.8777,0,0,1,14.85155,18.31446Z" style="fill:#fff5d8"/><path d="M13.43046,10.676A3.29513,3.29513,0,0,1,11.9653,7.92988a6.05018,6.05018,0,0,1,.05828-1.60078c-.06151-.09675-.16008-.061-.24645-.069a2.95684,2.95684,0,0,0-.2511,1.22376,4.75566,4.75566,0,0,0,1.35574,3.57723,2.85425,2.85425,0,0,1,.91708,2.38392.34879.34879,0,0,1-.23728.34953,3.03535,3.03535,0,0,0-1.08309.79473A4.41543,4.41543,0,0,0,11.40786,17.191c.31645.07344.43556.32339.57105.58614a1.18429,1.18429,0,0,0,1.82911.48078,7.87361,7.87361,0,0,0,2.13585-1.8312l.04911-.06818V11.43731A5.77651,5.77651,0,0,1,13.43046,10.676ZM12.139,17.36787c-.17672-.019-.20758-.16048-.20434-.29752a.1938.1938,0,0,1,.20339-.20063.29022.29022,0,0,1,.22382.2932A.19252.19252,0,0,1,12.139,17.36787Zm.63115.4169a.09049.09049,0,0,1-.09284-.09607c-.00054-.05309.04338-.06522.08415-.0636a.08153.08153,0,0,1,.07714.07815C12.83192,17.74422,12.82215,17.78733,12.77014,17.78477Zm1.25448-.19053c-.0981-.00364-.22415-.04985-.21034-.18029a.24373.24373,0,0,1,.28452-.22246.189.189,0,0,1,.19531.20346A.2475.2475,0,0,1,14.02462,17.59424Z" style="fill:#e8aab1"/><path d="M8.42846,1.21805a16.49389,16.49389,0,0,1,1.87254.62752,2.14785,2.14785,0,0,1,1.245,1.20158c.27179.65418.66038,1.25982.99793,1.88665a.76006.76006,0,0,1-.45881.45084,5.41225,5.41225,0,0,1-2.11367-.90985A1.73284,1.73284,0,0,1,9.51177,4.006,8.7707,8.7707,0,0,1,8.42846,1.21805Z" style="fill:#ffda40"/><path d="M11.577,20.52653c.02554-.10761-.05863-.28111.04422-.31135.09513-.028.13469.1567.207.24106a5.1566,5.1566,0,0,0,.4878.572,1.02961,1.02961,0,0,1,.33361.71413c.149,1.27461.31557,2.54766.43469,3.8251.094,1.0085.21608,2.01432.27675,3.02709.03078.51385.03378,1.02608.04665,1.53906.00251.10022.03672.213-.05857.29647l-.00589-.06843c.00114-.14651.00319-.293.00326-.43952.00034-.74714.00016-.74714-.75514-.74662-.08484-.59937-.17468-1.19809-.25337-1.79827q-.18726-1.42846-.36179-2.85859c-.07122-.58049-.13977-1.16147-.19716-1.74346C11.70528,22.02626,11.64383,21.27613,11.577,20.52653Z" style="fill:#ffeaa7"/><path d="M15.993,17.21116v.03935l.00459-.00458A.14308.14308,0,0,1,15.993,17.21116Z" style="fill:#f4d736"/><path d="M12.08511,5.38464a.76006.76006,0,0,0,.45881-.45084q.33839-.21426.67658-.42854a1.4157,1.4157,0,0,1,.44286-.20856,3.48753,3.48753,0,0,0-.5728,1.52526,2.46669,2.46669,0,0,1-.874.36972c-.09686.016-.134.08491-.193.13747-.06155-.0967-.16013-.06109-.24649-.069a2.01757,2.01757,0,0,1,.28073-.62644C12.10428,5.54961,12.174,5.479,12.08511,5.38464Z" style="fill:#e8aab1"/><path d="M12.59144,29.17548c.7553-.00052.75548-.00052.75514.74662-.00007.1465-.00212.293-.00326.43952-.61819-.10323-.61933-.10308-.70351-.71941C12.61866,29.48732,12.6073,29.33109,12.59144,29.17548Z" style="fill:#413b3b"/><polygon points="15.993 17.21 15.993 17.211 15.993 17.21 15.993 17.21" style="fill:#e5dac2"/><path d="M15.9438,16.42667a7.87227,7.87227,0,0,1-2.13578,1.8312,1.18429,1.18429,0,0,1-1.82911-.48078c-.13549-.26275-.2546-.5127-.57105-.58614a.5072.5072,0,0,0-.01314.48535,4.41075,4.41075,0,0,0,.73807.97583,1.2782,1.2782,0,0,0,1.07419.3401,3.89848,3.89848,0,0,0,1.64457-.67777,8.8777,8.8777,0,0,0,1.14143-1.064v-.03935l-.00013-.00094a1.60051,1.60051,0,0,1,.00013-.19929v-.65244Z" style="fill:#ffda40"/><path d="M15.99285,17.21035H15.993v-.19942A1.60259,1.60259,0,0,0,15.99285,17.21035Z" style="fill:#ddc436"/><path d="M14.74322,2.44033c-.041.08328-.02722.22907-.18764.19822a2.54675,2.54675,0,0,0-1.89634.46123c-.29913.29806.06616.32352.18454.45032a.1279.1279,0,0,1,.12228.05471,4.30534,4.30534,0,0,0,1.03114.24955c.03948.00458.07808.01617.11716.02452a.676.676,0,0,1-.07236.09c-.12491.11076-.25224.21883-.3787.32784a3.488,3.488,0,0,0-.57274,1.52518c-.00835.154.06165.20536.21034.16911.26309-.06414.52746-.12316.79123-.18447A3.57045,3.57045,0,0,0,15.993,4.01174V1.34512A2.05436,2.05436,0,0,0,14.74322,2.44033Z" style="fill:#ffda40"/><path d="M12.96606,3.60491a.2721.2721,0,0,1-.06138.00717l-.06092-.062A.12788.12788,0,0,1,12.96606,3.60491Z" style="fill:#f1d0bf"/><path d="M16,9.86631c.00027-.01846-.006-.03315-.007-.0508v1.5966C15.99447,10.89684,15.99211,10.38144,16,9.86631Z" style="fill:#fcf1d5"/><polygon points="15.993 11.427 15.993 11.437 15.999 11.438 15.993 11.427" style="fill:#fcf1d5"/><path d="M12.138,16.86983a.29.29,0,0,1,.22381.29307.19246.19246,0,0,1-.22283.205c-.17673-.019-.20759-.16041-.20435-.29752A.19366.19366,0,0,1,12.138,16.86983Z" style="fill:#ffda40"/><path d="M14.2941,17.39492a.24744.24744,0,0,1-.26946.19933c-.09812-.00358-.2242-.04985-.21038-.18029a.24362.24362,0,0,1,.28457-.22236A.18885.18885,0,0,1,14.2941,17.39492Z" style="fill:#ffda40"/><path d="M12.83866,17.70328c-.00676.04089-.01653.084-.06852.08151a.09049.09049,0,0,1-.09283-.09612c-.00052-.05307.04339-.06507.0841-.06357A.08175.08175,0,0,1,12.83866,17.70328Z" style="fill:#ffda40"/><path d="M14.09219,5.80669c.12478.0764.24753.1559.3744.22826a4.16407,4.16407,0,0,0,1.52639.41434V4.01174A3.5713,3.5713,0,0,1,14.09219,5.80669Z" style="fill:#e8aab1"/><path d="M15.93545,8.79548l.05753-.00081V6.44929A4.16407,4.16407,0,0,1,14.46659,6.035c-.12687-.07236-.24962-.15186-.3744-.22826-.26383.06117-.5282.12019-.79129.18433-.14869.03625-.21869-.01509-.21034-.16911a2.46712,2.46712,0,0,1-.874.36975c-.09688.0159-.13394.08489-.193.13744a6.05018,6.05018,0,0,0-.05828,1.60078A3.29513,3.29513,0,0,0,13.43046,10.676a5.77651,5.77651,0,0,0,2.56252.76132v-.01024h-.00006l.00006-.015v-1.93l-.13427.00148a.697.697,0,0,1-.13555-.06724c-.15651-.125-.341-.28068-.27657-.48158C15.51464,8.723,15.75482,8.79144,15.93545,8.79548Zm-1.94472-.66483a.561.561,0,0,1-.54471.40019.57566.57566,0,0,1-.57287-.41016,1.31013,1.31013,0,0,1,.09392-1.12163c.02472-.04729.11473-.09028.0605-.14687-.04662-.04864-.11582.01105-.17382.03018a1.45228,1.45228,0,0,0-.38517.26464l-.11211.12774a.17033.17033,0,0,1-.02412.05525c-.01968.04851-.02877.12316-.10221.08947-.02661-.01213.00256-.06872.04346-.08651l.01206-.0609a.27843.27843,0,0,1,.10941-.19943,1.061,1.061,0,0,1,1.39327-.301.5137.5137,0,0,1,.24982.31A1.62774,1.62774,0,0,1,13.99073,8.13065Z" style="fill:#fff5d8"/><path d="M14.03815,7.08167a.51485.51485,0,0,0-.24976-.31019,1.06128,1.06128,0,0,0-1.39331.30127.27817.27817,0,0,0-.10944.19922l-.012.061c-.04089.01782-.07013.07446-.04352.08655.07349.03357.08258-.04114.10224-.08948a.1722.1722,0,0,0,.02411-.0553l.11212-.12781a1.44858,1.44858,0,0,1,.38519-.26465c.058-.01916.1272-.07885.17383-.03.0542.05665-.03577.09949-.06049.14673a1.31019,1.31019,0,0,0-.094,1.12159.57555.57555,0,0,0,.57287.41015.561.561,0,0,0,.54474-.40014A1.62767,1.62767,0,0,0,14.03815,7.08167Zm-.80268.39538c-.16-.00525-.19378-.10205-.19781-.21167-.00458-.12439.03772-.23254.17889-.249.12921-.01514.19275.069.19745.187A.25509.25509,0,0,1,13.23547,7.47705Z" style="fill:#413b3b"/><path d="M13.23547,7.47708c-.16-.00524-.1938-.10209-.19783-.21173-.00457-.12437.03775-.23251.17893-.249.12919-.01507.19272.069.19744.18693A.25526.25526,0,0,1,13.23547,7.47708Z" style="fill:#efefef"/><path d="M15.44659,8.93481c-.06441.2009.12006.35654.27657.48158a.697.697,0,0,0,.13555.06724l.13427-.00148V8.79467C15.95254,8.79467,15.48594,8.703,15.44659,8.93481Z" style="fill:#413b3b"/><path d="M23.8289.00516a12.86512,12.86512,0,0,1-2.08249.93731,3.79776,3.79776,0,0,0-1.60413.88459,4.35067,4.35067,0,0,0-.80152,1.26631c.29914.29793-.06619.32341-.18452.45014l-.06091.06207a3.76746,3.76746,0,0,1-.31583.89321l.67649.42847c.33764-.62681.72623-1.23246.998-1.88663a2.14785,2.14785,0,0,1,1.245-1.20158,16.49389,16.49389,0,0,1,1.87254-.62752C23.74748.872,23.738.47744,23.892.13139,23.866.09179,23.95336-.00448,23.8289.00516Z" style="fill:#e59fa8"/><path d="M17.52767,30.7601l.116,1.24438H17.833c.59916-.0077.66674-.42986.69636-.88681.00935-.14435.03749-.28749.057-.43119Z" style="fill:#3a3333"/><path d="M17.14845,18.30794a3.8986,3.8986,0,0,0,1.64457.67777,1.2782,1.2782,0,0,0,1.07419-.3401,4.41075,4.41075,0,0,0,.73807-.97583,10.43359,10.43359,0,0,1-.07741,1.871,3.0136,3.0136,0,0,1-.1049.97919c-.02553-.10752.05861-.28108-.04426-.31126-.09513-.028-.13468.15671-.207.24106a5.17448,5.17448,0,0,1-.48778.572,1.02936,1.02936,0,0,0-.33363.71415c-.149,1.27456-.31558,2.5475-.43469,3.825-.09406,1.00858-.21607,2.01432-.27677,3.02707-.03079.51392-.03376,1.02609-.04662,1.53906-.00256.10025-.03672.213.05854.29644a.42612.42612,0,0,1-.0644.263l-1.0587.07357c-.04528-.52012-.09453-1.0401-.13488-1.56063-.06778-.87477-.11049-1.752-.19922-2.62457q-.18231-1.792-.30682-3.588c-.03854-.56836-.0477-.57968-.605-.46986a1.87779,1.87779,0,0,1-.27474.0163V17.244A8.87777,8.87777,0,0,0,17.14845,18.30794Z" style="fill:#fef1c6"/><path d="M16.007,11.43078V16.352l.04911.06818A7.8734,7.8734,0,0,0,18.192,18.25134a1.18428,1.18428,0,0,0,1.82911-.48077c.13549-.26275.2546-.51271.571-.58614a4.4154,4.4154,0,0,0-1.07062-2.60167,3.03535,3.03535,0,0,0-1.08309-.79473.34879.34879,0,0,1-.23728-.34953,2.85429,2.85429,0,0,1,.91708-2.38393A4.75563,4.75563,0,0,0,20.474,7.47734a2.95691,2.95691,0,0,0-.2511-1.22376c-.08637.00795-.18494-.02775-.24645.069a6.05021,6.05021,0,0,1,.05828,1.60078,3.29513,3.29513,0,0,1-1.46516,2.74612A5.77637,5.77637,0,0,1,16.007,11.43078Zm3.63112,5.72562a.29024.29024,0,0,1,.22382-.29321.19382.19382,0,0,1,.20339.20064c.00324.137-.02762.27852-.20434.29752A.19252.19252,0,0,1,19.63814,17.1564Zm-.47673.54033a.08151.08151,0,0,1,.07714-.07815c.04077-.00162.08469.01051.08415.0636a.09049.09049,0,0,1-.09284.09607C19.17785,17.78081,19.16808,17.73769,19.16141,17.69673Zm-1.45552-.3083a.189.189,0,0,1,.19531-.20346.24373.24373,0,0,1,.28452.22246c.01381.13043-.11224.17665-.21034.18029A.2475.2475,0,0,1,17.70589,17.38843Z" style="fill:#e59fa8"/><path d="M23.57154,1.21153a16.49389,16.49389,0,0,0-1.87254.62752,2.14785,2.14785,0,0,0-1.245,1.20158c-.27179.65417-.66038,1.25982-.99793,1.88665a.76.76,0,0,0,.45881.45083,5.412,5.412,0,0,0,2.11367-.90985,1.73266,1.73266,0,0,0,.45967-.46874A8.7707,8.7707,0,0,0,23.57154,1.21153Z" style="fill:#f9c900"/><path d="M20.423,20.52c-.02554-.10762.05863-.28111-.04422-.31136-.09513-.028-.13469.15671-.207.24106a5.1558,5.1558,0,0,1-.4878.572,1.02959,1.02959,0,0,0-.33361.71413c-.149,1.2746-.31557,2.54765-.43469,3.8251-.094,1.00849-.21608,2.01432-.27675,3.02709-.03078.51384-.03378,1.02607-.04665,1.539-.00251.10023-.03672.213.05857.29648l.00589-.06843c-.00114-.14651-.00319-.293-.00326-.43953-.00034-.74714-.00016-.74714.75514-.74661.08484-.59937.17468-1.19809.25337-1.79827q.18726-1.42846.36179-2.85859c.07122-.58049.13977-1.16147.19716-1.74346C20.29472,22.01974,20.35617,21.26961,20.423,20.52Z" style="fill:#ffe28a"/><path d="M16.007,17.20464V17.244l-.00459-.00458A.143.143,0,0,0,16.007,17.20464Z" style="fill:#f4d736"/><path d="M19.91489,5.37811a.76.76,0,0,1-.45881-.45083q-.33839-.21426-.67658-.42855a1.41568,1.41568,0,0,0-.44286-.20855,3.48753,3.48753,0,0,1,.5728,1.52526,2.46669,2.46669,0,0,0,.874.36972c.09686.016.13395.0849.193.13747.06155-.0967.16013-.06109.24649-.069a2.01757,2.01757,0,0,0-.28073-.62644C19.89572,5.54309,19.826,5.47247,19.91489,5.37811Z" style="fill:#e59fa8"/><path d="M19.40856,29.169c-.7553-.00053-.75548-.00053-.75514.74661.00007.14651.00212.293.00326.43953.61819-.10324.61933-.10308.70351-.71941C19.38134,29.4808,19.3927,29.32457,19.40856,29.169Z" style="fill:#3a3333"/><polygon points="16.007 17.204 16.007 17.205 16.007 17.204 16.007 17.204" style="fill:#e5dac2"/><path d="M16.0562,16.42015A7.87206,7.87206,0,0,0,18.192,18.25134a1.18428,1.18428,0,0,0,1.82911-.48077c.13549-.26275.2546-.51271.571-.58614a.5072.5072,0,0,1,.01314.48535,4.41075,4.41075,0,0,1-.73807.97583,1.2782,1.2782,0,0,1-1.07419.3401,3.8986,3.8986,0,0,1-1.64457-.67777A8.87777,8.87777,0,0,1,16.007,17.244v-.03934l.00013-.00094a1.60051,1.60051,0,0,0-.00013-.19929V16.352Z" style="fill:#f9c900"/><path d="M16.00715,17.20383H16.007v-.19942A1.60259,1.60259,0,0,1,16.00715,17.20383Z" style="fill:#ddc436"/><path d="M17.25678,2.43381c.041.08328.02722.22907.18764.19821a2.54672,2.54672,0,0,1,1.89634.46124c.29913.29806-.06616.32352-.18454.45032a.1279.1279,0,0,0-.12228.0547,4.30439,4.30439,0,0,1-1.03114.24955c-.03948.00459-.07808.01617-.11716.02453a.676.676,0,0,0,.07236.09c.12491.11076.25224.21882.3787.32783a3.48809,3.48809,0,0,1,.57274,1.52519c.00835.154-.06165.20535-.21034.16911-.26309-.06414-.52746-.12316-.79123-.18447A3.57048,3.57048,0,0,1,16.007,4.00522V1.3386A2.05436,2.05436,0,0,1,17.25678,2.43381Z" style="fill:#f9c900"/><path d="M19.03394,3.59839a.27209.27209,0,0,0,.06138.00716l.06092-.062A.12791.12791,0,0,0,19.03394,3.59839Z" style="fill:#f1d0bf"/><path d="M16,9.85978c-.00027-.01846.006-.03314.007-.0508v1.59661C16.00553,10.89032,16.00789,10.37492,16,9.85978Z" style="fill:#fcf1d5"/><polygon points="16.007 11.421 16.007 11.431 16.001 11.431 16.007 11.421" style="fill:#fcf1d5"/><path d="M19.862,16.86331a.29.29,0,0,0-.22381.29306.19246.19246,0,0,0,.22283.205c.17673-.019.20759-.16041.20435-.29752A.19366.19366,0,0,0,19.862,16.86331Z" style="fill:#f9c900"/><path d="M17.7059,17.38839a.24745.24745,0,0,0,.26946.19934c.09812-.00358.2242-.04986.21038-.18029a.24361.24361,0,0,0-.28457-.22236A.18884.18884,0,0,0,17.7059,17.38839Z" style="fill:#f9c900"/><path d="M19.16134,17.69676c.00676.04089.01653.084.06852.08151a.09049.09049,0,0,0,.09283-.09612c.00052-.05308-.04339-.06507-.0841-.06357A.08175.08175,0,0,0,19.16134,17.69676Z" style="fill:#f9c900"/><path d="M17.90781,5.80016c-.12478.07641-.24753.15591-.3744.22826a4.16389,4.16389,0,0,1-1.52639.41435V4.00522A3.57128,3.57128,0,0,0,17.90781,5.80016Z" style="fill:#e59fa8"/><path d="M16.55341,8.92829c.06441.2009-.12006.35653-.27657.48158a.697.697,0,0,1-.13555.06724L16.007,9.47562v1.93c0,.005.00006.00983.00006.015H16.007v.01024a5.77637,5.77637,0,0,0,2.56252-.76131A3.29513,3.29513,0,0,0,20.0347,7.92335a6.05021,6.05021,0,0,0-.05828-1.60078c-.05908-.05255-.09614-.12154-.193-.13744a2.46691,2.46691,0,0,1-.874-.36974c.00835.154-.06165.20535-.21034.16911-.26309-.06414-.52746-.12316-.79129-.18434-.12478.07641-.24753.15591-.3744.22826a4.16389,4.16389,0,0,1-1.52639.41435V8.78815l.05753.00081C16.24518,8.78492,16.48536,8.71647,16.55341,8.92829Zm1.40843-1.85316a.51367.51367,0,0,1,.24982-.31,1.061,1.061,0,0,1,1.39327.301.2784.2784,0,0,1,.10941.19942l.01206.06091c.0409.01779.07007.07438.04346.08651-.07344.03368-.08253-.041-.10221-.08947a.17033.17033,0,0,1-.02412-.05525l-.11211-.12774a1.45181,1.45181,0,0,0-.38517-.26464c-.058-.01913-.1272-.07883-.17382-.03018-.05423.05659.03578.09957.0605.14687a1.31011,1.31011,0,0,1,.09392,1.12162.57565.57565,0,0,1-.57287.41017.56105.56105,0,0,1-.54471-.4002A1.62771,1.62771,0,0,1,17.96184,7.07513Z" style="fill:#fef1c6"/><path d="M19.72638,7.32642l-.012-.06092a.27864.27864,0,0,0-.10944-.19934A1.06111,1.06111,0,0,0,18.21161,6.765a.51451.51451,0,0,0-.24976.31019,1.6277,1.6277,0,0,0,.04743,1.049.561.561,0,0,0,.54474.40014.57569.57569,0,0,0,.57287-.41015,1.30987,1.30987,0,0,0-.094-1.12146c-.02472-.04737-.11469-.09034-.06049-.147.04663-.0487.11585.011.17383.03a1.4518,1.4518,0,0,1,.38519.26477l.11212.12781a.17158.17158,0,0,0,.02411.05518c.01966.04834.02875.123.10224.0896C19.79651,7.40088,19.76727,7.34424,19.72638,7.32642Zm-.96185.144a.25509.25509,0,0,1-.17853-.27368c.0047-.11792.06824-.202.19745-.187.14117.0166.18347.12475.17889.249C18.95831,7.36841,18.9245,7.46533,18.76453,7.47046Z" style="fill:#3a3333"/><path d="M18.76453,7.47056c.16-.00524.1938-.10209.19783-.21174.00457-.12437-.03775-.2325-.17893-.249-.12919-.01506-.19272.069-.19744.18694A.25526.25526,0,0,0,18.76453,7.47056Z" style="fill:#efefef"/><path d="M16.55341,8.92829c.06441.2009-.12006.35653-.27657.48158a.697.697,0,0,1-.13555.06724L16.007,9.47562V8.78815C16.04746,8.78815,16.51406,8.69648,16.55341,8.92829Z" style="fill:#3a3333"/></svg>