<svg xmlns="http://www.w3.org/2000/svg" viewBox="0 0 32 32"><title>585-deerling-winter</title><path d="M8.136.00393a12.86516,12.86516,0,0,0,2.08249.93732,3.79786,3.79786,0,0,1,1.60414.88459,4.35084,4.35084,0,0,1,.80151,1.26631c-.29913.29792.0662.3234.18452.45014l.06092.06207a3.7672,3.7672,0,0,0,.31582.8932L12.509,4.926c-.33764-.62681-.72624-1.23246-.998-1.88663a2.1479,2.1479,0,0,0-1.245-1.20158A16.49389,16.49389,0,0,0,8.3934,1.21031C8.21746.87076,8.22693.47622,8.07293.13016,8.09892.09057,8.01158-.0057,8.136.00393Z" style="fill:#cda073"/><path d="M14.43727,30.75888l-.11595,1.24438H14.132c-.59915-.0077-.66674-.42986-.69635-.88681-.00936-.14435-.03749-.28749-.057-.43119Z" style="fill:#413b3b"/><path d="M14.8165,18.30672a3.89871,3.89871,0,0,1-1.64457.67777,1.27822,1.27822,0,0,1-1.0742-.3401,4.41075,4.41075,0,0,1-.73807-.97583,10.43344,10.43344,0,0,0,.07741,1.87094,3.0139,3.0139,0,0,0,.1049.9792c.02554-.10753-.05861-.28108.04427-.31126.09513-.028.13468.15671.207.24106a5.17345,5.17345,0,0,0,.48778.572,1.02944,1.02944,0,0,1,.33363.71416c.149,1.27456.31557,2.5475.43469,3.825.094,1.00857.21606,2.01432.27676,3.02707.03079.51392.03376,1.02608.04663,1.53906.00256.10025.03672.213-.05855.29644a.42612.42612,0,0,0,.06441.263l1.0587.07357c.04527-.52012.09452-1.04011.13488-1.56063.06777-.87477.11049-1.752.19922-2.62458q.18231-1.792.30681-3.588c.03854-.56836.0477-.57968.605-.46986a1.87785,1.87785,0,0,0,.27475.0163V17.24276A8.87848,8.87848,0,0,1,14.8165,18.30672Z" style="fill:#fff5d8"/><path d="M13.3954,10.66825a3.29516,3.29516,0,0,1-1.46516-2.74612,6.0502,6.0502,0,0,1,.05828-1.60078c-.06151-.09675-.16008-.061-.24645-.069a2.95687,2.95687,0,0,0-.2511,1.22376,4.75562,4.75562,0,0,0,1.35575,3.57723,2.85431,2.85431,0,0,1,.91708,2.38392.34879.34879,0,0,1-.23729.34953,3.03567,3.03567,0,0,0-1.08309.79473,4.41552,4.41552,0,0,0-1.07062,2.60168c.31645.07343.43557.32338.571.58614a1.18429,1.18429,0,0,0,1.82911.48077,7.8734,7.8734,0,0,0,2.13585-1.83119l.04912-.06818V11.42956A5.77641,5.77641,0,0,1,13.3954,10.66825Zm-1.29147,6.69188c-.17672-.019-.20757-.16049-.20434-.29752a.19382.19382,0,0,1,.2034-.20064.29023.29023,0,0,1,.22381.29321A.19252.19252,0,0,1,12.10393,17.36013Zm.63115.4169a.0905.0905,0,0,1-.09284-.09607c-.00054-.05309.04339-.06522.08415-.0636a.0815.0815,0,0,1,.07714.07815C12.79686,17.73647,12.78709,17.77959,12.73508,17.777Zm1.25448-.19053c-.09809-.00364-.22415-.04986-.21034-.18029a.24374.24374,0,0,1,.28452-.22247.189.189,0,0,1,.19531.20347A.2475.2475,0,0,1,13.98956,17.5865Z" style="fill:#cda073"/><path d="M8.3934,1.21031a16.49389,16.49389,0,0,1,1.87254.62752,2.1479,2.1479,0,0,1,1.245,1.20158c.27178.65417.66038,1.25982.99792,1.88664a.76.76,0,0,1-.4588.45084A5.41189,5.41189,0,0,1,9.93639,4.467a1.73255,1.73255,0,0,1-.45968-.46874A8.771,8.771,0,0,1,8.3934,1.21031Z" style="fill:#ffda40"/><path d="M11.542,20.51879c.02555-.10762-.05862-.28112.04423-.31136.09513-.028.13468.15671.207.24106a5.15663,5.15663,0,0,0,.48779.572,1.02952,1.02952,0,0,1,.33361.71412c.149,1.27461.31558,2.54766.43469,3.82511.094,1.00849.21608,2.01431.27675,3.02708.03078.51385.03379,1.02608.04665,1.53906.00251.10022.03672.213-.05856.29648l-.00589-.06843c.00114-.14652.00318-.293.00325-.43953.00034-.74714.00016-.74714-.75513-.74661-.08484-.59938-.17469-1.19809-.25337-1.79827q-.18726-1.42847-.36179-2.85859c-.07122-.58049-.13978-1.16148-.19716-1.74346C11.67022,22.01851,11.60877,21.26839,11.542,20.51879Z" style="fill:#ffeaa7"/><path d="M15.95793,17.20342v.03934l.00458-.00458A.14306.14306,0,0,1,15.95793,17.20342Z" style="fill:#f4d736"/><path d="M12.05006,5.37689a.76.76,0,0,0,.4588-.45084q.33839-.21425.67658-.42854A1.41578,1.41578,0,0,1,13.6283,4.289a3.48766,3.48766,0,0,0-.5728,1.52525,2.46656,2.46656,0,0,1-.874.36973c-.09686.016-.134.0849-.193.13746-.06155-.09669-.16013-.06109-.24648-.069a2.01721,2.01721,0,0,1,.28072-.62644C12.06922,5.54187,12.13893,5.47124,12.05006,5.37689Z" style="fill:#cda073"/><path d="M12.55639,29.16774c.75529-.00053.75547-.00053.75513.74661-.00007.14651-.00211.293-.00325.43953-.6182-.10324-.61933-.10308-.70351-.71941C12.5836,29.47958,12.57225,29.32335,12.55639,29.16774Z" style="fill:#413b3b"/><polygon points="15.958 17.203 15.958 17.204 15.958 17.203 15.958 17.203" style="fill:#e5dac2"/><path d="M15.90875,16.41893A7.87225,7.87225,0,0,1,13.773,18.25012a1.18429,1.18429,0,0,1-1.82911-.48077c-.13548-.26276-.2546-.51271-.571-.58614a.5072.5072,0,0,0-.01314.48535,4.41075,4.41075,0,0,0,.73807.97583,1.27822,1.27822,0,0,0,1.0742.3401,3.89871,3.89871,0,0,0,1.64457-.67777,8.87848,8.87848,0,0,0,1.14143-1.064v-.03934l-.00014-.00095a1.60051,1.60051,0,0,1,.00014-.19929v-.65243Z" style="fill:#ffda40"/><path d="M15.95779,17.20261h.00014v-.19943A1.60276,1.60276,0,0,0,15.95779,17.20261Z" style="fill:#ddc436"/><path d="M14.70816,2.43259c-.041.08327-.02722.22907-.18763.19821a2.54673,2.54673,0,0,0-1.89635.46124c-.29913.298.06616.32352.18454.45032a.1279.1279,0,0,1,.12228.0547,4.30439,4.30439,0,0,0,1.03114.24955c.03948.00458.07809.01617.11716.02453a.67594.67594,0,0,1-.07235.09c-.12491.11076-.25225.21882-.37871.32783a3.48807,3.48807,0,0,0-.57273,1.52519c-.00836.154.06164.20535.21033.16911.26309-.06414.52747-.12316.79123-.18447A3.57054,3.57054,0,0,0,15.95793,4.004V1.33738A2.05435,2.05435,0,0,0,14.70816,2.43259Z" style="fill:#ffda40"/><path d="M12.931,3.59716a.27166.27166,0,0,1-.06138.00717l-.06093-.062A.12792.12792,0,0,1,12.931,3.59716Z" style="fill:#f1d0bf"/><path d="M15.96494,9.85856c.00026-.01846-.006-.03315-.007-.0508v1.59661C15.95941,10.8891,15.95705,10.3737,15.96494,9.85856Z" style="fill:#fcf1d5"/><polygon points="15.958 11.419 15.958 11.43 15.964 11.43 15.958 11.419" style="fill:#fcf1d5"/><path d="M12.103,16.86209a.29.29,0,0,1,.22382.29306.19247.19247,0,0,1-.22284.205c-.17673-.019-.20759-.16041-.20435-.29752A.19366.19366,0,0,1,12.103,16.86209Z" style="fill:#ffda40"/><path d="M14.25905,17.38717a.24747.24747,0,0,1-.26946.19934c-.09813-.00358-.22421-.04986-.21039-.18029a.24361.24361,0,0,1,.28457-.22236A.18884.18884,0,0,1,14.25905,17.38717Z" style="fill:#ffda40"/><path d="M12.80361,17.69554c-.00677.04089-.01653.084-.06853.08151a.09048.09048,0,0,1-.09282-.09612c-.00053-.05308.04338-.06507.0841-.06357A.08176.08176,0,0,1,12.80361,17.69554Z" style="fill:#ffda40"/><path d="M14.05714,5.79894c.12477.0764.24753.1559.37439.22826a4.16394,4.16394,0,0,0,1.5264.41435V4.004A3.57136,3.57136,0,0,1,14.05714,5.79894Z" style="fill:#cda073"/><path d="M15.90039,8.78774l.05754-.00081V6.44155a4.16394,4.16394,0,0,1-1.5264-.41435c-.12686-.07236-.24962-.15186-.37439-.22826-.26383.06118-.52821.1202-.7913.18434-.14869.03624-.21869-.0151-.21033-.16911a2.46688,2.46688,0,0,1-.874.36974c-.09688.0159-.13393.08489-.193.13744a6.0502,6.0502,0,0,0-.05828,1.60078,3.29516,3.29516,0,0,0,1.46516,2.74612,5.77641,5.77641,0,0,0,2.56253.76131v-.01024h-.00007l.00007-.015v-1.93l-.13428.00148a.69639.69639,0,0,1-.13555-.06723c-.15651-.125-.341-.28068-.27657-.48158C15.47958,8.71524,15.71977,8.7837,15.90039,8.78774ZM13.95567,8.1229a.561.561,0,0,1-.54471.4002.57565.57565,0,0,1-.57287-.41017A1.31011,1.31011,0,0,1,12.932,6.99131c.02473-.0473.11474-.09028.0605-.14687-.04662-.04865-.11581.011-.17382.03018a1.452,1.452,0,0,0-.38517.26464l-.11211.12774a.17.17,0,0,1-.02412.05524c-.01967.04851-.02877.12316-.1022.08947-.02662-.01212.00256-.06872.04345-.0865l.01206-.06091A.27842.27842,0,0,1,12.36,7.06488a1.061,1.061,0,0,1,1.39327-.301.51369.51369,0,0,1,.24981.31A1.62764,1.62764,0,0,1,13.95567,8.1229Z" style="fill:#fff5d8"/><path d="M14.00309,7.07392a.5148.5148,0,0,0-.24976-.31018A1.06127,1.06127,0,0,0,12.36,7.065a.27814.27814,0,0,0-.10943.19922l-.012.061c-.04089.01783-.07013.07447-.04351.08655.07348.03357.08258-.04114.10223-.08948a.172.172,0,0,0,.02411-.05529l.11212-.12781a1.44867,1.44867,0,0,1,.38519-.26465c.058-.01916.1272-.07886.17383-.03.0542.05664-.03577.09949-.06048.14673a1.31014,1.31014,0,0,0-.094,1.12158.57558.57558,0,0,0,.57288.41016.561.561,0,0,0,.54474-.40015A1.62766,1.62766,0,0,0,14.00309,7.07392Zm-.80267.39539c-.16-.00525-.19379-.10205-.19782-.21167-.00458-.12439.03772-.23255.1789-.249.12921-.01513.19275.069.19745.187A.2551.2551,0,0,1,13.20042,7.46931Z" style="fill:#413b3b"/><path d="M13.20041,7.46934c-.16-.00524-.1938-.1021-.19783-.21174-.00457-.12437.03775-.2325.17893-.249.1292-.01506.19272.069.19744.18694A.25525.25525,0,0,1,13.20041,7.46934Z" style="fill:#efefef"/><path d="M15.41153,8.92707c-.0644.2009.12006.35653.27657.48158a.69639.69639,0,0,0,.13555.06723l.13428-.00148V8.78693C15.91748,8.78693,15.45088,8.69525,15.41153,8.92707Z" style="fill:#413b3b"/><path d="M23.79384-.00259a12.86545,12.86545,0,0,1-2.08248.93732,3.79769,3.79769,0,0,0-1.60414.88459,4.3505,4.3505,0,0,0-.80151,1.26631c.29913.29792-.0662.3234-.18452.45014l-.06092.06207a3.76735,3.76735,0,0,1-.31582.8932l.67648.42848c.33764-.62682.72623-1.23246.998-1.88663a2.14789,2.14789,0,0,1,1.245-1.20159,16.49455,16.49455,0,0,1,1.87254-.62752C23.71242.86424,23.703.46969,23.857.12364,23.831.084,23.91831-.01222,23.79384-.00259Z" style="fill:#c09265"/><path d="M17.49261,30.75236l.116,1.24438h.18935c.59915-.0077.66674-.42986.69635-.88681.00936-.14436.03749-.2875.057-.43119Z" style="fill:#3a3333"/><path d="M17.11339,18.30019A3.89853,3.89853,0,0,0,18.758,18.978a1.27818,1.27818,0,0,0,1.07419-.34009,4.41036,4.41036,0,0,0,.73807-.97583,10.43352,10.43352,0,0,1-.07741,1.87094,3.01366,3.01366,0,0,1-.1049.9792c-.02553-.10753.05862-.28108-.04426-.31126-.09513-.028-.13468.15671-.207.24106a5.17345,5.17345,0,0,1-.48778.572,1.02944,1.02944,0,0,0-.33363.71415c-.149,1.27456-.31557,2.54751-.43469,3.825-.094,1.00857-.21606,2.01431-.27677,3.02706-.03079.51392-.03375,1.02609-.04662,1.53907-.00256.10025-.03672.213.05855.29644a.42614.42614,0,0,1-.06441.263l-1.0587.07357c-.04527-.52011-.09452-1.0401-.13488-1.56062-.06778-.87477-.11049-1.752-.19922-2.62458q-.18231-1.792-.30682-3.588c-.03853-.56835-.0477-.57967-.605-.46986a1.87662,1.87662,0,0,1-.27475.01631V17.23624A8.8777,8.8777,0,0,0,17.11339,18.30019Z" style="fill:#fef1c6"/><path d="M15.972,11.423v4.92118l.04911.06819a7.87359,7.87359,0,0,0,2.13586,1.83119,1.18428,1.18428,0,0,0,1.8291-.48077c.13549-.26276.25461-.51271.57106-.58615A4.41553,4.41553,0,0,0,19.48646,14.575a3.03555,3.03555,0,0,0-1.08308-.79473.34879.34879,0,0,1-.23729-.34953,2.85431,2.85431,0,0,1,.91708-2.38392A4.75561,4.75561,0,0,0,20.43891,7.4696a2.95667,2.95667,0,0,0-.25109-1.22376c-.08638.008-.18494-.02776-.24645.069a6.05018,6.05018,0,0,1,.05827,1.60078,3.29513,3.29513,0,0,1-1.46515,2.74612A5.77645,5.77645,0,0,1,15.972,11.423Zm3.63113,5.72562a.29023.29023,0,0,1,.22381-.29321.19382.19382,0,0,1,.2034.20064c.00323.137-.02762.27851-.20434.29751A.19251.19251,0,0,1,19.60309,17.14866Zm-.47673.54033a.08152.08152,0,0,1,.07714-.07816c.04076-.00161.08469.01051.08415.0636a.09051.09051,0,0,1-.09284.09608C19.1428,17.77307,19.133,17.73,19.12636,17.689Zm-1.45553-.3083a.189.189,0,0,1,.19532-.20347.24373.24373,0,0,1,.28451.22247c.01381.13043-.11224.17665-.21034.18029A.24753.24753,0,0,1,17.67083,17.38069Z" style="fill:#c09265"/><path d="M23.53648,1.20378a16.49455,16.49455,0,0,0-1.87254.62752,2.14789,2.14789,0,0,0-1.245,1.20159c-.27179.65417-.66038,1.25981-.99793,1.88664a.76.76,0,0,0,.45881.45084,5.4121,5.4121,0,0,0,2.11367-.90985,1.73284,1.73284,0,0,0,.45968-.46874A8.77073,8.77073,0,0,0,23.53648,1.20378Z" style="fill:#f9c900"/><path d="M20.38791,20.51227c-.02555-.10762.05862-.28112-.04423-.31136-.09513-.028-.13469.1567-.207.24106a5.15663,5.15663,0,0,1-.48779.572,1.02958,1.02958,0,0,0-.33362.71412c-.149,1.27461-.31557,2.54766-.43468,3.82511-.094,1.00849-.21609,2.01431-.27675,3.02708-.03079.51385-.03379,1.02608-.04665,1.53906-.00252.10022-.03672.213.05856.29648l.00589-.06843c-.00114-.14652-.00319-.293-.00325-.43953-.00034-.74714-.00017-.74714.75513-.74662.08484-.59937.17469-1.19808.25337-1.79826q.18726-1.42846.36179-2.85859c.07122-.58049.13978-1.16148.19716-1.74346C20.25967,22.012,20.32112,21.26187,20.38791,20.51227Z" style="fill:#ffe28a"/><path d="M15.972,17.19689v.03935l-.00458-.00458A.14307.14307,0,0,0,15.972,17.19689Z" style="fill:#f4d736"/><path d="M19.87983,5.37037a.76.76,0,0,1-.45881-.45084q-.33837-.21426-.67657-.42854a1.41573,1.41573,0,0,0-.44287-.20855,3.48749,3.48749,0,0,1,.5728,1.52525,2.46689,2.46689,0,0,0,.874.36973c.09686.016.134.0849.193.13746.06154-.09669.16013-.06109.24648-.069a2.01768,2.01768,0,0,0-.28073-.62644C19.86067,5.53535,19.791,5.46472,19.87983,5.37037Z" style="fill:#c09265"/><path d="M19.3735,29.16121c-.7553-.00052-.75547-.00052-.75513.74662.00006.14651.00211.293.00325.43953.6182-.10324.61933-.10309.70351-.71941C19.34629,29.47306,19.35764,29.31683,19.3735,29.16121Z" style="fill:#3a3333"/><polygon points="15.972 17.196 15.972 17.197 15.972 17.196 15.972 17.196" style="fill:#e5dac2"/><path d="M16.02114,16.41241a7.87225,7.87225,0,0,0,2.13579,1.83119,1.18428,1.18428,0,0,0,1.8291-.48077c.13549-.26276.25461-.51271.57106-.58615a.50722.50722,0,0,1,.01313.48536,4.41036,4.41036,0,0,1-.73807.97583A1.27818,1.27818,0,0,1,18.758,18.978a3.89853,3.89853,0,0,1-1.64457-.67777,8.8777,8.8777,0,0,1-1.14143-1.064v-.03935l.00013-.00094a1.59858,1.59858,0,0,0-.00013-.19929v-.65244Z" style="fill:#f9c900"/><path d="M15.97209,17.19609H15.972v-.19943A1.60083,1.60083,0,0,1,15.97209,17.19609Z" style="fill:#ddc436"/><path d="M17.22173,2.42607c.041.08327.02721.22907.18763.19821a2.54673,2.54673,0,0,1,1.89634.46123c.29914.29806-.06616.32353-.18453.45032a.1279.1279,0,0,0-.12228.05471,4.30462,4.30462,0,0,1-1.03114.24955c-.03949.00458-.07809.01617-.11717.02452a.67552.67552,0,0,0,.07236.09c.12491.11076.25225.21883.37871.32784a3.48807,3.48807,0,0,1,.57273,1.52519c.00836.154-.06164.20535-.21034.1691-.26309-.06414-.52746-.12315-.79122-.18446A3.57052,3.57052,0,0,1,15.972,3.99747V1.33086A2.05435,2.05435,0,0,1,17.22173,2.42607Z" style="fill:#f9c900"/><path d="M18.99888,3.59064a.27153.27153,0,0,0,.06138.00717l.06093-.062A.12791.12791,0,0,0,18.99888,3.59064Z" style="fill:#f1d0bf"/><path d="M15.965,9.852c-.00027-.01846.006-.03315.007-.0508v1.5966C15.97048,10.88258,15.97283,10.36717,15.965,9.852Z" style="fill:#fcf1d5"/><polygon points="15.972 11.413 15.972 11.423 15.966 11.424 15.972 11.413" style="fill:#fcf1d5"/><path d="M19.82691,16.85557a.29.29,0,0,0-.22381.29306.19247.19247,0,0,0,.22283.205c.17674-.019.2076-.16041.20436-.29753A.19366.19366,0,0,0,19.82691,16.85557Z" style="fill:#f9c900"/><path d="M17.67084,17.38065a.24746.24746,0,0,0,.26946.19934c.09813-.00358.22421-.04986.21038-.1803a.24362.24362,0,0,0-.28457-.22236A.18886.18886,0,0,0,17.67084,17.38065Z" style="fill:#f9c900"/><path d="M19.12628,17.689c.00677.04088.01653.084.06853.08151a.09049.09049,0,0,0,.09282-.09612c.00052-.05308-.04339-.06508-.0841-.06357A.08174.08174,0,0,0,19.12628,17.689Z" style="fill:#f9c900"/><path d="M17.87275,5.79242c-.12478.0764-.24753.1559-.37439.22826A4.164,4.164,0,0,1,15.972,6.435V3.99747A3.57134,3.57134,0,0,0,17.87275,5.79242Z" style="fill:#c09265"/><path d="M16.51835,8.92054c.06441.20091-.12006.35654-.27656.48158a.69567.69567,0,0,1-.13556.06724L15.972,9.46788v1.93c0,.005.00007.00984.00007.015H15.972V11.423a5.77645,5.77645,0,0,0,2.56253-.76131,3.29513,3.29513,0,0,0,1.46515-2.74612,6.05018,6.05018,0,0,0-.05827-1.60078c-.05909-.05255-.09615-.12154-.193-.13744a2.46728,2.46728,0,0,1-.874-.36974c.00836.154-.06164.20535-.21034.1691-.26309-.06414-.52746-.12315-.79129-.18433-.12478.0764-.24753.1559-.37439.22826A4.164,4.164,0,0,1,15.972,6.435V8.78041l.05754.00081C16.21012,8.77717,16.45031,8.70872,16.51835,8.92054Zm1.40843-1.85316a.51371.51371,0,0,1,.24982-.31,1.061,1.061,0,0,1,1.39327.301.27845.27845,0,0,1,.10942.19942l.01206.06091c.04089.01778.07006.07438.04345.0865-.07344.03369-.08253-.041-.1022-.08947a.17007.17007,0,0,1-.02412-.05524l-.11211-.12774a1.452,1.452,0,0,0-.38517-.26464c-.058-.01914-.1272-.07883-.17382-.03019-.05424.0566.03577.09958.0605.14688a1.31014,1.31014,0,0,1,.09391,1.12162.57565.57565,0,0,1-.57287.41017.56105.56105,0,0,1-.54471-.4002A1.62774,1.62774,0,0,1,17.92678,7.06738Z" style="fill:#fef1c6"/><path d="M19.69132,7.31867l-.012-.06091a.27862.27862,0,0,0-.10944-.19934,1.06111,1.06111,0,0,0-1.39331-.30115.51445.51445,0,0,0-.24975.31018,1.6277,1.6277,0,0,0,.04742,1.049.561.561,0,0,0,.54474.40015.57573.57573,0,0,0,.57288-.41016,1.30991,1.30991,0,0,0-.094-1.12146c-.02472-.04736-.11468-.09033-.06048-.147.04663-.04871.11584.011.17382.03a1.45178,1.45178,0,0,1,.3852.26477l.11212.12781a.17141.17141,0,0,0,.02411.05517c.01965.04834.02874.12305.10223.0896C19.76145,7.39313,19.73222,7.33649,19.69132,7.31867Zm-.96185.14405a.25511.25511,0,0,1-.17853-.27369c.0047-.11792.06824-.202.19745-.187.14118.0166.18347.12476.17889.249C18.92326,7.36066,18.88944,7.45759,18.72947,7.46272Z" style="fill:#3a3333"/><path d="M18.72948,7.46281c.16-.00524.1938-.10209.19783-.21173.00457-.12437-.03776-.23251-.17894-.249-.12919-.01507-.19271.069-.19743.18694A.25524.25524,0,0,0,18.72948,7.46281Z" style="fill:#efefef"/><path d="M16.51835,8.92054c.06441.20091-.12006.35654-.27656.48158a.69567.69567,0,0,1-.13556.06724L15.972,9.46788V8.78041C16.0124,8.78041,16.479,8.68873,16.51835,8.92054Z" style="fill:#3a3333"/></svg>