<svg xmlns="http://www.w3.org/2000/svg" viewBox="0 0 32 32"><title>585-deerling-autumn-shiny</title><path d="M9.09324.00393a12.86516,12.86516,0,0,0,2.08249.93732,3.79786,3.79786,0,0,1,1.60414.88459,4.35084,4.35084,0,0,1,.80151,1.26631c-.29914.29792.06619.3234.18452.45014l.06092.06207a3.7672,3.7672,0,0,0,.31582.8932l-.67648.42848c-.33765-.62681-.72624-1.23246-.998-1.88663a2.14785,2.14785,0,0,0-1.245-1.20158A16.49389,16.49389,0,0,0,9.3506,1.21031C9.17466.87076,9.18412.47622,9.03013.13016,9.05612.09057,8.96878-.0057,9.09324.00393Z" style="fill:#fca15e"/><path d="M15.39447,30.75888l-.116,1.24438h-.18934c-.59916-.0077-.66674-.42986-.69636-.88681-.00935-.14435-.03748-.28749-.057-.43119Z" style="fill:#413b3b"/><path d="M15.7737,18.30672a3.8987,3.8987,0,0,1-1.64458.67777,1.27821,1.27821,0,0,1-1.07419-.3401,4.41075,4.41075,0,0,1-.73807-.97583,10.43344,10.43344,0,0,0,.07741,1.87094,3.01363,3.01363,0,0,0,.1049.9792c.02554-.10753-.05861-.28108.04427-.31126.09513-.028.13467.15671.207.24106a5.17129,5.17129,0,0,0,.48778.572,1.02944,1.02944,0,0,1,.33363.71416c.149,1.27456.31557,2.5475.43469,3.825.094,1.00857.21606,2.01432.27676,3.02707.03079.51392.03376,1.02608.04663,1.53906.00256.10025.03671.213-.05855.29644a.42606.42606,0,0,0,.06441.263l1.05869.07357c.04528-.52012.09453-1.04011.13488-1.56063.06778-.87477.1105-1.752.19923-2.62458q.18231-1.792.30681-3.588c.03854-.56836.0477-.57968.605-.46986a1.87785,1.87785,0,0,0,.27475.0163V17.24276A8.87914,8.87914,0,0,1,15.7737,18.30672Z" style="fill:#fff5d8"/><path d="M14.3526,10.66825a3.29516,3.29516,0,0,1-1.46516-2.74612,6.0502,6.0502,0,0,1,.05828-1.60078c-.06151-.09675-.16008-.061-.24645-.069a2.95687,2.95687,0,0,0-.2511,1.22376,4.75562,4.75562,0,0,0,1.35575,3.57723,2.85427,2.85427,0,0,1,.91707,2.38392.34877.34877,0,0,1-.23728.34953,3.03567,3.03567,0,0,0-1.08309.79473A4.41552,4.41552,0,0,0,12.33,17.18321c.31645.07343.43556.32338.571.58614a1.18429,1.18429,0,0,0,1.82911.48077A7.8734,7.8734,0,0,0,16.866,16.41893l.04912-.06818V11.42956A5.77637,5.77637,0,0,1,14.3526,10.66825Zm-1.29147,6.69188c-.17672-.019-.20758-.16049-.20434-.29752a.19382.19382,0,0,1,.2034-.20064.29023.29023,0,0,1,.22381.29321A.19252.19252,0,0,1,13.06113,17.36013Zm.63115.4169a.09049.09049,0,0,1-.09284-.09607c-.00054-.05309.04339-.06522.08415-.0636a.08151.08151,0,0,1,.07714.07815C13.75406,17.73647,13.74429,17.77959,13.69228,17.777Zm1.25448-.19053c-.09809-.00364-.22415-.04986-.21034-.18029a.24374.24374,0,0,1,.28452-.22247.189.189,0,0,1,.19531.20347A.2475.2475,0,0,1,14.94676,17.5865Z" style="fill:#fca15e"/><path d="M9.3506,1.21031a16.49389,16.49389,0,0,1,1.87254.62752,2.14785,2.14785,0,0,1,1.245,1.20158c.27179.65417.66038,1.25982.99793,1.88664a.76.76,0,0,1-.45881.45084A5.41185,5.41185,0,0,1,10.89359,4.467a1.73255,1.73255,0,0,1-.45968-.46874A8.77079,8.77079,0,0,1,9.3506,1.21031Z" style="fill:#f0c4ca"/><path d="M12.49918,20.51879c.02554-.10762-.05862-.28112.04423-.31136.09512-.028.13468.15671.207.24106a5.15778,5.15778,0,0,0,.4878.572,1.02956,1.02956,0,0,1,.33361.71412c.149,1.27461.31557,2.54766.43469,3.82511.094,1.00849.21608,2.01431.27675,3.02708.03078.51385.03379,1.02608.04665,1.53906.00251.10022.03672.213-.05856.29648l-.0059-.06843c.00115-.14652.00319-.293.00326-.43953.00034-.74714.00016-.74714-.75513-.74661-.08484-.59938-.17469-1.19809-.25337-1.79827q-.18727-1.42847-.36179-2.85859c-.07122-.58049-.13978-1.16148-.19717-1.74346C12.62742,22.01851,12.566,21.26839,12.49918,20.51879Z" style="fill:#ffeaa7"/><path d="M16.91513,17.20342v.03934l.00458-.00458A.14306.14306,0,0,1,16.91513,17.20342Z" style="fill:#f4d736"/><path d="M13.00725,5.37689a.76.76,0,0,0,.45881-.45084q.33838-.21425.67658-.42854A1.41578,1.41578,0,0,1,14.5855,4.289a3.48766,3.48766,0,0,0-.5728,1.52525,2.46653,2.46653,0,0,1-.874.36973c-.09685.016-.134.0849-.193.13746-.06155-.09669-.16013-.06109-.24648-.069A2.01721,2.01721,0,0,1,12.98,5.62595C13.02642,5.54187,13.09613,5.47124,13.00725,5.37689Z" style="fill:#fca15e"/><path d="M13.51359,29.16774c.75529-.00053.75547-.00053.75513.74661-.00007.14651-.00211.293-.00326.43953-.61819-.10324-.61932-.10308-.7035-.71941C13.5408,29.47958,13.52944,29.32335,13.51359,29.16774Z" style="fill:#413b3b"/><polygon points="16.915 17.203 16.915 17.204 16.915 17.203 16.915 17.203" style="fill:#e5dac2"/><path d="M16.86594,16.41893a7.87206,7.87206,0,0,1-2.13578,1.83119,1.18429,1.18429,0,0,1-1.82911-.48077c-.13549-.26276-.2546-.51271-.571-.58614a.5072.5072,0,0,0-.01314.48535,4.41075,4.41075,0,0,0,.73807.97583,1.27821,1.27821,0,0,0,1.07419.3401,3.8987,3.8987,0,0,0,1.64458-.67777,8.87914,8.87914,0,0,0,1.14143-1.064v-.03934l-.00014-.00095a1.59859,1.59859,0,0,1,.00014-.19929v-.65243Z" style="fill:#f0c4ca"/><path d="M16.915,17.20261h.00014v-.19943A1.60083,1.60083,0,0,0,16.915,17.20261Z" style="fill:#ddc436"/><path d="M15.66536,2.43259c-.041.08327-.02722.22907-.18763.19821a2.54673,2.54673,0,0,0-1.89635.46124c-.29913.298.06616.32352.18454.45032a.1279.1279,0,0,1,.12228.0547,4.30439,4.30439,0,0,0,1.03114.24955c.03948.00458.07809.01617.11716.02453a.676.676,0,0,1-.07236.09c-.12491.11076-.25224.21882-.3787.32783a3.48809,3.48809,0,0,0-.57274,1.52519c-.00835.154.06165.20535.21034.16911.26309-.06414.52746-.12316.79123-.18447A3.57054,3.57054,0,0,0,16.91513,4.004V1.33738A2.05435,2.05435,0,0,0,15.66536,2.43259Z" style="fill:#f0c4ca"/><path d="M13.88821,3.59716a.27168.27168,0,0,1-.06139.00717l-.06092-.062A.12792.12792,0,0,1,13.88821,3.59716Z" style="fill:#f1d0bf"/><path d="M16.92213,9.85856c.00027-.01846-.006-.03315-.007-.0508v1.59661C16.91661,10.8891,16.91425,10.3737,16.92213,9.85856Z" style="fill:#fcf1d5"/><polygon points="16.915 11.419 16.915 11.43 16.921 11.43 16.915 11.419" style="fill:#fcf1d5"/><path d="M13.06017,16.86209a.29.29,0,0,1,.22382.29306.19247.19247,0,0,1-.22284.205c-.17673-.019-.20759-.16041-.20435-.29752A.19366.19366,0,0,1,13.06017,16.86209Z" style="fill:#f0c4ca"/><path d="M15.21624,17.38717a.24745.24745,0,0,1-.26945.19934c-.09813-.00358-.22421-.04986-.21039-.18029a.24361.24361,0,0,1,.28457-.22236A.18884.18884,0,0,1,15.21624,17.38717Z" style="fill:#f0c4ca"/><path d="M13.7608,17.69554c-.00676.04089-.01653.084-.06852.08151a.09047.09047,0,0,1-.09282-.09612c-.00053-.05308.04338-.06507.08409-.06357A.08174.08174,0,0,1,13.7608,17.69554Z" style="fill:#f0c4ca"/><path d="M15.01434,5.79894c.12477.0764.24752.1559.37439.22826a4.16389,4.16389,0,0,0,1.5264.41435V4.004A3.57136,3.57136,0,0,1,15.01434,5.79894Z" style="fill:#fca15e"/><path d="M16.85759,8.78774l.05754-.00081V6.44155a4.16389,4.16389,0,0,1-1.5264-.41435c-.12687-.07236-.24962-.15186-.37439-.22826-.26384.06118-.52821.1202-.7913.18434-.14869.03624-.21869-.0151-.21034-.16911a2.46684,2.46684,0,0,1-.874.36974c-.09688.0159-.13393.08489-.193.13744a6.0502,6.0502,0,0,0-.05828,1.60078,3.29516,3.29516,0,0,0,1.46516,2.74612,5.77637,5.77637,0,0,0,2.56253.76131v-.01024h-.00007l.00007-.015v-1.93l-.13428.00148a.69639.69639,0,0,1-.13555-.06723c-.15651-.125-.341-.28068-.27657-.48158C16.43678,8.71524,16.677,8.7837,16.85759,8.78774ZM14.91287,8.1229a.56105.56105,0,0,1-.54471.4002.57565.57565,0,0,1-.57287-.41017,1.31011,1.31011,0,0,1,.09392-1.12162c.02473-.0473.11474-.09028.0605-.14687-.04662-.04865-.11581.011-.17382.03018a1.452,1.452,0,0,0-.38517.26464l-.11211.12774a.17.17,0,0,1-.02412.05524c-.01967.04851-.02877.12316-.10221.08947-.02661-.01212.00256-.06872.04346-.0865l.01206-.06091a.2784.2784,0,0,1,.10941-.19942,1.061,1.061,0,0,1,1.39327-.301.51367.51367,0,0,1,.24982.31A1.62764,1.62764,0,0,1,14.91287,8.1229Z" style="fill:#fff5d8"/><path d="M14.96029,7.07392a.5148.5148,0,0,0-.24976-.31018,1.06127,1.06127,0,0,0-1.39331.30127.27814.27814,0,0,0-.10943.19922l-.012.061c-.04089.01783-.07013.07447-.04352.08655.07349.03357.08258-.04114.10224-.08948a.172.172,0,0,0,.02411-.05529l.11212-.12781a1.44867,1.44867,0,0,1,.38519-.26465c.058-.01916.1272-.07886.17383-.03.0542.05664-.03577.09949-.06049.14673a1.31017,1.31017,0,0,0-.094,1.12158.57557.57557,0,0,0,.57288.41016.561.561,0,0,0,.54473-.40015A1.62759,1.62759,0,0,0,14.96029,7.07392Zm-.80267.39539c-.16-.00525-.19379-.10205-.19782-.21167-.00458-.12439.03772-.23255.17889-.249.12922-.01513.19275.069.19745.187A.25508.25508,0,0,1,14.15762,7.46931Z" style="fill:#413b3b"/><path d="M14.15761,7.46934c-.16-.00524-.1938-.1021-.19783-.21174-.00457-.12437.03775-.2325.17893-.249.12919-.01506.19272.069.19744.18694A.25526.25526,0,0,1,14.15761,7.46934Z" style="fill:#efefef"/><path d="M16.36873,8.92707c-.06441.2009.12006.35653.27657.48158a.69639.69639,0,0,0,.13555.06723l.13428-.00148V8.78693C16.87468,8.78693,16.40808,8.69525,16.36873,8.92707Z" style="fill:#413b3b"/><path d="M24.751-.00259a12.86516,12.86516,0,0,1-2.08249.93732,3.79771,3.79771,0,0,0-1.60413.88459,4.3505,4.3505,0,0,0-.80151,1.26631c.29913.29792-.0662.3234-.18452.45014l-.06092.06207a3.76738,3.76738,0,0,1-.31583.8932l.67649.42848c.33764-.62682.72623-1.23246.998-1.88663a2.14789,2.14789,0,0,1,1.245-1.20159,16.49389,16.49389,0,0,1,1.87254-.62752c.17594-.33954.16648-.73409.32048-1.08014C24.78816.084,24.87551-.01222,24.751-.00259Z" style="fill:#f79654"/><path d="M18.44981,30.75236l.116,1.24438h.18934c.59916-.0077.66674-.42986.69636-.88681.00935-.14436.03749-.2875.057-.43119Z" style="fill:#3a3333"/><path d="M18.07059,18.30019a3.89848,3.89848,0,0,0,1.64457.67777,1.27818,1.27818,0,0,0,1.07419-.34009,4.41067,4.41067,0,0,0,.73807-.97583A10.43352,10.43352,0,0,1,21.45,19.533a3.01366,3.01366,0,0,1-.1049.9792c-.02553-.10753.05862-.28108-.04426-.31126-.09513-.028-.13468.15671-.207.24106a5.17345,5.17345,0,0,1-.48778.572,1.02944,1.02944,0,0,0-.33363.71415c-.149,1.27456-.31558,2.54751-.43469,3.825-.094,1.00857-.21607,2.01431-.27677,3.02706-.03079.51392-.03375,1.02609-.04662,1.53907-.00256.10025-.03672.213.05855.29644a.42614.42614,0,0,1-.06441.263l-1.0587.07357c-.04527-.52011-.09452-1.0401-.13488-1.56062-.06778-.87477-.11049-1.752-.19922-2.62458q-.18231-1.792-.30682-3.588c-.03854-.56835-.0477-.57967-.605-.46986a1.87641,1.87641,0,0,1-.27474.01631V17.23624A8.8777,8.8777,0,0,0,18.07059,18.30019Z" style="fill:#fef1c6"/><path d="M16.92916,11.423v4.92118l.04911.06819a7.87344,7.87344,0,0,0,2.13586,1.83119,1.18428,1.18428,0,0,0,1.8291-.48077c.13549-.26276.2546-.51271.571-.58615A4.41546,4.41546,0,0,0,20.44366,14.575a3.03564,3.03564,0,0,0-1.08308-.79473.34879.34879,0,0,1-.23729-.34953,2.85431,2.85431,0,0,1,.91708-2.38392A4.75561,4.75561,0,0,0,21.39611,7.4696a2.95668,2.95668,0,0,0-.2511-1.22376c-.08637.008-.18493-.02776-.24645.069a6.05018,6.05018,0,0,1,.05828,1.60078,3.29514,3.29514,0,0,1-1.46516,2.74612A5.77637,5.77637,0,0,1,16.92916,11.423Zm3.63112,5.72562a.29025.29025,0,0,1,.22382-.29321.19383.19383,0,0,1,.2034.20064c.00323.137-.02763.27851-.20435.29751A.19252.19252,0,0,1,20.56028,17.14866Zm-.47673.54033a.08154.08154,0,0,1,.07715-.07816c.04076-.00161.08468.01051.08415.0636a.09051.09051,0,0,1-.09284.09608C20.1,17.77307,20.09022,17.73,20.08355,17.689Zm-1.45552-.3083a.189.189,0,0,1,.19531-.20347.24374.24374,0,0,1,.28452.22247c.01381.13043-.11224.17665-.21034.18029A.24752.24752,0,0,1,18.628,17.38069Z" style="fill:#f79654"/><path d="M24.49368,1.20378a16.49389,16.49389,0,0,0-1.87254.62752,2.14789,2.14789,0,0,0-1.245,1.20159c-.27179.65417-.66038,1.25981-.99793,1.88664a.76.76,0,0,0,.45881.45084,5.4121,5.4121,0,0,0,2.11367-.90985,1.73284,1.73284,0,0,0,.45968-.46874A8.771,8.771,0,0,0,24.49368,1.20378Z" style="fill:#ecb7be"/><path d="M21.34511,20.51227c-.02555-.10762.05862-.28112-.04423-.31136-.09513-.028-.13469.1567-.207.24106a5.15663,5.15663,0,0,1-.48779.572,1.02953,1.02953,0,0,0-.33362.71412c-.149,1.27461-.31557,2.54766-.43468,3.82511-.094,1.00849-.21609,2.01431-.27676,3.02708-.03078.51385-.03378,1.02608-.04664,1.53906-.00252.10022-.03673.213.05856.29648l.00589-.06843c-.00114-.14652-.00319-.293-.00325-.43953-.00035-.74714-.00017-.74714.75513-.74662.08484-.59937.17469-1.19808.25337-1.79826q.18726-1.42846.36179-2.85859c.07122-.58049.13978-1.16148.19716-1.74346C21.21686,22.012,21.27832,21.26187,21.34511,20.51227Z" style="fill:#ffe28a"/><path d="M16.92916,17.19689v.03935l-.00458-.00458A.14357.14357,0,0,0,16.92916,17.19689Z" style="fill:#f4d736"/><path d="M20.837,5.37037a.76.76,0,0,1-.45881-.45084q-.33839-.21426-.67658-.42854a1.41568,1.41568,0,0,0-.44286-.20855,3.48749,3.48749,0,0,1,.5728,1.52525,2.46689,2.46689,0,0,0,.874.36973c.09686.016.134.0849.193.13746.06154-.09669.16012-.06109.24648-.069a2.01768,2.01768,0,0,0-.28073-.62644C20.81786,5.53535,20.74816,5.46472,20.837,5.37037Z" style="fill:#f79654"/><path d="M20.3307,29.16121c-.7553-.00052-.75548-.00052-.75513.74662.00006.14651.00211.293.00325.43953.6182-.10324.61933-.10309.70351-.71941C20.30348,29.47306,20.31484,29.31683,20.3307,29.16121Z" style="fill:#3a3333"/><polygon points="16.929 17.196 16.929 17.197 16.929 17.196 16.929 17.196" style="fill:#e5dac2"/><path d="M16.97834,16.41241a7.8721,7.8721,0,0,0,2.13579,1.83119,1.18428,1.18428,0,0,0,1.8291-.48077c.13549-.26276.2546-.51271.571-.58615a.50722.50722,0,0,1,.01314.48536,4.41067,4.41067,0,0,1-.73807.97583,1.27818,1.27818,0,0,1-1.07419.34009,3.89848,3.89848,0,0,1-1.64457-.67777,8.8777,8.8777,0,0,1-1.14143-1.064v-.03935l.00013-.00094a1.59858,1.59858,0,0,0-.00013-.19929v-.65244Z" style="fill:#ecb7be"/><path d="M16.92929,17.19609h-.00013v-.19943A1.60083,1.60083,0,0,1,16.92929,17.19609Z" style="fill:#ddc436"/><path d="M18.17892,2.42607c.041.08327.02722.22907.18764.19821a2.54674,2.54674,0,0,1,1.89634.46123c.29914.29806-.06616.32353-.18453.45032a.12791.12791,0,0,0-.12229.05471,4.30439,4.30439,0,0,1-1.03114.24955c-.03948.00458-.07808.01617-.11716.02452a.67552.67552,0,0,0,.07236.09c.12491.11076.25224.21883.3787.32784a3.48809,3.48809,0,0,1,.57274,1.52519c.00835.154-.06165.20535-.21034.1691-.26309-.06414-.52746-.12315-.79123-.18446a3.57053,3.57053,0,0,1-1.90085-1.79482V1.33086A2.05433,2.05433,0,0,1,18.17892,2.42607Z" style="fill:#ecb7be"/><path d="M19.95608,3.59064a.27153.27153,0,0,0,.06138.00717l.06093-.062A.12791.12791,0,0,0,19.95608,3.59064Z" style="fill:#f1d0bf"/><path d="M16.92215,9.852c-.00027-.01846.006-.03315.007-.0508v1.5966C16.92767,10.88258,16.93,10.36717,16.92215,9.852Z" style="fill:#fcf1d5"/><polygon points="16.929 11.413 16.929 11.423 16.924 11.424 16.929 11.413" style="fill:#fcf1d5"/><path d="M20.78411,16.85557a.29.29,0,0,0-.22381.29306.19247.19247,0,0,0,.22283.205c.17673-.019.2076-.16041.20436-.29753A.19366.19366,0,0,0,20.78411,16.85557Z" style="fill:#ecb7be"/><path d="M18.628,17.38065a.24746.24746,0,0,0,.26946.19934c.09812-.00358.2242-.04986.21038-.1803a.24362.24362,0,0,0-.28457-.22236A.18886.18886,0,0,0,18.628,17.38065Z" style="fill:#ecb7be"/><path d="M20.08348,17.689c.00677.04088.01653.084.06852.08151a.09049.09049,0,0,0,.09283-.09612c.00052-.05308-.04339-.06508-.0841-.06357A.08174.08174,0,0,0,20.08348,17.689Z" style="fill:#ecb7be"/><path d="M18.83,5.79242c-.12478.0764-.24753.1559-.37439.22826a4.164,4.164,0,0,1-1.5264.41434V3.99747A3.57134,3.57134,0,0,0,18.83,5.79242Z" style="fill:#f79654"/><path d="M17.47555,8.92054c.06441.20091-.12006.35654-.27656.48158a.69567.69567,0,0,1-.13556.06724l-.13427-.00148v1.93c0,.005.00006.00984.00006.015h-.00006V11.423a5.77637,5.77637,0,0,0,2.56252-.76131,3.29514,3.29514,0,0,0,1.46516-2.74612,6.05018,6.05018,0,0,0-.05828-1.60078c-.05908-.05255-.09614-.12154-.193-.13744a2.46728,2.46728,0,0,1-.874-.36974c.00835.154-.06165.20535-.21034.1691-.26309-.06414-.52746-.12315-.79129-.18433-.12478.0764-.24753.1559-.37439.22826a4.164,4.164,0,0,1-1.5264.41434V8.78041l.05753.00081C17.16732,8.77717,17.4075,8.70872,17.47555,8.92054ZM18.884,7.06738a.51368.51368,0,0,1,.24982-.31,1.061,1.061,0,0,1,1.39327.301.2784.2784,0,0,1,.10941.19942l.01206.06091c.0409.01778.07007.07438.04346.0865-.07344.03369-.08253-.041-.10221-.08947a.17049.17049,0,0,1-.02412-.05524l-.1121-.12774a1.45213,1.45213,0,0,0-.38517-.26464c-.058-.01914-.1272-.07883-.17383-.03019-.05423.0566.03578.09958.0605.14688A1.31011,1.31011,0,0,1,20.049,8.10641a.57566.57566,0,0,1-.57287.41017.56105.56105,0,0,1-.54471-.4002A1.62774,1.62774,0,0,1,18.884,7.06738Z" style="fill:#fef1c6"/><path d="M20.64852,7.31867l-.012-.06091a.27862.27862,0,0,0-.10944-.19934,1.06111,1.06111,0,0,0-1.39331-.30115.5145.5145,0,0,0-.24976.31018,1.62777,1.62777,0,0,0,.04743,1.049.561.561,0,0,0,.54474.40015.57571.57571,0,0,0,.57287-.41016,1.30987,1.30987,0,0,0-.094-1.12146c-.02472-.04736-.11469-.09033-.06049-.147.04663-.04871.11585.011.17383.03a1.45156,1.45156,0,0,1,.38519.26477l.11213.12781a.17119.17119,0,0,0,.02411.05517c.01965.04834.02874.12305.10223.0896C20.71865,7.39313,20.68941,7.33649,20.64852,7.31867Zm-.96185.14405a.25511.25511,0,0,1-.17853-.27369c.0047-.11792.06824-.202.19745-.187.14117.0166.18347.12476.17889.249C19.88045,7.36066,19.84664,7.45759,19.68667,7.46272Z" style="fill:#3a3333"/><path d="M19.68667,7.46281c.16-.00524.19381-.10209.19784-.21173.00457-.12437-.03776-.23251-.17894-.249-.12919-.01507-.19271.069-.19743.18694A.25524.25524,0,0,0,19.68667,7.46281Z" style="fill:#efefef"/><path d="M17.47555,8.92054c.06441.20091-.12006.35654-.27656.48158a.69567.69567,0,0,1-.13556.06724l-.13427-.00148V8.78041C16.9696,8.78041,17.4362,8.68873,17.47555,8.92054Z" style="fill:#3a3333"/></svg>