<svg xmlns="http://www.w3.org/2000/svg" viewBox="0 0 32 32"><title>586-sawsbuck-summer-shiny</title><path d="M29.52264,2.79908c.07922-1.19074-.73225-.80258-1.10067-1.15622-.35534-.34109-.18144-.79326-.959-.903a3.3362,3.3362,0,0,0-2.95018.052c.2969-.37112-.69276-.734-1.75152-.85827-1.22129,0-2.98235.16551-3.238.56962-.46536-.23917-1.33149.16128-1.818.39331-.56936.27156-.96053.64583-.87061,1.13241A.91907.91907,0,0,0,16,2.79908c0,.44548.30939,1.13313.99128,1.003.15857.80115,2.54025,2.42467,4.20576,1.27007.14062.50308,1.02582.59253,1.56425.59253a2.42291,2.42291,0,0,0,2.1632-.7145c.15738.71453.92407.40388,1.34492.29518-.02.22329-.03722.45035-.04981.68224-.014.25848.17357.50278.58593.40636A1.38882,1.38882,0,0,0,26.22,7.60948c.03726.71965-.51133,1.842.5667,1.65218-.81412.69281.423,2.1773.50274,1.58081.08516.71195.23159,1.23407.57057,1.23407.34432,0,.496-.76129.55373-1.18189.21443.28865,1.02265-.07423.23092-2.07.10933-.53091.79208-.27538.83708-.9163.22681-.60073-.36272-1.18192-.36272-1.58941.48232.11148.49881-.38905.357-.84951a13.30305,13.30305,0,0,0-.25733-1.81814A1.432,1.432,0,0,0,29.52264,2.79908Z" style="fill:#962931"/><path d="M19.00134,19.068c-.21307.107-.41375.24255-.63366.33117-.16883.06787-.18518.14063-.12067.29639.17511.42285.33508.852.501,1.27856.02783.02466.0556.05665.02356.08863s-.064.00439-.08869-.0232q-.7434-.28582-1.48688-.57153l-.004,1.14q.0583.63171.11657,1.26355a8.90965,8.90965,0,0,1,.32,2.89843c-.01617.33155-.01923.66358-.02826.99561a8.67487,8.67487,0,0,0,1.01929-.69019,19.57422,19.57422,0,0,1,.56732-2.47925c.01422-.04931.00012-.13378.07165-.13635.077-.003.05787.08362.07319.13147a5.37266,5.37266,0,0,1,.27642,2.02881,3.71868,3.71868,0,0,0,.8584-.51,6.52811,6.52811,0,0,0,.08258-1.16919,21.97765,21.97765,0,0,0-.371-5.75195,4.56612,4.56612,0,0,0-1.21063-2.39282,3.75165,3.75165,0,0,1-1.08429-2.67859c-.04541-.70545-.06549-1.41077-.064-2.11731a.97339.97339,0,0,0-.1466.13012A1.94991,1.94991,0,0,1,16,11.84668v4.26416a1.72507,1.72507,0,0,1,1.768,1.46534.77091.77091,0,0,0,.37408.5924c.30218.18177.57635.40991.879.59094C19.25317,18.89844,19.19275,18.97193,19.00134,19.068Zm.601-1.23157c.00091-.0874.00262-.18433.12048-.18359.16724.00085.18176.14416.19952.26a.1399.1399,0,0,1-.14654.16845C19.63391,18.073,19.60406,17.9585,19.60236,17.83643Zm-.75-.634a1.05475,1.05475,0,0,1-.43116-.76661c.02051-.0769.02405-.18713.134-.24218a.31956.31956,0,0,1,.35144.00659.92031.92031,0,0,1,.391.69678C19.30817,17.18775,19.05817,17.35547,18.85236,17.2024Z" style="fill:#776151"/><path d="M16.595,21.02442c-.084.13476-.06189.22119.07813.29394.17566.09143.34613.19275.5188.28968q.0583.63171.11657,1.26355A8.05085,8.05085,0,0,1,16,23.09131v-1.4751Z" style="fill:#f0c877"/><path d="M16,16.11084a1.72507,1.72507,0,0,1,1.768,1.46534.77091.77091,0,0,0,.37408.5924c.30218.18177.57635.40991.879.59094.23211.13892.17169.21241-.01972.30848-.21307.107-.41375.24255-.63366.33117-.16883.06787-.18518.14063-.12067.29639.17511.42285.33508.852.501,1.27856l-.06513.06543q-.7434-.28582-1.48688-.57153l-.0589-.054c-.057.01416-.05224.06079-.05511.10376a2.05676,2.05676,0,0,0-.48694.50659h0L16,21.61621Z" style="fill:#f7d684"/><path d="M17.0683,6.133c-.03.22693.17985.23066.2996.28656.11387.053.11856-.10284.16529-.1724a9.66763,9.66763,0,0,1,.97326-1.487.65585.65585,0,0,1,.18027.33638c-.2586.38691-1.00108,1.38916-.68319,1.58337.1918.11705.314-.01477.4533-.0998A2.0224,2.0224,0,0,0,19.84,5.57372c.14155-.26916.30719-.52563.45688-.79065.02954-.05231.09973-.11208.04638-.17226-.01932-.02167-.105.00842-.15743.02443q-.75.2288-1.49909.4613-.09006-.16833-.18027-.33638c.74765-.19324,1.49489-.3887,2.244-.5767.07806-.0196.16992-.08226.2399-.02153.01905.01656-.0421.13582-.077.20235-.28379.54054-.58567,1.07224-.851,1.6216a1.71324,1.71324,0,0,1-1.06395.9284c-.14411.04693-.36075.08034-.40306.18-.05976.14079.17123.23631.22817.38262.01021.0265.0236.05149.03554.07716l.03858.06005.0147.0599a1.33328,1.33328,0,0,0-1.09369.11912c-.21775.12768-.495.18234-.58015.47276l-.08855.13058-.065-.03948a2.32655,2.32655,0,0,0-.34011,1.09446l-.18407,1.02764A1.29438,1.29438,0,0,0,16,10.301V5.85061A6.21682,6.21682,0,0,1,17.0683,6.133Z" style="fill:#776151"/><path d="M18.61957,26.07549a8.70017,8.70017,0,0,1-1.01928.69013,13.4095,13.4095,0,0,1-.6227,3.93139c-.0248.07458-.10687.17269-.01085.26292l.96049-.04654c.05613-.15924.01411-.4264.14033-.46393.143-.04251.16637.23022.27721.33825.02528.02464.03939.07866.08175.05615.02161-.01148.02889-.06236.031-.09615.01823-.29381.042-.58759.04875-.88174.02525-1.10321.04316-2.2066.06795-3.30982C18.57782,26.39567,18.60389,26.23569,18.61957,26.07549Z" style="fill:#f0c877"/><path d="M16.48622,10.84626c.11284-.10491.19193-.21588.07453-.36717l.18407-1.02764a1.68951,1.68951,0,0,1,.493-.356c.19235.12906.33431.03548.46558-.10545.18821-.09966.24094-.30146.34832-.46186.03058.01905.05929.05025.092.05521.29277.0439.36123.13693.29574.4279-.08883.39422-.1829.78734-.27462,1.181-.06177.05522-.0724.11126-.00255.16854q-.17154.31989-.34308.6395a.97014.97014,0,0,0-.14659.13017A1.95013,1.95013,0,0,1,16,11.84671v-.73239A1.69964,1.69964,0,0,0,16.48622,10.84626Z" style="fill:#f7d684"/><path d="M20.46656,25.11015a3.71688,3.71688,0,0,1-.85839.51,7.88219,7.88219,0,0,1-.32216,1.72691,3.98963,3.98963,0,0,0-.12773,1.54859c.06364-.14773.14-.04726.21444-.01171.20507.098.42191.20491.6391.07436.16585-.09969.17518.0067.21158.108.02155-.36628.04159-.73265.06617-1.09872.004-.05948-.03744-.15071.04269-.17112.06722-.01712.10443.06832.143.118.11559.14884.22579.30187.33807.45334l.06005-.04917c-.12345-.62127-.32757-1.22322-.43035-1.85019C20.36811,26.01143,20.51686,25.56355,20.46656,25.11015Z" style="fill:#f0c877"/><path d="M20.2234,29.06626c-.0364-.10126-.04573-.20765-.21158-.108-.21719.13055-.434.02361-.6391-.07436-.07442-.03555-.1508-.136-.21444.01171-.03441.26263-.05984.527-.10691.78748-.02495.13807.00312.202.1426.24826a1.22916,1.22916,0,0,0,.93842.01389.20863.20863,0,0,0,.14921-.257C20.25273,29.48228,20.24189,29.27373,20.2234,29.06626Z" style="fill:#3a3333"/><path d="M18.05171,8.5281c.03057.019.0593.05029.092.05521.29274.044.36121.137.2957.428-.08878.39427-.18283.78736-.27458,1.181l.05241.05381a11.24113,11.24113,0,0,0,.74617-2.24373.36411.36411,0,0,0-.05105-.32839,1.33307,1.33307,0,0,0-1.0936.11914c.28442-.0677.348.08105.31079.32136C18.10811,8.253,18.078,8.39026,18.05171,8.5281Z" style="fill:#f7c845"/><path d="M17.92723,30.91339l-.96049.04654a2.4061,2.4061,0,0,1-.068.44987c-.11533.33338.056.43227.33883.47894a1.47,1.47,0,0,0,.36575.04281c.36085-.03074.41251-.09038.382-.45065C17.96938,31.29145,17.94683,31.10254,17.92723,30.91339Z" style="fill:#3a3333"/><path d="M20.75143,3.47008c.12829.14164-.049.3174.05158.46213.163-.02052.19415-.15728.24449-.27714C21.05289,3.42682,20.95917,3.3572,20.75143,3.47008Z" style="fill:#f7d684"/><path d="M18.21724,10.24608l-.05241-.05381c-.06178.05528-.07243.11132-.00254.16853Z" style="fill:#e0ca59"/><path d="M20.87338,28.31858l-.06005.04917c.01729.04066.03331.10726.0883.06905C20.94558,28.40625,20.912,28.35219,20.87338,28.31858Z" style="fill:#f5efd9"/><path d="M18.85908,7.55407l.03856.06Z" style="fill:#c48c49"/><path d="M20.7514,3.47l-1.30835.23365-.40741.11572-.64538.18359a1.23,1.23,0,0,0-.76526.86035l.00018.00013L17.625,4.86328c-.0271.06031-.52942,1.20923-.55658,1.26954-.03015.22705.17975.231.2995.28674.11389.0531.11853-.10291.16528-.17249.06372-.364.491-.8684.51941-1.07483a.76405.76405,0,0,1,.37683-.47387.99187.99187,0,0,1,.55872-.31214q.90756-.2265,1.81488-.4541C20.70239,3.78748,20.8797,3.6117,20.7514,3.47Z" style="fill:#4f4032"/><path d="M16.56075,10.47909c.1174.15129.03831.26226-.07453.36717A1.69964,1.69964,0,0,1,16,11.11432V10.301A1.29438,1.29438,0,0,1,16.56075,10.47909Z" style="fill:#51321b"/><path d="M18.42124,16.4359a1.05416,1.05416,0,0,0,.43115.76649c.20575.15306.45572-.01465.44534-.30526a.92.92,0,0,0-.391-.69683.31969.31969,0,0,0-.35144-.00672C18.44524,16.24868,18.44174,16.35887,18.42124,16.4359Z" style="fill:#962931"/><path d="M17.082,20.51783l.05518-.10389.05883.05408q-.002.57-.004,1.13989c-.17273-.09692-.3432-.19812-.51886-.28943-.14008-.07287-.16217-.15917-.07807-.29406A2.05652,2.05652,0,0,1,17.082,20.51783Z" style="fill:#f7c845"/><path d="M19.60224,17.83661c.00181.122.03168.23651.17357.2447a.14.14,0,0,0,.1466-.16825c-.01781-.116-.03233-.25943-.19956-.26025C19.605,17.65223,19.60328,17.749,19.60224,17.83661Z" style="fill:#962931"/><path d="M18.748,20.97422l-.06517.06531c.02473.02777.05676.05535.08871.02333S18.7758,20.99889,18.748,20.97422Z" style="fill:#d6b071"/><path d="M17.082,20.5178l.05516-.10382C17.08007,20.42807,17.08488,20.475,17.082,20.5178Z" style="fill:#d7a059"/><path d="M18.05171,8.5281c.02624-.13784.0564-.27506.07784-.41364.03719-.24031-.02637-.38906-.31079-.32136-.21788.12775-.49517.18241-.5801.47259a.24663.24663,0,0,1,.3555-.00306l.04057.04084.03117.05257c.03746.00555.04354.03009.0375.062a.67438.67438,0,0,1,0,.572C17.89155,8.8904,17.94434,8.68866,18.05171,8.5281Z" style="fill:#fcfcfa"/><path d="M17.6659,8.356l-.03117-.05257-.04057-.04084a.24663.24663,0,0,0-.3555.00306l-.08881.13093-.01662.0166-.04431.11762a.70349.70349,0,0,0,.14885.56457c.19241.12915.33437.03553.46561-.1054a.67433.67433,0,0,0,0-.572l-.06089-.00014c.011.09109.00169.1708-.11742.167a.094.094,0,0,1-.09086-.08778c-.00958-.11053.05806-.14287.156-.13482Z" style="fill:#251e1b"/><path d="M17.23777,9.09541a.70356.70356,0,0,1-.14888-.56452l.00058-.11706a.18438.18438,0,0,1-.00452-.05691,2.32725,2.32725,0,0,0-.34016,1.09453A1.69034,1.69034,0,0,1,17.23777,9.09541Z" style="fill:#f7c845"/><path d="M17.085,8.35692a.18538.18538,0,0,0,.00449.05692l.04379-.00062.01662-.0166Z" style="fill:#e4dcad"/><path d="M20.34326,4.61084c-.01935-.02173-.105.0083-.15741.02442q-.75009.22889-1.49914.46118a9.57441,9.57441,0,0,0-.74982.96948c-.25861.38684-.25122.4198.06665.614.19177.11707.314-.01489.45331-.09985h0A2.02243,2.02243,0,0,0,19.84,5.57373c.14154-.26916.30719-.52563.45691-.79065C20.32642,4.73072,20.39661,4.6709,20.34326,4.61084Z" style="fill:#4f4032"/><path d="M17.6659,8.356l-.07563.00619.05224.05563.06089.00014C17.70944,8.38613,17.70336,8.36159,17.6659,8.356Z" style="fill:#4c4744"/><path d="M17.59416,8.26263l.04057.04084Z" style="fill:#4c4744"/><path d="M17.64251,8.41786l-.05224-.05563c-.098-.00805-.16562.02429-.156.13482a.094.094,0,0,0,.09086.08778C17.6442,8.58866,17.65349,8.509,17.64251,8.41786Z" style="fill:#dfdedd"/><path d="M17.13323,8.41322l-.04379.00062-.00055.117Z" style="fill:#b3afa4"/><path d="M2.47736,2.79908C2.39814,1.60834,3.20961,1.9965,3.578,1.64286c.35534-.34109.18144-.79326.959-.903a3.3362,3.3362,0,0,1,2.95018.052C7.19029.42075,8.18.05787,9.23871-.0664c1.22129,0,2.98235.16551,3.238.56962.46536-.23917,1.33149.16128,1.818.39331.56936.27156.96053.64583.87061,1.13241A.91907.91907,0,0,1,16,2.79908c0,.44548-.30939,1.13313-.99128,1.003-.15857.80115-2.54025,2.42467-4.20576,1.27007-.14062.50308-1.02582.59253-1.56425.59253a2.42291,2.42291,0,0,1-2.1632-.7145c-.15738.71453-.92407.40388-1.34492.29518.02.22329.03722.45035.04981.68224.014.25848-.17357.50278-.58593.40636A1.38882,1.38882,0,0,1,5.78,7.60948c-.03726.71965.51133,1.842-.5667,1.65218.81412.69281-.423,2.1773-.50274,1.58081-.08516.71195-.23159,1.23407-.57057,1.23407-.34432,0-.496-.76129-.55373-1.18189-.21443.28865-1.02265-.07423-.23092-2.07-.10933-.53091-.79208-.27538-.83708-.9163C2.29147,7.30758,2.881,6.72639,2.881,6.3189c-.48232.11148-.49881-.38905-.357-.84951a13.30305,13.30305,0,0,1,.25733-1.81814A1.432,1.432,0,0,1,2.47736,2.79908Z" style="fill:#9c2c30"/><path d="M12.97894,18.75952c.30262-.181.57679-.40917.879-.59094a.77091.77091,0,0,0,.37408-.5924A1.72507,1.72507,0,0,1,16,16.11084V11.84668a1.94991,1.94991,0,0,1-1.67261-.71631.97339.97339,0,0,0-.1466-.13012c.00146.70654-.01862,1.41186-.064,2.11731a3.75165,3.75165,0,0,1-1.08429,2.67859A4.56612,4.56612,0,0,0,11.82184,18.189a21.97765,21.97765,0,0,0-.371,5.75195,6.52811,6.52811,0,0,0,.08258,1.16919,3.71868,3.71868,0,0,0,.8584.51,5.37266,5.37266,0,0,1,.27642-2.02881c.01532-.04785-.00378-.13452.07319-.13147.07153.00257.05743.087.07165.13635a19.57422,19.57422,0,0,1,.56732,2.47925,8.67487,8.67487,0,0,0,1.01929.69019c-.009-.332-.01209-.66406-.02826-.99561a8.90965,8.90965,0,0,1,.32-2.89843q.05823-.63172.11657-1.26355l-.004-1.14q-.74341.28564-1.48688.57153c-.02472.02759-.0567.0553-.08869.0232s-.00427-.064.02356-.08863c.1659-.42651.32587-.85571.501-1.27856.06451-.15576.04816-.22852-.12067-.29639-.21991-.08862-.42059-.22412-.63366-.33117C12.80725,18.97193,12.74683,18.89844,12.97894,18.75952Zm-.75476-.67822a.1399.1399,0,0,1-.14654-.16845c.01776-.11585.03228-.25916.19952-.26.11786-.00074.11957.09619.12048.18359C12.39594,17.9585,12.36609,18.073,12.22418,18.0813Zm.47809-1.18432a.92031.92031,0,0,1,.391-.69678.31956.31956,0,0,1,.35144-.00659c.11.05505.11353.16528.134.24218a1.05475,1.05475,0,0,1-.43116.76661C12.94183,17.35547,12.69183,17.18775,12.70227,16.897Z" style="fill:#876f5d"/><path d="M15.405,21.02442c.084.13476.06189.22119-.07813.29394-.17566.09143-.34613.19275-.5188.28968q-.0583.63171-.11657,1.26355A8.05085,8.05085,0,0,0,16,23.09131v-1.4751Z" style="fill:#f7d684"/><path d="M16,16.11084a1.72507,1.72507,0,0,0-1.768,1.46534.77091.77091,0,0,1-.37408.5924c-.30218.18177-.57635.40991-.879.59094-.23211.13892-.17169.21241.01972.30848.21307.107.41375.24255.63366.33117.16883.06787.18518.14063.12067.29639-.17511.42285-.33508.852-.501,1.27856l.06513.06543q.7434-.28582,1.48688-.57153l.0589-.054c.057.01416.05224.06079.05511.10376a2.05676,2.05676,0,0,1,.48694.50659h0l.595.59179Z" style="fill:#fae09f"/><path d="M14.9317,6.133c.03.22693-.17985.23066-.2996.28656-.11387.053-.11856-.10284-.16529-.1724a9.66763,9.66763,0,0,0-.97326-1.487.65585.65585,0,0,0-.18027.33638c.2586.38691,1.00108,1.38916.68319,1.58337-.1918.11705-.314-.01477-.4533-.0998A2.0224,2.0224,0,0,1,12.16,5.57372c-.14155-.26916-.30719-.52563-.45688-.79065-.02954-.05231-.09973-.11208-.04638-.17226.01932-.02167.105.00842.15743.02443q.75.2288,1.49909.4613.09006-.16833.18027-.33638c-.74765-.19324-1.49489-.3887-2.24405-.5767-.07806-.0196-.16992-.08226-.2399-.02153-.01905.01656.0421.13582.077.20235.28379.54054.58567,1.07224.851,1.6216a1.71324,1.71324,0,0,0,1.064.9284c.14411.04693.36075.08034.40306.18.05976.14079-.17123.23631-.22817.38262-.01021.0265-.0236.05149-.03554.07716l-.03858.06005-.0147.0599a1.33328,1.33328,0,0,1,1.09369.11912c.21775.12768.49505.18234.58015.47276l.08855.13058.065-.03948a2.32655,2.32655,0,0,1,.34011,1.09446l.18407,1.02764A1.29438,1.29438,0,0,1,16,10.301V5.85061A6.21682,6.21682,0,0,0,14.9317,6.133Z" style="fill:#876f5d"/><path d="M13.38043,26.07549a8.70017,8.70017,0,0,0,1.01928.69013,13.4095,13.4095,0,0,0,.6227,3.93139c.0248.07458.10687.17269.01085.26292l-.96049-.04654c-.05613-.15924-.01411-.4264-.14033-.46393-.143-.04251-.16637.23022-.27721.33825-.02528.02464-.03939.07866-.08175.05615-.02161-.01148-.02889-.06236-.031-.09615-.01823-.29381-.042-.58759-.04875-.88174-.02525-1.10321-.04316-2.2066-.068-3.30982C13.42218,26.39567,13.39611,26.23569,13.38043,26.07549Z" style="fill:#f7d684"/><path d="M15.51378,10.84626c-.11284-.10491-.19193-.21588-.07453-.36717l-.18407-1.02764a1.68951,1.68951,0,0,0-.493-.356c-.19235.12906-.33431.03548-.46558-.10545-.18821-.09966-.24094-.30146-.34832-.46186-.03058.01905-.05929.05025-.092.05521-.29277.0439-.36123.13693-.29574.4279.08883.39422.1829.78734.27462,1.181.06177.05522.0724.11126.00255.16854q.17154.31989.34308.6395a.97014.97014,0,0,1,.14659.13017A1.95013,1.95013,0,0,0,16,11.84671v-.73239A1.69964,1.69964,0,0,1,15.51378,10.84626Z" style="fill:#fae09f"/><path d="M11.53344,25.11015a3.71688,3.71688,0,0,0,.85839.51,7.88219,7.88219,0,0,0,.32216,1.72691,3.98963,3.98963,0,0,1,.12773,1.54859c-.06364-.14773-.14-.04726-.21444-.01171-.20507.098-.42191.20491-.6391.07436-.16585-.09969-.17518.0067-.21158.108-.02155-.36628-.04159-.73265-.06617-1.09872-.004-.05948.03744-.15071-.04269-.17112-.06722-.01712-.10443.06832-.143.118-.11559.14884-.22579.30187-.33807.45334l-.06-.04917c.12345-.62127.32757-1.22322.43035-1.85019C11.63189,26.01143,11.48314,25.56355,11.53344,25.11015Z" style="fill:#f7d684"/><path d="M11.7766,29.06626c.0364-.10126.04573-.20765.21158-.108.21719.13055.434.02361.6391-.07436.07442-.03555.1508-.136.21444.01171.03441.26263.05984.527.10691.78748.025.13807-.00312.202-.1426.24826a1.22916,1.22916,0,0,1-.93842.01389.20863.20863,0,0,1-.14921-.257C11.74727,29.48228,11.75811,29.27373,11.7766,29.06626Z" style="fill:#413b3b"/><path d="M13.94829,8.5281c-.03057.019-.0593.05029-.092.05521-.29274.044-.36121.137-.2957.428.08878.39427.18283.78736.27458,1.181l-.05241.05381a11.24113,11.24113,0,0,1-.74617-2.24373.36411.36411,0,0,1,.05105-.32839,1.33307,1.33307,0,0,1,1.0936.11914c-.28442-.0677-.348.08105-.31079.32136C13.89189,8.253,13.92205,8.39026,13.94829,8.5281Z" style="fill:#f7c845"/><path d="M14.07277,30.91339l.96049.04654a2.4061,2.4061,0,0,0,.068.44987c.11533.33338-.056.43227-.33883.47894a1.47,1.47,0,0,1-.36575.04281c-.36085-.03074-.41251-.09038-.382-.45065C14.03062,31.29145,14.05317,31.10254,14.07277,30.91339Z" style="fill:#413b3b"/><path d="M11.24857,3.47008c-.12829.14164.049.3174-.05158.46213-.163-.02052-.19415-.15728-.24449-.27714C10.94711,3.42682,11.04083,3.3572,11.24857,3.47008Z" style="fill:#f7d684"/><path d="M13.78276,10.24608l.05241-.05381c.06178.05528.07243.11132.00254.16853Z" style="fill:#e0ca59"/><path d="M11.12662,28.31858l.06.04917c-.01729.04066-.03331.10726-.0883.06905C11.05442,28.40625,11.088,28.35219,11.12662,28.31858Z" style="fill:#f5efd9"/><path d="M13.14092,7.55407l-.03856.06Z" style="fill:#c48c49"/><path d="M11.2486,3.47l1.30835.23365.40741.11572.64538.18359a1.23,1.23,0,0,1,.76526.86035l-.00018.00013.00018-.00013c.0271.06031.52942,1.20923.55658,1.26954.03015.22705-.17975.231-.2995.28674-.11389.0531-.11853-.10291-.16528-.17249-.06372-.364-.491-.8684-.51941-1.07483a.76405.76405,0,0,0-.37683-.47387.99187.99187,0,0,0-.55872-.31214q-.90756-.2265-1.81488-.4541C11.29761,3.78748,11.1203,3.6117,11.2486,3.47Z" style="fill:#604631"/><path d="M15.43925,10.47909c-.1174.15129-.03831.26226.07453.36717A1.69964,1.69964,0,0,0,16,11.11432V10.301A1.29438,1.29438,0,0,0,15.43925,10.47909Z" style="fill:#604631"/><path d="M13.57876,16.4359a1.05416,1.05416,0,0,1-.43115.76649c-.20575.15306-.45572-.01465-.44534-.30526a.92.92,0,0,1,.391-.69683.31969.31969,0,0,1,.35144-.00672C13.55476,16.24868,13.55826,16.35887,13.57876,16.4359Z" style="fill:#9c2c30"/><path d="M14.918,20.51783l-.05518-.10389L14.804,20.468q.002.57.004,1.13989c.17273-.09692.3432-.19812.51886-.28943.14008-.07287.16217-.15917.07807-.29406A2.05652,2.05652,0,0,0,14.918,20.51783Z" style="fill:#f7c845"/><path d="M12.39776,17.83661c-.00181.122-.03168.23651-.17357.2447a.14.14,0,0,1-.1466-.16825c.01781-.116.03233-.25943.19956-.26025C12.395,17.65223,12.39672,17.749,12.39776,17.83661Z" style="fill:#9c2c30"/><path d="M13.252,20.97422l.06517.06531c-.02473.02777-.05676.05535-.08871.02333S13.2242,20.99889,13.252,20.97422Z" style="fill:#d6b071"/><path d="M14.918,20.5178l-.05516-.10382C14.91993,20.42807,14.91512,20.475,14.918,20.5178Z" style="fill:#d7a059"/><path d="M13.94829,8.5281c-.02624-.13784-.0564-.27506-.07784-.41364-.03719-.24031.02637-.38906.31079-.32136.21788.12775.49517.18241.5801.47259a.24663.24663,0,0,0-.3555-.00306l-.04057.04084L14.3341,8.356c-.03746.00555-.04354.03009-.0375.062a.67438.67438,0,0,0,0,.572C14.10845,8.8904,14.05566,8.68866,13.94829,8.5281Z" style="fill:#fcfcfa"/><path d="M14.3341,8.356l.03117-.05257.04057-.04084a.24663.24663,0,0,1,.3555.00306l.08881.13093.01662.0166.04431.11762a.70349.70349,0,0,1-.14885.56457c-.19241.12915-.33437.03553-.46561-.1054a.67433.67433,0,0,1,0-.572l.06089-.00014c-.011.09109-.00169.1708.11742.167a.094.094,0,0,0,.09086-.08779c.00958-.11053-.05806-.14287-.156-.13482Z" style="fill:#251e1b"/><path d="M14.76223,9.09541a.70356.70356,0,0,0,.14888-.56452l-.00058-.11706a.18438.18438,0,0,0,.00452-.05691,2.32725,2.32725,0,0,1,.34016,1.09453A1.69034,1.69034,0,0,0,14.76223,9.09541Z" style="fill:#f7c845"/><path d="M14.91505,8.35692a.18538.18538,0,0,1-.00449.05692l-.04379-.00062-.01662-.0166Z" style="fill:#e4dcad"/><path d="M11.65674,4.61084c.01935-.02173.105.0083.15741.02442q.75009.22889,1.49914.46118a9.57441,9.57441,0,0,1,.74982.96948c.25861.38684.25122.4198-.06665.614-.19177.11707-.314-.01489-.45331-.09985h0A2.02243,2.02243,0,0,1,12.16,5.57373c-.14154-.26916-.30719-.52563-.45691-.79065C11.67358,4.73072,11.60339,4.6709,11.65674,4.61084Z" style="fill:#604631"/><path d="M14.3341,8.356l.07563.00619-.05224.05563L14.2966,8.418C14.29056,8.38613,14.29664,8.36159,14.3341,8.356Z" style="fill:#4c4744"/><path d="M14.40584,8.26263l-.04057.04084Z" style="fill:#4c4744"/><path d="M14.35749,8.41786l.05224-.05563c.098-.00805.16562.02429.156.13482a.094.094,0,0,1-.09086.08779C14.3558,8.58866,14.34651,8.509,14.35749,8.41786Z" style="fill:#dfdedd"/><path d="M14.86677,8.41322l.04379.00062.00055.117Z" style="fill:#b3afa4"/></svg>