<svg xmlns="http://www.w3.org/2000/svg" viewBox="0 0 32 32"><defs><style>.a{fill:#b57135;}.b{fill:#e3e5e5;}.c{fill:#776151;}.d{fill:#edeeee;}.e{fill:#3a3333;}.f{fill:#f7c845;}.g{fill:#f7d684;}.h{fill:#e0ca59;}.i{fill:#c48c49;}.j{fill:#51321b;}.k{fill:#de8490;}.l{fill:#fff;}.m{fill:#fcfcfa;}.n{fill:#251e1b;}.o{fill:#e4dcad;}.p{fill:#4f4032;}.q{fill:#4c4744;}.r{fill:#dfdedd;}.s{fill:#b3afa4;}.t{fill:#876f5d;}.u{fill:#f7f7f7;}.v{fill:#413b3b;}.w{fill:#ffd04d;}.x{fill:#fae09f;}.y{fill:#604631;}</style></defs><title>586-sawsbuck-winter-shiny</title><path class="a" d="M17.19168,20.54428l-.004,1.13977.00006.00012Q17.18964,21.11435,17.19168,20.54428Z"/><path class="b" d="M17.18766,21.68429a2.1264,2.1264,0,0,0,.004-1.14l-.3551.34082a9.57053,9.57053,0,0,1-.84088-3.71338v5.99585a8.05069,8.05069,0,0,0,1.30853-.21973Q17.246,22.31613,17.18766,21.68429Z"/><path class="c" d="M17.064,6.20928c-.03.22692.17985.23065.2996.28655.11387.053.11857-.10283.16529-.1724a9.66863,9.66863,0,0,1,.97326-1.487.65576.65576,0,0,1,.18027.33639c-.2586.3869-1.00107,1.38915-.68319,1.58336.1918.117.314-.01477.4533-.0998A2.02235,2.02235,0,0,0,19.83566,5.65c.14155-.26916.30719-.52562.45688-.79064.02954-.05232.09973-.11208.04638-.17227-.01932-.02167-.105.00842-.15742.02444q-.75.22878-1.4991.4613-.09006-.16833-.18027-.33639c.74765-.19324,1.49489-.38869,2.244-.57669.07806-.0196.16992-.08227.2399-.02154.01905.01657-.0421.13583-.077.20236-.28379.54053-.58567,1.07223-.851,1.6216a1.71321,1.71321,0,0,1-1.06395.9284c-.14411.04693-.36075.08033-.40306.18-.05976.14079.17123.23631.22817.38263.01021.0265.0236.05148.03554.07716l.03858.06.0147.05991a1.33328,1.33328,0,0,0-1.09369.11912c-.21775.12768-.495.18234-.58015.47276l-.08855.13057-.065-.03947A2.32663,2.32663,0,0,0,16.7405,9.5277l-.18406,1.02765a1.29446,1.29446,0,0,0-.56076-.17806V5.92687A6.21591,6.21591,0,0,1,17.064,6.20928Z"/><path class="d" d="M18.61525,26.15174a8.69769,8.69769,0,0,1-1.01928.69013c-.02694,1.07851-1.026,2.92668-1.29089,3.96773-.06374.25048.75056-.28394.6682-.03633-.02481.07458-.10688.17269-.01086.26291l.96049-.04654c.05613-.15923.01411-.4264.14033-.46392.143-.04252.16637.23021.27722.33825.02527.02463.03938.07865.08175.05614.0216-.01148.02888-.06236.031-.09615.01824-.29381.042-.58759.04875-.88173.02525-1.10322.04316-2.2066.06795-3.30983C18.5735,26.47192,18.59957,26.312,18.61525,26.15174Z"/><path class="d" d="M16.4819,10.92251c.11284-.1049.19193-.21588.07454-.36716L16.7405,9.5277a1.68948,1.68948,0,0,1,.493-.356c.19235.12906.33431.03547.46558-.10546.18821-.09966.24094-.30146.34833-.46185.03057.019.05928.05024.092.05521.29277.04389.36123.13693.29574.4279-.08883.39422-.1829.78733-.27462,1.181-.06177.05521-.07239.11125-.00255.16853q-.17154.31989-.34308.63951a.96954.96954,0,0,0-.14659.13016,1.95017,1.95017,0,0,1-1.6726.71625v-.7324A1.6994,1.6994,0,0,0,16.4819,10.92251Z"/><path class="d" d="M20.46224,25.18641a3.71688,3.71688,0,0,1-.85839.51,7.8821,7.8821,0,0,1-.32216,1.7269,6.12831,6.12831,0,0,0-.42637,1.45313c.002.14886.28944-.05381.29864.09547.06364-.14774.14-.04726.21444-.01171.20507.098.42191.2049.6391.07436.16585-.09969.17518.00669.21158.108.02155-.36627.19783-.341.23641-.29131.11559.14884-.05633.29131.472.29131-.12345-.62126-.386-1.9709-.48881-2.59786C20.3638,26.08768,20.51255,25.6398,20.46224,25.18641Z"/><path class="e" d="M20.21908,29.14251c-.0364-.10126-.04573-.20764-.21158-.108-.21719.13054-.434.0236-.6391-.07436-.07442-.03555-.1508-.136-.21444.01171-.03441.26263-.05984.527-.10691.78748-.025.13806.00312.202.1426.24825a1.22912,1.22912,0,0,0,.93842.01389.20862.20862,0,0,0,.14921-.257C20.24841,29.55854,20.23757,29.35,20.21908,29.14251Z"/><path class="f" d="M18.04739,8.60435c.03057.019.0593.05029.092.05521.29274.044.36121.137.2957.428-.08878.39428-.18283.78737-.27458,1.181l.05241.0538a11.24092,11.24092,0,0,0,.74617-2.24373.3641.3641,0,0,0-.05105-.32838,1.333,1.333,0,0,0-1.0936.11914c.28442-.06771.348.081.3108.32135C18.10379,8.32929,18.07363,8.46652,18.04739,8.60435Z"/><path class="e" d="M17.92291,30.98964l-.96049.04654a2.406,2.406,0,0,1-.068.44987c-.11533.33338.056.43228.33883.479a1.47,1.47,0,0,0,.36575.04281c.36085-.03074.41251-.09038.382-.45065C17.96506,31.3677,17.94251,31.1788,17.92291,30.98964Z"/><path class="g" d="M20.74711,3.54633c.12829.14165-.049.3174.05158.46213.163-.02051.19415-.15727.24449-.27714C21.04857,3.50308,20.95485,3.43346,20.74711,3.54633Z"/><path class="h" d="M18.21292,10.32233l-.05241-.0538c-.06178.05528-.07243.11131-.00254.16853Z"/><path class="i" d="M18.85476,7.63032l.03856.06Z"/><path class="j" d="M16.55644,10.55535c.11739.15128.0383.26226-.07454.36716a1.6994,1.6994,0,0,1-.48622.26806v-.81328A1.29446,1.29446,0,0,1,16.55644,10.55535Z"/><path class="k" d="M18.41692,16.51216a1.05413,1.05413,0,0,0,.43115.76648c.20575.15307.45572-.01464.44534-.30525a.92.92,0,0,0-.391-.69683.31971.31971,0,0,0-.35144-.00673C18.44092,16.32493,18.43742,16.43512,18.41692,16.51216Z"/><path class="l" d="M19.59792,17.91286c.00181.122.03168.23651.17357.24471a.14.14,0,0,0,.1466-.16826c-.01781-.116-.03233-.25942-.19956-.26025C19.60068,17.72849,19.599,17.82528,19.59792,17.91286Z"/><path class="c" d="M20.17386,18.26522a4.56609,4.56609,0,0,0-1.21063-2.39282,3.75162,3.75162,0,0,1-1.08429-2.67859c-.04541-.70544-.06549-1.41077-.064-2.11731a.9729.9729,0,0,0-.1466.13013,1.94991,1.94991,0,0,1-1.67261.71631V16.1871a16.62918,16.62918,0,0,0,1.196,4.35718q-.002.57-.004,1.13989l-.00006-.00012v.00024q.05832.63171.11657,1.26355a8.90943,8.90943,0,0,1,.32,2.89844c-.01617.33154-.01923.66357-.02826.9956a8.67479,8.67479,0,0,0,1.01929-.69018,19.57382,19.57382,0,0,1,.56732-2.47925c.01422-.04932.00012-.13379.07166-.13635.077-.00306.05786.08361.07318.13147a5.37258,5.37258,0,0,1,.27642,2.0288,3.71864,3.71864,0,0,0,.8584-.51,6.52725,6.52725,0,0,0,.08258-1.16919A21.97775,21.97775,0,0,0,20.17386,18.26522Zm-1.4953,2.85059.00641.00525-.00641-.00525Zm.09259.00586a.06609.06609,0,0,0-.02746-.07129l-.02167.02173.02167-.02173A.0659.0659,0,0,1,18.77115,21.12167Zm.07691-3.843a1.05473,1.05473,0,0,1-.43116-.7666c.02051-.07691.02405-.18713.134-.24219a.3196.3196,0,0,1,.35144.00659.92033.92033,0,0,1,.391.69678C19.30387,17.264,19.05387,17.43173,18.84806,17.27865Zm.92346.87891c-.14191-.0083-.17175-.12281-.17346-.24488.00091-.0874.00262-.18432.12048-.18359.16724.00085.18176.14416.19952.26A.13991.13991,0,0,1,19.77152,18.15756Z"/><path class="m" d="M18.04739,8.60435c.02624-.13783.0564-.27506.07785-.41364.03718-.2403-.02638-.38906-.3108-.32135-.21788.12775-.49517.18241-.5801.47258a.24664.24664,0,0,1,.3555-.00306l.04057.04085.03117.05256c.03746.00555.04354.03009.0375.062a.67436.67436,0,0,1,0,.572C17.88724,8.96665,17.94,8.76492,18.04739,8.60435Z"/><path class="n" d="M17.66158,8.43229l-.03117-.05256-.04057-.04085a.24664.24664,0,0,0-.3555.00306l-.08881.13093-.01662.01661-.04431.11761a.70353.70353,0,0,0,.14885.56458c.19241.12915.33437.03553.46561-.10541a.67431.67431,0,0,0,0-.572l-.06089-.00014c.011.09108.00169.17079-.11742.167a.094.094,0,0,1-.09086-.08779c-.00958-.11052.05807-.14287.156-.13481Z"/><path class="f" d="M17.23345,9.17167a.70359.70359,0,0,1-.14888-.56453l.00058-.11706a.18429.18429,0,0,1-.00452-.0569,2.32721,2.32721,0,0,0-.34016,1.09452A1.6903,1.6903,0,0,1,17.23345,9.17167Z"/><path class="o" d="M17.08063,8.43318a.18529.18529,0,0,0,.00449.05691l.04379-.00061.01662-.01661Z"/><path class="p" d="M20.33894,4.6871c-.01935-.02173-.105.0083-.15741.02441q-.75009.22889-1.49914.46118a9.57349,9.57349,0,0,0-.74982.96949c-.25861.38684-.25122.4198.06665.614.19177.11706.314-.01489.45331-.09985h0A2.02244,2.02244,0,0,0,19.83565,5.65c.14154-.26917.30719-.52564.45691-.79065C20.3221,4.807,20.39229,4.74716,20.33894,4.6871Z"/><path class="q" d="M17.66158,8.43229l-.07563.0062.05224.05563.06089.00014C17.70512,8.46238,17.699,8.43784,17.66158,8.43229Z"/><path class="q" d="M17.58984,8.33888l.04057.04085Z"/><path class="r" d="M17.63819,8.49412,17.586,8.43849c-.098-.00806-.16562.02429-.156.13481a.094.094,0,0,0,.09086.08779C17.63988,8.66491,17.64917,8.5852,17.63819,8.49412Z"/><path class="s" d="M17.12891,8.48948l-.04379.00061-.00055.117Z"/><path class="f" d="M15.99558,16.21056l-.00012.3313a18.41523,18.41523,0,0,0,1.07763,3.84692A20.07,20.07,0,0,1,15.99558,16.21056Z"/><path class="f" d="M17.19156,20.56783a.35921.35921,0,0,1-.05658-.07055q-.00192.54784-.00378,1.09558c.02075.03711.03509.07825.0564.11487Q17.18952,21.13789,17.19156,20.56783Z"/><path class="f" d="M17.135,20.49718a1.04712,1.04712,0,0,1-.06189-.1084,18.41523,18.41523,0,0,1-1.07763-3.84692c-.00013.21411-.00025.47534-.00025.6477a9.09538,9.09538,0,0,0,1.136,4.40332Q17.133,21.045,17.135,20.49718Z"/><path class="g" d="M21.15065.72937l.02362.00773.02346-.00822V.38473C21.10722.32651,21.045.22814,20.92416.212c-.14363-.01918-.214.02135-.17736.17659C20.89182.48986,21.18332.41752,21.15065.72937Z"/><path class="g" d="M19.35116.50483c.00577-.12314-.00322-.24687.183-.25079a.18042.18042,0,0,0,.17906-.15662c-.10475-.095-.25308-.15244-.3491-.06177-.12987.12264-.05071.31129-.04184.47314A.08335.08335,0,0,1,19.35116.50483Z"/><path class="g" d="M19.56238,3.73743c.1189-.12268.36945-.20971.29657-.39709-.08319-.21387-.29864.03857-.452-.02527-.08307.07422-.17188.14282-.24762.22388a.2346.2346,0,0,0-.05231.30847.16409.16409,0,0,0,.031.02856l.40716-.11584h.00025A.22331.22331,0,0,1,19.56238,3.73743Z"/><path class="d" d="M20.7471,3.54625l-1.30835.23365-.30957.08789a.08251.08251,0,0,1-.02209-.02039.23461.23461,0,0,1,.05231-.30847c.07574-.08106.16455-.14966.24762-.22388a3.36617,3.36617,0,0,1,.59735-.60815,2.57682,2.57682,0,0,1,.37884-.34741A1.8811,1.8811,0,0,0,21.15067.72936c.03265-.31189-.25885-.2395-.40387-.34082a3.391,3.391,0,0,1-.14386.75378l-.0116.0116a3.955,3.955,0,0,1-.5578.94214l-.0932.11035c-.07666.04724-.13824.1687-.23761.115-.11133-.0603-.04437-.18665-.04046-.28369a2.59444,2.59444,0,0,1,.04-.27905A4.29655,4.29655,0,0,0,19.75681.67052c-.01044-.19141.06067-.38892-.04352-.57312A.18042.18042,0,0,1,19.53421.254c-.18621.0039-.17724.12768-.183.25073l.00006.00012h-.00006A5.88555,5.88555,0,0,1,19.208,1.87963q-.19051.75092-.381,1.50134l-.21161.5686a.743.743,0,0,1-.10522.09424l-.12421.0354a1.22975,1.22975,0,0,0-.76526.86035c-.0271.06031-.52942,1.20923-.55658,1.26954-.03015.227.17975.231.2995.28662.11389.05322.11853-.10279.16528-.17237.06372-.364.491-.86841.51941-1.07495a.76407.76407,0,0,1,.37683-.47388.99243.99243,0,0,1,.55872-.312q.90756-.22668,1.81488-.4541C20.69809,3.86364,20.8754,3.68785,20.7471,3.54625Z"/><path class="d" d="M25.82212,14.99242c.10186-.36584-1.07685-.34192-1.89264-.23242,0,0,1.07965-1.01868.89648-1.39465-.1831-.37574-2.02545.69738-2.02545.69738s.60584-.61755.29883-.69738c-7.549,1.494-7.10413,3.82421-7.10413,3.82421l.00049,2.78c1.53961.41919,4.11572-1.01037,2.68286-2.02612,1.52442.11389,2.98541.18506,2.827-.83887,2.19848-.24084,3.32837-.61328,2.05865-1.282C24.47757,15.65563,25.72025,15.35827,25.82212,14.99242Z"/><path class="a" d="M14.80832,20.54428l.004,1.13977-.00006.00012Q14.81036,21.11435,14.80832,20.54428Z"/><path class="d" d="M14.81234,21.68429a2.1264,2.1264,0,0,1-.004-1.14l.3551.34082a9.57053,9.57053,0,0,0,.84088-3.71338v5.99585a8.05069,8.05069,0,0,1-1.30853-.21973Q14.754,22.31613,14.81234,21.68429Z"/><path class="t" d="M14.936,6.20928c.03.22692-.17985.23065-.2996.28655-.11387.053-.11857-.10283-.16529-.1724a9.66863,9.66863,0,0,0-.97326-1.487.65576.65576,0,0,0-.18027.33639c.2586.3869,1.00107,1.38915.68319,1.58336-.1918.117-.314-.01477-.4533-.0998A2.02235,2.02235,0,0,1,12.16434,5.65c-.14155-.26916-.30719-.52562-.45688-.79064-.02954-.05232-.09973-.11208-.04638-.17227.01932-.02167.105.00842.15742.02444q.75.22878,1.4991.4613.09006-.16833.18027-.33639c-.74765-.19324-1.49489-.38869-2.24405-.57669-.07806-.0196-.16992-.08227-.2399-.02154-.01905.01657.0421.13583.077.20236.28379.54053.58567,1.07223.851,1.6216a1.71321,1.71321,0,0,0,1.064.9284c.14411.04693.36075.08033.40306.18.05976.14079-.17123.23631-.22817.38263-.01021.0265-.0236.05148-.03554.07716l-.03858.06-.0147.05991a1.33328,1.33328,0,0,1,1.09369.11912c.21775.12768.49505.18234.58015.47276l.08855.13057.065-.03947A2.32663,2.32663,0,0,1,15.2595,9.5277l.18406,1.02765a1.29446,1.29446,0,0,1,.56076-.17806V5.92687A6.21591,6.21591,0,0,0,14.936,6.20928Z"/><path class="u" d="M13.38475,26.15174a8.69769,8.69769,0,0,0,1.01928.69013c.02694,1.07851,1.026,2.92668,1.29089,3.96773.06374.25048-.75056-.28394-.6682-.03633.02481.07458.10688.17269.01086.26291l-.96049-.04654c-.05613-.15923-.01411-.4264-.14033-.46392-.143-.04252-.16637.23021-.27722.33825-.02527.02463-.03938.07865-.08175.05614-.0216-.01148-.02888-.06236-.031-.09615-.01824-.29381-.042-.58759-.04875-.88173-.02525-1.10322-.04316-2.2066-.06795-3.30983C13.4265,26.47192,13.40043,26.312,13.38475,26.15174Z"/><path class="u" d="M15.5181,10.92251c-.11284-.1049-.19193-.21588-.07454-.36716L15.2595,9.5277a1.68948,1.68948,0,0,0-.493-.356c-.19235.12906-.33431.03547-.46558-.10546-.18821-.09966-.24094-.30146-.34833-.46185-.03057.019-.05928.05024-.092.05521-.29277.04389-.36123.13693-.29574.4279.08883.39422.1829.78733.27462,1.181.06177.05521.07239.11125.00255.16853q.17154.31989.34308.63951a.96954.96954,0,0,1,.14659.13016,1.95017,1.95017,0,0,0,1.6726.71625v-.7324A1.6994,1.6994,0,0,1,15.5181,10.92251Z"/><path class="u" d="M11.53776,25.18641a3.71688,3.71688,0,0,0,.85839.51,7.8821,7.8821,0,0,0,.32216,1.7269,6.12831,6.12831,0,0,1,.42637,1.45313c-.002.14886-.28944-.05381-.29864.09547-.06364-.14774-.14-.04726-.21444-.01171-.20507.098-.42191.2049-.6391.07436-.16585-.09969-.17518.00669-.21158.108-.02155-.36627-.19783-.341-.23641-.29131-.11559.14884.05633.29131-.472.29131.12345-.62126.386-1.9709.48881-2.59786C11.6362,26.08768,11.48745,25.6398,11.53776,25.18641Z"/><path class="v" d="M11.78092,29.14251c.0364-.10126.04573-.20764.21158-.108.21719.13054.434.0236.6391-.07436.07442-.03555.1508-.136.21444.01171.03441.26263.05984.527.10691.78748.025.13806-.00312.202-.1426.24825a1.22912,1.22912,0,0,1-.93842.01389.20862.20862,0,0,1-.14921-.257C11.75159,29.55854,11.76243,29.35,11.78092,29.14251Z"/><path class="w" d="M13.95261,8.60435c-.03057.019-.0593.05029-.092.05521-.29274.044-.36121.137-.2957.428.08878.39428.18283.78737.27458,1.181l-.05241.0538a11.24092,11.24092,0,0,1-.74617-2.24373.3641.3641,0,0,1,.05105-.32838,1.333,1.333,0,0,1,1.0936.11914c-.28442-.06771-.348.081-.3108.32135C13.89621,8.32929,13.92637,8.46652,13.95261,8.60435Z"/><path class="v" d="M14.07709,30.98964l.96049.04654a2.406,2.406,0,0,0,.068.44987c.11533.33338-.056.43228-.33883.479a1.47,1.47,0,0,1-.36575.04281c-.36085-.03074-.41251-.09038-.382-.45065C14.03494,31.3677,14.05749,31.1788,14.07709,30.98964Z"/><path class="x" d="M11.25289,3.54633c-.12829.14165.049.3174-.05158.46213-.163-.02051-.19415-.15727-.24449-.27714C10.95143,3.50308,11.04515,3.43346,11.25289,3.54633Z"/><path class="h" d="M13.78708,10.32233l.05241-.0538c.06178.05528.07243.11131.00254.16853Z"/><path class="i" d="M13.14524,7.63032l-.03856.06Z"/><path class="y" d="M15.44356,10.55535c-.11739.15128-.0383.26226.07454.36716a1.6994,1.6994,0,0,0,.48622.26806v-.81328A1.29446,1.29446,0,0,0,15.44356,10.55535Z"/><path class="k" d="M13.58308,16.51216a1.05413,1.05413,0,0,1-.43115.76648c-.20575.15307-.45572-.01464-.44534-.30525a.92.92,0,0,1,.391-.69683.31971.31971,0,0,1,.35144-.00673C13.55908,16.32493,13.56258,16.43512,13.58308,16.51216Z"/><path class="l" d="M12.40208,17.91286c-.00181.122-.03168.23651-.17357.24471a.14.14,0,0,1-.1466-.16826c.01781-.116.03233-.25942.19956-.26025C12.39932,17.72849,12.401,17.82528,12.40208,17.91286Z"/><path class="t" d="M11.45517,24.01718a6.52725,6.52725,0,0,0,.08258,1.16919,3.71864,3.71864,0,0,0,.8584.51,5.37258,5.37258,0,0,1,.27642-2.0288c.01532-.04786-.00378-.13453.07318-.13147.07154.00256.05744.087.07166.13635a19.57382,19.57382,0,0,1,.56732,2.47925,8.67479,8.67479,0,0,0,1.01929.69018c-.009-.332-.01209-.66406-.02826-.9956a8.90943,8.90943,0,0,1,.32-2.89844q.05823-.63171.11657-1.26355v-.00024l-.00006.00012q-.00192-.56982-.004-1.13989a16.62918,16.62918,0,0,0,1.196-4.35718V11.92294a1.94991,1.94991,0,0,1-1.67261-.71631.9729.9729,0,0,0-.1466-.13013c.00146.70654-.01862,1.41187-.064,2.11731a3.75162,3.75162,0,0,1-1.08429,2.67859,4.56609,4.56609,0,0,0-1.21063,2.39282A21.97775,21.97775,0,0,0,11.45517,24.01718Zm1.86627-2.90137-.00641.00525.00641-.00525Zm-.06513-.06543.02167.02173-.02167-.02173a.06609.06609,0,0,0-.02746.07129A.0659.0659,0,0,1,13.25631,21.05038Zm-.54974-4.07715a.92033.92033,0,0,1,.391-.69678.3196.3196,0,0,1,.35144-.00659c.11.05506.11353.16528.134.24219a1.05473,1.05473,0,0,1-.43116.7666C12.94613,17.43173,12.69613,17.264,12.70657,16.97323Zm-.62463,1.01587c.01776-.11585.03228-.25916.19952-.26.11786-.00073.11957.09619.12048.18359-.00171.12207-.03155.23658-.17346.24488A.13991.13991,0,0,1,12.08194,17.9891Z"/><path class="m" d="M13.95261,8.60435c-.02624-.13783-.0564-.27506-.07785-.41364-.03718-.2403.02638-.38906.3108-.32135.21788.12775.49517.18241.5801.47258a.24664.24664,0,0,0-.3555-.00306l-.04057.04085-.03117.05256c-.03746.00555-.04354.03009-.0375.062a.67436.67436,0,0,0,0,.572C14.11276,8.96665,14.06,8.76492,13.95261,8.60435Z"/><path class="n" d="M14.33842,8.43229l.03117-.05256.04057-.04085a.24664.24664,0,0,1,.3555.00306l.08881.13093.01662.01661.04431.11761a.70353.70353,0,0,1-.14885.56458c-.19241.12915-.33437.03553-.46561-.10541a.67431.67431,0,0,1,0-.572l.06089-.00014c-.011.09108-.00169.17079.11742.167a.094.094,0,0,0,.09086-.08779c.00958-.11052-.05807-.14287-.156-.13481Z"/><path class="w" d="M14.76655,9.17167a.70359.70359,0,0,0,.14888-.56453l-.00058-.11706a.18429.18429,0,0,0,.00452-.0569,2.32721,2.32721,0,0,1,.34016,1.09452A1.6903,1.6903,0,0,0,14.76655,9.17167Z"/><path class="o" d="M14.91937,8.43318a.18529.18529,0,0,1-.00449.05691l-.04379-.00061-.01662-.01661Z"/><path class="y" d="M11.66106,4.6871c.01935-.02173.105.0083.15741.02441q.75009.22889,1.49914.46118a9.57349,9.57349,0,0,1,.74982.96949c.25861.38684.25122.4198-.06665.614-.19177.11706-.314-.01489-.45331-.09985h0A2.02244,2.02244,0,0,1,12.16435,5.65c-.14154-.26917-.30719-.52564-.45691-.79065C11.6779,4.807,11.60771,4.74716,11.66106,4.6871Z"/><path class="q" d="M14.33842,8.43229l.07563.0062-.05224.05563-.06089.00014C14.29488,8.46238,14.301,8.43784,14.33842,8.43229Z"/><path class="q" d="M14.41016,8.33888l-.04057.04085Z"/><path class="r" d="M14.36181,8.49412l.05224-.05563c.098-.00806.16562.02429.156.13481a.094.094,0,0,1-.09086.08779C14.36012,8.66491,14.35083,8.5852,14.36181,8.49412Z"/><path class="s" d="M14.87109,8.48948l.04379.00061.00055.117Z"/><path class="w" d="M16.00442,16.21056c0,.03784.00006.17358.00012.3313a18.41523,18.41523,0,0,1-1.07763,3.84692A20.07,20.07,0,0,0,16.00442,16.21056Z"/><path class="w" d="M14.80844,20.56783a.35921.35921,0,0,0,.05658-.07055q.00192.54784.00378,1.09558c-.02075.03711-.03509.07825-.0564.11487Q14.81048,21.13789,14.80844,20.56783Z"/><path class="w" d="M14.865,20.49718a1.04712,1.04712,0,0,0,.06189-.1084,18.41523,18.41523,0,0,0,1.07763-3.84692c.00013.21411.00025.47534.00025.6477a9.09538,9.09538,0,0,1-1.136,4.40332Q14.867,21.045,14.865,20.49718Z"/><path class="x" d="M10.84935.72937,10.82573.7371,10.80227.72888V.38473c.09051-.05822.15272-.15659.27357-.17273.14363-.01918.214.02135.17736.17659C11.10818.48986,10.81668.41752,10.84935.72937Z"/><path class="x" d="M12.64884.50483C12.64307.38169,12.65206.258,12.4658.254a.18042.18042,0,0,1-.17906-.15662c.10475-.095.25308-.15244.3491-.06177.12987.12264.05071.31129.04184.47314A.08335.08335,0,0,0,12.64884.50483Z"/><path class="x" d="M12.43762,3.73743c-.1189-.12268-.36945-.20971-.29657-.39709.08319-.21387.29864.03857.452-.02527.08307.07422.17188.14282.24762.22388a.2346.2346,0,0,1,.05231.30847.16409.16409,0,0,1-.031.02856l-.40716-.11584h-.00025A.22331.22331,0,0,0,12.43762,3.73743Z"/><path class="u" d="M11.2529,3.54625l1.30835.23365.30957.08789a.08251.08251,0,0,0,.02209-.02039.23461.23461,0,0,0-.05231-.30847c-.07574-.08106-.16455-.14966-.24762-.22388a3.36617,3.36617,0,0,0-.59735-.60815,2.57682,2.57682,0,0,0-.37884-.34741A1.8811,1.8811,0,0,1,10.84933.72936c-.03265-.31189.25885-.2395.40387-.34082a3.391,3.391,0,0,0,.14386.75378l.0116.0116a3.955,3.955,0,0,0,.5578.94214l.0932.11035c.07666.04724.13824.1687.23761.115.11133-.0603.04437-.18665.04046-.28369a2.59444,2.59444,0,0,0-.04-.27905A4.29655,4.29655,0,0,1,12.24319.67052c.01044-.19141-.06067-.38892.04352-.57312A.18042.18042,0,0,0,12.46579.254c.18621.0039.17724.12768.183.25073l-.00006.00012h.00006A5.88555,5.88555,0,0,0,12.792,1.87963q.19051.75092.381,1.50134l.21161.5686a.743.743,0,0,0,.10522.09424l.12421.0354a1.22975,1.22975,0,0,1,.76526.86035c.0271.06031.52942,1.20923.55658,1.26954.03015.227-.17975.231-.2995.28662-.11389.05322-.11853-.10279-.16528-.17237-.06372-.364-.491-.86841-.51941-1.07495a.76407.76407,0,0,0-.37683-.47388.99243.99243,0,0,0-.55872-.312q-.90756-.22668-1.81488-.4541C11.30191,3.86364,11.1246,3.68785,11.2529,3.54625Z"/><path class="u" d="M6.17788,14.99242C6.076,14.62658,7.25473,14.6505,8.07052,14.76c0,0-1.07965-1.01868-.89648-1.39465.1831-.37574,2.02545.69738,2.02545.69738s-.60584-.61755-.29883-.69738c7.549,1.494,7.10413,3.82421,7.10413,3.82421l-.00049,2.78c-1.53961.41919-4.11572-1.01037-2.68286-2.02612-1.52442.11389-2.98541.18506-2.827-.83887-2.19848-.24084-3.32837-.61328-2.05865-1.282C7.52243,15.65563,6.27975,15.35827,6.17788,14.99242Z"/></svg>