<svg xmlns="http://www.w3.org/2000/svg" viewBox="0 0 32 32"><defs><style>.a{fill:#fae09f;}.b{fill:#876f5d;}.c{fill:#f7d684;}.d{fill:#413b3b;}.e{fill:#ffd04d;}.f{fill:#e08c96;}.g{fill:#e0ca59;}.h{fill:#f5efd9;}.i{fill:#c48c49;}.j{fill:#efb6c7;}.k{fill:#dd6787;}.l{fill:#d6b071;}.m{fill:#d7a059;}.n{fill:#604631;}.o{fill:#fcfcfa;}.p{fill:#251e1b;}.q{fill:#e4dcad;}.r{fill:#fde544;}.s{fill:#fde543;}.t{fill:#de6688;}.u{fill:#f1bccb;}.v{fill:#fbf1f4;}.w{fill:#4c4744;}.x{fill:#dfdedd;}.y{fill:#b3afa4;}.z{fill:#776151;}.aa{fill:#f0c877;}.ab{fill:#4f4032;}.ac{fill:#3a3333;}.ad{fill:#f7c845;}.ae{fill:#de8490;}.af{fill:#51321b;}.ag{fill:#572e27;}</style></defs><title>586-sawsbuck-spring-shiny</title><path class="a" d="M10.95177.73922,10.92815.747,10.90469.73873V.39458c.09051-.05821.15272-.15659.27357-.17273.14362-.01918.214.02135.17736.17659C11.2106.49971,10.9191.42737,10.95177.73922Z"/><path class="b" d="M12.97894,18.82593c.30262-.181.57679-.40918.879-.59094a.77093.77093,0,0,0,.37408-.59241A1.72505,1.72505,0,0,1,16,16.17725V11.91309a1.94991,1.94991,0,0,1-1.67261-.71631.9729.9729,0,0,0-.1466-.13013c.00146.70654-.01862,1.41187-.064,2.11731a3.75165,3.75165,0,0,1-1.08429,2.67859,4.56616,4.56616,0,0,0-1.21063,2.39282,21.97767,21.97767,0,0,0-.371,5.752,6.52811,6.52811,0,0,0,.08258,1.16919,3.71832,3.71832,0,0,0,.8584.51,5.37266,5.37266,0,0,1,.27642-2.02881c.01532-.04785-.00378-.13452.07319-.13146.07153.00256.05743.087.07165.13635a19.57382,19.57382,0,0,1,.56732,2.47925,8.67479,8.67479,0,0,0,1.01929.69018c-.009-.332-.01209-.66406-.02826-.9956a8.90971,8.90971,0,0,1,.32-2.89844q.05823-.63171.11657-1.26355l-.004-1.14q-.74341.28564-1.48688.57154c-.02472.02758-.0567.05529-.08869.02319s-.00427-.064.02356-.08862c.1659-.42652.32587-.85572.501-1.27857.06451-.15576.04816-.22851-.12067-.29638-.21991-.08863-.42059-.22412-.63366-.33118C12.80725,19.03833,12.74683,18.96484,12.97894,18.82593Zm-.75476-.67822a.13991.13991,0,0,1-.14654-.16846c.01776-.11585.03228-.25916.19952-.26.11786-.00073.11957.09619.12048.18359C12.39594,18.0249,12.36609,18.1394,12.22418,18.14771Zm.47809-1.18433a.92031.92031,0,0,1,.391-.69678.3196.3196,0,0,1,.35144-.00659c.11.055.11353.16528.134.24219a1.05475,1.05475,0,0,1-.43116.7666C12.94183,17.42187,12.69183,17.25415,12.70227,16.96338Z"/><path class="c" d="M15.405,21.09082c.084.13477.06189.22119-.07813.29395-.17566.09143-.34613.19274-.5188.28967q-.0583.63171-.11657,1.26355A8.05085,8.05085,0,0,0,16,23.15771V21.68262Z"/><path class="a" d="M16,16.17725a1.72505,1.72505,0,0,0-1.768,1.46533.77093.77093,0,0,1-.37408.59241c-.30218.18176-.57635.40991-.879.59094-.23211.13891-.17169.2124.01972.30847.21307.10706.41375.24255.63366.33118.16883.06787.18518.14062.12067.29638-.17511.42285-.33508.85205-.501,1.27857l.06513.06543q.7434-.28582,1.48688-.57154l.0589-.054c.057.01416.05224.06079.05511.10376a2.05676,2.05676,0,0,1,.48694.50659h0l.595.5918Z"/><path class="b" d="M14.9317,6.19943c.03.22692-.17985.23065-.2996.28655-.11387.053-.11856-.10283-.16529-.1724a.56286.56286,0,0,1-.35143-.3506c-.07039.04-.05542.10642-.05224.16923.2586.3869.25122.41989-.06667.6141-.1918.117-.314-.01477-.4533-.0998A2.0224,2.0224,0,0,1,12.16,5.64012c-.14155-.26916-.30719-.52562-.45688-.79064-.02954-.05232-.09973-.11209-.04638-.17227.01932-.02167.105.00842.15743.02443q.75.22879,1.49909.46131.09006-.16833.18027-.33639c-.74765-.19324-1.49489-.38869-2.24405-.57669-.07806-.0196-.16992-.08227-.2399-.02154-.01905.01657.0421.13583.077.20236.28379.54053.58567,1.07223.851,1.6216a1.71324,1.71324,0,0,0,1.064.9284c.14411.04693.36075.08033.40306.18.05976.14079-.17123.23631-.22817.38262-.01021.02651-.0236.05149-.03554.07716l-.03858.06005-.0147.0599a1.33328,1.33328,0,0,1,1.09369.11913c.21775.12768.49505.18234.58015.47275l.08855.13058.065-.03947a2.32652,2.32652,0,0,1,.34011,1.09445l.18407,1.02765A1.29424,1.29424,0,0,1,16,10.36744V5.917A6.21685,6.21685,0,0,0,14.9317,6.19943Z"/><path class="c" d="M13.38043,26.14189a8.70017,8.70017,0,0,0,1.01928.69013,13.40962,13.40962,0,0,0,.6227,3.9314c.0248.07458.10687.17269.01085.26291l-.96049-.04654c-.05613-.15924-.01411-.4264-.14033-.46393-.143-.04251-.16637.23022-.27721.33826-.02528.02463-.03939.07865-.08175.05614-.02161-.01148-.02889-.06236-.031-.09615-.01823-.29381-.042-.58759-.04875-.88174-.02525-1.10321-.04316-2.20659-.068-3.30982C13.42218,26.46207,13.39611,26.3021,13.38043,26.14189Z"/><path class="a" d="M15.51378,10.91266c-.11284-.1049-.19193-.21588-.07453-.36716l-.18407-1.02765a1.6893,1.6893,0,0,0-.493-.356c-.19235.12906-.33431.03547-.46558-.10546-.18821-.09966-.24094-.30146-.34832-.46185-.03058.019-.05929.05024-.092.05521-.29277.04389-.36123.13693-.29574.4279.08883.39422.1829.78733.27462,1.181.06177.05521.0724.11125.00255.16853q.17154.31989.34308.6395a.97014.97014,0,0,1,.14659.13017A1.95017,1.95017,0,0,0,16,11.91312v-.7324A1.6994,1.6994,0,0,1,15.51378,10.91266Z"/><path class="c" d="M11.53344,25.17655a3.71692,3.71692,0,0,0,.85839.51,7.88221,7.88221,0,0,0,.32216,1.7269,3.98968,3.98968,0,0,1,.12773,1.5486c-.06364-.14774-.14-.04726-.21444-.01172-.20507.098-.42191.20491-.6391.07437-.16585-.09969-.17518.00669-.21158.108-.02155-.36627-.04159-.73265-.06617-1.09872-.004-.05948.03744-.1507-.04269-.17111-.06722-.01712-.10443.06832-.143.118-.11559.14885-.22579.30188-.33807.45334l-.06-.04917c.12345-.62126.32757-1.22322.43035-1.85019C11.63189,26.07783,11.48314,25.63,11.53344,25.17655Z"/><path class="d" d="M11.7766,29.13266c.0364-.10126.04573-.20764.21158-.108.21719.13054.434.0236.6391-.07437.07442-.03554.1508-.136.21444.01172.03441.26262.05984.527.10691.78747.025.13807-.00312.20206-.1426.24826a1.22916,1.22916,0,0,1-.93842.01389.20862.20862,0,0,1-.14921-.257C11.74727,29.54868,11.75811,29.34014,11.7766,29.13266Z"/><path class="e" d="M13.94829,8.5945c-.03057.019-.0593.05029-.092.05521-.29274.044-.36121.137-.2957.428.08878.39428.18283.78737.27458,1.181l-.05241.0538a11.24092,11.24092,0,0,1-.74617-2.24373.36409.36409,0,0,1,.05105-.32838,1.333,1.333,0,0,1,1.0936.11914c-.28442-.06771-.348.081-.31079.32135C13.89189,8.31944,13.92205,8.45667,13.94829,8.5945Z"/><path class="d" d="M14.07277,30.97979l.96049.04654a2.406,2.406,0,0,0,.068.44987c.11533.33338-.056.43228-.33883.479a1.4705,1.4705,0,0,1-.36575.04281c-.36085-.03074-.41251-.09038-.382-.45065C14.03062,31.35785,14.05317,31.169,14.07277,30.97979Z"/><path class="f" d="M13.57054,4.76481a.7638.7638,0,0,1,.37683.47384c.01969.07945.06569.03611.10437.01453l.06488.18964c-.21684-.10565-.35764-.01856-.45472.17937l-.0505-.06557-.07479-.05137a1.01336,1.01336,0,0,1-.22333-.34232q.09007-.16815.18028-.33626Z"/><path class="a" d="M11.24857,3.53648c-.12829.14164.049.3174-.05158.46213-.163-.02051-.19415-.15727-.24449-.27714C10.94711,3.49323,11.04083,3.42361,11.24857,3.53648Z"/><path class="g" d="M13.78276,10.31248l.05241-.0538c.06178.05527.07243.11131.00254.16853Z"/><path class="h" d="M11.12662,28.385l.06.04917c-.01729.04066-.03331.10726-.0883.06905C11.05442,28.47266,11.088,28.41859,11.12662,28.385Z"/><path class="i" d="M13.14092,7.62047l-.03856.06Z"/><path class="f" d="M12.89448,1.8895c-.20864.13888-.34781-.006-.49428-.121L12.338,1.6011l-.00027-.06149a.34081.34081,0,0,0-.06143-.49777L12.27477.8931l.07086-.21277c.10667-.12512.33341.04385.40563-.16565a.08038.08038,0,0,1,.02883.00409c.09039.23.20613.46144-.037.67312l-.05241.04973.02719.02783.02788-.07293C12.87037,1.4114,13.10261,1.60318,12.89448,1.8895Z"/><path class="f" d="M14.11662,5.44282l-.06488-.18964c.00049-.215.18322-.24789.32325-.32344a.35843.35843,0,0,1,.24957.553c-.27067.09161-.13217.17343.00605.25526a.18182.18182,0,0,0,.12183.10443l-.003-.00269.01058.18171a.34.34,0,0,1-.29326.29217.56253.56253,0,0,1-.35139-.35062l-.0001-.06749A.36231.36231,0,0,0,14.11662,5.44282Z"/><path class="f" d="M11.25959,1.48678l.00083-.06265L11.306,1.312l-.0001.00018.05792-.05634.00073-.0004A.12224.12224,0,0,0,11.4768,1.198l.00222-.00178.06287-.00206.16253.00952.11835.05164.00422.00334.05679.05453a.05863.05863,0,0,1,.00037.04438.12236.12236,0,0,0,.05256.12615l.00091.00131c.0604.19981.22263.08248.33875.10875l.00518.00554a2.03272,2.03272,0,0,1-.11945.61685c-.12267.04759-.24555.12048-.37226.01271-.13173-.112-.09239-.25659-.06946-.39663.00905-.05529.02226-.10991.03358-.16484l.01442-.01481.05791-.05318.01765-.03682c-.04757-.02671-.07164.01377-.102.03714l-.058.00914-.0081-.0034-.08067.04084-.102.01521-.08935.00071-.02164.00385L11.36319,1.655l-.06176-.054.00178.00268Z"/><path class="f" d="M12.27477.8931l.00151.14865c-.20132-.05685-.29958.07127-.38834.21644l-.0609.00052-.00427-.00336a.1056.1056,0,0,0-.06461-.10964A1.95623,1.95623,0,0,1,11.594.91513a.26446.26446,0,0,1,.13716-.38171c.159-.08828.25622.00193.35439.13226C12.14333.74244,12.07705.93484,12.27477.8931Z"/><path class="f" d="M13.48706,3.95952c-.33874-.08983-.21457-.35193-.21161-.56862.13542-.01851.27241-.09088.39939.033a.38728.38728,0,0,1,.09443.36733C13.7434,3.95246,13.61505,3.9599,13.48706,3.95952Z"/><path class="a" d="M12.75126.51468c-.00577-.12314.00321-.24687-.183-.25079a.18042.18042,0,0,1-.17907-.15662c.10476-.095.25309-.15243.34911-.06177.12987.12264.05071.3113.04184.47314A.08335.08335,0,0,0,12.75126.51468Z"/><path class="j" d="M11.75816,1.14571a.1056.1056,0,0,1,.06461.10964l-.11835-.05164Z"/><path class="k" d="M11.54189,1.19419l-.06287.00206a.07286.07286,0,0,1,.0205-.04405Z"/><path class="a" d="M12.69542,3.325c.08306.07412.17191.14284.24762.22384a.23456.23456,0,0,1,.05229.3085c-.09008.13007-.19308.06655-.29129-.00355A1.57591,1.57591,0,0,0,12.55693,3.77a.21451.21451,0,0,0-.0169-.02264c-.11886-.12274-.36942-.20976-.29656-.39712C12.32663,3.13635,12.54214,3.38877,12.69542,3.325Z"/><path class="f" d="M13.57876,16.50231a1.05413,1.05413,0,0,1-.43115.76648c-.20575.15307-.45572-.01464-.44534-.30526a.92.92,0,0,1,.391-.69683.31971.31971,0,0,1,.35144-.00672C13.55476,16.31508,13.55826,16.42527,13.57876,16.50231Z"/><path class="e" d="M14.918,20.58423l-.05518-.10388-.05883.05407q.002.57.004,1.1399c.17273-.09693.3432-.19812.51886-.28943.14008-.07288.16217-.15918.07807-.29407A2.05652,2.05652,0,0,0,14.918,20.58423Z"/><path class="f" d="M12.39776,17.903c-.00181.122-.03168.23651-.17357.24471a.14.14,0,0,1-.1466-.16826c.01781-.116.03233-.25943.19956-.26025C12.395,17.71864,12.39672,17.81543,12.39776,17.903Z"/><path class="l" d="M13.252,21.04062l.06517.06532c-.02473.02776-.05676.05534-.08871.02332S13.2242,21.06529,13.252,21.04062Z"/><path class="m" d="M14.918,20.58421l-.05516-.10383C14.91993,20.49447,14.91512,20.54139,14.918,20.58421Z"/><path class="n" d="M13.31328,5.16293a1.01324,1.01324,0,0,0,.22334.34232l-.05393.05752a1.98128,1.98128,0,0,0-.19865-.00466.243.243,0,0,0-.25194.30387c.02632.20022.16821.20023.32107.15782.06356-.01763.12521-.04215.18773-.06354l.0277.00414.028-.002c-.08824.20486-.19557.40809-.05387.63253l.00046.05558A2.02242,2.02242,0,0,1,12.16,5.64022c-.14157-.2692-.30719-.52567-.45691-.79074-.02955-.0523-.09975-.1121-.04637-.17219.0193-.02172.10494.00836.1574.02436Q12.56425,4.93054,13.31328,5.16293Z"/><path class="o" d="M13.94829,8.5945c-.02624-.13783-.0564-.27506-.07784-.41364-.03719-.2403.02637-.38906.31079-.32135.21788.12774.49517.18241.5801.47258a.24663.24663,0,0,0-.3555-.00306l-.04057.04085-.03117.05256c-.03746.00555-.04354.03009-.0375.062a.67438.67438,0,0,0,0,.572C14.10845,8.9568,14.05566,8.75507,13.94829,8.5945Z"/><path class="p" d="M14.3341,8.42244l.03117-.05256.04057-.04085a.24663.24663,0,0,1,.3555.00306l.08881.13093.01662.0166.04431.11762a.70353.70353,0,0,1-.14885.56458c-.19241.12915-.33437.03553-.46561-.10541a.67433.67433,0,0,1,0-.572l.06089-.00013c-.011.09108-.00169.17079.11742.167a.094.094,0,0,0,.09086-.08779c.00958-.11053-.05806-.14287-.156-.13481Z"/><path class="f" d="M13.54268,6.591c-.1417-.22444-.03437-.42767.05388-.63253l.063-.05783.05705-.05967a.498.498,0,0,0,.39871.05451l.0001.06751c-.0704.04009-.05543.10651-.0523.16929-.01933.07366-.03622.148-.05838.22081C13.92128,6.62723,13.82327,6.67709,13.54268,6.591Z"/><path class="e" d="M14.76223,9.16182a.70359.70359,0,0,0,.14888-.56453l-.00058-.11706a.18429.18429,0,0,0,.00452-.0569,2.32721,2.32721,0,0,1,.34016,1.09452A1.69012,1.69012,0,0,0,14.76223,9.16182Z"/><path class="q" d="M14.91505,8.42333a.18529.18529,0,0,1-.00449.05691l-.04379-.00062-.01662-.0166Z"/><path class="k" d="M11.25959,1.48678l.04362.11686A.10172.10172,0,0,1,11.25959,1.48678Z"/><path class="k" d="M11.306,1.312l-.04559.1121A.09871.09871,0,0,1,11.306,1.312Z"/><path class="k" d="M11.4768,1.198a.12224.12224,0,0,1-.11224.05744Z"/><path class="k" d="M11.40377,1.66227l.08935-.00071A.05483.05483,0,0,1,11.40377,1.66227Z"/><path class="k" d="M11.36383,1.25587l-.05792.05634Z"/><path class="k" d="M11.30143,1.601l.06176.054Z"/><path class="k" d="M11.59516,1.64635l.08067-.04084Z"/><path class="k" d="M11.68393,1.60891l.058-.00914.01428.00326.01411-.00394a.05789.05789,0,0,0-.002.05354l-.01442.01481Z"/><path class="f" d="M13.7166,5.84094l-.05706.05967a.13112.13112,0,0,0-.11864.05565c-.06252.02139-.12417.04591-.18773.06354-.15286.04241-.29475.0424-.32107-.15782a.243.243,0,0,1,.25194-.30387,1.98128,1.98128,0,0,1,.19865.00466c.04515.045.08864.05526.12871-.00615l.05047.06553Z"/><path class="r" d="M13.7166,5.84094l-.05473-.21879c.09711-.19789.23791-.285.45475-.17933a.36231.36231,0,0,1-.00131.45265A.49807.49807,0,0,1,13.7166,5.84094Z"/><path class="s" d="M11.88794,1.25819c.08876-.14517.187-.27329.38834-.21644a.341.341,0,0,1,.06144.49792l-.05675.01847a.605.605,0,0,1-.34334-.07307l-.00092-.00131-.05256-.12616a.05857.05857,0,0,0-.00039-.04439A.12831.12831,0,0,0,11.88794,1.25819Z"/><path class="n" d="M12.74571,1.19652l-.02788.07293-.02719-.02783.05241-.04973Z"/><path class="t" d="M12.281,1.55814l.05675-.01847.00024.06143-.02812-.004-.0283.0023-.00515-.00551A.23636.23636,0,0,0,12.281,1.55814Z"/><path class="k" d="M12.281,1.55814a.23636.23636,0,0,1-.00458.0357c-.11614-.0263-.27837.091-.33877-.10878A.60492.60492,0,0,0,12.281,1.55814Z"/><path class="k" d="M11.88415,1.3576l.05256.12616A.12238.12238,0,0,1,11.88415,1.3576Z"/><path class="u" d="M11.742,1.59977c.03034-.02337.05441-.06385.102-.03714l-.0177.03681a.50094.50094,0,0,1-.05589-.00035l-.01411.00394Z"/><path class="k" d="M11.88794,1.25819a.12831.12831,0,0,1-.00418.055L11.827,1.25869Z"/><path class="v" d="M11.77035,1.59909a.50094.50094,0,0,0,.05589.00035l-.05786.05319A.05789.05789,0,0,1,11.77035,1.59909Z"/><path class="n" d="M13.60974,4.06934c-.04791-.0177-.08215-.07227-.12268-.10987-.33874-.08984-.21454-.3518-.21161-.5686q-.19033-.75037-.381-1.50147c-.20862.13892-.34778-.00586-.49426-.12085a2.59071,2.59071,0,0,1,.04.27906c.0039.097.07086.22339-.04047.28369-.09937.05371-.16095-.06775-.23761-.11511-.12268.0476-.24555.12048-.37225.01269-.13172-.11194-.09241-.25659-.06946-.3966.009-.0553.02221-.10987.03357-.1648l-.07-.05859-.008-.00342-.08081.04077-.10192.01538a.055.055,0,0,1-.08948.00061l-.02161.00379-.01892-.011L11.30145,1.601l.00177.00269a.10171.10171,0,0,1-.04364-.11682l.00086-.06275a.09883.09883,0,0,1,.04553-.11194l.05786-.05627.00073-.00049.11225-.05737.00225-.00171a.073.073,0,0,1,.02045-.04419,3.39353,3.39353,0,0,1-.14392-.75366c-.145.10132-.43652.02893-.40381.34082a1.8811,1.8811,0,0,0,.76746,1.63012,2.58321,2.58321,0,0,1,.37884.34729,3.36658,3.36658,0,0,1,.59735.60828c.08307.0741.17188.14282.24762.22388a.23453.23453,0,0,1,.05225.30847c-.09.13-.193.06653-.29126-.00354A1.539,1.539,0,0,0,12.557,3.77L11.2486,3.53638c-.1283.14172.049.3175-.05164.46216q.90747.227,1.81488.4541a.9918.9918,0,0,1,.55872.31213.76407.76407,0,0,1,.37683.47388c.01965.07947.06567.036.10431.01452.00055-.215.18329-.24792.3233-.32348A1.23,1.23,0,0,0,13.60974,4.06934Z"/><path class="n" d="M12.75128.51465c-.0058-.12305.00318-.24683-.183-.25073a.18043.18043,0,0,1-.17908-.15674C12.285.2915,12.35608.489,12.34564.6803,12.45233.55518,12.679.72412,12.75128.51465Z"/><path class="n" d="M14.75018,5.84033l.00226.002a.17185.17185,0,0,0-.059-.1731l-.06885-.18652c-.27069.09155-.1322.17346.00605.25525a.18484.18484,0,0,0,.11889.10192l.0105.18164a.33966.33966,0,0,1-.29321.292c.04675.06958.05139.22558.16528.17248.11975-.05578.32965-.05969.2995-.28674l-.08136-.18067C14.82526,5.95447,14.82758,5.87488,14.75018,5.84033Z"/><path class="n" d="M15.43927,10.54541c-.11743.15137-.03833.26233.07452.36719A1.69865,1.69865,0,0,0,16,11.18066v-.81323A1.29529,1.29529,0,0,0,15.43927,10.54541Z"/><path class="n" d="M14.00476,6.353c-.0835.27417-.18146.324-.4621.23791l.00049.05554c.13935.085.26154.21692.45331.09986.31787-.19422.32526-.22717.06665-.614C14.04376,6.20581,14.02692,6.28027,14.00476,6.353Z"/><path class="n" d="M13.61139,5.55664l-.07477-.05139-.05395.05749C13.52783,5.60779,13.57135,5.618,13.61139,5.55664Z"/><path class="n" d="M13.59656,5.9585l.063-.05787a.13089.13089,0,0,0-.11866.05567l.02771.00415Z"/><path class="w" d="M14.3341,8.42244l.07563.0062-.05224.05563-.06089.00013C14.29056,8.45253,14.29664,8.428,14.3341,8.42244Z"/><path class="w" d="M14.40584,8.329l-.04057.04085Z"/><path class="x" d="M14.35749,8.48427l.05224-.05563c.098-.00806.16562.02428.156.13481a.094.094,0,0,1-.09086.08779C14.3558,8.65506,14.34651,8.57535,14.35749,8.48427Z"/><path class="y" d="M14.86677,8.47962l.04379.00062.00055.117Z"/><path class="c" d="M21.04823.73922,21.07185.747l.02346-.00822V.39458C21.0048.33637,20.94259.238,20.82174.22185c-.14362-.01918-.214.02135-.17736.17659C20.7894.49971,21.0809.42737,21.04823.73922Z"/><path class="z" d="M19.00134,19.1344c-.21307.10706-.41375.24255-.63366.33118-.16883.06787-.18518.14062-.12067.29638.17511.42285.33508.85205.501,1.27857.02783.02466.0556.05664.02356.08862s-.064.00439-.08869-.02319q-.7434-.28582-1.48688-.57154l-.004,1.14q.0583.63171.11657,1.26355a8.90971,8.90971,0,0,1,.32,2.89844c-.01617.33154-.01923.66357-.02826.9956a8.67479,8.67479,0,0,0,1.01929-.69018,19.57382,19.57382,0,0,1,.56732-2.47925c.01422-.04932.00012-.13379.07165-.13635.077-.00306.05787.08361.07319.13146a5.37266,5.37266,0,0,1,.27642,2.02881,3.71832,3.71832,0,0,0,.8584-.51,6.52811,6.52811,0,0,0,.08258-1.16919,21.97767,21.97767,0,0,0-.371-5.752,4.56616,4.56616,0,0,0-1.21063-2.39282A3.75165,3.75165,0,0,1,17.88324,13.184c-.04541-.70544-.06549-1.41077-.064-2.11731a.9729.9729,0,0,0-.1466.13013A1.94991,1.94991,0,0,1,16,11.91309v4.26416a1.72505,1.72505,0,0,1,1.768,1.46533.77093.77093,0,0,0,.37408.59241c.30218.18176.57635.40991.879.59094C19.25317,18.96484,19.19275,19.03833,19.00134,19.1344Zm.601-1.23157c.00091-.0874.00262-.18432.12048-.18359.16724.00085.18176.14416.19952.26a.13991.13991,0,0,1-.14654.16846C19.63391,18.1394,19.60406,18.0249,19.60236,17.90283Zm-.75-.634a1.05475,1.05475,0,0,1-.43116-.7666c.02051-.07691.02405-.18714.134-.24219a.3196.3196,0,0,1,.35144.00659.92031.92031,0,0,1,.391.69678C19.30817,17.25415,19.05817,17.42187,18.85236,17.2688Z"/><path class="aa" d="M16.595,21.09082c-.084.13477-.06189.22119.07813.29395.17566.09143.34613.19274.5188.28967q.0583.63171.11657,1.26355A8.05085,8.05085,0,0,1,16,23.15771V21.68262Z"/><path class="c" d="M16,16.17725a1.72505,1.72505,0,0,1,1.768,1.46533.77093.77093,0,0,0,.37408.59241c.30218.18176.57635.40991.879.59094.23211.13891.17169.2124-.01972.30847-.21307.10706-.41375.24255-.63366.33118-.16883.06787-.18518.14062-.12067.29638.17511.42285.33508.85205.501,1.27857l-.06513.06543q-.7434-.28582-1.48688-.57154l-.0589-.054c-.057.01416-.05224.06079-.05511.10376a2.05676,2.05676,0,0,0-.48694.50659h0l-.595.5918Z"/><path class="z" d="M17.0683,6.19943c-.03.22692.17985.23065.2996.28655.11387.053.11856-.10283.16529-.1724a.56286.56286,0,0,0,.35143-.3506c.07039.04.05542.10642.05224.16923-.2586.3869-.25122.41989.06667.6141.1918.117.314-.01477.4533-.0998A2.0224,2.0224,0,0,0,19.84,5.64012c.14155-.26916.30719-.52562.45688-.79064.02954-.05232.09973-.11209.04638-.17227-.01932-.02167-.105.00842-.15743.02443q-.75.22879-1.49909.46131-.09006-.16833-.18027-.33639c.74765-.19324,1.49489-.38869,2.244-.57669.07806-.0196.16992-.08227.2399-.02154.01905.01657-.0421.13583-.077.20236-.28379.54053-.58567,1.07223-.851,1.6216a1.71324,1.71324,0,0,1-1.06395.9284c-.14411.04693-.36075.08033-.40306.18-.05976.14079.17123.23631.22817.38262.01021.02651.0236.05149.03554.07716l.03858.06005.0147.0599a1.33328,1.33328,0,0,0-1.09369.11913c-.21775.12768-.495.18234-.58015.47275l-.08855.13058-.065-.03947a2.32652,2.32652,0,0,0-.34011,1.09445l-.18407,1.02765A1.29424,1.29424,0,0,0,16,10.36744V5.917A6.21685,6.21685,0,0,1,17.0683,6.19943Z"/><path class="aa" d="M18.61957,26.14189a8.70017,8.70017,0,0,1-1.01928.69013,13.40962,13.40962,0,0,1-.6227,3.9314c-.0248.07458-.10687.17269-.01085.26291l.96049-.04654c.05613-.15924.01411-.4264.14033-.46393.143-.04251.16637.23022.27721.33826.02528.02463.03939.07865.08175.05614.02161-.01148.02889-.06236.031-.09615.01823-.29381.042-.58759.04875-.88174.02525-1.10321.04316-2.20659.06795-3.30982C18.57782,26.46207,18.60389,26.3021,18.61957,26.14189Z"/><path class="c" d="M16.48622,10.91266c.11284-.1049.19193-.21588.07453-.36716l.18407-1.02765a1.6893,1.6893,0,0,1,.493-.356c.19235.12906.33431.03547.46558-.10546.18821-.09966.24094-.30146.34832-.46185.03058.019.05929.05024.092.05521.29277.04389.36123.13693.29574.4279-.08883.39422-.1829.78733-.27462,1.181-.06177.05521-.0724.11125-.00255.16853q-.17154.31989-.34308.6395a.97014.97014,0,0,0-.14659.13017A1.95017,1.95017,0,0,1,16,11.91312v-.7324A1.6994,1.6994,0,0,0,16.48622,10.91266Z"/><path class="aa" d="M20.46656,25.17655a3.71692,3.71692,0,0,1-.85839.51,7.88221,7.88221,0,0,1-.32216,1.7269,3.98968,3.98968,0,0,0-.12773,1.5486c.06364-.14774.14-.04726.21444-.01172.20507.098.42191.20491.6391.07437.16585-.09969.17518.00669.21158.108.02155-.36627.04159-.73265.06617-1.09872.004-.05948-.03744-.1507.04269-.17111.06722-.01712.10443.06832.143.118.11559.14885.22579.30188.33807.45334l.06005-.04917c-.12345-.62126-.32757-1.22322-.43035-1.85019C20.36811,26.07783,20.51686,25.63,20.46656,25.17655Z"/><path class="ab" d="M21.04823.73922c.03267-.31185-.25883-.23951-.40385-.34078a3.39151,3.39151,0,0,1-.1439.75376.07279.07279,0,0,1,.02049.044l.00223.00179.11224.05744.00073.0004.05792.05634L20.694,1.312a.09869.09869,0,0,1,.04558.1121l.00084.06265a.10176.10176,0,0,1-.04361.11688l.00177-.0027-.06176.054-.01894.01114-.02164-.00385a.05492.05492,0,0,1-.08943-.00069l-.102-.01523-.08078-.04086-.008.00342-.07.05854c.01132.05492.02453.10954.03358.16483.02293.14.06227.28461-.06946.39663-.12671.10777-.24959.03488-.37226-.01271-.07666.04736-.13828.16886-.23762.11508-.11132-.06026-.04436-.18663-.04044-.28368a2.59134,2.59134,0,0,1,.03995-.27912c-.14646.11506-.28563.2599-.49427.121q-.19054.75084-.381,1.5014c.003.21669.12713.47879-.21161.56862-.04056.03749-.07479.09214-.12266.10977a1.23027,1.23027,0,0,0-.76527.86045c.14.07555.32276.10847.32327.3234.03866.02162.08466.065.10435-.01449a.7638.7638,0,0,1,.37683-.47384.99263.99263,0,0,1,.55872-.31221q.90754-.22645,1.81483-.454c-.10059-.14473.07671-.32049-.05158-.46213L19.44307,3.77a1.57591,1.57591,0,0,0-.14711.08379c-.09821.0701-.20121.13362-.29129.00355a.23456.23456,0,0,1,.05229-.3085c.07571-.081.16456-.14972.24762-.22384a3.36525,3.36525,0,0,1,.59735-.60828,2.5827,2.5827,0,0,1,.37881-.34734A1.881,1.881,0,0,0,21.04823.73922Z"/><path class="ac" d="M20.2234,29.13266c-.0364-.10126-.04573-.20764-.21158-.108-.21719.13054-.434.0236-.6391-.07437-.07442-.03554-.1508-.136-.21444.01172-.03441.26262-.05984.527-.10691.78747-.02495.13807.00312.20206.1426.24826a1.22916,1.22916,0,0,0,.93842.01389.20862.20862,0,0,0,.14921-.257C20.25273,29.54868,20.24189,29.34014,20.2234,29.13266Z"/><path class="ad" d="M18.05171,8.5945c.03057.019.0593.05029.092.05521.29274.044.36121.137.2957.428-.08878.39428-.18283.78737-.27458,1.181l.05241.0538a11.24092,11.24092,0,0,0,.74617-2.24373.36409.36409,0,0,0-.05105-.32838,1.333,1.333,0,0,0-1.0936.11914c.28442-.06771.348.081.31079.32135C18.10811,8.31944,18.078,8.45667,18.05171,8.5945Z"/><path class="ac" d="M17.92723,30.97979l-.96049.04654a2.406,2.406,0,0,1-.068.44987c-.11533.33338.056.43228.33883.479a1.4705,1.4705,0,0,0,.36575.04281c.36085-.03074.41251-.09038.382-.45065C17.96938,31.35785,17.94683,31.169,17.92723,30.97979Z"/><path class="ae" d="M18.42946,4.76481a.7638.7638,0,0,0-.37683.47384c-.01969.07945-.06569.03611-.10437.01453l-.06488.18964c.21684-.10565.35764-.01856.45472.17937l.0505-.06557.07479-.05137a1.01336,1.01336,0,0,0,.22333-.34232q-.09007-.16815-.18028-.33626Z"/><path class="c" d="M20.75143,3.53648c.12829.14164-.049.3174.05158.46213.163-.02051.19415-.15727.24449-.27714C21.05289,3.49323,20.95917,3.42361,20.75143,3.53648Z"/><path class="g" d="M18.21724,10.31248l-.05241-.0538c-.06178.05527-.07243.11131-.00254.16853Z"/><path class="h" d="M20.87338,28.385l-.06005.04917c.01729.04066.03331.10726.0883.06905C20.94558,28.47266,20.912,28.41859,20.87338,28.385Z"/><path class="i" d="M18.85908,7.62047l.03856.06Z"/><path class="ae" d="M19.10552,1.8895c.20864.13888.34781-.006.49428-.121L19.662,1.6011l.00027-.06149a.34081.34081,0,0,1,.06143-.49777L19.72523.8931,19.65437.68033C19.5477.55521,19.321.72418,19.24874.51468a.08038.08038,0,0,0-.02883.00409c-.09039.23-.20613.46144.037.67312l.05241.04973-.02719.02783-.02788-.07293C19.12963,1.4114,18.89739,1.60318,19.10552,1.8895Z"/><path class="ae" d="M17.88338,5.44282l.06488-.18964c-.00049-.215-.18322-.24789-.32325-.32344a.35843.35843,0,0,0-.24957.553c.27067.09161.13217.17343-.00605.25526a.18182.18182,0,0,1-.12183.10443l.003-.00269-.01058.18171a.34.34,0,0,0,.29326.29217.56253.56253,0,0,0,.35139-.35062l.0001-.06749A.36231.36231,0,0,1,17.88338,5.44282Z"/><path class="ae" d="M20.74041,1.48678l-.00083-.06265L20.694,1.312l.0001.00018-.05792-.05634-.00073-.0004A.12224.12224,0,0,1,20.5232,1.198L20.521,1.19625l-.06287-.00206-.16253.00952-.11835.05164-.00422.00334-.05679.05453a.05863.05863,0,0,0-.00037.04438.12236.12236,0,0,1-.05256.12615l-.00091.00131c-.0604.19981-.22263.08248-.33875.10875l-.00518.00554a2.03272,2.03272,0,0,0,.11945.61685c.12267.04759.24555.12048.37226.01271.13173-.112.09239-.25659.06946-.39663-.00905-.05529-.02226-.10991-.03358-.16484l-.01442-.01481-.05791-.05318-.01765-.03682c.04757-.02671.07164.01377.102.03714l.058.00914.0081-.0034.08067.04084.102.01521.08935.00071.02164.00385.01894-.01113.06176-.054-.00178.00268Z"/><path class="ae" d="M19.72523.8931l-.00151.14865c.20132-.05685.29958.07127.38834.21644l.0609.00052.00427-.00336a.1056.1056,0,0,1,.06461-.10964A1.95623,1.95623,0,0,0,20.406.91513a.26446.26446,0,0,0-.13716-.38171c-.159-.08828-.25622.00193-.35439.13226C19.85667.74244,19.923.93484,19.72523.8931Z"/><path class="ae" d="M18.51294,3.95952c.33874-.08983.21457-.35193.21161-.56862-.13542-.01851-.27241-.09088-.39939.033a.38728.38728,0,0,0-.09443.36733C18.2566,3.95246,18.385,3.9599,18.51294,3.95952Z"/><path class="ab" d="M19.24874.51468c.07222.2095.299.04053.40563.16565C19.6439.489,19.715.29152,19.61085.10727a.18042.18042,0,0,1-.17907.15662C19.24553.26781,19.25451.39154,19.24874.51468Z"/><path class="c" d="M19.24874.51468c.00577-.12314-.00321-.24687.183-.25079a.18042.18042,0,0,0,.17907-.15662c-.10476-.095-.25309-.15243-.34911-.06177-.12987.12264-.05071.3113-.04184.47314A.08335.08335,0,0,1,19.24874.51468Z"/><path class="ab" d="M17.24,6.02148l.0105-.18164a.18484.18484,0,0,0,.11889-.10192c.13825-.08179.27674-.1637.00605-.25525l-.06885.18652a.17185.17185,0,0,0-.059.1731l.00226-.002c-.0774.03455-.07508.11414-.1.17822l-.08136.18067c-.03015.227.17975.231.2995.28674.11389.0531.11853-.1029.16528-.17248A.33966.33966,0,0,1,17.24,6.02148Z"/><path class="j" d="M20.24184,1.14571a.1056.1056,0,0,0-.06461.10964l.11835-.05164Z"/><path class="k" d="M20.45811,1.19419l.06287.00206a.07286.07286,0,0,0-.0205-.04405Z"/><path class="c" d="M19.30458,3.325c-.08306.07412-.17191.14284-.24762.22384a.23456.23456,0,0,0-.05229.3085c.09008.13007.19308.06655.29129-.00355A1.57591,1.57591,0,0,1,19.44307,3.77a.21451.21451,0,0,1,.0169-.02264c.11886-.12274.36942-.20976.29656-.39712C19.67337,3.13635,19.45786,3.38877,19.30458,3.325Z"/><path class="af" d="M16.56075,10.5455c.1174.15128.03831.26226-.07453.36716A1.6994,1.6994,0,0,1,16,11.18072v-.81328A1.29424,1.29424,0,0,1,16.56075,10.5455Z"/><path class="ae" d="M18.42124,16.50231a1.05413,1.05413,0,0,0,.43115.76648c.20575.15307.45572-.01464.44534-.30526a.92.92,0,0,0-.391-.69683.31971.31971,0,0,0-.35144-.00672C18.44524,16.31508,18.44174,16.42527,18.42124,16.50231Z"/><path class="ad" d="M17.082,20.58423l.05518-.10388.05883.05407q-.002.57-.004,1.1399c-.17273-.09693-.3432-.19812-.51886-.28943-.14008-.07288-.16217-.15918-.07807-.29407A2.05652,2.05652,0,0,1,17.082,20.58423Z"/><path class="ae" d="M19.60224,17.903c.00181.122.03168.23651.17357.24471a.14.14,0,0,0,.1466-.16826c-.01781-.116-.03233-.25943-.19956-.26025C19.605,17.71864,19.60328,17.81543,19.60224,17.903Z"/><path class="l" d="M18.748,21.04062l-.06517.06532c.02473.02776.05676.05534.08871.02332S18.7758,21.06529,18.748,21.04062Z"/><path class="m" d="M17.082,20.58421l.05516-.10383C17.08007,20.49447,17.08488,20.54139,17.082,20.58421Z"/><path class="o" d="M18.05171,8.5945c.02624-.13783.0564-.27506.07784-.41364.03719-.2403-.02637-.38906-.31079-.32135-.21788.12774-.49517.18241-.5801.47258a.24663.24663,0,0,1,.3555-.00306l.04057.04085.03117.05256c.03746.00555.04354.03009.0375.062a.67438.67438,0,0,1,0,.572C17.89155,8.9568,17.94434,8.75507,18.05171,8.5945Z"/><path class="p" d="M17.6659,8.42244l-.03117-.05256L17.59416,8.329a.24663.24663,0,0,0-.3555.00306l-.08881.13093-.01662.0166-.04431.11762a.70353.70353,0,0,0,.14885.56458c.19241.12915.33437.03553.46561-.10541a.67433.67433,0,0,0,0-.572l-.06089-.00013c.011.09108.00169.17079-.11742.167a.094.094,0,0,1-.09086-.08779c-.00958-.11053.05806-.14287.156-.13481Z"/><path class="ae" d="M18.45732,6.591c.1417-.22444.03437-.42767-.05388-.63253l-.063-.05783-.05705-.05967a.498.498,0,0,1-.39871.05451l-.0001.06751c.0704.04009.05543.10651.0523.16929.01933.07366.03622.148.05838.22081C18.07872,6.62723,18.17673,6.67709,18.45732,6.591Z"/><path class="ad" d="M17.23777,9.16182a.70359.70359,0,0,1-.14888-.56453l.00058-.11706a.18429.18429,0,0,1-.00452-.0569,2.32721,2.32721,0,0,0-.34016,1.09452A1.69012,1.69012,0,0,1,17.23777,9.16182Z"/><path class="q" d="M17.085,8.42333a.18529.18529,0,0,0,.00449.05691l.04379-.00062.01662-.0166Z"/><path class="k" d="M20.74041,1.48678l-.04362.11686A.10172.10172,0,0,0,20.74041,1.48678Z"/><path class="k" d="M20.694,1.312l.04559.1121A.09871.09871,0,0,0,20.694,1.312Z"/><path class="k" d="M20.5232,1.198a.12224.12224,0,0,0,.11224.05744Z"/><path class="k" d="M20.59623,1.66227l-.08935-.00071A.05483.05483,0,0,0,20.59623,1.66227Z"/><path class="k" d="M20.63617,1.25587l.05792.05634Z"/><path class="k" d="M20.69857,1.601l-.06176.054Z"/><path class="k" d="M20.40484,1.64635l-.08067-.04084Z"/><path class="k" d="M20.31607,1.60891l-.058-.00914-.01428.00326-.01411-.00394a.05789.05789,0,0,1,.002.05354l.01442.01481Z"/><path class="ae" d="M18.2834,5.84094l.05706.05967a.13112.13112,0,0,1,.11864.05565c.06252.02139.12417.04591.18773.06354.15286.04241.29475.0424.32107-.15782a.243.243,0,0,0-.25194-.30387,1.98128,1.98128,0,0,0-.19865.00466c-.04515.045-.08864.05526-.12871-.00615l-.05047.06553Z"/><path class="r" d="M18.2834,5.84094l.05473-.21879c-.09711-.19789-.23791-.285-.45475-.17933a.36231.36231,0,0,0,.00131.45265A.49807.49807,0,0,0,18.2834,5.84094Z"/><path class="ae" d="M18.3886,5.55662c.04007.06141.08356.05115.12871.00615l-.05393-.05752Z"/><path class="s" d="M20.11206,1.25819c-.08876-.14517-.187-.27329-.38834-.21644a.341.341,0,0,0-.06144.49792l.05675.01847a.605.605,0,0,0,.34334-.07307l.00092-.00131.05256-.12616a.05857.05857,0,0,1,.00039-.04439A.12831.12831,0,0,1,20.11206,1.25819Z"/><path class="ag" d="M19.25429,1.19652l.02788.07293.02719-.02783L19.257,1.19189Z"/><path class="t" d="M19.719,1.55814l-.05675-.01847L19.662,1.6011l.02812-.004.0283.0023.00515-.00551A.23636.23636,0,0,1,19.719,1.55814Z"/><path class="k" d="M19.719,1.55814a.23636.23636,0,0,0,.00458.0357c.11614-.0263.27837.091.33877-.10878A.60492.60492,0,0,1,19.719,1.55814Z"/><path class="k" d="M20.11585,1.3576l-.05256.12616A.12238.12238,0,0,0,20.11585,1.3576Z"/><path class="u" d="M20.258,1.59977c-.03034-.02337-.05441-.06385-.102-.03714l.0177.03681a.50094.50094,0,0,0,.05589-.00035l.01411.00394Z"/><path class="k" d="M20.11206,1.25819a.12831.12831,0,0,0,.00418.055l.05677-.05452Z"/><path class="v" d="M20.22965,1.59909a.50094.50094,0,0,1-.05589.00035l.05786.05319A.05789.05789,0,0,0,20.22965,1.59909Z"/><path class="ab" d="M20.34326,4.67725c-.01935-.02173-.105.0083-.15741.02441q-.75009.22889-1.49914.46118a1.01324,1.01324,0,0,1-.22333.34241l.054.05749a1.96289,1.96289,0,0,1,.19861-.00463.24292.24292,0,0,1,.252.30383c-.02631.20032-.16822.20032-.321.15784-.0636-.01758-.12524-.04212-.18774-.06348a.13089.13089,0,0,0-.11866-.05567l.063.05787c.08826.20483.19556.408.0539.63244-.28064.08606-.3786.03626-.4621-.23791-.02216-.07276-.039-.14722-.05835-.22071-.25861.38685-.25122.4198.06665.614.19177.11706.314-.01489.45331-.09986h0A2.02242,2.02242,0,0,0,19.84,5.64014c.14154-.26917.30719-.52564.45691-.79065C20.32642,4.79712,20.39661,4.7373,20.34326,4.67725Z"/><path class="w" d="M17.6659,8.42244l-.07563.0062.05224.05563.06089.00013C17.70944,8.45253,17.70336,8.428,17.6659,8.42244Z"/><path class="w" d="M17.59416,8.329l.04057.04085Z"/><path class="x" d="M17.64251,8.48427l-.05224-.05563c-.098-.00806-.16562.02428-.156.13481a.094.094,0,0,0,.09086.08779C17.6442,8.65506,17.65349,8.57535,17.64251,8.48427Z"/><path class="y" d="M17.13323,8.47962l-.04379.00062-.00055.117Z"/></svg>