<svg xmlns="http://www.w3.org/2000/svg" viewBox="0 0 32 32"><title>586-sawsbuck-autumn-shiny</title><path d="M31.61676.35742a6.3612,6.3612,0,0,0-2.26019.36035A.98173.98173,0,0,0,29.73608,0a6.15044,6.15044,0,0,0-1.76794.636.89051.89051,0,0,0,.18848-.49536,6.20605,6.20605,0,0,0-1.882.69775A.92983.92983,0,0,0,26.56506.207a6.31032,6.31032,0,0,0-2.05774.79273.963.963,0,0,0,.15216-.76538A6.08347,6.08347,0,0,0,23.267,1.186a1.00564,1.00564,0,0,0-.16248-.83545,6.07243,6.07243,0,0,0-.85315,1.396A1.25813,1.25813,0,0,0,21.85858.55737a5.708,5.708,0,0,0-.35773,1.11841A1.15319,1.15319,0,0,0,20.9422.73169a5.38186,5.38186,0,0,0-.13916.75415,1.15115,1.15115,0,0,0-.88757-.63892,5.48676,5.48676,0,0,0,.22155.88318c-.34051-.56164-.642-.85388-1.07336-.86487a5.64369,5.64369,0,0,0,.32129,1.051,6.05861,6.05861,0,0,0-1.39807-.75562c-.06073.42005.16668.76136.64593,1.1814a6.10532,6.10532,0,0,0-1.6571-.5603c.01636.386.24664.662.70105.953a5.85466,5.85466,0,0,0-1.28711-.39392c.01691.39941.26324.68152.74975.98389A5.67838,5.67838,0,0,0,16,3.37305c.157.40771.54181.59277,1.20007.72509a5.89258,5.89258,0,0,0-1.18744.72486c.3487.28259.78956.24145,1.45667.011a5.67077,5.67077,0,0,0-.77576.80957c.43653.20582.884.0271,1.55261-.4248.73926.51526,1.20655.719,1.66932.501a5.61713,5.61713,0,0,0-.7392-.778h.03931c.75207.52674,1.22235.7345,1.68969.51428a5.44447,5.44447,0,0,0-.57275-.63354l.01025-.004c.75452.52893,1.22528.73718,1.69348.51673a5.6158,5.6158,0,0,0-.738-.77686L21.316,4.5564c.73993.516,1.2074.71985,1.67041.50171a5.44377,5.44377,0,0,0-.57452-.63514l.02887-.00427c.74377.51929,1.21215.72437,1.67657.50562a5.30545,5.30545,0,0,0-.46332-.522c.69324.474,1.14838.662,1.59424.45191a5.325,5.325,0,0,0-.47961-.54029c.70294.48292,1.161.67432,1.61053.46265a5.48836,5.48836,0,0,0-.61224-.668c.72687.5044,1.19116.70386,1.64947.488a5.68664,5.68664,0,0,0-.79394-.82544l.012-.00439c.78461.50195,1.26569.69165,1.72638.44958a5.64571,5.64571,0,0,0-.80139-.76794l.02222-.0066.01788.03443c.80676.48413,1.29486.66174,1.75067.40478a5.18489,5.18489,0,0,0-.38074-.3706,1.21574,1.21574,0,0,0,1.09925-.491,5.198,5.198,0,0,0-.53192-.146c.6394-.17005,1.0072-.37745,1.139-.79029a5.24664,5.24664,0,0,0-.61621-.0144c.68585-.24512,1.06525-.49134,1.16-.938a5.20821,5.20821,0,0,0-.561.043C31.20947.976,31.51721.74963,31.61676.35742Z" style="fill:#338c5d"/><path d="M17.20172,20.53442l-.004,1.13977.00006.00013Q17.19969,21.10448,17.20172,20.53442Z" style="fill:#b57135"/><path d="M17.19769,21.67444a2.12636,2.12636,0,0,0,.004-1.14l-.3551.34082a9.57044,9.57044,0,0,1-.84088-3.71337v5.99584a8.05085,8.05085,0,0,0,1.30853-.21972Q17.256,22.30628,17.19769,21.67444Z" style="fill:#f0c877"/><path d="M17.074,6.19943c-.03.22692.17986.23065.2996.28655.11388.053.11857-.10283.1653-.1724a9.66863,9.66863,0,0,1,.97326-1.487.65591.65591,0,0,1,.18027.33639c-.2586.3869-1.00108,1.38915-.68319,1.58336.19179.117.31395-.01477.4533-.0998a2.02239,2.02239,0,0,0,1.38314-1.00639c.14156-.26916.30719-.52562.45689-.79064.02954-.05232.09973-.11209.04638-.17227-.01933-.02167-.105.00842-.15743.02443q-.75.22879-1.49909.46131-.09008-.16833-.18027-.33639c.74765-.19324,1.49488-.38869,2.244-.57669.07806-.0196.16992-.08227.2399-.02154.01905.01657-.0421.13583-.077.20236-.2838.54053-.58567,1.07223-.851,1.6216a1.71321,1.71321,0,0,1-1.06395.9284c-.1441.04693-.36074.08033-.40305.18-.05977.14079.17123.23631.22817.38262.01021.02651.0236.05149.03554.07716l.03858.06005.0147.0599a1.33328,1.33328,0,0,0-1.09369.11913c-.21775.12768-.49506.18234-.58015.47275l-.08855.13058-.065-.03947a2.3264,2.3264,0,0,0-.34011,1.09445l-.18407,1.02765a1.29429,1.29429,0,0,0-.56075-.17806V5.917A6.217,6.217,0,0,1,17.074,6.19943Z" style="fill:#776151"/><path d="M18.62528,26.14189A8.70017,8.70017,0,0,1,17.606,26.832a13.40928,13.40928,0,0,1-.62269,3.9314c-.02481.07458-.10687.17269-.01085.26291l.96049-.04654c.05612-.15924.01411-.4264.14033-.46393.143-.04251.16636.23022.27721.33826.02528.02463.03939.07865.08175.05614.02161-.01148.02889-.06236.031-.09615.01824-.29381.042-.58759.04876-.88174.02525-1.10321.04316-2.20659.06795-3.30982C18.58354,26.46207,18.60961,26.3021,18.62528,26.14189Z" style="fill:#f0c877"/><path d="M16.49193,10.91266c.11285-.1049.19194-.21588.07454-.36716l.18407-1.02765a1.68916,1.68916,0,0,1,.493-.356c.19235.12906.33431.03547.46558-.10546.18821-.09966.24093-.30146.34832-.46185.03058.019.05929.05024.092.05521.29277.04389.36123.13693.29573.4279-.08882.39422-.18289.78733-.27461,1.181-.06177.05521-.0724.11125-.00255.16853q-.17154.31989-.34308.6395a.97014.97014,0,0,0-.14659.13017,1.95018,1.95018,0,0,1-1.6726.71625v-.7324A1.69922,1.69922,0,0,0,16.49193,10.91266Z" style="fill:#f7d684"/><path d="M20.47228,25.17655a3.71719,3.71719,0,0,1-.8584.51,7.8822,7.8822,0,0,1-.32215,1.7269,3.98968,3.98968,0,0,0-.12774,1.5486c.06365-.14774.14-.04726.21445-.01172.20507.098.42191.20491.63909.07437.16585-.09969.17518.00669.21159.108.02155-.36627.04158-.73265.06617-1.09872.004-.05948-.03744-.1507.04269-.17111.06722-.01712.10442.06832.143.118.1156.14885.2258.30188.33808.45334l.06005-.04917c-.12345-.62126-.32757-1.22322-.43036-1.85019C20.37383,26.07783,20.52258,25.63,20.47228,25.17655Z" style="fill:#f0c877"/><path d="M20.22912,29.13266c-.03641-.10126-.04574-.20764-.21159-.108-.21718.13054-.434.0236-.63909-.07437-.07443-.03554-.1508-.136-.21445.01172-.0344.26262-.05984.527-.1069.78747-.025.13807.00312.20206.1426.24826a1.22916,1.22916,0,0,0,.93842.01389.20863.20863,0,0,0,.14921-.257C20.25845,29.54868,20.24761,29.34014,20.22912,29.13266Z" style="fill:#3a3333"/><path d="M18.05743,8.5945c.03057.019.0593.05029.092.05521.29274.044.36121.137.29569.428-.08877.39428-.18282.78737-.27457,1.181l.05241.0538a11.24089,11.24089,0,0,0,.74616-2.24373.36406.36406,0,0,0-.05105-.32838,1.333,1.333,0,0,0-1.09359.11914c.28442-.06771.348.081.31079.32135C18.11383,8.31944,18.08367,8.45667,18.05743,8.5945Z" style="fill:#f7c845"/><path d="M17.933,30.97979l-.96049.04654a2.40515,2.40515,0,0,1-.068.44987c-.11532.33338.056.43228.33884.479a1.47036,1.47036,0,0,0,.36574.04281c.36086-.03074.41252-.09038.38206-.45065C17.97509,31.35785,17.95255,31.169,17.933,30.97979Z" style="fill:#3a3333"/><path d="M20.75714,3.53648c.12829.14164-.049.3174.05159.46213.163-.02051.19415-.15727.24449-.27714C21.05861,3.49323,20.96489,3.42361,20.75714,3.53648Z" style="fill:#f7d684"/><path d="M18.223,10.31248l-.05241-.0538c-.06179.05527-.07243.11131-.00254.16853Z" style="fill:#e0ca59"/><path d="M20.8791,28.385l-.06005.04917c.01729.04066.03331.10726.08829.06905C20.9513,28.47266,20.91768,28.41859,20.8791,28.385Z" style="fill:#f5efd9"/><path d="M18.8648,7.62047l.03856.06Z" style="fill:#c48c49"/><path d="M20.75712,3.53638,19.44877,3.77l-.40741.11572-.64538.1836a1.23,1.23,0,0,0-.76526.86035l.00018.00012-.00018-.00012c-.0271.0603-.52942,1.20923-.55658,1.26953-.03015.227.17975.231.2995.28674.11389.0531.11853-.1029.16528-.17248.06372-.364.491-.86841.51941-1.07483a.76407.76407,0,0,1,.37683-.47388.9918.9918,0,0,1,.55872-.31213q.90756-.2265,1.81488-.4541C20.70811,3.85388,20.88542,3.6781,20.75712,3.53638Z" style="fill:#4f4032"/><path d="M16.56647,10.5455c.1174.15128.03831.26226-.07454.36716a1.69922,1.69922,0,0,1-.48621.26806v-.81328A1.29429,1.29429,0,0,1,16.56647,10.5455Z" style="fill:#51321b"/><path d="M18.427,16.50231a1.05415,1.05415,0,0,0,.43116.76648c.20575.15307.45572-.01464.44534-.30526a.92.92,0,0,0-.391-.69683A.31971.31971,0,0,0,18.561,16.26C18.451,16.31508,18.44746,16.42527,18.427,16.50231Z" style="fill:#338c5d"/><path d="M19.608,17.903c.00182.122.03169.23651.17358.24471a.14.14,0,0,0,.1466-.16826c-.01781-.116-.03234-.25943-.19956-.26025C19.61071,17.71864,19.609,17.81543,19.608,17.903Z" style="fill:#338c5d"/><path d="M20.1839,18.25537a4.56616,4.56616,0,0,0-1.21063-2.39282A3.75165,3.75165,0,0,1,17.889,13.184c-.04541-.70544-.06549-1.41077-.064-2.11731a.973.973,0,0,0-.14661.13013,1.94988,1.94988,0,0,1-1.6726.71631v4.26416a16.629,16.629,0,0,0,1.196,4.35717q-.002.57-.004,1.1399l-.00006-.00013v.00025q.05832.63171.11658,1.26355a8.91,8.91,0,0,1,.32,2.89844c-.01618.33154-.01923.66357-.02826.9956a8.67479,8.67479,0,0,0,1.01929-.69018,19.57209,19.57209,0,0,1,.56732-2.47925c.01422-.04932.00012-.13379.07165-.13635.077-.00306.05786.08361.07318.13146a5.37247,5.37247,0,0,1,.27643,2.02881,3.71832,3.71832,0,0,0,.8584-.51,6.52811,6.52811,0,0,0,.08258-1.16919A21.97813,21.97813,0,0,0,20.1839,18.25537ZM18.6886,21.106l.00641.00525L18.6886,21.106Zm.09259.00586a.06609.06609,0,0,0-.02747-.07129l-.02166.02173.02166-.02173A.06589.06589,0,0,1,18.78119,21.11182Zm.0769-3.843a1.05477,1.05477,0,0,1-.43115-.7666c.02051-.07691.02405-.18714.134-.24219a.3196.3196,0,0,1,.35144.00659.9203.9203,0,0,1,.39106.69678C19.3139,17.25415,19.0639,17.42188,18.85809,17.2688Zm.92347.87891c-.14191-.00831-.17176-.12281-.17347-.24488.00092-.0874.00263-.18432.12049-.18359.16723.00085.18176.14416.19952.26A.13991.13991,0,0,1,19.78156,18.14771Z" style="fill:#776151"/><path d="M18.05743,8.5945c.02624-.13783.0564-.27506.07784-.41364.03719-.2403-.02637-.38906-.31079-.32135-.21789.12774-.49517.18241-.5801.47258a.24662.24662,0,0,1,.35549-.00306l.04058.04085.03117.05256c.03746.00555.04354.03009.03749.062a.67434.67434,0,0,1,0,.572C17.89727,8.9568,17.95005,8.75507,18.05743,8.5945Z" style="fill:#fcfcfa"/><path d="M17.67162,8.42244l-.03117-.05256L17.59987,8.329a.24662.24662,0,0,0-.35549.00306l-.08881.13093-.01663.0166-.04431.11762a.70353.70353,0,0,0,.14886.56458c.19241.12915.33437.03553.46561-.10541a.67437.67437,0,0,0,0-.572l-.06089-.00013c.011.09108.00168.17079-.11742.167A.094.094,0,0,1,17.44,8.56345c-.00958-.11053.05806-.14287.156-.13481Z" style="fill:#251e1b"/><path d="M17.24349,9.16182a.7036.7036,0,0,1-.14889-.56453l.00058-.11706a.18459.18459,0,0,1-.00451-.0569,2.32734,2.32734,0,0,0-.34017,1.09452A1.69016,1.69016,0,0,1,17.24349,9.16182Z" style="fill:#f7c845"/><path d="M17.09067,8.42333a.18529.18529,0,0,0,.00449.05691l.04378-.00062.01663-.0166Z" style="fill:#e4dcad"/><path d="M20.349,4.67725c-.01935-.02173-.105.0083-.15741.02441q-.75009.22889-1.49915.46118a9.573,9.573,0,0,0-.74981.96948c-.25861.38685-.25122.4198.06665.614.19177.11706.314-.01489.45331-.09986h0a2.02238,2.02238,0,0,0,1.38311-1.00634c.14154-.26917.30719-.52564.45691-.79065C20.33213,4.79712,20.40232,4.7373,20.349,4.67725Z" style="fill:#4f4032"/><path d="M17.67162,8.42244l-.07563.0062.05224.05563.06089.00013C17.71516,8.45253,17.70908,8.428,17.67162,8.42244Z" style="fill:#4c4744"/><path d="M17.59987,8.329l.04058.04085Z" style="fill:#4c4744"/><path d="M17.64823,8.48427,17.596,8.42864c-.098-.00806-.16562.02428-.156.13481a.094.094,0,0,0,.09086.08779C17.64991,8.65506,17.65921,8.57535,17.64823,8.48427Z" style="fill:#dfdedd"/><path d="M17.13894,8.47962l-.04378.00062-.00056.117Z" style="fill:#b3afa4"/><path d="M16.00562,16.20081l-.00013.33129a18.41165,18.41165,0,0,0,1.07764,3.84681A20.07127,20.07127,0,0,1,16.00562,16.20081Z" style="fill:#f7c845"/><path d="M17.2016,20.558a.35848.35848,0,0,1-.05658-.07055q-.00192.54784-.00378,1.09558c.02075.03711.03509.07824.05639.11487Q17.19955,21.128,17.2016,20.558Z" style="fill:#f7c845"/><path d="M17.08313,20.37891a18.41165,18.41165,0,0,1-1.07764-3.84681c-.00012.214-.00024.47522-.00024.64759a9.09527,9.09527,0,0,0,1.136,4.40332q.00183-.54767.00378-1.09558A1.06113,1.06113,0,0,1,17.08313,20.37891Z" style="fill:#f7c845"/><path d="M.38324.35742A6.3612,6.3612,0,0,1,2.64343.71777.98173.98173,0,0,1,2.26392,0,6.15015,6.15015,0,0,1,4.03186.636.89051.89051,0,0,1,3.84338.14062a6.20633,6.20633,0,0,1,1.882.69776A.92983.92983,0,0,1,5.43494.207,6.31032,6.31032,0,0,1,7.49268.99976.96306.96306,0,0,1,7.34052.23437,6.08382,6.08382,0,0,1,8.733,1.186,1.00564,1.00564,0,0,1,8.89545.35059a6.07243,6.07243,0,0,1,.85315,1.396A1.25813,1.25813,0,0,1,10.14142.55737a5.708,5.708,0,0,1,.35773,1.11841A1.15319,1.15319,0,0,1,11.0578.73169a5.38186,5.38186,0,0,1,.13916.75415,1.15115,1.15115,0,0,1,.88757-.63892,5.48676,5.48676,0,0,1-.22155.88318c.34051-.56164.642-.85388,1.07336-.86487a5.64369,5.64369,0,0,1-.32129,1.051,6.05861,6.05861,0,0,1,1.39807-.75562c.06073.42005-.16668.76136-.64593,1.1814a6.10532,6.10532,0,0,1,1.6571-.5603c-.01636.386-.24664.662-.70105.953a5.85466,5.85466,0,0,1,1.28711-.39392c-.01691.39941-.26324.68152-.74975.98389A5.67838,5.67838,0,0,1,16,3.37305c-.157.40771-.54181.59277-1.20007.72509a5.89258,5.89258,0,0,1,1.18744.72486c-.3487.28259-.78956.24145-1.45667.011a5.67077,5.67077,0,0,1,.77576.80957c-.43653.20582-.884.0271-1.55261-.4248-.73926.51526-1.20655.719-1.66932.501a5.61713,5.61713,0,0,1,.7392-.778h-.03931c-.75207.52674-1.22235.7345-1.68969.51428a5.44447,5.44447,0,0,1,.57275-.63354l-.01025-.004c-.75452.52893-1.22528.73718-1.69348.51673a5.6158,5.6158,0,0,1,.738-.77686L10.684,4.5564c-.73993.516-1.2074.71985-1.67041.50171A5.44377,5.44377,0,0,1,9.58807,4.423L9.5592,4.4187c-.74377.51929-1.21215.72437-1.67657.50562a5.30545,5.30545,0,0,1,.46332-.522c-.69324.474-1.14838.662-1.59424.45191A5.325,5.325,0,0,1,7.23132,4.314c-.70294.48291-1.161.67432-1.61053.46265a5.48836,5.48836,0,0,1,.61224-.668c-.72687.5044-1.19116.70386-1.64947.488a5.68664,5.68664,0,0,1,.79394-.82544l-.012-.00439c-.78461.50195-1.26569.69165-1.72638.44958a5.64571,5.64571,0,0,1,.80139-.76794l-.02222-.0066-.01788.03443c-.80676.48413-1.29486.66174-1.75067.40478a5.18489,5.18489,0,0,1,.38074-.3706,1.21574,1.21574,0,0,1-1.09925-.491,5.198,5.198,0,0,1,.53192-.146c-.6394-.17005-1.0072-.37745-1.139-.79029a5.24664,5.24664,0,0,1,.61621-.0144c-.68585-.24512-1.06525-.49134-1.16-.938a5.20821,5.20821,0,0,1,.561.043C.79053.976.48279.74963.38324.35742Z" style="fill:#349363"/><path d="M14.79828,20.53442l.004,1.13977-.00006.00013Q14.80032,21.10448,14.79828,20.53442Z" style="fill:#b57135"/><path d="M14.80231,21.67444a2.12636,2.12636,0,0,1-.004-1.14l.3551.34082a9.57044,9.57044,0,0,0,.84088-3.71337v5.99584a8.05085,8.05085,0,0,1-1.30853-.21972Q14.744,22.30628,14.80231,21.67444Z" style="fill:#f7d684"/><path d="M14.926,6.19943c.03.22692-.17986.23065-.2996.28655-.11388.053-.11857-.10283-.1653-.1724a9.66863,9.66863,0,0,0-.97326-1.487.65591.65591,0,0,0-.18027.33639c.2586.3869,1.00108,1.38915.68319,1.58336-.19179.117-.314-.01477-.4533-.0998a2.02239,2.02239,0,0,1-1.38314-1.00639c-.14156-.26916-.30719-.52562-.45689-.79064-.02954-.05232-.09973-.11209-.04638-.17227.01933-.02167.105.00842.15743.02443q.75.22879,1.49909.46131.09008-.16833.18027-.33639c-.74765-.19324-1.49488-.38869-2.24405-.57669-.07806-.0196-.16992-.08227-.2399-.02154-.01905.01657.0421.13583.077.20236.2838.54053.58567,1.07223.851,1.6216a1.71321,1.71321,0,0,0,1.06395.9284c.1441.04693.36074.08033.40305.18.05977.14079-.17123.23631-.22817.38262-.01021.02651-.0236.05149-.03554.07716l-.03858.06005-.0147.0599a1.33328,1.33328,0,0,1,1.09369.11913c.21775.12768.49506.18234.58015.47275l.08855.13058.065-.03947a2.3264,2.3264,0,0,1,.34011,1.09445l.18407,1.02765a1.29429,1.29429,0,0,1,.56075-.17806V5.917A6.217,6.217,0,0,0,14.926,6.19943Z" style="fill:#876f5d"/><path d="M13.37472,26.14189A8.70017,8.70017,0,0,0,14.394,26.832a13.40928,13.40928,0,0,0,.62269,3.9314c.02481.07458.10687.17269.01085.26291l-.96049-.04654c-.05612-.15924-.01411-.4264-.14033-.46393-.143-.04251-.16636.23022-.27721.33826-.02528.02463-.03939.07865-.08175.05614-.02161-.01148-.02889-.06236-.031-.09615-.01824-.29381-.042-.58759-.04876-.88174-.02525-1.10321-.04316-2.20659-.06795-3.30982C13.41646,26.46207,13.39039,26.3021,13.37472,26.14189Z" style="fill:#f7d684"/><path d="M15.50807,10.91266c-.11285-.1049-.19194-.21588-.07454-.36716l-.18407-1.02765a1.68916,1.68916,0,0,0-.493-.356c-.19235.12906-.33431.03547-.46558-.10546-.18821-.09966-.24093-.30146-.34832-.46185-.03058.019-.05929.05024-.092.05521-.29277.04389-.36123.13693-.29573.4279.08882.39422.18289.78733.27461,1.181.06177.05521.0724.11125.00255.16853q.17154.31989.34308.6395a.97014.97014,0,0,1,.14659.13017,1.95018,1.95018,0,0,0,1.6726.71625v-.7324A1.69922,1.69922,0,0,1,15.50807,10.91266Z" style="fill:#fae09f"/><path d="M11.52772,25.17655a3.71719,3.71719,0,0,0,.8584.51,7.8822,7.8822,0,0,0,.32215,1.7269,3.98968,3.98968,0,0,1,.12774,1.5486c-.06365-.14774-.14-.04726-.21445-.01172-.20507.098-.42191.20491-.63909.07437-.16585-.09969-.17518.00669-.21159.108-.02155-.36627-.04158-.73265-.06617-1.09872-.004-.05948.03744-.1507-.04269-.17111-.06722-.01712-.10442.06832-.143.118-.1156.14885-.2258.30188-.33808.45334l-.06-.04917c.12345-.62126.32757-1.22322.43036-1.85019C11.62617,26.07783,11.47742,25.63,11.52772,25.17655Z" style="fill:#f7d684"/><path d="M11.77088,29.13266c.03641-.10126.04574-.20764.21159-.108.21718.13054.434.0236.63909-.07437.07443-.03554.1508-.136.21445.01172.0344.26262.05984.527.1069.78747.025.13807-.00312.20206-.1426.24826a1.22916,1.22916,0,0,1-.93842.01389.20863.20863,0,0,1-.14921-.257C11.74155,29.54868,11.75239,29.34014,11.77088,29.13266Z" style="fill:#413b3b"/><path d="M13.94257,8.5945c-.03057.019-.0593.05029-.092.05521-.29274.044-.36121.137-.29569.428.08877.39428.18282.78737.27457,1.181l-.05241.0538a11.24089,11.24089,0,0,1-.74616-2.24373.36406.36406,0,0,1,.05105-.32838,1.333,1.333,0,0,1,1.09359.11914c-.28442-.06771-.348.081-.31079.32135C13.88617,8.31944,13.91633,8.45667,13.94257,8.5945Z" style="fill:#ffd04d"/><path d="M14.06705,30.97979l.96049.04654a2.40515,2.40515,0,0,0,.068.44987c.11532.33338-.056.43228-.33884.479a1.47036,1.47036,0,0,1-.36574.04281c-.36086-.03074-.41252-.09038-.38206-.45065C14.02491,31.35785,14.04745,31.169,14.06705,30.97979Z" style="fill:#413b3b"/><path d="M11.24286,3.53648c-.12829.14164.049.3174-.05159.46213-.163-.02051-.19415-.15727-.24449-.27714C10.94139,3.49323,11.03511,3.42361,11.24286,3.53648Z" style="fill:#fae09f"/><path d="M13.777,10.31248l.05241-.0538c.06179.05527.07243.11131.00254.16853Z" style="fill:#e0ca59"/><path d="M11.1209,28.385l.06.04917c-.01729.04066-.03331.10726-.08829.06905C11.0487,28.47266,11.08232,28.41859,11.1209,28.385Z" style="fill:#f5efd9"/><path d="M13.1352,7.62047l-.03856.06Z" style="fill:#c48c49"/><path d="M11.24288,3.53638,12.55123,3.77l.40741.11572.64538.1836a1.23,1.23,0,0,1,.76526.86035l-.00018.00012.00018-.00012c.0271.0603.52942,1.20923.55658,1.26953.03015.227-.17975.231-.2995.28674-.11389.0531-.11853-.1029-.16528-.17248-.06372-.364-.491-.86841-.51941-1.07483a.76407.76407,0,0,0-.37683-.47388.9918.9918,0,0,0-.55872-.31213q-.90756-.2265-1.81488-.4541C11.29189,3.85388,11.11458,3.6781,11.24288,3.53638Z" style="fill:#604631"/><path d="M15.43353,10.5455c-.1174.15128-.03831.26226.07454.36716a1.69922,1.69922,0,0,0,.48621.26806v-.81328A1.29429,1.29429,0,0,0,15.43353,10.5455Z" style="fill:#604631"/><path d="M13.57305,16.50231a1.05415,1.05415,0,0,1-.43116.76648c-.20575.15307-.45572-.01464-.44534-.30526a.92.92,0,0,1,.391-.69683A.31971.31971,0,0,1,13.439,16.26C13.549,16.31508,13.55254,16.42527,13.57305,16.50231Z" style="fill:#349363"/><path d="M12.39205,17.903c-.00182.122-.03169.23651-.17358.24471a.14.14,0,0,1-.1466-.16826c.01781-.116.03234-.25943.19956-.26025C12.38929,17.71864,12.391,17.81543,12.39205,17.903Z" style="fill:#349363"/><path d="M11.44513,24.00732a6.52811,6.52811,0,0,0,.08258,1.16919,3.71832,3.71832,0,0,0,.8584.51,5.37247,5.37247,0,0,1,.27643-2.02881c.01532-.04785-.00379-.13452.07318-.13146.07153.00256.05743.087.07165.13635a19.57209,19.57209,0,0,1,.56732,2.47925A8.67479,8.67479,0,0,0,14.394,26.832c-.009-.332-.01208-.66406-.02826-.9956a8.91,8.91,0,0,1,.32-2.89844q.05823-.63171.11658-1.26355v-.00025l-.00006.00013q-.00194-.56984-.004-1.1399a16.629,16.629,0,0,0,1.196-4.35717V11.91309a1.94988,1.94988,0,0,1-1.6726-.71631.973.973,0,0,0-.14661-.13013c.00146.70654-.01862,1.41187-.064,2.11731a3.75165,3.75165,0,0,1-1.08429,2.67859,4.56616,4.56616,0,0,0-1.21063,2.39282A21.97813,21.97813,0,0,0,11.44513,24.00732ZM13.3114,21.106l-.00641.00525.00641-.00525Zm-.06512-.06543.02166.02173-.02166-.02173a.06609.06609,0,0,0-.02747.07129A.06589.06589,0,0,1,13.24628,21.04053Zm-.54975-4.07715a.9203.9203,0,0,1,.39106-.69678A.3196.3196,0,0,1,13.439,16.26c.11.055.11352.16528.134.24219a1.05477,1.05477,0,0,1-.43115.7666C12.9361,17.42188,12.6861,17.25415,12.69653,16.96338Zm-.62463,1.01587c.01776-.11585.03229-.25916.19952-.26.11786-.00073.11957.09619.12049.18359-.00171.12207-.03156.23657-.17347.24488A.13991.13991,0,0,1,12.0719,17.97925Z" style="fill:#876f5d"/><path d="M13.94257,8.5945c-.02624-.13783-.0564-.27506-.07784-.41364-.03719-.2403.02637-.38906.31079-.32135.21789.12774.49517.18241.5801.47258a.24662.24662,0,0,0-.35549-.00306l-.04058.04085-.03117.05256c-.03746.00555-.04354.03009-.03749.062a.67434.67434,0,0,0,0,.572C14.10273,8.9568,14.05,8.75507,13.94257,8.5945Z" style="fill:#fcfcfa"/><path d="M14.32838,8.42244l.03117-.05256.04058-.04085a.24662.24662,0,0,1,.35549.00306l.08881.13093.01663.0166.04431.11762a.70353.70353,0,0,1-.14886.56458c-.19241.12915-.33437.03553-.46561-.10541a.67437.67437,0,0,1,0-.572l.06089-.00013c-.011.09108-.00168.17079.11742.167a.094.094,0,0,0,.09086-.08779c.00958-.11053-.05806-.14287-.156-.13481Z" style="fill:#251e1b"/><path d="M14.75651,9.16182a.7036.7036,0,0,0,.14889-.56453l-.00058-.11706a.18459.18459,0,0,0,.00451-.0569,2.32734,2.32734,0,0,1,.34017,1.09452A1.69016,1.69016,0,0,0,14.75651,9.16182Z" style="fill:#ffd04d"/><path d="M14.90933,8.42333a.18529.18529,0,0,1-.00449.05691l-.04378-.00062-.01663-.0166Z" style="fill:#e4dcad"/><path d="M11.651,4.67725c.01935-.02173.105.0083.15741.02441q.75009.22889,1.49915.46118a9.573,9.573,0,0,1,.74981.96948c.25861.38685.25122.4198-.06665.614-.19177.11706-.314-.01489-.45331-.09986h0a2.02238,2.02238,0,0,1-1.38311-1.00634c-.14154-.26917-.30719-.52564-.45691-.79065C11.66787,4.79712,11.59768,4.7373,11.651,4.67725Z" style="fill:#604631"/><path d="M14.32838,8.42244l.07563.0062-.05224.05563-.06089.00013C14.28484,8.45253,14.29092,8.428,14.32838,8.42244Z" style="fill:#4c4744"/><path d="M14.40013,8.329l-.04058.04085Z" style="fill:#4c4744"/><path d="M14.35177,8.48427l.05224-.05563c.098-.00806.16562.02428.156.13481a.094.094,0,0,1-.09086.08779C14.35009,8.65506,14.34079,8.57535,14.35177,8.48427Z" style="fill:#dfdedd"/><path d="M14.86106,8.47962l.04378.00062.00056.117Z" style="fill:#b3afa4"/><path d="M15.99438,16.20081c0,.03772.00007.17346.00013.33129a18.41165,18.41165,0,0,1-1.07764,3.84681A20.07127,20.07127,0,0,0,15.99438,16.20081Z" style="fill:#ffd04d"/><path d="M14.7984,20.558a.35848.35848,0,0,0,.05658-.07055q.00192.54784.00378,1.09558c-.02075.03711-.03509.07824-.05639.11487Q14.80045,21.128,14.7984,20.558Z" style="fill:#ffd04d"/><path d="M14.91687,20.37891a18.41165,18.41165,0,0,0,1.07764-3.84681c.00012.214.00024.47522.00024.64759a9.09527,9.09527,0,0,1-1.136,4.40332q-.00183-.54767-.00378-1.09558A1.06113,1.06113,0,0,0,14.91687,20.37891Z" style="fill:#ffd04d"/></svg>