<svg xmlns="http://www.w3.org/2000/svg" viewBox="0 0 32 32"><title>586-sawsbuck-autumn</title><path d="M31.60413.35742a6.3613,6.3613,0,0,0-2.2602.36035A.98171.98171,0,0,0,29.72345,0a6.15034,6.15034,0,0,0-1.76794.636A.8905.8905,0,0,0,28.144.14063a6.20615,6.20615,0,0,0-1.882.69775A.9298.9298,0,0,0,26.55243.207a6.31023,6.31023,0,0,0-2.05774.79273.96309.96309,0,0,0,.15216-.76538,6.08331,6.08331,0,0,0-1.39246.95166,1.0056,1.0056,0,0,0-.16247-.83545,6.07173,6.07173,0,0,0-.85315,1.396A1.25815,1.25815,0,0,0,21.84595.55737a5.70737,5.70737,0,0,0-.35773,1.11841,1.15321,1.15321,0,0,0-.55865-.94409,5.379,5.379,0,0,0-.13916.75415,1.15115,1.15115,0,0,0-.88758-.63892,5.48784,5.48784,0,0,0,.22156.88318c-.34052-.56164-.642-.85388-1.07336-.86487a5.64366,5.64366,0,0,0,.32128,1.051,6.05861,6.05861,0,0,0-1.39807-.75562c-.06073.42005.16669.76136.64594,1.1814a6.10539,6.10539,0,0,0-1.65711-.5603c.01636.386.24665.662.70105.953A5.85449,5.85449,0,0,0,16.377,2.34082c.01691.39941.26325.68152.74976.98389a5.67835,5.67835,0,0,0-1.1394.04834c.157.40771.5418.59277,1.20007.72509A5.8923,5.8923,0,0,0,16,4.823c.34869.28259.78955.24145,1.45667.011a5.67077,5.67077,0,0,0-.77576.80957c.43652.20582.884.0271,1.55261-.4248.73926.51526,1.20654.719,1.66931.501a5.61646,5.61646,0,0,0-.73919-.778h.0393c.75208.52674,1.22235.7345,1.6897.51428a5.44447,5.44447,0,0,0-.57275-.63354l.01025-.004c.75452.52893,1.22528.73718,1.69348.51673a5.61587,5.61587,0,0,0-.738-.77686l.01777-.00195c.73993.516,1.20739.71985,1.67041.50171a5.443,5.443,0,0,0-.57453-.63514l.02887-.00427c.74378.51929,1.21216.72437,1.67658.50562a5.308,5.308,0,0,0-.46332-.522c.69324.474,1.14837.662,1.59424.45191A5.32513,5.32513,0,0,0,24.756,4.314c.70294.48292,1.161.67432,1.61054.46265a5.48764,5.48764,0,0,0-.61225-.668c.72687.5044,1.19117.70386,1.64948.488a5.68671,5.68671,0,0,0-.79395-.82544l.012-.00439c.7846.50195,1.26568.69165,1.72638.44958a5.64677,5.64677,0,0,0-.80139-.76794l.02221-.0066.01789.03443c.80676.48413,1.29486.66174,1.75067.40478a5.18489,5.18489,0,0,0-.38074-.3706,1.21571,1.21571,0,0,0,1.09924-.491,5.19655,5.19655,0,0,0-.53192-.146c.63941-.17005,1.0072-.37745,1.139-.79029a5.24674,5.24674,0,0,0-.61621-.0144c.68585-.24512,1.06524-.49134,1.16-.938a5.20821,5.20821,0,0,0-.561.043C31.19684.976,31.50458.74963,31.60413.35742Z" style="fill:#338c5d"/><path d="M17.18909,20.53442l-.004,1.13977.00006.00013Q17.187,21.10448,17.18909,20.53442Z" style="fill:#b57135"/><path d="M17.18506,21.67444a2.12646,2.12646,0,0,0,.004-1.14l-.35511.34082a9.57062,9.57062,0,0,1-.84088-3.71337v5.99584a8.051,8.051,0,0,0,1.30854-.21972Q17.24341,22.30628,17.18506,21.67444Z" style="fill:#f0c877"/><path d="M17.06138,6.19943c-.03.22692.17986.23065.2996.28655.11387.053.11857-.10283.16529-.1724a9.66937,9.66937,0,0,1,.97326-1.487.65576.65576,0,0,1,.18027.33639c-.2586.3869-1.00107,1.38915-.68318,1.58336.19179.117.31395-.01477.45329-.0998a2.02238,2.02238,0,0,0,1.38315-1.00639c.14155-.26916.30719-.52562.45688-.79064.02954-.05232.09973-.11209.04638-.17227-.01932-.02167-.105.00842-.15742.02443q-.75.22879-1.4991.46131-.09006-.16833-.18027-.33639c.74765-.19324,1.49489-.38869,2.24406-.57669.078-.0196.16991-.08227.2399-.02154.019.01657-.0421.13583-.077.20236-.28379.54053-.58567,1.07223-.851,1.6216a1.71321,1.71321,0,0,1-1.064.9284c-.14411.04693-.36075.08033-.40305.18-.05977.14079.17122.23631.22816.38262.01022.02651.02361.05149.03555.07716l.03858.06005.0147.0599a1.3333,1.3333,0,0,0-1.0937.11913c-.21774.12768-.49505.18234-.58015.47275l-.08854.13058-.065-.03947a2.32663,2.32663,0,0,0-.34011,1.09445l-.18406,1.02765a1.29433,1.29433,0,0,0-.56076-.17806V5.917A6.21685,6.21685,0,0,1,17.06138,6.19943Z" style="fill:#b57135"/><path d="M18.61265,26.14189a8.70017,8.70017,0,0,1-1.01928.69013,13.40961,13.40961,0,0,1-.62269,3.9314c-.02481.07458-.10687.17269-.01085.26291l.96049-.04654c.05612-.15924.0141-.4264.14032-.46393.143-.04251.16637.23022.27722.33826.02528.02463.03938.07865.08175.05614.0216-.01148.02888-.06236.031-.09615.01824-.29381.042-.58759.04875-.88174.02525-1.10321.04316-2.20659.06795-3.30982C18.5709,26.46207,18.597,26.3021,18.61265,26.14189Z" style="fill:#f0c877"/><path d="M16.4793,10.91266c.11284-.1049.19193-.21588.07454-.36716l.18406-1.02765a1.6893,1.6893,0,0,1,.493-.356c.19235.12906.33432.03547.46558-.10546.18821-.09966.24094-.30146.34833-.46185.03057.019.05928.05024.092.05521.29276.04389.36123.13693.29573.4279-.08882.39422-.18289.78733-.27461,1.181-.06177.05521-.0724.11125-.00256.16853q-.17154.31989-.34308.6395a.97063.97063,0,0,0-.14659.13017,1.95016,1.95016,0,0,1-1.6726.71625v-.7324A1.6994,1.6994,0,0,0,16.4793,10.91266Z" style="fill:#f7d684"/><path d="M20.45964,25.17655a3.71692,3.71692,0,0,1-.85839.51,7.88163,7.88163,0,0,1-.32216,1.7269,3.98968,3.98968,0,0,0-.12773,1.5486c.06364-.14774.14-.04726.21444-.01172.20508.098.42191.20491.6391.07437.16585-.09969.17518.00669.21158.108.02155-.36627.04159-.73265.06618-1.09872.004-.05948-.03745-.1507.04268-.17111.06723-.01712.10443.06832.143.118.11559.14885.22579.30188.33807.45334l.06005-.04917c-.12345-.62126-.32757-1.22322-.43035-1.85019C20.3612,26.07783,20.51,25.63,20.45964,25.17655Z" style="fill:#f0c877"/><path d="M20.21648,29.13266c-.0364-.10126-.04573-.20764-.21158-.108-.21719.13054-.434.0236-.6391-.07437-.07442-.03554-.1508-.136-.21444.01172-.0344.26262-.05984.527-.10691.78747-.025.13807.00312.20206.1426.24826a1.22919,1.22919,0,0,0,.93843.01389.20863.20863,0,0,0,.1492-.257C20.24581,29.54868,20.235,29.34014,20.21648,29.13266Z" style="fill:#3a3333"/><path d="M18.04479,8.5945c.03057.019.05931.05029.092.05521.29274.044.36121.137.2957.428-.08877.39428-.18283.78737-.27458,1.181l.05242.0538a11.24153,11.24153,0,0,0,.74616-2.24373.36409.36409,0,0,0-.05105-.32838,1.333,1.333,0,0,0-1.09359.11914c.28442-.06771.348.081.31079.32135C18.10119,8.31944,18.071,8.45667,18.04479,8.5945Z" style="fill:#f7c845"/><path d="M17.92032,30.97979l-.96049.04654a2.406,2.406,0,0,1-.068.44987c-.11533.33338.056.43228.33883.479a1.4705,1.4705,0,0,0,.36575.04281c.36085-.03074.41251-.09038.382-.45065C17.96246,31.35785,17.93992,31.169,17.92032,30.97979Z" style="fill:#3a3333"/><path d="M20.74451,3.53648c.12829.14164-.049.3174.05159.46213.163-.02051.19414-.15727.24448-.27714C21.046,3.49323,20.95225,3.42361,20.74451,3.53648Z" style="fill:#f7d684"/><path d="M18.21033,10.31248l-.05242-.0538c-.06178.05527-.07243.11131-.00254.16853Z" style="fill:#e0ca59"/><path d="M20.86646,28.385l-.06005.04917c.0173.04066.03332.10726.0883.06905C20.93866,28.47266,20.905,28.41859,20.86646,28.385Z" style="fill:#f5efd9"/><path d="M18.85216,7.62047l.03856.06Z" style="fill:#c48c49"/><path d="M20.74449,3.53638,19.43614,3.77l-.40741.11572-.64539.1836a1.23,1.23,0,0,0-.76526.86035l.00019.00012-.00019-.00012c-.0271.0603-.52942,1.20923-.55658,1.26953-.03015.227.17975.231.2995.28674.11389.0531.11853-.1029.16529-.17248.06372-.364.491-.86841.51941-1.07483a.764.764,0,0,1,.37683-.47388.99177.99177,0,0,1,.55871-.31213q.90756-.2265,1.81488-.4541C20.69548,3.85388,20.87278,3.6781,20.74449,3.53638Z" style="fill:#4f4032"/><path d="M16.55384,10.5455c.11739.15128.0383.26226-.07454.36716a1.6994,1.6994,0,0,1-.48622.26806v-.81328A1.29433,1.29433,0,0,1,16.55384,10.5455Z" style="fill:#51321b"/><path d="M18.41432,16.50231a1.05413,1.05413,0,0,0,.43115.76648c.20575.15307.45572-.01464.44535-.30526a.92007.92007,0,0,0-.391-.69683.31973.31973,0,0,0-.35145-.00672C18.43832,16.31508,18.43482,16.42527,18.41432,16.50231Z" style="fill:#338c5d"/><path d="M19.59532,17.903c.00182.122.03168.23651.17357.24471a.14.14,0,0,0,.14661-.16826c-.01781-.116-.03234-.25943-.19957-.26025C19.59808,17.71864,19.59636,17.81543,19.59532,17.903Z" style="fill:#338c5d"/><path d="M20.17126,18.25537a4.56609,4.56609,0,0,0-1.21063-2.39282A3.7517,3.7517,0,0,1,17.87634,13.184c-.04541-.70544-.06549-1.41077-.064-2.11731a.97249.97249,0,0,0-.14661.13013,1.94991,1.94991,0,0,1-1.67261.71631v4.26416a16.62938,16.62938,0,0,0,1.196,4.35717q-.002.57-.004,1.1399l-.00006-.00013v.00025q.05832.63171.11658,1.26355a8.9097,8.9097,0,0,1,.32,2.89844c-.01617.33154-.01922.66357-.02826.9956a8.674,8.674,0,0,0,1.01929-.69018A19.57382,19.57382,0,0,1,19.18,23.6626c.01422-.04932.00012-.13379.07166-.13635.077-.00306.05786.08361.07318.13146a5.37287,5.37287,0,0,1,.27643,2.02881,3.71832,3.71832,0,0,0,.8584-.51,6.529,6.529,0,0,0,.08258-1.16919A21.97771,21.97771,0,0,0,20.17126,18.25537ZM18.676,21.106l.00641.00525L18.676,21.106Zm.09259.00586a.06609.06609,0,0,0-.02746-.07129l-.02167.02173.02167-.02173A.0659.0659,0,0,1,18.76855,21.11182Zm.07691-3.843a1.05474,1.05474,0,0,1-.43115-.7666c.0205-.07691.024-.18714.134-.24219a.3196.3196,0,0,1,.35144.00659.92026.92026,0,0,1,.391.69678C19.30127,17.25415,19.05127,17.42188,18.84546,17.2688Zm.92346.87891c-.14191-.00831-.17175-.12281-.17346-.24488.00091-.0874.00262-.18432.12048-.18359.16724.00085.18177.14416.19953.26A.13991.13991,0,0,1,19.76892,18.14771Z" style="fill:#b57135"/><path d="M18.04479,8.5945c.02624-.13783.0564-.27506.07785-.41364.03719-.2403-.02637-.38906-.31079-.32135-.21789.12774-.49518.18241-.5801.47258a.24662.24662,0,0,1,.35549-.00306l.04057.04085.03117.05256c.03746.00555.04354.03009.0375.062a.67434.67434,0,0,1,0,.572C17.88464,8.9568,17.93742,8.75507,18.04479,8.5945Z" style="fill:#fcfcfa"/><path d="M17.659,8.42244l-.03116-.05256L17.58724,8.329a.24662.24662,0,0,0-.35549.00306l-.08882.13093-.01662.0166-.04431.11762a.70349.70349,0,0,0,.14886.56458c.1924.12915.33437.03553.46561-.10541a.67433.67433,0,0,0,0-.572l-.06088-.00013c.011.09108.00168.17079-.11743.167a.094.094,0,0,1-.09085-.08779c-.00959-.11053.05806-.14287.156-.13481Z" style="fill:#251e1b"/><path d="M17.23086,9.16182a.70356.70356,0,0,1-.14889-.56453l.00058-.11706a.1846.1846,0,0,1-.00452-.0569,2.32721,2.32721,0,0,0-.34016,1.09452A1.69016,1.69016,0,0,1,17.23086,9.16182Z" style="fill:#f7c845"/><path d="M17.078,8.42333a.1856.1856,0,0,0,.00449.05691l.04379-.00062.01662-.0166Z" style="fill:#e4dcad"/><path d="M20.33635,4.67725c-.01935-.02173-.105.0083-.15741.02441q-.75011.22889-1.49915.46118a9.57441,9.57441,0,0,0-.74982.96948c-.2586.38685-.25122.4198.06665.614.19178.11706.314-.01489.45331-.09986h0a2.0224,2.0224,0,0,0,1.38312-1.00634c.14154-.26917.30719-.52564.45691-.79065C20.3195,4.79712,20.38969,4.7373,20.33635,4.67725Z" style="fill:#4f4032"/><path d="M17.659,8.42244l-.07562.0062.05224.05563.06088.00013C17.70252,8.45253,17.69644,8.428,17.659,8.42244Z" style="fill:#4c4744"/><path d="M17.58724,8.329l.04057.04085Z" style="fill:#4c4744"/><path d="M17.6356,8.48427l-.05224-.05563c-.098-.00806-.16563.02428-.156.13481a.094.094,0,0,0,.09085.08779C17.63728,8.65506,17.64658,8.57535,17.6356,8.48427Z" style="fill:#dfdedd"/><path d="M17.12631,8.47962l-.04379.00062-.00055.117Z" style="fill:#b3afa4"/><path d="M15.993,16.20081l-.00012.33129a18.411,18.411,0,0,0,1.07764,3.84681A20.072,20.072,0,0,1,15.993,16.20081Z" style="fill:#f7c845"/><path d="M17.189,20.558a.35884.35884,0,0,1-.05657-.07055q-.00194.54784-.00379,1.09558c.02075.03711.0351.07824.0564.11487Q17.18692,21.128,17.189,20.558Z" style="fill:#f7c845"/><path d="M17.0705,20.37891a18.411,18.411,0,0,1-1.07764-3.84681c-.00012.214-.00025.47522-.00025.64759a9.09538,9.09538,0,0,0,1.136,4.40332q.00183-.54767.00379-1.09558A1.05925,1.05925,0,0,1,17.0705,20.37891Z" style="fill:#f7c845"/><path d="M.37061.35742A6.36124,6.36124,0,0,1,2.6308.71777.98174.98174,0,0,1,2.25128,0a6.15021,6.15021,0,0,1,1.768.636A.89044.89044,0,0,1,3.83075.14062a6.20643,6.20643,0,0,1,1.882.69776A.9298.9298,0,0,1,5.4223.207,6.31023,6.31023,0,0,1,7.48.99976.9631.9631,0,0,1,7.32788.23437,6.08367,6.08367,0,0,1,8.72034,1.186,1.00564,1.00564,0,0,1,8.88281.35059a6.07173,6.07173,0,0,1,.85315,1.396A1.25815,1.25815,0,0,1,10.12878.55737a5.70737,5.70737,0,0,1,.35773,1.11841,1.15319,1.15319,0,0,1,.55866-.94409,5.38186,5.38186,0,0,1,.13916.75415A1.15112,1.15112,0,0,1,12.0719.84692a5.48784,5.48784,0,0,1-.22156.88318c.34052-.56164.642-.85388,1.07337-.86487a5.64369,5.64369,0,0,1-.32129,1.051,6.05861,6.05861,0,0,1,1.39807-.75562c.06073.42005-.16669.76136-.64594,1.1814a6.10539,6.10539,0,0,1,1.65711-.5603c-.01636.386-.24665.662-.701.953a5.85449,5.85449,0,0,1,1.28711-.39392c-.01691.39941-.26325.68152-.74976.98389a5.67848,5.67848,0,0,1,1.13941.04834c-.157.40771-.54181.59277-1.20008.72509a5.8923,5.8923,0,0,1,1.18744.72486c-.34869.28259-.78955.24145-1.45666.011a5.67069,5.67069,0,0,1,.77575.80957c-.43652.20582-.884.0271-1.55261-.4248-.73926.51526-1.20654.719-1.66931.501a5.61654,5.61654,0,0,1,.7392-.778h-.03931c-.75208.52674-1.22235.7345-1.6897.51428a5.44366,5.44366,0,0,1,.57276-.63354l-.01026-.004c-.75451.52893-1.22528.73718-1.69348.51673a5.61587,5.61587,0,0,1,.738-.77686l-.01776-.00195c-.73993.516-1.2074.71985-1.67041.50171A5.44377,5.44377,0,0,1,9.57544,4.423L9.54657,4.4187C8.8028,4.938,8.33441,5.14307,7.87,4.92432a5.30663,5.30663,0,0,1,.46331-.522c-.69323.474-1.14837.662-1.59424.45191A5.32635,5.32635,0,0,1,7.21869,4.314c-.70294.48291-1.161.67432-1.61054.46265a5.48764,5.48764,0,0,1,.61225-.668c-.72687.5044-1.19116.70386-1.64948.488a5.68671,5.68671,0,0,1,.79395-.82544l-.012-.00439c-.7846.50195-1.26568.69165-1.72638.44958a5.64631,5.64631,0,0,1,.8014-.76794l-.02222-.0066-.01788.03443c-.80677.48413-1.29486.66174-1.75067.40478a5.18473,5.18473,0,0,1,.38073-.3706,1.21571,1.21571,0,0,1-1.09924-.491,5.19726,5.19726,0,0,1,.53192-.146c-.6394-.17005-1.0072-.37745-1.139-.79029a5.24674,5.24674,0,0,1,.61621-.0144c-.68585-.24512-1.06524-.49134-1.16-.938a5.20839,5.20839,0,0,1,.561.043C.77789.976.47015.74963.37061.35742Z" style="fill:#349363"/><path d="M14.78564,20.53442l.004,1.13977-.00006.00013Q14.78769,21.10448,14.78564,20.53442Z" style="fill:#b57135"/><path d="M14.78967,21.67444a2.12656,2.12656,0,0,1-.004-1.14l.35511.34082a9.57044,9.57044,0,0,0,.84088-3.71337v5.99584A8.05067,8.05067,0,0,1,14.6731,22.938Q14.73131,22.30628,14.78967,21.67444Z" style="fill:#f7d684"/><path d="M14.91335,6.19943c.03.22692-.17985.23065-.2996.28655-.11387.053-.11857-.10283-.16529-.1724a9.66937,9.66937,0,0,0-.97326-1.487.65576.65576,0,0,0-.18027.33639c.2586.3869,1.00107,1.38915.68319,1.58336-.1918.117-.314-.01477-.4533-.0998a2.02238,2.02238,0,0,1-1.38315-1.00639c-.14155-.26916-.30719-.52562-.45688-.79064-.02954-.05232-.09973-.11209-.04638-.17227.01932-.02167.105.00842.15742.02443q.75.22879,1.4991.46131.09006-.16833.18027-.33639c-.74765-.19324-1.49489-.38869-2.244-.57669-.07806-.0196-.16992-.08227-.2399-.02154-.01905.01657.0421.13583.077.20236.28379.54053.58567,1.07223.851,1.6216a1.71321,1.71321,0,0,0,1.064.9284c.14411.04693.36075.08033.40306.18.05976.14079-.17123.23631-.22817.38262-.01022.02651-.0236.05149-.03554.07716l-.03858.06005-.01471.0599a1.3333,1.3333,0,0,1,1.0937.11913c.21775.12768.49505.18234.58015.47275l.08855.13058.065-.03947a2.32663,2.32663,0,0,1,.34011,1.09445l.18406,1.02765a1.29433,1.29433,0,0,1,.56076-.17806V5.917A6.21685,6.21685,0,0,0,14.91335,6.19943Z" style="fill:#bf7d3c"/><path d="M13.36208,26.14189a8.70017,8.70017,0,0,0,1.01928.69013,13.40994,13.40994,0,0,0,.62269,3.9314c.02481.07458.10687.17269.01086.26291l-.96049-.04654c-.05613-.15924-.01411-.4264-.14033-.46393-.143-.04251-.16637.23022-.27722.33826-.02528.02463-.03938.07865-.08175.05614-.0216-.01148-.02888-.06236-.031-.09615-.01824-.29381-.042-.58759-.04875-.88174-.02525-1.10321-.04316-2.20659-.068-3.30982C13.40383,26.46207,13.37776,26.3021,13.36208,26.14189Z" style="fill:#f7d684"/><path d="M15.49543,10.91266c-.11284-.1049-.19193-.21588-.07454-.36716l-.18406-1.02765a1.6893,1.6893,0,0,0-.493-.356c-.19235.12906-.33432.03547-.46558-.10546-.18821-.09966-.24094-.30146-.34833-.46185-.03057.019-.05928.05024-.092.05521-.29277.04389-.36123.13693-.29574.4279.08883.39422.18289.78733.27462,1.181.06177.05521.07239.11125.00255.16853q.17154.31989.34308.6395a.97063.97063,0,0,1,.14659.13017,1.95017,1.95017,0,0,0,1.6726.71625v-.7324A1.6994,1.6994,0,0,1,15.49543,10.91266Z" style="fill:#fae09f"/><path d="M11.51509,25.17655a3.71692,3.71692,0,0,0,.85839.51,7.88221,7.88221,0,0,0,.32216,1.7269,3.98968,3.98968,0,0,1,.12773,1.5486c-.06364-.14774-.14-.04726-.21444-.01172-.20508.098-.42191.20491-.6391.07437-.16585-.09969-.17518.00669-.21158.108-.02155-.36627-.04159-.73265-.06618-1.09872-.004-.05948.03745-.1507-.04268-.17111-.06723-.01712-.10443.06832-.143.118-.11559.14885-.22579.30188-.33807.45334l-.06005-.04917c.12345-.62126.32757-1.22322.43035-1.85019C11.61353,26.07783,11.46478,25.63,11.51509,25.17655Z" style="fill:#f7d684"/><path d="M11.75825,29.13266c.0364-.10126.04573-.20764.21158-.108.21719.13054.434.0236.6391-.07437.07442-.03554.1508-.136.21444.01172.03441.26262.05984.527.10691.78747.025.13807-.00312.20206-.1426.24826a1.22916,1.22916,0,0,1-.93842.01389.20862.20862,0,0,1-.14921-.257C11.72892,29.54868,11.73975,29.34014,11.75825,29.13266Z" style="fill:#413b3b"/><path d="M13.92994,8.5945c-.03057.019-.05931.05029-.092.05521-.29274.044-.36121.137-.2957.428.08878.39428.18283.78737.27458,1.181l-.05241.0538a11.24092,11.24092,0,0,1-.74617-2.24373.36409.36409,0,0,1,.05105-.32838,1.333,1.333,0,0,1,1.09359.11914c-.28441-.06771-.348.081-.31079.32135C13.87354,8.31944,13.9037,8.45667,13.92994,8.5945Z" style="fill:#ffd04d"/><path d="M14.05442,30.97979l.96049.04654a2.40515,2.40515,0,0,0,.068.44987c.11533.33338-.056.43228-.33883.479a1.4705,1.4705,0,0,1-.36575.04281c-.36085-.03074-.41251-.09038-.382-.45065C14.01227,31.35785,14.03482,31.169,14.05442,30.97979Z" style="fill:#413b3b"/><path d="M11.23022,3.53648c-.12829.14164.049.3174-.05158.46213-.163-.02051-.19415-.15727-.24449-.27714C10.92876,3.49323,11.02248,3.42361,11.23022,3.53648Z" style="fill:#fae09f"/><path d="M13.76441,10.31248l.05241-.0538c.06178.05527.07243.11131.00254.16853Z" style="fill:#e0ca59"/><path d="M11.10827,28.385l.06005.04917c-.0173.04066-.03332.10726-.0883.06905C11.03607,28.47266,11.06969,28.41859,11.10827,28.385Z" style="fill:#f5efd9"/><path d="M13.12257,7.62047l-.03856.06Z" style="fill:#c48c49"/><path d="M11.23024,3.53638,12.53859,3.77l.40741.11572.64539.1836a1.23,1.23,0,0,1,.76526.86035l-.00018.00012.00018-.00012c.0271.0603.52942,1.20923.55658,1.26953.03015.227-.17975.231-.2995.28674-.11389.0531-.11853-.1029-.16528-.17248-.06373-.364-.491-.86841-.51941-1.07483a.76405.76405,0,0,0-.37684-.47388.99174.99174,0,0,0-.55871-.31213q-.90756-.2265-1.81488-.4541C11.27926,3.85388,11.102,3.6781,11.23024,3.53638Z" style="fill:#604631"/><path d="M15.42089,10.5455c-.11739.15128-.0383.26226.07454.36716a1.6994,1.6994,0,0,0,.48622.26806v-.81328A1.29433,1.29433,0,0,0,15.42089,10.5455Z" style="fill:#604631"/><path d="M13.56041,16.50231a1.05413,1.05413,0,0,1-.43115.76648c-.20575.15307-.45572-.01464-.44534-.30526a.92.92,0,0,1,.391-.69683A.31971.31971,0,0,1,13.4264,16.26C13.53641,16.31508,13.53991,16.42527,13.56041,16.50231Z" style="fill:#349363"/><path d="M12.37941,17.903c-.00182.122-.03168.23651-.17357.24471a.14.14,0,0,1-.1466-.16826c.01781-.116.03233-.25943.19956-.26025C12.37665,17.71864,12.37837,17.81543,12.37941,17.903Z" style="fill:#349363"/><path d="M11.4325,24.00732a6.52719,6.52719,0,0,0,.08258,1.16919,3.71826,3.71826,0,0,0,.85839.51,5.37287,5.37287,0,0,1,.27643-2.02881c.01532-.04785-.00378-.13452.07318-.13146.07154.00256.05744.087.07166.13635a19.57382,19.57382,0,0,1,.56732,2.47925,8.67479,8.67479,0,0,0,1.01929.69018c-.009-.332-.01209-.66406-.02826-.9956a8.90943,8.90943,0,0,1,.32-2.89844q.05821-.63171.11657-1.26355v-.00025l-.00006.00013q-.00192-.56984-.004-1.1399a16.62861,16.62861,0,0,0,1.196-4.35717V11.91309a1.94991,1.94991,0,0,1-1.67261-.71631.97249.97249,0,0,0-.14661-.13013c.00147.70654-.01861,1.41187-.064,2.11731a3.75165,3.75165,0,0,1-1.08429,2.67859,4.56609,4.56609,0,0,0-1.21063,2.39282A21.97727,21.97727,0,0,0,11.4325,24.00732ZM13.29877,21.106l-.00641.00525.00641-.00525Zm-.06513-.06543.02167.02173-.02167-.02173a.06609.06609,0,0,0-.02746.07129A.0659.0659,0,0,1,13.23364,21.04053Zm-.54974-4.07715a.92026.92026,0,0,1,.391-.69678.3196.3196,0,0,1,.35144-.00659c.11.055.11353.16528.134.24219a1.05474,1.05474,0,0,1-.43115.7666C12.92346,17.42188,12.67346,17.25415,12.6839,16.96338Zm-.62463,1.01587c.01776-.11585.03228-.25916.19952-.26.11786-.00073.11957.09619.12048.18359-.00171.12207-.03155.23657-.17346.24488A.13991.13991,0,0,1,12.05927,17.97925Z" style="fill:#bf7d3c"/><path d="M13.92994,8.5945c-.02624-.13783-.0564-.27506-.07785-.41364-.03719-.2403.02638-.38906.31079-.32135.21789.12774.49518.18241.58011.47258a.24663.24663,0,0,0-.3555-.00306l-.04057.04085-.03117.05256c-.03746.00555-.04354.03009-.0375.062a.67438.67438,0,0,0,0,.572C14.09009,8.9568,14.03731,8.75507,13.92994,8.5945Z" style="fill:#fcfcfa"/><path d="M14.31575,8.42244l.03117-.05256.04057-.04085a.24663.24663,0,0,1,.3555.00306l.08881.13093.01662.0166.04431.11762a.70349.70349,0,0,1-.14886.56458c-.1924.12915-.33437.03553-.46561-.10541a.67437.67437,0,0,1,0-.572l.06089-.00013c-.011.09108-.00169.17079.11742.167a.094.094,0,0,0,.09086-.08779c.00958-.11053-.05807-.14287-.15605-.13481Z" style="fill:#251e1b"/><path d="M14.74387,9.16182a.70356.70356,0,0,0,.14889-.56453l-.00058-.11706a.18429.18429,0,0,0,.00452-.0569,2.32721,2.32721,0,0,1,.34016,1.09452A1.69016,1.69016,0,0,0,14.74387,9.16182Z" style="fill:#ffd04d"/><path d="M14.8967,8.42333a.18529.18529,0,0,1-.00449.05691l-.04379-.00062L14.8318,8.463Z" style="fill:#e4dcad"/><path d="M11.63839,4.67725c.01934-.02173.105.0083.15741.02441q.75009.22889,1.49914.46118a9.57441,9.57441,0,0,1,.74982.96948c.2586.38685.25122.4198-.06665.614-.19177.11706-.314-.01489-.45331-.09986h0a2.0224,2.0224,0,0,1-1.38312-1.00634c-.14154-.26917-.30719-.52564-.45691-.79065C11.65523,4.79712,11.585,4.7373,11.63839,4.67725Z" style="fill:#604631"/><path d="M14.31575,8.42244l.07562.0062-.05223.05563-.06089.00013C14.27221,8.45253,14.27829,8.428,14.31575,8.42244Z" style="fill:#4c4744"/><path d="M14.38749,8.329l-.04057.04085Z" style="fill:#4c4744"/><path d="M14.33914,8.48427l.05223-.05563c.098-.00806.16563.02428.15605.13481a.094.094,0,0,1-.09086.08779C14.33745,8.65506,14.32816,8.57535,14.33914,8.48427Z" style="fill:#dfdedd"/><path d="M14.84842,8.47962l.04379.00062.00055.117Z" style="fill:#b3afa4"/><path d="M15.98175,16.20081c0,.03772.00006.17346.00012.33129a18.4117,18.4117,0,0,1-1.07763,3.84681A20.07127,20.07127,0,0,0,15.98175,16.20081Z" style="fill:#ffd04d"/><path d="M14.78577,20.558a.35921.35921,0,0,0,.05658-.07055q.00192.54784.00378,1.09558c-.02075.03711-.03509.07824-.0564.11487Q14.78781,21.128,14.78577,20.558Z" style="fill:#ffd04d"/><path d="M14.90424,20.37891a18.4117,18.4117,0,0,0,1.07763-3.84681c.00012.214.00025.47522.00025.64759a9.09538,9.09538,0,0,1-1.136,4.40332q-.00183-.54767-.00378-1.09558A1.063,1.063,0,0,0,14.90424,20.37891Z" style="fill:#ffd04d"/></svg>