<svg xmlns="http://www.w3.org/2000/svg" viewBox="0 0 32 32"><title>586-sawsbuck-winter</title><path d="M21.15543.697l.02363.00772.02346-.00821V.35239C21.112.29418,21.04979.1958,20.92894.17966c-.14362-.01918-.214.02136-.17735.17659C20.8966.45753,21.18811.38519,21.15543.697Z" style="fill:#f7d684"/><path d="M19.356.47249c.00577-.12314-.00322-.24687.183-.25079a.18041.18041,0,0,0,.17906-.15662c-.10476-.095-.25308-.15243-.3491-.06177-.12987.12264-.05071.3113-.04185.47314A.08368.08368,0,0,1,19.356.47249Z" style="fill:#f7d684"/><path d="M10.85414.697l-.02362.00772L10.80706.69655V.35239c.09051-.05821.15272-.15659.27357-.17273.14362-.01918.214.02136.17736.17659C11.113.45753,10.82147.38519,10.85414.697Z" style="fill:#fae09f"/><path d="M12.65363.47249c-.00577-.12314.00321-.24687-.183-.25079a.18042.18042,0,0,1-.17907-.15662c.10476-.095.25309-.15243.34911-.06177.12987.12264.05071.3113.04184.47314A.08359.08359,0,0,0,12.65363.47249Z" style="fill:#fae09f"/><path d="M17.19647,20.51194l-.004,1.13977.00006.00012Q17.19443,21.082,17.19647,20.51194Z" style="fill:#b57135"/><path d="M17.19244,21.652a2.12631,2.12631,0,0,0,.004-1.14l-.3551.34082a9.57045,9.57045,0,0,1-.84088-3.71338v5.99585A8.04979,8.04979,0,0,0,17.309,22.9155Q17.25079,22.28379,17.19244,21.652Z" style="fill:#e3e5e5"/><path d="M17.06877,6.17694c-.03.22693.17985.23065.29959.28656.11388.053.11857-.10284.1653-.17241a9.668,9.668,0,0,1,.97326-1.487.65585.65585,0,0,1,.18027.33638c-.2586.3869-1.00108,1.38915-.68319,1.58336.1918.117.31395-.01477.4533-.09979a2.02237,2.02237,0,0,0,1.38314-1.00639c.14156-.26917.30719-.52563.45689-.79065.02954-.05231.09973-.11208.04638-.17226-.01933-.02167-.105.00842-.15743.02443q-.75.22878-1.49909.4613-.09007-.16833-.18027-.33638c.74765-.19325,1.49488-.3887,2.244-.5767.07806-.0196.16992-.08227.2399-.02153.01905.01656-.0421.13582-.077.20235-.28379.54053-.58567,1.07223-.851,1.6216a1.71319,1.71319,0,0,1-1.06395.9284c-.1441.04693-.36074.08034-.40305.18-.05977.1408.17123.23632.22817.38263.01021.0265.0236.05148.03554.07716l.03858.06.0147.05991a1.33328,1.33328,0,0,0-1.09369.11912c-.21775.12768-.495.18234-.58015.47276l-.08855.13058-.065-.03948a2.32652,2.32652,0,0,0-.34011,1.09445L16.56122,10.523a1.29438,1.29438,0,0,0-.56075-.17806V5.89453A6.21615,6.21615,0,0,1,17.06877,6.17694Z" style="fill:#b57135"/><path d="M18.62,26.1194a8.69817,8.69817,0,0,1-1.01928.69014c-.02693,1.0785-1.026,2.92667-1.29089,3.96773-.06373.25047.75057-.284.6682-.03634-.0248.07458-.10687.17269-.01085.26291l.96049-.04654c.05613-.15923.01411-.4264.14033-.46392.143-.04251.16637.23021.27721.33825.02528.02464.03939.07866.08175.05614.02161-.01148.02889-.06235.031-.09614.01823-.29381.042-.58759.04875-.88174.02525-1.10322.04316-2.2066.06795-3.30983C18.57829,26.43959,18.60436,26.27961,18.62,26.1194Z" style="fill:#edeeee"/><path d="M16.48669,10.89018c.11284-.10491.19193-.21589.07453-.36717l.18407-1.02765a1.68953,1.68953,0,0,1,.493-.356c.19235.12906.33431.03547.46558-.10546.18821-.09966.24093-.30146.34832-.46185.03058.01905.05929.05024.092.05521.29277.0439.36123.13693.29573.4279-.08882.39422-.18289.78733-.27461,1.181-.06177.05521-.0724.11125-.00255.16854q-.17154.31989-.34308.6395a.96954.96954,0,0,0-.14659.13016,1.95014,1.95014,0,0,1-1.6726.71625v-.7324A1.69937,1.69937,0,0,0,16.48669,10.89018Z" style="fill:#edeeee"/><path d="M20.467,25.15407a3.7173,3.7173,0,0,1-.85839.51,7.88219,7.88219,0,0,1-.32216,1.72691,6.12757,6.12757,0,0,0-.42637,1.45313c.002.14885.28944-.05381.29863.09546.06365-.14773.14-.04726.21445-.01171.20507.098.42191.20491.63909.07436.16585-.09969.17519.00669.21159.108.02155-.36628.19783-.341.2364-.29132.1156.14884-.05632.29132.472.29132-.12345-.62127-.386-1.97091-.48881-2.59787C20.36858,26.05534,20.51733,25.60746,20.467,25.15407Z" style="fill:#edeeee"/><path d="M20.22387,29.11018c-.0364-.10127-.04574-.20765-.21159-.108-.21718.13055-.434.0236-.63909-.07436-.07442-.03555-.1508-.136-.21445.01171-.0344.26263-.05984.527-.1069.78748-.02495.13806.00312.202.1426.24825a1.22912,1.22912,0,0,0,.93842.01389.20863.20863,0,0,0,.14921-.257C20.2532,29.5262,20.24236,29.31765,20.22387,29.11018Z" style="fill:#3a3333"/><path d="M18.05218,8.572c.03057.019.0593.05029.092.05521.29274.044.36121.137.29569.428-.08877.39428-.18282.78737-.27457,1.181l.05241.05381a11.24046,11.24046,0,0,0,.74616-2.24373.36408.36408,0,0,0-.05105-.32839,1.33305,1.33305,0,0,0-1.09359.11914c.28442-.0677.348.08105.31079.32136C18.10858,8.297,18.07842,8.43418,18.05218,8.572Z" style="fill:#f7c845"/><path d="M17.9277,30.9573l-.96049.04654a2.4062,2.4062,0,0,1-.068.44988c-.11533.33338.056.43227.33883.47894a1.47,1.47,0,0,0,.36574.04281c.36086-.03074.41252-.09038.38206-.45065C17.96985,31.33536,17.9473,31.14646,17.9277,30.9573Z" style="fill:#3a3333"/><path d="M20.7519,3.514c.12828.14164-.049.31739.05158.46213.163-.02052.19415-.15728.24449-.27714C21.05336,3.47074,20.95964,3.40112,20.7519,3.514Z" style="fill:#f7d684"/><path d="M18.21771,10.29l-.05241-.05381c-.06179.05528-.07243.11131-.00254.16853Z" style="fill:#e0ca59"/><path d="M18.85955,7.598l.03856.06Z" style="fill:#c48c49"/><path d="M16.56122,10.523c.1174.15128.03831.26226-.07453.36717a1.69937,1.69937,0,0,1-.48622.268V10.345A1.29438,1.29438,0,0,1,16.56122,10.523Z" style="fill:#51321b"/><path d="M18.42171,16.47982a1.0541,1.0541,0,0,0,.43115.76648c.20575.15307.45572-.01464.44534-.30525a.92.92,0,0,0-.391-.69683.31969.31969,0,0,0-.35144-.00672C18.44571,16.29259,18.44221,16.40278,18.42171,16.47982Z" style="fill:#de8490"/><path d="M19.6027,17.88052c.00182.122.03169.23652.17358.24471a.14.14,0,0,0,.1466-.16826c-.01781-.116-.03233-.25942-.19956-.26024C19.60547,17.69615,19.60375,17.79294,19.6027,17.88052Z" style="fill:#fff"/><path d="M20.17865,18.23289A4.56615,4.56615,0,0,0,18.968,15.84006a3.75162,3.75162,0,0,1-1.08429-2.67859c-.04541-.70544-.06549-1.41076-.064-2.11731a.973.973,0,0,0-.1466.13013,1.94991,1.94991,0,0,1-1.67261.71631v4.26416a16.62918,16.62918,0,0,0,1.196,4.35718q-.002.57-.004,1.13989l-.00006-.00012V21.652q.05832.63173.11658,1.26355a8.91,8.91,0,0,1,.32,2.89844c-.01618.33154-.01923.66357-.02826.99561a8.67487,8.67487,0,0,0,1.01929-.69019,19.57209,19.57209,0,0,1,.56732-2.47925c.01422-.04931.0001-.13379.07165-.13635.077-.003.05786.08362.07318.13147a5.37244,5.37244,0,0,1,.27643,2.02881,3.719,3.719,0,0,0,.8584-.51,6.52818,6.52818,0,0,0,.08258-1.16919A21.97808,21.97808,0,0,0,20.17865,18.23289Zm-1.4953,2.85058.00641.00525-.00641-.00525Zm.09259.00586a.06608.06608,0,0,0-.02747-.07129l-.02166.02173.02166-.02173A.06589.06589,0,0,1,18.77594,21.08933Zm.0769-3.843a1.05475,1.05475,0,0,1-.43115-.7666c.02051-.0769.024-.18713.134-.24219a.31958.31958,0,0,1,.35144.0066.92031.92031,0,0,1,.391.69677C19.30865,17.23166,19.05865,17.39939,18.85284,17.24631Zm.92347.87891c-.14191-.0083-.17176-.1228-.17347-.24487.00092-.08741.00263-.18433.12049-.1836.16723.00086.18176.14417.19952.26A.1399.1399,0,0,1,19.77631,18.12522Z" style="fill:#b57135"/><path d="M18.05218,8.572c.02624-.13783.0564-.27506.07784-.41363.03719-.24031-.02637-.38906-.31079-.32136-.21789.12775-.49517.18241-.5801.47258a.24662.24662,0,0,1,.35549-.003l.04058.04084L17.66637,8.4c.03746.00554.04354.03008.0375.062a.67438.67438,0,0,1,0,.572C17.892,8.93431,17.94481,8.73258,18.05218,8.572Z" style="fill:#fcfcfa"/><path d="M17.66637,8.4l-.03117-.05257-.04058-.04084a.24662.24662,0,0,0-.35549.003l-.08881.13093-.01662.01661-.04432.11761a.70356.70356,0,0,0,.14886.56458c.19241.12915.33437.03553.46561-.1054a.67437.67437,0,0,0,0-.572L17.643,8.46178c.011.09109.00168.1708-.11742.167A.094.094,0,0,1,17.4347,8.541c-.00958-.11053.05806-.14288.156-.13482Z" style="fill:#251e1b"/><path d="M17.23824,9.13933a.70361.70361,0,0,1-.14889-.56452l.00058-.11707a.18459.18459,0,0,1-.00451-.0569,2.32721,2.32721,0,0,0-.34016,1.09452A1.6903,1.6903,0,0,1,17.23824,9.13933Z" style="fill:#f7c845"/><path d="M17.08542,8.40084a.18529.18529,0,0,0,.00449.05691l.04379-.00061.01662-.01661Z" style="fill:#e4dcad"/><path d="M20.34373,4.65476c-.01935-.02173-.105.0083-.15741.02441q-.75009.22889-1.49914.46119a9.573,9.573,0,0,0-.74982.96948c-.25861.38684-.25122.4198.06665.614.19177.11707.314-.01489.45331-.09985h0a2.02239,2.02239,0,0,0,1.38311-1.00635c.14154-.26916.30719-.52563.45691-.79065C20.32688,4.77463,20.39707,4.71482,20.34373,4.65476Z" style="fill:#4f4032"/><path d="M17.66637,8.4l-.07563.00619.05224.05563.06089.00014C17.70991,8.43,17.70383,8.4055,17.66637,8.4Z" style="fill:#4c4744"/><path d="M17.59462,8.30655l.04058.04084Z" style="fill:#4c4744"/><path d="M17.643,8.46178l-.05224-.05563c-.098-.00806-.16562.02429-.156.13482a.094.094,0,0,0,.09086.08778C17.64466,8.63258,17.654,8.55287,17.643,8.46178Z" style="fill:#dfdedd"/><path d="M17.1337,8.45714l-.04379.00061-.00056.11706Z" style="fill:#b3afa4"/><path d="M16.00037,16.17822l-.00013.3313a18.41547,18.41547,0,0,0,1.07764,3.84693A20.07024,20.07024,0,0,1,16.00037,16.17822Z" style="fill:#f7c845"/><path d="M17.19635,20.5355a.35858.35858,0,0,1-.05658-.07056q-.00192.54786-.00378,1.09558c.02075.03711.03509.07825.05639.11487Q17.1943,21.10557,17.19635,20.5355Z" style="fill:#f7c845"/><path d="M17.13977,20.46484a1.04581,1.04581,0,0,1-.06189-.10839,18.41547,18.41547,0,0,1-1.07764-3.84693c-.00012.21411-.00024.47534-.00024.64771a9.09527,9.09527,0,0,0,1.136,4.40332Q17.13782,21.01269,17.13977,20.46484Z" style="fill:#f7c845"/><path d="M19.56717,3.70509c.1189-.12268.36945-.20971.29657-.39709-.08319-.21387-.29865.03857-.452-.02527-.08306.07422-.17187.14282-.24761.22388a.2346.2346,0,0,0-.05231.30847.16369.16369,0,0,0,.031.02856L19.55,3.7278h.00024A.22489.22489,0,0,1,19.56717,3.70509Z" style="fill:#f7d684"/><path d="M20.75189,3.51392l-1.30835.23364-.30957.08789a.08251.08251,0,0,1-.02209-.02039.23461.23461,0,0,1,.0523-.30847c.07575-.08105.16456-.14966.24762-.22388a3.36623,3.36623,0,0,1,.59736-.60815,2.57632,2.57632,0,0,1,.37884-.34741A1.88113,1.88113,0,0,0,21.15546.697c.03265-.31189-.25885-.2395-.40387-.34082a3.39124,3.39124,0,0,1-.14386.75379l-.0116.01159a3.955,3.955,0,0,1-.5578.94214l-.0932.11035c-.07666.04724-.13825.1687-.23761.115-.11133-.0603-.04437-.18664-.04047-.28369a2.59519,2.59519,0,0,1,.04-.279A4.297,4.297,0,0,0,19.7616.63818c-.01044-.1914.06067-.38891-.04352-.57312A.18043.18043,0,0,1,19.539.22168c-.18622.00391-.17724.12769-.183.25073L19.356.47253H19.356a5.88614,5.88614,0,0,1-.14319,1.37476q-.19053.75092-.381,1.50134l-.21161.56861a.743.743,0,0,1-.10523.09423l-.1242.0354a1.22976,1.22976,0,0,0-.76526.86036c-.0271.0603-.52942,1.20923-.55658,1.26953-.03015.22705.17975.231.2995.28662.11389.05322.11853-.10278.16528-.17236.06372-.364.491-.86841.51941-1.075a.76405.76405,0,0,1,.37683-.47387.99232.99232,0,0,1,.55872-.312q.90756-.2267,1.81488-.45411C20.70288,3.8313,20.88019,3.65552,20.75189,3.51392Z" style="fill:#edeeee"/><path d="M25.8269,14.96008c.10187-.36584-1.07684-.34192-1.89263-.23242,0,0,1.07965-1.01868.89648-1.39465-.18311-.37573-2.02545.69739-2.02545.69739s.60583-.61756.29883-.69739C15.55518,14.827,16,17.15723,16,17.15723l.00049,2.78c1.53961.41919,4.11572-1.01038,2.68286-2.02613,1.52441.11389,2.98541.18506,2.827-.83886,2.19849-.24085,3.32837-.61329,2.05866-1.282C24.48236,15.62329,25.725,15.32593,25.8269,14.96008Z" style="fill:#edeeee"/><path d="M14.8131,20.51194l.004,1.13977-.00006.00012Q14.81515,21.082,14.8131,20.51194Z" style="fill:#b57135"/><path d="M14.81713,21.652a2.12642,2.12642,0,0,1-.004-1.14l.35511.34082a9.57063,9.57063,0,0,0,.84088-3.71338v5.99585a8.04991,8.04991,0,0,1-1.30854-.21973Q14.75878,22.28379,14.81713,21.652Z" style="fill:#edeeee"/><path d="M14.94081,6.17694c.03.22693-.17986.23065-.2996.28656-.11387.053-.11857-.10284-.16529-.17241a9.66869,9.66869,0,0,0-.97326-1.487.65577.65577,0,0,0-.18027.33638c.2586.3869,1.00107,1.38915.68319,1.58336-.1918.117-.314-.01477-.4533-.09979a2.02238,2.02238,0,0,1-1.38315-1.00639c-.14155-.26917-.30719-.52563-.45688-.79065-.02954-.05231-.09973-.11208-.04638-.17226.01932-.02167.105.00842.15742.02443q.75.22878,1.4991.4613.09006-.16833.18027-.33638c-.74765-.19325-1.49489-.3887-2.24406-.5767-.078-.0196-.16991-.08227-.2399-.02153-.019.01656.0421.13582.077.20235.28379.54053.58567,1.07223.851,1.6216a1.71321,1.71321,0,0,0,1.064.9284c.14411.04693.36075.08034.40305.18.05977.1408-.17122.23632-.22816.38263-.01022.0265-.02361.05148-.03555.07716l-.03858.06-.0147.05991a1.3333,1.3333,0,0,1,1.0937.11912c.21774.12768.49505.18234.58015.47276l.08854.13058.065-.03948a2.32663,2.32663,0,0,1,.34011,1.09445l.18406,1.02765a1.29446,1.29446,0,0,1,.56076-.17806V5.89453A6.21591,6.21591,0,0,0,14.94081,6.17694Z" style="fill:#bf7d3c"/><path d="M13.38954,26.1194a8.699,8.699,0,0,0,1.01928.69014c.02694,1.0785,1.026,2.92667,1.29089,3.96773.06374.25047-.75056-.284-.6682-.03634.02481.07458.10687.17269.01085.26291l-.96049-.04654c-.05612-.15923-.0141-.4264-.14032-.46392-.143-.04251-.16637.23021-.27722.33825-.02528.02464-.03938.07866-.08175.05614-.0216-.01148-.02888-.06235-.031-.09614-.01824-.29381-.042-.58759-.04875-.88174-.02525-1.10322-.04316-2.2066-.06795-3.30983C13.43129,26.43959,13.40522,26.27961,13.38954,26.1194Z" style="fill:#f7f7f7"/><path d="M15.52289,10.89018c-.11284-.10491-.19193-.21589-.07454-.36717l-.18406-1.02765a1.68966,1.68966,0,0,0-.493-.356c-.19235.12906-.33432.03547-.46558-.10546-.18821-.09966-.24094-.30146-.34833-.46185-.03057.01905-.05928.05024-.092.05521-.29276.0439-.36123.13693-.29573.4279.08882.39422.18289.78733.27461,1.181.06177.05521.0724.11125.00256.16854q.17154.31989.34308.6395a.97.97,0,0,1,.14659.13016,1.95013,1.95013,0,0,0,1.6726.71625v-.7324A1.69937,1.69937,0,0,1,15.52289,10.89018Z" style="fill:#f7f7f7"/><path d="M11.54255,25.15407a3.71688,3.71688,0,0,0,.85839.51A7.8816,7.8816,0,0,0,12.7231,27.391a6.128,6.128,0,0,1,.42637,1.45313c-.002.14885-.28945-.05381-.29864.09546-.06364-.14773-.14-.04726-.21444-.01171-.20508.098-.42191.20491-.6391.07436-.16585-.09969-.17518.00669-.21158.108-.02155-.36628-.19784-.341-.23641-.29132-.11559.14884.05632.29132-.472.29132.12345-.62127.386-1.97091.48882-2.59787C11.641,26.05534,11.49224,25.60746,11.54255,25.15407Z" style="fill:#f7f7f7"/><path d="M11.78571,29.11018c.0364-.10127.04573-.20765.21158-.108.21719.13055.434.0236.6391-.07436.07442-.03555.1508-.136.21444.01171.03441.26263.05984.527.10691.78748.025.13806-.00312.202-.1426.24825a1.22914,1.22914,0,0,1-.93843.01389.20863.20863,0,0,1-.1492-.257C11.75638,29.5262,11.76721,29.31765,11.78571,29.11018Z" style="fill:#413b3b"/><path d="M13.9574,8.572c-.03057.019-.05931.05029-.092.05521-.29274.044-.36121.137-.2957.428.08877.39428.18283.78737.27458,1.181l-.05242.05381a11.24174,11.24174,0,0,1-.74616-2.24373.36411.36411,0,0,1,.05105-.32839,1.333,1.333,0,0,1,1.09359.11914c-.28442-.0677-.348.08105-.31079.32136C13.901,8.297,13.93116,8.43418,13.9574,8.572Z" style="fill:#ffd04d"/><path d="M14.08187,30.9573l.96049.04654a2.40621,2.40621,0,0,0,.068.44988c.11533.33338-.056.43227-.33883.47894a1.47,1.47,0,0,1-.36575.04281c-.36085-.03074-.41251-.09038-.38205-.45065C14.03973,31.33536,14.06227,31.14646,14.08187,30.9573Z" style="fill:#413b3b"/><path d="M11.25768,3.514c-.12829.14164.049.31739-.05159.46213-.163-.02052-.19414-.15728-.24448-.27714C10.95621,3.47074,11.04994,3.40112,11.25768,3.514Z" style="fill:#fae09f"/><path d="M13.79186,10.29l.05242-.05381c.06178.05528.07243.11131.00254.16853Z" style="fill:#e0ca59"/><path d="M13.15,7.598l-.03856.06Z" style="fill:#c48c49"/><path d="M15.44835,10.523c-.11739.15128-.0383.26226.07454.36717a1.69937,1.69937,0,0,0,.48622.268V10.345A1.29446,1.29446,0,0,0,15.44835,10.523Z" style="fill:#604631"/><path d="M13.58787,16.47982a1.05413,1.05413,0,0,1-.43115.76648c-.20575.15307-.45572-.01464-.44534-.30525a.92.92,0,0,1,.391-.69683.31971.31971,0,0,1,.35145-.00672C13.56387,16.29259,13.56737,16.40278,13.58787,16.47982Z" style="fill:#de8490"/><path d="M12.40687,17.88052c-.00182.122-.03168.23652-.17357.24471a.14.14,0,0,1-.14661-.16826c.01781-.116.03234-.25942.19957-.26024C12.40411,17.69615,12.40583,17.79294,12.40687,17.88052Z" style="fill:#fff"/><path d="M11.45995,23.98484a6.5291,6.5291,0,0,0,.08258,1.16919,3.71924,3.71924,0,0,0,.8584.51,5.37284,5.37284,0,0,1,.27643-2.02881c.01532-.04785-.00378-.13452.07318-.13147.07154.00256.05744.087.07166.13635a19.57382,19.57382,0,0,1,.56732,2.47925,8.674,8.674,0,0,0,1.01929.69019c-.009-.332-.01209-.66407-.02826-.99561a8.90973,8.90973,0,0,1,.32-2.89844q.05823-.63171.11658-1.26355v-.00024l-.00006.00012q-.00192-.56982-.004-1.13989a16.62918,16.62918,0,0,0,1.196-4.35718V11.8906a1.94991,1.94991,0,0,1-1.67261-.71631.973.973,0,0,0-.14661-.13013c.00147.70655-.01861,1.41187-.064,2.11731a3.75166,3.75166,0,0,1-1.08429,2.67859,4.56608,4.56608,0,0,0-1.21063,2.39283A21.97765,21.97765,0,0,0,11.45995,23.98484Zm1.86628-2.90137-.00641.00525.00641-.00525ZM13.2611,21.018l.02167.02173L13.2611,21.018a.06609.06609,0,0,0-.02746.07129A.0659.0659,0,0,1,13.2611,21.018Zm-.54974-4.07715a.92025.92025,0,0,1,.391-.69677.31958.31958,0,0,1,.35144-.0066c.11.05506.11353.16529.134.24219a1.05472,1.05472,0,0,1-.43115.7666C12.95092,17.39939,12.70092,17.23166,12.71136,16.94089Zm-.62464,1.01587c.01777-.11584.03229-.25915.19953-.26.11786-.00073.11957.09619.12048.1836-.00171.12207-.03155.23657-.17346.24487A.13991.13991,0,0,1,12.08672,17.95676Z" style="fill:#bf7d3c"/><path d="M13.9574,8.572c-.02624-.13783-.0564-.27506-.07785-.41363-.03719-.24031.02637-.38906.31079-.32136.21789.12775.49518.18241.5801.47258a.24662.24662,0,0,0-.35549-.003l-.04057.04084L14.34321,8.4c-.03746.00554-.04354.03008-.0375.062a.67434.67434,0,0,0,0,.572C14.11755,8.93431,14.06477,8.73258,13.9574,8.572Z" style="fill:#fcfcfa"/><path d="M14.34321,8.4l.03117-.05257.04057-.04084a.24662.24662,0,0,1,.35549.003l.08882.13093.01662.01661.04431.11761a.70348.70348,0,0,1-.14886.56458c-.1924.12915-.33437.03553-.46561-.1054a.67433.67433,0,0,1,0-.572l.06088-.00014c-.011.09109-.00168.1708.11743.167a.094.094,0,0,0,.09085-.08778c.00959-.11053-.05806-.14288-.156-.13482Z" style="fill:#251e1b"/><path d="M14.77133,9.13933a.70354.70354,0,0,0,.14889-.56452l-.00058-.11707a.1846.1846,0,0,0,.00452-.0569,2.32721,2.32721,0,0,1,.34016,1.09452A1.69035,1.69035,0,0,0,14.77133,9.13933Z" style="fill:#ffd04d"/><path d="M14.92416,8.40084a.1856.1856,0,0,1-.00449.05691l-.04379-.00061-.01662-.01661Z" style="fill:#e4dcad"/><path d="M11.66585,4.65476c.01934-.02173.105.0083.1574.02441q.75011.22889,1.49915.46119a9.57441,9.57441,0,0,1,.74982.96948c.2586.38684.25122.4198-.06665.614-.19178.11707-.314-.01489-.45331-.09985h0a2.02241,2.02241,0,0,1-1.38312-1.00635c-.14154-.26916-.30719-.52563-.45691-.79065C11.68269,4.77463,11.6125,4.71482,11.66585,4.65476Z" style="fill:#604631"/><path d="M14.34321,8.4l.07562.00619-.05224.05563-.06088.00014C14.29967,8.43,14.30575,8.4055,14.34321,8.4Z" style="fill:#4c4744"/><path d="M14.415,8.30655l-.04057.04084Z" style="fill:#4c4744"/><path d="M14.36659,8.46178l.05224-.05563c.098-.00806.16563.02429.156.13482a.094.094,0,0,1-.09085.08778C14.36491,8.63258,14.35561,8.55287,14.36659,8.46178Z" style="fill:#dfdedd"/><path d="M14.87588,8.45714l.04379.00061.00055.11706Z" style="fill:#b3afa4"/><path d="M16.00921,16.17822c0,.03784.00006.17359.00012.3313a18.41486,18.41486,0,0,1-1.07764,3.84693A20.07094,20.07094,0,0,0,16.00921,16.17822Z" style="fill:#ffd04d"/><path d="M14.81323,20.5355a.359.359,0,0,0,.05657-.07056q.00194.54786.00379,1.09558c-.02075.03711-.0351.07825-.0564.11487Q14.81527,21.10557,14.81323,20.5355Z" style="fill:#ffd04d"/><path d="M14.8698,20.46484a1.04217,1.04217,0,0,0,.06189-.10839,18.41486,18.41486,0,0,0,1.07764-3.84693c.00012.21411.00025.47534.00025.64771a9.09538,9.09538,0,0,1-1.136,4.40332Q14.87176,21.01269,14.8698,20.46484Z" style="fill:#ffd04d"/><path d="M12.44241,3.70509c-.1189-.12268-.36945-.20971-.29657-.39709.08319-.21387.29864.03857.452-.02527.08307.07422.17188.14282.24762.22388a.2346.2346,0,0,1,.05231.30847.16343.16343,0,0,1-.031.02856l-.40716-.11584h-.00025A.22481.22481,0,0,0,12.44241,3.70509Z" style="fill:#fae09f"/><path d="M11.25768,3.51392l1.30835.23364.30957.08789a.08239.08239,0,0,0,.0221-.02039.23461.23461,0,0,0-.05231-.30847c-.07574-.08105-.16455-.14966-.24762-.22388a3.36617,3.36617,0,0,0-.59735-.60815,2.57639,2.57639,0,0,0-.37885-.34741A1.8811,1.8811,0,0,1,10.85412.697C10.82147.38513,11.113.45752,11.258.3562a3.39067,3.39067,0,0,0,.14386.75379l.0116.01159a3.95464,3.95464,0,0,0,.5578.94214l.0932.11035c.07666.04724.13824.1687.23761.115.11132-.0603.04437-.18664.04046-.28369a2.59268,2.59268,0,0,0-.04-.279A4.29644,4.29644,0,0,1,12.248.63818c.01044-.1914-.06067-.38891.04352-.57312a.18042.18042,0,0,0,.17907.15662c.18622.00391.17725.12769.183.25073l-.00006.00012h.00006a5.885,5.885,0,0,0,.14319,1.37476q.19051.75092.381,1.50134l.21161.56861a.74294.74294,0,0,0,.10522.09423l.12421.0354a1.22981,1.22981,0,0,1,.76526.86036c.0271.0603.52942,1.20923.55658,1.26953.03015.22705-.17975.231-.2995.28662-.11389.05322-.11853-.10278-.16529-.17236-.06372-.364-.491-.86841-.51941-1.075a.764.764,0,0,0-.37683-.47387.99229.99229,0,0,0-.55871-.312q-.90756-.2267-1.81488-.45411C11.30669,3.8313,11.12939,3.65552,11.25768,3.51392Z" style="fill:#f7f7f7"/><path d="M6.18267,14.96008c-.10187-.36584,1.07684-.34192,1.89264-.23242,0,0-1.07965-1.01868-.89648-1.39465.1831-.37573,2.02545.69739,2.02545.69739s-.60584-.61756-.29883-.69739c7.54894,1.494,7.10413,3.82422,7.10413,3.82422l-.00049,2.78c-1.53961.41919-4.11573-1.01038-2.68286-2.02613-1.52442.11389-2.98542.18506-2.827-.83886-2.19849-.24085-3.32837-.61329-2.05865-1.282C7.52721,15.62329,6.28454,15.32593,6.18267,14.96008Z" style="fill:#f7f7f7"/></svg>