<svg xmlns="http://www.w3.org/2000/svg" viewBox="0 0 32 32"><title>588-karrablast</title><rect x="13.23988" y="16.54656" width="5.61548" height="2.3433" style="fill:#fff"/><path d="M15.7992,3.14133a1.6481,1.6481,0,0,1-1.87605-1.79478,3.13884,3.13884,0,0,0-.04326-.9969c-.099-.30879-.29684-.4334-.58029-.291a2.236,2.236,0,0,0-1.3257,1.42014,2.46842,2.46842,0,0,0,.81014,2.628,1.0959,1.0959,0,0,1,.435,1.031,5.8053,5.8053,0,0,1-.08514.75526,3.46538,3.46538,0,0,1-1.59753,2.32358,14.21037,14.21037,0,0,0-3.64428,3.259,10.73968,10.73968,0,0,0-2.19073,5.87164,8.92322,8.92322,0,0,0,.96123-.06133,1.494,1.494,0,0,1,1.47147.69021,2.1918,2.1918,0,0,1-1.15614,3.49384.73338.73338,0,0,1-.617-.10718c-.133-.09024-.26464-.18257-.39684-.27425a9.1774,9.1774,0,0,0,.49167,1.966,10.14061,10.14061,0,0,0,2.40468,4.01069l.02317-.08281a8.24544,8.24544,0,0,1-.09185-1.02224,1.39715,1.39715,0,0,1-.04883-.63065,8.22136,8.22136,0,0,1,.34664-2.90677c-.00435-.07845-.04164-.16529.055-.21856a5.27476,5.27476,0,0,1,1.53586-2.31292,8.18427,8.18427,0,0,1-1.42965-3.007,7.19582,7.19582,0,0,1,3.65864-7.981c.06093-.032.12744-.05327.19136-.07942a2.08335,2.08335,0,0,1,1.0492-.4426,5.49312,5.49312,0,0,1,1.85-.227V3.1452C15.933,3.1431,15.86627,3.14391,15.7992,3.14133Z" style="fill:#46b080"/><path d="M15.38509,28.30228a12.89626,12.89626,0,0,1-4.34644-1.117,8.96328,8.96328,0,0,1-2.05949-1.30569c-.15763-.13171-.1799-.07425-.18733.08071a8.23018,8.23018,0,0,0,.09177,1.02208.171.171,0,0,1,.04753.15722q.14879.16876.29749.33768a10.841,10.841,0,0,0,4.01126,2.22237A19.71643,19.71643,0,0,0,16,30.17712V28.2984C15.79484,28.29727,15.59057,28.31842,15.38509,28.30228Z" style="fill:#aadb3d"/><path d="M5.70137,17.34708a8.87206,8.87206,0,0,0,.96123-.06128,1.49439,1.49439,0,0,1,1.47147.69017,2.19184,2.19184,0,0,1-1.15618,3.49392.7335.7335,0,0,1-.617-.10715c-.133-.09032-.26462-.1827-.39687-.27424a12.565,12.565,0,0,1-1.6003-1.761,3.88915,3.88915,0,0,1-.47738-.83729c-.16773-.44124-.07383-.66409.36611-.8435A5.54658,5.54658,0,0,1,5.70137,17.34708Z" style="fill:#4f4949"/><path d="M9.22862,27.47719a10.841,10.841,0,0,0,4.01126,2.22245,7.19315,7.19315,0,0,1-.97228,1.5825,3.04453,3.04453,0,0,1-.43775.43858.81035.81035,0,0,1-1.36212-.21454A8.41385,8.41385,0,0,1,9.511,28.89626C9.39447,28.42881,9.32134,27.95056,9.22862,27.47719Z" style="fill:#413b3b"/><path d="M8.8836,26.98238a.17111.17111,0,0,1,.04756.15721l-.07062-.07435Z" style="fill:#5cd16a"/><path d="M14.67865,21.427a1.94575,1.94575,0,0,1-1.49979-2.371,2.92356,2.92356,0,0,1,.60951-1.47954,2.79219,2.79219,0,0,1,.8944-.68972A2.87187,2.87187,0,0,1,16,16.54655v-5.0891a1.01671,1.01671,0,0,1-.64808-.26343A10.94836,10.94836,0,0,1,13.1883,8.92791c-.02768-.03584-.05827-.06941-.08748-.10412-.06392.02615-.13043.04746-.19136.07942a7.19582,7.19582,0,0,0-3.65864,7.981,8.18427,8.18427,0,0,0,1.42965,3.007,8.48326,8.48326,0,0,0,1.93279,1.60383A6.892,6.892,0,0,0,16,22.34879V21.611A4.96644,4.96644,0,0,1,14.67865,21.427Zm-2.09323-4.74642a1.9446,1.9446,0,0,1-1.76129-1.32587,3.104,3.104,0,0,1-.03317-2.09743c.206-.6405.60822-.77883,1.16244-.39724a7.25449,7.25449,0,0,1,.794.66325c.37182.34382.73024.70248,1.09238,1.05679a.862.862,0,0,1,.06085,1.37639A1.66349,1.66349,0,0,1,12.58542,16.68053Z" style="fill:#5a5353"/><path d="M15.9389,25.04863,15.8,25.0483a11.61941,11.61941,0,0,1-3.77761-.92136,3.41791,3.41791,0,0,1-.798-.39159,8.80611,8.80611,0,0,1-2.13488-1.31263,8.22136,8.22136,0,0,0-.34664,2.90677A10.69864,10.69864,0,0,0,16,28.00834v-2.96C15.9795,25.04717,15.95948,25.05056,15.9389,25.04863Z" style="fill:#aadb3d"/><path d="M12.61326,21.49507a8.48326,8.48326,0,0,1-1.93279-1.60383,5.27476,5.27476,0,0,0-1.53586,2.31292,9.29218,9.29218,0,0,0,2.08161,1.32264,15.67671,15.67671,0,0,0,2.48241.92895c.46487.11024.93209.21016,1.39826.31476.29773.02663.59538.03712.89311.036V22.34879A6.892,6.892,0,0,1,12.61326,21.49507Z" style="fill:#aadb3d"/><path d="M14.15,8.38119a2.08335,2.08335,0,0,0-1.0492.4426c.02921.03471.0598.06828.08748.10412A10.94836,10.94836,0,0,0,15.35192,11.194,1.01671,1.01671,0,0,0,16,11.45745V8.15424A5.49312,5.49312,0,0,0,14.15,8.38119Z" style="fill:#9fc9e4"/><path d="M8.74292,25.32949a1.39692,1.39692,0,0,0,.04891.63081c.00743-.155.0297-.21242.18733-.08071a8.96328,8.96328,0,0,0,2.05949,1.30569,12.89626,12.89626,0,0,0,4.34644,1.117c.20548.01614.40975-.005.61491-.00388v-.29006A10.69864,10.69864,0,0,1,8.74292,25.32949Z" style="fill:#9acc2e"/><path d="M14.68277,16.88666a2.72742,2.72742,0,0,1-.063,1.12248c-.10145.32945-.28248.37174-.51637.11929a.87838.87838,0,0,1-.31492-.55205,2.923,2.923,0,0,0-.60959,1.47954,1.94575,1.94575,0,0,0,1.49979,2.371A4.96644,4.96644,0,0,0,16,21.611V16.54655A2.87162,2.87162,0,0,0,14.68277,16.88666Z" style="fill:#e08c96"/><path d="M12.58542,16.68045a1.94437,1.94437,0,0,1-1.76125-1.3257,3.10369,3.10369,0,0,1-.03318-2.09746c.206-.64048.60817-.77884,1.16237-.39725a7.25049,7.25049,0,0,1,.794.66312c.37187.34394.73024.70253,1.09243,1.05686a.86189.86189,0,0,1,.06079,1.37635A1.66269,1.66269,0,0,1,12.58542,16.68045Zm.996-1.64671c-.00142-.35347-.22546-.65183-.48755-.64931-.26151.00252-.48214.30368-.48071.65616.00144.35344.2255.65183.48756.6493C13.36227,15.68737,13.58288,15.38624,13.58146,15.03374Z" style="fill:#b1e346"/><path d="M15.10689,24.77067c-.46617-.10476-.93339-.20468-1.39826-.31492a15.67671,15.67671,0,0,1-2.48241-.92895,9.29218,9.29218,0,0,1-2.08161-1.32264c-.09669.05327-.0594.14011-.055.21856a8.80611,8.80611,0,0,0,2.13488,1.31263,3.41791,3.41791,0,0,0,.798.39159A11.61941,11.61941,0,0,0,15.8,25.0483l.13889.00033c.02058.00177.0406-.00162.0611-.00033v-.2418C15.70227,24.8078,15.40462,24.7973,15.10689,24.77067Z" style="fill:#9acc2e"/><path d="M13.58146,15.03374c.00142.3525-.21919.65363-.4807.65615-.26206.00253-.48612-.29586-.48756-.6493-.00143-.35248.2192-.65364.48071-.65616C13.356,14.38191,13.58,14.68027,13.58146,15.03374Z" style="fill:#ef8c48"/><path d="M16.2008,3.14133a1.6481,1.6481,0,0,0,1.876-1.79478,3.13884,3.13884,0,0,1,.04326-.9969c.099-.30879.29684-.4334.58029-.291a2.236,2.236,0,0,1,1.3257,1.42013,2.46842,2.46842,0,0,1-.81014,2.628,1.0959,1.0959,0,0,0-.435,1.031,5.80565,5.80565,0,0,0,.08514.75527,3.46538,3.46538,0,0,0,1.59753,2.32357,14.21037,14.21037,0,0,1,3.64428,3.259,10.73968,10.73968,0,0,1,2.19073,5.87165,8.92579,8.92579,0,0,1-.96123-.06134,1.494,1.494,0,0,0-1.47147.69021,2.1918,2.1918,0,0,0,1.15614,3.49384.73334.73334,0,0,0,.617-.10718c.133-.09023.26464-.18256.39684-.27425a9.1774,9.1774,0,0,1-.49167,1.966,10.14054,10.14054,0,0,1-2.40468,4.01069l-.02317-.0828a8.24578,8.24578,0,0,0,.09185-1.02225,1.39715,1.39715,0,0,0,.04883-.63065,8.22139,8.22139,0,0,0-.34664-2.90677c.00435-.07844.04164-.16529-.05505-.21855a5.27464,5.27464,0,0,0-1.53586-2.31292,8.18442,8.18442,0,0,0,1.42965-3.007,7.19583,7.19583,0,0,0-3.65864-7.981c-.06093-.032-.12744-.05326-.19136-.07941A2.08318,2.08318,0,0,0,17.85,8.3812a5.49287,5.49287,0,0,0-1.85-.227V3.1452C16.067,3.1431,16.13373,3.14391,16.2008,3.14133Z" style="fill:#40a87b"/><path d="M16.61491,28.30228a12.89625,12.89625,0,0,0,4.34644-1.117,8.964,8.964,0,0,0,2.05949-1.30569c.15763-.13172.1799-.07426.18733.0807a8.23051,8.23051,0,0,1-.09177,1.02209.17094.17094,0,0,0-.04753.15721q-.14879.16876-.29749.33769a10.84111,10.84111,0,0,1-4.01126,2.22236A19.71643,19.71643,0,0,1,16,30.17712V28.29841C16.20516,28.29728,16.40943,28.31842,16.61491,28.30228Z" style="fill:#a2d336"/><path d="M26.29863,17.34708a8.86953,8.86953,0,0,1-.96123-.06128,1.49438,1.49438,0,0,0-1.47147.69018,2.19185,2.19185,0,0,0,1.15618,3.49392.7335.7335,0,0,0,.617-.10716c.133-.09032.26462-.18269.39687-.27423a12.56513,12.56513,0,0,0,1.6003-1.761,3.88915,3.88915,0,0,0,.47738-.83729c.16773-.44124.07383-.66409-.36611-.8435A5.54658,5.54658,0,0,0,26.29863,17.34708Z" style="fill:#413b3b"/><path d="M22.77138,27.47719a10.84087,10.84087,0,0,1-4.01126,2.22245,7.19315,7.19315,0,0,0,.97228,1.5825,3.044,3.044,0,0,0,.43775.43858.81035.81035,0,0,0,1.36212-.21453,8.41391,8.41391,0,0,0,.95677-2.60993C22.60553,28.42881,22.67866,27.95056,22.77138,27.47719Z" style="fill:#3a3333"/><path d="M23.1164,26.98238a.17111.17111,0,0,0-.04756.15721l.07062-.07435Z" style="fill:#5cd16a"/><path d="M16,21.611v.73783a6.89191,6.89191,0,0,0,3.38674-.85373,8.48321,8.48321,0,0,0,1.93279-1.60382,8.18442,8.18442,0,0,0,1.42965-3.007,7.19583,7.19583,0,0,0-3.65864-7.981c-.06093-.032-.12744-.05326-.19136-.07941-.02921.0347-.0598.06828-.08748.10411A10.94836,10.94836,0,0,1,16.64808,11.194,1.01671,1.01671,0,0,1,16,11.45745v5.08911a2.87185,2.87185,0,0,1,1.31723.3401,2.79222,2.79222,0,0,1,.8944.68973,2.92353,2.92353,0,0,1,.60951,1.47953,1.94575,1.94575,0,0,1-1.49979,2.371A4.96687,4.96687,0,0,1,16,21.611Zm2.09937-5.65455A.862.862,0,0,1,18.16022,14.58c.36214-.3543.72056-.713,1.09238-1.05678a7.25346,7.25346,0,0,1,.794-.66326c.55422-.38159.95647-.24325,1.16244.39724a3.104,3.104,0,0,1-.03317,2.09744,1.94461,1.94461,0,0,1-1.76129,1.32586A1.66347,1.66347,0,0,1,18.09937,15.95642Z" style="fill:#4f4949"/><path d="M16.0611,25.04863,16.2,25.04831A11.61992,11.61992,0,0,0,19.9776,24.127a3.41834,3.41834,0,0,0,.798-.3916,8.80611,8.80611,0,0,0,2.13488-1.31263,8.22139,8.22139,0,0,1,.34664,2.90677A10.69864,10.69864,0,0,1,16,28.00834v-2.96C16.0205,25.04718,16.04052,25.05057,16.0611,25.04863Z" style="fill:#a2d336"/><path d="M19.38674,21.49507a8.48321,8.48321,0,0,0,1.93279-1.60382,5.27464,5.27464,0,0,1,1.53586,2.31292,9.29249,9.29249,0,0,1-2.08161,1.32263,15.67573,15.67573,0,0,1-2.48241.92895c-.46487.11025-.93209.21016-1.39826.31476-.29773.02663-.59538.03713-.89311.036V22.3488A6.89191,6.89191,0,0,0,19.38674,21.49507Z" style="fill:#a2d336"/><path d="M17.85,8.3812a2.08318,2.08318,0,0,1,1.0492.4426c-.02921.0347-.0598.06828-.08748.10411A10.94836,10.94836,0,0,1,16.64808,11.194,1.01671,1.01671,0,0,1,16,11.45745V8.15425A5.49287,5.49287,0,0,1,17.85,8.3812Z" style="fill:#8ec0e0"/><path d="M23.25708,25.32949a1.39692,1.39692,0,0,1-.04891.63081c-.00743-.155-.0297-.21242-.18733-.0807a8.964,8.964,0,0,1-2.05949,1.30569,12.89625,12.89625,0,0,1-4.34644,1.117c-.20548.01614-.40975-.005-.61491-.00387v-.29007A10.69864,10.69864,0,0,0,23.25708,25.32949Z" style="fill:#93c427"/><path d="M17.31723,16.88666a2.72742,2.72742,0,0,0,.063,1.12248c.10145.32945.28248.37174.51637.11929a.87835.87835,0,0,0,.31492-.552,2.92294,2.92294,0,0,1,.60959,1.47953,1.94575,1.94575,0,0,1-1.49979,2.371A4.96687,4.96687,0,0,1,16,21.611V16.54656A2.87161,2.87161,0,0,1,17.31723,16.88666Z" style="fill:#de8490"/><path d="M18.0994,15.95638A.86189.86189,0,0,1,18.16019,14.58c.36219-.35433.72056-.71293,1.09243-1.05687a7.25049,7.25049,0,0,1,.794-.66312c.5542-.38159.95641-.24323,1.16237.39725a3.10368,3.10368,0,0,1-.03318,2.09746,1.94437,1.94437,0,0,1-1.76125,1.3257A1.66271,1.66271,0,0,1,18.0994,15.95638Zm.79984-.26648c.26206.00253.48612-.29587.48756-.64931.00143-.35248-.2192-.65363-.48071-.65616-.26209-.00252-.48613.29584-.48755.64931C18.41712,15.38624,18.63773,15.68737,18.89924,15.6899Z" style="fill:#aadb3d"/><path d="M16.89311,24.77067c.46617-.10476.93339-.20467,1.39826-.31492a15.67573,15.67573,0,0,0,2.48241-.92895,9.29249,9.29249,0,0,0,2.08161-1.32263c.09669.05326.0594.14011.05505.21855a8.80611,8.80611,0,0,1-2.13488,1.31263,3.41834,3.41834,0,0,1-.798.3916A11.61992,11.61992,0,0,1,16.2,25.04831l-.13889.00032c-.02058.00178-.0406-.00161-.0611-.00032v-.2418C16.29773,24.8078,16.59538,24.79731,16.89311,24.77067Z" style="fill:#93c427"/><path d="M18.41854,15.03374c-.00142.3525.21919.65363.4807.65616.26206.00253.48612-.29587.48756-.64931.00143-.35248-.2192-.65363-.48071-.65616C18.644,14.38191,18.42,14.68027,18.41854,15.03374Z" style="fill:#e8803a"/></svg>