<svg xmlns="http://www.w3.org/2000/svg" viewBox="0 0 32 32"><defs><style>.a{fill:#dbba8c;}.b{fill:#ff6b8b;}.c{fill:#5a5353;}.d{fill:#e0c193;}.e{fill:#e5c79a;}.f{fill:#eacea1;}.g{fill:#ff7898;}.h{fill:#84ed82;}.i{fill:#e6e2d8;}.j{fill:#e1dad0;}.k{fill:#c23734;}.l{fill:#bee758;}.m{fill:#efd4a7;}.n{fill:#cfab81;}.o{fill:#f0c151;}.p{fill:#93c427;}.q{fill:#d5b387;}.r{fill:#ff5f7e;}.s{fill:#4f4949;}.t{fill:#78df7c;}.u{fill:#b33533;}.v{fill:#b1e346;}.w{fill:#cda073;}.x{fill:#8fb720;}</style></defs><title>589-escavalier-shiny</title><path class="a" d="M5.89877,17.579q-2.42208-1.78512-4.84731-3.56593c-.07885-.058-.14809-.13657-.26211-.10719v.05939l.05519.18421c.04589.12974.08281.26362.13911.38859q1.20853,2.68529,2.42175,5.36819l.03954.06527a.19706.19706,0,0,1,.0185.0551,5.11017,5.11017,0,0,1,1.24875.00238c.03732-.122.07217-.24471.11235-.36588a1.14156,1.14156,0,0,1,1.133-.82514.54149.54149,0,0,0,.34357-.05844C6.50047,18.02712,6.50269,18.02426,5.89877,17.579Z"/><path class="b" d="M13.54673,1.3369a.20458.20458,0,0,0-.01128.28394,7.13966,7.13966,0,0,1,.81093,1.83275c.2413.75384.33516,1.54039.53588,2.3028.22558-.06923.3851-.282.6372-.29378.151-.09814.31943-.04987.48054-.06352V.07711A3.00133,3.00133,0,0,0,13.54673,1.3369Z"/><path class="c" d="M8.69419,19.37348l-1.47864.73011c-.02048-.03153-.06013-.064-.05861-.09446a1.1553,1.1553,0,0,0-.71088-1.15868,5.92908,5.92908,0,0,0,2.25143-1.43526,4.88712,4.88712,0,0,0,.41533-.416.374.374,0,0,1,.54379-.09292.78579.78579,0,0,1,.36224.48316,2.97588,2.97588,0,0,1,.09128,1.11076.36867.36867,0,0,1-.26148.321c-.35.15674-.693.329-1.03877.495Z"/><path class="a" d="M8.80988,19.31617c.34581-.166.68881-.33826,1.03877-.495a.36867.36867,0,0,0,.26148-.321,2.97588,2.97588,0,0,0-.09128-1.11076.78579.78579,0,0,0-.36224-.48316.374.374,0,0,0-.54379.09292,4.88712,4.88712,0,0,1-.41533.416c.036-.21321.06879-.427.1086-.63949a1.13839,1.13839,0,0,1,.83733-.9698c1.29776.626,1.31885,2.45727.87276,3.40424a1.60438,1.60438,0,0,1-.54322.614.58656.58656,0,0,1-.80253-.06617c-.12989-.11684-.23917-.25659-.35776-.386l.00011,0A.18086.18086,0,0,0,8.80988,19.31617Z"/><path class="d" d="M6.44606,18.85045a1.1553,1.1553,0,0,1,.71088,1.15868c-.00152.03044.03813.06293.05861.09446-.17056.27557-.19286.62493-.43137.86668a.47669.47669,0,0,1-.16371-.05207,4.93993,4.93993,0,0,0-1.90828-.8891c.03732-.122.07214-.24483.11238-.36587A1.14149,1.14149,0,0,1,5.95751,18.838a.54158.54158,0,0,0,.34355-.05845C6.33056,18.8417,6.39241,18.83769,6.44606,18.85045Z"/><path class="e" d="M13.73332,22.04992l-.04605.06622-.01239.11244a.12129.12129,0,0,1-.04788.12084.13156.13156,0,0,1-.004.05416.1858.1858,0,0,1-.00087.05891l.00429.47371c.15626.45434.36429.84754.91717.91487a.55721.55721,0,0,0,.6183-.72954c-.03319-.09814-.096-.181-.21288-.17215-.11331.00858-.13514.0937-.13443.19311.00048.05288.07869.15372-.06106.14038-.08154-.00778-.1087-.07877-.11441-.15213a.321.321,0,0,1,.12775-.31253.3072.3072,0,0,1,.3612.01175.62829.62829,0,0,1,.20724.7197.58357.58357,0,0,1-.585.45322,1.14428,1.14428,0,0,1-1.07351-.65982c-.0266-.05733-.059-.11164-.08877-.16738l-.0806.18215c-.01715.76892-.09417,1.53594-.06376,2.30629.00262.06464.02176.15706-.07082.17056-.11315.01667-.11879-.09576-.13006-.16277a5.82643,5.82643,0,0,1-.02239-1.29949c.03231-.5782.10981-1.15371.17071-1.73016a1.01824,1.01824,0,0,1,.04764-.16976,4.188,4.188,0,0,0-1.59565.28791,1.12055,1.12055,0,0,1-.16984.1137.58975.58975,0,0,0-.373.653,8.75132,8.75132,0,0,0,.619,3.0522A4.20035,4.20035,0,0,0,16,29.34455V20.57639A2.1741,2.1741,0,0,0,13.73332,22.04992Z"/><path class="f" d="M4.71219,20.0291a4.93993,4.93993,0,0,1,1.90828.8891.47669.47669,0,0,0,.16371.05207c.18444.27473.38349.541.54968.82637a2.80854,2.80854,0,0,1,.35088,1.17456c.01838.20071-.05652.29339-.24818.3635-.73813.27-1.46866.56077-2.202.84382A1.19808,1.19808,0,0,0,4.122,22.74822a1.80482,1.80482,0,0,0-1.67595.60875c-.45718-.57885-.82314-1.22009-1.24684-1.82179-.08789-.1248.01869-.17856.08114-.2441A3.84416,3.84416,0,0,1,3.326,20.07916a.85113.85113,0,0,0,.1374-.05252A5.105,5.105,0,0,1,4.71219,20.0291Z"/><path class="g" d="M2.44605,23.357a1.80482,1.80482,0,0,1,1.676-.60875,1.19808,1.19808,0,0,1,1.11255,1.4303l-.17754.64531c-.093.01485-.10888-.06433-.14478-.11888a1.37029,1.37029,0,0,0-2.07818-.42281c-.1042.06757-.1766.18977-.318.19767Z"/><path class="h" d="M13.43881,22.47253a4.1846,4.1846,0,0,0-1.59564.288l-.05816-.17786a4.66021,4.66021,0,0,0,1.30154-2.64109,10.86127,10.86127,0,0,0,.1748-2.59806,1.787,1.787,0,0,1,.49309.6025l-.139,1.72025a1.85532,1.85532,0,0,0-.03434.5894,16.85274,16.85274,0,0,0-.01183,2.148l-.01258.05813Z"/><path class="f" d="M2.5161,24.47981c.14135-.0079.21375-.1301.318-.19767a1.37029,1.37029,0,0,1,2.07818.42281c.0359.05455.05183.13373.14478.11888q-.17071.57261-.34135,1.14526a1.23978,1.23978,0,0,0-1.25131-.59485,2.099,2.099,0,0,0-.83218.41752Z"/><path class="g" d="M2.63217,25.79176a2.099,2.099,0,0,1,.83218-.41752,1.23978,1.23978,0,0,1,1.25131.59485l-.18643.8292c-.03668.0059-.08675.0304-.10811.015a1.44594,1.44594,0,0,0-1.7174.02522A8.30623,8.30623,0,0,1,2.63217,25.79176Z"/><path class="f" d="M2.70372,26.83854a1.44594,1.44594,0,0,1,1.7174-.02522c.02136.01537.07143-.00913.10811-.015l-.35982,1.31676a1.22043,1.22043,0,0,0-1.35214.00476A8.18172,8.18172,0,0,1,2.70372,26.83854Z"/><path class="g" d="M2.81727,28.11981a1.22043,1.22043,0,0,1,1.35214-.00476l-.4096,1.47814a1.35149,1.35149,0,0,0-.611-.06048.21656.21656,0,0,1-.27227-.18332l-.07833-1.12184.0041-.06049A.147.147,0,0,0,2.81727,28.11981Z"/><path class="f" d="M2.87655,29.34939a.21656.21656,0,0,0,.27227.18332,1.35149,1.35149,0,0,1,.611.06048l-.34764,1.36857c-.30927-.148-.35913-.11641-.37792.23926a11.34166,11.34166,0,0,1-.09079-1.18784A2.6398,2.6398,0,0,1,2.87655,29.34939Z"/><path class="g" d="M3.03425,31.201c.01879-.35567.06865-.38724.37792-.23926-.07768.28184-.15467.56389-.23381.84534-.01147.04081.00235.09583-.05478.11579a.61675.61675,0,0,1-.03212-.11014C3.07057,31.609,3.053,31.405,3.03425,31.201Z"/><path class="i" d="M8.80988,19.31617a.18086.18086,0,0,1,.0029.05584l-.11859.00147Z"/><path class="j" d="M3.40543,19.90629l.0395.06525Z"/><path class="j" d="M2.80232,28.16706l-.0041.06049a.24858.24858,0,0,1-.016-.04422C2.78152,28.17925,2.79524,28.17256,2.80232,28.16706Z"/><path class="c" d="M15.98626,17.18514a4.41865,4.41865,0,0,1-1.81615-.76447c-.19048.431-.4375.51452-.95814.32364l-.01231.13688.0617.46228a1.78745,1.78745,0,0,1,.49308.60234c.14586-.03255.20621.09338.29482.16262A3.991,3.991,0,0,0,16,19.0244v-1.83Z"/><path class="c" d="M15.47635,12.56619a7.38727,7.38727,0,0,0,.26544,3.877A.783.783,0,0,0,16,16.82974V11.70008A1.31326,1.31326,0,0,0,15.47635,12.56619Z"/><path class="c" d="M12.48584,12.36745c.00482-.1623-.01849-.292.10258-.34239.14106-.05866.21421.06792.28584.15692a1.661,1.661,0,0,1,.17427.27385,9.71353,9.71353,0,0,1,.85933,2.47957c.02614.12224.1046.318-.04018.3743-.16328.06348-.2505-.12578-.3126-.25284a14.42009,14.42009,0,0,1-1.01662-2.42434C12.5095,12.52892,12.49622,12.42093,12.48584,12.36745Z"/><path class="k" d="M13.57644,15.91354c-.03123.17428.00861.37-.15263.505a1.33141,1.33141,0,0,1-.149-.49127,1.09628,1.09628,0,0,1-.01132-.23236l.00871-.14151A.96082.96082,0,0,1,13.57644,15.91354Z"/><path class="l" d="M13.57642,15.91345c-.0312.17436.00866.37-.15261.505a1.33127,1.33127,0,0,1-.149-.49118,1.09849,1.09849,0,0,1-.01136-.23233q-.04716-.03954.00008,0l.00866-.14165-.061-.05367q-.17985-.20248-.35961-.40448a.19323.19323,0,0,0-.1172-.11957.11956.11956,0,0,0,.05685.11878,7.45305,7.45305,0,0,1,.37073,1.59534l.05.05463c.52064.19088.76766.10735.95814-.32364Q13.8733,16.16721,13.57642,15.91345Z"/><path class="e" d="M15.51946,5.46261c-.2521.01175-.41162.22455-.6372.29378.04415.62823.06154,1.25995.14412,1.88309.03922.296-.027.384-.30816.45482a3.90521,3.90521,0,0,0-3.13859,3.13128,5.94071,5.94071,0,0,0-.02993,2.03014l-.00731.11561.02613.00254.026-.00223.00881.0613a3.152,3.152,0,0,1,1.131,1.54262.19323.19323,0,0,1,.1172.11957q.17971.20225.35961.40448l.061.05367a.96074.96074,0,0,1,.30426.36017q.29681.25368.59369.50722a4.41865,4.41865,0,0,0,1.81615.76447c.01048-.00682.00588-.01762.01374-.02509v-.33031a.783.783,0,0,1-.25821-.38652,7.38727,7.38727,0,0,1-.26544-3.877A1.31326,1.31326,0,0,1,16,11.70008v-6.301C15.83889,5.41274,15.67048,5.36447,15.51946,5.46261Zm-1.65179,9.84707c-.16325.06352-.25051-.12577-.3126-.25282a14.41342,14.41342,0,0,1-1.01658-2.42429c-.029-.1037-.04224-.21168-.05265-.2652.00485-.16229-.0185-.29188.10259-.34238.141-.0586.21423.068.28585.1569a1.66144,1.66144,0,0,1,.17428.27394,9.71563,9.71563,0,0,1,.85929,2.47955C13.934,15.0575,14.0125,15.25346,13.86767,15.30968Z"/><path class="m" d="M13.19966,16.88119a.15318.15318,0,0,1-.04573-.09051.15318.15318,0,0,0,.04573.09051l.01231-.13688-.05-.05463a7.45305,7.45305,0,0,0-.37073-1.59534.11956.11956,0,0,1-.05685-.11878,3.152,3.152,0,0,0-1.131-1.54262l-.00881-.0613-.026.00223-.02613-.00254a1.31451,1.31451,0,0,0-1.574.37175,3.51061,3.51061,0,0,0-.6183.9271.545.545,0,0,0,.01381.65268,3.249,3.249,0,0,1,.27949.48292c1.29774.626,1.31887,2.45732.87279,3.40442a1.60551,1.60551,0,0,1-.54327.61394.58663.58663,0,0,1-.80251-.06623c-.1299-.11672-.23916-.25646-.35778-.386A5.19524,5.19524,0,0,0,9.836,22.21825a1.29106,1.29106,0,0,0,1.949.3643,4.6596,4.6596,0,0,0,1.30155-2.6409,10.86282,10.86282,0,0,0,.17484-2.59834Z"/><path class="l" d="M14.48327,20.14984a6.20389,6.20389,0,0,1-.6106-.21692c-.19715-.09576-.26845-.06241-.24932.15658a.19106.19106,0,0,1-.04224.16626,16.82653,16.82653,0,0,0-.01183,2.14782h.05383a.1329.1329,0,0,0,.00389-.05416.12541.12541,0,0,1,.04788-.121l.01239-.11228.04613-.06622A2.17425,2.17425,0,0,1,16,20.57623v-.08576A11.91679,11.91679,0,0,1,14.48327,20.14984Z"/><path class="n" d="M15.12811,22.83008a.30743.30743,0,0,0-.36126-.012.32146.32146,0,0,0-.12769.31274c.00574.07324.03284.14429.11444.1521.13971.01318.06146-.08765.061-.14038-.00074-.09961.021-.18457.1344-.19324.11688-.00891.17968.074.21289.17212a.55725.55725,0,0,1-.61829.72961c-.55286-.06738-.76093-.46044-.91718-.91479l-.00427-.47388-.06549-.00073-.11786.01086a1.01723,1.01723,0,0,0-.04767.1698c-.06085.57642-.13836,1.152-.17071,1.73a5.82816,5.82816,0,0,0,.0224,1.29957c.01129.067.01691.17944.13006.16284.0926-.01368.07343-.106.07087-.17066-.0304-.77026.04657-1.53735.06372-2.30615l.08062-.18225c.02973.05579.06214.11023.08875.16736a1.144,1.144,0,0,0,1.07349.65979.58324.58324,0,0,0,.585-.45325A.628.628,0,0,0,15.12811,22.83008Z"/><path class="o" d="M13.627,22.34933a.12513.12513,0,0,1,.04792-.1208A.12111.12111,0,0,1,13.627,22.34933Z"/><path class="o" d="M13.62219,22.46248l-.06546-.00072.01252-.05815q.02694,0,.05384-.00005A.18753.18753,0,0,1,13.62219,22.46248Z"/><path class="o" d="M13.68724,22.11614l.04612-.06622Z"/><path class="l" d="M14.04926,18.10843c-.08861-.06924-.149-.19517-.29482-.16246q-.06956.86016-.139,1.72032a7.44118,7.44118,0,0,0,1.72214.56279c.22026.03272.44163.0586.66245.087V19.0244A3.991,3.991,0,0,1,14.04926,18.10843Z"/><path class="p" d="M15.33755,20.22908a7.44118,7.44118,0,0,1-1.72214-.56279,1.85406,1.85406,0,0,0-.0343.58947.19106.19106,0,0,0,.04224-.16626c-.01913-.219.05217-.25234.24932-.15658a6.20389,6.20389,0,0,0,.6106.21692A11.91679,11.91679,0,0,0,16,20.49047v-.17436C15.77918,20.28768,15.55781,20.2618,15.33755,20.22908Z"/><path class="q" d="M26.10123,17.579q2.42208-1.78512,4.84731-3.56593c.07885-.058.14809-.13657.26211-.10719v.05939l-.05519.18421c-.04589.12974-.08281.26362-.13911.38859q-1.20853,2.68529-2.42175,5.36819l-.03954.06527a.19706.19706,0,0,0-.0185.0551,5.11017,5.11017,0,0,0-1.24875.00238c-.03732-.122-.07217-.24471-.11235-.36588a1.14156,1.14156,0,0,0-1.133-.82514.54149.54149,0,0,1-.34357-.05844C25.49953,18.02712,25.49731,18.02426,26.10123,17.579Z"/><path class="r" d="M18.45327,1.3369a.20458.20458,0,0,1,.01128.28394,7.13966,7.13966,0,0,0-.81093,1.83275c-.2413.75384-.33516,1.54039-.53588,2.3028-.22558-.06923-.3851-.282-.6372-.29378-.151-.09814-.31943-.04987-.48054-.06352V.07711A3.00133,3.00133,0,0,1,18.45327,1.3369Z"/><path class="s" d="M23.30581,19.37348l1.47864.73011c.02048-.03153.06013-.064.05861-.09446a1.1553,1.1553,0,0,1,.71088-1.15868,5.92908,5.92908,0,0,1-2.25143-1.43526,4.88712,4.88712,0,0,1-.41533-.416.374.374,0,0,0-.54379-.09292.78579.78579,0,0,0-.36224.48316,2.97588,2.97588,0,0,0-.09128,1.11076.36867.36867,0,0,0,.26148.321c.35.15674.693.329,1.03877.495Z"/><path class="q" d="M23.19012,19.31617c-.34581-.166-.68881-.33826-1.03877-.495a.36867.36867,0,0,1-.26148-.321,2.97588,2.97588,0,0,1,.09128-1.11076.78579.78579,0,0,1,.36224-.48316.374.374,0,0,1,.54379.09292,4.88712,4.88712,0,0,0,.41533.416c-.036-.21321-.06879-.427-.1086-.63949a1.13839,1.13839,0,0,0-.83733-.9698c-1.29776.626-1.31885,2.45727-.87276,3.40424a1.60438,1.60438,0,0,0,.54322.614.58656.58656,0,0,0,.80253-.06617c.12989-.11684.23917-.25659.35776-.386l-.00011,0A.18086.18086,0,0,1,23.19012,19.31617Z"/><path class="a" d="M25.55394,18.85045a1.1553,1.1553,0,0,0-.71088,1.15868c.00152.03044-.03813.06293-.05861.09446.17056.27557.19286.62493.43137.86668a.47669.47669,0,0,0,.16371-.05207,4.93993,4.93993,0,0,1,1.90828-.8891c-.03732-.122-.07214-.24483-.11238-.36587a1.14149,1.14149,0,0,0-1.13294-.82521.54158.54158,0,0,1-.34355-.05845C25.66944,18.8417,25.60759,18.83769,25.55394,18.85045Z"/><path class="d" d="M18.26668,22.04992l.046.06622.01239.11244a.12129.12129,0,0,0,.04788.12084.13156.13156,0,0,0,.004.05416.1858.1858,0,0,0,.00087.05891l-.00429.47371c-.15626.45434-.36429.84754-.91717.91487a.55721.55721,0,0,1-.6183-.72954c.03319-.09814.096-.181.21288-.17215.11331.00858.13514.0937.13443.19311-.00048.05288-.07869.15372.06106.14038.08154-.00778.1087-.07877.11441-.15213a.321.321,0,0,0-.12775-.31253.3072.3072,0,0,0-.3612.01175.62829.62829,0,0,0-.20724.7197.58357.58357,0,0,0,.58495.45322,1.14428,1.14428,0,0,0,1.07351-.65982c.0266-.05733.059-.11164.08877-.16738l.0806.18215c.01715.76892.09417,1.53594.06376,2.30629-.00262.06464-.02176.15706.07082.17056.11315.01667.11879-.09576.13006-.16277a5.82643,5.82643,0,0,0,.02239-1.29949c-.03231-.5782-.10981-1.15371-.17071-1.73016a1.0192,1.0192,0,0,0-.04764-.16976,4.188,4.188,0,0,1,1.59565.28791,1.12055,1.12055,0,0,0,.16984.1137.58975.58975,0,0,1,.373.653,8.75132,8.75132,0,0,1-.619,3.0522A4.20035,4.20035,0,0,1,16,29.34455V20.57639A2.1741,2.1741,0,0,1,18.26668,22.04992Z"/><path class="e" d="M27.28781,20.0291a4.93993,4.93993,0,0,0-1.90828.8891.47669.47669,0,0,1-.16371.05207c-.18444.27473-.38349.541-.54968.82637a2.80854,2.80854,0,0,0-.35088,1.17456c-.01838.20071.05652.29339.24818.3635.73813.27,1.46866.56077,2.202.84382a1.19808,1.19808,0,0,1,1.11255-1.4303,1.80482,1.80482,0,0,1,1.676.60875c.45718-.57885.82314-1.22009,1.24684-1.82179.08789-.1248-.01869-.17856-.08114-.2441A3.84416,3.84416,0,0,0,28.674,20.07916a.85113.85113,0,0,1-.1374-.05252A5.105,5.105,0,0,0,27.28781,20.0291Z"/><path class="b" d="M29.554,23.357a1.80482,1.80482,0,0,0-1.676-.60875,1.19808,1.19808,0,0,0-1.11255,1.4303l.17754.64531c.09295.01485.10888-.06433.14478-.11888a1.37029,1.37029,0,0,1,2.07818-.42281c.1042.06757.1766.18977.31795.19767Z"/><path class="t" d="M18.56119,22.47253a4.1846,4.1846,0,0,1,1.59564.288l.05816-.17786a4.66021,4.66021,0,0,1-1.30154-2.64109,10.86127,10.86127,0,0,1-.1748-2.59806,1.787,1.787,0,0,0-.49309.6025l.139,1.72025a1.85532,1.85532,0,0,1,.03434.5894,16.85274,16.85274,0,0,1,.01183,2.148l.01258.05813Z"/><path class="e" d="M29.4839,24.47981c-.14135-.0079-.21375-.1301-.31795-.19767a1.37029,1.37029,0,0,0-2.07818.42281c-.0359.05455-.05183.13373-.14478.11888q.17071.57261.34135,1.14526a1.23978,1.23978,0,0,1,1.25131-.59485,2.099,2.099,0,0,1,.83218.41752Z"/><path class="b" d="M29.36783,25.79176a2.099,2.099,0,0,0-.83218-.41752,1.23978,1.23978,0,0,0-1.25131.59485l.18643.8292c.03668.0059.08675.0304.10811.015a1.44594,1.44594,0,0,1,1.7174.02522A8.30623,8.30623,0,0,0,29.36783,25.79176Z"/><path class="e" d="M29.29628,26.83854a1.44594,1.44594,0,0,0-1.7174-.02522c-.02136.01537-.07143-.00913-.10811-.015l.35982,1.31676a1.22043,1.22043,0,0,1,1.35214.00476A8.18172,8.18172,0,0,0,29.29628,26.83854Z"/><path class="b" d="M29.18273,28.11981a1.22043,1.22043,0,0,0-1.35214-.00476l.4096,1.47814a1.35149,1.35149,0,0,1,.611-.06048.21656.21656,0,0,0,.27227-.18332l.07833-1.12184-.0041-.06049A.147.147,0,0,1,29.18273,28.11981Z"/><path class="e" d="M29.12345,29.34939a.21656.21656,0,0,1-.27227.18332,1.35149,1.35149,0,0,0-.611.06048l.34764,1.36857c.30927-.148.35913-.11641.37792.23926a11.34166,11.34166,0,0,0,.09079-1.18784A2.6398,2.6398,0,0,0,29.12345,29.34939Z"/><path class="b" d="M28.96575,31.201c-.01879-.35567-.06865-.38724-.37792-.23926.07768.28184.15467.56389.23381.84534.01147.04081-.00235.09583.05478.11579a.61675.61675,0,0,0,.03212-.11014C28.92943,31.609,28.947,31.405,28.96575,31.201Z"/><path class="i" d="M23.19012,19.31617a.18086.18086,0,0,0-.0029.05584l.11859.00147Z"/><path class="j" d="M28.59457,19.90629l-.0395.06525Z"/><path class="j" d="M29.19768,28.16706l.0041.06049a.24858.24858,0,0,0,.016-.04422C29.21848,28.17925,29.20476,28.17256,29.19768,28.16706Z"/><path class="s" d="M16.01374,17.18514a4.41865,4.41865,0,0,0,1.81615-.76447c.19048.431.4375.51452.95814.32364l.01231.13688-.0617.46228a1.78745,1.78745,0,0,0-.49308.60234c-.14586-.03255-.20621.09338-.29482.16262A3.991,3.991,0,0,1,16,19.0244v-1.83Z"/><path class="s" d="M16.52365,12.56619a7.38727,7.38727,0,0,1-.26544,3.877A.783.783,0,0,1,16,16.82974V11.70008A1.31326,1.31326,0,0,1,16.52365,12.56619Z"/><path class="s" d="M19.51416,12.36745c-.00482-.1623.01849-.292-.10258-.34239-.14106-.05866-.21421.06792-.28584.15692a1.661,1.661,0,0,0-.17427.27385,9.71353,9.71353,0,0,0-.85933,2.47957c-.02614.12224-.1046.318.04018.3743.16328.06348.2505-.12578.3126-.25284a14.42009,14.42009,0,0,0,1.01662-2.42434C19.4905,12.52892,19.50378,12.42093,19.51416,12.36745Z"/><path class="u" d="M18.42356,15.91354c.03123.17428-.00861.37.15263.505a1.33141,1.33141,0,0,0,.149-.49127,1.09628,1.09628,0,0,0,.01132-.23236l-.00871-.14151A.96082.96082,0,0,0,18.42356,15.91354Z"/><path class="v" d="M18.42358,15.91345c.0312.17436-.00866.37.15261.505a1.33127,1.33127,0,0,0,.149-.49118,1.09849,1.09849,0,0,0,.01136-.23233q.04716-.03954-.00008,0l-.00866-.14165.061-.05367q.17985-.20248.35961-.40448a.19323.19323,0,0,1,.1172-.11957.11956.11956,0,0,1-.05685.11878,7.45305,7.45305,0,0,0-.37073,1.59534l-.05.05463c-.52064.19088-.76766.10735-.95814-.32364Q18.1267,16.16721,18.42358,15.91345Z"/><path class="d" d="M16,5.39909v6.301a1.31326,1.31326,0,0,1,.52365.86611,7.38727,7.38727,0,0,1-.26544,3.877A.783.783,0,0,1,16,16.82974V17.16c.00786.00747.00326.01827.01374.02509a4.41865,4.41865,0,0,0,1.81615-.76447q.29681-.25346.59369-.50722a.96074.96074,0,0,1,.30426-.36017l.061-.05367q.17985-.20248.35961-.40448a.19323.19323,0,0,1,.1172-.11957,3.152,3.152,0,0,1,1.131-1.54262l.00881-.0613.026.00223.02613-.00254-.00731-.11561a5.94071,5.94071,0,0,0-.02993-2.03014A3.90521,3.90521,0,0,0,17.28178,8.0943c-.28116-.07083-.34738-.15881-.30816-.45482.08258-.62314.1-1.25486.14412-1.88309-.22558-.06923-.3851-.282-.6372-.29378C16.32952,5.36447,16.16111,5.41274,16,5.39909Zm2.09215,9.53629a9.71563,9.71563,0,0,1,.85929-2.47955,1.66144,1.66144,0,0,1,.17428-.27394c.07162-.08893.14483-.2155.28585-.1569.12109.0505.09774.18009.10259.34238-.01041.05352-.02367.1615-.05265.2652a14.41342,14.41342,0,0,1-1.01658,2.42429c-.06209.127-.14935.31634-.3126.25282C17.9875,15.25346,18.066,15.0575,18.09215,14.93538Z"/><path class="f" d="M18.80034,16.88119a.15318.15318,0,0,0,.04573-.09051.15318.15318,0,0,1-.04573.09051l-.01231-.13688.05-.05463a7.45305,7.45305,0,0,1,.37073-1.59534.11956.11956,0,0,0,.05685-.11878,3.152,3.152,0,0,1,1.131-1.54262l.00881-.0613.026.00223.02613-.00254a1.31451,1.31451,0,0,1,1.574.37175,3.51061,3.51061,0,0,1,.6183.9271.545.545,0,0,1-.01381.65268,3.249,3.249,0,0,0-.27949.48292c-1.29774.626-1.31887,2.45732-.87279,3.40442a1.60551,1.60551,0,0,0,.54327.61394.58663.58663,0,0,0,.80251-.06623c.1299-.11672.23916-.25646.35778-.386A5.19524,5.19524,0,0,1,22.164,22.21825a1.29106,1.29106,0,0,1-1.949.3643,4.6596,4.6596,0,0,1-1.30155-2.6409,10.86282,10.86282,0,0,1-.17484-2.59834Z"/><path class="v" d="M17.51673,20.14984a6.20389,6.20389,0,0,0,.6106-.21692c.19715-.09576.26845-.06241.24932.15658a.19106.19106,0,0,0,.04224.16626,16.82653,16.82653,0,0,1,.01183,2.14782h-.05383a.1329.1329,0,0,1-.00389-.05416.12541.12541,0,0,0-.04788-.121l-.01239-.11228-.04613-.06622A2.17425,2.17425,0,0,0,16,20.57623v-.08576A11.91679,11.91679,0,0,0,17.51673,20.14984Z"/><path class="w" d="M18.77954,24.37231c-.03235-.578-.10986-1.15356-.17071-1.73a1.01723,1.01723,0,0,0-.04767-.1698l-.11786-.01086-.06549.00073-.00427.47388c-.15625.45435-.36432.84741-.91718.91479a.55725.55725,0,0,1-.61829-.72961c.03321-.09814.096-.181.21289-.17212.11335.00867.13514.09363.1344.19324-.00042.05273-.07867.15356.061.14038.0816-.00781.1087-.07886.11444-.1521a.32146.32146,0,0,0-.12769-.31274.30743.30743,0,0,0-.36126.012.628.628,0,0,0-.20722.71948.58324.58324,0,0,0,.585.45325,1.144,1.144,0,0,0,1.07349-.65979c.02661-.05713.059-.11157.08875-.16736l.08062.18225c.01715.7688.09412,1.53589.06372,2.30615-.00256.0647-.02173.157.07087.17066.11315.0166.11877-.09583.13006-.16284A5.82816,5.82816,0,0,0,18.77954,24.37231Z"/><path class="o" d="M18.373,22.34933a.12513.12513,0,0,0-.04792-.1208A.12111.12111,0,0,0,18.373,22.34933Z"/><path class="o" d="M18.37781,22.46248l.06546-.00072-.01252-.05815q-.02694,0-.05384-.00005A.18753.18753,0,0,0,18.37781,22.46248Z"/><path class="o" d="M18.31276,22.11614l-.04612-.06622Z"/><path class="v" d="M17.95074,18.10843c.08861-.06924.149-.19517.29482-.16246q.06955.86016.139,1.72032a7.44118,7.44118,0,0,1-1.72214.56279c-.22026.03272-.44163.0586-.66245.087V19.0244A3.991,3.991,0,0,0,17.95074,18.10843Z"/><path class="x" d="M16.66245,20.22908a7.44118,7.44118,0,0,0,1.72214-.56279,1.85406,1.85406,0,0,1,.0343.58947.19106.19106,0,0,1-.04224-.16626c.01913-.219-.05217-.25234-.24932-.15658a6.20389,6.20389,0,0,1-.6106.21692A11.91679,11.91679,0,0,1,16,20.49047v-.17436C16.22082,20.28768,16.44219,20.2618,16.66245,20.22908Z"/></svg>