<?xml version="1.0" encoding="utf-8"?>
<!-- Generator: Adobe Illustrator 23.0.6, SVG Export Plug-In . SVG Version: 6.00 Build 0)  -->
<svg version="1.1" xmlns="http://www.w3.org/2000/svg" xmlns:xlink="http://www.w3.org/1999/xlink" x="0px" y="0px" width="32px"
	 height="32px" viewBox="0 0 32 32" enable-background="new 0 0 32 32" xml:space="preserve">
<g id="labels">
	<g>
	</g>
</g>
<g id="icons">
	<g>
		<path fill="#5A5353" d="M24,27c0-4.418-3.582-11-8-11s-8,6.582-8,11s3.582,5,8,5S24,31.418,24,27z"/>
		<path fill="#635C5C" d="M16,16c-4.418,0-8,6.582-8,11s3.582,5,8,5V16z"/>
		<path fill="#F5DEB9" d="M24,27c0-4.418-3.582-11-8-11s-8,6.582-8,11S24,31.418,24,27z"/>
		<path fill="#FCE8CC" d="M8,27c0,2.209,4,3.314,8,3.314V16C11.582,16,8,22.582,8,27z"/>
		<path fill="#F5DEB9" d="M8,27c0-9,5-10,5-19c0,0,1.425,0,3,0c1.063,0,2.194,0,3,0c0,9,5,10,5,19h-8H8z"/>
		<path fill="#FCE8CC" d="M16,27H8c0-9,5-10,5-19c0,0,1.425,0,3,0L16,27z"/>
		<path fill="#EFD4A7" d="M16,10.131c-1.107,0-2.163,0.088-3.142,0.245c-0.329,2.872-1.223,4.841-2.164,6.734
			c1.493,0.47,3.313,0.759,5.307,0.759s3.814-0.289,5.307-0.759c-0.942-1.892-1.835-3.861-2.164-6.734
			C18.163,10.219,17.107,10.131,16,10.131z"/>
		<path fill="#F5DEB9" d="M16,10.131c-1.107,0-2.163,0.088-3.142,0.245c-0.329,2.872-1.223,4.841-2.164,6.734
			c1.493,0.47,3.313,0.759,5.307,0.759V10.131z"/>
		<ellipse fill="#FF7898" cx="16" cy="22.5" rx="3" ry="2.5"/>
		<circle fill="#5A5353" cx="16" cy="22" r="1"/>
		<path fill="#635C5C" d="M16,21c-0.552,0-1,0.448-1,1s0.448,1,1,1V21z"/>
		<g>
			<path fill="#D84459" d="M27.996,13c0.564,0,1.03-0.469,1.003-1.032C28.638,4.572,23.65,0,16,0S3.362,4.572,3.001,11.968
				C2.974,12.531,3.44,13,4.004,13H16H27.996z"/>
		</g>
		<g>
			<path fill="#FCE8CC" d="M16,0C8.211,0,3.327,4.534,3.001,11.968C2.976,12.531,3.44,13,4.004,13H16V0z"/>
		</g>
		<path fill="#5A5353" d="M16,4c3.341,0,6.414-0.581,8.291-1.562c-0.313-0.229-0.64-0.442-0.98-0.641C21.547,2.557,18.892,3,16,3
			c-2.893,0-5.548-0.444-7.308-1.204c-0.34,0.198-0.667,0.412-0.98,0.64C9.585,3.418,12.657,4,16,4z"/>
		<path fill="#635C5C" d="M16,3c-2.893,0-5.602-0.466-7.362-1.226c-0.34,0.198-0.674,0.41-0.987,0.639C9.523,3.395,12.657,4,16,4V3z
			"/>
		<path fill="#5A5353" d="M28.999,12H16H3.001c-0.027,0.563,0.439,1,1.003,1H16h11.996C28.56,13,29.026,12.563,28.999,12z"/>
		<path fill="#635C5C" d="M16,12H3.001c-0.027,0.563,0.439,1,1.003,1H16V12z"/>
		<path fill="#EDEEEE" d="M20,17.616c0,1.105-0.672,2-1.5,2s-1.5-0.895-1.5-2c0-0.356,0-0.617,0.008-0.805
			c0.004-0.092,0.102-0.144,0.184-0.102c0.857,0.436,1.787,0.42,2.615,0c0.082-0.042,0.18,0.01,0.184,0.102
			C20,17,20,17.261,20,17.616z"/>
		<path fill="#2B3332" d="M18.083,16.98C18.035,17.134,18,17.305,18,17.5c0,0.552,0.224,1,0.5,1s0.5-0.448,0.5-1
			c0-0.195-0.035-0.367-0.084-0.521C18.64,17.021,18.362,17.022,18.083,16.98z"/>
		<path fill="#FFFFFF" d="M15,17.616c0,1.105-0.672,2-1.5,2s-1.5-0.895-1.5-2c0-0.356,0-0.617,0.008-0.805
			c0.004-0.092,0.102-0.144,0.184-0.102c0.857,0.436,1.787,0.42,2.615,0c0.082-0.042,0.18,0.01,0.184,0.102
			C15,17,15,17.261,15,17.616z"/>
		<path fill="#373F3F" d="M13.083,16.98C13.035,17.134,13,17.305,13,17.5c0,0.552,0.224,1,0.5,1s0.5-0.448,0.5-1
			c0-0.195-0.035-0.367-0.084-0.521C13.64,17.021,13.362,17.022,13.083,16.98z"/>
		<ellipse fill="#EFD4A7" cx="26" cy="24" rx="4.5" ry="5.5"/>
		<path fill="#D84459" d="M21.5,24c0-3.038,2.015-5.5,4.5-5.5s4.5,2.462,4.5,5.5H21.5z"/>
		<path fill="#5A5353" d="M26,30c-2.757,0-5-2.691-5-6s2.243-6,5-6s5,2.691,5,6S28.757,30,26,30z M26,19c-2.206,0-4,2.243-4,5
			s1.794,5,4,5s4-2.243,4-5S28.206,19,26,19z"/>
		<ellipse fill="#F5DEB9" cx="26" cy="24" rx="1.5" ry="2.5"/>
		<path fill="#5A5353" d="M26,27c-1.122,0-2-1.317-2-3s0.878-3,2-3s2,1.317,2,3S27.122,27,26,27z M26,22c-0.472,0-1,0.855-1,2
			s0.528,2,1,2s1-0.855,1-2S26.472,22,26,22z"/>
		<rect x="22" y="24" fill="#5A5353" width="3" height="1"/>
		<rect x="27.5" y="23.5" fill="#5A5353" width="3" height="1"/>
		<ellipse fill="#EFD4A7" cx="26" cy="24" rx="4.5" ry="5.5"/>
		<path fill="#D84459" d="M21.5,24c0-3.038,2.015-5.5,4.5-5.5s4.5,2.462,4.5,5.5H21.5z"/>
		<path fill="#5A5353" d="M26,30c-2.757,0-5-2.691-5-6s2.243-6,5-6s5,2.691,5,6S28.757,30,26,30z M26,19c-2.206,0-4,2.243-4,5
			s1.794,5,4,5s4-2.243,4-5S28.206,19,26,19z"/>
		<ellipse fill="#F5DEB9" cx="26" cy="24" rx="1.5" ry="2.5"/>
		<path fill="#5A5353" d="M26,27c-1.122,0-2-1.317-2-3s0.878-3,2-3s2,1.317,2,3S27.122,27,26,27z M26,22c-0.472,0-1,0.855-1,2
			s0.528,2,1,2s1-0.855,1-2S26.472,22,26,22z"/>
		<rect x="27.5" y="24" fill="#5A5353" width="3" height="1"/>
		<rect x="21.5" y="24" fill="#5A5353" width="3" height="1"/>
		<ellipse fill="#F5DEB9" cx="6" cy="24" rx="4.5" ry="5.5"/>
		<path fill="#E85160" d="M1.5,24c0-3.038,2.015-5.5,4.5-5.5s4.5,2.462,4.5,5.5H1.5z"/>
		<path fill="#635C5C" d="M6,30c-2.757,0-5-2.691-5-6s2.243-6,5-6s5,2.691,5,6S8.757,30,6,30z M6,19c-2.206,0-4,2.243-4,5
			s1.794,5,4,5s4-2.243,4-5S8.206,19,6,19z"/>
		<ellipse fill="#FCE8CC" cx="6" cy="24" rx="1.5" ry="2.5"/>
		<path fill="#635C5C" d="M6,27c-1.122,0-2-1.317-2-3s0.878-3,2-3s2,1.317,2,3S7.122,27,6,27z M6,22c-0.472,0-1,0.855-1,2
			s0.528,2,1,2s1-0.855,1-2S6.472,22,6,22z"/>
		<rect x="7.5" y="24" fill="#635C5C" width="3" height="1"/>
		<rect x="1.5" y="24" fill="#635C5C" width="3" height="1"/>
	</g>
</g>
</svg>
