<?xml version="1.0" encoding="utf-8"?>
<!-- Generator: Adobe Illustrator 23.0.6, SVG Export Plug-In . SVG Version: 6.00 Build 0)  -->
<svg version="1.1" xmlns="http://www.w3.org/2000/svg" xmlns:xlink="http://www.w3.org/1999/xlink" x="0px" y="0px" width="32px"
	 height="32px" viewBox="0 0 32 32" enable-background="new 0 0 32 32" xml:space="preserve">
<g id="labels">
	<g>
	</g>
</g>
<g id="icons">
	<g>
		<path fill="#E2EFF7" d="M0,23c0,1.26,0.228,3,2,3c1,0,1-1,2-1c0.937,0,1,1,2,1s2-1,2-2s3-3.5,3-3.5S8,23,0,23z"/>
		<path fill="#8EDDD9" d="M4.674,22.014c-0.323,0-0.633-0.004-0.928-0.007L3,22v-1l0.758,0.007c2.961,0.031,7.435,0.093,11.888-4.36
			l0.707,0.707C12.051,21.656,7.768,22.014,4.674,22.014z"/>
		<path fill="#8EDDD9" d="M4,20c-1,0-1,1-2,1s-2,0.028-2,2c0,1.395,1,2,2,2s1-1,2-1s1.984,0.865,2.961,0
			c1.497-1.326,2.876-2.86,4.039-3c1.268-0.152,1.767-1,1.767-1S10,21,8,21C6,21,6,20,4,20z"/>
		<g>
			<path fill="#D2E6F3" d="M32,23c0,1.26-0.228,3-2,3c-1,0-1-1-2-1c-0.937,0-1,1-2,1s-2-1-2-2s-3-3.5-3-3.5S24,23,32,23z"/>
			<path fill="#7CD8D5" d="M27.326,22.014c0.323,0,0.633-0.004,0.928-0.007L29,22v-1l-0.758,0.007
				c-2.961,0.031-7.435,0.093-11.888-4.36l-0.707,0.707C19.949,21.656,24.232,22.014,27.326,22.014z"/>
			<path fill="#7CD8D5" d="M28,20c1,0,1,1,2,1s2,0.028,2,2c0,1.395-1,2-2,2s-1-1-2-1s-1.984,0.865-2.961,0
				c-1.497-1.326-2.876-2.86-4.039-3c-1.268-0.152-1.767-1-1.767-1S22,21,24,21C26,21,26,20,28,20z"/>
		</g>
		<path fill="#66D3D3" d="M22,27.991c-0.732-1.464-3.874-2.927-5.506-3.607c0.004-0.134,0.006-0.266,0.006-0.393
			c0,0-0.188,0.068-0.5,0.192c-0.312-0.124-0.5-0.192-0.5-0.192c0,0.127,0.002,0.259,0.006,0.393
			c-1.632,0.68-4.774,2.143-5.506,3.607c-1,2,0.983,4.165,2,4c0-1,0-3,2-3c0.82,0,1.388-1.004,1.773-1.916
			c0.086-0.203,0.368-0.203,0.454,0c0.385,0.913,0.953,1.916,1.773,1.916c2,0,2,2,2,3C21.017,32.156,23,29.991,22,27.991z"/>
		<g>
			<path fill="#7CD8D5" d="M15.5,23.991c0,0.127,0.002,0.259,0.006,0.393c-1.632,0.68-4.774,2.143-5.506,3.607c-1,2,0.983,4.165,2,4
				c0-1,0-3,2-3c0.82,0,1.388-1.004,1.773-1.916c0.043-0.102,0.135-0.152,0.227-0.152v-2.739C15.688,24.059,15.5,23.991,15.5,23.991
				z"/>
		</g>
		<path fill="#7CD8D5" d="M24,26c-2-3-6-1-6-9h-2h-2c0,8-4,6-6,9s-0.062,6,2,6c0-2,1-3,3-4c1.446-0.723,2.369-2.034,2.77-3.035
			c0.084-0.21,0.377-0.21,0.461,0C16.631,25.966,17.554,27.277,19,28c2,1,3,2,3,4C24.062,32,26,29,24,26z"/>
		<g>
			<path fill="#8EDDD9" d="M14,17c0,8-4,6-6,9s-0.062,6,2,6c0-2,1-3,3-4c1.446-0.723,2.369-2.034,2.77-3.035
				c0.042-0.105,0.136-0.157,0.23-0.157V17H14z"/>
		</g>
		<path fill="#D2E6F3" d="M14,18c-3,0-6,0-7,1c0,1,1,3,4,3s3-2,5-2v-2H14z"/>
		<path fill="#E2EFF7" d="M11,22c1.209,0,1.931-0.325,2.493-0.713C13.333,20.4,13.366,19,12,19c-1.845,0-1.137,2.552-1.801,2.948
			C10.449,21.982,10.715,22,11,22z"/>
		<path fill="#C1DDEE" d="M18,18c3,0,6,0,7,1c0,1-1,3-4,3s-3-2-5-2v-2H18z"/>
		<path fill="#C1DDEE" d="M13,18h3h3c0,0-1,4.5-3,4.5S13,18,13,18z"/>
		<path fill="#D2E6F3" d="M16,22.5c-2,0-3-4.5-3-4.5h3V22.5z"/>
		<path fill="#D2E6F3" d="M16,19c-1.08,0-1.577,0.875-1.963,1.837C14.522,21.736,15.176,22.5,16,22.5s1.478-0.764,1.963-1.663
			C17.577,19.875,17.08,19,16,19z"/>
		<path fill="#E2EFF7" d="M16,19c-1.08,0-1.577,0.875-1.963,1.837C14.522,21.736,15.176,22.5,16,22.5V19z"/>
		<path fill="#D2E6F3" d="M21,22c-1.209,0-1.931-0.325-2.493-0.713C18.667,20.4,18.634,19,20,19c1.845,0,1.137,2.552,1.801,2.948
			C21.551,21.982,21.285,22,21,22z"/>
		<ellipse fill="#7CD8D5" cx="16" cy="11" rx="9" ry="8"/>
		<path fill="#8EDDD9" d="M16,19c-4.971,0-9-3.582-9-8s4.029-8,9-8V19z"/>
		<g>
			<ellipse fill="#4390BF" cx="12" cy="11.5" rx="2" ry="2.5"/>
			<ellipse fill="#D64F45" cx="12" cy="11.5" rx="1" ry="1.5"/>
			<circle fill="#FFFFFF" cx="11.5" cy="10.5" r="0.5"/>
		</g>
		<ellipse fill="#3E88B3" cx="20" cy="11.5" rx="2" ry="2.5"/>
		<ellipse fill="#D1473D" cx="20" cy="11.5" rx="1" ry="1.5"/>
		<circle fill="#EDEEEE" cx="20.5" cy="10.5" r="0.5"/>
		<path fill="#4390BF" d="M17.797,15.973c-0.977-0.762-2.618-0.762-3.595,0C14.12,16.037,14,15.98,14.001,15.875
			C14.016,14.897,15,14,16,14s1.984,0.897,1.999,1.875C18,15.98,17.88,16.037,17.797,15.973z"/>
		<g>
			<path fill="#3E88B3" d="M17.796,15.973c0.083,0.064,0.203,0.007,0.201-0.098C17.983,14.897,16.999,14,15.999,14v1.402
				C16.653,15.402,17.308,15.592,17.796,15.973z"/>
		</g>
		<path fill="#E2EFF7" d="M10.938,4.335C12.038,3.781,14,2.87,14,1.912c0-0.667-0.493-1.333-0.821-1.704
			c-0.083-0.093,0.005-0.236,0.125-0.203c0.502,0.138,1.363,0.455,2.029,1.121C15.891,1.684,16,1.912,16,3.912L10.938,4.335z"/>
		<path fill="#D2E6F3" d="M21,4.335c-1.1-0.554-3.062-1.465-3.062-2.423c0-0.667,0.493-1.333,0.821-1.704
			c0.083-0.093-0.005-0.236-0.125-0.203c-0.502,0.138-1.363,0.455-2.029,1.121c-0.558,0.558-0.667,0.786-0.667,2.786L21,4.335z"/>
		<path fill="#D2E6F3" d="M17.408,3.098l-1.176-2.94c-0.084-0.21-0.38-0.21-0.464,0l-1.176,2.94
			c-2.646,0.37-4.909,1.764-6.259,3.712l5.464-1.745c0.117-0.037,0.245,0.016,0.3,0.126l1.457,2.914c0.184,0.369,0.71,0.369,0.894,0
			l1.457-2.914c0.055-0.11,0.182-0.164,0.3-0.126l5.464,1.745C22.317,4.862,20.054,3.467,17.408,3.098z"/>
		<path fill="#E2EFF7" d="M15.768,0.157l-1.176,2.94c-2.646,0.37-4.909,1.764-6.259,3.712l5.464-1.745
			c0.117-0.037,0.245,0.016,0.3,0.126l1.457,2.914C15.645,8.29,15.822,8.382,16,8.382V0C15.905,0,15.81,0.052,15.768,0.157z"/>
		<path fill="#E2EFF7" d="M11.717,23.39c-1.246,0.863-2.734,1.119-3.728,2.61c-0.508,0.762-0.761,1.523-0.824,2.236
			c-0.017,0.189,0.173,0.329,0.348,0.254l3.362-1.441c0.072-0.031,0.125-0.093,0.144-0.169l0.826-3.305
			c0.013-0.051-0.008-0.105-0.052-0.135L11.717,23.39z"/>
		<path fill="#D2E6F3" d="M20.272,23.355c1.246,0.863,2.734,1.119,3.728,2.61c0.508,0.762,0.761,1.523,0.824,2.236
			c0.017,0.189-0.173,0.329-0.348,0.254l-3.362-1.441c-0.072-0.031-0.125-0.093-0.144-0.169l-0.826-3.305
			c-0.013-0.051,0.008-0.105,0.052-0.135L20.272,23.355z"/>
	</g>
</g>
</svg>
