<?xml version="1.0" encoding="utf-8"?>
<!-- Generator: Adobe Illustrator 23.0.6, SVG Export Plug-In . SVG Version: 6.00 Build 0)  -->
<svg version="1.1" xmlns="http://www.w3.org/2000/svg" xmlns:xlink="http://www.w3.org/1999/xlink" x="0px" y="0px" width="32px"
	 height="32px" viewBox="0 0 32 32" enable-background="new 0 0 32 32" xml:space="preserve">
<g id="labels">
	<g>
	</g>
</g>
<g id="icons">
	<g>
		<path fill="#66D3D3" d="M22,27.991c-0.732-1.464-3.874-2.927-5.506-3.607c0.004-0.134,0.006-0.266,0.006-0.393
			c0,0-0.188,0.068-0.5,0.192c-0.312-0.124-0.5-0.192-0.5-0.192c0,0.127,0.002,0.259,0.006,0.393
			c-1.632,0.68-4.774,2.143-5.506,3.607c-1,2,0.983,4.165,2,4c0-1,0-3,2-3c0.82,0,1.388-1.004,1.773-1.916
			c0.086-0.203,0.368-0.203,0.454,0c0.385,0.913,0.953,1.916,1.773,1.916c2,0,2,2,2,3C21.017,32.156,23,29.991,22,27.991z"/>
		<g>
			<path fill="#7CD8D5" d="M15.5,23.991c0,0.127,0.002,0.259,0.006,0.393c-1.632,0.68-4.774,2.143-5.506,3.607c-1,2,0.983,4.165,2,4
				c0-1,0-3,2-3c0.82,0,1.388-1.004,1.773-1.916c0.043-0.102,0.135-0.152,0.227-0.152v-2.739C15.688,24.059,15.5,23.991,15.5,23.991
				z"/>
		</g>
		<path fill="#7CD8D5" d="M24,26c-2-3-6-1-6-9h-2h-2c0,8-4,6-6,9s-0.062,6,2,6c0-2,1-3,3-4c1.446-0.723,2.369-2.034,2.77-3.035
			c0.084-0.21,0.377-0.21,0.461,0C16.631,25.966,17.554,27.277,19,28c2,1,3,2,3,4C24.062,32,26,29,24,26z"/>
		<g>
			<path fill="#8EDDD9" d="M14,17c0,8-4,6-6,9s-0.062,6,2,6c0-2,1-3,3-4c1.446-0.723,2.369-2.034,2.77-3.035
				c0.042-0.105,0.136-0.157,0.23-0.157V17H14z"/>
		</g>
		<path fill="#D2E6F3" d="M11.717,23.39c-1.246,0.863-2.734,1.119-3.728,2.61c-0.508,0.762-0.761,1.523-0.824,2.236
			c-0.017,0.189,0.173,0.329,0.348,0.254l3.362-1.441c0.072-0.031,0.125-0.093,0.144-0.169l0.826-3.305
			c0.013-0.051-0.008-0.105-0.052-0.135L11.717,23.39z"/>
		<path fill="#C1DDEE" d="M20.272,23.355c1.246,0.863,2.734,1.119,3.728,2.61c0.508,0.762,0.761,1.523,0.824,2.236
			c0.017,0.189-0.173,0.329-0.348,0.254l-3.362-1.441c-0.072-0.031-0.125-0.093-0.144-0.169l-0.826-3.305
			c-0.013-0.051,0.008-0.105,0.052-0.135L20.272,23.355z"/>
		<path fill="#D2E6F3" d="M20.475,23.249c0.375,0.144,0.769,0.214,1.16,0.214c0.94,0,1.862-0.406,2.451-1.171
			c0.518-0.672,1.258-1.093,2.081-1.093c1.003,0,1.883,0.625,2.387,1.568c0.143,0.268,0.427,0.443,0.727,0.443
			c0.025,0,0.049-0.001,0.074-0.004c0.047-0.005,0.096-0.007,0.144-0.007c0.094,0,0.19,0.009,0.288,0.027
			c0.632,0.118,1.126,0.652,1.202,1.29c0.108,0.91-0.6,1.683-1.489,1.683c-0.055,0-0.109-0.003-0.162-0.009
			c-0.036-0.004-0.072-0.006-0.107-0.006c-0.318,0-0.612,0.154-0.782,0.43C27.933,27.455,27.103,28,26.167,28
			c-1.012,0-1.9-0.637-2.401-1.595c-0.426-0.815-1.107-1.467-2-1.689C19.953,24.264,19.03,22.695,20.475,23.249z M22.879,26.869
			C23.578,28.203,24.807,29,26.167,29c1.228,0,2.384-0.676,3.103-1.811c0.076,0.007,0.153,0.011,0.231,0.011
			c0.714,0,1.395-0.306,1.869-0.84c0.474-0.534,0.697-1.248,0.613-1.961c-0.127-1.071-0.954-1.958-2.012-2.155
			C29.815,22.215,29.656,22.2,29.5,22.2c-0.04,0-0.079,0.001-0.115,0.003c-0.709-1.256-1.904-2.003-3.217-2.003
			c-1.1,0-2.148,0.541-2.874,1.483C22.917,22.172,21,23.2,19,23.2C22,25.2,22.69,26.506,22.879,26.869z"/>
		<path fill="#7CD8D5" d="M16,20.448c1.518,1.373,3.03,2.247,4.475,2.802c1.276,0.49,2.777,0.126,3.611-0.957
			c0.518-0.672,1.258-1.093,2.081-1.093c1.003,0,1.883,0.625,2.387,1.568c0.155,0.29,0.474,0.471,0.802,0.439
			c0.139-0.013,0.284-0.008,0.432,0.02c0.632,0.118,1.126,0.652,1.202,1.29c0.108,0.91-0.6,1.683-1.489,1.683
			c-0.055,0-0.109-0.003-0.162-0.009c-0.359-0.039-0.701,0.117-0.89,0.425C27.933,27.455,27.103,28,26.167,28
			c-1.012,0-1.9-0.637-2.401-1.595c-0.426-0.815-1.107-1.467-2-1.689c-1.813-0.452-3.774-1.314-5.766-2.947L16,20.448z"/>
		<g>
			<path fill="#E2EFF7" d="M10.234,24.716c-0.893,0.222-1.573,0.874-2,1.689C7.733,27.363,6.845,28,5.833,28
				c-0.936,0-1.766-0.545-2.282-1.384c-0.17-0.276-0.464-0.43-0.782-0.43c-0.036,0-0.071,0.002-0.107,0.006
				C2.608,26.197,2.554,26.2,2.5,26.2c-0.889,0-1.597-0.773-1.489-1.683c0.076-0.638,0.57-1.172,1.202-1.29
				C2.31,23.209,2.406,23.2,2.5,23.2c0.049,0,0.097,0.002,0.144,0.007c0.025,0.002,0.05,0.004,0.074,0.004
				c0.301,0,0.584-0.175,0.727-0.443C3.95,21.825,4.83,21.2,5.833,21.2c0.823,0,1.564,0.421,2.081,1.093
				c0.589,0.765,1.51,1.171,2.451,1.171c0.391,0,0.785-0.07,1.16-0.214C12.97,22.695,12.047,24.264,10.234,24.716z M13,23.2
				c-2,0-3.917-1.028-4.293-1.517C7.981,20.74,6.933,20.2,5.833,20.2c-1.313,0-2.509,0.746-3.217,2.003
				C2.579,22.201,2.54,22.2,2.5,22.2c-0.157,0-0.315,0.015-0.471,0.044c-1.058,0.197-1.885,1.084-2.012,2.155
				c-0.085,0.713,0.139,1.428,0.613,1.961C1.105,26.894,1.786,27.2,2.5,27.2c0.078,0,0.155-0.004,0.231-0.011
				C3.449,28.324,4.605,29,5.833,29c1.36,0,2.589-0.797,3.288-2.131C9.31,26.506,10,25.2,13,23.2z"/>
			<path fill="#8EDDD9" d="M16,20.448c-1.518,1.373-3.03,2.247-4.475,2.802c-1.276,0.49-2.777,0.126-3.611-0.957
				C7.397,21.621,6.656,21.2,5.833,21.2c-1.003,0-1.883,0.625-2.387,1.568c-0.155,0.29-0.474,0.471-0.802,0.439
				c-0.139-0.013-0.284-0.008-0.432,0.02c-0.632,0.118-1.126,0.652-1.202,1.29C0.903,25.427,1.611,26.2,2.5,26.2
				c0.055,0,0.109-0.003,0.162-0.009c0.359-0.039,0.701,0.117,0.89,0.425C4.067,27.455,4.897,28,5.833,28
				c1.012,0,1.9-0.637,2.401-1.595c0.426-0.815,1.107-1.467,2-1.689c1.813-0.452,3.774-1.314,5.766-2.947L16,20.448z"/>
		</g>
		<path fill="#E2EFF7" d="M10.938,4.335C12.038,3.781,14,2.87,14,1.912c0-0.667-0.493-1.333-0.821-1.704
			c-0.083-0.093,0.005-0.236,0.125-0.203c0.502,0.138,1.363,0.455,2.029,1.121C15.891,1.684,16,1.912,16,3.912L10.938,4.335z"/>
		<path fill="#D2E6F3" d="M21,4.335c-1.1-0.554-3.062-1.465-3.062-2.423c0-0.667,0.493-1.333,0.821-1.704
			c0.083-0.093-0.005-0.236-0.125-0.203c-0.502,0.138-1.363,0.455-2.029,1.121c-0.558,0.558-0.667,0.786-0.667,2.786L21,4.335z"/>
		<ellipse fill="#7CD8D5" cx="16" cy="11.5" rx="13" ry="9.5"/>
		<path fill="#8EDDD9" d="M16,21c-7.18,0-13-3-13-9.5S8.82,2,16,2V21z"/>
		<ellipse fill="#4390BF" cx="11.5" cy="9" rx="1.5" ry="2"/>
		<path fill="#D64F45" d="M12,9c0,1-0.224,1-0.5,1S11,10,11,9s0.224-0.5,0.5-0.5S12,8,12,9z"/>
		<circle fill="#FFFFFF" cx="11.5" cy="8.5" r="0.5"/>
		<ellipse fill="#4390BF" cx="21.5" cy="9" rx="1.5" ry="2"/>
		<path fill="#D64F45" d="M22,9c0,1-0.224,1-0.5,1S21,10,21,9s0.224-0.5,0.5-0.5S22,8,22,9z"/>
		<circle fill="#FFFFFF" cx="21.5" cy="8.5" r="0.5"/>
		<path fill="#D2E6F3" d="M19.681,4.009l-3.588-3.968c-0.05-0.055-0.136-0.055-0.185,0l-3.588,3.968
			c-0.086,0.095,0.01,0.243,0.132,0.202l2.43-0.81c0.065-0.022,0.136,0.014,0.158,0.079l0.842,2.526
			c0.038,0.114,0.199,0.114,0.237,0L16.96,3.48c0.022-0.065,0.093-0.101,0.158-0.079l2.43,0.81
			C19.671,4.252,19.767,4.104,19.681,4.009z"/>
		<path fill="#D2E6F3" d="M19.681,4.009l-3.588-3.968c-0.05-0.055-0.136-0.055-0.185,0l-3.588,3.968
			c-0.086,0.095,0.01,0.243,0.132,0.202l2.43-0.81c0.065-0.022,0.136,0.014,0.158,0.079l0.842,2.526
			c0.038,0.114,0.199,0.114,0.237,0L16.96,3.48c0.022-0.065,0.093-0.101,0.158-0.079l2.43,0.81
			C19.671,4.252,19.767,4.104,19.681,4.009z"/>
		<g>
			<path fill="#E2EFF7" d="M15.907,0.041l-3.588,3.968c-0.086,0.095,0.01,0.243,0.132,0.202l2.43-0.81
				c0.065-0.022,0.136,0.014,0.158,0.079l0.842,2.526C15.9,6.063,15.95,6.091,16,6.091V0C15.966,0,15.932,0.014,15.907,0.041z"/>
		</g>
		<path fill="#D2E6F3" d="M28.524,14.494c0.298-0.866-0.656-1.668-1.448-1.208C26.369,13.698,25.634,14,25,14c-2,0-3-2-5-2
			c-1.994,0-3.104,0.883-3.625,1.476c-0.202,0.23-0.548,0.23-0.751,0C15.104,12.883,13.994,12,12,12c-2,0-3,2-5,2
			c-0.634,0-1.369-0.302-2.076-0.713c-0.791-0.461-1.746,0.342-1.448,1.208c0.918,2.663,3.099,4.474,5.988,5.496
			C13.004,19.842,13.121,18,16,18s2.996,1.842,6.536,1.99C25.425,18.968,27.606,17.157,28.524,14.494z"/>
		<g>
			<path fill="#E2EFF7" d="M15.625,13.476C15.104,12.883,13.994,12,12,12c-2,0-3,2-5,2c-0.634,0-1.369-0.302-2.076-0.713
				c-0.791-0.461-1.746,0.342-1.448,1.208c0.918,2.663,3.099,4.474,5.988,5.496C13.004,19.842,13.121,18,16,18v-4.351
				C15.863,13.649,15.726,13.591,15.625,13.476z"/>
		</g>
		<g>
			<path fill="#D2E6F3" d="M4.897,17c1.126,1.338,2.698,2.329,4.567,2.99C13.004,19.842,13.121,18,16,18v-1C11,17,10,15,4.897,17z"
				/>
		</g>
		<g>
			<path fill="#C1DDEE" d="M27.103,17c-1.126,1.338-2.698,2.329-4.567,2.99C18.996,19.842,18.879,18,16,18v-1C21,17,22,15,27.103,17
				z"/>
		</g>
	</g>
</g>
</svg>
