<svg xmlns="http://www.w3.org/2000/svg" viewBox="0 0 32 32"><title>594-alomomola-shiny</title><path d="M8.3053,13.07458v3.88453h5.45685V13.07458Zm2.75226,1.33826.24469-.10547-.30463.04041.30463-.04041Z" style="fill:#fff"/><path d="M5.88768,16.488l-.05732-.00148v-.48636q.02829-.00157.05668-.00172Z" style="fill:#f4edf9"/><path d="M15.36762,2.66531c-.33036.147-.63935.342-.95806.5151A36.88525,36.88525,0,0,0,12.02014,6.7919c-.68292,1.14465-1.34728,2.30014-1.94276,3.49363l.07221.00742a12.95337,12.95337,0,0,1,3.18064-1.24159,14.41394,14.41394,0,0,1,2.41095-.37586V2.52636C15.61664,2.57238,15.4915,2.61023,15.36762,2.66531Z" style="fill:#9d85d3"/><polygon points="21.76 22.263 21.761 22.261 21.757 22.261 21.76 22.263" style="fill:#c47bcc"/><path d="M22.29272,10.06055c-.00805-.06665.03266-.13831.13691-.23865a14.21182,14.21182,0,0,0,3.03924-4.09607A2.7034,2.7034,0,0,0,24.837,4.406,4.96684,4.96684,0,0,0,21.53925,2.5625a9.54178,9.54178,0,0,0-3.13068-.00916.34753.34753,0,0,1-.20508-.03405,3.08533,3.08533,0,0,0-2.46228.00708V8.67554A16.193,16.193,0,0,1,17.8703,8.658a8.54011,8.54011,0,0,1,3.38489.85A2.45677,2.45677,0,0,1,22.29272,10.06055Z" style="fill:#866eba"/><path d="M24.36688,14.34753a4.81173,4.81173,0,0,0-1.90381-4.06994c-.10162-.08411-.162-.14795-.17035-.217a2.45677,2.45677,0,0,0-1.03753-.55262.96305.96305,0,0,1,.44751.42835,7.07009,7.07009,0,0,1,.89172,3.15039,4.2179,4.2179,0,0,1-1.13019,3.04761.32.32,0,0,0-.035.47912,6.256,6.256,0,0,1,1.04571,3.15467,4.01221,4.01221,0,0,1-.57885,2.259c-.04657.07715-.09027.15588-.13532.234l.06287.00915a3.92746,3.92746,0,0,0,1.91089-2.36938,5.52593,5.52593,0,0,0-.18177-3.27832.35727.35727,0,0,1,.08381-.42346A2.80881,2.80881,0,0,0,24.36688,14.34753Z" style="fill:#9d85d3"/><path d="M11.25068,22.24091c-.14993-.05789-.34224-.18763-.31968.14488a17.80993,17.80993,0,0,0,.79611,3.29145,7.79583,7.79583,0,0,0,.85659,1.86757,4.8702,4.8702,0,0,0,2.37778.49862,2.17842,2.17842,0,0,0,.59659-.08773.79.79,0,0,1,.18311-.04082v-4.65A15.962,15.962,0,0,1,11.25068,22.24091Z" style="fill:#9d85d3"/><polygon points="21.757 22.261 21.759 22.263 21.76 22.263 21.757 22.261" style="fill:#c47bcc"/><path d="M16.36264,28.09851a6.7011,6.7011,0,0,0,4.10559,1.14925,4.85807,4.85807,0,0,0,2.85012-1.21264,9.318,9.318,0,0,0,1.53781-1.82185c-.03889-.103-.07185-.20886-.11749-.30876a10.09789,10.09789,0,0,0-2.916-3.58686l-.06316-.05462a5.59188,5.59188,0,0,1-2.1157.781,13.24967,13.24967,0,0,1-3.77077.23528c-.04424-.00311-.08766-.01083-.13182-.01439v4.65A.92741.92741,0,0,1,16.36264,28.09851Z" style="fill:#866eba"/><path d="M15.55807,27.9557a2.17842,2.17842,0,0,1-.59659.08773,4.8702,4.8702,0,0,1-2.37778-.49862,7.15138,7.15138,0,0,0,1.7771,2.15778,1.81254,1.81254,0,0,0,1.31841.52149c.02657-.01232.03711-.037.062-.05062V27.91488A.79.79,0,0,0,15.55807,27.9557Z" style="fill:#e3dbf4"/><path d="M16.34305,29.34247c.018-.07942.01581-.18971.0875-.2148.09991-.035.14726.08387.20671.144a10.93258,10.93258,0,0,0,2.3662,1.87114,5.28111,5.28111,0,0,0,3.64734.78244,3.14435,3.14435,0,0,0,2.09878-1.2539,3.95967,3.95967,0,0,0,.57559-2.81331,4.69409,4.69409,0,0,0-.469-1.64476,9.318,9.318,0,0,1-1.53781,1.82185,4.85807,4.85807,0,0,1-2.85012,1.21264,6.7011,6.7011,0,0,1-4.10559-1.14925.92741.92741,0,0,0-.62146-.18363v2.25858A1.202,1.202,0,0,0,16.34305,29.34247Z" style="fill:#d4c9ef"/><path d="M15.68165,1.59473c-.4126.53781-.89845,1.01684-1.27209,1.58568.31871-.17309.6277-.36815.95806-.5151.12388-.05508.249-.09293.37356-.13895V1.54129C15.72129,1.5591,15.70162,1.57721,15.68165,1.59473Z" style="fill:#e3dbf4"/><path d="M18.20349,2.51924a.34765.34765,0,0,0,.20508.03414,9.539,9.539,0,0,1,3.13068.0092A4.96625,4.96625,0,0,1,24.837,4.40611a2.70234,2.70234,0,0,1,.63185,1.31966,6.20258,6.20258,0,0,0,.66154-3.36032A2.57174,2.57174,0,0,0,25.4728.89556,3.28051,3.28051,0,0,0,22.533.03755a7.27442,7.27442,0,0,0-3.60251,1.618c-.05968.04513-.10295.16358-.18548.1143-.06316-.03755.0141-.128.02857-.19416C18.98913.585,18.25812.25665,17.62672.32019a1.7691,1.7691,0,0,0-.75647.29273,8.61107,8.61107,0,0,0-1.12907.92837v.98507A3.08573,3.08573,0,0,1,18.20349,2.51924Z" style="fill:#d4c9ef"/><path d="M21.82263,22.31765l.001-.04735-.0671-.0098Z" style="fill:#ddc4ed"/><path d="M14.49866,11.63892a2.27722,2.27722,0,0,1,1.1803-.19922c.02191.00012.04064.00659.06225.00732V8.67554a14.42014,14.42014,0,0,0-2.411.37573,12.9526,12.9526,0,0,0-3.1806,1.2417l-.13056.114a.29892.29892,0,0,0-.08679.02344,9.47294,9.47294,0,0,0-3.1051,3.04114,5.809,5.809,0,0,0-.94013,2.527l.00068.4895a6.63479,6.63479,0,0,0,.311,1.21936c.05145-.00867.1001-.0094.12634.04809A1.26552,1.26552,0,0,0,7.98358,17.561a.16685.16685,0,0,1,.23535-.02747.88865.88865,0,0,0,.86982-.03577c.054-.02905.1126-.13086.17578-.04492.06225.08472-.02637.14917-.08637.19678a.801.801,0,0,1-.76025.19494.54281.54281,0,0,0-.52075.09461A1.69692,1.69692,0,0,1,6.382,18.054a4.697,4.697,0,0,0,1.06152,1.71093,8.55236,8.55236,0,0,0,2.99262,2.12793c.228.10047.47369.18421.49487.49292-.02258-.33252.16974-.20276.31964-.14477a15.96373,15.96373,0,0,0,4.49054,1.02392V17.8252A2.95979,2.95979,0,0,1,13.842,18.788c-.15289.02686-.37421.15564-.456.03577-.0885-.12976.09784-.30151.16778-.45166a11.63645,11.63645,0,0,0,1.13239-3.59167,5.7059,5.7059,0,0,0-.26337-2.14917,1.80332,1.80332,0,0,0-.13641-.431C14.1192,11.91113,14.247,11.76172,14.49866,11.63892ZM12.685,14.96924c-.0083.01416-.0705-.00293-.10761-.00549.00232.36535-.28.5393-.50488.75207l-.2121.167a1.16692,1.16692,0,0,1-.91961.37549c-.21033.277-1.03534.19446-1.36805-.07422-.099-.07983-.287-.10205-.22418-.3042-.21423-.12671-.15191-.35986-.15686-.531a1.63126,1.63126,0,0,1,1.65558-1.9126,7.10954,7.10954,0,0,1,1.53632.04761,1.12831,1.12831,0,0,0,.63671-.155c.08643-.043.17743-.09436.16547.07519A3.56286,3.56286,0,0,1,12.685,14.96924Z" style="fill:#d4c9ef"/><path d="M21.46423,16.13428a4.2179,4.2179,0,0,0,1.13019-3.04761,7.07009,7.07009,0,0,0-.89172-3.15039.96305.96305,0,0,0-.44751-.42835,8.54011,8.54011,0,0,0-3.38489-.85,16.193,16.193,0,0,0-2.12909.01758V11.447A1.83225,1.83225,0,0,1,17.40485,13.95,2.65939,2.65939,0,0,1,16.298,15.45752a.27752.27752,0,0,0-.14337.34082,2.23019,2.23019,0,0,1-.41339,2.02686v5.43969c.04413.00354.08753.01123.13178.01441A13.24964,13.24964,0,0,0,19.6438,23.044a5.59229,5.59229,0,0,0,2.11584-.781c.04541-.07861.08948-.158.13642-.23584a4.01221,4.01221,0,0,0,.57885-2.259A6.256,6.256,0,0,0,21.4292,16.6134.32.32,0,0,1,21.46423,16.13428Z" style="fill:#c6b7e9"/><path d="M10.14957,10.29307l-.13052.11389.05838-.12144Z" style="fill:#d4a5de"/><path d="M6.32511,17.75546A1.26537,1.26537,0,0,0,7.9836,17.561a.1667.1667,0,0,1,.23532-.02742.88894.88894,0,0,0,.86981-.03579c.054-.0291.11259-.13094.17579-.045.06228.08474-.0264.14916-.08638.19684a.80083.80083,0,0,1-.76023.19487.54343.54343,0,0,0-.52075.09458,1.69663,1.69663,0,0,1-1.51517.11477.45617.45617,0,0,1-.13836-.28891Z" style="fill:#211915"/><path d="M6.32511,17.75546l-.08148.00954c-.03744-.00169-.046-.02591-.04493-.05759C6.25021,17.69881,6.29878,17.69789,6.32511,17.75546Z" style="fill:#68616d"/><path d="M15.679,11.43968a2.27955,2.27955,0,0,0-1.18035.19921c-.25169.12276-.37942.27225-.2122.56127a1.8052,1.8052,0,0,1,.13642.43108,5.70527,5.70527,0,0,1,.26334,2.14917,11.638,11.638,0,0,1-1.13233,3.59175c-.07.15008-.25629.32183-.16782.45157.0818.11994.30313-.00891.456-.03578a2.95975,2.95975,0,0,0,1.89912-.9628v-6.378C15.71958,11.44636,15.70088,11.43983,15.679,11.43968Z" style="fill:#b8a5e4"/><path d="M16.1546,15.79829a.27739.27739,0,0,1,.14339-.34068A2.65973,2.65973,0,0,0,17.40487,13.95a1.8322,1.8322,0,0,0-1.66369-2.50292v6.37805A2.23,2.23,0,0,0,16.1546,15.79829Z" style="fill:#a78edd"/><polygon points="12.577 14.964 12.577 14.967 12.578 14.968 12.577 14.964" style="fill:#f0c13e"/><path d="M11.86045,15.88286c-.56369.1318-.85361-.08117-.85229-.62605.35073.04031.42367-.04422.3276-.37975a.44733.44733,0,0,1,.581.02428.53541.53541,0,0,1,.22445.55294,2.20534,2.20534,0,0,1-.06848.26123Q11.96634,15.79958,11.86045,15.88286Z" style="fill:#2f2f2e"/><path d="M13.02039,13.3291a1.12932,1.12932,0,0,1-.63678.15466,7.11794,7.11794,0,0,0-1.53632-.04748,1.63121,1.63121,0,0,0-1.65558,1.9126c.00495.17114-.05743.40429.1568.53137a2.006,2.006,0,0,1,1.64917-1.53247h.00012l.30445-.04041a1.13423,1.13423,0,0,1,1.21826.58594l.05774.07507-.00086-.00463c.03711.00256.09931.01977.10767.00549a3.56433,3.56433,0,0,0,.50073-1.56519C13.19775,13.2345,13.10675,13.28589,13.02039,13.3291Z" style="fill:#48a353"/><path d="M10.99762,14.34778l.05994.06506.24469-.10547Z" style="fill:#fff"/><path d="M12.52051,14.89331a1.134,1.134,0,0,0-1.21826-.58581.41815.41815,0,0,1-.24469.10534,1.048,1.048,0,0,0-.11676,1.84546,1.16673,1.16673,0,0,0,.91967-.37549c-.56372.13184-.85363-.081-.85229-.626-.05652-.12915-.13324-.26123-.00189-.38758.10833-.10425.22107-.06067.32946.00782a.44732.44732,0,0,1,.58106.02429.53529.53529,0,0,1,.22443.553,2.20434,2.20434,0,0,1-.06849.26123c.22394-.21192.5047-.386.50409-.749Z" style="fill:#f0c13e"/><path d="M11.05756,14.41284a.41749.41749,0,0,0,.24469-.10547Z" style="fill:#f0c13e"/><path d="M12.57825,14.9684l-.05773-.075Z" style="fill:#c0c17e"/><path d="M11.33576,14.87706c.09607.33553.02313.42006-.3276.37975-.05652-.12908-.1332-.26113-.00185-.38752C11.11463,14.76505,11.22737,14.80859,11.33576,14.87706Z" style="fill:#edece4"/></svg>