<svg xmlns="http://www.w3.org/2000/svg" viewBox="0 0 32 32"><defs><style>.a{fill:#495587;}.b{fill:#ffd96c;}.c{fill:#f9bda0;}.d{fill:#ffd04d;}.e{fill:#ffe28a;}.f{fill:#f6b392;}.g{fill:#5b689d;}.h{fill:#515e91;}.i{fill:#f3d38f;}.j{fill:#5669b8;}.k{fill:#8185a5;}.l{fill:#919187;}.m{fill:#fff;}.n{fill:#7c8ac4;}.o{fill:#424b7e;}.p{fill:#f7c845;}.q{fill:#f4a984;}.r{fill:#707eb7;}</style></defs><title>596-galvantula</title><path class="a" d="M10.81042,5.40447c.50214.33654,1.05742.57607,1.5851.866.46934.25788.953.49008,1.41791.75544.18607.10621.26773.06979.36342-.10482.13329-.24321.29206-.47265.444-.70534.03481-.05332.04594-.1465.13185-.13753.06907.00721.06891.09039.09058.14145.2129.5017.4218,1.00511.63183,1.508a8.23377,8.23377,0,0,0-1.73561.48755,5.00628,5.00628,0,0,0-.89739.41829,7.54946,7.54946,0,0,0-1.905,1.48172q-.524-.56822-1.047-1.1373c-.03714-.04062-.1158-.07829-.08206-.138.01639-.029.105-.02538.16027-.02285.27723.01269.55567.01762.83091.04937.22771.02627.25592-.063.23646-.26494-.1026-1.065-.19139-2.13124-.285-3.19707Z"/><path class="b" d="M6.25886,25.22567c.10138.38283.2057.76494.30115,1.14924.01512.0609.0862.13587.01818.18805-.02958.0227-.11062-.01524-.16577-.03331-.37733-.12362-.76474-.20589-1.15076-.296-.15679-.0366-.21082.00391-.25465.14539-.085.27446-.19538.54116-.27846.81614-.05015.166-.10753.19672-.23243.06625-.15776-.16478-.32038-.32489-.481-.48693a4.4688,4.4688,0,0,1-.34558-.51394c-.13933-.28076-.27908-.28337-.52725-.1093-.50759.356-.54061.34895-.73531-.22821-.10584-.31377-.24621-.35271-.50149-.20146-.27636.079-.55533.15005-.82805.24006-.15233.05027-.18927.00837-.18586-.14109.00748-.32816-.00286-.65672.00469-.98487a.29152.29152,0,0,0-.1528-.29484c-.25-.14259-.49591-.29217-.7435-.43889.11827-.26586.40341-.29894.6191-.40765a.5099.5099,0,0,0,.329-.57276,2.67186,2.67186,0,0,1,.58171-1.97882,2.34376,2.34376,0,0,1,1.12742-.7442c.11933-.03688.21743-.07949.25432-.21665a16.06726,16.06726,0,0,1,2.45614-5.035c.05714-.06793.11791-.13314.17083-.2042a15.80357,15.80357,0,0,1,1.90114-2.12644c.04746-.04425.09328-.13584.16529-.09693.06544.03535.02115.126.0144.18934a3.6789,3.6789,0,0,0,.04.83042c.06951.57977.078.57868.644.41179.038-.0112.07658-.02018.1149-.03019l.06988.06921a6.02382,6.02382,0,0,0-.77538,1.4198c-.53127,1.60689-.87943,3.26277-1.31051,4.89646a1.38567,1.38567,0,0,0,.10827,1.12636,2.43573,2.43573,0,0,1,.28132,1.37767,3.10324,3.10324,0,0,1-.5136,1.46836C5.97448,24.71986,6.17827,24.97436,6.25886,25.22567Z"/><path class="a" d="M8.41822,14.12064c-.03832.01-.07694.019-.1149.03019-.56607.16689-.57452.168-.644-.41179a3.6789,3.6789,0,0,1-.04-.83042c.00675-.06334.051-.154-.0144-.18934-.072-.03891-.11783.05268-.16529.09693a15.80357,15.80357,0,0,0-1.90114,2.12644c-.05292.07106-.11369.13627-.17083.2042a2.50232,2.50232,0,0,1,.64719-1.26105c.2035-.23954.23726-.39692.03444-.64171-.13168-.15894-.36054-.356-.29292-.53242.04206-.10972.374-.11019.57662-.156.25175-.057.50293-.11832.75705-.16223.184-.03179.26733-.07807.22218-.30426-.101-.506-.15989-1.02033-.23472-1.53145-.007-.048-.00543-.09723-.00783-.14588a.98045.98045,0,0,1,.157.05757c.38851.22121.77935.43881,1.16074.67182.15235.09308.246.09879.36235-.0585.2304-.31151.48834-.6025.72572-.90908.11232-.14507.16745-.12528.23283.03458.1277.31224.2675.61953.40221.92875l-.06964.24938a9.86708,9.86708,0,0,0-1.2554,3.63135.999.999,0,0,0,.05891.7729c.15832.38193.3202.76239.48056,1.14348l-.07874.006-.68582-.54175-.84768-.78868a6.02382,6.02382,0,0,1,.77538-1.4198c.04522-.01873.09551-.06232.068-.098C8.51351,14.03673,8.45837,14.07767,8.41822,14.12064Z"/><path class="c" d="M10.0409,11.38633l.06963-.24938c.29418-.2169.41481-.57882.68311-.81765a3.3889,3.3889,0,0,0,.55957,1.73208c.06631.09982.12972.18509.25231.06893.16-.15163.23638-.07959.27126.10209.00526.12829-.09813.186-.17114.26357-.16264.1727-.33238.33932-.48659.51925A6.71737,6.71737,0,0,0,9.8586,15.74157a2.21814,2.21814,0,0,1-.54672-.37411c-.016-.16765-.02613-.33613-.04959-.50272-.02731-.19386.03748-.30837.24312-.31767.25133-.01136.30238-.11924.248-.36875-.108-.49573-.08963-.50034.36449-.76477.103-.06.20782-.11736.31417-.17124.0784-.03972.1368-.0788.08414-.18118A5.15988,5.15988,0,0,1,10.0409,11.38633Z"/><path class="d" d="M11.87671,12.22241c-.03481-.18169-.11116-.25373-.27119-.1021-.12259.11616-.186.03089-.25231-.06893a3.3889,3.3889,0,0,1-.55957-1.73208l.14344-.204a7.54959,7.54959,0,0,1,1.905-1.48172c-.01231.10785-.03209.21546-.03556.32359A2.3774,2.3774,0,0,0,12.899,10.1829,18.47739,18.47739,0,0,0,11.87671,12.22241Z"/><path class="e" d="M11.22508,27.55752c-.21291-.18214-.19808-.46028-.27389-.69487-.07794-.24119-.14206-.23057-.29514-.07031a8.071,8.071,0,0,0-.56726.6107c-.0539.06951-.09027.19249-.22591.14621-.14555-.41031-.29192-.82028-.43607-1.231a.204.204,0,0,0-.17273-.14027c-.126-.02517-.24965-.06231-.37443-.09383-.13294-.03358-.32075-.04994-.35221-.16922-.02229-.08455.19034-.09649.286-.16614a1.7992,1.7992,0,0,0,.64377-.83549,10.79308,10.79308,0,0,1,1.47223-2.77572,4.77238,4.77238,0,0,1,.75013-.80217,2.17654,2.17654,0,0,1,1.29173-.54213.51966.51966,0,0,1,.49558.30661c.07143.12753.13492.25951.202.38949a7.94051,7.94051,0,0,1-.02713,2.40392c-.00578.05935-.00873.11913-.018.17793-.0235.149.034.30692-.04955.44915-.08393-.1334-.17054-.26521-.25115-.4006-.10681-.17939-.20794-.36216-.314-.542-.01916-.0325-.05167-.08318-.07552-.08182-.0636.00363-.05062.073-.05646.1135q-.11042.76627-.213,1.53365c-.0453.33448-.08537.66969-.13345,1.00376a.963.963,0,0,1-.06825.18851,1.47281,1.47281,0,0,1-.12828-.15756c-.10928-.17788-.21123-.36025-.31989-.53851-.03-.04914-.07663-.129-.11-.12623-.0611.005-.064.087-.07763.14516A11.87862,11.87862,0,0,1,11.22508,27.55752Z"/><path class="f" d="M15.22474,18.81983A13.34506,13.34506,0,0,1,12.552,17.47738a1.17812,1.17812,0,0,1-1.35662.30719,1.60621,1.60621,0,0,1-.92017-1.42237c-.01175-.10828-.00389-.21851-.00514-.3279a1.2498,1.2498,0,0,1-.41151-.29273,2.21486,2.21486,0,0,1-.54668-.37418q-.26322-.17472-.52639-.34972a.99843.99843,0,0,0,.05894.77283c.15832.382.32018.76254.48052,1.14354l.05664.12176c.31184.42186.58317.87249.93379,1.26725A7.13833,7.13833,0,0,0,13.251,20.28376l.98529.2477A8.16492,8.16492,0,0,0,16,20.68727V18.95438A1.47565,1.47565,0,0,1,15.22474,18.81983Z"/><path class="g" d="M13.251,20.2838q.49266.12385.98528.24776a2.49714,2.49714,0,0,1-.56739.95777c-.0671-.12995-.13059-.26193-.202-.38946a.51966.51966,0,0,0-.49558-.30661Q13.11108,20.53847,13.251,20.2838Z"/><path class="d" d="M7.71272,15.60965l.84768.78868a22.82,22.82,0,0,0-.76825,3.18328.50981.50981,0,0,0,.03276.37331,3.338,3.338,0,0,1,.26843,2.92724,1.02726,1.02726,0,0,0,.05637.92355,2.90614,2.90614,0,0,1,.15363.35521l-.06451.06517c-.24523-.0997-.49173-.19642-.73511-.30044-.10955-.04683-.2053-.06767-.27857.0534l-.05849.06643.00253-.00455a2.97772,2.97772,0,0,0-.62231.47994c-.131.11285-.19431.06739-.26868-.04237a3.10324,3.10324,0,0,0,.5136-1.46836,2.43573,2.43573,0,0,0-.28132-1.37767,1.38567,1.38567,0,0,1-.10827-1.12636C6.83329,18.87242,7.18145,17.21654,7.71272,15.60965Z"/><path class="h" d="M1.90552,25.72159c.25528-.15125.39565-.11231.50149.20146.1947.57716.22772.58422.73531.22821.24817-.17407.38792-.17146.52725.1093a4.4688,4.4688,0,0,0,.34558.51394,8.938,8.938,0,0,1-.9334.67629c-.185.12417-.28545.08059-.40926-.07838A4.75372,4.75372,0,0,1,1.90552,25.72159Z"/><path class="a" d="M6.2782,24.4785c.07437.10976.13766.15522.26868.04237a2.97772,2.97772,0,0,1,.62231-.47994,3.5929,3.5929,0,0,1-.91032,1.18473C6.17827,24.97436,5.97448,24.71986,6.2782,24.4785Z"/><path class="i" d="M8.23883,24.22609l.06451-.06517c.03014.02476.062.05729.02784.09173C8.29743,24.28666,8.26388,24.25656,8.23883,24.22609Z"/><path class="j" d="M9.325,16.93406l.05662.12172-.13536-.1157Z"/><path class="k" d="M7.16666,24.04548l.05849-.06643A.0622.0622,0,0,1,7.16666,24.04548Z"/><path class="d" d="M15.47507,7.72775a8.22574,8.22574,0,0,0-1.7356.48761,5.73065,5.73065,0,0,0,.6626,2.56925c.03962.077.09925.19459.15784.19988.104.00917.07839-.13733.13135-.20378a.10753.10753,0,0,0,.011-.02752c.1684-.41407.17146-.41671.47218-.06282.10126.119.15915.14984.23894-.02169.15025-.32331.31914-.63772.48024-.956a.08834.08834,0,0,1,.1064.072v-2.044Q15.7375,7.73422,15.47507,7.72775Z"/><path class="c" d="M15.8936,9.71265c-.1611.31831-.33.63272-.48024.956-.07979.17153-.13768.14067-.23894.02169-.30072-.35389-.30378-.35125-.47218.06282a.10753.10753,0,0,1-.011.02752c-.053.06645-.02731.213-.13135.20378-.05859-.00529-.11822-.12288-.15784-.19988a5.73076,5.73076,0,0,1-.6626-2.56939,5.0242,5.0242,0,0,0-.89745.41825c-.0123.10786-.032.21544-.03551.32358a2.37725,2.37725,0,0,0,.0925,1.22583q.502.79,1.00441,1.57972c.06.094.0884.22532.26215.1604A5.28712,5.28712,0,0,1,16,11.66864V9.78493A.08822.08822,0,0,0,15.8936,9.71265Z"/><path class="l" d="M8.41822,14.12064c.04015-.043.09529-.08391.13787-.02875.02752.03564-.02277.07923-.068.098Z"/><path class="d" d="M9.31188,15.36746l-.5264-.34979a9.86729,9.86729,0,0,1,1.25541-3.63134,5.16015,5.16015,0,0,0,.47535,1.6748c.05266.10238-.00574.14146-.08414.18118-.10635.05388-.21113.11123-.31417.17124-.45412.26443-.47248.269-.36449.76477.05435.24951.0033.35739-.248.36875-.20564.0093-.27043.12381-.24312.31767C9.28575,15.03133,9.29586,15.19981,9.31188,15.36746Z"/><path class="e" d="M14.16557,11.923c-.17375.06492-.20218-.06644-.26215-.1604q-.50363-.789-1.00441-1.57972a18.46439,18.46439,0,0,0-1.02226,2.03953c.00528.12829-.09813.186-.17111.26354-.16263.17263-.33241.33929-.48656.5193a6.71708,6.71708,0,0,0-1.36052,2.73632,1.2498,1.2498,0,0,0,.41151.29273,2.00731,2.00731,0,0,1,.43117-1.03026,1.20774,1.20774,0,0,1,1.89545.00668,1.93012,1.93012,0,0,1-.04469,2.46652,13.33822,13.33822,0,0,0,2.67274,1.34259A1.47565,1.47565,0,0,0,16,18.95438V11.66864A5.28712,5.28712,0,0,0,14.16557,11.923ZM14.4,17.11307a.478.478,0,1,1,.47252-.49053A.45252.45252,0,0,1,14.4,17.11307Zm.029-1.79211a.4782.4782,0,1,1,.50324-.45981A.45093.45093,0,0,1,14.429,15.321Z"/><path class="g" d="M10.27008,16.03438a2.00689,2.00689,0,0,1,.43115-1.03024,1.20771,1.20771,0,0,1,1.89545.00666,1.93012,1.93012,0,0,1-.04465,2.46649,1.17812,1.17812,0,0,1-1.35664.30721,1.6058,1.6058,0,0,1-.92017-1.42227C10.26348,16.254,10.2713,16.14372,10.27008,16.03438Zm1.02364.05841c-.00121.03965-.004.07933-.00338.11895a.765.765,0,0,0,.56808.77293.69052.69052,0,0,0,.74965-.45631.7501.7501,0,0,0-.31161-.933c-.17777-.10124-.37843-.19624-.55322.02351-.11776-.14425-.26356-.18765-.40625-.05838A.37814.37814,0,0,0,11.29372,16.09279Z"/><path class="g" d="M14.46506,14.36536a.47816.47816,0,1,1-.48839.47461A.452.452,0,0,1,14.46506,14.36536Zm.11124.23581c-.10067.00871-.128.07359-.11679.16161.01126.08839.0613.14544.15469.13412a.13527.13527,0,0,0,.125-.16392A.14536.14536,0,0,0,14.5763,14.60117Z"/><path class="g" d="M14.87248,16.62259a.47785.47785,0,1,1-.49788-.46509A.452.452,0,0,1,14.87248,16.62259Zm-.36232.13308c.1023-.00464.17808-.04709.17368-.15776a.17545.17545,0,0,0-.16593-.17849.16734.16734,0,0,0-.17187.169C14.33551,16.69774,14.40868,16.74543,14.51016,16.75567Z"/><path d="M11.74324,15.61891c.17479-.21975.37545-.12475.55322-.02351a.7501.7501,0,0,1,.31161.933.69052.69052,0,0,1-.74965.45631.765.765,0,0,1-.56808-.77293c-.00059-.03962.00217-.0793.00333-.11895C11.61762,16.07825,11.72737,15.96258,11.74324,15.61891Z"/><path class="m" d="M11.74324,15.61891c-.01587.34367-.12562.45934-.44957.47388a.37819.37819,0,0,1,.04332-.53226C11.47968,15.43126,11.62548,15.47466,11.74324,15.61891Z"/><path class="n" d="M14.5763,14.60117a.14536.14536,0,0,1,.16286.13181.13527.13527,0,0,1-.125.16392c-.09339.01132-.14343-.04573-.15469-.13412C14.4483,14.67476,14.47563,14.60988,14.5763,14.60117Z"/><path class="n" d="M14.51016,16.75567c-.10148-.01024-.17465-.05793-.16412-.16721a.16734.16734,0,0,1,.17187-.169.17545.17545,0,0,1,.16593.17849C14.68824,16.70858,14.61246,16.751,14.51016,16.75567Z"/><path class="o" d="M21.18958,5.40447c-.50214.33654-1.05742.57607-1.5851.866-.46934.25788-.953.49008-1.41791.75544-.18607.10621-.26773.06979-.36342-.10482-.13329-.24321-.29206-.47265-.444-.70534-.03481-.05332-.04594-.1465-.13185-.13753-.06907.00721-.06891.09039-.09058.14145-.2129.5017-.4218,1.00511-.63183,1.508a8.23377,8.23377,0,0,1,1.73561.48755,5.00628,5.00628,0,0,1,.89739.41829,7.54946,7.54946,0,0,1,1.905,1.48172q.524-.56822,1.047-1.1373c.03714-.04062.1158-.07829.08206-.138-.01639-.029-.105-.02538-.16027-.02285-.27723.01269-.55567.01762-.83091.04937-.22771.02627-.25592-.063-.23646-.26494.1026-1.065.19139-2.13124.285-3.19707Z"/><path class="d" d="M25.74114,25.22567c-.10138.38283-.2057.76494-.30115,1.14924-.01512.0609-.0862.13587-.01818.18805.02958.0227.11062-.01524.16577-.03331.37733-.12362.76474-.20589,1.15076-.296.15679-.0366.21082.00391.25465.14539.08505.27446.19538.54116.27846.81614.05015.166.10753.19672.23243.06625.15776-.16478.32038-.32489.481-.48693a4.4688,4.4688,0,0,0,.34558-.51394c.13933-.28076.27908-.28337.52725-.1093.50759.356.54061.34895.73531-.22821.10584-.31377.24621-.35271.50149-.20146.27636.079.55533.15005.828.24006.15233.05027.18927.00837.18586-.14109-.00748-.32816.00286-.65672-.00469-.98487a.29152.29152,0,0,1,.1528-.29484c.25-.14259.49591-.29217.7435-.43889-.11827-.26586-.40341-.29894-.6191-.40765a.5099.5099,0,0,1-.329-.57276,2.67186,2.67186,0,0,0-.58171-1.97882,2.34376,2.34376,0,0,0-1.12742-.7442c-.11933-.03688-.21743-.07949-.25432-.21665a16.06726,16.06726,0,0,0-2.45614-5.035c-.05714-.06793-.11791-.13314-.17083-.2042a15.80357,15.80357,0,0,0-1.90114-2.12644c-.04746-.04425-.09328-.13584-.16529-.09693-.06544.03535-.02115.126-.0144.18934a3.6789,3.6789,0,0,1-.03995.83042c-.06951.57977-.078.57868-.644.41179-.038-.0112-.07658-.02018-.1149-.03019l-.06988.06921a6.02382,6.02382,0,0,1,.77538,1.4198c.53127,1.60689.87943,3.26277,1.31051,4.89646a1.38567,1.38567,0,0,1-.10827,1.12636,2.43573,2.43573,0,0,0-.28132,1.37767,3.10324,3.10324,0,0,0,.5136,1.46836C26.02552,24.71986,25.82173,24.97436,25.74114,25.22567Z"/><path class="o" d="M23.58178,14.12064c.03832.01.07694.019.1149.03019.56607.16689.57452.168.644-.41179a3.6789,3.6789,0,0,0,.03995-.83042c-.00675-.06334-.051-.154.0144-.18934.072-.03891.11783.05268.16529.09693a15.80357,15.80357,0,0,1,1.90114,2.12644c.05292.07106.11369.13627.17083.2042a2.50232,2.50232,0,0,0-.64719-1.26105c-.2035-.23954-.23726-.39692-.03444-.64171.13168-.15894.36054-.356.29292-.53242-.04206-.10972-.374-.11019-.57662-.156-.25175-.057-.50293-.11832-.757-.16223-.184-.03179-.26733-.07807-.22218-.30426.101-.506.15989-1.02033.23472-1.53145.007-.048.00543-.09723.00783-.14588a.98045.98045,0,0,0-.157.05757c-.38851.22121-.77935.43881-1.16074.67182-.15235.09308-.246.09879-.36235-.0585-.2304-.31151-.48834-.6025-.72572-.90908-.11232-.14507-.16745-.12528-.23283.03458-.1277.31224-.2675.61953-.40221.92875l.06964.24938a9.86708,9.86708,0,0,1,1.2554,3.63135.999.999,0,0,1-.05891.7729c-.15832.38193-.3202.76239-.48056,1.14348l.07874.006.68582-.54175.84768-.78868a6.02382,6.02382,0,0,0-.77538-1.4198c-.04522-.01873-.09551-.06232-.068-.098C23.48649,14.03673,23.54163,14.07767,23.58178,14.12064Z"/><path class="f" d="M21.9591,11.38633l-.06963-.24938c-.29418-.2169-.41481-.57882-.68311-.81765a3.3889,3.3889,0,0,1-.55957,1.73208c-.06631.09982-.12972.18509-.25231.06893-.16-.15163-.23638-.07959-.27126.10209-.00526.12829.09813.186.17114.26357.16264.1727.33238.33932.48659.51925a6.71737,6.71737,0,0,1,1.36045,2.73635,2.21814,2.21814,0,0,0,.54672-.37411c.016-.16765.02613-.33613.04959-.50272.02731-.19386-.03748-.30837-.24312-.31767-.25133-.01136-.30238-.11924-.248-.36875.108-.49573.08963-.50034-.36449-.76477-.103-.06-.20782-.11736-.31417-.17124-.0784-.03972-.1368-.0788-.08414-.18118A5.15988,5.15988,0,0,0,21.9591,11.38633Z"/><path class="p" d="M20.12329,12.22241c.03481-.18169.11116-.25373.27119-.1021.12259.11616.186.03089.25231-.06893a3.3889,3.3889,0,0,0,.55957-1.73208l-.14344-.204a7.54959,7.54959,0,0,0-1.905-1.48172c.01231.10785.03209.21546.03556.32359A2.3774,2.3774,0,0,1,19.101,10.1829,18.47739,18.47739,0,0,1,20.12329,12.22241Z"/><path class="b" d="M20.77492,27.55752c.21291-.18214.19808-.46028.27389-.69487.07794-.24119.14206-.23057.29514-.07031a8.071,8.071,0,0,1,.56726.6107c.0539.06951.09027.19249.22591.14621.14555-.41031.29192-.82028.43607-1.231a.204.204,0,0,1,.17273-.14027c.126-.02517.24965-.06231.37443-.09383.13294-.03358.32075-.04994.35221-.16922.02229-.08455-.19034-.09649-.286-.16614a1.7992,1.7992,0,0,1-.64377-.83549,10.79308,10.79308,0,0,0-1.47223-2.77572,4.77238,4.77238,0,0,0-.75013-.80217,2.17654,2.17654,0,0,0-1.29173-.54213.51966.51966,0,0,0-.49558.30661c-.07143.12753-.13492.25951-.202.38949a7.94051,7.94051,0,0,0,.02713,2.40392c.00578.05935.00873.11913.018.17793.0235.149-.034.30692.04955.44915.08393-.1334.17054-.26521.25115-.4006.10681-.17939.20794-.36216.314-.542.01916-.0325.05167-.08318.07552-.08182.0636.00363.05062.073.05646.1135q.11042.76627.21305,1.53365c.0453.33448.08537.66969.13345,1.00376a.963.963,0,0,0,.06825.18851,1.47281,1.47281,0,0,0,.12828-.15756c.10928-.17788.21123-.36025.31989-.53851.03-.04914.07663-.129.11-.12623.0611.005.064.087.07763.14516A11.87862,11.87862,0,0,0,20.77492,27.55752Z"/><path class="q" d="M16.77526,18.81983A13.34506,13.34506,0,0,0,19.448,17.47738a1.17812,1.17812,0,0,0,1.35662.30719,1.60621,1.60621,0,0,0,.92017-1.42237c.01175-.10828.00389-.21851.00514-.3279a1.2498,1.2498,0,0,0,.41151-.29273,2.21486,2.21486,0,0,0,.54668-.37418q.26322-.17472.52639-.34972a.99843.99843,0,0,1-.05894.77283c-.15832.382-.32018.76254-.48052,1.14354l-.05664.12176c-.31184.42186-.58317.87249-.93379,1.26725A7.13833,7.13833,0,0,1,18.749,20.28376l-.98529.2477A8.16492,8.16492,0,0,1,16,20.68727V18.95438A1.47565,1.47565,0,0,0,16.77526,18.81983Z"/><path class="h" d="M18.749,20.2838q-.49266.12385-.98528.24776a2.49714,2.49714,0,0,0,.56739.95777c.0671-.12995.13059-.26193.202-.38946a.51966.51966,0,0,1,.49558-.30661Q18.88893,20.53847,18.749,20.2838Z"/><path class="p" d="M24.28728,15.60965l-.84768.78868a22.82,22.82,0,0,1,.76825,3.18328.50981.50981,0,0,1-.03276.37331,3.338,3.338,0,0,0-.26843,2.92724,1.02726,1.02726,0,0,1-.05637.92355,2.90614,2.90614,0,0,0-.15363.35521l.06451.06517c.24523-.0997.49173-.19642.73511-.30044.10955-.04683.2053-.06767.27857.0534l.05849.06643-.00253-.00455a2.97772,2.97772,0,0,1,.62231.47994c.131.11285.19431.06739.26868-.04237a3.10324,3.10324,0,0,1-.5136-1.46836,2.43573,2.43573,0,0,1,.28132-1.37767,1.38567,1.38567,0,0,0,.10827-1.12636C25.16671,18.87242,24.81855,17.21654,24.28728,15.60965Z"/><path class="a" d="M30.09448,25.72159c-.25528-.15125-.39565-.11231-.50149.20146-.1947.57716-.22772.58422-.73531.22821-.24817-.17407-.38792-.17146-.52725.1093a4.4688,4.4688,0,0,1-.34558.51394,8.938,8.938,0,0,0,.9334.67629c.185.12417.28545.08059.40926-.07838A4.75372,4.75372,0,0,0,30.09448,25.72159Z"/><path class="o" d="M25.7218,24.4785c-.07437.10976-.13766.15522-.26868.04237a2.97772,2.97772,0,0,0-.62231-.47994,3.5929,3.5929,0,0,0,.91032,1.18473C25.82173,24.97436,26.02552,24.71986,25.7218,24.4785Z"/><path class="i" d="M23.76117,24.22609l-.06451-.06517c-.03014.02476-.062.05729-.02784.09173C23.70257,24.28666,23.73612,24.25656,23.76117,24.22609Z"/><path class="j" d="M22.675,16.93406l-.05662.12172.13536-.1157Z"/><path class="k" d="M24.83334,24.04548l-.05849-.06643A.0622.0622,0,0,0,24.83334,24.04548Z"/><path class="p" d="M16.52493,7.72775a8.22574,8.22574,0,0,1,1.7356.48761,5.73065,5.73065,0,0,1-.6626,2.56925c-.03962.077-.09925.19459-.15784.19988-.104.00917-.07839-.13733-.13135-.20378a.10753.10753,0,0,1-.011-.02752c-.1684-.41407-.17146-.41671-.47218-.06282-.10126.119-.15915.14984-.23894-.02169-.15025-.32331-.31914-.63772-.48024-.956a.08834.08834,0,0,0-.1064.072v-2.044Q16.2625,7.73422,16.52493,7.72775Z"/><path class="f" d="M16.1064,9.71265c.1611.31831.33.63272.48024.956.07979.17153.13768.14067.23894.02169.30072-.35389.30378-.35125.47218.06282a.10753.10753,0,0,0,.011.02752c.053.06645.02731.213.13135.20378.05859-.00529.11822-.12288.15784-.19988a5.73076,5.73076,0,0,0,.6626-2.56939,5.0242,5.0242,0,0,1,.89745.41825c.0123.10786.032.21544.03551.32358a2.37725,2.37725,0,0,1-.0925,1.22583q-.502.79-1.00441,1.57972c-.06.094-.0884.22532-.26215.1604A5.28712,5.28712,0,0,0,16,11.66864V9.78493A.08822.08822,0,0,1,16.1064,9.71265Z"/><path class="l" d="M23.58178,14.12064c-.04015-.043-.09529-.08391-.13787-.02875-.02752.03564.02277.07923.068.098Z"/><path class="p" d="M22.68812,15.36746l.5264-.34979a9.86729,9.86729,0,0,0-1.25541-3.63134,5.16015,5.16015,0,0,1-.47535,1.6748c-.05266.10238.00574.14146.08414.18118.10635.05388.21113.11123.31417.17124.45412.26443.47248.269.36449.76477-.05435.24951-.0033.35739.248.36875.20564.0093.27043.12381.24312.31767C22.71425,15.03133,22.70414,15.19981,22.68812,15.36746Z"/><path class="b" d="M16,11.66864v7.28574a1.47565,1.47565,0,0,0,.77526-.13455A13.33822,13.33822,0,0,0,19.448,17.47724a1.93012,1.93012,0,0,1-.04469-2.46652,1.20774,1.20774,0,0,1,1.89545-.00668,2.00731,2.00731,0,0,1,.43117,1.03026,1.2498,1.2498,0,0,0,.41151-.29273,6.71708,6.71708,0,0,0-1.36052-2.73632c-.15415-.18-.32393-.34667-.48656-.5193-.073-.07756-.17639-.13525-.17111-.26354A18.46439,18.46439,0,0,0,19.101,10.18288q-.502.79-1.00441,1.57972c-.06.094-.0884.22532-.26215.1604A5.28712,5.28712,0,0,0,16,11.66864Zm1.12749,4.9539a.47786.47786,0,1,1,.47252.49053A.45239.45239,0,0,1,17.12749,16.62254Zm-.0597-1.76139a.47794.47794,0,1,1,.50324.45981A.45188.45188,0,0,1,17.06779,14.86115Z"/><path class="h" d="M21.72478,16.36223a1.6058,1.6058,0,0,1-.92017,1.42227,1.17812,1.17812,0,0,1-1.35664-.30721,1.93012,1.93012,0,0,1-.04465-2.46649,1.20771,1.20771,0,0,1,1.89545-.00666,2.00689,2.00689,0,0,1,.43115,1.03024C21.7287,16.14372,21.73652,16.254,21.72478,16.36223Zm-1.06177-.8017c-.14269-.12927-.28849-.08587-.40625.05838-.17479-.21975-.37545-.12475-.55322-.02351a.7501.7501,0,0,0-.31161.933.69052.69052,0,0,0,.74965.45631.765.765,0,0,0,.56808-.77293c.00059-.03962-.00217-.0793-.00338-.11895A.37814.37814,0,0,0,20.663,15.56053Z"/><path class="h" d="M18.02333,14.84a.478.478,0,1,1-.48839-.47461A.45087.45087,0,0,1,18.02333,14.84Zm-.76249-.107a.13527.13527,0,0,0,.125.16392c.09339.01132.14343-.04573.15469-.13412.01121-.088-.01612-.1529-.11679-.16161A.14536.14536,0,0,0,17.26084,14.733Z"/><path class="h" d="M17.6254,16.1575a.478.478,0,1,1-.49788.46509A.45025.45025,0,0,1,17.6254,16.1575Zm.02856.431a.16734.16734,0,0,0-.17187-.169.17545.17545,0,0,0-.16593.17849c-.0044.11067.07138.15312.17368.15776C17.59132,16.74543,17.66449,16.69774,17.654,16.58846Z"/><path d="M20.25676,15.61891c-.17479-.21975-.37545-.12475-.55322-.02351a.7501.7501,0,0,0-.31161.933.69052.69052,0,0,0,.74965.45631.765.765,0,0,0,.56808-.77293c.00059-.03962-.00217-.0793-.00333-.11895C20.38238,16.07825,20.27263,15.96258,20.25676,15.61891Z"/><path class="m" d="M20.25676,15.61891c.01587.34367.12562.45934.44957.47388a.37819.37819,0,0,0-.04332-.53226C20.52032,15.43126,20.37452,15.47466,20.25676,15.61891Z"/><path class="r" d="M17.4237,14.60117a.14536.14536,0,0,0-.16286.13181.13527.13527,0,0,0,.125.16392c.09339.01132.14343-.04573.15469-.13412C17.5517,14.67476,17.52437,14.60988,17.4237,14.60117Z"/><path class="r" d="M17.48984,16.75567c.10148-.01024.17465-.05793.16412-.16721a.16734.16734,0,0,0-.17187-.169.17545.17545,0,0,0-.16593.17849C17.31176,16.70858,17.38754,16.751,17.48984,16.75567Z"/></svg>