<svg xmlns="http://www.w3.org/2000/svg" viewBox="0 0 32 32"><title>596-galvantula-shiny</title><path d="M10.81042,4.92253c.50214.33655,1.05742.57608,1.5851.866.46934.25789.953.49008,1.41791.75544.18607.10621.26773.0698.36342-.10482.13329-.24321.29206-.47264.444-.70534.03481-.05332.04594-.1465.13185-.13753.06907.00721.06891.09039.09058.14146.2129.5017.4218,1.0051.63183,1.508a8.23375,8.23375,0,0,0-1.73561.48754,5.007,5.007,0,0,0-.89739.41829,7.54946,7.54946,0,0,0-1.905,1.48172q-.524-.56821-1.047-1.1373c-.03714-.04062-.1158-.07829-.08206-.138.01639-.029.105-.02539.16027-.02286.27723.0127.55567.01762.83091.04937.22771.02627.25592-.063.23646-.26493-.1026-1.065-.19139-2.13125-.285-3.19708Z" style="fill:#313d68"/><path d="M6.25886,24.74373c.10138.38283.2057.76494.30115,1.14925.01512.06089.0862.13586.01818.188-.02958.0227-.11062-.01523-.16577-.0333-.37733-.12363-.76474-.2059-1.15076-.296-.15679-.03661-.21082.0039-.25465.14538-.085.27447-.19538.54116-.27846.81615-.05015.166-.10753.19671-.23243.06625-.15776-.16478-.32038-.3249-.481-.48693a4.46892,4.46892,0,0,1-.34558-.514c-.13933-.28076-.27908-.28337-.52725-.1093-.50759.356-.54061.349-.73531-.22821-.10584-.31377-.24621-.35271-.50149-.20146-.27636.079-.55533.15006-.82805.24006-.15233.05027-.18927.00837-.18586-.14109.00748-.32815-.00286-.65672.00469-.98487a.29152.29152,0,0,0-.1528-.29484C.49355,23.91633.24759,23.76674,0,23.62c.11827-.26587.40341-.299.6191-.40765a.50991.50991,0,0,0,.329-.57277,2.67186,2.67186,0,0,1,.58171-1.97882,2.34374,2.34374,0,0,1,1.12742-.74419c.11933-.03689.21743-.07949.25432-.21665a16.06731,16.06731,0,0,1,2.45614-5.035c.05714-.06793.11791-.13314.17083-.2042a15.80357,15.80357,0,0,1,1.90114-2.12644c.04746-.04424.09328-.13583.16529-.09693.06544.03536.02115.126.0144.18935a3.679,3.679,0,0,0,.04.83042c.06951.57976.078.57867.644.41178.038-.01119.07658-.02018.1149-.03019l.06988.06921a6.02369,6.02369,0,0,0-.77538,1.41981c-.53127,1.60688-.87943,3.26276-1.31051,4.89646a1.38565,1.38565,0,0,0,.10827,1.12635,2.43576,2.43576,0,0,1,.28132,1.37768,3.1032,3.1032,0,0,1-.5136,1.46835C5.97448,24.23792,6.17827,24.49242,6.25886,24.74373Z" style="fill:#ffd96c"/><path d="M8.41822,13.6387c-.03832.01-.07694.019-.1149.03019-.56607.16689-.57452.168-.644-.41178a3.679,3.679,0,0,1-.04-.83042c.00675-.06335.051-.154-.0144-.18935-.072-.0389-.11783.05269-.16529.09693a15.80357,15.80357,0,0,0-1.90114,2.12644c-.05292.07106-.11369.13627-.17083.2042a2.50232,2.50232,0,0,1,.64719-1.26105c.2035-.23954.23726-.39691.03444-.64171-.13168-.15894-.36054-.356-.29292-.53242.04206-.10972.374-.11019.57662-.156.25175-.057.50293-.11832.75705-.16222.184-.0318.26733-.07808.22218-.30427-.101-.506-.15989-1.02033-.23472-1.53145-.007-.048-.00543-.09722-.00783-.14588a.98045.98045,0,0,1,.157.05757c.38851.22122.77935.43881,1.16074.67183.15235.09308.246.09878.36235-.0585.2304-.31152.48834-.60251.72572-.90909.11232-.14506.16745-.12528.23283.03458.1277.31224.2675.61954.40221.92876l-.06964.24937a9.8672,9.8672,0,0,0-1.2554,3.63135.999.999,0,0,0,.05891.7729c.15832.38194.3202.76239.48056,1.14348l-.07874.006-.68582-.54176-.84768-.78867a6.02369,6.02369,0,0,1,.77538-1.41981c.04522-.01873.09551-.06232.068-.098C8.51351,13.55479,8.45837,13.59573,8.41822,13.6387Z" style="fill:#313d68"/><path d="M10.0409,10.90439l.06963-.24937c.29418-.21691.41481-.57883.68311-.81766a3.3889,3.3889,0,0,0,.55957,1.73208c.06631.09982.12972.18509.25231.06893.16-.15163.23638-.07959.27126.10209.00526.12829-.09813.186-.17114.26357-.16264.1727-.33238.33932-.48659.51925A6.71741,6.71741,0,0,0,9.8586,15.25964a2.21818,2.21818,0,0,1-.54672-.37412c-.016-.16765-.02613-.33612-.04959-.50272-.02731-.19385.03748-.30837.24312-.31766.25133-.01137.30238-.11925.248-.36876-.108-.49573-.08963-.50034.36449-.76477.103-.06.20782-.11735.31417-.17124.0784-.03972.1368-.0788.08414-.18117A5.15994,5.15994,0,0,1,10.0409,10.90439Z" style="fill:#9a9595"/><path d="M11.87671,11.74047c-.03481-.18169-.11116-.25373-.27119-.1021-.12259.11616-.186.03089-.25231-.06893a3.3889,3.3889,0,0,1-.55957-1.73208l.14344-.204a7.54959,7.54959,0,0,1,1.905-1.48172c-.01231.10785-.03209.21546-.03556.3236A2.37737,2.37737,0,0,0,12.899,9.701,18.47739,18.47739,0,0,0,11.87671,11.74047Z" style="fill:#ffd04d"/><path d="M11.22508,27.07558c-.21291-.18214-.19808-.46027-.27389-.69487-.07794-.24118-.14206-.23057-.29514-.07031a8.0748,8.0748,0,0,0-.56726.6107c-.0539.06951-.09027.19249-.22591.14621-.14555-.41031-.29192-.82027-.43607-1.231a.204.204,0,0,0-.17273-.14027c-.126-.02517-.24965-.06231-.37443-.09383-.13294-.03358-.32075-.04994-.35221-.16922-.02229-.08455.19034-.09649.286-.16613a1.79928,1.79928,0,0,0,.64377-.8355,10.79308,10.79308,0,0,1,1.47223-2.77572,4.77238,4.77238,0,0,1,.75013-.80217,2.17653,2.17653,0,0,1,1.29173-.54212.51966.51966,0,0,1,.49558.3066c.07143.12753.13492.25951.202.3895a7.94051,7.94051,0,0,1-.02713,2.40392c-.00578.05934-.00873.11913-.018.17792-.0235.149.034.30693-.04955.44916-.08393-.13341-.17054-.26522-.25115-.4006-.10681-.1794-.20794-.36217-.314-.542-.01916-.03249-.05167-.08318-.07552-.08182-.0636.00363-.05062.073-.05646.11351q-.11042.76626-.213,1.53364c-.0453.33449-.08537.66969-.13345,1.00376a.963.963,0,0,1-.06825.18851,1.47281,1.47281,0,0,1-.12828-.15756c-.10928-.17787-.21123-.36024-.31989-.53851-.03-.04914-.07663-.12895-.11-.12623-.0611.005-.064.087-.07763.14517A11.87883,11.87883,0,0,1,11.22508,27.07558Z" style="fill:#ffe28a"/><path d="M15.22474,18.33789A13.34449,13.34449,0,0,1,12.552,16.99545a1.17811,1.17811,0,0,1-1.35662.30718,1.60621,1.60621,0,0,1-.92017-1.42237c-.01175-.10828-.00389-.2185-.00514-.3279a1.24951,1.24951,0,0,1-.41151-.29273,2.21458,2.21458,0,0,1-.54668-.37418q-.26322-.17472-.52639-.34972a.99843.99843,0,0,0,.05894.77283c.15832.382.32018.76255.48052,1.14354l.05664.12176c.31184.42186.58317.8725.93379,1.26725A7.13824,7.13824,0,0,0,13.251,19.80182l.98529.2477A8.16556,8.16556,0,0,0,16,20.20534v-1.7329A1.47555,1.47555,0,0,1,15.22474,18.33789Z" style="fill:#8d8888"/><path d="M13.251,19.80186q.49266.12385.98528.24777a2.497,2.497,0,0,1-.56739.95776c-.0671-.13-.13059-.26193-.202-.38946a.51966.51966,0,0,0-.49558-.3066Q13.11108,20.05652,13.251,19.80186Z" style="fill:#3e4679"/><path d="M7.71272,15.12772l.84768.78867a22.82,22.82,0,0,0-.76825,3.18328.50984.50984,0,0,0,.03276.37332,3.338,3.338,0,0,1,.26843,2.92724,1.02724,1.02724,0,0,0,.05637.92354,2.907,2.907,0,0,1,.15363.35522l-.06451.06516c-.24523-.0997-.49173-.19642-.73511-.30044-.10955-.04682-.2053-.06767-.27857.05341l-.05849.06642.00253-.00455a2.9784,2.9784,0,0,0-.62231.47994c-.131.11285-.19431.06739-.26868-.04237a3.1032,3.1032,0,0,0,.5136-1.46835,2.43576,2.43576,0,0,0-.28132-1.37768,1.38565,1.38565,0,0,1-.10827-1.12635C6.83329,18.39048,7.18145,16.7346,7.71272,15.12772Z" style="fill:#ffd04d"/><path d="M1.90552,25.23965c.25528-.15125.39565-.11231.50149.20146.1947.57716.22772.58422.73531.22821.24817-.17407.38792-.17146.52725.1093a4.46892,4.46892,0,0,0,.34558.514,8.93792,8.93792,0,0,1-.9334.67628c-.185.12417-.28545.0806-.40926-.07837A4.75385,4.75385,0,0,1,1.90552,25.23965Z" style="fill:#3a4274"/><path d="M6.2782,23.99656c.07437.10976.13766.15522.26868.04237a2.9784,2.9784,0,0,1,.62231-.47994,3.5929,3.5929,0,0,1-.91032,1.18473C6.17827,24.49242,5.97448,24.23792,6.2782,23.99656Z" style="fill:#313d68"/><path d="M8.23883,23.74415l.06451-.06516c.03014.02475.062.05729.02784.09172C8.29743,23.80472,8.26388,23.77462,8.23883,23.74415Z" style="fill:#f3d38f"/><path d="M9.325,16.45212l.05662.12173-.13536-.1157Z" style="fill:#5669b8"/><path d="M7.16666,23.56354l.05849-.06642A.06219.06219,0,0,1,7.16666,23.56354Z" style="fill:#8185a5"/><path d="M15.47507,7.24582a8.22572,8.22572,0,0,0-1.7356.4876,5.73058,5.73058,0,0,0,.6626,2.56925c.03962.077.09925.1946.15784.19988.104.00917.07839-.13733.13135-.20377a.10783.10783,0,0,0,.011-.02752c.1684-.41408.17146-.41672.47218-.06283.10126.119.15915.14984.23894-.02168.15025-.32332.31914-.63773.48024-.956a.08835.08835,0,0,1,.1064.072v-2.044Q15.7375,7.25228,15.47507,7.24582Z" style="fill:#ffd04d"/><path d="M15.8936,9.23071c-.1611.31831-.33.63272-.48024.956-.07979.17152-.13768.14066-.23894.02168-.30072-.35389-.30378-.35125-.47218.06283a.10783.10783,0,0,1-.011.02752c-.053.06644-.02731.21294-.13135.20377-.05859-.00528-.11822-.12288-.15784-.19988a5.73069,5.73069,0,0,1-.6626-2.56939,5.0249,5.0249,0,0,0-.89745.41825c-.0123.10786-.032.21545-.03551.32359A2.37726,2.37726,0,0,0,12.899,9.701q.502.79,1.00441,1.57971c.06.094.0884.22532.26215.16041A5.28689,5.28689,0,0,1,16,11.1867V9.303A.08824.08824,0,0,0,15.8936,9.23071Z" style="fill:#9a9595"/><path d="M8.41822,13.6387c.04015-.043.09529-.08391.13787-.02874.02752.03563-.02277.07922-.068.098Z" style="fill:#919187"/><path d="M9.31188,14.88552l-.5264-.34978a9.8674,9.8674,0,0,1,1.25541-3.63135,5.1602,5.1602,0,0,0,.47535,1.67481c.05266.10237-.00574.14145-.08414.18117-.10635.05389-.21113.11124-.31417.17124-.45412.26443-.47248.269-.36449.76477.05435.24951.0033.35739-.248.36876-.20564.00929-.27043.12381-.24312.31766C9.28575,14.5494,9.29586,14.71787,9.31188,14.88552Z" style="fill:#ffd04d"/><path d="M14.16557,11.44107c-.17375.06491-.20218-.06644-.26215-.16041q-.50363-.789-1.00441-1.57971a18.46424,18.46424,0,0,0-1.02226,2.03952c.00528.1283-.09813.186-.17111.26354-.16263.17264-.33241.3393-.48656.5193a6.7172,6.7172,0,0,0-1.36052,2.73632,1.24951,1.24951,0,0,0,.41151.29273,2.00727,2.00727,0,0,1,.43117-1.03025,1.20774,1.20774,0,0,1,1.89545.00667,1.93014,1.93014,0,0,1-.04469,2.46653,13.33765,13.33765,0,0,0,2.67274,1.34258A1.47555,1.47555,0,0,0,16,18.47244V11.1867A5.28689,5.28689,0,0,0,14.16557,11.44107ZM14.4,16.63113a.478.478,0,1,1,.47252-.49052A.45252.45252,0,0,1,14.4,16.63113Zm.029-1.79211a.4782.4782,0,1,1,.50324-.4598A.45093.45093,0,0,1,14.429,14.839Z" style="fill:#ffe28a"/><path d="M10.27008,15.55244a2.00682,2.00682,0,0,1,.43115-1.03023,1.2077,1.2077,0,0,1,1.89545.00665,1.93012,1.93012,0,0,1-.04465,2.46649,1.17812,1.17812,0,0,1-1.35664.30721,1.60579,1.60579,0,0,1-.92017-1.42227C10.26348,15.7721,10.2713,15.66178,10.27008,15.55244Zm1.02364.05842c-.00121.03965-.004.07932-.00338.11894a.765.765,0,0,0,.56808.77293.69051.69051,0,0,0,.74965-.4563.7501.7501,0,0,0-.31161-.933c-.17777-.10125-.37843-.19625-.55322.0235-.11776-.14425-.26356-.18765-.40625-.05837A.37814.37814,0,0,0,11.29372,15.61086Z" style="fill:#3e4679"/><path d="M14.46506,13.88342a.47816.47816,0,1,1-.48839.47461A.452.452,0,0,1,14.46506,13.88342Zm.11124.23581c-.10067.00872-.128.07359-.11679.16161.01126.0884.0613.14545.15469.13413a.13528.13528,0,0,0,.125-.16393A.14536.14536,0,0,0,14.5763,14.11923Z" style="fill:#3e4679"/><path d="M14.87248,16.14066a.47785.47785,0,1,1-.49788-.46509A.452.452,0,0,1,14.87248,16.14066Zm-.36232.13307c.1023-.00464.17808-.04709.17368-.15776a.17546.17546,0,0,0-.16593-.17849.16734.16734,0,0,0-.17187.169C14.33551,16.2158,14.40868,16.26349,14.51016,16.27373Z" style="fill:#3e4679"/><path d="M11.74324,15.137c.17479-.21975.37545-.12475.55322-.0235a.7501.7501,0,0,1,.31161.933.69051.69051,0,0,1-.74965.4563.765.765,0,0,1-.56808-.77293c-.00059-.03962.00217-.07929.00333-.11895C11.61762,15.59631,11.72737,15.48064,11.74324,15.137Z"/><path d="M11.74324,15.137c-.01587.34367-.12562.45934-.44957.47388a.37818.37818,0,0,1,.04332-.53225C11.47968,14.94932,11.62548,14.99272,11.74324,15.137Z" style="fill:#fff"/><path d="M14.5763,14.11923a.14536.14536,0,0,1,.16286.13181.13528.13528,0,0,1-.125.16393c-.09339.01132-.14343-.04573-.15469-.13413C14.4483,14.19282,14.47563,14.128,14.5763,14.11923Z" style="fill:#515e91"/><path d="M14.51016,16.27373c-.10148-.01024-.17465-.05793-.16412-.16721a.16734.16734,0,0,1,.17187-.169.17546.17546,0,0,1,.16593.17849C14.68824,16.22664,14.61246,16.26909,14.51016,16.27373Z" style="fill:#515e91"/><path d="M21.18958,4.92253c-.50214.33655-1.05742.57608-1.5851.866-.46934.25789-.953.49008-1.41791.75544-.18607.10621-.26773.0698-.36342-.10482-.13329-.24321-.29206-.47264-.444-.70534-.03481-.05332-.04594-.1465-.13185-.13753-.06907.00721-.06891.09039-.09058.14146-.2129.5017-.4218,1.0051-.63183,1.508a8.23375,8.23375,0,0,1,1.73561.48754,5.007,5.007,0,0,1,.89739.41829,7.54946,7.54946,0,0,1,1.905,1.48172q.524-.56821,1.047-1.1373c.03714-.04062.1158-.07829.08206-.138-.01639-.029-.105-.02539-.16027-.02286-.27723.0127-.55567.01762-.83091.04937-.22771.02627-.25592-.063-.23646-.26493.1026-1.065.19139-2.13125.285-3.19708Z" style="fill:#263460"/><path d="M25.74114,24.74373c-.10138.38283-.2057.76494-.30115,1.14925-.01512.06089-.0862.13586-.01818.188.02958.0227.11062-.01523.16577-.0333.37733-.12363.76474-.2059,1.15076-.296.15679-.03661.21082.0039.25465.14538.08505.27447.19538.54116.27846.81615.05015.166.10753.19671.23243.06625.15776-.16478.32038-.3249.481-.48693a4.46892,4.46892,0,0,0,.34558-.514c.13933-.28076.27908-.28337.52725-.1093.50759.356.54061.349.73531-.22821.10584-.31377.24621-.35271.50149-.20146.27636.079.55533.15006.828.24006.15233.05027.18927.00837.18586-.14109-.00748-.32815.00286-.65672-.00469-.98487a.29152.29152,0,0,1,.1528-.29484c.25-.14258.49591-.29217.7435-.43888-.11827-.26587-.40341-.299-.6191-.40765a.50991.50991,0,0,1-.329-.57277,2.67186,2.67186,0,0,0-.58171-1.97882,2.34374,2.34374,0,0,0-1.12742-.74419c-.11933-.03689-.21743-.07949-.25432-.21665a16.06731,16.06731,0,0,0-2.45614-5.035c-.05714-.06793-.11791-.13314-.17083-.2042a15.80357,15.80357,0,0,0-1.90114-2.12644c-.04746-.04424-.09328-.13583-.16529-.09693-.06544.03536-.02115.126-.0144.18935a3.679,3.679,0,0,1-.03995.83042c-.06951.57976-.078.57867-.644.41178-.038-.01119-.07658-.02018-.1149-.03019l-.06988.06921a6.02369,6.02369,0,0,1,.77538,1.41981c.53127,1.60688.87943,3.26276,1.31051,4.89646a1.38565,1.38565,0,0,1-.10827,1.12635,2.43576,2.43576,0,0,0-.28132,1.37768,3.1032,3.1032,0,0,0,.5136,1.46835C26.02552,24.23792,25.82173,24.49242,25.74114,24.74373Z" style="fill:#ffd04d"/><path d="M23.58178,13.6387c.03832.01.07694.019.1149.03019.56607.16689.57452.168.644-.41178a3.679,3.679,0,0,0,.03995-.83042c-.00675-.06335-.051-.154.0144-.18935.072-.0389.11783.05269.16529.09693a15.80357,15.80357,0,0,1,1.90114,2.12644c.05292.07106.11369.13627.17083.2042a2.50232,2.50232,0,0,0-.64719-1.26105c-.2035-.23954-.23726-.39691-.03444-.64171.13168-.15894.36054-.356.29292-.53242-.04206-.10972-.374-.11019-.57662-.156-.25175-.057-.50293-.11832-.757-.16222-.184-.0318-.26733-.07808-.22218-.30427.101-.506.15989-1.02033.23472-1.53145.007-.048.00543-.09722.00783-.14588a.98045.98045,0,0,0-.157.05757c-.38851.22122-.77935.43881-1.16074.67183-.15235.09308-.246.09878-.36235-.0585-.2304-.31152-.48834-.60251-.72572-.90909-.11232-.14506-.16745-.12528-.23283.03458-.1277.31224-.2675.61954-.40221.92876l.06964.24937a9.8672,9.8672,0,0,1,1.2554,3.63135.999.999,0,0,1-.05891.7729c-.15832.38194-.3202.76239-.48056,1.14348l.07874.006.68582-.54176.84768-.78867a6.02369,6.02369,0,0,0-.77538-1.41981c-.04522-.01873-.09551-.06232-.068-.098C23.48649,13.55479,23.54163,13.59573,23.58178,13.6387Z" style="fill:#263460"/><path d="M21.9591,10.90439l-.06963-.24937c-.29418-.21691-.41481-.57883-.68311-.81766a3.3889,3.3889,0,0,1-.55957,1.73208c-.06631.09982-.12972.18509-.25231.06893-.16-.15163-.23638-.07959-.27126.10209-.00526.12829.09813.186.17114.26357.16264.1727.33238.33932.48659.51925a6.71741,6.71741,0,0,1,1.36045,2.73636,2.21818,2.21818,0,0,0,.54672-.37412c.016-.16765.02613-.33612.04959-.50272.02731-.19385-.03748-.30837-.24312-.31766-.25133-.01137-.30238-.11925-.248-.36876.108-.49573.08963-.50034-.36449-.76477-.103-.06-.20782-.11735-.31417-.17124-.0784-.03972-.1368-.0788-.08414-.18117A5.15994,5.15994,0,0,0,21.9591,10.90439Z" style="fill:#8d8888"/><path d="M20.12329,11.74047c.03481-.18169.11116-.25373.27119-.1021.12259.11616.186.03089.25231-.06893a3.3889,3.3889,0,0,0,.55957-1.73208l-.14344-.204a7.54959,7.54959,0,0,0-1.905-1.48172c.01231.10785.03209.21546.03556.3236A2.37737,2.37737,0,0,1,19.101,9.701,18.47739,18.47739,0,0,1,20.12329,11.74047Z" style="fill:#f7c845"/><path d="M20.77492,27.07558c.21291-.18214.19808-.46027.27389-.69487.07794-.24118.14206-.23057.29514-.07031a8.0748,8.0748,0,0,1,.56726.6107c.0539.06951.09027.19249.22591.14621.14555-.41031.29192-.82027.43607-1.231a.204.204,0,0,1,.17273-.14027c.126-.02517.24965-.06231.37443-.09383.13294-.03358.32075-.04994.35221-.16922.02229-.08455-.19034-.09649-.286-.16613a1.79928,1.79928,0,0,1-.64377-.8355,10.79308,10.79308,0,0,0-1.47223-2.77572,4.77238,4.77238,0,0,0-.75013-.80217,2.17653,2.17653,0,0,0-1.29173-.54212.51966.51966,0,0,0-.49558.3066c-.07143.12753-.13492.25951-.202.3895a7.94051,7.94051,0,0,0,.02713,2.40392c.00578.05934.00873.11913.018.17792.0235.149-.034.30693.04955.44916.08393-.13341.17054-.26522.25115-.4006.10681-.1794.20794-.36217.314-.542.01916-.03249.05167-.08318.07552-.08182.0636.00363.05062.073.05646.11351q.11042.76626.21305,1.53364c.0453.33449.08537.66969.13345,1.00376a.963.963,0,0,0,.06825.18851,1.47281,1.47281,0,0,0,.12828-.15756c.10928-.17787.21123-.36024.31989-.53851.03-.04914.07663-.12895.11-.12623.0611.005.064.087.07763.14517A11.87883,11.87883,0,0,0,20.77492,27.07558Z" style="fill:#ffd96c"/><path d="M16.77526,18.33789A13.34449,13.34449,0,0,0,19.448,16.99545a1.17811,1.17811,0,0,0,1.35662.30718,1.60621,1.60621,0,0,0,.92017-1.42237c.01175-.10828.00389-.2185.00514-.3279a1.24951,1.24951,0,0,0,.41151-.29273,2.21458,2.21458,0,0,0,.54668-.37418q.26322-.17472.52639-.34972a.99843.99843,0,0,1-.05894.77283c-.15832.382-.32018.76255-.48052,1.14354l-.05664.12176c-.31184.42186-.58317.8725-.93379,1.26725A7.13824,7.13824,0,0,1,18.749,19.80182l-.98529.2477A8.16556,8.16556,0,0,1,16,20.20534v-1.7329A1.47555,1.47555,0,0,0,16.77526,18.33789Z" style="fill:#807a7a"/><path d="M18.749,19.80186q-.49266.12385-.98528.24777a2.497,2.497,0,0,0,.56739.95776c.0671-.13.13059-.26193.202-.38946a.51966.51966,0,0,1,.49558-.3066Q18.88893,20.05652,18.749,19.80186Z" style="fill:#3a4274"/><path d="M24.28728,15.12772l-.84768.78867a22.82,22.82,0,0,1,.76825,3.18328.50984.50984,0,0,1-.03276.37332,3.338,3.338,0,0,0-.26843,2.92724,1.02724,1.02724,0,0,1-.05637.92354,2.907,2.907,0,0,0-.15363.35522l.06451.06516c.24523-.0997.49173-.19642.73511-.30044.10955-.04682.2053-.06767.27857.05341l.05849.06642-.00253-.00455a2.9784,2.9784,0,0,1,.62231.47994c.131.11285.19431.06739.26868-.04237a3.1032,3.1032,0,0,1-.5136-1.46835,2.43576,2.43576,0,0,1,.28132-1.37768,1.38565,1.38565,0,0,0,.10827-1.12635C25.16671,18.39048,24.81855,16.7346,24.28728,15.12772Z" style="fill:#f7c845"/><path d="M30.09448,25.23965c-.25528-.15125-.39565-.11231-.50149.20146-.1947.57716-.22772.58422-.73531.22821-.24817-.17407-.38792-.17146-.52725.1093a4.46892,4.46892,0,0,1-.34558.514,8.93792,8.93792,0,0,0,.9334.67628c.185.12417.28545.0806.40926-.07837A4.75385,4.75385,0,0,0,30.09448,25.23965Z" style="fill:#313d68"/><path d="M25.7218,23.99656c-.07437.10976-.13766.15522-.26868.04237a2.9784,2.9784,0,0,0-.62231-.47994,3.5929,3.5929,0,0,0,.91032,1.18473C25.82173,24.49242,26.02552,24.23792,25.7218,23.99656Z" style="fill:#263460"/><path d="M23.76117,23.74415l-.06451-.06516c-.03014.02475-.062.05729-.02784.09172C23.70257,23.80472,23.73612,23.77462,23.76117,23.74415Z" style="fill:#f3d38f"/><path d="M22.675,16.45212l-.05662.12173.13536-.1157Z" style="fill:#5669b8"/><path d="M24.83334,23.56354l-.05849-.06642A.06219.06219,0,0,0,24.83334,23.56354Z" style="fill:#8185a5"/><path d="M16.52493,7.24582a8.22572,8.22572,0,0,1,1.7356.4876,5.73058,5.73058,0,0,1-.6626,2.56925c-.03962.077-.09925.1946-.15784.19988-.104.00917-.07839-.13733-.13135-.20377a.10783.10783,0,0,1-.011-.02752c-.1684-.41408-.17146-.41672-.47218-.06283-.10126.119-.15915.14984-.23894-.02168-.15025-.32332-.31914-.63773-.48024-.956a.08835.08835,0,0,0-.1064.072v-2.044Q16.2625,7.25228,16.52493,7.24582Z" style="fill:#f7c845"/><path d="M16.1064,9.23071c.1611.31831.33.63272.48024.956.07979.17152.13768.14066.23894.02168.30072-.35389.30378-.35125.47218.06283a.10783.10783,0,0,0,.011.02752c.053.06644.02731.21294.13135.20377.05859-.00528.11822-.12288.15784-.19988a5.73069,5.73069,0,0,0,.6626-2.56939,5.0249,5.0249,0,0,1,.89745.41825c.0123.10786.032.21545.03551.32359A2.37726,2.37726,0,0,1,19.101,9.701q-.502.79-1.00441,1.57971c-.06.094-.0884.22532-.26215.16041A5.28689,5.28689,0,0,0,16,11.1867V9.303A.08824.08824,0,0,1,16.1064,9.23071Z" style="fill:#8d8888"/><path d="M23.58178,13.6387c-.04015-.043-.09529-.08391-.13787-.02874-.02752.03563.02277.07922.068.098Z" style="fill:#919187"/><path d="M22.68812,14.88552l.5264-.34978a9.8674,9.8674,0,0,0-1.25541-3.63135,5.1602,5.1602,0,0,1-.47535,1.67481c-.05266.10237.00574.14145.08414.18117.10635.05389.21113.11124.31417.17124.45412.26443.47248.269.36449.76477-.05435.24951-.0033.35739.248.36876.20564.00929.27043.12381.24312.31766C22.71425,14.5494,22.70414,14.71787,22.68812,14.88552Z" style="fill:#f7c845"/><path d="M16,11.1867v7.28574a1.47555,1.47555,0,0,0,.77526-.13455A13.33765,13.33765,0,0,0,19.448,16.99531a1.93014,1.93014,0,0,1-.04469-2.46653,1.20774,1.20774,0,0,1,1.89545-.00667,2.00727,2.00727,0,0,1,.43117,1.03025,1.24951,1.24951,0,0,0,.41151-.29273,6.7172,6.7172,0,0,0-1.36052-2.73632c-.15415-.18-.32393-.34666-.48656-.5193-.073-.07756-.17639-.13524-.17111-.26354A18.46424,18.46424,0,0,0,19.101,9.701q-.502.79-1.00441,1.57971c-.06.094-.0884.22532-.26215.16041A5.28689,5.28689,0,0,0,16,11.1867Zm1.12749,4.95391a.47786.47786,0,1,1,.47252.49052A.45239.45239,0,0,1,17.12749,16.14061Zm-.0597-1.76139a.47794.47794,0,1,1,.50324.4598A.45189.45189,0,0,1,17.06779,14.37922Z" style="fill:#ffd96c"/><path d="M21.72478,15.88029a1.60579,1.60579,0,0,1-.92017,1.42227,1.17812,1.17812,0,0,1-1.35664-.30721,1.93012,1.93012,0,0,1-.04465-2.46649,1.2077,1.2077,0,0,1,1.89545-.00665,2.00682,2.00682,0,0,1,.43115,1.03023C21.7287,15.66178,21.73652,15.7721,21.72478,15.88029ZM20.663,15.0786c-.14269-.12928-.28849-.08588-.40625.05837-.17479-.21975-.37545-.12475-.55322-.0235a.7501.7501,0,0,0-.31161.933.69051.69051,0,0,0,.74965.4563.765.765,0,0,0,.56808-.77293c.00059-.03962-.00217-.07929-.00338-.11894A.37814.37814,0,0,0,20.663,15.0786Z" style="fill:#3a4274"/><path d="M18.02333,14.358a.478.478,0,1,1-.48839-.47461A.45087.45087,0,0,1,18.02333,14.358Zm-.76249-.107a.13528.13528,0,0,0,.125.16393c.09339.01132.14343-.04573.15469-.13413.01121-.088-.01612-.15289-.11679-.16161A.14536.14536,0,0,0,17.26084,14.251Z" style="fill:#3a4274"/><path d="M17.6254,15.67557a.478.478,0,1,1-.49788.46509A.45024.45024,0,0,1,17.6254,15.67557Zm.02856.43095a.16734.16734,0,0,0-.17187-.169.17546.17546,0,0,0-.16593.17849c-.0044.11067.07138.15312.17368.15776C17.59132,16.26349,17.66449,16.2158,17.654,16.10652Z" style="fill:#3a4274"/><path d="M20.25676,15.137c-.17479-.21975-.37545-.12475-.55322-.0235a.7501.7501,0,0,0-.31161.933.69051.69051,0,0,0,.74965.4563.765.765,0,0,0,.56808-.77293c.00059-.03962-.00217-.07929-.00333-.11895C20.38238,15.59631,20.27263,15.48064,20.25676,15.137Z"/><path d="M20.25676,15.137c.01587.34367.12562.45934.44957.47388a.37818.37818,0,0,0-.04332-.53225C20.52032,14.94932,20.37452,14.99272,20.25676,15.137Z" style="fill:#fff"/><path d="M17.4237,14.11923a.14536.14536,0,0,0-.16286.13181.13528.13528,0,0,0,.125.16393c.09339.01132.14343-.04573.15469-.13413C17.5517,14.19282,17.52437,14.128,17.4237,14.11923Z" style="fill:#495587"/><path d="M17.48984,16.27373c.10148-.01024.17465-.05793.16412-.16721a.16734.16734,0,0,0-.17187-.169.17546.17546,0,0,0-.16593.17849C17.31176,16.22664,17.38754,16.26909,17.48984,16.27373Z" style="fill:#495587"/></svg>