<svg xmlns="http://www.w3.org/2000/svg" viewBox="0 0 32 32"><title>597-ferroseed</title><polygon points="1.518 21.511 5.194 18.293 7.363 22.878 1.518 21.511" style="fill:#60cd96"/><polygon points="14.846 24.355 13.631 27.642 15.917 32 16 31.831 16 24.355 14.846 24.355" style="fill:#60cd96"/><polygon points="2.659 10.391 7.516 9.868 6.659 14.868 2.659 10.391" style="fill:#60cd96"/><polygon points="13.856 4.391 13.631 4.915 16 4.915 16 0 13.856 4.391" style="fill:#60cd96"/><path d="M7.95378,7.91382A55.01261,55.01261,0,0,1,16,7.43067V3.51079A11.28482,11.28482,0,0,0,7.95378,7.91382Z" style="fill:#d1d4d4"/><path d="M7.95378,7.91382c-.2569.31482-.49683.64524-.72852.98219C7.72841,8.57383,11.873,8.41381,16,8.41553V7.43067A55.01261,55.01261,0,0,0,7.95378,7.91382Z" style="fill:#687271"/><path d="M5.63693,22.89553c.11234.2154.25278.41527.38181.62161A63.35465,63.35465,0,0,1,16,22.70349v-.78588C10.84028,21.9174,5.68331,22.24212,5.63693,22.89553Z" style="fill:#687271"/><path d="M6.01874,23.51714C7.73556,26.26279,10.92321,28.17762,16,28.17762V22.70349A63.35465,63.35465,0,0,0,6.01874,23.51714Z" style="fill:#d1d4d4"/><path d="M4.82762,14.35894a12.46688,12.46688,0,0,0,.80931,8.53659c.04638-.65341,5.20335-.97813,10.36307-.97792V13.41722C10.43428,13.418,4.87929,13.73081,4.82762,14.35894Z" style="fill:#d1d4d4"/><path d="M5.10328,13.38087c-.09743.325-.19926.6493-.27566.97807.05167-.62813,5.60666-.9409,11.17238-.94172V12.346C10.73619,12.35025,5.5081,12.69441,5.10328,13.38087Z" style="fill:#687271"/><path d="M7.22526,8.896a16.0925,16.0925,0,0,0-2.122,4.48486C5.5081,12.69441,10.73619,12.35025,16,12.346V8.41553C11.873,8.41381,7.72841,8.57383,7.22526,8.896Z" style="fill:#d1d4d4"/><path d="M7.22526,16.62947l3.79449,2.23811,3.63961-2.19049V13.4223c-2.85249.02653-5.5765.13673-7.4341.33015Z" style="fill:#53bf8c"/><path d="M8.18312,14.2723a2.83843,2.83843,0,0,0,5.67332,0,2.62334,2.62334,0,0,0-.14965-.838c-2.01185.03229-3.9183.10684-5.44609.22426A2.63943,2.63943,0,0,0,8.18312,14.2723Z" style="fill:#e0b12e"/><path d="M10.23077,14.36753c0,1.06518.47965,1.92864,1.07144,1.92864s1.07143-.86346,1.07143-1.92864a3.17528,3.17528,0,0,0-.12965-.90146c-.65877.01807-1.29591.041-1.90439.06892A3.2227,3.2227,0,0,0,10.23077,14.36753Z" style="fill:#373f3f"/><path d="M13.85644,4.39129c1.1758,1.32618-1.40226,3.6119-2.57806,2.28573L10.0879,3.51079Z" style="fill:#60cd96"/><path d="M8.83428,24.77422c1.32617-1.1758,3.6119,1.40226,2.28573,2.57805L7.95378,28.54276Z" style="fill:#60cd96"/><path d="M14.37367,10.20085A1.51932,1.51932,0,0,0,16,11.647V6.80872Z" style="fill:#60cd96"/><polygon points="30.482 21.511 26.806 18.293 24.637 22.878 30.482 21.511" style="fill:#53bf8c"/><polygon points="17.154 24.355 18.369 27.642 16.083 32 16 31.831 16 24.355 17.154 24.355" style="fill:#53bf8c"/><polygon points="29.341 10.391 24.484 9.868 25.341 14.868 29.341 10.391" style="fill:#53bf8c"/><polygon points="18.144 4.391 18.369 4.915 16 4.915 16 0 18.144 4.391" style="fill:#53bf8c"/><path d="M24.04622,7.91382A55.01261,55.01261,0,0,0,16,7.43067V3.51079A11.28482,11.28482,0,0,1,24.04622,7.91382Z" style="fill:#c8cccb"/><path d="M24.04622,7.91382c.2569.31482.49683.64524.72852.98219C24.27159,8.57383,20.127,8.41381,16,8.41553V7.43067A55.01261,55.01261,0,0,1,24.04622,7.91382Z" style="fill:#5c6664"/><path d="M26.36307,22.89553c-.11234.2154-.25278.41527-.38181.62161A63.35465,63.35465,0,0,0,16,22.70349v-.78588C21.15972,21.9174,26.31669,22.24212,26.36307,22.89553Z" style="fill:#5c6664"/><path d="M25.98126,23.51714C24.26444,26.26279,21.07679,28.17762,16,28.17762V22.70349A63.35465,63.35465,0,0,1,25.98126,23.51714Z" style="fill:#c8cccb"/><path d="M27.17238,14.35894a12.46688,12.46688,0,0,1-.80931,8.53659c-.04638-.65341-5.20335-.97813-10.36307-.97792V13.41722C21.56572,13.418,27.12071,13.73081,27.17238,14.35894Z" style="fill:#c8cccb"/><path d="M26.89672,13.38087c.09743.325.19926.6493.27566.97807-.05167-.62813-5.60666-.9409-11.17238-.94172V12.346C21.26381,12.35025,26.4919,12.69441,26.89672,13.38087Z" style="fill:#5c6664"/><path d="M24.77474,8.896a16.0925,16.0925,0,0,1,2.122,4.48486C26.4919,12.69441,21.26381,12.35025,16,12.346V8.41553C20.127,8.41381,24.27159,8.57383,24.77474,8.896Z" style="fill:#c8cccb"/><path d="M24.77474,16.62947l-3.79449,2.23811-3.63961-2.19049V13.4223c2.85249.02653,5.5765.13673,7.4341.33015Z" style="fill:#46b080"/><path d="M23.81688,14.2723a2.83843,2.83843,0,0,1-5.67332,0,2.62334,2.62334,0,0,1,.14965-.838c2.01185.03229,3.9183.10684,5.44609.22426A2.63943,2.63943,0,0,1,23.81688,14.2723Z" style="fill:#dba728"/><path d="M21.76923,14.36753c0,1.06518-.47965,1.92864-1.07144,1.92864s-1.07143-.86346-1.07143-1.92864a3.17528,3.17528,0,0,1,.12965-.90146c.65877.01807,1.29591.041,1.90439.06892A3.2227,3.2227,0,0,1,21.76923,14.36753Z" style="fill:#2b3332"/><path d="M18.14356,4.39129c-1.1758,1.32618,1.40226,3.6119,2.57806,2.28573L21.9121,3.51079Z" style="fill:#53bf8c"/><path d="M23.16572,24.77422c-1.32617-1.1758-3.6119,1.40226-2.28573,2.57805l3.16623,1.19049Z" style="fill:#53bf8c"/><path d="M17.62633,10.20085A1.51932,1.51932,0,0,1,16,11.647V6.80872Z" style="fill:#53bf8c"/></svg>