<svg xmlns="http://www.w3.org/2000/svg" viewBox="0 0 32 32"><title>598-ferrothorn-shiny</title><path d="M6.53137,18.52239A14.73106,14.73106,0,0,0,16,21.662V19.90385A31.85151,31.85151,0,0,1,6.53137,18.52239Z" style="fill:#ffe28a"/><path d="M5.27723,17.31767a10.5895,10.5895,0,0,0,1.25414,1.20472A31.85151,31.85151,0,0,0,16,19.90385v-.77741A30.94494,30.94494,0,0,1,5.27723,17.31767Z" style="fill:#687271"/><path d="M3.26856,12.94006a8.15924,8.15924,0,0,0,2.00867,4.37761A30.94494,30.94494,0,0,0,16,19.12644V14.75661A40.24953,40.24953,0,0,1,3.26856,12.94006Z" style="fill:#ffe28a"/><path d="M12.85164,13.9949l-1.93713-1.72856-2.60734,1.2374A30.31418,30.31418,0,0,1,3.46981,12.3485c-.06586.17718-.15543.35234-.21164.52981.00224.02078.008.041.01039.06175A40.24953,40.24953,0,0,0,16,14.75661v-.66894C14.925,14.08767,13.87276,14.05582,12.85164,13.9949Z" style="fill:#687271"/><path d="M7.27521,7.0439a12.44173,12.44173,0,0,0-3.8054,5.3046,30.31418,30.31418,0,0,0,4.83736,1.15524l2.60734-1.2374,1.93713,1.72856c1.02112.06092,2.07334.09277,3.14836.09277V9.30742C11.7512,9.30742,8.20079,8.3405,7.27521,7.0439Z" style="fill:#ffe28a"/><path d="M8.11243,6.4163c-.29141.19923-.56913.40983-.83722.6276C8.20079,8.3405,11.7512,9.30742,16,9.30742V8.60223C12.0287,8.60223,8.74189,7.65594,8.11243,6.4163Z" style="fill:#687271"/><path d="M8.11243,6.4163C8.74189,7.65594,12.0287,8.60223,16,8.60223V4.09454A13.74321,13.74321,0,0,0,8.11243,6.4163Z" style="fill:#ffe28a"/><path d="M.03722,24.75228c.0761,1.59092,1.70732,2.86465,3.72265,2.86465s3.64655-1.27373,3.72265-2.86465a13.18024,13.18024,0,0,1-3.72265.49886A13.18024,13.18024,0,0,1,.03722,24.75228Z" style="fill:#fef1c6"/><path d="M2.80631,23.95737c.26946.63786,1.455.13707,1.18551-.5008C-1.57489,7.2057,4.58457,2.25751,11.79458,7.15415a.59356.59356,0,0,0,.87024-.80577C11.21082,3.57188-5.41489-.88665,2.80631,23.95737Z" style="fill:#de8490"/><path d="M3.75987,21.662C1.696,21.662.02294,22.99509.02294,24.63947c0,.03865.01241.07453.01428.11281a13.18024,13.18024,0,0,0,3.72265.49886,13.18024,13.18024,0,0,0,3.72265-.49886c.00187-.03828.01428-.07416.01428-.11281C7.4968,22.99509,5.82371,21.662,3.75987,21.662Z" style="fill:#e08c96"/><path d="M14.40451,6.62405c0,.35391.82638.51165,1.59549.48593V3.245Z" style="fill:#dd7c8a"/><path d="M7.48252,10.144c.69446.53437-.93866,2.65675-1.63312,2.12238L3.75987,9.05685Z" style="fill:#ffeaa7"/><path d="M14.661,16.90141,16,20.404V16.25334C15.332,16.2499,14.66392,16.46423,14.661,16.90141Z" style="fill:#ffeaa7"/><path d="M5.992,15.14517c.67548-.55818,2.38135,1.50618,1.70587,2.06436L4.104,18.53267Z" style="fill:#ffeaa7"/><path d="M11.21294,20.2405c.34838-.67428,2.40905.39044,2.06067,1.06472L10.86028,23.5809Z" style="fill:#ffeaa7"/><path d="M2.93388,23.19741c.28371.57386-1.47009,1.44092-1.7538.86706L.84149,21.28716Z" style="fill:#e2959e"/><path d="M4.67468,23.19741c-.28371.57386,1.47009,1.44092,1.7538.86706l.33859-2.77731Z" style="fill:#e2959e"/><path d="M4.77454,26.36485c-.12409-.628,1.79523-1.00727,1.91933-.37925L6.29581,28.755Z" style="fill:#fff5d8"/><path d="M3.0136,26.36485c.12409-.628-1.79523-1.00727-1.91933-.37925L1.49232,28.755Z" style="fill:#fff5d8"/><path d="M9.03554,10.06718l1.879,2.19916,2.6492-.88169.60554-2.13876a18.63967,18.63967,0,0,1-4.66027-.851Z" style="fill:#db7383"/><path d="M10.08044,8.607a1.88629,1.88629,0,0,0,1.19672,2.37858,1.88629,1.88629,0,0,0,2.266-1.3982,1.86111,1.86111,0,0,0,.04673-.39024,19.19062,19.19062,0,0,1-3.49748-.61952C10.08926,8.588,10.08343,8.59654,10.08044,8.607Z" style="fill:#e0b12e"/><path d="M11.31163,9.02655c-.208.73458-.08381,1.413.27735,1.51527s.82256-.41034,1.03054-1.145a2.29553,2.29553,0,0,0,.0453-.30113c-.45169-.05928-.88222-.13105-1.29406-.21253C11.353,8.9337,11.32673,8.97325,11.31163,9.02655Z" style="fill:#373f3f"/><path d="M25.46863,18.52239A14.73106,14.73106,0,0,1,16,21.662V19.90385A31.85151,31.85151,0,0,0,25.46863,18.52239Z" style="fill:#ffd96c"/><path d="M26.72277,17.31767a10.5895,10.5895,0,0,1-1.25414,1.20472A31.85151,31.85151,0,0,1,16,19.90385v-.77741A30.94494,30.94494,0,0,0,26.72277,17.31767Z" style="fill:#5c6664"/><path d="M28.73144,12.94006a8.15924,8.15924,0,0,1-2.00867,4.37761A30.94494,30.94494,0,0,1,16,19.12644V14.75661A40.24953,40.24953,0,0,0,28.73144,12.94006Z" style="fill:#ffd96c"/><path d="M19.14836,13.9949l1.93713-1.72856,2.60734,1.2374a30.31418,30.31418,0,0,0,4.83736-1.15524c.06586.17718.15543.35234.21164.52981-.00224.02078-.008.041-.01039.06175A40.24953,40.24953,0,0,1,16,14.75661v-.66894C17.075,14.08767,18.12724,14.05582,19.14836,13.9949Z" style="fill:#5c6664"/><path d="M24.72479,7.0439a12.44173,12.44173,0,0,1,3.8054,5.3046,30.31418,30.31418,0,0,1-4.83736,1.15524l-2.60734-1.2374L19.14836,13.9949c-1.02112.06092-2.07334.09277-3.14836.09277V9.30742C20.2488,9.30742,23.79921,8.3405,24.72479,7.0439Z" style="fill:#ffd96c"/><path d="M23.88757,6.4163c.29141.19923.56913.40983.83722.6276C23.79921,8.3405,20.2488,9.30742,16,9.30742V8.60223C19.9713,8.60223,23.25811,7.65594,23.88757,6.4163Z" style="fill:#5c6664"/><path d="M23.88757,6.4163C23.25811,7.65594,19.9713,8.60223,16,8.60223V4.09454A13.74321,13.74321,0,0,1,23.88757,6.4163Z" style="fill:#ffd96c"/><path d="M31.96278,24.75228c-.0761,1.59092-1.70732,2.86465-3.72265,2.86465s-3.64655-1.27373-3.72265-2.86465a14.13922,14.13922,0,0,0,7.4453,0Z" style="fill:#ffeaa7"/><path d="M29.19369,23.95737c-.26946.63786-1.455.13707-1.18551-.5008C33.57489,7.2057,27.41543,2.25751,20.20542,7.15415a.59356.59356,0,0,1-.87024-.80577C20.78918,3.57188,37.41489-.88665,29.19369,23.95737Z" style="fill:#dd7c8a"/><path d="M28.24013,21.662c2.06385,0,3.73693,1.33308,3.73693,2.97746,0,.03865-.01241.07453-.01428.11281a14.13922,14.13922,0,0,1-7.4453,0c-.00187-.03828-.01428-.07416-.01428-.11281C24.5032,22.99509,26.17629,21.662,28.24013,21.662Z" style="fill:#de8490"/><path d="M17.59549,6.62405c0,.35391-.82638.51165-1.59549.48593V3.245Z" style="fill:#db7383"/><path d="M24.51748,10.144c-.69446.53437.93866,2.65675,1.63312,2.12238l2.08953-3.20949Z" style="fill:#ffe28a"/><path d="M17.339,16.90141,16,20.404V16.25334C16.668,16.2499,17.33608,16.46423,17.339,16.90141Z" style="fill:#ffe28a"/><path d="M26.008,15.14517c-.67548-.55818-2.38135,1.50618-1.70587,2.06436L27.896,18.53267Z" style="fill:#ffe28a"/><path d="M20.78706,20.2405c-.34838-.67428-2.40905.39044-2.06067,1.06472l2.41333,2.27568Z" style="fill:#ffe28a"/><path d="M29.06612,23.19741c-.28371.57386,1.47009,1.44092,1.7538.86706l.33859-2.77731Z" style="fill:#e08c96"/><path d="M27.32532,23.19741c.28371.57386-1.47009,1.44092-1.7538.86706l-.33859-2.77731Z" style="fill:#e08c96"/><path d="M27.22546,26.36485c.12409-.628-1.79523-1.00727-1.91933-.37925l.39806,2.76941Z" style="fill:#fef1c6"/><path d="M28.9864,26.36485c-.12409-.628,1.79523-1.00727,1.91933-.37925l-.398,2.76941Z" style="fill:#fef1c6"/><path d="M22.96446,10.06718l-1.879,2.19916-2.6492-.88169-.60554-2.13876a18.63967,18.63967,0,0,0,4.66027-.851Z" style="fill:#d56a7d"/><path d="M21.91956,8.607a1.8062,1.8062,0,1,1-3.46271.98038,1.86111,1.86111,0,0,1-.04673-.39024,19.19062,19.19062,0,0,0,3.49748-.61952C21.91074,8.588,21.91657,8.59654,21.91956,8.607Z" style="fill:#dba728"/><path d="M20.68837,9.02655c.208.73458.08381,1.413-.27735,1.51527s-.82256-.41034-1.03054-1.145a2.29553,2.29553,0,0,1-.0453-.30113c.45169-.05928.88222-.13105,1.29406-.21253C20.647,8.9337,20.67327,8.97325,20.68837,9.02655Z" style="fill:#2b3332"/></svg>