<?xml version="1.0" encoding="utf-8"?>
<!-- Generator: Adobe Illustrator 23.0.6, SVG Export Plug-In . SVG Version: 6.00 Build 0)  -->
<svg version="1.1" xmlns="http://www.w3.org/2000/svg" xmlns:xlink="http://www.w3.org/1999/xlink" x="0px" y="0px" width="32px"
	 height="32px" viewBox="0 0 32 32" enable-background="new 0 0 32 32" xml:space="preserve">
<g id="labels">
	<g>
	</g>
</g>
<g id="icons">
	<g>
		<path fill="#DADDDC" d="M19.243,8.311l-2.657-0.664c-0.287-0.803-0.712-1.539-1.254-2.176l0.753-2.63
			c0.126-0.441-0.064-0.912-0.461-1.141L14.377,0.98c-0.397-0.229-0.9-0.159-1.219,0.171l-1.903,1.968C10.848,3.045,10.429,3,10,3
			C9.571,3,9.152,3.045,8.744,3.119L6.842,1.151c-0.319-0.33-0.821-0.4-1.219-0.171L4.377,1.699C3.98,1.929,3.789,2.399,3.916,2.84
			l0.753,2.631C4.127,6.108,3.702,6.844,3.415,7.646L0.757,8.311C0.312,8.422,0,8.822,0,9.281v1.438c0,0.459,0.312,0.859,0.757,0.97
			l2.657,0.664c0.287,0.803,0.712,1.538,1.254,2.175l-0.753,2.63c-0.126,0.441,0.064,0.912,0.461,1.141l1.246,0.719
			c0.397,0.229,0.9,0.159,1.219-0.171l1.903-1.968C9.152,16.955,9.571,17,10,17c0.429,0,0.848-0.045,1.256-0.119l1.903,1.968
			c0.319,0.33,0.821,0.4,1.219,0.171l1.246-0.719c0.397-0.229,0.588-0.7,0.461-1.141l-0.752-2.63
			c0.542-0.637,0.967-1.373,1.254-2.176l2.657-0.664C19.688,11.578,20,11.178,20,10.719V9.281C20,8.822,19.688,8.422,19.243,8.311z"
			/>
		<path fill="#D1D4D4" d="M19.243,8.311l-2.657-0.664c-0.287-0.803-0.712-1.539-1.254-2.176l0.753-2.63
			c0.126-0.441-0.064-0.912-0.461-1.141L14.377,0.98c-0.397-0.229-0.9-0.159-1.219,0.171l-1.903,1.968C10.848,3.045,10.429,3,10,3
			c0,0,0,0,0,0v14c0,0,0,0,0,0c0.429,0,0.848-0.045,1.256-0.119l1.903,1.968c0.319,0.33,0.821,0.4,1.219,0.171l1.246-0.719
			c0.397-0.229,0.588-0.7,0.461-1.141l-0.752-2.63c0.542-0.637,0.967-1.373,1.254-2.176l2.657-0.664
			C19.688,11.578,20,11.178,20,10.719V9.281C20,8.822,19.688,8.422,19.243,8.311z"/>
		<circle fill="#807A7A" cx="10" cy="10" r="6"/>
		<path fill="#746E6E" d="M10,4C10,4,10,4,10,4l0,12c0,0,0,0,0,0c3.314,0,6-2.686,6-6S13.314,4,10,4z"/>
		<path fill="#D1D4D4" d="M31.243,20.311l-2.657-0.664c-0.287-0.803-0.712-1.539-1.254-2.176l0.752-2.63
			c0.126-0.441-0.064-0.912-0.461-1.141l-1.246-0.719c-0.397-0.229-0.9-0.159-1.219,0.171l-1.902,1.968
			C22.848,15.045,22.43,15,22,15c-0.429,0-0.848,0.045-1.256,0.119l-1.903-1.968c-0.319-0.33-0.821-0.4-1.219-0.171l-1.246,0.719
			c-0.397,0.229-0.588,0.7-0.461,1.141l0.753,2.631c-0.542,0.637-0.967,1.373-1.254,2.175l-2.657,0.664
			C12.312,20.422,12,20.822,12,21.281v1.438c0,0.459,0.312,0.859,0.757,0.97l2.657,0.664c0.287,0.803,0.712,1.538,1.254,2.175
			l-0.753,2.631c-0.126,0.441,0.064,0.912,0.461,1.141l1.246,0.719c0.397,0.229,0.9,0.159,1.219-0.171l1.903-1.968
			C21.152,28.955,21.571,29,22,29c0.429,0,0.848-0.045,1.255-0.119l1.903,1.968c0.319,0.33,0.821,0.4,1.219,0.171l1.246-0.719
			c0.397-0.229,0.588-0.7,0.461-1.141l-0.753-2.63c0.542-0.637,0.967-1.373,1.254-2.176l2.657-0.664
			C31.688,23.578,32,23.178,32,22.719v-1.438C32,20.822,31.688,20.422,31.243,20.311z"/>
		<path fill="#C8CCCB" d="M31.243,20.311l-2.657-0.664c-0.287-0.803-0.712-1.539-1.254-2.176l0.752-2.63
			c0.126-0.441-0.064-0.912-0.461-1.141l-1.246-0.719c-0.397-0.229-0.9-0.159-1.219,0.171l-1.902,1.968
			C22.848,15.045,22.43,15,22,15c0,0,0,0,0,0v14c0,0,0,0,0,0c0.429,0,0.848-0.045,1.255-0.119l1.903,1.968
			c0.319,0.33,0.821,0.4,1.219,0.171l1.246-0.719c0.397-0.229,0.588-0.7,0.461-1.141l-0.753-2.63
			c0.542-0.637,0.967-1.373,1.254-2.176l2.657-0.664C31.688,23.578,32,23.178,32,22.719v-1.438
			C32,20.822,31.688,20.422,31.243,20.311z"/>
		<circle fill="#746E6E" cx="22" cy="22" r="6"/>
		<path fill="#6D6666" d="M22,16C22,16,22,16,22,16l0,12c0,0,0,0,0,0c3.314,0,6-2.686,6-6S25.314,16,22,16z"/>
		<circle fill="#2B3332" cx="24" cy="25.464" r="1"/>
		<circle fill="#F7F7F7" cx="19.085" cy="21.951" r="1.5"/>
		<circle fill="#373F3F" cx="19.085" cy="21.951" r="0.5"/>
		<path fill="#EDEEEE" d="M25.535,18.769l-0.642-0.172l0.172-0.641c0.036-0.133-0.043-0.27-0.177-0.306l-0.482-0.13
			c-0.133-0.036-0.271,0.043-0.306,0.177l-0.172,0.642l-0.642-0.172c-0.133-0.036-0.27,0.043-0.306,0.177l-0.13,0.484
			c-0.036,0.133,0.043,0.271,0.177,0.306l0.642,0.172l-0.172,0.641c-0.036,0.133,0.043,0.27,0.177,0.306l0.482,0.13
			c0.133,0.036,0.271-0.043,0.306-0.177l0.172-0.642l0.642,0.172c0.133,0.036,0.27-0.043,0.306-0.177l0.13-0.484
			C25.748,18.941,25.669,18.804,25.535,18.769z"/>
		<circle fill="#434C4B" cx="8" cy="13.464" r="1"/>
		<circle fill="#FFFFFF" cx="8.585" cy="7.451" r="1.5"/>
		<circle fill="#434C4B" cx="8.585" cy="7.451" r="0.5"/>
		<path fill="#F7F7F7" d="M15.212,10.326l-0.129-0.483c-0.036-0.133-0.173-0.213-0.306-0.177l-0.642,0.172l-0.172-0.642
			c-0.036-0.133-0.173-0.213-0.306-0.177L13.174,9.15c-0.133,0.036-0.213,0.173-0.177,0.306l0.172,0.642l-0.642,0.172
			c-0.133,0.036-0.213,0.173-0.177,0.306l0.129,0.483c0.036,0.133,0.173,0.213,0.306,0.177l0.642-0.172l0.172,0.642
			c0.036,0.133,0.173,0.213,0.306,0.177l0.483-0.129c0.133-0.036,0.213-0.173,0.177-0.306l-0.172-0.642l0.642-0.172
			C15.168,10.597,15.248,10.46,15.212,10.326z"/>
		<circle fill="#58B7AE" cx="22" cy="22" r="2"/>
		<circle fill="#67BFB5" cx="10" cy="10" r="2"/>
		<path fill="#4EAFA3" d="M24,22c0-1.105-0.895-2-2-2v4C23.105,24,24,23.105,24,22z"/>
		<path fill="#58B7AE" d="M12,10c0-1.105-0.895-2-2-2v4C11.105,12,12,11.105,12,10z"/>
	</g>
</g>
</svg>
