<svg xmlns="http://www.w3.org/2000/svg" viewBox="0 0 32 32"><defs><style>.a{fill:#d2e6f3;}.b{fill:#c1ddee;}.c{fill:#9fc9e4;}.d{fill:#e2eff7;}.e{fill:#b0d3ea;}.f{fill:#ffad68;}.g{fill:#fca15e;}.h{fill:#cce3e3;}.i{fill:#c84054;}.j{fill:#211915;}.k{fill:#9b9f9f;}.l{fill:#787c7c;}.m{fill:#deabb6;}.n{fill:#db9eaa;}.o{fill:#e0b8c1;}.p{fill:#e9e7ea;}.q{fill:#d47688;}.r{fill:#db9aa7;}.s{fill:#e8e0e4;}.t{fill:#e6d9de;}.u{fill:#f9f9f9;}</style></defs><title>602-tynamo-shiny</title><path class="a" d="M13.95943,9.864a33.53724,33.53724,0,0,0-5.22834,1.36621,6.42779,6.42779,0,0,0,1.513.21008,20.71912,20.71912,0,0,1,3.4914.76758c.76922.22595,1.52032.49646,2.26452.78381V9.682C15.31856,9.728,14.639,9.79171,13.95943,9.864Z"/><path class="b" d="M20.47774,15.09908l-.0008-.00244a.15772.15772,0,0,1,.15485.07947l.07794.0686c.02588-.042.05011-.03674.07312.00257a7.74084,7.74084,0,0,1,.9859.5332l-.00055.07861.0799.06616c.027-.04528.05078-.03686.07239.00464a.59377.59377,0,0,0,.0675-.00012l.08228.07495q.03661.00239.07324.00147l.0791.07446c.02435.0011.04877.00159.07318.0011l.07874.07471c.02465.00085.04931.00122.074.001l.07745.07447c.025.00073.04993.00122.075.00134l.07659.07422c.05024.03357.14283.06775.14246.1007-.001.08667-.08862.04651-.13989.04944-.15839.00916-.31726.01136-.47589.01624a5.30369,5.30369,0,0,0,.92456.06445,6.06336,6.06336,0,0,0,3.66595-.04809,9.09962,9.09962,0,0,1,2.00537-.32178,4.52964,4.52964,0,0,1,3.19983,1.1272,2.09714,2.09714,0,0,0-1.79986-1.96A3.74618,3.74618,0,0,1,27.43361,13.591a2.29288,2.29288,0,0,0-2.45423-1.23829,3.52273,3.52273,0,0,1-1.79052-.36572A11.86548,11.86548,0,0,1,21.341,10.89474,7.29329,7.29329,0,0,0,17.1869,9.62716c-.398-.001-.79223.0282-1.18689.05481v3.30969c1.42707.551,2.81788,1.19067,4.18665,1.88257C20.29677,14.92989,20.42763,14.96358,20.47774,15.09908Z"/><path class="a" d="M13.62642,20.93917c-1.01325.20044-2.03876.25879-3.06.37109-.0871.00953-.17889-.0061-.24164.07618.27759.07641.55451.15539.83283.229a27.60135,27.60135,0,0,0,2.80188.53125c.68115.03833,1.36151.09717,2.04052.15515v-1.983A22.77409,22.77409,0,0,1,13.62642,20.93917Z"/><path class="b" d="M19.30348,22.278a1.99206,1.99206,0,0,0,1.166-.38721c.3327-.28809.66589-.57593,1.00811-.85254a3.67929,3.67929,0,0,1,2.81818-.83838,13.998,13.998,0,0,0,2.01355.14014,3.151,3.151,0,0,0,2.5116-1.398,3.30146,3.30146,0,0,1,2.88043-1.57581,3.81153,3.81153,0,0,0-2.2121-.7539,13.36919,13.36919,0,0,0-3.73175.4248,4.24683,4.24683,0,0,1-2.76453-.2716l-.24182.08789c.00012.01782.0008.03552.00214.05322a.43246.43246,0,0,1-.22833.2345q-.53037.303-1.06067.60632c-.13983.29663-.46125.34839-.7038.48877A23.4223,23.4223,0,0,1,16,20.31881v1.983c.08368.0072.16785.012.25141.01917A16.48115,16.48115,0,0,0,19.30348,22.278Z"/><path class="c" d="M26.79469,16.4902a6.06336,6.06336,0,0,1-3.66595.04809c.04492.12976-.09229.15064-.13581.2273a4.24683,4.24683,0,0,0,2.76453.2716,13.36919,13.36919,0,0,1,3.73175-.4248,3.81153,3.81153,0,0,1,2.2121.7539c.10327-.00769.21893.03675.29858-.07067a4.52964,4.52964,0,0,0-3.19983-1.1272A9.09962,9.09962,0,0,0,26.79469,16.4902Z"/><path class="d" d="M8.05083,21.23307a19.81109,19.81109,0,0,1-5.68723-1.226A3.57658,3.57658,0,0,1,.00349,16.62826,4.52807,4.52807,0,0,1,3.13,12.14777a12.141,12.141,0,0,1,3.74947-.77769c.38873-.026.77632-.06538,1.16661-.06491a.36125.36125,0,0,0,.11653.22945,7.39449,7.39449,0,0,1,1.35756,2.546,7.84931,7.84931,0,0,1,.20612,3.02352,5.59933,5.59933,0,0,1-1.72872,3.89748C7.80729,21.17225,7.9981,21.16577,8.05083,21.23307ZM2.965,18.50254l.03064.01841-.033-.01621-.06946-.15142-.07041-.0836c-.05865-.12384-.11366-.24956-.17655-.3712a2.82918,2.82918,0,0,1-.038-2.69824c.06665-.13382.12906-.26976.19343-.40473a.14509.14509,0,0,0,.08672-.1532l.01807-.02984-.01638.03159a.20889.20889,0,0,0-.1476.1526,1.65042,1.65042,0,0,1-2.119.13947c-.0256-.05228-.06523-.116-.12161-.08985-.05314.02463-.02222.07486.02822.09685a4.63372,4.63372,0,0,1,.29958,3.25492c-.07663.063-.06408.14975-.06207.23367l-.04852.08694c.09.03708.0957-.0424.1245-.08995l.06421-.16407A.90166.90166,0,0,1,1.942,17.94621a3.50067,3.50067,0,0,1,.87244.4191l.07727.0643Zm3.4185-3.71628c-.03014-.06764-.05927-.13615-.13908-.16083-.4452-.41266-.874-.38507-1.19115.12177A2.28183,2.28183,0,0,0,4.951,17.02043a.82527.82527,0,0,0,.73531.56945.84275.84275,0,0,0,.76452-.58438,2.43751,2.43751,0,0,0,.07953-1.9098A.40622.40622,0,0,0,6.38348,14.78626Z"/><path class="d" d="M14.401,19.12447a33.38169,33.38169,0,0,1-3.85138.04029c-.65064-.03418-1.04334.05481-1.29438.718A3.19218,3.19218,0,0,1,8.195,21.23385c.616-.0315,1.22345.1261,1.84088.083a.98963.98963,0,0,1,.28888.06958c.06275-.08228.15454-.06665.24164-.07618,1.02124-.1123,2.04675-.17065,3.06-.37109A22.77409,22.77409,0,0,0,16,20.31881V18.99923C15.46858,19.05135,14.93489,19.09066,14.401,19.12447Z"/><path class="a" d="M21.46425,17.74752a18.99628,18.99628,0,0,1-4.88782,1.1936c-.1911.02491-.38415.03931-.57642.05811v1.31958a23.4223,23.4223,0,0,0,4.76044-2.08252C21.003,18.09591,21.32442,18.04415,21.46425,17.74752Z"/><path class="d" d="M13.73549,12.20785a20.71912,20.71912,0,0,0-3.4914-.76758,6.42779,6.42779,0,0,1-1.513-.21008.68148.68148,0,0,1-.38354.07641,5.70053,5.70053,0,0,1,1.18994,1.69092.32724.32724,0,0,0,.32422.20654c1.00268.07007,2.0083.11927,3.006.23511,1.04981.12183,2.09357.28955,3.13226.48865v-.93616C15.25581,12.70431,14.50471,12.4338,13.73549,12.20785Z"/><path class="a" d="M20.2563,15.05807a1.44026,1.44026,0,0,0,.22144.04089c-.05011-.13538-.181-.16907-.29108-.22473-1.36877-.6919-2.75958-1.33154-4.18665-1.88257v.93616c.25641.04919.51435.089.7699.14355A28.90861,28.90861,0,0,1,20.2563,15.05807Z"/><path class="b" d="M15.97786,18.6661a45.8615,45.8615,0,0,1-4.70575.21887c-.428-.00207-.84863-.11206-1.27887-.07678-.11163.00915-.22131-.02869-.18085-.1676a11.281,11.281,0,0,0,.319-1.62281c.00763-.05542.06793-.10351.10376-.15515-.15491-.15368-.05835-.31433-.01318-.47351-.10993-.24829-.02167-.51147-.05737-.76526-.08191-.05725-.06977-.14367-.06971-.22619l.00067-.30213.0011-.15149-.0047-.15112c-.1054-.0813-.06585-.19763-.073-.30273l-.00422-.07911c-.085-.05712-.071-.14526-.07129-.22876q.00011-.037-.00335-.07373c-.08484-.05651-.07257-.14416-.07306-.22778q-.00056-.03735-.00348-.07446a.15969.15969,0,0,1-.07123-.15369l.0744-.071q.30278-.0002.60553-.00037l.45417-.00073c.15136.01929.31738-.05628.45227.06958q.18969.00422.37945.00854l.15448-.00195c.15064.01855.31549-.05566.44971.06934l.31085.00659.29974-.00049c.08191.00049.168-.01221.22486.06934l.23266.00659c.127.01367.26807-.04639.37519.07165l.23382.00391c.1258.01367.26569-.04553.37159.07165q.11453.0022.22906.00476c.10449.00672.21973-.03247.30157.07068l.22559.00513c.08429.00012.17291-.01392.23126.0708l.22577.00476c.0835.00037.17139-.0133.22888.07092L16,14.18587v-.258c-1.03869-.1991-2.08245-.36682-3.13226-.48865-.99774-.11584-2.00336-.165-3.006-.23511a.32724.32724,0,0,1-.32422-.20654A5.70053,5.70053,0,0,0,8.34755,11.3066l-.30145-.00146a.36145.36145,0,0,0,.11651.22949,7.39523,7.39523,0,0,1,1.35755,2.5459,7.84912,7.84912,0,0,1,.20611,3.02368,5.59959,5.59959,0,0,1-1.7287,3.89746c-.1903.17065.00055.16406.05323.23145l.14422.00073a3.19218,3.19218,0,0,0,1.06024-1.35108c.251-.6632.64374-.75219,1.29438-.718a33.38169,33.38169,0,0,0,3.85138-.04029c.53387-.03381,1.06756-.07312,1.599-.12524v-.33594Z"/><path class="e" d="M21.46425,17.74752q.53036-.30323,1.06067-.60632l-.07526-.07544A15.25082,15.25082,0,0,1,19.356,18.13839a28.30068,28.30068,0,0,1-3.356.5249v.33594c.19227-.0188.38532-.0332.57642-.05811A18.99628,18.99628,0,0,0,21.46425,17.74752Z"/><path class="f" d="M14.7668,16.20028a8.39155,8.39155,0,0,1-.49664.80212.77545.77545,0,0,1-1.369-.07568,2.52625,2.52625,0,0,1-.23358-.51343c-.11982-.34448-.21436-.69775-.33515-1.042-.17724-.50476-.42859-.70264-.83136-.67969a.8822.8822,0,0,0-.81134.76563,1.8538,1.8538,0,0,1-.46783.93188c-.04517.15918-.14173.31983.01318.47351a1.1149,1.1149,0,0,0,.61029-.89892,3.85083,3.85083,0,0,1,.12677-.58911.58314.58314,0,0,1,.5293-.42334c.24518-.01429.38568.15832.49512.35229a2.09562,2.09562,0,0,1,.2218.7179A2.48988,2.48988,0,0,0,12.679,17.206a1.0137,1.0137,0,0,0,1.76819-.07715c.17505-.27686.32159-.57276.509-.84058.32221-.4602.69849-.5354,1.04376-.26562v-.31494C15.57167,15.4819,15.10347,15.64181,14.7668,16.20028Z"/><path class="g" d="M18.40626,16.8088a1.61685,1.61685,0,0,1,.87226-.19373c1.15735.08289,2.31506.15955,3.47265.23841l.24176-.08789c.04352-.07666.18073-.09754.13581-.2273a5.29212,5.29212,0,0,1-.92456-.06457q-1.02018-.02875-2.04035-.05725a4.4908,4.4908,0,0,0-2.18341.24365c-.75549.35962-1.06647.44568-1.46637-.4563a.21548.21548,0,0,0-.02136-.03125A1.37077,1.37077,0,0,0,16,15.70773v.31494a1.23241,1.23241,0,0,1,.26368.26941C16.98311,17.31332,17.27724,17.38656,18.40626,16.8088Z"/><path class="e" d="M20.78285,15.24728c-.023-.03931-.04724-.04456-.07318-.00257l-.07788-.0686a.15772.15772,0,0,0-.15485-.07947l.0008.00232a1.44026,1.44026,0,0,1-.22144-.04089,28.90861,28.90861,0,0,0-3.48639-.9867c-.25555-.05456-.51349-.09436-.7699-.14355v.258l.074.00171c.08411-.00012.17248-.01464.23151.0691l.15338.006c.08258.00061.16949-.01282.22638.07055l.15289.00513c.0824.00049.16894-.01245.22565.07044l.14886.00634a.16194.16194,0,0,1,.15686.07007l.15308.00476c.08166.00049.16742-.012.22326.07031l.08246.00538c.08191.00061.16779-.011.223.072l.07965.00366c.0821.00073.16816-.01074.22358.07226l.079.00342c.08209.00073.168-.01074.22363.07215l.07776.00463a.15748.15748,0,0,1,.15136.07117l.14582.00476a.15891.15891,0,0,1,.154.069l.08008.00659a.15589.15589,0,0,1,.1499.071l.14313.005.08533.07.14611.00586.082.07031.14521.00537a.16219.16219,0,0,1,.15533.07056.7199.7199,0,0,0,.07422.00549l.08.07019.14447.00537.082.06983.08258.00439.14355.07093.07611.006a.16093.16093,0,0,1,.15247.07251c.02417.00244.0484.00366.07275.0039l.07917.06983.079.0039.14782.07227c.02442.003.049.00488.07361.00574l.07825.06958q.03735.00384.07489.00549.07735.00074.15466.00171A7.74084,7.74084,0,0,0,20.78285,15.24728Z"/><path class="d" d="M14.95625,16.28829c-.18744.26782-.334.56372-.509.84058A1.0137,1.0137,0,0,1,12.679,17.206a2.48988,2.48988,0,0,1-.46063-1.18457,2.09562,2.09562,0,0,0-.2218-.7179c-.10944-.194-.24994-.36658-.49512-.35229a.58314.58314,0,0,0-.5293.42334,3.85083,3.85083,0,0,0-.12677.58911,1.1149,1.1149,0,0,1-.61029.89892c-.03583.05164-.09613.09973-.10376.15515a11.281,11.281,0,0,1-.319,1.62281c-.04046.13891.06922.17675.18085.1676.43024-.03528.85089.07471,1.27887.07678a45.8615,45.8615,0,0,0,4.70575-.21887L16,18.66329V16.02267C15.65474,15.75289,15.27846,15.82809,14.95625,16.28829Z"/><path class="a" d="M22.44966,17.06576a.49533.49533,0,0,1,.30359-.15894c-.00134-.01782-.002-.03552-.00208-.05334-1.15759-.07886-2.3153-.15552-3.47265-.23841a1.61685,1.61685,0,0,0-.87226.19373c-1.129.57776-1.42315.50452-2.14257-.51672A1.23241,1.23241,0,0,0,16,16.02267v2.64062a28.30068,28.30068,0,0,0,3.356-.5249A15.25082,15.25082,0,0,0,22.44966,17.06576Z"/><path class="h" d="M22.52492,17.1412a.43263.43263,0,0,0,.22833-.23438.49533.49533,0,0,0-.30359.15894Z"/><path class="i" d="M.82966,18.19809a4.63374,4.63374,0,0,0-.29957-3.25491l.09338-.007a1.6504,1.6504,0,0,0,2.119-.13948l.0297.00479.0295-.00593c-.06437.135-.12678.27091-.19343.40473a2.82918,2.82918,0,0,0,.038,2.69824c.06289.12164.1179.24736.17651.37125l-.00825.09554a3.50067,3.50067,0,0,0-.87244-.4191.90164.90164,0,0,0-1.03423.31847Z"/><path class="j" d="M6.53038,15.0957a2.43751,2.43751,0,0,1-.07953,1.9098.84275.84275,0,0,1-.76452.58438.82527.82527,0,0,1-.73531-.56945,2.28183,2.28183,0,0,1,.10223-2.27323c.31718-.50684.74595-.53443,1.19115-.12177l-.09932.09716c-.37823.00859-.46167.26-.43666.56589.01737.21249.12383.41766.36926.39981.32595-.0237.37334-.28547.37352-.55541,0-.01259-.00072-.02518-.0011-.03777Z"/><path class="k" d="M6.53038,15.0957l-.08028-.00059-.1318-.23249.06518-.07636A.40622.40622,0,0,1,6.53038,15.0957Z"/><path class="l" d="M6.38348,14.78626l-.06519.07636-.17321-.14.09932-.09716C6.32421,14.65011,6.35334,14.71862,6.38348,14.78626Z"/><path class="m" d="M.82966,18.19809l.07813.06659-.06421.16409-.076.003C.76558,18.34784.753,18.26112.82966,18.19809Z"/><path class="n" d="M.62347,14.93617l-.09338.007c-.05045-.022-.08137-.07223-.02823-.09686C.55824,14.82019.59787,14.88389.62347,14.93617Z"/><path class="o" d="M2.80164,14.79555l-.0295.00593-.0297-.00479a.20893.20893,0,0,1,.14761-.15259l-.00174-.00172A.145.145,0,0,1,2.80164,14.79555Z"/><path class="p" d="M.76759,18.43176l.076-.003c-.02881.04753-.03455.127-.12451.08993Z"/><path class="q" d="M2.81446,18.36531l.00825-.09554.07044.08356-.00142.07628Z"/><path class="r" d="M2.89173,18.42961l.00142-.07628.06947.15141.00232-.00225Z"/><path class="s" d="M2.89005,14.6441l.01638-.03159-.0181.02986Z"/><path class="t" d="M2.96262,18.50474l.033.01621L2.965,18.50251Z"/><path class="d" d="M15.85316,14.18233H15.853c-.05762-.084-.14526-.07055-.22858-.071h-.00012l-.22583-.00464c-.05835-.08472-.147-.07068-.2312-.0708a.155.155,0,0,0,.10547.06836.155.155,0,0,1-.10547-.06836l-.22565-.00513c-.05267-.00146-.10778.00733-.15979.00318.052.00415.10712-.00464.15979-.00318-.08184-.10315-.19708-.064-.30151-.07068q-.11463-.00237-.22912-.00476c-.06336-.00451-.13007.00794-.194.00635.0639.00159.13061-.011.194-.00635-.1059-.11718-.24579-.058-.37165-.07165l-.23376-.00391c-.10712-.118-.24817-.058-.37525-.07165l-.23266-.00659-.2226.00207.22266-.00207c-.05689-.08155-.143-.06885-.22486-.06934l-.29968.00049h-.00012l-.31079-.00659-.22345.00012.22345-.00012c-.13422-.125-.29907-.05079-.44971-.06934l-.15448.00195q-.18978-.00439-.37951-.00854l-.45148-.00037.45154.00037c-.13489-.12586-.30091-.05029-.45227-.06958l-.45417.00073q-.30276.00036-.60553.00049v-.00012l-.0744.071a.15962.15962,0,0,0,.07129.15369q.00283.03717.00342.07446a.15434.15434,0,0,1,.06915.10352.15434.15434,0,0,0-.06915-.10352c.00049.08362-.01178.17127.07312.22778q.00339.03681.00329.07373c.02124.01429.02344.03455.03431.052-.01087-.01746-.01307-.0376-.03431-.052.00031.0835-.01373.17164.07135.22876l.00416.07911a.19092.19092,0,0,1,.07421.14233.19092.19092,0,0,0-.07421-.14233c.00714.1051-.03241.22143.073.30273l.00464.15112-.00116.15149-.00061.30213c-.00006.08252-.0122.16894.06977.22631h0c.03564.25367-.05262.51685.05731.76514a1.8538,1.8538,0,0,0,.46783-.93188.8822.8822,0,0,1,.81134-.76563c.40277-.023.65412.17493.83136.67969.12079.34424.21533.69751.33515,1.042a2.52625,2.52625,0,0,0,.23358.51343.77545.77545,0,0,0,1.369.07568,8.39155,8.39155,0,0,0,.49664-.80212c.33667-.55847.80487-.71838,1.23321-.49255v-1.522Zm-5.68829.91626a.20267.20267,0,0,0-.01117-.0874.20243.20243,0,0,1,.01117.0874Z"/><path class="a" d="M22.6775,16.30746l-.07659-.07422c-.025-.00012-.05-.00061-.075-.00134l-.07745-.07447c-.02466.00025-.04932-.00012-.074-.001l-.07868-.07471c-.02447.00049-.04889,0-.07324-.0011l-.079-.07446q-.03672.00091-.0733-.00147l-.08222-.07495a.59485.59485,0,0,1-.06756.00012c-.02161-.0415-.04535-.04992-.07245-.00451l-.07984-.06629.00055-.07861q-.07727-.0011-.15466-.00171-.03755-.00165-.07489-.00549L21.461,15.7037c-.02472-.00086-.04925-.00269-.07367-.00574l-.14782-.07227-.079-.0039-.07917-.06983c-.02435-.00024-.04858-.00146-.07275-.0039a.16093.16093,0,0,0-.15247-.07251l-.07611-.006-.14361-.07093-.08252-.00439-.08191-.06983-.14453-.00537-.08-.07031a.6877.6877,0,0,1-.07428-.00537.16215.16215,0,0,0-.15527-.07056l-.14527-.00537-.082-.07031-.14617-.00586-.08521-.07-.14325-.005a.15589.15589,0,0,0-.1499-.071l-.08008-.00659a.15886.15886,0,0,0-.154-.069l-.14588-.00476a.15748.15748,0,0,0-.15136-.07117l-.07776-.00463c-.0556-.08289-.14154-.07142-.2237-.07215l-.07891-.00342c-.05542-.083-.14148-.07153-.22358-.07226l-.07965-.00366c-.05517-.083-.141-.07141-.223-.072l-.0824-.00538c-.05584-.08227-.1416-.06982-.22326-.07043l-.15308-.00464a.1619.1619,0,0,0-.1568-.07007l-.14892-.00634c-.05671-.08289-.14325-.07-.22565-.07044l-.15289-.00513c-.05689-.08337-.1438-.06994-.22638-.07055l-.15338-.006c-.059-.08374-.1474-.06922-.23139-.0691L16,14.18575v1.522a1.37077,1.37077,0,0,1,.49268.46484.21548.21548,0,0,1,.02136.03125c.3999.902.71088.81592,1.46637.4563a4.4908,4.4908,0,0,1,2.18341-.24365q1.02018.02818,2.04035.05725c.15863-.00476.3175-.007.47589-.01612.05127-.00293.13885.03723.13989-.04944C22.82033,16.37521,22.72774,16.341,22.6775,16.30746Z"/><path class="u" d="M6.14508,14.72259l.17321.14.13181.23249c.00038.01259.00111.02518.0011.03777-.00018.26994-.04757.53171-.37352.55541-.24543.01785-.35189-.18732-.36926-.39981C5.68341,14.98261,5.76685,14.73118,6.14508,14.72259Z"/></svg>