<svg xmlns="http://www.w3.org/2000/svg" viewBox="0 0 32 32"><title>603-eelektrik-shiny</title><rect x="5.94801" y="10.99425" width="11.19281" height="2.47991" style="fill:#fff"/><path d="M11.95631.07227,11.95552,0H11.641V.07227Z" style="fill:#fdfbf7"/><path d="M11.15272.07227H11.641V0h-.48748Z" style="fill:#fdfbf7"/><path d="M21.74,32q-.00037-.03375-.00218-.06745l.64608.001L22.38159,32Z" style="fill:#f9eae5"/><polygon points="16.367 29.431 16.37 29.434 16.372 29.434 16.367 29.431" style="fill:#eddda3"/><path d="M20.85651,29.5896l-.16.0813a2.94633,2.94633,0,0,1-1.91235.5581c-.12287.12464-.26441.062-.40717.05066a4.18418,4.18418,0,0,1-1.91858-.76758l-.08795-.07775c-.07336-.03006-.16516-.06519-.16516-.06519l-.07739-.03125a4.84688,4.84688,0,0,1-2.64508-2.90271,12.366,12.366,0,0,1-.49677-1.894c-.25268-.14978-.48651.01733-.726.04968a4.227,4.227,0,0,1-.619.035v4.23768a10.20148,10.20148,0,0,0,4.4223,1.88867A6.25349,6.25349,0,0,0,21.03,29.66138Q20.94336,29.6253,20.85651,29.5896Z" style="fill:#84ed82"/><path d="M10.16566,24.27734a1.62427,1.62427,0,0,1-.833-1.8573q.43267-2.1795.85345-4.3612a.92448.92448,0,0,0,.00372-.15955,5.75915,5.75915,0,0,1-2.16455-1.06152,2.86964,2.86964,0,0,0-.27417,1.22546,16.19946,16.19946,0,0,0,.0473,5.45337A7.75478,7.75478,0,0,0,10.158,27.60889a13.42272,13.42272,0,0,0,1.483,1.25464V24.62585A3.27177,3.27177,0,0,1,10.16566,24.27734Z" style="fill:#8ff888"/><path d="M16.47212,9.01831A5.93135,5.93135,0,0,0,12.596,6.41064a7.262,7.262,0,0,0-.955-.06811V8.41492a3.62427,3.62427,0,0,1,1.08472.19653,3.80337,3.80337,0,0,1,2.68494,3.49084c.22308-.14672.18133-.42016.29608-.62255a.993.993,0,0,1,1.579-.39478A5.091,5.091,0,0,0,16.47212,9.01831Z" style="fill:#4390bf"/><path d="M10.50984,6.41016c-.12854.03393-.25775.06543-.38538.10217A5.71871,5.71871,0,0,0,5.948,10.575a1.06383,1.06383,0,0,1,1.54114.69617c.06128.14978.01508.36084.22089.43933a4.65933,4.65933,0,0,1,.88787-1.90393A3.88624,3.88624,0,0,1,11.641,8.41492V6.34253A7.48363,7.48363,0,0,0,10.50984,6.41016Z" style="fill:#529ccf"/><path d="M15.67567,13.31189c-.067-.13416-.0708-.32654-.287-.33386-.0503.13611-.10657.27038-.14991.40869a3.84536,3.84536,0,0,1-3.59778,2.719v1.93408a6.58087,6.58087,0,0,0,1.598-.22558q.52129-.20727,1.04248-.41492l.08142-.08117A5.65985,5.65985,0,0,0,16.63435,15.105a1.73466,1.73466,0,0,1,.14252-.18518q.182-.51.364-1.02014A1.03424,1.03424,0,0,1,15.67567,13.31189Z" style="fill:#4390bf"/><path d="M11.26613,16.11365A3.8581,3.8581,0,0,1,7.77,12.94189c-.02209-.11792-.04559-.23559-.06842-.35327-.2431.0105-.21814.23975-.29284.37671a1.0028,1.0028,0,0,1-1.55317.446,6.04714,6.04714,0,0,0,.328,1.18518c.30121.44848.53875.93347.88635,1.35876a5.479,5.479,0,0,0,.95532.88245,5.75915,5.75915,0,0,0,2.16455,1.06152,6.2543,6.2543,0,0,0,1.45117.1405V16.10571C11.51625,16.10962,11.39332,16.12134,11.26613,16.11365Z" style="fill:#529ccf"/><path d="M11.641,19.22693v.71631C11.64058,19.70459,11.64345,19.46606,11.641,19.22693Z" style="fill:#e3c791"/><path d="M14.10213,22.44482c-.0553-.32409-.10431-.64941-.15619-.97412-.17078-.8247-.34345-1.64917-.50891-2.47485a.74344.74344,0,0,1,.02929-.2312,1.4165,1.4165,0,0,1-.22735-.95044,6.58087,6.58087,0,0,1-1.598.22558v.59961a.11037.11037,0,0,1,.12549-.0791c.16413.00293.1045.18775.106.29578.00659.46692.00281.93408.00281,1.56628.073.84839-.12555,1.85474-.08374,2.8678.00366.0885.05847.24732-.1134.23914-.01929-.00086-.02326-.02039-.03718-.02832v1.12487a4.227,4.227,0,0,0,.619-.035c.23951-.03235.47333-.19946.726-.04968.17346-.32385.56537-.371.79309-.62622A1.9404,1.9404,0,0,0,14.10213,22.44482Zm-1.18457.984c-.13178.05725-.147-.07434-.18488-.14917a2.19111,2.19111,0,0,1-.0965-.78528c-.14038-1.21093-.23547-2.42712-.35089-3.68579.015-.06128-.06787-.23962.101-.25171.18316-.01306.11883.16846.13006.27442q.23127,2.19324.4596,4.38635C12.98482,23.30139,13.00081,23.3927,12.91756,23.42883Z" style="fill:#8ff888"/><path d="M11.55665,23.30566c.03437-.8507-.04223-1.701.05341-2.55444a7.13491,7.13491,0,0,0,.03094-.808v-.71631c-.00115-.11853-.00506-.23718-.003-.35523a.87026.87026,0,0,1,.003-.2323v-.59961a6.2543,6.2543,0,0,1-1.45117-.1405.92448.92448,0,0,1-.00372.15955Q9.76149,20.24,9.33266,22.42a1.62427,1.62427,0,0,0,.833,1.8573,3.27177,3.27177,0,0,0,1.47534.34851V23.501A.20882.20882,0,0,1,11.55665,23.30566Zm-.45288-4.42651c-.14581,1.103-.287,2.20679-.43249,3.31006-.04328.32788-.09149.65515-.14691.9812-.01764.10376.014.28882-.1568.257-.14472-.027-.07581-.20288-.09381-.27637.12017-.8905.23516-1.74377.35064-2.59692q.10383-.76776.20862-1.53528a.67.67,0,0,1,.02545-.19617c.04828-.099.02417-.297.178-.26916C11.2372,18.58984,11.12,18.75671,11.10377,18.87915Z" style="fill:#a9faa2"/><path d="M11.95631.07227H11.641v.949c.10523.02515.07483.15686.07142.24-.04157,1.02673.14532,2.04736.08227,2.90259,0,.65222.0011,1.13257-.00091,1.613-.00037.09021.01373.21142-.116.21484-.0224.00049-.0221-.01758-.03681-.02344v.37427a7.262,7.262,0,0,1,.955.06811c.0694-.43212.15-.86279.20606-1.29663a25.48308,25.48308,0,0,0,.43713-3.51379A1.45253,1.45253,0,0,0,11.95631.07227Zm.92139,1.306c-.09857,1.00293-.18543,2.00695-.28339,3.00988-.04248.43518-.101.86878-.15655,1.30249-.01386.10816.05438.293-.11164.29444-.20782.00171-.09521-.20191-.12475-.28907.09588-.93408.19153-1.8435.28174-2.75366.04315-.43554.07592-.87231.11358-1.30847a1.34665,1.34665,0,0,1,.03412-.31518c.03028-.08863.04492-.24915.18482-.212C12.94984,1.14233,12.8882,1.27173,12.8777,1.3783Z" style="fill:#a9faa2"/><path d="M11.5547,5.78345c-.002-.02661-.00037-.05347-.00085-.08008q-.03956-2.1178-.0791-4.23535c-.00123-.06665-.00007-.13355.00012-.2002.0003-.11.00824-.25366.1311-.25671.01648-.00037.02277.0072.035.01013v-.949h-.48828a1.458,1.458,0,0,0-1.2846,1.52856,7.07623,7.07623,0,0,0,.07953,1.31311c.196,1.16394.37585,2.33069.56219,3.49622A7.48363,7.48363,0,0,1,11.641,6.34253V5.96826C11.569,5.93958,11.5605,5.8584,11.5547,5.78345Zm-.58465.21045c-.11017.01721-.12775-.06836-.14039-.15-.10534-.68054-.21447-1.36047-.31445-2.04162-.1076-.73365-.20733-1.46851-.3081-2.20313a2.08034,2.08034,0,0,1-.01392-.27893c-.00018-.09387.003-.21814.11749-.21838.1131-.00037.11133.12426.1239.21789q.23814,1.77192.4798,3.54346c.04291.31482.09021.629.14777,1.02905C11.06233,5.88293,11.081,5.97644,10.97005,5.9939Z" style="fill:#c1fdbd"/><path d="M24.87223,26.05985a6.80707,6.80707,0,0,1,1.32513,1.93244,2.58907,2.58907,0,0,1-.041,2.41085c-.01352-.18467-.17719-.18887-.29405-.22089a8.76462,8.76462,0,0,0-4.34238-.02945.89093.89093,0,0,0-.18023-.39983c.11892-.23827.236-.47748.35709-.71463a6.47216,6.47216,0,0,1,1.85345-2.25878C23.9567,26.47075,24.44982,26.3327,24.87223,26.05985Z" style="fill:#f57552"/><path d="M21.03008,29.66126l-.17356-.07172c-.07233-.22671-.14618-.45295-.21674-.68023a8.58783,8.58783,0,0,1-.4083-4.47749,5.10526,5.10526,0,0,1,4.56409,1.54785,3.66,3.66,0,0,0-2.31786,1.34717,7.88159,7.88159,0,0,0-1.37483,2.32038A.11853.11853,0,0,1,21.03008,29.66126Z" style="fill:#f57552"/><path d="M20.69646,29.671a2.9466,2.9466,0,0,1-1.91232.558,14.02414,14.02414,0,0,1-.328-3.21813,7.13246,7.13246,0,0,1,.10216-.95383,1.86045,1.86045,0,0,1,1.41444-1.52223,6.167,6.167,0,0,0-.17643,1.84377A10.26867,10.26867,0,0,0,20.69646,29.671Z" style="fill:#f57552"/><path d="M22.38388,31.93357l-.64608-.001a3.87636,3.87636,0,0,1-2.02354-.65289,13.153,13.153,0,0,0,1.78658-.96506c.54078-.05279,1.08057-.122,1.62256-.15483a8.81484,8.81484,0,0,1,2.947.39808A5.88191,5.88191,0,0,1,22.38388,31.93357Z" style="fill:#f57552"/><path d="M13.94593,21.47068c-.17075-.82474-.34343-1.64909-.5089-2.4749a.74181.74181,0,0,1,.02929-.231l.81175-1.28434a.16844.16844,0,0,0,.08483-.1622,5.66056,5.66056,0,0,0,2.27147-2.21326,1.75183,1.75183,0,0,1,.1425-.18509,11.584,11.584,0,0,1-.86155,2.27275c-.39612.85871-.81639,1.70661-1.24116,2.55166A9.96071,9.96071,0,0,0,13.94593,21.47068Z" style="fill:#3980a8"/><path d="M17.14081,13.89972a1.03428,1.03428,0,0,1-1.46515-.58781c-.067-.13412-.07079-.32652-.28679-.33388q.0111-.43781.02182-.87569c.223-.14679.18132-.4201.29607-.62261a.993.993,0,0,1,1.57905-.39483A5.21515,5.21515,0,0,1,17.14081,13.89972Zm-.13416-1.54061c.00314-.53649-.31137-.97614-.69186-.96714-.36625.00866-.66551.43421-.66854.95067-.00314.53641.31144.97617.69188.96719C16.7043,13.30119,17.00363,12.87551,17.00665,12.35911Z" style="fill:#84ed82"/><path d="M21.103,29.64718a7.88,7.88,0,0,1,1.37475-2.32034,3.66,3.66,0,0,1,2.31787-1.34717l.07664.08017c-.4224.27286-.91552.41091-1.322.71972a6.47216,6.47216,0,0,0-1.85345,2.25878c-.12108.23715-.23817.47636-.35709.71463Z" style="fill:#e56142"/><path d="M20.69646,29.671a10.26867,10.26867,0,0,1-.90014-3.29241,6.167,6.167,0,0,1,.17643-1.84377c.07585-.06039.142-.14507.25871-.10295a8.58793,8.58793,0,0,0,.40832,4.47745c.07056.22728.14441.45352.21675.68023Z" style="fill:#e56142"/><path d="M26.0704,30.55785a8.81484,8.81484,0,0,0-2.947-.39808c-.542.03287-1.08178.102-1.62257.15484l.01906-.16181a8.76462,8.76462,0,0,1,4.34238.02945c.11686.032.28053.03622.29405.22089C26.146,30.46486,26.14153,30.52987,26.0704,30.55785Z" style="fill:#e56142"/><path d="M16.45837,29.51212l-.09169-.08119Z" style="fill:#a7b8a0"/><path d="M21.33966,29.75293q-.11838-.05274-.23682-.10571a.12016.12016,0,0,1-.07287.01416,6.25349,6.25349,0,0,1-4.96668,1.09082,10.20148,10.20148,0,0,1-4.4223-1.88867v1.76611a11.98159,11.98159,0,0,0,4.78491,1.21924,9.33143,9.33143,0,0,0,3.28833-.56922,13.16145,13.16145,0,0,0,1.78656-.96508l.01911-.16175A.89115.89115,0,0,0,21.33966,29.75293Z" style="fill:#3980a8"/><path d="M10.158,27.60889A7.75478,7.75478,0,0,1,7.79841,23.5166a16.19946,16.19946,0,0,1-.0473-5.45337,2.86964,2.86964,0,0,1,.27417-1.22546A5.479,5.479,0,0,1,7.07,15.95532c-.3476-.42529-.58514-.91028-.88635-1.35876-.04358.43591-.08972.87146-.13025,1.30774-.10938,1.17749-.46112,2.3186-.52667,3.5028l-.00129.24061-.00012.48376.00171.32129a14.42161,14.42161,0,0,0,.577,3.33972,10.88347,10.88347,0,0,0,5.537,6.83716V28.86353A13.42272,13.42272,0,0,1,10.158,27.60889Z" style="fill:#4390bf"/><path d="M7.48915,11.27112A1.06383,1.06383,0,0,0,5.948,10.575a4.97545,4.97545,0,0,0-.09241,2.83643,1.0028,1.0028,0,0,0,1.55317-.446c.0747-.137.04974-.36621.29284-.37671q.00413-.43908.00836-.87817C7.50423,11.632,7.55043,11.4209,7.48915,11.27112Zm-.72168,1.71765c-.36572-.01123-.66333-.438-.6651-.95386-.00183-.53735.31421-.97522.69531-.96362.36579.01123.66333.438.6651.954C7.46467,12.5625,7.14857,13.00049,6.76747,12.98877Z" style="fill:#8ff888"/><path d="M16.2038,29.27368h-.00006a8.23929,8.23929,0,0,1-2.42463-5.35876c-.22766.25525-.61963.30237-.79309.62622a12.366,12.366,0,0,0,.49677,1.894,4.84706,4.84706,0,0,0,2.64508,2.90271.114.114,0,0,1,.03375-.05249c.0058-.00659.0141-.00391.02112-.00586-.007.002-.01532-.00073-.02112.00586a.114.114,0,0,0-.03375.05249l.07739.03125.16144.06177Z" style="fill:#3980a8"/><path d="M12.72572,8.61145A3.62427,3.62427,0,0,0,11.641,8.41492v1.94543a1.03494,1.03494,0,0,1,.65784.14527,1.58152,1.58152,0,0,1,1.189,1.32495,1.22946,1.22946,0,0,1-.05634,1.31762,1.61958,1.61958,0,0,1-1.156,1.05909,1.0139,1.0139,0,0,1-.63453.13464v1.76379a3.84536,3.84536,0,0,0,3.59778-2.719c.04334-.13831.09961-.27258.15009-.40869q.01107-.43781.02179-.87574A3.80337,3.80337,0,0,0,12.72572,8.61145Z" style="fill:#f57552"/><path d="M11.55238,14.343a.99063.99063,0,0,1-.6571-.14441A1.53407,1.53407,0,0,1,9.7801,13.17529a1.36726,1.36726,0,0,1-.09344-1.3977A1.64949,1.64949,0,0,1,10.851,10.50684a1.21472,1.21472,0,0,1,.70141-.14808c.03015-.00256.05872.00306.08862.00159V8.41492a3.88624,3.88624,0,0,0-3.04309,1.3916A4.66036,4.66036,0,0,0,7.71,11.71045q-.0042.43908-.00836.87817c.02283.11768.04633.23535.06842.35327a3.8581,3.8581,0,0,0,3.4961,3.17176c.12719.00769.25012-.004.37487-.00794V14.34192C11.6111,14.34033,11.58247,14.3457,11.55238,14.343Z" style="fill:#ff805d"/><path d="M14.27807,17.48039l-.81175,1.28434a1.4165,1.4165,0,0,1-.22733-.95046l1.04249-.41492Z" style="fill:#84ed82"/><path d="M14.27807,17.48039l.00341-.081.08141-.08114A.1684.1684,0,0,1,14.27807,17.48039Z" style="fill:#92a387"/><path d="M11.87532,20.42236c0-.6322.00378-1.09936-.00281-1.56628-.00152-.108.05811-.29285-.106-.29578a.11037.11037,0,0,0-.12549.0791v.58753c.00245.23913-.00042.47766,0,.71631V23.501c.01392.00793.01789.02746.03718.02832.17187.00818.11706-.15064.1134-.23914C11.74977,22.2771,11.94832,21.27075,11.87532,20.42236Z" style="fill:#60c46f"/><path d="M11.638,18.8717c-.00207.11805.00184.2367.003.35523V18.6394A.87026.87026,0,0,0,11.638,18.8717Z" style="fill:#d6af7b"/><path d="M11.61006,20.75122c-.09564.85339-.019,1.70374-.05341,2.55444a.20882.20882,0,0,0,.08435.19532V19.94324A7.13491,7.13491,0,0,1,11.61006,20.75122Z" style="fill:#6cd275"/><path d="M11.03645,18.55347c-.15381-.02784-.1297.17016-.178.26916a.67.67,0,0,0-.02545.19617q-.10381.76776-.20862,1.53528c-.11548.85315-.23047,1.70642-.35064,2.59692.018.07349-.05091.24939.09381.27637.17077.03186.13916-.1532.1568-.257.05542-.326.10363-.65332.14691-.9812.14551-1.10327.28668-2.207.43249-3.31006C11.12,18.75671,11.2372,18.58984,11.03645,18.55347Z" style="fill:#6cd275"/><path d="M12.2853,18.80865c.015-.06123-.06788-.23964.101-.25173.18317-.0131.11884.1685.13.27447q.23135,2.193.45964,4.3863c.00886.08369.02486.175-.05843.21119-.13174.05723-.14705-.07444-.18487-.14921a2.191,2.191,0,0,1-.09649-.78532C12.49583,21.28345,12.40069,20.0673,12.2853,18.80865Z" style="fill:#60c46f"/><path d="M11.71242,1.26123c.00341-.08313.03381-.21484-.07142-.24v4.947c.01471.00586.01441.02393.03681.02344.1297-.00342.1156-.12463.116-.21484.002-.48047.00091-.96082.00091-1.613C11.85774,3.30859,11.67085,2.288,11.71242,1.26123Z" style="fill:#6cd275"/><path d="M11.606,1.01111c-.12286.003-.1308.14673-.1311.25671-.00019.06665-.00135.13355-.00012.2002q.03936,2.11761.0791,4.23535c.00048.02661-.00116.05347.00085.08008.0058.07495.01434.15613.0863.18481v-4.947C11.62874,1.01831,11.62245,1.01074,11.606,1.01111Z" style="fill:#78df7c"/><path d="M10.43458,1.3197c-.01257-.09363-.0108-.21826-.1239-.21789-.1145.00024-.11767.12451-.11749.21838a2.08034,2.08034,0,0,0,.01392.27893c.10077.73462.2005,1.46948.3081,2.20313.1.68115.20911,1.36108.31445,2.04162.01264.08167.03022.16724.14039.15.1109-.01746.09228-.111.0921-.10169-.05756-.4-.10486-.71423-.14777-1.02905Q10.67287,3.09162,10.43458,1.3197Z" style="fill:#78df7c"/><path d="M12.20137,5.696c.09588-.934.19152-1.8435.28171-2.75359.04318-.43563.07594-.87229.11363-1.30847a1.34668,1.34668,0,0,1,.03409-.31517c.0303-.08864.04491-.24923.18485-.21205.13421.03565.07253.165.062.27163-.09855,1.00291-.18542,2.007-.28336,3.00994-.04249.4351-.101.8687-.15655,1.30242-.01386.10822.05433.293-.11165.29438C12.11832,5.98677,12.2309,5.78316,12.20137,5.696Z" style="fill:#6cd275"/><path d="M12.62715,12.25342c.29053-.13294.574-.281.86066-.42285A1.58168,1.58168,0,0,0,12.299,10.50549q-.2935.55774-.58709,1.1156a.17681.17681,0,0,1-.07087.00953v1.5205a.17709.17709,0,0,1,.07087.00965q.28179.52313.5636,1.04651a1.61956,1.61956,0,0,0,1.15606-1.05909c-.27673-.20813-.55121-.41943-.83111-.623C12.445,12.41187,12.44368,12.33728,12.62715,12.25342Z" style="fill:#3a3333"/><path d="M11.487,11.4646q-.318-.479-.63611-.95776a1.64968,1.64968,0,0,0-1.1643,1.27075c.31811.1593.6333.32495.95538.47558.17432.08167.19171.15308.03131.26783-.3.21484-.59558.43579-.89306.654a1.53373,1.53373,0,0,0,1.11493,1.02368q.296-.44091.592-.88208c.03216-.08252.06555-.16357.1538-.16553v-1.5205C11.55244,11.62866,11.51918,11.54736,11.487,11.4646Z" style="fill:#413b3b"/><path d="M10.642,12.25317c-.32214-.15063-.63733-.31628-.95538-.47558a1.36651,1.36651,0,0,0,.09357,1.39746c.29754-.21826.59314-.43921.89306-.654C10.83369,12.40625,10.8163,12.33484,10.642,12.25317Z" style="fill:#fff"/><path d="M13.43154,13.14819c-.27673-.20811-.55119-.41933-.83108-.62309-.15547-.11319-.15674-.18782.02669-.27172.29054-.13289.57408-.281.86065-.42277A1.22924,1.22924,0,0,1,13.43154,13.14819Z" style="fill:#f7f7f7"/><path d="M12.2989,10.50562a1.03444,1.03444,0,0,0-.6579-.14527v1.27027a.17681.17681,0,0,0,.07087-.00953Q12.00539,11.06318,12.2989,10.50562Z" style="fill:#f7f7f7"/><path d="M11.55238,10.35876a1.215,1.215,0,0,0-.70148.14808q.31806.47882.63611.95776c.03217.08276.06543.16406.154.166V10.36035C11.6111,10.36182,11.58253,10.3562,11.55238,10.35876Z" style="fill:#fff"/><path d="M12.27547,14.20728q-.28181-.52332-.5636-1.04651a.17709.17709,0,0,0-.07087-.00965V14.342A1.0139,1.0139,0,0,0,12.27547,14.20728Z" style="fill:#f7f7f7"/><path d="M11.4872,13.31665q-.29608.44111-.592.88208a.99244.99244,0,0,0,.65722.14441c.03009.00256.05872-.00269.08862-.0011V13.15112C11.55275,13.15308,11.51936,13.23413,11.4872,13.31665Z" style="fill:#fff"/><path d="M16.46012,12.32778c.00007.13468-.02663.252-.18316.26151a.19888.19888,0,0,1-.227-.21731c-.00292-.1296.04674-.24133.19187-.25909C16.398,12.09378,16.44719,12.1996,16.46012,12.32778Z" style="fill:#211915"/><path d="M6.718,11.79c-.14587.00256-.20508.10913-.21173.2406a.20226.20226,0,0,0,.20642.23889c.15338.00513.20081-.10144.20374-.23694C6.9117,11.901,6.873,11.78735,6.718,11.79Z" style="fill:#211915"/></svg>