<svg xmlns="http://www.w3.org/2000/svg" viewBox="0 0 32 32"><defs><style>.a{fill:#b370b9;}.b{fill:#a366ad;}.c{fill:#f4d9cb;}.d{fill:#e9cec1;}.e{fill:#f1e0d8;}.f{fill:#f8e4db;}.g{fill:#f1e1d9;}.h{fill:#e5c79a;}.i{fill:#dd9b7b;}.j{fill:#cda073;}.k{fill:#dbba8c;}.l{fill:#f5deb9;}.m{fill:#e0c193;}.n{fill:#c09265;}.o{fill:#efd4a7;}.p{fill:#d5b387;}.q{fill:#b38658;}.r{fill:#cfab81;}.s{fill:#8ff888;}.t{fill:#a9faa2;}.u{fill:#413b3b;}.v{fill:#3a3333;}.w{fill:#71b1e1;}.x{fill:#65a9dc;}.y{fill:#c88e71;}.z{fill:#a7794c;}.aa{fill:#211915;}</style></defs><title>606-beheeyem-shiny</title><path class="a" d="M4.91733,23.62289a1.059,1.059,0,0,1-.78825-.60957v-.425a1.05343,1.05343,0,0,1,1.15261-.605c.04349.02324.08588.04886.13062.06934a.82165.82165,0,0,1,.53576.80313.8439.8439,0,0,1-.67043.73228A2.49075,2.49075,0,0,1,4.91733,23.62289Z"/><path class="b" d="M27.87092,23.01332a1.0566,1.0566,0,0,1-.78858.60922c-.03027-.00118-.06054-.00261-.09083-.00348a.90921.90921,0,0,1-.93048-.67323c-.07967-.37434.14791-.71679.6127-.924a.20186.20186,0,0,0,.04468-.03922,1.05486,1.05486,0,0,1,1.15251.60562Z"/><path class="c" d="M13.12105,31.94814A.23908.23908,0,0,0,13.11576,32h-.42505q.00047-.02732-.00152-.05459Z"/><path class="d" d="M19.24856,32H18.945a.41355.41355,0,0,0-.00212-.05462l.30853.003A.226.226,0,0,0,19.24856,32Z"/><path class="e" d="M19.24856,32a.22723.22723,0,0,1,.0028-.05168l.18264-.00047A.19413.19413,0,0,0,19.43073,32Z"/><path class="f" d="M12.68919,31.94545q.002.02724.00152.05455h-.12144a.275.275,0,0,0-.00309-.05261Z"/><path class="g" d="M18.94283,31.94541A.41121.41121,0,0,1,18.945,32h-.12144a.2741.2741,0,0,0-.00275-.05362Z"/><path class="h" d="M16.037.07858V0H14.57308a.4975.4975,0,0,1-.00163.05249,3.57264,3.57264,0,0,0-1.86.73879,4.36,4.36,0,0,0-1.4125,2.51424c-.273,1.15778-.37155,2.35011-.67193,3.50389C10.069,8.95329,9.26268,10.94016,7.2764,12.194a16.27924,16.27924,0,0,0,3.774,1.13258c.62152.114,1.24474.22106,1.87508.27666.07.00607.14277-.00193.195.05974q.11687.00312.23366.00564c.70121.05189,1.40227.10616,2.10378.154.19044.0129.38222.00682.57341.00934q-.00113-.56577-.0023-1.13124c-.60588-.019-.60588-.019-.60588-.62893,0-2.06337-.00326-4.12689.00489-6.19027a.50825.50825,0,0,0-.24018-.47325c-.88254-.62552-1.75091-1.27091-2.63456-1.8948-.19919-.14055-.19882-.23292-.05634-.41691.326-.42107.31254-.42552.74362-.09578q1.336,1.02168,2.6774,2.03624c.08525-.02165.112-.067.119-.11891V4.847a1.0746,1.0746,0,0,1-.00979-.11061q.00791-2.32846.00519-4.65663ZM12.34432,9.465a9.7,9.7,0,0,1-.60521,2.56242c-.057.142-.12032.16635-.27169.12721-.66229-.17124-.66066-.16309-.44249-.81129a17.11382,17.11382,0,0,0,.58934-1.96953c.03232-.15552.09007-.23633.26339-.16768a.73624.73624,0,0,0,.2092.0295C12.27345,9.25071,12.40236,9.30971,12.34432,9.465ZM14.22,7.80633a.29243.29243,0,0,1,.11023.263c-.00422.41454-.0017.82894-.0017,1.24333-.06138.95985-.10683,1.91793-.23033,2.87244-.03736.28837-.152.34279-.409.30987-.52893-.0679-.51314-.05782-.47741-.603.07747-1.18032.13285-2.362.20512-3.54259a.38892.38892,0,0,0-.16991-.35776c-.57192-.46673-1.139-.93939-1.707-1.41072a.96249.96249,0,0,1-.18636-.95733c.054-.09667.0977-.01972.13625.011Q12.85527,6.71986,14.22,7.80633Z"/><path class="i" d="M16.037,4.847v.07116A.293.293,0,0,0,16.037,4.847Z"/><path class="j" d="M4.91733,23.62289a2.49075,2.49075,0,0,0,.36031-.03488.8439.8439,0,0,0,.67043-.73228.82165.82165,0,0,0-.53576-.80313c-.04474-.02048-.08713-.0461-.13062-.06934a4.19717,4.19717,0,0,1,2.64708-.671,2.50932,2.50932,0,0,0,1.84982-.41151,1.27169,1.27169,0,0,0,1.19984.95685,5.59471,5.59471,0,0,1-1.061,2.17572,4.90263,4.90263,0,0,1-1.2526.93246c-.64731.34734-1.30567.67211-1.98459.95395a.83584.83584,0,0,0-.43-1.05389,1.11524,1.11524,0,0,0-.9539.03923Zm2.10634.84663a.87787.87787,0,0,0,.9296-.80622.86778.86778,0,0,0-.87441-.83074.88219.88219,0,0,0-.94436.79074A.867.867,0,0,0,7.02367,24.46952Z"/><path class="k" d="M11.897,16.94725A7.88651,7.88651,0,0,1,8.31892,14.363c-.06679-.08724-.12242-.183-.18324-.27484.062-.063.11739-.008.15924.02156a10.28309,10.28309,0,0,0,3.06594,1.377,1.6704,1.6704,0,0,0,.85042.17045,1.4852,1.4852,0,0,0,.9015.60558,2.2053,2.2053,0,0,0,1.40756-.15407,10.54893,10.54893,0,0,0,1.5099.16452l-.00117,1.386.00225.01767a16.49929,16.49929,0,0,1-2.73341-.30849Z"/><path class="l" d="M11.897,16.94725l1.4009.42106c.06221.10351.126.2061.1864.3107a15.1129,15.1129,0,0,0,1.54523,2.44854,3.07345,3.07345,0,0,1,.532.61461c.04522.093.14673.18829.03861.30013a.38167.38167,0,0,1-.35054.13907,1.10426,1.10426,0,0,1-.25693-.08741,9.2988,9.2988,0,0,1-2.14551-1.39656c-.362-.31065-.63779-.69812-1.00359-.99868-.10542-.15423-.14272-.36764-.3651-.42024a1.5189,1.5189,0,0,0-.04934-.20225.66328.66328,0,0,1,.26322-.91384A.51557.51557,0,0,0,11.897,16.94725Z"/><path class="k" d="M7.27638,12.19409a16.27691,16.27691,0,0,0,3.774,1.13252c.62157.114,1.24473.221,1.87512.27664.06994.00618.14272-.00182.19491.05986a1.22482,1.22482,0,0,0-.98661.972,13.07423,13.07423,0,0,1-3.5697-1.18493c-.36667-.18722-.72789-.38511-1.09161-.57813A1.15575,1.15575,0,0,1,7.27638,12.19409Z"/><path class="m" d="M7.47252,12.87209c.36372.193.72494.39091,1.09161.57813a13.07409,13.07409,0,0,0,3.56973,1.18493,1.5932,1.5932,0,0,0,.07742,1.022,1.6704,1.6704,0,0,1-.85042-.17045,10.28309,10.28309,0,0,1-3.06594-1.377c-.04185-.02953-.09721-.08455-.15924-.02156A4.25882,4.25882,0,0,1,7.47252,12.87209Z"/><path class="n" d="M10.97843,21.85758a1.27169,1.27169,0,0,1-1.19984-.95685l.49936-.67716c.07.00214.10214.05165.13218.10466a.95843.95843,0,0,0,.71941.51779c.06082.00906.11365.07179.17017.10975Z"/><path class="n" d="M11.72085,19.79786l-.19217.54224c-.44413-.00116-.66636-.32865-.91275-.62064a3.28329,3.28329,0,0,1,.36715-.59711,3.55119,3.55119,0,0,0,.64219.47589C11.717,19.63923,11.71786,19.71759,11.72085,19.79786Z"/><path class="j" d="M11.72085,19.79786c-.003-.08027-.0039-.15863-.09558-.19962a3.55119,3.55119,0,0,1-.64219-.47589l.49541-.84388c.22239.0526.25969.266.36508.42027l.06195.62115Z"/><path class="j" d="M10.61593,19.71946c.24639.292.46862.61948.91275.62064l-.229.61567c-.05651-.038-.10934-.10069-.17016-.10975a.95843.95843,0,0,1-.71941-.51779c-.03-.053-.06219-.10252-.13218-.10466Z"/><path class="m" d="M22.528,9.85977a14.50629,14.50629,0,0,1-1.46017-4.49933,16.49734,16.49734,0,0,0-.60039-2.837A3.50217,3.50217,0,0,0,17.42862.05219.454.454,0,0,1,17.42691,0h-1.39V.07858l-.0046.00119q-.001,2.32824-.00519,4.65663c-.00037.105.07243.25442-.10919.30068.12936.14129.19748-.01068.2711-.06672.94058-.71611,1.88093-1.43251,2.81217-2.16048.15286-.1195.21891-.10231.32759.04551.352.47845.35731.4737-.11313.81441-.81.58682-1.6168,1.1781-2.43151,1.75825a.46034.46034,0,0,0-.21164.42788c.00682,2.13306.0043,4.266.0043,6.399,0,.42893,0,.42893-.42715.43649-.04025.00074-.08043.00608-.12068.00934q.00111.56554.0023,1.13124l-.0023.01839q1.30835-.091,2.61661-.18207.11764-.00245.23522-.005a5.63172,5.63172,0,0,1,1.08973-.17287,17.23585,17.23585,0,0,0,4.66635-1.2721.50483.50483,0,0,1,.08777-.023A6.4737,6.4737,0,0,1,22.528,9.85977ZM18.831,7.92168a.56973.56973,0,0,0-.24723.53641c.08473,1.19915.14552,2.39993.22862,3.59923.01868.26969.00571.4611-.33974.41113a.52.52,0,0,0-.17918.02624c-.252.05783-.35345-.03558-.38807-.29874a38.65767,38.65767,0,0,1-.23567-4.11326.31908.31908,0,0,1,.12388-.28822q1.35494-1.07328,2.70431-2.15337c.09718-.07769.14923-.10008.15575.0599.00652.161.03039.32143.04981.51388.04181.14114-.07635.22743-.187.31876C19.95516,6.997,19.39836,7.46592,18.831,7.92168Zm2.10718,4.11785c-.62974.17435-.62789.18592-.83516-.44034a9.349,9.349,0,0,1-.43092-2.06441c-.03292-.17258-.01409-.32529.205-.29712.18244.02342.44664-.22981.52715.19141a15.55138,15.55138,0,0,0,.70269,2.28191C21.17744,11.90876,21.15112,11.98052,20.93814,12.03953Z"/><path class="n" d="M26.71841,21.98265a.20186.20186,0,0,1-.04468.03922c-.46479.20717-.69237.54962-.6127.924a.90921.90921,0,0,0,.93048.67323c.03029.00087.06056.0023.09083.00348q-.18443.65775-.36872,1.31568a.93777.93777,0,0,0-1.12887.03559.77459.77459,0,0,0-.265.94558,20.78975,20.78975,0,0,1-2.19516-1.07132A3.69868,3.69868,0,0,1,21.3,22.65409c-.08117-.26891-.18506-.531-.27853-.79617a1.27347,1.27347,0,0,0,1.20016-.95649,2.18334,2.18334,0,0,0,1.24454.41344,3.314,3.314,0,0,0,.60581.00313A4.03071,4.03071,0,0,1,26.71841,21.98265Zm-1.76218,2.48689a.824.824,0,1,0-.9097-.82633A.87321.87321,0,0,0,24.95623,24.46954Z"/><path class="o" d="M18.70221,17.36816l1.401-.42268c.02451.09747.10966.14168.17915.19683.40612.32232.45078.48958.26269.98913a.77381.77381,0,0,0-.02537.14777c-.1835.01716-.20422.19652-.3.30108a.128.128,0,0,0-.06258.12036l0-.00029a12.04261,12.04261,0,0,1-1.71128,1.56309,7.61224,7.61224,0,0,1-1.60872.8929.37116.37116,0,0,1-.43593-.11575c-.1258-.13488.01749-.24326.06788-.35135a.8264.8264,0,0,1,.1763-.20521,6.428,6.428,0,0,0,.97806-1.26123C17.98536,18.606,18.34282,17.9865,18.70221,17.36816Z"/><path class="p" d="M24.63693,12.21833a17.23585,17.23585,0,0,1-4.66635,1.2721,5.63328,5.63328,0,0,0-1.0898.17287,1.22291,1.22291,0,0,1,.98446.97172,12.64875,12.64875,0,0,0,4.4401-1.67359,1.29117,1.29117,0,0,1,.22232-.08911,1.16562,1.16562,0,0,0,.197-.677A.50483.50483,0,0,0,24.63693,12.21833Z"/><path class="k" d="M19.86529,14.635a12.64708,12.64708,0,0,0,4.44-1.67362,1.28849,1.28849,0,0,1,.22236-.089,4.49742,4.49742,0,0,1-.71629,1.29c-.09342-.13351-.15769-.00925-.22039.03192a12.58816,12.58816,0,0,1-3.67249,1.50231.10163.10163,0,0,1-.12918-.039A1.58551,1.58551,0,0,0,19.86529,14.635Z"/><path class="q" d="M22.2216,20.90143a1.27347,1.27347,0,0,1-1.20016.95649l-.32067-.90222a.28.28,0,0,1,.19815-.11991.88628.88628,0,0,0,.65675-.45868c.03676-.06312.06628-.15079.16559-.15383Z"/><path class="q" d="M20.47172,20.34022l-.19216-.5427c.00272-.0803.00365-.15861.09531-.1995a3.57537,3.57537,0,0,0,.642-.47513,3.2448,3.2448,0,0,1,.36706.59614C21.138,20.01145,20.91567,20.33859,20.47172,20.34022Z"/><path class="n" d="M21.01684,19.12289a3.57537,3.57537,0,0,1-.642.47513c-.09166.04089-.09259.1192-.09531.1995l-.18491-.47776.06242-.6194.00006.0003a.1181.1181,0,0,0,.06256-.12037c.09578-.10456.1165-.28392.3-.30108Z"/><path class="n" d="M20.47172,20.34022c.44395-.00163.66624-.32877.91218-.62119l.33737.50425c-.09932.003-.12884.09071-.1656.15383a.88628.88628,0,0,1-.65675.45868.28006.28006,0,0,0-.19816.11991Z"/><path class="r" d="M20.15707,18.70036l-.06242.6194a6.11118,6.11118,0,0,0-.27734,1.38272c-.0726.44781-.09733.90361-.13751,1.3564a5.54032,5.54032,0,0,0,1.23126,3.92683,17.10535,17.10535,0,0,0,1.29271,1.488c.71723.75263.68977,1.15114-.12521,1.77722a4.77535,4.77535,0,0,1-1.239.69276c-.11569-.08761-.06029-.21137-.068-.32178.18122-.08761.366-.16871.54291-.2642a2.29338,2.29338,0,0,0,.92713-.7482.43311.43311,0,0,0-.13346-.67309,5.15475,5.15475,0,0,0-1.73524-.6616c-.0274-.007-.06669.03277-.10044.05075a.491.491,0,0,0-.2807-.19736c-.55322-.14805-1.12591-.17505-1.6822-.296a1.397,1.397,0,0,0-.82731.00726A11.16668,11.16668,0,0,0,16.027,26.71l.00436-9.0332-.00225-.01767.12409.00567c.18342-.01309.37475.05513.549-.05314a10.3464,10.3464,0,0,0,2.00008-.24352c-.3594.61835-.71686,1.23783-1.07884,1.85466a6.428,6.428,0,0,1-.97806,1.26123.8264.8264,0,0,0-.1763.20521c-.05039.10809-.19368.21647-.06788.35135a.37116.37116,0,0,0,.43593.11575,7.61224,7.61224,0,0,0,1.60872-.8929A12.04261,12.04261,0,0,0,20.15707,18.70036ZM18.641,22.607a.75876.75876,0,1,0-.73945.7703A.778.778,0,0,0,18.641,22.607Zm.42514,2.92634a.7588.7588,0,1,0-.75128.75865A.7775.7775,0,0,0,19.06617,25.5333Z"/><path class="j" d="M20.77151,29.62194c.00775.11041-.04765.23417.068.32178-.00313.413-.01868.82629-.00505,1.23867a.51685.51685,0,0,1-.34644.53947,2.77325,2.77325,0,0,1-1.05407.226l-.18263.00049-.30852-.00294-.12207.001a2.9891,2.9891,0,0,1-.3525-.07177.61159.61159,0,0,1-.49977-.71528c.00179-.10746.06-.21467.0065-.32281l.11425-.36395c.00892-.08985.01278-.18054.02757-.26941a3.68523,3.68523,0,0,0-.21233-2.46627c-.15692-.29041-.28248-.59776-.42234-.89739a1.39713,1.39713,0,0,1,.82736-.00726c.55629.121,1.129.148,1.6822.296a.49138.49138,0,0,1,.28076.19735A9.34478,9.34478,0,0,1,20.77151,29.62194Z"/><path class="s" d="M25.31975,25.91939a.77459.77459,0,0,1,.265-.94558.93777.93777,0,0,1,1.12887-.03559.7669.7669,0,0,1,.15665,1.17839.97246.97246,0,0,1-1.38227.01559A2.66827,2.66827,0,0,1,25.31975,25.91939Z"/><path class="p" d="M16.03132,17.67681q-.00218,4.51659-.00434,9.03325l.00521.01085a8.005,8.005,0,0,0-1.5133.11881.51218.51218,0,0,0-.26082-.06213,17.89658,17.89658,0,0,0-2.33721.36835c-.106.02139-.12565.12279-.19216.17973-.02359-.01772-.0515-.05458-.07016-.05038a4.59875,4.59875,0,0,0-1.83694.7162A.39274.39274,0,0,0,9.726,28.557a1.56172,1.56172,0,0,0,.35029.40991,5.35049,5.35049,0,0,0,1.15145.6536c-.00676.11094.04828.23466-.06684.32319a5.184,5.184,0,0,1-1.56707-.95556A.78959.78959,0,0,1,9.53672,27.781c.34-.412.72155-.78953,1.06884-1.19588a6.85628,6.85628,0,0,0,1.61792-2.93781,7.44573,7.44573,0,0,0,.01851-2.46851c-.06343-.57956-.18176-1.15311-.27527-1.72939-.008-.04938-.00921-.10127-.06121-.1295l-.06194-.62112c.36583.30053.64158.688,1.00362.99865A9.2988,9.2988,0,0,0,14.9927,21.094a1.10426,1.10426,0,0,0,.25693.08741.38167.38167,0,0,0,.35054-.13907c.10812-.11184.00661-.2071-.03861-.30013a3.07345,3.07345,0,0,0-.532-.61461A15.1129,15.1129,0,0,1,13.4843,17.679c-.06035-.1046-.12419-.20719-.1864-.3107A16.49848,16.49848,0,0,0,16.03132,17.67681Zm-2.33457,7.09773a.75875.75875,0,1,0,.75456.75526A.77749.77749,0,0,0,13.69675,24.77454Zm1.17955-2.14625a.75881.75881,0,1,0-.76074.74905A.77811.77811,0,0,0,14.8763,22.62829Z"/><path class="r" d="M11.7287,27.32567c.06651-.05694.08616-.15834.19216-.17973a17.89658,17.89658,0,0,1,2.33721-.36835.51188.51188,0,0,1,.26077.06213c-.11482.24514-.22738.49134-.3448.73521a3.02345,3.02345,0,0,0-.39393,1.73375c.05127.38647.08818.77485.13153,1.16237l.11357.366a.26314.26314,0,0,0-.02107.08315c.06831.74512-.12873.97508-.88311,1.02786l-.43184-.00269-.123.002a2.58012,2.58012,0,0,1-1.13432-.26793.44891.44891,0,0,1-.26322-.43634c.004-.43312-.00437-.86634-.00769-1.2995.11509-.0885.06005-.21222.06685-.32308A9.34437,9.34437,0,0,1,11.7287,27.32567Z"/><path class="t" d="M5.29634,24.90505a1.11524,1.11524,0,0,1,.9539-.03923.83584.83584,0,0,1,.43,1.05389.9552.9552,0,0,1-.96767.4846.84255.84255,0,0,1-.74964-.57186A.81756.81756,0,0,1,5.29634,24.90505Z"/><path class="p" d="M14.02521,30.83709l-.11362-.366c.0881.01766.17593.037.26444.05257a10.90345,10.90345,0,0,0,1.857.317l-.00535.01086.00356.23121A7.72126,7.72126,0,0,1,14.02521,30.83709Z"/><path class="r" d="M16.03125,31.08275l-.00354-.23125c.12893-.01425.25957-.01958.38647-.04422.55894-.10853,1.11681-.22264,1.67507-.33473l-.11425.364A7.69339,7.69339,0,0,1,16.03125,31.08275Z"/><path class="u" d="M15.918,5.03708q-1.339-1.01767-2.6774-2.03624c-.43108-.32974-.41766-.32529-.74362.09578-.14248.184-.14285.27636.05634.41691.88365.62389,1.752,1.26928,2.63456,1.8948a.50825.50825,0,0,1,.24018.47325c-.00815,2.06338-.00489,4.1269-.00489,6.19027,0,.61,0,.61.60588.62893l.00793-.00059V5.0866A.11683.11683,0,0,1,15.918,5.03708Z"/><path class="v" d="M16.57685,12.25495c0-2.133.00252-4.266-.0043-6.399a.46034.46034,0,0,1,.21164-.42788c.81471-.58015,1.62148-1.17143,2.43151-1.75825.47044-.34071.4651-.336.11313-.81441-.10868-.14782-.17473-.165-.32759-.04551-.93124.728-1.87159,1.44437-2.81217,2.16048-.04671.03544-.09282.10275-.15212.11624v7.61359c.03758-.00327.07517-.008.11275-.00875C16.57685,12.68388,16.57685,12.68388,16.57685,12.25495Z"/><path class="u" d="M14.32852,9.31277c-.06137.95989-.10682,1.91794-.23036,2.87237-.03734.28839-.152.34278-.409.30983-.529-.06783-.51314-.05785-.47739-.603.07742-1.18026.13279-2.362.20512-3.54258a.389.389,0,0,0-.16989-.35774C12.67511,7.525,12.108,7.05237,11.54,6.58093a.96256.96256,0,0,1-.18633-.95737c.054-.09656.09767-.01965.13623.011Q12.85531,6.71995,14.22,7.80628a.29283.29283,0,0,1,.11024.26312C14.326,8.48382,14.32852,8.89831,14.32852,9.31277Z"/><path class="w" d="M12.21128,15.65713a1.5932,1.5932,0,0,1-.07742-1.022,1.22474,1.22474,0,0,1,.98658-.972l.23373.00564a1.98838,1.98838,0,0,1,1.22136.64859,1.5869,1.5869,0,0,0,1.21614.6693l.24131.0028-.0048.02018c-.02875.17257.089.37683-.1108.5124a2.90783,2.90783,0,0,0-1.397.58662,2.2053,2.2053,0,0,1-1.40756.15407A1.4852,1.4852,0,0,1,12.21128,15.65713Zm1.53273-.908c-.22818.00287-.32268.10024-.33028.29888-.00847.22132.14.2893.30774.287a.28667.28667,0,0,0,.29182-.31993A.24634.24634,0,0,0,13.744,14.74917Z"/><path class="u" d="M12.34428,9.465a9.699,9.699,0,0,1-.60519,2.56251c-.057.142-.12029.16625-.27169.1271-.6623-.17125-.66062-.1632-.44247-.81122a17.12107,17.12107,0,0,0,.58933-1.96949c.03232-.15561.0901-.23646.26342-.1678a.737.737,0,0,0,.20918.02949C12.27348,9.25065,12.40234,9.30983,12.34428,9.465Z"/><path class="w" d="M7.02367,24.46952a.867.867,0,0,1-.88917-.84622.88219.88219,0,0,1,.94436-.79074.86778.86778,0,0,1,.87441.83074A.87787.87787,0,0,1,7.02367,24.46952Z"/><path class="m" d="M14.52034,16.10864a2.907,2.907,0,0,1,1.397-.58654l.11413.01746-.00168.733.00047.00063A10.54893,10.54893,0,0,1,14.52034,16.10864Z"/><path class="v" d="M20.70343,6.21484c.04185.1413-.07632.22749-.187.31885-.56129.4633-1.11806.93221-1.68545,1.3879a.56987.56987,0,0,0-.24721.53641c.08474,1.19917.14549,2.4.22859,3.59932.0187.26973.00571.46118-.33972.41113a.516.516,0,0,0-.17921.02637c-.252.05778-.35343-.03572-.388-.29882a38.6431,38.6431,0,0,1-.23564-4.11323.319.319,0,0,1,.12387-.28826q1.35492-1.07317,2.70431-2.15334c.09715-.07768.14922-.1001.15571.05979C20.66016,5.86211,20.684,6.02256,20.70343,6.21484Z"/><path class="x" d="M16.03145,15.53956l-.11413-.01746c.1999-.13565.08211-.33991.11085-.5125.41876-.0523.88233-.061,1.15474-.42211a2.42009,2.42009,0,0,1,1.46275-.91912l.23517-.005a1.22271,1.22271,0,0,1,.98442.97159,1.58526,1.58526,0,0,1-.07591,1.02255,1.8489,1.8489,0,0,1-2.30953.44974A2.54782,2.54782,0,0,0,16.03145,15.53956Zm2.20873-.78859c-.16263-.01315-.25233.11558-.25337.27641a.28681.28681,0,0,0,.30358.30851c.17028-.00455.31019-.08065.29541-.29924C18.57219,14.83548,18.468,14.74888,18.24018,14.751Z"/><path class="v" d="M19.67209,9.5348c-.033-.17269-.01415-.32524.20491-.29712.18244.02342.44666-.22979.52715.19143a15.55239,15.55239,0,0,0,.70271,2.28179c.07054.19788.04425.26966-.1687.3286-.62978.17432-.62793.18587-.83521-.44039A9.347,9.347,0,0,1,19.67209,9.5348Z"/><path class="p" d="M18.64566,13.66837a2.42009,2.42009,0,0,0-1.46275.91912c-.27241.36111-.736.36981-1.15474.42211l.0048-.02015-.00268-.052-.00123-1.087Q17.33735,13.75948,18.64566,13.66837Z"/><path class="x" d="M24.95623,24.46954a.82256.82256,0,1,1,.90989-.82615A.87322.87322,0,0,1,24.95623,24.46954Z"/><path class="k" d="M16.03145,15.53956a2.54782,2.54782,0,0,1,1.44836.56772,10.87369,10.87369,0,0,1-1.45.16525Z"/><path class="p" d="M23.591,14.19421a12.58675,12.58675,0,0,1-3.67249,1.50232.10171.10171,0,0,1-.12921-.03906,1.84877,1.84877,0,0,1-2.30951.44983,10.8732,10.8732,0,0,1-1.45.16516l.00049.00073q-.00064.69288-.00122,1.38587l.12414.00573c.04352-.02783.04352-.02771,0,0,.18341-.01306.3747.05518.549-.05322a10.32788,10.32788,0,0,0,2.00006-.24341q.70057-.2113,1.401-.42273c.11248-.04382.22638-.0841.33715-.13183a7.52029,7.52029,0,0,0,3.371-2.65125C23.718,14.02881,23.65373,14.15308,23.591,14.19421Z"/><path class="y" d="M20.21969,18.58029a.1181.1181,0,0,1-.06256.12037A.128.128,0,0,1,20.21969,18.58029Z"/><path class="z" d="M18.08924,30.47255c-.55825.11209-1.11612.2262-1.67506.33473-.1269.02464-.25754.03-.38647.04422l.00531-.01078q-.00043-2.05986-.00083-4.11981l-.00521-.01085a11.15793,11.15793,0,0,1,1.45522.12943c.13981.29963.26537.607.42229.89739a3.68523,3.68523,0,0,1,.21233,2.46627C18.102,30.292,18.09817,30.38271,18.08924,30.47255Z"/><path class="z" d="M20.77151,29.62194a9.34478,9.34478,0,0,0-.499-2.29635c.03369-.018.073-.05771.10038-.05074a5.15475,5.15475,0,0,1,1.73524.6616.43311.43311,0,0,1,.13346.67309,2.29338,2.29338,0,0,1-.92713.7482C21.13746,29.45323,20.95273,29.53433,20.77151,29.62194Z"/><path class="o" d="M18.641,22.607a.75876.75876,0,1,1-.76277-.74707A.77894.77894,0,0,1,18.641,22.607Z"/><path class="o" d="M19.06617,25.5333a.7588.7588,0,1,1-.75115-.75878A.77747.77747,0,0,1,19.06617,25.5333Z"/><path class="q" d="M16.03219,26.72091q.00041,2.05993.00083,4.11981a10.90758,10.90758,0,0,1-1.857-.317c-.08851-.01556-.17634-.03491-.26444-.05257-.0433-.3876-.08021-.776-.13148-1.16245a3.02345,3.02345,0,0,1,.39393-1.73375c.11742-.24387.23-.49007.3448-.73521A8.0058,8.0058,0,0,1,16.03219,26.72091Z"/><path class="q" d="M11.7287,27.32567a9.34437,9.34437,0,0,0-.5009,2.29487,5.35351,5.35351,0,0,1-1.15149-.65368A1.56172,1.56172,0,0,1,9.726,28.557a.39274.39274,0,0,1,.09558-.56546,4.59875,4.59875,0,0,1,1.83694-.7162C11.6772,27.27109,11.70511,27.308,11.7287,27.32567Z"/><path class="l" d="M13.69675,24.77454a.75875.75875,0,1,1-.76277.747A.77645.77645,0,0,1,13.69675,24.77454Z"/><path class="l" d="M14.8763,22.62829a.75881.75881,0,1,1-.74142-.76823A.77723.77723,0,0,1,14.8763,22.62829Z"/><path class="aa" d="M13.744,14.74917a.24634.24634,0,0,1,.26928.266.28667.28667,0,0,1-.29182.31993c-.16773.00228-.31621-.0657-.30774-.287C13.42133,14.84941,13.51583,14.752,13.744,14.74917Z"/><path class="k" d="M16.03294,14.9895l-.00268-.052q-.00055-.54364-.00122-1.087l.00226-.01843c-.19117-.00244-.38294.00366-.57343-.00928-.70148-.048-1.40253-.10217-2.1037-.154a1.98849,1.98849,0,0,1,1.22138.64868,1.58627,1.58627,0,0,0,1.21612.66919h0Z"/><path class="aa" d="M18.24018,14.751c.22783-.00209.332.08451.34562.28568.01478.21859-.12513.29469-.29541.29924a.28681.28681,0,0,1-.30358-.30851C17.98785,14.86655,18.07755,14.73782,18.24018,14.751Z"/></svg>