<?xml version="1.0" encoding="utf-8"?>
<!-- Generator: Adobe Illustrator 23.0.6, SVG Export Plug-In . SVG Version: 6.00 Build 0)  -->
<svg version="1.1" xmlns="http://www.w3.org/2000/svg" xmlns:xlink="http://www.w3.org/1999/xlink" x="0px" y="0px" width="32px"
	 height="32px" viewBox="0 0 32 32" enable-background="new 0 0 32 32" xml:space="preserve">
<g id="labels">
	<g>
	</g>
</g>
<g id="icons">
	<g>
		<g>
			<path fill="#4F4949" d="M13.813,26.631c-2.205,0.625-4.488,1.051-6.703,0.936c-1.098-0.065-2.185-0.265-3.112-0.7
				c-0.925-0.425-1.672-1.109-1.935-1.915c-0.27-0.799-0.1-1.646,0.438-2.412c0.53-0.745,1.389-1.318,2.201-1.4l0.3-0.012
				l0.358,0.039c0.229,0.038,0.448,0.085,0.634,0.159c0.381,0.145,0.616,0.34,0.775,0.62c0.351,0.545,0.403,1.588,0.291,2.647
				c-0.082,0.776,0.149,1.513,1.236,1.513c1.335,0,1.493-0.439,1.575-1.215c0.008-0.077,0.01-0.153,0.006-0.228l-0.003-0.045
				c-0.039-0.633-0.106-1.287-0.262-1.974c-0.151-0.682-0.409-1.433-0.935-2.103c-0.515-0.682-1.325-1.14-2.065-1.309
				c-0.374-0.096-0.735-0.131-1.086-0.148c-0.333-0.004-0.693-0.005-1.089,0.047c-1.512,0.255-2.72,1.13-3.54,2.275
				c-0.404,0.582-0.711,1.254-0.838,1.999c-0.138,0.752-0.025,1.534,0.263,2.223c0.587,1.406,1.822,2.288,3.03,2.756
				c1.229,0.48,2.497,0.615,3.725,0.614c2.466-0.029,4.809-0.635,7.043-1.417c0.261-0.091,0.398-0.377,0.307-0.637
				c-0.088-0.251-0.355-0.387-0.607-0.316L13.813,26.631z"/>
			<path fill="#5A5353" d="M13.813,26.631c-2.205,0.625-4.488,1.051-6.703,0.936c-1.098-0.065-2.185-0.265-3.112-0.7
				c-0.925-0.425-1.672-1.109-1.935-1.915c-0.27-0.799-0.1-1.646,0.438-2.412c0.53-0.745,1.389-1.318,2.201-1.4l0.3-0.012
				l0.358,0.039c0.229,0.038,0.448,0.085,0.634,0.159c0.381,0.145,0.616,0.34,0.775,0.62c0.351,0.545,0.403,1.588,0.291,2.647
				c-0.082,0.776,0.149,1.513,1.236,1.513c1.335,0,1.493-0.439,1.575-1.215c0.008-0.077,0.01-0.153,0.006-0.228l-0.003-0.045
				c-0.039-0.633-0.106-1.287-0.262-1.974c-0.151-0.682-0.409-1.433-0.935-2.103c-0.515-0.682-1.325-1.14-2.065-1.309
				c-0.374-0.096-0.735-0.131-1.086-0.148c-0.333-0.004-0.693-0.005-1.089,0.047c-1.512,0.255-2.72,1.13-3.54,2.275
				c-0.404,0.582-0.711,1.254-0.838,1.999c-0.138,0.752-0.025,1.534,0.263,2.223c0.587,1.406,1.822,2.288,3.03,2.756
				c1.229,0.48,2.497,0.615,3.725,0.614c2.466-0.029,4.809-0.635,7.043-1.417c0.261-0.091,0.398-0.377,0.307-0.637
				c-0.088-0.251-0.355-0.387-0.607-0.316L13.813,26.631z"/>
			<path fill="#529CCF" d="M1.664,8.79c-0.123-0.503,0.48-0.847,0.844-0.48C5.26,11.08,6,14.28,6,16c0,1.291-1.325,2-2.5,2
				C2.408,18,1,17,1,16C1,14.31,2.427,11.907,1.664,8.79z"/>
			<path fill="#5A5353" d="M2.963,14.574L2.963,14.574c0.221-0.443,0.853-0.443,1.074,0l0,0c0.206,0.412,0.781,0.448,1.037,0.065
				l0.601-0.901C5.91,14.618,6,15.399,6,16c0,1.291-1.325,2-2.5,2C2.408,18,1,17,1,16c0-0.621,0.193-1.338,0.399-2.152l0.527,0.791
				C2.182,15.023,2.757,14.987,2.963,14.574z"/>
			<g>
				<path fill="#7A63AD" d="M4.125,11.731l-0.087-0.175c-0.221-0.443-0.853-0.443-1.074,0l0,0c-0.206,0.412-0.781,0.448-1.037,0.065
					l-0.079-0.119c0.081-0.839,0.058-1.749-0.182-2.73C1.543,8.274,2.147,7.927,2.508,8.29c1.129,1.136,1.919,2.344,2.459,3.493h0
					C4.759,12.094,4.292,12.065,4.125,11.731z"/>
			</g>
			<rect x="3" y="17.5" transform="matrix(-1 -4.001789e-11 4.001789e-11 -1 7 38)" fill="#4F4949" width="1" height="3"/>
			<path fill="#635C5C" d="M4.5,28L4.5,28C4.776,28,5,27.776,5,27.5v-3C5,24.224,4.776,24,4.5,24h0C4.224,24,4,24.224,4,24.5v3
				C4,27.776,4.224,28,4.5,28z"/>
			<path fill="#5CA3D5" d="M2.664,15.79c-0.123-0.503,0.48-0.847,0.844-0.48C6.26,18.08,7,21.28,7,23c0,1.291-1.325,2-2.5,2
				C3.408,25,2,24,2,23C2,21.31,3.427,18.907,2.664,15.79z"/>
			<path fill="#635C5C" d="M3.963,21.574L3.963,21.574c0.221-0.443,0.853-0.443,1.074,0l0,0c0.206,0.412,0.781,0.448,1.037,0.065
				l0.601-0.901C6.91,21.618,7,22.399,7,23c0,1.291-1.325,2.015-2.5,2.015C3.408,25.015,2,24,2,23c0-0.621,0.159-1.386,0.399-2.152
				l0.527,0.791C3.182,22.023,3.757,21.987,3.963,21.574z"/>
			<g>
				<path fill="#866EBA" d="M5.125,18.731l-0.087-0.175c-0.221-0.443-0.853-0.443-1.074,0l0,0c-0.206,0.412-0.781,0.448-1.037,0.065
					l-0.079-0.119c0.081-0.839,0.058-1.749-0.182-2.73c-0.122-0.498,0.481-0.845,0.843-0.482c1.129,1.136,1.919,2.344,2.459,3.493h0
					C5.759,19.094,5.292,19.065,5.125,18.731z"/>
			</g>
		</g>
		<path fill="#7A63AD" d="M14.163,11.194c-0.099,0-0.194-0.062-0.235-0.151C13.05,9.133,14,7.975,14,7c0-1-1-2-1-3
			c0-1.824,2.43-1.985,2.187-3.724c-0.031-0.22,0.198-0.383,0.38-0.255C17.23,1.191,18,2.08,18,3c0,1-1,2-1,3s1,2.194,1,3.194
			c0,0.828-0.686,1.656-0.921,1.916c-0.048,0.053-0.115,0.084-0.187,0.084H14.163z"/>
		<path fill="#7A63AD" d="M14.163,11.194c-0.099,0-0.194-0.062-0.235-0.151C13.05,9.133,14,7.975,14,7c0-1-1-2-1-3
			c0-1.824,2.43-1.985,2.187-3.724c-0.031-0.22,0.198-0.383,0.38-0.255C17.23,1.191,18,2.08,18,3c0,1-1,2-1,3s1,2.194,1,3.194
			c0,0.828-0.686,1.656-0.921,1.916c-0.048,0.053-0.115,0.084-0.187,0.084H14.163z"/>
		<path fill="#745DA6" d="M17.973,3.001c-0.017-0.555-0.282-1.069-0.681-1.532c-0.484-0.561-1.12-1.029-1.726-1.449
			c-0.102-0.071-0.218-0.051-0.295,0.019c0.533,0.87,0.691,1.645,0.691,2.513C15.962,3.364,15,3.5,15,4.5
			c0,1,1.112,2.524,0.999,6.691c0.017,0.035,0.467,0.002,0.513,0.002c0.314,0.001,0.461,0.024,0.684-0.22
			c0.61-0.666,0.961-1.573,0.683-2.455C17.618,7.689,17,6.896,17,6c0-0.829,0.587-1.532,0.856-2.283
			C17.944,3.471,17.98,3.233,17.973,3.001z"/>
		<path fill="#529CCF" d="M15.546,6.712c-0.592,0-1.292-0.317-1.859-0.829C13.861,6.255,14,6.627,14,7
			c0,0.974-0.95,2.133-0.073,4.042c0.041,0.09,0.136,0.151,0.235,0.151h2.729c0.072,0,0.139-0.031,0.187-0.084
			C17.314,10.85,18,10.022,18,9.194C18,8.194,17,7,17,6c0-0.006,0.001-0.013,0.001-0.019C16.684,5.994,15.946,6.712,15.546,6.712z"
			/>
		<path fill="#4390BF" d="M17.881,8.526c-0.021-0.066-0.044-0.132-0.069-0.199c-0.005-0.013-0.009-0.025-0.014-0.038
			c-0.001-0.002-0.002-0.005-0.003-0.007C17.506,7.537,17,6.811,17,6c0-0.006,0-0.013,0-0.019c-0.419,0.07-1.051,0.731-1.442,0.731
			c0.23,0.996,0.491,2.618,0.441,4.48c0,0.001,0.001,0.002,0.002,0.002h0.492c0.008,0,0.015-0.001,0.019-0.001
			c0.036,0,0.069,0,0.101,0.001h0.069c0.205-0.002,0.335-0.026,0.514-0.22c0.008-0.009,0.017-0.019,0.025-0.028
			c0.164-0.199,0.386-0.502,0.551-0.852C17.983,9.601,18.046,9.059,17.881,8.526z"/>
		<path fill="#4F4949" d="M13,11.799l-0.781-3.124c-0.061-0.246,0.24-0.417,0.419-0.237l1.254,1.254
			c0.056,0.056,0.149,0.047,0.192-0.019l1.707-2.561c0.099-0.148,0.317-0.148,0.416,0l1.707,2.561
			c0.044,0.066,0.137,0.075,0.192,0.019l1.254-1.254c0.179-0.179,0.481-0.009,0.419,0.237L19,11.799H13z"/>
		<path fill="#4F4949" d="M11,20.786h10l-4.067,10.573c-0.329,0.855-1.538,0.855-1.867,0L11,20.786z"/>
		<g>
			<path fill="#5A5353" d="M11,20.786l4.067,10.573C15.231,31.786,15.615,32,16,32V20.786H11z"/>
		</g>
		<path fill="#4F4949" d="M18.187,26.631c2.205,0.625,4.488,1.051,6.703,0.936c1.098-0.065,2.185-0.265,3.112-0.7
			c0.925-0.425,1.672-1.109,1.935-1.915c0.27-0.799,0.1-1.646-0.438-2.412c-0.53-0.745-1.389-1.318-2.201-1.4l-0.3-0.012
			l-0.358,0.039c-0.229,0.038-0.448,0.085-0.634,0.159c-0.381,0.145-0.616,0.34-0.775,0.62c-0.351,0.545-0.403,1.588-0.291,2.647
			c0.082,0.776-0.149,1.513-1.236,1.513c-1.335,0-1.493-0.439-1.575-1.215c-0.008-0.077-0.01-0.153-0.006-0.228l0.003-0.045
			c0.039-0.633,0.106-1.287,0.262-1.974c0.151-0.682,0.409-1.433,0.935-2.103c0.515-0.682,1.325-1.14,2.065-1.309
			c0.374-0.096,0.735-0.131,1.086-0.148c0.333-0.004,0.693-0.005,1.089,0.047c1.512,0.255,2.72,1.13,3.54,2.275
			c0.404,0.582,0.711,1.254,0.838,1.999c0.138,0.752,0.025,1.534-0.263,2.223c-0.587,1.406-1.822,2.288-3.03,2.756
			c-1.229,0.48-2.497,0.615-3.725,0.614c-2.466-0.029-4.809-0.635-7.043-1.417c-0.261-0.091-0.398-0.377-0.307-0.637
			c0.088-0.251,0.355-0.387,0.607-0.316L18.187,26.631z"/>
		<path fill="#4F4949" d="M18.187,26.631c2.205,0.625,4.488,1.051,6.703,0.936c1.098-0.065,2.185-0.265,3.112-0.7
			c0.925-0.425,1.672-1.109,1.935-1.915c0.27-0.799,0.1-1.646-0.438-2.412c-0.53-0.745-1.389-1.318-2.201-1.4l-0.3-0.012
			l-0.358,0.039c-0.229,0.038-0.448,0.085-0.634,0.159c-0.381,0.145-0.616,0.34-0.775,0.62c-0.351,0.545-0.403,1.588-0.291,2.647
			c0.082,0.776-0.149,1.513-1.236,1.513c-1.335,0-1.493-0.439-1.575-1.215c-0.008-0.077-0.01-0.153-0.006-0.228l0.003-0.045
			c0.039-0.633,0.106-1.287,0.262-1.974c0.151-0.682,0.409-1.433,0.935-2.103c0.515-0.682,1.325-1.14,2.065-1.309
			c0.374-0.096,0.735-0.131,1.086-0.148c0.333-0.004,0.693-0.005,1.089,0.047c1.512,0.255,2.72,1.13,3.54,2.275
			c0.404,0.582,0.711,1.254,0.838,1.999c0.138,0.752,0.025,1.534-0.263,2.223c-0.587,1.406-1.822,2.288-3.03,2.756
			c-1.229,0.48-2.497,0.615-3.725,0.614c-2.466-0.029-4.809-0.635-7.043-1.417c-0.261-0.091-0.398-0.377-0.307-0.637
			c0.088-0.251,0.355-0.387,0.607-0.316L18.187,26.631z"/>
		<ellipse fill="#C7CFE5" cx="16" cy="17.786" rx="8" ry="7"/>
		<path fill="#D3DAEA" d="M16,10.786c-4.418,0-8,3.134-8,7s3.582,7,8,7V10.786z"/>
		<path fill="#4F4949" d="M10.288,22.686c0.712,1.1,3.475,3.1,5.712,3.1s5-2,5.712-3.1c-1.452-0.555-3.475-0.9-5.712-0.9
			S11.74,22.13,10.288,22.686z"/>
		<path fill="#5A5353" d="M16,21.786c-2.238,0-4.26,0.345-5.712,0.9c0.712,1.1,3.475,3.1,5.712,3.1V21.786z"/>
		<g>
			<path fill="#4F4949" d="M18.849,14.836c0.642,2.717,0.573,6.174-1.025,7.772l0.354,0.354c1.854-1.854,1.783-5.598,1.159-8.241
				c-0.307-1.299-0.839-2.723-1.573-3.765c-0.237-0.047-0.479-0.084-0.724-0.112C17.787,11.705,18.444,13.124,18.849,14.836z"/>
			<path fill="#4F4949" d="M22.623,15.912c-0.211-1.3-0.675-2.444-1.355-3.393c-0.474-0.363-0.997-0.678-1.559-0.936
				c1.27,1.047,2.12,2.558,2.42,4.409c0.524,3.24-0.837,6.423-3.237,7.568l0.215,0.451C21.704,22.773,23.182,19.366,22.623,15.912z"
				/>
		</g>
		<g>
			<path fill="#5A5353" d="M14.962,10.844c-0.245,0.028-0.486,0.065-0.724,0.112c-0.734,1.042-1.267,2.466-1.573,3.765
				c-0.624,2.644-0.695,6.388,1.159,8.241l0.354-0.354c-1.599-1.599-1.667-5.056-1.025-7.772
				C13.556,13.124,14.213,11.705,14.962,10.844z"/>
			<path fill="#5A5353" d="M12.881,24.011l0.215-0.451c-2.4-1.146-3.761-4.328-3.237-7.568c0.298-1.844,1.144-3.351,2.406-4.397
				c-0.563,0.26-1.086,0.578-1.559,0.944c-0.671,0.945-1.131,2.082-1.34,3.373C8.807,19.367,10.285,22.773,12.881,24.011z"/>
		</g>
		<rect x="12.5" y="17.036" fill="#4F4949" width="7" height="0.5"/>
		<rect x="12.5" y="17.036" fill="#5A5353" width="3.5" height="0.5"/>
		<circle fill="#FFE28A" cx="12.5" cy="17.286" r="1.25"/>
		<path fill="#5A5353" d="M12.5,16.286c0.551,0,1,0.449,1,1s-0.449,1-1,1s-1-0.449-1-1S11.949,16.286,12.5,16.286 M12.5,15.786
			c-0.828,0-1.5,0.672-1.5,1.5s0.672,1.5,1.5,1.5s1.5-0.672,1.5-1.5S13.328,15.786,12.5,15.786L12.5,15.786z"/>
		<circle fill="#FFE28A" cx="19.5" cy="17.286" r="1.25"/>
		<path fill="#4F4949" d="M19.5,16.286c0.551,0,1,0.449,1,1s-0.449,1-1,1s-1-0.449-1-1S18.949,16.286,19.5,16.286 M19.5,15.786
			c-0.828,0-1.5,0.672-1.5,1.5s0.672,1.5,1.5,1.5s1.5-0.672,1.5-1.5S20.328,15.786,19.5,15.786L19.5,15.786z"/>
		<path fill="#5A5353" d="M15,18.536c-0.138,0-0.25-0.112-0.25-0.25v-2c0-0.138,0.112-0.25,0.25-0.25s0.25,0.112,0.25,0.25v2
			C15.25,18.423,15.138,18.536,15,18.536z"/>
		<path fill="#4F4949" d="M17,18.536c-0.138,0-0.25-0.112-0.25-0.25v-2c0-0.138,0.112-0.25,0.25-0.25s0.25,0.112,0.25,0.25v2
			C17.25,18.423,17.138,18.536,17,18.536z"/>
		<path fill="#4390BF" d="M30.336,8.79c0.123-0.503-0.48-0.847-0.844-0.48C26.74,11.08,26,14.28,26,16c0,1.291,1.325,2,2.5,2
			c1.092,0,2.5-1,2.5-2C31,14.31,29.573,11.907,30.336,8.79z"/>
		<path fill="#4F4949" d="M29.037,14.574L29.037,14.574c-0.221-0.443-0.853-0.443-1.074,0l0,0c-0.206,0.412-0.781,0.448-1.037,0.065
			l-0.601-0.901C26.09,14.618,26,15.399,26,16c0,1.291,1.325,2,2.5,2c1.092,0,2.5-1,2.5-2c0-0.621-0.193-1.338-0.399-2.152
			l-0.527,0.791C29.818,15.023,29.243,14.987,29.037,14.574z"/>
		<g>
			<path fill="#745DA6" d="M27.875,11.731l0.087-0.175c0.221-0.443,0.853-0.443,1.074,0l0,0c0.206,0.412,0.781,0.448,1.037,0.065
				l0.079-0.119c-0.081-0.839-0.058-1.749,0.182-2.73c0.122-0.498-0.481-0.845-0.843-0.482c-1.129,1.136-1.919,2.344-2.459,3.493
				l0,0C27.241,12.094,27.708,12.065,27.875,11.731z"/>
		</g>
		<rect x="28" y="17.5" fill="#4F4949" width="1" height="3"/>
		<path fill="#5A5353" d="M27.5,28L27.5,28c-0.276,0-0.5-0.224-0.5-0.5v-3c0-0.276,0.224-0.5,0.5-0.5l0,0c0.276,0,0.5,0.224,0.5,0.5
			v3C28,27.776,27.776,28,27.5,28z"/>
		<path fill="#529CCF" d="M29.336,15.79c0.123-0.503-0.48-0.847-0.844-0.48C25.74,18.08,25,21.28,25,23c0,1.291,1.325,2,2.5,2
			c1.092,0,2.5-1,2.5-2C30,21.31,28.573,18.907,29.336,15.79z"/>
		<path fill="#5A5353" d="M28.037,21.574L28.037,21.574c-0.221-0.443-0.853-0.443-1.074,0l0,0c-0.206,0.412-0.781,0.448-1.037,0.065
			l-0.601-0.901C25.09,21.618,25,22.399,25,23c0,1.291,1.325,2.015,2.5,2.015C28.592,25.015,30,24,30,23
			c0-0.621-0.159-1.386-0.399-2.152l-0.527,0.791C28.818,22.023,28.243,21.987,28.037,21.574z"/>
		<g>
			<path fill="#7A63AD" d="M26.875,18.731l0.087-0.175c0.221-0.443,0.853-0.443,1.074,0l0,0c0.206,0.412,0.781,0.448,1.037,0.065
				l0.079-0.119c-0.081-0.839-0.058-1.749,0.182-2.73c0.122-0.498-0.481-0.845-0.843-0.482c-1.129,1.136-1.919,2.344-2.459,3.493
				l0,0C26.241,19.094,26.708,19.065,26.875,18.731z"/>
		</g>
	</g>
</g>
</svg>
