<svg xmlns="http://www.w3.org/2000/svg" viewBox="0 0 32 32"><defs><style>.a{fill:#d5b387;}.b{fill:#cfab81;}.c{fill:#dbba8c;}.d{fill:#b9bfbe;}.e{fill:#535c44;}.f{fill:#69735e;}.g{fill:#423823;}.h{fill:#ad4586;}.i{fill:#cda073;}.j{fill:#fff;}.k{fill:#303712;}.l{fill:#d0bcb8;}.m{fill:#cda19c;}.n{fill:#989685;}.o{fill:#501c46;}.p{fill:#e5e5e5;}.q{fill:#e0c193;}.r{fill:#c8cccb;}.s{fill:#61533b;}.t{fill:#b54e8b;}.u{fill:#363e0d;}.v{fill:#541f47;}</style></defs><title>610-axew-shiny</title><path class="a" d="M19.36429,28.73913c.05311-.22028.26764-.23324.42124-.30829a4.614,4.614,0,0,0,2.02735-1.83629,2.22053,2.22053,0,0,0,.11759-.28164,4.70306,4.70306,0,0,0,.41757-2.22477,13.18583,13.18583,0,0,0-.8044-2.91628,1.47559,1.47559,0,0,1,.071-1.11153.24112.24112,0,0,1,.31874-.17138,2.154,2.154,0,0,0,1.0943-.05366.65843.65843,0,0,1,.86753.29044c.112.18226.25292.18874.29747-.02713a1.9361,1.9361,0,0,1,1.08207-1.36628.612.612,0,0,0,.12359-.11882v-.13886a4.2971,4.2971,0,0,0-.61664-.29668,1.116,1.116,0,0,1-.76327-.6266c-.05476-.12407-.16007-.28421-.29814-.25243-.36348.08337-.5969-.164-.88019-.286a1.93153,1.93153,0,0,0-.63259.07591,3.8867,3.8867,0,0,1-2.03909,2.7163,1.75574,1.75574,0,0,1-.23684.14082,15.91593,15.91593,0,0,0-3.43347,2.39492A1.34461,1.34461,0,0,1,16,22.62591v6.588a8.421,8.421,0,0,0,2.97868-.4474C19.10159,28.72568,19.22775,28.62887,19.36429,28.73913Z"/><path class="b" d="M22.88058,30.04416a.21165.21165,0,0,1-.09156-.287,3.12332,3.12332,0,0,0-.46518-3.03082c-.14608-.12358-.20151-.33347-.39337-.41341a2.22053,2.22053,0,0,1-.11759.28164,4.614,4.614,0,0,1-2.02735,1.83629c-.1536.07505-.36813.088-.42124.30829a1.58132,1.58132,0,0,1,.64176,1.659,2.27031,2.27031,0,0,0,.025.309,1.03953,1.03953,0,0,0,.8176,1.02339A3.39415,3.39415,0,0,1,21.58349,32H22.069c.14192-.08557.22957-.29533.411-.27039.56524.078.7398-.45669,1.10756-.68369.13874-.08569.066-.24839-.026-.36733A3.403,3.403,0,0,0,22.88058,30.04416Z"/><path class="c" d="M20.10091,15.06781c.08465-.09192.17731-.20536.31036-.05537.322.02994.62318.20841.95971.13409a7.66449,7.66449,0,0,0,.40419-3.201,6.23991,6.23991,0,0,0-1.22852-3.534c-.0198.03643-.04082.06381-.07255.00953L20.332,8.352a1.09438,1.09438,0,0,0-1.5137.48309,3.64558,3.64558,0,0,0-.30572.57832c-.39618.81852-.65178,1.69559-1.0608,2.51081a1.91229,1.91229,0,0,1-1.206,1.0031c-.06625.08153-.159.06821-.24582.07591V17.1531a5.65214,5.65214,0,0,0,3.62215-1.54523C19.796,15.443,19.93784,15.24481,20.10091,15.06781ZM17.11,16.04707c-.12426-.002-.26606-.03239-.23268-.17969a.498.498,0,0,1,.48541-.36708.21659.21659,0,0,1,.24546.19411C17.62744,15.83364,17.3161,16.04756,17.11,16.04707Zm1.41994-2.62938-.08355-.14216-.0536-.07176c-.07671-.048-.06632-.1259-.0684-.19961a5.16483,5.16483,0,0,1,.0819-2.38491,1.38564,1.38564,0,0,1,.33023-.59848.13843.13843,0,0,1,.07323-.13985,1.21853,1.21853,0,0,1,2.0565.444,1.81444,1.81444,0,0,1-.66822,2.51937l-.07683.08116.00324-.00208-.07335.06993a3.60267,3.60267,0,0,1-1.24373.48321C18.71122,13.47417,18.60365,13.52588,18.52994,13.41769Z"/><path class="d" d="M24.333,16.42052a12.57883,12.57883,0,0,0-2.70731-1.12669c-.10091-.02872-.2072-.03288-.25475-.1473-.33653.07432-.63773-.10415-.95971-.13409a5.13824,5.13824,0,0,1-1.77914,1.531c-.22443.1352-.47349.22945-.71125.34252a3.4589,3.4589,0,0,0,1.42636.26086c.55778.042,1.12063.01626,1.68128.01992q.58941-.039,1.179-.078a1.93136,1.93136,0,0,1,.63253-.07591q.73592-.16613,1.47189-.33249c.0767-.01736.19185-.0022.20683-.09156C24.53791,16.47455,24.4065,16.46159,24.333,16.42052Z"/><path class="e" d="M20.332,8.352l.1421.06918.007-.08654-.06918-.0687Z"/><path class="f" d="M20.4741,8.42113c.03173.05428.05275.0269.07255-.00953l-.06552-.077Z"/><path class="g" d="M18.83725,6.998a.48342.48342,0,0,1-.27669-.32027c-.572-2.06317-1.16812-4.12059-1.54676-6.23143a.39542.39542,0,0,0-.29631-.33848A4.046,4.046,0,0,0,16,.00043V13.00318c.08685-.0077.17957.00562.24582-.07591a1.91229,1.91229,0,0,0,1.206-1.0031c.409-.81522.66462-1.69229,1.0608-2.51081A3.64558,3.64558,0,0,1,18.8183,8.835,1.09438,1.09438,0,0,1,20.332,8.352l.08-.08606A4.59208,4.59208,0,0,0,18.83725,6.998Z"/><path class="h" d="M19.93154,19.94592a1.75574,1.75574,0,0,0,.23684-.14082,3.8867,3.8867,0,0,0,2.03909-2.7163q-.5895.03906-1.179.07811c-.05256.019-.1094.06186-.15708.0533a1.98584,1.98584,0,0,0-1.52952.51928A5.836,5.836,0,0,1,16,18.7564v3.86951a1.34461,1.34461,0,0,0,.49807-.28507A15.91593,15.91593,0,0,1,19.93154,19.94592Z"/><path class="i" d="M23.168,24.15977a2.487,2.487,0,0,0-.81993-.07163,4.70306,4.70306,0,0,1-.41757,2.22477c.19186.07994.24729.28983.39337.41341a.92334.92334,0,0,1,.17107-.33469,10.19338,10.19338,0,0,0,.9198-1.73165A.33513.33513,0,0,0,23.168,24.15977Z"/><path class="h" d="M18.80926,9.95292l-.07267.06772a1.38624,1.38624,0,0,0-.3303.59861,5.16483,5.16483,0,0,0-.0819,2.38491q.0717.0946.14339.18873l.06014.08093.07775.06625a.36568.36568,0,0,1,.20169.13642,3.60267,3.60267,0,0,0,1.24373-.48321l.07335-.06993-.0033.00208a.16364.16364,0,0,1,.0698-.145.10718.10718,0,0,1,.01974-.06051l.042-.0885a2.61412,2.61412,0,0,0-.15335-2.131A1.00618,1.00618,0,0,0,18.80926,9.95292Zm.62917,2.75664a.501.501,0,0,1-.73638-.0291,1.34489,1.34489,0,0,1,.01052-1.73409c.14186-.13275.30663-.26025.51787-.10733.149-.12053.31819-.23922.47966-.05647a.34761.34761,0,0,1-.06423.53846A1.1994,1.1994,0,0,1,19.43843,12.70956Z"/><path class="j" d="M18.80975,9.88092l-.00049.072a1.00618,1.00618,0,0,1,1.29012.54752,2.61412,2.61412,0,0,1,.15335,2.131l-.04211.0885a.10758.10758,0,0,0-.01968.06051.12647.12647,0,0,1,.00709.06381,1.81444,1.81444,0,0,0,.66822-2.51937A1.21853,1.21853,0,0,0,18.80975,9.88092Z"/><path class="k" d="M18.63213,16.54349a5.13824,5.13824,0,0,0,1.77914-1.531c-.133-.15-.22571-.03655-.31036.05537-.16307.177-.30487.37515-.47876.54006A5.65214,5.65214,0,0,1,16,17.1531V17.358a4.9271,4.9271,0,0,0,1.92076-.472C18.15864,16.77294,18.4077,16.67869,18.63213,16.54349Z"/><path class="k" d="M17.36273,15.5003a.498.498,0,0,0-.48541.36708c-.03338.1473.10842.17774.23244.18006.20634.00012.51768-.2138.49843-.353A.21659.21659,0,0,0,17.36273,15.5003Z"/><path class="j" d="M18.60565,13.34009l-.07776-.06629-.06012-.08081-.14337-.18884c.00208.07373-.0083.15161.06836.19959l.05377.07177q.04157.07123.08344.142c.07367.1084.18127.05664.2774.05908A.36542.36542,0,0,0,18.60565,13.34009Z"/><path class="l" d="M20.1212,12.92543l.07683-.08116a.12647.12647,0,0,0-.00709-.06381A.16345.16345,0,0,0,20.1212,12.92543Z"/><path class="m" d="M18.73659,10.02064l.07267-.06772.00049-.072A.13819.13819,0,0,0,18.73659,10.02064Z"/><path class="n" d="M20.05109,12.99326l.07332-.0699Z"/><path class="c" d="M20.87138,17.22021c.04768.00856.10452-.03435.15714-.05342-.56065-.00366-1.1235.02213-1.68128-.01992a3.45982,3.45982,0,0,1-1.42648-.26086A4.9271,4.9271,0,0,1,16,17.358V18.7564a5.836,5.836,0,0,0,3.34186-1.01691A1.98584,1.98584,0,0,1,20.87138,17.22021Z"/><path class="o" d="M19.23037,10.83916c-.21117-.153-.37594-.02554-.5178.10721a1.34489,1.34489,0,0,0-.01052,1.73409.501.501,0,0,0,.73638.0291,1.1994,1.1994,0,0,0,.20744-1.38853C19.27566,11.29744,19.20959,11.22092,19.23037,10.83916Z"/><path class="j" d="M19.23037,10.83916c-.02078.38176.04529.45828.4155.48187a.34761.34761,0,0,0,.06423-.53846C19.54863,10.59982,19.37945,10.71851,19.23037,10.83916Z"/><path class="l" d="M20.25274,12.63146l-.04211.08853Z"/><path class="p" d="M18.53717,13.39647a.06847.06847,0,0,1,.04219-.04472Z"/><path class="c" d="M12.63571,28.73913c-.05311-.22028-.26764-.23324-.42124-.30829a4.614,4.614,0,0,1-2.02735-1.83629,2.22053,2.22053,0,0,1-.11759-.28164A4.70306,4.70306,0,0,1,9.652,24.08814a13.18583,13.18583,0,0,1,.8044-2.91628,1.47559,1.47559,0,0,0-.071-1.11153.24112.24112,0,0,0-.31874-.17138,2.154,2.154,0,0,1-1.0943-.05366.65843.65843,0,0,0-.86753.29044c-.112.18226-.25292.18874-.29747-.02713a1.9361,1.9361,0,0,0-1.08207-1.36628.612.612,0,0,1-.12359-.11882v-.13886a4.2971,4.2971,0,0,1,.61664-.29668,1.116,1.116,0,0,0,.76327-.6266c.05476-.12407.16007-.28421.29814-.25243.36348.08337.5969-.164.88019-.286a1.93153,1.93153,0,0,1,.63259.07591,3.8867,3.8867,0,0,0,2.03909,2.7163,1.75574,1.75574,0,0,0,.23684.14082,15.91593,15.91593,0,0,1,3.43347,2.39492A1.34461,1.34461,0,0,0,16,22.62591v6.588a8.421,8.421,0,0,1-2.97868-.4474C12.89841,28.72568,12.77225,28.62887,12.63571,28.73913Z"/><path class="a" d="M9.11942,30.04416a.21165.21165,0,0,0,.09156-.287,3.12332,3.12332,0,0,1,.46518-3.03082c.14608-.12358.20151-.33347.39337-.41341a2.22053,2.22053,0,0,0,.11759.28164,4.614,4.614,0,0,0,2.02735,1.83629c.1536.07505.36813.088.42124.30829a1.58132,1.58132,0,0,0-.64176,1.659,2.27031,2.27031,0,0,1-.025.309,1.03953,1.03953,0,0,1-.8176,1.02339A3.39415,3.39415,0,0,0,10.41651,32H9.931c-.14192-.08557-.22957-.29533-.411-.27039-.56524.078-.7398-.45669-1.10756-.68369-.13874-.08569-.066-.24839.026-.36733A3.403,3.403,0,0,1,9.11942,30.04416Z"/><path class="q" d="M12.37785,15.60787A5.65214,5.65214,0,0,0,16,17.1531V13.00318c-.08685-.0077-.17957.00562-.24582-.07591a1.91229,1.91229,0,0,1-1.206-1.0031c-.409-.81522-.66462-1.69229-1.0608-2.51081A3.64558,3.64558,0,0,0,13.1817,8.835,1.09438,1.09438,0,0,0,11.668,8.352l-.1421.06918c-.03173.05428-.05275.0269-.07255-.00953a6.23991,6.23991,0,0,0-1.22852,3.534,7.66449,7.66449,0,0,0,.40419,3.201c.33653.07432.63773-.10415.95971-.13409.13305-.15.22571-.03655.31036.05537C12.06216,15.24481,12.204,15.443,12.37785,15.60787Zm2.014.08654a.21659.21659,0,0,1,.24546-.19411.498.498,0,0,1,.48541.36708c.03338.1473-.10842.17774-.23268.17969C14.6839,16.04756,14.37256,15.83364,14.39181,15.69441Zm-1.19917-2.21792a3.60267,3.60267,0,0,1-1.24373-.48321l-.07335-.06993.00324.00208-.07683-.08116a1.81444,1.81444,0,0,1-.66822-2.51937,1.21853,1.21853,0,0,1,2.0565-.444.13843.13843,0,0,1,.07323.13985,1.38564,1.38564,0,0,1,.33023.59848,5.16483,5.16483,0,0,1,.0819,2.38491c-.00208.07371.00831.15157-.0684.19961l-.0536.07176-.08355.14216C13.39635,13.52588,13.28878,13.47417,13.19264,13.47649Z"/><path class="r" d="M7.667,16.42052a12.57883,12.57883,0,0,1,2.70731-1.12669c.10091-.02872.2072-.03288.25475-.1473.33653.07432.63773-.10415.95971-.13409a5.13824,5.13824,0,0,0,1.77914,1.531c.22443.1352.47349.22945.71125.34252a3.4589,3.4589,0,0,1-1.42636.26086c-.55778.042-1.12063.01626-1.68128.01992q-.58941-.039-1.179-.078A1.93136,1.93136,0,0,0,9.16,17.01289q-.73592-.16613-1.47189-.33249c-.0767-.01736-.19185-.0022-.20683-.09156C7.46209,16.47455,7.5935,16.46159,7.667,16.42052Z"/><path class="e" d="M11.668,8.352l-.1421.06918-.007-.08654.06918-.0687Z"/><path class="f" d="M11.5259,8.42113c-.03173.05428-.05275.0269-.07255-.00953l.06552-.077Z"/><path class="s" d="M13.16275,6.998a.48342.48342,0,0,0,.27669-.32027c.572-2.06317,1.16812-4.12059,1.54676-6.23143a.39542.39542,0,0,1,.29631-.33848A4.046,4.046,0,0,1,16,.00043V13.00318c-.08685-.0077-.17957.00562-.24582-.07591a1.91229,1.91229,0,0,1-1.206-1.0031c-.409-.81522-.66462-1.69229-1.0608-2.51081A3.64558,3.64558,0,0,0,13.1817,8.835,1.09438,1.09438,0,0,0,11.668,8.352l-.07995-.08606A4.59208,4.59208,0,0,1,13.16275,6.998Z"/><path class="t" d="M12.06846,19.94592a1.75574,1.75574,0,0,1-.23684-.14082,3.8867,3.8867,0,0,1-2.03909-2.7163q.5895.03906,1.179.07811c.05256.019.1094.06186.15708.0533a1.98584,1.98584,0,0,1,1.52952.51928A5.836,5.836,0,0,0,16,18.7564v3.86951a1.34461,1.34461,0,0,1-.49807-.28507A15.91593,15.91593,0,0,0,12.06846,19.94592Z"/><path class="t" d="M11.90062,10.50044a2.61412,2.61412,0,0,0-.15335,2.131l.042.0885a.10718.10718,0,0,1,.01974.06051.16364.16364,0,0,1,.0698.145l-.0033-.00208.07335.06993a3.60267,3.60267,0,0,0,1.24373.48321.36568.36568,0,0,1,.20169-.13642l.07775-.06625.06014-.08093q.0717-.09424.14339-.18873a5.16483,5.16483,0,0,0-.0819-2.38491,1.38624,1.38624,0,0,0-.3303-.59861l-.07267-.06772A1.00618,1.00618,0,0,0,11.90062,10.50044Zm.45351.82059a.34761.34761,0,0,1-.06423-.53846c.16147-.18275.33065-.06406.47966.05647.21124-.15292.376-.02542.51787.10733a1.34489,1.34489,0,0,1,.01052,1.73409.501.501,0,0,1-.73638.0291A1.1994,1.1994,0,0,1,12.35413,11.321Z"/><path class="j" d="M13.19025,9.88092l.00049.072a1.00618,1.00618,0,0,0-1.29012.54752,2.61412,2.61412,0,0,0-.15335,2.131l.04211.0885a.10758.10758,0,0,1,.01968.06051.12647.12647,0,0,0-.00709.06381,1.81444,1.81444,0,0,1-.66822-2.51937A1.21853,1.21853,0,0,1,13.19025,9.88092Z"/><path class="u" d="M13.36787,16.54349a5.13824,5.13824,0,0,1-1.77914-1.531c.13305-.15.22571-.03655.31036.05537.16307.177.30487.37515.47876.54006A5.65214,5.65214,0,0,0,16,17.1531V17.358a4.9271,4.9271,0,0,1-1.92076-.472C13.84136,16.77294,13.5923,16.67869,13.36787,16.54349Z"/><path class="u" d="M14.63727,15.5003a.498.498,0,0,1,.48541.36708c.03338.1473-.10842.17774-.23244.18006-.20634.00012-.51768-.2138-.49843-.353A.21659.21659,0,0,1,14.63727,15.5003Z"/><path class="j" d="M13.53223,13.193l-.06012.08081-.07776.06629a.36542.36542,0,0,0-.20172.13647c.09613-.00244.20373.04932.2774-.05908q.04184-.07068.08344-.142l.05377-.07177c.07666-.048.06628-.12586.06836-.19959Z"/><path class="l" d="M11.8788,12.92543l-.07683-.08116a.12647.12647,0,0,1,.00709-.06381A.16345.16345,0,0,1,11.8788,12.92543Z"/><path class="m" d="M13.26341,10.02064l-.07267-.06772-.00049-.072A.13819.13819,0,0,1,13.26341,10.02064Z"/><path class="n" d="M11.94891,12.99326l-.07332-.0699Z"/><path class="q" d="M11.12862,17.22021c-.04768.00856-.10452-.03435-.15714-.05342.56065-.00366,1.1235.02213,1.68128-.01992a3.45982,3.45982,0,0,0,1.42648-.26086A4.9271,4.9271,0,0,0,16,17.358V18.7564a5.836,5.836,0,0,1-3.34186-1.01691A1.98584,1.98584,0,0,0,11.12862,17.22021Z"/><path class="v" d="M12.76963,10.83916c.21117-.153.37594-.02554.5178.10721a1.34489,1.34489,0,0,1,.01052,1.73409.501.501,0,0,1-.73638.0291,1.1994,1.1994,0,0,1-.20744-1.38853C12.72434,11.29744,12.79041,11.22092,12.76963,10.83916Z"/><path class="j" d="M12.76963,10.83916c.02078.38176-.04529.45828-.4155.48187a.34761.34761,0,0,1-.06423-.53846C12.45137,10.59982,12.62055,10.71851,12.76963,10.83916Z"/><path class="l" d="M11.74726,12.63146l.04211.08853Z"/><path class="p" d="M13.46283,13.39647a.06847.06847,0,0,0-.04219-.04472Z"/></svg>