<svg xmlns="http://www.w3.org/2000/svg" viewBox="0 0 32 32"><title>611-fraxure-shiny</title><path d="M3.393,18.51861a6.03825,6.03825,0,0,1,.79149-1.16423c.10143-.11784.17089-.19105-.037-.28233-.17761-.078-.4414-.19259-.39182-.40024.0484-.20276.33733-.17223.5311-.19511.29-.03423.583-.04292.8747-.06248a1.07741,1.07741,0,0,0,.02695,1.00184,1.4603,1.4603,0,0,0,.86041.54554c-.23952.32892-.47706.65932-.72018.98557-.05127.06879-.10537.16873-.21088.13837-.0967-.02781-.11018-.13732-.13894-.22058-.059-.17073.00822-.43764-.16041-.499-.13418-.04881-.333.10749-.5091.14037-.30161.0563-.59487.24434-.91634.08041Z" style="fill:#56c7cd"/><path d="M27.72866,17.22031c-.0148-.1817.25575-.15791.35392-.2872.0134-.01763.035-.02862.05017-.04492.05923-.06456.15616-.11747.1287-.22031-.02662-.09983-.1292-.11331-.21664-.13244a5.34354,5.34354,0,0,0-1.20634-.12114c.30466.78171-.02679,1.29686-.88721,1.54745.21032.29418.41457.59319.63421.88038.077.10084.14384.27921.295.23711.13744-.03843.14043-.21464.16681-.34709.07953-.401.07987-.40018.482-.27555a3.09811,3.09811,0,0,0,.42339.11947c.216.03395.43445.15608.65434.01065V18.5185a5.71289,5.71289,0,0,0-.60135-.92714C27.90521,17.47006,27.73931,17.35076,27.72866,17.22031Z" style="fill:#51bac5"/><path d="M15.99892,27.03546a.22924.22924,0,0,1,.001-.06756l.00333-.01963V21.72638c-.06639-.00366-.1337-.00949-.19818-.00816a3.35919,3.35919,0,0,1-.60267,2.30537.80053.80053,0,0,1-.75026.33561c-.7214.002-.99944-.40882-1.24869-1.03a1.8504,1.8504,0,0,1,.22554-1.94911,7.66,7.66,0,0,0,.39593-.6709,6.96206,6.96206,0,0,1-2.598-3.07776,5.08081,5.08081,0,0,1-1.57108-.46806,25.59176,25.59176,0,0,0-.81183,5.666A1.37137,1.37137,0,0,1,8.3264,23.9968a7.13471,7.13471,0,0,0-2.33573,5.884c.47222-.24859.75858-.16523.98122.32313.083.182.12562.1406.20774.02113a1.01733,1.01733,0,0,1,.09509-.13977.74367.74367,0,0,1,.778-.29368.63548.63548,0,0,1,.45874.70634l.32954-.03029c.17571-.67705.45043-.83745,1.07007-.62414a4.41865,4.41865,0,0,1,2.29488-2.16792.34894.34894,0,0,1,.40242.016,4.53108,4.53108,0,0,0,1.66434.73928,7.47964,7.47964,0,0,0,1.73057.2253V27.07473Z" style="fill:#687271"/><path d="M19.419,27.67058a.34527.34527,0,0,1,.37447.00632A4.40439,4.40439,0,0,1,22.089,29.84366c.61915-.21348.894-.05341,1.07015.62381q.16461.01546.32946.03028a.633.633,0,0,1,.45908-.70584.69277.69277,0,0,1,.79219.32447c.17538.25241.221.24326.34735-.03494.16606-.36507.50824-.419.92214-.20067a7.34208,7.34208,0,0,0-1.861-5.43538c-.05267-.05873-.114-.11281-.10749-.20266-.45-.32863-.98812-.5674-.89885-1.30352a3.91077,3.91077,0,0,0-.04951-1.38139.42129.42129,0,0,1,.06074-.35774c-.11614-.05291-.10741-.16739-.11831-.26307a37.82261,37.82261,0,0,0-.69094-3.77328,5.08537,5.08537,0,0,1-1.57083.46757A6.87413,6.87413,0,0,1,19.509,19.58641a8.45609,8.45609,0,0,1-3.23209,2.11484.6769.6769,0,0,1-.27363.02513v5.22189c.0411-.2.03236-.49219.275-.48254.232.00915.27763.31382.33653.5085-.00649.24842-.11556.38835-.34427.40266-.22213.014-.25308-.14026-.26722-.30216v1.58139A6.03433,6.03433,0,0,0,19.419,27.67058ZM16.54,25.05173c.00948-.13545.00166-.27189.00166-.408h-.00424a1.22044,1.22044,0,0,1,.00116-.17c.03211-.22829-.10849-.52813.23927-.631a.79507.79507,0,0,1,.94919.32463c.38678.58654.36523.96358-.04193,1.36542-.28329.27954-.54569.08719-.81641.006A.42637.42637,0,0,1,16.54,25.05173Z" style="fill:#5c6664"/><path d="M6.04888,17.9616a1.4603,1.4603,0,0,1-.86041-.54554,1.07741,1.07741,0,0,1-.02695-1.00184,2.86772,2.86772,0,0,1,.88394-.82476A15.65823,15.65823,0,0,1,8.36567,14.3422a1.33118,1.33118,0,0,0-.12457.75442A2.79311,2.79311,0,0,0,9.3417,16.9602a.23261.23261,0,0,1,.1169.19195A5.84193,5.84193,0,0,1,6.04888,17.9616Z" style="fill:#8ead1e"/><path d="M26.204,15.76437a14.7555,14.7555,0,0,0-2.56926-1.42182c.40084.732-.18753,2.0205-.88987,2.56561-.08719.06772-.20624.10349-.2035.24393a5.84287,5.84287,0,0,0,3.40988.80966c.86042-.25059,1.19187-.76574.88721-1.54745A2.52423,2.52423,0,0,0,26.204,15.76437Z" style="fill:#86a01c"/><path d="M9.4586,17.15215a.23261.23261,0,0,0-.1169-.19195,2.79311,2.79311,0,0,1-1.1006-1.86358,1.33118,1.33118,0,0,1,.12457-.75442q.1162-.15015.23226-.30037.76686.11615,1.534.23261c.1346.04936.29422-.0262.41674.08355a8.68937,8.68937,0,0,0,.67822,3.27344,5.07827,5.07827,0,0,1-1.571-.468Z" style="fill:#8fb720"/><path d="M23.402,14.04188q-.767.11631-1.53388.23245c-.13753.03345-.28811.0025-.41582.0842a8.72325,8.72325,0,0,1-.67921,3.27293,5.08982,5.08982,0,0,0,1.57091-.46773q.09883-.006.19742-.01164c-.00274-.14044.11631-.17621.2035-.24393.70234-.54511,1.29071-1.83365.88987-2.56561Q23.51832,14.19206,23.402,14.04188Z" style="fill:#8ead1e"/><path d="M23.15321,21.20008a.42129.42129,0,0,0-.06074.35774,3.91077,3.91077,0,0,1,.04951,1.38139c-.08927.73612.44884.97489.89885,1.30352a6.19548,6.19548,0,0,0,1.57149-2.726,7.09544,7.09544,0,0,0-1.77133-.93645Q23.49705,20.89026,23.15321,21.20008Z" style="fill:#505957"/><path d="M5.99066,29.88067c.47223-.24857.75859-.16514.98126.32322.083.18208.12562.14066.20771.02118a1.01724,1.01724,0,0,1,.09506-.13982.74412.74412,0,0,1,.778-.29373.63559.63559,0,0,1,.45873.70646c-.01432.08609.0016.1755-.08513.24477A14.34367,14.34367,0,0,1,6.94,31.8678c-.074.04477-.1686.12172-.24435.05087-.0427-.03994-.02728-.14867-.0272-.2264.0002-.21384.21016-.47783.05313-.60967-.10064-.08449-.398.06922-.60831.11057a3.68552,3.68552,0,0,1-.91183.07044c-.11179-.006-.24579.007-.29692-.11458-.04872-.1158.07134-.17884.137-.25009C5.35587,30.55764,5.67392,30.21976,5.99066,29.88067Z" style="fill:#56c7cd"/><path d="M26.95843,30.89875c-.31431-.3411-.63237-.679-.9491-1.018-.4139-.21831-.75608-.1644-.92214.20067-.12638.2782-.172.28735-.34735.03494a.69277.69277,0,0,0-.79219-.32447.633.633,0,0,0-.45908.70584.32426.32426,0,0,0,.137.28886c.36057.27288.70708.5644,1.07056.83312.18378.13594.40742.4045.59793.28021.166-.10832.00383-.4273-.0505-.63679-.06089-.23478-.00066-.22163.18-.17255a4.39178,4.39178,0,0,0,1.375.17289c.11174-.00566.24577.007.29685-.11448C27.14413,31.0332,27.02408,30.97014,26.95843,30.89875Z" style="fill:#51bac5"/><path d="M25.73,18.27291a.75439.75439,0,0,0-.11373.11647A14.445,14.445,0,0,1,23.841,20.58027a7.09544,7.09544,0,0,1,1.77133.93645,6.4441,6.4441,0,0,0,.18-3.08874A.68559.68559,0,0,0,25.73,18.27291Z" style="fill:#4caebc"/><path d="M8.841,30.46762c.17568-.67707.45042-.8373,1.07011-.624a2.209,2.209,0,0,1,.49415,1.02512c.02224.17435.018.27893-.219.20347A3.32521,3.32521,0,0,1,8.841,30.46762Z" style="fill:#56c7cd"/><path d="M22.089,29.84366a2.07118,2.07118,0,0,0-.49352,1.05909c-.00732.09318-.0678.24925.152.18453a3.33832,3.33832,0,0,0,1.41167-.61981C22.983,29.79025,22.70811,29.63018,22.089,29.84366Z" style="fill:#51bac5"/><path d="M15.98461,13.57182c-.06938-.00665-.04734-.10432-.05166-.16539l-.00025-.2035a5.04217,5.04217,0,0,0-1.2269-2.52866,4.78692,4.78692,0,0,1-.4639-.57339,17.43371,17.43371,0,0,0-1.15052-1.84246c-.36964-.46557-.7065-.53279-1.131-.14809a3.49055,3.49055,0,0,0-.68562.92181c-.135.24526-.10241-.06489-.16681-.04559l.13678,1.02a9.04124,9.04124,0,0,0,.74444,1.98972c.07562.12962.00183.1817-.0822.24327a2.66138,2.66138,0,0,1,.26431-.03894c.41582-.0203.81266-.1208,1.10368.38337a1.18218,1.18218,0,0,0,1.22715.68837.27905.27905,0,0,1,.29393.13145,10.37851,10.37851,0,0,1,.726,1.29536c.11423.20566.22712.41232.34335.617.04492.07921.09143.115.13794.11282V13.559C15.99368,13.56084,15.99834,13.57315,15.98461,13.57182ZM13.7265,11.20323a.70333.70333,0,0,1-.8001.07022,1.2581,1.2581,0,0,1-.86532-.97157,1.66033,1.66033,0,0,1,.49768-1.52216c.14875-.14093.29327-.09567.40575.05591a2.5192,2.5192,0,0,1,.39526.63046,1.61392,1.61392,0,0,1,.33046.66491,2.59653,2.59653,0,0,1,.12163.27587C13.89922,10.68342,13.96918,10.97178,13.7265,11.20323Zm1.66293,2.18307c-.1362-.019-.16207-.1451-.1946-.24926-.02221-.07055.00982-.14909.10133-.12529.12671.03278.13827.16423.18362.25607C15.48926,13.345,15.45041,13.39462,15.38943,13.3863Z" style="fill:#757f7e"/><path d="M16.47805,14.69913a10.376,10.376,0,0,1,.726-1.29536.279.279,0,0,1,.29393-.13145,1.18216,1.18216,0,0,0,1.22714-.68837c.291-.50417.68787-.40367,1.10368-.38337a2.61359,2.61359,0,0,1,.26432.03911c-.084-.06174-.15791-.11365-.0822-.24344a9.07261,9.07261,0,0,0,.7446-1.98922L20.892,8.98688c-.06381-.018-.03577.29119-.16623.0446a4.90237,4.90237,0,0,0-.58728-.83.68839.68839,0,0,0-1.17123-.02562A9.83491,9.83491,0,0,0,18.2156,9.306a6.15814,6.15814,0,0,1-.81824,1.28472,4.86661,4.86661,0,0,0-1.33,2.61219l-.00025.2035c-.0129.05624.0084.1391-.06381.15258v1.86992c.04417-.00183.08835-.03777.13111-.11315C16.25051,15.11112,16.36365,14.90479,16.47805,14.69913ZM18.1433,10.5706a1.04368,1.04368,0,0,1,.16648-.4396,1.61391,1.61391,0,0,1,.33045-.66491,2.506,2.506,0,0,1,.39527-.63046.25288.25288,0,0,1,.43179-.03411,1.63907,1.63907,0,0,1,.45441,1.56542,1.25617,1.25617,0,0,1-1.01249.94711C18.349,11.45215,18.006,11.12336,18.1433,10.5706Zm-1.42448,2.43832c.06356-.01365.09609.04409.08952.12579-.03478.09019-.056.21015-.17971.25025a.08079.08079,0,0,1-.10857-.09035C16.54918,13.17831,16.57322,13.0402,16.71882,13.00892Z" style="fill:#687271"/><path d="M24.87179,13.4858a4.765,4.765,0,0,0-.9298-.48637A12.30223,12.30223,0,0,0,21.3154,12.349q-.09272-.00525-.18544-.01032a4.39058,4.39058,0,0,1,.73812,1.93581q.76686-.11656,1.53388-.23262.71433-.14575,1.42873-.29119c.07688-.01564.19135-.008.209-.08336C25.06339,13.566,24.94043,13.53305,24.87179,13.4858Z" style="fill:#7cd8d5"/><path d="M20.01089,11.99625c-.07571.12979-.00175.1817.0822.24327q.51839.04942,1.03679.09917.09285.005.18552.01032a13.10484,13.10484,0,0,0-.55991-2.342A9.07261,9.07261,0,0,1,20.01089,11.99625Z" style="fill:#8fb720"/><path d="M10.132,14.27433q-.7671-.11631-1.534-.2325-.71409-.1455-1.42852-.291c-.07689-.01562-.19139-.008-.20906-.08339-.02379-.10146.09857-.13567.16774-.18171a7.16892,7.16892,0,0,1,2.58906-.96254c.32078-.06621.64483-.11658.96733-.174q.09264-.00506.18548-.01056A4.39383,4.39383,0,0,0,10.132,14.27433Z" style="fill:#8eddd9"/><path d="M10.86989,12.33871q-.09273.00531-.18541.01046a13.13107,13.13107,0,0,1,.56017-2.34272,9.04131,9.04131,0,0,0,.74446,1.9898c.0756.12968.0018.18167-.08222.24345Q11.38839,12.28926,10.86989,12.33871Z" style="fill:#93c427"/><path d="M15.86531,15.31611c-.11623-.20466-.22912-.41132-.34335-.617a44.73668,44.73668,0,0,1-4.49834-.31864c-.15674-.0198-.31656-.01547-.475-.02246a8.68849,8.68849,0,0,0,.6783,3.27343,6.96206,6.96206,0,0,0,2.598,3.07776,14.96821,14.96821,0,0,0,1.73223.84927c.09151.04026.19975.05291.24792.15973.06448-.00133.13179.0045.19818.00816V15.42893C15.95674,15.43109,15.91023,15.39532,15.86531,15.31611Z" style="fill:#93c427"/><path d="M16.27688,21.70125A8.45609,8.45609,0,0,0,19.509,19.58641a6.87359,6.87359,0,0,0,1.26408-1.955,8.72325,8.72325,0,0,0,.67921-3.27293c-.90409.04026-1.79845.18918-2.70354.22845-.75684.03311-1.51142.11914-2.27067.11215-.1144.20566-.22754.412-.34369.61665-.04276.07538-.08694.11132-.13111.11315v6.29745A.6769.6769,0,0,0,16.27688,21.70125Z" style="fill:#8fb720"/><path d="M13.82492,20.70931a14.96435,14.96435,0,0,0,1.73223.84916c.09151.04037.19974.05294.24794.15982a3.35947,3.35947,0,0,1-.60269,2.30535.801.801,0,0,1-.75025.33566c-.72142.00182-.99941-.40894-1.24868-1.03008A1.85063,1.85063,0,0,1,13.429,21.38,7.63022,7.63022,0,0,0,13.82492,20.70931Z" style="fill:#66d3d3"/><path d="M16.7778,23.84272c-.34776.10283-.20716.40267-.23927.631a1.22044,1.22044,0,0,0-.00116.17h.00424c0,.13611.00782.27255-.00166.408a.42637.42637,0,0,0,.3287.487c.27072.0812.53312.27355.81641-.006.40716-.40184.42871-.77888.04193-1.36542A.79507.79507,0,0,0,16.7778,23.84272Z" style="fill:#56c7cd"/><path d="M15.99992,26.9679a.22924.22924,0,0,0-.001.06756l.00433.03927v-.12646Z" style="fill:#c84040"/><path d="M16.27047,27.37689c.22871-.01431.33778-.15424.34427-.40266-.0589-.19468-.1045-.49935-.33653-.5085-.2426-.00965-.23386.28253-.275.48254v.12646C16.01739,27.23663,16.04834,27.39087,16.27047,27.37689Z" style="fill:#56c7cd"/><path d="M15.52193,14.6992a44.74267,44.74267,0,0,1-4.49831-.3187c-.15677-.0198-.31657-.01556-.475-.02249-.12251-.10977-.28213-.03421-.41673-.08357a4.39416,4.39416,0,0,1,.738-1.93583q.5184-.04932,1.03693-.09891a2.5963,2.5963,0,0,1,.26438-.03914c.41577-.02027.81264-.12078,1.10365.38343a1.182,1.182,0,0,0,1.22711.68835.27888.27888,0,0,1,.294.13148A10.36269,10.36269,0,0,1,15.52193,14.6992Z" style="fill:#c8cccb"/><path d="M20.09309,12.23969a2.61359,2.61359,0,0,0-.26432-.03911c-.41581-.0203-.81266-.1208-1.10368.38337a1.18216,1.18216,0,0,1-1.22714.68837.279.279,0,0,0-.29393.13145,10.376,10.376,0,0,0-.726,1.29536c.75925.007,1.51383-.079,2.27067-.11215.90509-.03927,1.79945-.18819,2.70354-.22845.12771-.0817.27829-.05075.41582-.084a4.38974,4.38974,0,0,0-.7382-1.93581Q20.61148,12.28877,20.09309,12.23969Z" style="fill:#b9bfbe"/><path d="M19.0355,8.83563a2.506,2.506,0,0,0-.39527.63046.37907.37907,0,0,1,.11082.22729c.1223-.04858.21789-.02462.25383.11149a.19853.19853,0,0,1-.15008.27687,2.17524,2.17524,0,0,1-.04593.70168c-.0391.13694-.04276.33428-.21207.34227-.18.00832-.18161-.19268-.22346-.32713a2.76806,2.76806,0,0,1-.06356-.66756,1.04368,1.04368,0,0,0-.16648.4396c-.13727.55276.20566.88155.76591.74345a1.25617,1.25617,0,0,0,1.01249-.94711,1.63907,1.63907,0,0,0-.45441-1.56542A.25288.25288,0,0,0,19.0355,8.83563Z" style="fill:#66d3d3"/><path d="M13.69025,10.131a2.62961,2.62961,0,0,1,.1216.27583c.08734.27675.15736.56506-.08538.7964a.70331.70331,0,0,1-.8.07023,1.25786,1.25786,0,0,1-.86532-.9715,1.66,1.66,0,0,1,.49765-1.52216c.14878-.14092.29326-.09568.4057.05586a2.51772,2.51772,0,0,1,.39526.63042.37924.37924,0,0,0-.11072.22745c-.12234-.04874-.218-.02469-.25391.11127a.19874.19874,0,0,0,.1501.27709,2.179,2.179,0,0,0,.0527.73456c.03647.12627.0478.30338.20534.3112.16677.00828.17737-.17313.2164-.29631A2.68272,2.68272,0,0,0,13.69025,10.131Z" style="fill:#7cd8d5"/><path d="M13.69025,10.131a2.68272,2.68272,0,0,1-.07061.70034c-.039.12318-.04963.30459-.2164.29631-.15754-.00782-.16887-.18493-.20534-.3112a2.179,2.179,0,0,1-.0527-.73456c.19941-.0854.244-.21219.10381-.38836a.37924.37924,0,0,1,.11072-.22745A1.61468,1.61468,0,0,1,13.69025,10.131Z" style="fill:#211915"/><path d="M18.7508,9.69372a.37735.37735,0,0,0-.11057-.22763,1.61391,1.61391,0,0,0-.33045.66491,2.76806,2.76806,0,0,0,.06356.66756c.04185.13445.04343.33545.22346.32713.16931-.008.173-.20533.21207-.34227a2.17524,2.17524,0,0,0,.04593-.70168C18.65579,9.99655,18.61078,9.87009,18.7508,9.69372Z" style="fill:#211915"/><path d="M16.71882,13.00892c-.1456.03128-.16964.16939-.19876.28569a.08079.08079,0,0,0,.10857.09035c.12372-.0401.14493-.16006.17971-.25025C16.81491,13.053,16.78238,12.99527,16.71882,13.00892Z" style="fill:#373f3f"/><path d="M15.47976,13.2678c.00948.07729-.02936.12693-.09032.11846-.13623-.019-.16209-.1451-.19464-.24909-.02216-.07078.00984-.14915.10138-.1254C15.42287,13.04465,15.4344,13.17607,15.47976,13.2678Z" style="fill:#434c4b"/><path d="M15.79534.18673c-.0802.17371-.15774.34909-.24094.52147a15.54518,15.54518,0,0,0-1.32323,3.62536.56488.56488,0,0,1-.38836.477A4.0656,4.0656,0,0,0,11.1079,8.98655c.0644-.0193.03178.29085.16681.04559a3.49055,3.49055,0,0,1,.68562-.92181c.42455-.3847.76141-.31748,1.131.14809a17.419,17.419,0,0,1,1.15052,1.84246,4.80124,4.80124,0,0,0,.4639.57355,5.041,5.041,0,0,1,1.2269,2.5285l.00025.2035c.00432.06107-.01772.15874.05166.16539.01373.00133.00907-.01081.01864-.01281V-.05255C15.95408-.05022,15.89992.028,15.79534.18673Z" style="fill:#9acc2e"/><path d="M16.06706,13.40643l.00025-.2035a4.86661,4.86661,0,0,1,1.33005-2.61219A6.15487,6.15487,0,0,0,18.2156,9.306a9.83491,9.83491,0,0,1,.75168-1.13013.68839.68839,0,0,1,1.17123.02562,4.90237,4.90237,0,0,1,.58728.83c.13046.24676.10242-.06257.16623-.0446a3.68265,3.68265,0,0,0-.08885-1.24927,4.1909,4.1909,0,0,0-2.70954-2.96079c-.15749-.06522-.26273-.12812-.29875-.31381A16.27851,16.27851,0,0,0,16.19734.21634c-.09442-.18586-.14143-.27122-.19409-.26889V13.559C16.07546,13.54553,16.05416,13.46284,16.06706,13.40643Z" style="fill:#93c427"/><path d="M18.7508,9.69372c-.14.17637-.095.30283.104.388a.19853.19853,0,0,0,.15008-.27687C18.96894,9.66876,18.87335,9.6448,18.7508,9.69372Z" style="fill:#fff"/><path d="M13.249,9.69348c.14018.17617.0956.303-.10381.38836a.19874.19874,0,0,1-.1501-.27709C13.031,9.66879,13.12667,9.64474,13.249,9.69348Z" style="fill:#fff"/></svg>