<svg xmlns="http://www.w3.org/2000/svg" viewBox="0 0 32 32"><defs><style>.a{fill:#a92f31;}.b{fill:#97ac59;}.c{fill:#90a74e;}.d{fill:#9eb164;}.e{fill:#c23734;}.f{fill:#3a3333;}.g{fill:#a8b875;}.h{fill:#687271;}.i{fill:#b33533;}.j{fill:#5e6056;}.k{fill:#413b3b;}.l{fill:#c0c998;}.m{fill:#4f4949;}.n{fill:#41414f;}.o{fill:#b4c187;}.p{fill:#0e0909;}.q{fill:#c4b4b4;}.r{fill:#cf3c35;}.s{fill:#757f7e;}.t{fill:#cdd4ad;}.u{fill:#5a5353;}</style></defs><title>612-haxorus-shiny</title><path class="a" d="M25.10175,30.09521c-.16316.14612-.4852.18272-.36292.52586a8.02325,8.02325,0,0,0,1.32528.07454v-.06037A1.07532,1.07532,0,0,0,25.10175,30.09521Z"/><path class="b" d="M22.6193,21.08474a2.83488,2.83488,0,0,0-2.26638,1.03283,1.44778,1.44778,0,0,0-.33724.7254,6.43914,6.43914,0,0,0,1.035,2.35228c.278-.204.48882-.48409.78584-.66917a2.60661,2.60661,0,0,1,1.58762-.42018c.10943.00723.21961.00191.32949.00221a8.59053,8.59053,0,0,0-.951-2.8408Z"/><path class="c" d="M23.72312,15.32345c-.17164.4804-.3348.96361-.50136,1.44579a1.58021,1.58021,0,0,1-.20913.397.61649.61649,0,0,1-1.12-.07129l-.11918-.05977a4.87852,4.87852,0,0,1-1.57264,2.196c.01292.10877.1101.1104.18087.128a3.99457,3.99457,0,0,1,2.23679,1.6651l.00081.06051.18331.18257a4.542,4.542,0,0,0,.7792-1.58481,12.23753,12.23753,0,0,0,.29414-4.63991C23.75744,15.09882,23.75854,15.22427,23.72312,15.32345Z"/><path class="b" d="M20.3817,19.35913c-.07077-.01756-.16795-.01919-.18087-.128a9.17806,9.17806,0,0,1-.544-2.60731,12.94622,12.94622,0,0,1,.00885-1.80723,10.68166,10.68166,0,0,1-.61817-1.38985,2.24238,2.24238,0,0,1-.10214-.823,1.13341,1.13341,0,0,1,.48159-.78856,2.01023,2.01023,0,0,0-.24987-.52439,3.21043,3.21043,0,0,0-1.09275,1.62806c.08848-.03882.14272-.0152.19238.07364a5.67948,5.67948,0,0,1,.76813,2.10492,3.5659,3.5659,0,0,1-.176,1.15253,14.21478,14.21478,0,0,0,.97829,4.29706,2.88308,2.88308,0,0,1,.16678,1.801l.00753.06656a3.02956,3.02956,0,0,1,.75779-.97866,2.62745,2.62745,0,0,1,1.83926-.41178A3.99457,3.99457,0,0,0,20.3817,19.35913Z"/><path class="d" d="M18.08433,12.91907a3.21022,3.21022,0,0,1,1.09275-1.6282,4.47453,4.47453,0,0,1-.26382-.82709c-.08818-.51479-.1833-1.0284-.27555-1.54231q-.302.07151-.604.14287c-.00428.01653-.0079.03306-.01078.04988-.106.31289-.20315.62918-.32056.93779a1.583,1.583,0,0,1-.646.86354c-.37207.226-.707.51317-1.05637.77647v2.94765A6.4285,6.4285,0,0,1,18.08433,12.91907Z"/><path class="d" d="M20.36606,12.48752a.94063.94063,0,0,0-.93911-.67226,1.13341,1.13341,0,0,0-.48159.78856,2.24238,2.24238,0,0,0,.10214.823,10.68166,10.68166,0,0,0,.61817,1.38985c.36617.42284.60874.93084.94568,1.37361a1.74683,1.74683,0,0,1,.13615.19689.26026.26026,0,0,0,.42048.10567c.10922-.23644.20228-.48262.33348-.70636.07985-.13608.20227-.31732.38595-.08309-.0293-.1042.019-.21357-.04738-.32013A19.75676,19.75676,0,0,1,20.36606,12.48752Z"/><path class="b" d="M21.16961,25.37413a8.445,8.445,0,0,0,1.56769,1.95644,1.23838,1.23838,0,0,0,.90413.33857l.12405-.05564a.45722.45722,0,0,0,.09719-.27909,10.70408,10.70408,0,0,0-.09867-3.10675A3.15121,3.15121,0,0,0,21.16961,25.37413Z"/><path class="e" d="M19.28821.02893C19.26364.00649,19.21582.00915,19.17885,0q.06165.197.12339.39347a4.96673,4.96673,0,0,1,.59375,6.8139,6.22448,6.22448,0,0,1-1.92811,1.74569l-.06051.10257.12634.00871q.30207-.07128.604-.14287a6.10324,6.10324,0,0,0,1.09386-.62932,4.81122,4.81122,0,0,0,1.725-3.56221A5.66727,5.66727,0,0,0,19.28821.02893Z"/><path class="d" d="M23.22265,14.07381c-.16242.338-.31806.67921-.48911,1.01276a3.63055,3.63055,0,0,1-.59737.98206,1.96009,1.96009,0,0,0-.24345,1.02633.61644.61644,0,0,0,1.11991.07129,1.58021,1.58021,0,0,0,.20913-.397c.16656-.48218.32972-.96539.50136-1.44579.03542-.09918.03432-.22463.15283-.28086-.015-.27983.16914-.51346.18213-.7868C23.663,14.54064,23.45259,14.49474,23.22265,14.07381Z"/><path class="c" d="M23.16273,13.46944a2.14952,2.14952,0,0,1-.06915-.60822q-.23721-.36262-.47442-.72555a.54.54,0,0,0-.04222.11232q-.25713,1.8377-.51124,3.67571l.07047.14493a3.63055,3.63055,0,0,0,.59737-.98206c.171-.33355.32669-.67478.48911-1.01276A1.395,1.395,0,0,1,23.16273,13.46944Z"/><path class="f" d="M23.68,9.9087a3.415,3.415,0,0,0-1.06079,2.227l.47435.72555c.03394-.1284.02538-.3185.17873-.33281.12213-.01137.11386.1805.17172.27732.02479.04132.04988.08265.0749.124l.12958-.116a8.98015,8.98015,0,0,1,.17121-2.84021c.01173-.0518.0563-.12368-.003-.15792C23.79574,9.80347,23.72224,9.87018,23.68,9.9087Z"/><path class="g" d="M23.773,12.79185l-.12457.02185-.12958.116c.01527.0676.02834.13578.04642.20279a.33606.33606,0,0,1-.07018.3613c-.10634.095-.22449.03158-.33237-.02435a1.395,1.395,0,0,0,.05992.60437c.22994.42093.44033.46683.83543.182l.14618-.17578c-.29827-.33207-.26654-.47169.13778-.61367.05623-.01978.1098-.04723.16463-.071l-.09165-.33754C24.21186,12.943,24.037,12.75968,23.773,12.79185Z"/><path class="b" d="M22.0657,15.9237c-.09513-.04458-.11261-.152-.17829-.22035-.18368-.23423-.3061-.053-.38595.08309-.1312.22374-.22426.46992-.33348.70636a3.05935,3.05935,0,0,0,.60549.54239l.11925.05977a1.96009,1.96009,0,0,1,.24345-1.02633Z"/><path class="h" d="M23.42411,24.1059a2.60661,2.60661,0,0,0-1.58762.42018c-.297.18508-.50785.4652-.78584.66917l.119.17888A3.15121,3.15121,0,0,1,23.764,24.22766l-.0104-.11955C23.64372,24.10781,23.53354,24.11313,23.42411,24.1059Z"/><path class="i" d="M24.22788,12.19913a2.08606,2.08606,0,0,0-.45487.59272c.264-.03217.43885.15113.642.266a2.17268,2.17268,0,0,0,.07313-.77307c-.00206-.0797.00325-.18936-.07276-.21489C24.33776,12.04387,24.28433,12.14571,24.22788,12.19913Z"/><path class="i" d="M24.77063,13.27441c-.03363-.02685-.08557.01221-.10492.06177l-.15906.05908c-.05481.02381-.1084.05127-.16461.071-.4043.142-.436.28161-.13776.61377a.80591.80591,0,0,0,.54053-.66467C24.79425,13.375,24.82379,13.31689,24.77063,13.27441Z"/><path class="j" d="M23.72932,27.68065l.03616-.06715-.12405.05564Z"/><path class="a" d="M20.73134,30.44323a.64752.64752,0,0,0-.44055.75595c.00752.05845.01328.14405.05.16545.054.03158.099-.04546.1422-.08206.1684-.14272.33407-.28824.50092-.43288C21.089,30.59643,21.002,30.46271,20.73134,30.44323Z"/><path class="a" d="M23.56734,31.41141A1.70985,1.70985,0,0,1,24.08021,32a.73455.73455,0,0,0-.16707-.93808C23.6894,31.07122,23.51414,31.12834,23.56734,31.41141Z"/><path class="k" d="M19.31943.54224A10.91654,10.91654,0,0,1,19.65,3.23073a3.69867,3.69867,0,0,1-.72356,2.19849.60478.60478,0,0,1-.96376.1222,2.9694,2.9694,0,0,0-.37325.80023c-.03469.08531-.0504.15526.07372.16766.19947.00207.41672-.05313.54851.16884a1.26152,1.26152,0,0,1,.19357,1.24418,3.72332,3.72332,0,0,1-.43731,1.02043A6.21984,6.21984,0,0,0,19.896,7.20737a4.96673,4.96673,0,0,0-.59375-6.8139C19.30777.44306,19.3091.49354,19.31943.54224Z"/><path class="l" d="M17.05969,6.08245a1.60206,1.60206,0,0,1,.06155-.59228l.075-.34905.04472-.1836A3.14069,3.14069,0,0,1,18.01341,3.423c.03528-.04266.07572-.10878.14545-.07631.06531.0307.039.10509.04974.16117a4.59128,4.59128,0,0,1,.00015,1.55234c.11519-.16382.22765-.32971.34683-.49058a.188.188,0,0,0,.0197-.21888,3.57436,3.57436,0,0,1-.25621-1.71425.33345.33345,0,0,0-.24721-.39672A2.409,2.409,0,0,1,16.5877.74739C16.47273.40262,16.31038.2999,16,.3579V6.87382a2.37808,2.37808,0,0,0,.93778-.50239A.3281.3281,0,0,0,17.05969,6.08245Z"/><path class="m" d="M16.43945,7.66475a4.69975,4.69975,0,0,0,1.22366-1.14544c-.12412-.0124-.10841-.08235-.07372-.16766a2.9694,2.9694,0,0,1,.37325-.80023q.12309-.24573.24611-.49118A4.59128,4.59128,0,0,0,18.2086,3.5079c-.01078-.05608.01557-.13047-.04974-.16117-.06973-.03247-.11017.03365-.14545.07631a3.14054,3.14054,0,0,0-.77248,1.53463l.16965-.18714A.14386.14386,0,0,1,17.47,4.62722c.04457-.11453.1163-.25651.23533-.22375.09269.02539.07756.19246.07424.30315a1.0927,1.0927,0,0,1-.19113.65353c-.12036.15806-.26662.248-.46719.13a1.60206,1.60206,0,0,0-.06155.59228.3281.3281,0,0,1-.12191.289A2.37808,2.37808,0,0,1,16,6.87382v.921l.08774.00088A.57473.57473,0,0,0,16.43945,7.66475Z"/><path class="n" d="M16,17.18234v.09431l.028-.00915A.46924.46924,0,0,1,16,17.18234Z"/><path class="f" d="M22.6945,29.47209c-.08007-.03926-.21393-.0549-.17541-.20131a1.79321,1.79321,0,0,1,.71322-1.211,1.3146,1.3146,0,0,0,.497-.37916l-.08789-.01151a1.23838,1.23838,0,0,1-.90413-.33857,8.445,8.445,0,0,1-1.56769-1.95644l-.119-.17888a6.44045,6.44045,0,0,1-1.035-2.35228q-.056-.03054-.1121-.06139a10.3142,10.3142,0,0,0-.32263,2.281,2.96472,2.96472,0,0,0,.3765.58017,12.02959,12.02959,0,0,0,1.693,1.80089.38865.38865,0,0,1,.13084.46962,4.46728,4.46728,0,0,1-.41775.89971,1.70454,1.70454,0,0,0-.30271.77971,1.34565,1.34565,0,0,1-.32942.85056c.27068.01948.35768.1532.2526.40646a3.74416,3.74416,0,0,0,.378-.09977,1.70481,1.70481,0,0,1,1.69728.29739,2.42029,2.42029,0,0,0,.50807.3641c-.0532-.28307.12206-.34019.3458-.34949-.11416-.11246-.22972-.22374-.34189-.33842-.03217-.03291-.0822-.08191-.07527-.11246.01461-.06361.08428-.03085.12833-.02967.37163.01092.743.026,1.11452.0397-.12228-.34314.19976-.37974.36292-.52586-.13888-.0211-.27739-.04457-.41664-.06287A6.30267,6.30267,0,0,1,22.6945,29.47209Z"/><path class="m" d="M18.86884,16.25a3.5659,3.5659,0,0,0,.176-1.15253,5.67948,5.67948,0,0,0-.76813-2.10492c-.04966-.08884-.1039-.11246-.19238-.0735A6.42705,6.42705,0,0,0,16,14.63982v1.97607a16.80484,16.80484,0,0,0,1.72281.1839A1.486,1.486,0,0,0,18.86884,16.25Z"/><path class="k" d="M17.23879,17.72783a7.10761,7.10761,0,0,1,1.81741,2.21664,4.94778,4.94778,0,0,1,.72917,1.73284,1.784,1.784,0,0,1,.12235.61235l.10626.0586a2.884,2.884,0,0,0-.16685-1.80118A14.21478,14.21478,0,0,1,18.86884,16.25a1.486,1.486,0,0,1-1.146.54977A16.80484,16.80484,0,0,1,16,16.61589v.56645a.46924.46924,0,0,0,.028.08516A1.92788,1.92788,0,0,1,17.23879,17.72783Z"/><path class="h" d="M20.77923,21.436a3.02838,3.02838,0,0,0-.75772.97866c-.03889.03837-.07778.077-.11659.11556.04811.084-.005.16752-.00141.25135q.056.031.11217.06139a1.44778,1.44778,0,0,1,.33724-.7254,2.83488,2.83488,0,0,1,2.26638-1.03283l-.00081-.06051A2.62745,2.62745,0,0,0,20.77923,21.436Z"/><path class="h" d="M19.90772,22.28966l-.0028.24057.11652-.11556-.00746-.06641Z"/><path class="g" d="M17.70237,10.052c.11741-.30861.21452-.6249.32056-.93779.00288-.01682.0065-.03335.01078-.04988l-.12634-.00871.06051-.10287a3.72332,3.72332,0,0,0,.43731-1.02043,1.26152,1.26152,0,0,0-.19357-1.24418q-.33981.65043-.67964,1.30085a1.825,1.825,0,0,0-.235.61368c-.02132.17386-.166.24766-.27887.3368A5.2175,5.2175,0,0,1,16,9.70178V11.692c.34942-.2633.6843-.55036,1.05637-.77647A1.583,1.583,0,0,0,17.70237,10.052Z"/><path class="i" d="M23.51886,12.9297c-.025-.04132-.05011-.08265-.0749-.124-.05786-.09682-.04959-.28869-.17172-.27732-.15335.01431-.14479.20441-.17866.33281a2.14952,2.14952,0,0,0,.06915.60822c.10788.05593.226.11939.33237.02435a.33606.33606,0,0,0,.07018-.3613C23.5472,13.06548,23.53413,12.9973,23.51886,12.9297Z"/><path class="o" d="M19.905,22.53l.00274-.24036a1.78286,1.78286,0,0,0-.12237-.61242q.0023.89721,0-.00013a4.94854,4.94854,0,0,0-.72913-1.73266,7.10781,7.10781,0,0,0-1.81744-2.21668,1.92775,1.92775,0,0,0-1.21082-.46032L16,17.27661v9.11768A4.06282,4.06282,0,0,0,17.0174,26.34a3.93282,3.93282,0,0,0,2.22283-1.02015c.13929-.05175.16895-.24841.34064-.25732a10.31874,10.31874,0,0,1,.32263-2.281C19.9,22.69775,19.953,22.61426,19.905,22.53Z"/><path class="o" d="M17.297,8.60268a1.825,1.825,0,0,1,.235-.61368q.3396-.65064.67964-1.30085c-.13179-.222-.349-.16677-.54851-.16884a4.69975,4.69975,0,0,1-1.22366,1.14544.57473.57473,0,0,1-.35171.13091c-.02922.013-.05852-.01387-.08774-.00088v1.907a5.2175,5.2175,0,0,0,1.01814-.7623C17.131,8.85034,17.27569,8.77654,17.297,8.60268Z"/><path class="e" d="M17.46984,4.62722c.111.05047.0828.11571.01963.18478.03955.31628-.021.38417-.29326.32912l-.075.34905c.20057.11793.34683.028.46719-.13a1.0927,1.0927,0,0,0,.19113-.65353c.00332-.11069.01845-.27776-.07424-.30315C17.58629,4.37071,17.51456,4.51269,17.46984,4.62722Z"/><path class="p" d="M17.41058,4.77053q-.08478.09364-.16965.187l-.04472.1836c.2723.05505.33281-.01284.29326-.32912Z"/><path class="q" d="M17.41058,4.77053l.07889.04147c.06317-.06907.09136-.13431-.01948-.18478A.14386.14386,0,0,0,17.41058,4.77053Z"/><path class="i" d="M6.89825,30.09521c.16316.14612.4852.18272.36292.52586a8.02325,8.02325,0,0,1-1.32528.07454v-.06037A1.07532,1.07532,0,0,1,6.89825,30.09521Z"/><path class="d" d="M9.3807,21.08474a2.83488,2.83488,0,0,1,2.26638,1.03283,1.44778,1.44778,0,0,1,.33724.7254,6.43914,6.43914,0,0,1-1.035,2.35228c-.278-.204-.48882-.48409-.78584-.66917a2.60661,2.60661,0,0,0-1.58762-.42018c-.10943.00723-.21961.00191-.32949.00221a8.59053,8.59053,0,0,1,.951-2.8408Z"/><path class="d" d="M11.6183,19.35913c.07077-.01756.168-.01919.18087-.128a9.17806,9.17806,0,0,0,.544-2.60731,12.94622,12.94622,0,0,0-.00885-1.80723,10.68166,10.68166,0,0,0,.61817-1.38985,2.24238,2.24238,0,0,0,.10214-.823,1.13341,1.13341,0,0,0-.48159-.78856,2.01023,2.01023,0,0,1,.24987-.52439,3.21043,3.21043,0,0,1,1.09275,1.62806c-.08848-.03882-.14272-.0152-.19238.07364a5.67948,5.67948,0,0,0-.76813,2.10492,3.5659,3.5659,0,0,0,.176,1.15253,14.21478,14.21478,0,0,1-.97829,4.29706,2.88308,2.88308,0,0,0-.16678,1.801l-.00753.06656a3.02956,3.02956,0,0,0-.75779-.97866,2.62745,2.62745,0,0,0-1.83926-.41178A3.99457,3.99457,0,0,1,11.6183,19.35913Z"/><path class="g" d="M13.91567,12.91907a3.21022,3.21022,0,0,0-1.09275-1.6282,4.47453,4.47453,0,0,0,.26382-.82709c.08818-.51479.1833-1.0284.27555-1.54231q.302.07151.604.14287c.00428.01653.0079.03306.01078.04988.106.31289.20315.62918.32056.93779a1.583,1.583,0,0,0,.646.86354c.37207.226.70695.51317,1.05637.77647v2.94765A6.4285,6.4285,0,0,0,13.91567,12.91907Z"/><path class="g" d="M11.63394,12.48752a.94063.94063,0,0,1,.93911-.67226,1.13341,1.13341,0,0,1,.48159.78856,2.24238,2.24238,0,0,1-.10214.823,10.68166,10.68166,0,0,1-.61817,1.38985c-.36617.42284-.60874.93084-.94568,1.37361a1.74683,1.74683,0,0,0-.13615.19689.26026.26026,0,0,1-.42048.10567c-.10922-.23644-.20228-.48262-.33348-.70636-.07985-.13608-.20227-.31732-.38595-.08309.0293-.1042-.019-.21357.04738-.32013A19.75676,19.75676,0,0,0,11.63394,12.48752Z"/><path class="d" d="M10.83039,25.37413A8.445,8.445,0,0,1,9.2627,27.33057a1.23838,1.23838,0,0,1-.90413.33857l-.12405-.05564a.45722.45722,0,0,1-.09719-.27909A10.70408,10.70408,0,0,1,8.236,24.22766,3.15121,3.15121,0,0,1,10.83039,25.37413Z"/><path class="r" d="M12.71179.02893c.02457-.02244.07239-.01978.10936-.02893q-.06165.197-.12339.39347a4.96673,4.96673,0,0,0-.59375,6.8139,6.22448,6.22448,0,0,0,1.92811,1.74569l.06051.10257-.12634.00871q-.30207-.07128-.604-.14287a6.10324,6.10324,0,0,1-1.09386-.62932,4.81122,4.81122,0,0,1-1.725-3.56221A5.66727,5.66727,0,0,1,12.71179.02893Z"/><path class="g" d="M8.77735,14.07381c.16242.338.31806.67921.48911,1.01276a3.63055,3.63055,0,0,0,.59737.98206,1.96009,1.96009,0,0,1,.24345,1.02633.61644.61644,0,0,1-1.11991.07129,1.58021,1.58021,0,0,1-.20913-.397c-.16656-.48218-.32972-.96539-.50136-1.44579a5.625,5.625,0,0,1-.335-1.06766C8.337,14.54064,8.54741,14.49474,8.77735,14.07381Z"/><path class="o" d="M8.227,12.79185l.12457.02185.12958.116c-.01527.0676-.02834.13578-.04642.20279a.33606.33606,0,0,0,.07018.3613c.10634.095.22449.03158.33237-.02435a1.395,1.395,0,0,1-.05992.60437c-.22994.42093-.44033.46683-.83543.182L7.79574,14.08c.29827-.33207.26654-.47169-.13778-.61367-.05623-.01978-.1098-.04723-.16463-.071l.09165-.33754C7.78814,12.943,7.963,12.75968,8.227,12.79185Z"/><path class="d" d="M9.9343,15.9237c.09513-.04458.11261-.152.17829-.22035.18368-.23423.3061-.053.38595.08309.1312.22374.22426.46992.33348.70636a3.05935,3.05935,0,0,1-.60549.54239l-.11925.05977a1.96009,1.96009,0,0,0-.24345-1.02633Z"/><path class="s" d="M8.57589,24.1059a2.60661,2.60661,0,0,1,1.58762.42018c.297.18508.50785.4652.78584.66917l-.119.17888A3.15121,3.15121,0,0,0,8.236,24.22766l.0104-.11955C8.35628,24.10781,8.46646,24.11313,8.57589,24.1059Z"/><path class="e" d="M7.77212,12.19913a2.08606,2.08606,0,0,1,.45487.59272c-.264-.03217-.43885.15113-.642.266a2.17268,2.17268,0,0,1-.07313-.77307c.00206-.0797-.00325-.18936.07276-.21489C7.66224,12.04387,7.71567,12.14571,7.77212,12.19913Z"/><path class="e" d="M7.658,13.46631c-.05621-.01978-.1098-.04724-.16461-.071l-.15906-.05908c-.01935-.04956-.07129-.08862-.10492-.06177-.05316.04248-.02362.10059.02582.141a.80591.80591,0,0,0,.54053.66467C8.094,13.74792,8.06226,13.60828,7.658,13.46631Z"/><path class="j" d="M8.27068,27.68065l-.03616-.06715.12405.05564Z"/><path class="i" d="M11.26866,30.44323a.64752.64752,0,0,1,.44055.75595c-.00752.05845-.01328.14405-.05.16545-.054.03158-.099-.04546-.1422-.08206-.1684-.14272-.33407-.28824-.50092-.43288C10.911,30.59643,10.998,30.46271,11.26866,30.44323Z"/><path class="i" d="M8.43266,31.41141A1.70985,1.70985,0,0,0,7.91979,32a.73455.73455,0,0,1,.16707-.93808C8.3106,31.07122,8.48586,31.12834,8.43266,31.41141Z"/><path class="m" d="M12.68057.54224A10.91654,10.91654,0,0,0,12.35,3.23073a3.69867,3.69867,0,0,0,.72356,2.19849.60478.60478,0,0,0,.96376.1222,2.9694,2.9694,0,0,1,.37325.80023c.03469.08531.0504.15526-.07372.16766-.19947.00207-.41672-.05313-.54851.16884a1.26152,1.26152,0,0,0-.19357,1.24418,3.72332,3.72332,0,0,0,.43731,1.02043A6.21984,6.21984,0,0,1,12.104,7.20737a4.96673,4.96673,0,0,1,.59375-6.8139C12.69223.44306,12.6909.49354,12.68057.54224Z"/><path class="t" d="M14.94031,6.08245a1.60206,1.60206,0,0,0-.06155-.59228l-.075-.34905-.04472-.1836A3.14069,3.14069,0,0,0,13.98659,3.423c-.03528-.04266-.07572-.10878-.14545-.07631-.06531.0307-.039.10509-.04974.16117a4.59128,4.59128,0,0,0-.00015,1.55234c-.11519-.16382-.22765-.32971-.34683-.49058a.188.188,0,0,1-.0197-.21888,3.57436,3.57436,0,0,0,.25621-1.71425.33345.33345,0,0,1,.24721-.39672A2.409,2.409,0,0,0,15.4123.74739c.115-.34477.27732-.44749.5877-.38949V6.87382a2.37808,2.37808,0,0,1-.93778-.50239A.3281.3281,0,0,1,14.94031,6.08245Z"/><path class="u" d="M15.56055,7.66475a4.69975,4.69975,0,0,1-1.22366-1.14544c.12412-.0124.10841-.08235.07372-.16766a2.9694,2.9694,0,0,0-.37325-.80023q-.12309-.24573-.24611-.49118A4.59128,4.59128,0,0,1,13.7914,3.5079c.01078-.05608-.01557-.13047.04974-.16117.06973-.03247.11017.03365.14545.07631a3.14054,3.14054,0,0,1,.77248,1.53463l-.16965-.18714A.14386.14386,0,0,0,14.53,4.62722c-.04457-.11453-.1163-.25651-.23533-.22375-.09269.02539-.07756.19246-.07424.30315a1.0927,1.0927,0,0,0,.19113.65353c.12036.15806.26662.248.46719.13a1.60206,1.60206,0,0,1,.06155.59228.3281.3281,0,0,0,.12191.289A2.37808,2.37808,0,0,0,16,6.87382v.921l-.08774.00088A.57473.57473,0,0,1,15.56055,7.66475Z"/><path class="n" d="M16,17.18234v.09431l-.028-.00915A.46924.46924,0,0,0,16,17.18234Z"/><path class="k" d="M9.3055,29.47209c.08007-.03926.21393-.0549.17541-.20131a1.79321,1.79321,0,0,0-.71322-1.211,1.3146,1.3146,0,0,1-.497-.37916l.08789-.01151a1.23838,1.23838,0,0,0,.90413-.33857,8.445,8.445,0,0,0,1.56769-1.95644l.119-.17888a6.44045,6.44045,0,0,0,1.035-2.35228q.056-.03054.1121-.06139a10.3142,10.3142,0,0,1,.32263,2.281,2.96472,2.96472,0,0,1-.3765.58017,12.02959,12.02959,0,0,1-1.693,1.80089.38865.38865,0,0,0-.13084.46962,4.46728,4.46728,0,0,0,.41775.89971,1.70454,1.70454,0,0,1,.30271.77971,1.34565,1.34565,0,0,0,.32942.85056c-.27068.01948-.35768.1532-.2526.40646a3.74416,3.74416,0,0,1-.378-.09977,1.70481,1.70481,0,0,0-1.69728.29739,2.42029,2.42029,0,0,1-.50807.3641c.0532-.28307-.12206-.34019-.3458-.34949.11416-.11246.22972-.22374.34189-.33842.03217-.03291.0822-.08191.07527-.11246-.01461-.06361-.08428-.03085-.12833-.02967-.37163.01092-.743.026-1.11452.0397.12228-.34314-.19976-.37974-.36292-.52586.13888-.0211.27739-.04457.41664-.06287A6.30267,6.30267,0,0,0,9.3055,29.47209Z"/><path class="u" d="M13.13116,16.25a3.5659,3.5659,0,0,1-.176-1.15253,5.67948,5.67948,0,0,1,.76813-2.10492c.04966-.08884.1039-.11246.19238-.0735A6.42705,6.42705,0,0,1,16,14.63982v1.97607a16.80484,16.80484,0,0,1-1.72281.1839A1.486,1.486,0,0,1,13.13116,16.25Z"/><path class="m" d="M14.76121,17.72783a7.10761,7.10761,0,0,0-1.81741,2.21664,4.94778,4.94778,0,0,0-.72917,1.73284,1.784,1.784,0,0,0-.12235.61235l-.10626.0586a2.884,2.884,0,0,1,.16685-1.80118A14.21478,14.21478,0,0,0,13.13116,16.25a1.486,1.486,0,0,0,1.146.54977A16.80484,16.80484,0,0,0,16,16.61589v.56645a.46924.46924,0,0,1-.028.08516A1.92788,1.92788,0,0,0,14.76121,17.72783Z"/><path class="s" d="M11.22077,21.436a3.02838,3.02838,0,0,1,.75772.97866c.03889.03837.07778.077.11659.11556-.04811.084.005.16752.00141.25135q-.056.031-.11217.06139a1.44778,1.44778,0,0,0-.33724-.7254A2.83488,2.83488,0,0,0,9.3807,21.08474l.00081-.06051A2.62745,2.62745,0,0,1,11.22077,21.436Z"/><path class="s" d="M12.09228,22.28966l.0028.24057-.11652-.11556.00746-.06641Z"/><path class="o" d="M14.29763,10.052c-.11741-.30861-.21452-.6249-.32056-.93779-.00288-.01682-.0065-.03335-.01078-.04988l.12634-.00871-.06051-.10287a3.72332,3.72332,0,0,1-.43731-1.02043,1.26152,1.26152,0,0,1,.19357-1.24418q.33981.65043.67964,1.30085a1.825,1.825,0,0,1,.235.61368c.02132.17386.166.24766.27887.3368A5.2175,5.2175,0,0,0,16,9.70178V11.692c-.34942-.2633-.6843-.55036-1.05637-.77647A1.583,1.583,0,0,1,14.29763,10.052Z"/><path class="e" d="M8.48114,12.9297c.025-.04132.05011-.08265.0749-.124.05786-.09682.04959-.28869.17172-.27732.15335.01431.14479.20441.17866.33281a2.14952,2.14952,0,0,1-.06915.60822c-.10788.05593-.226.11939-.33237.02435a.33606.33606,0,0,1-.07018-.3613C8.4528,13.06548,8.46587,12.9973,8.48114,12.9297Z"/><path class="l" d="M15.97205,17.26746a1.92775,1.92775,0,0,0-1.21082.46032,7.10781,7.10781,0,0,0-1.81744,2.21668,4.94854,4.94854,0,0,0-.72913,1.73266q-.0023.89741,0,.00013a1.78286,1.78286,0,0,0-.12237.61242L12.095,22.53c-.048.08423.005.16772.00147.25146a10.31874,10.31874,0,0,1,.32263,2.281c.17169.00891.20135.20557.34064.25732A3.93282,3.93282,0,0,0,14.9826,26.34,4.06282,4.06282,0,0,0,16,26.39429V17.27661Z"/><path class="l" d="M14.703,8.60268a1.825,1.825,0,0,0-.235-.61368q-.3396-.65064-.67964-1.30085c.13179-.222.349-.16677.54851-.16884a4.69975,4.69975,0,0,0,1.22366,1.14544.57473.57473,0,0,0,.35171.13091c.02922.013.05852-.01387.08774-.00088v1.907a5.2175,5.2175,0,0,1-1.01814-.7623C14.869,8.85034,14.72431,8.77654,14.703,8.60268Z"/><path class="r" d="M14.53016,4.62722c-.111.05047-.0828.11571-.01963.18478-.03955.31628.021.38417.29326.32912l.075.34905c-.20057.11793-.34683.028-.46719-.13a1.0927,1.0927,0,0,1-.19113-.65353c-.00332-.11069-.01845-.27776.07424-.30315C14.41371,4.37071,14.48544,4.51269,14.53016,4.62722Z"/><path class="p" d="M14.58942,4.77053q.08478.09364.16965.187l.04472.1836c-.2723.05505-.33281-.01284-.29326-.32912Z"/><path class="q" d="M14.58942,4.77053l-.07889.04147c-.06317-.06907-.09136-.13431.01948-.18478A.14386.14386,0,0,1,14.58942,4.77053Z"/></svg>