<svg xmlns="http://www.w3.org/2000/svg" viewBox="0 0 32 32"><title>613-cubchoo</title><path d="M26.92565,4.896l.0651-.00163V4.37454L26.927,4.37273Z" style="fill:#edf5f8"/><path d="M22.98062,32h.51986q0-.03645.00091-.07289-.2607,0-.5215-.00018C22.98044,31.9514,22.98071,31.9757,22.98062,32Z" style="fill:#f4f4f4"/><path d="M18.94293,29.93433a.50211.50211,0,0,1,.47689.05349c.63782.39765,1.27971.79076,1.93893,1.15088a6.155,6.155,0,0,0,1.62114.78823q.26072,0,.5215.00018a1.637,1.637,0,0,0,.785-.30318A5.34182,5.34182,0,0,0,26.365,28.69551a1.48605,1.48605,0,0,0-.56755-1.792c-.63374-.46765-1.25705-.95106-1.864-1.453-.29493-.24389-.71062-.40073-.77988-.84752a15.062,15.062,0,0,0-.62105-2.39315c-.01768-.05367-.08323-.11968-.0252-.16465.02856-.02212.11342.01.163.03609a4.61294,4.61294,0,0,0,1.47346.466,1.4018,1.4018,0,0,0,1.76521-1.1264,3.21715,3.21715,0,0,0-.30163-1.75434A10.3084,10.3084,0,0,0,22.18578,15.955c-.121,1.10229-.81443,1.59078-1.85189,1.19367a1.02566,1.02566,0,0,0-1.33112.276,1.86374,1.86374,0,0,1-2.57828-.04243c-.121-.10408-.40046-.386-.42449-.38278v4.51938c.004.27054.00816.54054,0,.8118v8.07955a.5331.5331,0,0,0,.27109.03336A11.38668,11.38668,0,0,0,18.94293,29.93433Zm4.58965.2923a4.6399,4.6399,0,0,1,1.731-1.69142,1.15014,1.15014,0,0,1,.38314-.13019.35309.35309,0,0,1,.43609.46,1.08119,1.08119,0,0,1-.10263.27688,5.706,5.706,0,0,1-1.98942,2.15742c-.379.24443-.65386.07652-.66293-.454A1.25557,1.25557,0,0,1,23.53258,30.22663Z" style="fill:#e3e5e5"/><path d="M18.84357,8.81886A9.07539,9.07539,0,0,0,21.27869,11.934a3.118,3.118,0,0,1,1.18923,2.25642,5.92832,5.92832,0,0,0,1.92007-2.35,6.12417,6.12417,0,0,0,.5282-3.02779.62.62,0,0,1,.212-.5554,4.28386,4.28386,0,0,0,.44425-.49484A5.45118,5.45118,0,0,0,26.92565,4.896l.00136-.52331c-.20372-1.83593-1.38579-2.68726-3.29516-2.88345A3.57913,3.57913,0,0,0,20.766,2.64215c-.19121.1806-.29067.17879-.466-.0116A11.34037,11.34037,0,0,0,18.42.90124a3.89846,3.89846,0,0,0-2.4179-.89775Q16.00113,2.26917,16,4.53484V6.97477h.00046A2.67308,2.67308,0,0,1,18.84357,8.81886Zm1.6303-1.76032a.95177.95177,0,0,1,1.51272-.01414A2.2458,2.2458,0,0,1,21.998,9.78605a.95777.95777,0,0,1-1.53783-.01487,2.21,2.21,0,0,1-.44833-1.4856A1.972,1.972,0,0,1,20.47387,7.05854Z" style="fill:#c1ddee"/><path d="M18.01291,16.25723a11.64089,11.64089,0,0,0,3.11365-1.18769,5.10072,5.10072,0,0,0,1.34136-.87907A3.118,3.118,0,0,0,21.27869,11.934a9.07539,9.07539,0,0,1-2.43512-3.11519,2.67308,2.67308,0,0,0-2.84311-1.84409L16,6.98565v3.11446a8.74336,8.74336,0,0,1,.92241.00326c.30735.02865.637.10227.75151.44353a.9641.9641,0,0,1-.17607.97463,1.75571,1.75571,0,0,1-1.043.58006c-.11946-.10738-.29991-.02937-.45486-.03191V15.4021c.0049.052.00145.10462.00726.15666A.69552.69552,0,0,1,16,15.683v.944l.00027.00018C16.67209,16.50928,17.35061,16.42949,18.01291,16.25723Z" style="fill:#8ec0e0"/><path d="M16.42449,17.38218a1.86374,1.86374,0,0,0,2.57828.04243,1.02566,1.02566,0,0,1,1.33112-.276c1.03746.39711,1.73094-.09138,1.85179-1.19367-.28558-.20725-.57226-.41324-.85595-.623-.091-.06727-.24143-.09338-.20317-.26238a11.64089,11.64089,0,0,1-3.11365,1.18769c-.6623.17226-1.34082.25205-2.01264.36991H16v.37226c.027.01813.03255.04715.07027.05984C16.18822,17.16713,16.30345,17.2781,16.42449,17.38218Z" style="fill:#c1ddee"/><path d="M25.64675,28.405a1.15014,1.15014,0,0,0-.38314.13019,4.6399,4.6399,0,0,0-1.731,1.69142,1.25557,1.25557,0,0,0-.20472.61868c.00907.53056.284.69847.66293.454a5.706,5.706,0,0,0,1.98942-2.15742,1.08119,1.08119,0,0,0,.10263-.27688A.35309.35309,0,0,0,25.64675,28.405Z" style="fill:#373f3f"/><path d="M20.47387,7.05854a1.972,1.972,0,0,0-.462,1.227,2.21,2.21,0,0,0,.44833,1.4856.95777.95777,0,0,0,1.53783.01487,2.2458,2.2458,0,0,0-.01142-2.74165A.95177.95177,0,0,0,20.47387,7.05854Zm1.13628,1.47273a.50715.50715,0,0,1-.483-.54216.482.482,0,1,1,.483.54216Z" style="fill:#211915"/><path d="M17.49785,11.52153a.9641.9641,0,0,0,.17607-.97463c-.11451-.34126-.44416-.41488-.75151-.44353A8.74336,8.74336,0,0,0,16,10.10011v1.96957c.06746.04152.19484.021.45486.03191A1.75571,1.75571,0,0,0,17.49785,11.52153Z" style="fill:#394848"/><path d="M21.62176,7.49626a.501.501,0,0,0-.49457.49285.48063.48063,0,1,0,.49457-.49285Z" style="fill:#fff"/><path d="M5.07435,4.896l-.0651-.00163V4.37454L5.073,4.37273Z" style="fill:#edf5f8"/><path d="M9.01938,32H8.49951q0-.03645-.0009-.07289.2607,0,.52149-.00018C9.01956,31.9514,9.01929,31.9757,9.01938,32Z" style="fill:#f4f4f4"/><path d="M15.72891,30.44349A.533.533,0,0,0,16,30.41013V22.33058c-.00816-.27126-.004-.54126,0-.8118V16.9994c-.024-.00326-.30345.2787-.42448.38278a1.86374,1.86374,0,0,1-2.57828.04243,1.02566,1.02566,0,0,0-1.33112-.276c-1.03746.39711-1.73094-.09138-1.85189-1.19367a10.3084,10.3084,0,0,0-3.42163,3.71157A3.21724,3.21724,0,0,0,6.091,21.42087a1.40181,1.40181,0,0,0,1.76522,1.1264,4.61294,4.61294,0,0,0,1.47346-.466c.04959-.02611.13445-.05821.163-.03609.058.045-.00753.111-.02521.16465a15.06307,15.06307,0,0,0-.621,2.39315c-.06927.44679-.485.60363-.77988.84752-.6069.50191-1.23021.98532-1.86395,1.453a1.48605,1.48605,0,0,0-.56755,1.792,5.34186,5.34186,0,0,0,2.07854,2.92842,1.63709,1.63709,0,0,0,.78506.30318q.2607,0,.52149-.00018a6.1549,6.1549,0,0,0,1.62115-.78823c.65921-.36012,1.30111-.75323,1.93893-1.15088a.50209.50209,0,0,1,.47688-.05349A11.38686,11.38686,0,0,0,15.72891,30.44349Zm-7.05677.40182c-.00907.53056-.284.69847-.66293.454a5.70615,5.70615,0,0,1-1.98943-2.15742,1.08193,1.08193,0,0,1-.10263-.27688.35309.35309,0,0,1,.43609-.46,1.15019,1.15019,0,0,1,.38315.13019,4.64,4.64,0,0,1,1.731,1.69142A1.25557,1.25557,0,0,1,8.67214,30.84531Z" style="fill:#edeeee"/><path d="M15.99954,6.97477H16V4.53484q-.00108-2.26567-.00208-4.53135A3.89844,3.89844,0,0,0,13.58.90124,11.34,11.34,0,0,0,11.7,2.63055c-.17535.19039-.2748.1922-.466.0116A3.57914,3.57914,0,0,0,8.36814,1.48928C6.45877,1.68547,5.27671,2.5368,5.073,4.37273l.00136.52331A5.45111,5.45111,0,0,0,6.42759,7.76245a4.28386,4.28386,0,0,0,.44425.49484.62.62,0,0,1,.212.5554,6.12417,6.12417,0,0,0,.5282,3.02779,5.92832,5.92832,0,0,0,1.92007,2.35A3.11792,3.11792,0,0,1,10.72131,11.934a9.07563,9.07563,0,0,0,2.43512-3.11519A2.67307,2.67307,0,0,1,15.99954,6.97477ZM11.98815,8.28558a2.21,2.21,0,0,1-.44833,1.4856.95777.95777,0,0,1-1.53783.01487,2.24578,2.24578,0,0,1,.01142-2.74165.95177.95177,0,0,1,1.51272.01414A1.97209,1.97209,0,0,1,11.98815,8.28558Z" style="fill:#d2e6f3"/><path d="M13.98709,16.25723a11.64076,11.64076,0,0,1-3.11365-1.18769,5.10056,5.10056,0,0,1-1.34136-.87907A3.11792,3.11792,0,0,1,10.72131,11.934a9.07563,9.07563,0,0,0,2.43512-3.11519,2.67307,2.67307,0,0,1,2.84311-1.84409L16,6.98565v3.11446a8.74318,8.74318,0,0,0-.9224.00326c-.30735.02865-.637.10227-.75151.44353a.9641.9641,0,0,0,.17607.97463,1.75571,1.75571,0,0,0,1.043.58006c.11946-.10738.29991-.02937.45485-.03191V15.4021c-.00489.052-.00145.10462-.00725.15666A.69646.69646,0,0,0,16,15.683v.944l-.00027.00018C15.32791,16.50928,14.64938,16.42949,13.98709,16.25723Z" style="fill:#9fc9e4"/><path d="M15.57551,17.38218a1.86374,1.86374,0,0,1-2.57828.04243,1.02566,1.02566,0,0,0-1.33112-.276c-1.03746.39711-1.73094-.09138-1.8518-1.19367.28559-.20725.57227-.41324.856-.623.091-.06727.24144-.09338.20318-.26238a11.64076,11.64076,0,0,0,3.11365,1.18769c.66229.17226,1.34082.25205,2.01263.36991H16v.37226c-.027.01813-.03254.04715-.07026.05984C15.81178,17.16713,15.69654,17.2781,15.57551,17.38218Z" style="fill:#d2e6f3"/><path d="M6.35324,28.405a1.15019,1.15019,0,0,1,.38315.13019,4.64,4.64,0,0,1,1.731,1.69142,1.25557,1.25557,0,0,1,.20472.61868c-.00907.53056-.284.69847-.66293.454a5.70615,5.70615,0,0,1-1.98943-2.15742,1.08193,1.08193,0,0,1-.10263-.27688A.35309.35309,0,0,1,6.35324,28.405Z" style="fill:#434c4b"/><path d="M10.01341,7.0444A2.24578,2.24578,0,0,0,10.002,9.78605a.95777.95777,0,0,0,1.53783-.01487,2.21,2.21,0,0,0,.44833-1.4856,1.97209,1.97209,0,0,0-.462-1.227A.95177.95177,0,0,0,10.01341,7.0444Zm-.09982.97481a.482.482,0,1,1,.47625.51206A.50572.50572,0,0,1,9.91359,8.01921Z" style="fill:#211915"/><path d="M14.50215,11.52153a.9641.9641,0,0,1-.17607-.97463c.11451-.34126.44416-.41488.75151-.44353A8.74318,8.74318,0,0,1,16,10.10011v1.96957c-.06745.04152-.19483.021-.45485.03191A1.75571,1.75571,0,0,1,14.50215,11.52153Z" style="fill:#394848"/><path d="M10.37824,7.49626a.501.501,0,0,1,.49457.49285.48063.48063,0,1,1-.49457-.49285Z" style="fill:#fff"/></svg>