<svg xmlns="http://www.w3.org/2000/svg" viewBox="0 0 32 32"><title>615-cryogonal-shiny</title><path d="M30.83212,19.63706c-.03369-.25081-.09-.36192-.39173-.26986-.845.25787-1.70221.47622-2.55455.7101q-1.15906.32435-2.31812.64836-1.40933.399-2.81867.79863.40266,1.26462.80525,2.52889.35835,1.11911.71679,2.23786c.28626.877.58063,1.75142.85331,2.6326.0702.22682.14366.23776.34226.13793.8997-.45223,1.80274-.89847,2.716-1.32248.25495-.11817.249-.23246.15565-.45857-.40222-.97431-.78514-1.95637-1.1751-2.93562-.44738-.90587-.39191-.99194.65091-1.01028q1.73172-.29049,3.46351-.58063v-.217a1.24673,1.24673,0,0,1-.06367-.2C31.084,21.43751,30.953,20.538,30.83212,19.63706Z" style="fill:#377aa0"/><path d="M17.9091,6.13155c.61441-.61484,1.16814-1.2886,1.81677-1.87029.60673-.62967,1.20782-1.265,1.82391-1.88511.15688-.15769.177-.2494-.01508-.3838a7.8248,7.8248,0,0,1-.61715-.49456C20.33207.99088,19.67877.56441,19.14224,0h-.14446A6.537,6.537,0,0,1,17.9673.91857c-.55646.48645-1.12757.956-1.69674,1.42759A.57777.57777,0,0,1,16,2.50666v5.491q.15834-.09578.3166-.1919A14.21076,14.21076,0,0,1,17.9091,6.13155Z" style="fill:#377aa0"/><path d="M21.39942,30.559a.71558.71558,0,0,0-.30937,1.3708.1349.1349,0,0,1,.147.0702H21.526a.13478.13478,0,0,1,.14692-.0702.71776.71776,0,0,0,.40628-.82826A.69958.69958,0,0,0,21.39942,30.559Z" style="fill:#e2b060"/><path d="M21.09252,32h.14454a.1349.1349,0,0,0-.147-.0702A.31671.31671,0,0,1,21.09252,32Z" style="fill:#abd6e3"/><path d="M21.67042,32a.32162.32162,0,0,1,.00247-.0702A.13478.13478,0,0,0,21.526,32Z" style="fill:#abd6e3"/><path d="M18.86224,27.07592q.39433-.24975.78858-.49915a.73738.73738,0,0,1,.19234-.91186.706.706,0,0,1,.83964-.05539c.14551.079.1635.22682.26694.3196.01191-.375.36131-.36369.57781-.50444a15.15471,15.15471,0,0,1,1.36489-.89776,2.80027,2.80027,0,0,0,.66186-.47374q-.40268-1.2641-.80525-2.52889l-.06367.00282q-1.66372,1.19425-3.32726,2.38885c.05547.2247.20892.42753.12285.68293a.7247.7247,0,0,1-.572.52525.75864.75864,0,0,1-.76733-.34006Q17.071,25.554,16,26.3242v2.41107a3.01512,3.01512,0,0,0,1.08992-.57816C17.6918,27.81635,18.27252,27.4382,18.86224,27.07592Z" style="fill:#b0d3ea"/><path d="M19.72613,28.88978c.18088-.11077.183-.1979.07223-.36263-.32083-.478-.62526-.9669-.93612-1.45123-.58972.36228-1.17044.74043-1.77232,1.08119A3.01512,3.01512,0,0,1,16,28.73527v2.38a.42046.42046,0,0,0,.26739-.0822C17.41851,30.3156,18.56928,29.59775,19.72613,28.88978Z" style="fill:#4390bf"/><path d="M22.89244,24.52692a15.15471,15.15471,0,0,0-1.36489.89776c.47172.47728.94723.951,1.41252,1.4343a.23572.23572,0,0,0,.362.0388,5.70747,5.70747,0,0,1,.969-.60674q-.35835-1.11911-.71679-2.23786A2.80027,2.80027,0,0,1,22.89244,24.52692Z" style="fill:#4390bf"/><path d="M21.53267,27.81035a.90355.90355,0,1,0,.8601.93656A.8411.8411,0,0,0,21.53267,27.81035Z" style="fill:#e2b060"/><path d="M20.6828,25.60952a.706.706,0,0,0-.83964.05539.73738.73738,0,0,0-.19234.91186c.33141.3771.64254.4614.99617.26986a.70383.70383,0,0,0,.30275-.91751C20.8463,25.83634,20.82831,25.68854,20.6828,25.60952Z" style="fill:#e2b060"/><path d="M27.16323,24.3449c.36245-.2434.80833-.43247.65091-1.01028C26.77132,23.353,26.71585,23.439,27.16323,24.3449Z" style="fill:#4390bf"/><path d="M30.9316,10.83093c-.82677-.2053-1.64886-.4293-2.47262-.64624-.19684-.04833-.39191-.10653-.59095-.14216-.23829-.043-.27912-.14146-.12894-.33124.08052-.10194.14728-.21482.22021-.32241.3584-.76089.81777-1.46534,1.22582-2.19836.094-.16862.15027-.26033-.09939-.35593-1.12087-.42859-2.23337-.87871-3.34622-1.32811-.18228-.07338-.26377-.05468-.32682.1538-.17373.57357-.37586,1.13868-.56679,1.70732q-.49659,1.44823-.99309,2.89611c-.213.64906-.41907,1.301-.64289,1.94613-.07461.21518-.05221.3069.1934.36687.80137.19578,1.59568.42013,2.39263.63389.72906.17779,1.46023.34782,2.18531.54113.135.036.29226-.00917.407.1023q.94158.24127,1.88317.48256c.438.11288.43442.11359.49456-.32065.13017-.93938.25354-1.88053.40364-2.81709C31.207,10.96568,31.15322,10.886,30.9316,10.83093Z" style="fill:#377aa0"/><path d="M25.72249,15.63755c.03978-.80887.07249-1.617.07338-2.42695-.79687-.21376-1.59118-.43811-2.39255-.63389-.24561-.06-.268-.15169-.1934-.36687.22382-.64518.42992-1.29707.64289-1.94613-.02319-.17991-.16826-.24834-.29851-.33583Q20.7306,8.03149,17.9091,6.13155a14.21076,14.21076,0,0,0-1.5925,1.67417c1.99693,1.39338,3.97,2.82344,6.00482,4.159a1.45615,1.45615,0,0,1,.707,1.56376c-.08431,1.02615-.083,2.05972-.11808,3.08976.01781-.35381.23837-.3838.53115-.36616.92669.05538,1.85469.091,2.78217.134C25.71491,16.23828,25.693,16.23723,25.72249,15.63755Z" style="fill:#b0d3ea"/><path d="M19.72587,4.26126c-.64863.58169-1.20236,1.25545-1.81677,1.87029q2.82225,1.89852,5.6452,3.79633c.13025.08749.27532.15592.29851.33583Q24.3494,8.816,24.8459,7.3676A.27441.27441,0,0,1,24.64175,7.32Q22.1842,5.79027,19.72587,4.26126Z" style="fill:#4390bf"/><path d="M16.22541,9.83194a33.68543,33.68543,0,0,0,3.40142,2.21846c.70357.45787,1.42495.88823,2.14148,1.326a.38927.38927,0,0,1,.18854.43106c-.10776.68858-.01411,1.38985-.13642,2.07666l.00247.00353.06578.06667q.50175.4,1.00359.8004l.01808-.13652c.03509-1.03.03377-2.06361.11808-3.08976a1.45615,1.45615,0,0,0-.707-1.56376c-2.03485-1.33552-4.00789-2.76558-6.00482-4.159q-.15836.0963-.3166.1919V9.81006A.18938.18938,0,0,1,16.22541,9.83194Z" style="fill:#4390bf"/><path d="M18.31115,23.87186a.7949.7949,0,0,1,1.047.0441q1.66359-1.19478,3.32726-2.38885a9.32753,9.32753,0,0,0,.1217-1.52812,6.878,6.878,0,0,0,.02945-.71715l.00326-.49915a6.285,6.285,0,0,0-1.09662-.94679c-.04824.96937-.1008,1.93838-.1411,2.9081a.48825.48825,0,0,1-.232.38309q-2.51562,1.94615-5.03352,3.88946c-.09428.073-.19984.13122-.30011.19613-.03642-.00212-.025-.04939-.03642-.00212V26.3242q1.07082-.76988,2.14165-1.54012A.74349.74349,0,0,1,18.31115,23.87186Z" style="fill:#4390bf"/><path d="M21.88868,15.95432l-.06587-.06667-.00238-.00353c-.36272-.27374-.72632-.54606-1.08745-.82191-.06764-.05186-.12841-.10971-.22259-.09489a23.93282,23.93282,0,0,1-2.0905,1.64806,2.31177,2.31177,0,0,0-.06923.92033c-.01482.27021-.00379.54183-.00423.8131l2.10223-1.51755c.0537-.02328.11-.05538.16182-.00211.35346.36263.79811.623,1.13269,1.00675a6.285,6.285,0,0,1,1.09662.94679,4.512,4.512,0,0,0,.05248-2.028Q22.39052,16.35416,21.88868,15.95432Z" style="fill:#e2b060"/><path d="M25.79587,13.2106c-.00089.80993-.0336,1.61808-.07338,2.42695-.02954.59968-.00758.60073.50118.74854.52675.02575,1.05411.04233,1.5798.08184.24067.018.3-.06914.30875-.29984.02584-.68187.07963-1.363.12311-2.04456.00723-.11359-.02751-.25328.15292-.2695-.11473-.11147-.272-.06632-.407-.1023C27.25618,13.55842,26.525,13.38839,25.79587,13.2106Z" style="fill:#4390bf"/><path d="M22.80708,19.999a9.32753,9.32753,0,0,1-.1217,1.52812l.06367-.00282q1.40934-.399,2.81867-.79863a6.50649,6.50649,0,0,1,.0829-1.42618q-1.40709-.009-2.81409-.01764A6.878,6.878,0,0,1,22.80708,19.999Z" style="fill:#b0d3ea"/><path d="M27.65073,19.35274c-.66688-.00811-1.33341-.03421-2.00011-.05326a6.50649,6.50649,0,0,0-.0829,1.42618q1.15906-.32436,2.31812-.64836c-.00168-.15486-.012-.31007-.00273-.46458C27.89342,19.43952,27.84951,19.35486,27.65073,19.35274Z" style="fill:#4390bf"/><path d="M27.9593,9.38888c-.07293.10759-.13969.22047-.22021.32241-.15018.18978-.10935.2882.12894.33124.199.03563.39411.09383.59095.14216A.6358.6358,0,0,0,27.9593,9.38888Z" style="fill:#4390bf"/><path d="M18.31115,23.87186a.74349.74349,0,0,0-.1695.91222.75864.75864,0,0,0,.76733.34006.7247.7247,0,0,0,.572-.52525c.08607-.2554-.06738-.45823-.12285-.68293A.7949.7949,0,0,0,18.31115,23.87186Z" style="fill:#e2b060"/><path d="M19.69967,14.43289c.26757.182.54033.35628.81072.53443.09418-.01482.15495.043.22259.09489.36113.27585.72473.54817,1.08745.82191.12231-.68681.02866-1.38808.13642-2.07666a.38927.38927,0,0,0-.18854-.43106c-.71653-.43777-1.43791-.86813-2.14148-1.326a33.68543,33.68543,0,0,1-3.40142-2.21846A.18938.18938,0,0,0,16,9.81006v2.03856a.35925.35925,0,0,0,.10812.13581Q17.90359,13.20885,19.69967,14.43289Z" style="fill:#8ec0e0"/><path d="M21.88865,15.95449l-.0658-.0669Z" style="fill:#4d5baf"/><path d="M16.33653,25.01655q2.51826-1.943,5.03352-3.88946a.48825.48825,0,0,0,.232-.38309c.0403-.96972.09286-1.93873.1411-2.9081-.33458-.38379-.77923-.64412-1.13269-1.00675-.05185-.05327-.10812-.02117-.16182.00211-.07311,1.16232-.14825,2.32429-.21659,3.487a.36817.36817,0,0,1-.15539.30654c-.69775.48927-1.35034,1.04133-2.07375,1.495-.06878.80286-.38811,1.047-1.10394.84449l-.899.6286v1.61773l.03642.00212C16.13669,25.14777,16.24225,25.08957,16.33653,25.01655Z" style="fill:#8ec0e0"/><path d="M17.88564,19.7898a.63763.63763,0,0,0,.39085-.72914c-.04277-.243.08034-.47128.06994-.71185.00044-.27127-.01059-.54289.00423-.8131a2.31177,2.31177,0,0,1,.06923-.92033c.09092-.44729-.12647-.68258-.5122-.88471-.65207-.34146-1.27388-.74043-1.90769-1.11717v6.45962a12.47476,12.47476,0,0,0,1.595-1.07343C17.69489,19.93443,17.781,19.84519,17.88564,19.7898Z" style="fill:#c1ddee"/><path d="M16.56114,22.16066a.694.694,0,0,1,.55435-.54571c.43424-.09383.67932.181.88735.50443.7235-.45328,1.37609-1.00534,2.07384-1.49461a.36817.36817,0,0,0,.15539-.30654c.06834-1.16268.14348-2.32465.21659-3.487l-2.10223,1.51755c.0104.24057-.11271.46881-.06994.71185a.63763.63763,0,0,1-.39085.72914c-.10468.05539-.19075.14463-.29067.20989A12.47476,12.47476,0,0,1,16,21.07312v2.51971q.44962-.3143.899-.6286A.76537.76537,0,0,1,16.56114,22.16066Z" style="fill:#b0d3ea"/><path d="M18.41989,16.61538a23.93282,23.93282,0,0,0,2.0905-1.64806c-.27039-.17815-.54315-.35241-.81072-.53443q-1.797-1.22229-3.59155-2.44846A.36662.36662,0,0,1,16,11.84862V14.6135c.63381.37639,1.25562.77571,1.90769,1.11717C18.29342,15.9328,18.51081,16.16809,18.41989,16.61538Z" style="fill:#b0d3ea"/><path d="M17.11549,21.615a.694.694,0,0,0-.55435.54571.76537.76537,0,0,0,.33785.80357c.71583.20248,1.03516-.04163,1.10385-.84485C17.79481,21.79591,17.54973,21.52112,17.11549,21.615Z" style="fill:#e2b060"/><path d="M1.16788,19.63706c.03369-.25081.09-.36192.39173-.26986.845.25787,1.70221.47622,2.55455.7101q1.15907.32435,2.31812.64836,1.40932.399,2.81867.79863-.40266,1.26462-.80525,2.52889-.35835,1.11911-.71679,2.23786c-.28626.877-.58063,1.75142-.85331,2.6326-.0702.22682-.14366.23776-.34226.13793-.8997-.45223-1.80274-.89847-2.716-1.32248-.25495-.11817-.249-.23246-.15565-.45857.40222-.97431.78514-1.95637,1.1751-2.93562.44738-.90587.39191-.99194-.65091-1.01028Q2.45414,23.04413.72235,22.754v-.217a1.24673,1.24673,0,0,0,.06367-.2C.916,21.43751,1.047,20.538,1.16788,19.63706Z" style="fill:#3980a8"/><path d="M14.0909,6.13155c-.61441-.61484-1.16814-1.2886-1.81677-1.87029-.60673-.62967-1.20782-1.265-1.82391-1.88511-.15688-.15769-.177-.2494.01508-.3838a7.8248,7.8248,0,0,0,.61715-.49456C11.66793.99088,12.32123.56441,12.85776,0h.14446A6.537,6.537,0,0,0,14.0327.91857c.55646.48645,1.12757.956,1.69674,1.42759A.57777.57777,0,0,0,16,2.50666v5.491q-.15834-.09578-.3166-.1919A14.21076,14.21076,0,0,0,14.0909,6.13155Z" style="fill:#3980a8"/><path d="M10.60058,30.559A.71558.71558,0,0,1,10.91,31.9298a.1349.1349,0,0,0-.147.0702H10.474a.13478.13478,0,0,0-.14692-.0702.71776.71776,0,0,1-.40628-.82826A.69958.69958,0,0,1,10.60058,30.559Z" style="fill:#e8ba67"/><path d="M10.90748,32h-.14454a.1349.1349,0,0,1,.147-.0702A.31671.31671,0,0,0,10.90748,32Z" style="fill:#abd6e3"/><path d="M10.32958,32a.32162.32162,0,0,0-.00247-.0702A.13478.13478,0,0,1,10.474,32Z" style="fill:#abd6e3"/><path d="M13.13776,27.07592q-.39434-.24975-.78858-.49915a.73738.73738,0,0,0-.19234-.91186.706.706,0,0,0-.83964-.05539c-.14551.079-.1635.22682-.26694.3196-.01191-.375-.36131-.36369-.57781-.50444a15.15471,15.15471,0,0,0-1.36489-.89776,2.80027,2.80027,0,0,1-.66186-.47374q.40268-1.2641.80525-2.52889l.06367.00282q1.66372,1.19425,3.32726,2.38885c-.05547.2247-.20892.42753-.12285.68293a.7247.7247,0,0,0,.572.52525.75864.75864,0,0,0,.76733-.34006Q14.929,25.554,16,26.3242v2.41107a3.01512,3.01512,0,0,1-1.08992-.57816C14.3082,27.81635,13.72748,27.4382,13.13776,27.07592Z" style="fill:#c1ddee"/><path d="M12.27387,28.88978c-.18088-.11077-.183-.1979-.07223-.36263.32083-.478.62526-.9669.93612-1.45123.58972.36228,1.17044.74043,1.77232,1.08119A3.01512,3.01512,0,0,0,16,28.73527v2.38a.42046.42046,0,0,1-.26739-.0822C14.58149,30.3156,13.43072,29.59775,12.27387,28.88978Z" style="fill:#4896c8"/><path d="M9.10756,24.52692a15.15471,15.15471,0,0,1,1.36489.89776c-.47172.47728-.94723.951-1.41252,1.4343a.23572.23572,0,0,1-.362.0388,5.70747,5.70747,0,0,0-.969-.60674q.35835-1.11911.71679-2.23786A2.80027,2.80027,0,0,0,9.10756,24.52692Z" style="fill:#4896c8"/><path d="M10.46733,27.81035a.90354.90354,0,1,1,.06755,1.80574.90355.90355,0,0,1-.06755-1.80574Z" style="fill:#e8ba67"/><path d="M11.3172,25.60952a.706.706,0,0,1,.83964.05539.73738.73738,0,0,1,.19234.91186c-.33141.3771-.64254.4614-.99617.26986a.70383.70383,0,0,1-.30275-.91751C11.1537,25.83634,11.17169,25.68854,11.3172,25.60952Z" style="fill:#e8ba67"/><path d="M4.83677,24.3449c-.36245-.2434-.80833-.43247-.65091-1.01028C5.22868,23.353,5.28415,23.439,4.83677,24.3449Z" style="fill:#4896c8"/><path d="M1.0684,10.83093c.82677-.2053,1.64886-.4293,2.47262-.64624.19684-.04833.39191-.10653.59095-.14216.23829-.043.27912-.14146.12894-.33124-.08052-.10194-.14728-.21482-.22021-.32241C3.6823,8.628,3.22293,7.92354,2.81488,7.19052c-.094-.16862-.15027-.26033.09939-.35593C4.03514,6.406,5.14764,5.95588,6.26049,5.50648c.18228-.07338.26377-.05468.32682.1538.17373.57357.37586,1.13868.56679,1.70732q.49659,1.44823.99309,2.89611c.213.64906.41907,1.301.64289,1.94613.07461.21518.05221.3069-.1934.36687-.80137.19578-1.59568.42013-2.39263.63389-.72906.17779-1.46023.34782-2.18531.54113-.135.036-.29226-.00917-.407.1023q-.94158.24127-1.88317.48256c-.438.11288-.43442.11359-.49456-.32065-.13017-.93938-.25354-1.88053-.40364-2.81709C.793,10.96568.84678,10.886,1.0684,10.83093Z" style="fill:#3980a8"/><path d="M6.27751,15.63755c-.03978-.80887-.07249-1.617-.07338-2.42695.79687-.21376,1.59118-.43811,2.39255-.63389.24561-.06.268-.15169.1934-.36687-.22382-.64518-.42992-1.29707-.64289-1.94613.02319-.17991.16826-.24834.29851-.33583q2.8237-1.89639,5.6452-3.79633a14.21076,14.21076,0,0,1,1.5925,1.67417c-1.99693,1.39338-3.97,2.82344-6.00482,4.159a1.45615,1.45615,0,0,0-.707,1.56376c.08431,1.02615.083,2.05972.11808,3.08976-.01781-.35381-.23837-.3838-.53115-.36616-.92669.05538-1.85469.091-2.78217.134C6.28509,16.23828,6.30705,16.23723,6.27751,15.63755Z" style="fill:#c1ddee"/><path d="M12.27413,4.26126c.64863.58169,1.20236,1.25545,1.81677,1.87029Q11.26865,8.03007,8.4457,9.92788c-.13025.08749-.27532.15592-.29851.33583Q7.6506,8.816,7.1541,7.3676A.27441.27441,0,0,0,7.35825,7.32Q9.81581,5.79027,12.27413,4.26126Z" style="fill:#4896c8"/><path d="M15.77459,9.83194a33.68543,33.68543,0,0,1-3.40142,2.21846c-.70357.45787-1.425.88823-2.14148,1.326a.38927.38927,0,0,0-.18854.43106c.10776.68858.01411,1.38985.13642,2.07666l-.00247.00353-.06578.06667q-.50175.4-1.00359.8004l-.01808-.13652c-.03509-1.03-.03377-2.06361-.11808-3.08976a1.45615,1.45615,0,0,1,.707-1.56376c2.03485-1.33552,4.00789-2.76558,6.00482-4.159q.15836.0963.3166.1919V9.81006A.18938.18938,0,0,0,15.77459,9.83194Z" style="fill:#4896c8"/><path d="M13.68885,23.87186a.7949.7949,0,0,0-1.047.0441q-1.66359-1.19478-3.32726-2.38885a9.32753,9.32753,0,0,1-.1217-1.52812,6.878,6.878,0,0,1-.02945-.71715l-.00326-.49915a6.285,6.285,0,0,1,1.09662-.94679c.04824.96937.1008,1.93838.1411,2.9081a.48825.48825,0,0,0,.232.38309q2.51562,1.94615,5.03352,3.88946c.09428.073.19984.13122.30011.19613.03642-.00212.025-.04939.03642-.00212V26.3242q-1.07082-.76988-2.14165-1.54012A.74349.74349,0,0,0,13.68885,23.87186Z" style="fill:#4896c8"/><path d="M10.11132,15.95432l.06587-.06667.00238-.00353c.36272-.27374.72632-.54606,1.08745-.82191.06764-.05186.12841-.10971.22259-.09489a23.93282,23.93282,0,0,0,2.0905,1.64806,2.31177,2.31177,0,0,1,.06923.92033c.01482.27021.00379.54183.00423.8131l-2.10223-1.51755c-.0537-.02328-.11-.05538-.16182-.00211-.35346.36263-.79811.623-1.13269,1.00675a6.285,6.285,0,0,0-1.09662.94679,4.512,4.512,0,0,1-.05248-2.028Q9.60948,16.35416,10.11132,15.95432Z" style="fill:#e8ba67"/><path d="M6.20413,13.2106c.00089.80993.0336,1.61808.07338,2.42695.02954.59968.00758.60073-.50118.74854-.52675.02575-1.05411.04233-1.5798.08184-.24067.018-.3-.06914-.30875-.29984-.02584-.68187-.07963-1.363-.12311-2.04456-.00723-.11359.02751-.25328-.15292-.2695.11473-.11147.272-.06632.407-.1023C4.74382,13.55842,5.475,13.38839,6.20413,13.2106Z" style="fill:#4896c8"/><path d="M9.19292,19.999a9.32753,9.32753,0,0,0,.1217,1.52812L9.251,21.52429q-1.40934-.399-2.81867-.79863a6.50649,6.50649,0,0,0-.0829-1.42618q1.40709-.009,2.81409-.01764A6.878,6.878,0,0,0,9.19292,19.999Z" style="fill:#c1ddee"/><path d="M4.34927,19.35274c.66688-.00811,1.33341-.03421,2.00011-.05326a6.50649,6.50649,0,0,1,.0829,1.42618q-1.15906-.32436-2.31812-.64836c.00168-.15486.012-.31007.00273-.46458C4.10658,19.43952,4.15049,19.35486,4.34927,19.35274Z" style="fill:#4896c8"/><path d="M4.0407,9.38888c.07293.10759.13969.22047.22021.32241.15018.18978.10935.2882-.12894.33124-.199.03563-.39411.09383-.59095.14216A.6358.6358,0,0,1,4.0407,9.38888Z" style="fill:#4896c8"/><path d="M13.68885,23.87186a.74349.74349,0,0,1,.1695.91222.75864.75864,0,0,1-.76733.34006.7247.7247,0,0,1-.572-.52525c-.08607-.2554.06738-.45823.12285-.68293A.7949.7949,0,0,1,13.68885,23.87186Z" style="fill:#e8ba67"/><path d="M12.30033,14.43289c-.26757.182-.54033.35628-.81072.53443-.09418-.01482-.155.043-.22259.09489-.36113.27585-.72473.54817-1.08745.82191-.12231-.68681-.02866-1.38808-.13642-2.07666a.38927.38927,0,0,1,.18854-.43106c.71653-.43777,1.43791-.86813,2.14148-1.326a33.68543,33.68543,0,0,0,3.40142-2.21846A.18938.18938,0,0,1,16,9.81006v2.03856a.35925.35925,0,0,1-.10812.13581Q14.09641,13.20885,12.30033,14.43289Z" style="fill:#9fc9e4"/><path d="M10.11135,15.95449l.0658-.0669Z" style="fill:#4d5baf"/><path d="M15.66347,25.01655q-2.51826-1.943-5.03352-3.88946a.48825.48825,0,0,1-.232-.38309c-.0403-.96972-.09286-1.93873-.1411-2.9081.33458-.38379.77923-.64412,1.13269-1.00675.05185-.05327.10812-.02117.16182.00211.07311,1.16232.14825,2.32429.21659,3.487a.36817.36817,0,0,0,.15539.30654c.69775.48927,1.35034,1.04133,2.07375,1.495.06878.80286.38811,1.047,1.10394.84449l.899.6286v1.61773l-.03642.00212C15.86331,25.14777,15.75775,25.08957,15.66347,25.01655Z" style="fill:#9fc9e4"/><path d="M14.11436,19.7898a.63763.63763,0,0,1-.39085-.72914c.04277-.243-.08034-.47128-.06994-.71185-.00044-.27127.01059-.54289-.00423-.8131a2.31177,2.31177,0,0,0-.06923-.92033c-.09092-.44729.12647-.68258.5122-.88471.65207-.34146,1.27388-.74043,1.90769-1.11717v6.45962a12.47476,12.47476,0,0,1-1.595-1.07343C14.30511,19.93443,14.219,19.84519,14.11436,19.7898Z" style="fill:#d2e6f3"/><path d="M15.43886,22.16066a.694.694,0,0,0-.55435-.54571c-.43424-.09383-.67932.181-.88735.50443-.7235-.45328-1.37609-1.00534-2.07384-1.49461a.36817.36817,0,0,1-.15539-.30654c-.06834-1.16268-.14348-2.32465-.21659-3.487l2.10223,1.51755c-.0104.24057.11271.46881.06994.71185a.63763.63763,0,0,0,.39085.72914c.10468.05539.19075.14463.29067.20989A12.47476,12.47476,0,0,0,16,21.07312v2.51971q-.44962-.3143-.899-.6286A.76537.76537,0,0,0,15.43886,22.16066Z" style="fill:#c1ddee"/><path d="M13.58011,16.61538a23.93282,23.93282,0,0,1-2.0905-1.64806c.27039-.17815.54315-.35241.81072-.53443q1.797-1.22229,3.59155-2.44846A.36662.36662,0,0,0,16,11.84862V14.6135c-.63381.37639-1.25562.77571-1.90769,1.11717C13.70658,15.9328,13.48919,16.16809,13.58011,16.61538Z" style="fill:#c1ddee"/><path d="M14.88451,21.615a.694.694,0,0,1,.55435.54571.76537.76537,0,0,1-.33785.80357c-.71583.20248-1.03516-.04163-1.10385-.84485C14.20519,21.79591,14.45027,21.52112,14.88451,21.615Z" style="fill:#e8ba67"/></svg>