<svg xmlns="http://www.w3.org/2000/svg" viewBox="0 0 32 32"><defs><style>.a{fill:#f7f7f7;}.b{fill:#edeeee;}.c{fill:#fee1e9;}.d{fill:#f5deb9;}.e{fill:#efd4a7;}.f{fill:#eacea1;}.g{fill:#f0c13e;}.h{fill:#373f3f;}.i{fill:#604631;}.j{fill:#9090a2;}.k{fill:#ff5f7e;}.l{fill:#f3586f;}.m{fill:#724d31;}.n{fill:#4f4032;}.o{fill:#fce8cc;}.p{fill:#908f61;}.q{fill:#131313;}</style></defs><title>616-shelmet-shiny</title><path class="a" d="M11.98523,20.574c-1.865-.14965,1.87,4.40186,4.01477,2.01587V20.88209C14.773,20.78956,12.036,20.56422,11.98523,20.574Z"/><path class="b" d="M16.409,22.01148a2.214,2.214,0,0,0,.39569-.91992l-.21606-.17016c-.01416.00293-.24579-.01319-.58863-.03931v1.70776A3.23371,3.23371,0,0,0,16.409,22.01148Z"/><path class="c" d="M.05433,20.55411.0001,20.55205v-.32668l.05467-.002Z"/><path class="d" d="M13.67939,26.12208c-.17353.08789-.35981.15039-.54029.22437a30.57159,30.57159,0,0,1-3.80023,1.69262,4.162,4.162,0,0,1-1.8183.27979c-.34454-.03809-.729-.08618-.8537-.47949-.12054-.38038.15009-.64356.412-.85376.74451-.59766,1.50617-1.17383,2.261-1.75855q-.22376-.10693-.44733-.21362-.24023.193-.48071.3855a17.562,17.562,0,0,0-2.17126,1.81225.95938.95938,0,0,0,.151,1.50391,3.08063,3.08063,0,0,0,1.00476.52392,12.22347,12.22347,0,0,0,4.17431.477,13.20606,13.20606,0,0,0,3.32642-.54443c.37176-.113.73724-.24658,1.1029-.37915v-3.9873C15.24427,25.27442,14.47413,25.71949,13.67939,26.12208Z"/><path class="e" d="M14.96741,4.21681a7.2686,7.2686,0,0,0-1.52209,4.85937,6.37068,6.37068,0,0,0,1.51349,4.15943A1.83976,1.83976,0,0,0,16,13.22657V3.18482A6.85868,6.85868,0,0,0,14.96741,4.21681Z"/><path class="f" d="M17.18891,28.55177a4.32184,4.32184,0,0,1,2.23791,1.11914c.28119.23437.46448.57178.83.71875a1.85441,1.85441,0,0,0,2.42346-1.01734A9.26854,9.26854,0,0,1,24.97339,25.926c1.11078-1.04053,2.25562-2.0459,3.26569-3.19117a13.23465,13.23465,0,0,0,2.73541-4.55224,18.687,18.687,0,0,0,.98572-7.24073,12.4264,12.4264,0,0,0-.80084-3.772,8.26491,8.26491,0,0,0-4.62445-4.74707,12.45565,12.45565,0,0,0-3.81757-.895,12.46555,12.46555,0,0,0-3.34.13379,8.38107,8.38107,0,0,0-2.977,1.18775c-.13879.106-.2669.22338-.40033.33544V13.22657c.11048-.0227.22083-.04565.33136-.06225a14.50522,14.50522,0,0,1,2.0293-.19361,6.22089,6.22089,0,0,1-1.01391-2.54736,3.91456,3.91456,0,0,1,.934-3.53174,4.80693,4.80693,0,0,1,2.788-1.3623,6.20024,6.20024,0,0,1,4.80652,1.24511,4.615,4.615,0,0,1,1.41632,2.07129,6.50021,6.50021,0,0,1,.4635,2.63916A6.096,6.096,0,0,1,26.1,15.77589a4.04476,4.04476,0,0,1-1.73321,1.05566,7.16188,7.16188,0,0,1,.26141,2.21192,5.28333,5.28333,0,0,1-.90778,2.93091,2.40651,2.40651,0,0,1-1.8786,1.00219,6.66585,6.66585,0,0,1-2.70428-.59253,10.43451,10.43451,0,0,1-2.11591,1.77271c-.3324.22973-.679.43579-1.02161.64844v3.9873c.13282-.04834.26545-.09692.39869-.14355A1.53813,1.53813,0,0,1,17.18891,28.55177Z"/><path class="g" d="M10.67214,15.45833a21.03975,21.03975,0,0,1,2.13049,1.91629c.26848.26888.52864.54607.79257.81951l.05946.07319-.002-.00367a.22449.22449,0,0,0,.05982.20749,7.66615,7.66615,0,0,1,.34074,2.33l-.45672-.03086c-.53728-.06409-1.07551-.12137-1.61129-.19625-.16835-.02353-.231.00753-.23785.18769a1.97675,1.97675,0,0,0,.42847,1.36287,3.16776,3.16776,0,0,0,1.6092.98614,7.1015,7.1015,0,0,1-1.43137,3.06717c-.09566-.01434-.19241-.02359-.28681-.0438a16.42352,16.42352,0,0,1-2.727-.907l-.4473-.21353a27.49284,27.49284,0,0,1-6.3552-4.30115c-.13977-.12476-.20618-.13991-.31181.03314a1.50767,1.50767,0,0,1-.70521.60864.97969.97969,0,0,1-1.466-.8l.00043-.33075a1.81421,1.81421,0,0,1,.559-1.14735c.14752-.138.12084-.22713.03836-.38032a2.563,2.563,0,0,1-.33466-1.81562,1.56744,1.56744,0,0,1,1.76317-1.162c.63281.02478,1.05638.46793,1.18862,1.21334A5.52275,5.52275,0,0,1,3.18288,19.002c-.044.21913.02528.28568.20261.3496a10.94456,10.94456,0,0,0,3.62083.54792c.11223.00141.17939-.01994.18909-.15493a5.91951,5.91951,0,0,1,.46535-1.71936,6.24405,6.24405,0,0,1,1.471-1.67311A10.37847,10.37847,0,0,1,10.67214,15.45833Z"/><path class="h" d="M10.67214,15.45833a10.37847,10.37847,0,0,0-1.54034.89379,6.24405,6.24405,0,0,0-1.471,1.67311A20.201,20.201,0,0,1,3.3094,13.83031a4.45409,4.45409,0,0,1-.78615-1.59289.63731.63731,0,0,1,.03506-.50311,15.58354,15.58354,0,0,1,5.24692,1.75733A16.81006,16.81006,0,0,1,10.67214,15.45833Z"/><path class="i" d="M14.56,13.24329c-.004.23178-.205.2557-.35368.314a3.61857,3.61857,0,0,1-1.73638.12059,7.82069,7.82069,0,0,1-2.76649-.783,3.98392,3.98392,0,0,1-1.48451-1.28555L8.233,11.5188c1.18919.41385,2.35674.89081,3.5749,1.2201A14.00064,14.00064,0,0,0,14.56,13.24329Z"/><path class="j" d="M8.233,11.5188l-.01412.09055L8.109,11.47727C8.15571,11.4751,8.20474,11.466,8.233,11.5188Z"/><path class="k" d="M14.17127,23.13673c-.12891-.00293-.25745-.01709-.38623-.02612a7.10036,7.10036,0,0,1-1.43134,3.06713q.39258.0846.78528.16871c.1806-.074.36688-.13648.54041-.22437.79474-.40259,1.56488-.84766,2.32061-1.31689V22.5298A2.45881,2.45881,0,0,1,14.17127,23.13673Z"/><path class="l" d="M19.13752,22.384c-.39234-.1997-.79065-.38842-1.17548-.602-.39264-.21753-.77209-.45923-1.15729-.69067a2.21454,2.21454,0,0,1-.39575.92016A2.30141,2.30141,0,0,1,16,22.5298v2.27539c.3426-.21265.68921-.41871,1.02161-.64844A10.43451,10.43451,0,0,0,19.13752,22.384Z"/><path class="m" d="M25.87531,6.77442a6.20033,6.20033,0,0,0-4.80658-1.24487,4.80367,4.80367,0,0,0-2.788,1.36231,3.91387,3.91387,0,0,0-.934,3.53149,6.22162,6.22162,0,0,0,1.01385,2.54736l.58521.00147a7.61923,7.61923,0,0,1-1.01435-2.55445A3.567,3.567,0,0,1,20.624,6.104,6.2415,6.2415,0,0,1,24.54,6.26612a3.98115,3.98115,0,0,1,2.56336,3.009,7.75025,7.75025,0,0,1-.45447,4.49,4.32584,4.32584,0,0,1-2.28821,2.54345c-.05871.02662-.12189.04322-.18292.06446a1.4001,1.4001,0,0,0,.189.45849A4.04208,4.04208,0,0,0,26.1,15.77589a6.09566,6.09566,0,0,0,1.65509-4.291,6.49819,6.49819,0,0,0-.4635-2.63916A4.61675,4.61675,0,0,0,25.87531,6.77442Z"/><path class="h" d="M12.35368,26.17785q.3926.08441.78532.16873a30.58579,30.58579,0,0,1-3.80011,1.69258,4.15929,4.15929,0,0,1-1.81836.27973c-.34444-.03795-.729-.08593-.85368-.47948-.12054-.38036.15008-.64351.412-.85374.74458-.59755,1.50617-1.17392,2.261-1.75865a16.42405,16.42405,0,0,0,2.727.907C12.16127,26.15426,12.258,26.16351,12.35368,26.17785Z"/><path class="f" d="M24.54,6.26612A6.2415,6.2415,0,0,0,20.624,6.104a3.567,3.567,0,0,0-2.69257,4.31372,7.61923,7.61923,0,0,0,1.01435,2.55445l1.17944.12817a2.73643,2.73643,0,0,1-.00556-2.61963A2.07877,2.07877,0,0,1,22.5326,9.585a2.63389,2.63389,0,0,1,2.08948,2.698,2.77414,2.77414,0,0,1-1.19837,2.17285c-.06189.04419-.134.073-.16449.15015a5.88414,5.88414,0,0,1,.91852,1.76709c.061-.02124.12421-.03784.18292-.06446a4.32584,4.32584,0,0,0,2.28821-2.54345,7.75025,7.75025,0,0,0,.45447-4.49A3.98115,3.98115,0,0,0,24.54,6.26612Z"/><path class="f" d="M21.32081,10.219a1.71858,1.71858,0,0,0-.9552,2.33008,1.45,1.45,0,0,1,.21362.62232,5.59221,5.59221,0,0,1,2.41266,1.17773,2.73947,2.73947,0,0,0,.968-1.14355,2.78181,2.78181,0,0,0-.0194-2.29981A2.05943,2.05943,0,0,0,21.32081,10.219Z"/><path class="m" d="M22.5326,9.585a2.07877,2.07877,0,0,0-2.41291.89575,2.73643,2.73643,0,0,0,.00556,2.61963l.454.071a1.45,1.45,0,0,0-.21362-.62232,1.71858,1.71858,0,0,1,.9552-2.33008,2.05943,2.05943,0,0,1,2.61969.68677,2.78181,2.78181,0,0,1,.0194,2.29981,2.73947,2.73947,0,0,1-.968,1.14355.77955.77955,0,0,0,.26733.25684c.03046-.07715.1026-.106.16449-.15015A2.77414,2.77414,0,0,0,24.62208,12.283,2.63389,2.63389,0,0,0,22.5326,9.585Z"/><path class="n" d="M16.26734,15.48292A.322.322,0,0,0,16,15.1421v.63745C16.14106,15.73609,16.25928,15.66407,16.26734,15.48292Z"/><path class="l" d="M16.39374,20.95924c.06507-.01245.13007-.02466.19489-.03784l-.09088-.07154a.78019.78019,0,0,0-.08832-.09155c-.14252-.10669-.27069-.229-.40943-.33984v.501l.26447.01392Z"/><path class="n" d="M17.01508,17.7505c.16986-.02319.38641-.01172.415-.2312.02612-.20044-.15418-.2937-.31616-.36914a1.20093,1.20093,0,0,0-.18207-.07056A5.65489,5.65489,0,0,0,16,16.91261v.84375c.20124.01636.4043.03076.61054.04541C16.71363,17.78858,16.86451,17.77076,17.01508,17.7505Z"/><path class="o" d="M14.06006,17.39552c-.1062-.03858-.26965-.05762-.26721-.20166.00287-.169.18054-.17188.2981-.19434A6.46632,6.46632,0,0,1,16,16.91261v-1.1333c-.1007.03125-.21179.04907-.30859.07373a5.74364,5.74364,0,0,1-1.51825.13305,5.29289,5.29289,0,0,1-1.45233-.13183,1.03514,1.03514,0,0,1-.15686-.04053c-.18408-.08154-.42-.124-.41095-.39355.00854-.25074.22961-.29932.41156-.34986a3.30083,3.30083,0,0,1,.60754-.0979,8.60139,8.60139,0,0,1,2.52491.09668,2.90842,2.90842,0,0,1,.303.073V13.22657a1.83976,1.83976,0,0,1-1.04119.009c-.13013.14917-.26654-.02759-.39887.00756-.004.23194-.20495.25586-.35364.31421a3.61792,3.61792,0,0,1-1.73639.12061,7.81863,7.81863,0,0,1-2.76654-.7832,3.98467,3.98467,0,0,1-1.48455-1.2854L8.109,11.47706a15.02147,15.02147,0,0,0-2.17187-.77051,3.39868,3.39868,0,0,0-2.67163.27393,1.3333,1.3333,0,0,0-.70716.75391,15.58177,15.58177,0,0,1,5.247,1.75732,16.76976,16.76976,0,0,1,2.86688,1.9668,21.01234,21.01234,0,0,1,2.1305,1.916c.26849.2688.52868.5459.7926.81934l.05945.07348-.002-.0039a.20086.20086,0,0,1,.13849.12744A21.94672,21.94672,0,0,0,16,20.41847V17.75636A7.43393,7.43393,0,0,1,14.06006,17.39552Z"/><path class="d" d="M16.49775,20.84986l.09088.07154.21606.17016c.38526.2312.76471.4729,1.15735.69043.38483.21363.78314.40235,1.17548.602a6.66585,6.66585,0,0,0,2.70428.59253,2.40651,2.40651,0,0,0,1.8786-1.00219,5.28333,5.28333,0,0,0,.90778-2.93091,7.15982,7.15982,0,0,0-.26148-2.21192,1.40084,1.40084,0,0,1-.189-.45849,5.88693,5.88693,0,0,0-.91846-1.76709.7792.7792,0,0,1-.26739-.25684,5.59244,5.59244,0,0,0-2.41272-1.17773q-.227-.03552-.45392-.07129-.5897-.06336-1.17944-.12793l-.58515-.00147a14.50522,14.50522,0,0,0-2.0293.19361c-.11053.0166-.22088.03955-.33136.06225V15.1421a.32184.32184,0,0,1,.26734.34082A.31374.31374,0,0,1,16,15.77931v1.1333a5.65489,5.65489,0,0,1,.93189.167,1.21947,1.21947,0,0,1,.182.07031c.162.07569.3424.16919.31622.36963-.02863.21924-.24518.208-.415.231-.15057.02051-.30139.03833-.40454.051-.20624-.0144-.4093-.0288-.61054-.04516v2.66211c.13874.11084.26691.23315.40943.33984A.78019.78019,0,0,1,16.49775,20.84986Z"/><path class="k" d="M13.79114,18.39087a.2.2,0,0,0-.13843-.1272.22449.22449,0,0,0,.05981.20752h.00007a7.66549,7.66549,0,0,1,.34063,2.32984l.12628.02172L16,20.91943v-.501A21.94563,21.94563,0,0,1,13.79114,18.39087Z"/><path class="p" d="M13.65466,18.26732l-.05946-.07319Z"/><path class="q" d="M14.05324,20.80109l.12624.02174a8.69758,8.69758,0,0,1-.135,1.42685c-.02479.12065-.03065.31765-.16982.31018-.13368-.00717-.133-.2072-.14619-.32888-.05255-.48607-.08929-.97383-.1319-1.46086Q13.82488,20.78571,14.05324,20.80109Z"/><path class="i" d="M15.697,15.0691a8.60067,8.60067,0,0,0-2.52485-.09643,3.30107,3.30107,0,0,0-.6076.09765c-.18195.05054-.40308.09888-.41156.34986-.00909.26953.22681.31225.41089.3938a1.09926,1.09926,0,0,0,.15692.04052,5.31332,5.31332,0,0,0,1.45258.13184,5.76413,5.76413,0,0,0,1.518-.1333c.0968-.02442.20789-.04248.30859-.07349V15.1421A2.97058,2.97058,0,0,0,15.697,15.0691Z"/><path class="i" d="M14.091,16.99952c-.11756.02271-.29523.02539-.2981.19434-.00244.144.161.16308.26727.20166A7.43394,7.43394,0,0,0,16,17.75636v-.84375A6.47457,6.47457,0,0,0,14.091,16.99952Z"/></svg>