<svg xmlns="http://www.w3.org/2000/svg" viewBox="0 0 32 32"><title>618-stunfisk</title><rect x="17.88011" y="23.26999" width="3.8195" height="3.064" style="fill:#fff"/><path d="M21.86634,18.09032A9.61548,9.61548,0,0,1,20.281,14.79446c-.18922-.88221-.31692-1.77783-.59274-2.64052a7.54245,7.54245,0,0,0-1.19592-2.45086A2.57518,2.57518,0,0,0,17.121,8.72573c.02158.80018-.27353,1.29328-.87466,1.45215a1.40679,1.40679,0,0,1-.23915.02349V26.07076a6.23811,6.23811,0,0,1,2.00311.31043,1.04978,1.04978,0,0,1,.61188.44492.41161.41161,0,0,1,.00823.05611c.15659.30983,0,.52085-.24007.67942a3.79705,3.79705,0,0,1-1.49.50194,4.90032,4.90032,0,0,1-.89319.06252v2.69358a4.37111,4.37111,0,0,0,.62354-.05519h0l.50217-.07868a.12017.12017,0,0,1,.1219-.05123q.15792-.0279.31577-.05611c.10521-.0189.21034-.03842.31554-.05733A8.66524,8.66524,0,0,0,21.523,28.6134a6.25491,6.25491,0,0,0,2.03818-3.8594A9.26474,9.26474,0,0,0,21.86634,18.09032Zm-.75528,6.26847a25.56708,25.56708,0,0,0-2.30974,1.5351c-.06922.04757-.13.17169-.22611.111-.07677-.04818-.06938-.1668-.07395-.261-.00412-.083-.00892-.1662-.0103-.19151a2.10523,2.10523,0,0,1,.039-.76785,1.3771,1.3771,0,0,1,1.84706-1.02981,3.01342,3.01342,0,0,1,.72714.35191C21.22549,24.18467,21.3108,24.25145,21.11106,24.35879Z" style="fill:#cda073"/><path d="M16.25579,1.2146c-.02676,1.62232-.09721,3.24372-.0597,4.86664a1.8433,1.8433,0,0,1,.35931.09179,8.0021,8.0021,0,0,1,2.39451,1.66165c.16894-.039.15537-.20706.20782-.31775.69139-1.45856,1.34992-2.93267,2.09932-4.36348a2.58875,2.58875,0,0,0-.201-.19089A7.91624,7.91624,0,0,0,16.25579,1.2146Z" style="fill:#ffd96c"/><path d="M20.719,5.21824q-.6771,1.53648-1.3561,3.07264a7.51137,7.51137,0,0,1,1.34771,3.00036,5.34134,5.34134,0,0,0,2.27055-3.81213,4.60514,4.60514,0,0,0-1.46343-4.0817Q21.11838,4.30767,20.719,5.21824Z" style="fill:#ffd96c"/><path d="M19.15773,7.51693c-.05245.11069-.03888.27872-.20782.31775q.20642.22825.413.4562Q20.041,6.7544,20.719,5.21824q.40082-.90981.79873-1.82083a.73889.73889,0,0,0-.26066-.244C20.50765,4.58426,19.84912,6.05837,19.15773,7.51693Z" style="fill:#f7c845"/><path d="M16.25579,1.2146a.55246.55246,0,0,0-.24861-.03232V6.087q.09445-.00274.18891-.00579C16.15858,4.45832,16.229,2.83692,16.25579,1.2146Z" style="fill:#f7c845"/><path d="M16.00032,11.19854q.00011,4.0724.00007,8.1445l.00679.00213V11.197Z" style="fill:#e6e600"/><path d="M16.84182,12.64856a2.86044,2.86044,0,0,0-.49973-1.22924.56739.56739,0,0,0-.34177-.25737v8.21433a.52844.52844,0,0,0,.28108-.1851,2.1042,2.1042,0,0,0,.45231-.91088A12.06345,12.06345,0,0,0,16.84182,12.64856Z" style="fill:#ffd96c"/><path d="M18.62224,26.7729a1.2056,1.2056,0,0,0-.612-.67554,4.32918,4.32918,0,0,0-2.00311-.47135v2.041A4.38455,4.38455,0,0,0,18.62224,26.7729Z" style="fill:#dbba8c"/><path d="M16.00283,7.788q.00012,1.20667.00016,2.41365l.00419-.0003V7.78863Z" style="fill:#e6e600"/><path d="M17.121,8.72573a1.1964,1.1964,0,0,0-1.11381-.9371v2.41274a1.40679,1.40679,0,0,0,.23915-.02349C16.84746,10.019,17.14257,9.52591,17.121,8.72573Z" style="fill:#ffd96c"/><path d="M16.90037,28.65183a3.0383,3.0383,0,0,0,1.49-.76213.9289.9289,0,0,0,.24007-1.0316,1.12666,1.12666,0,0,1-.69863.83991,2.12206,2.12206,0,0,1-1.11969.3005c-.26766-.00926-.53632.00092-.8049.0088v.73943A3.26677,3.26677,0,0,0,16.90037,28.65183Z" style="fill:#dbba8c"/><path d="M17.93177,27.698a1.12666,1.12666,0,0,0,.69863-.83991c-.00145-.02871-.00419-.057-.00816-.0852a4.38455,4.38455,0,0,1-2.61506.89409v.34032c.26858-.00788.53724-.01806.8049-.0088A2.12206,2.12206,0,0,0,17.93177,27.698Z" style="fill:#cfab81"/><path d="M29.084,17.45817a5.244,5.244,0,0,1,2.70518-1.3811c.06747.00366.15041.00762.2143.01158a2.04325,2.04325,0,0,0-.51223-.11892,9.535,9.535,0,0,0-3.81861.76419,19.71872,19.71872,0,0,0-3.755,2.00075c-.09553.06374-.177.2031-.3189.01006a14.01948,14.01948,0,0,1-2.26377-4.09207,20.45925,20.45925,0,0,1-.6243-3.36142,7.51137,7.51137,0,0,0-1.34771-3.00036q-.20652-.22825-.413-.4562A8.0021,8.0021,0,0,0,16.5554,6.173a1.8433,1.8433,0,0,0-.35931-.09179q-.09445.0032-.18891.00579v1.7016a1.1964,1.1964,0,0,1,1.11381.9371,2.57518,2.57518,0,0,1,1.37135.97735,7.54245,7.54245,0,0,1,1.19592,2.45086c.27582.86269.40352,1.75831.59274,2.64052a9.61548,9.61548,0,0,0,1.58534,3.29586A9.26474,9.26474,0,0,1,23.56115,24.754,6.25491,6.25491,0,0,1,21.523,28.6134a8.66524,8.66524,0,0,1-3.63687,1.90774c-.1052.01891-.21033.03843-.31554.05733s-.21049.03751-.31577.05611a.12017.12017,0,0,0-.1219.05123c.04033,0,.08073,0,.12106.00031.10734.00671.9522-.11466,1.04376-.13052A8.56613,8.56613,0,0,0,23.87608,27.515a9.52754,9.52754,0,0,1,1.26408-1.411,7.57439,7.57439,0,0,0,1.5935-2.68749c.07052-.23816.05344-.36045-.22582-.44095-.72744-.21042-.72424-.22719-.43081-.94534A12.08421,12.08421,0,0,1,29.084,17.45817Z" style="fill:#4f4032"/><path d="M19.26377,24.31915c-.15575.00488-.21033.10947-.21155.25036-.00145.15583.05664.26439.23221.25829.15354-.00579.21362-.10277.21934-.254C19.48311,24.4396,19.43973,24.31336,19.26377,24.31915Z" style="fill:#211915"/><path d="M28.55228,22.00979a11.23047,11.23047,0,0,0,2.00738-2.72073,18.377,18.377,0,0,0,1.44377-3.20041l-.2098-.0128A5.24254,5.24254,0,0,0,29.084,17.45817,12.08421,12.08421,0,0,0,26.077,22.03022c-.29343.71815-.29663.73492.43081.94534.27926.0805.29634.20279.22582.44095a7.57439,7.57439,0,0,1-1.5935,2.68749,9.52754,9.52754,0,0,0-1.26408,1.411c.10513-.04238.21469-.07654.31478-.12868A20.32286,20.32286,0,0,0,29.521,23.18079a3.54353,3.54353,0,0,0,.63421-.8441c.10726-.21681.081-.32263-.19-.32964a8.73649,8.73649,0,0,0-1.27231.07623q-.03992.04392-.00008,0l-.19585.06191a.04221.04221,0,1,1-.05878-.06008Q28.49519,22.04761,28.55228,22.00979Z" style="fill:#c09265"/><rect x="10.30382" y="23.26999" width="3.8195" height="3.064" transform="translate(24.42714 49.60397) rotate(-180)" style="fill:#fff"/><path d="M8.44228,24.754a6.25491,6.25491,0,0,0,2.03818,3.8594,8.66521,8.66521,0,0,0,3.63686,1.90774c.10521.01891.21034.03843.31555.05733s.21049.03751.31577.05611a.12017.12017,0,0,1,.1219.05123l.50217.07868h0a4.371,4.371,0,0,0,.62354.05519V28.1261a4.90026,4.90026,0,0,1-.89319-.06252,3.7971,3.7971,0,0,1-1.49-.50194c-.24006-.15857-.39665-.36959-.24006-.67942a.41006.41006,0,0,1,.00823-.05611,1.04976,1.04976,0,0,1,.61187-.44492,6.23822,6.23822,0,0,1,2.00312-.31043V10.20137a1.407,1.407,0,0,1-.23916-.02349c-.60112-.15887-.89623-.652-.87466-1.45215a2.57516,2.57516,0,0,0-1.37134.97735,7.54245,7.54245,0,0,0-1.19592,2.45086c-.27583.86269-.40352,1.75831-.59274,2.64052a9.61548,9.61548,0,0,1-1.58534,3.29586A9.26469,9.26469,0,0,0,8.44228,24.754Zm2.45695-.6474a3.01342,3.01342,0,0,1,.72714-.35191,1.3771,1.3771,0,0,1,1.84706,1.02981,2.105,2.105,0,0,1,.039.76785c-.00137.02531-.00617.10856-.01029.19151-.00457.09423.00282.21285-.07395.261-.09613.06069-.15689-.06343-.22612-.111a25.56693,25.56693,0,0,0-2.30973-1.5351C10.69263,24.25145,10.77793,24.18467,10.89923,24.1066Z" style="fill:#cfab81"/><path d="M15.74764,1.2146c.02676,1.62232.0972,3.24372.05969,4.86664a1.8432,1.8432,0,0,0-.3593.09179,8.002,8.002,0,0,0-2.39451,1.66165c-.16894-.039-.15537-.20706-.20782-.31775-.69139-1.45856-1.34992-2.93267-2.09933-4.36348a2.59068,2.59068,0,0,1,.201-.19089A7.91624,7.91624,0,0,1,15.74764,1.2146Z" style="fill:#ffe28a"/><path d="M11.28445,5.21824q.6771,1.53648,1.3561,3.07264a7.51124,7.51124,0,0,0-1.34771,3.00036A5.34139,5.34139,0,0,1,9.02228,7.47911a4.60517,4.60517,0,0,1,1.46344-4.0817Q10.88505,4.30767,11.28445,5.21824Z" style="fill:#ffe28a"/><path d="M12.8457,7.51693c.05245.11069.03888.27872.20782.31775q-.20642.22825-.413.4562-.67813-1.53648-1.3561-3.07264-.40082-.90981-.79873-1.82083a.739.739,0,0,1,.26065-.244C11.49578,4.58426,12.15431,6.05837,12.8457,7.51693Z" style="fill:#ffd04d"/><path d="M15.74764,1.2146a.55243.55243,0,0,1,.24861-.03232V6.087q-.09445-.00274-.18892-.00579C15.84484,4.45832,15.7744,2.83692,15.74764,1.2146Z" style="fill:#ffd04d"/><path d="M16.00311,11.19854q-.00012,4.0724-.00008,8.1445l-.00678.00213V11.197Z" style="fill:#e6e600"/><path d="M15.16161,12.64856a2.86044,2.86044,0,0,1,.49973-1.22924.56739.56739,0,0,1,.34177-.25737v8.21433a.52844.52844,0,0,1-.28108-.1851,2.10433,2.10433,0,0,1-.45232-.91088A12.06358,12.06358,0,0,1,15.16161,12.64856Z" style="fill:#ffe28a"/><path d="M13.38118,26.7729a1.20564,1.20564,0,0,1,.612-.67554,4.32924,4.32924,0,0,1,2.00312-.47135v2.041A4.3846,4.3846,0,0,1,13.38118,26.7729Z" style="fill:#e5c79a"/><path d="M16.00059,7.788q-.0001,1.20667-.00015,2.41365l-.00419-.0003V7.78863Z" style="fill:#e6e600"/><path d="M14.88243,8.72573a1.19642,1.19642,0,0,1,1.11382-.9371v2.41274a1.407,1.407,0,0,1-.23916-.02349C15.156,10.019,14.86086,9.52591,14.88243,8.72573Z" style="fill:#ffe28a"/><path d="M15.10306,28.65183a3.03833,3.03833,0,0,1-1.49-.76213.92891.92891,0,0,1-.24006-1.0316,1.12664,1.12664,0,0,0,.69863.83991,2.12205,2.12205,0,0,0,1.11968.3005c.26767-.00926.53633.00092.80491.0088v.73943A3.26673,3.26673,0,0,1,15.10306,28.65183Z" style="fill:#e5c79a"/><path d="M14.07166,27.698a1.12664,1.12664,0,0,1-.69863-.83991c.00144-.02871.00419-.057.00815-.0852a4.3846,4.3846,0,0,0,2.61507.89409v.34032c-.26858-.00788-.53724-.01806-.80491-.0088A2.12205,2.12205,0,0,1,14.07166,27.698Z" style="fill:#d5b387"/><path d="M2.91947,17.45817A5.244,5.244,0,0,0,.2143,16.07707c-.06747.00366-.15042.00762-.2143.01158a2.04325,2.04325,0,0,1,.51223-.11892,9.535,9.535,0,0,1,3.81861.76419,19.71872,19.71872,0,0,1,3.755,2.00075c.09553.06374.177.2031.3189.01006a14.01971,14.01971,0,0,0,2.26377-4.09207,20.4603,20.4603,0,0,0,.6243-3.36142,7.51124,7.51124,0,0,1,1.34771-3.00036q.20652-.22825.413-.4562A8.002,8.002,0,0,1,15.448,6.173a1.8432,1.8432,0,0,1,.3593-.09179q.09447.0032.18892.00579v1.7016a1.19642,1.19642,0,0,0-1.11382.9371,2.57516,2.57516,0,0,0-1.37134.97735,7.54245,7.54245,0,0,0-1.19592,2.45086c-.27583.86269-.40352,1.75831-.59274,2.64052a9.61548,9.61548,0,0,1-1.58534,3.29586A9.26469,9.26469,0,0,0,8.44228,24.754a6.25491,6.25491,0,0,0,2.03818,3.8594,8.66521,8.66521,0,0,0,3.63686,1.90774c.10521.01891.21034.03843.31555.05733s.21049.03751.31577.05611a.12017.12017,0,0,1,.1219.05123c-.04033,0-.08073,0-.12106.00031-.10734.00671-.9522-.11466-1.04376-.13052A8.56618,8.56618,0,0,1,8.12734,27.515a9.52692,9.52692,0,0,0-1.26407-1.411,7.57424,7.57424,0,0,1-1.5935-2.68749c-.07052-.23816-.05344-.36045.22581-.44095.72745-.21042.72425-.22719.43082-.94534A12.08412,12.08412,0,0,0,2.91947,17.45817Z" style="fill:#604631"/><path d="M12.73965,24.31915c.15575.00488.21034.10947.21156.25036.00145.15583-.05664.26439-.23222.25829-.15354-.00579-.21361-.10277-.21933-.254C12.52032,24.4396,12.5637,24.31336,12.73965,24.31915Z" style="fill:#211915"/><path d="M3.45115,22.00979a11.23077,11.23077,0,0,1-2.00739-2.72073A18.37768,18.37768,0,0,1,0,16.08865l.2098-.0128a5.24247,5.24247,0,0,1,2.70967,1.38232A12.08412,12.08412,0,0,1,5.9264,22.03022c.29343.71815.29663.73492-.43082.94534-.27925.0805-.29633.20279-.22581.44095A7.57424,7.57424,0,0,0,6.86327,26.104a9.52692,9.52692,0,0,1,1.26407,1.411c-.10513-.04238-.21468-.07654-.31478-.12868a20.32281,20.32281,0,0,1-5.33015-4.20551,3.54353,3.54353,0,0,1-.63421-.8441c-.10727-.21681-.081-.32263.19-.32964a8.73649,8.73649,0,0,1,1.27231.07623q.03991.04392.00008,0l.19585.06191a.04221.04221,0,1,0,.05878-.06008Q3.50824,22.04761,3.45115,22.00979Z" style="fill:#cda073"/></svg>