<svg xmlns="http://www.w3.org/2000/svg" viewBox="0 0 32 32"><defs><style>.a{fill:#fff;}.b{fill:#efd4a7;}.c{fill:#9fc9e4;}.d{fill:#7fb8e0;}.e{fill:#e6e600;}.f{fill:#fbcfd6;}.g{fill:#f9adc8;}.h{fill:#505957;}.i{fill:#211915;}.j{fill:#e5c79a;}.k{fill:#f5deb9;}.l{fill:#c1ddee;}.m{fill:#8ec0e0;}.n{fill:#fcd8de;}.o{fill:#fab8cd;}.p{fill:#5c6664;}.q{fill:#eacea1;}</style></defs><title>618-stunfisk-shiny</title><rect class="a" x="17.87839" y="23.26999" width="3.8195" height="3.064"/><path class="b" d="M21.86462,18.09032a9.61548,9.61548,0,0,1-1.58534-3.29586c-.18921-.88221-.31691-1.77783-.59273-2.64052a7.54227,7.54227,0,0,0-1.19593-2.45086,2.57512,2.57512,0,0,0-1.37134-.97735c.02158.80018-.27354,1.29328-.87466,1.45215a1.407,1.407,0,0,1-.23915.02349V26.07076a6.23816,6.23816,0,0,1,2.00311.31043,1.04976,1.04976,0,0,1,.61187.44492.41163.41163,0,0,1,.00824.05611c.15659.30983,0,.52085-.24007.67942a3.7971,3.7971,0,0,1-1.49.50194,4.90021,4.90021,0,0,1-.89318.06252v2.69358a4.3708,4.3708,0,0,0,.62353-.05519h0l.50217-.07868a.12019.12019,0,0,1,.12191-.05123q.15792-.0279.31577-.05611c.1052-.0189.21033-.03842.31554-.05733a8.66521,8.66521,0,0,0,3.63686-1.90774,6.25488,6.25488,0,0,0,2.03819-3.8594A9.2647,9.2647,0,0,0,21.86462,18.09032Zm-.75527,6.26847a25.56708,25.56708,0,0,0-2.30974,1.5351c-.06922.04757-.13.17169-.22612.111-.07677-.04818-.06937-.1668-.07395-.261-.00411-.083-.00892-.1662-.01029-.19151a2.10525,2.10525,0,0,1,.039-.76785,1.37711,1.37711,0,0,1,1.84706-1.02981,3.01349,3.01349,0,0,1,.72715.35191C21.22378,24.18467,21.30909,24.25145,21.10935,24.35879Z"/><path class="c" d="M16.25407,1.2146c-.02676,1.62232-.0972,3.24372-.05969,4.86664a1.843,1.843,0,0,1,.3593.09179,8.00185,8.00185,0,0,1,2.39451,1.66165c.16895-.039.15537-.20706.20783-.31775.69138-1.45856,1.34992-2.93267,2.09932-4.36348a2.59235,2.59235,0,0,0-.201-.19089A7.91627,7.91627,0,0,0,16.25407,1.2146Z"/><path class="c" d="M20.71726,5.21824q-.67709,1.53648-1.35609,3.07264a7.51151,7.51151,0,0,1,1.34771,3.00036,5.34134,5.34134,0,0,0,2.27055-3.81213A4.60514,4.60514,0,0,0,21.516,3.39741Q21.11668,4.30767,20.71726,5.21824Z"/><path class="d" d="M19.156,7.51693c-.05246.11069-.03888.27872-.20783.31775q.20641.22825.413.4562.67812-1.53648,1.35609-3.07264.40082-.90981.79873-1.82083a.73886.73886,0,0,0-.26065-.244C20.50594,4.58426,19.8474,6.05837,19.156,7.51693Z"/><path class="d" d="M16.25407,1.2146a.5524.5524,0,0,0-.2486-.03232V6.087q.09445-.00274.18891-.00579C16.15687,4.45832,16.22731,2.83692,16.25407,1.2146Z"/><path class="e" d="M15.9986,11.19854q.00012,4.0724.00008,8.1445l.00679.00213V11.197Z"/><path class="c" d="M16.8401,12.64856a2.86044,2.86044,0,0,0-.49973-1.22924.56736.56736,0,0,0-.34177-.25737v8.21433a.52843.52843,0,0,0,.28109-.1851,2.1042,2.1042,0,0,0,.45231-.91088A12.06332,12.06332,0,0,0,16.8401,12.64856Z"/><path class="f" d="M18.62053,26.7729a1.20564,1.20564,0,0,0-.612-.67554,4.32921,4.32921,0,0,0-2.00311-.47135v2.041A4.38459,4.38459,0,0,0,18.62053,26.7729Z"/><path class="e" d="M16.00112,7.788q.00012,1.20667.00015,2.41365l.0042-.0003V7.78863Z"/><path class="c" d="M17.11928,8.72573a1.19641,1.19641,0,0,0-1.11381-.9371v2.41274a1.407,1.407,0,0,0,.23915-.02349C16.84574,10.019,17.14086,9.52591,17.11928,8.72573Z"/><path class="f" d="M16.89865,28.65183a3.03833,3.03833,0,0,0,1.49-.76213.9289.9289,0,0,0,.24007-1.0316,1.12666,1.12666,0,0,1-.69863.83991,2.12206,2.12206,0,0,1-1.11969.3005c-.26767-.00926-.53632.00092-.8049.0088v.73943A3.2667,3.2667,0,0,0,16.89865,28.65183Z"/><path class="g" d="M17.93006,27.698a1.12666,1.12666,0,0,0,.69863-.83991c-.00145-.02871-.0042-.057-.00816-.0852a4.38459,4.38459,0,0,1-2.61506.89409v.34032c.26858-.00788.53723-.01806.8049-.0088A2.12206,2.12206,0,0,0,17.93006,27.698Z"/><path class="h" d="M29.08224,17.45817a5.244,5.244,0,0,1,2.70518-1.3811c.06747.00366.15041.00762.2143.01158a2.04339,2.04339,0,0,0-.51224-.11892,9.535,9.535,0,0,0-3.81861.76419,19.719,19.719,0,0,0-3.755,2.00075c-.09552.06374-.177.2031-.31889.01006a14.01925,14.01925,0,0,1-2.26377-4.09207,20.4582,20.4582,0,0,1-.6243-3.36142,7.51151,7.51151,0,0,0-1.34771-3.00036q-.20652-.22825-.413-.4562A8.00185,8.00185,0,0,0,16.55368,6.173a1.843,1.843,0,0,0-.3593-.09179q-.09445.0032-.18891.00579v1.7016a1.19641,1.19641,0,0,1,1.11381.9371,2.57512,2.57512,0,0,1,1.37134.97735,7.54227,7.54227,0,0,1,1.19593,2.45086c.27582.86269.40352,1.75831.59273,2.64052a9.61548,9.61548,0,0,0,1.58534,3.29586A9.2647,9.2647,0,0,1,23.55944,24.754a6.25488,6.25488,0,0,1-2.03819,3.8594,8.66521,8.66521,0,0,1-3.63686,1.90774c-.10521.01891-.21034.03843-.31554.05733s-.21049.03751-.31577.05611a.12019.12019,0,0,0-.12191.05123c.04033,0,.08074,0,.12107.00031.10734.00671.95219-.11466,1.04375-.13052A8.56615,8.56615,0,0,0,23.87437,27.515a9.527,9.527,0,0,1,1.26408-1.411,7.57436,7.57436,0,0,0,1.59349-2.68749c.07052-.23816.05345-.36045-.22581-.44095-.72745-.21042-.72425-.22719-.43081-.94534A12.084,12.084,0,0,1,29.08224,17.45817Z"/><path class="i" d="M19.26206,24.31915c-.15575.00488-.21034.10947-.21156.25036-.00144.15583.05665.26439.23222.25829.15354-.00579.21362-.10277.21933-.254C19.48139,24.4396,19.438,24.31336,19.26206,24.31915Z"/><path class="j" d="M28.55057,22.00979A11.23074,11.23074,0,0,0,30.558,19.28906a18.37772,18.37772,0,0,0,1.44377-3.20041l-.20981-.0128a5.24251,5.24251,0,0,0-2.70967,1.38232,12.084,12.084,0,0,0-3.00692,4.57205c-.29344.71815-.29664.73492.43081.94534.27926.0805.29633.20279.22581.44095A7.57436,7.57436,0,0,1,25.13845,26.104a9.527,9.527,0,0,0-1.26408,1.411c.10513-.04238.21468-.07654.31478-.12868a20.32265,20.32265,0,0,0,5.33015-4.20551,3.543,3.543,0,0,0,.63421-.8441c.10727-.21681.081-.32263-.19-.32964a8.73649,8.73649,0,0,0-1.27231.07623q-.0399.04392-.00007,0l-.19586.06191a.04221.04221,0,1,1-.05877-.06008Q28.49346,22.04761,28.55057,22.00979Z"/><rect class="a" x="10.3021" y="23.26999" width="3.8195" height="3.064" transform="translate(24.42371 49.60397) rotate(-180)"/><path class="k" d="M8.44056,24.754a6.25488,6.25488,0,0,0,2.03819,3.8594,8.66521,8.66521,0,0,0,3.63686,1.90774c.10521.01891.21034.03843.31554.05733s.21049.03751.31577.05611a.12019.12019,0,0,1,.12191.05123l.50217.07868h0a4.3708,4.3708,0,0,0,.62353.05519V28.1261a4.90021,4.90021,0,0,1-.89318-.06252,3.7971,3.7971,0,0,1-1.49-.50194c-.24007-.15857-.39666-.36959-.24007-.67942a.41163.41163,0,0,1,.00824-.05611,1.04976,1.04976,0,0,1,.61187-.44492,6.23816,6.23816,0,0,1,2.00311-.31043V10.20137a1.407,1.407,0,0,1-.23915-.02349c-.60112-.15887-.89624-.652-.87466-1.45215a2.57512,2.57512,0,0,0-1.37134.97735,7.54227,7.54227,0,0,0-1.19593,2.45086c-.27582.86269-.40352,1.75831-.59273,2.64052a9.61548,9.61548,0,0,1-1.58534,3.29586A9.2647,9.2647,0,0,0,8.44056,24.754Zm2.457-.6474a3.01349,3.01349,0,0,1,.72715-.35191,1.37711,1.37711,0,0,1,1.84706,1.02981,2.10525,2.10525,0,0,1,.039.76785c-.00137.02531-.00618.10856-.01029.19151-.00458.09423.00282.21285-.07395.261-.09614.06069-.1569-.06343-.22612-.111a25.56708,25.56708,0,0,0-2.30974-1.5351C10.69091,24.25145,10.77622,24.18467,10.89751,24.1066Z"/><path class="l" d="M15.74593,1.2146c.02676,1.62232.0972,3.24372.05969,4.86664a1.843,1.843,0,0,0-.3593.09179,8.00185,8.00185,0,0,0-2.39451,1.66165c-.16895-.039-.15537-.20706-.20783-.31775-.69138-1.45856-1.34992-2.93267-2.09932-4.36348a2.59235,2.59235,0,0,1,.201-.19089A7.91627,7.91627,0,0,1,15.74593,1.2146Z"/><path class="l" d="M11.28274,5.21824q.67709,1.53648,1.35609,3.07264a7.51151,7.51151,0,0,0-1.34771,3.00036A5.34134,5.34134,0,0,1,9.02057,7.47911,4.60514,4.60514,0,0,1,10.484,3.39741Q10.88333,4.30767,11.28274,5.21824Z"/><path class="m" d="M12.844,7.51693c.05246.11069.03888.27872.20783.31775q-.20641.22825-.413.4562-.67812-1.53648-1.35609-3.07264-.40082-.90981-.79873-1.82083a.73886.73886,0,0,1,.26065-.244C11.49406,4.58426,12.1526,6.05837,12.844,7.51693Z"/><path class="m" d="M15.74593,1.2146a.5524.5524,0,0,1,.2486-.03232V6.087q-.09445-.00274-.18891-.00579C15.84313,4.45832,15.77269,2.83692,15.74593,1.2146Z"/><path class="e" d="M16.0014,11.19854q-.00012,4.0724-.00008,8.1445l-.00679.00213V11.197Z"/><path class="l" d="M15.1599,12.64856a2.86044,2.86044,0,0,1,.49973-1.22924.56736.56736,0,0,1,.34177-.25737v8.21433a.52843.52843,0,0,1-.28109-.1851,2.1042,2.1042,0,0,1-.45231-.91088A12.06332,12.06332,0,0,1,15.1599,12.64856Z"/><path class="n" d="M13.37947,26.7729a1.20564,1.20564,0,0,1,.612-.67554,4.32921,4.32921,0,0,1,2.00311-.47135v2.041A4.38459,4.38459,0,0,1,13.37947,26.7729Z"/><path class="e" d="M15.99888,7.788q-.00012,1.20667-.00015,2.41365l-.0042-.0003V7.78863Z"/><path class="l" d="M14.88072,8.72573a1.19641,1.19641,0,0,1,1.11381-.9371v2.41274a1.407,1.407,0,0,1-.23915-.02349C15.15426,10.019,14.85914,9.52591,14.88072,8.72573Z"/><path class="n" d="M15.10135,28.65183a3.03833,3.03833,0,0,1-1.49-.76213.9289.9289,0,0,1-.24007-1.0316,1.12666,1.12666,0,0,0,.69863.83991,2.12206,2.12206,0,0,0,1.11969.3005c.26767-.00926.53632.00092.8049.0088v.73943A3.2667,3.2667,0,0,1,15.10135,28.65183Z"/><path class="o" d="M14.06994,27.698a1.12666,1.12666,0,0,1-.69863-.83991c.00145-.02871.0042-.057.00816-.0852a4.38459,4.38459,0,0,0,2.61506.89409v.34032c-.26858-.00788-.53723-.01806-.8049-.0088A2.12206,2.12206,0,0,1,14.06994,27.698Z"/><path class="p" d="M2.91776,17.45817a5.244,5.244,0,0,0-2.70518-1.3811c-.06747.00366-.15041.00762-.2143.01158a2.04339,2.04339,0,0,1,.51224-.11892,9.535,9.535,0,0,1,3.81861.76419,19.719,19.719,0,0,1,3.755,2.00075c.09552.06374.177.2031.31889.01006a14.01925,14.01925,0,0,0,2.26377-4.09207,20.4582,20.4582,0,0,0,.6243-3.36142,7.51151,7.51151,0,0,1,1.34771-3.00036q.20652-.22825.413-.4562A8.00185,8.00185,0,0,1,15.44632,6.173a1.843,1.843,0,0,1,.3593-.09179q.09445.0032.18891.00579v1.7016a1.19641,1.19641,0,0,0-1.11381.9371,2.57512,2.57512,0,0,0-1.37134.97735,7.54227,7.54227,0,0,0-1.19593,2.45086c-.27582.86269-.40352,1.75831-.59273,2.64052a9.61548,9.61548,0,0,1-1.58534,3.29586A9.2647,9.2647,0,0,0,8.44056,24.754a6.25488,6.25488,0,0,0,2.03819,3.8594,8.66521,8.66521,0,0,0,3.63686,1.90774c.10521.01891.21034.03843.31554.05733s.21049.03751.31577.05611a.12019.12019,0,0,1,.12191.05123c-.04033,0-.08074,0-.12107.00031-.10734.00671-.95219-.11466-1.04375-.13052A8.56615,8.56615,0,0,1,8.12563,27.515a9.527,9.527,0,0,0-1.26408-1.411,7.57436,7.57436,0,0,1-1.59349-2.68749c-.07052-.23816-.05345-.36045.22581-.44095.72745-.21042.72425-.22719.43081-.94534A12.084,12.084,0,0,0,2.91776,17.45817Z"/><path class="i" d="M12.73794,24.31915c.15575.00488.21034.10947.21156.25036.00144.15583-.05665.26439-.23222.25829-.15354-.00579-.21362-.10277-.21933-.254C12.51861,24.4396,12.562,24.31336,12.73794,24.31915Z"/><path class="q" d="M3.44943,22.00979a11.23074,11.23074,0,0,1-2.00738-2.72073A18.37772,18.37772,0,0,1-.00172,16.08865l.20981-.0128a5.24251,5.24251,0,0,1,2.70967,1.38232,12.084,12.084,0,0,1,3.00692,4.57205c.29344.71815.29664.73492-.43081.94534-.27926.0805-.29633.20279-.22581.44095A7.57436,7.57436,0,0,0,6.86155,26.104a9.527,9.527,0,0,1,1.26408,1.411c-.10513-.04238-.21468-.07654-.31478-.12868A20.32265,20.32265,0,0,1,2.4807,23.18079a3.543,3.543,0,0,1-.63421-.8441c-.10727-.21681-.081-.32263.19-.32964a8.73649,8.73649,0,0,1,1.27231.07623q.0399.04392.00007,0l.19586.06191a.04221.04221,0,1,0,.05877-.06008Q3.50654,22.04761,3.44943,22.00979Z"/></svg>