<svg xmlns="http://www.w3.org/2000/svg" viewBox="0 0 32 32"><defs><style>.a{fill:#f1efcf;}.b{fill:#e3e5e5;}.c{fill:#edeeee;}.d{fill:#9d85d3;}.e{fill:#866eba;}.f{fill:#dadddc;}.g{fill:#675099;}.h{fill:#434c4b;}.i{fill:#604893;}.j{fill:#534184;}.k{fill:#2b2a28;}.l{fill:#3b3b32;}.m{fill:#676549;}.n{fill:#8e8b5f;}.o{fill:#e2dee1;}.p{fill:#f7f7f7;}.q{fill:#a78edd;}.r{fill:#745da6;}.s{fill:#505957;}.t{fill:#58458c;}</style></defs><title>619-mienfoo-shiny</title><path class="a" d="M21.04026,0c-.00082.01651-.00244.033-.00472.04954l.25078.00088Q21.28289.02521,21.28182,0Z"/><path class="b" d="M24.21621,23.48129c-.11426-.26419-.18274-.54844-.27135-.82384a19.76114,19.76114,0,0,0-.83269-1.91129c-.02447-.046-.0802-.09878-.0171-.15864l-.07327-.16512c-.24437-.17191-.30386-.46411-.43949-.70236A32.35433,32.35433,0,0,0,19.75,15.60082c-.072-.09052-.22167-.179-.16918-.29427.041-.09023.20227-.02152.30791-.04128a1.08334,1.08334,0,0,0,.11241-.0342c-.47789.09819-.72108-.17574-.89365-.5623.002.00973-3.01862.6254-3.02063.61567l-.00008.00029c-.02277,0-.04452.00737-.06722.00649V28.00388l.011.00059a3.95776,3.95776,0,0,0,2.44477-.5797,9.26433,9.26433,0,0,0,.93464-.802c.44613-.56731.867-1.15674,1.34479-1.696a3.509,3.509,0,0,1,2.23063-1.13551,2.12376,2.12376,0,0,1,1.011-.00767C24.24319,23.80859,24.32914,23.74254,24.21621,23.48129Z"/><path class="c" d="M22.806,9.38456a2.1652,2.1652,0,0,0-.82841-.97216c-.15185-.09229-.15716-.169-.06723-.309a4.08427,4.08427,0,0,0-.00494-4.422c-.04887-.09141-.16062-.16808-.0704-.2931-.23124-.05867-.28867-.28306-.41582-.43993a8.59273,8.59273,0,0,0-1.68012-1.60287.56672.56672,0,0,1-.21216-.20316.54709.54709,0,0,1-.29427-.13416,5.85556,5.85556,0,0,0-3.202-.93677q.00033,3.46005.00081,6.92039-.00043-3.46-.00081-6.92039l-.011.00029V7.01623l.01186-.00118v-.0003a1.28147,1.28147,0,0,1,.67479.061.28783.28783,0,0,1,.10284.52014,1.4952,1.4952,0,0,1-.70163.38715l-.07939.051-.00847-.00354v2.65493l.0081.0003.00266.00413a13.27151,13.27151,0,0,0,2.24242-.30253.62106.62106,0,0,1,.10829-.05219,7.45571,7.45571,0,0,0,2.54391-1.206c.12952-.09554.2095-.05485.317.0224A2.81553,2.81553,0,0,0,22.61,9.65642C22.92177,9.68915,22.93459,9.66,22.806,9.38456ZM18.22912,4.17288a.806.806,0,0,1-.74873-.51335,1.79879,1.79879,0,0,1-.17721-.99428.54261.54261,0,0,1,.86424-.45733,1.584,1.584,0,0,1,.71887,1.39853A.60742.60742,0,0,1,18.22912,4.17288Zm2.26785.4765-.116.12767q-.08967.09376-.17928.18812l-.61641.65459a1.15994,1.15994,0,0,1,.17228,1.13316c-.06635.18193-.172.3553-.39394.36327-.24016.00855-.34417-.17574-.42342-.36445a1.56646,1.56646,0,0,1-.07076-.65017,1.18309,1.18309,0,0,1-.40817-.2471c-.036-.03361-.1234-.059-.05609-.13445a.08843.08843,0,0,1,.13416-.00855c.3455.35766.579.08816.83-.138.26759-.2409.54608-.46971.81979-.70383q.09276-.08537.18561-.171a.1629.1629,0,0,1,.12215-.10674l.03855-.03332C20.55985,4.60456,20.53339,4.629,20.497,4.64938Z"/><path class="d" d="M26.85337,12.98128c-1.94748-1.11458-3.95283-1.61408-6.11638-.65342a.32133.32133,0,0,1-.35295-.07106A4.67708,4.67708,0,0,0,18.2648,11.458a6.15643,6.15643,0,0,0,.25,1.75561c.0261.10733.07578.207-.01437.30547.12435.01239.14942.11264.18237.20582a7.30169,7.30169,0,0,0,.42467.94385c.17257.38656.41576.66049.89336.5623.26589-.05868.38892.04187.50067.30577a4.58294,4.58294,0,0,0,3.5749,2.75784c.16638.03361.33637.04954.50466.07342a4.80348,4.80348,0,0,0,1.54389.054,2.27663,2.27663,0,0,0,1.44283-.48564.4517.4517,0,0,1-.53775-.45173,1.722,1.722,0,0,1,.09863-.99368,1.58242,1.58242,0,0,1,1.81753-1.303c.11514.02683.07563-.04541.0732-.0976A5.06448,5.06448,0,0,0,26.85337,12.98128Z"/><path class="d" d="M25.90517,29.827c-.27031-.17249-.54188-.34351-.80954-.52013a1.89039,1.89039,0,0,1-.90028-1.5495,7.74121,7.74121,0,0,1,.01481-.99162,8.48027,8.48027,0,0,0-.2137-2.98223,2.12376,2.12376,0,0,0-1.011.00767,3.509,3.509,0,0,0-2.23063,1.13551c-.47775.5393-.89866,1.12873-1.34479,1.696.15989.084.3172.17368.48033.25093q.98044.46353,1.96437.92a1.42342,1.42342,0,0,1,.7715.80143,3.11164,3.11164,0,0,0,.427.75927.67531.67531,0,0,1,.03885.9816c-.05359.08521-.11359.1663-.16372.25328a.50339.50339,0,0,0,.16247.73539,5.68087,5.68087,0,0,0,1.63773.664.71686.71686,0,0,0,.32472-.41487.40827.40827,0,0,0-.13085-.50745,2.13705,2.13705,0,0,1-.45651-.38539c-.03148-.04275-.05374-.09111-.02256-.13711.04017-.059.0861-.02034.12642.00855.14581.10468.29236.20847.43654.31521a.70045.70045,0,0,1,.32442.71828c.16078.01239.32236.1032.48181-.0053-.051-.18783.12885-.31256.12686-.49979a.53562.53562,0,0,0-.27658-.54668,3.74129,3.74129,0,0,1-.399-.26478c-.03715-.026-.09222-.05809-.0617-.11353.00877-.01621.07851-.01739.10645-.00147.25078.14419.506.28307.74415.44642.12274.084.125.24267.12642.38538C26.51045,30.41289,26.45472,30.17789,25.90517,29.827Z"/><path class="e" d="M27.88237,18.665a6.816,6.816,0,0,0-1.58046.34676c-.456.158-.44944.15451-.53215-.31108-.03037-.17043.00029-.2468.18407-.23677a.60337.60337,0,0,0,.17116-.04187,4.80348,4.80348,0,0,1-1.54389-.054,4.681,4.681,0,0,1-.86476,1.31154c-.21193.26331-.46153.49625-.69439.74276l.07312.16512a4.42172,4.42172,0,0,1,1.63538,1.50674,16.79477,16.79477,0,0,0,3.25188-3.27768c.02874-.03715.07275-.09848.06007-.12443C28.01166,18.62994,27.93655,18.66,27.88237,18.665Z"/><path class="c" d="M30.40218,16.61721a2.28174,2.28174,0,0,0-1.38275-1.52679c.00243.05219.04194.12443-.0732.0976a1.58242,1.58242,0,0,0-1.81753,1.303,2.34217,2.34217,0,0,0,.48461,1.19389.81908.81908,0,0,1,.08683.184.73509.73509,0,0,1,.30931.17692,1.78819,1.78819,0,0,0,2.22982.09848.86679.86679,0,0,0,.359-1.02405C30.545,16.94864,30.44493,16.7903,30.40218,16.61721Z"/><path class="b" d="M18.51484,13.21363a6.15643,6.15643,0,0,1-.25-1.75561q.004-.53517.008-1.07064a13.27151,13.27151,0,0,1-2.24242.30253l-.00266-.00413-.0081-.0003v3.21046l.01312.00147-.00627-.0171a11.70768,11.70768,0,0,0,2.474-.36121C18.59062,13.42062,18.54094,13.321,18.51484,13.21363Z"/><path class="b" d="M21.28632.05042,21.03561.04954A2.17659,2.17659,0,0,0,19.527,1.14229a.56672.56672,0,0,0,.21216.20316,8.59273,8.59273,0,0,1,1.68012,1.60287c.12715.15687.18458.38126.41582.43993a1.96153,1.96153,0,0,0,1.00718-1.90156A1.86254,1.86254,0,0,0,21.28632.05042Z"/><path class="f" d="M23.09507,20.58752c-.0631.05986-.00737.11264.0171.15864a19.76114,19.76114,0,0,1,.83269,1.91129,4.133,4.133,0,0,0,.78559-.56319A4.42172,4.42172,0,0,0,23.09507,20.58752Z"/><path class="g" d="M27.1287,16.491a1.722,1.722,0,0,0-.09863.99368.4517.4517,0,0,0,.53775.45173q.06624-.034.13232-.06752a.81908.81908,0,0,0-.08683-.184A2.34217,2.34217,0,0,1,27.1287,16.491Z"/><path class="g" d="M25.00636,30.86757c-.14418-.10674-.29073-.21053-.43654-.31521-.04032-.02889-.08625-.06752-.12642-.00855-.03118.046-.00892.09436.02256.13711a2.13705,2.13705,0,0,0,.45651.38539.40827.40827,0,0,1,.13085.50745.71686.71686,0,0,1-.32472.41487.493.493,0,0,0,.60218-.40278A.70045.70045,0,0,0,25.00636,30.86757Z"/><path class="g" d="M25.3086,30.1543c-.02794-.01592-.09768-.01474-.10645.00147-.03052.05544.02455.08758.0617.11353a3.74129,3.74129,0,0,0,.399.26478.53562.53562,0,0,1,.27658.54668c.002.18723-.17787.312-.12686.49979.2998-.08846.33614-.33969.36658-.59445-.00147-.14271-.00368-.30134-.12642-.38538C25.81458,30.43737,25.55938,30.29849,25.3086,30.1543Z"/><path class="g" d="M19.10751,14.66877a7.30169,7.30169,0,0,1-.42467-.94385c-.03295-.09318-.058-.19343-.18237-.20582a11.70768,11.70768,0,0,1-2.474.36121l.00192.005-.00877.01062v1.39528c.02373.00088.06686-.00767.09067-.00678l-.00052-.00266A11.7043,11.7043,0,0,0,19.10751,14.66877Z"/><path class="h" d="M18.16742,2.20792a.54261.54261,0,0,0-.86424.45733,1.79879,1.79879,0,0,0,.17721.99428.806.806,0,0,0,.74873.51335.60742.60742,0,0,0,.65717-.56643A1.584,1.584,0,0,0,18.16742,2.20792Z"/><path class="i" d="M19.41048,5.79816c.05765.03685.13284.061.1694.11293.096.13534.11212.28867-.04268.38833-.14463.09288-.2367-.01268-.304-.13475-.02374-.04305-.04379-.08817-.06546-.1321l-.29825.069a1.56646,1.56646,0,0,0,.07076.65017c.07925.18871.18326.373.42342.36445.22189-.008.32759-.18134.39394-.36327a1.15994,1.15994,0,0,0-.17228-1.13316A.41763.41763,0,0,0,19.41048,5.79816Z"/><path class="j" d="M16.70623,7.07579a1.2887,1.2887,0,0,0-.68083-.06074h-.00582v1.0155l.00847.00354.07939-.051a1.4952,1.4952,0,0,0,.70163-.38715A.28783.28783,0,0,0,16.70623,7.07579Z"/><path class="k" d="M19.36935,5.57347c-.251.22616-.48446.49566-.83.138a.08843.08843,0,0,0-.13416.00855c-.06731.07548.02012.10084.05609.13445a1.18309,1.18309,0,0,0,.40817.2471l.29825-.069a.63425.63425,0,0,1,.24274-.23441.41763.41763,0,0,1,.17485-.1784l.61641-.65459-.0126-.09553C19.91543,5.10376,19.63694,5.33257,19.36935,5.57347Z"/><path class="l" d="M20.18914,4.86964l.0126.09553q.08968-.0942.17928-.18812l-.00627-.07843Q20.28187,4.78442,20.18914,4.86964Z"/><path class="m" d="M20.37475,4.69862l.00627.07843.116-.12767a.22092.22092,0,0,1-.00007-.0575A.1629.1629,0,0,0,20.37475,4.69862Z"/><path class="n" d="M20.4969,4.59188a.22092.22092,0,0,0,.00007.0575c.03642-.02035.06288-.04482.03848-.09082Z"/><path class="o" d="M19.41048,5.79816a.63425.63425,0,0,0-.24274.23441c.02167.04393.04172.08905.06546.1321.0673.12207.15937.22763.304.13475.1548-.09966.13866-.253.04268-.38833C19.54332,5.85919,19.46813,5.835,19.41048,5.79816Z"/><path class="a" d="M10.95974,0c.00082.01651.00244.033.00472.04954l-.25078.00088Q10.71712.02521,10.71818,0Z"/><path class="c" d="M7.78379,23.48129c.11426-.26419.18274-.54844.27135-.82384a19.76114,19.76114,0,0,1,.83269-1.91129c.02447-.046.39423-.78787.52986-1.02612A32.35433,32.35433,0,0,1,12.25,15.60082c.072-.09052.22167-.179.16918-.29427-.041-.09023-.20227-.02152-.30791-.04128a1.08334,1.08334,0,0,1-.11241-.0342c.47789.09819.72108-.17574.89365-.5623-.002.00973,3.01862.6254,3.02063.61567l.00008.00029c.02277,0,.04452.00737.06722.00649V28.00388l-.01105.00059a3.95776,3.95776,0,0,1-2.44477-.5797,9.26433,9.26433,0,0,1-.93464-.802c-.44613-.56731-.867-1.15674-1.34479-1.696a3.509,3.509,0,0,0-2.23063-1.13551,2.12376,2.12376,0,0,0-1.011-.00767C7.75681,23.80859,7.67086,23.74254,7.78379,23.48129Z"/><path class="p" d="M9.39,9.65642a2.81553,2.81553,0,0,0,1.36808-.50481c.10748-.07725.18746-.11794.317-.0224a7.45571,7.45571,0,0,0,2.54391,1.206.62106.62106,0,0,1,.10829.05219,13.27151,13.27151,0,0,0,2.24242.30253l.00266-.00413.0081-.0003V8.03055l-.00847.00354-.07939-.051a1.4952,1.4952,0,0,1-.70163-.38715.28783.28783,0,0,1,.10284-.52014,1.28147,1.28147,0,0,1,.67479-.061v.0003l.01186.00118V.07165L15.96937.07136q-.00033,3.46005-.00081,6.92039.00043-3.46.00081-6.92039a5.85556,5.85556,0,0,0-3.202.93677.54709.54709,0,0,1-.29427.13416.56672.56672,0,0,1-.21216.20316,8.59273,8.59273,0,0,0-1.68012,1.60287c-.12715.15687-.18458.38126-.41582.43993.09022.125-.02153.20169-.0704.2931a4.08427,4.08427,0,0,0-.00494,4.422c.08993.14006.08462.21673-.06723.309a2.1652,2.1652,0,0,0-.82841.97216C9.06541,9.66,9.07823,9.68915,9.39,9.65642Zm3.72373-6.05a1.584,1.584,0,0,1,.71887-1.39853.54261.54261,0,0,1,.86424.45733,1.79879,1.79879,0,0,1-.17721.99428.806.806,0,0,1-.74873.51335A.60742.60742,0,0,1,13.11371,3.60645Zm-1.64916.95211.03855.03332a.1629.1629,0,0,1,.12215.10674q.09288.0858.18561.171c.27371.23412.5522.46293.81979.70383.251.22616.48446.49566.83.138a.08843.08843,0,0,1,.13416.00855c.06731.07548-.02012.10084-.05609.13445a1.18309,1.18309,0,0,1-.40817.2471,1.56646,1.56646,0,0,1-.07076.65017c-.07925.18871-.18326.373-.42342.36445-.22189-.008-.32759-.18134-.39394-.36327a1.15994,1.15994,0,0,1,.17228-1.13316l-.61641-.65459q-.08969-.0942-.17928-.18812L11.503,4.64938C11.46661,4.629,11.44015,4.60456,11.46455,4.55856Z"/><path class="q" d="M5.14663,12.98128c1.94748-1.11458,3.95283-1.61408,6.11638-.65342a.32133.32133,0,0,0,.35295-.07106A4.67708,4.67708,0,0,1,13.7352,11.458a6.15643,6.15643,0,0,1-.25,1.75561c-.0261.10733-.07578.207.01437.30547-.12435.01239-.14942.11264-.18237.20582a7.30169,7.30169,0,0,1-.42467.94385c-.17257.38656-.41576.66049-.89336.5623-.26589-.05868-.38892.04187-.50067.30577a4.58294,4.58294,0,0,1-3.5749,2.75784c-.16638.03361-.33637.04954-.50466.07342a4.80348,4.80348,0,0,1-1.54389.054,2.27663,2.27663,0,0,1-1.44283-.48564.4517.4517,0,0,0,.53775-.45173A1.722,1.722,0,0,0,4.8713,16.491a1.58242,1.58242,0,0,0-1.81753-1.303c-.11514.02683-.07563-.04541-.0732-.0976A5.06448,5.06448,0,0,1,5.14663,12.98128Z"/><path class="q" d="M6.09483,29.827c.27031-.17249.54188-.34351.80954-.52013a1.89039,1.89039,0,0,0,.90028-1.5495,7.74121,7.74121,0,0,0-.01481-.99162,8.48027,8.48027,0,0,1,.2137-2.98223,2.12376,2.12376,0,0,1,1.011.00767,3.509,3.509,0,0,1,2.23063,1.13551c.47775.5393.89866,1.12873,1.34479,1.696-.15989.084-.3172.17368-.48033.25093q-.98044.46353-1.96437.92a1.42342,1.42342,0,0,0-.7715.80143,3.11164,3.11164,0,0,1-.427.75927.67531.67531,0,0,0-.03885.9816c.05359.08521.11359.1663.16372.25328a.50339.50339,0,0,1-.16247.73539,5.68087,5.68087,0,0,1-1.63773.664.71686.71686,0,0,1-.32472-.41487.40827.40827,0,0,1,.13085-.50745,2.13705,2.13705,0,0,0,.45651-.38539c.03148-.04275.05374-.09111.02256-.13711-.04017-.059-.0861-.02034-.12642.00855-.14581.10468-.29236.20847-.43654.31521a.70045.70045,0,0,0-.32442.71828c-.16078.01239-.32236.1032-.48181-.0053.051-.18783-.12885-.31256-.12686-.49979a.53562.53562,0,0,1,.27658-.54668,3.74129,3.74129,0,0,0,.399-.26478c.03715-.026.09222-.05809.0617-.11353-.00877-.01621-.07851-.01739-.10645-.00147-.25078.14419-.506.28307-.74415.44642-.12274.084-.125.24267-.12642.38538C5.48955,30.41289,5.54528,30.17789,6.09483,29.827Z"/><path class="p" d="M1.59782,16.61721a2.28174,2.28174,0,0,1,1.38275-1.52679c-.00243.05219-.04194.12443.0732.0976A1.58242,1.58242,0,0,1,4.8713,16.491a2.34217,2.34217,0,0,1-.48461,1.19389.81908.81908,0,0,0-.08683.184.73509.73509,0,0,0-.30931.17692,1.78819,1.78819,0,0,1-2.22982.09848.86679.86679,0,0,1-.359-1.02405C1.455,16.94864,1.55507,16.7903,1.59782,16.61721Z"/><path class="c" d="M13.48516,13.21363a6.15643,6.15643,0,0,0,.25-1.75561q-.004-.53517-.008-1.07064a13.27151,13.27151,0,0,0,2.24242.30253l.00266-.00413.0081-.0003v3.21046l-.01312.00147.00627-.0171a11.70768,11.70768,0,0,1-2.474-.36121C13.40938,13.42062,13.45906,13.321,13.48516,13.21363Z"/><path class="c" d="M10.71368.05042l.25071-.00088a2.17659,2.17659,0,0,1,1.50866,1.09275.56672.56672,0,0,1-.21216.20316,8.59273,8.59273,0,0,0-1.68012,1.60287c-.12715.15687-.18458.38126-.41582.43993A1.96153,1.96153,0,0,1,9.15777,1.48669,1.86254,1.86254,0,0,1,10.71368.05042Z"/><path class="r" d="M4.8713,16.491a1.722,1.722,0,0,1,.09863.99368.4517.4517,0,0,1-.53775.45173q-.06624-.034-.13232-.06752a.81908.81908,0,0,1,.08683-.184A2.34217,2.34217,0,0,0,4.8713,16.491Z"/><path class="r" d="M6.99364,30.86757c.14418-.10674.29073-.21053.43654-.31521.04032-.02889.08625-.06752.12642-.00855.03118.046.00892.09436-.02256.13711a2.13705,2.13705,0,0,1-.45651.38539.40827.40827,0,0,0-.13085.50745.71686.71686,0,0,0,.32472.41487.493.493,0,0,1-.60218-.40278A.70045.70045,0,0,1,6.99364,30.86757Z"/><path class="r" d="M6.6914,30.1543c.02794-.01592.09768-.01474.10645.00147.03052.05544-.02455.08758-.0617.11353a3.74129,3.74129,0,0,1-.399.26478.53562.53562,0,0,0-.27658.54668c-.002.18723.17787.312.12686.49979-.2998-.08846-.33614-.33969-.36658-.59445.00147-.14271.00368-.30134.12642-.38538C6.18542,30.43737,6.44062,30.29849,6.6914,30.1543Z"/><path class="r" d="M12.89249,14.66877a7.30169,7.30169,0,0,0,.42467-.94385c.033-.09318.058-.19343.18237-.20582a11.70768,11.70768,0,0,0,2.474.36121l-.00192.005.00877.01062v1.39528c-.02373.00088-.06686-.00767-.09067-.00678l.00052-.00266A11.7043,11.7043,0,0,1,12.89249,14.66877Z"/><path class="s" d="M13.83258,2.20792a.54261.54261,0,0,1,.86424.45733,1.79879,1.79879,0,0,1-.17721.99428.806.806,0,0,1-.74873.51335.60742.60742,0,0,1-.65717-.56643A1.584,1.584,0,0,1,13.83258,2.20792Z"/><path class="g" d="M12.58952,5.79816c-.05765.03685-.13284.061-.1694.11293-.096.13534-.11212.28867.04268.38833.14463.09288.2367-.01268.304-.13475.02374-.04305.04379-.08817.06546-.1321l.29825.069a1.56646,1.56646,0,0,1-.07076.65017c-.07925.18871-.18326.373-.42342.36445-.22189-.008-.32759-.18134-.39394-.36327a1.15994,1.15994,0,0,1,.17228-1.13316A.41763.41763,0,0,1,12.58952,5.79816Z"/><path class="t" d="M15.29377,7.07579a1.2887,1.2887,0,0,1,.68083-.06074h.00582v1.0155l-.00847.00354-.07939-.051a1.4952,1.4952,0,0,1-.70163-.38715A.28783.28783,0,0,1,15.29377,7.07579Z"/><path class="k" d="M12.63065,5.57347c.251.22616.48446.49566.83.138a.08843.08843,0,0,1,.13416.00855c.06731.07548-.02012.10084-.05609.13445a1.18309,1.18309,0,0,1-.40817.2471l-.29825-.069a.63425.63425,0,0,0-.24274-.23441.41763.41763,0,0,0-.17485-.1784l-.61641-.65459.0126-.09553C12.08457,5.10376,12.36306,5.33257,12.63065,5.57347Z"/><path class="l" d="M11.81086,4.86964l-.0126.09553q-.08969-.0942-.17928-.18812l.00627-.07843Q11.71813,4.78442,11.81086,4.86964Z"/><path class="m" d="M11.62525,4.69862l-.00627.07843L11.503,4.64938a.22092.22092,0,0,0,.00007-.0575A.1629.1629,0,0,1,11.62525,4.69862Z"/><path class="n" d="M11.5031,4.59188a.22092.22092,0,0,1-.00007.0575c-.03642-.02035-.06288-.04482-.03848-.09082Z"/><path class="o" d="M12.58952,5.79816a.63425.63425,0,0,1,.24274.23441c-.02167.04393-.04172.08905-.06546.1321-.0673.12207-.15937.22763-.304.13475-.1548-.09966-.13866-.253-.04268-.38833C12.45668,5.85919,12.53187,5.835,12.58952,5.79816Z"/></svg>