<svg xmlns="http://www.w3.org/2000/svg" viewBox="0 0 32 32"><defs><style>.a{fill:#3e688c;}.b{fill:#b9bfbe;}.c{fill:#567b9b;}.d{fill:#365c84;}.e{fill:#a8364c;}.f{fill:#b93d4f;}.g{fill:#993147;}.h{fill:#c8cccb;}.i{fill:#912b41;}.j{fill:#dbba8c;}.k{fill:#67a1b7;}.l{fill:#e5c79a;}.m{fill:#c09265;}.n{fill:#af384d;}.o{fill:#066286;}.p{fill:#e6cfd7;}.q{fill:#e9e8e8;}.r{fill:#962931;}.s{fill:#e8ba36;}.t{fill:#2b3332;}.u{fill:#e5c071;}.v{fill:#00678d;}.w{fill:#456f93;}.x{fill:#4c7495;}.y{fill:#c84054;}.z{fill:#d1d4d4;}.aa{fill:#e0c193;}.ab{fill:#eacea1;}.ac{fill:#cda073;}.ad{fill:#396186;}.ae{fill:#9c2c30;}.af{fill:#f0c13e;}.ag{fill:#373f3f;}</style></defs><title>621-druddigon</title><path class="a" d="M20.43449,6.801c.28182-.633.56907-1.26374.8421-1.90054.08047-.18769.1518-.25552.336-.10625.16576.1343.36073.23212.52989.36277.13993.10809.19019.07307.25311-.0799.279-.67842.57709-1.349.85367-2.0284.079-.194.15477-.22814.35325-.14188.51364.22324,1.04334.40924,1.55985.62624.177.07435.234.03845.29182-.14084.29366-.9108.60279-1.81662.9065-2.72418H26.422c.82911.51152,1.70728.93038,2.57593,1.36745a.39583.39583,0,0,0,.29255-.00579c.86345-.1867,1.71685-.41965,2.58942-.5644-1.27947.813-2.5556,1.63129-3.83912,2.43784q-3.87855,2.43723-7.76347,4.86428a1.97329,1.97329,0,0,1-.097-.18735c-.26208-.66645-.26094-.66595.31427-1.09134.15467-.11438.43255-.23866.42912-.35157-.0061-.201-.31929-.18316-.467-.31515Z"/><path class="b" d="M23.29431,31.332a2.3188,2.3188,0,0,0-.96587-.41188.90314.90314,0,0,1-.328-.144l-.05825-.05578.0044.002c-.04139-.40107.09142-.5688.46391-.56568a1.87487,1.87487,0,0,1,.32738.05973,1.86761,1.86761,0,0,0,.43372.441c-.0069.24348.159.43982.184.67461Z"/><path class="c" d="M22.73793,30.21636a1.87487,1.87487,0,0,0-.32738-.05973c-.37249-.00312-.5053.16461-.46391.56568A3.65284,3.65284,0,0,1,20.44,29.713a2.15636,2.15636,0,0,1-.36033-1.51188,8.17634,8.17634,0,0,1,.36487-1.7314c.15248-.6892.12822-1.27507-.57385-1.66538-.2098-.11664-.3556-.39719-.56768-.44779-.23123-.05518-.35462.27367-.55922.39345a3.98281,3.98281,0,0,1-.785.40584l-.30812-.44713.92614-1.65342c.07753-.20882-.08382-.35385-.1492-.51975-.24-.609-.56819-1.18114-.76139-1.81026q.49428-.79773.98888-1.59527c.03046-.049.03584-.0921-.01522-.13011L17.5893,17.10407c.33237-.51729.66664-1.03337.99464-1.55341.04047-.06416.15819-.1244.05442-.22841l-1.1095-1.83664c.30467-.44726.61282-.89224.91036-1.3442.04609-.07.18491-.13136.07773-.25514l-1.051-1.892a3.19005,3.19005,0,0,1,.69958-.0389.79275.79275,0,0,0,1.03174-.76529l.04919-.121.01214-.063.05027-.11884.00035-.00066.19363-.005.17612.017c.05106.06161.12061.04821.18736.04617l.0289-.0027.0277.00866-.06294.058-.06119.05948q-.03.002-.0601.00244l-.06281.06005-.00048.00045-.06055.059q-.03024.002-.06055.00288c-.02759.024-.07358.04462-.0788.07277-.00984.05313.04422.04366.07846.049.231.00533.43338.16306.67229.12618-.04931.09769.034.121.09037.1544a2.9158,2.9158,0,0,1,.57707.47958c-.14412.11257-.38026.09538-.46851.26085a.72613.72613,0,0,0,.02861.72932.815.815,0,0,0,.76578.3419c.27516.01106.22841-.2376.32007-.37425a1.2844,1.2844,0,0,0,.06984-.1349c.68772.71222,1.43317,1.36147,2.1851,2.00366.0155.01323.02958.033.04751.03782.79265.21268.82056.8902.92573,1.52079-.07863.01589-.14225-.06328-.23279-.01891a.7008.7008,0,0,0-.29546.8659c.19162.37816.42024.45183.76828.24756l.07458.20254a.95388.95388,0,0,0,.11048.39341l.00787.22865c-.12061.00831-.22876-.10624-.36621.01327a.65806.65806,0,0,0-.16689.909c.23622.34223.3536.35845.76963.10637a2.96064,2.96064,0,0,1,.24491.94805c-.48746-.148-.67877-.06863-.80608.3342a.72688.72688,0,0,0,.32811.75422c.2384.20076.3364-.04223.48563-.11847a2.98959,2.98959,0,0,0,.3022-.201c.21782.12912.33487.37423.56418.49012a1.79676,1.79676,0,0,0,.41206.31037.34216.34216,0,0,1,.18762.46091,5.472,5.472,0,0,1-.60978,1.067c-.13035-.32146-.24586-.36529-.66817-.25354.01432-.14883.02168-.29877.045-.44617.02061-.13-.04233-.15488-.14846-.14533-.20278.08027-.367-.29153-.49747-.11286-.09907.13572-.01541.40483-.01306.61458a1.7496,1.7496,0,0,1-.1387.6382.6886.6886,0,0,0-.72746-.25282c0-.12231.00755-.24518-.0014-.36683a.96449.96449,0,0,0-.99136-.947,5.50545,5.50545,0,0,1-.84972.048c.07-.58269-.05666-.75053-.60851-.806.04426-.09441.15846-.14021.176-.25319a2.34993,2.34993,0,0,0,.44432-1.121,9.52418,9.52418,0,0,0,.05586-1.71036,5.42007,5.42007,0,0,1,.19316-1.90638c.04647-.14171-.00956-.20176-.10093-.27784a14.41605,14.41605,0,0,0-1.76614-1.31224,6.32569,6.32569,0,0,0-.573-.28447c-.1455-.06854-.21485-.07313-.1775.1401.37438,2.13772.93251,4.23657,1.34375,6.36642.01788.09261-.00884.24212.15193.26647a.17647.17647,0,0,0,.05133.286,1.23382,1.23382,0,0,0,.00077,1.25124c.04058.069.07412.18607.14615.17749.09387-.01119.03608-.1293.05462-.19851a.603.603,0,0,1,.12066-.30513,3.34154,3.34154,0,0,0,.73464,1.09839c-.075.01645-.15449-.00719-.21636.07726a1.34815,1.34815,0,0,0,.5715,2.006c.42136.17912.44337.1719.67789-.20851.07448-.1208.15215-.23963.22836-.35936a2.08111,2.08111,0,0,1-.14018,2.63446,2.2268,2.2268,0,0,1-.64607.50918,2.551,2.551,0,0,0-1.03844,1.214,1.12777,1.12777,0,0,0,.74837,1.41463,2.0078,2.0078,0,0,1,.9865.37867c-.16022.10963-.34613.19582-.38185.41892C22.99838,29.73116,22.90651,29.78391,22.73793,30.21636Z"/><path class="d" d="M26.55622,19.61511c-.22931-.11589-.34636-.361-.5642-.4901.0942-.0762.18794-.153.28282-.22843.07025-.05584.19276-.0917.18875-.18135-.00468-.10464-.14073-.094-.21938-.12953-.18436-.08316-.37433-.15392-.562-.2297a2.96027,2.96027,0,0,0-.24492-.948l.37171-.31141a.26456.26456,0,0,0,.42734-.11624c.03315-.06157.08291-.114.11894-.17424.28165-.471.25-.56831-.245-.76536a.27882.27882,0,0,1-.02671-.014,6.43839,6.43839,0,0,0,.47774-.8778c.2706.32286.3461.30981.51043-.09456a1.75087,1.75087,0,0,0,.09391-.414.26243.26243,0,0,0-.25842-.34307,9.23508,9.23508,0,0,0,.34334-1.61118,1.42129,1.42129,0,0,1,.04317-.17627c.08144.02816.06953.11143.08546.168A8.23744,8.23744,0,0,1,26.55622,19.61511Z"/><path class="e" d="M24.06386,23.15606c-.07621.11973-.15388.23856-.22836.35936-.23452.38041-.25653.38763-.67789.20851a1.34815,1.34815,0,0,1-.5715-2.006c.06187-.08445.14135-.06081.21637-.07726l1.5047.207a.80113.80113,0,0,1-.11.49313c-.11548.2046-.02578.23171.14951.2183Z"/><path class="b" d="M22.73793,30.21636c.16858-.43245.26045-.4852.85426-.49048l.547.43838a3.94762,3.94762,0,0,1,.30687.85951c.01389.06929.039.15407-.01713.20441-.06423.05764-.13179-.01495-.194-.0385a5.50379,5.50379,0,0,1-1.06322-.53227A1.86761,1.86761,0,0,1,22.73793,30.21636Z"/><path class="f" d="M25.00781,15.55473c-.348.20427-.57666.1306-.76828-.24756a.7008.7008,0,0,1,.29546-.8659c.09054-.04437.15416.0348.23279.01891.2801.11155.56161.21978.83931.337.06938.02928.18684.02224.189.11857.00105.04625-.08937.09869-.14382.14135C25.43864,15.22449,25.22282,15.38909,25.00781,15.55473Z"/><path class="g" d="M26.08356,16.02668a.27882.27882,0,0,0,.02671.014c.495.19705.52663.29437.245.76536-.036.06026-.08579.11267-.11894.17424a.26457.26457,0,0,1-.42735.11625.86621.86621,0,0,0,.14179-.10867c.05678-.065.20163-.06151.18021-.17318-.018-.09358-.13672-.1034-.21867-.13762a2.32789,2.32789,0,0,0-.415-.1261c-.00857-.01852-.11825-.16417-.12682-.18269L25.32,16.30264l-.12711-.15195a.954.954,0,0,1-.11048-.39342Z"/><path class="g" d="M26.90722,14.29727a.26243.26243,0,0,1,.25842.34307,1.75087,1.75087,0,0,1-.09391.414c-.16433.40437-.23983.41742-.51043.09456-.16993-.25208-.34059-.50366-.509-.75673-.02708-.04068-.07277-.09976-.06031-.12979.02905-.07.10348-.02635.15739-.02283C26.40214,14.25605,26.65462,14.27755,26.90722,14.29727Z"/><path class="b" d="M24.13914,30.16427l-.547-.43839c.03572-.22309.22163-.30928.38185-.41891.37308.12452.73256.26435.86315.69307.02642.08672.09013.17535.00982.25423-.06356.06242-.15336.0332-.233.01554Q24.37652,30.21721,24.13914,30.16427Z"/><path class="h" d="M24.34667,22.55911c-.17529.01341-.265-.0137-.14951-.2183a.8016.8016,0,0,0,.11-.49335c0-.12527-.07524-.26968.09064-.352a.6886.6886,0,0,1,.72746.25282C25.11324,22.25624,24.74019,22.41751,24.34667,22.55911Z"/><path class="h" d="M25.87795,21.19988c.42231-.11175.53782-.06792.66817.25354-.02781.397-.13193.49409-.53.49809a1.59541,1.59541,0,0,1-.48229-.05571c-.12163-.03643-.18262-.05917-.04378-.15743A1.22089,1.22089,0,0,0,25.87795,21.19988Z"/><path class="d" d="M25.264,21.1101c-.00235-.20975-.086-.47886.01306-.61458.13042-.17867.29469.19313.49747.11286Z"/><path class="f" d="M22.10132,9.5896c-.03571-.03589-.07038-.001-.09717.02954q-.55527.22779-1.11047.45581c-.14417.11255-.38031.09546-.46857.261a.72612.72612,0,0,0,.02863.72925.815.815,0,0,0,.7658.34179c.27515.011.2284-.23755.32007-.37427a1.27532,1.27532,0,0,0,.06983-.13476q.23162-.60571.46319-1.21094C22.10468,9.66064,22.13641,9.62451,22.10132,9.5896Z"/><path class="e" d="M20.45665,6.8218l-.02209-.021A3.74073,3.74073,0,0,1,19.904,6.575c-.14218-.05032-.16891-.14316-.17318-.28033-.031-.9991-.06858-1.9979-.10736-2.9967a1.11112,1.11112,0,0,1,.0411-.36059c-.11717-.07847-.16217.01977-.21616.09015q-.669.87016-1.33573,1.74154c-.11156.14675-.21615.21653-.34815.02695a.33529.33529,0,0,0-.04313-.04312c-.16068-.15694-.31274-.42828-.48428-.44115-.20762-.01588-.18389.34351-.33618.49955a1.94635,1.94635,0,0,1-.84261.57951c-.0319.00479-.04036-.00479-.05833.01048v2.746c.179.00089.35827.00748.537,0,.17752-.00719.26205.07187.2649.24588a.4.4,0,0,1,.11635.24139c.13507.12189.1323.34022.305.43576a.22346.22346,0,0,1,.05652-.0036c.13373-.10242.28834-.04013.43329-.0545.29156-.07278.22185-.38784.37235-.55526l.05345-.06858a.21047.21047,0,0,1,.00659-.05182l.05788-.12578a1.369,1.369,0,0,1,.17625-.40521c.03122-.06379.07345-.09374.131-.02336l.24349.29919c.07083-.08895.17-.2956.20343-.24708.08925.12968-.05443.26265-.13462.383-.24371.08835-.19415-.18509-.3117-.25247-.16547.07038-.11186.28182-.24176.375l-.0608.12249a.263.263,0,0,1-.00794.05541.13288.13288,0,0,1-.0551.12668c-.09546.16712-.05084.42019-.30166.49206a1.734,1.734,0,0,1-.72193.047c-.09164.00119-.13612-.07907-.14637-.16952l-.0623-.06708-.05975-.0599c-.16786-.08386-.31648-.1189-.39607.1162A.36532.36532,0,0,1,16,9.251v.01617l.00007.0003L16,9.27523V10.2914c.18366.01977.29927.16023.43524.25816.12316.08865.2056.097.29664-.03324.075-.10722.16959-.20066.24521-.30728a.43951.43951,0,0,1,.48884-.21473,3.18164,3.18164,0,0,1,.69954-.03894.79277.79277,0,0,0,1.03175-.7652,2.68128,2.68128,0,0,0,.11163-.30278l.0003-.0009c.06207-.09763.12788-.04732.19355-.00479q.08815.00854.17625.01677a.20919.20919,0,0,1,.18733.04642l.0289-.00269.0277.00838.17648.0033c.06776-.01528.14959.00778.19429-.071l-.01632-.11561a1.948,1.948,0,0,1-.097-.18748c-.26206-.66637-.26094-.66577.31431-1.09134.15461-.11411.43254-.2384.4291-.35131C20.91757,6.9362,20.60445,6.95387,20.45665,6.8218Zm-4.2485.85924c-.023.0003-.06439-.05151-.066-.08146a.09791.09791,0,0,1,.11186-.10692c.0292.0018.05608.04193.07892.0605C16.31229,7.63342,16.27224,7.68074,16.20815,7.681ZM16.859,6.19287l-.1225.18508c-.07479.11471-.10175.26116-.22506.342-.01.00659-.06552-.02665-.06417-.03684a.75206.75206,0,0,1,.22364-.37286l.12474-.18269c.13867-.19677.27673-.39383.41652-.5897.01617-.02246.04979-.0584.06229-.05361.05578.021.02059.06379.00742.09434A1.9152,1.9152,0,0,1,16.859,6.19287Zm.90318.91554a.54355.54355,0,0,1-.48068-.2333L17.21968,6.802l-.00038.0042c-.059-.04732-.18718-.07458-.05106-.1779q.15184-.09793.30353-.19617l-.004.00389a1.88035,1.88035,0,0,1,.47035-.36478c.129-.09943.26632-.18957.38507-.29979.17363-.16112.25082-.09853.30128.1C18.80908,6.59868,18.44482,7.12339,17.7622,7.10841Z"/><path class="i" d="M19.655,2.75112c-.27044-.03594-.28729-.24559-.35235-.43127-.11418-.32585-.2244-.65319-.34547-.97664-.0986-.26325-.19676-.28122-.37211-.0557-.28707.36957-.56784.74483-.83394,1.12938a.30326.30326,0,0,1-.3942.15393A3.59188,3.59188,0,0,0,16,2.45672V5.40191a.28058.28058,0,0,1,.05833-.01108,1.94635,1.94635,0,0,0,.84261-.57951c.15229-.156.12856-.51543.33618-.49955.17154.01287.3236.28421.48428.44115a.33529.33529,0,0,1,.04313.04312c.132.18958.23659.1198.34815-.02695q.66432-.87331,1.33573-1.74154c.054-.07038.099-.16862.21616-.09015C19.66607,2.87271,19.80541,2.77088,19.655,2.75112Z"/><path class="j" d="M17.65072,24.7086Q16.82536,24.7077,16,24.7062v.98623c.04485.00269.10183.00389.19055.00389a5.31473,5.31473,0,0,0,1.09224-.23121,1.442,1.442,0,0,0,.676-.30937Q17.80485,24.93246,17.65072,24.7086Z"/><path class="k" d="M21.94224,30.72032l.05825.05578C21.96671,30.77248,21.94018,30.76133,21.94224,30.72032Z"/><path class="l" d="M18.42767,22.53549c-.24-.60886-.56821-1.18119-.76138-1.81012q-.83322-.0027-1.66629-.00569v2.33573h2.5769C18.65439,22.84636,18.493,22.70141,18.42767,22.53549Z"/><path class="l" d="M18.63994,18.9997q-.52539-.94788-1.05062-1.89578Q16.79462,17.103,16,17.10153v2.02815l2.41817-.06289C18.49828,19.06439,18.58244,19.077,18.63994,18.9997Z"/><path class="l" d="M17.52883,13.48547q-.76438-.0009-1.52883-.00239v1.90626c.774-.0009,1.54807-.0003,2.322-.00449.10729-.0003.22731.03923.31634-.0626Q18.08355,14.404,17.52883,13.48547Z"/><path class="m" d="M18.63837,15.32225c-.089.10183-.209.0623-.31634.0626-.774.00419-1.548.00359-2.322.00449v1.71219q.79458.0009,1.58932.00239c.33236-.51722.6666-1.03324.99461-1.55316C18.62444,15.48637,18.74214,15.42618,18.63837,15.32225Z"/><path class="m" d="M18.63994,18.9997c-.0575.07727-.14166.06469-.22177.06709L16,19.12968v1.59q.83311.00313,1.66629.00569.49428-.79785.98885-1.59539C18.68561,19.08086,18.691,19.038,18.63994,18.9997Z"/><path class="l" d="M18.51692,11.88619q-.52549-.94609-1.051-1.89188a.43951.43951,0,0,0-.48884.21473c-.07562.10662-.17026.20006-.24521.30728-.091.13028-.17348.12189-.29664.03324-.1359-.09793-.2515-.23839-.43524-.25816v1.72417l2.29522-.06289C18.37519,11.95058,18.45935,11.96286,18.51692,11.88619Z"/><path class="m" d="M16,23.05541V24.7062q.82536.0009,1.65072.0024.46305-.82659.92618-1.65319Z"/><path class="m" d="M18.51692,11.88619c-.05757.07667-.14173.06439-.2217.06649L16,12.01557v1.46751q.76437.00135,1.52883.00239c.30473-.44714.61283-.89218.91037-1.34411C18.48533,12.07128,18.62414,12.01018,18.51692,11.88619Z"/><path class="d" d="M24.39784,21.49548c-.16588.0823-.09067.22671-.09064.352q-.75237-.10318-1.50472-.20682a3.34123,3.34123,0,0,1-.73465-1.09842.5689.5689,0,0,1,.48753-.31256,5.50545,5.50545,0,0,0,.84972-.048.96449.96449,0,0,1,.99136.947C24.40539,21.2503,24.39781,21.37317,24.39784,21.49548Z"/><path class="f" d="M25.68218,18.356c.1877.07578.37767.14654.562.2297.07865.03548.2147.02489.21938.12953.004.08965-.1185.12551-.18875.18135-.09488.0754-.18862.15223-.28282.22843a2.99026,2.99026,0,0,1-.30218.20094c-.14923.07624-.24723.31923-.48563.11847a.72688.72688,0,0,1-.32811-.75422C25.00341,18.28737,25.19472,18.20805,25.68218,18.356Z"/><path class="f" d="M25.91229,16.67709c.082.03422.20071.044.21867.13762.02142.11167-.12343.10818-.18021.17318a.86621.86621,0,0,1-.14179.10867l-.3717.3114c-.416.25207-.5334.23585-.76962-.10638a.65806.65806,0,0,1,.16689-.909c.13745-.11951.298-.02708.3662-.01336C25.20071,16.37916,25.74833,16.60862,25.91229,16.67709Z"/><path class="h" d="M22.55536,20.22966a.5689.5689,0,0,0-.48753.31256.60322.60322,0,0,0-.12066.30516c-.01854.06921.03925.18732-.05462.19851-.072.00858-.10557-.10851-.14615-.17749a1.23383,1.23383,0,0,1-.00076-1.25126c.06447-.06723.09879-.16579.20121-.19352C22.4987,19.47913,22.62541,19.647,22.55536,20.22966Z"/><path class="d" d="M21.94685,19.42362c-.10242.02773-.13674.12629-.20121.19352a.17644.17644,0,0,1-.05134-.286l.24976-.08339.05647-.03187.12231-.04549C22.10531,19.28341,21.99111,19.32921,21.94685,19.42362Z"/><path class="n" d="M19.67889,8.89868c.05109.06153.12061.0481.18738.04614A.20929.20929,0,0,0,19.67889,8.89868Z"/><path class="n" d="M19.30914,8.88672l.19361-.00513C19.437,8.83887,19.37122,8.78882,19.30914,8.88672Z"/><path class="o" d="M19.85994,9.00871l-.06119.0595Z"/><path class="o" d="M19.73865,9.07063l-.06281.06006Z"/><path class="o" d="M19.67536,9.13113l-.06056.059Z"/><path class="d" d="M30.28516,3.83154q.86013-1.15026,1.71209-2.30664c.01667-.12988-.04553-.10425-.11731-.05957-1.27948.813-2.5556,1.63111-3.83911,2.43775Q24.1623,6.3402,20.27734,8.76733l.0163.11548c-.04468.07886-.12646.05567-.19427.07105q-.08826-.00183-.17652-.00318l-.06293.05811-.06115.05933c-.02.00146-.04.00219-.06012.00244l-.06281.06006-.00049.00048-.06054.05909c-.02014.00122-.04035.00219-.06055.00268-.02759.02417-.07361.04468-.0788.07276-.00982.05322.04419.04394.07843.04931.231.00513.43341.16309.67237.126a4.09138,4.09138,0,0,1,.91137-.08277,11.7282,11.7282,0,0,1,2.38837.343c.1745.03955.20569-.00171.21777-.15576.01825-.23389.06922-.46533.07966-.699.00878-.19532.08447-.19361.24359-.15332.77014.19555,1.54541.37109,2.31445.57055.18268.04737.24292.00879.29077-.16748.187-.68774.40192-1.36816.57935-2.05835.06237-.24267.13348-.2998.3825-.219.833.27,1.6756.51,2.51246.76831.19183.05932.27661.06421.25964-.19238-.0705-1.06934-.11878-2.14039-.17181-3.21094A.48157.48157,0,0,1,30.28516,3.83154Z"/><path class="p" d="M25.37043,16.3683,25.32,16.30263Z"/><path class="q" d="M17.93817,6.07123c.129-.09921.26628-.18952.38507-.29974.1736-.16107.25081-.09868.30127.10013.18456.72714-.17971,1.25181-.86224,1.23692C18.13209,6.76257,18.16653,6.5594,17.93817,6.07123Z"/><path class="r" d="M16.72582,8.39772C16.51655,8.15094,16.24326,8.313,16,8.283v.968a.36532.36532,0,0,0,.4574-.24768c.07959-.2351.22821-.20006.39607-.1162l.003-.06379Z"/><path class="s" d="M17.93817,6.07123c.22836.48817.19392.69134-.1759,1.03731A.5437.5437,0,0,1,17.2815,6.875l-.06186-.0729-.00036.004-.051-.17769.30355-.1962c-.00458.05991-.01214.11978-.01293.17974-.00085.06524.02395.12639.09423.13137a.15748.15748,0,0,0,.12839-.0491.25187.25187,0,0,0,.012-.171c-.03452-.11514-.135-.09651-.22568-.08712A1.88192,1.88192,0,0,1,17.93817,6.07123Z"/><path class="t" d="M16.333,7.55318c-.02068.08034-.06077.12742-.12482.128-.023.00019-.06438-.05167-.066-.08148a.098.098,0,0,1,.1119-.10693C16.28326,7.49454,16.31009,7.53458,16.333,7.55318Z"/><path class="t" d="M17.27448,5.48438c-.01252-.00489-.04609.031-.06226.05371-.13983.1958-.27789.39257-.4165.58935l-.12476.18262a.75541.75541,0,0,0-.22369.37305c-.00129.01025.05413.04321.0642.03662.1233-.08081.15027-.22705.2251-.3418q.06124-.09228.12244-.18506a1.91473,1.91473,0,0,0,.42291-.61426C17.295,5.5481,17.33026,5.50537,17.27448,5.48438Z"/><path class="q" d="M17.16826,6.62842l.051.17769C17.16033,6.75893,17.03214,6.73162,17.16826,6.62842Z"/><path class="u" d="M17.21964,6.80207l.06186.0729Z"/><path class="t" d="M18.9574,7.83447c-.03351-.04883-.13257.15821-.20337.24707q-.12177-.14942-.24353-.29931c-.0575-.07032-.09973-.04053-.131.02343a1.37324,1.37324,0,0,0-.17627.405l-.0578.12574a.21391.21391,0,0,0-.0066.052l-.05358.0686c-.15039.16748-.08069.48242-.37226.55518-.145.0144-.29956-.04785-.43329.05468a.23044.23044,0,0,0-.05651.00342c-.17267-.09546-.16993-.314-.305-.43579a.40071.40071,0,0,0-.11639-.24145c-.00275-.17383-.08728-.25293-.26483-.24561-.17871.00733-.358.00049-.537.00025V8.283c.24329.03.51654-.13208.72583.11475l.13068.42578a.237.237,0,0,1,.0512.01684h0a.23646.23646,0,0,0-.05126-.01684l-.003.06372.05982.05981.06232.0669c.01019.09057.05462.17065.1463.16967a1.737,1.737,0,0,0,.72186-.04687c.25092-.072.2063-.325.3017-.49219a.13293.13293,0,0,0,.05517-.12671.26356.26356,0,0,0,.00794-.05542h0l.06073-.12256c.12994-.093.07635-.30468.24182-.375.11749.06739.068.34107.31164.25269C18.903,8.09717,19.04663,7.96387,18.9574,7.83447Z"/><path class="v" d="M22.00053,19.21591l-.05647.03187Z"/><path class="t" d="M17.46784,6.43612c.09064-.00939.19116-.028.22568.08712a.25187.25187,0,0,1-.012.171.15748.15748,0,0,1-.12839.0491c-.07028-.005-.09508-.06613-.09423-.13137.00079-.06.00835-.11983.01293-.17974Z"/><path class="w" d="M11.56549,6.801c-.28182-.633-.56907-1.26374-.8421-1.90054-.08047-.18769-.1518-.25552-.336-.10625-.16576.1343-.36073.23212-.52989.36277-.13994.10809-.1902.07307-.25311-.0799-.279-.67842-.57709-1.349-.85367-2.0284-.079-.194-.15477-.22814-.35326-.14188C7.8838,3.13,7.3541,3.316,6.83759,3.533c-.177.07435-.234.03845-.29182-.14084C6.25211,2.48136,5.943,1.57554,5.63927.668H5.57794c-.82911.51152-1.70728.93038-2.57593,1.36745a.39583.39583,0,0,1-.29255-.00579C1.846,1.84294.99261,1.61.12,1.46524c1.27947.813,2.5556,1.63129,3.83912,2.43784q3.87855,2.43723,7.76346,4.86428A1.97106,1.97106,0,0,0,11.81967,8.58c.26208-.66645.26094-.66595-.31427-1.09134-.15467-.11438-.43255-.23866-.42913-.35157.00611-.201.3193-.18316.467-.31515Z"/><path class="h" d="M8.70567,31.332a2.31874,2.31874,0,0,1,.96587-.41188.90314.90314,0,0,0,.32795-.144l.05825-.05578-.0044.002c.04139-.40107-.09143-.5688-.46392-.56568a1.87493,1.87493,0,0,0-.32737.05973,1.8678,1.8678,0,0,1-.43372.441c.0069.24348-.159.43982-.184.67461Z"/><path class="x" d="M9.26205,30.21636a1.87493,1.87493,0,0,1,.32737-.05973c.37249-.00312.50531.16461.46392.56568A3.6529,3.6529,0,0,0,11.56,29.713a2.15636,2.15636,0,0,0,.36033-1.51188,8.17634,8.17634,0,0,0-.36487-1.7314c-.15248-.6892-.12822-1.27507.57384-1.66538.20981-.11664.35561-.39719.56768-.44779.23124-.05518.35463.27367.55923.39345a3.98281,3.98281,0,0,0,.785.40584l.30812-.44713-.92615-1.65342c-.07752-.20882.08383-.35385.14921-.51975.24-.609.56819-1.18114.76138-1.81026q-.49427-.79773-.98888-1.59527c-.03045-.049-.03583-.0921.01523-.13011l1.05062-1.89584c-.33236-.51729-.66663-1.03337-.99463-1.55341-.04047-.06416-.15819-.1244-.05442-.22841l1.1095-1.83664c-.30467-.44726-.61282-.89224-.91036-1.3442-.04609-.07-.18491-.13136-.07773-.25514l1.05105-1.892a3.19005,3.19005,0,0,0-.69958-.0389c-.62418.10043-.90233-.171-.99458-.76529a2.23134,2.23134,0,0,1,.017-.29949c-.01676-.03961-.29523-.00731-.35978-.009l-.17612.017c-.05106.06161-.12061.04821-.18736.04617l-.0289-.0027-.0277.00866.06294.058.06118.05948q.03.002.06011.00244l.06281.06005.00047.00045.06056.059q.03024.002.06055.00288c.02758.024.07358.04462.07879.07277.00985.05313-.04421.04366-.07845.049-.231.00533-.43338.16306-.67229.12618.04931.09769-.034.121-.09037.1544a2.9158,2.9158,0,0,0-.57707.47958c.14412.11257.38026.09538.46851.26085a.72613.72613,0,0,1-.02861.72932.815.815,0,0,1-.76578.3419c-.27517.01106-.22841-.2376-.32007-.37425a1.2844,1.2844,0,0,1-.06984-.1349c-.68772.71222-1.43317,1.36147-2.1851,2.00366-.0155.01323-.02958.033-.04751.03782-.79265.21268-.82056.8902-.92573,1.52079.07862.01589.14224-.06328.23279-.01891a.70081.70081,0,0,1,.29546.8659c-.19162.37816-.42025.45183-.76828.24756l-.07458.20254a.95388.95388,0,0,1-.11048.39341l-.00787.22865c.12061.00831.22876-.10624.36621.01327a.65806.65806,0,0,1,.16689.909c-.23622.34223-.3536.35845-.76963.10637a2.96038,2.96038,0,0,0-.24491.94805c.48746-.148.67877-.06863.80608.3342a.72688.72688,0,0,1-.32811.75422c-.2384.20076-.3364-.04223-.48563-.11847a2.98959,2.98959,0,0,1-.3022-.201c-.21782.12912-.33487.37423-.56418.49012a1.79676,1.79676,0,0,1-.41206.31037.34216.34216,0,0,0-.18762.46091,5.472,5.472,0,0,0,.60978,1.067c.13035-.32146.24586-.36529.66817-.25354-.01432-.14883-.02168-.29877-.045-.44617-.02061-.13.04233-.15488.14846-.14533.20278.08027.367-.29153.49746-.11286.09908.13572.01542.40483.01307.61458a1.7496,1.7496,0,0,0,.1387.6382.6886.6886,0,0,1,.72746-.25282c0-.12231-.00755-.24518.00139-.36683a.9645.9645,0,0,1,.99137-.947,5.50545,5.50545,0,0,0,.84972.048c-.07005-.58269.05666-.75053.60851-.806-.04426-.09441-.15846-.14021-.176-.25319a2.34993,2.34993,0,0,1-.44432-1.121A9.52418,9.52418,0,0,1,9.377,16.33911a5.42007,5.42007,0,0,0-.19316-1.90638c-.04648-.14171.00956-.20176.10093-.27784a14.41605,14.41605,0,0,1,1.76614-1.31224,6.32569,6.32569,0,0,1,.573-.28447c.1455-.06854.21485-.07313.1775.1401-.37438,2.13772-.93251,4.23657-1.34375,6.36642-.01788.09261-.07908.47633-.20326.55246a1.23382,1.23382,0,0,1-.00077,1.25124c-.04058.069-.07412.18607-.14616.17749-.09386-.01119-.03607-.1293-.05461-.19851a.603.603,0,0,0-.12066-.30513,3.34154,3.34154,0,0,1-.73464,1.09839c.075.01645.15449-.00719.21636.07726a1.34816,1.34816,0,0,1-.5715,2.006c-.42136.17912-.44337.1719-.6779-.20851-.07447-.1208-.15214-.23963-.22835-.35936a2.08113,2.08113,0,0,0,.14017,2.63446,2.227,2.227,0,0,0,.64608.50918,2.551,2.551,0,0,1,1.03844,1.214,1.12777,1.12777,0,0,1-.74837,1.41463,2.0078,2.0078,0,0,0-.9865.37867c.16021.10963.34613.19582.38185.41892C9.0016,29.73116,9.09347,29.78391,9.26205,30.21636Z"/><path class="f" d="M7.93612,23.15606c.07621.11973.15388.23856.22835.35936.23453.38041.25654.38763.6779.20851a1.34816,1.34816,0,0,0,.5715-2.006c-.06187-.08445-.14136-.06081-.21637-.07726l-1.5047.207a.80113.80113,0,0,0,.11.49313c.11548.2046.02578.23171-.14951.2183Z"/><path class="h" d="M9.26205,30.21636c-.16858-.43245-.26045-.4852-.85427-.49048l-.54694.43838a3.94709,3.94709,0,0,0-.30687.85951c-.0139.06929-.039.15407.01713.20441.06423.05764.13179-.01495.194-.0385a5.50408,5.50408,0,0,0,1.06322-.53227A1.8678,1.8678,0,0,0,9.26205,30.21636Z"/><path class="y" d="M6.99217,15.55473c.348.20427.57666.1306.76828-.24756a.70081.70081,0,0,0-.29546-.8659c-.09055-.04437-.15417.0348-.23279.01891-.2801.11155-.56161.21978-.83932.337-.06937.02928-.18683.02224-.189.11857-.00105.04625.08937.09869.14382.14135C6.56134,15.22449,6.77716,15.38909,6.99217,15.55473Z"/><path class="h" d="M7.86084,30.16427l.54694-.43839c-.03571-.22309-.22163-.30928-.38184-.41891-.37308.12452-.73256.26435-.86315.69307-.02642.08672-.09013.17535-.00982.25423.06356.06242.15336.0332.233.01554Q7.62346,30.21721,7.86084,30.16427Z"/><path class="z" d="M7.65331,22.55911c.17529.01341.265-.0137.14951-.2183a.8016.8016,0,0,1-.11-.49335c0-.12527.07524-.26968-.09064-.352a.6886.6886,0,0,0-.72746.25282C6.88674,22.25624,7.25978,22.41751,7.65331,22.55911Z"/><path class="z" d="M6.122,21.19988c-.42231-.11175-.53782-.06792-.66817.25354.02781.397.13192.49409.53.49809a1.59534,1.59534,0,0,0,.48229-.05571c.12164-.03643.18263-.05917.04379-.15743A1.22089,1.22089,0,0,1,6.122,21.19988Z"/><path class="y" d="M9.89866,9.5896c.03571-.03589.07037-.001.09717.02954q.55527.22779,1.11047.45581c.14417.11255.38031.09546.46857.261a.72612.72612,0,0,1-.02863.72925.815.815,0,0,1-.7658.34179c-.27515.011-.2284-.23755-.32007-.37427a1.27532,1.27532,0,0,1-.06983-.13476q-.23163-.60571-.46319-1.21094C9.8953,9.66064,9.86357,9.62451,9.89866,9.5896Z"/><path class="g" d="M12.345,2.75112c.27044-.03594.28729-.24559.35235-.43127.11418-.32585.2244-.65319.34546-.97664.09861-.26325.19677-.28122.37212-.0557.28706.36957.56784.74483.83394,1.12938a.30326.30326,0,0,0,.3942.15393A3.59188,3.59188,0,0,1,16,2.45672V5.40191a.28058.28058,0,0,0-.05833-.01108,1.94635,1.94635,0,0,1-.84261-.57951c-.1523-.156-.12856-.51543-.33618-.49955-.17154.01287-.3236.28421-.48428.44115a.33529.33529,0,0,0-.04313.04312c-.132.18958-.23659.1198-.34816-.02695q-.66431-.87331-1.33573-1.74154c-.054-.07038-.099-.16862-.21615-.09015C12.33391,2.87271,12.19457,2.77088,12.345,2.75112Z"/><path class="aa" d="M14.34926,24.7086q.82536-.0009,1.65072-.0024v.98623c-.04485.00269-.10183.00389-.19055.00389a5.315,5.315,0,0,1-1.09225-.23121,1.44193,1.44193,0,0,1-.676-.30937Q14.19514,24.93246,14.34926,24.7086Z"/><path class="k" d="M10.05774,30.72032l-.05825.05578C10.03327,30.77248,10.0598,30.76133,10.05774,30.72032Z"/><path class="ab" d="M13.57231,22.53549c.24-.60886.5682-1.18119.76138-1.81012q.83322-.0027,1.66629-.00569v2.33573h-2.5769C13.34559,22.84636,13.50694,22.70141,13.57231,22.53549Z"/><path class="ab" d="M13.36,18.9997q.52539-.94788,1.05062-1.89578Q15.20535,17.103,16,17.10153v2.02815l-2.41817-.06289C13.5017,19.06439,13.41754,19.077,13.36,18.9997Z"/><path class="ab" d="M14.47115,13.48547q.76439-.0009,1.52883-.00239v1.90626c-.774-.0009-1.54807-.0003-2.322-.00449-.10729-.0003-.22731.03923-.31634-.0626Q13.91642,14.404,14.47115,13.48547Z"/><path class="ac" d="M13.36161,15.32225c.089.10183.209.0623.31634.0626.774.00419,1.548.00359,2.322.00449v1.71219q-.7946.0009-1.58932.00239c-.33236-.51722-.6666-1.03324-.99461-1.55316C13.37554,15.48637,13.25784,15.42618,13.36161,15.32225Z"/><path class="ac" d="M13.36,18.9997c.0575.07727.14166.06469.22177.06709L16,19.12968v1.59q-.83311.00313-1.66629.00569-.49428-.79785-.98885-1.59539C13.31437,19.08086,13.309,19.038,13.36,18.9997Z"/><path class="ab" d="M13.48306,11.88619q.52549-.94609,1.051-1.89188a.43951.43951,0,0,1,.48884.21473c.07562.10662.17026.20006.24521.30728.091.13028.17348.12189.29664.03324.1359-.09793.2515-.23839.43524-.25816v1.72417l-2.29523-.06289C13.62479,11.95058,13.54063,11.96286,13.48306,11.88619Z"/><path class="ac" d="M16,23.05541V24.7062q-.82536.0009-1.65072.0024-.46305-.82659-.92618-1.65319Z"/><path class="ac" d="M13.48306,11.88619c.05757.07667.14173.06439.22169.06649L16,12.01557v1.46751q-.76437.00135-1.52883.00239c-.30473-.44714-.61283-.89218-.91038-1.34411C13.51465,12.07128,13.37584,12.01018,13.48306,11.88619Z"/><path class="y" d="M6.3178,18.356c-.1877.07578-.37767.14654-.562.2297-.07866.03548-.2147.02489-.21938.12953-.004.08965.1185.12551.18875.18135.09488.0754.18862.15223.28282.22843a2.99026,2.99026,0,0,0,.30218.20094c.14923.07624.24723.31923.48563.11847a.72688.72688,0,0,0,.32811-.75422C6.99657,18.28737,6.80526,18.20805,6.3178,18.356Z"/><path class="y" d="M6.08769,16.67709c-.08195.03422-.20072.044-.21867.13762-.02142.11167.12343.10818.18021.17318a.86621.86621,0,0,0,.14179.10867l.3717.3114c.416.25207.5334.23585.76962-.10638a.65806.65806,0,0,0-.16689-.909c-.13745-.11951-.298-.02708-.3662-.01336C6.79927,16.37916,6.25165,16.60862,6.08769,16.67709Z"/><path class="z" d="M9.44462,20.22966a.56888.56888,0,0,1,.48752.31256.60314.60314,0,0,1,.12067.30516c.01854.06921-.03925.18732.05461.19851.072.00858.10558-.10851.14616-.17749a1.23383,1.23383,0,0,0,.00076-1.25126c-.06447-.06723-.09879-.16579-.20121-.19352C9.50128,19.47913,9.37457,19.647,9.44462,20.22966Z"/><path class="f" d="M13.246,8.08154q.12168-.14977.24347-.29931c.0575-.07032.09973-.04053.13092.02343a1.36771,1.36771,0,0,1,.17627.40528l.05786.12573a.20625.20625,0,0,1,.0066.05176l.05346.0686c.15051.16748.08081.48242.37238.55518.145.0144.29956-.04785.43329.05468a.2194.2194,0,0,1,.05651.00342c.17267-.09546.16987-.314.30494-.43579a.401.401,0,0,1,.11639-.24145c.00281-.17383.08734-.25293.26489-.24561.17871.00733.358.00073.537,0V5.40137c-.018-.01538-.02643-.00586-.05835-.0105a1.94764,1.94764,0,0,1-.84259-.57959c-.15234-.156-.1286-.51538-.33618-.49951-.17157.01294-.32361.28418-.48432.44116a.34237.34237,0,0,0-.04309.043c-.132.1897-.23663.11987-.3482-.02686q-.6643-.873-1.3357-1.74145c-.054-.07056-.099-.1687-.21618-.09009a1.11049,1.11049,0,0,1,.04114.36035c-.03882.999-.07636,1.9978-.10736,2.99683-.00428.1372-.031.23-.17322.28027a3.75058,3.75058,0,0,1-.53052.22583l-.0221.021c-.14782.13208-.46093.1145-.467.31543-.00348.11279.27448.23706.42908.35132.57526.42553.57636.425.31433,1.0913a1.96,1.96,0,0,1-.097.1875l-.01636.11548c.04474.07886.12659.05567.19433.07105q.08826-.00183.17646-.00318l.02771-.00854.02893.00268H12.134c.06665.002.13611.01539.18707-.04614a.24269.24269,0,0,0-.13732.02.24051.24051,0,0,1,.13732-.02026q.08808-.00806.17621-.01685l.19355.00513q-.04651-.07361.00006-.00025l.00024.001a.11634.11634,0,0,1,.05036.1189l.01214.06274a.1238.1238,0,0,1,.04913.1211.79274.79274,0,0,0,1.0318.76513,3.20432,3.20432,0,0,1,.69953.03882.43981.43981,0,0,1,.48883.21484c.07562.10669.17029.2002.24524.30738.091.13012.17346.12182.29663.0332.13592-.0979.25159-.23852.43524-.25806V9.27515l-.00012-.00757L16,9.26709V9.251a.36537.36537,0,0,1-.4574-.24756c-.07959-.23535-.22821-.2002-.39612-.11621l-.05975.05981-.06225.06714c-.01026.09033-.05475.17065-.14637.16943a1.7293,1.7293,0,0,1-.72192-.04712c-.25086-.07177-.20624-.32495-.3017-.49194a.13289.13289,0,0,1-.05511-.12671.26422.26422,0,0,1-.00794-.05542l-.06079-.12256c-.12988-.093-.07629-.30444-.24176-.375-.11755.06739-.068.34082-.3117.25245-.08021-.12012-.22388-.25318-.13459-.38282C13.07605,7.78589,13.17517,7.99243,13.246,8.08154Zm2.49988-.58886a.09793.09793,0,0,1,.11188.10693c-.00159.02978-.043.08179-.066.08154-.06409-.00049-.10413-.04785-.12482-.12793C15.68988,7.53467,15.71674,7.49438,15.74591,7.49268Zm-1.02039-2.0083c.01246-.00489.04609.031.06226.05346.13977.1958.27783.39282.4165.5896.04157.061.08313.12158.12476.18286a.7514.7514,0,0,1,.22363.37281c.00135.01025-.05413.04345-.06414.03686-.1233-.08081-.15027-.22729-.2251-.342L15.141,6.19287a1.91378,1.91378,0,0,1-.42291-.61426C14.7049,5.5481,14.66974,5.50537,14.72552,5.48438Zm-1.35.3872c.05041-.19873.12762-.26123.30127-.1001.11871.11011.256.2002.38507.29981a1.8852,1.8852,0,0,1,.47034.36475l-.004-.00391q.15169.09851.30353.19629c.1361.10327.00793.13037-.051.17773L14.78027,6.802l-.06183.073a.54325.54325,0,0,1-.48065.2334C13.55518,7.12329,13.19092,6.59863,13.37549,5.87158Z"/><path class="o" d="M12.14,9.00871l.06119.0595Z"/><path class="o" d="M12.26133,9.07063l.06281.06006Z"/><path class="o" d="M12.32461,9.13113l.06056.059Z"/><path class="ad" d="M1.71482,3.83154Q.85469,2.68128.00273,1.5249C-.01394,1.395.04826,1.42065.12,1.46533c1.27948.813,2.5556,1.63111,3.83911,2.43775Q7.83769,6.3402,11.72264,8.76733l-.0163.11548c.04468.07886.12646.05567.19427.07105q.08826-.00183.17652-.00318l.06292.05811.06116.05933c.02.00146.04.00219.06012.00244l.06281.06006.00049.00048.06054.05909c.02014.00122.04035.00219.06055.00268.02759.02417.07361.04468.0788.07276.00982.05322-.04419.04394-.07844.04931-.231.00513-.43341.16309-.67236.126a4.09142,4.09142,0,0,0-.91138-.08277,11.72821,11.72821,0,0,0-2.38836.343c-.1745.03955-.20569-.00171-.21778-.15576-.01824-.23389-.06921-.46533-.07965-.699-.00879-.19532-.08447-.19361-.24359-.15332-.77014.19555-1.54541.37109-2.31445.57055-.18268.04737-.24292.00879-.29077-.16748-.187-.68774-.40192-1.36816-.57935-2.05835-.06238-.24267-.13348-.2998-.38251-.219-.83294.27-1.67559.51-2.51245.76831-.19183.05932-.27661.06421-.25964-.19238.0705-1.06934.11877-2.14039.17181-3.21094A.48157.48157,0,0,0,1.71482,3.83154Z"/><path class="p" d="M6.62955,16.3683,6.68,16.30263Z"/><path class="q" d="M14.06181,6.07123c-.129-.09921-.26628-.18952-.38507-.29974-.1736-.16107-.25081-.09868-.30127.10013-.18456.72714.17971,1.25181.86224,1.23692C13.86789,6.76257,13.83345,6.5594,14.06181,6.07123Z"/><path class="ae" d="M15.27416,8.39772c.20927-.24678.48256-.08476.72582-.1147v.968a.36532.36532,0,0,1-.4574-.24768c-.07959-.2351-.22821-.20006-.39608-.1162l-.003-.06379Z"/><path class="af" d="M14.06181,6.07123c-.22836.48817-.19392.69134.1759,1.03731a.5437.5437,0,0,0,.48077-.23357l.06186-.0729.00036.004.051-.17769-.30355-.1962c.00458.05991.01214.11978.01293.17974.00085.06524-.02395.12639-.09423.13137a.15748.15748,0,0,1-.12839-.0491.25187.25187,0,0,1-.012-.171c.03452-.11514.135-.09651.22568-.08712A1.88192,1.88192,0,0,0,14.06181,6.07123Z"/><path class="ag" d="M15.667,7.55318c.02068.08034.06077.12742.12482.128.023.00019.06438-.05167.066-.08148a.098.098,0,0,0-.11189-.10693C15.71672,7.49454,15.68989,7.53458,15.667,7.55318Z"/><path class="ag" d="M14.7255,5.48438c.01252-.00489.04609.031.06226.05371.13983.1958.27789.39257.4165.58935l.12476.18262a.75541.75541,0,0,1,.22369.37305c.00129.01025-.05413.04321-.06421.03662-.12329-.08081-.15026-.22705-.22509-.3418q-.06126-.09228-.12244-.18506a1.91473,1.91473,0,0,1-.42291-.61426C14.70494,5.5481,14.66972,5.50537,14.7255,5.48438Z"/><path class="q" d="M14.83172,6.62842l-.051.17769C14.83965,6.75893,14.96783,6.73162,14.83172,6.62842Z"/><path class="u" d="M14.78034,6.80207l-.06186.0729Z"/><path class="ag" d="M13.04258,7.83447c.03351-.04883.13257.15821.20337.24707q.12177-.14942.24353-.29931c.0575-.07032.09973-.04053.131.02343a1.3735,1.3735,0,0,1,.17627.405l.0578.12574a.21341.21341,0,0,1,.00659.052l.05359.0686c.15039.16748.08069.48242.37226.55518.14495.0144.29956-.04785.43328.05468a.23049.23049,0,0,1,.05652.00342c.17267-.09546.16993-.314.305-.43579a.40066.40066,0,0,1,.11639-.24145c.00275-.17383.08728-.25293.26483-.24561.17871.00733.358.00049.537.00025V8.283c-.24329.03-.51654-.13208-.72583.11475l-.13068.42578a.2373.2373,0,0,0-.05121.01684h0a.23672.23672,0,0,1,.05127-.01684l.003.06372-.05981.05981-.06232.0669c-.01019.09057-.05462.17065-.1463.16967a1.737,1.737,0,0,1-.72186-.04687c-.25092-.072-.2063-.325-.3017-.49219a.13291.13291,0,0,1-.05517-.12671.26356.26356,0,0,1-.00794-.05542h0l-.06073-.12256c-.12994-.093-.07635-.30468-.24182-.375-.11749.06739-.068.34107-.31164.25269C13.097,8.09717,12.95335,7.96387,13.04258,7.83447Z"/><path class="ag" d="M14.53214,6.43612c-.09064-.00939-.19116-.028-.22568.08712a.25187.25187,0,0,0,.012.171.15748.15748,0,0,0,.12839.0491c.07028-.005.09508-.06613.09423-.13137-.00079-.06-.00835-.11983-.01293-.17974Z"/></svg>