<svg xmlns="http://www.w3.org/2000/svg" viewBox="0 0 32 32"><defs><style>.a{fill:#2b3332;}.b{fill:#a7794c;}.c{fill:#afc9b7;}.d{fill:#373f3f;}.e{fill:#c8dac8;}.f{fill:#aadb3d;}.g{fill:#bad3c1;}.h{fill:#b38658;}.i{fill:#434c4b;}.j{fill:#d5e1cf;}.k{fill:#b1e346;}.l{fill:none;stroke:#bee758;stroke-miterlimit:10;stroke-width:0.5px;}</style></defs><title>622-golett-shiny</title><path class="a" d="M22.28009,24.05242,17.0355,18.80783l2.358-2.358,5.2039,5.2039a8.86644,8.86644,0,0,0,1.54926-4.98365,8.99932,8.99932,0,0,0-2.63709-6.31439l-4.52242,4.52243-2.358-2.358,4.1483-4.1483a10.65591,10.65591,0,0,0-4.731-1.09655c-.01433,0-.02813.00192-.04246.002V26.06291c.01433.00006.02813.002.04246.002A10.53253,10.53253,0,0,0,22.28009,24.05242Z"/><path class="b" d="M17.0355,18.80783l5.24459,5.24459a9.701,9.701,0,0,0,2.31731-2.39868l-5.2039-5.2039Z"/><path class="b" d="M16.62915,12.52013l2.358,2.358,4.52242-4.52243a10.05719,10.05719,0,0,0-2.73212-1.98387Z"/><path class="c" d="M20.04486,23.535a4.99743,4.99743,0,0,0-2.69335,3.59119V32h7.88774l-1.09014-5.4509A4.24932,4.24932,0,0,0,20.04486,23.535Z"/><path class="d" d="M26.14666,20.77758c-.64859,3.11535,4.27966,4.14136,4.92831,1.026l-3.39266-2.43685Z"/><path class="c" d="M26.586,10.90179,23.82848,13.4669c1.30517,1.31408,2.25986,3.36723,2.31818,7.31068l4.92831,1.026C31.87935,16.78242,32.27527,12.00752,26.586,10.90179Z"/><polygon class="e" points="17.352 0 16.004 0 16.004 1.716 18.858 1.716 17.352 0"/><polygon class="d" points="17.036 3.755 19.643 3.755 19.643 6.773 21.84 7.623 21.84 5.772 19.66 2.629 18.858 1.716 16.004 1.716 16.004 5.597 17.036 5.597 17.036 3.755"/><polygon class="e" points="21.84 7.623 19.643 6.773 19.643 3.755 17.036 3.755 17.036 5.597 16.004 5.597 16.004 8.721 21.84 8.721 21.84 7.623"/><rect class="f" x="17.76123" y="4.6172" width="1.25445" height="3.13629"/><polygon class="g" points="16.14 9.939 16.004 10.075 16.004 20.932 21.569 15.367 16.14 9.939"/><path class="d" d="M9.71991,24.05242l5.24459-5.24459-2.358-2.358-5.2039,5.2039a8.86644,8.86644,0,0,1-1.54926-4.98365A8.99932,8.99932,0,0,1,8.49043,10.3557l4.52242,4.52243,2.358-2.358-4.1483-4.1483a10.65591,10.65591,0,0,1,4.731-1.09655c.01433,0,.02813.00192.04246.002V26.06291c-.01433.00006-.02813.002-.04246.002A10.53253,10.53253,0,0,1,9.71991,24.05242Z"/><path class="h" d="M14.9645,18.80783,9.71991,24.05242A9.701,9.701,0,0,1,7.4026,21.65374l5.2039-5.2039Z"/><path class="h" d="M15.37085,12.52013l-2.358,2.358L8.49043,10.3557a10.05719,10.05719,0,0,1,2.73212-1.98387Z"/><path class="g" d="M11.95514,23.535a4.99743,4.99743,0,0,1,2.69335,3.59119V32H6.76075l1.09014-5.4509A4.24932,4.24932,0,0,1,11.95514,23.535Z"/><path class="i" d="M5.85334,20.77758c.64859,3.11535-4.27966,4.14136-4.92831,1.026l3.39266-2.43685Z"/><path class="g" d="M5.414,10.90179,8.17152,13.4669C6.86635,14.781,5.91166,16.83413,5.85334,20.77758L.925,21.80359C.12065,16.78242-.27527,12.00752,5.414,10.90179Z"/><polygon class="j" points="14.648 0 15.996 0 15.996 1.716 13.142 1.716 14.648 0"/><polygon class="i" points="14.964 3.755 12.357 3.755 12.357 6.773 10.16 7.623 10.16 5.772 12.34 2.629 13.142 1.716 15.996 1.716 15.996 5.597 14.964 5.597 14.964 3.755"/><polygon class="j" points="10.16 7.623 12.357 6.773 12.357 3.755 14.964 3.755 14.964 5.597 15.996 5.597 15.996 8.721 10.16 8.721 10.16 7.623"/><rect class="k" x="12.98432" y="4.6172" width="1.25445" height="3.13629"/><polygon class="e" points="15.86 9.939 15.996 10.075 15.996 20.932 10.431 15.367 15.86 9.939"/><polyline class="l" points="16.004 15.599 17.126 14.477 15.921 13.272 13.785 15.409 16.022 17.646 19.002 14.665 16.094 11.757 12.359 15.493 15.98 19.114"/></svg>