<svg xmlns="http://www.w3.org/2000/svg" viewBox="0 0 32 32"><title>625-bisharp-shiny</title><path d="M25.40081,14.24678l.05116-.0006v-.30455l-.05153-.00089Z" style="fill:#f6f6f5"/><path d="M19.06066,15.39271c-.10937.21354-.05546.45652-.123.6778a.78232.78232,0,0,1,.37957.1722,2.4919,2.4919,0,0,1,.30195.193.50808.50808,0,0,1-.00833.86695,3.47637,3.47637,0,0,1-1.00718.533c-.09227.03658-.18343.07613-.27511.1142A17.55021,17.55021,0,0,1,17.333,20.1965c-.1116.22752-.22581.45385-.33868.68078a9.62289,9.62289,0,0,0,.63683,1.33656A19.06033,19.06033,0,0,0,18.872,23.9424a2.34622,2.34622,0,0,1,.46708.9767,9.38965,9.38965,0,0,1,.21481,1.50253c.135.42024.50143.68018.72211,1.04124a.97244.97244,0,0,0,.48984-.76465,3.284,3.284,0,0,0,.008-.39139c-.0203-.39407-.02982-.78934-.06521-1.18222a.59944.59944,0,0,1,.21822-.5511A6.89867,6.89867,0,0,0,22.73905,22.168a2.27533,2.27533,0,0,0-.0855-2.12738A26.442,26.442,0,0,0,19.06066,15.39271Z" style="fill:#5b689d"/><path d="M23.25826,13.8191a6.30869,6.30869,0,0,0-1.03246-.54843,1.1932,1.1932,0,0,1,.23138,1.16229c-.06469.163-.11807.26588-.31793.14513a6.54644,6.54644,0,0,1-.88309-.46158,2.91532,2.91532,0,0,0,.01992.66264,5.624,5.624,0,0,0,1.61978,2.93664c.11637-.108.24366-.036.37073-.02974a2.35319,2.35319,0,0,0,1.63725-.213,3.29952,3.29952,0,0,0-.55185-.82264c-.06617-.08506-.13666-.14662.04736-.15406a.565.565,0,0,0,.403-.188c.15435-.177.19146-.06187.23124.07108a1.52386,1.52386,0,0,1,.06037.91841l.17413-.18827a3.43705,3.43705,0,0,0-.307-1.28541A7.827,7.827,0,0,0,23.25826,13.8191Z" style="fill:#b9bfbe"/><path d="M21.863,8.924a14.659,14.659,0,0,0-3.6027-.15733c.03532.19451.21592.28313.31749.43065a3.72568,3.72568,0,0,1,.64962,2.79627c-.00818.05145-.02023.09784.02074.13948a4.13134,4.13134,0,0,0,.77022-.48865q.4013-.31362.80264-.62694c.3105-.30425.62635-.60315.92934-.91484a1.49715,1.49715,0,0,0,.42753-.6888C22.24929,9.11286,22.16981,8.96891,21.863,8.924Z" style="fill:#6673aa"/><path d="M17.92782,9.25442a.899.899,0,0,1-.21287-.36284,3.04952,3.04952,0,0,1-.29823-.55229c-.58731.18677-.591.18826-.3795.71617a10.6349,10.6349,0,0,1,.55594,1.63517,8.63139,8.63139,0,0,1,.12231,2.02418,8.8837,8.8837,0,0,0,1.212-.29711l.00945-.05919c-.11934-.61415-.20128-1.23515-.37549-1.8383A3.48845,3.48845,0,0,0,17.92782,9.25442Z" style="fill:#434c4b"/><path d="M20.821,11.01748q-.40128.31362-.80264.62694c.44389.80837.86205,1.62982,1.23776,2.47209a6.54644,6.54644,0,0,0,.88309.46158c.19986.12075.25324.01785.31793-.14513a1.1932,1.1932,0,0,0-.23138-1.16229Q21.52338,12.14423,20.821,11.01748Z" style="fill:#2b3332"/><path d="M16.92659,18.30645c-.04432-.05354.02379-.07554.063-.09844q.06157-.062.12313-.12343c.41147-.68464.18737-1.05551-.666-1.10221h.00008c-.14172-.08863-.29727-.03836-.44679-.04907v4.30741l.01271-.00059a.67686.67686,0,0,0,.3772-.04283c.05331-.33042.26953-.59928.33369-.93209.12893-.66858.29563-1.32943.44672-1.99385-.03911.0006-.07815.0009-.11726.00119C17.01722,18.3118,16.96005,18.3469,16.92659,18.30645Z" style="fill:#434c4b"/><path d="M16.74472,13.38309c.58241.17964.68955.50917.32522.99812-.04922.066-.17845.13621-.10989.21265.06208.06959.18937.02439.27637-.03956-.17853-.10528.02877-.10855.0426-.1142a7.21206,7.21206,0,0,0,1.19009-.60345,4.53791,4.53791,0,0,0,.59-.42322.56768.56768,0,0,0,.06142-.87558l-.0003.00059-.06424-.05591q-.06425-.03257-.12856-.06483a8.8837,8.8837,0,0,1-1.212.29711c-.03606.00506-.0722.01041-.10826.01576a4.95276,4.95276,0,0,1-1.59412.16566L16,12.9001v.36611a.76928.76928,0,0,1,.38686.06186A1.00591,1.00591,0,0,1,16.74472,13.38309Z" style="fill:#b9bfbe"/><path d="M25.094,17.29793c-.02223.1032-.07227.17577-.19012.17517a2.35319,2.35319,0,0,1-1.63725.213c-.12707-.00625-.25436-.07822-.37073.02974.38738.442.78413.87588,1.13307,1.34965a2.003,2.003,0,0,0,.49169.533c.16685.10825.29816.099.3772-.1157a5.018,5.018,0,0,0,.37027-2.373Z" style="fill:#abb2b1"/><path d="M17.641,14.48054c.17867.03212.1354.17339.13585.28671.00223.53356.00015,1.06711-.00045,1.601a5.815,5.815,0,0,0,1.1611-.29771c.06766-.22128.01375-.46426.12312-.6778q-.00277-.69372-.00542-1.38743Q18.34814,14.24306,17.641,14.48054Z" style="fill:#434c4b"/><path d="M18.57782,9.19732c-.10157-.14752-.28217-.23614-.31742-.43065a2.27431,2.27431,0,0,0-.54545.12491.899.899,0,0,0,.21287.36284,3.48845,3.48845,0,0,1,.63356,1.26579c.17421.60315.25615,1.22415.37549,1.8383q.15558-.11286.31131-.22544c-.041-.04164-.02892-.088-.02074-.13948A3.72568,3.72568,0,0,0,18.57782,9.19732Z" style="fill:#e0b12e"/><path d="M16.43838,21.18837a.572.572,0,0,0,.55594-.31109c.11287-.22693.22708-.45326.33868-.68078a17.56183,17.56183,0,0,0,.99559-2.24665q-.45828.13027-.91655.26024A8.90185,8.90185,0,0,1,16.43838,21.18837Z" style="fill:#434c4b"/><path d="M19.12052,12.53785a.56768.56768,0,0,1-.06142.87558,4.53791,4.53791,0,0,1-.59.42322,7.21206,7.21206,0,0,1-1.19009.60345c-.01383.00565-.22113.00892-.0426.1142l.30031-.05086.10431-.0229q.7071-.23778,1.4142-.47526c.1638-.11569.33206-.226.49065-.34857a.52271.52271,0,0,0-.00416-.89223A.883.883,0,0,0,19.12052,12.53785Z" style="fill:#c8cccb"/><path d="M16.7236,20.2652c-.06416.33281-.28038.60167-.33369.93209l.02572.00357.02275-.01249a8.90185,8.90185,0,0,0,.97366-2.97828.42906.42906,0,0,0-.24172.06126C17.01923,18.93577,16.85253,19.59662,16.7236,20.2652Z" style="fill:#2b3332"/><path d="M23.62326,31.7908a5.03182,5.03182,0,0,1-2.4335-2.78645,1.885,1.885,0,0,1-.12878-.55229c-.04082-.51988.17042-1.07812-.22194-1.5513-.03606-.04372-.00721-.1383-.01517-.20849-.01457-.12878.0261-.2647-.05011-.38544a3.284,3.284,0,0,1-.008.39139.97244.97244,0,0,1-.48984.76465.71963.71963,0,0,1,.05949.41429,2.20093,2.20093,0,0,0,.35674,1.34846c.23548.33935.40448.7248.64055,1.06355.30232.43363.542.93982,1.09195,1.1379.39861.14365.79989.27956,1.20006.419l.07472.01547C23.693,31.82352,23.65991,31.80478,23.62326,31.7908Z" style="fill:#abb2b1"/><path d="M23.69947,31.86159l-.07472-.01547c-.40017-.13949-.80145-.2754-1.20006-.419-.55-.19808-.78963-.70427-1.09195-1.1379-.23607-.33875-.40507-.7242-.64055-1.06355a2.20093,2.20093,0,0,1-.35674-1.34846.71963.71963,0,0,0-.05949-.41429c-.22068-.36106-.58709-.621-.72211-1.04124.02215.14365-.15339.21443-.13332.3563a3.0236,3.0236,0,0,1-.204,1.30831.88384.88384,0,0,0,.37132,1.17537c.0484.02826.07487.09369.11249.14068a13.27078,13.27078,0,0,1,.976,1.67621,1.2495,1.2495,0,0,0,.92555.70308,10.79429,10.79429,0,0,0,2.02389.12135c.02818-.00566.07829-.00655.08089-.01785S23.70088,31.87021,23.69947,31.86159Z" style="fill:#b9bfbe"/><path d="M19.12023,12.53832l-.06422-.05579Z" style="fill:#dce0e5"/><path d="M16.3818.95545a11.12472,11.12472,0,0,0,.11807,1.18964,16.37192,16.37192,0,0,1-.06141,1.93615,2.98532,2.98532,0,0,0,.89714-.13264,3.8423,3.8423,0,0,0,2.28048-1.33836,3.34776,3.34776,0,0,0-.26477-.32953A5.03969,5.03969,0,0,0,16.3818.95545Z" style="fill:#707eb7"/><path d="M16.00952,8.52458c-.04224-.21.05985-.3105.24685-.3569-.08543-.003-.17094-.00624-.25637-.00922v.60613c.00409-.0003.0081.00029.01219,0A1.248,1.248,0,0,0,16.00952,8.52458Z" style="fill:#555"/><path d="M17.41672,8.33929c.07175-.05383.14179-.10975.2154-.1609a7.17141,7.17141,0,0,0,2.04069-2.20234.24793.24793,0,0,0-.1145-.204,3.98257,3.98257,0,0,1-.67691-.72063,8.71753,8.71753,0,0,1-1.216,2.11787,2.87712,2.87712,0,0,1-1.409.99841c-.187.0464-.28909.14692-.24685.3569a1.248,1.248,0,0,1,.00267.24l-.00126.00238a2.25931,2.25931,0,0,0,.30172-.01339c.41415-.07286.41616-.07643.54739.331.14491.45.2931.89908.42463,1.35263A6.87484,6.87484,0,0,1,17.47628,12.44c-.00112.11153-.04848.25548.13086.29057.03613-.00535.07227-.0107.10833-.01576a8.63139,8.63139,0,0,0-.12231-2.02418,10.6349,10.6349,0,0,0-.55594-1.63517C16.82576,8.52755,16.82941,8.52606,17.41672,8.33929Z" style="fill:#2b3332"/><path d="M16,6.02156l.01331-.05235L16,5.9707Z" style="fill:#9d908a"/><path d="M16.06454.05964A.85628.85628,0,0,0,16-.08787V5.9707l.01331-.00149.07-.18677c.16075-.55824.2409-1.13344.35518-1.7012a16.37192,16.37192,0,0,0,.06141-1.93615,11.104,11.104,0,0,1-.118-1.18964A9.09878,9.09878,0,0,1,16.06454.05964Z" style="fill:#c8cccb"/><path d="M19.61608,2.61024A3.8423,3.8423,0,0,1,17.3356,3.9486a2.98532,2.98532,0,0,1-.89714.13264c-.11428.56776-.19443,1.143-.35518,1.7012l-.07.18677c.04037-.01814.08075-.03658.12105-.055l.00007.0003A3.13414,3.13414,0,0,0,17.284,5.2468q.1508-.12313.30173-.24655a.5743.5743,0,0,1,.30343-.24953c.5056-.67483.5056-.67483.88138.11866l.11086.182a3.98257,3.98257,0,0,0,.67691.72063.24793.24793,0,0,1,.1145.204.13821.13821,0,0,1,.1412.02231c.19042.17636.25667.08476.28722-.12491.04372-.29979.124-.59542.1473-.8961A3.20461,3.20461,0,0,0,19.61608,2.61024Z" style="fill:#505957"/><path d="M25.40044,13.94074a6.0865,6.0865,0,0,0-1.95719-3.77594.1851.1851,0,0,0-.12216-.11807l-.04-.02617c-.02566.04253.0026.06483.03249.08625l.05658.05918c.05123.12075.105.24031.15339.36225a3.30809,3.30809,0,0,1-.26529,3.29086,7.827,7.827,0,0,1,1.70283,2.00515,3.52691,3.52691,0,0,0,.43972-1.57747Z" style="fill:#9da5a4"/><path d="M16.44671,16.98237c.85335.0467,1.07745.41757.666,1.10221a5.41445,5.41445,0,0,0,1.938-.82829.66026.66026,0,0,0,.24626-.91187c-.01889-.044-.01889-.074.02022-.10171a.78227.78227,0,0,0-.37964-.1722,5.815,5.815,0,0,1-1.1611.29771c-.03569.00565-.07138.0116-.10714.01754a5.226,5.226,0,0,1-1.65629.16507L16,16.55291v.38039C16.14952,16.944,16.30507,16.89374,16.44671,16.98237Z" style="fill:#b9bfbe"/><path d="M19.31718,16.24271c-.03911.02766-.03911.0577-.02022.10171a.66026.66026,0,0,1-.24626.91187,5.41445,5.41445,0,0,1-1.938.82829q-.06156.06156-.12313.12343l.0635.06453c.03911-.00029.07815-.00059.11726-.00119a.42906.42906,0,0,1,.24172-.06126q.45826-.13028.91647-.26024c.09168-.03807.18284-.07762.27511-.1142a3.47637,3.47637,0,0,0,1.00718-.533.50808.50808,0,0,0,.00833-.86695A2.4919,2.4919,0,0,0,19.31718,16.24271Z" style="fill:#c8cccb"/><path d="M24.80235,16.30844a.565.565,0,0,1-.403.188c-.184.00744-.11353.069-.04736.15406a3.29952,3.29952,0,0,1,.55185.82264c.11785.0006.16789-.072.19012-.17517a1.52386,1.52386,0,0,0-.06037-.91841C24.99381,16.24657,24.9567,16.13148,24.80235,16.30844Z" style="fill:#c8cccb"/><path d="M16.92659,18.30645c.03346.04045.09063.00535.12647-.03391l-.0635-.06453C16.95038,18.23091,16.88227,18.25291,16.92659,18.30645Z" style="fill:#b9bfbe"/><path d="M16.01093,8.767l.00126-.00238c-.00409.00029-.0081-.0003-.01219,0V12.9001l.01309-.00387Q16.012,10.8316,16.01093,8.767Z" style="fill:#6c6c6c"/><path d="M17.47628,12.44a6.87484,6.87484,0,0,0-.19161-2.00277c-.13153-.45355-.27972-.90264-.42463-1.35263-.13123-.40745-.13324-.40388-.54739-.331a2.25931,2.25931,0,0,1-.30172.01339q.001,2.06463.00216,4.12926a4.95213,4.95213,0,0,0,1.59405-.16566C17.4278,12.69548,17.47516,12.55153,17.47628,12.44Z" style="fill:#434c4b"/><path d="M17.53673,16.09817c-.00261-.53148-.00045-1.06325,0-1.59473l-.30031.05086c-.087.064-.21429.10915-.27637.03956-.06856-.07644.06067-.14663.10989-.21265.36433-.48895.25719-.81848-.32522-.99812a1.00607,1.00607,0,0,0-.35794-.055A.76884.76884,0,0,0,16,13.26621v3.2867l.013-.00208a5.226,5.226,0,0,0,1.65629-.16507C17.49174,16.35186,17.53732,16.21029,17.53673,16.09817Z" style="fill:#434c4b"/><path d="M17.641,14.48054l-.10431.0229c-.00045.53148-.00261,1.06325,0,1.59473.00059.11212-.045.25369.13257.28759.03576-.00594.07145-.01189.10714-.01754.0006-.53386.00268-1.06741.00045-1.601C17.77644,14.65393,17.81971,14.51266,17.641,14.48054Z" style="fill:#2b3332"/><path d="M18.77054,4.86938a1.14643,1.14643,0,0,1-.54925.5871.69235.69235,0,0,1-.93721-.20968,3.13023,3.13023,0,0,1-1.14965.66739c-.0403.01844-.08075.03688-.12112.055L16,6.02156v2.1369c.08543.003.17094.00625.25637.00922a2.87712,2.87712,0,0,0,1.409-.99841,8.71753,8.71753,0,0,0,1.216-2.11787Z" style="fill:#e8ba36"/><path d="M17.88916,4.75072a.26789.26789,0,0,1,.05539.22454c-.0255.13086.002.32061-.17859.3337-.20864.01546-.15518-.18291-.18023-.30871q-.1509.12357-.30165.24655a.69235.69235,0,0,0,.93721.20968,1.14643,1.14643,0,0,0,.54925-.5871C18.39476,4.07589,18.39476,4.07589,17.88916,4.75072Z" style="fill:#fff"/><path d="M17.58573,5.00025c.025.1258-.02841.32417.18023.30871.1806-.01309.15309-.20284.17859-.3337a.26789.26789,0,0,0-.05539-.22454A.5743.5743,0,0,0,17.58573,5.00025Z" style="fill:#211915"/><path d="M6.59919,14.24678l-.05116-.0006v-.30455l.05153-.00089Z" style="fill:#f6f6f5"/><path d="M12.93934,15.39271c.10937.21354.05546.45652.12305.6778a.78232.78232,0,0,0-.37957.1722,2.4919,2.4919,0,0,0-.30195.193.50808.50808,0,0,0,.00833.86695,3.47637,3.47637,0,0,0,1.00718.533c.09227.03658.18343.07613.27511.1142A17.55021,17.55021,0,0,0,14.667,20.1965c.1116.22752.22581.45385.33868.68078a9.62289,9.62289,0,0,1-.63683,1.33656A19.06033,19.06033,0,0,1,13.128,23.9424a2.34622,2.34622,0,0,0-.46708.9767,9.38965,9.38965,0,0,0-.21481,1.50253c-.135.42024-.50143.68018-.72211,1.04124a.97244.97244,0,0,1-.48984-.76465,3.284,3.284,0,0,1-.008-.39139c.0203-.39407.02982-.78934.06521-1.18222a.59944.59944,0,0,0-.21822-.5511A6.89867,6.89867,0,0,1,9.261,22.168a2.27533,2.27533,0,0,1,.0855-2.12738A26.442,26.442,0,0,1,12.93934,15.39271Z" style="fill:#6673aa"/><path d="M8.74174,13.8191a6.30869,6.30869,0,0,1,1.03246-.54843A1.1932,1.1932,0,0,0,9.54282,14.433c.06469.163.11807.26588.31793.14513a6.54644,6.54644,0,0,0,.88309-.46158,2.91532,2.91532,0,0,1-.01992.66264,5.624,5.624,0,0,1-1.61978,2.93664c-.11637-.108-.24366-.036-.37073-.02974a2.35319,2.35319,0,0,1-1.63725-.213,3.29952,3.29952,0,0,1,.55185-.82264c.06617-.08506.13666-.14662-.04736-.15406a.565.565,0,0,1-.403-.188c-.15435-.177-.19146-.06187-.23124.07108a1.52386,1.52386,0,0,0-.06037.91841l-.17413-.18827a3.43705,3.43705,0,0,1,.307-1.28541A7.827,7.827,0,0,1,8.74174,13.8191Z" style="fill:#c8cccb"/><path d="M10.137,8.924a14.659,14.659,0,0,1,3.6027-.15733c-.03532.19451-.21592.28313-.31749.43065a3.72568,3.72568,0,0,0-.64962,2.79627c.00818.05145.02023.09784-.02074.13948a4.13134,4.13134,0,0,1-.77022-.48865q-.4013-.31362-.80264-.62694c-.3105-.30425-.62635-.60315-.92934-.91484a1.49715,1.49715,0,0,1-.42753-.6888C9.75071,9.11286,9.83019,8.96891,10.137,8.924Z" style="fill:#707eb7"/><path d="M14.07218,9.25442a.899.899,0,0,0,.21287-.36284,3.04952,3.04952,0,0,0,.29823-.55229c.58731.18677.591.18826.3795.71617a10.6349,10.6349,0,0,0-.55594,1.63517,8.63139,8.63139,0,0,0-.12231,2.02418,8.8837,8.8837,0,0,1-1.21195-.29711l-.00945-.05919c.11934-.61415.20128-1.23515.37549-1.8383A3.48845,3.48845,0,0,1,14.07218,9.25442Z" style="fill:#505957"/><path d="M11.179,11.01748q.40128.31362.80264.62694c-.44389.80837-.862,1.62982-1.23776,2.47209a6.54644,6.54644,0,0,1-.88309.46158c-.19986.12075-.25324.01785-.31793-.14513a1.1932,1.1932,0,0,1,.23138-1.16229Q10.47662,12.14423,11.179,11.01748Z" style="fill:#373f3f"/><path d="M15.07341,18.30645c.04432-.05354-.02379-.07554-.063-.09844q-.06157-.062-.12313-.12343c-.41147-.68464-.18737-1.05551.666-1.10221h-.00008c.14172-.08863.29727-.03836.44679-.04907v4.30741l-.01271-.00059a.67686.67686,0,0,1-.3772-.04283c-.05331-.33042-.26953-.59928-.33369-.93209-.12893-.66858-.29563-1.32943-.44672-1.99385.03911.0006.07815.0009.11726.00119C14.98278,18.3118,15.04,18.3469,15.07341,18.30645Z" style="fill:#505957"/><path d="M15.25528,13.38309c-.58241.17964-.68955.50917-.32522.99812.04922.066.17845.13621.10989.21265-.06208.06959-.18937.02439-.27637-.03956.17853-.10528-.02877-.10855-.0426-.1142a7.21206,7.21206,0,0,1-1.19009-.60345,4.53791,4.53791,0,0,1-.59-.42322.56768.56768,0,0,1-.06142-.87558l.0003.00059.06424-.05591q.06425-.03257.12856-.06483a8.8837,8.8837,0,0,0,1.21195.29711c.03606.00506.0722.01041.10826.01576a4.95276,4.95276,0,0,0,1.59412.16566L16,12.9001v.36611a.76928.76928,0,0,0-.38686.06186A1.00591,1.00591,0,0,0,15.25528,13.38309Z" style="fill:#c8cccb"/><path d="M6.906,17.29793c.02223.1032.07227.17577.19012.17517a2.35319,2.35319,0,0,0,1.63725.213c.12707-.00625.25436-.07822.37073.02974-.38738.442-.78413.87588-1.13307,1.34965a2.003,2.003,0,0,1-.49169.533c-.16685.10825-.29816.099-.3772-.1157a5.018,5.018,0,0,1-.37027-2.373Z" style="fill:#b9bfbe"/><path d="M14.359,14.48054c-.17867.03212-.1354.17339-.13585.28671-.00223.53356-.00015,1.06711.00045,1.601a5.815,5.815,0,0,1-1.1611-.29771c-.06766-.22128-.01375-.46426-.12312-.6778q.00278-.69372.00542-1.38743Q13.65186,14.24306,14.359,14.48054Z" style="fill:#505957"/><path d="M13.42218,9.19732c.10157-.14752.28217-.23614.31742-.43065a2.27431,2.27431,0,0,1,.54545.12491.899.899,0,0,1-.21287.36284,3.48845,3.48845,0,0,0-.63356,1.26579c-.17421.60315-.25615,1.22415-.37549,1.8383q-.15558-.11286-.31131-.22544c.041-.04164.02892-.088.02074-.13948A3.72568,3.72568,0,0,1,13.42218,9.19732Z" style="fill:#e8ba36"/><path d="M15.56162,21.18837a.572.572,0,0,1-.55594-.31109c-.11287-.22693-.22708-.45326-.33868-.68078a17.56183,17.56183,0,0,1-.99559-2.24665q.45828.13027.91655.26024A8.90185,8.90185,0,0,0,15.56162,21.18837Z" style="fill:#505957"/><path d="M12.87948,12.53785a.56768.56768,0,0,0,.06142.87558,4.53791,4.53791,0,0,0,.59.42322,7.21206,7.21206,0,0,0,1.19009.60345c.01383.00565.22113.00892.0426.1142l-.30031-.05086-.10431-.0229q-.7071-.23778-1.4142-.47526c-.1638-.11569-.33206-.226-.49065-.34857a.52271.52271,0,0,1,.00416-.89223A.883.883,0,0,1,12.87948,12.53785Z" style="fill:#dadddc"/><path d="M15.2764,20.2652c.06416.33281.28038.60167.33369.93209l-.02572.00357-.02275-.01249a8.90185,8.90185,0,0,1-.97366-2.97828.42906.42906,0,0,1,.24172.06126C14.98077,18.93577,15.14747,19.59662,15.2764,20.2652Z" style="fill:#373f3f"/><path d="M8.37674,31.7908a5.03182,5.03182,0,0,0,2.4335-2.78645,1.885,1.885,0,0,0,.12878-.55229c.04082-.51988-.17042-1.07812.22194-1.5513.03606-.04372.00721-.1383.01517-.20849.01457-.12878-.0261-.2647.05011-.38544a3.284,3.284,0,0,0,.008.39139.97244.97244,0,0,0,.48984.76465.71963.71963,0,0,0-.05949.41429,2.20093,2.20093,0,0,1-.35674,1.34846c-.23548.33935-.40448.7248-.64055,1.06355-.30232.43363-.542.93982-1.092,1.1379-.39861.14365-.79989.27956-1.20006.419l-.07472.01547C8.307,31.82352,8.34009,31.80478,8.37674,31.7908Z" style="fill:#b9bfbe"/><path d="M8.30053,31.86159l.07472-.01547c.40017-.13949.80145-.2754,1.20006-.419.55-.19808.78963-.70427,1.092-1.1379.23607-.33875.40507-.7242.64055-1.06355a2.20093,2.20093,0,0,0,.35674-1.34846.71963.71963,0,0,1,.05949-.41429c.22068-.36106.58709-.621.72211-1.04124-.02215.14365.15339.21443.13332.3563a3.0236,3.0236,0,0,0,.204,1.30831.88384.88384,0,0,1-.37132,1.17537c-.0484.02826-.07487.09369-.11249.14068a13.27078,13.27078,0,0,0-.976,1.67621,1.2495,1.2495,0,0,1-.92555.70308,10.79429,10.79429,0,0,1-2.02389.12135c-.02818-.00566-.07829-.00655-.08089-.01785S8.29912,31.87021,8.30053,31.86159Z" style="fill:#c8cccb"/><path d="M12.87977,12.53832l.06422-.05579Z" style="fill:#dce0e5"/><path d="M15.6182.95545a11.12472,11.12472,0,0,1-.11807,1.18964,16.37192,16.37192,0,0,0,.06141,1.93615,2.98532,2.98532,0,0,1-.89714-.13264,3.8423,3.8423,0,0,1-2.28048-1.33836,3.34776,3.34776,0,0,1,.26477-.32953A5.03969,5.03969,0,0,1,15.6182.95545Z" style="fill:#7c8ac4"/><path d="M15.99048,8.52458c.04224-.21-.05985-.3105-.24685-.3569.08543-.003.17094-.00624.25637-.00922v.60613c-.00409-.0003-.0081.00029-.01219,0A1.248,1.248,0,0,1,15.99048,8.52458Z" style="fill:#555"/><path d="M14.58328,8.33929c-.07175-.05383-.14179-.10975-.2154-.1609a7.17141,7.17141,0,0,1-2.04069-2.20234.24793.24793,0,0,1,.1145-.204,3.98257,3.98257,0,0,0,.67691-.72063,8.71753,8.71753,0,0,0,1.216,2.11787,2.87712,2.87712,0,0,0,1.409.99841c.187.0464.28909.14692.24685.3569a1.248,1.248,0,0,0-.00267.24l.00126.00238a2.25931,2.25931,0,0,1-.30172-.01339c-.41415-.07286-.41616-.07643-.54739.331-.14491.45-.2931.89908-.42463,1.35263A6.87484,6.87484,0,0,0,14.52372,12.44c.00112.11153.04848.25548-.13086.29057-.03613-.00535-.07227-.0107-.10833-.01576a8.63139,8.63139,0,0,1,.12231-2.02418,10.6349,10.6349,0,0,1,.55594-1.63517C15.17424,8.52755,15.17059,8.52606,14.58328,8.33929Z" style="fill:#373f3f"/><path d="M16,6.02156l-.01331-.05235L16,5.9707Z" style="fill:#9d908a"/><path d="M15.93546.05964A.85628.85628,0,0,1,16-.08787V5.9707l-.01331-.00149-.07-.18677c-.16075-.55824-.2409-1.13344-.35518-1.7012a16.37192,16.37192,0,0,1-.06141-1.93615,11.104,11.104,0,0,0,.118-1.18964A9.09878,9.09878,0,0,0,15.93546.05964Z" style="fill:#dadddc"/><path d="M12.38392,2.61024A3.8423,3.8423,0,0,0,14.6644,3.9486a2.98532,2.98532,0,0,0,.89714.13264c.11428.56776.19443,1.143.35518,1.7012l.07.18677c-.04037-.01814-.08075-.03658-.121-.055l-.00007.0003A3.13414,3.13414,0,0,1,14.716,5.2468q-.15079-.12313-.30173-.24655a.5743.5743,0,0,0-.30343-.24953c-.5056-.67483-.5056-.67483-.88138.11866l-.11086.182a3.98257,3.98257,0,0,1-.67691.72063.24793.24793,0,0,0-.1145.204.13821.13821,0,0,0-.1412.02231c-.19042.17636-.25667.08476-.28722-.12491-.04372-.29979-.124-.59542-.1473-.8961A3.20461,3.20461,0,0,1,12.38392,2.61024Z" style="fill:#5c6664"/><path d="M6.59956,13.94074A6.0865,6.0865,0,0,1,8.55675,10.1648a.1851.1851,0,0,1,.12216-.11807l.04-.02617c.02566.04253-.0026.06483-.03249.08625l-.05658.05918c-.05123.12075-.105.24031-.15339.36225a3.30809,3.30809,0,0,0,.26529,3.29086,7.827,7.827,0,0,0-1.70283,2.00515,3.52691,3.52691,0,0,1-.43972-1.57747Z" style="fill:#abb2b1"/><path d="M15.55329,16.98237c-.85335.0467-1.07745.41757-.666,1.10221a5.41445,5.41445,0,0,1-1.938-.82829.66026.66026,0,0,1-.24626-.91187c.01889-.044.01889-.074-.02022-.10171a.78227.78227,0,0,1,.37964-.1722,5.815,5.815,0,0,0,1.1611.29771c.03569.00565.07138.0116.10714.01754a5.226,5.226,0,0,0,1.65629.16507l.013.00208v.38039C15.85048,16.944,15.69493,16.89374,15.55329,16.98237Z" style="fill:#c8cccb"/><path d="M12.68282,16.24271c.03911.02766.03911.0577.02022.10171a.66026.66026,0,0,0,.24626.91187,5.41445,5.41445,0,0,0,1.938.82829q.06156.06156.12313.12343l-.0635.06453c-.03911-.00029-.07815-.00059-.11726-.00119a.42906.42906,0,0,0-.24172-.06126q-.45826-.13028-.91647-.26024c-.09168-.03807-.18284-.07762-.27511-.1142a3.47637,3.47637,0,0,1-1.00718-.533.50808.50808,0,0,1-.00833-.86695A2.4919,2.4919,0,0,1,12.68282,16.24271Z" style="fill:#dadddc"/><path d="M7.19765,16.30844a.565.565,0,0,0,.403.188c.184.00744.11353.069.04736.15406a3.29952,3.29952,0,0,0-.55185.82264c-.11785.0006-.16789-.072-.19012-.17517a1.52386,1.52386,0,0,1,.06037-.91841C7.00619,16.24657,7.0433,16.13148,7.19765,16.30844Z" style="fill:#dadddc"/><path d="M15.07341,18.30645c-.03346.04045-.09063.00535-.12647-.03391l.0635-.06453C15.04962,18.23091,15.11773,18.25291,15.07341,18.30645Z" style="fill:#c8cccb"/><path d="M15.98907,8.767l-.00126-.00238c.00409.00029.0081-.0003.01219,0V12.9001l-.01309-.00387Q15.988,10.8316,15.98907,8.767Z" style="fill:#6c6c6c"/><path d="M14.52372,12.44a6.87484,6.87484,0,0,1,.19161-2.00277c.13153-.45355.27972-.90264.42463-1.35263.13123-.40745.13324-.40388.54739-.331a2.25931,2.25931,0,0,0,.30172.01339q-.001,2.06463-.00216,4.12926a4.95213,4.95213,0,0,1-1.594-.16566C14.5722,12.69548,14.52484,12.55153,14.52372,12.44Z" style="fill:#505957"/><path d="M14.46327,16.09817c.00261-.53148.00045-1.06325,0-1.59473l.30031.05086c.087.064.21429.10915.27637.03956.06856-.07644-.06067-.14663-.10989-.21265-.36433-.48895-.25719-.81848.32522-.99812a1.00607,1.00607,0,0,1,.35794-.055A.76884.76884,0,0,1,16,13.26621v3.2867l-.013-.00208a5.226,5.226,0,0,1-1.65629-.16507C14.50826,16.35186,14.46268,16.21029,14.46327,16.09817Z" style="fill:#505957"/><path d="M14.359,14.48054l.10431.0229c.00045.53148.00261,1.06325,0,1.59473-.00059.11212.045.25369-.13257.28759-.03576-.00594-.07145-.01189-.10714-.01754-.0006-.53386-.00268-1.06741-.00045-1.601C14.22356,14.65393,14.18029,14.51266,14.359,14.48054Z" style="fill:#373f3f"/><path d="M13.22946,4.86938a1.14643,1.14643,0,0,0,.54925.5871.69235.69235,0,0,0,.93721-.20968,3.13023,3.13023,0,0,0,1.14965.66739c.0403.01844.08075.03688.12112.055L16,6.02156v2.1369c-.08543.003-.17094.00625-.25637.00922a2.87712,2.87712,0,0,1-1.409-.99841,8.71753,8.71753,0,0,1-1.216-2.11787Z" style="fill:#f0c13e"/><path d="M14.11084,4.75072a.26789.26789,0,0,0-.05539.22454c.0255.13086-.002.32061.17859.3337.20864.01546.15518-.18291.18023-.30871q.1509.12357.30165.24655a.69235.69235,0,0,1-.93721.20968,1.14643,1.14643,0,0,1-.54925-.5871C13.60524,4.07589,13.60524,4.07589,14.11084,4.75072Z" style="fill:#fff"/><path d="M14.41427,5.00025c-.02505.1258.02841.32417-.18023.30871-.1806-.01309-.15309-.20284-.17859-.3337a.26789.26789,0,0,1,.05539-.22454A.5743.5743,0,0,1,14.41427,5.00025Z" style="fill:#211915"/></svg>