<svg xmlns="http://www.w3.org/2000/svg" viewBox="0 0 32 32"><defs><style>.a{fill:#ffd96c;}.b{fill:#838c8a;}.c{fill:#914c39;}.d{fill:#fac7af;}.e{fill:#b17561;}.f{fill:#987042;}.g{fill:#776151;}.h{fill:#988371;}.i{fill:#abb2b1;}.j{fill:#5f5f5f;}.k{fill:#211915;}.l{fill:#ffe28a;}.m{fill:#909997;}.n{fill:#99533d;}.o{fill:#fcd2be;}.p{fill:#b8816f;}.q{fill:#7f6858;}.r{fill:#9d8978;}.s{fill:#b9bfbe;}</style></defs><title>626-bouffalant-shiny</title><path class="a" d="M18.66388,16.059c-.914-.45417-1.03485-.32876-.45434.3011-.00655.12.03225.272-.13119.31042-.14472.03377-.15848-.099-.18709-.19831q-.09292-.10264.00007,0l.01573-.59987a.148.148,0,0,0-.11677.13017,1.17579,1.17579,0,0,1-.65957.654.30627.30627,0,0,0,.11452.26033,1.23,1.23,0,0,0,1.63937.03611,2.25817,2.25817,0,0,0,.61981-.89369A3.54431,3.54431,0,0,0,18.66388,16.059Z"/><path class="b" d="M20.99456,30.06649a1.17836,1.17836,0,0,1-1.71276.23791,4.96754,4.96754,0,0,1-.11626.933c-.08547.539-.06232.57162.46366.72362a1.022,1.022,0,0,0,.11626.01951,4.32318,4.32318,0,0,0,.8436-.00262c.12056-.04309.24082-.08677.36153-.129.23-.081.29913-.21024.24489-.47174A5.49447,5.49447,0,0,1,20.99456,30.06649Z"/><path class="c" d="M18.06569,23.68809c.13.24373.26863.48309.40331.72421a8.53018,8.53018,0,0,1,.701,1.59227c.23631-.143.21039-.42515.33182-.62928a2.22088,2.22088,0,0,0,.08692-.21986c.01988-.04338.0538-.11531.07943-.11473.07083.00233.07083.0763.08583.13337q.142.54337.28981,1.0853c.01355.05008-.0099.13569.07928.12521.022-.00262.03931-.0795.05169-.12434.15514-.56027.308-1.12111.46439-1.68138.01813-.06464.05074-.17559.08168-.17734.08969-.00524.09122.10309.12878.16453.14968.2449.14975.553.3292.78594a20.4419,20.4419,0,0,1,1.02728-3.54475c.02-.05533.04251-.14968.0728-.15346.07811-.00961.09791.08182.12929.138a8.13652,8.13652,0,0,1,.69734,1.88783c.22313-.16161.126-.4333.21775-.64092.02984-.06756-.00888-.18637.08233-.19918.04113-.00583.10746.10221.148.16773.10454.16831.19948.34274.30183.5125.02453.04077.0661.10571.0942.10309.07055-.007.062-.09289.06771-.13919.05431-.44117.09973-.88321.14669-1.32525a1.69678,1.69678,0,0,1,.01667-.20675.44123.44123,0,0,1,.0744-.12055c.00976.03727.02089.07425.02919.11182.07834.3573.15492.7146.23558,1.07132.01092.048-.03123.14064.05831.13365.06742-.00553.05453-.092.064-.14909.01936-.11677.0369-.23412.064-.34944.013-.05532.0436-.14909.07047-.15084.06916-.00378.05634.08445.07753.13192a2.7926,2.7926,0,0,0,.25261.62986,5.09153,5.09153,0,0,1,.62506-2.47955,14.51937,14.51937,0,0,0,1.17-3.17115,13.7989,13.7989,0,0,0,.076-4.35458q-.27159-.09433-.54316-.189a7.293,7.293,0,0,1-.89842-.04718c-.16489.26062-.41321.17006-.63962.14269a2.45947,2.45947,0,0,1-.36763-.10134,1.75686,1.75686,0,0,1-1.56956,1.49647,2.39809,2.39809,0,0,1-.76978-.03058.17414.17414,0,0,0-.22576.08329.91437.91437,0,0,1-1.2306.38438c-.13053-.0498-.22495-.04514-.26266.11706a1.26413,1.26413,0,0,1-.77728.8733c.07054.08736-.01267.14793-.04361.21112a27.88007,27.88007,0,0,0-1.33747,3.04215c-.11364.32468-.19721.66014-.29462.99094.41714.53639.47888.9464.20573,1.38523a1.37075,1.37075,0,0,1-.74379.51338,4.75553,4.75553,0,0,1-1.42432.256A.24264.24264,0,0,0,16,22.44234v.75333a7.03687,7.03687,0,0,0,1.091-.02912C17.75,23.08968,17.74886,23.09433,18.06569,23.68809Z"/><path class="d" d="M31.505,8.12617a5.17868,5.17868,0,0,1-.95674,1.0885,3.68979,3.68979,0,0,1-2.87645.99415c-.78776.21723-.96641.96037-.86216,1.70264a1.20766,1.20766,0,0,0,.93489,1.09577,6.9674,6.9674,0,0,0,1.516-.59229,5.102,5.102,0,0,0,2.3044-3.99262l-.00248-.17909C31.55631,8.19781,31.55281,8.15122,31.505,8.12617Z"/><path class="e" d="M20.72083,24.40152c-.03094.00175-.06355.1127-.08168.17734-.15637.56027-.30925,1.12111-.46439,1.68138-.01238.04484-.0297.12172-.05169.12434-.08918.01048-.06573-.07513-.07928-.12521q-.14709-.54207-.28981-1.0853c-.015-.05707-.015-.131-.08583-.13337-.02563-.00058-.05955.07135-.07943.11473a2.22088,2.22088,0,0,1-.08692.21986c-.12143.20413-.09551.4863-.33182.62928.0142.177.04.35439.0407.53173.00451,1.101.00284,2.202.005,3.303a.87377.87377,0,0,0,.06617.46505,1.17836,1.17836,0,0,0,1.71276-.23791,1.14585,1.14585,0,0,0-.05577-.43825,16.257,16.257,0,0,1,.0993-3.317,2.22233,2.22233,0,0,1,.14072-.95921c-.17945-.233-.17952-.541-.3292-.78594C20.81205,24.50461,20.81052,24.39628,20.72083,24.40152Z"/><path class="e" d="M25.10678,23.26032a2.7926,2.7926,0,0,1-.25261-.62986c-.02119-.04747-.00837-.1357-.07753-.13192-.02687.00175-.05744.09552-.07047.15084-.02709.11532-.04463.23267-.064.34944-.00947.05708.00342.14356-.064.14909-.08954.007-.04739-.08561-.05831-.13365-.08066-.35672-.15724-.714-.23558-1.07132-.0083-.03757-.01943-.07455-.02919-.11182a.44123.44123,0,0,0-.0744.12055,1.69678,1.69678,0,0,0-.01667.20675c-.047.442-.09238.88408-.14669,1.32525-.00575.0463.00284.1322-.06771.13919-.0281.00262-.06967-.06232-.0942-.10309-.10235-.16976-.19729-.34419-.30183-.5125-.04054-.06552-.10687-.17356-.148-.16773-.09121.01281-.05249.13162-.08233.19918-.09173.20762.00538.47931-.21775.64092.05453.1456.11605.28916.16249.43738a7.90338,7.90338,0,0,1,.29018,3.31762,1.62805,1.62805,0,0,0,1.20134.12551c.03327-.22539.06261-.45107.10053-.67558a8.95145,8.95145,0,0,0,.31108-2.37734C25.13088,24.09344,25.12709,23.67615,25.10678,23.26032Z"/><path class="a" d="M26.80964,11.91146c-.10425-.74227.0744-1.48541.86216-1.70264a.32651.32651,0,0,0-.15193-.29294,1.14943,1.14943,0,0,0-.57745-.14852q-.27594.15856-.552.31741a2.20778,2.20778,0,0,0-.55859,1.27894,2.10982,2.10982,0,0,0,.60285,1.70235q.27158.09479.54323.189a1.09327,1.09327,0,0,0,.76658-.24781A1.20766,1.20766,0,0,1,26.80964,11.91146Z"/><path class="b" d="M24.75953,27.56015a1.62805,1.62805,0,0,1-1.20134-.12551.8803.8803,0,0,0-.16511.34536c-.07775.488-.15208.97668-.23,1.46444a.17566.17566,0,0,0,.13584.22422,2.36829,2.36829,0,0,0,1.45555.05474.28845.28845,0,0,0,.237-.37389c-.05168-.25422-.01718-.51979-.06908-.7676C24.86509,28.10876,24.98157,27.79864,24.75953,27.56015Z"/><path class="f" d="M16,22.36721v.07542a.23276.23276,0,0,1,.05533-.0594Z"/><path class="g" d="M17.13072,16.65653a1.17612,1.17612,0,0,0,.65964-.654.14782.14782,0,0,1,.1167-.13017,4.489,4.489,0,0,1,.75682.18666,2.22366,2.22366,0,0,0,.84054.00029l.189-.07513a1.26413,1.26413,0,0,0,.77728-.8733c.03771-.1622.13213-.16686.26266-.11706a.91437.91437,0,0,0,1.2306-.38438.17414.17414,0,0,1,.22576-.08329,2.39809,2.39809,0,0,0,.76978.03058,1.75686,1.75686,0,0,0,1.56956-1.49647l-.19489-.12317c-.48288-.03437-.96627-.06319-1.44849-.10513-.27853-.02417-.61858-.43563-.67478-.85845a2.46677,2.46677,0,0,1,.42712-1.88929,1.125,1.125,0,0,1,1.27056-.47757c.23777.06494.4823.10483.7237.15609a1.02957,1.02957,0,0,1,.932-.085c.12376.06173.24818.12667.26791.28712.186.04018.37193.07979.55808.12q.27627-.159.55225-.3177a1.49011,1.49011,0,0,0-.36734-1.488.25151.25151,0,0,1-.02912-.35351.75727.75727,0,0,0-.10658-1.00609c-.17741-.16191-.12929-.24024-.00488-.39487a1.28141,1.28141,0,0,0-.21774-2.07245.837.837,0,0,1-.38657-.60482,1.45074,1.45074,0,0,0-1.57232-1.27545,2.403,2.403,0,0,0-.58858.07921c-.10775.028-.158.03-.17669-.09959a.75043.75043,0,0,0-.95819-.61472c-.24154.0364-.31471-.04456-.4052-.23908A1.72845,1.72845,0,0,0,20.23963.60919a2.10017,2.10017,0,0,0-.71606.1884c-.17982.085-.28013.08358-.40418-.10308A1.54538,1.54538,0,0,0,18.08418.00175c-.04-.00059-.08016-.00117-.12027-.00146C17.88274.00029,17.80164,0,17.72047,0a2.26828,2.26828,0,0,0-1.1412.52852c-.09719.07979-.14335.12609-.2243-.02882A.35977.35977,0,0,0,16,.2976V16.65449A1.60186,1.60186,0,0,0,17.13072,16.65653Z"/><path class="h" d="M18.31233,19.23742a27.88007,27.88007,0,0,1,1.33747-3.04215c.03094-.06319.11415-.12376.04361-.21112l-.189.07513a2.25817,2.25817,0,0,1-.61981.89369,1.23,1.23,0,0,1-1.63937-.03611.30627.30627,0,0,1-.11452-.26033A1.60344,1.60344,0,0,1,16,16.65478v2.97284a3.63127,3.63127,0,0,1,2.01771.60074C18.11512,19.89756,18.19869,19.5621,18.31233,19.23742Z"/><path class="i" d="M17.47965,22.127a1.37075,1.37075,0,0,0,.74379-.51338c.27315-.43883.21141-.84884-.20573-1.38523A3.63127,3.63127,0,0,0,16,19.62762v2.73959l.05533.01573A4.75553,4.75553,0,0,0,17.47965,22.127Zm-.31646-1.4621a.2045.2045,0,0,1,.19809.17181c.00764.21636-.21549.48688-.37143.48717-.1354.00058-.19175-.08765-.1959-.20937C16.78791,20.93772,17.01512,20.65905,17.16319,20.66487Z"/><path class="d" d="M26.39024,10.08477c-.18615-.04018-.37208-.07979-.55808-.12a1.159,1.159,0,0,0-1.1918,1.20556,1.89128,1.89128,0,0,0,.896,1.84852,7.29118,7.29118,0,0,0,.89835.04718,2.10982,2.10982,0,0,1-.60285-1.70235A2.20891,2.20891,0,0,1,26.39024,10.08477Z"/><path class="a" d="M25.83216,9.9648c-.01973-.16045-.14415-.22539-.26791-.28712a1.02957,1.02957,0,0,0-.932.085,2.06288,2.06288,0,0,0-.298,3.17435l.19482.12317a2.45947,2.45947,0,0,0,.36763.10134c.22641.02737.47473.11793.63969-.14269a1.89128,1.89128,0,0,1-.896-1.84852A1.159,1.159,0,0,1,25.83216,9.9648Z"/><path class="d" d="M24.63227,9.76271c-.2414-.05126-.48593-.09115-.7237-.15609a1.125,1.125,0,0,0-1.27056.47757,2.46677,2.46677,0,0,0-.42712,1.88929c.0562.42282.39625.83428.67478.85845.48222.04194.96561.07076,1.44856.10513A2.06288,2.06288,0,0,1,24.63227,9.76271Z"/><path class="j" d="M17.16319,20.66487c-.14807-.00582-.37528.27285-.36924.44961.00415.12172.0605.20995.1959.20937.15594-.00029.37907-.27081.37143-.48717A.2045.2045,0,0,0,17.16319,20.66487Z"/><path class="k" d="M17.90706,15.87233l-.01573.59987c.02854.0993.0423.23208.187.19831.16344-.03844.12464-.19045.13119-.31042C18.22271,16.12684,18.19833,15.91689,17.90706,15.87233Z"/><path class="l" d="M13.33612,16.059c.914-.45417,1.03485-.32876.45434.3011.00655.12-.03225.272.13119.31042.14472.03377.15848-.099.18709-.19831q.09293-.10264-.00007,0l-.01573-.59987a.148.148,0,0,1,.11677.13017,1.17579,1.17579,0,0,0,.65957.654.30627.30627,0,0,1-.11452.26033,1.23,1.23,0,0,1-1.63937.03611,2.25817,2.25817,0,0,1-.61981-.89369A3.54431,3.54431,0,0,1,13.33612,16.059Z"/><path class="m" d="M11.00544,30.06649a1.17836,1.17836,0,0,0,1.71276.23791,4.96754,4.96754,0,0,0,.11626.933c.08547.539.06232.57162-.46366.72362a1.022,1.022,0,0,1-.11626.01951,4.32318,4.32318,0,0,1-.8436-.00262c-.12056-.04309-.24082-.08677-.36153-.129-.23-.081-.29913-.21024-.24489-.47174A5.49447,5.49447,0,0,0,11.00544,30.06649Z"/><path class="n" d="M13.93431,23.68809c-.13.24373-.26863.48309-.40331.72421a8.53018,8.53018,0,0,0-.701,1.59227c-.23631-.143-.21039-.42515-.33182-.62928a2.22088,2.22088,0,0,1-.08692-.21986c-.01988-.04338-.0538-.11531-.07943-.11473-.07083.00233-.07083.0763-.08583.13337q-.142.54337-.28981,1.0853c-.01355.05008.0099.13569-.07928.12521-.022-.00262-.03931-.0795-.05169-.12434-.15514-.56027-.308-1.12111-.46439-1.68138-.01813-.06464-.05074-.17559-.08168-.17734-.08969-.00524-.09122.10309-.12878.16453-.14968.2449-.14975.553-.3292.78594a20.4419,20.4419,0,0,0-1.02728-3.54475c-.02-.05533-.04251-.14968-.0728-.15346-.07811-.00961-.09791.08182-.12929.138a8.13652,8.13652,0,0,0-.69734,1.88783c-.22313-.16161-.126-.4333-.21775-.64092-.02984-.06756.00888-.18637-.08233-.19918-.04113-.00583-.10746.10221-.148.16773-.10454.16831-.19948.34274-.30183.5125-.02453.04077-.0661.10571-.0942.10309-.07055-.007-.062-.09289-.06771-.13919-.05431-.44117-.09973-.88321-.14669-1.32525a1.69678,1.69678,0,0,0-.01667-.20675.44123.44123,0,0,0-.0744-.12055c-.00976.03727-.02089.07425-.02919.11182-.07834.3573-.15492.7146-.23558,1.07132-.01092.048.03123.14064-.05831.13365-.06742-.00553-.05453-.092-.064-.14909-.01936-.11677-.0369-.23412-.064-.34944-.013-.05532-.0436-.14909-.07047-.15084-.06916-.00378-.05634.08445-.07753.13192a2.7926,2.7926,0,0,1-.25261.62986,5.09153,5.09153,0,0,0-.62506-2.47955,14.51937,14.51937,0,0,1-1.17-3.17115,13.7989,13.7989,0,0,1-.076-4.35458q.27159-.09433.54316-.189a7.293,7.293,0,0,0,.89842-.04718c.16489.26062.41321.17006.63962.14269a2.45947,2.45947,0,0,0,.36763-.10134A1.75686,1.75686,0,0,0,9.04051,14.5567a2.39809,2.39809,0,0,0,.76978-.03058.17414.17414,0,0,1,.22576.08329.91437.91437,0,0,0,1.2306.38438c.13053-.0498.22495-.04514.26266.11706a1.26413,1.26413,0,0,0,.77728.8733c-.07054.08736.01267.14793.04361.21112a27.88007,27.88007,0,0,1,1.33747,3.04215c.11364.32468.19721.66014.29462.99094-.41714.53639-.47888.9464-.20573,1.38523a1.37075,1.37075,0,0,0,.74379.51338,4.75553,4.75553,0,0,0,1.42432.256A.24264.24264,0,0,1,16,22.44234v.75333a7.03687,7.03687,0,0,1-1.091-.02912C14.25,23.08968,14.25114,23.09433,13.93431,23.68809Z"/><path class="o" d="M.495,8.12617a5.17868,5.17868,0,0,0,.95674,1.0885,3.68979,3.68979,0,0,0,2.87645.99415c.78776.21723.96641.96037.86216,1.70264a1.20766,1.20766,0,0,1-.93489,1.09577,6.9674,6.9674,0,0,1-1.516-.59229A5.102,5.102,0,0,1,.4351,8.42232l.00248-.17909C.44369,8.19781.44719,8.15122.495,8.12617Z"/><path class="p" d="M11.27917,24.40152c.03094.00175.06355.1127.08168.17734.15637.56027.30925,1.12111.46439,1.68138.01238.04484.0297.12172.05169.12434.08918.01048.06573-.07513.07928-.12521q.14709-.54207.28981-1.0853c.015-.05707.015-.131.08583-.13337.02563-.00058.05955.07135.07943.11473a2.22088,2.22088,0,0,0,.08692.21986c.12143.20413.09551.4863.33182.62928-.0142.177-.04.35439-.0407.53173-.00451,1.101-.00284,2.202-.005,3.303a.87377.87377,0,0,1-.06617.46505,1.17836,1.17836,0,0,1-1.71276-.23791,1.14585,1.14585,0,0,1,.05577-.43825,16.257,16.257,0,0,0-.0993-3.317,2.22233,2.22233,0,0,0-.14072-.95921c.17945-.233.17952-.541.3292-.78594C11.188,24.50461,11.18948,24.39628,11.27917,24.40152Z"/><path class="p" d="M6.89322,23.26032a2.7926,2.7926,0,0,0,.25261-.62986c.02119-.04747.00837-.1357.07753-.13192.02687.00175.05744.09552.07047.15084.02709.11532.04463.23267.064.34944.00947.05708-.00342.14356.064.14909.08954.007.04739-.08561.05831-.13365.08066-.35672.15724-.714.23558-1.07132.0083-.03757.01943-.07455.02919-.11182a.44123.44123,0,0,1,.0744.12055,1.69678,1.69678,0,0,1,.01667.20675c.047.442.09238.88408.14669,1.32525.00575.0463-.00284.1322.06771.13919.0281.00262.06967-.06232.0942-.10309.10235-.16976.19729-.34419.30183-.5125.04054-.06552.10687-.17356.148-.16773.09121.01281.05249.13162.08233.19918.09173.20762-.00538.47931.21775.64092-.05453.1456-.116.28916-.16249.43738a7.90338,7.90338,0,0,0-.29018,3.31762,1.62805,1.62805,0,0,1-1.20134.12551c-.03327-.22539-.06261-.45107-.10053-.67558a8.95145,8.95145,0,0,1-.31108-2.37734C6.86912,24.09344,6.87291,23.67615,6.89322,23.26032Z"/><path class="l" d="M5.19036,11.91146c.10425-.74227-.0744-1.48541-.86216-1.70264a.32651.32651,0,0,1,.15193-.29294,1.14943,1.14943,0,0,1,.57745-.14852q.27594.15856.552.31741a2.20778,2.20778,0,0,1,.55859,1.27894,2.10982,2.10982,0,0,1-.60285,1.70235q-.27158.09479-.54323.189a1.09327,1.09327,0,0,1-.76658-.24781A1.20766,1.20766,0,0,0,5.19036,11.91146Z"/><path class="m" d="M7.24047,27.56015a1.62805,1.62805,0,0,0,1.20134-.12551.8803.8803,0,0,1,.16511.34536c.07775.488.15208.97668.23,1.46444a.17566.17566,0,0,1-.13584.22422,2.36829,2.36829,0,0,1-1.45555.05474.28845.28845,0,0,1-.237-.37389c.05168-.25422.01718-.51979.06908-.7676C7.13491,28.10876,7.01843,27.79864,7.24047,27.56015Z"/><path class="f" d="M16,22.36721v.07542a.23276.23276,0,0,0-.05533-.0594Z"/><path class="q" d="M14.86928,16.65653a1.17612,1.17612,0,0,1-.65964-.654.14782.14782,0,0,0-.1167-.13017,4.489,4.489,0,0,0-.75682.18666,2.22366,2.22366,0,0,1-.84054.00029l-.189-.07513a1.26413,1.26413,0,0,1-.77728-.8733c-.03771-.1622-.13213-.16686-.26266-.11706a.91437.91437,0,0,1-1.2306-.38438.17414.17414,0,0,0-.22576-.08329,2.39809,2.39809,0,0,1-.76978.03058A1.75686,1.75686,0,0,1,7.471,13.06023l.19489-.12317c.48288-.03437.96627-.06319,1.44849-.10513.27853-.02417.61858-.43563.67478-.85845A2.46677,2.46677,0,0,0,9.362,10.08419a1.125,1.125,0,0,0-1.27056-.47757c-.23777.06494-.4823.10483-.7237.15609a1.02957,1.02957,0,0,0-.932-.085c-.12376.06173-.24818.12667-.26791.28712-.186.04018-.37193.07979-.55808.12q-.27627-.159-.55225-.3177a1.49011,1.49011,0,0,1,.36734-1.488A.25151.25151,0,0,0,5.454,7.92554a.75727.75727,0,0,1,.10658-1.00609c.17741-.16191.12929-.24024.00488-.39487a1.28141,1.28141,0,0,1,.21774-2.07245.837.837,0,0,0,.38657-.60482A1.45074,1.45074,0,0,1,7.74206,2.57186a2.403,2.403,0,0,1,.58858.07921c.10775.028.158.03.17669-.09959a.75043.75043,0,0,1,.95819-.61472c.24154.0364.31471-.04456.4052-.23908A1.72845,1.72845,0,0,1,11.76037.60919a2.10017,2.10017,0,0,1,.71606.1884c.17982.085.28013.08358.40418-.10308A1.54538,1.54538,0,0,1,13.91582.00175c.04-.00059.08016-.00117.12027-.00146.08117,0,.16227-.00029.24344-.00029a2.26828,2.26828,0,0,1,1.1412.52852c.09719.07979.14335.12609.2243-.02882A.35977.35977,0,0,1,16,.2976V16.65449A1.60186,1.60186,0,0,1,14.86928,16.65653Z"/><path class="r" d="M13.68767,19.23742a27.88007,27.88007,0,0,0-1.33747-3.04215c-.03094-.06319-.11415-.12376-.04361-.21112l.189.07513a2.25817,2.25817,0,0,0,.61981.89369,1.23,1.23,0,0,0,1.63937-.03611.30627.30627,0,0,0,.11452-.26033A1.60344,1.60344,0,0,0,16,16.65478v2.97284a3.63127,3.63127,0,0,0-2.01771.60074C13.88488,19.89756,13.80131,19.5621,13.68767,19.23742Z"/><path class="s" d="M15.94467,22.38294,16,22.36721V19.62762a3.63127,3.63127,0,0,0-2.01771.60074c-.41714.53639-.47888.9464-.20573,1.38523a1.37075,1.37075,0,0,0,.74379.51338A4.75553,4.75553,0,0,0,15.94467,22.38294Zm-.73862-1.26846c-.00415.12172-.0605.20995-.1959.20937-.15594-.00029-.37907-.27081-.37143-.48717a.2045.2045,0,0,1,.19809-.17181C14.98488,20.65905,15.21209,20.93772,15.20605,21.11448Z"/><path class="o" d="M5.60976,10.08477c.18615-.04018.37208-.07979.55808-.12a1.159,1.159,0,0,1,1.1918,1.20556,1.89128,1.89128,0,0,1-.896,1.84852,7.29118,7.29118,0,0,1-.89835.04718,2.10982,2.10982,0,0,0,.60285-1.70235A2.20891,2.20891,0,0,0,5.60976,10.08477Z"/><path class="l" d="M6.16784,9.9648c.01973-.16045.14415-.22539.26791-.28712a1.02957,1.02957,0,0,1,.932.085,2.06288,2.06288,0,0,1,.298,3.17435l-.19482.12317a2.45947,2.45947,0,0,1-.36763.10134c-.22641.02737-.47473.11793-.63969-.14269a1.89128,1.89128,0,0,0,.896-1.84852A1.159,1.159,0,0,0,6.16784,9.9648Z"/><path class="o" d="M7.36773,9.76271c.2414-.05126.48593-.09115.7237-.15609a1.125,1.125,0,0,1,1.27056.47757,2.46677,2.46677,0,0,1,.42712,1.88929c-.0562.42282-.39625.83428-.67478.85845-.48222.04194-.96561.07076-1.44856.10513A2.06288,2.06288,0,0,0,7.36773,9.76271Z"/><path class="j" d="M14.83681,20.66487c.14807-.00582.37528.27285.36924.44961-.00415.12172-.0605.20995-.1959.20937-.15594-.00029-.37907-.27081-.37143-.48717A.2045.2045,0,0,1,14.83681,20.66487Z"/><path class="k" d="M14.09294,15.87233l.01573.59987c-.02854.0993-.0423.23208-.187.19831-.16344-.03844-.12464-.19045-.13119-.31042C13.77729,16.12684,13.80167,15.91689,14.09294,15.87233Z"/></svg>