<svg xmlns="http://www.w3.org/2000/svg" viewBox="0 0 32 32"><title>628-braviary-shiny</title><path d="M18.21971,22.78926a5.42724,5.42724,0,0,1,.5413,1.1592c.0373.146.14033.19977.25215.25836a1.92469,1.92469,0,0,0,1.1026-.172.76236.76236,0,0,0,.12518-.353,10.49084,10.49084,0,0,1,.33781-1.95114,7.29327,7.29327,0,0,0-.20713-4.9943,23.457,23.457,0,0,0-1.27187-2.43384.76642.76642,0,0,1-.14018-.345A10.17534,10.17534,0,0,1,17.95271,10.809l-.02037-.00029-.02043.00029a.6607.6607,0,0,1-.38611.66905,1.971,1.971,0,0,0-.64419.56873c-.37518.42041-.62825.63847-.88161.65162V23.24768a3.70572,3.70572,0,0,0,1.8684-.5453C18.04273,22.60064,18.12154,22.60292,18.21971,22.78926Z" style="fill:#ab998b"/><path d="M18.4347,28.77671c.06931-.06717.13919-.04116.21642-.03a2.28263,2.28263,0,0,0,2.0646-.62847.872.872,0,0,0,.109-.41155q-.12165-.25722-.24321-.51415l-.33281.25122a.619.619,0,0,1-.40483.27665c-.21671.32181-.51815.25436-.82138.17862a2.39171,2.39171,0,0,0-1.28259.43813,1.40157,1.40157,0,0,1-.86682.20863A8.315,8.315,0,0,0,16,28.54407v.71277c.02908.004.058.008.088.01372A2.422,2.422,0,0,0,18.4347,28.77671Z" style="fill:#912b41"/><path d="M17.65291,6.051c-.0701.05145-.13869.10289-.15448-.04086-.01779-.16177.07067-.42041-.042-.46471-.16519-.06545-.18012.26322-.36732.29609.01686.17319.04759.34638.048.51957a5.88305,5.88305,0,0,1-.23921,1.57532.27758.27758,0,0,1,.009.05344l.05874-.05516a.34852.34852,0,0,1,.11839-.22806,12.29632,12.29632,0,0,1,.7142-1.17177c.01651-.11432.03994-.22807.0468-.343.00429-.0703.07524-.15719-.019-.21234C17.74822,5.93383,17.70478,6.013,17.65291,6.051Z" style="fill:#fef1c6"/><path d="M17.13708,6.3611c-.00042-.17334-.03112-.34643-.048-.51953a6.62328,6.62328,0,0,0-.62121-2.22314,3.664,3.664,0,0,0-.4513-.84424c-.0116-.01465-.01-.03076-.0166-.04565V5.51735a.22645.22645,0,0,1,.02881.03321,8.54918,8.54918,0,0,1,.76349,2.22827c.01312.05591.03625.10889.05475.16284.00213.03857.01318.06567.05987.0481a.28121.28121,0,0,0-.009-.05347A5.88067,5.88067,0,0,0,17.13708,6.3611Z" style="fill:#e3e5e5"/><path d="M20.84733,27.49862l-.02258.20806a.872.872,0,0,1-.109.41155c.52636-.00086.78808-.22578.81523-.70049C21.3066,27.47462,21.09461,27.63638,20.84733,27.49862Z" style="fill:#2b3332"/><path d="M21.87577,26.61923a.93237.93237,0,0,1-.059.45927l.07545.012c.44977-.20091.54637-.39554.448-.902C22.20936,26.358,22.13191,26.58522,21.87577,26.61923Z" style="fill:#2b3332"/><path d="M21.79651,25.44826a1.26138,1.26138,0,0,0-1.41889.06031c-.27423.17236-.35223.11865-.36529-.20411a7.41513,7.41513,0,0,1,.10345-1.26977,1.92481,1.92481,0,0,1-1.1026.17212,7.78857,7.78857,0,0,1,.17047,1.06177c.02656.198-.00408.31567-.24261.25341-.03229-.00854-.07379.01856-.111.02906-.19977.17187-.15235.42529-.213.64306.05358.14649.20813.15528.31353.231.07062.051.20081.03833.18958.17676.26111.054.21136.2456.15527.40551a.984.984,0,0,0-.08533.41675,1.87334,1.87334,0,0,0,.65369.29639.6187.6187,0,0,0,.40491-.27686c-.02985-.25048.06524-.51977-.1178-.748-.0495-.062.00336-.08325.05689-.08252a.34768.34768,0,0,1,.23059.10058c.03894.04346.07782.08765.11676.1316q.15609.32665.31219.65332c.24725.13793.45923-.02393.68359-.08082a.92566.92566,0,0,0-.34393-1.10742l.05914-.06006a.57442.57442,0,0,1,.34559.22754.2956.2956,0,0,0,.284.14136c.25611-.03393.33356-.26123.46442-.43066A1.011,1.011,0,0,0,21.79651,25.44826Z" style="fill:#ffd04d"/><path d="M21.796,27.12137a.067.067,0,0,0,.09617-.03087l-.07545-.012Z" style="fill:#9f9b97"/><path d="M16.99036,27.20625a1.52857,1.52857,0,0,0,.52979-.14061,4.61946,4.61946,0,0,1,1.6-.46385c.01121-.13832-.119-.12575-.18956-.17662-.10546-.07574-.26-.0846-.31359-.23092a1.27364,1.27364,0,0,0-.58617-.23464c-.17312-.03258-.18091-.10318-.0548-.21864a.76847.76847,0,0,1,.854-.18977c.03723-.01057.07874-.03772.111-.02915.2385.06231.26915-.05544.24257-.2535a7.78176,7.78176,0,0,0-.17047-1.06173c-.11182-.05859-.21485-.11232-.25215-.25836a5.42724,5.42724,0,0,0-.5413-1.1592c-.09817-.18634-.177-.18862-.35131-.08688A3.70572,3.70572,0,0,1,16,23.24768v3.95714A3.77926,3.77926,0,0,0,16.99036,27.20625Z" style="fill:#4390bf"/><path d="M16.88161,12.04673a1.971,1.971,0,0,1,.64419-.56873.6607.6607,0,0,0,.38611-.66905.6466.6466,0,0,0-.58195-.53816.95474.95474,0,0,1-.336.71564c-.25929.21177-.32409.54787-.51486.80366-.08088.1086-.14133.23235-.223.3401-.12311.16262-.19056.24207-.25615.25636v.3118C16.25336,12.6852,16.50643,12.46714,16.88161,12.04673Z" style="fill:#ffd04d"/><path d="M17.3271,10.23549a.22493.22493,0,0,0,.00278.03514.64654.64654,0,0,1,.582.538l.02043-.00028.02044.00028a3.69583,3.69583,0,0,0-.21506-1.2152A.6411.6411,0,0,1,17.3271,10.23549Z" style="fill:#5b689d"/><path d="M16.68105,9.99128a5.75079,5.75079,0,0,0-.6684-1.11832c-.00458-.006-.00815-.00371-.01265-.00914v1.02a1.64609,1.64609,0,0,1,.67234.16118A.31151.31151,0,0,1,16.68105,9.99128Z" style="fill:#a8364c"/><path d="M17.56359,9.23764q-.1226.135-.24557.2695a.33985.33985,0,0,1-.01079.509c-.15025.14261-.31473.09088-.45827-.038-.11589.04315.00186.088-.001.13175l.12868.11032.35046.01543a.64125.64125,0,0,0,.41062-.64218l.00071-.30666C17.70328,9.1882,17.65483,9.13732,17.56359,9.23764Z" style="fill:#fff"/><path d="M17.1997,9.61975c.09767.00943.10268.0603.05945.13261-.06052.22292-.18748.23321-.356.11146l-.06088.052.00672.06231c.14347.12889.308.18062.4582.038a.33985.33985,0,0,0,.01079-.509Z" style="fill:#912b41"/><path d="M16.90319,9.86382c.16848.12175.29544.11146.356-.11146l-.0871-.06688A.48873.48873,0,0,0,16.90319,9.86382Z" style="fill:#2b3332"/><path d="M22.66144,7.302a7.75746,7.75746,0,0,0-3.05811.17163q-.46105.20545-.92212.41016-.45474.58191-.9096,1.16382h0c-.06806.04931-.02851.08691.01428.12378.00275-.011.00275-.01075,0,0l.01385.05835.04084.06958a3.68068,3.68068,0,0,0,.76568,1.09936,8.57527,8.57527,0,0,0,1.26227.88013c.14825.07739.30719.262.45032.16748.06793-.04492-.1034-.28076-.18341-.42163a4.86745,4.86745,0,0,0-.933-1.114c-.03363-.03173-.07641-.07495-.078-.11425-.00214-.05323.05573-.03784.08832-.02564a4.47468,4.47468,0,0,0,1.171.19239,4.6727,4.6727,0,0,0,1.39252-.02686c.04071-.00855.1098.01953.11254-.05127.00092-.02441-.04516-.05688-.076-.075a6.93383,6.93383,0,0,0-1.95478-.81519c-.05487-.01245-.14044.001-.14123-.06787-.001-.08374.08783-.04248.13641-.05176a6.74135,6.74135,0,0,0,2.84882-1.26513c.0747-.05713.19067-.11914.17853-.2124C22.871,7.32351,22.743,7.31106,22.66144,7.302Z" style="fill:#e3e5e5"/><path d="M17.17205,9.68548l.0871.06688c.04323-.07231.03822-.12318-.05945-.13233Z" style="fill:#fff"/><path d="M31.34985,7.68606c-.26391.27294-.52807.54736-.771.83886a3.56739,3.56739,0,0,1-1.41761.99878,11.60016,11.60016,0,0,1-4.96136.87207.7118.7118,0,0,0-.78241.374,5.15555,5.15555,0,0,1-2.82336,2.53149,3.57073,3.57073,0,0,1-.89179.26636.349.349,0,0,1-.4386-.27246,17.94715,17.94715,0,0,1-.65747-2.89649,3.68068,3.68068,0,0,1-.76568-1.09936l-.04084-.06958a.20487.20487,0,0,0-.00793.05517l-.05341.002-.00067.30664a3.69623,3.69623,0,0,1,.215,1.21533,10.17284,10.17284,0,0,0,1.00683,3.14868,1.11361,1.11361,0,0,0,.80866.17236,5.63783,5.63783,0,0,0,2.0741-.90429,6.33022,6.33022,0,0,0,1.71515-1.85425.69452.69452,0,0,1,.72851-.37988,6.65441,6.65441,0,0,0,1.88886-.06055A7.14616,7.14616,0,0,0,31.54053,7.593C31.41669,7.49441,31.39325,7.64113,31.34985,7.68606Z" style="fill:#4896c8"/><path d="M19.42572,6.29567A16.08094,16.08094,0,0,0,17.15259,7.7715a.4184.4184,0,0,1-.18689.16309l-.05878.05493c-.04669.01782-.05774-.00928-.05987-.04785-.0185-.054-.04163-.10693-.05475-.16284a8.54918,8.54918,0,0,0-.76349-2.22827A.22645.22645,0,0,0,16,5.51735V8.86379c.00452.00537.00806.00317.01263.009a5.7548,5.7548,0,0,1,.66852,1.11841l.16114-.07544.06091-.052a.49056.49056,0,0,1,.2688-.17847l.02771-.06543L17.318,9.5071q.12286-.13476.24561-.26953c.09125-.10034.13965-.04932.1748.04932l.05341-.002a.20487.20487,0,0,1,.00793-.05517l-.01385-.05835c-.04279-.03687-.08234-.07447-.01428-.12378q.45483-.58229.9096-1.16382c.05146-.07837.10279-.15625.15424-.23438.014.0127.07281-.05127.05884-.064a.17293.17293,0,0,1,.00366-.031l.00195-.00293a.08869.08869,0,0,1,.05225-.07959l-.00037.00049-.05157.07862a.08636.08636,0,0,1,.05218-.08057l.01526-.05347.10224-.186q.0541-.09412.10809-.18921.12927-.33691.2586-.67407Z" style="fill:#529ccf"/><polygon points="18.954 7.469 18.952 7.472 18.954 7.469 18.954 7.469" style="fill:#529ccf"/><path d="M19.63782,7.085c-.29657.16333-.24787-.01343-.21338-.19311-.06.07519-.11981.15063-.17981.22558h-.00006l-.16834.19141-.08142.10693-.04046.05322.00006-.00048-.002.00195-.00061.00195-.05578.085a.21424.21424,0,0,0-.00342.03l-.05713.062c-.05145.07813-.10278.156-.15424.23438q.46107-.20472.92206-.41016a2.29,2.29,0,0,0,.14594-.24853C19.79492,7.12087,19.75244,7.02175,19.63782,7.085Zm-.7453.50366h0l-.00012.00025Zm.00006,0Zm.06158-.11816-.00158.01123c0-.00415.0017-.00708.00152-.01123h.00006l.00006-.00024C18.97424,7.45192,18.97412,7.45192,18.95416,7.47048Z" style="fill:#fef1c6"/><path d="M18.96765,7.417l-.01587.05542.043-.05664.08142-.10693.16834-.19141L19.178,7.04177q-.054.09485-.10809.18921Z" style="fill:#e3e5e5"/><path d="M21.03314,4.08156a4.29214,4.29214,0,0,0-.94623.377,7.03647,7.03647,0,0,0-2.28869,2.07641,12.25039,12.25039,0,0,0-.71417,1.17163.34864.34864,0,0,0-.11835.228.4184.4184,0,0,0,.18689-.16309,16.08094,16.08094,0,0,1,2.27313-1.47583l.01086.072q-.12936.33692-.2586.67407c.02222.02514.04443.05078.06665.07568.06-.07495.11981-.15039.17981-.22558.04394-.07569.085-.15284.13214-.22657q.787-1.22681,1.57446-2.45337c.02979-.04663.07538-.12622.0578-.15112C21.14722,4.00173,21.08453,4.06765,21.03314,4.08156Z" style="fill:#e3e5e5"/><path d="M16.87311,28.54578a1.40157,1.40157,0,0,0,.86682-.20863,2.39171,2.39171,0,0,1,1.28259-.43813c-.155-.10774-.24765-.20806.00664-.31494.06466-.02715.10789-.10518.161-.16005a.98509.98509,0,0,1,.08532-.41669c.05608-.15976.10581-.35153-.15526-.40555a4.61946,4.61946,0,0,0-1.6.46385,1.52857,1.52857,0,0,1-.52979.14061A3.77926,3.77926,0,0,1,16,27.20482v1.33925A8.315,8.315,0,0,1,16.87311,28.54578Z" style="fill:#f7c845"/><path d="M19.02916,27.58408c-.25429.10688-.16169.2072-.00664.31494.30323.07574.60467.14319.8213-.17862a1.87179,1.87179,0,0,1-.65369-.29637C19.13705,27.4789,19.09382,27.55693,19.02916,27.58408Z" style="fill:#2b3332"/><path d="M20.41842,26.71354a.34794.34794,0,0,0-.23064-.10032c-.05352-.00085-.10639.0203-.05687.08231.18305.22836.08795.49758.11782.74822l.33281-.25122-.10675-.28608A.20652.20652,0,0,1,20.41842,26.71354Z" style="fill:#fce179"/><path d="M31.86829,9.19021c.01782-.07569.05261-.15772-.00464-.22242-.06311-.071-.141-.01855-.21576-.00146-.18921.04346-.38043.07812-.57111.1145-.03717.00708-.09717.02271-.10962.00635-.03772-.04932.01953-.08106.04737-.11377a2.78461,2.78461,0,0,0,.59478-.92725.37607.37607,0,0,0-.06878-.45312,7.14616,7.14616,0,0,1-5.36566,3.33789,6.65441,6.65441,0,0,1-1.88886.06055.69452.69452,0,0,0-.72851.37988,6.33022,6.33022,0,0,1-1.71515,1.85425,5.63783,5.63783,0,0,1-2.0741.90429,1.11361,1.11361,0,0,1-.80866-.17236.76647.76647,0,0,0,.14014.345,23.47457,23.47457,0,0,1,1.27191,2.43384c.09546-.00415.1908-.00977.28626-.01221.40954-.01147.40954-.011.34619-.41162a.2388.2388,0,0,1-.057-.17847l.02814-.00073.02808.00317.05615.1167c.08105.10889.16821.21363.24188.32715a.76125.76125,0,0,0,.874.303c.173-.033.25415-.12427.167-.31274-.10193-.22-.18952-.44678-.28327-.67041a.10491.10491,0,0,1-.04175-.03516.10729.10729,0,0,0,.04175.03516l.061-.00513h.00006c.31781.28735.6297.582.95508.8606a.90818.90818,0,0,0,1.12188-.05127c.06842-.07813.086-.082.12653-.00342.26739.51782.71606.45239,1.16894.36157.20356-.04126.27826-.16211.18689-.36426-.084-.18579-.16381-.37329-.2456-.56006l-.03528-.06274a.12975.12975,0,0,1-.06036-.11646.1224.1224,0,0,1-.04255-.03491.12567.12567,0,0,0,.04255.03491.294.294,0,0,1,.05267.00538.13509.13509,0,0,0-.04584-.06788.13405.13405,0,0,1,.04584.06788l.06067.11206.04248.06054c.06848.08252.13885.16358.205.24756.35852.45606.54058.49585,1.06829.2417.17554-.08447.23175-.1897.11573-.36816a1.38551,1.38551,0,0,1-.25971-.41626c-.00738,0-.00458-.00952-.01037-.011l-.00122-.00122-.00068-.00073.00122.00122.00068.00073.00055.00049c.00451.00244.00286.0105.00982.0105l.00049-.00049h0a.46181.46181,0,0,1,.10724.03247c.88922.52783.889.52832,1.68805-.13745.0224-.0188.047-.03491.06781-.05518.13873-.134.12848-.24267-.04462-.34375-.20086-.11718-.39343-.24878-.5896-.37378-.05133-.01025-.11011-.05639-.08612-.08886h.00006c-.02386.03247.03479.07861.08606.08886l.06122-.06347H27.914c.28528.05249.57.1084.8559.15771a1.17029,1.17029,0,0,0,1.16345-.54956c.07867-.13745.06439-.22827-.09119-.29761-.2558-.11377-.5058-.24023-.75824-.36132l.063-.06568a.46935.46935,0,0,0-.0495-.0249.46935.46935,0,0,1,.0495.0249c.1452.01514.2909.02612.43543.04614.54339.07544.66839.00831.94415-.46972a.33865.33865,0,0,0-.10974-.50342c-.12647-.09033-.26544-.16309-.39673-.24634a.4526.4526,0,0,1-.07428-.07739.42887.42887,0,0,1,.098-.03223c.22321-.01782.44672-.04394.67011-.0437a.27365.27365,0,0,0,.28308-.19678c.15716-.37329.103-.51294-.27185-.66992-.07172-.03-.1449-.05713-.2157-.08911-.05231-.02392-.14838-.06665-.14514-.07812.0216-.07569.10187-.0669.16369-.07886.06684-.01294.13581-.01367.20295-.0249.58837-.09717.66131-.16675.79657-.75245.0606-.26245.00409-.33715-.26252-.343-.13629-.00293-.27276.00122-.40918-.00171a.84684.84684,0,0,1-.12915-.02149c.024-.05786.08368-.04712.12464-.05175A1.10571,1.10571,0,0,0,31.86829,9.19021ZM20.92078,16.05349c-.0221.01-.02332.0249-.0152.03979-.00824-.01513-.007-.03.0152-.03979a.04354.04354,0,0,1,.05438.01611A.04354.04354,0,0,0,20.92078,16.05349Zm1.11078-.22754c-.01374.00732-.00983.01709-.00947.02588-.00036-.009-.00427-.01856.00947-.02588.03149-.0166.05413.00879.07141.03955C22.08569,15.83474,22.06305,15.80935,22.03156,15.826Zm4.53485-.044-.003-.00268-.00007-.00025h-.00006l-.00287-.00757.00293.00757Zm-.025-.02295.01087.01-.011-.01Zm.04792.04932c-.00739-.00806-.00867-.02246-.02369-.02246l-.00116-.00342.00116.00342C26.58069,15.78591,26.582,15.80031,26.58936,15.80837Zm-.02149-.0249h0c.00018.01562.01489.01758.02362.0249C26.58264,15.80105,26.568,15.79909,26.56787,15.78347Z" style="fill:#a28f7f"/><path d="M17.97607,25.741c-.12611.11546-.11832.18606.0548.21864a1.27364,1.27364,0,0,1,.58617.23464c.06066-.21778.01322-.47128.213-.643A.76847.76847,0,0,0,17.97607,25.741Z" style="fill:#2b3332"/><path d="M16.25615,12.13019c.08166-.10775.14211-.2315.223-.3401.19077-.25579.25557-.59189.51486-.80366a.95438.95438,0,0,0,.33588-.71564.225.225,0,0,1-.00278-.03515l-.35046-.01543c-.0538.00486-.10382.00143-.1279-.05859l-.1764-.11661A1.64609,1.64609,0,0,0,16,9.88383v2.50272C16.06559,12.37226,16.133,12.29281,16.25615,12.13019Z" style="fill:#ffd96c"/><path d="M16.848,10.10988c.00287-.0437-.11487-.08862.0011-.13183l-.00677-.06226-.16126.07544a.31323.31323,0,0,0-.00867.05371l.17639.1167c.02405.06006.0741.06348.12787.0586Z" style="fill:#5b689d"/><path d="M13.78029,22.7893a5.42724,5.42724,0,0,0-.5413,1.1592c-.0373.146-.14033.19977-.25215.25836a1.92469,1.92469,0,0,1-1.1026-.172.76236.76236,0,0,1-.12518-.353,10.49084,10.49084,0,0,0-.33781-1.95114,7.29327,7.29327,0,0,1,.20713-4.9943,23.457,23.457,0,0,1,1.27187-2.43384.76642.76642,0,0,0,.14018-.345A10.17534,10.17534,0,0,0,14.04729,10.809l.02037-.00029.02043.00029a.6607.6607,0,0,0,.38611.66905,1.97091,1.97091,0,0,1,.64419.56874c.37518.4204.62825.63847.88161.65161V23.24772a3.70572,3.70572,0,0,1-1.8684-.5453C13.95727,22.60068,13.87846,22.603,13.78029,22.7893Z" style="fill:#b0a091"/><path d="M13.5653,28.77675c-.06931-.06717-.13919-.04116-.21642-.03a2.28263,2.28263,0,0,1-2.0646-.62847.872.872,0,0,1-.109-.41155q.12165-.2572.24321-.51414l.33281.25121a.619.619,0,0,0,.40483.27665c.21671.32181.51815.25436.82138.17862a2.39171,2.39171,0,0,1,1.28259.43813,1.40157,1.40157,0,0,0,.86682.20863A8.315,8.315,0,0,1,16,28.54411v.71278c-.02908.004-.05795.008-.088.01371A2.422,2.422,0,0,1,13.5653,28.77675Z" style="fill:#993147"/><path d="M14.34709,6.05105c.0701.05144.13869.10288.15448-.04087.01779-.16176-.07067-.42041.042-.46471.16519-.06545.18012.26322.36732.29609-.01686.17319-.04759.34638-.048.51957a5.883,5.883,0,0,0,.23921,1.57532.27758.27758,0,0,0-.009.05344l-.05874-.05516a.34852.34852,0,0,0-.11839-.22806,12.29632,12.29632,0,0,0-.7142-1.17177c-.01651-.11432-.03994-.22807-.0468-.343-.00429-.0703-.07524-.15719.019-.21234C14.25178,5.93387,14.29522,6.013,14.34709,6.05105Z" style="fill:#fff5d8"/><path d="M14.86292,6.36114c.00042-.17333.03112-.34643.048-.51953a6.62328,6.62328,0,0,1,.62121-2.22314,3.664,3.664,0,0,1,.4513-.84424c.0116-.01465.01-.03076.0166-.04565V5.51739a.227.227,0,0,0-.02881.03321,8.54931,8.54931,0,0,0-.76349,2.22827c-.01312.05591-.03625.10889-.05475.16284-.00213.03858-.01318.06568-.05987.0481a.28121.28121,0,0,1,.009-.05347A5.88061,5.88061,0,0,1,14.86292,6.36114Z" style="fill:#edeeee"/><path d="M11.15267,27.49866l.02258.20806a.872.872,0,0,0,.109.41155c-.52636-.00086-.78808-.22578-.81523-.70049C10.6934,27.47466,10.90539,27.63642,11.15267,27.49866Z" style="fill:#373f3f"/><path d="M10.12423,26.61927a.93237.93237,0,0,0,.059.45927l-.07545.012c-.44977-.20092-.54637-.39555-.448-.902C9.79064,26.35805,9.86809,26.58526,10.12423,26.61927Z" style="fill:#373f3f"/><path d="M10.20349,25.4483a1.26138,1.26138,0,0,1,1.41889.06031c.27423.17236.35223.11865.36529-.20411a7.41513,7.41513,0,0,0-.10345-1.26977,1.92481,1.92481,0,0,0,1.1026.17212,7.78857,7.78857,0,0,0-.17047,1.06177c-.02656.198.00408.31567.24261.25341.03229-.00854.07379.01856.111.02906.19977.17187.15235.42529.21295.64306-.05358.14649-.20813.15528-.31353.231-.07062.051-.20081.03833-.18958.17676-.26111.05395-.21136.2456-.15527.40552a.98394.98394,0,0,1,.08533.41674,1.87334,1.87334,0,0,1-.65369.29639.6187.6187,0,0,1-.40491-.27686c.02985-.25048-.06524-.51977.1178-.748.0495-.062-.00336-.08325-.05689-.08252a.34768.34768,0,0,0-.23059.10058c-.03894.04346-.07782.08765-.11676.1316q-.15609.32666-.31219.65332c-.24725.13794-.45923-.02393-.68359-.08081a.92567.92567,0,0,1,.34393-1.10743l-.05914-.06005a.57436.57436,0,0,0-.34559.22753.29558.29558,0,0,1-.28405.14136c-.25611-.03393-.33356-.26123-.46442-.43066A1.011,1.011,0,0,1,10.20349,25.4483Z" style="fill:#ffd96c"/><path d="M10.204,27.12141a.067.067,0,0,1-.09617-.03086l.07545-.012Z" style="fill:#9f9b97"/><path d="M15.00964,27.20629a1.52857,1.52857,0,0,1-.52979-.14061,4.61946,4.61946,0,0,0-1.6-.46385c-.01121-.13832.119-.12575.18956-.17662.10546-.07574.26-.0846.31359-.23092a1.27364,1.27364,0,0,1,.58617-.23464c.17312-.03258.18091-.10317.0548-.21864a.76847.76847,0,0,0-.854-.18977c-.03723-.01057-.07874-.03772-.111-.02915-.2385.06231-.26915-.05544-.24257-.2535a7.782,7.782,0,0,1,.17047-1.06173c.11182-.05859.21485-.11232.25215-.25836a5.42724,5.42724,0,0,1,.5413-1.1592c.09817-.18634.177-.18862.35131-.08688A3.70572,3.70572,0,0,0,16,23.24772v3.95714A3.77883,3.77883,0,0,1,15.00964,27.20629Z" style="fill:#4896c8"/><path d="M15.11839,12.04678a1.97091,1.97091,0,0,0-.64419-.56874.6607.6607,0,0,1-.38611-.66905.6466.6466,0,0,1,.582-.53816.95474.95474,0,0,0,.336.71564c.25929.21178.32409.54787.51486.80366.08088.1086.14133.23235.223.3401.12311.16262.19056.24207.25615.25636v.3118C15.74664,12.68525,15.49357,12.46718,15.11839,12.04678Z" style="fill:#ffd96c"/><path d="M14.6729,10.23553a.22505.22505,0,0,1-.00278.03515.64653.64653,0,0,0-.582.538l-.02043-.00028-.02044.00028a3.69583,3.69583,0,0,1,.21506-1.2152A.6411.6411,0,0,0,14.6729,10.23553Z" style="fill:#6673aa"/><path d="M15.319,9.99133a5.75057,5.75057,0,0,1,.6684-1.11833c.00458-.006.00815-.00371.01265-.00914v1.02a1.64594,1.64594,0,0,0-.67234.16119A.3112.3112,0,0,0,15.319,9.99133Z" style="fill:#b93d4f"/><path d="M14.43641,9.23768q.1226.135.24557.26951a.33984.33984,0,0,0,.01079.509c.15025.14261.31473.09088.45827-.038.11589.04315-.00186.088.001.13175l-.12868.11032-.35046.01543a.64125.64125,0,0,1-.41062-.64218l-.00071-.30666C14.29672,9.18824,14.34517,9.13736,14.43641,9.23768Z" style="fill:#fff"/><path d="M14.8003,9.61979c-.09767.00943-.10268.0603-.05945.13261.06052.22292.18748.23321.356.11146l.06088.052-.00672.06231c-.14347.12889-.30795.18062-.4582.038a.33984.33984,0,0,1-.01079-.509Z" style="fill:#993147"/><path d="M15.09681,9.86386c-.16848.12175-.29544.11146-.356-.11146l.0871-.06688A.48873.48873,0,0,1,15.09681,9.86386Z" style="fill:#373f3f"/><path d="M9.11938,7.39777c-.01214.09326.10383.15527.17853.2124a6.74149,6.74149,0,0,0,2.84882,1.26514c.04858.00927.13739-.032.13641.05175-.00079.06885-.08636.05542-.14123.06787a6.93383,6.93383,0,0,0-1.95478.81519c-.03082.01807-.0769.05054-.076.075.00274.0708.07183.04273.11254.05127a4.6727,4.6727,0,0,0,1.39252.02686,4.47468,4.47468,0,0,0,1.171-.19239c.03259-.0122.09046-.02758.08832.02564-.00159.0393-.04437.08252-.078.11426a4.86718,4.86718,0,0,0-.933,1.114c-.08.14087-.25134.37671-.18341.42163.14313.09448.30207-.09009.45032-.16748a8.57527,8.57527,0,0,0,1.26227-.88013,3.68068,3.68068,0,0,0,.76568-1.09936l.04084-.06958.01385-.05835c-.00275-.01074-.00275-.011,0,0,.04279-.03687.08234-.07447.01428-.12378h0q-.45483-.58228-.9096-1.16382-.46107-.2047-.92212-.41016a7.75746,7.75746,0,0,0-3.05811-.17163C9.257,7.3111,9.129,7.32355,9.11938,7.39777Z" style="fill:#edeeee"/><path d="M14.828,9.68552l-.0871.06688c-.04323-.07231-.03822-.12318.05945-.13232Z" style="fill:#fff"/><path d="M.65015,7.6861c.26391.273.52807.54736.771.83886a3.56739,3.56739,0,0,0,1.41761.99878,11.60016,11.60016,0,0,0,4.96136.87207.7118.7118,0,0,1,.78241.374,5.15555,5.15555,0,0,0,2.82336,2.53149,3.57073,3.57073,0,0,0,.89179.26636.349.349,0,0,0,.4386-.27246,17.94715,17.94715,0,0,0,.65747-2.89649,3.68068,3.68068,0,0,0,.76568-1.09936l.04084-.06958a.20487.20487,0,0,1,.00793.05517l.05341.002.00067.30664a3.69623,3.69623,0,0,0-.215,1.21533,10.17284,10.17284,0,0,1-1.00683,3.14868,1.11357,1.11357,0,0,1-.80866.17236,5.63783,5.63783,0,0,1-2.0741-.90429A6.33022,6.33022,0,0,1,8.4425,11.3714a.69452.69452,0,0,0-.72851-.37988A6.65441,6.65441,0,0,1,5.82513,10.931,7.14616,7.14616,0,0,1,.45947,7.59308C.58331,7.49445.60675,7.64117.65015,7.6861Z" style="fill:#529ccf"/><path d="M12.57428,6.29572a16.07918,16.07918,0,0,1,2.27313,1.47583.41844.41844,0,0,0,.18689.16308l.05878.05493c.04669.01783.05774-.00927.05987-.04785.0185-.05395.04163-.10693.05475-.16284a8.54931,8.54931,0,0,1,.76349-2.22827A.227.227,0,0,1,16,5.51739V8.86383c-.00452.00537-.00806.00317-.01263.009a5.7548,5.7548,0,0,0-.66852,1.11841l-.16114-.07544-.06091-.052a.49056.49056,0,0,0-.2688-.17847l-.02771-.06543L14.682,9.50714q-.12287-.13476-.24561-.26953c-.09125-.10034-.13965-.04932-.1748.04932l-.05341-.002a.20487.20487,0,0,0-.00793-.05517l.01385-.05835c.04279-.03687.08234-.07447.01428-.12378q-.45483-.58228-.9096-1.16382c-.05146-.07837-.10279-.15625-.15424-.23437-.014.01269-.07281-.05127-.05884-.064a.173.173,0,0,0-.00366-.031l-.002-.00293a.08869.08869,0,0,0-.05225-.07959l.00037.00049.05157.07862a.08636.08636,0,0,0-.05218-.08057l-.01526-.05347-.10224-.186q-.05411-.09413-.10809-.18921-.12927-.33692-.2586-.67407Z" style="fill:#5ca3d5"/><polygon points="13.046 7.469 13.048 7.472 13.046 7.469 13.046 7.469" style="fill:#5ca3d5"/><path d="M12.25079,7.22516a2.29,2.29,0,0,0,.14594.24853q.461.20545.92206.41016c-.05146-.07837-.10279-.15625-.15424-.23437l-.05713-.062a.21424.21424,0,0,0-.00342-.03l-.05578-.085-.00061-.002-.002-.00195.00006.00049-.04046-.05323-.08142-.10693-.16834-.19141h-.00006c-.06-.075-.11981-.15039-.17981-.22558.03449.17968.08319.35644-.21338.19311C12.24756,7.02179,12.20508,7.12091,12.25079,7.22516Zm.85681.36377-.00012-.00025h0Zm-.00018-.00025Zm-.06164-.1184.00006.00024h.00006c-.00018.00415.00152.00708.00152.01123l-.00158-.01123C13.02588,7.452,13.02576,7.452,13.04578,7.47028Z" style="fill:#fff5d8"/><path d="M13.03235,7.41705l.01587.05542-.043-.05664-.08142-.10693-.16834-.19141.06659-.07568q.054.09484.10809.18921Z" style="fill:#edeeee"/><path d="M10.96686,4.0816a4.29263,4.29263,0,0,1,.94623.377A7.03658,7.03658,0,0,1,14.20178,6.535,12.25039,12.25039,0,0,1,14.916,7.7066a.34867.34867,0,0,1,.11835.228.41844.41844,0,0,1-.18689-.16308,16.07918,16.07918,0,0,0-2.27313-1.47583l-.01086.072q.12936.33691.2586.67407c-.02222.02515-.04443.05078-.06665.07568-.06-.075-.11981-.15039-.17981-.22558-.04394-.07569-.085-.15284-.13214-.22657q-.787-1.2268-1.57446-2.45336c-.02979-.04664-.07538-.12623-.0578-.15113C10.85278,4.00177,10.91547,4.06769,10.96686,4.0816Z" style="fill:#edeeee"/><path d="M15.12689,28.54582a1.40157,1.40157,0,0,1-.86682-.20863,2.39171,2.39171,0,0,0-1.28259-.43813c.155-.10774.24765-.20806-.00664-.31494-.06466-.02715-.10789-.10518-.161-.16a.98509.98509,0,0,0-.08532-.41669c-.05608-.15976-.10581-.35153.15526-.40555a4.61946,4.61946,0,0,1,1.6.46385,1.52857,1.52857,0,0,0,.52979.14061A3.77883,3.77883,0,0,0,16,27.20486v1.33925A8.315,8.315,0,0,0,15.12689,28.54582Z" style="fill:#ffd04d"/><path d="M12.97084,27.58412c.25429.10688.16169.2072.00664.31494-.30323.07574-.60467.14319-.8213-.17862a1.87179,1.87179,0,0,0,.65369-.29637C12.863,27.47894,12.90618,27.557,12.97084,27.58412Z" style="fill:#373f3f"/><path d="M11.58158,26.71358a.348.348,0,0,1,.23064-.10032c.05352-.00085.10639.0203.05687.08231-.183.22836-.08795.49758-.11782.74822l-.33281-.25121.10675-.28609A.20652.20652,0,0,0,11.58158,26.71358Z" style="fill:#fce179"/><path d="M1.14874,10.149c.041.00464.10065-.00611.12464.05175a.84684.84684,0,0,1-.12915.02149c-.13642.00293-.27289-.00122-.40918.00171-.26661.00586-.32312.08056-.26252.343.13526.58569.2082.65527.79657.75244.06714.01123.13611.012.203.0249.06182.012.14209.00317.16369.07886.00324.01147-.09283.0542-.14514.07812-.0708.032-.144.05908-.2157.08911-.37488.157-.429.29663-.27185.66992a.27365.27365,0,0,0,.28308.19678c.22339-.00024.4469.02588.67011.0437a.42887.42887,0,0,1,.098.03223.4526.4526,0,0,1-.07428.07739c-.13129.08325-.27026.156-.39673.24634a.33865.33865,0,0,0-.10974.50342c.27576.478.40076.54516.94415.46972.14453-.02.29023-.031.43543-.04614a.46935.46935,0,0,1,.0495-.0249.46935.46935,0,0,0-.0495.0249l.063.06568c-.25244.12109-.50244.24755-.75824.36132-.15558.06934-.16986.16016-.09119.29761a1.17029,1.17029,0,0,0,1.16345.54956c.28589-.04931.57062-.10522.8559-.15771h.00006l.06122.06347c.05127-.01025.10992-.05639.08606-.08886H4.2334c.024.03247-.03479.07861-.08612.08886-.19617.125-.38874.2566-.5896.37378-.1731.10108-.18335.20972-.04462.34375.02081.02027.04541.03638.06781.05518.799.66577.79883.66528,1.688.13745a.46229.46229,0,0,1,.10724-.03247h0l.00049.00049c.007,0,.00531-.00806.00982-.0105l.00055-.00049.00068-.00073.00122-.00122-.00068.00073-.00122.00122c-.00579.00147-.003.011-.01037.011a1.38551,1.38551,0,0,1-.25971.41626c-.116.17846-.05981.28369.11573.36816.52771.25415.70977.21436,1.06829-.2417.06617-.084.13654-.165.205-.24756l.04248-.06054.06067-.11206a.134.134,0,0,1,.04584-.06787.135.135,0,0,0-.04584.06787.29312.29312,0,0,1,.05267-.00537.12581.12581,0,0,0,.04255-.03492.12253.12253,0,0,1-.04255.03492.12975.12975,0,0,1-.06036.11645l-.03528.06274c-.08179.18677-.16162.37427-.2456.56006-.09137.20215-.01667.323.18689.36426.45288.09082.90155.15625,1.16894-.36157.04053-.07861.05811-.07471.12653.00342a.90818.90818,0,0,0,1.12188.05127c.32538-.27857.63727-.57325.95508-.8606h.00006l.061.00513a.10729.10729,0,0,0,.04175-.03516.10491.10491,0,0,1-.04175.03516c-.09375.22363-.18134.45044-.28327.67041-.08715.18847-.006.27978.167.31274a.76125.76125,0,0,0,.874-.303c.07367-.11352.16083-.21826.24188-.32715l.05615-.11669.02808-.00318.02814.00073a.2388.2388,0,0,1-.057.17847c-.06335.40064-.06335.40015.34619.41162.09546.00244.1908.00806.28626.01221a23.47457,23.47457,0,0,1,1.27191-2.43384.76647.76647,0,0,0,.14014-.345,1.11357,1.11357,0,0,1-.80866.17236,5.63783,5.63783,0,0,1-2.0741-.90429A6.33022,6.33022,0,0,1,8.4425,11.3714a.69452.69452,0,0,0-.72851-.37988A6.65441,6.65441,0,0,1,5.82513,10.931,7.14616,7.14616,0,0,1,.45947,7.59308a.37607.37607,0,0,0-.06878.45312,2.78461,2.78461,0,0,0,.59478.92725c.02784.03271.08509.06445.04737.11377-.01245.01636-.07245.00073-.10962-.00635-.19068-.03638-.3819-.071-.57111-.1145-.07477-.01709-.15265-.06958-.21576.00146-.05725.0647-.02246.14673-.00464.22242A1.10571,1.10571,0,0,0,1.14874,10.149Zm9.8761,5.92065a.04354.04354,0,0,1,.05438-.01611c.02216.00976.02344.02466.0152.03979.00812-.01489.0069-.02978-.0152-.03979A.04354.04354,0,0,0,11.02484,16.06964ZM9.897,15.86554c.01728-.03076.03992-.05615.07141-.03955.01374.00732.00983.01684.00947.02588.00036-.00879.00427-.01856-.00947-.02588C9.937,15.80939,9.91431,15.83478,9.897,15.86554Zm-4.46038-.08643.00293-.00756-.00287.00756H5.43665l-.00007.00025-.003.00268Zm.02209-.02-.01105.01.01087-.01Zm-.02441.02686.00116-.00342-.00116.00342c-.015,0-.0163.0144-.02369.02246C5.418,15.80035,5.41931,15.786,5.43433,15.786Zm-.02582.02246c.00873-.00732.02344-.00928.02362-.0249h0C5.432,15.79913,5.41736,15.80109,5.40851,15.80841Z" style="fill:#a79586"/><path d="M14.02393,25.741c.12611.11547.11832.18606-.0548.21864a1.27364,1.27364,0,0,0-.58617.23464c-.06066-.21778-.01322-.47128-.213-.643A.76847.76847,0,0,1,14.02393,25.741Z" style="fill:#373f3f"/><path d="M15.74385,12.13023c-.08166-.10775-.14211-.2315-.223-.3401-.19077-.25579-.25557-.59188-.51486-.80366a.95438.95438,0,0,1-.33588-.71564.225.225,0,0,0,.00278-.03515l.35046-.01543c.0538.00486.10382.00143.1279-.05859l.1764-.1166A1.64594,1.64594,0,0,1,16,9.88387v2.50272C15.93441,12.3723,15.867,12.29285,15.74385,12.13023Z" style="fill:#ffe28a"/><path d="M15.152,10.10992c-.00287-.0437.11487-.08862-.0011-.13183l.00677-.06226.16126.07544a.31323.31323,0,0,1,.00867.05371l-.17639.1167c-.024.06006-.0741.06348-.12787.0586Z" style="fill:#6673aa"/></svg>