<svg xmlns="http://www.w3.org/2000/svg" viewBox="0 0 32 32"><defs><style>.a{fill:#5b689d;}.b{fill:#4896c8;}.c{fill:#fef1c6;}.d{fill:#e3e5e5;}.e{fill:#2b3332;}.f{fill:#ffd04d;}.g{fill:#9f9b97;}.h{fill:#912b41;}.i{fill:#529ccf;}.j{fill:#fff;}.k{fill:#993147;}.l{fill:#a8364c;}.m{fill:#f7c845;}.n{fill:#fce179;}.o{fill:#515e91;}.p{fill:#ffd96c;}.q{fill:#6673aa;}.r{fill:#fff5d8;}.s{fill:#edeeee;}.t{fill:#373f3f;}.u{fill:#5ca3d5;}.v{fill:#b93d4f;}.w{fill:#ffe28a;}</style></defs><title>628-braviary</title><path class="a" d="M18.21971,22.74261a5.42739,5.42739,0,0,1,.5413,1.15919c.0373.146.14033.19978.25215.25836a1.92453,1.92453,0,0,0,1.1026-.17205.76228.76228,0,0,0,.12518-.35295,10.49084,10.49084,0,0,1,.33781-1.95114,7.29327,7.29327,0,0,0-.20713-4.9943,23.457,23.457,0,0,0-1.27187-2.43384.76642.76642,0,0,1-.14018-.345,10.17534,10.17534,0,0,1-1.00686-3.14862l-.02037-.00029-.02043.00029a.66071.66071,0,0,1-.38611.66905,1.971,1.971,0,0,0-.64419.56873c-.37518.42041-.62825.63847-.88161.65162V23.201a3.70572,3.70572,0,0,0,1.8684-.5453C18.04273,22.554,18.12154,22.55627,18.21971,22.74261Z"/><path class="b" d="M18.4347,28.73005c.06931-.06716.13919-.04115.21642-.03a2.28263,2.28263,0,0,0,2.0646-.62847.872.872,0,0,0,.109-.41155q-.12165-.25722-.24321-.51415l-.33281.25122a.619.619,0,0,1-.40483.27665c-.21671.32181-.51815.25436-.82138.17862a2.39162,2.39162,0,0,0-1.28259.43813,1.40157,1.40157,0,0,1-.86682.20863A8.315,8.315,0,0,0,16,28.49742v.71277c.02908.004.058.008.088.01372A2.42193,2.42193,0,0,0,18.4347,28.73005Z"/><path class="c" d="M17.65291,6.00435c-.0701.05145-.13869.10289-.15448-.04087-.01779-.16176.07067-.4204-.042-.4647-.16519-.06545-.18012.26322-.36732.29608.01686.1732.04759.34639.048.51958a5.88292,5.88292,0,0,1-.23921,1.57531.27782.27782,0,0,1,.009.05345l.05874-.05516A.34857.34857,0,0,1,17.084,7.66a12.29742,12.29742,0,0,1,.7142-1.17176c.01651-.11432.03994-.22807.0468-.343.00429-.0703.07524-.15719-.019-.21235C17.74822,5.88718,17.70478,5.96634,17.65291,6.00435Z"/><path class="d" d="M17.13708,6.31445c-.00042-.17334-.03112-.34643-.048-.51953a6.62328,6.62328,0,0,0-.62121-2.22314,3.664,3.664,0,0,0-.4513-.84424c-.0116-.01465-.01-.03076-.0166-.04566V5.4707a.22645.22645,0,0,1,.02881.03321,8.54918,8.54918,0,0,1,.76349,2.22827c.01312.05591.03625.10888.05475.16284.00213.03857.01318.06567.05987.0481a.28107.28107,0,0,0-.009-.05347A5.88067,5.88067,0,0,0,17.13708,6.31445Z"/><path class="e" d="M20.84733,27.452l-.02258.20806a.872.872,0,0,1-.109.41155c.52636-.00086.78808-.22578.81523-.70049C21.3066,27.428,21.09461,27.58973,20.84733,27.452Z"/><path class="e" d="M21.87577,26.57257a.93239.93239,0,0,1-.059.45928l.07545.012c.44977-.20091.54637-.39554.448-.902C22.20936,26.31136,22.13191,26.53857,21.87577,26.57257Z"/><path class="f" d="M21.79651,25.40161a1.2614,1.2614,0,0,0-1.41889.0603c-.27423.17237-.35223.11866-.36529-.2041a7.41513,7.41513,0,0,1,.10345-1.26977,1.92481,1.92481,0,0,1-1.1026.17212,7.78868,7.78868,0,0,1,.17047,1.06176c.02656.198-.00408.31568-.24261.25342-.03229-.00854-.07379.01856-.111.02905-.19977.17188-.15235.4253-.213.64307.05358.14649.20813.15527.31353.231.07062.051.20081.03833.18958.17676.26111.054.21136.2456.15527.40551a.984.984,0,0,0-.08533.41675,1.87371,1.87371,0,0,0,.65369.29639.6187.6187,0,0,0,.40491-.27686c-.02985-.25049.06524-.51977-.1178-.748-.0495-.062.00336-.08326.05689-.08252a.34768.34768,0,0,1,.23059.10058c.03894.04346.07782.08765.11676.13159q.15609.32667.31219.65332c.24725.13794.45923-.02392.68359-.08081a.92566.92566,0,0,0-.34393-1.10742l.05914-.06006a.57442.57442,0,0,1,.34559.22754.2956.2956,0,0,0,.284.14136c.25611-.03394.33356-.26123.46442-.43066A1.011,1.011,0,0,0,21.79651,25.40161Z"/><path class="g" d="M21.796,27.07472a.067.067,0,0,0,.09617-.03087l-.07545-.012Z"/><path class="h" d="M16.99036,27.1596a1.52857,1.52857,0,0,0,.52979-.14061,4.61946,4.61946,0,0,1,1.6-.46385c.01121-.13832-.119-.12575-.18956-.17662-.10546-.07574-.26-.0846-.31359-.23092a1.27364,1.27364,0,0,0-.58617-.23464c-.17312-.03258-.18091-.10318-.0548-.21864a.76847.76847,0,0,1,.854-.18977c.03723-.01057.07874-.03772.111-.02915.2385.0623.26915-.05544.24257-.2535a7.78215,7.78215,0,0,0-.17047-1.06174c-.11182-.05858-.21485-.11231-.25215-.25836a5.42739,5.42739,0,0,0-.5413-1.15919c-.09817-.18634-.177-.18862-.35131-.08688A3.70572,3.70572,0,0,1,16,23.201v3.95714A3.77926,3.77926,0,0,0,16.99036,27.1596Z"/><path class="f" d="M16.88161,12.00008a1.971,1.971,0,0,1,.64419-.56873.66071.66071,0,0,0,.38611-.66905.64659.64659,0,0,0-.58195-.53816.95474.95474,0,0,1-.336.71564c-.25929.21177-.32409.54787-.51486.80366-.08088.1086-.14133.23235-.223.3401-.12311.16261-.19056.24207-.25615.25636v.3118C16.25336,12.63855,16.50643,12.42049,16.88161,12.00008Z"/><path class="a" d="M17.3271,10.18884a.22493.22493,0,0,0,.00278.03514.64653.64653,0,0,1,.582.538l.02043-.00028.02044.00028a3.69594,3.69594,0,0,0-.21506-1.21521A.6411.6411,0,0,1,17.3271,10.18884Z"/><path class="i" d="M16.68105,9.94463a5.75079,5.75079,0,0,0-.6684-1.11832c-.00458-.006-.00815-.00371-.01265-.00914v1.02a1.64626,1.64626,0,0,1,.67234.16119A.31151.31151,0,0,1,16.68105,9.94463Z"/><path class="j" d="M17.56359,9.191q-.1226.135-.24557.2695a.33985.33985,0,0,1-.01079.509c-.15025.14261-.31473.09088-.45827-.038-.11589.04315.00186.088-.001.13175l.12868.11032.35046.01543a.64126.64126,0,0,0,.41062-.64219l.00071-.30666C17.70328,9.14154,17.65483,9.09067,17.56359,9.191Z"/><path class="h" d="M17.1997,9.5731c.09767.00943.10268.0603.05945.13261-.06052.22292-.18748.23321-.356.11146l-.06088.052.00672.06231c.14347.12889.308.18062.4582.038a.33985.33985,0,0,0,.01079-.509Z"/><path class="e" d="M16.90319,9.81717c.16848.12175.29544.11146.356-.11146l-.0871-.06688A.48873.48873,0,0,0,16.90319,9.81717Z"/><path class="d" d="M22.66144,7.25537a7.75746,7.75746,0,0,0-3.05811.17163q-.46105.20544-.92212.41016-.45474.58191-.9096,1.16382h0c-.06806.04931-.02851.08691.01428.12378.00275-.011.00275-.01075,0,0l.01385.05835.04084.06958a3.68081,3.68081,0,0,0,.76568,1.09936,8.57527,8.57527,0,0,0,1.26227.88013c.14825.07739.30719.262.45032.16748.06793-.04492-.1034-.28076-.18341-.42163a4.867,4.867,0,0,0-.933-1.114c-.03363-.03173-.07641-.075-.078-.11425-.00214-.05323.05573-.03785.08832-.02564a4.47467,4.47467,0,0,0,1.171.19238,4.67236,4.67236,0,0,0,1.39252-.02685c.04071-.00855.1098.01953.11254-.05127.00092-.02442-.04516-.05689-.076-.075a6.93383,6.93383,0,0,0-1.95478-.81519c-.05487-.01245-.14044.001-.14123-.06787-.001-.08374.08783-.04248.13641-.05176a6.74135,6.74135,0,0,0,2.84882-1.26513c.0747-.05713.19067-.11914.17853-.21241C22.871,7.27686,22.743,7.2644,22.66144,7.25537Z"/><path class="j" d="M17.17205,9.63883l.0871.06688c.04323-.07231.03822-.12318-.05945-.13233Z"/><path class="k" d="M31.34985,7.6394c-.26391.27295-.52807.54737-.771.83887a3.56739,3.56739,0,0,1-1.41761.99878,11.60016,11.60016,0,0,1-4.96136.87207.7118.7118,0,0,0-.78241.374,5.15556,5.15556,0,0,1-2.82336,2.5315,3.57073,3.57073,0,0,1-.89179.26636.349.349,0,0,1-.4386-.27246,17.94715,17.94715,0,0,1-.65747-2.89649,3.68081,3.68081,0,0,1-.76568-1.09936l-.04084-.06958a.20487.20487,0,0,0-.00793.05517l-.05341.002-.00067.30665a3.69623,3.69623,0,0,1,.215,1.21533,10.17284,10.17284,0,0,0,1.00683,3.14868,1.11361,1.11361,0,0,0,.80866.17236,5.63783,5.63783,0,0,0,2.0741-.90429,6.33022,6.33022,0,0,0,1.71515-1.85425.69454.69454,0,0,1,.72851-.37989,6.65478,6.65478,0,0,0,1.88886-.06054,7.14616,7.14616,0,0,0,5.36566-3.33789C31.41669,7.44775,31.39325,7.59448,31.34985,7.6394Z"/><path class="l" d="M19.42572,6.249a16.08094,16.08094,0,0,0-2.27313,1.47583.41846.41846,0,0,1-.18689.16309l-.05878.05493c-.04669.01782-.05774-.00928-.05987-.04785-.0185-.054-.04163-.10693-.05475-.16284a8.54918,8.54918,0,0,0-.76349-2.22827A.22645.22645,0,0,0,16,5.4707V8.81714c.00452.00537.00806.00317.01263.009a5.7548,5.7548,0,0,1,.66852,1.11841l.16114-.07544.06091-.052a.49056.49056,0,0,1,.2688-.17847l.02771-.06543.11828-.11279q.12286-.13476.24561-.26953c.09125-.10034.13965-.04932.1748.04931l.05341-.002a.20487.20487,0,0,1,.00793-.05517l-.01385-.05835c-.04279-.03687-.08234-.07447-.01428-.12378q.45483-.58229.9096-1.16382c.05146-.07837.10279-.15625.15424-.23438.014.0127.07281-.05127.05884-.064a.17293.17293,0,0,1,.00366-.031l.00195-.00293a.08868.08868,0,0,1,.05225-.07959l-.00037.00049-.05157.07861a.08634.08634,0,0,1,.05218-.08056l.01526-.05347.10224-.186q.0541-.09413.10809-.18921.12927-.33692.2586-.67408Z"/><polygon class="l" points="18.954 7.422 18.952 7.425 18.954 7.423 18.954 7.422"/><path class="c" d="M19.63782,7.03833c-.29657.16333-.24787-.01343-.21338-.19312-.06.0752-.11981.15064-.17981.22559h-.00006l-.16834.19141-.08142.10693-.04046.05322.00006-.00048-.002.00195-.00061.00195-.05578.085a.21424.21424,0,0,0-.00342.03l-.05713.062c-.05145.07813-.10278.156-.15424.23438q.46107-.20472.92206-.41016a2.29,2.29,0,0,0,.14594-.24853C19.79492,7.07422,19.75244,6.9751,19.63782,7.03833Zm-.7453.50366h0l-.00012.00025Zm.00006,0Zm.06158-.11816-.00158.01123c0-.00415.0017-.00708.00152-.01123h.00006l.00006-.00025C18.97424,7.40527,18.97412,7.40527,18.95416,7.42383Z"/><path class="d" d="M18.96765,7.37036l-.01587.05542.043-.05664.08142-.10693.16834-.19141L19.178,6.99512q-.054.09484-.10809.18921Z"/><path class="d" d="M21.03314,4.03491a4.29214,4.29214,0,0,0-.94623.377,7.03647,7.03647,0,0,0-2.28869,2.07641,12.24915,12.24915,0,0,0-.71417,1.17163.34864.34864,0,0,0-.11835.228.41846.41846,0,0,0,.18689-.16309A16.08094,16.08094,0,0,1,19.42572,6.249l.01086.072q-.12936.33692-.2586.67408c.02222.02514.04443.05078.06665.07568.06-.075.11981-.15039.17981-.22559.04394-.07568.085-.15283.13214-.22656q.787-1.2268,1.57446-2.45337c.02979-.04663.07538-.12622.0578-.15112C21.14722,3.95508,21.08453,4.021,21.03314,4.03491Z"/><path class="m" d="M16.87311,28.49913a1.40157,1.40157,0,0,0,.86682-.20863,2.39162,2.39162,0,0,1,1.28259-.43813c-.155-.10774-.24765-.20806.00664-.31495.06466-.02715.10789-.10517.161-.16a.98509.98509,0,0,1,.08532-.41669c.05608-.15976.10581-.35153-.15526-.40555a4.61946,4.61946,0,0,0-1.6.46385,1.52857,1.52857,0,0,1-.52979.14061A3.77926,3.77926,0,0,1,16,27.15817v1.33925A8.315,8.315,0,0,1,16.87311,28.49913Z"/><path class="e" d="M19.02916,27.53742c-.25429.10689-.16169.20721-.00664.31495.30323.07574.60467.14319.8213-.17862a1.87179,1.87179,0,0,1-.65369-.29637C19.13705,27.43225,19.09382,27.51027,19.02916,27.53742Z"/><path class="n" d="M20.41842,26.66689a.34794.34794,0,0,0-.23064-.10032c-.05352-.00085-.10639.02029-.05687.08231.18305.22835.08795.49757.11782.74822l.33281-.25122-.10675-.28608A.20652.20652,0,0,1,20.41842,26.66689Z"/><path class="o" d="M31.86829,9.14355c.01782-.07568.05261-.15771-.00464-.22241-.06311-.071-.141-.01855-.21576-.00146-.18921.04345-.38043.07812-.57111.1145-.03717.00708-.09717.0227-.10962.00635-.03772-.04932.01953-.08106.04737-.11377a2.78461,2.78461,0,0,0,.59478-.92725.37607.37607,0,0,0-.06878-.45312,7.14616,7.14616,0,0,1-5.36566,3.33789,6.65478,6.65478,0,0,1-1.88886.06054.69454.69454,0,0,0-.72851.37989A6.33022,6.33022,0,0,1,21.84235,13.179a5.63783,5.63783,0,0,1-2.0741.90429,1.11361,1.11361,0,0,1-.80866-.17236.76647.76647,0,0,0,.14014.345,23.47457,23.47457,0,0,1,1.27191,2.43384c.09546-.00415.1908-.00977.28626-.01221.40954-.01147.40954-.011.34619-.41162a.23882.23882,0,0,1-.057-.17847l.02814-.00073.02808.00317.05615.1167c.08105.10889.16821.21363.24188.32715a.76125.76125,0,0,0,.874.303c.173-.033.25415-.12427.167-.31274-.10193-.22-.18952-.44678-.28327-.67041a.10491.10491,0,0,1-.04175-.03516.10729.10729,0,0,0,.04175.03516l.061-.00513h.00006c.31781.28735.6297.582.95508.86059a.90815.90815,0,0,0,1.12188-.05127c.06842-.07812.086-.082.12653-.00341.26739.51782.71606.45239,1.16894.36157.20356-.04126.27826-.16211.18689-.36426-.084-.18579-.16381-.37329-.2456-.56006l-.03528-.06274a.12976.12976,0,0,1-.06036-.11646.1224.1224,0,0,1-.04255-.03491.12579.12579,0,0,0,.04255.03491.295.295,0,0,1,.05267.00537.1351.1351,0,0,0-.04584-.06787.13407.13407,0,0,1,.04584.06787l.06067.11207.04248.06054c.06848.08252.13885.16358.205.24756.35852.45606.54058.49585,1.06829.2417.17554-.08447.23175-.1897.11573-.36816a1.38551,1.38551,0,0,1-.25971-.41626c-.00738,0-.00458-.00953-.01037-.011l-.00122-.00122-.00068-.00073.00122.00122.00068.00073.00055.00049c.00451.00244.00286.0105.00982.0105l.00049-.00049h0a.46181.46181,0,0,1,.10724.03247c.88922.52783.889.52832,1.68805-.13745.0224-.0188.047-.03491.06781-.05518.13873-.134.12848-.24267-.04462-.34375-.20086-.11719-.39343-.24878-.5896-.37378-.05133-.01025-.11011-.05639-.08612-.08886h.00006c-.02386.03247.03479.07861.08606.08886l.06122-.06347H27.914c.28528.05249.57.10839.8559.15771a1.17029,1.17029,0,0,0,1.16345-.54956c.07867-.13745.06439-.22827-.09119-.29761-.2558-.11377-.5058-.24023-.75824-.36133l.063-.06567a.46935.46935,0,0,0-.0495-.0249.46935.46935,0,0,1,.0495.0249c.1452.01514.2909.02612.43543.04614.54339.07544.66839.0083.94415-.46972a.33865.33865,0,0,0-.10974-.50342c-.12647-.09033-.26544-.16309-.39673-.24634a.4526.4526,0,0,1-.07428-.07739.42887.42887,0,0,1,.098-.03223c.22321-.01782.44672-.04394.67011-.0437a.27365.27365,0,0,0,.28308-.19678c.15716-.37329.103-.51294-.27185-.66992-.07172-.03-.1449-.05713-.2157-.08911-.05231-.02393-.14838-.06665-.14514-.07813.0216-.07568.10187-.06689.16369-.07885.06684-.01294.13581-.01367.20295-.0249.58837-.09717.66131-.16675.79657-.75245.0606-.26245.00409-.33715-.26252-.343-.13629-.00293-.27276.00122-.40918-.00171a.84808.84808,0,0,1-.12915-.02149c.024-.05786.08368-.04712.12464-.05176A1.10569,1.10569,0,0,0,31.86829,9.14355ZM20.92078,16.00684c-.0221.01-.02332.0249-.0152.03979-.00824-.01514-.007-.03.0152-.03979a.04354.04354,0,0,1,.05438.01611A.04354.04354,0,0,0,20.92078,16.00684Zm1.11078-.22754c-.01374.00732-.00983.01709-.00947.02588-.00036-.009-.00427-.01856.00947-.02588.03149-.0166.05413.00879.07141.03955C22.08569,15.78809,22.06305,15.7627,22.03156,15.7793Zm4.53485-.04395-.003-.00268-.00007-.00025h-.00006l-.00287-.00757.00293.00757Zm-.025-.02295.01087.01-.011-.01Zm.04792.04932c-.00739-.00806-.00867-.02246-.02369-.02246l-.00116-.00342.00116.00342C26.58069,15.73926,26.582,15.75366,26.58936,15.76172Zm-.02149-.0249h0c.00018.01562.01489.01757.02362.0249C26.58264,15.75439,26.568,15.75244,26.56787,15.73682Z"/><path class="e" d="M17.97607,25.69432c-.12611.11546-.11832.18606.0548.21864a1.27364,1.27364,0,0,1,.58617.23464c.06066-.21778.01322-.47128.213-.64305A.76847.76847,0,0,0,17.97607,25.69432Z"/><path class="p" d="M16.25615,12.08354c.08166-.10775.14211-.2315.223-.3401.19077-.25579.25557-.59189.51486-.80366a.95438.95438,0,0,0,.33588-.71564.22505.22505,0,0,1-.00278-.03515l-.35046-.01543c-.0538.00486-.10382.00143-.1279-.05859l-.1764-.11661A1.64626,1.64626,0,0,0,16,9.83717V12.3399C16.06559,12.32561,16.133,12.24615,16.25615,12.08354Z"/><path class="a" d="M16.848,10.06323c.00287-.0437-.11487-.08862.0011-.13183l-.00677-.06226-.16126.07544a.31307.31307,0,0,0-.00867.05371l.17639.1167c.02405.06006.0741.06348.12787.05859Z"/><path class="q" d="M13.78029,22.74265a5.42739,5.42739,0,0,0-.5413,1.15919c-.0373.146-.14033.19978-.25215.25837a1.92469,1.92469,0,0,1-1.1026-.172.76236.76236,0,0,1-.12518-.353,10.49084,10.49084,0,0,0-.33781-1.95114,7.29327,7.29327,0,0,1,.20713-4.9943,23.457,23.457,0,0,1,1.27187-2.43384.76642.76642,0,0,0,.14018-.345,10.17534,10.17534,0,0,0,1.00686-3.14862l.02037-.00029.02043.00029a.66071.66071,0,0,0,.38611.66905,1.971,1.971,0,0,1,.64419.56873c.37518.42041.62825.63847.88161.65162V23.20107a3.70572,3.70572,0,0,1-1.8684-.5453C13.95727,22.554,13.87846,22.55631,13.78029,22.74265Z"/><path class="i" d="M13.5653,28.7301c-.06931-.06717-.13919-.04116-.21642-.03a2.28263,2.28263,0,0,1-2.0646-.62847.872.872,0,0,1-.109-.41155q.12165-.25722.24321-.51415l.33281.25122a.619.619,0,0,0,.40483.27665c.21671.32181.51815.25436.82138.17862a2.39171,2.39171,0,0,1,1.28259.43813,1.40157,1.40157,0,0,0,.86682.20863A8.315,8.315,0,0,1,16,28.49746v.71277c-.02908.004-.05795.008-.088.01372A2.422,2.422,0,0,1,13.5653,28.7301Z"/><path class="r" d="M14.34709,6.00439c.0701.05145.13869.10289.15448-.04086.01779-.16177-.07067-.42041.042-.46471.16519-.06545.18012.26322.36732.29609-.01686.17319-.04759.34638-.048.51957A5.88305,5.88305,0,0,0,15.1021,7.8898a.27758.27758,0,0,0-.009.05344l-.05874-.05516A.34857.34857,0,0,0,14.916,7.66a12.29742,12.29742,0,0,0-.7142-1.17176c-.01651-.11432-.03994-.22807-.0468-.343-.00429-.0703-.07524-.15719.019-.21235C14.25178,5.88722,14.29522,5.96638,14.34709,6.00439Z"/><path class="s" d="M14.86292,6.31449c.00042-.17334.03112-.34643.048-.51953a6.62328,6.62328,0,0,1,.62121-2.22314,3.664,3.664,0,0,1,.4513-.84424c.0116-.01465.01-.03076.0166-.04565V5.47074a.22645.22645,0,0,0-.02881.03321,8.54918,8.54918,0,0,0-.76349,2.22827c-.01312.05591-.03625.10889-.05475.16284-.00213.03857-.01318.06567-.05987.0481a.28121.28121,0,0,1,.009-.05347A5.88067,5.88067,0,0,1,14.86292,6.31449Z"/><path class="t" d="M11.15267,27.452l.02258.20806a.872.872,0,0,0,.109.41155c-.52636-.00086-.78808-.22578-.81523-.70049C10.6934,27.428,10.90539,27.58977,11.15267,27.452Z"/><path class="t" d="M10.12423,26.57262a.93237.93237,0,0,0,.059.45927l-.07545.012c-.44977-.20091-.54637-.39554-.448-.902C9.79064,26.3114,9.86809,26.53861,10.12423,26.57262Z"/><path class="p" d="M10.20349,25.40165a1.2614,1.2614,0,0,1,1.41889.0603c.27423.17237.35223.11866.36529-.2041a7.41513,7.41513,0,0,0-.10345-1.26977,1.92481,1.92481,0,0,0,1.1026.17212,7.78868,7.78868,0,0,0-.17047,1.06176c-.02656.198.00408.31568.24261.25342.03229-.00854.07379.01856.111.02906.19977.17187.15235.42529.21295.64306-.05358.14649-.20813.15528-.31353.231-.07062.051-.20081.03833-.18958.17676-.26111.054-.21136.2456-.15527.40551a.984.984,0,0,1,.08533.41675,1.87371,1.87371,0,0,1-.65369.29639.6187.6187,0,0,1-.40491-.27686c.02985-.25048-.06524-.51977.1178-.748.0495-.062-.00336-.08326-.05689-.08252a.34768.34768,0,0,0-.23059.10058c-.03894.04346-.07782.08765-.11676.13159q-.15609.32667-.31219.65332c-.24725.13794-.45923-.02392-.68359-.08081a.92566.92566,0,0,1,.34393-1.10742l-.05914-.06006a.57442.57442,0,0,0-.34559.22754.2956.2956,0,0,1-.28405.14136c-.25611-.03394-.33356-.26123-.46442-.43066A1.011,1.011,0,0,1,10.20349,25.40165Z"/><path class="g" d="M10.204,27.07476a.067.067,0,0,1-.09617-.03087l.07545-.012Z"/><path class="k" d="M15.00964,27.15964a1.52857,1.52857,0,0,1-.52979-.14061,4.61946,4.61946,0,0,0-1.6-.46385c-.01121-.13832.119-.12575.18956-.17662.10546-.07574.26-.0846.31359-.23092a1.27364,1.27364,0,0,1,.58617-.23464c.17312-.03258.18091-.10318.0548-.21864a.76847.76847,0,0,0-.854-.18977c-.03723-.01057-.07874-.03772-.111-.02915-.2385.06231-.26915-.05544-.24257-.2535a7.78176,7.78176,0,0,1,.17047-1.06173c.11182-.05859.21485-.11232.25215-.25837a5.42739,5.42739,0,0,1,.5413-1.15919c.09817-.18634.177-.18862.35131-.08688A3.70572,3.70572,0,0,0,16,23.20107v3.95714A3.77926,3.77926,0,0,1,15.00964,27.15964Z"/><path class="p" d="M15.11839,12.00012a1.971,1.971,0,0,0-.64419-.56873.66071.66071,0,0,1-.38611-.66905.6466.6466,0,0,1,.582-.53816.95474.95474,0,0,0,.336.71564c.25929.21177.32409.54787.51486.80366.08088.1086.14133.23235.223.3401.12311.16262.19056.24207.25615.25636v.3118C15.74664,12.63859,15.49357,12.42053,15.11839,12.00012Z"/><path class="q" d="M14.6729,10.18888a.22493.22493,0,0,1-.00278.03514.64653.64653,0,0,0-.582.538l-.02043-.00028-.02044.00028a3.69583,3.69583,0,0,1,.21506-1.2152A.6411.6411,0,0,0,14.6729,10.18888Z"/><path class="u" d="M15.319,9.94467a5.75079,5.75079,0,0,1,.6684-1.11832c.00458-.006.00815-.00371.01265-.00914v1.02a1.64626,1.64626,0,0,0-.67234.16119A.31151.31151,0,0,0,15.319,9.94467Z"/><path class="j" d="M14.43641,9.191q.1226.135.24557.2695a.33985.33985,0,0,0,.01079.509c.15025.14261.31473.09088.45827-.038.11589.04315-.00186.088.001.13175l-.12868.11032-.35046.01543a.64125.64125,0,0,1-.41062-.64218l-.00071-.30666C14.29672,9.14159,14.34517,9.09071,14.43641,9.191Z"/><path class="k" d="M14.8003,9.57314c-.09767.00943-.10268.0603-.05945.13261.06052.22292.18748.23321.356.11146l.06088.052-.00672.06231c-.14347.12889-.30795.18062-.4582.038a.33985.33985,0,0,1-.01079-.509Z"/><path class="t" d="M15.09681,9.81721c-.16848.12175-.29544.11146-.356-.11146l.0871-.06688A.48873.48873,0,0,1,15.09681,9.81721Z"/><path class="s" d="M9.11938,7.35111c-.01214.09327.10383.15528.17853.21241a6.74135,6.74135,0,0,0,2.84882,1.26513c.04858.00928.13739-.032.13641.05176-.00079.06885-.08636.05542-.14123.06787a6.93383,6.93383,0,0,0-1.95478.81519c-.03082.01806-.0769.05054-.076.07495.00274.0708.07183.04272.11254.05127a4.67236,4.67236,0,0,0,1.39252.02685,4.47426,4.47426,0,0,0,1.171-.19238c.03259-.01221.09046-.02759.08832.02564-.00159.0393-.04437.08252-.078.11425a4.86745,4.86745,0,0,0-.933,1.114c-.08.14087-.25134.37671-.18341.42163.14313.09448.30207-.09009.45032-.16748a8.57527,8.57527,0,0,0,1.26227-.88013,3.68081,3.68081,0,0,0,.76568-1.09936l.04084-.06958.01385-.05835c-.00275-.01075-.00275-.011,0,0,.04279-.03687.08234-.07447.01428-.12378h0q-.45483-.58228-.9096-1.16382-.46107-.20472-.92212-.41016a7.75746,7.75746,0,0,0-3.05811-.17163C9.257,7.26444,9.129,7.2769,9.11938,7.35111Z"/><path class="j" d="M14.828,9.63887l-.0871.06688c-.04323-.07231-.03822-.12318.05945-.13233Z"/><path class="l" d="M.65015,7.63944c.26391.273.52807.54737.771.83887a3.56739,3.56739,0,0,0,1.41761.99878,11.60016,11.60016,0,0,0,4.96136.87207.7118.7118,0,0,1,.78241.374,5.15558,5.15558,0,0,0,2.82336,2.53149,3.57073,3.57073,0,0,0,.89179.26636.349.349,0,0,0,.4386-.27246,17.94715,17.94715,0,0,0,.65747-2.89649,3.68081,3.68081,0,0,0,.76568-1.09936l.04084-.06958a.20487.20487,0,0,1,.00793.05517l.05341.002.00067.30664a3.69623,3.69623,0,0,0-.215,1.21533,10.17284,10.17284,0,0,1-1.00683,3.14868,1.11361,1.11361,0,0,1-.80866.17236,5.63783,5.63783,0,0,1-2.0741-.90429A6.33022,6.33022,0,0,1,8.4425,11.32475a.69454.69454,0,0,0-.72851-.37989,6.65441,6.65441,0,0,1-1.88886-.06054A7.14616,7.14616,0,0,1,.45947,7.54643C.58331,7.44779.60675,7.59452.65015,7.63944Z"/><path class="v" d="M12.57428,6.24906a16.08094,16.08094,0,0,1,2.27313,1.47583.4184.4184,0,0,0,.18689.16309l.05878.05493c.04669.01782.05774-.00928.05987-.04785.0185-.054.04163-.10693.05475-.16284A8.54918,8.54918,0,0,1,15.97119,5.504.22645.22645,0,0,1,16,5.47074V8.81718c-.00452.00537-.00806.00317-.01263.009a5.7548,5.7548,0,0,0-.66852,1.11841l-.16114-.07544-.06091-.052a.49056.49056,0,0,0-.2688-.17847l-.02771-.06543L14.682,9.46049q-.12287-.13476-.24561-.26953c-.09125-.10034-.13965-.04932-.1748.04932l-.05341-.002a.20487.20487,0,0,0-.00793-.05517l.01385-.05835c.04279-.03687.08234-.07447.01428-.12378q-.45483-.58228-.9096-1.16382c-.05146-.07837-.10279-.15625-.15424-.23438-.014.0127-.07281-.05127-.05884-.064a.17293.17293,0,0,0-.00366-.031l-.002-.00293a.08869.08869,0,0,0-.05225-.07959l.00037.00049.05157.07862a.08636.08636,0,0,0-.05218-.08057l-.01526-.05347-.10224-.186q-.05411-.09413-.10809-.18921-.12927-.33692-.2586-.67407Z"/><polygon class="v" points="13.046 7.422 13.048 7.425 13.046 7.423 13.046 7.422"/><path class="r" d="M12.25079,7.17851a2.29,2.29,0,0,0,.14594.24853q.461.20545.92206.41016c-.05146-.07837-.10279-.15625-.15424-.23438l-.05713-.062a.21424.21424,0,0,0-.00342-.03l-.05578-.085-.00061-.00195-.002-.00195.00006.00048-.04046-.05322-.08142-.10693-.16834-.19141h-.00006c-.06-.07495-.11981-.15039-.17981-.22558.03449.17968.08319.35644-.21338.19311C12.24756,6.97514,12.20508,7.07426,12.25079,7.17851Zm.85681.36377L13.10748,7.542h0ZM13.10742,7.542Zm-.06164-.11841.00006.00025h.00006c-.00018.00415.00152.00708.00152.01123l-.00158-.01123C13.02588,7.40531,13.02576,7.40531,13.04578,7.42362Z"/><path class="s" d="M13.03235,7.3704l.01587.05542-.043-.05664-.08142-.10693-.16834-.19141.06659-.07568q.054.09484.10809.18921Z"/><path class="s" d="M10.96686,4.035a4.29214,4.29214,0,0,1,.94623.377,7.03647,7.03647,0,0,1,2.28869,2.07641A12.25039,12.25039,0,0,1,14.916,7.66a.34864.34864,0,0,1,.11835.228.4184.4184,0,0,1-.18689-.16309,16.08094,16.08094,0,0,0-2.27313-1.47583l-.01086.072q.12936.3369.2586.67407c-.02222.02514-.04443.05078-.06665.07568-.06-.07495-.11981-.15039-.17981-.22558-.04394-.07569-.085-.15284-.13214-.22657q-.787-1.2268-1.57446-2.45337c-.02979-.04663-.07538-.12622-.0578-.15112C10.85278,3.95512,10.91547,4.021,10.96686,4.035Z"/><path class="f" d="M15.12689,28.49917a1.40157,1.40157,0,0,1-.86682-.20863,2.39171,2.39171,0,0,0-1.28259-.43813c.155-.10774.24765-.20806-.00664-.31494-.06466-.02716-.10789-.10518-.161-.16a.98509.98509,0,0,0-.08532-.41669c-.05608-.15976-.10581-.35153.15526-.40555a4.61946,4.61946,0,0,1,1.6.46385,1.52857,1.52857,0,0,0,.52979.14061A3.77926,3.77926,0,0,0,16,27.15821v1.33925A8.315,8.315,0,0,0,15.12689,28.49917Z"/><path class="t" d="M12.97084,27.53747c.25429.10688.16169.2072.00664.31494-.30323.07574-.60467.14319-.8213-.17862a1.87179,1.87179,0,0,0,.65369-.29637C12.863,27.43229,12.90618,27.51031,12.97084,27.53747Z"/><path class="n" d="M11.58158,26.66693a.34794.34794,0,0,1,.23064-.10032c.05352-.00085.10639.0203.05687.08231-.183.22835-.08795.49758-.11782.74822l-.33281-.25122.10675-.28608A.20652.20652,0,0,0,11.58158,26.66693Z"/><path class="a" d="M1.14874,10.10234c.041.00463.10065-.00611.12464.05175a.84684.84684,0,0,1-.12915.02149c-.13642.00293-.27289-.00122-.40918.00171-.26661.00586-.32312.08056-.26252.343.13526.5857.2082.65528.79657.75245.06714.01123.13611.012.203.0249.06182.012.14209.00317.16369.07886.00324.01147-.09283.05419-.14514.07812-.0708.032-.144.05908-.2157.08911-.37488.157-.429.29663-.27185.66992a.27365.27365,0,0,0,.28308.19678c.22339-.00024.4469.02588.67011.0437a.42887.42887,0,0,1,.098.03223.4526.4526,0,0,1-.07428.07739c-.13129.08325-.27026.156-.39673.24634a.33865.33865,0,0,0-.10974.50342c.27576.478.40076.54516.94415.46972.14453-.02.29023-.031.43543-.04614a.46935.46935,0,0,1,.0495-.0249.46935.46935,0,0,0-.0495.0249l.063.06568c-.25244.12109-.50244.24755-.75824.36132-.15558.06934-.16986.16016-.09119.29761a1.17029,1.17029,0,0,0,1.16345.54956c.28589-.04932.57062-.10522.8559-.15771h.00006l.06122.06347c.05127-.01025.10992-.05639.08606-.08886H4.2334c.024.03247-.03479.07861-.08612.08886-.19617.125-.38874.25659-.5896.37378-.1731.10108-.18335.20972-.04462.34375.02081.02027.04541.03638.06781.05518.799.66577.79883.66528,1.688.13745a.46181.46181,0,0,1,.10724-.03247h0l.00049.00049c.007,0,.00531-.00806.00982-.0105l.00055-.00049.00068-.00073.00122-.00122-.00068.00073-.00122.00122c-.00579.00147-.003.011-.01037.011a1.38551,1.38551,0,0,1-.25971.41626c-.116.17846-.05981.28369.11573.36816.52771.25415.70977.21436,1.06829-.2417.06617-.084.13654-.165.205-.24756l.04248-.06054.06067-.11206a.13405.13405,0,0,1,.04584-.06788.13509.13509,0,0,0-.04584.06788.294.294,0,0,1,.05267-.00538.12567.12567,0,0,0,.04255-.03491.1224.1224,0,0,1-.04255.03491.12976.12976,0,0,1-.06036.11646l-.03528.06274c-.08179.18677-.16162.37427-.2456.56006-.09137.20215-.01667.323.18689.36426.45288.09082.90155.15625,1.16894-.36157.04053-.07862.05811-.07471.12653.00342A.90818.90818,0,0,0,8.9248,16.709c.32538-.27857.63727-.57325.95508-.8606h.00006l.061.00513a.10729.10729,0,0,0,.04175-.03516.10491.10491,0,0,1-.04175.03516c-.09375.22363-.18134.45044-.28327.67041-.08715.18847-.006.27978.167.31274a.76125.76125,0,0,0,.874-.303c.07367-.11352.16083-.21826.24188-.32715l.05615-.1167.02808-.00317.02814.00073a.2388.2388,0,0,1-.057.17847c-.06335.40063-.06335.40015.34619.41162.09546.00244.1908.00806.28626.01221a23.47457,23.47457,0,0,1,1.27191-2.43384.76647.76647,0,0,0,.14014-.345,1.11361,1.11361,0,0,1-.80866.17236,5.63783,5.63783,0,0,1-2.0741-.90429A6.33022,6.33022,0,0,1,8.4425,11.32475a.69454.69454,0,0,0-.72851-.37989,6.65441,6.65441,0,0,1-1.88886-.06054A7.14616,7.14616,0,0,1,.45947,7.54643a.37607.37607,0,0,0-.06878.45312,2.78461,2.78461,0,0,0,.59478.92725c.02784.03271.08509.06445.04737.11377-.01245.01636-.07245.00073-.10962-.00635-.19068-.03638-.3819-.071-.57111-.1145-.07477-.01709-.15265-.06958-.21576.00146-.05725.0647-.02246.14673-.00464.22242A1.10571,1.10571,0,0,0,1.14874,10.10234Zm9.8761,5.92065a.04354.04354,0,0,1,.05438-.01611c.02216.00976.02344.02465.0152.03979.00812-.01489.0069-.02978-.0152-.03979A.04354.04354,0,0,0,11.02484,16.023ZM9.897,15.81889c.01728-.03076.03992-.05615.07141-.03955.01374.00732.00983.01684.00947.02588.00036-.00879.00427-.01856-.00947-.02588C9.937,15.76274,9.91431,15.78813,9.897,15.81889Zm-4.46038-.08643.00293-.00757-.00287.00757H5.43665l-.00007.00025-.003.00268Zm.02209-.02-.01105.01.01087-.01Zm-.02441.02686.00116-.00342-.00116.00342c-.015,0-.0163.0144-.02369.02246C5.418,15.7537,5.41931,15.7393,5.43433,15.7393Zm-.02582.02246c.00873-.00732.02344-.00928.02362-.0249h0C5.432,15.75248,5.41736,15.75444,5.40851,15.76176Z"/><path class="t" d="M14.02393,25.69436c.12611.11546.11832.18606-.0548.21864a1.27364,1.27364,0,0,0-.58617.23464c-.06066-.21778-.01322-.47128-.213-.643A.76847.76847,0,0,1,14.02393,25.69436Z"/><path class="w" d="M15.74385,12.08358c-.08166-.10775-.14211-.2315-.223-.3401-.19077-.25579-.25557-.59189-.51486-.80366a.95438.95438,0,0,1-.33588-.71564.225.225,0,0,0,.00278-.03515l.35046-.01543c.0538.00486.10382.00143.1279-.05859l.1764-.11661A1.64626,1.64626,0,0,1,16,9.83721v2.50273C15.93441,12.32565,15.867,12.2462,15.74385,12.08358Z"/><path class="q" d="M15.152,10.06327c-.00287-.0437.11487-.08862-.0011-.13183l.00677-.06226.16126.07544a.31307.31307,0,0,1,.00867.05371l-.17639.1167c-.024.06006-.0741.06348-.12787.05859Z"/></svg>