<svg xmlns="http://www.w3.org/2000/svg" viewBox="0 0 32 32"><title>629-vullaby-shiny</title><path d="M23.50685,30.9359c-.47236-.15435-.77274.03934-.78264.50541l.11337.15736c.22956.07186.46136.13742.68757.21884.09938.03551.21876.059.262.18249h.05593l-.00915-.28112A1.23489,1.23489,0,0,0,23.50685,30.9359Z" style="fill:#635c5c"/><path d="M22.72421,31.44131a.51683.51683,0,0,0-.62869-.26582.32955.32955,0,0,0-.25148.19834c-.03873.12158.07212.17758.14165.2467.04426.04371.11741.06038.12506.13742.23023.0153.47078.00437.61346.242h.05593c.0276-.13277-.06788-.28276.05738-.40133Z" style="fill:#635c5c"/><polygon points="15.952 13.201 15.952 13.201 15.952 13.2 15.952 13.201" style="fill:#665c57"/><polygon points="15.953 13.199 15.952 13.2 15.952 13.201 15.953 13.201 15.953 13.199" style="fill:#665c57"/><polygon points="15.952 5.49 15.952 5.49 15.952 5.489 15.952 5.49" style="fill:#5a4d48"/><path d="M31.01263,15.54731a.55894.55894,0,0,0-.17525-.33958,7.22257,7.22257,0,0,0-.74378-.67616,12.08616,12.08616,0,0,0-7.18621-2.288c-.35338.00438-.70683.0082-1.06028.01421a.87265.87265,0,0,0-.221.01776c-.25659.07185-.27941.16064-.10763.3639.1855.21937.36581.44312.55233.6614.06878.0806.07042.10272-.04549.13605a1.91137,1.91137,0,0,1-.72007.03853c-.2564-.02541-.2954.07567-.26036.28986.01557.09507.12219.21773.02315.28084-.077.0489-.18235-.05955-.269-.11146-.06911-.0418-.13653-.12731-.22047-.07759-.06987.041-.02977.1366-.0351.20818a5.15472,5.15472,0,0,1-.03176.72233c-.03661.17129-.07936.21883-.24806.12512-.28454-.15791-.58505-.28686-.87109-.4423-.18215-.09917-.26322-.09426-.25195.14452.01352.28794.0002.57726.00416.866.002.15026-.041.19533-.20025.14807-.33705-.10054-.68367-.16911-1.02032-.271a.33894.33894,0,0,0-.41444.12622c-.24335.31526-.49359.62534-.73442.94252-.0993.13086-.16658.14671-.26541-.00492-.15647-.24041-.33159-.46853-.49878-.70184l-.05628-.11064-.00267.00382v4.19029h.00287c.10662.0183.17287-.05738.24328-.11256a1.61116,1.61116,0,0,1,1.85077-.14124c.87013.44558.95147.43738,1.49889-.37483a2.34134,2.34134,0,0,1,.36253-.52617,1.3352,1.3352,0,0,1,1.49541-.02049,3.157,3.157,0,0,0,1.30594.721,1.78631,1.78631,0,0,0,.45611-.16692l.05969-.04945a1.3546,1.3546,0,0,0,.4462-1.1395,4.799,4.799,0,0,0-.04262-1.1589,9.95294,9.95294,0,0,0-.46088-1.28074c-.01271-.02623-.04276-.06393-.03456-.0765.02-.03114.03182-.0041.03592.0194a.77937.77937,0,0,1,.319.16091c.64276.39559,1.25445.8368,1.8718,1.26982a10.03312,10.03312,0,0,0,1.38784.88406,1.26115,1.26115,0,0,0,.69835.15654c.27156-.03114.3736-.1784.30831-.44449a2.49058,2.49058,0,0,0-.27006-.51525c-.02022-.00765-.05218-.01885-.02185-.04152.02943-.02186.05873-.00137.07383.03223a3.19079,3.19079,0,0,0,1.49342.235,1.027,1.027,0,0,0,.89889-.6849.27482.27482,0,0,1,.30925-.21992c.44873-.00711.6595-.153.775-.49066Z" style="fill:#876f5d"/><path d="M21.51853,12.63942c-.17178-.20326-.149-.292.10763-.3639a.87265.87265,0,0,1,.221-.01776c.35345-.006.7069-.00983,1.06028-.01421a4.79679,4.79679,0,0,0-.91569-.03988c-.06038-.00246-.12861.03223-.18085-.02787.03879-.03306.07738-.06666.11645-.09944.09261-.07814.00143-.10955-.04112-.14507a6.029,6.029,0,0,0-.56456-.45405c-.202-.13113-.19076-.24806-.05915-.41936.1297-.16883.23-.36007.3542-.53355.08585-.11993.11222-.19069-.06065-.26063-.36041-.14588-.71174-.31417-1.06683-.47317.01714.21254.03265.42509.05211.63736a.30267.30267,0,0,1-.118.29506c-.09493.07048-.1605.233-.27606.20708-.11044-.02459-.0543-.19288-.08811-.29451-.03688-.11092-.035-.17512-.16091-.06584-.32258.2803-.66421.539-.98036.82587-.16618.15081-.27921.16638-.38767-.04043-.11119-.21227-.21084-.20271-.39115-.04153-.69938.62562-1.41754,1.23021-2.12874,1.84271l-.05751.04426v-.00137l-.00055-.00054v2.4145l.00267-.00382.05628.11064c.16719.23331.34231.46143.49878.70184.09883.15163.16611.13578.26541.00492.24083-.31718.49107-.62726.73442-.94252a.33894.33894,0,0,1,.41444-.12622c.33665.1019.68327.17047,1.02032.271.15921.04726.20223.00219.20025-.14807-.004-.28877.00936-.57809-.00416-.866-.01127-.23878.0698-.24369.25195-.14452.286.15544.58655.28439.87109.4423.1687.09371.21145.04617.24806-.12512a5.15472,5.15472,0,0,0,.03176-.72233c.00533-.07158-.03477-.1672.0351-.20818.08394-.04972.15136.03579.22047.07759.08668.05191.19206.16036.269.11146.099-.06311-.00758-.18577-.02315-.28084-.035-.21419.004-.31527.26036-.28986a1.91137,1.91137,0,0,0,.72007-.03853c.11591-.03333.11427-.05545.04549-.13605C21.88434,13.08254,21.704,12.85879,21.51853,12.63942Z" style="fill:#a7794c"/><polygon points="15.952 13.199 15.952 13.201 15.952 13.2 15.952 13.199 15.952 13.199" style="fill:#d78787"/><polygon points="15.958 5.476 15.952 5.477 15.952 5.489 15.958 5.476" style="fill:#d78787"/><polygon points="15.952 13.199 15.952 13.2 15.953 13.199 15.952 13.199" style="fill:#d78787"/><path d="M20.48919,9.79053c-.01967-.10983-.03586-.22047-.05956-.3292a4.90141,4.90141,0,0,0-1.94747-3.0904,5.98617,5.98617,0,0,0-1.90671-.82724l-.62323-.05327-.00068-.00027q.00032.57986.00068,1.15944v3.37069l.00451-.00163-.00253-.00683c.52078.17621.582.28767.55514,1.01082-.058.32128-.17929.58573-.55712.61988v1.55613c.00171-.0153.004-.03033.00677-.04535a.2921.2921,0,0,1,.05129.00273c.7112-.61223,1.42936-1.21682,2.12874-1.84244.18031-.16118.28-.17074.39115.04153.10846.20681.22149.19124.38767.04043.31615-.28685.65778-.54557.98036-.82587.12594-.10928.124-.04508.16091.06584.03381.10163-.02233.26992.08811.29451.11556.02595.18113-.1366.27606-.20708a.30267.30267,0,0,0,.118-.29506C20.52184,10.21562,20.50633,10.00307,20.48919,9.79053ZM17.044,8.86767c-.00362.00164-.02923-.0265-.027-.03743a.61557.61557,0,0,1,.2206-.3333l.05929-.05518c.13229.03224.0252.07977.00785.12157C17.23112,8.67671,17.18167,8.81057,17.044,8.86767Zm1.65188,1.481-.05573.05655-.057.04945-.10586.06474-.0601.03907a.43587.43587,0,0,1-.33269.06174.23378.23378,0,0,1-.22955-.106l-.05437-.04152a.27006.27006,0,0,1-.05566-.00929,1.64779,1.64779,0,0,1-.44449-1.40095c.02506-.08469.091-.10218.16767-.10163l.09453-.02213.07192-.03688a.09041.09041,0,0,1,.04917-.01011l.11707-.04863.20428-.074q.15142-.07213.30277-.144l.10907-.04972.05532-.01858c.01913-.06037.0627-.06365.11359-.05054.00724-.059.02629-.06092.05641-.01011l.05123-.0448c.05655-.12267.18283-.16091.28221-.2314.01127-.02513.03442-.04644.04576-.0112.00724.02213-.02138.056-.034.08469a1.8286,1.8286,0,0,0,.07691.60349A1.6128,1.6128,0,0,1,18.69586,10.34867Z" style="fill:#e0abdf"/><polygon points="15.952 11.631 15.952 11.643 15.957 11.632 15.952 11.631" style="fill:#e0abdf"/><path d="M17.26657,2.2525c-.04549.03169-.08244.0754-.12492.11174-.055.047-.11167.09234-.1676.13851-.02234-.07021-.05-.13933-.06619-.21091A5.59527,5.59527,0,0,0,16.00864.059L15.95222,0V5.477l.00567-.00082-.00567.01257v.00164l.62323.05327a5.12562,5.12562,0,0,0,1.2091-3.0322c.01776-.20162.00178-.40651.00137-.60977A1.72087,1.72087,0,0,0,17.26657,2.2525Z" style="fill:#988371"/><polygon points="15.952 24.66 15.952 24.663 15.952 24.66 15.952 24.66" style="fill:#e1d5bd"/><path d="M25.85135,18.20141a1.33377,1.33377,0,0,0-.21672-.71031,3.49578,3.49578,0,0,0-1.22972-.89608.28333.28333,0,0,0-.33774.0224,1.50064,1.50064,0,0,0,.45624.58737.38127.38127,0,0,1,.11221.51088A2.60773,2.60773,0,0,1,23.519,18.98193c-.08926.05847-.17013.14835-.29129.15081l-.05969.04945a3.035,3.035,0,0,0,.27394.9846.87072.87072,0,0,1-.01407.66605,3.92113,3.92113,0,0,0-.37393,1.30041.57624.57624,0,0,1-.36588.51743,2.236,2.236,0,0,1-.46689.17512c-.00567.00711-.00984.01721-.01722.02077a.33618.33618,0,0,1-.222.05983c.02288-.09644.12124-.09234.183-.13715a1.85,1.85,0,0,1,.23645-.1437.782.782,0,0,0,.50015-.67479,8.7902,8.7902,0,0,1,.341-1.25452.67448.67448,0,0,0-.04125-.5076,7.061,7.061,0,0,1-.28713-.69118.19816.19816,0,0,0-.20217-.14835,3.157,3.157,0,0,1-1.30594-.721,1.3352,1.3352,0,0,0-1.49541.02049,2.34134,2.34134,0,0,0-.36253.52617c-.54742.81221-.62876.82041-1.49889.37483a1.61116,1.61116,0,0,0-1.85077.14124c-.07041.05518-.13666.13086-.24328.11256h-.00287V22.931l.00192.00137.05607.00082a1.52483,1.52483,0,0,1,.35591-.35.59383.59383,0,0,1,.70648.00081.50312.50312,0,0,1,.19506.59393A2.15469,2.15469,0,0,1,15.95222,24.66v.00246l.00526.01912-.00526-.003v5.24782h.00513a9.90192,9.90192,0,0,0,3.046-.40651,10.13656,10.13656,0,0,0,2.08824-.76058c.14315-.074.17881-.01721.18338.11256a1.36466,1.36466,0,0,0-.11057-1.051,5.57411,5.57411,0,0,1-.48684-1.5635,3.3576,3.3576,0,0,1,1.65188-3.23956,1.337,1.337,0,0,1,1.89222.54366,2.89156,2.89156,0,0,1,.32319,1.755q-.01873.20819-.037.41581c.0741-.03661.09145-.11393.12416-.179a12.449,12.449,0,0,0,1.29-4.63286A12.01791,12.01791,0,0,0,25.85135,18.20141Z" style="fill:#edeeee"/><path d="M22.32944,23.01786a3.3576,3.3576,0,0,0-1.65188,3.23956,5.57411,5.57411,0,0,0,.48684,1.5635,1.36466,1.36466,0,0,1,.11057,1.051,2.89047,2.89047,0,0,1-.233.833.0537.0537,0,0,1,.00533.05054q.141-.08523.28194-.17075c.29744-.21637.60281-.42263.88912-.65266.14711-.1183.21521-.08633.28767.06311a2.94057,2.94057,0,0,0,.15723.25707c.053.07158.06768.17266.16268.212.02316-.0795.04795-.15845.06919-.2385a2.92649,2.92649,0,0,1,.43937-1.27719,5.04924,5.04924,0,0,0,1.17331-2.21616q.01854-.20777.037-.41581a2.89156,2.89156,0,0,0-.32319-1.755A1.337,1.337,0,0,0,22.32944,23.01786Z" style="fill:#7f6858"/><path d="M22.45129,30.08189a1.14832,1.14832,0,0,1,.212-.8297,2.94057,2.94057,0,0,1-.15723-.25707c-.07246-.14944-.14056-.18141-.28767-.06311-.28631.23-.59168.43629-.88912.65266a.76813.76813,0,0,1-.055.35461,4.33756,4.33756,0,0,1-.4057.79364.39033.39033,0,0,0,.12035.58027,2.24378,2.24378,0,0,0,1.12181.44476c-.00765-.077-.0808-.09371-.12506-.13742-.06953-.06912-.18038-.12512-.14165-.2467a.32955.32955,0,0,1,.25148-.19834.51683.51683,0,0,1,.62869.26582c.0099-.46607.31028-.65976.78264-.50541l.1702-.16829c-.32852-.14616-.6582-.29013-.98487-.44066C22.58338,30.277,22.45511,30.21794,22.45129,30.08189Z" style="fill:#d799d6"/><path d="M24.06717,16.61742c-.17819.00629-.24765.23085-.43588.21692a4.799,4.799,0,0,1,.04262,1.1589,1.3546,1.3546,0,0,1-.4462,1.1395c.12116-.00246.202-.09234.29129-.15081a2.60773,2.60773,0,0,0,1.11662-1.26626.38127.38127,0,0,0-.11221-.51088A1.50064,1.50064,0,0,1,24.06717,16.61742Z" style="fill:#807a7a"/><path d="M23.67705,30.76761l-.1702.16829a1.23489,1.23489,0,0,1,.32708.783c-.01332-.1814.03087-.27292.22061-.14343.06106.0418.12608.07786.18707.11966.0558.03825.08619.05191.1077-.0377A.745.745,0,0,0,23.67705,30.76761Z" style="fill:#635c5c"/><path d="M23.13585,15.4771c-.0082.01257.02185.05027.03456.0765l.00136-.0571C23.16767,15.473,23.15586,15.446,23.13585,15.4771Z" style="fill:#a6a19e"/><path d="M27.46512,16.96657c-.03033.02267.00163.03387.02185.04152l.02732.00274.02466-.012C27.52385,16.9652,27.49455,16.94471,27.46512,16.96657Z" style="fill:#958e8b"/><polygon points="15.952 13.201 15.952 13.201 15.952 13.199 15.952 13.201" style="fill:#716660"/><path d="M15.959,13.1533c-.0028.015-.00506.03005-.00677.04535v.00218l.05806-.0448A.2921.2921,0,0,0,15.959,13.1533Z" style="fill:#716660"/><path d="M18.69341,8.45132l-.05123.0448-.05471.01148c-.01154.06584-.06509.082-.118.0989a.04954.04954,0,0,1-.05033.01611l-.06345.06284-.04214.03661q-.11711.05449-.23441.10955-.07908.0332-.15818.06693l-.06338.03388-.1006.02431a.13063.13063,0,0,1-.12533.04207l-.06024.02186a.07485.07485,0,0,1-.10122.0336l-.16986.0082a1.648,1.648,0,0,0,.44456,1.401l.05559.00929.05437.04152q.16852.00821.33706.01694.16462-.06433.32933-.12895l.063-.05245.05771-.05546A2.00636,2.00636,0,0,0,18.82474,8.639C18.80548,8.56306,18.80275,8.46744,18.69341,8.45132Zm-.69023,1.6165a.46518.46518,0,0,1-.42421-.495.47092.47092,0,0,1,.41177-.50787.46567.46567,0,0,1,.42428.4953A.47057.47057,0,0,1,18.00318,10.06782Z" style="fill:#e6e5e5"/><path d="M17.29683,8.44176l-.05929.05518.04658.05246.01032.0071-.01038-.0071-.04652-.05246a.61557.61557,0,0,0-.2206.3333c-.00219.01093.02342.03907.027.03743.13769-.0571.18714-.191.26077-.30434h-.00007C17.322,8.52153,17.42912,8.474,17.29683,8.44176Z" style="fill:#150505"/><path d="M16.50934,11.02264c.02684-.72315-.03436-.83461-.55514-1.01082l.00253.00683-.00451.00163v1.169l.00321.00027-.00191-.003C16.1673,11.22836,16.316,11.04969,16.50934,11.02264Z" style="fill:#807a7a"/><path d="M15.95352,11.18629l.00191.00327-.00321-.00027v.44121l.005.0011-.005.01092c.37783-.03415.49913-.2986.55712-.61988C16.316,11.04969,16.1673,11.22836,15.95352,11.18629Z" style="fill:#6d6666"/><polygon points="15.952 24.663 15.952 24.679 15.957 24.682 15.952 24.663" style="fill:#50433d"/><path d="M15.95168,24.66031l.00054-.00027v-.28822Q15.95182,24.51606,15.95168,24.66031Z" style="fill:#483d37"/><path d="M17.0726,22.584a.59383.59383,0,0,0-.70648-.00081,1.52483,1.52483,0,0,0-.35591.35l-.05607-.00082-.00192-.00137V24.66A2.15469,2.15469,0,0,0,17.26766,23.178.50312.50312,0,0,0,17.0726,22.584Z" style="fill:#776151"/><path d="M23.442,20.16679a3.035,3.035,0,0,1-.27394-.9846,1.78631,1.78631,0,0,1-.45611.16692.19816.19816,0,0,1,.20217.14835,7.061,7.061,0,0,0,.28713.69118.67448.67448,0,0,1,.04125.5076,8.7902,8.7902,0,0,0-.341,1.25452.782.782,0,0,1-.50015.67479,1.85,1.85,0,0,0-.23645.1437c-.06174.04481-.1601.04071-.183.13715a.33618.33618,0,0,0,.222-.05983c.00738-.00356.01155-.01366.01722-.02077a2.236,2.236,0,0,0,.46689-.17512.57624.57624,0,0,0,.36588-.51743,3.92113,3.92113,0,0,1,.37393-1.30041A.87072.87072,0,0,0,23.442,20.16679Z" style="fill:#807a7a"/><path d="M17.99074,9.06492a.47092.47092,0,0,0-.41177.50787.46518.46518,0,0,0,.42421.495.47057.47057,0,0,0,.41184-.5076A.46567.46567,0,0,0,17.99074,9.06492Zm.16317.49585a.11938.11938,0,0,1-.12567-.11857.12437.12437,0,0,1,.12014-.14889.13188.13188,0,0,1,.14466.13441A.122.122,0,0,1,18.15391,9.56077Z" style="fill:#e08c96"/><path d="M19.06434,8.8969a1.8286,1.8286,0,0,1-.07691-.60349c.01257-.02868.04119-.06256.034-.08469-.01134-.03524-.03449-.01393-.04576.0112-.09938.07049-.22566.10873-.28221.2314.10934.01612.11207.11174.13133.18769a2.00636,2.00636,0,0,1-.18283,1.65529l-.05771.05546.02527.01065a.03768.03768,0,0,1,.02383.02486l.00683.01995.05573-.05655A1.6128,1.6128,0,0,0,19.06434,8.8969Z" style="fill:#150505"/><path d="M17.92094,8.89854q.07909-.0336.15818-.06693c.07821-.03661.26248-.13387.27661-.14616l.06339-.06284a.04954.04954,0,0,0,.05033-.01611c.05287-.01694.10641-.03306.118-.0989l.05477-.01148c-.03012-.05081-.04917-.0489-.05641.01011-.05089-.01338-.09446-.00983-.11359.05027l-.05532.01885-.10907.04972c-.101.04809-1.05079.2942-1.00748.43739.05662-.00273.24758.00055.27122-.0418l.0601-.02186a.86818.86818,0,0,0,.22593-.06638Z" style="fill:#150505"/><path d="M18.6333,10.38527a.03758.03758,0,0,0-.024-.02486l-.02513-.01065-.063.05245q-.16462.06475-.32933.12895-.16854-.00861-.33706-.01694a.234.234,0,0,0,.22962.106.43587.43587,0,0,0,.33269-.06174l.0601-.03907.10586-.06474.057-.04945-.0069-.01995Z" style="fill:#150505"/><path d="M18.14838,9.29331a.12437.12437,0,0,0-.12014.14889.11938.11938,0,0,0,.12567.11857.122.122,0,0,0,.13913-.133A.13188.13188,0,0,0,18.14838,9.29331Z" style="fill:#e2dcdd"/><path d="M8.39624,30.9359c.47235-.15435.77273.03934.78263.50541l-.11337.15736c-.22955.07186-.46136.13742-.68757.21884-.09937.03551-.21876.059-.262.18249H8.06l.00915-.28112A1.23485,1.23485,0,0,1,8.39624,30.9359Z" style="fill:#6d6666"/><path d="M9.17887,31.44131a.51684.51684,0,0,1,.6287-.26582.32953.32953,0,0,1,.25147.19834c.03873.12158-.07212.17758-.14165.2467-.04426.04371-.1174.06038-.125.13742-.23024.0153-.47079.00437-.61347.242H9.12294c-.0276-.13277.06789-.28276-.05737-.40133Z" style="fill:#6d6666"/><polygon points="15.951 13.201 15.951 13.201 15.951 13.2 15.951 13.201" style="fill:#665c57"/><polygon points="15.95 13.199 15.951 13.2 15.951 13.201 15.95 13.201 15.95 13.199" style="fill:#665c57"/><polygon points="15.952 5.49 15.951 5.49 15.951 5.489 15.952 5.49" style="fill:#5a4d48"/><path d="M.89045,15.54731a.55894.55894,0,0,1,.17525-.33958,7.22257,7.22257,0,0,1,.74378-.67616,12.08619,12.08619,0,0,1,7.18622-2.288c.35338.00438.70682.0082,1.06027.01421a.87265.87265,0,0,1,.221.01776c.2566.07185.27941.16064.10764.3639-.1855.21937-.36581.44312-.55234.6614-.06877.0806-.07041.10272.04549.13605a1.91141,1.91141,0,0,0,.72008.03853c.25639-.02541.29539.07567.26035.28986-.01557.09507-.12218.21773-.02315.28084.077.0489.18236-.05955.269-.11146.06912-.0418.13653-.12731.22047-.07759.06987.041.02978.1366.0351.20818a5.15472,5.15472,0,0,0,.03176.72233c.03661.17129.07937.21883.24806.12512.28454-.15791.58505-.28686.87109-.4423.18215-.09917.26322-.09426.252.14452-.01353.28794-.00021.57726-.00417.866-.002.15026.04105.19533.20025.14807.33706-.10054.68368-.16911,1.02032-.271a.33894.33894,0,0,1,.41444.12622c.24335.31526.4936.62534.73442.94252.09931.13086.16658.14671.26541-.00492.15647-.24041.33159-.46853.49879-.70184l.05627-.11064.00267.00382v4.19029H15.948c-.10662.0183-.17287-.05738-.24328-.11256a1.61116,1.61116,0,0,0-1.85077-.14124c-.87013.44558-.95147.43738-1.49889-.37483a2.341,2.341,0,0,0-.36253-.52617,1.3352,1.3352,0,0,0-1.49541-.02049,3.157,3.157,0,0,1-1.30594.721,1.7861,1.7861,0,0,1-.4561-.16692l-.0597-.04945a1.35456,1.35456,0,0,1-.44619-1.1395,4.79845,4.79845,0,0,1,.04262-1.1589,9.94994,9.94994,0,0,1,.46088-1.28074c.0127-.02623.04275-.06393.03456-.0765-.02-.03114-.03183-.0041-.03593.0194a.77937.77937,0,0,0-.319.16091c-.64276.39559-1.25444.8368-1.8718,1.26982a10.033,10.033,0,0,1-1.38783.88406,1.26118,1.26118,0,0,1-.69836.15654c-.27156-.03114-.3736-.1784-.3083-.44449a2.49006,2.49006,0,0,1,.27-.51525c.02022-.00765.05218-.01885.02186-.04152-.02944-.02186-.05874-.00137-.07383.03223a3.19086,3.19086,0,0,1-1.49343.235,1.027,1.027,0,0,1-.89888-.6849.27483.27483,0,0,0-.30926-.21992c-.44873-.00711-.6595-.153-.775-.49066Z" style="fill:#8e7763"/><path d="M10.38456,12.63942c.17177-.20326.149-.292-.10764-.3639a.87265.87265,0,0,0-.221-.01776c-.35345-.006-.70689-.00983-1.06027-.01421a4.79665,4.79665,0,0,1,.91568-.03988c.06038-.00246.12861.03223.18086-.02787-.0388-.03306-.07739-.06666-.11645-.09944-.09262-.07814-.00144-.10955.04111-.14507a6.029,6.029,0,0,1,.56456-.45405c.202-.13113.19076-.24806.05915-.41936-.1297-.16883-.23-.36007-.3542-.53355-.08585-.11993-.11221-.19069.06065-.26063.36041-.14588.71174-.31417,1.06683-.47317-.01714.21254-.03265.42509-.05211.63736a.30267.30267,0,0,0,.118.29506c.09494.07048.1605.233.27606.20708.11044-.02459.0543-.19288.08811-.29451.03688-.11092.035-.17512.16091-.06584.32258.2803.66421.539.98037.82587.16617.15081.2792.16638.38766-.04043.11119-.21227.21084-.20271.39115-.04153.69938.62562,1.41755,1.23021,2.12874,1.84271l.05751.04426v-.00137l.00055-.00054v2.4145l-.00267-.00382-.05627.11064c-.1672.23331-.34232.46143-.49879.70184-.09883.15163-.1661.13578-.26541.00492-.24082-.31718-.49107-.62726-.73442-.94252a.33894.33894,0,0,0-.41444-.12622c-.33664.1019-.68326.17047-1.02032.271-.1592.04726-.20223.00219-.20025-.14807.004-.28877-.00936-.57809.00417-.866.01126-.23878-.06981-.24369-.252-.14452-.286.15544-.58655.28439-.87109.4423-.16869.09371-.21145.04617-.24806-.12512a5.15472,5.15472,0,0,1-.03176-.72233c-.00532-.07158.03477-.1672-.0351-.20818-.08394-.04972-.15135.03579-.22047.07759-.08667.05191-.19206.16036-.269.11146-.099-.06311.00758-.18577.02315-.28084.035-.21419-.004-.31527-.26035-.28986a1.91141,1.91141,0,0,1-.72008-.03853c-.1159-.03333-.11426-.05545-.04549-.13605C10.01875,13.08254,10.19906,12.85879,10.38456,12.63942Z" style="fill:#b38658"/><polygon points="15.951 13.199 15.951 13.201 15.951 13.2 15.951 13.199 15.951 13.199" style="fill:#d78787"/><polygon points="15.945 5.476 15.951 5.477 15.951 5.489 15.945 5.476" style="fill:#d78787"/><polygon points="15.951 13.199 15.951 13.2 15.95 13.199 15.951 13.199" style="fill:#d78787"/><path d="M11.36178,10.42789a.30267.30267,0,0,0,.118.29506c.09494.07048.1605.233.27606.20708.11044-.02459.0543-.19288.08811-.29451.03688-.11092.035-.17512.16091-.06584.32258.2803.66421.539.98037.82587.16617.15081.2792.16638.38766-.04043.11119-.21227.21084-.20271.39115-.04153.69938.62562,1.41755,1.23021,2.12874,1.84244a.29221.29221,0,0,1,.0513-.00273c.0028.015.005.03005.00676.04535V11.64252c-.37783-.03415-.49913-.2986-.55712-.61988-.02684-.72315.03436-.83461.55514-1.01082l-.00253.00683.00451.00163V6.64959q.0003-.57945.00068-1.15944l-.00068.00027-.62323.05327a5.986,5.986,0,0,0-1.9067.82724,4.90139,4.90139,0,0,0-1.94748,3.0904c-.0237.10873-.03989.21937-.05956.3292C11.39675,10.00307,11.38124,10.21562,11.36178,10.42789ZM14.5984,8.56333c-.01735-.0418-.12444-.08933.00786-.12157l.05928.05518a.61551.61551,0,0,1,.2206.3333c.00219.01093-.02342.03907-.027.03743C14.72141,8.81057,14.672,8.67671,14.5984,8.56333Zm-1.75965.33357a1.82859,1.82859,0,0,0,.0769-.60349c-.01257-.02868-.04118-.06256-.03394-.08469.01133-.03524.03449-.01393.04576.0112.09937.07049.22566.10873.28221.2314l.05122.0448c.03012-.05081.04918-.0489.05642.01011.05088-.01311.09445-.00983.11358.05054l.05532.01858.10907.04972q.15142.07214.30277.144l.20429.074.11706.04863a.09047.09047,0,0,1,.04918.01011l.07191.03688.09453.02213c.0767-.00055.14261.01694.16767.10163a1.64779,1.64779,0,0,1-.44449,1.401.27.27,0,0,1-.05566.00929l-.05437.04152a.23376.23376,0,0,1-.22955.106.43584.43584,0,0,1-.33268-.06174l-.06011-.03907L13.32,10.45467l-.057-.04945-.05573-.05655A1.6128,1.6128,0,0,1,12.83875,8.8969Z" style="fill:#e5bde5"/><polygon points="15.951 11.631 15.951 11.643 15.946 11.632 15.951 11.631" style="fill:#e5bde5"/><path d="M14.63651,2.2525c.04549.03169.08244.0754.12492.11174.055.047.11167.09234.16761.13851.02233-.07021.05-.13933.06618-.21091A5.59527,5.59527,0,0,1,15.89444.059L15.95086,0V5.477l-.00567-.00082.00567.01257v.00164l-.62323.05327a5.12562,5.12562,0,0,1-1.2091-3.0322c-.01776-.20162-.00177-.40651-.00136-.60977A1.72071,1.72071,0,0,1,14.63651,2.2525Z" style="fill:#9d8978"/><polygon points="15.951 24.66 15.951 24.663 15.951 24.66 15.951 24.66" style="fill:#e1d5bd"/><path d="M6.05174,18.20141a1.33368,1.33368,0,0,1,.21671-.71031A3.49578,3.49578,0,0,1,7.49817,16.595a.28333.28333,0,0,1,.33774.0224,1.50064,1.50064,0,0,1-.45624.58737.38127.38127,0,0,0-.11221.51088,2.60773,2.60773,0,0,0,1.11662,1.26626c.08927.05847.17013.14835.29129.15081l.0597.04945a3.03525,3.03525,0,0,1-.274.9846.87081.87081,0,0,0,.01407.66605,3.92138,3.92138,0,0,1,.37394,1.30041.57623.57623,0,0,0,.36587.51743,2.23588,2.23588,0,0,0,.4669.17512c.00567.00711.00983.01721.01721.02077a.33619.33619,0,0,0,.222.05983c-.02288-.09644-.12123-.09234-.183-.13715a1.85078,1.85078,0,0,0-.23646-.1437.782.782,0,0,1-.50015-.67479,8.7902,8.7902,0,0,0-.34095-1.25452.67448.67448,0,0,1,.04125-.5076,7.061,7.061,0,0,0,.28713-.69118.19817.19817,0,0,1,.20217-.14835,3.157,3.157,0,0,0,1.30594-.721,1.3352,1.3352,0,0,1,1.49541.02049,2.341,2.341,0,0,1,.36253.52617c.54742.81221.62876.82041,1.49889.37483a1.61116,1.61116,0,0,1,1.85077.14124c.07041.05518.13666.13086.24328.11256h.00287V22.931l-.00191.00137-.05608.00082a1.525,1.525,0,0,0-.3559-.35.59384.59384,0,0,0-.70649.00081.50312.50312,0,0,0-.19506.59393A2.15471,2.15471,0,0,0,15.95086,24.66v.00246l-.00526.01912.00526-.003v5.24782h-.00512a9.90188,9.90188,0,0,1-3.046-.40651,10.13665,10.13665,0,0,1-2.08825-.76058c-.14315-.074-.1788-.01721-.18338.11256a1.36466,1.36466,0,0,1,.11058-1.051,5.57409,5.57409,0,0,0,.48683-1.5635,3.35758,3.35758,0,0,0-1.65188-3.23956,1.337,1.337,0,0,0-1.89222.54366,2.89156,2.89156,0,0,0-.32319,1.755q.01875.20819.037.41581c-.07411-.03661-.09146-.11393-.12417-.179a12.449,12.449,0,0,1-1.29-4.63286A12.01675,12.01675,0,0,1,6.05174,18.20141Z" style="fill:#f7f7f7"/><path d="M9.57364,23.01786a3.35758,3.35758,0,0,1,1.65188,3.23956,5.57409,5.57409,0,0,1-.48683,1.5635,1.36466,1.36466,0,0,0-.11058,1.051,2.89047,2.89047,0,0,0,.233.833.0537.0537,0,0,0-.00533.05054q-.141-.08523-.28194-.17075c-.29744-.21637-.6028-.42263-.88911-.65266-.14712-.1183-.21521-.08633-.28768.06311a2.9429,2.9429,0,0,1-.15722.25707c-.053.07158-.06769.17266-.16269.212-.02315-.0795-.048-.15845-.06919-.2385a2.92636,2.92636,0,0,0-.43937-1.27719,5.04922,5.04922,0,0,1-1.1733-2.21616q-.01856-.20777-.037-.41581a2.89156,2.89156,0,0,1,.32319-1.755A1.337,1.337,0,0,1,9.57364,23.01786Z" style="fill:#876f5d"/><path d="M9.4518,30.08189a1.14836,1.14836,0,0,0-.212-.8297,2.9429,2.9429,0,0,0,.15722-.25707c.07247-.14944.14056-.18141.28768-.06311.28631.23.59167.43629.88911.65266a.76813.76813,0,0,0,.055.35461,4.33756,4.33756,0,0,0,.4057.79364.39033.39033,0,0,1-.12034.58027,2.24382,2.24382,0,0,1-1.12181.44476c.00765-.077.08079-.09371.125-.13742.06953-.06912.18038-.12512.14165-.2467a.32953.32953,0,0,0-.25147-.19834.51684.51684,0,0,0-.6287.26582c-.0099-.46607-.31028-.65976-.78263-.50541l-.1702-.16829c.32851-.14616.65819-.29013.98487-.44066C9.31971,30.277,9.448,30.21794,9.4518,30.08189Z" style="fill:#e0abdf"/><path d="M7.83591,16.61742c.17819.00629.24765.23085.43589.21692a4.79845,4.79845,0,0,0-.04262,1.1589,1.35456,1.35456,0,0,0,.44619,1.1395c-.12116-.00246-.202-.09234-.29129-.15081a2.60773,2.60773,0,0,1-1.11662-1.26626.38127.38127,0,0,1,.11221-.51088A1.50064,1.50064,0,0,0,7.83591,16.61742Z" style="fill:#746e6e"/><path d="M8.226,30.76761l.1702.16829a1.23485,1.23485,0,0,0-.32709.783c.01332-.1814-.03087-.27292-.2206-.14343-.06106.0418-.12608.07786-.18707.11966-.0558.03825-.0862.05191-.10771-.0377A.745.745,0,0,1,8.226,30.76761Z" style="fill:#6d6666"/><path d="M8.76724,15.4771c.00819.01257-.02186.05027-.03456.0765l-.00137-.0571C8.73541,15.473,8.74722,15.446,8.76724,15.4771Z" style="fill:#a6a19e"/><path d="M4.438,16.96657c.03032.02267-.00164.03387-.02186.04152l-.02732.00274-.02465-.012C4.37923,16.9652,4.40853,16.94471,4.438,16.96657Z" style="fill:#958e8b"/><polygon points="15.951 13.201 15.951 13.201 15.951 13.199 15.951 13.201" style="fill:#716660"/><path d="M15.9441,13.1533c.0028.015.005.03005.00676.04535v.00218l-.05806-.0448A.29221.29221,0,0,1,15.9441,13.1533Z" style="fill:#716660"/><path d="M13.07834,8.639a2.0064,2.0064,0,0,0,.18283,1.65529l.05772.05546.063.05245q.16464.06475.32934.12895.16852-.00861.337-.01694l.05437-.04152.05559-.00929a1.648,1.648,0,0,0,.44456-1.40095l-.16986-.0082a.07485.07485,0,0,1-.10122-.0336l-.06024-.02186a.1306.1306,0,0,1-.12532-.04207l-.10061-.02431-.06338-.03388q-.07909-.0336-.15818-.06693-.1173-.05491-.2344-.10955l-.04214-.03661L13.484,8.62261a.04955.04955,0,0,1-.05034-.01611c-.05293-.01694-.10648-.03306-.118-.0989l-.05471-.01148-.05122-.0448C13.10033,8.46744,13.0976,8.56306,13.07834,8.639Zm.40972.92121a.46568.46568,0,0,1,.42428-.4953.47092.47092,0,0,1,.41177.50787.46518.46518,0,0,1-.4242.495A.47057.47057,0,0,1,13.48806,9.56022Z" style="fill:#e6e5e5"/><path d="M14.60626,8.44176l.05928.05518L14.619,8.5494l-.01031.0071.01038-.0071.04651-.05246a.61551.61551,0,0,1,.2206.3333c.00219.01093-.02342.03907-.027.03743-.13769-.0571-.18714-.191-.26077-.30434h.00007C14.58105,8.52153,14.474,8.474,14.60626,8.44176Z" style="fill:#150505"/><path d="M15.39374,11.02264c-.02684-.72315.03436-.83461.55514-1.01082l-.00253.00683.00451.00163v1.169l-.00321.00027.00191-.003C15.73578,11.22836,15.5871,11.04969,15.39374,11.02264Z" style="fill:#8d8888"/><path d="M15.94956,11.18629l-.00191.00327.00321-.00027v.44121l-.005.0011.005.01092c-.37783-.03415-.49913-.2986-.55712-.61988C15.5871,11.04969,15.73578,11.22836,15.94956,11.18629Z" style="fill:#746e6e"/><polygon points="15.951 24.663 15.951 24.679 15.946 24.682 15.951 24.663" style="fill:#50433d"/><path d="M15.9514,24.66031,15.95086,24.66v-.28822Q15.95127,24.51606,15.9514,24.66031Z" style="fill:#483d37"/><path d="M14.83048,22.584a.59384.59384,0,0,1,.70649-.00081,1.525,1.525,0,0,1,.3559.35l.05608-.00082.00191-.00137V24.66A2.15471,2.15471,0,0,1,14.63542,23.178.50312.50312,0,0,1,14.83048,22.584Z" style="fill:#7f6858"/><path d="M8.46112,20.16679a3.03525,3.03525,0,0,0,.274-.9846,1.7861,1.7861,0,0,0,.4561.16692.19817.19817,0,0,0-.20217.14835,7.061,7.061,0,0,1-.28713.69118.67448.67448,0,0,0-.04125.5076,8.7902,8.7902,0,0,1,.34095,1.25452.782.782,0,0,0,.50015.67479,1.85078,1.85078,0,0,1,.23646.1437c.06174.04481.16009.04071.183.13715a.33619.33619,0,0,1-.222-.05983c-.00738-.00356-.01154-.01366-.01721-.02077a2.23588,2.23588,0,0,1-.4669-.17512.57623.57623,0,0,1-.36587-.51743,3.92138,3.92138,0,0,0-.37394-1.30041A.87081.87081,0,0,1,8.46112,20.16679Z" style="fill:#746e6e"/><path d="M13.48806,9.56022a.47057.47057,0,0,0,.41185.5076.46518.46518,0,0,0,.4242-.495.47092.47092,0,0,0-.41177-.50787A.46568.46568,0,0,0,13.48806,9.56022Zm.122-.1325a.13187.13187,0,0,1,.14465-.13441.12437.12437,0,0,1,.12014.14889.11938.11938,0,0,1-.12567.11857A.122.122,0,0,1,13.61005,9.42772Z" style="fill:#e2959e"/><path d="M12.83875,8.8969a1.82859,1.82859,0,0,0,.0769-.60349c-.01257-.02868-.04118-.06256-.03394-.08469.01133-.03524.03449-.01393.04576.0112.09937.07049.22566.10873.28221.2314-.10935.01612-.11208.11174-.13134.18769a2.0064,2.0064,0,0,0,.18283,1.65529l.05772.05546-.02527.01065a.03767.03767,0,0,0-.02384.02486l-.00683.01995-.05573-.05655A1.6128,1.6128,0,0,1,12.83875,8.8969Z" style="fill:#150505"/><path d="M13.98214,8.89854q-.07909-.0336-.15818-.06693c-.0782-.03661-.26247-.13387-.27661-.14616L13.484,8.62261a.04955.04955,0,0,1-.05034-.01611c-.05286-.01694-.10641-.03306-.118-.0989l-.05478-.01148c.03012-.05081.04918-.0489.05642.01011.05088-.01338.09445-.00983.11358.05027l.05532.01885.10907.04972c.10095.04809,1.05079.2942,1.00748.43739-.05662-.00273-.24758.00055-.27121-.0418l-.06011-.02186a.86829.86829,0,0,1-.22593-.06638Z" style="fill:#150505"/><path d="M13.26978,10.38527a.03758.03758,0,0,1,.024-.02486l.02514-.01065.063.05245q.16464.06475.32934.12895.16852-.00861.337-.01694a.23393.23393,0,0,1-.22962.106.43584.43584,0,0,1-.33268-.06174l-.06011-.03907L13.32,10.45467l-.057-.04945.0069-.01995Z" style="fill:#150505"/><path d="M13.7547,9.29331a.12437.12437,0,0,1,.12014.14889.11938.11938,0,0,1-.12567.11857.122.122,0,0,1-.13912-.133A.13187.13187,0,0,1,13.7547,9.29331Z" style="fill:#e2dcdd"/></svg>