<svg xmlns="http://www.w3.org/2000/svg" viewBox="0 0 32 32"><defs><style>.a{fill:#f2f2f1;}.b{fill:#4f4949;}.c{fill:#b6a799;}.d{fill:#e2959e;}.e{fill:#5a5353;}.f{fill:#fef1c6;}.g{fill:#be858c;}.h{fill:#ffeaa7;}.i{fill:#3a3333;}.j{fill:#e08c96;}.k{fill:#49413e;}.l{fill:#cb6278;}.m{fill:#6d6666;}.n{fill:#413b3b;}.o{fill:#e2e1e2;}.p{fill:#635c5c;}.q{fill:#aa4040;}.r{fill:#211915;}.s{fill:#807164;}.t{fill:#7d5464;}.u{fill:#ecb7be;}.v{fill:#baac9e;}.w{fill:#e59fa8;}.x{fill:#fff5d8;}.y{fill:#d56a7d;}.z{fill:#746e6e;}.aa{fill:#f0c4ca;}</style></defs><title>630-mandibuzz</title><path class="a" d="M24.88644,22.32112c.017-.00088.034-.00147.051-.00088V22.14q-.0255.00043-.051-.00088Z"/><path class="b" d="M23.64943,15.74834a1.74748,1.74748,0,0,0-.513.45094c-.01348.046-.033.09728-.08739.09084-.05048-.00586-.03246-.06066-.02777-.09172.00967-.06416.03011-.12658.04615-.18957a19.77259,19.77259,0,0,0,.066-2.27141,6.673,6.673,0,0,0-.49379-2.41527,1.93635,1.93635,0,0,0-3.1571-.811,5.74338,5.74338,0,0,0-1.57426,3.89731,5.64016,5.64016,0,0,0,.43724,2.684,3.67355,3.67355,0,0,0,1.282,1.26756,3.56085,3.56085,0,0,0,2.03736.47819c.28744-.01934.34326-.14006.21119-.41695-.04117-.02022-.10256-.05479-.07369-.09376.03977-.05362.09815-.01729.13764.02871a4.52966,4.52966,0,0,0,1.54957-.06065c.11911-.04981.24305-.09113.3563-.15207.19808-.10637.37828-.2391.37835-.49431.00015-.24818-.19368-.35278-.373-.46354L23.825,17.1709q-.09615-.05495-.19236-.11017c.05948-.03428.11837-.06974.17851-.10255a1.46261,1.46261,0,0,0,.51533-.44655.49222.49222,0,0,0,.03363-.65634A.566.566,0,0,0,23.64943,15.74834Z"/><path class="c" d="M18.34539,17.09237a5.641,5.641,0,0,1-.43717-2.684,5.74338,5.74338,0,0,1,1.57426-3.89731,13.95469,13.95469,0,0,0-1.8617-.61561,9.53474,9.53474,0,0,0-.43556,2.27434,15.25139,15.25139,0,0,0-.03963,1.67278.58938.58938,0,0,1-.28685.56668,1.48661,1.48661,0,0,1-.85874.291v6.66829l.066-.01435c.23338-.24554.54925-.39469.76856-.65693.01758-.04629.06029-.10607.09523-.0794.0515.03926.01743.10313-.025.14826.03707.148.10226.03516.14043.0082a3.1746,3.1746,0,0,0,.88356-.884c.02088-.03311.04879-.09229.0682-.09053.06952.00732.03421.07266.03978.1128.02571.18694.11434.05157.15478.02257a2.25048,2.25048,0,0,0,.87353-1.14655c.00528-.17053-.11178-.28715-.18144-.42633A4.67006,4.67006,0,0,1,18.34539,17.09237Z"/><path class="d" d="M17.56108,6.29l-.00674.13889c.026.18049-.03707.36538.14731.53122.07537.06769-.00762.31176-.01853.47555.08665.11076.05127.23793.0482.3607a.11754.11754,0,0,1-.05048.12394l-.02073.10578c-.00842.06622-.03267.12013-.10643.13478a.05688.05688,0,0,1-.06021.05948l.00388-.00439-.06417.06446.00439-.0041-.065.06416.00337-.005c-.01348.03311-.03055.04571-.05626.01-.26078.0835-.40545-.07267-.53562-.25932l-.008.07648c.03077.18284.14827.34692.11669.54294-.01113.16087.05472.32964-.05142.48025a1.91967,1.91967,0,0,1-.65905,1.25817l-.05911.05919A.14651.14651,0,0,1,16,10.56326v4.137a1.48661,1.48661,0,0,0,.85874-.291.58938.58938,0,0,0,.28685-.56668,15.25139,15.25139,0,0,1,.03963-1.67278,9.53474,9.53474,0,0,1,.43556-2.27434,5.43673,5.43673,0,0,0,.352-1.89606A2.779,2.779,0,0,0,17.56108,6.29Z"/><path class="e" d="M17.21328,2.60045c-.12241-.0542-.27983.259-.39476.4319-.02051.03076-.0515.087-.06666.08351-.06776-.01524-.0334-.07912-.03663-.1216-.02212-.288-.02966-.57782-.061-.865A5.07822,5.07822,0,0,0,16.11149.06563.17842.17842,0,0,0,16,0V.04835s.00044.74658,0,1.10933V5.26947l.43131.08175a2.5148,2.5148,0,0,0,.54082-.55086A.54425.54425,0,0,1,16.65978,4.19c.03245-.18313.12233-.36627.34414-.34312.21793.02286.26913-.09317.30356-.257.002-.12951.011-.2596.00425-.38882C17.30067,2.989,17.39047,2.67869,17.21328,2.60045Z"/><path class="f" d="M18.95836,3.41209a.55944.55944,0,0,0-.75992-.05714,1.27459,1.27459,0,0,0-.31644.3563c-.10168.1761-.27653.12629-.43139.12511-.1791-.00117-.10423-.15881-.14313-.24642-.03443.1638-.08563.27983-.30356.257-.22181-.02315-.31169.16-.34414.34312a.54425.54425,0,0,0,.31235.61033.68687.68687,0,0,1,.94774.27865,1.07146,1.07146,0,0,0,.27359.26957.41.41,0,0,0,.58793-.05391.39962.39962,0,0,0,.06871-.58719c-.19632-.24378-.22035-.41021.04461-.6288A.453.453,0,0,0,18.95836,3.41209Z"/><polygon class="g" points="16.956 7.797 16.953 7.8 16.953 7.8 16.956 7.797"/><path class="d" d="M16.43131,5.35122,16,5.26947V7.73836a1.02729,1.02729,0,0,1,.776.42428l.008-.07648a.1501.1501,0,0,1,.11391-.16672.249.249,0,0,1,.05545-.119l.01384-.06007a.19971.19971,0,0,1,.1008-.13859q.24315-.58676.48632-1.17291L17.56108,6.29A2.27639,2.27639,0,0,0,16.43131,5.35122Z"/><path class="h" d="M20.19222,21.42011A6.10041,6.10041,0,0,1,17.39,22.43451a7.43648,7.43648,0,0,1-1.39.12717v3.89174q.20965-.00221.41944-.0041c-.05259-.13948-.10284-.27953-.1583-.41783a.65739.65739,0,0,1,.26386-.82277,1.102,1.102,0,0,1,.99974-.10842.439.439,0,0,1,.33557.46882c-.01428.19836-.00161.39878-.00088.59832a7.641,7.641,0,0,0,.89515-.36567c.08548-.09552.19895-.05714.30311-.06329l-.07039-.06564-.05025-.05332A.8557.8557,0,0,1,18.9725,24.291a.80148.80148,0,0,1,.84247-.133c.24174.07325.27961-.02813.32-.19778.06417-.26928.12548-.53943.188-.80929A6.75963,6.75963,0,0,0,20.19222,21.42011Z"/><path class="i" d="M22.45564,23.84505c-.045.00352-.09046.00264-.13573.00381a.67025.67025,0,0,1,.07684-.12042,4.44659,4.44659,0,0,0,.867-1.16764,5.7737,5.7737,0,0,1-1.5747-.96664l-.82885.30942c-.03.01406-.07472.04776-.08717.03838-.05157-.03838-.01084-.07413.01883-.10636.00278-.01934.00505-.039.00849-.05831.10534-.59393.08886-.61034-.47218-.46559q-.0679.0545-.136.10841a6.75963,6.75963,0,0,1,.13076,1.73081c.61685.62733,1.15013,1.32762,1.732,1.98572.05581-.02051.11354-.03663.16686-.06212.06842-.03282.185-.03252.18577-.121.00081-.0964-.11764-.07238-.18379-.1008-.027-.01143-.05633-.01817-.08453-.027a.66351.66351,0,0,1,.09735-.099,10.181,10.181,0,0,0,.97118-.69209c.05816-.04952.15984-.10079.1216-.184-.03223-.07032-.14182-.06153-.21947-.05714C22.89164,23.80608,22.67379,23.82777,22.45564,23.84505Z"/><path class="f" d="M22.055,25.13664c-.58192-.6581-1.1152-1.35839-1.732-1.98572-.06256.26986-.12387.54-.188.80929-.04036.16965-.07823.271-.32.19778a.80148.80148,0,0,0-.84247.133.8557.8557,0,0,0-.03545,1.32851l.05025.05332.07039.06564c.58749.693,1.19277,1.36981,1.84332,2.00476.0482.04688.101.14211.16218.1093.07062-.0378.0044-.12365-.01428-.18577-.19544-.64872-.39088-1.29745-.59144-1.9447-.03868-.12482-.05714-.22767.09933-.27514-.30722.01465-.23807-.25755-.314-.41695-.02608-.0545.03165-.07442.06549-.05977.2344.10314.4661.21243.69707.32319l-.03143.0753a.6999.6999,0,0,1,.39871.04981c.30136.131.61349.23705.92269.34927.04322.01553.113.0293.13888.007.06359-.05479-.00615-.10578-.0356-.14943C22.28694,25.4607,22.17,25.29926,22.055,25.13664Z"/><path class="j" d="M19.61822,29.93055a.98952.98952,0,0,1-1.10985-.9848c-.01472-.38794.001-.77735.00308-1.16617a.8279.8279,0,0,1-.5918.11661q-.00122.57093-.00257,1.14215a.84583.84583,0,0,1,.08087-.03575c.06556-.02168.1564-.05186.1813.02462.02784.08526-.07633.10138-.13544.12013a.64367.64367,0,0,1-.17544.00879c-.02176.04571.01927.138-.053.13332-.04637-.00293-.08768-.08409-.13127-.1301-.07831-.00205-.15654-.0038-.23485-.00586-.01618.063-.00139.13567-.05838.18606l-.05867.30327a1.39186,1.39186,0,0,0,.49709.06094c.04373-.00058.111-.00879.10467.06564-.00395.04717-.05545.04981-.0931.04835-.18328-.00586-.38194.05156-.52646-.1219a3.55173,3.55173,0,0,1-.69165.64462.70844.70844,0,0,0-.28319.3689c.55452-.14533.74776.04659.73618.73164a.49458.49458,0,0,0,.36421-.18166.95316.95316,0,0,1,1.25481-.08966c.122.0671.24159.1383.36223.20745.0767-.40846.24034-.53123.71831-.53972-.11163-.17112-.31806-.19075-.47233-.29389-.04944-.03311-.12452-.06593-.09574-.12922.03546-.07794.10124-.01494.1501.00615.18108.07912.36091.16116.54119.242l.00351-.06329.053-.06036c.107-.29213.36377-.28656.60792-.3059A.89649.89649,0,0,0,19.61822,29.93055Z"/><path class="j" d="M17.86515,29.10075l.05193-.06241q.00132-.57093.00257-1.14215c.15192-.20041.42882-.14445.60506-.29506l.22987-1.79936a7.641,7.641,0,0,1-.89515.36567Z"/><path class="b" d="M16.3396,30.70937A.945.945,0,0,0,16,31.1902v.50456c.08358.11164.01487.37769.29777.28656.1101-.395.46295-.44039.778-.54031C17.08736,30.756,16.89412,30.564,16.3396,30.70937Z"/><path class="b" d="M20.563,30.23294c-.24415.01934-.5009.01377-.60792.3059l-.05311.06036-.00344.06329.133.25931c.35945-.0838.621.1386.907.28715.045.02344.10329.13127.15295.00938A.97605.97605,0,0,0,20.563,30.23294Z"/><path class="b" d="M19.77534,30.83742c-.478.00849-.64161.13126-.71831.53972.019.02168.03363.05391.05758.06417a1.9263,1.9263,0,0,1,.839.47907c.07948.09786.10482-.03165.1109-.0841a1.45446,1.45446,0,0,0-.05765-.81808Q19.89113,30.92811,19.77534,30.83742Z"/><path class="k" d="M20.24284,25.03c.07589.1594.00674.4316.314.41695l.41717-.07823.03143-.0753c-.231-.11076-.46267-.22-.69707-.32319C20.27449,24.95556,20.21676,24.97548,20.24284,25.03Z"/><path class="l" d="M19.35737,30.42046c-.04886-.02109-.11464-.08409-.1501-.00615-.02878.06329.0463.09611.09574.12922.15427.10314.3607.12277.47233.29389q.11582.09054.23148.18078l.02476-.0964-.133-.25931C19.71828,30.58162,19.53845,30.49958,19.35737,30.42046Z"/><path class="l" d="M18.51145,27.77958l.01326-.17845c-.17624.15061-.45314.09465-.60506.29506A.8279.8279,0,0,0,18.51145,27.77958Z"/><path class="m" d="M24.29229,20.74766a15.54946,15.54946,0,0,1-.80277-2.45219,4.52966,4.52966,0,0,1-1.54957.06065c-.03949-.046-.09787-.08233-.13764-.02871-.02887.039.03252.07354.07369.09376.13207.27689.07625.39761-.21119.41695a3.56085,3.56085,0,0,1-2.03736-.47819,3.67434,3.67434,0,0,1-1.28206-1.26756,4.67006,4.67006,0,0,0,.53826,1.2699c.06966.13918.18672.2558.18144.42633a1.74779,1.74779,0,0,1,.71868,1.13717l.04058-.01465c.02754-.04981-.02359-.254.1246-.075a17.82386,17.82386,0,0,0,1.74018,1.758,5.77228,5.77228,0,0,0,1.57463.96664,4.71142,4.71142,0,0,0,.87859.15558.624.624,0,0,0,.74409-.39526v-.182A9.14043,9.14043,0,0,0,24.29229,20.74766Z"/><path class="f" d="M20.33748,20.8675c.00777-.2936-.03347-.55262-.33373-.6833a.27524.27524,0,0,1-.1794-.27308l-.04058.01465c.0219.37271-.22716.5532-.50984.69912a6.4511,6.4511,0,0,1-1.82068.54675,8.39892,8.39892,0,0,1-1.38725.18255L16,21.36854v1.19314a7.43648,7.43648,0,0,0,1.39-.12717,6.10041,6.10041,0,0,0,2.80219-1.0144q.068-.05406.136-.10841C20.21339,21.16256,20.3336,21.01488,20.33748,20.8675Z"/><path class="n" d="M19.06509,18.7886a2.25048,2.25048,0,0,1-.87353,1.14655c-.04044.029-.12907.16437-.15478-.02257-.00557-.04014.02974-.10548-.03978-.1128-.01941-.00176-.04732.05742-.0682.09053a3.1746,3.1746,0,0,1-.88356.884c-.03817.027-.10336.13977-.14043-.0082.04241-.04513.07648-.109.025-.14826-.03494-.02667-.07765.03311-.09523.0794-.21931.26224-.53518.41139-.76856.65693a8.39892,8.39892,0,0,0,1.38725-.18255,6.4511,6.4511,0,0,0,1.82068-.54675c.28268-.14592.53174-.32641.50984-.69912A1.74779,1.74779,0,0,0,19.06509,18.7886Z"/><path class="m" d="M16.776,8.16264A1.02729,1.02729,0,0,0,16,7.73836v2.64353c.01919,0,.03831-.0003.0575-.00118l.05787-.06328a4.7621,4.7621,0,0,1,.50786-.99975.7872.7872,0,0,0,.15691-.31411c.06688-.08848.02424-.218.11258-.298C16.9243,8.50956,16.8068,8.34548,16.776,8.16264Z"/><path class="o" d="M17.2606,7.5649l.05039.12336-.00029.11632c.03216.14973.002.28481-.15471.33081-.16943.04981-.19778-.11164-.25806-.21595a.1501.1501,0,0,0-.11391.16672c.13017.18665.27484.34282.53562.25932a.07733.07733,0,0,1,.05626-.01l-.00337.005c.0193-.02168.10163-.09786.12116-.121l.0175-.0545c.02205-.04746.0293-.10548.09-.12511l.02307-.11691.00359-.36187-.00212-.06417C17.4408,7.17959,17.3726,7.49018,17.2606,7.5649Z"/><path class="p" d="M16.89272,8.70558c-.08834.08-.0457.20951-.11258.298a.7872.7872,0,0,1-.15691.31411,4.7621,4.7621,0,0,0-.50786.99975l-.05787.06328c-.01919.00088-.03831.00118-.0575.00118v.18137a.14651.14651,0,0,0,.12314-.06007l.059-.05919a1.91945,1.91945,0,0,0,.65912-1.25817C16.94744,9.03522,16.88159,8.86645,16.89272,8.70558Z"/><polygon class="q" points="16.953 7.8 16.954 7.8 16.956 7.797 16.953 7.8"/><path class="r" d="M17.68312,7.43568c.01091-.16379.0939-.40786.01853-.47555-.18438-.16584-.12131-.35073-.14731-.53122L17.068,7.60153l.01179.08673q.09044-.062.18079-.12336c.112-.07472.1802-.38531.36509-.068l.00212.06417-.00359.36187-.02307.11691c-.06066.01963-.06791.07765-.09.12511l-.01743.0545h-.00007l-.00022.00088a.057.057,0,0,0,.06028-.05948c.07369-.01465.09794-.06856.10636-.13478l.02073-.10578a.11754.11754,0,0,0,.05048-.12394C17.73439,7.67361,17.76977,7.54644,17.68312,7.43568Z"/><path class="r" d="M17.3759,8.33551a.07733.07733,0,0,0-.05626.01C17.34535,8.38122,17.36242,8.36862,17.3759,8.33551Z"/><path class="r" d="M16.96722,7.74041l-.01384.06007.069-.0586.02344.00176.0233-.00264a.1284.1284,0,0,0,.01069-.05274L17.068,7.60182A.19971.19971,0,0,0,16.96722,7.74041Z"/><path class="f" d="M17.85943,26.16744c-.00073-.19954-.0134-.4.00088-.59832a.439.439,0,0,0-.33557-.46882,1.102,1.102,0,0,0-.99974.10842.65739.65739,0,0,0-.26386.82277c.05546.1383.10571.27835.1583.41783.0945.19661.20276.38794.28114.5907.28906.74835.8249,1.42373.69033,2.29953.057-.05039.0422-.12306.05838-.18606l-.00608-.16906c.00528-.08146-.019-.23675.02308-.22972.09156.01465.10475.14475.142.23206l.07581.17258c.04359.046.0849.12717.13127.1301.07223.00469.0312-.08761.053-.13332a.11824.11824,0,0,1-.0033-.05538Q17.86233,27.63409,17.85943,26.16744Z"/><path class="s" d="M18.93708,25.61942l.05022.05338Z"/><path class="l" d="M17.82933,29.70376a1.39186,1.39186,0,0,1-.49709-.06094.07189.07189,0,0,0-.0178.053c.14452.17346.34318.116.52646.1219.03765.00146.08915-.00118.0931-.04835C17.9403,29.695,17.87306,29.70318,17.82933,29.70376Z"/><path class="l" d="M17.998,29.00259a.84583.84583,0,0,0-.08087.03575l-.052.06241a.11824.11824,0,0,0,.0033.05538.64367.64367,0,0,0,.17544-.00879c.05911-.01875.16328-.03487.13544-.12013C18.15435,28.95073,18.06351,28.98091,17.998,29.00259Z"/><path class="l" d="M17.44321,28.98443l.00608.16906c.07831.00206.15654.00381.23485.00586l-.07581-.17258Z"/><path class="t" d="M19.9551,30.53877l-.05309.06052Z"/><path class="u" d="M17.07981,7.68826a.1284.1284,0,0,1-.01069.05274c.03684.10255.10094.12043.18987.06094.006-.04307.00241-.09054.052-.11368L17.2606,7.5649Q17.17017,7.62643,17.07981,7.68826Z"/><path class="j" d="M17.311,7.68826c-.04959.02314-.046.07061-.052.11368-.08893.05949-.153.04161-.18987-.06094l-.0233.00264-.02337-.00176-.06878.05831-.045.058-.01069.06124c.06028.10431.08863.26576.25806.21595.15669-.046.18687-.18108.15464-.33081l-.02579-.00264.02586.00264Z"/><path class="l" d="M17.46629,28.75471c-.042-.007-.0178.14826-.02308.22972l.16512.00234C17.571,28.89946,17.55785,28.76936,17.46629,28.75471Z"/><path class="a" d="M7.11356,22.32112c-.017-.00088-.034-.00147-.051-.00088V22.14q.0255.00043.051-.00088Z"/><path class="e" d="M8.35057,15.74834a1.74748,1.74748,0,0,1,.513.45094c.01348.046.033.09728.08739.09084.05048-.00586.03246-.06066.02777-.09172-.00967-.06416-.03011-.12658-.04615-.18957a19.77259,19.77259,0,0,1-.066-2.27141,6.673,6.673,0,0,1,.49379-2.41527,1.93635,1.93635,0,0,1,3.1571-.811,5.74338,5.74338,0,0,1,1.57426,3.89731,5.64016,5.64016,0,0,1-.43724,2.684,3.67355,3.67355,0,0,1-1.282,1.26756,3.56085,3.56085,0,0,1-2.03736.47819c-.28744-.01934-.34326-.14006-.21119-.41695.04117-.02022.10256-.05479.07369-.09376-.03977-.05362-.09815-.01729-.13764.02871a4.52966,4.52966,0,0,1-1.54957-.06065c-.11911-.04981-.24305-.09113-.3563-.15207-.19808-.10637-.37828-.2391-.37835-.49431-.00015-.24818.19368-.35278.373-.46354L8.175,17.1709q.09615-.05495.19236-.11017c-.05948-.03428-.11837-.06974-.17851-.10255a1.46261,1.46261,0,0,1-.51533-.44655.49222.49222,0,0,1-.03363-.65634A.566.566,0,0,1,8.35057,15.74834Z"/><path class="v" d="M13.65461,17.09237a5.641,5.641,0,0,0,.43717-2.684,5.74338,5.74338,0,0,0-1.57426-3.89731,13.95469,13.95469,0,0,1,1.8617-.61561,9.53474,9.53474,0,0,1,.43556,2.27434,15.25139,15.25139,0,0,1,.03963,1.67278.58938.58938,0,0,0,.28685.56668,1.48661,1.48661,0,0,0,.85874.291v6.66829l-.066-.01435c-.23338-.24554-.54925-.39469-.76856-.65693-.01758-.04629-.06029-.10607-.09523-.0794-.0515.03926-.01743.10313.025.14826-.03707.148-.10226.03516-.14043.0082a3.1746,3.1746,0,0,1-.88356-.884c-.02088-.03311-.04879-.09229-.0682-.09053-.06952.00732-.03421.07266-.03978.1128-.02571.18694-.11434.05157-.15478.02257a2.25048,2.25048,0,0,1-.87353-1.14655c-.00528-.17053.11178-.28715.18144-.42633A4.67006,4.67006,0,0,0,13.65461,17.09237Z"/><path class="w" d="M14.43892,6.29l.00674.13889c-.026.18049.03707.36538-.14731.53122-.07537.06769.00762.31176.01853.47555-.08665.11076-.05127.23793-.0482.3607a.11754.11754,0,0,0,.05048.12394l.02073.10578c.00842.06622.03267.12013.10643.13478a.05688.05688,0,0,0,.06021.05948L14.50265,8.216l.06417.06446-.00439-.0041.065.06416-.00337-.005c.01348.03311.03055.04571.05626.01.26078.0835.40545-.07267.53562-.25932l.008.07648c-.03077.18284-.14827.34692-.11669.54294.01113.16087-.05472.32964.05142.48025a1.91967,1.91967,0,0,0,.65905,1.25817l.05911.05919A.14651.14651,0,0,0,16,10.56326v4.137a1.48661,1.48661,0,0,1-.85874-.291.58938.58938,0,0,1-.28685-.56668,15.25139,15.25139,0,0,0-.03963-1.67278,9.53474,9.53474,0,0,0-.43556-2.27434,5.43673,5.43673,0,0,1-.352-1.89606A2.779,2.779,0,0,1,14.43892,6.29Z"/><path class="p" d="M14.78672,2.60045c.12241-.0542.27983.259.39476.4319.02051.03076.0515.087.06666.08351.06776-.01524.0334-.07912.03663-.1216.02212-.288.02966-.57782.061-.865A5.07822,5.07822,0,0,1,15.88851.06563.17842.17842,0,0,1,16,0V.04835s-.00044.74658,0,1.10933V5.26947l-.43131.08175a2.5148,2.5148,0,0,1-.54082-.55086A.54425.54425,0,0,0,15.34022,4.19c-.03245-.18313-.12233-.36627-.34414-.34312-.21793.02286-.26913-.09317-.30356-.257-.002-.12951-.011-.2596-.00425-.38882C14.69933,2.989,14.60953,2.67869,14.78672,2.60045Z"/><path class="x" d="M13.04164,3.41209a.55944.55944,0,0,1,.75992-.05714,1.27459,1.27459,0,0,1,.31644.3563c.10168.1761.27653.12629.43139.12511.1791-.00117.10423-.15881.14313-.24642.03443.1638.08563.27983.30356.257.22181-.02315.31169.16.34414.34312a.54425.54425,0,0,1-.31235.61033.68687.68687,0,0,0-.94774.27865,1.07146,1.07146,0,0,1-.27359.26957.41.41,0,0,1-.58793-.05391.39962.39962,0,0,1-.06871-.58719c.19632-.24378.22035-.41021-.04461-.6288A.453.453,0,0,1,13.04164,3.41209Z"/><polygon class="g" points="15.044 7.797 15.047 7.8 15.047 7.8 15.044 7.797"/><path class="w" d="M15.56869,5.35122,16,5.26947V7.73836a1.02729,1.02729,0,0,0-.776.42428l-.008-.07648a.1501.1501,0,0,0-.11391-.16672.249.249,0,0,0-.05545-.119l-.01384-.06007a.19971.19971,0,0,0-.1008-.13859q-.24315-.58676-.48632-1.17291L14.43892,6.29A2.27639,2.27639,0,0,1,15.56869,5.35122Z"/><path class="f" d="M11.80778,21.42011A6.10041,6.10041,0,0,0,14.61,22.43451a7.43648,7.43648,0,0,0,1.39.12717v3.89174q-.20966-.00221-.41944-.0041c.05259-.13948.10284-.27953.1583-.41783a.65739.65739,0,0,0-.26386-.82277,1.102,1.102,0,0,0-.99974-.10842.439.439,0,0,0-.33557.46882c.01428.19836.00161.39878.00088.59832a7.641,7.641,0,0,1-.89515-.36567c-.08548-.09552-.19895-.05714-.30311-.06329l.07039-.06564.05025-.05332A.8557.8557,0,0,0,13.0275,24.291a.80148.80148,0,0,0-.84247-.133c-.24174.07325-.27961-.02813-.32-.19778-.06417-.26928-.12548-.53943-.188-.80929A6.75963,6.75963,0,0,1,11.80778,21.42011Z"/><path class="n" d="M9.54436,23.84505c.04505.00352.09046.00264.13573.00381a.67025.67025,0,0,0-.07684-.12042,4.44659,4.44659,0,0,1-.867-1.16764,5.7737,5.7737,0,0,0,1.5747-.96664l.82885.30942c.03.01406.07472.04776.08717.03838.05157-.03838.01084-.07413-.01883-.10636-.00278-.01934-.00505-.039-.00849-.05831-.10534-.59393-.08886-.61034.47218-.46559q.0679.0545.136.10841a6.75963,6.75963,0,0,0-.13076,1.73081c-.61685.62733-1.15013,1.32762-1.73205,1.98572-.05581-.02051-.11354-.03663-.16686-.06212-.06842-.03282-.185-.03252-.18577-.121-.00081-.0964.11764-.07238.18379-.1008.027-.01143.05633-.01817.08453-.027a.66351.66351,0,0,0-.09735-.099,10.181,10.181,0,0,1-.97118-.69209c-.05816-.04952-.15984-.10079-.1216-.184.03223-.07032.14182-.06153.21947-.05714C9.10836,23.80608,9.32621,23.82777,9.54436,23.84505Z"/><path class="x" d="M9.945,25.13664c.58192-.6581,1.1152-1.35839,1.73205-1.98572.06256.26986.12387.54.188.80929.04036.16965.07823.271.32.19778a.80148.80148,0,0,1,.84247.133.8557.8557,0,0,1,.03545,1.32851l-.05025.05332-.07039.06564c-.58749.693-1.19277,1.36981-1.84332,2.00476-.0482.04688-.101.14211-.16218.1093-.07062-.0378-.0044-.12365.01428-.18577.19544-.64872.39088-1.29745.59144-1.9447.03868-.12482.05714-.22767-.09933-.27514.30722.01465.23807-.25755.314-.41695.02608-.0545-.03165-.07442-.06549-.05977-.2344.10314-.4661.21243-.69707.32319l.03143.0753a.6999.6999,0,0,0-.39871.04981c-.30136.131-.61349.23705-.92269.34927-.04322.01553-.113.0293-.13888.007-.06359-.05479.00615-.10578.0356-.14943C9.71306,25.4607,9.83,25.29926,9.945,25.13664Z"/><path class="d" d="M12.38178,29.93055a.98952.98952,0,0,0,1.10985-.9848c.01472-.38794-.001-.77735-.00308-1.16617a.8279.8279,0,0,0,.5918.11661q.00122.57093.00257,1.14215a.84583.84583,0,0,0-.08087-.03575c-.06556-.02168-.1564-.05186-.1813.02462-.02784.08526.07633.10138.13544.12013a.64367.64367,0,0,0,.17544.00879c.02176.04571-.01927.138.053.13332.04637-.00293.08768-.08409.13127-.1301.07831-.00205.15654-.0038.23485-.00586.01618.063.00139.13567.05838.18606l.05867.30327a1.39186,1.39186,0,0,1-.49709.06094c-.04373-.00058-.111-.00879-.10467.06564.00395.04717.05545.04981.0931.04835.18328-.00586.38194.05156.52646-.1219a3.55173,3.55173,0,0,0,.69165.64462.70844.70844,0,0,1,.28319.3689c-.55452-.14533-.74776.04659-.73618.73164a.49458.49458,0,0,1-.36421-.18166.95316.95316,0,0,0-1.25481-.08966c-.122.0671-.24159.1383-.36223.20745-.0767-.40846-.24034-.53123-.71831-.53972.11163-.17112.31806-.19075.47233-.29389.04944-.03311.12452-.06593.09574-.12922-.03546-.07794-.10124-.01494-.1501.00615-.18108.07912-.36091.16116-.54119.242l-.00351-.06329-.053-.06036c-.107-.29213-.36377-.28656-.60792-.3059A.89649.89649,0,0,1,12.38178,29.93055Z"/><path class="d" d="M14.13485,29.10075l-.05193-.06241q-.00132-.57093-.00257-1.14215c-.15192-.20041-.42882-.14445-.60506-.29506l-.22987-1.79936a7.641,7.641,0,0,0,.89515.36567Z"/><path class="e" d="M15.6604,30.70937A.945.945,0,0,1,16,31.1902v.50456c-.08358.11164-.01487.37769-.29777.28656-.1101-.395-.46295-.44039-.778-.54031C14.91264,30.756,15.10588,30.564,15.6604,30.70937Z"/><path class="e" d="M11.437,30.23294c.24415.01934.5009.01377.60792.3059l.05311.06036.00344.06329-.133.25931c-.35945-.0838-.621.1386-.907.28715-.045.02344-.10329.13127-.153.00938A.97605.97605,0,0,1,11.437,30.23294Z"/><path class="e" d="M12.22466,30.83742c.478.00849.64161.13126.71831.53972-.019.02168-.03363.05391-.05758.06417a1.9263,1.9263,0,0,0-.839.47907c-.07948.09786-.10482-.03165-.1109-.0841a1.45446,1.45446,0,0,1,.05765-.81808Q12.10887,30.92811,12.22466,30.83742Z"/><path class="k" d="M11.75716,25.03c-.07589.1594-.00674.4316-.314.41695L11.026,25.3687l-.03143-.0753c.231-.11076.46267-.22.69707-.32319C11.72551,24.95556,11.78324,24.97548,11.75716,25.03Z"/><path class="y" d="M12.64263,30.42046c.04886-.02109.11464-.08409.1501-.00615.02878.06329-.0463.09611-.09574.12922-.15427.10314-.3607.12277-.47233.29389q-.11582.09054-.23148.18078l-.02476-.0964.133-.25931C12.28172,30.58162,12.46155,30.49958,12.64263,30.42046Z"/><path class="y" d="M13.48855,27.77958l-.01326-.17845c.17624.15061.45314.09465.60506.29506A.8279.8279,0,0,1,13.48855,27.77958Z"/><path class="z" d="M7.70771,20.74766a15.54946,15.54946,0,0,0,.80277-2.45219,4.52966,4.52966,0,0,0,1.54957.06065c.03949-.046.09787-.08233.13764-.02871.02887.039-.03252.07354-.07369.09376-.13207.27689-.07625.39761.21119.41695a3.56085,3.56085,0,0,0,2.03736-.47819,3.67434,3.67434,0,0,0,1.28206-1.26756,4.67006,4.67006,0,0,1-.53826,1.2699c-.06966.13918-.18672.2558-.18144.42633a1.74779,1.74779,0,0,0-.71868,1.13717l-.04058-.01465c-.02754-.04981.02359-.254-.1246-.075a17.82386,17.82386,0,0,1-1.74018,1.758,5.77228,5.77228,0,0,1-1.57463.96664,4.71142,4.71142,0,0,1-.87859.15558.624.624,0,0,1-.74409-.39526v-.182A9.14043,9.14043,0,0,1,7.70771,20.74766Z"/><path class="x" d="M11.66252,20.8675c-.00777-.2936.03347-.55262.33373-.6833a.27524.27524,0,0,0,.1794-.27308l.04058.01465c-.0219.37271.22716.5532.50984.69912a6.4511,6.4511,0,0,0,1.82068.54675,8.39892,8.39892,0,0,0,1.38725.18255l.066.01435v1.19314a7.43648,7.43648,0,0,1-1.39-.12717,6.10041,6.10041,0,0,1-2.80219-1.0144q-.068-.05406-.136-.10841C11.78661,21.16256,11.6664,21.01488,11.66252,20.8675Z"/><path class="b" d="M12.93491,18.7886a2.25048,2.25048,0,0,0,.87353,1.14655c.04044.029.12907.16437.15478-.02257.00557-.04014-.02974-.10548.03978-.1128.01941-.00176.04732.05742.0682.09053a3.1746,3.1746,0,0,0,.88356.884c.03817.027.10336.13977.14043-.0082-.04241-.04513-.07648-.109-.025-.14826.03494-.02667.07765.03311.09523.0794.21931.26224.53518.41139.76856.65693a8.39892,8.39892,0,0,1-1.38725-.18255,6.4511,6.4511,0,0,1-1.82068-.54675c-.28268-.14592-.53174-.32641-.50984-.69912A1.74779,1.74779,0,0,1,12.93491,18.7886Z"/><path class="z" d="M15.224,8.16264A1.02729,1.02729,0,0,1,16,7.73836v2.64353c-.01919,0-.03831-.0003-.0575-.00118l-.05787-.06328a4.7621,4.7621,0,0,0-.50786-.99975.7872.7872,0,0,1-.15691-.31411c-.06688-.08848-.02424-.218-.11258-.298C15.0757,8.50956,15.1932,8.34548,15.224,8.16264Z"/><path class="o" d="M14.7394,7.5649l-.05039.12336.00029.11632c-.03216.14973-.002.28481.15471.33081.16943.04981.19778-.11164.25806-.21595a.1501.1501,0,0,1,.11391.16672c-.13017.18665-.27484.34282-.53562.25932a.07733.07733,0,0,0-.05626-.01l.00337.005c-.0193-.02168-.10163-.09786-.12116-.121l-.0175-.0545c-.02205-.04746-.0293-.10548-.09-.12511L14.37578,7.923l-.00359-.36187.00212-.06417C14.5592,7.17959,14.6274,7.49018,14.7394,7.5649Z"/><path class="m" d="M15.10728,8.70558c.08834.08.0457.20951.11258.298a.7872.7872,0,0,0,.15691.31411,4.7621,4.7621,0,0,1,.50786.99975l.05787.06328c.01919.00088.03831.00118.0575.00118v.18137a.14651.14651,0,0,1-.12314-.06007l-.059-.05919a1.91945,1.91945,0,0,1-.65912-1.25817C15.05256,9.03522,15.11841,8.86645,15.10728,8.70558Z"/><polygon class="q" points="15.047 7.8 15.046 7.8 15.044 7.797 15.047 7.8"/><path class="r" d="M14.31688,7.43568c-.01091-.16379-.0939-.40786-.01853-.47555.18438-.16584.12131-.35073.14731-.53122L14.932,7.60153l-.01179.08673q-.09044-.062-.18079-.12336c-.112-.07472-.1802-.38531-.36509-.068l-.00212.06417.00359.36187.02307.11691c.06066.01963.06791.07765.09.12511l.01743.0545h.00007l.00022.00088a.057.057,0,0,1-.06028-.05948c-.07369-.01465-.09794-.06856-.10636-.13478l-.02073-.10578a.11754.11754,0,0,1-.05048-.12394C14.26561,7.67361,14.23023,7.54644,14.31688,7.43568Z"/><path class="r" d="M14.6241,8.33551a.07733.07733,0,0,1,.05626.01C14.65465,8.38122,14.63758,8.36862,14.6241,8.33551Z"/><path class="r" d="M15.03278,7.74041l.01384.06007-.069-.0586-.02344.00176-.0233-.00264a.1284.1284,0,0,1-.01069-.05274l.01179-.08644A.19971.19971,0,0,1,15.03278,7.74041Z"/><path class="x" d="M14.14057,26.16744c.00073-.19954.0134-.4-.00088-.59832a.439.439,0,0,1,.33557-.46882,1.102,1.102,0,0,1,.99974.10842.65739.65739,0,0,1,.26386.82277c-.05546.1383-.10571.27835-.1583.41783-.0945.19661-.20276.38794-.28114.5907-.28906.74835-.8249,1.42373-.69033,2.29953-.057-.05039-.0422-.12306-.05838-.18606l.00608-.16906c-.00528-.08146.019-.23675-.02308-.22972-.09156.01465-.10475.14475-.142.23206l-.07581.17258c-.04359.046-.0849.12717-.13127.1301-.07223.00469-.0312-.08761-.053-.13332a.11824.11824,0,0,0,.0033-.05538Q14.13768,27.63409,14.14057,26.16744Z"/><path class="s" d="M13.06292,25.61942l-.05022.05338Z"/><path class="y" d="M14.17067,29.70376a1.39186,1.39186,0,0,0,.49709-.06094.07189.07189,0,0,1,.0178.053c-.14452.17346-.34318.116-.52646.1219-.03765.00146-.08915-.00118-.0931-.04835C14.0597,29.695,14.12694,29.70318,14.17067,29.70376Z"/><path class="y" d="M14.00205,29.00259a.84583.84583,0,0,1,.08087.03575l.052.06241a.11824.11824,0,0,1-.0033.05538.64367.64367,0,0,1-.17544-.00879c-.05911-.01875-.16328-.03487-.13544-.12013C13.84565,28.95073,13.93649,28.98091,14.00205,29.00259Z"/><path class="y" d="M14.55679,28.98443l-.00608.16906c-.07831.00206-.15654.00381-.23485.00586l.07581-.17258Z"/><path class="t" d="M12.0449,30.53877l.05309.06052Z"/><path class="aa" d="M14.92019,7.68826a.1284.1284,0,0,0,.01069.05274c-.03684.10255-.10094.12043-.18987.06094-.006-.04307-.00241-.09054-.052-.11368l.05039-.12336Q14.82984,7.62643,14.92019,7.68826Z"/><path class="d" d="M14.689,7.68826c.04959.02314.046.07061.052.11368.08893.05949.153.04161.18987-.06094l.0233.00264.02337-.00176.06878.05831.045.058.01069.06124c-.06028.10431-.08863.26576-.25806.21595-.15669-.046-.18687-.18108-.15464-.33081l.02579-.00264-.02586.00264Z"/><path class="y" d="M14.53371,28.75471c.04205-.007.0178.14826.02308.22972l-.16512.00234C14.429,28.89946,14.44215,28.76936,14.53371,28.75471Z"/></svg>