<svg xmlns="http://www.w3.org/2000/svg" viewBox="0 0 32 32"><title>631-heatmor</title><path d="M4.63247,30.60113c.02858.10985.99072.03146,1.29909,0l-.15835-.60042C5.79327,30.08926,4.60907,30.51114,4.63247,30.60113Z" style="fill:#f7c845"/><path d="M5.77321,30.00071l.15835.60042H9.26673v-2.3263a6.84393,6.84393,0,0,0-3.45229-1.1935A5.59259,5.59259,0,0,0,5.77321,30.00071Z" style="fill:#7f6858"/><path d="M8.5292,24.09463a5.0871,5.0871,0,0,0-2.71476,2.9867,6.84393,6.84393,0,0,1,3.45229,1.1935l.98868-2.01886Z" style="fill:#962931"/><path d="M14.53562,10.44563,9.26673,26.256c1.10613,1.39969,2.822,2.30422,5.51624,2.509l.82038-16.65877C15.33778,11.68757,14.95482,11.08964,14.53562,10.44563Z" style="fill:#9c2c30"/><path d="M11.83875,6.628a7.89524,7.89524,0,0,1,1.03718-4.02473,15.454,15.454,0,0,0-5.241,9.06154l4.56727-4.60607C12.06264,6.8808,11.93686,6.72888,11.83875,6.628Z" style="fill:#9c2c30"/><path d="M7.29087,14.84047c-.00118.08081-.00734.16012-.00734.24126a33.14823,33.14823,0,0,0,.66885,8.48668L14.18255,9.90512c-.502-.76316-1.02931-1.545-1.47984-2.17373Z" style="fill:#9c2c30"/><path d="M12.20217,7.05875,7.6349,11.66482a17.19088,17.19088,0,0,0-.344,3.17565l5.41184-7.10908C12.52,7.47644,12.35147,7.24921,12.20217,7.05875Z" style="fill:#ffd04d"/><path d="M14.18255,9.90512,7.95238,23.56841A7.62162,7.62162,0,0,0,9.26673,26.256l5.26889-15.81034C14.41909,10.26664,14.30387,10.08961,14.18255,9.90512Z" style="fill:#ffd04d"/><path d="M15.60335,12.10617,14.783,28.76494c.39036.02969.78492.05624,1.217.05624V12.73445S15.84578,12.48828,15.60335,12.10617Z" style="fill:#ffd04d"/><path d="M12.87593,2.60328A7.89524,7.89524,0,0,0,11.83875,6.628C12.79407,7.60975,16,12.73445,16,12.73445V1.34228A5.41017,5.41017,0,0,0,12.87593,2.60328Z" style="fill:#876f5d"/><ellipse cx="14.00086" cy="7.16499" rx="0.81255" ry="1.18189" transform="translate(0.394 15.05262) rotate(-57.20129)" style="fill:#f7f7f7"/><ellipse cx="14.14408" cy="7.25729" rx="0.29547" ry="0.20314" transform="matrix(0.54169, -0.84058, 0.84058, 0.54169, 0.38206, 15.21531)" style="fill:#373f3f"/><path d="M4.17513,14.06329A5.679,5.679,0,0,1,5.9,13.111l-.32246-1.00343a8.742,8.742,0,0,0-2.36563,1.09951c-.35779.53527,0,3.79554,0,3.79554h1.0168S3.8239,14.63264,4.17513,14.06329Z" style="fill:#8e7763"/><path d="M4.22868,17.0026H3.21188c-1.01785.13593-1.57882.64361-1.445,1.71664H5.30223C5.38809,17.65551,5.03751,17.07522,4.22868,17.0026Z" style="fill:#a92f31"/><path d="M4.94228,21.97046c.1518-.3281.29586-.66891.42858-1.02808H1.7669a6.64692,6.64692,0,0,0,.10532.82464,4.59486,4.59486,0,0,1,1.26337-.17644A4.293,4.293,0,0,1,4.94228,21.97046Z" style="fill:#a92f31"/><path d="M4.94228,21.97046a4.293,4.293,0,0,0-1.80669-.37988,4.59486,4.59486,0,0,0-1.26337.17644,6.38425,6.38425,0,0,0,1.28611,2.90326A9.856,9.856,0,0,0,4.94228,21.97046Z" style="fill:#ffd96c"/><path d="M5.30223,18.72009H1.7669c-2.35587,0-2.35587,2.22233,0,2.22233h3.604C7.19728,20.84136,7.12873,18.619,5.30223,18.72009Z" style="fill:#8e7763"/><path d="M8.9307,10.94958s-1.77668.57125-3.35319,1.158L5.9,13.111c1.44491-.62631,3.26163-1.27687,3.26163-1.27687C9.50189,11.74531,9.27106,10.86077,8.9307,10.94958Z" style="fill:#a92f31"/><ellipse cx="3.48331" cy="19.83081" rx="0.34357" ry="0.71652" style="fill:#373f3f"/><ellipse cx="1.42332" cy="19.82958" rx="0.34357" ry="0.71652" style="fill:#373f3f"/><ellipse cx="5.47086" cy="19.83081" rx="0.34357" ry="0.71652" style="fill:#373f3f"/><path d="M27.36753,30.60113c-.02858.10985-.99072.03146-1.29909,0l.15835-.60042C26.20673,30.08926,27.39093,30.51114,27.36753,30.60113Z" style="fill:#f0c13e"/><path d="M26.22679,30.00071l-.15835.60042H22.73327v-2.3263a6.84393,6.84393,0,0,1,3.45229-1.1935A5.59259,5.59259,0,0,1,26.22679,30.00071Z" style="fill:#776151"/><path d="M23.4708,24.09463a5.0871,5.0871,0,0,1,2.71476,2.9867,6.84393,6.84393,0,0,0-3.45229,1.1935L21.74459,26.256Z" style="fill:#8e252d"/><path d="M17.46438,10.44563,22.73327,26.256c-1.10613,1.39969-2.822,2.30422-5.51624,2.509l-.82038-16.65877C16.66222,11.68757,17.04518,11.08964,17.46438,10.44563Z" style="fill:#962931"/><path d="M20.16125,6.628a7.89524,7.89524,0,0,0-1.03718-4.02473,15.454,15.454,0,0,1,5.241,9.06154L19.79783,7.05875C19.93736,6.8808,20.06314,6.72888,20.16125,6.628Z" style="fill:#962931"/><path d="M24.70913,14.84047c.00118.08081.00734.16012.00734.24126a33.14823,33.14823,0,0,1-.66885,8.48668L17.81745,9.90512c.502-.76316,1.02931-1.545,1.47984-2.17373Z" style="fill:#962931"/><path d="M19.79783,7.05875l4.56727,4.60607a17.19088,17.19088,0,0,1,.344,3.17565L19.29729,7.73139C19.48,7.47644,19.64853,7.24921,19.79783,7.05875Z" style="fill:#f7c845"/><path d="M17.81745,9.90512l6.23017,13.66329A7.62162,7.62162,0,0,1,22.73327,26.256L17.46438,10.44563C17.58091,10.26664,17.69613,10.08961,17.81745,9.90512Z" style="fill:#f7c845"/><path d="M16.39665,12.10617,17.217,28.76494c-.39036.02969-.78492.05624-1.217.05624V12.73445S16.15422,12.48828,16.39665,12.10617Z" style="fill:#f7c845"/><path d="M19.12407,2.60328A7.89524,7.89524,0,0,1,20.16125,6.628C19.20593,7.60975,16,12.73445,16,12.73445V1.34228A5.41017,5.41017,0,0,1,19.12407,2.60328Z" style="fill:#7f6858"/><ellipse cx="17.99914" cy="7.16499" rx="1.18189" ry="0.81255" transform="translate(-1.01175 10.89219) rotate(-32.79871)" style="fill:#edeeee"/><ellipse cx="17.85592" cy="7.25729" rx="0.20314" ry="0.29547" transform="translate(-1.08459 10.82932) rotate(-32.79871)" style="fill:#2b3332"/><path d="M27.82487,14.06329A5.679,5.679,0,0,0,26.1,13.111l.32246-1.00343a8.742,8.742,0,0,1,2.36563,1.09951c.35779.53527,0,3.79554,0,3.79554h-1.0168S28.1761,14.63264,27.82487,14.06329Z" style="fill:#876f5d"/><path d="M27.77132,17.0026h1.0168c1.01785.13593,1.57882.64361,1.445,1.71664H26.69777C26.61191,17.65551,26.96249,17.07522,27.77132,17.0026Z" style="fill:#9c2c30"/><path d="M27.05772,21.97046c-.1518-.3281-.29586-.66891-.42858-1.02808h3.604a6.64692,6.64692,0,0,1-.10532.82464,4.59486,4.59486,0,0,0-1.26337-.17644A4.293,4.293,0,0,0,27.05772,21.97046Z" style="fill:#9c2c30"/><path d="M27.05772,21.97046a4.293,4.293,0,0,1,1.80669-.37988,4.59486,4.59486,0,0,1,1.26337.17644,6.38425,6.38425,0,0,1-1.28611,2.90326A9.856,9.856,0,0,1,27.05772,21.97046Z" style="fill:#ffd04d"/><path d="M26.69777,18.72009H30.2331c2.35587,0,2.35587,2.22233,0,2.22233h-3.604C24.80272,20.84136,24.87127,18.619,26.69777,18.72009Z" style="fill:#876f5d"/><path d="M23.0693,10.94958s1.77668.57125,3.35319,1.158L26.1,13.111c-1.44491-.62631-3.26163-1.27687-3.26163-1.27687C22.49811,11.74531,22.72894,10.86077,23.0693,10.94958Z" style="fill:#9c2c30"/><ellipse cx="28.51669" cy="19.83081" rx="0.34357" ry="0.71652" style="fill:#2b3332"/><ellipse cx="30.57668" cy="19.82958" rx="0.34357" ry="0.71652" style="fill:#2b3332"/><ellipse cx="26.52914" cy="19.83081" rx="0.34357" ry="0.71652" style="fill:#2b3332"/></svg>