<svg xmlns="http://www.w3.org/2000/svg" viewBox="0 0 32 32"><title>632-durant</title><path d="M7.07757,18.082c-1.11307,1.91514-2.24264,3.821-3.32641,5.75262A1.09563,1.09563,0,0,1,2.763,24.469c-.37634.02338-.748.11457-1.12418.15083a.39961.39961,0,0,0-.33263.21259C.93737,25.40635.558,25.9735.18127,26.54228c-.05064.07644-.07886.17426-.18108.206v-.11406c.20505-.63806.29308-1.3034.45416-1.9518.06828-.27483.12573-.55288.17435-.83185a.20419.20419,0,0,1,.22354-.19765c.50224-.02715,1.0037-.06925,1.50605-.09315a.30734.30734,0,0,0,.29489-.16065q2.419-4.017,4.84792-8.02794a.49655.49655,0,0,0,.03114-.07867l.1326-.18008.03493-.05344.06167-.17136.07994-.11279.07079-.12129.05236-.10993.01882-.057a.11218.11218,0,0,0,.06382-.11207c.03736-.00127.05015-.02564.05448-.058l.0521-.05816.05919-.057.00066.00108a.45358.45358,0,0,0,.053-.00242.47265.47265,0,0,1,.59685.05785,3.08875,3.08875,0,0,0,.544.34271.115.115,0,0,0,.11646.05849l-.00227-.00265.06029.07116.05931.04322.11349.04194.05368.01994c.01181.05089.05066.05952.09445.06045a5.12758,5.12758,0,0,0,.75429.45287l.01506.069a2.07421,2.07421,0,0,0,.22353,1.17624c-.05622.06975-.1179-.01111-.176.00638l-.11521-.0553c-.43608-.24-.867-.49009-1.30955-.71746-.53861-.27671-.71446-.3915-1.08187.259a.86622.86622,0,0,0-.676.57142c-.10631.37841-.19712.76116-.29467,1.142a.11023.11023,0,0,0-.05776.111l-.00369.00815Z" style="fill:#b9bfbe"/><path d="M15.97113,17.39522a.94153.94153,0,1,1,.029-1.8807v-1.713l-.0041.00083a1.01519,1.01519,0,0,1-1.05385-.93464,1.01076,1.01076,0,0,1,1.058-.945V9.7156a4.18559,4.18559,0,0,0-2.77761,1.036c-.06552.05375-.13995.09664-.21027.14482a2.87571,2.87571,0,0,0,.50026.78258c.16069.21138.0763.34924-.08871.476-.16877.1295-.33531.16793-.48507-.046-.14092-.20135-.29876-.39073-.44908-.5854a5.36039,5.36039,0,0,0-1.08741,2.45024c.169.01977.2989-.10166.46364-.11948a1.39917,1.39917,0,0,1,1.46887,1.12737,1.96152,1.96152,0,0,1-.16751,1.56851,1.60178,1.60178,0,0,1-.27836.39825,1.21324,1.21324,0,0,1-1.44249.18771.58489.58489,0,0,0-.16557-.03259,5.68864,5.68864,0,0,0-1.47563.92657c-.13674.14454-.27843.28435-.40919.43391a3.66924,3.66924,0,0,0-.94181,2.80337A2.785,2.785,0,0,0,9.738,23.26015a12.97178,12.97178,0,0,0,4.7581,1.99545c-.03551-.05821-.05306-.10778.04859-.09859a.04166.04166,0,0,1,.0408-.01031l.06893-.03732.09281-.02228.079-.03927a.07383.07383,0,0,1,.05375-.01253c.03927-.01615.07861-.03258.11787-.049a.04915.04915,0,0,1,.04387-.01059l.069-.03759.09274-.022.079-.03926a.07377.07377,0,0,1,.05375-.01254l.11788-.049a.04935.04935,0,0,1,.04393-.01086l.06893-.03732.09274-.022.079-.03955a.07226.07226,0,0,1,.05375-.01226l.11781-.04929c.33253-.13006.66547-.25956.997-.39213.03578-.0142.10979-.00111.09072-.07269-.00641-.02395-.05647-.04233-.08989-.05263-.33287-.1011-.66645-.20024-.99981-.29967l-.11384-.04316-.05619-.00947-.12414-.044-.10478-.01866-.07777-.0362-.09267-.01588-.12234-.044-.02492.00139-.02284-.01a.146.146,0,0,1-.13326-.04512c-.05591-.02646-.045-.049.00432-.06907l.07094-.05848-.004.0039.06245-.05682-.00153.0014.0605-.05264.00307-.00223.05013-.04512.098-.07575.073-.05876-.00452.00418.06064-.0557-.00021.00028.00244-.00223-.00223.002.06113-.05375.00119-.00112.05751-.04929.00752-.00585.04358-.04066.106-.08188a.59173.59173,0,0,1,.29319-.22837c.0039-.01225.00724-.02479.01-.03732l-.12094-.01532a6.10309,6.10309,0,0,1-3.37932-1.09589,1.76942,1.76942,0,0,1-.40382-2.56164c.09364-.12978.15269-.18687.29688-.03927a5.86015,5.86015,0,0,0,3.26624,1.64983c.07415.01337.14608.03955.219.0596l.03335-.007V17.38965C15.99,17.38993,15.98129,17.39522,15.97113,17.39522Z" style="fill:#edeeee"/><path d="M15.96751,5.24429a5.2127,5.2127,0,0,0-.87874.06182,6.98964,6.98964,0,0,0-2.45845.76811A4.30988,4.30988,0,0,0,11.0066,8.0446c.38955.62495.81691,1.22373,1.25338,1.8161a7.12125,7.12125,0,0,1,3.3741-2.06034,1.38016,1.38016,0,0,1,.366-.04456V5.246C15.98909,5.24624,15.97851,5.24429,15.96751,5.24429Z" style="fill:#e3e5e5"/><path d="M20.70444,7.526A3.585,3.585,0,0,0,19.049,5.9099,7.74679,7.74679,0,0,0,16.00009,5.246V7.7558a2.31114,2.31114,0,0,1,.824.17657A7.45852,7.45852,0,0,1,19.73387,9.8607q.65544-.93576,1.31083-1.87124C20.84,7.90257,20.80191,7.69007,20.70444,7.526Z" style="fill:#dadddc"/><path d="M22.18818,18.0302a5.66811,5.66811,0,0,0-1.475-.92645c.068-.21607.281-.32327.385-.5124.05618.06977.11781-.01094.17587.00637.03779.06478.0751.047.11222-.00068.40334-.05578.80845-.10128,1.20953-.17022a3.77782,3.77782,0,0,0,1.20216-.28711.6416.6416,0,0,1,.64538.491c.12482.38143.20728.77672.308,1.16605a.11306.11306,0,0,0,.05786.1116l.00351.00811c.00171.05937-.00925.12276.05182.1633l.015.11144.0308.07491q.58316,2.17013,1.16581,4.3404c.02921.10892.07361.15313.20116.11786.24644-.06814.49915-.11381.74957-.16733.20835-.04453.35255.03456.35125.25145a18.1596,18.1596,0,0,1-.168,1.81353c-.01547.14508-.08074.05549-.12225.01459-.20985-.2067-.42266-.41082-.62366-.62591-.12449-.13323-.19-.15845-.2555.04874-.1057.33424-.23438.66128-.35679.99009-.01766.04743-.00764.13075-.086.12271-.02589-.00265-.05048-.07-.06625-.11139a3.1959,3.1959,0,0,1-.26219-.98519c-.00989-.21535-.11324-.29946-.32355-.30384-.58174-.0121-.65379-.08971-.75974-.67372q-.42162-2.32415-.85721-4.64576a2.0388,2.0388,0,0,0-.096-.35612c-.11043-.28831-.25787-.35139-.55789-.259C22.62562,17.90429,22.40654,17.96609,22.18818,18.0302Z" style="fill:#b9bfbe"/><path d="M24.75133,17.7968c-.1007-.38933-.18316-.78462-.308-1.16605a.6416.6416,0,0,0-.64538-.491c-.27836-.52524-.33933-.72141-1.101-.31538-.43878.23392-.87193.4784-1.3076.71812l-.11534.05527c-.05808-.01731-.11971.0634-.17588-.00635a2.07334,2.07334,0,0,0,.22345-1.17625l.015-.069a5.06845,5.06845,0,0,0,.75417-.45295c.04364-.00116.08227-.01017.09466-.06036l.05363-.01978.11324-.04217.05974-.04411.06015-.07017-.00225.00255a.11567.11567,0,0,0,.11607-.05838,3.06642,3.06642,0,0,0,.54418-.34264.47267.47267,0,0,1,.59692-.058.47228.47228,0,0,0,.05319.0024l.00065-.001.05926.05689.05206.05819.05438.05793a.11377.11377,0,0,0,.064.11206l.01867.05706.05239.10982.07132.1214.0377.05407.05784.11053a1.08968,1.08968,0,0,0,.21211.35369c.83751,1.4749,1.73293,2.91522,2.61,4.36649.745,1.23283,1.49793,2.4609,2.23977,3.69563a.37634.37634,0,0,0,.35783.20707c.493.017.98492.06165,1.47746.0926.10214.00642.18346.02413.20874.14458q.29114,1.38693.58671,2.77292l-.00626.133c-.41555-.62194-.83429-1.24179-1.244-1.86757a.40809.40809,0,0,0-.33009-.21747c-.50753-.05607-1.011-.14765-1.518-.21026a.50732.50732,0,0,1-.41721-.2822q-1.74747-3.02711-3.50931-6.0459l-.1037-.16546-.0035-.00811A.1123.1123,0,0,0,24.75133,17.7968Z" style="fill:#abb2b1"/><path d="M19.7339,9.86079l1.31078-1.87126c.12227-.16881.23586-.34493.36929-.50445a.33907.33907,0,0,1,.49667-.08765Q23.98187,8.698,26.06155,9.9851a4.21321,4.21321,0,0,0-.47137.76847c-.05271.12673-.0274.28935-.16733.37724q-1.58958-1.07574-3.17915-2.15149c-.07855-.05315-.15439-.11083-.23583-.15907-.23008-.1363-.43221-.13177-.57713.12654-.40127.52978-.82271,1.04472-1.18312,1.60467a8.1917,8.1917,0,0,0-.74321.97218c-.15632.202-.31685.401-.46778.60694-.14943.20394-.31406.14211-.46549.02321-.145-.11383-.25979-.23676-.10447-.45039a3.09787,3.09787,0,0,0,.51515-.807A5.82609,5.82609,0,0,0,19.7339,9.86079Z" style="fill:#abb2b1"/><path d="M25.42285,11.13081c.13993-.08789.11462-.25051.16733-.37724a4.21321,4.21321,0,0,1,.47137-.76847,2.56978,2.56978,0,0,1,.9542-.54416c.54081-.11831.92276.16581.87807.718a2.585,2.585,0,0,1-1.27719,2.07655c-.65111.39916-1.15964.07673-1.17453-.69351C25.43946,11.40557,25.53077,11.26231,25.42285,11.13081Z" style="fill:#b9bfbe"/><path d="M20.24762,10.55146c.36041-.56.78185-1.07489,1.18312-1.60467.12969.4645.267.927.38759,1.39387a4.9664,4.9664,0,0,1-.03208,3.17824l-.4632,1.01333c-.07362-.057-.04823-.13828-.04863-.21114a8.12321,8.12321,0,0,0-.05815-1.24817A5.85753,5.85753,0,0,0,20.24762,10.55146Z" style="fill:#dadddc"/><path d="M23.03026,19.06232a5.515,5.515,0,0,0-.842-1.03212,5.67425,5.67425,0,0,0-1.475-.92657c-.20866-.00863-.35752.1607-.56173.18075a1.34321,1.34321,0,0,1-1.04633-.33587,1.59785,1.59785,0,0,1-.27829-.39825,2.04765,2.04765,0,0,1,.26924-2.323,1.2,1.2,0,0,1,1.329-.2824.86058.86058,0,0,0,.16669.029,5.36231,5.36231,0,0,0-1.08741-2.45024c-.1563.20191-.31679.401-.46774.60685-.14941.20386-.31407.142-.46551.02339-.145-.1139-.25977-.23672-.10444-.45061a3.09794,3.09794,0,0,0,.51509-.80681,6.02883,6.02883,0,0,0-1.31229-.84079,4.81537,4.81537,0,0,0-1.6694-.34v2.20711l.01212-.00223a1.01009,1.01009,0,0,1,1.03957.94913,1.01542,1.01542,0,0,1-1.05169.93186v1.713l.00669-.0014a.93969.93969,0,1,1-.00669,1.87653v3.19913a6.59807,6.59807,0,0,0,2.85079-1.126,3.84882,3.84882,0,0,0,.645-.55588c.12644-.14705.20247-.14148.31763.02172a1.79227,1.79227,0,0,1-.41114,2.56665,6.24191,6.24191,0,0,1-2.6809,1.031c-.15784.03008-.31819.04679-.47735.06962l-.10388.10333-.27913.23394.00028-.00307-.06169.06016.00355-.00362-.06106.05932.00286-.00279-.06058.05821.002-.002-.05974.05737.00091-.00111-.05855.05626-.00028.00027-.05751.05431-.00209.002-.05563.05264-.004.0039-.05361.05068-.00613.00557-.05124.049-.01.00919.07534.11307a.06772.06772,0,0,1,.05319.00975l.12275.04512a.05534.05534,0,0,1,.04776.00946.14056.14056,0,0,1,.12957.04568l.09991.01894.0784.03731c.47136.095.91856.27238,1.37906.40439.03335.00974.08209.029.08947.054.0211.071-.05215.0621-.08849.07575-.40494.15094-.81092.29883-1.21663.44755l-.07123.03759-.09232.02117-.07944.04038a.06426.06426,0,0,1-.0509.01253q-.06047.02507-.12086.04958l-.0188.01058-.02152-.00028-.07255.03816-.05792.01336-.11363.04846a.06126.06126,0,0,1-.04881.01142l-.06391.03593-.09616.02451-.076.039-.05521.01281c-.03878.01643-.07756.03258-.11634.04873a.05173.05173,0,0,1-.0454.01114l-.0674.03677-.09657.0259c-.05207.06405-.12838.02952-.19188.04734a3.539,3.539,0,0,0,1.02564.23478c.1036-.00112.20735-.00669.31074-.00279a3.693,3.693,0,0,0,1.573-.23032.19694.19694,0,0,0,.1749-.05291,4.24614,4.24614,0,0,0,.90519-.23506,11.43641,11.43641,0,0,0,3.72285-1.71722,2.92443,2.92443,0,0,0,1.24447-1.7707A3.535,3.535,0,0,0,23.03026,19.06232Z" style="fill:#e3e5e5"/><path d="M31.935,26.70537l.00626-.133c.049.054.0882.1152.02885.17951C31.95169,26.77187,31.93562,26.73109,31.935,26.70537Z" style="fill:#8d8080"/><path d="M30.84619,21.22184l.07055-.07.06177.11579-.01152.06058A.19005.19005,0,0,1,30.84619,21.22184Z" style="fill:#887878"/><path d="M30.23546,19.43681c-.05313-.13841-.11983-.15623-.25643-.13033-.41879.07965-.845.12309-1.26021.21639a.30942.30942,0,0,1-.39895-.188q-1.73555-3.00319-3.48647-5.99749a1.75889,1.75889,0,0,0-.22809-.32417.44318.44318,0,0,0-.51237-.14092,21.85269,21.85269,0,0,1-2.1301.59877.11161.11161,0,0,1-.11871.039l-.05786.00892L21.323,14.53216a.94351.94351,0,0,0-.06071.36093c.01323.0791-.00766.16766.06385.2306q.31351-.11947.627-.23923l.23394-.10193.05639.00251a.10468.10468,0,0,1,.11036-.06684l.11843-.06155-.00223.0025a.122.122,0,0,1,.11607-.05848,3.07025,3.07025,0,0,0,.54419-.34256.47269.47269,0,0,1,.59689-.0582c.01922-.03231.03683-.029.05319.0025l.00063-.00083a.12045.12045,0,0,1,.11036.05876l.05681.05709.04393.05682.06629.11279.009.05654c.06022.01364.05744.07463.085.11279l.07875.11836a.07016.07016,0,0,1,.01622.05069l.04832.059a1.07608,1.07608,0,0,1,.22517.34478c.02847.03788.05952.0738.08494.11363,1.02891,1.60416,2.08874,3.18882,3.07234,4.82194a.5832.5832,0,0,0,.75717.32473c.34429-.066.694-.11084,1.03218-.19968a.43525.43525,0,0,1,.45285.13284c.30182.27377.61645.53361.92587.7993l.07053-.07019C30.68858,20.58033,30.456,20.0108,30.23546,19.43681Z" style="fill:#9da5a4"/><path d="M30.967,21.3282l.01152-.06058c.0295.02213.04976.04707.02613.08544Z" style="fill:#bdb5b5"/><path d="M9.40749,14.60067a3.08875,3.08875,0,0,1-.544-.34271.47258.47258,0,0,0-.59682-.05783c-.01918-.03278-.03676-.02944-.05305.0024l-.00066-.00108a.12021.12021,0,0,0-.11055.05882l-.05664.05728-.044.05673-.06629.11277-.00879.05672c-.06134.0127-.0574.07544-.08651.11286l-.0772.11821-.06075.11228-.06769.10018a.53843.53843,0,0,0-.16026.24221c-1.05712,1.59663-2.09989,3.20252-3.099,4.83619-.27487.44942-.37335.50522-.89857.41014-.32632-.05907-.65586-.10684-.97625-.18954a.38949.38949,0,0,0-.4034.11626c-.33071.29888-.67114.587-1.00772.87939l-.06478-.00835c.24391-.6068.49335-1.21148.72779-1.82192.05755-.14984.12457-.17195.27445-.14286.42837.08313.86374.13123,1.29059.22064a.26291.26291,0,0,0,.33458-.1581Q5.38576,16.378,7.12892,13.39a1.52686,1.52686,0,0,1,.27516-.39585.45321.45321,0,0,1,.49426-.12315c.69311.26308,1.4196.409,2.13273.60164a.10725.10725,0,0,0,.11928.03853l.05734.00693.46323,1.01418a.92211.92211,0,0,1,.05968.36106c-.01066.07976.00808.16752-.06291.23083l-.62692-.23971L9.807,14.78252l-.05635.00266a.10361.10361,0,0,0-.11046-.06706l-.11847-.06161.00227.00265A.1218.1218,0,0,0,9.40749,14.60067Z" style="fill:#abb2b1"/><path d="M11.0066,8.04465c.38957.62486.81688,1.22366,1.25337,1.81617a5.823,5.823,0,0,0,.75227,1.03556,2.87411,2.87411,0,0,0,.50021.78258c.16071.2116.07632.34941-.08866.47595-.16882.12951-.33531.168-.48511-.04594-.14094-.20125-.29872-.3907-.44909-.58536a8.19936,8.19936,0,0,0-.74325-.97214c-.35945-.56017-.78266-1.07338-1.18153-1.60452-.21071-.26349-.34643-.28422-.64893-.07882Q8.39767,9.899,6.88293,10.935c-.10136.069-.2077.13068-.31173.19575a4.96131,4.96131,0,0,0-.63891-1.14549C7.31575,9.12407,8.701,8.26578,10.08086,7.39888a.35122.35122,0,0,1,.5169.1046C10.74211,7.67716,10.871,7.86372,11.0066,8.04465Z" style="fill:#b9bfbe"/><path d="M5.93229,9.98521A4.96131,4.96131,0,0,1,6.5712,11.1307a.24445.24445,0,0,0-.04314.21267,1.156,1.156,0,0,1,.01537.28341c-.0564.71889-.51995.99188-1.14023.62216a2.58392,2.58392,0,0,1-1.30534-2.11839.64271.64271,0,0,1,.8525-.69753A2.52834,2.52834,0,0,1,5.93229,9.98521Z" style="fill:#c8cccb"/><path d="M10.56481,8.947c.39887.53114.82208,1.04435,1.18154,1.60452a.918.918,0,0,0-.07068.087,6.19922,6.19922,0,0,0-.95965,3.54025c.00273.117.05283.2468-.04509.35357l-.46324-1.01415A5.85519,5.85519,0,0,1,10.398,9.547,2.39074,2.39074,0,0,0,10.56481,8.947Z" style="fill:#e3e5e5"/><path d="M1.02454,21.2736l.06478.00835c-.01353.04431-.04922.08409-.08769.06476C.96186,21.32672.9916,21.29136,1.02454,21.2736Z" style="fill:#b5abab"/><path d="M11.28077,17.10373a5.68468,5.68468,0,0,0-1.47565.92665c-.20913-.06106-.4193-.11881-.62715-.18393-.34979-.10957-.53251-.02127-.61949.356-.1298.563-.2397,1.13084-.34456,1.69912-.20121,1.09046-.39106,2.183-.58942,3.274-.0939.51645-.19462.6035-.70792.59663-.23238-.00311-.35127.07456-.36237.32307a3.07574,3.07574,0,0,1-.26735.98239c-.01495.03791-.00526.10922-.075.09755-.05588-.00936-.05044-.07235-.06582-.11423-.12414-.33783-.25689-.673-.36676-1.0154-.062-.19322-.1228-.16758-.23781-.04623-.20235.21349-.41572.4165-.622.62628-.07924.08056-.12772.11624-.14281-.04173-.05321-.557-.12516-1.11254-.16626-1.67037-.0233-.31625.10745-.40543.41858-.339.22242.04752.4484.08213.66662.14417.13043.03709.18963.01558.225-.117q.57887-2.16863,1.16326-4.33579l.03054-.07491.01492-.11129c.06176-.04027.0499-.1039.05177-.16318l.00369-.00815c.04818-.022.05527-.06529.05776-.111.09755-.38087.18836-.76362.29467-1.142a.86622.86622,0,0,1,.676-.57142c-.01261.16623.13665.14006.21709.15874a18.42523,18.42523,0,0,0,2.17745.3543c.03706.04666.07428.06682.11207.00073.05812-.01749.1198.06337.176-.00636C10.99978,16.78046,11.21268,16.88768,11.28077,17.10373Z" style="fill:#c8cccb"/><path d="M7.11437,18.19108l-.03054.07491Z" style="fill:#d5cfcf"/><path d="M11.28077,17.10373c-.06809-.216-.281-.32327-.385-.51233a2.07478,2.07478,0,0,1-.22356-1.17628l.843.62341a.37745.37745,0,0,0,.179.1586l.05367.04292.05291.03531a.46046.46046,0,0,0,.2164.16737l.13033.09546a.87766.87766,0,0,0,.39219.22855.57426.57426,0,0,0,.34906.1818,1.21327,1.21327,0,0,1-1.44241.18768A.581.581,0,0,0,11.28077,17.10373Z" style="fill:#f7f7f7"/><path d="M11.51521,16.03854l-.843-.62342-.015-.06906.01047-.22189c.071-.06331.05225-.15107.06284-.23084a2.48757,2.48757,0,0,1,.62178-.85313c.12974-.03152.15757.08025.20733.15323.19729.28932.39054.5814.58529.87245A.91692.91692,0,0,0,11.51521,16.03854Z" style="fill:#dd564c"/><path d="M16.8241,7.93237a2.31114,2.31114,0,0,0-.824-.17657V9.7156a4.81537,4.81537,0,0,1,1.6694.34,6.031,6.031,0,0,1,1.31236.84079,5.8155,5.8155,0,0,0,.752-1.03574A7.45852,7.45852,0,0,0,16.8241,7.93237Z" style="fill:#9da5a4"/><path d="M15.63408,7.80036A7.12125,7.12125,0,0,0,12.26,9.8607a5.83022,5.83022,0,0,0,.75223,1.03574c.07032-.04818.14475-.09107.21027-.14482a4.18559,4.18559,0,0,1,2.77761-1.036V7.7558A1.38016,1.38016,0,0,0,15.63408,7.80036Z" style="fill:#abb2b1"/><path d="M11.35231,14.0402a2.48757,2.48757,0,0,0-.62178.85313.92076.92076,0,0,0-.05961-.36105c.09793-.1068.04783-.2366.0451-.3536a6.19922,6.19922,0,0,1,.95965-3.54025.918.918,0,0,1,.07068-.087,8.20035,8.20035,0,0,1,.74324.97214,5.3616,5.3616,0,0,0-1.08737,2.45016Z" style="fill:#abb2b1"/><path d="M20.24762,10.55146a5.85753,5.85753,0,0,1,.96865,2.52146,8.12321,8.12321,0,0,1,.05815,1.24817c.0004.07286-.025.15417.04863.21114a.94026.94026,0,0,0-.06059.36093,2.461,2.461,0,0,0-.62116-.85308l-.04952-.0663a5.36234,5.36234,0,0,0-1.08737-2.45016A8.19311,8.19311,0,0,1,20.24762,10.55146Z" style="fill:#9da5a4"/><path d="M14.94214,12.86766a1.01519,1.01519,0,0,0,1.05385.93464l.0041-.00083V11.92271A1.01076,1.01076,0,0,0,14.94214,12.86766Z" style="fill:#f7f7f7"/><path d="M17.05178,12.86961a1.01009,1.01009,0,0,0-1.03957-.94913l-.01212.00223v1.87876A1.01542,1.01542,0,0,0,17.05178,12.86961Z" style="fill:#edeeee"/><path d="M14.99924,16.46671a1.01318,1.01318,0,0,0,.97189.92851c.01016,0,.01887-.00529.029-.00557V15.51452A1.00964,1.00964,0,0,0,14.99924,16.46671Z" style="fill:#f7f7f7"/><path d="M16.99475,16.45779a1.01152,1.01152,0,0,0-.988-.94467l-.00669.0014v1.87513A1.00561,1.00561,0,0,0,16.99475,16.45779Z" style="fill:#edeeee"/><path d="M11.35231,14.0402l.04991-.06643c.169.02.29886-.10139.46364-.11935a1.39914,1.39914,0,0,1,1.46884,1.12751,1.9611,1.9611,0,0,1-.16753,1.56844l-.12133-.16559a.49914.49914,0,0,0-.20644-.29663l-.53343-.804a.30236.30236,0,0,0-.161-.2183c-.19475-.29105-.388-.58313-.58529-.87245C11.50988,14.12045,11.482,14.00868,11.35231,14.0402Z" style="fill:#f7f7f7"/><path d="M20.59178,13.97378l.04955.0663c-.12967-.03121-.15736.08061-.20711.15355-.19726.28924-.39047.58126-.58517.87223a.30244.30244,0,0,0-.16109.21831l-.53309.80458a.49242.49242,0,0,0-.20678.29631l-.12125.16525a2.04785,2.04785,0,0,1,.26928-2.323,1.19979,1.19979,0,0,1,1.329-.28228A.8697.8697,0,0,0,20.59178,13.97378Z" style="fill:#edeeee"/><path d="M21.32165,15.41512a2.07334,2.07334,0,0,1-.22345,1.17625c-.104.18911-.31695.29631-.385.51238-.20865-.00875-.35754.16052-.56173.18057a1.34236,1.34236,0,0,1-1.0463-.3358.57369.57369,0,0,0,.349-.18174.87781.87781,0,0,0,.3923-.22861c.05612-.01832.10616-.04321.11814-.10926l-.00256.00125c.10978-.00243.1679-.082.23083-.15447l.053-.03554.05381-.043a.37769.37769,0,0,0,.17905-.15862Z" style="fill:#edeeee"/><path d="M19.45421,16.76675a.57389.57389,0,0,1-.349.18177,1.59706,1.59706,0,0,1-.27833-.39822l.12127-.16536A1.10511,1.10511,0,0,0,19.45421,16.76675Z" style="fill:#d64f45"/><path d="M13.04584,16.38478l.12133.16559a1.60057,1.60057,0,0,1-.27837.39815.57394.57394,0,0,1-.349-.18175A1.10455,1.10455,0,0,0,13.04584,16.38478Z" style="fill:#dd564c"/><polygon points="15.509 23.097 15.508 23.097 15.509 23.097 15.509 23.097 15.511 23.095 15.509 23.097" style="fill:#dadddc"/><path d="M17.31461,24.12322c-.4605-.132-.9077-.30942-1.37906-.40439l-.07847-.03731-.09984-.01894a.126.126,0,0,1-.12957-.04568.05534.05534,0,0,0-.04776-.00946.127.127,0,0,1-.12275-.04512.06772.06772,0,0,0-.05319-.00975l-.07527-.11307.01-.00919.05124-.049.00613-.00557.05361-.05068.004-.0039.05563-.05264.00209-.002.05751-.05431.00028-.00027.05848-.05626-.00084.00111.05974-.05737-.002.002.06058-.05821-.00286.00279.061-.05932-.00348.00362.06-.05848.00146.00139.27913-.23394.10388-.10333-.1554.00251c-.00279.01253-.00613.02507-.01.03732a.59173.59173,0,0,0-.29319.22837l-.106.08188-.04358.04066-.00752.00585-.05751.04929-.00119.00112-.061.05375-.06078.0557.00452-.00418-.073.05876-.0981.07575-.0502.04512-.003.00223-.06043.05264.00146-.0014-.06245.05682.004-.0039-.07094.05848c-.04937.02006-.06023.04261-.00432.06907a.146.146,0,0,0,.13326.04512l.02284.01.02492-.00139a.12862.12862,0,0,1,.12234.044l.09267.01588.07777.0362.10478.01866a.12908.12908,0,0,1,.12414.044l.05619.00947.11384.04316c.33336.09943.66694.19857.99981.29967.03342.0103.08348.02868.08989.05263.01907.07158-.05494.05849-.09072.07269-.33156.13257-.6645.26207-.997.39213a.12368.12368,0,0,1-.11781.04929.07226.07226,0,0,0-.05375.01226l-.07888.03955-.09288.022-.06893.03732a.04935.04935,0,0,0-.04393.01086.12426.12426,0,0,1-.11788.049.07377.07377,0,0,0-.05375.01254l-.07888.03926-.09288.022-.06893.03759a.04924.04924,0,0,0-.04394.01059.12424.12424,0,0,1-.11787.049.07383.07383,0,0,0-.05375.01253l-.07889.03927-.09288.02228-.06893.03732a.04166.04166,0,0,0-.0408.01031c-.10165-.00919-.0841.04038-.04859.09859a.09436.09436,0,0,1,.046.01c.0635-.01782.13981.01671.19188-.04734l.09657-.0259.06733-.03677a.05182.05182,0,0,0,.04547-.01114.1246.1246,0,0,1,.11627-.04873l.05528-.01281.076-.039.09623-.02451.06384-.03593a.06136.06136,0,0,0,.04888-.01142l.11363-.04846.05792-.01336.07248-.03844.02159.00056.0188-.01058a.12444.12444,0,0,1,.12086-.04958.06426.06426,0,0,0,.0509-.01253l.0793-.04038.09246-.02117.07116-.03759c.40578-.14872.81176-.29661,1.2167-.44755.03634-.01365.10959-.00474.08849-.07575C17.3967,24.15218,17.348,24.133,17.31461,24.12322Z" style="fill:#dadddc"/><path d="M21.32165,15.41512l-.84289.6234a.917.917,0,0,0-.62972-.97265c.19471-.291.38792-.583.58518-.87224.04975-.07294.07744-.18476.20711-.15355a2.4613,2.4613,0,0,1,.62113.85308c.01312.07912-.00778.16768.0638.23059l.01044.22236Z" style="fill:#d64f45"/><path d="M12.83947,16.08823a.56993.56993,0,0,1-.6331.39129.23458.23458,0,0,0-.16724-.06155q-.11216-.1132-.22433-.2267-.22893-.75028.49121-.90707a.3025.3025,0,0,0-.16105-.21835.917.917,0,0,0-.62975.97252.37811.37811,0,0,0,.179.15875l.05368.04289.05292.03537a.4595.4595,0,0,0,.21639.16738h.00007q.06517.04761.13027.09552a.877.877,0,0,0,.39227.22837,1.10464,1.10464,0,0,0,.506-.38182A.49949.49949,0,0,0,12.83947,16.08823Z" style="fill:#211915"/><path d="M12.20634,16.47963a.23425.23425,0,0,0-.16724-.06161l-.22435-.22679q-.22888-.75011.49123-.907l.53342.804A.56985.56985,0,0,1,12.20634,16.47963Z" style="fill:#e9746a"/><path d="M19.15487,16.08875l.53308-.80458q.72039.15764.49145.90691a.79581.79581,0,0,0-.21738.23908l.00256-.00125a.19243.19243,0,0,0-.17659.05031A.569.569,0,0,1,19.15487,16.08875Z" style="fill:#e7685f"/><path d="M19.849,15.06585a.30235.30235,0,0,0-.161.21835q.72031.15748.49142.90679a.802.802,0,0,0-.21626.23784.19182.19182,0,0,0-.17517.05041.56918.56918,0,0,1-.6331-.39046.49218.49218,0,0,0-.20679.29605,1.10594,1.10594,0,0,0,.506.3821.87868.87868,0,0,0,.39234-.22893c.05591-.0181.10548-.04317.11767-.10861.10826-.00362.16633-.08188.22871-.15373l.05306-.03565.05382-.04289a.3772.3772,0,0,0,.17907-.15875A.91683.91683,0,0,0,19.849,15.06585Z" style="fill:#211915"/></svg>