<svg xmlns="http://www.w3.org/2000/svg" viewBox="0 0 32 32"><title>632-durant-shiny</title><path d="M7.07748,18.082c-1.11307,1.91514-2.24265,3.821-3.32641,5.75262a1.09564,1.09564,0,0,1-.98819.63445c-.37633.02338-.748.11457-1.12418.15083a.3996.3996,0,0,0-.33262.21259c-.3688.57391-.74813,1.14106-1.1249,1.70984-.05064.07644-.07886.17425-.18109.206V26.6343c.20505-.63806.29308-1.3034.45417-1.9518.06828-.27483.12573-.55288.17434-.83186A.2042.2042,0,0,1,.85215,23.653c.50223-.02715,1.0037-.06925,1.50605-.09315a.30732.30732,0,0,0,.29488-.16065q2.419-4.017,4.84793-8.02795a.496.496,0,0,0,.03113-.07866l.1326-.18008.03493-.05344.06167-.17136.08-.11279.07078-.12129.05237-.10993.01882-.057a.11222.11222,0,0,0,.06382-.11207c.03736-.00127.05015-.02564.05447-.058l.05211-.05816.05919-.057.00065.00108a.45375.45375,0,0,0,.053-.00242.47265.47265,0,0,1,.59685.05785,3.0883,3.0883,0,0,0,.544.34271.115.115,0,0,0,.11647.05849l-.00227-.00265.06029.07116.05931.04322.11349.04194.05368.01994c.0118.05089.05066.05952.09444.06045a5.12758,5.12758,0,0,0,.75429.45287l.01507.069a2.07421,2.07421,0,0,0,.22353,1.17624c-.05622.06975-.1179-.01111-.176.00638l-.11522-.0553c-.43607-.24-.867-.49009-1.30954-.71746-.53861-.27671-.71446-.3915-1.08187.259a.86619.86619,0,0,0-.676.57142c-.10631.37841-.19712.76116-.29468,1.142a.11026.11026,0,0,0-.05776.111L7.181,17.9167Z" style="fill:#724d31"/><path d="M15.971,17.39531A.94153.94153,0,1,1,16,15.51461v-1.713l-.00411.00083a1.01519,1.01519,0,0,1-1.05384-.93464A1.01075,1.01075,0,0,1,16,11.9228V9.71569a4.18561,4.18561,0,0,0-2.77762,1.036c-.06551.05375-.13994.09664-.21026.14482a2.87583,2.87583,0,0,0,.50025.78258c.1607.21138.07631.34924-.0887.476-.16877.1295-.33531.16793-.48508-.046-.14092-.20135-.29876-.39073-.44908-.5854a5.36037,5.36037,0,0,0-1.0874,2.45024c.169.01977.2989-.10166.46363-.11948a1.39918,1.39918,0,0,1,1.46888,1.12737,1.96149,1.96149,0,0,1-.16752,1.56851,1.60126,1.60126,0,0,1-.27836.39825,1.21324,1.21324,0,0,1-1.44249.18771.58475.58475,0,0,0-.16556-.03259,5.68864,5.68864,0,0,0-1.47563.92657c-.13675.14454-.27843.28435-.40919.4339a3.66928,3.66928,0,0,0-.94182,2.80338,2.78495,2.78495,0,0,0,1.28382,1.99267A12.97167,12.97167,0,0,0,14.496,25.25569c-.03551-.05821-.05305-.10778.0486-.09859a.04163.04163,0,0,1,.0408-.01031l.06893-.03732.09281-.02228.079-.03927a.07387.07387,0,0,1,.05376-.01253c.03926-.01615.0786-.03258.11787-.049a.04913.04913,0,0,1,.04386-.01059l.069-.03759.09274-.022.079-.03926a.07376.07376,0,0,1,.05375-.01254l.11787-.049a.04936.04936,0,0,1,.04394-.01086l.06892-.03732.09274-.022.079-.03955a.07225.07225,0,0,1,.05375-.01226l.1178-.04929c.33253-.13006.66548-.25956.997-.39213.03579-.0142.1098-.00111.09072-.07269-.0064-.02395-.05646-.04233-.08988-.05263-.33288-.1011-.66645-.20024-.99982-.29967l-.11383-.04316-.05619-.00947-.12414-.044-.10479-.01866-.07777-.0362-.09267-.01588-.12233-.044-.02492.00139-.02284-.01a.14593.14593,0,0,1-.13326-.04512c-.05591-.02646-.045-.049.00431-.06907l.07095-.05848-.004.0039.06246-.05682-.00154.0014.06051-.05264.00306-.00223.05013-.04512.098-.07575.073-.05876-.00453.00418.06065-.0557-.00021.00028.00244-.00223-.00223.002.06113-.05375.00118-.00112.05751-.04929.00752-.00585.04359-.04066.106-.08188a.59173.59173,0,0,1,.29319-.22837c.0039-.01225.00724-.02479.01-.03732l-.12094-.01532a6.10314,6.10314,0,0,1-3.37931-1.09589,1.76942,1.76942,0,0,1-.40382-2.56164c.09364-.12978.15268-.18687.29688-.03927a5.86008,5.86008,0,0,0,3.26624,1.64983c.07415.01337.14607.03955.219.0596L16,20.58887V17.38974C15.9899,17.39,15.9812,17.39531,15.971,17.39531Z" style="fill:#f5deb9"/><path d="M15.96742,5.24438a5.2127,5.2127,0,0,0-.87874.06182,6.98963,6.98963,0,0,0-2.45846.76811A4.30994,4.30994,0,0,0,11.0065,8.04469c.38955.625.81691,1.22373,1.25339,1.8161A7.12117,7.12117,0,0,1,15.634,7.80045,1.37982,1.37982,0,0,1,16,7.75589V5.24605C15.989,5.24633,15.97842,5.24438,15.96742,5.24438Z" style="fill:#efd4a7"/><path d="M20.70435,7.52612A3.585,3.585,0,0,0,19.04887,5.91,7.74671,7.74671,0,0,0,16,5.24605V7.75589a2.31114,2.31114,0,0,1,.824.17657,7.45841,7.45841,0,0,1,2.90976,1.92833q.65545-.93576,1.31083-1.87124C20.8399,7.90266,20.80182,7.69016,20.70435,7.52612Z" style="fill:#eacea1"/><path d="M22.18809,18.03029a5.66827,5.66827,0,0,0-1.475-.92645c.068-.21607.281-.32327.385-.5124.05618.06977.11781-.01094.17587.00637.03779.06478.07509.047.11222-.00068.40334-.05578.80845-.10128,1.20953-.17022a3.77789,3.77789,0,0,0,1.20216-.28711.64161.64161,0,0,1,.64538.491c.12482.38143.20728.77672.308,1.16605a.11307.11307,0,0,0,.05787.1116l.0035.00811c.00172.05937-.00924.12276.05183.1633l.015.11144.0308.07491q.58316,2.17013,1.1658,4.3404c.02922.10892.07362.15313.20117.11786.24644-.06814.49915-.11381.74957-.16733.20835-.04453.35254.03456.35124.25145a18.15958,18.15958,0,0,1-.168,1.81353c-.01547.14508-.08074.05549-.12226.01459-.20984-.2067-.42265-.41082-.62365-.62591-.12449-.13323-.19-.15845-.2555.04874-.1057.33424-.23439.66128-.35679.99009-.01766.04743-.00764.13075-.086.12271-.0259-.00265-.05049-.07-.06625-.11139a3.19591,3.19591,0,0,1-.2622-.98519c-.00988-.21535-.11324-.29946-.32354-.30384-.58175-.0121-.65379-.08971-.75974-.67372q-.42163-2.32415-.85721-4.64576a2.04056,2.04056,0,0,0-.096-.35612c-.11044-.28831-.25788-.35139-.55789-.259C22.62552,17.90438,22.40645,17.96618,22.18809,18.03029Z" style="fill:#724d31"/><path d="M24.75123,17.79689c-.10069-.38933-.18315-.78462-.308-1.16605a.64161.64161,0,0,0-.64538-.491c-.27836-.52524-.33934-.72141-1.101-.31538-.43877.23392-.87192.4784-1.3076.71812l-.11534.05527c-.05807-.01731-.1197.0634-.17587-.00635a2.07325,2.07325,0,0,0,.22344-1.17625l.01505-.069a5.06794,5.06794,0,0,0,.75417-.45295c.04365-.00116.08228-.01017.09467-.06036l.05363-.01978.11324-.04217.05973-.04412.06016-.07016-.00225.00255a.11568.11568,0,0,0,.11607-.05838,3.06735,3.06735,0,0,0,.54418-.34264.47267.47267,0,0,1,.59692-.058.47221.47221,0,0,0,.05318.0024l.00066-.001.05926.05689.05205.05819.05439.05793a.11376.11376,0,0,0,.064.11206l.01867.05706.05239.10982.07133.1214.0377.05407.05784.11053a1.08982,1.08982,0,0,0,.2121.35369c.83752,1.4749,1.73294,2.91522,2.61,4.36649.745,1.23283,1.49793,2.4609,2.23977,3.69563a.37634.37634,0,0,0,.35783.20707c.493.017.98492.06165,1.47745.0926.10215.00642.18346.02413.20875.14458q.29112,1.38693.5867,2.77291l-.00626.133c-.41554-.62194-.83428-1.24179-1.244-1.86757a.40809.40809,0,0,0-.33009-.21747c-.50753-.05607-1.011-.14765-1.518-.21026a.50733.50733,0,0,1-.41721-.2822q-1.74746-3.02711-3.50931-6.0459l-.1037-.16546-.0035-.00811A.11227.11227,0,0,0,24.75123,17.79689Z" style="fill:#604631"/><path d="M19.7338,9.86088l1.31079-1.87126c.12227-.16881.23585-.34493.36929-.50445a.33906.33906,0,0,1,.49666-.08765q2.07123,1.30056,4.15091,2.58767a4.21343,4.21343,0,0,0-.47137.76847c-.0527.12673-.0274.28935-.16732.37724q-1.58958-1.07574-3.17916-2.15149c-.07854-.05315-.15438-.11083-.23582-.15907-.23009-.1363-.43222-.13177-.57713.12654-.40128.52978-.82271,1.04472-1.18312,1.60467a8.19072,8.19072,0,0,0-.74322.97218c-.15632.202-.31684.401-.46777.60694-.14944.20394-.31406.14211-.46549.02321-.145-.11383-.2598-.23676-.10447-.45039a3.09787,3.09787,0,0,0,.51515-.807A5.826,5.826,0,0,0,19.7338,9.86088Z" style="fill:#604631"/><path d="M25.42276,11.1309c.13992-.08789.11462-.25051.16732-.37724a4.21343,4.21343,0,0,1,.47137-.76847,2.5699,2.5699,0,0,1,.95421-.54416c.54081-.11831.92275.16581.87806.718a2.585,2.585,0,0,1-1.27719,2.07655c-.65111.39916-1.15963.07673-1.17453-.69351C25.43936,11.40566,25.53068,11.2624,25.42276,11.1309Z" style="fill:#724d31"/><path d="M20.24753,10.55155c.36041-.56.78184-1.07489,1.18312-1.60467.12969.4645.267.927.38759,1.39387a4.96644,4.96644,0,0,1-.03208,3.17823l-.4632,1.01334c-.07363-.057-.04824-.13828-.04864-.21114a8.122,8.122,0,0,0-.05815-1.24817A5.85739,5.85739,0,0,0,20.24753,10.55155Z" style="fill:#eacea1"/><path d="M23.03016,19.06241a5.515,5.515,0,0,0-.842-1.03212,5.67425,5.67425,0,0,0-1.475-.92657c-.20867-.00863-.35753.1607-.56174.18075a1.34319,1.34319,0,0,1-1.04632-.33587,1.59785,1.59785,0,0,1-.27829-.39825,2.04765,2.04765,0,0,1,.26924-2.323,1.2,1.2,0,0,1,1.329-.2824.86048.86048,0,0,0,.16668.029,5.3623,5.3623,0,0,0-1.0874-2.45024c-.15631.20191-.31679.401-.46774.60685-.14941.20386-.31408.142-.46551.02339-.145-.1139-.25977-.23672-.10444-.45061a3.0982,3.0982,0,0,0,.51509-.80681,6.02907,6.02907,0,0,0-1.31229-.84079A4.81542,4.81542,0,0,0,16,9.71569V11.9228l.01211-.00223a1.01008,1.01008,0,0,1,1.03957.94913A1.01542,1.01542,0,0,1,16,13.80156v1.713l.00668-.0014A.93969.93969,0,1,1,16,17.38974v3.19913a6.59812,6.59812,0,0,0,2.85079-1.126,3.84882,3.84882,0,0,0,.645-.55588c.12643-.14705.20247-.14148.31762.02172a1.79226,1.79226,0,0,1-.41113,2.56665,6.242,6.242,0,0,1-2.68091,1.031c-.15784.03008-.31818.04679-.47734.06962l-.10389.10333-.27912.23394.00028-.00307-.06169.06016.00355-.00362-.06106.05932.00285-.00279-.06057.05821.002-.00195-.05974.05737.00091-.00111-.05856.05626-.00028.00027-.05751.05431-.00209.002-.05563.05264-.004.0039-.05362.05068-.00612.00557-.05125.049-.01.00919.07533.11307a.0677.0677,0,0,1,.0532.00975l.12274.04511a.0554.0554,0,0,1,.04777.00947.14057.14057,0,0,1,.12957.04568l.09991.01894.0784.03731c.47136.095.91856.27238,1.37906.40439.03335.00974.08209.029.08947.054.02109.071-.05215.06211-.0885.07576-.40494.15094-.81092.29883-1.21662.44755l-.07123.03759-.09232.02117-.07944.04038a.06426.06426,0,0,1-.0509.01253q-.06047.02507-.12087.04958l-.0188.01058-.02151-.00028-.07255.03816-.05793.01336-.11363.04846a.06124.06124,0,0,1-.0488.01142l-.06392.03593-.09615.02451-.076.039-.05521.01281c-.03878.01643-.07757.03258-.11635.04873a.0517.0517,0,0,1-.04539.01114l-.0674.03677-.09657.0259c-.05208.064-.12839.02952-.19188.04734a3.539,3.539,0,0,0,1.02564.23478c.1036-.00112.20734-.00669.31074-.00279a3.69309,3.69309,0,0,0,1.573-.23032.19694.19694,0,0,0,.1749-.05291,4.24614,4.24614,0,0,0,.90519-.23506,11.43626,11.43626,0,0,0,3.72284-1.71722,2.92441,2.92441,0,0,0,1.24448-1.7707A3.535,3.535,0,0,0,23.03016,19.06241Z" style="fill:#efd4a7"/><path d="M31.93488,26.70546l.00626-.133c.049.05405.0882.11521.02886.17952C31.95159,26.772,31.93552,26.73118,31.93488,26.70546Z" style="fill:#8d8080"/><path d="M30.8461,21.22193l.07055-.07.06176.11579-.01151.06058A.19005.19005,0,0,1,30.8461,21.22193Z" style="fill:#887878"/><path d="M30.23536,19.4369c-.05312-.13841-.11982-.15623-.25642-.13033-.4188.07965-.845.12309-1.26022.21639a.30943.30943,0,0,1-.399-.188q-1.73553-3.00319-3.48646-5.99749a1.75937,1.75937,0,0,0-.22809-.32417.44318.44318,0,0,0-.51237-.14092,21.85288,21.85288,0,0,1-2.13011.59877.11159.11159,0,0,1-.11871.039l-.05786.00892L21.323,14.53225a.94348.94348,0,0,0-.06071.36093c.01323.0791-.00766.16766.06384.2306q.31353-.11948.627-.23923l.23393-.10193.0564.00251a.10468.10468,0,0,1,.11036-.06684l.11843-.06155-.00223.0025a.122.122,0,0,1,.11607-.05848,3.07017,3.07017,0,0,0,.54418-.34256.4727.4727,0,0,1,.5969-.0582c.01921-.03231.03683-.029.05319.0025l.00063-.00083a.12043.12043,0,0,1,.11035.05876l.05682.05709.04393.05682.06628.11279.009.05654c.06023.01364.05745.07463.085.11279l.07874.11836a.07012.07012,0,0,1,.01623.05069l.04831.059a1.07575,1.07575,0,0,1,.22517.34478c.02848.03788.05953.0738.08494.11363,1.02892,1.60416,2.08875,3.18882,3.07234,4.82194a.58321.58321,0,0,0,.75717.32473c.3443-.066.694-.11084,1.03219-.19968a.43523.43523,0,0,1,.45284.13284c.30183.27377.61646.53361.92587.7993l.07053-.07019C30.68848,20.58042,30.45594,20.01089,30.23536,19.4369Z" style="fill:#4f4032"/><path d="M30.9669,21.32829l.01151-.06058c.0295.02213.04976.04707.02614.08544Z" style="fill:#bdb5b5"/><path d="M9.40739,14.60076a3.0883,3.0883,0,0,1-.544-.34271.4726.4726,0,0,0-.59683-.05783c-.01917-.03278-.03675-.02944-.05305.0024l-.00065-.00108a.1202.1202,0,0,0-.11055.05882l-.05664.05728-.044.05672-.06629.11278-.00879.05672c-.06134.0127-.05741.07544-.08651.11286l-.0772.11821-.06075.11228-.06769.10018a.53845.53845,0,0,0-.16027.24221c-1.05711,1.59663-2.09989,3.20252-3.099,4.83619-.27486.44942-.37335.50522-.89856.41014-.32632-.05907-.65587-.10684-.97626-.18954a.38948.38948,0,0,0-.40339.11626c-.33071.29888-.67114.587-1.00773.87939l-.06477-.00835c.24391-.6068.49335-1.21148.72779-1.82192.05755-.14984.12457-.17195.27445-.14286.42836.08313.86373.13123,1.29058.22064a.26293.26293,0,0,0,.33459-.1581q1.73381-2.9934,3.477-5.98136a1.52662,1.52662,0,0,1,.27516-.39585.4532.4532,0,0,1,.49425-.12315c.69312.26307,1.4196.409,2.13274.60163a.10723.10723,0,0,0,.11927.03854l.05735.00693.46323,1.01418a.9223.9223,0,0,1,.05968.36106c-.01066.07976.00807.16752-.06291.23083l-.62692-.23971-.23381-.10194-.05635.00266a.10361.10361,0,0,0-.11046-.06706l-.11847-.06161.00227.00265A.12181.12181,0,0,0,9.40739,14.60076Z" style="fill:#604631"/><path d="M11.00651,8.04474c.38957.62486.81688,1.22366,1.25337,1.81617a5.823,5.823,0,0,0,.75227,1.03556,2.87364,2.87364,0,0,0,.50021.78258c.16071.2116.07631.34941-.08866.47595-.16882.12951-.33532.168-.48511-.04594-.14094-.20125-.29872-.3907-.4491-.58536a8.19822,8.19822,0,0,0-.74324-.97214c-.35945-.56017-.78266-1.07338-1.18153-1.60452-.21071-.26349-.34643-.28422-.64893-.07882Q8.39758,9.89908,6.88283,10.935c-.10135.069-.2077.13068-.31173.19575A4.96127,4.96127,0,0,0,5.9322,9.9853C7.31566,9.12415,8.70092,8.26587,10.08076,7.399a.35121.35121,0,0,1,.5169.1046C10.742,7.67725,10.87088,7.86381,11.00651,8.04474Z" style="fill:#724d31"/><path d="M5.9322,9.9853a4.96127,4.96127,0,0,1,.6389,1.14549.24442.24442,0,0,0-.04313.21267,1.156,1.156,0,0,1,.01536.28341c-.0564.71889-.51995.99188-1.14023.62216a2.58393,2.58393,0,0,1-1.30533-2.11839.6427.6427,0,0,1,.85249-.69753A2.52838,2.52838,0,0,1,5.9322,9.9853Z" style="fill:#8d5b36"/><path d="M10.56472,8.947c.39887.53114.82208,1.04435,1.18154,1.60452a.91968.91968,0,0,0-.07069.087,6.19913,6.19913,0,0,0-.95964,3.54025c.00273.117.05282.2468-.0451.35357l-.46323-1.01415a5.85519,5.85519,0,0,1,.19034-3.97106A2.39119,2.39119,0,0,0,10.56472,8.947Z" style="fill:#efd4a7"/><path d="M1.02445,21.27369l.06477.00835c-.01352.04431-.04921.08409-.08768.06476C.96177,21.32681.9915,21.29145,1.02445,21.27369Z" style="fill:#b5abab"/><path d="M11.28068,17.10382a5.68451,5.68451,0,0,0-1.47565.92665c-.20914-.06106-.4193-.11881-.62715-.18393-.3498-.10957-.53251-.02127-.61949.356-.12981.563-.2397,1.13084-.34456,1.69912-.20121,1.09046-.39106,2.183-.58942,3.274-.0939.51645-.19462.6035-.70792.59663-.23238-.00311-.35127.07456-.36237.32307a3.076,3.076,0,0,1-.26735.98239c-.01495.03791-.00526.10922-.075.09755-.05588-.00936-.05044-.07235-.06583-.11423-.12413-.33783-.25689-.673-.36675-1.0154-.062-.19322-.1228-.16758-.23782-.04623-.20235.21349-.41572.4165-.622.62628-.07923.08056-.12771.11624-.1428-.04173-.05321-.557-.12517-1.11254-.16627-1.67037-.0233-.31625.10745-.40543.41859-.339.22242.04752.44839.08213.66662.14417.13043.03709.18962.01558.225-.117q.57885-2.16863,1.16325-4.33579l.03054-.07491.01492-.11129c.06177-.04027.04991-.1039.05178-.16318l.00368-.00815c.04818-.022.05527-.06529.05776-.111.09756-.38087.18837-.76362.29468-1.142a.86619.86619,0,0,1,.676-.57142c-.01262.16623.13664.14006.21709.15874a18.42456,18.42456,0,0,0,2.17745.3543c.03705.04666.07428.06682.11207.00073.05812-.01749.1198.06337.176-.00636C10.99969,16.78055,11.21259,16.88777,11.28068,17.10382Z" style="fill:#8d5b36"/><path d="M7.11428,18.19117l-.03055.07491Z" style="fill:#d5cfcf"/><path d="M11.28068,17.10382c-.06809-.216-.281-.32327-.385-.51233a2.07478,2.07478,0,0,1-.22356-1.17628l.843.62341a.37748.37748,0,0,0,.179.1586l.05367.04292.0529.03531a.46053.46053,0,0,0,.21641.16737l.13032.09546a.87774.87774,0,0,0,.3922.22855.57424.57424,0,0,0,.34905.1818,1.21326,1.21326,0,0,1-1.4424.18768A.581.581,0,0,0,11.28068,17.10382Z" style="fill:#fce8cc"/><path d="M11.51512,16.03863l-.843-.62342-.015-.06906.01047-.22189c.071-.06331.05225-.15107.06284-.23084a2.48742,2.48742,0,0,1,.62177-.85313c.12974-.03152.15757.08025.20734.15323.19728.28932.39054.5814.58529.87245A.91691.91691,0,0,0,11.51512,16.03863Z" style="fill:#60c46f"/><path d="M16.824,7.93246A2.31114,2.31114,0,0,0,16,7.75589v1.9598a4.81542,4.81542,0,0,1,1.6694.34,6.0312,6.0312,0,0,1,1.31236.84079,5.815,5.815,0,0,0,.752-1.03574A7.45841,7.45841,0,0,0,16.824,7.93246Z" style="fill:#4f4032"/><path d="M15.634,7.80045a7.12117,7.12117,0,0,0-3.37409,2.06034,5.82923,5.82923,0,0,0,.75223,1.03574c.07032-.04818.14475-.09107.21026-.14482A4.18561,4.18561,0,0,1,16,9.71569V7.75589A1.37982,1.37982,0,0,0,15.634,7.80045Z" style="fill:#604631"/><path d="M11.35221,14.04029a2.48742,2.48742,0,0,0-.62177.85313.92094.92094,0,0,0-.05961-.36105c.09792-.1068.04783-.2366.0451-.3536a6.19913,6.19913,0,0,1,.95964-3.54025.91968.91968,0,0,1,.07069-.087,8.1992,8.1992,0,0,1,.74323.97214,5.3616,5.3616,0,0,0-1.08737,2.45016Z" style="fill:#604631"/><path d="M20.24753,10.55155a5.85739,5.85739,0,0,1,.96864,2.52146,8.122,8.122,0,0,1,.05815,1.24817c.0004.07286-.025.15417.04864.21114a.94024.94024,0,0,0-.0606.36093,2.46087,2.46087,0,0,0-.62116-.85308l-.04951-.0663a5.36234,5.36234,0,0,0-1.08737-2.45016A8.191,8.191,0,0,1,20.24753,10.55155Z" style="fill:#4f4032"/><path d="M14.94205,12.86775a1.01519,1.01519,0,0,0,1.05384.93464L16,13.80156V11.9228A1.01075,1.01075,0,0,0,14.94205,12.86775Z" style="fill:#fce8cc"/><path d="M17.05168,12.8697a1.01008,1.01008,0,0,0-1.03957-.94913L16,11.9228v1.87876A1.01542,1.01542,0,0,0,17.05168,12.8697Z" style="fill:#f5deb9"/><path d="M14.99914,16.4668a1.0132,1.0132,0,0,0,.9719.92851c.01016,0,.01886-.00529.029-.00557V15.51461A1.00964,1.00964,0,0,0,14.99914,16.4668Z" style="fill:#fce8cc"/><path d="M16.99466,16.45788a1.01153,1.01153,0,0,0-.988-.94467L16,15.51461v1.87513A1.00561,1.00561,0,0,0,16.99466,16.45788Z" style="fill:#f5deb9"/><path d="M11.35221,14.04029l.04991-.06643c.169.02.29887-.10139.46365-.11935A1.39914,1.39914,0,0,1,13.33461,14.982a1.96107,1.96107,0,0,1-.16754,1.56844l-.12132-.16559a.49918.49918,0,0,0-.20644-.29663l-.53343-.804a.30236.30236,0,0,0-.161-.2183c-.19475-.29105-.388-.58313-.58529-.87245C11.50978,14.12054,11.482,14.00877,11.35221,14.04029Z" style="fill:#fce8cc"/><path d="M20.59169,13.97387l.04954.0663c-.12967-.03121-.15736.08061-.2071.15355-.19727.28924-.39047.58126-.58517.87223a.30247.30247,0,0,0-.1611.21831l-.53308.80458a.49238.49238,0,0,0-.20678.29631l-.12125.16525a2.04785,2.04785,0,0,1,.26928-2.323,1.19979,1.19979,0,0,1,1.329-.28228A.86943.86943,0,0,0,20.59169,13.97387Z" style="fill:#f5deb9"/><path d="M21.32155,15.41521a2.07325,2.07325,0,0,1-.22344,1.17625c-.104.18911-.31695.29631-.385.51238-.20866-.00876-.35754.16052-.56174.18057a1.34235,1.34235,0,0,1-1.04629-.3358.57367.57367,0,0,0,.349-.18174.87788.87788,0,0,0,.39231-.22861c.05612-.01832.10616-.04321.11813-.10926l-.00256.00125c.10978-.00243.16791-.082.23083-.15447l.053-.03554.05382-.043a.37769.37769,0,0,0,.17905-.15862Z" style="fill:#f5deb9"/><path d="M19.45412,16.76684a.57392.57392,0,0,1-.349.18177,1.59706,1.59706,0,0,1-.27833-.39822L18.948,16.385A1.10519,1.10519,0,0,0,19.45412,16.76684Z" style="fill:#54b668"/><path d="M13.04575,16.38487l.12132.16559a1.60053,1.60053,0,0,1-.27836.39815.57391.57391,0,0,1-.349-.18175A1.1046,1.1046,0,0,0,13.04575,16.38487Z" style="fill:#60c46f"/><polygon points="15.509 23.097 15.508 23.097 15.509 23.097 15.509 23.097 15.511 23.095 15.509 23.097" style="fill:#eacea1"/><path d="M17.31452,24.12331c-.4605-.132-.9077-.30942-1.37906-.40439l-.07847-.03731-.09984-.01894a.126.126,0,0,1-.12957-.04568.0554.0554,0,0,0-.04777-.00947.127.127,0,0,1-.12274-.04511.0677.0677,0,0,0-.0532-.00975l-.07526-.11307.00995-.00919.05125-.049.00612-.00557.05362-.05068.004-.0039.05563-.05264.00209-.002.05751-.05431.00028-.00027.05849-.05626-.00084.00111.05974-.05737-.002.00195.06057-.05821-.00285.00279.061-.05932-.00348.00362.05995-.05849.00146.0014.27912-.23394L16.244,22.596l-.15541.00251c-.00278.01253-.00612.02507-.01.03732a.59173.59173,0,0,0-.29319.22837l-.106.08188-.04359.04066-.00752.00585-.05751.04929-.00118.00112-.061.05375-.06079.0557.00453-.00418-.073.05876-.0981.07575-.0502.04512-.003.00223-.06044.05264.00147-.0014-.06246.05682.004-.0039-.07095.05848c-.04936.02005-.06022.04261-.00431.06907a.14593.14593,0,0,0,.13326.04512l.02284.01.02492-.00139a.12858.12858,0,0,1,.12233.044l.09267.01588.07777.0362.10479.01866a.12909.12909,0,0,1,.12414.044l.05619.00947.11383.04316c.33337.09943.66694.19857.99982.29967.03342.0103.08348.02868.08988.05263.01908.07158-.05493.05849-.09072.07269-.33155.13257-.6645.26207-.997.39213a.12365.12365,0,0,1-.1178.04929.07225.07225,0,0,0-.05375.01226l-.07889.03955-.09288.022-.06892.03732a.04936.04936,0,0,0-.04394.01086.12425.12425,0,0,1-.11787.049.07376.07376,0,0,0-.05375.01254l-.07889.03926-.09288.022-.06893.03759a.04922.04922,0,0,0-.04393.01059.12425.12425,0,0,1-.11787.049.07387.07387,0,0,0-.05376.01253l-.07888.03927-.09288.02228-.06893.03732a.04163.04163,0,0,0-.0408.01031c-.10165-.00919-.08411.04038-.0486.09859a.0944.0944,0,0,1,.046.01c.06349-.01782.1398.01671.19188-.04734l.09657-.0259.06733-.03677a.05179.05179,0,0,0,.04546-.01114.12462.12462,0,0,1,.11628-.04873l.05528-.01281.076-.039.09622-.02451.06385-.03593a.06133.06133,0,0,0,.04887-.01142l.11363-.04846.05793-.01336.07248-.03844.02158.00056.0188-.01058a.12445.12445,0,0,1,.12087-.04958.06426.06426,0,0,0,.0509-.01253l.0793-.04038.09246-.02117.07116-.03759c.40577-.14872.81175-.29661,1.21669-.44755.03635-.01365.10959-.00474.0885-.07576C17.39661,24.15227,17.34787,24.13305,17.31452,24.12331Z" style="fill:#eacea1"/><path d="M21.32155,15.41521l-.84288.6234a.917.917,0,0,0-.62972-.97265c.19471-.291.38791-.583.58518-.87224.04974-.07294.07743-.18476.2071-.15355a2.46117,2.46117,0,0,1,.62113.85308c.01313.07912-.00777.16768.0638.23059l.01044.22236Z" style="fill:#54b668"/><path d="M12.83938,16.08832a.56993.56993,0,0,1-.6331.39129.23458.23458,0,0,0-.16724-.06155q-.11217-.1132-.22433-.2267-.22893-.75028.4912-.90707a.30249.30249,0,0,0-.161-.21835.917.917,0,0,0-.62976.97252.37818.37818,0,0,0,.179.15875l.05368.04289.05291.03537a.45949.45949,0,0,0,.2164.16737h.00007q.06516.04763.13027.09553a.877.877,0,0,0,.39226.22837,1.10461,1.10461,0,0,0,.506-.38182A.49949.49949,0,0,0,12.83938,16.08832Z" style="fill:#211915"/><path d="M12.20625,16.47972a.23428.23428,0,0,0-.16724-.06161l-.22435-.22679q-.2289-.75011.49122-.907l.53343.804A.56986.56986,0,0,1,12.20625,16.47972Z" style="fill:#c1fdbd"/><path d="M19.15478,16.08884l.53308-.80458q.72039.15764.49144.90691a.79581.79581,0,0,0-.21738.23908l.00257-.00125a.19246.19246,0,0,0-.1766.05031A.569.569,0,0,1,19.15478,16.08884Z" style="fill:#a9faa2"/><path d="M19.84893,15.06594a.30231.30231,0,0,0-.161.21835q.7203.15748.49141.90679a.80213.80213,0,0,0-.21625.23784.19184.19184,0,0,0-.17518.05041.56919.56919,0,0,1-.6331-.39046.49212.49212,0,0,0-.20678.29605,1.10588,1.10588,0,0,0,.506.3821.87873.87873,0,0,0,.39234-.22893c.05591-.0181.10548-.04317.11766-.10861.10827-.00362.16634-.08188.22872-.15373l.05306-.03565.05382-.04289a.37724.37724,0,0,0,.17907-.15875A.91683.91683,0,0,0,19.84893,15.06594Z" style="fill:#211915"/></svg>