<svg xmlns="http://www.w3.org/2000/svg" viewBox="0 0 32 32"><title>634-zweilous</title><path d="M12.153.00012a4.61778,4.61778,0,0,1-1.60282,3.23744c-.18644.17019-.16471.192.05136.27786,1.34118.53261,2.61086,1.21946,3.911,1.84062a.89122.89122,0,0,1,.5447.80413,7.09139,7.09139,0,0,1-.40706,2.65339l-.04194.04894-.005.00307c-.16071-.38187-.31972-.76447-.4843-1.14466-.0207-.04781-.0153-.11806-.08481-.13808-.00615.05547-.01413.11081-.01817.16643a2.16718,2.16718,0,0,1-.707,1.793c-.09927.07342-.19265.2151-.30606.18478-.087-.02326-.02152-.18993-.04659-.29063-.02319-.09311-.02986-.19022-.04628-.28514a3.47162,3.47162,0,0,0-.52392-1.51429l-.0279-.07244c-.00616.00408-.01591.00686-.01792.01244a.09691.09691,0,0,0,.04291.11958,2.612,2.612,0,0,1-.61273,1.88362c-.394.53541-.56276.57577-1.1305.23654A3.0055,3.0055,0,0,1,9.35,8.22382c-.02308-.06188-.05387-.1209-.08108-.18125a.848.848,0,0,0-.0643.20113,8.27327,8.27327,0,0,0,.038,1.79607c.00876.05555.04057.144.01857.16085-.0603.04612-.11866-.02411-.17824-.04665A2.30869,2.30869,0,0,1,7.76572,8.7617a1.04476,1.04476,0,0,0-.08489-.14046,1.03211,1.03211,0,0,0-.05652.16341c-.01329.07583-.00874.15464-.01966.23106a6.45444,6.45444,0,0,0-.04307,1.05746.214.214,0,0,1-.01506-.05042l-.03858-.05092q-.51174-.9306-1.0234-1.86122a1.03711,1.03711,0,0,1,.12363-1.29025A8.62548,8.62548,0,0,1,7.207,6.1841,29.0642,29.0642,0,0,1,9.99638,3.58658c.037-.02748.09553-.07069.0918-.0999-.01022-.08008-.08956-.04381-.13976-.0508A5.4854,5.4854,0,0,1,6.31116,1.09167C6.283,1.055,6.23707.99745,6.2486.97141,6.28321.89328,6.36681.93212,6.42617.936a4.49175,4.49175,0,0,1,3.14509,1.5531c.17453.194.31954.41445.47876.62225.02788.03638.07025.105.08636.09966.07463-.02473.03321-.09711.033-.14693a4.18433,4.18433,0,0,1,.111-1.15261A2.68994,2.68994,0,0,1,11.78838.13066c.0841-.04029.18842-.04353.24806-.13054Z" style="fill:#635c5c"/><path d="M22.10987,3.43194c.14061-.03473.28493-.05437.42568-.08852a5.55812,5.55812,0,0,0,2.99309-2.04459c.08739-.10646.21541-.19641.21925-.35752a3.69479,3.69479,0,0,0-.43536.01082A4.66275,4.66275,0,0,0,21.98242,3.063c-.03658.0538-.08034.10247-.12076.15371-.07607-.06006-.03259-.14318-.02974-.21092a3.11372,3.11372,0,0,0-.6127-2.10209A3.57286,3.57286,0,0,0,19.96352,0H19.847c.00989.13492.00861.27183.03138.40448a4.79675,4.79675,0,0,0,1.63556,2.892c.12553.10845.10638.13606-.03345.18957-1.35781.51976-2.62753,1.2288-3.9428,1.84022a.92736.92736,0,0,0-.59426.83372,7.04065,7.04065,0,0,0,.4064,2.65372l.042.049.00484.00285c.16474-.39053.32841-.78192.49614-1.171.01686-.03928.00925-.101.073-.11158.006.04582.01224.09137.01793.13719.03593.28664.06988.57356.108.85991A1.70763,1.70763,0,0,0,18.849,9.66932c.12468.10019.17264.10845.19071-.08739a4.56982,4.56982,0,0,1,.4607-1.78186,1.64662,1.64662,0,0,1,.1135-.1631l.02789-.07259c.00612.00427.01587.00684.01786.01253a.09672.09672,0,0,1-.04291.11955A2.854,2.854,0,0,0,20.55,9.95538a.26677.26677,0,0,0,.33182.07A2.84891,2.84891,0,0,0,22.64991,8.2239c.0237-.06177.05394-.121.08112-.18132a.84807.84807,0,0,1,.06433.201,8.28983,8.28983,0,0,1-.04156,1.82485c-.00725.04611-.0343.11812-.01572.1335.05031.041.10247-.01452.15335-.03416a2.33551,2.33551,0,0,0,1.3428-1.40585,1.03192,1.03192,0,0,1,.08483-.1409.55043.55043,0,0,1,.05586.1631,4.48333,4.48333,0,0,1,.03486,1.183c-.008.03074.01829.0703.02868.10588a.20862.20862,0,0,0,.015-.05038l.03857-.05067q.50478-.918,1.00963-1.83537a1.02336,1.02336,0,0,0-.1303-1.3364A31.47826,31.47826,0,0,0,22.0501,3.62151c-.05174-.04042-.14318-.10162-.13535-.13321C21.93852,3.39124,22.04184,3.44873,22.10987,3.43194Z" style="fill:#5a5353"/><path d="M6.5112,31.46741,5.04193,32H4.98364a1.61145,1.61145,0,0,1,.54174-1.25187.29923.29923,0,0,0,.10024-.24969c-.00049-.20158.0046-.40317.00735-.60475a.80561.80561,0,0,1,.04115.45074c-.01663.2765.03685.45611.35369.53372A.58469.58469,0,0,1,6.5112,31.46741Z" style="fill:#e3e5e5"/><path d="M26.36692,29.89348a1.20756,1.20756,0,0,0-.042.56587.32185.32185,0,0,1-.27311.38427.65388.65388,0,0,0-.56317.62394q.7347.266,1.4694.53228h.05828a1.16816,1.16816,0,0,0-.27447-.91428A1.41676,1.41676,0,0,1,26.36692,29.89348Z" style="fill:#dadddc"/><polygon points="9.878 28.555 9.878 28.555 9.876 28.557 9.878 28.555" style="fill:#615853"/><polygon points="9.942 28.505 9.941 28.505 9.939 28.507 9.942 28.505" style="fill:#615853"/><polygon points="22.061 28.507 22.058 28.505 22.058 28.505 22.061 28.507" style="fill:#615853"/><path d="M13.14342,12.64572c-.24152.19265-.46.41094-.711.595a1.25888,1.25888,0,0,1-1.07816.14244,6.11545,6.11545,0,0,1-.923-.25c-.06576-.02452-.13917-.08187-.21783-.02156a.52381.52381,0,0,0-.25377-.1804,4.56632,4.56632,0,0,1-2.39812-2.858,6.45444,6.45444,0,0,1,.04307-1.05746c.01092-.07642.00637-.15523.01966-.23106a1.03211,1.03211,0,0,1,.05652-.16341,1.04476,1.04476,0,0,1,.08489.14046A2.30869,2.30869,0,0,0,9.08287,10.154c.05958.02254.11794.09277.17824.04665.022-.01683-.00981-.1053-.01857-.16085a8.27327,8.27327,0,0,1-.038-1.79607.848.848,0,0,1,.0643-.20113c.02721.06035.058.11937.08108.18125a3.0055,3.0055,0,0,0,1.29,1.59285c.56774.33923.73652.29887,1.1305-.23654a2.61217,2.61217,0,0,0,.61276-1.88364l.00288-.05956A3.47162,3.47162,0,0,1,12.91,9.15122c.01642.09492.02309.192.04628.28514.02507.1007-.04038.26737.04659.29063.11341.03032.20679-.11136.30606-.18478a2.16718,2.16718,0,0,0,.707-1.793c.004-.05562.012-.111.01817-.16643.06951.02.06411.09027.08481.13808.16458.38019.32359.76279.4843,1.14466a13.07436,13.07436,0,0,1-.36938,1.75187A6.4667,6.4667,0,0,1,13.14342,12.64572Zm-.8996-.89958c-.01616-.04863-.02211-.12447-.091-.11983-.11627.00783-.13761.11678-.16548.20439-.01962.06166.00956.12172.0802.11816C12.18467,11.943,12.21081,11.8424,12.24382,11.74614ZM10.954,11.939c-.05387.00867-.13541.0019-.11751.08045.02359.10349.13.12823.22.15445.05889.01717.13666-.0022.13106-.06556C11.17605,11.97841,11.04244,11.98614,10.954,11.939Z" style="fill:#7c98b0"/><path d="M10.98812,18.00829c.24713.30336.05063.63325.04917.94994-.00056.12294-.10528.04273-.15151.019-.23222-.11939-.45938-.24859-.69053-.37014-.04775-.02511-.1042-.07986-.15741-.03728-.05938.04753.00734.10524.01532.15856.01861.12424.12642.22086.11236.356-.60973-.35679-1.233-.69257-1.82584-1.07554A5.6868,5.6868,0,0,0,5.772,17.18757c-1.618-.17108-3.231-.38984-4.84543-.594C.841,16.58278.72621,16.61177.67489,16.497c.55185-.32111,1.10208-.645,1.65649-.96169.174-.0994.06272-.15739-.01813-.22529q-.72432-.60828-1.44874-1.21644c-.04306-.03626-.11883-.09288-.11086-.1196.02583-.08658.11455-.04152.17359-.03971a19.56912,19.56912,0,0,1,3.22433.43247c1.035.20632,2.06292.44805,3.09492.66973a.97354.97354,0,0,1,.43468.21549Q9.331,16.63442,10.98812,18.00829Z" style="fill:#413b3b"/><path d="M7.50794,9.97183l.03858.05092Z" style="fill:#6e8fbd"/><path d="M29.72819,15.26881c.48084-.39252.95356-.79529,1.42856-1.19521.03565-.02989.09706-.07572.09094-.1002-.01879-.07514-.0955-.04326-.14574-.03985-.36754.02448-.73651.03985-1.10171.08511a50.34321,50.34321,0,0,0-5.27493,1.02443.72483.72483,0,0,0-.31716.13407q-1.69634,1.41795-3.39622,2.83106c-.24721.30343-.05066.63333-.04924.94985.0005.123.10517.0427.1515.01907.24095-.12325.47756-.25561.71666-.38256.04042-.02135.0871-.0612.13207-.0259.05088.03985-.00121.0871-.00725.13179-.01844.13492-.13379.2391-.12112.3837.8461-.489,1.67555-1.00679,2.542-1.46079a2.99345,2.99345,0,0,1,1.04592-.32051q2.81253-.34114,5.62213-.70534c.09542-.01224.21818.01764.28051-.10048-.52666-.30656-1.04827-.62252-1.58261-.91484C29.52539,15.46322,29.5747,15.39434,29.72819,15.26881Z" style="fill:#3a3333"/><path d="M24.37492,8.78408a.55043.55043,0,0,0-.05586-.1631,1.03192,1.03192,0,0,0-.08483.1409,2.33551,2.33551,0,0,1-1.3428,1.40585c-.05088.01964-.103.07514-.15335.03416-.01858-.01538.00847-.08739.01572-.1335a8.28983,8.28983,0,0,0,.04156-1.82485.84807.84807,0,0,0-.06433-.201c-.02718.06035-.05742.11955-.08112.18132a2.84891,2.84891,0,0,1-1.76806,1.80151.26677.26677,0,0,1-.33182-.07,2.854,2.854,0,0,1-.93328-2.25892L19.61391,7.637a1.64662,1.64662,0,0,0-.1135.1631,4.56982,4.56982,0,0,0-.4607,1.78186c-.01807.19584-.066.18758-.19071.08739A1.70763,1.70763,0,0,1,18.09178,8.58c-.03814-.28635-.07209-.57327-.108-.85991-.00569-.04582-.012-.09137-.01793-.13719-.06376.01053-.05615.0723-.073.11158-.16773.3891-.3314.78049-.49621,1.171.04761.34328.09144.68684.14346,1.02955A7.862,7.862,0,0,0,18.747,13.06c.20551.21605.40127.44262.61853.64586a1.02507,1.02507,0,0,0,1.34273.25276,3.64872,3.64872,0,0,1,.95277-.44233,1.00562,1.00562,0,0,1,.29041-.23284,5.86782,5.86782,0,0,0,2.48706-3.21049c-.01039-.03558-.03665-.07514-.02868-.10588A4.48333,4.48333,0,0,0,24.37492,8.78408Zm-1.36074,2.87461a4.32481,4.32481,0,0,1-1.41432,1.51344.82748.82748,0,0,1-.40035.22971,1.93608,1.93608,0,0,1-.86731.279.90255.90255,0,0,1-.72776-.39394,1.26542,1.26542,0,0,1-.39657-.47251,3.91542,3.91542,0,0,1-.58367-2.21282c-.00078-.03728.00805-.10645.01908-.10788a3.73483,3.73483,0,0,0,.56665-.03472c.08653-.02391.10909.09365.1426.1594a5.09937,5.09937,0,0,0,1.068,1.47673.32082.32082,0,0,0,.38605.07628,5.01381,5.01381,0,0,0,1.56668-.92907c.11407-.10532.17683-.12809.25205.02817a.25916.25916,0,0,0,.26187.15343C23.13437,11.39909,23.1222,11.49189,23.01418,11.65869Z" style="fill:#7290ab"/><path d="M24.45349,10.0227l.03856-.05087Z" style="fill:#6e8fbd"/><path d="M7.13805,23.25446c.52134-.00558.52078-.00584.30248.45931-.09064.19314-.16715.39391-.27083.57963-.08713.15606-.01934.194.11675.2269.171.0413.43911-.04317.48965.133.03811.13291-.13589.325-.21141.49251-.15934.35352-.31769.70751-.47169,1.06336-.01995.0461-.08473.10524-.01969.15133.02594.01838.093-.00974.136-.02873A11.68219,11.68219,0,0,0,8.29322,25.837c.26264-.14986.25635-.04133.24325.16437-.04.6282-.06757,1.25724-.11345,1.885-.01723.23577.0562.25805.25514.17415A5.46259,5.46259,0,0,0,9.637,27.5754c.13672-.09265.1828-.10077.18563.09535a2.081,2.081,0,0,0,.05553.88442c-.23485.18514-.46846.3719-.7049.555A1.26667,1.26667,0,0,0,8.7,30.06629c-.02373.26065.04135.54939-.15783.77766-.12-.11143-.23753-.22562-.36083-.33321a.339.339,0,0,0-.25248-.12326.88568.88568,0,0,0-.69039.96047l-.72724.11948a.58466.58466,0,0,0-.48337-.58928c-.31684-.07761-.37032-.25722-.35369-.53372a.80561.80561,0,0,0-.04115-.45074c-.00161-.368.02378-.73853-.01059-1.10343a2.37593,2.37593,0,0,1,.7188-1.83226c.10567-.12129.26988-.22582-.02649-.348-.15225-.06279-.12582-.27306-.08994-.42473A18.54659,18.54659,0,0,1,7.13805,23.25446Z" style="fill:#7290ab"/><path d="M15.83658,16.31862c-.2143.39062-.41645.78759-.62531,1.18115-.03753.0708-.067.18994-.17993.06811-.31573-.34106-.72107-.602-.77087-1.1455a9.26536,9.26536,0,0,1-.3039-2.52149c.07886-.448.12744-.90161.1897-1.35278l-.082-.08276a2.05661,2.05661,0,0,0-.61755.82641c-.01673.0376-.00824.11182-.08008.0896-.02344-.00708-.0376-.05981-.04731-.09424-.06-.21313-.11755-.42749-.1759-.64136-.24151.19239-.46.41065-.71094.595a1.25921,1.25921,0,0,1-1.07818.14233,6.07443,6.07443,0,0,1-.923-.25c-.06579-.02441-.13916-.082-.21777-.02148.10608.39843.20685.79858.321,1.19482.04876.16894.01709.20386-.14649.135-.2829-.11914-.56952-.229-.85461-.34277L9.474,14.106c.36987.56421.73651,1.13037,1.11151,1.69092a1.36548,1.36548,0,0,1,.22.52954c.08209.47558.16065.95117.22962,1.42847.01159.08032.081.19091-.04712.25317.24719.30371.05072.63354.04919.95-.00049.123-.10522.043-.15149.019-.23218-.11914-.45935-.24829-.69055-.36987-.04773-.02539-.10419-.08008-.15741-.03735-.05933.0476.00739.10522.01538.15844.01856.124.12634.22095.11237.356a1.01789,1.01789,0,0,1,.23083.44629l.01038-.00586c.0329.02319.05841.04883.03442.09253l-.03656-.02978-.05682-.01636a5.817,5.817,0,0,0-1.52808-.50244c-.178-.02442-.22284.01049-.13324.1875a11.46216,11.46216,0,0,0,.62036,1.073c.03632.04322.07264.08619.109.12964l.05011.05689.02966.03686c-.04126.02857-.0625,0-.08349-.02929l-.06922-.05664-.10571-.06495c-.4201-.18847-.79059-.47241-1.22217-.63916h0l-.0343-.03418c-.02667.04395.00177.06739.03327.09009v-.00024c.05676.1123.10546.22949.17218.33545.10986.17431.11322.27148-.127.33008-.32769.08007-.64508.20263-.96618.30908-.06116.02026-.15412.01123-.16077.09375-.00226.02832.08362.06787.13336.09472.18714.10108.37207.208.56543.2959.19562.08887.16571.15186.012.26367A20.06561,20.06561,0,0,0,5.9827,22.85939c-.06232.05639-.18421.10986-.159.18628.03046.09277.16461.06347.25354.07715.35229.05322.71228.04541,1.06085.13159.5213-.00562.52075-.00562.30243.45947-.09064.19312-.16717.3938-.27081.57959-.08716.156-.01929.19409.11676.22681.171.04126.43908-.04322.48962.13281.03809.13306-.13592.32519-.21142.49267-.15931.35352-.31763.70752-.47168,1.06324-.02.04614-.08472.10522-.01966.15161.02588.01831.093-.00977.13593-.02881a11.69308,11.69308,0,0,0,1.084-.49463c.26264-.15015.25629-.0415.24323.16406-.04.62818-.06757,1.25733-.11347,1.885-.01721.23584.05628.25806.25513.17408a5.47018,5.47018,0,0,0,.9588-.48487c.13672-.09277.18286-.10083.18561.09522a2.08048,2.08048,0,0,0,.0556.88427l.06305-.0498a8.74893,8.74893,0,0,1,1.048-.88135c.09619-.15722.13672-.03467.15448.041.08838.37744.167.75708.24908,1.13623a1.33612,1.33612,0,0,0,.2934.626,7.74782,7.74782,0,0,1,.70007-1.12255c.07245-.11695.13916-.02832.20923.02392.508.37988,1.02911.74365,1.52283,1.14112.19445.15649.24932.07641.33471-.0835.0766-.14356.17133-.27734.25806-.41528.22278-.40992.23383-.42408.61322-.13037a4.21251,4.21251,0,0,0,.65912.48046l.0166-.012V16.12843C15.90829,16.13185,15.87643,16.24562,15.83658,16.31862Z" style="fill:#5a5353"/><path d="M25.56252,26.68726c.25689-.08454.25959-.29716.21177-.50182a18.24673,18.24673,0,0,0-.91235-2.931c-.10681,0-.21412.00712-.32029-.00114-.19114-.0148-.18488.06262-.11251.2001.08561.16282.15584.33389.23248.50126.07237.15855.23562.34783.19505.46824-.06.17875-.3183.09962-.49022.13378-.179.03558-.18146.10446-.103.25191a12.70479,12.70479,0,0,1,.64514,1.39987c.01715.04441.054.10931.03722.13293-.0422.05921-.10852.00911-.15463-.0111a10.97883,10.97883,0,0,1-1.08449-.49329c-.26273-.15-.25632-.04127-.24323.16424.04.62849.0676,1.25727.1135,1.88519.01722.23569-.05629.25789-.25518.17392a5.46737,5.46737,0,0,1-.95875-.485c-.13677-.0928-.18281-.10077-.18566.09535a2.083,2.083,0,0,1-.05543.88439c.12873.10076.2512.2112.38747.30058a1.5488,1.5488,0,0,1,.80611,1.38564c-.00285.19584-.04313.43579.14232.60259.05066-.04383.10169-.08738.15207-.13179.19213-.16879.32869-.44376.67453-.2317a.87723.87723,0,0,1,.4772.8676l.727.11955a.65388.65388,0,0,1,.56317-.62394.32185.32185,0,0,0,.27311-.38427,1.20667,1.20667,0,0,1,.04206-.56587c.04127-1.11751.12731-2.247-.83785-3.09236C25.47015,26.7496,25.47883,26.71487,25.56252,26.68726Z" style="fill:#6789a5"/><path d="M9.44156,14.06837l.03247.0376.05951-.00732C9.51175,14.06154,9.48453,14.04078,9.44156,14.06837Z" style="fill:#5a5353"/><path d="M14.23141,12.32985l-.03845.02783a.18382.18382,0,0,0-.12878.10767l.08209.08276.057-.12866C14.23483,12.3965,14.2568,12.37062,14.23141,12.32985Z" style="fill:#5a5353"/><path d="M24.862,23.25441c.34845-.08618.70849-.07837,1.06085-.13159.08887-.01368.223.01562.25348-.07715.02515-.07642-.09674-.12989-.15906-.18628a21.21486,21.21486,0,0,0-1.683-1.33692c-.12927-.095-.15888-.1521.00921-.23144.20093-.095.39521-.2041.591-.30982.04974-.02661.13556-.0664.13324-.09472-.00666-.08252-.09967-.07324-.16065-.09375q-.30221-.10218-.60595-.19995c-.61036-.19678-.61048-.19654-.31507-.77466h0c.0315-.02246.05994-.0459.03327-.09009l-.0343.03442c-.43165.16675-.80207.45069-1.22217.63916l-.10578.06495-.06921.05664c-.02094.02929-.04211.05786-.08337.02929l.02966-.03686.05-.05689c.03637-.04345.07269-.08642.10894-.12939a8.5028,8.5028,0,0,0,.5904-1.02368c.03351-.072.12756-.15259.06152-.22534-.03406-.03711-.14667-.01246-.22168-.00147a5.81948,5.81948,0,0,0-1.47107.49219l-.05688.01636-.03662.02978c-.024-.0437.00164-.06934.03442-.09253l.01044.00537a1.01575,1.01575,0,0,1,.231-.4458c-.01269-.14477.10266-.24878.1211-.38379.006-.04468.05816-.09179.00726-.13183-.045-.03516-.09167.00464-.13208.02588-.23907.127-.47571.25927-.71667.38256-.04633.02369-.151.104-.15149-.019-.00141-.31641-.19794-.64624.04925-.95-.14038-.19873-.02045-.40186.00488-.59668a3.776,3.776,0,0,1,.62964-1.98242c.32691-.41431.58869-.87988.87952-1.323l.03247-.0376c-.043-.02759-.07019-.00683-.09192.03028-.27753.1101-.5545.22168-.833.32934-.058.02246-.12457.082-.17877.03491-.02386-.0205.00238-.10669.01514-.16089.06195-.2622.12713-.52392.1911-.78564a3.647,3.647,0,0,0-.95276.44214,1.025,1.025,0,0,1-1.34271-.25269c-.21729-.20312-.413-.42968-.61853-.646a.86171.86171,0,0,1-.0459.13525c-.0332.06275.01294.18506-.08441.18628-.07727.00049-.07276-.11768-.10456-.18164a2.04227,2.04227,0,0,0-.57611-.73437.18467.18467,0,0,0-.129-.10767l-.0384-.02783c-.02539.041-.00341.06665.02814.08935l.05689.12866c.03387.20044.07837.39991.09954.60181A6.48146,6.48146,0,0,1,18.066,14.71c-.06446.46973-.20862.929-.26374,1.39869a1.99648,1.99648,0,0,1-.76733,1.40234c-.12915.103-.18121.13818-.26538-.03345-.19226-.39111-.39844-.77514-.60333-1.15991-.03986-.07471-.0921-.18921-.15106-.19775-.00721-.001-.00861.0083-.01508.00854V29.30885c.27423-.187.5542-.36865.80988-.57934.19427-.15967.30853-.14991.39782.08691a1.36883,1.36883,0,0,0,.08112.1543c.06872.10376.13983.20629.20538.31225.20593.33252.20276.32984.52655.08423.45947-.34888.92371-.69092,1.38379-1.03882.06976-.05273.13678-.14087.20917-.02392a7.7534,7.7534,0,0,1,.70013,1.12255,1.33651,1.33651,0,0,0,.29328-.626c.08209-.37915.16082-.75879.249-1.13623.01813-.07764.05878-.19629.15454-.041a8.71635,8.71635,0,0,1,1.04767.88111c.02191.01709.04382.03491.0658.05224l-.0022-.0022a2.0821,2.0821,0,0,0,.05542-.88427c.00287-.196.04889-.188.18567-.09522a5.46964,5.46964,0,0,0,.95874.48487c.19891.084.2724.06176.25519-.17383-.0459-.62793-.07349-1.25684-.11353-1.88526-.01306-.20556-.01947-.31421.24322-.16406a10.98348,10.98348,0,0,0,1.08454.49317c.04608.02026.11243.07031.1546.011.01679-.02368-.02008-.08838-.03723-.13281a12.70921,12.70921,0,0,0-.64514-1.3999c-.07849-.14746-.076-.21631.103-.252.17194-.03418.43024.04517.49024-.13379.04059-.12036-.12268-.30957-.195-.46826-.07666-.16723-.14691-.33838-.23248-.50122-.07239-.13745-.07868-.21484.11249-.20019C24.6478,23.26149,24.75516,23.25441,24.862,23.25441Z" style="fill:#4f4949"/><path d="M17.34982,8.8136l.042.049C17.35912,8.86226,17.34674,8.84456,17.34982,8.8136Z" style="fill:#6e8fbd"/><path d="M14.60824,8.8625l.04194-.04894C14.65321,8.84464,14.64085,8.86227,14.60824,8.8625Z" style="fill:#6e8fbd"/><path d="M12.38611,7.63693l-.00288.05956a.09686.09686,0,0,1-.04294-.11956c.002-.00558.01176-.00836.01792-.01244Z" style="fill:#687992"/><path d="M19.61391,7.637l.00284.05949a.09672.09672,0,0,0,.04291-.11955c-.002-.00569-.01174-.00826-.01786-.01253Z" style="fill:#687992"/><path d="M19.40455,28.32851c-.46.34784-.9243.69-1.38379,1.03867-.32378.24564-.32058.2482-.52652-.08426-.06554-.10589-.1367-.20836-.20529-.31225a9.84123,9.84123,0,0,1-.6201,1.39219c-.09429.17277-.09116.26272.13307.25191a9.1337,9.1337,0,0,0,3.45457-1.06172l.05736-.1261a7.75448,7.75448,0,0,0-.70008-1.12235C19.54132,28.18762,19.47436,28.27557,19.40455,28.32851Z" style="fill:#8c3179"/><path d="M11.68616,29.4269a7.74781,7.74781,0,0,1,.70008-1.12228c.07244-.117.13919-.02858.20924.02382.508.38,1.0291.74341,1.5228,1.141.19454.15665.24941.07653.33476-.08343.07655-.14347.17131-.27723.25807-.41529a9.43564,9.43564,0,0,0,.63416,1.41671c.11243.20163.01239.22316-.14692.22733a9.13217,9.13217,0,0,1-3.45483-1.06153Z" style="fill:#93357b"/><path d="M15.32434,28.8403c-.37943-.29375-.39046-.27952-.61326.13037a9.44787,9.44787,0,0,0,.63418,1.41667c.11244.20181.01238.22316-.147.22743A6.16558,6.16558,0,0,0,16,30.66742v-1.3586C15.99439,29.31281,15.50971,28.98405,15.32434,28.8403Z" style="fill:#7290ab"/><path d="M16.66885,30.36286a9.83173,9.83173,0,0,0,.62-1.39219,1.3423,1.3423,0,0,1-.08112-.15428c-.08931-.23682-.20359-.2465-.39786-.08681-.25568.21063-.53563.39223-.80988.57924v1.3586a6.1704,6.1704,0,0,0,.80191-.05265C16.57769,30.62558,16.57456,30.53563,16.66885,30.36286Z" style="fill:#6789a5"/><path d="M7.23842,31.348a.88568.88568,0,0,1,.69039-.96047.339.339,0,0,1,.25248.12326c.1233.10759.24086.22178.36083.33321.125.24954.25256.49785.37309.74952.02787.05819.06464.15018.03942.18744-.046.068-.12058-.01038-.18082-.02437C8.25776,31.63676,7.76713,31.42117,7.23842,31.348Z" style="fill:#e3e5e5"/><path d="M24.28447,30.48041c-.34584-.21206-.4824.06291-.67453.2317-.05038.04441-.10141.088-.15207.13179-.125.24963-.25262.49784-.3731.74947-.02789.05835-.06461.15029-.03935.18758.046.068.12055-.01053.18082-.02448.51613-.11984,1.00671-.3356,1.53543-.40846A.87723.87723,0,0,0,24.28447,30.48041Z" style="fill:#dadddc"/><path d="M11.68616,29.4269l.05736.12629a9.39984,9.39984,0,0,1-1.555-.90606c-.07925-.05332-.14288-.13509-.24945-.13989a8.69806,8.69806,0,0,1,1.05013-.88339,5.48063,5.48063,0,0,0,.40362,1.177A1.334,1.334,0,0,0,11.68616,29.4269Z" style="fill:#7290ab"/><path d="M20.60717,28.80074a1.335,1.335,0,0,1-.29332.62621l-.05736.1261c.13905-.06661.28407-.12354.41608-.20238.46525-.277.92594-.5616,1.38834-.8434a8.702,8.702,0,0,0-1.05019-.88353A5.47,5.47,0,0,1,20.60717,28.80074Z" style="fill:#6789a5"/><path d="M9.87573,28.557l.06622-.05237A.05933.05933,0,0,1,9.87573,28.557Z" style="fill:#6e8fbd"/><path d="M22.058,28.50468l.06618.05233A.05929.05929,0,0,1,22.058,28.50468Z" style="fill:#6e8fbd"/><path d="M20.85616,27.66473c-.08817.37743-.16694.75715-.249,1.136a5.47,5.47,0,0,0,.40355-1.177C20.91494,27.46861,20.87431,27.5873,20.85616,27.66473Z" style="fill:#8c3179"/><path d="M11.39281,28.8009a5.48063,5.48063,0,0,1-.40362-1.177c.09628-.15709.13674-.03489.15452.04107C11.23207,28.04233,11.31073,28.422,11.39281,28.8009Z" style="fill:#93357b"/><path d="M12.24382,11.74614c-.033.09626-.05915.19682-.17626.20272-.07064.00356-.09982-.0565-.0802-.11816.02787-.08761.04921-.19656.16548-.20439C12.22171,11.62167,12.22766,11.69751,12.24382,11.74614Z" style="fill:#373f3f"/><path d="M10.954,11.939c.08844.04714.222.03941.23353.16934.0056.06336-.07217.08273-.13106.06556-.08995-.02622-.19639-.051-.22-.15445C10.81859,11.9409,10.90013,11.94767,10.954,11.939Z" style="fill:#373f3f"/><path d="M22.62529,11.27043c-.07522-.15626-.138-.13349-.25205-.02817a5.01381,5.01381,0,0,1-1.56668.92907.32082.32082,0,0,1-.38605-.07628,5.09937,5.09937,0,0,1-1.068-1.47673c-.03351-.06575-.05607-.18331-.1426-.1594a3.73483,3.73483,0,0,1-.56665.03472c-.011.00143-.01986.0706-.01908.10788a3.91542,3.91542,0,0,0,.58367,2.21282c.16986-.09934.30648-.39907.47926-.29632.13528.08056-.03109.37089-.03814.57071a1.06157,1.06157,0,0,1-.04448.19812.90233.90233,0,0,0,.72769.39394,1.93608,1.93608,0,0,0,.86731-.279c-.0106-.08425-.01914-.16908-.03216-.25333-.01559-.09991-.082-.23028.02732-.28464.10269-.05124.17577.078.25113.1426a1.89221,1.89221,0,0,1,.15406.16566,4.32481,4.32481,0,0,0,1.41432-1.51344c.108-.1668.12019-.2596-.127-.23483A.25916.25916,0,0,1,22.62529,11.27043Z" style="fill:#db7383"/><path d="M19.20787,12.81434a1.265,1.265,0,0,0,.39664.47251,1.06157,1.06157,0,0,0,.04448-.19812c.007-.19982.17342-.49015.03814-.57071C19.51435,12.41527,19.37773,12.715,19.20787,12.81434Z" style="fill:#dadddc"/><path d="M21.19467,12.86387c-.10937.05436-.04291.18473-.02732.28464.013.08425.02156.16908.03216.25333a.82748.82748,0,0,0,.40035-.22971,1.89221,1.89221,0,0,0-.15406-.16566C21.37044,12.94186,21.29736,12.81263,21.19467,12.86387Z" style="fill:#dadddc"/></svg>