<svg xmlns="http://www.w3.org/2000/svg" viewBox="0 0 32 32"><defs><style>.a{fill:#635c5c;}.b{fill:#5a5353;}.c{fill:#e3e5e5;}.d{fill:#dadddc;}.e{fill:#615853;}.f{fill:#54b668;}.g{fill:#413b3b;}.h{fill:#6e8fbd;}.i{fill:#3a3333;}.j{fill:#4eac5d;}.k{fill:#48a353;}.l{fill:#4f4949;}.m{fill:#687992;}.n{fill:#865193;}.o{fill:#945ba0;}.p{fill:#373f3f;}.q{fill:#db7383;}</style></defs><title>634-zweilous-shiny</title><path class="a" d="M12.153.00012a4.61778,4.61778,0,0,1-1.60282,3.23744c-.18644.17019-.16471.192.05136.27786,1.34118.53261,2.61086,1.21946,3.911,1.84062a.89122.89122,0,0,1,.5447.80413,7.09139,7.09139,0,0,1-.40706,2.65339l-.04194.04894-.005.00307c-.16071-.38187-.31972-.76447-.4843-1.14466-.0207-.04781-.0153-.11806-.08481-.13808-.00615.05547-.01413.11081-.01817.16643a2.16718,2.16718,0,0,1-.707,1.793c-.09927.07342-.19265.2151-.30606.18478-.087-.02326-.02152-.18993-.04659-.29063-.02319-.09311-.02986-.19022-.04628-.28514a3.47162,3.47162,0,0,0-.52392-1.51429l-.0279-.07244c-.00616.00408-.01591.00686-.01792.01244a.09691.09691,0,0,0,.04291.11958,2.612,2.612,0,0,1-.61273,1.88362c-.394.53541-.56276.57577-1.1305.23654A3.0055,3.0055,0,0,1,9.35,8.22382c-.02308-.06188-.05387-.1209-.08108-.18125a.848.848,0,0,0-.0643.20113,8.27327,8.27327,0,0,0,.038,1.79607c.00876.05555.04057.144.01857.16085-.0603.04612-.11866-.02411-.17824-.04665A2.30869,2.30869,0,0,1,7.76572,8.7617a1.04476,1.04476,0,0,0-.08489-.14046,1.03211,1.03211,0,0,0-.05652.16341c-.01329.07583-.00874.15464-.01966.23106a6.45444,6.45444,0,0,0-.04307,1.05746.214.214,0,0,1-.01506-.05042l-.03858-.05092q-.51174-.9306-1.0234-1.86122a1.03711,1.03711,0,0,1,.12363-1.29025A8.62548,8.62548,0,0,1,7.207,6.1841,29.0642,29.0642,0,0,1,9.99638,3.58658c.037-.02748.09553-.07069.0918-.0999-.01022-.08008-.08956-.04381-.13976-.0508A5.4854,5.4854,0,0,1,6.31116,1.09167C6.283,1.055,6.23707.99745,6.2486.97141,6.28321.89328,6.36681.93212,6.42617.936a4.49175,4.49175,0,0,1,3.14509,1.5531c.17453.194.31954.41445.47876.62225.02788.03638.07025.105.08636.09966.07463-.02473.03321-.09711.033-.14693a4.18433,4.18433,0,0,1,.111-1.15261A2.68994,2.68994,0,0,1,11.78838.13066c.0841-.04029.18842-.04353.24806-.13054Z"/><path class="b" d="M22.10987,3.43194c.14061-.03473.28493-.05437.42568-.08852a5.55812,5.55812,0,0,0,2.99309-2.04459c.08739-.10646.21541-.19641.21925-.35752a3.69479,3.69479,0,0,0-.43536.01082A4.66275,4.66275,0,0,0,21.98242,3.063c-.03658.0538-.08034.10247-.12076.15371-.07607-.06006-.03259-.14318-.02974-.21092a3.11372,3.11372,0,0,0-.6127-2.10209A3.57286,3.57286,0,0,0,19.96352,0H19.847c.00989.13492.00861.27183.03138.40448a4.79675,4.79675,0,0,0,1.63556,2.892c.12553.10845.10638.13606-.03345.18957-1.35781.51976-2.62753,1.2288-3.9428,1.84022a.92736.92736,0,0,0-.59426.83372,7.04065,7.04065,0,0,0,.4064,2.65372l.042.049.00484.00285c.16474-.39053.32841-.78192.49614-1.171.01686-.03928.00925-.101.073-.11158.006.04582.01224.09137.01793.13719.03593.28664.06988.57356.108.85991A1.70763,1.70763,0,0,0,18.849,9.66932c.12468.10019.17264.10845.19071-.08739a4.56982,4.56982,0,0,1,.4607-1.78186,1.64662,1.64662,0,0,1,.1135-.1631l.02789-.07259c.00612.00427.01587.00684.01786.01253a.09672.09672,0,0,1-.04291.11955A2.854,2.854,0,0,0,20.55,9.95538a.26677.26677,0,0,0,.33182.07A2.84891,2.84891,0,0,0,22.64991,8.2239c.0237-.06177.05394-.121.08112-.18132a.84807.84807,0,0,1,.06433.201,8.28983,8.28983,0,0,1-.04156,1.82485c-.00725.04611-.0343.11812-.01572.1335.05031.041.10247-.01452.15335-.03416a2.33551,2.33551,0,0,0,1.3428-1.40585,1.03192,1.03192,0,0,1,.08483-.1409.55043.55043,0,0,1,.05586.1631,4.48333,4.48333,0,0,1,.03486,1.183c-.008.03074.01829.0703.02868.10588a.20862.20862,0,0,0,.015-.05038l.03857-.05067q.50478-.918,1.00963-1.83537a1.02336,1.02336,0,0,0-.1303-1.3364A31.47826,31.47826,0,0,0,22.0501,3.62151c-.05174-.04042-.14318-.10162-.13535-.13321C21.93852,3.39124,22.04184,3.44873,22.10987,3.43194Z"/><path class="c" d="M6.5112,31.46741,5.04193,32H4.98364a1.61145,1.61145,0,0,1,.54174-1.25187.29923.29923,0,0,0,.10024-.24969c-.00049-.20158.0046-.40317.00735-.60475a.80561.80561,0,0,1,.04115.45074c-.01663.2765.03685.45611.35369.53372A.58469.58469,0,0,1,6.5112,31.46741Z"/><path class="d" d="M26.36692,29.89348a1.20756,1.20756,0,0,0-.042.56587.32185.32185,0,0,1-.27311.38427.65388.65388,0,0,0-.56317.62394q.7347.266,1.4694.53228h.05828a1.16816,1.16816,0,0,0-.27447-.91428A1.41676,1.41676,0,0,1,26.36692,29.89348Z"/><polygon class="e" points="9.878 28.555 9.878 28.555 9.876 28.557 9.878 28.555"/><path class="b" d="M15.83655,16.31858c-.21426.39053-.41643.7876-.62528,1.18126-.03751.0706-.067.18986-.1799.068-.31574-.341-.72107-.602-.77088-1.1454a9.267,9.267,0,0,1-.30393-2.52165c.07885-.448.12745-.90146.18971-1.35262l-.082-.08283a2.05584,2.05584,0,0,0-.61754.82631c-.01672.03758-.00825.11187-.08.08967-.02349-.00712-.03765-.05978-.04732-.09422-.06-.2132-.11756-.42753-.17591-.6413-.24152.19242-.46.41074-.711.5949a1.25915,1.25915,0,0,1-1.07816.14232,6.09593,6.09593,0,0,1-.92295-.24991c-.06582-.02448-.13919-.082-.21782-.02163.1061.3985.20686.7987.32107,1.19493.04875.16907.01708.2038-.14652.13492-.28286-.119-.5695-.22886-.85457-.34271l-.05949.0074c.3699.56416.73652,1.13031,1.11153,1.69078a1.36683,1.36683,0,0,1,.22.52972c.08212.47535.16068.951.22964,1.42833.0116.08027.081.191-.04711.25334.24714.30343.05067.63333.04917.94985-.0005.123-.10524.043-.1515.01907-.2322-.11926-.45934-.24849-.69054-.37-.04775-.02534-.10418-.08-.15741-.03729-.05935.04753.0074.10531.01537.15854.01857.12411.12638.22089.11236.35581a1.018,1.018,0,0,1,.23085.44632l.01039-.0057c.03287.02306.05842.04868.03444.09251l-.03658-.02988-.05685-.01623a5.81382,5.81382,0,0,0-1.528-.50268c-.178-.02419-.22287.01053-.13328.18758a11.45864,11.45864,0,0,0,.62038,1.0731l.10894.12952.0501.05693.02968.037c-.04128.02846-.06248,0-.08348-.02932l-.06924-.05664-.10567-.0649c-.42013-.18872-.79059-.47251-1.22218-.63931a.09007.09007,0,0,1-.00107.05579c.05678.11215.10546.22942.17221.33531.10987.1742.11321.27155-.127.33019-.3277.08-.64508.20266-.96622.30912-.06113.02021-.15407.0111-.16076.09365-.00227.02817.08362.06774.13336.09478.18715.10105.3721.20779.56544.29575.19562.0888.16574.152.012.26386a20.0515,20.0515,0,0,0-1.66032,1.31847c-.06234.05635-.18424.10987-.159.18644.03046.09251.16467.06347.25355.07713.35231.05295.71232.04526,1.06086.13151.52133-.00569.52076-.00569.30243.45941-.09065.193-.16715.394-.27083.57954-.0871.156-.01929.19412.11677.22686.171.04127.43913-.04327.48966.13292.03807.13293-.13592.32507-.21142.49272-.15933.35324-.31766.70734-.47172,1.06314-.01993.04611-.08469.10532-.01964.15143.0259.0185.09293-.00968.13591-.02875a11.64088,11.64088,0,0,0,1.084-.49471c.26266-.15.25632-.04127.24323.16424-.04.62821-.06753,1.25727-.11343,1.88491-.01722.236.05622.25817.25511.1742a5.468,5.468,0,0,0,.95882-.485c.1367-.0928.18281-.10077.18559.09535a2.08089,2.08089,0,0,0,.05558.88439l.063-.04981a8.75584,8.75584,0,0,1,1.04806-.88154c.09621-.15713.1367-.03473.15449.041.08838.37743.167.75715.24906,1.13629a1.33537,1.33537,0,0,0,.2934.62593,7.74059,7.74059,0,0,1,.70008-1.12235c.07244-.117.13919-.02846.20921.02391.508.37972,1.02913.74349,1.52284,1.14085.19448.15656.24935.07657.33474-.0834.07657-.14346.17128-.27724.258-.41529.2228-.40989.23383-.42412.61326-.13037a4.20893,4.20893,0,0,0,.65909.48048L16,29.30882V16.12843C15.90828,16.13185,15.8764,16.24571,15.83655,16.31858Z"/><polygon class="e" points="9.942 28.505 9.941 28.505 9.939 28.507 9.942 28.505"/><polygon class="e" points="22.061 28.507 22.058 28.505 22.058 28.505 22.061 28.507"/><path class="f" d="M13.14342,12.64572c-.24152.19265-.46.41094-.711.595a1.25888,1.25888,0,0,1-1.07816.14244,6.11545,6.11545,0,0,1-.923-.25c-.06576-.02452-.13917-.08187-.21783-.02156a.52381.52381,0,0,0-.25377-.1804,4.56632,4.56632,0,0,1-2.39812-2.858,6.45444,6.45444,0,0,1,.04307-1.05746c.01092-.07642.00637-.15523.01966-.23106a1.03211,1.03211,0,0,1,.05652-.16341,1.04476,1.04476,0,0,1,.08489.14046A2.30869,2.30869,0,0,0,9.08287,10.154c.05958.02254.11794.09277.17824.04665.022-.01683-.00981-.1053-.01857-.16085a8.27327,8.27327,0,0,1-.038-1.79607.848.848,0,0,1,.0643-.20113c.02721.06035.058.11937.08108.18125a3.0055,3.0055,0,0,0,1.29,1.59285c.56774.33923.73652.29887,1.1305-.23654a2.61217,2.61217,0,0,0,.61276-1.88364l.00288-.05956A3.47162,3.47162,0,0,1,12.91,9.15122c.01642.09492.02309.192.04628.28514.02507.1007-.04038.26737.04659.29063.11341.03032.20679-.11136.30606-.18478a2.16718,2.16718,0,0,0,.707-1.793c.004-.05562.012-.111.01817-.16643.06951.02.06411.09027.08481.13808.16458.38019.32359.76279.4843,1.14466a13.07436,13.07436,0,0,1-.36938,1.75187A6.4667,6.4667,0,0,1,13.14342,12.64572Zm-.8996-.89958c-.01616-.04863-.02211-.12447-.091-.11983-.11627.00783-.13761.11678-.16548.20439-.01962.06166.00956.12172.0802.11816C12.18467,11.943,12.21081,11.8424,12.24382,11.74614ZM10.954,11.939c-.05387.00867-.13541.0019-.11751.08045.02359.10349.13.12823.22.15445.05889.01717.13666-.0022.13106-.06556C11.17605,11.97841,11.04244,11.98614,10.954,11.939Z"/><path class="g" d="M10.98812,18.00829c.24713.30336.05063.63325.04917.94994-.00056.12294-.10528.04273-.15151.019-.23222-.11939-.45938-.24859-.69053-.37014-.04775-.02511-.1042-.07986-.15741-.03728-.05938.04753.00734.10524.01532.15856.01861.12424.12642.22086.11236.356-.60973-.35679-1.233-.69257-1.82584-1.07554A5.6868,5.6868,0,0,0,5.772,17.18757c-1.618-.17108-3.231-.38984-4.84543-.594C.841,16.58278.72621,16.61177.67489,16.497c.55185-.32111,1.10208-.645,1.65649-.96169.174-.0994.06272-.15739-.01813-.22529q-.72432-.60828-1.44874-1.21644c-.04306-.03626-.11883-.09288-.11086-.1196.02583-.08658.11455-.04152.17359-.03971a19.56912,19.56912,0,0,1,3.22433.43247c1.035.20632,2.06292.44805,3.09492.66973a.97354.97354,0,0,1,.43468.21549Q9.331,16.63442,10.98812,18.00829Z"/><path class="h" d="M7.50794,9.97183l.03858.05092Z"/><path class="i" d="M29.72819,15.26881c.48084-.39252.95356-.79529,1.42856-1.19521.03565-.02989.09706-.07572.09094-.1002-.01879-.07514-.0955-.04326-.14574-.03985-.36754.02448-.73651.03985-1.10171.08511a50.34321,50.34321,0,0,0-5.27493,1.02443.72483.72483,0,0,0-.31716.13407q-1.69634,1.41795-3.39622,2.83106c-.24721.30343-.05066.63333-.04924.94985.0005.123.10517.0427.1515.01907.24095-.12325.47756-.25561.71666-.38256.04042-.02135.0871-.0612.13207-.0259.05088.03985-.00121.0871-.00725.13179-.01844.13492-.13379.2391-.12112.3837.8461-.489,1.67555-1.00679,2.542-1.46079a2.99345,2.99345,0,0,1,1.04592-.32051q2.81253-.34114,5.62213-.70534c.09542-.01224.21818.01764.28051-.10048-.52666-.30656-1.04827-.62252-1.58261-.91484C29.52539,15.46322,29.5747,15.39434,29.72819,15.26881Z"/><path class="j" d="M24.37492,8.78408a.55043.55043,0,0,0-.05586-.1631,1.03192,1.03192,0,0,0-.08483.1409,2.33551,2.33551,0,0,1-1.3428,1.40585c-.05088.01964-.103.07514-.15335.03416-.01858-.01538.00847-.08739.01572-.1335a8.28983,8.28983,0,0,0,.04156-1.82485.84807.84807,0,0,0-.06433-.201c-.02718.06035-.05742.11955-.08112.18132a2.84891,2.84891,0,0,1-1.76806,1.80151.26677.26677,0,0,1-.33182-.07,2.854,2.854,0,0,1-.93328-2.25892L19.61391,7.637a1.64662,1.64662,0,0,0-.1135.1631,4.56982,4.56982,0,0,0-.4607,1.78186c-.01807.19584-.066.18758-.19071.08739A1.70763,1.70763,0,0,1,18.09178,8.58c-.03814-.28635-.07209-.57327-.108-.85991-.00569-.04582-.012-.09137-.01793-.13719-.06376.01053-.05615.0723-.073.11158-.16773.3891-.3314.78049-.49621,1.171.04761.34328.09144.68684.14346,1.02955A7.862,7.862,0,0,0,18.747,13.06c.20551.21605.40127.44262.61853.64586a1.02507,1.02507,0,0,0,1.34273.25276,3.64872,3.64872,0,0,1,.95277-.44233,1.00562,1.00562,0,0,1,.29041-.23284,5.86782,5.86782,0,0,0,2.48706-3.21049c-.01039-.03558-.03665-.07514-.02868-.10588A4.48333,4.48333,0,0,0,24.37492,8.78408Zm-1.36074,2.87461a4.32481,4.32481,0,0,1-1.41432,1.51344.82748.82748,0,0,1-.40035.22971,1.93608,1.93608,0,0,1-.86731.279.90255.90255,0,0,1-.72776-.39394,1.26542,1.26542,0,0,1-.39657-.47251,3.91542,3.91542,0,0,1-.58367-2.21282c-.00078-.03728.00805-.10645.01908-.10788a3.73483,3.73483,0,0,0,.56665-.03472c.08653-.02391.10909.09365.1426.1594a5.09937,5.09937,0,0,0,1.068,1.47673.32082.32082,0,0,0,.38605.07628,5.01381,5.01381,0,0,0,1.56668-.92907c.11407-.10532.17683-.12809.25205.02817a.25916.25916,0,0,0,.26187.15343C23.13437,11.39909,23.1222,11.49189,23.01418,11.65869Z"/><path class="h" d="M24.45349,10.0227l.03856-.05087Z"/><path class="j" d="M7.13805,23.25446c.52134-.00558.52078-.00584.30248.45931-.09064.19314-.16715.39391-.27083.57963-.08713.15606-.01934.194.11675.2269.171.0413.43911-.04317.48965.133.03811.13291-.13589.325-.21141.49251-.15934.35352-.31769.70751-.47169,1.06336-.01995.0461-.08473.10524-.01969.15133.02594.01838.093-.00974.136-.02873A11.68219,11.68219,0,0,0,8.29322,25.837c.26264-.14986.25635-.04133.24325.16437-.04.6282-.06757,1.25724-.11345,1.885-.01723.23577.0562.25805.25514.17415A5.46259,5.46259,0,0,0,9.637,27.5754c.13672-.09265.1828-.10077.18563.09535a2.081,2.081,0,0,0,.05553.88442c-.23485.18514-.46846.3719-.7049.555A1.26667,1.26667,0,0,0,8.7,30.06629c-.02373.26065.04135.54939-.15783.77766-.12-.11143-.23753-.22562-.36083-.33321a.339.339,0,0,0-.25248-.12326.88568.88568,0,0,0-.69039.96047l-.72724.11948a.58466.58466,0,0,0-.48337-.58928c-.31684-.07761-.37032-.25722-.35369-.53372a.80561.80561,0,0,0-.04115-.45074c-.00161-.368.02378-.73853-.01059-1.10343a2.37593,2.37593,0,0,1,.7188-1.83226c.10567-.12129.26988-.22582-.02649-.348-.15225-.06279-.12582-.27306-.08994-.42473A18.54659,18.54659,0,0,1,7.13805,23.25446Z"/><path class="k" d="M25.56252,26.68726c.25689-.08454.25959-.29716.21177-.50182a18.24673,18.24673,0,0,0-.91235-2.931c-.10681,0-.21412.00712-.32029-.00114-.19114-.0148-.18488.06262-.11251.2001.08561.16282.15584.33389.23248.50126.07237.15855.23562.34783.19505.46824-.06.17875-.3183.09962-.49022.13378-.179.03558-.18146.10446-.103.25191a12.70479,12.70479,0,0,1,.64514,1.39987c.01715.04441.054.10931.03722.13293-.0422.05921-.10852.00911-.15463-.0111a10.97883,10.97883,0,0,1-1.08449-.49329c-.26273-.15-.25632-.04127-.24323.16424.04.62849.0676,1.25727.1135,1.88519.01722.23569-.05629.25789-.25518.17392a5.46737,5.46737,0,0,1-.95875-.485c-.13677-.0928-.18281-.10077-.18566.09535a2.083,2.083,0,0,1-.05543.88439c.12873.10076.2512.2112.38747.30058a1.5488,1.5488,0,0,1,.80611,1.38564c-.00285.19584-.04313.43579.14232.60259.05066-.04383.10169-.08738.15207-.13179.19213-.16879.32869-.44376.67453-.2317a.87723.87723,0,0,1,.4772.8676l.727.11955a.65388.65388,0,0,1,.56317-.62394.32185.32185,0,0,0,.27311-.38427,1.20667,1.20667,0,0,1,.04206-.56587c.04127-1.11751.12731-2.247-.83785-3.09236C25.47015,26.7496,25.47883,26.71487,25.56252,26.68726Z"/><path class="b" d="M9.44154,14.06842,9.474,14.106l.0595-.00732C9.51173,14.06158,9.48451,14.04107,9.44154,14.06842Z"/><path class="b" d="M14.2314,12.32989l-.03839.02783a.18357.18357,0,0,0-.12878.10767l.082.08276.05694-.12866C14.23488,12.39654,14.25679,12.37066,14.2314,12.32989Z"/><path class="l" d="M24.862,23.25445c.34845-.08618.70856-.07861,1.06086-.13159.08886-.01343.223.01538.25348-.07691.0252-.07666-.09675-.13037-.15906-.18652a21.25735,21.25735,0,0,0-1.68292-1.33691c-.12934-.095-.15894-.1521.00915-.23145.201-.09472.3952-.2041.591-.30981.04975-.02661.13556-.06665.13331-.09473-.00672-.08252-.09974-.07324-.16071-.09375q-.30222-.10216-.606-.2c-.61035-.19678-.61047-.19653-.31506-.77466h0c.03149-.02246.06-.04614.03326-.09009l-.0343.03443a.087.087,0,0,0,.00055.02783.08682.08682,0,0,1-.00055-.02783c-.43164.16675-.802.45044-1.22217.6394l-.10571.0647-.06927.05664c-.02094.0293-.04212.05786-.08338.0293l.02966-.03687.05-.05713.109-.12915a8.529,8.529,0,0,0,.59033-1.02368c.03351-.07227.12757-.15283.06153-.22534-.03406-.03735-.14667-.01245-.22162-.00171a5.81009,5.81009,0,0,0-1.47113.49243l-.05689.01636-.03662.02978c-.024-.0437.00165-.06933.03443-.09253l.01049.00562a1.01687,1.01687,0,0,1,.2309-.44629c-.0127-.14453.10266-.24853.12109-.38354.00605-.04468.05817-.09205.00727-.13184-.045-.0354-.09162.00464-.13208.02588-.23908.127-.47571.25928-.71662.38257-.04632.02368-.151.104-.15155-.01905-.0014-.3164-.19793-.64648.04926-.95-.14038-.199-.02039-.40185.00494-.59692A3.77474,3.77474,0,0,1,21.6465,15.429c.3269-.41431.58862-.88013.87946-1.323l.03253-.03759c-.043-.02759-.07025-.00684-.092.03027-.27753.11011-.55445.22168-.833.32935-.058.02246-.12457.08178-.17871.03491-.02393-.02051.00232-.10669.01507-.16065.062-.26269.12714-.52417.19111-.78613a3.6477,3.6477,0,0,0-.95276.44238,1.025,1.025,0,0,1-1.34272-.25268c-.21728-.20337-.413-.42993-.61853-.64575a.86756.86756,0,0,1-.04589.135c-.03315.06275.01294.18506-.08442.18628-.07727.00049-.07269-.11767-.10455-.18164a2.04246,2.04246,0,0,0-.57611-.73437.18457.18457,0,0,0-.129-.10767l-.03845-.02783c-.02539.041-.00342.06665.0282.08936l.05682.12866c.03388.20044.07837.3999.09955.6018A6.482,6.482,0,0,1,18.06593,14.71c-.06445.46972-.20861.92871-.26373,1.39868a1.99544,1.99544,0,0,1-.76727,1.4021c-.12921.103-.18128.13843-.26544-.0332-.1922-.39112-.39844-.77491-.60334-1.15992-.03985-.07495-.092-.18921-.15106-.19775-.0072-.001-.0086.00806-.01507.00854V29.30889c.27423-.187.5542-.36865.80987-.57934.19428-.15967.30853-.1499.39789.08691a1.3471,1.3471,0,0,0,.08112.1543c.06866.10376.13983.2063.20532.312.206.33252.20276.33008.52655.08447.45947-.34863.9237-.69091,1.38379-1.03881.06982-.053.13678-.14087.20923-.02393a7.76979,7.76979,0,0,1,.70007,1.12231,1.33458,1.33458,0,0,0,.29333-.62573c.082-.37915.16083-.759.249-1.13647.01812-.0774.05877-.196.15454-.041a8.74061,8.74061,0,0,1,1.04767.88135c.02191.01709.04382.03467.06579.05225l-.0022-.0022a2.082,2.082,0,0,0,.05542-.88428c.00287-.196.04889-.18823.18567-.09546a5.4749,5.4749,0,0,0,.95874.48511c.19892.084.2724.06177.25519-.17383-.0459-.62793-.07348-1.25683-.11346-1.88525-.01313-.20557-.01953-.31421.24322-.16431a10.984,10.984,0,0,0,1.08447.49341c.04609.02026.11243.07031.15461.011.01684-.02344-.02-.08838-.03717-.13282a12.71186,12.71186,0,0,0-.64515-1.3999c-.07849-.14746-.07611-.21631.103-.252.17188-.03418.43024.04492.49017-.13379.04059-.12036-.12268-.30957-.195-.46826-.07666-.16748-.14691-.33838-.23249-.50122-.07238-.13746-.07867-.21485.11249-.2002C24.64784,23.26153,24.75514,23.25445,24.862,23.25445Z"/><path class="h" d="M17.34982,8.8136l.042.049C17.35912,8.86226,17.34674,8.84456,17.34982,8.8136Z"/><path class="h" d="M14.60824,8.8625l.04194-.04894C14.65321,8.84464,14.64085,8.86227,14.60824,8.8625Z"/><path class="m" d="M12.38611,7.63693l-.00288.05956a.09686.09686,0,0,1-.04294-.11956c.002-.00558.01176-.00836.01792-.01244Z"/><path class="m" d="M19.61391,7.637l.00284.05949a.09672.09672,0,0,0,.04291-.11955c-.002-.00569-.01174-.00826-.01786-.01253Z"/><path class="n" d="M19.40455,28.32851c-.46.34784-.9243.69-1.38379,1.03867-.32378.24564-.32058.2482-.52652-.08426-.06554-.10589-.1367-.20836-.20529-.31225a9.84123,9.84123,0,0,1-.6201,1.39219c-.09429.17277-.09116.26272.13307.25191a9.1337,9.1337,0,0,0,3.45457-1.06172l.05736-.1261a7.75448,7.75448,0,0,0-.70008-1.12235C19.54132,28.18762,19.47436,28.27557,19.40455,28.32851Z"/><path class="o" d="M11.68616,29.4269a7.74781,7.74781,0,0,1,.70008-1.12228c.07244-.117.13919-.02858.20924.02382.508.38,1.0291.74341,1.5228,1.141.19454.15665.24941.07653.33476-.08343.07655-.14347.17131-.27723.25807-.41529a9.43564,9.43564,0,0,0,.63416,1.41671c.11243.20163.01239.22316-.14692.22733a9.13217,9.13217,0,0,1-3.45483-1.06153Z"/><path class="j" d="M15.32434,28.8403c-.37943-.29375-.39046-.27952-.61326.13037a9.44787,9.44787,0,0,0,.63418,1.41667c.11244.20181.01238.22316-.147.22743A6.16558,6.16558,0,0,0,16,30.66742v-1.3586C15.99439,29.31281,15.50971,28.98405,15.32434,28.8403Z"/><path class="k" d="M16.66885,30.36286a9.83173,9.83173,0,0,0,.62-1.39219,1.3423,1.3423,0,0,1-.08112-.15428c-.08931-.23682-.20359-.2465-.39786-.08681-.25568.21063-.53563.39223-.80988.57924v1.3586a6.1704,6.1704,0,0,0,.80191-.05265C16.57769,30.62558,16.57456,30.53563,16.66885,30.36286Z"/><path class="c" d="M7.23842,31.348a.88568.88568,0,0,1,.69039-.96047.339.339,0,0,1,.25248.12326c.1233.10759.24086.22178.36083.33321.125.24954.25256.49785.37309.74952.02787.05819.06464.15018.03942.18744-.046.068-.12058-.01038-.18082-.02437C8.25776,31.63676,7.76713,31.42117,7.23842,31.348Z"/><path class="d" d="M24.28447,30.48041c-.34584-.21206-.4824.06291-.67453.2317-.05038.04441-.10141.088-.15207.13179-.125.24963-.25262.49784-.3731.74947-.02789.05835-.06461.15029-.03935.18758.046.068.12055-.01053.18082-.02448.51613-.11984,1.00671-.3356,1.53543-.40846A.87723.87723,0,0,0,24.28447,30.48041Z"/><path class="j" d="M11.68616,29.4269l.05736.12629a9.39984,9.39984,0,0,1-1.555-.90606c-.07925-.05332-.14288-.13509-.24945-.13989a8.69806,8.69806,0,0,1,1.05013-.88339,5.48063,5.48063,0,0,0,.40362,1.177A1.334,1.334,0,0,0,11.68616,29.4269Z"/><path class="k" d="M20.60717,28.80074a1.335,1.335,0,0,1-.29332.62621l-.05736.1261c.13905-.06661.28407-.12354.41608-.20238.46525-.277.92594-.5616,1.38834-.8434a8.702,8.702,0,0,0-1.05019-.88353A5.47,5.47,0,0,1,20.60717,28.80074Z"/><path class="h" d="M9.87573,28.557l.06622-.05237A.05933.05933,0,0,1,9.87573,28.557Z"/><path class="h" d="M22.058,28.50468l.06618.05233A.05929.05929,0,0,1,22.058,28.50468Z"/><path class="n" d="M20.85616,27.66473c-.08817.37743-.16694.75715-.249,1.136a5.47,5.47,0,0,0,.40355-1.177C20.91494,27.46861,20.87431,27.5873,20.85616,27.66473Z"/><path class="o" d="M11.39281,28.8009a5.48063,5.48063,0,0,1-.40362-1.177c.09628-.15709.13674-.03489.15452.04107C11.23207,28.04233,11.31073,28.422,11.39281,28.8009Z"/><path class="p" d="M12.24382,11.74614c-.033.09626-.05915.19682-.17626.20272-.07064.00356-.09982-.0565-.0802-.11816.02787-.08761.04921-.19656.16548-.20439C12.22171,11.62167,12.22766,11.69751,12.24382,11.74614Z"/><path class="p" d="M10.954,11.939c.08844.04714.222.03941.23353.16934.0056.06336-.07217.08273-.13106.06556-.08995-.02622-.19639-.051-.22-.15445C10.81859,11.9409,10.90013,11.94767,10.954,11.939Z"/><path class="q" d="M22.62529,11.27043c-.07522-.15626-.138-.13349-.25205-.02817a5.01381,5.01381,0,0,1-1.56668.92907.32082.32082,0,0,1-.38605-.07628,5.09937,5.09937,0,0,1-1.068-1.47673c-.03351-.06575-.05607-.18331-.1426-.1594a3.73483,3.73483,0,0,1-.56665.03472c-.011.00143-.01986.0706-.01908.10788a3.91542,3.91542,0,0,0,.58367,2.21282c.16986-.09934.30648-.39907.47926-.29632.13528.08056-.03109.37089-.03814.57071a1.06157,1.06157,0,0,1-.04448.19812.90233.90233,0,0,0,.72769.39394,1.93608,1.93608,0,0,0,.86731-.279c-.0106-.08425-.01914-.16908-.03216-.25333-.01559-.09991-.082-.23028.02732-.28464.10269-.05124.17577.078.25113.1426a1.89221,1.89221,0,0,1,.15406.16566,4.32481,4.32481,0,0,0,1.41432-1.51344c.108-.1668.12019-.2596-.127-.23483A.25916.25916,0,0,1,22.62529,11.27043Z"/><path class="d" d="M19.20787,12.81434a1.265,1.265,0,0,0,.39664.47251,1.06157,1.06157,0,0,0,.04448-.19812c.007-.19982.17342-.49015.03814-.57071C19.51435,12.41527,19.37773,12.715,19.20787,12.81434Z"/><path class="d" d="M21.19467,12.86387c-.10937.05436-.04291.18473-.02732.28464.013.08425.02156.16908.03216.25333a.82748.82748,0,0,0,.40035-.22971,1.89221,1.89221,0,0,0-.15406-.16566C21.37044,12.94186,21.29736,12.81263,21.19467,12.86387Z"/></svg>