<svg xmlns="http://www.w3.org/2000/svg" viewBox="0 0 32 32"><defs><style>.a{fill:#413b3b;}.b{fill:#5a5353;}.c{fill:#736c6e;}.d{fill:#4f4949;}.e{fill:#93357b;}.f{fill:#617da7;}.g{fill:#a53f83;}.h{fill:#567b9b;}.i{fill:#8c3179;}.j{fill:#b1aeaf;}.k{fill:#5f82a0;}.l{fill:#6789a5;}.m{fill:#615b5d;}.n{fill:#7290ab;}.o{fill:#4c7495;}.p{fill:#858c9c;}.q{fill:#8f5a78;}.r{fill:#b8aeb4;}.s{fill:#86727e;}.t{fill:#635c5c;}.u{fill:#9b3a7d;}.v{fill:#ad4586;}.w{fill:#7c98b0;}</style></defs><title>635-hydreigon</title><path class="a" d="M18.49657,28.61979c-.06368.11917-.12652.18116-.278.08945-.11994-.07275-.25956-.18285-.422-.07246.03864.08435.16608.15483.11831.24314-.0501.09227-.16657.03283-.25474.00679-.07289-.02151-.18059-.05633-.21208.00226-.04592.08492.09766.12426.11223.21a3.63806,3.63806,0,0,0,1.0441.18058H19.071c.14337-.01132.28709-.01981.43-.03566a.36049.36049,0,0,0,.10175-.0467.52178.52178,0,0,0-.08994-.04925A4.29721,4.29721,0,0,1,18.49657,28.61979Z"/><path class="b" d="M17.19858,15.85423c.099-.23012.18653-.23493.31291-.0218.08229.139.18476.26607.27817.39826.27-.4826.26436-.47694.6525-.08407.24158.24484.50475.46817.75532.70423a.1166.1166,0,0,0,.15391.01868c.06212-.31985.12319-.63969.1878-.959.007-.03482.02675-.08265.05364-.09426.06177-.02689.07465.04246.09843.07642.1048.14889.20471.30145.3064.4526l.06439.05774.04734.04756.00446.06566q.63474.69164,1.27054,1.38185a.40344.40344,0,0,1,.08117.24145c.06043.41014.117.82084.18,1.2307.00764.04925-.00418.12992.06595.13728.03241.00368.07607-.04954.10657-.08407.14067-.15907.28262-.3173.41594-.4826.10558-.13077.15568-.11067.19.04614a7.05111,7.05111,0,0,0,.464,1.30514c.03219.07416.03672.20323.13119.19418.08116-.00793.08569-.13474.1164-.21286a5.35075,5.35075,0,0,0,.22913-1.07276c-.00983-.11492-.02292-.21229.13282-.08152a5.6098,5.6098,0,0,0,1.49055.84774.747.747,0,0,0,.167.02915,8.79135,8.79135,0,0,0-.45005-1.35864c-.01444-.04557-.04133-.08689-.05867-.13162-.19452-.50071-.10685-.6278.45168-.65611l.1152-.00594c-.06977-.13813.0644-.13587.12554-.167.33994-.17323.68392-.33881,1.02648-.50694-.2297.02462-.46144.03623-.68859.07529a2.82922,2.82922,0,0,1-2.46834-.57941c-.37264-.31843-.78249-.595-1.16412-.906A4.87814,4.87814,0,0,1,20.70054,13.51a10.77915,10.77915,0,0,1-.51628-1.019c-.08548-.14209.08414-.0835.13042-.08407.46972-.00509.93951-.00057,1.4093-.00057.1244,0,.2488-.00679.3732-.01075a13.258,13.258,0,0,0-1.75505-.04557c-.22884-.00029-.36464-.066-.40476-.29522a4.24441,4.24441,0,0,1-.63722-.63658c-.3819-.09454-.77782-.04727-1.16227-.11521-.19035.49987-.356,1.00795-.56065,1.50385a1.29472,1.29472,0,0,1-1.24118.80868A2.32918,2.32918,0,0,0,16,13.66936v3.87779a.25554.25554,0,0,0,.1779-.107A8.136,8.136,0,0,0,17.19858,15.85423Z"/><polygon class="c" points="25.155 19.997 25.156 19.996 25.155 19.996 25.155 19.997"/><path class="d" d="M31.99991,9.68034c-.0772-.1152-.19439-.05576-.29013-.05576-1.795-.0051-3.59007.03793-5.38467.03934a15.91911,15.91911,0,0,0-4.64627.6646c.05052.09256.15249.11181.2316.16389.07536.04982.21286.05321.20026.17436-.00948.09227-.12688.10756-.20288.13954-.43356.18257-.87314.35127-1.304.5395a2.55648,2.55648,0,0,1-1.30366.07246,4.24441,4.24441,0,0,0,.63722.63658c.54473-.1254,1.08663-.26437,1.63469-.37306a15.12607,15.12607,0,0,1,3.39886-.64083c.70423.02151,1.4086.04642,2.11255.06567a5.68711,5.68711,0,0,1,2.53846.70593c.30364.16048.6116.31277.91758.46873a14.63929,14.63929,0,0,0-.66326-1.332c-.05986-.12-.06729-.17945.07954-.22191A7.2723,7.2723,0,0,0,31.99991,9.68034Z"/><path class="d" d="M25.64961,12.81965a1.81716,1.81716,0,0,0-.671-.25135,20.39177,20.39177,0,0,0-2.88146-.17266c-.1244.004-.2488.01075-.3732.01075-.46979,0-.93958-.00452-1.4093.00057-.04628.00057-.2159-.058-.13042.08407a10.77915,10.77915,0,0,0,.51628,1.019c.65392.11492,1.30847.22587,1.96147.34617a6.7673,6.7673,0,0,1,2.48766.78207,2.23833,2.23833,0,0,0,.64316.3139.09267.09267,0,0,1,.00035-.05661c-.0426-.08605-.0881-.171-.12687-.25871-.02548-.058-.0414-.12-.06157-.1803.05619.00651.11308.01019.16856.02066q1.4321.27173,2.8639.54459c.04515.00849.09121.01189.13679.01755a.63759.63759,0,0,0-.09164-.107A33.14892,33.14892,0,0,0,25.64961,12.81965Z"/><path class="e" d="M19.35146,16.86953a.11669.11669,0,0,1-.154-.01868c-.25057-.23606-.51374-.45939-.75532-.70423-.38814-.39287-.38247-.39853-.6525.08407a17.46821,17.46821,0,0,1,.12447,1.95559,10.2061,10.2061,0,0,1-.88666,4.11159c-.02547.05548-.15589.14294.01026.1987q.08545-.00637.17082-.013.25953-.07939.51883-.15851a2.8635,2.8635,0,0,0,.76488-.35721,7.269,7.269,0,0,0,.83584-2.37507,9.11022,9.11022,0,0,0,.04529-2.37847C19.36087,17.09993,19.35853,16.98445,19.35146,16.86953Z"/><path class="f" d="M25.15505,19.9961l.00014.00057.02441.01274-.02392-.01331Z"/><path class="g" d="M28.09757,18.66718A1.36112,1.36112,0,0,1,27.966,18.563a1.117,1.117,0,0,1,.162-.058,2.7014,2.7014,0,0,0,1.06753-.49137c.15369-.11039.18278-.18285-.03008-.25135-.37582-.1203-.74456-.26352-1.1225-.37617a3.87239,3.87239,0,0,0-1.67771-.21625c-.34256.16813-.68654.33371-1.02648.50694-.06114.03113-.19531.02887-.12554.167a3.90694,3.90694,0,0,1,.7941.12935,1.13823,1.13823,0,0,1,.91616.85227,4.8085,4.8085,0,0,1,.19517,1.73651.85036.85036,0,0,1-.34617.6963c.282.09766.566.18965.84518.29466.21385.08039.2878.047.23748-.20125a4.775,4.775,0,0,0-.35381-1.12682c-.05477-.11435-.08046-.16672.09532-.12879a4.62823,4.62823,0,0,0,1.61169.01217c.299-.04019.30583-.05378.135-.28956A4.33626,4.33626,0,0,0,28.09757,18.66718Z"/><path class="h" d="M18.87848,21.78583a1.20222,1.20222,0,0,1-.38622.182,2.8635,2.8635,0,0,1-.76488.35721h0a10.83813,10.83813,0,0,1,.813,1.623c.05682.12935.0692.34476.18653.364.13168.02095.18879-.18794.26422-.302.12391-.18738.18292-.14068.25751.03113a4.0403,4.0403,0,0,1,.24965.85651c.01422.07388.02116.19644.15355.07445.11421-.10473.20755-.349.33379-.2924.12666.0569.102.3091.14365.47581.01394.05605.0254.11266.04338.16757.01429.0433.03163.11605.05661.12029.085.01359.05328-.07727.07805-.11916a.51317.51317,0,0,0,.04125-.13756,8.378,8.378,0,0,0-.30343-4.492A5.75159,5.75159,0,0,1,18.87848,21.78583Z"/><path class="i" d="M24.68985,20.27745c-.12808-.04642-.18087-.01585-.17075.12058.04494.60432.10395,1.20127.75539,1.50017.2861.01415.39408-.16247.39578-.40759.002-.28418-.02859-.56893-.04508-.85368A4.958,4.958,0,0,0,24.68985,20.27745Z"/><path class="j" d="M25.79283,14.95215l.03411.0334c.02575-.04387-.00276-.06737-.03376-.09A.09267.09267,0,0,0,25.79283,14.95215Z"/><path class="k" d="M20.45528,18.65671a13.45807,13.45807,0,0,0-.3461-2.07589l.00467-.06454-.00439-.06566-.04741-.04756-.06439-.05774c-.10169-.15115-.2016-.30371-.3064-.4526-.02378-.034-.03666-.10331-.09843-.07642-.02689.01161-.04664.05944-.05364.09426-.06461.31928-.12568.63912-.18773.959.00707.11492.00941.2304.02193.34476a9.11022,9.11022,0,0,1-.04529,2.37847,7.269,7.269,0,0,1-.83584,2.37507,1.20222,1.20222,0,0,0,.38622-.182,5.75159,5.75159,0,0,0,1.16666-1.09116A3.79637,3.79637,0,0,0,20.45528,18.65671Z"/><path class="l" d="M26.92347,18.82541a1.13823,1.13823,0,0,0-.91616-.85227,3.90694,3.90694,0,0,0-.7941-.12935l-.1152.00594c-.55853.02831-.6462.1554-.45168.65611.01734.04473.04423.08605.05867.13162a8.79135,8.79135,0,0,1,.45005,1.35864h.00063l.02392.01331-.02441-.01274-.00014-.00057a.747.747,0,0,1-.167-.02915,5.6098,5.6098,0,0,1-1.49055-.84774c-.15574-.13077-.14265-.0334-.13282.08152.31419.62837.54792,1.28986.80288,1.94286a1.06914,1.06914,0,0,0,1.10693.75461c-.65144-.2989-.71045-.89585-.75539-1.50017-.01012-.13643.04267-.167.17075-.12058a4.958,4.958,0,0,1,.93534.35948,8.79118,8.79118,0,0,0,1.14728.62129.85036.85036,0,0,0,.34617-.6963A4.8085,4.8085,0,0,0,26.92347,18.82541Zm-1.40492.39a.546.546,0,0,1-.34383-.23861.48582.48582,0,0,1-.01479-.46534.478.478,0,0,1,.06-.071.64226.64226,0,0,1,.07132.09595c.09256.19842.18278.398.27265.59752C25.58458,19.17979,25.59427,19.24319,25.51855,19.21545Z"/><polygon class="m" points="20.98 8.059 20.984 8.055 20.98 8.059 20.98 8.059"/><path class="d" d="M30.00632,7.0842a6.6189,6.6189,0,0,0-1.18627-.36372c-.056-.01245-.11577-.01585-.15093-.07189.047-.02887.092-.06171.14131-.08577A3.16789,3.16789,0,0,0,30.1443,5.35675c.03262-.05293.09829-.109.05732-.17068-.01359-.02067-.1065.00821-.16226.01924-1.63568.3224-3.27029.65017-4.8928,1.0337a8.25163,8.25163,0,0,0-2.28394.70225c-.59327.33994-1.17777.69517-1.76623,1.04389l-.05378.02463-.06213.049-.05746.05661.0012-.00056-.05753.05661A3.76316,3.76316,0,0,1,18.956,9.39049q-.00115.028-.00063.05605c.57.04387,1.12081.19644,1.68089.29607,1.0388-.43845,2.04285-.95133,3.06345-1.42827a2.88958,2.88958,0,0,1,.59915-.2072c.9139-.20351,1.84032-.33116,2.7671-.45429.975-.12964,1.95206-.24342,2.9278-.368.07805-.00962.21271.00312.21781-.06991C30.21683,7.13911,30.08316,7.1176,30.00632,7.0842Z"/><path class="g" d="M21.91044,10.49241c-.07911-.05208-.18108-.07133-.2316-.16389a6.13367,6.13367,0,0,1-1.04255-.58591c-.56008-.09963-1.1109-.2522-1.68089-.29607-.04175-.019-.0414-.03765.00063-.05605A3.76316,3.76316,0,0,0,20.86669,8.1714l.05753-.05661-.0012.00056.06093-.06-.00361.00339c.02434-.03956.06942-.11548.06942-.11548A15.8369,15.8369,0,0,0,21.907,6.60217l.05279-.103-.103.05264c-.45252.27258-.90378.54714-1.35786.81717a2.74085,2.74085,0,0,1-1.77451.36344c-.13105-.01557-.16056-.04557-.08633-.17436a4.98848,4.98848,0,0,1,1.37767-1.68047c.33662-.2389.647-.51459.96917-.77358-.02583-.05491-.082-.05293-.12865-.06878q-.58951.065-1.179.1302c-1.55862.173-1.55848.17323-2.55255,1.36827-.03489.04189-.06.12256-.12157.0985-.03007-.0116-.0346-.09935-.04317-.154-.01507-.0951-.02547-.19134-.0358-.287a8.65756,8.65756,0,0,0-.50907-2.39659c-.10168-.24823-.16735-.51119-.24951-.76735-.03927-.081-.07338-.26437-.16558-.30682V7.87589a1.63422,1.63422,0,0,1,1.15152-.257,1.70553,1.70553,0,0,1,1.22483,1.6015,6.23273,6.23273,0,0,1-.19481,1.82794c-.0213.08322-.02937.16983-.04366.25474.38445.06794.78037.02067,1.16227.11521a2.55648,2.55648,0,0,0,1.30366-.07246c.43087-.18823.87045-.35693,1.304-.5395.076-.032.1934-.04727.20288-.13954C22.1233,10.54562,21.9858,10.54223,21.91044,10.49241Z"/><path class="n" d="M17.57723,12.80691c.20464-.4959.3703-1.004.56065-1.50385.01429-.08491.02236-.17152.04366-.25474a6.23273,6.23273,0,0,0,.19481-1.82794,1.70553,1.70553,0,0,0-1.22483-1.6015A1.63422,1.63422,0,0,0,16,7.87589v5.79347a2.32918,2.32918,0,0,1,.33605-.05377A1.29472,1.29472,0,0,0,17.57723,12.80691ZM17.242,9.67241c.073-.06312.1336-.14039.20776-.20181.116-.096.211-.31985.33818-.27343.1573.05718.14527.2972.16969.46081a.79963.79963,0,0,1-.80988.94255c-.1595.01614-.172-.01811-.16728-.31277A.73124.73124,0,0,1,17.242,9.67241Z"/><path class="o" d="M17.17034,25.91893a16.181,16.181,0,0,1,.038-3.4334c-.09963.02406-.19884.04812-.3047.06623-.06241.01076-.12815.0167-.19219.02548a.415.415,0,0,1,.0462.25644c-.06425.84208-.11682,1.68443-.124,2.52962-.0034.40476.04118.805.05625,1.20778a2.38294,2.38294,0,0,0,1.10659,2.0657c.16247-.11039.30209-.00029.422.07246.1515.09171.21434.02972.278-.08945A3.7519,3.7519,0,0,1,17.17034,25.91893Z"/><path class="e" d="M14.622,22.43175a1.12237,1.12237,0,0,0-.07112.33428,8.87876,8.87876,0,0,0-.00424,1.67679,6.74755,6.74755,0,0,0,.81356,2.95759,4.05052,4.05052,0,0,0,.63021.80415L16,28.21192V22.63215A8.61659,8.61659,0,0,0,14.622,22.43175Z"/><path class="i" d="M17.448,28.889c.03149-.05859.13919-.02377.21208-.00226.08817.026.20464.08548.25474-.00679.04777-.08831-.07967-.15879-.11831-.24314a2.38294,2.38294,0,0,1-1.10659-2.0657c-.01507-.40278-.05965-.803-.05625-1.20778.00715-.84519.05972-1.68754.12405-2.52962a.41554.41554,0,0,0-.04628-.25644c-.0835.01132-.16538.02491-.25086.03283-.152.01387-.30647.01953-.46059.02208v5.57977a3.18437,3.18437,0,0,0,1.56024.88708C17.54567,29.01323,17.40209,28.97389,17.448,28.889Z"/><path class="k" d="M17.02747,22.29787a10.2061,10.2061,0,0,0,.88666-4.11159,17.46821,17.46821,0,0,0-.12447-1.95559c-.09341-.13219-.19588-.25928-.27817-.39826-.12638-.21313-.21392-.20832-.31291.0218a8.136,8.136,0,0,1-1.02068,1.58593.25554.25554,0,0,1-.1779.107v5.085c.15412-.00255.3086-.00821.46059-.02208.08548-.00792.16736-.02151.25086-.03283.064-.00878.12978-.01472.19219-.02548.10586-.01811.20507-.04217.3047-.06623l.00021-.002q-.08544.00679-.17082.013C16.87158,22.44081,17.002,22.35335,17.02747,22.29787Z"/><path class="p" d="M20.062,16.40306l-.06438-.05789Z"/><path class="i" d="M25.29126,18.53641a.64226.64226,0,0,0-.07132-.09595.478.478,0,0,0-.06.071.48582.48582,0,0,0,.01479.46534.546.546,0,0,0,.34383.23861c.07572.02774.066-.03566.04536-.08152C25.474,18.93438,25.38382,18.73483,25.29126,18.53641Z"/><path class="c" d="M25.15519,19.99667l.02441.01274-.02392-.01331Z"/><path class="q" d="M18.956,9.39045q-.00117.02809-.00061.0562C18.91362,9.42747,18.914,9.40874,18.956,9.39045Z"/><path class="r" d="M20.984,8.05533l-.061.06008Z"/><path class="s" d="M20.92423,8.115l-.05753.0563Z"/><path class="i" d="M17.788,9.19717c-.12723-.04642-.2222.17747-.33818.27343-.07416.06142-.1348.13869-.20776.20181a.73.73,0,0,0-.26118.61535c-.0051.29466.00743.32891.16693.31277a.79963.79963,0,0,0,.80988-.94255C17.93323,9.49437,17.94526,9.25435,17.788,9.19717Z"/><path class="t" d="M14.80142,15.85423c-.099-.23012-.18653-.23493-.31291-.0218-.08229.139-.18476.26607-.27817.39826-.27-.4826-.26436-.47694-.6525-.08407-.24158.24484-.50475.46817-.75532.70423a.1166.1166,0,0,1-.15391.01868c-.06212-.31985-.12319-.63969-.1878-.959-.007-.03482-.02675-.08265-.05364-.09426-.06177-.02689-.07465.04246-.09843.07642-.1048.14889-.20471.30145-.3064.4526l-.06439.05774-.04734.04756-.00446.06566q-.63474.69164-1.27054,1.38185a.40344.40344,0,0,0-.08117.24145c-.06043.41014-.117.82084-.17995,1.2307-.00764.04925.00418.12992-.066.13728-.03241.00368-.07607-.04954-.10657-.08407-.14067-.15907-.28262-.3173-.41594-.4826-.10558-.13077-.15568-.11067-.19.04614a7.05111,7.05111,0,0,1-.464,1.30514c-.03219.07416-.03672.20323-.13119.19418-.08116-.00793-.08569-.13474-.1164-.21286a5.35075,5.35075,0,0,1-.22913-1.07276c.00983-.11492.02292-.21229-.13282-.08152A5.6098,5.6098,0,0,1,7.012,19.967a.747.747,0,0,1-.167.02915A8.79135,8.79135,0,0,1,7.295,18.63746c.01444-.04557.04133-.08689.05867-.13162.19452-.50071.10685-.6278-.45168-.65611l-.1152-.00594c.06977-.13813-.0644-.13587-.12554-.167-.33994-.17323-.68392-.33881-1.02648-.50694.2297.02462.46144.03623.68859.07529a2.82922,2.82922,0,0,0,2.46834-.57941c.37264-.31843.78249-.595,1.16412-.906A4.87814,4.87814,0,0,0,11.29946,13.51a10.77915,10.77915,0,0,0,.51628-1.019c.08548-.14209-.08414-.0835-.13042-.08407-.46972-.00509-.93951-.00057-1.4093-.00057-.1244,0-.2488-.00679-.3732-.01075a13.258,13.258,0,0,1,1.75505-.04557c.22884-.00029.36464-.066.40476-.29522a4.24441,4.24441,0,0,0,.63722-.63658c.3819-.09454.77782-.04727,1.16227-.11521.19035.49987.356,1.00795.56065,1.50385a1.29472,1.29472,0,0,0,1.24118.80868A2.32918,2.32918,0,0,1,16,13.66936v3.87779a.25554.25554,0,0,1-.1779-.107A8.136,8.136,0,0,1,14.80142,15.85423Z"/><polygon class="c" points="6.845 19.997 6.844 19.996 6.845 19.996 6.845 19.997"/><path class="b" d="M.00009,9.68034c.0772-.1152.19439-.05576.29013-.05576,1.795-.0051,3.59007.03793,5.38467.03934a15.91911,15.91911,0,0,1,4.64627.6646c-.05052.09256-.15249.11181-.2316.16389-.07536.04982-.21286.05321-.20026.17436.00948.09227.12688.10756.20288.13954.43356.18257.87314.35127,1.304.5395a2.55648,2.55648,0,0,0,1.30366.07246,4.24441,4.24441,0,0,1-.63722.63658c-.54473-.1254-1.08663-.26437-1.63469-.37306A15.12607,15.12607,0,0,0,7.02908,11.041c-.70423.02151-1.4086.04642-2.11255.06567a5.68711,5.68711,0,0,0-2.53846.70593c-.30364.16048-.6116.31277-.91758.46873a14.63929,14.63929,0,0,1,.66326-1.332c.05986-.12.06729-.17945-.07954-.22191A7.2723,7.2723,0,0,1,.00009,9.68034Z"/><path class="b" d="M6.35039,12.81965a1.81716,1.81716,0,0,1,.671-.25135,20.39177,20.39177,0,0,1,2.88146-.17266c.1244.004.2488.01075.3732.01075.46979,0,.93958-.00452,1.4093.00057.04628.00057.2159-.058.13042.08407a10.77915,10.77915,0,0,1-.51628,1.019c-.65392.11492-1.30847.22587-1.96147.34617a6.7673,6.7673,0,0,0-2.48766.78207,2.23833,2.23833,0,0,1-.64316.3139.09267.09267,0,0,0-.00035-.05661c.0426-.08605.0881-.171.12687-.25871.02548-.058.0414-.12.06157-.1803-.05619.00651-.11308.01019-.16856.02066q-1.4321.27173-2.8639.54459c-.04515.00849-.09121.01189-.13679.01755a.63759.63759,0,0,1,.09164-.107A33.14892,33.14892,0,0,1,6.35039,12.81965Z"/><path class="u" d="M12.64854,16.86953a.11669.11669,0,0,0,.154-.01868c.25057-.23606.51374-.45939.75532-.70423.38814-.39287.38247-.39853.6525.08407a17.46821,17.46821,0,0,0-.12447,1.95559,10.2061,10.2061,0,0,0,.88666,4.11159c.02547.05548.15589.14294-.01026.1987q-.08545-.00637-.17082-.013-.25953-.07939-.51883-.15851a2.8635,2.8635,0,0,1-.76488-.35721,7.269,7.269,0,0,1-.83584-2.37507,9.11022,9.11022,0,0,1-.04529-2.37847C12.63913,17.09993,12.64147,16.98445,12.64854,16.86953Z"/><path class="f" d="M6.845,19.9961l-.00014.00057-.02441.01274.02392-.01331Z"/><path class="g" d="M3.90243,18.66718a1.36112,1.36112,0,0,0,.13162-.10416,1.117,1.117,0,0,0-.162-.058,2.7014,2.7014,0,0,1-1.06753-.49137c-.15369-.11039-.18278-.18285.03008-.25135.37582-.1203.74456-.26352,1.1225-.37617a3.87239,3.87239,0,0,1,1.67771-.21625c.34256.16813.68654.33371,1.02648.50694.06114.03113.19531.02887.12554.167a3.90694,3.90694,0,0,0-.7941.12935,1.13823,1.13823,0,0,0-.91616.85227,4.8085,4.8085,0,0,0-.19517,1.73651.85036.85036,0,0,0,.34617.6963c-.282.09766-.566.18965-.84518.29466-.21385.08039-.2878.047-.23748-.20125a4.775,4.775,0,0,1,.35381-1.12682c.05477-.11435.08046-.16672-.09532-.12879a4.62823,4.62823,0,0,1-1.61169.01217c-.299-.04019-.30583-.05378-.135-.28956A4.33626,4.33626,0,0,1,3.90243,18.66718Z"/><path class="k" d="M13.12152,21.78583a1.20222,1.20222,0,0,0,.38622.182,2.8635,2.8635,0,0,0,.76488.35721h0a10.83813,10.83813,0,0,0-.813,1.623c-.05682.12935-.0692.34476-.18653.364-.13168.02095-.18879-.18794-.26422-.302-.12391-.18738-.18292-.14068-.25751.03113a4.0403,4.0403,0,0,0-.24965.85651c-.01422.07388-.02116.19644-.15355.07445-.11421-.10473-.20755-.349-.33379-.2924-.12666.0569-.102.3091-.14365.47581-.01394.05605-.0254.11266-.04338.16757-.01429.0433-.03163.11605-.05661.12029-.08505.01359-.05328-.07727-.07805-.11916a.51317.51317,0,0,1-.04125-.13756,8.378,8.378,0,0,1,.30343-4.492A5.75159,5.75159,0,0,0,13.12152,21.78583Z"/><path class="e" d="M7.31015,20.27745c.12808-.04642.18087-.01585.17075.12058-.04494.60432-.104,1.20127-.75539,1.50017-.2861.01415-.39408-.16247-.39578-.40759-.002-.28418.02859-.56893.04508-.85368A4.958,4.958,0,0,1,7.31015,20.27745Z"/><path class="j" d="M6.20717,14.95215l-.03411.0334c-.02575-.04387.00276-.06737.03376-.09A.09267.09267,0,0,1,6.20717,14.95215Z"/><path class="l" d="M11.54472,18.65671a13.45807,13.45807,0,0,1,.3461-2.07589l-.00467-.06454.00439-.06566.04741-.04756.06439-.05774c.10169-.15115.2016-.30371.3064-.4526.02378-.034.03666-.10331.09843-.07642.02689.01161.04664.05944.05364.09426.06461.31928.12568.63912.18773.959-.00707.11492-.00941.2304-.02193.34476a9.11022,9.11022,0,0,0,.04529,2.37847,7.269,7.269,0,0,0,.83584,2.37507,1.20222,1.20222,0,0,1-.38622-.182,5.75159,5.75159,0,0,1-1.16666-1.09116A3.79637,3.79637,0,0,1,11.54472,18.65671Z"/><path class="n" d="M4.88136,20.56192a.85036.85036,0,0,0,.34617.6963,8.79118,8.79118,0,0,0,1.14728-.62129,4.958,4.958,0,0,1,.93534-.35948c.12808-.04642.18087-.01585.17075.12058-.04494.60432-.104,1.20127-.75539,1.50017a1.06914,1.06914,0,0,0,1.10693-.75461c.255-.653.48869-1.31449.80288-1.94286.00983-.11492.02292-.21229-.13282-.08152A5.6098,5.6098,0,0,1,7.012,19.967a.747.747,0,0,1-.167.02915l-.00014.00057-.02441.01274.02392-.01331H6.845A8.79135,8.79135,0,0,1,7.295,18.63746c.01444-.04557.04133-.08689.05867-.13162.19452-.50071.10685-.6278-.45168-.65611l-.1152-.00594a3.90694,3.90694,0,0,0-.7941.12935,1.13823,1.13823,0,0,0-.91616.85227A4.8085,4.8085,0,0,0,4.88136,20.56192Zm1.55473-1.428c.08987-.19955.18009-.3991.27265-.59752a.64226.64226,0,0,1,.07132-.09595.478.478,0,0,1,.06.071.48582.48582,0,0,1-.01479.46534.546.546,0,0,1-.34383.23861C6.40573,19.24319,6.41542,19.17979,6.43609,19.13393Z"/><polygon class="m" points="11.02 8.059 11.016 8.055 11.02 8.059 11.02 8.059"/><path class="b" d="M1.99368,7.0842A6.6189,6.6189,0,0,1,3.18,6.72048c.056-.01245.11577-.01585.15093-.07189-.047-.02887-.092-.06171-.14131-.08577A3.16789,3.16789,0,0,1,1.8557,5.35675c-.03262-.05293-.09829-.109-.05732-.17068.01359-.02067.1065.00821.16226.01924,1.63568.3224,3.27029.65017,4.8928,1.0337a8.25163,8.25163,0,0,1,2.28394.70225c.59327.33994,1.17777.69517,1.76623,1.04389l.05378.02463.06213.049.05746.05661-.0012-.00056.05753.05661A3.76316,3.76316,0,0,0,13.044,9.39049q.00115.028.00063.05605c-.57.04387-1.12081.19644-1.68089.29607-1.0388-.43845-2.04285-.95133-3.06345-1.42827a2.88958,2.88958,0,0,0-.59915-.2072c-.9139-.20351-1.84032-.33116-2.7671-.45429-.975-.12964-1.95206-.24342-2.9278-.368-.078-.00962-.21271.00312-.21781-.06991C1.78317,7.13911,1.91684,7.1176,1.99368,7.0842Z"/><path class="v" d="M10.08956,10.49241c.07911-.05208.18108-.07133.2316-.16389a6.13367,6.13367,0,0,0,1.04255-.58591c.56008-.09963,1.1109-.2522,1.68089-.29607.04175-.019.0414-.03765-.00063-.05605A3.76316,3.76316,0,0,1,11.13331,8.1714l-.05753-.05661.0012.00056-.06093-.06.00361.00339c-.02434-.03956-.06942-.11548-.06942-.11548A15.8369,15.8369,0,0,1,10.093,6.60217l-.05279-.103.103.05264c.45252.27258.90378.54714,1.35786.81717a2.74085,2.74085,0,0,0,1.77451.36344c.13105-.01557.16056-.04557.08633-.17436a4.98848,4.98848,0,0,0-1.37767-1.68047c-.33662-.2389-.647-.51459-.96917-.77358.02583-.05491.082-.05293.12865-.06878q.58952.065,1.179.1302c1.55862.173,1.55848.17323,2.55255,1.36827.03489.04189.06.12256.12157.0985.03007-.0116.0346-.09935.04317-.154.01507-.0951.02547-.19134.0358-.287a8.65756,8.65756,0,0,1,.50907-2.39659c.10168-.24823.16735-.51119.24951-.76735.03927-.081.07338-.26437.16558-.30682V7.87589a1.63422,1.63422,0,0,0-1.15152-.257,1.70553,1.70553,0,0,0-1.22483,1.6015,6.23273,6.23273,0,0,0,.19481,1.82794c.0213.08322.02937.16983.04366.25474-.38445.06794-.78037.02067-1.16227.11521a2.55648,2.55648,0,0,1-1.30366-.07246c-.43087-.18823-.87045-.35693-1.304-.5395-.076-.032-.1934-.04727-.20288-.13954C9.8767,10.54562,10.0142,10.54223,10.08956,10.49241Z"/><path class="w" d="M15.664,13.61559A2.32918,2.32918,0,0,1,16,13.66936V7.87589a1.63422,1.63422,0,0,0-1.15152-.257,1.70553,1.70553,0,0,0-1.22483,1.6015,6.23273,6.23273,0,0,0,.19481,1.82794c.0213.08322.02937.16983.04366.25474.19035.49987.356,1.00795.56065,1.50385A1.29472,1.29472,0,0,0,15.664,13.61559Zm-.64444-3.32783c.00475.29466-.00778.32891-.16728.31277a.79963.79963,0,0,1-.80988-.94255c.02442-.16361.01239-.40363.16969-.46081.12723-.04642.2222.17747.33818.27343.07416.06142.1348.13869.20776.20181A.73124.73124,0,0,1,15.01951,10.28776Z"/><path class="l" d="M15.8221,17.44016a8.136,8.136,0,0,1-1.02068-1.58593c-.099-.23012-.18653-.23493-.31291-.0218-.08229.139-.18476.26607-.27817.39826a17.46821,17.46821,0,0,0-.12447,1.95559,10.2061,10.2061,0,0,0,.88666,4.11159c.02547.05548.15589.14294-.01026.1987q-.08545-.00637-.17082-.013l.00021.002c.09963.02406.19884.04812.3047.06623.06241.01076.12815.0167.19219.02548.0835.01132.16538.02491.25086.03283.152.01387.30647.01953.46059.02208v-5.085A.25554.25554,0,0,1,15.8221,17.44016Z"/><path class="p" d="M11.938,16.40306l.06438-.05789Z"/><path class="e" d="M6.70874,18.53641a.64226.64226,0,0,1,.07132-.09595.478.478,0,0,1,.06.071.48582.48582,0,0,1-.01479.46534.546.546,0,0,1-.34383.23861c-.07572.02774-.066-.03566-.04536-.08152C6.526,18.93438,6.61618,18.73483,6.70874,18.53641Z"/><path class="c" d="M6.84481,19.99667l-.02441.01274.02392-.01331Z"/><path class="q" d="M13.044,9.39045q.00117.02809.00061.0562C13.08638,9.42747,13.086,9.40874,13.044,9.39045Z"/><path class="r" d="M11.016,8.05533l.061.06008Z"/><path class="s" d="M11.07577,8.115l.05753.0563Z"/><path class="e" d="M14.212,9.19717c.12723-.04642.2222.17747.33818.27343.07416.06142.1348.13869.20776.20181a.73.73,0,0,1,.26118.61535c.0051.29466-.00743.32891-.16693.31277a.79963.79963,0,0,1-.80988-.94255C14.06677,9.49437,14.05474,9.25435,14.212,9.19717Z"/></svg>