<svg xmlns="http://www.w3.org/2000/svg" viewBox="0 0 32 32"><title>637-volcarona</title><path d="M27.55676,9.58881a1.24876,1.24876,0,0,1-.10938.72713c-.14663.24588-.02934.38716.168.50038.16886.09663.34857.17413.52174.26342.19263.09919.21974.19391.03812.35974a6.48931,6.48931,0,0,0-.8138.73989c.29069.00447.55731.06028.61519.40343a.68512.68512,0,0,1-.36038.70768c-.08013.0539-.16839.09536-.253.14224.20658.40534-.04552.68471-.27929.95579a.75442.75442,0,0,0-.18968.42863,2.5559,2.5559,0,0,1-.41084,1.1178c-.04569.06761-.16257.12629-.10429.24557.06243-.015.12677-.02456.18713-.04529a5.59182,5.59182,0,0,0,1.38019-.7182A19.93588,19.93588,0,0,1,32,13.30451v-.06538A12.27607,12.27607,0,0,0,27.55676,9.58881Z" style="fill:#8e252d"/><polygon points="17.176 28.979 17.177 28.979 17.177 28.978 17.176 28.979" style="fill:#b1d0ca"/><polygon points="17.177 29.109 17.177 29.108 17.173 29.108 17.173 29.112 17.177 29.109" style="fill:#b1d0ca"/><path d="M16.0771,31.83839c.01834-.03891.0346-.07877.05174-.11832l-.01028-.12789A.12135.12135,0,0,1,16,31.60526V31.964C16.06721,31.95958,16.05541,31.88463,16.0771,31.83839Z" style="fill:#545351"/><path d="M16.13044,22.3809A.64131.64131,0,0,0,16,22.3844v.09185A.33336.33336,0,0,1,16.13044,22.3809Z" style="fill:#545351"/><path d="M27.15668,23.883c-.08331-.679-.18178-1.35572-.27355-2.03342-.11975-.06283-.14925.03094-.18824.10843-.10261.20379-.20163.40981-.30863.61137a.365.365,0,0,1-.56743.17157,3.99608,3.99608,0,0,1-.74842-.56193l-.31948.02009a.98853.98853,0,0,0-.33135.84354c.0161.27172-.12079.36484-.39578.2883a2.46462,2.46462,0,0,1-.5715-.229c-.16911-.097-.283-.067-.36181.11608-.05621.13076-.1235.259-.2907.27746q-.20079.52-.40151,1.04063a4.2683,4.2683,0,0,0,1.47356,1.44629,5.76589,5.76589,0,0,0,4.30737.34252c.3005-.07272.22827-.15787.06259-.31127A3.3723,3.3723,0,0,1,27.15668,23.883Zm-2.37115.05262a.18782.18782,0,0,1-.20123-.20475.17145.17145,0,0,1,.19-.17636.17547.17547,0,0,1,.17963.18944C24.95129,23.853,24.90122,23.93721,24.78553,23.93562Z" style="fill:#8e252d"/><path d="M27.757.03787,27.62725.0366,27.497.03851h-.196l-.26255.00383q-.32852,0-.65712-.00032c-.10923-.001-.21846-.0016-.32777-.00255L25.92343.03691,25.79251.036a10.55268,10.55268,0,0,0-1.835.21431,9.38878,9.38878,0,0,0-2.86786.96823.69472.69472,0,0,0,.90262.24557.66942.66942,0,0,1,.88683.3422c.0503.09185.12445.066.19422.07016a2.43169,2.43169,0,0,0,.90947-.192c.1235-.0405.25162-.1011.32505.075.05374-.03508.106-.07272.16162-.10461.21822-.125.43827-.16233.58752.08611a.4363.4363,0,0,1-.28455.61583,1.64287,1.64287,0,0,1-.282.05166.80007.80007,0,0,0,.40686.18561c.43461.05837.5188.17158.42416.60212a3.29127,3.29127,0,0,0-.11552.83142c.00606.16679.052.27618.24245.26374.01946-.02615.04114-.051.058-.07877a10.25315,10.25315,0,0,1,3.761-3.87006c.03675-.02009.12581-.02871.08427-.09982-.02065-.03508-.092-.05135-.1424-.05677C28.72536.13418,28.24116.08667,27.757.03787Z" style="fill:#8e252d"/><path d="M18.74843,7.29515A3.84637,3.84637,0,0,0,18.35967,6.244a3.72151,3.72151,0,0,0-1.06024-1.12195,3.80075,3.80075,0,0,0-1.15576-.50835A.18189.18189,0,0,0,16,4.56841v7.89671c.01754-.0067.03532-.0185.051-.0692a4.135,4.135,0,0,1,1.64417-1.90458l.06642-.06633A4.019,4.019,0,0,0,18.558,9.3241q.05871-.133.11744-.26661a4.98168,4.98168,0,0,0,.1282-1.496C18.72419,7.48523,18.74986,7.38764,18.74843,7.29515ZM17.23421,9.82257c-.12254.0641-.18059.06474-.20945-.10078a1.59344,1.59344,0,0,1,.14248-.97556c.0232-.04975.05389-.11673.10755-.103.03445.00861.05358.08387.0763.13107a.25543.25543,0,0,1,.01356.06315.83172.83172,0,0,0,.13434.44648c.13387-.14574.03484-.32657.07311-.46083.002-.53961.13682-.65474.59805-.5444.128.03094.18139.0791.14049.22612A2.05037,2.05037,0,0,1,17.23421,9.82257Z" style="fill:#505957"/><path d="M27.36143,12.17937c-.48818.13363-.70927.40056-.66734.80654.03142.30425.23528.44075.66917.44681.08459-.04688.17285-.08834.253-.14224a.68512.68512,0,0,0,.36038-.70768C27.91874,12.23965,27.65212,12.18384,27.36143,12.17937Z" style="fill:#2b3332"/><path d="M20.17758,5.078c-.00829.07239-.042.12183-.12071.125a5.37067,5.37067,0,0,0-1.37773.32115c-.11034.03412-.22164.06984-.19533-.1196l-.00439-.00414c-.10189.09854-.0468.22547-.06211.33964-.0224.16775.05414.34635-.05764.50389a3.84637,3.84637,0,0,1,.38876,1.05115,4.72976,4.72976,0,0,1,1.88647-.259l.00439-.00255A7.36519,7.36519,0,0,0,20.182,5.07358Z" style="fill:#9c2c30"/><path d="M20.6349,7.03619c-.3571.06634-.72083.10843-1.06909.206a1.363,1.363,0,0,0-.762.31924,4.98431,4.98431,0,0,1-.12828,1.496c.04177.19773.20155.12693.31724.12916a1.88205,1.88205,0,0,1,.99622.2073.65449.65449,0,0,0,.196-.27459c.0173-.02743.03548-.05454.05167-.0826a2.67672,2.67672,0,0,0,.40271-2.00312Z" style="fill:#9c2c30"/><path d="M20.046,3.44231a7.7577,7.7577,0,0,0-1.30365.26247,3.60554,3.60554,0,0,0-.26295,1.69569l.00439.00414A11.2012,11.2012,0,0,1,20.17766,5.078l.0043-.00446A3.79933,3.79933,0,0,1,20.046,3.44231Z" style="fill:#9c2c30"/><path d="M18.80719,3.57307a3.051,3.051,0,0,1,1.24115-.19486,3.35476,3.35476,0,0,1,.55029-1.23708.51925.51925,0,0,0,.04935-.10779.31384.31384,0,0,0-.12071-.00064A3.02751,3.02751,0,0,0,18.80719,3.57307Z" style="fill:#9c2c30"/><path d="M24.65183,21.222a.44448.44448,0,0,0-.26638.48029.54586.54586,0,0,0,.36548.49687l.31948-.02009a.96044.96044,0,0,0,.16663-.19836.50916.50916,0,0,0-.06482-.5798A.45811.45811,0,0,0,24.65183,21.222Z" style="fill:#2b3332"/><path d="M24.46949,1.65478c-.05565.03189-.10788.06953-.16162.10461-.13841.27235-.15132.50963.18258.649a1.64287,1.64287,0,0,0,.282-.05166.4363.4363,0,0,0,.28455-.61583C24.90776,1.49245,24.68771,1.52977,24.46949,1.65478Z" style="fill:#2b3332"/><path d="M22.6861,5.58448a.24285.24285,0,0,0-.25784.2714c.0051.15053.1278.21335.26765.23472a.25731.25731,0,0,0,.23193-.26884A.21039.21039,0,0,0,22.6861,5.58448Z" style="fill:#2b3332"/><path d="M18.74237,3.70478a7.757,7.757,0,0,1,1.30373-.26247.39153.39153,0,0,0,.00224-.0641,3.051,3.051,0,0,0-1.24115.19486A.14435.14435,0,0,0,18.74237,3.70478Z" style="fill:#8e252d"/><path d="M25.5971,14.304c-.12438.02424-.20076.08706-.19757.21878.003.12565.05932.21718.19374.2041a.2199.2199,0,0,0,.20363-.21782C25.80519,14.37448,25.71191,14.32281,25.5971,14.304Z" style="fill:#2b3332"/><path d="M17.10872,29.105a.12834.12834,0,0,1,.06737-.12565h0l.00048-.001-.00048.001.04441-.06411c.07175-.12182.14542-.24206.21495-.36484.60427-1.06773,1.28324-2.09433,1.78569-3.21851A11.52856,11.52856,0,0,0,19.926,20.3427c-.0004-.03413-.04194-.06761-.06434-.10142-.13682.25545-.26351.23217-.40287-.00383a2.54573,2.54573,0,0,1-.32338-.66845.27573.27573,0,0,0-.30114-.23313c-.178.00734-.08372.16776-.09671.2545a2.58783,2.58783,0,0,1-.91936,1.73172c-.03779.0303-.09855.2006-.17868.023l-.05469-.19071a3.138,3.138,0,0,1-1.45434,1.22656A.33336.33336,0,0,0,16,22.47625v9.129a.12135.12135,0,0,0,.11856-.01308A12.215,12.215,0,0,1,17.10872,29.105Z" style="fill:#373f3f"/><polygon points="17.176 28.979 17.176 28.979 17.177 28.978 17.176 28.979" style="fill:#504f4d"/><path d="M21.8098,20.0343a.48518.48518,0,0,0-.51577.43182.48749.48749,0,1,0,.51577-.43182Z" style="fill:#373f3f"/><path d="M21.12436,23.56153a.3911.3911,0,0,0-.41539.37409.40584.40584,0,0,0,.41978.40407.42.42,0,0,0,.4177-.376A.407.407,0,0,0,21.12436,23.56153Z" style="fill:#373f3f"/><path d="M19.626,26.30613a.32222.32222,0,1,0,.013.64071.3423.3423,0,0,0,.34459-.32594A.34842.34842,0,0,0,19.626,26.30613Z" style="fill:#373f3f"/><polygon points="17.173 29.112 17.177 29.109 17.177 29.108 17.173 29.112" style="fill:#595b59"/><path d="M17.30924,29.02586a1.54157,1.54157,0,0,0-.13212.08323.8159.8159,0,0,0,.00216.12885.2733.2733,0,0,0,.376.24524c.15172-.03922.25513-.15914.18609-.32019A.28079.28079,0,0,0,17.30924,29.02586Z" style="fill:#373f3f"/><polygon points="17.173 29.112 17.177 29.108 17.173 29.108 17.173 29.112" style="fill:#595b59"/><path d="M23.27012,17.92275c-.05988-.71533-.1959-1.41727-.2891-2.12654-.0779-.081-.05772-.18306-.06028-.28-.04161-.06091-.08052-.16073-.16065-.12852-.07048.02838-.00375.11.00941.16871a3.38193,3.38193,0,0,1-.24549,2.30768c-.047.095-.08539.22962-.1943.23855-.12956.01021-.14232-.14351-.19007-.23376-.06435-.12151-.11186-.252-.16664-.37856-.022.13171-.0468.26311-.0657.39546a3.03443,3.03443,0,0,1-.28535,1.02564c-.09631.1805-.17676.20219-.33622.04911a2.02085,2.02085,0,0,1-.51377-.85183c-.012-.036.00319-.08515-.0523-.09759-.006.03158-.014.06283-.01778.0944a3.80646,3.80646,0,0,1-.84027,2.13579c.0224.03381.06394.06729.06434.10142a11.52856,11.52856,0,0,1-.70481,4.98914c-.50245,1.12418-1.18142,2.15078-1.78569,3.21851-.06953.12278-.1432.243-.215.36484l-.04385.06347-.00359.12916h.00414v.00127a1.54157,1.54157,0,0,1,.13212-.08323.28079.28079,0,0,1,.43213.13713c.069.161-.03437.281-.18609.32019a.2733.2733,0,0,1-.376-.24524.8159.8159,0,0,1-.00216-.12885l-.00422.00287.00008-.00414.00359-.12948a.12853.12853,0,0,0-.06785.12661,12.215,12.215,0,0,0-.99016,2.48723l.01028.12789a9.09168,9.09168,0,0,1,.62994-1.05657,13.86015,13.86015,0,0,1,2.36773-2.26432,15.40691,15.40691,0,0,0,2.09321-2.03756,14.958,14.958,0,0,0,1.17856-1.82548q.20079-.52047.40151-1.04063a1.136,1.136,0,0,1,.02416-.12693A14.345,14.345,0,0,0,23.27012,17.92275ZM19.639,26.94684a.32222.32222,0,1,1-.013-.64071.34842.34842,0,0,1,.35759.31477A.3423.3423,0,0,1,19.639,26.94684Zm1.48974-2.60715a.40584.40584,0,0,1-.41978-.40407.3911.3911,0,0,1,.41539-.37409.407.407,0,0,1,.42209.40215A.42.42,0,0,1,21.12875,24.33969Zm.6368-3.39679a.478.478,0,0,1-.47152-.47678.48518.48518,0,0,1,.51577-.43182.45538.45538,0,1,1-.04425.9086Z" style="fill:#b0d3ea"/><path d="M17.1761,28.97928l.04439-.06417Z" style="fill:#595b59"/><path d="M24.77429,23.55451a.17145.17145,0,0,0-.19.17636.18782.18782,0,0,0,.20123.20475c.11569.00159.16576-.0826.16839-.19167A.17547.17547,0,0,0,24.77429,23.55451Z" style="fill:#2b3332"/><path d="M18.17015,8.27869c-.46123-.11034-.596.00479-.59805.5444-.03827.13426.06076.31509-.07311.46083a.83172.83172,0,0,1-.13434-.44648.25543.25543,0,0,0-.01356-.06315c-.02272-.0472-.04185-.12246-.0763-.13107-.05366-.01372-.08435.05326-.10755.103a1.59344,1.59344,0,0,0-.14248.97556c.02886.16552.08691.16488.20945.10078a2.05037,2.05037,0,0,0,1.07643-1.31776C18.35154,8.35779,18.29812,8.30963,18.17015,8.27869Z" style="fill:#4896c8"/><path d="M18.74843,7.29515c.00143.09249-.02424.19008.05533.2663a1.363,1.363,0,0,1,.762-.31924c.34826-.09759.712-.13968,1.06909-.206A4.72976,4.72976,0,0,0,18.74843,7.29515Z" style="fill:#8e252d"/><path d="M18.67548,9.05749q-.05872.13347-.11752.26661a3.43287,3.43287,0,0,1,1.37788.13778l.0531-.06793a1.88205,1.88205,0,0,0-.99622-.2073C18.877,9.18442,18.71725,9.25522,18.67548,9.05749Z" style="fill:#8e252d"/><path d="M17.7086,10.56214a.14842.14842,0,0,0,.053-.13713l-.06642.06633Z" style="fill:#ba7e76"/><path d="M20.47967,12.54708a1.91721,1.91721,0,0,0-1.7082.48221.42664.42664,0,0,0,.14407.71947,1.55418,1.55418,0,0,0,.726.14479,1.60311,1.60311,0,0,0,.98657-.26119.64126.64126,0,0,0,.26215-.627A.55733.55733,0,0,0,20.47967,12.54708Z" style="fill:#434c4b"/><path d="M20.99169,14.99637a1.68791,1.68791,0,0,0-1.674.41714.34139.34139,0,0,0,.144.57979,2.16417,2.16417,0,0,0,.96488.19072,1.2909,1.2909,0,0,0,.52677-.08579.52315.52315,0,0,0,.39945-.49751A.61346.61346,0,0,0,20.99169,14.99637Z" style="fill:#434c4b"/><path d="M18.558,9.3241a4.017,4.017,0,0,1-.79634,1.10091.14842.14842,0,0,1-.053.13713q-.04293.51713-.086,1.03489a1.358,1.358,0,0,0-.056.57373.22729.22729,0,0,0,.02647.07877.33347.33347,0,0,0,.04736-.0708c.02081-.06059.03524-.12342.05222-.18529a3.92348,3.92348,0,0,1,1.177-1.3605,6.92089,6.92089,0,0,0,1.06606-1.17106A3.43287,3.43287,0,0,0,18.558,9.3241Z" style="fill:#9c2c30"/><path d="M23.18592,14.731c.02137.0185.04266.03763.064.05677a1.80954,1.80954,0,0,0,.76277.141c.0708-.00766.17022.023.18927-.074.00519-.02679-.08961-.08164-.14534-.10971a3.76384,3.76384,0,0,1-1.257-1.11876,7.35615,7.35615,0,0,1-1.11406-2.272,4.97,4.97,0,0,0-.75289-1.54547,1.74474,1.74474,0,0,0-.74778-.69588.64955.64955,0,0,1-.196.27491l-.0531.06825a6.93313,6.93313,0,0,1-1.06606,1.17106,3.92061,3.92061,0,0,0-1.177,1.3605c-.017.06187-.03141.12438-.05222.185a.32585.32585,0,0,1-.04736.0708.2236.2236,0,0,1-.02647-.07845,1.359,1.359,0,0,1,.056-.574q.04305-.5176.086-1.03457l-.01348-.0708A4.13347,4.13347,0,0,0,16.051,12.39018c-.01571.05038-.03349.0625-.051.06888v9.9196a.64173.64173,0,0,1,.13044-.00382,3.13427,3.13427,0,0,0,1.45434-1.22656,1.77236,1.77236,0,0,1,.16982-.25386,2.13118,2.13118,0,0,0-.16982.25992l.05469.19071.00144-.00414c.07949.17221.13968.00542.17724-.02488a2.58714,2.58714,0,0,0,.91936-1.73172c.013-.08674-.08133-.24684.09671-.25449a.27622.27622,0,0,1,.30114.23344,2.55057,2.55057,0,0,0,.32338.66845c.13936.236.266.259.40287.00383a3.80655,3.80655,0,0,0,.84027-2.13611c.00374-.03125.0118-.06251.01778-.0944.05549.01276.04034.06187.0523.09759a2.02,2.02,0,0,0,.51377.85215c.15946.15308.23991.13139.33622-.04911A3.03641,3.03641,0,0,0,21.9073,17.88c.0189-.13267.0437-.26407.0657-.39546.05478.12629.10229.25705.16664.37824.04775.09057.06051.24429.19007.23408.10891-.00893.14734-.14351.1943-.23855a3.38213,3.38213,0,0,0,.24549-2.30768c-.01316-.05869-.07989-.14033-.00941-.169.08013-.03189.119.06761.16065.12884.04593.04465.09185.08994.13786.13522.10229.07973.20187.16329.30783.23792.0578.04082.11425.14223.18489.088.03764-.02871.02217-.14352.01053-.21687a2.27823,2.27823,0,0,0-.32259-.87766c-.03867-.04656-.07741-.09376-.11616-.14032l-.02966-.04337C23.14064,14.66533,23.16368,14.69722,23.18592,14.731Zm-4.27038-.988a.42664.42664,0,0,1-.14407-.71947,1.91631,1.91631,0,0,1,1.7082-.48221.55693.55693,0,0,1,.41061.458.641.641,0,0,1-.26215.627,1.601,1.601,0,0,1-.98657.26151A1.55816,1.55816,0,0,1,18.91554,13.743Zm2.0378,2.34915a1.29175,1.29175,0,0,1-.52677.0861,2.16843,2.16843,0,0,1-.96488-.19071.34139.34139,0,0,1-.144-.57979,1.6872,1.6872,0,0,1,1.674-.41714.613.613,0,0,1,.3611.604A.52286.52286,0,0,1,20.95334,16.09217Z" style="fill:#e3e5e5"/><path d="M27.36143,12.17937a6.48931,6.48931,0,0,1,.8138-.73989c.18162-.16583.15451-.26055-.03812-.35974-.17317-.08929-.35288-.16679-.52174-.26342-.19733-.11322-.31462-.2545-.168-.50038a1.24943,1.24943,0,0,0,.10946-.72713A7.95033,7.95033,0,0,0,23.66813,8.405c-.05685-.001-.14383.038-.16337-.04689-.008-.03476.04927-.08834.08284-.12788a3.91271,3.91271,0,0,0,.77553-1.37709A13.44306,13.44306,0,0,1,25.4484,4.29127c-.19047.01244-.23639-.09695-.24245-.26374a3.29127,3.29127,0,0,1,.11552-.83142c.09464-.43054.01045-.54375-.42416-.60212a.79951.79951,0,0,1-.40678-.18561c-.334-.13936-.32107-.37664-.18266-.649-.07343-.17605-.20155-.11545-.32505-.075a2.43169,2.43169,0,0,1-.90947.192c-.06977-.00415-.14392.02169-.19422-.07016a.66942.66942,0,0,0-.88683-.3422.69472.69472,0,0,1-.90262-.24557,4.26651,4.26651,0,0,0-.93028.52175,8.13654,8.13654,0,0,0-2.86,3.3818,3.72151,3.72151,0,0,1,1.06024,1.122c.11178-.15754.03524-.33614.05764-.50389.01531-.11417-.03978-.2411.062-.33964a3.6066,3.6066,0,0,1,.263-1.69569.14435.14435,0,0,1,.06482-.13171A3.02751,3.02751,0,0,1,20.52727,2.0327a.31384.31384,0,0,1,.12071.00064.51925.51925,0,0,1-.04935.10779,3.35476,3.35476,0,0,0-.55029,1.23708.39153.39153,0,0,1-.00224.0641A3.79806,3.79806,0,0,0,20.182,5.07358a7.36519,7.36519,0,0,1,.45733,1.96006,2.67672,2.67672,0,0,1-.40271,2.00312c-.01619.02806-.03437.05517-.05167.0826a1.73948,1.73948,0,0,1,.74778.69524,4.97342,4.97342,0,0,1,.75289,1.54547,7.34917,7.34917,0,0,0,1.11406,2.272,3.76384,3.76384,0,0,0,1.257,1.11876c.05573.02838.15053.08324.14534.10971-.01905.09695-.11847.06665-.18927.074a1.8046,1.8046,0,0,1-.76277-.141l-.064-.05677c-.02224-.03381-.04528-.0657-.09248-.03731l.02966.043c.03875.04656.07749.09376.11624.14032a2.28084,2.28084,0,0,1,.32251.878c.01164.073.02711.18784-.01053.21655-.07064.05453-.12709-.0472-.18489-.088-.106-.07463-.20554-.15819-.30783-.23792q-.069-.06792-.13786-.13522c.00256.09695-.01762.199.06028.28.0932.70927.22922,1.41121.2891,2.12654a14.345,14.345,0,0,1-.44617,5.44583,1.136,1.136,0,0,0-.02416.12693c.1672-.01849.23449-.1467.2907-.27746.07877-.18305.1927-.213.36181-.11608a2.46462,2.46462,0,0,0,.5715.229c.275.07654.41188-.01658.39578-.2883a.98837.98837,0,0,1,.33143-.84354.54582.54582,0,0,1-.36556-.49687.44448.44448,0,0,1,.26638-.48029.45811.45811,0,0,1,.52039.17891.50916.50916,0,0,1,.06482.5798.96044.96044,0,0,1-.16663.19836,3.99608,3.99608,0,0,0,.74842.56193.365.365,0,0,0,.56743-.17157c.107-.20156.206-.40758.30863-.61137.039-.07749.06849-.17126.18824-.10843-.03476-.257-.07518-.51378-.10349-.77146a6.46369,6.46369,0,0,0-2.35568-4.38c-.05493-.04592-.16719-.08611-.14048-.154.03651-.0928.15292-.03763.23169-.038a5.248,5.248,0,0,0,1.864-.32561c-.05828-.11928.0586-.178.10429-.24557a2.5559,2.5559,0,0,0,.41084-1.1178.75442.75442,0,0,1,.18968-.42863c.23377-.27108.48587-.55045.27929-.95579-.43389-.00606-.63775-.14256-.66917-.44681C26.65216,12.57993,26.87325,12.313,27.36143,12.17937ZM22.69591,6.0906c-.13985-.02137-.26255-.08419-.26765-.23472a.24285.24285,0,0,1,.25784-.2714.21039.21039,0,0,1,.24174.23728A.25731.25731,0,0,1,22.69591,6.0906Zm2.89736,8.63628c-.13442.01308-.19079-.07845-.19374-.2041-.00319-.13172.07319-.19454.19757-.21878.11481.01881.20809.07048.1998.20506A.2199.2199,0,0,1,25.59327,14.72688Z" style="fill:#e8803a"/><path d="M18.67914,5.52421a5.37067,5.37067,0,0,1,1.37773-.32115c.07869-.00319.11242-.05263.12079-.125a11.2012,11.2012,0,0,0-1.69385.32657C18.4575,5.59405,18.5688,5.55833,18.67914,5.52421Z" style="fill:#8e252d"/><path d="M4.44324,9.58881a1.24876,1.24876,0,0,0,.10938.72713c.14663.24588.02934.38716-.168.50038-.16886.09663-.34857.17413-.52174.26342-.19263.09919-.21974.19391-.03812.35974a6.48931,6.48931,0,0,1,.8138.73989c-.29069.00447-.55731.06028-.61519.40343a.68512.68512,0,0,0,.36038.70768c.08013.0539.16839.09536.253.14224-.20658.40534.04552.68471.27929.95579a.75442.75442,0,0,1,.18968.42863,2.5559,2.5559,0,0,0,.41084,1.1178c.04569.06761.16257.12629.10429.24557-.06243-.015-.12677-.02456-.18713-.04529a5.59182,5.59182,0,0,1-1.38019-.7182A19.93588,19.93588,0,0,0,0,13.30451v-.06538A12.27607,12.27607,0,0,1,4.44324,9.58881Z" style="fill:#962931"/><polygon points="14.824 28.979 14.823 28.979 14.823 28.978 14.824 28.979" style="fill:#b1d0ca"/><polygon points="14.823 29.109 14.823 29.108 14.827 29.108 14.827 29.112 14.823 29.109" style="fill:#b1d0ca"/><path d="M15.9229,31.83839c-.01834-.03891-.0346-.07877-.05174-.11832l.01028-.12789A.12135.12135,0,0,0,16,31.60526V31.964C15.93279,31.95958,15.94459,31.88463,15.9229,31.83839Z" style="fill:#545351"/><path d="M15.86956,22.3809A.64131.64131,0,0,1,16,22.3844v.09185A.33336.33336,0,0,0,15.86956,22.3809Z" style="fill:#545351"/><path d="M3.7582,26.01368c-.16568.1534-.23791.23855.06259.31127a5.76589,5.76589,0,0,0,4.30737-.34252,4.2683,4.2683,0,0,0,1.47356-1.44629q-.20079-.52047-.40151-1.04063c-.1672-.01849-.23449-.1467-.2907-.27746-.07877-.18305-.1927-.213-.36181-.11608a2.46462,2.46462,0,0,1-.5715.229c-.275.07654-.41188-.01658-.39578-.2883a.98853.98853,0,0,0-.33135-.84354L6.92959,22.179a3.99608,3.99608,0,0,1-.74842.56193.365.365,0,0,1-.56743-.17157c-.107-.20156-.206-.40758-.30863-.61137-.039-.07749-.06849-.17126-.18824-.10843-.09177.6777-.19024,1.35444-.27355,2.03342A3.3723,3.3723,0,0,1,3.7582,26.01368ZM7.04608,23.744a.17547.17547,0,0,1,.17963-.18944.17145.17145,0,0,1,.19.17636.18782.18782,0,0,1-.20123.20475C7.09878,23.93721,7.04871,23.853,7.04608,23.744Z" style="fill:#962931"/><path d="M4.243.03787,4.37275.0366,4.503.03851h.196l.26255.00383q.32851,0,.65712-.00032c.10923-.001.21846-.0016.32777-.00255L6.07657.03691,6.20749.036a10.55268,10.55268,0,0,1,1.835.21431,9.38878,9.38878,0,0,1,2.86786.96823.69472.69472,0,0,1-.90262.24557.66942.66942,0,0,0-.88683.3422c-.0503.09185-.12445.066-.19422.07016a2.43169,2.43169,0,0,1-.90947-.192c-.1235-.0405-.25162-.1011-.32505.075-.05374-.03508-.106-.07272-.16162-.10461-.21822-.125-.43827-.16233-.58752.08611a.4363.4363,0,0,0,.28455.61583,1.64287,1.64287,0,0,0,.282.05166.80007.80007,0,0,1-.40686.18561c-.43461.05837-.5188.17158-.42416.60212a3.29127,3.29127,0,0,1,.11552.83142c-.00606.16679-.052.27618-.24245.26374-.01946-.02615-.04114-.051-.058-.07877A10.25315,10.25315,0,0,0,2.73264.34244C2.69589.32235,2.60683.31373,2.64837.24262c.02065-.03508.092-.05135.1424-.05677C3.27464.13418,3.75884.08667,4.243.03787Z" style="fill:#962931"/><path d="M13.19632,7.56145a4.98168,4.98168,0,0,0,.1282,1.496q.05873.13347.11744.26661a4.019,4.019,0,0,0,.79642,1.10091l.06642.06633A4.135,4.135,0,0,1,15.949,12.39592c.01571.0507.03349.0625.051.0692V4.56841a.18189.18189,0,0,0-.14367.04529,3.80075,3.80075,0,0,0-1.15576.50835,3.72151,3.72151,0,0,0-1.06024,1.122,3.84637,3.84637,0,0,0-.38876,1.05115C13.25014,7.38764,13.27581,7.48523,13.19632,7.56145Zm.493.94336c-.0409-.147.01252-.19518.14049-.22612.46123-.11034.59605.00479.598.5444.03827.13426-.06076.31509.07311.46083a.83172.83172,0,0,0,.13434-.44648.25543.25543,0,0,1,.01356-.06315c.02272-.0472.04185-.12246.0763-.13107.05366-.01372.08435.05326.10755.103a1.59344,1.59344,0,0,1,.14248.97556c-.02886.16552-.08691.16488-.20945.10078A2.05037,2.05037,0,0,1,13.68936,8.50481Z" style="fill:#5c6664"/><path d="M4.63857,12.17937c.48818.13363.70927.40056.66734.80654-.03142.30425-.23528.44075-.66917.44681-.08459-.04688-.17285-.08834-.253-.14224a.68512.68512,0,0,1-.36038-.70768C4.08126,12.23965,4.34788,12.18384,4.63857,12.17937Z" style="fill:#373f3f"/><path d="M11.82242,5.078c.00829.07239.042.12183.12071.125a5.37067,5.37067,0,0,1,1.37773.32115c.11034.03412.22164.06984.19533-.1196l.00439-.00414c.10189.09854.0468.22547.06211.33964.0224.16775-.05414.34635.05764.50389a3.84637,3.84637,0,0,0-.38876,1.05115,4.72976,4.72976,0,0,0-1.88647-.259l-.00439-.00255A7.36519,7.36519,0,0,1,11.818,5.07358Z" style="fill:#a92f31"/><path d="M11.3651,7.03619c.3571.06634.72083.10843,1.06909.206a1.363,1.363,0,0,1,.76205.31924,4.98431,4.98431,0,0,0,.12828,1.496c-.04177.19773-.20155.12693-.31724.12916a1.88205,1.88205,0,0,0-.99622.2073.65449.65449,0,0,1-.196-.27459c-.0173-.02743-.03548-.05454-.05167-.0826a2.67672,2.67672,0,0,1-.40271-2.00312Z" style="fill:#a92f31"/><path d="M11.954,3.44231a7.7577,7.7577,0,0,1,1.30365.26247,3.60554,3.60554,0,0,1,.263,1.69569l-.00439.00414A11.2012,11.2012,0,0,0,11.82234,5.078l-.0043-.00446A3.79933,3.79933,0,0,0,11.954,3.44231Z" style="fill:#a92f31"/><path d="M13.19281,3.57307a3.051,3.051,0,0,0-1.24115-.19486,3.35476,3.35476,0,0,0-.55029-1.23708.51925.51925,0,0,1-.04935-.10779.31384.31384,0,0,1,.12071-.00064A3.02751,3.02751,0,0,1,13.19281,3.57307Z" style="fill:#a92f31"/><path d="M7.34817,21.222a.44448.44448,0,0,1,.26638.48029.54586.54586,0,0,1-.36548.49687L6.92959,22.179a.96044.96044,0,0,1-.16663-.19836.50916.50916,0,0,1,.06482-.5798A.45811.45811,0,0,1,7.34817,21.222Z" style="fill:#373f3f"/><path d="M7.53051,1.65478c.05565.03189.10788.06953.16162.10461.13841.27235.15132.50963-.18258.649a1.64287,1.64287,0,0,1-.282-.05166A.4363.4363,0,0,1,6.943,1.74089C7.09224,1.49245,7.31229,1.52977,7.53051,1.65478Z" style="fill:#373f3f"/><path d="M9.3139,5.58448a.24285.24285,0,0,1,.25784.2714c-.0051.15053-.1278.21335-.26765.23472a.25731.25731,0,0,1-.23193-.26884A.21039.21039,0,0,1,9.3139,5.58448Z" style="fill:#373f3f"/><path d="M13.25763,3.70478a7.757,7.757,0,0,0-1.30373-.26247.39153.39153,0,0,1-.00224-.0641,3.051,3.051,0,0,1,1.24115.19486A.14435.14435,0,0,1,13.25763,3.70478Z" style="fill:#962931"/><path d="M6.4029,14.304c.12438.02424.20076.08706.19757.21878-.00295.12565-.05932.21718-.19374.2041a.2199.2199,0,0,1-.20363-.21782C6.19481,14.37448,6.28809,14.32281,6.4029,14.304Z" style="fill:#373f3f"/><path d="M14.89128,29.105a.12834.12834,0,0,0-.06737-.12565h0l-.00048-.001.00048.001-.04441-.06411c-.07175-.12182-.14542-.24206-.21495-.36484-.60427-1.06773-1.28324-2.09433-1.78569-3.21851a11.52856,11.52856,0,0,1-.70481-4.98914c.0004-.03413.04194-.06761.06434-.10142.13682.25545.26351.23217.40287-.00383a2.54573,2.54573,0,0,0,.32338-.66845.27573.27573,0,0,1,.30114-.23313c.178.00734.08372.16776.09671.2545a2.58783,2.58783,0,0,0,.91936,1.73172c.03779.0303.09855.2006.17868.023l.05469-.19071a3.138,3.138,0,0,0,1.45434,1.22656A.33336.33336,0,0,1,16,22.47625v9.129a.12135.12135,0,0,1-.11856-.01308A12.215,12.215,0,0,0,14.89128,29.105Z" style="fill:#434c4b"/><polygon points="14.824 28.979 14.824 28.979 14.823 28.978 14.824 28.979" style="fill:#504f4d"/><path d="M10.1902,20.0343a.48518.48518,0,0,1,.51577.43182.48749.48749,0,1,1-.51577-.43182Z" style="fill:#434c4b"/><path d="M10.87564,23.56153a.3911.3911,0,0,1,.41539.37409.40584.40584,0,0,1-.41978.40407.42.42,0,0,1-.4177-.376A.407.407,0,0,1,10.87564,23.56153Z" style="fill:#434c4b"/><path d="M12.374,26.30613a.32222.32222,0,1,1-.013.64071.3423.3423,0,0,1-.34459-.32594A.34842.34842,0,0,1,12.374,26.30613Z" style="fill:#434c4b"/><polygon points="14.827 29.112 14.823 29.109 14.823 29.108 14.827 29.112" style="fill:#595b59"/><path d="M14.69076,29.02586a1.54157,1.54157,0,0,1,.13212.08323.8159.8159,0,0,1-.00216.12885.2733.2733,0,0,1-.376.24524c-.15172-.03922-.25513-.15914-.18609-.32019A.28079.28079,0,0,1,14.69076,29.02586Z" style="fill:#434c4b"/><polygon points="14.827 29.112 14.823 29.108 14.827 29.108 14.827 29.112" style="fill:#595b59"/><path d="M9.17605,23.36858a1.136,1.136,0,0,1,.02416.12693q.20079.52.40151,1.04063a14.958,14.958,0,0,0,1.17856,1.82548,15.40691,15.40691,0,0,0,2.09321,2.03756,13.86015,13.86015,0,0,1,2.36773,2.26432,9.09168,9.09168,0,0,1,.62994,1.05657l.01028-.12789a12.215,12.215,0,0,0-.99016-2.48723.12853.12853,0,0,0-.06785-.12661l.00359.12948.00008.00414-.00422-.00287a.8159.8159,0,0,1-.00216.12885.2733.2733,0,0,1-.376.24524c-.15172-.03922-.25513-.15914-.18609-.32019a.28079.28079,0,0,1,.43213-.13713,1.54157,1.54157,0,0,1,.13212.08323v-.00127H14.827l-.00359-.12916-.04385-.06347c-.07183-.12182-.1455-.24206-.215-.36484-.60427-1.06773-1.28324-2.09433-1.78569-3.21851a11.52856,11.52856,0,0,1-.70481-4.98914c.0004-.03413.04194-.06761.06434-.10142a3.80646,3.80646,0,0,1-.84027-2.13579c-.00374-.03157-.0118-.06282-.01778-.0944-.05549.01244-.04034.06155-.0523.09759a2.02085,2.02085,0,0,1-.51377.85183c-.15946.15308-.23991.13139-.33622-.04911a3.03443,3.03443,0,0,1-.28535-1.02564c-.0189-.13235-.0437-.26375-.0657-.39546-.05478.12661-.10229.257-.16664.37856-.04775.09025-.06051.244-.19007.23376-.10891-.00893-.14734-.14351-.1943-.23855a3.38193,3.38193,0,0,1-.24549-2.30768c.01316-.05868.07989-.14033.00941-.16871-.08013-.03221-.119.06761-.16065.12852-.00256.09695.01762.199-.06028.28-.0932.70927-.22922,1.41121-.2891,2.12654A14.345,14.345,0,0,0,9.17605,23.36858ZM12.0164,26.6209a.34842.34842,0,0,1,.35759-.31477.32222.32222,0,1,1-.013.64071A.3423.3423,0,0,1,12.0164,26.6209Zm-1.56285-2.65722a.407.407,0,0,1,.42209-.40215.3911.3911,0,0,1,.41539.37409.40584.40584,0,0,1-.41978.40407A.42.42,0,0,1,10.45355,23.96368Zm-.71876-3.4695a.47766.47766,0,0,1,.45541-.45988.48518.48518,0,0,1,.51577.43182.48636.48636,0,0,1-.97118.02806Z" style="fill:#c1ddee"/><path d="M14.8239,28.97928l-.04439-.06417Z" style="fill:#595b59"/><path d="M7.22571,23.55451a.17145.17145,0,0,1,.19.17636.18782.18782,0,0,1-.20123.20475c-.11569.00159-.16576-.0826-.16839-.19167A.17547.17547,0,0,1,7.22571,23.55451Z" style="fill:#373f3f"/><path d="M13.82985,8.27869c.46123-.11034.59605.00479.598.5444.03827.13426-.06076.31509.07311.46083a.83172.83172,0,0,0,.13434-.44648.25543.25543,0,0,1,.01356-.06315c.02272-.0472.04185-.12246.0763-.13107.05366-.01372.08435.05326.10755.103a1.59344,1.59344,0,0,1,.14248.97556c-.02886.16552-.08691.16488-.20945.10078a2.05037,2.05037,0,0,1-1.07643-1.31776C13.64846,8.35779,13.70188,8.30963,13.82985,8.27869Z" style="fill:#529ccf"/><path d="M13.25157,7.29515c-.00143.09249.02424.19008-.05533.2663a1.363,1.363,0,0,0-.76205-.31924c-.34826-.09759-.712-.13968-1.06909-.206A4.72976,4.72976,0,0,1,13.25157,7.29515Z" style="fill:#962931"/><path d="M13.32452,9.05749q.05873.13347.11752.26661a3.43287,3.43287,0,0,0-1.37788.13778l-.0531-.06793a1.88205,1.88205,0,0,1,.99622-.2073C13.123,9.18442,13.28275,9.25522,13.32452,9.05749Z" style="fill:#962931"/><path d="M14.2914,10.56214a.14842.14842,0,0,1-.053-.13713l.06642.06633Z" style="fill:#ba7e76"/><path d="M11.52033,12.54708a1.91721,1.91721,0,0,1,1.7082.48221.42664.42664,0,0,1-.14407.71947,1.55418,1.55418,0,0,1-.726.14479,1.60311,1.60311,0,0,1-.98657-.26119.64126.64126,0,0,1-.26215-.627A.55733.55733,0,0,1,11.52033,12.54708Z" style="fill:#505957"/><path d="M11.00831,14.99637a1.68791,1.68791,0,0,1,1.674.41714.34139.34139,0,0,1-.144.57979,2.16417,2.16417,0,0,1-.96488.19072,1.2909,1.2909,0,0,1-.52677-.08579.52315.52315,0,0,1-.39945-.49751A.61346.61346,0,0,1,11.00831,14.99637Z" style="fill:#505957"/><path d="M13.442,9.3241a4.017,4.017,0,0,0,.79634,1.10091.14842.14842,0,0,0,.053.13713q.04293.51713.086,1.03489a1.358,1.358,0,0,1,.056.57373.22729.22729,0,0,1-.02647.07877.33347.33347,0,0,1-.04736-.0708c-.02081-.06059-.03524-.12342-.05222-.18529a3.92348,3.92348,0,0,0-1.17705-1.3605,6.92089,6.92089,0,0,1-1.06606-1.17106A3.43287,3.43287,0,0,1,13.442,9.3241Z" style="fill:#a92f31"/><path d="M8.90656,14.6934l-.02966.04337c-.03875.04656-.07749.09376-.11616.14032a2.27823,2.27823,0,0,0-.32259.87766c-.01164.07335-.02711.18816.01053.21687.07064.05421.12709-.0472.18489-.088.106-.07463.20554-.15819.30783-.23792.046-.04528.09193-.09057.13786-.13522.04161-.06123.08052-.16073.16065-.12884.07048.0287.00375.11034-.00941.169A3.38213,3.38213,0,0,0,9.476,17.85833c.047.095.08539.22962.1943.23855.12956.01021.14232-.14351.19007-.23408.06435-.12119.11186-.252.16664-.37824.022.13139.0468.26279.0657.39546a3.03641,3.03641,0,0,0,.28535,1.02564c.09631.1805.17676.20219.33622.04911a2.02,2.02,0,0,0,.51377-.85215c.012-.03572-.00319-.08483.0523-.09759.006.03189.014.06315.01778.0944a3.80655,3.80655,0,0,0,.84027,2.13611c.13682.25513.26351.23217.40287-.00383a2.55057,2.55057,0,0,0,.32338-.66845.27622.27622,0,0,1,.30114-.23344c.178.00765.08372.16775.09671.25449a2.58714,2.58714,0,0,0,.91936,1.73172c.03756.0303.09775.19709.17724.02488l.00144.00414.05469-.19071a2.13118,2.13118,0,0,0-.16982-.25992,1.77236,1.77236,0,0,1,.16982.25386,3.13427,3.13427,0,0,0,1.45434,1.22656A.64173.64173,0,0,1,16,22.37866v-9.9196c-.01754-.00638-.03532-.0185-.051-.06888A4.13347,4.13347,0,0,0,14.3048,10.4856l-.01348.0708q.043.51664.086,1.03457a1.359,1.359,0,0,1,.056.574.2236.2236,0,0,1-.02647.07845.32585.32585,0,0,1-.04736-.0708c-.02081-.06059-.03524-.1231-.05222-.185a3.92061,3.92061,0,0,0-1.17705-1.3605,6.93313,6.93313,0,0,1-1.06606-1.17106l-.0531-.06825a.64955.64955,0,0,1-.196-.27491,1.74474,1.74474,0,0,0-.74778.69588,4.97,4.97,0,0,0-.75289,1.54547,7.35615,7.35615,0,0,1-1.11406,2.272,3.76384,3.76384,0,0,1-1.257,1.11876c-.05573.02807-.15053.08292-.14534.10971.01905.09695.11847.06633.18927.074a1.80954,1.80954,0,0,0,.76277-.141c.02137-.01914.04266-.03827.064-.05677C8.83632,14.69722,8.85936,14.66533,8.90656,14.6934Zm3.45188-.80559a1.601,1.601,0,0,1-.98657-.26151.641.641,0,0,1-.26215-.627.55693.55693,0,0,1,.41061-.458,1.91631,1.91631,0,0,1,1.7082.48221.42664.42664,0,0,1-.14407.71947A1.55816,1.55816,0,0,1,12.35844,13.88781Zm-1.71123,1.70685a.613.613,0,0,1,.3611-.604,1.6872,1.6872,0,0,1,1.674.41714.34139.34139,0,0,1-.144.57979,2.16843,2.16843,0,0,1-.96488.19071,1.29175,1.29175,0,0,1-.52677-.0861A.52286.52286,0,0,1,10.64721,15.59466Z" style="fill:#edeeee"/><path d="M5.30591,12.98591c-.03142.30425-.23528.44075-.66917.44681-.20658.40534.04552.68471.27929.95579a.75442.75442,0,0,1,.18968.42863,2.5559,2.5559,0,0,0,.41084,1.1178c.04569.06761.16257.12629.10429.24557a5.248,5.248,0,0,0,1.864.32561c.07877.00032.19518-.05485.23169.038.02671.06793-.08555.10812-.14048.154a6.46369,6.46369,0,0,0-2.35568,4.38c-.02831.25768-.06873.51441-.10349.77146.11975-.06283.14925.03094.18824.10843.10261.20379.20163.40981.30863.61137a.365.365,0,0,0,.56743.17157,3.99608,3.99608,0,0,0,.74842-.56193.96044.96044,0,0,1-.16663-.19836.50916.50916,0,0,1,.06482-.5798.45811.45811,0,0,1,.52039-.17891.44448.44448,0,0,1,.26638.48029.54582.54582,0,0,1-.36556.49687.98837.98837,0,0,1,.33143.84354c-.0161.27172.12079.36484.39578.2883a2.46462,2.46462,0,0,0,.5715-.229c.16911-.097.283-.067.36181.11608.05621.13076.1235.259.2907.27746a1.136,1.136,0,0,0-.02416-.12693,14.345,14.345,0,0,1-.44617-5.44583c.05988-.71533.1959-1.41727.2891-2.12654.0779-.081.05772-.18306.06028-.28q-.06889.06746-.13786.13522c-.10229.07973-.20187.16329-.30783.23792-.0578.04082-.11425.14255-.18489.088-.03764-.02871-.02217-.14352-.01053-.21655a2.28084,2.28084,0,0,1,.32251-.878c.03875-.04656.07749-.09376.11624-.14032l.02966-.043c-.0472-.02839-.07024.0035-.09248.03731l-.064.05677a1.8046,1.8046,0,0,1-.76277.141c-.0708-.00734-.17022.023-.18927-.074-.00519-.02647.08961-.08133.14534-.10971a3.76384,3.76384,0,0,0,1.257-1.11876,7.34917,7.34917,0,0,0,1.11406-2.272,4.97342,4.97342,0,0,1,.75289-1.54547,1.73948,1.73948,0,0,1,.74778-.69524c-.0173-.02743-.03548-.05454-.05167-.0826a2.67672,2.67672,0,0,1-.40271-2.00312A7.36519,7.36519,0,0,1,11.818,5.07358a3.79806,3.79806,0,0,0,.13586-1.63127.39153.39153,0,0,1-.00224-.0641,3.35476,3.35476,0,0,0-.55029-1.23708.51925.51925,0,0,1-.04935-.10779.31384.31384,0,0,1,.12071-.00064,3.02751,3.02751,0,0,1,1.72008,1.54037.14435.14435,0,0,1,.06482.13171,3.6066,3.6066,0,0,1,.263,1.69569c.10181.09854.04672.22547.062.33964.0224.16775-.05414.34635.05764.50389a3.72151,3.72151,0,0,1,1.06024-1.12195,8.13654,8.13654,0,0,0-2.86-3.3818,4.26651,4.26651,0,0,0-.93028-.52175.69472.69472,0,0,1-.90262.24557.66942.66942,0,0,0-.88683.3422c-.0503.09185-.12445.066-.19422.07016a2.43169,2.43169,0,0,1-.90947-.192c-.1235-.0405-.25162-.1011-.32505.075.13841.27235.15132.50963-.18266.649a.79951.79951,0,0,1-.40678.18561c-.43461.05837-.5188.17158-.42416.60212a3.29127,3.29127,0,0,1,.11552.83142c-.00606.16679-.052.27618-.24245.26374A13.44306,13.44306,0,0,1,7.63687,6.85313,3.91271,3.91271,0,0,0,8.4124,8.23022c.03357.03954.09081.09312.08284.12788-.01954.08484-.10652.04593-.16337.04689A7.95033,7.95033,0,0,0,4.44316,9.58881a1.24943,1.24943,0,0,0,.10946.72713c.14663.24588.02934.38716-.168.50038-.16886.09663-.34857.17413-.52174.26342-.19263.09919-.21974.19391-.03812.35974a6.48931,6.48931,0,0,1,.8138.73989C5.12675,12.313,5.34784,12.57993,5.30591,12.98591ZM9.07216,5.82176a.21039.21039,0,0,1,.24174-.23728.24285.24285,0,0,1,.25784.2714c-.0051.15053-.1278.21335-.26765.23472A.25731.25731,0,0,1,9.07216,5.82176ZM6.2031,14.50906c-.00829-.13458.085-.18625.1998-.20506.12438.02424.20076.08706.19757.21878-.00295.12565-.05932.21718-.19374.2041A.2199.2199,0,0,1,6.2031,14.50906Z" style="fill:#ef8c48"/><path d="M13.32086,5.52421a5.37067,5.37067,0,0,0-1.37773-.32115c-.07869-.00319-.11242-.05263-.12079-.125a11.2012,11.2012,0,0,1,1.69385.32657C13.5425,5.59405,13.4312,5.55833,13.32086,5.52421Z" style="fill:#962931"/></svg>