<svg xmlns="http://www.w3.org/2000/svg" viewBox="0 0 32 32"><defs><style>.a{fill:#f7d684;}.b{fill:#373f3f;}.c{fill:#fae09f;}.d{fill:#58b7ae;}.e{fill:#e3e5e5;}.f{fill:#4eafa3;}.g{fill:#9fccd3;}.h{fill:#45a396;}.i{fill:#93c2ca;}.j{fill:#2b3332;}.k{fill:#505957;}.l{fill:#434c4b;}.m{fill:#ddb481;}.n{fill:#e1e1dc;}.o{fill:#ced2cf;}.p{fill:#65999b;}.q{fill:#a5d1d8;}.r{fill:#f0c877;}.s{fill:#e1d9ca;}.t{fill:#fdebbb;}.u{fill:#67bfb5;}.v{fill:#edeeee;}.w{fill:#99c7ce;}.x{fill:#5c6664;}.y{fill:#6ba0a5;}.z{fill:#acd7dd;}</style></defs><title>638-cobalion</title><path class="a" d="M21.9267,14.63531c-.05192.01-.14168.008-.15769-.02011-.03217-.05658.04481-.09651.07619-.14276a5.58689,5.58689,0,0,0,.74374-1.74155c.01307-.04941.07088-.11317.00682-.15339-.02448-.01551-.0894.02528-.1317.048a5.76351,5.76351,0,0,0-2.20013,2.01558c-.0711.11289-.1075.25393-.24014.32172q-.21888.67128-.43769,1.34314a1.16515,1.16515,0,0,0,.21594.69743,1.09655,1.09655,0,0,1,1.012.17953,10.6862,10.6862,0,0,0,1.5351-.38548c.07662-.02586.20624-.01121.21155-.11921.00431-.08847-.1052-.13271-.17529-.18355a3.21066,3.21066,0,0,0-.67086-.36221c-.13392-.05486-.13514-.09307-.0079-.15511a3.52383,3.52383,0,0,0,.72824-.43891c.30713-.25507.61075-.51474.9158-.77268v-.0586A4.40784,4.40784,0,0,0,21.9267,14.63531Z"/><path class="b" d="M21.91694,30.68213a.89074.89074,0,0,0-.73764-.33837.50171.50171,0,0,1-.05817.00632c-1.20362-.00862-.82331-.004-1.62658.77527-.12208.11863-.09709.26771-.10442.4119.14025.17867.37586.25651.49018.46275h2.294c.37241-.6282.37241-.6282-.12065-1.16707C22.00785,30.783,21.96275,30.73211,21.91694,30.68213Z"/><path class="c" d="M19.17011.93641a.91944.91944,0,0,0-.41823.6598,2.70386,2.70386,0,0,1-.15777.76,1.48272,1.48272,0,0,1,.64737.35475c.06765-.08273.04345-.18412.05587-.278a1.8032,1.8032,0,0,1,.35338-1.19034l-.01091-.01177A1.77266,1.77266,0,0,1,19.17011.93641Z"/><path class="c" d="M17.912,2.96664a2.50511,2.50511,0,0,0-.13156.8l.04381.00143a.87958.87958,0,0,1,.59351.11921c.11232-.30678.3862-.47453.59754-.69628a1.7201,1.7201,0,0,0-.84435-.488A.46108.46108,0,0,0,17.912,2.96664Z"/><path class="c" d="M19.23775.88586a.64806.64806,0,0,1,.4537.28609l.01343.00718c.41894-.28667.46979-.8129.76636-1.17913a.69541.69541,0,0,0-.39194.18068A4.11441,4.11441,0,0,1,19.23775.88586Z"/><path class="c" d="M18.27455,2.638a.98377.98377,0,0,1,.79394.4975.38953.38953,0,0,0,.1503-.25622,1.2347,1.2347,0,0,0-.706-.411C18.43333,2.52458,18.3539,2.58145,18.27455,2.638Z"/><path class="c" d="M17.98767,3.88438c-.08308.00115-.15762-.00919-.16344-.11633l-.04381-.00143-.0094.35445c.21651.01408.4603-.07382.61656.16517l.05336-.079c-.01271-.0698-.02578-.139-.03885-.20854A1.03482,1.03482,0,0,0,17.98767,3.88438Z"/><path class="a" d="M18.27455,2.638l-.10362.06492a1.7201,1.7201,0,0,1,.84435.488l.05321-.05544A.98377.98377,0,0,0,18.27455,2.638Z"/><path class="a" d="M18.51275,2.46828a1.2347,1.2347,0,0,1,.706.411l.02269-.16832a1.48257,1.48257,0,0,0-.64744-.35475Z"/><path class="a" d="M17.98767,3.88438a1.03482,1.03482,0,0,1,.41442.11433l.01565-.11145a.87958.87958,0,0,0-.59351-.11921C17.83005,3.87519,17.90459,3.88553,17.98767,3.88438Z"/><path class="a" d="M19.63982,1.23112l.01084.01149.05422-.06348L19.69145,1.172Z"/><path class="d" d="M18.77105,5.76927a3.961,3.961,0,0,1,.69427-2.12042c.01766-.02471.05364-.054.049-.07354-.0084-.03447-.0331-.01723-.04574.008l-.05759.01638a.10358.10358,0,0,0,.02578.04308l.01321.00805-.01336-.00805a.10485.10485,0,0,1-.02563-.04308,2.59079,2.59079,0,0,0-.97038.6078l-.05307.07871a.44023.44023,0,0,1-.0303.30965A3.02109,3.02109,0,0,1,17.935,5.93817a2.66786,2.66786,0,0,1-.15626.59689.38083.38083,0,0,1,.033.297l.00934.46332a4.24047,4.24047,0,0,1-.07756,1.94521A2.10884,2.10884,0,0,1,16,10.71272v.74166a2.26923,2.26923,0,0,0,1.4839-.79078c.022-.02843.05816-.07669.07612-.0721.06183.01666.0349.07871.03705.1218a1.17831,1.17831,0,0,1-.3062.8916c-.11174.12006-.13709.17091.03052.26914a3.92668,3.92668,0,0,1,1.9121,3.06977,2.57408,2.57408,0,0,0,.35259,1.3621q.21878-.67172.43755-1.34343A20.47861,20.47861,0,0,1,18.77105,5.76927Zm-.8888,4.68436a1.01781,1.01781,0,0,1,.60422-.93354c.09572-.027.10893.035.09278.09479a1.89939,1.89939,0,0,1-.4741.88614C18.02982,10.57542,17.9313,10.59782,17.88225,10.45363Zm.52695.60378c-.09314.00374-.13-.04193-.10915-.10915a.47368.47368,0,0,1,.31848-.35216c.05479-.01522.09055.03907.07727.09422A.51442.51442,0,0,1,18.4092,11.05741Z"/><path class="e" d="M16.05381,22.23834c.12911.40731.48888.6282.75085.92808q.1563-.04911.31245-.09881a1.01092,1.01092,0,0,1,.11008-1.50917c.33263-.33378.72321-.59632,1.08471-.89448a2.30059,2.30059,0,0,0,.85964-2.34447c-.00869-.04711-.07339-.10829-.0023-.14477.02169-.01092.08237.04078.11792.07209a1.76925,1.76925,0,0,1,.44314.64716c.01968.04567.01242.13845.086.12466.06154-.01206.051-.09593.06018-.15252a5.25329,5.25329,0,0,0-.07433-1.86277,1.16474,1.16474,0,0,1-.216-.69743,2.57408,2.57408,0,0,1-.35259-1.3621,3.92668,3.92668,0,0,0-1.9121-3.06977c-.16761-.09823-.14226-.14908-.03052-.26914a1.17831,1.17831,0,0,0,.3062-.8916c-.00215-.04309.02478-.10514-.03705-.1218-.018-.00459-.05408.04367-.07612.0721A2.26923,2.26923,0,0,1,16,11.45438V22.14355A.08043.08043,0,0,1,16.05381,22.23834Z"/><path class="f" d="M19.80211,17.00334a5.25329,5.25329,0,0,1,.07433,1.86277c-.0092.05659.00136.14046-.06018.15252-.07354.01379-.06628-.079-.086-.12466a1.76925,1.76925,0,0,0-.44314-.64716c-.03555-.03131-.09623-.083-.11792-.07209-.07109.03648-.00639.09766.0023.14477A2.30059,2.30059,0,0,1,18.3119,20.664c-.3615.29816-.75208.5607-1.08471.89448a1.01092,1.01092,0,0,0-.11008,1.50917,2.74561,2.74561,0,0,0,.6175-.247c.0731-.0382.13838-.07583.19748.01609.11705-.33321.48005-.4076.68924-.6486.08538-.09823.08675.05688.10405.10054a2.1552,2.1552,0,0,1,.08029.63365c.06319.77585.17694,1.54709.20042,2.32725.00933.31022.0652.62015.04675.93325L19.047,26.578a2.166,2.166,0,0,1-.03332.55467c.36774.33665.74181.66669,1.09993,1.01339.13464.13012.22426.15109.35287.00173a3.86457,3.86457,0,0,1,.34347-.31827c.00948-.19532.00539-.39237.03081-.5854.14657-1.11393.30118-2.22671.3513-3.35069a24.81549,24.81549,0,0,0-.378-6.71056A1.09644,1.09644,0,0,0,19.80211,17.00334Z"/><path class="g" d="M19.77662,28.63007c-.25651-.19389-.51589-.384-.774-.57592-.14427.112.00524.30217-.11209.42109q-.06808.5877-.13644,1.1754c-.009.07641-.01214.158-.11052.18039a.51685.51685,0,0,1,.02815.4211.88025.88025,0,0,0,.21349.89189c.15741.143.33593.26282.5049.39323.00733-.14419-.01766-.29327.10442-.4119.80327-.77929.423-.78389,1.62658-.77527a.50171.50171,0,0,0,.05817-.00632q-.151-.879-.30218-1.75793C20.34356,29.0595,20.34414,29.05863,19.77662,28.63007Z"/><path class="h" d="M18.80567,22.92226a2.1552,2.1552,0,0,0-.08029-.63365c-.0173-.04366-.01867-.19877-.10405-.10054-.20919.241-.57219.31539-.68924.6486.09091.96054.27417,1.91131.31668,2.87731l.80414.46878c.01838-.3131-.03749-.623-.04682-.93325C18.98261,24.46935,18.86886,23.69811,18.80567,22.92226Z"/><path class="i" d="M18.23513,26.17673c-.18376.79279-.40358,1.57782-.52005,2.38411a.69616.69616,0,0,0,.052.55352.69637.69637,0,0,0,.38943-.36336.84237.84237,0,0,1,.58174-.40818c.14024-.03877.14261.04165.15231.13242.11733-.11892-.03218-.30907.11209-.42109-.10585-.3085.03684-.61413.011-.92148A2.16293,2.16293,0,0,0,19.047,26.578,8.97475,8.97475,0,0,0,18.23513,26.17673Z"/><path class="j" d="M18.73824,28.34282a.84237.84237,0,0,0-.58174.40818.69637.69637,0,0,1-.38943.36336,5.29786,5.29786,0,0,0,.87652.71667c.09838-.02241.10154-.104.11052-.18039q.06915-.58726.13644-1.1754C18.88085,28.38447,18.87848,28.30405,18.73824,28.34282Z"/><path class="j" d="M18.23513,26.17673a8.97475,8.97475,0,0,1,.81189.40127l.00589-.39524q-.40211-.23439-.80414-.46907Z"/><path class="b" d="M20.4665,28.14779c-.12861.14936-.21823.12839-.35287-.00173-.35812-.3467-.73219-.67674-1.1-1.01339.02585.30735-.11684.613-.011.92148.25809.19187.51747.382.774.57592.56752.42856.56694.42943,1.1005-.04424q-.03362-.3783-.06715-.75631A3.86457,3.86457,0,0,0,20.4665,28.14779Z"/><path class="k" d="M17.74193,6.22714a.41188.41188,0,0,1-.51732.14477c-.21335-.08847-.21428-.2364-.186-.44982A3.281,3.281,0,0,1,17.58891,4.537a2.94787,2.94787,0,0,0-1.22-.3671A2.25423,2.25423,0,0,0,16,4.13946V9.00535l.1126-.06377h-.00007c.32006-.15683.48271-.4751.72658-.71006.34325-.158.34627-.54088.53147-.80342a.11672.11672,0,0,1,.02176-.01867q.131-.26327.26189-.52594l.04029-.0698-.00309.00115.02262-.10284q.03221-.08875.06456-.17694a2.66426,2.66426,0,0,0,.15633-.59689C17.87112,6.03468,17.81432,6.13723,17.74193,6.22714Z"/><path class="c" d="M18.04182,4.29572c-.09566.00258-.19152-.00115-.28732-.002-.07145.07008-.0512.2025-.16559.24329a3.281,3.281,0,0,0-.55029,1.38509c-.02829.21342-.02736.36135.186.44982a.41188.41188,0,0,0,.51732-.14477c.07239-.08991.12919-.19246.193-.289a3.02109,3.02109,0,0,0,.42225-1.34228C18.37408,4.36753,18.24942,4.28968,18.04182,4.29572Z"/><path class="a" d="M17.771,4.12107l-.01652.17264c.0958.00086.19166.00459.28732.002.2076-.006.33226.07181.31539.30017a.44062.44062,0,0,0,.03037-.30965C18.23132,4.04725,17.98753,4.13515,17.771,4.12107Z"/><path class="a" d="M19.17011.93641a1.78078,1.78078,0,0,0,.46971.29471l.05163-.05917a.64806.64806,0,0,0-.4537-.28609Z"/><path class="l" d="M18.48647,9.52009a1.01781,1.01781,0,0,0-.60422.93354c.04905.14419.14757.12179.2229.04739a1.89939,1.89939,0,0,0,.4741-.88614C18.5954,9.55513,18.58219,9.49309,18.48647,9.52009Z"/><path class="l" d="M18.61853,10.5961a.47368.47368,0,0,0-.31848.35216c-.0209.06722.016.11289.10915.10915a.51442.51442,0,0,0,.2866-.36709C18.70908,10.63517,18.67332,10.58088,18.61853,10.5961Z"/><path class="f" d="M16.05381,22.23834A.08027.08027,0,0,0,16,22.14355v1.08319a3.9961,3.9961,0,0,0,.80464-.06032C16.54269,22.86654,16.18292,22.64565,16.05381,22.23834Z"/><polygon class="m" points="17.468 8.117 17.467 8.118 17.466 8.12 17.468 8.117"/><polygon class="n" points="17.691 6.815 17.694 6.815 17.695 6.814 17.691 6.815"/><path class="e" d="M17.76549,7.298q-.00011-.23784-.00015-.4751h-.00007a.10261.10261,0,0,0-.0512-.11088l-.02262.10284.00208.00028-.03928.06837-.26182.52565a.78825.78825,0,0,1,.07361.71064A1.01442,1.01442,0,0,0,17.76549,7.298Z"/><path class="o" d="M17.69452,6.81355l-.04024.06993Z"/><path class="p" d="M16,9.12858v.098c-.00021.0201.00129.04021,0,.06089v.4211l.06384-.05429c.17615-.07612.36659-.18154.32782-.39036C16.3557,9.07027,16.15327,9.11766,16,9.12858Z"/><path class="q" d="M17.821,7.29539l-.00934-.46332a.38055.38055,0,0,0-.033-.297q-.03243.08834-.06456.17694a.10261.10261,0,0,1,.0512.11088h.00007q0,.23741.00015.4751a1.01442,1.01442,0,0,1-.29945.8218l.00165-.00287-.06.06118.00194-.0023-.05817.06147a.13161.13161,0,0,1-.11863.06147l-.06075-.00517c-.05817.00115-.11634.00259-.1745.004l-.15856-.06606c-.2438.235-.40645.55323-.72644.71006L16,9.00535v.09422l.00022.00689L16,9.10761v.021c.15325-.01092.35568-.05831.39166.13529.03877.20882-.15167.31424-.32782.39036L16,9.70852v.73391c.00015.006-.00007.01177.00007.01752L16,10.46023v.25249A2.10884,2.10884,0,0,0,17.74344,9.2406,4.24047,4.24047,0,0,0,17.821,7.29539Z"/><path class="r" d="M17.39243,7.40914a.12783.12783,0,0,0-.02183.019c-.1852.26254-.18822.64543-.53154.80342l.15856.06606c.05816-.00143.11633-.00287.1745-.004l.06082.00517a.13158.13158,0,0,0,.11856-.06147l.05817-.06147-.00194.0023.05881-.06A.78937.78937,0,0,0,17.39243,7.40914Z"/><path class="s" d="M17.40771,8.178l.06-.0611Z"/><path class="c" d="M10.0733,14.63531c.05192.01.14168.008.15769-.02011.03217-.05658-.04481-.09651-.07619-.14276a5.58689,5.58689,0,0,1-.74374-1.74155c-.01307-.04941-.07088-.11317-.00682-.15339.02448-.01551.0894.02528.1317.048a5.76351,5.76351,0,0,1,2.20013,2.01558c.0711.11289.1075.25393.24014.32172q.21888.67128.43769,1.34314a1.16515,1.16515,0,0,1-.21594.69743,1.09655,1.09655,0,0,0-1.012.17953,10.6862,10.6862,0,0,1-1.5351-.38548c-.07662-.02586-.20624-.01121-.21155-.11921-.00431-.08847.1052-.13271.17529-.18355a3.21066,3.21066,0,0,1,.67086-.36221c.13392-.05486.13514-.09307.0079-.15511a3.52383,3.52383,0,0,1-.72824-.43891c-.30713-.25507-.61075-.51474-.9158-.77268v-.0586A4.40784,4.40784,0,0,1,10.0733,14.63531Z"/><path class="l" d="M10.08306,30.68213a.89074.89074,0,0,1,.73764-.33837.50171.50171,0,0,0,.05817.00632c1.20362-.00862.82331-.004,1.62658.77527.12208.11863.09709.26771.10442.4119-.14025.17867-.37586.25651-.49018.46275h-2.294c-.37241-.6282-.37241-.6282.12065-1.16707C9.99215,30.783,10.03725,30.73211,10.08306,30.68213Z"/><path class="t" d="M12.82989.93641a.91944.91944,0,0,1,.41823.6598,2.70386,2.70386,0,0,0,.15777.76,1.48272,1.48272,0,0,0-.64737.35475c-.06765-.08273-.04345-.18412-.05587-.278a1.8032,1.8032,0,0,0-.35338-1.19034l.01091-.01177A1.77266,1.77266,0,0,0,12.82989.93641Z"/><path class="t" d="M14.088,2.96664a2.50511,2.50511,0,0,1,.13156.8l-.04381.00143a.87958.87958,0,0,0-.59351.11921c-.11232-.30678-.3862-.47453-.59754-.69628a1.7201,1.7201,0,0,1,.84435-.488A.46108.46108,0,0,1,14.088,2.96664Z"/><path class="t" d="M12.76225.88586a.64806.64806,0,0,0-.4537.28609l-.01343.00718C11.87618.89246,11.82533.36623,11.52876,0a.69541.69541,0,0,1,.39194.18068A4.11441,4.11441,0,0,0,12.76225.88586Z"/><path class="t" d="M13.72545,2.638a.98377.98377,0,0,0-.79394.4975.38953.38953,0,0,1-.1503-.25622,1.2347,1.2347,0,0,1,.706-.411C13.56667,2.52458,13.6461,2.58145,13.72545,2.638Z"/><path class="t" d="M14.01233,3.88438c.08308.00115.15762-.00919.16344-.11633l.04381-.00143.0094.35445c-.21651.01408-.4603-.07382-.61656.16517l-.05336-.079c.01271-.0698.02578-.139.03885-.20854A1.03482,1.03482,0,0,1,14.01233,3.88438Z"/><path class="c" d="M13.72545,2.638l.10362.06492a1.7201,1.7201,0,0,0-.84435.488l-.05321-.05544A.98377.98377,0,0,1,13.72545,2.638Z"/><path class="c" d="M13.48725,2.46828a1.2347,1.2347,0,0,0-.706.411L12.75852,2.711a1.48257,1.48257,0,0,1,.64744-.35475Z"/><path class="c" d="M14.01233,3.88438a1.03482,1.03482,0,0,0-.41442.11433l-.01565-.11145a.87958.87958,0,0,1,.59351-.11921C14.17,3.87519,14.09541,3.88553,14.01233,3.88438Z"/><path class="c" d="M12.36018,1.23112l-.01084.01149-.05422-.06348.01343-.00718Z"/><path class="u" d="M11.97635,14.96248q.21867.67172.43755,1.34343a2.57408,2.57408,0,0,0,.35259-1.3621,3.92668,3.92668,0,0,1,1.9121-3.06977c.16761-.09823.14226-.14908.03052-.26914a1.17831,1.17831,0,0,1-.3062-.8916c.00215-.04309-.02478-.10514.037-.1218.018-.00459.05408.04367.07612.0721A2.26923,2.26923,0,0,0,16,11.45438v-.74166A2.10884,2.10884,0,0,1,14.25656,9.2406,4.24047,4.24047,0,0,1,14.179,7.29539l.00934-.46332a.38083.38083,0,0,1,.033-.297,2.66786,2.66786,0,0,1-.15626-.59689,3.02109,3.02109,0,0,1-.42225-1.34228.44023.44023,0,0,1-.0303-.30965l-.05307-.07871a2.59079,2.59079,0,0,0-.97038-.6078.10485.10485,0,0,1-.02563.04308l-.01336.00805.01321-.00805a.10358.10358,0,0,0,.02578-.04308l-.05759-.01638c-.01264-.02527-.03734-.04251-.04574-.008-.00467.01953.03131.04883.049.07354A3.961,3.961,0,0,1,13.229,5.76927,20.47861,20.47861,0,0,1,11.97635,14.96248Zm1.9185-4.46146a1.89939,1.89939,0,0,1-.4741-.88614c-.01615-.05975-.00294-.12179.09278-.09479a1.01781,1.01781,0,0,1,.60422.93354C14.0687,10.59782,13.97018,10.57542,13.89485,10.501Zm-.59065.1893c-.01328-.05515.02248-.10944.07727-.09422a.47368.47368,0,0,1,.31848.35216c.0209.06722-.016.11289-.10915.10915A.51442.51442,0,0,1,13.3042,10.69032Z"/><path class="v" d="M15.94619,22.23834c-.12911.40731-.48888.6282-.75085.92808q-.1563-.04911-.31245-.09881a1.01092,1.01092,0,0,0-.11008-1.50917c-.33263-.33378-.72321-.59632-1.08471-.89448a2.30059,2.30059,0,0,1-.85964-2.34447c.00869-.04711.07339-.10829.0023-.14477-.02169-.01092-.08237.04078-.11792.07209a1.76925,1.76925,0,0,0-.44314.64716c-.01968.04567-.01242.13845-.086.12466-.06154-.01206-.051-.09593-.06018-.15252a5.25329,5.25329,0,0,1,.07433-1.86277,1.16474,1.16474,0,0,0,.216-.69743,2.57408,2.57408,0,0,0,.35259-1.3621,3.92668,3.92668,0,0,1,1.9121-3.06977c.16761-.09823.14226-.14908.03052-.26914a1.17831,1.17831,0,0,1-.3062-.8916c.00215-.04309-.02478-.10514.037-.1218.018-.00459.05408.04367.07612.0721A2.26923,2.26923,0,0,0,16,11.45438V22.14355A.08043.08043,0,0,0,15.94619,22.23834Z"/><path class="d" d="M12.19789,17.00334a5.25329,5.25329,0,0,0-.07433,1.86277c.0092.05659-.00136.14046.06018.15252.07354.01379.06628-.079.086-.12466a1.76925,1.76925,0,0,1,.44314-.64716c.03555-.03131.09623-.083.11792-.07209.07109.03648.00639.09766-.0023.14477A2.30059,2.30059,0,0,0,13.6881,20.664c.3615.29816.75208.5607,1.08471.89448a1.01092,1.01092,0,0,1,.11008,1.50917,2.74561,2.74561,0,0,1-.6175-.247c-.0731-.0382-.13838-.07583-.19748.01609-.117-.33321-.48005-.4076-.68924-.6486-.08538-.09823-.08675.05688-.104.10054a2.1552,2.1552,0,0,0-.08029.63365c-.06319.77585-.17694,1.54709-.20042,2.32725-.00933.31022-.0652.62015-.04675.93325l.00582.39524a2.166,2.166,0,0,0,.03332.55467c-.36774.33665-.74181.66669-1.09993,1.01339-.13464.13012-.22426.15109-.35287.00173a3.86457,3.86457,0,0,0-.34347-.31827c-.00948-.19532-.00539-.39237-.03081-.5854-.14657-1.11393-.30118-2.22671-.3513-3.35069a24.81549,24.81549,0,0,1,.378-6.71056A1.09644,1.09644,0,0,1,12.19789,17.00334Z"/><path class="q" d="M12.22338,28.63007c.25651-.19389.51589-.384.774-.57592.14427.112-.00524.30217.11209.42109q.06808.5877.13644,1.1754c.009.07641.01214.158.11052.18039a.51685.51685,0,0,0-.02815.4211.88025.88025,0,0,1-.21349.89189c-.15741.143-.33593.26282-.5049.39323-.00733-.14419.01766-.29327-.10442-.4119-.80327-.77929-.423-.78389-1.62658-.77527a.50171.50171,0,0,1-.05817-.00632q.151-.879.30218-1.75793C11.65644,29.0595,11.65586,29.05863,12.22338,28.63007Z"/><path class="f" d="M13.19433,22.92226a2.1552,2.1552,0,0,1,.08029-.63365c.0173-.04366.01867-.19877.104-.10054.20919.241.57219.31539.68924.6486-.09091.96054-.27417,1.91131-.31668,2.87731l-.80414.46878c-.01838-.3131.03749-.623.04682-.93325C13.01739,24.46935,13.13114,23.69811,13.19433,22.92226Z"/><path class="w" d="M13.76487,26.17673c.18376.79279.40358,1.57782.52,2.38411a.69616.69616,0,0,1-.052.55352.69637.69637,0,0,1-.38943-.36336.84237.84237,0,0,0-.58174-.40818c-.14024-.03877-.14261.04165-.15231.13242-.11733-.11892.03218-.30907-.11209-.42109.10585-.3085-.03684-.61413-.011-.92148A2.16293,2.16293,0,0,1,12.953,26.578,8.97475,8.97475,0,0,1,13.76487,26.17673Z"/><path class="b" d="M13.26176,28.34282a.84237.84237,0,0,1,.58174.40818.69637.69637,0,0,0,.38943.36336,5.29786,5.29786,0,0,1-.87652.71667c-.09838-.02241-.10154-.104-.11052-.18039q-.06915-.58726-.13644-1.1754C13.11915,28.38447,13.12152,28.30405,13.26176,28.34282Z"/><path class="b" d="M13.76487,26.17673a8.97475,8.97475,0,0,0-.81189.40127l-.00589-.39524q.4021-.23439.80414-.46907Z"/><path class="l" d="M11.5335,28.14779c.12861.14936.21823.12839.35287-.00173.35812-.3467.73219-.67674,1.1-1.01339-.02585.30735.11684.613.011.92148-.25809.19187-.51747.382-.774.57592-.56752.42856-.56694.42943-1.1005-.04424q.03361-.3783.06715-.75631A3.86457,3.86457,0,0,1,11.5335,28.14779Z"/><path class="x" d="M14.25807,6.22714a.41188.41188,0,0,0,.51732.14477c.21335-.08847.21428-.2364.186-.44982A3.281,3.281,0,0,0,14.41109,4.537a2.94787,2.94787,0,0,1,1.22-.3671A2.25423,2.25423,0,0,1,16,4.13946V9.00535l-.1126-.06377h.00007c-.32006-.15683-.48271-.4751-.72658-.71006-.34325-.158-.34627-.54088-.53147-.80342a.11672.11672,0,0,0-.02176-.01867q-.131-.26327-.26189-.52594l-.04029-.0698.00309.00115L14.28593,6.712q-.03221-.08875-.06456-.17694a2.66426,2.66426,0,0,1-.15633-.59689C14.12888,6.03468,14.18568,6.13723,14.25807,6.22714Z"/><path class="t" d="M13.95818,4.29572c.09566.00258.19152-.00115.28732-.002.07145.07008.0512.2025.16559.24329a3.281,3.281,0,0,1,.55029,1.38509c.02829.21342.02736.36135-.186.44982a.41188.41188,0,0,1-.51732-.14477c-.07239-.08991-.12919-.19246-.193-.289a3.02109,3.02109,0,0,1-.42225-1.34228C13.62592,4.36753,13.75058,4.28968,13.95818,4.29572Z"/><path class="c" d="M14.229,4.12107l.01652.17264c-.0958.00086-.19166.00459-.28732.002-.2076-.006-.33226.07181-.31539.30017a.44062.44062,0,0,1-.03037-.30965C13.76868,4.04725,14.01247,4.13515,14.229,4.12107Z"/><path class="c" d="M12.82989.93641a1.78078,1.78078,0,0,1-.46971.29471L12.30855,1.172a.64806.64806,0,0,1,.4537-.28609Z"/><path class="k" d="M13.51353,9.52009a1.01781,1.01781,0,0,1,.60422.93354c-.049.14419-.14757.12179-.2229.04739a1.89939,1.89939,0,0,1-.4741-.88614C13.4046,9.55513,13.41781,9.49309,13.51353,9.52009Z"/><path class="k" d="M13.38147,10.5961a.47368.47368,0,0,1,.31848.35216c.0209.06722-.016.11289-.10915.10915a.51442.51442,0,0,1-.2866-.36709C13.29092,10.63517,13.32668,10.58088,13.38147,10.5961Z"/><path class="d" d="M15.94619,22.23834A.08027.08027,0,0,1,16,22.14355v1.08319a3.9961,3.9961,0,0,1-.80464-.06032C15.45731,22.86654,15.81708,22.64565,15.94619,22.23834Z"/><polygon class="m" points="14.532 8.117 14.533 8.118 14.534 8.12 14.532 8.117"/><polygon class="n" points="14.309 6.815 14.306 6.815 14.305 6.814 14.309 6.815"/><path class="v" d="M14.23451,7.298q.0001-.23784.00015-.4751h.00007a.10261.10261,0,0,1,.0512-.11088l.02262.10284-.00208.00028.03928.06837.26182.52565a.78825.78825,0,0,0-.07361.71064A1.01442,1.01442,0,0,1,14.23451,7.298Z"/><path class="o" d="M14.30548,6.81355l.04024.06993Z"/><path class="y" d="M16,9.12858v.098c.00021.0201-.00129.04021,0,.06089v.4211l-.06384-.05429c-.17615-.07612-.36659-.18154-.32782-.39036C15.6443,9.07027,15.84673,9.11766,16,9.12858Z"/><path class="z" d="M14.179,7.29539l.00934-.46332a.38055.38055,0,0,1,.033-.297q.03243.08834.06456.17694a.10261.10261,0,0,0-.0512.11088h-.00007q0,.23741-.00015.4751a1.01442,1.01442,0,0,0,.29945.8218l-.00165-.00287.06.06118-.00194-.0023.05817.06147a.13161.13161,0,0,0,.11863.06147l.06075-.00517c.05817.00115.11634.00259.1745.004l.15856-.06606c.2438.235.40645.55323.72644.71006L16,9.00535v.09422l-.00022.00689L16,9.10761v.021c-.15325-.01092-.35568-.05831-.39166.13529-.03877.20882.15167.31424.32782.39036L16,9.70852v.73391c-.00015.006.00007.01177-.00007.01752L16,10.46023v.25249A2.10884,2.10884,0,0,1,14.25656,9.2406,4.24047,4.24047,0,0,1,14.179,7.29539Z"/><path class="a" d="M14.60757,7.40914a.12783.12783,0,0,1,.02183.019c.1852.26254.18822.64543.53154.80342l-.15856.06606c-.05816-.00143-.11633-.00287-.1745-.004l-.06082.00517a.13158.13158,0,0,1-.11856-.06147l-.05817-.06147.00194.0023-.05881-.06A.78937.78937,0,0,1,14.60757,7.40914Z"/><path class="s" d="M14.59229,8.178l-.06-.0611Z"/></svg>