<svg xmlns="http://www.w3.org/2000/svg" viewBox="0 0 32 32"><title>639-terrakion-shiny</title><path d="M12.99993,9.319c-.35717-.124-.54563-.29226-.49406-.70317a3.34385,3.34385,0,0,0-.05015-.77749c-.03091-.27227.01933-.42057.33851-.30093.28826.108.633.03266.8838.26794a2.46725,2.46725,0,0,1,1.15657.28526l.0709.00667c.23611.09831.08723.21495.01566.32759a.37682.37682,0,0,1-.24794.29027c-.34992.14763-.69443.30793-1.0411.46323C13.42958,9.25568,13.266,9.41132,12.99993,9.319Z" style="fill:#f7f7f7"/><rect x="13.00107" y="10.63254" width="2.99893" height="2.37675" style="fill:#f7f7f7"/><path d="M14.47643,12.61559a.80146.80146,0,0,1-.88588-.18029c-.12048-.10931-.36592-.154-.34326-.3256.01808-.13663.25136-.15529.39291-.22028q.90954-.4164,1.81717-.83714A1.68249,1.68249,0,0,1,16,10.89431V8.00963a1.22752,1.22752,0,0,1-.29518-.022q-1.99731-.43691-3.99677-.86381c-.20928-.01933-.22469.15-.26952.28361-.23036.68717-.4514,1.37735-.68942,2.06186a1.04689,1.04689,0,0,0,.015.76016q.74733,1.91558,1.48542,3.83514c.05123.13263.09414.26027.27327.24227,1.15965-.34458,2.335-.63652,3.47721-1.03943V12.21068A9.358,9.358,0,0,0,14.47643,12.61559ZM12.99993,9.319c-.35717-.124-.54563-.29226-.49406-.70317a3.34385,3.34385,0,0,0-.05015-.77749c-.03091-.27227.01933-.42057.33851-.30093.28826.108.633.03266.8838.26794a2.46725,2.46725,0,0,1,1.15657.28526l.0709.00667c.23611.09831.08723.21495.01566.32759a.37682.37682,0,0,1-.24794.29027c-.34992.14763-.69443.30793-1.0411.46323C13.42958,9.25568,13.266,9.41132,12.99993,9.319Z" style="fill:#baac9e"/><path d="M15.74213,7.15619c-.42932-.55054-.86664-1.09522-1.3-1.64234a.21623.21623,0,0,1-.06513-.21533.27449.27449,0,0,1-.19964-.10986q-1.037-1.30737-2.07679-2.61206a1.78531,1.78531,0,0,1-.13452-.23438q-.19986-.19848-.39959-.39721l-.01123.082q.18237.91479.36468,1.82983.19739.99134.39484,1.98218c.012.04419.0249.0874.0357.13135.16449.67187.16449.67187-.50641.53979a13.13928,13.13928,0,0,1-1.66217-.74975c-.31359-.15235-.624-.3108-.93585-.46656-.43341-.24634-.87048-.48657-1.29907-.74121a7.16907,7.16907,0,0,1-1.33221-.9956A1.03729,1.03729,0,0,0,5.0495,3.53168c-1.10443.833-2.24274,1.62158-3.36725,2.42822-.23035.16479-.46234.32764-.69354.4917-.06665.04788.02776.3251.06164.48462A10.99318,10.99318,0,0,0,2.187,10.04584,6.05912,6.05912,0,0,0,4.53186,12.665a11.09533,11.09533,0,0,0,3.57452,1.35254.25337.25337,0,0,0,.19239-.01734c.04266-.04028-.02918-.09546-.06659-.13525a5.02089,5.02089,0,0,1-.97138-1.70459,10.14308,10.14308,0,0,1-.811-3.89868,1.2318,1.2318,0,0,1,.075-.51612A3.71694,3.71694,0,0,1,6.92963,6.3222a.25848.25848,0,0,1,.373-.16064,3.40775,3.40775,0,0,0,.4986.09546c1.16229.25732,2.32556.5105,3.48541.77783.14014.03223.29956-.02319.42145.08862q1.99869.431,3.99676.86426A1.24388,1.24388,0,0,0,16,8.0097V7.26678A.28449.28449,0,0,1,15.74213,7.15619Z" style="fill:#b33533"/><path d="M14.34146,15.129c-.56521-.18729-1.11858-.41057-1.67712-.61786a19.09544,19.09544,0,0,1-1.02569,3.97377,1.85639,1.85639,0,0,1-.16762.37158,6.45174,6.45174,0,0,0-.86014,2.61774c-.04941.25528-.11023.50922-.17813.7605a.53557.53557,0,0,0,.03058.39557,4.24564,4.24564,0,0,0,1.32386,1.09675c.09756.052.2157.081.26578.19829a.43527.43527,0,0,1,.25835.06066A9.15168,9.15168,0,0,0,16,24.66453v-9.0023A6.612,6.612,0,0,1,14.34146,15.129Z" style="fill:#b6a799"/><path d="M6.21588,27.74457q1.548.03515,3.09607.06958c.32666.03857.46588-.10865.48578-.43506a4.47743,4.47743,0,0,0,.07086-1.55762.14611.14611,0,0,0-.14142-.1333c-1.33343-.062-2.667-.12085-4.00006-.1897-.21008-.011-.4339.05786-.62982-.07763-.20459.103-.39673.21679-.41876.47924-.02466.293-.05213.5857-.07312.87891a3.98829,3.98829,0,0,1-.32154,1.58032c-.24481.4834-.42041,1.00171-.6361,1.50049a.45247.45247,0,0,0,.06268.53418c1.07049.437,2.17761.76636,3.27856,1.11377a.187.187,0,0,1,.20563.11865,6.38983,6.38983,0,0,0,1.71454.0127c.82135-.02.82147-.01294.81647-.83228l.00372-.667q-.00283-.13659-.00562-.2727c-.011-.50977-.11505-.61524-.61743-.62623q-1.64721-.06629-3.29443-.13159a.24274.24274,0,0,1-.24915-.14258,1.295,1.295,0,0,1,.03064-.99292C5.71277,27.69964,5.977,27.739,6.21588,27.74457Z" style="fill:#b0a091"/><path d="M9.31193,27.81411c.32667.03864.46589-.10844.48578-.4351a4.47376,4.47376,0,0,0,.07082-1.55745,10.91781,10.91781,0,0,0,1.47387.08c.13705-.00245.27058.00828.34781-.13661.5835.41858.30186,1.0018.272,1.52543-.01934.33979-.32722.22172-.53331.24882-.09073-.00115-.1815-.00465-.27218-.00307-.6354.01108-.53954-.07469-.54471.53761-.00536.63642-.00122.63645.75279.691.58647.00093.60716.01626.611.45248.00781.8995.00781.8995-.614.9147l-1.6324.00788q-.00279-.1364-.00561-.27281c-.011-.50967-.11506-.6152-.61739-.626A7.63935,7.63935,0,0,0,9.31193,27.81411Z" style="fill:#ab998b"/><path d="M11.69021,25.765c-.07723.14489-.21076.13416-.34781.13661a10.91781,10.91781,0,0,1-1.47387-.08.14587.14587,0,0,0-.1414-.1333.24531.24531,0,0,1-.00137-.034c.09349-.99171.40062-1.94312.5523-2.92391.01687-.10906.10514-.10051.18527-.1a4.2465,4.2465,0,0,0,1.32388,1.0968c.09755.05184.21567.08091.26574.19828Z" style="fill:#cfab81"/><path d="M9.72936,30.13981l1.6324-.00788c-.02311.45092-.154.61258-.59456.65179-.34515.03073-.69424.01711-1.04157.02319Z" style="fill:#cfab81"/><path d="M11.36484,28.76475c-.754-.05455-.75815-.05458-.75279-.691.00517-.6123-.09069-.52653.54471-.53761.09068-.00158.18145.00192.27218.00307A7.41909,7.41909,0,0,0,11.36484,28.76475Z" style="fill:#cfab81"/><path d="M7.05615,31.62005l-4.5661.3545C2.62653,31.97455,5.94446,31.71893,7.05615,31.62005Z" style="fill:#373f3f"/><path d="M6.989,31.50775c-1.101-.34741-2.20807-.67676-3.27856-1.11377a11.68057,11.68057,0,0,0-1.04077,1.03076.54764.54764,0,0,0-.17963.54981l4.5661-.3545c.04614.0022.09235.0044.13849.00635A.187.187,0,0,0,6.989,31.50775Z" style="fill:#373f3f"/><path d="M10.46333,22.63033c-.08013-.00048-.1684-.009-.18527.1-.15168.98079-.45881,1.9322-.5523,2.92391a.24531.24531,0,0,0,.00137.034c-1.33338-.06217-2.667-.121-4-.18989-.21009-.01085-.43394.058-.62986-.07751-.107-2.1086-.36-4.2004-.66281-6.28964A16.97792,16.97792,0,0,1,4.23966,15.398c.14944.07949.3032.15173.44716.24a1.478,1.478,0,0,0,.86987.31021c.84856-.03412.84946-.01173,1.17684-.82421a1.12407,1.12407,0,0,1,.20376-.00466.546.546,0,0,0,.68332-.48732.951.951,0,0,1,.07967-.22362c.12688-.245.05516-.32729-.21584-.4014a8.31258,8.31258,0,0,1-2.95515-1.15144l.00259-.19043a11.09483,11.09483,0,0,0,3.57447,1.35251.25591.25591,0,0,0,.19242-.01729c.04265-.04041-.02921-.09555-.0666-.13542a5.02118,5.02118,0,0,1-.97136-1.7044,10.143,10.143,0,0,1-.811-3.89906,1.23,1.23,0,0,1,.075-.5157A10.47183,10.47183,0,0,1,7.73947,6.44265c.05782-.04954.13909-.091.06175-.18545,1.16226.25733,2.32555.51021,3.48546.77778.14006.03231.29948-.02332.42136.08878-.20931-.0192-.22467.15-.26953.28376-.23037.68708-.45136,1.37738-.6894,2.06177a1.04726,1.04726,0,0,0,.015.7603q.7473,1.91569,1.48545,3.835c.05119.13289.09417.26043.27329.24232-.20951.24576.1465.10016.1415.20441a19.09147,19.09147,0,0,1-1.02569,3.97363,1.86429,1.86429,0,0,1-.1676.37174,6.45022,6.45022,0,0,0-.86016,2.61758c-.04938.25548-.1102.50923-.17809.76045A.53577.53577,0,0,0,10.46333,22.63033Z" style="fill:#d5b387"/><path d="M4.52929,12.85556A8.31258,8.31258,0,0,0,7.48444,14.007c.271.07411.34272.15645.21584.4014a.951.951,0,0,0-.07967.22362.546.546,0,0,1-.68332.48732,1.12754,1.12754,0,0,0-.20382.00463,3.56165,3.56165,0,0,1-.47456-.00923c-.50275-.07466-1.03983-.00455-1.46919-.38889a6.44315,6.44315,0,0,0-.71592-.50835c-.06586-.04436-.13622-.1402-.23169-.03837-.53995-.51236-.21464-1.10348-.15172-1.67057.016-.144.06914-.16186.191-.07493C4.091,12.58321,4.31266,12.71582,4.52929,12.85556Z" style="fill:#67bfb5"/><path d="M3.84211,14.17913c.09547-.10183.16583-.006.23169.03837a6.44315,6.44315,0,0,1,.71592.50835c.42936.38434.96644.31423,1.46919.38889a3.56165,3.56165,0,0,0,.47456.00923c-.32732.81251-.32822.79012-1.17678.82424a1.478,1.478,0,0,1-.86987-.31021c-.144-.08826-.29772-.1605-.44716-.24C3.81814,15.08592,3.88649,14.61414,3.84211,14.17913Z" style="fill:#58b7ae"/><path d="M15.7403,4.03119c-.34351-.352-.69208-.69947-1.03876-1.04834Q13.281,1.58539,11.85876.19037c-.0852-.08325-.1455-.209-.29016-.21582q.19868,1.18359.39734,2.36767a1.77369,1.77369,0,0,0,.13465.23413Q13.137,3.88409,14.17731,5.18866a.2747.2747,0,0,0,.19964.11011l1.54993-.97046C15.95074,4.17572,15.82208,4.11493,15.7403,4.03119Z" style="fill:#a92f31"/><path d="M9.24593,5.294a.47861.47861,0,0,0,.31936-.08921A21.13514,21.13514,0,0,1,11.69172,4.14c.13-.05756.25365-.10649.22815-.28308l.39481,1.98239c-.42441.13267-.57915.35326-.47063.67093a13.08129,13.08129,0,0,1-1.66224-.7499C9.8682,5.6083,9.55778,5.44969,9.24593,5.294Z" style="fill:#d5b387"/><path d="M15.92685,4.32813q-.77494.4854-1.5499.97045a.21615.21615,0,0,0,.06515.21528c.4334.54721.87072,1.09176,1.3,1.6423A.2842.2842,0,0,0,16,7.2668V4.30014Z" style="fill:#8d8888"/><path d="M11.84405,6.51022c-.10852-.31767.04622-.53826.47063-.67093.01194.04365.02494.087.0357.131C12.51491,6.64232,12.51485,6.64233,11.84405,6.51022Z" style="fill:#baac9e"/><path d="M15.87086,2.6845q-.58423.15048-1.16932.29827c.34668.34892.69518.69618,1.03877,1.04843.08173.08365.21045.1443.18654.29693L16,4.30014v-1.654C15.95718,2.65518,15.91419,2.67317,15.87086,2.6845Z" style="fill:#d5b387"/><path d="M12.52279,14.30687c-.20946.24561.14655.10031.14155.20429.55854.20729,1.11191.43057,1.67712.61786A6.612,6.612,0,0,0,16,15.66223V13.26744C14.85784,13.67035,13.68244,13.96229,12.52279,14.30687Z" style="fill:#807a7a"/><path d="M9.31193,27.81411A7.63935,7.63935,0,0,1,9.10636,29.241q-1.64723-.06638-3.29444-.13173a.24287.24287,0,0,1-.24921-.14249,1.29514,1.29514,0,0,1,.03065-.993c.11938-.27423.38362-.23479.62251-.22933Q7.76389,27.77986,9.31193,27.81411Z" style="fill:#d5b387"/><path d="M13.63209,9.17818A.87168.87168,0,0,1,13.678,7.80556a2.4666,2.4666,0,0,1,1.15652.28491l.02447.06319.06213.27136a.37717.37717,0,0,1-.24794.29027C14.32326,8.86267,13.97877,9.023,13.63209,9.17818Zm.2283-.84513c.10279-.01393.186-.06233.19-.186a.162.162,0,0,0-.16366-.17744.19182.19182,0,0,0-.21595.20436C13.66674,8.28661,13.7546,8.32023,13.86039,8.33305Z" style="fill:#378c7c"/><path d="M13.86039,8.33305c-.10579-.01282-.19365-.04644-.18961-.15913a.19182.19182,0,0,1,.21595-.20436.162.162,0,0,1,.16366.17744C14.04635,8.27072,13.96318,8.31912,13.86039,8.33305Z" style="fill:#edeeee"/><path d="M18.36788,9.17837c-.34667-.1553-.69118-.3156-1.0411-.46323a.37682.37682,0,0,1-.24794-.29027c-.07157-.11264-.22045-.22928.01566-.32759l.0709-.00667A2.46725,2.46725,0,0,1,18.322,7.80535c.25078-.23528.59554-.16.8838-.26794.31918-.11964.36942.02866.33851.30093a3.34385,3.34385,0,0,0-.05015.77749c.05157.41091-.13689.5792-.49406.70317C18.734,9.41132,18.57042,9.25568,18.36788,9.17837Z" style="fill:#edeeee"/><rect x="16" y="10.63254" width="2.99893" height="2.37675" transform="translate(34.99893 23.64183) rotate(-180)" style="fill:#edeeee"/><path d="M16,12.21068v1.05676c1.14216.40291,2.31756.69485,3.47721,1.03943.17913.018.222-.10964.27327-.24227q.7391-1.91907,1.48542-3.83514a1.04689,1.04689,0,0,0,.015-.76016c-.238-.68451-.45906-1.37469-.68942-2.06186-.04483-.13364-.06024-.30294-.26952-.28361q-1.99868.43041-3.99677.86381A1.22752,1.22752,0,0,1,16,8.00963v2.88468a1.68249,1.68249,0,0,1,.54263.158q.90729.4214,1.81717.83714c.14155.065.37483.08365.39291.22028.02266.17163-.22278.21629-.34326.3256a.80146.80146,0,0,1-.88588.18029A9.358,9.358,0,0,0,16,12.21068Zm2.36788-3.03231c-.34667-.1553-.69118-.3156-1.0411-.46323a.37682.37682,0,0,1-.24794-.29027c-.07157-.11264-.22045-.22928.01566-.32759l.0709-.00667A2.46725,2.46725,0,0,1,18.322,7.80535c.25078-.23528.59554-.16.8838-.26794.31918-.11964.36942.02866.33851.30093a3.34385,3.34385,0,0,0-.05015.77749c.05157.41091-.13689.5792-.49406.70317C18.734,9.41132,18.57042,9.25568,18.36788,9.17837Z" style="fill:#b6a799"/><path d="M16.25787,7.15619c.42932-.55054.86664-1.09522,1.3-1.64234a.21623.21623,0,0,0,.06513-.21533.27449.27449,0,0,0,.19964-.10986q1.037-1.30737,2.07679-2.61206a1.78531,1.78531,0,0,0,.13452-.23438q.19986-.19848.39959-.39721l.01123.082q-.18237.91479-.36468,1.82983-.19738.99134-.39484,1.98218c-.012.04419-.0249.0874-.0357.13135-.16449.67187-.16449.67187.50641.53979a13.13928,13.13928,0,0,0,1.66217-.74975c.31359-.15235.624-.3108.93585-.46656.43341-.24634.87048-.48657,1.29907-.74121a7.16907,7.16907,0,0,0,1.33221-.9956,1.03729,1.03729,0,0,1,1.56519-.02539c1.10443.833,2.24274,1.62158,3.36725,2.42822.23035.16479.46234.32764.69354.4917.06665.04788-.02776.3251-.06164.48462a10.99318,10.99318,0,0,1-1.1366,3.10962A6.05912,6.05912,0,0,1,27.46814,12.665a11.09533,11.09533,0,0,1-3.57452,1.35254.25337.25337,0,0,1-.19239-.01734c-.04266-.04028.02918-.09546.06659-.13525a5.02089,5.02089,0,0,0,.97138-1.70459,10.14308,10.14308,0,0,0,.811-3.89868,1.2318,1.2318,0,0,0-.075-.51612,3.71694,3.71694,0,0,0-.40479-1.42334.25848.25848,0,0,0-.373-.16064,3.40775,3.40775,0,0,1-.4986.09546c-1.16229.25732-2.32556.5105-3.48541.77783-.14014.03223-.29956-.02319-.42145.08862q-1.99869.431-3.99676.86426A1.24388,1.24388,0,0,1,16,8.0097V7.26678A.28449.28449,0,0,0,16.25787,7.15619Z" style="fill:#a92f31"/><path d="M17.65854,15.129c.56521-.18729,1.11858-.41057,1.67712-.61786a19.09544,19.09544,0,0,0,1.02569,3.97377,1.85639,1.85639,0,0,0,.16762.37158,6.45174,6.45174,0,0,1,.86014,2.61774c.04941.25528.11023.50922.17813.7605a.53557.53557,0,0,1-.03058.39557,4.24564,4.24564,0,0,1-1.32386,1.09675c-.09756.052-.2157.081-.26578.19829a.43527.43527,0,0,0-.25835.06066A9.15168,9.15168,0,0,1,16,24.66453v-9.0023A6.612,6.612,0,0,0,17.65854,15.129Z" style="fill:#b0a091"/><path d="M25.78412,27.74457q-1.548.03515-3.09607.06958c-.32666.03857-.46588-.10865-.48578-.43506a4.47743,4.47743,0,0,1-.07086-1.55762.14611.14611,0,0,1,.14142-.1333c1.33343-.062,2.667-.12085,4.00006-.1897.21008-.011.4339.05786.62982-.07763.20459.103.39673.21679.41876.47924.02466.293.05213.5857.07312.87891a3.98829,3.98829,0,0,0,.32154,1.58032c.24481.4834.42041,1.00171.6361,1.50049a.45247.45247,0,0,1-.06268.53418c-1.07049.437-2.17761.76636-3.27856,1.11377a.187.187,0,0,0-.20563.11865,6.38983,6.38983,0,0,1-1.71454.0127c-.82135-.02-.82147-.01294-.81647-.83228l-.00372-.667q.00284-.13659.00562-.2727c.011-.50977.11505-.61524.61743-.62623q1.64721-.06629,3.29443-.13159a.24274.24274,0,0,0,.24915-.14258,1.295,1.295,0,0,0-.03064-.99292C26.28723,27.69964,26.023,27.739,25.78412,27.74457Z" style="fill:#ab998b"/><path d="M22.68807,27.81411c-.32667.03864-.46589-.10844-.48578-.4351a4.47376,4.47376,0,0,1-.07082-1.55745,10.91781,10.91781,0,0,1-1.47387.08c-.137-.00245-.27058.00828-.34781-.13661-.5835.41858-.30186,1.0018-.272,1.52543.01934.33979.32722.22172.53331.24882.09073-.00115.1815-.00465.27218-.00307.6354.01108.53954-.07469.54471.53761.00536.63642.00122.63645-.75279.691-.58647.00093-.60716.01626-.61095.45248-.00781.8995-.00781.8995.614.9147l1.6324.00788q.00279-.1364.00561-.27281c.011-.50967.11506-.6152.61739-.626A7.63935,7.63935,0,0,1,22.68807,27.81411Z" style="fill:#a79586"/><path d="M20.30979,25.765c.07723.14489.21076.13416.34781.13661a10.91781,10.91781,0,0,0,1.47387-.08.14587.14587,0,0,1,.1414-.1333.24531.24531,0,0,0,.00137-.034c-.09349-.99171-.40062-1.94312-.5523-2.92391-.01687-.10906-.10514-.10051-.18527-.1a4.2465,4.2465,0,0,1-1.32388,1.0968c-.09755.05184-.21567.08091-.26574.19828Z" style="fill:#cda073"/><path d="M22.27064,30.13981l-1.6324-.00788c.02311.45092.154.61258.59456.65179.34515.03073.69424.01711,1.04157.02319Z" style="fill:#cda073"/><path d="M20.63516,28.76475c.754-.05455.75815-.05458.75279-.691-.00517-.6123.09069-.52653-.54471-.53761-.09068-.00158-.18145.00192-.27218.00307A7.41909,7.41909,0,0,1,20.63516,28.76475Z" style="fill:#cda073"/><path d="M24.94385,31.62005l4.5661.3545C29.37347,31.97455,26.05554,31.71893,24.94385,31.62005Z" style="fill:#2b3332"/><path d="M25.011,31.50775c1.101-.34741,2.20807-.67676,3.27856-1.11377a11.68057,11.68057,0,0,1,1.04077,1.03076.54764.54764,0,0,1,.17963.54981l-4.5661-.3545c-.04614.0022-.09235.0044-.13849.00635A.187.187,0,0,1,25.011,31.50775Z" style="fill:#2b3332"/><path d="M21.53667,22.63033c.08013-.00048.1684-.009.18527.1.15168.98079.45881,1.9322.5523,2.92391a.24531.24531,0,0,1-.00137.034c1.33338-.06217,2.667-.121,4-.18989.21009-.01085.43394.058.62986-.07751.107-2.1086.36-4.2004.66281-6.28964a16.97792,16.97792,0,0,0,.19481-3.73321c-.14944.07949-.3032.15173-.44716.24a1.478,1.478,0,0,1-.86987.31021c-.84856-.03412-.84946-.01173-1.17684-.82421a1.12407,1.12407,0,0,0-.20376-.00466.546.546,0,0,1-.68332-.48732.951.951,0,0,0-.07967-.22362c-.12688-.245-.05516-.32729.21584-.4014a8.31258,8.31258,0,0,0,2.95515-1.15144l-.00259-.19043a11.09483,11.09483,0,0,1-3.57447,1.35251.25591.25591,0,0,1-.19242-.01729c-.04265-.04041.02921-.09555.0666-.13542a5.02118,5.02118,0,0,0,.97136-1.7044,10.143,10.143,0,0,0,.81095-3.89906,1.23,1.23,0,0,0-.075-.5157,10.47183,10.47183,0,0,0-1.21464-1.30312c-.05782-.04954-.13909-.091-.06175-.18545-1.16226.25733-2.32555.51021-3.48546.77778-.14006.03231-.29948-.02332-.42136.08878.20931-.0192.22467.15.26953.28376.23037.68708.45136,1.37738.6894,2.06177a1.04726,1.04726,0,0,1-.015.7603q-.7473,1.91569-1.48545,3.835c-.05119.13289-.09417.26043-.27329.24232.20951.24576-.1465.10016-.1415.20441a19.09147,19.09147,0,0,0,1.02569,3.97363,1.86429,1.86429,0,0,0,.1676.37174,6.45022,6.45022,0,0,1,.86016,2.61758c.04938.25548.1102.50923.17809.76045A.53577.53577,0,0,1,21.53667,22.63033Z" style="fill:#cfab81"/><path d="M27.47071,12.85556A8.31258,8.31258,0,0,1,24.51556,14.007c-.271.07411-.34272.15645-.21584.4014a.951.951,0,0,1,.07967.22362.546.546,0,0,0,.68332.48732,1.12754,1.12754,0,0,1,.20382.00463,3.56165,3.56165,0,0,0,.47456-.00923c.50275-.07466,1.03983-.00455,1.46919-.38889a6.44315,6.44315,0,0,1,.71592-.50835c.06586-.04436.13622-.1402.23169-.03837.54-.51236.21464-1.10348.15172-1.67057-.016-.144-.06914-.16186-.191-.07493C27.90905,12.58321,27.68734,12.71582,27.47071,12.85556Z" style="fill:#58b7ae"/><path d="M28.15789,14.17913c-.09547-.10183-.16583-.006-.23169.03837a6.44315,6.44315,0,0,0-.71592.50835c-.42936.38434-.96644.31423-1.46919.38889a3.56165,3.56165,0,0,1-.47456.00923c.32732.81251.32822.79012,1.17678.82424a1.478,1.478,0,0,0,.86987-.31021c.144-.08826.29772-.1605.44716-.24C28.18186,15.08592,28.11351,14.61414,28.15789,14.17913Z" style="fill:#4eafa3"/><path d="M16.2597,4.03119c.34351-.352.69208-.69947,1.03876-1.04834Q18.719,1.58539,20.14124.19037c.0852-.08325.1455-.209.29016-.21582q-.19867,1.18359-.39734,2.36767a1.77369,1.77369,0,0,1-.13465.23413Q18.863,3.88409,17.82269,5.18866a.2747.2747,0,0,1-.19964.11011l-1.54993-.97046C16.04926,4.17572,16.17792,4.11493,16.2597,4.03119Z" style="fill:#9c2c30"/><path d="M22.75407,5.294a.47861.47861,0,0,1-.31936-.08921A21.13514,21.13514,0,0,0,20.30828,4.14c-.13-.05756-.25365-.10649-.22815-.28308l-.39481,1.98239c.42441.13267.57915.35326.47063.67093a13.08129,13.08129,0,0,0,1.66224-.7499C22.1318,5.6083,22.44222,5.44969,22.75407,5.294Z" style="fill:#cfab81"/><path d="M16.07315,4.32813q.77495.4854,1.5499.97045a.21615.21615,0,0,1-.06515.21528c-.4334.54721-.87072,1.09176-1.3,1.6423A.2842.2842,0,0,1,16,7.2668V4.30014Z" style="fill:#807a7a"/><path d="M20.156,6.51022c.10852-.31767-.04622-.53826-.47063-.67093-.01194.04365-.02494.087-.0357.131C19.48509,6.64232,19.48515,6.64233,20.156,6.51022Z" style="fill:#b6a799"/><path d="M16.12914,2.6845q.58424.15048,1.16932.29827c-.34668.34892-.69518.69618-1.03877,1.04843-.08173.08365-.21045.1443-.18654.29693L16,4.30014v-1.654C16.04282,2.65518,16.08581,2.67317,16.12914,2.6845Z" style="fill:#cfab81"/><path d="M19.47721,14.30687c.20946.24561-.14655.10031-.14155.20429-.55854.20729-1.11191.43057-1.67712.61786A6.612,6.612,0,0,1,16,15.66223V13.26744C17.14216,13.67035,18.31756,13.96229,19.47721,14.30687Z" style="fill:#746e6e"/><path d="M22.68807,27.81411a7.63935,7.63935,0,0,0,.20557,1.42687q1.64723-.06638,3.29444-.13173a.24287.24287,0,0,0,.24921-.14249,1.29514,1.29514,0,0,0-.03065-.993c-.11938-.27423-.38362-.23479-.62251-.22933Q24.23612,27.77986,22.68807,27.81411Z" style="fill:#cfab81"/><path d="M17.32678,8.71529a.37717.37717,0,0,1-.24794-.29027l.06213-.27136.02447-.06319A2.4666,2.4666,0,0,1,18.322,7.80556a.87168.87168,0,0,1,.04595,1.37262C18.02123,9.023,17.67674,8.86267,17.32678,8.71529Zm1.00244-.54137a.19182.19182,0,0,0-.21595-.20436.162.162,0,0,0-.16366.17744c.004.12372.08721.17212.19.186C18.2454,8.32023,18.33326,8.28661,18.32922,8.17392Z" style="fill:#318474"/><path d="M18.13961,8.33305c.10579-.01282.19365-.04644.18961-.15913a.19182.19182,0,0,0-.21595-.20436.162.162,0,0,0-.16366.17744C17.95365,8.27072,18.03682,8.31912,18.13961,8.33305Z" style="fill:#e3e5e5"/></svg>