<svg xmlns="http://www.w3.org/2000/svg" viewBox="0 0 32 32"><title>639-terrakion</title><path d="M12.99993,9.34446c-.35717-.124-.54563-.29227-.49406-.70318a3.34392,3.34392,0,0,0-.05015-.77749c-.03091-.27227.01933-.42057.33851-.30093.28826.108.633.03266.8838.26794a2.46714,2.46714,0,0,1,1.15657.28527l.0709.00666c.23611.09831.08723.21495.01566.32759a.3768.3768,0,0,1-.24794.29027c-.34992.14764-.69443.30793-1.0411.46323C13.42958,9.28114,13.266,9.43677,12.99993,9.34446Z" style="fill:#f7f7f7"/><rect x="13.00107" y="10.65799" width="2.99893" height="2.37675" style="fill:#f7f7f7"/><path d="M14.47643,12.641a.80144.80144,0,0,1-.88588-.18029c-.12048-.10931-.36592-.154-.34326-.32559.01808-.13664.25136-.1553.39291-.22029q.90954-.4164,1.81717-.83714A1.68222,1.68222,0,0,1,16,10.91977V8.03509a1.228,1.228,0,0,1-.29518-.022q-1.99731-.4369-3.99677-.8638c-.20928-.01933-.22469.15-.26952.2836-.23036.68718-.4514,1.37735-.68942,2.06187a1.04689,1.04689,0,0,0,.015.76016q.74733,1.91556,1.48542,3.83513c.05123.13263.09414.26027.27327.24228,1.15965-.34459,2.335-.63653,3.47721-1.03943V12.23613A9.359,9.359,0,0,0,14.47643,12.641Zm-1.4765-3.29658c-.35717-.124-.54563-.29227-.49406-.70318a3.34392,3.34392,0,0,0-.05015-.77749c-.03091-.27227.01933-.42057.33851-.30093.28826.108.633.03266.8838.26794a2.46714,2.46714,0,0,1,1.15657.28527l.0709.00666c.23611.09831.08723.21495.01566.32759a.3768.3768,0,0,1-.24794.29027c-.34992.14764-.69443.30793-1.0411.46323C13.42958,9.28114,13.266,9.43677,12.99993,9.34446Z" style="fill:#baac9e"/><path d="M15.74213,7.18164c-.42932-.55054-.86664-1.09521-1.3-1.64233A.21625.21625,0,0,1,14.377,5.324a.27446.27446,0,0,1-.19964-.10986q-1.037-1.30737-2.07679-2.61206a1.78584,1.78584,0,0,1-.13452-.23437q-.19986-.1985-.39959-.39722l-.01123.082q.18237.91479.36468,1.82983.19739.99134.39484,1.98218c.012.04419.0249.0874.0357.13135.16449.67187.16449.67187-.50641.53979a13.13786,13.13786,0,0,1-1.66217-.74975c-.31359-.15235-.624-.31079-.93585-.46655-.43341-.24634-.87048-.48658-1.29907-.74121a7.16912,7.16912,0,0,1-1.33221-.99561A1.03729,1.03729,0,0,0,5.0495,3.55713c-1.10443.833-2.24274,1.62158-3.36725,2.42822-.23035.1648-.46234.32764-.69354.4917-.06665.04788.02776.32511.06164.48462A10.99307,10.99307,0,0,0,2.187,10.07129a6.05912,6.05912,0,0,0,2.34491,2.61914A11.09533,11.09533,0,0,0,8.10638,14.043a.25332.25332,0,0,0,.19239-.01734c.04266-.04028-.02918-.09545-.06659-.13525a5.02089,5.02089,0,0,1-.97138-1.70459,10.14308,10.14308,0,0,1-.811-3.89868,1.23178,1.23178,0,0,1,.075-.51611,3.71689,3.71689,0,0,1,.40479-1.42334.25848.25848,0,0,1,.373-.16065,3.40775,3.40775,0,0,0,.4986.09546c1.16229.25732,2.32556.5105,3.48541.77783.14014.03223.29956-.02319.42145.08863q1.99869.431,3.99676.86425A1.24389,1.24389,0,0,0,16,8.03516V7.29224A.2845.2845,0,0,1,15.74213,7.18164Z" style="fill:#876f5d"/><path d="M14.34146,15.15447c-.56521-.18729-1.11858-.41057-1.67712-.61786a19.09544,19.09544,0,0,1-1.02569,3.97377,1.85639,1.85639,0,0,1-.16762.37158,6.45179,6.45179,0,0,0-.86014,2.61774c-.04941.25528-.11023.50922-.17813.7605a.5356.5356,0,0,0,.03058.39558,4.24591,4.24591,0,0,0,1.32386,1.09675c.09756.052.2157.081.26578.19829a.43519.43519,0,0,1,.25835.06065A9.15134,9.15134,0,0,0,16,24.69V15.68769A6.61239,6.61239,0,0,1,14.34146,15.15447Z" style="fill:#b6a799"/><path d="M6.21588,27.77q1.548.03516,3.09607.06958c.32666.03857.46588-.10864.48578-.43506a4.47742,4.47742,0,0,0,.07086-1.55762.14611.14611,0,0,0-.14142-.1333c-1.33343-.062-2.667-.12085-4.00006-.18969-.21008-.011-.4339.05786-.62982-.07764-.20459.103-.39673.2168-.41876.47925-.02466.293-.05213.58569-.07312.8789a3.98838,3.98838,0,0,1-.32154,1.58033c-.24481.48339-.42041,1.0017-.6361,1.50048a.45246.45246,0,0,0,.06268.53418c1.07049.437,2.17761.76636,3.27856,1.11377a.187.187,0,0,1,.20563.11866,6.38982,6.38982,0,0,0,1.71454.01269c.82135-.02.82147-.01294.81647-.83227l.00372-.667q-.00283-.13659-.00562-.2727c-.011-.50977-.11505-.61524-.61743-.62622q-1.64721-.06629-3.29443-.13159a.24276.24276,0,0,1-.24915-.14258,1.295,1.295,0,0,1,.03064-.99292C5.71277,27.7251,5.977,27.7644,6.21588,27.77Z" style="fill:#b0a091"/><path d="M9.31193,27.83956c.32667.03865.46589-.10844.48578-.43509A4.47381,4.47381,0,0,0,9.86853,25.847a10.91782,10.91782,0,0,0,1.47387.08c.13705-.00246.27058.00827.34781-.13662.5835.41858.30186,1.00181.272,1.52543-.01934.3398-.32722.22172-.53331.24883-.09073-.00116-.1815-.00466-.27218-.00308-.6354.01108-.53954-.07469-.54471.53761-.00536.63642-.00122.63646.75279.691.58647.00092.60716.01625.611.45248.00781.89949.00781.89949-.614.9147l-1.6324.00787q-.00279-.1364-.00561-.2728c-.011-.50968-.11506-.61521-.61739-.626A7.63923,7.63923,0,0,0,9.31193,27.83956Z" style="fill:#ab998b"/><path d="M11.69021,25.79041c-.07723.14489-.21076.13416-.34781.13662a10.91782,10.91782,0,0,1-1.47387-.08.14587.14587,0,0,0-.1414-.1333.24517.24517,0,0,1-.00137-.034c.09349-.99172.40062-1.94312.5523-2.92392.01687-.109.10514-.1005.18527-.1a4.24661,4.24661,0,0,0,1.32388,1.09679c.09755.05185.21567.08092.26574.19829Z" style="fill:#8d8888"/><path d="M9.72936,30.16526l1.6324-.00787c-.02311.45092-.154.61257-.59456.65179-.34515.03072-.69424.01711-1.04157.02318Z" style="fill:#8d8888"/><path d="M11.36484,28.79021c-.754-.05455-.75815-.05459-.75279-.691.00517-.6123-.09069-.52653.54471-.53761.09068-.00158.18145.00192.27218.00308A7.419,7.419,0,0,0,11.36484,28.79021Z" style="fill:#8d8888"/><path d="M7.05615,31.64551,2.49005,32C2.62653,32,5.94446,31.74438,7.05615,31.64551Z" style="fill:#373f3f"/><path d="M6.989,31.5332c-1.101-.34741-2.20807-.67675-3.27856-1.11377A11.682,11.682,0,0,0,2.66968,31.4502.54761.54761,0,0,0,2.49005,32l4.5661-.35449q.06921.0033.13849.00635A.187.187,0,0,0,6.989,31.5332Z" style="fill:#373f3f"/><path d="M10.46333,22.65579c-.08013-.00048-.1684-.009-.18527.1-.15168.9808-.45881,1.9322-.5523,2.92392a.24517.24517,0,0,0,.00137.034c-1.33338-.06217-2.667-.121-4-.18988-.21009-.01086-.43394.058-.62986-.07752-.107-2.10859-.36-4.2004-.66281-6.28964a16.97792,16.97792,0,0,1-.19481-3.73321c.14944.07949.3032.15174.44716.24a1.478,1.478,0,0,0,.86987.31021c.84856-.03411.84946-.01173,1.17684-.82421a1.125,1.125,0,0,1,.20376-.00465.546.546,0,0,0,.68332-.48733.95075.95075,0,0,1,.07967-.22361c.12688-.245.05516-.3273-.21584-.40141A8.31239,8.31239,0,0,1,4.52929,12.881l.00259-.19043a11.09437,11.09437,0,0,0,3.57447,1.35251.25586.25586,0,0,0,.19242-.01729c.04265-.0404-.02921-.09555-.0666-.13541A5.02123,5.02123,0,0,1,7.26081,12.186a10.143,10.143,0,0,1-.811-3.89905,1.23,1.23,0,0,1,.075-.51571A10.47254,10.47254,0,0,1,7.73947,6.4681c.05782-.04954.13909-.091.06175-.18544,1.16226.25732,2.32555.51021,3.48546.77777.14006.03232.29948-.02332.42136.08878-.20931-.01919-.22467.15-.26953.28377-.23037.68708-.45136,1.37738-.6894,2.06177a1.04727,1.04727,0,0,0,.015.7603q.7473,1.91568,1.48545,3.83495c.05119.13289.09417.26043.27329.24232-.20951.24576.1465.10016.1415.20441a19.09172,19.09172,0,0,1-1.02569,3.97364,1.8642,1.8642,0,0,1-.1676.37173,6.45022,6.45022,0,0,0-.86016,2.61758c-.04938.25548-.1102.50924-.17809.76045A.53579.53579,0,0,0,10.46333,22.65579Z" style="fill:#9a9595"/><path d="M4.52929,12.881a8.31239,8.31239,0,0,0,2.95515,1.15144c.271.07411.34272.15645.21584.40141a.95075.95075,0,0,0-.07967.22361.546.546,0,0,1-.68332.48733,1.12754,1.12754,0,0,0-.20382.00463,3.56333,3.56333,0,0,1-.47456-.00924c-.50275-.07466-1.03983-.00454-1.46919-.38889A6.44175,6.44175,0,0,0,4.0738,14.243c-.06586-.04437-.13622-.1402-.23169-.03838-.53995-.51236-.21464-1.10348-.15172-1.67057.016-.144.06914-.16186.191-.07493C4.091,12.60866,4.31266,12.74128,4.52929,12.881Z" style="fill:#fca15e"/><path d="M3.84211,14.20458c.09547-.10182.16583-.006.23169.03838a6.44175,6.44175,0,0,1,.71592.50834c.42936.38435.96644.31423,1.46919.38889a3.56333,3.56333,0,0,0,.47456.00924c-.32732.8125-.32822.79012-1.17678.82423a1.478,1.478,0,0,1-.86987-.31021c-.144-.08825-.29772-.1605-.44716-.24C3.81814,15.11137,3.88649,14.6396,3.84211,14.20458Z" style="fill:#f79654"/><path d="M15.7403,4.05664c-.34351-.352-.69208-.69946-1.03876-1.04834Q13.281,1.61084,11.85876.21582c-.0852-.08325-.1455-.209-.29016-.21582q.19868,1.18359.39734,2.36768a1.775,1.775,0,0,0,.13465.23413q1.03636,1.30773,2.07672,2.6123a.27464.27464,0,0,0,.19964.11011l1.54993-.97046C15.95074,4.20117,15.82208,4.14038,15.7403,4.05664Z" style="fill:#7f6858"/><path d="M9.24593,5.3195a.47872.47872,0,0,0,.31936-.08921,21.13091,21.13091,0,0,1,2.12643-1.06485c.13-.05756.25365-.1065.22815-.28309l.39481,1.9824c-.42441.13266-.57915.35326-.47063.67092a13.08129,13.08129,0,0,1-1.66224-.7499C9.8682,5.63375,9.55778,5.47514,9.24593,5.3195Z" style="fill:#9a9595"/><path d="M15.92685,4.35359q-.77494.48538-1.5499.97044a.21617.21617,0,0,0,.06515.21529c.4334.54721.87072,1.09175,1.3,1.64229A.2842.2842,0,0,0,16,7.29225V4.32559Z" style="fill:#8d8888"/><path d="M11.84405,6.53567c-.10852-.31766.04622-.53826.47063-.67092.01194.04365.02494.08705.0357.131C12.51491,6.66777,12.51485,6.66779,11.84405,6.53567Z" style="fill:#baac9e"/><path d="M15.87086,2.71q-.58423.15047-1.16932.29826c.34668.34892.69518.69618,1.03877,1.04843.08173.08365.21045.1443.18654.29694L16,4.32559v-1.654C15.95718,2.68063,15.91419,2.69863,15.87086,2.71Z" style="fill:#9a9595"/><path d="M12.52279,14.33233c-.20946.24561.14655.10031.14155.20428.55854.20729,1.11191.43057,1.67712.61786A6.61239,6.61239,0,0,0,16,15.68769V13.2929C14.85784,13.6958,13.68244,13.98774,12.52279,14.33233Z" style="fill:#807a7a"/><path d="M9.31193,27.83956a7.63923,7.63923,0,0,1-.20557,1.42687q-1.64723-.06637-3.29444-.13172a.24288.24288,0,0,1-.24921-.1425,1.29514,1.29514,0,0,1,.03065-.993c.11938-.27423.38362-.23479.62251-.22933Q7.76389,27.80533,9.31193,27.83956Z" style="fill:#9a9595"/><path d="M13.63209,9.20364A.87169.87169,0,0,1,13.678,7.831a2.4666,2.4666,0,0,1,1.15652.28491l.02447.06319.06213.27136a.37715.37715,0,0,1-.24794.29027C14.32326,8.88813,13.97877,9.04848,13.63209,9.20364Zm.2283-.84513c.10279-.01394.186-.06234.19-.18606a.162.162,0,0,0-.16366-.17744.19183.19183,0,0,0-.21595.20437C13.66674,8.31206,13.7546,8.34568,13.86039,8.35851Z" style="fill:#ce692c"/><path d="M13.86039,8.35851c-.10579-.01283-.19365-.04645-.18961-.15913a.19183.19183,0,0,1,.21595-.20437.162.162,0,0,1,.16366.17744C14.04635,8.29617,13.96318,8.34457,13.86039,8.35851Z" style="fill:#edeeee"/><path d="M18.36788,9.20382c-.34667-.1553-.69118-.31559-1.0411-.46323a.3768.3768,0,0,1-.24794-.29027c-.07157-.11264-.22045-.22928.01566-.32759l.0709-.00666A2.46714,2.46714,0,0,1,18.322,7.8308c.25078-.23528.59554-.16.8838-.26794.31918-.11964.36942.02866.33851.30093a3.34392,3.34392,0,0,0-.05015.77749c.05157.41091-.13689.5792-.49406.70318C18.734,9.43677,18.57042,9.28114,18.36788,9.20382Z" style="fill:#edeeee"/><rect x="16" y="10.65799" width="2.99893" height="2.37675" transform="translate(34.99893 23.69274) rotate(-180)" style="fill:#edeeee"/><path d="M16,12.23613V13.2929c1.14216.4029,2.31756.69484,3.47721,1.03943.17913.018.222-.10965.27327-.24228q.7391-1.91907,1.48542-3.83513a1.04689,1.04689,0,0,0,.015-.76016c-.238-.68452-.45906-1.37469-.68942-2.06187-.04483-.13364-.06024-.30293-.26952-.2836q-1.99868.43039-3.99677.8638A1.228,1.228,0,0,1,16,8.03509v2.88468a1.68222,1.68222,0,0,1,.54263.158q.90729.42141,1.81717.83714c.14155.065.37483.08365.39291.22029.02266.17163-.22278.21628-.34326.32559a.80144.80144,0,0,1-.88588.18029A9.359,9.359,0,0,0,16,12.23613Zm2.36788-3.03231c-.34667-.1553-.69118-.31559-1.0411-.46323a.3768.3768,0,0,1-.24794-.29027c-.07157-.11264-.22045-.22928.01566-.32759l.0709-.00666A2.46714,2.46714,0,0,1,18.322,7.8308c.25078-.23528.59554-.16.8838-.26794.31918-.11964.36942.02866.33851.30093a3.34392,3.34392,0,0,0-.05015.77749c.05157.41091-.13689.5792-.49406.70318C18.734,9.43677,18.57042,9.28114,18.36788,9.20382Z" style="fill:#b6a799"/><path d="M16.25787,7.18164c.42932-.55054.86664-1.09521,1.3-1.64233a.21625.21625,0,0,0,.06513-.21534.27446.27446,0,0,0,.19964-.10986q1.037-1.30737,2.07679-2.61206a1.78584,1.78584,0,0,0,.13452-.23437q.19986-.1985.39959-.39722l.01123.082q-.18237.91479-.36468,1.82983-.19738.99134-.39484,1.98218c-.012.04419-.0249.0874-.0357.13135-.16449.67187-.16449.67187.50641.53979a13.13786,13.13786,0,0,0,1.66217-.74975c.31359-.15235.624-.31079.93585-.46655.43341-.24634.87048-.48658,1.29907-.74122a7.16863,7.16863,0,0,0,1.33221-.9956,1.03729,1.03729,0,0,1,1.56519-.02539c1.10443.833,2.24274,1.62158,3.36725,2.42822.23035.1648.46234.32764.69354.4917.06665.04788-.02776.32511-.06164.48462a10.99307,10.99307,0,0,1-1.1366,3.10962,6.05912,6.05912,0,0,1-2.34491,2.61914A11.09533,11.09533,0,0,1,23.89362,14.043a.25332.25332,0,0,1-.19239-.01734c-.04266-.04028.02918-.09545.06659-.13525a5.02089,5.02089,0,0,0,.97138-1.70459,10.14308,10.14308,0,0,0,.811-3.89868,1.23178,1.23178,0,0,0-.075-.51611,3.71689,3.71689,0,0,0-.40479-1.42334.25848.25848,0,0,0-.373-.16065,3.40775,3.40775,0,0,1-.4986.09546c-1.16229.25732-2.32556.5105-3.48541.77783-.14014.03223-.29956-.02319-.42145.08863q-1.99869.431-3.99676.86425A1.24389,1.24389,0,0,1,16,8.03516V7.29224A.2845.2845,0,0,0,16.25787,7.18164Z" style="fill:#7f6858"/><path d="M17.65854,15.15447c.56521-.18729,1.11858-.41057,1.67712-.61786a19.09544,19.09544,0,0,0,1.02569,3.97377,1.85639,1.85639,0,0,0,.16762.37158,6.45179,6.45179,0,0,1,.86014,2.61774c.04941.25528.11023.50922.17813.7605a.5356.5356,0,0,1-.03058.39558,4.24591,4.24591,0,0,1-1.32386,1.09675c-.09756.052-.2157.081-.26578.19829a.43519.43519,0,0,0-.25835.06065A9.15134,9.15134,0,0,1,16,24.69V15.68769A6.61239,6.61239,0,0,0,17.65854,15.15447Z" style="fill:#b0a091"/><path d="M25.78412,27.77q-1.548.03516-3.09607.06958c-.32666.03857-.46588-.10864-.48578-.43506a4.47742,4.47742,0,0,1-.07086-1.55762.14611.14611,0,0,1,.14142-.1333c1.33343-.062,2.667-.12085,4.00006-.18969.21008-.011.4339.05786.62982-.07764.20459.103.39673.2168.41876.47925.02466.293.05213.58569.07312.8789a3.98838,3.98838,0,0,0,.32154,1.58033c.24481.48339.42041,1.0017.6361,1.50048a.45246.45246,0,0,1-.06268.53418c-1.07049.437-2.17761.76636-3.27856,1.11377a.187.187,0,0,0-.20563.11866,6.38982,6.38982,0,0,1-1.71454.01269c-.82135-.02-.82147-.01294-.81647-.83227l-.00372-.667q.00284-.13659.00562-.2727c.011-.50977.11505-.61524.61743-.62622q1.64721-.06629,3.29443-.13159a.24276.24276,0,0,0,.24915-.14258,1.295,1.295,0,0,0-.03064-.99292C26.28723,27.7251,26.023,27.7644,25.78412,27.77Z" style="fill:#ab998b"/><path d="M22.68807,27.83956c-.32667.03865-.46589-.10844-.48578-.43509a4.47381,4.47381,0,0,1-.07082-1.55746,10.91782,10.91782,0,0,1-1.47387.08c-.137-.00246-.27058.00827-.34781-.13662-.5835.41858-.30186,1.00181-.272,1.52543.01934.3398.32722.22172.53331.24883.09073-.00116.1815-.00466.27218-.00308.6354.01108.53954-.07469.54471.53761.00536.63642.00122.63646-.75279.691-.58647.00092-.60716.01625-.61095.45248-.00781.89949-.00781.89949.614.9147l1.6324.00787q.00279-.1364.00561-.2728c.011-.50968.11506-.61521.61739-.626A7.63923,7.63923,0,0,1,22.68807,27.83956Z" style="fill:#a79586"/><path d="M20.30979,25.79041c.07723.14489.21076.13416.34781.13662a10.91782,10.91782,0,0,0,1.47387-.08.14587.14587,0,0,1,.1414-.1333.24517.24517,0,0,0,.00137-.034c-.09349-.99172-.40062-1.94312-.5523-2.92392-.01687-.109-.10514-.1005-.18527-.1a4.24661,4.24661,0,0,1-1.32388,1.09679c-.09755.05185-.21567.08092-.26574.19829Z" style="fill:#807a7a"/><path d="M22.27064,30.16526l-1.6324-.00787c.02311.45092.154.61257.59456.65179.34515.03072.69424.01711,1.04157.02318Z" style="fill:#807a7a"/><path d="M20.63516,28.79021c.754-.05455.75815-.05459.75279-.691-.00517-.6123.09069-.52653-.54471-.53761-.09068-.00158-.18145.00192-.27218.00308A7.419,7.419,0,0,1,20.63516,28.79021Z" style="fill:#807a7a"/><path d="M24.94385,31.64551,29.51,32C29.37347,32,26.05554,31.74438,24.94385,31.64551Z" style="fill:#2b3332"/><path d="M25.011,31.5332c1.101-.34741,2.20807-.67675,3.27856-1.11377a11.682,11.682,0,0,1,1.04077,1.03077A.54761.54761,0,0,1,29.51,32l-4.5661-.35449q-.06921.0033-.13849.00635A.187.187,0,0,1,25.011,31.5332Z" style="fill:#2b3332"/><path d="M21.53667,22.65579c.08013-.00048.1684-.009.18527.1.15168.9808.45881,1.9322.5523,2.92392a.24517.24517,0,0,1-.00137.034c1.33338-.06217,2.667-.121,4-.18988.21009-.01086.43394.058.62986-.07752.107-2.10859.36-4.2004.66281-6.28964a16.97792,16.97792,0,0,0,.19481-3.73321c-.14944.07949-.3032.15174-.44716.24a1.478,1.478,0,0,1-.86987.31021c-.84856-.03411-.84946-.01173-1.17684-.82421a1.125,1.125,0,0,0-.20376-.00465.546.546,0,0,1-.68332-.48733.95075.95075,0,0,0-.07967-.22361c-.12688-.245-.05516-.3273.21584-.40141A8.31239,8.31239,0,0,0,27.47071,12.881l-.00259-.19043a11.09437,11.09437,0,0,1-3.57447,1.35251.25586.25586,0,0,1-.19242-.01729c-.04265-.0404.02921-.09555.0666-.13541a5.02123,5.02123,0,0,0,.97136-1.70441,10.143,10.143,0,0,0,.81095-3.89905,1.23,1.23,0,0,0-.075-.51571A10.47254,10.47254,0,0,0,24.26053,6.4681c-.05782-.04954-.13909-.091-.06175-.18544-1.16226.25732-2.32555.51021-3.48546.77777-.14006.03232-.29948-.02332-.42136.08878.20931-.01919.22467.15.26953.28377.23037.68708.45136,1.37738.6894,2.06177a1.04727,1.04727,0,0,1-.015.7603q-.7473,1.91568-1.48545,3.83495c-.05119.13289-.09417.26043-.27329.24232.20951.24576-.1465.10016-.1415.20441a19.09172,19.09172,0,0,0,1.02569,3.97364,1.8642,1.8642,0,0,0,.1676.37173,6.45022,6.45022,0,0,1,.86016,2.61758c.04938.25548.1102.50924.17809.76045A.53579.53579,0,0,1,21.53667,22.65579Z" style="fill:#8d8888"/><path d="M27.47071,12.881a8.31239,8.31239,0,0,1-2.95515,1.15144c-.271.07411-.34272.15645-.21584.40141a.95075.95075,0,0,1,.07967.22361.546.546,0,0,0,.68332.48733,1.12754,1.12754,0,0,1,.20382.00463,3.56333,3.56333,0,0,0,.47456-.00924c.50275-.07466,1.03983-.00454,1.46919-.38889a6.44175,6.44175,0,0,1,.71592-.50834c.06586-.04437.13622-.1402.23169-.03838.54-.51236.21464-1.10348.15172-1.67057-.016-.144-.06914-.16186-.191-.07493C27.90905,12.60866,27.68734,12.74128,27.47071,12.881Z" style="fill:#f79654"/><path d="M28.15789,14.20458c-.09547-.10182-.16583-.006-.23169.03838a6.44175,6.44175,0,0,0-.71592.50834c-.42936.38435-.96644.31423-1.46919.38889a3.56333,3.56333,0,0,1-.47456.00924c.32732.8125.32822.79012,1.17678.82423a1.478,1.478,0,0,0,.86987-.31021c.144-.08825.29772-.1605.44716-.24C28.18186,15.11137,28.11351,14.6396,28.15789,14.20458Z" style="fill:#ef8c48"/><path d="M16.2597,4.05664c.34351-.352.69208-.69946,1.03876-1.04834Q18.719,1.61084,20.14124.21582c.0852-.08325.1455-.209.29016-.21582q-.19867,1.18359-.39734,2.36768a1.775,1.775,0,0,1-.13465.23413Q18.863,3.90954,17.82269,5.21411a.27464.27464,0,0,1-.19964.11011l-1.54993-.97046C16.04926,4.20117,16.17792,4.14038,16.2597,4.05664Z" style="fill:#776151"/><path d="M22.75407,5.3195a.47872.47872,0,0,1-.31936-.08921,21.13091,21.13091,0,0,0-2.12643-1.06485c-.13-.05756-.25365-.1065-.22815-.28309l-.39481,1.9824c.42441.13266.57915.35326.47063.67092a13.08129,13.08129,0,0,0,1.66224-.7499C22.1318,5.63375,22.44222,5.47514,22.75407,5.3195Z" style="fill:#8d8888"/><path d="M16.07315,4.35359q.77495.48538,1.5499.97044a.21617.21617,0,0,1-.06515.21529c-.4334.54721-.87072,1.09175-1.3,1.64229A.2842.2842,0,0,1,16,7.29225V4.32559Z" style="fill:#807a7a"/><path d="M20.156,6.53567c.10852-.31766-.04622-.53826-.47063-.67092-.01194.04365-.02494.08705-.0357.131C19.48509,6.66777,19.48515,6.66779,20.156,6.53567Z" style="fill:#b6a799"/><path d="M16.12914,2.71q.58424.15047,1.16932.29826c-.34668.34892-.69518.69618-1.03877,1.04843-.08173.08365-.21045.1443-.18654.29694L16,4.32559v-1.654C16.04282,2.68063,16.08581,2.69863,16.12914,2.71Z" style="fill:#8d8888"/><path d="M19.47721,14.33233c.20946.24561-.14655.10031-.14155.20428-.55854.20729-1.11191.43057-1.67712.61786A6.61239,6.61239,0,0,1,16,15.68769V13.2929C17.14216,13.6958,18.31756,13.98774,19.47721,14.33233Z" style="fill:#746e6e"/><path d="M22.68807,27.83956a7.63923,7.63923,0,0,0,.20557,1.42687q1.64723-.06637,3.29444-.13172a.24288.24288,0,0,0,.24921-.1425,1.29514,1.29514,0,0,0-.03065-.993c-.11938-.27423-.38362-.23479-.62251-.22933Q24.23612,27.80533,22.68807,27.83956Z" style="fill:#8d8888"/><path d="M17.32678,8.74074a.37715.37715,0,0,1-.24794-.29027l.06213-.27136.02447-.06319A2.4666,2.4666,0,0,1,18.322,7.831a.87169.87169,0,0,1,.04595,1.37263C18.02123,9.04848,17.67674,8.88813,17.32678,8.74074Zm1.00244-.54136a.19183.19183,0,0,0-.21595-.20437.162.162,0,0,0-.16366.17744c.004.12372.08721.17212.19.18606C18.2454,8.34568,18.33326,8.31206,18.32922,8.19938Z" style="fill:#c95f2b"/><path d="M18.13961,8.35851c.10579-.01283.19365-.04645.18961-.15913a.19183.19183,0,0,0-.21595-.20437.162.162,0,0,0-.16366.17744C17.95365,8.29617,18.03682,8.34457,18.13961,8.35851Z" style="fill:#e3e5e5"/></svg>