<svg xmlns="http://www.w3.org/2000/svg" viewBox="0 0 32 32"><title>642-thundurus-therian</title><path d="M4.73889,11.41983a3.05484,3.05484,0,0,0,.60566-.08552,1.26944,1.26944,0,0,1-.11482-.124c-.087-.12248-.33272-.10739-.30552-.31763a.94144.94144,0,0,1,.29857-.58979,1.23747,1.23747,0,0,1,.64414-.27267c.182-.03318.23152.11715.2939.22807.08766.15574.15318.32423.22816.48726a2.16485,2.16485,0,0,0,.20049-2.75167.37914.37914,0,0,1-.09433-.2097c-.1638-.03625-.24806-.17715-.36357-.27709a2.1592,2.1592,0,0,0-2.57341-.0346,3.15856,3.15856,0,0,0-.70477.92578,2.56121,2.56121,0,0,0-.04994,1.49A2.274,2.274,0,0,0,4.73889,11.41983Z" style="fill:#505957"/><path d="M18.80762,6.55793a.81436.81436,0,0,0-.27415-.67545A1.62153,1.62153,0,0,1,18.20771,4.327l.19541-.52714a1.875,1.875,0,0,1,1.86448-.83554A1.79415,1.79415,0,0,1,21.66643,5.43a1.92091,1.92091,0,0,1-.3849.61857,2.24384,2.24384,0,0,1-1.5986.5927c-.00463-.0798.05819-.11521.10593-.16015.17034-.16038.32212-.3322.16915-.5797a.86319.86319,0,0,0-.92533-.3035c-.27486.109-.17436.35394-.16931.54879C18.86711,6.29088,18.92021,6.43247,18.80762,6.55793Z" style="fill:#5c6664"/><path d="M24.7505,7.92208a1.43626,1.43626,0,0,1,1.38842.7724,1.48767,1.48767,0,0,1-.03373,1.59667c-.07432.12424-.16144.24081-.24266.361l-.49855.27315a1.70418,1.70418,0,0,1-.85519.08993.435.435,0,0,0-.284.07155c.017-.13376.13831-.16292.22477-.22976.16579-.12816.26505-.2918.13574-.49192a.66409.66409,0,0,0-.69037-.32138c-.2201.03664-.24135.24521-.23645.429.00324.122.05849.24692-.07555.33484a.69968.69968,0,0,0-.14556-.55371A1.5631,1.5631,0,0,1,23.6761,8.3412l.54038-.35594-.0055-.00108C24.4057,8.09256,24.57182,7.95278,24.7505,7.92208Z" style="fill:#5c6664"/><path d="M26.19737,15.94731c.00359-.06693.032-.14548.007-.199a1.46119,1.46119,0,0,1,.30785-1.62589l.51491-.27723A1.40549,1.40549,0,0,1,28.8846,15.1785,1.36881,1.36881,0,0,1,27.814,16.51865a2.5257,2.5257,0,0,1-1.055-.08538.333.333,0,0,1-.02228-.05582c.17223-.09684.44121-.10816.38542-.41212a.57219.57219,0,0,0-.49819-.47818c-.27787-.05044-.25417.21407-.33721.36541A.51024.51024,0,0,1,26.19737,15.94731Z" style="fill:#687271"/><path d="M26.8735,19.7564a1.29086,1.29086,0,0,1-1.41659,2.11936,1.35275,1.35275,0,0,1-.61387-.5427c-.01458-.017-.04037-.03294-.04214-.05119-.05827-.6013-.53666-.76013-.9898-.9516-.09768-.04127-.27833-.07626-.256-.17591.03027-.13543.20639-.06532.3198-.07977a2.5849,2.5849,0,0,1,.33543-.02278,1.00777,1.00777,0,0,0,.9145-.3545.99864.99864,0,0,1,.98595-.296A1.226,1.226,0,0,1,26.8735,19.7564Zm-1.542.46961c-.03255-.15223-.10867-.25878-.2792-.20806a4.10978,4.10978,0,0,1-1.0917.14106c-.03779.00084-.10093.02715-.10692.05242-.01293.05448.05107.05818.08887.07846a3.22916,3.22916,0,0,1,.73939.3823c.13172.12112.28279.27429.46688.12935A.53918.53918,0,0,0,25.33146,20.226Z" style="fill:#687271"/><path d="M21.39578,24.07153l-.13843-.29533a1.14918,1.14918,0,0,1,.1175-.614l.001-.00093.04777-.07963A1.03067,1.03067,0,0,1,22.889,22.729c.13921.12462.31718.21175.389.40168a.97124.97124,0,0,1-.1028,1.10838.93649.93649,0,0,1-1.02187.36435.85575.85575,0,0,0-.80732.17092,1.59922,1.59922,0,0,1-.23242.13693c-.04735.02223-.12756.049-.15381.027-.06576-.05515-.00573-.12047.02667-.176.13572-.23273.273-.46451.40981-.6966.06317.18325-.09556.287-.15277.42719-.03314.08116-.15288.16887-.09661.23374.07456.08594.14458-.05463.224-.07893.1798-.055.3096-.2162.52224-.216.15392.00011.19139-.12121.16786-.26934a.41277.41277,0,0,0-.32728-.34655C21.5169,23.7527,21.48921,23.96,21.39578,24.07153Z" style="fill:#687271"/><path d="M12.72174,3.39868q.06995.27795.14.55591c.133-.02026.26751-.03418.399-.062A8.64046,8.64046,0,0,1,16,3.76563V3.27905A9.73061,9.73061,0,0,0,12.72174,3.39868Z" style="fill:#58458c"/><path d="M18.31873,3.752c-.19556-.051-.39124-.10132-.58661-.15283A12.78026,12.78026,0,0,0,16,3.27905v.48658a8.82658,8.82658,0,0,1,1.49329.279,1.80474,1.80474,0,0,1,.71441.28222q.09769-.2633.19544-.5271Z" style="fill:#534184"/><path d="M5.22973,11.21031a1.26944,1.26944,0,0,0,.11482.124,7.65489,7.65489,0,0,1,.97626.73344l.154.1121q.16707.12637.33423.25307.21446.15951.42914.31929c.06-.053.01052-.09855-.01058-.14545q-.41913-.93064-.83859-1.86121c-.075-.163-.1405-.33152-.22816-.48726-.06238-.11092-.1119-.26125-.2939-.22807a1.23747,1.23747,0,0,0-.64414.27267.94144.94144,0,0,0-.29857.58979C4.897,11.10292,5.14277,11.08783,5.22973,11.21031Z" style="fill:#373f3f"/><path d="M24.21648,7.98526l-.54038.35594a14.23752,14.23752,0,0,0-2.08733-2.09181,3.34175,3.34175,0,0,0-.3073-.20076,1.9208,1.9208,0,0,0,.385-.61862c.04375.14173.17374.19965.27747.28108A12.3168,12.3168,0,0,1,24.21648,7.98526Z" style="fill:#534184"/><path d="M26.8735,19.7564a1.226,1.226,0,0,0-.76277-.35509c.15324-.05319.17094-.197.21325-.32255a8.73367,8.73367,0,0,0,.40524-2.49354l.02977-.152a2.52456,2.52456,0,0,0,1.055.08544c-.374.02307-.42579.24109-.4277.57775a6.60587,6.60587,0,0,1-.44466,2.3363A.59321.59321,0,0,0,26.8735,19.7564Z" style="fill:#534184"/><path d="M27.02709,13.84518l-.51491.27723a11.99985,11.99985,0,0,0-1.01341-2.965c-.04038-.0797-.08969-.15488-.13482-.23214q.24933-.13652.49858-.27313a12.993,12.993,0,0,1,1.01,2.64C26.92485,13.47623,26.97563,13.6608,27.02709,13.84518Z" style="fill:#534184"/><path d="M18.80762,6.55793c.11259-.12546.05949-.26705.05575-.41121-.00505-.19485-.10555-.43984.16931-.54879a.86319.86319,0,0,1,.92533.3035c.153.2475.00119.41932-.16915.5797-.04774.04494-.11056.08035-.10593.16015l-.50129.80765c-.12144.17159-.2413.34432-.36531.514-.03524.04821-.05533.13529-.135.10815-.02111-.00719-.02206-.10129-.01676-.15392C18.7102,7.46388,18.75944,7.011,18.80762,6.55793Z" style="fill:#434c4b"/><path d="M23.58292,10.8075c.134-.08792.07879-.21285.07555-.33484-.0049-.18377.01635-.39234.23645-.429a.66409.66409,0,0,1,.69037.32138c.12931.20012.03.36376-.13574.49192-.08646.06684-.20778.096-.22477.22976-.27165.30954-.5423.61995-.81629.92739-.03219.03612-.0632.113-.12208.075-.02424-.01565-.01549-.10259-.00272-.15221C23.38078,11.55976,23.48259,11.18382,23.58292,10.8075Z" style="fill:#434c4b"/><path d="M23.27806,23.13066c-.07186-.18993-.24983-.27706-.389-.40168a5.28925,5.28925,0,0,0,1.8485-1.13323A.25516.25516,0,0,0,24.843,21.333a1.35277,1.35277,0,0,0,.61392.5428.36174.36174,0,0,0-.30881.06909A8.506,8.506,0,0,1,23.27806,23.13066Z" style="fill:#534184"/><path d="M21.37485,23.16224a1.14918,1.14918,0,0,0-.1175.614A10.41074,10.41074,0,0,1,19.309,24.06a.82025.82025,0,0,1,.102-.67053A6.31743,6.31743,0,0,0,21.37485,23.16224Z" style="fill:#534184"/><path d="M24.7505,7.92208c-.17868.0307-.3448.17048-.53952.0621C24.39171,7.97139,24.56134,7.86182,24.7505,7.92208Z" style="fill:#68609b"/><path d="M21.42358,23.08168l-.04777.07963Z" style="fill:#68619b"/><path d="M9.29606,5.38708a1.86032,1.86032,0,0,0,1.80246.76967,1.94517,1.94517,0,0,0,.27007-.03725c-.02248-.02456-.044-.05061-.06791-.0743-.16985-.16772-.40922-.29907-.21969-.60959a1.01048,1.01048,0,0,1,.87076-.47567.26975.26975,0,0,1,.22683.22135,1.05655,1.05655,0,0,0,.17926.3577,2.04421,2.04421,0,0,0,.50392-1.58421l-.14-.55614.0006.00439-.08269-.053a1.84227,1.84227,0,0,0-1.10726-.97936,1.8782,1.8782,0,0,0-1.37783.03507,1.979,1.979,0,0,0-.57251.35857,1.95226,1.95226,0,0,0-.56759,2.06623A2.44026,2.44026,0,0,0,9.29606,5.38708Z" style="fill:#505957"/><path d="M6.49523,7.78416c.05425-.05563.11228-.10778.16236-.16679A9.6103,9.6103,0,0,1,9.296,5.38692a2.4379,2.4379,0,0,1-.28157-.55641A11.78209,11.78209,0,0,0,6.13157,7.50709C6.24708,7.607,6.33134,7.74793,6.49523,7.78416Z" style="fill:#58458c"/><path d="M11.30066,6.04518c.02388.02369.04543.04966.06794.07437.08945.06759.1829.12973.2673.203.39216.33951.781.68292,1.17328,1.02241.04783.04154.10462.12076.16917.07858.07009-.046.00118-.12111-.01986-.17588-.16989-.44152-.345-.881-.51859-1.32129l-.08272-.39077-.0004.00147a1.04538,1.04538,0,0,1-.17819-.35582.26991.26991,0,0,0-.22687-.22139,1.01043,1.01043,0,0,0-.87074.47577C10.89146,5.74614,11.13079,5.87736,11.30066,6.04518Z" style="fill:#434c4b"/><path d="M25.33146,20.226a.53918.53918,0,0,1-.18268.57553c-.18409.14494-.33516-.00823-.46688-.12935a3.22916,3.22916,0,0,0-.73939-.3823c-.0378-.02028-.1018-.024-.08887-.07846.006-.02527.06913-.05158.10692-.05242a4.10978,4.10978,0,0,0,1.0917-.14106C25.22279,19.96723,25.29891,20.07378,25.33146,20.226Z" style="fill:#505957"/><path d="M21.39578,24.07153c.09343-.11155.12112-.31883.338-.25587a.41277.41277,0,0,1,.32728.34655c.02353.14813-.01394.26945-.16786.26934-.21264-.00016-.34244.16106-.52224.216-.07947.0243-.14949.16487-.224.07893-.05627-.06487.06347-.15258.09661-.23374.05721-.14016.21594-.24394.15277-.42719Z" style="fill:#505957"/><path d="M25.72725,17.06574a.79574.79574,0,0,0,.115-.1071.193.193,0,0,0,.18155-.115.19678.19678,0,0,0,.18259-.118l.23191-.14232.169-.17392c.04341-.01059.08682-.02117.13015-.03207l-.0004-.00024c.172-.09687.44075-.10819.385-.41188a.57211.57211,0,0,0-.49809-.478c-.27789-.05053-.2542.21414-.33729.36542a.51781.51781,0,0,1-.08927.09481l-.37961.65864-.0429.08451-.001.00229c-.06183.08757-.1292.17176-.183.26413-.0253.04289-.05086.12645-.03043.14793C25.61936,17.16729,25.677,17.09716,25.72725,17.06574Z" style="fill:#505957"/><path d="M19.3647,24.23486l-1.14705,1.46138.38607,1.46971c.569-.78946,1.50179,3.37488,1.10158,3.71334-.51.49979-.07948.83381.16216,1.12071l.238-.80055A2.39618,2.39618,0,0,0,20.64584,32s.34989-.4887.18011-.84046l.497.52473a.912.912,0,0,0-.15828-1.28509C20.52144,30.41249,21.52629,23.90554,19.3647,24.23486Z" style="fill:#534184"/><path d="M19.36047,24.23541a22.73441,22.73441,0,0,0-.15544-3.32166l1.95965-3.511c.73187-.35121,1.99638,1.53789,3.20323,1.8101l.76042-1.24074c-1.811-.68052-2.68694-4.4931-6.26044-4.57237L16,13.88983V26.55334C17.64863,26.55334,17.17809,24.239,19.36047,24.23541Z" style="fill:#9fc9e4"/><path d="M27.39962,16.7239a2.10614,2.10614,0,0,0-1.60248.43936,2.10824,2.10824,0,0,0-1.969,1.71724c0,1.19084,1.43782,2.15632,3.21154,2.15632s3.21162-.96548,3.21162-2.15632S29.17327,16.7239,27.39962,16.7239Z" style="fill:#e3e5e5"/><path d="M30.20986,15.78282a1.54068,1.54068,0,0,0-1.29895,1.7c0,.06431.00914.12529.01441.18766a1.74526,1.74526,0,0,0-1.24053,1.24462,2.66343,2.66343,0,0,0-.8081-.12391c-1.12348,0-2.03429.66916-2.03429,1.49493s.91081,1.49493,2.03429,1.49493a2.1418,2.1418,0,0,0,1.87524-.91531,1.89889,1.89889,0,0,0,.6948.13112A1.75922,1.75922,0,0,0,31.257,19.29353a1.60471,1.60471,0,0,0-.12571-.61289,1.98988,1.98988,0,0,0,.37754-1.19777A1.54073,1.54073,0,0,0,30.20986,15.78282Z" style="fill:#edeeee"/><path d="M25.5898,17.65057l.16985,2.12251c.23687.50228,1.72265-.1982,1.48578-.70048Z" style="fill:#6e57a0"/><path d="M28.17564,18.35078c.16417.53055,1.73339.04518,1.56929-.48538l-1.44012-1.6399Z" style="fill:#6e57a0"/><path d="M29.24216,14.74277l.13291,1.6618c.18545.39307,1.34871-.15523,1.16327-.54857Z" style="fill:#6e57a0"/><path d="M17.97656,4.84958C17.97656,2.17129,17.09161,0,16,0V9.69888C17.09161,9.69888,17.97656,7.52786,17.97656,4.84958Z" style="fill:#e3e5e5"/><path d="M19.70544,9.93644a1.80045,1.80045,0,0,0,.59951-1.5415,5.23037,5.23037,0,0,0-2.32839.64227C17.77573,8.75086,17.02792,8.622,16,8.57373v6.169A3.91323,3.91323,0,0,0,19.70544,9.93644Z" style="fill:#b0d3ea"/><path d="M17.4004,14.93015l.47055-1.48578c1.49555.11061,2.45209-1.621,3.29373-3.74549-.71032,1.045-1.37469,1.85639-1.8821,1.87V9.40754c-.53361,2.20982-1.32,3.595-2.69942,3.04613L16,11.68611v1.585h.68225Z" style="fill:#edeeee"/><path d="M17.871,9.95251,16.6327,11.46324h1.58495C18.49125,11.40087,18.14454,9.89014,17.871,9.95251Z" style="fill:#e0b12e"/><path d="M16.83741,9.55612,16,6.36141V9.93976C16.4386,9.91481,16.83741,9.79091,16.83741,9.55612Z" style="fill:#675099"/><path d="M17.58613,10.30012l-.72758.88759a.96436.96436,0,0,0,.07817.27553h.94046a.98651.98651,0,0,0,.09938-.42106A.801.801,0,0,0,17.58613,10.30012Z" style="fill:#d6712d"/><path d="M17.2634,10.88168c-.0851,0-.15412.11143-.15412.24892,0,.13777.069.2492.15412.2492s.15419-.11143.15419-.2492C17.41759,10.99311,17.34857,10.88168,17.2634,10.88168Z" style="fill:#2b3332"/><path d="M19.36047,24.23541C17.17809,24.239,17.64863,26.55334,16,26.55334v1.54455C17.77178,28.09789,19.22042,27.775,19.36047,24.23541Z" style="fill:#58458c"/><polygon points="16 20.834 16 23.255 16.744 22.074 16 20.834" style="fill:#5ca3d5"/><polygon points="20.106 17.812 20.106 15.783 18.053 14.63 16 15.641 16 17.812 17.977 19.433 20.106 17.812" style="fill:#604893"/><path d="M12.6353,24.23486l1.147,1.46138L13.39628,27.166c-.569-.78946-1.50179,3.37488-1.10158,3.71334.51.49979.07948.83381-.16216,1.12071l-.23805-.80055A2.39618,2.39618,0,0,1,11.35416,32s-.34989-.4887-.18011-.84046l-.497.52473a.912.912,0,0,1,.15828-1.28509C11.47856,30.41249,10.47371,23.90554,12.6353,24.23486Z" style="fill:#58458c"/><path d="M12.63953,24.23541a22.73441,22.73441,0,0,1,.15544-3.32166l-1.95965-3.511c-.73187-.35121-1.99638,1.53789-3.20323,1.8101l-.76042-1.24074c1.811-.68052,2.68694-4.4931,6.26044-4.57237L16,13.88983V26.55334C14.35137,26.55334,14.82191,24.239,12.63953,24.23541Z" style="fill:#b0d3ea"/><path d="M4.60038,16.7239a2.10614,2.10614,0,0,1,1.60248.43936,2.10824,2.10824,0,0,1,1.969,1.71724c0,1.19084-1.43782,2.15632-3.21154,2.15632S1.7487,20.07134,1.7487,18.8805,2.82673,16.7239,4.60038,16.7239Z" style="fill:#edeeee"/><path d="M1.79014,15.78282a1.54068,1.54068,0,0,1,1.299,1.7c0,.06431-.00914.12529-.01441.18766a1.74526,1.74526,0,0,1,1.24053,1.24462,2.66343,2.66343,0,0,1,.8081-.12391c1.12348,0,2.03429.66916,2.03429,1.49493S6.24679,21.7811,5.12331,21.7811a2.1418,2.1418,0,0,1-1.87524-.91531,1.89889,1.89889,0,0,1-.6948.13112A1.75922,1.75922,0,0,1,.743,19.29353a1.60471,1.60471,0,0,1,.12571-.61289,1.98988,1.98988,0,0,1-.37754-1.19777A1.54073,1.54073,0,0,1,1.79014,15.78282Z" style="fill:#f7f7f7"/><path d="M6.4102,17.65057l-.16985,2.12251c-.23687.50228-1.72265-.1982-1.48578-.70048Z" style="fill:#745da6"/><path d="M3.82436,18.35078c-.16417.53055-1.73339.04518-1.56929-.48538l1.44012-1.6399Z" style="fill:#745da6"/><path d="M2.75784,14.74277l-.13291,1.6618c-.18545.39307-1.34871-.15523-1.16327-.54857Z" style="fill:#745da6"/><path d="M14.02344,4.84961c0,2.67822.88495,4.84912,1.97656,4.84912V0C14.90839,0,14.02344,2.17139,14.02344,4.84961Z" style="fill:#edeeee"/><path d="M12.29456,9.93644a1.80045,1.80045,0,0,1-.59951-1.5415,5.23037,5.23037,0,0,1,2.32839.64227c.20083-.28635.94864-.41525,1.97656-.46348v6.169A3.91323,3.91323,0,0,1,12.29456,9.93644Z" style="fill:#c1ddee"/><path d="M14.5996,14.93015l-.47055-1.48578c-1.49555.11061-2.45209-1.621-3.29373-3.74549.71032,1.045,1.37469,1.85639,1.8821,1.87V9.40754c.53361,2.20982,1.32,3.595,2.69942,3.04613L16,11.68611v1.585h-.68225Z" style="fill:#f7f7f7"/><path d="M14.12905,9.95251l1.23825,1.51073h-1.585C13.50875,11.40087,13.85546,9.89014,14.12905,9.95251Z" style="fill:#e8ba36"/><path d="M15.16259,9.55612,16,6.36141V9.93976C15.5614,9.91481,15.16259,9.79091,15.16259,9.55612Z" style="fill:#6e57a0"/><path d="M14.41387,10.30012l.72758.88759a.96436.96436,0,0,1-.07817.27553h-.94046a.98651.98651,0,0,1-.09938-.42106A.801.801,0,0,1,14.41387,10.30012Z" style="fill:#dd7731"/><path d="M14.7366,10.88168c.0851,0,.15412.11143.15412.24892,0,.13777-.069.2492-.15412.2492s-.15419-.11143-.15419-.2492C14.58241,10.99311,14.65143,10.88168,14.7366,10.88168Z" style="fill:#373f3f"/><path d="M12.63953,24.23541c2.18238.0036,1.71184,2.31793,3.36047,2.31793v1.54455C14.22822,28.09789,12.77958,27.775,12.63953,24.23541Z" style="fill:#604893"/><polygon points="16 20.834 16 23.255 15.256 22.074 16 20.834" style="fill:#65a9dc"/><polygon points="11.894 17.812 11.894 15.783 13.947 14.63 16 15.641 16 17.812 14.023 19.433 11.894 17.812" style="fill:#675099"/></svg>