<svg xmlns="http://www.w3.org/2000/svg" viewBox="0 0 32 32"><defs><style>.a{fill:#edeeee;}.b{fill:#e3e5e5;}.c{fill:#e9edf8;}.d{fill:#8694d1;}.e{fill:#707eb7;}.f{fill:#6fbbe0;}.g{fill:#9aa6d6;}.h{fill:#505957;}.i{fill:#5c6664;}.j{fill:#687271;}.k{fill:#a53f83;}.l{fill:#9b3a7d;}.m{fill:#93357b;}.n{fill:#373f3f;}.o{fill:#2b3332;}.p{fill:#8c3179;}.q{fill:#434c4b;}.r{fill:#e5c79a;}.s{fill:#eacea1;}.t{fill:#e9edf7;}.u{fill:#e8ecf7;}.v{fill:#e5e8f3;}.w{fill:#68609b;}.x{fill:#68619b;}.y{fill:#5da5cf;}.z{fill:#559cc9;}.aa{fill:#3a4274;}.ab{fill:#313d68;}.ac{fill:#abb4dd;}.ad{fill:#81c9ec;}.ae{fill:#3e4679;}.af{fill:#dbba8c;}.ag{fill:#e0c193;}</style></defs><title>642-thundurus-shiny</title><polygon class="a" points="18.87 4.939 17.947 5.597 15.584 3.692 15.966 5.673 15.05 6.298 14.436 6.625 15.265 6.563 17.242 8.861 18.936 8.952 18.936 4.987 18.87 4.939"/><polygon class="b" points="22.777 6.588 23.389 6.676 22.822 6.298 21.926 5.294 22.266 3.819 19.639 5.495 18.936 4.987 18.936 8.952 20.736 9.048 22.777 6.588"/><polygon class="c" points="17.564 25.152 17.564 25.152 17.563 25.156 17.564 25.152"/><path class="a" d="M17.9946,19.248c-.08025.15158-.11451.37134-.36438.19-.00836-.006-.02673-.01158-.03161-.00728-.324.28628-.50074.005-.7248-.16879a.40183.40183,0,0,0-.53061.04336c-.1448.12576-.222.05262-.36422-.03078a.988.988,0,0,1-.50745-1.11765.3359.3359,0,0,0-.05063-.2598c-.00306.22472-.01283.44977-.00728.67449.005.20354-.01126.29125-.27933.24193A1.33173,1.33173,0,0,0,13.5226,20.228c.02267.2747.01042.30349-.24963.182a1.11468,1.11468,0,0,0-1.58314.52325,4.16613,4.16613,0,0,1-.27759.7013c.15968-.13669.318-.275.47972-.4094.04592-.03806.08671-.11749.15737-.07181.0187.01224-.00331.10359-.02134.15356-.15489.42826-.31317.85553-.47046,1.28313a.8142.8142,0,0,0,.101.72182,1.62206,1.62206,0,0,1-.06379,1.58828,1.8052,1.8052,0,0,0,.624.44778,8.63609,8.63609,0,0,0,4.06741,1.18054c.13429.00529.26808.02449.40212.03706a2.04571,2.04571,0,0,1,.87522-1.41319l.01506-.39583c-.0609-.4693-.12345-.93827-.18046-1.4079-.007-.05825-.05552-.14794.02367-.17541.07289-.02515.10863.06553.14487.11749.29754.425.59085.85288.8883,1.27783.064.09168.13941.17475.20966.26212a1.951,1.951,0,0,1,.271.02979V18.74857A1.1726,1.1726,0,0,0,17.9946,19.248Z"/><path class="b" d="M20.49575,26.04689a9.61034,9.61034,0,0,0,3.103-1.5191c.063-.045.132-.08142.19816-.12213a.37845.37845,0,0,0-.04021-.22637,2.16486,2.16486,0,0,1,.866-2.61955q-.17958-1.00479-.359-2.00958c-.009-.05064-.04593-.1069.02523-.14364a1.44712,1.44712,0,0,0-1.578-.54509c-.20015.05792-.26138.0182-.25352-.188.00985-.25881-.00347-.51862-.00687-.77809a2.3265,2.3265,0,0,0-.05163.83534.43.43,0,0,1-.17491.367c-.226.19361-.38681.375-.72256.13139-.20586-.14926-.45507.02217-.59871.238-.0863.12973-.16258.17541-.28727.048-.03707-.03773-.11633-.08705-.14562-.07182-.3907.20221-.41089-.16217-.54658-.34883a.8629.8629,0,0,0-.06429-.07844,1.13256,1.13256,0,0,0-.9233-.26742V24.8604A1.85986,1.85986,0,0,1,20.49575,26.04689Z"/><path class="d" d="M18.92551,18.30608c-.26766.00662-.54344-.369-.53053-.72248.01084-.29787.36464-.88631.54062-.90948V13.51181a13.0825,13.0825,0,0,0-1.6936-.275,3.40808,3.40808,0,0,1-1.2492.6275,8.48013,8.48013,0,0,1-2.076.38887,7.56644,7.56644,0,0,0,.97343,1.96127,2.98724,2.98724,0,0,1,.5307,1.6826.3359.3359,0,0,1,.05063.2598.988.988,0,0,0,.50745,1.11765c.14223.0834.21942.15654.36422.03078a.40183.40183,0,0,1,.53061-.04336c.22406.17376.40079.45507.7248.16879.00488-.0043.02325.00133.03161.00728.24987.18137.28413-.03839.36438-.19a1.1726,1.1726,0,0,1,.941-.49942V18.3031Zm-2.74945-2.8532a1.186,1.186,0,0,1-.48659.22208c-.3063.00562-.38126-.08605-.2579-.3068a.71307.71307,0,0,1,.54137-.40741.301.301,0,0,1,.34113.15422C16.38631,15.26887,16.29132,15.38073,16.17606,15.45288Z"/><path class="e" d="M19.8589,19.016a.8629.8629,0,0,1,.06429.07844c.13569.18666.15588.551.54658.34883.02929-.01523.10855.03409.14562.07182.12469.12742.201.08174.28727-.048.14364-.21579.39285-.38722.59871-.238.33575.24358.4966.06222.72256-.13139a.43.43,0,0,0,.17491-.367,2.32828,2.32828,0,0,1,.05155-.83534,3.06554,3.06554,0,0,1,.55055-1.71238,6.07727,6.07727,0,0,0,.81772-1.58761,10.05553,10.05553,0,0,1-3.501-.67615,10.29038,10.29038,0,0,0-1.38209-.40741v3.16231l.01316-.00827c.14736.00132.51133.62121.52763.89855.00066.01125.00008.02284.00008.03409a.68207.68207,0,0,1-.54087.70461v.44547A1.13256,1.13256,0,0,1,19.8589,19.016Zm1.70783-3.92187a.31841.31841,0,0,1,.32186-.136.71752.71752,0,0,1,.58737.4928c.0863.21148-.07488.2138-.22671.22869a1.13832,1.13832,0,0,1-.62113-.28463A.21774.21774,0,0,1,21.56673,15.09412Z"/><path class="f" d="M17.42924,13.12855l.01573-.02879.00049-.00033-.00066.00033Z"/><path class="g" d="M18.46639,12.45009c-.15671.10789-.3183.20883-.47766.31275a.99519.99519,0,0,1-.54327.33659l-.0005.00033-.01572.02879.01556-.02879-.2028.137a12.97022,12.97022,0,0,1,1.6936.275V12.07908C18.77881,12.2022,18.63112,12.3369,18.46639,12.45009Z"/><path class="d" d="M23.81866,14.59537a.91543.91543,0,0,1,.47468-.08142q.22935-.06156.45879-.12378a3.13339,3.13339,0,0,0,1.0321-.53979,2.31152,2.31152,0,0,1-1.18095-.21149.98665.98665,0,0,1-.42611-.419,1.12,1.12,0,0,1-.14272-.44349c.1318.03045.16481.186.28264.22837.1126.04037.27924.22306.30795-.06851.0422-.4276.14918-.81946.61683-.94555a1.168,1.168,0,0,1,1.23721.32765.23048.23048,0,0,0,.05767.03442c-.32633-.93033-.703-1.84378-.94911-2.80091a1.64485,1.64485,0,0,0-.44771-.77743,2.47211,2.47211,0,0,0-2.07139-.67979c-.0633.06123-.1649.11253-.18376.18534a3.19692,3.19692,0,0,1-.83,1.36554,3.9943,3.9943,0,0,1,2.70013.46864c.11824.06486.23126.139.34668.2085a.45422.45422,0,0,1,.22795.22836c-.13693.01721-.20453-.09333-.2953-.16084-.278-.11849-.55551-.238-.83393-.35545a3.30515,3.30515,0,0,0-3.49352.59374c-.60384.466-1.17069.979-1.77122,1.45059v1.43273a10.28584,10.28584,0,0,1,1.382.40741A10.05632,10.05632,0,0,0,23.81866,14.59537ZM21.8411,11.029a1.10792,1.10792,0,0,1,.72968-.30779c.15522.00794.29869-.01291.35189.13139.05535.15058-.08042.22075-.17086.29687a1.46084,1.46084,0,0,1-.69468.32268.26626.26626,0,0,1-.31-.1476C21.68257,11.19641,21.75976,11.109,21.8411,11.029Z"/><path class="g" d="M15.37018,10.11914c-.2574.01291-.5139.044-.77089.06685-.07173.096-.17748.05792-.27081.06851-.016.0149-.03094.04038-.0484.04237-.19386.02052-.36207.1476-.56354.13437a1.3444,1.3444,0,0,1,.544-.24491l.27081-.06653a6.37408,6.37408,0,0,1,1.62791-.20916A3.46894,3.46894,0,0,1,14.938,8.22142a2.14724,2.14724,0,0,0-.98742-.16085,2.248,2.248,0,0,0-2.11533,1.865c-.17872.71951-.23523,1.46383-.41047,2.18632a1.10643,1.10643,0,0,0-.004.73142c.19046-.16813.33278-.38921.60515-.46136.68112-.1807,1.12882.25318,1.07637,1.05742l.0781.00761c.06694-.041.1328-.0834.20106-.12213.08473-.048.11857-.22472.20544-.17838.11832.06321.05751.22571.04311.34055a1.50969,1.50969,0,0,1-.32624.76386q.30655.001.6131.00231a8.46465,8.46465,0,0,0,2.076-.38887,3.40808,3.40808,0,0,0,1.2492-.6275l.2028-.137.00066-.00033c.1016-.16945.328-.21281.4065-.40476l.06834-.00033a9.196,9.196,0,0,0,1.0153-.90915V10.508A12.17069,12.17069,0,0,0,15.37018,10.11914Zm.22364,2.4961a2.193,2.193,0,0,1-.89714.3998.3318.3318,0,0,1-.28877-.17608.3061.3061,0,0,1,.02615-.3475,1.42529,1.42529,0,0,1,1.06288-.31739c.10549.03276.22538.06553.24929.19857C15.76791,12.49311,15.66986,12.55136,15.59382,12.61524Z"/><path class="d" d="M19.72519,10.71752c-.262-.07877-.52581-.144-.78959-.2095v1.27717a11.15646,11.15646,0,0,1,.8552-.79728C19.94668,10.86248,19.96993,10.79132,19.72519,10.71752Z"/><path class="a" d="M17.59092,28.42616a1.84243,1.84243,0,0,1-.83485-1.21992l-.06718-.07149-.0005.00431a10.55,10.55,0,0,1-4.80992-1.41717q-.26534-.14646-.5316-.29125a.71583.71583,0,0,0,.035.61658,1.70429,1.70429,0,0,0,1.83558.71752c.16507-.07314.23085-.08605.24036.1304a.93492.93492,0,0,0,.24169.512.95824.95824,0,0,0,1.26029.22009c.05543-.041.08646-.05759.13023.00861a.488.488,0,0,0,.639.13106c.18948-.06818.23109-.00695.27453.14231a.92193.92193,0,0,0,.44473.649.78157.78157,0,0,1,.46855.55171c.071.284.32732.38854.582.46136.28032.08009.56693.138.84742.21777.1481.042.27974.12675.248.31077a.63974.63974,0,0,0,.29034.60532c.02134.0192.03193.04237.051.06288v-2.0397A1.87754,1.87754,0,0,1,17.59092,28.42616Z"/><path class="b" d="M19.25622,32.07929c.082.03309.126-.10161.17284-.17707.28231-.45407.01556-.81515-.19808-1.18616-.18947-.329-.1342-.555.201-.71454a1.16076,1.16076,0,0,0,.63834-.56627.60444.60444,0,0,1,.45623-.3197,4.21265,4.21265,0,0,0,1.13932-.62651.45251.45251,0,0,0,.22216-.29058c.08381-.35744.24739-.54211.64777-.39749.1807.0652.291-.12146.43182-.187.09639-.04468.21578.21082.43314.20222a1.16181,1.16181,0,0,0,1.15455-.94754c.02267-.10326-.00314-.21082.16648-.13635a1.55022,1.55022,0,0,0,1.6931-.41569.753.753,0,0,0,.25079-.879l-.09648-.0129a2.15944,2.15944,0,0,1-2.48732-.66159A11.78073,11.78073,0,0,1,20.633,26.65519a1.95239,1.95239,0,0,1-1.05468,1.86529,1.98393,1.98393,0,0,1-.64273.20784V30.768a1.50183,1.50183,0,0,1,.33336,1.08191C19.26971,31.93035,19.148,32.03593,19.25622,32.07929Z"/><path class="h" d="M26.3874,21.30855a3.05337,3.05337,0,0,0-.60822-.06487,1.26907,1.26907,0,0,1,.08109.14827c.05444.14.29645.18533.21876.38259a.94142.94142,0,0,1-.43347.49908,1.23739,1.23739,0,0,1-.69121.10723c-.1846-.01224-.19593-.17011-.22936-.2929-.047-.17243-.06942-.35181-.10235-.52821a2.16486,2.16486,0,0,0-.866,2.61955.37909.37909,0,0,1,.04029.22637c.15.07513.19734.23234.285.35744a2.15921,2.15921,0,0,0,2.48716.66159,3.15862,3.15862,0,0,0,.90939-.7258,2.56112,2.56112,0,0,0,.41205-1.43272A2.274,2.274,0,0,0,26.3874,21.30855Z"/><path class="i" d="M11.55753,22.59a.81433.81433,0,0,0,.101.72193,1.62157,1.62157,0,0,1-.06372,1.588l-.31815.46352a1.875,1.875,0,0,1-2.012.35525,1.79415,1.79415,0,0,1-.75478-2.73257,1.92074,1.92074,0,0,1,.52422-.50592,2.24376,2.24376,0,0,1,1.69491-.18465c-.015.07851-.08455.09752-.14181.12946-.20433.11395-.39345.24354-.30552.52089a.86321.86321,0,0,0,.82329.52014c.29314-.03857.25546-.30069.29812-.49088C11.43467,22.83448,11.41773,22.68421,11.55753,22.59Z"/><path class="i" d="M6.12726,19.81678A1.43624,1.43624,0,0,1,4.96932,18.7289a1.48765,1.48765,0,0,1,.42238-1.54016c.10238-.10234.21531-.19414.3234-.29083l.55014-.14322a1.70417,1.70417,0,0,1,.85128.1215.435.435,0,0,0,.29288-.00008c-.04911.12557-.17389.12424-.274.168-.19205.08382-.32825.21829-.25169.44391a.66409.66409,0,0,0,.59106.48015c.2224.01818.2939-.17889.334-.3583.02662-.11909.00354-.25373.155-.30628a.69973.69973,0,0,0,.006.57249,1.56309,1.56309,0,0,1-.69827,1.7965l-.61091.2133.00507.00239C6.50324,19.7356,6.308,19.83062,6.12726,19.81678Z"/><path class="j" d="M6.68266,11.68111c-.01981.064-.06654.13326-.05532.19129A1.46116,1.46116,0,0,1,5.932,13.374l-.567.14318a1.40548,1.40548,0,0,1-1.47595-1.74632,1.36882,1.36882,0,0,1,1.36532-1.03835,2.52585,2.52585,0,0,1,1.00227.34027.33264.33264,0,0,1,.008.05957c-.19066.05188-.45427-.00279-.47434.3056a.57219.57219,0,0,0,.36643.5853c.25716.11673.29873-.14556.41619-.27207A.51071.51071,0,0,1,6.68266,11.68111Z"/><path class="j" d="M6.95657,7.82218a1.29086,1.29086,0,0,1,1.891-1.70957,1.35276,1.35276,0,0,1,.46286.67611c.01.02006.03111.04179.02837.05992-.09023.59735.33494.86812.72765,1.16438.08465.06387.2513.14189.20537.23309-.06241.124-.21608.013-.32959-.00069a2.58461,2.58461,0,0,1-.33086-.05977,1.00775,1.00775,0,0,0-.97336.12061.99864.99864,0,0,1-1.02837.04642A1.226,1.226,0,0,1,6.95657,7.82218Zm1.61-.07908c-.00558.15557.04223.27747.22.2699a4.10951,4.10951,0,0,1,1.09311.12964c.03685.0084.1045-.00171.11648-.02475.02584-.04967-.03533-.06888-.067-.09777a3.2297,3.2297,0,0,1-.62374-.55119c-.09817-.1496-.2073-.335-.42119-.23938A.53917.53917,0,0,0,8.56659,7.7431Z"/><path class="k" d="M18.93254.08445c-.15166-.00231-.13255.13272-.1601.21811-.26187.80919-.51836,1.62037-.77643,2.43122a.29736.29736,0,0,0,.17408.329,1.54466,1.54466,0,0,0,.76551.21644V.08611Z"/><path class="l" d="M19.702,3.06276a.2976.2976,0,0,0,.17384-.32931q-.3876-1.21578-.77693-2.43089C19.07072.21518,19.07469.0914,18.9356.08611V3.2792A1.54828,1.54828,0,0,0,19.702,3.06276Z"/><path class="m" d="M26.53675,12.35279a.23192.23192,0,0,1-.05767-.03442,1.168,1.168,0,0,0-1.23721-.32765c-.46765.12609-.57463.518-.61683.94555-.02871.29157-.19535.10888-.30795.06851-.11783-.04237-.15084-.19792-.28256-.22837a1.11862,1.11862,0,0,0,.14264.44349.98665.98665,0,0,0,.42611.419,2.31152,2.31152,0,0,0,1.18095.21149c.20271-.13934.39591-.29621.6102-.415.44217-.24524.47568-.31077.28711-.77941C26.63984,12.552,26.5854,12.45373,26.53675,12.35279Z"/><path class="j" d="M13.32176,4.97434l.06217.32018a1.14931,1.14931,0,0,1-.26379.56673l-.00115.00066-.06576.06557a1.03067,1.03067,0,0,1-1.50721-.0156c-.10459-.15483-.25592-.28276-.27924-.48448A.97124.97124,0,0,1,11.637,4.37762a.93648.93648,0,0,1,1.07989-.104.85574.85574,0,0,0,.82462.03127,1.60017,1.60017,0,0,1,.25881-.07607c.05135-.01.13566-.01637.15574.01138.05031.06953-.02384.11822-.06882.1642q-.28261.28884-.56742.57552c-.01654-.19313.16272-.255.25241-.377.05194-.07062.18947-.12646.15073-.2031-.05133-.10153-.15355.0177-.23654.02187-.18778.00944-.353.13411-.55918.08206-.14924-.03768-.21517.07084-.22851.22022a.41279.41279,0,0,0,.23281.416C13.12649,5.254,13.20392,5.05971,13.32176,4.97434Z"/><path class="n" d="M18.063,6.49679a.30338.30338,0,0,0-.28289.26576c-.0762.30548-.16854.60665-.25418.90981.11733.135.24.26642.35057.40708.12113.15456.20305.19427.28231-.03608.08373-.24325.19461-.47757.29389-.71586.03368-.08075.0518-.16283.16226-.192a1.02574,1.02574,0,0,1,.32061-.03574V6.419A4.967,4.967,0,0,0,18.063,6.49679Z"/><path class="o" d="M19.52488,7.57539c.29108.7109.29108.71057.7938.1165a.14793.14793,0,0,1,.02714-.01986c-.08563-.30283-.178-.604-.25418-.90948a.30345.30345,0,0,0-.283-.26576A4.94092,4.94092,0,0,0,18.9356,6.419V7.0998A.65919.65919,0,0,1,19.52488,7.57539Z"/><path class="l" d="M11.27669,25.36347,11.59484,24.9a1.80135,1.80135,0,0,0,.624.448,8.639,8.639,0,0,0,4.06736,1.18049c.13432.00514.26811.02443.40214.03719l.00009.57338a10.5504,10.5504,0,0,1-4.81-1.4172c-.17689-.09765-.35437-.19423-.53159-.29131Z"/><path class="p" d="M24.29334,14.514a6.43556,6.43556,0,0,1,.42106,5.12987,1.3404,1.3404,0,0,1-.08729.17706q.13119.16334.26237.327a6.96393,6.96393,0,0,0,.62005-2.508,6.44548,6.44548,0,0,0-.7574-3.24969Q24.52266,14.45223,24.29334,14.514Z"/><path class="n" d="M25.86027,21.392a1.26907,1.26907,0,0,0-.08109-.14827,7.6542,7.6542,0,0,1-.76774-.94953l-.122-.14628q-.13119-.16332-.26237-.327-.169-.207-.33824-.41436c-.07116.03674-.03425.093-.02523.14364q.17933,1.00479.359,2.00958c.03293.1764.05536.35578.10235.52821.03343.12279.04476.28066.22936.2929a1.23739,1.23739,0,0,0,.69121-.10723.94142.94142,0,0,0,.43347-.49908C26.15672,21.57728,25.91471,21.53194,25.86027,21.392Z"/><path class="l" d="M6.66055,19.88584l.61091-.2133a14.23741,14.23741,0,0,0,1.51371,2.538,3.343,3.343,0,0,0,.249.26969,1.92074,1.92074,0,0,0-.52429.506c-.00785-.14811-.11977-.236-.20049-.34029A12.31683,12.31683,0,0,1,6.66055,19.88584Z"/><path class="k" d="M6.95657,7.82218a1.226,1.226,0,0,0,.653.5305c-.16159.01419-.21384.14929-.28552.26076a8.73334,8.73334,0,0,0-1.00152,2.31924l-.066.14015a2.52465,2.52465,0,0,0-1.00222-.34032c.36832.06891.47175-.12989.55576-.4559A6.60586,6.60586,0,0,1,6.81152,8.11947.59316.59316,0,0,0,6.95657,7.82218Z"/><path class="l" d="M5.365,13.51718l.567-.14318a12,12,0,0,0,.25916,3.1227c.01971.08714.04919.17208.0741.258q-.27512.07155-.55017.1432a12.993,12.993,0,0,1-.33523-2.80665C5.37412,13.89992,5.36992,13.70854,5.365,13.51718Z"/><path class="q" d="M11.55753,22.59c-.1398.09419-.12286.24446-.15442.38517-.04266.19019-.005.45231-.29812.49088a.86321.86321,0,0,1-.82329-.52014c-.08793-.27735.10119-.40694.30552-.52089.05726-.03194.12683-.051.14181-.12946l.68324-.6609c.15964-.13676.318-.275.47971-.40931.04593-.03815.08667-.1177.15735-.07192.01871.01212-.00332.10361-.02131.15336C11.8731,21.73524,11.71481,22.16245,11.55753,22.59Z"/><path class="q" d="M7.96371,17.30355c-.15144.05255-.12836.18719-.155.30628-.0401.17941-.1116.37648-.334.3583a.66409.66409,0,0,1-.59106-.48015c-.07656-.22562.05964-.36009.25169-.44391.10015-.04372.22493-.04239.274-.168.339-.23389.6772-.46886,1.01794-.70014.04-.02717.08886-.09416.13669-.04293.01969.02109-.01.10327-.03451.14826C8.34332,16.62336,8.15285,16.96309,7.96371,17.30355Z"/><path class="r" d="M19.89315,4.44948a1.4873,1.4873,0,0,0-.349,1.25367c.28023-.01522.58381.10558.8283-.12245.18617-.17376.36009-.36042.53938-.54145-.03408-.13007-.06073-.26279-.1035-.38987C20.61133,4.06292,20.32671,4.004,19.89315,4.44948Zm.20933.99817-.08092.04534c-.04385.00033-.0877.001-.13155.00166a.17222.17222,0,0,1-.15142-.10558c-.07686-.09829-.09788-.19427.01134-.28529a.06361.06361,0,0,1,.06851-.06817c.093-.11319.19121-.08506.29116-.01093l.05792.06951A.22553.22553,0,0,1,20.10248,5.44765Z"/><path class="s" d="M18.32937,5.04306l-.00171.66024c-.63734.15234-1.01571-.22866-1.3677-.66406a4.94549,4.94549,0,0,1,.1754-.57445c.15283-.35.30608-.39366.62562-.18717a3.38671,3.38671,0,0,1,.35495.30264.47874.47874,0,0,0,.14317.25872Zm-.20742.06068a.06368.06368,0,0,0-.06859-.06813c-.093-.11317-.19121-.08493-.29114-.01082l-.05782.0693a.22538.22538,0,0,0,.06508.35344l.0805.04534.13206.00152a.17141.17141,0,0,0,.15119-.10523C18.21011,5.29083,18.231,5.19473,18.12195,5.10374Z"/><path class="k" d="M11.26678,5.4274c.02332.20172.17465.32965.27924.48448a5.28928,5.28928,0,0,0-2.06917.64784.25515.25515,0,0,0-.16641.22911,1.35283,1.35283,0,0,0-.46289-.67622.36171.36171,0,0,0,.31633.00837A8.50584,8.50584,0,0,1,11.26678,5.4274Z"/><path class="k" d="M13.12014,5.86125a1.14931,1.14931,0,0,0,.26379-.56673,10.41076,10.41076,0,0,1,1.95868.20023A.82025.82025,0,0,1,15.08,6.1201,6.3173,6.3173,0,0,0,13.12014,5.86125Z"/><path class="t" d="M25.01144,20.29415a7.6542,7.6542,0,0,0,.76774.94953,3.05337,3.05337,0,0,1,.60822.06487,1.77863,1.77863,0,0,0-.02656-.26411A1.10125,1.10125,0,0,0,25.01144,20.29415Z"/><path class="u" d="M27.47849,24.69889a.40349.40349,0,0,0,.00331.06388c.39326-.0417.64082-.2459.66837-.5676a1.10407,1.10407,0,0,0-.25963-.929A2.56112,2.56112,0,0,1,27.47849,24.69889Z"/><path class="v" d="M26.56918,25.42469l.09639.0129c.55122-.02085.70172-.14529.81623-.67482a.40349.40349,0,0,1-.00331-.06388A3.15936,3.15936,0,0,1,26.56918,25.42469Z"/><path class="w" d="M6.12726,19.81678c.18077.01384.376-.08118.53836.07145C6.48723,19.85653,6.296,19.92139,6.12726,19.81678Z"/><path class="x" d="M13.05323,5.92748l.06576-.06557Z"/><path class="i" d="M18.66463,24.83061c.0158.02946.03037.05991.04774.0887.12378.2042.32385.38987.06429.64471a1.01043,1.01043,0,0,1-.96053.24888.26989.26989,0,0,1-.166-.27006,1.0546,1.0546,0,0,0-.08655-.39053,2.04428,2.04428,0,0,0-.8753,1.41319l.00008.57356.0005-.00431.06726.07149a1.842,1.842,0,0,0,.83477,1.21992,1.87754,1.87754,0,0,0,1.34468.30216V24.8604A1.951,1.951,0,0,0,18.66463,24.83061Z"/><path class="h" d="M20.633,26.65519a2.438,2.438,0,0,0-.13726-.6083A1.85986,1.85986,0,0,0,18.9356,24.8604v3.86792a1.98393,1.98393,0,0,0,.64273-.20784A1.95239,1.95239,0,0,0,20.633,26.65519Z"/><path class="m" d="M23.7969,24.40566c-.06619.04071-.1352.07712-.19816.12213a9.61034,9.61034,0,0,1-3.103,1.5191,2.438,2.438,0,0,1,.13726.6083,11.78216,11.78216,0,0,0,3.44893-1.89209C23.99432,24.638,23.947,24.48079,23.7969,24.40566Z"/><path class="q" d="M18.71237,24.91931c-.01737-.02879-.03193-.05924-.04774-.0887-.07024-.08737-.1457-.17044-.20966-.26212-.29745-.42495-.59076-.85288-.88829-1.27783-.03624-.052-.072-.14264-.14488-.11749-.07918.02747-.0307.11716-.02367.17541.057.46963.11956.9386.18046,1.4079l-.01514.39914.00074-.00133a1.04545,1.04545,0,0,1,.086.38855.2699.2699,0,0,0,.166.27006,1.01041,1.01041,0,0,0,.96052-.24888C19.03622,25.30918,18.83615,25.12351,18.71237,24.91931Z"/><path class="l" d="M18.395,17.5836c-.01291.35346.26287.7291.53053.72248l.01009-.003v-1.629C18.75962,16.69729,18.40582,17.28573,18.395,17.5836Z"/><path class="m" d="M19.4768,17.59849c-.00033-.01125.00025-.02284-.00041-.03409-.0163-.27734-.38027-.89723-.52763-.89855l-.01316.00827v1.629A.68262.68262,0,0,0,19.4768,17.59849Z"/><path class="m" d="M21.88859,14.9581a.31841.31841,0,0,0-.32186.136.21774.21774,0,0,0,.06139.30084,1.13832,1.13832,0,0,0,.62113.28463c.15183-.01489.313-.01721.22671-.22869A.71752.71752,0,0,0,21.88859,14.9581Z"/><path class="l" d="M15.68951,15.67484c-.30633.00586-.38128-.08589-.258-.30666a.7131.7131,0,0,1,.54137-.40756.30146.30146,0,0,1,.34117.15434c.0722.154-.02278.26574-.138.338A1.18318,1.18318,0,0,1,15.68951,15.67484Z"/><path class="m" d="M21.8411,11.029c-.08134.08009-.15853.16746-.094.29555a.26626.26626,0,0,0,.31.1476,1.46084,1.46084,0,0,0,.69468-.32268c.09044-.07612.22621-.14629.17086-.29687-.0532-.1443-.19667-.12345-.35189-.13139A1.10792,1.10792,0,0,0,21.8411,11.029Z"/><path class="y" d="M17.445,13.09976H17.4448l-.01556.02879Z"/><path class="l" d="M14.69669,13.01505a.33147.33147,0,0,1-.28881-.176.30622.30622,0,0,1,.02618-.34755,1.42413,1.42413,0,0,1,1.06291-.31731c.10543.03269.22534.0653.24928.19838.02168.12053-.07642.17871-.15244.24274A2.19132,2.19132,0,0,1,14.69669,13.01505Z"/><polygon class="z" points="17.445 13.1 17.445 13.1 17.445 13.1 17.445 13.1"/><path class="aa" d="M17.92029,12.69429c-.02277,0-.0456,0-.0683.00049-.07855.19189-.30493.2351-.40656.40478a.99566.99566,0,0,0,.54322-.33667h.00006c.15936-.104.321-.20483.47766-.31274.16473-.11328.31244-.24805.46924-.3711v-.29394A9.1856,9.1856,0,0,1,17.92029,12.69429Z"/><path class="ab" d="M25.10162,10.32271c-.11541-.06958-.22845-.14356-.34668-.2085a3.99463,3.99463,0,0,0-2.70013-.46875c-.18988.12012-.35437.29736-.60956.27075-.05163.07544-.13006.06519-.2055.06494l-.00043.00025c-.286.2146-.63269.332-.90369.57422-.08612.07714-.21136.03051-.32318.002-.33508-.08545-.67267-.16065-1.00928-.24024l-.06756-.00048V10.508c.26379.06567.52752.13061.78961.20947.24469.074.22144.145.06561.27027a11.22022,11.22022,0,0,0-.85522.79736v.29394c.60052-.47168,1.16736-.98462,1.77118-1.45068a3.30552,3.30552,0,0,1,3.49353-.59375c.27844.11768.556.23706.834.35547.09076.06763.15833.17822.29529.16089A.45427.45427,0,0,0,25.10162,10.32271Z"/><path class="aa" d="M18.86957,10.31611l-.07257-.06005c-.12073-.01587-.243-.02417-.36188-.04859-.75147-.15478-1.51514-.21387-2.27588-.29687a6.36994,6.36994,0,0,0-1.62781.20923l.06787.06616c.257-.02295.51349-.054.77088-.0669a12.17363,12.17363,0,0,1,3.56543.38892v-.19116Z"/><path class="aa" d="M14.26056,10.18623a1.3459,1.3459,0,0,0-.544.24487c.20148.01343.36969-.11377.56354-.13427.01746-.002.03235-.02735.0484-.04248.09332-.0105.1991.02758.27081-.06836l-.06793-.06616Q14.396,10.15314,14.26056,10.18623Z"/><path class="l" d="M13.58681,13.14642c-.08688-.04633-.12072.1304-.20545.17839-.06826.03872-.13412.08109-.20105.12213l-.07811-.00762c.05246-.80423-.39525-1.23812-1.07636-1.05741-.27238.07215-.41469.29323-.60516.46136a.62446.62446,0,0,0,.03946.33195c.4051,1.01836.74582,1.18781,1.84353,1.07562a1.5096,1.5096,0,0,0,.32624-.76386C13.64431,13.37214,13.70512,13.20964,13.58681,13.14642Z"/><path class="w" d="M16.68893,27.13475l.06722.07159Z"/><path class="ac" d="M18.615,7.13554c-.11046.02913-.12858.11121-.16226.192-.09928.23829-.21016.47261-.294.71586-.07918.23035-.1611.19064-.28223.03608-.11054-.14066-.23324-.27205-.35057-.40708-.06552.21512-.129.43091-.19766.64471-.02267.07082-.00819.17805-.10781.186-.02689.00231-.0681-.10128-.0935-.16052-.138-.3207-.2689-.64438-.41-.96342-.41552-.93993-.41486-.91841-1.45184-.81582-.33319.03277-.37373.19163-.394.4468A9.59284,9.59284,0,0,0,14.938,8.22142a3.46859,3.46859,0,0,0,1.2214,1.68922c.76063.08307,1.52432.142,2.27576.29687.1189.02449.24119.03276.3619.04865l.07257.0599.066.00066V7.0998A1.02574,1.02574,0,0,0,18.615,7.13554Z"/><path class="g" d="M22.96423,7.83687a3.46654,3.46654,0,0,0,.02991-.87354c-.00488-.231-.06329-.38916-.36609-.39746-.26721-.00732-.53815-.01489-.80572-.04a.35259.35259,0,0,0-.42627.26709c-.16144.44263-.35706.8728-.5434,1.30566-.06048.14112-.13592.2754-.20453.41236-.13574-.10913-.121-.27759-.1673-.42212-.04443-.13916-.0899-.27783-.135-.41675a.14687.14687,0,0,0-.02717.01978c-.50268.59423-.50268.59448-.79388-.11646a.65926.65926,0,0,0-.58917-.47558v3.217l.06756.00048c.33661.07959.67426.15479,1.00928.24024.11182.02856.23706.07519.32318-.002.271-.24219.61768-.35962.90369-.57422l.00043-.00025c.07544.00025.15387.0105.2055-.06494.25519.02661.41968-.15063.60956-.27075a3.19519,3.19519,0,0,0,.83-1.36548c.01886-.07275.12048-.124.18383-.1853C22.89124,8.0666,22.93933,7.94307,22.96423,7.83687Z"/><path class="f" d="M18.86955,10.31611l-.07254-.06Z"/><path class="ad" d="M15.70271,3.93814h-.00008c.0791-.03673.08927.03442.1184.07579C15.7919,3.97256,15.78181,3.90141,15.70271,3.93814Z"/><path class="ac" d="M18.17009,3.06276a.29727.29727,0,0,1-.17408-.329,2.59263,2.59263,0,0,0-1.32988.81085c-.15745.1635-.2555.21612-.45987.04435a5.56149,5.56149,0,0,0-1.08637-.73175c-.09308-.04666-.1903-.15654-.302-.0642a.31821.31821,0,0,0-.072.3154,6.03136,6.03136,0,0,0,.58985,1.98443c.07521.13536.128.26576.00695.40179a.82116.82116,0,0,1-.2627.62551l-.00612.13437-.02375.04335c.04468.02847.06983-.00033.09275-.03408h.00017c.30274-.11981.5997-.25881.91005-.35347.25393-.07777.29894-.186.20305-.43124-.18774-.48022-.34238-.97368-.51076-1.46185l.07563-.00331c-.02913-.04137-.0393-.11252-.1184-.07579h.00008c.0791-.03673.08919.03442.11832.07579.38954.331.72017.72679,1.13891,1.02532a4.96579,4.96579,0,0,1,.17541-.57455c.15282-.34982.30605-.39351.6256-.187a3.37517,3.37517,0,0,1,.35495.30283V4.58021a.47821.47821,0,0,0,.14322.25881l-.00157-.14265a.16073.16073,0,0,1-.01018-.05494l-.04732-.08207-.0197-.11385a.16118.16118,0,0,0-.05518-.02416l-.00654-.13305-.13826-.13007c-.01191-.01522-.03715-.03673-.03351-.04468.023-.05.06752-.03442.108-.02747.182.02847.18343.18137.21562.31309l.04881.09565.06289.20255a.10257.10257,0,0,1,.01861.05791l.05833.145a.11778.11778,0,0,1,.01134.05362l.04137.08307c-.01977.06189.16821.17375-.04551.189a.10692.10692,0,0,1-.07314-.12312.10127.10127,0,0,1-.01216-.05064.17143.17143,0,0,0-.05163-.00926l-.00174.66026c.2517.04964.32815-.15588.43207-.30779.06263-.09135.11931-.137.1759-.13735V3.2792A1.54466,1.54466,0,0,1,18.17009,3.06276Z"/><path class="g" d="M19.11209,5.39536c.10392.15224.18045.35743.43207.30779a1.4873,1.4873,0,0,1,.349-1.25367c.43356-.44547.71818-.38656.91519.1999.04277.12708.06942.2598.1035.38987.41867-.29853.74938-.69436,1.13892-1.02532l.07562.00331c-.16837.48817-.323.98163-.51075,1.46185-.09581.24524-.05089.35347.203.43124.31036.09466.60731.23366.91006.35347h.00008c.023.03375.04816.06255.09284.03408L22.798,6.25453a5.039,5.039,0,0,0-.21562-.56627.69436.69436,0,0,1,.01291-.7258,5.675,5.675,0,0,0,.53193-1.87058.29339.29339,0,0,0-.08638-.31044c-.09871-.06718-.19038.02549-.27635.06851a6.172,6.172,0,0,0-1.11955.75326c-.17773.14463-.26733.11948-.41031-.03044a2.65479,2.65479,0,0,0-1.35875-.83932.2976.2976,0,0,1-.17384.32931,1.54828,1.54828,0,0,1-.76642.21644V5.258C18.99245,5.258,19.04921,5.30335,19.11209,5.39536Zm3.05707-1.45688h.00008l-.02135.03938Zm-2.76575.88664.07943-.19693.05453-.0834a.1121.1121,0,0,1,.01134-.05063q.09879-.205.19766-.40973c.068-.07281.1601-.11352.23018-.03773.03988.043-.0407.08638-.0954.10293l-.06387.07248q-.09394.17772-.18782.35578l-.02863.11881-.04972.07778a.15109.15109,0,0,1-.01084.0556l-.05478.07612a.2207.2207,0,0,1-.01489.05626c-.01473.092-.04013.26576-.12163.21149C19.21262,5.08359,19.35377,4.94128,19.40341,4.82512Z"/><path class="aa" d="M19.74637,4.08443q-.09891.205-.19766.40973a.1121.1121,0,0,0-.01134.05063l-.05453.0834-.07943.19726c-.04964.11583-.19079.25814-.05444.3485.0815.05427.1069-.11948.12163-.21149a.2207.2207,0,0,0,.01489-.05626l.05478-.07612a.15109.15109,0,0,0,.01084-.0556l.0498-.07778.02847-.11881q.09406-.17823.1879-.35578l.064-.07248c.05461-.01655.13519-.05991.09531-.10293C19.90647,3.97091,19.81438,4.01162,19.74637,4.08443Z"/><path class="h" d="M8.56659,7.7431a.53917.53917,0,0,1,.31761-.51355c.21389-.09563.323.08978.42119.23938a3.2297,3.2297,0,0,0,.62374.55119c.03171.02889.09288.0481.067.09777-.012.023-.07963.03315-.11648.02475A4.10951,4.10951,0,0,0,8.78658,8.013C8.60882,8.02057,8.561,7.89867,8.56659,7.7431Z"/><path class="h" d="M13.32176,4.97434c-.11784.08537-.19527.27964-.39026.16564a.41279.41279,0,0,1-.23281-.416c.01334-.14938.07927-.2579.22851-.22022.20618.05205.3714-.07262.55918-.08206.083-.00417.18521-.1234.23654-.02187.03874.07664-.09879.13248-.15073.2031-.08969.122-.269.18386-.25241.377Z"/><path class="o" d="M20.10952,5.02468c-.09788-.07248-.19411-.09763-.28546.008l.17268.01191.08307.137a.25366.25366,0,0,1-.12642.19725c-.067-.02879-.134-.05726-.20106-.086l-.0053-.18368c-.10226.08936-.08381.18368-.00844.28a.1722.1722,0,0,0,.15133.10558c.04394-.00067.08779-.00133.13164-.00166l.08084-.04567a.22514.22514,0,0,0,.06512-.35313Z"/><path class="o" d="M19.74678,5.10114l.00025.00794.0029-.0053a.06361.06361,0,0,1,.06851-.06817l.00562-.003L19.81587,5.032Z"/><path class="n" d="M18.12476,5.10908l-.0053.18368q-.10053.04269-.201.086a.25408.25408,0,0,1-.12651-.19725h.00008l.083-.137h.00008l.1726-.01191c-.09135-.10558-.18758-.08043-.28554-.008l-.05775.0695a.2254.2254,0,0,0,.065.35347c.02689.01489.0537.03012.08051.04534l.13205.00132a.17106.17106,0,0,0,.15117-.10524C18.20874,5.29276,18.22694,5.19844,18.12476,5.10908Z"/><path class="n" d="M18.12194,5.10378l.00282.0053.00024-.00795L18.05592,5.032l-.00819.00067.00562.003A.06372.06372,0,0,1,18.12194,5.10378Z"/><path class="h" d="M7.41152,10.71123a.79462.79462,0,0,0-.13768.07579.193.193,0,0,0-.20412.06718.1968.1968,0,0,0-.20586.06983l-.25963.08142-.20636.12742c-.04468-.00033-.08936-.00066-.134-.00066l.00033.00033c-.19047.052-.45383-.00265-.47385.30547a.5721.5721,0,0,0,.36637.58514c.25715.11683.29877-.14562.41626-.27205a.51762.51762,0,0,1,.10971-.07016l.52888-.54609.06222-.07148.00149-.002c.08133-.06983.16721-.135.24193-.21148.035-.03541.08017-.11021.06561-.136C7.54092,10.63908,7.468,10.693,7.41152,10.71123Z"/><path class="ae" d="M18.51181,5.03693l-.04145-.08307a.11571.11571,0,0,0-.01134-.05362l-.03251-.00165.0326.00165-.05842-.145a.10192.10192,0,0,0-.01853-.05792l-.06288-.20254-.0489-.09565c-.03211-.13172-.03351-.28463-.21554-.31309-.04046-.00695-.085-.0225-.108.02747-.00365.00794.02159.02946.0335.04468l.13826.13007.00654.133a.16161.16161,0,0,1,.05519.02416l.01977.11385.0556.002-.05568-.002.04733.08208a.16048.16048,0,0,0,.01017.05494l.00158.14264.07024.20388a.17137.17137,0,0,1,.05163.00926.1014.1014,0,0,0,.01216.05064c.00692.043.00025.09829.07315.12312C18.68,5.21068,18.492,5.09882,18.51181,5.03693Z"/><path class="af" d="M19.816,5.032l-.06918.06917.00555.19162c.067.02879.134.05726.20106.086a.25366.25366,0,0,0,.12642-.19725l-.083-.137C19.93659,5.04057,19.87627,5.03627,19.816,5.032Z"/><path class="ag" d="M18.05591,5.03207l.06909.0692-.00552.19153-.201.08591A.2534.2534,0,0,1,17.792,5.1816l.083-.137Z"/></svg>