<svg xmlns="http://www.w3.org/2000/svg" viewBox="0 0 32 32"><title>643-reshiram-shiny</title><path d="M24.06039,30.21147a.55233.55233,0,0,0-.391-.12064c-.26162.00954-.32629.18657-.344.40372a1.032,1.032,0,0,1,.70243.26877,2.89918,2.89918,0,0,1,1.07691,1.11324l.116.11194h.05744a1.0881,1.0881,0,0,0-.107-.57738A5.47,5.47,0,0,0,24.06039,30.21147Z" style="fill:#abb2b1"/><path d="M30.91236,22.85506l.05345-.0014v-.51678l-.05352-.00113Q30.91229,22.595,30.91236,22.85506Z" style="fill:#f4f4f4"/><path d="M21.08434-.0115c.00021.01767-.00014.03535-.001.05274h.28925c-.00084-.01767-.00119-.03507-.001-.05274Z" style="fill:#f6f7f7"/><path d="M16.50444,7.5037c.032-.23146.104-.457.15816-.68539.07449-.29907.15143-.59758.22185-.8975.01767-.07518.02616-.13607.11839-.06817a2.72435,2.72435,0,0,1,.28722-1.384c.34417-.98138.85323-1.18927,1.77485-.72355a4.27885,4.27885,0,0,0,.787.342,1.20656,1.20656,0,0,0,1.3717-.5165,3.47592,3.47592,0,0,0,.231-.52155.51867.51867,0,0,1,.8087-.28757,1.7958,1.7958,0,0,1,.56679.47133,9.20933,9.20933,0,0,1,.68441,1.157,1.48192,1.48192,0,0,0,1.47312.886,1.04609,1.04609,0,0,0,1.08708-.96735,4.86357,4.86357,0,0,0,.00743-.54484c.00281-.68679.09862-.78443.77047-.78386.305,0,.42911-.12008.43809-.43234.00442-.1529-.01312-.30721.00133-.459.0181-.18937.0801-.3549.31268-.381.06067-.007.14764.07407.17219-.00869.02216-.07463-.07147-.12906-.13165-.17058a.30214.30214,0,0,0-.46677.15066,2.66976,2.66976,0,0,0-.11279.41325c-.08283.4054-.219.4646-.55584.23062-.06229-.04349-.11251-.10381-.17247-.15094a.64023.64023,0,0,0-.99078.2107c-.0768.15149-.11706.32123-.18454.47806-.04.09286-.06852.22136-.19772.21883-.12169-.00252-.11846-.129-.15353-.2135A4.32564,4.32564,0,0,0,21.37261.04124h-.28925a1.49771,1.49771,0,0,0-1.03062.49265,3.8026,3.8026,0,0,1-.42686.37931.33585.33585,0,0,1-.36353.06734A1.56844,1.56844,0,0,0,18.25222.97605c-.05211.01627-.11019.07014-.15823.02384-.05071-.04909.00946-.10324.02994-.15093A1.00394,1.00394,0,0,0,18.2114.34761C18.20193.25,18.17556.11362,18.095.108c-.10458-.00729-.09132.13579-.10991.21884-.07876.35181-.2067.65481-.613.73785a2.45414,2.45414,0,0,0-1.342.70812A.28432.28432,0,0,0,16,1.86007V7.96914A.4877.4877,0,0,0,16.50444,7.5037Z" style="fill:#edeeee"/><path d="M16.179,16.97324a2.25663,2.25663,0,0,1,.94077-.72439c.0667-.03451.17121-.12513.144.07295-.01831.133.08234.08641.15142.06621A6.26411,6.26411,0,0,0,18.826,15.9394c.16581-.09483.14905-.05359.14547.117a5.6458,5.6458,0,0,0,.07224,1.48161,1.42779,1.42779,0,0,1-.546,1.313,1.5905,1.5905,0,0,1-.2499.18994c-.31647.22809-.32229.23847.02918.42223a7.14978,7.14978,0,0,0,1.22693.61582c.36388.10857.32467.42447.36.67838.0679.489.09293.98418.12765,1.47739a3.53789,3.53789,0,0,1-1.07978,2.65152c-.14322.161-.35455.26681-.41536.49686a1.47756,1.47756,0,0,0,.44559.78471,2.60212,2.60212,0,0,1,.716.86327c.23939.39025.49441.771.73225,1.162.20852.34312.15872.52913-.19064.72523a4.47667,4.47667,0,0,1-.44313.19162c.33428.07379.3563.14505.17815.5771a4.04144,4.04144,0,0,0,.78506.10633.74693.74693,0,0,1,.831.535,2.05563,2.05563,0,0,0,1.12727.99232c.07336.03872.127,0,.18734-.02357-.11356-.16272-.23581-.3131-.10963-.5367a.52416.52416,0,0,1,.56981-.266c.01781-.21715.08248-.39418.3441-.40372a1.29731,1.29731,0,0,1,.51481-.1125,6.79282,6.79282,0,0,0-1.822-1.31636c-.07989-.03788-.16322-.08613-.17753-.17507a2.22341,2.22341,0,0,1-.05155-1.2047,2.91665,2.91665,0,0,1,.68834-1.14326.70389.70389,0,0,0,.22-.45365c.0613-.51875.11-1.04.19968-1.554a1.13628,1.13628,0,0,0-.3347-1.09192c-.41073-.40007-.80617-.81557-1.21382-1.21872a3.10992,3.10992,0,0,1-1.01-2.39986.77385.77385,0,0,0-.23342-.56588q-.14477-.1574-.29038-.31422a2.38009,2.38009,0,0,1-.26154-.10465c-.18608-.10072-.32622-.087-.40379.133a.7895.7895,0,0,1-.04973.09764.72587.72587,0,0,1-.04313-.09932,7.84782,7.84782,0,0,1-.24437-1.47908c-.01038-.13972.071-.17675.17682-.0909.36662.29823.77826.537,1.124.86186.12261-.00056.17984.09932.254.16946a13.98252,13.98252,0,0,1,1.24686,1.45383,2.02069,2.02069,0,0,0,1.04275.88543c1.01609.25586,2.0209.55662,3.039.8035a1.10466,1.10466,0,0,1,.84341.68456,1.46188,1.46188,0,0,0,.27859.49714c.053.05358.11328.1313.19317.07855.07778-.05162.00259-.1212-.021-.17675a2.383,2.383,0,0,1-.15683-.69325c-.00343-.03226-.01809-.08248.033-.092.01859-.00364.049.02245.06481.04209a7.53475,7.53475,0,0,1,.87757,1.05292,3.197,3.197,0,0,1,.40379,1.47459c.00245.1111-.01228.26793.12583.27719.12057.00813.17682-.14.19877-.25082a4.99559,4.99559,0,0,0,.07252-.5656,5.67548,5.67548,0,0,0-.11629-1.39211.09188.09188,0,0,1-.04355-.11334c.00189-.00561.01108-.009.0169-.01347l.02953.06762a1.4442,1.4442,0,0,1,.30791.51089,4.83812,4.83812,0,0,1,.38394,1.80452c.00077.10577-.05282.27326.09153.29318.12632.01739.149-.15375.18341-.25362a3.40285,3.40285,0,0,0,.18061-.97942,7.80575,7.80575,0,0,0-.3305-2.33785c-.014-.05163-.02714-.14954-.01346-.15487.06207-.02385.09335.04489.13768.07743a2.60368,2.60368,0,0,1,.94981,1.88336c.01824.12737-.02889.27046.09034.37314a.7078.7078,0,0,0,.091-.41045l-.00014-.51931a2.40621,2.40621,0,0,0-.3791-1.21227c-.92744-1.3851-1.91457-2.67677-3.77121-2.84819-.91671-.08444-1.82766-.23482-2.73975-.36556-.43359-.062-.8963-.041-1.20841-.45955a3.22309,3.22309,0,0,0-.47652-.40652c-.38352-.34143-.76283-.68764-1.14382-1.03216-.42427-.2957-.75953-.69212-1.15554-1.02065a1.03293,1.03293,0,0,0-.62682-.303c-.16048-.007-.28554-.03535-.24514-.29486.06144-.39474.13039-.78724.22143-1.17524a.27612.27612,0,0,0-.031-.24184,9.30073,9.30073,0,0,0-1.33684-.48143c-.13747-.03058-.3051-.3925-.26169-.52043.03619-.10689.11384-.04236.1663-.03619a6.13242,6.13242,0,0,1,1.66586.46123q.07185-.14644.14378-.29346c.12373.07911.05794.22192.10921.3246a1.21191,1.21191,0,0,0,.094.13831.507.507,0,0,1,.05435.00646c.152-.32292.30167-.647.457-.9682.06964-.1442.15051-.2828.22619-.42391a4.989,4.989,0,0,0-1.28879-.64556c-.08389-.02637-.19646-.03086-.21035-.15767-.10472.10661-.2161.01964-.31548-.002a8.59531,8.59531,0,0,0-.935-.16385c.06228.43121-.006.54316-.43465.691A4.441,4.441,0,0,1,16,11.12846v2.47168c.32692-.057.65523-.108.9804-.17422a3.642,3.642,0,0,0,1.11723-.42729c.197-.11531.2854-.04853.3561.149.18635.51958.14743.63545-.36241.85933a4.89547,4.89547,0,0,1-1.46653.33947A2.4608,2.4608,0,0,1,16,14.40421v2.69472A.25452.25452,0,0,0,16.179,16.97324Z" style="fill:#dadddc"/><path d="M17.1199,7.92846a1.40307,1.40307,0,0,1,.10563-.32488c.06355-.11924.05457-.35462.21708-.32825a.55715.55715,0,0,1,.48508.29935c.317.12064.3025-.00337.17983-.23258-.07154-.13354-.00561-.18432.138-.17478.20916.0143.41915.01486.62873.02328.03219.0014.075.04545.09062-.00533.00708-.023-.02988-.06565-.055-.09118a1.932,1.932,0,0,0-.71892-.55353c-.04517-.01571-.103-.02161-.11166-.07519-.01179-.07294.05716-.08838.10584-.11306a3.96051,3.96051,0,0,1,.78576-.34452c.04089-.01039.074-.05135.11075-.078-.03486-.01431-.06916-.03058-.10465-.04292a5.02978,5.02978,0,0,0-.86789-.15347c-.06776-.01094-.14344.0881-.187.00085-.01116-.02245.0883-.11251.1482-.15571.40933-.29543.82167-.58664,1.233-.879a.121.121,0,0,0-.11544-.05835,4.95155,4.95155,0,0,0-1.68368.58692c-.11832.07406-.15353.07294-.15781-.08024-.00631-.22669-.03633-.45282-.05632-.67922a2.72435,2.72435,0,0,0-.28722,1.384c.02693.15823.05141.317.08122.4747.07259.38323-.0122.48339-.42146.491-.05415.22837-.12618.45393-.15816.68539A.4877.4877,0,0,1,16,7.96914v.86579A1.00451,1.00451,0,0,0,17.1199,7.92846Z" style="fill:#e3e5e5"/><path d="M17.46526,9.51976c.06544-.3751.12478-.751.20018-1.1239a.42615.42615,0,0,1,.14175-.30328,1.64977,1.64977,0,0,1,.1205-.5179.55715.55715,0,0,0-.48508-.29935c-.16251-.02637-.15353.209-.21708.32825a1.40307,1.40307,0,0,0-.10563.32488A1.00451,1.00451,0,0,1,16,8.83493v1.55174a3.49207,3.49207,0,0,0,1.46547-.40652Z" style="fill:#dadddc"/><path d="M17.80719,8.09258a.42615.42615,0,0,0-.14175.30328c-.0754.37286-.13474.7488-.20018,1.1239l.34046.29458c.14076.103.11713.255.11909.39951a8.59531,8.59531,0,0,1,.935.16385c.09938.0216.21076.10857.31548.002.02076-.05274.04208-.10549.06214-.15879.21238-.56364.18959-.69129-.25453-1.09725C18.59821,8.77208,18.19961,8.4357,17.80719,8.09258Z" style="fill:#ffd96c"/><path d="M16.12506,28.0397c.05471-.2208.09279-.44608.13586-.67.00925-.048.02034-.10241.07441-.10353.02322-.00084.05162.04882.07112.08a.94821.94821,0,0,0,.368.425c.02553.01178.05976.0418.07379.034.0439-.02413.01045-.06145.002-.09511-.05772-.23062-.12513-.45927-.16819-.69241-.06706-.36332-.0639-.7878.2626-.96426a10.67985,10.67985,0,0,0,1.41686-.732c.0733-.05471.087.04657.13474.06172.06081-.23005.27214-.33582.41536-.49686a3.53789,3.53789,0,0,0,1.07978-2.65152c-.03472-.49321-.05975-.98839-.12765-1.47739-.03528-.25391.00393-.56981-.36-.67838a7.14978,7.14978,0,0,1-1.22693-.61582c-.35147-.18376-.34565-.19414-.02918-.42223a1.5905,1.5905,0,0,0,.2499-.18994,1.42779,1.42779,0,0,0,.546-1.313,5.6458,5.6458,0,0,1-.07224-1.48161c.00358-.17058.02034-.21182-.14547-.117a6.26411,6.26411,0,0,1-1.41077.44861c-.06908.0202-.16973.06677-.15142-.06621.02721-.19808-.0773-.10746-.144-.07295a2.25663,2.25663,0,0,0-.94077.72439.25452.25452,0,0,1-.179.12569V28.18362c.00765.00814.00393.02469.01978.02637C16.1151,28.22038,16.10977,28.1017,16.12506,28.0397Z" style="fill:#edeeee"/><path d="M24.02784,30.76332a1.032,1.032,0,0,0-.7025-.26877.52416.52416,0,0,0-.56981.266c-.12618.2236-.00393.374.10963.5367a.88748.88748,0,0,0,.21736.13242,14.91605,14.91605,0,0,0,2.02223.44693A2.89918,2.89918,0,0,0,24.02784,30.76332Z" style="fill:#b9bfbe"/><path d="M19.75634,29.11a.90094.90094,0,0,0-.67817.67726c-.01487.12344-.00281.21939.16027.13158a2.87215,2.87215,0,0,1,.696-.23174C20.11264,29.25506,20.09062,29.1838,19.75634,29.11Z" style="fill:#9da5a4"/><path d="M19.15637,17.08827a7.84782,7.84782,0,0,0,.24437,1.47908.72587.72587,0,0,0,.04313.09932.7895.7895,0,0,0,.04973-.09764c.07757-.22.21771-.2337.40379-.133a2.38009,2.38009,0,0,0,.26154.10465q.14908-.34088.29823-.68147c-.34571-.32488-.75735-.56363-1.124-.86186C19.22742,16.91152,19.146,16.94855,19.15637,17.08827Z" style="fill:#c8cccb"/><path d="M24.18425,29.97833a1.29731,1.29731,0,0,0-.51481.1125.55233.55233,0,0,1,.391.12064,5.468,5.468,0,0,1,1.11071,1.19965A2.06123,2.06123,0,0,0,24.18425,29.97833Z" style="fill:#9da5a4"/><path d="M28.79362,21.9946a.09188.09188,0,0,0,.04355.11334l.00288-.05919-.02953-.06762C28.8047,21.98562,28.79551,21.989,28.79362,21.9946Z" style="fill:#e1e2e2"/><path d="M17.00284,5.85264c-.09223-.0679-.10072-.007-.11839.06817-.07042.29992-.14736.59843-.22185.8975.40926-.00758.494-.10774.42146-.491C17.05425,6.16967,17.02977,6.01087,17.00284,5.85264Z" style="fill:#993147"/><path d="M18.09132,14.00694c.50984-.22388.54876-.33975.36241-.85933-.0707-.19751-.15915-.26429-.3561-.149a3.642,3.642,0,0,1-1.11723.42729c-.32517.06621-.65348.11727-.9804.17422v.80407a2.4608,2.4608,0,0,0,.62479-.0578A4.89547,4.89547,0,0,0,18.09132,14.00694Z" style="fill:#ffe28a"/><path d="M17.92481,10.21385c-.002-.14448.02167-.29654-.11909-.39951q-.17013.08291-.34025.16609A3.49584,3.49584,0,0,1,16,10.38667v.74179a4.441,4.441,0,0,0,1.49016-.2236C17.91885,10.757,17.98709,10.64506,17.92481,10.21385Z" style="fill:#ffe28a"/><path d="M17.75781,11.97405c-.04341.12793.12422.48985.26169.52043a9.30463,9.30463,0,0,1,1.33691.48143c.20957-.13888.17373-.37707.23356-.57682a6.13242,6.13242,0,0,0-1.66586-.46123C17.87165,11.93169,17.794,11.86716,17.75781,11.97405Z" style="fill:#ffd96c"/><path d="M21.90552,12.59267c-.14434-.05948-.29984.17507-.422.31843-.06944-.04068-.04559-.11391-.06025-.17366.03563-.44468.081-.8888.10409-1.33432a8.65576,8.65576,0,0,0-.00912-1.33964c-.0054-.05275-.02637-.1386-.05667-.14673-.06355-.01684-.08129.0634-.10886.11q-.34035.57738-.67817,1.15617c-.07575.14111-.15662.27971-.22626.42391-.15529.32124-.305.64528-.457.9682a.507.507,0,0,0-.05435-.00646,1.21191,1.21191,0,0,1-.094-.13831c-.05127-.10268.01452-.24549-.10921-.3246q-.07185.14687-.14378.29346c-.05983.19975-.024.43794-.23356.57682a.27634.27634,0,0,1,.03093.24184c-.091.388-.16.7805-.22143,1.17524-.0404.25951.08466.28784.24514.29486a1.03293,1.03293,0,0,1,.62682.303c.396.32853.73127.72495,1.15561,1.02065a13.32023,13.32023,0,0,0,.72881-2.89083C21.94305,12.93579,22.02188,12.64093,21.90552,12.59267Z" style="fill:#c8cccb"/><path d="M17.46547,9.98043q.17013-.08291.34025-.16609l-.34046-.29458Z" style="fill:#fbfbfb"/><path d="M7.93961,30.23447a.55237.55237,0,0,1,.391-.12064c.26162.00954.32629.18657.344.40372a1.032,1.032,0,0,0-.70243.26877,2.89918,2.89918,0,0,0-1.07691,1.11324l-.116.11194H6.7218a1.08814,1.08814,0,0,1,.107-.57738A5.47,5.47,0,0,1,7.93961,30.23447Z" style="fill:#b9bfbe"/><path d="M1.08764,22.87806l-.05345-.0014v-.51678l.05352-.00112Q1.08771,22.618,1.08764,22.87806Z" style="fill:#f4f4f4"/><path d="M10.91566.0115c-.00021.01768.00014.03535.001.05275h-.28925c.00084-.01768.00119-.03507.001-.05275Z" style="fill:#f6f7f7"/><path d="M15.49556,7.52671c-.032-.23146-.104-.457-.15816-.6854-.07449-.29907-.15143-.59758-.22185-.89749-.01767-.07519-.02616-.13607-.11839-.06818a2.72439,2.72439,0,0,0-.28722-1.384c-.34417-.98138-.85323-1.18927-1.77485-.72355a4.27821,4.27821,0,0,1-.787.342,1.20659,1.20659,0,0,1-1.3717-.5165,3.47637,3.47637,0,0,1-.231-.52155.51866.51866,0,0,0-.8087-.28757A1.79554,1.79554,0,0,0,9.17,3.25583a9.20933,9.20933,0,0,0-.68441,1.157,1.48194,1.48194,0,0,1-1.47312.886,1.0461,1.0461,0,0,1-1.08708-.96736,4.86336,4.86336,0,0,1-.00743-.54483c-.00281-.6868-.09862-.78443-.77047-.78387-.305,0-.42911-.12008-.43809-.43233-.00442-.15291.01312-.30721-.00133-.459-.0181-.18937-.0801-.3549-.31268-.381-.06067-.007-.14764.07406-.17219-.0087-.02216-.07463.07147-.129.13165-.17058a.30215.30215,0,0,1,.46677.15066,2.66958,2.66958,0,0,1,.11279.41326c.08283.4054.219.46459.55584.23061.06229-.04348.11251-.1038.17247-.15094a.64023.64023,0,0,1,.99078.2107c.0768.1515.11706.32124.18454.47806.04.09287.06852.22136.19772.21884.12169-.00253.11846-.12906.15353-.2135A4.32564,4.32564,0,0,1,10.62739.06425h.28925A1.49766,1.49766,0,0,1,11.94726.5569a3.80359,3.80359,0,0,0,.42686.37931.33587.33587,0,0,0,.36353.06733A1.56851,1.56851,0,0,1,13.74778.99905c.05211.01628.11019.07014.15823.02385.05071-.0491-.00946-.10324-.02994-.15094A1.00392,1.00392,0,0,1,13.7886.37061c.00947-.09763.03584-.234.11636-.23959.10458-.0073.09132.13579.10991.21883.07876.35182.2067.65481.613.73786a2.45414,2.45414,0,0,1,1.342.70812A.28414.28414,0,0,1,16,1.88308V7.99214A.48769.48769,0,0,1,15.49556,7.52671Z" style="fill:#f7f7f7"/><path d="M15.821,16.99625a2.25655,2.25655,0,0,0-.94077-.72439c-.0667-.03451-.17121-.12513-.144.07294.01831.133-.08234.08641-.15142.06621a6.26409,6.26409,0,0,1-1.41077-.4486c-.16581-.09483-.149-.05359-.14547.117a5.64575,5.64575,0,0,1-.07224,1.4816,1.42781,1.42781,0,0,0,.546,1.313,1.59045,1.59045,0,0,0,.2499.18993c.31647.22809.32229.23847-.02918.42224a7.14973,7.14973,0,0,1-1.22693.61581c-.36388.10858-.32467.42448-.35995.67838-.0679.489-.09293.98418-.12765,1.4774a3.53791,3.53791,0,0,0,1.07978,2.65152c.14322.161.35455.2668.41536.49686a1.47764,1.47764,0,0,1-.44559.78471,2.60219,2.60219,0,0,0-.716.86326c-.23939.39025-.49441.771-.73225,1.16206-.20852.34311-.15872.52912.19064.72523a4.4814,4.4814,0,0,0,.44313.19162c-.33428.07378-.3563.145-.17815.5771a4.04221,4.04221,0,0,1-.78506.10633.74692.74692,0,0,0-.831.535,2.05555,2.05555,0,0,1-1.12727.99232c-.07336.03872-.127,0-.18734-.02356.11356-.16272.23581-.3131.10963-.5367a.52417.52417,0,0,0-.56981-.266c-.01781-.21715-.08248-.39418-.3441-.40372a1.29765,1.29765,0,0,0-.51481-.1125,6.79325,6.79325,0,0,1,1.822-1.31636c.07989-.03787.16322-.08613.17753-.17506a2.22341,2.22341,0,0,0,.05155-1.2047A2.91658,2.91658,0,0,0,9.17847,26.162a.70389.70389,0,0,1-.22-.45366c-.0613-.51874-.11-1.04-.19968-1.554a1.13626,1.13626,0,0,1,.3347-1.09191c.41073-.40007.80617-.81557,1.21382-1.21873a3.10989,3.10989,0,0,0,1.01-2.39986.77389.77389,0,0,1,.23342-.56588q.14476-.15738.29038-.31422a2.38,2.38,0,0,0,.26154-.10464c.18608-.10072.32622-.087.40379.133a.78868.78868,0,0,0,.04973.09763.72575.72575,0,0,0,.04313-.09931,7.84792,7.84792,0,0,0,.24437-1.47909c.01038-.13971-.071-.17674-.17682-.09089-.36662.29822-.77826.537-1.124.86186-.12261-.00056-.17984.09931-.254.16945a13.98355,13.98355,0,0,0-1.24686,1.45383,2.02064,2.02064,0,0,1-1.04275.88543c-1.01609.25587-2.0209.55662-3.039.80351a1.10467,1.10467,0,0,0-.84341.68455,1.46169,1.46169,0,0,1-.27859.49714c-.053.05359-.11328.1313-.19317.07856-.07778-.05162-.00259-.1212.021-.17675a2.38306,2.38306,0,0,0,.15683-.69325c.00343-.03226.01809-.08248-.033-.092-.01859-.00365-.049.02244-.06481.04208a7.53591,7.53591,0,0,0-.87757,1.05292,3.197,3.197,0,0,0-.40379,1.47459c-.00245.1111.01228.26793-.12583.27719-.12057.00814-.17682-.14-.19877-.25081a4.99588,4.99588,0,0,1-.07252-.5656A5.67548,5.67548,0,0,1,3.16283,22.131a.09189.09189,0,0,0,.04355-.11335c-.00189-.00561-.01108-.009-.0169-.01346l-.02953.06761a1.44428,1.44428,0,0,0-.30791.51089,4.83812,4.83812,0,0,0-.38394,1.80452c-.00077.10577.05282.27326-.09153.29318-.12632.0174-.149-.15374-.18341-.25362a3.40272,3.40272,0,0,1-.18061-.97941,7.80581,7.80581,0,0,1,.3305-2.33786c.014-.05162.02714-.14953.01346-.15486-.06207-.02385-.09335.04488-.13768.07743A2.60368,2.60368,0,0,0,1.269,22.91538c-.01824.12737.02889.27045-.09034.37313a.70777.70777,0,0,1-.091-.41045l.00014-.5193a2.40627,2.40627,0,0,1,.3791-1.21228c.92744-1.38509,1.91457-2.67676,3.77121-2.84818.91671-.08445,1.82766-.23482,2.73975-.36556.43359-.062.8963-.041,1.20841-.45955a3.22249,3.22249,0,0,1,.47652-.40652c.38352-.34144.76283-.68764,1.14382-1.03216.42427-.29571.75953-.69213,1.15554-1.02066a1.033,1.033,0,0,1,.62682-.303c.16048-.007.28554-.03535.24514-.29486-.06144-.39474-.13039-.78723-.22143-1.17524a.27612.27612,0,0,1,.031-.24184,9.30194,9.30194,0,0,1,1.33684-.48143c.13747-.03058.3051-.39249.26169-.52043-.03619-.10689-.11384-.04236-.1663-.03619a6.13314,6.13314,0,0,0-1.66586.46123q-.07185-.14644-.14378-.29346c-.12373.07912-.05794.22192-.10921.32461a1.21279,1.21279,0,0,1-.094.13831.50441.50441,0,0,0-.05435.00645c-.152-.32292-.30167-.647-.457-.96819-.06964-.14421-.15051-.2828-.22619-.42392a4.98894,4.98894,0,0,1,1.28879-.64555c.08389-.02638.19646-.03086.21035-.15767.10472.10661.2161.01963.31548-.002a8.59528,8.59528,0,0,1,.935-.16384c-.06228.43121.006.54315.43465.691A4.441,4.441,0,0,0,16,11.15146v2.47169c-.32692-.057-.65523-.108-.9804-.17423a3.64194,3.64194,0,0,1-1.11723-.42728c-.19695-.11531-.2854-.04854-.3561.149-.18635.51959-.14743.63546.36241.85934a4.89608,4.89608,0,0,0,1.46653.33947A2.46079,2.46079,0,0,0,16,14.42721v2.69473A.25454.25454,0,0,1,15.821,16.99625Z" style="fill:#e3e5e5"/><path d="M14.8801,7.95146a1.40338,1.40338,0,0,0-.10563-.32488c-.06355-.11923-.05457-.35462-.21708-.32825a.55716.55716,0,0,0-.48508.29936c-.317.12063-.3025-.00337-.17983-.23258.07154-.13355.00561-.18433-.138-.17479-.20916.01431-.41915.01487-.62873.02329-.03219.0014-.075.04545-.09062-.00533-.00708-.023.02988-.06565.055-.09118a1.932,1.932,0,0,1,.71892-.55354c.04517-.01571.103-.0216.11166-.07519.01179-.07294-.05716-.08837-.10584-.11306a3.96109,3.96109,0,0,0-.78576-.34452c-.04089-.01038-.074-.05134-.11075-.078.03486-.01431.06916-.03058.10465-.04293a5.02976,5.02976,0,0,1,.86789-.15346c.06776-.01094.14344.08809.187.00084.01116-.02244-.0883-.1125-.1482-.15571-.40933-.29542-.82167-.58664-1.233-.879a.121.121,0,0,1,.11544-.05836,4.95176,4.95176,0,0,1,1.68368.58692c.11832.07407.15353.073.15781-.08024.00631-.22669.03633-.45281.05632-.67922a2.72439,2.72439,0,0,1,.28722,1.384c-.02693.15824-.05141.317-.08122.4747-.07259.38324.0122.4834.42146.491.05415.22837.12618.45394.15816.6854A.48769.48769,0,0,0,16,7.99214v.86579A1.0045,1.0045,0,0,1,14.8801,7.95146Z" style="fill:#edeeee"/><path d="M14.53474,9.54277c-.06544-.3751-.12478-.75105-.20018-1.1239a.42613.42613,0,0,0-.14175-.30328,1.64977,1.64977,0,0,0-.1205-.5179.55716.55716,0,0,1,.48508-.29936c.16251-.02637.15353.209.21708.32825a1.40338,1.40338,0,0,1,.10563.32488A1.0045,1.0045,0,0,0,16,8.85793v1.55175a3.49221,3.49221,0,0,1-1.46547-.40652Z" style="fill:#e3e5e5"/><path d="M14.19281,8.11559a.42613.42613,0,0,1,.14175.30328c.0754.37285.13474.7488.20018,1.1239l-.34046.29458c-.14076.103-.11713.255-.11909.39951a8.59528,8.59528,0,0,0-.935.16384c-.09938.0216-.21076.10858-.31548.002-.02076-.05275-.04208-.10549-.06214-.1588-.21238-.56363-.18959-.69128.25453-1.09725C13.40179,8.79509,13.80039,8.45871,14.19281,8.11559Z" style="fill:#ffe28a"/><path d="M15.87494,28.0627c-.05471-.22079-.09279-.44608-.13586-.67-.00925-.048-.02034-.1024-.07441-.10352-.02322-.00085-.05162.04881-.07112.08a.94821.94821,0,0,1-.368.425c-.02553.01179-.05976.04181-.07379.034-.0439-.02413-.01045-.06144-.002-.09511.05772-.23061.12513-.45926.16819-.6924.06706-.36332.0639-.7878-.2626-.96427a10.67979,10.67979,0,0,1-1.41686-.732c-.0733-.05471-.087.04657-.13474.06172-.06081-.23006-.27214-.33583-.41536-.49686a3.53791,3.53791,0,0,1-1.07978-2.65152c.03472-.49322.05975-.98839.12765-1.4774.03528-.2539-.00393-.5698.35995-.67838a7.14973,7.14973,0,0,0,1.22693-.61581c.35147-.18377.34565-.19415.02918-.42224a1.59045,1.59045,0,0,1-.2499-.18993,1.42781,1.42781,0,0,1-.546-1.313,5.64575,5.64575,0,0,0,.07224-1.4816c-.00358-.17058-.02034-.21182.14547-.117a6.26409,6.26409,0,0,0,1.41077.4486c.06908.0202.16973.06677.15142-.06621-.02721-.19807.0773-.10745.144-.07294a2.25655,2.25655,0,0,1,.94077.72439.25454.25454,0,0,0,.179.12569V28.20663c-.00765.00813-.00393.02469-.01978.02637C15.8849,28.24338,15.89023,28.12471,15.87494,28.0627Z" style="fill:#f7f7f7"/><path d="M7.97216,30.78632a1.03207,1.03207,0,0,1,.7025-.26877.52417.52417,0,0,1,.56981.266c.12618.2236.00393.374-.10963.5367a.88748.88748,0,0,1-.21736.13242,14.91754,14.91754,0,0,1-2.02223.44692A2.89918,2.89918,0,0,1,7.97216,30.78632Z" style="fill:#c8cccb"/><path d="M12.24366,29.133a.90093.90093,0,0,1,.67817.67726c.01487.12344.00281.21939-.16027.13158a2.87129,2.87129,0,0,0-.696-.23174C11.88736,29.27806,11.90938,29.2068,12.24366,29.133Z" style="fill:#9da5a4"/><path d="M12.84363,17.11127a7.84792,7.84792,0,0,1-.24437,1.47909.72575.72575,0,0,1-.04313.09931.78868.78868,0,0,1-.04973-.09763c-.07757-.22-.21771-.2337-.40379-.133a2.38,2.38,0,0,1-.26154.10464q-.14908-.34088-.29823-.68146c.34571-.32488.75735-.56364,1.124-.86186C12.77258,16.93453,12.854,16.97156,12.84363,17.11127Z" style="fill:#d1d4d4"/><path d="M7.81575,30.00133a1.29765,1.29765,0,0,1,.51481.1125.55237.55237,0,0,0-.391.12064A5.468,5.468,0,0,0,6.8289,31.43412,2.06125,2.06125,0,0,1,7.81575,30.00133Z" style="fill:#abb2b1"/><path d="M3.20638,22.0176a.09189.09189,0,0,1-.04355.11335l-.00288-.0592.02953-.06761C3.1953,22.00863,3.20449,22.012,3.20638,22.0176Z" style="fill:#e1e2e2"/><path d="M14.99716,5.87564c.09223-.06789.10072-.007.11839.06818.07042.29991.14736.59842.22185.89749-.40926-.00757-.49405-.10773-.42146-.491C14.94575,6.19267,14.97023,6.03388,14.99716,5.87564Z" style="fill:#a8364c"/><path d="M13.90868,14.03c-.50984-.22388-.54876-.33975-.36241-.85934.0707-.19751.15915-.26428.3561-.149a3.64194,3.64194,0,0,0,1.11723.42728c.32517.06621.65348.11727.9804.17423v.80406a2.46079,2.46079,0,0,1-.62479-.05779A4.89608,4.89608,0,0,1,13.90868,14.03Z" style="fill:#ffeaa7"/><path d="M14.07519,10.23686c.002-.14449-.02167-.29655.11909-.39951q.17013.08291.34025.16609A3.496,3.496,0,0,0,16,10.40968v.74178a4.441,4.441,0,0,1-1.49016-.2236C14.08115,10.78,14.01291,10.66807,14.07519,10.23686Z" style="fill:#ffeaa7"/><path d="M14.24219,11.99705c.04341.12794-.12422.48985-.26169.52043a9.30584,9.30584,0,0,0-1.33691.48143c-.20957-.13887-.17373-.37706-.23356-.57682a6.13314,6.13314,0,0,1,1.66586-.46123C14.12835,11.95469,14.206,11.89016,14.24219,11.99705Z" style="fill:#ffe28a"/><path d="M10.09448,12.61568c.14434-.05948.29984.17506.422.31842.06944-.04068.04559-.1139.06025-.17366-.03563-.44468-.081-.88879-.10409-1.33431a8.65589,8.65589,0,0,1,.00912-1.33965c.0054-.05274.02637-.13859.05667-.14673.06355-.01683.08129.06341.10886.11q.34035.57738.67817,1.15616c.07575.14112.15662.27971.22626.42392.15529.32123.305.64527.457.96819a.50441.50441,0,0,1,.05435-.00645,1.21279,1.21279,0,0,0,.094-.13831c.05127-.10269-.01452-.24549.10921-.32461q.07185.14688.14378.29346c.05983.19976.024.43795.23356.57682a.27634.27634,0,0,0-.03093.24184c.091.388.16.7805.22143,1.17524.0404.25951-.08466.28785-.24514.29486a1.033,1.033,0,0,0-.62682.303c-.396.32853-.73127.72495-1.15561,1.02066a13.32023,13.32023,0,0,1-.72881-2.89083C10.057,12.95879,9.97812,12.66393,10.09448,12.61568Z" style="fill:#d1d4d4"/><path d="M14.53453,10.00344q-.17013-.08291-.34025-.16609l.34046-.29458Z" style="fill:#fbfbfb"/></svg>