<svg xmlns="http://www.w3.org/2000/svg" viewBox="0 0 32 32"><title>643-reshiram</title><path d="M24.06039,30.223a.55237.55237,0,0,0-.391-.12064c-.26162.00954-.32629.18657-.344.40372a1.032,1.032,0,0,1,.70243.26877,2.89918,2.89918,0,0,1,1.07691,1.11324l.116.11194h.05744a1.08812,1.08812,0,0,0-.107-.57738A5.47,5.47,0,0,0,24.06039,30.223Z" style="fill:#abb2b1"/><path d="M30.91236,22.86656l.05345-.0014v-.51678l-.05352-.00112Q30.91229,22.60649,30.91236,22.86656Z" style="fill:#f4f4f4"/><path d="M21.08434,0c.00021.01767-.00014.03535-.001.05274h.28925C21.37177.03507,21.37142.01767,21.37163,0Z" style="fill:#f6f7f7"/><path d="M16.50444,7.5152c.032-.23145.104-.457.15816-.68539.07449-.29907.15143-.59758.22185-.89749.01767-.07519.02616-.13607.11839-.06818a2.72437,2.72437,0,0,1,.28722-1.384c.34417-.98138.85323-1.18927,1.77485-.72355a4.27885,4.27885,0,0,0,.787.342,1.20656,1.20656,0,0,0,1.3717-.5165,3.47592,3.47592,0,0,0,.231-.52155.51866.51866,0,0,1,.8087-.28756,1.79554,1.79554,0,0,1,.56679.47133,9.20922,9.20922,0,0,1,.68441,1.157,1.48191,1.48191,0,0,0,1.47312.886A1.04609,1.04609,0,0,0,26.07463,4.32a4.86339,4.86339,0,0,0,.00743-.54483c.00281-.6868.09862-.78443.77047-.78387.305,0,.42911-.12008.43809-.43234.00442-.1529-.01312-.3072.00133-.459.0181-.18938.0801-.3549.31268-.381.06067-.007.14764.07407.17219-.00869.02216-.07463-.07147-.12906-.13165-.17058a.30215.30215,0,0,0-.46677.15066,2.66976,2.66976,0,0,0-.11279.41325c-.08283.40541-.219.4646-.55584.23062-.06229-.04349-.11251-.1038-.17247-.15094a.64023.64023,0,0,0-.99078.2107c-.0768.1515-.11706.32123-.18454.47806-.04.09287-.06852.22136-.19772.21883-.12169-.00252-.11846-.12905-.15353-.2135A4.32566,4.32566,0,0,0,21.37261.05274h-.28925A1.49768,1.49768,0,0,0,20.05274.5454a3.80458,3.80458,0,0,1-.42686.37931A.33587.33587,0,0,1,19.26235.992,1.56851,1.56851,0,0,0,18.25222.98755c-.05211.01627-.11019.07014-.15823.02385-.05071-.0491.00946-.10325.02994-.15094A1.00392,1.00392,0,0,0,18.2114.35911c-.00947-.09763-.03584-.234-.11636-.23959-.10458-.0073-.09132.13578-.10991.21883-.07876.35181-.2067.65481-.613.73786a2.45413,2.45413,0,0,0-1.342.70811A.28429.28429,0,0,0,16,1.87158V7.98064A.48769.48769,0,0,0,16.50444,7.5152Z" style="fill:#edeeee"/><path d="M16.179,16.98474a2.25671,2.25671,0,0,1,.94077-.72439c.0667-.0345.17121-.12512.144.073-.01831.133.08234.08641.15142.06621A6.26411,6.26411,0,0,0,18.826,15.9509c.16581-.09482.14905-.05358.14547.117a5.6458,5.6458,0,0,0,.07224,1.48161,1.42778,1.42778,0,0,1-.546,1.313,1.5905,1.5905,0,0,1-.2499.18994c-.31647.22809-.32229.23847.02918.42223a7.14906,7.14906,0,0,0,1.22693.61582c.36388.10857.32467.42448.36.67838.0679.489.09293.98418.12765,1.4774a3.53787,3.53787,0,0,1-1.07978,2.65151c-.14322.161-.35455.26681-.41536.49686a1.47756,1.47756,0,0,0,.44559.78471,2.60222,2.60222,0,0,1,.716.86327c.23939.39025.49441.771.73225,1.16205.20852.34312.15872.52913-.19064.72524a4.479,4.479,0,0,1-.44313.19161c.33428.07379.3563.145.17815.5771a4.04144,4.04144,0,0,0,.78506.10633.74694.74694,0,0,1,.831.535,2.05555,2.05555,0,0,0,1.12727.99232c.07336.03872.127,0,.18734-.02357-.11356-.16272-.23581-.31309-.10963-.5367a.52418.52418,0,0,1,.56981-.266c.01781-.21715.08248-.39418.3441-.40372a1.29765,1.29765,0,0,1,.51481-.1125,6.793,6.793,0,0,0-1.822-1.31636c-.07989-.03787-.16322-.08613-.17753-.17507a2.22338,2.22338,0,0,1-.05155-1.20469,2.91651,2.91651,0,0,1,.68834-1.14326.70389.70389,0,0,0,.22-.45366c.0613-.51874.11-1.04.19968-1.554a1.13626,1.13626,0,0,0-.3347-1.09191c-.41073-.40007-.80617-.81558-1.21382-1.21873a3.10991,3.10991,0,0,1-1.01-2.39986.77387.77387,0,0,0-.23342-.56588q-.14477-.1574-.29038-.31422a2.38009,2.38009,0,0,1-.26154-.10465c-.18608-.10072-.32622-.087-.40379.133a.78938.78938,0,0,1-.04973.09763.72587.72587,0,0,1-.04313-.09932,7.84768,7.84768,0,0,1-.24437-1.47908c-.01038-.13971.071-.17675.17682-.0909.36662.29823.77826.537,1.124.86186.12261-.00056.17984.09932.254.16946A13.98355,13.98355,0,0,1,21.95806,19.494a2.02069,2.02069,0,0,0,1.04275.88543c1.01609.25586,2.0209.55662,3.039.80351a1.10465,1.10465,0,0,1,.84341.68455,1.46188,1.46188,0,0,0,.27859.49714c.053.05359.11328.1313.19317.07856.07778-.05163.00259-.1212-.021-.17675a2.38306,2.38306,0,0,1-.15683-.69325c-.00343-.03227-.01809-.08249.033-.092.01859-.00365.049.02244.06481.04208a7.53475,7.53475,0,0,1,.87757,1.05292,3.197,3.197,0,0,1,.40379,1.47459c.00245.1111-.01228.26793.12583.27719.12057.00813.17682-.14.19877-.25082a4.99541,4.99541,0,0,0,.07252-.56559,5.67548,5.67548,0,0,0-.11629-1.39211.09189.09189,0,0,1-.04355-.11335c.00189-.00561.01108-.009.0169-.01346l.02953.06761a1.4442,1.4442,0,0,1,.30791.51089,4.83812,4.83812,0,0,1,.38394,1.80452c.00077.10577-.05282.27326.09153.29318.12632.0174.149-.15374.18341-.25362a3.40272,3.40272,0,0,0,.18061-.97941A7.80581,7.80581,0,0,0,29.657,21.098c-.014-.05162-.02714-.14954-.01346-.15487.06207-.02384.09335.04489.13768.07744a2.60366,2.60366,0,0,1,.94981,1.88336c.01824.12737-.02889.27045.09034.37313a.70778.70778,0,0,0,.091-.41045l-.00014-.5193a2.40627,2.40627,0,0,0-.3791-1.21228c-.92744-1.38509-1.91457-2.67677-3.77121-2.84818-.91671-.08445-1.82766-.23483-2.73975-.36557-.43359-.062-.8963-.041-1.20841-.45954a3.22254,3.22254,0,0,0-.47652-.40653c-.38352-.34143-.76283-.68763-1.14382-1.03215-.42427-.29571-.75953-.69213-1.15554-1.02066a1.03293,1.03293,0,0,0-.62682-.303c-.16048-.007-.28554-.03535-.24514-.29486.06144-.39474.13039-.78724.22143-1.17524a.27612.27612,0,0,0-.031-.24184A9.30073,9.30073,0,0,0,18.0195,12.506c-.13747-.03058-.3051-.3925-.26169-.52043.03619-.10689.11384-.04236.1663-.03619a6.13278,6.13278,0,0,1,1.66586.46123q.07185-.14644.14378-.29346c.12373.07912.05794.22192.10921.3246a1.2129,1.2129,0,0,0,.094.13832.50441.50441,0,0,1,.05435.00645c.152-.32292.30167-.647.457-.96819.06964-.14421.15051-.2828.22619-.42392a4.989,4.989,0,0,0-1.28879-.64556c-.08389-.02637-.19646-.03086-.21035-.15767-.10472.10661-.2161.01964-.31548-.002a8.59286,8.59286,0,0,0-.935-.16384c.06228.43121-.006.54315-.43465.691A4.441,4.441,0,0,1,16,11.14v2.47168c.32692-.05695.65523-.108.9804-.17422a3.64194,3.64194,0,0,0,1.11723-.42728c.197-.11531.2854-.04854.3561.149.18635.51959.14743.63545-.36241.85934a4.89608,4.89608,0,0,1-1.46653.33947A2.46124,2.46124,0,0,1,16,14.41571v2.69472A.25449.25449,0,0,0,16.179,16.98474Z" style="fill:#dadddc"/><path d="M17.1199,7.94a1.40322,1.40322,0,0,1,.10563-.32488c.06355-.11924.05457-.35462.21708-.32825a.55717.55717,0,0,1,.48508.29935c.317.12064.3025-.00336.17983-.23258-.07154-.13354-.00561-.18432.138-.17478.20916.01431.41915.01487.62873.02328.03219.00141.075.04545.09062-.00533.00708-.023-.02988-.06565-.055-.09118a1.93212,1.93212,0,0,0-.71892-.55353c-.04517-.01571-.103-.0216-.11166-.07519-.01179-.07294.05716-.08837.10584-.11306a3.96051,3.96051,0,0,1,.78576-.34452c.04089-.01038.074-.05134.11075-.078-.03486-.0143-.06916-.03058-.10465-.04292a5.02976,5.02976,0,0,0-.86789-.15346c-.06776-.011-.14344.08809-.187.00084-.01116-.02245.0883-.1125.1482-.15571.40933-.29542.82167-.58664,1.233-.879a.121.121,0,0,0-.11544-.05835,4.95155,4.95155,0,0,0-1.68368.58692c-.11832.07406-.15353.07294-.15781-.08024-.00631-.22669-.03633-.45281-.05632-.67922a2.72437,2.72437,0,0,0-.28722,1.384c.02693.15823.05141.317.08122.4747.07259.38324-.0122.48339-.42146.491-.05415.22837-.12618.45394-.15816.68539A.48769.48769,0,0,1,16,7.98064v.86579A1.00451,1.00451,0,0,0,17.1199,7.94Z" style="fill:#e3e5e5"/><path d="M17.46526,9.53126c.06544-.3751.12478-.751.20018-1.1239a.42611.42611,0,0,1,.14175-.30327,1.6499,1.6499,0,0,1,.1205-.51791.55717.55717,0,0,0-.48508-.29935c-.16251-.02637-.15353.209-.21708.32825A1.40322,1.40322,0,0,0,17.1199,7.94,1.00451,1.00451,0,0,1,16,8.84643v1.55175a3.49222,3.49222,0,0,0,1.46547-.40653Z" style="fill:#dadddc"/><path d="M17.80719,8.10409a.42611.42611,0,0,0-.14175.30327c-.0754.37286-.13474.7488-.20018,1.1239l.34046.29459c.14076.103.11713.255.11909.39951a8.59286,8.59286,0,0,1,.935.16384c.09938.0216.21076.10857.31548.002.02076-.05274.04208-.10549.06214-.15879.21238-.56363.18959-.69129-.25453-1.09725C18.59821,8.78359,18.19961,8.4472,17.80719,8.10409Z" style="fill:#9da5a4"/><path d="M16.12506,28.0512c.05471-.22079.09279-.44608.13586-.67.00925-.048.02034-.1024.07441-.10353.02322-.00084.05162.04882.07112.08a.94821.94821,0,0,0,.368.425c.02553.01178.05976.0418.07379.03395.0439-.02413.01045-.06144.002-.09511-.05772-.23062-.12513-.45927-.16819-.69241-.06706-.36331-.0639-.78779.2626-.96426a10.67985,10.67985,0,0,0,1.41686-.732c.0733-.05471.087.04657.13474.06172.06081-.23.27214-.33582.41536-.49686a3.53787,3.53787,0,0,0,1.07978-2.65151c-.03472-.49322-.05975-.9884-.12765-1.4774-.03528-.2539.00393-.56981-.36-.67838a7.14906,7.14906,0,0,1-1.22693-.61582c-.35147-.18376-.34565-.19414-.02918-.42223a1.5905,1.5905,0,0,0,.2499-.18994,1.42778,1.42778,0,0,0,.546-1.313,5.6458,5.6458,0,0,1-.07224-1.48161c.00358-.17057.02034-.21181-.14547-.117a6.26411,6.26411,0,0,1-1.41077.44861c-.06908.0202-.16973.06677-.15142-.06621.02721-.19807-.0773-.10745-.144-.073a2.25671,2.25671,0,0,0-.94077.72439.25449.25449,0,0,1-.179.12569v11.0847c.00765.00813.00393.02468.01978.02637C16.1151,28.23188,16.10977,28.1132,16.12506,28.0512Z" style="fill:#edeeee"/><path d="M24.02784,30.77482a1.032,1.032,0,0,0-.7025-.26877.52418.52418,0,0,0-.56981.266c-.12618.22361-.00393.374.10963.5367a.88753.88753,0,0,0,.21736.13243,14.91754,14.91754,0,0,0,2.02223.44692A2.89918,2.89918,0,0,0,24.02784,30.77482Z" style="fill:#b9bfbe"/><path d="M19.75634,29.12151a.901.901,0,0,0-.67817.67726c-.01487.12345-.00281.2194.16027.13158a2.87215,2.87215,0,0,1,.696-.23174C20.11264,29.26656,20.09062,29.1953,19.75634,29.12151Z" style="fill:#9da5a4"/><path d="M19.15637,17.09977a7.84768,7.84768,0,0,0,.24437,1.47908.72587.72587,0,0,0,.04313.09932.78938.78938,0,0,0,.04973-.09763c.07757-.22.21771-.23371.40379-.133a2.38009,2.38009,0,0,0,.26154.10465q.14908-.34087.29823-.68147c-.34571-.32488-.75735-.56363-1.124-.86186C19.22742,16.923,19.146,16.96006,19.15637,17.09977Z" style="fill:#c8cccb"/><path d="M24.18425,29.98983a1.29765,1.29765,0,0,0-.51481.1125.55237.55237,0,0,1,.391.12064,5.468,5.468,0,0,1,1.11071,1.19965A2.06125,2.06125,0,0,0,24.18425,29.98983Z" style="fill:#9da5a4"/><path d="M28.79362,22.0061a.09189.09189,0,0,0,.04355.11335l.00288-.0592-.02953-.06761C28.8047,21.99712,28.79551,22.00049,28.79362,22.0061Z" style="fill:#e1e2e2"/><path d="M17.00284,5.86414c-.09223-.06789-.10072-.007-.11839.06818-.07042.29991-.14736.59842-.22185.89749.40926-.00758.494-.10773.42146-.491C17.05425,6.18117,17.02977,6.02237,17.00284,5.86414Z" style="fill:#3b8fa3"/><path d="M18.09132,14.01845c.50984-.22389.54876-.33975.36241-.85934-.0707-.19751-.15915-.26428-.3561-.149a3.64194,3.64194,0,0,1-1.11723.42728c-.32517.06621-.65348.11727-.9804.17422v.80407a2.46124,2.46124,0,0,0,.62479-.05779A4.89608,4.89608,0,0,0,18.09132,14.01845Z" style="fill:#b9bfbe"/><path d="M17.92481,10.22536c-.002-.14449.02167-.29655-.11909-.39951q-.17013.0829-.34025.16608A3.496,3.496,0,0,1,16,10.39818V11.14a4.441,4.441,0,0,0,1.49016-.2236C17.91885,10.76851,17.98709,10.65657,17.92481,10.22536Z" style="fill:#b9bfbe"/><path d="M17.75781,11.98555c-.04341.12793.12422.48985.26169.52043a9.30463,9.30463,0,0,1,1.33691.48143c.20957-.13887.17373-.37706.23356-.57682a6.13278,6.13278,0,0,0-1.66586-.46123C17.87165,11.94319,17.794,11.87866,17.75781,11.98555Z" style="fill:#9da5a4"/><path d="M21.90552,12.60417c-.14434-.05947-.29984.17507-.422.31843-.06944-.04068-.04559-.1139-.06025-.17366.03563-.44468.081-.8888.10409-1.33432a8.65576,8.65576,0,0,0-.00912-1.33964c-.0054-.05275-.02637-.1386-.05667-.14673-.06355-.01683-.08129.0634-.10886.11q-.34035.57738-.67817,1.15616c-.07575.14112-.15662.27971-.22626.42392-.15529.32123-.305.64527-.457.96819a.50441.50441,0,0,0-.05435-.00645,1.2129,1.2129,0,0,1-.094-.13832c-.05127-.10268.01452-.24548-.10921-.3246q-.07185.14687-.14378.29346c-.05983.19976-.024.438-.23356.57682a.27634.27634,0,0,1,.03093.24184c-.091.388-.16.7805-.22143,1.17524-.0404.25951.08466.28785.24514.29486a1.03293,1.03293,0,0,1,.62682.303c.396.32853.73127.72495,1.15561,1.02066a13.32052,13.32052,0,0,0,.72881-2.89083C21.94305,12.94729,22.02188,12.65243,21.90552,12.60417Z" style="fill:#c8cccb"/><path d="M17.46547,9.99193q.17013-.08291.34025-.16608l-.34046-.29459Z" style="fill:#fbfbfb"/><path d="M7.93961,30.246a.55233.55233,0,0,1,.391-.12064c.26162.00954.32629.18657.344.40371a1.032,1.032,0,0,0-.70243.26878,2.89922,2.89922,0,0,0-1.07691,1.11323l-.116.112H6.7218a1.0881,1.0881,0,0,1,.107-.57738A5.47,5.47,0,0,1,7.93961,30.246Z" style="fill:#b9bfbe"/><path d="M1.08764,22.88957l-.05345-.00141v-.51678l.05352-.00112Q1.08771,22.62949,1.08764,22.88957Z" style="fill:#f4f4f4"/><path d="M10.91566.023c-.00021.01767.00014.03535.001.05274h-.28925c.00084-.01768.00119-.03507.001-.05274Z" style="fill:#f6f7f7"/><path d="M15.49556,7.53821c-.032-.23146-.104-.457-.15816-.6854-.07449-.29907-.15143-.59758-.22185-.89749-.01767-.07519-.02616-.13607-.11839-.06817a2.72441,2.72441,0,0,0-.28722-1.384c-.34417-.98137-.85323-1.18927-1.77485-.72355a4.27821,4.27821,0,0,1-.787.342,1.20658,1.20658,0,0,1-1.3717-.5165,3.47637,3.47637,0,0,1-.231-.52155.51866.51866,0,0,0-.8087-.28757A1.79567,1.79567,0,0,0,9.17,3.26733a9.20933,9.20933,0,0,0-.68441,1.157,1.48192,1.48192,0,0,1-1.47312.886A1.04609,1.04609,0,0,1,5.92537,4.343a4.86357,4.86357,0,0,1-.00743-.54484c-.00281-.6868-.09862-.78443-.77047-.78387-.305,0-.42911-.12007-.43809-.43233-.00442-.1529.01312-.30721-.00133-.459-.0181-.18937-.0801-.3549-.31268-.381-.06067-.007-.14764.07407-.17219-.0087-.02216-.07462.07147-.12905.13165-.17057a.30214.30214,0,0,1,.46677.15065,2.66988,2.66988,0,0,1,.11279.41326c.08283.4054.219.4646.55584.23062.06229-.04349.11251-.10381.17247-.15094a.64023.64023,0,0,1,.99078.21069c.0768.1515.11706.32124.18454.47807.04.09286.06852.22135.19772.21883.12169-.00253.11846-.129.15353-.2135A4.32564,4.32564,0,0,1,10.62739.07575h.28925A1.49766,1.49766,0,0,1,11.94726.5684a3.8026,3.8026,0,0,0,.42686.37931.33583.33583,0,0,0,.36353.06733,1.56851,1.56851,0,0,1,1.01013-.00448c.05211.01627.11019.07013.15823.02384.05071-.04909-.00946-.10324-.02994-.15094A1.0039,1.0039,0,0,1,13.7886.38211c.00947-.09763.03584-.234.11636-.23959.10458-.00729.09132.13579.10991.21883.07876.35182.2067.65482.613.73786a2.45414,2.45414,0,0,1,1.342.70812A.28414.28414,0,0,1,16,1.89458V8.00365A.48771.48771,0,0,1,15.49556,7.53821Z" style="fill:#f7f7f7"/><path d="M15.821,17.00775a2.25663,2.25663,0,0,0-.94077-.72439c-.0667-.03451-.17121-.12513-.144.07294.01831.133-.08234.08641-.15142.06621a6.26409,6.26409,0,0,1-1.41077-.4486c-.16581-.09483-.149-.05359-.14547.117a5.64582,5.64582,0,0,1-.07224,1.48161,1.42779,1.42779,0,0,0,.546,1.313,1.59045,1.59045,0,0,0,.2499.18993c.31647.22809.32229.23847-.02918.42224a7.149,7.149,0,0,1-1.22693.61581c-.36388.10858-.32467.42448-.35995.67838-.0679.489-.09293.98419-.12765,1.4774a3.53791,3.53791,0,0,0,1.07978,2.65152c.14322.161.35455.26681.41536.49686a1.47756,1.47756,0,0,1-.44559.78471,2.60219,2.60219,0,0,0-.716.86326c-.23939.39026-.49441.771-.73225,1.16206-.20852.34312-.15872.52912.19064.72523a4.47667,4.47667,0,0,0,.44313.19162c-.33428.07379-.3563.14505-.17815.5771a4.04144,4.04144,0,0,1-.78506.10633.74692.74692,0,0,0-.831.535,2.05563,2.05563,0,0,1-1.12727.99232c-.07336.03871-.127,0-.18734-.02357.11356-.16272.23581-.3131.10963-.5367a.52418.52418,0,0,0-.56981-.266c-.01781-.21714-.08248-.39417-.3441-.40371a1.29731,1.29731,0,0,0-.51481-.1125,6.79282,6.79282,0,0,1,1.822-1.31636c.07989-.03788.16322-.08613.17753-.17507a2.22341,2.22341,0,0,0,.05155-1.2047,2.91658,2.91658,0,0,0-.68834-1.14326.70389.70389,0,0,1-.22-.45365c-.0613-.51875-.11-1.04-.19968-1.554a1.13628,1.13628,0,0,1,.3347-1.09192c.41073-.40007.80617-.81557,1.21382-1.21873a3.10989,3.10989,0,0,0,1.01-2.39986.77385.77385,0,0,1,.23342-.56587q.14476-.15739.29038-.31422a2.38009,2.38009,0,0,0,.26154-.10465c.18608-.10072.32622-.087.40379.133a.78868.78868,0,0,0,.04973.09763.72522.72522,0,0,0,.04313-.09931,7.848,7.848,0,0,0,.24437-1.47908c.01038-.13972-.071-.17675-.17682-.0909-.36662.29823-.77826.537-1.124.86186-.12261-.00056-.17984.09932-.254.16945A13.98366,13.98366,0,0,0,10.04194,19.517a2.02067,2.02067,0,0,1-1.04275.88542c-1.01609.25587-2.0209.55662-3.039.80351a1.10467,1.10467,0,0,0-.84341.68455,1.46183,1.46183,0,0,1-.27859.49715c-.053.05358-.11328.13129-.19317.07855-.07778-.05162-.00259-.1212.021-.17675a2.38306,2.38306,0,0,0,.15683-.69325c.00343-.03226.01809-.08248-.033-.092-.01859-.00365-.049.02245-.06481.04208a7.53591,7.53591,0,0,0-.87757,1.05292,3.19709,3.19709,0,0,0-.40379,1.4746c-.00245.1111.01228.26792-.12583.27718-.12057.00814-.17682-.14-.19877-.25081a4.99588,4.99588,0,0,1-.07252-.5656,5.67548,5.67548,0,0,1,.11629-1.39211.09188.09188,0,0,0,.04355-.11334c-.00189-.00561-.01108-.009-.0169-.01347l-.02953.06761a1.44437,1.44437,0,0,0-.30791.51089,4.83817,4.83817,0,0,0-.38394,1.80453c-.00077.10577.05282.27326-.09153.29318-.12632.01739-.149-.15375-.18341-.25362a3.40285,3.40285,0,0,1-.18061-.97942,7.80586,7.80586,0,0,1,.3305-2.33786c.014-.05162.02714-.14953.01346-.15486-.06207-.02385-.09335.04489-.13768.07743A2.60368,2.60368,0,0,0,1.269,22.92688c-.01824.12737.02889.27045-.09034.37314a.7078.7078,0,0,1-.091-.41045l.00014-.51931a2.40621,2.40621,0,0,1,.3791-1.21227c.92744-1.3851,1.91457-2.67677,3.77121-2.84819.91671-.08444,1.82766-.23482,2.73975-.36556.43359-.062.8963-.041,1.20841-.45955a3.22249,3.22249,0,0,1,.47652-.40652c.38352-.34143.76283-.68764,1.14382-1.03216.42427-.2957.75953-.69213,1.15554-1.02065a1.03293,1.03293,0,0,1,.62682-.303c.16048-.007.28554-.03535.24514-.29487-.06144-.39474-.13039-.78723-.22143-1.17524a.2761.2761,0,0,1,.031-.24183A9.302,9.302,0,0,1,13.9805,12.529c.13747-.03058.3051-.39249.26169-.52042-.03619-.10689-.11384-.04237-.1663-.03619A6.13242,6.13242,0,0,0,12.41,12.4336q-.07185-.14646-.14378-.29346c-.12373.07911-.05794.22192-.10921.3246a1.21191,1.21191,0,0,1-.094.13831.507.507,0,0,0-.05435.00645c-.152-.32291-.30167-.647-.457-.96819-.06964-.1442-.15051-.2828-.22619-.42392a4.98925,4.98925,0,0,1,1.28879-.64555c.08389-.02637.19646-.03086.21035-.15767.10472.10661.2161.01964.31548-.002a8.5977,8.5977,0,0,1,.935-.16384c-.06228.43121.006.54315.43465.691A4.44149,4.44149,0,0,0,16,11.163v2.47168c-.32692-.057-.65523-.108-.9804-.17423a3.64168,3.64168,0,0,1-1.11723-.42728c-.19695-.11531-.2854-.04854-.3561.149-.18635.51959-.14743.63546.36241.85934a4.89547,4.89547,0,0,0,1.46653.33947A2.4608,2.4608,0,0,0,16,14.43872v2.69472A.25452.25452,0,0,1,15.821,17.00775Z" style="fill:#e3e5e5"/><path d="M14.8801,7.963a1.40307,1.40307,0,0,0-.10563-.32488c-.06355-.11924-.05457-.35463-.21708-.32825a.55715.55715,0,0,0-.48508.29935c-.317.12064-.3025-.00337-.17983-.23258.07154-.13354.00561-.18433-.138-.17479-.20916.01431-.41915.01487-.62873.02329-.03219.0014-.075.04545-.09062-.00533-.00708-.023.02988-.06565.055-.09118a1.932,1.932,0,0,1,.71892-.55353c.04517-.01572.103-.02161.11166-.07519.01179-.073-.05716-.08838-.10584-.11307a3.96167,3.96167,0,0,0-.78576-.34452c-.04089-.01038-.074-.05134-.11075-.078.03486-.01431.06916-.03058.10465-.04293a5.02976,5.02976,0,0,1,.86789-.15346c.06776-.01094.14344.0881.187.00084.01116-.02244-.0883-.1125-.1482-.1557-.40933-.29543-.82167-.58664-1.233-.879a.12106.12106,0,0,1,.11544-.05836,4.952,4.952,0,0,1,1.68368.58692c.11832.07407.15353.073.15781-.08023.00631-.22669.03633-.45282.05632-.67923a2.72441,2.72441,0,0,1,.28722,1.384c-.02693.15823-.05141.317-.08122.47469-.07259.38324.0122.4834.42146.491.05415.22838.12618.45394.15816.6854A.48771.48771,0,0,0,16,8.00365v.86579A1.00451,1.00451,0,0,1,14.8801,7.963Z" style="fill:#edeeee"/><path d="M14.53474,9.55427c-.06544-.3751-.12478-.751-.20018-1.1239a.42615.42615,0,0,0-.14175-.30328,1.64977,1.64977,0,0,0-.1205-.5179.55715.55715,0,0,1,.48508-.29935c.16251-.02638.15353.209.21708.32825a1.40307,1.40307,0,0,1,.10563.32488A1.00451,1.00451,0,0,0,16,8.86944v1.55174a3.49207,3.49207,0,0,1-1.46547-.40652Z" style="fill:#e3e5e5"/><path d="M14.19281,8.12709a.42615.42615,0,0,1,.14175.30328c.0754.37286.13474.7488.20018,1.1239l-.34046.29458c-.14076.103-.11713.255-.11909.39951a8.5977,8.5977,0,0,0-.935.16384c-.09938.02161-.21076.10858-.31548.002-.02076-.05275-.04208-.10549-.06214-.1588-.21238-.56363-.18959-.69128.25453-1.09724C13.40179,8.80659,13.80039,8.47021,14.19281,8.12709Z" style="fill:#abb2b1"/><path d="M15.87494,28.07421c-.05471-.2208-.09279-.44608-.13586-.67-.00925-.048-.02034-.1024-.07441-.10352-.02322-.00084-.05162.04882-.07112.08a.94826.94826,0,0,1-.368.425c-.02553.01178-.05976.0418-.07379.03394-.0439-.02412-.01045-.06144-.002-.0951.05772-.23062.12513-.45927.16819-.69241.06706-.36332.0639-.7878-.2626-.96427a10.6786,10.6786,0,0,1-1.41686-.732c-.0733-.05471-.087.04657-.13474.06172-.06081-.23-.27214-.33582-.41536-.49686a3.53791,3.53791,0,0,1-1.07978-2.65152c.03472-.49321.05975-.98839.12765-1.4774.03528-.2539-.00393-.5698.35995-.67838a7.149,7.149,0,0,0,1.22693-.61581c.35147-.18377.34565-.19415.02918-.42224a1.59045,1.59045,0,0,1-.2499-.18993,1.42779,1.42779,0,0,1-.546-1.313,5.64582,5.64582,0,0,0,.07224-1.48161c-.00358-.17058-.02034-.21182.14547-.117a6.26409,6.26409,0,0,0,1.41077.4486c.06908.0202.16973.06678.15142-.06621-.02721-.19807.0773-.10745.144-.07294a2.25663,2.25663,0,0,1,.94077.72439.25452.25452,0,0,0,.179.12569V28.21813c-.00765.00814-.00393.02469-.01978.02637C15.8849,28.25488,15.89023,28.13621,15.87494,28.07421Z" style="fill:#f7f7f7"/><path d="M7.97216,30.79783a1.032,1.032,0,0,1,.7025-.26878.52418.52418,0,0,1,.56981.266c.12618.2236.00393.374-.10963.5367a.88748.88748,0,0,1-.21736.13242,14.916,14.916,0,0,1-2.02223.44692A2.89922,2.89922,0,0,1,7.97216,30.79783Z" style="fill:#c8cccb"/><path d="M12.24366,29.14452a.90094.90094,0,0,1,.67817.67726c.01487.12344.00281.21939-.16027.13158a2.87172,2.87172,0,0,0-.696-.23174C11.88736,29.28957,11.90938,29.21831,12.24366,29.14452Z" style="fill:#9da5a4"/><path d="M12.84363,17.12278a7.848,7.848,0,0,1-.24437,1.47908.72522.72522,0,0,1-.04313.09931.78868.78868,0,0,1-.04973-.09763c-.07757-.21995-.21771-.2337-.40379-.133a2.38009,2.38009,0,0,1-.26154.10465q-.14908-.34087-.29823-.68147c.34571-.32488.75735-.56363,1.124-.86186C12.77258,16.946,12.854,16.98306,12.84363,17.12278Z" style="fill:#d1d4d4"/><path d="M7.81575,30.01284a1.29731,1.29731,0,0,1,.51481.1125.55233.55233,0,0,0-.391.12064A5.468,5.468,0,0,0,6.8289,31.44563,2.06121,2.06121,0,0,1,7.81575,30.01284Z" style="fill:#abb2b1"/><path d="M3.20638,22.02911a.09188.09188,0,0,1-.04355.11334l-.00288-.0592.02953-.06761C3.1953,22.02013,3.20449,22.0235,3.20638,22.02911Z" style="fill:#e1e2e2"/><path d="M14.99716,5.88715c.09223-.0679.10072-.007.11839.06817.07042.29991.14736.59842.22185.89749-.40926-.00757-.49405-.10773-.42146-.491C14.94575,6.20417,14.97023,6.04538,14.99716,5.88715Z" style="fill:#4295ac"/><path d="M13.90868,14.04145c-.50984-.22388-.54876-.33975-.36241-.85934.0707-.19751.15915-.26428.3561-.149a3.64168,3.64168,0,0,0,1.11723.42728c.32517.06622.65348.11728.9804.17423v.80407a2.4608,2.4608,0,0,1-.62479-.0578A4.89547,4.89547,0,0,1,13.90868,14.04145Z" style="fill:#c8cccb"/><path d="M14.07519,10.24836c.002-.14448-.02167-.29655.11909-.39951q.17013.08291.34025.16609A3.49584,3.49584,0,0,0,16,10.42118V11.163a4.44149,4.44149,0,0,1-1.49016-.2236C14.08115,10.79151,14.01291,10.67957,14.07519,10.24836Z" style="fill:#c8cccb"/><path d="M14.24219,12.00856c.04341.12793-.12422.48984-.26169.52042a9.30588,9.30588,0,0,0-1.33691.48144c-.20957-.13888-.17373-.37707-.23356-.57682a6.13242,6.13242,0,0,1,1.66586-.46123C14.12835,11.96619,14.206,11.90167,14.24219,12.00856Z" style="fill:#abb2b1"/><path d="M10.09448,12.62718c.14434-.05948.29984.17506.422.31843.06944-.04068.04559-.11391.06025-.17367-.03563-.44467-.081-.88879-.10409-1.33431a8.65589,8.65589,0,0,1,.00912-1.33965c.0054-.05274.02637-.13859.05667-.14673.06355-.01683.08129.06341.10886.11q.34035.57738.67817,1.15616c.07575.14112.15662.27972.22626.42392.15529.32124.305.64528.457.96819a.507.507,0,0,1,.05435-.00645,1.21191,1.21191,0,0,0,.094-.13831c.05127-.10268-.01452-.24549.10921-.3246q.07185.14686.14378.29346c.05983.19975.024.43794.23356.57682a.27631.27631,0,0,0-.03093.24183c.091.388.16.7805.22143,1.17524.0404.25952-.08466.28785-.24514.29487a1.03293,1.03293,0,0,0-.62682.303c-.396.32852-.73127.725-1.15561,1.02065a13.32023,13.32023,0,0,1-.72881-2.89083C10.057,12.9703,9.97812,12.67543,10.09448,12.62718Z" style="fill:#d1d4d4"/><path d="M14.53453,10.01494q-.17013-.08291-.34025-.16609l.34046-.29458Z" style="fill:#fbfbfb"/></svg>