<svg xmlns="http://www.w3.org/2000/svg" viewBox="0 0 32 32"><title>644-zekrom</title><path d="M26.35906,3.60268a1.69562,1.69562,0,0,0-.45067.31582A10.02868,10.02868,0,0,0,24.69233,5.287a.29144.29144,0,0,0-.04183.31362,2.05482,2.05482,0,0,1,.11662.88629A5.11519,5.11519,0,0,1,23.4386,9.29793a1.24328,1.24328,0,0,1-.22341.18469.63771.63771,0,0,1-.59923.10519,1.26249,1.26249,0,0,0-.96445-.056,1.3868,1.3868,0,0,1-1.20206-.04207c-.00911-.00318-.01724-.01-.02642-.01223a2.36355,2.36355,0,0,0-2.05936.22188c.07424.31484.35637.46259.55225.67836.10789.11815.255.20108.36524.318.15509.16488.31649.07167.47947.03987.16917-.23974.40114-.12305.59391-.07608a2.18485,2.18485,0,0,1,1.38638,1.00837c.05052-.10421.15626-.09492.24524-.11938a3.607,3.607,0,0,0,1.53579-.77108.99233.99233,0,0,1,.39349-.22163A7.37879,7.37879,0,0,0,26.51776,9.341a4.64,4.64,0,0,1,1.08335-.65757,12.87668,12.87668,0,0,1,1.88837-.62552c.45972-.12329.46223-.11644.53763-.59665.02251-.14336.03749-.28769.06018-.43055.063-.39655.06385-.3963-.31423-.28426a.09493.09493,0,0,0-.02391.01614q-1.55219.4154-3.10406.832c-.10953.0296-.27459.11718-.31649.04355-.0499-.08832.03266-.24243.11418-.33857a2.05586,2.05586,0,0,1,.84826-.64045q1.25028-.46417,2.49866-.93449a4.10284,4.10284,0,0,1,.46156-.16145.27362.27362,0,0,0,.22579-.261c.03945-.24757.08544-.49367.1214-.74172.06055-.41759.0581-.41783-.34658-.29478q-1.484.48-2.96805.96066c-.05449.01762-.12433.0526-.14946-.0181-.02808-.07877.0321-.14923.08341-.20476a4.45429,4.45429,0,0,1,1.03681-.875c.72264-.41343,1.49457-.72386,2.2443-1.08078.30017-.12745.597-.264.902-.37893a.38.38,0,0,0,.25533-.30848A10.41827,10.41827,0,0,1,32,1.0025V.82783c-.04434.01908-.08984.036-.13277.05773C30.0388,1.80684,28.24009,2.78806,26.35906,3.60268Z" style="fill:#2b3332"/><path d="M21.69364,11.788a4.40607,4.40607,0,0,1-.84672.26738.23792.23792,0,0,1-.1962-.00489c-.37288-.23069-.78893-.4237-.82954-.9477-.00948-.12329-.03975-.24487-.06055-.36719-.163.0318-.32438.125-.47947-.03987-.11021-.11694-.25735-.19987-.36524-.318-.19588-.21577-.478-.36352-.55225-.67836a1.515,1.515,0,0,1-.33955-.6884,5.66825,5.66825,0,0,1-.19381-2.18088,3.2444,3.2444,0,0,1-.51464,1.10867c.08281.06116.01994.11962-.004.17809a7.88034,7.88034,0,0,1-1.163,2.03386c.17571.23582.35239.47165.52657.70869.04905.06679.11742.13235.06054.22849a.50972.50972,0,0,1,.261.11449,5.56268,5.56268,0,0,0,.97737.61475c.64166.24463.81981.86159,1.1952,1.32052.05883.07168.03914.13455.02324.21332-.0932.46309-.22567.91541-.34089,1.37238-.12091.47972-.536.68937-.85.99271a3.92011,3.92011,0,0,1-.34071.26616,4.13247,4.13247,0,0,0-.46419,2.67822c-.05847,1.00151-.076,2.00572-.13381,3.00626a8.59666,8.59666,0,0,1-.07749,1.12212,2.36373,2.36373,0,0,1-.60338,1.22658,1.74745,1.74745,0,0,0,.99326-.56607c.10189-.53917.272-1.06341.34383-1.61041a5.00171,5.00171,0,0,1,.86532-2.22124,3.52576,3.52576,0,0,1,.545-.63238,2.61663,2.61663,0,0,1-.65616-1.14291,3.23163,3.23163,0,0,1,.30707-2.22418,7.1216,7.1216,0,0,0,.607-1.77651c.111-.54259.11308-.52914.66491-.50516a.3967.3967,0,0,1,.40767.27129,4.10159,4.10159,0,0,0,.77512,1.14879l.04538.047.006.00685c.02361-.05162.04636-.10373.071-.15461a1.22042,1.22042,0,0,1,1.19668-.833.187.187,0,0,0,.18243-.06262,9.91546,9.91546,0,0,0-.65249-1.02427A2.92532,2.92532,0,0,1,21.69364,11.788Z" style="fill:#413b3b"/><path d="M24.07959,27.77782c.0452-.57.04128-1.14389.059-1.71584-.46321.6221-.4604.61452-1.21423.33026a.68186.68186,0,0,1-.503-.52645,5.97433,5.97433,0,0,0-.2724-.82294.84064.84064,0,0,1-.05491-.6128c-.0156-.13748-.14226-.18372-.22935-.24463a11.5754,11.5754,0,0,0-2.77992-1.54655,4.33,4.33,0,0,1-1.04757-.61158c-.14023-.09932-.17161-.07021-.20023.07975a9.48663,9.48663,0,0,1-.3519,1.4c.072.06311.14.13137.21656.18763a12.97762,12.97762,0,0,0,3.12369,1.64147c.16243.06214.21644.11253.17509.306a4.3808,4.3808,0,0,0-.13546,1.754c.07706.40609.32322.74441.43208,1.13533.04972.17883.17479.34982.08024.55042a.73965.73965,0,0,1,.0784.70747c-.0011.11522.00214.23093-.004.34567a.86775.86775,0,0,0,.65023.99711,13.049,13.049,0,0,0,1.56411.40951A3.84314,3.84314,0,0,1,24.057,29.695a.3797.3797,0,0,1,.5092-.23485c.20555.04966.40982.10446.6147.15681a2.89984,2.89984,0,0,0-.39435-.33857A1.4417,1.4417,0,0,1,24.07959,27.77782Z" style="fill:#413b3b"/><path d="M24.13885,24.74856a1.04824,1.04824,0,0,0-.35594-1.01766c-.08488-.04819-.18989-.06923-.233-.17345-.7893-.43348-.60148-.52718-1.19716.35154-.02648.03889-.05645.07608-.08476.11351a1.37731,1.37731,0,0,1-.17394.40755.841.841,0,0,0,.055.6128,5.97433,5.97433,0,0,1,.2724.82294.68186.68186,0,0,0,.503.52645c.75383.28426.751.29184,1.21423-.33026a3.20893,3.20893,0,0,0,.05773-.86232A2.20194,2.20194,0,0,1,24.13885,24.74856Z" style="fill:#373f3f"/><path d="M22.76611,21.87733a24.41209,24.41209,0,0,0-1.69578-1.82641c-.16213-.1595-.40787-.23656-.484-.48168a3.31,3.31,0,0,0-1.45677-.58394,3.52576,3.52576,0,0,0-.545.63238,5.00171,5.00171,0,0,0-.86532,2.22124c-.07186.547-.24194,1.07124-.34383,1.61041l.10972.05773a9.48663,9.48663,0,0,0,.3519-1.4c.02862-.15.06-.17907.20023-.07975a4.33,4.33,0,0,0,1.04757.61158,11.5754,11.5754,0,0,1,2.77992,1.54655c.08709.06091.21375.10715.22928.24463a1.37731,1.37731,0,0,0,.17394-.40755,13.85181,13.85181,0,0,0-3.14534-1.72636,4.26609,4.26609,0,0,1-1.03216-.58858.202.202,0,0,1-.08544-.26347,6.18224,6.18224,0,0,1,1.0395-2.09159c.08427-.11131.17375-.08514.28163-.05211a4.65369,4.65369,0,0,1,1.54148.90929,12.80864,12.80864,0,0,1,2.59951,3.13323,1.11,1.11,0,0,1,.08274.21454c.04312.10422.14813.12526.233.17345.11853-.12843.04073-.2505-.01107-.37429A6.03093,6.03093,0,0,0,22.76611,21.87733Z" style="fill:#2b3332"/><path d="M26.07608,30.29948q-.44859-.33979-.89522-.68252c-.20488-.05235-.40915-.10715-.6147-.15681a.3797.3797,0,0,0-.5092.23485,3.84314,3.84314,0,0,0-.39092,1.84671,1.43379,1.43379,0,0,0,.45446.12525c.14684-.002.24934-.025.25259-.22139a.33618.33618,0,0,1,.37813-.37355.12008.12008,0,0,0,.13632-.07926c.09009-.24536.29429-.271.51728-.27129.1-.00025.2283.05112.29367-.06043.11731-.19986.3028-.17075.48358-.17173C26.19516,30.399,26.14036,30.34816,26.07608,30.29948Z" style="fill:#373f3f"/><path d="M27.291,6.65909a2.05586,2.05586,0,0,0-.84826.64045c-.08152.09614-.16408.25025-.11418.33857.0419.07363.207-.014.31649-.04355q1.55154-.41795,3.10406-.832a3.15232,3.15232,0,0,1,.04055-1.038Q28.54053,6.19247,27.291,6.65909Z" style="fill:#373f3f"/><path d="M27.21777,5.00343c-.05131.05553-.11149.126-.08341.20476.02513.0707.095.03572.14946.0181q1.48385-.48069,2.96805-.96066a3.43343,3.43343,0,0,1,.247-1.218c-.74973.35692-1.52166.66735-2.2443,1.08078A4.45429,4.45429,0,0,0,27.21777,5.00343Z" style="fill:#373f3f"/><path d="M27.13961,20.2706a4.2278,4.2278,0,0,0-.90195.40119c-.16164.08684-.23827.07119-.34028-.09761-.39563-.6539-.8134-1.29458-1.223-1.94016-.0452-.07144-.07419-.1803-.178-.16268-.08929.01541-.08287.126-.10018.1957-.112.44939-.22285.89975-.31893,1.35281-.07144.33686-.13155.40535-.4681.31288-.26843-.07388-.54192.00881-.80637-.07926-.13491-.04526-.11314.091-.13344.16782-.0219.127.0332.16561.15894.16855.37784.00905.75634.01957,1.13271.05186.18689.0159.252-.05406.28273-.22457.07565-.419.1639-.83566.2505-1.25251a.83558.83558,0,0,1,.06605-.15436.83914.83914,0,0,1,.12672.112,16.4457,16.4457,0,0,1,.91051,1.38167c.13137.21357.22635.53085.4152.60546.20843.08244.46951-.15925.71653-.23362.30163-.09076.55188-.22946.61475-.57292C27.2878,20.21433,27.21777,20.24956,27.13961,20.2706Z" style="fill:#373f3f"/><path d="M20.35454,10.65954c-.19277-.047-.42474-.16366-.59391.07608.0208.12232.05107.2439.06055.36719.04061.524.45666.717.82954.9477a.23792.23792,0,0,0,.1962.00489,4.40607,4.40607,0,0,0,.84672-.26738c.07639-.01614.1266-.04281.04728-.12011A2.18485,2.18485,0,0,0,20.35454,10.65954Z" style="fill:#373f3f"/><path d="M23.0141,21.90962a8.2129,8.2129,0,0,0-2.42772-2.34038c.07608.24512.32182.32218.484.48168a24.41209,24.41209,0,0,1,1.69578,1.82641,6.03093,6.03093,0,0,1,1.00573,1.47928c.0518.12379.1296.24586.01107.37429a1.04824,1.04824,0,0,1,.35594,1.01766,2.20194,2.20194,0,0,0,.05749.4511,2.39353,2.39353,0,0,0-.0959-1.50815A13.9556,13.9556,0,0,0,23.0141,21.90962Z" style="fill:#413b3b"/><path d="M28.96425,18.70349c-.1384.0866-.26915.18568-.40419.2779a.33036.33036,0,0,1-.48161-.0685c-.33123-.33661-.683-.65365-1.02947-.97509a1.37234,1.37234,0,0,0-.23375-.16929c-.06733-.03987-.12879-.01272-.08678.06679.10568.20059.10929.45819.32628.59738l.05058.05969q.563.43117,1.12664.86184c.05229.03963.11241.09614.16971.09736.18788.00367.708-.511.7476-.72264C29.11122,18.55647,29.02339,18.66655,28.96425,18.70349Z" style="fill:#373f3f"/><path d="M28.2618,17.3705a4.278,4.278,0,0,0-1.49788-1.29728,28.68553,28.68553,0,0,1-3.30435-1.938c-.11326-.0822-.23417-.13944-.12213-.309.08348-.12648.02049-.20721-.09516-.283-.138-.09076-.20249-.01517-.28567.07877-.0562.06311-.08544.19179-.21986.13822a.187.187,0,0,1-.18243.06262,1.22042,1.22042,0,0,0-1.19668.833c-.02464.05088-.04739.103-.071.15461a4.81828,4.81828,0,0,0,1.11215,1.00592c.10232.07045.16965.12745.13834.27668a6.32015,6.32015,0,0,0-.103,1.29923,16.94385,16.94385,0,0,0,.23534,3.029c.0203-.07682-.00147-.21308.13344-.16782.26445.08807.53794.00538.80637.07926.33655.09247.39666.024.4681-.31288.09608-.45306.20695-.90342.31893-1.35281.01731-.06972.01089-.18029.10018-.1957.10378-.01762.13277.09124.178.16268.40957.64558.82734,1.28626,1.223,1.94016.102.1688.17864.18445.34028.09761a4.2278,4.2278,0,0,1,.90195-.40119c.07816-.021.14819-.05627.20445.03229a.62417.62417,0,0,0,.04092-.46945,7.35052,7.35052,0,0,0-.2916-1.28456l.01193-.05651-.05058-.05969c-.217-.13919-.2206-.39679-.32628-.59738-.042-.07951.01945-.10666.08678-.06679a1.37234,1.37234,0,0,1,.23375.16929c.34652.32144.69824.63848,1.02947.97509a.33036.33036,0,0,0,.48161.0685c.135-.09222.26579-.1913.40419-.2779.05914-.03694.147-.147.185.02544.11124-.11864.00171-.19277-.05871-.272C28.81479,18.09436,28.52514,17.74185,28.2618,17.3705Z" style="fill:#4f4949"/><path d="M25.69849,30.661c-.06537.11155-.19368.06018-.29367.06043-.223.00024-.42719.02593-.51728.27129a.12008.12008,0,0,1-.13632.07926.33618.33618,0,0,0-.37813.37355c-.00325.19644-.10575.21944-.25259.22139a3.69715,3.69715,0,0,1,1.23594.39728H25.473c.0965-.14384.04972-.30285.04941-.457l.00887-.08635a.50848.50848,0,0,1,.16763.03523c.22751.14531.2924.04109.29068-.17858l.00857-.13431c.05852.03034.11736.06018.17558.09125.22029.11767.26958.08831.26438-.171a.91739.91739,0,0,0-.256-.6742C26.00129,30.49029,25.8158,30.46118,25.69849,30.661Z" style="fill:#2b3332"/><path d="M21.23519,14.75669l.04536.04671Z" style="fill:#3d5148"/><path d="M17.598,6.0825a4.963,4.963,0,0,0-1.56563-1.23367V7.50674c.0003.10813.0003.21576.00073.32389l-.00073.0022v.22433a.35964.35964,0,0,1,.05645.00342c.16708-.01272.28676-.19937.47623-.1299-.01058-.1321.028-.18787.158-.10152.01309-.079-.00446-.17882.12262-.18l.03865-.06384A1.835,1.835,0,0,1,17.08,7.3717c.1809-.14482.07443.06605.11461.09761a2.894,2.894,0,0,1,.64668-1.05583c-.00636-.0817.01933-.1705-.05321-.237C17.66592,6.26915,17.635,6.13,17.598,6.0825Z" style="fill:#838c8a"/><path d="M16.8924,2.47322a.19562.19562,0,0,1-.02893-.16268,1.206,1.206,0,0,0-.0844-.78894,1.771,1.771,0,0,0-.62166-.11522L16.03234,1.354v2.2714c.60161-.00049.64858.0433.878.61182a4.86659,4.86659,0,0,0,.5265,1.0228,1.19874,1.19874,0,0,0,.10752-.86281A4.97768,4.97768,0,0,0,16.8924,2.47322Z" style="fill:#3a3333"/><path d="M16.91032,4.23725c-.2294-.56852-.27637-.61231-.878-.61182v1.2234A4.963,4.963,0,0,1,17.598,6.0825c.03707.04746.06795.18665.19008.09394-.06152-.32683-.27447-.59568-.35123-.91639A4.86659,4.86659,0,0,1,16.91032,4.23725Z" style="fill:#757f7e"/><path d="M17.19458,7.46931a.88629.88629,0,0,1-.18048.30652c-.08684.23387-.232.29845-.44908.15485-.18947-.06947-.30915.11718-.47623.1299a.35964.35964,0,0,0-.05645-.00342V9.16142a1.19038,1.19038,0,0,0,.61414-.2779c.21308-.32169.445-.63066.66919-.94476a3.2444,3.2444,0,0,0,.51464-1.10867c-.01437-.13944.14183-.27423.01095-.41661A2.894,2.894,0,0,0,17.19458,7.46931Z" style="fill:#1b1718"/><path d="M16.09417,0l-.06153.02153q-.00018.66638-.0003,1.3325l.125.05235a1.77136,1.77136,0,0,1,.62173.11522c-.11681-.39777-.22873-.79676-.35282-1.19208A.42677.42677,0,0,0,16.09417,0Z" style="fill:#65a9dc"/><path d="M16.96518,18.83608l-.0589.05773a7.104,7.104,0,0,0-.81645.75689c-.01211.024-.03651.02275-.05749.02838v.39459q-.00038,1.99875.00012,3.99677a.323.323,0,0,0,.24824-.03938c-.06153-.04036-.03339-.07975.004-.115a2.47387,2.47387,0,0,0,.62221-1.608,19.888,19.888,0,0,0,.05107-2.54978c.00324-.31093.06923-.61354.06464-.9225C17.00346,18.83559,16.98432,18.83584,16.96518,18.83608Z" style="fill:#413b3b"/><path d="M16.958,19.75834a19.888,19.888,0,0,1-.05107,2.54978,2.47387,2.47387,0,0,1-.62221,1.608c-.03743.03523-.06557.07462-.004.115l.10146-.01566a2.36373,2.36373,0,0,0,.60338-1.22658A8.59666,8.59666,0,0,0,17.063,21.6667c.05779-1.00054.07534-2.00475.13381-3.00626a.37255.37255,0,0,0-.17418.1754C17.02725,19.1448,16.96126,19.44741,16.958,19.75834Z" style="fill:#2b3332"/><path d="M20.92159,29.25c-.13412.06654-.14855.14482-.01309.22506.181.10715.36469.20965.54724.31435a.73965.73965,0,0,0-.0784-.70747A1.45869,1.45869,0,0,0,20.92159,29.25Z" style="fill:#2b3332"/><path d="M17.97416,11.81713a5.56268,5.56268,0,0,1-.97737-.61475.50972.50972,0,0,0-.261-.11449,6.2266,6.2266,0,0,1-.70349.8156v3.61075l.06109.055q.7839.20622,1.5676.41294a3.92011,3.92011,0,0,0,.34071-.26616c.31392-.30334.72906-.513.85-.99271.11522-.457.24769-.90929.34089-1.37238.0159-.07877.03559-.14164-.02324-.21332C18.794,12.67872,18.61582,12.06176,17.97416,11.81713Z" style="fill:#838c8a"/><path d="M16.14872,10.15071a.31862.31862,0,0,1-.11638.024v1.72881a6.2266,6.2266,0,0,0,.70349-.8156c.05688-.09614-.01149-.1617-.06054-.22849C16.50111,10.62236,16.32443,10.38653,16.14872,10.15071Z" style="fill:#373f3f"/><path d="M16.64648,8.88352a1.19038,1.19038,0,0,1-.61414.2779v1.01326a.31917.31917,0,0,0,.11638-.024,7.88034,7.88034,0,0,0,1.163-2.03386c.02391-.05847.08678-.11693.004-.17809C17.09147,8.25286,16.85956,8.56183,16.64648,8.88352Z" style="fill:#757f7e"/><path d="M20.86765,20.20968a4.65369,4.65369,0,0,0-1.54148-.90929c-.10788-.033-.19736-.0592-.28163.05211a6.18224,6.18224,0,0,0-1.0395,2.09159.202.202,0,0,0,.08544.26347,4.26609,4.26609,0,0,0,1.03216.58858A13.85181,13.85181,0,0,1,22.268,24.0225c.02831-.03743.05828-.07462.08476-.11351.59568-.87872.40786-.785,1.19716-.35154a1.11,1.11,0,0,0-.08274-.21454A12.80864,12.80864,0,0,0,20.86765,20.20968Z" style="fill:#413b3b"/><path d="M16.09343,15.56928l-.06109-.055v.215c.00043.0274.00049.055.00049.08171q-.00165,1.798.00012,3.59656c0,.01321.00006.02642-.00061.03987v.23167c.021-.00563.04538-.00441.05749-.02838a7.104,7.104,0,0,1,.81645-.75689l.0589-.05773c.01914-.00024.03828-.00049.05748-.00024a.37255.37255,0,0,1,.17418-.1754,4.13247,4.13247,0,0,1,.46419-2.67822Q16.87724,15.77563,16.09343,15.56928Z" style="fill:#373f3f"/><path d="M16.88433,7.58527l-.03872.06384c-.01718.07609.0781.229-.12262.18-.13-.08635-.16855-.03058-.158.10152.21711.1436.36224.079.44908-.15485A.29922.29922,0,0,1,16.88433,7.58527Z" style="fill:#a92f31"/><path d="M17.08,7.3717a1.82828,1.82828,0,0,0-.19564.21357.29922.29922,0,0,0,.12977.19056.88629.88629,0,0,0,.18048-.30652C17.1544,7.43775,17.26087,7.22688,17.08,7.3717Z" style="fill:#f7f7f7"/><path d="M16.723,7.82916c.20072.04893.10544-.104.12262-.18C16.71853,7.65034,16.73608,7.75015,16.723,7.82916Z" style="fill:#282e2d"/><path d="M16.9063,18.8937l.05888-.05743Z" style="fill:#23302b"/><path d="M5.70493,3.60268a1.69562,1.69562,0,0,1,.45067.31582A10.02868,10.02868,0,0,1,7.37166,5.287a.29144.29144,0,0,1,.04183.31362,2.055,2.055,0,0,0-.11663.88629A5.11528,5.11528,0,0,0,8.62539,9.29793a1.24328,1.24328,0,0,0,.22341.18469.63769.63769,0,0,0,.59922.10519,1.26251,1.26251,0,0,1,.96446-.056,1.3868,1.3868,0,0,0,1.20206-.04207c.00911-.00318.01724-.01.02642-.01223a2.36356,2.36356,0,0,1,2.05936.22188c-.07425.31484-.35637.46259-.55226.67836-.10788.11815-.255.20108-.36523.318-.1551.16488-.31649.07167-.47948.03987-.16916-.23974-.40113-.12305-.5939-.07608a2.18485,2.18485,0,0,0-1.38638,1.00837c-.05052-.10421-.15626-.09492-.24524-.11938a3.607,3.607,0,0,1-1.5358-.77108.99222.99222,0,0,0-.39348-.22163A7.37883,7.37883,0,0,1,5.54622,9.341a4.64,4.64,0,0,0-1.08334-.65757,12.87668,12.87668,0,0,0-1.88837-.62552c-.45972-.12329-.46223-.11644-.53764-.59665-.0225-.14336-.03749-.28769-.06018-.43055-.063-.39655-.06384-.3963.31423-.28426a.0948.0948,0,0,1,.02392.01614q1.55217.4154,3.10405.832c.10954.0296.2746.11718.3165.04355.0499-.08832-.03266-.24243-.11419-.33857A2.05583,2.05583,0,0,0,4.773,6.65909Q3.52267,6.19492,2.27429,5.7246a4.10284,4.10284,0,0,0-.46156-.16145.27361.27361,0,0,1-.22579-.261c-.03945-.24757-.08544-.49367-.1214-.74172-.06055-.41759-.0581-.41783.34658-.29478q1.484.48,2.968.96066c.05449.01762.12434.0526.14947-.0181.02807-.07877-.03211-.14923-.08342-.20476a4.454,4.454,0,0,0-1.0368-.875C3.08677,3.715,2.31484,3.40453,1.5651,3.04761c-.30016-.12745-.597-.264-.90195-.37893A.38.38,0,0,1,.40782,2.3602,10.41827,10.41827,0,0,0,.064,1.0025V.82783c.04434.01908.08984.036.13277.05773C2.02519,1.80684,3.8239,2.78806,5.70493,3.60268Z" style="fill:#373f3f"/><path d="M10.37034,11.788a4.40639,4.40639,0,0,0,.84673.26738.23792.23792,0,0,0,.1962-.00489c.37287-.23069.78893-.4237.82954-.9477.00948-.12329.03975-.24487.06054-.36719.163.0318.32438.125.47948-.03987.11021-.11694.25735-.19987.36523-.318.19589-.21577.478-.36352.55226-.67836a1.515,1.515,0,0,0,.33955-.6884,5.668,5.668,0,0,0,.1938-2.18088,3.24461,3.24461,0,0,0,.51465,1.10867c-.08281.06116-.01994.11962.004.17809a7.88034,7.88034,0,0,0,1.163,2.03386c-.17571.23582-.35239.47165-.52657.70869-.049.06679-.11742.13235-.06055.22849a.50976.50976,0,0,0-.261.11449,5.5626,5.5626,0,0,1-.97736.61475c-.64166.24463-.81982.86159-1.1952,1.32052-.05884.07168-.03914.13455-.02324.21332.0932.46309.22567.91541.34089,1.37238.12091.47972.536.68937.85.99271a3.92011,3.92011,0,0,0,.34071.26616,4.13247,4.13247,0,0,1,.46419,2.67822c.05846,1.00151.076,2.00572.13381,3.00626a8.59492,8.59492,0,0,0,.07749,1.12212,2.36366,2.36366,0,0,0,.60338,1.22658,1.74742,1.74742,0,0,1-.99326-.56607c-.10189-.53917-.272-1.06341-.34383-1.61041a5.00183,5.00183,0,0,0-.86532-2.22124,3.52617,3.52617,0,0,0-.545-.63238,2.61673,2.61673,0,0,0,.65616-1.14291,3.23174,3.23174,0,0,0-.30707-2.22418,7.12079,7.12079,0,0,1-.607-1.77651c-.111-.54259-.11308-.52914-.66491-.50516a.39671.39671,0,0,0-.40768.27129,4.10134,4.10134,0,0,1-.77511,1.14879l-.04538.047-.00605.00685c-.02361-.05162-.04636-.10373-.071-.15461a1.2204,1.2204,0,0,0-1.19667-.833.187.187,0,0,1-.18243-.06262A9.9121,9.9121,0,0,1,9.97973,12.736,2.92552,2.92552,0,0,0,10.37034,11.788Z" style="fill:#4f4949"/><path d="M7.9844,27.77782c-.0452-.57-.04128-1.14389-.059-1.71584.46321.6221.4604.61452,1.21423.33026a.68187.68187,0,0,0,.503-.52645,5.97428,5.97428,0,0,1,.27239-.82294.84064.84064,0,0,0,.05492-.6128c.0156-.13748.14226-.18372.22934-.24463a11.57565,11.57565,0,0,1,2.77993-1.54655,4.33,4.33,0,0,0,1.04757-.61158c.14023-.09932.17161-.07021.20023.07975a9.48538,9.48538,0,0,0,.3519,1.4c-.072.06311-.14.13137-.21656.18763a12.97762,12.97762,0,0,1-3.12369,1.64147c-.16244.06214-.21644.11253-.1751.306a4.38063,4.38063,0,0,1,.13547,1.754c-.07706.40609-.32322.74441-.43208,1.13533-.04972.17883-.17479.34982-.08024.55042a.73965.73965,0,0,0-.0784.70747c.0011.11522-.00214.23093.004.34567a.86774.86774,0,0,1-.65023.99711,13.04836,13.04836,0,0,1-1.5641.40951A3.84325,3.84325,0,0,0,8.007,29.695a.3797.3797,0,0,0-.5092-.23485c-.20555.04966-.40982.10446-.6147.15681a2.89923,2.89923,0,0,1,.39435-.33857A1.4417,1.4417,0,0,0,7.9844,27.77782Z" style="fill:#4f4949"/><path d="M7.92514,24.74856a1.04825,1.04825,0,0,1,.35593-1.01766c.08489-.04819.1899-.06923.233-.17345.78931-.43348.60149-.52718,1.19717.35154.02648.03889.05645.07608.08476.11351a1.37728,1.37728,0,0,0,.17393.40755.841.841,0,0,1-.055.6128,5.97428,5.97428,0,0,0-.27239.82294.68187.68187,0,0,1-.503.52645c-.75383.28426-.751.29184-1.21423-.33026a3.20893,3.20893,0,0,1-.05773-.86232A2.20194,2.20194,0,0,0,7.92514,24.74856Z" style="fill:#434c4b"/><path d="M9.29788,21.87733a24.41209,24.41209,0,0,1,1.69578-1.82641c.16213-.1595.40786-.23656.48394-.48168a3.31,3.31,0,0,1,1.45678-.58394,3.52617,3.52617,0,0,1,.545.63238,5.00183,5.00183,0,0,1,.86532,2.22124c.07186.547.24194,1.07124.34383,1.61041l-.10972.05773a9.48538,9.48538,0,0,1-.3519-1.4c-.02862-.15-.06-.17907-.20023-.07975a4.33,4.33,0,0,1-1.04757.61158,11.57565,11.57565,0,0,0-2.77993,1.54655c-.08708.06091-.21374.10715-.22928.24463A1.37728,1.37728,0,0,1,9.796,24.0225a13.8516,13.8516,0,0,1,3.14534-1.72636,4.26628,4.26628,0,0,0,1.03216-.58858.202.202,0,0,0,.08544-.26347,6.18242,6.18242,0,0,0-1.0395-2.09159c-.08428-.11131-.17375-.08514-.28163-.05211a4.65369,4.65369,0,0,0-1.54148.90929,12.80864,12.80864,0,0,0-2.59951,3.13323,1.11072,1.11072,0,0,0-.08275.21454c-.04311.10422-.14812.12526-.233.17345-.11852-.12843-.04073-.2505.01107-.37429A6.031,6.031,0,0,1,9.29788,21.87733Z" style="fill:#373f3f"/><path d="M5.98791,30.29948q.44859-.33979.89522-.68252c.20488-.05235.40915-.10715.6147-.15681a.3797.3797,0,0,1,.5092.23485A3.84325,3.84325,0,0,1,8.398,31.54171a1.43378,1.43378,0,0,1-.45447.12525c-.14684-.002-.24934-.025-.25258-.22139a.33619.33619,0,0,0-.37814-.37355.12009.12009,0,0,1-.13632-.07926c-.09008-.24536-.29429-.271-.51727-.27129-.1-.00025-.2283.05112-.29368-.06043-.1173-.19986-.30279-.17075-.48357-.17173C5.86883,30.399,5.92363,30.34816,5.98791,30.29948Z" style="fill:#434c4b"/><path d="M4.773,6.65909a2.05583,2.05583,0,0,1,.84825.64045c.08153.09614.16409.25025.11419.33857-.0419.07363-.207-.014-.3165-.04355q-1.55154-.41795-3.10405-.832a3.15259,3.15259,0,0,0-.04055-1.038Q3.52346,6.19247,4.773,6.65909Z" style="fill:#434c4b"/><path d="M4.84621,5.00343c.05131.05553.11149.126.08342.20476-.02513.0707-.095.03572-.14947.0181q-1.48383-.48069-2.968-.96066a3.43322,3.43322,0,0,0-.247-1.218c.74974.35692,1.52167.66735,2.24431,1.08078A4.454,4.454,0,0,1,4.84621,5.00343Z" style="fill:#434c4b"/><path d="M4.92437,20.2706a4.22788,4.22788,0,0,1,.902.40119c.16164.08684.23827.07119.34028-.09761.39563-.6539.8134-1.29458,1.223-1.94016.04519-.07144.07418-.1803.178-.16268.08929.01541.08287.126.10017.1957.112.44939.22286.89975.31894,1.35281.07143.33686.13155.40535.4681.31288.26842-.07388.54192.00881.80637-.07926.13491-.04526.11314.091.13344.16782.0219.127-.03321.16561-.15895.16855-.37783.00905-.75633.01957-1.1327.05186-.1869.0159-.252-.05406-.28273-.22457-.07565-.419-.1639-.83566-.2505-1.25251a.83626.83626,0,0,0-.066-.15436.83866.83866,0,0,0-.12672.112A16.44828,16.44828,0,0,0,6.4664,20.504c-.13136.21357-.22634.53085-.4152.60546-.20842.08244-.4695-.15925-.71652-.23362-.30163-.09076-.55189-.22946-.61476-.57292C4.77619,20.21433,4.84621,20.24956,4.92437,20.2706Z" style="fill:#434c4b"/><path d="M11.70945,10.65954c.19277-.047.42474-.16366.5939.07608-.02079.12232-.05106.2439-.06054.36719-.04061.524-.45667.717-.82954.9477a.23792.23792,0,0,1-.1962.00489,4.40639,4.40639,0,0,1-.84673-.26738c-.07638-.01614-.12659-.04281-.04727-.12011A2.18485,2.18485,0,0,1,11.70945,10.65954Z" style="fill:#434c4b"/><path d="M9.04989,21.90962a8.213,8.213,0,0,1,2.42771-2.34038c-.07608.24512-.32181.32218-.48394.48168a24.41209,24.41209,0,0,0-1.69578,1.82641,6.031,6.031,0,0,0-1.00574,1.47928c-.0518.12379-.12959.24586-.01107.37429a1.04825,1.04825,0,0,0-.35593,1.01766,2.20194,2.20194,0,0,1-.05749.4511,2.3936,2.3936,0,0,1,.09589-1.50815A13.95681,13.95681,0,0,1,9.04989,21.90962Z" style="fill:#4f4949"/><path d="M3.09973,18.70349c.1384.0866.26916.18568.40419.2779a.33037.33037,0,0,0,.48162-.0685c.33123-.33661.683-.65365,1.02947-.97509a1.37227,1.37227,0,0,1,.23374-.16929c.06734-.03987.1288-.01272.08679.06679-.10568.20059-.10929.45819-.32628.59738l-.05058.05969q-.563.43117-1.12664.86184c-.05229.03963-.11241.09614-.16972.09736-.18787.00367-.708-.511-.74759-.72264C2.95277,18.55647,3.04059,18.66655,3.09973,18.70349Z" style="fill:#434c4b"/><path d="M3.80219,17.3705a4.27809,4.27809,0,0,1,1.49787-1.29728,28.68553,28.68553,0,0,0,3.30435-1.938c.11327-.0822.23418-.13944.12214-.309-.08348-.12648-.02049-.20721.09516-.283.138-.09076.20249-.01517.28567.07877.0562.06311.08543.19179.21986.13822a.187.187,0,0,0,.18243.06262,1.2204,1.2204,0,0,1,1.19667.833c.02465.05088.0474.103.071.15461a4.81812,4.81812,0,0,1-1.11216,1.00592c-.10231.07045-.16965.12745-.13833.27668a6.32015,6.32015,0,0,1,.10305,1.29923,16.94477,16.94477,0,0,1-.23534,3.029c-.0203-.07682.00147-.21308-.13344-.16782-.26445.08807-.538.00538-.80637.07926-.33655.09247-.39667.024-.4681-.31288-.09608-.45306-.207-.90342-.31894-1.35281-.0173-.06972-.01088-.18029-.10017-.1957-.10379-.01762-.13278.09124-.178.16268-.40957.64558-.82734,1.28626-1.223,1.94016-.102.1688-.17864.18445-.34028.09761a4.22788,4.22788,0,0,0-.902-.40119c-.07816-.021-.14818-.05627-.20445.03229a.62417.62417,0,0,1-.04091-.46945,7.35052,7.35052,0,0,1,.2916-1.28456l-.01193-.05651.05058-.05969c.217-.13919.2206-.39679.32628-.59738.042-.07951-.01945-.10666-.08679-.06679a1.37227,1.37227,0,0,0-.23374.16929c-.34652.32144-.69824.63848-1.02947.97509a.33037.33037,0,0,1-.48162.0685c-.135-.09222-.26579-.1913-.40419-.2779-.05914-.03694-.147-.147-.185.02544-.11124-.11864-.00171-.19277.05871-.272C3.2492,18.09436,3.53885,17.74185,3.80219,17.3705Z" style="fill:#5a5353"/><path d="M6.36549,30.661c.06538.11155.19369.06018.29368.06043.223.00024.42719.02593.51727.27129a.12009.12009,0,0,0,.13632.07926.33619.33619,0,0,1,.37814.37355c.00324.19644.10574.21944.25258.22139a3.6971,3.6971,0,0,0-1.23593.39728H6.591c-.0965-.14384-.04972-.30285-.04941-.457l-.00887-.08635a.50848.50848,0,0,0-.16763.03523c-.22751.14531-.2924.04109-.29069-.17858l-.00856-.13431c-.05853.03034-.11736.06018-.17558.09125-.22029.11767-.26959.08831-.26439-.171a.91744.91744,0,0,1,.256-.6742C6.0627,30.49029,6.24819,30.46118,6.36549,30.661Z" style="fill:#373f3f"/><path d="M10.8288,14.75669l-.04536.04671Z" style="fill:#3d5148"/><path d="M14.466,6.0825a4.963,4.963,0,0,1,1.56564-1.23367V7.50674c-.00031.10813-.00031.21576-.00073.32389l.00073.0022v.22433a.35964.35964,0,0,0-.05645.00342c-.16708-.01272-.28677-.19937-.47623-.1299.01058-.1321-.028-.18787-.158-.10152-.01309-.079.00446-.17882-.12263-.18l-.03865-.06384a1.834,1.834,0,0,0-.1957-.21357c-.18091-.14482-.07443.06605-.11461.09761a2.894,2.894,0,0,0-.64668-1.05583c.00636-.0817-.01933-.1705.0532-.237C14.39807,6.26915,14.429,6.13,14.466,6.0825Z" style="fill:#909997"/><path d="M15.17159,2.47322a.19562.19562,0,0,0,.02893-.16268,1.2061,1.2061,0,0,1,.08439-.78894,1.771,1.771,0,0,1,.62167-.11522l.12507-.05235v2.2714c-.60161-.00049-.64858.0433-.878.61182a4.8671,4.8671,0,0,1-.52651,1.0228,1.19879,1.19879,0,0,1-.10751-.86281A4.97752,4.97752,0,0,1,15.17159,2.47322Z" style="fill:#413b3b"/><path d="M15.15367,4.23725c.2294-.56852.27637-.61231.878-.61182v1.2234A4.963,4.963,0,0,0,14.466,6.0825c-.03706.04746-.06794.18665-.19008.09394.06153-.32683.27448-.59568.35123-.91639A4.8671,4.8671,0,0,0,15.15367,4.23725Z" style="fill:#838c8a"/><path d="M14.86941,7.46931a.88629.88629,0,0,0,.18048.30652c.08684.23387.232.29845.44908.15485.18946-.06947.30915.11718.47623.1299a.35964.35964,0,0,1,.05645-.00342V9.16142a1.19037,1.19037,0,0,1-.61415-.2779c-.21307-.32169-.445-.63066-.66918-.94476a3.24461,3.24461,0,0,1-.51465-1.10867c.01438-.13944-.14182-.27423-.01094-.41661A2.894,2.894,0,0,1,14.86941,7.46931Z" style="fill:#1b1718"/><path d="M15.96982,0l.06152.02153q.00019.66638.00031,1.3325l-.125.05235a1.77136,1.77136,0,0,0-.62173.11522c.11682-.39777.22873-.79676.35282-1.19208A.42679.42679,0,0,1,15.96982,0Z" style="fill:#71b1e1"/><path d="M15.09881,18.83608l.0589.05773a7.10479,7.10479,0,0,1,.81645.75689c.01211.024.03651.02275.05749.02838v.39459q.00036,1.99875-.00012,3.99677a.323.323,0,0,1-.24824-.03938c.06152-.04036.03339-.07975-.004-.115a2.47393,2.47393,0,0,1-.62222-1.608,19.8898,19.8898,0,0,1-.05106-2.54978c-.00324-.31093-.06923-.61354-.06465-.9225C15.06053,18.83559,15.07967,18.83584,15.09881,18.83608Z" style="fill:#4f4949"/><path d="M15.106,19.75834a19.8898,19.8898,0,0,0,.05106,2.54978,2.47393,2.47393,0,0,0,.62222,1.608c.03743.03523.06556.07462.004.115l-.10146-.01566a2.36366,2.36366,0,0,1-.60338-1.22658A8.59492,8.59492,0,0,1,15.001,21.6667c-.05779-1.00054-.07535-2.00475-.13381-3.00626a.37253.37253,0,0,1,.17417.1754C15.03674,19.1448,15.10273,19.44741,15.106,19.75834Z" style="fill:#373f3f"/><path d="M11.1424,29.25c.13412.06654.14855.14482.01309.22506-.181.10715-.36469.20965-.54724.31435a.73965.73965,0,0,1,.0784-.70747A1.45869,1.45869,0,0,1,11.1424,29.25Z" style="fill:#373f3f"/><path d="M14.08983,11.81713a5.5626,5.5626,0,0,0,.97736-.61475.50976.50976,0,0,1,.261-.11449,6.22667,6.22667,0,0,0,.7035.8156v3.61075l-.0611.055q-.78388.20622-1.56759.41294a3.92011,3.92011,0,0,1-.34071-.26616c-.31392-.30334-.72906-.513-.85-.99271-.11522-.457-.24769-.90929-.34089-1.37238-.0159-.07877-.0356-.14164.02324-.21332C13.27,12.67872,13.44817,12.06176,14.08983,11.81713Z" style="fill:#909997"/><path d="M15.91527,10.15071a.31862.31862,0,0,0,.11638.024v1.72881a6.22667,6.22667,0,0,1-.7035-.8156c-.05687-.09614.0115-.1617.06055-.22849C15.56288,10.62236,15.73956,10.38653,15.91527,10.15071Z" style="fill:#434c4b"/><path d="M15.4175,8.88352a1.19037,1.19037,0,0,0,.61415.2779v1.01326a.31913.31913,0,0,1-.11638-.024,7.88034,7.88034,0,0,1-1.163-2.03386c-.02391-.05847-.08678-.11693-.004-.17809C14.97252,8.25286,15.20443,8.56183,15.4175,8.88352Z" style="fill:#838c8a"/><path d="M11.19634,20.20968a4.65369,4.65369,0,0,1,1.54148-.90929c.10788-.033.19735-.0592.28163.05211a6.18242,6.18242,0,0,1,1.0395,2.09159.202.202,0,0,1-.08544.26347,4.26628,4.26628,0,0,1-1.03216.58858A13.8516,13.8516,0,0,0,9.796,24.0225c-.02831-.03743-.05828-.07462-.08476-.11351-.59568-.87872-.40786-.785-1.19717-.35154a1.11072,1.11072,0,0,1,.08275-.21454A12.80864,12.80864,0,0,1,11.19634,20.20968Z" style="fill:#4f4949"/><path d="M15.97055,15.56928l.0611-.055v.215c-.00043.0274-.00049.055-.00049.08171q.00165,1.798-.00012,3.59656c0,.01321-.00006.02642.00061.03987v.23167c-.021-.00563-.04538-.00441-.05749-.02838a7.10479,7.10479,0,0,0-.81645-.75689l-.0589-.05773c-.01914-.00024-.03828-.00049-.05749-.00024a.37253.37253,0,0,0-.17417-.1754,4.13247,4.13247,0,0,0-.46419-2.67822Q15.18676,15.77563,15.97055,15.56928Z" style="fill:#434c4b"/><path d="M15.17966,7.58527l.03871.06384c.01719.07609-.07809.229.12263.18.13-.08635.16855-.03058.158.10152-.21711.1436-.36224.079-.44908-.15485A.29926.29926,0,0,0,15.17966,7.58527Z" style="fill:#b33533"/><path d="M14.984,7.3717a1.82828,1.82828,0,0,1,.19564.21357.29926.29926,0,0,1-.12977.19056.88629.88629,0,0,1-.18048-.30652C14.90959,7.43775,14.80311,7.22688,14.984,7.3717Z" style="fill:#fff"/><path d="M15.341,7.82916c-.20072.04893-.10544-.104-.12263-.18C15.34546,7.65034,15.32791,7.75015,15.341,7.82916Z" style="fill:#282e2d"/><path d="M15.15769,18.8937l-.05889-.05743Z" style="fill:#23302b"/></svg>