<svg xmlns="http://www.w3.org/2000/svg" viewBox="0 0 32 32"><defs><style>.a{fill:#fff;}.b{fill:#f7f7f7;}.c{fill:#edeeee;}.d{fill:#e3e5e5;}.e{fill:#f4f4f6;}.f{fill:#ffe28a;}.g{fill:#ffd96c;}.h{fill:#ffd04d;}.i{fill:#ffeaa7;}.j{fill:#dadddc;}.k{fill:#e8803a;}.l{fill:#724d31;}.m{fill:#604631;}.n{fill:#eef0f2;}.o{fill:#f79654;}.p{fill:#ef8c48;}.q{fill:#dd7731;}.r{fill:#e8ba36;}.s{fill:#f0c13e;}.t{fill:#373f3f;}.u{fill:#2b3332;}.v{fill:#956b65;}.w{fill:#b9686d;}.x{fill:#817558;}.y{fill:#8e805a;}.z{fill:#edc96a;}</style></defs><title>645-landorus-shiny</title><rect class="a" x="12.85883" y="4.93286" width="4.95477" height="3.74023"/><rect class="b" x="17.8136" y="4.93286" width="4.95477" height="3.74023"/><path class="c" d="M14.22066,1.44733c-1.17873.21667-2.34028.52633-3.51039.79061a2.12939,2.12939,0,0,0-1.564,1.95736A9.60661,9.60661,0,0,0,9.2794,5.51512c.17321.326.3441.6532.52162.97693a.15017.15017,0,0,1-.00343.17832c.61357.61517,1.46362.44228,2.19911.64776a10.82277,10.82277,0,0,0,1.33572.20772c.02628-.26779.04442-.53687.083-.80307.01486-.1029.00279-.25726.18735-.2416-.13582-.07829-.27308-.15467-.40674-.2368-.05049-.031-.14564-.046-.12191-.1208.0123-.039.10162-.0671.15978-.076.12535-.01886.2531-.02205.37989-.03164a11.13484,11.13484,0,0,1-.06272-1.8225c.02717-.45475.16307-.51483.54215-.26588a.56452.56452,0,0,0,.0803.0556c.22417.09331.32364.46465.581.38189.20229-.06488.3441-.318.51315-.487.03068-.03068.06312-.05944.09475-.08916a6.63081,6.63081,0,0,1-.19334-1.08749c-.01845-.21379.05377-.25022.24008-.14541a7.512,7.512,0,0,0,.80979.53944,3.41543,3.41543,0,0,1,.98259-.54327c.13151-.23648.27-.46945.392-.71072.03675-.07254.06655-.1045.09635-.10834V.02205A8.8943,8.8943,0,0,1,14.22066,1.44733Z"/><path class="d" d="M17.79632,1.83944c.12407.24032.25845.4752.38844.71264a3.40706,3.40706,0,0,1,.98251.54359,7.54454,7.54454,0,0,0,.80971-.53976c.18607-.10418.25877-.069.24032.14541a6.60583,6.60583,0,0,1-.1935,1.08749c.177.17608.35983.34737.529.53113.09754.10577.16585.10194.26476.00319a2.53492,2.53492,0,0,1,.61533-.47871c.21243-.11025.34865-.08149.37957.1879a9.87461,9.87461,0,0,1-.03979,1.98357c.18751.00831.4466-.04634.52122.11728.04082.08948-.25.20612-.40058.29752a3.57987,3.57987,0,0,1,.16194,1.03,1.69236,1.69236,0,0,0,.26125-.00543,14.046,14.046,0,0,1,2.04428-.3429,1.6892,1.6892,0,0,0,1.60376-1.25942,3.51263,3.51263,0,0,0,.31182-2.00018,2.01277,2.01277,0,0,0-1.721-1.70427c-1.26917-.28026-2.53323-.58481-3.79624-.89255A5.60579,5.60579,0,0,1,19.32091.86c-.51259-.28154-1.02-.573-1.52962-.86h-.06543c-.01175.008-.02421.01406-.03595.02205V1.733C17.723,1.72887,17.7559,1.76115,17.79632,1.83944Z"/><path class="e" d="M15.89356,32q-.00011-.0309-.00121-.06182l.2643.0004L16.15532,32Z"/><path class="c" d="M15.41018,26.45937a10.23813,10.23813,0,0,1-7.08429-3.68911,1.76939,1.76939,0,0,0-.14253-.13134,1.01586,1.01586,0,0,0,.32285,1.41186c.12223.07222.20045.12718.1629.30231-.04027.18727.08037.39594.2646.35792.2531-.05177.2646.09075.32972.239a1.62761,1.62761,0,0,0,2.04931,1.03733c.19366-.04347.27619-.00576.34658.19941.247.72031.7668,1.05521,1.477.60462.1689-.10705.20549.01151.27148.1061a.54194.54194,0,0,0,.71807.25949c.10674-.0473.16018-.01342.20468.08149.06008.12815.12663.2531.19039.37965.67948.64329,1.16307.5781,2.05219.05848.14285-.08373.15875-.09747.17608.07765a1.077,1.077,0,0,0,.69794.86763.25777.25777,0,0,0,.24272-.0115V26.44818A13.13845,13.13845,0,0,1,15.41018,26.45937Z"/><path class="c" d="M16.36729,18.892c-.07638.15307-.13414.1943-.31254.16618-.30743-.04858-.61885.00863-.89455-.23712-.15907-.14189-.3862-.01247-.5197.1422-.14549.16842-.22019.13486-.33315-.03131a1.69858,1.69858,0,0,0-.31286-.28186,1.839,1.839,0,0,0-1.93819.17384,1.02438,1.02438,0,0,0-.38708,1.10348c.0469.22273-.01717.21507-.18575.16969a1.57035,1.57035,0,0,0-1.17178.06711c-.18063.093-.16857-.04059-.18135-.148-.15683.26108.02732.43237.1728.59983a4.63985,4.63985,0,0,0,2.27981,1.307.85174.85174,0,0,0,1.14318-.37709,1.03562,1.03562,0,0,1,.35033-.33523c.17049-.28537.47312-.29432.745-.32372a1.77818,1.77818,0,0,1,1.64091.77879c.31326.67813.31318.67781,1.02182.54742.06815-.01246.13686-.02205.20573-.02972V18.30237A1.464,1.464,0,0,0,16.36729,18.892Z"/><path class="d" d="M18.37922,27.73541c.0087-.09427-.01151-.18407.13637-.08692a1.6219,1.6219,0,0,0,1.72464.27866l.03954.08181c.13686-.29528.43054-.48575.5352-.80468.03132-.09523.11041-.07893.18967-.04378a.51031.51031,0,0,0,.69338-.24415c.11928-.19845.21435-.18375.38229-.0751a.85327.85327,0,0,0,.61469.13614c.469-.0719.6397-.42822.76976-.798.07454-.21156.17-.23553.35312-.18919a1.70446,1.70446,0,0,0,1.5134-.2777,1.96325,1.96325,0,0,0,.55781-.82833c.05217-.1144.06288-.21411.24239-.17608.24519.05209.35289-.14764.32748-.33011a.27119.27119,0,0,1,.16426-.33108A1.02711,1.02711,0,0,0,27.058,22.8575c-.11816-.45187-.29321-.58321-.856-.60462-.17824-.00671-.20772-.04762-.17928-.22945.04842-.3087-.14924-.49246-.45219-.40713-.28641.08053-.23712-.04027-.18119-.21315a.87354.87354,0,0,0-.225-.9814A1.43125,1.43125,0,0,0,23.717,20.084c-.16929.04251-.35153.12559-.24926-.21a.9674.9674,0,0,0-.14661-.75,1.69858,1.69858,0,0,0-1.66375-.63914c-.13342.02844-.28394.109-.34-.10769-.09275.32755-.46752.402-.61628.688-.05177.09938-.12312-.0278-.17369-.06935-.35137-.29081-.44812-.29688-.81434-.00192-.18272.147-.37821-.02428-.55893.04666-.22641.08916-.362.01214-.432-.21795a.55484.55484,0,0,0-.12591-.18854,1.23237,1.23237,0,0,0-.90637-.33171v3.88116l.01941-.00287c.80372-.086,1.52275-.29113,1.82218-1.17442a1.00321,1.00321,0,0,1,.35576-.45539,3.35465,3.35465,0,0,1,2.16293-.84749.30553.30553,0,0,1,.25565.12335,2.42961,2.42961,0,0,1,.80436.41736.63939.63939,0,0,0,.57938.11345.4405.4405,0,0,1,.19453-.00544,1.64743,1.64743,0,0,1,1.03924,2.06442,8.13213,8.13213,0,0,1-2.89545,2.68726,10.58945,10.58945,0,0,1-4.338,1.34442v2.16221c.011-.00511.02205-.00639.03323-.01214A1.06369,1.06369,0,0,0,18.37922,27.73541Z"/><path class="f" d="M17.41851,9.96864a4.02941,4.02941,0,0,0-2.412-.666,1.16614,1.16614,0,0,1-1.26861-.78295c-.05488-.1275-.10018-.27419-.27978-.28249a2.7037,2.7037,0,0,0-1.44885-.1077,2.0297,2.0297,0,0,0-1.60487,1.55023c-.17664.65991-.28242,1.33963-.4792,1.99763a1.44205,1.44205,0,0,0,.06464,1.01974.97365.97365,0,0,1,1.32988-.32756.62707.62707,0,0,1,.26325.56117c.00224.10833-.07574.27035.06455.31733.10482.03515.21643-.07414.31733-.13773.049-.031.05665-.14285.1395-.09492.06647.03835.02452.11345.01549.17736a.90328.90328,0,0,1-.74347.83056,3.99279,3.99279,0,0,0,1.09652.05561,10.72686,10.72686,0,0,0,1.39508-.27036,9.228,9.228,0,0,0,3.0844-1.51443,3.30764,3.30764,0,0,0,.54223-.46721.33284.33284,0,0,1,.19534-.13071V10.05876A.7111.7111,0,0,1,17.41851,9.96864Zm-3.478,2.45685a1.04074,1.04074,0,0,1-.52753.14189c-.1208.00191-.24838.01214-.29744-.1355-.05049-.15243.0763-.22082.167-.28186a.72282.72282,0,0,1,.58273-.12463c.11545.0262.21731.0556.23784.18087C14.12208,12.32259,14.02684,12.382,13.94048,12.42549Zm.18479-2.93812a4.73562,4.73562,0,0,0-1.82722.88041c-.07182.05145-.13661.2074-.22681.11537-.09883-.101-.04762-.24927.06767-.341a2.698,2.698,0,0,1,.70545-.39914,3.80813,3.80813,0,0,1,1.15085-.32021c.01613-.01406.0302-.03643.04865-.04123a.73529.73529,0,0,1,.40809,0Q14.28862,9.43479,14.12527,9.48737Zm1.0382.9814c-.12567-.01087-.3699.00415-.388-.32532-.0135-.24479.16322-.28794.336-.3004.279-.02045.58993.17768.57858.35952C15.6731,10.47356,15.46906,10.48059,15.16347,10.46877Z"/><path class="g" d="M18.02465,11.85921a7.76211,7.76211,0,0,0,1.42912,1.02166,10.89019,10.89019,0,0,0,2.0744.8606,12.29934,12.29934,0,0,0,1.69116.31574,5.08354,5.08354,0,0,0,.92651.069c-.22266-.19814-.51107-.33172-.62667-.63595a1.24257,1.24257,0,0,1-.08557-.20963c-.01446-.08309-.03619-.20421.00711-.24895.0735-.07606.13734.05113.2118.07638a1.92,1.92,0,0,1,.233.11472c.10961.055.16682.05209.18967-.0997.13885-.92452.62955-1.17761,1.44149-.75323a8.98564,8.98564,0,0,0-.54143-2.99532,2.19266,2.19266,0,0,0-2.93348-1.246.514.514,0,0,0-.29552.31957,2.59785,2.59785,0,0,1-.23513.46178.84187.84187,0,0,1-.79588.4557,4.47843,4.47843,0,0,0-2.52867.61677.68969.68969,0,0,1-.49669.07638v1.63747C17.81134,11.67163,17.91768,11.75631,18.02465,11.85921ZM21.4438,9.35954a5.61533,5.61533,0,0,1,2.15031.55989.52746.52746,0,0,1,.34952.53943.3881.3881,0,0,1,.25782.43525c-.02189.13262-.1192.16139-.2376.16874a.37715.37715,0,0,1-.38924-.23393.30181.30181,0,0,1,.17281-.42567,4.98246,4.98246,0,0,0-2.3029-.97915c-.0393-.00959-.07717-.02493-.11576-.03771A.40221.40221,0,0,1,21.4438,9.35954Zm-.06007,2.73679a.57531.57531,0,0,1,.63977-.05369c.158.062.3699.11441.32572.33491-.0437.218-.25493.19174-.43022.18919-.21483-.01534-.438-.02141-.56987-.23265A.17959.17959,0,0,1,21.38373,12.09633Z"/><path class="g" d="M17.68751,18.13044c-.30711-.0048-.49022-.2253-.48351-.60335a1.59616,1.59616,0,0,1,.34569-1.02646.213.213,0,0,1,.14022-.09395V13.42254a.4479.4479,0,0,0-.11944.03867c-.65927.37677-1.32462.743-1.98317,1.12073a.46164.46164,0,0,1-.53752.01918,7.202,7.202,0,0,1-1.18192-.79254,10.72308,10.72308,0,0,1-1.395.27036c.25981.46593.50588.94049.78214,1.39652a6.24536,6.24536,0,0,1,.73949,3.1746,1.69858,1.69858,0,0,1,.31286.28186c.113.16617.18766.19973.33315.03131.1335-.15467.36063-.28409.5197-.1422.2757.24575.58712.18854.89455.23712.1784.02812.23616-.01311.31254-.16618a1.464,1.464,0,0,1,1.32262-.5896v-.17225Z"/><path class="h" d="M18.59628,18.63408a.55484.55484,0,0,1,.12591.18854c.07.23009.20557.30711.432.21795.18072-.07094.37621.10035.55893-.04666.36622-.295.463-.28889.81434.00192.05057.04155.12192.16873.17369.06935.14876-.286.52353-.36048.61636-.688a4.8639,4.8639,0,0,1,.559-2.11555,10.62624,10.62624,0,0,0,.98763-1.97143.2923.2923,0,0,1,.3552-.233,12.29934,12.29934,0,0,1-1.69116-.31574,5.35755,5.35755,0,0,1-1.35673.93506c-.12024.07127-.20532-.015-.29568-.069-.63331-.37773-1.27085-.74907-1.89521-1.14118a.33294.33294,0,0,0-.29064-.04379v2.98414a.18675.18675,0,0,1,.14532.08692,1.64546,1.64546,0,0,1,.41616.906c-.00184.5193-.203.73533-.56148.73054v.17225A1.23237,1.23237,0,0,1,18.59628,18.63408Z"/><path class="i" d="M17.64541,7.72431c-.16946-.01822-.33108-.01055-.37909.20708-.03739.16937-.08605.3365-.12559.50556-.01958.08372-.00416.21091-.08373.233-.092.02525-.11537-.10578-.16266-.17065-.10858-.14956-.20525-.30742-.31054-.45954-.04259-.06136-.10075-.16713-.14181-.16266-.07822.00863-.07878.11441-.09308.18887-.01222.06327-.02372.1601-.08636.15658-.08013-.00447-.09635-.10449-.118-.17736-.13686-.25853-.28042-.51354-.408-.77623-.07158-.14732-.14229-.22018-.27611-.0703-.243.27227-.4716.23136-.74683.02173-.35321-.26876-.739-.4947-1.11082-.73917-.18456-.01566-.17249.1387-.18735.2416-.03859.2662-.05673.53528-.083.80307q.06291.35568.12567.71137c.1796.0083.2249.155.27978.28249a1.16614,1.16614,0,0,0,1.26861.78295,4.02941,4.02941,0,0,1,2.412.666.7111.7111,0,0,0,.2714.09012V7.72431C17.67513,7.724,17.65971,7.7259,17.64541,7.72431Z"/><path class="f" d="M18.1866,9.98238a4.47843,4.47843,0,0,1,2.52867-.61677.84187.84187,0,0,0,.79588-.4557,2.59785,2.59785,0,0,0,.23513-.46178.514.514,0,0,1,.29552-.31957c-.14557-.22561.05385-.44452.01342-.6679a3.5772,3.5772,0,0,0-.162-1.03c-.44748.28538-.90342.55893-1.33876.86188-.20156.14061-.3572.16745-.52657-.02109-.22226-.24735-.33411-.13742-.43924.11632-.09428.22785-.22961.43877-.3469.65735-.02165.07287-.03787.17289-.118.17736-.06263.00352-.07414-.09331-.08636-.15658-.01422-.07446-.01358-.16842-.09427-.19111-.02589-.007-.08149.0882-.12224.13806a3.57937,3.57937,0,0,1-.49413.6663,3.67067,3.67067,0,0,1-.20245-.74907c-.07566-.263-.266-.20261-.43437-.2058v2.33445A.68969.68969,0,0,0,18.1866,9.98238Z"/><path class="d" d="M17.44719,28.62189a1.077,1.077,0,0,1-.69794-.86763c-.01733-.17512-.03323-.16138-.17608-.07765-.88912.51962-1.37271.58481-2.05219-.05848a1.30069,1.30069,0,0,0,1.33276,1.44477,1.3431,1.3431,0,0,1,.79006.27227.79552.79552,0,0,1,.2904.78678.56877.56877,0,0,1-.47727.54583c-.21276.039-.29257.19973-.37749.36974a.64108.64108,0,0,1-.97125.37325l-.00192.06647a1.26857,1.26857,0,0,0,.78606.46082q.13218.00048.26428.00032a1.466,1.466,0,0,0,.82984-.47871,2.22342,2.22342,0,0,1,.70346-.48127v-2.368A.25777.25777,0,0,1,17.44719,28.62189Z"/><path class="j" d="M18.70781,29.857a1.3969,1.3969,0,0,1,.252-.79221,2.05606,2.05606,0,0,1,.88569-.64266.73562.73562,0,0,0,.43429-.4132l-.03954-.08181a1.6219,1.6219,0,0,1-1.72464-.27866c-.14788-.09715-.12767-.00735-.13637.08692a1.06369,1.06369,0,0,1-.65608.86284c-.01118.00575-.02221.007-.03323.01214v2.368a1.15689,1.15689,0,0,1,.16353-.07606C18.58726,30.72785,18.69183,30.61281,18.70781,29.857Z"/><path class="k" d="M24.07522,13.12311c-.02285.15179-.08006.15467-.18967.0997a1.92,1.92,0,0,0-.233-.11472c-.07446-.02525-.1383-.15244-.2118-.07638-.0433.04474-.02157.16586-.00711.24895a1.24257,1.24257,0,0,0,.08557.20963c.1156.30423.404.43781.62667.63595a1.13713,1.13713,0,0,0,1.359-1.10444c.02325-.21538.00887-.43461.01182-.65192C24.70477,11.9455,24.21407,12.19859,24.07522,13.12311Z"/><path class="l" d="M17.48418,22.21325c-.70864.13039-.70856.13071-1.02182-.54742a.78128.78128,0,0,1-.6993.18951,2.39908,2.39908,0,0,1-1.6866-.64458,1.03562,1.03562,0,0,0-.35033.33523.85174.85174,0,0,1-1.14318.37709,4.63985,4.63985,0,0,1-2.27981-1.307c-.14548-.16746-.32963-.33875-.1728-.59983-.01063-.3282.10242-.64841.06071-.97821a1.61717,1.61717,0,0,1-1.44461-1.10507c-.04034-.139.02037-.25309.01574-.379a2.92981,2.92981,0,0,0-.61461.02046c-.27044.06455-.39794-.05625-.5181-.26269A7.11824,7.11824,0,0,1,6.92809,15.363c-.02021-.08405-.04418-.16714-.06647-.25054-.18663-.00767-.21619-.16011-.25909-.29145a4.33164,4.33164,0,0,1-.19342-1.63811c.01071-.16586.05129-.32884.26013-.3608a11.70634,11.70634,0,0,1,.32285-2.48976c-.00056-.01853-.0008-.03675-.00072-.055a.47482.47482,0,0,1-.24647-.49629,2.19682,2.19682,0,0,1,.76081-1.46394.3212.3212,0,0,1,.5062.00191A4.71251,4.71251,0,0,1,9.79759,6.67037.15017.15017,0,0,0,9.801,6.49205c-.17752-.32373-.34841-.651-.52162-.97693-.29288.2432-.58681.48479-.87865.72926a8.71156,8.71156,0,0,0-3.4464,6.44987v.13038l.00008.131v.26205l-.00079.26428.00087.39307-.00079.131a15.22151,15.22151,0,0,0,1.99059,6.83175,20.77892,20.77892,0,0,0,1.23905,1.80109,1.76939,1.76939,0,0,1,.14253.13134,10.23813,10.23813,0,0,0,7.08429,3.68911,13.13845,13.13845,0,0,0,2.27973-.01119V22.18353C17.621,22.1912,17.55233,22.20079,17.48418,22.21325Z"/><path class="m" d="M24.92335,22.4165a1.64743,1.64743,0,0,0-1.03924-2.06442.4405.4405,0,0,0-.19453.00544.63939.63939,0,0,1-.57938-.11345,2.42961,2.42961,0,0,0-.80436-.41736.45894.45894,0,0,1-.26236.34929,4.07219,4.07219,0,0,1-1.8857.60526c-.12911.01119-.29544-.01949-.27052-.23041a1.00321,1.00321,0,0,0-.35576.45539c-.29943.88329-1.01846,1.08845-1.82218,1.17442l-.01941.00287v4.26465a10.58945,10.58945,0,0,0,4.338-1.34442A8.13213,8.13213,0,0,0,24.92335,22.4165Z"/><path class="n" d="M15.1082,31.41075l-.002.06647a.22463.22463,0,0,1-.129-.13152l.00028-.00026A.13244.13244,0,0,1,15.1082,31.41075Z"/><path class="n" d="M14.97725,31.3457l-.02732-.0153.0276.015Z"/><path class="i" d="M17.28988,3.06818a.32281.32281,0,0,1-.08836-.5161,3.41543,3.41543,0,0,0-.98259.54327.53539.53539,0,0,1-.20229.63051.5151.5151,0,0,1-.65424.06295c-.03163.02972-.06407.05848-.09475.08916-.16905.169-.31086.42215-.51315.487-.25733.08276-.3568-.28858-.581-.38189a.56452.56452,0,0,1-.0803-.0556c-.37908-.24895-.515-.18887-.54215.26588a11.13484,11.13484,0,0,0,.06272,1.8225c.96182-.085,1.92461-.16074,2.885-.25949a2.374,2.374,0,0,0,.93426-.43749.42049.42049,0,0,1,.25686-.06647v-2.044A.66751.66751,0,0,1,17.28988,3.06818ZM14.30782,4.99806a2.08192,2.08192,0,0,1-.218.35888c-.03947.054-.05968.16138-.1466.13709-.03747-.01022-.07063-.11057-.07039-.17a6.2039,6.2039,0,0,1-.07254-.80339c.009-.06743-.027-.16011.09219-.17577.2082.05976.32517.239.47441.37646C14.49621,4.84051,14.34593,4.91433,14.30782,4.99806Zm2.76564.22913a.75118.75118,0,0,1-.66415.403.9275.9275,0,0,1-.74412-.41224c-.18622-.30647-.04737-.61134.04666-.91014.03252-.10322.09715-.08468.17688-.03451a10.60884,10.60884,0,0,0,1.1328.71008C17.14192,5.03993,17.12978,5.12845,17.07346,5.22719Z"/><path class="f" d="M20.37964,5.882q.6965.06711,1.393.1339a9.87461,9.87461,0,0,0,.03979-1.98357c-.03092-.26939-.16714-.29815-.37957-.1879a2.53492,2.53492,0,0,0-.61533.47871c-.09891.09875-.16722.10258-.26476-.00319-.16914-.18376-.35193-.355-.529-.53113a.51449.51449,0,0,1-.65408-.06295.53543.53543,0,0,1-.20245-.63019,3.40706,3.40706,0,0,0-.98251-.54359.32275.32275,0,0,1-.08828.5161.66714.66714,0,0,1-.40657.14029v2.044a.22767.22767,0,0,1,.13294.03355A4.89574,4.89574,0,0,0,20.37964,5.882Zm.86092-1.38373c.09-.05817.177-.179.27443-.14381.14261.05177.04162.21028.06152.27355a1.22572,1.22572,0,0,1-.04882.4589c-.0262.14221.03188.30327-.09954.42087-.0902-.11887-.17617-.24095-.27156-.35536C20.94775,4.90187,20.94767,4.68744,21.24056,4.49826Zm-2.851.47168a8.29053,8.29053,0,0,0,1.04875-.65959c.14364-.09491.22577-.11377.266.086.032.15883.08165.31446.11193.42791a.79359.79359,0,0,1-.67357.77911A.74425.74425,0,0,1,18.3133,5.232C18.25227,5.11183,18.25786,5.0313,18.38952,4.96994Z"/><path class="o" d="M17.59356,1.84136c-.12208.24127-.26053.47424-.392.71072a.32281.32281,0,0,0,.08836.5161.66751.66751,0,0,0,.4.14029V1.733C17.66011,1.73686,17.63031,1.76882,17.59356,1.84136Z"/><path class="p" d="M18.09648,3.06818a.32275.32275,0,0,0,.08828-.5161c-.13-.23744-.26437-.47232-.38844-.71264-.04042-.07829-.07334-.11057-.10641-.10642V3.20847A.66714.66714,0,0,0,18.09648,3.06818Z"/><path class="o" d="M16.21892,3.09544a.53513.53513,0,0,1-.20226.63032.51493.51493,0,0,1-.65425.063A6.62943,6.62943,0,0,1,15.169,2.70145c-.01844-.21382.05383-.25042.24013-.14548A7.50348,7.50348,0,0,0,16.21892,3.09544Z"/><path class="p" d="M19.977,2.55591a7.54454,7.54454,0,0,1-.80971.53976.53543.53543,0,0,0,.20245.63019.51449.51449,0,0,0,.65408.06295,6.60583,6.60583,0,0,0,.1935-1.08749C20.23575,2.48689,20.163,2.45173,19.977,2.55591Z"/><path class="o" d="M16.46236,21.6658a.78205.78205,0,0,1-.69926.1895,2.39866,2.39866,0,0,1-1.68667-.64456c.17054-.28513.47318-.2941.745-.32368A1.77843,1.77843,0,0,1,16.46236,21.6658Z"/><path class="p" d="M19.88726,20.55085c-.02492.21092.14141.2416.27052.23041a4.07219,4.07219,0,0,0,1.8857-.60526.45894.45894,0,0,0,.26236-.34929.30553.30553,0,0,0-.25565-.12335A3.35465,3.35465,0,0,0,19.88726,20.55085Z"/><path class="k" d="M17.49457,11.82694a3.30764,3.30764,0,0,1-.54223.46721,9.22762,9.22762,0,0,1-3.08448,1.51443,7.202,7.202,0,0,0,1.18192.79254.46164.46164,0,0,0,.53752-.01918c.65855-.37773,1.3239-.744,1.98317-1.12073a.4479.4479,0,0,1,.11944-.03867V11.69623A.33284.33284,0,0,0,17.49457,11.82694Z"/><path class="q" d="M17.98055,13.46633c.62436.39211,1.2619.76345,1.89521,1.14118.09036.054.17544.14029.29568.069a5.35755,5.35755,0,0,0,1.35673-.93506,10.89019,10.89019,0,0,1-2.0744-.8606,7.76211,7.76211,0,0,1-1.42912-1.02166c-.107-.1029-.21331-.18758-.33474-.163v1.72631A.33294.33294,0,0,1,17.98055,13.46633Z"/><path class="p" d="M11.37633,14.02333c-.84822-.03839-1.12687-.67224-1.38645-1.32622a.97357.97357,0,0,1,1.32981-.32753.62716.62716,0,0,1,.26324.56127c.00224.10828-.07574.27021.06454.31715.10484.03508.21647-.07417.31736-.1377.049-.03083.05667-.14284.13949-.09484.06645.03851.02453.11346.01549.17733A.9031.9031,0,0,1,11.37633,14.02333Z"/><path class="r" d="M23.59411,9.91943a5.61533,5.61533,0,0,0-2.15031-.55989.40221.40221,0,0,0-.115.02685c.03859.01278.07646.02812.11576.03771a4.98246,4.98246,0,0,1,2.3029.97915c.06543.01854.13078.03739.19621.05593A.52761.52761,0,0,0,23.59411,9.91943Z"/><path class="k" d="M22.0235,12.04264a.57531.57531,0,0,0-.63977.05369.17959.17959,0,0,0-.0346.23776c.1319.21124.355.21731.56987.23265.17529.00255.38652.02876.43022-.18919C22.3934,12.15705,22.18153,12.10464,22.0235,12.04264Z"/><path class="p" d="M15.16346,10.46869c-.12565-.0107-.36989.00435-.388-.3253-.01347-.24474.16321-.28779.336-.30044.279-.02042.58994.17784.57859.35965C15.67312,10.47372,15.46909,10.48071,15.16346,10.46869Z"/><path class="p" d="M13.41312,12.567c-.12095.00226-.24855.01261-.29757-.13526-.0505-.15233.07624-.22063.16694-.28174a.72193.72193,0,0,1,.58269-.12468c.11548.02609.21736.05574.23789.181.019.11609-.07623.17559-.16258.219A1.03587,1.03587,0,0,1,13.41312,12.567Z"/><path class="k" d="M23.94363,10.45918c-.06543-.01854-.13078-.03739-.19621-.05593a.30181.30181,0,0,0-.17281.42567.37715.37715,0,0,0,.38924.23393c.1184-.00735.21571-.03612.2376-.16874A.38754.38754,0,0,0,23.94363,10.45918Z"/><path class="s" d="M14.04388,9.38159c-.01849.00464-.03253.0271-.04864.04126a3.80693,3.80693,0,0,0-1.15088.32031,2.70289,2.70289,0,0,0-.70544.39893c-.1153.0918-.16657.24023-.06769.34106.09015.09205.155-.064.22687-.11523a4.73238,4.73238,0,0,1,1.82721-.88037q.16332-.0531.32666-.106A.7386.7386,0,0,0,14.04388,9.38159Z"/><path class="k" d="M17.54969,16.50063a1.59616,1.59616,0,0,0-.34569,1.02646c-.00671.378.1764.59855.48351.60335l.0024-.00032V16.40668A.213.213,0,0,0,17.54969,16.50063Z"/><path class="q" d="M18.25139,17.39958a1.64546,1.64546,0,0,0-.41616-.906.18675.18675,0,0,0-.14532-.08692v1.72344C18.04838,18.13491,18.24955,17.91888,18.25139,17.39958Z"/><path class="t" d="M17.37321,6.52049a.71733.71733,0,0,0-1.09125.43525,3.18947,3.18947,0,0,0-.13741,1.08941c.02165.07287.03787.17289.118.17736.06264.00352.07414-.09331.08636-.15658.0143-.07446.01486-.18024.09308-.18887.04106-.00447.09922.1013.14181.16266.10529.15212.202.31.31054.45954.04729.06487.0707.1959.16266.17065.07957-.02205.06415-.14924.08373-.233.03954-.16906.0882-.33619.12559-.50556.048-.21763.20963-.2253.37909-.20708.0143.00159.02972-.00032.0445,0V6.58888A.64429.64429,0,0,1,17.37321,6.52049Z"/><path class="u" d="M18.12428,7.93011a3.67067,3.67067,0,0,0,.20245.74907,3.57937,3.57937,0,0,0,.49413-.6663c.04075-.04986.09635-.14509.12224-.13806.08069.02269.08.11665.09427.19111.01222.06327.02373.1601.08636.15658.08013-.00447.09635-.10449.118-.17768a4.06891,4.06891,0,0,0-.09067-.96765.78175.78175,0,0,0-1.203-.55062.6463.6463,0,0,1-.25813.06232V7.72431C17.85832,7.7275,18.04862,7.6671,18.12428,7.93011Z"/><path class="o" d="M8.01189,8.31915a4.05038,4.05038,0,0,1-.16874.94489,2.20414,2.20414,0,0,1-.72075.93105c-.03138-.0328-.05085-.01689-.06615.01615l-.06487.06618a.47485.47485,0,0,1-.24647-.4963A2.19774,2.19774,0,0,1,7.50574,8.317.32108.32108,0,0,1,8.01189,8.31915Z"/><path class="o" d="M8.76217,17.55388a.48794.48794,0,0,1,.573.04409,2.561,2.561,0,0,1,.86586.98208.42.42,0,0,1-.00994.458,1.61734,1.61734,0,0,1-1.44464-1.10515C8.70612,17.79392,8.76685,17.67991,8.76217,17.55388Z"/><path class="o" d="M6.66927,12.82217a1.25981,1.25981,0,0,1,.51431,1.158,1.67225,1.67225,0,0,1-.322,1.13216c-.18662-.00758-.21622-.16-.25909-.29125a4.333,4.333,0,0,1-.19345-1.63831C6.41979,13.017,6.46042,12.85394,6.66927,12.82217Z"/><path class="v" d="M6.99138,10.27742l.0649-.06621.00187.04587-.066.07517Q6.99127,10.30483,6.99138,10.27742Z"/><path class="w" d="M7.05815,10.25708l-.00187-.04587c.01527-.033.03474-.04892.06612-.01612Z"/><path class="g" d="M16.40932,5.63a.92652.92652,0,0,1-.74413-.41218c-.18619-.30624-.04741-.61128.04668-.91007.03253-.10328.09711-.08457.17683-.03432a10.65991,10.65991,0,0,0,1.13283.71012c.12038.0563.10822.14482.05189.24363A.75035.75035,0,0,1,16.40932,5.63Zm.07335-.59091L16.42,5.10481l-.00249.19576.06428.06677c.11023.10011.19551.05522.271-.04663l.04438-.08395.00165-.0681-.04479-.08774-.05939-.04977a.12736.12736,0,0,0-.20975.00925Z"/><path class="h" d="M19.43827,4.31035a8.29053,8.29053,0,0,1-1.04875.65959c-.13166.06136-.13725.14189-.07622.262a.74425.74425,0,0,0,.82929.37134.79359.79359,0,0,0,.67357-.77911c-.03028-.11345-.08-.26908-.11193-.42791C19.664,4.19658,19.58191,4.21544,19.43827,4.31035Zm-.53376,1.05713c-.04706.062-.11561.05689-.182.05817l-.08229-.04986c-.09922-.31637-.034-.4001.26429-.33938l.06159.06775.00264.19621Z"/><path class="s" d="M13.89246,4.34473c.20822.0598.32517.23934.47443.37679.1293.11907-.021.19281-.05907.27645a2.079,2.079,0,0,1-.218.359c-.03952.05408-.05974.16129-.14667.13725-.03743-.01035-.07058-.1107-.07035-.17a6.20253,6.20253,0,0,1-.07251-.80337C13.80924,4.45313,13.77326,4.36058,13.89246,4.34473Z"/><path class="r" d="M21.515,4.35445c-.09739-.03515-.18447.08564-.27443.14381-.29289.18918-.29281.40361-.084.65415.09539.11441.18136.23649.27156.35536.13142-.1176.07334-.27866.09954-.42087a1.22572,1.22572,0,0,0,.04882-.4589C21.55661,4.56473,21.6576,4.40622,21.515,4.35445Z"/><path class="x" d="M16.75282,5.32071l.0444-.084Z"/><path class="x" d="M16.79885,5.16866l-.0448-.08764Z"/><path class="t" d="M16.754,5.08105l-.05933-.0498a.12725.12725,0,0,0-.20978.00928l-.00225-.00147L16.42,5.10474l-.0025.1958.06427.06665c.11023.10034.1955.05542.271-.04639l.04443-.084.00159-.06812Zm-.25916.20362a.22042.22042,0,0,1,.06983-.16944h.00012a.11537.11537,0,0,0,.03406-.00537L16.676,5.178C16.66937,5.30469,16.599,5.32349,16.49487,5.28467Z"/><path class="u" d="M18.96613,5.104l-.06165-.06762c-.29828-.06079-.36346.02295-.26428.33935l.08221.05c.06647-.00146.135.00366.18207-.05835l.06427-.06714Zm-.23108.21631.00024-.00049c-.02148-.07568-.03668-.16479.06464-.176.07293-.00806.09314.072.09149.14087C18.83917,5.29639,18.78705,5.30859,18.73505,5.32031Z"/><path class="y" d="M18.96609,5.10406l-.06156-.06753Z"/><path class="z" d="M16.49486,5.28466a.22038.22038,0,0,1,.0699-.16947A.11563.11563,0,0,0,16.599,5.1099l.077.06812C16.66935,5.30484,16.599,5.3235,16.49486,5.28466Z"/><path class="x" d="M16.676,5.178l-.077-.06812Z"/><path class="z" d="M18.79993,5.14379c-.1013.01118-.08613.10034-.06495.1764.052-.01151.10418-.02365.15643-.03547C18.89308,5.21569,18.87287,5.1358,18.79993,5.14379Z"/></svg>