<svg xmlns="http://www.w3.org/2000/svg" viewBox="0 0 32 32"><defs><style>.a{fill:#604631;}.b{fill:#724d31;}.c{fill:#d6712d;}.d{fill:#dd7731;}.e{fill:#956b65;}.f{fill:#b9686d;}.g{fill:#ffd04d;}.h{fill:#edeeee;}.i{fill:#e8803a;}.j{fill:#e3e5e5;}.k{fill:#ffd96c;}.l{fill:#f7c845;}.m{fill:#f7f7f7;}.n{fill:#2b3332;}.o{fill:#ef8c48;}.p{fill:#ffe28a;}.q{fill:#373f3f;}.r{fill:#f79654;}</style></defs><title>645-landorus-therian-shiny</title><path class="a" d="M13.60249.05072A10.91493,10.91493,0,0,0,9.13014,1.4366,8.38456,8.38456,0,0,0,6.145,4.20736,1.69822,1.69822,0,0,0,7.21637,6.33552.45368.45368,0,0,0,7.417,6.33a.65961.65961,0,0,1,.5973.117,2.5072,2.5072,0,0,0,.8293.43016A.4734.4734,0,0,1,9.1141,6.517a4.1975,4.1975,0,0,1,1.9441-.62372c.13309-.01158.30456.01988.27889.23735a1.035,1.035,0,0,0,.36679-.46942c.30872-.91067,1.05-1.1221,1.8786-1.2107l.02-.003c.071-.00806.14183-.01787.21212-.03071.73058-.13441.73051-.13466,1.05351.56432a.80594.80594,0,0,1,.721-.19532l.05386.00679V.02731A13.53818,13.53818,0,0,0,13.60249.05072Z"/><path class="b" d="M26.73252,13.69108q.00037-.13668.00082-.2726l-.00088-.40524.00082-.13517A15.69131,15.69131,0,0,0,24.681,5.83488a21.442,21.442,0,0,0-1.2774-1.85707,1.80117,1.80117,0,0,1-.147-.13542A10.55555,10.55555,0,0,0,15.95284.03914c-.10414-.00831-.20621-.00579-.30991-.01183V4.79257a2.40832,2.40832,0,0,1,1.685.65771,1.06784,1.06784,0,0,0,.3612-.34559.87824.87824,0,0,1,1.1786-.38889,4.785,4.785,0,0,1,2.35042,1.34763c.15.17267.33986.34937.17814.61844.01095.33829-.10559.66852-.06255,1.00858A1.667,1.667,0,0,1,22.823,8.82966c.04159.14347-.021.261-.01624.39065a3.01051,3.01051,0,0,0,.63367-.0209c.27882-.0667.41028.0579.53418.27084a7.33473,7.33473,0,0,1,.72308,2.0091c.02083.08659.04556.17217.06853.25825.19243.0078.22288.16512.26712.30054a4.4646,4.4646,0,0,1,.19941,1.68868c-.011.17116-.05285.33905-.26819.372a12.06854,12.06854,0,0,1-.33288,2.56688c.00063.01913.00088.038.00076.05688a.48937.48937,0,0,1,.25409.51147,2.26381,2.26381,0,0,1-.78437,1.50922.331.331,0,0,1-.52185-.00176,4.86032,4.86032,0,0,1-1.841,1.69975.15463.15463,0,0,0-.00353.18375c.183.33376.35918.671.53777,1.00732.302-.2507.605-.49989.90588-.75209a8.9812,8.9812,0,0,0,3.55319-6.64953v-.13441l-.00013-.13516Z"/><path class="c" d="M15.64293,4.79257v.8266a1.89533,1.89533,0,0,0,.9169.16487c.28027-.03046.59226-.03952.76807-.33351A2.40712,2.40712,0,0,0,15.64293,4.79257Z"/><path class="d" d="M15.589,4.78578a.80621.80621,0,0,0-.72094.19557,1.46994,1.46994,0,0,0,.77487.63782v-.8266Z"/><path class="d" d="M11.33707,6.13075c.0257-.21745-.14579-.24908-.2789-.23755a4.19831,4.19831,0,0,0-1.94411.624.47317.47317,0,0,0-.2705.36012.315.315,0,0,0,.26358.12717A3.45862,3.45862,0,0,0,11.33707,6.13075Z"/><path class="c" d="M23.58035,18.74141a4.1757,4.1757,0,0,1,.174-.97417,2.27231,2.27231,0,0,1,.74309-.95989c.03235.03381.05242.0174.06819-.01666l.06688-.06823a.48954.48954,0,0,1,.2541.51168,2.26579,2.26579,0,0,1-.78439,1.50951A.331.331,0,0,1,23.58035,18.74141Z"/><path class="c" d="M22.80682,9.22057a.503.503,0,0,1-.5907-.04546,2.6403,2.6403,0,0,1-.89268-1.0125.43291.43291,0,0,1,.01025-.47223,1.66742,1.66742,0,0,1,1.48938,1.13938C22.86461,8.9731,22.802,9.09064,22.80682,9.22057Z"/><path class="c" d="M24.96457,14.09888a1.29887,1.29887,0,0,1-.53025-1.19389,1.7241,1.7241,0,0,1,.33193-1.16724c.1924.00782.22292.16493.26711.30027a4.46709,4.46709,0,0,1,.19945,1.68907C25.22178,13.898,25.17989,14.06612,24.96457,14.09888Z"/><path class="e" d="M24.63248,16.72246l-.06691.06826-.00193-.04728.06808-.07751Q24.63261,16.69421,24.63248,16.72246Z"/><path class="f" d="M24.56364,16.74344l.00193.04728c-.01574.034-.03581.05044-.06816.01663Z"/><path class="g" d="M20.09659,25.12047h3.55689a10.37,10.37,0,0,1-.82974-3.60315c-.00277-.05789-.01208-.11251-.01617-.16965-.79413-.03524-1.4317-1.01487-1.4317-2.22506a3.09353,3.09353,0,0,1,.22843-1.18226,8.7846,8.7846,0,0,0-.84793-1.04935l-5.11344.40725v5.25131l2.438-1.49235,1.79534.88272v1.39646c.42658-.03449.41047.64008.29877,1.46794Z"/><path class="g" d="M19.73451,26.58061l-.54884,2.21273h5.26559a6.74976,6.74976,0,0,0-.25133-2.44682l-1.74808,1.38941Z"/><path class="d" d="M23.65348,25.12047H20.09659l-.36208,1.46014,2.71734,1.15532,1.74808-1.38941a4.88442,4.88442,0,0,0-.54645-1.22605Z"/><path class="d" d="M22.80757,21.34767a6.76781,6.76781,0,0,0-1.20327-3.40732,3.09353,3.09353,0,0,0-.22843,1.18226C21.37587,20.3328,22.01344,21.31243,22.80757,21.34767Z"/><path class="d" d="M18.08088,21.05721l-2.438,1.49235v2.19461a8.3122,8.3122,0,0,0,2.98138-.47673,2.51256,2.51256,0,0,0,1.25191-.931V21.93993Z"/><path class="h" d="M22.30268,28.79334c-.12906-.71862-1.97526-1.4551-1.84447-.73347-.79117-.72717-3.04155-.11754-2.26737.73347-.66426-.25951-.35062.96377.22874,1.14374-.83628.32848.69475,1.01513,1.31493.68388-.78895.57414,1.57432.84649,2.23271.44628.63095.49057,3.34238-.218,2.908-.64462.7.17091,1.60337-.69445.8737-.85907.299-.50366-.17706-1.22152-.48538-.77021.16666-.94893-1.24773-1.82662-1.40763-1.05741C23.51984,27.10314,22.127,28.18144,22.30268,28.79334Z"/><path class="i" d="M22.626,30.42514c0-.57112-1.32013-.57112-1.32013,0L21.966,32Z"/><path class="i" d="M21.19635,30.42514c0-.57112-1.32013-.57112-1.32013,0L20.53628,32Z"/><path class="i" d="M24.03364,30.3893c0-.57111-1.32013-.57111-1.32013,0l.66007,1.57487Z"/><path class="j" d="M21.82737,7.86286H15.64293v6.47887h3.54274l3.6219-1.20113A5.29158,5.29158,0,0,0,21.82737,7.86286Z"/><path class="k" d="M19.67668,10.51583a4.51007,4.51007,0,0,0-1.972,1.12461c0-.37529-1.0143-.56734-2.06171-.57967v7.935a4.06334,4.06334,0,0,0,3.63939-5.873A2.66048,2.66048,0,0,0,19.67668,10.51583Z"/><path class="l" d="M16.56511,14.54436c-.21975,1.74311,2.75933.89016,1.143-1.3358Z"/><path class="m" d="M19.28232,12.9858c-.54657,2.33179-1.161,2.85131-2.55662,2.85811l-1.08277-1.50218v3.657l1.43138-1.42591.63385,3.03a3.30106,3.30106,0,0,0,1.17257-3.09345l1.74311.99776C21.23568,15.26549,20.35251,13.63344,19.28232,12.9858Z"/><ellipse class="n" cx="17.25595" cy="14.49845" rx="0.29565" ry="0.45302"/><path class="o" d="M15.64293,8.543v4.54024A6.48787,6.48787,0,0,0,15.64293,8.543Z"/><path class="o" d="M16.96009,12.35025a3.96038,3.96038,0,0,0,0-2.77177A3.9665,3.9665,0,0,0,16.96009,12.35025Z"/><path class="k" d="M11.18927,25.12047H7.63238a10.37,10.37,0,0,0,.82974-3.60315c.00277-.05789.01208-.11251.01617-.16965C9.27242,21.31243,9.91,20.3328,9.91,19.12261a3.09372,3.09372,0,0,0-.22842-1.18226,8.7845,8.7845,0,0,1,.84792-1.04935l5.11344.40725v5.25131L13.205,21.05721l-1.79535.88272v1.39646c-.42657-.03449-.41047.64008-.29877,1.46794Z"/><path class="k" d="M11.55135,26.58061l.54884,2.21273H6.8346a6.75,6.75,0,0,1,.25133-2.44682L8.834,27.73593Z"/><path class="i" d="M7.63238,25.12047h3.55689l.36208,1.46014L8.834,27.73593,7.08593,26.34652a4.88478,4.88478,0,0,1,.54645-1.22605Z"/><path class="i" d="M8.47829,21.34767a6.76772,6.76772,0,0,1,1.20328-3.40732A3.09372,3.09372,0,0,1,9.91,19.12261C9.91,20.3328,9.27242,21.31243,8.47829,21.34767Z"/><path class="i" d="M13.205,21.05721l2.43794,1.49235v2.19461a8.3121,8.3121,0,0,1-2.98137-.47673,2.51254,2.51254,0,0,1-1.25192-.931V21.93993Z"/><path class="m" d="M8.98318,28.79334c.12906-.71862,1.97527-1.4551,1.84447-.73347.79117-.72717,3.04155-.11754,2.26737.73347.66427-.25951.35063.96377-.22873,1.14374.83627.32848-.69476,1.01513-1.31494.68388.78895.57414-1.57432.84649-2.23271.44628-.631.49057-3.34238-.218-2.908-.64462-.7.17091-1.60337-.69445-.8737-.85907-.299-.50366.17706-1.22152.48538-.77021-.16666-.94893,1.24773-1.82662,1.40763-1.05741C7.766,27.10314,9.1589,28.18144,8.98318,28.79334Z"/><path class="o" d="M8.65985,30.42514c0-.57112,1.32013-.57112,1.32013,0L9.31991,32Z"/><path class="o" d="M10.08951,30.42514c0-.57112,1.32013-.57112,1.32013,0L10.74958,32Z"/><path class="o" d="M7.25222,30.3893c0-.57111,1.32013-.57111,1.32013,0l-.66007,1.57487Z"/><path class="h" d="M9.45849,7.86286h6.18444v6.47887H12.10019L8.47829,13.1406A5.29158,5.29158,0,0,1,9.45849,7.86286Z"/><path class="p" d="M11.60918,10.51583a4.51,4.51,0,0,1,1.972,1.12461c0-.37529,1.01431-.56734,2.06171-.57967v7.935a4.06335,4.06335,0,0,1-3.63939-5.873A2.6605,2.6605,0,0,1,11.60918,10.51583Z"/><path class="g" d="M14.72075,14.54436c.21975,1.74311-2.75932.89016-1.143-1.3358Z"/><path class="m" d="M12.00354,12.9858c.54657,2.33179,1.16105,2.85131,2.55662,2.85811l1.08277-1.50218v3.657l-1.43138-1.42591-.63385,3.03a3.30106,3.30106,0,0,1-1.17257-3.09345l-1.74311.99776C10.05019,15.26549,10.93335,13.63344,12.00354,12.9858Z"/><ellipse class="q" cx="14.02991" cy="14.49845" rx="0.29565" ry="0.45302"/><path class="r" d="M15.64293,8.543v4.54024A6.48787,6.48787,0,0,1,15.64293,8.543Z"/><path class="r" d="M14.32577,12.35025a3.96038,3.96038,0,0,1,0-2.77177A3.9665,3.9665,0,0,1,14.32577,12.35025Z"/></svg>