<svg xmlns="http://www.w3.org/2000/svg" viewBox="0 0 32 32"><title>646-kyurem-shiny</title><path d="M22.15055,27.59662a.88634.88634,0,0,0-.72627.49409.59454.59454,0,0,0,.42457.39528c.22023.08075.44.16324.66.24486h.11937l-.0102-.17985A1.35474,1.35474,0,0,0,22.15055,27.59662Z" style="fill:#909997"/><path d="M30.6203,8.19189c.00138.10465.03921.21484-.04533.30666q-.00908.17971-.01829.35884l.02478-.00641c.22817-.20143.44235-.42268.68831-.59962.25572-.18394.43266-.46232.73014-.59175V7.59985q-.71349.08789-1.42691.17607A.74839.74839,0,0,1,30.6203,8.19189Z" style="fill:#e3dbf4"/><path d="M29.97069,8.37525c-.02515-.193-.18081-.20551-.32539-.24253A5.13653,5.13653,0,0,1,27.51,7.23606c-.09787-.08192-.21578-.14546-.22628-.29355a.84363.84363,0,0,1-.57644.18511,14.62979,14.62979,0,0,0-1.75026.0411,1.52868,1.52868,0,0,0-.79317.42559,4.58645,4.58645,0,0,0-.46721.49672.97586.97586,0,0,1-.479.27751q-.39691.12156-.7931.24545c-.06362.01982-.15246.02565-.1647.10027-.01115.06763.07754.07813.12352.11077a.9444.9444,0,0,1,.36547.6244.36544.36544,0,0,1,.05918.358c.01486.06238.09554.125.03141.186-.049.04664-.10808-.01487-.157-.03965a1.16335,1.16335,0,0,0-.622-.14633c-.264.021-.4221-.18365-.62236-.29821a.981.981,0,0,1-.25528.42938,1.82,1.82,0,0,0-.31206,1.51465,12.19274,12.19274,0,0,0,.26272,1.784.64406.64406,0,0,1-.12979.47748,2.145,2.145,0,0,0-.35039,1.32605,1.30031,1.30031,0,0,1-.24246.69261c-.03891.07754-.12243.13555-.09991.23874q.23272-.15741.46546-.31453c.23364-.135.39367.035.53789.15916a1.96577,1.96577,0,0,0,.671.44541c.28363-.01865.49381-.221.75281-.30112a6.08307,6.08307,0,0,1-1.19873-1.4648c-.25536-.47777-.23415-.86022.038-1.09517a.9256.9256,0,0,1,1.07724.10611c.09066.06.17884.12359.26826.18568a1.696,1.696,0,0,0-.62775-.80542,1.50589,1.50589,0,0,1,.0247-2.16994,2.57234,2.57234,0,0,1,2.20748-.51888A2.02,2.02,0,0,0,26.414,9.91992a1.48687,1.48687,0,0,1,1.14145-.20231c.74924.086,1.49082.21951,2.23772.31774-.0223-.13875.07754-.21221.15719-.29791a1.09313,1.09313,0,0,0,.13847-1.18292Z" style="fill:#9179c6"/><path d="M21.98527,16.26213a1.96577,1.96577,0,0,1-.671-.44541c-.14422-.12418-.30425-.29413-.53789-.15916.13278.01778.12272.09415.08679.193a9.29092,9.29092,0,0,1-1.65835,3.143,4.33832,4.33832,0,0,1-.51319.60312c.008.11777.0094.2367.02514.35359a3.322,3.322,0,0,0,1.03971,2.03294,6.23466,6.23466,0,0,0,1.20143.6037c.23911.07317.49264-.01632.71433.11339a4.22911,4.22911,0,0,0,.66856-1.07943,3.66094,3.66094,0,0,0-.1134-3.86241A1.77408,1.77408,0,0,1,21.98527,16.26213Z" style="fill:#373f3f"/><path d="M21.6722,22.70025c-.22169-.12971-.47522-.04022-.71433-.11339a6.23466,6.23466,0,0,1-1.20143-.6037c-.1072.23349-.19763.47631-.32487.69815a1.03488,1.03488,0,0,0,.24325,1.3893c.05007.04809.09175.10523.14218.15274a2.547,2.547,0,0,1,.6803,2.41656c-.03943.25419-.12076.50313-.147.7582a.45324.45324,0,0,0,.40213.5623c.22066.05626.44767.08775.67184.1303a.88634.88634,0,0,1,.72627-.49409.3341.3341,0,0,1,.35921-.17024c.0661-.01632.15267.01807.18758-.0755a3.02612,3.02612,0,0,1-.88857-1.89185A13.57762,13.57762,0,0,1,21.6722,22.70025Z" style="fill:#2b3332"/><path d="M23.995,16.29332a1.07336,1.07336,0,0,1-.21768-.50634,4.19306,4.19306,0,0,0-.85446-2.09415c-.08942-.06209-.1776-.12564-.26826-.18568a.9256.9256,0,0,0-1.07724-.10611c-.27219.23495-.2934.6174-.038,1.09517a6.08307,6.08307,0,0,0,1.19873,1.4648.66027.66027,0,0,1,.29551.65238,1.60486,1.60486,0,0,0,.11128.639,12.51538,12.51538,0,0,0,.60414,1.44789,2.85777,2.85777,0,0,1,.43339.59262c.10771.03819.14356-.03527.1765-.11339a3.31981,3.31981,0,0,1,.12353-.77977c-.00212-.1886.006-.37808-.00831-.56551A2.85872,2.85872,0,0,0,23.995,16.29332Z" style="fill:#757f7e"/><path d="M23.1652,28.17671c-.05123-.11573-.1037-.23087-.1534-.34747a.72914.72914,0,0,0-.502-.40286.3341.3341,0,0,0-.35921.17024,1.35474,1.35474,0,0,1,.4675.95438c.01968-.037.00867-.11252.087-.07987.13526.05655.28553.18073.41263.11077C23.26453,28.50144,23.06033,28.30643,23.1652,28.17671Z" style="fill:#9da5a4"/><path d="M24.48243,18.39972a3.31981,3.31981,0,0,0-.12353.77977c.21273.07113.34405.25623.52347.374.07251.0478.15172.16091.22045.11543.07892-.05189.03439-.18073.014-.27314A1.52046,1.52046,0,0,0,24.48243,18.39972Z" style="fill:#dadddc"/><path d="M23.45255,19.77853c.00386.17082.0677.14429.175.07491a1.952,1.952,0,0,0,.55488-.56056,2.85777,2.85777,0,0,0-.43339-.59262A1.54419,1.54419,0,0,0,23.45255,19.77853Z" style="fill:#dadddc"/><path d="M30.08889,8.55452a1.09328,1.09328,0,0,1-.13854,1.18292c-.07965.0857-.17949.15916-.15719.29791a2.00807,2.00807,0,0,0,.63941-.45037c.20318-.19735.1158-.48477.14889-.734l-.02478.00641A1.862,1.862,0,0,1,30.08889,8.55452Z" style="fill:#745da6"/><path d="M22.69734,27.35088c-.03491.09357-.12148.05918-.18758.0755a.72914.72914,0,0,1,.502.40286c.0497.1166.10217.23174.1534.34747q.14943.09793.29872.1956l.00641-.18744C23.39177,27.56951,23.21082,27.3742,22.69734,27.35088Z" style="fill:#abb2b1"/><path d="M18.49934,19.71031c.05779-.0446.09561-.13175.19225-.11368a4.33832,4.33832,0,0,0,.51319-.60312,9.29092,9.29092,0,0,0,1.65835-3.143c.03593-.09882.046-.17519-.08679-.193q-.23273.15741-.46546.31453c-.57091.39294-1.07.87392-1.6061,1.30943A1.161,1.161,0,0,1,17.208,17.362c-.274-.19268-.524-.41947-.7848-.6311a.17779.17779,0,0,1-.12-.11718l-.24114-.06035-.05838-.058v3.391c.4914.04023.98382.07113,1.47391.1236A1.36568,1.36568,0,0,0,18.49934,19.71031Z" style="fill:#434c4b"/><path d="M16.30316,16.61369c.06486-.00059.13234-.01021.178.05334.213.04635.42961.08075.63832.14167a.87536.87536,0,0,0,.94425-.27285c.38435-.40285.76454-.81008,1.1612-1.2004a1.05569,1.05569,0,0,0,.302-.62469c.12425-.77394.25287-1.54759.40016-2.31715a3.91223,3.91223,0,0,0-.09562-2.11019q-.63816-.56536-1.3248-1.0704a.92425.92425,0,0,0,.43062,1.16747,2.99039,2.99039,0,0,1,.89243.56231.6621.6621,0,0,1-.3447.95933,3.18205,3.18205,0,0,1-.86233.34981c.11514.01341.12177.07083.07506.16382a7.48023,7.48023,0,0,1-.64532,1.16834,2.21887,2.21887,0,0,1-.75921.50313c-.36766.21018-.74042.41161-1.111.61682-.04336.0688-.11354.05685-.17855.05976v1.73153l.05838.058Z" style="fill:#505957"/><path d="M19.81686,3.29582a3.72154,3.72154,0,0,0-1.72467,1.43711c-.51159.63955-1.031,1.273-1.54708,1.909a7.13422,7.13422,0,0,1-.41933,3.02784c-.01836.07317-.03461.13147-.12214.13v1.78224a.57143.57143,0,0,1,.05809-.281,9.62269,9.62269,0,0,1,.78931-.99986,3.20731,3.20731,0,0,0,.55633-.97478,2.45645,2.45645,0,0,1,.83516-1.092,1.54617,1.54617,0,0,0,.55137-1.1456,3.54714,3.54714,0,0,1,.44695-1.40417,5.928,5.928,0,0,0,.5857-1.91575.41213.41213,0,0,1,.0497-.1029l.01283-.2367A.1568.1568,0,0,0,19.81686,3.29582Z" style="fill:#e3dbf4"/><path d="M17.85177,12.49621c.15712-.21133.31511-.4113.6252-.36379.14932.02274.21556-.08774.25047-.2058a2.63263,2.63263,0,0,1,.26818-.52733.86927.86927,0,0,1,.83406-.45649,2.99039,2.99039,0,0,0-.89243-.56231A.92425.92425,0,0,1,18.50663,9.213c-.12374-.3087.0368-.59553.06879-.89228a.67244.67244,0,0,0-.47777.69494,2.36951,2.36951,0,0,0,.02893.58883,2.39258,2.39258,0,0,1-.08876,1.101,2.43509,2.43509,0,0,1-.304.5384c-.00285.11923-.1083.18481-.14823.28451a.43893.43893,0,0,1-.15144.20521c-.0513.0962-.01312.27693-.21673.22971-.00816.093-.01239.1886-.12855.218-.05976.081-.09139.21105-.23955.13672a1.0863,1.0863,0,0,1-.78151.35155l-.06421-.00029v.90132c.19057-.04751.37888-.10873.57215-.13992A2.00373,2.00373,0,0,0,17.85177,12.49621Z" style="fill:#d4c9ef"/><path d="M16.36168,11.4197c.00437-.11165.08986-.16733.16018-.2335a3.26089,3.26089,0,0,1,.70485-.783c.04876-.04431.09744-.0892.14619-.13351.09729-.20434.19327-.409.29267-.61215.03294-.06734.038-.17928.1244-.18074.09226-.00175.09131.11136.11922.18015a2.77917,2.77917,0,0,1,.12863,1.04854,2.39258,2.39258,0,0,0,.08876-1.101,2.36951,2.36951,0,0,1-.02893-.58883.67244.67244,0,0,1,.47777-.69494c.21892-.12943.47522-.20959.57244-.4874a4.204,4.204,0,0,1,.45737-.83253A9.35393,9.35393,0,0,0,20.369,5.76309l-.07972-.08045q-.32259.21075-.64517.42239l-.03935.02652c-.02514-.04139-.00175-.06588.02988-.08774A5.64181,5.64181,0,0,0,19.87625,3.666a.41213.41213,0,0,0-.0497.1029,5.928,5.928,0,0,1-.5857,1.91575,3.54714,3.54714,0,0,0-.44695,1.40417,1.54617,1.54617,0,0,1-.55137,1.1456,2.45645,2.45645,0,0,0-.83516,1.092,3.20731,3.20731,0,0,1-.55633.97478,9.62269,9.62269,0,0,0-.78931.99986c-.01975.03614-.03936.07316-.05809.11018v1.25813l.06421.00029A3.775,3.775,0,0,1,16.36168,11.4197Z" style="fill:#a78edd"/><path d="M29.24965,4.49972a.75432.75432,0,0,1,.24458.89229c.29594-.17781.59313-.35388.88689-.5352.07091-.04372.2117-.05363.18518-.151-.01356-.04956-.16849-.074-.26257-.086C29.95305,4.57435,29.60113,4.53908,29.24965,4.49972Z" style="fill:#e3dbf4"/><path d="M30.50414,7.72461c-.35877.06851-.4573.35039-.53345.65064l.1182.17927a1.862,1.862,0,0,0,.46779.30287q.00918-.17926.01829-.35884a.17956.17956,0,0,1-.29238-.12272c-.031-.10931-.05611-.24574.06413-.323.15384-.09853.19189.07229.27358.139a.74779.74779,0,0,0-.04737-.416Z" style="fill:#866eba"/><path d="M29.20549,4.49185c-.16761-.00145-.211.15567-.30921.24282-.00007.11748-.00481.23554.00066.35272.01669.3603.19457.47865.5419.3638l.05539-.05918a.75432.75432,0,0,0-.24458-.89229A.15216.15216,0,0,0,29.20549,4.49185Zm.22737.56756c-.01311.10669-.00881.26177-.184.26614-.19559.005-.20616-.17636-.20478-.30141.00124-.11223.01421-.29092.19655-.2746C29.39373,4.76324,29.43512,4.897,29.43286,5.05941Z" style="fill:#866eba"/><path d="M29.39541,6.93973a.42878.42878,0,0,1-.17291-.53833c.09192-.31079.146-.63282.21631-.9502-.34729.11475-.52521-.00366-.54187-.36377-.00549-.11719-.00073-.23535-.00067-.35278.09827-.08716.1416-.24414.3092-.24268-.06518-.07739-.13049-.15429-.19574-.23144-.17932.08691-.13153.26953-.174.41406A5.23519,5.23519,0,0,1,28.13,5.9617c-.27459.334-.56323.65478-.84619.98071.0105.1482.12842.21167.22626.2937a5.1345,5.1345,0,0,0,2.13525.89649c.14459.03711.30023.0498.32538.24267.07617-.30029.17468-.582.53345-.65063C30.13473,7.46292,29.76675,7.199,29.39541,6.93973Z" style="fill:#745da6"/><path d="M19.60472,6.13155l.03935-.02652-.00947-.06122C19.603,6.06567,19.57958,6.09016,19.60472,6.13155Z" style="fill:#85b4a4"/><path d="M20.35257,5.62376l-.06333.05888.07972.08045.06486-.13292.00736-.0446C20.39957,5.56662,20.373,5.58936,20.35257,5.62376Z" style="fill:#85b4a4"/><polygon points="16 9.801 16 9.814 16 9.814 16 9.801" style="fill:#e9e891"/><path d="M16.12578,9.66981A7.13308,7.13308,0,0,0,16.545,6.642q-.21229-1.449-.42341-2.8984c-.01093-.07579-.0239-.13759-.118-.135V9.79982C16.09117,9.80128,16.10742,9.743,16.12578,9.66981Z" style="fill:#c976a3"/><path d="M30.34672,8.05285c-.12024.07724-.0951.21367-.06413.323a.17956.17956,0,0,0,.29238.12272c.08454-.09182.04671-.202.04533-.30666C30.53861,8.12514,30.50056,7.95432,30.34672,8.05285Z" style="fill:#d786b3"/><path d="M22.68735,9.57041a4.30913,4.30913,0,0,1-.34164-.4425.92118.92118,0,0,0-.60829-.38041c-.18394-.05306-.31212.00233-.30389.22882.00649.17753.00335.35535.00452.53287.20026.11456.3584.3192.62236.29821a1.16335,1.16335,0,0,1,.622.14633c.049.02478.10807.08629.157.03965.06413-.06093-.01655-.1236-.03141-.186Z" style="fill:#745da6"/><path d="M22.808,9.8074a.36544.36544,0,0,0-.05918-.358.12831.12831,0,0,1-.06151.121Z" style="fill:#c6b7e9"/><path d="M28.1195,4.48777c-.24785.34689-.50525.68707-.75237,1.03483a.85776.85776,0,0,1-.74632.353c-.18969.0035-.22358-.05655-.15478-.22037.09218-.21979.18044-.44134.26147-.66521.02974-.08191.063-.19327-.00641-.2539-.06544-.05713-.14517.02828-.21236.06267a7.983,7.983,0,0,1-1.16834.52179,1.97738,1.97738,0,0,0-1.04176.841,6.28988,6.28988,0,0,1-1.97318,1.73881c-.06821.04256-.15894.13584-.2364.05393-.06683-.07084.003-.17082.04175-.24574a4.09314,4.09314,0,0,0,.25879-1.80673c.00262-.06938-.00139-.16-.08017-.172-.08453-.01282-.09692.0857-.12527.14488-.23692.49322-.53032.95438-.80141,1.42836a2.35313,2.35313,0,0,0-.47238,1.01705,1.57888,1.57888,0,0,1-.57543,1.16543,1.38094,1.38094,0,0,0-.5035.79784,3.91223,3.91223,0,0,1,.09562,2.11019c-.14729.76956-.27591,1.54321-.40016,2.31715a1.05569,1.05569,0,0,1-.302.62469c-.39666.39032-.77685.79755-1.1612,1.2004a.87536.87536,0,0,1-.94425.27285c-.20871-.06092-.4253-.09532-.63832-.14167-.04562-.06355-.1131-.05393-.178-.05334a.17779.17779,0,0,0,.12.11718c.26082.21163.51078.43842.7848.6311a1.161,1.161,0,0,0,1.49679-.08045c.53607-.43551,1.03519-.91649,1.6061-1.30943-.02252-.10319.061-.1612.09991-.23874a1.30031,1.30031,0,0,0,.24246-.69261,2.145,2.145,0,0,1,.35039-1.32605.64406.64406,0,0,0,.12979-.47748,12.19274,12.19274,0,0,1-.26272-1.784,1.82,1.82,0,0,1,.31206-1.51465.981.981,0,0,0,.25528-.42938c-.00117-.17752.002-.35534-.00452-.53287-.00823-.22649.11995-.28188.30389-.22882a.92118.92118,0,0,1,.60829.38041,4.31829,4.31829,0,0,0,.34157.4425.12824.12824,0,0,0,.06158-.121.9444.9444,0,0,0-.36547-.6244c-.046-.03264-.13467-.04314-.12352-.11077.01224-.07462.10108-.08045.1647-.10027q.39615-.12418.7931-.24545a.97586.97586,0,0,0,.479-.27751,4.58645,4.58645,0,0,1,.46721-.49672,1.52868,1.52868,0,0,1,.79317-.42559,14.62979,14.62979,0,0,1,1.75026-.0411.84363.84363,0,0,0,.57644-.18511c.283-.3259.57164-.64684.84623-.9809a5.23273,5.23273,0,0,0,.7058-1.287c.04242-.14458-.00539-.32706.174-.41393A.70064.70064,0,0,0,28.1195,4.48777Z" style="fill:#c6b7e9"/><path d="M17.29318,14.08723a2.21887,2.21887,0,0,0,.75921-.50313,7.48023,7.48023,0,0,0,.64532-1.16834c.04671-.093.04008-.15041-.07506-.16382a.3434.3434,0,0,0-.28589.12884c-.0747.07871-.15793.15012-.22759.2332a4.26691,4.26691,0,0,1-1.98645,1.38114l-.00014.00029c-.03965-.00554-.07929-.01078-.11894-.016v.78443c.065-.00291.13519.009.17855-.05976C16.55276,14.49884,16.92552,14.29741,17.29318,14.08723Z" style="fill:#5c6664"/><path d="M18.10917,12.614c.06966-.08308.15289-.15449.22759-.2332a.3434.3434,0,0,1,.28589-.12884,3.18205,3.18205,0,0,0,.86233-.34981.6621.6621,0,0,0,.3447-.95933.86927.86927,0,0,0-.83406.45649,2.63263,2.63263,0,0,0-.26818.52733c-.03491.11806-.10115.22854-.25047.2058-.31009-.04751-.46808.15246-.6252.36379a2.00373,2.00373,0,0,1-1.276.93456c-.19327.03119-.38158.09241-.57215.13992v.40869l.11908.01574A4.26691,4.26691,0,0,0,18.10917,12.614Z" style="fill:#9d85d3"/><path d="M17.79,9.47683c-.08643.00146-.09146.1134-.1244.18074-.0994.20317-.19538.40781-.29267.61215a3.8152,3.8152,0,0,1-.17417.92261c-.07069.28858-.25383.31511-.48834.28334-.11667-.01575-.23254-.037-.34878-.056a3.77663,3.77663,0,0,0-.29376,1.25,1.0863,1.0863,0,0,0,.78151-.35155c-.0016-.10086-.07535-.23408.05379-.286.09-.03643.15369.06005.18568.14925.11624-.02944.12047-.125.12863-.218a.371.371,0,0,1-.02587-.08512c-.006-.1029-.12331-.23466-.0148-.29937.10976-.06559.17017.0994.2574.15478a.43893.43893,0,0,0,.15144-.20521c-.01436-.0551-.03236-.10961-.042-.16558-.0102-.05859-.07893-.12826.00954-.17461.07011-.03673.12426.02362.18074.05568a2.43509,2.43509,0,0,0,.304-.5384A2.77917,2.77917,0,0,0,17.90919,9.657C17.88128,9.58819,17.88223,9.47508,17.79,9.47683Z" style="fill:#434c4b"/><path d="M17.17679,11.57886c-.10851.06471.00882.19647.0148.29937a.371.371,0,0,0,.02587.08512c.20361.04722.16543-.13351.21673-.22971C17.347,11.67826,17.28655,11.51327,17.17679,11.57886Z" style="fill:#dadddc"/><path d="M16.90315,12.03214c-.12914.05189-.05539.18511-.05379.286.14816.07433.17979-.05568.23947-.13672C17.05684,12.09219,16.99315,11.99571,16.90315,12.03214Z" style="fill:#dadddc"/><path d="M17.54358,11.36285c.00969.056.02769.11048.042.16558.03993-.0997.14538-.16528.14823-.28451-.05648-.03206-.11063-.09241-.18074-.05568C17.46465,11.23459,17.53338,11.30426,17.54358,11.36285Z" style="fill:#dadddc"/><path d="M17.13271,10.86992c-.12513.45154-.15392.46378-.61078.31628-.07039.06617-.15588.12185-.16032.2335.11624.01894.23211.04022.34878.056.23451.03177.41765.00524.48834-.28334a3.8152,3.8152,0,0,0,.17417-.92261c-.04875.04431-.09743.0892-.14619.13351C17.196,10.55889,17.17505,10.71747,17.13271,10.86992Z" style="fill:#2b3332"/><path d="M16.52193,11.1862c.45686.1475.48565.13526.61078-.31628.04234-.15245.06332-.311.094-.46669A3.25913,3.25913,0,0,0,16.52193,11.1862Z" style="fill:#e2a1c8"/><path d="M29.24062,4.74954c-.18234-.01632-.19531.16237-.19655.2746-.00138.125.00919.30636.20478.30141.1752-.00437.1709-.15945.184-.26614C29.43512,4.897,29.39373,4.76324,29.24062,4.74954Z" style="fill:#d786b3"/><path d="M9.84945,27.57a.88632.88632,0,0,1,.72627.49409.59456.59456,0,0,1-.42457.39528c-.22023.08075-.44.16324-.66.24486H9.37175l.0102-.17986A1.35474,1.35474,0,0,1,9.84945,27.57Z" style="fill:#838c8a"/><path d="M1.3797,8.16522c-.00138.10465-.03921.21484.04533.30666q.00907.17971.01829.35884l-.02478-.00641c-.22817-.20143-.44235-.42268-.68831-.59962C.47451,8.04075.29757,7.76236.00009,7.63294V7.57318q.71349.08789,1.42691.17607A.74839.74839,0,0,0,1.3797,8.16522Z" style="fill:#f1edfa"/><path d="M2.02931,8.34857c.02515-.193.18081-.2055.32539-.24253A5.1364,5.1364,0,0,0,4.49,7.20938c.09787-.08191.21578-.14546.22628-.29354a.84362.84362,0,0,0,.57644.1851,14.6298,14.6298,0,0,1,1.75026.04111,1.52861,1.52861,0,0,1,.79317.42559,4.58552,4.58552,0,0,1,.46721.49672.97594.97594,0,0,0,.479.27751q.39691.12156.7931.24544c.06362.01983.15246.02566.1647.10028.01115.06763-.07754.07812-.12352.11077a.9444.9444,0,0,0-.36547.6244.36544.36544,0,0,0-.05918.358c-.01486.06238-.09554.125-.03141.186.049.04664.10808-.01486.157-.03964a1.16326,1.16326,0,0,1,.622-.14633c.264.021.4221-.18365.62236-.29821a.9811.9811,0,0,0,.25528.42938,1.82,1.82,0,0,1,.31206,1.51465,12.19274,12.19274,0,0,1-.26272,1.784.64408.64408,0,0,0,.12979.47748,2.145,2.145,0,0,1,.35039,1.32605,1.30031,1.30031,0,0,0,.24246.69261c.03891.07754.12243.13554.09991.23874q-.23273-.15741-.46546-.31453c-.23364-.135-.39367.035-.53789.15916a1.96592,1.96592,0,0,1-.671.44541c-.28363-.01866-.49381-.221-.75281-.30112a6.08307,6.08307,0,0,0,1.19873-1.4648c.25536-.47777.23415-.86022-.038-1.09517a.92559.92559,0,0,0-1.07724.1061c-.09066.06005-.17884.1236-.26826.18569a1.69592,1.69592,0,0,1,.62775-.80542,1.50589,1.50589,0,0,0-.0247-2.16994,2.57231,2.57231,0,0,0-2.20748-.51888A2.02007,2.02007,0,0,1,5.586,9.89325a1.48683,1.48683,0,0,0-1.14145-.20231c-.74924.086-1.49082.2195-2.23772.31774.0223-.13876-.07754-.21221-.15719-.29792a1.09311,1.09311,0,0,1-.13847-1.18291Z" style="fill:#9d85d3"/><path d="M10.01473,16.23546a1.96592,1.96592,0,0,0,.671-.44541c.14422-.12418.30425-.29413.53789-.15916-.13278.01778-.12272.09415-.08679.193a9.29092,9.29092,0,0,0,1.65835,3.143,4.3389,4.3389,0,0,0,.51319.60312c-.008.11776-.0094.2367-.02514.35359a3.322,3.322,0,0,1-1.03971,2.03294,6.2358,6.2358,0,0,1-1.20143.6037c-.23911.07316-.49264-.01633-.71433.11339a4.22911,4.22911,0,0,1-.66856-1.07943,3.66094,3.66094,0,0,1,.1134-3.86241A1.77409,1.77409,0,0,0,10.01473,16.23546Z" style="fill:#434c4b"/><path d="M10.3278,22.67358c.22169-.12972.47522-.04023.71433-.11339a6.2358,6.2358,0,0,0,1.20143-.6037c.1072.23349.19763.47631.32487.69814a1.03488,1.03488,0,0,1-.24325,1.3893c-.05007.0481-.09175.10524-.14218.15275a2.547,2.547,0,0,0-.6803,2.41656c.03943.25419.12076.50313.147.75819a.45325.45325,0,0,1-.40213.56231c-.22066.05626-.44767.08774-.67184.1303A.88632.88632,0,0,0,9.84945,27.57a.3341.3341,0,0,0-.35921-.17024c-.0661-.01633-.15267.01807-.18758-.0755a3.02614,3.02614,0,0,0,.88857-1.89185A13.57766,13.57766,0,0,0,10.3278,22.67358Z" style="fill:#373f3f"/><path d="M8.005,16.26665a1.0734,1.0734,0,0,0,.21768-.50634,4.193,4.193,0,0,1,.85446-2.09415c.08942-.06209.1776-.12564.26826-.18569a.92559.92559,0,0,1,1.07724-.1061c.27219.23495.2934.6174.038,1.09517a6.08307,6.08307,0,0,1-1.19873,1.4648.66027.66027,0,0,0-.29551.65238,1.60478,1.60478,0,0,1-.11128.639,12.5148,12.5148,0,0,1-.60414,1.4479,2.85777,2.85777,0,0,0-.43339.59262c-.10771.03819-.14356-.03527-.1765-.11339a3.31973,3.31973,0,0,0-.12353-.77977c.00212-.1886-.006-.37808.00831-.56552A2.85871,2.85871,0,0,1,8.005,16.26665Z" style="fill:#838c8a"/><path d="M8.8348,28.15c.05123-.11573.1037-.23087.1534-.34748a.72916.72916,0,0,1,.502-.40285.3341.3341,0,0,1,.35921.17024,1.35474,1.35474,0,0,0-.4675.95437c-.01968-.037-.00867-.11252-.087-.07987-.13526.05655-.28553.18073-.41263.11077C8.73547,28.47477,8.93967,28.27975,8.8348,28.15Z" style="fill:#909997"/><path d="M7.51757,18.37305a3.31973,3.31973,0,0,1,.12353.77977c-.21273.07112-.34405.25623-.52347.374-.07251.04781-.15172.16091-.22045.11544-.07892-.05189-.03439-.18073-.014-.27314A1.52043,1.52043,0,0,1,7.51757,18.37305Z" style="fill:#e3e5e5"/><path d="M8.54745,19.75185c-.00386.17082-.0677.1443-.175.07492a1.9521,1.9521,0,0,1-.55488-.56056,2.85777,2.85777,0,0,1,.43339-.59262A1.54416,1.54416,0,0,1,8.54745,19.75185Z" style="fill:#e3e5e5"/><path d="M1.91111,8.52785a1.09326,1.09326,0,0,0,.13854,1.18291c.07965.08571.17949.15916.15719.29792a2.00807,2.00807,0,0,1-.63941-.45037c-.20318-.19735-.1158-.48477-.14889-.734l.02478.00641A1.862,1.862,0,0,0,1.91111,8.52785Z" style="fill:#7a63ad"/><path d="M9.30266,27.32421c.03491.09357.12148.05917.18758.0755a.72916.72916,0,0,0-.502.40285c-.0497.11661-.10217.23175-.1534.34748q-.14943.09794-.29872.19559l-.00641-.18743C8.60823,27.54284,8.78918,27.34753,9.30266,27.32421Z" style="fill:#9da5a4"/><path d="M13.50066,19.68364c-.05779-.0446-.09561-.13176-.19225-.11368a4.3389,4.3389,0,0,1-.51319-.60312,9.29092,9.29092,0,0,1-1.65835-3.143c-.03593-.09882-.046-.17519.08679-.193q.23272.15741.46546.31453c.57091.39294,1.07.87392,1.6061,1.30942a1.161,1.161,0,0,0,1.49679.08046c.274-.19268.524-.41947.7848-.6311a.17782.17782,0,0,0,.12-.11719l.24114-.06034.05838-.058v3.39105c-.4914.04023-.98382.07113-1.47391.1236A1.36568,1.36568,0,0,1,13.50066,19.68364Z" style="fill:#505957"/><path d="M15.69684,16.587c-.06486-.00058-.13234-.0102-.178.05335-.213.04635-.42961.08074-.63832.14167a.87536.87536,0,0,1-.94425-.27285c-.38435-.40285-.76454-.81008-1.1612-1.2004a1.05571,1.05571,0,0,1-.302-.62469c-.12425-.77394-.25287-1.54759-.40016-2.31716a3.91219,3.91219,0,0,1,.09562-2.11018q.63816-.56536,1.3248-1.0704a.92425.92425,0,0,1-.43062,1.16747,2.99039,2.99039,0,0,0-.89243.56231.6621.6621,0,0,0,.3447.95933,3.18171,3.18171,0,0,0,.86233.3498c-.11514.01341-.12177.07084-.07506.16383a7.48068,7.48068,0,0,0,.64532,1.16834,2.219,2.219,0,0,0,.75921.50313c.36766.21018.74042.4116,1.111.61682.04336.0688.11354.05684.17855.05976v1.73152l-.05838.058Z" style="fill:#5c6664"/><path d="M12.18314,3.26915a3.72152,3.72152,0,0,1,1.72467,1.4371c.51159.63956,1.03105,1.273,1.54708,1.90905a7.13424,7.13424,0,0,0,.41933,3.02784c.01836.07316.03461.13146.12214.13v1.78224a.57149.57149,0,0,0-.05809-.281,9.62258,9.62258,0,0,0-.78931-.99985,3.20731,3.20731,0,0,1-.55633-.97478,2.45645,2.45645,0,0,0-.83516-1.092,1.54617,1.54617,0,0,1-.55137-1.14561A3.547,3.547,0,0,0,12.75915,5.658a5.928,5.928,0,0,1-.5857-1.91576.41246.41246,0,0,0-.0497-.1029l-.01283-.2367A.15679.15679,0,0,1,12.18314,3.26915Z" style="fill:#f1edfa"/><path d="M14.14823,12.46954c-.15712-.21134-.31511-.41131-.6252-.36379-.14932.02273-.21556-.08774-.25047-.2058a2.63263,2.63263,0,0,0-.26818-.52733.86927.86927,0,0,0-.83406-.45649,2.99039,2.99039,0,0,1,.89243-.56231.92425.92425,0,0,0,.43062-1.16747c.12374-.3087-.0368-.59554-.06879-.89229a.67244.67244,0,0,1,.47777.69494,2.36957,2.36957,0,0,1-.02893.58884,2.39253,2.39253,0,0,0,.08876,1.101,2.43516,2.43516,0,0,0,.304.53841c.00285.11922.1083.18481.14823.2845a.43891.43891,0,0,0,.15144.20522c.0513.0962.01312.27693.21673.22971.00816.093.01239.1886.12855.218.05976.081.09139.21105.23955.13671a1.08631,1.08631,0,0,0,.78151.35156l.06421-.0003V13.544c-.19057-.04751-.37888-.10873-.57215-.13992A2.00373,2.00373,0,0,1,14.14823,12.46954Z" style="fill:#e3dbf4"/><path d="M15.63832,11.393c-.00437-.11164-.08986-.16732-.16018-.23349a3.26089,3.26089,0,0,0-.70485-.783c-.04876-.04431-.09744-.0892-.14619-.13351-.09729-.20435-.19327-.409-.29267-.61216-.03294-.06733-.038-.17927-.1244-.18073-.09226-.00175-.09131.11136-.11922.18015a2.77914,2.77914,0,0,0-.12863,1.04853,2.39253,2.39253,0,0,1-.08876-1.101,2.36957,2.36957,0,0,0,.02893-.58884.67244.67244,0,0,0-.47777-.69494c-.21892-.12942-.47522-.20959-.57244-.48739a4.20374,4.20374,0,0,0-.45737-.83253A9.35393,9.35393,0,0,1,11.631,5.73642l.07972-.08045q.32259.21075.64517.42238l.03935.02653c.02514-.04139.00175-.06588-.02988-.08774a5.64185,5.64185,0,0,1-.24165-2.37779.41246.41246,0,0,1,.0497.1029,5.928,5.928,0,0,0,.5857,1.91576,3.547,3.547,0,0,1,.44695,1.40416,1.54617,1.54617,0,0,0,.55137,1.14561,2.45645,2.45645,0,0,1,.83516,1.092,3.20731,3.20731,0,0,0,.55633.97478,9.62258,9.62258,0,0,1,.78931.99985c.01975.03615.03936.07317.05809.11019v1.25812l-.06421.0003A3.77505,3.77505,0,0,0,15.63832,11.393Z" style="fill:#b8a5e4"/><path d="M2.75035,4.47305a.75432.75432,0,0,0-.24458.89229c-.29594-.17782-.59313-.35388-.88689-.5352-.07091-.04372-.2117-.05364-.18518-.151.01356-.04955.16849-.074.26257-.086C2.047,4.54768,2.39887,4.5124,2.75035,4.47305Z" style="fill:#f1edfa"/><path d="M1.49586,7.69794c.35877.0685.4573.35039.53345.65063l-.1182.17928a1.862,1.862,0,0,1-.46779.30287q-.00918-.17928-.01829-.35884a.17956.17956,0,0,0,.29238-.12272c.031-.10932.05611-.24574-.06413-.323-.15384-.09853-.19189.0723-.27358.139a.74779.74779,0,0,1,.04737-.416Z" style="fill:#9179c6"/><path d="M2.75035,4.47305a.75432.75432,0,0,0-.24458.89229l.05539.05917c.34733.11486.52521-.00349.5419-.36379.00547-.11718.00073-.23524.00066-.35272-.09824-.08716-.1416-.24428-.30921-.24282A.15216.15216,0,0,0,2.75035,4.47305Zm.009.24982c.18234-.01633.19531.16237.19655.27459.00138.12506-.00919.30637-.20478.30142-.1752-.00438-.1709-.15945-.184-.26614C2.56488,4.87037,2.60627,4.73657,2.75938,4.72287Z" style="fill:#9179c6"/><path d="M3.87,5.93484A5.22932,5.22932,0,0,1,3.16421,4.648c-.04242-.14478.00537-.32715-.174-.41406q-.09786.11535-.19574.2312c.16761-.00147.21094.15576.30921.24292.00006.11743.00482.23559-.00067.35278-.01667.36011-.19458.47852-.54187.36377.07031.31738.12439.6394.21637.95019a.429.429,0,0,1-.173.53834c-.37134.25927-.73932.52319-1.1087.78491.35876.06836.45727.35034.53345.65039.02514-.19287.18078-.20532.32537-.24243A5.13513,5.13513,0,0,0,4.49,7.20926c.0979-.08179.21576-.14527.22626-.29346C4.43326,6.58987,4.14462,6.26907,3.87,5.93484Z" style="fill:#7a63ad"/><path d="M12.39528,6.10488l-.03935-.02653.00947-.06121C12.397,6.039,12.42042,6.06349,12.39528,6.10488Z" style="fill:#85b4a4"/><path d="M11.64743,5.59708l.06333.05889-.07972.08045-.06486-.13292-.00736-.0446C11.60043,5.54,11.627,5.56269,11.64743,5.59708Z" style="fill:#85b4a4"/><polygon points="16 9.775 16 9.787 16 9.787 16 9.775" style="fill:#e9e891"/><path d="M15.87422,9.64314A7.1331,7.1331,0,0,1,15.455,6.6153q.21229-1.44906.42341-2.89841c.01093-.07579.0239-.13759.118-.135V9.77315C15.90883,9.7746,15.89258,9.7163,15.87422,9.64314Z" style="fill:#d786b3"/><path d="M1.65328,8.02617c.12024.07725.0951.21367.06413.323a.17956.17956,0,0,1-.29238.12272c-.08454-.09182-.04671-.202-.04533-.30666C1.46139,8.09847,1.49944,7.92764,1.65328,8.02617Z" style="fill:#db92bb"/><path d="M9.31265,9.54373a4.308,4.308,0,0,0,.34164-.4425.92122.92122,0,0,1,.60829-.38041c.18394-.053.31212.00233.30389.22883-.00649.17753-.00335.35534-.00452.53287-.20026.11456-.3584.31919-.62236.29821a1.16326,1.16326,0,0,0-.622.14633c-.049.02478-.10807.08628-.157.03964-.06413-.06092.01655-.12359.03141-.186Z" style="fill:#7a63ad"/><path d="M9.192,9.78073a.36544.36544,0,0,1,.05918-.358.12829.12829,0,0,0,.06151.121Z" style="fill:#d4c9ef"/><path d="M3.8805,4.4611c.24785.34689.50525.68707.75237,1.03483a.85779.85779,0,0,0,.74632.353c.18969.0035.22358-.05655.15478-.22037-.09218-.2198-.18044-.44134-.26147-.66521-.02974-.08191-.063-.19327.00641-.2539.06544-.05714.14517.02827.21236.06267a7.98515,7.98515,0,0,0,1.16834.52179,1.97734,1.97734,0,0,1,1.04176.841A6.28988,6.28988,0,0,0,9.67455,7.87372c.06821.04256.15894.13584.2364.05392.06683-.07083-.003-.17082-.04175-.24573a4.09316,4.09316,0,0,1-.25879-1.80673c-.00262-.06938.00139-.16.08017-.172.08453-.01283.09692.0857.12527.14488.23692.49322.53032.95438.80141,1.42836a2.35313,2.35313,0,0,1,.47238,1.01705,1.57888,1.57888,0,0,0,.57543,1.16543,1.3809,1.3809,0,0,1,.5035.79784,3.91219,3.91219,0,0,0-.09562,2.11018c.14729.76957.27591,1.54322.40016,2.31716a1.05571,1.05571,0,0,0,.302.62469c.39666.39032.77685.79755,1.1612,1.2004a.87536.87536,0,0,0,.94425.27285c.20871-.06093.4253-.09532.63832-.14167.04562-.06355.1131-.05393.178-.05335a.17782.17782,0,0,1-.12.11719c-.26082.21163-.51078.43842-.7848.6311a1.161,1.161,0,0,1-1.49679-.08046c-.53607-.4355-1.03519-.91648-1.6061-1.30942.02252-.1032-.061-.1612-.09991-.23874a1.30031,1.30031,0,0,1-.24246-.69261,2.145,2.145,0,0,0-.35039-1.32605.64408.64408,0,0,1-.12979-.47748,12.19274,12.19274,0,0,0,.26272-1.784,1.82,1.82,0,0,0-.31206-1.51465.9811.9811,0,0,1-.25528-.42938c.00117-.17753-.002-.35534.00452-.53287.00823-.2265-.12-.28188-.30389-.22883a.92122.92122,0,0,0-.60829.38041,4.3172,4.3172,0,0,1-.34157.4425.12821.12821,0,0,1-.06158-.121.9444.9444,0,0,1,.36547-.6244c.046-.03265.13467-.04314.12352-.11077-.01224-.07462-.10108-.08045-.1647-.10028q-.39615-.12417-.7931-.24544a.97594.97594,0,0,1-.479-.27751,4.58552,4.58552,0,0,0-.46721-.49672,1.52861,1.52861,0,0,0-.79317-.42559,14.6298,14.6298,0,0,0-1.75026-.04111.84362.84362,0,0,1-.57644-.1851c-.283-.3259-.57164-.64684-.84623-.9809a5.23291,5.23291,0,0,1-.7058-1.287c-.04242-.14458.00539-.32706-.174-.41393A.70064.70064,0,0,1,3.8805,4.4611Z" style="fill:#d4c9ef"/><path d="M14.70682,14.06056a2.219,2.219,0,0,1-.75921-.50313,7.48068,7.48068,0,0,1-.64532-1.16834c-.04671-.093-.04008-.15042.07506-.16383a.34341.34341,0,0,1,.28589.12885c.0747.0787.15793.15012.22759.2332a4.26691,4.26691,0,0,0,1.98645,1.38114l.00014.00029c.03965-.00554.07929-.01079.11894-.016v.78443c-.065-.00292-.13519.009-.17855-.05976C15.44724,14.47216,15.07448,14.27074,14.70682,14.06056Z" style="fill:#687271"/><path d="M13.89083,12.58731c-.06966-.08308-.15289-.1545-.22759-.2332a.34341.34341,0,0,0-.28589-.12885,3.18171,3.18171,0,0,1-.86233-.3498.6621.6621,0,0,1-.3447-.95933.86927.86927,0,0,1,.83406.45649,2.63263,2.63263,0,0,1,.26818.52733c.03491.11806.10115.22853.25047.2058.31009-.04752.46808.15245.6252.36379a2.00373,2.00373,0,0,0,1.276.93456c.19327.03119.38158.09241.57215.13992v.40869l-.11908.01574A4.26691,4.26691,0,0,1,13.89083,12.58731Z" style="fill:#a78edd"/><path d="M14.21,9.45016c.08643.00146.09146.1134.1244.18073.0994.20318.19538.40781.29267.61216a3.815,3.815,0,0,0,.17417.9226c.07069.28859.25383.31512.48834.28334.11667-.01574.23254-.037.34878-.056a3.77669,3.77669,0,0,1,.29376,1.25,1.08631,1.08631,0,0,1-.78151-.35156c.0016-.10086.07535-.23407-.05379-.286-.09-.03644-.15369.06-.18568.14925-.11624-.02944-.12047-.125-.12863-.218a.371.371,0,0,0,.02587-.08512c.006-.1029.12331-.23466.0148-.29938-.10976-.06558-.17017.09941-.2574.15479a.43891.43891,0,0,1-.15144-.20522c.01436-.05509.03236-.1096.042-.16557.0102-.05859.07893-.12826-.00954-.17461-.07011-.03673-.12426.02361-.18074.05568a2.43516,2.43516,0,0,1-.304-.53841,2.77914,2.77914,0,0,1,.12863-1.04853C14.11872,9.56152,14.11777,9.44841,14.21,9.45016Z" style="fill:#505957"/><path d="M14.82321,11.55218c.10851.06472-.00882.19648-.0148.29938a.371.371,0,0,1-.02587.08512c-.20361.04722-.16543-.13351-.21673-.22971C14.653,11.65159,14.71345,11.4866,14.82321,11.55218Z" style="fill:#e3e5e5"/><path d="M15.09685,12.00547c.12914.05189.05539.1851.05379.286-.14816.07434-.17979-.05567-.23947-.13671C14.94316,12.06552,15.00685,11.969,15.09685,12.00547Z" style="fill:#e3e5e5"/><path d="M14.45642,11.33618c-.00969.056-.02769.11048-.042.16557-.03993-.09969-.14538-.16528-.14823-.2845.05648-.03207.11063-.09241.18074-.05568C14.53535,11.20792,14.46662,11.27759,14.45642,11.33618Z" style="fill:#e3e5e5"/><path d="M14.86729,10.84325c.12513.45154.15392.46378.61078.31628.07039.06617.15588.12185.16032.23349-.11624.019-.23211.04023-.34878.056-.23451.03178-.41765.00525-.48834-.28334a3.815,3.815,0,0,1-.17417-.9226c.04875.04431.09743.0892.14619.13351C14.804,10.53222,14.825,10.6908,14.86729,10.84325Z" style="fill:#373f3f"/><path d="M15.47807,11.15953c-.45686.1475-.48565.13526-.61078-.31628-.04234-.15245-.06332-.311-.094-.46669A3.25913,3.25913,0,0,1,15.47807,11.15953Z" style="fill:#eab5d7"/><path d="M2.75938,4.72287c.18234-.01633.19531.16237.19655.27459.00138.12506-.00919.30637-.20478.30142-.1752-.00438-.1709-.15945-.184-.26614C2.56488,4.87037,2.60627,4.73657,2.75938,4.72287Z" style="fill:#db92bb"/></svg>