<svg xmlns="http://www.w3.org/2000/svg" viewBox="0 0 32 32"><title>647-keldeo</title><path d="M19.44464,30.95638A2.37648,2.37648,0,0,0,19.181,32h2.37124a2.72444,2.72444,0,0,0-.48158-1.30851A3.462,3.462,0,0,1,19.44464,30.95638Z" style="fill:#515e91"/><path d="M26.19259,15.61527a7.43374,7.43374,0,0,0-1.54228-2.87873.479.479,0,0,0-.5821-.17022c-.22985.10653-.164.33957-.14431.52572a3.14549,3.14549,0,0,1,.01911,1.345c-.02968.09148-.0427.18846-.0634.28284a2.47822,2.47822,0,0,1-.09923-.26344,1.42338,1.42338,0,0,0-.79321-1.10384c-.11066-.04516-.22906-.11232-.336-.03995-.14778.10016-.07136.25128-.03351.37779a3.52852,3.52852,0,0,1,.26612.89569A3.46065,3.46065,0,0,1,19.901,18.13675a4.907,4.907,0,0,1,.247,1.15594,7.91623,7.91623,0,0,0,1.58258.44988,3.78523,3.78523,0,0,0,4.463-2.89927A4.269,4.269,0,0,0,26.19259,15.61527Z" style="fill:#b0d3ea"/><polygon points="19.42 9.579 19.414 9.586 19.414 9.591 19.42 9.579" style="fill:#357093"/><path d="M18.77968,12.30577c.04263-.1433.12006-.19251.25591-.10595-.18926-.52427.13758-.98081.20011-1.47208a5.947,5.947,0,0,0,.18455-1.1487c-.30288.3057-.48649.8789-1.1076.47245-.058-.03793-.09321.141-.10566.2342a1.39867,1.39867,0,0,1,.01889,1.61479c-.13259.16791-.28479.34276-.53462.28747a.459.459,0,0,1-.396-.4988q-.02757-.24664-.05472-.49445c-.1336.14011-.26228.2866-.40312.42005-.10928.10364-.22884.28457-.38951.18615-.18629-.11406-.02873-.29471.03358-.41427a10.54505,10.54505,0,0,0,.74031-2.16078c-.19772-.24462-.2473-.19193-.321.10191-.157.6253-.31692.69159-.88939.48026v4.76535q.68708-.17673,1.37422-.35318A3.72707,3.72707,0,0,0,18.77968,12.30577Zm-2.437,1.20951c-.17442.0854-.13338-.03822-.12571-.12941.02967-.08453.10342-.13577.17015-.086C16.4934,13.37863,16.44043,13.45969,16.34272,13.51528Z" style="fill:#fef1c6"/><polygon points="19.414 9.591 19.42 9.584 19.42 9.579 19.414 9.591" style="fill:#e75f3b"/><path d="M19.87667,16.24028c-.0964-.01563-.19664-.00666-.29405-.01795a2.45048,2.45048,0,0,1-2.197-2.00213q-.68708.17673-1.37423.35318v5.67725a.31878.31878,0,0,1,.08142.02432,2.87456,2.87456,0,0,0,.27394,1.25438c.07628.17572.15386.39428.39856.37547.245-.01882.37-.21307.43988-.42527a2.72285,2.72285,0,0,0,.01788-1.338,14.4926,14.4926,0,0,1-.31236-3.15692c.013-.271.06318-.52282.3505-.61923.26387-.08829.44321.07411.60649.262a2.7854,2.7854,0,0,0,.91089.823c.188.0828.45921.27994.51978-.15082q-.05189-.06428-.10371-.12883-.07392-.10986-.14793-.21914c-.07331-.05385-.20358-.10711-.11087-.21017.07085-.07875.18173-.01651.25337.06311a.32191.32191,0,0,1,.11074.031,5.6737,5.6737,0,0,0,.588-.02663c.15379-.02171.33306-.07556.34616-.26373C20.25019,16.31266,20.05536,16.26923,19.87667,16.24028Z" style="fill:#c1ddee"/><path d="M18.01274,24.59042c-.089-.17109-.17124-.60475-.50039-.16935a21.93887,21.93887,0,0,1,.725,4.36787q.5251.01389,1.05028.02808c-.075-.42-.14359-.84156-.226-1.26016A11.012,11.012,0,0,0,18.01274,24.59042Z" style="fill:#ffe28a"/><path d="M18.23731,28.78894c-.16067.19512-.09155.45016-.17348.66584-.151.39747-.0372.5758.40754.5344.30751-.02837.61908-.01274.929-.01679q-.05623-.578-.11276-1.15537Q18.76248,28.80313,18.23731,28.78894Z" style="fill:#495587"/><path d="M20.3861,25.46585c-.10544-1.86173-.09669-3.73012-.14525-5.59532a4.25468,4.25468,0,0,0-.09285-.57783,4.90722,4.90722,0,0,0-.247-1.156q-.3005-.65049-.60106-1.30127a.32191.32191,0,0,0-.11074-.031c-.07164-.07962-.18252-.14186-.25337-.06311-.09271.10306.03756.15632.11087.21017q.074.10942.148.21914l.10363.12883c-.06057.43076-.33176.23362-.51978.15082a2.7854,2.7854,0,0,1-.91089-.823c-.16328-.18789-.34262-.35029-.60649-.262-.28732.09641-.33748.34826-.3505.61923a14.4926,14.4926,0,0,0,.31236,3.15692,2.72285,2.72285,0,0,1-.01788,1.338c-.06984.2122-.19483.40645-.43988.42527-.2447.01881-.32228-.19975-.39856-.37547a2.87561,2.87561,0,0,1-.274-1.25438.31842.31842,0,0,0-.08135-.02432v4.38988a3.44918,3.44918,0,0,0,1.501-.21944c.32915-.43539.41137-.00173.50039.16936a11.01191,11.01191,0,0,1,1.04883,2.96643c.08243.41861.151.84011.226,1.26017q.05645.57753.11283,1.15537.022.492.04429.984a3.462,3.462,0,0,0,1.626-.26488A21.056,21.056,0,0,1,20.3861,25.46585Z" style="fill:#ffeaa7"/><path d="M19.29828,17.2996l-.10366-.12888Z" style="fill:#b0e29d"/><path d="M20.35109,5.30713a3.297,3.297,0,0,0-1.21094-2.88086c-.20014-.16016-.38275-.3418-.58313-.50147-.11554-.09179-.17535-.32519-.35443-.24975-.1471.06177-.15814.27856-.14282.42383.04327.41162-.10944.25757-.29139.12475a6.364,6.364,0,0,1-1.67913-2.114L16.01136,0V9.80811c.57245.21118.73237.145.88941-.48047.07373-.2937.12329-.34644.321-.10181.19825-.49268.36951-.99854.60566-1.47241.123-.24658.28021-.65161.67645-.18726.18512.217.17908-.05493.21173-.15429.17761-.542.33-1.093.53375-1.625.08985-.23414.152-.61719.5083-.54566.311.063.30426.41943.35663.68555a2.04652,2.04652,0,0,1,.01953.23559l-.01349.23072a.12914.12914,0,0,1,.01.09155c.1518-.07251.11719-.21069.11823-.33643l.00763.00586C20.25953,6.07471,20.35444,5.437,20.35109,5.30713Z" style="fill:#d64f45"/><path d="M17.87979,10.79954l-.01042-.02808-.1137.08714c.01686.11232-.02982.16182-.14366.145-.23066-.14417-.28877.0469-.3715.19107q.027.24752.05472.49474c.60974.08945.76086-.11319.61836-.8294A.10073.10073,0,0,1,17.87979,10.79954Z" style="fill:#2b3332"/><path d="M20.67965,10.3242a5.1281,5.1281,0,0,1-.531-.8433q-.30614-.11029-.61228-.22088c-.13671.07527-.13389.20178-.12231.33147.00557-.0026.00369-.00839.00876-.01129l-.00275.00376a6.03659,6.03659,0,0,1-.18434,1.14379c-.06253.49127-.38937.9478-.20011,1.47208a2.96256,2.96256,0,0,1,.15509.982c-.01831.19106.08664.27762.24072.18469a3.707,3.707,0,0,0,1.282-.96227A1.54008,1.54008,0,0,0,20.67965,10.3242Z" style="fill:#d64f45"/><path d="M22.94472,6.07646c-.258.14243-.20236-.07092-.20294-.1844a2.20234,2.20234,0,0,0-.13049-.81058c-.08-.2012-.17253-.43338-.46507-.23044-.232-.1462-.00181-.45537-.21487-.60823-.2418-.45537-.51725-.32278-.773-.02692a4.79452,4.79452,0,0,0-.69551,1.35541l-.09893.22551a.817.817,0,0,0-.10762.35724l-.00767-.00579c-.001.12564.03358.26373-.11819.3361v.00029a.129.129,0,0,0-.01006-.09148l.01353-.23073a2.05658,2.05658,0,0,0-.01954-.23564c-.0524-.266-.04559-.6227-.35665-.68552-.35622-.07151-.41847.31149-.50828.54569-.20373.5318-.35615,1.083-.53375,1.62493-.03264.09929-.02664.37142-.21177.1543-.39624-.46435-.55336-.05935-.6764.1873-.23615.4739-.40746.97964-.60569,1.47236a10.54526,10.54526,0,0,1-.74031,2.16078c-.06231.11956-.21987.3002-.03358.41426.16067.09843.28023-.0825.38951-.18614.14084-.13346.26952-.27994.40341-.42063.08244-.14359.14055-.33466.371-.19049.048-.04864.09589-.09669.14388-.145l.1137-.08713q.16881-.24318.33762-.48577c.01244-.09322.04769-.27213.10566-.2342.61677.40355.80233-.15836,1.10152-.4658-.01121-.12738-.01244-.25157.12217-.32568q.30613.11073.61228.22088c.38018-.21856.61988-.80652,1.2391-.39313.16552.1103.43026-.13316.61467-.2811.12195-.09784.21212-.26633.34725-.31178,1.02147-.34218,1.06193-1.19966,1.08552-2.05251C23.44308,6.15607,23.3681,5.84255,22.94472,6.07646Z" style="fill:#515e91"/><path d="M17.75567,10.8586c-.048.04834-.0959.0964-.14366.145C17.72585,11.02042,17.77253,10.97092,17.75567,10.8586Z" style="fill:#fff"/><path d="M16.38719,13.2999c-.06673-.04979-.14048.00145-.17015.086-.00767.09119-.04871.2148.12564.1294C16.44046,13.4597,16.49343,13.37864,16.38719,13.2999Z" style="fill:#d1473d"/><path d="M18.207,10.28564q-.16881.24316-.33764.4856l.01044.02832h0l.00012.00024H17.88a.1017.1017,0,0,0,.03363.06031c.14245.71606-.00861.9187-.61841.82934a.45906.45906,0,0,0,.39606.49854c.24981.05517.402-.11963.5346-.2876A1.39857,1.39857,0,0,0,18.207,10.28564Z" style="fill:#edeeee"/><path d="M12.578,30.95638A2.37648,2.37648,0,0,1,12.84166,32H10.47042a2.72444,2.72444,0,0,1,.48158-1.30851A3.462,3.462,0,0,0,12.578,30.95638Z" style="fill:#5b689d"/><polygon points="12.602 9.579 12.608 9.586 12.609 9.591 12.602 9.579" style="fill:#357093"/><path d="M14.6371,14.22019q.68708.17674,1.37423.35318V9.808c-.57248.21133-.73235.145-.8894-.48026-.07375-.29384-.12332-.34653-.32105-.10191a10.54505,10.54505,0,0,0,.74031,2.16078c.06231.11956.21987.30021.03358.41427-.16067.09842-.28023-.08251-.38951-.18615-.14084-.13345-.26952-.27994-.40312-.42005q-.027.24752-.05472.49445a.459.459,0,0,1-.396.4988c-.24984.05529-.402-.11956-.53463-.28747a1.39867,1.39867,0,0,1,.01889-1.61479c-.01244-.09322-.04769-.27213-.10566-.2342-.62111.40645-.80472-.16675-1.1076-.47245a5.94773,5.94773,0,0,0,.18455,1.1487c.06253.49127.38937.94781.20011,1.47208.13585-.08656.21329-.03735.25591.106A3.72713,3.72713,0,0,0,14.6371,14.22019Zm.99839-.9203c.06673-.04979.14048.00145.17015.086.00767.09119.04871.21481-.12571.12941C15.58222,13.45969,15.52925,13.37863,15.63549,13.29989Z" style="fill:#fff5d8"/><polygon points="12.609 9.591 12.603 9.584 12.602 9.579 12.609 9.591" style="fill:#e75f3b"/><path d="M12.146,16.24028c.0964-.01563.19664-.00666.29406-.01795a2.45048,2.45048,0,0,0,2.197-2.00213q.68708.17673,1.37423.35318v5.67725a.31878.31878,0,0,0-.08142.02432,2.87456,2.87456,0,0,1-.27394,1.25438c-.07628.17572-.15386.39428-.39856.37547-.245-.01882-.37-.21307-.43988-.42527a2.72285,2.72285,0,0,1-.01788-1.338,14.49322,14.49322,0,0,0,.31237-3.15692c-.013-.271-.06319-.52282-.35051-.61923-.26387-.08829-.44321.07411-.60649.262a2.7854,2.7854,0,0,1-.91089.823c-.188.0828-.45921.27994-.51978-.15082q.05189-.06428.10371-.12883.07392-.10986.14793-.21914c.07331-.05385.20359-.10711.11088-.21017-.07086-.07875-.18173-.01651-.25338.06311a.32185.32185,0,0,0-.11073.031,5.67376,5.67376,0,0,1-.588-.02663c-.15379-.02171-.33306-.07556-.34616-.26373C11.77246,16.31266,11.96729,16.26923,12.146,16.24028Z" style="fill:#d2e6f3"/><path d="M14.00991,24.59042c.089-.17109.17124-.60475.50039-.16935a21.93887,21.93887,0,0,0-.725,4.36787q-.52511.01389-1.05028.02808c.075-.42.14359-.84156.226-1.26016A11.012,11.012,0,0,1,14.00991,24.59042Z" style="fill:#ffeaa7"/><path d="M13.78534,28.78894c.16067.19512.09155.45016.17348.66584.151.39747.0372.5758-.40754.5344-.30751-.02837-.61908-.01274-.929-.01679q.05624-.578.11276-1.15537Q13.26017,28.80313,13.78534,28.78894Z" style="fill:#515e91"/><path d="M11.63655,25.46585c.10544-1.86173.09669-3.73012.14525-5.59532a4.25624,4.25624,0,0,1,.09285-.57783,4.90674,4.90674,0,0,1,.247-1.156q.30048-.65049.60106-1.30127a.32185.32185,0,0,1,.11073-.031c.07165-.07962.18252-.14186.25338-.06311.09271.10306-.03757.15632-.11088.21017q-.074.10942-.148.21914l-.10364.12883c.06057.43076.33176.23362.51978.15082a2.7854,2.7854,0,0,0,.91089-.823c.16328-.18789.34262-.35029.60649-.262.28732.09641.33748.34826.35051.61923a14.49322,14.49322,0,0,1-.31237,3.15692,2.72285,2.72285,0,0,0,.01788,1.338c.06984.2122.19483.40645.43988.42527.2447.01881.32228-.19975.39856-.37547A2.87561,2.87561,0,0,0,15.93,20.275a.31842.31842,0,0,1,.08135-.02432v4.38988a3.44918,3.44918,0,0,1-1.501-.21944c-.32915-.43539-.41137-.00173-.50039.16936a11.01191,11.01191,0,0,0-1.04883,2.96643c-.08243.41861-.151.84011-.226,1.26017q-.05645.57753-.11283,1.15537-.022.492-.04429.984a3.462,3.462,0,0,1-1.626-.26488A21.056,21.056,0,0,0,11.63655,25.46585Z" style="fill:#fef1c6"/><path d="M12.72437,17.2996l.10367-.12888Z" style="fill:#b0e29d"/><path d="M15.93342.10962a6.36476,6.36476,0,0,1-1.67914,2.114c-.18194.13282-.33465.28687-.29138-.12475.01526-.14527.00428-.36206-.14288-.42383-.179-.07544-.23889.158-.35437.24975-.20044.15967-.383.34131-.58313.50147a3.29682,3.29682,0,0,0-1.21094,2.88086c-.00342.12988.09155.76758.09479.84692l.00769-.00586c.001.12574-.03357.26392.11816.33643a.12959.12959,0,0,1,.01007-.09155l-.01354-.23072a2.06008,2.06008,0,0,1,.01959-.23559c.05237-.26612.04559-.62256.35663-.68555.3562-.07153.41845.31152.5083.54566.20373.532.35614,1.083.53375,1.625.03259.09936.02661.37133.21173.15429.39624-.46435.55341-.05932.67639.18726.23615.47387.40747.97973.60571,1.47241.1977-.24463.24732-.19189.321.10181.157.62549.31689.69165.8894.48047V0Z" style="fill:#dd564c"/><path d="M14.14286,10.79954l.01043-.02808.11369.08714c-.01686.11232.02982.16182.14367.145.23065-.14417.28876.0469.37149.19107q-.027.24752-.05472.49474c-.60974.08945-.76086-.11319-.61835-.8294A.10076.10076,0,0,0,14.14286,10.79954Z" style="fill:#373f3f"/><path d="M11.343,10.3242a5.1281,5.1281,0,0,0,.531-.8433q.30615-.11029.61228-.22088c.13672.07527.13389.20178.12231.33147-.00557-.0026-.00369-.00839-.00875-.01129l.00275.00376a6.03657,6.03657,0,0,0,.18433,1.14379c.06253.49127.38937.9478.20011,1.47208a2.96282,2.96282,0,0,0-.15509.982c.01831.19106-.08663.27762-.24072.18469a3.707,3.707,0,0,1-1.282-.96227A1.54008,1.54008,0,0,1,11.343,10.3242Z" style="fill:#dd564c"/><path d="M9.07793,6.07646c.258.14243.20236-.07092.20294-.1844a2.20234,2.20234,0,0,1,.13049-.81058c.08-.2012.17253-.43338.46507-.23044.232-.1462.00181-.45537.21487-.60823.2418-.45537.51726-.32278.773-.02692a4.79426,4.79426,0,0,1,.69551,1.35541l.09894.22551a.81718.81718,0,0,1,.10761.35724l.00768-.00579c.001.12564-.03359.26373.11818.3361v.00029a.129.129,0,0,1,.01006-.09148l-.01353-.23073a2.05658,2.05658,0,0,1,.01954-.23564c.0524-.266.04559-.6227.35665-.68552.35623-.07151.41847.31149.50828.54569.20373.5318.35615,1.083.53376,1.62493.03264.09929.02663.37142.21176.1543.39624-.46435.55337-.05935.6764.1873.23615.4739.40746.97964.60569,1.47236a10.54526,10.54526,0,0,0,.74031,2.16078c.06231.11956.21987.3002.03358.41426-.16067.09843-.28023-.0825-.38951-.18614-.14084-.13346-.26952-.27994-.40341-.42063-.08243-.14359-.14055-.33466-.371-.19049-.048-.04864-.09589-.09669-.14388-.145l-.11369-.08713q-.16881-.24318-.33763-.48577c-.01244-.09322-.04769-.27213-.10566-.2342-.61677.40355-.80233-.15836-1.10152-.4658.01122-.12738.01245-.25157-.12217-.32568q-.30614.11073-.61228.22088c-.38017-.21856-.61987-.80652-1.2391-.39313-.16552.1103-.43026-.13316-.61467-.2811-.12195-.09784-.21212-.26633-.34724-.31178C8.65151,8.15271,8.61105,7.29523,8.58746,6.44238,8.57957,6.15607,8.65455,5.84255,9.07793,6.07646Z" style="fill:#5b689d"/><path d="M14.267,10.8586c.048.04834.0959.0964.14367.145C14.2968,11.02042,14.25012,10.97092,14.267,10.8586Z" style="fill:#fff"/><path d="M15.63546,13.2999c.06673-.04979.14048.00145.17015.086.00767.09119.04871.2148-.12564.1294C15.5822,13.4597,15.52922,13.37864,15.63546,13.2999Z" style="fill:#d64f45"/><path d="M14.109,10.86011a.1017.1017,0,0,0,.03363-.06031h.00006l.00013-.00024h0l.01043-.02832q-.16882-.24279-.33764-.4856a1.39857,1.39857,0,0,0-.01886,1.61475c.13257.168.28479.34277.5346.2876a.459.459,0,0,0,.39606-.49854C14.11765,11.77881,13.96659,11.57617,14.109,10.86011Z" style="fill:#f7f7f7"/><path d="M15.97327,4.52338v5.92507C16.97663,9.24351,17.02238,7.30365,15.97327,4.52338Z" style="fill:#fef1c6"/><path d="M15.97145,4.52338v5.92507C14.96809,9.24351,14.92234,7.30365,15.97145,4.52338Z" style="fill:#fff5d8"/></svg>