<svg xmlns="http://www.w3.org/2000/svg" viewBox="0 0 32 32"><title>647-keldeo-resolute-shiny</title><path d="M19.44939,30.95638A2.37662,2.37662,0,0,0,19.18573,32H21.557a2.72443,2.72443,0,0,0-.48157-1.30851A3.462,3.462,0,0,1,19.44939,30.95638Z" style="fill:#1d7293"/><path d="M26.19733,15.61527a7.43374,7.43374,0,0,0-1.54228-2.87873.479.479,0,0,0-.58209-.17022c-.22986.10653-.164.33957-.14432.52572a3.14533,3.14533,0,0,1,.01911,1.345c-.02967.09148-.0427.18846-.0634.28284a2.47815,2.47815,0,0,1-.09922-.26344,1.4234,1.4234,0,0,0-.79321-1.10384c-.11066-.04516-.22907-.11232-.336-.03995-.14779.10016-.07136.25128-.03351.37779a3.5285,3.5285,0,0,1,.26611.89569,3.46064,3.46064,0,0,1-2.98279,3.55064,4.907,4.907,0,0,1,.247,1.15594,7.91613,7.91613,0,0,0,1.58259.44988,3.78522,3.78522,0,0,0,4.463-2.89927A4.269,4.269,0,0,0,26.19733,15.61527Z" style="fill:#6edca2"/><polygon points="19.425 9.579 19.419 9.586 19.419 9.591 19.425 9.579" style="fill:#357093"/><path d="M19.425,9.5791c-.30285.30567-1.93414-.00049-2.19848-.35327-.19769-.24463-.24725-.19189-.321.10181-.157.62548-.31683.69165-.88934.48047v1.23266H16.016v3.53247l1.37427-.353a3.728,3.728,0,0,0,1.3941-1.91455c.04266-.14306.12006-.19238.25592-.10595-.18927-.52417.13757-.98072.20014-1.47193A5.94967,5.94967,0,0,0,19.425,9.5791Zm-3.07751,3.936c-.17444.08545-.13336-.03809-.12573-.1294.02972-.08447.10345-.13574.17016-.08594C16.49816,13.37866,16.44518,13.45972,16.34746,13.51514Z" style="fill:#fef1c6"/><rect x="16.01604" y="9.80811" width="0.00006" height="1.23267" style="fill:#fef1c6"/><polygon points="19.419 9.591 19.425 9.584 19.425 9.579 19.419 9.591" style="fill:#e75f3b"/><path d="M19.88141,16.24028c-.0964-.01563-.19664-.00666-.294-.01795a2.45049,2.45049,0,0,1-2.197-2.00213q-.68708.17673-1.37422.35318v5.67725a.3189.3189,0,0,1,.08142.02432,2.87455,2.87455,0,0,0,.27393,1.25438c.07628.17572.15387.39428.39856.37547.24506-.01882.37-.21307.43989-.42527a2.723,2.723,0,0,0,.01787-1.338,14.49321,14.49321,0,0,1-.31236-3.15692c.013-.271.06318-.52282.3505-.61923.26388-.08829.44322.07411.60649.262a2.7854,2.7854,0,0,0,.91089.823c.188.0828.45921.27994.51979-.15082q-.0519-.06428-.10371-.12883-.07393-.10986-.14794-.21914c-.07331-.05385-.20358-.10711-.11087-.21017.07085-.07875.18173-.01651.25338.06311a.32185.32185,0,0,1,.11073.031,5.67357,5.67357,0,0,0,.588-.02663c.1538-.02171.33306-.07556.34616-.26373C20.25493,16.31266,20.0601,16.26923,19.88141,16.24028Z" style="fill:#7aebac"/><path d="M18.01748,24.59042c-.089-.17109-.17123-.60475-.50039-.16935a21.93887,21.93887,0,0,1,.725,4.36787q.52511.01389,1.05029.02808c-.075-.42-.14359-.84156-.226-1.26016A11.012,11.012,0,0,0,18.01748,24.59042Z" style="fill:#ffe28a"/><path d="M18.24205,28.78894c-.16066.19512-.09155.45016-.17347.66584-.15105.39747-.0372.5758.40753.5344.30751-.02837.61908-.01274.929-.01679q-.05624-.578-.11275-1.15537Q18.76724,28.80313,18.24205,28.78894Z" style="fill:#1b6a89"/><path d="M20.39085,25.46585c-.10545-1.86173-.09669-3.73012-.14526-5.59532a4.25468,4.25468,0,0,0-.09285-.57783,4.90722,4.90722,0,0,0-.247-1.156q-.30049-.65049-.60106-1.30127a.32185.32185,0,0,0-.11073-.031c-.07165-.07962-.18253-.14186-.25338-.06311-.09271.10306.03756.15632.11087.21017q.074.10942.148.21914l.10364.12883c-.06058.43076-.33176.23362-.51979.15082a2.7854,2.7854,0,0,1-.91089-.823c-.16327-.18789-.34261-.35029-.60649-.262-.28732.09641-.33747.34826-.3505.61923a14.49321,14.49321,0,0,0,.31236,3.15692,2.723,2.723,0,0,1-.01787,1.338c-.06984.2122-.19483.40645-.43989.42527-.24469.01881-.32228-.19975-.39856-.37547a2.8756,2.8756,0,0,1-.274-1.25438.31854.31854,0,0,0-.08135-.02432v4.38988a3.44914,3.44914,0,0,0,1.501-.21944c.32915-.43539.41137-.00173.50039.16936a11.01191,11.01191,0,0,1,1.04883,2.96643c.08244.41861.15105.84011.226,1.26017q.05646.57753.11283,1.15537.022.492.0443.984a3.462,3.462,0,0,0,1.626-.26488A21.055,21.055,0,0,1,20.39085,25.46585Z" style="fill:#ffeaa7"/><path d="M19.303,17.2996l-.10367-.12888Z" style="fill:#b0e29d"/><path d="M16.39193,13.2999c-.06673-.04979-.14047.00145-.17015.086-.00767.09119-.0487.2148.12564.1294C16.4452,13.4597,16.49818,13.37864,16.39193,13.2999Z" style="fill:#d1473d"/><path d="M18.21175,10.28564c-1.23471-.65221-.96649.90894-.91181,1.40381a.45906.45906,0,0,0,.39606.49854c.24982.05517.402-.11963.53461-.2876A1.39859,1.39859,0,0,0,18.21175,10.28564Z" style="fill:#edeeee"/><path d="M17.8741,10.77148c-.1004-.32836-.62465-.16992-.62884.4231q.027.24756.05471.49486c.60975.08945.76087-.11327.61835-.82933C17.90389,10.84351,17.87963,10.77075,17.8741,10.77148Z" style="fill:#2b3332"/><path d="M20.15338,9.481c.92206-.01978,2.05426-3.1084.10767-3.32691.00323-.07934.0982-.717.09478-.84692A3.29694,3.29694,0,0,0,19.1449,2.42627c-.20014-.16016-.38276-.3418-.58313-.50147-.11548-.09179-.17536-.32519-.35444-.24975-.14709.06177-.15814.27856-.14282.42383.04328.41162-.10943.25757-.29138.12475A6.36476,6.36476,0,0,1,16.094.10962h-.00006L16.01611,0V9.80811c.57245.21118.73236.145.88941-.48047.07373-.2937.12329-.34644.321-.10181.05652.30127,2.1084.70337,2.19226.36572.00556-.00268.00366-.00854.00873-.01147l-.00275.0039a6.03365,6.03365,0,0,1-.18432,1.1438c-.0625.49121-.38935.94776-.20014,1.47193a2.96327,2.96327,0,0,1,.15515.98193c-.01831.19116.08661.27783.24067.18482a3.70745,3.70745,0,0,0,1.282-.96216,1.54014,1.54014,0,0,0-.03375-2.08008A5.13931,5.13931,0,0,1,20.15338,9.481Z" style="fill:#d64f45"/><path d="M16.0161,1.91113v7.897C17.35338,8.20215,17.41435,5.6167,16.0161,1.91113Z" style="fill:#1d7293"/><rect x="16.01367" y="9.80811" width="0.00006" height="1.23267" style="fill:#fef1c6"/><path d="M12.58039,30.95638A2.37649,2.37649,0,0,1,12.84405,32H10.47281a2.72443,2.72443,0,0,1,.48157-1.30851A3.462,3.462,0,0,0,12.58039,30.95638Z" style="fill:#237899"/><polygon points="12.605 9.579 12.611 9.586 12.611 9.591 12.605 9.579" style="fill:#357093"/><path d="M12.78932,10.72778c.06256.49121.3894.94776.20013,1.47193.13586-.08643.21326-.03711.25592.106a3.728,3.728,0,0,0,1.3941,1.91455l1.37427.353V11.04077h-.00006V9.80811c-.57251.21118-.7323.145-.88934-.48047-.07379-.2937-.12335-.34644-.321-.10181-.26434.35278-1.89563.65894-2.19848.35327A5.94969,5.94969,0,0,0,12.78932,10.72778Zm2.84857,2.572c.06671-.0498.14044.00147.17016.08594.00763.09131.04871.21485-.12573.1294C15.5846,13.45972,15.53163,13.37866,15.63789,13.2998Z" style="fill:#fef1c6"/><rect x="16.01368" y="9.80811" width="0.00006" height="1.23267" style="fill:#fef1c6"/><polygon points="12.611 9.591 12.605 9.584 12.605 9.579 12.611 9.591" style="fill:#e75f3b"/><path d="M12.14837,16.24028c.0964-.01563.19664-.00666.29405-.01795a2.45048,2.45048,0,0,0,2.197-2.00213q.68708.17673,1.37422.35318v5.67725a.3189.3189,0,0,0-.08142.02432,2.87455,2.87455,0,0,1-.27393,1.25438c-.07628.17572-.15387.39428-.39856.37547-.24506-.01882-.37-.21307-.43988-.42527a2.72285,2.72285,0,0,1-.01788-1.338,14.4926,14.4926,0,0,0,.31236-3.15692c-.013-.271-.06318-.52282-.3505-.61923-.26387-.08829-.44322.07411-.60649.262a2.7854,2.7854,0,0,1-.91089.823c-.188.0828-.45921.27994-.51979-.15082q.0519-.06428.10372-.12883.07392-.10986.14793-.21914c.07331-.05385.20358-.10711.11087-.21017-.07085-.07875-.18173-.01651-.25338.06311a.32185.32185,0,0,0-.11073.031,5.6737,5.6737,0,0,1-.588-.02663c-.15379-.02171-.33306-.07556-.34616-.26373C11.77485,16.31266,11.96968,16.26923,12.14837,16.24028Z" style="fill:#99f2bd"/><path d="M14.0123,24.59042c.089-.17109.17124-.60475.50039-.16935a21.93887,21.93887,0,0,0-.725,4.36787q-.5251.01389-1.05028.02808c.075-.42.14358-.84156.226-1.26016A11.012,11.012,0,0,1,14.0123,24.59042Z" style="fill:#ffe28a"/><path d="M13.78773,28.78894c.16067.19512.09155.45016.17348.66584.151.39747.0372.5758-.40754.5344-.30751-.02837-.61908-.01274-.929-.01679q.05623-.578.11276-1.15537Q13.26254,28.80313,13.78773,28.78894Z" style="fill:#1d7293"/><path d="M11.63893,25.46585c.10545-1.86173.09669-3.73012.14526-5.59532a4.25468,4.25468,0,0,1,.09285-.57783,4.90722,4.90722,0,0,1,.247-1.156q.30049-.65049.60106-1.30127a.32185.32185,0,0,1,.11073-.031c.07165-.07962.18253-.14186.25338-.06311.09271.10306-.03756.15632-.11087.21017q-.074.10942-.148.21914l-.10364.12883c.06058.43076.33176.23362.51979.15082a2.7854,2.7854,0,0,0,.91089-.823c.16327-.18789.34262-.35029.60649-.262.28732.09641.33748.34826.3505.61923a14.4926,14.4926,0,0,1-.31236,3.15692,2.72285,2.72285,0,0,0,.01788,1.338c.06984.2122.19482.40645.43988.42527.24469.01881.32228-.19975.39856-.37547a2.87575,2.87575,0,0,0,.274-1.25438.31849.31849,0,0,1,.08134-.02432v4.38988a3.44916,3.44916,0,0,1-1.501-.21944c-.32915-.43539-.41137-.00173-.50039.16936a11.01191,11.01191,0,0,0-1.04883,2.96643c-.08244.41861-.151.84011-.226,1.26017q-.05646.57753-.11283,1.15537-.022.492-.04429.984a3.462,3.462,0,0,1-1.626-.26488A21.055,21.055,0,0,0,11.63893,25.46585Z" style="fill:#ffeaa7"/><path d="M12.72675,17.2996l.10367-.12888Z" style="fill:#b0e29d"/><path d="M15.63785,13.2999c.06673-.04979.14048.00145.17015.086.00767.09119.04871.2148-.12564.1294C15.58458,13.4597,15.5316,13.37864,15.63785,13.2999Z" style="fill:#d1473d"/><path d="M13.818,10.28564c1.23471-.65221.96649.90894.91181,1.40381a.45906.45906,0,0,1-.39606.49854c-.24982.05517-.402-.11963-.53461-.2876A1.39861,1.39861,0,0,1,13.818,10.28564Z" style="fill:#edeeee"/><path d="M14.15568,10.77148c.1004-.32836.62465-.16992.62884.4231q-.027.24756-.05471.49486c-.60975.08945-.76087-.11327-.61835-.82933C14.12589,10.84351,14.15016,10.77075,14.15568,10.77148Z" style="fill:#2b3332"/><path d="M11.8764,9.481c-.92206-.01978-2.05426-3.1084-.10766-3.32691-.00324-.07934-.09821-.717-.09479-.84692a3.297,3.297,0,0,1,1.21094-2.88086c.20013-.16016.38275-.3418.58313-.50147.11547-.09179.17535-.32519.35443-.24975.14709.06177.15814.27856.14282.42383-.04327.41162.10944.25757.29138.12475a6.36476,6.36476,0,0,0,1.67914-2.114h.00006L16.01367,0V9.80811c-.57245.21118-.73236.145-.8894-.48047-.07373-.2937-.1233-.34644-.321-.10181-.05652.30127-2.1084.70337-2.19226.36572-.00555-.00268-.00366-.00854-.00873-.01147l.00275.0039a6.03365,6.03365,0,0,0,.18432,1.1438c.0625.49121.38935.94776.20014,1.47193a2.96352,2.96352,0,0,0-.15515.98193c.01831.19116-.08661.27783-.24066.18482a3.70739,3.70739,0,0,1-1.282-.96216,1.54013,1.54013,0,0,1,.03376-2.08008A5.13993,5.13993,0,0,0,11.8764,9.481Z" style="fill:#d64f45"/><path d="M16.01368,1.91113v7.897C14.6764,8.20215,14.61543,5.6167,16.01368,1.91113Z" style="fill:#237899"/><rect x="16.01605" y="9.80811" width="0.00006" height="1.23267" style="fill:#fef1c6"/><path d="M10.1663,2.58085c1.53617.57894,1.9877,2.643,3.9754,4.12115C13.23852,3.62609,11.06474,1.83632,10.1663,2.58085Z" style="fill:#8ff888"/><path d="M11.23052,1.09187c1.11654.6553,1.65622,3.78894,2.91118,5.61013h.0001C14.23533,3.53552,12.42935.73914,11.23052,1.09187Z" style="fill:#fca15e"/><path d="M14.1418,6.702c.66553-1.75161.1607-7.18729-1.62622-6.66707,1.30178,1.24749.505,3.84693,1.62622,6.66707Z" style="fill:#9fc9e4"/></svg>