<svg xmlns="http://www.w3.org/2000/svg" viewBox="0 0 32 32"><defs><style>.a{fill:#515e91;}.b{fill:#6edca2;}.c{fill:#357093;}.d{fill:#fef1c6;}.e{fill:#e75f3b;}.f{fill:#7aebac;}.g{fill:#ffe28a;}.h{fill:#495587;}.i{fill:#ffeaa7;}.j{fill:#b0e29d;}.k{fill:#d1473d;}.l{fill:#edeeee;}.m{fill:#2b3332;}.n{fill:#d64f45;}.o{fill:#99f2bd;}</style></defs><title>647-keldeo-resolute-shiny</title><path class="a" d="M19.44773,30.95638A2.37662,2.37662,0,0,0,19.18407,32h2.37124a2.72433,2.72433,0,0,0-.48157-1.30851A3.462,3.462,0,0,1,19.44773,30.95638Z"/><path class="b" d="M26.19567,15.61527a7.43372,7.43372,0,0,0-1.54227-2.87873.479.479,0,0,0-.5821-.17022c-.22986.10653-.164.33957-.14431.52572a3.14549,3.14549,0,0,1,.0191,1.345c-.02967.09148-.0427.18846-.0634.28284a2.47815,2.47815,0,0,1-.09922-.26344,1.42338,1.42338,0,0,0-.79321-1.10384c-.11066-.04516-.22906-.11232-.336-.03995-.14779.10016-.07136.25128-.03351.37779a3.52852,3.52852,0,0,1,.26612.89569,3.46066,3.46066,0,0,1-2.9828,3.55064,4.90653,4.90653,0,0,1,.247,1.15594,7.91632,7.91632,0,0,0,1.58259.44988,3.78522,3.78522,0,0,0,4.463-2.89927A4.269,4.269,0,0,0,26.19567,15.61527Z"/><polygon class="c" points="19.423 9.579 19.417 9.586 19.417 9.591 19.423 9.579"/><path class="d" d="M19.42332,9.5791c-.30286.30567-1.93415-.00049-2.19849-.35327-.19769-.24463-.24725-.19189-.321.10181-.15705.62548-.31684.69165-.88935.48047v1.23266h-.00006v3.53247l1.37427-.353a3.728,3.728,0,0,0,1.3941-1.91455c.04267-.14306.12006-.19238.25592-.10595-.18927-.52417.13758-.98072.20014-1.47193A5.94969,5.94969,0,0,0,19.42332,9.5791Zm-3.07752,3.936c-.17444.08545-.13336-.03809-.12573-.1294.02972-.08447.10345-.13574.17017-.08594C16.4965,13.37866,16.44352,13.45972,16.3458,13.51514Z"/><rect class="d" x="16.01438" y="9.80811" width="0.00006" height="1.23267"/><polygon class="e" points="19.417 9.591 19.423 9.584 19.423 9.579 19.417 9.591"/><path class="f" d="M19.87975,16.24028c-.0964-.01563-.19663-.00666-.29405-.01795a2.45049,2.45049,0,0,1-2.197-2.00213q-.68708.17673-1.37422.35318v5.67725a.3189.3189,0,0,1,.08142.02432,2.87455,2.87455,0,0,0,.27393,1.25438c.07628.17572.15387.39428.39856.37547.24506-.01882.37-.21307.43989-.42527a2.72285,2.72285,0,0,0,.01787-1.338,14.49321,14.49321,0,0,1-.31236-3.15692c.013-.271.06318-.52282.3505-.61923.26388-.08829.44322.07411.60649.262a2.7855,2.7855,0,0,0,.91089.823c.188.0828.45921.27994.51979-.15082q-.0519-.06428-.10371-.12883-.07393-.10986-.14793-.21914c-.07332-.05385-.20359-.10711-.11088-.21017.07085-.07875.18173-.01651.25338.06311a.32185.32185,0,0,1,.11073.031,5.67357,5.67357,0,0,0,.588-.02663c.1538-.02171.33307-.07556.34617-.26373C20.25327,16.31266,20.05844,16.26923,19.87975,16.24028Z"/><path class="g" d="M18.01582,24.59042c-.089-.17109-.17123-.60475-.50039-.16935a21.93889,21.93889,0,0,1,.725,4.36787q.5251.01389,1.05028.02808c-.075-.42-.14359-.84156-.226-1.26016A11.01234,11.01234,0,0,0,18.01582,24.59042Z"/><path class="h" d="M18.2404,28.78894c-.16067.19512-.09156.45016-.17348.66584-.151.39747-.0372.5758.40753.5344.30752-.02837.61908-.01274.929-.01679q-.05623-.578-.11276-1.15537Q18.76557,28.80313,18.2404,28.78894Z"/><path class="i" d="M20.38919,25.46585c-.10545-1.86173-.09669-3.73012-.14525-5.59532a4.25471,4.25471,0,0,0-.09286-.57783,4.90722,4.90722,0,0,0-.247-1.156q-.3005-.65049-.60106-1.30127a.32185.32185,0,0,0-.11073-.031c-.07165-.07962-.18253-.14186-.25338-.06311-.09271.10306.03756.15632.11088.21017q.074.10942.148.21914l.10364.12883c-.06058.43076-.33176.23362-.51979.15082a2.7855,2.7855,0,0,1-.91089-.823c-.16327-.18789-.34261-.35029-.60649-.262-.28732.09641-.33747.34826-.3505.61923a14.49321,14.49321,0,0,0,.31236,3.15692,2.72285,2.72285,0,0,1-.01787,1.338c-.06984.2122-.19483.40645-.43989.42527-.24469.01881-.32228-.19975-.39856-.37547a2.8756,2.8756,0,0,1-.274-1.25438.31854.31854,0,0,0-.08135-.02432v4.38988a3.44914,3.44914,0,0,0,1.501-.21944c.32916-.43539.41137-.00173.50039.16936a11.01227,11.01227,0,0,1,1.04884,2.96643c.08243.41861.151.84011.226,1.26017q.05645.57753.11283,1.15537.022.492.04429.984a3.462,3.462,0,0,0,1.626-.26488A21.0555,21.0555,0,0,1,20.38919,25.46585Z"/><path class="j" d="M19.30137,17.2996l-.10367-.12888Z"/><path class="k" d="M16.39027,13.2999c-.06672-.04979-.14047.00145-.17015.086-.00767.09119-.0487.2148.12564.1294C16.44354,13.4597,16.49652,13.37864,16.39027,13.2999Z"/><path class="l" d="M18.21009,10.28564c-1.23471-.65221-.96649.90894-.9118,1.40381a.459.459,0,0,0,.396.49854c.24982.05517.402-.11963.53461-.2876A1.39859,1.39859,0,0,0,18.21009,10.28564Z"/><path class="m" d="M17.87244,10.77148c-.1004-.32836-.62465-.16992-.62884.4231q.027.24756.05471.49486c.60975.08945.76087-.11327.61835-.82933C17.90223,10.84351,17.878,10.77075,17.87244,10.77148Z"/><path class="n" d="M20.15172,9.481c.92206-.01978,2.05426-3.1084.10767-3.32691.00323-.07934.0982-.717.09479-.84692a3.297,3.297,0,0,0-1.21094-2.88086c-.20014-.16016-.38275-.3418-.58313-.50147-.11548-.09179-.17536-.32519-.35443-.24975-.1471.06177-.15815.27856-.14283.42383.04328.41162-.10943.25757-.29138.12475a6.36476,6.36476,0,0,1-1.67914-2.114h-.00006L16.01445,0V9.80811c.57245.21118.73236.145.88941-.48047.07373-.2937.12329-.34644.321-.10181.05652.30127,2.1084.70337,2.19226.36572.00556-.00268.00367-.00854.00873-.01147l-.00275.0039a6.03365,6.03365,0,0,1-.18432,1.1438c-.0625.49121-.38934.94776-.20014,1.47193a2.96353,2.96353,0,0,1,.15516.98193c-.01831.19116.0866.27783.24066.18482a3.70745,3.70745,0,0,0,1.282-.96216,1.54014,1.54014,0,0,0-.03375-2.08008A5.13931,5.13931,0,0,1,20.15172,9.481Z"/><path class="a" d="M16.01444,1.91113v7.897C17.35172,8.20215,17.4127,5.6167,16.01444,1.91113Z"/><rect class="d" x="16.01201" y="9.80811" width="0.00006" height="1.23267"/><path class="a" d="M12.57874,30.95638A2.37648,2.37648,0,0,1,12.84239,32H10.47115a2.72444,2.72444,0,0,1,.48158-1.30851A3.462,3.462,0,0,0,12.57874,30.95638Z"/><polygon class="c" points="12.603 9.579 12.609 9.586 12.609 9.591 12.603 9.579"/><path class="d" d="M12.78766,10.72778c.06256.49121.3894.94776.20013,1.47193.13587-.08643.21326-.03711.25592.106a3.728,3.728,0,0,0,1.39411,1.91455l1.37426.353V11.04077H16.012V9.80811c-.57251.21118-.7323.145-.88934-.48047-.07379-.2937-.12335-.34644-.32105-.10181-.26434.35278-1.89562.65894-2.19848.35327A5.94969,5.94969,0,0,0,12.78766,10.72778Zm2.84857,2.572c.06671-.0498.14044.00147.17017.08594.00763.09131.0487.21485-.12574.1294C15.583,13.45972,15.53,13.37866,15.63623,13.2998Z"/><rect class="d" x="16.01202" y="9.80811" width="0.00006" height="1.23267"/><polygon class="e" points="12.609 9.591 12.603 9.584 12.603 9.579 12.609 9.591"/><path class="o" d="M12.14671,16.24028c.0964-.01563.19664-.00666.294-.01795a2.45048,2.45048,0,0,0,2.197-2.00213q.68708.17673,1.37423.35318v5.67725a.31878.31878,0,0,0-.08142.02432,2.87456,2.87456,0,0,1-.27394,1.25438c-.07628.17572-.15386.39428-.39856.37547-.24505-.01882-.37-.21307-.43988-.42527a2.72285,2.72285,0,0,1-.01788-1.338,14.4926,14.4926,0,0,0,.31236-3.15692c-.013-.271-.06318-.52282-.3505-.61923-.26387-.08829-.44321.07411-.60649.262a2.7854,2.7854,0,0,1-.91089.823c-.188.0828-.45921.27994-.51978-.15082q.05188-.06428.10371-.12883.07392-.10986.14793-.21914c.07331-.05385.20358-.10711.11087-.21017-.07085-.07875-.18172-.01651-.25337.06311a.322.322,0,0,0-.11074.031,5.6737,5.6737,0,0,1-.588-.02663c-.15379-.02171-.33306-.07556-.34616-.26373C11.77319,16.31266,11.968,16.26923,12.14671,16.24028Z"/><path class="g" d="M14.01064,24.59042c.089-.17109.17124-.60475.50039-.16935a21.93887,21.93887,0,0,0-.725,4.36787q-.52511.01389-1.05028.02808c.075-.42.14359-.84156.226-1.26016A11.012,11.012,0,0,1,14.01064,24.59042Z"/><path class="h" d="M13.78607,28.78894c.16067.19512.09155.45016.17348.66584.151.39747.0372.5758-.40754.5344-.30751-.02837-.61908-.01274-.929-.01679q.05624-.578.11276-1.15537Q13.2609,28.80313,13.78607,28.78894Z"/><path class="i" d="M11.63728,25.46585c.10544-1.86173.09669-3.73012.14525-5.59532a4.25624,4.25624,0,0,1,.09285-.57783,4.90722,4.90722,0,0,1,.247-1.156q.3005-.65049.60106-1.30127a.322.322,0,0,1,.11074-.031c.07165-.07962.18252-.14186.25337-.06311.09271.10306-.03756.15632-.11087.21017q-.074.10942-.148.21914l-.10364.12883c.06057.43076.33176.23362.51978.15082a2.7854,2.7854,0,0,0,.91089-.823c.16328-.18789.34262-.35029.60649-.262.28732.09641.33748.34826.3505.61923a14.4926,14.4926,0,0,1-.31236,3.15692,2.72285,2.72285,0,0,0,.01788,1.338c.06984.2122.19483.40645.43988.42527.2447.01881.32228-.19975.39856-.37547a2.87561,2.87561,0,0,0,.274-1.25438.31842.31842,0,0,1,.08135-.02432v4.38988a3.44918,3.44918,0,0,1-1.501-.21944c-.32915-.43539-.41137-.00173-.50039.16936a11.01191,11.01191,0,0,0-1.04883,2.96643c-.08243.41861-.151.84011-.22595,1.26017q-.05645.57753-.11283,1.15537-.022.492-.04429.984a3.462,3.462,0,0,1-1.626-.26488A21.056,21.056,0,0,0,11.63728,25.46585Z"/><path class="j" d="M12.7251,17.2996l.10366-.12888Z"/><path class="k" d="M15.63619,13.2999c.06673-.04979.14048.00145.17015.086.00767.09119.04871.2148-.12564.1294C15.58292,13.4597,15.53,13.37864,15.63619,13.2999Z"/><path class="l" d="M13.81637,10.28564c1.23471-.65221.9665.90894.91181,1.40381a.45906.45906,0,0,1-.39606.49854c-.24981.05517-.402-.11963-.5346-.2876A1.39859,1.39859,0,0,1,13.81637,10.28564Z"/><path class="m" d="M14.154,10.77148c.1004-.32836.62465-.16992.62885.4231q-.027.24756-.05472.49486c-.60974.08945-.76087-.11327-.61835-.82933C14.12424,10.84351,14.1485,10.77075,14.154,10.77148Z"/><path class="n" d="M11.87474,9.481c-.922-.01978-2.05426-3.1084-.10766-3.32691-.00324-.07934-.09821-.717-.09479-.84692a3.297,3.297,0,0,1,1.21094-2.88086c.20013-.16016.38275-.3418.58313-.50147.11548-.09179.17535-.32519.35443-.24975.14709.06177.15814.27856.14282.42383-.04327.41162.10944.25757.29138.12475a6.36476,6.36476,0,0,0,1.67914-2.114h.00006L16.012,0V9.80811c-.57245.21118-.73236.145-.8894-.48047-.07373-.2937-.12329-.34644-.321-.10181-.05652.30127-2.1084.70337-2.19226.36572-.00555-.00268-.00366-.00854-.00873-.01147l.00275.0039a6.03366,6.03366,0,0,0,.18433,1.1438c.0625.49121.38934.94776.20013,1.47193a2.96378,2.96378,0,0,0-.15515.98193c.01831.19116-.08661.27783-.24066.18482a3.70735,3.70735,0,0,1-1.282-.96216,1.54012,1.54012,0,0,1,.03375-2.08008A5.13993,5.13993,0,0,0,11.87474,9.481Z"/><path class="a" d="M16.012,1.91113v7.897C14.67474,8.20215,14.61377,5.6167,16.012,1.91113Z"/><rect class="d" x="16.01439" y="9.80811" width="0.00006" height="1.23267"/></svg>