<svg xmlns="http://www.w3.org/2000/svg" viewBox="0 0 32 32"><defs><style>.a{fill:#edeeee;}.b{fill:#757f7e;}.c{fill:#e9746a;}.d{fill:#e7685f;}.e{fill:#f7f7f7;}.f{fill:#909997;}.g{fill:#838c8a;}.h{fill:#ec8179;}.i{fill:#fff;}.j{fill:#ed8c86;}.k{fill:#f09a94;}</style></defs><title>648-meloetta-pirouette</title><path class="a" d="M12.27463,31.72011c.9393-3.27174,1.8646-5.899,2.75465-6.902l-1.568-1.82643A20.847,20.847,0,0,0,12.27463,31.72011Z"/><path class="b" d="M15.5245,14.38747l-.23882,1.65943-4.83725,3.50941c-2.592.08442-3.94629,1.14523-3.40465,2.38314.86665,1.24312,2.55979.24624,3.71764-1.64045l3.587-2.81659-.36813,2.28618h.00007c0,.3689,1.01646.55,2.01968.54509V14.45049Z"/><path class="c" d="M13.98032,19.76859h-.00007l-.41425,2.5731c0,.29916,1.217.449,2.434.449v-2.477C14.99678,20.31857,13.98032,20.13749,13.98032,19.76859Z"/><path class="d" d="M18.43392,22.34169l-.492-2.5731c0,.35911-.96469.54019-1.94191.54509v2.477C17.217,22.79073,18.43392,22.64085,18.43392,22.34169Z"/><path class="b" d="M16.4755,14.38747l.23882,1.65943,4.83725,3.50941c2.592.08442,3.94629,1.14523,3.40465,2.38314-.86665,1.24312-2.55979.24624-3.71764-1.64045l-3.587-2.81659.36813,2.28618h-.00007c0,.3689-1.01646.55-2.01968.54509V14.45049Z"/><path class="e" d="M15.98866,8.35569a9.95849,9.95849,0,0,1-4.306-.85552,4.79351,4.79351,0,0,0-.92123,2.78956,5.12273,5.12273,0,0,0,5.22722,5.01113L16,15.2996V8.35518Z"/><path class="a" d="M16,15.2996a5.12118,5.12118,0,0,0,5.21594-5.00987c0-.08089-.01575-.15724-.02-.23738H16Z"/><path class="a" d="M16,8.35518v1.69717h5.196a4.82757,4.82757,0,0,0-.90125-2.55218A9.94965,9.94965,0,0,1,16,8.35518Z"/><path class="f" d="M15.98866,8.08832a10.20964,10.20964,0,0,1-4.17288-.78823c-.04939.0635-.08668.13456-.13311.20008a9.95849,9.95849,0,0,0,4.306.85552L16,8.35518V8.08782Z"/><path class="g" d="M20.16154,7.30009A10.20223,10.20223,0,0,1,16,8.08782v.26736a9.94965,9.94965,0,0,0,4.29472-.855C20.24829,7.43465,20.21093,7.36359,20.16154,7.30009Z"/><path class="e" d="M15.98866,5.27885a5.2786,5.2786,0,0,0-4.17288,2.02124,10.20964,10.20964,0,0,0,4.17288.78823L16,8.08782V5.27936Z"/><path class="a" d="M16,5.27936V8.08782a10.20223,10.20223,0,0,0,4.16154-.78773A5.27881,5.27881,0,0,0,16,5.27936Z"/><ellipse class="h" cx="13.46132" cy="10.50131" rx="1.02743" ry="1.36991"/><path class="c" d="M19.55846,10.05235a1.093,1.093,0,0,0-.9594-.92078,1.093,1.093,0,0,0-.95953.92078,1.74451,1.74451,0,0,0-.068.4488c0,.75674.46,1.37009,1.02751,1.37009.56736,0,1.02737-.61335,1.02737-1.37009A1.74451,1.74451,0,0,0,19.55846,10.05235Z"/><path class="h" d="M15.98866,7.14864c-.38819,0-.703.476-.703,1.06366,0,.58714.31481,1.06316.703,1.06316L16,9.27218V7.15192Z"/><path class="c" d="M16.69166,8.2123c0-.5816-.30895-1.05031-.69166-1.06038V9.27218C16.38271,9.26236,16.69166,8.7934,16.69166,8.2123Z"/><ellipse class="i" cx="13.20378" cy="10.09964" rx="0.31712" ry="0.40167"/><path class="i" d="M18.59906,10.09948c0,.222.13034.40167.29117.40167s.29118-.17967.29118-.40167c0-.01664-.00542-.03075-.00687-.04713h-.56862C18.60447,10.06873,18.59906,10.08284,18.59906,10.09948Z"/><path class="i" d="M18.89023,9.69805c-.14874,0-.26673.156-.28431.3543h.56862C19.157,9.854,19.039,9.69805,18.89023,9.69805Z"/><path class="a" d="M19.72537,31.72011c-.9393-3.27174-1.8646-5.899-2.75465-6.902l1.568-1.82643A20.847,20.847,0,0,1,19.72537,31.72011Z"/><path class="b" d="M18.434,22.34167c.35315-.84541,3.44457,2.09677,6.31213,1.42518C24.7787,25.03841,16.03257,25.91259,16,24.641v-1.8503C17.217,22.79073,18.434,22.64091,18.434,22.34167Z"/><path class="b" d="M13.566,22.34167c-.35315-.84541-3.44457,2.09677-6.31212,1.42518C7.22129,25.03841,15.96742,25.91259,16,24.641v-1.8503C14.783,22.79073,13.566,22.64091,13.566,22.34167Z"/><path class="j" d="M11.46287,4.69322V7.82776c0-.52037,2.26856-.78042,4.53713-.78042V4.17915C13.73143,4.17915,11.46287,4.35051,11.46287,4.69322Z"/><path class="h" d="M20.53713,7.82776V4.69322c0-.34271-2.26856-.51407-4.53713-.51407V7.04734C18.26857,7.04734,20.53713,7.30739,20.53713,7.82776Z"/><path class="k" d="M8.39466.60867a5.29529,5.29529,0,0,0-.43512,2.97427c.33275.69071,1.76306,1.03871,3.72313,1.22141,1.287-.05468,2.81369-.22478,4.31733-.3039V1.17615C12.96141,1.23109,9.62011,1.3528,8.39466.60867Z"/><path class="j" d="M21.01378,5.074c.53006.44527.97219-1.40662.7316-2.69758C22.16028,1.13558,19.2538,1.11744,16,1.17615v3.3243A10.842,10.842,0,0,1,21.01378,5.074Z"/><path class="g" d="M11.06681,2.69073c-1.06569.37512-1.06559,2.66066,0,2.74673-.09916,1.06593,0,1.86267.599,1.86267.67261,0,.79085-.44741.80982-.826,0-.65739-.96534-.47573-.70439.259-.28522.09761-.49272-.01578-.29979-1.21476a1.46465,1.46465,0,0,0,.4697-2.61239A2.788,2.788,0,0,0,13.35019.25466a3.18759,3.18759,0,0,0-1.76671,1.84642,2.10685,2.10685,0,0,0-.8571-2.381A3.5446,3.5446,0,0,0,11.06681,2.69073Z"/></svg>