<svg xmlns="http://www.w3.org/2000/svg" viewBox="0 0 32 32"><title>648-meloetta-aria-shiny</title><path d="M12.77435,2.3329,11.05162,4.9164h1.72273l3.66218,4.74984V1.27616A7.233,7.233,0,0,0,12.77435,2.3329Z" style="fill:#8fcec9"/><path d="M20.78116,21.64106a16.82308,16.82308,0,0,0,1.13137,10.25758,5.14751,5.14751,0,0,1,2.82833-.41485c1.52045-.01163,2.55949-.54017,2.94151-1.77242-1.24081-.57441-1.99887-1.98583-2.14954-4.45-.38078-2.58583,3.06434-3.67714-2.30038-10.25757-.31554-2.50141,2.22991-9.70544-2.63985-12.67089a9.013,9.013,0,0,0-4.15607-1.05674V9.66624L18.92364,12.892C16.42424,16.75859,21.1292,20.96361,20.78116,21.64106Z" style="fill:#79c6c1"/><path d="M11.74478,5.65469v5.32225c.19215,2.06561,0,3.60934-1.16057,3.60934-1.30332,0-1.53242-.86693-1.56917-1.60057,0-1.2738,1.87051-.92181,1.36487.50194.55267.18915.95474-.03058.5809-2.35381-1.93874-.08443-3.11894-3.54228-.91012-5.062Q7.02738,3.98665,7.32034.93444a6.17642,6.17642,0,0,1,3.4233,3.57775c-.33509-1.94.00318-3.57543,1.6608-4.61355A6.86813,6.86813,0,0,1,11.74478,5.65469Z" style="fill:#838c8a"/><path d="M12.38809,31.61875c1.02075-3.55548,2.0263-6.41057,2.99353-7.50055l-1.70394-1.98484A22.65472,22.65472,0,0,0,12.38809,31.61875Z" style="fill:#edeeee"/><path d="M19.57741,28.15435a11.10592,11.10592,0,0,1,.8,3.74429,8.40186,8.40186,0,0,0,.45208-3.25432Z" style="fill:#e3e5e5"/><path d="M15.9198,12.78294l-.25953,1.80334L10.4035,18.4c-2.81678.09175-4.28853,1.24455-3.69991,2.58983.9418,1.35092,2.78179.26759,4.04-1.78273l3.898-3.06085-.40005,2.48445h.00008c0,.40089,1.10461.59767,2.19483.59236V12.85142Z" style="fill:#757f7e"/><path d="M18.54685,18.63074l-.28923-2.4449a4.9102,4.9102,0,0,1-.0647-.98161l-1.00472-.618V12.95081l-.75167-.09939V19.2231C17.49851,19.21778,18.54685,19.021,18.54685,18.63074Z" style="fill:#687271"/><path d="M13.79145,21.427l-.11377.70637,1.70394,1.98484,1.05491,1.01485V21.915C15.114,21.915,13.79145,21.75209,13.79145,21.427Z" style="fill:#757f7e"/><path d="M20.82953,28.64432l3.26379-.99457L19.08154,21.427c0,.3251-1.3225.488-2.645.488v3.21808l3.14088,3.0213Z" style="fill:#687271"/><path d="M14.2417,18.63074h-.00008L13.79145,21.427c0,.3251,1.32258.488,2.64508.488V19.2231C15.34631,19.22841,14.2417,19.03163,14.2417,18.63074Z" style="fill:#79c6c1"/><path d="M19.08154,21.427l-.53469-2.79625c0,.39025-1.04834.587-2.11032.59236V21.915C17.759,21.915,19.08154,21.75209,19.08154,21.427Z" style="fill:#67bfb5"/><path d="M16.42424,6.2281a10.82122,10.82122,0,0,1-4.67946-.92975,5.20912,5.20912,0,0,0-1.00114,3.03159,5.56693,5.56693,0,0,0,5.6806,5.44558l.01229-.00133V6.22744Z" style="fill:#f7f7f7"/><path d="M22.10483,8.32994a5.20969,5.20969,0,0,0-1.00114-3.03159,10.8103,10.8103,0,0,1-4.66716.92909v7.54675A5.5654,5.5654,0,0,0,22.10483,8.32994Z" style="fill:#edeeee"/><path d="M16.42424,5.93757a11.09586,11.09586,0,0,1-4.53477-.85662c-.05369.06881-.09424.14626-.14469.2174a10.82122,10.82122,0,0,0,4.67946.92975l.01229-.00066V5.93691Z" style="fill:#909997"/><path d="M20.959,5.08095a11.08708,11.08708,0,0,1-4.52247.856v.29053a10.8103,10.8103,0,0,0,4.66716-.92909C21.05324,5.22721,21.01269,5.14976,20.959,5.08095Z" style="fill:#838c8a"/><path d="M16.42424,2.88437a5.736,5.736,0,0,0-4.53477,2.19658,11.09586,11.09586,0,0,0,4.53477.85662l.01229-.00066V2.885Z" style="fill:#f7f7f7"/><path d="M16.43653,2.885V5.93691a11.08708,11.08708,0,0,0,4.52247-.856A5.73592,5.73592,0,0,0,16.43653,2.885Z" style="fill:#edeeee"/><ellipse cx="13.67769" cy="8.55975" rx="1.11654" ry="1.48872" style="fill:#a9faa2"/><path d="M19.261,7.0711c-.61671,0-1.11657.66649-1.11657,1.48854,0,.82239.49986,1.48888,1.11657,1.48888s1.11649-.66649,1.11649-1.48888C20.37745,7.73759,19.87758,7.0711,19.261,7.0711Z" style="fill:#8ff888"/><path d="M16.42424,4.9164c-.42192,0-.764.51724-.764,1.1558,0,.63823.34205,1.15547.764,1.15547l.01229-.00366V4.92006Z" style="fill:#c1fdbd"/><path d="M17.1882,6.0722c0-.63191-.33573-1.1415-.75167-1.15214V7.224C16.85247,7.21337,17.1882,6.70378,17.1882,6.0722Z" style="fill:#a9faa2"/><ellipse cx="13.39781" cy="8.12325" rx="0.34462" ry="0.4365" style="fill:#fff"/><ellipse cx="19.57741" cy="8.12318" rx="0.31646" ry="0.43646" style="fill:#fff"/><path d="M20.2163,13.21394c-.42842,0-.77567.463-.77567,1.03407,0,.5713.34725,1.03431.77567,1.03431s.77561-.463.77561-1.03431C20.99191,13.67694,20.64466,13.21394,20.2163,13.21394Z" style="fill:#c1fdbd"/><path d="M22.56889,15.553c-.42842,0-.77567.463-.77567,1.03407,0,.57131.34725,1.03431.77567,1.03431s.77562-.463.77562-1.03431C23.34451,16.016,22.99726,15.553,22.56889,15.553Z" style="fill:#c1fdbd"/><path d="M21.79325,19.2231c-.42842,0-.77567.463-.77567,1.03407,0,.5713.34725,1.0343.77567,1.0343s.77562-.463.77562-1.0343C22.56887,19.6861,22.22162,19.2231,21.79325,19.2231Z" style="fill:#c1fdbd"/><path d="M24.6461,20.3928c-.42842,0-.77567.463-.77567,1.03407,0,.57131.34725,1.03431.77567,1.03431s.77561-.463.77561-1.03431C25.42171,20.8558,25.07446,20.3928,24.6461,20.3928Z" style="fill:#c1fdbd"/><path d="M23.34454,23.76309c-.42842,0-.77567.463-.77567,1.03407,0,.57131.34725,1.03431.77567,1.03431s.77561-.463.77561-1.03431C24.12015,24.22609,23.7729,23.76309,23.34454,23.76309Z" style="fill:#c1fdbd"/></svg>