<svg xmlns="http://www.w3.org/2000/svg" viewBox="0 0 32 32"><defs><style>.a{fill:#edeeee;}.b{fill:#757f7e;}.c{fill:#c976a3;}.d{fill:#c56a9b;}.e{fill:#f7f7f7;}.f{fill:#909997;}.g{fill:#838c8a;}.h{fill:#bf4f3c;}.i{fill:#b94a34;}.j{fill:#d786b3;}.k{fill:#fff;}.l{fill:#db92bb;}.m{fill:#e2a1c8;}</style></defs><title>648-meloetta-pirouette-shiny</title><path class="a" d="M12.27463,32c.9393-3.27174,1.8646-5.899,2.75465-6.902l-1.568-1.82643A20.847,20.847,0,0,0,12.27463,32Z"/><path class="b" d="M15.5245,14.66736l-.23882,1.65943L10.44843,19.8362c-2.592.08442-3.94629,1.14523-3.40465,2.38314.86665,1.24312,2.55979.24624,3.71764-1.64045l3.587-2.81659-.36813,2.28618h.00007c0,.3689,1.01646.55,2.01968.54509V14.73038Z"/><path class="c" d="M13.98032,20.04848h-.00007l-.41425,2.5731c0,.29916,1.217.449,2.434.449V20.59357C14.99678,20.59846,13.98032,20.41738,13.98032,20.04848Z"/><path class="d" d="M18.43392,22.62158l-.492-2.5731c0,.35911-.96469.54019-1.94191.54509v2.47705C17.217,23.07062,18.43392,22.92074,18.43392,22.62158Z"/><path class="b" d="M16.4755,14.66736l.23882,1.65943,4.83725,3.50941c2.592.08442,3.94629,1.14523,3.40465,2.38314-.86665,1.24312-2.55979.24624-3.71764-1.64045l-3.587-2.81659.36813,2.28618h-.00007c0,.3689-1.01646.55-2.01968.54509V14.73038Z"/><path class="e" d="M15.98866,8.63558a9.95849,9.95849,0,0,1-4.306-.85552,4.79351,4.79351,0,0,0-.92123,2.78956,5.12273,5.12273,0,0,0,5.22722,5.01113L16,15.57949V8.63507Z"/><path class="a" d="M16,15.57949a5.12118,5.12118,0,0,0,5.21594-5.00987c0-.08089-.01575-.15724-.02-.23738H16Z"/><path class="a" d="M16,8.63507v1.69717h5.196a4.82757,4.82757,0,0,0-.90125-2.55218A9.94965,9.94965,0,0,1,16,8.63507Z"/><path class="f" d="M15.98866,8.36821A10.20964,10.20964,0,0,1,11.81578,7.58c-.04939.0635-.08668.13456-.13311.20008a9.95849,9.95849,0,0,0,4.306.85552L16,8.63507V8.36771Z"/><path class="g" d="M20.16154,7.58A10.20223,10.20223,0,0,1,16,8.36771v.26736a9.94965,9.94965,0,0,0,4.29472-.855C20.24829,7.71454,20.21093,7.64348,20.16154,7.58Z"/><path class="e" d="M15.98866,5.55874A5.2786,5.2786,0,0,0,11.81578,7.58a10.20964,10.20964,0,0,0,4.17288.78823L16,8.36771V5.55925Z"/><path class="a" d="M16,5.55925V8.36771A10.20223,10.20223,0,0,0,20.16154,7.58,5.27881,5.27881,0,0,0,16,5.55925Z"/><ellipse class="h" cx="13.46132" cy="10.7812" rx="1.02743" ry="1.36991"/><path class="i" d="M19.55846,10.33224a1.093,1.093,0,0,0-.9594-.92078,1.093,1.093,0,0,0-.95953.92078,1.74451,1.74451,0,0,0-.068.4488c0,.75674.46,1.37009,1.02751,1.37009.56736,0,1.02737-.61335,1.02737-1.37009A1.74451,1.74451,0,0,0,19.55846,10.33224Z"/><path class="j" d="M15.98866,7.42853c-.38819,0-.703.476-.703,1.06366,0,.58715.31481,1.06316.703,1.06316L16,9.55207V7.43181Z"/><path class="c" d="M16.69166,8.49219c0-.5816-.30895-1.0503-.69166-1.06038V9.55207C16.38271,9.54225,16.69166,9.07329,16.69166,8.49219Z"/><ellipse class="k" cx="13.20378" cy="10.37953" rx="0.31712" ry="0.40167"/><path class="k" d="M18.59906,10.37937c0,.222.13034.40167.29117.40167s.29118-.17967.29118-.40167c0-.01663-.00542-.03075-.00687-.04713h-.56862C18.60447,10.34862,18.59906,10.36274,18.59906,10.37937Z"/><path class="k" d="M18.89023,9.97794c-.14874,0-.26673.156-.28431.3543h.56862C19.157,10.13393,19.039,9.97794,18.89023,9.97794Z"/><path class="a" d="M19.72537,32c-.9393-3.27174-1.8646-5.899-2.75465-6.902l1.568-1.82643A20.847,20.847,0,0,1,19.72537,32Z"/><path class="b" d="M18.434,22.62156c.35315-.84541,3.44457,2.09677,6.31213,1.42519.03257,1.27156-8.71356,2.14573-8.74613.87417v-1.8503C17.217,23.07062,18.434,22.9208,18.434,22.62156Z"/><path class="b" d="M13.566,22.62156c-.35315-.84541-3.44457,2.09677-6.31212,1.42519-.03258,1.27156,8.71355,2.14573,8.74613.87417v-1.8503C14.783,23.07062,13.566,22.9208,13.566,22.62156Z"/><path class="l" d="M11.46287,4.97311V8.10765c0-.52036,2.26856-.78042,4.53713-.78042V4.45905C13.73143,4.45905,11.46287,4.6304,11.46287,4.97311Z"/><path class="j" d="M20.53713,8.10765V4.97311c0-.34271-2.26856-.51406-4.53713-.51406V7.32723C18.26857,7.32723,20.53713,7.58729,20.53713,8.10765Z"/><path class="m" d="M8.39466.88856a5.29529,5.29529,0,0,0-.43512,2.97427c.33275.69071,1.76306,1.03872,3.72313,1.22141,1.287-.05468,2.81369-.22478,4.31733-.3039V1.45605C12.96141,1.511,9.62011,1.63269,8.39466.88856Z"/><path class="l" d="M21.01378,5.35387c.53006.44527.97219-1.40662.7316-2.69758C22.16028,1.41547,19.2538,1.39733,16,1.45605V4.78034A10.842,10.842,0,0,1,21.01378,5.35387Z"/><path class="g" d="M11.06681,2.97063c-1.06569.37511-1.06559,2.66066,0,2.74672-.09916,1.06593,0,1.86267.599,1.86267.67261,0,.79085-.44741.80982-.826,0-.65738-.96534-.47573-.70439.259-.28522.09762-.49272-.01578-.29979-1.21476a1.46465,1.46465,0,0,0,.4697-2.61239A2.788,2.788,0,0,0,13.35019.53456,3.18755,3.18755,0,0,0,11.58348,2.381,2.10685,2.10685,0,0,0,10.72638,0,3.54463,3.54463,0,0,0,11.06681,2.97063Z"/></svg>